<?xml version="1.0" encoding="utf-8" standalone="no"?>
<!DOCTYPE svg PUBLIC "-//W3C//DTD SVG 1.1//EN"
  "http://www.w3.org/Graphics/SVG/1.1/DTD/svg11.dtd">
<svg xmlns:xlink="http://www.w3.org/1999/xlink" width="460.8pt" height="345.6pt" viewBox="0 0 460.8 345.6" xmlns="http://www.w3.org/2000/svg" version="1.1">
 <metadata>
  <rdf:RDF xmlns:dc="http://purl.org/dc/elements/1.1/" xmlns:cc="http://creativecommons.org/ns#" xmlns:rdf="http://www.w3.org/1999/02/22-rdf-syntax-ns#">
   <cc:Work>
    <dc:type rdf:resource="http://purl.org/dc/dcmitype/StillImage"/>
    <dc:date>2023-07-06T15:47:45.525824</dc:date>
    <dc:format>image/svg+xml</dc:format>
    <dc:creator>
     <cc:Agent>
      <dc:title>Matplotlib v3.7.1, https://matplotlib.org/</dc:title>
     </cc:Agent>
    </dc:creator>
   </cc:Work>
  </rdf:RDF>
 </metadata>
 <defs>
  <style type="text/css">*{stroke-linejoin: round; stroke-linecap: butt}</style>
 </defs>
 <g id="figure_1">
  <g id="patch_1">
   <path d="M 0 345.6 
L 460.8 345.6 
L 460.8 0 
L 0 0 
z
" style="fill: #ffffff"/>
  </g>
  <g id="axes_1">
   <g id="patch_2">
    <path d="M 57.6 307.584 
L 414.72 307.584 
L 414.72 41.472 
L 57.6 41.472 
z
" style="fill: #e5e5e5"/>
   </g>
   <g id="matplotlib.axis_1">
    <g id="xtick_1">
     <g id="line2d_1">
      <path d="M 73.109666 307.584 
L 73.109666 41.472 
" clip-path="url(#p32c12539d4)" style="fill: none; stroke: #ffffff; stroke-width: 0.8; stroke-linecap: square"/>
     </g>
     <g id="line2d_2">
      <defs>
       <path id="m365564fd34" d="M 0 0 
L 0 3.5 
" style="stroke: #555555; stroke-width: 0.8"/>
      </defs>
      <g>
       <use xlink:href="#m365564fd34" x="73.109666" y="307.584" style="fill: #555555; stroke: #555555; stroke-width: 0.8"/>
      </g>
     </g>
     <g id="text_1">
      <!-- 0 -->
      <g style="fill: #555555" transform="translate(69.928416 322.182437) scale(0.1 -0.1)">
       <defs>
        <path id="DejaVuSans-30" d="M 2034 4250 
Q 1547 4250 1301 3770 
Q 1056 3291 1056 2328 
Q 1056 1369 1301 889 
Q 1547 409 2034 409 
Q 2525 409 2770 889 
Q 3016 1369 3016 2328 
Q 3016 3291 2770 3770 
Q 2525 4250 2034 4250 
z
M 2034 4750 
Q 2819 4750 3233 4129 
Q 3647 3509 3647 2328 
Q 3647 1150 3233 529 
Q 2819 -91 2034 -91 
Q 1250 -91 836 529 
Q 422 1150 422 2328 
Q 422 3509 836 4129 
Q 1250 4750 2034 4750 
z
" transform="scale(0.015625)"/>
       </defs>
       <use xlink:href="#DejaVuSans-30"/>
      </g>
     </g>
    </g>
    <g id="xtick_2">
     <g id="line2d_3">
      <path d="M 145.415801 307.584 
L 145.415801 41.472 
" clip-path="url(#p32c12539d4)" style="fill: none; stroke: #ffffff; stroke-width: 0.8; stroke-linecap: square"/>
     </g>
     <g id="line2d_4">
      <g>
       <use xlink:href="#m365564fd34" x="145.415801" y="307.584" style="fill: #555555; stroke: #555555; stroke-width: 0.8"/>
      </g>
     </g>
     <g id="text_2">
      <!-- 100 -->
      <g style="fill: #555555" transform="translate(135.872051 322.182437) scale(0.1 -0.1)">
       <defs>
        <path id="DejaVuSans-31" d="M 794 531 
L 1825 531 
L 1825 4091 
L 703 3866 
L 703 4441 
L 1819 4666 
L 2450 4666 
L 2450 531 
L 3481 531 
L 3481 0 
L 794 0 
L 794 531 
z
" transform="scale(0.015625)"/>
       </defs>
       <use xlink:href="#DejaVuSans-31"/>
       <use xlink:href="#DejaVuSans-30" x="63.623047"/>
       <use xlink:href="#DejaVuSans-30" x="127.246094"/>
      </g>
     </g>
    </g>
    <g id="xtick_3">
     <g id="line2d_5">
      <path d="M 217.721936 307.584 
L 217.721936 41.472 
" clip-path="url(#p32c12539d4)" style="fill: none; stroke: #ffffff; stroke-width: 0.8; stroke-linecap: square"/>
     </g>
     <g id="line2d_6">
      <g>
       <use xlink:href="#m365564fd34" x="217.721936" y="307.584" style="fill: #555555; stroke: #555555; stroke-width: 0.8"/>
      </g>
     </g>
     <g id="text_3">
      <!-- 200 -->
      <g style="fill: #555555" transform="translate(208.178186 322.182437) scale(0.1 -0.1)">
       <defs>
        <path id="DejaVuSans-32" d="M 1228 531 
L 3431 531 
L 3431 0 
L 469 0 
L 469 531 
Q 828 903 1448 1529 
Q 2069 2156 2228 2338 
Q 2531 2678 2651 2914 
Q 2772 3150 2772 3378 
Q 2772 3750 2511 3984 
Q 2250 4219 1831 4219 
Q 1534 4219 1204 4116 
Q 875 4013 500 3803 
L 500 4441 
Q 881 4594 1212 4672 
Q 1544 4750 1819 4750 
Q 2544 4750 2975 4387 
Q 3406 4025 3406 3419 
Q 3406 3131 3298 2873 
Q 3191 2616 2906 2266 
Q 2828 2175 2409 1742 
Q 1991 1309 1228 531 
z
" transform="scale(0.015625)"/>
       </defs>
       <use xlink:href="#DejaVuSans-32"/>
       <use xlink:href="#DejaVuSans-30" x="63.623047"/>
       <use xlink:href="#DejaVuSans-30" x="127.246094"/>
      </g>
     </g>
    </g>
    <g id="xtick_4">
     <g id="line2d_7">
      <path d="M 290.02807 307.584 
L 290.02807 41.472 
" clip-path="url(#p32c12539d4)" style="fill: none; stroke: #ffffff; stroke-width: 0.8; stroke-linecap: square"/>
     </g>
     <g id="line2d_8">
      <g>
       <use xlink:href="#m365564fd34" x="290.02807" y="307.584" style="fill: #555555; stroke: #555555; stroke-width: 0.8"/>
      </g>
     </g>
     <g id="text_4">
      <!-- 300 -->
      <g style="fill: #555555" transform="translate(280.48432 322.182437) scale(0.1 -0.1)">
       <defs>
        <path id="DejaVuSans-33" d="M 2597 2516 
Q 3050 2419 3304 2112 
Q 3559 1806 3559 1356 
Q 3559 666 3084 287 
Q 2609 -91 1734 -91 
Q 1441 -91 1130 -33 
Q 819 25 488 141 
L 488 750 
Q 750 597 1062 519 
Q 1375 441 1716 441 
Q 2309 441 2620 675 
Q 2931 909 2931 1356 
Q 2931 1769 2642 2001 
Q 2353 2234 1838 2234 
L 1294 2234 
L 1294 2753 
L 1863 2753 
Q 2328 2753 2575 2939 
Q 2822 3125 2822 3475 
Q 2822 3834 2567 4026 
Q 2313 4219 1838 4219 
Q 1578 4219 1281 4162 
Q 984 4106 628 3988 
L 628 4550 
Q 988 4650 1302 4700 
Q 1616 4750 1894 4750 
Q 2613 4750 3031 4423 
Q 3450 4097 3450 3541 
Q 3450 3153 3228 2886 
Q 3006 2619 2597 2516 
z
" transform="scale(0.015625)"/>
       </defs>
       <use xlink:href="#DejaVuSans-33"/>
       <use xlink:href="#DejaVuSans-30" x="63.623047"/>
       <use xlink:href="#DejaVuSans-30" x="127.246094"/>
      </g>
     </g>
    </g>
    <g id="xtick_5">
     <g id="line2d_9">
      <path d="M 362.334205 307.584 
L 362.334205 41.472 
" clip-path="url(#p32c12539d4)" style="fill: none; stroke: #ffffff; stroke-width: 0.8; stroke-linecap: square"/>
     </g>
     <g id="line2d_10">
      <g>
       <use xlink:href="#m365564fd34" x="362.334205" y="307.584" style="fill: #555555; stroke: #555555; stroke-width: 0.8"/>
      </g>
     </g>
     <g id="text_5">
      <!-- 400 -->
      <g style="fill: #555555" transform="translate(352.790455 322.182437) scale(0.1 -0.1)">
       <defs>
        <path id="DejaVuSans-34" d="M 2419 4116 
L 825 1625 
L 2419 1625 
L 2419 4116 
z
M 2253 4666 
L 3047 4666 
L 3047 1625 
L 3713 1625 
L 3713 1100 
L 3047 1100 
L 3047 0 
L 2419 0 
L 2419 1100 
L 313 1100 
L 313 1709 
L 2253 4666 
z
" transform="scale(0.015625)"/>
       </defs>
       <use xlink:href="#DejaVuSans-34"/>
       <use xlink:href="#DejaVuSans-30" x="63.623047"/>
       <use xlink:href="#DejaVuSans-30" x="127.246094"/>
      </g>
     </g>
    </g>
    <g id="text_6">
     <!-- Epoch -->
     <g style="fill: #555555" transform="translate(217.786875 337.38025) scale(0.12 -0.12)">
      <defs>
       <path id="DejaVuSans-45" d="M 628 4666 
L 3578 4666 
L 3578 4134 
L 1259 4134 
L 1259 2753 
L 3481 2753 
L 3481 2222 
L 1259 2222 
L 1259 531 
L 3634 531 
L 3634 0 
L 628 0 
L 628 4666 
z
" transform="scale(0.015625)"/>
       <path id="DejaVuSans-70" d="M 1159 525 
L 1159 -1331 
L 581 -1331 
L 581 3500 
L 1159 3500 
L 1159 2969 
Q 1341 3281 1617 3432 
Q 1894 3584 2278 3584 
Q 2916 3584 3314 3078 
Q 3713 2572 3713 1747 
Q 3713 922 3314 415 
Q 2916 -91 2278 -91 
Q 1894 -91 1617 61 
Q 1341 213 1159 525 
z
M 3116 1747 
Q 3116 2381 2855 2742 
Q 2594 3103 2138 3103 
Q 1681 3103 1420 2742 
Q 1159 2381 1159 1747 
Q 1159 1113 1420 752 
Q 1681 391 2138 391 
Q 2594 391 2855 752 
Q 3116 1113 3116 1747 
z
" transform="scale(0.015625)"/>
       <path id="DejaVuSans-6f" d="M 1959 3097 
Q 1497 3097 1228 2736 
Q 959 2375 959 1747 
Q 959 1119 1226 758 
Q 1494 397 1959 397 
Q 2419 397 2687 759 
Q 2956 1122 2956 1747 
Q 2956 2369 2687 2733 
Q 2419 3097 1959 3097 
z
M 1959 3584 
Q 2709 3584 3137 3096 
Q 3566 2609 3566 1747 
Q 3566 888 3137 398 
Q 2709 -91 1959 -91 
Q 1206 -91 779 398 
Q 353 888 353 1747 
Q 353 2609 779 3096 
Q 1206 3584 1959 3584 
z
" transform="scale(0.015625)"/>
       <path id="DejaVuSans-63" d="M 3122 3366 
L 3122 2828 
Q 2878 2963 2633 3030 
Q 2388 3097 2138 3097 
Q 1578 3097 1268 2742 
Q 959 2388 959 1747 
Q 959 1106 1268 751 
Q 1578 397 2138 397 
Q 2388 397 2633 464 
Q 2878 531 3122 666 
L 3122 134 
Q 2881 22 2623 -34 
Q 2366 -91 2075 -91 
Q 1284 -91 818 406 
Q 353 903 353 1747 
Q 353 2603 823 3093 
Q 1294 3584 2113 3584 
Q 2378 3584 2631 3529 
Q 2884 3475 3122 3366 
z
" transform="scale(0.015625)"/>
       <path id="DejaVuSans-68" d="M 3513 2113 
L 3513 0 
L 2938 0 
L 2938 2094 
Q 2938 2591 2744 2837 
Q 2550 3084 2163 3084 
Q 1697 3084 1428 2787 
Q 1159 2491 1159 1978 
L 1159 0 
L 581 0 
L 581 4863 
L 1159 4863 
L 1159 2956 
Q 1366 3272 1645 3428 
Q 1925 3584 2291 3584 
Q 2894 3584 3203 3211 
Q 3513 2838 3513 2113 
z
" transform="scale(0.015625)"/>
      </defs>
      <use xlink:href="#DejaVuSans-45"/>
      <use xlink:href="#DejaVuSans-70" x="63.183594"/>
      <use xlink:href="#DejaVuSans-6f" x="126.660156"/>
      <use xlink:href="#DejaVuSans-63" x="187.841797"/>
      <use xlink:href="#DejaVuSans-68" x="242.822266"/>
     </g>
    </g>
   </g>
   <g id="matplotlib.axis_2">
    <g id="ytick_1">
     <g id="line2d_11">
      <path d="M 57.6 292.339083 
L 414.72 292.339083 
" clip-path="url(#p32c12539d4)" style="fill: none; stroke: #ffffff; stroke-width: 0.8; stroke-linecap: square"/>
     </g>
     <g id="line2d_12">
      <defs>
       <path id="md4957809f1" d="M 0 0 
L -3.5 0 
" style="stroke: #555555; stroke-width: 0.8"/>
      </defs>
      <g>
       <use xlink:href="#md4957809f1" x="57.6" y="292.339083" style="fill: #555555; stroke: #555555; stroke-width: 0.8"/>
      </g>
     </g>
     <g id="text_7">
      <!-- 0.4 -->
      <g style="fill: #555555" transform="translate(34.696875 296.138302) scale(0.1 -0.1)">
       <defs>
        <path id="DejaVuSans-2e" d="M 684 794 
L 1344 794 
L 1344 0 
L 684 0 
L 684 794 
z
" transform="scale(0.015625)"/>
       </defs>
       <use xlink:href="#DejaVuSans-30"/>
       <use xlink:href="#DejaVuSans-2e" x="63.623047"/>
       <use xlink:href="#DejaVuSans-34" x="95.410156"/>
      </g>
     </g>
    </g>
    <g id="ytick_2">
     <g id="line2d_13">
      <path d="M 57.6 250.688334 
L 414.72 250.688334 
" clip-path="url(#p32c12539d4)" style="fill: none; stroke: #ffffff; stroke-width: 0.8; stroke-linecap: square"/>
     </g>
     <g id="line2d_14">
      <g>
       <use xlink:href="#md4957809f1" x="57.6" y="250.688334" style="fill: #555555; stroke: #555555; stroke-width: 0.8"/>
      </g>
     </g>
     <g id="text_8">
      <!-- 0.6 -->
      <g style="fill: #555555" transform="translate(34.696875 254.487552) scale(0.1 -0.1)">
       <defs>
        <path id="DejaVuSans-36" d="M 2113 2584 
Q 1688 2584 1439 2293 
Q 1191 2003 1191 1497 
Q 1191 994 1439 701 
Q 1688 409 2113 409 
Q 2538 409 2786 701 
Q 3034 994 3034 1497 
Q 3034 2003 2786 2293 
Q 2538 2584 2113 2584 
z
M 3366 4563 
L 3366 3988 
Q 3128 4100 2886 4159 
Q 2644 4219 2406 4219 
Q 1781 4219 1451 3797 
Q 1122 3375 1075 2522 
Q 1259 2794 1537 2939 
Q 1816 3084 2150 3084 
Q 2853 3084 3261 2657 
Q 3669 2231 3669 1497 
Q 3669 778 3244 343 
Q 2819 -91 2113 -91 
Q 1303 -91 875 529 
Q 447 1150 447 2328 
Q 447 3434 972 4092 
Q 1497 4750 2381 4750 
Q 2619 4750 2861 4703 
Q 3103 4656 3366 4563 
z
" transform="scale(0.015625)"/>
       </defs>
       <use xlink:href="#DejaVuSans-30"/>
       <use xlink:href="#DejaVuSans-2e" x="63.623047"/>
       <use xlink:href="#DejaVuSans-36" x="95.410156"/>
      </g>
     </g>
    </g>
    <g id="ytick_3">
     <g id="line2d_15">
      <path d="M 57.6 209.037584 
L 414.72 209.037584 
" clip-path="url(#p32c12539d4)" style="fill: none; stroke: #ffffff; stroke-width: 0.8; stroke-linecap: square"/>
     </g>
     <g id="line2d_16">
      <g>
       <use xlink:href="#md4957809f1" x="57.6" y="209.037584" style="fill: #555555; stroke: #555555; stroke-width: 0.8"/>
      </g>
     </g>
     <g id="text_9">
      <!-- 0.8 -->
      <g style="fill: #555555" transform="translate(34.696875 212.836803) scale(0.1 -0.1)">
       <defs>
        <path id="DejaVuSans-38" d="M 2034 2216 
Q 1584 2216 1326 1975 
Q 1069 1734 1069 1313 
Q 1069 891 1326 650 
Q 1584 409 2034 409 
Q 2484 409 2743 651 
Q 3003 894 3003 1313 
Q 3003 1734 2745 1975 
Q 2488 2216 2034 2216 
z
M 1403 2484 
Q 997 2584 770 2862 
Q 544 3141 544 3541 
Q 544 4100 942 4425 
Q 1341 4750 2034 4750 
Q 2731 4750 3128 4425 
Q 3525 4100 3525 3541 
Q 3525 3141 3298 2862 
Q 3072 2584 2669 2484 
Q 3125 2378 3379 2068 
Q 3634 1759 3634 1313 
Q 3634 634 3220 271 
Q 2806 -91 2034 -91 
Q 1263 -91 848 271 
Q 434 634 434 1313 
Q 434 1759 690 2068 
Q 947 2378 1403 2484 
z
M 1172 3481 
Q 1172 3119 1398 2916 
Q 1625 2713 2034 2713 
Q 2441 2713 2670 2916 
Q 2900 3119 2900 3481 
Q 2900 3844 2670 4047 
Q 2441 4250 2034 4250 
Q 1625 4250 1398 4047 
Q 1172 3844 1172 3481 
z
" transform="scale(0.015625)"/>
       </defs>
       <use xlink:href="#DejaVuSans-30"/>
       <use xlink:href="#DejaVuSans-2e" x="63.623047"/>
       <use xlink:href="#DejaVuSans-38" x="95.410156"/>
      </g>
     </g>
    </g>
    <g id="ytick_4">
     <g id="line2d_17">
      <path d="M 57.6 167.386834 
L 414.72 167.386834 
" clip-path="url(#p32c12539d4)" style="fill: none; stroke: #ffffff; stroke-width: 0.8; stroke-linecap: square"/>
     </g>
     <g id="line2d_18">
      <g>
       <use xlink:href="#md4957809f1" x="57.6" y="167.386834" style="fill: #555555; stroke: #555555; stroke-width: 0.8"/>
      </g>
     </g>
     <g id="text_10">
      <!-- 1.0 -->
      <g style="fill: #555555" transform="translate(34.696875 171.186053) scale(0.1 -0.1)">
       <use xlink:href="#DejaVuSans-31"/>
       <use xlink:href="#DejaVuSans-2e" x="63.623047"/>
       <use xlink:href="#DejaVuSans-30" x="95.410156"/>
      </g>
     </g>
    </g>
    <g id="ytick_5">
     <g id="line2d_19">
      <path d="M 57.6 125.736085 
L 414.72 125.736085 
" clip-path="url(#p32c12539d4)" style="fill: none; stroke: #ffffff; stroke-width: 0.8; stroke-linecap: square"/>
     </g>
     <g id="line2d_20">
      <g>
       <use xlink:href="#md4957809f1" x="57.6" y="125.736085" style="fill: #555555; stroke: #555555; stroke-width: 0.8"/>
      </g>
     </g>
     <g id="text_11">
      <!-- 1.2 -->
      <g style="fill: #555555" transform="translate(34.696875 129.535303) scale(0.1 -0.1)">
       <use xlink:href="#DejaVuSans-31"/>
       <use xlink:href="#DejaVuSans-2e" x="63.623047"/>
       <use xlink:href="#DejaVuSans-32" x="95.410156"/>
      </g>
     </g>
    </g>
    <g id="ytick_6">
     <g id="line2d_21">
      <path d="M 57.6 84.085335 
L 414.72 84.085335 
" clip-path="url(#p32c12539d4)" style="fill: none; stroke: #ffffff; stroke-width: 0.8; stroke-linecap: square"/>
     </g>
     <g id="line2d_22">
      <g>
       <use xlink:href="#md4957809f1" x="57.6" y="84.085335" style="fill: #555555; stroke: #555555; stroke-width: 0.8"/>
      </g>
     </g>
     <g id="text_12">
      <!-- 1.4 -->
      <g style="fill: #555555" transform="translate(34.696875 87.884554) scale(0.1 -0.1)">
       <use xlink:href="#DejaVuSans-31"/>
       <use xlink:href="#DejaVuSans-2e" x="63.623047"/>
       <use xlink:href="#DejaVuSans-34" x="95.410156"/>
      </g>
     </g>
    </g>
    <g id="ytick_7">
     <g id="line2d_23">
      <path d="M 57.6 42.434585 
L 414.72 42.434585 
" clip-path="url(#p32c12539d4)" style="fill: none; stroke: #ffffff; stroke-width: 0.8; stroke-linecap: square"/>
     </g>
     <g id="line2d_24">
      <g>
       <use xlink:href="#md4957809f1" x="57.6" y="42.434585" style="fill: #555555; stroke: #555555; stroke-width: 0.8"/>
      </g>
     </g>
     <g id="text_13">
      <!-- 1.6 -->
      <g style="fill: #555555" transform="translate(34.696875 46.233804) scale(0.1 -0.1)">
       <use xlink:href="#DejaVuSans-31"/>
       <use xlink:href="#DejaVuSans-2e" x="63.623047"/>
       <use xlink:href="#DejaVuSans-36" x="95.410156"/>
      </g>
     </g>
    </g>
    <g id="text_14">
     <!-- Loss -->
     <g style="fill: #555555" transform="translate(28.20125 187.688625) rotate(-90) scale(0.12 -0.12)">
      <defs>
       <path id="DejaVuSans-4c" d="M 628 4666 
L 1259 4666 
L 1259 531 
L 3531 531 
L 3531 0 
L 628 0 
L 628 4666 
z
" transform="scale(0.015625)"/>
       <path id="DejaVuSans-73" d="M 2834 3397 
L 2834 2853 
Q 2591 2978 2328 3040 
Q 2066 3103 1784 3103 
Q 1356 3103 1142 2972 
Q 928 2841 928 2578 
Q 928 2378 1081 2264 
Q 1234 2150 1697 2047 
L 1894 2003 
Q 2506 1872 2764 1633 
Q 3022 1394 3022 966 
Q 3022 478 2636 193 
Q 2250 -91 1575 -91 
Q 1294 -91 989 -36 
Q 684 19 347 128 
L 347 722 
Q 666 556 975 473 
Q 1284 391 1588 391 
Q 1994 391 2212 530 
Q 2431 669 2431 922 
Q 2431 1156 2273 1281 
Q 2116 1406 1581 1522 
L 1381 1569 
Q 847 1681 609 1914 
Q 372 2147 372 2553 
Q 372 3047 722 3315 
Q 1072 3584 1716 3584 
Q 2034 3584 2315 3537 
Q 2597 3491 2834 3397 
z
" transform="scale(0.015625)"/>
      </defs>
      <use xlink:href="#DejaVuSans-4c"/>
      <use xlink:href="#DejaVuSans-6f" x="53.962891"/>
      <use xlink:href="#DejaVuSans-73" x="115.144531"/>
      <use xlink:href="#DejaVuSans-73" x="167.244141"/>
     </g>
    </g>
   </g>
   <g id="line2d_25">
    <path d="M 73.832727 232.965439 
L 74.555789 231.003693 
L 75.27885 228.590739 
L 76.724973 221.369205 
L 78.894157 206.543546 
L 80.340279 194.57675 
L 81.063341 188.506362 
L 86.12477 139.307659 
L 87.570893 123.431224 
L 88.293954 117.284435 
L 89.017016 108.951041 
L 89.740077 103.135552 
L 91.1862 90.054078 
L 91.909261 84.479524 
L 92.632322 76.95761 
L 94.078445 69.352803 
L 94.801506 63.900738 
L 95.524568 61.772846 
L 96.97069 57.135341 
L 97.693752 57.772544 
L 98.416813 56.304248 
L 99.139874 53.568 
L 99.862936 53.788751 
L 100.585997 55.448429 
L 101.309059 55.700609 
L 102.03212 56.911189 
L 102.755181 55.821188 
L 103.478243 57.976984 
L 104.201304 59.587135 
L 104.924365 60.663059 
L 105.647427 60.864198 
L 106.370488 58.589809 
L 107.093549 61.340232 
L 107.816611 61.456566 
L 108.539672 63.963771 
L 109.262733 64.513985 
L 109.985795 64.164637 
L 110.708856 66.866079 
L 111.431917 69.061596 
L 112.154979 69.131953 
L 112.87804 68.601674 
L 114.324163 73.83624 
L 115.047224 73.408864 
L 115.770285 74.773711 
L 116.493347 76.746516 
L 117.216408 80.304473 
L 117.93947 80.841703 
L 118.662531 82.464514 
L 119.385592 85.705024 
L 120.108654 86.047123 
L 120.831715 88.879869 
L 122.277838 92.682583 
L 123.000899 93.09834 
L 123.72396 95.898092 
L 124.447022 98.221264 
L 125.170083 99.901299 
L 125.893144 101.13025 
L 126.616206 105.477765 
L 127.339267 108.230051 
L 128.062328 109.108461 
L 129.508451 117.19109 
L 130.231512 118.249289 
L 130.954574 121.088664 
L 131.677635 126.484448 
L 132.400696 127.219291 
L 133.846819 133.765279 
L 134.569881 134.80178 
L 135.292942 137.377057 
L 136.016003 138.247648 
L 136.739065 140.270552 
L 137.462126 140.824067 
L 138.185187 143.622752 
L 138.908249 143.453068 
L 139.63131 146.028495 
L 141.077433 146.936721 
L 142.523555 149.69993 
L 143.246617 151.872558 
L 143.969678 152.844165 
L 144.692739 155.544639 
L 145.415801 155.347224 
L 146.138862 157.717217 
L 146.861923 159.352914 
L 147.584985 159.68327 
L 148.308046 162.409836 
L 149.031108 162.772218 
L 149.754169 163.352843 
L 150.47723 166.493628 
L 151.200292 165.465642 
L 151.923353 168.095908 
L 152.646414 167.21355 
L 153.369476 168.551486 
L 154.092537 169.039065 
L 154.815598 169.938304 
L 155.53866 170.640154 
L 156.261721 172.374855 
L 156.984782 173.422342 
L 158.430905 177.076846 
L 159.153966 176.869501 
L 159.877028 178.617248 
L 160.600089 179.312544 
L 161.32315 180.327906 
L 162.046212 181.733591 
L 162.769273 183.942204 
L 163.492334 183.961494 
L 164.215396 185.511219 
L 164.938457 185.844008 
L 165.661519 186.416329 
L 166.38458 186.763692 
L 167.107641 187.501216 
L 167.830703 188.624136 
L 169.276825 188.990676 
L 169.999887 189.247362 
L 170.722948 189.382464 
L 171.446009 189.084729 
L 172.169071 188.951216 
L 172.892132 189.370101 
L 173.615193 189.430316 
L 174.338255 189.052964 
L 175.784377 189.120329 
L 176.507439 188.505096 
L 177.2305 188.40156 
L 177.953561 188.838122 
L 178.676623 188.293196 
L 179.399684 188.223895 
L 180.122745 188.379801 
L 180.845807 187.767125 
L 181.568868 188.07031 
L 182.29193 188.018772 
L 183.014991 188.47111 
L 183.738052 186.132459 
L 185.184175 184.638332 
L 185.907236 183.77 
L 186.630298 183.221413 
L 187.353359 183.599435 
L 188.07642 183.327568 
L 188.799482 183.3177 
L 189.522543 183.979778 
L 190.245604 184.134157 
L 190.968666 184.027233 
L 191.691727 184.563283 
L 193.860911 184.828621 
L 194.583972 184.763466 
L 195.307034 184.389863 
L 196.030095 184.286526 
L 196.753157 183.766624 
L 197.476218 183.816785 
L 198.922341 182.951681 
L 199.645402 182.209675 
L 200.368463 182.403453 
L 201.091525 181.816013 
L 201.814586 181.728328 
L 202.537647 181.429264 
L 203.98377 181.289669 
L 204.706831 181.251574 
L 205.429893 180.901071 
L 206.152954 181.033554 
L 206.876015 180.870858 
L 207.599077 181.063308 
L 208.322138 180.844679 
L 209.045199 180.802426 
L 210.491322 180.357374 
L 211.214383 180.407324 
L 213.383568 179.652831 
L 214.82969 179.556085 
L 215.552752 179.027631 
L 217.721936 178.968806 
L 218.444997 178.871154 
L 219.89112 178.22906 
L 220.614181 178.370281 
L 221.337242 177.89339 
L 222.060304 178.139625 
L 222.783365 177.55211 
L 223.506426 177.779676 
L 224.229488 177.34947 
L 224.952549 177.430563 
L 225.67561 177.30394 
L 226.398672 177.331124 
L 227.121733 176.768944 
L 227.844794 176.83071 
L 228.567856 176.635592 
L 229.290917 176.926066 
L 230.013979 176.591216 
L 230.73704 176.551023 
L 231.460101 175.926618 
L 232.183163 176.306638 
L 232.906224 176.257731 
L 234.352347 175.44712 
L 235.075408 175.653559 
L 236.521531 175.130467 
L 237.244592 174.675733 
L 237.967653 174.683342 
L 238.690715 174.480342 
L 240.136837 174.692019 
L 240.859899 174.492134 
L 241.58296 173.648145 
L 242.306021 173.808767 
L 243.029083 173.422503 
L 243.752144 173.875089 
L 244.475206 173.524338 
L 245.198267 172.939431 
L 245.921328 173.311706 
L 247.367451 172.68159 
L 248.090512 172.543881 
L 248.813574 172.959366 
L 249.536635 172.264939 
L 250.982758 171.916608 
L 251.705819 172.118045 
L 252.42888 171.917912 
L 253.151942 171.362485 
L 253.875003 171.295765 
L 254.598064 171.018772 
L 255.321126 171.167962 
L 256.044187 170.497852 
L 256.767248 171.011311 
L 257.49031 170.758846 
L 258.213371 170.336174 
L 258.936432 170.269393 
L 259.659494 170.473461 
L 261.105617 169.908699 
L 261.828678 169.76965 
L 262.551739 169.37775 
L 263.274801 169.314544 
L 263.997862 169.092452 
L 264.720923 168.537894 
L 265.443985 168.397132 
L 266.167046 168.118264 
L 266.890107 168.081596 
L 267.613169 168.485313 
L 269.059291 168.371549 
L 269.782353 167.452647 
L 270.505414 167.850952 
L 271.228475 167.179638 
L 271.951537 166.926192 
L 272.674598 167.700086 
L 273.397659 167.118319 
L 274.120721 166.684587 
L 274.843782 166.645859 
L 275.566843 166.077473 
L 276.289905 166.412522 
L 277.736028 165.898951 
L 278.459089 165.931795 
L 279.18215 165.253754 
L 279.905212 165.820526 
L 280.628273 165.090077 
L 281.351334 164.689414 
L 282.074396 165.031339 
L 282.797457 164.152854 
L 283.520518 165.199236 
L 284.24358 164.521095 
L 284.966641 164.033864 
L 285.689702 164.353943 
L 286.412764 163.801644 
L 287.135825 163.701124 
L 288.581948 162.654023 
L 289.305009 163.952808 
L 290.02807 162.826835 
L 290.751132 163.001857 
L 291.474193 162.134866 
L 292.197255 163.148229 
L 292.920316 162.885051 
L 293.643377 161.87417 
L 294.366439 162.664648 
L 295.0895 159.969487 
L 295.812561 161.459605 
L 296.535623 161.882363 
L 297.258684 161.94053 
L 298.704807 160.488494 
L 299.427868 161.429193 
L 300.150929 160.288622 
L 300.873991 160.741395 
L 301.597052 160.036342 
L 302.320113 160.086292 
L 303.043175 159.989149 
L 304.489297 160.493931 
L 305.212359 159.060664 
L 305.93542 158.852947 
L 306.658481 159.060367 
L 307.381543 159.559414 
L 308.827666 159.154704 
L 309.550727 158.273737 
L 310.273788 158.680607 
L 310.99685 157.782435 
L 311.719911 157.95902 
L 312.442972 157.642194 
L 313.166034 156.738411 
L 313.889095 157.028178 
L 314.612156 158.269219 
L 315.335218 157.449521 
L 316.058279 156.862093 
L 316.78134 157.061841 
L 317.504402 156.282287 
L 318.227463 156.924878 
L 318.950524 155.875119 
L 319.673586 155.710177 
L 320.396647 156.125413 
L 321.119708 154.787626 
L 321.84277 156.084351 
L 322.565831 156.380796 
L 323.288892 155.005025 
L 324.011954 153.933445 
L 324.735015 154.548231 
L 325.458077 154.226042 
L 326.181138 154.897902 
L 326.904199 154.237636 
L 327.627261 154.771638 
L 328.350322 154.12664 
L 329.073383 154.318096 
L 329.796445 153.311535 
L 330.519506 154.24131 
L 331.242567 153.431071 
L 331.965629 153.152451 
L 332.68869 152.5292 
L 333.411751 154.534254 
L 334.134813 152.17645 
L 334.857874 152.321855 
L 335.580935 152.853574 
L 336.303997 152.041646 
L 337.027058 150.932803 
L 337.750119 152.206936 
L 338.473181 151.44054 
L 339.196242 152.603032 
L 340.642365 150.374546 
L 341.365426 150.993998 
L 342.088488 150.244384 
L 342.811549 149.866287 
L 343.53461 151.044618 
L 344.257672 150.495273 
L 344.980733 150.486187 
L 345.703794 149.477342 
L 346.426856 150.219409 
L 347.149917 150.284825 
L 347.872978 149.58161 
L 348.59604 149.966931 
L 349.319101 149.239089 
L 350.042162 149.891436 
L 350.765224 148.723904 
L 351.488285 149.029584 
L 352.211346 146.677738 
L 352.934408 146.577293 
L 353.657469 149.826516 
L 354.38053 147.709597 
L 355.103592 149.262003 
L 355.826653 147.27743 
L 356.549715 148.394814 
L 357.272776 147.086967 
L 357.995837 148.115002 
L 358.718899 146.508898 
L 359.44196 145.661445 
L 360.165021 146.958096 
L 361.611144 147.689612 
L 362.334205 144.85709 
L 363.057267 147.021526 
L 363.780328 146.932004 
L 364.503389 146.478263 
L 365.226451 145.607549 
L 365.949512 144.49163 
L 366.672573 144.995196 
L 367.395635 144.001718 
L 368.118696 144.894776 
L 368.841757 146.135916 
L 369.564819 145.643149 
L 370.28788 143.84035 
L 371.010941 144.135032 
L 371.734003 145.587514 
L 372.457064 144.00492 
L 373.180126 142.865144 
L 373.903187 144.473979 
L 374.626248 141.914838 
L 376.072371 145.210907 
L 376.795432 142.409343 
L 377.518494 142.037055 
L 378.241555 143.410765 
L 378.964616 142.026355 
L 379.687678 142.896325 
L 380.410739 143.104464 
L 381.1338 142.068038 
L 381.856862 140.016237 
L 382.579923 142.382754 
L 383.302984 142.059845 
L 384.026046 141.13012 
L 384.749107 142.060267 
L 385.472168 140.70905 
L 386.19523 141.008349 
L 386.918291 141.869804 
L 387.641353 139.684912 
L 388.364414 139.964326 
L 389.087475 139.604551 
L 389.810537 139.993819 
L 390.533598 141.331904 
L 391.256659 140.151835 
L 391.979721 141.205342 
L 392.702782 139.246687 
L 393.425843 138.190722 
L 394.148905 138.536148 
L 394.871966 137.855401 
L 395.595027 138.970302 
L 396.318089 140.434551 
L 397.04115 139.823216 
L 398.487273 139.27407 
L 398.487273 139.27407 
" clip-path="url(#p32c12539d4)" style="fill: none; stroke: #6495ed; stroke-width: 2; stroke-linecap: square"/>
   </g>
   <g id="line2d_26">
    <path d="M 73.832727 229.758354 
L 74.555789 230.257468 
L 75.27885 231.046702 
L 76.724973 233.909177 
L 78.894157 239.466422 
L 80.340279 244.047233 
L 81.063341 245.870212 
L 83.955586 255.221395 
L 84.678647 256.797439 
L 85.401709 259.016491 
L 86.12477 260.660717 
L 87.570893 265.489134 
L 88.293954 266.375392 
L 89.017016 268.632082 
L 89.740077 270.052714 
L 90.463138 271.800702 
L 91.1862 274.247919 
L 91.909261 274.696298 
L 92.632322 276.818378 
L 93.355384 277.779468 
L 94.078445 279.063565 
L 94.801506 281.460946 
L 95.524568 281.115352 
L 96.247629 282.524553 
L 97.693752 283.860687 
L 98.416813 285.818581 
L 99.139874 285.443527 
L 99.862936 286.526332 
L 100.585997 286.609631 
L 101.309059 287.317284 
L 102.03212 288.947075 
L 102.755181 288.087675 
L 103.478243 289.0458 
L 104.201304 288.964286 
L 104.924365 289.571114 
L 105.647427 291.396802 
L 106.370488 290.555532 
L 107.093549 291.467425 
L 107.816611 291.466417 
L 108.539672 291.832678 
L 109.262733 293.651932 
L 109.985795 292.203045 
L 110.708856 293.19992 
L 111.431917 292.674124 
L 112.154979 293.314726 
L 112.87804 295.235841 
L 113.601101 293.062446 
L 114.324163 293.965115 
L 115.047224 293.692748 
L 115.770285 294.067137 
L 116.493347 295.488 
L 117.216408 292.744249 
L 117.93947 294.10114 
L 118.662531 293.09535 
L 119.385592 292.902851 
L 120.108654 294.696144 
L 120.831715 291.510527 
L 121.554776 292.851367 
L 122.277838 291.210169 
L 123.000899 291.715841 
L 123.72396 293.120927 
L 124.447022 289.3851 
L 125.170083 290.948896 
L 125.893144 289.153289 
L 126.616206 288.750132 
L 127.339267 290.45292 
L 128.062328 286.55076 
L 128.78539 288.026002 
L 129.508451 285.145791 
L 130.231512 285.470192 
L 130.954574 287.56853 
L 131.677635 281.554733 
L 132.400696 283.905184 
L 133.123758 280.785747 
L 133.846819 280.168653 
L 134.569881 282.96516 
L 135.292942 276.320771 
L 136.016003 278.51658 
L 136.739065 275.190119 
L 137.462126 274.862357 
L 138.185187 277.546839 
L 138.908249 270.626269 
L 139.63131 272.667977 
L 140.354371 269.283783 
L 141.077433 269.385019 
L 141.800494 273.173862 
L 142.523555 265.10119 
L 143.246617 268.050064 
L 143.969678 264.802785 
L 144.692739 264.735392 
L 145.415801 269.524214 
L 146.138862 261.355528 
L 146.861923 264.830307 
L 147.584985 261.9903 
L 148.308046 262.115318 
L 149.031108 266.560746 
L 149.754169 259.491722 
L 150.47723 262.156123 
L 151.200292 259.988616 
L 151.923353 259.898802 
L 152.646414 264.01856 
L 153.369476 257.467836 
L 154.092537 260.781465 
L 154.815598 258.454381 
L 155.53866 258.790845 
L 156.261721 261.143363 
L 156.984782 255.583568 
L 157.707844 258.433141 
L 158.430905 255.306972 
L 159.153966 256.145974 
L 159.877028 257.157945 
L 160.600089 252.699371 
L 161.32315 255.394732 
L 162.046212 252.541088 
L 162.769273 252.425218 
L 163.492334 253.011983 
L 164.215396 249.212659 
L 164.938457 251.939327 
L 165.661519 249.664233 
L 166.38458 250.492184 
L 167.107641 250.262761 
L 167.830703 247.79096 
L 168.553764 250.876529 
L 169.276825 249.277484 
L 169.999887 250.292758 
L 170.722948 250.392406 
L 171.446009 249.186373 
L 172.169071 252.337582 
L 172.892132 250.815578 
L 173.615193 251.807417 
L 174.338255 252.155197 
L 175.061316 250.946625 
L 175.784377 253.744383 
L 176.507439 252.669322 
L 177.2305 253.493955 
L 177.953561 253.38412 
L 178.676623 252.618604 
L 179.399684 255.21188 
L 180.122745 253.90411 
L 180.845807 254.788165 
L 181.568868 254.767091 
L 182.29193 253.869705 
L 183.014991 255.978462 
L 183.738052 255.423777 
L 184.461114 255.893572 
L 185.184175 256.031594 
L 185.907236 255.368346 
L 186.630298 257.745247 
L 187.353359 256.515597 
L 188.07642 257.140571 
L 188.799482 257.372091 
L 189.522543 256.473296 
L 190.245604 258.661282 
L 190.968666 257.881806 
L 192.414788 258.360795 
L 193.13785 257.780278 
L 193.860911 259.631804 
L 194.583972 258.751276 
L 195.307034 259.153417 
L 196.030095 259.231282 
L 196.753157 258.667781 
L 197.476218 260.386608 
L 198.199279 259.535739 
L 199.645402 260.111668 
L 200.368463 259.263211 
L 201.091525 261.229863 
L 201.814586 260.291171 
L 202.537647 260.578277 
L 203.260709 260.632716 
L 203.98377 260.057253 
L 204.706831 261.72974 
L 205.429893 261.023215 
L 206.876015 261.303641 
L 207.599077 260.596077 
L 208.322138 262.297791 
L 209.045199 261.51163 
L 210.491322 261.832265 
L 211.214383 261.200629 
L 211.937445 262.852001 
L 212.660506 262.094216 
L 213.383568 262.294169 
L 214.106629 262.349622 
L 214.82969 261.749177 
L 215.552752 263.484286 
L 216.275813 262.664535 
L 217.721936 262.799858 
L 218.444997 262.218193 
L 219.168058 263.827873 
L 219.89112 263.145782 
L 220.614181 263.144182 
L 221.337242 263.363627 
L 222.060304 262.66114 
L 222.783365 264.362602 
L 223.506426 263.515242 
L 224.229488 263.712922 
L 224.952549 263.734912 
L 225.67561 263.179983 
L 226.398672 264.64534 
L 227.121733 264.086049 
L 228.567856 264.282728 
L 229.290917 263.594383 
L 230.013979 265.170754 
L 230.73704 264.432051 
L 231.460101 264.706572 
L 232.183163 264.653436 
L 232.906224 264.046378 
L 233.629285 265.603765 
L 234.352347 264.979968 
L 235.075408 264.976357 
L 235.798469 265.104959 
L 236.521531 264.563664 
L 237.244592 266.160714 
L 237.967653 265.415745 
L 239.413776 265.62575 
L 240.136837 264.933223 
L 240.859899 266.4314 
L 241.58296 265.989973 
L 242.306021 265.942781 
L 243.029083 266.214694 
L 243.752144 265.369957 
L 244.475206 266.933245 
L 245.198267 266.391916 
L 245.921328 266.279907 
L 246.64439 266.51189 
L 247.367451 265.962428 
L 248.090512 267.434746 
L 248.813574 266.539371 
L 250.259696 266.989814 
L 250.982758 266.338698 
L 251.705819 267.686925 
L 252.42888 267.00534 
L 253.875003 267.403577 
L 254.598064 266.80582 
L 255.321126 268.223755 
L 256.044187 267.718617 
L 256.767248 267.593411 
L 257.49031 267.858753 
L 258.213371 267.272929 
L 258.936432 268.711473 
L 259.659494 267.89697 
L 260.382555 268.003904 
L 261.105617 268.304593 
L 261.828678 267.566607 
L 262.551739 269.135462 
L 263.274801 268.416445 
L 263.997862 268.500963 
L 264.720923 268.91924 
L 265.443985 268.168231 
L 266.167046 269.727218 
L 266.890107 269.002169 
L 267.613169 268.889224 
L 268.33623 269.198311 
L 269.059291 268.347706 
L 269.782353 270.077574 
L 270.505414 269.162363 
L 271.228475 269.401784 
L 271.951537 269.81619 
L 272.674598 268.681549 
L 273.397659 270.325999 
L 274.120721 269.689694 
L 274.843782 269.777963 
L 275.566843 270.333541 
L 276.289905 269.330867 
L 277.012966 270.852168 
L 277.736028 270.188546 
L 278.459089 270.205324 
L 279.18215 270.780487 
L 279.905212 269.609707 
L 280.628273 271.308293 
L 281.351334 270.610371 
L 282.074396 270.478583 
L 282.797457 271.248848 
L 283.520518 269.860511 
L 284.24358 271.569516 
L 284.966641 270.989668 
L 285.689702 270.85765 
L 286.412764 271.501844 
L 287.135825 270.535342 
L 287.858886 272.21809 
L 288.581948 271.660063 
L 289.305009 271.257363 
L 290.02807 272.119551 
L 290.751132 270.939177 
L 291.474193 272.704207 
L 292.197255 271.478115 
L 292.920316 271.657148 
L 293.643377 272.44912 
L 294.366439 271.06267 
L 295.0895 273.41622 
L 295.812561 272.175821 
L 296.535623 272.118649 
L 297.258684 272.676882 
L 297.981745 271.806658 
L 298.704807 273.542716 
L 299.427868 272.343228 
L 300.873991 273.29501 
L 301.597052 272.347476 
L 302.320113 273.8338 
L 303.043175 273.061123 
L 303.766236 272.901674 
L 304.489297 273.389568 
L 305.212359 272.656185 
L 305.93542 274.161359 
L 306.658481 273.335241 
L 307.381543 273.160464 
L 308.104604 273.831946 
L 308.827666 272.713288 
L 309.550727 274.472899 
L 310.273788 273.455356 
L 310.99685 273.700218 
L 311.719911 274.439432 
L 312.442972 273.270083 
L 313.166034 275.202549 
L 313.889095 274.264042 
L 314.612156 273.990247 
L 315.335218 274.948596 
L 316.058279 273.790971 
L 316.78134 275.0979 
L 317.504402 274.570235 
L 318.227463 274.344632 
L 318.950524 275.477005 
L 319.673586 274.175465 
L 320.396647 275.463628 
L 321.119708 275.242086 
L 321.84277 274.778552 
L 322.565831 275.455874 
L 323.288892 274.680458 
L 324.011954 276.314282 
L 324.735015 275.461531 
L 325.458077 275.514455 
L 326.181138 276.181956 
L 326.904199 275.15074 
L 327.627261 276.346941 
L 328.350322 275.705775 
L 329.073383 275.590522 
L 329.796445 276.74969 
L 330.519506 275.026246 
L 331.242567 276.550317 
L 331.965629 275.874344 
L 332.68869 276.072789 
L 333.411751 276.455803 
L 334.134813 275.837793 
L 334.857874 277.123626 
L 335.580935 276.174914 
L 336.303997 276.592948 
L 337.027058 277.816639 
L 337.750119 276.141113 
L 338.473181 277.790265 
L 339.196242 276.496354 
L 339.919304 276.814395 
L 340.642365 277.91351 
L 341.365426 276.388124 
L 342.088488 277.849603 
L 342.811549 277.284678 
L 343.53461 276.901629 
L 344.257672 278.01879 
L 344.980733 276.678713 
L 345.703794 278.217603 
L 346.426856 277.221087 
L 347.149917 277.266643 
L 347.872978 278.465931 
L 348.59604 277.060476 
L 349.319101 278.571491 
L 350.042162 277.539593 
L 350.765224 277.859044 
L 351.488285 278.624557 
L 352.211346 277.984656 
L 352.934408 279.539715 
L 353.657469 277.729182 
L 354.38053 278.488884 
L 355.103592 278.97283 
L 355.826653 278.118861 
L 356.549715 278.927085 
L 357.995837 278.023761 
L 358.718899 279.473387 
L 359.44196 278.555129 
L 360.165021 279.370682 
L 360.888083 278.564123 
L 361.611144 278.52992 
L 362.334205 280.360001 
L 363.057267 278.483631 
L 363.780328 279.536171 
L 364.503389 278.670201 
L 365.226451 278.958396 
L 365.949512 280.072911 
L 366.672573 278.827889 
L 367.395635 280.470062 
L 368.118696 279.666963 
L 368.841757 279.264332 
L 369.564819 280.089028 
L 370.28788 279.586334 
L 371.010941 280.573329 
L 371.734003 279.407086 
L 372.457064 279.600423 
L 373.180126 280.827517 
L 373.903187 278.989111 
L 374.626248 281.085207 
L 375.34931 280.131318 
L 376.072371 279.657913 
L 376.795432 281.263898 
L 377.518494 280.457962 
L 378.241555 280.992044 
L 378.964616 280.969357 
L 379.687678 280.494814 
L 380.410739 281.127513 
L 381.1338 280.297667 
L 381.856862 282.039684 
L 382.579923 280.6185 
L 383.302984 280.812877 
L 384.026046 281.757705 
L 384.749107 280.362888 
L 385.472168 282.132433 
L 386.19523 281.002831 
L 386.918291 280.821944 
L 387.641353 282.215387 
L 388.364414 281.196468 
L 389.087475 282.400923 
L 389.810537 281.804816 
L 390.533598 281.576708 
L 391.256659 282.221657 
L 391.979721 280.981826 
L 392.702782 282.262242 
L 393.425843 281.642362 
L 394.148905 281.533484 
L 394.871966 282.577453 
L 395.595027 281.626588 
L 396.318089 282.309291 
L 397.04115 281.860573 
L 397.764211 281.917734 
L 398.487273 282.250959 
L 398.487273 282.250959 
" clip-path="url(#p32c12539d4)" style="fill: none; stroke: #dc143c; stroke-width: 2; stroke-linecap: square"/>
   </g>
   <g id="line2d_27">
    <path d="M 73.832727 290.412387 
L 76.724973 290.412387 
L 77.448034 230.925161 
L 80.340279 230.925161 
L 81.063341 224.728979 
L 83.955586 224.728979 
L 84.678647 223.2187 
L 87.570893 223.2187 
L 88.293954 222.83265 
L 91.1862 222.83265 
L 91.909261 222.441754 
L 94.801506 222.441754 
L 95.524568 221.693884 
L 98.416813 221.693884 
L 99.139874 220.551079 
L 102.03212 220.551079 
L 102.755181 218.841314 
L 105.647427 218.841314 
L 106.370488 216.647775 
L 109.262733 216.647775 
L 109.985795 214.509963 
L 112.87804 214.509963 
L 113.601101 212.528832 
L 116.493347 212.528832 
L 117.216408 211.086395 
L 120.108654 211.086395 
L 120.831715 210.084926 
L 123.72396 210.084926 
L 124.447022 209.795792 
L 127.339267 209.795792 
L 128.062328 209.576115 
L 130.954574 209.576115 
L 131.677635 209.181989 
L 134.569881 209.181989 
L 135.292942 208.684486 
L 138.185187 208.684486 
L 138.908249 208.099757 
L 141.800494 208.099757 
L 142.523555 207.611945 
L 152.646414 207.515029 
L 153.369476 207.025602 
L 156.261721 207.025602 
L 156.984782 206.058054 
L 159.877028 206.058054 
L 160.600089 204.542929 
L 163.492334 204.542929 
L 164.215396 202.368773 
L 167.107641 202.368773 
L 167.830703 199.703575 
L 170.722948 199.703575 
L 171.446009 196.720168 
L 174.338255 196.720168 
L 175.061316 194.17773 
L 177.953561 194.17773 
L 178.676623 192.186101 
L 181.568868 192.186101 
L 182.29193 190.241313 
L 185.184175 190.241313 
L 185.907236 188.773031 
L 188.799482 188.773031 
L 189.522543 187.771563 
L 192.414788 187.771563 
L 193.13785 187.412973 
L 196.030095 187.412973 
L 196.753157 187.563193 
L 199.645402 187.563193 
L 200.368463 188.13823 
L 203.260709 188.13823 
L 203.98377 188.964441 
L 206.876015 188.964441 
L 207.599077 189.937642 
L 210.491322 189.937642 
L 211.214383 191.346159 
L 214.106629 191.346159 
L 214.82969 193.284485 
L 217.721936 193.284485 
L 218.444997 195.062092 
L 221.337242 195.062092 
L 222.060304 196.923692 
L 224.952549 196.923692 
L 225.67561 198.862018 
L 228.567856 198.862018 
L 229.290917 201.029713 
L 232.183163 201.029713 
L 232.906224 203.289478 
L 235.798469 203.289478 
L 236.521531 205.846453 
L 239.413776 205.846453 
L 240.136837 208.938083 
L 243.029083 208.938083 
L 243.752144 211.667892 
L 246.64439 211.667892 
L 247.367451 214.291094 
L 250.259696 214.291094 
L 250.982758 217.552327 
L 253.875003 217.552327 
L 254.598064 220.461431 
L 257.49031 220.461431 
L 258.213371 222.895646 
L 261.105617 222.895646 
L 261.828678 225.040727 
L 264.720923 225.040727 
L 265.443985 227.32149 
L 268.33623 227.32149 
L 269.059291 229.652327 
L 271.951537 229.652327 
L 272.674598 231.269214 
L 275.566843 231.269214 
L 276.289905 232.945866 
L 279.18215 232.945866 
L 279.905212 234.596674 
L 282.797457 234.596674 
L 283.520518 236.157026 
L 286.412764 236.157026 
L 287.135825 237.596233 
L 290.02807 237.596233 
L 290.751132 239.280962 
L 293.643377 239.280962 
L 294.366439 240.587717 
L 297.258684 240.587717 
L 297.981745 241.892856 
L 300.873991 241.892856 
L 301.597052 243.669655 
L 304.489297 243.669655 
L 305.212359 245.317232 
L 308.104604 245.317232 
L 308.827666 247.060918 
L 311.719911 247.060918 
L 312.442972 248.668921 
L 315.335218 248.668921 
L 316.058279 250.410184 
L 318.950524 250.410184 
L 319.673586 251.872005 
L 322.565831 251.872005 
L 323.288892 253.710184 
L 326.181138 253.710184 
L 326.904199 255.5629 
L 329.796445 255.5629 
L 330.519506 257.311432 
L 333.411751 257.311432 
L 334.134813 258.888745 
L 337.027058 258.888745 
L 337.750119 260.468481 
L 340.642365 260.468481 
L 341.365426 261.956146 
L 344.257672 261.956146 
L 344.980733 263.466425 
L 347.872978 263.466425 
L 348.59604 264.68757 
L 351.488285 264.68757 
L 352.211346 266.207541 
L 355.103592 266.207541 
L 355.826653 267.559523 
L 358.718899 267.559523 
L 359.44196 268.901814 
L 362.334205 268.901814 
L 363.057267 270.040581 
L 365.949512 270.040581 
L 366.672573 271.193885 
L 369.564819 271.193885 
L 370.28788 272.248657 
L 373.180126 272.248657 
L 373.903187 273.175823 
L 376.795432 273.175823 
L 377.518494 274.373547 
L 380.410739 274.373547 
L 381.1338 275.367747 
L 384.026046 275.367747 
L 384.749107 276.479054 
L 387.641353 276.479054 
L 388.364414 277.462754 
L 391.256659 277.462754 
L 391.979721 278.35923 
L 394.871966 278.35923 
L 395.595027 279.288011 
L 398.487273 279.288011 
L 398.487273 279.288011 
" clip-path="url(#p32c12539d4)" style="fill: none; stroke: #ffff00; stroke-width: 3; stroke-linecap: square"/>
   </g>
   <g id="patch_3">
    <path d="M 57.6 307.584 
L 57.6 41.472 
" style="fill: none; stroke: #ffffff; stroke-linejoin: miter; stroke-linecap: square"/>
   </g>
   <g id="patch_4">
    <path d="M 414.72 307.584 
L 414.72 41.472 
" style="fill: none; stroke: #ffffff; stroke-linejoin: miter; stroke-linecap: square"/>
   </g>
   <g id="patch_5">
    <path d="M 57.6 307.584 
L 414.72 307.584 
" style="fill: none; stroke: #ffffff; stroke-linejoin: miter; stroke-linecap: square"/>
   </g>
   <g id="patch_6">
    <path d="M 57.6 41.472 
L 414.72 41.472 
" style="fill: none; stroke: #ffffff; stroke-linejoin: miter; stroke-linecap: square"/>
   </g>
   <g id="legend_1">
    <g id="patch_7">
     <path d="M 243.124687 302.584 
L 407.72 302.584 
Q 409.72 302.584 409.72 300.584 
L 409.72 257.549625 
Q 409.72 255.549625 407.72 255.549625 
L 243.124687 255.549625 
Q 241.124687 255.549625 241.124687 257.549625 
L 241.124687 300.584 
Q 241.124687 302.584 243.124687 302.584 
z
" style="fill: #e5e5e5; opacity: 0.8; stroke: #cccccc; stroke-width: 0.5; stroke-linejoin: miter"/>
    </g>
    <g id="line2d_28">
     <path d="M 245.124687 263.648062 
L 255.124687 263.648062 
L 265.124687 263.648062 
" style="fill: none; stroke: #6495ed; stroke-width: 2; stroke-linecap: square"/>
    </g>
    <g id="text_15">
     <!-- Generator loss -->
     <g transform="translate(273.124687 267.148062) scale(0.1 -0.1)">
      <defs>
       <path id="DejaVuSans-47" d="M 3809 666 
L 3809 1919 
L 2778 1919 
L 2778 2438 
L 4434 2438 
L 4434 434 
Q 4069 175 3628 42 
Q 3188 -91 2688 -91 
Q 1594 -91 976 548 
Q 359 1188 359 2328 
Q 359 3472 976 4111 
Q 1594 4750 2688 4750 
Q 3144 4750 3555 4637 
Q 3966 4525 4313 4306 
L 4313 3634 
Q 3963 3931 3569 4081 
Q 3175 4231 2741 4231 
Q 1884 4231 1454 3753 
Q 1025 3275 1025 2328 
Q 1025 1384 1454 906 
Q 1884 428 2741 428 
Q 3075 428 3337 486 
Q 3600 544 3809 666 
z
" transform="scale(0.015625)"/>
       <path id="DejaVuSans-65" d="M 3597 1894 
L 3597 1613 
L 953 1613 
Q 991 1019 1311 708 
Q 1631 397 2203 397 
Q 2534 397 2845 478 
Q 3156 559 3463 722 
L 3463 178 
Q 3153 47 2828 -22 
Q 2503 -91 2169 -91 
Q 1331 -91 842 396 
Q 353 884 353 1716 
Q 353 2575 817 3079 
Q 1281 3584 2069 3584 
Q 2775 3584 3186 3129 
Q 3597 2675 3597 1894 
z
M 3022 2063 
Q 3016 2534 2758 2815 
Q 2500 3097 2075 3097 
Q 1594 3097 1305 2825 
Q 1016 2553 972 2059 
L 3022 2063 
z
" transform="scale(0.015625)"/>
       <path id="DejaVuSans-6e" d="M 3513 2113 
L 3513 0 
L 2938 0 
L 2938 2094 
Q 2938 2591 2744 2837 
Q 2550 3084 2163 3084 
Q 1697 3084 1428 2787 
Q 1159 2491 1159 1978 
L 1159 0 
L 581 0 
L 581 3500 
L 1159 3500 
L 1159 2956 
Q 1366 3272 1645 3428 
Q 1925 3584 2291 3584 
Q 2894 3584 3203 3211 
Q 3513 2838 3513 2113 
z
" transform="scale(0.015625)"/>
       <path id="DejaVuSans-72" d="M 2631 2963 
Q 2534 3019 2420 3045 
Q 2306 3072 2169 3072 
Q 1681 3072 1420 2755 
Q 1159 2438 1159 1844 
L 1159 0 
L 581 0 
L 581 3500 
L 1159 3500 
L 1159 2956 
Q 1341 3275 1631 3429 
Q 1922 3584 2338 3584 
Q 2397 3584 2469 3576 
Q 2541 3569 2628 3553 
L 2631 2963 
z
" transform="scale(0.015625)"/>
       <path id="DejaVuSans-61" d="M 2194 1759 
Q 1497 1759 1228 1600 
Q 959 1441 959 1056 
Q 959 750 1161 570 
Q 1363 391 1709 391 
Q 2188 391 2477 730 
Q 2766 1069 2766 1631 
L 2766 1759 
L 2194 1759 
z
M 3341 1997 
L 3341 0 
L 2766 0 
L 2766 531 
Q 2569 213 2275 61 
Q 1981 -91 1556 -91 
Q 1019 -91 701 211 
Q 384 513 384 1019 
Q 384 1609 779 1909 
Q 1175 2209 1959 2209 
L 2766 2209 
L 2766 2266 
Q 2766 2663 2505 2880 
Q 2244 3097 1772 3097 
Q 1472 3097 1187 3025 
Q 903 2953 641 2809 
L 641 3341 
Q 956 3463 1253 3523 
Q 1550 3584 1831 3584 
Q 2591 3584 2966 3190 
Q 3341 2797 3341 1997 
z
" transform="scale(0.015625)"/>
       <path id="DejaVuSans-74" d="M 1172 4494 
L 1172 3500 
L 2356 3500 
L 2356 3053 
L 1172 3053 
L 1172 1153 
Q 1172 725 1289 603 
Q 1406 481 1766 481 
L 2356 481 
L 2356 0 
L 1766 0 
Q 1100 0 847 248 
Q 594 497 594 1153 
L 594 3053 
L 172 3053 
L 172 3500 
L 594 3500 
L 594 4494 
L 1172 4494 
z
" transform="scale(0.015625)"/>
       <path id="DejaVuSans-20" transform="scale(0.015625)"/>
       <path id="DejaVuSans-6c" d="M 603 4863 
L 1178 4863 
L 1178 0 
L 603 0 
L 603 4863 
z
" transform="scale(0.015625)"/>
      </defs>
      <use xlink:href="#DejaVuSans-47"/>
      <use xlink:href="#DejaVuSans-65" x="77.490234"/>
      <use xlink:href="#DejaVuSans-6e" x="139.013672"/>
      <use xlink:href="#DejaVuSans-65" x="202.392578"/>
      <use xlink:href="#DejaVuSans-72" x="263.916016"/>
      <use xlink:href="#DejaVuSans-61" x="305.029297"/>
      <use xlink:href="#DejaVuSans-74" x="366.308594"/>
      <use xlink:href="#DejaVuSans-6f" x="405.517578"/>
      <use xlink:href="#DejaVuSans-72" x="466.699219"/>
      <use xlink:href="#DejaVuSans-20" x="507.8125"/>
      <use xlink:href="#DejaVuSans-6c" x="539.599609"/>
      <use xlink:href="#DejaVuSans-6f" x="567.382812"/>
      <use xlink:href="#DejaVuSans-73" x="628.564453"/>
      <use xlink:href="#DejaVuSans-73" x="680.664062"/>
     </g>
    </g>
    <g id="line2d_29">
     <path d="M 245.124687 278.326188 
L 255.124687 278.326188 
L 265.124687 278.326188 
" style="fill: none; stroke: #dc143c; stroke-width: 2; stroke-linecap: square"/>
    </g>
    <g id="text_16">
     <!-- Average discriminator loss -->
     <g transform="translate(273.124687 281.826188) scale(0.1 -0.1)">
      <defs>
       <path id="DejaVuSans-41" d="M 2188 4044 
L 1331 1722 
L 3047 1722 
L 2188 4044 
z
M 1831 4666 
L 2547 4666 
L 4325 0 
L 3669 0 
L 3244 1197 
L 1141 1197 
L 716 0 
L 50 0 
L 1831 4666 
z
" transform="scale(0.015625)"/>
       <path id="DejaVuSans-76" d="M 191 3500 
L 800 3500 
L 1894 563 
L 2988 3500 
L 3597 3500 
L 2284 0 
L 1503 0 
L 191 3500 
z
" transform="scale(0.015625)"/>
       <path id="DejaVuSans-67" d="M 2906 1791 
Q 2906 2416 2648 2759 
Q 2391 3103 1925 3103 
Q 1463 3103 1205 2759 
Q 947 2416 947 1791 
Q 947 1169 1205 825 
Q 1463 481 1925 481 
Q 2391 481 2648 825 
Q 2906 1169 2906 1791 
z
M 3481 434 
Q 3481 -459 3084 -895 
Q 2688 -1331 1869 -1331 
Q 1566 -1331 1297 -1286 
Q 1028 -1241 775 -1147 
L 775 -588 
Q 1028 -725 1275 -790 
Q 1522 -856 1778 -856 
Q 2344 -856 2625 -561 
Q 2906 -266 2906 331 
L 2906 616 
Q 2728 306 2450 153 
Q 2172 0 1784 0 
Q 1141 0 747 490 
Q 353 981 353 1791 
Q 353 2603 747 3093 
Q 1141 3584 1784 3584 
Q 2172 3584 2450 3431 
Q 2728 3278 2906 2969 
L 2906 3500 
L 3481 3500 
L 3481 434 
z
" transform="scale(0.015625)"/>
       <path id="DejaVuSans-64" d="M 2906 2969 
L 2906 4863 
L 3481 4863 
L 3481 0 
L 2906 0 
L 2906 525 
Q 2725 213 2448 61 
Q 2172 -91 1784 -91 
Q 1150 -91 751 415 
Q 353 922 353 1747 
Q 353 2572 751 3078 
Q 1150 3584 1784 3584 
Q 2172 3584 2448 3432 
Q 2725 3281 2906 2969 
z
M 947 1747 
Q 947 1113 1208 752 
Q 1469 391 1925 391 
Q 2381 391 2643 752 
Q 2906 1113 2906 1747 
Q 2906 2381 2643 2742 
Q 2381 3103 1925 3103 
Q 1469 3103 1208 2742 
Q 947 2381 947 1747 
z
" transform="scale(0.015625)"/>
       <path id="DejaVuSans-69" d="M 603 3500 
L 1178 3500 
L 1178 0 
L 603 0 
L 603 3500 
z
M 603 4863 
L 1178 4863 
L 1178 4134 
L 603 4134 
L 603 4863 
z
" transform="scale(0.015625)"/>
       <path id="DejaVuSans-6d" d="M 3328 2828 
Q 3544 3216 3844 3400 
Q 4144 3584 4550 3584 
Q 5097 3584 5394 3201 
Q 5691 2819 5691 2113 
L 5691 0 
L 5113 0 
L 5113 2094 
Q 5113 2597 4934 2840 
Q 4756 3084 4391 3084 
Q 3944 3084 3684 2787 
Q 3425 2491 3425 1978 
L 3425 0 
L 2847 0 
L 2847 2094 
Q 2847 2600 2669 2842 
Q 2491 3084 2119 3084 
Q 1678 3084 1418 2786 
Q 1159 2488 1159 1978 
L 1159 0 
L 581 0 
L 581 3500 
L 1159 3500 
L 1159 2956 
Q 1356 3278 1631 3431 
Q 1906 3584 2284 3584 
Q 2666 3584 2933 3390 
Q 3200 3197 3328 2828 
z
" transform="scale(0.015625)"/>
      </defs>
      <use xlink:href="#DejaVuSans-41"/>
      <use xlink:href="#DejaVuSans-76" x="62.533203"/>
      <use xlink:href="#DejaVuSans-65" x="121.712891"/>
      <use xlink:href="#DejaVuSans-72" x="183.236328"/>
      <use xlink:href="#DejaVuSans-61" x="224.349609"/>
      <use xlink:href="#DejaVuSans-67" x="285.628906"/>
      <use xlink:href="#DejaVuSans-65" x="349.105469"/>
      <use xlink:href="#DejaVuSans-20" x="410.628906"/>
      <use xlink:href="#DejaVuSans-64" x="442.416016"/>
      <use xlink:href="#DejaVuSans-69" x="505.892578"/>
      <use xlink:href="#DejaVuSans-73" x="533.675781"/>
      <use xlink:href="#DejaVuSans-63" x="585.775391"/>
      <use xlink:href="#DejaVuSans-72" x="640.755859"/>
      <use xlink:href="#DejaVuSans-69" x="681.869141"/>
      <use xlink:href="#DejaVuSans-6d" x="709.652344"/>
      <use xlink:href="#DejaVuSans-69" x="807.064453"/>
      <use xlink:href="#DejaVuSans-6e" x="834.847656"/>
      <use xlink:href="#DejaVuSans-61" x="898.226562"/>
      <use xlink:href="#DejaVuSans-74" x="959.505859"/>
      <use xlink:href="#DejaVuSans-6f" x="998.714844"/>
      <use xlink:href="#DejaVuSans-72" x="1059.896484"/>
      <use xlink:href="#DejaVuSans-20" x="1101.009766"/>
      <use xlink:href="#DejaVuSans-6c" x="1132.796875"/>
      <use xlink:href="#DejaVuSans-6f" x="1160.580078"/>
      <use xlink:href="#DejaVuSans-73" x="1221.761719"/>
      <use xlink:href="#DejaVuSans-73" x="1273.861328"/>
     </g>
    </g>
    <g id="line2d_30">
     <path d="M 245.124687 293.004312 
L 255.124687 293.004312 
L 265.124687 293.004312 
" style="fill: none; stroke: #ffff00; stroke-width: 3; stroke-linecap: square"/>
    </g>
    <g id="text_17">
     <!-- ROC AUC -->
     <g transform="translate(273.124687 296.504312) scale(0.1 -0.1)">
      <defs>
       <path id="DejaVuSans-52" d="M 2841 2188 
Q 3044 2119 3236 1894 
Q 3428 1669 3622 1275 
L 4263 0 
L 3584 0 
L 2988 1197 
Q 2756 1666 2539 1819 
Q 2322 1972 1947 1972 
L 1259 1972 
L 1259 0 
L 628 0 
L 628 4666 
L 2053 4666 
Q 2853 4666 3247 4331 
Q 3641 3997 3641 3322 
Q 3641 2881 3436 2590 
Q 3231 2300 2841 2188 
z
M 1259 4147 
L 1259 2491 
L 2053 2491 
Q 2509 2491 2742 2702 
Q 2975 2913 2975 3322 
Q 2975 3731 2742 3939 
Q 2509 4147 2053 4147 
L 1259 4147 
z
" transform="scale(0.015625)"/>
       <path id="DejaVuSans-4f" d="M 2522 4238 
Q 1834 4238 1429 3725 
Q 1025 3213 1025 2328 
Q 1025 1447 1429 934 
Q 1834 422 2522 422 
Q 3209 422 3611 934 
Q 4013 1447 4013 2328 
Q 4013 3213 3611 3725 
Q 3209 4238 2522 4238 
z
M 2522 4750 
Q 3503 4750 4090 4092 
Q 4678 3434 4678 2328 
Q 4678 1225 4090 567 
Q 3503 -91 2522 -91 
Q 1538 -91 948 565 
Q 359 1222 359 2328 
Q 359 3434 948 4092 
Q 1538 4750 2522 4750 
z
" transform="scale(0.015625)"/>
       <path id="DejaVuSans-43" d="M 4122 4306 
L 4122 3641 
Q 3803 3938 3442 4084 
Q 3081 4231 2675 4231 
Q 1875 4231 1450 3742 
Q 1025 3253 1025 2328 
Q 1025 1406 1450 917 
Q 1875 428 2675 428 
Q 3081 428 3442 575 
Q 3803 722 4122 1019 
L 4122 359 
Q 3791 134 3420 21 
Q 3050 -91 2638 -91 
Q 1578 -91 968 557 
Q 359 1206 359 2328 
Q 359 3453 968 4101 
Q 1578 4750 2638 4750 
Q 3056 4750 3426 4639 
Q 3797 4528 4122 4306 
z
" transform="scale(0.015625)"/>
       <path id="DejaVuSans-55" d="M 556 4666 
L 1191 4666 
L 1191 1831 
Q 1191 1081 1462 751 
Q 1734 422 2344 422 
Q 2950 422 3222 751 
Q 3494 1081 3494 1831 
L 3494 4666 
L 4128 4666 
L 4128 1753 
Q 4128 841 3676 375 
Q 3225 -91 2344 -91 
Q 1459 -91 1007 375 
Q 556 841 556 1753 
L 556 4666 
z
" transform="scale(0.015625)"/>
      </defs>
      <use xlink:href="#DejaVuSans-52"/>
      <use xlink:href="#DejaVuSans-4f" x="69.482422"/>
      <use xlink:href="#DejaVuSans-43" x="148.193359"/>
      <use xlink:href="#DejaVuSans-20" x="218.017578"/>
      <use xlink:href="#DejaVuSans-41" x="249.804688"/>
      <use xlink:href="#DejaVuSans-55" x="318.212891"/>
      <use xlink:href="#DejaVuSans-43" x="391.40625"/>
     </g>
    </g>
   </g>
  </g>
 </g>
 <defs>
  <clipPath id="p32c12539d4">
   <rect x="57.6" y="41.472" width="357.12" height="266.112"/>
  </clipPath>
 </defs>
</svg>
