<?xml version="1.0" encoding="utf-8" standalone="no"?>
<!DOCTYPE svg PUBLIC "-//W3C//DTD SVG 1.1//EN"
  "http://www.w3.org/Graphics/SVG/1.1/DTD/svg11.dtd">
<svg xmlns:xlink="http://www.w3.org/1999/xlink" width="460.8pt" height="345.6pt" viewBox="0 0 460.8 345.6" xmlns="http://www.w3.org/2000/svg" version="1.1">
 <metadata>
  <rdf:RDF xmlns:dc="http://purl.org/dc/elements/1.1/" xmlns:cc="http://creativecommons.org/ns#" xmlns:rdf="http://www.w3.org/1999/02/22-rdf-syntax-ns#">
   <cc:Work>
    <dc:type rdf:resource="http://purl.org/dc/dcmitype/StillImage"/>
    <dc:date>2023-07-06T15:09:57.370340</dc:date>
    <dc:format>image/svg+xml</dc:format>
    <dc:creator>
     <cc:Agent>
      <dc:title>Matplotlib v3.7.1, https://matplotlib.org/</dc:title>
     </cc:Agent>
    </dc:creator>
   </cc:Work>
  </rdf:RDF>
 </metadata>
 <defs>
  <style type="text/css">*{stroke-linejoin: round; stroke-linecap: butt}</style>
 </defs>
 <g id="figure_1">
  <g id="patch_1">
   <path d="M 0 345.6 
L 460.8 345.6 
L 460.8 0 
L 0 0 
z
" style="fill: #ffffff"/>
  </g>
  <g id="axes_1">
   <g id="patch_2">
    <path d="M 57.6 307.584 
L 414.72 307.584 
L 414.72 41.472 
L 57.6 41.472 
z
" style="fill: #e5e5e5"/>
   </g>
   <g id="matplotlib.axis_1">
    <g id="xtick_1">
     <g id="line2d_1">
      <path d="M 73.109666 307.584 
L 73.109666 41.472 
" clip-path="url(#p051572be98)" style="fill: none; stroke: #ffffff; stroke-width: 0.8; stroke-linecap: square"/>
     </g>
     <g id="line2d_2">
      <defs>
       <path id="me88843c040" d="M 0 0 
L 0 3.5 
" style="stroke: #555555; stroke-width: 0.8"/>
      </defs>
      <g>
       <use xlink:href="#me88843c040" x="73.109666" y="307.584" style="fill: #555555; stroke: #555555; stroke-width: 0.8"/>
      </g>
     </g>
     <g id="text_1">
      <!-- 0 -->
      <g style="fill: #555555" transform="translate(69.928416 322.182437) scale(0.1 -0.1)">
       <defs>
        <path id="DejaVuSans-30" d="M 2034 4250 
Q 1547 4250 1301 3770 
Q 1056 3291 1056 2328 
Q 1056 1369 1301 889 
Q 1547 409 2034 409 
Q 2525 409 2770 889 
Q 3016 1369 3016 2328 
Q 3016 3291 2770 3770 
Q 2525 4250 2034 4250 
z
M 2034 4750 
Q 2819 4750 3233 4129 
Q 3647 3509 3647 2328 
Q 3647 1150 3233 529 
Q 2819 -91 2034 -91 
Q 1250 -91 836 529 
Q 422 1150 422 2328 
Q 422 3509 836 4129 
Q 1250 4750 2034 4750 
z
" transform="scale(0.015625)"/>
       </defs>
       <use xlink:href="#DejaVuSans-30"/>
      </g>
     </g>
    </g>
    <g id="xtick_2">
     <g id="line2d_3">
      <path d="M 145.415801 307.584 
L 145.415801 41.472 
" clip-path="url(#p051572be98)" style="fill: none; stroke: #ffffff; stroke-width: 0.8; stroke-linecap: square"/>
     </g>
     <g id="line2d_4">
      <g>
       <use xlink:href="#me88843c040" x="145.415801" y="307.584" style="fill: #555555; stroke: #555555; stroke-width: 0.8"/>
      </g>
     </g>
     <g id="text_2">
      <!-- 100 -->
      <g style="fill: #555555" transform="translate(135.872051 322.182437) scale(0.1 -0.1)">
       <defs>
        <path id="DejaVuSans-31" d="M 794 531 
L 1825 531 
L 1825 4091 
L 703 3866 
L 703 4441 
L 1819 4666 
L 2450 4666 
L 2450 531 
L 3481 531 
L 3481 0 
L 794 0 
L 794 531 
z
" transform="scale(0.015625)"/>
       </defs>
       <use xlink:href="#DejaVuSans-31"/>
       <use xlink:href="#DejaVuSans-30" x="63.623047"/>
       <use xlink:href="#DejaVuSans-30" x="127.246094"/>
      </g>
     </g>
    </g>
    <g id="xtick_3">
     <g id="line2d_5">
      <path d="M 217.721936 307.584 
L 217.721936 41.472 
" clip-path="url(#p051572be98)" style="fill: none; stroke: #ffffff; stroke-width: 0.8; stroke-linecap: square"/>
     </g>
     <g id="line2d_6">
      <g>
       <use xlink:href="#me88843c040" x="217.721936" y="307.584" style="fill: #555555; stroke: #555555; stroke-width: 0.8"/>
      </g>
     </g>
     <g id="text_3">
      <!-- 200 -->
      <g style="fill: #555555" transform="translate(208.178186 322.182437) scale(0.1 -0.1)">
       <defs>
        <path id="DejaVuSans-32" d="M 1228 531 
L 3431 531 
L 3431 0 
L 469 0 
L 469 531 
Q 828 903 1448 1529 
Q 2069 2156 2228 2338 
Q 2531 2678 2651 2914 
Q 2772 3150 2772 3378 
Q 2772 3750 2511 3984 
Q 2250 4219 1831 4219 
Q 1534 4219 1204 4116 
Q 875 4013 500 3803 
L 500 4441 
Q 881 4594 1212 4672 
Q 1544 4750 1819 4750 
Q 2544 4750 2975 4387 
Q 3406 4025 3406 3419 
Q 3406 3131 3298 2873 
Q 3191 2616 2906 2266 
Q 2828 2175 2409 1742 
Q 1991 1309 1228 531 
z
" transform="scale(0.015625)"/>
       </defs>
       <use xlink:href="#DejaVuSans-32"/>
       <use xlink:href="#DejaVuSans-30" x="63.623047"/>
       <use xlink:href="#DejaVuSans-30" x="127.246094"/>
      </g>
     </g>
    </g>
    <g id="xtick_4">
     <g id="line2d_7">
      <path d="M 290.02807 307.584 
L 290.02807 41.472 
" clip-path="url(#p051572be98)" style="fill: none; stroke: #ffffff; stroke-width: 0.8; stroke-linecap: square"/>
     </g>
     <g id="line2d_8">
      <g>
       <use xlink:href="#me88843c040" x="290.02807" y="307.584" style="fill: #555555; stroke: #555555; stroke-width: 0.8"/>
      </g>
     </g>
     <g id="text_4">
      <!-- 300 -->
      <g style="fill: #555555" transform="translate(280.48432 322.182437) scale(0.1 -0.1)">
       <defs>
        <path id="DejaVuSans-33" d="M 2597 2516 
Q 3050 2419 3304 2112 
Q 3559 1806 3559 1356 
Q 3559 666 3084 287 
Q 2609 -91 1734 -91 
Q 1441 -91 1130 -33 
Q 819 25 488 141 
L 488 750 
Q 750 597 1062 519 
Q 1375 441 1716 441 
Q 2309 441 2620 675 
Q 2931 909 2931 1356 
Q 2931 1769 2642 2001 
Q 2353 2234 1838 2234 
L 1294 2234 
L 1294 2753 
L 1863 2753 
Q 2328 2753 2575 2939 
Q 2822 3125 2822 3475 
Q 2822 3834 2567 4026 
Q 2313 4219 1838 4219 
Q 1578 4219 1281 4162 
Q 984 4106 628 3988 
L 628 4550 
Q 988 4650 1302 4700 
Q 1616 4750 1894 4750 
Q 2613 4750 3031 4423 
Q 3450 4097 3450 3541 
Q 3450 3153 3228 2886 
Q 3006 2619 2597 2516 
z
" transform="scale(0.015625)"/>
       </defs>
       <use xlink:href="#DejaVuSans-33"/>
       <use xlink:href="#DejaVuSans-30" x="63.623047"/>
       <use xlink:href="#DejaVuSans-30" x="127.246094"/>
      </g>
     </g>
    </g>
    <g id="xtick_5">
     <g id="line2d_9">
      <path d="M 362.334205 307.584 
L 362.334205 41.472 
" clip-path="url(#p051572be98)" style="fill: none; stroke: #ffffff; stroke-width: 0.8; stroke-linecap: square"/>
     </g>
     <g id="line2d_10">
      <g>
       <use xlink:href="#me88843c040" x="362.334205" y="307.584" style="fill: #555555; stroke: #555555; stroke-width: 0.8"/>
      </g>
     </g>
     <g id="text_5">
      <!-- 400 -->
      <g style="fill: #555555" transform="translate(352.790455 322.182437) scale(0.1 -0.1)">
       <defs>
        <path id="DejaVuSans-34" d="M 2419 4116 
L 825 1625 
L 2419 1625 
L 2419 4116 
z
M 2253 4666 
L 3047 4666 
L 3047 1625 
L 3713 1625 
L 3713 1100 
L 3047 1100 
L 3047 0 
L 2419 0 
L 2419 1100 
L 313 1100 
L 313 1709 
L 2253 4666 
z
" transform="scale(0.015625)"/>
       </defs>
       <use xlink:href="#DejaVuSans-34"/>
       <use xlink:href="#DejaVuSans-30" x="63.623047"/>
       <use xlink:href="#DejaVuSans-30" x="127.246094"/>
      </g>
     </g>
    </g>
    <g id="text_6">
     <!-- Epoch -->
     <g style="fill: #555555" transform="translate(217.786875 337.38025) scale(0.12 -0.12)">
      <defs>
       <path id="DejaVuSans-45" d="M 628 4666 
L 3578 4666 
L 3578 4134 
L 1259 4134 
L 1259 2753 
L 3481 2753 
L 3481 2222 
L 1259 2222 
L 1259 531 
L 3634 531 
L 3634 0 
L 628 0 
L 628 4666 
z
" transform="scale(0.015625)"/>
       <path id="DejaVuSans-70" d="M 1159 525 
L 1159 -1331 
L 581 -1331 
L 581 3500 
L 1159 3500 
L 1159 2969 
Q 1341 3281 1617 3432 
Q 1894 3584 2278 3584 
Q 2916 3584 3314 3078 
Q 3713 2572 3713 1747 
Q 3713 922 3314 415 
Q 2916 -91 2278 -91 
Q 1894 -91 1617 61 
Q 1341 213 1159 525 
z
M 3116 1747 
Q 3116 2381 2855 2742 
Q 2594 3103 2138 3103 
Q 1681 3103 1420 2742 
Q 1159 2381 1159 1747 
Q 1159 1113 1420 752 
Q 1681 391 2138 391 
Q 2594 391 2855 752 
Q 3116 1113 3116 1747 
z
" transform="scale(0.015625)"/>
       <path id="DejaVuSans-6f" d="M 1959 3097 
Q 1497 3097 1228 2736 
Q 959 2375 959 1747 
Q 959 1119 1226 758 
Q 1494 397 1959 397 
Q 2419 397 2687 759 
Q 2956 1122 2956 1747 
Q 2956 2369 2687 2733 
Q 2419 3097 1959 3097 
z
M 1959 3584 
Q 2709 3584 3137 3096 
Q 3566 2609 3566 1747 
Q 3566 888 3137 398 
Q 2709 -91 1959 -91 
Q 1206 -91 779 398 
Q 353 888 353 1747 
Q 353 2609 779 3096 
Q 1206 3584 1959 3584 
z
" transform="scale(0.015625)"/>
       <path id="DejaVuSans-63" d="M 3122 3366 
L 3122 2828 
Q 2878 2963 2633 3030 
Q 2388 3097 2138 3097 
Q 1578 3097 1268 2742 
Q 959 2388 959 1747 
Q 959 1106 1268 751 
Q 1578 397 2138 397 
Q 2388 397 2633 464 
Q 2878 531 3122 666 
L 3122 134 
Q 2881 22 2623 -34 
Q 2366 -91 2075 -91 
Q 1284 -91 818 406 
Q 353 903 353 1747 
Q 353 2603 823 3093 
Q 1294 3584 2113 3584 
Q 2378 3584 2631 3529 
Q 2884 3475 3122 3366 
z
" transform="scale(0.015625)"/>
       <path id="DejaVuSans-68" d="M 3513 2113 
L 3513 0 
L 2938 0 
L 2938 2094 
Q 2938 2591 2744 2837 
Q 2550 3084 2163 3084 
Q 1697 3084 1428 2787 
Q 1159 2491 1159 1978 
L 1159 0 
L 581 0 
L 581 4863 
L 1159 4863 
L 1159 2956 
Q 1366 3272 1645 3428 
Q 1925 3584 2291 3584 
Q 2894 3584 3203 3211 
Q 3513 2838 3513 2113 
z
" transform="scale(0.015625)"/>
      </defs>
      <use xlink:href="#DejaVuSans-45"/>
      <use xlink:href="#DejaVuSans-70" x="63.183594"/>
      <use xlink:href="#DejaVuSans-6f" x="126.660156"/>
      <use xlink:href="#DejaVuSans-63" x="187.841797"/>
      <use xlink:href="#DejaVuSans-68" x="242.822266"/>
     </g>
    </g>
   </g>
   <g id="matplotlib.axis_2">
    <g id="ytick_1">
     <g id="line2d_11">
      <path d="M 57.6 290.031267 
L 414.72 290.031267 
" clip-path="url(#p051572be98)" style="fill: none; stroke: #ffffff; stroke-width: 0.8; stroke-linecap: square"/>
     </g>
     <g id="line2d_12">
      <defs>
       <path id="m50f94841ab" d="M 0 0 
L -3.5 0 
" style="stroke: #555555; stroke-width: 0.8"/>
      </defs>
      <g>
       <use xlink:href="#m50f94841ab" x="57.6" y="290.031267" style="fill: #555555; stroke: #555555; stroke-width: 0.8"/>
      </g>
     </g>
     <g id="text_7">
      <!-- 0.4 -->
      <g style="fill: #555555" transform="translate(34.696875 293.830486) scale(0.1 -0.1)">
       <defs>
        <path id="DejaVuSans-2e" d="M 684 794 
L 1344 794 
L 1344 0 
L 684 0 
L 684 794 
z
" transform="scale(0.015625)"/>
       </defs>
       <use xlink:href="#DejaVuSans-30"/>
       <use xlink:href="#DejaVuSans-2e" x="63.623047"/>
       <use xlink:href="#DejaVuSans-34" x="95.410156"/>
      </g>
     </g>
    </g>
    <g id="ytick_2">
     <g id="line2d_13">
      <path d="M 57.6 256.743012 
L 414.72 256.743012 
" clip-path="url(#p051572be98)" style="fill: none; stroke: #ffffff; stroke-width: 0.8; stroke-linecap: square"/>
     </g>
     <g id="line2d_14">
      <g>
       <use xlink:href="#m50f94841ab" x="57.6" y="256.743012" style="fill: #555555; stroke: #555555; stroke-width: 0.8"/>
      </g>
     </g>
     <g id="text_8">
      <!-- 0.6 -->
      <g style="fill: #555555" transform="translate(34.696875 260.542231) scale(0.1 -0.1)">
       <defs>
        <path id="DejaVuSans-36" d="M 2113 2584 
Q 1688 2584 1439 2293 
Q 1191 2003 1191 1497 
Q 1191 994 1439 701 
Q 1688 409 2113 409 
Q 2538 409 2786 701 
Q 3034 994 3034 1497 
Q 3034 2003 2786 2293 
Q 2538 2584 2113 2584 
z
M 3366 4563 
L 3366 3988 
Q 3128 4100 2886 4159 
Q 2644 4219 2406 4219 
Q 1781 4219 1451 3797 
Q 1122 3375 1075 2522 
Q 1259 2794 1537 2939 
Q 1816 3084 2150 3084 
Q 2853 3084 3261 2657 
Q 3669 2231 3669 1497 
Q 3669 778 3244 343 
Q 2819 -91 2113 -91 
Q 1303 -91 875 529 
Q 447 1150 447 2328 
Q 447 3434 972 4092 
Q 1497 4750 2381 4750 
Q 2619 4750 2861 4703 
Q 3103 4656 3366 4563 
z
" transform="scale(0.015625)"/>
       </defs>
       <use xlink:href="#DejaVuSans-30"/>
       <use xlink:href="#DejaVuSans-2e" x="63.623047"/>
       <use xlink:href="#DejaVuSans-36" x="95.410156"/>
      </g>
     </g>
    </g>
    <g id="ytick_3">
     <g id="line2d_15">
      <path d="M 57.6 223.454757 
L 414.72 223.454757 
" clip-path="url(#p051572be98)" style="fill: none; stroke: #ffffff; stroke-width: 0.8; stroke-linecap: square"/>
     </g>
     <g id="line2d_16">
      <g>
       <use xlink:href="#m50f94841ab" x="57.6" y="223.454757" style="fill: #555555; stroke: #555555; stroke-width: 0.8"/>
      </g>
     </g>
     <g id="text_9">
      <!-- 0.8 -->
      <g style="fill: #555555" transform="translate(34.696875 227.253976) scale(0.1 -0.1)">
       <defs>
        <path id="DejaVuSans-38" d="M 2034 2216 
Q 1584 2216 1326 1975 
Q 1069 1734 1069 1313 
Q 1069 891 1326 650 
Q 1584 409 2034 409 
Q 2484 409 2743 651 
Q 3003 894 3003 1313 
Q 3003 1734 2745 1975 
Q 2488 2216 2034 2216 
z
M 1403 2484 
Q 997 2584 770 2862 
Q 544 3141 544 3541 
Q 544 4100 942 4425 
Q 1341 4750 2034 4750 
Q 2731 4750 3128 4425 
Q 3525 4100 3525 3541 
Q 3525 3141 3298 2862 
Q 3072 2584 2669 2484 
Q 3125 2378 3379 2068 
Q 3634 1759 3634 1313 
Q 3634 634 3220 271 
Q 2806 -91 2034 -91 
Q 1263 -91 848 271 
Q 434 634 434 1313 
Q 434 1759 690 2068 
Q 947 2378 1403 2484 
z
M 1172 3481 
Q 1172 3119 1398 2916 
Q 1625 2713 2034 2713 
Q 2441 2713 2670 2916 
Q 2900 3119 2900 3481 
Q 2900 3844 2670 4047 
Q 2441 4250 2034 4250 
Q 1625 4250 1398 4047 
Q 1172 3844 1172 3481 
z
" transform="scale(0.015625)"/>
       </defs>
       <use xlink:href="#DejaVuSans-30"/>
       <use xlink:href="#DejaVuSans-2e" x="63.623047"/>
       <use xlink:href="#DejaVuSans-38" x="95.410156"/>
      </g>
     </g>
    </g>
    <g id="ytick_4">
     <g id="line2d_17">
      <path d="M 57.6 190.166502 
L 414.72 190.166502 
" clip-path="url(#p051572be98)" style="fill: none; stroke: #ffffff; stroke-width: 0.8; stroke-linecap: square"/>
     </g>
     <g id="line2d_18">
      <g>
       <use xlink:href="#m50f94841ab" x="57.6" y="190.166502" style="fill: #555555; stroke: #555555; stroke-width: 0.8"/>
      </g>
     </g>
     <g id="text_10">
      <!-- 1.0 -->
      <g style="fill: #555555" transform="translate(34.696875 193.965721) scale(0.1 -0.1)">
       <use xlink:href="#DejaVuSans-31"/>
       <use xlink:href="#DejaVuSans-2e" x="63.623047"/>
       <use xlink:href="#DejaVuSans-30" x="95.410156"/>
      </g>
     </g>
    </g>
    <g id="ytick_5">
     <g id="line2d_19">
      <path d="M 57.6 156.878247 
L 414.72 156.878247 
" clip-path="url(#p051572be98)" style="fill: none; stroke: #ffffff; stroke-width: 0.8; stroke-linecap: square"/>
     </g>
     <g id="line2d_20">
      <g>
       <use xlink:href="#m50f94841ab" x="57.6" y="156.878247" style="fill: #555555; stroke: #555555; stroke-width: 0.8"/>
      </g>
     </g>
     <g id="text_11">
      <!-- 1.2 -->
      <g style="fill: #555555" transform="translate(34.696875 160.677466) scale(0.1 -0.1)">
       <use xlink:href="#DejaVuSans-31"/>
       <use xlink:href="#DejaVuSans-2e" x="63.623047"/>
       <use xlink:href="#DejaVuSans-32" x="95.410156"/>
      </g>
     </g>
    </g>
    <g id="ytick_6">
     <g id="line2d_21">
      <path d="M 57.6 123.589992 
L 414.72 123.589992 
" clip-path="url(#p051572be98)" style="fill: none; stroke: #ffffff; stroke-width: 0.8; stroke-linecap: square"/>
     </g>
     <g id="line2d_22">
      <g>
       <use xlink:href="#m50f94841ab" x="57.6" y="123.589992" style="fill: #555555; stroke: #555555; stroke-width: 0.8"/>
      </g>
     </g>
     <g id="text_12">
      <!-- 1.4 -->
      <g style="fill: #555555" transform="translate(34.696875 127.38921) scale(0.1 -0.1)">
       <use xlink:href="#DejaVuSans-31"/>
       <use xlink:href="#DejaVuSans-2e" x="63.623047"/>
       <use xlink:href="#DejaVuSans-34" x="95.410156"/>
      </g>
     </g>
    </g>
    <g id="ytick_7">
     <g id="line2d_23">
      <path d="M 57.6 90.301737 
L 414.72 90.301737 
" clip-path="url(#p051572be98)" style="fill: none; stroke: #ffffff; stroke-width: 0.8; stroke-linecap: square"/>
     </g>
     <g id="line2d_24">
      <g>
       <use xlink:href="#m50f94841ab" x="57.6" y="90.301737" style="fill: #555555; stroke: #555555; stroke-width: 0.8"/>
      </g>
     </g>
     <g id="text_13">
      <!-- 1.6 -->
      <g style="fill: #555555" transform="translate(34.696875 94.100955) scale(0.1 -0.1)">
       <use xlink:href="#DejaVuSans-31"/>
       <use xlink:href="#DejaVuSans-2e" x="63.623047"/>
       <use xlink:href="#DejaVuSans-36" x="95.410156"/>
      </g>
     </g>
    </g>
    <g id="ytick_8">
     <g id="line2d_25">
      <path d="M 57.6 57.013482 
L 414.72 57.013482 
" clip-path="url(#p051572be98)" style="fill: none; stroke: #ffffff; stroke-width: 0.8; stroke-linecap: square"/>
     </g>
     <g id="line2d_26">
      <g>
       <use xlink:href="#m50f94841ab" x="57.6" y="57.013482" style="fill: #555555; stroke: #555555; stroke-width: 0.8"/>
      </g>
     </g>
     <g id="text_14">
      <!-- 1.8 -->
      <g style="fill: #555555" transform="translate(34.696875 60.8127) scale(0.1 -0.1)">
       <use xlink:href="#DejaVuSans-31"/>
       <use xlink:href="#DejaVuSans-2e" x="63.623047"/>
       <use xlink:href="#DejaVuSans-38" x="95.410156"/>
      </g>
     </g>
    </g>
    <g id="text_15">
     <!-- Loss -->
     <g style="fill: #555555" transform="translate(28.20125 187.688625) rotate(-90) scale(0.12 -0.12)">
      <defs>
       <path id="DejaVuSans-4c" d="M 628 4666 
L 1259 4666 
L 1259 531 
L 3531 531 
L 3531 0 
L 628 0 
L 628 4666 
z
" transform="scale(0.015625)"/>
       <path id="DejaVuSans-73" d="M 2834 3397 
L 2834 2853 
Q 2591 2978 2328 3040 
Q 2066 3103 1784 3103 
Q 1356 3103 1142 2972 
Q 928 2841 928 2578 
Q 928 2378 1081 2264 
Q 1234 2150 1697 2047 
L 1894 2003 
Q 2506 1872 2764 1633 
Q 3022 1394 3022 966 
Q 3022 478 2636 193 
Q 2250 -91 1575 -91 
Q 1294 -91 989 -36 
Q 684 19 347 128 
L 347 722 
Q 666 556 975 473 
Q 1284 391 1588 391 
Q 1994 391 2212 530 
Q 2431 669 2431 922 
Q 2431 1156 2273 1281 
Q 2116 1406 1581 1522 
L 1381 1569 
Q 847 1681 609 1914 
Q 372 2147 372 2553 
Q 372 3047 722 3315 
Q 1072 3584 1716 3584 
Q 2034 3584 2315 3537 
Q 2597 3491 2834 3397 
z
" transform="scale(0.015625)"/>
      </defs>
      <use xlink:href="#DejaVuSans-4c"/>
      <use xlink:href="#DejaVuSans-6f" x="53.962891"/>
      <use xlink:href="#DejaVuSans-73" x="115.144531"/>
      <use xlink:href="#DejaVuSans-73" x="167.244141"/>
     </g>
    </g>
   </g>
   <g id="line2d_27">
    <path d="M 73.832727 233.076042 
L 74.555789 231.471859 
L 75.27885 228.856036 
L 76.001911 225.722889 
L 77.448034 217.360813 
L 78.171095 212.630408 
L 78.894157 207.024474 
L 81.786402 180.481881 
L 83.232525 164.128187 
L 83.955586 156.669171 
L 85.401709 138.791443 
L 87.570893 112.216857 
L 88.293954 103.388847 
L 91.1862 75.570108 
L 92.632322 66.662336 
L 93.355384 60.27624 
L 94.801506 55.675667 
L 95.524568 54.569671 
L 96.247629 55.837413 
L 96.97069 53.568 
L 97.693752 57.201883 
L 98.416813 56.993946 
L 99.139874 58.836314 
L 99.862936 59.627607 
L 101.309059 67.20462 
L 102.755181 71.728923 
L 103.478243 76.52168 
L 104.201304 79.33419 
L 104.924365 83.464881 
L 105.647427 84.826612 
L 106.370488 88.083669 
L 107.816611 92.374955 
L 109.262733 98.083886 
L 109.985795 100.699471 
L 110.708856 101.618502 
L 112.154979 106.578105 
L 112.87804 109.792562 
L 113.601101 110.913379 
L 114.324163 115.210301 
L 115.047224 117.026677 
L 115.770285 117.809358 
L 116.493347 120.921216 
L 117.93947 125.638238 
L 119.385592 130.747166 
L 120.108654 136.037286 
L 120.831715 136.625899 
L 121.554776 141.670303 
L 122.277838 143.65795 
L 123.000899 146.018852 
L 123.72396 151.275043 
L 124.447022 152.73608 
L 126.616206 161.893179 
L 127.339267 162.553201 
L 128.062328 167.337605 
L 128.78539 169.232314 
L 129.508451 171.908198 
L 130.231512 173.847372 
L 130.954574 176.197936 
L 131.677635 178.961538 
L 132.400696 180.552616 
L 133.123758 185.470571 
L 133.846819 186.920775 
L 134.569881 190.219875 
L 136.016003 194.933187 
L 137.462126 202.187233 
L 138.908249 208.395669 
L 139.63131 210.073255 
L 140.354371 212.727005 
L 141.077433 216.484163 
L 142.523555 222.509345 
L 143.246617 223.819707 
L 143.969678 227.876052 
L 144.692739 228.865887 
L 145.415801 231.161283 
L 146.138862 232.398401 
L 146.861923 237.369025 
L 147.584985 238.581629 
L 148.308046 240.89763 
L 149.031108 241.223901 
L 150.47723 244.857129 
L 151.200292 245.499989 
L 151.923353 246.916175 
L 152.646414 247.378905 
L 153.369476 248.361736 
L 154.092537 249.110409 
L 154.815598 251.251598 
L 155.53866 251.377323 
L 156.261721 251.372491 
L 156.984782 252.067752 
L 157.707844 251.833614 
L 158.430905 252.932686 
L 159.153966 252.278656 
L 159.877028 252.054597 
L 160.600089 252.045252 
L 161.32315 252.310184 
L 162.046212 251.983526 
L 162.769273 252.363229 
L 164.215396 251.916204 
L 164.938457 252.052762 
L 165.661519 251.506123 
L 166.38458 251.350557 
L 167.107641 250.68357 
L 167.830703 250.939107 
L 168.553764 250.352101 
L 169.276825 250.913422 
L 169.999887 250.584334 
L 170.722948 250.063975 
L 171.446009 250.061832 
L 172.169071 249.230638 
L 174.338255 248.559921 
L 175.784377 248.240128 
L 176.507439 248.476518 
L 178.676623 247.436206 
L 179.399684 247.573528 
L 180.845807 247.050352 
L 182.29193 247.472476 
L 183.014991 247.25187 
L 184.461114 245.430871 
L 185.184175 245.00955 
L 185.907236 244.274002 
L 187.353359 243.506003 
L 188.07642 243.475417 
L 188.799482 243.308532 
L 189.522543 243.721063 
L 190.245604 243.667273 
L 191.691727 244.296591 
L 192.414788 244.121531 
L 193.13785 244.067523 
L 194.583972 244.653845 
L 195.307034 244.291492 
L 196.030095 244.48934 
L 196.753157 244.127692 
L 197.476218 244.190807 
L 198.199279 244.505898 
L 199.645402 243.565279 
L 200.368463 243.193115 
L 201.091525 243.421558 
L 201.814586 242.465037 
L 202.537647 242.650553 
L 203.98377 241.730431 
L 207.599077 241.55047 
L 208.322138 241.042481 
L 209.045199 241.197998 
L 209.768261 240.732689 
L 210.491322 241.077184 
L 211.214383 240.769851 
L 211.937445 240.797064 
L 212.660506 240.657946 
L 214.82969 240.85886 
L 215.552752 240.864465 
L 216.275813 240.572232 
L 216.998874 240.458213 
L 217.721936 239.661058 
L 218.444997 240.036158 
L 219.168058 239.38059 
L 219.89112 239.638587 
L 220.614181 240.079531 
L 221.337242 239.666742 
L 222.060304 240.023906 
L 222.783365 239.309449 
L 223.506426 239.267822 
L 224.229488 239.028009 
L 224.952549 239.33684 
L 225.67561 238.64528 
L 227.121733 238.769268 
L 227.844794 238.437789 
L 228.567856 239.106958 
L 230.013979 237.893719 
L 230.73704 238.537898 
L 232.183163 238.31139 
L 232.906224 237.898094 
L 234.352347 237.916656 
L 235.798469 237.503133 
L 236.521531 237.06576 
L 237.244592 237.613649 
L 237.967653 237.257497 
L 238.690715 237.029738 
L 239.413776 237.297943 
L 241.58296 237.346882 
L 242.306021 236.204715 
L 243.029083 236.479339 
L 243.752144 236.088008 
L 245.921328 235.942293 
L 246.64439 236.236401 
L 247.367451 235.530784 
L 248.090512 236.527236 
L 248.813574 235.77766 
L 250.259696 234.686584 
L 250.982758 235.829436 
L 251.705819 235.393164 
L 253.151942 234.332267 
L 253.875003 234.810662 
L 254.598064 234.108744 
L 255.321126 234.823112 
L 256.044187 235.090038 
L 256.767248 235.108798 
L 257.49031 234.097623 
L 258.936432 233.765281 
L 259.659494 234.849521 
L 260.382555 233.588365 
L 261.105617 233.195556 
L 261.828678 232.996478 
L 262.551739 233.412621 
L 263.274801 232.868611 
L 263.997862 233.916145 
L 264.720923 232.275047 
L 265.443985 233.145199 
L 266.167046 232.703124 
L 266.890107 233.11754 
L 268.33623 232.539413 
L 269.782353 231.511532 
L 271.228475 232.24461 
L 271.951537 231.259607 
L 272.674598 232.031276 
L 273.397659 231.63684 
L 274.120721 232.584165 
L 274.843782 230.307043 
L 275.566843 230.385298 
L 276.289905 230.909218 
L 277.012966 230.572868 
L 277.736028 229.922945 
L 278.459089 231.747575 
L 279.18215 230.822472 
L 279.905212 229.559223 
L 280.628273 229.890256 
L 281.351334 229.38077 
L 282.074396 229.44074 
L 282.797457 230.460963 
L 283.520518 229.431931 
L 284.24358 230.070921 
L 284.966641 228.710529 
L 285.689702 228.242105 
L 286.412764 228.488772 
L 287.135825 227.069303 
L 287.858886 227.973582 
L 288.581948 228.499298 
L 289.305009 228.442989 
L 290.02807 228.117789 
L 290.751132 227.108479 
L 291.474193 227.864901 
L 292.197255 227.172051 
L 292.920316 228.095408 
L 293.643377 226.6744 
L 294.366439 226.944461 
L 295.0895 227.409413 
L 295.812561 226.494241 
L 296.535623 226.455203 
L 297.258684 225.431479 
L 297.981745 224.099837 
L 298.704807 225.020952 
L 299.427868 226.868379 
L 300.150929 224.700444 
L 300.873991 223.710758 
L 301.597052 224.361038 
L 302.320113 225.198174 
L 303.043175 224.763401 
L 303.766236 223.847872 
L 305.212359 224.810217 
L 305.93542 225.006507 
L 306.658481 223.799846 
L 307.381543 223.291342 
L 308.104604 223.558367 
L 308.827666 222.64003 
L 309.550727 222.953067 
L 310.273788 220.834408 
L 310.99685 222.503789 
L 311.719911 221.068109 
L 312.442972 220.563692 
L 313.166034 222.059601 
L 313.889095 222.557916 
L 315.335218 220.031369 
L 316.058279 221.604827 
L 316.78134 220.79666 
L 317.504402 221.350937 
L 318.227463 221.732318 
L 318.950524 218.625223 
L 319.673586 218.982496 
L 320.396647 219.618441 
L 321.119708 219.650604 
L 321.84277 219.341991 
L 322.565831 218.460738 
L 323.288892 218.831106 
L 324.011954 217.60626 
L 324.735015 219.869106 
L 325.458077 217.608106 
L 326.181138 218.903726 
L 326.904199 217.772372 
L 327.627261 218.475212 
L 328.350322 215.491411 
L 329.073383 215.947325 
L 329.796445 216.037772 
L 330.519506 216.570582 
L 331.242567 215.647255 
L 331.965629 215.123324 
L 332.68869 217.052092 
L 333.411751 214.964623 
L 334.134813 216.106512 
L 334.857874 216.435184 
L 335.580935 214.97881 
L 336.303997 215.574437 
L 337.027058 212.308184 
L 337.750119 214.498451 
L 338.473181 214.329978 
L 339.196242 213.057235 
L 339.919304 213.344161 
L 341.365426 210.927217 
L 342.088488 213.81319 
L 342.811549 210.260458 
L 343.53461 211.303657 
L 344.257672 213.324676 
L 344.980733 212.552818 
L 345.703794 209.948969 
L 346.426856 210.367373 
L 347.149917 210.373673 
L 347.872978 211.467507 
L 348.59604 208.541126 
L 349.319101 208.712913 
L 350.042162 208.447505 
L 350.765224 212.112747 
L 351.488285 209.695893 
L 352.211346 208.507783 
L 352.934408 208.401354 
L 353.657469 208.055251 
L 354.38053 207.929011 
L 355.103592 207.307748 
L 355.826653 204.992353 
L 356.549715 205.364973 
L 357.272776 205.27784 
L 357.995837 207.810727 
L 358.718899 207.4039 
L 359.44196 208.512713 
L 360.165021 205.158226 
L 360.888083 203.964343 
L 361.611144 201.494988 
L 362.334205 204.550903 
L 363.057267 204.608591 
L 363.780328 207.817423 
L 364.503389 205.249358 
L 365.226451 201.050869 
L 365.949512 204.374622 
L 366.672573 204.63747 
L 367.395635 204.114661 
L 368.118696 202.480031 
L 368.841757 201.943363 
L 369.564819 201.982202 
L 370.28788 202.996075 
L 371.010941 199.605199 
L 371.734003 200.834182 
L 372.457064 202.388166 
L 373.180126 201.150592 
L 373.903187 201.513857 
L 374.626248 202.928783 
L 375.34931 200.33789 
L 376.072371 198.838787 
L 376.795432 198.326285 
L 377.518494 199.397202 
L 378.241555 199.425724 
L 378.964616 198.696465 
L 379.687678 198.76097 
L 380.410739 198.550046 
L 381.1338 199.272489 
L 381.856862 200.319031 
L 382.579923 196.401933 
L 383.302984 195.438586 
L 384.749107 197.539487 
L 385.472168 195.763944 
L 386.19523 195.163813 
L 386.918291 197.036201 
L 387.641353 197.110368 
L 388.364414 196.37104 
L 389.087475 193.623896 
L 389.810537 197.745807 
L 391.256659 190.820195 
L 391.979721 193.893143 
L 392.702782 195.872833 
L 393.425843 194.564832 
L 394.148905 195.922933 
L 394.871966 194.567313 
L 395.595027 190.246175 
L 396.318089 193.409312 
L 397.04115 193.416296 
L 398.487273 190.502247 
L 398.487273 190.502247 
" clip-path="url(#p051572be98)" style="fill: none; stroke: #6495ed; stroke-width: 2; stroke-linecap: square"/>
   </g>
   <g id="line2d_28">
    <path d="M 73.832727 244.02414 
L 74.555789 244.398982 
L 75.27885 245.233032 
L 76.001911 246.294835 
L 78.171095 250.884927 
L 79.617218 254.754219 
L 85.401709 270.68599 
L 86.847832 274.252083 
L 87.570893 276.663676 
L 88.293954 277.720574 
L 89.017016 279.386852 
L 90.463138 282.17527 
L 91.1862 284.277995 
L 91.909261 284.536589 
L 92.632322 285.970528 
L 93.355384 287.113607 
L 94.078445 288.031131 
L 94.801506 289.722985 
L 95.524568 289.481837 
L 96.247629 290.431852 
L 96.97069 291.144088 
L 97.693752 291.411067 
L 98.416813 292.97664 
L 99.139874 292.221792 
L 99.862936 293.283324 
L 100.585997 293.166363 
L 101.309059 293.408978 
L 102.03212 294.710012 
L 102.755181 293.607489 
L 103.478243 294.180255 
L 104.201304 293.983396 
L 104.924365 293.952257 
L 105.647427 295.433781 
L 106.370488 293.639126 
L 107.093549 294.520804 
L 107.816611 294.101625 
L 108.539672 294.089904 
L 109.262733 295.488 
L 109.985795 293.127766 
L 110.708856 294.278533 
L 111.431917 293.512283 
L 112.154979 293.436809 
L 112.87804 294.924641 
L 113.601101 292.113672 
L 114.324163 292.859629 
L 115.047224 291.827306 
L 115.770285 292.057851 
L 116.493347 293.760931 
L 117.216408 290.03407 
L 117.93947 291.288951 
L 118.662531 289.808502 
L 119.385592 289.626325 
L 120.108654 291.106445 
L 120.831715 286.998355 
L 121.554776 287.902003 
L 122.277838 286.02924 
L 123.000899 285.882204 
L 123.72396 287.404038 
L 124.447022 282.281186 
L 125.170083 283.689913 
L 125.893144 280.98644 
L 126.616206 280.738616 
L 127.339267 283.407406 
L 128.062328 276.383168 
L 128.78539 278.28531 
L 129.508451 275.187198 
L 130.231512 275.089224 
L 130.954574 277.375728 
L 131.677635 269.924797 
L 132.400696 272.316352 
L 133.123758 267.975409 
L 133.846819 268.248747 
L 134.569881 270.608979 
L 135.292942 262.106306 
L 136.016003 264.581664 
L 136.739065 260.126361 
L 137.462126 259.635608 
L 138.185187 262.550939 
L 138.908249 252.548429 
L 139.63131 255.468931 
L 140.354371 250.575115 
L 141.077433 250.067727 
L 141.800494 253.01903 
L 142.523555 241.90964 
L 143.246617 245.130653 
L 143.969678 239.024834 
L 144.692739 239.856546 
L 145.415801 243.217206 
L 146.138862 232.091981 
L 146.861923 234.296478 
L 147.584985 229.139031 
L 148.308046 229.76931 
L 149.031108 234.285167 
L 149.754169 222.887366 
L 150.47723 226.934702 
L 151.200292 222.522378 
L 151.923353 223.939562 
L 152.646414 229.04941 
L 153.369476 219.049239 
L 154.092537 223.965726 
L 154.815598 219.407886 
L 155.53866 221.732098 
L 156.261721 226.982541 
L 156.984782 218.127807 
L 157.707844 223.422545 
L 158.430905 219.793603 
L 159.153966 222.287029 
L 159.877028 227.245518 
L 160.600089 219.8794 
L 161.32315 224.581773 
L 162.046212 222.23958 
L 162.769273 223.964923 
L 163.492334 228.493607 
L 164.215396 222.34633 
L 164.938457 226.664236 
L 165.661519 224.85192 
L 166.38458 226.529948 
L 167.107641 230.717187 
L 167.830703 225.276767 
L 168.553764 229.508028 
L 169.276825 227.346143 
L 169.999887 228.748181 
L 170.722948 232.249848 
L 171.446009 227.71277 
L 172.169071 231.529661 
L 172.892132 230.030508 
L 173.615193 231.039228 
L 174.338255 233.881288 
L 175.061316 230.103422 
L 175.784377 233.149731 
L 176.507439 231.622709 
L 177.2305 232.500339 
L 177.953561 234.993085 
L 178.676623 231.861074 
L 179.399684 234.4176 
L 180.122745 233.348197 
L 180.845807 234.038262 
L 181.568868 235.797188 
L 182.29193 232.845267 
L 183.014991 235.314019 
L 183.738052 234.385414 
L 184.461114 235.032952 
L 185.184175 236.589569 
L 185.907236 234.324747 
L 186.630298 236.617163 
L 187.353359 235.755546 
L 188.07642 236.222585 
L 188.799482 237.660511 
L 189.522543 235.416342 
L 190.245604 237.654188 
L 190.968666 236.726102 
L 191.691727 237.093566 
L 192.414788 238.335753 
L 193.13785 236.671475 
L 193.860911 238.559669 
L 194.583972 237.6161 
L 196.030095 238.903959 
L 196.753157 237.541791 
L 197.476218 239.281906 
L 198.199279 238.257119 
L 198.922341 238.782048 
L 199.645402 239.473603 
L 200.368463 238.218021 
L 201.091525 239.710511 
L 201.814586 239.320491 
L 202.537647 239.445289 
L 203.260709 239.975533 
L 203.98377 238.965154 
L 204.706831 240.575924 
L 205.429893 239.772152 
L 206.876015 240.356371 
L 207.599077 239.283259 
L 208.322138 241.111684 
L 209.045199 240.306435 
L 209.768261 240.809065 
L 210.491322 240.766292 
L 211.214383 240.073467 
L 211.937445 241.579956 
L 212.660506 240.967082 
L 213.383568 241.183587 
L 214.106629 241.135548 
L 214.82969 240.384844 
L 215.552752 241.855261 
L 216.275813 241.28988 
L 217.721936 241.835647 
L 218.444997 240.99881 
L 219.168058 242.723605 
L 219.89112 241.941752 
L 221.337242 241.93575 
L 222.060304 241.197377 
L 222.783365 242.911901 
L 223.506426 242.264686 
L 224.229488 242.572439 
L 224.952549 242.135933 
L 225.67561 242.048078 
L 226.398672 243.330992 
L 227.121733 242.687614 
L 227.844794 243.045394 
L 228.567856 242.365804 
L 229.290917 242.362985 
L 230.013979 243.961629 
L 230.73704 243.038821 
L 231.460101 243.258246 
L 232.183163 242.865343 
L 232.906224 242.816671 
L 233.629285 244.105925 
L 234.352347 243.500162 
L 235.075408 243.772309 
L 235.798469 243.337997 
L 236.521531 243.409468 
L 237.244592 244.426296 
L 237.967653 244.017079 
L 238.690715 244.249389 
L 239.413776 243.538811 
L 240.136837 243.45004 
L 240.859899 244.649557 
L 241.58296 244.097704 
L 242.306021 244.759503 
L 243.029083 243.963066 
L 243.752144 244.16182 
L 244.475206 245.461246 
L 245.198267 244.892886 
L 245.921328 245.029036 
L 246.64439 244.234664 
L 247.367451 244.655756 
L 248.090512 245.39821 
L 248.813574 245.185539 
L 249.536635 245.593544 
L 250.259696 245.017035 
L 250.982758 244.657876 
L 251.705819 246.073667 
L 252.42888 245.790098 
L 253.151942 246.104094 
L 253.875003 245.059452 
L 254.598064 245.649907 
L 255.321126 246.480838 
L 256.044187 245.854756 
L 256.767248 245.864564 
L 257.49031 245.429205 
L 258.213371 245.767471 
L 258.936432 247.03465 
L 259.659494 245.957923 
L 260.382555 246.607209 
L 261.105617 245.824877 
L 261.828678 246.268776 
L 262.551739 247.33077 
L 264.720923 246.394561 
L 265.443985 246.484583 
L 266.167046 247.861303 
L 266.890107 247.131446 
L 267.613169 247.341582 
L 268.33623 246.407334 
L 269.059291 247.180949 
L 269.782353 248.562926 
L 270.505414 247.870582 
L 271.228475 247.812554 
L 271.951537 247.080432 
L 272.674598 247.379994 
L 273.397659 248.731477 
L 274.120721 247.75478 
L 274.843782 248.730562 
L 275.566843 247.577825 
L 276.289905 248.032241 
L 277.012966 249.233312 
L 277.736028 249.053027 
L 279.18215 247.422106 
L 279.905212 248.742298 
L 280.628273 249.682392 
L 281.351334 249.387799 
L 282.074396 249.398669 
L 282.797457 247.682632 
L 283.520518 248.960931 
L 284.24358 249.829297 
L 284.966641 249.810301 
L 285.689702 250.076137 
L 286.412764 248.599929 
L 287.135825 250.156682 
L 287.858886 250.864308 
L 288.581948 250.201352 
L 289.305009 250.150308 
L 290.02807 248.915012 
L 290.751132 250.393966 
L 291.474193 251.084753 
L 292.197255 250.94849 
L 292.920316 250.444648 
L 293.643377 249.572055 
L 295.0895 251.447794 
L 295.812561 251.218939 
L 296.535623 251.218234 
L 297.258684 250.134117 
L 297.981745 251.839787 
L 298.704807 252.579891 
L 299.427868 251.412102 
L 300.150929 252.181627 
L 300.873991 251.144396 
L 301.597052 252.151177 
L 302.320113 252.927278 
L 303.043175 252.607547 
L 303.766236 252.89902 
L 304.489297 251.074071 
L 305.93542 253.052849 
L 306.658481 252.943489 
L 307.381543 252.975288 
L 308.104604 251.059982 
L 308.827666 252.872474 
L 309.550727 253.737638 
L 310.273788 254.068325 
L 310.99685 253.513327 
L 311.719911 252.145077 
L 312.442972 254.02382 
L 313.166034 254.477619 
L 313.889095 254.00195 
L 314.612156 254.27042 
L 315.335218 253.094757 
L 316.058279 253.952545 
L 316.78134 255.145428 
L 317.504402 254.381465 
L 318.227463 254.181786 
L 318.950524 253.241738 
L 319.673586 254.893262 
L 320.396647 255.545365 
L 321.119708 255.057977 
L 321.84277 255.27477 
L 322.565831 253.543278 
L 323.288892 255.279244 
L 324.011954 256.646425 
L 324.735015 255.333323 
L 325.458077 256.178158 
L 326.181138 253.560609 
L 326.904199 255.8461 
L 328.350322 256.967267 
L 329.073383 256.723466 
L 329.796445 254.772989 
L 331.242567 257.801562 
L 331.965629 257.619994 
L 332.68869 256.707144 
L 333.411751 255.493177 
L 334.134813 256.969879 
L 334.857874 257.61951 
L 335.580935 257.704626 
L 336.303997 257.111678 
L 337.027058 255.99174 
L 337.750119 257.584902 
L 338.473181 258.398596 
L 339.196242 258.531824 
L 339.919304 258.109702 
L 340.642365 256.360619 
L 341.365426 259.09695 
L 342.088488 259.094384 
L 342.811549 260.164242 
L 343.53461 259.59566 
L 344.257672 256.350085 
L 344.980733 259.033861 
L 345.703794 260.667631 
L 346.426856 260.179527 
L 347.149917 259.932535 
L 347.872978 256.946598 
L 348.59604 260.406546 
L 349.319101 261.50792 
L 350.042162 261.032372 
L 350.765224 259.258735 
L 351.488285 257.851177 
L 352.211346 260.625678 
L 352.934408 261.231413 
L 353.657469 261.2245 
L 354.38053 260.850471 
L 355.103592 258.527067 
L 355.826653 262.062696 
L 356.549715 262.644685 
L 357.272776 262.744188 
L 357.995837 261.450668 
L 358.718899 259.260826 
L 360.165021 262.927364 
L 360.888083 262.987797 
L 361.611144 263.687818 
L 362.334205 259.928583 
L 363.057267 262.612531 
L 364.503389 262.529124 
L 365.226451 264.135084 
L 365.949512 260.022384 
L 366.672573 262.580732 
L 367.395635 263.549208 
L 368.118696 263.610185 
L 368.841757 263.453319 
L 369.564819 260.574068 
L 370.28788 263.302777 
L 371.010941 265.518777 
L 371.734003 264.64584 
L 372.457064 264.35293 
L 373.180126 261.881773 
L 373.903187 264.182929 
L 374.626248 264.290668 
L 375.34931 264.669668 
L 376.072371 264.906875 
L 376.795432 262.168431 
L 377.518494 265.028883 
L 378.241555 265.546438 
L 378.964616 265.785115 
L 379.687678 265.303283 
L 380.410739 262.713095 
L 381.1338 265.829108 
L 381.856862 265.789934 
L 382.579923 266.646214 
L 383.302984 266.86902 
L 384.026046 263.021524 
L 384.749107 266.205525 
L 385.472168 267.369714 
L 386.19523 267.543379 
L 386.918291 266.268851 
L 387.641353 263.112805 
L 388.364414 266.379466 
L 389.087475 267.924997 
L 389.810537 266.029725 
L 390.533598 266.998327 
L 391.256659 264.811886 
L 391.979721 267.553796 
L 392.702782 268.203027 
L 393.425843 268.302834 
L 394.148905 267.205073 
L 394.871966 264.083907 
L 395.595027 268.553677 
L 396.318089 268.670849 
L 397.764211 267.894501 
L 398.487273 265.322975 
L 398.487273 265.322975 
" clip-path="url(#p051572be98)" style="fill: none; stroke: #dc143c; stroke-width: 2; stroke-linecap: square"/>
   </g>
   <g id="line2d_29">
    <path d="M 73.832727 230.846037 
L 76.724973 230.846037 
L 77.448034 231.080346 
L 83.955586 231.140376 
L 85.401709 231.242362 
L 87.570893 231.242362 
L 88.293954 231.709691 
L 91.1862 231.709691 
L 91.909261 232.186056 
L 102.03212 232.175728 
L 102.755181 231.780694 
L 105.647427 231.780694 
L 106.370488 231.086156 
L 109.262733 231.086156 
L 109.985795 230.305123 
L 112.87804 230.305123 
L 113.601101 229.79132 
L 116.493347 229.79132 
L 117.216408 229.413068 
L 120.108654 229.413068 
L 120.831715 229.092909 
L 123.72396 229.092909 
L 124.447022 228.630099 
L 127.339267 228.630099 
L 128.062328 228.027864 
L 130.954574 228.027864 
L 131.677635 227.476623 
L 134.569881 227.476623 
L 135.292942 226.85567 
L 138.185187 226.85567 
L 138.908249 226.059146 
L 141.800494 226.059146 
L 142.523555 225.108997 
L 145.415801 225.108997 
L 146.138862 224.031043 
L 149.031108 224.031043 
L 149.754169 222.894995 
L 152.646414 222.894995 
L 153.369476 221.538193 
L 156.261721 221.538193 
L 156.984782 220.24723 
L 159.877028 220.24723 
L 160.600089 218.957558 
L 163.492334 218.957558 
L 164.215396 217.769872 
L 167.107641 217.769872 
L 167.830703 216.539585 
L 170.722948 216.539585 
L 171.446009 215.411283 
L 174.338255 215.411283 
L 175.061316 214.223597 
L 177.953561 214.223597 
L 178.676623 213.08755 
L 181.568868 213.08755 
L 182.29193 211.892118 
L 185.184175 211.892118 
L 185.907236 210.740579 
L 188.799482 210.740579 
L 189.522543 209.725882 
L 192.414788 209.725882 
L 193.13785 208.838991 
L 196.030095 208.838991 
L 196.753157 208.139289 
L 199.645402 208.139289 
L 200.368463 207.600957 
L 203.260709 207.600957 
L 203.98377 207.341473 
L 206.876015 207.341473 
L 207.599077 207.205922 
L 214.106629 207.22916 
L 214.82969 207.465406 
L 217.721936 207.465406 
L 218.444997 207.968881 
L 221.337242 207.968881 
L 222.060304 208.780897 
L 224.952549 208.780897 
L 225.67561 209.640679 
L 228.567856 209.640679 
L 229.290917 210.669576 
L 232.183163 210.669576 
L 232.906224 211.433826 
L 235.798469 211.433826 
L 236.521531 212.487252 
L 239.413776 212.487252 
L 240.136837 213.846636 
L 243.029083 213.846636 
L 243.752144 215.092415 
L 246.64439 215.092415 
L 247.367451 216.33174 
L 250.259696 216.33174 
L 250.982758 217.547827 
L 253.875003 217.547827 
L 254.598064 218.686456 
L 257.49031 218.686456 
L 258.213371 219.875433 
L 261.105617 219.875433 
L 261.828678 221.168978 
L 264.720923 221.168978 
L 265.443985 222.793009 
L 268.33623 222.793009 
L 269.059291 224.582284 
L 271.951537 224.582284 
L 272.674598 226.255372 
L 275.566843 226.255372 
L 276.289905 228.000754 
L 279.18215 228.000754 
L 279.905212 229.725481 
L 282.797457 229.725481 
L 283.520518 231.566394 
L 286.412764 231.566394 
L 287.135825 233.429899 
L 290.02807 233.429899 
L 290.751132 235.483176 
L 293.643377 235.483176 
L 294.366439 237.383473 
L 297.258684 237.383473 
L 297.981745 239.219222 
L 300.873991 239.219222 
L 301.597052 240.998169 
L 304.489297 240.998169 
L 305.212359 242.924286 
L 308.104604 242.924286 
L 308.827666 244.68516 
L 311.719911 244.68516 
L 312.442972 246.554474 
L 315.335218 246.554474 
L 316.058279 248.430243 
L 318.950524 248.430243 
L 319.673586 250.144642 
L 322.565831 250.144642 
L 323.288892 251.781583 
L 326.181138 251.781583 
L 326.904199 253.543748 
L 329.796445 253.543748 
L 330.519506 254.968325 
L 333.411751 254.968325 
L 334.134813 256.758246 
L 337.027058 256.758246 
L 337.750119 258.071155 
L 340.642365 258.071155 
L 341.365426 259.369864 
L 344.257672 259.369864 
L 344.980733 260.946129 
L 347.872978 260.946129 
L 348.59604 262.176417 
L 351.488285 262.176417 
L 352.211346 263.602931 
L 355.103592 263.602931 
L 355.826653 264.491114 
L 358.718899 264.491114 
L 359.44196 265.776913 
L 362.334205 265.776913 
L 363.057267 266.881977 
L 365.949512 266.881977 
L 366.672573 268.077409 
L 369.564819 268.077409 
L 370.28788 268.640269 
L 373.180126 268.640269 
L 373.903187 269.935105 
L 376.795432 269.935105 
L 377.518494 270.494092 
L 380.410739 270.494092 
L 381.1338 271.477805 
L 384.026046 271.477805 
L 384.749107 272.385352 
L 387.641353 272.385352 
L 388.364414 273.323883 
L 391.256659 273.323883 
L 391.979721 273.990019 
L 394.871966 273.990019 
L 395.595027 274.962115 
L 398.487273 274.962115 
L 398.487273 274.962115 
" clip-path="url(#p051572be98)" style="fill: none; stroke: #ffff00; stroke-width: 3; stroke-linecap: square"/>
   </g>
   <g id="patch_3">
    <path d="M 57.6 307.584 
L 57.6 41.472 
" style="fill: none; stroke: #ffffff; stroke-linejoin: miter; stroke-linecap: square"/>
   </g>
   <g id="patch_4">
    <path d="M 414.72 307.584 
L 414.72 41.472 
" style="fill: none; stroke: #ffffff; stroke-linejoin: miter; stroke-linecap: square"/>
   </g>
   <g id="patch_5">
    <path d="M 57.6 307.584 
L 414.72 307.584 
" style="fill: none; stroke: #ffffff; stroke-linejoin: miter; stroke-linecap: square"/>
   </g>
   <g id="patch_6">
    <path d="M 57.6 41.472 
L 414.72 41.472 
" style="fill: none; stroke: #ffffff; stroke-linejoin: miter; stroke-linecap: square"/>
   </g>
   <g id="legend_1">
    <g id="patch_7">
     <path d="M 243.124687 302.584 
L 407.72 302.584 
Q 409.72 302.584 409.72 300.584 
L 409.72 257.549625 
Q 409.72 255.549625 407.72 255.549625 
L 243.124687 255.549625 
Q 241.124687 255.549625 241.124687 257.549625 
L 241.124687 300.584 
Q 241.124687 302.584 243.124687 302.584 
z
" style="fill: #e5e5e5; opacity: 0.8; stroke: #cccccc; stroke-width: 0.5; stroke-linejoin: miter"/>
    </g>
    <g id="line2d_30">
     <path d="M 245.124687 263.648062 
L 255.124687 263.648062 
L 265.124687 263.648062 
" style="fill: none; stroke: #6495ed; stroke-width: 2; stroke-linecap: square"/>
    </g>
    <g id="text_16">
     <!-- Generator loss -->
     <g transform="translate(273.124687 267.148062) scale(0.1 -0.1)">
      <defs>
       <path id="DejaVuSans-47" d="M 3809 666 
L 3809 1919 
L 2778 1919 
L 2778 2438 
L 4434 2438 
L 4434 434 
Q 4069 175 3628 42 
Q 3188 -91 2688 -91 
Q 1594 -91 976 548 
Q 359 1188 359 2328 
Q 359 3472 976 4111 
Q 1594 4750 2688 4750 
Q 3144 4750 3555 4637 
Q 3966 4525 4313 4306 
L 4313 3634 
Q 3963 3931 3569 4081 
Q 3175 4231 2741 4231 
Q 1884 4231 1454 3753 
Q 1025 3275 1025 2328 
Q 1025 1384 1454 906 
Q 1884 428 2741 428 
Q 3075 428 3337 486 
Q 3600 544 3809 666 
z
" transform="scale(0.015625)"/>
       <path id="DejaVuSans-65" d="M 3597 1894 
L 3597 1613 
L 953 1613 
Q 991 1019 1311 708 
Q 1631 397 2203 397 
Q 2534 397 2845 478 
Q 3156 559 3463 722 
L 3463 178 
Q 3153 47 2828 -22 
Q 2503 -91 2169 -91 
Q 1331 -91 842 396 
Q 353 884 353 1716 
Q 353 2575 817 3079 
Q 1281 3584 2069 3584 
Q 2775 3584 3186 3129 
Q 3597 2675 3597 1894 
z
M 3022 2063 
Q 3016 2534 2758 2815 
Q 2500 3097 2075 3097 
Q 1594 3097 1305 2825 
Q 1016 2553 972 2059 
L 3022 2063 
z
" transform="scale(0.015625)"/>
       <path id="DejaVuSans-6e" d="M 3513 2113 
L 3513 0 
L 2938 0 
L 2938 2094 
Q 2938 2591 2744 2837 
Q 2550 3084 2163 3084 
Q 1697 3084 1428 2787 
Q 1159 2491 1159 1978 
L 1159 0 
L 581 0 
L 581 3500 
L 1159 3500 
L 1159 2956 
Q 1366 3272 1645 3428 
Q 1925 3584 2291 3584 
Q 2894 3584 3203 3211 
Q 3513 2838 3513 2113 
z
" transform="scale(0.015625)"/>
       <path id="DejaVuSans-72" d="M 2631 2963 
Q 2534 3019 2420 3045 
Q 2306 3072 2169 3072 
Q 1681 3072 1420 2755 
Q 1159 2438 1159 1844 
L 1159 0 
L 581 0 
L 581 3500 
L 1159 3500 
L 1159 2956 
Q 1341 3275 1631 3429 
Q 1922 3584 2338 3584 
Q 2397 3584 2469 3576 
Q 2541 3569 2628 3553 
L 2631 2963 
z
" transform="scale(0.015625)"/>
       <path id="DejaVuSans-61" d="M 2194 1759 
Q 1497 1759 1228 1600 
Q 959 1441 959 1056 
Q 959 750 1161 570 
Q 1363 391 1709 391 
Q 2188 391 2477 730 
Q 2766 1069 2766 1631 
L 2766 1759 
L 2194 1759 
z
M 3341 1997 
L 3341 0 
L 2766 0 
L 2766 531 
Q 2569 213 2275 61 
Q 1981 -91 1556 -91 
Q 1019 -91 701 211 
Q 384 513 384 1019 
Q 384 1609 779 1909 
Q 1175 2209 1959 2209 
L 2766 2209 
L 2766 2266 
Q 2766 2663 2505 2880 
Q 2244 3097 1772 3097 
Q 1472 3097 1187 3025 
Q 903 2953 641 2809 
L 641 3341 
Q 956 3463 1253 3523 
Q 1550 3584 1831 3584 
Q 2591 3584 2966 3190 
Q 3341 2797 3341 1997 
z
" transform="scale(0.015625)"/>
       <path id="DejaVuSans-74" d="M 1172 4494 
L 1172 3500 
L 2356 3500 
L 2356 3053 
L 1172 3053 
L 1172 1153 
Q 1172 725 1289 603 
Q 1406 481 1766 481 
L 2356 481 
L 2356 0 
L 1766 0 
Q 1100 0 847 248 
Q 594 497 594 1153 
L 594 3053 
L 172 3053 
L 172 3500 
L 594 3500 
L 594 4494 
L 1172 4494 
z
" transform="scale(0.015625)"/>
       <path id="DejaVuSans-20" transform="scale(0.015625)"/>
       <path id="DejaVuSans-6c" d="M 603 4863 
L 1178 4863 
L 1178 0 
L 603 0 
L 603 4863 
z
" transform="scale(0.015625)"/>
      </defs>
      <use xlink:href="#DejaVuSans-47"/>
      <use xlink:href="#DejaVuSans-65" x="77.490234"/>
      <use xlink:href="#DejaVuSans-6e" x="139.013672"/>
      <use xlink:href="#DejaVuSans-65" x="202.392578"/>
      <use xlink:href="#DejaVuSans-72" x="263.916016"/>
      <use xlink:href="#DejaVuSans-61" x="305.029297"/>
      <use xlink:href="#DejaVuSans-74" x="366.308594"/>
      <use xlink:href="#DejaVuSans-6f" x="405.517578"/>
      <use xlink:href="#DejaVuSans-72" x="466.699219"/>
      <use xlink:href="#DejaVuSans-20" x="507.8125"/>
      <use xlink:href="#DejaVuSans-6c" x="539.599609"/>
      <use xlink:href="#DejaVuSans-6f" x="567.382812"/>
      <use xlink:href="#DejaVuSans-73" x="628.564453"/>
      <use xlink:href="#DejaVuSans-73" x="680.664062"/>
     </g>
    </g>
    <g id="line2d_31">
     <path d="M 245.124687 278.326188 
L 255.124687 278.326188 
L 265.124687 278.326188 
" style="fill: none; stroke: #dc143c; stroke-width: 2; stroke-linecap: square"/>
    </g>
    <g id="text_17">
     <!-- Average discriminator loss -->
     <g transform="translate(273.124687 281.826188) scale(0.1 -0.1)">
      <defs>
       <path id="DejaVuSans-41" d="M 2188 4044 
L 1331 1722 
L 3047 1722 
L 2188 4044 
z
M 1831 4666 
L 2547 4666 
L 4325 0 
L 3669 0 
L 3244 1197 
L 1141 1197 
L 716 0 
L 50 0 
L 1831 4666 
z
" transform="scale(0.015625)"/>
       <path id="DejaVuSans-76" d="M 191 3500 
L 800 3500 
L 1894 563 
L 2988 3500 
L 3597 3500 
L 2284 0 
L 1503 0 
L 191 3500 
z
" transform="scale(0.015625)"/>
       <path id="DejaVuSans-67" d="M 2906 1791 
Q 2906 2416 2648 2759 
Q 2391 3103 1925 3103 
Q 1463 3103 1205 2759 
Q 947 2416 947 1791 
Q 947 1169 1205 825 
Q 1463 481 1925 481 
Q 2391 481 2648 825 
Q 2906 1169 2906 1791 
z
M 3481 434 
Q 3481 -459 3084 -895 
Q 2688 -1331 1869 -1331 
Q 1566 -1331 1297 -1286 
Q 1028 -1241 775 -1147 
L 775 -588 
Q 1028 -725 1275 -790 
Q 1522 -856 1778 -856 
Q 2344 -856 2625 -561 
Q 2906 -266 2906 331 
L 2906 616 
Q 2728 306 2450 153 
Q 2172 0 1784 0 
Q 1141 0 747 490 
Q 353 981 353 1791 
Q 353 2603 747 3093 
Q 1141 3584 1784 3584 
Q 2172 3584 2450 3431 
Q 2728 3278 2906 2969 
L 2906 3500 
L 3481 3500 
L 3481 434 
z
" transform="scale(0.015625)"/>
       <path id="DejaVuSans-64" d="M 2906 2969 
L 2906 4863 
L 3481 4863 
L 3481 0 
L 2906 0 
L 2906 525 
Q 2725 213 2448 61 
Q 2172 -91 1784 -91 
Q 1150 -91 751 415 
Q 353 922 353 1747 
Q 353 2572 751 3078 
Q 1150 3584 1784 3584 
Q 2172 3584 2448 3432 
Q 2725 3281 2906 2969 
z
M 947 1747 
Q 947 1113 1208 752 
Q 1469 391 1925 391 
Q 2381 391 2643 752 
Q 2906 1113 2906 1747 
Q 2906 2381 2643 2742 
Q 2381 3103 1925 3103 
Q 1469 3103 1208 2742 
Q 947 2381 947 1747 
z
" transform="scale(0.015625)"/>
       <path id="DejaVuSans-69" d="M 603 3500 
L 1178 3500 
L 1178 0 
L 603 0 
L 603 3500 
z
M 603 4863 
L 1178 4863 
L 1178 4134 
L 603 4134 
L 603 4863 
z
" transform="scale(0.015625)"/>
       <path id="DejaVuSans-6d" d="M 3328 2828 
Q 3544 3216 3844 3400 
Q 4144 3584 4550 3584 
Q 5097 3584 5394 3201 
Q 5691 2819 5691 2113 
L 5691 0 
L 5113 0 
L 5113 2094 
Q 5113 2597 4934 2840 
Q 4756 3084 4391 3084 
Q 3944 3084 3684 2787 
Q 3425 2491 3425 1978 
L 3425 0 
L 2847 0 
L 2847 2094 
Q 2847 2600 2669 2842 
Q 2491 3084 2119 3084 
Q 1678 3084 1418 2786 
Q 1159 2488 1159 1978 
L 1159 0 
L 581 0 
L 581 3500 
L 1159 3500 
L 1159 2956 
Q 1356 3278 1631 3431 
Q 1906 3584 2284 3584 
Q 2666 3584 2933 3390 
Q 3200 3197 3328 2828 
z
" transform="scale(0.015625)"/>
      </defs>
      <use xlink:href="#DejaVuSans-41"/>
      <use xlink:href="#DejaVuSans-76" x="62.533203"/>
      <use xlink:href="#DejaVuSans-65" x="121.712891"/>
      <use xlink:href="#DejaVuSans-72" x="183.236328"/>
      <use xlink:href="#DejaVuSans-61" x="224.349609"/>
      <use xlink:href="#DejaVuSans-67" x="285.628906"/>
      <use xlink:href="#DejaVuSans-65" x="349.105469"/>
      <use xlink:href="#DejaVuSans-20" x="410.628906"/>
      <use xlink:href="#DejaVuSans-64" x="442.416016"/>
      <use xlink:href="#DejaVuSans-69" x="505.892578"/>
      <use xlink:href="#DejaVuSans-73" x="533.675781"/>
      <use xlink:href="#DejaVuSans-63" x="585.775391"/>
      <use xlink:href="#DejaVuSans-72" x="640.755859"/>
      <use xlink:href="#DejaVuSans-69" x="681.869141"/>
      <use xlink:href="#DejaVuSans-6d" x="709.652344"/>
      <use xlink:href="#DejaVuSans-69" x="807.064453"/>
      <use xlink:href="#DejaVuSans-6e" x="834.847656"/>
      <use xlink:href="#DejaVuSans-61" x="898.226562"/>
      <use xlink:href="#DejaVuSans-74" x="959.505859"/>
      <use xlink:href="#DejaVuSans-6f" x="998.714844"/>
      <use xlink:href="#DejaVuSans-72" x="1059.896484"/>
      <use xlink:href="#DejaVuSans-20" x="1101.009766"/>
      <use xlink:href="#DejaVuSans-6c" x="1132.796875"/>
      <use xlink:href="#DejaVuSans-6f" x="1160.580078"/>
      <use xlink:href="#DejaVuSans-73" x="1221.761719"/>
      <use xlink:href="#DejaVuSans-73" x="1273.861328"/>
     </g>
    </g>
    <g id="line2d_32">
     <path d="M 245.124687 293.004312 
L 255.124687 293.004312 
L 265.124687 293.004312 
" style="fill: none; stroke: #ffff00; stroke-width: 3; stroke-linecap: square"/>
    </g>
    <g id="text_18">
     <!-- ROC AUC -->
     <g transform="translate(273.124687 296.504312) scale(0.1 -0.1)">
      <defs>
       <path id="DejaVuSans-52" d="M 2841 2188 
Q 3044 2119 3236 1894 
Q 3428 1669 3622 1275 
L 4263 0 
L 3584 0 
L 2988 1197 
Q 2756 1666 2539 1819 
Q 2322 1972 1947 1972 
L 1259 1972 
L 1259 0 
L 628 0 
L 628 4666 
L 2053 4666 
Q 2853 4666 3247 4331 
Q 3641 3997 3641 3322 
Q 3641 2881 3436 2590 
Q 3231 2300 2841 2188 
z
M 1259 4147 
L 1259 2491 
L 2053 2491 
Q 2509 2491 2742 2702 
Q 2975 2913 2975 3322 
Q 2975 3731 2742 3939 
Q 2509 4147 2053 4147 
L 1259 4147 
z
" transform="scale(0.015625)"/>
       <path id="DejaVuSans-4f" d="M 2522 4238 
Q 1834 4238 1429 3725 
Q 1025 3213 1025 2328 
Q 1025 1447 1429 934 
Q 1834 422 2522 422 
Q 3209 422 3611 934 
Q 4013 1447 4013 2328 
Q 4013 3213 3611 3725 
Q 3209 4238 2522 4238 
z
M 2522 4750 
Q 3503 4750 4090 4092 
Q 4678 3434 4678 2328 
Q 4678 1225 4090 567 
Q 3503 -91 2522 -91 
Q 1538 -91 948 565 
Q 359 1222 359 2328 
Q 359 3434 948 4092 
Q 1538 4750 2522 4750 
z
" transform="scale(0.015625)"/>
       <path id="DejaVuSans-43" d="M 4122 4306 
L 4122 3641 
Q 3803 3938 3442 4084 
Q 3081 4231 2675 4231 
Q 1875 4231 1450 3742 
Q 1025 3253 1025 2328 
Q 1025 1406 1450 917 
Q 1875 428 2675 428 
Q 3081 428 3442 575 
Q 3803 722 4122 1019 
L 4122 359 
Q 3791 134 3420 21 
Q 3050 -91 2638 -91 
Q 1578 -91 968 557 
Q 359 1206 359 2328 
Q 359 3453 968 4101 
Q 1578 4750 2638 4750 
Q 3056 4750 3426 4639 
Q 3797 4528 4122 4306 
z
" transform="scale(0.015625)"/>
       <path id="DejaVuSans-55" d="M 556 4666 
L 1191 4666 
L 1191 1831 
Q 1191 1081 1462 751 
Q 1734 422 2344 422 
Q 2950 422 3222 751 
Q 3494 1081 3494 1831 
L 3494 4666 
L 4128 4666 
L 4128 1753 
Q 4128 841 3676 375 
Q 3225 -91 2344 -91 
Q 1459 -91 1007 375 
Q 556 841 556 1753 
L 556 4666 
z
" transform="scale(0.015625)"/>
      </defs>
      <use xlink:href="#DejaVuSans-52"/>
      <use xlink:href="#DejaVuSans-4f" x="69.482422"/>
      <use xlink:href="#DejaVuSans-43" x="148.193359"/>
      <use xlink:href="#DejaVuSans-20" x="218.017578"/>
      <use xlink:href="#DejaVuSans-41" x="249.804688"/>
      <use xlink:href="#DejaVuSans-55" x="318.212891"/>
      <use xlink:href="#DejaVuSans-43" x="391.40625"/>
     </g>
    </g>
   </g>
  </g>
 </g>
 <defs>
  <clipPath id="p051572be98">
   <rect x="57.6" y="41.472" width="357.12" height="266.112"/>
  </clipPath>
 </defs>
</svg>
