<?xml version="1.0" encoding="utf-8" standalone="no"?>
<!DOCTYPE svg PUBLIC "-//W3C//DTD SVG 1.1//EN"
  "http://www.w3.org/Graphics/SVG/1.1/DTD/svg11.dtd">
<svg xmlns:xlink="http://www.w3.org/1999/xlink" width="460.8pt" height="345.6pt" viewBox="0 0 460.8 345.6" xmlns="http://www.w3.org/2000/svg" version="1.1">
 <metadata>
  <rdf:RDF xmlns:dc="http://purl.org/dc/elements/1.1/" xmlns:cc="http://creativecommons.org/ns#" xmlns:rdf="http://www.w3.org/1999/02/22-rdf-syntax-ns#">
   <cc:Work>
    <dc:type rdf:resource="http://purl.org/dc/dcmitype/StillImage"/>
    <dc:date>2023-07-06T14:57:16.820817</dc:date>
    <dc:format>image/svg+xml</dc:format>
    <dc:creator>
     <cc:Agent>
      <dc:title>Matplotlib v3.7.1, https://matplotlib.org/</dc:title>
     </cc:Agent>
    </dc:creator>
   </cc:Work>
  </rdf:RDF>
 </metadata>
 <defs>
  <style type="text/css">*{stroke-linejoin: round; stroke-linecap: butt}</style>
 </defs>
 <g id="figure_1">
  <g id="patch_1">
   <path d="M 0 345.6 
L 460.8 345.6 
L 460.8 0 
L 0 0 
z
" style="fill: #ffffff"/>
  </g>
  <g id="axes_1">
   <g id="patch_2">
    <path d="M 57.6 307.584 
L 414.72 307.584 
L 414.72 41.472 
L 57.6 41.472 
z
" style="fill: #e5e5e5"/>
   </g>
   <g id="matplotlib.axis_1">
    <g id="xtick_1">
     <g id="line2d_1">
      <path d="M 73.109666 307.584 
L 73.109666 41.472 
" clip-path="url(#p5b6c128c45)" style="fill: none; stroke: #ffffff; stroke-width: 0.8; stroke-linecap: square"/>
     </g>
     <g id="line2d_2">
      <defs>
       <path id="m927eb9e645" d="M 0 0 
L 0 3.5 
" style="stroke: #555555; stroke-width: 0.8"/>
      </defs>
      <g>
       <use xlink:href="#m927eb9e645" x="73.109666" y="307.584" style="fill: #555555; stroke: #555555; stroke-width: 0.8"/>
      </g>
     </g>
     <g id="text_1">
      <!-- 0 -->
      <g style="fill: #555555" transform="translate(69.928416 322.182437) scale(0.1 -0.1)">
       <defs>
        <path id="DejaVuSans-30" d="M 2034 4250 
Q 1547 4250 1301 3770 
Q 1056 3291 1056 2328 
Q 1056 1369 1301 889 
Q 1547 409 2034 409 
Q 2525 409 2770 889 
Q 3016 1369 3016 2328 
Q 3016 3291 2770 3770 
Q 2525 4250 2034 4250 
z
M 2034 4750 
Q 2819 4750 3233 4129 
Q 3647 3509 3647 2328 
Q 3647 1150 3233 529 
Q 2819 -91 2034 -91 
Q 1250 -91 836 529 
Q 422 1150 422 2328 
Q 422 3509 836 4129 
Q 1250 4750 2034 4750 
z
" transform="scale(0.015625)"/>
       </defs>
       <use xlink:href="#DejaVuSans-30"/>
      </g>
     </g>
    </g>
    <g id="xtick_2">
     <g id="line2d_3">
      <path d="M 145.415801 307.584 
L 145.415801 41.472 
" clip-path="url(#p5b6c128c45)" style="fill: none; stroke: #ffffff; stroke-width: 0.8; stroke-linecap: square"/>
     </g>
     <g id="line2d_4">
      <g>
       <use xlink:href="#m927eb9e645" x="145.415801" y="307.584" style="fill: #555555; stroke: #555555; stroke-width: 0.8"/>
      </g>
     </g>
     <g id="text_2">
      <!-- 100 -->
      <g style="fill: #555555" transform="translate(135.872051 322.182437) scale(0.1 -0.1)">
       <defs>
        <path id="DejaVuSans-31" d="M 794 531 
L 1825 531 
L 1825 4091 
L 703 3866 
L 703 4441 
L 1819 4666 
L 2450 4666 
L 2450 531 
L 3481 531 
L 3481 0 
L 794 0 
L 794 531 
z
" transform="scale(0.015625)"/>
       </defs>
       <use xlink:href="#DejaVuSans-31"/>
       <use xlink:href="#DejaVuSans-30" x="63.623047"/>
       <use xlink:href="#DejaVuSans-30" x="127.246094"/>
      </g>
     </g>
    </g>
    <g id="xtick_3">
     <g id="line2d_5">
      <path d="M 217.721936 307.584 
L 217.721936 41.472 
" clip-path="url(#p5b6c128c45)" style="fill: none; stroke: #ffffff; stroke-width: 0.8; stroke-linecap: square"/>
     </g>
     <g id="line2d_6">
      <g>
       <use xlink:href="#m927eb9e645" x="217.721936" y="307.584" style="fill: #555555; stroke: #555555; stroke-width: 0.8"/>
      </g>
     </g>
     <g id="text_3">
      <!-- 200 -->
      <g style="fill: #555555" transform="translate(208.178186 322.182437) scale(0.1 -0.1)">
       <defs>
        <path id="DejaVuSans-32" d="M 1228 531 
L 3431 531 
L 3431 0 
L 469 0 
L 469 531 
Q 828 903 1448 1529 
Q 2069 2156 2228 2338 
Q 2531 2678 2651 2914 
Q 2772 3150 2772 3378 
Q 2772 3750 2511 3984 
Q 2250 4219 1831 4219 
Q 1534 4219 1204 4116 
Q 875 4013 500 3803 
L 500 4441 
Q 881 4594 1212 4672 
Q 1544 4750 1819 4750 
Q 2544 4750 2975 4387 
Q 3406 4025 3406 3419 
Q 3406 3131 3298 2873 
Q 3191 2616 2906 2266 
Q 2828 2175 2409 1742 
Q 1991 1309 1228 531 
z
" transform="scale(0.015625)"/>
       </defs>
       <use xlink:href="#DejaVuSans-32"/>
       <use xlink:href="#DejaVuSans-30" x="63.623047"/>
       <use xlink:href="#DejaVuSans-30" x="127.246094"/>
      </g>
     </g>
    </g>
    <g id="xtick_4">
     <g id="line2d_7">
      <path d="M 290.02807 307.584 
L 290.02807 41.472 
" clip-path="url(#p5b6c128c45)" style="fill: none; stroke: #ffffff; stroke-width: 0.8; stroke-linecap: square"/>
     </g>
     <g id="line2d_8">
      <g>
       <use xlink:href="#m927eb9e645" x="290.02807" y="307.584" style="fill: #555555; stroke: #555555; stroke-width: 0.8"/>
      </g>
     </g>
     <g id="text_4">
      <!-- 300 -->
      <g style="fill: #555555" transform="translate(280.48432 322.182437) scale(0.1 -0.1)">
       <defs>
        <path id="DejaVuSans-33" d="M 2597 2516 
Q 3050 2419 3304 2112 
Q 3559 1806 3559 1356 
Q 3559 666 3084 287 
Q 2609 -91 1734 -91 
Q 1441 -91 1130 -33 
Q 819 25 488 141 
L 488 750 
Q 750 597 1062 519 
Q 1375 441 1716 441 
Q 2309 441 2620 675 
Q 2931 909 2931 1356 
Q 2931 1769 2642 2001 
Q 2353 2234 1838 2234 
L 1294 2234 
L 1294 2753 
L 1863 2753 
Q 2328 2753 2575 2939 
Q 2822 3125 2822 3475 
Q 2822 3834 2567 4026 
Q 2313 4219 1838 4219 
Q 1578 4219 1281 4162 
Q 984 4106 628 3988 
L 628 4550 
Q 988 4650 1302 4700 
Q 1616 4750 1894 4750 
Q 2613 4750 3031 4423 
Q 3450 4097 3450 3541 
Q 3450 3153 3228 2886 
Q 3006 2619 2597 2516 
z
" transform="scale(0.015625)"/>
       </defs>
       <use xlink:href="#DejaVuSans-33"/>
       <use xlink:href="#DejaVuSans-30" x="63.623047"/>
       <use xlink:href="#DejaVuSans-30" x="127.246094"/>
      </g>
     </g>
    </g>
    <g id="xtick_5">
     <g id="line2d_9">
      <path d="M 362.334205 307.584 
L 362.334205 41.472 
" clip-path="url(#p5b6c128c45)" style="fill: none; stroke: #ffffff; stroke-width: 0.8; stroke-linecap: square"/>
     </g>
     <g id="line2d_10">
      <g>
       <use xlink:href="#m927eb9e645" x="362.334205" y="307.584" style="fill: #555555; stroke: #555555; stroke-width: 0.8"/>
      </g>
     </g>
     <g id="text_5">
      <!-- 400 -->
      <g style="fill: #555555" transform="translate(352.790455 322.182437) scale(0.1 -0.1)">
       <defs>
        <path id="DejaVuSans-34" d="M 2419 4116 
L 825 1625 
L 2419 1625 
L 2419 4116 
z
M 2253 4666 
L 3047 4666 
L 3047 1625 
L 3713 1625 
L 3713 1100 
L 3047 1100 
L 3047 0 
L 2419 0 
L 2419 1100 
L 313 1100 
L 313 1709 
L 2253 4666 
z
" transform="scale(0.015625)"/>
       </defs>
       <use xlink:href="#DejaVuSans-34"/>
       <use xlink:href="#DejaVuSans-30" x="63.623047"/>
       <use xlink:href="#DejaVuSans-30" x="127.246094"/>
      </g>
     </g>
    </g>
    <g id="text_6">
     <!-- Epoch -->
     <g style="fill: #555555" transform="translate(217.786875 337.38025) scale(0.12 -0.12)">
      <defs>
       <path id="DejaVuSans-45" d="M 628 4666 
L 3578 4666 
L 3578 4134 
L 1259 4134 
L 1259 2753 
L 3481 2753 
L 3481 2222 
L 1259 2222 
L 1259 531 
L 3634 531 
L 3634 0 
L 628 0 
L 628 4666 
z
" transform="scale(0.015625)"/>
       <path id="DejaVuSans-70" d="M 1159 525 
L 1159 -1331 
L 581 -1331 
L 581 3500 
L 1159 3500 
L 1159 2969 
Q 1341 3281 1617 3432 
Q 1894 3584 2278 3584 
Q 2916 3584 3314 3078 
Q 3713 2572 3713 1747 
Q 3713 922 3314 415 
Q 2916 -91 2278 -91 
Q 1894 -91 1617 61 
Q 1341 213 1159 525 
z
M 3116 1747 
Q 3116 2381 2855 2742 
Q 2594 3103 2138 3103 
Q 1681 3103 1420 2742 
Q 1159 2381 1159 1747 
Q 1159 1113 1420 752 
Q 1681 391 2138 391 
Q 2594 391 2855 752 
Q 3116 1113 3116 1747 
z
" transform="scale(0.015625)"/>
       <path id="DejaVuSans-6f" d="M 1959 3097 
Q 1497 3097 1228 2736 
Q 959 2375 959 1747 
Q 959 1119 1226 758 
Q 1494 397 1959 397 
Q 2419 397 2687 759 
Q 2956 1122 2956 1747 
Q 2956 2369 2687 2733 
Q 2419 3097 1959 3097 
z
M 1959 3584 
Q 2709 3584 3137 3096 
Q 3566 2609 3566 1747 
Q 3566 888 3137 398 
Q 2709 -91 1959 -91 
Q 1206 -91 779 398 
Q 353 888 353 1747 
Q 353 2609 779 3096 
Q 1206 3584 1959 3584 
z
" transform="scale(0.015625)"/>
       <path id="DejaVuSans-63" d="M 3122 3366 
L 3122 2828 
Q 2878 2963 2633 3030 
Q 2388 3097 2138 3097 
Q 1578 3097 1268 2742 
Q 959 2388 959 1747 
Q 959 1106 1268 751 
Q 1578 397 2138 397 
Q 2388 397 2633 464 
Q 2878 531 3122 666 
L 3122 134 
Q 2881 22 2623 -34 
Q 2366 -91 2075 -91 
Q 1284 -91 818 406 
Q 353 903 353 1747 
Q 353 2603 823 3093 
Q 1294 3584 2113 3584 
Q 2378 3584 2631 3529 
Q 2884 3475 3122 3366 
z
" transform="scale(0.015625)"/>
       <path id="DejaVuSans-68" d="M 3513 2113 
L 3513 0 
L 2938 0 
L 2938 2094 
Q 2938 2591 2744 2837 
Q 2550 3084 2163 3084 
Q 1697 3084 1428 2787 
Q 1159 2491 1159 1978 
L 1159 0 
L 581 0 
L 581 4863 
L 1159 4863 
L 1159 2956 
Q 1366 3272 1645 3428 
Q 1925 3584 2291 3584 
Q 2894 3584 3203 3211 
Q 3513 2838 3513 2113 
z
" transform="scale(0.015625)"/>
      </defs>
      <use xlink:href="#DejaVuSans-45"/>
      <use xlink:href="#DejaVuSans-70" x="63.183594"/>
      <use xlink:href="#DejaVuSans-6f" x="126.660156"/>
      <use xlink:href="#DejaVuSans-63" x="187.841797"/>
      <use xlink:href="#DejaVuSans-68" x="242.822266"/>
     </g>
    </g>
   </g>
   <g id="matplotlib.axis_2">
    <g id="ytick_1">
     <g id="line2d_11">
      <path d="M 57.6 286.248772 
L 414.72 286.248772 
" clip-path="url(#p5b6c128c45)" style="fill: none; stroke: #ffffff; stroke-width: 0.8; stroke-linecap: square"/>
     </g>
     <g id="line2d_12">
      <defs>
       <path id="m4ca21324b8" d="M 0 0 
L -3.5 0 
" style="stroke: #555555; stroke-width: 0.8"/>
      </defs>
      <g>
       <use xlink:href="#m4ca21324b8" x="57.6" y="286.248772" style="fill: #555555; stroke: #555555; stroke-width: 0.8"/>
      </g>
     </g>
     <g id="text_7">
      <!-- 0.4 -->
      <g style="fill: #555555" transform="translate(34.696875 290.047991) scale(0.1 -0.1)">
       <defs>
        <path id="DejaVuSans-2e" d="M 684 794 
L 1344 794 
L 1344 0 
L 684 0 
L 684 794 
z
" transform="scale(0.015625)"/>
       </defs>
       <use xlink:href="#DejaVuSans-30"/>
       <use xlink:href="#DejaVuSans-2e" x="63.623047"/>
       <use xlink:href="#DejaVuSans-34" x="95.410156"/>
      </g>
     </g>
    </g>
    <g id="ytick_2">
     <g id="line2d_13">
      <path d="M 57.6 251.61429 
L 414.72 251.61429 
" clip-path="url(#p5b6c128c45)" style="fill: none; stroke: #ffffff; stroke-width: 0.8; stroke-linecap: square"/>
     </g>
     <g id="line2d_14">
      <g>
       <use xlink:href="#m4ca21324b8" x="57.6" y="251.61429" style="fill: #555555; stroke: #555555; stroke-width: 0.8"/>
      </g>
     </g>
     <g id="text_8">
      <!-- 0.6 -->
      <g style="fill: #555555" transform="translate(34.696875 255.413508) scale(0.1 -0.1)">
       <defs>
        <path id="DejaVuSans-36" d="M 2113 2584 
Q 1688 2584 1439 2293 
Q 1191 2003 1191 1497 
Q 1191 994 1439 701 
Q 1688 409 2113 409 
Q 2538 409 2786 701 
Q 3034 994 3034 1497 
Q 3034 2003 2786 2293 
Q 2538 2584 2113 2584 
z
M 3366 4563 
L 3366 3988 
Q 3128 4100 2886 4159 
Q 2644 4219 2406 4219 
Q 1781 4219 1451 3797 
Q 1122 3375 1075 2522 
Q 1259 2794 1537 2939 
Q 1816 3084 2150 3084 
Q 2853 3084 3261 2657 
Q 3669 2231 3669 1497 
Q 3669 778 3244 343 
Q 2819 -91 2113 -91 
Q 1303 -91 875 529 
Q 447 1150 447 2328 
Q 447 3434 972 4092 
Q 1497 4750 2381 4750 
Q 2619 4750 2861 4703 
Q 3103 4656 3366 4563 
z
" transform="scale(0.015625)"/>
       </defs>
       <use xlink:href="#DejaVuSans-30"/>
       <use xlink:href="#DejaVuSans-2e" x="63.623047"/>
       <use xlink:href="#DejaVuSans-36" x="95.410156"/>
      </g>
     </g>
    </g>
    <g id="ytick_3">
     <g id="line2d_15">
      <path d="M 57.6 216.979807 
L 414.72 216.979807 
" clip-path="url(#p5b6c128c45)" style="fill: none; stroke: #ffffff; stroke-width: 0.8; stroke-linecap: square"/>
     </g>
     <g id="line2d_16">
      <g>
       <use xlink:href="#m4ca21324b8" x="57.6" y="216.979807" style="fill: #555555; stroke: #555555; stroke-width: 0.8"/>
      </g>
     </g>
     <g id="text_9">
      <!-- 0.8 -->
      <g style="fill: #555555" transform="translate(34.696875 220.779026) scale(0.1 -0.1)">
       <defs>
        <path id="DejaVuSans-38" d="M 2034 2216 
Q 1584 2216 1326 1975 
Q 1069 1734 1069 1313 
Q 1069 891 1326 650 
Q 1584 409 2034 409 
Q 2484 409 2743 651 
Q 3003 894 3003 1313 
Q 3003 1734 2745 1975 
Q 2488 2216 2034 2216 
z
M 1403 2484 
Q 997 2584 770 2862 
Q 544 3141 544 3541 
Q 544 4100 942 4425 
Q 1341 4750 2034 4750 
Q 2731 4750 3128 4425 
Q 3525 4100 3525 3541 
Q 3525 3141 3298 2862 
Q 3072 2584 2669 2484 
Q 3125 2378 3379 2068 
Q 3634 1759 3634 1313 
Q 3634 634 3220 271 
Q 2806 -91 2034 -91 
Q 1263 -91 848 271 
Q 434 634 434 1313 
Q 434 1759 690 2068 
Q 947 2378 1403 2484 
z
M 1172 3481 
Q 1172 3119 1398 2916 
Q 1625 2713 2034 2713 
Q 2441 2713 2670 2916 
Q 2900 3119 2900 3481 
Q 2900 3844 2670 4047 
Q 2441 4250 2034 4250 
Q 1625 4250 1398 4047 
Q 1172 3844 1172 3481 
z
" transform="scale(0.015625)"/>
       </defs>
       <use xlink:href="#DejaVuSans-30"/>
       <use xlink:href="#DejaVuSans-2e" x="63.623047"/>
       <use xlink:href="#DejaVuSans-38" x="95.410156"/>
      </g>
     </g>
    </g>
    <g id="ytick_4">
     <g id="line2d_17">
      <path d="M 57.6 182.345325 
L 414.72 182.345325 
" clip-path="url(#p5b6c128c45)" style="fill: none; stroke: #ffffff; stroke-width: 0.8; stroke-linecap: square"/>
     </g>
     <g id="line2d_18">
      <g>
       <use xlink:href="#m4ca21324b8" x="57.6" y="182.345325" style="fill: #555555; stroke: #555555; stroke-width: 0.8"/>
      </g>
     </g>
     <g id="text_10">
      <!-- 1.0 -->
      <g style="fill: #555555" transform="translate(34.696875 186.144543) scale(0.1 -0.1)">
       <use xlink:href="#DejaVuSans-31"/>
       <use xlink:href="#DejaVuSans-2e" x="63.623047"/>
       <use xlink:href="#DejaVuSans-30" x="95.410156"/>
      </g>
     </g>
    </g>
    <g id="ytick_5">
     <g id="line2d_19">
      <path d="M 57.6 147.710842 
L 414.72 147.710842 
" clip-path="url(#p5b6c128c45)" style="fill: none; stroke: #ffffff; stroke-width: 0.8; stroke-linecap: square"/>
     </g>
     <g id="line2d_20">
      <g>
       <use xlink:href="#m4ca21324b8" x="57.6" y="147.710842" style="fill: #555555; stroke: #555555; stroke-width: 0.8"/>
      </g>
     </g>
     <g id="text_11">
      <!-- 1.2 -->
      <g style="fill: #555555" transform="translate(34.696875 151.510061) scale(0.1 -0.1)">
       <use xlink:href="#DejaVuSans-31"/>
       <use xlink:href="#DejaVuSans-2e" x="63.623047"/>
       <use xlink:href="#DejaVuSans-32" x="95.410156"/>
      </g>
     </g>
    </g>
    <g id="ytick_6">
     <g id="line2d_21">
      <path d="M 57.6 113.07636 
L 414.72 113.07636 
" clip-path="url(#p5b6c128c45)" style="fill: none; stroke: #ffffff; stroke-width: 0.8; stroke-linecap: square"/>
     </g>
     <g id="line2d_22">
      <g>
       <use xlink:href="#m4ca21324b8" x="57.6" y="113.07636" style="fill: #555555; stroke: #555555; stroke-width: 0.8"/>
      </g>
     </g>
     <g id="text_12">
      <!-- 1.4 -->
      <g style="fill: #555555" transform="translate(34.696875 116.875578) scale(0.1 -0.1)">
       <use xlink:href="#DejaVuSans-31"/>
       <use xlink:href="#DejaVuSans-2e" x="63.623047"/>
       <use xlink:href="#DejaVuSans-34" x="95.410156"/>
      </g>
     </g>
    </g>
    <g id="ytick_7">
     <g id="line2d_23">
      <path d="M 57.6 78.441877 
L 414.72 78.441877 
" clip-path="url(#p5b6c128c45)" style="fill: none; stroke: #ffffff; stroke-width: 0.8; stroke-linecap: square"/>
     </g>
     <g id="line2d_24">
      <g>
       <use xlink:href="#m4ca21324b8" x="57.6" y="78.441877" style="fill: #555555; stroke: #555555; stroke-width: 0.8"/>
      </g>
     </g>
     <g id="text_13">
      <!-- 1.6 -->
      <g style="fill: #555555" transform="translate(34.696875 82.241096) scale(0.1 -0.1)">
       <use xlink:href="#DejaVuSans-31"/>
       <use xlink:href="#DejaVuSans-2e" x="63.623047"/>
       <use xlink:href="#DejaVuSans-36" x="95.410156"/>
      </g>
     </g>
    </g>
    <g id="ytick_8">
     <g id="line2d_25">
      <path d="M 57.6 43.807395 
L 414.72 43.807395 
" clip-path="url(#p5b6c128c45)" style="fill: none; stroke: #ffffff; stroke-width: 0.8; stroke-linecap: square"/>
     </g>
     <g id="line2d_26">
      <g>
       <use xlink:href="#m4ca21324b8" x="57.6" y="43.807395" style="fill: #555555; stroke: #555555; stroke-width: 0.8"/>
      </g>
     </g>
     <g id="text_14">
      <!-- 1.8 -->
      <g style="fill: #555555" transform="translate(34.696875 47.606614) scale(0.1 -0.1)">
       <use xlink:href="#DejaVuSans-31"/>
       <use xlink:href="#DejaVuSans-2e" x="63.623047"/>
       <use xlink:href="#DejaVuSans-38" x="95.410156"/>
      </g>
     </g>
    </g>
    <g id="text_15">
     <!-- Loss -->
     <g style="fill: #555555" transform="translate(28.20125 187.688625) rotate(-90) scale(0.12 -0.12)">
      <defs>
       <path id="DejaVuSans-4c" d="M 628 4666 
L 1259 4666 
L 1259 531 
L 3531 531 
L 3531 0 
L 628 0 
L 628 4666 
z
" transform="scale(0.015625)"/>
       <path id="DejaVuSans-73" d="M 2834 3397 
L 2834 2853 
Q 2591 2978 2328 3040 
Q 2066 3103 1784 3103 
Q 1356 3103 1142 2972 
Q 928 2841 928 2578 
Q 928 2378 1081 2264 
Q 1234 2150 1697 2047 
L 1894 2003 
Q 2506 1872 2764 1633 
Q 3022 1394 3022 966 
Q 3022 478 2636 193 
Q 2250 -91 1575 -91 
Q 1294 -91 989 -36 
Q 684 19 347 128 
L 347 722 
Q 666 556 975 473 
Q 1284 391 1588 391 
Q 1994 391 2212 530 
Q 2431 669 2431 922 
Q 2431 1156 2273 1281 
Q 2116 1406 1581 1522 
L 1381 1569 
Q 847 1681 609 1914 
Q 372 2147 372 2553 
Q 372 3047 722 3315 
Q 1072 3584 1716 3584 
Q 2034 3584 2315 3537 
Q 2597 3491 2834 3397 
z
" transform="scale(0.015625)"/>
      </defs>
      <use xlink:href="#DejaVuSans-4c"/>
      <use xlink:href="#DejaVuSans-6f" x="53.962891"/>
      <use xlink:href="#DejaVuSans-73" x="115.144531"/>
      <use xlink:href="#DejaVuSans-73" x="167.244141"/>
     </g>
    </g>
   </g>
   <g id="line2d_27">
    <path d="M 73.832727 236.656735 
L 74.555789 235.188706 
L 75.27885 233.074207 
L 76.001911 230.230281 
L 77.448034 223.386214 
L 78.894157 214.419339 
L 79.617218 209.844434 
L 82.509463 186.816041 
L 83.955586 174.332222 
L 84.678647 166.395935 
L 85.401709 160.180635 
L 88.293954 130.10759 
L 89.740077 115.923489 
L 90.463138 108.001033 
L 93.355384 82.804457 
L 94.078445 78.554402 
L 94.801506 72.579107 
L 95.524568 68.825184 
L 96.247629 63.974767 
L 96.97069 61.688079 
L 97.693752 57.996644 
L 98.416813 55.858239 
L 99.139874 54.9591 
L 99.862936 53.568 
L 100.585997 53.879556 
L 101.309059 54.89688 
L 102.03212 55.426269 
L 102.755181 55.24481 
L 103.478243 54.400439 
L 104.201304 58.931063 
L 104.924365 62.019225 
L 106.370488 64.888873 
L 107.093549 67.210677 
L 107.816611 70.811114 
L 109.262733 75.065937 
L 109.985795 75.935886 
L 110.708856 80.338725 
L 111.431917 81.260159 
L 112.154979 84.713386 
L 112.87804 85.841278 
L 113.601101 87.410906 
L 114.324163 89.898045 
L 115.047224 91.12862 
L 115.770285 93.172579 
L 116.493347 94.562276 
L 118.662531 103.072191 
L 119.385592 104.497478 
L 120.108654 106.241401 
L 120.831715 109.615665 
L 123.000899 117.255796 
L 124.447022 124.651527 
L 125.170083 125.742838 
L 125.893144 130.227097 
L 127.339267 133.948981 
L 128.78539 141.557837 
L 129.508451 145.705974 
L 130.231512 147.573161 
L 130.954574 150.162487 
L 131.677635 151.623714 
L 132.400696 156.175147 
L 133.123758 157.605719 
L 133.846819 160.685066 
L 134.569881 162.99599 
L 135.292942 165.797679 
L 136.016003 167.046915 
L 136.739065 170.300083 
L 137.462126 175.177976 
L 138.185187 181.087562 
L 138.908249 183.722439 
L 139.63131 187.375507 
L 140.354371 188.888726 
L 141.077433 192.37779 
L 141.800494 194.054352 
L 142.523555 197.830942 
L 143.246617 200.58322 
L 143.969678 204.0385 
L 144.692739 208.837111 
L 145.415801 209.350243 
L 146.138862 212.016622 
L 146.861923 216.27735 
L 147.584985 219.074032 
L 148.308046 219.858485 
L 149.031108 224.062617 
L 149.754169 225.536458 
L 150.47723 227.785059 
L 151.200292 232.604603 
L 151.923353 234.881733 
L 152.646414 234.990423 
L 153.369476 237.268245 
L 154.092537 236.75211 
L 154.815598 239.343676 
L 155.53866 240.336269 
L 156.261721 239.927233 
L 156.984782 242.583642 
L 157.707844 243.35031 
L 158.430905 243.457998 
L 159.153966 244.674194 
L 159.877028 245.396488 
L 160.600089 245.195036 
L 161.32315 245.750931 
L 162.046212 245.938077 
L 162.769273 246.298858 
L 163.492334 246.127773 
L 164.215396 245.645854 
L 164.938457 245.349874 
L 166.38458 245.667468 
L 167.107641 245.323347 
L 167.830703 245.126943 
L 168.553764 245.077604 
L 169.276825 245.58415 
L 169.999887 244.793659 
L 170.722948 244.550858 
L 171.446009 244.513823 
L 172.169071 244.054778 
L 172.892132 244.202123 
L 173.615193 243.681312 
L 175.061316 243.220285 
L 175.784377 243.031787 
L 176.507439 242.351513 
L 177.2305 242.752848 
L 178.676623 242.379155 
L 179.399684 242.419689 
L 180.845807 241.687764 
L 181.568868 241.703474 
L 183.014991 240.957357 
L 183.738052 239.836411 
L 185.184175 238.373863 
L 185.907236 238.065961 
L 186.630298 237.418934 
L 187.353359 237.316985 
L 188.07642 237.019673 
L 189.522543 237.21389 
L 190.245604 237.662045 
L 191.691727 237.884822 
L 192.414788 238.343671 
L 193.13785 237.994678 
L 193.860911 238.40521 
L 195.307034 237.693651 
L 196.030095 237.868823 
L 197.476218 237.40823 
L 198.199279 236.778823 
L 198.922341 236.671331 
L 200.368463 235.774473 
L 201.091525 235.787602 
L 201.814586 235.316501 
L 202.537647 235.401295 
L 203.260709 234.960149 
L 203.98377 235.163892 
L 204.706831 234.755332 
L 205.429893 234.847041 
L 206.152954 234.757375 
L 206.876015 235.021337 
L 207.599077 234.826656 
L 208.322138 234.450237 
L 209.768261 234.463738 
L 210.491322 234.31915 
L 211.214383 234.019815 
L 211.937445 234.028403 
L 213.383568 233.421889 
L 214.82969 233.508789 
L 215.552752 233.398778 
L 216.275813 233.168869 
L 216.998874 232.658235 
L 217.721936 232.61125 
L 218.444997 232.139107 
L 219.168058 232.218131 
L 219.89112 232.076804 
L 220.614181 232.27102 
L 221.337242 231.613754 
L 222.060304 231.528774 
L 222.783365 231.220955 
L 223.506426 231.462352 
L 225.67561 231.115475 
L 226.398672 231.20542 
L 227.121733 231.182702 
L 227.844794 230.647543 
L 228.567856 230.838023 
L 230.013979 230.488008 
L 230.73704 230.088675 
L 232.183163 229.64789 
L 232.906224 229.962377 
L 234.352347 229.324041 
L 235.075408 229.258136 
L 235.798469 229.030662 
L 236.521531 229.284683 
L 237.244592 228.994381 
L 237.967653 229.451836 
L 238.690715 228.823357 
L 239.413776 228.521091 
L 240.136837 228.449272 
L 240.859899 228.200845 
L 241.58296 227.77804 
L 242.306021 228.241792 
L 243.029083 227.962389 
L 244.475206 227.896587 
L 245.198267 227.593887 
L 245.921328 226.642871 
L 247.367451 227.217851 
L 248.090512 226.877373 
L 248.813574 226.776229 
L 249.536635 226.828375 
L 250.259696 225.940343 
L 250.982758 226.396209 
L 252.42888 225.704457 
L 253.151942 225.786413 
L 253.875003 225.48296 
L 254.598064 225.758492 
L 255.321126 225.417994 
L 256.044187 225.477097 
L 256.767248 224.329438 
L 258.213371 225.689769 
L 258.936432 224.924298 
L 259.659494 224.882639 
L 261.105617 223.873541 
L 261.828678 224.082704 
L 262.551739 224.137564 
L 263.274801 222.542917 
L 263.997862 223.044415 
L 264.720923 223.285803 
L 266.167046 223.179229 
L 266.890107 222.410043 
L 267.613169 222.582914 
L 268.33623 222.945222 
L 269.059291 222.763258 
L 269.782353 223.020314 
L 270.505414 221.436421 
L 271.951537 222.063734 
L 273.397659 221.173564 
L 274.120721 221.384327 
L 274.843782 220.87841 
L 275.566843 219.871418 
L 276.289905 220.316745 
L 277.012966 220.899591 
L 277.736028 221.195364 
L 278.459089 220.142759 
L 279.18215 219.432449 
L 279.905212 219.410856 
L 280.628273 219.798122 
L 281.351334 220.026163 
L 282.074396 218.802463 
L 282.797457 218.401964 
L 284.24358 218.356052 
L 284.966641 218.135319 
L 285.689702 217.784561 
L 286.412764 218.265612 
L 287.135825 217.741085 
L 287.858886 217.540665 
L 288.581948 217.802118 
L 289.305009 216.291222 
L 290.02807 215.94899 
L 290.751132 216.860577 
L 291.474193 216.562099 
L 292.197255 216.873036 
L 292.920316 216.661726 
L 293.643377 215.494693 
L 294.366439 215.542359 
L 295.0895 215.705569 
L 296.535623 213.458909 
L 297.981745 215.452931 
L 298.704807 214.296674 
L 299.427868 214.993514 
L 300.150929 213.421884 
L 300.873991 214.730399 
L 301.597052 213.507401 
L 302.320113 212.967628 
L 303.043175 212.255893 
L 303.766236 212.223937 
L 304.489297 211.881529 
L 305.212359 212.439902 
L 305.93542 212.707847 
L 306.658481 212.670368 
L 307.381543 211.397454 
L 308.104604 211.154301 
L 308.827666 212.87724 
L 309.550727 210.856267 
L 310.273788 210.418805 
L 310.99685 208.416464 
L 311.719911 210.767241 
L 312.442972 210.405418 
L 313.166034 210.223629 
L 313.889095 209.852248 
L 314.612156 208.697116 
L 315.335218 208.76587 
L 316.058279 210.363996 
L 316.78134 208.115509 
L 317.504402 208.632212 
L 318.227463 207.760869 
L 318.950524 208.082159 
L 319.673586 206.980628 
L 320.396647 207.657455 
L 321.119708 207.252218 
L 321.84277 207.173173 
L 322.565831 207.613824 
L 323.288892 205.585244 
L 324.011954 206.538212 
L 324.735015 205.713328 
L 325.458077 205.425647 
L 326.181138 205.9648 
L 327.627261 204.370318 
L 328.350322 204.456681 
L 329.073383 204.391777 
L 329.796445 205.7076 
L 331.242567 203.193468 
L 331.965629 202.964901 
L 332.68869 201.941806 
L 333.411751 203.339967 
L 334.134813 203.132218 
L 334.857874 202.374551 
L 335.580935 202.084558 
L 336.303997 202.209607 
L 337.027058 201.336511 
L 337.750119 201.937543 
L 338.473181 201.39166 
L 339.196242 202.052188 
L 339.919304 200.083021 
L 340.642365 199.3791 
L 341.365426 200.962724 
L 342.088488 199.164178 
L 342.811549 199.423505 
L 343.53461 198.555383 
L 344.257672 200.525201 
L 344.980733 197.778125 
L 345.703794 199.43424 
L 346.426856 197.066452 
L 347.149917 198.660016 
L 347.872978 197.142731 
L 348.59604 198.649188 
L 349.319101 197.939198 
L 350.042162 196.789371 
L 350.765224 194.838825 
L 351.488285 197.366344 
L 352.211346 196.859488 
L 352.934408 195.359399 
L 353.657469 197.487223 
L 354.38053 194.906991 
L 355.103592 194.86465 
L 355.826653 195.406838 
L 356.549715 195.167319 
L 357.995837 192.597161 
L 358.718899 194.431173 
L 360.165021 193.359411 
L 360.888083 193.594337 
L 361.611144 190.781304 
L 362.334205 191.283608 
L 363.057267 195.057401 
L 363.780328 191.18008 
L 364.503389 192.585755 
L 365.226451 190.173418 
L 365.949512 192.290683 
L 368.118696 189.889102 
L 368.841757 187.243583 
L 369.564819 188.569295 
L 370.28788 192.953389 
L 371.010941 191.162822 
L 371.734003 188.862807 
L 372.457064 185.860234 
L 373.180126 188.737324 
L 373.903187 188.833628 
L 374.626248 189.308465 
L 375.34931 188.360731 
L 376.072371 184.024333 
L 376.795432 186.353104 
L 377.518494 187.515379 
L 378.241555 187.681695 
L 378.964616 188.021368 
L 379.687678 184.086801 
L 380.410739 184.973255 
L 381.1338 187.378531 
L 381.856862 185.369006 
L 382.579923 183.837518 
L 383.302984 182.98846 
L 384.026046 185.800285 
L 384.749107 184.927694 
L 385.472168 184.554176 
L 386.19523 185.012179 
L 386.918291 182.915681 
L 387.641353 181.989282 
L 388.364414 183.267719 
L 389.087475 183.623886 
L 389.810537 181.450273 
L 390.533598 180.109998 
L 391.256659 180.622809 
L 391.979721 183.723316 
L 392.702782 184.753471 
L 393.425843 182.195079 
L 394.148905 177.599324 
L 394.871966 177.862594 
L 395.595027 180.766263 
L 396.318089 179.471486 
L 397.04115 178.424393 
L 397.764211 179.911219 
L 398.487273 180.127524 
L 398.487273 180.127524 
" clip-path="url(#p5b6c128c45)" style="fill: none; stroke: #6495ed; stroke-width: 2; stroke-linecap: square"/>
   </g>
   <g id="line2d_28">
    <path d="M 73.832727 234.412551 
L 74.555789 234.751788 
L 75.27885 235.457534 
L 76.001911 236.502993 
L 78.171095 240.686751 
L 81.786402 249.689962 
L 86.847832 263.154096 
L 87.570893 265.354431 
L 88.293954 266.667276 
L 89.017016 268.548285 
L 89.740077 270.086095 
L 91.1862 274.129845 
L 91.909261 274.883699 
L 92.632322 276.770991 
L 93.355384 277.958836 
L 94.078445 279.366617 
L 94.801506 281.462514 
L 95.524568 281.736363 
L 96.247629 283.403333 
L 96.97069 284.046309 
L 97.693752 285.424842 
L 98.416813 287.121034 
L 99.139874 286.947851 
L 99.862936 288.291438 
L 100.585997 288.583591 
L 101.309059 289.396388 
L 102.03212 290.867498 
L 102.755181 290.465356 
L 103.478243 291.822123 
L 104.201304 291.48573 
L 104.924365 291.970552 
L 105.647427 293.351461 
L 106.370488 292.462165 
L 107.093549 293.470023 
L 107.816611 292.971171 
L 108.539672 293.439885 
L 109.262733 294.76448 
L 109.985795 293.484485 
L 110.708856 294.163293 
L 111.431917 293.738552 
L 112.154979 293.823585 
L 112.87804 295.428485 
L 113.601101 293.373883 
L 114.324163 294.364273 
L 115.047224 293.483647 
L 115.770285 293.674348 
L 116.493347 295.488 
L 117.216408 292.341601 
L 117.93947 293.436715 
L 118.662531 292.064533 
L 119.385592 292.275946 
L 120.108654 294.293428 
L 120.831715 290.322612 
L 121.554776 291.650457 
L 122.277838 290.012987 
L 123.000899 289.855766 
L 123.72396 291.9302 
L 124.447022 286.821611 
L 125.170083 288.727674 
L 125.893144 286.132077 
L 126.616206 285.895256 
L 127.339267 288.552643 
L 128.062328 282.448907 
L 128.78539 283.792431 
L 129.508451 280.731069 
L 130.231512 280.233104 
L 130.954574 283.047461 
L 131.677635 276.030728 
L 132.400696 277.381136 
L 133.123758 274.422339 
L 133.846819 273.601587 
L 134.569881 277.104228 
L 135.292942 268.498153 
L 136.016003 271.185732 
L 136.739065 267.400167 
L 137.462126 266.141845 
L 138.185187 268.987066 
L 138.908249 259.202674 
L 139.63131 261.383062 
L 140.354371 257.433211 
L 141.077433 256.304054 
L 141.800494 260.373978 
L 142.523555 249.002446 
L 143.246617 251.551978 
L 143.969678 246.510571 
L 144.692739 244.725875 
L 145.415801 249.445846 
L 146.138862 237.415948 
L 146.861923 239.443502 
L 147.584985 234.44072 
L 148.308046 234.59972 
L 149.031108 237.747843 
L 149.754169 226.348682 
L 150.47723 229.687146 
L 151.200292 223.652385 
L 151.923353 223.400525 
L 152.646414 228.251468 
L 153.369476 216.549434 
L 154.092537 221.356672 
L 154.815598 216.465764 
L 155.53866 217.135587 
L 156.261721 222.661853 
L 156.984782 211.952266 
L 157.707844 216.729206 
L 158.430905 213.795574 
L 159.153966 214.916041 
L 159.877028 219.592586 
L 160.600089 211.76571 
L 161.32315 216.676564 
L 162.046212 213.976685 
L 162.769273 215.377192 
L 163.492334 220.001997 
L 164.215396 213.457048 
L 164.938457 218.67616 
L 165.661519 216.204877 
L 166.38458 217.626808 
L 167.107641 221.869804 
L 167.830703 216.355125 
L 168.553764 221.116427 
L 169.276825 218.674836 
L 169.999887 220.446886 
L 170.722948 224.002136 
L 171.446009 219.303658 
L 172.169071 223.813607 
L 172.892132 221.681214 
L 173.615193 223.055361 
L 174.338255 225.983412 
L 175.061316 222.127902 
L 175.784377 226.056115 
L 176.507439 224.505913 
L 177.2305 225.186239 
L 177.953561 227.54435 
L 178.676623 224.397012 
L 179.399684 227.823493 
L 180.122745 226.170431 
L 180.845807 227.118674 
L 181.568868 228.777632 
L 182.29193 226.406334 
L 183.014991 229.668701 
L 183.738052 228.124913 
L 184.461114 228.742244 
L 185.184175 230.05423 
L 185.907236 228.033832 
L 186.630298 231.124601 
L 187.353359 229.568644 
L 188.799482 231.188144 
L 189.522543 229.871217 
L 190.245604 232.434714 
L 190.968666 231.050938 
L 191.691727 231.673397 
L 192.414788 231.942558 
L 193.13785 231.245109 
L 193.860911 233.478529 
L 194.583972 232.242526 
L 195.307034 232.841429 
L 196.030095 232.739881 
L 196.753157 232.13325 
L 197.476218 234.369911 
L 198.199279 233.23152 
L 198.922341 233.541821 
L 200.368463 233.255761 
L 201.091525 235.245928 
L 201.814586 234.119942 
L 202.537647 234.394149 
L 203.260709 234.128566 
L 203.98377 233.99394 
L 204.706831 236.170768 
L 205.429893 234.896143 
L 206.152954 235.290787 
L 206.876015 234.476353 
L 207.599077 234.809036 
L 208.322138 236.850332 
L 209.045199 235.613687 
L 209.768261 235.917296 
L 210.491322 235.078334 
L 211.214383 235.634891 
L 211.937445 237.354158 
L 212.660506 236.305145 
L 213.383568 236.685006 
L 214.106629 235.542457 
L 214.82969 236.149153 
L 215.552752 237.840471 
L 216.275813 236.75078 
L 216.998874 237.223547 
L 217.721936 235.954473 
L 218.444997 237.027655 
L 219.168058 238.579625 
L 219.89112 237.509714 
L 220.614181 237.647909 
L 221.337242 236.523806 
L 222.060304 237.630471 
L 222.783365 239.327007 
L 223.506426 238.122701 
L 224.229488 238.415719 
L 224.952549 236.8769 
L 226.398672 239.622773 
L 227.121733 238.535206 
L 227.844794 239.011324 
L 228.567856 237.165836 
L 230.013979 240.118982 
L 230.73704 239.224113 
L 231.460101 239.526509 
L 232.183163 237.750752 
L 233.629285 240.717753 
L 234.352347 239.814629 
L 235.075408 240.079859 
L 235.798469 238.155122 
L 237.244592 241.314426 
L 237.967653 240.050617 
L 238.690715 240.551719 
L 239.413776 238.494842 
L 240.136837 240.466624 
L 240.859899 241.875092 
L 241.58296 241.04299 
L 242.306021 241.034157 
L 243.029083 238.822006 
L 243.752144 240.940886 
L 244.475206 242.195862 
L 245.198267 241.282427 
L 245.921328 241.930935 
L 246.64439 239.287457 
L 247.367451 241.460131 
L 248.090512 242.820605 
L 248.813574 241.853604 
L 249.536635 242.033602 
L 250.259696 239.809433 
L 250.982758 242.061633 
L 251.705819 243.399516 
L 252.42888 242.57995 
L 253.151942 242.750371 
L 253.875003 240.124642 
L 254.598064 242.618681 
L 255.321126 243.921326 
L 256.044187 242.913866 
L 256.767248 243.64463 
L 257.49031 240.44058 
L 258.213371 242.8879 
L 258.936432 244.319549 
L 259.659494 243.337213 
L 260.382555 243.761973 
L 261.105617 240.867627 
L 261.828678 243.733581 
L 262.551739 244.767816 
L 263.274801 244.566429 
L 263.997862 244.584858 
L 264.720923 241.300963 
L 265.443985 244.512637 
L 266.167046 245.594197 
L 266.890107 245.044718 
L 267.613169 245.211087 
L 268.33623 241.707048 
L 269.059291 245.042117 
L 269.782353 245.886028 
L 270.505414 245.627507 
L 271.228475 245.648285 
L 271.951537 242.003467 
L 272.674598 245.609151 
L 273.397659 246.776924 
L 274.120721 245.760185 
L 274.843782 246.176131 
L 275.566843 242.971515 
L 276.289905 246.482687 
L 277.012966 247.218191 
L 277.736028 246.1314 
L 278.459089 246.777688 
L 279.18215 243.330654 
L 279.905212 247.153603 
L 280.628273 247.890977 
L 281.351334 246.86562 
L 282.074396 247.527325 
L 282.797457 243.772685 
L 283.520518 247.76551 
L 284.24358 248.641962 
L 284.966641 247.903342 
L 285.689702 248.258658 
L 286.412764 244.045932 
L 287.135825 248.350719 
L 287.858886 249.276816 
L 288.581948 248.265643 
L 289.305009 249.02708 
L 290.02807 245.004097 
L 290.751132 248.946279 
L 291.474193 249.835146 
L 292.197255 248.822628 
L 292.920316 248.995556 
L 293.643377 245.252553 
L 294.366439 249.559263 
L 295.0895 250.282643 
L 295.812561 249.823422 
L 296.535623 250.540394 
L 297.258684 245.869787 
L 297.981745 250.025324 
L 298.704807 251.33033 
L 299.427868 250.166303 
L 300.150929 251.000153 
L 300.873991 245.847409 
L 301.597052 250.946186 
L 302.320113 251.895432 
L 303.043175 251.258498 
L 303.766236 251.513814 
L 304.489297 247.079602 
L 305.212359 251.672318 
L 305.93542 252.287865 
L 306.658481 251.460829 
L 307.381543 252.119735 
L 308.104604 247.459685 
L 308.827666 251.617332 
L 309.550727 253.018639 
L 310.273788 252.353392 
L 310.99685 253.357377 
L 311.719911 247.626022 
L 312.442972 252.938742 
L 313.166034 253.751477 
L 313.889095 253.054478 
L 314.612156 253.667012 
L 315.335218 248.764895 
L 316.058279 253.267882 
L 316.78134 254.728097 
L 317.504402 253.661707 
L 318.227463 254.113711 
L 318.950524 248.99095 
L 319.673586 254.677873 
L 320.396647 255.039454 
L 321.119708 254.32665 
L 321.84277 254.468429 
L 322.565831 249.205678 
L 323.288892 255.40179 
L 324.011954 255.592234 
L 324.735015 255.215238 
L 325.458077 255.429955 
L 326.181138 250.074259 
L 326.904199 255.811858 
L 327.627261 256.786188 
L 328.350322 255.92204 
L 329.073383 256.092706 
L 329.796445 250.156107 
L 330.519506 256.15567 
L 331.242567 257.164609 
L 331.965629 256.305284 
L 332.68869 256.973021 
L 333.411751 251.187605 
L 334.134813 256.915542 
L 334.857874 257.759412 
L 335.580935 257.194515 
L 336.303997 257.209592 
L 337.027058 252.210546 
L 337.750119 257.725239 
L 338.473181 258.468734 
L 339.196242 257.264981 
L 339.919304 258.022699 
L 340.642365 252.931455 
L 341.365426 258.205195 
L 342.088488 259.29809 
L 342.811549 258.597295 
L 343.53461 258.880864 
L 344.257672 252.935997 
L 344.980733 259.739427 
L 345.703794 259.426831 
L 346.426856 259.734328 
L 347.149917 258.973051 
L 347.872978 254.076554 
L 348.59604 259.248085 
L 349.319101 259.975849 
L 350.042162 259.51454 
L 350.765224 260.412079 
L 351.488285 254.285726 
L 352.211346 260.164687 
L 352.934408 261.467962 
L 353.657469 259.848549 
L 354.38053 260.902022 
L 355.103592 255.408181 
L 355.826653 261.071296 
L 356.549715 261.44629 
L 357.272776 261.221691 
L 357.995837 261.607047 
L 358.718899 255.619929 
L 359.44196 261.620845 
L 360.165021 262.15976 
L 360.888083 261.422393 
L 361.611144 262.512023 
L 362.334205 256.903165 
L 363.057267 261.496279 
L 363.780328 263.362569 
L 364.503389 262.089846 
L 365.226451 262.999697 
L 365.949512 256.584962 
L 366.672573 262.430161 
L 367.395635 263.331164 
L 368.118696 262.751535 
L 368.841757 263.774804 
L 369.564819 258.191409 
L 370.28788 262.811634 
L 371.010941 263.519855 
L 371.734003 263.838191 
L 372.457064 264.996005 
L 373.180126 258.263287 
L 373.903187 264.236086 
L 374.626248 264.604861 
L 375.34931 263.806569 
L 376.072371 265.254217 
L 376.795432 259.463233 
L 377.518494 264.855872 
L 378.241555 265.210781 
L 378.964616 264.533822 
L 379.687678 265.426584 
L 380.410739 259.87443 
L 381.1338 264.889387 
L 381.856862 265.702898 
L 382.579923 265.780686 
L 383.302984 266.248963 
L 384.026046 259.807538 
L 384.749107 265.908241 
L 385.472168 266.294236 
L 386.19523 265.788112 
L 386.918291 265.845513 
L 387.641353 260.824046 
L 388.364414 265.945999 
L 390.533598 267.501574 
L 391.256659 262.729385 
L 391.979721 267.486136 
L 392.702782 266.99637 
L 393.425843 267.039079 
L 394.148905 268.148395 
L 394.871966 262.374293 
L 395.595027 267.303449 
L 396.318089 268.234279 
L 397.04115 268.869835 
L 397.764211 268.02729 
L 398.487273 262.983878 
L 398.487273 262.983878 
" clip-path="url(#p5b6c128c45)" style="fill: none; stroke: #dc143c; stroke-width: 2; stroke-linecap: square"/>
   </g>
   <g id="line2d_29">
    <path d="M 73.832727 264.23446 
L 76.724973 264.23446 
L 77.448034 229.436917 
L 80.340279 229.436917 
L 81.063341 226.801614 
L 83.955586 226.801614 
L 84.678647 226.045409 
L 87.570893 226.045409 
L 88.293954 225.119292 
L 91.1862 225.119292 
L 91.909261 223.937301 
L 94.801506 223.937301 
L 95.524568 222.750609 
L 98.416813 222.750609 
L 99.139874 221.694876 
L 102.03212 221.694876 
L 102.755181 220.991054 
L 105.647427 220.991054 
L 106.370488 220.432967 
L 109.262733 220.432967 
L 109.985795 219.787573 
L 112.87804 219.787573 
L 113.601101 219.416186 
L 116.493347 219.416186 
L 117.216408 219.250304 
L 123.72396 219.162998 
L 124.447022 218.997788 
L 145.415801 219.056887 
L 146.138862 218.694231 
L 149.031108 218.694231 
L 149.754169 218.010557 
L 152.646414 218.010557 
L 153.369476 217.011237 
L 156.261721 217.011237 
L 156.984782 215.74194 
L 159.877028 215.74194 
L 160.600089 213.998504 
L 163.492334 213.998504 
L 164.215396 212.276558 
L 167.107641 212.276558 
L 167.830703 210.663409 
L 170.722948 210.663409 
L 171.446009 209.055633 
L 174.338255 209.055633 
L 175.061316 207.732609 
L 177.953561 207.732609 
L 178.676623 206.753437 
L 181.568868 206.753437 
L 182.29193 206.194677 
L 188.799482 206.236316 
L 189.522543 207.003267 
L 192.414788 207.003267 
L 193.13785 208.05094 
L 196.030095 208.05094 
L 196.753157 208.938777 
L 199.645402 208.938777 
L 200.368463 210.158376 
L 203.260709 210.158376 
L 203.98377 211.059645 
L 206.876015 211.059645 
L 207.599077 212.038817 
L 210.491322 212.038817 
L 211.214383 213.102608 
L 214.106629 213.102608 
L 214.82969 214.19595 
L 217.721936 214.19595 
L 218.444997 215.376598 
L 221.337242 215.376598 
L 222.060304 216.87692 
L 224.952549 216.87692 
L 225.67561 219.115987 
L 228.567856 219.115987 
L 229.290917 221.551157 
L 232.183163 221.551157 
L 232.906224 224.319433 
L 235.798469 224.319433 
L 236.521531 227.192477 
L 239.413776 227.192477 
L 240.136837 230.175661 
L 243.029083 230.175661 
L 243.752144 233.110491 
L 246.64439 233.110491 
L 247.367451 235.796834 
L 250.259696 235.796834 
L 250.982758 238.422734 
L 253.875003 238.422734 
L 254.598064 241.062066 
L 257.49031 241.062066 
L 258.213371 243.718859 
L 261.105617 243.718859 
L 261.828678 245.905542 
L 264.720923 245.905542 
L 265.443985 248.121775 
L 268.33623 248.121775 
L 269.059291 250.108326 
L 271.951537 250.108326 
L 272.674598 251.886685 
L 275.566843 251.886685 
L 276.289905 253.640867 
L 279.18215 253.640867 
L 279.905212 255.22178 
L 282.797457 255.22178 
L 283.520518 257.186839 
L 286.412764 257.186839 
L 287.135825 258.906099 
L 290.02807 258.906099 
L 290.751132 260.534023 
L 293.643377 260.534023 
L 294.366439 262.136426 
L 297.258684 262.136426 
L 297.981745 263.587052 
L 300.873991 263.587052 
L 301.597052 264.993352 
L 304.489297 264.993352 
L 305.212359 266.226383 
L 308.104604 266.226383 
L 308.827666 267.439267 
L 311.719911 267.439267 
L 312.442972 268.580963 
L 315.335218 268.580963 
L 316.058279 269.68908 
L 318.950524 269.68908 
L 319.673586 270.610495 
L 322.565831 270.610495 
L 323.288892 271.647424 
L 326.181138 271.647424 
L 326.904199 272.668234 
L 329.796445 272.668234 
L 330.519506 273.592336 
L 333.411751 273.592336 
L 334.134813 274.587626 
L 337.027058 274.587626 
L 337.750119 275.556053 
L 340.642365 275.556053 
L 341.365426 276.498959 
L 344.257672 276.498959 
L 344.980733 277.498278 
L 347.872978 277.498278 
L 348.59604 278.626543 
L 351.488285 278.626543 
L 352.211346 279.472741 
L 355.103592 279.472741 
L 355.826653 280.322968 
L 358.718899 280.322968 
L 359.44196 281.069771 
L 362.334205 281.069771 
L 363.057267 281.864929 
L 365.949512 281.864929 
L 366.672573 282.63188 
L 369.564819 282.63188 
L 370.28788 283.390772 
L 373.180126 283.390772 
L 373.903187 284.157723 
L 376.795432 284.157723 
L 377.518494 284.907212 
L 380.410739 284.907212 
L 381.1338 285.553278 
L 384.026046 285.553278 
L 384.749107 286.263816 
L 387.641353 286.263816 
L 388.364414 286.798398 
L 391.256659 286.798398 
L 391.979721 287.508936 
L 394.871966 287.508936 
L 395.595027 288.001879 
L 398.487273 288.001879 
L 398.487273 288.001879 
" clip-path="url(#p5b6c128c45)" style="fill: none; stroke: #ffff00; stroke-width: 3; stroke-linecap: square"/>
   </g>
   <g id="patch_3">
    <path d="M 57.6 307.584 
L 57.6 41.472 
" style="fill: none; stroke: #ffffff; stroke-linejoin: miter; stroke-linecap: square"/>
   </g>
   <g id="patch_4">
    <path d="M 414.72 307.584 
L 414.72 41.472 
" style="fill: none; stroke: #ffffff; stroke-linejoin: miter; stroke-linecap: square"/>
   </g>
   <g id="patch_5">
    <path d="M 57.6 307.584 
L 414.72 307.584 
" style="fill: none; stroke: #ffffff; stroke-linejoin: miter; stroke-linecap: square"/>
   </g>
   <g id="patch_6">
    <path d="M 57.6 41.472 
L 414.72 41.472 
" style="fill: none; stroke: #ffffff; stroke-linejoin: miter; stroke-linecap: square"/>
   </g>
   <g id="legend_1">
    <g id="patch_7">
     <path d="M 243.124687 302.584 
L 407.72 302.584 
Q 409.72 302.584 409.72 300.584 
L 409.72 257.549625 
Q 409.72 255.549625 407.72 255.549625 
L 243.124687 255.549625 
Q 241.124687 255.549625 241.124687 257.549625 
L 241.124687 300.584 
Q 241.124687 302.584 243.124687 302.584 
z
" style="fill: #e5e5e5; opacity: 0.8; stroke: #cccccc; stroke-width: 0.5; stroke-linejoin: miter"/>
    </g>
    <g id="line2d_30">
     <path d="M 245.124687 263.648062 
L 255.124687 263.648062 
L 265.124687 263.648062 
" style="fill: none; stroke: #6495ed; stroke-width: 2; stroke-linecap: square"/>
    </g>
    <g id="text_16">
     <!-- Generator loss -->
     <g transform="translate(273.124687 267.148062) scale(0.1 -0.1)">
      <defs>
       <path id="DejaVuSans-47" d="M 3809 666 
L 3809 1919 
L 2778 1919 
L 2778 2438 
L 4434 2438 
L 4434 434 
Q 4069 175 3628 42 
Q 3188 -91 2688 -91 
Q 1594 -91 976 548 
Q 359 1188 359 2328 
Q 359 3472 976 4111 
Q 1594 4750 2688 4750 
Q 3144 4750 3555 4637 
Q 3966 4525 4313 4306 
L 4313 3634 
Q 3963 3931 3569 4081 
Q 3175 4231 2741 4231 
Q 1884 4231 1454 3753 
Q 1025 3275 1025 2328 
Q 1025 1384 1454 906 
Q 1884 428 2741 428 
Q 3075 428 3337 486 
Q 3600 544 3809 666 
z
" transform="scale(0.015625)"/>
       <path id="DejaVuSans-65" d="M 3597 1894 
L 3597 1613 
L 953 1613 
Q 991 1019 1311 708 
Q 1631 397 2203 397 
Q 2534 397 2845 478 
Q 3156 559 3463 722 
L 3463 178 
Q 3153 47 2828 -22 
Q 2503 -91 2169 -91 
Q 1331 -91 842 396 
Q 353 884 353 1716 
Q 353 2575 817 3079 
Q 1281 3584 2069 3584 
Q 2775 3584 3186 3129 
Q 3597 2675 3597 1894 
z
M 3022 2063 
Q 3016 2534 2758 2815 
Q 2500 3097 2075 3097 
Q 1594 3097 1305 2825 
Q 1016 2553 972 2059 
L 3022 2063 
z
" transform="scale(0.015625)"/>
       <path id="DejaVuSans-6e" d="M 3513 2113 
L 3513 0 
L 2938 0 
L 2938 2094 
Q 2938 2591 2744 2837 
Q 2550 3084 2163 3084 
Q 1697 3084 1428 2787 
Q 1159 2491 1159 1978 
L 1159 0 
L 581 0 
L 581 3500 
L 1159 3500 
L 1159 2956 
Q 1366 3272 1645 3428 
Q 1925 3584 2291 3584 
Q 2894 3584 3203 3211 
Q 3513 2838 3513 2113 
z
" transform="scale(0.015625)"/>
       <path id="DejaVuSans-72" d="M 2631 2963 
Q 2534 3019 2420 3045 
Q 2306 3072 2169 3072 
Q 1681 3072 1420 2755 
Q 1159 2438 1159 1844 
L 1159 0 
L 581 0 
L 581 3500 
L 1159 3500 
L 1159 2956 
Q 1341 3275 1631 3429 
Q 1922 3584 2338 3584 
Q 2397 3584 2469 3576 
Q 2541 3569 2628 3553 
L 2631 2963 
z
" transform="scale(0.015625)"/>
       <path id="DejaVuSans-61" d="M 2194 1759 
Q 1497 1759 1228 1600 
Q 959 1441 959 1056 
Q 959 750 1161 570 
Q 1363 391 1709 391 
Q 2188 391 2477 730 
Q 2766 1069 2766 1631 
L 2766 1759 
L 2194 1759 
z
M 3341 1997 
L 3341 0 
L 2766 0 
L 2766 531 
Q 2569 213 2275 61 
Q 1981 -91 1556 -91 
Q 1019 -91 701 211 
Q 384 513 384 1019 
Q 384 1609 779 1909 
Q 1175 2209 1959 2209 
L 2766 2209 
L 2766 2266 
Q 2766 2663 2505 2880 
Q 2244 3097 1772 3097 
Q 1472 3097 1187 3025 
Q 903 2953 641 2809 
L 641 3341 
Q 956 3463 1253 3523 
Q 1550 3584 1831 3584 
Q 2591 3584 2966 3190 
Q 3341 2797 3341 1997 
z
" transform="scale(0.015625)"/>
       <path id="DejaVuSans-74" d="M 1172 4494 
L 1172 3500 
L 2356 3500 
L 2356 3053 
L 1172 3053 
L 1172 1153 
Q 1172 725 1289 603 
Q 1406 481 1766 481 
L 2356 481 
L 2356 0 
L 1766 0 
Q 1100 0 847 248 
Q 594 497 594 1153 
L 594 3053 
L 172 3053 
L 172 3500 
L 594 3500 
L 594 4494 
L 1172 4494 
z
" transform="scale(0.015625)"/>
       <path id="DejaVuSans-20" transform="scale(0.015625)"/>
       <path id="DejaVuSans-6c" d="M 603 4863 
L 1178 4863 
L 1178 0 
L 603 0 
L 603 4863 
z
" transform="scale(0.015625)"/>
      </defs>
      <use xlink:href="#DejaVuSans-47"/>
      <use xlink:href="#DejaVuSans-65" x="77.490234"/>
      <use xlink:href="#DejaVuSans-6e" x="139.013672"/>
      <use xlink:href="#DejaVuSans-65" x="202.392578"/>
      <use xlink:href="#DejaVuSans-72" x="263.916016"/>
      <use xlink:href="#DejaVuSans-61" x="305.029297"/>
      <use xlink:href="#DejaVuSans-74" x="366.308594"/>
      <use xlink:href="#DejaVuSans-6f" x="405.517578"/>
      <use xlink:href="#DejaVuSans-72" x="466.699219"/>
      <use xlink:href="#DejaVuSans-20" x="507.8125"/>
      <use xlink:href="#DejaVuSans-6c" x="539.599609"/>
      <use xlink:href="#DejaVuSans-6f" x="567.382812"/>
      <use xlink:href="#DejaVuSans-73" x="628.564453"/>
      <use xlink:href="#DejaVuSans-73" x="680.664062"/>
     </g>
    </g>
    <g id="line2d_31">
     <path d="M 245.124687 278.326188 
L 255.124687 278.326188 
L 265.124687 278.326188 
" style="fill: none; stroke: #dc143c; stroke-width: 2; stroke-linecap: square"/>
    </g>
    <g id="text_17">
     <!-- Average discriminator loss -->
     <g transform="translate(273.124687 281.826188) scale(0.1 -0.1)">
      <defs>
       <path id="DejaVuSans-41" d="M 2188 4044 
L 1331 1722 
L 3047 1722 
L 2188 4044 
z
M 1831 4666 
L 2547 4666 
L 4325 0 
L 3669 0 
L 3244 1197 
L 1141 1197 
L 716 0 
L 50 0 
L 1831 4666 
z
" transform="scale(0.015625)"/>
       <path id="DejaVuSans-76" d="M 191 3500 
L 800 3500 
L 1894 563 
L 2988 3500 
L 3597 3500 
L 2284 0 
L 1503 0 
L 191 3500 
z
" transform="scale(0.015625)"/>
       <path id="DejaVuSans-67" d="M 2906 1791 
Q 2906 2416 2648 2759 
Q 2391 3103 1925 3103 
Q 1463 3103 1205 2759 
Q 947 2416 947 1791 
Q 947 1169 1205 825 
Q 1463 481 1925 481 
Q 2391 481 2648 825 
Q 2906 1169 2906 1791 
z
M 3481 434 
Q 3481 -459 3084 -895 
Q 2688 -1331 1869 -1331 
Q 1566 -1331 1297 -1286 
Q 1028 -1241 775 -1147 
L 775 -588 
Q 1028 -725 1275 -790 
Q 1522 -856 1778 -856 
Q 2344 -856 2625 -561 
Q 2906 -266 2906 331 
L 2906 616 
Q 2728 306 2450 153 
Q 2172 0 1784 0 
Q 1141 0 747 490 
Q 353 981 353 1791 
Q 353 2603 747 3093 
Q 1141 3584 1784 3584 
Q 2172 3584 2450 3431 
Q 2728 3278 2906 2969 
L 2906 3500 
L 3481 3500 
L 3481 434 
z
" transform="scale(0.015625)"/>
       <path id="DejaVuSans-64" d="M 2906 2969 
L 2906 4863 
L 3481 4863 
L 3481 0 
L 2906 0 
L 2906 525 
Q 2725 213 2448 61 
Q 2172 -91 1784 -91 
Q 1150 -91 751 415 
Q 353 922 353 1747 
Q 353 2572 751 3078 
Q 1150 3584 1784 3584 
Q 2172 3584 2448 3432 
Q 2725 3281 2906 2969 
z
M 947 1747 
Q 947 1113 1208 752 
Q 1469 391 1925 391 
Q 2381 391 2643 752 
Q 2906 1113 2906 1747 
Q 2906 2381 2643 2742 
Q 2381 3103 1925 3103 
Q 1469 3103 1208 2742 
Q 947 2381 947 1747 
z
" transform="scale(0.015625)"/>
       <path id="DejaVuSans-69" d="M 603 3500 
L 1178 3500 
L 1178 0 
L 603 0 
L 603 3500 
z
M 603 4863 
L 1178 4863 
L 1178 4134 
L 603 4134 
L 603 4863 
z
" transform="scale(0.015625)"/>
       <path id="DejaVuSans-6d" d="M 3328 2828 
Q 3544 3216 3844 3400 
Q 4144 3584 4550 3584 
Q 5097 3584 5394 3201 
Q 5691 2819 5691 2113 
L 5691 0 
L 5113 0 
L 5113 2094 
Q 5113 2597 4934 2840 
Q 4756 3084 4391 3084 
Q 3944 3084 3684 2787 
Q 3425 2491 3425 1978 
L 3425 0 
L 2847 0 
L 2847 2094 
Q 2847 2600 2669 2842 
Q 2491 3084 2119 3084 
Q 1678 3084 1418 2786 
Q 1159 2488 1159 1978 
L 1159 0 
L 581 0 
L 581 3500 
L 1159 3500 
L 1159 2956 
Q 1356 3278 1631 3431 
Q 1906 3584 2284 3584 
Q 2666 3584 2933 3390 
Q 3200 3197 3328 2828 
z
" transform="scale(0.015625)"/>
      </defs>
      <use xlink:href="#DejaVuSans-41"/>
      <use xlink:href="#DejaVuSans-76" x="62.533203"/>
      <use xlink:href="#DejaVuSans-65" x="121.712891"/>
      <use xlink:href="#DejaVuSans-72" x="183.236328"/>
      <use xlink:href="#DejaVuSans-61" x="224.349609"/>
      <use xlink:href="#DejaVuSans-67" x="285.628906"/>
      <use xlink:href="#DejaVuSans-65" x="349.105469"/>
      <use xlink:href="#DejaVuSans-20" x="410.628906"/>
      <use xlink:href="#DejaVuSans-64" x="442.416016"/>
      <use xlink:href="#DejaVuSans-69" x="505.892578"/>
      <use xlink:href="#DejaVuSans-73" x="533.675781"/>
      <use xlink:href="#DejaVuSans-63" x="585.775391"/>
      <use xlink:href="#DejaVuSans-72" x="640.755859"/>
      <use xlink:href="#DejaVuSans-69" x="681.869141"/>
      <use xlink:href="#DejaVuSans-6d" x="709.652344"/>
      <use xlink:href="#DejaVuSans-69" x="807.064453"/>
      <use xlink:href="#DejaVuSans-6e" x="834.847656"/>
      <use xlink:href="#DejaVuSans-61" x="898.226562"/>
      <use xlink:href="#DejaVuSans-74" x="959.505859"/>
      <use xlink:href="#DejaVuSans-6f" x="998.714844"/>
      <use xlink:href="#DejaVuSans-72" x="1059.896484"/>
      <use xlink:href="#DejaVuSans-20" x="1101.009766"/>
      <use xlink:href="#DejaVuSans-6c" x="1132.796875"/>
      <use xlink:href="#DejaVuSans-6f" x="1160.580078"/>
      <use xlink:href="#DejaVuSans-73" x="1221.761719"/>
      <use xlink:href="#DejaVuSans-73" x="1273.861328"/>
     </g>
    </g>
    <g id="line2d_32">
     <path d="M 245.124687 293.004312 
L 255.124687 293.004312 
L 265.124687 293.004312 
" style="fill: none; stroke: #ffff00; stroke-width: 3; stroke-linecap: square"/>
    </g>
    <g id="text_18">
     <!-- ROC AUC -->
     <g transform="translate(273.124687 296.504312) scale(0.1 -0.1)">
      <defs>
       <path id="DejaVuSans-52" d="M 2841 2188 
Q 3044 2119 3236 1894 
Q 3428 1669 3622 1275 
L 4263 0 
L 3584 0 
L 2988 1197 
Q 2756 1666 2539 1819 
Q 2322 1972 1947 1972 
L 1259 1972 
L 1259 0 
L 628 0 
L 628 4666 
L 2053 4666 
Q 2853 4666 3247 4331 
Q 3641 3997 3641 3322 
Q 3641 2881 3436 2590 
Q 3231 2300 2841 2188 
z
M 1259 4147 
L 1259 2491 
L 2053 2491 
Q 2509 2491 2742 2702 
Q 2975 2913 2975 3322 
Q 2975 3731 2742 3939 
Q 2509 4147 2053 4147 
L 1259 4147 
z
" transform="scale(0.015625)"/>
       <path id="DejaVuSans-4f" d="M 2522 4238 
Q 1834 4238 1429 3725 
Q 1025 3213 1025 2328 
Q 1025 1447 1429 934 
Q 1834 422 2522 422 
Q 3209 422 3611 934 
Q 4013 1447 4013 2328 
Q 4013 3213 3611 3725 
Q 3209 4238 2522 4238 
z
M 2522 4750 
Q 3503 4750 4090 4092 
Q 4678 3434 4678 2328 
Q 4678 1225 4090 567 
Q 3503 -91 2522 -91 
Q 1538 -91 948 565 
Q 359 1222 359 2328 
Q 359 3434 948 4092 
Q 1538 4750 2522 4750 
z
" transform="scale(0.015625)"/>
       <path id="DejaVuSans-43" d="M 4122 4306 
L 4122 3641 
Q 3803 3938 3442 4084 
Q 3081 4231 2675 4231 
Q 1875 4231 1450 3742 
Q 1025 3253 1025 2328 
Q 1025 1406 1450 917 
Q 1875 428 2675 428 
Q 3081 428 3442 575 
Q 3803 722 4122 1019 
L 4122 359 
Q 3791 134 3420 21 
Q 3050 -91 2638 -91 
Q 1578 -91 968 557 
Q 359 1206 359 2328 
Q 359 3453 968 4101 
Q 1578 4750 2638 4750 
Q 3056 4750 3426 4639 
Q 3797 4528 4122 4306 
z
" transform="scale(0.015625)"/>
       <path id="DejaVuSans-55" d="M 556 4666 
L 1191 4666 
L 1191 1831 
Q 1191 1081 1462 751 
Q 1734 422 2344 422 
Q 2950 422 3222 751 
Q 3494 1081 3494 1831 
L 3494 4666 
L 4128 4666 
L 4128 1753 
Q 4128 841 3676 375 
Q 3225 -91 2344 -91 
Q 1459 -91 1007 375 
Q 556 841 556 1753 
L 556 4666 
z
" transform="scale(0.015625)"/>
      </defs>
      <use xlink:href="#DejaVuSans-52"/>
      <use xlink:href="#DejaVuSans-4f" x="69.482422"/>
      <use xlink:href="#DejaVuSans-43" x="148.193359"/>
      <use xlink:href="#DejaVuSans-20" x="218.017578"/>
      <use xlink:href="#DejaVuSans-41" x="249.804688"/>
      <use xlink:href="#DejaVuSans-55" x="318.212891"/>
      <use xlink:href="#DejaVuSans-43" x="391.40625"/>
     </g>
    </g>
   </g>
  </g>
 </g>
 <defs>
  <clipPath id="p5b6c128c45">
   <rect x="57.6" y="41.472" width="357.12" height="266.112"/>
  </clipPath>
 </defs>
</svg>
