<?xml version="1.0" encoding="utf-8" standalone="no"?>
<!DOCTYPE svg PUBLIC "-//W3C//DTD SVG 1.1//EN"
  "http://www.w3.org/Graphics/SVG/1.1/DTD/svg11.dtd">
<svg xmlns:xlink="http://www.w3.org/1999/xlink" width="460.8pt" height="345.6pt" viewBox="0 0 460.8 345.6" xmlns="http://www.w3.org/2000/svg" version="1.1">
 <metadata>
  <rdf:RDF xmlns:dc="http://purl.org/dc/elements/1.1/" xmlns:cc="http://creativecommons.org/ns#" xmlns:rdf="http://www.w3.org/1999/02/22-rdf-syntax-ns#">
   <cc:Work>
    <dc:type rdf:resource="http://purl.org/dc/dcmitype/StillImage"/>
    <dc:date>2023-07-06T15:47:45.660526</dc:date>
    <dc:format>image/svg+xml</dc:format>
    <dc:creator>
     <cc:Agent>
      <dc:title>Matplotlib v3.7.1, https://matplotlib.org/</dc:title>
     </cc:Agent>
    </dc:creator>
   </cc:Work>
  </rdf:RDF>
 </metadata>
 <defs>
  <style type="text/css">*{stroke-linejoin: round; stroke-linecap: butt}</style>
 </defs>
 <g id="figure_1">
  <g id="patch_1">
   <path d="M 0 345.6 
L 460.8 345.6 
L 460.8 0 
L 0 0 
z
" style="fill: #ffffff"/>
  </g>
  <g id="axes_1">
   <g id="patch_2">
    <path d="M 57.6 307.584 
L 414.72 307.584 
L 414.72 41.472 
L 57.6 41.472 
z
" style="fill: #e5e5e5"/>
   </g>
   <g id="matplotlib.axis_1">
    <g id="xtick_1">
     <g id="line2d_1">
      <path d="M 73.109666 307.584 
L 73.109666 41.472 
" clip-path="url(#p214bdc2e24)" style="fill: none; stroke: #ffffff; stroke-width: 0.8; stroke-linecap: square"/>
     </g>
     <g id="line2d_2">
      <defs>
       <path id="mad7f2f08b3" d="M 0 0 
L 0 3.5 
" style="stroke: #555555; stroke-width: 0.8"/>
      </defs>
      <g>
       <use xlink:href="#mad7f2f08b3" x="73.109666" y="307.584" style="fill: #555555; stroke: #555555; stroke-width: 0.8"/>
      </g>
     </g>
     <g id="text_1">
      <!-- 0 -->
      <g style="fill: #555555" transform="translate(69.928416 322.182437) scale(0.1 -0.1)">
       <defs>
        <path id="DejaVuSans-30" d="M 2034 4250 
Q 1547 4250 1301 3770 
Q 1056 3291 1056 2328 
Q 1056 1369 1301 889 
Q 1547 409 2034 409 
Q 2525 409 2770 889 
Q 3016 1369 3016 2328 
Q 3016 3291 2770 3770 
Q 2525 4250 2034 4250 
z
M 2034 4750 
Q 2819 4750 3233 4129 
Q 3647 3509 3647 2328 
Q 3647 1150 3233 529 
Q 2819 -91 2034 -91 
Q 1250 -91 836 529 
Q 422 1150 422 2328 
Q 422 3509 836 4129 
Q 1250 4750 2034 4750 
z
" transform="scale(0.015625)"/>
       </defs>
       <use xlink:href="#DejaVuSans-30"/>
      </g>
     </g>
    </g>
    <g id="xtick_2">
     <g id="line2d_3">
      <path d="M 145.415801 307.584 
L 145.415801 41.472 
" clip-path="url(#p214bdc2e24)" style="fill: none; stroke: #ffffff; stroke-width: 0.8; stroke-linecap: square"/>
     </g>
     <g id="line2d_4">
      <g>
       <use xlink:href="#mad7f2f08b3" x="145.415801" y="307.584" style="fill: #555555; stroke: #555555; stroke-width: 0.8"/>
      </g>
     </g>
     <g id="text_2">
      <!-- 100 -->
      <g style="fill: #555555" transform="translate(135.872051 322.182437) scale(0.1 -0.1)">
       <defs>
        <path id="DejaVuSans-31" d="M 794 531 
L 1825 531 
L 1825 4091 
L 703 3866 
L 703 4441 
L 1819 4666 
L 2450 4666 
L 2450 531 
L 3481 531 
L 3481 0 
L 794 0 
L 794 531 
z
" transform="scale(0.015625)"/>
       </defs>
       <use xlink:href="#DejaVuSans-31"/>
       <use xlink:href="#DejaVuSans-30" x="63.623047"/>
       <use xlink:href="#DejaVuSans-30" x="127.246094"/>
      </g>
     </g>
    </g>
    <g id="xtick_3">
     <g id="line2d_5">
      <path d="M 217.721936 307.584 
L 217.721936 41.472 
" clip-path="url(#p214bdc2e24)" style="fill: none; stroke: #ffffff; stroke-width: 0.8; stroke-linecap: square"/>
     </g>
     <g id="line2d_6">
      <g>
       <use xlink:href="#mad7f2f08b3" x="217.721936" y="307.584" style="fill: #555555; stroke: #555555; stroke-width: 0.8"/>
      </g>
     </g>
     <g id="text_3">
      <!-- 200 -->
      <g style="fill: #555555" transform="translate(208.178186 322.182437) scale(0.1 -0.1)">
       <defs>
        <path id="DejaVuSans-32" d="M 1228 531 
L 3431 531 
L 3431 0 
L 469 0 
L 469 531 
Q 828 903 1448 1529 
Q 2069 2156 2228 2338 
Q 2531 2678 2651 2914 
Q 2772 3150 2772 3378 
Q 2772 3750 2511 3984 
Q 2250 4219 1831 4219 
Q 1534 4219 1204 4116 
Q 875 4013 500 3803 
L 500 4441 
Q 881 4594 1212 4672 
Q 1544 4750 1819 4750 
Q 2544 4750 2975 4387 
Q 3406 4025 3406 3419 
Q 3406 3131 3298 2873 
Q 3191 2616 2906 2266 
Q 2828 2175 2409 1742 
Q 1991 1309 1228 531 
z
" transform="scale(0.015625)"/>
       </defs>
       <use xlink:href="#DejaVuSans-32"/>
       <use xlink:href="#DejaVuSans-30" x="63.623047"/>
       <use xlink:href="#DejaVuSans-30" x="127.246094"/>
      </g>
     </g>
    </g>
    <g id="xtick_4">
     <g id="line2d_7">
      <path d="M 290.02807 307.584 
L 290.02807 41.472 
" clip-path="url(#p214bdc2e24)" style="fill: none; stroke: #ffffff; stroke-width: 0.8; stroke-linecap: square"/>
     </g>
     <g id="line2d_8">
      <g>
       <use xlink:href="#mad7f2f08b3" x="290.02807" y="307.584" style="fill: #555555; stroke: #555555; stroke-width: 0.8"/>
      </g>
     </g>
     <g id="text_4">
      <!-- 300 -->
      <g style="fill: #555555" transform="translate(280.48432 322.182437) scale(0.1 -0.1)">
       <defs>
        <path id="DejaVuSans-33" d="M 2597 2516 
Q 3050 2419 3304 2112 
Q 3559 1806 3559 1356 
Q 3559 666 3084 287 
Q 2609 -91 1734 -91 
Q 1441 -91 1130 -33 
Q 819 25 488 141 
L 488 750 
Q 750 597 1062 519 
Q 1375 441 1716 441 
Q 2309 441 2620 675 
Q 2931 909 2931 1356 
Q 2931 1769 2642 2001 
Q 2353 2234 1838 2234 
L 1294 2234 
L 1294 2753 
L 1863 2753 
Q 2328 2753 2575 2939 
Q 2822 3125 2822 3475 
Q 2822 3834 2567 4026 
Q 2313 4219 1838 4219 
Q 1578 4219 1281 4162 
Q 984 4106 628 3988 
L 628 4550 
Q 988 4650 1302 4700 
Q 1616 4750 1894 4750 
Q 2613 4750 3031 4423 
Q 3450 4097 3450 3541 
Q 3450 3153 3228 2886 
Q 3006 2619 2597 2516 
z
" transform="scale(0.015625)"/>
       </defs>
       <use xlink:href="#DejaVuSans-33"/>
       <use xlink:href="#DejaVuSans-30" x="63.623047"/>
       <use xlink:href="#DejaVuSans-30" x="127.246094"/>
      </g>
     </g>
    </g>
    <g id="xtick_5">
     <g id="line2d_9">
      <path d="M 362.334205 307.584 
L 362.334205 41.472 
" clip-path="url(#p214bdc2e24)" style="fill: none; stroke: #ffffff; stroke-width: 0.8; stroke-linecap: square"/>
     </g>
     <g id="line2d_10">
      <g>
       <use xlink:href="#mad7f2f08b3" x="362.334205" y="307.584" style="fill: #555555; stroke: #555555; stroke-width: 0.8"/>
      </g>
     </g>
     <g id="text_5">
      <!-- 400 -->
      <g style="fill: #555555" transform="translate(352.790455 322.182437) scale(0.1 -0.1)">
       <defs>
        <path id="DejaVuSans-34" d="M 2419 4116 
L 825 1625 
L 2419 1625 
L 2419 4116 
z
M 2253 4666 
L 3047 4666 
L 3047 1625 
L 3713 1625 
L 3713 1100 
L 3047 1100 
L 3047 0 
L 2419 0 
L 2419 1100 
L 313 1100 
L 313 1709 
L 2253 4666 
z
" transform="scale(0.015625)"/>
       </defs>
       <use xlink:href="#DejaVuSans-34"/>
       <use xlink:href="#DejaVuSans-30" x="63.623047"/>
       <use xlink:href="#DejaVuSans-30" x="127.246094"/>
      </g>
     </g>
    </g>
    <g id="text_6">
     <!-- Epoch -->
     <g style="fill: #555555" transform="translate(217.786875 337.38025) scale(0.12 -0.12)">
      <defs>
       <path id="DejaVuSans-45" d="M 628 4666 
L 3578 4666 
L 3578 4134 
L 1259 4134 
L 1259 2753 
L 3481 2753 
L 3481 2222 
L 1259 2222 
L 1259 531 
L 3634 531 
L 3634 0 
L 628 0 
L 628 4666 
z
" transform="scale(0.015625)"/>
       <path id="DejaVuSans-70" d="M 1159 525 
L 1159 -1331 
L 581 -1331 
L 581 3500 
L 1159 3500 
L 1159 2969 
Q 1341 3281 1617 3432 
Q 1894 3584 2278 3584 
Q 2916 3584 3314 3078 
Q 3713 2572 3713 1747 
Q 3713 922 3314 415 
Q 2916 -91 2278 -91 
Q 1894 -91 1617 61 
Q 1341 213 1159 525 
z
M 3116 1747 
Q 3116 2381 2855 2742 
Q 2594 3103 2138 3103 
Q 1681 3103 1420 2742 
Q 1159 2381 1159 1747 
Q 1159 1113 1420 752 
Q 1681 391 2138 391 
Q 2594 391 2855 752 
Q 3116 1113 3116 1747 
z
" transform="scale(0.015625)"/>
       <path id="DejaVuSans-6f" d="M 1959 3097 
Q 1497 3097 1228 2736 
Q 959 2375 959 1747 
Q 959 1119 1226 758 
Q 1494 397 1959 397 
Q 2419 397 2687 759 
Q 2956 1122 2956 1747 
Q 2956 2369 2687 2733 
Q 2419 3097 1959 3097 
z
M 1959 3584 
Q 2709 3584 3137 3096 
Q 3566 2609 3566 1747 
Q 3566 888 3137 398 
Q 2709 -91 1959 -91 
Q 1206 -91 779 398 
Q 353 888 353 1747 
Q 353 2609 779 3096 
Q 1206 3584 1959 3584 
z
" transform="scale(0.015625)"/>
       <path id="DejaVuSans-63" d="M 3122 3366 
L 3122 2828 
Q 2878 2963 2633 3030 
Q 2388 3097 2138 3097 
Q 1578 3097 1268 2742 
Q 959 2388 959 1747 
Q 959 1106 1268 751 
Q 1578 397 2138 397 
Q 2388 397 2633 464 
Q 2878 531 3122 666 
L 3122 134 
Q 2881 22 2623 -34 
Q 2366 -91 2075 -91 
Q 1284 -91 818 406 
Q 353 903 353 1747 
Q 353 2603 823 3093 
Q 1294 3584 2113 3584 
Q 2378 3584 2631 3529 
Q 2884 3475 3122 3366 
z
" transform="scale(0.015625)"/>
       <path id="DejaVuSans-68" d="M 3513 2113 
L 3513 0 
L 2938 0 
L 2938 2094 
Q 2938 2591 2744 2837 
Q 2550 3084 2163 3084 
Q 1697 3084 1428 2787 
Q 1159 2491 1159 1978 
L 1159 0 
L 581 0 
L 581 4863 
L 1159 4863 
L 1159 2956 
Q 1366 3272 1645 3428 
Q 1925 3584 2291 3584 
Q 2894 3584 3203 3211 
Q 3513 2838 3513 2113 
z
" transform="scale(0.015625)"/>
      </defs>
      <use xlink:href="#DejaVuSans-45"/>
      <use xlink:href="#DejaVuSans-70" x="63.183594"/>
      <use xlink:href="#DejaVuSans-6f" x="126.660156"/>
      <use xlink:href="#DejaVuSans-63" x="187.841797"/>
      <use xlink:href="#DejaVuSans-68" x="242.822266"/>
     </g>
    </g>
   </g>
   <g id="matplotlib.axis_2">
    <g id="ytick_1">
     <g id="line2d_11">
      <path d="M 57.6 289.775719 
L 414.72 289.775719 
" clip-path="url(#p214bdc2e24)" style="fill: none; stroke: #ffffff; stroke-width: 0.8; stroke-linecap: square"/>
     </g>
     <g id="line2d_12">
      <defs>
       <path id="m35dd2ced19" d="M 0 0 
L -3.5 0 
" style="stroke: #555555; stroke-width: 0.8"/>
      </defs>
      <g>
       <use xlink:href="#m35dd2ced19" x="57.6" y="289.775719" style="fill: #555555; stroke: #555555; stroke-width: 0.8"/>
      </g>
     </g>
     <g id="text_7">
      <!-- 0.4 -->
      <g style="fill: #555555" transform="translate(34.696875 293.574938) scale(0.1 -0.1)">
       <defs>
        <path id="DejaVuSans-2e" d="M 684 794 
L 1344 794 
L 1344 0 
L 684 0 
L 684 794 
z
" transform="scale(0.015625)"/>
       </defs>
       <use xlink:href="#DejaVuSans-30"/>
       <use xlink:href="#DejaVuSans-2e" x="63.623047"/>
       <use xlink:href="#DejaVuSans-34" x="95.410156"/>
      </g>
     </g>
    </g>
    <g id="ytick_2">
     <g id="line2d_13">
      <path d="M 57.6 252.90279 
L 414.72 252.90279 
" clip-path="url(#p214bdc2e24)" style="fill: none; stroke: #ffffff; stroke-width: 0.8; stroke-linecap: square"/>
     </g>
     <g id="line2d_14">
      <g>
       <use xlink:href="#m35dd2ced19" x="57.6" y="252.90279" style="fill: #555555; stroke: #555555; stroke-width: 0.8"/>
      </g>
     </g>
     <g id="text_8">
      <!-- 0.6 -->
      <g style="fill: #555555" transform="translate(34.696875 256.702009) scale(0.1 -0.1)">
       <defs>
        <path id="DejaVuSans-36" d="M 2113 2584 
Q 1688 2584 1439 2293 
Q 1191 2003 1191 1497 
Q 1191 994 1439 701 
Q 1688 409 2113 409 
Q 2538 409 2786 701 
Q 3034 994 3034 1497 
Q 3034 2003 2786 2293 
Q 2538 2584 2113 2584 
z
M 3366 4563 
L 3366 3988 
Q 3128 4100 2886 4159 
Q 2644 4219 2406 4219 
Q 1781 4219 1451 3797 
Q 1122 3375 1075 2522 
Q 1259 2794 1537 2939 
Q 1816 3084 2150 3084 
Q 2853 3084 3261 2657 
Q 3669 2231 3669 1497 
Q 3669 778 3244 343 
Q 2819 -91 2113 -91 
Q 1303 -91 875 529 
Q 447 1150 447 2328 
Q 447 3434 972 4092 
Q 1497 4750 2381 4750 
Q 2619 4750 2861 4703 
Q 3103 4656 3366 4563 
z
" transform="scale(0.015625)"/>
       </defs>
       <use xlink:href="#DejaVuSans-30"/>
       <use xlink:href="#DejaVuSans-2e" x="63.623047"/>
       <use xlink:href="#DejaVuSans-36" x="95.410156"/>
      </g>
     </g>
    </g>
    <g id="ytick_3">
     <g id="line2d_15">
      <path d="M 57.6 216.029862 
L 414.72 216.029862 
" clip-path="url(#p214bdc2e24)" style="fill: none; stroke: #ffffff; stroke-width: 0.8; stroke-linecap: square"/>
     </g>
     <g id="line2d_16">
      <g>
       <use xlink:href="#m35dd2ced19" x="57.6" y="216.029862" style="fill: #555555; stroke: #555555; stroke-width: 0.8"/>
      </g>
     </g>
     <g id="text_9">
      <!-- 0.8 -->
      <g style="fill: #555555" transform="translate(34.696875 219.82908) scale(0.1 -0.1)">
       <defs>
        <path id="DejaVuSans-38" d="M 2034 2216 
Q 1584 2216 1326 1975 
Q 1069 1734 1069 1313 
Q 1069 891 1326 650 
Q 1584 409 2034 409 
Q 2484 409 2743 651 
Q 3003 894 3003 1313 
Q 3003 1734 2745 1975 
Q 2488 2216 2034 2216 
z
M 1403 2484 
Q 997 2584 770 2862 
Q 544 3141 544 3541 
Q 544 4100 942 4425 
Q 1341 4750 2034 4750 
Q 2731 4750 3128 4425 
Q 3525 4100 3525 3541 
Q 3525 3141 3298 2862 
Q 3072 2584 2669 2484 
Q 3125 2378 3379 2068 
Q 3634 1759 3634 1313 
Q 3634 634 3220 271 
Q 2806 -91 2034 -91 
Q 1263 -91 848 271 
Q 434 634 434 1313 
Q 434 1759 690 2068 
Q 947 2378 1403 2484 
z
M 1172 3481 
Q 1172 3119 1398 2916 
Q 1625 2713 2034 2713 
Q 2441 2713 2670 2916 
Q 2900 3119 2900 3481 
Q 2900 3844 2670 4047 
Q 2441 4250 2034 4250 
Q 1625 4250 1398 4047 
Q 1172 3844 1172 3481 
z
" transform="scale(0.015625)"/>
       </defs>
       <use xlink:href="#DejaVuSans-30"/>
       <use xlink:href="#DejaVuSans-2e" x="63.623047"/>
       <use xlink:href="#DejaVuSans-38" x="95.410156"/>
      </g>
     </g>
    </g>
    <g id="ytick_4">
     <g id="line2d_17">
      <path d="M 57.6 179.156933 
L 414.72 179.156933 
" clip-path="url(#p214bdc2e24)" style="fill: none; stroke: #ffffff; stroke-width: 0.8; stroke-linecap: square"/>
     </g>
     <g id="line2d_18">
      <g>
       <use xlink:href="#m35dd2ced19" x="57.6" y="179.156933" style="fill: #555555; stroke: #555555; stroke-width: 0.8"/>
      </g>
     </g>
     <g id="text_10">
      <!-- 1.0 -->
      <g style="fill: #555555" transform="translate(34.696875 182.956151) scale(0.1 -0.1)">
       <use xlink:href="#DejaVuSans-31"/>
       <use xlink:href="#DejaVuSans-2e" x="63.623047"/>
       <use xlink:href="#DejaVuSans-30" x="95.410156"/>
      </g>
     </g>
    </g>
    <g id="ytick_5">
     <g id="line2d_19">
      <path d="M 57.6 142.284004 
L 414.72 142.284004 
" clip-path="url(#p214bdc2e24)" style="fill: none; stroke: #ffffff; stroke-width: 0.8; stroke-linecap: square"/>
     </g>
     <g id="line2d_20">
      <g>
       <use xlink:href="#m35dd2ced19" x="57.6" y="142.284004" style="fill: #555555; stroke: #555555; stroke-width: 0.8"/>
      </g>
     </g>
     <g id="text_11">
      <!-- 1.2 -->
      <g style="fill: #555555" transform="translate(34.696875 146.083223) scale(0.1 -0.1)">
       <use xlink:href="#DejaVuSans-31"/>
       <use xlink:href="#DejaVuSans-2e" x="63.623047"/>
       <use xlink:href="#DejaVuSans-32" x="95.410156"/>
      </g>
     </g>
    </g>
    <g id="ytick_6">
     <g id="line2d_21">
      <path d="M 57.6 105.411075 
L 414.72 105.411075 
" clip-path="url(#p214bdc2e24)" style="fill: none; stroke: #ffffff; stroke-width: 0.8; stroke-linecap: square"/>
     </g>
     <g id="line2d_22">
      <g>
       <use xlink:href="#m35dd2ced19" x="57.6" y="105.411075" style="fill: #555555; stroke: #555555; stroke-width: 0.8"/>
      </g>
     </g>
     <g id="text_12">
      <!-- 1.4 -->
      <g style="fill: #555555" transform="translate(34.696875 109.210294) scale(0.1 -0.1)">
       <use xlink:href="#DejaVuSans-31"/>
       <use xlink:href="#DejaVuSans-2e" x="63.623047"/>
       <use xlink:href="#DejaVuSans-34" x="95.410156"/>
      </g>
     </g>
    </g>
    <g id="ytick_7">
     <g id="line2d_23">
      <path d="M 57.6 68.538146 
L 414.72 68.538146 
" clip-path="url(#p214bdc2e24)" style="fill: none; stroke: #ffffff; stroke-width: 0.8; stroke-linecap: square"/>
     </g>
     <g id="line2d_24">
      <g>
       <use xlink:href="#m35dd2ced19" x="57.6" y="68.538146" style="fill: #555555; stroke: #555555; stroke-width: 0.8"/>
      </g>
     </g>
     <g id="text_13">
      <!-- 1.6 -->
      <g style="fill: #555555" transform="translate(34.696875 72.337365) scale(0.1 -0.1)">
       <use xlink:href="#DejaVuSans-31"/>
       <use xlink:href="#DejaVuSans-2e" x="63.623047"/>
       <use xlink:href="#DejaVuSans-36" x="95.410156"/>
      </g>
     </g>
    </g>
    <g id="text_14">
     <!-- Loss -->
     <g style="fill: #555555" transform="translate(28.20125 187.688625) rotate(-90) scale(0.12 -0.12)">
      <defs>
       <path id="DejaVuSans-4c" d="M 628 4666 
L 1259 4666 
L 1259 531 
L 3531 531 
L 3531 0 
L 628 0 
L 628 4666 
z
" transform="scale(0.015625)"/>
       <path id="DejaVuSans-73" d="M 2834 3397 
L 2834 2853 
Q 2591 2978 2328 3040 
Q 2066 3103 1784 3103 
Q 1356 3103 1142 2972 
Q 928 2841 928 2578 
Q 928 2378 1081 2264 
Q 1234 2150 1697 2047 
L 1894 2003 
Q 2506 1872 2764 1633 
Q 3022 1394 3022 966 
Q 3022 478 2636 193 
Q 2250 -91 1575 -91 
Q 1294 -91 989 -36 
Q 684 19 347 128 
L 347 722 
Q 666 556 975 473 
Q 1284 391 1588 391 
Q 1994 391 2212 530 
Q 2431 669 2431 922 
Q 2431 1156 2273 1281 
Q 2116 1406 1581 1522 
L 1381 1569 
Q 847 1681 609 1914 
Q 372 2147 372 2553 
Q 372 3047 722 3315 
Q 1072 3584 1716 3584 
Q 2034 3584 2315 3537 
Q 2597 3491 2834 3397 
z
" transform="scale(0.015625)"/>
      </defs>
      <use xlink:href="#DejaVuSans-4c"/>
      <use xlink:href="#DejaVuSans-6f" x="53.962891"/>
      <use xlink:href="#DejaVuSans-73" x="115.144531"/>
      <use xlink:href="#DejaVuSans-73" x="167.244141"/>
     </g>
    </g>
   </g>
   <g id="line2d_25">
    <path d="M 73.832727 231.753498 
L 74.555789 229.74754 
L 75.27885 227.021213 
L 76.724973 219.266921 
L 78.171095 209.314398 
L 79.617218 197.294167 
L 81.063341 184.218085 
L 82.509463 169.634066 
L 83.955586 154.685975 
L 85.401709 138.910265 
L 86.847832 123.487281 
L 88.293954 108.74044 
L 90.463138 88.666264 
L 91.1862 82.620536 
L 93.355384 67.920675 
L 94.078445 64.511029 
L 94.801506 60.537665 
L 95.524568 58.650465 
L 96.247629 57.320441 
L 96.97069 55.38601 
L 97.693752 55.112331 
L 98.416813 53.872676 
L 99.139874 53.568 
L 99.862936 54.245388 
L 100.585997 55.766193 
L 101.309059 57.025444 
L 102.03212 58.598742 
L 102.755181 58.542874 
L 103.478243 60.659718 
L 104.924365 65.810573 
L 106.370488 68.13387 
L 107.093549 70.726713 
L 108.539672 75.002538 
L 109.262733 76.269542 
L 109.985795 78.54824 
L 111.431917 82.232123 
L 112.154979 84.389438 
L 112.87804 85.993105 
L 113.601101 88.01347 
L 114.324163 90.75961 
L 115.047224 92.02606 
L 115.770285 93.718039 
L 116.493347 95.69574 
L 117.216408 98.883497 
L 118.662531 103.223229 
L 120.108654 107.922336 
L 120.831715 110.184327 
L 121.554776 113.310396 
L 122.277838 115.672509 
L 123.000899 117.451671 
L 123.72396 120.971018 
L 125.170083 125.702964 
L 126.616206 131.411349 
L 127.339267 133.379626 
L 128.78539 139.467878 
L 129.508451 142.212804 
L 130.231512 144.171855 
L 131.677635 149.331062 
L 132.400696 151.435058 
L 133.846819 157.4948 
L 134.569881 159.868088 
L 135.292942 161.694697 
L 136.739065 167.299906 
L 138.185187 172.957105 
L 138.908249 175.348415 
L 139.63131 178.267337 
L 140.354371 179.769369 
L 141.077433 183.05694 
L 141.800494 185.481993 
L 142.523555 187.056275 
L 143.246617 189.430831 
L 143.969678 192.616282 
L 145.415801 196.594226 
L 146.138862 198.963658 
L 146.861923 202.145017 
L 147.584985 204.132736 
L 148.308046 206.603876 
L 149.031108 208.06606 
L 149.754169 209.235086 
L 150.47723 211.676218 
L 151.200292 213.400695 
L 151.923353 216.360439 
L 152.646414 216.716375 
L 154.092537 219.145414 
L 154.815598 220.648975 
L 155.53866 222.498543 
L 156.261721 222.638161 
L 156.984782 224.541829 
L 157.707844 225.039002 
L 158.430905 226.417779 
L 159.153966 227.009596 
L 159.877028 227.891838 
L 160.600089 227.844295 
L 162.046212 229.780149 
L 162.769273 230.408437 
L 163.492334 230.513231 
L 164.215396 231.170102 
L 164.938457 231.169673 
L 165.661519 231.533903 
L 166.38458 232.13748 
L 167.107641 232.10488 
L 167.830703 232.575213 
L 168.553764 232.437112 
L 169.276825 233.167845 
L 170.722948 233.09192 
L 171.446009 233.222038 
L 172.169071 233.036672 
L 172.892132 233.279939 
L 174.338255 233.191269 
L 175.061316 233.239289 
L 175.784377 233.044142 
L 176.507439 233.068799 
L 177.2305 233.405486 
L 177.953561 233.378311 
L 178.676623 233.08385 
L 179.399684 233.490473 
L 180.845807 233.2123 
L 181.568868 233.354177 
L 182.29193 233.224922 
L 183.014991 233.332924 
L 183.738052 231.897158 
L 185.184175 230.192277 
L 185.907236 229.979333 
L 186.630298 229.334974 
L 187.353359 229.421345 
L 188.07642 229.359305 
L 188.799482 229.470178 
L 189.522543 229.837896 
L 190.245604 229.961295 
L 191.691727 230.580055 
L 192.414788 230.662857 
L 193.13785 230.520195 
L 193.860911 230.836245 
L 194.583972 230.940544 
L 195.307034 230.459332 
L 198.922341 229.25718 
L 200.368463 228.566485 
L 201.091525 228.506149 
L 201.814586 228.19453 
L 202.537647 228.215433 
L 203.260709 227.808541 
L 203.98377 227.844436 
L 205.429893 227.468819 
L 206.152954 227.702471 
L 207.599077 227.651898 
L 208.322138 227.169591 
L 209.045199 227.37058 
L 209.768261 227.048919 
L 210.491322 227.051226 
L 211.214383 226.855396 
L 212.660506 226.745174 
L 219.89112 225.412078 
L 220.614181 225.5037 
L 221.337242 225.243331 
L 222.060304 225.440977 
L 222.783365 225.081532 
L 223.506426 224.941919 
L 224.952549 224.798227 
L 225.67561 224.610998 
L 226.398672 224.654339 
L 227.844794 224.338329 
L 229.290917 224.346184 
L 230.73704 223.899984 
L 232.906224 223.822253 
L 233.629285 223.381456 
L 236.521531 223.043753 
L 237.244592 222.853424 
L 237.967653 222.95256 
L 239.413776 222.714272 
L 240.136837 222.912531 
L 243.029083 221.887608 
L 244.475206 222.142436 
L 245.198267 221.622288 
L 245.921328 221.386912 
L 246.64439 221.547499 
L 247.367451 221.358288 
L 248.813574 221.354844 
L 250.259696 220.937768 
L 251.705819 220.74721 
L 252.42888 220.591811 
L 253.151942 220.281145 
L 253.875003 220.336657 
L 254.598064 220.209488 
L 255.321126 220.326209 
L 256.044187 220.276066 
L 256.767248 220.084913 
L 257.49031 219.751623 
L 258.213371 219.9153 
L 258.936432 219.642608 
L 259.659494 219.769597 
L 260.382555 219.458112 
L 261.105617 218.960676 
L 261.828678 219.120858 
L 263.274801 218.800518 
L 264.720923 218.219143 
L 265.443985 218.629151 
L 266.167046 218.357573 
L 266.890107 218.272846 
L 267.613169 218.352035 
L 269.059291 217.897502 
L 270.505414 217.459733 
L 271.228475 217.643219 
L 271.951537 217.253782 
L 272.674598 217.498235 
L 273.397659 217.038339 
L 274.120721 217.155196 
L 274.843782 216.591019 
L 275.566843 216.396226 
L 276.289905 216.75657 
L 277.012966 216.145839 
L 277.736028 216.40067 
L 278.459089 216.785566 
L 279.18215 216.163776 
L 279.905212 215.71984 
L 281.351334 215.687493 
L 282.074396 215.337762 
L 284.24358 215.235766 
L 285.689702 214.446913 
L 286.412764 214.85553 
L 287.135825 214.064116 
L 287.858886 214.111147 
L 288.581948 214.307298 
L 290.02807 213.868661 
L 290.751132 213.453016 
L 291.474193 213.730635 
L 292.920316 213.736198 
L 293.643377 212.984131 
L 294.366439 212.90745 
L 295.812561 212.362744 
L 296.535623 212.573427 
L 297.258684 212.356895 
L 298.704807 211.661185 
L 299.427868 212.501097 
L 300.150929 211.495002 
L 300.873991 211.46406 
L 301.597052 211.219194 
L 302.320113 211.317357 
L 304.489297 210.694586 
L 305.212359 211.095852 
L 306.658481 210.643993 
L 307.381543 210.290732 
L 308.104604 209.673254 
L 308.827666 210.253814 
L 309.550727 209.771841 
L 310.273788 208.722773 
L 311.719911 209.148036 
L 312.442972 208.534674 
L 313.889095 208.861186 
L 314.612156 208.623898 
L 315.335218 208.104576 
L 316.058279 208.731474 
L 316.78134 207.818878 
L 317.504402 208.123429 
L 318.227463 208.154194 
L 318.950524 207.011908 
L 319.673586 206.546968 
L 320.396647 206.941106 
L 321.119708 207.176251 
L 322.565831 206.82939 
L 323.288892 206.177233 
L 324.011954 206.028961 
L 324.735015 206.111286 
L 325.458077 205.89215 
L 326.181138 206.043719 
L 326.904199 205.682361 
L 327.627261 205.613344 
L 328.350322 204.95391 
L 329.796445 204.482493 
L 330.519506 204.827842 
L 331.242567 204.262586 
L 331.965629 203.95193 
L 332.68869 204.273415 
L 334.134813 203.800741 
L 334.857874 204.265564 
L 336.303997 203.195678 
L 337.027058 202.128052 
L 337.750119 202.870147 
L 338.473181 202.942945 
L 339.919304 202.240698 
L 340.642365 201.669848 
L 341.365426 201.638934 
L 342.088488 201.855439 
L 342.811549 200.995782 
L 343.53461 201.106302 
L 344.257672 201.442642 
L 346.426856 200.193563 
L 347.149917 200.428741 
L 347.872978 199.890522 
L 348.59604 199.953698 
L 349.319101 199.541279 
L 350.042162 199.498204 
L 350.765224 200.148032 
L 351.488285 199.526793 
L 352.211346 198.361233 
L 352.934408 198.176798 
L 353.657469 198.837852 
L 354.38053 198.065943 
L 355.103592 198.254218 
L 355.826653 197.802551 
L 356.549715 197.977669 
L 357.272776 197.114668 
L 357.995837 197.874146 
L 358.718899 197.192422 
L 359.44196 196.742348 
L 360.165021 196.61688 
L 360.888083 196.158996 
L 361.611144 195.919757 
L 362.334205 196.146965 
L 363.057267 196.648977 
L 363.780328 196.422951 
L 364.503389 195.870671 
L 365.226451 194.23198 
L 365.949512 195.454518 
L 366.672573 195.375015 
L 367.395635 194.573792 
L 368.118696 194.184035 
L 368.841757 193.991336 
L 369.564819 194.297272 
L 370.28788 194.930765 
L 371.010941 193.613403 
L 371.734003 193.664414 
L 372.457064 193.120945 
L 373.180126 193.016193 
L 373.903187 193.536095 
L 374.626248 193.406529 
L 375.34931 192.299704 
L 377.518494 191.700642 
L 378.241555 192.033452 
L 378.964616 191.831028 
L 380.410739 190.986804 
L 381.1338 191.520932 
L 381.856862 191.319944 
L 382.579923 190.148379 
L 383.302984 189.897876 
L 384.026046 189.963171 
L 384.749107 190.610281 
L 385.472168 189.527527 
L 386.19523 189.600081 
L 386.918291 190.073507 
L 387.641353 188.611118 
L 388.364414 189.039803 
L 389.087475 188.393141 
L 389.810537 189.071698 
L 390.533598 188.480457 
L 391.256659 186.892992 
L 391.979721 188.519457 
L 392.702782 188.638059 
L 393.425843 187.80743 
L 394.148905 187.730491 
L 394.871966 186.191798 
L 395.595027 186.627971 
L 396.318089 187.723648 
L 397.04115 186.640793 
L 397.764211 186.622287 
L 398.487273 186.302422 
L 398.487273 186.302422 
" clip-path="url(#p214bdc2e24)" style="fill: none; stroke: #6495ed; stroke-width: 2; stroke-linecap: square"/>
   </g>
   <g id="line2d_26">
    <path d="M 73.832727 236.650652 
L 74.555789 237.154313 
L 75.27885 238.013089 
L 76.001911 239.265376 
L 77.448034 242.445091 
L 79.617218 248.353037 
L 81.063341 252.405007 
L 83.955586 261.02582 
L 84.678647 262.652364 
L 85.401709 264.67831 
L 86.12477 266.319266 
L 86.847832 268.305292 
L 87.570893 270.648265 
L 88.293954 271.589223 
L 89.017016 273.46208 
L 90.463138 276.457576 
L 91.1862 278.60867 
L 91.909261 279.014344 
L 92.632322 280.735493 
L 93.355384 281.681261 
L 94.078445 282.875115 
L 94.801506 284.855467 
L 95.524568 284.712733 
L 96.247629 286.014866 
L 96.97069 286.638193 
L 97.693752 287.454949 
L 98.416813 289.19574 
L 99.139874 288.720998 
L 99.862936 289.846567 
L 100.585997 289.961878 
L 101.309059 290.572438 
L 102.03212 292.021623 
L 102.755181 291.265259 
L 103.478243 292.25893 
L 104.201304 292.052357 
L 104.924365 292.39514 
L 105.647427 293.952533 
L 106.370488 292.673228 
L 107.093549 293.62374 
L 107.816611 293.263064 
L 108.539672 293.523761 
L 109.262733 295.116119 
L 109.985795 293.209705 
L 110.708856 294.274592 
L 111.431917 293.66495 
L 112.154979 293.822792 
L 112.87804 295.488 
L 113.601101 293.044642 
L 114.324163 294.011185 
L 115.047224 293.176495 
L 115.770285 293.351528 
L 116.493347 295.088711 
L 117.216408 291.773043 
L 117.93947 292.999484 
L 118.662531 291.721 
L 119.385592 291.627167 
L 120.108654 293.459782 
L 120.831715 289.659196 
L 121.554776 290.818673 
L 122.277838 289.104242 
L 123.000899 289.125497 
L 123.72396 290.875217 
L 124.447022 286.303488 
L 125.170083 287.729034 
L 125.893144 285.488727 
L 126.616206 285.164369 
L 127.339267 287.440205 
L 128.062328 281.758594 
L 128.78539 283.300131 
L 129.508451 280.580444 
L 130.231512 280.394871 
L 130.954574 282.704984 
L 131.677635 276.249894 
L 132.400696 278.179299 
L 133.123758 274.880976 
L 133.846819 274.477163 
L 134.569881 277.194343 
L 135.292942 269.931532 
L 136.016003 271.913562 
L 136.739065 268.229776 
L 137.462126 267.74547 
L 138.185187 270.683126 
L 138.908249 262.251494 
L 139.63131 264.304401 
L 140.354371 260.514434 
L 141.077433 259.930862 
L 141.800494 263.13869 
L 142.523555 254.04652 
L 143.246617 256.508663 
L 143.969678 251.694519 
L 144.692739 251.743626 
L 145.415801 255.40402 
L 146.138862 245.443628 
L 146.861923 247.829279 
L 147.584985 243.268121 
L 148.308046 243.412777 
L 149.031108 247.248156 
L 149.754169 237.596926 
L 150.47723 240.654245 
L 151.200292 236.069153 
L 151.923353 236.228643 
L 152.646414 240.82856 
L 153.369476 231.400574 
L 154.092537 235.311015 
L 154.815598 231.055661 
L 155.53866 231.830825 
L 156.261721 236.789775 
L 156.984782 227.531702 
L 157.707844 231.993918 
L 158.430905 227.928105 
L 159.153966 229.429226 
L 159.877028 233.807876 
L 160.600089 225.949449 
L 161.32315 230.202317 
L 162.046212 226.613242 
L 162.769273 228.018786 
L 163.492334 232.463996 
L 164.215396 224.963214 
L 164.938457 229.649415 
L 165.661519 226.53769 
L 166.38458 227.913015 
L 167.107641 232.113943 
L 167.830703 225.496522 
L 168.553764 230.178828 
L 169.276825 227.157817 
L 169.999887 228.715749 
L 170.722948 232.509104 
L 171.446009 226.707653 
L 172.169071 231.135153 
L 172.892132 228.498857 
L 173.615193 229.880194 
L 174.338255 233.174483 
L 175.061316 227.986435 
L 175.784377 232.145747 
L 176.507439 229.793827 
L 177.2305 230.803532 
L 177.953561 233.65297 
L 178.676623 229.297719 
L 179.399684 232.842952 
L 180.122745 230.811413 
L 180.845807 231.901889 
L 181.568868 234.186038 
L 182.29193 230.345787 
L 183.014991 233.735998 
L 183.738052 232.050538 
L 184.461114 233.090527 
L 185.184175 235.262538 
L 185.907236 231.794877 
L 186.630298 235.32324 
L 187.353359 233.538507 
L 188.07642 234.545979 
L 188.799482 236.378707 
L 189.522543 233.473589 
L 190.245604 236.639017 
L 190.968666 235.005525 
L 191.691727 235.801631 
L 192.414788 237.354454 
L 193.13785 234.988444 
L 193.860911 237.634307 
L 194.583972 236.055485 
L 195.307034 236.941761 
L 196.030095 238.209612 
L 196.753157 235.997624 
L 197.476218 238.588277 
L 198.199279 237.116521 
L 198.922341 237.777779 
L 199.645402 238.879857 
L 200.368463 236.94528 
L 201.091525 239.324136 
L 201.814586 238.031533 
L 202.537647 238.517042 
L 203.260709 239.58742 
L 203.98377 237.715493 
L 204.706831 240.055938 
L 205.429893 238.853647 
L 206.152954 239.216893 
L 206.876015 240.018303 
L 207.599077 238.322947 
L 208.322138 240.725333 
L 209.045199 239.354537 
L 210.491322 240.571388 
L 211.214383 239.117026 
L 211.937445 241.171469 
L 212.660506 239.979279 
L 213.383568 240.413456 
L 214.106629 241.010169 
L 214.82969 239.588983 
L 215.552752 241.622406 
L 216.275813 240.498452 
L 217.721936 241.493191 
L 218.444997 240.229434 
L 219.168058 242.201386 
L 219.89112 241.105837 
L 220.614181 241.396253 
L 221.337242 241.90205 
L 222.060304 240.595238 
L 222.783365 242.626211 
L 223.506426 241.584474 
L 224.952549 242.25901 
L 225.67561 241.243183 
L 226.398672 243.025791 
L 227.121733 242.020619 
L 227.844794 242.375059 
L 228.567856 242.604584 
L 229.290917 241.582969 
L 230.013979 243.448915 
L 230.73704 242.48183 
L 232.183163 243.035188 
L 232.906224 242.012314 
L 233.629285 243.945548 
L 234.352347 242.920694 
L 235.075408 243.24916 
L 235.798469 243.407611 
L 236.521531 242.589615 
L 237.244592 244.372659 
L 237.967653 243.317915 
L 238.690715 243.597478 
L 239.413776 243.746369 
L 240.136837 242.853936 
L 240.859899 244.633235 
L 241.58296 243.786327 
L 242.306021 244.06857 
L 243.029083 244.207842 
L 243.752144 243.412302 
L 244.475206 244.972371 
L 245.198267 244.209969 
L 245.921328 244.535913 
L 246.64439 244.462945 
L 247.367451 243.881159 
L 248.090512 245.45005 
L 248.813574 244.508014 
L 249.536635 244.822677 
L 250.259696 244.825941 
L 250.982758 244.261273 
L 251.705819 245.8919 
L 252.42888 245.003967 
L 253.151942 245.335209 
L 253.875003 245.225847 
L 254.598064 244.73248 
L 255.321126 246.230473 
L 256.044187 245.306678 
L 256.767248 245.583355 
L 257.49031 245.611702 
L 258.213371 244.995344 
L 258.936432 246.634155 
L 259.659494 245.64604 
L 260.382555 245.953435 
L 261.105617 245.993895 
L 261.828678 245.45808 
L 262.551739 247.019694 
L 263.274801 246.199131 
L 263.997862 246.520626 
L 264.720923 246.460625 
L 265.443985 245.881837 
L 266.167046 247.501979 
L 266.890107 246.650406 
L 267.613169 246.792157 
L 268.33623 246.703108 
L 269.059291 246.417272 
L 269.782353 247.944414 
L 270.505414 247.14503 
L 271.228475 247.203194 
L 271.951537 247.102448 
L 272.674598 246.691389 
L 273.397659 248.339756 
L 274.120721 247.384853 
L 274.843782 247.781469 
L 275.566843 247.579245 
L 276.289905 247.159553 
L 277.012966 248.905812 
L 277.736028 247.891215 
L 279.905212 247.782513 
L 280.628273 249.194562 
L 281.351334 248.291043 
L 282.074396 248.552024 
L 282.797457 248.242038 
L 283.520518 248.054782 
L 284.24358 249.480864 
L 284.966641 248.778168 
L 285.689702 249.123602 
L 286.412764 248.546592 
L 287.135825 248.758045 
L 287.858886 250.12859 
L 288.581948 249.209541 
L 289.305009 249.409127 
L 290.02807 249.08047 
L 290.751132 249.206017 
L 291.474193 250.395602 
L 292.197255 249.54396 
L 292.920316 249.622981 
L 294.366439 249.470167 
L 295.0895 250.89922 
L 295.812561 250.197247 
L 296.535623 250.231293 
L 297.258684 249.898215 
L 297.981745 250.03793 
L 298.704807 251.551271 
L 299.427868 250.397871 
L 300.150929 250.886618 
L 300.873991 250.500851 
L 301.597052 250.574611 
L 302.320113 251.883026 
L 303.043175 251.162418 
L 303.766236 251.378828 
L 304.489297 250.929281 
L 305.212359 250.717269 
L 305.93542 252.147436 
L 306.658481 251.374007 
L 307.381543 251.566717 
L 308.827666 251.071201 
L 309.550727 252.535888 
L 310.273788 252.166336 
L 310.99685 252.148355 
L 311.719911 251.548481 
L 312.442972 251.977481 
L 313.166034 253.260714 
L 313.889095 252.430005 
L 314.612156 252.61339 
L 315.335218 252.290088 
L 316.058279 252.116557 
L 316.78134 253.722526 
L 317.504402 252.764623 
L 318.227463 252.817508 
L 318.950524 252.635983 
L 319.673586 253.042208 
L 320.396647 254.16575 
L 321.119708 253.219228 
L 321.84277 253.41804 
L 322.565831 252.899553 
L 323.288892 253.396938 
L 324.011954 254.627577 
L 324.735015 253.870651 
L 325.458077 253.985551 
L 326.181138 253.321982 
L 326.904199 253.668264 
L 327.627261 254.932525 
L 328.350322 254.352308 
L 329.073383 254.508831 
L 329.796445 254.015377 
L 330.519506 254.116662 
L 331.242567 255.551122 
L 331.965629 254.978115 
L 332.68869 254.901415 
L 333.411751 254.378009 
L 334.134813 254.768078 
L 334.857874 255.681363 
L 335.580935 255.16252 
L 336.303997 255.363247 
L 337.027058 254.991718 
L 337.750119 255.235405 
L 338.473181 256.34438 
L 339.196242 255.719006 
L 339.919304 255.87342 
L 340.642365 255.356607 
L 341.365426 255.834382 
L 342.088488 256.874922 
L 342.811549 256.554659 
L 343.53461 256.508745 
L 344.257672 255.651295 
L 344.980733 256.228191 
L 345.703794 257.389845 
L 346.426856 256.912732 
L 347.149917 256.794108 
L 347.872978 256.218305 
L 348.59604 256.675766 
L 349.319101 258.016216 
L 350.042162 257.297963 
L 351.488285 256.55676 
L 352.211346 257.339966 
L 352.934408 258.569636 
L 353.657469 257.7788 
L 354.38053 258.059512 
L 355.103592 257.274609 
L 355.826653 257.92563 
L 356.549715 258.885859 
L 357.272776 258.616846 
L 357.995837 258.17979 
L 358.718899 257.586998 
L 359.44196 258.254882 
L 360.165021 259.344208 
L 360.888083 258.916077 
L 361.611144 259.005456 
L 362.334205 258.026747 
L 363.057267 258.56917 
L 363.780328 259.705165 
L 364.503389 259.121424 
L 365.226451 259.804238 
L 365.949512 258.32957 
L 366.672573 258.887804 
L 367.395635 260.327585 
L 368.118696 259.8623 
L 368.841757 259.956099 
L 369.564819 258.935265 
L 370.28788 259.503863 
L 371.010941 260.90563 
L 371.734003 260.30227 
L 372.457064 260.516764 
L 373.180126 259.55334 
L 373.903187 259.875491 
L 374.626248 260.912057 
L 375.34931 260.731982 
L 376.072371 260.764423 
L 376.795432 259.846007 
L 377.518494 260.849786 
L 378.241555 261.640131 
L 378.964616 261.262999 
L 379.687678 261.198815 
L 380.410739 260.548909 
L 381.1338 261.127378 
L 381.856862 261.973196 
L 382.579923 261.917093 
L 383.302984 262.033753 
L 384.026046 260.829303 
L 384.749107 261.479895 
L 385.472168 262.841429 
L 386.19523 262.258358 
L 387.641353 261.408013 
L 388.364414 261.918724 
L 389.087475 263.173466 
L 389.810537 262.486572 
L 390.533598 262.579824 
L 391.256659 262.14314 
L 391.979721 262.593209 
L 392.702782 263.38717 
L 394.148905 262.937804 
L 394.871966 262.377604 
L 396.318089 263.646085 
L 397.04115 263.748716 
L 397.764211 263.484376 
L 398.487273 262.526758 
L 398.487273 262.526758 
" clip-path="url(#p214bdc2e24)" style="fill: none; stroke: #dc143c; stroke-width: 2; stroke-linecap: square"/>
   </g>
   <g id="line2d_27">
    <path d="M 73.832727 248.578527 
L 76.724973 248.578527 
L 77.448034 228.773141 
L 80.340279 228.773141 
L 81.063341 226.934471 
L 83.955586 226.934471 
L 84.678647 226.549234 
L 87.570893 226.549234 
L 88.293954 226.430545 
L 91.1862 226.430545 
L 91.909261 226.07448 
L 94.801506 226.07448 
L 95.524568 225.421408 
L 98.416813 225.421408 
L 99.139874 224.606461 
L 102.03212 224.606461 
L 102.755181 223.627496 
L 105.647427 223.627496 
L 106.370488 222.596908 
L 109.262733 222.596908 
L 109.985795 221.621804 
L 112.87804 221.621804 
L 113.601101 220.856192 
L 116.493347 220.856192 
L 117.216408 220.264323 
L 120.108654 220.264323 
L 120.831715 219.770693 
L 123.72396 219.770693 
L 124.447022 219.402759 
L 127.339267 219.402759 
L 128.062328 219.092882 
L 130.954574 219.092882 
L 131.677635 218.830623 
L 134.569881 218.830623 
L 135.292942 218.527467 
L 138.185187 218.527467 
L 138.908249 218.17798 
L 141.800494 218.17798 
L 142.523555 217.754419 
L 145.415801 217.754419 
L 146.138862 217.261362 
L 149.031108 217.261362 
L 149.754169 216.542653 
L 152.646414 216.542653 
L 153.369476 215.590857 
L 156.261721 215.590857 
L 156.984782 214.456596 
L 159.877028 214.456596 
L 160.600089 213.048064 
L 163.492334 213.048064 
L 164.215396 211.589483 
L 167.107641 211.589483 
L 167.830703 210.067411 
L 170.722948 210.067411 
L 171.446009 208.527607 
L 174.338255 208.527607 
L 175.061316 207.24949 
L 177.953561 207.24949 
L 178.676623 206.211895 
L 181.568868 206.211895 
L 182.29193 205.306145 
L 185.184175 205.306145 
L 185.907236 204.644064 
L 188.799482 204.644064 
L 189.522543 204.236805 
L 192.414788 204.236805 
L 193.13785 203.985128 
L 196.030095 203.985128 
L 196.753157 203.866154 
L 203.260709 203.941085 
L 203.98377 204.100814 
L 206.876015 204.100814 
L 207.599077 204.359497 
L 210.491322 204.359497 
L 211.214383 204.72257 
L 214.106629 204.72257 
L 214.82969 205.26153 
L 217.721936 205.26153 
L 218.444997 205.903162 
L 221.337242 205.903162 
L 222.060304 206.797044 
L 224.952549 206.797044 
L 225.67561 207.950181 
L 228.567856 207.950181 
L 229.290917 209.248032 
L 232.183163 209.248032 
L 232.906224 210.657707 
L 235.798469 210.657707 
L 236.521531 212.217531 
L 239.413776 212.217531 
L 240.136837 213.98413 
L 243.029083 213.98413 
L 243.752144 215.679802 
L 246.64439 215.679802 
L 247.367451 217.310267 
L 250.259696 217.310267 
L 250.982758 219.075436 
L 253.875003 219.075436 
L 254.598064 220.842893 
L 257.49031 220.842893 
L 258.213371 222.523693 
L 261.105617 222.523693 
L 261.828678 224.094385 
L 264.720923 224.094385 
L 265.443985 225.800067 
L 268.33623 225.800067 
L 269.059291 227.496883 
L 271.951537 227.496883 
L 272.674598 229.018812 
L 275.566843 229.018812 
L 276.289905 230.566195 
L 279.18215 230.566195 
L 279.905212 232.14089 
L 282.797457 232.14089 
L 283.520518 233.715586 
L 286.412764 233.715586 
L 287.135825 235.249241 
L 290.02807 235.249241 
L 290.751132 236.804346 
L 293.643377 236.804346 
L 294.366439 238.232039 
L 297.258684 238.232039 
L 297.981745 239.627987 
L 300.873991 239.627987 
L 301.597052 241.069408 
L 304.489297 241.069408 
L 305.212359 242.520267 
L 308.104604 242.520267 
L 308.827666 243.852867 
L 311.719911 243.852867 
L 312.442972 245.172883 
L 315.335218 245.172883 
L 316.058279 246.525931 
L 318.950524 246.525931 
L 319.673586 247.711672 
L 322.565831 247.711672 
L 323.288892 248.990933 
L 326.181138 248.990933 
L 326.904199 250.323104 
L 329.796445 250.323104 
L 330.519506 251.459939 
L 333.411751 251.459939 
L 334.134813 252.775236 
L 337.027058 252.775236 
L 337.750119 253.831134 
L 340.642365 253.831134 
L 341.365426 255.014301 
L 344.257672 255.014301 
L 344.980733 256.193464 
L 347.872978 256.193464 
L 348.59604 257.280536 
L 351.488285 257.280536 
L 352.211346 258.346444 
L 355.103592 258.346444 
L 355.826653 259.432944 
L 358.718899 259.432944 
L 359.44196 260.395607 
L 362.334205 260.395607 
L 363.057267 261.394592 
L 365.949512 261.394592 
L 366.672573 262.352394 
L 369.564819 262.352394 
L 370.28788 263.226398 
L 373.180126 263.226398 
L 373.903187 264.195926 
L 376.795432 264.195926 
L 377.518494 265.025458 
L 380.410739 265.025458 
L 381.1338 265.886736 
L 384.026046 265.886736 
L 384.749107 266.852831 
L 387.641353 266.852831 
L 388.364414 267.811491 
L 391.256659 267.811491 
L 391.979721 268.674628 
L 394.871966 268.674628 
L 395.595027 269.71594 
L 398.487273 269.71594 
L 398.487273 269.71594 
" clip-path="url(#p214bdc2e24)" style="fill: none; stroke: #ffff00; stroke-width: 3; stroke-linecap: square"/>
   </g>
   <g id="patch_3">
    <path d="M 57.6 307.584 
L 57.6 41.472 
" style="fill: none; stroke: #ffffff; stroke-linejoin: miter; stroke-linecap: square"/>
   </g>
   <g id="patch_4">
    <path d="M 414.72 307.584 
L 414.72 41.472 
" style="fill: none; stroke: #ffffff; stroke-linejoin: miter; stroke-linecap: square"/>
   </g>
   <g id="patch_5">
    <path d="M 57.6 307.584 
L 414.72 307.584 
" style="fill: none; stroke: #ffffff; stroke-linejoin: miter; stroke-linecap: square"/>
   </g>
   <g id="patch_6">
    <path d="M 57.6 41.472 
L 414.72 41.472 
" style="fill: none; stroke: #ffffff; stroke-linejoin: miter; stroke-linecap: square"/>
   </g>
   <g id="legend_1">
    <g id="patch_7">
     <path d="M 243.124687 302.584 
L 407.72 302.584 
Q 409.72 302.584 409.72 300.584 
L 409.72 257.549625 
Q 409.72 255.549625 407.72 255.549625 
L 243.124687 255.549625 
Q 241.124687 255.549625 241.124687 257.549625 
L 241.124687 300.584 
Q 241.124687 302.584 243.124687 302.584 
z
" style="fill: #e5e5e5; opacity: 0.8; stroke: #cccccc; stroke-width: 0.5; stroke-linejoin: miter"/>
    </g>
    <g id="line2d_28">
     <path d="M 245.124687 263.648062 
L 255.124687 263.648062 
L 265.124687 263.648062 
" style="fill: none; stroke: #6495ed; stroke-width: 2; stroke-linecap: square"/>
    </g>
    <g id="text_15">
     <!-- Generator loss -->
     <g transform="translate(273.124687 267.148062) scale(0.1 -0.1)">
      <defs>
       <path id="DejaVuSans-47" d="M 3809 666 
L 3809 1919 
L 2778 1919 
L 2778 2438 
L 4434 2438 
L 4434 434 
Q 4069 175 3628 42 
Q 3188 -91 2688 -91 
Q 1594 -91 976 548 
Q 359 1188 359 2328 
Q 359 3472 976 4111 
Q 1594 4750 2688 4750 
Q 3144 4750 3555 4637 
Q 3966 4525 4313 4306 
L 4313 3634 
Q 3963 3931 3569 4081 
Q 3175 4231 2741 4231 
Q 1884 4231 1454 3753 
Q 1025 3275 1025 2328 
Q 1025 1384 1454 906 
Q 1884 428 2741 428 
Q 3075 428 3337 486 
Q 3600 544 3809 666 
z
" transform="scale(0.015625)"/>
       <path id="DejaVuSans-65" d="M 3597 1894 
L 3597 1613 
L 953 1613 
Q 991 1019 1311 708 
Q 1631 397 2203 397 
Q 2534 397 2845 478 
Q 3156 559 3463 722 
L 3463 178 
Q 3153 47 2828 -22 
Q 2503 -91 2169 -91 
Q 1331 -91 842 396 
Q 353 884 353 1716 
Q 353 2575 817 3079 
Q 1281 3584 2069 3584 
Q 2775 3584 3186 3129 
Q 3597 2675 3597 1894 
z
M 3022 2063 
Q 3016 2534 2758 2815 
Q 2500 3097 2075 3097 
Q 1594 3097 1305 2825 
Q 1016 2553 972 2059 
L 3022 2063 
z
" transform="scale(0.015625)"/>
       <path id="DejaVuSans-6e" d="M 3513 2113 
L 3513 0 
L 2938 0 
L 2938 2094 
Q 2938 2591 2744 2837 
Q 2550 3084 2163 3084 
Q 1697 3084 1428 2787 
Q 1159 2491 1159 1978 
L 1159 0 
L 581 0 
L 581 3500 
L 1159 3500 
L 1159 2956 
Q 1366 3272 1645 3428 
Q 1925 3584 2291 3584 
Q 2894 3584 3203 3211 
Q 3513 2838 3513 2113 
z
" transform="scale(0.015625)"/>
       <path id="DejaVuSans-72" d="M 2631 2963 
Q 2534 3019 2420 3045 
Q 2306 3072 2169 3072 
Q 1681 3072 1420 2755 
Q 1159 2438 1159 1844 
L 1159 0 
L 581 0 
L 581 3500 
L 1159 3500 
L 1159 2956 
Q 1341 3275 1631 3429 
Q 1922 3584 2338 3584 
Q 2397 3584 2469 3576 
Q 2541 3569 2628 3553 
L 2631 2963 
z
" transform="scale(0.015625)"/>
       <path id="DejaVuSans-61" d="M 2194 1759 
Q 1497 1759 1228 1600 
Q 959 1441 959 1056 
Q 959 750 1161 570 
Q 1363 391 1709 391 
Q 2188 391 2477 730 
Q 2766 1069 2766 1631 
L 2766 1759 
L 2194 1759 
z
M 3341 1997 
L 3341 0 
L 2766 0 
L 2766 531 
Q 2569 213 2275 61 
Q 1981 -91 1556 -91 
Q 1019 -91 701 211 
Q 384 513 384 1019 
Q 384 1609 779 1909 
Q 1175 2209 1959 2209 
L 2766 2209 
L 2766 2266 
Q 2766 2663 2505 2880 
Q 2244 3097 1772 3097 
Q 1472 3097 1187 3025 
Q 903 2953 641 2809 
L 641 3341 
Q 956 3463 1253 3523 
Q 1550 3584 1831 3584 
Q 2591 3584 2966 3190 
Q 3341 2797 3341 1997 
z
" transform="scale(0.015625)"/>
       <path id="DejaVuSans-74" d="M 1172 4494 
L 1172 3500 
L 2356 3500 
L 2356 3053 
L 1172 3053 
L 1172 1153 
Q 1172 725 1289 603 
Q 1406 481 1766 481 
L 2356 481 
L 2356 0 
L 1766 0 
Q 1100 0 847 248 
Q 594 497 594 1153 
L 594 3053 
L 172 3053 
L 172 3500 
L 594 3500 
L 594 4494 
L 1172 4494 
z
" transform="scale(0.015625)"/>
       <path id="DejaVuSans-20" transform="scale(0.015625)"/>
       <path id="DejaVuSans-6c" d="M 603 4863 
L 1178 4863 
L 1178 0 
L 603 0 
L 603 4863 
z
" transform="scale(0.015625)"/>
      </defs>
      <use xlink:href="#DejaVuSans-47"/>
      <use xlink:href="#DejaVuSans-65" x="77.490234"/>
      <use xlink:href="#DejaVuSans-6e" x="139.013672"/>
      <use xlink:href="#DejaVuSans-65" x="202.392578"/>
      <use xlink:href="#DejaVuSans-72" x="263.916016"/>
      <use xlink:href="#DejaVuSans-61" x="305.029297"/>
      <use xlink:href="#DejaVuSans-74" x="366.308594"/>
      <use xlink:href="#DejaVuSans-6f" x="405.517578"/>
      <use xlink:href="#DejaVuSans-72" x="466.699219"/>
      <use xlink:href="#DejaVuSans-20" x="507.8125"/>
      <use xlink:href="#DejaVuSans-6c" x="539.599609"/>
      <use xlink:href="#DejaVuSans-6f" x="567.382812"/>
      <use xlink:href="#DejaVuSans-73" x="628.564453"/>
      <use xlink:href="#DejaVuSans-73" x="680.664062"/>
     </g>
    </g>
    <g id="line2d_29">
     <path d="M 245.124687 278.326188 
L 255.124687 278.326188 
L 265.124687 278.326188 
" style="fill: none; stroke: #dc143c; stroke-width: 2; stroke-linecap: square"/>
    </g>
    <g id="text_16">
     <!-- Average discriminator loss -->
     <g transform="translate(273.124687 281.826188) scale(0.1 -0.1)">
      <defs>
       <path id="DejaVuSans-41" d="M 2188 4044 
L 1331 1722 
L 3047 1722 
L 2188 4044 
z
M 1831 4666 
L 2547 4666 
L 4325 0 
L 3669 0 
L 3244 1197 
L 1141 1197 
L 716 0 
L 50 0 
L 1831 4666 
z
" transform="scale(0.015625)"/>
       <path id="DejaVuSans-76" d="M 191 3500 
L 800 3500 
L 1894 563 
L 2988 3500 
L 3597 3500 
L 2284 0 
L 1503 0 
L 191 3500 
z
" transform="scale(0.015625)"/>
       <path id="DejaVuSans-67" d="M 2906 1791 
Q 2906 2416 2648 2759 
Q 2391 3103 1925 3103 
Q 1463 3103 1205 2759 
Q 947 2416 947 1791 
Q 947 1169 1205 825 
Q 1463 481 1925 481 
Q 2391 481 2648 825 
Q 2906 1169 2906 1791 
z
M 3481 434 
Q 3481 -459 3084 -895 
Q 2688 -1331 1869 -1331 
Q 1566 -1331 1297 -1286 
Q 1028 -1241 775 -1147 
L 775 -588 
Q 1028 -725 1275 -790 
Q 1522 -856 1778 -856 
Q 2344 -856 2625 -561 
Q 2906 -266 2906 331 
L 2906 616 
Q 2728 306 2450 153 
Q 2172 0 1784 0 
Q 1141 0 747 490 
Q 353 981 353 1791 
Q 353 2603 747 3093 
Q 1141 3584 1784 3584 
Q 2172 3584 2450 3431 
Q 2728 3278 2906 2969 
L 2906 3500 
L 3481 3500 
L 3481 434 
z
" transform="scale(0.015625)"/>
       <path id="DejaVuSans-64" d="M 2906 2969 
L 2906 4863 
L 3481 4863 
L 3481 0 
L 2906 0 
L 2906 525 
Q 2725 213 2448 61 
Q 2172 -91 1784 -91 
Q 1150 -91 751 415 
Q 353 922 353 1747 
Q 353 2572 751 3078 
Q 1150 3584 1784 3584 
Q 2172 3584 2448 3432 
Q 2725 3281 2906 2969 
z
M 947 1747 
Q 947 1113 1208 752 
Q 1469 391 1925 391 
Q 2381 391 2643 752 
Q 2906 1113 2906 1747 
Q 2906 2381 2643 2742 
Q 2381 3103 1925 3103 
Q 1469 3103 1208 2742 
Q 947 2381 947 1747 
z
" transform="scale(0.015625)"/>
       <path id="DejaVuSans-69" d="M 603 3500 
L 1178 3500 
L 1178 0 
L 603 0 
L 603 3500 
z
M 603 4863 
L 1178 4863 
L 1178 4134 
L 603 4134 
L 603 4863 
z
" transform="scale(0.015625)"/>
       <path id="DejaVuSans-6d" d="M 3328 2828 
Q 3544 3216 3844 3400 
Q 4144 3584 4550 3584 
Q 5097 3584 5394 3201 
Q 5691 2819 5691 2113 
L 5691 0 
L 5113 0 
L 5113 2094 
Q 5113 2597 4934 2840 
Q 4756 3084 4391 3084 
Q 3944 3084 3684 2787 
Q 3425 2491 3425 1978 
L 3425 0 
L 2847 0 
L 2847 2094 
Q 2847 2600 2669 2842 
Q 2491 3084 2119 3084 
Q 1678 3084 1418 2786 
Q 1159 2488 1159 1978 
L 1159 0 
L 581 0 
L 581 3500 
L 1159 3500 
L 1159 2956 
Q 1356 3278 1631 3431 
Q 1906 3584 2284 3584 
Q 2666 3584 2933 3390 
Q 3200 3197 3328 2828 
z
" transform="scale(0.015625)"/>
      </defs>
      <use xlink:href="#DejaVuSans-41"/>
      <use xlink:href="#DejaVuSans-76" x="62.533203"/>
      <use xlink:href="#DejaVuSans-65" x="121.712891"/>
      <use xlink:href="#DejaVuSans-72" x="183.236328"/>
      <use xlink:href="#DejaVuSans-61" x="224.349609"/>
      <use xlink:href="#DejaVuSans-67" x="285.628906"/>
      <use xlink:href="#DejaVuSans-65" x="349.105469"/>
      <use xlink:href="#DejaVuSans-20" x="410.628906"/>
      <use xlink:href="#DejaVuSans-64" x="442.416016"/>
      <use xlink:href="#DejaVuSans-69" x="505.892578"/>
      <use xlink:href="#DejaVuSans-73" x="533.675781"/>
      <use xlink:href="#DejaVuSans-63" x="585.775391"/>
      <use xlink:href="#DejaVuSans-72" x="640.755859"/>
      <use xlink:href="#DejaVuSans-69" x="681.869141"/>
      <use xlink:href="#DejaVuSans-6d" x="709.652344"/>
      <use xlink:href="#DejaVuSans-69" x="807.064453"/>
      <use xlink:href="#DejaVuSans-6e" x="834.847656"/>
      <use xlink:href="#DejaVuSans-61" x="898.226562"/>
      <use xlink:href="#DejaVuSans-74" x="959.505859"/>
      <use xlink:href="#DejaVuSans-6f" x="998.714844"/>
      <use xlink:href="#DejaVuSans-72" x="1059.896484"/>
      <use xlink:href="#DejaVuSans-20" x="1101.009766"/>
      <use xlink:href="#DejaVuSans-6c" x="1132.796875"/>
      <use xlink:href="#DejaVuSans-6f" x="1160.580078"/>
      <use xlink:href="#DejaVuSans-73" x="1221.761719"/>
      <use xlink:href="#DejaVuSans-73" x="1273.861328"/>
     </g>
    </g>
    <g id="line2d_30">
     <path d="M 245.124687 293.004312 
L 255.124687 293.004312 
L 265.124687 293.004312 
" style="fill: none; stroke: #ffff00; stroke-width: 3; stroke-linecap: square"/>
    </g>
    <g id="text_17">
     <!-- ROC AUC -->
     <g transform="translate(273.124687 296.504312) scale(0.1 -0.1)">
      <defs>
       <path id="DejaVuSans-52" d="M 2841 2188 
Q 3044 2119 3236 1894 
Q 3428 1669 3622 1275 
L 4263 0 
L 3584 0 
L 2988 1197 
Q 2756 1666 2539 1819 
Q 2322 1972 1947 1972 
L 1259 1972 
L 1259 0 
L 628 0 
L 628 4666 
L 2053 4666 
Q 2853 4666 3247 4331 
Q 3641 3997 3641 3322 
Q 3641 2881 3436 2590 
Q 3231 2300 2841 2188 
z
M 1259 4147 
L 1259 2491 
L 2053 2491 
Q 2509 2491 2742 2702 
Q 2975 2913 2975 3322 
Q 2975 3731 2742 3939 
Q 2509 4147 2053 4147 
L 1259 4147 
z
" transform="scale(0.015625)"/>
       <path id="DejaVuSans-4f" d="M 2522 4238 
Q 1834 4238 1429 3725 
Q 1025 3213 1025 2328 
Q 1025 1447 1429 934 
Q 1834 422 2522 422 
Q 3209 422 3611 934 
Q 4013 1447 4013 2328 
Q 4013 3213 3611 3725 
Q 3209 4238 2522 4238 
z
M 2522 4750 
Q 3503 4750 4090 4092 
Q 4678 3434 4678 2328 
Q 4678 1225 4090 567 
Q 3503 -91 2522 -91 
Q 1538 -91 948 565 
Q 359 1222 359 2328 
Q 359 3434 948 4092 
Q 1538 4750 2522 4750 
z
" transform="scale(0.015625)"/>
       <path id="DejaVuSans-43" d="M 4122 4306 
L 4122 3641 
Q 3803 3938 3442 4084 
Q 3081 4231 2675 4231 
Q 1875 4231 1450 3742 
Q 1025 3253 1025 2328 
Q 1025 1406 1450 917 
Q 1875 428 2675 428 
Q 3081 428 3442 575 
Q 3803 722 4122 1019 
L 4122 359 
Q 3791 134 3420 21 
Q 3050 -91 2638 -91 
Q 1578 -91 968 557 
Q 359 1206 359 2328 
Q 359 3453 968 4101 
Q 1578 4750 2638 4750 
Q 3056 4750 3426 4639 
Q 3797 4528 4122 4306 
z
" transform="scale(0.015625)"/>
       <path id="DejaVuSans-55" d="M 556 4666 
L 1191 4666 
L 1191 1831 
Q 1191 1081 1462 751 
Q 1734 422 2344 422 
Q 2950 422 3222 751 
Q 3494 1081 3494 1831 
L 3494 4666 
L 4128 4666 
L 4128 1753 
Q 4128 841 3676 375 
Q 3225 -91 2344 -91 
Q 1459 -91 1007 375 
Q 556 841 556 1753 
L 556 4666 
z
" transform="scale(0.015625)"/>
      </defs>
      <use xlink:href="#DejaVuSans-52"/>
      <use xlink:href="#DejaVuSans-4f" x="69.482422"/>
      <use xlink:href="#DejaVuSans-43" x="148.193359"/>
      <use xlink:href="#DejaVuSans-20" x="218.017578"/>
      <use xlink:href="#DejaVuSans-41" x="249.804688"/>
      <use xlink:href="#DejaVuSans-55" x="318.212891"/>
      <use xlink:href="#DejaVuSans-43" x="391.40625"/>
     </g>
    </g>
   </g>
  </g>
 </g>
 <defs>
  <clipPath id="p214bdc2e24">
   <rect x="57.6" y="41.472" width="357.12" height="266.112"/>
  </clipPath>
 </defs>
</svg>
