<?xml version="1.0" encoding="utf-8" standalone="no"?>
<!DOCTYPE svg PUBLIC "-//W3C//DTD SVG 1.1//EN"
  "http://www.w3.org/Graphics/SVG/1.1/DTD/svg11.dtd">
<svg xmlns:xlink="http://www.w3.org/1999/xlink" width="460.8pt" height="345.6pt" viewBox="0 0 460.8 345.6" xmlns="http://www.w3.org/2000/svg" version="1.1">
 <metadata>
  <rdf:RDF xmlns:dc="http://purl.org/dc/elements/1.1/" xmlns:cc="http://creativecommons.org/ns#" xmlns:rdf="http://www.w3.org/1999/02/22-rdf-syntax-ns#">
   <cc:Work>
    <dc:type rdf:resource="http://purl.org/dc/dcmitype/StillImage"/>
    <dc:date>2023-07-12T19:19:53.596755</dc:date>
    <dc:format>image/svg+xml</dc:format>
    <dc:creator>
     <cc:Agent>
      <dc:title>Matplotlib v3.7.1, https://matplotlib.org/</dc:title>
     </cc:Agent>
    </dc:creator>
   </cc:Work>
  </rdf:RDF>
 </metadata>
 <defs>
  <style type="text/css">*{stroke-linejoin: round; stroke-linecap: butt}</style>
 </defs>
 <g id="figure_1">
  <g id="patch_1">
   <path d="M 0 345.6 
L 460.8 345.6 
L 460.8 0 
L 0 0 
z
" style="fill: #ffffff"/>
  </g>
  <g id="axes_1">
   <g id="patch_2">
    <path d="M 57.6 307.584 
L 414.72 307.584 
L 414.72 41.472 
L 57.6 41.472 
z
" style="fill: #e5e5e5"/>
   </g>
   <g id="matplotlib.axis_1">
    <g id="xtick_1">
     <g id="line2d_1">
      <path d="M 70.184923 307.584 
L 70.184923 41.472 
" clip-path="url(#p70c6ac217a)" style="fill: none; stroke: #ffffff; stroke-width: 0.8; stroke-linecap: square"/>
     </g>
     <g id="line2d_2">
      <defs>
       <path id="m3faefb6d6a" d="M 0 0 
L 0 3.5 
" style="stroke: #555555; stroke-width: 0.8"/>
      </defs>
      <g>
       <use xlink:href="#m3faefb6d6a" x="70.184923" y="307.584" style="fill: #555555; stroke: #555555; stroke-width: 0.8"/>
      </g>
     </g>
     <g id="text_1">
      <!-- 0 -->
      <g style="fill: #555555" transform="translate(67.003673 322.182437) scale(0.1 -0.1)">
       <defs>
        <path id="DejaVuSans-30" d="M 2034 4250 
Q 1547 4250 1301 3770 
Q 1056 3291 1056 2328 
Q 1056 1369 1301 889 
Q 1547 409 2034 409 
Q 2525 409 2770 889 
Q 3016 1369 3016 2328 
Q 3016 3291 2770 3770 
Q 2525 4250 2034 4250 
z
M 2034 4750 
Q 2819 4750 3233 4129 
Q 3647 3509 3647 2328 
Q 3647 1150 3233 529 
Q 2819 -91 2034 -91 
Q 1250 -91 836 529 
Q 422 1150 422 2328 
Q 422 3509 836 4129 
Q 1250 4750 2034 4750 
z
" transform="scale(0.015625)"/>
       </defs>
       <use xlink:href="#DejaVuSans-30"/>
      </g>
     </g>
    </g>
    <g id="xtick_2">
     <g id="line2d_3">
      <path d="M 143.141001 307.584 
L 143.141001 41.472 
" clip-path="url(#p70c6ac217a)" style="fill: none; stroke: #ffffff; stroke-width: 0.8; stroke-linecap: square"/>
     </g>
     <g id="line2d_4">
      <g>
       <use xlink:href="#m3faefb6d6a" x="143.141001" y="307.584" style="fill: #555555; stroke: #555555; stroke-width: 0.8"/>
      </g>
     </g>
     <g id="text_2">
      <!-- 20 -->
      <g style="fill: #555555" transform="translate(136.778501 322.182437) scale(0.1 -0.1)">
       <defs>
        <path id="DejaVuSans-32" d="M 1228 531 
L 3431 531 
L 3431 0 
L 469 0 
L 469 531 
Q 828 903 1448 1529 
Q 2069 2156 2228 2338 
Q 2531 2678 2651 2914 
Q 2772 3150 2772 3378 
Q 2772 3750 2511 3984 
Q 2250 4219 1831 4219 
Q 1534 4219 1204 4116 
Q 875 4013 500 3803 
L 500 4441 
Q 881 4594 1212 4672 
Q 1544 4750 1819 4750 
Q 2544 4750 2975 4387 
Q 3406 4025 3406 3419 
Q 3406 3131 3298 2873 
Q 3191 2616 2906 2266 
Q 2828 2175 2409 1742 
Q 1991 1309 1228 531 
z
" transform="scale(0.015625)"/>
       </defs>
       <use xlink:href="#DejaVuSans-32"/>
       <use xlink:href="#DejaVuSans-30" x="63.623047"/>
      </g>
     </g>
    </g>
    <g id="xtick_3">
     <g id="line2d_5">
      <path d="M 216.097079 307.584 
L 216.097079 41.472 
" clip-path="url(#p70c6ac217a)" style="fill: none; stroke: #ffffff; stroke-width: 0.8; stroke-linecap: square"/>
     </g>
     <g id="line2d_6">
      <g>
       <use xlink:href="#m3faefb6d6a" x="216.097079" y="307.584" style="fill: #555555; stroke: #555555; stroke-width: 0.8"/>
      </g>
     </g>
     <g id="text_3">
      <!-- 40 -->
      <g style="fill: #555555" transform="translate(209.734579 322.182437) scale(0.1 -0.1)">
       <defs>
        <path id="DejaVuSans-34" d="M 2419 4116 
L 825 1625 
L 2419 1625 
L 2419 4116 
z
M 2253 4666 
L 3047 4666 
L 3047 1625 
L 3713 1625 
L 3713 1100 
L 3047 1100 
L 3047 0 
L 2419 0 
L 2419 1100 
L 313 1100 
L 313 1709 
L 2253 4666 
z
" transform="scale(0.015625)"/>
       </defs>
       <use xlink:href="#DejaVuSans-34"/>
       <use xlink:href="#DejaVuSans-30" x="63.623047"/>
      </g>
     </g>
    </g>
    <g id="xtick_4">
     <g id="line2d_7">
      <path d="M 289.053156 307.584 
L 289.053156 41.472 
" clip-path="url(#p70c6ac217a)" style="fill: none; stroke: #ffffff; stroke-width: 0.8; stroke-linecap: square"/>
     </g>
     <g id="line2d_8">
      <g>
       <use xlink:href="#m3faefb6d6a" x="289.053156" y="307.584" style="fill: #555555; stroke: #555555; stroke-width: 0.8"/>
      </g>
     </g>
     <g id="text_4">
      <!-- 60 -->
      <g style="fill: #555555" transform="translate(282.690656 322.182437) scale(0.1 -0.1)">
       <defs>
        <path id="DejaVuSans-36" d="M 2113 2584 
Q 1688 2584 1439 2293 
Q 1191 2003 1191 1497 
Q 1191 994 1439 701 
Q 1688 409 2113 409 
Q 2538 409 2786 701 
Q 3034 994 3034 1497 
Q 3034 2003 2786 2293 
Q 2538 2584 2113 2584 
z
M 3366 4563 
L 3366 3988 
Q 3128 4100 2886 4159 
Q 2644 4219 2406 4219 
Q 1781 4219 1451 3797 
Q 1122 3375 1075 2522 
Q 1259 2794 1537 2939 
Q 1816 3084 2150 3084 
Q 2853 3084 3261 2657 
Q 3669 2231 3669 1497 
Q 3669 778 3244 343 
Q 2819 -91 2113 -91 
Q 1303 -91 875 529 
Q 447 1150 447 2328 
Q 447 3434 972 4092 
Q 1497 4750 2381 4750 
Q 2619 4750 2861 4703 
Q 3103 4656 3366 4563 
z
" transform="scale(0.015625)"/>
       </defs>
       <use xlink:href="#DejaVuSans-36"/>
       <use xlink:href="#DejaVuSans-30" x="63.623047"/>
      </g>
     </g>
    </g>
    <g id="xtick_5">
     <g id="line2d_9">
      <path d="M 362.009234 307.584 
L 362.009234 41.472 
" clip-path="url(#p70c6ac217a)" style="fill: none; stroke: #ffffff; stroke-width: 0.8; stroke-linecap: square"/>
     </g>
     <g id="line2d_10">
      <g>
       <use xlink:href="#m3faefb6d6a" x="362.009234" y="307.584" style="fill: #555555; stroke: #555555; stroke-width: 0.8"/>
      </g>
     </g>
     <g id="text_5">
      <!-- 80 -->
      <g style="fill: #555555" transform="translate(355.646734 322.182437) scale(0.1 -0.1)">
       <defs>
        <path id="DejaVuSans-38" d="M 2034 2216 
Q 1584 2216 1326 1975 
Q 1069 1734 1069 1313 
Q 1069 891 1326 650 
Q 1584 409 2034 409 
Q 2484 409 2743 651 
Q 3003 894 3003 1313 
Q 3003 1734 2745 1975 
Q 2488 2216 2034 2216 
z
M 1403 2484 
Q 997 2584 770 2862 
Q 544 3141 544 3541 
Q 544 4100 942 4425 
Q 1341 4750 2034 4750 
Q 2731 4750 3128 4425 
Q 3525 4100 3525 3541 
Q 3525 3141 3298 2862 
Q 3072 2584 2669 2484 
Q 3125 2378 3379 2068 
Q 3634 1759 3634 1313 
Q 3634 634 3220 271 
Q 2806 -91 2034 -91 
Q 1263 -91 848 271 
Q 434 634 434 1313 
Q 434 1759 690 2068 
Q 947 2378 1403 2484 
z
M 1172 3481 
Q 1172 3119 1398 2916 
Q 1625 2713 2034 2713 
Q 2441 2713 2670 2916 
Q 2900 3119 2900 3481 
Q 2900 3844 2670 4047 
Q 2441 4250 2034 4250 
Q 1625 4250 1398 4047 
Q 1172 3844 1172 3481 
z
" transform="scale(0.015625)"/>
       </defs>
       <use xlink:href="#DejaVuSans-38"/>
       <use xlink:href="#DejaVuSans-30" x="63.623047"/>
      </g>
     </g>
    </g>
   </g>
   <g id="matplotlib.axis_2">
    <g id="ytick_1">
     <g id="line2d_11">
      <path d="M 57.6 300.069526 
L 414.72 300.069526 
" clip-path="url(#p70c6ac217a)" style="fill: none; stroke: #ffffff; stroke-width: 0.8; stroke-linecap: square"/>
     </g>
     <g id="line2d_12">
      <defs>
       <path id="m86da254e93" d="M 0 0 
L -3.5 0 
" style="stroke: #555555; stroke-width: 0.8"/>
      </defs>
      <g>
       <use xlink:href="#m86da254e93" x="57.6" y="300.069526" style="fill: #555555; stroke: #555555; stroke-width: 0.8"/>
      </g>
     </g>
     <g id="text_6">
      <!-- 0.2 -->
      <g style="fill: #555555" transform="translate(34.696875 303.868744) scale(0.1 -0.1)">
       <defs>
        <path id="DejaVuSans-2e" d="M 684 794 
L 1344 794 
L 1344 0 
L 684 0 
L 684 794 
z
" transform="scale(0.015625)"/>
       </defs>
       <use xlink:href="#DejaVuSans-30"/>
       <use xlink:href="#DejaVuSans-2e" x="63.623047"/>
       <use xlink:href="#DejaVuSans-32" x="95.410156"/>
      </g>
     </g>
    </g>
    <g id="ytick_2">
     <g id="line2d_13">
      <path d="M 57.6 251.910578 
L 414.72 251.910578 
" clip-path="url(#p70c6ac217a)" style="fill: none; stroke: #ffffff; stroke-width: 0.8; stroke-linecap: square"/>
     </g>
     <g id="line2d_14">
      <g>
       <use xlink:href="#m86da254e93" x="57.6" y="251.910578" style="fill: #555555; stroke: #555555; stroke-width: 0.8"/>
      </g>
     </g>
     <g id="text_7">
      <!-- 0.4 -->
      <g style="fill: #555555" transform="translate(34.696875 255.709797) scale(0.1 -0.1)">
       <use xlink:href="#DejaVuSans-30"/>
       <use xlink:href="#DejaVuSans-2e" x="63.623047"/>
       <use xlink:href="#DejaVuSans-34" x="95.410156"/>
      </g>
     </g>
    </g>
    <g id="ytick_3">
     <g id="line2d_15">
      <path d="M 57.6 203.751631 
L 414.72 203.751631 
" clip-path="url(#p70c6ac217a)" style="fill: none; stroke: #ffffff; stroke-width: 0.8; stroke-linecap: square"/>
     </g>
     <g id="line2d_16">
      <g>
       <use xlink:href="#m86da254e93" x="57.6" y="203.751631" style="fill: #555555; stroke: #555555; stroke-width: 0.8"/>
      </g>
     </g>
     <g id="text_8">
      <!-- 0.6 -->
      <g style="fill: #555555" transform="translate(34.696875 207.55085) scale(0.1 -0.1)">
       <use xlink:href="#DejaVuSans-30"/>
       <use xlink:href="#DejaVuSans-2e" x="63.623047"/>
       <use xlink:href="#DejaVuSans-36" x="95.410156"/>
      </g>
     </g>
    </g>
    <g id="ytick_4">
     <g id="line2d_17">
      <path d="M 57.6 155.592684 
L 414.72 155.592684 
" clip-path="url(#p70c6ac217a)" style="fill: none; stroke: #ffffff; stroke-width: 0.8; stroke-linecap: square"/>
     </g>
     <g id="line2d_18">
      <g>
       <use xlink:href="#m86da254e93" x="57.6" y="155.592684" style="fill: #555555; stroke: #555555; stroke-width: 0.8"/>
      </g>
     </g>
     <g id="text_9">
      <!-- 0.8 -->
      <g style="fill: #555555" transform="translate(34.696875 159.391902) scale(0.1 -0.1)">
       <use xlink:href="#DejaVuSans-30"/>
       <use xlink:href="#DejaVuSans-2e" x="63.623047"/>
       <use xlink:href="#DejaVuSans-38" x="95.410156"/>
      </g>
     </g>
    </g>
    <g id="ytick_5">
     <g id="line2d_19">
      <path d="M 57.6 107.433736 
L 414.72 107.433736 
" clip-path="url(#p70c6ac217a)" style="fill: none; stroke: #ffffff; stroke-width: 0.8; stroke-linecap: square"/>
     </g>
     <g id="line2d_20">
      <g>
       <use xlink:href="#m86da254e93" x="57.6" y="107.433736" style="fill: #555555; stroke: #555555; stroke-width: 0.8"/>
      </g>
     </g>
     <g id="text_10">
      <!-- 1.0 -->
      <g style="fill: #555555" transform="translate(34.696875 111.232955) scale(0.1 -0.1)">
       <defs>
        <path id="DejaVuSans-31" d="M 794 531 
L 1825 531 
L 1825 4091 
L 703 3866 
L 703 4441 
L 1819 4666 
L 2450 4666 
L 2450 531 
L 3481 531 
L 3481 0 
L 794 0 
L 794 531 
z
" transform="scale(0.015625)"/>
       </defs>
       <use xlink:href="#DejaVuSans-31"/>
       <use xlink:href="#DejaVuSans-2e" x="63.623047"/>
       <use xlink:href="#DejaVuSans-30" x="95.410156"/>
      </g>
     </g>
    </g>
    <g id="ytick_6">
     <g id="line2d_21">
      <path d="M 57.6 59.274789 
L 414.72 59.274789 
" clip-path="url(#p70c6ac217a)" style="fill: none; stroke: #ffffff; stroke-width: 0.8; stroke-linecap: square"/>
     </g>
     <g id="line2d_22">
      <g>
       <use xlink:href="#m86da254e93" x="57.6" y="59.274789" style="fill: #555555; stroke: #555555; stroke-width: 0.8"/>
      </g>
     </g>
     <g id="text_11">
      <!-- 1.2 -->
      <g style="fill: #555555" transform="translate(34.696875 63.074008) scale(0.1 -0.1)">
       <use xlink:href="#DejaVuSans-31"/>
       <use xlink:href="#DejaVuSans-2e" x="63.623047"/>
       <use xlink:href="#DejaVuSans-32" x="95.410156"/>
      </g>
     </g>
    </g>
   </g>
   <g id="line2d_23">
    <path d="M 73.832727 184.016629 
L 77.480531 184.26873 
L 81.128335 184.322753 
L 84.776139 184.992827 
L 88.423943 185.663002 
L 92.071747 186.384602 
L 95.719551 185.651046 
L 99.367354 187.583709 
L 103.015158 189.267428 
L 106.662962 187.818329 
L 110.310766 188.294358 
L 113.95857 189.191159 
L 117.606374 190.3824 
L 121.254178 190.207415 
L 124.901982 190.795838 
L 128.549785 190.46863 
L 132.197589 192.53335 
L 135.845393 193.155889 
L 139.493197 193.780093 
L 143.141001 194.089461 
L 146.788805 193.99838 
L 150.436609 195.732878 
L 154.084413 196.574436 
L 157.732217 195.715238 
L 161.38002 197.518585 
L 165.027824 198.978793 
L 168.675628 198.504299 
L 172.323432 199.789708 
L 175.971236 200.424777 
L 179.61904 200.447339 
L 183.266844 202.538582 
L 186.914648 202.443037 
L 190.562451 202.846041 
L 194.210255 204.623094 
L 197.858059 204.636815 
L 201.505863 206.283662 
L 205.153667 206.614817 
L 208.801471 206.673404 
L 212.449275 208.625528 
L 216.097079 209.186265 
L 219.744883 209.24247 
L 223.392686 209.727426 
L 227.04049 211.784654 
L 230.688294 211.21984 
L 234.336098 213.029272 
L 237.983902 212.655691 
L 241.631706 213.525883 
L 245.27951 214.353748 
L 248.927314 214.447728 
L 252.575117 215.701088 
L 256.222921 216.562309 
L 259.870725 217.265652 
L 263.518529 218.17105 
L 267.166333 218.549697 
L 270.814137 220.177226 
L 274.461941 219.234641 
L 278.109745 219.72462 
L 281.757549 221.764482 
L 285.405352 222.160294 
L 289.053156 223.126547 
L 292.70096 223.319961 
L 296.348764 224.107855 
L 299.996568 224.540353 
L 303.644372 226.878387 
L 307.292176 226.844228 
L 310.93998 226.750334 
L 314.587783 227.704401 
L 318.235587 228.637241 
L 321.883391 228.818936 
L 325.531195 228.994194 
L 329.178999 231.059014 
L 332.826803 231.252199 
L 336.474607 232.309984 
L 340.122411 232.013139 
L 343.770215 233.588087 
L 347.418018 232.93065 
L 351.065822 234.056158 
L 354.713626 235.292603 
L 358.36143 235.323977 
L 362.009234 235.766758 
L 365.657038 237.123556 
L 369.304842 237.415751 
L 372.952646 238.395222 
L 376.600449 238.851244 
L 380.248253 239.875573 
L 383.896057 239.096334 
L 387.543861 241.79496 
L 391.191665 240.988666 
L 394.839469 242.991907 
L 398.487273 242.47445 
" clip-path="url(#p70c6ac217a)" style="fill: none; stroke: #ff00ff; stroke-opacity: 0.3; stroke-width: 0.5; stroke-linecap: square"/>
   </g>
   <g id="line2d_24">
    <path d="M 73.832727 191.816242 
L 77.480531 192.444723 
L 81.128335 193.805569 
L 84.776139 196.056885 
L 88.423943 196.100029 
L 92.071747 197.848836 
L 95.719551 198.866011 
L 99.367354 199.802553 
L 103.015158 198.829756 
L 106.662962 201.712611 
L 110.310766 202.223057 
L 113.95857 203.30832 
L 117.606374 204.386522 
L 121.254178 204.686977 
L 124.901982 206.807728 
L 128.549785 207.049783 
L 132.197589 208.19326 
L 135.845393 209.400103 
L 139.493197 211.344104 
L 143.141001 211.110417 
L 146.788805 212.091395 
L 150.436609 213.627182 
L 154.084413 216.072372 
L 157.732217 216.578642 
L 161.38002 217.993682 
L 165.027824 218.566576 
L 168.675628 221.069635 
L 172.323432 223.009761 
L 175.971236 223.160792 
L 179.61904 225.929974 
L 183.266844 227.059084 
L 186.914648 228.307184 
L 190.562451 229.174691 
L 194.210255 231.324119 
L 197.858059 232.896663 
L 201.505863 235.51765 
L 205.153667 235.218809 
L 208.801471 238.029908 
L 212.449275 239.344331 
L 216.097079 240.625799 
L 219.744883 242.030204 
L 223.392686 243.435894 
L 227.04049 244.535115 
L 230.688294 246.313797 
L 234.336098 247.798769 
L 237.983902 249.594968 
L 241.631706 249.667248 
L 245.27951 251.217215 
L 248.927314 252.561189 
L 252.575117 254.562938 
L 256.222921 255.52769 
L 259.870725 257.272658 
L 263.518529 257.652016 
L 267.166333 258.698427 
L 270.814137 260.610249 
L 274.461941 260.733329 
L 278.109745 262.765813 
L 281.757549 263.247655 
L 285.405352 265.307653 
L 289.053156 265.781098 
L 292.70096 267.044583 
L 296.348764 268.057998 
L 299.996568 268.622962 
L 303.644372 270.12411 
L 307.292176 271.440247 
L 310.93998 272.663186 
L 314.587783 273.48765 
L 318.235587 275.3024 
L 321.883391 274.336557 
L 325.531195 276.408481 
L 329.178999 277.56006 
L 332.826803 278.134648 
L 336.474607 279.01467 
L 340.122411 280.028113 
L 343.770215 281.509304 
L 347.418018 281.712263 
L 351.065822 282.313553 
L 354.713626 283.617483 
L 358.36143 284.760644 
L 362.009234 284.763795 
L 365.657038 286.587759 
L 369.304842 287.063551 
L 372.952646 288.071135 
L 376.600449 288.261908 
L 380.248253 289.587191 
L 383.896057 290.150867 
L 387.543861 290.277007 
L 391.191665 291.334678 
L 394.839469 292.19455 
L 398.487273 293.380556 
" clip-path="url(#p70c6ac217a)" style="fill: none; stroke: #ff00ff; stroke-opacity: 0.3; stroke-width: 0.5; stroke-linecap: square"/>
   </g>
   <g id="line2d_25">
    <path d="M 73.832727 175.796501 
L 77.480531 177.013908 
L 81.128335 177.087077 
L 84.776139 177.529937 
L 88.423943 178.522856 
L 92.071747 177.8812 
L 95.719551 178.650794 
L 99.367354 179.154093 
L 103.015158 178.648943 
L 106.662962 179.931969 
L 110.310766 179.869995 
L 113.95857 180.539208 
L 117.606374 180.672457 
L 121.254178 180.632686 
L 124.901982 181.306707 
L 128.549785 180.986963 
L 132.197589 180.694961 
L 135.845393 181.781444 
L 139.493197 181.240255 
L 143.141001 180.801356 
L 146.788805 183.07921 
L 150.436609 181.75439 
L 154.084413 182.712375 
L 157.732217 181.689933 
L 161.38002 182.740492 
L 165.027824 181.96164 
L 168.675628 183.011007 
L 172.323432 183.866315 
L 175.971236 183.386382 
L 179.61904 183.620873 
L 183.266844 183.339536 
L 186.914648 184.109475 
L 190.562451 184.235002 
L 194.210255 184.566688 
L 197.858059 184.524549 
L 201.505863 185.674943 
L 205.153667 183.607195 
L 208.801471 184.915209 
L 212.449275 185.032985 
L 216.097079 184.957836 
L 219.744883 185.550163 
L 223.392686 184.873214 
L 227.04049 185.749174 
L 230.688294 186.294009 
L 234.336098 186.533653 
L 237.983902 185.820592 
L 241.631706 186.986387 
L 245.27951 186.655333 
L 248.927314 187.587656 
L 252.575117 186.136577 
L 256.222921 187.164042 
L 259.870725 187.969489 
L 263.518529 186.855808 
L 267.166333 188.304433 
L 270.814137 187.49979 
L 274.461941 188.802996 
L 278.109745 187.880605 
L 281.757549 188.547263 
L 285.405352 189.44204 
L 289.053156 188.501493 
L 292.70096 188.9974 
L 296.348764 189.499881 
L 299.996568 189.950592 
L 303.644372 190.363986 
L 307.292176 190.044399 
L 310.93998 190.454522 
L 314.587783 189.95883 
L 318.235587 190.518649 
L 321.883391 190.79568 
L 325.531195 191.427233 
L 329.178999 190.580651 
L 332.826803 191.488848 
L 336.474607 191.326478 
L 340.122411 191.375004 
L 343.770215 191.495292 
L 347.418018 192.624388 
L 351.065822 192.814314 
L 354.713626 191.654605 
L 358.36143 191.986176 
L 362.009234 192.991079 
L 365.657038 193.355015 
L 369.304842 193.966115 
L 372.952646 193.439092 
L 376.600449 193.315316 
L 380.248253 194.152238 
L 383.896057 194.333625 
L 387.543861 194.291816 
L 391.191665 194.574216 
L 394.839469 194.86992 
L 398.487273 194.938396 
" clip-path="url(#p70c6ac217a)" style="fill: none; stroke: #ff00ff; stroke-opacity: 0.3; stroke-width: 0.5; stroke-linecap: square"/>
   </g>
   <g id="line2d_26">
    <path d="M 73.832727 192.042825 
L 77.480531 192.420023 
L 81.128335 192.972263 
L 84.776139 192.327593 
L 88.423943 192.946429 
L 92.071747 192.394906 
L 95.719551 193.737782 
L 99.367354 193.288865 
L 103.015158 193.244085 
L 106.662962 194.157204 
L 110.310766 192.531384 
L 113.95857 195.056761 
L 117.606374 195.28198 
L 121.254178 194.105292 
L 124.901982 193.938386 
L 128.549785 195.315809 
L 132.197589 195.499521 
L 135.845393 195.987634 
L 139.493197 195.277416 
L 143.141001 194.474466 
L 146.788805 195.533895 
L 150.436609 196.701068 
L 154.084413 195.868623 
L 157.732217 196.273091 
L 161.38002 196.400139 
L 165.027824 197.573325 
L 168.675628 196.227967 
L 172.323432 197.614704 
L 175.971236 196.803272 
L 179.61904 196.652944 
L 183.266844 195.598251 
L 186.914648 196.775112 
L 190.562451 198.091637 
L 194.210255 198.322425 
L 197.858059 196.810721 
L 201.505863 198.575129 
L 205.153667 196.928899 
L 208.801471 198.817657 
L 212.449275 199.318387 
L 216.097079 197.950954 
L 219.744883 198.140579 
L 223.392686 198.926765 
L 227.04049 198.639112 
L 230.688294 199.458725 
L 234.336098 199.59183 
L 237.983902 199.752894 
L 241.631706 200.738206 
L 245.27951 200.344073 
L 248.927314 201.085809 
L 252.575117 200.553849 
L 256.222921 200.461993 
L 259.870725 200.75784 
L 263.518529 201.215685 
L 267.166333 200.503529 
L 270.814137 201.664114 
L 274.461941 202.16147 
L 278.109745 203.531028 
L 281.757549 202.704324 
L 285.405352 201.923937 
L 289.053156 202.497835 
L 292.70096 202.56156 
L 296.348764 203.943676 
L 299.996568 203.737431 
L 303.644372 204.217076 
L 307.292176 204.129957 
L 310.93998 204.991335 
L 314.587783 204.831592 
L 318.235587 205.141993 
L 321.883391 203.655464 
L 325.531195 204.301426 
L 329.178999 203.906804 
L 332.826803 204.34322 
L 336.474607 204.915353 
L 340.122411 205.496873 
L 343.770215 205.716165 
L 347.418018 205.418508 
L 351.065822 206.349985 
L 354.713626 207.667299 
L 358.36143 207.77632 
L 362.009234 207.17442 
L 365.657038 206.666328 
L 369.304842 206.464718 
L 372.952646 206.820029 
L 376.600449 208.064145 
L 380.248253 206.508508 
L 383.896057 207.471746 
L 387.543861 208.610343 
L 391.191665 208.465756 
L 394.839469 208.088071 
L 398.487273 208.787926 
" clip-path="url(#p70c6ac217a)" style="fill: none; stroke: #ff00ff; stroke-opacity: 0.3; stroke-width: 0.5; stroke-linecap: square"/>
   </g>
   <g id="line2d_27">
    <path d="M 73.832727 192.614025 
L 77.480531 195.771098 
L 81.128335 195.145086 
L 84.776139 196.0141 
L 88.423943 196.999499 
L 92.071747 197.444426 
L 95.719551 198.333562 
L 99.367354 198.290433 
L 103.015158 200.783302 
L 106.662962 201.372012 
L 110.310766 202.323223 
L 113.95857 201.907675 
L 117.606374 203.886137 
L 121.254178 203.500844 
L 124.901982 203.550461 
L 128.549785 205.266085 
L 132.197589 204.711649 
L 135.845393 207.464699 
L 139.493197 207.510555 
L 143.141001 208.263056 
L 146.788805 209.608314 
L 150.436609 207.644407 
L 154.084413 209.829745 
L 157.732217 211.334488 
L 161.38002 212.058958 
L 165.027824 212.296965 
L 168.675628 212.629613 
L 172.323432 215.239153 
L 175.971236 214.726281 
L 179.61904 215.513573 
L 183.266844 216.297146 
L 186.914648 216.897396 
L 190.562451 218.354015 
L 194.210255 217.864036 
L 197.858059 219.275804 
L 201.505863 219.789006 
L 205.153667 219.439695 
L 208.801471 220.695207 
L 212.449275 221.663899 
L 216.097079 222.557973 
L 219.744883 223.087723 
L 223.392686 223.29084 
L 227.04049 224.352464 
L 230.688294 225.085187 
L 234.336098 226.394651 
L 237.983902 227.480631 
L 241.631706 227.259732 
L 245.27951 228.068215 
L 248.927314 228.689304 
L 252.575117 230.058646 
L 256.222921 230.057634 
L 259.870725 230.751541 
L 263.518529 232.638799 
L 267.166333 232.065446 
L 270.814137 234.084403 
L 274.461941 233.653262 
L 278.109745 233.871003 
L 281.757549 235.61943 
L 285.405352 236.13965 
L 289.053156 236.262185 
L 292.70096 236.637186 
L 296.348764 238.139676 
L 299.996568 237.201741 
L 303.644372 239.563414 
L 307.292176 238.178981 
L 310.93998 240.222767 
L 314.587783 241.212263 
L 318.235587 241.529891 
L 321.883391 240.763519 
L 325.531195 242.257584 
L 329.178999 243.69538 
L 332.826803 244.482743 
L 336.474607 243.854929 
L 340.122411 245.891633 
L 343.770215 245.048489 
L 347.418018 246.280585 
L 351.065822 246.604542 
L 354.713626 247.908659 
L 358.36143 247.665212 
L 362.009234 249.056844 
L 365.657038 248.320633 
L 369.304842 249.753657 
L 372.952646 249.888599 
L 376.600449 250.22149 
L 380.248253 250.769755 
L 383.896057 251.727267 
L 387.543861 251.319398 
L 391.191665 254.264836 
L 394.839469 252.801543 
L 398.487273 253.857743 
" clip-path="url(#p70c6ac217a)" style="fill: none; stroke: #ff00ff; stroke-opacity: 0.3; stroke-width: 0.5; stroke-linecap: square"/>
   </g>
   <g id="line2d_28">
    <path d="M 73.832727 182.043779 
L 77.480531 183.449734 
L 81.128335 183.737085 
L 84.776139 185.976877 
L 88.423943 186.421646 
L 92.071747 186.988569 
L 95.719551 189.136992 
L 99.367354 189.835284 
L 103.015158 190.540551 
L 106.662962 191.714297 
L 110.310766 192.728903 
L 113.95857 193.546133 
L 117.606374 194.943678 
L 121.254178 196.647447 
L 124.901982 196.390839 
L 128.549785 198.067955 
L 132.197589 198.82113 
L 135.845393 199.694666 
L 139.493197 200.285385 
L 143.141001 201.212168 
L 146.788805 201.812203 
L 150.436609 203.719404 
L 154.084413 204.210603 
L 157.732217 205.358142 
L 161.38002 206.81456 
L 165.027824 206.937676 
L 168.675628 207.848944 
L 172.323432 207.968428 
L 175.971236 210.471889 
L 179.61904 210.326542 
L 183.266844 211.949334 
L 186.914648 213.638995 
L 190.562451 213.275331 
L 194.210255 215.328655 
L 197.858059 216.40469 
L 201.505863 217.012058 
L 205.153667 218.452316 
L 208.801471 219.809788 
L 212.449275 222.065582 
L 216.097079 222.223015 
L 219.744883 222.730877 
L 223.392686 225.393809 
L 227.04049 224.942394 
L 230.688294 226.677208 
L 234.336098 228.139037 
L 237.983902 229.181982 
L 241.631706 229.909538 
L 245.27951 230.688519 
L 248.927314 232.156915 
L 252.575117 233.323176 
L 256.222921 233.378663 
L 259.870725 235.640213 
L 263.518529 236.898861 
L 267.166333 236.206906 
L 270.814137 238.255293 
L 274.461941 239.19101 
L 278.109745 240.125945 
L 281.757549 241.485872 
L 285.405352 243.203506 
L 289.053156 243.195648 
L 292.70096 244.116252 
L 296.348764 245.173104 
L 299.996568 246.276703 
L 303.644372 247.518035 
L 307.292176 247.781388 
L 310.93998 249.732688 
L 314.587783 249.085843 
L 318.235587 252.21457 
L 321.883391 251.427135 
L 325.531195 252.585301 
L 329.178999 253.125895 
L 332.826803 254.387514 
L 336.474607 254.948359 
L 340.122411 256.422008 
L 343.770215 257.339017 
L 347.418018 259.095804 
L 351.065822 259.178704 
L 354.713626 259.115108 
L 358.36143 261.177804 
L 362.009234 261.205791 
L 365.657038 263.281806 
L 369.304842 265.103531 
L 372.952646 265.542215 
L 376.600449 264.124383 
L 380.248253 266.497753 
L 383.896057 268.497169 
L 387.543861 268.246281 
L 391.191665 269.565403 
L 394.839469 269.912819 
L 398.487273 271.017853 
" clip-path="url(#p70c6ac217a)" style="fill: none; stroke: #ff00ff; stroke-opacity: 0.3; stroke-width: 0.5; stroke-linecap: square"/>
   </g>
   <g id="line2d_29">
    <path d="M 73.832727 157.10404 
L 77.480531 158.69299 
L 81.128335 159.920228 
L 84.776139 162.026699 
L 88.423943 163.762086 
L 92.071747 165.432687 
L 95.719551 166.88589 
L 99.367354 168.521959 
L 103.015158 169.913375 
L 106.662962 170.885598 
L 110.310766 171.81561 
L 113.95857 173.542601 
L 117.606374 174.126719 
L 121.254178 175.990518 
L 124.901982 177.793176 
L 128.549785 179.436808 
L 132.197589 180.517349 
L 135.845393 182.005702 
L 139.493197 183.737875 
L 143.141001 184.807422 
L 146.788805 186.379909 
L 150.436609 187.198632 
L 154.084413 188.705829 
L 157.732217 189.961227 
L 161.38002 191.577962 
L 165.027824 192.478767 
L 168.675628 193.576245 
L 172.323432 194.513935 
L 175.971236 195.436499 
L 179.61904 196.960374 
L 183.266844 198.056071 
L 186.914648 199.028926 
L 190.562451 199.929329 
L 194.210255 200.340815 
L 197.858059 201.600791 
L 201.505863 202.679394 
L 205.153667 203.074274 
L 208.801471 205.018074 
L 212.449275 206.054008 
L 216.097079 207.244963 
L 219.744883 208.288173 
L 223.392686 209.650812 
L 227.04049 210.240656 
L 230.688294 211.192039 
L 234.336098 212.600879 
L 237.983902 213.080826 
L 241.631706 214.024172 
L 245.27951 215.568916 
L 248.927314 216.583335 
L 252.575117 216.990687 
L 256.222921 218.754191 
L 259.870725 219.171418 
L 263.518529 220.306398 
L 267.166333 220.848563 
L 270.814137 223.641299 
L 274.461941 224.183822 
L 278.109745 226.189984 
L 281.757549 226.515369 
L 285.405352 227.510614 
L 289.053156 229.075293 
L 292.70096 229.975502 
L 296.348764 232.238444 
L 299.996568 233.743632 
L 303.644372 234.633831 
L 307.292176 235.072019 
L 310.93998 236.323936 
L 314.587783 237.997515 
L 318.235587 239.262679 
L 321.883391 239.394091 
L 325.531195 241.62174 
L 329.178999 243.631009 
L 332.826803 244.094594 
L 336.474607 245.203424 
L 340.122411 246.318511 
L 343.770215 247.238283 
L 347.418018 247.804632 
L 351.065822 249.635536 
L 354.713626 250.990037 
L 358.36143 252.553468 
L 362.009234 253.926656 
L 365.657038 253.868069 
L 369.304842 254.626454 
L 372.952646 256.643323 
L 376.600449 257.344829 
L 380.248253 257.999611 
L 383.896057 260.35667 
L 387.543861 260.519032 
L 391.191665 262.757582 
L 394.839469 263.019127 
L 398.487273 263.938727 
" clip-path="url(#p70c6ac217a)" style="fill: none; stroke: #ff00ff; stroke-opacity: 0.3; stroke-width: 0.5; stroke-linecap: square"/>
   </g>
   <g id="line2d_30">
    <path d="M 73.832727 161.388358 
L 77.480531 164.171577 
L 81.128335 165.949147 
L 84.776139 168.360694 
L 88.423943 170.337519 
L 92.071747 171.621737 
L 95.719551 174.057626 
L 99.367354 176.376327 
L 103.015158 177.373194 
L 106.662962 179.280969 
L 110.310766 181.0841 
L 113.95857 182.416743 
L 117.606374 183.311304 
L 121.254178 184.80237 
L 124.901982 186.805646 
L 128.549785 188.378464 
L 132.197589 189.27314 
L 135.845393 190.715149 
L 139.493197 191.726425 
L 143.141001 192.458172 
L 146.788805 193.657092 
L 150.436609 194.109167 
L 154.084413 196.555462 
L 157.732217 195.905179 
L 161.38002 198.246141 
L 165.027824 198.447334 
L 168.675628 198.282367 
L 172.323432 200.393861 
L 175.971236 199.840946 
L 179.61904 201.376361 
L 183.266844 201.870445 
L 186.914648 202.39289 
L 190.562451 204.356913 
L 194.210255 205.320495 
L 197.858059 206.070097 
L 201.505863 205.603641 
L 205.153667 206.456222 
L 208.801471 207.763661 
L 212.449275 208.430076 
L 216.097079 209.153269 
L 219.744883 210.424497 
L 223.392686 210.769947 
L 227.04049 211.235814 
L 230.688294 211.43662 
L 234.336098 213.047988 
L 237.983902 213.559697 
L 241.631706 214.385209 
L 245.27951 215.364178 
L 248.927314 215.80576 
L 252.575117 215.605113 
L 256.222921 217.226585 
L 259.870725 217.377228 
L 263.518529 218.925115 
L 267.166333 218.930885 
L 270.814137 219.198286 
L 274.461941 219.929904 
L 278.109745 221.414855 
L 281.757549 222.564087 
L 285.405352 223.900418 
L 289.053156 223.258302 
L 292.70096 223.996924 
L 296.348764 225.204155 
L 299.996568 226.6509 
L 303.644372 225.78477 
L 307.292176 226.140109 
L 310.93998 228.22587 
L 314.587783 227.056458 
L 318.235587 228.662365 
L 321.883391 228.027203 
L 325.531195 230.123914 
L 329.178999 232.057732 
L 332.826803 230.973402 
L 336.474607 232.623119 
L 340.122411 233.333345 
L 343.770215 233.703725 
L 347.418018 234.271179 
L 351.065822 235.312868 
L 354.713626 235.499164 
L 358.36143 236.358038 
L 362.009234 237.122243 
L 365.657038 238.27446 
L 369.304842 238.725423 
L 372.952646 238.989867 
L 376.600449 239.728683 
L 380.248253 242.896434 
L 383.896057 242.51097 
L 387.543861 241.133741 
L 391.191665 242.792142 
L 394.839469 243.005764 
L 398.487273 243.613262 
" clip-path="url(#p70c6ac217a)" style="fill: none; stroke: #ff00ff; stroke-opacity: 0.3; stroke-width: 0.5; stroke-linecap: square"/>
   </g>
   <g id="line2d_31">
    <path d="M 73.832727 172.244678 
L 77.480531 174.263871 
L 81.128335 175.368496 
L 84.776139 175.756975 
L 88.423943 177.099061 
L 92.071747 176.249968 
L 95.719551 176.484875 
L 99.367354 178.824574 
L 103.015158 179.43942 
L 106.662962 179.815599 
L 110.310766 179.97682 
L 113.95857 182.680197 
L 117.606374 183.214368 
L 121.254178 183.063293 
L 124.901982 184.620308 
L 128.549785 184.681708 
L 132.197589 186.15258 
L 135.845393 185.682048 
L 139.493197 186.826171 
L 143.141001 187.327876 
L 146.788805 187.386621 
L 150.436609 188.537948 
L 154.084413 188.970604 
L 157.732217 190.048906 
L 161.38002 189.97766 
L 165.027824 190.904271 
L 168.675628 191.572049 
L 172.323432 191.991687 
L 175.971236 193.688883 
L 179.61904 194.004135 
L 183.266844 193.696432 
L 186.914648 194.603064 
L 190.562451 194.580287 
L 194.210255 195.790632 
L 197.858059 196.180862 
L 201.505863 197.460773 
L 205.153667 197.37628 
L 208.801471 198.192922 
L 212.449275 198.65866 
L 216.097079 199.941715 
L 219.744883 200.533726 
L 223.392686 201.2559 
L 227.04049 201.422791 
L 230.688294 201.754161 
L 234.336098 202.669634 
L 237.983902 203.402946 
L 241.631706 203.177411 
L 245.27951 204.620539 
L 248.927314 206.28458 
L 252.575117 206.399199 
L 256.222921 206.048295 
L 259.870725 206.839878 
L 263.518529 207.695975 
L 267.166333 209.390559 
L 270.814137 209.962319 
L 274.461941 209.472798 
L 278.109745 210.124143 
L 281.757549 211.572667 
L 285.405352 211.12609 
L 289.053156 213.016427 
L 292.70096 213.428989 
L 296.348764 213.814568 
L 299.996568 214.256194 
L 303.644372 214.288344 
L 307.292176 216.098738 
L 310.93998 217.192311 
L 314.587783 216.665532 
L 318.235587 217.72242 
L 321.883391 218.771414 
L 325.531195 219.964838 
L 329.178999 219.685022 
L 332.826803 220.86204 
L 336.474607 220.937377 
L 340.122411 221.686476 
L 343.770215 223.112338 
L 347.418018 222.847807 
L 351.065822 224.197787 
L 354.713626 225.114552 
L 358.36143 225.895758 
L 362.009234 225.516924 
L 365.657038 226.922678 
L 369.304842 227.461356 
L 372.952646 228.538352 
L 376.600449 228.775082 
L 380.248253 229.99782 
L 383.896057 230.265932 
L 387.543861 231.095398 
L 391.191665 231.842681 
L 394.839469 231.108437 
L 398.487273 233.193688 
" clip-path="url(#p70c6ac217a)" style="fill: none; stroke: #ff00ff; stroke-opacity: 0.3; stroke-width: 0.5; stroke-linecap: square"/>
   </g>
   <g id="line2d_32">
    <path d="M 73.832727 201.455845 
L 77.480531 204.672222 
L 81.128335 208.933733 
L 84.776139 210.574395 
L 88.423943 214.461665 
L 92.071747 216.647074 
L 95.719551 219.624483 
L 99.367354 223.254643 
L 103.015158 224.464184 
L 106.662962 225.095937 
L 110.310766 228.312501 
L 113.95857 230.025241 
L 117.606374 232.668574 
L 121.254178 233.760044 
L 124.901982 235.503146 
L 128.549785 235.861621 
L 132.197589 238.704669 
L 135.845393 238.410709 
L 139.493197 240.145946 
L 143.141001 241.013747 
L 146.788805 243.342438 
L 150.436609 244.894279 
L 154.084413 245.962749 
L 157.732217 244.661876 
L 161.38002 246.610053 
L 165.027824 248.401007 
L 168.675628 250.39438 
L 172.323432 250.228186 
L 175.971236 251.819259 
L 179.61904 251.142346 
L 183.266844 254.087755 
L 186.914648 256.060691 
L 190.562451 255.457198 
L 194.210255 255.914145 
L 197.858059 256.346758 
L 201.505863 258.308613 
L 205.153667 258.146911 
L 208.801471 260.230576 
L 212.449275 260.636486 
L 216.097079 262.560939 
L 219.744883 262.939622 
L 223.392686 263.357731 
L 227.04049 264.920243 
L 230.688294 265.173651 
L 234.336098 266.166319 
L 237.983902 265.731754 
L 241.631706 267.21382 
L 245.27951 268.169488 
L 248.927314 269.119859 
L 252.575117 269.948981 
L 256.222921 270.427988 
L 259.870725 270.446488 
L 263.518529 272.139471 
L 267.166333 273.745306 
L 270.814137 274.135098 
L 274.461941 274.456601 
L 278.109745 275.760294 
L 281.757549 276.064675 
L 285.405352 276.185228 
L 289.053156 278.578118 
L 292.70096 278.902032 
L 296.348764 278.927543 
L 299.996568 278.973758 
L 303.644372 280.730897 
L 307.292176 280.754521 
L 310.93998 281.346073 
L 314.587783 281.785166 
L 318.235587 283.289917 
L 321.883391 283.111494 
L 325.531195 284.717407 
L 329.178999 285.534444 
L 332.826803 286.992994 
L 336.474607 285.618851 
L 340.122411 286.441643 
L 343.770215 287.529841 
L 347.418018 288.893945 
L 351.065822 289.004025 
L 354.713626 288.894386 
L 358.36143 289.7788 
L 362.009234 289.439343 
L 365.657038 290.910279 
L 369.304842 292.279398 
L 372.952646 292.3335 
L 376.600449 291.762113 
L 380.248253 293.453941 
L 383.896057 293.816269 
L 387.543861 293.792914 
L 391.191665 295.245655 
L 394.839469 294.56637 
L 398.487273 295.488 
" clip-path="url(#p70c6ac217a)" style="fill: none; stroke: #ff00ff; stroke-opacity: 0.3; stroke-width: 0.5; stroke-linecap: square"/>
   </g>
   <g id="line2d_33">
    <path d="M 73.832727 178.828765 
L 77.480531 178.865393 
L 81.128335 179.078183 
L 84.776139 179.937652 
L 88.423943 180.378604 
L 92.071747 180.469527 
L 95.719551 181.118561 
L 99.367354 181.477143 
L 103.015158 181.412686 
L 106.662962 181.734311 
L 110.310766 181.190294 
L 113.95857 182.517138 
L 117.606374 182.840974 
L 121.254178 183.67303 
L 124.901982 182.37746 
L 128.549785 184.00595 
L 132.197589 183.316012 
L 135.845393 183.982269 
L 139.493197 183.826702 
L 143.141001 184.137103 
L 146.788805 185.215578 
L 150.436609 186.29332 
L 154.084413 186.822281 
L 157.732217 184.927552 
L 161.38002 186.774344 
L 165.027824 187.953257 
L 168.675628 187.752939 
L 172.323432 187.500493 
L 175.971236 186.597349 
L 179.61904 187.666781 
L 183.266844 187.575557 
L 186.914648 186.606793 
L 190.562451 188.63955 
L 194.210255 189.055226 
L 197.858059 189.914452 
L 201.505863 189.5562 
L 205.153667 189.348218 
L 208.801471 190.197871 
L 212.449275 190.540651 
L 216.097079 190.879169 
L 219.744883 190.643544 
L 223.392686 191.261763 
L 227.04049 191.050351 
L 230.688294 191.171715 
L 234.336098 190.826251 
L 237.983902 191.612724 
L 241.631706 191.963872 
L 245.27951 192.360216 
L 248.927314 193.362809 
L 252.575117 193.68063 
L 256.222921 193.945376 
L 259.870725 193.286482 
L 263.518529 193.855716 
L 267.166333 195.773452 
L 270.814137 194.422998 
L 274.461941 194.315713 
L 278.109745 194.255763 
L 281.757549 196.147248 
L 285.405352 195.579564 
L 289.053156 195.574914 
L 292.70096 195.400819 
L 296.348764 196.880043 
L 299.996568 197.396101 
L 303.644372 196.676266 
L 307.292176 196.805712 
L 310.93998 198.590601 
L 314.587783 196.777624 
L 318.235587 197.730227 
L 321.883391 197.846482 
L 325.531195 199.534707 
L 329.178999 198.610536 
L 332.826803 198.755439 
L 336.474607 199.067146 
L 340.122411 199.490932 
L 343.770215 199.112242 
L 347.418018 199.773834 
L 351.065822 200.69812 
L 354.713626 200.379452 
L 358.36143 200.940792 
L 362.009234 200.54617 
L 365.657038 201.746224 
L 369.304842 201.567019 
L 372.952646 201.748592 
L 376.600449 201.875799 
L 380.248253 202.326179 
L 383.896057 203.280462 
L 387.543861 201.909613 
L 391.191665 201.760605 
L 394.839469 203.153299 
L 398.487273 203.480535 
" clip-path="url(#p70c6ac217a)" style="fill: none; stroke: #ff00ff; stroke-opacity: 0.3; stroke-width: 0.5; stroke-linecap: square"/>
   </g>
   <g id="line2d_34">
    <path d="M 73.832727 175.003842 
L 77.480531 175.783986 
L 81.128335 176.821025 
L 84.776139 177.815551 
L 88.423943 177.85215 
L 92.071747 179.68357 
L 95.719551 180.157461 
L 99.367354 181.028169 
L 103.015158 182.981628 
L 106.662962 182.836984 
L 110.310766 183.102978 
L 113.95857 183.728316 
L 117.606374 185.198642 
L 121.254178 185.025694 
L 124.901982 186.622394 
L 128.549785 186.463856 
L 132.197589 187.977656 
L 135.845393 187.702734 
L 139.493197 188.909147 
L 143.141001 189.283804 
L 146.788805 189.172429 
L 150.436609 190.494235 
L 154.084413 191.023225 
L 157.732217 192.768846 
L 161.38002 192.302002 
L 165.027824 192.575116 
L 168.675628 193.327344 
L 172.323432 194.035897 
L 175.971236 194.519346 
L 179.61904 195.858964 
L 183.266844 195.576192 
L 186.914648 196.023128 
L 190.562451 196.683802 
L 194.210255 198.75287 
L 197.858059 197.961402 
L 201.505863 198.02662 
L 205.153667 198.467112 
L 208.801471 198.90571 
L 212.449275 199.878995 
L 216.097079 200.706832 
L 219.744883 201.663669 
L 223.392686 200.15505 
L 227.04049 201.966262 
L 230.688294 202.069284 
L 234.336098 202.315817 
L 237.983902 203.549844 
L 241.631706 204.463623 
L 245.27951 203.84206 
L 248.927314 204.187496 
L 252.575117 204.970854 
L 256.222921 205.741267 
L 259.870725 206.175415 
L 263.518529 207.667615 
L 267.166333 206.863732 
L 270.814137 207.996358 
L 274.461941 207.776593 
L 278.109745 208.976145 
L 281.757549 209.777243 
L 285.405352 210.162091 
L 289.053156 209.807326 
L 292.70096 210.75868 
L 296.348764 211.299023 
L 299.996568 210.383176 
L 303.644372 211.801963 
L 307.292176 212.600377 
L 310.93998 212.664016 
L 314.587783 213.146862 
L 318.235587 214.687616 
L 321.883391 214.416784 
L 325.531195 213.913758 
L 329.178999 214.774764 
L 332.826803 216.2565 
L 336.474607 215.685903 
L 340.122411 217.346098 
L 343.770215 217.3835 
L 347.418018 217.290812 
L 351.065822 218.185747 
L 354.713626 219.144134 
L 358.36143 218.870073 
L 362.009234 219.939319 
L 365.657038 219.565839 
L 369.304842 219.926718 
L 372.952646 221.030955 
L 376.600449 220.339122 
L 380.248253 221.35921 
L 383.896057 221.582176 
L 387.543861 222.924751 
L 391.191665 222.901758 
L 394.839469 223.508165 
L 398.487273 223.043388 
" clip-path="url(#p70c6ac217a)" style="fill: none; stroke: #ff00ff; stroke-opacity: 0.3; stroke-width: 0.5; stroke-linecap: square"/>
   </g>
   <g id="line2d_35">
    <path d="M 73.832727 154.488171 
L 77.480531 153.731164 
L 81.128335 156.264922 
L 84.776139 157.264788 
L 88.423943 157.428005 
L 92.071747 156.872147 
L 95.719551 159.07976 
L 99.367354 160.194647 
L 103.015158 161.530648 
L 106.662962 163.038276 
L 110.310766 161.665418 
L 113.95857 163.401825 
L 117.606374 163.151374 
L 121.254178 164.450489 
L 124.901982 164.415813 
L 128.549785 165.445862 
L 132.197589 165.832762 
L 135.845393 166.395193 
L 139.493197 168.947639 
L 143.141001 168.830336 
L 146.788805 169.842746 
L 150.436609 169.596687 
L 154.084413 170.498353 
L 157.732217 171.432069 
L 161.38002 172.513801 
L 165.027824 172.50562 
L 168.675628 173.445564 
L 172.323432 174.023051 
L 175.971236 174.334629 
L 179.61904 175.066591 
L 183.266844 175.733264 
L 186.914648 176.384968 
L 190.562451 177.059649 
L 194.210255 177.501318 
L 197.858059 178.3726 
L 201.505863 178.979854 
L 205.153667 179.405046 
L 208.801471 179.980767 
L 212.449275 180.659956 
L 216.097079 181.162221 
L 219.744883 181.666251 
L 223.392686 182.153733 
L 227.04049 182.69409 
L 230.688294 183.235035 
L 234.336098 183.809336 
L 237.983902 184.34177 
L 241.631706 184.625978 
L 245.27951 185.408705 
L 248.927314 185.95786 
L 252.575117 186.056059 
L 256.222921 186.829385 
L 259.870725 186.948052 
L 263.518529 187.875165 
L 267.166333 187.849201 
L 270.814137 188.475874 
L 274.461941 189.180107 
L 278.109745 189.487667 
L 281.757549 190.206209 
L 285.405352 190.414005 
L 289.053156 191.069784 
L 292.70096 190.997247 
L 296.348764 191.350461 
L 299.996568 191.694433 
L 303.644372 192.843809 
L 307.292176 193.30016 
L 310.93998 193.030994 
L 314.587783 194.573714 
L 318.235587 193.998538 
L 321.883391 193.400915 
L 325.531195 195.536823 
L 329.178999 194.879177 
L 332.826803 195.535057 
L 336.474607 195.585564 
L 340.122411 196.188741 
L 343.770215 196.492885 
L 347.418018 196.558361 
L 351.065822 198.396125 
L 354.713626 196.873714 
L 358.36143 198.686231 
L 362.009234 197.324812 
L 365.657038 198.8484 
L 369.304842 199.46006 
L 372.952646 199.752104 
L 376.600449 198.424169 
L 380.248253 200.909101 
L 383.896057 201.549667 
L 387.543861 200.970544 
L 391.191665 200.305292 
L 394.839469 201.388489 
L 398.487273 202.531693 
" clip-path="url(#p70c6ac217a)" style="fill: none; stroke: #ff00ff; stroke-opacity: 0.3; stroke-width: 0.5; stroke-linecap: square"/>
   </g>
   <g id="line2d_36">
    <path d="M 73.832727 177.17744 
L 77.480531 177.676203 
L 81.128335 179.423848 
L 84.776139 180.623529 
L 88.423943 181.57474 
L 92.071747 184.994176 
L 95.719551 185.362863 
L 99.367354 185.315686 
L 103.015158 187.243412 
L 106.662962 190.718421 
L 110.310766 190.105441 
L 113.95857 193.251677 
L 117.606374 194.125285 
L 121.254178 197.123318 
L 124.901982 198.120428 
L 128.549785 197.964789 
L 132.197589 200.613067 
L 135.845393 202.84363 
L 139.493197 204.320945 
L 143.141001 205.774608 
L 146.788805 207.84161 
L 150.436609 210.136285 
L 154.084413 210.218697 
L 157.732217 211.585757 
L 161.38002 213.716555 
L 165.027824 215.402987 
L 168.675628 215.756345 
L 172.323432 218.539923 
L 175.971236 218.099316 
L 179.61904 221.356943 
L 183.266844 222.316277 
L 186.914648 223.941567 
L 190.562451 225.161514 
L 194.210255 226.747951 
L 197.858059 227.32594 
L 201.505863 229.132444 
L 205.153667 230.71561 
L 208.801471 231.466503 
L 212.449275 234.59223 
L 216.097079 234.327872 
L 219.744883 236.783575 
L 223.392686 236.88044 
L 227.04049 239.614911 
L 230.688294 239.677014 
L 234.336098 241.405412 
L 237.983902 243.672609 
L 241.631706 243.393963 
L 245.27951 244.91547 
L 248.927314 245.635893 
L 252.575117 247.793538 
L 256.222921 249.485538 
L 259.870725 251.263086 
L 263.518529 251.000385 
L 267.166333 252.781959 
L 270.814137 254.601144 
L 274.461941 254.670603 
L 278.109745 256.447003 
L 281.757549 257.545857 
L 285.405352 259.028634 
L 289.053156 259.336473 
L 292.70096 260.411833 
L 296.348764 261.235286 
L 299.996568 263.075999 
L 303.644372 264.963085 
L 307.292176 265.574602 
L 310.93998 266.038022 
L 314.587783 266.937047 
L 318.235587 268.573367 
L 321.883391 268.586973 
L 325.531195 269.754497 
L 329.178999 271.593244 
L 332.826803 272.277836 
L 336.474607 272.974068 
L 340.122411 273.466767 
L 343.770215 274.705279 
L 347.418018 276.237952 
L 351.065822 276.566897 
L 354.713626 277.804598 
L 358.36143 278.339379 
L 362.009234 279.065586 
L 365.657038 280.108595 
L 369.304842 281.476329 
L 372.952646 281.763939 
L 376.600449 282.526063 
L 380.248253 283.207418 
L 383.896057 284.010591 
L 387.543861 286.225689 
L 391.191665 286.483725 
L 394.839469 286.813825 
L 398.487273 287.787282 
" clip-path="url(#p70c6ac217a)" style="fill: none; stroke: #ff00ff; stroke-opacity: 0.3; stroke-width: 0.5; stroke-linecap: square"/>
   </g>
   <g id="line2d_37">
    <path d="M 73.832727 169.050848 
L 77.480531 170.421338 
L 81.128335 168.9085 
L 84.776139 170.361129 
L 88.423943 170.947213 
L 92.071747 171.21015 
L 95.719551 171.572852 
L 99.367354 172.30701 
L 103.015158 172.678539 
L 106.662962 173.905332 
L 110.310766 173.789952 
L 113.95857 175.330132 
L 117.606374 175.123327 
L 121.254178 175.569273 
L 124.901982 176.718892 
L 128.549785 176.806385 
L 132.197589 178.438306 
L 135.845393 177.54571 
L 139.493197 178.001115 
L 143.141001 178.959889 
L 146.788805 178.885199 
L 150.436609 179.789678 
L 154.084413 179.495782 
L 157.732217 179.923759 
L 161.38002 180.938666 
L 165.027824 179.334992 
L 168.675628 182.108207 
L 172.323432 181.982394 
L 175.971236 181.886763 
L 179.61904 181.951033 
L 183.266844 183.041851 
L 186.914648 183.345736 
L 190.562451 183.896943 
L 194.210255 183.557234 
L 197.858059 185.10436 
L 201.505863 185.094802 
L 205.153667 184.745003 
L 208.801471 186.015801 
L 212.449275 186.345477 
L 216.097079 186.904535 
L 219.744883 187.198216 
L 223.392686 187.308457 
L 227.04049 186.507789 
L 230.688294 188.631067 
L 234.336098 189.624991 
L 237.983902 188.717053 
L 241.631706 189.619537 
L 245.27951 190.533819 
L 248.927314 190.846617 
L 252.575117 189.805144 
L 256.222921 190.875638 
L 259.870725 190.948649 
L 263.518529 192.168094 
L 267.166333 190.876284 
L 270.814137 191.430864 
L 274.461941 193.632765 
L 278.109745 192.458717 
L 281.757549 194.095862 
L 285.405352 194.689954 
L 289.053156 194.876407 
L 292.70096 194.723281 
L 296.348764 195.073524 
L 299.996568 195.797277 
L 303.644372 195.684826 
L 307.292176 196.199362 
L 310.93998 196.144105 
L 314.587783 197.401914 
L 318.235587 197.718443 
L 321.883391 198.098167 
L 325.531195 196.966201 
L 329.178999 198.720304 
L 332.826803 199.880258 
L 336.474607 199.112931 
L 340.122411 199.876282 
L 343.770215 200.75995 
L 347.418018 200.841085 
L 351.065822 200.988686 
L 354.713626 201.133632 
L 358.36143 201.607909 
L 362.009234 202.856432 
L 365.657038 202.849227 
L 369.304842 203.197189 
L 372.952646 203.107758 
L 376.600449 204.349349 
L 380.248253 204.54836 
L 383.896057 204.680604 
L 387.543861 204.646402 
L 391.191665 205.151452 
L 394.839469 205.021763 
L 398.487273 206.381517 
" clip-path="url(#p70c6ac217a)" style="fill: none; stroke: #ff00ff; stroke-opacity: 0.3; stroke-width: 0.5; stroke-linecap: square"/>
   </g>
   <g id="line2d_38">
    <path d="M 73.832727 192.278536 
L 77.480531 192.468678 
L 81.128335 192.269035 
L 84.776139 192.677334 
L 88.423943 192.89044 
L 92.071747 192.657269 
L 95.719551 193.156578 
L 99.367354 192.487766 
L 103.015158 193.298955 
L 106.662962 193.721549 
L 110.310766 193.728869 
L 113.95857 193.288319 
L 117.606374 193.751488 
L 121.254178 193.52238 
L 124.901982 194.723109 
L 128.549785 193.478246 
L 132.197589 195.082021 
L 135.845393 194.160836 
L 139.493197 193.984802 
L 143.141001 193.770721 
L 146.788805 194.738581 
L 150.436609 194.46696 
L 154.084413 194.867164 
L 157.732217 193.779174 
L 161.38002 195.266393 
L 165.027824 194.809654 
L 168.675628 195.169758 
L 172.323432 195.107942 
L 175.971236 194.743776 
L 179.61904 195.796344 
L 183.266844 194.517796 
L 186.914648 195.780499 
L 190.562451 195.655173 
L 194.210255 195.813338 
L 197.858059 195.527723 
L 201.505863 195.754162 
L 205.153667 195.599313 
L 208.801471 196.381739 
L 212.449275 196.156147 
L 216.097079 195.993203 
L 219.744883 196.976851 
L 223.392686 196.424797 
L 227.04049 196.531177 
L 230.688294 196.768625 
L 234.336098 196.714186 
L 237.983902 197.261661 
L 241.631706 196.932272 
L 245.27951 196.008646 
L 248.927314 197.312038 
L 252.575117 196.714889 
L 256.222921 198.053818 
L 259.870725 198.213762 
L 263.518529 198.057722 
L 267.166333 197.025477 
L 270.814137 197.433877 
L 274.461941 197.109697 
L 278.109745 198.32785 
L 281.757549 197.968306 
L 285.405352 198.183765 
L 289.053156 198.244017 
L 292.70096 198.353527 
L 296.348764 198.654584 
L 299.996568 199.255523 
L 303.644372 198.887726 
L 307.292176 198.552108 
L 310.93998 199.280798 
L 314.587783 198.588563 
L 318.235587 199.101004 
L 321.883391 199.061908 
L 325.531195 199.2721 
L 329.178999 199.567933 
L 332.826803 200.043489 
L 336.474607 200.061515 
L 340.122411 200.592557 
L 343.770215 200.932869 
L 347.418018 200.462079 
L 351.065822 200.444813 
L 354.713626 199.84307 
L 358.36143 200.559891 
L 362.009234 200.155524 
L 365.657038 200.719003 
L 369.304842 200.951054 
L 372.952646 200.807844 
L 376.600449 201.740756 
L 380.248253 200.389986 
L 383.896057 202.075872 
L 387.543861 201.076652 
L 391.191665 201.468705 
L 394.839469 200.384862 
L 398.487273 201.82413 
" clip-path="url(#p70c6ac217a)" style="fill: none; stroke: #ff00ff; stroke-opacity: 0.3; stroke-width: 0.5; stroke-linecap: square"/>
   </g>
   <g id="line2d_39">
    <path d="M 73.832727 161.477487 
L 77.480531 166.117717 
L 81.128335 169.579708 
L 84.776139 172.310814 
L 88.423943 175.802802 
L 92.071747 178.899853 
L 95.719551 182.247943 
L 99.367354 184.635393 
L 103.015158 187.325723 
L 106.662962 190.62213 
L 110.310766 191.337501 
L 113.95857 195.820184 
L 117.606374 196.792349 
L 121.254178 199.190793 
L 124.901982 201.457467 
L 128.549785 203.305249 
L 132.197589 204.09442 
L 135.845393 207.292541 
L 139.493197 208.30719 
L 143.141001 209.43531 
L 146.788805 211.440251 
L 150.436609 214.063771 
L 154.084413 215.864893 
L 157.732217 216.875638 
L 161.38002 218.355537 
L 165.027824 220.020396 
L 168.675628 221.964483 
L 172.323432 222.986739 
L 175.971236 224.825551 
L 179.61904 225.800128 
L 183.266844 227.73556 
L 186.914648 227.335126 
L 190.562451 230.111585 
L 194.210255 231.21204 
L 197.858059 232.776246 
L 201.505863 234.249493 
L 205.153667 234.392013 
L 208.801471 235.768237 
L 212.449275 238.026758 
L 216.097079 238.440239 
L 219.744883 240.423594 
L 223.392686 241.173325 
L 227.04049 242.978868 
L 230.688294 243.311429 
L 234.336098 245.106982 
L 237.983902 246.80923 
L 241.631706 246.991564 
L 245.27951 248.712556 
L 248.927314 249.50528 
L 252.575117 250.133316 
L 256.222921 252.795063 
L 259.870725 252.797094 
L 263.518529 253.693184 
L 267.166333 255.266245 
L 270.814137 255.194023 
L 274.461941 256.861072 
L 278.109745 257.839595 
L 281.757549 260.61256 
L 285.405352 260.850345 
L 289.053156 261.433063 
L 292.70096 262.458885 
L 296.348764 263.524837 
L 299.996568 264.278077 
L 303.644372 266.517553 
L 307.292176 266.403723 
L 310.93998 268.024829 
L 314.587783 267.9111 
L 318.235587 269.30022 
L 321.883391 270.279346 
L 325.531195 270.863593 
L 329.178999 272.257133 
L 332.826803 273.447887 
L 336.474607 274.326811 
L 340.122411 274.074538 
L 343.770215 275.382795 
L 347.418018 276.660956 
L 351.065822 278.118673 
L 354.713626 278.10966 
L 358.36143 278.941716 
L 362.009234 280.053022 
L 365.657038 280.48641 
L 369.304842 281.690124 
L 372.952646 282.149138 
L 376.600449 282.713786 
L 380.248253 284.017896 
L 383.896057 284.898486 
L 387.543861 284.865884 
L 391.191665 286.439993 
L 394.839469 287.037723 
L 398.487273 287.247155 
" clip-path="url(#p70c6ac217a)" style="fill: none; stroke: #ff00ff; stroke-opacity: 0.3; stroke-width: 0.5; stroke-linecap: square"/>
   </g>
   <g id="line2d_40">
    <path d="M 73.832727 174.866977 
L 77.480531 175.710028 
L 81.128335 176.632246 
L 84.776139 178.239481 
L 88.423943 178.766217 
L 92.071747 178.239481 
L 95.719551 180.828253 
L 99.367354 180.767484 
L 103.015158 181.270295 
L 106.662962 184.012796 
L 110.310766 185.124999 
L 113.95857 184.237772 
L 117.606374 185.136783 
L 121.254178 186.509483 
L 124.901982 187.16133 
L 128.549785 187.764924 
L 132.197589 187.559051 
L 135.845393 189.763837 
L 139.493197 189.830992 
L 143.141001 191.278928 
L 146.788805 190.670283 
L 150.436609 191.478399 
L 154.084413 192.324952 
L 157.732217 193.622876 
L 161.38002 194.19564 
L 165.027824 195.033582 
L 168.675628 195.168624 
L 172.323432 196.50807 
L 175.971236 197.41974 
L 179.61904 198.627573 
L 183.266844 197.794669 
L 186.914648 199.034078 
L 190.562451 198.80131 
L 194.210255 200.477364 
L 197.858059 200.67174 
L 201.505863 201.109347 
L 205.153667 202.29568 
L 208.801471 201.974142 
L 212.449275 202.919569 
L 216.097079 204.34922 
L 219.744883 204.815073 
L 223.392686 204.980858 
L 227.04049 205.767216 
L 230.688294 206.334197 
L 234.336098 206.844413 
L 237.983902 208.396793 
L 241.631706 208.017327 
L 245.27951 208.433104 
L 248.927314 209.917381 
L 252.575117 211.071679 
L 256.222921 211.171731 
L 259.870725 211.663992 
L 263.518529 212.729549 
L 267.166333 212.429425 
L 270.814137 213.866108 
L 274.461941 214.071507 
L 278.109745 214.88146 
L 281.757549 214.637497 
L 285.405352 216.585359 
L 289.053156 217.260744 
L 292.70096 217.454201 
L 296.348764 218.534254 
L 299.996568 218.854544 
L 303.644372 220.340356 
L 307.292176 219.176743 
L 310.93998 219.632061 
L 314.587783 221.940457 
L 318.235587 221.74446 
L 321.883391 223.1043 
L 325.531195 223.8688 
L 329.178999 223.016463 
L 332.826803 224.795066 
L 336.474607 224.729992 
L 340.122411 227.026576 
L 343.770215 226.048196 
L 347.418018 226.775264 
L 351.065822 227.884302 
L 354.713626 228.13176 
L 358.36143 228.805767 
L 362.009234 229.588071 
L 365.657038 230.883096 
L 369.304842 231.549862 
L 372.952646 231.455674 
L 376.600449 231.430945 
L 380.248253 234.058963 
L 383.896057 233.587814 
L 387.543861 233.6645 
L 391.191665 233.47486 
L 394.839469 235.879483 
L 398.487273 235.311081 
" clip-path="url(#p70c6ac217a)" style="fill: none; stroke: #ff00ff; stroke-opacity: 0.3; stroke-width: 0.5; stroke-linecap: square"/>
   </g>
   <g id="line2d_41">
    <path d="M 73.832727 180.29091 
L 77.480531 181.855144 
L 81.128335 183.191289 
L 84.776139 186.664059 
L 88.423943 191.429859 
L 92.071747 193.096082 
L 95.719551 197.73271 
L 99.367354 200.13388 
L 103.015158 202.234654 
L 106.662962 203.257627 
L 110.310766 204.864632 
L 113.95857 207.590039 
L 117.606374 210.35206 
L 121.254178 211.723139 
L 124.901982 214.685578 
L 128.549785 217.295965 
L 132.197589 218.0068 
L 135.845393 220.12893 
L 139.493197 221.152061 
L 143.141001 223.417314 
L 146.788805 224.064395 
L 150.436609 226.030054 
L 154.084413 226.529693 
L 157.732217 229.306483 
L 161.38002 229.580163 
L 165.027824 231.695124 
L 168.675628 232.06132 
L 172.323432 235.367587 
L 175.971236 235.75303 
L 179.61904 236.54251 
L 183.266844 237.273403 
L 186.914648 237.811564 
L 190.562451 239.671481 
L 194.210255 241.615511 
L 197.858059 240.971622 
L 201.505863 244.168839 
L 205.153667 244.121849 
L 208.801471 247.345166 
L 212.449275 247.80835 
L 216.097079 248.229365 
L 219.744883 249.147157 
L 223.392686 251.86485 
L 227.04049 252.383972 
L 230.688294 251.391584 
L 234.336098 253.28073 
L 237.983902 255.441769 
L 241.631706 255.372891 
L 245.27951 256.426428 
L 248.927314 257.653508 
L 252.575117 257.723843 
L 256.222921 259.896665 
L 259.870725 261.662724 
L 263.518529 261.322936 
L 267.166333 261.534119 
L 270.814137 263.022249 
L 274.461941 263.155698 
L 278.109745 264.209013 
L 281.757549 266.734462 
L 285.405352 266.0794 
L 289.053156 266.691268 
L 292.70096 267.948 
L 296.348764 268.652348 
L 299.996568 270.873395 
L 303.644372 271.605164 
L 307.292176 271.2798 
L 310.93998 272.93424 
L 314.587783 273.188157 
L 318.235587 274.251202 
L 321.883391 274.522515 
L 325.531195 276.083749 
L 329.178999 275.392914 
L 332.826803 277.531283 
L 336.474607 276.848686 
L 340.122411 277.712749 
L 343.770215 278.199219 
L 347.418018 278.612585 
L 351.065822 280.077515 
L 354.713626 280.704467 
L 358.36143 281.889372 
L 362.009234 282.087925 
L 365.657038 283.710674 
L 369.304842 285.087781 
L 372.952646 284.349223 
L 376.600449 284.810268 
L 380.248253 285.964172 
L 383.896057 286.449767 
L 387.543861 286.6443 
L 391.191665 287.820235 
L 394.839469 287.923207 
L 398.487273 288.315873 
" clip-path="url(#p70c6ac217a)" style="fill: none; stroke: #ff00ff; stroke-opacity: 0.3; stroke-width: 0.5; stroke-linecap: square"/>
   </g>
   <g id="line2d_42">
    <path d="M 73.832727 154.936241 
L 77.480531 163.469339 
L 81.128335 164.518692 
L 84.776139 171.971822 
L 88.423943 175.283572 
L 92.071747 179.096913 
L 95.719551 181.10494 
L 99.367354 184.936522 
L 103.015158 187.966346 
L 106.662962 188.731075 
L 110.310766 192.740126 
L 113.95857 194.254543 
L 117.606374 195.797449 
L 121.254178 198.089125 
L 124.901982 200.350632 
L 128.549785 201.690336 
L 132.197589 203.162183 
L 135.845393 205.614793 
L 139.493197 206.021557 
L 143.141001 208.05839 
L 146.788805 208.724718 
L 150.436609 210.333043 
L 154.084413 212.859454 
L 157.732217 213.687377 
L 161.38002 215.038017 
L 165.027824 216.842512 
L 168.675628 217.637267 
L 172.323432 219.316651 
L 175.971236 220.723194 
L 179.61904 220.923727 
L 183.266844 222.507438 
L 186.914648 224.205064 
L 190.562451 225.347393 
L 194.210255 226.837568 
L 197.858059 228.487379 
L 201.505863 230.135209 
L 205.153667 230.663532 
L 208.801471 232.274182 
L 212.449275 232.919828 
L 216.097079 234.738173 
L 219.744883 236.383377 
L 223.392686 236.665791 
L 227.04049 237.801733 
L 230.688294 238.595841 
L 234.336098 241.634521 
L 237.983902 241.428347 
L 241.631706 242.083646 
L 245.27951 243.195798 
L 248.927314 244.492265 
L 252.575117 245.474191 
L 256.222921 247.574052 
L 259.870725 248.736754 
L 263.518529 250.973697 
L 267.166333 251.048567 
L 270.814137 251.356951 
L 274.461941 254.229867 
L 278.109745 253.989527 
L 281.757549 255.164228 
L 285.405352 256.662089 
L 289.053156 256.584923 
L 292.70096 259.111814 
L 296.348764 259.283786 
L 299.996568 260.464694 
L 303.644372 262.58528 
L 307.292176 263.095195 
L 310.93998 263.798761 
L 314.587783 264.502823 
L 318.235587 266.060842 
L 321.883391 266.168263 
L 325.531195 267.255263 
L 329.178999 268.990407 
L 332.826803 270.074924 
L 336.474607 271.455532 
L 340.122411 272.518377 
L 343.770215 272.914347 
L 347.418018 274.564216 
L 351.065822 275.043108 
L 354.713626 274.842984 
L 358.36143 275.782842 
L 362.009234 277.388017 
L 365.657038 278.403584 
L 369.304842 280.527271 
L 372.952646 280.287341 
L 376.600449 280.831192 
L 380.248253 281.788618 
L 383.896057 282.72041 
L 387.543861 283.027503 
L 391.191665 284.972494 
L 394.839469 285.230975 
L 398.487273 285.682203 
" clip-path="url(#p70c6ac217a)" style="fill: none; stroke: #ff00ff; stroke-opacity: 0.3; stroke-width: 0.5; stroke-linecap: square"/>
   </g>
   <g id="line2d_43">
    <path d="M 73.832727 173.27609 
L 77.480531 173.84442 
L 81.128335 175.110955 
L 84.776139 175.530751 
L 88.423943 174.886267 
L 92.071747 176.011516 
L 95.719551 176.280381 
L 99.367354 178.465145 
L 103.015158 178.261526 
L 106.662962 178.731297 
L 110.310766 178.95366 
L 113.95857 180.136133 
L 117.606374 179.845553 
L 121.254178 180.912574 
L 124.901982 181.650636 
L 128.549785 182.610702 
L 132.197589 183.243876 
L 135.845393 183.105188 
L 139.493197 183.418819 
L 143.141001 183.963754 
L 146.788805 184.542977 
L 150.436609 183.991899 
L 154.084413 184.815158 
L 157.732217 186.211224 
L 161.38002 186.850154 
L 165.027824 187.705748 
L 168.675628 187.821515 
L 172.323432 187.91162 
L 175.971236 187.457866 
L 179.61904 189.210635 
L 183.266844 188.694132 
L 186.914648 188.752475 
L 190.562451 190.752077 
L 194.210255 190.001385 
L 197.858059 190.527849 
L 201.505863 191.570542 
L 205.153667 191.195167 
L 208.801471 192.372631 
L 212.449275 192.67821 
L 216.097079 193.452225 
L 219.744883 193.95904 
L 223.392686 193.133858 
L 227.04049 194.462252 
L 230.688294 194.473935 
L 234.336098 196.609197 
L 237.983902 196.026974 
L 241.631706 196.464467 
L 245.27951 197.070816 
L 248.927314 197.707521 
L 252.575117 198.454855 
L 256.222921 198.633802 
L 259.870725 197.917828 
L 263.518529 199.991217 
L 267.166333 199.520685 
L 270.814137 200.488746 
L 274.461941 200.480751 
L 278.109745 202.491018 
L 281.757549 202.00665 
L 285.405352 202.788487 
L 289.053156 203.081551 
L 292.70096 203.343082 
L 296.348764 203.404381 
L 299.996568 203.782325 
L 303.644372 203.540328 
L 307.292176 204.782033 
L 310.93998 205.079374 
L 314.587783 205.813388 
L 318.235587 206.546298 
L 321.883391 205.957975 
L 325.531195 206.706414 
L 329.178999 207.448883 
L 332.826803 207.909497 
L 336.474607 207.84527 
L 340.122411 208.727416 
L 343.770215 209.551378 
L 347.418018 209.243001 
L 351.065822 210.409657 
L 354.713626 209.718197 
L 358.36143 211.180127 
L 362.009234 211.329852 
L 365.657038 211.684143 
L 369.304842 211.978426 
L 372.952646 212.729879 
L 376.600449 212.623513 
L 380.248253 213.396165 
L 383.896057 213.729401 
L 387.543861 213.959773 
L 391.191665 214.923571 
L 394.839469 214.582096 
L 398.487273 216.218567 
" clip-path="url(#p70c6ac217a)" style="fill: none; stroke: #ff00ff; stroke-opacity: 0.3; stroke-width: 0.5; stroke-linecap: square"/>
   </g>
   <g id="line2d_44">
    <path d="M 73.832727 174.202069 
L 77.480531 177.58706 
L 81.128335 178.509322 
L 84.776139 180.053577 
L 88.423943 181.989498 
L 92.071747 182.911846 
L 95.719551 185.6134 
L 99.367354 185.478487 
L 103.015158 188.227949 
L 106.662962 190.25785 
L 110.310766 190.41145 
L 113.95857 192.041533 
L 117.606374 193.336472 
L 121.254178 194.987783 
L 124.901982 195.432882 
L 128.549785 197.19752 
L 132.197589 197.551825 
L 135.845393 199.166049 
L 139.493197 199.744584 
L 143.141001 201.672783 
L 146.788805 202.837917 
L 150.436609 203.379035 
L 154.084413 205.30854 
L 157.732217 206.232079 
L 161.38002 207.294349 
L 165.027824 207.733234 
L 168.675628 208.487916 
L 172.323432 210.420909 
L 175.971236 212.155421 
L 179.61904 213.506937 
L 183.266844 213.616303 
L 186.914648 215.873016 
L 190.562451 216.402594 
L 194.210255 216.655155 
L 197.858059 218.453177 
L 201.505863 219.442981 
L 205.153667 220.622325 
L 208.801471 221.390772 
L 212.449275 223.235755 
L 216.097079 224.440316 
L 219.744883 225.376887 
L 223.392686 226.009932 
L 227.04049 228.378788 
L 230.688294 228.635432 
L 234.336098 230.005068 
L 237.983902 230.819206 
L 241.631706 232.952617 
L 245.27951 232.665796 
L 248.927314 235.231375 
L 252.575117 234.819215 
L 256.222921 237.082472 
L 259.870725 237.41245 
L 263.518529 239.052258 
L 267.166333 240.307045 
L 270.814137 241.148574 
L 274.461941 242.994892 
L 278.109745 243.704099 
L 281.757549 244.688198 
L 285.405352 246.536081 
L 289.053156 246.719721 
L 292.70096 247.586991 
L 296.348764 248.402284 
L 299.996568 249.450934 
L 303.644372 251.29258 
L 307.292176 251.583886 
L 310.93998 252.875293 
L 314.587783 253.722535 
L 318.235587 254.716287 
L 321.883391 255.914597 
L 325.531195 257.254882 
L 329.178999 258.28951 
L 332.826803 259.796011 
L 336.474607 259.38327 
L 340.122411 260.808931 
L 343.770215 261.834882 
L 347.418018 262.72948 
L 351.065822 264.131014 
L 354.713626 264.142303 
L 358.36143 266.22497 
L 362.009234 265.740897 
L 365.657038 267.157709 
L 369.304842 268.42014 
L 372.952646 269.214887 
L 376.600449 269.99155 
L 380.248253 271.116318 
L 383.896057 271.831933 
L 387.543861 272.912446 
L 391.191665 274.072672 
L 394.839469 275.152366 
L 398.487273 275.098882 
" clip-path="url(#p70c6ac217a)" style="fill: none; stroke: #ff00ff; stroke-opacity: 0.3; stroke-width: 0.5; stroke-linecap: square"/>
   </g>
   <g id="line2d_45">
    <path d="M 73.832727 190.693907 
L 77.480531 192.221915 
L 81.128335 193.672822 
L 84.776139 195.574369 
L 88.423943 196.132149 
L 92.071747 199.917818 
L 95.719551 200.134641 
L 99.367354 201.913115 
L 103.015158 203.2579 
L 106.662962 204.745908 
L 110.310766 205.947039 
L 113.95857 207.136142 
L 117.606374 208.14683 
L 121.254178 210.946368 
L 124.901982 211.976474 
L 128.549785 212.563749 
L 132.197589 214.957916 
L 135.845393 216.312489 
L 139.493197 217.079716 
L 143.141001 217.933775 
L 146.788805 218.833159 
L 150.436609 220.44932 
L 154.084413 219.964766 
L 157.732217 222.490158 
L 161.38002 224.132613 
L 165.027824 225.997259 
L 168.675628 226.824177 
L 172.323432 227.526617 
L 175.971236 227.99971 
L 179.61904 228.789772 
L 183.266844 232.064722 
L 186.914648 231.759839 
L 190.562451 234.324707 
L 194.210255 233.961474 
L 197.858059 236.18382 
L 201.505863 236.847558 
L 205.153667 239.486061 
L 208.801471 238.653459 
L 212.449275 241.041124 
L 216.097079 240.244131 
L 219.744883 243.483157 
L 223.392686 244.628607 
L 227.04049 245.833362 
L 230.688294 246.518111 
L 234.336098 247.765716 
L 237.983902 247.623404 
L 241.631706 249.472527 
L 245.27951 250.776027 
L 248.927314 251.079525 
L 252.575117 253.016859 
L 256.222921 253.986599 
L 259.870725 254.554075 
L 263.518529 256.311522 
L 267.166333 257.23359 
L 270.814137 258.042963 
L 274.461941 259.113063 
L 278.109745 259.862277 
L 281.757549 262.411666 
L 285.405352 262.660896 
L 289.053156 263.328653 
L 292.70096 263.630579 
L 296.348764 265.525538 
L 299.996568 265.813147 
L 303.644372 267.213741 
L 307.292176 267.720987 
L 310.93998 268.623651 
L 314.587783 268.581792 
L 318.235587 271.665373 
L 321.883391 271.232337 
L 325.531195 271.921794 
L 329.178999 272.132675 
L 332.826803 273.251738 
L 336.474607 273.489129 
L 340.122411 275.855164 
L 343.770215 275.949733 
L 347.418018 276.31913 
L 351.065822 277.468577 
L 354.713626 279.258368 
L 358.36143 279.486092 
L 362.009234 280.843442 
L 365.657038 280.953791 
L 369.304842 281.252187 
L 372.952646 282.819356 
L 376.600449 282.496619 
L 380.248253 283.277186 
L 383.896057 284.038829 
L 387.543861 284.700385 
L 391.191665 285.775595 
L 394.839469 285.415864 
L 398.487273 286.93384 
" clip-path="url(#p70c6ac217a)" style="fill: none; stroke: #ff00ff; stroke-opacity: 0.3; stroke-width: 0.5; stroke-linecap: square"/>
   </g>
   <g id="line2d_46">
    <path d="M 73.832727 140.609218 
L 77.480531 143.6824 
L 81.128335 147.702732 
L 84.776139 148.062076 
L 88.423943 153.431225 
L 92.071747 154.283906 
L 95.719551 156.019481 
L 99.367354 160.213104 
L 103.015158 162.863563 
L 106.662962 163.51963 
L 110.310766 166.379965 
L 113.95857 168.481198 
L 117.606374 169.984262 
L 121.254178 171.921101 
L 124.901982 172.4369 
L 128.549785 175.686073 
L 132.197589 176.455553 
L 135.845393 177.338188 
L 139.493197 179.217847 
L 143.141001 180.795228 
L 146.788805 182.25024 
L 150.436609 182.368949 
L 154.084413 185.261046 
L 157.732217 185.893417 
L 161.38002 186.471262 
L 165.027824 187.206755 
L 168.675628 188.979546 
L 172.323432 189.927814 
L 175.971236 191.388955 
L 179.61904 192.080314 
L 183.266844 192.653523 
L 186.914648 193.587009 
L 190.562451 194.326564 
L 194.210255 195.753143 
L 197.858059 196.496674 
L 201.505863 197.513748 
L 205.153667 198.971817 
L 208.801471 199.668688 
L 212.449275 200.536037 
L 216.097079 201.373763 
L 219.744883 203.126603 
L 223.392686 203.444166 
L 227.04049 203.920023 
L 230.688294 205.259756 
L 234.336098 206.042755 
L 237.983902 207.2285 
L 241.631706 208.244714 
L 245.27951 209.208741 
L 248.927314 210.200024 
L 252.575117 209.549369 
L 256.222921 211.416498 
L 259.870725 211.765364 
L 263.518529 214.905056 
L 267.166333 214.756264 
L 270.814137 215.577384 
L 274.461941 215.372803 
L 278.109745 216.685266 
L 281.757549 218.44923 
L 285.405352 218.457081 
L 289.053156 219.176987 
L 292.70096 220.038567 
L 296.348764 221.66011 
L 299.996568 222.104808 
L 303.644372 224.307943 
L 307.292176 224.230612 
L 310.93998 225.647948 
L 314.587783 226.255431 
L 318.235587 226.723667 
L 321.883391 227.626984 
L 325.531195 228.367672 
L 329.178999 229.568588 
L 332.826803 230.363679 
L 336.474607 230.942601 
L 340.122411 232.262391 
L 343.770215 233.085556 
L 347.418018 234.463395 
L 351.065822 235.073907 
L 354.713626 235.599502 
L 358.36143 235.846372 
L 362.009234 237.034872 
L 365.657038 237.632754 
L 369.304842 239.380413 
L 372.952646 239.923913 
L 376.600449 240.010343 
L 380.248253 242.451758 
L 383.896057 242.742698 
L 387.543861 243.229333 
L 391.191665 244.826499 
L 394.839469 244.262145 
L 398.487273 246.825527 
" clip-path="url(#p70c6ac217a)" style="fill: none; stroke: #ff00ff; stroke-opacity: 0.3; stroke-width: 0.5; stroke-linecap: square"/>
   </g>
   <g id="line2d_47">
    <path d="M 73.832727 169.403144 
L 77.480531 172.615976 
L 81.128335 176.770045 
L 84.776139 178.795381 
L 88.423943 181.213818 
L 92.071747 182.997961 
L 95.719551 186.942282 
L 99.367354 188.343228 
L 103.015158 192.006427 
L 106.662962 193.825791 
L 110.310766 195.944275 
L 113.95857 197.121394 
L 117.606374 199.730963 
L 121.254178 202.60413 
L 124.901982 203.036541 
L 128.549785 205.961449 
L 132.197589 207.52386 
L 135.845393 209.330092 
L 139.493197 210.440443 
L 143.141001 212.829787 
L 146.788805 214.953051 
L 150.436609 216.037352 
L 154.084413 218.862481 
L 157.732217 220.967273 
L 161.38002 222.36255 
L 165.027824 223.090005 
L 168.675628 225.098535 
L 172.323432 227.557274 
L 175.971236 228.420841 
L 179.61904 229.427065 
L 183.266844 232.482845 
L 186.914648 232.993485 
L 190.562451 234.933905 
L 194.210255 235.328025 
L 197.858059 236.915417 
L 201.505863 238.490351 
L 205.153667 239.791676 
L 208.801471 241.892822 
L 212.449275 241.674614 
L 216.097079 244.51406 
L 219.744883 245.95131 
L 223.392686 246.542934 
L 227.04049 248.546835 
L 230.688294 249.219924 
L 234.336098 250.934945 
L 237.983902 252.176335 
L 241.631706 253.687931 
L 245.27951 253.541349 
L 248.927314 256.134362 
L 252.575117 255.785009 
L 256.222921 258.381868 
L 259.870725 259.556554 
L 263.518529 260.859294 
L 267.166333 261.457907 
L 270.814137 263.335779 
L 274.461941 263.648527 
L 278.109745 264.533939 
L 281.757549 266.477179 
L 285.405352 267.270132 
L 289.053156 267.881132 
L 292.70096 269.353726 
L 296.348764 269.81777 
L 299.996568 271.727935 
L 303.644372 272.430841 
L 307.292176 271.998917 
L 310.93998 274.605285 
L 314.587783 274.898485 
L 318.235587 276.008923 
L 321.883391 275.737302 
L 325.531195 277.631729 
L 329.178999 278.501885 
L 332.826803 279.018179 
L 336.474607 280.300624 
L 340.122411 281.310257 
L 343.770215 281.85629 
L 347.418018 283.277078 
L 351.065822 283.760061 
L 354.713626 284.361595 
L 358.36143 285.274557 
L 362.009234 286.366529 
L 365.657038 286.465454 
L 369.304842 287.283187 
L 372.952646 288.446804 
L 376.600449 289.406989 
L 380.248253 290.846988 
L 383.896057 290.923156 
L 387.543861 290.88894 
L 391.191665 292.158335 
L 394.839469 292.480358 
L 398.487273 293.137045 
" clip-path="url(#p70c6ac217a)" style="fill: none; stroke: #ff00ff; stroke-opacity: 0.3; stroke-width: 0.5; stroke-linecap: square"/>
   </g>
   <g id="line2d_48">
    <path d="M 73.832727 173.360641 
L 77.480531 173.691839 
L 81.128335 174.406506 
L 84.776139 174.997986 
L 88.423943 175.503165 
L 92.071747 175.866857 
L 95.719551 176.141191 
L 99.367354 176.143831 
L 103.015158 176.495869 
L 106.662962 176.786737 
L 110.310766 177.438282 
L 113.95857 177.756204 
L 117.606374 177.639145 
L 121.254178 178.369457 
L 124.901982 178.595968 
L 128.549785 178.861862 
L 132.197589 179.403367 
L 135.845393 179.880946 
L 139.493197 180.133334 
L 143.141001 180.333594 
L 146.788805 180.813283 
L 150.436609 181.108571 
L 154.084413 180.899943 
L 157.732217 181.712911 
L 161.38002 182.481458 
L 165.027824 182.599292 
L 168.675628 182.726197 
L 172.323432 183.172846 
L 175.971236 183.684541 
L 179.61904 184.089238 
L 183.266844 184.489256 
L 186.914648 184.65817 
L 190.562451 184.775086 
L 194.210255 185.178864 
L 197.858059 185.468153 
L 201.505863 185.664236 
L 205.153667 186.376665 
L 208.801471 186.898636 
L 212.449275 187.19823 
L 216.097079 187.105039 
L 219.744883 187.145614 
L 223.392686 188.125142 
L 227.04049 187.97922 
L 230.688294 188.524959 
L 234.336098 189.510315 
L 237.983902 189.266323 
L 241.631706 189.704877 
L 245.27951 189.986602 
L 248.927314 190.493675 
L 252.575117 190.739978 
L 256.222921 191.791771 
L 259.870725 191.478098 
L 263.518529 191.854233 
L 267.166333 192.19156 
L 270.814137 192.547473 
L 274.461941 192.839933 
L 278.109745 193.930048 
L 281.757549 193.823036 
L 285.405352 194.377687 
L 289.053156 194.263772 
L 292.70096 195.26236 
L 296.348764 195.625507 
L 299.996568 195.919934 
L 303.644372 196.149588 
L 307.292176 196.4563 
L 310.93998 197.395484 
L 314.587783 197.026596 
L 318.235587 197.326563 
L 321.883391 198.1236 
L 325.531195 198.904217 
L 329.178999 198.957924 
L 332.826803 199.514786 
L 336.474607 200.009444 
L 340.122411 200.709185 
L 343.770215 200.926511 
L 347.418018 201.256733 
L 351.065822 201.447018 
L 354.713626 202.20447 
L 358.36143 202.167183 
L 362.009234 203.411184 
L 365.657038 203.775221 
L 369.304842 204.608655 
L 372.952646 204.515637 
L 376.600449 204.649718 
L 380.248253 205.56687 
L 383.896057 205.948661 
L 387.543861 206.451744 
L 391.191665 207.259545 
L 394.839469 208.079861 
L 398.487273 208.106571 
" clip-path="url(#p70c6ac217a)" style="fill: none; stroke: #ff00ff; stroke-opacity: 0.3; stroke-width: 0.5; stroke-linecap: square"/>
   </g>
   <g id="line2d_49">
    <path d="M 73.832727 171.548769 
L 77.480531 173.333314 
L 81.128335 176.572095 
L 84.776139 179.751501 
L 88.423943 181.546968 
L 92.071747 184.937484 
L 95.719551 185.80268 
L 99.367354 190.433251 
L 103.015158 193.489039 
L 106.662962 195.259002 
L 110.310766 196.357053 
L 113.95857 198.127547 
L 117.606374 200.509557 
L 121.254178 202.685752 
L 124.901982 204.175468 
L 128.549785 207.092884 
L 132.197589 209.179462 
L 135.845393 210.016628 
L 139.493197 211.8223 
L 143.141001 214.067014 
L 146.788805 215.376191 
L 150.436609 217.192454 
L 154.084413 218.804425 
L 157.732217 219.919384 
L 161.38002 220.422295 
L 165.027824 222.292093 
L 168.675628 224.557891 
L 172.323432 226.106079 
L 175.971236 226.940648 
L 179.61904 229.396832 
L 183.266844 229.77784 
L 186.914648 231.418702 
L 190.562451 233.668935 
L 194.210255 236.035459 
L 197.858059 236.616756 
L 201.505863 237.432888 
L 205.153667 237.708104 
L 208.801471 241.926242 
L 212.449275 241.501344 
L 216.097079 243.421261 
L 219.744883 244.904297 
L 223.392686 245.181127 
L 227.04049 246.050888 
L 230.688294 249.166769 
L 234.336098 249.811512 
L 237.983902 251.030698 
L 241.631706 252.066115 
L 245.27951 252.530963 
L 248.927314 254.315257 
L 252.575117 254.599393 
L 256.222921 257.642608 
L 259.870725 257.527946 
L 263.518529 259.624657 
L 267.166333 258.859641 
L 270.814137 260.849699 
L 274.461941 261.740063 
L 278.109745 263.469286 
L 281.757549 264.288511 
L 285.405352 266.089949 
L 289.053156 267.229996 
L 292.70096 268.99426 
L 296.348764 268.37658 
L 299.996568 269.073264 
L 303.644372 270.700025 
L 307.292176 270.762221 
L 310.93998 272.631711 
L 314.587783 273.146585 
L 318.235587 275.571236 
L 321.883391 274.929587 
L 325.531195 276.461822 
L 329.178999 277.331597 
L 332.826803 278.08216 
L 336.474607 278.565373 
L 340.122411 280.065947 
L 343.770215 280.833108 
L 347.418018 281.831553 
L 351.065822 283.004625 
L 354.713626 283.430284 
L 358.36143 283.990117 
L 362.009234 285.348666 
L 365.657038 285.281417 
L 369.304842 285.883131 
L 372.952646 288.272202 
L 376.600449 287.669864 
L 380.248253 288.90867 
L 383.896057 289.744154 
L 387.543861 289.386508 
L 391.191665 291.116936 
L 394.839469 291.069656 
L 398.487273 292.206441 
" clip-path="url(#p70c6ac217a)" style="fill: none; stroke: #ff00ff; stroke-opacity: 0.3; stroke-width: 0.5; stroke-linecap: square"/>
   </g>
   <g id="line2d_50">
    <path d="M 73.832727 172.319999 
L 77.480531 173.071381 
L 81.128335 173.809199 
L 84.776139 176.675907 
L 88.423943 176.8864 
L 92.071747 178.100821 
L 95.719551 181.65253 
L 99.367354 182.385985 
L 103.015158 183.043803 
L 106.662962 184.865061 
L 110.310766 186.584776 
L 113.95857 187.805067 
L 117.606374 189.468549 
L 121.254178 190.444102 
L 124.901982 191.316575 
L 128.549785 193.201071 
L 132.197589 195.184196 
L 135.845393 195.045953 
L 139.493197 197.024587 
L 143.141001 197.732624 
L 146.788805 199.217891 
L 150.436609 200.183942 
L 154.084413 201.328309 
L 157.732217 202.564129 
L 161.38002 202.434656 
L 165.027824 204.694253 
L 168.675628 206.222319 
L 172.323432 206.648646 
L 175.971236 208.446782 
L 179.61904 208.263171 
L 183.266844 210.757963 
L 186.914648 212.431333 
L 190.562451 212.310485 
L 194.210255 213.317456 
L 197.858059 214.094715 
L 201.505863 216.680688 
L 205.153667 217.226513 
L 208.801471 218.480834 
L 212.449275 219.644246 
L 216.097079 221.565011 
L 219.744883 222.391441 
L 223.392686 224.286113 
L 227.04049 224.44333 
L 230.688294 226.23607 
L 234.336098 227.274845 
L 237.983902 229.357958 
L 241.631706 229.238007 
L 245.27951 230.611683 
L 248.927314 231.338543 
L 252.575117 232.437972 
L 256.222921 233.656305 
L 259.870725 235.296011 
L 263.518529 237.125695 
L 267.166333 238.08772 
L 270.814137 237.72527 
L 274.461941 240.395234 
L 278.109745 241.099338 
L 281.757549 243.284023 
L 285.405352 244.368769 
L 289.053156 243.804415 
L 292.70096 245.129989 
L 296.348764 247.070747 
L 299.996568 248.602386 
L 303.644372 250.493534 
L 307.292176 250.184447 
L 310.93998 251.538101 
L 314.587783 252.487303 
L 318.235587 253.906153 
L 321.883391 252.967307 
L 325.531195 254.800414 
L 329.178999 255.762626 
L 332.826803 257.799796 
L 336.474607 257.829879 
L 340.122411 259.958819 
L 343.770215 259.863812 
L 347.418018 261.237991 
L 351.065822 261.876304 
L 354.713626 263.870904 
L 358.36143 264.2616 
L 362.009234 266.06705 
L 365.657038 266.83076 
L 369.304842 267.806248 
L 372.952646 269.183175 
L 376.600449 269.93696 
L 380.248253 270.623942 
L 383.896057 271.55051 
L 387.543861 271.9199 
L 391.191665 272.433116 
L 394.839469 273.307656 
L 398.487273 274.962763 
" clip-path="url(#p70c6ac217a)" style="fill: none; stroke: #ff00ff; stroke-opacity: 0.3; stroke-width: 0.5; stroke-linecap: square"/>
   </g>
   <g id="line2d_51">
    <path d="M 73.832727 162.213712 
L 77.480531 162.078382 
L 81.128335 163.416249 
L 84.776139 162.631398 
L 88.423943 162.761417 
L 92.071747 163.769779 
L 95.719551 163.369087 
L 99.367354 164.895445 
L 103.015158 165.031879 
L 106.662962 165.555114 
L 110.310766 165.397423 
L 113.95857 166.982023 
L 117.606374 166.573939 
L 121.254178 166.813238 
L 124.901982 166.253678 
L 128.549785 167.036749 
L 132.197589 167.248721 
L 135.845393 168.254888 
L 139.493197 168.097714 
L 143.141001 168.505324 
L 146.788805 169.055383 
L 150.436609 169.70746 
L 154.084413 169.187455 
L 157.732217 169.648658 
L 161.38002 169.621675 
L 165.027824 170.77583 
L 168.675628 170.628588 
L 172.323432 171.283707 
L 175.971236 170.89784 
L 179.61904 171.447497 
L 183.266844 170.867112 
L 186.914648 172.978161 
L 190.562451 172.188172 
L 194.210255 171.668684 
L 197.858059 172.561437 
L 201.505863 173.222412 
L 205.153667 173.204514 
L 208.801471 173.142354 
L 212.449275 173.922383 
L 216.097079 174.50317 
L 219.744883 174.046001 
L 223.392686 174.221374 
L 227.04049 176.147965 
L 230.688294 175.155003 
L 234.336098 175.49398 
L 237.983902 175.898016 
L 241.631706 177.243189 
L 245.27951 176.211948 
L 248.927314 176.427566 
L 252.575117 176.262814 
L 256.222921 176.617621 
L 259.870725 177.112983 
L 263.518529 177.682992 
L 267.166333 178.748047 
L 270.814137 177.650196 
L 274.461941 178.381728 
L 278.109745 178.039795 
L 281.757549 177.762663 
L 285.405352 178.420537 
L 289.053156 179.040278 
L 292.70096 179.970448 
L 296.348764 179.181047 
L 299.996568 180.40982 
L 303.644372 179.928969 
L 307.292176 180.648574 
L 310.93998 179.634758 
L 314.587783 180.927084 
L 318.235587 181.193811 
L 321.883391 180.949976 
L 325.531195 181.754175 
L 329.178999 181.069575 
L 332.826803 182.359347 
L 336.474607 181.465001 
L 340.122411 181.967754 
L 343.770215 183.145304 
L 347.418018 183.154087 
L 351.065822 183.103165 
L 354.713626 183.829443 
L 358.36143 183.745381 
L 362.009234 184.416331 
L 365.657038 184.641263 
L 369.304842 186.005625 
L 372.952646 184.200728 
L 376.600449 184.011677 
L 380.248253 183.768158 
L 383.896057 185.686526 
L 387.543861 185.152039 
L 391.191665 185.694764 
L 394.839469 187.297764 
L 398.487273 184.549594 
" clip-path="url(#p70c6ac217a)" style="fill: none; stroke: #ff00ff; stroke-opacity: 0.3; stroke-width: 0.5; stroke-linecap: square"/>
   </g>
   <g id="line2d_52">
    <path d="M 73.832727 151.294212 
L 77.480531 152.831047 
L 81.128335 154.766552 
L 84.776139 157.101629 
L 88.423943 156.06482 
L 92.071747 159.777162 
L 95.719551 161.374881 
L 99.367354 162.223744 
L 103.015158 163.684411 
L 106.662962 164.049667 
L 110.310766 167.095666 
L 113.95857 167.284746 
L 117.606374 169.129055 
L 121.254178 170.477456 
L 124.901982 171.452004 
L 128.549785 173.449971 
L 132.197589 174.744479 
L 135.845393 176.240826 
L 139.493197 176.963861 
L 143.141001 179.360898 
L 146.788805 180.729379 
L 150.436609 181.567492 
L 154.084413 183.883265 
L 157.732217 183.7402 
L 161.38002 185.390735 
L 165.027824 186.941091 
L 168.675628 186.477075 
L 172.323432 188.810789 
L 175.971236 190.218553 
L 179.61904 191.507736 
L 183.266844 192.478739 
L 186.914648 193.60482 
L 190.562451 193.917159 
L 194.210255 195.029003 
L 197.858059 197.008785 
L 201.505863 197.404052 
L 205.153667 197.698422 
L 208.801471 199.235472 
L 212.449275 200.475283 
L 216.097079 200.430518 
L 219.744883 202.117781 
L 223.392686 202.344091 
L 227.04049 204.532946 
L 230.688294 203.970343 
L 234.336098 204.704329 
L 237.983902 207.084272 
L 241.631706 206.673805 
L 245.27951 207.569142 
L 248.927314 210.07566 
L 252.575117 210.563788 
L 256.222921 211.233174 
L 259.870725 212.063221 
L 263.518529 212.716216 
L 267.166333 212.929537 
L 270.814137 214.88901 
L 274.461941 214.757512 
L 278.109745 216.194885 
L 281.757549 217.029324 
L 285.405352 217.77716 
L 289.053156 217.253338 
L 292.70096 219.007427 
L 296.348764 219.310264 
L 299.996568 219.82094 
L 303.644372 221.363416 
L 307.292176 221.915427 
L 310.93998 222.20839 
L 314.587783 224.321549 
L 318.235587 225.318329 
L 321.883391 225.942791 
L 325.531195 226.320362 
L 329.178999 226.590548 
L 332.826803 227.420882 
L 336.474607 229.453875 
L 340.122411 230.640417 
L 343.770215 230.011161 
L 347.418018 231.037938 
L 351.065822 233.465481 
L 354.713626 232.582832 
L 358.36143 232.928361 
L 362.009234 234.58674 
L 365.657038 235.44105 
L 369.304842 236.672293 
L 372.952646 237.739751 
L 376.600449 236.711561 
L 380.248253 239.178186 
L 383.896057 239.070966 
L 387.543861 240.346105 
L 391.191665 242.004097 
L 394.839469 241.452632 
L 398.487273 242.225721 
" clip-path="url(#p70c6ac217a)" style="fill: none; stroke: #ff00ff; stroke-opacity: 0.3; stroke-width: 0.5; stroke-linecap: square"/>
   </g>
   <g id="line2d_53">
    <path d="M 73.832727 186.201593 
L 77.480531 189.700313 
L 81.128335 189.680908 
L 84.776139 191.740734 
L 88.423943 194.014569 
L 92.071747 194.449148 
L 95.719551 195.810324 
L 99.367354 198.954551 
L 103.015158 201.393297 
L 106.662962 201.615258 
L 110.310766 203.162671 
L 113.95857 204.923692 
L 117.606374 207.085277 
L 121.254178 207.646129 
L 124.901982 208.893001 
L 128.549785 211.115067 
L 132.197589 211.772813 
L 135.845393 212.917768 
L 139.493197 214.860319 
L 143.141001 216.652945 
L 146.788805 218.206343 
L 150.436609 217.73772 
L 154.084413 219.420348 
L 157.732217 219.820036 
L 161.38002 221.262618 
L 165.027824 222.731451 
L 168.675628 224.220737 
L 172.323432 225.400526 
L 175.971236 226.767772 
L 179.61904 227.815432 
L 183.266844 230.518091 
L 186.914648 230.317271 
L 190.562451 231.683082 
L 194.210255 233.246175 
L 197.858059 234.243831 
L 201.505863 236.075839 
L 205.153667 237.137428 
L 208.801471 237.732941 
L 212.449275 239.340104 
L 216.097079 239.501131 
L 219.744883 240.39875 
L 223.392686 242.193306 
L 227.04049 242.931949 
L 230.688294 244.478501 
L 234.336098 245.372116 
L 237.983902 246.54213 
L 241.631706 248.401294 
L 245.27951 247.008902 
L 248.927314 249.554128 
L 252.575117 250.619449 
L 256.222921 253.036508 
L 259.870725 253.353604 
L 263.518529 254.374446 
L 267.166333 254.958786 
L 270.814137 256.671533 
L 274.461941 256.260808 
L 278.109745 257.955442 
L 281.757549 259.599712 
L 285.405352 260.101583 
L 289.053156 259.716793 
L 292.70096 261.04208 
L 296.348764 263.409852 
L 299.996568 264.131703 
L 303.644372 265.333272 
L 307.292176 265.276091 
L 310.93998 267.578711 
L 314.587783 267.218765 
L 318.235587 268.757782 
L 321.883391 268.859491 
L 325.531195 269.977628 
L 329.178999 271.598576 
L 332.826803 272.458778 
L 336.474607 272.187035 
L 340.122411 272.873952 
L 343.770215 274.351153 
L 347.418018 275.615169 
L 351.065822 275.271097 
L 354.713626 277.125015 
L 358.36143 278.030147 
L 362.009234 278.623012 
L 365.657038 278.93426 
L 369.304842 281.162146 
L 372.952646 280.290613 
L 376.600449 281.284982 
L 380.248253 282.107975 
L 383.896057 282.369635 
L 387.543861 283.50511 
L 391.191665 285.246957 
L 394.839469 284.493753 
L 398.487273 286.526962 
" clip-path="url(#p70c6ac217a)" style="fill: none; stroke: #ff00ff; stroke-opacity: 0.3; stroke-width: 0.5; stroke-linecap: square"/>
   </g>
   <g id="line2d_54">
    <path d="M 73.832727 188.714714 
L 77.480531 190.123381 
L 81.128335 191.350504 
L 84.776139 190.712321 
L 88.423943 192.612389 
L 92.071747 194.078452 
L 95.719551 194.514108 
L 99.367354 194.747149 
L 103.015158 197.279214 
L 106.662962 198.045407 
L 110.310766 198.079839 
L 113.95857 199.756023 
L 117.606374 200.014453 
L 121.254178 202.185611 
L 124.901982 202.861628 
L 128.549785 205.020284 
L 132.197589 205.289494 
L 135.845393 207.753959 
L 139.493197 208.535667 
L 143.141001 209.115752 
L 146.788805 211.012088 
L 150.436609 212.561424 
L 154.084413 214.474826 
L 157.732217 214.866649 
L 161.38002 215.260983 
L 165.027824 216.780079 
L 168.675628 219.361689 
L 172.323432 219.436021 
L 175.971236 220.358038 
L 179.61904 221.828996 
L 183.266844 223.212992 
L 186.914648 224.559441 
L 190.562451 224.992499 
L 194.210255 225.354181 
L 197.858059 227.072188 
L 201.505863 228.28366 
L 205.153667 228.933404 
L 208.801471 230.073056 
L 212.449275 232.002339 
L 216.097079 232.888604 
L 219.744883 233.886748 
L 223.392686 234.095447 
L 227.04049 236.964129 
L 230.688294 236.77187 
L 234.336098 237.753501 
L 237.983902 238.142353 
L 241.631706 240.182939 
L 245.27951 240.933567 
L 248.927314 242.536553 
L 252.575117 241.39116 
L 256.222921 244.742781 
L 259.870725 244.85839 
L 263.518529 245.100165 
L 267.166333 246.752251 
L 270.814137 245.848008 
L 274.461941 247.22932 
L 278.109745 248.673984 
L 281.757549 250.858611 
L 285.405352 249.537594 
L 289.053156 251.947893 
L 292.70096 253.710644 
L 296.348764 252.507934 
L 299.996568 254.653129 
L 303.644372 255.27861 
L 307.292176 254.743061 
L 310.93998 257.685292 
L 314.587783 256.930739 
L 318.235587 259.209418 
L 321.883391 258.145052 
L 325.531195 260.893029 
L 329.178999 261.58446 
L 332.826803 262.085118 
L 336.474607 262.106941 
L 340.122411 262.225586 
L 343.770215 263.568813 
L 347.418018 265.243102 
L 351.065822 266.822737 
L 354.713626 266.288925 
L 358.36143 266.331666 
L 362.009234 268.306001 
L 365.657038 267.834666 
L 369.304842 268.450969 
L 372.952646 269.511043 
L 376.600449 270.628162 
L 380.248253 271.04635 
L 383.896057 271.243001 
L 387.543861 271.420627 
L 391.191665 273.024926 
L 394.839469 272.960577 
L 398.487273 274.185403 
" clip-path="url(#p70c6ac217a)" style="fill: none; stroke: #ff00ff; stroke-opacity: 0.3; stroke-width: 0.5; stroke-linecap: square"/>
   </g>
   <g id="line2d_55">
    <path d="M 73.832727 175.164461 
L 77.480531 173.612713 
L 81.128335 172.649676 
L 84.776139 171.305781 
L 88.423943 170.20661 
L 92.071747 169.187039 
L 95.719551 167.5451 
L 99.367354 166.026822 
L 103.015158 164.533073 
L 106.662962 163.496106 
L 110.310766 162.921404 
L 113.95857 161.094089 
L 117.606374 159.907282 
L 121.254178 158.687177 
L 124.901982 157.714997 
L 128.549785 156.141419 
L 132.197589 154.922133 
L 135.845393 153.591758 
L 139.493197 152.728958 
L 143.141001 151.683164 
L 146.788805 150.068955 
L 150.436609 149.049828 
L 154.084413 147.321918 
L 157.732217 146.743585 
L 161.38002 145.146497 
L 165.027824 143.894688 
L 168.675628 142.709804 
L 172.323432 140.882676 
L 175.971236 140.369316 
L 179.61904 138.961495 
L 183.266844 137.701677 
L 186.914648 136.490112 
L 190.562451 135.058294 
L 194.210255 133.775368 
L 197.858059 132.701874 
L 201.505863 130.629648 
L 205.153667 130.71417 
L 208.801471 128.179636 
L 212.449275 126.373505 
L 216.097079 125.405688 
L 219.744883 123.684208 
L 223.392686 123.03295 
L 227.04049 121.061736 
L 230.688294 120.34981 
L 234.336098 118.070291 
L 237.983902 116.795546 
L 241.631706 115.710857 
L 245.27951 114.987794 
L 248.927314 112.477903 
L 252.575117 112.238231 
L 256.222921 109.224869 
L 259.870725 108.581103 
L 263.518529 106.233495 
L 267.166333 105.993091 
L 270.814137 104.144951 
L 274.461941 103.383121 
L 278.109745 101.309416 
L 281.757549 98.632305 
L 285.405352 97.603404 
L 289.053156 97.231416 
L 292.70096 95.492613 
L 296.348764 93.834384 
L 299.996568 92.374392 
L 303.644372 89.671934 
L 307.292176 90.326464 
L 310.93998 87.412881 
L 314.587783 87.271624 
L 318.235587 83.936853 
L 321.883391 85.543011 
L 325.531195 82.299952 
L 329.178999 80.887007 
L 332.826803 78.572354 
L 336.474607 78.932027 
L 340.122411 76.310689 
L 343.770215 75.135852 
L 347.418018 73.525532 
L 351.065822 71.42628 
L 354.713626 70.919408 
L 358.36143 69.141594 
L 362.009234 67.706633 
L 365.657038 66.193048 
L 369.304842 63.65352 
L 372.952646 62.916548 
L 376.600449 63.270825 
L 380.248253 59.905024 
L 383.896057 58.450629 
L 387.543861 58.657621 
L 391.191665 55.417633 
L 394.839469 55.779488 
L 398.487273 53.568 
" clip-path="url(#p70c6ac217a)" style="fill: none; stroke: #6495ed; stroke-width: 2; stroke-linecap: square"/>
   </g>
   <g id="line2d_56">
    <path d="M 73.832727 174.461256 
L 77.480531 176.18904 
L 81.128335 177.490524 
L 84.776139 179.034712 
L 88.423943 180.36594 
L 92.071747 181.600498 
L 95.719551 183.045186 
L 99.367354 184.450412 
L 103.015158 185.796312 
L 106.662962 186.925617 
L 110.310766 187.767571 
L 113.95857 189.162053 
L 117.606374 190.206498 
L 121.254178 191.320853 
L 124.901982 192.257097 
L 128.549785 193.422899 
L 132.197589 194.429358 
L 135.845393 195.471609 
L 139.493197 196.328611 
L 143.141001 197.233376 
L 146.788805 198.291036 
L 150.436609 199.152731 
L 154.084413 200.255558 
L 157.732217 200.921949 
L 161.38002 201.956397 
L 165.027824 202.852084 
L 168.675628 203.716079 
L 172.323432 204.818354 
L 175.971236 205.418708 
L 179.61904 206.341521 
L 183.266844 207.193068 
L 186.914648 208.051844 
L 190.562451 208.925128 
L 194.210255 209.765454 
L 197.858059 210.547 
L 201.505863 211.6169 
L 205.153667 211.981903 
L 208.801471 213.185138 
L 212.449275 214.153987 
L 216.097079 214.86165 
L 219.744883 215.79553 
L 223.392686 216.367422 
L 227.04049 217.353452 
L 230.688294 217.943803 
L 234.336098 219.025405 
L 237.983902 219.771561 
L 241.631706 220.458899 
L 245.27951 221.03133 
L 248.927314 222.133984 
L 252.575117 222.529508 
L 256.222921 223.756248 
L 259.870725 224.315154 
L 263.518529 225.357531 
L 267.166333 225.765476 
L 270.814137 226.618849 
L 274.461941 227.18869 
L 278.109745 228.090638 
L 281.757549 229.176691 
L 285.405352 229.797519 
L 289.053156 230.238012 
L 292.70096 231.052151 
L 296.348764 231.808971 
L 299.996568 232.547432 
L 303.644372 233.563804 
L 307.292176 233.742966 
L 310.93998 234.798295 
L 314.587783 235.190118 
L 318.235587 236.324746 
L 321.883391 236.280442 
L 325.531195 237.38893 
L 329.178999 238.046117 
L 332.826803 238.927185 
L 336.474607 239.193098 
L 340.122411 240.147068 
L 343.770215 240.724673 
L 347.418018 241.408299 
L 351.065822 242.240784 
L 354.713626 242.660413 
L 358.36143 243.348961 
L 362.009234 244.001353 
L 365.657038 244.664504 
L 369.304842 245.537399 
L 372.952646 245.998809 
L 376.600449 246.216018 
L 380.248253 247.268666 
L 383.896057 247.873193 
L 387.543861 248.153426 
L 391.191665 249.098367 
L 394.839469 249.35797 
L 398.487273 250.102274 
" clip-path="url(#p70c6ac217a)" style="fill: none; stroke: #dc143c; stroke-width: 2; stroke-linecap: square"/>
   </g>
   <g id="line2d_57">
    <path d="M 73.832727 258.91731 
L 77.480531 256.943583 
L 81.128335 256.203435 
L 84.776139 251.515833 
L 88.423943 243.867639 
L 92.071747 232.765423 
L 95.719551 221.663207 
L 99.367354 209.820843 
L 103.015158 202.912797 
L 106.662962 198.47191 
L 110.310766 192.550728 
L 113.95857 191.070433 
L 117.606374 188.109842 
L 121.254178 185.642683 
L 124.901982 181.695228 
L 128.549785 178.981353 
L 132.197589 178.241205 
L 135.845393 176.514194 
L 139.493197 176.514194 
L 143.141001 175.280614 
L 146.788805 174.047034 
L 150.436609 173.060171 
L 154.084413 171.333159 
L 157.732217 170.839727 
L 161.38002 170.09958 
L 165.027824 169.359432 
L 168.675628 169.359432 
L 172.323432 169.112716 
L 175.971236 168.619284 
L 179.61904 168.619284 
L 183.266844 168.619284 
L 186.914648 168.125852 
L 190.562451 168.125852 
L 194.210255 167.879136 
L 197.858059 167.63242 
L 201.505863 166.892273 
L 205.153667 166.892273 
L 208.801471 166.892273 
L 212.449275 167.138989 
L 216.097079 166.892273 
L 219.744883 167.138989 
L 223.392686 167.385705 
L 227.04049 167.385705 
L 230.688294 167.63242 
L 234.336098 167.385705 
L 237.983902 166.398841 
L 241.631706 166.892273 
L 245.27951 166.892273 
L 248.927314 167.385705 
L 252.575117 166.645557 
L 256.222921 166.892273 
L 259.870725 166.892273 
L 263.518529 166.645557 
L 267.166333 167.138989 
L 270.814137 167.138989 
L 274.461941 167.138989 
L 278.109745 166.892273 
L 281.757549 167.138989 
L 285.405352 167.63242 
L 289.053156 167.879136 
L 292.70096 168.372568 
L 296.348764 168.372568 
L 299.996568 168.619284 
L 303.644372 168.619284 
L 307.292176 168.866 
L 310.93998 168.619284 
L 314.587783 168.372568 
L 318.235587 168.619284 
L 321.883391 168.372568 
L 325.531195 168.372568 
L 329.178999 168.372568 
L 332.826803 168.372568 
L 336.474607 168.372568 
L 340.122411 168.372568 
L 343.770215 168.125852 
L 347.418018 168.372568 
L 351.065822 168.372568 
L 354.713626 168.372568 
L 358.36143 168.372568 
L 362.009234 168.372568 
L 365.657038 168.125852 
L 369.304842 168.372568 
L 372.952646 168.372568 
L 376.600449 168.372568 
L 380.248253 168.372568 
L 383.896057 168.619284 
L 387.543861 168.619284 
L 391.191665 168.619284 
L 394.839469 168.619284 
L 398.487273 168.619284 
" clip-path="url(#p70c6ac217a)" style="fill: none; stroke: #ffff00; stroke-width: 3; stroke-linecap: square"/>
   </g>
   <g id="patch_3">
    <path d="M 57.6 307.584 
L 57.6 41.472 
" style="fill: none; stroke: #ffffff; stroke-linejoin: miter; stroke-linecap: square"/>
   </g>
   <g id="patch_4">
    <path d="M 414.72 307.584 
L 414.72 41.472 
" style="fill: none; stroke: #ffffff; stroke-linejoin: miter; stroke-linecap: square"/>
   </g>
   <g id="patch_5">
    <path d="M 57.6 307.584 
L 414.72 307.584 
" style="fill: none; stroke: #ffffff; stroke-linejoin: miter; stroke-linecap: square"/>
   </g>
   <g id="patch_6">
    <path d="M 57.6 41.472 
L 414.72 41.472 
" style="fill: none; stroke: #ffffff; stroke-linejoin: miter; stroke-linecap: square"/>
   </g>
  </g>
 </g>
 <defs>
  <clipPath id="p70c6ac217a">
   <rect x="57.6" y="41.472" width="357.12" height="266.112"/>
  </clipPath>
 </defs>
</svg>
