<?xml version="1.0" encoding="utf-8" standalone="no"?>
<!DOCTYPE svg PUBLIC "-//W3C//DTD SVG 1.1//EN"
  "http://www.w3.org/Graphics/SVG/1.1/DTD/svg11.dtd">
<svg xmlns:xlink="http://www.w3.org/1999/xlink" width="460.8pt" height="345.6pt" viewBox="0 0 460.8 345.6" xmlns="http://www.w3.org/2000/svg" version="1.1">
 <metadata>
  <rdf:RDF xmlns:dc="http://purl.org/dc/elements/1.1/" xmlns:cc="http://creativecommons.org/ns#" xmlns:rdf="http://www.w3.org/1999/02/22-rdf-syntax-ns#">
   <cc:Work>
    <dc:type rdf:resource="http://purl.org/dc/dcmitype/StillImage"/>
    <dc:date>2023-07-12T19:14:35.841175</dc:date>
    <dc:format>image/svg+xml</dc:format>
    <dc:creator>
     <cc:Agent>
      <dc:title>Matplotlib v3.7.1, https://matplotlib.org/</dc:title>
     </cc:Agent>
    </dc:creator>
   </cc:Work>
  </rdf:RDF>
 </metadata>
 <defs>
  <style type="text/css">*{stroke-linejoin: round; stroke-linecap: butt}</style>
 </defs>
 <g id="figure_1">
  <g id="patch_1">
   <path d="M 0 345.6 
L 460.8 345.6 
L 460.8 0 
L 0 0 
z
" style="fill: #ffffff"/>
  </g>
  <g id="axes_1">
   <g id="patch_2">
    <path d="M 57.6 307.584 
L 414.72 307.584 
L 414.72 41.472 
L 57.6 41.472 
z
" style="fill: #e5e5e5"/>
   </g>
   <g id="matplotlib.axis_1">
    <g id="xtick_1">
     <g id="line2d_1">
      <path d="M 70.184923 307.584 
L 70.184923 41.472 
" clip-path="url(#pdf1aff3e2e)" style="fill: none; stroke: #ffffff; stroke-width: 0.8; stroke-linecap: square"/>
     </g>
     <g id="line2d_2">
      <defs>
       <path id="m4e07e887b9" d="M 0 0 
L 0 3.5 
" style="stroke: #555555; stroke-width: 0.8"/>
      </defs>
      <g>
       <use xlink:href="#m4e07e887b9" x="70.184923" y="307.584" style="fill: #555555; stroke: #555555; stroke-width: 0.8"/>
      </g>
     </g>
     <g id="text_1">
      <!-- 0 -->
      <g style="fill: #555555" transform="translate(67.003673 322.182437) scale(0.1 -0.1)">
       <defs>
        <path id="DejaVuSans-30" d="M 2034 4250 
Q 1547 4250 1301 3770 
Q 1056 3291 1056 2328 
Q 1056 1369 1301 889 
Q 1547 409 2034 409 
Q 2525 409 2770 889 
Q 3016 1369 3016 2328 
Q 3016 3291 2770 3770 
Q 2525 4250 2034 4250 
z
M 2034 4750 
Q 2819 4750 3233 4129 
Q 3647 3509 3647 2328 
Q 3647 1150 3233 529 
Q 2819 -91 2034 -91 
Q 1250 -91 836 529 
Q 422 1150 422 2328 
Q 422 3509 836 4129 
Q 1250 4750 2034 4750 
z
" transform="scale(0.015625)"/>
       </defs>
       <use xlink:href="#DejaVuSans-30"/>
      </g>
     </g>
    </g>
    <g id="xtick_2">
     <g id="line2d_3">
      <path d="M 143.141001 307.584 
L 143.141001 41.472 
" clip-path="url(#pdf1aff3e2e)" style="fill: none; stroke: #ffffff; stroke-width: 0.8; stroke-linecap: square"/>
     </g>
     <g id="line2d_4">
      <g>
       <use xlink:href="#m4e07e887b9" x="143.141001" y="307.584" style="fill: #555555; stroke: #555555; stroke-width: 0.8"/>
      </g>
     </g>
     <g id="text_2">
      <!-- 20 -->
      <g style="fill: #555555" transform="translate(136.778501 322.182437) scale(0.1 -0.1)">
       <defs>
        <path id="DejaVuSans-32" d="M 1228 531 
L 3431 531 
L 3431 0 
L 469 0 
L 469 531 
Q 828 903 1448 1529 
Q 2069 2156 2228 2338 
Q 2531 2678 2651 2914 
Q 2772 3150 2772 3378 
Q 2772 3750 2511 3984 
Q 2250 4219 1831 4219 
Q 1534 4219 1204 4116 
Q 875 4013 500 3803 
L 500 4441 
Q 881 4594 1212 4672 
Q 1544 4750 1819 4750 
Q 2544 4750 2975 4387 
Q 3406 4025 3406 3419 
Q 3406 3131 3298 2873 
Q 3191 2616 2906 2266 
Q 2828 2175 2409 1742 
Q 1991 1309 1228 531 
z
" transform="scale(0.015625)"/>
       </defs>
       <use xlink:href="#DejaVuSans-32"/>
       <use xlink:href="#DejaVuSans-30" x="63.623047"/>
      </g>
     </g>
    </g>
    <g id="xtick_3">
     <g id="line2d_5">
      <path d="M 216.097079 307.584 
L 216.097079 41.472 
" clip-path="url(#pdf1aff3e2e)" style="fill: none; stroke: #ffffff; stroke-width: 0.8; stroke-linecap: square"/>
     </g>
     <g id="line2d_6">
      <g>
       <use xlink:href="#m4e07e887b9" x="216.097079" y="307.584" style="fill: #555555; stroke: #555555; stroke-width: 0.8"/>
      </g>
     </g>
     <g id="text_3">
      <!-- 40 -->
      <g style="fill: #555555" transform="translate(209.734579 322.182437) scale(0.1 -0.1)">
       <defs>
        <path id="DejaVuSans-34" d="M 2419 4116 
L 825 1625 
L 2419 1625 
L 2419 4116 
z
M 2253 4666 
L 3047 4666 
L 3047 1625 
L 3713 1625 
L 3713 1100 
L 3047 1100 
L 3047 0 
L 2419 0 
L 2419 1100 
L 313 1100 
L 313 1709 
L 2253 4666 
z
" transform="scale(0.015625)"/>
       </defs>
       <use xlink:href="#DejaVuSans-34"/>
       <use xlink:href="#DejaVuSans-30" x="63.623047"/>
      </g>
     </g>
    </g>
    <g id="xtick_4">
     <g id="line2d_7">
      <path d="M 289.053156 307.584 
L 289.053156 41.472 
" clip-path="url(#pdf1aff3e2e)" style="fill: none; stroke: #ffffff; stroke-width: 0.8; stroke-linecap: square"/>
     </g>
     <g id="line2d_8">
      <g>
       <use xlink:href="#m4e07e887b9" x="289.053156" y="307.584" style="fill: #555555; stroke: #555555; stroke-width: 0.8"/>
      </g>
     </g>
     <g id="text_4">
      <!-- 60 -->
      <g style="fill: #555555" transform="translate(282.690656 322.182437) scale(0.1 -0.1)">
       <defs>
        <path id="DejaVuSans-36" d="M 2113 2584 
Q 1688 2584 1439 2293 
Q 1191 2003 1191 1497 
Q 1191 994 1439 701 
Q 1688 409 2113 409 
Q 2538 409 2786 701 
Q 3034 994 3034 1497 
Q 3034 2003 2786 2293 
Q 2538 2584 2113 2584 
z
M 3366 4563 
L 3366 3988 
Q 3128 4100 2886 4159 
Q 2644 4219 2406 4219 
Q 1781 4219 1451 3797 
Q 1122 3375 1075 2522 
Q 1259 2794 1537 2939 
Q 1816 3084 2150 3084 
Q 2853 3084 3261 2657 
Q 3669 2231 3669 1497 
Q 3669 778 3244 343 
Q 2819 -91 2113 -91 
Q 1303 -91 875 529 
Q 447 1150 447 2328 
Q 447 3434 972 4092 
Q 1497 4750 2381 4750 
Q 2619 4750 2861 4703 
Q 3103 4656 3366 4563 
z
" transform="scale(0.015625)"/>
       </defs>
       <use xlink:href="#DejaVuSans-36"/>
       <use xlink:href="#DejaVuSans-30" x="63.623047"/>
      </g>
     </g>
    </g>
    <g id="xtick_5">
     <g id="line2d_9">
      <path d="M 362.009234 307.584 
L 362.009234 41.472 
" clip-path="url(#pdf1aff3e2e)" style="fill: none; stroke: #ffffff; stroke-width: 0.8; stroke-linecap: square"/>
     </g>
     <g id="line2d_10">
      <g>
       <use xlink:href="#m4e07e887b9" x="362.009234" y="307.584" style="fill: #555555; stroke: #555555; stroke-width: 0.8"/>
      </g>
     </g>
     <g id="text_5">
      <!-- 80 -->
      <g style="fill: #555555" transform="translate(355.646734 322.182437) scale(0.1 -0.1)">
       <defs>
        <path id="DejaVuSans-38" d="M 2034 2216 
Q 1584 2216 1326 1975 
Q 1069 1734 1069 1313 
Q 1069 891 1326 650 
Q 1584 409 2034 409 
Q 2484 409 2743 651 
Q 3003 894 3003 1313 
Q 3003 1734 2745 1975 
Q 2488 2216 2034 2216 
z
M 1403 2484 
Q 997 2584 770 2862 
Q 544 3141 544 3541 
Q 544 4100 942 4425 
Q 1341 4750 2034 4750 
Q 2731 4750 3128 4425 
Q 3525 4100 3525 3541 
Q 3525 3141 3298 2862 
Q 3072 2584 2669 2484 
Q 3125 2378 3379 2068 
Q 3634 1759 3634 1313 
Q 3634 634 3220 271 
Q 2806 -91 2034 -91 
Q 1263 -91 848 271 
Q 434 634 434 1313 
Q 434 1759 690 2068 
Q 947 2378 1403 2484 
z
M 1172 3481 
Q 1172 3119 1398 2916 
Q 1625 2713 2034 2713 
Q 2441 2713 2670 2916 
Q 2900 3119 2900 3481 
Q 2900 3844 2670 4047 
Q 2441 4250 2034 4250 
Q 1625 4250 1398 4047 
Q 1172 3844 1172 3481 
z
" transform="scale(0.015625)"/>
       </defs>
       <use xlink:href="#DejaVuSans-38"/>
       <use xlink:href="#DejaVuSans-30" x="63.623047"/>
      </g>
     </g>
    </g>
   </g>
   <g id="matplotlib.axis_2">
    <g id="ytick_1">
     <g id="line2d_11">
      <path d="M 57.6 288.388046 
L 414.72 288.388046 
" clip-path="url(#pdf1aff3e2e)" style="fill: none; stroke: #ffffff; stroke-width: 0.8; stroke-linecap: square"/>
     </g>
     <g id="line2d_12">
      <defs>
       <path id="m7877d5a442" d="M 0 0 
L -3.5 0 
" style="stroke: #555555; stroke-width: 0.8"/>
      </defs>
      <g>
       <use xlink:href="#m7877d5a442" x="57.6" y="288.388046" style="fill: #555555; stroke: #555555; stroke-width: 0.8"/>
      </g>
     </g>
     <g id="text_6">
      <!-- 0.2 -->
      <g style="fill: #555555" transform="translate(34.696875 292.187265) scale(0.1 -0.1)">
       <defs>
        <path id="DejaVuSans-2e" d="M 684 794 
L 1344 794 
L 1344 0 
L 684 0 
L 684 794 
z
" transform="scale(0.015625)"/>
       </defs>
       <use xlink:href="#DejaVuSans-30"/>
       <use xlink:href="#DejaVuSans-2e" x="63.623047"/>
       <use xlink:href="#DejaVuSans-32" x="95.410156"/>
      </g>
     </g>
    </g>
    <g id="ytick_2">
     <g id="line2d_13">
      <path d="M 57.6 239.767754 
L 414.72 239.767754 
" clip-path="url(#pdf1aff3e2e)" style="fill: none; stroke: #ffffff; stroke-width: 0.8; stroke-linecap: square"/>
     </g>
     <g id="line2d_14">
      <g>
       <use xlink:href="#m7877d5a442" x="57.6" y="239.767754" style="fill: #555555; stroke: #555555; stroke-width: 0.8"/>
      </g>
     </g>
     <g id="text_7">
      <!-- 0.4 -->
      <g style="fill: #555555" transform="translate(34.696875 243.566973) scale(0.1 -0.1)">
       <use xlink:href="#DejaVuSans-30"/>
       <use xlink:href="#DejaVuSans-2e" x="63.623047"/>
       <use xlink:href="#DejaVuSans-34" x="95.410156"/>
      </g>
     </g>
    </g>
    <g id="ytick_3">
     <g id="line2d_15">
      <path d="M 57.6 191.147462 
L 414.72 191.147462 
" clip-path="url(#pdf1aff3e2e)" style="fill: none; stroke: #ffffff; stroke-width: 0.8; stroke-linecap: square"/>
     </g>
     <g id="line2d_16">
      <g>
       <use xlink:href="#m7877d5a442" x="57.6" y="191.147462" style="fill: #555555; stroke: #555555; stroke-width: 0.8"/>
      </g>
     </g>
     <g id="text_8">
      <!-- 0.6 -->
      <g style="fill: #555555" transform="translate(34.696875 194.94668) scale(0.1 -0.1)">
       <use xlink:href="#DejaVuSans-30"/>
       <use xlink:href="#DejaVuSans-2e" x="63.623047"/>
       <use xlink:href="#DejaVuSans-36" x="95.410156"/>
      </g>
     </g>
    </g>
    <g id="ytick_4">
     <g id="line2d_17">
      <path d="M 57.6 142.527169 
L 414.72 142.527169 
" clip-path="url(#pdf1aff3e2e)" style="fill: none; stroke: #ffffff; stroke-width: 0.8; stroke-linecap: square"/>
     </g>
     <g id="line2d_18">
      <g>
       <use xlink:href="#m7877d5a442" x="57.6" y="142.527169" style="fill: #555555; stroke: #555555; stroke-width: 0.8"/>
      </g>
     </g>
     <g id="text_9">
      <!-- 0.8 -->
      <g style="fill: #555555" transform="translate(34.696875 146.326388) scale(0.1 -0.1)">
       <use xlink:href="#DejaVuSans-30"/>
       <use xlink:href="#DejaVuSans-2e" x="63.623047"/>
       <use xlink:href="#DejaVuSans-38" x="95.410156"/>
      </g>
     </g>
    </g>
    <g id="ytick_5">
     <g id="line2d_19">
      <path d="M 57.6 93.906877 
L 414.72 93.906877 
" clip-path="url(#pdf1aff3e2e)" style="fill: none; stroke: #ffffff; stroke-width: 0.8; stroke-linecap: square"/>
     </g>
     <g id="line2d_20">
      <g>
       <use xlink:href="#m7877d5a442" x="57.6" y="93.906877" style="fill: #555555; stroke: #555555; stroke-width: 0.8"/>
      </g>
     </g>
     <g id="text_10">
      <!-- 1.0 -->
      <g style="fill: #555555" transform="translate(34.696875 97.706096) scale(0.1 -0.1)">
       <defs>
        <path id="DejaVuSans-31" d="M 794 531 
L 1825 531 
L 1825 4091 
L 703 3866 
L 703 4441 
L 1819 4666 
L 2450 4666 
L 2450 531 
L 3481 531 
L 3481 0 
L 794 0 
L 794 531 
z
" transform="scale(0.015625)"/>
       </defs>
       <use xlink:href="#DejaVuSans-31"/>
       <use xlink:href="#DejaVuSans-2e" x="63.623047"/>
       <use xlink:href="#DejaVuSans-30" x="95.410156"/>
      </g>
     </g>
    </g>
    <g id="ytick_6">
     <g id="line2d_21">
      <path d="M 57.6 45.286584 
L 414.72 45.286584 
" clip-path="url(#pdf1aff3e2e)" style="fill: none; stroke: #ffffff; stroke-width: 0.8; stroke-linecap: square"/>
     </g>
     <g id="line2d_22">
      <g>
       <use xlink:href="#m7877d5a442" x="57.6" y="45.286584" style="fill: #555555; stroke: #555555; stroke-width: 0.8"/>
      </g>
     </g>
     <g id="text_11">
      <!-- 1.2 -->
      <g style="fill: #555555" transform="translate(34.696875 49.085803) scale(0.1 -0.1)">
       <use xlink:href="#DejaVuSans-31"/>
       <use xlink:href="#DejaVuSans-2e" x="63.623047"/>
       <use xlink:href="#DejaVuSans-32" x="95.410156"/>
      </g>
     </g>
    </g>
   </g>
   <g id="line2d_23">
    <path d="M 73.832727 171.422468 
L 77.480531 173.709856 
L 81.128335 176.577046 
L 84.776139 178.225773 
L 88.423943 179.720313 
L 92.071747 181.197696 
L 95.719551 184.207844 
L 99.367354 186.145342 
L 103.015158 188.510396 
L 106.662962 189.548255 
L 110.310766 192.129065 
L 113.95857 192.990479 
L 117.606374 194.716496 
L 121.254178 196.124053 
L 124.901982 197.780952 
L 128.549785 198.543082 
L 132.197589 200.171697 
L 135.845393 202.332616 
L 139.493197 204.602428 
L 143.141001 205.826092 
L 146.788805 206.681464 
L 150.436609 208.193667 
L 154.084413 209.713202 
L 157.732217 211.592378 
L 161.38002 212.237631 
L 165.027824 212.855295 
L 168.675628 214.249506 
L 172.323432 216.142803 
L 175.971236 216.779094 
L 179.61904 217.065256 
L 183.266844 219.454371 
L 186.914648 219.559307 
L 190.562451 222.108565 
L 194.210255 221.94732 
L 197.858059 223.594418 
L 201.505863 223.877501 
L 205.153667 225.53656 
L 208.801471 226.970061 
L 212.449275 228.796884 
L 216.097079 228.293676 
L 219.744883 230.249881 
L 223.392686 230.971866 
L 227.04049 232.41932 
L 230.688294 232.033489 
L 234.336098 233.73772 
L 237.983902 234.682235 
L 241.631706 235.710494 
L 245.27951 237.057765 
L 248.927314 238.064963 
L 252.575117 238.610728 
L 256.222921 239.789516 
L 259.870725 240.584553 
L 263.518529 241.40065 
L 267.166333 242.926821 
L 270.814137 243.139925 
L 274.461941 244.697054 
L 278.109745 245.304742 
L 281.757549 246.710842 
L 285.405352 247.298715 
L 289.053156 248.403409 
L 292.70096 248.478481 
L 296.348764 249.790527 
L 299.996568 250.730898 
L 303.644372 252.461747 
L 307.292176 253.286712 
L 310.93998 253.248089 
L 314.587783 253.561007 
L 318.235587 254.917211 
L 321.883391 254.941221 
L 325.531195 256.979207 
L 329.178999 257.915651 
L 332.826803 259.026815 
L 336.474607 259.227407 
L 340.122411 259.690072 
L 343.770215 260.986729 
L 347.418018 261.908002 
L 351.065822 262.173241 
L 354.713626 263.273269 
L 358.36143 263.771413 
L 362.009234 264.858494 
L 365.657038 265.261794 
L 369.304842 266.465671 
L 372.952646 266.242149 
L 376.600449 267.148874 
L 380.248253 268.45763 
L 383.896057 268.277056 
L 387.543861 269.712564 
L 391.191665 270.654209 
L 394.839469 271.112006 
L 398.487273 271.175964 
" clip-path="url(#pdf1aff3e2e)" style="fill: none; stroke: #ff00ff; stroke-opacity: 0.3; stroke-width: 0.5; stroke-linecap: square"/>
   </g>
   <g id="line2d_24">
    <path d="M 73.832727 163.781687 
L 77.480531 166.047948 
L 81.128335 165.803719 
L 84.776139 167.965972 
L 88.423943 167.622863 
L 92.071747 168.271435 
L 95.719551 169.156004 
L 99.367354 170.449553 
L 103.015158 171.542692 
L 106.662962 172.917356 
L 110.310766 172.91611 
L 113.95857 174.503211 
L 117.606374 174.963891 
L 121.254178 176.443825 
L 124.901982 177.033277 
L 128.549785 177.579984 
L 132.197589 178.585342 
L 135.845393 178.591717 
L 139.493197 180.50238 
L 143.141001 180.460403 
L 146.788805 181.219141 
L 150.436609 181.691587 
L 154.084413 183.105389 
L 157.732217 183.521265 
L 161.38002 184.634588 
L 165.027824 185.183671 
L 168.675628 186.67724 
L 172.323432 186.067227 
L 175.971236 187.723011 
L 179.61904 186.923208 
L 183.266844 189.058581 
L 186.914648 190.528719 
L 190.562451 192.069772 
L 194.210255 191.65291 
L 197.858059 192.341865 
L 201.505863 193.551198 
L 205.153667 194.230039 
L 208.801471 194.06991 
L 212.449275 195.878679 
L 216.097079 195.574578 
L 219.744883 196.92984 
L 223.392686 196.979845 
L 227.04049 198.650438 
L 230.688294 199.298691 
L 234.336098 198.576597 
L 237.983902 200.632102 
L 241.631706 201.470854 
L 245.27951 202.254486 
L 248.927314 203.788105 
L 252.575117 203.514549 
L 256.222921 203.051609 
L 259.870725 204.244177 
L 263.518529 205.696884 
L 267.166333 206.320171 
L 270.814137 206.009998 
L 274.461941 206.39165 
L 278.109745 207.060942 
L 281.757549 207.974651 
L 285.405352 207.453041 
L 289.053156 208.560669 
L 292.70096 208.791277 
L 296.348764 209.300223 
L 299.996568 210.978177 
L 303.644372 211.427931 
L 307.292176 212.608241 
L 310.93998 212.475774 
L 314.587783 212.641235 
L 318.235587 212.216142 
L 321.883391 213.927061 
L 325.531195 215.664843 
L 329.178999 216.236799 
L 332.826803 215.440988 
L 336.474607 216.62024 
L 340.122411 217.173228 
L 343.770215 217.884592 
L 347.418018 217.211656 
L 351.065822 218.264881 
L 354.713626 219.760356 
L 358.36143 221.0353 
L 362.009234 220.77035 
L 365.657038 220.219036 
L 369.304842 222.096567 
L 372.952646 222.063305 
L 376.600449 221.4782 
L 380.248253 224.297602 
L 383.896057 223.025976 
L 387.543861 224.125041 
L 391.191665 224.629053 
L 394.839469 225.331092 
L 398.487273 226.170634 
" clip-path="url(#pdf1aff3e2e)" style="fill: none; stroke: #ff00ff; stroke-opacity: 0.3; stroke-width: 0.5; stroke-linecap: square"/>
   </g>
   <g id="line2d_25">
    <path d="M 73.832727 182.223862 
L 77.480531 183.589441 
L 81.128335 184.589336 
L 84.776139 186.749864 
L 88.423943 186.82527 
L 92.071747 188.95092 
L 95.719551 189.312807 
L 99.367354 191.953301 
L 103.015158 192.187575 
L 106.662962 193.321343 
L 110.310766 194.844762 
L 113.95857 196.346097 
L 117.606374 198.297143 
L 121.254178 198.894087 
L 124.901982 199.077081 
L 128.549785 200.232714 
L 132.197589 201.685581 
L 135.845393 202.555429 
L 139.493197 204.082745 
L 143.141001 204.687527 
L 146.788805 206.846012 
L 150.436609 205.88666 
L 154.084413 207.605924 
L 157.732217 209.358777 
L 161.38002 210.93746 
L 165.027824 211.994359 
L 168.675628 212.919993 
L 172.323432 214.236537 
L 175.971236 214.393797 
L 179.61904 214.602409 
L 183.266844 217.219017 
L 186.914648 217.582635 
L 190.562451 219.375589 
L 194.210255 219.772469 
L 197.858059 221.859707 
L 201.505863 223.436289 
L 205.153667 223.947915 
L 208.801471 224.63503 
L 212.449275 225.689878 
L 216.097079 227.813529 
L 219.744883 228.144473 
L 223.392686 228.168164 
L 227.04049 231.061001 
L 230.688294 230.76855 
L 234.336098 233.034442 
L 237.983902 233.284227 
L 241.631706 233.418723 
L 245.27951 234.774413 
L 248.927314 235.807671 
L 252.575117 238.439927 
L 256.222921 237.785719 
L 259.870725 239.803115 
L 263.518529 241.078624 
L 267.166333 241.854251 
L 270.814137 242.412528 
L 274.461941 244.227869 
L 278.109745 245.296838 
L 281.757549 244.617526 
L 285.405352 245.743969 
L 289.053156 247.060087 
L 292.70096 249.211783 
L 296.348764 249.578466 
L 299.996568 252.011775 
L 303.644372 251.951678 
L 307.292176 253.088025 
L 310.93998 253.473669 
L 314.587783 254.714279 
L 318.235587 255.058228 
L 321.883391 256.704673 
L 325.531195 257.163824 
L 329.178999 258.555412 
L 332.826803 259.63593 
L 336.474607 260.010735 
L 340.122411 260.438508 
L 343.770215 262.554639 
L 347.418018 261.979568 
L 351.065822 262.922242 
L 354.713626 263.647784 
L 358.36143 265.4335 
L 362.009234 265.562591 
L 365.657038 266.453956 
L 369.304842 267.173239 
L 372.952646 268.394251 
L 376.600449 269.287087 
L 380.248253 269.746362 
L 383.896057 270.832936 
L 387.543861 271.293166 
L 391.191665 272.487445 
L 394.839469 272.880956 
L 398.487273 274.493401 
" clip-path="url(#pdf1aff3e2e)" style="fill: none; stroke: #ff00ff; stroke-opacity: 0.3; stroke-width: 0.5; stroke-linecap: square"/>
   </g>
   <g id="line2d_26">
    <path d="M 73.832727 175.26066 
L 77.480531 177.46957 
L 81.128335 180.89884 
L 84.776139 183.609248 
L 88.423943 184.716804 
L 92.071747 187.457062 
L 95.719551 189.91191 
L 99.367354 192.204514 
L 103.015158 194.138245 
L 106.662962 195.808519 
L 110.310766 197.45671 
L 113.95857 199.689094 
L 117.606374 202.493817 
L 121.254178 203.153952 
L 124.901982 204.833195 
L 128.549785 206.523262 
L 132.197589 209.208849 
L 135.845393 209.484593 
L 139.493197 211.167039 
L 143.141001 214.161016 
L 146.788805 214.411446 
L 150.436609 215.765585 
L 154.084413 217.458978 
L 157.732217 218.789998 
L 161.38002 220.951642 
L 165.027824 221.727638 
L 168.675628 224.095706 
L 172.323432 225.480933 
L 175.971236 226.366488 
L 179.61904 230.30595 
L 183.266844 231.111151 
L 186.914648 231.63855 
L 190.562451 232.931092 
L 194.210255 234.808906 
L 197.858059 234.927369 
L 201.505863 237.152022 
L 205.153667 239.248048 
L 208.801471 241.395897 
L 212.449275 241.878732 
L 216.097079 243.59052 
L 219.744883 245.576697 
L 223.392686 246.047201 
L 227.04049 246.786393 
L 230.688294 249.598622 
L 234.336098 250.610667 
L 237.983902 250.784438 
L 241.631706 253.308628 
L 245.27951 254.445548 
L 248.927314 256.059905 
L 252.575117 257.109574 
L 256.222921 258.392132 
L 259.870725 258.460815 
L 263.518529 260.808394 
L 267.166333 262.682158 
L 270.814137 262.800113 
L 274.461941 264.105298 
L 278.109745 265.345538 
L 281.757549 266.327857 
L 285.405352 266.193303 
L 289.053156 268.670466 
L 292.70096 269.23856 
L 296.348764 270.688594 
L 299.996568 272.337329 
L 303.644372 272.556511 
L 307.292176 273.574222 
L 310.93998 274.6175 
L 314.587783 275.595646 
L 318.235587 275.809938 
L 321.883391 276.340138 
L 325.531195 278.210529 
L 329.178999 279.659139 
L 332.826803 279.892141 
L 336.474607 281.219441 
L 340.122411 281.773933 
L 343.770215 282.583799 
L 347.418018 282.462652 
L 351.065822 283.124152 
L 354.713626 283.850687 
L 358.36143 285.707835 
L 362.009234 285.950516 
L 365.657038 287.057949 
L 369.304842 287.496267 
L 372.952646 287.729762 
L 376.600449 288.628449 
L 380.248253 290.128027 
L 383.896057 290.003363 
L 387.543861 290.245545 
L 391.191665 291.755802 
L 394.839469 292.276206 
L 398.487273 292.875273 
" clip-path="url(#pdf1aff3e2e)" style="fill: none; stroke: #ff00ff; stroke-opacity: 0.3; stroke-width: 0.5; stroke-linecap: square"/>
   </g>
   <g id="line2d_27">
    <path d="M 73.832727 158.751028 
L 77.480531 159.318354 
L 81.128335 159.963201 
L 84.776139 160.127691 
L 88.423943 159.703236 
L 92.071747 160.622553 
L 95.719551 160.354083 
L 99.367354 161.194994 
L 103.015158 161.457683 
L 106.662962 162.159229 
L 110.310766 162.327661 
L 113.95857 163.220301 
L 117.606374 163.337728 
L 121.254178 162.835636 
L 124.901982 163.676011 
L 128.549785 163.843573 
L 132.197589 165.163842 
L 135.845393 165.230771 
L 139.493197 165.629535 
L 143.141001 165.979686 
L 146.788805 166.066886 
L 150.436609 166.261646 
L 154.084413 166.357005 
L 157.732217 167.374723 
L 161.38002 167.142622 
L 165.027824 167.671811 
L 168.675628 167.575742 
L 172.323432 168.233456 
L 175.971236 167.740305 
L 179.61904 168.559843 
L 183.266844 169.724678 
L 186.914648 168.751038 
L 190.562451 169.92748 
L 194.210255 170.196602 
L 197.858059 170.072858 
L 201.505863 170.657572 
L 205.153667 170.892019 
L 208.801471 171.274337 
L 212.449275 171.269367 
L 216.097079 171.911099 
L 219.744883 172.049754 
L 223.392686 172.663361 
L 227.04049 172.834966 
L 230.688294 172.95532 
L 234.336098 173.401698 
L 237.983902 174.118227 
L 241.631706 173.986223 
L 245.27951 173.935856 
L 248.927314 174.938896 
L 252.575117 174.381104 
L 256.222921 175.5513 
L 259.870725 176.108701 
L 263.518529 175.942877 
L 267.166333 175.850518 
L 270.814137 176.024572 
L 274.461941 177.595256 
L 278.109745 177.158094 
L 281.757549 177.210533 
L 285.405352 177.064619 
L 289.053156 177.849164 
L 292.70096 177.900531 
L 296.348764 178.600803 
L 299.996568 178.950388 
L 303.644372 179.299654 
L 307.292176 179.539304 
L 310.93998 180.209697 
L 314.587783 179.644704 
L 318.235587 180.604897 
L 321.883391 179.929302 
L 325.531195 179.926809 
L 329.178999 181.07572 
L 332.826803 181.259366 
L 336.474607 181.267335 
L 340.122411 181.856193 
L 343.770215 181.539949 
L 347.418018 181.855541 
L 351.065822 182.806924 
L 354.713626 182.670501 
L 358.36143 183.551028 
L 362.009234 183.674932 
L 365.657038 183.624956 
L 369.304842 184.750885 
L 372.952646 184.585322 
L 376.600449 185.0874 
L 380.248253 185.478267 
L 383.896057 185.980084 
L 387.543861 185.873438 
L 391.191665 186.015324 
L 394.839469 185.709194 
L 398.487273 186.415203 
" clip-path="url(#pdf1aff3e2e)" style="fill: none; stroke: #ff00ff; stroke-opacity: 0.3; stroke-width: 0.5; stroke-linecap: square"/>
   </g>
   <g id="line2d_28">
    <path d="M 73.832727 159.506361 
L 77.480531 161.231871 
L 81.128335 163.656334 
L 84.776139 164.131214 
L 88.423943 164.795985 
L 92.071747 166.830291 
L 95.719551 166.405821 
L 99.367354 168.498493 
L 103.015158 169.660502 
L 106.662962 172.397861 
L 110.310766 172.382937 
L 113.95857 174.365093 
L 117.606374 172.8374 
L 121.254178 175.096402 
L 124.901982 176.432349 
L 128.549785 178.74634 
L 132.197589 178.063848 
L 135.845393 179.411908 
L 139.493197 179.555591 
L 143.141001 181.26761 
L 146.788805 183.057673 
L 150.436609 183.406621 
L 154.084413 184.09262 
L 157.732217 185.176426 
L 161.38002 184.994229 
L 165.027824 185.685836 
L 168.675628 187.278038 
L 172.323432 187.629637 
L 175.971236 188.383928 
L 179.61904 188.230334 
L 183.266844 189.200452 
L 186.914648 190.536211 
L 190.562451 189.724062 
L 194.210255 192.790561 
L 197.858059 192.829394 
L 201.505863 193.58977 
L 205.153667 195.143545 
L 208.801471 195.260465 
L 212.449275 194.683691 
L 216.097079 195.375921 
L 219.744883 196.171319 
L 223.392686 197.072175 
L 227.04049 198.700211 
L 230.688294 199.280158 
L 234.336098 200.501199 
L 237.983902 199.402815 
L 241.631706 201.435919 
L 245.27951 200.087409 
L 248.927314 202.574005 
L 252.575117 203.66965 
L 256.222921 204.55819 
L 259.870725 203.444707 
L 263.518529 204.891155 
L 267.166333 205.247594 
L 270.814137 205.643735 
L 274.461941 206.136409 
L 278.109745 207.917097 
L 281.757549 208.123608 
L 285.405352 208.041435 
L 289.053156 210.100316 
L 292.70096 209.267809 
L 296.348764 209.303237 
L 299.996568 209.614626 
L 303.644372 211.270425 
L 307.292176 212.728508 
L 310.93998 212.288099 
L 314.587783 213.263898 
L 318.235587 214.553651 
L 321.883391 214.337069 
L 325.531195 215.594415 
L 329.178999 216.399072 
L 332.826803 216.290412 
L 336.474607 217.017381 
L 340.122411 216.238958 
L 343.770215 218.749462 
L 347.418018 217.800065 
L 351.065822 218.57985 
L 354.713626 219.509933 
L 358.36143 221.638706 
L 362.009234 220.544785 
L 365.657038 221.786924 
L 369.304842 222.139878 
L 372.952646 223.330628 
L 376.600449 223.263235 
L 380.248253 224.519878 
L 383.896057 224.100154 
L 387.543861 224.615403 
L 391.191665 225.077728 
L 394.839469 226.180965 
L 398.487273 225.758373 
" clip-path="url(#pdf1aff3e2e)" style="fill: none; stroke: #ff00ff; stroke-opacity: 0.3; stroke-width: 0.5; stroke-linecap: square"/>
   </g>
   <g id="line2d_29">
    <path d="M 73.832727 163.266235 
L 77.480531 163.52533 
L 81.128335 164.759543 
L 84.776139 163.462458 
L 88.423943 164.228572 
L 92.071747 164.622685 
L 95.719551 165.3504 
L 99.367354 165.519194 
L 103.015158 166.078058 
L 106.662962 166.821771 
L 110.310766 166.29606 
L 113.95857 166.226798 
L 117.606374 167.179847 
L 121.254178 166.013447 
L 124.901982 167.715585 
L 128.549785 168.381935 
L 132.197589 168.491219 
L 135.845393 169.40032 
L 139.493197 168.885795 
L 143.141001 169.58314 
L 146.788805 168.949479 
L 150.436609 169.72291 
L 154.084413 169.959227 
L 157.732217 169.536134 
L 161.38002 171.001737 
L 165.027824 171.32611 
L 168.675628 171.32569 
L 172.323432 172.797596 
L 175.971236 171.770402 
L 179.61904 172.505319 
L 183.266844 171.165634 
L 186.914648 172.439679 
L 190.562451 173.069834 
L 194.210255 173.09893 
L 197.858059 172.628614 
L 201.505863 173.178436 
L 205.153667 173.284909 
L 208.801471 173.268984 
L 212.449275 173.972907 
L 216.097079 173.859451 
L 219.744883 174.952444 
L 223.392686 176.198423 
L 227.04049 174.571937 
L 230.688294 176.262352 
L 234.336098 175.897422 
L 237.983902 176.502161 
L 241.631706 175.984449 
L 245.27951 177.193478 
L 248.927314 176.781948 
L 252.575117 176.829012 
L 256.222921 178.339925 
L 259.870725 177.757457 
L 263.518529 177.821141 
L 267.166333 179.134483 
L 270.814137 179.787648 
L 274.461941 180.171299 
L 278.109745 179.799587 
L 281.757549 179.445481 
L 285.405352 179.338705 
L 289.053156 180.409557 
L 292.70096 180.5129 
L 296.348764 180.097385 
L 299.996568 181.887028 
L 303.644372 181.452778 
L 307.292176 180.422845 
L 310.93998 181.085066 
L 314.587783 183.117575 
L 318.235587 182.761063 
L 321.883391 182.997771 
L 325.531195 182.666502 
L 329.178999 182.904282 
L 332.826803 183.765262 
L 336.474607 183.856549 
L 340.122411 184.425367 
L 343.770215 184.630299 
L 347.418018 184.705792 
L 351.065822 185.491772 
L 354.713626 185.08043 
L 358.36143 184.595799 
L 362.009234 184.911289 
L 365.657038 186.464469 
L 369.304842 186.156007 
L 372.952646 187.068122 
L 376.600449 186.442676 
L 380.248253 186.411595 
L 383.896057 186.74927 
L 387.543861 187.307192 
L 391.191665 187.531511 
L 394.839469 187.892949 
L 398.487273 187.911236 
" clip-path="url(#pdf1aff3e2e)" style="fill: none; stroke: #ff00ff; stroke-opacity: 0.3; stroke-width: 0.5; stroke-linecap: square"/>
   </g>
   <g id="line2d_30">
    <path d="M 73.832727 161.8612 
L 77.480531 165.070512 
L 81.128335 166.848099 
L 84.776139 170.48288 
L 88.423943 171.331384 
L 92.071747 175.401938 
L 95.719551 179.14209 
L 99.367354 181.105178 
L 103.015158 184.606043 
L 106.662962 184.176386 
L 110.310766 187.494663 
L 113.95857 189.584828 
L 117.606374 190.369359 
L 121.254178 193.749464 
L 124.901982 194.409715 
L 128.549785 196.608409 
L 132.197589 199.699338 
L 135.845393 199.678705 
L 139.493197 201.084841 
L 143.141001 202.584148 
L 146.788805 202.9821 
L 150.436609 207.199336 
L 154.084413 209.840293 
L 157.732217 207.228171 
L 161.38002 210.070959 
L 165.027824 210.056846 
L 168.675628 212.929295 
L 172.323432 215.484603 
L 175.971236 214.643126 
L 179.61904 216.399022 
L 183.266844 216.338707 
L 186.914648 218.818348 
L 190.562451 220.134704 
L 194.210255 220.228259 
L 197.858059 221.77068 
L 201.505863 221.792988 
L 205.153667 224.634755 
L 208.801471 226.598864 
L 212.449275 225.701289 
L 216.097079 227.866019 
L 219.744883 231.128546 
L 223.392686 232.057513 
L 227.04049 230.911102 
L 230.688294 233.780661 
L 234.336098 233.448855 
L 237.983902 233.572208 
L 241.631706 236.461039 
L 245.27951 237.403177 
L 248.927314 238.25384 
L 252.575117 238.221513 
L 256.222921 240.198974 
L 259.870725 240.331007 
L 263.518529 242.599029 
L 267.166333 242.896805 
L 270.814137 243.224278 
L 274.461941 244.246401 
L 278.109745 245.615494 
L 281.757549 248.165136 
L 285.405352 247.11425 
L 289.053156 248.713813 
L 292.70096 250.008768 
L 296.348764 250.50815 
L 299.996568 250.882361 
L 303.644372 251.627313 
L 307.292176 252.407583 
L 310.93998 254.594671 
L 314.587783 255.858886 
L 318.235587 256.052972 
L 321.883391 256.551282 
L 325.531195 258.406441 
L 329.178999 258.91346 
L 332.826803 259.744858 
L 336.474607 259.228023 
L 340.122411 259.762804 
L 343.770215 261.49282 
L 347.418018 261.568697 
L 351.065822 261.901409 
L 354.713626 263.673207 
L 358.36143 265.156111 
L 362.009234 265.173542 
L 365.657038 265.427131 
L 369.304842 266.442669 
L 372.952646 267.407665 
L 376.600449 268.412161 
L 380.248253 269.00233 
L 383.896057 269.163002 
L 387.543861 269.878698 
L 391.191665 270.17086 
L 394.839469 270.789024 
L 398.487273 272.418603 
" clip-path="url(#pdf1aff3e2e)" style="fill: none; stroke: #ff00ff; stroke-opacity: 0.3; stroke-width: 0.5; stroke-linecap: square"/>
   </g>
   <g id="line2d_31">
    <path d="M 73.832727 170.739657 
L 77.480531 170.691029 
L 81.128335 170.424341 
L 84.776139 171.994388 
L 88.423943 171.972957 
L 92.071747 172.371475 
L 95.719551 173.958214 
L 99.367354 173.237816 
L 103.015158 173.621018 
L 106.662962 174.667194 
L 110.310766 175.422615 
L 113.95857 175.087056 
L 117.606374 175.370118 
L 121.254178 175.560704 
L 124.901982 177.45637 
L 128.549785 177.028437 
L 132.197589 177.287663 
L 135.845393 177.893924 
L 139.493197 177.12852 
L 143.141001 178.778566 
L 146.788805 178.631492 
L 150.436609 179.632431 
L 154.084413 178.915366 
L 157.732217 180.952903 
L 161.38002 182.000847 
L 165.027824 181.770659 
L 168.675628 183.006118 
L 172.323432 182.212878 
L 175.971236 183.788808 
L 179.61904 183.687219 
L 183.266844 183.843812 
L 186.914648 184.73554 
L 190.562451 185.205783 
L 194.210255 184.582106 
L 197.858059 185.874235 
L 201.505863 185.998095 
L 205.153667 186.890605 
L 208.801471 187.248145 
L 212.449275 187.407115 
L 216.097079 188.818294 
L 219.744883 187.986163 
L 223.392686 189.681592 
L 227.04049 188.581919 
L 230.688294 189.851255 
L 234.336098 190.461037 
L 237.983902 190.691963 
L 241.631706 192.311189 
L 245.27951 191.158787 
L 248.927314 193.251647 
L 252.575117 192.597366 
L 256.222921 193.149971 
L 259.870725 193.176168 
L 263.518529 194.898911 
L 267.166333 195.756442 
L 270.814137 194.260931 
L 274.461941 195.003789 
L 278.109745 195.752356 
L 281.757549 197.101503 
L 285.405352 197.483068 
L 289.053156 198.411484 
L 292.70096 197.985986 
L 296.348764 198.57496 
L 299.996568 199.224313 
L 303.644372 199.486162 
L 307.292176 199.502738 
L 310.93998 200.910469 
L 314.587783 200.666341 
L 318.235587 202.153114 
L 321.883391 201.95324 
L 325.531195 202.687534 
L 329.178999 204.078586 
L 332.826803 203.60359 
L 336.474607 203.809145 
L 340.122411 203.989458 
L 343.770215 205.654704 
L 347.418018 205.402115 
L 351.065822 205.738572 
L 354.713626 205.820426 
L 358.36143 205.502487 
L 362.009234 207.584407 
L 365.657038 208.095251 
L 369.304842 207.872192 
L 372.952646 208.094077 
L 376.600449 207.457228 
L 380.248253 208.136823 
L 383.896057 207.935861 
L 387.543861 209.626711 
L 391.191665 210.16739 
L 394.839469 210.081073 
L 398.487273 210.437671 
" clip-path="url(#pdf1aff3e2e)" style="fill: none; stroke: #ff00ff; stroke-opacity: 0.3; stroke-width: 0.5; stroke-linecap: square"/>
   </g>
   <g id="line2d_32">
    <path d="M 73.832727 162.633544 
L 77.480531 163.252991 
L 81.128335 164.908659 
L 84.776139 167.29339 
L 88.423943 168.981559 
L 92.071747 171.00594 
L 95.719551 171.96109 
L 99.367354 175.357685 
L 103.015158 176.404745 
L 106.662962 178.744456 
L 110.310766 180.78137 
L 113.95857 182.782595 
L 117.606374 185.627572 
L 121.254178 186.573173 
L 124.901982 188.351195 
L 128.549785 190.997456 
L 132.197589 193.113977 
L 135.845393 194.605141 
L 139.493197 196.974803 
L 143.141001 198.214739 
L 146.788805 201.626013 
L 150.436609 201.970468 
L 154.084413 203.20229 
L 157.732217 204.926336 
L 161.38002 206.771925 
L 165.027824 208.330206 
L 168.675628 209.716665 
L 172.323432 211.129235 
L 175.971236 212.451662 
L 179.61904 214.109504 
L 183.266844 215.571506 
L 186.914648 216.889341 
L 190.562451 219.430281 
L 194.210255 219.878891 
L 197.858059 221.868343 
L 201.505863 222.97282 
L 205.153667 224.414188 
L 208.801471 225.800879 
L 212.449275 226.433917 
L 216.097079 228.265254 
L 219.744883 229.515283 
L 223.392686 231.14513 
L 227.04049 232.477389 
L 230.688294 233.427127 
L 234.336098 234.997138 
L 237.983902 236.167124 
L 241.631706 238.161908 
L 245.27951 239.243752 
L 248.927314 240.380381 
L 252.575117 240.840061 
L 256.222921 241.995601 
L 259.870725 243.3246 
L 263.518529 244.404386 
L 267.166333 245.509942 
L 270.814137 246.324351 
L 274.461941 248.437018 
L 278.109745 248.700874 
L 281.757549 250.268508 
L 285.405352 251.300788 
L 289.053156 252.535523 
L 292.70096 253.380288 
L 296.348764 255.315613 
L 299.996568 255.92262 
L 303.644372 257.029603 
L 307.292176 257.786574 
L 310.93998 258.491461 
L 314.587783 260.336354 
L 318.235587 261.328931 
L 321.883391 260.801322 
L 325.531195 263.147438 
L 329.178999 263.73476 
L 332.826803 265.411098 
L 336.474607 265.349943 
L 340.122411 267.222142 
L 343.770215 267.462502 
L 347.418018 267.866888 
L 351.065822 268.659889 
L 354.713626 269.869744 
L 358.36143 271.175609 
L 362.009234 272.097092 
L 365.657038 272.546926 
L 369.304842 273.151202 
L 372.952646 273.76115 
L 376.600449 274.76348 
L 380.248253 275.928133 
L 383.896057 276.409005 
L 387.543861 277.484936 
L 391.191665 278.648445 
L 394.839469 278.16001 
L 398.487273 279.498449 
" clip-path="url(#pdf1aff3e2e)" style="fill: none; stroke: #ff00ff; stroke-opacity: 0.3; stroke-width: 0.5; stroke-linecap: square"/>
   </g>
   <g id="line2d_33">
    <path d="M 73.832727 162.001245 
L 77.480531 161.845174 
L 81.128335 163.830083 
L 84.776139 164.488725 
L 88.423943 165.19827 
L 92.071747 168.126144 
L 95.719551 168.598952 
L 99.367354 169.203126 
L 103.015158 170.299249 
L 106.662962 171.929849 
L 110.310766 172.012558 
L 113.95857 173.449471 
L 117.606374 175.279526 
L 121.254178 176.054653 
L 124.901982 176.357551 
L 128.549785 178.00625 
L 132.197589 179.043993 
L 135.845393 180.733901 
L 139.493197 181.280637 
L 143.141001 181.373416 
L 146.788805 183.008074 
L 150.436609 184.046701 
L 154.084413 185.701427 
L 157.732217 186.405147 
L 161.38002 188.895134 
L 165.027824 188.636039 
L 168.675628 191.408623 
L 172.323432 192.324332 
L 175.971236 194.689994 
L 179.61904 195.045607 
L 183.266844 196.690046 
L 186.914648 198.430741 
L 190.562451 199.922049 
L 194.210255 201.075408 
L 197.858059 203.874422 
L 201.505863 205.164001 
L 205.153667 206.5857 
L 208.801471 208.419464 
L 212.449275 210.060845 
L 216.097079 211.774212 
L 219.744883 212.187206 
L 223.392686 213.122983 
L 227.04049 214.919378 
L 230.688294 215.796811 
L 234.336098 218.183209 
L 237.983902 218.830106 
L 241.631706 219.950812 
L 245.27951 219.738208 
L 248.927314 222.364907 
L 252.575117 223.538356 
L 256.222921 224.542511 
L 259.870725 225.544319 
L 263.518529 227.925834 
L 267.166333 227.931384 
L 270.814137 228.863509 
L 274.461941 230.586534 
L 278.109745 231.433169 
L 281.757549 232.8273 
L 285.405352 233.542931 
L 289.053156 234.068961 
L 292.70096 234.500378 
L 296.348764 236.683865 
L 299.996568 238.04517 
L 303.644372 238.288536 
L 307.292176 239.653463 
L 310.93998 239.209548 
L 314.587783 241.932164 
L 318.235587 242.364045 
L 321.883391 243.806804 
L 325.531195 245.691523 
L 329.178999 245.904837 
L 332.826803 247.002315 
L 336.474607 247.175876 
L 340.122411 248.058576 
L 343.770215 249.567041 
L 347.418018 250.580608 
L 351.065822 251.037803 
L 354.713626 252.615109 
L 358.36143 253.624539 
L 362.009234 255.09517 
L 365.657038 253.75434 
L 369.304842 255.068016 
L 372.952646 256.189004 
L 376.600449 257.304971 
L 380.248253 258.617741 
L 383.896057 258.763749 
L 387.543861 260.075179 
L 391.191665 261.135744 
L 394.839469 261.921738 
L 398.487273 262.860413 
" clip-path="url(#pdf1aff3e2e)" style="fill: none; stroke: #ff00ff; stroke-opacity: 0.3; stroke-width: 0.5; stroke-linecap: square"/>
   </g>
   <g id="line2d_34">
    <path d="M 73.832727 151.045809 
L 77.480531 153.755203 
L 81.128335 153.649643 
L 84.776139 151.472061 
L 88.423943 151.208256 
L 92.071747 153.188833 
L 95.719551 153.07855 
L 99.367354 152.784418 
L 103.015158 150.970664 
L 106.662962 152.050298 
L 110.310766 152.114763 
L 113.95857 152.786606 
L 117.606374 151.717811 
L 121.254178 152.619435 
L 124.901982 153.800237 
L 128.549785 149.525303 
L 132.197589 153.529072 
L 135.845393 154.839908 
L 139.493197 152.387899 
L 143.141001 153.93669 
L 146.788805 155.394439 
L 150.436609 154.496568 
L 154.084413 155.088976 
L 157.732217 152.577095 
L 161.38002 152.263083 
L 165.027824 156.210703 
L 168.675628 153.649368 
L 172.323432 154.253209 
L 175.971236 154.462777 
L 179.61904 153.470214 
L 183.266844 153.311577 
L 186.914648 155.251104 
L 190.562451 152.780143 
L 194.210255 155.614556 
L 197.858059 156.569446 
L 201.505863 154.51313 
L 205.153667 154.842675 
L 208.801471 156.811255 
L 212.449275 153.886627 
L 216.097079 157.870153 
L 219.744883 157.793081 
L 223.392686 156.266026 
L 227.04049 159.015904 
L 230.688294 157.401895 
L 234.336098 157.178546 
L 237.983902 159.360172 
L 241.631706 159.216402 
L 245.27951 157.471114 
L 248.927314 157.952615 
L 252.575117 156.9584 
L 256.222921 159.90088 
L 259.870725 156.88453 
L 263.518529 161.609436 
L 267.166333 158.934905 
L 270.814137 159.981545 
L 274.461941 160.826876 
L 278.109745 158.861065 
L 281.757549 161.611972 
L 285.405352 161.380567 
L 289.053156 160.455252 
L 292.70096 163.522012 
L 296.348764 161.230407 
L 299.996568 162.622242 
L 303.644372 163.956726 
L 307.292176 163.098021 
L 310.93998 160.086178 
L 314.587783 162.008925 
L 318.235587 165.120039 
L 321.883391 163.891984 
L 325.531195 164.621004 
L 329.178999 163.812434 
L 332.826803 165.002873 
L 336.474607 165.030621 
L 340.122411 165.284065 
L 343.770215 163.122885 
L 347.418018 165.453786 
L 351.065822 163.427508 
L 354.713626 164.444719 
L 358.36143 165.423097 
L 362.009234 164.960098 
L 365.657038 165.528149 
L 369.304842 165.817977 
L 372.952646 165.038764 
L 376.600449 168.275796 
L 380.248253 168.537398 
L 383.896057 165.050617 
L 387.543861 167.383359 
L 391.191665 165.146686 
L 394.839469 167.523955 
L 398.487273 167.106499 
" clip-path="url(#pdf1aff3e2e)" style="fill: none; stroke: #ff00ff; stroke-opacity: 0.3; stroke-width: 0.5; stroke-linecap: square"/>
   </g>
   <g id="line2d_35">
    <path d="M 73.832727 167.278741 
L 77.480531 168.802985 
L 81.128335 169.722244 
L 84.776139 170.948458 
L 88.423943 172.002618 
L 92.071747 172.67149 
L 95.719551 174.019188 
L 99.367354 174.82541 
L 103.015158 175.61197 
L 106.662962 175.660975 
L 110.310766 176.664522 
L 113.95857 177.385224 
L 117.606374 178.287848 
L 121.254178 179.288627 
L 124.901982 179.439149 
L 128.549785 180.387055 
L 132.197589 180.459041 
L 135.845393 180.916533 
L 139.493197 182.03571 
L 143.141001 183.343299 
L 146.788805 183.285571 
L 150.436609 184.454058 
L 154.084413 184.500324 
L 157.732217 185.671563 
L 161.38002 186.758717 
L 165.027824 186.313904 
L 168.675628 186.866189 
L 172.323432 188.456537 
L 175.971236 188.655049 
L 179.61904 190.020295 
L 183.266844 190.696933 
L 186.914648 190.554309 
L 190.562451 191.555334 
L 194.210255 192.46771 
L 197.858059 193.304709 
L 201.505863 193.780357 
L 205.153667 193.931212 
L 208.801471 194.730494 
L 212.449275 195.756746 
L 216.097079 197.193833 
L 219.744883 197.840608 
L 223.392686 197.682406 
L 227.04049 198.957307 
L 230.688294 200.437313 
L 234.336098 200.737748 
L 237.983902 201.994203 
L 241.631706 202.444566 
L 245.27951 202.566557 
L 248.927314 205.222961 
L 252.575117 206.035283 
L 256.222921 206.545417 
L 259.870725 206.275121 
L 263.518529 208.393628 
L 267.166333 208.637277 
L 270.814137 209.842423 
L 274.461941 211.047685 
L 278.109745 211.709239 
L 281.757549 212.938163 
L 285.405352 215.054468 
L 289.053156 215.874064 
L 292.70096 217.382137 
L 296.348764 218.016212 
L 299.996568 219.0526 
L 303.644372 220.904629 
L 307.292176 221.438867 
L 310.93998 223.504964 
L 314.587783 223.71149 
L 318.235587 224.324089 
L 321.883391 226.107588 
L 325.531195 227.389973 
L 329.178999 228.383594 
L 332.826803 229.565259 
L 336.474607 229.589558 
L 340.122411 230.633387 
L 343.770215 232.711851 
L 347.418018 232.229661 
L 351.065822 233.936406 
L 354.713626 234.556969 
L 358.36143 235.901023 
L 362.009234 237.029314 
L 365.657038 238.173181 
L 369.304842 238.959987 
L 372.952646 239.379457 
L 376.600449 240.311445 
L 380.248253 241.871081 
L 383.896057 241.357383 
L 387.543861 243.638677 
L 391.191665 244.222044 
L 394.839469 244.502374 
L 398.487273 245.845943 
" clip-path="url(#pdf1aff3e2e)" style="fill: none; stroke: #ff00ff; stroke-opacity: 0.3; stroke-width: 0.5; stroke-linecap: square"/>
   </g>
   <g id="line2d_36">
    <path d="M 73.832727 169.656155 
L 77.480531 168.580941 
L 81.128335 169.496765 
L 84.776139 171.01401 
L 88.423943 170.659687 
L 92.071747 169.450122 
L 95.719551 171.251009 
L 99.367354 171.229737 
L 103.015158 172.279406 
L 106.662962 172.13723 
L 110.310766 171.886988 
L 113.95857 172.23624 
L 117.606374 171.689403 
L 121.254178 172.115321 
L 124.901982 173.212502 
L 128.549785 172.231589 
L 132.197589 172.312283 
L 135.845393 173.28075 
L 139.493197 173.274795 
L 143.141001 173.495129 
L 146.788805 174.3666 
L 150.436609 174.605989 
L 154.084413 175.436018 
L 157.732217 174.282746 
L 161.38002 175.344847 
L 165.027824 174.572473 
L 168.675628 173.525631 
L 172.323432 175.937444 
L 175.971236 176.163502 
L 179.61904 175.519089 
L 183.266844 176.142767 
L 186.914648 176.668521 
L 190.562451 177.018787 
L 194.210255 176.897723 
L 197.858059 176.682909 
L 201.505863 177.55522 
L 205.153667 178.165277 
L 208.801471 177.792161 
L 212.449275 177.95297 
L 216.097079 178.791462 
L 219.744883 179.103953 
L 223.392686 179.247809 
L 227.04049 180.140884 
L 230.688294 180.245719 
L 234.336098 181.250208 
L 237.983902 179.496515 
L 241.631706 181.471934 
L 245.27951 181.258569 
L 248.927314 181.544673 
L 252.575117 180.041874 
L 256.222921 183.63549 
L 259.870725 181.904227 
L 263.518529 182.933856 
L 267.166333 182.646607 
L 270.814137 183.640185 
L 274.461941 183.260127 
L 278.109745 183.506848 
L 281.757549 184.074522 
L 285.405352 184.345064 
L 289.053156 184.166069 
L 292.70096 184.708719 
L 296.348764 184.650049 
L 299.996568 186.503013 
L 303.644372 185.950988 
L 307.292176 187.063326 
L 310.93998 186.284011 
L 314.587783 186.718971 
L 318.235587 187.101666 
L 321.883391 187.286254 
L 325.531195 187.678787 
L 329.178999 188.660961 
L 332.826803 188.535725 
L 336.474607 189.13716 
L 340.122411 188.125137 
L 343.770215 188.799848 
L 347.418018 190.204723 
L 351.065822 188.81783 
L 354.713626 190.329134 
L 358.36143 189.663378 
L 362.009234 190.834864 
L 365.657038 191.114506 
L 369.304842 190.667099 
L 372.952646 191.081831 
L 376.600449 192.245144 
L 380.248253 191.202692 
L 383.896057 192.909002 
L 387.543861 193.399358 
L 391.191665 192.635634 
L 394.839469 192.189995 
L 398.487273 193.832173 
" clip-path="url(#pdf1aff3e2e)" style="fill: none; stroke: #ff00ff; stroke-opacity: 0.3; stroke-width: 0.5; stroke-linecap: square"/>
   </g>
   <g id="line2d_37">
    <path d="M 73.832727 161.115487 
L 77.480531 163.96526 
L 81.128335 165.404231 
L 84.776139 168.324178 
L 88.423943 167.867077 
L 92.071747 170.686378 
L 95.719551 169.391698 
L 99.367354 172.550672 
L 103.015158 173.179784 
L 106.662962 174.78139 
L 110.310766 176.448404 
L 113.95857 177.382007 
L 117.606374 178.470118 
L 121.254178 179.046413 
L 124.901982 180.2322 
L 128.549785 181.884115 
L 132.197589 182.308295 
L 135.845393 184.377753 
L 139.493197 185.218158 
L 143.141001 186.683094 
L 146.788805 188.006536 
L 150.436609 188.833465 
L 154.084413 190.392369 
L 157.732217 191.105348 
L 161.38002 191.894371 
L 165.027824 192.563967 
L 168.675628 194.88971 
L 172.323432 195.337305 
L 175.971236 196.204646 
L 179.61904 196.69774 
L 183.266844 197.934894 
L 186.914648 198.858398 
L 190.562451 200.564506 
L 194.210255 200.979702 
L 197.858059 202.540084 
L 201.505863 202.714963 
L 205.153667 204.787334 
L 208.801471 205.545609 
L 212.449275 207.682055 
L 216.097079 207.637599 
L 219.744883 208.567783 
L 223.392686 209.892863 
L 227.04049 210.962064 
L 230.688294 211.852632 
L 234.336098 212.669026 
L 237.983902 214.076655 
L 241.631706 214.406534 
L 245.27951 215.612172 
L 248.927314 217.102401 
L 252.575117 218.000381 
L 256.222921 219.476214 
L 259.870725 220.521594 
L 263.518529 219.815055 
L 267.166333 221.56572 
L 270.814137 222.90271 
L 274.461941 223.986096 
L 278.109745 223.858621 
L 281.757549 225.936462 
L 285.405352 227.145723 
L 289.053156 227.799786 
L 292.70096 229.127719 
L 296.348764 229.596919 
L 299.996568 229.953887 
L 303.644372 230.671663 
L 307.292176 232.840805 
L 310.93998 233.62435 
L 314.587783 235.213307 
L 318.235587 236.060123 
L 321.883391 236.25494 
L 325.531195 237.215626 
L 329.178999 238.296919 
L 332.826803 239.615811 
L 336.474607 239.799015 
L 340.122411 240.667138 
L 343.770215 243.037532 
L 347.418018 243.68406 
L 351.065822 243.669526 
L 354.713626 246.047013 
L 358.36143 246.745958 
L 362.009234 247.084191 
L 365.657038 248.293068 
L 369.304842 249.652199 
L 372.952646 250.424848 
L 376.600449 250.924715 
L 380.248253 252.167832 
L 383.896057 252.682335 
L 387.543861 253.964003 
L 391.191665 255.198193 
L 394.839469 254.245521 
L 398.487273 257.227674 
" clip-path="url(#pdf1aff3e2e)" style="fill: none; stroke: #ff00ff; stroke-opacity: 0.3; stroke-width: 0.5; stroke-linecap: square"/>
   </g>
   <g id="line2d_38">
    <path d="M 73.832727 165.224425 
L 77.480531 167.829621 
L 81.128335 170.102243 
L 84.776139 174.783737 
L 88.423943 177.330568 
L 92.071747 182.434111 
L 95.719551 186.72981 
L 99.367354 187.911264 
L 103.015158 193.019923 
L 106.662962 196.709882 
L 110.310766 199.455863 
L 113.95857 201.822308 
L 117.606374 205.71904 
L 121.254178 207.982258 
L 124.901982 210.279296 
L 128.549785 214.023144 
L 132.197589 216.226417 
L 135.845393 219.006833 
L 139.493197 220.432611 
L 143.141001 221.895895 
L 146.788805 224.873557 
L 150.436609 226.8183 
L 154.084413 227.717207 
L 157.732217 228.016193 
L 161.38002 231.679564 
L 165.027824 232.888462 
L 168.675628 233.758354 
L 172.323432 236.287441 
L 175.971236 236.740384 
L 179.61904 238.700117 
L 183.266844 238.846806 
L 186.914648 241.304885 
L 190.562451 243.553462 
L 194.210255 244.315663 
L 197.858059 244.368008 
L 201.505863 247.139043 
L 205.153667 247.890355 
L 208.801471 249.937767 
L 212.449275 250.553663 
L 216.097079 252.258728 
L 219.744883 253.662481 
L 223.392686 255.240482 
L 227.04049 255.566594 
L 230.688294 257.548453 
L 234.336098 259.237999 
L 237.983902 259.659788 
L 241.631706 261.638416 
L 245.27951 262.533237 
L 248.927314 264.127786 
L 252.575117 264.989027 
L 256.222921 265.129949 
L 259.870725 266.362778 
L 263.518529 267.127776 
L 267.166333 268.696353 
L 270.814137 268.99623 
L 274.461941 270.394563 
L 278.109745 271.540945 
L 281.757549 273.130409 
L 285.405352 272.479287 
L 289.053156 274.147033 
L 292.70096 274.350312 
L 296.348764 276.377732 
L 299.996568 277.090555 
L 303.644372 278.401 
L 307.292176 278.989213 
L 310.93998 279.906208 
L 314.587783 281.663556 
L 318.235587 280.893873 
L 321.883391 281.470067 
L 325.531195 282.998897 
L 329.178999 283.169502 
L 332.826803 284.623249 
L 336.474607 285.816636 
L 340.122411 286.304166 
L 343.770215 286.412232 
L 347.418018 287.051545 
L 351.065822 287.557813 
L 354.713626 288.790128 
L 358.36143 289.549276 
L 362.009234 290.555123 
L 365.657038 290.495171 
L 369.304842 291.556648 
L 372.952646 291.755281 
L 376.600449 292.335937 
L 380.248253 293.525499 
L 383.896057 292.95513 
L 387.543861 293.80583 
L 391.191665 295.029588 
L 394.839469 295.283695 
L 398.487273 295.488 
" clip-path="url(#pdf1aff3e2e)" style="fill: none; stroke: #ff00ff; stroke-opacity: 0.3; stroke-width: 0.5; stroke-linecap: square"/>
   </g>
   <g id="line2d_39">
    <path d="M 73.832727 158.548269 
L 77.480531 160.977427 
L 81.128335 161.338561 
L 84.776139 163.088138 
L 88.423943 165.31503 
L 92.071747 165.560056 
L 95.719551 166.086404 
L 99.367354 168.116464 
L 103.015158 170.178765 
L 106.662962 171.258442 
L 110.310766 172.047885 
L 113.95857 173.429084 
L 117.606374 175.500353 
L 121.254178 175.733164 
L 124.901982 176.747607 
L 128.549785 178.290891 
L 132.197589 178.337404 
L 135.845393 179.512367 
L 139.493197 180.921952 
L 143.141001 181.647016 
L 146.788805 183.464276 
L 150.436609 183.935838 
L 154.084413 183.746338 
L 157.732217 186.397482 
L 161.38002 187.153048 
L 165.027824 187.268649 
L 168.675628 188.727123 
L 172.323432 188.989058 
L 175.971236 190.269508 
L 179.61904 190.763124 
L 183.266844 191.797882 
L 186.914648 193.667219 
L 190.562451 193.867876 
L 194.210255 193.919678 
L 197.858059 194.983648 
L 201.505863 196.344938 
L 205.153667 197.624852 
L 208.801471 197.877948 
L 212.449275 198.864774 
L 216.097079 199.836167 
L 219.744883 200.247523 
L 223.392686 201.625303 
L 227.04049 202.258804 
L 230.688294 202.995518 
L 234.336098 203.636178 
L 237.983902 204.357967 
L 241.631706 205.824338 
L 245.27951 205.945011 
L 248.927314 206.202759 
L 252.575117 207.348191 
L 256.222921 208.169599 
L 259.870725 209.173044 
L 263.518529 209.431922 
L 267.166333 211.129597 
L 270.814137 210.989001 
L 274.461941 212.684705 
L 278.109745 213.004687 
L 281.757549 213.713609 
L 285.405352 213.739039 
L 289.053156 215.237722 
L 292.70096 215.878955 
L 296.348764 216.524012 
L 299.996568 218.107498 
L 303.644372 219.228472 
L 307.292176 220.45749 
L 310.93998 221.313565 
L 314.587783 221.377538 
L 318.235587 220.940564 
L 321.883391 222.51235 
L 325.531195 223.456067 
L 329.178999 224.295233 
L 332.826803 225.48394 
L 336.474607 226.105118 
L 340.122411 227.133066 
L 343.770215 227.500879 
L 347.418018 228.455906 
L 351.065822 228.961998 
L 354.713626 228.937184 
L 358.36143 231.202843 
L 362.009234 231.680433 
L 365.657038 232.184807 
L 369.304842 232.605147 
L 372.952646 233.736162 
L 376.600449 234.800466 
L 380.248253 235.740561 
L 383.896057 237.045064 
L 387.543861 237.178336 
L 391.191665 238.133769 
L 394.839469 238.571446 
L 398.487273 239.425557 
" clip-path="url(#pdf1aff3e2e)" style="fill: none; stroke: #ff00ff; stroke-opacity: 0.3; stroke-width: 0.5; stroke-linecap: square"/>
   </g>
   <g id="line2d_40">
    <path d="M 73.832727 152.223192 
L 77.480531 153.547576 
L 81.128335 155.415189 
L 84.776139 156.576401 
L 88.423943 156.595542 
L 92.071747 157.437482 
L 95.719551 159.187987 
L 99.367354 158.97158 
L 103.015158 160.150701 
L 106.662962 160.815617 
L 110.310766 163.042133 
L 113.95857 161.454596 
L 117.606374 162.65725 
L 121.254178 163.084661 
L 124.901982 165.431791 
L 128.549785 165.053849 
L 132.197589 166.787835 
L 135.845393 167.301867 
L 139.493197 167.431509 
L 143.141001 167.30746 
L 146.788805 168.934322 
L 150.436609 169.958865 
L 154.084413 169.76993 
L 157.732217 170.291077 
L 161.38002 171.578453 
L 165.027824 172.707686 
L 168.675628 173.183638 
L 172.323432 174.387422 
L 175.971236 172.651914 
L 179.61904 173.50546 
L 183.266844 174.121313 
L 186.914648 175.48966 
L 190.562451 175.583381 
L 194.210255 175.589728 
L 197.858059 177.777033 
L 201.505863 177.198999 
L 205.153667 176.986895 
L 208.801471 178.477261 
L 212.449275 179.114617 
L 216.097079 179.113574 
L 219.744883 181.354999 
L 223.392686 182.622075 
L 227.04049 182.012033 
L 230.688294 182.241163 
L 234.336098 182.808735 
L 237.983902 181.994515 
L 241.631706 184.056598 
L 245.27951 184.906261 
L 248.927314 184.562588 
L 252.575117 186.321685 
L 256.222921 185.616849 
L 259.870725 186.818097 
L 263.518529 187.960023 
L 267.166333 188.31552 
L 270.814137 187.552406 
L 274.461941 189.541083 
L 278.109745 187.916655 
L 281.757549 190.592591 
L 285.405352 191.04875 
L 289.053156 191.26523 
L 292.70096 192.648038 
L 296.348764 192.442555 
L 299.996568 193.607231 
L 303.644372 194.257164 
L 307.292176 194.535995 
L 310.93998 194.533415 
L 314.587783 194.661652 
L 318.235587 195.143719 
L 321.883391 196.130646 
L 325.531195 197.798022 
L 329.178999 197.594017 
L 332.826803 198.595014 
L 336.474607 198.739711 
L 340.122411 199.211939 
L 343.770215 201.089507 
L 347.418018 200.530788 
L 351.065822 200.128068 
L 354.713626 201.167477 
L 358.36143 201.825641 
L 362.009234 202.066986 
L 365.657038 203.546079 
L 369.304842 204.051635 
L 372.952646 204.531774 
L 376.600449 204.353751 
L 380.248253 205.076931 
L 383.896057 204.730736 
L 387.543861 204.651462 
L 391.191665 205.973208 
L 394.839469 206.962671 
L 398.487273 207.634658 
" clip-path="url(#pdf1aff3e2e)" style="fill: none; stroke: #ff00ff; stroke-opacity: 0.3; stroke-width: 0.5; stroke-linecap: square"/>
   </g>
   <g id="line2d_41">
    <path d="M 73.832727 161.873429 
L 77.480531 169.58298 
L 81.128335 173.895762 
L 84.776139 176.909098 
L 88.423943 181.080588 
L 92.071747 183.745831 
L 95.719551 186.489204 
L 99.367354 190.684472 
L 103.015158 193.283655 
L 106.662962 195.724622 
L 110.310766 199.81691 
L 113.95857 204.706784 
L 117.606374 204.752341 
L 121.254178 209.146499 
L 124.901982 209.453686 
L 128.549785 213.26342 
L 132.197589 213.725273 
L 135.845393 216.749295 
L 139.493197 217.531167 
L 143.141001 221.552222 
L 146.788805 221.311138 
L 150.436609 224.927771 
L 154.084413 226.801194 
L 157.732217 227.882263 
L 161.38002 230.19879 
L 165.027824 230.083681 
L 168.675628 232.23871 
L 172.323432 234.138404 
L 175.971236 234.718344 
L 179.61904 236.437746 
L 183.266844 238.906577 
L 186.914648 239.642719 
L 190.562451 240.598666 
L 194.210255 241.561633 
L 197.858059 244.644861 
L 201.505863 245.05813 
L 205.153667 246.944138 
L 208.801471 248.150783 
L 212.449275 248.766238 
L 216.097079 249.392661 
L 219.744883 252.129332 
L 223.392686 253.267991 
L 227.04049 252.836559 
L 230.688294 254.063636 
L 234.336098 256.181469 
L 237.983902 255.962337 
L 241.631706 257.915897 
L 245.27951 259.49829 
L 248.927314 260.226599 
L 252.575117 260.499772 
L 256.222921 261.452596 
L 259.870725 262.461801 
L 263.518529 263.264749 
L 267.166333 264.416709 
L 270.814137 265.470616 
L 274.461941 266.449718 
L 278.109745 266.552604 
L 281.757549 269.014458 
L 285.405352 268.947631 
L 289.053156 269.497793 
L 292.70096 271.289261 
L 296.348764 271.985845 
L 299.996568 272.51186 
L 303.644372 273.431315 
L 307.292176 273.850278 
L 310.93998 274.369041 
L 314.587783 276.643235 
L 318.235587 276.519849 
L 321.883391 277.019246 
L 325.531195 279.306257 
L 329.178999 278.799677 
L 332.826803 279.096174 
L 336.474607 280.355777 
L 340.122411 280.697741 
L 343.770215 282.432709 
L 347.418018 281.847716 
L 351.065822 281.901941 
L 354.713626 282.805713 
L 358.36143 285.191908 
L 362.009234 284.66602 
L 365.657038 285.521291 
L 369.304842 286.546717 
L 372.952646 286.16854 
L 376.600449 287.31361 
L 380.248253 288.181111 
L 383.896057 288.858702 
L 387.543861 288.944189 
L 391.191665 290.530639 
L 394.839469 289.514547 
L 398.487273 290.474276 
" clip-path="url(#pdf1aff3e2e)" style="fill: none; stroke: #ff00ff; stroke-opacity: 0.3; stroke-width: 0.5; stroke-linecap: square"/>
   </g>
   <g id="line2d_42">
    <path d="M 73.832727 147.315451 
L 77.480531 148.041211 
L 81.128335 147.731328 
L 84.776139 150.104641 
L 88.423943 151.188405 
L 92.071747 151.501808 
L 95.719551 152.282311 
L 99.367354 153.618258 
L 103.015158 155.06811 
L 106.662962 154.880509 
L 110.310766 156.38396 
L 113.95857 157.720515 
L 117.606374 158.008431 
L 121.254178 158.995053 
L 124.901982 159.529096 
L 128.549785 161.21825 
L 132.197589 162.442204 
L 135.845393 164.018467 
L 139.493197 164.756761 
L 143.141001 164.555495 
L 146.788805 164.064603 
L 150.436609 165.675353 
L 154.084413 167.008097 
L 157.732217 166.518046 
L 161.38002 168.04855 
L 165.027824 169.764743 
L 168.675628 169.97776 
L 172.323432 169.539612 
L 175.971236 171.374405 
L 179.61904 170.955587 
L 183.266844 171.971494 
L 186.914648 173.144819 
L 190.562451 173.964025 
L 194.210255 174.510297 
L 197.858059 174.321565 
L 201.505863 175.938313 
L 205.153667 175.888076 
L 208.801471 176.683866 
L 212.449275 176.351263 
L 216.097079 178.2115 
L 219.744883 179.673829 
L 223.392686 179.400128 
L 227.04049 181.319513 
L 230.688294 180.305751 
L 234.336098 181.676735 
L 237.983902 181.640553 
L 241.631706 184.330603 
L 245.27951 183.868692 
L 248.927314 185.873293 
L 252.575117 185.080503 
L 256.222921 185.863063 
L 259.870725 186.382485 
L 263.518529 187.464046 
L 267.166333 188.48272 
L 270.814137 187.812515 
L 274.461941 189.692343 
L 278.109745 190.436693 
L 281.757549 191.354329 
L 285.405352 191.099566 
L 289.053156 191.910933 
L 292.70096 193.41818 
L 296.348764 194.391805 
L 299.996568 193.117107 
L 303.644372 195.153746 
L 307.292176 195.807664 
L 310.93998 196.700913 
L 314.587783 197.625417 
L 318.235587 197.21835 
L 321.883391 197.713342 
L 325.531195 198.550761 
L 329.178999 199.954666 
L 332.826803 199.380631 
L 336.474607 200.894298 
L 340.122411 203.119915 
L 343.770215 203.1118 
L 347.418018 202.31562 
L 351.065822 204.222587 
L 354.713626 205.06844 
L 358.36143 204.861161 
L 362.009234 206.197687 
L 365.657038 206.757623 
L 369.304842 207.681678 
L 372.952646 207.020341 
L 376.600449 208.10464 
L 380.248253 209.315771 
L 383.896057 209.835178 
L 387.543861 211.007635 
L 391.191665 209.548755 
L 394.839469 211.312055 
L 398.487273 212.063345 
" clip-path="url(#pdf1aff3e2e)" style="fill: none; stroke: #ff00ff; stroke-opacity: 0.3; stroke-width: 0.5; stroke-linecap: square"/>
   </g>
   <g id="line2d_43">
    <path d="M 73.832727 149.396299 
L 77.480531 150.913095 
L 81.128335 152.940417 
L 84.776139 155.219038 
L 88.423943 155.859191 
L 92.071747 160.091524 
L 95.719551 160.558333 
L 99.367354 161.07364 
L 103.015158 163.901982 
L 106.662962 165.773232 
L 110.310766 166.732309 
L 113.95857 168.141634 
L 117.606374 170.329287 
L 121.254178 171.161403 
L 124.901982 170.945009 
L 128.549785 172.793496 
L 132.197589 173.850018 
L 135.845393 174.58947 
L 139.493197 176.158358 
L 143.141001 177.629076 
L 146.788805 176.423974 
L 150.436609 178.931 
L 154.084413 178.776189 
L 157.732217 180.277641 
L 161.38002 181.480671 
L 165.027824 181.906821 
L 168.675628 183.326114 
L 172.323432 183.871256 
L 175.971236 186.070371 
L 179.61904 185.546906 
L 183.266844 186.649188 
L 186.914648 186.818213 
L 190.562451 188.089911 
L 194.210255 188.351064 
L 197.858059 188.965048 
L 201.505863 190.683907 
L 205.153667 191.586473 
L 208.801471 191.631247 
L 212.449275 193.149724 
L 216.097079 193.399604 
L 219.744883 195.353099 
L 223.392686 195.579998 
L 227.04049 196.509848 
L 230.688294 197.493776 
L 234.336098 197.889424 
L 237.983902 199.761863 
L 241.631706 198.935282 
L 245.27951 200.753194 
L 248.927314 202.256805 
L 252.575117 203.001271 
L 256.222921 204.001152 
L 259.870725 204.242395 
L 263.518529 205.916234 
L 267.166333 208.325018 
L 270.814137 206.893756 
L 274.461941 207.425814 
L 278.109745 208.552395 
L 281.757549 210.338879 
L 285.405352 209.592413 
L 289.053156 211.19486 
L 292.70096 212.846326 
L 296.348764 212.864902 
L 299.996568 213.333203 
L 303.644372 214.362847 
L 307.292176 217.141959 
L 310.93998 216.395015 
L 314.587783 218.326877 
L 318.235587 218.35014 
L 321.883391 219.532928 
L 325.531195 220.177551 
L 329.178999 220.803779 
L 332.826803 221.770057 
L 336.474607 223.971114 
L 340.122411 223.696833 
L 343.770215 225.50545 
L 347.418018 225.891253 
L 351.065822 226.178589 
L 354.713626 228.045492 
L 358.36143 229.037259 
L 362.009234 229.687286 
L 365.657038 230.988609 
L 369.304842 231.820725 
L 372.952646 232.280427 
L 376.600449 232.301995 
L 380.248253 234.943938 
L 383.896057 235.11639 
L 387.543861 235.065552 
L 391.191665 235.71282 
L 394.839469 237.936379 
L 398.487273 238.202509 
" clip-path="url(#pdf1aff3e2e)" style="fill: none; stroke: #ff00ff; stroke-opacity: 0.3; stroke-width: 0.5; stroke-linecap: square"/>
   </g>
   <g id="line2d_44">
    <path d="M 73.832727 154.752475 
L 77.480531 155.748849 
L 81.128335 157.556213 
L 84.776139 157.426644 
L 88.423943 156.053472 
L 92.071747 159.207737 
L 95.719551 157.683116 
L 99.367354 158.248964 
L 103.015158 160.057864 
L 106.662962 159.078994 
L 110.310766 160.439863 
L 113.95857 163.160429 
L 117.606374 160.607875 
L 121.254178 161.613595 
L 124.901982 163.044132 
L 128.549785 161.805761 
L 132.197589 162.984013 
L 135.845393 163.872988 
L 139.493197 164.172467 
L 143.141001 164.261986 
L 146.788805 164.892807 
L 150.436609 166.510975 
L 154.084413 166.016229 
L 157.732217 166.327967 
L 161.38002 167.109324 
L 165.027824 167.24866 
L 168.675628 167.486035 
L 172.323432 168.985776 
L 175.971236 168.659592 
L 179.61904 169.850987 
L 183.266844 170.438932 
L 186.914648 169.923075 
L 190.562451 171.004635 
L 194.210255 171.252849 
L 197.858059 173.264999 
L 201.505863 173.142066 
L 205.153667 175.402561 
L 208.801471 174.551434 
L 212.449275 174.553318 
L 216.097079 174.351458 
L 219.744883 175.637037 
L 223.392686 174.762988 
L 227.04049 175.564109 
L 230.688294 177.754443 
L 234.336098 178.081496 
L 237.983902 177.182843 
L 241.631706 178.170842 
L 245.27951 177.323164 
L 248.927314 179.498051 
L 252.575117 179.703577 
L 256.222921 181.771427 
L 259.870725 180.296956 
L 263.518529 181.993268 
L 267.166333 181.381429 
L 270.814137 182.981833 
L 274.461941 182.953621 
L 278.109745 183.042864 
L 281.757549 182.650606 
L 285.405352 184.9273 
L 289.053156 185.340873 
L 292.70096 185.089834 
L 296.348764 185.380228 
L 299.996568 186.572883 
L 303.644372 186.206867 
L 307.292176 186.358779 
L 310.93998 187.102347 
L 314.587783 187.485216 
L 318.235587 189.344062 
L 321.883391 189.42538 
L 325.531195 191.06595 
L 329.178999 190.223213 
L 332.826803 191.199794 
L 336.474607 190.433723 
L 340.122411 189.292956 
L 343.770215 192.005625 
L 347.418018 191.40203 
L 351.065822 191.505155 
L 354.713626 191.472553 
L 358.36143 194.754721 
L 362.009234 194.201783 
L 365.657038 194.557411 
L 369.304842 193.93382 
L 372.952646 194.956407 
L 376.600449 196.49233 
L 380.248253 196.582617 
L 383.896057 197.917376 
L 387.543861 196.051777 
L 391.191665 198.237778 
L 394.839469 197.980465 
L 398.487273 199.036886 
" clip-path="url(#pdf1aff3e2e)" style="fill: none; stroke: #ff00ff; stroke-opacity: 0.3; stroke-width: 0.5; stroke-linecap: square"/>
   </g>
   <g id="line2d_45">
    <path d="M 73.832727 167.588392 
L 77.480531 168.078834 
L 81.128335 168.540673 
L 84.776139 168.612978 
L 88.423943 168.914543 
L 92.071747 169.886415 
L 95.719551 170.207629 
L 99.367354 170.604944 
L 103.015158 171.197729 
L 106.662962 171.848908 
L 110.310766 172.156748 
L 113.95857 172.718843 
L 117.606374 172.37175 
L 121.254178 173.806562 
L 124.901982 172.807246 
L 128.549785 173.67808 
L 132.197589 174.470725 
L 135.845393 174.72201 
L 139.493197 175.358526 
L 143.141001 175.829421 
L 146.788805 175.783386 
L 150.436609 176.117641 
L 154.084413 177.153254 
L 157.732217 177.96875 
L 161.38002 178.141847 
L 165.027824 177.92399 
L 168.675628 179.441178 
L 172.323432 178.709898 
L 175.971236 179.461073 
L 179.61904 178.933319 
L 183.266844 180.091908 
L 186.914648 180.664653 
L 190.562451 181.423349 
L 194.210255 181.651059 
L 197.858059 182.347534 
L 201.505863 182.966821 
L 205.153667 182.727562 
L 208.801471 183.234465 
L 212.449275 183.721039 
L 216.097079 185.050103 
L 219.744883 185.288854 
L 223.392686 185.907388 
L 227.04049 185.548833 
L 230.688294 185.655987 
L 234.336098 186.81488 
L 237.983902 188.141162 
L 241.631706 187.373078 
L 245.27951 188.583049 
L 248.927314 189.106601 
L 252.575117 189.576713 
L 256.222921 189.842474 
L 259.870725 190.608124 
L 263.518529 191.131763 
L 267.166333 191.387873 
L 270.814137 191.715173 
L 274.461941 192.996652 
L 278.109745 192.375945 
L 281.757549 193.511524 
L 285.405352 193.644021 
L 289.053156 194.177513 
L 292.70096 195.221588 
L 296.348764 196.091378 
L 299.996568 196.400695 
L 303.644372 197.695476 
L 307.292176 197.147885 
L 310.93998 197.280845 
L 314.587783 198.433726 
L 318.235587 198.637832 
L 321.883391 198.789455 
L 325.531195 200.271924 
L 329.178999 201.172621 
L 332.826803 201.401172 
L 336.474607 202.109166 
L 340.122411 202.406138 
L 343.770215 203.725639 
L 347.418018 203.841878 
L 351.065822 203.503957 
L 354.713626 205.250709 
L 358.36143 204.937798 
L 362.009234 206.135655 
L 365.657038 206.150812 
L 369.304842 206.445553 
L 372.952646 205.798546 
L 376.600449 207.556992 
L 380.248253 208.787828 
L 383.896057 209.797809 
L 387.543861 209.863289 
L 391.191665 210.592178 
L 394.839469 210.83064 
L 398.487273 211.156244 
" clip-path="url(#pdf1aff3e2e)" style="fill: none; stroke: #ff00ff; stroke-opacity: 0.3; stroke-width: 0.5; stroke-linecap: square"/>
   </g>
   <g id="line2d_46">
    <path d="M 73.832727 169.522862 
L 77.480531 170.255315 
L 81.128335 173.755471 
L 84.776139 171.61859 
L 88.423943 173.263275 
L 92.071747 174.521019 
L 95.719551 173.989933 
L 99.367354 174.540277 
L 103.015158 175.192688 
L 106.662962 175.763694 
L 110.310766 177.278013 
L 113.95857 177.986862 
L 117.606374 178.421895 
L 121.254178 179.330909 
L 124.901982 179.629823 
L 128.549785 180.209973 
L 132.197589 179.986812 
L 135.845393 183.008132 
L 139.493197 181.093905 
L 143.141001 184.288785 
L 146.788805 184.647629 
L 150.436609 184.641268 
L 154.084413 184.175241 
L 157.732217 185.461067 
L 161.38002 186.357649 
L 165.027824 187.944374 
L 168.675628 188.821394 
L 172.323432 189.409296 
L 175.971236 188.433179 
L 179.61904 191.211023 
L 183.266844 190.712843 
L 186.914648 191.290892 
L 190.562451 191.664922 
L 194.210255 191.027696 
L 197.858059 193.107283 
L 201.505863 194.477484 
L 205.153667 194.877248 
L 208.801471 196.355458 
L 212.449275 196.182795 
L 216.097079 197.339211 
L 219.744883 199.134678 
L 223.392686 197.634502 
L 227.04049 199.409742 
L 230.688294 201.563126 
L 234.336098 201.383421 
L 237.983902 202.093749 
L 241.631706 202.954468 
L 245.27951 203.654914 
L 248.927314 202.545054 
L 252.575117 205.605525 
L 256.222921 205.810921 
L 259.870725 205.66021 
L 263.518529 206.336559 
L 267.166333 207.123597 
L 270.814137 208.356027 
L 274.461941 210.198935 
L 278.109745 209.277966 
L 281.757549 210.102721 
L 285.405352 211.248617 
L 289.053156 211.049192 
L 292.70096 213.657924 
L 296.348764 213.163656 
L 299.996568 213.468989 
L 303.644372 214.426255 
L 307.292176 215.514553 
L 310.93998 215.713885 
L 314.587783 215.824798 
L 318.235587 217.37119 
L 321.883391 217.902755 
L 325.531195 219.40078 
L 329.178999 219.732144 
L 332.826803 220.408253 
L 336.474607 222.013373 
L 340.122411 222.036803 
L 343.770215 221.923644 
L 347.418018 223.227162 
L 351.065822 223.960464 
L 354.713626 224.192368 
L 358.36143 225.042459 
L 362.009234 225.718641 
L 365.657038 224.796839 
L 369.304842 226.904689 
L 372.952646 227.001149 
L 376.600449 228.0557 
L 380.248253 229.02692 
L 383.896057 228.754284 
L 387.543861 229.068108 
L 391.191665 231.442682 
L 394.839469 231.285668 
L 398.487273 231.993163 
" clip-path="url(#pdf1aff3e2e)" style="fill: none; stroke: #ff00ff; stroke-opacity: 0.3; stroke-width: 0.5; stroke-linecap: square"/>
   </g>
   <g id="line2d_47">
    <path d="M 73.832727 163.669114 
L 77.480531 165.604989 
L 81.128335 165.419329 
L 84.776139 165.622406 
L 88.423943 166.755073 
L 92.071747 166.628793 
L 95.719551 166.514105 
L 99.367354 167.318081 
L 103.015158 166.882469 
L 106.662962 166.223856 
L 110.310766 168.883361 
L 113.95857 168.693499 
L 117.606374 168.511113 
L 121.254178 169.328131 
L 124.901982 169.794186 
L 128.549785 169.368761 
L 132.197589 169.679237 
L 135.845393 171.563123 
L 139.493197 171.32185 
L 143.141001 171.543532 
L 146.788805 171.554168 
L 150.436609 172.327744 
L 154.084413 172.168427 
L 157.732217 172.653508 
L 161.38002 173.318004 
L 165.027824 173.724549 
L 168.675628 173.617222 
L 172.323432 174.119705 
L 175.971236 174.953502 
L 179.61904 175.61068 
L 183.266844 176.103644 
L 186.914648 176.074997 
L 190.562451 175.980885 
L 194.210255 176.092965 
L 197.858059 178.074759 
L 201.505863 177.884549 
L 205.153667 177.702931 
L 208.801471 178.05527 
L 212.449275 178.488737 
L 216.097079 178.828353 
L 219.744883 179.938532 
L 223.392686 180.362175 
L 227.04049 180.142522 
L 230.688294 180.601332 
L 234.336098 181.649523 
L 237.983902 182.337391 
L 241.631706 181.915385 
L 245.27951 182.482001 
L 248.927314 183.455336 
L 252.575117 183.842015 
L 256.222921 184.98129 
L 259.870725 184.910014 
L 263.518529 185.518143 
L 267.166333 185.699428 
L 270.814137 186.955245 
L 274.461941 186.334987 
L 278.109745 186.722652 
L 281.757549 186.372646 
L 285.405352 187.941375 
L 289.053156 188.646892 
L 292.70096 190.20781 
L 296.348764 189.675941 
L 299.996568 190.348131 
L 303.644372 191.19307 
L 307.292176 191.815487 
L 310.93998 192.305538 
L 314.587783 192.816745 
L 318.235587 192.349617 
L 321.883391 194.310096 
L 325.531195 194.141389 
L 329.178999 194.834546 
L 332.826803 194.496263 
L 336.474607 195.984442 
L 340.122411 196.043981 
L 343.770215 196.992915 
L 347.418018 197.009608 
L 351.065822 198.131262 
L 354.713626 199.585346 
L 358.36143 199.425999 
L 362.009234 199.89065 
L 365.657038 199.945146 
L 369.304842 200.544843 
L 372.952646 201.808746 
L 376.600449 201.147785 
L 380.248253 202.740074 
L 383.896057 203.884826 
L 387.543861 203.456473 
L 391.191665 205.912452 
L 394.839469 204.878896 
L 398.487273 206.41566 
" clip-path="url(#pdf1aff3e2e)" style="fill: none; stroke: #ff00ff; stroke-opacity: 0.3; stroke-width: 0.5; stroke-linecap: square"/>
   </g>
   <g id="line2d_48">
    <path d="M 73.832727 163.945061 
L 77.480531 168.309558 
L 81.128335 167.165212 
L 84.776139 171.110847 
L 88.423943 174.07412 
L 92.071747 176.046307 
L 95.719551 178.99493 
L 99.367354 181.529691 
L 103.015158 183.272661 
L 106.662962 184.468678 
L 110.310766 186.32312 
L 113.95857 187.557318 
L 117.606374 190.077342 
L 121.254178 190.937467 
L 124.901982 193.270063 
L 128.549785 194.655914 
L 132.197589 197.855779 
L 135.845393 197.502412 
L 139.493197 200.720896 
L 143.141001 201.673366 
L 146.788805 203.073735 
L 150.436609 205.170695 
L 154.084413 206.338037 
L 157.732217 208.100569 
L 161.38002 210.045109 
L 165.027824 210.886035 
L 168.675628 212.301561 
L 172.323432 214.598628 
L 175.971236 215.36748 
L 179.61904 216.733008 
L 183.266844 217.440887 
L 186.914648 219.528907 
L 190.562451 222.013931 
L 194.210255 222.734554 
L 197.858059 223.740035 
L 201.505863 225.854811 
L 205.153667 226.906464 
L 208.801471 227.853022 
L 212.449275 230.002834 
L 216.097079 230.821627 
L 219.744883 232.365925 
L 223.392686 233.685085 
L 227.04049 234.742832 
L 230.688294 236.475884 
L 234.336098 237.042804 
L 237.983902 239.234282 
L 241.631706 239.807846 
L 245.27951 240.994409 
L 248.927314 243.156233 
L 252.575117 243.820947 
L 256.222921 244.514691 
L 259.870725 246.191724 
L 263.518529 247.734211 
L 267.166333 247.753063 
L 270.814137 249.578771 
L 274.461941 250.552591 
L 278.109745 252.178265 
L 281.757549 253.317989 
L 285.405352 253.371449 
L 289.053156 255.195955 
L 292.70096 256.263975 
L 296.348764 256.480448 
L 299.996568 258.521984 
L 303.644372 258.947439 
L 307.292176 260.484956 
L 310.93998 261.00603 
L 314.587783 262.563535 
L 318.235587 262.733191 
L 321.883391 264.593697 
L 325.531195 265.706563 
L 329.178999 266.513264 
L 332.826803 267.032838 
L 336.474607 268.973611 
L 340.122411 269.732864 
L 343.770215 270.088383 
L 347.418018 270.057498 
L 351.065822 271.423011 
L 354.713626 272.616362 
L 358.36143 274.084508 
L 362.009234 274.654211 
L 365.657038 275.079144 
L 369.304842 276.258316 
L 372.952646 276.523512 
L 376.600449 277.282069 
L 380.248253 279.398189 
L 383.896057 279.19981 
L 387.543861 280.684899 
L 391.191665 281.4559 
L 394.839469 281.743345 
L 398.487273 282.12793 
" clip-path="url(#pdf1aff3e2e)" style="fill: none; stroke: #ff00ff; stroke-opacity: 0.3; stroke-width: 0.5; stroke-linecap: square"/>
   </g>
   <g id="line2d_49">
    <path d="M 73.832727 168.679516 
L 77.480531 169.962429 
L 81.128335 170.340632 
L 84.776139 170.199283 
L 88.423943 171.070463 
L 92.071747 171.9963 
L 95.719551 172.123407 
L 99.367354 172.434811 
L 103.015158 173.262797 
L 106.662962 173.938696 
L 110.310766 174.291165 
L 113.95857 175.92633 
L 117.606374 176.684779 
L 121.254178 177.659519 
L 124.901982 178.85132 
L 128.549785 180.215986 
L 132.197589 180.678506 
L 135.845393 182.387352 
L 139.493197 183.45083 
L 143.141001 184.577759 
L 146.788805 186.247366 
L 150.436609 187.540611 
L 154.084413 188.830885 
L 157.732217 189.474574 
L 161.38002 191.001324 
L 165.027824 192.105142 
L 168.675628 194.027889 
L 172.323432 195.227993 
L 175.971236 196.332955 
L 179.61904 198.069013 
L 183.266844 199.454125 
L 186.914648 200.620524 
L 190.562451 202.758158 
L 194.210255 204.41074 
L 197.858059 205.018029 
L 201.505863 206.777257 
L 205.153667 207.347785 
L 208.801471 208.418537 
L 212.449275 210.193993 
L 216.097079 212.066635 
L 219.744883 213.517255 
L 223.392686 214.383495 
L 227.04049 216.259461 
L 230.688294 217.43249 
L 234.336098 219.074219 
L 237.983902 220.274185 
L 241.631706 220.485818 
L 245.27951 222.268114 
L 248.927314 223.867336 
L 252.575117 224.724737 
L 256.222921 226.168816 
L 259.870725 227.458677 
L 263.518529 228.081529 
L 267.166333 229.841988 
L 270.814137 230.571493 
L 274.461941 232.742672 
L 278.109745 233.520392 
L 281.757549 233.490014 
L 285.405352 234.912632 
L 289.053156 236.56662 
L 292.70096 237.788856 
L 296.348764 238.810675 
L 299.996568 239.685109 
L 303.644372 240.704109 
L 307.292176 241.890085 
L 310.93998 242.913389 
L 314.587783 243.971027 
L 318.235587 244.525761 
L 321.883391 244.800433 
L 325.531195 246.972582 
L 329.178999 247.53488 
L 332.826803 249.439123 
L 336.474607 249.104217 
L 340.122411 250.408597 
L 343.770215 250.694376 
L 347.418018 251.440196 
L 351.065822 252.086007 
L 354.713626 252.938257 
L 358.36143 255.04418 
L 362.009234 255.99541 
L 365.657038 256.5409 
L 369.304842 257.160151 
L 372.952646 258.825918 
L 376.600449 259.405793 
L 380.248253 260.026413 
L 383.896057 261.18719 
L 387.543861 260.508531 
L 391.191665 262.722679 
L 394.839469 263.204941 
L 398.487273 264.087924 
" clip-path="url(#pdf1aff3e2e)" style="fill: none; stroke: #ff00ff; stroke-opacity: 0.3; stroke-width: 0.5; stroke-linecap: square"/>
   </g>
   <g id="line2d_50">
    <path d="M 73.832727 160.747471 
L 77.480531 162.259181 
L 81.128335 162.725672 
L 84.776139 162.754739 
L 88.423943 162.389968 
L 92.071747 163.29762 
L 95.719551 164.563667 
L 99.367354 164.368618 
L 103.015158 165.609235 
L 106.662962 165.270155 
L 110.310766 166.618447 
L 113.95857 167.041424 
L 117.606374 167.225114 
L 121.254178 168.191899 
L 124.901982 167.898868 
L 128.549785 168.745315 
L 132.197589 170.450379 
L 135.845393 170.220192 
L 139.493197 170.721472 
L 143.141001 171.225289 
L 146.788805 172.409424 
L 150.436609 172.384501 
L 154.084413 172.820954 
L 157.732217 173.759484 
L 161.38002 174.58237 
L 165.027824 174.75525 
L 168.675628 176.430262 
L 172.323432 176.980606 
L 175.971236 176.227055 
L 179.61904 177.640508 
L 183.266844 178.489476 
L 186.914648 178.821978 
L 190.562451 179.244549 
L 194.210255 179.735469 
L 197.858059 180.322516 
L 201.505863 181.825301 
L 205.153667 181.578985 
L 208.801471 182.784943 
L 212.449275 182.93119 
L 216.097079 183.752801 
L 219.744883 184.391475 
L 223.392686 185.128479 
L 227.04049 185.219737 
L 230.688294 185.711309 
L 234.336098 185.85605 
L 237.983902 187.368369 
L 241.631706 187.358994 
L 245.27951 187.749962 
L 248.927314 188.869994 
L 252.575117 188.292249 
L 256.222921 188.320592 
L 259.870725 188.95747 
L 263.518529 190.424029 
L 267.166333 190.476077 
L 270.814137 190.743924 
L 274.461941 190.921615 
L 278.109745 191.492404 
L 281.757549 192.410011 
L 285.405352 192.656906 
L 289.053156 193.539012 
L 292.70096 193.468344 
L 296.348764 194.52775 
L 299.996568 194.911546 
L 303.644372 194.801451 
L 307.292176 194.791047 
L 310.93998 195.860639 
L 314.587783 195.484668 
L 318.235587 196.950851 
L 321.883391 196.250101 
L 325.531195 197.815381 
L 329.178999 197.776591 
L 332.826803 198.887958 
L 336.474607 198.598578 
L 340.122411 199.550063 
L 343.770215 200.075542 
L 347.418018 199.976184 
L 351.065822 200.292978 
L 354.713626 201.175954 
L 358.36143 202.367363 
L 362.009234 202.666639 
L 365.657038 202.417687 
L 369.304842 202.958149 
L 372.952646 203.491988 
L 376.600449 203.912299 
L 380.248253 204.759282 
L 383.896057 205.065875 
L 387.543861 205.359543 
L 391.191665 206.641819 
L 394.839469 205.868069 
L 398.487273 206.774417 
" clip-path="url(#pdf1aff3e2e)" style="fill: none; stroke: #ff00ff; stroke-opacity: 0.3; stroke-width: 0.5; stroke-linecap: square"/>
   </g>
   <g id="line2d_51">
    <path d="M 73.832727 173.542091 
L 77.480531 175.451276 
L 81.128335 176.971579 
L 84.776139 177.545338 
L 88.423943 178.793172 
L 92.071747 179.347746 
L 95.719551 178.84819 
L 99.367354 181.354275 
L 103.015158 182.534875 
L 106.662962 182.866507 
L 110.310766 185.138767 
L 113.95857 187.123633 
L 117.606374 187.391784 
L 121.254178 189.754549 
L 124.901982 191.555696 
L 128.549785 193.726063 
L 132.197589 194.569307 
L 135.845393 197.316925 
L 139.493197 198.987533 
L 143.141001 199.86493 
L 146.788805 200.504315 
L 150.436609 203.656826 
L 154.084413 205.32513 
L 157.732217 205.693726 
L 161.38002 207.713121 
L 165.027824 208.564117 
L 168.675628 211.882989 
L 172.323432 212.606227 
L 175.971236 214.15906 
L 179.61904 214.929042 
L 183.266844 216.921508 
L 186.914648 218.51471 
L 190.562451 219.789922 
L 194.210255 221.288432 
L 197.858059 222.178407 
L 201.505863 223.390145 
L 205.153667 225.936063 
L 208.801471 227.239067 
L 212.449275 229.036252 
L 216.097079 229.834642 
L 219.744883 231.60857 
L 223.392686 231.400219 
L 227.04049 234.500979 
L 230.688294 233.184529 
L 234.336098 236.612785 
L 237.983902 237.252959 
L 241.631706 238.925124 
L 245.27951 238.209964 
L 248.927314 241.017752 
L 252.575117 242.987302 
L 256.222921 243.306676 
L 259.870725 244.763896 
L 263.518529 245.956429 
L 267.166333 247.55915 
L 270.814137 247.821021 
L 274.461941 249.421967 
L 278.109745 250.338147 
L 281.757549 251.657872 
L 285.405352 251.717752 
L 289.053156 253.548539 
L 292.70096 254.516201 
L 296.348764 254.312841 
L 299.996568 256.749795 
L 303.644372 257.223602 
L 307.292176 258.688822 
L 310.93998 259.870798 
L 314.587783 259.868161 
L 318.235587 261.146372 
L 321.883391 262.490803 
L 325.531195 264.335428 
L 329.178999 264.745291 
L 332.826803 265.026839 
L 336.474607 266.302993 
L 340.122411 266.942392 
L 343.770215 267.87656 
L 347.418018 268.97677 
L 351.065822 269.610475 
L 354.713626 270.500398 
L 358.36143 271.878648 
L 362.009234 271.91746 
L 365.657038 272.338365 
L 369.304842 274.365694 
L 372.952646 273.99817 
L 376.600449 275.177436 
L 380.248253 276.238896 
L 383.896057 276.817021 
L 387.543861 277.706205 
L 391.191665 278.586924 
L 394.839469 279.124064 
L 398.487273 279.768864 
" clip-path="url(#pdf1aff3e2e)" style="fill: none; stroke: #ff00ff; stroke-opacity: 0.3; stroke-width: 0.5; stroke-linecap: square"/>
   </g>
   <g id="line2d_52">
    <path d="M 73.832727 159.414002 
L 77.480531 162.652005 
L 81.128335 166.228942 
L 84.776139 166.170692 
L 88.423943 168.069763 
L 92.071747 171.883206 
L 95.719551 173.457586 
L 99.367354 175.077942 
L 103.015158 176.171819 
L 106.662962 177.58165 
L 110.310766 179.910624 
L 113.95857 180.229172 
L 117.606374 181.013949 
L 121.254178 182.159918 
L 124.901982 183.963311 
L 128.549785 183.924362 
L 132.197589 187.09929 
L 135.845393 187.590804 
L 139.493197 188.032908 
L 143.141001 188.833001 
L 146.788805 190.448416 
L 150.436609 191.364081 
L 154.084413 191.885025 
L 157.732217 193.183877 
L 161.38002 195.165975 
L 165.027824 196.68722 
L 168.675628 196.983815 
L 172.323432 198.088604 
L 175.971236 199.303675 
L 179.61904 199.096077 
L 183.266844 200.47035 
L 186.914648 201.720342 
L 190.562451 202.028109 
L 194.210255 204.082716 
L 197.858059 205.17455 
L 201.505863 205.572329 
L 205.153667 206.932227 
L 208.801471 209.246465 
L 212.449275 208.887476 
L 216.097079 210.021997 
L 219.744883 210.78233 
L 223.392686 212.146271 
L 227.04049 214.215527 
L 230.688294 214.92058 
L 234.336098 216.04443 
L 237.983902 216.906881 
L 241.631706 218.070513 
L 245.27951 219.069075 
L 248.927314 219.885694 
L 252.575117 221.186408 
L 256.222921 222.365233 
L 259.870725 223.759951 
L 263.518529 224.651621 
L 267.166333 224.491043 
L 270.814137 225.739623 
L 274.461941 227.664427 
L 278.109745 227.794381 
L 281.757549 229.854196 
L 285.405352 230.522517 
L 289.053156 232.015985 
L 292.70096 233.585633 
L 296.348764 234.302054 
L 299.996568 234.961601 
L 303.644372 235.535317 
L 307.292176 237.121571 
L 310.93998 237.544657 
L 314.587783 238.229627 
L 318.235587 240.111505 
L 321.883391 240.660248 
L 325.531195 242.460497 
L 329.178999 243.140222 
L 332.826803 244.702937 
L 336.474607 245.263648 
L 340.122411 245.904743 
L 343.770215 247.246515 
L 347.418018 247.898629 
L 351.065822 248.179727 
L 354.713626 249.733705 
L 358.36143 251.489614 
L 362.009234 251.891711 
L 365.657038 252.919753 
L 369.304842 254.222373 
L 372.952646 254.589107 
L 376.600449 255.626858 
L 380.248253 257.294842 
L 383.896057 257.332219 
L 387.543861 259.199586 
L 391.191665 258.988257 
L 394.839469 260.101007 
L 398.487273 261.241325 
" clip-path="url(#pdf1aff3e2e)" style="fill: none; stroke: #ff00ff; stroke-opacity: 0.3; stroke-width: 0.5; stroke-linecap: square"/>
   </g>
   <g id="line2d_53">
    <path d="M 73.832727 125.210485 
L 77.480531 128.061098 
L 81.128335 132.739738 
L 84.776139 136.553616 
L 88.423943 136.193699 
L 92.071747 139.785576 
L 95.719551 143.680873 
L 99.367354 146.079471 
L 103.015158 146.845223 
L 106.662962 150.136476 
L 110.310766 151.690555 
L 113.95857 154.414192 
L 117.606374 156.741514 
L 121.254178 158.931066 
L 124.901982 160.675615 
L 128.549785 162.716847 
L 132.197589 165.112489 
L 135.845393 166.214829 
L 139.493197 169.152092 
L 143.141001 169.875692 
L 146.788805 172.155835 
L 150.436609 174.052196 
L 154.084413 175.07445 
L 157.732217 178.180854 
L 161.38002 178.233569 
L 165.027824 182.221964 
L 168.675628 181.12003 
L 172.323432 185.310227 
L 175.971236 186.155181 
L 179.61904 187.549624 
L 183.266844 189.908795 
L 186.914648 190.292736 
L 190.562451 191.786391 
L 194.210255 192.749381 
L 197.858059 195.960736 
L 201.505863 196.372063 
L 205.153667 197.850142 
L 208.801471 198.872366 
L 212.449275 202.730728 
L 216.097079 203.326585 
L 219.744883 203.363853 
L 223.392686 205.121357 
L 227.04049 206.661627 
L 230.688294 206.692795 
L 234.336098 209.298832 
L 237.983902 211.953207 
L 241.631706 213.128025 
L 245.27951 214.109156 
L 248.927314 214.948531 
L 252.575117 217.535637 
L 256.222921 216.291832 
L 259.870725 218.47103 
L 263.518529 220.920372 
L 267.166333 221.430202 
L 270.814137 222.259471 
L 274.461941 223.850687 
L 278.109745 225.396645 
L 281.757549 226.72113 
L 285.405352 227.867186 
L 289.053156 228.747307 
L 292.70096 230.316108 
L 296.348764 231.451434 
L 299.996568 232.072981 
L 303.644372 233.127598 
L 307.292176 234.567728 
L 310.93998 234.762755 
L 314.587783 236.553876 
L 318.235587 238.216905 
L 321.883391 238.504777 
L 325.531195 240.043308 
L 329.178999 241.04019 
L 332.826803 243.069018 
L 336.474607 243.362194 
L 340.122411 244.370283 
L 343.770215 244.59127 
L 347.418018 246.507178 
L 351.065822 246.268586 
L 354.713626 248.66412 
L 358.36143 249.966682 
L 362.009234 249.677194 
L 365.657038 251.867491 
L 369.304842 252.488322 
L 372.952646 251.860123 
L 376.600449 253.606549 
L 380.248253 255.198621 
L 383.896057 255.784769 
L 387.543861 256.708339 
L 391.191665 258.902925 
L 394.839469 258.022159 
L 398.487273 258.922001 
" clip-path="url(#pdf1aff3e2e)" style="fill: none; stroke: #ff00ff; stroke-opacity: 0.3; stroke-width: 0.5; stroke-linecap: square"/>
   </g>
   <g id="line2d_54">
    <path d="M 73.832727 170.108054 
L 77.480531 169.62632 
L 81.128335 170.22477 
L 84.776139 169.754904 
L 88.423943 169.557014 
L 92.071747 170.51841 
L 95.719551 170.704345 
L 99.367354 170.5917 
L 103.015158 170.824815 
L 106.662962 171.786138 
L 110.310766 171.628313 
L 113.95857 170.982263 
L 117.606374 172.058564 
L 121.254178 171.530868 
L 124.901982 171.828593 
L 128.549785 172.113872 
L 132.197589 172.119813 
L 135.845393 173.182218 
L 139.493197 172.447258 
L 143.141001 173.444921 
L 146.788805 172.446519 
L 150.436609 173.140081 
L 154.084413 173.50591 
L 157.732217 173.227919 
L 161.38002 173.375427 
L 165.027824 174.462987 
L 168.675628 174.625811 
L 172.323432 174.767726 
L 175.971236 174.03688 
L 179.61904 174.489026 
L 183.266844 174.492199 
L 186.914648 174.941214 
L 190.562451 176.036033 
L 194.210255 174.654892 
L 197.858059 175.575687 
L 201.505863 176.084995 
L 205.153667 174.498951 
L 208.801471 175.578237 
L 212.449275 176.273901 
L 216.097079 175.857517 
L 219.744883 176.043786 
L 223.392686 177.097149 
L 227.04049 176.692038 
L 230.688294 177.224791 
L 234.336098 177.114653 
L 237.983902 177.475004 
L 241.631706 177.622208 
L 245.27951 178.690829 
L 248.927314 177.712582 
L 252.575117 177.886795 
L 256.222921 178.346098 
L 259.870725 177.746894 
L 263.518529 178.358356 
L 267.166333 178.678223 
L 270.814137 179.139917 
L 274.461941 179.228103 
L 278.109745 179.153914 
L 281.757549 180.643469 
L 285.405352 179.194472 
L 289.053156 179.667729 
L 292.70096 179.795863 
L 296.348764 180.239503 
L 299.996568 179.559648 
L 303.644372 180.39059 
L 307.292176 180.089952 
L 310.93998 180.790195 
L 314.587783 181.065243 
L 318.235587 180.720338 
L 321.883391 180.730264 
L 325.531195 181.12287 
L 329.178999 181.157559 
L 332.826803 181.304531 
L 336.474607 183.261185 
L 340.122411 181.647407 
L 343.770215 181.875929 
L 347.418018 181.850644 
L 351.065822 182.881229 
L 354.713626 183.473217 
L 358.36143 182.764715 
L 362.009234 183.353558 
L 365.657038 183.429515 
L 369.304842 183.863214 
L 372.952646 182.92167 
L 376.600449 184.363032 
L 380.248253 183.410504 
L 383.896057 183.402534 
L 387.543861 184.264847 
L 391.191665 184.051816 
L 394.839469 185.254296 
L 398.487273 184.493007 
" clip-path="url(#pdf1aff3e2e)" style="fill: none; stroke: #ff00ff; stroke-opacity: 0.3; stroke-width: 0.5; stroke-linecap: square"/>
   </g>
   <g id="line2d_55">
    <path d="M 73.832727 174.998595 
L 77.480531 172.909792 
L 81.128335 171.296478 
L 84.776139 169.800156 
L 88.423943 169.369717 
L 92.071747 167.081619 
L 95.719551 166.037457 
L 99.367354 164.531572 
L 103.015158 163.02886 
L 106.662962 161.957906 
L 110.310766 160.191302 
L 113.95857 158.709905 
L 117.606374 157.82051 
L 121.254178 156.573387 
L 124.901982 155.421608 
L 128.549785 154.20145 
L 132.197589 152.60296 
L 135.845393 151.060313 
L 139.493197 150.162442 
L 143.141001 148.801688 
L 146.788805 147.837264 
L 150.436609 146.121825 
L 154.084413 145.229112 
L 157.732217 144.413356 
L 161.38002 142.408464 
L 165.027824 141.683864 
L 168.675628 140.041599 
L 172.323432 138.432038 
L 175.971236 138.093538 
L 179.61904 137.124926 
L 183.266844 135.614288 
L 186.914648 134.287572 
L 190.562451 132.601489 
L 194.210255 132.168137 
L 197.858059 130.122399 
L 201.505863 128.834747 
L 205.153667 127.411571 
L 208.801471 125.869287 
L 212.449275 124.839817 
L 216.097079 123.309661 
L 219.744883 121.249071 
L 223.392686 120.490593 
L 227.04049 119.117871 
L 230.688294 117.886947 
L 234.336098 116.08038 
L 237.983902 115.139329 
L 241.631706 113.265471 
L 245.27951 112.653704 
L 248.927314 110.29178 
L 252.575117 109.333674 
L 256.222921 107.979368 
L 259.870725 107.470581 
L 263.518529 104.896973 
L 267.166333 103.736601 
L 270.814137 103.42582 
L 274.461941 100.902159 
L 278.109745 100.581844 
L 281.757549 98.047156 
L 285.405352 98.087626 
L 289.053156 95.817887 
L 292.70096 93.932973 
L 296.348764 93.182175 
L 299.996568 91.281757 
L 303.644372 89.863971 
L 307.292176 88.267784 
L 310.93998 87.711311 
L 314.587783 85.704304 
L 318.235587 84.78448 
L 321.883391 83.933397 
L 325.531195 80.408334 
L 329.178999 79.550498 
L 332.826803 77.909219 
L 336.474607 76.87704 
L 340.122411 76.286689 
L 343.770215 73.905464 
L 347.418018 73.99223 
L 351.065822 73.401764 
L 354.713626 70.57616 
L 358.36143 67.630928 
L 362.009234 67.101812 
L 365.657038 66.333814 
L 369.304842 64.399924 
L 372.952646 64.300552 
L 376.600449 62.351476 
L 380.248253 59.285165 
L 383.896057 59.519584 
L 387.543861 58.09093 
L 391.191665 55.677451 
L 394.839469 55.607754 
L 398.487273 53.568 
" clip-path="url(#pdf1aff3e2e)" style="fill: none; stroke: #6495ed; stroke-width: 2; stroke-linecap: square"/>
   </g>
   <g id="line2d_56">
    <path d="M 73.832727 162.259523 
L 77.480531 163.992445 
L 81.128335 165.425744 
L 84.776139 166.698169 
L 88.423943 167.479336 
L 92.071747 169.210778 
L 95.719551 170.256297 
L 99.367354 171.524496 
L 103.015158 172.750104 
L 106.662962 173.789005 
L 110.310766 175.094288 
L 113.95857 176.28575 
L 117.606374 177.147202 
L 121.254178 178.216147 
L 124.901982 179.234772 
L 128.549785 180.197609 
L 132.197589 181.421861 
L 135.845393 182.565414 
L 139.493197 183.328218 
L 143.141001 184.386887 
L 146.788805 185.242762 
L 150.436609 186.353795 
L 154.084413 187.14006 
L 157.732217 187.872313 
L 161.38002 189.096331 
L 165.027824 189.87637 
L 168.675628 190.876981 
L 172.323432 191.929425 
L 175.971236 192.472848 
L 179.61904 193.22382 
L 183.266844 194.196314 
L 186.914648 195.11575 
L 190.562451 196.100193 
L 194.210255 196.685027 
L 197.858059 197.830117 
L 201.505863 198.645172 
L 205.153667 199.538015 
L 208.801471 200.461553 
L 212.449275 201.151695 
L 216.097079 202.128086 
L 219.744883 203.209081 
L 223.392686 203.830076 
L 227.04049 204.701593 
L 230.688294 205.464255 
L 234.336098 206.409036 
L 237.983902 207.099756 
L 241.631706 208.07041 
L 245.27951 208.588769 
L 248.927314 209.73131 
L 252.575117 210.349692 
L 256.222921 211.214585 
L 259.870725 211.644708 
L 263.518529 212.89034 
L 267.166333 213.533846 
L 270.814137 214.013609 
L 274.461941 215.117933 
L 278.109745 215.519314 
L 281.757549 216.631579 
L 285.405352 216.981611 
L 289.053156 217.963369 
L 292.70096 218.886267 
L 296.348764 219.404943 
L 299.996568 220.304289 
L 303.644372 221.044458 
L 307.292176 221.821647 
L 310.93998 222.264774 
L 314.587783 223.174365 
L 318.235587 223.800007 
L 321.883391 224.333351 
L 325.531195 225.583396 
L 329.178999 226.156844 
L 332.826803 226.865945 
L 336.474607 227.488382 
L 340.122411 227.932464 
L 343.770215 228.872738 
L 347.418018 229.162326 
L 351.065822 229.604558 
L 354.713626 230.611459 
L 358.36143 231.635955 
L 362.009234 232.096503 
L 365.657038 232.604321 
L 369.304842 233.353673 
L 372.952646 233.689319 
L 376.600449 234.464628 
L 380.248253 235.460981 
L 383.896057 235.653897 
L 387.543861 236.317121 
L 391.191665 237.123133 
L 394.839469 237.458481 
L 398.487273 238.229165 
" clip-path="url(#pdf1aff3e2e)" style="fill: none; stroke: #dc143c; stroke-width: 2; stroke-linecap: square"/>
   </g>
   <g id="line2d_57">
    <path d="M 73.832727 220.688274 
L 77.480531 214.46129 
L 81.128335 207.487068 
L 84.776139 199.267449 
L 88.423943 197.772973 
L 92.071747 196.527576 
L 95.719551 196.029417 
L 99.367354 195.780338 
L 103.015158 195.282179 
L 106.662962 192.293227 
L 110.310766 191.795068 
L 113.95857 190.051512 
L 117.606374 188.058877 
L 121.254178 187.560719 
L 124.901982 186.066243 
L 128.549785 185.817163 
L 132.197589 184.322687 
L 135.845393 183.326369 
L 139.493197 182.080973 
L 143.141001 180.586496 
L 146.788805 178.842941 
L 150.436609 178.095703 
L 154.084413 177.846623 
L 157.732217 178.095703 
L 161.38002 178.095703 
L 165.027824 177.348465 
L 168.675628 176.601227 
L 172.323432 174.608592 
L 175.971236 174.110433 
L 179.61904 173.114115 
L 183.266844 173.114115 
L 186.914648 172.366877 
L 190.562451 172.117798 
L 194.210255 171.37056 
L 197.858059 171.868719 
L 201.505863 172.117798 
L 205.153667 172.117798 
L 208.801471 171.868719 
L 212.449275 172.615957 
L 216.097079 172.366877 
L 219.744883 172.366877 
L 223.392686 171.868719 
L 227.04049 171.619639 
L 230.688294 171.619639 
L 234.336098 171.121481 
L 237.983902 170.872401 
L 241.631706 170.374242 
L 245.27951 169.876084 
L 248.927314 169.627004 
L 252.575117 168.630687 
L 256.222921 168.381607 
L 259.870725 167.38529 
L 263.518529 166.638052 
L 267.166333 166.388973 
L 270.814137 166.388973 
L 274.461941 166.388973 
L 278.109745 166.638052 
L 281.757549 166.388973 
L 285.405352 166.139893 
L 289.053156 166.139893 
L 292.70096 165.890814 
L 296.348764 165.890814 
L 299.996568 164.894496 
L 303.644372 164.894496 
L 307.292176 164.645417 
L 310.93998 163.898179 
L 314.587783 163.6491 
L 318.235587 163.898179 
L 321.883391 163.898179 
L 325.531195 163.40002 
L 329.178999 163.150941 
L 332.826803 162.901861 
L 336.474607 162.901861 
L 340.122411 162.901861 
L 343.770215 162.901861 
L 347.418018 162.652782 
L 351.065822 162.901861 
L 354.713626 162.652782 
L 358.36143 162.652782 
L 362.009234 162.403703 
L 365.657038 162.403703 
L 369.304842 162.403703 
L 372.952646 162.403703 
L 376.600449 162.403703 
L 380.248253 162.154623 
L 383.896057 161.905544 
L 387.543861 162.154623 
L 391.191665 162.154623 
L 394.839469 162.154623 
L 398.487273 162.154623 
" clip-path="url(#pdf1aff3e2e)" style="fill: none; stroke: #ffff00; stroke-width: 3; stroke-linecap: square"/>
   </g>
   <g id="patch_3">
    <path d="M 57.6 307.584 
L 57.6 41.472 
" style="fill: none; stroke: #ffffff; stroke-linejoin: miter; stroke-linecap: square"/>
   </g>
   <g id="patch_4">
    <path d="M 414.72 307.584 
L 414.72 41.472 
" style="fill: none; stroke: #ffffff; stroke-linejoin: miter; stroke-linecap: square"/>
   </g>
   <g id="patch_5">
    <path d="M 57.6 307.584 
L 414.72 307.584 
" style="fill: none; stroke: #ffffff; stroke-linejoin: miter; stroke-linecap: square"/>
   </g>
   <g id="patch_6">
    <path d="M 57.6 41.472 
L 414.72 41.472 
" style="fill: none; stroke: #ffffff; stroke-linejoin: miter; stroke-linecap: square"/>
   </g>
  </g>
 </g>
 <defs>
  <clipPath id="pdf1aff3e2e">
   <rect x="57.6" y="41.472" width="357.12" height="266.112"/>
  </clipPath>
 </defs>
</svg>
