<?xml version="1.0" encoding="utf-8" standalone="no"?>
<!DOCTYPE svg PUBLIC "-//W3C//DTD SVG 1.1//EN"
  "http://www.w3.org/Graphics/SVG/1.1/DTD/svg11.dtd">
<svg xmlns:xlink="http://www.w3.org/1999/xlink" width="460.8pt" height="345.6pt" viewBox="0 0 460.8 345.6" xmlns="http://www.w3.org/2000/svg" version="1.1">
 <metadata>
  <rdf:RDF xmlns:dc="http://purl.org/dc/elements/1.1/" xmlns:cc="http://creativecommons.org/ns#" xmlns:rdf="http://www.w3.org/1999/02/22-rdf-syntax-ns#">
   <cc:Work>
    <dc:type rdf:resource="http://purl.org/dc/dcmitype/StillImage"/>
    <dc:date>2023-07-12T19:11:57.651694</dc:date>
    <dc:format>image/svg+xml</dc:format>
    <dc:creator>
     <cc:Agent>
      <dc:title>Matplotlib v3.7.1, https://matplotlib.org/</dc:title>
     </cc:Agent>
    </dc:creator>
   </cc:Work>
  </rdf:RDF>
 </metadata>
 <defs>
  <style type="text/css">*{stroke-linejoin: round; stroke-linecap: butt}</style>
 </defs>
 <g id="figure_1">
  <g id="patch_1">
   <path d="M 0 345.6 
L 460.8 345.6 
L 460.8 0 
L 0 0 
z
" style="fill: #ffffff"/>
  </g>
  <g id="axes_1">
   <g id="patch_2">
    <path d="M 57.6 307.584 
L 414.72 307.584 
L 414.72 41.472 
L 57.6 41.472 
z
" style="fill: #e5e5e5"/>
   </g>
   <g id="matplotlib.axis_1">
    <g id="xtick_1">
     <g id="line2d_1">
      <path d="M 70.184923 307.584 
L 70.184923 41.472 
" clip-path="url(#p55267c0f02)" style="fill: none; stroke: #ffffff; stroke-width: 0.8; stroke-linecap: square"/>
     </g>
     <g id="line2d_2">
      <defs>
       <path id="m7b82ab68f1" d="M 0 0 
L 0 3.5 
" style="stroke: #555555; stroke-width: 0.8"/>
      </defs>
      <g>
       <use xlink:href="#m7b82ab68f1" x="70.184923" y="307.584" style="fill: #555555; stroke: #555555; stroke-width: 0.8"/>
      </g>
     </g>
     <g id="text_1">
      <!-- 0 -->
      <g style="fill: #555555" transform="translate(67.003673 322.182437) scale(0.1 -0.1)">
       <defs>
        <path id="DejaVuSans-30" d="M 2034 4250 
Q 1547 4250 1301 3770 
Q 1056 3291 1056 2328 
Q 1056 1369 1301 889 
Q 1547 409 2034 409 
Q 2525 409 2770 889 
Q 3016 1369 3016 2328 
Q 3016 3291 2770 3770 
Q 2525 4250 2034 4250 
z
M 2034 4750 
Q 2819 4750 3233 4129 
Q 3647 3509 3647 2328 
Q 3647 1150 3233 529 
Q 2819 -91 2034 -91 
Q 1250 -91 836 529 
Q 422 1150 422 2328 
Q 422 3509 836 4129 
Q 1250 4750 2034 4750 
z
" transform="scale(0.015625)"/>
       </defs>
       <use xlink:href="#DejaVuSans-30"/>
      </g>
     </g>
    </g>
    <g id="xtick_2">
     <g id="line2d_3">
      <path d="M 143.141001 307.584 
L 143.141001 41.472 
" clip-path="url(#p55267c0f02)" style="fill: none; stroke: #ffffff; stroke-width: 0.8; stroke-linecap: square"/>
     </g>
     <g id="line2d_4">
      <g>
       <use xlink:href="#m7b82ab68f1" x="143.141001" y="307.584" style="fill: #555555; stroke: #555555; stroke-width: 0.8"/>
      </g>
     </g>
     <g id="text_2">
      <!-- 20 -->
      <g style="fill: #555555" transform="translate(136.778501 322.182437) scale(0.1 -0.1)">
       <defs>
        <path id="DejaVuSans-32" d="M 1228 531 
L 3431 531 
L 3431 0 
L 469 0 
L 469 531 
Q 828 903 1448 1529 
Q 2069 2156 2228 2338 
Q 2531 2678 2651 2914 
Q 2772 3150 2772 3378 
Q 2772 3750 2511 3984 
Q 2250 4219 1831 4219 
Q 1534 4219 1204 4116 
Q 875 4013 500 3803 
L 500 4441 
Q 881 4594 1212 4672 
Q 1544 4750 1819 4750 
Q 2544 4750 2975 4387 
Q 3406 4025 3406 3419 
Q 3406 3131 3298 2873 
Q 3191 2616 2906 2266 
Q 2828 2175 2409 1742 
Q 1991 1309 1228 531 
z
" transform="scale(0.015625)"/>
       </defs>
       <use xlink:href="#DejaVuSans-32"/>
       <use xlink:href="#DejaVuSans-30" x="63.623047"/>
      </g>
     </g>
    </g>
    <g id="xtick_3">
     <g id="line2d_5">
      <path d="M 216.097079 307.584 
L 216.097079 41.472 
" clip-path="url(#p55267c0f02)" style="fill: none; stroke: #ffffff; stroke-width: 0.8; stroke-linecap: square"/>
     </g>
     <g id="line2d_6">
      <g>
       <use xlink:href="#m7b82ab68f1" x="216.097079" y="307.584" style="fill: #555555; stroke: #555555; stroke-width: 0.8"/>
      </g>
     </g>
     <g id="text_3">
      <!-- 40 -->
      <g style="fill: #555555" transform="translate(209.734579 322.182437) scale(0.1 -0.1)">
       <defs>
        <path id="DejaVuSans-34" d="M 2419 4116 
L 825 1625 
L 2419 1625 
L 2419 4116 
z
M 2253 4666 
L 3047 4666 
L 3047 1625 
L 3713 1625 
L 3713 1100 
L 3047 1100 
L 3047 0 
L 2419 0 
L 2419 1100 
L 313 1100 
L 313 1709 
L 2253 4666 
z
" transform="scale(0.015625)"/>
       </defs>
       <use xlink:href="#DejaVuSans-34"/>
       <use xlink:href="#DejaVuSans-30" x="63.623047"/>
      </g>
     </g>
    </g>
    <g id="xtick_4">
     <g id="line2d_7">
      <path d="M 289.053156 307.584 
L 289.053156 41.472 
" clip-path="url(#p55267c0f02)" style="fill: none; stroke: #ffffff; stroke-width: 0.8; stroke-linecap: square"/>
     </g>
     <g id="line2d_8">
      <g>
       <use xlink:href="#m7b82ab68f1" x="289.053156" y="307.584" style="fill: #555555; stroke: #555555; stroke-width: 0.8"/>
      </g>
     </g>
     <g id="text_4">
      <!-- 60 -->
      <g style="fill: #555555" transform="translate(282.690656 322.182437) scale(0.1 -0.1)">
       <defs>
        <path id="DejaVuSans-36" d="M 2113 2584 
Q 1688 2584 1439 2293 
Q 1191 2003 1191 1497 
Q 1191 994 1439 701 
Q 1688 409 2113 409 
Q 2538 409 2786 701 
Q 3034 994 3034 1497 
Q 3034 2003 2786 2293 
Q 2538 2584 2113 2584 
z
M 3366 4563 
L 3366 3988 
Q 3128 4100 2886 4159 
Q 2644 4219 2406 4219 
Q 1781 4219 1451 3797 
Q 1122 3375 1075 2522 
Q 1259 2794 1537 2939 
Q 1816 3084 2150 3084 
Q 2853 3084 3261 2657 
Q 3669 2231 3669 1497 
Q 3669 778 3244 343 
Q 2819 -91 2113 -91 
Q 1303 -91 875 529 
Q 447 1150 447 2328 
Q 447 3434 972 4092 
Q 1497 4750 2381 4750 
Q 2619 4750 2861 4703 
Q 3103 4656 3366 4563 
z
" transform="scale(0.015625)"/>
       </defs>
       <use xlink:href="#DejaVuSans-36"/>
       <use xlink:href="#DejaVuSans-30" x="63.623047"/>
      </g>
     </g>
    </g>
    <g id="xtick_5">
     <g id="line2d_9">
      <path d="M 362.009234 307.584 
L 362.009234 41.472 
" clip-path="url(#p55267c0f02)" style="fill: none; stroke: #ffffff; stroke-width: 0.8; stroke-linecap: square"/>
     </g>
     <g id="line2d_10">
      <g>
       <use xlink:href="#m7b82ab68f1" x="362.009234" y="307.584" style="fill: #555555; stroke: #555555; stroke-width: 0.8"/>
      </g>
     </g>
     <g id="text_5">
      <!-- 80 -->
      <g style="fill: #555555" transform="translate(355.646734 322.182437) scale(0.1 -0.1)">
       <defs>
        <path id="DejaVuSans-38" d="M 2034 2216 
Q 1584 2216 1326 1975 
Q 1069 1734 1069 1313 
Q 1069 891 1326 650 
Q 1584 409 2034 409 
Q 2484 409 2743 651 
Q 3003 894 3003 1313 
Q 3003 1734 2745 1975 
Q 2488 2216 2034 2216 
z
M 1403 2484 
Q 997 2584 770 2862 
Q 544 3141 544 3541 
Q 544 4100 942 4425 
Q 1341 4750 2034 4750 
Q 2731 4750 3128 4425 
Q 3525 4100 3525 3541 
Q 3525 3141 3298 2862 
Q 3072 2584 2669 2484 
Q 3125 2378 3379 2068 
Q 3634 1759 3634 1313 
Q 3634 634 3220 271 
Q 2806 -91 2034 -91 
Q 1263 -91 848 271 
Q 434 634 434 1313 
Q 434 1759 690 2068 
Q 947 2378 1403 2484 
z
M 1172 3481 
Q 1172 3119 1398 2916 
Q 1625 2713 2034 2713 
Q 2441 2713 2670 2916 
Q 2900 3119 2900 3481 
Q 2900 3844 2670 4047 
Q 2441 4250 2034 4250 
Q 1625 4250 1398 4047 
Q 1172 3844 1172 3481 
z
" transform="scale(0.015625)"/>
       </defs>
       <use xlink:href="#DejaVuSans-38"/>
       <use xlink:href="#DejaVuSans-30" x="63.623047"/>
      </g>
     </g>
    </g>
   </g>
   <g id="matplotlib.axis_2">
    <g id="ytick_1">
     <g id="line2d_11">
      <path d="M 57.6 283.365795 
L 414.72 283.365795 
" clip-path="url(#p55267c0f02)" style="fill: none; stroke: #ffffff; stroke-width: 0.8; stroke-linecap: square"/>
     </g>
     <g id="line2d_12">
      <defs>
       <path id="mbd3e979958" d="M 0 0 
L -3.5 0 
" style="stroke: #555555; stroke-width: 0.8"/>
      </defs>
      <g>
       <use xlink:href="#mbd3e979958" x="57.6" y="283.365795" style="fill: #555555; stroke: #555555; stroke-width: 0.8"/>
      </g>
     </g>
     <g id="text_6">
      <!-- 0.2 -->
      <g style="fill: #555555" transform="translate(34.696875 287.165013) scale(0.1 -0.1)">
       <defs>
        <path id="DejaVuSans-2e" d="M 684 794 
L 1344 794 
L 1344 0 
L 684 0 
L 684 794 
z
" transform="scale(0.015625)"/>
       </defs>
       <use xlink:href="#DejaVuSans-30"/>
       <use xlink:href="#DejaVuSans-2e" x="63.623047"/>
       <use xlink:href="#DejaVuSans-32" x="95.410156"/>
      </g>
     </g>
    </g>
    <g id="ytick_2">
     <g id="line2d_13">
      <path d="M 57.6 242.877789 
L 414.72 242.877789 
" clip-path="url(#p55267c0f02)" style="fill: none; stroke: #ffffff; stroke-width: 0.8; stroke-linecap: square"/>
     </g>
     <g id="line2d_14">
      <g>
       <use xlink:href="#mbd3e979958" x="57.6" y="242.877789" style="fill: #555555; stroke: #555555; stroke-width: 0.8"/>
      </g>
     </g>
     <g id="text_7">
      <!-- 0.4 -->
      <g style="fill: #555555" transform="translate(34.696875 246.677008) scale(0.1 -0.1)">
       <use xlink:href="#DejaVuSans-30"/>
       <use xlink:href="#DejaVuSans-2e" x="63.623047"/>
       <use xlink:href="#DejaVuSans-34" x="95.410156"/>
      </g>
     </g>
    </g>
    <g id="ytick_3">
     <g id="line2d_15">
      <path d="M 57.6 202.389784 
L 414.72 202.389784 
" clip-path="url(#p55267c0f02)" style="fill: none; stroke: #ffffff; stroke-width: 0.8; stroke-linecap: square"/>
     </g>
     <g id="line2d_16">
      <g>
       <use xlink:href="#mbd3e979958" x="57.6" y="202.389784" style="fill: #555555; stroke: #555555; stroke-width: 0.8"/>
      </g>
     </g>
     <g id="text_8">
      <!-- 0.6 -->
      <g style="fill: #555555" transform="translate(34.696875 206.189002) scale(0.1 -0.1)">
       <use xlink:href="#DejaVuSans-30"/>
       <use xlink:href="#DejaVuSans-2e" x="63.623047"/>
       <use xlink:href="#DejaVuSans-36" x="95.410156"/>
      </g>
     </g>
    </g>
    <g id="ytick_4">
     <g id="line2d_17">
      <path d="M 57.6 161.901778 
L 414.72 161.901778 
" clip-path="url(#p55267c0f02)" style="fill: none; stroke: #ffffff; stroke-width: 0.8; stroke-linecap: square"/>
     </g>
     <g id="line2d_18">
      <g>
       <use xlink:href="#mbd3e979958" x="57.6" y="161.901778" style="fill: #555555; stroke: #555555; stroke-width: 0.8"/>
      </g>
     </g>
     <g id="text_9">
      <!-- 0.8 -->
      <g style="fill: #555555" transform="translate(34.696875 165.700997) scale(0.1 -0.1)">
       <use xlink:href="#DejaVuSans-30"/>
       <use xlink:href="#DejaVuSans-2e" x="63.623047"/>
       <use xlink:href="#DejaVuSans-38" x="95.410156"/>
      </g>
     </g>
    </g>
    <g id="ytick_5">
     <g id="line2d_19">
      <path d="M 57.6 121.413773 
L 414.72 121.413773 
" clip-path="url(#p55267c0f02)" style="fill: none; stroke: #ffffff; stroke-width: 0.8; stroke-linecap: square"/>
     </g>
     <g id="line2d_20">
      <g>
       <use xlink:href="#mbd3e979958" x="57.6" y="121.413773" style="fill: #555555; stroke: #555555; stroke-width: 0.8"/>
      </g>
     </g>
     <g id="text_10">
      <!-- 1.0 -->
      <g style="fill: #555555" transform="translate(34.696875 125.212992) scale(0.1 -0.1)">
       <defs>
        <path id="DejaVuSans-31" d="M 794 531 
L 1825 531 
L 1825 4091 
L 703 3866 
L 703 4441 
L 1819 4666 
L 2450 4666 
L 2450 531 
L 3481 531 
L 3481 0 
L 794 0 
L 794 531 
z
" transform="scale(0.015625)"/>
       </defs>
       <use xlink:href="#DejaVuSans-31"/>
       <use xlink:href="#DejaVuSans-2e" x="63.623047"/>
       <use xlink:href="#DejaVuSans-30" x="95.410156"/>
      </g>
     </g>
    </g>
    <g id="ytick_6">
     <g id="line2d_21">
      <path d="M 57.6 80.925767 
L 414.72 80.925767 
" clip-path="url(#p55267c0f02)" style="fill: none; stroke: #ffffff; stroke-width: 0.8; stroke-linecap: square"/>
     </g>
     <g id="line2d_22">
      <g>
       <use xlink:href="#mbd3e979958" x="57.6" y="80.925767" style="fill: #555555; stroke: #555555; stroke-width: 0.8"/>
      </g>
     </g>
     <g id="text_11">
      <!-- 1.2 -->
      <g style="fill: #555555" transform="translate(34.696875 84.724986) scale(0.1 -0.1)">
       <use xlink:href="#DejaVuSans-31"/>
       <use xlink:href="#DejaVuSans-2e" x="63.623047"/>
       <use xlink:href="#DejaVuSans-32" x="95.410156"/>
      </g>
     </g>
    </g>
   </g>
   <g id="line2d_23">
    <path d="M 73.832727 188.175938 
L 77.480531 188.797742 
L 81.128335 189.344372 
L 84.776139 189.922942 
L 88.423943 190.384734 
L 92.071747 190.921832 
L 95.719551 192.010532 
L 99.367354 192.231154 
L 103.015158 192.707087 
L 106.662962 193.831576 
L 110.310766 194.018484 
L 113.95857 194.971872 
L 117.606374 195.028053 
L 121.254178 196.460258 
L 124.901982 196.631528 
L 128.549785 197.450714 
L 132.197589 197.828379 
L 135.845393 198.159697 
L 139.493197 198.938316 
L 143.141001 199.49992 
L 146.788805 200.647878 
L 150.436609 201.030829 
L 154.084413 201.172053 
L 157.732217 202.193338 
L 161.38002 202.435884 
L 165.027824 203.346605 
L 168.675628 203.309393 
L 172.323432 204.244802 
L 175.971236 204.703758 
L 179.61904 206.099366 
L 183.266844 205.612524 
L 186.914648 207.320542 
L 190.562451 207.252597 
L 194.210255 208.323185 
L 197.858059 209.992868 
L 201.505863 209.734479 
L 205.153667 210.594087 
L 208.801471 211.418449 
L 212.449275 211.234389 
L 216.097079 213.456639 
L 219.744883 213.208133 
L 223.392686 214.004452 
L 227.04049 215.37822 
L 230.688294 215.439988 
L 234.336098 216.776374 
L 237.983902 216.166142 
L 241.631706 217.499705 
L 245.27951 218.667693 
L 248.927314 218.971717 
L 252.575117 220.293937 
L 256.222921 220.62458 
L 259.870725 221.348139 
L 263.518529 223.115886 
L 267.166333 222.747602 
L 270.814137 223.416278 
L 274.461941 224.560381 
L 278.109745 225.275584 
L 281.757549 225.888097 
L 285.405352 227.122016 
L 289.053156 226.858927 
L 292.70096 227.933208 
L 296.348764 228.515168 
L 299.996568 229.509111 
L 303.644372 230.939808 
L 307.292176 231.229208 
L 310.93998 231.702921 
L 314.587783 232.715814 
L 318.235587 233.54417 
L 321.883391 234.383103 
L 325.531195 235.207477 
L 329.178999 235.605063 
L 332.826803 236.751139 
L 336.474607 236.93611 
L 340.122411 238.298831 
L 343.770215 238.734801 
L 347.418018 239.727489 
L 351.065822 239.393999 
L 354.713626 241.052436 
L 358.36143 241.884979 
L 362.009234 241.983718 
L 365.657038 242.984678 
L 369.304842 243.142041 
L 372.952646 244.104358 
L 376.600449 245.435604 
L 380.248253 246.599791 
L 383.896057 246.316527 
L 387.543861 247.255598 
L 391.191665 248.003484 
L 394.839469 248.537885 
L 398.487273 248.646953 
" clip-path="url(#p55267c0f02)" style="fill: none; stroke: #ff00ff; stroke-opacity: 0.3; stroke-width: 0.5; stroke-linecap: square"/>
   </g>
   <g id="line2d_24">
    <path d="M 73.832727 188.685826 
L 77.480531 189.123992 
L 81.128335 189.058049 
L 84.776139 189.553144 
L 88.423943 190.249084 
L 92.071747 190.598635 
L 95.719551 190.35312 
L 99.367354 190.245959 
L 103.015158 190.966164 
L 106.662962 191.166116 
L 110.310766 191.902623 
L 113.95857 192.73747 
L 117.606374 193.002858 
L 121.254178 193.730363 
L 124.901982 193.358611 
L 128.549785 193.882979 
L 132.197589 194.299824 
L 135.845393 194.677139 
L 139.493197 194.477163 
L 143.141001 194.54132 
L 146.788805 195.77881 
L 150.436609 195.953953 
L 154.084413 196.766442 
L 157.732217 196.285368 
L 161.38002 196.960071 
L 165.027824 197.299824 
L 168.675628 196.48252 
L 172.323432 197.621006 
L 175.971236 197.418147 
L 179.61904 198.250135 
L 183.266844 198.494563 
L 186.914648 198.811848 
L 190.562451 199.540113 
L 194.210255 199.637682 
L 197.858059 199.653417 
L 201.505863 200.268005 
L 205.153667 200.54196 
L 208.801471 201.361097 
L 212.449275 201.706835 
L 216.097079 201.925743 
L 219.744883 202.78564 
L 223.392686 202.361869 
L 227.04049 203.68199 
L 230.688294 203.888168 
L 234.336098 203.574648 
L 237.983902 203.619619 
L 241.631706 204.715438 
L 245.27951 204.830998 
L 248.927314 205.431505 
L 252.575117 205.900078 
L 256.222921 205.270117 
L 259.870725 206.507076 
L 263.518529 206.362461 
L 267.166333 206.76012 
L 270.814137 207.897858 
L 274.461941 208.370003 
L 278.109745 207.92374 
L 281.757549 207.801797 
L 285.405352 209.178027 
L 289.053156 209.434365 
L 292.70096 209.189936 
L 296.348764 210.104386 
L 299.996568 210.190998 
L 303.644372 210.59416 
L 307.292176 211.269418 
L 310.93998 210.944301 
L 314.587783 211.848953 
L 318.235587 211.666341 
L 321.883391 212.420332 
L 325.531195 213.352193 
L 329.178999 212.603053 
L 332.826803 213.244066 
L 336.474607 213.607747 
L 340.122411 213.83901 
L 343.770215 214.502057 
L 347.418018 214.060296 
L 351.065822 216.010329 
L 354.713626 215.663143 
L 358.36143 215.340284 
L 362.009234 216.192821 
L 365.657038 216.009424 
L 369.304842 216.695638 
L 372.952646 216.585726 
L 376.600449 217.895638 
L 380.248253 217.78178 
L 383.896057 218.004368 
L 387.543861 218.253068 
L 391.191665 218.759144 
L 394.839469 219.825497 
L 398.487273 218.622046 
" clip-path="url(#p55267c0f02)" style="fill: none; stroke: #ff00ff; stroke-opacity: 0.3; stroke-width: 0.5; stroke-linecap: square"/>
   </g>
   <g id="line2d_25">
    <path d="M 73.832727 186.296505 
L 77.480531 185.899895 
L 81.128335 187.628861 
L 84.776139 187.671371 
L 88.423943 188.039914 
L 92.071747 188.929193 
L 95.719551 189.348535 
L 99.367354 190.668982 
L 103.015158 191.069935 
L 106.662962 192.344795 
L 110.310766 191.853983 
L 113.95857 192.778979 
L 117.606374 194.022092 
L 121.254178 194.973078 
L 124.901982 195.344602 
L 128.549785 196.141223 
L 132.197589 196.833157 
L 135.845393 197.404379 
L 139.493197 197.935987 
L 143.141001 199.40281 
L 146.788805 199.7464 
L 150.436609 201.21723 
L 154.084413 200.492451 
L 157.732217 202.120204 
L 161.38002 201.896204 
L 165.027824 203.96929 
L 168.675628 204.022672 
L 172.323432 204.770026 
L 175.971236 205.536253 
L 179.61904 206.687444 
L 183.266844 206.676355 
L 186.914648 207.651209 
L 190.562451 208.720555 
L 194.210255 208.595583 
L 197.858059 209.324392 
L 201.505863 211.242775 
L 205.153667 211.074063 
L 208.801471 212.279372 
L 212.449275 212.210208 
L 216.097079 212.984712 
L 219.744883 213.761822 
L 223.392686 215.169026 
L 227.04049 215.735771 
L 230.688294 216.695336 
L 234.336098 216.871916 
L 237.983902 218.173249 
L 241.631706 217.638878 
L 245.27951 218.608845 
L 248.927314 219.08251 
L 252.575117 220.407868 
L 256.222921 220.828429 
L 259.870725 221.776037 
L 263.518529 222.525792 
L 267.166333 222.349346 
L 270.814137 223.877491 
L 274.461941 224.226685 
L 278.109745 225.362251 
L 281.757549 226.044212 
L 285.405352 226.163699 
L 289.053156 227.497105 
L 292.70096 228.193371 
L 296.348764 228.370119 
L 299.996568 229.418119 
L 303.644372 230.743627 
L 307.292176 230.162058 
L 310.93998 230.823784 
L 314.587783 231.460315 
L 318.235587 232.262752 
L 321.883391 234.084345 
L 325.531195 233.890921 
L 329.178999 234.945691 
L 332.826803 236.271211 
L 336.474607 235.858499 
L 340.122411 236.896533 
L 343.770215 237.406457 
L 347.418018 237.961021 
L 351.065822 238.517806 
L 354.713626 240.105064 
L 358.36143 239.468231 
L 362.009234 240.273715 
L 365.657038 240.630717 
L 369.304842 241.826307 
L 372.952646 242.426409 
L 376.600449 243.193758 
L 380.248253 243.331387 
L 383.896057 243.932545 
L 387.543861 244.533595 
L 391.191665 245.561227 
L 394.839469 246.533052 
L 398.487273 247.457155 
" clip-path="url(#p55267c0f02)" style="fill: none; stroke: #ff00ff; stroke-opacity: 0.3; stroke-width: 0.5; stroke-linecap: square"/>
   </g>
   <g id="line2d_26">
    <path d="M 73.832727 187.407165 
L 77.480531 188.306339 
L 81.128335 188.73233 
L 84.776139 189.859944 
L 88.423943 190.281772 
L 92.071747 190.060571 
L 95.719551 191.783998 
L 99.367354 192.316234 
L 103.015158 192.779244 
L 106.662962 192.937398 
L 110.310766 193.786351 
L 113.95857 194.812198 
L 117.606374 195.736879 
L 121.254178 196.202098 
L 124.901982 197.685525 
L 128.549785 197.310792 
L 132.197589 197.962424 
L 135.845393 198.493537 
L 139.493197 199.765296 
L 143.141001 200.451619 
L 146.788805 201.150672 
L 150.436609 201.871951 
L 154.084413 202.334539 
L 157.732217 203.206949 
L 161.38002 203.073978 
L 165.027824 203.860198 
L 168.675628 204.791903 
L 172.323432 205.796174 
L 175.971236 205.847939 
L 179.61904 206.93361 
L 183.266844 207.893755 
L 186.914648 208.311939 
L 190.562451 208.215613 
L 194.210255 210.578522 
L 197.858059 210.179209 
L 201.505863 210.428971 
L 205.153667 211.52181 
L 208.801471 212.263529 
L 212.449275 212.045478 
L 216.097079 213.529146 
L 219.744883 214.469261 
L 223.392686 215.509092 
L 227.04049 215.218522 
L 230.688294 217.040531 
L 234.336098 217.526432 
L 237.983902 217.802534 
L 241.631706 218.198311 
L 245.27951 218.772344 
L 248.927314 219.504604 
L 252.575117 220.063107 
L 256.222921 221.150408 
L 259.870725 221.906752 
L 263.518529 222.616254 
L 267.166333 222.592712 
L 270.814137 222.43801 
L 274.461941 223.692682 
L 278.109745 225.053956 
L 281.757549 225.476477 
L 285.405352 226.600116 
L 289.053156 226.981576 
L 292.70096 227.701208 
L 296.348764 227.376122 
L 299.996568 228.202662 
L 303.644372 229.455253 
L 307.292176 228.879844 
L 310.93998 230.121425 
L 314.587783 231.056647 
L 318.235587 231.469944 
L 321.883391 232.879549 
L 325.531195 232.422795 
L 329.178999 233.158529 
L 332.826803 234.786867 
L 336.474607 234.668713 
L 340.122411 235.12297 
L 343.770215 235.515042 
L 347.418018 236.614566 
L 351.065822 236.845962 
L 354.713626 237.696647 
L 358.36143 238.947441 
L 362.009234 238.313112 
L 365.657038 239.625323 
L 369.304842 240.068696 
L 372.952646 241.759664 
L 376.600449 240.871254 
L 380.248253 242.283001 
L 383.896057 241.55999 
L 387.543861 242.243308 
L 391.191665 243.434307 
L 394.839469 244.242295 
L 398.487273 244.354735 
" clip-path="url(#p55267c0f02)" style="fill: none; stroke: #ff00ff; stroke-opacity: 0.3; stroke-width: 0.5; stroke-linecap: square"/>
   </g>
   <g id="line2d_27">
    <path d="M 73.832727 195.936879 
L 77.480531 198.63662 
L 81.128335 201.399951 
L 84.776139 204.213839 
L 88.423943 206.533538 
L 92.071747 210.159541 
L 95.719551 212.937363 
L 99.367354 214.852344 
L 103.015158 217.98073 
L 106.662962 219.090353 
L 110.310766 221.891041 
L 113.95857 223.61836 
L 117.606374 224.897756 
L 121.254178 227.097805 
L 124.901982 228.524942 
L 128.549785 230.298523 
L 132.197589 231.625558 
L 135.845393 233.626855 
L 139.493197 234.747808 
L 143.141001 235.953069 
L 146.788805 236.939036 
L 150.436609 237.464177 
L 154.084413 239.040376 
L 157.732217 240.897516 
L 161.38002 241.783103 
L 165.027824 243.143411 
L 168.675628 243.596744 
L 172.323432 245.497505 
L 175.971236 245.737167 
L 179.61904 246.920159 
L 183.266844 247.490398 
L 186.914648 248.679852 
L 190.562451 249.509457 
L 194.210255 250.581348 
L 197.858059 252.091574 
L 201.505863 253.25625 
L 205.153667 253.817167 
L 208.801471 255.535762 
L 212.449275 255.893324 
L 216.097079 257.255358 
L 219.744883 258.146296 
L 223.392686 259.06921 
L 227.04049 259.721958 
L 230.688294 261.283068 
L 234.336098 261.699919 
L 237.983902 262.596408 
L 241.631706 263.697518 
L 245.27951 264.655419 
L 248.927314 265.284414 
L 252.575117 265.915883 
L 256.222921 267.193892 
L 259.870725 268.301856 
L 263.518529 268.958363 
L 267.166333 270.218242 
L 270.814137 270.772837 
L 274.461941 270.888951 
L 278.109745 272.211323 
L 281.757549 273.178647 
L 285.405352 273.651787 
L 289.053156 274.297519 
L 292.70096 274.777268 
L 296.348764 275.659974 
L 299.996568 276.247971 
L 303.644372 277.172216 
L 307.292176 277.662554 
L 310.93998 278.560623 
L 314.587783 279.074515 
L 318.235587 279.797305 
L 321.883391 280.939254 
L 325.531195 281.545773 
L 329.178999 282.093489 
L 332.826803 282.582005 
L 336.474607 282.220292 
L 340.122411 283.641468 
L 343.770215 284.75371 
L 347.418018 285.306087 
L 351.065822 285.291634 
L 354.713626 286.253124 
L 358.36143 285.87555 
L 362.009234 286.577845 
L 365.657038 287.68031 
L 369.304842 288.318944 
L 372.952646 288.450702 
L 376.600449 289.248111 
L 380.248253 289.766401 
L 383.896057 289.95908 
L 387.543861 290.219897 
L 391.191665 290.445927 
L 394.839469 291.467493 
L 398.487273 291.856392 
" clip-path="url(#p55267c0f02)" style="fill: none; stroke: #ff00ff; stroke-opacity: 0.3; stroke-width: 0.5; stroke-linecap: square"/>
   </g>
   <g id="line2d_28">
    <path d="M 73.832727 173.582356 
L 77.480531 176.16778 
L 81.128335 179.18594 
L 84.776139 181.96194 
L 88.423943 183.890314 
L 92.071747 186.545748 
L 95.719551 188.915147 
L 99.367354 190.66109 
L 103.015158 192.327673 
L 106.662962 193.617676 
L 110.310766 195.388837 
L 113.95857 196.290822 
L 117.606374 197.276608 
L 121.254178 199.327564 
L 124.901982 199.535902 
L 128.549785 200.215384 
L 132.197589 201.334322 
L 135.845393 203.218762 
L 139.493197 203.212693 
L 143.141001 203.891595 
L 146.788805 204.224868 
L 150.436609 205.205586 
L 154.084413 206.532404 
L 157.732217 206.572717 
L 161.38002 207.386328 
L 165.027824 207.415927 
L 168.675628 208.780874 
L 172.323432 208.727203 
L 175.971236 209.825954 
L 179.61904 210.698316 
L 183.266844 210.363764 
L 186.914648 211.786522 
L 190.562451 211.784953 
L 194.210255 212.425979 
L 197.858059 213.342648 
L 201.505863 214.266534 
L 205.153667 214.28502 
L 208.801471 215.020018 
L 212.449275 215.330232 
L 216.097079 216.060875 
L 219.744883 216.903976 
L 223.392686 217.031276 
L 227.04049 218.535783 
L 230.688294 217.981756 
L 234.336098 218.656797 
L 237.983902 218.987994 
L 241.631706 220.305822 
L 245.27951 219.965104 
L 248.927314 220.387898 
L 252.575117 221.417521 
L 256.222921 221.385943 
L 259.870725 222.514848 
L 263.518529 223.09778 
L 267.166333 223.255373 
L 270.814137 223.489859 
L 274.461941 223.77325 
L 278.109745 225.023928 
L 281.757549 225.06963 
L 285.405352 225.182722 
L 289.053156 225.327023 
L 292.70096 225.802921 
L 296.348764 226.512972 
L 299.996568 227.061751 
L 303.644372 227.699283 
L 307.292176 228.106469 
L 310.93998 228.172809 
L 314.587783 228.716019 
L 318.235587 229.158143 
L 321.883391 229.63935 
L 325.531195 229.61135 
L 329.178999 230.29722 
L 332.826803 230.628556 
L 336.474607 231.101902 
L 340.122411 231.15763 
L 343.770215 231.601739 
L 347.418018 232.54712 
L 351.065822 232.396225 
L 354.713626 233.033636 
L 358.36143 233.127573 
L 362.009234 233.704001 
L 365.657038 233.863911 
L 369.304842 234.653389 
L 372.952646 234.756719 
L 376.600449 235.371881 
L 380.248253 235.399097 
L 383.896057 235.751796 
L 387.543861 235.951054 
L 391.191665 236.224876 
L 394.839469 236.885613 
L 398.487273 236.887067 
" clip-path="url(#p55267c0f02)" style="fill: none; stroke: #ff00ff; stroke-opacity: 0.3; stroke-width: 0.5; stroke-linecap: square"/>
   </g>
   <g id="line2d_29">
    <path d="M 73.832727 183.233084 
L 77.480531 183.951853 
L 81.128335 183.989862 
L 84.776139 183.896673 
L 88.423943 182.968625 
L 92.071747 184.465361 
L 95.719551 184.420124 
L 99.367354 184.846321 
L 103.015158 184.261259 
L 106.662962 186.095081 
L 110.310766 185.886514 
L 113.95857 185.548921 
L 117.606374 185.033385 
L 121.254178 185.158767 
L 124.901982 185.436571 
L 128.549785 184.079286 
L 132.197589 185.902852 
L 135.845393 186.691244 
L 139.493197 186.9843 
L 143.141001 186.073253 
L 146.788805 187.171256 
L 150.436609 187.47084 
L 154.084413 187.675787 
L 157.732217 188.14144 
L 161.38002 187.430996 
L 165.027824 188.634713 
L 168.675628 187.695262 
L 172.323432 188.920843 
L 175.971236 188.654779 
L 179.61904 186.854441 
L 183.266844 188.786279 
L 186.914648 189.721434 
L 190.562451 189.197754 
L 194.210255 189.666785 
L 197.858059 189.581066 
L 201.505863 189.772089 
L 205.153667 190.109609 
L 208.801471 189.899353 
L 212.449275 189.960795 
L 216.097079 190.0869 
L 219.744883 190.624855 
L 223.392686 190.763654 
L 227.04049 190.320095 
L 230.688294 191.054599 
L 234.336098 191.05385 
L 237.983902 191.421018 
L 241.631706 191.777772 
L 245.27951 191.086224 
L 248.927314 192.457676 
L 252.575117 191.884366 
L 256.222921 192.982249 
L 259.870725 192.502333 
L 263.518529 192.724004 
L 267.166333 192.756101 
L 270.814137 193.276125 
L 274.461941 192.771184 
L 278.109745 193.472747 
L 281.757549 192.779703 
L 285.405352 194.374454 
L 289.053156 194.525814 
L 292.70096 194.451075 
L 296.348764 194.157839 
L 299.996568 194.373983 
L 303.644372 195.224759 
L 307.292176 194.7356 
L 310.93998 195.389259 
L 314.587783 194.622864 
L 318.235587 195.026762 
L 321.883391 195.398551 
L 325.531195 196.057459 
L 329.178999 195.934454 
L 332.826803 196.333815 
L 336.474607 195.770726 
L 340.122411 196.4316 
L 343.770215 196.596234 
L 347.418018 196.509923 
L 351.065822 196.7871 
L 354.713626 195.977603 
L 358.36143 198.048047 
L 362.009234 197.118647 
L 365.657038 197.782128 
L 369.304842 197.124282 
L 372.952646 198.399601 
L 376.600449 198.065386 
L 380.248253 198.76964 
L 383.896057 197.782153 
L 387.543861 198.677887 
L 391.191665 198.94535 
L 394.839469 198.638997 
L 398.487273 198.338074 
" clip-path="url(#p55267c0f02)" style="fill: none; stroke: #ff00ff; stroke-opacity: 0.3; stroke-width: 0.5; stroke-linecap: square"/>
   </g>
   <g id="line2d_30">
    <path d="M 73.832727 187.007817 
L 77.480531 187.645174 
L 81.128335 187.354496 
L 84.776139 188.812052 
L 88.423943 190.628499 
L 92.071747 191.663154 
L 95.719551 191.639793 
L 99.367354 193.913591 
L 103.015158 193.333561 
L 106.662962 193.847431 
L 110.310766 195.301211 
L 113.95857 194.881567 
L 117.606374 196.109754 
L 121.254178 197.679202 
L 124.901982 197.788053 
L 128.549785 198.25361 
L 132.197589 199.224349 
L 135.845393 199.899739 
L 139.493197 199.076548 
L 143.141001 200.582599 
L 146.788805 201.213356 
L 150.436609 201.995643 
L 154.084413 203.041326 
L 157.732217 202.414093 
L 161.38002 203.910624 
L 165.027824 204.321592 
L 168.675628 203.546714 
L 172.323432 204.612403 
L 175.971236 204.678877 
L 179.61904 205.611293 
L 183.266844 206.947595 
L 186.914648 207.014527 
L 190.562451 207.836693 
L 194.210255 206.934793 
L 197.858059 208.740295 
L 201.505863 208.850039 
L 205.153667 208.696313 
L 208.801471 210.029755 
L 212.449275 210.098763 
L 216.097079 210.191107 
L 219.744883 211.276332 
L 223.392686 211.770968 
L 227.04049 211.898727 
L 230.688294 212.382081 
L 234.336098 212.88882 
L 237.983902 213.126914 
L 241.631706 213.704784 
L 245.27951 214.538244 
L 248.927314 215.603234 
L 252.575117 215.224881 
L 256.222921 215.233472 
L 259.870725 216.471155 
L 263.518529 217.015168 
L 267.166333 217.952242 
L 270.814137 218.52362 
L 274.461941 218.420368 
L 278.109745 218.949997 
L 281.757549 219.626438 
L 285.405352 220.562558 
L 289.053156 219.917237 
L 292.70096 220.550058 
L 296.348764 221.250945 
L 299.996568 221.704833 
L 303.644372 222.486613 
L 307.292176 222.475572 
L 310.93998 223.491066 
L 314.587783 222.942034 
L 318.235587 223.674963 
L 321.883391 224.300182 
L 325.531195 226.168381 
L 329.178999 224.680363 
L 332.826803 225.610438 
L 336.474607 225.732109 
L 340.122411 227.091711 
L 343.770215 226.614022 
L 347.418018 227.604001 
L 351.065822 227.926903 
L 354.713626 227.562197 
L 358.36143 228.32966 
L 362.009234 229.15074 
L 365.657038 230.214463 
L 369.304842 230.877528 
L 372.952646 230.504062 
L 376.600449 231.2435 
L 380.248253 232.582843 
L 383.896057 232.366608 
L 387.543861 232.705576 
L 391.191665 232.618065 
L 394.839469 233.021896 
L 398.487273 233.896255 
" clip-path="url(#p55267c0f02)" style="fill: none; stroke: #ff00ff; stroke-opacity: 0.3; stroke-width: 0.5; stroke-linecap: square"/>
   </g>
   <g id="line2d_31">
    <path d="M 73.832727 161.21456 
L 77.480531 164.182741 
L 81.128335 166.380763 
L 84.776139 168.685028 
L 88.423943 170.763496 
L 92.071747 172.401553 
L 95.719551 172.124618 
L 99.367354 174.494947 
L 103.015158 177.411677 
L 106.662962 178.758344 
L 110.310766 180.096528 
L 113.95857 181.870682 
L 117.606374 182.291436 
L 121.254178 184.531521 
L 124.901982 186.774876 
L 128.549785 187.543165 
L 132.197589 189.811353 
L 135.845393 190.424553 
L 139.493197 191.950562 
L 143.141001 193.032493 
L 146.788805 194.807359 
L 150.436609 196.736542 
L 154.084413 196.542321 
L 157.732217 197.722484 
L 161.38002 199.921242 
L 165.027824 200.797815 
L 168.675628 201.194967 
L 172.323432 202.600976 
L 175.971236 204.27323 
L 179.61904 205.375589 
L 183.266844 206.159963 
L 186.914648 206.831843 
L 190.562451 207.824796 
L 194.210255 208.944301 
L 197.858059 210.169061 
L 201.505863 211.196295 
L 205.153667 212.599903 
L 208.801471 212.904965 
L 212.449275 213.271891 
L 216.097079 214.580513 
L 219.744883 215.264012 
L 223.392686 217.118709 
L 227.04049 217.556561 
L 230.688294 218.553171 
L 234.336098 219.59048 
L 237.983902 220.227994 
L 241.631706 220.562293 
L 245.27951 222.325406 
L 248.927314 223.185551 
L 252.575117 223.906251 
L 256.222921 224.839548 
L 259.870725 225.453968 
L 263.518529 226.995518 
L 267.166333 228.199422 
L 270.814137 228.301853 
L 274.461941 229.393105 
L 278.109745 229.8569 
L 281.757549 230.804243 
L 285.405352 232.104876 
L 289.053156 232.837751 
L 292.70096 233.017968 
L 296.348764 234.217667 
L 299.996568 235.31316 
L 303.644372 236.270005 
L 307.292176 237.153685 
L 310.93998 237.498711 
L 314.587783 239.328207 
L 318.235587 239.126403 
L 321.883391 239.849088 
L 325.531195 241.592913 
L 329.178999 241.840376 
L 332.826803 242.941341 
L 336.474607 243.343182 
L 340.122411 243.204002 
L 343.770215 245.516654 
L 347.418018 246.375339 
L 351.065822 246.691592 
L 354.713626 247.425752 
L 358.36143 247.865131 
L 362.009234 248.512352 
L 365.657038 249.627864 
L 369.304842 250.350585 
L 372.952646 250.968292 
L 376.600449 251.745626 
L 380.248253 253.095659 
L 383.896057 254.191026 
L 387.543861 253.916202 
L 391.191665 255.085113 
L 394.839469 255.701336 
L 398.487273 256.346211 
" clip-path="url(#p55267c0f02)" style="fill: none; stroke: #ff00ff; stroke-opacity: 0.3; stroke-width: 0.5; stroke-linecap: square"/>
   </g>
   <g id="line2d_32">
    <path d="M 73.832727 165.210156 
L 77.480531 168.9905 
L 81.128335 175.127297 
L 84.776139 178.065638 
L 88.423943 184.125645 
L 92.071747 188.401241 
L 95.719551 191.015359 
L 99.367354 194.570677 
L 103.015158 196.651594 
L 106.662962 200.768156 
L 110.310766 202.762437 
L 113.95857 204.59329 
L 117.606374 207.128627 
L 121.254178 208.236343 
L 124.901982 209.886986 
L 128.549785 211.307982 
L 132.197589 214.406673 
L 135.845393 215.084199 
L 139.493197 216.254082 
L 143.141001 218.002993 
L 146.788805 220.058341 
L 150.436609 221.591723 
L 154.084413 221.27743 
L 157.732217 222.569014 
L 161.38002 223.985491 
L 165.027824 225.779005 
L 168.675628 226.841636 
L 172.323432 228.811639 
L 175.971236 228.279446 
L 179.61904 229.5602 
L 183.266844 231.17033 
L 186.914648 232.194861 
L 190.562451 232.942397 
L 194.210255 234.696629 
L 197.858059 235.424219 
L 201.505863 236.341226 
L 205.153667 237.190753 
L 208.801471 238.055055 
L 212.449275 238.821263 
L 216.097079 239.939109 
L 219.744883 240.104189 
L 223.392686 242.249703 
L 227.04049 242.675912 
L 230.688294 243.745154 
L 234.336098 245.492189 
L 237.983902 245.614747 
L 241.631706 246.813378 
L 245.27951 247.519502 
L 248.927314 248.157463 
L 252.575117 249.144334 
L 256.222921 250.664045 
L 259.870725 250.966247 
L 263.518529 252.086844 
L 267.166333 252.810573 
L 270.814137 254.064256 
L 274.461941 253.741952 
L 278.109745 255.345879 
L 281.757549 255.127876 
L 285.405352 256.818561 
L 289.053156 257.430248 
L 292.70096 258.826266 
L 296.348764 258.812788 
L 299.996568 259.587557 
L 303.644372 259.976172 
L 307.292176 261.687853 
L 310.93998 262.27502 
L 314.587783 262.71531 
L 318.235587 263.753789 
L 321.883391 264.251274 
L 325.531195 265.072818 
L 329.178999 265.301669 
L 332.826803 266.237198 
L 336.474607 266.106357 
L 340.122411 267.051099 
L 343.770215 268.163298 
L 347.418018 268.616469 
L 351.065822 269.904565 
L 354.713626 270.707515 
L 358.36143 270.296276 
L 362.009234 271.511594 
L 365.657038 271.946092 
L 369.304842 272.039166 
L 372.952646 272.898719 
L 376.600449 274.175667 
L 380.248253 274.538391 
L 383.896057 275.049857 
L 387.543861 275.356436 
L 391.191665 275.803142 
L 394.839469 277.043356 
L 398.487273 277.019293 
" clip-path="url(#p55267c0f02)" style="fill: none; stroke: #ff00ff; stroke-opacity: 0.3; stroke-width: 0.5; stroke-linecap: square"/>
   </g>
   <g id="line2d_33">
    <path d="M 73.832727 154.037317 
L 77.480531 157.102632 
L 81.128335 160.129782 
L 84.776139 160.626144 
L 88.423943 162.763507 
L 92.071747 162.931507 
L 95.719551 165.338977 
L 99.367354 167.95879 
L 103.015158 170.152998 
L 106.662962 170.949801 
L 110.310766 172.917403 
L 113.95857 174.821994 
L 117.606374 174.342935 
L 121.254178 177.50781 
L 124.901982 177.514109 
L 128.549785 179.401385 
L 132.197589 181.677584 
L 135.845393 182.571099 
L 139.493197 183.818857 
L 143.141001 184.081892 
L 146.788805 185.110936 
L 150.436609 187.166598 
L 154.084413 187.718007 
L 157.732217 189.093488 
L 161.38002 189.816891 
L 165.027824 188.597368 
L 168.675628 190.942695 
L 172.323432 193.536059 
L 175.971236 193.861018 
L 179.61904 196.027691 
L 183.266844 196.44976 
L 186.914648 197.785748 
L 190.562451 197.625447 
L 194.210255 199.595667 
L 197.858059 200.046153 
L 201.505863 200.829356 
L 205.153667 202.248071 
L 208.801471 204.289411 
L 212.449275 204.826207 
L 216.097079 204.030141 
L 219.744883 205.53361 
L 223.392686 207.633785 
L 227.04049 208.442714 
L 230.688294 209.710141 
L 234.336098 208.399432 
L 237.983902 210.808217 
L 241.631706 212.237116 
L 245.27951 212.193737 
L 248.927314 214.299982 
L 252.575117 214.632253 
L 256.222921 215.520217 
L 259.870725 215.821466 
L 263.518529 214.914087 
L 267.166333 216.515065 
L 270.814137 217.545991 
L 274.461941 218.577376 
L 278.109745 220.422721 
L 281.757549 220.745231 
L 285.405352 221.224712 
L 289.053156 220.93197 
L 292.70096 222.756586 
L 296.348764 223.350619 
L 299.996568 223.883928 
L 303.644372 225.829316 
L 307.292176 226.165099 
L 310.93998 227.277606 
L 314.587783 227.208858 
L 318.235587 227.806028 
L 321.883391 228.48738 
L 325.531195 229.766028 
L 329.178999 231.081956 
L 332.826803 231.807066 
L 336.474607 232.307688 
L 340.122411 233.116496 
L 343.770215 233.960593 
L 347.418018 233.483084 
L 351.065822 234.224032 
L 354.713626 235.387127 
L 358.36143 235.461836 
L 362.009234 236.510686 
L 365.657038 238.265052 
L 369.304842 237.856973 
L 372.952646 238.72262 
L 376.600449 239.091 
L 380.248253 240.484901 
L 383.896057 240.087634 
L 387.543861 241.345637 
L 391.191665 241.209697 
L 394.839469 242.783049 
L 398.487273 242.548611 
" clip-path="url(#p55267c0f02)" style="fill: none; stroke: #ff00ff; stroke-opacity: 0.3; stroke-width: 0.5; stroke-linecap: square"/>
   </g>
   <g id="line2d_34">
    <path d="M 73.832727 197.455528 
L 77.480531 200.420126 
L 81.128335 202.222696 
L 84.776139 203.836536 
L 88.423943 207.245707 
L 92.071747 210.213574 
L 95.719551 212.094371 
L 99.367354 213.886069 
L 103.015158 216.061345 
L 106.662962 217.601436 
L 110.310766 220.183964 
L 113.95857 221.940598 
L 117.606374 223.827428 
L 121.254178 225.378185 
L 124.901982 227.34458 
L 128.549785 228.924526 
L 132.197589 230.680948 
L 135.845393 232.591169 
L 139.493197 233.387084 
L 143.141001 234.736551 
L 146.788805 236.454083 
L 150.436609 237.736979 
L 154.084413 239.16437 
L 157.732217 240.700557 
L 161.38002 242.481094 
L 165.027824 243.432774 
L 168.675628 244.546578 
L 172.323432 246.001746 
L 175.971236 247.095544 
L 179.61904 248.74419 
L 183.266844 249.050018 
L 186.914648 250.921879 
L 190.562451 252.672829 
L 194.210255 252.598308 
L 197.858059 254.054935 
L 201.505863 255.50162 
L 205.153667 256.690374 
L 208.801471 257.842688 
L 212.449275 258.620649 
L 216.097079 260.144124 
L 219.744883 260.931123 
L 223.392686 262.438803 
L 227.04049 262.730001 
L 230.688294 264.071654 
L 234.336098 265.01867 
L 237.983902 265.951618 
L 241.631706 266.866508 
L 245.27951 268.041941 
L 248.927314 268.71423 
L 252.575117 269.969917 
L 256.222921 270.991509 
L 259.870725 271.553181 
L 263.518529 272.437935 
L 267.166333 273.289277 
L 270.814137 274.202858 
L 274.461941 275.084707 
L 278.109745 275.73992 
L 281.757549 276.399851 
L 285.405352 277.329048 
L 289.053156 277.97072 
L 292.70096 278.515607 
L 296.348764 279.35205 
L 299.996568 279.916095 
L 303.644372 280.824895 
L 307.292176 281.469513 
L 310.93998 282.277438 
L 314.587783 282.843951 
L 318.235587 283.628771 
L 321.883391 284.191978 
L 325.531195 284.638823 
L 329.178999 285.316793 
L 332.826803 286.222585 
L 336.474607 286.225263 
L 340.122411 286.771037 
L 343.770215 287.208494 
L 347.418018 288.472808 
L 351.065822 288.376871 
L 354.713626 289.268627 
L 358.36143 289.047438 
L 362.009234 289.991236 
L 365.657038 290.127716 
L 369.304842 290.673203 
L 372.952646 291.600205 
L 376.600449 291.963532 
L 380.248253 292.013834 
L 383.896057 292.338688 
L 387.543861 292.689852 
L 391.191665 293.640368 
L 394.839469 294.074854 
L 398.487273 294.355065 
" clip-path="url(#p55267c0f02)" style="fill: none; stroke: #ff00ff; stroke-opacity: 0.3; stroke-width: 0.5; stroke-linecap: square"/>
   </g>
   <g id="line2d_35">
    <path d="M 73.832727 181.684076 
L 77.480531 182.544601 
L 81.128335 183.840384 
L 84.776139 184.999624 
L 88.423943 186.730158 
L 92.071747 188.333368 
L 95.719551 189.17595 
L 99.367354 190.991129 
L 103.015158 191.426677 
L 106.662962 193.526985 
L 110.310766 194.505989 
L 113.95857 195.735178 
L 117.606374 198.04672 
L 121.254178 199.388089 
L 124.901982 200.945423 
L 128.549785 201.194581 
L 132.197589 203.427185 
L 135.845393 204.704096 
L 139.493197 205.079963 
L 143.141001 206.925767 
L 146.788805 207.292597 
L 150.436609 208.960663 
L 154.084413 209.420754 
L 157.732217 210.701188 
L 161.38002 211.440555 
L 165.027824 212.722486 
L 168.675628 213.267101 
L 172.323432 213.812573 
L 175.971236 214.934468 
L 179.61904 215.581478 
L 183.266844 216.851343 
L 186.914648 217.38902 
L 190.562451 218.818727 
L 194.210255 219.971439 
L 197.858059 220.412815 
L 201.505863 220.884658 
L 205.153667 222.146583 
L 208.801471 222.671832 
L 212.449275 223.527452 
L 216.097079 224.189708 
L 219.744883 225.536677 
L 223.392686 226.799663 
L 227.04049 227.454438 
L 230.688294 227.898607 
L 234.336098 228.975422 
L 237.983902 229.344574 
L 241.631706 230.404948 
L 245.27951 232.144538 
L 248.927314 232.153292 
L 252.575117 233.338517 
L 256.222921 233.493781 
L 259.870725 234.873739 
L 263.518529 235.836545 
L 267.166333 236.134928 
L 270.814137 237.472828 
L 274.461941 237.606711 
L 278.109745 238.896044 
L 281.757549 239.340913 
L 285.405352 240.321812 
L 289.053156 240.24793 
L 292.70096 241.859163 
L 296.348764 242.465191 
L 299.996568 243.768473 
L 303.644372 244.190814 
L 307.292176 245.354048 
L 310.93998 245.680847 
L 314.587783 246.579357 
L 318.235587 247.220799 
L 321.883391 248.471447 
L 325.531195 249.169101 
L 329.178999 249.394633 
L 332.826803 250.53181 
L 336.474607 251.507399 
L 340.122411 252.619255 
L 343.770215 252.53117 
L 347.418018 253.347345 
L 351.065822 254.385819 
L 354.713626 255.273765 
L 358.36143 255.278265 
L 362.009234 256.43327 
L 365.657038 257.063189 
L 369.304842 257.671816 
L 372.952646 259.34378 
L 376.600449 259.682604 
L 380.248253 259.653518 
L 383.896057 259.886097 
L 387.543861 260.891847 
L 391.191665 262.641723 
L 394.839469 263.090894 
L 398.487273 263.095165 
" clip-path="url(#p55267c0f02)" style="fill: none; stroke: #ff00ff; stroke-opacity: 0.3; stroke-width: 0.5; stroke-linecap: square"/>
   </g>
   <g id="line2d_36">
    <path d="M 73.832727 200.245356 
L 77.480531 201.789031 
L 81.128335 203.433664 
L 84.776139 204.910841 
L 88.423943 206.12152 
L 92.071747 207.329351 
L 95.719551 209.640096 
L 99.367354 211.832917 
L 103.015158 211.731885 
L 106.662962 212.818172 
L 110.310766 214.221731 
L 113.95857 215.318069 
L 117.606374 217.063288 
L 121.254178 218.261153 
L 124.901982 219.810957 
L 128.549785 220.137774 
L 132.197589 221.49086 
L 135.845393 223.002257 
L 139.493197 223.546444 
L 143.141001 225.337081 
L 146.788805 226.035253 
L 150.436609 227.017925 
L 154.084413 227.697847 
L 157.732217 229.215325 
L 161.38002 230.140478 
L 165.027824 231.436834 
L 168.675628 232.359362 
L 172.323432 232.397908 
L 175.971236 234.486415 
L 179.61904 235.659965 
L 183.266844 236.697534 
L 186.914648 237.744358 
L 190.562451 237.363905 
L 194.210255 239.505667 
L 197.858059 240.072732 
L 201.505863 241.224436 
L 205.153667 242.728811 
L 208.801471 243.869794 
L 212.449275 243.652853 
L 216.097079 245.624901 
L 219.744883 246.42104 
L 223.392686 247.157306 
L 227.04049 248.53012 
L 230.688294 249.092105 
L 234.336098 249.892232 
L 237.983902 251.390193 
L 241.631706 251.472244 
L 245.27951 253.592057 
L 248.927314 253.453403 
L 252.575117 254.643008 
L 256.222921 255.736033 
L 259.870725 256.167931 
L 263.518529 257.409131 
L 267.166333 258.293886 
L 270.814137 259.34267 
L 274.461941 259.964058 
L 278.109745 260.654266 
L 281.757549 260.886827 
L 285.405352 262.199967 
L 289.053156 263.178942 
L 292.70096 263.64293 
L 296.348764 264.175008 
L 299.996568 265.176565 
L 303.644372 265.797886 
L 307.292176 266.566701 
L 310.93998 267.333766 
L 314.587783 268.867491 
L 318.235587 268.913392 
L 321.883391 269.92293 
L 325.531195 270.600378 
L 329.178999 270.886785 
L 332.826803 271.743389 
L 336.474607 272.185736 
L 340.122411 273.094044 
L 343.770215 274.010955 
L 347.418018 274.527063 
L 351.065822 274.991528 
L 354.713626 275.903812 
L 358.36143 275.898502 
L 362.009234 277.099428 
L 365.657038 277.507857 
L 369.304842 278.081848 
L 372.952646 278.967103 
L 376.600449 279.61643 
L 380.248253 280.144638 
L 383.896057 280.861465 
L 387.543861 280.905881 
L 391.191665 281.712123 
L 394.839469 282.344071 
L 398.487273 282.301893 
" clip-path="url(#p55267c0f02)" style="fill: none; stroke: #ff00ff; stroke-opacity: 0.3; stroke-width: 0.5; stroke-linecap: square"/>
   </g>
   <g id="line2d_37">
    <path d="M 73.832727 189.106315 
L 77.480531 191.128891 
L 81.128335 192.04865 
L 84.776139 193.523715 
L 88.423943 194.313917 
L 92.071747 196.269754 
L 95.719551 197.634484 
L 99.367354 198.970714 
L 103.015158 199.997067 
L 106.662962 201.163402 
L 110.310766 201.95072 
L 113.95857 204.414527 
L 117.606374 205.224965 
L 121.254178 206.216965 
L 124.901982 206.795438 
L 128.549785 207.978232 
L 132.197589 210.954666 
L 135.845393 210.738232 
L 139.493197 213.384205 
L 143.141001 213.196078 
L 146.788805 214.031252 
L 150.436609 215.606588 
L 154.084413 216.082691 
L 157.732217 217.312398 
L 161.38002 217.870528 
L 165.027824 219.609569 
L 168.675628 219.705714 
L 172.323432 220.98318 
L 175.971236 221.396188 
L 179.61904 222.58499 
L 183.266844 222.621684 
L 186.914648 224.224501 
L 190.562451 224.93874 
L 194.210255 225.84995 
L 197.858059 226.849859 
L 201.505863 226.88096 
L 205.153667 228.753576 
L 208.801471 228.71734 
L 212.449275 229.912399 
L 216.097079 230.331633 
L 219.744883 232.27173 
L 223.392686 233.197401 
L 227.04049 233.08633 
L 230.688294 234.193208 
L 234.336098 234.947567 
L 237.983902 236.079133 
L 241.631706 236.10437 
L 245.27951 237.76478 
L 248.927314 237.868822 
L 252.575117 238.84881 
L 256.222921 239.704533 
L 259.870725 240.723296 
L 263.518529 241.905094 
L 267.166333 242.464804 
L 270.814137 241.571749 
L 274.461941 243.237806 
L 278.109745 244.236895 
L 281.757549 244.973692 
L 285.405352 245.962506 
L 289.053156 246.389034 
L 292.70096 247.209414 
L 296.348764 247.255701 
L 299.996568 248.077022 
L 303.644372 248.002168 
L 307.292176 249.662995 
L 310.93998 250.791357 
L 314.587783 250.954989 
L 318.235587 252.587001 
L 321.883391 252.766368 
L 325.531195 253.81733 
L 329.178999 253.78092 
L 332.826803 254.861059 
L 336.474607 254.501523 
L 340.122411 255.735164 
L 343.770215 256.226628 
L 347.418018 257.503406 
L 351.065822 258.147412 
L 354.713626 258.707889 
L 358.36143 258.338091 
L 362.009234 259.363014 
L 365.657038 260.522236 
L 369.304842 260.391442 
L 372.952646 261.601964 
L 376.600449 262.124945 
L 380.248253 262.743334 
L 383.896057 263.079961 
L 387.543861 263.041047 
L 391.191665 264.606369 
L 394.839469 264.937952 
L 398.487273 265.450737 
" clip-path="url(#p55267c0f02)" style="fill: none; stroke: #ff00ff; stroke-opacity: 0.3; stroke-width: 0.5; stroke-linecap: square"/>
   </g>
   <g id="line2d_38">
    <path d="M 73.832727 177.410869 
L 77.480531 182.092112 
L 81.128335 185.045597 
L 84.776139 189.192734 
L 88.423943 192.344915 
L 92.071747 195.511456 
L 95.719551 198.084801 
L 99.367354 200.628874 
L 103.015158 201.125694 
L 106.662962 204.158841 
L 110.310766 204.482907 
L 113.95857 206.887396 
L 117.606374 208.091981 
L 121.254178 209.192639 
L 124.901982 211.496036 
L 128.549785 212.330618 
L 132.197589 214.410667 
L 135.845393 214.119879 
L 139.493197 215.34406 
L 143.141001 215.970667 
L 146.788805 216.776772 
L 150.436609 219.44584 
L 154.084413 219.240917 
L 157.732217 220.745509 
L 161.38002 221.119168 
L 165.027824 223.066559 
L 168.675628 223.281817 
L 172.323432 223.917967 
L 175.971236 225.287289 
L 179.61904 226.471265 
L 183.266844 228.166692 
L 186.914648 228.680785 
L 190.562451 228.95401 
L 194.210255 230.492423 
L 197.858059 231.614227 
L 201.505863 233.285063 
L 205.153667 233.262753 
L 208.801471 235.018819 
L 212.449275 235.172327 
L 216.097079 236.341124 
L 219.744883 236.986421 
L 223.392686 238.478198 
L 227.04049 239.693082 
L 230.688294 239.785329 
L 234.336098 240.337993 
L 237.983902 241.932883 
L 241.631706 242.196382 
L 245.27951 243.871013 
L 248.927314 244.259652 
L 252.575117 245.558084 
L 256.222921 246.0686 
L 259.870725 247.106301 
L 263.518529 248.103544 
L 267.166333 248.374736 
L 270.814137 249.716877 
L 274.461941 251.054434 
L 278.109745 251.163357 
L 281.757549 252.73219 
L 285.405352 252.869813 
L 289.053156 254.49914 
L 292.70096 254.569379 
L 296.348764 255.30787 
L 299.996568 256.255852 
L 303.644372 256.635189 
L 307.292176 258.490754 
L 310.93998 259.485988 
L 314.587783 259.403328 
L 318.235587 260.224287 
L 321.883391 260.656872 
L 325.531195 261.72153 
L 329.178999 262.132106 
L 332.826803 263.195026 
L 336.474607 263.735708 
L 340.122411 263.543744 
L 343.770215 265.00229 
L 347.418018 267.013754 
L 351.065822 266.631292 
L 354.713626 267.568076 
L 358.36143 267.239515 
L 362.009234 268.123407 
L 365.657038 269.081971 
L 369.304842 269.871902 
L 372.952646 270.560258 
L 376.600449 270.828378 
L 380.248253 271.981289 
L 383.896057 272.50185 
L 387.543861 272.601458 
L 391.191665 273.179244 
L 394.839469 273.993823 
L 398.487273 274.485287 
" clip-path="url(#p55267c0f02)" style="fill: none; stroke: #ff00ff; stroke-opacity: 0.3; stroke-width: 0.5; stroke-linecap: square"/>
   </g>
   <g id="line2d_39">
    <path d="M 73.832727 172.462911 
L 77.480531 175.106205 
L 81.128335 179.387002 
L 84.776139 182.153699 
L 88.423943 183.924885 
L 92.071747 187.660788 
L 95.719551 190.40877 
L 99.367354 192.903238 
L 103.015158 192.79265 
L 106.662962 197.13262 
L 110.310766 198.124512 
L 113.95857 200.886648 
L 117.606374 202.072047 
L 121.254178 204.819354 
L 124.901982 205.646394 
L 128.549785 206.345628 
L 132.197589 208.875716 
L 135.845393 209.782914 
L 139.493197 211.897508 
L 143.141001 213.985532 
L 146.788805 215.674546 
L 150.436609 215.870395 
L 154.084413 218.887638 
L 157.732217 219.955319 
L 161.38002 222.028308 
L 165.027824 221.21185 
L 168.675628 223.653195 
L 172.323432 224.007228 
L 175.971236 225.85994 
L 179.61904 227.325051 
L 183.266844 229.124888 
L 186.914648 231.057823 
L 190.562451 232.218264 
L 194.210255 233.180369 
L 197.858059 234.896219 
L 201.505863 236.071278 
L 205.153667 236.711827 
L 208.801471 238.869691 
L 212.449275 238.977329 
L 216.097079 240.924394 
L 219.744883 241.939326 
L 223.392686 243.95021 
L 227.04049 244.332961 
L 230.688294 245.670934 
L 234.336098 246.534585 
L 237.983902 247.242048 
L 241.631706 249.955303 
L 245.27951 250.534398 
L 248.927314 250.836226 
L 252.575117 252.449626 
L 256.222921 253.248292 
L 259.870725 253.853698 
L 263.518529 256.150899 
L 267.166333 257.025632 
L 270.814137 257.359436 
L 274.461941 259.47219 
L 278.109745 259.564402 
L 281.757549 260.307189 
L 285.405352 261.182519 
L 289.053156 261.772691 
L 292.70096 262.771081 
L 296.348764 263.420673 
L 299.996568 264.655768 
L 303.644372 266.020293 
L 307.292176 267.389024 
L 310.93998 267.65087 
L 314.587783 268.502453 
L 318.235587 268.761253 
L 321.883391 270.107075 
L 325.531195 270.482448 
L 329.178999 271.743093 
L 332.826803 271.539027 
L 336.474607 272.888861 
L 340.122411 272.70839 
L 343.770215 274.157829 
L 347.418018 275.268062 
L 351.065822 274.823691 
L 354.713626 276.533434 
L 358.36143 277.272065 
L 362.009234 277.758635 
L 365.657038 277.834904 
L 369.304842 278.402162 
L 372.952646 279.365257 
L 376.600449 280.706877 
L 380.248253 280.693851 
L 383.896057 281.406201 
L 387.543861 281.604913 
L 391.191665 282.071073 
L 394.839469 283.588455 
L 398.487273 282.936639 
" clip-path="url(#p55267c0f02)" style="fill: none; stroke: #ff00ff; stroke-opacity: 0.3; stroke-width: 0.5; stroke-linecap: square"/>
   </g>
   <g id="line2d_40">
    <path d="M 73.832727 174.1561 
L 77.480531 173.977915 
L 81.128335 175.382006 
L 84.776139 175.904564 
L 88.423943 177.227291 
L 92.071747 177.708003 
L 95.719551 179.29642 
L 99.367354 180.018507 
L 103.015158 180.868607 
L 106.662962 181.422767 
L 110.310766 182.43102 
L 113.95857 183.238332 
L 117.606374 184.457639 
L 121.254178 184.963943 
L 124.901982 185.518103 
L 128.549785 185.838429 
L 132.197589 186.799165 
L 135.845393 187.570484 
L 139.493197 189.246031 
L 143.141001 190.004692 
L 146.788805 191.278188 
L 150.436609 191.429102 
L 154.084413 191.822719 
L 157.732217 193.832348 
L 161.38002 194.164222 
L 165.027824 194.204825 
L 168.675628 195.317766 
L 172.323432 197.614358 
L 175.971236 196.517416 
L 179.61904 198.136119 
L 183.266844 199.070177 
L 186.914648 199.349236 
L 190.562451 200.238382 
L 194.210255 200.76602 
L 197.858059 201.030068 
L 201.505863 203.41472 
L 205.153667 203.323088 
L 208.801471 203.878841 
L 212.449275 205.37863 
L 216.097079 206.863493 
L 219.744883 206.252898 
L 223.392686 207.319058 
L 227.04049 208.28082 
L 230.688294 209.284235 
L 234.336098 210.321979 
L 237.983902 210.47609 
L 241.631706 211.235945 
L 245.27951 212.299958 
L 248.927314 213.800483 
L 252.575117 213.293381 
L 256.222921 214.188465 
L 259.870725 215.714799 
L 263.518529 215.501309 
L 267.166333 216.233858 
L 270.814137 217.424447 
L 274.461941 218.345062 
L 278.109745 218.965563 
L 281.757549 219.555294 
L 285.405352 220.920242 
L 289.053156 220.420079 
L 292.70096 221.247916 
L 296.348764 222.263011 
L 299.996568 223.310812 
L 303.644372 224.0628 
L 307.292176 224.312622 
L 310.93998 225.518281 
L 314.587783 226.434523 
L 318.235587 226.870058 
L 321.883391 227.585883 
L 325.531195 227.71617 
L 329.178999 228.700242 
L 332.826803 229.635108 
L 336.474607 229.874601 
L 340.122411 230.846318 
L 343.770215 230.962789 
L 347.418018 232.059778 
L 351.065822 232.810632 
L 354.713626 232.819265 
L 358.36143 233.278016 
L 362.009234 234.73795 
L 365.657038 234.459024 
L 369.304842 235.498686 
L 372.952646 236.553757 
L 376.600449 237.229975 
L 380.248253 237.72148 
L 383.896057 237.926077 
L 387.543861 238.110282 
L 391.191665 238.76522 
L 394.839469 240.907791 
L 398.487273 239.98005 
" clip-path="url(#p55267c0f02)" style="fill: none; stroke: #ff00ff; stroke-opacity: 0.3; stroke-width: 0.5; stroke-linecap: square"/>
   </g>
   <g id="line2d_41">
    <path d="M 73.832727 187.641241 
L 77.480531 189.756426 
L 81.128335 189.000167 
L 84.776139 188.800698 
L 88.423943 190.33122 
L 92.071747 191.161748 
L 95.719551 190.806381 
L 99.367354 192.003811 
L 103.015158 192.562979 
L 106.662962 191.965126 
L 110.310766 192.998719 
L 113.95857 194.560529 
L 117.606374 193.677863 
L 121.254178 194.544409 
L 124.901982 195.025676 
L 128.549785 196.01589 
L 132.197589 196.844548 
L 135.845393 196.992952 
L 139.493197 196.968433 
L 143.141001 197.082665 
L 146.788805 198.157115 
L 150.436609 198.780222 
L 154.084413 199.034774 
L 157.732217 199.737362 
L 161.38002 199.580258 
L 165.027824 200.63773 
L 168.675628 201.098967 
L 172.323432 201.236512 
L 175.971236 202.15288 
L 179.61904 202.808385 
L 183.266844 202.640409 
L 186.914648 203.604138 
L 190.562451 203.894117 
L 194.210255 205.648253 
L 197.858059 205.391396 
L 201.505863 204.94412 
L 205.153667 206.235438 
L 208.801471 207.653104 
L 212.449275 207.579101 
L 216.097079 207.46412 
L 219.744883 208.318648 
L 223.392686 208.759312 
L 227.04049 209.275813 
L 230.688294 209.048024 
L 234.336098 209.683644 
L 237.983902 210.748537 
L 241.631706 211.533454 
L 245.27951 211.898317 
L 248.927314 212.450679 
L 252.575117 212.665412 
L 256.222921 214.367348 
L 259.870725 213.717912 
L 263.518529 216.228103 
L 267.166333 214.042896 
L 270.814137 215.997225 
L 274.461941 216.284501 
L 278.109745 217.416978 
L 281.757549 216.731222 
L 285.405352 217.960362 
L 289.053156 219.554052 
L 292.70096 219.107198 
L 296.348764 219.602751 
L 299.996568 220.300212 
L 303.644372 220.755258 
L 307.292176 220.371138 
L 310.93998 222.0675 
L 314.587783 221.383651 
L 318.235587 221.696616 
L 321.883391 223.131295 
L 325.531195 224.120761 
L 329.178999 223.781967 
L 332.826803 224.613714 
L 336.474607 225.755494 
L 340.122411 225.473624 
L 343.770215 226.208176 
L 347.418018 227.157751 
L 351.065822 227.921419 
L 354.713626 229.067844 
L 358.36143 228.609733 
L 362.009234 228.826366 
L 365.657038 230.480387 
L 369.304842 229.641823 
L 372.952646 231.888387 
L 376.600449 231.355078 
L 380.248253 232.089335 
L 383.896057 231.488267 
L 387.543861 232.425413 
L 391.191665 232.722541 
L 394.839469 234.36554 
L 398.487273 234.474023 
" clip-path="url(#p55267c0f02)" style="fill: none; stroke: #ff00ff; stroke-opacity: 0.3; stroke-width: 0.5; stroke-linecap: square"/>
   </g>
   <g id="line2d_42">
    <path d="M 73.832727 191.083727 
L 77.480531 193.344312 
L 81.128335 194.14208 
L 84.776139 195.923015 
L 88.423943 197.122195 
L 92.071747 197.849543 
L 95.719551 199.481797 
L 99.367354 201.271203 
L 103.015158 203.130823 
L 106.662962 203.214286 
L 110.310766 204.49875 
L 113.95857 206.164983 
L 117.606374 207.036609 
L 121.254178 208.737073 
L 124.901982 209.552337 
L 128.549785 210.821562 
L 132.197589 213.104458 
L 135.845393 213.121267 
L 139.493197 212.811427 
L 143.141001 215.52689 
L 146.788805 215.976929 
L 150.436609 217.577472 
L 154.084413 218.768483 
L 157.732217 218.427113 
L 161.38002 220.687542 
L 165.027824 221.103289 
L 168.675628 222.781636 
L 172.323432 223.140652 
L 175.971236 223.920393 
L 179.61904 225.357557 
L 183.266844 226.802649 
L 186.914648 228.638457 
L 190.562451 229.339573 
L 194.210255 230.511494 
L 197.858059 231.627024 
L 201.505863 232.888285 
L 205.153667 234.177214 
L 208.801471 235.04589 
L 212.449275 236.035965 
L 216.097079 237.150542 
L 219.744883 238.797842 
L 223.392686 240.445522 
L 227.04049 241.727869 
L 230.688294 240.274548 
L 234.336098 242.14443 
L 237.983902 243.510645 
L 241.631706 244.693311 
L 245.27951 245.646174 
L 248.927314 247.285752 
L 252.575117 247.758814 
L 256.222921 248.234476 
L 259.870725 248.877589 
L 263.518529 250.350356 
L 267.166333 252.129662 
L 270.814137 253.020111 
L 274.461941 253.129698 
L 278.109745 254.077559 
L 281.757549 254.346163 
L 285.405352 256.5107 
L 289.053156 256.635593 
L 292.70096 258.118766 
L 296.348764 258.744371 
L 299.996568 258.849306 
L 303.644372 260.383901 
L 307.292176 261.231708 
L 310.93998 262.148534 
L 314.587783 262.592794 
L 318.235587 262.882773 
L 321.883391 263.755497 
L 325.531195 265.125995 
L 329.178999 264.650296 
L 332.826803 266.072149 
L 336.474607 266.203853 
L 340.122411 266.703033 
L 343.770215 268.576825 
L 347.418018 269.252028 
L 351.065822 269.696288 
L 354.713626 270.846574 
L 358.36143 270.002261 
L 362.009234 271.354677 
L 365.657038 271.593138 
L 369.304842 272.813036 
L 372.952646 273.142798 
L 376.600449 273.498381 
L 380.248253 274.364979 
L 383.896057 274.952677 
L 387.543861 275.229944 
L 391.191665 276.787628 
L 394.839469 277.593284 
L 398.487273 276.91497 
" clip-path="url(#p55267c0f02)" style="fill: none; stroke: #ff00ff; stroke-opacity: 0.3; stroke-width: 0.5; stroke-linecap: square"/>
   </g>
   <g id="line2d_43">
    <path d="M 73.832727 168.615031 
L 77.480531 170.255514 
L 81.128335 170.084015 
L 84.776139 173.921336 
L 88.423943 173.844811 
L 92.071747 175.168323 
L 95.719551 175.745891 
L 99.367354 176.027388 
L 103.015158 178.115472 
L 106.662962 180.055261 
L 110.310766 179.6914 
L 113.95857 180.487949 
L 117.606374 183.906918 
L 121.254178 184.538146 
L 124.901982 183.535949 
L 128.549785 184.678296 
L 132.197589 184.547883 
L 135.845393 186.689205 
L 139.493197 188.446707 
L 143.141001 188.471914 
L 146.788805 189.401844 
L 150.436609 189.278429 
L 154.084413 189.815636 
L 157.732217 193.356934 
L 161.38002 193.790707 
L 165.027824 194.163329 
L 168.675628 194.090786 
L 172.323432 198.515269 
L 175.971236 196.624409 
L 179.61904 197.568095 
L 183.266844 197.222358 
L 186.914648 198.587052 
L 190.562451 200.060572 
L 194.210255 200.102599 
L 197.858059 199.61618 
L 201.505863 201.019776 
L 205.153667 201.873544 
L 208.801471 203.06926 
L 212.449275 203.766117 
L 216.097079 205.654322 
L 219.744883 205.140802 
L 223.392686 207.031806 
L 227.04049 206.042847 
L 230.688294 208.115716 
L 234.336098 207.697001 
L 237.983902 207.842123 
L 241.631706 209.0939 
L 245.27951 210.117345 
L 248.927314 209.905001 
L 252.575117 210.284633 
L 256.222921 211.633749 
L 259.870725 212.986148 
L 263.518529 211.488663 
L 267.166333 212.653707 
L 270.814137 213.040302 
L 274.461941 214.697834 
L 278.109745 214.614842 
L 281.757549 214.686854 
L 285.405352 214.554063 
L 289.053156 216.467427 
L 292.70096 216.024471 
L 296.348764 217.397901 
L 299.996568 216.889303 
L 303.644372 218.463192 
L 307.292176 218.438263 
L 310.93998 220.361859 
L 314.587783 219.941961 
L 318.235587 220.531403 
L 321.883391 221.79328 
L 325.531195 220.884863 
L 329.178999 221.527337 
L 332.826803 221.839699 
L 336.474607 221.899681 
L 340.122411 222.947693 
L 343.770215 222.952881 
L 347.418018 223.9174 
L 351.065822 224.046559 
L 354.713626 224.284833 
L 358.36143 223.300308 
L 362.009234 225.719566 
L 365.657038 225.330583 
L 369.304842 227.160242 
L 372.952646 226.72163 
L 376.600449 227.594366 
L 380.248253 227.278306 
L 383.896057 227.906469 
L 387.543861 227.982288 
L 391.191665 227.337594 
L 394.839469 230.113823 
L 398.487273 229.366523 
" clip-path="url(#p55267c0f02)" style="fill: none; stroke: #ff00ff; stroke-opacity: 0.3; stroke-width: 0.5; stroke-linecap: square"/>
   </g>
   <g id="line2d_44">
    <path d="M 73.832727 184.08001 
L 77.480531 185.06833 
L 81.128335 185.738833 
L 84.776139 186.120179 
L 88.423943 189.302671 
L 92.071747 188.619027 
L 95.719551 191.476185 
L 99.367354 191.979425 
L 103.015158 193.977265 
L 106.662962 195.127335 
L 110.310766 195.755799 
L 113.95857 196.173103 
L 117.606374 195.937278 
L 121.254178 199.122834 
L 124.901982 198.675932 
L 128.549785 200.778304 
L 132.197589 200.751058 
L 135.845393 202.104542 
L 139.493197 202.548524 
L 143.141001 203.254732 
L 146.788805 203.426835 
L 150.436609 204.969689 
L 154.084413 204.730919 
L 157.732217 205.682268 
L 161.38002 206.667873 
L 165.027824 208.159951 
L 168.675628 208.338244 
L 172.323432 209.191891 
L 175.971236 210.1986 
L 179.61904 211.560301 
L 183.266844 211.4393 
L 186.914648 212.226811 
L 190.562451 213.778196 
L 194.210255 213.366528 
L 197.858059 214.696857 
L 201.505863 215.007119 
L 205.153667 215.302287 
L 208.801471 217.426558 
L 212.449275 217.245816 
L 216.097079 218.102745 
L 219.744883 218.625231 
L 223.392686 217.99661 
L 227.04049 220.760194 
L 230.688294 221.948043 
L 234.336098 221.618812 
L 237.983902 221.266197 
L 241.631706 223.489901 
L 245.27951 224.338052 
L 248.927314 224.231566 
L 252.575117 225.185382 
L 256.222921 225.493346 
L 259.870725 226.363874 
L 263.518529 227.081147 
L 267.166333 229.041171 
L 270.814137 228.27804 
L 274.461941 229.292912 
L 278.109745 230.236019 
L 281.757549 230.72954 
L 285.405352 232.10601 
L 289.053156 232.565329 
L 292.70096 233.149105 
L 296.348764 233.298662 
L 299.996568 234.413962 
L 303.644372 234.873624 
L 307.292176 235.347097 
L 310.93998 236.018493 
L 314.587783 236.694644 
L 318.235587 238.343471 
L 321.883391 237.160991 
L 325.531195 239.063157 
L 329.178999 239.268183 
L 332.826803 240.874904 
L 336.474607 241.075869 
L 340.122411 241.843369 
L 343.770215 241.378216 
L 347.418018 243.016479 
L 351.065822 243.127145 
L 354.713626 243.629366 
L 358.36143 243.790699 
L 362.009234 244.645396 
L 365.657038 245.627489 
L 369.304842 245.73841 
L 372.952646 246.265203 
L 376.600449 248.001963 
L 380.248253 248.039604 
L 383.896057 248.588274 
L 387.543861 249.48346 
L 391.191665 249.994247 
L 394.839469 250.496636 
L 398.487273 250.532316 
" clip-path="url(#p55267c0f02)" style="fill: none; stroke: #ff00ff; stroke-opacity: 0.3; stroke-width: 0.5; stroke-linecap: square"/>
   </g>
   <g id="line2d_45">
    <path d="M 73.832727 168.396184 
L 77.480531 169.947617 
L 81.128335 169.716509 
L 84.776139 170.283834 
L 88.423943 171.102983 
L 92.071747 171.569674 
L 95.719551 172.926199 
L 99.367354 172.77794 
L 103.015158 173.19114 
L 106.662962 173.57975 
L 110.310766 173.839659 
L 113.95857 174.834917 
L 117.606374 175.385228 
L 121.254178 176.085632 
L 124.901982 176.268184 
L 128.549785 177.220389 
L 132.197589 177.174887 
L 135.845393 177.101101 
L 139.493197 177.748534 
L 143.141001 178.292233 
L 146.788805 179.090543 
L 150.436609 178.954399 
L 154.084413 179.4608 
L 157.732217 180.24708 
L 161.38002 180.530688 
L 165.027824 180.707279 
L 168.675628 180.917367 
L 172.323432 182.317753 
L 175.971236 181.997693 
L 179.61904 182.639249 
L 183.266844 183.222091 
L 186.914648 182.710115 
L 190.562451 183.397838 
L 194.210255 183.760106 
L 197.858059 183.810278 
L 201.505863 184.432806 
L 205.153667 185.232094 
L 208.801471 184.939702 
L 212.449275 186.247177 
L 216.097079 185.283956 
L 219.744883 185.862996 
L 223.392686 185.760625 
L 227.04049 186.848565 
L 230.688294 187.07458 
L 234.336098 188.003039 
L 237.983902 188.597187 
L 241.631706 188.199443 
L 245.27951 188.370737 
L 248.927314 188.626472 
L 252.575117 189.336565 
L 256.222921 188.927226 
L 259.870725 189.448276 
L 263.518529 190.081591 
L 267.166333 190.539509 
L 270.814137 190.007709 
L 274.461941 190.696421 
L 278.109745 191.065313 
L 281.757549 190.99195 
L 285.405352 190.896614 
L 289.053156 192.3843 
L 292.70096 192.699111 
L 296.348764 192.260571 
L 299.996568 192.859087 
L 303.644372 193.86097 
L 307.292176 193.834858 
L 310.93998 194.116825 
L 314.587783 193.929833 
L 318.235587 195.104216 
L 321.883391 195.074701 
L 325.531195 195.576674 
L 329.178999 194.955836 
L 332.826803 195.695238 
L 336.474607 195.1537 
L 340.122411 196.183383 
L 343.770215 195.785567 
L 347.418018 196.271878 
L 351.065822 197.053791 
L 354.713626 197.643052 
L 358.36143 198.204174 
L 362.009234 197.398358 
L 365.657038 197.537229 
L 369.304842 198.65513 
L 372.952646 198.009543 
L 376.600449 199.439685 
L 380.248253 198.788174 
L 383.896057 199.79154 
L 387.543861 198.791251 
L 391.191665 199.109489 
L 394.839469 200.560735 
L 398.487273 199.766503 
" clip-path="url(#p55267c0f02)" style="fill: none; stroke: #ff00ff; stroke-opacity: 0.3; stroke-width: 0.5; stroke-linecap: square"/>
   </g>
   <g id="line2d_46">
    <path d="M 73.832727 180.926851 
L 77.480531 185.232517 
L 81.128335 188.637283 
L 84.776139 192.937519 
L 88.423943 195.866955 
L 92.071747 199.145435 
L 95.719551 200.929773 
L 99.367354 204.034461 
L 103.015158 207.280205 
L 106.662962 210.151891 
L 110.310766 212.505291 
L 113.95857 215.025955 
L 117.606374 218.044248 
L 121.254178 219.529304 
L 124.901982 221.795946 
L 128.549785 225.080339 
L 132.197589 226.866294 
L 135.845393 227.809944 
L 139.493197 229.6849 
L 143.141001 232.037015 
L 146.788805 234.15132 
L 150.436609 235.299428 
L 154.084413 238.016334 
L 157.732217 239.226976 
L 161.38002 241.17421 
L 165.027824 241.449589 
L 168.675628 243.188563 
L 172.323432 244.299954 
L 175.971236 245.898162 
L 179.61904 247.351942 
L 183.266844 248.346536 
L 186.914648 250.469167 
L 190.562451 250.212612 
L 194.210255 251.934326 
L 197.858059 253.244473 
L 201.505863 254.472202 
L 205.153667 255.687569 
L 208.801471 257.287569 
L 212.449275 257.951521 
L 216.097079 258.999913 
L 219.744883 259.507062 
L 223.392686 261.284914 
L 227.04049 262.949331 
L 230.688294 263.753759 
L 234.336098 264.187497 
L 237.983902 265.253494 
L 241.631706 265.704022 
L 245.27951 267.763515 
L 248.927314 266.990134 
L 252.575117 268.361168 
L 256.222921 269.52401 
L 259.870725 270.251172 
L 263.518529 271.320776 
L 267.166333 272.400686 
L 270.814137 273.666611 
L 274.461941 274.294873 
L 278.109745 273.67347 
L 281.757549 274.85008 
L 285.405352 276.166339 
L 289.053156 276.74306 
L 292.70096 277.816596 
L 296.348764 278.155426 
L 299.996568 278.991085 
L 303.644372 279.456931 
L 307.292176 280.149088 
L 310.93998 280.77383 
L 314.587783 281.702702 
L 318.235587 282.304319 
L 321.883391 283.003459 
L 325.531195 283.369188 
L 329.178999 283.671794 
L 332.826803 284.897049 
L 336.474607 284.446132 
L 340.122411 285.610826 
L 343.770215 285.95472 
L 347.418018 286.578337 
L 351.065822 287.147532 
L 354.713626 287.271221 
L 358.36143 287.81825 
L 362.009234 288.620355 
L 365.657038 289.103496 
L 369.304842 289.588343 
L 372.952646 289.529396 
L 376.600449 290.276027 
L 380.248253 291.21739 
L 383.896057 291.250084 
L 387.543861 291.266639 
L 391.191665 292.296452 
L 394.839469 292.462685 
L 398.487273 292.654268 
" clip-path="url(#p55267c0f02)" style="fill: none; stroke: #ff00ff; stroke-opacity: 0.3; stroke-width: 0.5; stroke-linecap: square"/>
   </g>
   <g id="line2d_47">
    <path d="M 73.832727 183.141548 
L 77.480531 185.104915 
L 81.128335 186.015503 
L 84.776139 187.350224 
L 88.423943 187.254852 
L 92.071747 188.724849 
L 95.719551 189.135359 
L 99.367354 190.581259 
L 103.015158 191.560228 
L 106.662962 192.797911 
L 110.310766 192.652258 
L 113.95857 194.132077 
L 117.606374 194.821766 
L 121.254178 195.802701 
L 124.901982 196.095238 
L 128.549785 197.305254 
L 132.197589 197.759588 
L 135.845393 198.009435 
L 139.493197 200.122509 
L 143.141001 199.05338 
L 146.788805 200.601507 
L 150.436609 201.724717 
L 154.084413 202.093043 
L 157.732217 202.858135 
L 161.38002 203.196246 
L 165.027824 203.839142 
L 168.675628 204.922437 
L 172.323432 205.27434 
L 175.971236 205.66961 
L 179.61904 206.002123 
L 183.266844 207.135891 
L 186.914648 208.1579 
L 190.562451 208.233399 
L 194.210255 209.349972 
L 197.858059 210.011233 
L 201.505863 211.181273 
L 205.153667 211.250691 
L 208.801471 212.193303 
L 212.449275 212.376651 
L 216.097079 212.950878 
L 219.744883 214.783179 
L 223.392686 215.371861 
L 227.04049 216.414733 
L 230.688294 216.464676 
L 234.336098 217.73022 
L 237.983902 217.732151 
L 241.631706 219.588694 
L 245.27951 220.041195 
L 248.927314 220.351457 
L 252.575117 221.534396 
L 256.222921 222.481774 
L 259.870725 223.420725 
L 263.518529 224.852055 
L 267.166333 225.61471 
L 270.814137 225.812248 
L 274.461941 226.124037 
L 278.109745 226.583554 
L 281.757549 228.434873 
L 285.405352 229.485986 
L 289.053156 229.470638 
L 292.70096 231.384333 
L 296.348764 231.152399 
L 299.996568 231.916942 
L 303.644372 232.832025 
L 307.292176 234.186228 
L 310.93998 234.836828 
L 314.587783 234.964659 
L 318.235587 236.304581 
L 321.883391 237.865552 
L 325.531195 237.666439 
L 329.178999 238.841878 
L 332.826803 240.203103 
L 336.474607 240.978204 
L 340.122411 240.81643 
L 343.770215 241.64916 
L 347.418018 243.188256 
L 351.065822 243.872485 
L 354.713626 243.934452 
L 358.36143 244.523109 
L 362.009234 245.6432 
L 365.657038 246.317879 
L 369.304842 247.018428 
L 372.952646 248.367266 
L 376.600449 248.365095 
L 380.248253 250.044141 
L 383.896057 249.629595 
L 387.543861 251.127116 
L 391.191665 251.981125 
L 394.839469 252.242561 
L 398.487273 253.552335 
" clip-path="url(#p55267c0f02)" style="fill: none; stroke: #ff00ff; stroke-opacity: 0.3; stroke-width: 0.5; stroke-linecap: square"/>
   </g>
   <g id="line2d_48">
    <path d="M 73.832727 167.208865 
L 77.480531 169.318295 
L 81.128335 170.311333 
L 84.776139 171.541523 
L 88.423943 172.805161 
L 92.071747 174.50705 
L 95.719551 175.368709 
L 99.367354 176.413861 
L 103.015158 177.029608 
L 106.662962 177.952854 
L 110.310766 178.83435 
L 113.95857 180.180643 
L 117.606374 181.274664 
L 121.254178 181.84801 
L 124.901982 182.711044 
L 128.549785 183.130954 
L 132.197589 184.216673 
L 135.845393 185.293186 
L 139.493197 185.484124 
L 143.141001 185.911998 
L 146.788805 186.577518 
L 150.436609 187.860981 
L 154.084413 187.702514 
L 157.732217 188.895889 
L 161.38002 188.687455 
L 165.027824 189.652788 
L 168.675628 189.387534 
L 172.323432 190.777784 
L 175.971236 190.610472 
L 179.61904 191.08065 
L 183.266844 191.106725 
L 186.914648 191.564065 
L 190.562451 192.13665 
L 194.210255 192.252728 
L 197.858059 192.653718 
L 201.505863 192.407685 
L 205.153667 193.11989 
L 208.801471 194.497422 
L 212.449275 194.558056 
L 216.097079 195.47294 
L 219.744883 194.799842 
L 223.392686 195.6511 
L 227.04049 196.369905 
L 230.688294 195.628885 
L 234.336098 196.559154 
L 237.983902 197.014237 
L 241.631706 197.835257 
L 245.27951 198.587944 
L 248.927314 197.971619 
L 252.575117 198.849266 
L 256.222921 198.885525 
L 259.870725 199.644041 
L 263.518529 199.555727 
L 267.166333 199.887383 
L 270.814137 199.801374 
L 274.461941 200.970461 
L 278.109745 201.140102 
L 281.757549 200.51656 
L 285.405352 201.78342 
L 289.053156 202.697025 
L 292.70096 202.685634 
L 296.348764 201.805284 
L 299.996568 202.755884 
L 303.644372 203.689809 
L 307.292176 203.712832 
L 310.93998 204.351866 
L 314.587783 204.419571 
L 318.235587 205.616651 
L 321.883391 205.355993 
L 325.531195 205.418328 
L 329.178999 205.647661 
L 332.826803 205.876404 
L 336.474607 207.07107 
L 340.122411 206.922292 
L 343.770215 206.704916 
L 347.418018 207.793098 
L 351.065822 208.308838 
L 354.713626 208.641846 
L 358.36143 208.464084 
L 362.009234 209.703891 
L 365.657038 209.019764 
L 369.304842 210.232977 
L 372.952646 210.47235 
L 376.600449 211.131511 
L 380.248253 211.252235 
L 383.896057 211.432675 
L 387.543861 211.845007 
L 391.191665 211.979258 
L 394.839469 213.451584 
L 398.487273 213.388839 
" clip-path="url(#p55267c0f02)" style="fill: none; stroke: #ff00ff; stroke-opacity: 0.3; stroke-width: 0.5; stroke-linecap: square"/>
   </g>
   <g id="line2d_49">
    <path d="M 73.832727 183.345132 
L 77.480531 186.846429 
L 81.128335 188.056263 
L 84.776139 190.585808 
L 88.423943 192.406502 
L 92.071747 194.514738 
L 95.719551 197.604162 
L 99.367354 199.352723 
L 103.015158 201.585568 
L 106.662962 203.262225 
L 110.310766 205.051354 
L 113.95857 206.914666 
L 117.606374 209.433797 
L 121.254178 210.876078 
L 124.901982 211.919795 
L 128.549785 212.560676 
L 132.197589 214.561931 
L 135.845393 216.930341 
L 139.493197 219.264435 
L 143.141001 219.742335 
L 146.788805 220.615011 
L 150.436609 222.75366 
L 154.084413 223.707609 
L 157.732217 224.336936 
L 161.38002 225.472876 
L 165.027824 226.150227 
L 168.675628 228.170342 
L 172.323432 229.847651 
L 175.971236 229.968906 
L 179.61904 232.220888 
L 183.266844 231.983688 
L 186.914648 233.774258 
L 190.562451 235.800056 
L 194.210255 236.148689 
L 197.858059 237.29818 
L 201.505863 237.622487 
L 205.153667 239.136171 
L 208.801471 240.516032 
L 212.449275 241.909957 
L 216.097079 243.385034 
L 219.744883 243.682651 
L 223.392686 245.288207 
L 227.04049 247.056111 
L 230.688294 247.006729 
L 234.336098 248.710687 
L 237.983902 248.772111 
L 241.631706 251.06244 
L 245.27951 251.832522 
L 248.927314 253.48416 
L 252.575117 254.694501 
L 256.222921 255.402175 
L 259.870725 256.690628 
L 263.518529 257.915116 
L 267.166333 258.918941 
L 270.814137 259.357132 
L 274.461941 261.536933 
L 278.109745 261.47578 
L 281.757549 262.015847 
L 285.405352 264.572547 
L 289.053156 263.882158 
L 292.70096 265.061228 
L 296.348764 266.537904 
L 299.996568 268.193862 
L 303.644372 269.139811 
L 307.292176 269.945886 
L 310.93998 270.023727 
L 314.587783 271.298798 
L 318.235587 272.38459 
L 321.883391 273.595205 
L 325.531195 273.36795 
L 329.178999 274.104786 
L 332.826803 274.814756 
L 336.474607 275.917199 
L 340.122411 276.077935 
L 343.770215 277.734665 
L 347.418018 278.277724 
L 351.065822 278.436602 
L 354.713626 279.820123 
L 358.36143 278.915727 
L 362.009234 281.014053 
L 365.657038 281.157356 
L 369.304842 281.934853 
L 372.952646 283.038032 
L 376.600449 283.062771 
L 380.248253 283.466762 
L 383.896057 283.99358 
L 387.543861 284.635688 
L 391.191665 284.505725 
L 394.839469 286.060778 
L 398.487273 286.313034 
" clip-path="url(#p55267c0f02)" style="fill: none; stroke: #ff00ff; stroke-opacity: 0.3; stroke-width: 0.5; stroke-linecap: square"/>
   </g>
   <g id="line2d_50">
    <path d="M 73.832727 175.968757 
L 77.480531 176.474555 
L 81.128335 178.209481 
L 84.776139 179.131678 
L 88.423943 179.352383 
L 92.071747 180.597162 
L 95.719551 181.287382 
L 99.367354 181.256046 
L 103.015158 182.687081 
L 106.662962 182.708812 
L 110.310766 182.520625 
L 113.95857 184.319008 
L 117.606374 184.372547 
L 121.254178 185.422803 
L 124.901982 185.796535 
L 128.549785 186.76661 
L 132.197589 186.703129 
L 135.845393 187.835208 
L 139.493197 188.336095 
L 143.141001 188.757018 
L 146.788805 189.56439 
L 150.436609 189.621742 
L 154.084413 190.971256 
L 157.732217 191.221054 
L 161.38002 191.128227 
L 165.027824 191.669573 
L 168.675628 191.693911 
L 172.323432 191.95008 
L 175.971236 193.543286 
L 179.61904 194.068728 
L 183.266844 193.802436 
L 186.914648 194.769652 
L 190.562451 194.332837 
L 194.210255 194.896795 
L 197.858059 195.611413 
L 201.505863 196.032843 
L 205.153667 195.657278 
L 208.801471 196.692391 
L 212.449275 197.414708 
L 216.097079 197.276186 
L 219.744883 198.282424 
L 223.392686 198.359492 
L 227.04049 199.451607 
L 230.688294 199.056783 
L 234.336098 199.549272 
L 237.983902 199.722979 
L 241.631706 201.723317 
L 245.27951 202.168446 
L 248.927314 202.461163 
L 252.575117 202.97326 
L 256.222921 203.036464 
L 259.870725 202.945725 
L 263.518529 203.615372 
L 267.166333 204.972174 
L 270.814137 205.258171 
L 274.461941 205.145471 
L 278.109745 205.034328 
L 281.757549 206.355861 
L 285.405352 207.266738 
L 289.053156 205.537085 
L 292.70096 207.599336 
L 296.348764 207.69571 
L 299.996568 208.63679 
L 303.644372 208.774552 
L 307.292176 208.68 
L 310.93998 209.708911 
L 314.587783 210.598552 
L 318.235587 210.565357 
L 321.883391 210.732368 
L 325.531195 211.991517 
L 329.178999 211.987125 
L 332.826803 212.688507 
L 336.474607 213.2066 
L 340.122411 213.449363 
L 343.770215 214.37816 
L 347.418018 215.08946 
L 351.065822 214.283041 
L 354.713626 215.258872 
L 358.36143 216.13413 
L 362.009234 216.129593 
L 365.657038 216.801641 
L 369.304842 217.457702 
L 372.952646 217.245008 
L 376.600449 217.603644 
L 380.248253 218.664845 
L 383.896057 219.318577 
L 387.543861 218.887602 
L 391.191665 220.505581 
L 394.839469 220.169328 
L 398.487273 220.919747 
" clip-path="url(#p55267c0f02)" style="fill: none; stroke: #ff00ff; stroke-opacity: 0.3; stroke-width: 0.5; stroke-linecap: square"/>
   </g>
   <g id="line2d_51">
    <path d="M 73.832727 160.076762 
L 77.480531 170.583514 
L 81.128335 179.226495 
L 84.776139 186.602894 
L 88.423943 192.276656 
L 92.071747 196.785893 
L 95.719551 205.248337 
L 99.367354 205.008277 
L 103.015158 210.466703 
L 106.662962 213.729798 
L 110.310766 217.640881 
L 113.95857 218.475162 
L 117.606374 221.308863 
L 121.254178 224.817943 
L 124.901982 227.728773 
L 128.549785 229.251518 
L 132.197589 230.911887 
L 135.845393 233.196562 
L 139.493197 234.742885 
L 143.141001 237.217739 
L 146.788805 238.653335 
L 150.436609 239.157353 
L 154.084413 241.131827 
L 157.732217 242.066572 
L 161.38002 244.353197 
L 165.027824 245.183646 
L 168.675628 247.438476 
L 172.323432 248.95368 
L 175.971236 249.502488 
L 179.61904 251.655973 
L 183.266844 251.712781 
L 186.914648 253.833578 
L 190.562451 254.983164 
L 194.210255 256.887653 
L 197.858059 257.581258 
L 201.505863 258.204552 
L 205.153667 260.228607 
L 208.801471 261.108752 
L 212.449275 261.651273 
L 216.097079 264.064673 
L 219.744883 264.009108 
L 223.392686 265.680402 
L 227.04049 266.320318 
L 230.688294 267.249935 
L 234.336098 268.493054 
L 237.983902 269.793693 
L 241.631706 269.647033 
L 245.27951 271.140113 
L 248.927314 272.545935 
L 252.575117 273.090213 
L 256.222921 273.678182 
L 259.870725 274.26452 
L 263.518529 275.371718 
L 267.166333 276.158674 
L 270.814137 277.951127 
L 274.461941 277.799914 
L 278.109745 278.217133 
L 281.757549 278.20602 
L 285.405352 279.674491 
L 289.053156 279.962687 
L 292.70096 281.162759 
L 296.348764 281.64101 
L 299.996568 282.425224 
L 303.644372 283.214201 
L 307.292176 284.145915 
L 310.93998 285.000222 
L 314.587783 284.667894 
L 318.235587 285.60621 
L 321.883391 286.324192 
L 325.531195 286.460895 
L 329.178999 287.319915 
L 332.826803 287.962328 
L 336.474607 287.662355 
L 340.122411 287.714141 
L 343.770215 289.633981 
L 347.418018 289.745876 
L 351.065822 290.036199 
L 354.713626 290.486063 
L 358.36143 290.200283 
L 362.009234 291.572271 
L 365.657038 291.947167 
L 369.304842 292.256491 
L 372.952646 292.817695 
L 376.600449 293.108884 
L 380.248253 293.919161 
L 383.896057 293.797514 
L 387.543861 293.697372 
L 391.191665 294.61009 
L 394.839469 295.320983 
L 398.487273 295.488 
" clip-path="url(#p55267c0f02)" style="fill: none; stroke: #ff00ff; stroke-opacity: 0.3; stroke-width: 0.5; stroke-linecap: square"/>
   </g>
   <g id="line2d_52">
    <path d="M 73.832727 174.150416 
L 77.480531 175.145433 
L 81.128335 177.457662 
L 84.776139 179.367792 
L 88.423943 180.084812 
L 92.071747 180.926091 
L 95.719551 182.455792 
L 99.367354 182.917343 
L 103.015158 185.584975 
L 106.662962 185.568842 
L 110.310766 187.670803 
L 113.95857 188.889241 
L 117.606374 190.130363 
L 121.254178 191.043473 
L 124.901982 192.483751 
L 128.549785 194.209652 
L 132.197589 195.797646 
L 135.845393 196.434581 
L 139.493197 197.60719 
L 143.141001 198.592976 
L 146.788805 200.507643 
L 150.436609 201.594798 
L 154.084413 203.859945 
L 157.732217 203.901682 
L 161.38002 205.343456 
L 165.027824 206.139583 
L 168.675628 207.065303 
L 172.323432 208.27206 
L 175.971236 209.259113 
L 179.61904 210.314437 
L 183.266844 211.610859 
L 186.914648 212.743264 
L 190.562451 213.830902 
L 194.210255 214.7614 
L 197.858059 216.674944 
L 201.505863 216.996899 
L 205.153667 217.449858 
L 208.801471 219.021828 
L 212.449275 220.44508 
L 216.097079 221.765346 
L 219.744883 222.745394 
L 223.392686 223.75179 
L 227.04049 224.815247 
L 230.688294 224.515886 
L 234.336098 226.658963 
L 237.983902 226.663398 
L 241.631706 228.08382 
L 245.27951 228.560164 
L 248.927314 230.306149 
L 252.575117 231.579169 
L 256.222921 232.35258 
L 259.870725 233.521081 
L 263.518529 234.921703 
L 267.166333 235.341311 
L 270.814137 236.418548 
L 274.461941 237.420213 
L 278.109745 238.623121 
L 281.757549 239.338602 
L 285.405352 240.109697 
L 289.053156 240.41424 
L 292.70096 242.161679 
L 296.348764 242.066162 
L 299.996568 243.868859 
L 303.644372 244.463912 
L 307.292176 245.949885 
L 310.93998 246.430476 
L 314.587783 246.990663 
L 318.235587 247.984841 
L 321.883391 249.129463 
L 325.531195 250.870537 
L 329.178999 250.480341 
L 332.826803 251.610724 
L 336.474607 251.811176 
L 340.122411 253.195146 
L 343.770215 254.171478 
L 347.418018 254.920305 
L 351.065822 255.78921 
L 354.713626 256.2827 
L 358.36143 256.805825 
L 362.009234 258.352872 
L 365.657038 258.403484 
L 369.304842 260.052522 
L 372.952646 261.142405 
L 376.600449 261.669596 
L 380.248253 262.35131 
L 383.896057 262.451093 
L 387.543861 262.756456 
L 391.191665 263.994429 
L 394.839469 265.229603 
L 398.487273 265.126073 
" clip-path="url(#p55267c0f02)" style="fill: none; stroke: #ff00ff; stroke-opacity: 0.3; stroke-width: 0.5; stroke-linecap: square"/>
   </g>
   <g id="line2d_53">
    <path d="M 73.832727 174.249047 
L 77.480531 175.27143 
L 81.128335 174.342042 
L 84.776139 175.884968 
L 88.423943 175.263261 
L 92.071747 175.684534 
L 95.719551 177.51721 
L 99.367354 177.640335 
L 103.015158 178.196341 
L 106.662962 178.254151 
L 110.310766 177.876112 
L 113.95857 178.39867 
L 117.606374 179.463129 
L 121.254178 179.452015 
L 124.901982 180.376552 
L 128.549785 179.614767 
L 132.197589 180.026362 
L 135.845393 181.328082 
L 139.493197 181.389741 
L 143.141001 181.484016 
L 146.788805 181.638139 
L 150.436609 181.344468 
L 154.084413 183.366103 
L 157.732217 183.334417 
L 161.38002 183.514725 
L 165.027824 183.317367 
L 168.675628 183.30121 
L 172.323432 184.357295 
L 175.971236 184.18664 
L 179.61904 184.908064 
L 183.266844 185.5022 
L 186.914648 186.094453 
L 190.562451 185.754206 
L 194.210255 186.540728 
L 197.858059 186.685536 
L 201.505863 186.408034 
L 205.153667 186.854031 
L 208.801471 186.305904 
L 212.449275 187.508595 
L 216.097079 188.327491 
L 219.744883 188.433205 
L 223.392686 188.422212 
L 227.04049 189.650279 
L 230.688294 188.797175 
L 234.336098 189.114677 
L 237.983902 189.711383 
L 241.631706 191.03417 
L 245.27951 190.807805 
L 248.927314 190.669706 
L 252.575117 190.958683 
L 256.222921 190.703298 
L 259.870725 191.908041 
L 263.518529 192.580149 
L 267.166333 192.100113 
L 270.814137 192.545663 
L 274.461941 193.389296 
L 278.109745 192.452173 
L 281.757549 193.466725 
L 285.405352 193.902985 
L 289.053156 193.58675 
L 292.70096 193.61367 
L 296.348764 194.37782 
L 299.996568 194.95551 
L 303.644372 195.562424 
L 307.292176 194.717127 
L 310.93998 194.753072 
L 314.587783 196.00614 
L 318.235587 195.7777 
L 321.883391 196.327878 
L 325.531195 197.229622 
L 329.178999 196.717308 
L 332.826803 197.653211 
L 336.474607 197.471963 
L 340.122411 197.550599 
L 343.770215 198.438937 
L 347.418018 197.790647 
L 351.065822 198.357199 
L 354.713626 198.747776 
L 358.36143 199.136325 
L 362.009234 198.983938 
L 365.657038 199.505254 
L 369.304842 199.890291 
L 372.952646 199.935854 
L 376.600449 200.324463 
L 380.248253 200.663601 
L 383.896057 200.875148 
L 387.543861 200.839408 
L 391.191665 200.662358 
L 394.839469 201.474967 
L 398.487273 201.270648 
" clip-path="url(#p55267c0f02)" style="fill: none; stroke: #ff00ff; stroke-opacity: 0.3; stroke-width: 0.5; stroke-linecap: square"/>
   </g>
   <g id="line2d_54">
    <path d="M 73.832727 191.448155 
L 77.480531 192.202038 
L 81.128335 192.570255 
L 84.776139 192.599311 
L 88.423943 193.108499 
L 92.071747 192.637995 
L 95.719551 192.958743 
L 99.367354 193.6803 
L 103.015158 193.819618 
L 106.662962 193.921627 
L 110.310766 193.716644 
L 113.95857 194.834906 
L 117.606374 194.553857 
L 121.254178 194.285066 
L 124.901982 195.085911 
L 128.549785 195.486587 
L 132.197589 195.864904 
L 135.845393 196.137736 
L 139.493197 196.986726 
L 143.141001 196.080095 
L 146.788805 196.73811 
L 150.436609 197.400264 
L 154.084413 197.541887 
L 157.732217 197.43446 
L 161.38002 198.019233 
L 165.027824 198.345193 
L 168.675628 198.206925 
L 172.323432 198.298641 
L 175.971236 199.441929 
L 179.61904 199.491088 
L 183.266844 198.985012 
L 186.914648 199.780982 
L 190.562451 200.499715 
L 194.210255 200.397899 
L 197.858059 200.552397 
L 201.505863 201.183528 
L 205.153667 201.095468 
L 208.801471 201.552711 
L 212.449275 201.856108 
L 216.097079 201.642798 
L 219.744883 202.949441 
L 223.392686 202.706859 
L 227.04049 203.777254 
L 230.688294 204.115293 
L 234.336098 204.32917 
L 237.983902 204.850606 
L 241.631706 205.08777 
L 245.27951 205.98961 
L 248.927314 206.317393 
L 252.575117 206.705484 
L 256.222921 207.373067 
L 259.870725 207.188983 
L 263.518529 207.083306 
L 267.166333 208.292006 
L 270.814137 209.373261 
L 274.461941 209.676911 
L 278.109745 208.662202 
L 281.757549 209.352144 
L 285.405352 210.098075 
L 289.053156 210.176494 
L 292.70096 210.94225 
L 296.348764 210.774757 
L 299.996568 212.484778 
L 303.644372 212.698498 
L 307.292176 214.015891 
L 310.93998 213.765357 
L 314.587783 214.347294 
L 318.235587 214.329122 
L 321.883391 215.037092 
L 325.531195 214.984784 
L 329.178999 214.790106 
L 332.826803 216.043511 
L 336.474607 216.096085 
L 340.122411 216.755258 
L 343.770215 217.331524 
L 347.418018 217.363258 
L 351.065822 217.673991 
L 354.713626 218.270214 
L 358.36143 218.277949 
L 362.009234 218.450679 
L 365.657038 219.71118 
L 369.304842 219.850993 
L 372.952646 220.48724 
L 376.600449 221.595874 
L 380.248253 221.130993 
L 383.896057 222.181129 
L 387.543861 222.421081 
L 391.191665 223.506239 
L 394.839469 223.515186 
L 398.487273 223.377533 
" clip-path="url(#p55267c0f02)" style="fill: none; stroke: #ff00ff; stroke-opacity: 0.3; stroke-width: 0.5; stroke-linecap: square"/>
   </g>
   <g id="line2d_55">
    <path d="M 73.832727 182.408408 
L 77.480531 179.993083 
L 81.128335 178.356196 
L 84.776139 176.422634 
L 88.423943 174.651762 
L 92.071747 172.831285 
L 95.719551 170.871514 
L 99.367354 169.286175 
L 103.015158 167.773257 
L 106.662962 166.293764 
L 110.310766 165.119091 
L 113.95857 163.371737 
L 117.606374 162.044714 
L 121.254178 160.202675 
L 124.901982 159.257504 
L 128.549785 158.250119 
L 132.197589 156.204726 
L 135.845393 155.085462 
L 139.493197 153.925534 
L 143.141001 152.923157 
L 146.788805 151.388436 
L 150.436609 149.936586 
L 154.084413 148.915169 
L 157.732217 147.571229 
L 161.38002 146.441672 
L 165.027824 145.412435 
L 168.675628 144.625684 
L 172.323432 142.555832 
L 175.971236 141.996966 
L 179.61904 140.01597 
L 183.266844 139.428531 
L 186.914648 137.297406 
L 190.562451 136.482045 
L 194.210255 134.968694 
L 197.858059 133.620712 
L 201.505863 132.336114 
L 205.153667 131.03641 
L 208.801471 128.932506 
L 212.449275 128.383101 
L 216.097079 126.415631 
L 219.744883 125.204639 
L 223.392686 123.139444 
L 227.04049 121.34637 
L 230.688294 120.774883 
L 234.336098 119.377718 
L 237.983902 118.330068 
L 241.631706 116.169803 
L 245.27951 114.299733 
L 248.927314 113.339202 
L 252.575117 111.628939 
L 256.222921 110.394912 
L 259.870725 108.846556 
L 263.518529 106.910363 
L 267.166333 105.631425 
L 270.814137 104.19461 
L 274.461941 102.641138 
L 278.109745 101.571696 
L 281.757549 100.882537 
L 285.405352 97.94404 
L 289.053156 97.663521 
L 292.70096 95.709445 
L 296.348764 95.109723 
L 299.996568 92.904522 
L 303.644372 90.625282 
L 307.292176 89.408099 
L 310.93998 87.780298 
L 314.587783 86.795996 
L 318.235587 85.135713 
L 321.883391 83.12647 
L 325.531195 81.544449 
L 329.178999 81.50755 
L 332.826803 78.710807 
L 336.474607 78.797975 
L 340.122411 77.281377 
L 343.770215 75.162837 
L 347.418018 72.987923 
L 351.065822 72.341793 
L 354.713626 70.332285 
L 358.36143 71.048086 
L 362.009234 68.402221 
L 365.657038 66.865497 
L 369.304842 65.347307 
L 372.952646 63.289244 
L 376.600449 61.410486 
L 380.248253 59.942589 
L 383.896057 59.879964 
L 387.543861 59.247421 
L 391.191665 56.89962 
L 394.839469 53.568 
L 398.487273 54.594124 
" clip-path="url(#p55267c0f02)" style="fill: none; stroke: #6495ed; stroke-width: 2; stroke-linecap: square"/>
   </g>
   <g id="line2d_56">
    <path d="M 73.832727 179.801265 
L 77.480531 181.887984 
L 81.128335 183.537488 
L 84.776139 185.276288 
L 88.423943 186.83314 
L 92.071747 188.374897 
L 95.719551 189.973887 
L 99.367354 191.279247 
L 103.015158 192.588558 
L 106.662962 193.860026 
L 110.310766 194.904966 
L 113.95857 196.210585 
L 117.606374 197.281299 
L 121.254178 198.600957 
L 124.901982 199.471571 
L 128.549785 200.361113 
L 132.197589 201.646154 
L 135.845393 202.554512 
L 139.493197 203.474661 
L 143.141001 204.286717 
L 146.788805 205.29662 
L 150.436609 206.252818 
L 154.084413 207.034725 
L 157.732217 207.950192 
L 161.38002 208.749746 
L 165.027824 209.480292 
L 168.675628 210.123082 
L 172.323432 211.259599 
L 175.971236 211.792763 
L 179.61904 212.82965 
L 183.266844 213.410642 
L 186.914648 214.450994 
L 190.562451 215.059658 
L 194.210255 215.903244 
L 197.858059 216.654083 
L 201.505863 217.382824 
L 205.153667 218.112372 
L 208.801471 219.101131 
L 212.449275 219.599598 
L 216.097079 220.500018 
L 219.744883 221.198599 
L 223.392686 222.141659 
L 227.04049 222.96044 
L 230.688294 223.463128 
L 234.336098 224.157466 
L 237.983902 224.763754 
L 241.631706 225.692601 
L 245.27951 226.521067 
L 248.927314 227.095308 
L 252.575117 227.839649 
L 256.222921 228.475542 
L 259.870725 229.212236 
L 263.518529 230.006325 
L 267.166333 230.62709 
L 270.814137 231.288205 
L 274.461941 231.988762 
L 278.109745 232.543502 
L 281.757549 233.023773 
L 285.405352 234.026796 
L 289.053156 234.393591 
L 292.70096 235.141922 
L 296.348764 235.564963 
L 299.996568 236.381108 
L 303.644372 237.190449 
L 307.292176 237.734342 
L 310.93998 238.417299 
L 314.587783 238.900462 
L 318.235587 239.528875 
L 321.883391 240.269435 
L 325.531195 240.905144 
L 329.178999 241.16378 
L 332.826803 242.055219 
L 336.474607 242.291306 
L 340.122411 242.887887 
L 343.770215 243.573874 
L 347.418018 244.292503 
L 351.065822 244.684615 
L 354.713626 245.347627 
L 358.36143 245.474367 
L 362.009234 246.242856 
L 365.657038 246.805091 
L 369.304842 247.36987 
L 372.952646 248.01975 
L 376.600449 248.609922 
L 380.248253 249.15174 
L 383.896057 249.39558 
L 387.543861 249.740383 
L 391.191665 250.39685 
L 394.839469 251.271125 
L 398.487273 251.303826 
" clip-path="url(#p55267c0f02)" style="fill: none; stroke: #dc143c; stroke-width: 2; stroke-linecap: square"/>
   </g>
   <g id="line2d_57">
    <path d="M 73.832727 255.613258 
L 77.480531 252.916823 
L 81.128335 249.390716 
L 84.776139 244.412683 
L 88.423943 238.190141 
L 92.071747 230.100837 
L 95.719551 222.426368 
L 99.367354 216.411245 
L 103.015158 214.129646 
L 106.662962 210.396121 
L 110.310766 207.28485 
L 113.95857 206.870014 
L 117.606374 206.455178 
L 121.254178 204.173579 
L 124.901982 201.269726 
L 128.549785 200.440054 
L 132.197589 198.988127 
L 135.845393 197.743619 
L 139.493197 197.328783 
L 143.141001 196.499111 
L 146.788805 195.46202 
L 150.436609 194.632348 
L 154.084413 194.42493 
L 157.732217 193.802676 
L 161.38002 193.802676 
L 165.027824 192.143331 
L 168.675628 191.106241 
L 172.323432 191.106241 
L 175.971236 190.898823 
L 179.61904 190.276569 
L 183.266844 189.446897 
L 186.914648 188.824643 
L 190.562451 188.409806 
L 194.210255 187.99497 
L 197.858059 187.787552 
L 201.505863 187.580134 
L 205.153667 187.580134 
L 208.801471 187.580134 
L 212.449275 187.580134 
L 216.097079 187.372716 
L 219.744883 187.165298 
L 223.392686 187.165298 
L 227.04049 187.165298 
L 230.688294 186.95788 
L 234.336098 186.543044 
L 237.983902 186.128208 
L 241.631706 185.713372 
L 245.27951 185.92079 
L 248.927314 185.505954 
L 252.575117 185.505954 
L 256.222921 185.091117 
L 259.870725 185.091117 
L 263.518529 185.091117 
L 267.166333 184.883699 
L 270.814137 184.676281 
L 274.461941 184.468863 
L 278.109745 184.261445 
L 281.757549 184.261445 
L 285.405352 184.261445 
L 289.053156 184.054027 
L 292.70096 184.054027 
L 296.348764 183.639191 
L 299.996568 183.431773 
L 303.644372 183.224355 
L 307.292176 183.431773 
L 310.93998 183.639191 
L 314.587783 183.431773 
L 318.235587 183.431773 
L 321.883391 183.431773 
L 325.531195 183.224355 
L 329.178999 183.224355 
L 332.826803 183.224355 
L 336.474607 182.809519 
L 340.122411 182.602101 
L 343.770215 182.602101 
L 347.418018 182.602101 
L 351.065822 182.602101 
L 354.713626 182.809519 
L 358.36143 182.602101 
L 362.009234 182.809519 
L 365.657038 182.809519 
L 369.304842 182.602101 
L 372.952646 182.602101 
L 376.600449 182.602101 
L 380.248253 182.394683 
L 383.896057 182.394683 
L 387.543861 182.394683 
L 391.191665 182.394683 
L 394.839469 182.394683 
L 398.487273 182.394683 
" clip-path="url(#p55267c0f02)" style="fill: none; stroke: #ffff00; stroke-width: 3; stroke-linecap: square"/>
   </g>
   <g id="patch_3">
    <path d="M 57.6 307.584 
L 57.6 41.472 
" style="fill: none; stroke: #ffffff; stroke-linejoin: miter; stroke-linecap: square"/>
   </g>
   <g id="patch_4">
    <path d="M 414.72 307.584 
L 414.72 41.472 
" style="fill: none; stroke: #ffffff; stroke-linejoin: miter; stroke-linecap: square"/>
   </g>
   <g id="patch_5">
    <path d="M 57.6 307.584 
L 414.72 307.584 
" style="fill: none; stroke: #ffffff; stroke-linejoin: miter; stroke-linecap: square"/>
   </g>
   <g id="patch_6">
    <path d="M 57.6 41.472 
L 414.72 41.472 
" style="fill: none; stroke: #ffffff; stroke-linejoin: miter; stroke-linecap: square"/>
   </g>
  </g>
 </g>
 <defs>
  <clipPath id="p55267c0f02">
   <rect x="57.6" y="41.472" width="357.12" height="266.112"/>
  </clipPath>
 </defs>
</svg>
