<?xml version="1.0" encoding="utf-8" standalone="no"?>
<!DOCTYPE svg PUBLIC "-//W3C//DTD SVG 1.1//EN"
  "http://www.w3.org/Graphics/SVG/1.1/DTD/svg11.dtd">
<svg xmlns:xlink="http://www.w3.org/1999/xlink" width="460.8pt" height="345.6pt" viewBox="0 0 460.8 345.6" xmlns="http://www.w3.org/2000/svg" version="1.1">
 <metadata>
  <rdf:RDF xmlns:dc="http://purl.org/dc/elements/1.1/" xmlns:cc="http://creativecommons.org/ns#" xmlns:rdf="http://www.w3.org/1999/02/22-rdf-syntax-ns#">
   <cc:Work>
    <dc:type rdf:resource="http://purl.org/dc/dcmitype/StillImage"/>
    <dc:date>2023-07-12T17:52:56.086810</dc:date>
    <dc:format>image/svg+xml</dc:format>
    <dc:creator>
     <cc:Agent>
      <dc:title>Matplotlib v3.7.1, https://matplotlib.org/</dc:title>
     </cc:Agent>
    </dc:creator>
   </cc:Work>
  </rdf:RDF>
 </metadata>
 <defs>
  <style type="text/css">*{stroke-linejoin: round; stroke-linecap: butt}</style>
 </defs>
 <g id="figure_1">
  <g id="patch_1">
   <path d="M 0 345.6 
L 460.8 345.6 
L 460.8 0 
L 0 0 
z
" style="fill: #ffffff"/>
  </g>
  <g id="axes_1">
   <g id="patch_2">
    <path d="M 57.6 307.584 
L 414.72 307.584 
L 414.72 41.472 
L 57.6 41.472 
z
" style="fill: #e5e5e5"/>
   </g>
   <g id="matplotlib.axis_1">
    <g id="xtick_1">
     <g id="line2d_1">
      <path d="M 70.184923 307.584 
L 70.184923 41.472 
" clip-path="url(#p2d79ec948f)" style="fill: none; stroke: #ffffff; stroke-width: 0.8; stroke-linecap: square"/>
     </g>
     <g id="line2d_2">
      <defs>
       <path id="m2effff7419" d="M 0 0 
L 0 3.5 
" style="stroke: #555555; stroke-width: 0.8"/>
      </defs>
      <g>
       <use xlink:href="#m2effff7419" x="70.184923" y="307.584" style="fill: #555555; stroke: #555555; stroke-width: 0.8"/>
      </g>
     </g>
     <g id="text_1">
      <!-- 0 -->
      <g style="fill: #555555" transform="translate(67.003673 322.182437) scale(0.1 -0.1)">
       <defs>
        <path id="DejaVuSans-30" d="M 2034 4250 
Q 1547 4250 1301 3770 
Q 1056 3291 1056 2328 
Q 1056 1369 1301 889 
Q 1547 409 2034 409 
Q 2525 409 2770 889 
Q 3016 1369 3016 2328 
Q 3016 3291 2770 3770 
Q 2525 4250 2034 4250 
z
M 2034 4750 
Q 2819 4750 3233 4129 
Q 3647 3509 3647 2328 
Q 3647 1150 3233 529 
Q 2819 -91 2034 -91 
Q 1250 -91 836 529 
Q 422 1150 422 2328 
Q 422 3509 836 4129 
Q 1250 4750 2034 4750 
z
" transform="scale(0.015625)"/>
       </defs>
       <use xlink:href="#DejaVuSans-30"/>
      </g>
     </g>
    </g>
    <g id="xtick_2">
     <g id="line2d_3">
      <path d="M 143.141001 307.584 
L 143.141001 41.472 
" clip-path="url(#p2d79ec948f)" style="fill: none; stroke: #ffffff; stroke-width: 0.8; stroke-linecap: square"/>
     </g>
     <g id="line2d_4">
      <g>
       <use xlink:href="#m2effff7419" x="143.141001" y="307.584" style="fill: #555555; stroke: #555555; stroke-width: 0.8"/>
      </g>
     </g>
     <g id="text_2">
      <!-- 20 -->
      <g style="fill: #555555" transform="translate(136.778501 322.182437) scale(0.1 -0.1)">
       <defs>
        <path id="DejaVuSans-32" d="M 1228 531 
L 3431 531 
L 3431 0 
L 469 0 
L 469 531 
Q 828 903 1448 1529 
Q 2069 2156 2228 2338 
Q 2531 2678 2651 2914 
Q 2772 3150 2772 3378 
Q 2772 3750 2511 3984 
Q 2250 4219 1831 4219 
Q 1534 4219 1204 4116 
Q 875 4013 500 3803 
L 500 4441 
Q 881 4594 1212 4672 
Q 1544 4750 1819 4750 
Q 2544 4750 2975 4387 
Q 3406 4025 3406 3419 
Q 3406 3131 3298 2873 
Q 3191 2616 2906 2266 
Q 2828 2175 2409 1742 
Q 1991 1309 1228 531 
z
" transform="scale(0.015625)"/>
       </defs>
       <use xlink:href="#DejaVuSans-32"/>
       <use xlink:href="#DejaVuSans-30" x="63.623047"/>
      </g>
     </g>
    </g>
    <g id="xtick_3">
     <g id="line2d_5">
      <path d="M 216.097079 307.584 
L 216.097079 41.472 
" clip-path="url(#p2d79ec948f)" style="fill: none; stroke: #ffffff; stroke-width: 0.8; stroke-linecap: square"/>
     </g>
     <g id="line2d_6">
      <g>
       <use xlink:href="#m2effff7419" x="216.097079" y="307.584" style="fill: #555555; stroke: #555555; stroke-width: 0.8"/>
      </g>
     </g>
     <g id="text_3">
      <!-- 40 -->
      <g style="fill: #555555" transform="translate(209.734579 322.182437) scale(0.1 -0.1)">
       <defs>
        <path id="DejaVuSans-34" d="M 2419 4116 
L 825 1625 
L 2419 1625 
L 2419 4116 
z
M 2253 4666 
L 3047 4666 
L 3047 1625 
L 3713 1625 
L 3713 1100 
L 3047 1100 
L 3047 0 
L 2419 0 
L 2419 1100 
L 313 1100 
L 313 1709 
L 2253 4666 
z
" transform="scale(0.015625)"/>
       </defs>
       <use xlink:href="#DejaVuSans-34"/>
       <use xlink:href="#DejaVuSans-30" x="63.623047"/>
      </g>
     </g>
    </g>
    <g id="xtick_4">
     <g id="line2d_7">
      <path d="M 289.053156 307.584 
L 289.053156 41.472 
" clip-path="url(#p2d79ec948f)" style="fill: none; stroke: #ffffff; stroke-width: 0.8; stroke-linecap: square"/>
     </g>
     <g id="line2d_8">
      <g>
       <use xlink:href="#m2effff7419" x="289.053156" y="307.584" style="fill: #555555; stroke: #555555; stroke-width: 0.8"/>
      </g>
     </g>
     <g id="text_4">
      <!-- 60 -->
      <g style="fill: #555555" transform="translate(282.690656 322.182437) scale(0.1 -0.1)">
       <defs>
        <path id="DejaVuSans-36" d="M 2113 2584 
Q 1688 2584 1439 2293 
Q 1191 2003 1191 1497 
Q 1191 994 1439 701 
Q 1688 409 2113 409 
Q 2538 409 2786 701 
Q 3034 994 3034 1497 
Q 3034 2003 2786 2293 
Q 2538 2584 2113 2584 
z
M 3366 4563 
L 3366 3988 
Q 3128 4100 2886 4159 
Q 2644 4219 2406 4219 
Q 1781 4219 1451 3797 
Q 1122 3375 1075 2522 
Q 1259 2794 1537 2939 
Q 1816 3084 2150 3084 
Q 2853 3084 3261 2657 
Q 3669 2231 3669 1497 
Q 3669 778 3244 343 
Q 2819 -91 2113 -91 
Q 1303 -91 875 529 
Q 447 1150 447 2328 
Q 447 3434 972 4092 
Q 1497 4750 2381 4750 
Q 2619 4750 2861 4703 
Q 3103 4656 3366 4563 
z
" transform="scale(0.015625)"/>
       </defs>
       <use xlink:href="#DejaVuSans-36"/>
       <use xlink:href="#DejaVuSans-30" x="63.623047"/>
      </g>
     </g>
    </g>
    <g id="xtick_5">
     <g id="line2d_9">
      <path d="M 362.009234 307.584 
L 362.009234 41.472 
" clip-path="url(#p2d79ec948f)" style="fill: none; stroke: #ffffff; stroke-width: 0.8; stroke-linecap: square"/>
     </g>
     <g id="line2d_10">
      <g>
       <use xlink:href="#m2effff7419" x="362.009234" y="307.584" style="fill: #555555; stroke: #555555; stroke-width: 0.8"/>
      </g>
     </g>
     <g id="text_5">
      <!-- 80 -->
      <g style="fill: #555555" transform="translate(355.646734 322.182437) scale(0.1 -0.1)">
       <defs>
        <path id="DejaVuSans-38" d="M 2034 2216 
Q 1584 2216 1326 1975 
Q 1069 1734 1069 1313 
Q 1069 891 1326 650 
Q 1584 409 2034 409 
Q 2484 409 2743 651 
Q 3003 894 3003 1313 
Q 3003 1734 2745 1975 
Q 2488 2216 2034 2216 
z
M 1403 2484 
Q 997 2584 770 2862 
Q 544 3141 544 3541 
Q 544 4100 942 4425 
Q 1341 4750 2034 4750 
Q 2731 4750 3128 4425 
Q 3525 4100 3525 3541 
Q 3525 3141 3298 2862 
Q 3072 2584 2669 2484 
Q 3125 2378 3379 2068 
Q 3634 1759 3634 1313 
Q 3634 634 3220 271 
Q 2806 -91 2034 -91 
Q 1263 -91 848 271 
Q 434 634 434 1313 
Q 434 1759 690 2068 
Q 947 2378 1403 2484 
z
M 1172 3481 
Q 1172 3119 1398 2916 
Q 1625 2713 2034 2713 
Q 2441 2713 2670 2916 
Q 2900 3119 2900 3481 
Q 2900 3844 2670 4047 
Q 2441 4250 2034 4250 
Q 1625 4250 1398 4047 
Q 1172 3844 1172 3481 
z
" transform="scale(0.015625)"/>
       </defs>
       <use xlink:href="#DejaVuSans-38"/>
       <use xlink:href="#DejaVuSans-30" x="63.623047"/>
      </g>
     </g>
    </g>
   </g>
   <g id="matplotlib.axis_2">
    <g id="ytick_1">
     <g id="line2d_11">
      <path d="M 57.6 284.513132 
L 414.72 284.513132 
" clip-path="url(#p2d79ec948f)" style="fill: none; stroke: #ffffff; stroke-width: 0.8; stroke-linecap: square"/>
     </g>
     <g id="line2d_12">
      <defs>
       <path id="mce27d4acc6" d="M 0 0 
L -3.5 0 
" style="stroke: #555555; stroke-width: 0.8"/>
      </defs>
      <g>
       <use xlink:href="#mce27d4acc6" x="57.6" y="284.513132" style="fill: #555555; stroke: #555555; stroke-width: 0.8"/>
      </g>
     </g>
     <g id="text_6">
      <!-- 0.2 -->
      <g style="fill: #555555" transform="translate(34.696875 288.312351) scale(0.1 -0.1)">
       <defs>
        <path id="DejaVuSans-2e" d="M 684 794 
L 1344 794 
L 1344 0 
L 684 0 
L 684 794 
z
" transform="scale(0.015625)"/>
       </defs>
       <use xlink:href="#DejaVuSans-30"/>
       <use xlink:href="#DejaVuSans-2e" x="63.623047"/>
       <use xlink:href="#DejaVuSans-32" x="95.410156"/>
      </g>
     </g>
    </g>
    <g id="ytick_2">
     <g id="line2d_13">
      <path d="M 57.6 241.156849 
L 414.72 241.156849 
" clip-path="url(#p2d79ec948f)" style="fill: none; stroke: #ffffff; stroke-width: 0.8; stroke-linecap: square"/>
     </g>
     <g id="line2d_14">
      <g>
       <use xlink:href="#mce27d4acc6" x="57.6" y="241.156849" style="fill: #555555; stroke: #555555; stroke-width: 0.8"/>
      </g>
     </g>
     <g id="text_7">
      <!-- 0.4 -->
      <g style="fill: #555555" transform="translate(34.696875 244.956068) scale(0.1 -0.1)">
       <use xlink:href="#DejaVuSans-30"/>
       <use xlink:href="#DejaVuSans-2e" x="63.623047"/>
       <use xlink:href="#DejaVuSans-34" x="95.410156"/>
      </g>
     </g>
    </g>
    <g id="ytick_3">
     <g id="line2d_15">
      <path d="M 57.6 197.800566 
L 414.72 197.800566 
" clip-path="url(#p2d79ec948f)" style="fill: none; stroke: #ffffff; stroke-width: 0.8; stroke-linecap: square"/>
     </g>
     <g id="line2d_16">
      <g>
       <use xlink:href="#mce27d4acc6" x="57.6" y="197.800566" style="fill: #555555; stroke: #555555; stroke-width: 0.8"/>
      </g>
     </g>
     <g id="text_8">
      <!-- 0.6 -->
      <g style="fill: #555555" transform="translate(34.696875 201.599784) scale(0.1 -0.1)">
       <use xlink:href="#DejaVuSans-30"/>
       <use xlink:href="#DejaVuSans-2e" x="63.623047"/>
       <use xlink:href="#DejaVuSans-36" x="95.410156"/>
      </g>
     </g>
    </g>
    <g id="ytick_4">
     <g id="line2d_17">
      <path d="M 57.6 154.444282 
L 414.72 154.444282 
" clip-path="url(#p2d79ec948f)" style="fill: none; stroke: #ffffff; stroke-width: 0.8; stroke-linecap: square"/>
     </g>
     <g id="line2d_18">
      <g>
       <use xlink:href="#mce27d4acc6" x="57.6" y="154.444282" style="fill: #555555; stroke: #555555; stroke-width: 0.8"/>
      </g>
     </g>
     <g id="text_9">
      <!-- 0.8 -->
      <g style="fill: #555555" transform="translate(34.696875 158.243501) scale(0.1 -0.1)">
       <use xlink:href="#DejaVuSans-30"/>
       <use xlink:href="#DejaVuSans-2e" x="63.623047"/>
       <use xlink:href="#DejaVuSans-38" x="95.410156"/>
      </g>
     </g>
    </g>
    <g id="ytick_5">
     <g id="line2d_19">
      <path d="M 57.6 111.087999 
L 414.72 111.087999 
" clip-path="url(#p2d79ec948f)" style="fill: none; stroke: #ffffff; stroke-width: 0.8; stroke-linecap: square"/>
     </g>
     <g id="line2d_20">
      <g>
       <use xlink:href="#mce27d4acc6" x="57.6" y="111.087999" style="fill: #555555; stroke: #555555; stroke-width: 0.8"/>
      </g>
     </g>
     <g id="text_10">
      <!-- 1.0 -->
      <g style="fill: #555555" transform="translate(34.696875 114.887218) scale(0.1 -0.1)">
       <defs>
        <path id="DejaVuSans-31" d="M 794 531 
L 1825 531 
L 1825 4091 
L 703 3866 
L 703 4441 
L 1819 4666 
L 2450 4666 
L 2450 531 
L 3481 531 
L 3481 0 
L 794 0 
L 794 531 
z
" transform="scale(0.015625)"/>
       </defs>
       <use xlink:href="#DejaVuSans-31"/>
       <use xlink:href="#DejaVuSans-2e" x="63.623047"/>
       <use xlink:href="#DejaVuSans-30" x="95.410156"/>
      </g>
     </g>
    </g>
    <g id="ytick_6">
     <g id="line2d_21">
      <path d="M 57.6 67.731716 
L 414.72 67.731716 
" clip-path="url(#p2d79ec948f)" style="fill: none; stroke: #ffffff; stroke-width: 0.8; stroke-linecap: square"/>
     </g>
     <g id="line2d_22">
      <g>
       <use xlink:href="#mce27d4acc6" x="57.6" y="67.731716" style="fill: #555555; stroke: #555555; stroke-width: 0.8"/>
      </g>
     </g>
     <g id="text_11">
      <!-- 1.2 -->
      <g style="fill: #555555" transform="translate(34.696875 71.530935) scale(0.1 -0.1)">
       <use xlink:href="#DejaVuSans-31"/>
       <use xlink:href="#DejaVuSans-2e" x="63.623047"/>
       <use xlink:href="#DejaVuSans-32" x="95.410156"/>
      </g>
     </g>
    </g>
   </g>
   <g id="line2d_23">
    <path d="M 73.832727 180.952583 
L 77.480531 180.273743 
L 81.128335 180.806354 
L 84.776139 181.683237 
L 88.423943 182.070989 
L 92.071747 181.966444 
L 95.719551 182.549189 
L 99.367354 181.839803 
L 103.015158 181.946416 
L 106.662962 183.018899 
L 110.310766 183.904336 
L 113.95857 183.856063 
L 117.606374 184.154115 
L 121.254178 183.454627 
L 124.901982 183.847095 
L 128.549785 185.774057 
L 132.197589 185.005014 
L 135.845393 184.141776 
L 139.493197 185.426438 
L 143.141001 185.174385 
L 146.788805 185.867826 
L 150.436609 185.800868 
L 154.084413 185.123747 
L 157.732217 186.222822 
L 161.38002 186.626376 
L 165.027824 186.768845 
L 168.675628 187.714146 
L 172.323432 187.194043 
L 175.971236 187.600775 
L 179.61904 187.792732 
L 183.266844 187.472313 
L 186.914648 187.924386 
L 190.562451 189.196373 
L 194.210255 188.043313 
L 197.858059 188.685056 
L 201.505863 188.725047 
L 205.153667 189.812145 
L 208.801471 190.083864 
L 212.449275 189.978156 
L 216.097079 190.751062 
L 219.744883 190.847816 
L 223.392686 190.706781 
L 227.04049 190.947193 
L 230.688294 191.678945 
L 234.336098 191.034656 
L 237.983902 192.231597 
L 241.631706 192.356583 
L 245.27951 192.049473 
L 248.927314 193.01683 
L 252.575117 192.585379 
L 256.222921 193.096476 
L 259.870725 192.668462 
L 263.518529 193.637977 
L 267.166333 193.826781 
L 270.814137 194.389809 
L 274.461941 194.904201 
L 278.109745 194.795521 
L 281.757549 195.18733 
L 285.405352 195.383021 
L 289.053156 195.286487 
L 292.70096 195.425415 
L 296.348764 196.372887 
L 299.996568 195.947353 
L 303.644372 196.471914 
L 307.292176 196.358957 
L 310.93998 197.362894 
L 314.587783 197.280431 
L 318.235587 197.56838 
L 321.883391 198.641419 
L 325.531195 197.723512 
L 329.178999 198.460652 
L 332.826803 199.371595 
L 336.474607 199.090585 
L 340.122411 199.955258 
L 343.770215 199.907591 
L 347.418018 198.798127 
L 351.065822 200.353411 
L 354.713626 200.734379 
L 358.36143 200.635777 
L 362.009234 200.645985 
L 365.657038 202.074021 
L 369.304842 202.290606 
L 372.952646 202.623623 
L 376.600449 201.745526 
L 380.248253 203.141414 
L 383.896057 203.006452 
L 387.543861 203.26494 
L 391.191665 203.598177 
L 394.839469 203.741111 
L 398.487273 203.525237 
" clip-path="url(#p2d79ec948f)" style="fill: none; stroke: #ff00ff; stroke-opacity: 0.3; stroke-width: 0.5; stroke-linecap: square"/>
   </g>
   <g id="line2d_24">
    <path d="M 73.832727 180.344461 
L 77.480531 181.640106 
L 81.128335 182.22855 
L 84.776139 183.272413 
L 88.423943 182.943685 
L 92.071747 183.435814 
L 95.719551 184.804102 
L 99.367354 185.563131 
L 103.015158 187.678199 
L 106.662962 187.185114 
L 110.310766 188.46183 
L 113.95857 189.501739 
L 117.606374 188.375491 
L 121.254178 191.270274 
L 124.901982 191.057023 
L 128.549785 190.80997 
L 132.197589 192.881946 
L 135.845393 193.76525 
L 139.493197 193.900173 
L 143.141001 195.220098 
L 146.788805 195.812237 
L 150.436609 196.632706 
L 154.084413 196.318501 
L 157.732217 196.435141 
L 161.38002 197.964789 
L 165.027824 199.017309 
L 168.675628 199.74512 
L 172.323432 199.548434 
L 175.971236 200.279205 
L 179.61904 202.058335 
L 183.266844 202.530281 
L 186.914648 202.669713 
L 190.562451 204.575716 
L 194.210255 204.615333 
L 197.858059 205.778626 
L 201.505863 206.930304 
L 205.153667 207.614041 
L 208.801471 207.956336 
L 212.449275 209.08389 
L 216.097079 208.656897 
L 219.744883 208.953063 
L 223.392686 211.362592 
L 227.04049 211.36108 
L 230.688294 212.39657 
L 234.336098 212.06783 
L 237.983902 213.143531 
L 241.631706 213.318574 
L 245.27951 214.823491 
L 248.927314 215.189328 
L 252.575117 216.969634 
L 256.222921 216.379873 
L 259.870725 216.9245 
L 263.518529 219.661277 
L 267.166333 218.584484 
L 270.814137 220.27504 
L 274.461941 220.635469 
L 278.109745 221.750671 
L 281.757549 221.954186 
L 285.405352 223.345461 
L 289.053156 222.606692 
L 292.70096 223.6759 
L 296.348764 223.530363 
L 299.996568 225.002899 
L 303.644372 225.765901 
L 307.292176 226.872141 
L 310.93998 227.397329 
L 314.587783 228.264722 
L 318.235587 229.216896 
L 321.883391 228.398475 
L 325.531195 230.470612 
L 329.178999 231.308958 
L 332.826803 232.584207 
L 336.474607 233.161739 
L 340.122411 231.868451 
L 343.770215 233.869083 
L 347.418018 235.184859 
L 351.065822 235.061585 
L 354.713626 235.556511 
L 358.36143 236.377374 
L 362.009234 237.063722 
L 365.657038 238.142453 
L 369.304842 238.398376 
L 372.952646 239.941662 
L 376.600449 239.547347 
L 380.248253 239.755042 
L 383.896057 240.974581 
L 387.543861 241.685117 
L 391.191665 241.834092 
L 394.839469 242.272824 
L 398.487273 244.218637 
" clip-path="url(#p2d79ec948f)" style="fill: none; stroke: #ff00ff; stroke-opacity: 0.3; stroke-width: 0.5; stroke-linecap: square"/>
   </g>
   <g id="line2d_25">
    <path d="M 73.832727 163.725731 
L 77.480531 166.816606 
L 81.128335 170.452962 
L 84.776139 168.92971 
L 88.423943 170.775979 
L 92.071747 170.676447 
L 95.719551 173.318518 
L 99.367354 173.181489 
L 103.015158 174.937593 
L 106.662962 176.238614 
L 110.310766 177.793407 
L 113.95857 178.68657 
L 117.606374 179.893253 
L 121.254178 180.565633 
L 124.901982 182.663089 
L 128.549785 182.160985 
L 132.197589 181.946416 
L 135.845393 184.17236 
L 139.493197 184.178808 
L 143.141001 185.084014 
L 146.788805 187.684776 
L 150.436609 187.204483 
L 154.084413 188.869894 
L 157.732217 188.568275 
L 161.38002 190.24711 
L 165.027824 189.901546 
L 168.675628 191.402975 
L 172.323432 192.098767 
L 175.971236 192.59715 
L 179.61904 194.303663 
L 183.266844 193.92369 
L 186.914648 195.093599 
L 190.562451 196.656636 
L 194.210255 196.188501 
L 197.858059 196.891194 
L 201.505863 196.999279 
L 205.153667 197.523143 
L 208.801471 198.298078 
L 212.449275 199.644645 
L 216.097079 198.771355 
L 219.744883 201.167251 
L 223.392686 200.921594 
L 227.04049 202.631324 
L 230.688294 202.12369 
L 234.336098 203.578124 
L 237.983902 202.927762 
L 241.631706 204.656693 
L 245.27951 204.483782 
L 248.927314 204.568959 
L 252.575117 208.071205 
L 256.222921 207.777959 
L 259.870725 207.634418 
L 263.518529 208.418126 
L 267.166333 209.896865 
L 270.814137 211.79266 
L 274.461941 210.910182 
L 278.109745 210.900931 
L 281.757549 211.619633 
L 285.405352 213.000971 
L 289.053156 213.715021 
L 292.70096 213.357622 
L 296.348764 214.089413 
L 299.996568 215.786648 
L 303.644372 214.813154 
L 307.292176 215.547516 
L 310.93998 217.013799 
L 314.587783 218.157194 
L 318.235587 218.857909 
L 321.883391 219.366732 
L 325.531195 219.587168 
L 329.178999 219.94 
L 332.826803 220.391201 
L 336.474607 221.612091 
L 340.122411 222.399553 
L 343.770215 222.915521 
L 347.418018 223.559616 
L 351.065822 223.772557 
L 354.713626 223.533231 
L 358.36143 225.403643 
L 362.009234 225.555919 
L 365.657038 225.398643 
L 369.304842 226.98475 
L 372.952646 227.730896 
L 376.600449 228.176916 
L 380.248253 228.610667 
L 383.896057 228.437723 
L 387.543861 229.000221 
L 391.191665 230.323679 
L 394.839469 231.89629 
L 398.487273 231.838597 
" clip-path="url(#p2d79ec948f)" style="fill: none; stroke: #ff00ff; stroke-opacity: 0.3; stroke-width: 0.5; stroke-linecap: square"/>
   </g>
   <g id="line2d_26">
    <path d="M 73.832727 164.673474 
L 77.480531 164.784996 
L 81.128335 165.972802 
L 84.776139 166.957938 
L 88.423943 167.759581 
L 92.071747 168.853436 
L 95.719551 168.409361 
L 99.367354 170.168296 
L 103.015158 170.994812 
L 106.662962 172.342607 
L 110.310766 172.861767 
L 113.95857 174.349292 
L 117.606374 174.608517 
L 121.254178 174.921894 
L 124.901982 174.875921 
L 128.549785 177.52347 
L 132.197589 177.039223 
L 135.845393 177.77688 
L 139.493197 179.437846 
L 143.141001 180.621607 
L 146.788805 180.348686 
L 150.436609 181.080619 
L 154.084413 181.250985 
L 157.732217 183.457625 
L 161.38002 182.764197 
L 165.027824 182.923993 
L 168.675628 184.763892 
L 172.323432 183.180673 
L 175.971236 185.684784 
L 179.61904 185.010518 
L 183.266844 185.595215 
L 186.914648 186.881182 
L 190.562451 186.732485 
L 194.210255 188.128877 
L 197.858059 188.363926 
L 201.505863 188.543414 
L 205.153667 189.043373 
L 208.801471 189.569291 
L 212.449275 190.857417 
L 216.097079 191.121655 
L 219.744883 191.472878 
L 223.392686 192.185223 
L 227.04049 192.79288 
L 230.688294 193.498363 
L 234.336098 193.77175 
L 237.983902 193.023187 
L 241.631706 194.725746 
L 245.27951 194.449207 
L 248.927314 195.182109 
L 252.575117 196.128159 
L 256.222921 196.578656 
L 259.870725 197.211277 
L 263.518529 197.527859 
L 267.166333 197.745361 
L 270.814137 197.878088 
L 274.461941 198.668928 
L 278.109745 199.034637 
L 281.757549 200.283107 
L 285.405352 200.567657 
L 289.053156 200.942203 
L 292.70096 201.216158 
L 296.348764 201.66796 
L 299.996568 201.650387 
L 303.644372 202.692622 
L 307.292176 203.961082 
L 310.93998 203.883128 
L 314.587783 204.109688 
L 318.235587 204.442434 
L 321.883391 204.964476 
L 325.531195 206.165138 
L 329.178999 206.979056 
L 332.826803 207.055446 
L 336.474607 206.369745 
L 340.122411 207.727502 
L 343.770215 207.656319 
L 347.418018 208.282854 
L 351.065822 209.207287 
L 354.713626 209.470983 
L 358.36143 208.982769 
L 362.009234 209.198475 
L 365.657038 211.079308 
L 369.304842 211.039278 
L 372.952646 211.190094 
L 376.600449 212.673729 
L 380.248253 212.321266 
L 383.896057 213.622183 
L 387.543861 213.616769 
L 391.191665 214.135011 
L 394.839469 214.48745 
L 398.487273 214.744465 
" clip-path="url(#p2d79ec948f)" style="fill: none; stroke: #ff00ff; stroke-opacity: 0.3; stroke-width: 0.5; stroke-linecap: square"/>
   </g>
   <g id="line2d_27">
    <path d="M 73.832727 176.12735 
L 77.480531 176.658449 
L 81.128335 176.468456 
L 84.776139 179.243615 
L 88.423943 180.637862 
L 92.071747 179.833932 
L 95.719551 181.159542 
L 99.367354 181.616693 
L 103.015158 184.055604 
L 106.662962 185.89664 
L 110.310766 184.434919 
L 113.95857 187.65246 
L 117.606374 186.668138 
L 121.254178 188.728368 
L 124.901982 188.496549 
L 128.549785 190.890417 
L 132.197589 191.327618 
L 135.845393 191.918956 
L 139.493197 194.086109 
L 143.141001 194.705434 
L 146.788805 193.908146 
L 150.436609 195.031332 
L 154.084413 195.253008 
L 157.732217 196.040657 
L 161.38002 198.01805 
L 165.027824 197.768968 
L 168.675628 198.657907 
L 172.323432 199.006688 
L 175.971236 200.258053 
L 179.61904 201.895915 
L 183.266844 201.830935 
L 186.914648 202.724667 
L 190.562451 204.117893 
L 194.210255 202.800488 
L 197.858059 205.373767 
L 201.505863 206.323448 
L 205.153667 207.17874 
L 208.801471 207.002598 
L 212.449275 209.384243 
L 216.097079 209.122188 
L 219.744883 210.533246 
L 223.392686 210.338562 
L 227.04049 212.109332 
L 230.688294 211.992757 
L 234.336098 213.123425 
L 237.983902 214.406925 
L 241.631706 214.873224 
L 245.27951 215.348633 
L 248.927314 216.650016 
L 252.575117 217.571296 
L 256.222921 217.129779 
L 259.870725 218.303242 
L 263.518529 219.856703 
L 267.166333 219.756106 
L 270.814137 221.090973 
L 274.461941 221.802472 
L 278.109745 221.581267 
L 281.757549 223.2671 
L 285.405352 223.930422 
L 289.053156 224.005752 
L 292.70096 224.688159 
L 296.348764 226.055084 
L 299.996568 226.162536 
L 303.644372 226.650421 
L 307.292176 227.555265 
L 310.93998 228.245624 
L 314.587783 230.34549 
L 318.235587 229.816445 
L 321.883391 230.176494 
L 325.531195 231.528767 
L 329.178999 232.277794 
L 332.826803 232.575421 
L 336.474607 232.568262 
L 340.122411 233.174479 
L 343.770215 234.596487 
L 347.418018 234.831782 
L 351.065822 236.122414 
L 354.713626 237.20758 
L 358.36143 237.001261 
L 362.009234 237.304282 
L 365.657038 238.611931 
L 369.304842 239.606584 
L 372.952646 239.678361 
L 376.600449 240.073762 
L 380.248253 239.957878 
L 383.896057 241.045286 
L 387.543861 240.920642 
L 391.191665 243.647812 
L 394.839469 243.78895 
L 398.487273 243.513477 
" clip-path="url(#p2d79ec948f)" style="fill: none; stroke: #ff00ff; stroke-opacity: 0.3; stroke-width: 0.5; stroke-linecap: square"/>
   </g>
   <g id="line2d_28">
    <path d="M 73.832727 180.093105 
L 77.480531 181.462207 
L 81.128335 181.599728 
L 84.776139 184.027979 
L 88.423943 185.728471 
L 92.071747 186.086491 
L 95.719551 188.311479 
L 99.367354 189.375512 
L 103.015158 190.479989 
L 106.662962 191.483215 
L 110.310766 192.728184 
L 113.95857 194.949425 
L 117.606374 195.083224 
L 121.254178 197.006657 
L 124.901982 198.873871 
L 128.549785 199.062766 
L 132.197589 199.545669 
L 135.845393 201.24828 
L 139.493197 202.67965 
L 143.141001 203.658325 
L 146.788805 204.613304 
L 150.436609 204.986145 
L 154.084413 207.190446 
L 157.732217 207.79026 
L 161.38002 208.551809 
L 165.027824 210.060124 
L 168.675628 210.912288 
L 172.323432 211.1945 
L 175.971236 212.786402 
L 179.61904 212.23773 
L 183.266844 214.203093 
L 186.914648 214.992668 
L 190.562451 215.995093 
L 194.210255 216.339481 
L 197.858059 218.155333 
L 201.505863 218.559947 
L 205.153667 220.140944 
L 208.801471 221.15441 
L 212.449275 222.416964 
L 216.097079 223.063986 
L 219.744883 224.539397 
L 223.392686 225.165318 
L 227.04049 225.709042 
L 230.688294 226.682717 
L 234.336098 228.183363 
L 237.983902 229.518024 
L 241.631706 229.89478 
L 245.27951 230.610956 
L 248.927314 231.770567 
L 252.575117 233.659637 
L 256.222921 234.666623 
L 259.870725 234.756173 
L 263.518529 235.822739 
L 267.166333 237.49151 
L 270.814137 238.531232 
L 274.461941 239.069554 
L 278.109745 239.842234 
L 281.757549 240.645809 
L 285.405352 242.351475 
L 289.053156 242.824746 
L 292.70096 243.246028 
L 296.348764 244.176521 
L 299.996568 245.456209 
L 303.644372 246.329661 
L 307.292176 247.630585 
L 310.93998 248.517436 
L 314.587783 250.096049 
L 318.235587 250.143935 
L 321.883391 250.644979 
L 325.531195 250.918663 
L 329.178999 252.25835 
L 332.826803 253.147896 
L 336.474607 253.730699 
L 340.122411 255.715903 
L 343.770215 255.211337 
L 347.418018 256.441298 
L 351.065822 258.31032 
L 354.713626 257.951318 
L 358.36143 259.641499 
L 362.009234 259.827293 
L 365.657038 261.202927 
L 369.304842 261.504837 
L 372.952646 262.563275 
L 376.600449 262.297163 
L 380.248253 263.305009 
L 383.896057 264.823874 
L 387.543861 264.956439 
L 391.191665 265.263582 
L 394.839469 266.649501 
L 398.487273 267.33015 
" clip-path="url(#p2d79ec948f)" style="fill: none; stroke: #ff00ff; stroke-opacity: 0.3; stroke-width: 0.5; stroke-linecap: square"/>
   </g>
   <g id="line2d_29">
    <path d="M 73.832727 167.153513 
L 77.480531 172.630982 
L 81.128335 174.448591 
L 84.776139 177.019958 
L 88.423943 180.053747 
L 92.071747 183.317133 
L 95.719551 187.053899 
L 99.367354 189.148487 
L 103.015158 192.43756 
L 106.662962 193.820811 
L 110.310766 197.423417 
L 113.95857 199.479551 
L 117.606374 202.553358 
L 121.254178 204.495321 
L 124.901982 206.682993 
L 128.549785 209.622574 
L 132.197589 212.649799 
L 135.845393 214.48891 
L 139.493197 217.097605 
L 143.141001 219.277537 
L 146.788805 222.615802 
L 150.436609 223.782978 
L 154.084413 227.676989 
L 157.732217 227.746485 
L 161.38002 230.104071 
L 165.027824 232.473279 
L 168.675628 234.688602 
L 172.323432 234.634062 
L 175.971236 238.808972 
L 179.61904 239.408108 
L 183.266844 240.092084 
L 186.914648 243.36478 
L 190.562451 244.964493 
L 194.210255 247.188926 
L 197.858059 248.430877 
L 201.505863 248.718548 
L 205.153667 252.613947 
L 208.801471 252.784346 
L 212.449275 255.127886 
L 216.097079 255.403817 
L 219.744883 257.562481 
L 223.392686 259.08196 
L 227.04049 259.589427 
L 230.688294 260.828768 
L 234.336098 262.517754 
L 237.983902 263.171901 
L 241.631706 264.595621 
L 245.27951 265.788421 
L 248.927314 267.2686 
L 252.575117 267.989395 
L 256.222921 269.618497 
L 259.870725 269.544013 
L 263.518529 271.844041 
L 267.166333 272.712002 
L 270.814137 273.641713 
L 274.461941 274.478954 
L 278.109745 274.840967 
L 281.757549 275.30903 
L 285.405352 276.902912 
L 289.053156 277.545728 
L 292.70096 278.594091 
L 296.348764 278.691924 
L 299.996568 279.761394 
L 303.644372 280.38684 
L 307.292176 281.298433 
L 310.93998 282.452388 
L 314.587783 283.531897 
L 318.235587 283.741918 
L 321.883391 284.007942 
L 325.531195 284.284191 
L 329.178999 285.86824 
L 332.826803 287.037471 
L 336.474607 286.304714 
L 340.122411 287.19322 
L 343.770215 288.364273 
L 347.418018 288.488035 
L 351.065822 289.703698 
L 354.713626 290.38845 
L 358.36143 290.235938 
L 362.009234 291.386065 
L 365.657038 291.833784 
L 369.304842 292.21503 
L 372.952646 292.431421 
L 376.600449 293.263819 
L 380.248253 293.01748 
L 383.896057 294.212111 
L 387.543861 293.740285 
L 391.191665 294.136874 
L 394.839469 295.185751 
L 398.487273 295.488 
" clip-path="url(#p2d79ec948f)" style="fill: none; stroke: #ff00ff; stroke-opacity: 0.3; stroke-width: 0.5; stroke-linecap: square"/>
   </g>
   <g id="line2d_30">
    <path d="M 73.832727 182.01252 
L 77.480531 184.107341 
L 81.128335 185.092775 
L 84.776139 186.631739 
L 88.423943 187.750312 
L 92.071747 189.93018 
L 95.719551 190.850142 
L 99.367354 191.653749 
L 103.015158 193.474317 
L 106.662962 195.420557 
L 110.310766 196.650433 
L 113.95857 200.155019 
L 117.606374 200.327594 
L 121.254178 202.733221 
L 124.901982 205.303282 
L 128.549785 207.249186 
L 132.197589 207.936593 
L 135.845393 210.016295 
L 139.493197 212.585995 
L 143.141001 212.792785 
L 146.788805 214.710443 
L 150.436609 216.481976 
L 154.084413 218.410836 
L 157.732217 220.73827 
L 161.38002 221.096678 
L 165.027824 223.904799 
L 168.675628 225.179674 
L 172.323432 225.312432 
L 175.971236 227.463576 
L 179.61904 228.761573 
L 183.266844 230.026234 
L 186.914648 231.867754 
L 190.562451 233.048394 
L 194.210255 233.753238 
L 197.858059 236.008585 
L 201.505863 236.31514 
L 205.153667 239.177827 
L 208.801471 240.730022 
L 212.449275 241.941919 
L 216.097079 243.279591 
L 219.744883 243.820516 
L 223.392686 245.965846 
L 227.04049 246.319492 
L 230.688294 248.304108 
L 234.336098 248.679933 
L 237.983902 250.478522 
L 241.631706 252.165272 
L 245.27951 253.150829 
L 248.927314 253.561406 
L 252.575117 255.398856 
L 256.222921 255.95092 
L 259.870725 256.468807 
L 263.518529 258.94079 
L 267.166333 260.297637 
L 270.814137 260.390068 
L 274.461941 261.200659 
L 278.109745 262.714621 
L 281.757549 262.622021 
L 285.405352 264.770322 
L 289.053156 265.65886 
L 292.70096 266.12505 
L 296.348764 267.466126 
L 299.996568 268.160142 
L 303.644372 269.644701 
L 307.292176 270.494288 
L 310.93998 271.366326 
L 314.587783 271.999153 
L 318.235587 273.434955 
L 321.883391 273.423817 
L 325.531195 274.370481 
L 329.178999 275.193221 
L 332.826803 276.099347 
L 336.474607 276.544133 
L 340.122411 277.339616 
L 343.770215 278.646348 
L 347.418018 278.258295 
L 351.065822 279.937338 
L 354.713626 280.627384 
L 358.36143 281.020317 
L 362.009234 281.643657 
L 365.657038 283.286511 
L 369.304842 282.480355 
L 372.952646 283.094806 
L 376.600449 284.763822 
L 380.248253 284.190574 
L 383.896057 285.32075 
L 387.543861 285.577669 
L 391.191665 286.406885 
L 394.839469 286.843602 
L 398.487273 287.391321 
" clip-path="url(#p2d79ec948f)" style="fill: none; stroke: #ff00ff; stroke-opacity: 0.3; stroke-width: 0.5; stroke-linecap: square"/>
   </g>
   <g id="line2d_31">
    <path d="M 73.832727 177.446654 
L 77.480531 177.722418 
L 81.128335 179.339439 
L 84.776139 179.685506 
L 88.423943 180.621362 
L 92.071747 181.743579 
L 95.719551 183.572107 
L 99.367354 183.184097 
L 103.015158 184.74327 
L 106.662962 184.857622 
L 110.310766 186.660126 
L 113.95857 186.064253 
L 117.606374 188.388864 
L 121.254178 188.776719 
L 124.901982 189.329371 
L 128.549785 190.299338 
L 132.197589 191.770233 
L 135.845393 192.212318 
L 139.493197 194.110168 
L 143.141001 194.272962 
L 146.788805 195.431346 
L 150.436609 195.360189 
L 154.084413 196.471398 
L 157.732217 196.990997 
L 161.38002 199.10286 
L 165.027824 199.650641 
L 168.675628 200.472312 
L 172.323432 201.703377 
L 175.971236 201.779198 
L 179.61904 202.788756 
L 183.266844 203.744781 
L 186.914648 204.61355 
L 190.562451 206.0033 
L 194.210255 206.534851 
L 197.858059 207.916888 
L 201.505863 207.875992 
L 205.153667 209.612935 
L 208.801471 209.576587 
L 212.449275 210.895362 
L 216.097079 211.096428 
L 219.744883 212.902421 
L 223.392686 213.495051 
L 227.04049 215.252642 
L 230.688294 215.331719 
L 234.336098 215.850802 
L 237.983902 217.735589 
L 241.631706 217.093962 
L 245.27951 219.684387 
L 248.927314 219.814884 
L 252.575117 221.517992 
L 256.222921 222.202989 
L 259.870725 223.018199 
L 263.518529 223.266202 
L 267.166333 223.935771 
L 270.814137 225.476919 
L 274.461941 226.943357 
L 278.109745 227.361531 
L 281.757549 229.214842 
L 285.405352 228.800214 
L 289.053156 229.126241 
L 292.70096 230.447206 
L 296.348764 231.615183 
L 299.996568 231.527294 
L 303.644372 233.677236 
L 307.292176 233.984282 
L 310.93998 234.634656 
L 314.587783 235.816828 
L 318.235587 237.078755 
L 321.883391 236.818142 
L 325.531195 236.785697 
L 329.178999 238.517774 
L 332.826803 238.797796 
L 336.474607 241.210645 
L 340.122411 241.198137 
L 343.770215 242.581589 
L 347.418018 243.086406 
L 351.065822 243.925986 
L 354.713626 244.793371 
L 358.36143 246.251946 
L 362.009234 245.679073 
L 365.657038 248.778095 
L 369.304842 248.136901 
L 372.952646 249.377347 
L 376.600449 248.886426 
L 380.248253 249.611912 
L 383.896057 251.547789 
L 387.543861 252.105816 
L 391.191665 252.12262 
L 394.839469 253.152102 
L 398.487273 255.004863 
" clip-path="url(#p2d79ec948f)" style="fill: none; stroke: #ff00ff; stroke-opacity: 0.3; stroke-width: 0.5; stroke-linecap: square"/>
   </g>
   <g id="line2d_32">
    <path d="M 73.832727 168.916246 
L 77.480531 169.83427 
L 81.128335 170.605729 
L 84.776139 171.023212 
L 88.423943 173.033154 
L 92.071747 173.394779 
L 95.719551 174.754552 
L 99.367354 176.500823 
L 103.015158 176.004883 
L 106.662962 178.128181 
L 110.310766 176.511354 
L 113.95857 178.504911 
L 117.606374 180.555464 
L 121.254178 180.849446 
L 124.901982 182.036308 
L 128.549785 181.954013 
L 132.197589 182.929653 
L 135.845393 184.808599 
L 139.493197 185.687407 
L 143.141001 186.39886 
L 146.788805 185.686864 
L 150.436609 189.117399 
L 154.084413 189.199164 
L 157.732217 190.672837 
L 161.38002 190.91467 
L 165.027824 192.171397 
L 168.675628 193.099215 
L 172.323432 193.091372 
L 175.971236 195.397699 
L 179.61904 195.409574 
L 183.266844 197.619121 
L 186.914648 198.28159 
L 190.562451 200.100634 
L 194.210255 199.566834 
L 197.858059 200.805536 
L 201.505863 202.670566 
L 205.153667 204.160623 
L 208.801471 203.788157 
L 212.449275 204.784238 
L 216.097079 205.541574 
L 219.744883 207.354248 
L 223.392686 208.320545 
L 227.04049 209.892756 
L 230.688294 209.252266 
L 234.336098 210.08355 
L 237.983902 212.479731 
L 241.631706 212.809751 
L 245.27951 213.661528 
L 248.927314 213.749211 
L 252.575117 215.15895 
L 256.222921 214.886262 
L 259.870725 217.389314 
L 263.518529 217.793618 
L 267.166333 219.566694 
L 270.814137 219.971237 
L 274.461941 220.648488 
L 278.109745 221.58787 
L 281.757549 221.861528 
L 285.405352 223.904689 
L 289.053156 223.986842 
L 292.70096 224.41755 
L 296.348764 225.880267 
L 299.996568 225.405013 
L 303.644372 227.198686 
L 307.292176 227.405928 
L 310.93998 228.799994 
L 314.587783 230.170137 
L 318.235587 229.900905 
L 321.883391 231.882167 
L 325.531195 230.565189 
L 329.178999 232.242209 
L 332.826803 233.651419 
L 336.474607 233.176818 
L 340.122411 235.105562 
L 343.770215 236.244971 
L 347.418018 235.888922 
L 351.065822 237.742956 
L 354.713626 238.838226 
L 358.36143 238.410419 
L 362.009234 238.77833 
L 365.657038 240.184115 
L 369.304842 240.513483 
L 372.952646 241.419981 
L 376.600449 242.906834 
L 380.248253 242.968119 
L 383.896057 243.474946 
L 387.543861 242.694662 
L 391.191665 243.923912 
L 394.839469 245.435774 
L 398.487273 245.695128 
" clip-path="url(#p2d79ec948f)" style="fill: none; stroke: #ff00ff; stroke-opacity: 0.3; stroke-width: 0.5; stroke-linecap: square"/>
   </g>
   <g id="line2d_33">
    <path d="M 73.832727 189.421434 
L 77.480531 189.619761 
L 81.128335 190.506154 
L 84.776139 191.652844 
L 88.423943 191.690109 
L 92.071747 193.046316 
L 95.719551 192.848454 
L 99.367354 194.065319 
L 103.015158 194.341057 
L 106.662962 195.598029 
L 110.310766 195.007893 
L 113.95857 196.315271 
L 117.606374 196.439947 
L 121.254178 197.834492 
L 124.901982 198.535711 
L 128.549785 199.683099 
L 132.197589 200.08978 
L 135.845393 199.528975 
L 139.493197 200.324093 
L 143.141001 201.022237 
L 146.788805 200.583472 
L 150.436609 201.998006 
L 154.084413 202.678861 
L 157.732217 203.766204 
L 161.38002 203.434401 
L 165.027824 204.877555 
L 168.675628 205.797556 
L 172.323432 206.105597 
L 175.971236 206.180385 
L 179.61904 207.126331 
L 183.266844 207.63695 
L 186.914648 208.303955 
L 190.562451 209.701471 
L 194.210255 210.066765 
L 197.858059 210.779523 
L 201.505863 211.432909 
L 205.153667 210.753358 
L 208.801471 212.32332 
L 212.449275 212.905238 
L 216.097079 215.55293 
L 219.744883 214.589682 
L 223.392686 214.966283 
L 227.04049 215.996915 
L 230.688294 216.393802 
L 234.336098 216.41622 
L 237.983902 217.404871 
L 241.631706 218.470558 
L 245.27951 218.823681 
L 248.927314 219.936711 
L 252.575117 219.347415 
L 256.222921 219.905151 
L 259.870725 221.370982 
L 263.518529 222.331465 
L 267.166333 222.486092 
L 270.814137 222.442244 
L 274.461941 224.180737 
L 278.109745 224.260261 
L 281.757549 224.034392 
L 285.405352 224.60503 
L 289.053156 224.594273 
L 292.70096 225.952509 
L 296.348764 226.600971 
L 299.996568 226.995132 
L 303.644372 226.548046 
L 307.292176 227.65282 
L 310.93998 229.078394 
L 314.587783 229.594699 
L 318.235587 229.847728 
L 321.883391 229.575427 
L 325.531195 230.309576 
L 329.178999 231.451039 
L 332.826803 231.276965 
L 336.474607 231.815468 
L 340.122411 232.922309 
L 343.770215 232.926463 
L 347.418018 232.091458 
L 351.065822 234.673013 
L 354.713626 235.15516 
L 358.36143 235.670347 
L 362.009234 234.996204 
L 365.657038 236.293374 
L 369.304842 236.491301 
L 372.952646 236.721905 
L 376.600449 237.51679 
L 380.248253 237.958843 
L 383.896057 238.620246 
L 387.543861 238.558037 
L 391.191665 239.119501 
L 394.839469 238.738177 
L 398.487273 239.498117 
" clip-path="url(#p2d79ec948f)" style="fill: none; stroke: #ff00ff; stroke-opacity: 0.3; stroke-width: 0.5; stroke-linecap: square"/>
   </g>
   <g id="line2d_34">
    <path d="M 73.832727 147.903695 
L 77.480531 153.931632 
L 81.128335 156.35142 
L 84.776139 158.810062 
L 88.423943 162.410639 
L 92.071747 168.465297 
L 95.719551 169.673479 
L 99.367354 171.689932 
L 103.015158 175.039852 
L 106.662962 176.871015 
L 110.310766 180.412672 
L 113.95857 182.391873 
L 117.606374 186.319951 
L 121.254178 188.93167 
L 124.901982 190.477056 
L 128.549785 191.860733 
L 132.197589 195.488225 
L 135.845393 195.42473 
L 139.493197 198.124314 
L 143.141001 199.978606 
L 146.788805 203.701211 
L 150.436609 204.347567 
L 154.084413 206.986485 
L 157.732217 208.624736 
L 161.38002 210.426543 
L 165.027824 211.073648 
L 168.675628 213.976146 
L 172.323432 215.212341 
L 175.971236 217.039486 
L 179.61904 219.556073 
L 183.266844 219.777523 
L 186.914648 220.795479 
L 190.562451 224.059782 
L 194.210255 225.360557 
L 197.858059 226.995332 
L 201.505863 228.84038 
L 205.153667 229.907805 
L 208.801471 231.708313 
L 212.449275 233.86268 
L 216.097079 234.914658 
L 219.744883 236.23185 
L 223.392686 238.091685 
L 227.04049 239.086539 
L 230.688294 239.544123 
L 234.336098 241.402628 
L 237.983902 242.954991 
L 241.631706 245.526997 
L 245.27951 246.164593 
L 248.927314 247.867953 
L 252.575117 248.423829 
L 256.222921 249.78658 
L 259.870725 251.639555 
L 263.518529 253.141229 
L 267.166333 254.452909 
L 270.814137 255.886223 
L 274.461941 256.63394 
L 278.109745 257.288694 
L 281.757549 259.142819 
L 285.405352 259.869913 
L 289.053156 260.697883 
L 292.70096 261.730983 
L 296.348764 263.121043 
L 299.996568 264.051859 
L 303.644372 265.22759 
L 307.292176 266.356029 
L 310.93998 267.519607 
L 314.587783 268.638981 
L 318.235587 270.160315 
L 321.883391 270.389885 
L 325.531195 270.426342 
L 329.178999 271.85295 
L 332.826803 272.158646 
L 336.474607 273.643038 
L 340.122411 273.761283 
L 343.770215 275.043357 
L 347.418018 275.827237 
L 351.065822 276.835596 
L 354.713626 277.183657 
L 358.36143 277.918472 
L 362.009234 279.286731 
L 365.657038 279.955373 
L 369.304842 280.003214 
L 372.952646 281.284132 
L 376.600449 281.893798 
L 380.248253 282.662751 
L 383.896057 283.119699 
L 387.543861 283.452535 
L 391.191665 284.372297 
L 394.839469 285.027453 
L 398.487273 286.117826 
" clip-path="url(#p2d79ec948f)" style="fill: none; stroke: #ff00ff; stroke-opacity: 0.3; stroke-width: 0.5; stroke-linecap: square"/>
   </g>
   <g id="line2d_35">
    <path d="M 73.832727 177.445284 
L 77.480531 178.320474 
L 81.128335 179.463353 
L 84.776139 180.03797 
L 88.423943 181.41604 
L 92.071747 182.029473 
L 95.719551 182.61833 
L 99.367354 183.803693 
L 103.015158 184.614239 
L 106.662962 185.189658 
L 110.310766 186.09874 
L 113.95857 187.103129 
L 117.606374 187.654024 
L 121.254178 188.447733 
L 124.901982 189.187561 
L 128.549785 189.801071 
L 132.197589 191.08346 
L 135.845393 190.842893 
L 139.493197 193.151637 
L 143.141001 192.492501 
L 146.788805 194.046648 
L 150.436609 195.201052 
L 154.084413 195.3958 
L 157.732217 196.758984 
L 161.38002 196.548304 
L 165.027824 198.005762 
L 168.675628 199.051835 
L 172.323432 198.381548 
L 175.971236 200.016026 
L 179.61904 200.307851 
L 183.266844 201.243047 
L 186.914648 201.72064 
L 190.562451 202.391856 
L 194.210255 202.897152 
L 197.858059 203.719145 
L 201.505863 204.177318 
L 205.153667 205.057017 
L 208.801471 205.557493 
L 212.449275 206.094666 
L 216.097079 206.854689 
L 219.744883 207.280468 
L 223.392686 207.643049 
L 227.04049 208.202911 
L 230.688294 209.039325 
L 234.336098 209.66816 
L 237.983902 210.021968 
L 241.631706 210.62403 
L 245.27951 211.539159 
L 248.927314 211.419122 
L 252.575117 212.316859 
L 256.222921 212.436949 
L 259.870725 213.187876 
L 263.518529 213.997556 
L 267.166333 214.467021 
L 270.814137 214.988094 
L 274.461941 215.631051 
L 278.109745 215.996656 
L 281.757549 216.302307 
L 285.405352 217.347682 
L 289.053156 217.636431 
L 292.70096 217.892994 
L 296.348764 218.400719 
L 299.996568 218.944882 
L 303.644372 219.681777 
L 307.292176 220.203889 
L 310.93998 220.802915 
L 314.587783 220.992159 
L 318.235587 221.201843 
L 321.883391 222.221208 
L 325.531195 222.439389 
L 329.178999 223.264393 
L 332.826803 224.20605 
L 336.474607 223.09824 
L 340.122411 224.078925 
L 343.770215 224.95438 
L 347.418018 225.495396 
L 351.065822 225.811817 
L 354.713626 226.093169 
L 358.36143 227.011257 
L 362.009234 226.793781 
L 365.657038 227.764672 
L 369.304842 227.452038 
L 372.952646 228.530336 
L 376.600449 228.464076 
L 380.248253 228.988624 
L 383.896057 228.917416 
L 387.543861 229.646719 
L 391.191665 230.454874 
L 394.839469 230.89508 
L 398.487273 230.665115 
" clip-path="url(#p2d79ec948f)" style="fill: none; stroke: #ff00ff; stroke-opacity: 0.3; stroke-width: 0.5; stroke-linecap: square"/>
   </g>
   <g id="line2d_36">
    <path d="M 73.832727 163.14663 
L 77.480531 161.930863 
L 81.128335 165.850864 
L 84.776139 167.013292 
L 88.423943 168.506438 
L 92.071747 171.490572 
L 95.719551 171.30514 
L 99.367354 174.835774 
L 103.015158 178.471833 
L 106.662962 176.628808 
L 110.310766 178.929953 
L 113.95857 181.922511 
L 117.606374 181.434013 
L 121.254178 184.159581 
L 124.901982 185.076662 
L 128.549785 186.49648 
L 132.197589 189.198337 
L 135.845393 189.050467 
L 139.493197 190.852687 
L 143.141001 191.718859 
L 146.788805 192.724152 
L 150.436609 194.216445 
L 154.084413 195.288309 
L 157.732217 194.61142 
L 161.38002 196.71681 
L 165.027824 197.32457 
L 168.675628 200.73527 
L 172.323432 199.30235 
L 175.971236 201.70777 
L 179.61904 202.676497 
L 183.266844 203.831004 
L 186.914648 205.085289 
L 190.562451 206.147487 
L 194.210255 207.569282 
L 197.858059 207.313004 
L 201.505863 207.704903 
L 205.153667 210.312823 
L 208.801471 211.379505 
L 212.449275 212.873452 
L 216.097079 214.436398 
L 219.744883 215.405848 
L 223.392686 217.741623 
L 227.04049 217.506638 
L 230.688294 219.210205 
L 234.336098 218.811768 
L 237.983902 220.905606 
L 241.631706 221.849763 
L 245.27951 221.834419 
L 248.927314 222.277247 
L 252.575117 224.556466 
L 256.222921 225.305119 
L 259.870725 226.843276 
L 263.518529 227.352939 
L 267.166333 228.745086 
L 270.814137 229.944921 
L 274.461941 231.009774 
L 278.109745 231.177466 
L 281.757549 231.852713 
L 285.405352 234.595531 
L 289.053156 234.527223 
L 292.70096 235.04104 
L 296.348764 236.318441 
L 299.996568 237.201578 
L 303.644372 237.681154 
L 307.292176 239.482941 
L 310.93998 238.922201 
L 314.587783 240.498139 
L 318.235587 241.517394 
L 321.883391 243.399286 
L 325.531195 243.4467 
L 329.178999 245.438067 
L 332.826803 245.860008 
L 336.474607 246.048412 
L 340.122411 246.491906 
L 343.770215 247.990426 
L 347.418018 248.984453 
L 351.065822 250.260613 
L 354.713626 251.267909 
L 358.36143 251.154778 
L 362.009234 252.698187 
L 365.657038 253.620766 
L 369.304842 253.785911 
L 372.952646 254.837424 
L 376.600449 255.710534 
L 380.248253 256.172912 
L 383.896057 257.315228 
L 387.543861 257.870994 
L 391.191665 258.253338 
L 394.839469 259.841041 
L 398.487273 259.823132 
" clip-path="url(#p2d79ec948f)" style="fill: none; stroke: #ff00ff; stroke-opacity: 0.3; stroke-width: 0.5; stroke-linecap: square"/>
   </g>
   <g id="line2d_37">
    <path d="M 73.832727 162.99394 
L 77.480531 164.788989 
L 81.128335 166.884313 
L 84.776139 168.092599 
L 88.423943 170.377619 
L 92.071747 172.226652 
L 95.719551 175.162086 
L 99.367354 176.902142 
L 103.015158 178.88429 
L 106.662962 180.592754 
L 110.310766 183.406173 
L 113.95857 185.459671 
L 117.606374 187.274735 
L 121.254178 189.043593 
L 124.901982 191.067308 
L 128.549785 192.824782 
L 132.197589 194.488565 
L 135.845393 196.109514 
L 139.493197 198.595988 
L 143.141001 201.909379 
L 146.788805 202.348596 
L 150.436609 204.387726 
L 154.084413 206.700876 
L 157.732217 208.9473 
L 161.38002 209.990492 
L 165.027824 210.824037 
L 168.675628 213.408983 
L 172.323432 214.308931 
L 175.971236 215.716189 
L 179.61904 217.908706 
L 183.266844 217.866015 
L 186.914648 220.320206 
L 190.562451 221.727916 
L 194.210255 223.22563 
L 197.858059 224.184349 
L 201.505863 225.573705 
L 205.153667 226.723748 
L 208.801471 228.96211 
L 212.449275 230.268293 
L 216.097079 231.325542 
L 219.744883 232.468207 
L 223.392686 233.91098 
L 227.04049 234.761917 
L 230.688294 235.966223 
L 234.336098 236.599108 
L 237.983902 237.58146 
L 241.631706 239.644766 
L 245.27951 241.157461 
L 248.927314 242.201441 
L 252.575117 243.836319 
L 256.222921 244.065089 
L 259.870725 245.554254 
L 263.518529 246.824045 
L 267.166333 247.996396 
L 270.814137 248.739629 
L 274.461941 250.081726 
L 278.109745 251.290812 
L 281.757549 251.275623 
L 285.405352 253.679602 
L 289.053156 254.28945 
L 292.70096 255.289387 
L 296.348764 255.832019 
L 299.996568 257.253006 
L 303.644372 257.369432 
L 307.292176 258.633266 
L 310.93998 260.511153 
L 314.587783 260.951681 
L 318.235587 262.423978 
L 321.883391 262.561653 
L 325.531195 263.48942 
L 329.178999 263.926466 
L 332.826803 265.162241 
L 336.474607 266.204257 
L 340.122411 266.726925 
L 343.770215 268.011406 
L 347.418018 267.822408 
L 351.065822 269.266395 
L 354.713626 270.246163 
L 358.36143 270.547989 
L 362.009234 271.082615 
L 365.657038 273.153293 
L 369.304842 273.454886 
L 372.952646 273.996067 
L 376.600449 275.057471 
L 380.248253 274.98967 
L 383.896057 276.422264 
L 387.543861 275.847003 
L 391.191665 277.09757 
L 394.839469 278.358334 
L 398.487273 278.430732 
" clip-path="url(#p2d79ec948f)" style="fill: none; stroke: #ff00ff; stroke-opacity: 0.3; stroke-width: 0.5; stroke-linecap: square"/>
   </g>
   <g id="line2d_38">
    <path d="M 73.832727 168.897407 
L 77.480531 168.642291 
L 81.128335 170.045079 
L 84.776139 171.483349 
L 88.423943 169.637817 
L 92.071747 170.374634 
L 95.719551 171.956987 
L 99.367354 171.988127 
L 103.015158 172.757028 
L 106.662962 172.846236 
L 110.310766 174.12321 
L 113.95857 173.019522 
L 117.606374 174.472754 
L 121.254178 174.752872 
L 124.901982 175.292125 
L 128.549785 175.480192 
L 132.197589 176.784056 
L 135.845393 177.963449 
L 139.493197 177.37206 
L 143.141001 177.048552 
L 146.788805 178.062361 
L 150.436609 179.671229 
L 154.084413 179.426514 
L 157.732217 179.470756 
L 161.38002 179.678671 
L 165.027824 180.945373 
L 168.675628 180.365755 
L 172.323432 179.37125 
L 175.971236 180.915189 
L 179.61904 180.735895 
L 183.266844 181.25512 
L 186.914648 182.112802 
L 190.562451 183.362331 
L 194.210255 182.872102 
L 197.858059 183.876375 
L 201.505863 183.415153 
L 205.153667 183.540476 
L 208.801471 185.038958 
L 212.449275 185.129186 
L 216.097079 185.232788 
L 219.744883 186.071076 
L 223.392686 186.228003 
L 227.04049 185.871172 
L 230.688294 187.791298 
L 234.336098 186.804056 
L 237.983902 188.058405 
L 241.631706 188.927406 
L 245.27951 187.691456 
L 248.927314 189.588272 
L 252.575117 189.871505 
L 256.222921 189.521354 
L 259.870725 190.955307 
L 263.518529 192.006988 
L 267.166333 190.982765 
L 270.814137 193.273871 
L 274.461941 190.816728 
L 278.109745 192.483676 
L 281.757549 192.466749 
L 285.405352 193.233311 
L 289.053156 193.282967 
L 292.70096 193.195439 
L 296.348764 194.790649 
L 299.996568 193.733658 
L 303.644372 194.93087 
L 307.292176 194.83307 
L 310.93998 196.018446 
L 314.587783 195.427121 
L 318.235587 195.973635 
L 321.883391 196.593154 
L 325.531195 196.657592 
L 329.178999 197.844441 
L 332.826803 196.701162 
L 336.474607 197.620569 
L 340.122411 199.212148 
L 343.770215 199.390292 
L 347.418018 199.175245 
L 351.065822 198.420506 
L 354.713626 199.328555 
L 358.36143 200.285045 
L 362.009234 200.32231 
L 365.657038 200.614044 
L 369.304842 200.325359 
L 372.952646 201.708261 
L 376.600449 201.945365 
L 380.248253 202.473854 
L 383.896057 202.596463 
L 387.543861 203.000134 
L 391.191665 203.393816 
L 394.839469 203.594224 
L 398.487273 203.983125 
" clip-path="url(#p2d79ec948f)" style="fill: none; stroke: #ff00ff; stroke-opacity: 0.3; stroke-width: 0.5; stroke-linecap: square"/>
   </g>
   <g id="line2d_39">
    <path d="M 73.832727 164.86065 
L 77.480531 166.191518 
L 81.128335 166.949591 
L 84.776139 168.339962 
L 88.423943 169.917651 
L 92.071747 171.450555 
L 95.719551 172.746394 
L 99.367354 173.961489 
L 103.015158 175.158791 
L 106.662962 176.319345 
L 110.310766 177.857121 
L 113.95857 177.907539 
L 117.606374 179.433052 
L 121.254178 180.110303 
L 124.901982 181.067323 
L 128.549785 182.254702 
L 132.197589 183.279636 
L 135.845393 184.052658 
L 139.493197 185.117493 
L 143.141001 186.072252 
L 146.788805 187.374358 
L 150.436609 188.038416 
L 154.084413 188.901899 
L 157.732217 189.796769 
L 161.38002 189.507683 
L 165.027824 190.98544 
L 168.675628 191.445253 
L 172.323432 192.482668 
L 175.971236 193.513287 
L 179.61904 194.04418 
L 183.266844 195.129662 
L 186.914648 195.900462 
L 190.562451 196.10556 
L 194.210255 197.431609 
L 197.858059 197.56891 
L 201.505863 198.959836 
L 205.153667 200.298832 
L 208.801471 201.905981 
L 212.449275 201.570663 
L 216.097079 202.316603 
L 219.744883 203.286803 
L 223.392686 204.063081 
L 227.04049 204.465292 
L 230.688294 206.630791 
L 234.336098 206.166301 
L 237.983902 208.075805 
L 241.631706 208.311578 
L 245.27951 209.56616 
L 248.927314 209.549776 
L 252.575117 211.326852 
L 256.222921 211.195056 
L 259.870725 211.996492 
L 263.518529 213.354689 
L 267.166333 213.829335 
L 270.814137 215.237033 
L 274.461941 216.676388 
L 278.109745 216.261308 
L 281.757549 217.299189 
L 285.405352 218.526003 
L 289.053156 219.379628 
L 292.70096 220.201796 
L 296.348764 220.968106 
L 299.996568 221.289617 
L 303.644372 222.470077 
L 307.292176 223.724587 
L 310.93998 223.858612 
L 314.587783 224.169367 
L 318.235587 226.134336 
L 321.883391 227.060946 
L 325.531195 227.282466 
L 329.178999 228.871604 
L 332.826803 229.064988 
L 336.474607 230.042062 
L 340.122411 230.481964 
L 343.770215 231.754887 
L 347.418018 232.477827 
L 351.065822 233.645282 
L 354.713626 234.692672 
L 358.36143 234.995041 
L 362.009234 236.612139 
L 365.657038 237.804803 
L 369.304842 237.471527 
L 372.952646 238.260294 
L 376.600449 238.934211 
L 380.248253 240.148524 
L 383.896057 240.661133 
L 387.543861 241.694227 
L 391.191665 243.010701 
L 394.839469 243.714033 
L 398.487273 243.654376 
" clip-path="url(#p2d79ec948f)" style="fill: none; stroke: #ff00ff; stroke-opacity: 0.3; stroke-width: 0.5; stroke-linecap: square"/>
   </g>
   <g id="line2d_40">
    <path d="M 73.832727 168.36291 
L 77.480531 171.694067 
L 81.128335 175.791877 
L 84.776139 179.50178 
L 88.423943 181.605749 
L 92.071747 184.977143 
L 95.719551 186.459021 
L 99.367354 189.581838 
L 103.015158 192.139417 
L 106.662962 193.415371 
L 110.310766 196.033021 
L 113.95857 198.51567 
L 117.606374 200.084224 
L 121.254178 202.706164 
L 124.901982 204.307085 
L 128.549785 206.561585 
L 132.197589 208.6175 
L 135.845393 209.990181 
L 139.493197 210.466521 
L 143.141001 212.211293 
L 146.788805 214.268784 
L 150.436609 216.448342 
L 154.084413 217.449475 
L 157.732217 218.679804 
L 161.38002 220.621747 
L 165.027824 220.506762 
L 168.675628 224.179012 
L 172.323432 224.41799 
L 175.971236 227.049375 
L 179.61904 229.15722 
L 183.266844 228.743122 
L 186.914648 230.657653 
L 190.562451 230.754245 
L 194.210255 233.165932 
L 197.858059 234.29176 
L 201.505863 235.661703 
L 205.153667 236.464967 
L 208.801471 237.386441 
L 212.449275 239.203456 
L 216.097079 241.245041 
L 219.744883 241.789255 
L 223.392686 242.779593 
L 227.04049 244.645004 
L 230.688294 244.887657 
L 234.336098 247.293975 
L 237.983902 247.261762 
L 241.631706 249.257012 
L 245.27951 249.438477 
L 248.927314 251.500103 
L 252.575117 252.938166 
L 256.222921 252.978861 
L 259.870725 254.099289 
L 263.518529 255.147345 
L 267.166333 256.909471 
L 270.814137 258.552354 
L 274.461941 258.665123 
L 278.109745 258.783048 
L 281.757549 259.783283 
L 285.405352 261.847203 
L 289.053156 262.279997 
L 292.70096 263.581109 
L 296.348764 264.047382 
L 299.996568 264.915983 
L 303.644372 266.025589 
L 307.292176 266.592777 
L 310.93998 267.446221 
L 314.587783 269.406719 
L 318.235587 268.845119 
L 321.883391 270.428836 
L 325.531195 270.78745 
L 329.178999 271.624504 
L 332.826803 272.988877 
L 336.474607 273.872324 
L 340.122411 274.138526 
L 343.770215 275.010948 
L 347.418018 275.64501 
L 351.065822 276.53682 
L 354.713626 277.164608 
L 358.36143 277.821692 
L 362.009234 278.611422 
L 365.657038 279.593609 
L 369.304842 279.591344 
L 372.952646 280.846727 
L 376.600449 281.348857 
L 380.248253 281.278993 
L 383.896057 282.416134 
L 387.543861 282.763071 
L 391.191665 283.804912 
L 394.839469 284.624186 
L 398.487273 284.765576 
" clip-path="url(#p2d79ec948f)" style="fill: none; stroke: #ff00ff; stroke-opacity: 0.3; stroke-width: 0.5; stroke-linecap: square"/>
   </g>
   <g id="line2d_41">
    <path d="M 73.832727 175.792627 
L 77.480531 176.432806 
L 81.128335 177.224849 
L 84.776139 176.501392 
L 88.423943 175.540974 
L 92.071747 177.74981 
L 95.719551 176.723597 
L 99.367354 175.868926 
L 103.015158 175.685342 
L 106.662962 176.77129 
L 110.310766 176.78005 
L 113.95857 176.855807 
L 117.606374 176.181993 
L 121.254178 175.362312 
L 124.901982 176.633369 
L 128.549785 177.100793 
L 132.197589 176.357579 
L 135.845393 176.813258 
L 139.493197 176.175042 
L 143.141001 176.035157 
L 146.788805 176.462577 
L 150.436609 174.775277 
L 154.084413 176.342629 
L 157.732217 177.554093 
L 161.38002 174.070647 
L 165.027824 174.376737 
L 168.675628 176.114261 
L 172.323432 174.422439 
L 175.971236 174.822982 
L 179.61904 175.924758 
L 183.266844 173.909713 
L 186.914648 176.578183 
L 190.562451 174.853412 
L 194.210255 175.596509 
L 197.858059 174.2042 
L 201.505863 176.14606 
L 205.153667 176.899364 
L 208.801471 175.010184 
L 212.449275 176.084929 
L 216.097079 175.624742 
L 219.744883 175.578006 
L 223.392686 176.146163 
L 227.04049 174.734963 
L 230.688294 176.728301 
L 234.336098 176.721504 
L 237.983902 178.061366 
L 241.631706 175.511074 
L 245.27951 176.657493 
L 248.927314 177.171601 
L 252.575117 176.856466 
L 256.222921 176.870098 
L 259.870725 176.937624 
L 263.518529 175.939049 
L 267.166333 177.465002 
L 270.814137 176.684588 
L 274.461941 176.860252 
L 278.109745 176.530142 
L 281.757549 177.476993 
L 285.405352 175.849829 
L 289.053156 176.349904 
L 292.70096 178.499678 
L 296.348764 175.9943 
L 299.996568 175.851741 
L 303.644372 177.641906 
L 307.292176 176.45171 
L 310.93998 175.247443 
L 314.587783 177.057843 
L 318.235587 176.242839 
L 321.883391 175.520985 
L 325.531195 175.990191 
L 329.178999 177.475662 
L 332.826803 177.540668 
L 336.474607 176.649456 
L 340.122411 177.150733 
L 343.770215 177.373623 
L 347.418018 176.709798 
L 351.065822 177.721681 
L 354.713626 176.579966 
L 358.36143 178.513452 
L 362.009234 177.686626 
L 365.657038 177.832325 
L 369.304842 176.15544 
L 372.952646 177.847004 
L 376.600449 177.371491 
L 380.248253 179.155686 
L 383.896057 176.981401 
L 387.543861 177.075092 
L 391.191665 177.482988 
L 394.839469 177.368416 
L 398.487273 177.196926 
" clip-path="url(#p2d79ec948f)" style="fill: none; stroke: #ff00ff; stroke-opacity: 0.3; stroke-width: 0.5; stroke-linecap: square"/>
   </g>
   <g id="line2d_42">
    <path d="M 73.832727 171.141868 
L 77.480531 172.332244 
L 81.128335 175.095697 
L 84.776139 177.366736 
L 88.423943 178.123866 
L 92.071747 178.557953 
L 95.719551 180.041446 
L 99.367354 180.584743 
L 103.015158 182.743549 
L 106.662962 184.35787 
L 110.310766 186.428824 
L 113.95857 187.342765 
L 117.606374 188.20683 
L 121.254178 188.479674 
L 124.901982 190.766762 
L 128.549785 192.046527 
L 132.197589 192.543798 
L 135.845393 193.057338 
L 139.493197 195.052174 
L 143.141001 195.347707 
L 146.788805 195.755073 
L 150.436609 197.454906 
L 154.084413 198.020931 
L 157.732217 199.65661 
L 161.38002 200.286453 
L 165.027824 201.113603 
L 168.675628 203.145342 
L 172.323432 202.998661 
L 175.971236 203.239912 
L 179.61904 206.457298 
L 183.266844 205.789687 
L 186.914648 206.751733 
L 190.562451 206.934594 
L 194.210255 208.215122 
L 197.858059 209.245766 
L 201.505863 209.254256 
L 205.153667 210.877363 
L 208.801471 211.579448 
L 212.449275 213.009628 
L 216.097079 213.491821 
L 219.744883 213.998215 
L 223.392686 214.57627 
L 227.04049 215.666391 
L 230.688294 215.724627 
L 234.336098 216.413661 
L 237.983902 217.23643 
L 241.631706 217.935234 
L 245.27951 218.874397 
L 248.927314 219.859204 
L 252.575117 220.096999 
L 256.222921 221.16162 
L 259.870725 221.402568 
L 263.518529 222.560079 
L 267.166333 223.223601 
L 270.814137 223.802638 
L 274.461941 224.748449 
L 278.109745 225.821197 
L 281.757549 225.118589 
L 285.405352 226.642396 
L 289.053156 227.091821 
L 292.70096 226.923012 
L 296.348764 227.986432 
L 299.996568 228.347101 
L 303.644372 228.660045 
L 307.292176 230.148823 
L 310.93998 230.594061 
L 314.587783 230.944981 
L 318.235587 231.732217 
L 321.883391 231.257855 
L 325.531195 231.905606 
L 329.178999 233.526174 
L 332.826803 233.420408 
L 336.474607 234.574889 
L 340.122411 234.561606 
L 343.770215 235.334752 
L 347.418018 235.978162 
L 351.065822 236.237231 
L 354.713626 236.704965 
L 358.36143 237.610404 
L 362.009234 237.897609 
L 365.657038 238.655624 
L 369.304842 239.372148 
L 372.952646 239.275291 
L 376.600449 240.334486 
L 380.248253 240.531702 
L 383.896057 241.787433 
L 387.543861 241.880531 
L 391.191665 242.053474 
L 394.839469 243.096575 
L 398.487273 243.347446 
" clip-path="url(#p2d79ec948f)" style="fill: none; stroke: #ff00ff; stroke-opacity: 0.3; stroke-width: 0.5; stroke-linecap: square"/>
   </g>
   <g id="line2d_43">
    <path d="M 73.832727 182.492129 
L 77.480531 184.034582 
L 81.128335 183.809818 
L 84.776139 184.069637 
L 88.423943 184.761941 
L 92.071747 186.414094 
L 95.719551 187.176224 
L 99.367354 186.346336 
L 103.015158 188.258218 
L 106.662962 188.606315 
L 110.310766 188.780402 
L 113.95857 190.742599 
L 117.606374 190.157321 
L 121.254178 191.57449 
L 124.901982 192.470522 
L 128.549785 192.313104 
L 132.197589 193.332636 
L 135.845393 193.565696 
L 139.493197 194.077181 
L 143.141001 194.885271 
L 146.788805 196.112809 
L 150.436609 196.210958 
L 154.084413 197.257961 
L 157.732217 197.13565 
L 161.38002 198.13173 
L 165.027824 198.936978 
L 168.675628 199.210675 
L 172.323432 199.25878 
L 175.971236 200.777161 
L 179.61904 201.224143 
L 183.266844 201.828195 
L 186.914648 201.764068 
L 190.562451 203.640507 
L 194.210255 202.995753 
L 197.858059 203.91702 
L 201.505863 206.109086 
L 205.153667 206.06872 
L 208.801471 205.596903 
L 212.449275 207.19891 
L 216.097079 206.629163 
L 219.744883 207.880786 
L 223.392686 209.342546 
L 227.04049 209.617832 
L 230.688294 210.150275 
L 234.336098 210.955019 
L 237.983902 212.581446 
L 241.631706 212.992676 
L 245.27951 212.499759 
L 248.927314 213.453691 
L 252.575117 214.409121 
L 256.222921 214.830197 
L 259.870725 215.799531 
L 263.518529 215.16231 
L 267.166333 217.413993 
L 270.814137 217.501379 
L 274.461941 218.228674 
L 278.109745 218.577352 
L 281.757549 220.495888 
L 285.405352 220.342113 
L 289.053156 220.867075 
L 292.70096 221.870043 
L 296.348764 222.317238 
L 299.996568 222.353321 
L 303.644372 223.922617 
L 307.292176 223.78325 
L 310.93998 225.162082 
L 314.587783 225.499938 
L 318.235587 227.392019 
L 321.883391 226.915046 
L 325.531195 227.439834 
L 329.178999 229.019234 
L 332.826803 228.753123 
L 336.474607 229.28377 
L 340.122411 230.309136 
L 343.770215 230.057723 
L 347.418018 231.28663 
L 351.065822 231.706071 
L 354.713626 233.612946 
L 358.36143 233.061425 
L 362.009234 233.343178 
L 365.657038 234.165385 
L 369.304842 235.514233 
L 372.952646 234.6431 
L 376.600449 236.529076 
L 380.248253 236.373233 
L 383.896057 236.648215 
L 387.543861 237.451002 
L 391.191665 237.984188 
L 394.839469 239.044203 
L 398.487273 238.64844 
" clip-path="url(#p2d79ec948f)" style="fill: none; stroke: #ff00ff; stroke-opacity: 0.3; stroke-width: 0.5; stroke-linecap: square"/>
   </g>
   <g id="line2d_44">
    <path d="M 73.832727 183.438308 
L 77.480531 184.709183 
L 81.128335 186.263188 
L 84.776139 188.040587 
L 88.423943 190.681766 
L 92.071747 191.853678 
L 95.719551 193.49587 
L 99.367354 195.312445 
L 103.015158 195.55703 
L 106.662962 197.615051 
L 110.310766 199.117836 
L 113.95857 200.894782 
L 117.606374 201.710445 
L 121.254178 202.98468 
L 124.901982 204.094415 
L 128.549785 205.693876 
L 132.197589 206.535523 
L 135.845393 207.21342 
L 139.493197 208.289586 
L 143.141001 211.096971 
L 146.788805 211.630926 
L 150.436609 212.700735 
L 154.084413 213.712889 
L 157.732217 214.710417 
L 161.38002 214.641057 
L 165.027824 215.542076 
L 168.675628 217.710276 
L 172.323432 217.925866 
L 175.971236 219.534566 
L 179.61904 220.347521 
L 183.266844 221.235329 
L 186.914648 221.489895 
L 190.562451 223.604453 
L 194.210255 224.158442 
L 197.858059 225.687231 
L 201.505863 225.984185 
L 205.153667 227.092596 
L 208.801471 227.892889 
L 212.449275 230.03314 
L 216.097079 230.036855 
L 219.744883 230.965125 
L 223.392686 232.088422 
L 227.04049 233.468203 
L 230.688294 234.335744 
L 234.336098 235.698328 
L 237.983902 235.523491 
L 241.631706 236.673269 
L 245.27951 237.603795 
L 248.927314 238.65448 
L 252.575117 239.089614 
L 256.222921 240.355172 
L 259.870725 241.124319 
L 263.518529 242.032897 
L 267.166333 242.544259 
L 270.814137 244.028741 
L 274.461941 244.587498 
L 278.109745 244.503633 
L 281.757549 245.478401 
L 285.405352 247.032625 
L 289.053156 248.734195 
L 292.70096 248.149086 
L 296.348764 248.953875 
L 299.996568 249.686312 
L 303.644372 250.215906 
L 307.292176 251.694922 
L 310.93998 252.91629 
L 314.587783 253.818428 
L 318.235587 253.756832 
L 321.883391 255.219716 
L 325.531195 254.713193 
L 329.178999 255.824066 
L 332.826803 256.472231 
L 336.474607 257.495227 
L 340.122411 257.735457 
L 343.770215 258.982635 
L 347.418018 260.021214 
L 351.065822 260.087409 
L 354.713626 260.491151 
L 358.36143 260.555459 
L 362.009234 261.83308 
L 365.657038 263.714306 
L 369.304842 263.143752 
L 372.952646 264.18518 
L 376.600449 264.827324 
L 380.248253 265.046183 
L 383.896057 265.869159 
L 387.543861 265.599591 
L 391.191665 267.561452 
L 394.839469 267.533639 
L 398.487273 267.795157 
" clip-path="url(#p2d79ec948f)" style="fill: none; stroke: #ff00ff; stroke-opacity: 0.3; stroke-width: 0.5; stroke-linecap: square"/>
   </g>
   <g id="line2d_45">
    <path d="M 73.832727 185.853483 
L 77.480531 184.930678 
L 81.128335 185.631575 
L 84.776139 186.054756 
L 88.423943 186.478493 
L 92.071747 186.744644 
L 95.719551 186.609863 
L 99.367354 187.040707 
L 103.015158 187.954842 
L 106.662962 187.405511 
L 110.310766 188.310626 
L 113.95857 189.201735 
L 117.606374 188.994803 
L 121.254178 188.688997 
L 124.901982 189.491687 
L 128.549785 188.848677 
L 132.197589 189.752591 
L 135.845393 190.47066 
L 139.493197 190.748698 
L 143.141001 191.704296 
L 146.788805 190.879706 
L 150.436609 191.6116 
L 154.084413 192.51532 
L 157.732217 192.052677 
L 161.38002 191.863382 
L 165.027824 192.762502 
L 168.675628 193.484176 
L 172.323432 192.8326 
L 175.971236 193.504191 
L 179.61904 193.582816 
L 183.266844 194.389821 
L 186.914648 194.542162 
L 190.562451 195.42694 
L 194.210255 194.711817 
L 197.858059 195.746868 
L 201.505863 195.534392 
L 205.153667 196.579186 
L 208.801471 195.658281 
L 212.449275 196.179818 
L 216.097079 197.153726 
L 219.744883 197.183794 
L 223.392686 198.251355 
L 227.04049 197.512832 
L 230.688294 197.964595 
L 234.336098 198.484982 
L 237.983902 199.132411 
L 241.631706 200.16179 
L 245.27951 200.172824 
L 248.927314 200.472221 
L 252.575117 200.682487 
L 256.222921 201.392868 
L 259.870725 201.501096 
L 263.518529 202.067031 
L 267.166333 202.224423 
L 270.814137 202.430645 
L 274.461941 202.717328 
L 278.109745 203.546079 
L 281.757549 203.545343 
L 285.405352 203.958627 
L 289.053156 203.676183 
L 292.70096 204.813944 
L 296.348764 204.863355 
L 299.996568 205.210844 
L 303.644372 205.965531 
L 307.292176 205.99733 
L 310.93998 207.65858 
L 314.587783 206.463035 
L 318.235587 207.850408 
L 321.883391 207.566155 
L 325.531195 207.557744 
L 329.178999 208.548656 
L 332.826803 209.416972 
L 336.474607 208.735755 
L 340.122411 209.274917 
L 343.770215 211.17526 
L 347.418018 210.597373 
L 351.065822 210.636744 
L 354.713626 211.374195 
L 358.36143 212.181342 
L 362.009234 212.992224 
L 365.657038 213.610554 
L 369.304842 213.098423 
L 372.952646 214.797816 
L 376.600449 214.4491 
L 380.248253 214.29181 
L 383.896057 214.743689 
L 387.543861 215.012295 
L 391.191665 215.575594 
L 394.839469 216.662007 
L 398.487273 216.425872 
" clip-path="url(#p2d79ec948f)" style="fill: none; stroke: #ff00ff; stroke-opacity: 0.3; stroke-width: 0.5; stroke-linecap: square"/>
   </g>
   <g id="line2d_46">
    <path d="M 73.832727 157.968906 
L 77.480531 163.08789 
L 81.128335 164.214578 
L 84.776139 166.940637 
L 88.423943 170.170195 
L 92.071747 172.670508 
L 95.719551 174.0508 
L 99.367354 175.993292 
L 103.015158 179.21546 
L 106.662962 179.81247 
L 110.310766 181.809412 
L 113.95857 184.162411 
L 117.606374 185.555934 
L 121.254178 187.492767 
L 124.901982 188.784614 
L 128.549785 189.745937 
L 132.197589 191.609352 
L 135.845393 192.528487 
L 139.493197 194.586262 
L 143.141001 195.665336 
L 146.788805 196.994899 
L 150.436609 197.951454 
L 154.084413 197.861316 
L 157.732217 199.698889 
L 161.38002 201.852526 
L 165.027824 201.667353 
L 168.675628 203.053085 
L 172.323432 204.677031 
L 175.971236 205.179006 
L 179.61904 206.41533 
L 183.266844 207.403542 
L 186.914648 208.222409 
L 190.562451 209.502097 
L 194.210255 210.557189 
L 197.858059 210.593768 
L 201.505863 212.527798 
L 205.153667 213.241925 
L 208.801471 213.941711 
L 212.449275 214.360008 
L 216.097079 215.921856 
L 219.744883 216.110918 
L 223.392686 218.791313 
L 227.04049 218.687078 
L 230.688294 220.16019 
L 234.336098 220.810551 
L 237.983902 220.667759 
L 241.631706 222.663784 
L 245.27951 223.029816 
L 248.927314 224.141683 
L 252.575117 224.533098 
L 256.222921 225.466937 
L 259.870725 226.94722 
L 263.518529 227.836914 
L 267.166333 227.883146 
L 270.814137 229.926534 
L 274.461941 230.578285 
L 278.109745 229.628358 
L 281.757549 230.858584 
L 285.405352 232.920455 
L 289.053156 233.708324 
L 292.70096 234.264548 
L 296.348764 234.968294 
L 299.996568 235.375524 
L 303.644372 235.450086 
L 307.292176 237.56832 
L 310.93998 237.985325 
L 314.587783 238.584887 
L 318.235587 240.823804 
L 321.883391 241.499233 
L 325.531195 240.726792 
L 329.178999 243.176809 
L 332.826803 242.968294 
L 336.474607 243.794745 
L 340.122411 244.595206 
L 343.770215 246.10126 
L 347.418018 245.615546 
L 351.065822 247.735446 
L 354.713626 248.387191 
L 358.36143 248.210849 
L 362.009234 249.578795 
L 365.657038 250.678839 
L 369.304842 249.99487 
L 372.952646 251.485082 
L 376.600449 252.301093 
L 380.248253 252.108213 
L 383.896057 253.498751 
L 387.543861 254.187082 
L 391.191665 255.705676 
L 394.839469 255.11678 
L 398.487273 256.558525 
" clip-path="url(#p2d79ec948f)" style="fill: none; stroke: #ff00ff; stroke-opacity: 0.3; stroke-width: 0.5; stroke-linecap: square"/>
   </g>
   <g id="line2d_47">
    <path d="M 73.832727 178.386941 
L 77.480531 178.277886 
L 81.128335 178.612803 
L 84.776139 179.026294 
L 88.423943 179.567575 
L 92.071747 179.2094 
L 95.719551 179.733418 
L 99.367354 180.209292 
L 103.015158 180.253974 
L 106.662962 180.260266 
L 110.310766 180.178139 
L 113.95857 180.133949 
L 117.606374 179.896328 
L 121.254178 180.548964 
L 124.901982 180.941187 
L 128.549785 180.632758 
L 132.197589 181.29042 
L 135.845393 181.560021 
L 139.493197 181.174582 
L 143.141001 181.479457 
L 146.788805 181.43506 
L 150.436609 181.945317 
L 154.084413 182.006758 
L 157.732217 182.405957 
L 161.38002 182.59648 
L 165.027824 182.164629 
L 168.675628 182.829643 
L 172.323432 182.933064 
L 175.971236 183.192999 
L 179.61904 183.048734 
L 183.266844 183.217498 
L 186.914648 183.625652 
L 190.562451 184.060075 
L 194.210255 184.04059 
L 197.858059 183.732213 
L 201.505863 184.108336 
L 205.153667 184.808496 
L 208.801471 184.375933 
L 212.449275 184.713499 
L 216.097079 185.176232 
L 219.744883 184.833795 
L 223.392686 185.349996 
L 227.04049 185.585162 
L 230.688294 185.798361 
L 234.336098 186.322871 
L 237.983902 185.845007 
L 241.631706 185.841466 
L 245.27951 186.712315 
L 248.927314 186.673009 
L 252.575117 187.013779 
L 256.222921 186.928809 
L 259.870725 186.935373 
L 263.518529 187.794722 
L 267.166333 187.630675 
L 270.814137 188.208097 
L 274.461941 188.664046 
L 278.109745 188.258618 
L 281.757549 188.584723 
L 285.405352 188.835601 
L 289.053156 188.838779 
L 292.70096 189.304872 
L 296.348764 189.838633 
L 299.996568 189.996078 
L 303.644372 190.080285 
L 307.292176 190.367575 
L 310.93998 190.798134 
L 314.587783 190.586356 
L 318.235587 190.994911 
L 321.883391 191.523129 
L 325.531195 191.370956 
L 329.178999 192.20914 
L 332.826803 191.906694 
L 336.474607 192.585159 
L 340.122411 191.459078 
L 343.770215 192.653486 
L 347.418018 192.612306 
L 351.065822 192.996053 
L 354.713626 192.467253 
L 358.36143 193.833914 
L 362.009234 194.168482 
L 365.657038 194.402575 
L 369.304842 194.016296 
L 372.952646 194.058458 
L 376.600449 195.032146 
L 380.248253 194.452489 
L 383.896057 194.728331 
L 387.543861 195.159872 
L 391.191665 195.892916 
L 394.839469 196.370108 
L 398.487273 195.790671 
" clip-path="url(#p2d79ec948f)" style="fill: none; stroke: #ff00ff; stroke-opacity: 0.3; stroke-width: 0.5; stroke-linecap: square"/>
   </g>
   <g id="line2d_48">
    <path d="M 73.832727 146.70585 
L 77.480531 150.681129 
L 81.128335 153.05577 
L 84.776139 153.536722 
L 88.423943 157.815041 
L 92.071747 160.754066 
L 95.719551 162.053821 
L 99.367354 165.778881 
L 103.015158 166.178455 
L 106.662962 169.855526 
L 110.310766 170.253394 
L 113.95857 173.039718 
L 117.606374 173.697806 
L 121.254178 173.902064 
L 124.901982 175.465772 
L 128.549785 178.579583 
L 132.197589 179.146344 
L 135.845393 180.636983 
L 139.493197 180.329524 
L 143.141001 183.1213 
L 146.788805 184.37729 
L 150.436609 185.72785 
L 154.084413 185.373332 
L 157.732217 187.417695 
L 161.38002 186.984396 
L 165.027824 188.605074 
L 168.675628 190.094318 
L 172.323432 190.55236 
L 175.971236 191.623462 
L 179.61904 191.82688 
L 183.266844 191.776888 
L 186.914648 193.076978 
L 190.562451 194.475192 
L 194.210255 195.564615 
L 197.858059 195.563284 
L 201.505863 196.006842 
L 205.153667 197.624419 
L 208.801471 197.369122 
L 212.449275 199.421535 
L 216.097079 199.221606 
L 219.744883 199.773482 
L 223.392686 199.909814 
L 227.04049 200.493179 
L 230.688294 201.423931 
L 234.336098 203.73708 
L 237.983902 202.855403 
L 241.631706 203.153417 
L 245.27951 204.418995 
L 248.927314 204.845213 
L 252.575117 205.160568 
L 256.222921 206.49247 
L 259.870725 207.66654 
L 263.518529 207.192604 
L 267.166333 207.094481 
L 270.814137 208.455494 
L 274.461941 209.216668 
L 278.109745 209.802165 
L 281.757549 209.592209 
L 285.405352 211.63099 
L 289.053156 211.482991 
L 292.70096 211.847498 
L 296.348764 212.634695 
L 299.996568 212.98491 
L 303.644372 213.455215 
L 307.292176 214.228251 
L 310.93998 214.212978 
L 314.587783 214.872242 
L 318.235587 215.813188 
L 321.883391 216.54255 
L 325.531195 216.343357 
L 329.178999 217.043336 
L 332.826803 218.261713 
L 336.474607 218.172234 
L 340.122411 217.423542 
L 343.770215 219.550375 
L 347.418018 219.005585 
L 351.065822 220.494067 
L 354.713626 221.53269 
L 358.36143 221.143814 
L 362.009234 221.999358 
L 365.657038 222.225692 
L 369.304842 223.049294 
L 372.952646 223.776731 
L 376.600449 224.374148 
L 380.248253 224.256656 
L 383.896057 225.390696 
L 387.543861 225.216409 
L 391.191665 225.782867 
L 394.839469 227.453976 
L 398.487273 226.768313 
" clip-path="url(#p2d79ec948f)" style="fill: none; stroke: #ff00ff; stroke-opacity: 0.3; stroke-width: 0.5; stroke-linecap: square"/>
   </g>
   <g id="line2d_49">
    <path d="M 73.832727 166.826129 
L 77.480531 170.07317 
L 81.128335 174.044856 
L 84.776139 178.813637 
L 88.423943 183.057211 
L 92.071747 186.099283 
L 95.719551 189.87741 
L 99.367354 192.126612 
L 103.015158 195.512039 
L 106.662962 198.537998 
L 110.310766 201.10784 
L 113.95857 203.270328 
L 117.606374 205.662077 
L 121.254178 208.440519 
L 124.901982 209.95585 
L 128.549785 211.1573 
L 132.197589 213.589647 
L 135.845393 214.794315 
L 139.493197 217.751662 
L 143.141001 217.98383 
L 146.788805 220.137132 
L 150.436609 220.805997 
L 154.084413 223.138237 
L 157.732217 224.564012 
L 161.38002 226.787127 
L 165.027824 227.09615 
L 168.675628 228.560539 
L 172.323432 229.274331 
L 175.971236 230.501119 
L 179.61904 231.695773 
L 183.266844 232.440446 
L 186.914648 233.910308 
L 190.562451 235.14826 
L 194.210255 236.264172 
L 197.858059 238.736304 
L 201.505863 238.604973 
L 205.153667 240.37927 
L 208.801471 241.179931 
L 212.449275 242.574256 
L 216.097079 243.918659 
L 219.744883 244.677565 
L 223.392686 246.301137 
L 227.04049 246.595488 
L 230.688294 247.960766 
L 234.336098 249.182651 
L 237.983902 250.295662 
L 241.631706 250.985685 
L 245.27951 252.970966 
L 248.927314 254.168869 
L 252.575117 255.098089 
L 256.222921 255.387194 
L 259.870725 256.337818 
L 263.518529 258.24795 
L 267.166333 258.223749 
L 270.814137 260.102746 
L 274.461941 260.823496 
L 278.109745 260.574893 
L 281.757549 261.45155 
L 285.405352 262.906054 
L 289.053156 264.518779 
L 292.70096 264.122215 
L 296.348764 265.802912 
L 299.996568 266.180223 
L 303.644372 267.680417 
L 307.292176 268.106887 
L 310.93998 269.406067 
L 314.587783 270.202237 
L 318.235587 271.097501 
L 321.883391 271.743392 
L 325.531195 272.740945 
L 329.178999 272.707712 
L 332.826803 273.198698 
L 336.474607 273.829697 
L 340.122411 275.192251 
L 343.770215 276.118962 
L 347.418018 275.902429 
L 351.065822 278.02314 
L 354.713626 277.950894 
L 358.36143 278.968347 
L 362.009234 279.289254 
L 365.657038 280.148942 
L 369.304842 280.789897 
L 372.952646 281.526717 
L 376.600449 282.371097 
L 380.248253 281.563346 
L 383.896057 282.611357 
L 387.543861 283.921077 
L 391.191665 283.859433 
L 394.839469 284.581917 
L 398.487273 285.178042 
" clip-path="url(#p2d79ec948f)" style="fill: none; stroke: #ff00ff; stroke-opacity: 0.3; stroke-width: 0.5; stroke-linecap: square"/>
   </g>
   <g id="line2d_50">
    <path d="M 73.832727 177.335247 
L 77.480531 178.351433 
L 81.128335 180.247746 
L 84.776139 181.283921 
L 88.423943 183.016186 
L 92.071747 185.066984 
L 95.719551 186.737421 
L 99.367354 187.538508 
L 103.015158 189.496958 
L 106.662962 190.004838 
L 110.310766 192.743082 
L 113.95857 193.112834 
L 117.606374 194.317308 
L 121.254178 196.050529 
L 124.901982 197.057308 
L 128.549785 198.607824 
L 132.197589 199.778638 
L 135.845393 201.833739 
L 139.493197 202.304664 
L 143.141001 203.880247 
L 146.788805 204.894055 
L 150.436609 207.114754 
L 154.084413 208.062677 
L 157.732217 209.282372 
L 161.38002 209.912125 
L 165.027824 211.569305 
L 168.675628 213.220605 
L 172.323432 213.424631 
L 175.971236 214.986259 
L 179.61904 216.566144 
L 183.266844 217.400801 
L 186.914648 218.734783 
L 190.562451 219.161053 
L 194.210255 221.545695 
L 197.858059 222.117102 
L 201.505863 222.489277 
L 205.153667 224.343861 
L 208.801471 225.610059 
L 212.449275 225.961308 
L 216.097079 227.510467 
L 219.744883 228.019387 
L 223.392686 229.45431 
L 227.04049 230.668449 
L 230.688294 231.341855 
L 234.336098 232.041143 
L 237.983902 232.997032 
L 241.631706 234.483414 
L 245.27951 235.983388 
L 248.927314 237.141068 
L 252.575117 237.883525 
L 256.222921 238.74394 
L 259.870725 239.810312 
L 263.518529 241.219858 
L 267.166333 241.215852 
L 270.814137 243.330675 
L 274.461941 244.227282 
L 278.109745 244.200425 
L 281.757549 245.819281 
L 285.405352 246.350173 
L 289.053156 247.300403 
L 292.70096 248.354455 
L 296.348764 249.016543 
L 299.996568 250.351591 
L 303.644372 250.608955 
L 307.292176 251.918174 
L 310.93998 252.965804 
L 314.587783 253.471119 
L 318.235587 254.589014 
L 321.883391 255.408482 
L 325.531195 255.878626 
L 329.178999 257.63913 
L 332.826803 258.228678 
L 336.474607 258.196698 
L 340.122411 259.442351 
L 343.770215 260.54195 
L 347.418018 261.055774 
L 351.065822 262.13216 
L 354.713626 262.668809 
L 358.36143 263.993585 
L 362.009234 264.748317 
L 365.657038 265.365653 
L 369.304842 266.177794 
L 372.952646 266.681604 
L 376.600449 268.117683 
L 380.248253 267.769709 
L 383.896057 268.984959 
L 387.543861 269.18881 
L 391.191665 269.968635 
L 394.839469 271.363167 
L 398.487273 271.590721 
" clip-path="url(#p2d79ec948f)" style="fill: none; stroke: #ff00ff; stroke-opacity: 0.3; stroke-width: 0.5; stroke-linecap: square"/>
   </g>
   <g id="line2d_51">
    <path d="M 73.832727 182.794058 
L 77.480531 184.337648 
L 81.128335 185.278155 
L 84.776139 186.739475 
L 88.423943 188.147277 
L 92.071747 188.648761 
L 95.719551 189.006987 
L 99.367354 191.412549 
L 103.015158 192.347642 
L 106.662962 193.296664 
L 110.310766 194.74788 
L 113.95857 195.627011 
L 117.606374 197.166144 
L 121.254178 196.834186 
L 124.901982 198.829849 
L 128.549785 200.04922 
L 132.197589 199.689236 
L 135.845393 201.355784 
L 139.493197 202.427712 
L 143.141001 203.127084 
L 146.788805 204.566943 
L 150.436609 204.439062 
L 154.084413 205.350806 
L 157.732217 207.662832 
L 161.38002 207.814177 
L 165.027824 207.9234 
L 168.675628 209.570954 
L 172.323432 210.173352 
L 175.971236 211.054202 
L 179.61904 212.986357 
L 183.266844 212.379475 
L 186.914648 213.594699 
L 190.562451 213.542459 
L 194.210255 214.675349 
L 197.858059 215.867561 
L 201.505863 216.646734 
L 205.153667 217.797778 
L 208.801471 218.482213 
L 212.449275 219.651399 
L 216.097079 220.159737 
L 219.744883 220.70631 
L 223.392686 221.774349 
L 227.04049 222.119364 
L 230.688294 223.098156 
L 234.336098 224.003368 
L 237.983902 225.200264 
L 241.631706 225.948581 
L 245.27951 226.528968 
L 248.927314 228.100009 
L 252.575117 227.675871 
L 256.222921 229.13986 
L 259.870725 229.512236 
L 263.518529 230.841812 
L 267.166333 232.1564 
L 270.814137 232.159184 
L 274.461941 233.614387 
L 278.109745 233.686423 
L 281.757549 234.471836 
L 285.405352 234.972067 
L 289.053156 236.003332 
L 292.70096 236.87944 
L 296.348764 238.262497 
L 299.996568 238.609017 
L 303.644372 238.791141 
L 307.292176 240.284907 
L 310.93998 241.394216 
L 314.587783 242.124547 
L 318.235587 242.711304 
L 321.883391 243.375627 
L 325.531195 244.384952 
L 329.178999 244.599244 
L 332.826803 245.698726 
L 336.474607 246.46136 
L 340.122411 246.519079 
L 343.770215 248.055136 
L 347.418018 247.788714 
L 351.065822 249.280083 
L 354.713626 250.313887 
L 358.36143 250.048693 
L 362.009234 250.656408 
L 365.657038 252.514965 
L 369.304842 251.989926 
L 372.952646 253.26208 
L 376.600449 254.498657 
L 380.248253 254.022001 
L 383.896057 255.654908 
L 387.543861 255.491591 
L 391.191665 256.456183 
L 394.839469 256.563732 
L 398.487273 258.048783 
" clip-path="url(#p2d79ec948f)" style="fill: none; stroke: #ff00ff; stroke-opacity: 0.3; stroke-width: 0.5; stroke-linecap: square"/>
   </g>
   <g id="line2d_52">
    <path d="M 73.832727 174.896258 
L 77.480531 175.635234 
L 81.128335 175.227764 
L 84.776139 175.286245 
L 88.423943 175.812538 
L 92.071747 175.928015 
L 95.719551 175.063924 
L 99.367354 175.65667 
L 103.015158 175.959284 
L 106.662962 175.757959 
L 110.310766 175.933157 
L 113.95857 176.678128 
L 117.606374 176.786175 
L 121.254178 176.416151 
L 124.901982 176.254391 
L 128.549785 176.550815 
L 132.197589 176.559563 
L 135.845393 176.954228 
L 139.493197 176.919082 
L 143.141001 177.208271 
L 146.788805 176.663411 
L 150.436609 177.40811 
L 154.084413 177.475804 
L 157.732217 176.989825 
L 161.38002 177.272773 
L 165.027824 177.045335 
L 168.675628 178.135895 
L 172.323432 177.782747 
L 175.971236 176.708893 
L 179.61904 178.211691 
L 183.266844 177.988917 
L 186.914648 177.642655 
L 190.562451 177.660564 
L 194.210255 178.046623 
L 197.858059 178.041299 
L 201.505863 178.365259 
L 205.153667 177.847572 
L 208.801471 177.790228 
L 212.449275 178.435072 
L 216.097079 178.809709 
L 219.744883 178.774253 
L 223.392686 178.711805 
L 227.04049 179.246574 
L 230.688294 178.970642 
L 234.336098 179.331918 
L 237.983902 179.337798 
L 241.631706 179.197189 
L 245.27951 178.908453 
L 248.927314 179.739556 
L 252.575117 179.624389 
L 256.222921 179.550958 
L 259.870725 179.860769 
L 263.518529 179.36249 
L 267.166333 179.880397 
L 270.814137 180.323606 
L 274.461941 179.967834 
L 278.109745 180.318463 
L 281.757549 180.301278 
L 285.405352 181.149011 
L 289.053156 180.647475 
L 292.70096 180.733233 
L 296.348764 181.241139 
L 299.996568 180.481115 
L 303.644372 180.815154 
L 307.292176 180.407051 
L 310.93998 181.187064 
L 314.587783 181.409321 
L 318.235587 181.217028 
L 321.883391 181.595102 
L 325.531195 181.422514 
L 329.178999 181.866149 
L 332.826803 181.030459 
L 336.474607 181.206756 
L 340.122411 181.649319 
L 343.770215 182.232516 
L 347.418018 181.612507 
L 351.065822 181.75557 
L 354.713626 182.518901 
L 358.36143 181.757896 
L 362.009234 182.261576 
L 365.657038 181.930148 
L 369.304842 182.7735 
L 372.952646 183.006392 
L 376.600449 182.484983 
L 380.248253 182.625217 
L 383.896057 182.607631 
L 387.543861 182.711065 
L 391.191665 182.877219 
L 394.839469 183.05858 
L 398.487273 183.715235 
" clip-path="url(#p2d79ec948f)" style="fill: none; stroke: #ff00ff; stroke-opacity: 0.3; stroke-width: 0.5; stroke-linecap: square"/>
   </g>
   <g id="line2d_53">
    <path d="M 73.832727 192.10546 
L 77.480531 192.87524 
L 81.128335 192.833931 
L 84.776139 198.114804 
L 88.423943 200.009165 
L 92.071747 201.761949 
L 95.719551 203.333048 
L 99.367354 205.114168 
L 103.015158 207.575291 
L 106.662962 208.598234 
L 110.310766 212.148923 
L 113.95857 213.074648 
L 117.606374 213.689127 
L 121.254178 215.588657 
L 124.901982 218.92519 
L 128.549785 220.30835 
L 132.197589 221.018912 
L 135.845393 222.366546 
L 139.493197 224.334183 
L 143.141001 226.023478 
L 146.788805 226.148717 
L 150.436609 228.965599 
L 154.084413 229.582301 
L 157.732217 231.760249 
L 161.38002 231.054243 
L 165.027824 233.775372 
L 168.675628 235.464635 
L 172.323432 234.710872 
L 175.971236 237.390925 
L 179.61904 239.535983 
L 183.266844 239.734794 
L 186.914648 240.253987 
L 190.562451 241.311618 
L 194.210255 243.24221 
L 197.858059 244.456697 
L 201.505863 245.092238 
L 205.153667 245.899347 
L 208.801471 248.206843 
L 212.449275 248.415682 
L 216.097079 249.192503 
L 219.744883 249.719145 
L 223.392686 251.01428 
L 227.04049 252.974687 
L 230.688294 254.335346 
L 234.336098 254.667982 
L 237.983902 255.022055 
L 241.631706 257.30661 
L 245.27951 257.157641 
L 248.927314 258.386252 
L 252.575117 259.269815 
L 256.222921 259.566207 
L 259.870725 260.69902 
L 263.518529 261.685823 
L 267.166333 262.76385 
L 270.814137 263.699835 
L 274.461941 264.72347 
L 278.109745 264.88733 
L 281.757549 266.530503 
L 285.405352 266.411364 
L 289.053156 266.825649 
L 292.70096 267.458748 
L 296.348764 268.366493 
L 299.996568 269.651214 
L 303.644372 270.054949 
L 307.292176 270.498171 
L 310.93998 271.220258 
L 314.587783 272.886651 
L 318.235587 272.904676 
L 321.883391 273.3255 
L 325.531195 274.025253 
L 329.178999 275.758616 
L 332.826803 275.12198 
L 336.474607 275.865077 
L 340.122411 276.385642 
L 343.770215 277.112426 
L 347.418018 277.732442 
L 351.065822 278.213921 
L 354.713626 279.126689 
L 358.36143 279.422474 
L 362.009234 280.477544 
L 365.657038 280.938003 
L 369.304842 280.515067 
L 372.952646 281.836629 
L 376.600449 282.384264 
L 380.248253 282.47749 
L 383.896057 283.260494 
L 387.543861 283.508752 
L 391.191665 284.151468 
L 394.839469 285.128929 
L 398.487273 285.881181 
" clip-path="url(#p2d79ec948f)" style="fill: none; stroke: #ff00ff; stroke-opacity: 0.3; stroke-width: 0.5; stroke-linecap: square"/>
   </g>
   <g id="line2d_54">
    <path d="M 73.832727 182.210615 
L 77.480531 185.232763 
L 81.128335 186.653873 
L 84.776139 187.881087 
L 88.423943 188.615825 
L 92.071747 190.304274 
L 95.719551 192.619064 
L 99.367354 193.820114 
L 103.015158 194.754341 
L 106.662962 197.981909 
L 110.310766 198.815868 
L 113.95857 200.975902 
L 117.606374 201.632569 
L 121.254178 203.304363 
L 124.901982 203.780133 
L 128.549785 205.902851 
L 132.197589 206.890184 
L 135.845393 207.690199 
L 139.493197 210.06723 
L 143.141001 210.704141 
L 146.788805 211.839616 
L 150.436609 213.474248 
L 154.084413 214.166126 
L 157.732217 214.923126 
L 161.38002 216.547421 
L 165.027824 216.901255 
L 168.675628 219.009953 
L 172.323432 220.228646 
L 175.971236 221.342284 
L 179.61904 220.266085 
L 183.266844 222.951636 
L 186.914648 223.647409 
L 190.562451 224.269008 
L 194.210255 224.845009 
L 197.858059 225.479206 
L 201.505863 226.389387 
L 205.153667 227.549651 
L 208.801471 229.482704 
L 212.449275 229.793084 
L 216.097079 231.257603 
L 219.744883 231.760165 
L 223.392686 233.154529 
L 227.04049 233.263932 
L 230.688294 235.133388 
L 234.336098 234.926177 
L 237.983902 236.545492 
L 241.631706 237.641176 
L 245.27951 238.739663 
L 248.927314 239.060154 
L 252.575117 240.26411 
L 256.222921 240.722308 
L 259.870725 241.805827 
L 263.518529 242.254883 
L 267.166333 244.191109 
L 270.814137 243.290599 
L 274.461941 245.076558 
L 278.109745 245.592785 
L 281.757549 245.389509 
L 285.405352 247.525115 
L 289.053156 248.451415 
L 292.70096 248.958798 
L 296.348764 250.025499 
L 299.996568 250.421256 
L 303.644372 250.622632 
L 307.292176 252.148352 
L 310.93998 252.750447 
L 314.587783 254.500621 
L 318.235587 253.917384 
L 321.883391 255.091144 
L 325.531195 255.904306 
L 329.178999 256.216863 
L 332.826803 257.530301 
L 336.474607 258.081997 
L 340.122411 258.467765 
L 343.770215 259.571402 
L 347.418018 259.523354 
L 351.065822 261.189534 
L 354.713626 261.195471 
L 358.36143 262.377184 
L 362.009234 262.634503 
L 365.657038 264.377964 
L 369.304842 262.748384 
L 372.952646 263.779752 
L 376.600449 265.049781 
L 380.248253 266.26111 
L 383.896057 266.462738 
L 387.543861 267.014285 
L 391.191665 267.809002 
L 394.839469 268.709479 
L 398.487273 268.161072 
" clip-path="url(#p2d79ec948f)" style="fill: none; stroke: #ff00ff; stroke-opacity: 0.3; stroke-width: 0.5; stroke-linecap: square"/>
   </g>
   <g id="line2d_55">
    <path d="M 73.832727 173.739865 
L 77.480531 172.196624 
L 81.128335 170.879852 
L 84.776139 169.276398 
L 88.423943 167.80956 
L 92.071747 166.321454 
L 95.719551 165.138662 
L 99.367354 163.956594 
L 103.015158 162.089005 
L 106.662962 161.085055 
L 110.310766 159.504291 
L 113.95857 157.73148 
L 117.606374 157.217811 
L 121.254178 155.879177 
L 124.901982 154.501508 
L 128.549785 153.189788 
L 132.197589 152.117434 
L 135.845393 151.261005 
L 139.493197 149.395872 
L 143.141001 148.41938 
L 146.788805 147.273736 
L 150.436609 145.913278 
L 154.084413 144.806527 
L 157.732217 143.441379 
L 161.38002 142.913058 
L 165.027824 141.844231 
L 168.675628 139.126157 
L 172.323432 140.126786 
L 175.971236 137.736937 
L 179.61904 136.261157 
L 183.266844 136.019725 
L 186.914648 134.43626 
L 190.562451 132.662079 
L 194.210255 131.811323 
L 197.858059 130.218128 
L 201.505863 129.365796 
L 205.153667 127.11733 
L 208.801471 126.157195 
L 212.449275 124.104408 
L 216.097079 123.158887 
L 219.744883 122.040559 
L 223.392686 120.043539 
L 227.04049 119.110953 
L 230.688294 117.659207 
L 234.336098 116.651032 
L 237.983902 114.982404 
L 241.631706 113.220717 
L 245.27951 112.242804 
L 248.927314 110.503678 
L 252.575117 108.724121 
L 256.222921 108.301444 
L 259.870725 106.641821 
L 263.518529 104.434677 
L 267.166333 103.07325 
L 270.814137 101.14355 
L 274.461941 99.915831 
L 278.109745 99.784319 
L 281.757549 98.511893 
L 285.405352 95.658225 
L 289.053156 95.203968 
L 292.70096 94.166681 
L 296.348764 92.336732 
L 299.996568 91.597098 
L 303.644372 90.09819 
L 307.292176 88.194202 
L 310.93998 86.085698 
L 314.587783 84.175302 
L 318.235587 83.060023 
L 321.883391 82.262786 
L 325.531195 81.970613 
L 329.178999 78.682379 
L 332.826803 77.8961 
L 336.474607 77.310822 
L 340.122411 75.942314 
L 343.770215 73.164674 
L 347.418018 73.43222 
L 351.065822 70.345557 
L 354.713626 69.05853 
L 358.36143 68.189658 
L 362.009234 67.124643 
L 365.657038 63.604784 
L 369.304842 64.751126 
L 372.952646 62.341016 
L 376.600449 60.702197 
L 380.248253 61.031221 
L 383.896057 58.56661 
L 387.543861 58.689568 
L 391.191665 56.301114 
L 394.839469 54.077094 
L 398.487273 53.568 
" clip-path="url(#p2d79ec948f)" style="fill: none; stroke: #6495ed; stroke-width: 2; stroke-linecap: square"/>
   </g>
   <g id="line2d_56">
    <path d="M 73.832727 173.200796 
L 77.480531 174.751331 
L 81.128335 176.157895 
L 84.776139 177.595722 
L 88.423943 179.022977 
L 92.071747 180.470697 
L 95.719551 181.689865 
L 99.367354 182.870739 
L 103.015158 184.364112 
L 106.662962 185.459856 
L 110.310766 186.764187 
L 113.95857 188.154597 
L 117.606374 188.980487 
L 121.254178 190.139279 
L 124.901982 191.300856 
L 128.549785 192.43272 
L 132.197589 193.44238 
L 135.845393 194.323536 
L 139.493197 195.544768 
L 143.141001 196.49757 
L 146.788805 197.427726 
L 150.436609 198.449167 
L 154.084413 199.358134 
L 157.732217 200.34793 
L 161.38002 201.004056 
L 165.027824 201.833244 
L 168.675628 203.287509 
L 172.323432 203.36695 
L 175.971236 204.645359 
L 179.61904 205.602162 
L 183.266844 206.092717 
L 186.914648 207.09829 
L 190.562451 208.100997 
L 194.210255 208.756499 
L 197.858059 209.64146 
L 201.505863 210.33395 
L 205.153667 211.467072 
L 208.801471 212.105696 
L 212.449275 213.182957 
L 216.097079 213.837246 
L 219.744883 214.570545 
L 223.392686 215.557314 
L 227.04049 216.18049 
L 230.688294 217.021234 
L 234.336098 217.667207 
L 237.983902 218.521352 
L 241.631706 219.362428 
L 245.27951 220.016393 
L 248.927314 220.843111 
L 252.575117 221.728933 
L 256.222921 222.190339 
L 259.870725 222.997053 
L 263.518529 223.910125 
L 267.166333 224.612288 
L 270.814137 225.513965 
L 274.461941 226.155999 
L 278.109745 226.496251 
L 281.757549 227.163636 
L 285.405352 228.22462 
L 289.053156 228.652586 
L 292.70096 229.258063 
L 296.348764 229.99678 
L 299.996568 230.460807 
L 303.644372 231.172828 
L 307.292176 231.943487 
L 310.93998 232.729058 
L 314.587783 233.496021 
L 318.235587 234.104688 
L 321.883391 234.598092 
L 325.531195 234.926332 
L 329.178999 236.029078 
L 332.826803 236.48999 
L 336.474607 236.907707 
L 340.122411 237.489305 
L 343.770215 238.435537 
L 347.418018 238.618158 
L 351.065822 239.618647 
L 354.713626 240.161198 
L 358.36143 240.657638 
L 362.009234 241.157911 
L 365.657038 242.186022 
L 369.304842 242.2214 
L 372.952646 243.012452 
L 376.600449 243.604118 
L 380.248253 243.827762 
L 383.896057 244.555126 
L 387.543861 244.806648 
L 391.191665 245.564398 
L 394.839469 246.259293 
L 398.487273 246.587321 
" clip-path="url(#p2d79ec948f)" style="fill: none; stroke: #dc143c; stroke-width: 2; stroke-linecap: square"/>
   </g>
   <g id="line2d_57">
    <path d="M 73.832727 183.718658 
L 77.480531 174.834174 
L 81.128335 166.838138 
L 84.776139 162.173784 
L 88.423943 159.064214 
L 92.071747 157.50943 
L 95.719551 155.510421 
L 99.367354 154.621972 
L 103.015158 154.844084 
L 106.662962 154.39986 
L 110.310766 153.733524 
L 113.95857 153.955636 
L 117.606374 153.2893 
L 121.254178 153.511412 
L 124.901982 154.177748 
L 128.549785 155.066196 
L 132.197589 155.288309 
L 135.845393 155.954645 
L 139.493197 156.398869 
L 143.141001 157.287317 
L 146.788805 157.731542 
L 150.436609 158.175766 
L 154.084413 158.397878 
L 157.732217 158.175766 
L 161.38002 158.175766 
L 165.027824 158.175766 
L 168.675628 158.397878 
L 172.323432 158.842102 
L 175.971236 158.397878 
L 179.61904 157.731542 
L 183.266844 157.731542 
L 186.914648 157.287317 
L 190.562451 157.065205 
L 194.210255 157.287317 
L 197.858059 157.731542 
L 201.505863 157.953654 
L 205.153667 158.175766 
L 208.801471 158.175766 
L 212.449275 158.61999 
L 216.097079 158.61999 
L 219.744883 159.064214 
L 223.392686 159.064214 
L 227.04049 159.508439 
L 230.688294 159.286326 
L 234.336098 159.730551 
L 237.983902 159.952663 
L 241.631706 160.396887 
L 245.27951 160.841111 
L 248.927314 161.285335 
L 252.575117 161.507447 
L 256.222921 161.72956 
L 259.870725 161.951672 
L 263.518529 162.173784 
L 267.166333 162.173784 
L 270.814137 162.173784 
L 274.461941 162.173784 
L 278.109745 162.173784 
L 281.757549 162.84012 
L 285.405352 162.84012 
L 289.053156 162.84012 
L 292.70096 162.84012 
L 296.348764 162.84012 
L 299.996568 162.84012 
L 303.644372 162.618008 
L 307.292176 162.395896 
L 310.93998 162.618008 
L 314.587783 162.84012 
L 318.235587 162.84012 
L 321.883391 162.84012 
L 325.531195 162.84012 
L 329.178999 162.84012 
L 332.826803 162.84012 
L 336.474607 162.84012 
L 340.122411 163.062232 
L 343.770215 163.062232 
L 347.418018 163.062232 
L 351.065822 163.284344 
L 354.713626 163.284344 
L 358.36143 163.284344 
L 362.009234 163.284344 
L 365.657038 163.284344 
L 369.304842 163.284344 
L 372.952646 163.284344 
L 376.600449 163.284344 
L 380.248253 163.284344 
L 383.896057 163.506456 
L 387.543861 163.506456 
L 391.191665 163.284344 
L 394.839469 163.506456 
L 398.487273 163.506456 
" clip-path="url(#p2d79ec948f)" style="fill: none; stroke: #ffff00; stroke-width: 3; stroke-linecap: square"/>
   </g>
   <g id="patch_3">
    <path d="M 57.6 307.584 
L 57.6 41.472 
" style="fill: none; stroke: #ffffff; stroke-linejoin: miter; stroke-linecap: square"/>
   </g>
   <g id="patch_4">
    <path d="M 414.72 307.584 
L 414.72 41.472 
" style="fill: none; stroke: #ffffff; stroke-linejoin: miter; stroke-linecap: square"/>
   </g>
   <g id="patch_5">
    <path d="M 57.6 307.584 
L 414.72 307.584 
" style="fill: none; stroke: #ffffff; stroke-linejoin: miter; stroke-linecap: square"/>
   </g>
   <g id="patch_6">
    <path d="M 57.6 41.472 
L 414.72 41.472 
" style="fill: none; stroke: #ffffff; stroke-linejoin: miter; stroke-linecap: square"/>
   </g>
  </g>
 </g>
 <defs>
  <clipPath id="p2d79ec948f">
   <rect x="57.6" y="41.472" width="357.12" height="266.112"/>
  </clipPath>
 </defs>
</svg>
