<?xml version="1.0" encoding="utf-8" standalone="no"?>
<!DOCTYPE svg PUBLIC "-//W3C//DTD SVG 1.1//EN"
  "http://www.w3.org/Graphics/SVG/1.1/DTD/svg11.dtd">
<svg xmlns:xlink="http://www.w3.org/1999/xlink" width="460.8pt" height="345.6pt" viewBox="0 0 460.8 345.6" xmlns="http://www.w3.org/2000/svg" version="1.1">
 <metadata>
  <rdf:RDF xmlns:dc="http://purl.org/dc/elements/1.1/" xmlns:cc="http://creativecommons.org/ns#" xmlns:rdf="http://www.w3.org/1999/02/22-rdf-syntax-ns#">
   <cc:Work>
    <dc:type rdf:resource="http://purl.org/dc/dcmitype/StillImage"/>
    <dc:date>2023-07-12T19:17:14.005856</dc:date>
    <dc:format>image/svg+xml</dc:format>
    <dc:creator>
     <cc:Agent>
      <dc:title>Matplotlib v3.7.1, https://matplotlib.org/</dc:title>
     </cc:Agent>
    </dc:creator>
   </cc:Work>
  </rdf:RDF>
 </metadata>
 <defs>
  <style type="text/css">*{stroke-linejoin: round; stroke-linecap: butt}</style>
 </defs>
 <g id="figure_1">
  <g id="patch_1">
   <path d="M 0 345.6 
L 460.8 345.6 
L 460.8 0 
L 0 0 
z
" style="fill: #ffffff"/>
  </g>
  <g id="axes_1">
   <g id="patch_2">
    <path d="M 57.6 307.584 
L 414.72 307.584 
L 414.72 41.472 
L 57.6 41.472 
z
" style="fill: #e5e5e5"/>
   </g>
   <g id="matplotlib.axis_1">
    <g id="xtick_1">
     <g id="line2d_1">
      <path d="M 70.184923 307.584 
L 70.184923 41.472 
" clip-path="url(#pdbd8fee295)" style="fill: none; stroke: #ffffff; stroke-width: 0.8; stroke-linecap: square"/>
     </g>
     <g id="line2d_2">
      <defs>
       <path id="m85c0e1de55" d="M 0 0 
L 0 3.5 
" style="stroke: #555555; stroke-width: 0.8"/>
      </defs>
      <g>
       <use xlink:href="#m85c0e1de55" x="70.184923" y="307.584" style="fill: #555555; stroke: #555555; stroke-width: 0.8"/>
      </g>
     </g>
     <g id="text_1">
      <!-- 0 -->
      <g style="fill: #555555" transform="translate(67.003673 322.182437) scale(0.1 -0.1)">
       <defs>
        <path id="DejaVuSans-30" d="M 2034 4250 
Q 1547 4250 1301 3770 
Q 1056 3291 1056 2328 
Q 1056 1369 1301 889 
Q 1547 409 2034 409 
Q 2525 409 2770 889 
Q 3016 1369 3016 2328 
Q 3016 3291 2770 3770 
Q 2525 4250 2034 4250 
z
M 2034 4750 
Q 2819 4750 3233 4129 
Q 3647 3509 3647 2328 
Q 3647 1150 3233 529 
Q 2819 -91 2034 -91 
Q 1250 -91 836 529 
Q 422 1150 422 2328 
Q 422 3509 836 4129 
Q 1250 4750 2034 4750 
z
" transform="scale(0.015625)"/>
       </defs>
       <use xlink:href="#DejaVuSans-30"/>
      </g>
     </g>
    </g>
    <g id="xtick_2">
     <g id="line2d_3">
      <path d="M 143.141001 307.584 
L 143.141001 41.472 
" clip-path="url(#pdbd8fee295)" style="fill: none; stroke: #ffffff; stroke-width: 0.8; stroke-linecap: square"/>
     </g>
     <g id="line2d_4">
      <g>
       <use xlink:href="#m85c0e1de55" x="143.141001" y="307.584" style="fill: #555555; stroke: #555555; stroke-width: 0.8"/>
      </g>
     </g>
     <g id="text_2">
      <!-- 20 -->
      <g style="fill: #555555" transform="translate(136.778501 322.182437) scale(0.1 -0.1)">
       <defs>
        <path id="DejaVuSans-32" d="M 1228 531 
L 3431 531 
L 3431 0 
L 469 0 
L 469 531 
Q 828 903 1448 1529 
Q 2069 2156 2228 2338 
Q 2531 2678 2651 2914 
Q 2772 3150 2772 3378 
Q 2772 3750 2511 3984 
Q 2250 4219 1831 4219 
Q 1534 4219 1204 4116 
Q 875 4013 500 3803 
L 500 4441 
Q 881 4594 1212 4672 
Q 1544 4750 1819 4750 
Q 2544 4750 2975 4387 
Q 3406 4025 3406 3419 
Q 3406 3131 3298 2873 
Q 3191 2616 2906 2266 
Q 2828 2175 2409 1742 
Q 1991 1309 1228 531 
z
" transform="scale(0.015625)"/>
       </defs>
       <use xlink:href="#DejaVuSans-32"/>
       <use xlink:href="#DejaVuSans-30" x="63.623047"/>
      </g>
     </g>
    </g>
    <g id="xtick_3">
     <g id="line2d_5">
      <path d="M 216.097079 307.584 
L 216.097079 41.472 
" clip-path="url(#pdbd8fee295)" style="fill: none; stroke: #ffffff; stroke-width: 0.8; stroke-linecap: square"/>
     </g>
     <g id="line2d_6">
      <g>
       <use xlink:href="#m85c0e1de55" x="216.097079" y="307.584" style="fill: #555555; stroke: #555555; stroke-width: 0.8"/>
      </g>
     </g>
     <g id="text_3">
      <!-- 40 -->
      <g style="fill: #555555" transform="translate(209.734579 322.182437) scale(0.1 -0.1)">
       <defs>
        <path id="DejaVuSans-34" d="M 2419 4116 
L 825 1625 
L 2419 1625 
L 2419 4116 
z
M 2253 4666 
L 3047 4666 
L 3047 1625 
L 3713 1625 
L 3713 1100 
L 3047 1100 
L 3047 0 
L 2419 0 
L 2419 1100 
L 313 1100 
L 313 1709 
L 2253 4666 
z
" transform="scale(0.015625)"/>
       </defs>
       <use xlink:href="#DejaVuSans-34"/>
       <use xlink:href="#DejaVuSans-30" x="63.623047"/>
      </g>
     </g>
    </g>
    <g id="xtick_4">
     <g id="line2d_7">
      <path d="M 289.053156 307.584 
L 289.053156 41.472 
" clip-path="url(#pdbd8fee295)" style="fill: none; stroke: #ffffff; stroke-width: 0.8; stroke-linecap: square"/>
     </g>
     <g id="line2d_8">
      <g>
       <use xlink:href="#m85c0e1de55" x="289.053156" y="307.584" style="fill: #555555; stroke: #555555; stroke-width: 0.8"/>
      </g>
     </g>
     <g id="text_4">
      <!-- 60 -->
      <g style="fill: #555555" transform="translate(282.690656 322.182437) scale(0.1 -0.1)">
       <defs>
        <path id="DejaVuSans-36" d="M 2113 2584 
Q 1688 2584 1439 2293 
Q 1191 2003 1191 1497 
Q 1191 994 1439 701 
Q 1688 409 2113 409 
Q 2538 409 2786 701 
Q 3034 994 3034 1497 
Q 3034 2003 2786 2293 
Q 2538 2584 2113 2584 
z
M 3366 4563 
L 3366 3988 
Q 3128 4100 2886 4159 
Q 2644 4219 2406 4219 
Q 1781 4219 1451 3797 
Q 1122 3375 1075 2522 
Q 1259 2794 1537 2939 
Q 1816 3084 2150 3084 
Q 2853 3084 3261 2657 
Q 3669 2231 3669 1497 
Q 3669 778 3244 343 
Q 2819 -91 2113 -91 
Q 1303 -91 875 529 
Q 447 1150 447 2328 
Q 447 3434 972 4092 
Q 1497 4750 2381 4750 
Q 2619 4750 2861 4703 
Q 3103 4656 3366 4563 
z
" transform="scale(0.015625)"/>
       </defs>
       <use xlink:href="#DejaVuSans-36"/>
       <use xlink:href="#DejaVuSans-30" x="63.623047"/>
      </g>
     </g>
    </g>
    <g id="xtick_5">
     <g id="line2d_9">
      <path d="M 362.009234 307.584 
L 362.009234 41.472 
" clip-path="url(#pdbd8fee295)" style="fill: none; stroke: #ffffff; stroke-width: 0.8; stroke-linecap: square"/>
     </g>
     <g id="line2d_10">
      <g>
       <use xlink:href="#m85c0e1de55" x="362.009234" y="307.584" style="fill: #555555; stroke: #555555; stroke-width: 0.8"/>
      </g>
     </g>
     <g id="text_5">
      <!-- 80 -->
      <g style="fill: #555555" transform="translate(355.646734 322.182437) scale(0.1 -0.1)">
       <defs>
        <path id="DejaVuSans-38" d="M 2034 2216 
Q 1584 2216 1326 1975 
Q 1069 1734 1069 1313 
Q 1069 891 1326 650 
Q 1584 409 2034 409 
Q 2484 409 2743 651 
Q 3003 894 3003 1313 
Q 3003 1734 2745 1975 
Q 2488 2216 2034 2216 
z
M 1403 2484 
Q 997 2584 770 2862 
Q 544 3141 544 3541 
Q 544 4100 942 4425 
Q 1341 4750 2034 4750 
Q 2731 4750 3128 4425 
Q 3525 4100 3525 3541 
Q 3525 3141 3298 2862 
Q 3072 2584 2669 2484 
Q 3125 2378 3379 2068 
Q 3634 1759 3634 1313 
Q 3634 634 3220 271 
Q 2806 -91 2034 -91 
Q 1263 -91 848 271 
Q 434 634 434 1313 
Q 434 1759 690 2068 
Q 947 2378 1403 2484 
z
M 1172 3481 
Q 1172 3119 1398 2916 
Q 1625 2713 2034 2713 
Q 2441 2713 2670 2916 
Q 2900 3119 2900 3481 
Q 2900 3844 2670 4047 
Q 2441 4250 2034 4250 
Q 1625 4250 1398 4047 
Q 1172 3844 1172 3481 
z
" transform="scale(0.015625)"/>
       </defs>
       <use xlink:href="#DejaVuSans-38"/>
       <use xlink:href="#DejaVuSans-30" x="63.623047"/>
      </g>
     </g>
    </g>
   </g>
   <g id="matplotlib.axis_2">
    <g id="ytick_1">
     <g id="line2d_11">
      <path d="M 57.6 283.391974 
L 414.72 283.391974 
" clip-path="url(#pdbd8fee295)" style="fill: none; stroke: #ffffff; stroke-width: 0.8; stroke-linecap: square"/>
     </g>
     <g id="line2d_12">
      <defs>
       <path id="ma67225d1b2" d="M 0 0 
L -3.5 0 
" style="stroke: #555555; stroke-width: 0.8"/>
      </defs>
      <g>
       <use xlink:href="#ma67225d1b2" x="57.6" y="283.391974" style="fill: #555555; stroke: #555555; stroke-width: 0.8"/>
      </g>
     </g>
     <g id="text_6">
      <!-- 0.2 -->
      <g style="fill: #555555" transform="translate(34.696875 287.191193) scale(0.1 -0.1)">
       <defs>
        <path id="DejaVuSans-2e" d="M 684 794 
L 1344 794 
L 1344 0 
L 684 0 
L 684 794 
z
" transform="scale(0.015625)"/>
       </defs>
       <use xlink:href="#DejaVuSans-30"/>
       <use xlink:href="#DejaVuSans-2e" x="63.623047"/>
       <use xlink:href="#DejaVuSans-32" x="95.410156"/>
      </g>
     </g>
    </g>
    <g id="ytick_2">
     <g id="line2d_13">
      <path d="M 57.6 244.653397 
L 414.72 244.653397 
" clip-path="url(#pdbd8fee295)" style="fill: none; stroke: #ffffff; stroke-width: 0.8; stroke-linecap: square"/>
     </g>
     <g id="line2d_14">
      <g>
       <use xlink:href="#ma67225d1b2" x="57.6" y="244.653397" style="fill: #555555; stroke: #555555; stroke-width: 0.8"/>
      </g>
     </g>
     <g id="text_7">
      <!-- 0.4 -->
      <g style="fill: #555555" transform="translate(34.696875 248.452616) scale(0.1 -0.1)">
       <use xlink:href="#DejaVuSans-30"/>
       <use xlink:href="#DejaVuSans-2e" x="63.623047"/>
       <use xlink:href="#DejaVuSans-34" x="95.410156"/>
      </g>
     </g>
    </g>
    <g id="ytick_3">
     <g id="line2d_15">
      <path d="M 57.6 205.91482 
L 414.72 205.91482 
" clip-path="url(#pdbd8fee295)" style="fill: none; stroke: #ffffff; stroke-width: 0.8; stroke-linecap: square"/>
     </g>
     <g id="line2d_16">
      <g>
       <use xlink:href="#ma67225d1b2" x="57.6" y="205.91482" style="fill: #555555; stroke: #555555; stroke-width: 0.8"/>
      </g>
     </g>
     <g id="text_8">
      <!-- 0.6 -->
      <g style="fill: #555555" transform="translate(34.696875 209.714039) scale(0.1 -0.1)">
       <use xlink:href="#DejaVuSans-30"/>
       <use xlink:href="#DejaVuSans-2e" x="63.623047"/>
       <use xlink:href="#DejaVuSans-36" x="95.410156"/>
      </g>
     </g>
    </g>
    <g id="ytick_4">
     <g id="line2d_17">
      <path d="M 57.6 167.176243 
L 414.72 167.176243 
" clip-path="url(#pdbd8fee295)" style="fill: none; stroke: #ffffff; stroke-width: 0.8; stroke-linecap: square"/>
     </g>
     <g id="line2d_18">
      <g>
       <use xlink:href="#ma67225d1b2" x="57.6" y="167.176243" style="fill: #555555; stroke: #555555; stroke-width: 0.8"/>
      </g>
     </g>
     <g id="text_9">
      <!-- 0.8 -->
      <g style="fill: #555555" transform="translate(34.696875 170.975462) scale(0.1 -0.1)">
       <use xlink:href="#DejaVuSans-30"/>
       <use xlink:href="#DejaVuSans-2e" x="63.623047"/>
       <use xlink:href="#DejaVuSans-38" x="95.410156"/>
      </g>
     </g>
    </g>
    <g id="ytick_5">
     <g id="line2d_19">
      <path d="M 57.6 128.437666 
L 414.72 128.437666 
" clip-path="url(#pdbd8fee295)" style="fill: none; stroke: #ffffff; stroke-width: 0.8; stroke-linecap: square"/>
     </g>
     <g id="line2d_20">
      <g>
       <use xlink:href="#ma67225d1b2" x="57.6" y="128.437666" style="fill: #555555; stroke: #555555; stroke-width: 0.8"/>
      </g>
     </g>
     <g id="text_10">
      <!-- 1.0 -->
      <g style="fill: #555555" transform="translate(34.696875 132.236885) scale(0.1 -0.1)">
       <defs>
        <path id="DejaVuSans-31" d="M 794 531 
L 1825 531 
L 1825 4091 
L 703 3866 
L 703 4441 
L 1819 4666 
L 2450 4666 
L 2450 531 
L 3481 531 
L 3481 0 
L 794 0 
L 794 531 
z
" transform="scale(0.015625)"/>
       </defs>
       <use xlink:href="#DejaVuSans-31"/>
       <use xlink:href="#DejaVuSans-2e" x="63.623047"/>
       <use xlink:href="#DejaVuSans-30" x="95.410156"/>
      </g>
     </g>
    </g>
    <g id="ytick_6">
     <g id="line2d_21">
      <path d="M 57.6 89.699089 
L 414.72 89.699089 
" clip-path="url(#pdbd8fee295)" style="fill: none; stroke: #ffffff; stroke-width: 0.8; stroke-linecap: square"/>
     </g>
     <g id="line2d_22">
      <g>
       <use xlink:href="#ma67225d1b2" x="57.6" y="89.699089" style="fill: #555555; stroke: #555555; stroke-width: 0.8"/>
      </g>
     </g>
     <g id="text_11">
      <!-- 1.2 -->
      <g style="fill: #555555" transform="translate(34.696875 93.498308) scale(0.1 -0.1)">
       <use xlink:href="#DejaVuSans-31"/>
       <use xlink:href="#DejaVuSans-2e" x="63.623047"/>
       <use xlink:href="#DejaVuSans-32" x="95.410156"/>
      </g>
     </g>
    </g>
    <g id="ytick_7">
     <g id="line2d_23">
      <path d="M 57.6 50.960512 
L 414.72 50.960512 
" clip-path="url(#pdbd8fee295)" style="fill: none; stroke: #ffffff; stroke-width: 0.8; stroke-linecap: square"/>
     </g>
     <g id="line2d_24">
      <g>
       <use xlink:href="#ma67225d1b2" x="57.6" y="50.960512" style="fill: #555555; stroke: #555555; stroke-width: 0.8"/>
      </g>
     </g>
     <g id="text_12">
      <!-- 1.4 -->
      <g style="fill: #555555" transform="translate(34.696875 54.759731) scale(0.1 -0.1)">
       <use xlink:href="#DejaVuSans-31"/>
       <use xlink:href="#DejaVuSans-2e" x="63.623047"/>
       <use xlink:href="#DejaVuSans-34" x="95.410156"/>
      </g>
     </g>
    </g>
   </g>
   <g id="line2d_25">
    <path d="M 73.832727 197.938886 
L 77.480531 198.429583 
L 81.128335 199.859846 
L 84.776139 200.37772 
L 88.423943 199.964975 
L 92.071747 201.418051 
L 95.719551 201.31328 
L 99.367354 202.676375 
L 103.015158 203.648856 
L 106.662962 203.328967 
L 110.310766 203.82255 
L 113.95857 204.901996 
L 117.606374 206.002754 
L 121.254178 205.571744 
L 124.901982 206.842202 
L 128.549785 207.942994 
L 132.197589 207.721792 
L 135.845393 207.346579 
L 139.493197 207.546597 
L 143.141001 208.610537 
L 146.788805 208.902937 
L 150.436609 209.37522 
L 154.084413 210.1487 
L 157.732217 210.487142 
L 161.38002 211.865591 
L 165.027824 212.144495 
L 168.675628 213.607731 
L 172.323432 213.331459 
L 175.971236 213.008107 
L 179.61904 213.954288 
L 183.266844 213.31667 
L 186.914648 215.872016 
L 190.562451 216.314744 
L 194.210255 216.028439 
L 197.858059 217.165517 
L 201.505863 216.744737 
L 205.153667 217.506799 
L 208.801471 219.253084 
L 212.449275 218.154381 
L 216.097079 219.869009 
L 219.744883 219.558622 
L 223.392686 220.619642 
L 227.04049 221.249225 
L 230.688294 220.366795 
L 234.336098 222.681682 
L 237.983902 222.111521 
L 241.631706 223.472595 
L 245.27951 222.864601 
L 248.927314 224.97214 
L 252.575117 224.733943 
L 256.222921 226.333468 
L 259.870725 225.319933 
L 263.518529 225.44254 
L 267.166333 226.69381 
L 270.814137 225.380261 
L 274.461941 227.630865 
L 278.109745 227.916298 
L 281.757549 229.228318 
L 285.405352 229.171603 
L 289.053156 229.487664 
L 292.70096 229.560906 
L 296.348764 230.732042 
L 299.996568 231.976298 
L 303.644372 230.738189 
L 307.292176 232.221796 
L 310.93998 232.931363 
L 314.587783 232.52345 
L 318.235587 233.071566 
L 321.883391 234.435647 
L 325.531195 234.868533 
L 329.178999 235.794124 
L 332.826803 237.254058 
L 336.474607 236.755718 
L 340.122411 236.036344 
L 343.770215 236.227113 
L 347.418018 237.652689 
L 351.065822 238.224836 
L 354.713626 238.782061 
L 358.36143 239.021972 
L 362.009234 240.42851 
L 365.657038 240.054805 
L 369.304842 240.351344 
L 372.952646 240.387526 
L 376.600449 241.312366 
L 380.248253 241.714086 
L 383.896057 242.491134 
L 387.543861 243.590402 
L 391.191665 243.1491 
L 394.839469 244.044311 
L 398.487273 243.326529 
" clip-path="url(#pdbd8fee295)" style="fill: none; stroke: #ff00ff; stroke-opacity: 0.3; stroke-width: 0.5; stroke-linecap: square"/>
   </g>
   <g id="line2d_26">
    <path d="M 73.832727 198.320933 
L 77.480531 199.279329 
L 81.128335 201.228678 
L 84.776139 201.384363 
L 88.423943 202.687966 
L 92.071747 205.011027 
L 95.719551 206.402568 
L 99.367354 207.534347 
L 103.015158 208.361131 
L 106.662962 209.034873 
L 110.310766 210.925147 
L 113.95857 211.779431 
L 117.606374 212.610566 
L 121.254178 215.035142 
L 124.901982 215.738718 
L 128.549785 217.71723 
L 132.197589 217.626417 
L 135.845393 219.852303 
L 139.493197 219.988846 
L 143.141001 221.54652 
L 146.788805 222.695697 
L 150.436609 224.387801 
L 154.084413 224.824514 
L 157.732217 227.055578 
L 161.38002 226.609745 
L 165.027824 228.239495 
L 168.675628 228.776579 
L 172.323432 230.750329 
L 175.971236 232.423118 
L 179.61904 232.137732 
L 183.266844 234.08304 
L 186.914648 235.777863 
L 190.562451 236.271665 
L 194.210255 238.004887 
L 197.858059 238.544644 
L 201.505863 240.133397 
L 205.153667 241.267849 
L 208.801471 242.552888 
L 212.449275 242.783101 
L 216.097079 243.416026 
L 219.744883 244.974185 
L 223.392686 246.353656 
L 227.04049 247.077885 
L 230.688294 248.748879 
L 234.336098 249.913625 
L 237.983902 249.916101 
L 241.631706 250.924354 
L 245.27951 252.809802 
L 248.927314 253.770127 
L 252.575117 254.254485 
L 256.222921 255.922691 
L 259.870725 256.377333 
L 263.518529 257.399798 
L 267.166333 257.519987 
L 270.814137 259.254658 
L 274.461941 260.081262 
L 278.109745 260.62827 
L 281.757549 261.681629 
L 285.405352 262.866221 
L 289.053156 262.307859 
L 292.70096 263.59553 
L 296.348764 264.647741 
L 299.996568 265.148713 
L 303.644372 266.611723 
L 307.292176 266.188155 
L 310.93998 267.477246 
L 314.587783 268.437074 
L 318.235587 269.10647 
L 321.883391 269.633851 
L 325.531195 270.858596 
L 329.178999 270.981562 
L 332.826803 272.27321 
L 336.474607 272.508763 
L 340.122411 272.633836 
L 343.770215 273.004597 
L 347.418018 274.477742 
L 351.065822 275.088841 
L 354.713626 275.151698 
L 358.36143 275.801811 
L 362.009234 276.759445 
L 365.657038 277.531578 
L 369.304842 277.912614 
L 372.952646 278.35406 
L 376.600449 278.562214 
L 380.248253 279.359494 
L 383.896057 281.019901 
L 387.543861 280.391334 
L 391.191665 281.081543 
L 394.839469 281.904115 
L 398.487273 282.513795 
" clip-path="url(#pdbd8fee295)" style="fill: none; stroke: #ff00ff; stroke-opacity: 0.3; stroke-width: 0.5; stroke-linecap: square"/>
   </g>
   <g id="line2d_27">
    <path d="M 73.832727 181.833409 
L 77.480531 184.816417 
L 81.128335 185.466931 
L 84.776139 187.1241 
L 88.423943 188.813767 
L 92.071747 191.68794 
L 95.719551 192.935273 
L 99.367354 194.816853 
L 103.015158 195.57342 
L 106.662962 196.27038 
L 110.310766 198.97715 
L 113.95857 199.708584 
L 117.606374 201.449915 
L 121.254178 204.370614 
L 124.901982 205.092719 
L 128.549785 206.627788 
L 132.197589 207.375973 
L 135.845393 208.319038 
L 139.493197 209.506579 
L 143.141001 211.440689 
L 146.788805 212.725277 
L 150.436609 213.473878 
L 154.084413 214.972407 
L 157.732217 216.678284 
L 161.38002 217.558763 
L 165.027824 218.019605 
L 168.675628 219.765854 
L 172.323432 220.123438 
L 175.971236 222.30304 
L 179.61904 222.666904 
L 183.266844 223.883331 
L 186.914648 225.516925 
L 190.562451 225.671276 
L 194.210255 226.63926 
L 197.858059 227.971472 
L 201.505863 229.281419 
L 205.153667 231.433366 
L 208.801471 231.612434 
L 212.449275 233.18649 
L 216.097079 233.608137 
L 219.744883 234.567035 
L 223.392686 236.30925 
L 227.04049 236.334378 
L 230.688294 238.621084 
L 234.336098 239.371849 
L 237.983902 240.433065 
L 241.631706 241.732443 
L 245.27951 241.796488 
L 248.927314 242.359226 
L 252.575117 243.182783 
L 256.222921 245.171114 
L 259.870725 245.98802 
L 263.518529 247.393843 
L 267.166333 246.880397 
L 270.814137 248.633377 
L 274.461941 248.747563 
L 278.109745 250.126613 
L 281.757549 250.952357 
L 285.405352 253.343741 
L 289.053156 252.955027 
L 292.70096 253.606003 
L 296.348764 254.807964 
L 299.996568 255.009488 
L 303.644372 256.301338 
L 307.292176 256.436432 
L 310.93998 257.556822 
L 314.587783 258.951775 
L 318.235587 259.253428 
L 321.883391 261.310891 
L 325.531195 261.312461 
L 329.178999 261.643531 
L 332.826803 263.376244 
L 336.474607 264.005262 
L 340.122411 264.507844 
L 343.770215 264.154123 
L 347.418018 265.80336 
L 351.065822 266.773469 
L 354.713626 267.119357 
L 358.36143 267.878036 
L 362.009234 268.277551 
L 365.657038 269.435808 
L 369.304842 270.480861 
L 372.952646 270.857875 
L 376.600449 271.010753 
L 380.248253 271.46177 
L 383.896057 272.838447 
L 387.543861 273.289938 
L 391.191665 274.041615 
L 394.839469 275.237677 
L 398.487273 274.936274 
" clip-path="url(#pdbd8fee295)" style="fill: none; stroke: #ff00ff; stroke-opacity: 0.3; stroke-width: 0.5; stroke-linecap: square"/>
   </g>
   <g id="line2d_28">
    <path d="M 73.832727 185.086258 
L 77.480531 185.655703 
L 81.128335 187.365598 
L 84.776139 188.76626 
L 88.423943 188.740942 
L 92.071747 189.407838 
L 95.719551 190.531189 
L 99.367354 189.819856 
L 103.015158 192.263297 
L 106.662962 191.713639 
L 110.310766 193.107455 
L 113.95857 192.567958 
L 117.606374 195.066006 
L 121.254178 194.907689 
L 124.901982 195.652365 
L 128.549785 195.956125 
L 132.197589 195.791482 
L 135.845393 197.523497 
L 139.493197 197.300563 
L 143.141001 198.718011 
L 146.788805 198.54382 
L 150.436609 200.36083 
L 154.084413 200.904368 
L 157.732217 201.937414 
L 161.38002 201.47289 
L 165.027824 203.520926 
L 168.675628 202.877385 
L 172.323432 203.541776 
L 175.971236 204.424795 
L 179.61904 205.470183 
L 183.266844 205.202327 
L 186.914648 206.842779 
L 190.562451 208.220293 
L 194.210255 207.970102 
L 197.858059 209.225897 
L 201.505863 208.087699 
L 205.153667 209.362313 
L 208.801471 212.226915 
L 212.449275 211.046751 
L 216.097079 211.55062 
L 219.744883 213.187747 
L 223.392686 213.875528 
L 227.04049 214.379583 
L 230.688294 214.980015 
L 234.336098 215.869222 
L 237.983902 216.133914 
L 241.631706 216.343664 
L 245.27951 218.622311 
L 248.927314 218.508939 
L 252.575117 220.243829 
L 256.222921 220.092208 
L 259.870725 221.148391 
L 263.518529 221.371983 
L 267.166333 222.769343 
L 270.814137 222.469785 
L 274.461941 223.120876 
L 278.109745 224.662849 
L 281.757549 224.936789 
L 285.405352 225.526294 
L 289.053156 226.355801 
L 292.70096 226.826393 
L 296.348764 228.152272 
L 299.996568 227.038382 
L 303.644372 229.088993 
L 307.292176 228.519495 
L 310.93998 229.45165 
L 314.587783 231.019576 
L 318.235587 231.721211 
L 321.883391 231.677346 
L 325.531195 232.087811 
L 329.178999 232.04521 
L 332.826803 232.689398 
L 336.474607 233.444007 
L 340.122411 234.752788 
L 343.770215 235.233701 
L 347.418018 237.02493 
L 351.065822 236.799624 
L 354.713626 237.052632 
L 358.36143 237.959521 
L 362.009234 239.166365 
L 365.657038 239.372207 
L 369.304842 239.833308 
L 372.952646 240.611793 
L 376.600449 240.899425 
L 380.248253 241.657614 
L 383.896057 242.258444 
L 387.543861 242.499105 
L 391.191665 243.937439 
L 394.839469 243.367474 
L 398.487273 244.456831 
" clip-path="url(#pdbd8fee295)" style="fill: none; stroke: #ff00ff; stroke-opacity: 0.3; stroke-width: 0.5; stroke-linecap: square"/>
   </g>
   <g id="line2d_29">
    <path d="M 73.832727 194.208259 
L 77.480531 194.650098 
L 81.128335 193.80423 
L 84.776139 193.911345 
L 88.423943 195.327119 
L 92.071747 197.367466 
L 95.719551 197.298924 
L 99.367354 196.300813 
L 103.015158 199.271732 
L 106.662962 199.508555 
L 110.310766 199.676131 
L 113.95857 198.951128 
L 117.606374 200.322766 
L 121.254178 200.79207 
L 124.901982 200.177287 
L 128.549785 201.158208 
L 132.197589 202.5777 
L 135.845393 203.122831 
L 139.493197 203.124043 
L 143.141001 203.450051 
L 146.788805 202.726376 
L 150.436609 202.769046 
L 154.084413 203.989583 
L 157.732217 204.853611 
L 161.38002 205.255457 
L 165.027824 206.466551 
L 168.675628 206.180339 
L 172.323432 207.269367 
L 175.971236 208.533059 
L 179.61904 208.200724 
L 183.266844 208.725248 
L 186.914648 208.631884 
L 190.562451 207.716643 
L 194.210255 208.647793 
L 197.858059 211.255322 
L 201.505863 211.157952 
L 205.153667 210.844448 
L 208.801471 213.026925 
L 212.449275 213.609289 
L 216.097079 211.739843 
L 219.744883 214.241124 
L 223.392686 212.979198 
L 227.04049 214.079933 
L 230.688294 214.059383 
L 234.336098 213.373829 
L 237.983902 215.031587 
L 241.631706 215.966466 
L 245.27951 216.637276 
L 248.927314 216.497928 
L 252.575117 216.663229 
L 256.222921 217.255441 
L 259.870725 218.152037 
L 263.518529 219.270805 
L 267.166333 218.142871 
L 270.814137 219.13163 
L 274.461941 220.030639 
L 278.109745 218.774289 
L 281.757549 221.15571 
L 285.405352 221.917264 
L 289.053156 221.640739 
L 292.70096 220.892854 
L 296.348764 222.303294 
L 299.996568 222.578631 
L 303.644372 224.542227 
L 307.292176 224.263115 
L 310.93998 223.391607 
L 314.587783 223.751718 
L 318.235587 225.349955 
L 321.883391 225.581611 
L 325.531195 225.2419 
L 329.178999 226.123505 
L 332.826803 226.320306 
L 336.474607 226.461704 
L 340.122411 228.013103 
L 343.770215 227.030976 
L 347.418018 227.32393 
L 351.065822 228.152382 
L 354.713626 229.97764 
L 358.36143 227.847836 
L 362.009234 230.354953 
L 365.657038 230.117276 
L 369.304842 230.507694 
L 372.952646 231.161071 
L 376.600449 231.107837 
L 380.248253 232.136346 
L 383.896057 232.776083 
L 387.543861 231.755367 
L 391.191665 233.255431 
L 394.839469 234.071784 
L 398.487273 234.242303 
" clip-path="url(#pdbd8fee295)" style="fill: none; stroke: #ff00ff; stroke-opacity: 0.3; stroke-width: 0.5; stroke-linecap: square"/>
   </g>
   <g id="line2d_30">
    <path d="M 73.832727 191.216593 
L 77.480531 193.196259 
L 81.128335 194.478539 
L 84.776139 196.009174 
L 88.423943 197.881369 
L 92.071747 199.406185 
L 95.719551 200.497153 
L 99.367354 201.331013 
L 103.015158 202.079418 
L 106.662962 203.465891 
L 110.310766 204.165391 
L 113.95857 205.238567 
L 117.606374 206.380783 
L 121.254178 208.111447 
L 124.901982 207.992441 
L 128.549785 210.160153 
L 132.197589 210.488331 
L 135.845393 210.878448 
L 139.493197 213.338501 
L 143.141001 214.150969 
L 146.788805 214.280827 
L 150.436609 214.657506 
L 154.084413 216.82703 
L 157.732217 217.00503 
L 161.38002 217.236207 
L 165.027824 219.116518 
L 168.675628 219.624971 
L 172.323432 219.957836 
L 175.971236 220.515898 
L 179.61904 221.937249 
L 183.266844 221.303475 
L 186.914648 224.078915 
L 190.562451 222.946351 
L 194.210255 223.434358 
L 197.858059 225.687612 
L 201.505863 226.304692 
L 205.153667 227.589777 
L 208.801471 226.677924 
L 212.449275 227.974 
L 216.097079 229.811917 
L 219.744883 229.635579 
L 223.392686 231.252681 
L 227.04049 231.800023 
L 230.688294 231.898565 
L 234.336098 234.15735 
L 237.983902 232.964151 
L 241.631706 235.198264 
L 245.27951 235.623241 
L 248.927314 235.945208 
L 252.575117 235.992658 
L 256.222921 238.312821 
L 259.870725 237.968151 
L 263.518529 239.188185 
L 267.166333 239.621989 
L 270.814137 241.177781 
L 274.461941 240.212261 
L 278.109745 242.424629 
L 281.757549 243.258529 
L 285.405352 244.015875 
L 289.053156 243.626318 
L 292.70096 245.407942 
L 296.348764 245.14654 
L 299.996568 247.006751 
L 303.644372 246.241797 
L 307.292176 247.3074 
L 310.93998 248.612833 
L 314.587783 249.875492 
L 318.235587 250.634286 
L 321.883391 250.352398 
L 325.531195 252.046326 
L 329.178999 251.39038 
L 332.826803 253.048911 
L 336.474607 253.638877 
L 340.122411 253.30342 
L 343.770215 253.942338 
L 347.418018 255.028647 
L 351.065822 255.805861 
L 354.713626 256.297292 
L 358.36143 256.829874 
L 362.009234 257.447023 
L 365.657038 257.666615 
L 369.304842 258.59997 
L 372.952646 259.109162 
L 376.600449 259.759919 
L 380.248253 259.606803 
L 383.896057 261.204544 
L 387.543861 261.916431 
L 391.191665 262.416422 
L 394.839469 263.244366 
L 398.487273 263.289645 
" clip-path="url(#pdbd8fee295)" style="fill: none; stroke: #ff00ff; stroke-opacity: 0.3; stroke-width: 0.5; stroke-linecap: square"/>
   </g>
   <g id="line2d_31">
    <path d="M 73.832727 192.737842 
L 77.480531 195.25995 
L 81.128335 196.745283 
L 84.776139 199.411335 
L 88.423943 200.379452 
L 92.071747 203.278308 
L 95.719551 206.732524 
L 99.367354 207.925723 
L 103.015158 210.782716 
L 106.662962 213.95759 
L 110.310766 215.460171 
L 113.95857 217.317242 
L 117.606374 221.177588 
L 121.254178 222.606766 
L 124.901982 224.144363 
L 128.549785 226.460278 
L 132.197589 228.56418 
L 135.845393 230.01519 
L 139.493197 231.252467 
L 143.141001 234.235134 
L 146.788805 235.343846 
L 150.436609 237.151244 
L 154.084413 238.605452 
L 157.732217 239.777234 
L 161.38002 241.01966 
L 165.027824 242.563434 
L 168.675628 244.177782 
L 172.323432 244.267574 
L 175.971236 246.842425 
L 179.61904 247.682202 
L 183.266844 249.66124 
L 186.914648 250.511263 
L 190.562451 252.03709 
L 194.210255 253.336225 
L 197.858059 254.161092 
L 201.505863 254.892537 
L 205.153667 256.118333 
L 208.801471 258.506392 
L 212.449275 259.654051 
L 216.097079 259.827486 
L 219.744883 261.735614 
L 223.392686 262.368684 
L 227.04049 263.353789 
L 230.688294 264.779325 
L 234.336098 265.655994 
L 237.983902 266.489012 
L 241.631706 267.305295 
L 245.27951 268.481626 
L 248.927314 269.41688 
L 252.575117 269.045888 
L 256.222921 270.656553 
L 259.870725 271.114075 
L 263.518529 272.623185 
L 267.166333 273.015704 
L 270.814137 273.50632 
L 274.461941 274.535296 
L 278.109745 275.657132 
L 281.757549 276.351137 
L 285.405352 276.334881 
L 289.053156 277.080708 
L 292.70096 279.095705 
L 296.348764 278.773649 
L 299.996568 280.075714 
L 303.644372 279.809954 
L 307.292176 280.114141 
L 310.93998 281.463494 
L 314.587783 282.223089 
L 318.235587 281.957251 
L 321.883391 282.768041 
L 325.531195 283.846725 
L 329.178999 283.902785 
L 332.826803 284.940899 
L 336.474607 285.130214 
L 340.122411 285.935339 
L 343.770215 286.339243 
L 347.418018 286.46683 
L 351.065822 287.06631 
L 354.713626 287.966542 
L 358.36143 288.588298 
L 362.009234 288.60739 
L 365.657038 289.246697 
L 369.304842 289.125567 
L 372.952646 289.973755 
L 376.600449 290.541085 
L 380.248253 290.624743 
L 383.896057 291.638696 
L 387.543861 291.993416 
L 391.191665 292.108592 
L 394.839469 292.666345 
L 398.487273 293.114664 
" clip-path="url(#pdbd8fee295)" style="fill: none; stroke: #ff00ff; stroke-opacity: 0.3; stroke-width: 0.5; stroke-linecap: square"/>
   </g>
   <g id="line2d_32">
    <path d="M 73.832727 206.790919 
L 77.480531 208.524308 
L 81.128335 210.410933 
L 84.776139 212.687606 
L 88.423943 215.959354 
L 92.071747 217.407893 
L 95.719551 218.91739 
L 99.367354 221.722858 
L 103.015158 223.789551 
L 106.662962 225.876442 
L 110.310766 229.428514 
L 113.95857 230.087635 
L 117.606374 231.555737 
L 121.254178 233.914587 
L 124.901982 235.551096 
L 128.549785 236.630063 
L 132.197589 238.053601 
L 135.845393 240.726371 
L 139.493197 242.092947 
L 143.141001 243.928001 
L 146.788805 244.77523 
L 150.436609 246.465071 
L 154.084413 247.191199 
L 157.732217 249.20714 
L 161.38002 249.6256 
L 165.027824 250.749621 
L 168.675628 251.543172 
L 172.323432 254.271099 
L 175.971236 254.618845 
L 179.61904 254.863374 
L 183.266844 256.763398 
L 186.914648 258.791039 
L 190.562451 259.043713 
L 194.210255 260.352639 
L 197.858059 261.721067 
L 201.505863 262.567419 
L 205.153667 263.579061 
L 208.801471 265.127193 
L 212.449275 265.519365 
L 216.097079 266.481686 
L 219.744883 266.709042 
L 223.392686 268.219872 
L 227.04049 268.857693 
L 230.688294 269.458667 
L 234.336098 271.130458 
L 237.983902 271.536397 
L 241.631706 271.848707 
L 245.27951 273.214012 
L 248.927314 274.213387 
L 252.575117 274.956899 
L 256.222921 275.358169 
L 259.870725 276.031611 
L 263.518529 276.92578 
L 267.166333 277.081707 
L 270.814137 278.386187 
L 274.461941 278.400151 
L 278.109745 279.683605 
L 281.757549 280.59047 
L 285.405352 281.068823 
L 289.053156 281.345935 
L 292.70096 282.094192 
L 296.348764 281.90191 
L 299.996568 282.710516 
L 303.644372 284.159335 
L 307.292176 283.500413 
L 310.93998 284.543211 
L 314.587783 285.852783 
L 318.235587 286.104277 
L 321.883391 286.275529 
L 325.531195 286.755865 
L 329.178999 287.467365 
L 332.826803 287.481101 
L 336.474607 288.192264 
L 340.122411 289.131732 
L 343.770215 289.250478 
L 347.418018 289.659229 
L 351.065822 290.260856 
L 354.713626 290.419888 
L 358.36143 291.209806 
L 362.009234 291.669198 
L 365.657038 291.857895 
L 369.304842 292.11259 
L 372.952646 292.752592 
L 376.600449 292.970781 
L 380.248253 293.185273 
L 383.896057 293.806572 
L 387.543861 294.196831 
L 391.191665 294.907925 
L 394.839469 295.488 
L 398.487273 295.29054 
" clip-path="url(#pdbd8fee295)" style="fill: none; stroke: #ff00ff; stroke-opacity: 0.3; stroke-width: 0.5; stroke-linecap: square"/>
   </g>
   <g id="line2d_33">
    <path d="M 73.832727 151.106426 
L 77.480531 156.758949 
L 81.128335 165.052008 
L 84.776139 172.563274 
L 88.423943 178.699878 
L 92.071747 181.797181 
L 95.719551 186.331039 
L 99.367354 191.413089 
L 103.015158 194.136726 
L 106.662962 194.379494 
L 110.310766 197.208746 
L 113.95857 200.761337 
L 117.606374 203.380666 
L 121.254178 205.546484 
L 124.901982 208.656833 
L 128.549785 209.474565 
L 132.197589 211.633583 
L 135.845393 212.534081 
L 139.493197 215.470008 
L 143.141001 216.865832 
L 146.788805 218.881669 
L 150.436609 220.524407 
L 154.084413 222.569672 
L 157.732217 224.033335 
L 161.38002 227.169158 
L 165.027824 226.953116 
L 168.675628 229.583759 
L 172.323432 230.285152 
L 175.971236 232.794036 
L 179.61904 234.666484 
L 183.266844 236.856344 
L 186.914648 238.847319 
L 190.562451 239.671713 
L 194.210255 242.20076 
L 197.858059 243.807759 
L 201.505863 244.917101 
L 205.153667 246.953863 
L 208.801471 248.587468 
L 212.449275 250.507505 
L 216.097079 251.787834 
L 219.744883 253.607538 
L 223.392686 254.979557 
L 227.04049 256.159485 
L 230.688294 257.943648 
L 234.336098 257.455953 
L 237.983902 258.797089 
L 241.631706 260.584127 
L 245.27951 261.959385 
L 248.927314 262.596882 
L 252.575117 263.771539 
L 256.222921 264.590235 
L 259.870725 265.9994 
L 263.518529 266.564995 
L 267.166333 267.831187 
L 270.814137 268.531564 
L 274.461941 269.450286 
L 278.109745 270.823805 
L 281.757549 271.575229 
L 285.405352 273.009868 
L 289.053156 273.664694 
L 292.70096 273.675598 
L 296.348764 273.925862 
L 299.996568 274.976814 
L 303.644372 275.761438 
L 307.292176 276.805649 
L 310.93998 277.47669 
L 314.587783 279.041628 
L 318.235587 279.412058 
L 321.883391 279.965569 
L 325.531195 280.545419 
L 329.178999 280.774524 
L 332.826803 281.590458 
L 336.474607 282.527371 
L 340.122411 282.992718 
L 343.770215 283.616235 
L 347.418018 283.882237 
L 351.065822 284.704593 
L 354.713626 285.194384 
L 358.36143 285.857935 
L 362.009234 285.605481 
L 365.657038 286.933557 
L 369.304842 287.603244 
L 372.952646 287.791361 
L 376.600449 288.085857 
L 380.248253 287.968294 
L 383.896057 289.75931 
L 387.543861 288.971058 
L 391.191665 289.934496 
L 394.839469 290.553721 
L 398.487273 291.324892 
" clip-path="url(#pdbd8fee295)" style="fill: none; stroke: #ff00ff; stroke-opacity: 0.3; stroke-width: 0.5; stroke-linecap: square"/>
   </g>
   <g id="line2d_34">
    <path d="M 73.832727 201.484677 
L 77.480531 201.979911 
L 81.128335 202.212531 
L 84.776139 203.069459 
L 88.423943 202.528587 
L 92.071747 203.111332 
L 95.719551 202.883896 
L 99.367354 203.923407 
L 103.015158 203.862554 
L 106.662962 203.237046 
L 110.310766 203.894476 
L 113.95857 203.581306 
L 117.606374 204.666986 
L 121.254178 204.739142 
L 124.901982 205.185102 
L 128.549785 204.657496 
L 132.197589 204.8217 
L 135.845393 204.295687 
L 139.493197 205.040951 
L 143.141001 205.417572 
L 146.788805 205.665432 
L 150.436609 205.407909 
L 154.084413 205.243174 
L 157.732217 205.913719 
L 161.38002 207.263767 
L 165.027824 205.60287 
L 168.675628 205.17283 
L 172.323432 205.6628 
L 175.971236 205.894542 
L 179.61904 206.928281 
L 183.266844 206.82941 
L 186.914648 207.302651 
L 190.562451 206.294576 
L 194.210255 207.681915 
L 197.858059 208.041681 
L 201.505863 208.013326 
L 205.153667 208.490019 
L 208.801471 209.337087 
L 212.449275 209.971184 
L 216.097079 209.555172 
L 219.744883 210.218894 
L 223.392686 210.786215 
L 227.04049 209.268221 
L 230.688294 211.019354 
L 234.336098 210.529419 
L 237.983902 210.76249 
L 241.631706 210.073854 
L 245.27951 211.593926 
L 248.927314 211.028025 
L 252.575117 210.590054 
L 256.222921 211.864679 
L 259.870725 212.209008 
L 263.518529 212.356761 
L 267.166333 210.673166 
L 270.814137 211.789209 
L 274.461941 212.573599 
L 278.109745 212.458346 
L 281.757549 213.80582 
L 285.405352 213.532492 
L 289.053156 214.752198 
L 292.70096 214.432344 
L 296.348764 213.656774 
L 299.996568 214.635674 
L 303.644372 213.853489 
L 307.292176 214.008827 
L 310.93998 213.400036 
L 314.587783 215.66229 
L 318.235587 215.42026 
L 321.883391 214.772194 
L 325.531195 214.691944 
L 329.178999 214.467579 
L 332.826803 215.102623 
L 336.474607 215.764036 
L 340.122411 215.578519 
L 343.770215 216.403906 
L 347.418018 217.314298 
L 351.065822 216.576838 
L 354.713626 216.705692 
L 358.36143 217.325162 
L 362.009234 216.576365 
L 365.657038 217.890601 
L 369.304842 218.590712 
L 372.952646 218.671089 
L 376.600449 217.900495 
L 380.248253 218.874107 
L 383.896057 217.391465 
L 387.543861 218.608226 
L 391.191665 220.12712 
L 394.839469 219.745316 
L 398.487273 219.313164 
" clip-path="url(#pdbd8fee295)" style="fill: none; stroke: #ff00ff; stroke-opacity: 0.3; stroke-width: 0.5; stroke-linecap: square"/>
   </g>
   <g id="line2d_35">
    <path d="M 73.832727 180.290363 
L 77.480531 180.666372 
L 81.128335 182.151728 
L 84.776139 183.224546 
L 88.423943 184.405796 
L 92.071747 184.52449 
L 95.719551 185.14217 
L 99.367354 186.620726 
L 103.015158 187.49496 
L 106.662962 188.252888 
L 110.310766 188.828995 
L 113.95857 189.30428 
L 117.606374 190.314155 
L 121.254178 190.161484 
L 124.901982 191.375163 
L 128.549785 191.811183 
L 132.197589 191.728625 
L 135.845393 193.282246 
L 139.493197 193.948693 
L 143.141001 194.38327 
L 146.788805 195.171343 
L 150.436609 196.172859 
L 154.084413 196.242845 
L 157.732217 197.236754 
L 161.38002 197.679631 
L 165.027824 198.295303 
L 168.675628 199.179188 
L 172.323432 199.782021 
L 175.971236 199.615889 
L 179.61904 199.813839 
L 183.266844 200.759963 
L 186.914648 201.397536 
L 190.562451 201.852455 
L 194.210255 202.978057 
L 197.858059 202.515264 
L 201.505863 203.829397 
L 205.153667 203.428358 
L 208.801471 204.246887 
L 212.449275 204.76319 
L 216.097079 205.232841 
L 219.744883 206.454451 
L 223.392686 206.414263 
L 227.04049 206.889652 
L 230.688294 207.480917 
L 234.336098 207.587477 
L 237.983902 207.926219 
L 241.631706 207.93452 
L 245.27951 209.25835 
L 248.927314 209.911 
L 252.575117 209.459498 
L 256.222921 210.303322 
L 259.870725 210.811256 
L 263.518529 211.454012 
L 267.166333 211.862508 
L 270.814137 212.073643 
L 274.461941 212.412766 
L 278.109745 213.337809 
L 281.757549 213.863083 
L 285.405352 213.348488 
L 289.053156 214.493232 
L 292.70096 215.238969 
L 296.348764 215.621663 
L 299.996568 215.704879 
L 303.644372 216.132148 
L 307.292176 217.067281 
L 310.93998 216.907868 
L 314.587783 217.787412 
L 318.235587 217.329918 
L 321.883391 219.247299 
L 325.531195 219.089352 
L 329.178999 219.578733 
L 332.826803 219.728218 
L 336.474607 220.370512 
L 340.122411 221.199962 
L 343.770215 221.184723 
L 347.418018 222.08544 
L 351.065822 222.331684 
L 354.713626 222.562907 
L 358.36143 223.658146 
L 362.009234 223.722417 
L 365.657038 224.434743 
L 369.304842 224.839453 
L 372.952646 225.591055 
L 376.600449 225.375222 
L 380.248253 227.04386 
L 383.896057 227.805224 
L 387.543861 227.488562 
L 391.191665 228.234565 
L 394.839469 227.747568 
L 398.487273 229.20521 
" clip-path="url(#pdbd8fee295)" style="fill: none; stroke: #ff00ff; stroke-opacity: 0.3; stroke-width: 0.5; stroke-linecap: square"/>
   </g>
   <g id="line2d_36">
    <path d="M 73.832727 196.259089 
L 77.480531 198.203405 
L 81.128335 200.754087 
L 84.776139 204.170644 
L 88.423943 204.957539 
L 92.071747 207.199773 
L 95.719551 209.382112 
L 99.367354 211.277004 
L 103.015158 212.741891 
L 106.662962 214.593685 
L 110.310766 216.323368 
L 113.95857 217.411414 
L 117.606374 218.896724 
L 121.254178 219.291736 
L 124.901982 221.84841 
L 128.549785 222.578585 
L 132.197589 223.286697 
L 135.845393 225.425673 
L 139.493197 225.908993 
L 143.141001 227.498052 
L 146.788805 228.334215 
L 150.436609 229.066584 
L 154.084413 230.285758 
L 157.732217 232.388708 
L 161.38002 232.862809 
L 165.027824 233.483266 
L 168.675628 233.952893 
L 172.323432 235.663181 
L 175.971236 236.423852 
L 179.61904 237.318277 
L 183.266844 237.88703 
L 186.914648 239.946005 
L 190.562451 240.965965 
L 194.210255 242.221108 
L 197.858059 242.178876 
L 201.505863 243.045028 
L 205.153667 244.659457 
L 208.801471 246.009321 
L 212.449275 246.401464 
L 216.097079 247.47916 
L 219.744883 247.606213 
L 223.392686 249.367627 
L 227.04049 249.711068 
L 230.688294 251.151341 
L 234.336098 252.31716 
L 237.983902 252.657253 
L 241.631706 253.909873 
L 245.27951 253.990036 
L 248.927314 256.36849 
L 252.575117 256.547783 
L 256.222921 256.922753 
L 259.870725 257.405542 
L 263.518529 259.204726 
L 267.166333 259.762632 
L 270.814137 260.305933 
L 274.461941 260.276499 
L 278.109745 261.913915 
L 281.757549 262.783795 
L 285.405352 263.55103 
L 289.053156 263.847684 
L 292.70096 264.732452 
L 296.348764 265.551748 
L 299.996568 265.566174 
L 303.644372 267.151163 
L 307.292176 267.631516 
L 310.93998 268.54678 
L 314.587783 268.31685 
L 318.235587 269.536377 
L 321.883391 271.057291 
L 325.531195 271.403439 
L 329.178999 271.934971 
L 332.826803 272.07212 
L 336.474607 272.64448 
L 340.122411 273.394962 
L 343.770215 274.409415 
L 347.418018 275.440456 
L 351.065822 275.845347 
L 354.713626 275.613481 
L 358.36143 276.945686 
L 362.009234 277.463214 
L 365.657038 277.597179 
L 369.304842 278.351723 
L 372.952646 278.509924 
L 376.600449 279.311839 
L 380.248253 279.469483 
L 383.896057 280.566053 
L 387.543861 280.973438 
L 391.191665 281.195561 
L 394.839469 281.706531 
L 398.487273 282.199072 
" clip-path="url(#pdbd8fee295)" style="fill: none; stroke: #ff00ff; stroke-opacity: 0.3; stroke-width: 0.5; stroke-linecap: square"/>
   </g>
   <g id="line2d_37">
    <path d="M 73.832727 175.994089 
L 77.480531 177.204039 
L 81.128335 177.906598 
L 84.776139 180.386983 
L 88.423943 182.414099 
L 92.071747 182.25008 
L 95.719551 184.22626 
L 99.367354 186.288842 
L 103.015158 187.158157 
L 106.662962 188.177615 
L 110.310766 189.905185 
L 113.95857 192.649742 
L 117.606374 192.572622 
L 121.254178 194.143653 
L 124.901982 197.42503 
L 128.549785 198.019112 
L 132.197589 199.001383 
L 135.845393 199.893684 
L 139.493197 202.269148 
L 143.141001 202.194798 
L 146.788805 204.529878 
L 150.436609 205.49706 
L 154.084413 207.153501 
L 157.732217 207.468599 
L 161.38002 208.80178 
L 165.027824 209.705522 
L 168.675628 209.975883 
L 172.323432 213.337335 
L 175.971236 212.639152 
L 179.61904 213.201878 
L 183.266844 214.137704 
L 186.914648 216.386542 
L 190.562451 215.504435 
L 194.210255 216.590173 
L 197.858059 218.270016 
L 201.505863 218.381344 
L 205.153667 218.778619 
L 208.801471 220.252072 
L 212.449275 219.866561 
L 216.097079 221.606854 
L 219.744883 222.654089 
L 223.392686 222.862973 
L 227.04049 223.33275 
L 230.688294 224.999201 
L 234.336098 225.268061 
L 237.983902 225.645057 
L 241.631706 226.324584 
L 245.27951 226.785778 
L 248.927314 228.326059 
L 252.575117 227.538638 
L 256.222921 229.437594 
L 259.870725 230.39278 
L 263.518529 231.011927 
L 267.166333 231.108218 
L 270.814137 232.948063 
L 274.461941 232.779102 
L 278.109745 232.368216 
L 281.757549 233.002279 
L 285.405352 234.965257 
L 289.053156 234.5148 
L 292.70096 234.938132 
L 296.348764 235.783595 
L 299.996568 235.978827 
L 303.644372 237.519177 
L 307.292176 237.736385 
L 310.93998 238.164791 
L 314.587783 238.907007 
L 318.235587 239.41733 
L 321.883391 240.318983 
L 325.531195 241.41473 
L 329.178999 242.533042 
L 332.826803 241.988568 
L 336.474607 242.630805 
L 340.122411 244.438768 
L 343.770215 243.823743 
L 347.418018 244.48642 
L 351.065822 245.422448 
L 354.713626 245.674308 
L 358.36143 246.903065 
L 362.009234 247.167844 
L 365.657038 247.688269 
L 369.304842 247.695981 
L 372.952646 248.097805 
L 376.600449 248.936018 
L 380.248253 248.278357 
L 383.896057 249.872646 
L 387.543861 251.145724 
L 391.191665 250.646224 
L 394.839469 251.226983 
L 398.487273 252.45286 
" clip-path="url(#pdbd8fee295)" style="fill: none; stroke: #ff00ff; stroke-opacity: 0.3; stroke-width: 0.5; stroke-linecap: square"/>
   </g>
   <g id="line2d_38">
    <path d="M 73.832727 174.062357 
L 77.480531 175.438936 
L 81.128335 177.302783 
L 84.776139 178.67725 
L 88.423943 181.239985 
L 92.071747 181.136345 
L 95.719551 183.45129 
L 99.367354 184.224285 
L 103.015158 185.50541 
L 106.662962 187.031959 
L 110.310766 187.772155 
L 113.95857 188.928871 
L 117.606374 189.198608 
L 121.254178 189.241036 
L 124.901982 190.672269 
L 128.549785 191.343599 
L 132.197589 192.540631 
L 135.845393 193.050596 
L 139.493197 192.837649 
L 143.141001 194.478574 
L 146.788805 195.37547 
L 150.436609 195.560582 
L 154.084413 197.830721 
L 157.732217 197.441931 
L 161.38002 198.000963 
L 165.027824 199.000252 
L 168.675628 200.459966 
L 172.323432 200.802333 
L 175.971236 200.805554 
L 179.61904 202.122838 
L 183.266844 203.555907 
L 186.914648 204.785288 
L 190.562451 204.025719 
L 194.210255 205.587595 
L 197.858059 207.311644 
L 201.505863 207.701692 
L 205.153667 208.437916 
L 208.801471 209.535984 
L 212.449275 209.21307 
L 216.097079 211.215169 
L 219.744883 211.126296 
L 223.392686 212.227457 
L 227.04049 213.338605 
L 230.688294 214.659353 
L 234.336098 214.673599 
L 237.983902 216.014285 
L 241.631706 216.946878 
L 245.27951 217.426076 
L 248.927314 218.29067 
L 252.575117 219.845896 
L 256.222921 219.696735 
L 259.870725 220.77513 
L 263.518529 221.706199 
L 267.166333 221.257699 
L 270.814137 222.566613 
L 274.461941 223.372384 
L 278.109745 224.932552 
L 281.757549 225.497177 
L 285.405352 225.988428 
L 289.053156 226.551108 
L 292.70096 228.406724 
L 296.348764 228.583939 
L 299.996568 229.338134 
L 303.644372 230.02965 
L 307.292176 230.565846 
L 310.93998 231.820487 
L 314.587783 232.21084 
L 318.235587 232.866302 
L 321.883391 234.745573 
L 325.531195 235.05095 
L 329.178999 235.129842 
L 332.826803 235.24957 
L 336.474607 237.427441 
L 340.122411 237.870884 
L 343.770215 238.095053 
L 347.418018 239.553885 
L 351.065822 240.374301 
L 354.713626 240.690149 
L 358.36143 241.996534 
L 362.009234 242.77424 
L 365.657038 243.671615 
L 369.304842 243.971017 
L 372.952646 243.491432 
L 376.600449 244.351102 
L 380.248253 245.859848 
L 383.896057 247.383781 
L 387.543861 247.860815 
L 391.191665 247.700645 
L 394.839469 248.629642 
L 398.487273 248.845649 
" clip-path="url(#pdbd8fee295)" style="fill: none; stroke: #ff00ff; stroke-opacity: 0.3; stroke-width: 0.5; stroke-linecap: square"/>
   </g>
   <g id="line2d_39">
    <path d="M 73.832727 191.592048 
L 77.480531 192.356511 
L 81.128335 193.242382 
L 84.776139 193.195913 
L 88.423943 193.410939 
L 92.071747 192.764234 
L 95.719551 193.554085 
L 99.367354 193.326325 
L 103.015158 194.056812 
L 106.662962 193.649308 
L 110.310766 194.569283 
L 113.95857 193.808375 
L 117.606374 194.001003 
L 121.254178 194.189995 
L 124.901982 194.810123 
L 128.549785 193.728484 
L 132.197589 195.552674 
L 135.845393 195.815796 
L 139.493197 195.859621 
L 143.141001 195.984076 
L 146.788805 196.158474 
L 150.436609 196.546963 
L 154.084413 195.957638 
L 157.732217 196.074738 
L 161.38002 196.208903 
L 165.027824 196.584392 
L 168.675628 196.958416 
L 172.323432 198.298582 
L 175.971236 197.301868 
L 179.61904 198.206764 
L 183.266844 197.384645 
L 186.914648 198.057822 
L 190.562451 198.482886 
L 194.210255 198.085657 
L 197.858059 198.266868 
L 201.505863 199.421552 
L 205.153667 199.616639 
L 208.801471 198.351342 
L 212.449275 198.242115 
L 216.097079 200.283617 
L 219.744883 198.828878 
L 223.392686 199.761956 
L 227.04049 199.890902 
L 230.688294 199.849848 
L 234.336098 200.91432 
L 237.983902 200.608654 
L 241.631706 201.259642 
L 245.27951 201.707392 
L 248.927314 201.478351 
L 252.575117 201.460525 
L 256.222921 201.760822 
L 259.870725 201.332699 
L 263.518529 202.650849 
L 267.166333 202.927652 
L 270.814137 202.447149 
L 274.461941 203.108054 
L 278.109745 201.772713 
L 281.757549 203.475277 
L 285.405352 203.661128 
L 289.053156 204.618959 
L 292.70096 204.368155 
L 296.348764 204.865779 
L 299.996568 204.798195 
L 303.644372 205.176236 
L 307.292176 204.412061 
L 310.93998 205.219864 
L 314.587783 205.276042 
L 318.235587 205.743187 
L 321.883391 205.987364 
L 325.531195 206.36021 
L 329.178999 206.862556 
L 332.826803 206.318371 
L 336.474607 207.948397 
L 340.122411 207.647569 
L 343.770215 207.941643 
L 347.418018 208.032433 
L 351.065822 208.152074 
L 354.713626 207.443858 
L 358.36143 208.527367 
L 362.009234 209.281625 
L 365.657038 209.312854 
L 369.304842 208.583141 
L 372.952646 209.388497 
L 376.600449 209.667562 
L 380.248253 210.33469 
L 383.896057 210.689918 
L 387.543861 209.918435 
L 391.191665 211.424099 
L 394.839469 211.113192 
L 398.487273 211.743283 
" clip-path="url(#pdbd8fee295)" style="fill: none; stroke: #ff00ff; stroke-opacity: 0.3; stroke-width: 0.5; stroke-linecap: square"/>
   </g>
   <g id="line2d_40">
    <path d="M 73.832727 185.264328 
L 77.480531 185.215793 
L 81.128335 185.96848 
L 84.776139 185.859957 
L 88.423943 186.917698 
L 92.071747 187.04975 
L 95.719551 187.373806 
L 99.367354 188.088626 
L 103.015158 188.235005 
L 106.662962 188.943441 
L 110.310766 188.786267 
L 113.95857 190.188638 
L 117.606374 189.858266 
L 121.254178 190.145621 
L 124.901982 191.006659 
L 128.549785 191.351323 
L 132.197589 191.652093 
L 135.845393 192.314453 
L 139.493197 192.429706 
L 143.141001 192.749318 
L 146.788805 194.1304 
L 150.436609 193.32591 
L 154.084413 193.875094 
L 157.732217 194.073229 
L 161.38002 194.422465 
L 165.027824 195.986708 
L 168.675628 196.215968 
L 172.323432 196.323418 
L 175.971236 197.127573 
L 179.61904 197.207787 
L 183.266844 197.575773 
L 186.914648 197.875088 
L 190.562451 198.372677 
L 194.210255 198.487735 
L 197.858059 199.547173 
L 201.505863 200.194582 
L 205.153667 200.277105 
L 208.801471 200.696685 
L 212.449275 201.473282 
L 216.097079 202.321228 
L 219.744883 202.832278 
L 223.392686 202.973554 
L 227.04049 203.392476 
L 230.688294 203.724129 
L 234.336098 204.308964 
L 237.983902 204.641737 
L 241.631706 205.151402 
L 245.27951 205.515128 
L 248.927314 206.625491 
L 252.575117 206.842548 
L 256.222921 206.830714 
L 259.870725 207.294927 
L 263.518529 208.14868 
L 267.166333 208.400776 
L 270.814137 209.110424 
L 274.461941 209.463239 
L 278.109745 210.385326 
L 281.757549 210.669922 
L 285.405352 210.804652 
L 289.053156 211.177613 
L 292.70096 212.187142 
L 296.348764 212.861185 
L 299.996568 213.141659 
L 303.644372 213.602432 
L 307.292176 214.125074 
L 310.93998 214.614339 
L 314.587783 214.789846 
L 318.235587 215.558442 
L 321.883391 216.338792 
L 325.531195 216.70889 
L 329.178999 216.856573 
L 332.826803 217.370695 
L 336.474607 218.193669 
L 340.122411 218.240391 
L 343.770215 219.22952 
L 347.418018 219.95278 
L 351.065822 220.213004 
L 354.713626 220.625841 
L 358.36143 220.896629 
L 362.009234 221.311152 
L 365.657038 222.374689 
L 369.304842 222.517292 
L 372.952646 223.556204 
L 376.600449 223.718734 
L 380.248253 224.086534 
L 383.896057 224.772192 
L 387.543861 225.44489 
L 391.191665 225.975388 
L 394.839469 226.596359 
L 398.487273 226.59327 
" clip-path="url(#pdbd8fee295)" style="fill: none; stroke: #ff00ff; stroke-opacity: 0.3; stroke-width: 0.5; stroke-linecap: square"/>
   </g>
   <g id="line2d_41">
    <path d="M 73.832727 180.825115 
L 77.480531 184.434 
L 81.128335 184.981383 
L 84.776139 186.422845 
L 88.423943 186.856718 
L 92.071747 188.504754 
L 95.719551 191.915192 
L 99.367354 192.447659 
L 103.015158 194.432959 
L 106.662962 197.34545 
L 110.310766 198.845076 
L 113.95857 199.233288 
L 117.606374 201.531561 
L 121.254178 202.836792 
L 124.901982 203.862473 
L 128.549785 206.301503 
L 132.197589 208.112775 
L 135.845393 208.88637 
L 139.493197 210.766946 
L 143.141001 213.184006 
L 146.788805 213.898122 
L 150.436609 214.751159 
L 154.084413 216.346365 
L 157.732217 216.767919 
L 161.38002 217.922523 
L 165.027824 219.57191 
L 168.675628 221.385283 
L 172.323432 221.967612 
L 175.971236 223.466441 
L 179.61904 224.247206 
L 183.266844 225.666663 
L 186.914648 226.545584 
L 190.562451 227.870355 
L 194.210255 228.894298 
L 197.858059 229.220929 
L 201.505863 231.477369 
L 205.153667 232.516673 
L 208.801471 234.209752 
L 212.449275 233.765974 
L 216.097079 235.513661 
L 219.744883 236.541899 
L 223.392686 238.646234 
L 227.04049 237.733198 
L 230.688294 239.762589 
L 234.336098 239.861836 
L 237.983902 242.549332 
L 241.631706 243.243053 
L 245.27951 244.258655 
L 248.927314 244.271222 
L 252.575117 245.57647 
L 256.222921 246.696918 
L 259.870725 246.559948 
L 263.518529 247.810669 
L 267.166333 249.354154 
L 270.814137 249.607821 
L 274.461941 250.21316 
L 278.109745 251.978949 
L 281.757549 252.397525 
L 285.405352 253.075984 
L 289.053156 254.030247 
L 292.70096 255.394432 
L 296.348764 256.221851 
L 299.996568 256.449518 
L 303.644372 257.1725 
L 307.292176 257.791329 
L 310.93998 258.576349 
L 314.587783 259.999847 
L 318.235587 260.361551 
L 321.883391 261.434382 
L 325.531195 262.275677 
L 329.178999 263.031614 
L 332.826803 263.976365 
L 336.474607 264.815051 
L 340.122411 265.112438 
L 343.770215 265.599585 
L 347.418018 266.238098 
L 351.065822 266.565832 
L 354.713626 267.62019 
L 358.36143 268.953984 
L 362.009234 268.998894 
L 365.657038 269.981788 
L 369.304842 269.716357 
L 372.952646 270.980973 
L 376.600449 271.120425 
L 380.248253 271.800778 
L 383.896057 273.743515 
L 387.543861 273.464279 
L 391.191665 273.921954 
L 394.839469 274.943236 
L 398.487273 275.248624 
" clip-path="url(#pdbd8fee295)" style="fill: none; stroke: #ff00ff; stroke-opacity: 0.3; stroke-width: 0.5; stroke-linecap: square"/>
   </g>
   <g id="line2d_42">
    <path d="M 73.832727 183.167202 
L 77.480531 185.40737 
L 81.128335 185.991813 
L 84.776139 190.038715 
L 88.423943 190.332639 
L 92.071747 192.042741 
L 95.719551 194.309693 
L 99.367354 194.954539 
L 103.015158 197.955488 
L 106.662962 199.678659 
L 110.310766 200.44602 
L 113.95857 202.33044 
L 117.606374 203.604385 
L 121.254178 205.899391 
L 124.901982 206.141005 
L 128.549785 206.906623 
L 132.197589 209.860652 
L 135.845393 211.579113 
L 139.493197 212.001626 
L 143.141001 212.649808 
L 146.788805 214.25305 
L 150.436609 215.655063 
L 154.084413 217.225817 
L 157.732217 218.013728 
L 161.38002 219.427344 
L 165.027824 220.385405 
L 168.675628 221.281724 
L 172.323432 222.252531 
L 175.971236 223.946932 
L 179.61904 225.050438 
L 183.266844 226.094856 
L 186.914648 227.677155 
L 190.562451 228.271382 
L 194.210255 230.167451 
L 197.858059 229.967469 
L 201.505863 231.945265 
L 205.153667 232.093589 
L 208.801471 234.176093 
L 212.449275 235.042568 
L 216.097079 236.496244 
L 219.744883 236.592784 
L 223.392686 237.816224 
L 227.04049 238.690654 
L 230.688294 240.183295 
L 234.336098 241.088699 
L 237.983902 241.538539 
L 241.631706 243.517062 
L 245.27951 243.933704 
L 248.927314 244.893965 
L 252.575117 245.52741 
L 256.222921 246.500099 
L 259.870725 246.297207 
L 263.518529 247.980883 
L 267.166333 249.160158 
L 270.814137 250.060466 
L 274.461941 250.307719 
L 278.109745 251.596625 
L 281.757549 253.175692 
L 285.405352 252.926453 
L 289.053156 253.848177 
L 292.70096 255.537625 
L 296.348764 255.755087 
L 299.996568 256.688119 
L 303.644372 257.295062 
L 307.292176 258.005697 
L 310.93998 259.525347 
L 314.587783 258.951423 
L 318.235587 260.255638 
L 321.883391 261.454279 
L 325.531195 261.522129 
L 329.178999 262.838848 
L 332.826803 263.94775 
L 336.474607 263.702477 
L 340.122411 264.718587 
L 343.770215 265.097539 
L 347.418018 265.884475 
L 351.065822 267.215117 
L 354.713626 267.063127 
L 358.36143 268.406029 
L 362.009234 268.819831 
L 365.657038 269.48738 
L 369.304842 269.932156 
L 372.952646 270.872681 
L 376.600449 271.653665 
L 380.248253 271.93904 
L 383.896057 272.698967 
L 387.543861 273.438666 
L 391.191665 274.03939 
L 394.839469 274.540252 
L 398.487273 275.038511 
" clip-path="url(#pdbd8fee295)" style="fill: none; stroke: #ff00ff; stroke-opacity: 0.3; stroke-width: 0.5; stroke-linecap: square"/>
   </g>
   <g id="line2d_43">
    <path d="M 73.832727 179.676688 
L 77.480531 183.317345 
L 81.128335 188.447041 
L 84.776139 190.680247 
L 88.423943 193.03426 
L 92.071747 195.752714 
L 95.719551 197.72386 
L 99.367354 199.640918 
L 103.015158 201.790435 
L 106.662962 203.58731 
L 110.310766 203.844082 
L 113.95857 206.249932 
L 117.606374 207.673326 
L 121.254178 210.539336 
L 124.901982 211.063364 
L 128.549785 212.561223 
L 132.197589 215.211585 
L 135.845393 217.151306 
L 139.493197 218.980818 
L 143.141001 219.122475 
L 146.788805 220.563198 
L 150.436609 221.635474 
L 154.084413 224.330134 
L 157.732217 225.703111 
L 161.38002 227.15225 
L 165.027824 227.801189 
L 168.675628 228.632931 
L 172.323432 231.132913 
L 175.971236 232.302548 
L 179.61904 233.453451 
L 183.266844 234.601099 
L 186.914648 235.184889 
L 190.562451 236.641325 
L 194.210255 237.955128 
L 197.858059 238.422308 
L 201.505863 240.500978 
L 205.153667 241.866059 
L 208.801471 242.979267 
L 212.449275 244.477288 
L 216.097079 245.042716 
L 219.744883 246.726623 
L 223.392686 247.943927 
L 227.04049 248.835697 
L 230.688294 250.043731 
L 234.336098 250.530076 
L 237.983902 252.157833 
L 241.631706 252.280395 
L 245.27951 253.30155 
L 248.927314 254.641756 
L 252.575117 254.802243 
L 256.222921 255.877689 
L 259.870725 256.84987 
L 263.518529 258.765254 
L 267.166333 258.594411 
L 270.814137 260.559202 
L 274.461941 260.853663 
L 278.109745 261.325622 
L 281.757549 262.288579 
L 285.405352 263.520482 
L 289.053156 264.10867 
L 292.70096 264.353095 
L 296.348764 265.313731 
L 299.996568 266.469714 
L 303.644372 266.354911 
L 307.292176 266.963332 
L 310.93998 268.64919 
L 314.587783 269.958375 
L 318.235587 270.314694 
L 321.883391 270.887078 
L 325.531195 271.089883 
L 329.178999 271.763608 
L 332.826803 273.092028 
L 336.474607 273.383885 
L 340.122411 273.758835 
L 343.770215 275.136975 
L 347.418018 274.656403 
L 351.065822 275.475587 
L 354.713626 276.28585 
L 358.36143 277.136753 
L 362.009234 277.422492 
L 365.657038 278.408989 
L 369.304842 278.811398 
L 372.952646 279.576964 
L 376.600449 279.701396 
L 380.248253 280.109858 
L 383.896057 280.484623 
L 387.543861 281.782205 
L 391.191665 282.17666 
L 394.839469 282.603788 
L 398.487273 283.059524 
" clip-path="url(#pdbd8fee295)" style="fill: none; stroke: #ff00ff; stroke-opacity: 0.3; stroke-width: 0.5; stroke-linecap: square"/>
   </g>
   <g id="line2d_44">
    <path d="M 73.832727 186.318859 
L 77.480531 186.848728 
L 81.128335 188.087068 
L 84.776139 188.336405 
L 88.423943 189.02399 
L 92.071747 189.260339 
L 95.719551 190.347301 
L 99.367354 190.728424 
L 103.015158 190.524874 
L 106.662962 191.1683 
L 110.310766 192.169436 
L 113.95857 192.176744 
L 117.606374 193.57609 
L 121.254178 193.436996 
L 124.901982 193.785735 
L 128.549785 194.221212 
L 132.197589 193.084042 
L 135.845393 196.329744 
L 139.493197 196.412741 
L 143.141001 196.735655 
L 146.788805 196.910815 
L 150.436609 198.056749 
L 154.084413 197.602788 
L 157.732217 198.181504 
L 161.38002 197.960764 
L 165.027824 198.707251 
L 168.675628 199.558545 
L 172.323432 200.203748 
L 175.971236 200.013776 
L 179.61904 200.766117 
L 183.266844 200.949867 
L 186.914648 202.398013 
L 190.562451 202.393453 
L 194.210255 202.35106 
L 197.858059 203.219555 
L 201.505863 203.987551 
L 205.153667 204.410872 
L 208.801471 205.357354 
L 212.449275 205.341976 
L 216.097079 205.738789 
L 219.744883 206.978721 
L 223.392686 206.109406 
L 227.04049 207.028065 
L 230.688294 207.812789 
L 234.336098 208.55511 
L 237.983902 207.708515 
L 241.631706 209.18258 
L 245.27951 209.678853 
L 248.927314 210.88631 
L 252.575117 210.256392 
L 256.222921 211.231332 
L 259.870725 211.705208 
L 263.518529 212.522605 
L 267.166333 212.918125 
L 270.814137 213.065497 
L 274.461941 213.040063 
L 278.109745 214.419875 
L 281.757549 214.643132 
L 285.405352 215.899101 
L 289.053156 215.798532 
L 292.70096 217.340978 
L 296.348764 217.518713 
L 299.996568 218.380351 
L 303.644372 218.662684 
L 307.292176 218.260768 
L 310.93998 219.021664 
L 314.587783 219.857152 
L 318.235587 220.166431 
L 321.883391 220.680576 
L 325.531195 220.765686 
L 329.178999 221.363693 
L 332.826803 222.327458 
L 336.474607 222.204111 
L 340.122411 223.582769 
L 343.770215 223.644627 
L 347.418018 224.521492 
L 351.065822 224.543682 
L 354.713626 225.371227 
L 358.36143 226.312098 
L 362.009234 225.956524 
L 365.657038 227.254325 
L 369.304842 228.028631 
L 372.952646 228.21566 
L 376.600449 229.374148 
L 380.248253 229.494603 
L 383.896057 230.457329 
L 387.543861 231.548948 
L 391.191665 231.227362 
L 394.839469 232.547544 
L 398.487273 231.831893 
" clip-path="url(#pdbd8fee295)" style="fill: none; stroke: #ff00ff; stroke-opacity: 0.3; stroke-width: 0.5; stroke-linecap: square"/>
   </g>
   <g id="line2d_45">
    <path d="M 73.832727 190.766061 
L 77.480531 191.987025 
L 81.128335 193.547643 
L 84.776139 195.854668 
L 88.423943 197.061166 
L 92.071747 198.904775 
L 95.719551 200.398328 
L 99.367354 202.139879 
L 103.015158 203.804194 
L 106.662962 204.974198 
L 110.310766 207.022119 
L 113.95857 207.755099 
L 117.606374 209.415858 
L 121.254178 210.664831 
L 124.901982 212.267091 
L 128.549785 212.946029 
L 132.197589 215.277345 
L 135.845393 216.440515 
L 139.493197 217.41534 
L 143.141001 218.775733 
L 146.788805 220.172654 
L 150.436609 222.174856 
L 154.084413 223.304119 
L 157.732217 223.94542 
L 161.38002 224.631216 
L 165.027824 227.283269 
L 168.675628 227.584276 
L 172.323432 228.741436 
L 175.971236 230.799418 
L 179.61904 231.479297 
L 183.266844 232.022917 
L 186.914648 233.114594 
L 190.562451 234.250373 
L 194.210255 236.261725 
L 197.858059 237.119622 
L 201.505863 238.482734 
L 205.153667 238.543005 
L 208.801471 239.64184 
L 212.449275 240.299593 
L 216.097079 242.283272 
L 219.744883 242.59636 
L 223.392686 243.780057 
L 227.04049 245.257055 
L 230.688294 246.111338 
L 234.336098 246.420952 
L 237.983902 247.854765 
L 241.631706 248.827391 
L 245.27951 249.376078 
L 248.927314 251.108676 
L 252.575117 250.787592 
L 256.222921 252.386817 
L 259.870725 253.442128 
L 263.518529 254.725313 
L 267.166333 254.949881 
L 270.814137 256.69205 
L 274.461941 256.722361 
L 278.109745 258.032441 
L 281.757549 259.04085 
L 285.405352 259.917837 
L 289.053156 259.750255 
L 292.70096 261.210247 
L 296.348764 262.203082 
L 299.996568 262.500019 
L 303.644372 263.253428 
L 307.292176 263.72578 
L 310.93998 264.297541 
L 314.587783 265.75348 
L 318.235587 265.539528 
L 321.883391 267.174034 
L 325.531195 267.996349 
L 329.178999 268.551554 
L 332.826803 269.20522 
L 336.474607 269.916473 
L 340.122411 270.969509 
L 343.770215 271.272132 
L 347.418018 271.525337 
L 351.065822 273.464683 
L 354.713626 273.218815 
L 358.36143 274.246466 
L 362.009234 274.267184 
L 365.657038 275.518806 
L 369.304842 275.402698 
L 372.952646 276.032425 
L 376.600449 277.092484 
L 380.248253 277.352036 
L 383.896057 278.805493 
L 387.543861 278.708053 
L 391.191665 279.351912 
L 394.839469 279.412598 
L 398.487273 279.938458 
" clip-path="url(#pdbd8fee295)" style="fill: none; stroke: #ff00ff; stroke-opacity: 0.3; stroke-width: 0.5; stroke-linecap: square"/>
   </g>
   <g id="line2d_46">
    <path d="M 73.832727 170.294094 
L 77.480531 170.927083 
L 81.128335 172.172996 
L 84.776139 172.420416 
L 88.423943 173.534543 
L 92.071747 174.598334 
L 95.719551 174.827432 
L 99.367354 175.947389 
L 103.015158 177.531086 
L 106.662962 178.846522 
L 110.310766 178.786373 
L 113.95857 180.604756 
L 117.606374 180.651121 
L 121.254178 181.596644 
L 124.901982 182.000962 
L 128.549785 183.074 
L 132.197589 183.75624 
L 135.845393 184.857921 
L 139.493197 185.957143 
L 143.141001 187.191418 
L 146.788805 186.956143 
L 150.436609 188.223818 
L 154.084413 188.357267 
L 157.732217 190.015382 
L 161.38002 189.912539 
L 165.027824 190.515534 
L 168.675628 191.978274 
L 172.323432 192.720952 
L 175.971236 193.699448 
L 179.61904 193.653672 
L 183.266844 194.449919 
L 186.914648 194.654208 
L 190.562451 195.60219 
L 194.210255 195.836704 
L 197.858059 197.333547 
L 201.505863 197.98039 
L 205.153667 198.797279 
L 208.801471 199.573588 
L 212.449275 199.98855 
L 216.097079 200.517322 
L 219.744883 200.873808 
L 223.392686 202.262106 
L 227.04049 203.25583 
L 230.688294 203.674624 
L 234.336098 204.527095 
L 237.983902 204.93431 
L 241.631706 205.868485 
L 245.27951 206.633722 
L 248.927314 206.38711 
L 252.575117 207.34068 
L 256.222921 208.260031 
L 259.870725 208.344621 
L 263.518529 208.77062 
L 267.166333 210.031126 
L 270.814137 211.319951 
L 274.461941 211.990727 
L 278.109745 211.754978 
L 281.757549 212.822209 
L 285.405352 214.035207 
L 289.053156 214.713372 
L 292.70096 214.942205 
L 296.348764 215.95611 
L 299.996568 216.130058 
L 303.644372 217.554168 
L 307.292176 217.845668 
L 310.93998 218.167069 
L 314.587783 218.635934 
L 318.235587 219.741275 
L 321.883391 220.661515 
L 325.531195 220.990086 
L 329.178999 221.359249 
L 332.826803 222.080903 
L 336.474607 222.703051 
L 340.122411 223.285346 
L 343.770215 224.77696 
L 347.418018 224.990046 
L 351.065822 225.32604 
L 354.713626 226.603649 
L 358.36143 226.734177 
L 362.009234 228.03449 
L 365.657038 228.517648 
L 369.304842 229.024491 
L 372.952646 230.326633 
L 376.600449 229.893021 
L 380.248253 230.567612 
L 383.896057 232.023217 
L 387.543861 232.210119 
L 391.191665 233.167384 
L 394.839469 233.838309 
L 398.487273 234.41321 
" clip-path="url(#pdbd8fee295)" style="fill: none; stroke: #ff00ff; stroke-opacity: 0.3; stroke-width: 0.5; stroke-linecap: square"/>
   </g>
   <g id="line2d_47">
    <path d="M 73.832727 190.579055 
L 77.480531 191.97496 
L 81.128335 192.226468 
L 84.776139 192.16536 
L 88.423943 193.119531 
L 92.071747 193.921551 
L 95.719551 194.645514 
L 99.367354 194.017339 
L 103.015158 195.99883 
L 106.662962 197.271689 
L 110.310766 197.698126 
L 113.95857 197.675798 
L 117.606374 198.362922 
L 121.254178 199.654322 
L 124.901982 199.916497 
L 128.549785 199.746913 
L 132.197589 201.803839 
L 135.845393 202.25743 
L 139.493197 203.813222 
L 143.141001 203.407508 
L 146.788805 204.74443 
L 150.436609 205.169343 
L 154.084413 204.379608 
L 157.732217 206.041418 
L 161.38002 206.527173 
L 165.027824 205.968788 
L 168.675628 206.714422 
L 172.323432 208.086741 
L 175.971236 209.519359 
L 179.61904 208.78893 
L 183.266844 209.699657 
L 186.914648 210.761924 
L 190.562451 210.98226 
L 194.210255 212.383788 
L 197.858059 212.027521 
L 201.505863 213.740868 
L 205.153667 213.597698 
L 208.801471 214.936086 
L 212.449275 214.532012 
L 216.097079 215.395612 
L 219.744883 215.813529 
L 223.392686 216.507811 
L 227.04049 217.836824 
L 230.688294 218.478911 
L 234.336098 219.206361 
L 237.983902 220.082337 
L 241.631706 221.405267 
L 245.27951 221.730097 
L 248.927314 221.761788 
L 252.575117 221.965534 
L 256.222921 222.674258 
L 259.870725 223.687112 
L 263.518529 224.935923 
L 267.166333 225.701564 
L 270.814137 225.121578 
L 274.461941 226.29022 
L 278.109745 227.009 
L 281.757549 227.621416 
L 285.405352 228.125061 
L 289.053156 228.968694 
L 292.70096 228.815757 
L 296.348764 229.644082 
L 299.996568 231.688839 
L 303.644372 231.923422 
L 307.292176 232.264686 
L 310.93998 232.970599 
L 314.587783 233.625477 
L 318.235587 234.031192 
L 321.883391 234.923516 
L 325.531195 233.890221 
L 329.178999 236.167726 
L 332.826803 236.662452 
L 336.474607 236.7706 
L 340.122411 238.980352 
L 343.770215 238.413129 
L 347.418018 238.651886 
L 351.065822 239.574902 
L 354.713626 239.861235 
L 358.36143 241.166449 
L 362.009234 240.611077 
L 365.657038 242.072789 
L 369.304842 242.098581 
L 372.952646 244.41752 
L 376.600449 243.643041 
L 380.248253 244.212498 
L 383.896057 245.102069 
L 387.543861 246.520135 
L 391.191665 246.013131 
L 394.839469 246.928533 
L 398.487273 247.82958 
" clip-path="url(#pdbd8fee295)" style="fill: none; stroke: #ff00ff; stroke-opacity: 0.3; stroke-width: 0.5; stroke-linecap: square"/>
   </g>
   <g id="line2d_48">
    <path d="M 73.832727 191.977108 
L 77.480531 193.091546 
L 81.128335 194.417905 
L 84.776139 195.008223 
L 88.423943 197.03915 
L 92.071747 196.971981 
L 95.719551 199.062214 
L 99.367354 198.540242 
L 103.015158 200.155513 
L 106.662962 201.828683 
L 110.310766 201.357336 
L 113.95857 204.505425 
L 117.606374 204.568219 
L 121.254178 205.054194 
L 124.901982 206.21203 
L 128.549785 206.834917 
L 132.197589 208.039014 
L 135.845393 208.513501 
L 139.493197 209.49777 
L 143.141001 210.658181 
L 146.788805 211.29805 
L 150.436609 212.576105 
L 154.084413 213.961008 
L 157.732217 213.831704 
L 161.38002 215.569964 
L 165.027824 216.295348 
L 168.675628 216.887318 
L 172.323432 218.423887 
L 175.971236 218.985978 
L 179.61904 219.125073 
L 183.266844 220.979107 
L 186.914648 221.750566 
L 190.562451 221.787464 
L 194.210255 222.696159 
L 197.858059 224.000409 
L 201.505863 225.657999 
L 205.153667 225.673111 
L 208.801471 226.853431 
L 212.449275 227.9264 
L 216.097079 228.425126 
L 219.744883 228.962956 
L 223.392686 230.733635 
L 227.04049 230.756852 
L 230.688294 231.809311 
L 234.336098 233.022124 
L 237.983902 232.850393 
L 241.631706 234.689176 
L 245.27951 235.101869 
L 248.927314 236.045689 
L 252.575117 236.410563 
L 256.222921 238.053139 
L 259.870725 238.038731 
L 263.518529 239.553821 
L 267.166333 239.702994 
L 270.814137 241.800252 
L 274.461941 241.524956 
L 278.109745 242.767099 
L 281.757549 243.009619 
L 285.405352 244.270385 
L 289.053156 244.976032 
L 292.70096 246.3399 
L 296.348764 246.795691 
L 299.996568 247.693343 
L 303.644372 248.126027 
L 307.292176 249.108754 
L 310.93998 249.87593 
L 314.587783 250.30384 
L 318.235587 250.772884 
L 321.883391 252.243774 
L 325.531195 252.821284 
L 329.178999 253.204439 
L 332.826803 253.907177 
L 336.474607 255.014573 
L 340.122411 255.461497 
L 343.770215 256.06257 
L 347.418018 256.679748 
L 351.065822 257.490698 
L 354.713626 258.227436 
L 358.36143 258.789412 
L 362.009234 260.088512 
L 365.657038 260.287906 
L 369.304842 260.157932 
L 372.952646 261.498866 
L 376.600449 261.908131 
L 380.248253 262.545755 
L 383.896057 263.577693 
L 387.543861 263.762701 
L 391.191665 264.450783 
L 394.839469 265.310066 
L 398.487273 266.028834 
" clip-path="url(#pdbd8fee295)" style="fill: none; stroke: #ff00ff; stroke-opacity: 0.3; stroke-width: 0.5; stroke-linecap: square"/>
   </g>
   <g id="line2d_49">
    <path d="M 73.832727 185.370634 
L 77.480531 185.427655 
L 81.128335 185.282269 
L 84.776139 185.68796 
L 88.423943 185.737142 
L 92.071747 186.340472 
L 95.719551 186.429229 
L 99.367354 186.237617 
L 103.015158 186.664794 
L 106.662962 186.83103 
L 110.310766 187.112566 
L 113.95857 187.500305 
L 117.606374 187.405151 
L 121.254178 187.599523 
L 124.901982 187.949509 
L 128.549785 188.045263 
L 132.197589 188.184138 
L 135.845393 188.458366 
L 139.493197 188.26635 
L 143.141001 188.061576 
L 146.788805 188.730909 
L 150.436609 189.048593 
L 154.084413 189.10133 
L 157.732217 189.10559 
L 161.38002 189.491159 
L 165.027824 189.421173 
L 168.675628 189.761866 
L 172.323432 189.746211 
L 175.971236 190.044753 
L 179.61904 190.223054 
L 183.266844 190.175892 
L 186.914648 190.748282 
L 190.562451 190.172232 
L 194.210255 190.764837 
L 197.858059 190.944281 
L 201.505863 191.082625 
L 205.153667 190.894661 
L 208.801471 191.257577 
L 212.449275 191.362683 
L 216.097079 191.664481 
L 219.744883 191.90008 
L 223.392686 191.698423 
L 227.04049 191.782274 
L 230.688294 192.235531 
L 234.336098 192.583428 
L 237.983902 191.936873 
L 241.631706 193.082899 
L 245.27951 192.549451 
L 248.927314 193.147135 
L 252.575117 193.301192 
L 256.222921 193.15905 
L 259.870725 193.565203 
L 263.518529 193.394683 
L 267.166333 193.489895 
L 270.814137 193.670897 
L 274.461941 193.50129 
L 278.109745 193.643755 
L 281.757549 193.962674 
L 285.405352 194.094945 
L 289.053156 193.848159 
L 292.70096 194.314461 
L 296.348764 194.482522 
L 299.996568 194.694015 
L 303.644372 194.659426 
L 307.292176 194.650663 
L 310.93998 194.888167 
L 314.587783 194.782184 
L 318.235587 195.095042 
L 321.883391 195.095446 
L 325.531195 195.337821 
L 329.178999 195.653081 
L 332.826803 195.439394 
L 336.474607 195.908987 
L 340.122411 195.901818 
L 343.770215 195.692195 
L 347.418018 196.018203 
L 351.065822 196.13087 
L 354.713626 195.736412 
L 358.36143 195.981524 
L 362.009234 196.432021 
L 365.657038 196.491928 
L 369.304842 196.942114 
L 372.952646 197.007793 
L 376.600449 197.394262 
L 380.248253 197.338269 
L 383.896057 197.105614 
L 387.543861 197.39006 
L 391.191665 197.430433 
L 394.839469 197.521927 
L 398.487273 197.493399 
" clip-path="url(#pdbd8fee295)" style="fill: none; stroke: #ff00ff; stroke-opacity: 0.3; stroke-width: 0.5; stroke-linecap: square"/>
   </g>
   <g id="line2d_50">
    <path d="M 73.832727 183.656687 
L 77.480531 185.094455 
L 81.128335 186.383454 
L 84.776139 187.200193 
L 88.423943 188.031109 
L 92.071747 189.162542 
L 95.719551 189.984834 
L 99.367354 190.662849 
L 103.015158 191.647325 
L 106.662962 192.778815 
L 110.310766 192.837233 
L 113.95857 194.604125 
L 117.606374 194.957206 
L 121.254178 196.144643 
L 124.901982 196.75953 
L 128.549785 196.756621 
L 132.197589 198.392939 
L 135.845393 199.426712 
L 139.493197 199.603743 
L 143.141001 199.480489 
L 146.788805 201.277248 
L 150.436609 202.132652 
L 154.084413 202.821207 
L 157.732217 203.557385 
L 161.38002 204.045981 
L 165.027824 205.071673 
L 168.675628 206.453055 
L 172.323432 206.880554 
L 175.971236 207.599957 
L 179.61904 208.709466 
L 183.266844 208.511597 
L 186.914648 209.026099 
L 190.562451 210.073404 
L 194.210255 210.929881 
L 197.858059 211.324742 
L 201.505863 212.446604 
L 205.153667 213.267003 
L 208.801471 213.66347 
L 212.449275 214.191781 
L 216.097079 215.212751 
L 219.744883 216.364133 
L 223.392686 216.958735 
L 227.04049 217.679824 
L 230.688294 217.855239 
L 234.336098 218.921327 
L 237.983902 219.498876 
L 241.631706 220.322231 
L 245.27951 221.529791 
L 248.927314 222.274132 
L 252.575117 223.013831 
L 256.222921 224.311604 
L 259.870725 223.695979 
L 263.518529 225.487895 
L 267.166333 225.984826 
L 270.814137 226.802853 
L 274.461941 227.564822 
L 278.109745 227.797292 
L 281.757549 228.694425 
L 285.405352 229.274209 
L 289.053156 230.706833 
L 292.70096 230.989657 
L 296.348764 232.02982 
L 299.996568 232.713498 
L 303.644372 234.078486 
L 307.292176 234.275565 
L 310.93998 235.078288 
L 314.587783 236.548405 
L 318.235587 236.172425 
L 321.883391 237.980359 
L 325.531195 237.637231 
L 329.178999 238.205054 
L 332.826803 239.183891 
L 336.474607 240.054377 
L 340.122411 241.462134 
L 343.770215 241.573537 
L 347.418018 242.019763 
L 351.065822 242.762776 
L 354.713626 243.52224 
L 358.36143 244.23299 
L 362.009234 245.51871 
L 365.657038 245.749564 
L 369.304842 246.279047 
L 372.952646 246.663143 
L 376.600449 247.797427 
L 380.248253 248.668428 
L 383.896057 249.972885 
L 387.543861 250.048263 
L 391.191665 250.71442 
L 394.839469 251.175764 
L 398.487273 251.868181 
" clip-path="url(#pdbd8fee295)" style="fill: none; stroke: #ff00ff; stroke-opacity: 0.3; stroke-width: 0.5; stroke-linecap: square"/>
   </g>
   <g id="line2d_51">
    <path d="M 73.832727 177.395328 
L 77.480531 178.898521 
L 81.128335 180.058147 
L 84.776139 182.28356 
L 88.423943 182.085344 
L 92.071747 184.020228 
L 95.719551 184.81517 
L 99.367354 185.618898 
L 103.015158 186.008507 
L 106.662962 187.60399 
L 110.310766 188.671787 
L 113.95857 190.015578 
L 117.606374 190.887872 
L 121.254178 193.301169 
L 124.901982 193.493774 
L 128.549785 194.809453 
L 132.197589 195.924122 
L 135.845393 197.023841 
L 139.493197 198.425115 
L 143.141001 199.773651 
L 146.788805 200.17559 
L 150.436609 202.301301 
L 154.084413 204.294441 
L 157.732217 204.785391 
L 161.38002 206.668969 
L 165.027824 206.128559 
L 168.675628 207.482429 
L 172.323432 209.159848 
L 175.971236 210.002656 
L 179.61904 210.550373 
L 183.266844 212.592591 
L 186.914648 213.431104 
L 190.562451 214.483396 
L 194.210255 214.392409 
L 197.858059 215.941656 
L 201.505863 217.717957 
L 205.153667 218.237262 
L 208.801471 219.615562 
L 212.449275 220.513612 
L 216.097079 221.408892 
L 219.744883 221.598657 
L 223.392686 223.371518 
L 227.04049 223.770236 
L 230.688294 224.428313 
L 234.336098 225.5278 
L 237.983902 226.68021 
L 241.631706 227.309176 
L 245.27951 228.465869 
L 248.927314 229.716908 
L 252.575117 230.517663 
L 256.222921 231.733824 
L 259.870725 231.284106 
L 263.518529 232.72708 
L 267.166333 233.851124 
L 270.814137 234.495508 
L 274.461941 235.138755 
L 278.109745 237.004438 
L 281.757549 237.483717 
L 285.405352 238.649011 
L 289.053156 239.068781 
L 292.70096 240.408607 
L 296.348764 240.877697 
L 299.996568 242.044919 
L 303.644372 242.956218 
L 307.292176 243.197433 
L 310.93998 244.257096 
L 314.587783 245.347325 
L 318.235587 246.053013 
L 321.883391 246.943103 
L 325.531195 247.72048 
L 329.178999 248.438145 
L 332.826803 248.73245 
L 336.474607 250.516637 
L 340.122411 251.582021 
L 343.770215 251.419467 
L 347.418018 252.278634 
L 351.065822 253.539596 
L 354.713626 254.281945 
L 358.36143 255.041109 
L 362.009234 255.275871 
L 365.657038 256.532146 
L 369.304842 257.019829 
L 372.952646 258.424809 
L 376.600449 258.666423 
L 380.248253 259.415514 
L 383.896057 260.590564 
L 387.543861 261.372818 
L 391.191665 261.26665 
L 394.839469 262.638588 
L 398.487273 263.425362 
" clip-path="url(#pdbd8fee295)" style="fill: none; stroke: #ff00ff; stroke-opacity: 0.3; stroke-width: 0.5; stroke-linecap: square"/>
   </g>
   <g id="line2d_52">
    <path d="M 73.832727 185.754459 
L 77.480531 186.971913 
L 81.128335 189.734331 
L 84.776139 190.74483 
L 88.423943 193.018062 
L 92.071747 196.048993 
L 95.719551 195.537573 
L 99.367354 196.304461 
L 103.015158 199.220438 
L 106.662962 200.63687 
L 110.310766 201.652137 
L 113.95857 203.137459 
L 117.606374 203.624658 
L 121.254178 205.32512 
L 124.901982 206.129391 
L 128.549785 208.242656 
L 132.197589 209.396324 
L 135.845393 209.528203 
L 139.493197 212.408933 
L 143.141001 211.965224 
L 146.788805 213.641558 
L 150.436609 215.584084 
L 154.084413 215.896896 
L 157.732217 217.643342 
L 161.38002 218.035006 
L 165.027824 219.383646 
L 168.675628 219.421005 
L 172.323432 221.296421 
L 175.971236 222.372714 
L 179.61904 222.833175 
L 183.266844 224.22489 
L 186.914648 225.99356 
L 190.562451 225.855586 
L 194.210255 227.415696 
L 197.858059 227.621849 
L 201.505863 229.620669 
L 205.153667 230.491363 
L 208.801471 231.82832 
L 212.449275 233.414995 
L 216.097079 233.687341 
L 219.744883 234.990131 
L 223.392686 236.01065 
L 227.04049 236.667162 
L 230.688294 237.651137 
L 234.336098 238.550867 
L 237.983902 239.747864 
L 241.631706 240.829104 
L 245.27951 241.815849 
L 248.927314 243.044728 
L 252.575117 243.655816 
L 256.222921 245.224758 
L 259.870725 245.19638 
L 263.518529 246.657717 
L 267.166333 246.948697 
L 270.814137 248.425769 
L 274.461941 249.395278 
L 278.109745 251.259246 
L 281.757549 250.978385 
L 285.405352 251.743593 
L 289.053156 252.679731 
L 292.70096 253.926648 
L 296.348764 254.820063 
L 299.996568 255.348784 
L 303.644372 256.4557 
L 307.292176 257.053864 
L 310.93998 257.704609 
L 314.587783 259.645791 
L 318.235587 259.910719 
L 321.883391 260.539939 
L 325.531195 261.781713 
L 329.178999 262.297439 
L 332.826803 262.815296 
L 336.474607 263.741643 
L 340.122411 264.56483 
L 343.770215 265.091097 
L 347.418018 264.965407 
L 351.065822 267.054722 
L 354.713626 267.189885 
L 358.36143 268.267385 
L 362.009234 268.37073 
L 365.657038 269.79267 
L 369.304842 270.354565 
L 372.952646 271.012895 
L 376.600449 271.599947 
L 380.248253 272.509138 
L 383.896057 273.563098 
L 387.543861 273.31327 
L 391.191665 274.296523 
L 394.839469 275.163312 
L 398.487273 275.877769 
" clip-path="url(#pdbd8fee295)" style="fill: none; stroke: #ff00ff; stroke-opacity: 0.3; stroke-width: 0.5; stroke-linecap: square"/>
   </g>
   <g id="line2d_53">
    <path d="M 73.832727 193.706652 
L 77.480531 194.860216 
L 81.128335 196.493314 
L 84.776139 198.196258 
L 88.423943 198.679913 
L 92.071747 200.623732 
L 95.719551 201.013861 
L 99.367354 203.107719 
L 103.015158 204.260937 
L 106.662962 205.53674 
L 110.310766 206.392778 
L 113.95857 207.735357 
L 117.606374 209.383498 
L 121.254178 210.197062 
L 124.901982 211.569496 
L 128.549785 212.261711 
L 132.197589 213.256451 
L 135.845393 215.266862 
L 139.493197 215.427961 
L 143.141001 216.620317 
L 146.788805 216.890504 
L 150.436609 219.028233 
L 154.084413 219.77606 
L 157.732217 221.211311 
L 161.38002 222.062258 
L 165.027824 222.853898 
L 168.675628 223.736767 
L 172.323432 224.788539 
L 175.971236 225.764305 
L 179.61904 226.953457 
L 183.266844 226.835456 
L 186.914648 228.41641 
L 190.562451 229.153275 
L 194.210255 230.516508 
L 197.858059 230.954416 
L 201.505863 231.944757 
L 205.153667 233.549661 
L 208.801471 232.375737 
L 212.449275 234.366955 
L 216.097079 235.246025 
L 219.744883 235.864335 
L 223.392686 237.814758 
L 227.04049 239.410184 
L 230.688294 239.364858 
L 234.336098 240.037372 
L 237.983902 240.806534 
L 241.631706 241.9081 
L 245.27951 242.886151 
L 248.927314 243.803557 
L 252.575117 244.549525 
L 256.222921 245.284116 
L 259.870725 245.632683 
L 263.518529 247.090117 
L 267.166333 247.275051 
L 270.814137 248.874142 
L 274.461941 248.82096 
L 278.109745 250.296428 
L 281.757549 251.289217 
L 285.405352 251.351791 
L 289.053156 252.057998 
L 292.70096 253.440967 
L 296.348764 253.321529 
L 299.996568 255.211664 
L 303.644372 255.647655 
L 307.292176 256.534535 
L 310.93998 257.184865 
L 314.587783 257.603129 
L 318.235587 258.209697 
L 321.883391 259.684501 
L 325.531195 260.092899 
L 329.178999 259.934796 
L 332.826803 261.520161 
L 336.474607 262.053563 
L 340.122411 262.834149 
L 343.770215 263.178501 
L 347.418018 264.596498 
L 351.065822 265.093441 
L 354.713626 265.721789 
L 358.36143 265.682461 
L 362.009234 267.335127 
L 365.657038 267.669124 
L 369.304842 268.103031 
L 372.952646 268.957493 
L 376.600449 268.882751 
L 380.248253 269.612424 
L 383.896057 270.715571 
L 387.543861 271.030565 
L 391.191665 271.357536 
L 394.839469 271.513203 
L 398.487273 272.335778 
" clip-path="url(#pdbd8fee295)" style="fill: none; stroke: #ff00ff; stroke-opacity: 0.3; stroke-width: 0.5; stroke-linecap: square"/>
   </g>
   <g id="line2d_54">
    <path d="M 73.832727 185.835482 
L 77.480531 185.565317 
L 81.128335 186.194277 
L 84.776139 187.001226 
L 88.423943 187.295566 
L 92.071747 188.028892 
L 95.719551 189.155326 
L 99.367354 188.965122 
L 103.015158 190.303672 
L 106.662962 190.906794 
L 110.310766 191.167076 
L 113.95857 191.513415 
L 117.606374 192.320502 
L 121.254178 192.319336 
L 124.901982 192.672648 
L 128.549785 194.439228 
L 132.197589 194.540409 
L 135.845393 194.845173 
L 139.493197 195.042362 
L 143.141001 196.234971 
L 146.788805 196.801554 
L 150.436609 198.697704 
L 154.084413 198.756595 
L 157.732217 198.996084 
L 161.38002 199.492496 
L 165.027824 199.851384 
L 168.675628 200.809826 
L 172.323432 201.989448 
L 175.971236 201.524103 
L 179.61904 203.387581 
L 183.266844 203.164913 
L 186.914648 203.815947 
L 190.562451 203.56557 
L 194.210255 204.653109 
L 197.858059 205.219529 
L 201.505863 205.593437 
L 205.153667 206.3032 
L 208.801471 207.719621 
L 212.449275 207.152739 
L 216.097079 207.297767 
L 219.744883 208.182807 
L 223.392686 208.870473 
L 227.04049 209.714851 
L 230.688294 210.927652 
L 234.336098 210.545063 
L 237.983902 210.892983 
L 241.631706 212.138896 
L 245.27951 212.13609 
L 248.927314 212.137198 
L 252.575117 213.421822 
L 256.222921 214.13992 
L 259.870725 213.940608 
L 263.518529 214.776511 
L 267.166333 215.035119 
L 270.814137 215.862872 
L 274.461941 215.618684 
L 278.109745 216.463408 
L 281.757549 216.274809 
L 285.405352 217.982187 
L 289.053156 218.106746 
L 292.70096 218.557486 
L 296.348764 218.865264 
L 299.996568 219.332178 
L 303.644372 219.469067 
L 307.292176 220.2744 
L 310.93998 220.316735 
L 314.587783 220.877257 
L 318.235587 221.855545 
L 321.883391 222.660104 
L 325.531195 222.022232 
L 329.178999 223.046873 
L 332.826803 223.907333 
L 336.474607 223.369752 
L 340.122411 224.422898 
L 343.770215 224.780804 
L 347.418018 225.413816 
L 351.065822 225.819392 
L 354.713626 227.670286 
L 358.36143 226.219957 
L 362.009234 227.222444 
L 365.657038 227.465986 
L 369.304842 228.652338 
L 372.952646 228.584078 
L 376.600449 229.255731 
L 380.248253 229.89604 
L 383.896057 229.930825 
L 387.543861 229.727188 
L 391.191665 229.94816 
L 394.839469 230.529248 
L 398.487273 231.77956 
" clip-path="url(#pdbd8fee295)" style="fill: none; stroke: #ff00ff; stroke-opacity: 0.3; stroke-width: 0.5; stroke-linecap: square"/>
   </g>
   <g id="line2d_55">
    <path d="M 73.832727 198.741563 
L 77.480531 200.856168 
L 81.128335 201.58154 
L 84.776139 203.123801 
L 88.423943 203.218366 
L 92.071747 204.637662 
L 95.719551 206.514751 
L 99.367354 207.543583 
L 103.015158 207.223822 
L 106.662962 208.18343 
L 110.310766 209.352546 
L 113.95857 210.115635 
L 117.606374 211.729441 
L 121.254178 212.631532 
L 124.901982 213.699606 
L 128.549785 213.868267 
L 132.197589 214.81633 
L 135.845393 216.262849 
L 139.493197 217.327344 
L 143.141001 218.085007 
L 146.788805 218.978751 
L 150.436609 220.345044 
L 154.084413 220.778616 
L 157.732217 221.385721 
L 161.38002 222.970942 
L 165.027824 223.696475 
L 168.675628 225.045924 
L 172.323432 226.03985 
L 175.971236 227.027166 
L 179.61904 228.314751 
L 183.266844 229.451904 
L 186.914648 230.318096 
L 190.562451 231.837163 
L 194.210255 233.236827 
L 197.858059 234.652924 
L 201.505863 236.147955 
L 205.153667 238.188879 
L 208.801471 239.120913 
L 212.449275 240.399706 
L 216.097079 241.76777 
L 219.744883 241.893259 
L 223.392686 244.814223 
L 227.04049 245.619596 
L 230.688294 246.536113 
L 234.336098 247.585074 
L 237.983902 248.93727 
L 241.631706 249.899811 
L 245.27951 251.404297 
L 248.927314 252.495854 
L 252.575117 253.656195 
L 256.222921 254.296786 
L 259.870725 255.653369 
L 263.518529 256.475956 
L 267.166333 257.42604 
L 270.814137 258.371766 
L 274.461941 259.634973 
L 278.109745 260.490192 
L 281.757549 261.185939 
L 285.405352 262.784771 
L 289.053156 262.973428 
L 292.70096 264.097495 
L 296.348764 264.17009 
L 299.996568 265.618675 
L 303.644372 265.735175 
L 307.292176 267.399906 
L 310.93998 268.000304 
L 314.587783 268.86014 
L 318.235587 269.389178 
L 321.883391 270.426756 
L 325.531195 270.832233 
L 329.178999 271.472178 
L 332.826803 272.347364 
L 336.474607 273.531378 
L 340.122411 273.958742 
L 343.770215 274.775859 
L 347.418018 274.881 
L 351.065822 276.030385 
L 354.713626 276.125172 
L 358.36143 276.77945 
L 362.009234 277.58293 
L 365.657038 278.298803 
L 369.304842 278.71068 
L 372.952646 279.770859 
L 376.600449 279.568868 
L 380.248253 280.204111 
L 383.896057 281.845657 
L 387.543861 281.828844 
L 391.191665 282.039494 
L 394.839469 283.353315 
L 398.487273 283.605798 
" clip-path="url(#pdbd8fee295)" style="fill: none; stroke: #ff00ff; stroke-opacity: 0.3; stroke-width: 0.5; stroke-linecap: square"/>
   </g>
   <g id="line2d_56">
    <path d="M 73.832727 184.616261 
L 77.480531 187.301419 
L 81.128335 188.175803 
L 84.776139 189.661851 
L 88.423943 189.093283 
L 92.071747 191.72874 
L 95.719551 192.598783 
L 99.367354 194.302051 
L 103.015158 195.106448 
L 106.662962 194.993411 
L 110.310766 196.132764 
L 113.95857 197.236604 
L 117.606374 198.344866 
L 121.254178 200.723816 
L 124.901982 200.153874 
L 128.549785 200.949209 
L 132.197589 201.926031 
L 135.845393 202.603757 
L 139.493197 204.791845 
L 143.141001 205.510186 
L 146.788805 205.37317 
L 150.436609 208.055985 
L 154.084413 208.628132 
L 157.732217 208.607385 
L 161.38002 210.4621 
L 165.027824 210.2445 
L 168.675628 211.005627 
L 172.323432 211.772319 
L 175.971236 213.649096 
L 179.61904 213.779024 
L 183.266844 214.299565 
L 186.914648 214.849268 
L 190.562451 216.643349 
L 194.210255 216.578154 
L 197.858059 217.661329 
L 201.505863 218.693832 
L 205.153667 219.433012 
L 208.801471 220.433883 
L 212.449275 220.872246 
L 216.097079 222.256156 
L 219.744883 222.454465 
L 223.392686 224.111298 
L 227.04049 223.416059 
L 230.688294 225.369917 
L 234.336098 226.184202 
L 237.983902 226.684118 
L 241.631706 227.241499 
L 245.27951 228.231523 
L 248.927314 228.16242 
L 252.575117 229.528205 
L 256.222921 230.005919 
L 259.870725 231.484094 
L 263.518529 232.816537 
L 267.166333 232.16466 
L 270.814137 233.773813 
L 274.461941 234.332043 
L 278.109745 234.507076 
L 281.757549 235.031387 
L 285.405352 237.296139 
L 289.053156 237.261233 
L 292.70096 237.060801 
L 296.348764 238.492062 
L 299.996568 239.281134 
L 303.644372 239.042528 
L 307.292176 240.543031 
L 310.93998 240.855744 
L 314.587783 241.803213 
L 318.235587 242.444301 
L 321.883391 242.749886 
L 325.531195 243.697516 
L 329.178999 244.356135 
L 332.826803 245.172361 
L 336.474607 245.820052 
L 340.122411 247.360212 
L 343.770215 247.068984 
L 347.418018 247.71891 
L 351.065822 249.306341 
L 354.713626 249.354356 
L 358.36143 249.655196 
L 362.009234 250.388095 
L 365.657038 251.454668 
L 369.304842 251.651447 
L 372.952646 253.252628 
L 376.600449 253.390493 
L 380.248253 253.57146 
L 383.896057 255.022505 
L 387.543861 254.816097 
L 391.191665 254.950273 
L 394.839469 256.046575 
L 398.487273 257.200739 
" clip-path="url(#pdbd8fee295)" style="fill: none; stroke: #ff00ff; stroke-opacity: 0.3; stroke-width: 0.5; stroke-linecap: square"/>
   </g>
   <g id="line2d_57">
    <path d="M 73.832727 184.513788 
L 77.480531 182.765656 
L 81.128335 180.995635 
L 84.776139 179.095767 
L 88.423943 177.956646 
L 92.071747 176.065391 
L 95.719551 174.458385 
L 99.367354 173.431435 
L 103.015158 171.43975 
L 106.662962 170.208245 
L 110.310766 168.949436 
L 113.95857 167.690131 
L 117.606374 166.085712 
L 121.254178 164.501288 
L 124.901982 163.348278 
L 128.549785 162.265715 
L 132.197589 160.809245 
L 135.845393 159.107917 
L 139.493197 157.758353 
L 143.141001 156.434811 
L 146.788805 155.416924 
L 150.436609 153.503352 
L 154.084413 152.256158 
L 157.732217 150.930227 
L 161.38002 149.784744 
L 165.027824 148.688108 
L 168.675628 147.489483 
L 172.323432 145.554934 
L 175.971236 144.071241 
L 179.61904 143.248579 
L 183.266844 142.007088 
L 186.914648 139.633783 
L 190.562451 139.299452 
L 194.210255 137.369544 
L 197.858059 135.863857 
L 201.505863 133.863872 
L 205.153667 132.489232 
L 208.801471 130.149489 
L 212.449275 129.564146 
L 216.097079 127.899831 
L 219.744883 126.598017 
L 223.392686 124.197974 
L 227.04049 123.51608 
L 230.688294 121.367118 
L 234.336098 120.069045 
L 237.983902 119.231894 
L 241.631706 117.014054 
L 245.27951 115.36342 
L 248.927314 113.741371 
L 252.575117 113.352467 
L 256.222921 110.825867 
L 259.870725 110.542207 
L 263.518529 107.614835 
L 267.166333 107.521113 
L 270.814137 105.146215 
L 274.461941 104.646062 
L 278.109745 102.383174 
L 281.757549 100.666802 
L 285.405352 98.689768 
L 289.053156 98.237181 
L 292.70096 96.215168 
L 296.348764 95.218257 
L 299.996568 93.419062 
L 303.644372 92.075455 
L 307.292176 91.548126 
L 310.93998 89.707969 
L 314.587783 87.316862 
L 318.235587 86.447986 
L 321.883391 83.868487 
L 325.531195 83.31502 
L 329.178999 82.265165 
L 332.826803 80.389057 
L 336.474607 78.80132 
L 340.122411 76.768361 
L 343.770215 76.595348 
L 347.418018 74.686637 
L 351.065822 72.53592 
L 354.713626 71.748944 
L 358.36143 69.93093 
L 362.009234 68.564926 
L 365.657038 66.539634 
L 369.304842 65.980902 
L 372.952646 63.735562 
L 376.600449 63.40877 
L 380.248253 61.9813 
L 383.896057 57.987309 
L 387.543861 57.92649 
L 391.191665 56.681847 
L 394.839469 54.730327 
L 398.487273 53.568 
" clip-path="url(#pdbd8fee295)" style="fill: none; stroke: #6495ed; stroke-width: 2; stroke-linecap: square"/>
   </g>
   <g id="line2d_58">
    <path d="M 73.832727 186.652116 
L 77.480531 188.143728 
L 81.128335 189.61644 
L 84.776139 191.113953 
L 88.423943 192.23407 
L 92.071747 193.605198 
L 95.719551 194.882876 
L 99.367354 195.889026 
L 103.015158 197.237217 
L 106.662962 198.237302 
L 110.310766 199.260576 
L 113.95857 200.299264 
L 117.606374 201.421619 
L 121.254178 202.521685 
L 124.901982 203.432743 
L 128.549785 204.299438 
L 132.197589 205.312472 
L 135.845393 206.369629 
L 139.493197 207.314205 
L 143.141001 208.222113 
L 146.788805 209.028332 
L 150.436609 210.130595 
L 154.084413 211.005689 
L 157.732217 211.857026 
L 161.38002 212.668315 
L 165.027824 213.425377 
L 168.675628 214.2435 
L 172.323432 215.27721 
L 175.971236 216.1247 
L 179.61904 216.802933 
L 183.266844 217.55145 
L 186.914648 218.728332 
L 190.562451 219.155468 
L 194.210255 220.102514 
L 197.858059 220.97825 
L 201.505863 221.927964 
L 205.153667 222.693977 
L 208.801471 223.741972 
L 212.449275 224.250465 
L 216.097079 225.116891 
L 219.744883 225.821004 
L 223.392686 226.83755 
L 227.04049 227.392813 
L 230.688294 228.312058 
L 234.336098 229.011136 
L 237.983902 229.57904 
L 241.631706 230.522556 
L 245.27951 231.291218 
L 248.927314 232.033976 
L 252.575117 232.482542 
L 256.222921 233.448299 
L 259.870725 233.865548 
L 263.518529 234.912683 
L 267.166333 235.254296 
L 270.814137 236.131782 
L 274.461941 236.598266 
L 278.109745 237.44415 
L 281.757549 238.210222 
L 285.405352 239.001662 
L 289.053156 239.416163 
L 292.70096 240.180919 
L 296.348764 240.74323 
L 299.996568 241.435302 
L 303.644372 242.034555 
L 307.292176 242.462469 
L 310.93998 243.154643 
L 314.587783 243.97437 
L 318.235587 244.462357 
L 321.883391 245.312738 
L 325.531195 245.711143 
L 329.178999 246.224085 
L 332.826803 246.910073 
L 336.474607 247.535942 
L 340.122411 248.238572 
L 343.770215 248.545962 
L 347.418018 249.225782 
L 351.065822 249.912079 
L 354.713626 250.347855 
L 358.36143 250.96416 
L 362.009234 251.529303 
L 365.657038 252.192841 
L 369.304842 252.561306 
L 372.952646 253.246894 
L 376.600449 253.576669 
L 380.248253 254.09059 
L 383.896057 255.059813 
L 387.543861 255.343943 
L 391.191665 255.827757 
L 394.839469 256.419051 
L 398.487273 256.869475 
" clip-path="url(#pdbd8fee295)" style="fill: none; stroke: #dc143c; stroke-width: 2; stroke-linecap: square"/>
   </g>
   <g id="line2d_59">
    <path d="M 73.832727 204.644703 
L 77.480531 197.698749 
L 81.128335 192.737353 
L 84.776139 189.760516 
L 88.423943 184.402208 
L 92.071747 182.020739 
L 95.719551 180.631548 
L 99.367354 179.043901 
L 103.015158 178.64699 
L 106.662962 177.456255 
L 110.310766 176.463976 
L 113.95857 174.876329 
L 117.606374 173.487138 
L 121.254178 173.487138 
L 124.901982 172.891771 
L 128.549785 172.891771 
L 132.197589 173.288682 
L 135.845393 173.487138 
L 139.493197 173.487138 
L 143.141001 173.88405 
L 146.788805 174.082506 
L 150.436609 173.685594 
L 154.084413 174.082506 
L 157.732217 173.88405 
L 161.38002 173.685594 
L 165.027824 173.288682 
L 168.675628 173.685594 
L 172.323432 173.090226 
L 175.971236 173.288682 
L 179.61904 173.487138 
L 183.266844 173.685594 
L 186.914648 173.88405 
L 190.562451 174.280961 
L 194.210255 174.280961 
L 197.858059 174.082506 
L 201.505863 173.685594 
L 205.153667 173.685594 
L 208.801471 173.88405 
L 212.449275 174.280961 
L 216.097079 174.876329 
L 219.744883 175.273241 
L 223.392686 175.273241 
L 227.04049 175.670152 
L 230.688294 175.471696 
L 234.336098 175.273241 
L 237.983902 175.868608 
L 241.631706 175.670152 
L 245.27951 175.471696 
L 248.927314 175.471696 
L 252.575117 175.670152 
L 256.222921 176.067064 
L 259.870725 175.868608 
L 263.518529 175.868608 
L 267.166333 176.067064 
L 270.814137 176.067064 
L 274.461941 176.067064 
L 278.109745 176.662431 
L 281.757549 176.662431 
L 285.405352 177.257799 
L 289.053156 177.456255 
L 292.70096 177.456255 
L 296.348764 177.257799 
L 299.996568 177.059343 
L 303.644372 177.059343 
L 307.292176 177.257799 
L 310.93998 177.257799 
L 314.587783 177.059343 
L 318.235587 177.059343 
L 321.883391 177.059343 
L 325.531195 177.059343 
L 329.178999 177.059343 
L 332.826803 177.257799 
L 336.474607 177.456255 
L 340.122411 177.456255 
L 343.770215 177.456255 
L 347.418018 177.456255 
L 351.065822 177.65471 
L 354.713626 177.65471 
L 358.36143 177.853166 
L 362.009234 178.051622 
L 365.657038 178.250078 
L 369.304842 178.051622 
L 372.952646 178.051622 
L 376.600449 178.051622 
L 380.248253 178.250078 
L 383.896057 178.250078 
L 387.543861 178.250078 
L 391.191665 178.250078 
L 394.839469 178.051622 
L 398.487273 178.051622 
" clip-path="url(#pdbd8fee295)" style="fill: none; stroke: #ffff00; stroke-width: 3; stroke-linecap: square"/>
   </g>
   <g id="patch_3">
    <path d="M 57.6 307.584 
L 57.6 41.472 
" style="fill: none; stroke: #ffffff; stroke-linejoin: miter; stroke-linecap: square"/>
   </g>
   <g id="patch_4">
    <path d="M 414.72 307.584 
L 414.72 41.472 
" style="fill: none; stroke: #ffffff; stroke-linejoin: miter; stroke-linecap: square"/>
   </g>
   <g id="patch_5">
    <path d="M 57.6 307.584 
L 414.72 307.584 
" style="fill: none; stroke: #ffffff; stroke-linejoin: miter; stroke-linecap: square"/>
   </g>
   <g id="patch_6">
    <path d="M 57.6 41.472 
L 414.72 41.472 
" style="fill: none; stroke: #ffffff; stroke-linejoin: miter; stroke-linecap: square"/>
   </g>
  </g>
 </g>
 <defs>
  <clipPath id="pdbd8fee295">
   <rect x="57.6" y="41.472" width="357.12" height="266.112"/>
  </clipPath>
 </defs>
</svg>
