<?xml version="1.0" encoding="utf-8" standalone="no"?>
<!DOCTYPE svg PUBLIC "-//W3C//DTD SVG 1.1//EN"
  "http://www.w3.org/Graphics/SVG/1.1/DTD/svg11.dtd">
<svg xmlns:xlink="http://www.w3.org/1999/xlink" width="460.8pt" height="345.6pt" viewBox="0 0 460.8 345.6" xmlns="http://www.w3.org/2000/svg" version="1.1">
 <metadata>
  <rdf:RDF xmlns:dc="http://purl.org/dc/elements/1.1/" xmlns:cc="http://creativecommons.org/ns#" xmlns:rdf="http://www.w3.org/1999/02/22-rdf-syntax-ns#">
   <cc:Work>
    <dc:type rdf:resource="http://purl.org/dc/dcmitype/StillImage"/>
    <dc:date>2023-07-12T17:55:37.634224</dc:date>
    <dc:format>image/svg+xml</dc:format>
    <dc:creator>
     <cc:Agent>
      <dc:title>Matplotlib v3.7.1, https://matplotlib.org/</dc:title>
     </cc:Agent>
    </dc:creator>
   </cc:Work>
  </rdf:RDF>
 </metadata>
 <defs>
  <style type="text/css">*{stroke-linejoin: round; stroke-linecap: butt}</style>
 </defs>
 <g id="figure_1">
  <g id="patch_1">
   <path d="M 0 345.6 
L 460.8 345.6 
L 460.8 0 
L 0 0 
z
" style="fill: #ffffff"/>
  </g>
  <g id="axes_1">
   <g id="patch_2">
    <path d="M 57.6 307.584 
L 414.72 307.584 
L 414.72 41.472 
L 57.6 41.472 
z
" style="fill: #e5e5e5"/>
   </g>
   <g id="matplotlib.axis_1">
    <g id="xtick_1">
     <g id="line2d_1">
      <path d="M 73.832727 307.584 
L 73.832727 41.472 
" clip-path="url(#pd555aee22d)" style="fill: none; stroke: #ffffff; stroke-width: 0.8; stroke-linecap: square"/>
     </g>
     <g id="line2d_2">
      <defs>
       <path id="m262285ae56" d="M 0 0 
L 0 3.5 
" style="stroke: #555555; stroke-width: 0.8"/>
      </defs>
      <g>
       <use xlink:href="#m262285ae56" x="73.832727" y="307.584" style="fill: #555555; stroke: #555555; stroke-width: 0.8"/>
      </g>
     </g>
     <g id="text_1">
      <!-- 0 -->
      <g style="fill: #555555" transform="translate(70.651477 322.182437) scale(0.1 -0.1)">
       <defs>
        <path id="DejaVuSans-30" d="M 2034 4250 
Q 1547 4250 1301 3770 
Q 1056 3291 1056 2328 
Q 1056 1369 1301 889 
Q 1547 409 2034 409 
Q 2525 409 2770 889 
Q 3016 1369 3016 2328 
Q 3016 3291 2770 3770 
Q 2525 4250 2034 4250 
z
M 2034 4750 
Q 2819 4750 3233 4129 
Q 3647 3509 3647 2328 
Q 3647 1150 3233 529 
Q 2819 -91 2034 -91 
Q 1250 -91 836 529 
Q 422 1150 422 2328 
Q 422 3509 836 4129 
Q 1250 4750 2034 4750 
z
" transform="scale(0.015625)"/>
       </defs>
       <use xlink:href="#DejaVuSans-30"/>
      </g>
     </g>
    </g>
    <g id="xtick_2">
     <g id="line2d_3">
      <path d="M 146.788805 307.584 
L 146.788805 41.472 
" clip-path="url(#pd555aee22d)" style="fill: none; stroke: #ffffff; stroke-width: 0.8; stroke-linecap: square"/>
     </g>
     <g id="line2d_4">
      <g>
       <use xlink:href="#m262285ae56" x="146.788805" y="307.584" style="fill: #555555; stroke: #555555; stroke-width: 0.8"/>
      </g>
     </g>
     <g id="text_2">
      <!-- 20 -->
      <g style="fill: #555555" transform="translate(140.426305 322.182437) scale(0.1 -0.1)">
       <defs>
        <path id="DejaVuSans-32" d="M 1228 531 
L 3431 531 
L 3431 0 
L 469 0 
L 469 531 
Q 828 903 1448 1529 
Q 2069 2156 2228 2338 
Q 2531 2678 2651 2914 
Q 2772 3150 2772 3378 
Q 2772 3750 2511 3984 
Q 2250 4219 1831 4219 
Q 1534 4219 1204 4116 
Q 875 4013 500 3803 
L 500 4441 
Q 881 4594 1212 4672 
Q 1544 4750 1819 4750 
Q 2544 4750 2975 4387 
Q 3406 4025 3406 3419 
Q 3406 3131 3298 2873 
Q 3191 2616 2906 2266 
Q 2828 2175 2409 1742 
Q 1991 1309 1228 531 
z
" transform="scale(0.015625)"/>
       </defs>
       <use xlink:href="#DejaVuSans-32"/>
       <use xlink:href="#DejaVuSans-30" x="63.623047"/>
      </g>
     </g>
    </g>
    <g id="xtick_3">
     <g id="line2d_5">
      <path d="M 219.744883 307.584 
L 219.744883 41.472 
" clip-path="url(#pd555aee22d)" style="fill: none; stroke: #ffffff; stroke-width: 0.8; stroke-linecap: square"/>
     </g>
     <g id="line2d_6">
      <g>
       <use xlink:href="#m262285ae56" x="219.744883" y="307.584" style="fill: #555555; stroke: #555555; stroke-width: 0.8"/>
      </g>
     </g>
     <g id="text_3">
      <!-- 40 -->
      <g style="fill: #555555" transform="translate(213.382383 322.182437) scale(0.1 -0.1)">
       <defs>
        <path id="DejaVuSans-34" d="M 2419 4116 
L 825 1625 
L 2419 1625 
L 2419 4116 
z
M 2253 4666 
L 3047 4666 
L 3047 1625 
L 3713 1625 
L 3713 1100 
L 3047 1100 
L 3047 0 
L 2419 0 
L 2419 1100 
L 313 1100 
L 313 1709 
L 2253 4666 
z
" transform="scale(0.015625)"/>
       </defs>
       <use xlink:href="#DejaVuSans-34"/>
       <use xlink:href="#DejaVuSans-30" x="63.623047"/>
      </g>
     </g>
    </g>
    <g id="xtick_4">
     <g id="line2d_7">
      <path d="M 292.70096 307.584 
L 292.70096 41.472 
" clip-path="url(#pd555aee22d)" style="fill: none; stroke: #ffffff; stroke-width: 0.8; stroke-linecap: square"/>
     </g>
     <g id="line2d_8">
      <g>
       <use xlink:href="#m262285ae56" x="292.70096" y="307.584" style="fill: #555555; stroke: #555555; stroke-width: 0.8"/>
      </g>
     </g>
     <g id="text_4">
      <!-- 60 -->
      <g style="fill: #555555" transform="translate(286.33846 322.182437) scale(0.1 -0.1)">
       <defs>
        <path id="DejaVuSans-36" d="M 2113 2584 
Q 1688 2584 1439 2293 
Q 1191 2003 1191 1497 
Q 1191 994 1439 701 
Q 1688 409 2113 409 
Q 2538 409 2786 701 
Q 3034 994 3034 1497 
Q 3034 2003 2786 2293 
Q 2538 2584 2113 2584 
z
M 3366 4563 
L 3366 3988 
Q 3128 4100 2886 4159 
Q 2644 4219 2406 4219 
Q 1781 4219 1451 3797 
Q 1122 3375 1075 2522 
Q 1259 2794 1537 2939 
Q 1816 3084 2150 3084 
Q 2853 3084 3261 2657 
Q 3669 2231 3669 1497 
Q 3669 778 3244 343 
Q 2819 -91 2113 -91 
Q 1303 -91 875 529 
Q 447 1150 447 2328 
Q 447 3434 972 4092 
Q 1497 4750 2381 4750 
Q 2619 4750 2861 4703 
Q 3103 4656 3366 4563 
z
" transform="scale(0.015625)"/>
       </defs>
       <use xlink:href="#DejaVuSans-36"/>
       <use xlink:href="#DejaVuSans-30" x="63.623047"/>
      </g>
     </g>
    </g>
    <g id="xtick_5">
     <g id="line2d_9">
      <path d="M 365.657038 307.584 
L 365.657038 41.472 
" clip-path="url(#pd555aee22d)" style="fill: none; stroke: #ffffff; stroke-width: 0.8; stroke-linecap: square"/>
     </g>
     <g id="line2d_10">
      <g>
       <use xlink:href="#m262285ae56" x="365.657038" y="307.584" style="fill: #555555; stroke: #555555; stroke-width: 0.8"/>
      </g>
     </g>
     <g id="text_5">
      <!-- 80 -->
      <g style="fill: #555555" transform="translate(359.294538 322.182437) scale(0.1 -0.1)">
       <defs>
        <path id="DejaVuSans-38" d="M 2034 2216 
Q 1584 2216 1326 1975 
Q 1069 1734 1069 1313 
Q 1069 891 1326 650 
Q 1584 409 2034 409 
Q 2484 409 2743 651 
Q 3003 894 3003 1313 
Q 3003 1734 2745 1975 
Q 2488 2216 2034 2216 
z
M 1403 2484 
Q 997 2584 770 2862 
Q 544 3141 544 3541 
Q 544 4100 942 4425 
Q 1341 4750 2034 4750 
Q 2731 4750 3128 4425 
Q 3525 4100 3525 3541 
Q 3525 3141 3298 2862 
Q 3072 2584 2669 2484 
Q 3125 2378 3379 2068 
Q 3634 1759 3634 1313 
Q 3634 634 3220 271 
Q 2806 -91 2034 -91 
Q 1263 -91 848 271 
Q 434 634 434 1313 
Q 434 1759 690 2068 
Q 947 2378 1403 2484 
z
M 1172 3481 
Q 1172 3119 1398 2916 
Q 1625 2713 2034 2713 
Q 2441 2713 2670 2916 
Q 2900 3119 2900 3481 
Q 2900 3844 2670 4047 
Q 2441 4250 2034 4250 
Q 1625 4250 1398 4047 
Q 1172 3844 1172 3481 
z
" transform="scale(0.015625)"/>
       </defs>
       <use xlink:href="#DejaVuSans-38"/>
       <use xlink:href="#DejaVuSans-30" x="63.623047"/>
      </g>
     </g>
    </g>
    <g id="text_6">
     <!-- epochs -->
     <g style="fill: #555555" transform="translate(214.760625 337.38025) scale(0.12 -0.12)">
      <defs>
       <path id="DejaVuSans-65" d="M 3597 1894 
L 3597 1613 
L 953 1613 
Q 991 1019 1311 708 
Q 1631 397 2203 397 
Q 2534 397 2845 478 
Q 3156 559 3463 722 
L 3463 178 
Q 3153 47 2828 -22 
Q 2503 -91 2169 -91 
Q 1331 -91 842 396 
Q 353 884 353 1716 
Q 353 2575 817 3079 
Q 1281 3584 2069 3584 
Q 2775 3584 3186 3129 
Q 3597 2675 3597 1894 
z
M 3022 2063 
Q 3016 2534 2758 2815 
Q 2500 3097 2075 3097 
Q 1594 3097 1305 2825 
Q 1016 2553 972 2059 
L 3022 2063 
z
" transform="scale(0.015625)"/>
       <path id="DejaVuSans-70" d="M 1159 525 
L 1159 -1331 
L 581 -1331 
L 581 3500 
L 1159 3500 
L 1159 2969 
Q 1341 3281 1617 3432 
Q 1894 3584 2278 3584 
Q 2916 3584 3314 3078 
Q 3713 2572 3713 1747 
Q 3713 922 3314 415 
Q 2916 -91 2278 -91 
Q 1894 -91 1617 61 
Q 1341 213 1159 525 
z
M 3116 1747 
Q 3116 2381 2855 2742 
Q 2594 3103 2138 3103 
Q 1681 3103 1420 2742 
Q 1159 2381 1159 1747 
Q 1159 1113 1420 752 
Q 1681 391 2138 391 
Q 2594 391 2855 752 
Q 3116 1113 3116 1747 
z
" transform="scale(0.015625)"/>
       <path id="DejaVuSans-6f" d="M 1959 3097 
Q 1497 3097 1228 2736 
Q 959 2375 959 1747 
Q 959 1119 1226 758 
Q 1494 397 1959 397 
Q 2419 397 2687 759 
Q 2956 1122 2956 1747 
Q 2956 2369 2687 2733 
Q 2419 3097 1959 3097 
z
M 1959 3584 
Q 2709 3584 3137 3096 
Q 3566 2609 3566 1747 
Q 3566 888 3137 398 
Q 2709 -91 1959 -91 
Q 1206 -91 779 398 
Q 353 888 353 1747 
Q 353 2609 779 3096 
Q 1206 3584 1959 3584 
z
" transform="scale(0.015625)"/>
       <path id="DejaVuSans-63" d="M 3122 3366 
L 3122 2828 
Q 2878 2963 2633 3030 
Q 2388 3097 2138 3097 
Q 1578 3097 1268 2742 
Q 959 2388 959 1747 
Q 959 1106 1268 751 
Q 1578 397 2138 397 
Q 2388 397 2633 464 
Q 2878 531 3122 666 
L 3122 134 
Q 2881 22 2623 -34 
Q 2366 -91 2075 -91 
Q 1284 -91 818 406 
Q 353 903 353 1747 
Q 353 2603 823 3093 
Q 1294 3584 2113 3584 
Q 2378 3584 2631 3529 
Q 2884 3475 3122 3366 
z
" transform="scale(0.015625)"/>
       <path id="DejaVuSans-68" d="M 3513 2113 
L 3513 0 
L 2938 0 
L 2938 2094 
Q 2938 2591 2744 2837 
Q 2550 3084 2163 3084 
Q 1697 3084 1428 2787 
Q 1159 2491 1159 1978 
L 1159 0 
L 581 0 
L 581 4863 
L 1159 4863 
L 1159 2956 
Q 1366 3272 1645 3428 
Q 1925 3584 2291 3584 
Q 2894 3584 3203 3211 
Q 3513 2838 3513 2113 
z
" transform="scale(0.015625)"/>
       <path id="DejaVuSans-73" d="M 2834 3397 
L 2834 2853 
Q 2591 2978 2328 3040 
Q 2066 3103 1784 3103 
Q 1356 3103 1142 2972 
Q 928 2841 928 2578 
Q 928 2378 1081 2264 
Q 1234 2150 1697 2047 
L 1894 2003 
Q 2506 1872 2764 1633 
Q 3022 1394 3022 966 
Q 3022 478 2636 193 
Q 2250 -91 1575 -91 
Q 1294 -91 989 -36 
Q 684 19 347 128 
L 347 722 
Q 666 556 975 473 
Q 1284 391 1588 391 
Q 1994 391 2212 530 
Q 2431 669 2431 922 
Q 2431 1156 2273 1281 
Q 2116 1406 1581 1522 
L 1381 1569 
Q 847 1681 609 1914 
Q 372 2147 372 2553 
Q 372 3047 722 3315 
Q 1072 3584 1716 3584 
Q 2034 3584 2315 3537 
Q 2597 3491 2834 3397 
z
" transform="scale(0.015625)"/>
      </defs>
      <use xlink:href="#DejaVuSans-65"/>
      <use xlink:href="#DejaVuSans-70" x="61.523438"/>
      <use xlink:href="#DejaVuSans-6f" x="125"/>
      <use xlink:href="#DejaVuSans-63" x="186.181641"/>
      <use xlink:href="#DejaVuSans-68" x="241.162109"/>
      <use xlink:href="#DejaVuSans-73" x="304.541016"/>
     </g>
    </g>
   </g>
   <g id="matplotlib.axis_2">
    <g id="ytick_1">
     <g id="line2d_11">
      <path d="M 57.6 280.239116 
L 414.72 280.239116 
" clip-path="url(#pd555aee22d)" style="fill: none; stroke: #ffffff; stroke-width: 0.8; stroke-linecap: square"/>
     </g>
     <g id="line2d_12">
      <defs>
       <path id="m09de3d4ffa" d="M 0 0 
L -3.5 0 
" style="stroke: #555555; stroke-width: 0.8"/>
      </defs>
      <g>
       <use xlink:href="#m09de3d4ffa" x="57.6" y="280.239116" style="fill: #555555; stroke: #555555; stroke-width: 0.8"/>
      </g>
     </g>
     <g id="text_7">
      <!-- 0.4 -->
      <g style="fill: #555555" transform="translate(34.696875 284.038335) scale(0.1 -0.1)">
       <defs>
        <path id="DejaVuSans-2e" d="M 684 794 
L 1344 794 
L 1344 0 
L 684 0 
L 684 794 
z
" transform="scale(0.015625)"/>
       </defs>
       <use xlink:href="#DejaVuSans-30"/>
       <use xlink:href="#DejaVuSans-2e" x="63.623047"/>
       <use xlink:href="#DejaVuSans-34" x="95.410156"/>
      </g>
     </g>
    </g>
    <g id="ytick_2">
     <g id="line2d_13">
      <path d="M 57.6 231.76058 
L 414.72 231.76058 
" clip-path="url(#pd555aee22d)" style="fill: none; stroke: #ffffff; stroke-width: 0.8; stroke-linecap: square"/>
     </g>
     <g id="line2d_14">
      <g>
       <use xlink:href="#m09de3d4ffa" x="57.6" y="231.76058" style="fill: #555555; stroke: #555555; stroke-width: 0.8"/>
      </g>
     </g>
     <g id="text_8">
      <!-- 0.6 -->
      <g style="fill: #555555" transform="translate(34.696875 235.559799) scale(0.1 -0.1)">
       <use xlink:href="#DejaVuSans-30"/>
       <use xlink:href="#DejaVuSans-2e" x="63.623047"/>
       <use xlink:href="#DejaVuSans-36" x="95.410156"/>
      </g>
     </g>
    </g>
    <g id="ytick_3">
     <g id="line2d_15">
      <path d="M 57.6 183.282045 
L 414.72 183.282045 
" clip-path="url(#pd555aee22d)" style="fill: none; stroke: #ffffff; stroke-width: 0.8; stroke-linecap: square"/>
     </g>
     <g id="line2d_16">
      <g>
       <use xlink:href="#m09de3d4ffa" x="57.6" y="183.282045" style="fill: #555555; stroke: #555555; stroke-width: 0.8"/>
      </g>
     </g>
     <g id="text_9">
      <!-- 0.8 -->
      <g style="fill: #555555" transform="translate(34.696875 187.081263) scale(0.1 -0.1)">
       <use xlink:href="#DejaVuSans-30"/>
       <use xlink:href="#DejaVuSans-2e" x="63.623047"/>
       <use xlink:href="#DejaVuSans-38" x="95.410156"/>
      </g>
     </g>
    </g>
    <g id="ytick_4">
     <g id="line2d_17">
      <path d="M 57.6 134.803509 
L 414.72 134.803509 
" clip-path="url(#pd555aee22d)" style="fill: none; stroke: #ffffff; stroke-width: 0.8; stroke-linecap: square"/>
     </g>
     <g id="line2d_18">
      <g>
       <use xlink:href="#m09de3d4ffa" x="57.6" y="134.803509" style="fill: #555555; stroke: #555555; stroke-width: 0.8"/>
      </g>
     </g>
     <g id="text_10">
      <!-- 1.0 -->
      <g style="fill: #555555" transform="translate(34.696875 138.602728) scale(0.1 -0.1)">
       <defs>
        <path id="DejaVuSans-31" d="M 794 531 
L 1825 531 
L 1825 4091 
L 703 3866 
L 703 4441 
L 1819 4666 
L 2450 4666 
L 2450 531 
L 3481 531 
L 3481 0 
L 794 0 
L 794 531 
z
" transform="scale(0.015625)"/>
       </defs>
       <use xlink:href="#DejaVuSans-31"/>
       <use xlink:href="#DejaVuSans-2e" x="63.623047"/>
       <use xlink:href="#DejaVuSans-30" x="95.410156"/>
      </g>
     </g>
    </g>
    <g id="ytick_5">
     <g id="line2d_19">
      <path d="M 57.6 86.324973 
L 414.72 86.324973 
" clip-path="url(#pd555aee22d)" style="fill: none; stroke: #ffffff; stroke-width: 0.8; stroke-linecap: square"/>
     </g>
     <g id="line2d_20">
      <g>
       <use xlink:href="#m09de3d4ffa" x="57.6" y="86.324973" style="fill: #555555; stroke: #555555; stroke-width: 0.8"/>
      </g>
     </g>
     <g id="text_11">
      <!-- 1.2 -->
      <g style="fill: #555555" transform="translate(34.696875 90.124192) scale(0.1 -0.1)">
       <use xlink:href="#DejaVuSans-31"/>
       <use xlink:href="#DejaVuSans-2e" x="63.623047"/>
       <use xlink:href="#DejaVuSans-32" x="95.410156"/>
      </g>
     </g>
    </g>
    <g id="text_12">
     <!-- values -->
     <g style="fill: #555555" transform="translate(28.20125 194.043) rotate(-90) scale(0.12 -0.12)">
      <defs>
       <path id="DejaVuSans-76" d="M 191 3500 
L 800 3500 
L 1894 563 
L 2988 3500 
L 3597 3500 
L 2284 0 
L 1503 0 
L 191 3500 
z
" transform="scale(0.015625)"/>
       <path id="DejaVuSans-61" d="M 2194 1759 
Q 1497 1759 1228 1600 
Q 959 1441 959 1056 
Q 959 750 1161 570 
Q 1363 391 1709 391 
Q 2188 391 2477 730 
Q 2766 1069 2766 1631 
L 2766 1759 
L 2194 1759 
z
M 3341 1997 
L 3341 0 
L 2766 0 
L 2766 531 
Q 2569 213 2275 61 
Q 1981 -91 1556 -91 
Q 1019 -91 701 211 
Q 384 513 384 1019 
Q 384 1609 779 1909 
Q 1175 2209 1959 2209 
L 2766 2209 
L 2766 2266 
Q 2766 2663 2505 2880 
Q 2244 3097 1772 3097 
Q 1472 3097 1187 3025 
Q 903 2953 641 2809 
L 641 3341 
Q 956 3463 1253 3523 
Q 1550 3584 1831 3584 
Q 2591 3584 2966 3190 
Q 3341 2797 3341 1997 
z
" transform="scale(0.015625)"/>
       <path id="DejaVuSans-6c" d="M 603 4863 
L 1178 4863 
L 1178 0 
L 603 0 
L 603 4863 
z
" transform="scale(0.015625)"/>
       <path id="DejaVuSans-75" d="M 544 1381 
L 544 3500 
L 1119 3500 
L 1119 1403 
Q 1119 906 1312 657 
Q 1506 409 1894 409 
Q 2359 409 2629 706 
Q 2900 1003 2900 1516 
L 2900 3500 
L 3475 3500 
L 3475 0 
L 2900 0 
L 2900 538 
Q 2691 219 2414 64 
Q 2138 -91 1772 -91 
Q 1169 -91 856 284 
Q 544 659 544 1381 
z
M 1991 3584 
L 1991 3584 
z
" transform="scale(0.015625)"/>
      </defs>
      <use xlink:href="#DejaVuSans-76"/>
      <use xlink:href="#DejaVuSans-61" x="59.179688"/>
      <use xlink:href="#DejaVuSans-6c" x="120.458984"/>
      <use xlink:href="#DejaVuSans-75" x="148.242188"/>
      <use xlink:href="#DejaVuSans-65" x="211.621094"/>
      <use xlink:href="#DejaVuSans-73" x="273.144531"/>
     </g>
    </g>
   </g>
   <g id="PolyCollection_1">
    <defs>
     <path id="m480707727e" d="M 73.832727 -141.345486 
L 73.832727 -140.885906 
L 77.480531 -138.387363 
L 81.128335 -136.412319 
L 84.776139 -134.330358 
L 88.423943 -132.466252 
L 92.071747 -130.620222 
L 95.719551 -128.705662 
L 99.367354 -127.142682 
L 103.015158 -125.574971 
L 106.662962 -124.052572 
L 110.310766 -122.801407 
L 113.95857 -121.238117 
L 117.606374 -119.956091 
L 121.254178 -118.375992 
L 124.901982 -117.333558 
L 128.549785 -116.268459 
L 132.197589 -114.729809 
L 135.845393 -113.642181 
L 139.493197 -112.540436 
L 143.141001 -111.568116 
L 146.788805 -110.358903 
L 150.436609 -109.213994 
L 154.084413 -108.277773 
L 157.732217 -107.181634 
L 161.38002 -106.224284 
L 165.027824 -105.349561 
L 168.675628 -104.579913 
L 172.323432 -103.219098 
L 175.971236 -102.580711 
L 179.61904 -101.339189 
L 183.266844 -100.643534 
L 186.914648 -99.397863 
L 190.562451 -98.669075 
L 194.210255 -97.659003 
L 197.858059 -96.759983 
L 201.505863 -95.88742 
L 205.153667 -95.013892 
L 208.801471 -93.829996 
L 212.449275 -93.233153 
L 216.097079 -92.155031 
L 219.744883 -91.318581 
L 223.392686 -90.189403 
L 227.04049 -89.209031 
L 230.688294 -88.607135 
L 234.336098 -87.775765 
L 237.983902 -87.049824 
L 241.631706 -85.937663 
L 245.27951 -84.945695 
L 248.927314 -84.258125 
L 252.575117 -83.366883 
L 256.222921 -82.605494 
L 259.870725 -81.723409 
L 263.518529 -80.772602 
L 267.166333 -80.029326 
L 270.814137 -79.237736 
L 274.461941 -78.39892 
L 278.109745 -77.7347 
L 281.757549 -77.159644 
L 285.405352 -75.958669 
L 289.053156 -75.519485 
L 292.70096 -74.623467 
L 296.348764 -74.116936 
L 299.996568 -73.13972 
L 303.644372 -72.170652 
L 307.292176 -71.519419 
L 310.93998 -70.701676 
L 314.587783 -70.123158 
L 318.235587 -69.370724 
L 321.883391 -68.484011 
L 325.531195 -67.722842 
L 329.178999 -67.413162 
L 332.826803 -66.345793 
L 336.474607 -66.063112 
L 340.122411 -65.348793 
L 343.770215 -64.527423 
L 347.418018 -63.666968 
L 351.065822 -63.197471 
L 354.713626 -62.40361 
L 358.36143 -62.251856 
L 362.009234 -61.331702 
L 365.657038 -60.658507 
L 369.304842 -59.982266 
L 372.952646 -59.204128 
L 376.600449 -58.497483 
L 380.248253 -57.848735 
L 383.896057 -57.556772 
L 387.543861 -57.143919 
L 391.191665 -56.357895 
L 394.839469 -55.311077 
L 398.487273 -55.271922 
L 398.487273 -59.288838 
L 398.487273 -59.288838 
L 394.839469 -59.65562 
L 391.191665 -60.432612 
L 387.543861 -61.279886 
L 383.896057 -61.561123 
L 380.248253 -62.374421 
L 376.600449 -62.624486 
L 372.952646 -63.286054 
L 369.304842 -64.170563 
L 365.657038 -64.210121 
L 362.009234 -65.359696 
L 358.36143 -65.919074 
L 354.713626 -66.474164 
L 351.065822 -67.080814 
L 347.418018 -68.199504 
L 343.770215 -68.4037 
L 340.122411 -69.461724 
L 336.474607 -70.112033 
L 332.826803 -70.579101 
L 329.178999 -71.094466 
L 325.531195 -72.327494 
L 321.883391 -72.694513 
L 318.235587 -73.24621 
L 314.587783 -73.926787 
L 310.93998 -74.784361 
L 307.292176 -75.662742 
L 303.644372 -76.524449 
L 299.996568 -77.32059 
L 296.348764 -77.839439 
L 292.70096 -78.665431 
L 289.053156 -79.342441 
L 285.405352 -79.820968 
L 281.757549 -81.007301 
L 278.109745 -81.753532 
L 274.461941 -82.133983 
L 270.814137 -82.851869 
L 267.166333 -83.860073 
L 263.518529 -84.645191 
L 259.870725 -85.666137 
L 256.222921 -86.568159 
L 252.575117 -87.084077 
L 248.927314 -88.074553 
L 245.27951 -88.998942 
L 241.631706 -89.730169 
L 237.983902 -90.670612 
L 234.336098 -91.625668 
L 230.688294 -92.347958 
L 227.04049 -93.288031 
L 223.392686 -93.984831 
L 219.744883 -95.08818 
L 216.097079 -95.908113 
L 212.449275 -96.639702 
L 208.801471 -97.844235 
L 205.153667 -98.558308 
L 201.505863 -99.8253 
L 197.858059 -100.599604 
L 194.210255 -101.589117 
L 190.562451 -102.322062 
L 186.914648 -103.443231 
L 183.266844 -104.567607 
L 179.61904 -105.116118 
L 175.971236 -106.18596 
L 172.323432 -107.615404 
L 168.675628 -107.704231 
L 165.027824 -109.330307 
L 161.38002 -110.257458 
L 157.732217 -110.991102 
L 154.084413 -112.097835 
L 150.436609 -113.11419 
L 146.788805 -114.256308 
L 143.141001 -115.296356 
L 139.493197 -116.361725 
L 135.845393 -117.727236 
L 132.197589 -118.712496 
L 128.549785 -119.84144 
L 124.901982 -121.107026 
L 121.254178 -122.405836 
L 117.606374 -123.701531 
L 113.95857 -124.624995 
L 110.310766 -126.179672 
L 106.662962 -127.638101 
L 103.015158 -128.8633 
L 99.367354 -130.533105 
L 95.719551 -131.853491 
L 92.071747 -133.216696 
L 88.423943 -134.835454 
L 84.776139 -136.43133 
L 81.128335 -138.039026 
L 77.480531 -139.611766 
L 73.832727 -141.345486 
z
" style="stroke: #e24a33; stroke-opacity: 0.2"/>
    </defs>
    <g clip-path="url(#pd555aee22d)">
     <use xlink:href="#m480707727e" x="0" y="345.6" style="fill: #e24a33; fill-opacity: 0.2; stroke: #e24a33; stroke-opacity: 0.2"/>
    </g>
   </g>
   <g id="PolyCollection_2">
    <defs>
     <path id="m7f665fe464" d="M 73.832727 -140.74273 
L 73.832727 -137.76423 
L 77.480531 -140.656232 
L 81.128335 -142.616167 
L 84.776139 -144.931329 
L 88.423943 -147.051693 
L 92.071747 -149.037576 
L 95.719551 -150.360107 
L 99.367354 -151.681829 
L 103.015158 -153.77006 
L 106.662962 -154.89262 
L 110.310766 -156.660141 
L 113.95857 -158.642398 
L 117.606374 -159.216753 
L 121.254178 -160.713538 
L 124.901982 -162.253969 
L 128.549785 -163.720659 
L 132.197589 -164.919705 
L 135.845393 -165.877315 
L 139.493197 -167.962802 
L 143.141001 -169.05466 
L 146.788805 -170.335653 
L 150.436609 -171.85684 
L 154.084413 -173.094346 
L 157.732217 -174.620778 
L 161.38002 -175.211517 
L 165.027824 -176.406618 
L 168.675628 -179.445814 
L 172.323432 -178.326967 
L 175.971236 -180.999161 
L 179.61904 -182.649294 
L 183.266844 -182.91925 
L 186.914648 -184.689791 
L 190.562451 -186.673579 
L 194.210255 -187.624847 
L 197.858059 -189.406266 
L 201.505863 -190.359296 
L 205.153667 -192.873404 
L 208.801471 -193.946971 
L 212.449275 -196.242282 
L 216.097079 -197.299509 
L 219.744883 -198.54996 
L 223.392686 -200.782914 
L 227.04049 -201.825679 
L 230.688294 -203.448939 
L 234.336098 -204.576223 
L 237.983902 -206.441989 
L 241.631706 -208.411807 
L 245.27951 -209.505254 
L 248.927314 -211.449846 
L 252.575117 -213.439645 
L 256.222921 -213.91226 
L 259.870725 -215.767955 
L 263.518529 -218.235858 
L 267.166333 -219.758129 
L 270.814137 -221.915811 
L 274.461941 -223.288576 
L 278.109745 -223.435625 
L 281.757549 -224.85838 
L 285.405352 -228.04919 
L 289.053156 -228.557114 
L 292.70096 -229.716949 
L 296.348764 -231.763094 
L 299.996568 -232.590111 
L 303.644372 -234.266105 
L 307.292176 -236.395036 
L 310.93998 -238.752645 
L 314.587783 -240.888742 
L 318.235587 -242.135784 
L 321.883391 -243.027209 
L 325.531195 -243.353901 
L 329.178999 -247.030617 
L 332.826803 -247.90979 
L 336.474607 -248.564214 
L 340.122411 -250.094402 
L 343.770215 -253.200202 
L 347.418018 -252.901047 
L 351.065822 -256.352378 
L 354.713626 -257.791459 
L 358.36143 -258.762982 
L 362.009234 -259.953822 
L 365.657038 -263.889528 
L 369.304842 -262.607754 
L 372.952646 -265.302602 
L 376.600449 -267.135037 
L 380.248253 -266.76714 
L 383.896057 -269.522929 
L 387.543861 -269.385444 
L 391.191665 -272.056078 
L 394.839469 -274.54285 
L 398.487273 -275.112091 
L 398.487273 -290.803365 
L 398.487273 -290.803365 
L 394.839469 -292.032 
L 391.191665 -288.042866 
L 387.543861 -285.231714 
L 383.896057 -284.474335 
L 380.248253 -284.399351 
L 376.600449 -282.641756 
L 372.952646 -280.392216 
L 369.304842 -277.927982 
L 365.657038 -276.110169 
L 362.009234 -274.270164 
L 358.36143 -271.102123 
L 354.713626 -271.959191 
L 351.065822 -269.553095 
L 347.418018 -268.779448 
L 343.770215 -266.175303 
L 340.122411 -263.638657 
L 336.474607 -261.822751 
L 332.826803 -261.927122 
L 329.178999 -258.578427 
L 325.531195 -258.534246 
L 321.883391 -256.640004 
L 318.235587 -254.234226 
L 314.587783 -252.246276 
L 310.93998 -251.067717 
L 307.292176 -249.11866 
L 303.644372 -247.66126 
L 299.996568 -244.932199 
L 296.348764 -242.29179 
L 292.70096 -241.573709 
L 289.053156 -239.233986 
L 285.405352 -238.898105 
L 281.757549 -235.379679 
L 278.109745 -234.554511 
L 274.461941 -233.274009 
L 270.814137 -231.41395 
L 267.166333 -229.693572 
L 263.518529 -228.162229 
L 259.870725 -225.843917 
L 256.222921 -223.989984 
L 252.575117 -222.512415 
L 248.927314 -220.464623 
L 245.27951 -219.314526 
L 241.631706 -217.075388 
L 237.983902 -214.488782 
L 234.336098 -213.234372 
L 230.688294 -211.561469 
L 227.04049 -210.877196 
L 223.392686 -208.730249 
L 219.744883 -206.257477 
L 216.097079 -204.807488 
L 212.449275 -202.451728 
L 208.801471 -201.793894 
L 205.153667 -199.274774 
L 201.505863 -197.718565 
L 197.858059 -196.180446 
L 194.210255 -194.566432 
L 190.562451 -192.754412 
L 186.914648 -191.778136 
L 183.266844 -189.226421 
L 179.61904 -188.523048 
L 175.971236 -186.151092 
L 172.323432 -185.481931 
L 168.675628 -183.003582 
L 165.027824 -182.061561 
L 161.38002 -180.829198 
L 157.732217 -179.476717 
L 154.084413 -177.867544 
L 150.436609 -176.644544 
L 146.788805 -174.906164 
L 143.141001 -173.068557 
L 139.493197 -171.868355 
L 135.845393 -170.47951 
L 132.197589 -169.139353 
L 128.549785 -166.690289 
L 124.901982 -165.484091 
L 121.254178 -164.352386 
L 117.606374 -162.14681 
L 113.95857 -160.557892 
L 110.310766 -158.465688 
L 106.662962 -157.059187 
L 103.015158 -155.287707 
L 99.367354 -153.476208 
L 95.719551 -151.577993 
L 92.071747 -149.23145 
L 88.423943 -147.37366 
L 84.776139 -145.733525 
L 81.128335 -143.940634 
L 77.480531 -142.468295 
L 73.832727 -140.74273 
z
" style="stroke: #348abd; stroke-opacity: 0.2"/>
    </defs>
    <g clip-path="url(#pd555aee22d)">
     <use xlink:href="#m7f665fe464" x="0" y="345.6" style="fill: #348abd; fill-opacity: 0.2; stroke: #348abd; stroke-opacity: 0.2"/>
    </g>
   </g>
   <g id="PolyCollection_3">
    <defs>
     <path id="m95cb913d5b" d="M 73.832727 -129.58501 
L 73.832727 -50.112 
L 77.480531 -53.340591 
L 81.128335 -57.562595 
L 84.776139 -63.52307 
L 88.423943 -70.973665 
L 92.071747 -80.659438 
L 95.719551 -89.848505 
L 99.367354 -97.050746 
L 103.015158 -99.782631 
L 106.662962 -104.252988 
L 110.310766 -107.978285 
L 113.95857 -108.474991 
L 117.606374 -108.971698 
L 121.254178 -111.703582 
L 124.901982 -115.180527 
L 128.549785 -116.173939 
L 132.197589 -117.912411 
L 135.845393 -119.40253 
L 139.493197 -119.899236 
L 143.141001 -120.892649 
L 146.788805 -122.134415 
L 150.436609 -123.127827 
L 154.084413 -123.376181 
L 157.732217 -124.12124 
L 161.38002 -124.12124 
L 165.027824 -126.108065 
L 168.675628 -127.349831 
L 172.323432 -127.349831 
L 175.971236 -127.598184 
L 179.61904 -128.343244 
L 183.266844 -129.336656 
L 186.914648 -130.081716 
L 190.562451 -130.578422 
L 194.210255 -131.075128 
L 197.858059 -131.323482 
L 201.505863 -131.571835 
L 205.153667 -131.571835 
L 208.801471 -131.571835 
L 212.449275 -131.571835 
L 216.097079 -131.820188 
L 219.744883 -132.068541 
L 223.392686 -132.068541 
L 227.04049 -132.068541 
L 230.688294 -132.316894 
L 234.336098 -132.813601 
L 237.983902 -133.310307 
L 241.631706 -133.807013 
L 245.27951 -133.55866 
L 248.927314 -134.055366 
L 252.575117 -134.055366 
L 256.222921 -134.552073 
L 259.870725 -134.552073 
L 263.518529 -134.552073 
L 267.166333 -134.800426 
L 270.814137 -135.048779 
L 274.461941 -135.297132 
L 278.109745 -135.545485 
L 281.757549 -135.545485 
L 285.405352 -135.545485 
L 289.053156 -135.793838 
L 292.70096 -135.793838 
L 296.348764 -136.290545 
L 299.996568 -136.538898 
L 303.644372 -136.787251 
L 307.292176 -136.538898 
L 310.93998 -136.290545 
L 314.587783 -136.538898 
L 318.235587 -136.538898 
L 321.883391 -136.538898 
L 325.531195 -136.787251 
L 329.178999 -136.787251 
L 332.826803 -136.787251 
L 336.474607 -137.283957 
L 340.122411 -137.53231 
L 343.770215 -137.53231 
L 347.418018 -137.53231 
L 351.065822 -137.53231 
L 354.713626 -137.283957 
L 358.36143 -137.53231 
L 362.009234 -137.283957 
L 365.657038 -137.283957 
L 369.304842 -137.53231 
L 372.952646 -137.53231 
L 376.600449 -137.53231 
L 380.248253 -137.780664 
L 383.896057 -137.780664 
L 387.543861 -137.780664 
L 391.191665 -137.780664 
L 394.839469 -137.780664 
L 398.487273 -137.780664 
L 398.487273 -152.185147 
L 398.487273 -152.185147 
L 394.839469 -152.185147 
L 391.191665 -152.4335 
L 387.543861 -152.185147 
L 383.896057 -152.185147 
L 380.248253 -152.4335 
L 376.600449 -152.4335 
L 372.952646 -152.4335 
L 369.304842 -152.4335 
L 365.657038 -152.4335 
L 362.009234 -152.4335 
L 358.36143 -152.4335 
L 354.713626 -152.4335 
L 351.065822 -152.4335 
L 347.418018 -152.681853 
L 343.770215 -152.681853 
L 340.122411 -152.681853 
L 336.474607 -152.930206 
L 332.826803 -152.930206 
L 329.178999 -152.930206 
L 325.531195 -152.930206 
L 321.883391 -152.930206 
L 318.235587 -152.930206 
L 314.587783 -152.930206 
L 310.93998 -153.178559 
L 307.292176 -153.426912 
L 303.644372 -153.178559 
L 299.996568 -152.930206 
L 296.348764 -152.930206 
L 292.70096 -152.930206 
L 289.053156 -152.930206 
L 285.405352 -152.930206 
L 281.757549 -152.930206 
L 278.109745 -153.675266 
L 274.461941 -153.675266 
L 270.814137 -153.675266 
L 267.166333 -153.675266 
L 263.518529 -153.675266 
L 259.870725 -153.923619 
L 256.222921 -154.171972 
L 252.575117 -154.420325 
L 248.927314 -154.668678 
L 245.27951 -155.165384 
L 241.631706 -155.662091 
L 237.983902 -156.158797 
L 234.336098 -156.40715 
L 230.688294 -156.903857 
L 227.04049 -156.655503 
L 223.392686 -157.15221 
L 219.744883 -157.15221 
L 216.097079 -157.648916 
L 212.449275 -157.648916 
L 208.801471 -158.145622 
L 205.153667 -158.145622 
L 201.505863 -158.393975 
L 197.858059 -158.642329 
L 194.210255 -159.139035 
L 190.562451 -159.387388 
L 186.914648 -159.139035 
L 183.266844 -158.642329 
L 179.61904 -158.642329 
L 175.971236 -157.897269 
L 172.323432 -157.400563 
L 168.675628 -157.897269 
L 165.027824 -158.145622 
L 161.38002 -158.145622 
L 157.732217 -158.145622 
L 154.084413 -157.897269 
L 150.436609 -158.145622 
L 146.788805 -158.642329 
L 143.141001 -159.139035 
L 139.493197 -160.132448 
L 135.845393 -160.629154 
L 132.197589 -161.374213 
L 128.549785 -161.622566 
L 124.901982 -162.615979 
L 121.254178 -163.361039 
L 117.606374 -163.609392 
L 113.95857 -162.864332 
L 110.310766 -163.112685 
L 106.662962 -162.367626 
L 103.015158 -161.87092 
L 99.367354 -162.119273 
L 95.719551 -161.12586 
L 92.071747 -158.890682 
L 88.423943 -157.15221 
L 84.776139 -153.675266 
L 81.128335 -148.459849 
L 77.480531 -139.519136 
L 73.832727 -129.58501 
z
" style="stroke: #988ed5; stroke-opacity: 0.2"/>
    </defs>
    <g clip-path="url(#pd555aee22d)">
     <use xlink:href="#m95cb913d5b" x="0" y="345.6" style="fill: #988ed5; fill-opacity: 0.2; stroke: #988ed5; stroke-opacity: 0.2"/>
    </g>
   </g>
   <g id="line2d_21">
    <path d="M 73.832727 204.484304 
L 77.480531 206.600436 
L 81.128335 208.374327 
L 84.776139 210.219156 
L 88.423943 211.949147 
L 92.071747 213.681541 
L 95.719551 215.320424 
L 99.367354 216.762107 
L 103.015158 218.380864 
L 106.662962 219.754663 
L 110.310766 221.10946 
L 113.95857 222.668444 
L 117.606374 223.771189 
L 121.254178 225.209086 
L 124.901982 226.379708 
L 128.549785 227.54505 
L 132.197589 228.878848 
L 135.845393 229.915291 
L 139.493197 231.14892 
L 143.141001 232.167764 
L 146.788805 233.292395 
L 150.436609 234.435908 
L 154.084413 235.412196 
L 157.732217 236.513632 
L 161.38002 237.359129 
L 165.027824 238.260066 
L 168.675628 239.457928 
L 172.323432 240.182749 
L 175.971236 241.216664 
L 179.61904 242.372347 
L 183.266844 242.99443 
L 186.914648 244.179453 
L 190.562451 245.104431 
L 194.210255 245.97594 
L 197.858059 246.920207 
L 201.505863 247.74364 
L 205.153667 248.8139 
L 208.801471 249.762885 
L 212.449275 250.663572 
L 216.097079 251.568428 
L 219.744883 252.39662 
L 223.392686 253.512883 
L 227.04049 254.351469 
L 230.688294 255.122453 
L 234.336098 255.899284 
L 237.983902 256.739782 
L 241.631706 257.766084 
L 245.27951 258.627682 
L 248.927314 259.433661 
L 252.575117 260.37452 
L 256.222921 261.013173 
L 259.870725 261.905227 
L 263.518529 262.891103 
L 267.166333 263.655301 
L 270.814137 264.555197 
L 274.461941 265.333548 
L 278.109745 265.855884 
L 281.757549 266.516528 
L 285.405352 267.710181 
L 289.053156 268.169037 
L 292.70096 268.955551 
L 296.348764 269.621812 
L 299.996568 270.369845 
L 303.644372 271.25245 
L 307.292176 272.008919 
L 310.93998 272.856982 
L 314.587783 273.575027 
L 318.235587 274.291533 
L 321.883391 275.010738 
L 325.531195 275.574832 
L 329.178999 276.346186 
L 332.826803 277.137553 
L 336.474607 277.512427 
L 340.122411 278.194742 
L 343.770215 279.134439 
L 347.418018 279.666764 
L 351.065822 280.460858 
L 354.713626 281.161113 
L 358.36143 281.514535 
L 362.009234 282.254301 
L 365.657038 283.165686 
L 369.304842 283.523586 
L 372.952646 284.354909 
L 376.600449 285.039015 
L 380.248253 285.488422 
L 383.896057 286.041053 
L 387.543861 286.388098 
L 391.191665 287.204747 
L 394.839469 288.116652 
L 398.487273 288.31962 
" clip-path="url(#pd555aee22d)" style="fill: none; stroke: #e24a33; stroke-width: 2; stroke-linecap: round"/>
   </g>
   <g id="line2d_22">
    <path d="M 73.832727 206.34652 
L 77.480531 204.037737 
L 81.128335 202.321599 
L 84.776139 200.267573 
L 88.423943 198.387324 
L 92.071747 196.465487 
L 95.719551 194.63095 
L 99.367354 193.020982 
L 103.015158 191.071116 
L 106.662962 189.624097 
L 110.310766 188.037086 
L 113.95857 185.999855 
L 117.606374 184.918218 
L 121.254178 183.067038 
L 124.901982 181.73097 
L 128.549785 180.394526 
L 132.197589 178.570471 
L 135.845393 177.421588 
L 139.493197 175.684421 
L 143.141001 174.538391 
L 146.788805 172.979091 
L 150.436609 171.349308 
L 154.084413 170.119055 
L 157.732217 168.551252 
L 161.38002 167.579643 
L 165.027824 166.36591 
L 168.675628 164.375302 
L 172.323432 163.695551 
L 175.971236 162.024873 
L 179.61904 160.013829 
L 183.266844 159.527164 
L 186.914648 157.366037 
L 190.562451 155.886004 
L 194.210255 154.504361 
L 197.858059 152.806644 
L 201.505863 151.561069 
L 205.153667 149.525911 
L 208.801471 147.729567 
L 212.449275 146.252995 
L 216.097079 144.546501 
L 219.744883 143.196282 
L 223.392686 140.843418 
L 227.04049 139.248562 
L 230.688294 138.094796 
L 234.336098 136.694702 
L 237.983902 135.134615 
L 241.631706 132.856403 
L 245.27951 131.19011 
L 248.927314 129.642765 
L 252.575117 127.62397 
L 256.222921 126.648878 
L 259.870725 124.794064 
L 263.518529 122.400957 
L 267.166333 120.874149 
L 270.814137 118.93512 
L 274.461941 117.318708 
L 278.109745 116.604932 
L 281.757549 115.480971 
L 285.405352 112.126353 
L 289.053156 111.70445 
L 292.70096 109.954671 
L 296.348764 108.572558 
L 299.996568 106.838845 
L 303.644372 104.636317 
L 307.292176 102.843152 
L 310.93998 100.689819 
L 314.587783 99.032491 
L 318.235587 97.414995 
L 321.883391 95.766394 
L 325.531195 94.655927 
L 329.178999 92.795478 
L 332.826803 90.681544 
L 336.474607 90.406517 
L 340.122411 88.73347 
L 343.770215 85.912248 
L 347.418018 84.759752 
L 351.065822 82.647263 
L 354.713626 80.724675 
L 358.36143 80.667447 
L 362.009234 78.488007 
L 365.657038 75.600152 
L 369.304842 75.332132 
L 372.952646 72.752591 
L 376.600449 70.711604 
L 380.248253 70.016755 
L 383.896057 68.601368 
L 387.543861 68.291421 
L 391.191665 65.550528 
L 394.839469 62.312575 
L 398.487273 62.642272 
" clip-path="url(#pd555aee22d)" style="fill: none; stroke: #348abd; stroke-width: 2; stroke-linecap: round"/>
   </g>
   <g id="line2d_23">
    <path d="M 73.832727 255.751495 
L 77.480531 249.170137 
L 81.128335 242.588778 
L 84.776139 237.000832 
L 88.423943 231.537063 
L 92.071747 225.82494 
L 95.719551 220.112818 
L 99.367354 216.01499 
L 103.015158 214.773225 
L 106.662962 212.289693 
L 110.310766 210.054515 
L 113.95857 209.930338 
L 117.606374 209.309455 
L 121.254178 208.06769 
L 124.901982 206.701747 
L 128.549785 206.701747 
L 132.197589 205.956688 
L 135.845393 205.584158 
L 139.493197 205.584158 
L 143.141001 205.584158 
L 146.788805 205.211628 
L 150.436609 204.963275 
L 154.084413 204.963275 
L 157.732217 204.466569 
L 161.38002 204.466569 
L 165.027824 203.473156 
L 168.675628 202.97645 
L 172.323432 203.224803 
L 175.971236 202.852273 
L 179.61904 202.107214 
L 183.266844 201.610508 
L 186.914648 200.989625 
L 190.562451 200.617095 
L 194.210255 200.492918 
L 197.858059 200.617095 
L 201.505863 200.617095 
L 205.153667 200.741271 
L 208.801471 200.741271 
L 212.449275 200.989625 
L 216.097079 200.865448 
L 219.744883 200.989625 
L 223.392686 200.989625 
L 227.04049 201.237978 
L 230.688294 200.989625 
L 234.336098 200.989625 
L 237.983902 200.865448 
L 241.631706 200.865448 
L 245.27951 201.237978 
L 248.927314 201.237978 
L 252.575117 201.362154 
L 256.222921 201.237978 
L 259.870725 201.362154 
L 263.518529 201.486331 
L 267.166333 201.362154 
L 270.814137 201.237978 
L 274.461941 201.113801 
L 278.109745 200.989625 
L 281.757549 201.362154 
L 285.405352 201.362154 
L 289.053156 201.237978 
L 292.70096 201.237978 
L 296.348764 200.989625 
L 299.996568 200.865448 
L 303.644372 200.617095 
L 307.292176 200.617095 
L 310.93998 200.865448 
L 314.587783 200.865448 
L 318.235587 200.865448 
L 321.883391 200.865448 
L 325.531195 200.741271 
L 329.178999 200.741271 
L 332.826803 200.741271 
L 336.474607 200.492918 
L 340.122411 200.492918 
L 343.770215 200.492918 
L 347.418018 200.492918 
L 351.065822 200.617095 
L 354.713626 200.741271 
L 358.36143 200.617095 
L 362.009234 200.741271 
L 365.657038 200.741271 
L 369.304842 200.617095 
L 372.952646 200.617095 
L 376.600449 200.617095 
L 380.248253 200.492918 
L 383.896057 200.617095 
L 387.543861 200.617095 
L 391.191665 200.492918 
L 394.839469 200.617095 
L 398.487273 200.617095 
" clip-path="url(#pd555aee22d)" style="fill: none; stroke: #988ed5; stroke-width: 2; stroke-linecap: round"/>
   </g>
   <g id="patch_3">
    <path d="M 57.6 307.584 
L 57.6 41.472 
" style="fill: none; stroke: #ffffff; stroke-linejoin: miter; stroke-linecap: square"/>
   </g>
   <g id="patch_4">
    <path d="M 414.72 307.584 
L 414.72 41.472 
" style="fill: none; stroke: #ffffff; stroke-linejoin: miter; stroke-linecap: square"/>
   </g>
   <g id="patch_5">
    <path d="M 57.6 307.584 
L 414.72 307.584 
" style="fill: none; stroke: #ffffff; stroke-linejoin: miter; stroke-linecap: square"/>
   </g>
   <g id="patch_6">
    <path d="M 57.6 41.472 
L 414.72 41.472 
" style="fill: none; stroke: #ffffff; stroke-linejoin: miter; stroke-linecap: square"/>
   </g>
   <g id="legend_1">
    <g id="patch_7">
     <path d="M 65.3 98.709812 
L 180.160625 98.709812 
Q 182.360625 98.709812 182.360625 96.509812 
L 182.360625 49.172 
Q 182.360625 46.972 180.160625 46.972 
L 65.3 46.972 
Q 63.1 46.972 63.1 49.172 
L 63.1 96.509812 
Q 63.1 98.709812 65.3 98.709812 
z
" style="fill: #eaeaf2; opacity: 0.8; stroke: #cccccc; stroke-linejoin: miter"/>
    </g>
    <g id="line2d_24">
     <path d="M 67.5 55.880281 
L 78.5 55.880281 
L 89.5 55.880281 
" style="fill: none; stroke: #e24a33; stroke-width: 2; stroke-linecap: round"/>
    </g>
    <g id="text_13">
     <!-- Discriminators -->
     <g style="fill: #262626" transform="translate(98.3 59.730281) scale(0.11 -0.11)">
      <defs>
       <path id="DejaVuSans-44" d="M 1259 4147 
L 1259 519 
L 2022 519 
Q 2988 519 3436 956 
Q 3884 1394 3884 2338 
Q 3884 3275 3436 3711 
Q 2988 4147 2022 4147 
L 1259 4147 
z
M 628 4666 
L 1925 4666 
Q 3281 4666 3915 4102 
Q 4550 3538 4550 2338 
Q 4550 1131 3912 565 
Q 3275 0 1925 0 
L 628 0 
L 628 4666 
z
" transform="scale(0.015625)"/>
       <path id="DejaVuSans-69" d="M 603 3500 
L 1178 3500 
L 1178 0 
L 603 0 
L 603 3500 
z
M 603 4863 
L 1178 4863 
L 1178 4134 
L 603 4134 
L 603 4863 
z
" transform="scale(0.015625)"/>
       <path id="DejaVuSans-72" d="M 2631 2963 
Q 2534 3019 2420 3045 
Q 2306 3072 2169 3072 
Q 1681 3072 1420 2755 
Q 1159 2438 1159 1844 
L 1159 0 
L 581 0 
L 581 3500 
L 1159 3500 
L 1159 2956 
Q 1341 3275 1631 3429 
Q 1922 3584 2338 3584 
Q 2397 3584 2469 3576 
Q 2541 3569 2628 3553 
L 2631 2963 
z
" transform="scale(0.015625)"/>
       <path id="DejaVuSans-6d" d="M 3328 2828 
Q 3544 3216 3844 3400 
Q 4144 3584 4550 3584 
Q 5097 3584 5394 3201 
Q 5691 2819 5691 2113 
L 5691 0 
L 5113 0 
L 5113 2094 
Q 5113 2597 4934 2840 
Q 4756 3084 4391 3084 
Q 3944 3084 3684 2787 
Q 3425 2491 3425 1978 
L 3425 0 
L 2847 0 
L 2847 2094 
Q 2847 2600 2669 2842 
Q 2491 3084 2119 3084 
Q 1678 3084 1418 2786 
Q 1159 2488 1159 1978 
L 1159 0 
L 581 0 
L 581 3500 
L 1159 3500 
L 1159 2956 
Q 1356 3278 1631 3431 
Q 1906 3584 2284 3584 
Q 2666 3584 2933 3390 
Q 3200 3197 3328 2828 
z
" transform="scale(0.015625)"/>
       <path id="DejaVuSans-6e" d="M 3513 2113 
L 3513 0 
L 2938 0 
L 2938 2094 
Q 2938 2591 2744 2837 
Q 2550 3084 2163 3084 
Q 1697 3084 1428 2787 
Q 1159 2491 1159 1978 
L 1159 0 
L 581 0 
L 581 3500 
L 1159 3500 
L 1159 2956 
Q 1366 3272 1645 3428 
Q 1925 3584 2291 3584 
Q 2894 3584 3203 3211 
Q 3513 2838 3513 2113 
z
" transform="scale(0.015625)"/>
       <path id="DejaVuSans-74" d="M 1172 4494 
L 1172 3500 
L 2356 3500 
L 2356 3053 
L 1172 3053 
L 1172 1153 
Q 1172 725 1289 603 
Q 1406 481 1766 481 
L 2356 481 
L 2356 0 
L 1766 0 
Q 1100 0 847 248 
Q 594 497 594 1153 
L 594 3053 
L 172 3053 
L 172 3500 
L 594 3500 
L 594 4494 
L 1172 4494 
z
" transform="scale(0.015625)"/>
      </defs>
      <use xlink:href="#DejaVuSans-44"/>
      <use xlink:href="#DejaVuSans-69" x="77.001953"/>
      <use xlink:href="#DejaVuSans-73" x="104.785156"/>
      <use xlink:href="#DejaVuSans-63" x="156.884766"/>
      <use xlink:href="#DejaVuSans-72" x="211.865234"/>
      <use xlink:href="#DejaVuSans-69" x="252.978516"/>
      <use xlink:href="#DejaVuSans-6d" x="280.761719"/>
      <use xlink:href="#DejaVuSans-69" x="378.173828"/>
      <use xlink:href="#DejaVuSans-6e" x="405.957031"/>
      <use xlink:href="#DejaVuSans-61" x="469.335938"/>
      <use xlink:href="#DejaVuSans-74" x="530.615234"/>
      <use xlink:href="#DejaVuSans-6f" x="569.824219"/>
      <use xlink:href="#DejaVuSans-72" x="631.005859"/>
      <use xlink:href="#DejaVuSans-73" x="672.119141"/>
     </g>
    </g>
    <g id="line2d_25">
     <path d="M 67.5 72.026219 
L 78.5 72.026219 
L 89.5 72.026219 
" style="fill: none; stroke: #348abd; stroke-width: 2; stroke-linecap: round"/>
    </g>
    <g id="text_14">
     <!-- Generator -->
     <g style="fill: #262626" transform="translate(98.3 75.876219) scale(0.11 -0.11)">
      <defs>
       <path id="DejaVuSans-47" d="M 3809 666 
L 3809 1919 
L 2778 1919 
L 2778 2438 
L 4434 2438 
L 4434 434 
Q 4069 175 3628 42 
Q 3188 -91 2688 -91 
Q 1594 -91 976 548 
Q 359 1188 359 2328 
Q 359 3472 976 4111 
Q 1594 4750 2688 4750 
Q 3144 4750 3555 4637 
Q 3966 4525 4313 4306 
L 4313 3634 
Q 3963 3931 3569 4081 
Q 3175 4231 2741 4231 
Q 1884 4231 1454 3753 
Q 1025 3275 1025 2328 
Q 1025 1384 1454 906 
Q 1884 428 2741 428 
Q 3075 428 3337 486 
Q 3600 544 3809 666 
z
" transform="scale(0.015625)"/>
      </defs>
      <use xlink:href="#DejaVuSans-47"/>
      <use xlink:href="#DejaVuSans-65" x="77.490234"/>
      <use xlink:href="#DejaVuSans-6e" x="139.013672"/>
      <use xlink:href="#DejaVuSans-65" x="202.392578"/>
      <use xlink:href="#DejaVuSans-72" x="263.916016"/>
      <use xlink:href="#DejaVuSans-61" x="305.029297"/>
      <use xlink:href="#DejaVuSans-74" x="366.308594"/>
      <use xlink:href="#DejaVuSans-6f" x="405.517578"/>
      <use xlink:href="#DejaVuSans-72" x="466.699219"/>
     </g>
    </g>
    <g id="line2d_26">
     <path d="M 67.5 88.172156 
L 78.5 88.172156 
L 89.5 88.172156 
" style="fill: none; stroke: #988ed5; stroke-width: 2; stroke-linecap: round"/>
    </g>
    <g id="text_15">
     <!-- ROC AUC -->
     <g style="fill: #262626" transform="translate(98.3 92.022156) scale(0.11 -0.11)">
      <defs>
       <path id="DejaVuSans-52" d="M 2841 2188 
Q 3044 2119 3236 1894 
Q 3428 1669 3622 1275 
L 4263 0 
L 3584 0 
L 2988 1197 
Q 2756 1666 2539 1819 
Q 2322 1972 1947 1972 
L 1259 1972 
L 1259 0 
L 628 0 
L 628 4666 
L 2053 4666 
Q 2853 4666 3247 4331 
Q 3641 3997 3641 3322 
Q 3641 2881 3436 2590 
Q 3231 2300 2841 2188 
z
M 1259 4147 
L 1259 2491 
L 2053 2491 
Q 2509 2491 2742 2702 
Q 2975 2913 2975 3322 
Q 2975 3731 2742 3939 
Q 2509 4147 2053 4147 
L 1259 4147 
z
" transform="scale(0.015625)"/>
       <path id="DejaVuSans-4f" d="M 2522 4238 
Q 1834 4238 1429 3725 
Q 1025 3213 1025 2328 
Q 1025 1447 1429 934 
Q 1834 422 2522 422 
Q 3209 422 3611 934 
Q 4013 1447 4013 2328 
Q 4013 3213 3611 3725 
Q 3209 4238 2522 4238 
z
M 2522 4750 
Q 3503 4750 4090 4092 
Q 4678 3434 4678 2328 
Q 4678 1225 4090 567 
Q 3503 -91 2522 -91 
Q 1538 -91 948 565 
Q 359 1222 359 2328 
Q 359 3434 948 4092 
Q 1538 4750 2522 4750 
z
" transform="scale(0.015625)"/>
       <path id="DejaVuSans-43" d="M 4122 4306 
L 4122 3641 
Q 3803 3938 3442 4084 
Q 3081 4231 2675 4231 
Q 1875 4231 1450 3742 
Q 1025 3253 1025 2328 
Q 1025 1406 1450 917 
Q 1875 428 2675 428 
Q 3081 428 3442 575 
Q 3803 722 4122 1019 
L 4122 359 
Q 3791 134 3420 21 
Q 3050 -91 2638 -91 
Q 1578 -91 968 557 
Q 359 1206 359 2328 
Q 359 3453 968 4101 
Q 1578 4750 2638 4750 
Q 3056 4750 3426 4639 
Q 3797 4528 4122 4306 
z
" transform="scale(0.015625)"/>
       <path id="DejaVuSans-20" transform="scale(0.015625)"/>
       <path id="DejaVuSans-41" d="M 2188 4044 
L 1331 1722 
L 3047 1722 
L 2188 4044 
z
M 1831 4666 
L 2547 4666 
L 4325 0 
L 3669 0 
L 3244 1197 
L 1141 1197 
L 716 0 
L 50 0 
L 1831 4666 
z
" transform="scale(0.015625)"/>
       <path id="DejaVuSans-55" d="M 556 4666 
L 1191 4666 
L 1191 1831 
Q 1191 1081 1462 751 
Q 1734 422 2344 422 
Q 2950 422 3222 751 
Q 3494 1081 3494 1831 
L 3494 4666 
L 4128 4666 
L 4128 1753 
Q 4128 841 3676 375 
Q 3225 -91 2344 -91 
Q 1459 -91 1007 375 
Q 556 841 556 1753 
L 556 4666 
z
" transform="scale(0.015625)"/>
      </defs>
      <use xlink:href="#DejaVuSans-52"/>
      <use xlink:href="#DejaVuSans-4f" x="69.482422"/>
      <use xlink:href="#DejaVuSans-43" x="148.193359"/>
      <use xlink:href="#DejaVuSans-20" x="218.017578"/>
      <use xlink:href="#DejaVuSans-41" x="249.804688"/>
      <use xlink:href="#DejaVuSans-55" x="318.212891"/>
      <use xlink:href="#DejaVuSans-43" x="391.40625"/>
     </g>
    </g>
   </g>
  </g>
 </g>
 <defs>
  <clipPath id="pd555aee22d">
   <rect x="57.6" y="41.472" width="357.12" height="266.112"/>
  </clipPath>
 </defs>
</svg>
