<?xml version="1.0" encoding="utf-8" standalone="no"?>
<!DOCTYPE svg PUBLIC "-//W3C//DTD SVG 1.1//EN"
  "http://www.w3.org/Graphics/SVG/1.1/DTD/svg11.dtd">
<svg xmlns:xlink="http://www.w3.org/1999/xlink" width="460.8pt" height="345.6pt" viewBox="0 0 460.8 345.6" xmlns="http://www.w3.org/2000/svg" version="1.1">
 <metadata>
  <rdf:RDF xmlns:dc="http://purl.org/dc/elements/1.1/" xmlns:cc="http://creativecommons.org/ns#" xmlns:rdf="http://www.w3.org/1999/02/22-rdf-syntax-ns#">
   <cc:Work>
    <dc:type rdf:resource="http://purl.org/dc/dcmitype/StillImage"/>
    <dc:date>2023-07-12T19:19:56.688317</dc:date>
    <dc:format>image/svg+xml</dc:format>
    <dc:creator>
     <cc:Agent>
      <dc:title>Matplotlib v3.7.1, https://matplotlib.org/</dc:title>
     </cc:Agent>
    </dc:creator>
   </cc:Work>
  </rdf:RDF>
 </metadata>
 <defs>
  <style type="text/css">*{stroke-linejoin: round; stroke-linecap: butt}</style>
 </defs>
 <g id="figure_1">
  <g id="patch_1">
   <path d="M 0 345.6 
L 460.8 345.6 
L 460.8 0 
L 0 0 
z
" style="fill: #ffffff"/>
  </g>
  <g id="axes_1">
   <g id="patch_2">
    <path d="M 57.6 307.584 
L 414.72 307.584 
L 414.72 41.472 
L 57.6 41.472 
z
" style="fill: #e5e5e5"/>
   </g>
   <g id="matplotlib.axis_1">
    <g id="xtick_1">
     <g id="line2d_1">
      <path d="M 73.832727 307.584 
L 73.832727 41.472 
" clip-path="url(#pbe2c4eae5d)" style="fill: none; stroke: #ffffff; stroke-width: 0.8; stroke-linecap: square"/>
     </g>
     <g id="line2d_2">
      <defs>
       <path id="m4908d3e6ea" d="M 0 0 
L 0 3.5 
" style="stroke: #555555; stroke-width: 0.8"/>
      </defs>
      <g>
       <use xlink:href="#m4908d3e6ea" x="73.832727" y="307.584" style="fill: #555555; stroke: #555555; stroke-width: 0.8"/>
      </g>
     </g>
     <g id="text_1">
      <!-- 0 -->
      <g style="fill: #555555" transform="translate(70.651477 322.182437) scale(0.1 -0.1)">
       <defs>
        <path id="DejaVuSans-30" d="M 2034 4250 
Q 1547 4250 1301 3770 
Q 1056 3291 1056 2328 
Q 1056 1369 1301 889 
Q 1547 409 2034 409 
Q 2525 409 2770 889 
Q 3016 1369 3016 2328 
Q 3016 3291 2770 3770 
Q 2525 4250 2034 4250 
z
M 2034 4750 
Q 2819 4750 3233 4129 
Q 3647 3509 3647 2328 
Q 3647 1150 3233 529 
Q 2819 -91 2034 -91 
Q 1250 -91 836 529 
Q 422 1150 422 2328 
Q 422 3509 836 4129 
Q 1250 4750 2034 4750 
z
" transform="scale(0.015625)"/>
       </defs>
       <use xlink:href="#DejaVuSans-30"/>
      </g>
     </g>
    </g>
    <g id="xtick_2">
     <g id="line2d_3">
      <path d="M 146.788805 307.584 
L 146.788805 41.472 
" clip-path="url(#pbe2c4eae5d)" style="fill: none; stroke: #ffffff; stroke-width: 0.8; stroke-linecap: square"/>
     </g>
     <g id="line2d_4">
      <g>
       <use xlink:href="#m4908d3e6ea" x="146.788805" y="307.584" style="fill: #555555; stroke: #555555; stroke-width: 0.8"/>
      </g>
     </g>
     <g id="text_2">
      <!-- 20 -->
      <g style="fill: #555555" transform="translate(140.426305 322.182437) scale(0.1 -0.1)">
       <defs>
        <path id="DejaVuSans-32" d="M 1228 531 
L 3431 531 
L 3431 0 
L 469 0 
L 469 531 
Q 828 903 1448 1529 
Q 2069 2156 2228 2338 
Q 2531 2678 2651 2914 
Q 2772 3150 2772 3378 
Q 2772 3750 2511 3984 
Q 2250 4219 1831 4219 
Q 1534 4219 1204 4116 
Q 875 4013 500 3803 
L 500 4441 
Q 881 4594 1212 4672 
Q 1544 4750 1819 4750 
Q 2544 4750 2975 4387 
Q 3406 4025 3406 3419 
Q 3406 3131 3298 2873 
Q 3191 2616 2906 2266 
Q 2828 2175 2409 1742 
Q 1991 1309 1228 531 
z
" transform="scale(0.015625)"/>
       </defs>
       <use xlink:href="#DejaVuSans-32"/>
       <use xlink:href="#DejaVuSans-30" x="63.623047"/>
      </g>
     </g>
    </g>
    <g id="xtick_3">
     <g id="line2d_5">
      <path d="M 219.744883 307.584 
L 219.744883 41.472 
" clip-path="url(#pbe2c4eae5d)" style="fill: none; stroke: #ffffff; stroke-width: 0.8; stroke-linecap: square"/>
     </g>
     <g id="line2d_6">
      <g>
       <use xlink:href="#m4908d3e6ea" x="219.744883" y="307.584" style="fill: #555555; stroke: #555555; stroke-width: 0.8"/>
      </g>
     </g>
     <g id="text_3">
      <!-- 40 -->
      <g style="fill: #555555" transform="translate(213.382383 322.182437) scale(0.1 -0.1)">
       <defs>
        <path id="DejaVuSans-34" d="M 2419 4116 
L 825 1625 
L 2419 1625 
L 2419 4116 
z
M 2253 4666 
L 3047 4666 
L 3047 1625 
L 3713 1625 
L 3713 1100 
L 3047 1100 
L 3047 0 
L 2419 0 
L 2419 1100 
L 313 1100 
L 313 1709 
L 2253 4666 
z
" transform="scale(0.015625)"/>
       </defs>
       <use xlink:href="#DejaVuSans-34"/>
       <use xlink:href="#DejaVuSans-30" x="63.623047"/>
      </g>
     </g>
    </g>
    <g id="xtick_4">
     <g id="line2d_7">
      <path d="M 292.70096 307.584 
L 292.70096 41.472 
" clip-path="url(#pbe2c4eae5d)" style="fill: none; stroke: #ffffff; stroke-width: 0.8; stroke-linecap: square"/>
     </g>
     <g id="line2d_8">
      <g>
       <use xlink:href="#m4908d3e6ea" x="292.70096" y="307.584" style="fill: #555555; stroke: #555555; stroke-width: 0.8"/>
      </g>
     </g>
     <g id="text_4">
      <!-- 60 -->
      <g style="fill: #555555" transform="translate(286.33846 322.182437) scale(0.1 -0.1)">
       <defs>
        <path id="DejaVuSans-36" d="M 2113 2584 
Q 1688 2584 1439 2293 
Q 1191 2003 1191 1497 
Q 1191 994 1439 701 
Q 1688 409 2113 409 
Q 2538 409 2786 701 
Q 3034 994 3034 1497 
Q 3034 2003 2786 2293 
Q 2538 2584 2113 2584 
z
M 3366 4563 
L 3366 3988 
Q 3128 4100 2886 4159 
Q 2644 4219 2406 4219 
Q 1781 4219 1451 3797 
Q 1122 3375 1075 2522 
Q 1259 2794 1537 2939 
Q 1816 3084 2150 3084 
Q 2853 3084 3261 2657 
Q 3669 2231 3669 1497 
Q 3669 778 3244 343 
Q 2819 -91 2113 -91 
Q 1303 -91 875 529 
Q 447 1150 447 2328 
Q 447 3434 972 4092 
Q 1497 4750 2381 4750 
Q 2619 4750 2861 4703 
Q 3103 4656 3366 4563 
z
" transform="scale(0.015625)"/>
       </defs>
       <use xlink:href="#DejaVuSans-36"/>
       <use xlink:href="#DejaVuSans-30" x="63.623047"/>
      </g>
     </g>
    </g>
    <g id="xtick_5">
     <g id="line2d_9">
      <path d="M 365.657038 307.584 
L 365.657038 41.472 
" clip-path="url(#pbe2c4eae5d)" style="fill: none; stroke: #ffffff; stroke-width: 0.8; stroke-linecap: square"/>
     </g>
     <g id="line2d_10">
      <g>
       <use xlink:href="#m4908d3e6ea" x="365.657038" y="307.584" style="fill: #555555; stroke: #555555; stroke-width: 0.8"/>
      </g>
     </g>
     <g id="text_5">
      <!-- 80 -->
      <g style="fill: #555555" transform="translate(359.294538 322.182437) scale(0.1 -0.1)">
       <defs>
        <path id="DejaVuSans-38" d="M 2034 2216 
Q 1584 2216 1326 1975 
Q 1069 1734 1069 1313 
Q 1069 891 1326 650 
Q 1584 409 2034 409 
Q 2484 409 2743 651 
Q 3003 894 3003 1313 
Q 3003 1734 2745 1975 
Q 2488 2216 2034 2216 
z
M 1403 2484 
Q 997 2584 770 2862 
Q 544 3141 544 3541 
Q 544 4100 942 4425 
Q 1341 4750 2034 4750 
Q 2731 4750 3128 4425 
Q 3525 4100 3525 3541 
Q 3525 3141 3298 2862 
Q 3072 2584 2669 2484 
Q 3125 2378 3379 2068 
Q 3634 1759 3634 1313 
Q 3634 634 3220 271 
Q 2806 -91 2034 -91 
Q 1263 -91 848 271 
Q 434 634 434 1313 
Q 434 1759 690 2068 
Q 947 2378 1403 2484 
z
M 1172 3481 
Q 1172 3119 1398 2916 
Q 1625 2713 2034 2713 
Q 2441 2713 2670 2916 
Q 2900 3119 2900 3481 
Q 2900 3844 2670 4047 
Q 2441 4250 2034 4250 
Q 1625 4250 1398 4047 
Q 1172 3844 1172 3481 
z
" transform="scale(0.015625)"/>
       </defs>
       <use xlink:href="#DejaVuSans-38"/>
       <use xlink:href="#DejaVuSans-30" x="63.623047"/>
      </g>
     </g>
    </g>
    <g id="text_6">
     <!-- epochs -->
     <g style="fill: #555555" transform="translate(214.760625 337.38025) scale(0.12 -0.12)">
      <defs>
       <path id="DejaVuSans-65" d="M 3597 1894 
L 3597 1613 
L 953 1613 
Q 991 1019 1311 708 
Q 1631 397 2203 397 
Q 2534 397 2845 478 
Q 3156 559 3463 722 
L 3463 178 
Q 3153 47 2828 -22 
Q 2503 -91 2169 -91 
Q 1331 -91 842 396 
Q 353 884 353 1716 
Q 353 2575 817 3079 
Q 1281 3584 2069 3584 
Q 2775 3584 3186 3129 
Q 3597 2675 3597 1894 
z
M 3022 2063 
Q 3016 2534 2758 2815 
Q 2500 3097 2075 3097 
Q 1594 3097 1305 2825 
Q 1016 2553 972 2059 
L 3022 2063 
z
" transform="scale(0.015625)"/>
       <path id="DejaVuSans-70" d="M 1159 525 
L 1159 -1331 
L 581 -1331 
L 581 3500 
L 1159 3500 
L 1159 2969 
Q 1341 3281 1617 3432 
Q 1894 3584 2278 3584 
Q 2916 3584 3314 3078 
Q 3713 2572 3713 1747 
Q 3713 922 3314 415 
Q 2916 -91 2278 -91 
Q 1894 -91 1617 61 
Q 1341 213 1159 525 
z
M 3116 1747 
Q 3116 2381 2855 2742 
Q 2594 3103 2138 3103 
Q 1681 3103 1420 2742 
Q 1159 2381 1159 1747 
Q 1159 1113 1420 752 
Q 1681 391 2138 391 
Q 2594 391 2855 752 
Q 3116 1113 3116 1747 
z
" transform="scale(0.015625)"/>
       <path id="DejaVuSans-6f" d="M 1959 3097 
Q 1497 3097 1228 2736 
Q 959 2375 959 1747 
Q 959 1119 1226 758 
Q 1494 397 1959 397 
Q 2419 397 2687 759 
Q 2956 1122 2956 1747 
Q 2956 2369 2687 2733 
Q 2419 3097 1959 3097 
z
M 1959 3584 
Q 2709 3584 3137 3096 
Q 3566 2609 3566 1747 
Q 3566 888 3137 398 
Q 2709 -91 1959 -91 
Q 1206 -91 779 398 
Q 353 888 353 1747 
Q 353 2609 779 3096 
Q 1206 3584 1959 3584 
z
" transform="scale(0.015625)"/>
       <path id="DejaVuSans-63" d="M 3122 3366 
L 3122 2828 
Q 2878 2963 2633 3030 
Q 2388 3097 2138 3097 
Q 1578 3097 1268 2742 
Q 959 2388 959 1747 
Q 959 1106 1268 751 
Q 1578 397 2138 397 
Q 2388 397 2633 464 
Q 2878 531 3122 666 
L 3122 134 
Q 2881 22 2623 -34 
Q 2366 -91 2075 -91 
Q 1284 -91 818 406 
Q 353 903 353 1747 
Q 353 2603 823 3093 
Q 1294 3584 2113 3584 
Q 2378 3584 2631 3529 
Q 2884 3475 3122 3366 
z
" transform="scale(0.015625)"/>
       <path id="DejaVuSans-68" d="M 3513 2113 
L 3513 0 
L 2938 0 
L 2938 2094 
Q 2938 2591 2744 2837 
Q 2550 3084 2163 3084 
Q 1697 3084 1428 2787 
Q 1159 2491 1159 1978 
L 1159 0 
L 581 0 
L 581 4863 
L 1159 4863 
L 1159 2956 
Q 1366 3272 1645 3428 
Q 1925 3584 2291 3584 
Q 2894 3584 3203 3211 
Q 3513 2838 3513 2113 
z
" transform="scale(0.015625)"/>
       <path id="DejaVuSans-73" d="M 2834 3397 
L 2834 2853 
Q 2591 2978 2328 3040 
Q 2066 3103 1784 3103 
Q 1356 3103 1142 2972 
Q 928 2841 928 2578 
Q 928 2378 1081 2264 
Q 1234 2150 1697 2047 
L 1894 2003 
Q 2506 1872 2764 1633 
Q 3022 1394 3022 966 
Q 3022 478 2636 193 
Q 2250 -91 1575 -91 
Q 1294 -91 989 -36 
Q 684 19 347 128 
L 347 722 
Q 666 556 975 473 
Q 1284 391 1588 391 
Q 1994 391 2212 530 
Q 2431 669 2431 922 
Q 2431 1156 2273 1281 
Q 2116 1406 1581 1522 
L 1381 1569 
Q 847 1681 609 1914 
Q 372 2147 372 2553 
Q 372 3047 722 3315 
Q 1072 3584 1716 3584 
Q 2034 3584 2315 3537 
Q 2597 3491 2834 3397 
z
" transform="scale(0.015625)"/>
      </defs>
      <use xlink:href="#DejaVuSans-65"/>
      <use xlink:href="#DejaVuSans-70" x="61.523438"/>
      <use xlink:href="#DejaVuSans-6f" x="125"/>
      <use xlink:href="#DejaVuSans-63" x="186.181641"/>
      <use xlink:href="#DejaVuSans-68" x="241.162109"/>
      <use xlink:href="#DejaVuSans-73" x="304.541016"/>
     </g>
    </g>
   </g>
   <g id="matplotlib.axis_2">
    <g id="ytick_1">
     <g id="line2d_11">
      <path d="M 57.6 284.010306 
L 414.72 284.010306 
" clip-path="url(#pbe2c4eae5d)" style="fill: none; stroke: #ffffff; stroke-width: 0.8; stroke-linecap: square"/>
     </g>
     <g id="line2d_12">
      <defs>
       <path id="m4f881c2a21" d="M 0 0 
L -3.5 0 
" style="stroke: #555555; stroke-width: 0.8"/>
      </defs>
      <g>
       <use xlink:href="#m4f881c2a21" x="57.6" y="284.010306" style="fill: #555555; stroke: #555555; stroke-width: 0.8"/>
      </g>
     </g>
     <g id="text_7">
      <!-- 0.4 -->
      <g style="fill: #555555" transform="translate(34.696875 287.809525) scale(0.1 -0.1)">
       <defs>
        <path id="DejaVuSans-2e" d="M 684 794 
L 1344 794 
L 1344 0 
L 684 0 
L 684 794 
z
" transform="scale(0.015625)"/>
       </defs>
       <use xlink:href="#DejaVuSans-30"/>
       <use xlink:href="#DejaVuSans-2e" x="63.623047"/>
       <use xlink:href="#DejaVuSans-34" x="95.410156"/>
      </g>
     </g>
    </g>
    <g id="ytick_2">
     <g id="line2d_13">
      <path d="M 57.6 235.051106 
L 414.72 235.051106 
" clip-path="url(#pbe2c4eae5d)" style="fill: none; stroke: #ffffff; stroke-width: 0.8; stroke-linecap: square"/>
     </g>
     <g id="line2d_14">
      <g>
       <use xlink:href="#m4f881c2a21" x="57.6" y="235.051106" style="fill: #555555; stroke: #555555; stroke-width: 0.8"/>
      </g>
     </g>
     <g id="text_8">
      <!-- 0.6 -->
      <g style="fill: #555555" transform="translate(34.696875 238.850325) scale(0.1 -0.1)">
       <use xlink:href="#DejaVuSans-30"/>
       <use xlink:href="#DejaVuSans-2e" x="63.623047"/>
       <use xlink:href="#DejaVuSans-36" x="95.410156"/>
      </g>
     </g>
    </g>
    <g id="ytick_3">
     <g id="line2d_15">
      <path d="M 57.6 186.091906 
L 414.72 186.091906 
" clip-path="url(#pbe2c4eae5d)" style="fill: none; stroke: #ffffff; stroke-width: 0.8; stroke-linecap: square"/>
     </g>
     <g id="line2d_16">
      <g>
       <use xlink:href="#m4f881c2a21" x="57.6" y="186.091906" style="fill: #555555; stroke: #555555; stroke-width: 0.8"/>
      </g>
     </g>
     <g id="text_9">
      <!-- 0.8 -->
      <g style="fill: #555555" transform="translate(34.696875 189.891125) scale(0.1 -0.1)">
       <use xlink:href="#DejaVuSans-30"/>
       <use xlink:href="#DejaVuSans-2e" x="63.623047"/>
       <use xlink:href="#DejaVuSans-38" x="95.410156"/>
      </g>
     </g>
    </g>
    <g id="ytick_4">
     <g id="line2d_17">
      <path d="M 57.6 137.132706 
L 414.72 137.132706 
" clip-path="url(#pbe2c4eae5d)" style="fill: none; stroke: #ffffff; stroke-width: 0.8; stroke-linecap: square"/>
     </g>
     <g id="line2d_18">
      <g>
       <use xlink:href="#m4f881c2a21" x="57.6" y="137.132706" style="fill: #555555; stroke: #555555; stroke-width: 0.8"/>
      </g>
     </g>
     <g id="text_10">
      <!-- 1.0 -->
      <g style="fill: #555555" transform="translate(34.696875 140.931925) scale(0.1 -0.1)">
       <defs>
        <path id="DejaVuSans-31" d="M 794 531 
L 1825 531 
L 1825 4091 
L 703 3866 
L 703 4441 
L 1819 4666 
L 2450 4666 
L 2450 531 
L 3481 531 
L 3481 0 
L 794 0 
L 794 531 
z
" transform="scale(0.015625)"/>
       </defs>
       <use xlink:href="#DejaVuSans-31"/>
       <use xlink:href="#DejaVuSans-2e" x="63.623047"/>
       <use xlink:href="#DejaVuSans-30" x="95.410156"/>
      </g>
     </g>
    </g>
    <g id="ytick_5">
     <g id="line2d_19">
      <path d="M 57.6 88.173506 
L 414.72 88.173506 
" clip-path="url(#pbe2c4eae5d)" style="fill: none; stroke: #ffffff; stroke-width: 0.8; stroke-linecap: square"/>
     </g>
     <g id="line2d_20">
      <g>
       <use xlink:href="#m4f881c2a21" x="57.6" y="88.173506" style="fill: #555555; stroke: #555555; stroke-width: 0.8"/>
      </g>
     </g>
     <g id="text_11">
      <!-- 1.2 -->
      <g style="fill: #555555" transform="translate(34.696875 91.972724) scale(0.1 -0.1)">
       <use xlink:href="#DejaVuSans-31"/>
       <use xlink:href="#DejaVuSans-2e" x="63.623047"/>
       <use xlink:href="#DejaVuSans-32" x="95.410156"/>
      </g>
     </g>
    </g>
    <g id="text_12">
     <!-- values -->
     <g style="fill: #555555" transform="translate(28.20125 194.043) rotate(-90) scale(0.12 -0.12)">
      <defs>
       <path id="DejaVuSans-76" d="M 191 3500 
L 800 3500 
L 1894 563 
L 2988 3500 
L 3597 3500 
L 2284 0 
L 1503 0 
L 191 3500 
z
" transform="scale(0.015625)"/>
       <path id="DejaVuSans-61" d="M 2194 1759 
Q 1497 1759 1228 1600 
Q 959 1441 959 1056 
Q 959 750 1161 570 
Q 1363 391 1709 391 
Q 2188 391 2477 730 
Q 2766 1069 2766 1631 
L 2766 1759 
L 2194 1759 
z
M 3341 1997 
L 3341 0 
L 2766 0 
L 2766 531 
Q 2569 213 2275 61 
Q 1981 -91 1556 -91 
Q 1019 -91 701 211 
Q 384 513 384 1019 
Q 384 1609 779 1909 
Q 1175 2209 1959 2209 
L 2766 2209 
L 2766 2266 
Q 2766 2663 2505 2880 
Q 2244 3097 1772 3097 
Q 1472 3097 1187 3025 
Q 903 2953 641 2809 
L 641 3341 
Q 956 3463 1253 3523 
Q 1550 3584 1831 3584 
Q 2591 3584 2966 3190 
Q 3341 2797 3341 1997 
z
" transform="scale(0.015625)"/>
       <path id="DejaVuSans-6c" d="M 603 4863 
L 1178 4863 
L 1178 0 
L 603 0 
L 603 4863 
z
" transform="scale(0.015625)"/>
       <path id="DejaVuSans-75" d="M 544 1381 
L 544 3500 
L 1119 3500 
L 1119 1403 
Q 1119 906 1312 657 
Q 1506 409 1894 409 
Q 2359 409 2629 706 
Q 2900 1003 2900 1516 
L 2900 3500 
L 3475 3500 
L 3475 0 
L 2900 0 
L 2900 538 
Q 2691 219 2414 64 
Q 2138 -91 1772 -91 
Q 1169 -91 856 284 
Q 544 659 544 1381 
z
M 1991 3584 
L 1991 3584 
z
" transform="scale(0.015625)"/>
      </defs>
      <use xlink:href="#DejaVuSans-76"/>
      <use xlink:href="#DejaVuSans-61" x="59.179688"/>
      <use xlink:href="#DejaVuSans-6c" x="120.458984"/>
      <use xlink:href="#DejaVuSans-75" x="148.242188"/>
      <use xlink:href="#DejaVuSans-65" x="211.621094"/>
      <use xlink:href="#DejaVuSans-73" x="273.144531"/>
     </g>
    </g>
   </g>
   <g id="PolyCollection_1">
    <defs>
     <path id="m9a91dd74cf" d="M 73.832727 -139.695939 
L 73.832727 -136.529449 
L 77.480531 -134.451867 
L 81.128335 -132.683798 
L 84.776139 -130.845098 
L 88.423943 -129.404711 
L 92.071747 -127.463287 
L 95.719551 -125.769913 
L 99.367354 -124.516024 
L 103.015158 -122.888021 
L 106.662962 -121.465267 
L 110.310766 -119.894302 
L 113.95857 -118.630058 
L 117.606374 -117.283268 
L 121.254178 -115.827132 
L 124.901982 -114.761484 
L 128.549785 -113.559081 
L 132.197589 -112.197367 
L 135.845393 -111.024568 
L 139.493197 -109.917521 
L 143.141001 -108.883669 
L 146.788805 -107.653101 
L 150.436609 -106.402677 
L 154.084413 -105.540245 
L 157.732217 -104.280074 
L 161.38002 -103.503954 
L 165.027824 -102.411671 
L 168.675628 -101.593685 
L 172.323432 -100.489871 
L 175.971236 -99.6001 
L 179.61904 -98.232952 
L 183.266844 -97.738754 
L 186.914648 -95.815587 
L 190.562451 -95.683328 
L 194.210255 -94.365837 
L 197.858059 -93.717869 
L 201.505863 -91.949491 
L 205.153667 -91.375057 
L 208.801471 -90.222775 
L 212.449275 -89.481315 
L 216.097079 -88.460014 
L 219.744883 -87.60055 
L 223.392686 -86.656205 
L 227.04049 -85.590161 
L 230.688294 -84.692427 
L 234.336098 -83.857284 
L 237.983902 -83.410045 
L 241.631706 -81.967819 
L 245.27951 -81.030818 
L 248.927314 -80.334569 
L 252.575117 -79.404007 
L 256.222921 -78.668864 
L 259.870725 -77.749086 
L 263.518529 -76.766296 
L 267.166333 -76.003336 
L 270.814137 -75.392364 
L 274.461941 -74.316644 
L 278.109745 -73.720805 
L 281.757549 -72.763357 
L 285.405352 -71.648676 
L 289.053156 -71.274496 
L 292.70096 -71.057473 
L 296.348764 -69.624021 
L 299.996568 -68.774594 
L 303.644372 -68.68014 
L 307.292176 -67.40901 
L 310.93998 -66.408246 
L 314.587783 -65.586929 
L 318.235587 -64.951812 
L 321.883391 -64.099807 
L 325.531195 -63.965741 
L 329.178999 -62.714811 
L 332.826803 -61.900727 
L 336.474607 -61.261005 
L 340.122411 -60.671885 
L 343.770215 -59.848236 
L 347.418018 -59.10257 
L 351.065822 -58.404701 
L 354.713626 -57.67623 
L 358.36143 -57.25619 
L 362.009234 -56.485795 
L 365.657038 -56.363577 
L 369.304842 -54.332806 
L 372.952646 -54.124685 
L 376.600449 -53.788132 
L 380.248253 -53.181002 
L 383.896057 -52.163519 
L 387.543861 -52.041589 
L 391.191665 -51.125306 
L 394.839469 -50.429606 
L 398.487273 -50.112 
L 398.487273 -61.661948 
L 398.487273 -61.661948 
L 394.839469 -62.351555 
L 391.191665 -62.803066 
L 387.543861 -63.615855 
L 383.896057 -64.12101 
L 380.248253 -64.608815 
L 376.600449 -65.488699 
L 372.952646 -66.001332 
L 369.304842 -66.524418 
L 365.657038 -67.189198 
L 362.009234 -67.95879 
L 358.36143 -68.459386 
L 354.713626 -69.264155 
L 351.065822 -69.962897 
L 347.418018 -70.704995 
L 343.770215 -71.063227 
L 340.122411 -71.968702 
L 336.474607 -72.554086 
L 332.826803 -73.120037 
L 329.178999 -73.868032 
L 325.531195 -74.425813 
L 321.883391 -75.643702 
L 318.235587 -75.951944 
L 314.587783 -76.744954 
L 310.93998 -77.456055 
L 307.292176 -78.286775 
L 303.644372 -78.807301 
L 299.996568 -79.702242 
L 296.348764 -80.486304 
L 292.70096 -81.169815 
L 289.053156 -82.009359 
L 285.405352 -82.680579 
L 281.757549 -83.313645 
L 278.109745 -84.354018 
L 274.461941 -84.959308 
L 270.814137 -85.780842 
L 267.166333 -86.524745 
L 263.518529 -87.094315 
L 259.870725 -88.18721 
L 256.222921 -88.82295 
L 252.575117 -89.725141 
L 248.927314 -90.38435 
L 245.27951 -91.479653 
L 241.631706 -92.068915 
L 237.983902 -92.884812 
L 234.336098 -93.703881 
L 230.688294 -94.670205 
L 227.04049 -95.407282 
L 223.392686 -96.289145 
L 219.744883 -97.025239 
L 216.097079 -97.938862 
L 212.449275 -98.815172 
L 208.801471 -99.688178 
L 205.153667 -100.703137 
L 201.505863 -101.410706 
L 197.858059 -101.731556 
L 194.210255 -103.291056 
L 190.562451 -104.178338 
L 186.914648 -105.101994 
L 183.266844 -105.962951 
L 179.61904 -106.359624 
L 175.971236 -107.791264 
L 172.323432 -108.543004 
L 168.675628 -109.385849 
L 165.027824 -110.444645 
L 161.38002 -111.333524 
L 157.732217 -112.3592 
L 154.084413 -113.235331 
L 150.436609 -114.173018 
L 146.788805 -115.231975 
L 143.141001 -116.216877 
L 139.493197 -117.162564 
L 135.845393 -118.157959 
L 132.197589 -119.241402 
L 128.549785 -120.371817 
L 124.901982 -121.489333 
L 121.254178 -122.542681 
L 117.606374 -123.688097 
L 113.95857 -124.619665 
L 110.310766 -125.990392 
L 106.662962 -127.170019 
L 103.015158 -128.295173 
L 99.367354 -129.645852 
L 95.719551 -131.022354 
L 92.071747 -132.306298 
L 88.423943 -133.832694 
L 84.776139 -135.011018 
L 81.128335 -136.476201 
L 77.480531 -137.926258 
L 73.832727 -139.695939 
z
" style="stroke: #e24a33; stroke-opacity: 0.2"/>
    </defs>
    <g clip-path="url(#pbe2c4eae5d)">
     <use xlink:href="#m9a91dd74cf" x="0" y="345.6" style="fill: #e24a33; fill-opacity: 0.2; stroke: #e24a33; stroke-opacity: 0.2"/>
    </g>
   </g>
   <g id="PolyCollection_2">
    <defs>
     <path id="ma8ce1708a0" d="M 73.832727 -138.451275 
L 73.832727 -130.941138 
L 77.480531 -133.201666 
L 81.128335 -134.678675 
L 84.776139 -136.330692 
L 88.423943 -137.235423 
L 92.071747 -139.307909 
L 95.719551 -140.719023 
L 99.367354 -142.305366 
L 103.015158 -143.883555 
L 106.662962 -144.768804 
L 110.310766 -147.24475 
L 113.95857 -148.852837 
L 117.606374 -149.356301 
L 121.254178 -150.803356 
L 124.901982 -152.253571 
L 128.549785 -153.226266 
L 132.197589 -155.166187 
L 135.845393 -156.40785 
L 139.493197 -157.857793 
L 143.141001 -158.43854 
L 146.788805 -159.538706 
L 150.436609 -162.120853 
L 154.084413 -163.180653 
L 157.732217 -163.633501 
L 161.38002 -165.92305 
L 165.027824 -166.383953 
L 168.675628 -167.807367 
L 172.323432 -168.449396 
L 175.971236 -170.095971 
L 179.61904 -171.446526 
L 183.266844 -172.757447 
L 186.914648 -174.478905 
L 190.562451 -175.827783 
L 194.210255 -177.657291 
L 197.858059 -177.945593 
L 201.505863 -180.249947 
L 205.153667 -181.163704 
L 208.801471 -182.349539 
L 212.449275 -185.361037 
L 216.097079 -185.838858 
L 219.744883 -187.541879 
L 223.392686 -188.360739 
L 227.04049 -190.95887 
L 230.688294 -191.507333 
L 234.336098 -193.400206 
L 237.983902 -194.474412 
L 241.631706 -195.807843 
L 245.27951 -197.325375 
L 248.927314 -199.495027 
L 252.575117 -200.833703 
L 256.222921 -201.582512 
L 259.870725 -202.304135 
L 263.518529 -205.578893 
L 267.166333 -206.903929 
L 270.814137 -208.216464 
L 274.461941 -209.820036 
L 278.109745 -209.540178 
L 281.757549 -212.706922 
L 285.405352 -214.265562 
L 289.053156 -215.130956 
L 292.70096 -217.133255 
L 296.348764 -217.054394 
L 299.996568 -220.010095 
L 303.644372 -220.390873 
L 307.292176 -222.865742 
L 310.93998 -223.503881 
L 314.587783 -224.06948 
L 318.235587 -227.530034 
L 321.883391 -227.896344 
L 325.531195 -229.774961 
L 329.178999 -232.17959 
L 332.826803 -233.49038 
L 336.474607 -234.545278 
L 340.122411 -236.104553 
L 343.770215 -238.222286 
L 347.418018 -238.096558 
L 351.065822 -240.570342 
L 354.713626 -241.591016 
L 358.36143 -244.310728 
L 362.009234 -245.347901 
L 365.657038 -246.703899 
L 369.304842 -248.605524 
L 372.952646 -248.373527 
L 376.600449 -250.739776 
L 380.248253 -253.045028 
L 383.896057 -254.084571 
L 387.543861 -254.562157 
L 391.191665 -257.391231 
L 394.839469 -257.774442 
L 398.487273 -257.571809 
L 398.487273 -292.032 
L 398.487273 -292.032 
L 394.839469 -290.717857 
L 391.191665 -289.058382 
L 387.543861 -286.016385 
L 383.896057 -285.707453 
L 380.248253 -283.391479 
L 376.600449 -281.744105 
L 372.952646 -280.639533 
L 369.304842 -277.625165 
L 365.657038 -276.867269 
L 362.009234 -274.766933 
L 358.36143 -272.094297 
L 354.713626 -271.325224 
L 351.065822 -269.66473 
L 347.418018 -267.567831 
L 343.770215 -265.61135 
L 340.122411 -266.258933 
L 336.474607 -264.051649 
L 332.826803 -262.726399 
L 329.178999 -258.430033 
L 325.531195 -257.436364 
L 321.883391 -256.027821 
L 318.235587 -253.867189 
L 314.587783 -252.126567 
L 310.93998 -250.793301 
L 307.292176 -247.659422 
L 303.644372 -245.521738 
L 299.996568 -244.978703 
L 296.348764 -242.784202 
L 292.70096 -241.052116 
L 289.053156 -239.186627 
L 285.405352 -238.342726 
L 281.757549 -235.277453 
L 278.109745 -234.268388 
L 274.461941 -231.872164 
L 270.814137 -230.820231 
L 267.166333 -228.485206 
L 263.518529 -227.511743 
L 259.870725 -224.843485 
L 256.222921 -223.332473 
L 252.575117 -222.7426 
L 248.927314 -219.934338 
L 245.27951 -218.256963 
L 241.631706 -216.427729 
L 237.983902 -213.733152 
L 234.336098 -212.300455 
L 230.688294 -210.866644 
L 227.04049 -209.175975 
L 223.392686 -207.75334 
L 219.744883 -205.094476 
L 216.097079 -203.593674 
L 212.449275 -202.076685 
L 208.801471 -201.153089 
L 205.153667 -198.154668 
L 201.505863 -196.096663 
L 197.858059 -194.746206 
L 194.210255 -192.715253 
L 190.562451 -191.145019 
L 186.914648 -190.271746 
L 183.266844 -187.263182 
L 179.61904 -186.728154 
L 175.971236 -184.589886 
L 172.323432 -182.786755 
L 168.675628 -181.276253 
L 165.027824 -179.894023 
L 161.38002 -178.382287 
L 157.732217 -177.13753 
L 154.084413 -175.644409 
L 150.436609 -174.10031 
L 146.788805 -172.587246 
L 143.141001 -170.619673 
L 139.493197 -169.267361 
L 135.845393 -167.602831 
L 132.197589 -166.007952 
L 128.549785 -164.040131 
L 124.901982 -162.384997 
L 121.254178 -161.358151 
L 117.606374 -159.363868 
L 113.95857 -157.644345 
L 110.310766 -155.912717 
L 106.662962 -154.351158 
L 103.015158 -152.786235 
L 99.367354 -150.65261 
L 95.719551 -149.38654 
L 92.071747 -147.360139 
L 88.423943 -145.23128 
L 84.776139 -143.742912 
L 81.128335 -141.87384 
L 77.480531 -140.29003 
L 73.832727 -138.451275 
z
" style="stroke: #348abd; stroke-opacity: 0.2"/>
    </defs>
    <g clip-path="url(#pbe2c4eae5d)">
     <use xlink:href="#ma8ce1708a0" x="0" y="345.6" style="fill: #348abd; fill-opacity: 0.2; stroke: #348abd; stroke-opacity: 0.2"/>
    </g>
   </g>
   <g id="PolyCollection_3">
    <defs>
     <path id="m0f390d3d4b" d="M 73.832727 -111.60232 
L 73.832727 -56.422893 
L 77.480531 -61.188389 
L 81.128335 -63.87964 
L 84.776139 -69.164324 
L 88.423943 -76.086834 
L 92.071747 -85.066032 
L 95.719551 -93.794414 
L 99.367354 -100.365782 
L 103.015158 -102.372306 
L 106.662962 -108.592533 
L 110.310766 -110.197752 
L 113.95857 -111.401667 
L 117.606374 -114.612106 
L 121.254178 -114.812759 
L 124.901982 -118.37434 
L 128.549785 -118.675319 
L 132.197589 -120.130049 
L 135.845393 -121.484453 
L 139.493197 -122.186737 
L 143.141001 -123.440815 
L 146.788805 -124.895545 
L 150.436609 -125.798481 
L 154.084413 -126.350275 
L 157.732217 -126.651254 
L 161.38002 -126.801743 
L 165.027824 -128.055821 
L 168.675628 -129.054067 
L 172.323432 -129.696155 
L 175.971236 -130.112509 
L 179.61904 -130.454872 
L 183.266844 -131.216097 
L 186.914648 -131.918381 
L 190.562451 -132.21936 
L 194.210255 -132.771154 
L 197.858059 -132.720991 
L 201.505863 -133.122296 
L 205.153667 -132.87148 
L 208.801471 -132.971806 
L 212.449275 -132.620665 
L 216.097079 -132.87148 
L 219.744883 -132.921643 
L 223.392686 -133.072133 
L 227.04049 -133.172459 
L 230.688294 -133.222622 
L 234.336098 -133.67409 
L 237.983902 -134.175721 
L 241.631706 -134.4767 
L 245.27951 -134.577026 
L 248.927314 -134.772662 
L 252.575117 -134.978331 
L 256.222921 -135.229147 
L 259.870725 -135.379636 
L 263.518529 -135.580288 
L 267.166333 -136.433061 
L 270.814137 -135.93143 
L 274.461941 -136.583551 
L 278.109745 -136.132083 
L 281.757549 -136.132083 
L 285.405352 -136.08192 
L 289.053156 -136.182246 
L 292.70096 -136.132083 
L 296.348764 -136.581043 
L 299.996568 -136.884529 
L 303.644372 -137.031257 
L 307.292176 -137.471438 
L 310.93998 -137.586813 
L 314.587783 -137.285834 
L 318.235587 -137.67209 
L 321.883391 -137.687139 
L 325.531195 -137.335997 
L 329.178999 -137.386161 
L 332.826803 -138.389423 
L 336.474607 -138.33926 
L 340.122411 -138.439586 
L 343.770215 -137.787465 
L 347.418018 -137.837629 
L 351.065822 -137.787465 
L 354.713626 -138.289097 
L 358.36143 -137.83512 
L 362.009234 -138.33926 
L 365.657038 -138.33926 
L 369.304842 -138.489749 
L 372.952646 -138.489749 
L 376.600449 -137.887792 
L 380.248253 -138.690402 
L 383.896057 -138.088444 
L 387.543861 -138.62519 
L 391.191665 -138.891054 
L 394.839469 -138.640238 
L 398.487273 -138.640238 
L 398.487273 -147.268294 
L 398.487273 -147.268294 
L 394.839469 -147.36862 
L 391.191665 -147.418784 
L 387.543861 -147.318457 
L 383.896057 -147.320965 
L 380.248253 -147.51911 
L 376.600449 -147.569273 
L 372.952646 -147.569273 
L 369.304842 -147.569273 
L 365.657038 -147.619436 
L 362.009234 -147.421292 
L 358.36143 -147.619436 
L 354.713626 -147.719762 
L 351.065822 -147.669599 
L 347.418018 -147.820088 
L 343.770215 -147.920415 
L 340.122411 -147.820088 
L 336.474607 -147.920415 
L 332.826803 -148.020741 
L 329.178999 -148.121067 
L 325.531195 -148.121067 
L 321.883391 -148.121067 
L 318.235587 -148.070904 
L 314.587783 -148.121067 
L 310.93998 -148.17123 
L 307.292176 -148.121067 
L 303.644372 -148.17123 
L 299.996568 -148.070904 
L 296.348764 -148.020741 
L 292.70096 -147.920415 
L 289.053156 -148.121067 
L 285.405352 -148.271556 
L 281.757549 -148.622698 
L 278.109745 -149.024003 
L 274.461941 -149.174493 
L 270.814137 -149.074166 
L 267.166333 -149.076674 
L 263.518529 -149.375145 
L 259.870725 -149.324982 
L 256.222921 -149.425308 
L 252.575117 -149.77645 
L 248.927314 -149.826613 
L 245.27951 -150.127592 
L 241.631706 -150.227918 
L 237.983902 -150.42857 
L 234.336098 -150.28686 
L 230.688294 -150.337023 
L 227.04049 -150.779712 
L 223.392686 -150.930202 
L 219.744883 -150.980365 
L 216.097079 -151.431833 
L 212.449275 -151.682648 
L 208.801471 -151.540937 
L 205.153667 -152.234443 
L 201.505863 -152.139133 
L 197.858059 -152.083953 
L 194.210255 -152.134116 
L 190.562451 -152.195566 
L 186.914648 -152.284606 
L 183.266844 -152.204345 
L 179.61904 -151.13587 
L 175.971236 -151.983627 
L 172.323432 -151.782975 
L 168.675628 -151.632485 
L 165.027824 -151.933464 
L 161.38002 -151.080691 
L 157.732217 -151.331506 
L 154.084413 -151.030528 
L 150.436609 -150.980365 
L 146.788805 -150.779712 
L 143.141001 -149.802786 
L 139.493197 -151.181017 
L 135.845393 -151.38167 
L 132.197589 -151.808056 
L 128.549785 -151.582322 
L 124.901982 -150.246729 
L 121.254178 -150.629223 
L 117.606374 -149.77645 
L 113.95857 -149.074166 
L 110.310766 -150.127592 
L 106.662962 -146.917152 
L 103.015158 -145.733303 
L 99.367354 -145.362096 
L 95.719551 -141.951004 
L 92.071747 -138.032011 
L 88.423943 -137.586813 
L 84.776139 -132.570502 
L 81.128335 -127.856423 
L 77.480531 -120.380865 
L 73.832727 -111.60232 
z
" style="stroke: #988ed5; stroke-opacity: 0.2"/>
    </defs>
    <g clip-path="url(#pbe2c4eae5d)">
     <use xlink:href="#m0f390d3d4b" x="0" y="345.6" style="fill: #988ed5; fill-opacity: 0.2; stroke: #988ed5; stroke-opacity: 0.2"/>
    </g>
   </g>
   <g id="line2d_21">
    <path d="M 73.832727 207.39016 
L 77.480531 209.322335 
L 81.128335 210.964461 
L 84.776139 212.658459 
L 88.423943 214.068437 
L 92.071747 215.714559 
L 95.719551 217.203867 
L 99.367354 218.581702 
L 103.015158 220.096887 
L 106.662962 221.343486 
L 110.310766 222.583494 
L 113.95857 223.9993 
L 117.606374 225.114318 
L 121.254178 226.415094 
L 124.901982 227.513776 
L 128.549785 228.634551 
L 132.197589 229.880615 
L 135.845393 231.008737 
L 139.493197 232.073711 
L 143.141001 233.111949 
L 146.788805 234.157462 
L 150.436609 235.296977 
L 154.084413 236.295138 
L 157.732217 237.238236 
L 161.38002 238.241692 
L 165.027824 239.13621 
L 168.675628 240.204088 
L 172.323432 241.194253 
L 175.971236 242.057645 
L 179.61904 243.034808 
L 183.266844 243.844302 
L 186.914648 244.980267 
L 190.562451 245.837713 
L 194.210255 246.717795 
L 197.858059 247.710125 
L 201.505863 248.664503 
L 205.153667 249.544502 
L 208.801471 250.623399 
L 212.449275 251.451756 
L 216.097079 252.376815 
L 219.744883 253.296939 
L 223.392686 254.246165 
L 227.04049 255.101278 
L 230.688294 255.918712 
L 234.336098 256.819418 
L 237.983902 257.593316 
L 241.631706 258.581633 
L 245.27951 259.344764 
L 248.927314 260.312394 
L 252.575117 261.010809 
L 256.222921 261.936525 
L 259.870725 262.602613 
L 263.518529 263.728358 
L 267.166333 264.335959 
L 270.814137 265.191419 
L 274.461941 265.962024 
L 278.109745 266.651065 
L 281.757549 267.556404 
L 285.405352 268.435373 
L 289.053156 269.01279 
L 292.70096 269.875219 
L 296.348764 270.544837 
L 299.996568 271.35322 
L 303.644372 272.216951 
L 307.292176 272.823651 
L 310.93998 273.645015 
L 314.587783 274.405134 
L 318.235587 275.174622 
L 321.883391 275.778509 
L 325.531195 276.584221 
L 329.178999 277.274587 
L 332.826803 278.089618 
L 336.474607 278.578675 
L 340.122411 279.315309 
L 343.770215 280.079418 
L 347.418018 280.663614 
L 351.065822 281.416201 
L 354.713626 282.097334 
L 358.36143 282.742212 
L 362.009234 283.4093 
L 365.657038 284.182295 
L 369.304842 284.748405 
L 372.952646 285.418938 
L 376.600449 285.978957 
L 380.248253 286.705091 
L 383.896057 287.33509 
L 387.543861 287.73765 
L 391.191665 288.544296 
L 394.839469 289.182454 
L 398.487273 289.684845 
" clip-path="url(#pbe2c4eae5d)" style="fill: none; stroke: #e24a33; stroke-width: 2; stroke-linecap: round"/>
   </g>
   <g id="line2d_22">
    <path d="M 73.832727 210.310485 
L 77.480531 208.199766 
L 81.128335 206.538381 
L 84.776139 204.653805 
L 88.423943 203.29614 
L 92.071747 201.373624 
L 95.719551 199.682203 
L 99.367354 198.160273 
L 103.015158 196.26281 
L 106.662962 194.940456 
L 110.310766 193.508538 
L 113.95857 191.697375 
L 117.606374 190.434461 
L 121.254178 188.786918 
L 124.901982 187.52612 
L 128.549785 186.146928 
L 132.197589 184.472088 
L 135.845393 182.996762 
L 139.493197 181.597628 
L 143.141001 180.313441 
L 146.788805 178.903812 
L 150.436609 177.209055 
L 154.084413 175.865713 
L 157.732217 174.615345 
L 161.38002 173.204809 
L 165.027824 172.036857 
L 168.675628 170.358089 
L 172.323432 168.898848 
L 175.971236 167.676372 
L 179.61904 166.174721 
L 183.266844 165.103933 
L 186.914648 163.117485 
L 190.562451 161.804405 
L 194.210255 160.410327 
L 197.858059 158.713653 
L 201.505863 157.024295 
L 205.153667 155.585263 
L 208.801471 153.442254 
L 212.449275 152.123255 
L 216.097079 150.508262 
L 219.744883 148.868755 
L 223.392686 147.026457 
L 227.04049 145.532578 
L 230.688294 144.130656 
L 234.336098 142.409644 
L 237.983902 141.11911 
L 241.631706 139.040266 
L 245.27951 137.679692 
L 248.927314 135.65862 
L 252.575117 134.503105 
L 256.222921 132.585124 
L 259.870725 131.530783 
L 263.518529 128.828472 
L 267.166333 127.905432 
L 270.814137 126.083474 
L 274.461941 124.640928 
L 278.109745 123.294461 
L 281.757549 121.351786 
L 285.405352 119.295856 
L 289.053156 118.478277 
L 292.70096 116.527177 
L 296.348764 115.228501 
L 299.996568 113.393779 
L 303.644372 111.329406 
L 307.292176 110.283356 
L 310.93998 108.243881 
L 314.587783 106.537064 
L 318.235587 104.800743 
L 321.883391 103.637918 
L 325.531195 101.680112 
L 329.178999 100.203137 
L 332.826803 98.073794 
L 336.474607 97.42662 
L 340.122411 95.585028 
L 343.770215 93.683182 
L 347.418018 92.425212 
L 351.065822 90.482464 
L 354.713626 88.834763 
L 358.36143 87.397487 
L 362.009234 85.773465 
L 365.657038 83.632525 
L 369.304842 82.477205 
L 372.952646 80.697754 
L 376.600449 79.470162 
L 380.248253 77.526766 
L 383.896057 75.696947 
L 387.543861 75.310729 
L 391.191665 72.744071 
L 394.839469 71.002305 
L 398.487273 69.981252 
" clip-path="url(#pbe2c4eae5d)" style="fill: none; stroke: #348abd; stroke-width: 2; stroke-linecap: round"/>
   </g>
   <g id="line2d_23">
    <path d="M 73.832727 261.587394 
L 77.480531 255.517657 
L 81.128335 250.049877 
L 84.776139 244.431608 
L 88.423943 239.013992 
L 92.071747 233.596376 
L 95.719551 228.580064 
L 99.367354 224.065384 
L 103.015158 221.958533 
L 106.662962 219.149398 
L 110.310766 216.691406 
L 113.95857 215.587817 
L 117.606374 213.982598 
L 121.254178 212.879009 
L 124.901982 211.073137 
L 128.549785 210.47118 
L 132.197589 209.819059 
L 135.845393 209.166939 
L 139.493197 208.916123 
L 143.141001 208.464655 
L 146.788805 207.762371 
L 150.436609 207.210577 
L 154.084413 206.909598 
L 157.732217 206.60862 
L 161.38002 206.407967 
L 165.027824 205.605357 
L 168.675628 205.354542 
L 172.323432 204.852911 
L 175.971236 204.551932 
L 179.61904 204.100464 
L 183.266844 203.949975 
L 186.914648 203.498507 
L 190.562451 203.39818 
L 194.210255 203.147365 
L 197.858059 203.197528 
L 201.505863 202.996875 
L 205.153667 203.047039 
L 208.801471 203.047039 
L 212.449275 203.448344 
L 216.097079 203.448344 
L 219.744883 203.648996 
L 223.392686 203.598833 
L 227.04049 203.749322 
L 230.688294 203.648996 
L 234.336098 203.448344 
L 237.983902 203.297854 
L 241.631706 203.247691 
L 245.27951 203.247691 
L 248.927314 203.297854 
L 252.575117 203.047039 
L 256.222921 203.097202 
L 259.870725 202.896549 
L 263.518529 202.74606 
L 267.166333 202.796223 
L 270.814137 202.74606 
L 274.461941 202.695897 
L 278.109745 202.796223 
L 281.757549 202.946712 
L 285.405352 203.147365 
L 289.053156 203.197528 
L 292.70096 203.247691 
L 296.348764 203.097202 
L 299.996568 202.846386 
L 303.644372 202.74606 
L 307.292176 202.796223 
L 310.93998 202.695897 
L 314.587783 202.545407 
L 318.235587 202.645734 
L 321.883391 202.595571 
L 325.531195 202.445081 
L 329.178999 202.394918 
L 332.826803 202.394918 
L 336.474607 202.344755 
L 340.122411 202.344755 
L 343.770215 202.294592 
L 347.418018 202.294592 
L 351.065822 202.445081 
L 354.713626 202.445081 
L 358.36143 202.445081 
L 362.009234 202.495244 
L 365.657038 202.495244 
L 369.304842 202.445081 
L 372.952646 202.445081 
L 376.600449 202.445081 
L 380.248253 202.394918 
L 383.896057 202.445081 
L 387.543861 202.495244 
L 391.191665 202.445081 
L 394.839469 202.445081 
L 398.487273 202.445081 
" clip-path="url(#pbe2c4eae5d)" style="fill: none; stroke: #988ed5; stroke-width: 2; stroke-linecap: round"/>
   </g>
   <g id="patch_3">
    <path d="M 57.6 307.584 
L 57.6 41.472 
" style="fill: none; stroke: #ffffff; stroke-linejoin: miter; stroke-linecap: square"/>
   </g>
   <g id="patch_4">
    <path d="M 414.72 307.584 
L 414.72 41.472 
" style="fill: none; stroke: #ffffff; stroke-linejoin: miter; stroke-linecap: square"/>
   </g>
   <g id="patch_5">
    <path d="M 57.6 307.584 
L 414.72 307.584 
" style="fill: none; stroke: #ffffff; stroke-linejoin: miter; stroke-linecap: square"/>
   </g>
   <g id="patch_6">
    <path d="M 57.6 41.472 
L 414.72 41.472 
" style="fill: none; stroke: #ffffff; stroke-linejoin: miter; stroke-linecap: square"/>
   </g>
   <g id="legend_1">
    <g id="patch_7">
     <path d="M 65.3 98.709812 
L 180.160625 98.709812 
Q 182.360625 98.709812 182.360625 96.509812 
L 182.360625 49.172 
Q 182.360625 46.972 180.160625 46.972 
L 65.3 46.972 
Q 63.1 46.972 63.1 49.172 
L 63.1 96.509812 
Q 63.1 98.709812 65.3 98.709812 
z
" style="fill: #eaeaf2; opacity: 0.8; stroke: #cccccc; stroke-linejoin: miter"/>
    </g>
    <g id="line2d_24">
     <path d="M 67.5 55.880281 
L 78.5 55.880281 
L 89.5 55.880281 
" style="fill: none; stroke: #e24a33; stroke-width: 2; stroke-linecap: round"/>
    </g>
    <g id="text_13">
     <!-- Discriminators -->
     <g style="fill: #262626" transform="translate(98.3 59.730281) scale(0.11 -0.11)">
      <defs>
       <path id="DejaVuSans-44" d="M 1259 4147 
L 1259 519 
L 2022 519 
Q 2988 519 3436 956 
Q 3884 1394 3884 2338 
Q 3884 3275 3436 3711 
Q 2988 4147 2022 4147 
L 1259 4147 
z
M 628 4666 
L 1925 4666 
Q 3281 4666 3915 4102 
Q 4550 3538 4550 2338 
Q 4550 1131 3912 565 
Q 3275 0 1925 0 
L 628 0 
L 628 4666 
z
" transform="scale(0.015625)"/>
       <path id="DejaVuSans-69" d="M 603 3500 
L 1178 3500 
L 1178 0 
L 603 0 
L 603 3500 
z
M 603 4863 
L 1178 4863 
L 1178 4134 
L 603 4134 
L 603 4863 
z
" transform="scale(0.015625)"/>
       <path id="DejaVuSans-72" d="M 2631 2963 
Q 2534 3019 2420 3045 
Q 2306 3072 2169 3072 
Q 1681 3072 1420 2755 
Q 1159 2438 1159 1844 
L 1159 0 
L 581 0 
L 581 3500 
L 1159 3500 
L 1159 2956 
Q 1341 3275 1631 3429 
Q 1922 3584 2338 3584 
Q 2397 3584 2469 3576 
Q 2541 3569 2628 3553 
L 2631 2963 
z
" transform="scale(0.015625)"/>
       <path id="DejaVuSans-6d" d="M 3328 2828 
Q 3544 3216 3844 3400 
Q 4144 3584 4550 3584 
Q 5097 3584 5394 3201 
Q 5691 2819 5691 2113 
L 5691 0 
L 5113 0 
L 5113 2094 
Q 5113 2597 4934 2840 
Q 4756 3084 4391 3084 
Q 3944 3084 3684 2787 
Q 3425 2491 3425 1978 
L 3425 0 
L 2847 0 
L 2847 2094 
Q 2847 2600 2669 2842 
Q 2491 3084 2119 3084 
Q 1678 3084 1418 2786 
Q 1159 2488 1159 1978 
L 1159 0 
L 581 0 
L 581 3500 
L 1159 3500 
L 1159 2956 
Q 1356 3278 1631 3431 
Q 1906 3584 2284 3584 
Q 2666 3584 2933 3390 
Q 3200 3197 3328 2828 
z
" transform="scale(0.015625)"/>
       <path id="DejaVuSans-6e" d="M 3513 2113 
L 3513 0 
L 2938 0 
L 2938 2094 
Q 2938 2591 2744 2837 
Q 2550 3084 2163 3084 
Q 1697 3084 1428 2787 
Q 1159 2491 1159 1978 
L 1159 0 
L 581 0 
L 581 3500 
L 1159 3500 
L 1159 2956 
Q 1366 3272 1645 3428 
Q 1925 3584 2291 3584 
Q 2894 3584 3203 3211 
Q 3513 2838 3513 2113 
z
" transform="scale(0.015625)"/>
       <path id="DejaVuSans-74" d="M 1172 4494 
L 1172 3500 
L 2356 3500 
L 2356 3053 
L 1172 3053 
L 1172 1153 
Q 1172 725 1289 603 
Q 1406 481 1766 481 
L 2356 481 
L 2356 0 
L 1766 0 
Q 1100 0 847 248 
Q 594 497 594 1153 
L 594 3053 
L 172 3053 
L 172 3500 
L 594 3500 
L 594 4494 
L 1172 4494 
z
" transform="scale(0.015625)"/>
      </defs>
      <use xlink:href="#DejaVuSans-44"/>
      <use xlink:href="#DejaVuSans-69" x="77.001953"/>
      <use xlink:href="#DejaVuSans-73" x="104.785156"/>
      <use xlink:href="#DejaVuSans-63" x="156.884766"/>
      <use xlink:href="#DejaVuSans-72" x="211.865234"/>
      <use xlink:href="#DejaVuSans-69" x="252.978516"/>
      <use xlink:href="#DejaVuSans-6d" x="280.761719"/>
      <use xlink:href="#DejaVuSans-69" x="378.173828"/>
      <use xlink:href="#DejaVuSans-6e" x="405.957031"/>
      <use xlink:href="#DejaVuSans-61" x="469.335938"/>
      <use xlink:href="#DejaVuSans-74" x="530.615234"/>
      <use xlink:href="#DejaVuSans-6f" x="569.824219"/>
      <use xlink:href="#DejaVuSans-72" x="631.005859"/>
      <use xlink:href="#DejaVuSans-73" x="672.119141"/>
     </g>
    </g>
    <g id="line2d_25">
     <path d="M 67.5 72.026219 
L 78.5 72.026219 
L 89.5 72.026219 
" style="fill: none; stroke: #348abd; stroke-width: 2; stroke-linecap: round"/>
    </g>
    <g id="text_14">
     <!-- Generator -->
     <g style="fill: #262626" transform="translate(98.3 75.876219) scale(0.11 -0.11)">
      <defs>
       <path id="DejaVuSans-47" d="M 3809 666 
L 3809 1919 
L 2778 1919 
L 2778 2438 
L 4434 2438 
L 4434 434 
Q 4069 175 3628 42 
Q 3188 -91 2688 -91 
Q 1594 -91 976 548 
Q 359 1188 359 2328 
Q 359 3472 976 4111 
Q 1594 4750 2688 4750 
Q 3144 4750 3555 4637 
Q 3966 4525 4313 4306 
L 4313 3634 
Q 3963 3931 3569 4081 
Q 3175 4231 2741 4231 
Q 1884 4231 1454 3753 
Q 1025 3275 1025 2328 
Q 1025 1384 1454 906 
Q 1884 428 2741 428 
Q 3075 428 3337 486 
Q 3600 544 3809 666 
z
" transform="scale(0.015625)"/>
      </defs>
      <use xlink:href="#DejaVuSans-47"/>
      <use xlink:href="#DejaVuSans-65" x="77.490234"/>
      <use xlink:href="#DejaVuSans-6e" x="139.013672"/>
      <use xlink:href="#DejaVuSans-65" x="202.392578"/>
      <use xlink:href="#DejaVuSans-72" x="263.916016"/>
      <use xlink:href="#DejaVuSans-61" x="305.029297"/>
      <use xlink:href="#DejaVuSans-74" x="366.308594"/>
      <use xlink:href="#DejaVuSans-6f" x="405.517578"/>
      <use xlink:href="#DejaVuSans-72" x="466.699219"/>
     </g>
    </g>
    <g id="line2d_26">
     <path d="M 67.5 88.172156 
L 78.5 88.172156 
L 89.5 88.172156 
" style="fill: none; stroke: #988ed5; stroke-width: 2; stroke-linecap: round"/>
    </g>
    <g id="text_15">
     <!-- ROC AUC -->
     <g style="fill: #262626" transform="translate(98.3 92.022156) scale(0.11 -0.11)">
      <defs>
       <path id="DejaVuSans-52" d="M 2841 2188 
Q 3044 2119 3236 1894 
Q 3428 1669 3622 1275 
L 4263 0 
L 3584 0 
L 2988 1197 
Q 2756 1666 2539 1819 
Q 2322 1972 1947 1972 
L 1259 1972 
L 1259 0 
L 628 0 
L 628 4666 
L 2053 4666 
Q 2853 4666 3247 4331 
Q 3641 3997 3641 3322 
Q 3641 2881 3436 2590 
Q 3231 2300 2841 2188 
z
M 1259 4147 
L 1259 2491 
L 2053 2491 
Q 2509 2491 2742 2702 
Q 2975 2913 2975 3322 
Q 2975 3731 2742 3939 
Q 2509 4147 2053 4147 
L 1259 4147 
z
" transform="scale(0.015625)"/>
       <path id="DejaVuSans-4f" d="M 2522 4238 
Q 1834 4238 1429 3725 
Q 1025 3213 1025 2328 
Q 1025 1447 1429 934 
Q 1834 422 2522 422 
Q 3209 422 3611 934 
Q 4013 1447 4013 2328 
Q 4013 3213 3611 3725 
Q 3209 4238 2522 4238 
z
M 2522 4750 
Q 3503 4750 4090 4092 
Q 4678 3434 4678 2328 
Q 4678 1225 4090 567 
Q 3503 -91 2522 -91 
Q 1538 -91 948 565 
Q 359 1222 359 2328 
Q 359 3434 948 4092 
Q 1538 4750 2522 4750 
z
" transform="scale(0.015625)"/>
       <path id="DejaVuSans-43" d="M 4122 4306 
L 4122 3641 
Q 3803 3938 3442 4084 
Q 3081 4231 2675 4231 
Q 1875 4231 1450 3742 
Q 1025 3253 1025 2328 
Q 1025 1406 1450 917 
Q 1875 428 2675 428 
Q 3081 428 3442 575 
Q 3803 722 4122 1019 
L 4122 359 
Q 3791 134 3420 21 
Q 3050 -91 2638 -91 
Q 1578 -91 968 557 
Q 359 1206 359 2328 
Q 359 3453 968 4101 
Q 1578 4750 2638 4750 
Q 3056 4750 3426 4639 
Q 3797 4528 4122 4306 
z
" transform="scale(0.015625)"/>
       <path id="DejaVuSans-20" transform="scale(0.015625)"/>
       <path id="DejaVuSans-41" d="M 2188 4044 
L 1331 1722 
L 3047 1722 
L 2188 4044 
z
M 1831 4666 
L 2547 4666 
L 4325 0 
L 3669 0 
L 3244 1197 
L 1141 1197 
L 716 0 
L 50 0 
L 1831 4666 
z
" transform="scale(0.015625)"/>
       <path id="DejaVuSans-55" d="M 556 4666 
L 1191 4666 
L 1191 1831 
Q 1191 1081 1462 751 
Q 1734 422 2344 422 
Q 2950 422 3222 751 
Q 3494 1081 3494 1831 
L 3494 4666 
L 4128 4666 
L 4128 1753 
Q 4128 841 3676 375 
Q 3225 -91 2344 -91 
Q 1459 -91 1007 375 
Q 556 841 556 1753 
L 556 4666 
z
" transform="scale(0.015625)"/>
      </defs>
      <use xlink:href="#DejaVuSans-52"/>
      <use xlink:href="#DejaVuSans-4f" x="69.482422"/>
      <use xlink:href="#DejaVuSans-43" x="148.193359"/>
      <use xlink:href="#DejaVuSans-20" x="218.017578"/>
      <use xlink:href="#DejaVuSans-41" x="249.804688"/>
      <use xlink:href="#DejaVuSans-55" x="318.212891"/>
      <use xlink:href="#DejaVuSans-43" x="391.40625"/>
     </g>
    </g>
   </g>
  </g>
 </g>
 <defs>
  <clipPath id="pbe2c4eae5d">
   <rect x="57.6" y="41.472" width="357.12" height="266.112"/>
  </clipPath>
 </defs>
</svg>
