<?xml version="1.0" encoding="utf-8" standalone="no"?>
<!DOCTYPE svg PUBLIC "-//W3C//DTD SVG 1.1//EN"
  "http://www.w3.org/Graphics/SVG/1.1/DTD/svg11.dtd">
<svg xmlns:xlink="http://www.w3.org/1999/xlink" width="460.8pt" height="345.6pt" viewBox="0 0 460.8 345.6" xmlns="http://www.w3.org/2000/svg" version="1.1">
 <metadata>
  <rdf:RDF xmlns:dc="http://purl.org/dc/elements/1.1/" xmlns:cc="http://creativecommons.org/ns#" xmlns:rdf="http://www.w3.org/1999/02/22-rdf-syntax-ns#">
   <cc:Work>
    <dc:type rdf:resource="http://purl.org/dc/dcmitype/StillImage"/>
    <dc:date>2023-07-09T11:48:24.199291</dc:date>
    <dc:format>image/svg+xml</dc:format>
    <dc:creator>
     <cc:Agent>
      <dc:title>Matplotlib v3.7.1, https://matplotlib.org/</dc:title>
     </cc:Agent>
    </dc:creator>
   </cc:Work>
  </rdf:RDF>
 </metadata>
 <defs>
  <style type="text/css">*{stroke-linejoin: round; stroke-linecap: butt}</style>
 </defs>
 <g id="figure_1">
  <g id="patch_1">
   <path d="M 0 345.6 
L 460.8 345.6 
L 460.8 0 
L 0 0 
z
" style="fill: #ffffff"/>
  </g>
  <g id="axes_1">
   <g id="patch_2">
    <path d="M 57.6 307.584 
L 414.72 307.584 
L 414.72 41.472 
L 57.6 41.472 
z
" style="fill: #e5e5e5"/>
   </g>
   <g id="matplotlib.axis_1">
    <g id="xtick_1">
     <g id="line2d_1">
      <path d="M 73.2304 307.584 
L 73.2304 41.472 
" clip-path="url(#p2873883998)" style="fill: none; stroke: #ffffff; stroke-width: 0.8; stroke-linecap: square"/>
     </g>
     <g id="line2d_2">
      <defs>
       <path id="m513f9d1d7e" d="M 0 0 
L 0 3.5 
" style="stroke: #555555; stroke-width: 0.8"/>
      </defs>
      <g>
       <use xlink:href="#m513f9d1d7e" x="73.2304" y="307.584" style="fill: #555555; stroke: #555555; stroke-width: 0.8"/>
      </g>
     </g>
     <g id="text_1">
      <!-- 0 -->
      <g style="fill: #555555" transform="translate(70.04915 322.182437) scale(0.1 -0.1)">
       <defs>
        <path id="DejaVuSans-30" d="M 2034 4250 
Q 1547 4250 1301 3770 
Q 1056 3291 1056 2328 
Q 1056 1369 1301 889 
Q 1547 409 2034 409 
Q 2525 409 2770 889 
Q 3016 1369 3016 2328 
Q 3016 3291 2770 3770 
Q 2525 4250 2034 4250 
z
M 2034 4750 
Q 2819 4750 3233 4129 
Q 3647 3509 3647 2328 
Q 3647 1150 3233 529 
Q 2819 -91 2034 -91 
Q 1250 -91 836 529 
Q 422 1150 422 2328 
Q 422 3509 836 4129 
Q 1250 4750 2034 4750 
z
" transform="scale(0.015625)"/>
       </defs>
       <use xlink:href="#DejaVuSans-30"/>
      </g>
     </g>
    </g>
    <g id="xtick_2">
     <g id="line2d_3">
      <path d="M 133.463154 307.584 
L 133.463154 41.472 
" clip-path="url(#p2873883998)" style="fill: none; stroke: #ffffff; stroke-width: 0.8; stroke-linecap: square"/>
     </g>
     <g id="line2d_4">
      <g>
       <use xlink:href="#m513f9d1d7e" x="133.463154" y="307.584" style="fill: #555555; stroke: #555555; stroke-width: 0.8"/>
      </g>
     </g>
     <g id="text_2">
      <!-- 100 -->
      <g style="fill: #555555" transform="translate(123.919404 322.182437) scale(0.1 -0.1)">
       <defs>
        <path id="DejaVuSans-31" d="M 794 531 
L 1825 531 
L 1825 4091 
L 703 3866 
L 703 4441 
L 1819 4666 
L 2450 4666 
L 2450 531 
L 3481 531 
L 3481 0 
L 794 0 
L 794 531 
z
" transform="scale(0.015625)"/>
       </defs>
       <use xlink:href="#DejaVuSans-31"/>
       <use xlink:href="#DejaVuSans-30" x="63.623047"/>
       <use xlink:href="#DejaVuSans-30" x="127.246094"/>
      </g>
     </g>
    </g>
    <g id="xtick_3">
     <g id="line2d_5">
      <path d="M 193.695908 307.584 
L 193.695908 41.472 
" clip-path="url(#p2873883998)" style="fill: none; stroke: #ffffff; stroke-width: 0.8; stroke-linecap: square"/>
     </g>
     <g id="line2d_6">
      <g>
       <use xlink:href="#m513f9d1d7e" x="193.695908" y="307.584" style="fill: #555555; stroke: #555555; stroke-width: 0.8"/>
      </g>
     </g>
     <g id="text_3">
      <!-- 200 -->
      <g style="fill: #555555" transform="translate(184.152158 322.182437) scale(0.1 -0.1)">
       <defs>
        <path id="DejaVuSans-32" d="M 1228 531 
L 3431 531 
L 3431 0 
L 469 0 
L 469 531 
Q 828 903 1448 1529 
Q 2069 2156 2228 2338 
Q 2531 2678 2651 2914 
Q 2772 3150 2772 3378 
Q 2772 3750 2511 3984 
Q 2250 4219 1831 4219 
Q 1534 4219 1204 4116 
Q 875 4013 500 3803 
L 500 4441 
Q 881 4594 1212 4672 
Q 1544 4750 1819 4750 
Q 2544 4750 2975 4387 
Q 3406 4025 3406 3419 
Q 3406 3131 3298 2873 
Q 3191 2616 2906 2266 
Q 2828 2175 2409 1742 
Q 1991 1309 1228 531 
z
" transform="scale(0.015625)"/>
       </defs>
       <use xlink:href="#DejaVuSans-32"/>
       <use xlink:href="#DejaVuSans-30" x="63.623047"/>
       <use xlink:href="#DejaVuSans-30" x="127.246094"/>
      </g>
     </g>
    </g>
    <g id="xtick_4">
     <g id="line2d_7">
      <path d="M 253.928663 307.584 
L 253.928663 41.472 
" clip-path="url(#p2873883998)" style="fill: none; stroke: #ffffff; stroke-width: 0.8; stroke-linecap: square"/>
     </g>
     <g id="line2d_8">
      <g>
       <use xlink:href="#m513f9d1d7e" x="253.928663" y="307.584" style="fill: #555555; stroke: #555555; stroke-width: 0.8"/>
      </g>
     </g>
     <g id="text_4">
      <!-- 300 -->
      <g style="fill: #555555" transform="translate(244.384913 322.182437) scale(0.1 -0.1)">
       <defs>
        <path id="DejaVuSans-33" d="M 2597 2516 
Q 3050 2419 3304 2112 
Q 3559 1806 3559 1356 
Q 3559 666 3084 287 
Q 2609 -91 1734 -91 
Q 1441 -91 1130 -33 
Q 819 25 488 141 
L 488 750 
Q 750 597 1062 519 
Q 1375 441 1716 441 
Q 2309 441 2620 675 
Q 2931 909 2931 1356 
Q 2931 1769 2642 2001 
Q 2353 2234 1838 2234 
L 1294 2234 
L 1294 2753 
L 1863 2753 
Q 2328 2753 2575 2939 
Q 2822 3125 2822 3475 
Q 2822 3834 2567 4026 
Q 2313 4219 1838 4219 
Q 1578 4219 1281 4162 
Q 984 4106 628 3988 
L 628 4550 
Q 988 4650 1302 4700 
Q 1616 4750 1894 4750 
Q 2613 4750 3031 4423 
Q 3450 4097 3450 3541 
Q 3450 3153 3228 2886 
Q 3006 2619 2597 2516 
z
" transform="scale(0.015625)"/>
       </defs>
       <use xlink:href="#DejaVuSans-33"/>
       <use xlink:href="#DejaVuSans-30" x="63.623047"/>
       <use xlink:href="#DejaVuSans-30" x="127.246094"/>
      </g>
     </g>
    </g>
    <g id="xtick_5">
     <g id="line2d_9">
      <path d="M 314.161417 307.584 
L 314.161417 41.472 
" clip-path="url(#p2873883998)" style="fill: none; stroke: #ffffff; stroke-width: 0.8; stroke-linecap: square"/>
     </g>
     <g id="line2d_10">
      <g>
       <use xlink:href="#m513f9d1d7e" x="314.161417" y="307.584" style="fill: #555555; stroke: #555555; stroke-width: 0.8"/>
      </g>
     </g>
     <g id="text_5">
      <!-- 400 -->
      <g style="fill: #555555" transform="translate(304.617667 322.182437) scale(0.1 -0.1)">
       <defs>
        <path id="DejaVuSans-34" d="M 2419 4116 
L 825 1625 
L 2419 1625 
L 2419 4116 
z
M 2253 4666 
L 3047 4666 
L 3047 1625 
L 3713 1625 
L 3713 1100 
L 3047 1100 
L 3047 0 
L 2419 0 
L 2419 1100 
L 313 1100 
L 313 1709 
L 2253 4666 
z
" transform="scale(0.015625)"/>
       </defs>
       <use xlink:href="#DejaVuSans-34"/>
       <use xlink:href="#DejaVuSans-30" x="63.623047"/>
       <use xlink:href="#DejaVuSans-30" x="127.246094"/>
      </g>
     </g>
    </g>
    <g id="xtick_6">
     <g id="line2d_11">
      <path d="M 374.394171 307.584 
L 374.394171 41.472 
" clip-path="url(#p2873883998)" style="fill: none; stroke: #ffffff; stroke-width: 0.8; stroke-linecap: square"/>
     </g>
     <g id="line2d_12">
      <g>
       <use xlink:href="#m513f9d1d7e" x="374.394171" y="307.584" style="fill: #555555; stroke: #555555; stroke-width: 0.8"/>
      </g>
     </g>
     <g id="text_6">
      <!-- 500 -->
      <g style="fill: #555555" transform="translate(364.850421 322.182437) scale(0.1 -0.1)">
       <defs>
        <path id="DejaVuSans-35" d="M 691 4666 
L 3169 4666 
L 3169 4134 
L 1269 4134 
L 1269 2991 
Q 1406 3038 1543 3061 
Q 1681 3084 1819 3084 
Q 2600 3084 3056 2656 
Q 3513 2228 3513 1497 
Q 3513 744 3044 326 
Q 2575 -91 1722 -91 
Q 1428 -91 1123 -41 
Q 819 9 494 109 
L 494 744 
Q 775 591 1075 516 
Q 1375 441 1709 441 
Q 2250 441 2565 725 
Q 2881 1009 2881 1497 
Q 2881 1984 2565 2268 
Q 2250 2553 1709 2553 
Q 1456 2553 1204 2497 
Q 953 2441 691 2322 
L 691 4666 
z
" transform="scale(0.015625)"/>
       </defs>
       <use xlink:href="#DejaVuSans-35"/>
       <use xlink:href="#DejaVuSans-30" x="63.623047"/>
       <use xlink:href="#DejaVuSans-30" x="127.246094"/>
      </g>
     </g>
    </g>
    <g id="text_7">
     <!-- Epoch -->
     <g style="fill: #555555" transform="translate(217.786875 337.38025) scale(0.12 -0.12)">
      <defs>
       <path id="DejaVuSans-45" d="M 628 4666 
L 3578 4666 
L 3578 4134 
L 1259 4134 
L 1259 2753 
L 3481 2753 
L 3481 2222 
L 1259 2222 
L 1259 531 
L 3634 531 
L 3634 0 
L 628 0 
L 628 4666 
z
" transform="scale(0.015625)"/>
       <path id="DejaVuSans-70" d="M 1159 525 
L 1159 -1331 
L 581 -1331 
L 581 3500 
L 1159 3500 
L 1159 2969 
Q 1341 3281 1617 3432 
Q 1894 3584 2278 3584 
Q 2916 3584 3314 3078 
Q 3713 2572 3713 1747 
Q 3713 922 3314 415 
Q 2916 -91 2278 -91 
Q 1894 -91 1617 61 
Q 1341 213 1159 525 
z
M 3116 1747 
Q 3116 2381 2855 2742 
Q 2594 3103 2138 3103 
Q 1681 3103 1420 2742 
Q 1159 2381 1159 1747 
Q 1159 1113 1420 752 
Q 1681 391 2138 391 
Q 2594 391 2855 752 
Q 3116 1113 3116 1747 
z
" transform="scale(0.015625)"/>
       <path id="DejaVuSans-6f" d="M 1959 3097 
Q 1497 3097 1228 2736 
Q 959 2375 959 1747 
Q 959 1119 1226 758 
Q 1494 397 1959 397 
Q 2419 397 2687 759 
Q 2956 1122 2956 1747 
Q 2956 2369 2687 2733 
Q 2419 3097 1959 3097 
z
M 1959 3584 
Q 2709 3584 3137 3096 
Q 3566 2609 3566 1747 
Q 3566 888 3137 398 
Q 2709 -91 1959 -91 
Q 1206 -91 779 398 
Q 353 888 353 1747 
Q 353 2609 779 3096 
Q 1206 3584 1959 3584 
z
" transform="scale(0.015625)"/>
       <path id="DejaVuSans-63" d="M 3122 3366 
L 3122 2828 
Q 2878 2963 2633 3030 
Q 2388 3097 2138 3097 
Q 1578 3097 1268 2742 
Q 959 2388 959 1747 
Q 959 1106 1268 751 
Q 1578 397 2138 397 
Q 2388 397 2633 464 
Q 2878 531 3122 666 
L 3122 134 
Q 2881 22 2623 -34 
Q 2366 -91 2075 -91 
Q 1284 -91 818 406 
Q 353 903 353 1747 
Q 353 2603 823 3093 
Q 1294 3584 2113 3584 
Q 2378 3584 2631 3529 
Q 2884 3475 3122 3366 
z
" transform="scale(0.015625)"/>
       <path id="DejaVuSans-68" d="M 3513 2113 
L 3513 0 
L 2938 0 
L 2938 2094 
Q 2938 2591 2744 2837 
Q 2550 3084 2163 3084 
Q 1697 3084 1428 2787 
Q 1159 2491 1159 1978 
L 1159 0 
L 581 0 
L 581 4863 
L 1159 4863 
L 1159 2956 
Q 1366 3272 1645 3428 
Q 1925 3584 2291 3584 
Q 2894 3584 3203 3211 
Q 3513 2838 3513 2113 
z
" transform="scale(0.015625)"/>
      </defs>
      <use xlink:href="#DejaVuSans-45"/>
      <use xlink:href="#DejaVuSans-70" x="63.183594"/>
      <use xlink:href="#DejaVuSans-6f" x="126.660156"/>
      <use xlink:href="#DejaVuSans-63" x="187.841797"/>
      <use xlink:href="#DejaVuSans-68" x="242.822266"/>
     </g>
    </g>
   </g>
   <g id="matplotlib.axis_2">
    <g id="ytick_1">
     <g id="line2d_13">
      <path d="M 57.6 306.251488 
L 414.72 306.251488 
" clip-path="url(#p2873883998)" style="fill: none; stroke: #ffffff; stroke-width: 0.8; stroke-linecap: square"/>
     </g>
     <g id="line2d_14">
      <defs>
       <path id="m9356c3bc9c" d="M 0 0 
L -3.5 0 
" style="stroke: #555555; stroke-width: 0.8"/>
      </defs>
      <g>
       <use xlink:href="#m9356c3bc9c" x="57.6" y="306.251488" style="fill: #555555; stroke: #555555; stroke-width: 0.8"/>
      </g>
     </g>
     <g id="text_8">
      <!-- 0.4 -->
      <g style="fill: #555555" transform="translate(34.696875 310.050707) scale(0.1 -0.1)">
       <defs>
        <path id="DejaVuSans-2e" d="M 684 794 
L 1344 794 
L 1344 0 
L 684 0 
L 684 794 
z
" transform="scale(0.015625)"/>
       </defs>
       <use xlink:href="#DejaVuSans-30"/>
       <use xlink:href="#DejaVuSans-2e" x="63.623047"/>
       <use xlink:href="#DejaVuSans-34" x="95.410156"/>
      </g>
     </g>
    </g>
    <g id="ytick_2">
     <g id="line2d_15">
      <path d="M 57.6 250.051035 
L 414.72 250.051035 
" clip-path="url(#p2873883998)" style="fill: none; stroke: #ffffff; stroke-width: 0.8; stroke-linecap: square"/>
     </g>
     <g id="line2d_16">
      <g>
       <use xlink:href="#m9356c3bc9c" x="57.6" y="250.051035" style="fill: #555555; stroke: #555555; stroke-width: 0.8"/>
      </g>
     </g>
     <g id="text_9">
      <!-- 0.5 -->
      <g style="fill: #555555" transform="translate(34.696875 253.850254) scale(0.1 -0.1)">
       <use xlink:href="#DejaVuSans-30"/>
       <use xlink:href="#DejaVuSans-2e" x="63.623047"/>
       <use xlink:href="#DejaVuSans-35" x="95.410156"/>
      </g>
     </g>
    </g>
    <g id="ytick_3">
     <g id="line2d_17">
      <path d="M 57.6 193.850583 
L 414.72 193.850583 
" clip-path="url(#p2873883998)" style="fill: none; stroke: #ffffff; stroke-width: 0.8; stroke-linecap: square"/>
     </g>
     <g id="line2d_18">
      <g>
       <use xlink:href="#m9356c3bc9c" x="57.6" y="193.850583" style="fill: #555555; stroke: #555555; stroke-width: 0.8"/>
      </g>
     </g>
     <g id="text_10">
      <!-- 0.6 -->
      <g style="fill: #555555" transform="translate(34.696875 197.649802) scale(0.1 -0.1)">
       <defs>
        <path id="DejaVuSans-36" d="M 2113 2584 
Q 1688 2584 1439 2293 
Q 1191 2003 1191 1497 
Q 1191 994 1439 701 
Q 1688 409 2113 409 
Q 2538 409 2786 701 
Q 3034 994 3034 1497 
Q 3034 2003 2786 2293 
Q 2538 2584 2113 2584 
z
M 3366 4563 
L 3366 3988 
Q 3128 4100 2886 4159 
Q 2644 4219 2406 4219 
Q 1781 4219 1451 3797 
Q 1122 3375 1075 2522 
Q 1259 2794 1537 2939 
Q 1816 3084 2150 3084 
Q 2853 3084 3261 2657 
Q 3669 2231 3669 1497 
Q 3669 778 3244 343 
Q 2819 -91 2113 -91 
Q 1303 -91 875 529 
Q 447 1150 447 2328 
Q 447 3434 972 4092 
Q 1497 4750 2381 4750 
Q 2619 4750 2861 4703 
Q 3103 4656 3366 4563 
z
" transform="scale(0.015625)"/>
       </defs>
       <use xlink:href="#DejaVuSans-30"/>
       <use xlink:href="#DejaVuSans-2e" x="63.623047"/>
       <use xlink:href="#DejaVuSans-36" x="95.410156"/>
      </g>
     </g>
    </g>
    <g id="ytick_4">
     <g id="line2d_19">
      <path d="M 57.6 137.650131 
L 414.72 137.650131 
" clip-path="url(#p2873883998)" style="fill: none; stroke: #ffffff; stroke-width: 0.8; stroke-linecap: square"/>
     </g>
     <g id="line2d_20">
      <g>
       <use xlink:href="#m9356c3bc9c" x="57.6" y="137.650131" style="fill: #555555; stroke: #555555; stroke-width: 0.8"/>
      </g>
     </g>
     <g id="text_11">
      <!-- 0.7 -->
      <g style="fill: #555555" transform="translate(34.696875 141.449349) scale(0.1 -0.1)">
       <defs>
        <path id="DejaVuSans-37" d="M 525 4666 
L 3525 4666 
L 3525 4397 
L 1831 0 
L 1172 0 
L 2766 4134 
L 525 4134 
L 525 4666 
z
" transform="scale(0.015625)"/>
       </defs>
       <use xlink:href="#DejaVuSans-30"/>
       <use xlink:href="#DejaVuSans-2e" x="63.623047"/>
       <use xlink:href="#DejaVuSans-37" x="95.410156"/>
      </g>
     </g>
    </g>
    <g id="ytick_5">
     <g id="line2d_21">
      <path d="M 57.6 81.449678 
L 414.72 81.449678 
" clip-path="url(#p2873883998)" style="fill: none; stroke: #ffffff; stroke-width: 0.8; stroke-linecap: square"/>
     </g>
     <g id="line2d_22">
      <g>
       <use xlink:href="#m9356c3bc9c" x="57.6" y="81.449678" style="fill: #555555; stroke: #555555; stroke-width: 0.8"/>
      </g>
     </g>
     <g id="text_12">
      <!-- 0.8 -->
      <g style="fill: #555555" transform="translate(34.696875 85.248897) scale(0.1 -0.1)">
       <defs>
        <path id="DejaVuSans-38" d="M 2034 2216 
Q 1584 2216 1326 1975 
Q 1069 1734 1069 1313 
Q 1069 891 1326 650 
Q 1584 409 2034 409 
Q 2484 409 2743 651 
Q 3003 894 3003 1313 
Q 3003 1734 2745 1975 
Q 2488 2216 2034 2216 
z
M 1403 2484 
Q 997 2584 770 2862 
Q 544 3141 544 3541 
Q 544 4100 942 4425 
Q 1341 4750 2034 4750 
Q 2731 4750 3128 4425 
Q 3525 4100 3525 3541 
Q 3525 3141 3298 2862 
Q 3072 2584 2669 2484 
Q 3125 2378 3379 2068 
Q 3634 1759 3634 1313 
Q 3634 634 3220 271 
Q 2806 -91 2034 -91 
Q 1263 -91 848 271 
Q 434 634 434 1313 
Q 434 1759 690 2068 
Q 947 2378 1403 2484 
z
M 1172 3481 
Q 1172 3119 1398 2916 
Q 1625 2713 2034 2713 
Q 2441 2713 2670 2916 
Q 2900 3119 2900 3481 
Q 2900 3844 2670 4047 
Q 2441 4250 2034 4250 
Q 1625 4250 1398 4047 
Q 1172 3844 1172 3481 
z
" transform="scale(0.015625)"/>
       </defs>
       <use xlink:href="#DejaVuSans-30"/>
       <use xlink:href="#DejaVuSans-2e" x="63.623047"/>
       <use xlink:href="#DejaVuSans-38" x="95.410156"/>
      </g>
     </g>
    </g>
    <g id="text_13">
     <!-- Loss -->
     <g style="fill: #555555" transform="translate(28.20125 187.688625) rotate(-90) scale(0.12 -0.12)">
      <defs>
       <path id="DejaVuSans-4c" d="M 628 4666 
L 1259 4666 
L 1259 531 
L 3531 531 
L 3531 0 
L 628 0 
L 628 4666 
z
" transform="scale(0.015625)"/>
       <path id="DejaVuSans-73" d="M 2834 3397 
L 2834 2853 
Q 2591 2978 2328 3040 
Q 2066 3103 1784 3103 
Q 1356 3103 1142 2972 
Q 928 2841 928 2578 
Q 928 2378 1081 2264 
Q 1234 2150 1697 2047 
L 1894 2003 
Q 2506 1872 2764 1633 
Q 3022 1394 3022 966 
Q 3022 478 2636 193 
Q 2250 -91 1575 -91 
Q 1294 -91 989 -36 
Q 684 19 347 128 
L 347 722 
Q 666 556 975 473 
Q 1284 391 1588 391 
Q 1994 391 2212 530 
Q 2431 669 2431 922 
Q 2431 1156 2273 1281 
Q 2116 1406 1581 1522 
L 1381 1569 
Q 847 1681 609 1914 
Q 372 2147 372 2553 
Q 372 3047 722 3315 
Q 1072 3584 1716 3584 
Q 2034 3584 2315 3537 
Q 2597 3491 2834 3397 
z
" transform="scale(0.015625)"/>
      </defs>
      <use xlink:href="#DejaVuSans-4c"/>
      <use xlink:href="#DejaVuSans-6f" x="53.962891"/>
      <use xlink:href="#DejaVuSans-73" x="115.144531"/>
      <use xlink:href="#DejaVuSans-73" x="167.244141"/>
     </g>
    </g>
   </g>
   <g id="line2d_23">
    <path d="M 73.832727 112.799185 
L 74.435055 112.873416 
L 75.037382 112.094921 
L 75.63971 113.247489 
L 76.242037 113.525825 
L 76.844365 114.010475 
L 77.446693 116.749412 
L 78.651348 116.337151 
L 79.253675 117.982175 
L 80.45833 119.095115 
L 81.060658 118.96531 
L 81.662985 119.728665 
L 82.265313 119.98047 
L 82.86764 119.528681 
L 83.469968 121.881285 
L 84.674623 123.963793 
L 85.276951 122.284869 
L 85.879278 123.815564 
L 87.083933 125.578334 
L 87.686261 125.295744 
L 88.288588 126.270538 
L 88.890916 126.416456 
L 89.493243 126.681928 
L 90.095571 127.594148 
L 90.697898 126.307654 
L 91.300226 128.103955 
L 91.902554 129.059823 
L 92.504881 129.318997 
L 93.107209 127.638667 
L 93.709536 129.367335 
L 94.914191 129.965376 
L 95.516519 129.628218 
L 96.118846 131.227282 
L 96.721174 129.802542 
L 97.323501 132.216045 
L 97.925829 131.462539 
L 99.130484 131.699237 
L 99.732812 132.729102 
L 100.335139 131.289019 
L 100.937467 133.877617 
L 101.539794 133.371696 
L 102.142122 132.659158 
L 102.744449 134.258859 
L 103.346777 133.671068 
L 103.949104 135.052998 
L 104.551432 134.952671 
L 105.153759 134.495154 
L 105.756087 134.458708 
L 106.358415 135.690634 
L 106.960742 136.241409 
L 108.767725 135.600289 
L 109.370052 135.2906 
L 109.97238 138.056034 
L 110.574707 136.691054 
L 111.177035 137.418264 
L 111.779362 137.554902 
L 112.38169 138.596559 
L 112.984018 138.351219 
L 113.586345 138.346864 
L 114.188673 137.908876 
L 114.791 137.16006 
L 115.393328 137.941068 
L 115.995655 137.99356 
L 116.597983 139.648566 
L 117.20031 138.226639 
L 117.802638 139.238817 
L 118.404965 138.868094 
L 119.007293 139.581804 
L 119.609621 138.86394 
L 120.211948 140.049806 
L 120.814276 139.56941 
L 121.416603 140.724323 
L 122.018931 138.90655 
L 122.621258 140.528694 
L 123.223586 139.801585 
L 123.825913 140.802273 
L 124.428241 139.540501 
L 125.030568 141.297978 
L 125.632896 139.805136 
L 126.235223 141.236911 
L 126.837551 141.28756 
L 128.042206 140.463306 
L 128.644534 141.738042 
L 129.246861 140.15901 
L 129.849189 142.113154 
L 130.451516 140.603194 
L 131.053844 141.567403 
L 131.656171 141.131861 
L 132.258499 140.162594 
L 132.860826 142.330791 
L 133.463154 141.191621 
L 134.065482 142.203665 
L 134.667809 140.898915 
L 135.270137 141.850026 
L 135.872464 140.938711 
L 136.474792 143.022224 
L 137.077119 142.148226 
L 137.679447 141.961843 
L 138.281774 141.321326 
L 138.884102 142.101664 
L 139.486429 141.973098 
L 140.691084 142.310089 
L 141.293412 142.048 
L 141.89574 142.221754 
L 142.498067 142.262119 
L 143.100395 141.620229 
L 144.30505 142.661584 
L 144.907377 142.511647 
L 145.509705 141.505163 
L 146.112032 142.53543 
L 146.71436 143.301967 
L 147.919015 141.957689 
L 148.521343 143.058134 
L 149.12367 143.495485 
L 149.725998 143.519872 
L 150.328325 142.437884 
L 150.930653 142.20266 
L 151.53298 144.036144 
L 152.737635 142.436577 
L 153.339963 143.700929 
L 153.94229 142.033629 
L 154.544618 141.894746 
L 155.146946 143.436328 
L 155.749273 143.289673 
L 156.351601 143.027316 
L 156.953928 142.234919 
L 157.556256 142.846259 
L 158.760911 142.801372 
L 159.363238 143.053512 
L 159.965566 141.845303 
L 160.567893 142.886323 
L 161.170221 142.758461 
L 161.772548 143.858537 
L 162.374876 143.006782 
L 162.977204 142.737223 
L 163.579531 142.726537 
L 164.181859 143.039543 
L 164.784186 142.961023 
L 165.386514 142.288482 
L 165.988841 142.599077 
L 166.591169 143.075754 
L 167.193496 143.801457 
L 167.795824 143.031001 
L 168.398151 143.291917 
L 169.000479 142.260043 
L 169.602807 143.91669 
L 170.205134 142.833831 
L 170.807462 142.073927 
L 171.409789 143.566669 
L 172.012117 142.647146 
L 172.614444 143.693526 
L 173.216772 142.64105 
L 173.819099 142.404587 
L 174.421427 143.662909 
L 175.626082 142.321344 
L 176.22841 143.305652 
L 176.830737 142.537273 
L 177.433065 142.921931 
L 178.035392 142.405491 
L 178.63772 143.032776 
L 179.240047 143.212159 
L 179.842375 143.086373 
L 180.444702 142.486456 
L 181.04703 142.549901 
L 181.649357 143.344275 
L 182.251685 142.688617 
L 182.854012 142.80231 
L 183.45634 141.781523 
L 184.058668 142.017818 
L 184.660995 141.839139 
L 185.263323 141.946802 
L 185.86565 142.59499 
L 186.467978 141.78246 
L 187.070305 141.717005 
L 187.672633 141.498497 
L 188.27496 140.938007 
L 188.877288 141.510724 
L 189.479615 139.830259 
L 190.081943 140.464914 
L 190.684271 140.334841 
L 191.286598 140.055165 
L 192.491253 139.262098 
L 193.093581 139.449688 
L 193.695908 138.460422 
L 194.298236 139.083319 
L 194.900563 138.792288 
L 195.502891 137.824897 
L 196.105218 139.238047 
L 196.707546 139.318208 
L 197.912201 138.241479 
L 198.514529 138.155523 
L 199.116856 139.086702 
L 199.719184 137.998785 
L 200.321511 137.836621 
L 200.923839 136.991666 
L 201.526166 137.934703 
L 202.128494 137.854509 
L 202.730821 136.793089 
L 203.333149 138.029135 
L 203.935476 136.728471 
L 204.537804 137.875311 
L 205.140132 136.110901 
L 205.742459 136.710918 
L 206.344787 137.478694 
L 206.947114 136.727734 
L 207.549442 136.596757 
L 208.151769 136.599303 
L 208.754097 135.340679 
L 209.356424 136.821964 
L 209.958752 135.395985 
L 210.561079 135.14974 
L 211.163407 135.723696 
L 211.765735 135.29338 
L 212.368062 135.678675 
L 212.97039 135.556675 
L 213.572717 135.16046 
L 214.175045 134.441959 
L 214.777372 134.120076 
L 215.3797 135.006871 
L 215.982027 133.525251 
L 216.584355 135.421108 
L 217.186682 135.198748 
L 217.78901 134.302239 
L 218.391337 133.948331 
L 218.993665 134.459077 
L 219.595993 134.578095 
L 220.19832 134.579737 
L 220.800648 134.370173 
L 222.005303 134.39409 
L 222.60763 135.091621 
L 223.209958 134.296243 
L 223.812285 133.983437 
L 224.414613 134.44484 
L 225.01694 131.840029 
L 225.619268 133.568899 
L 226.221596 133.356052 
L 226.823923 133.694751 
L 227.426251 132.968479 
L 228.028578 132.985061 
L 228.630906 134.33155 
L 229.233233 133.026096 
L 229.835561 132.199698 
L 230.437888 132.245926 
L 231.040216 132.850164 
L 231.642543 132.777942 
L 232.244871 133.334211 
L 232.847199 133.705571 
L 233.449526 132.819915 
L 234.051854 132.983319 
L 234.654181 131.862339 
L 235.256509 132.590353 
L 235.858836 131.482337 
L 236.461164 131.940289 
L 237.063491 131.937911 
L 237.665819 132.368395 
L 238.268146 131.887396 
L 238.870474 132.100845 
L 240.075129 131.323489 
L 241.279784 131.924746 
L 241.882112 131.314411 
L 242.484439 132.856495 
L 243.086767 131.355614 
L 243.689094 131.59 
L 244.291422 131.139886 
L 244.893749 131.39427 
L 245.496077 131.903006 
L 246.098404 131.191439 
L 246.700732 131.446226 
L 247.905387 130.960738 
L 248.507715 131.408574 
L 249.110042 132.312352 
L 249.71237 131.132248 
L 250.314697 131.468301 
L 250.917025 130.620264 
L 251.519352 130.067076 
L 252.12168 130.449893 
L 253.326335 129.690022 
L 253.928663 129.472653 
L 254.53099 129.976967 
L 255.133318 130.192359 
L 255.735645 129.45366 
L 256.337973 130.537959 
L 256.9403 129.952145 
L 257.542628 129.65495 
L 258.144955 129.888163 
L 258.747283 129.399091 
L 259.34961 130.434617 
L 259.951938 130.266692 
L 260.554265 129.445486 
L 261.156593 130.944458 
L 261.758921 128.878431 
L 262.361248 130.993466 
L 262.963576 129.134155 
L 263.565903 129.361104 
L 264.168231 128.921978 
L 264.770558 128.863155 
L 265.372886 129.300741 
L 265.975213 130.406077 
L 267.179868 129.310087 
L 267.782196 130.669807 
L 268.384524 128.972661 
L 268.986851 129.150669 
L 269.589179 128.86684 
L 270.191506 129.803849 
L 270.793834 129.335411 
L 271.396161 129.785894 
L 271.998489 128.936684 
L 272.600816 130.66907 
L 273.203144 128.810697 
L 273.805471 127.765725 
L 274.407799 128.890222 
L 275.010126 128.344706 
L 275.612454 128.663808 
L 276.214782 128.586629 
L 276.817109 127.597397 
L 277.419437 127.505076 
L 278.021764 128.204047 
L 278.624092 126.886367 
L 279.226419 127.706165 
L 279.828747 127.471411 
L 280.431074 128.600263 
L 281.635729 126.299949 
L 282.238057 127.60413 
L 282.840385 128.462451 
L 284.04504 126.761017 
L 284.647367 127.464075 
L 285.249695 127.405788 
L 285.852022 128.408854 
L 286.45435 127.553615 
L 287.056677 127.371117 
L 287.659005 126.40778 
L 288.261332 126.878629 
L 288.86366 128.773783 
L 289.465988 127.376109 
L 290.068315 128.072835 
L 290.670643 126.317938 
L 291.875298 126.044828 
L 292.477625 127.451245 
L 293.079953 126.016455 
L 293.68228 126.563177 
L 294.284608 128.16807 
L 294.886935 129.120722 
L 295.489263 128.237847 
L 296.09159 125.646703 
L 296.693918 127.631197 
L 297.898573 126.226689 
L 298.500901 126.476183 
L 299.103228 127.5913 
L 299.705556 126.512059 
L 300.307883 126.503149 
L 300.910211 126.687656 
L 301.512538 126.616004 
L 302.114866 126.85786 
L 302.717193 126.755691 
L 303.319521 124.861944 
L 303.921849 125.014628 
L 304.524176 127.086216 
L 305.126504 125.683551 
L 305.728831 125.150496 
L 306.331159 125.172638 
L 307.535814 126.490855 
L 308.138141 124.551953 
L 308.740469 125.616187 
L 309.342796 126.399707 
L 309.945124 126.028514 
L 310.547452 124.533395 
L 311.149779 126.180462 
L 311.752107 125.618766 
L 312.354434 125.957264 
L 312.956762 124.801949 
L 313.559089 124.015079 
L 314.161417 124.036317 
L 314.763744 125.143294 
L 315.366072 126.657374 
L 315.968399 126.139192 
L 316.570727 125.105877 
L 317.173054 125.840322 
L 317.775382 124.962003 
L 318.37771 125.498776 
L 318.980037 127.03282 
L 320.184692 124.128068 
L 320.78702 127.328742 
L 321.389347 122.376855 
L 321.991675 123.213704 
L 322.594002 126.192186 
L 323.19633 125.725122 
L 323.798657 123.745352 
L 324.400985 125.465311 
L 325.003313 123.82826 
L 325.60564 123.94557 
L 326.207968 125.285962 
L 326.810295 123.697484 
L 327.412623 124.657739 
L 328.01495 124.1889 
L 328.617278 124.667554 
L 329.219605 123.400791 
L 329.821933 124.995869 
L 330.42426 124.420674 
L 331.026588 124.452463 
L 331.628916 123.642245 
L 332.231243 123.72053 
L 332.833571 123.053114 
L 333.435898 124.044189 
L 334.038226 123.479478 
L 334.640553 124.528169 
L 335.242881 122.008209 
L 335.845208 122.980591 
L 336.447536 122.482575 
L 337.049863 123.615145 
L 337.652191 123.963525 
L 338.254518 121.797707 
L 338.856846 123.78019 
L 339.459174 124.435145 
L 340.061501 123.229482 
L 341.266156 124.299243 
L 341.868484 121.281368 
L 342.470811 121.933006 
L 343.073139 123.940914 
L 343.675466 122.254922 
L 344.277794 123.017841 
L 344.880121 123.1858 
L 345.482449 122.019732 
L 346.084777 123.96376 
L 346.687104 123.327497 
L 347.289432 122.169402 
L 347.891759 123.701001 
L 348.494087 123.60657 
L 349.096414 121.677348 
L 349.698742 123.160576 
L 350.301069 121.13813 
L 350.903397 122.483145 
L 351.505724 121.485103 
L 352.108052 122.922472 
L 352.710379 122.57168 
L 353.312707 123.298622 
L 353.915035 121.20047 
L 354.517362 122.418694 
L 355.11969 122.17044 
L 355.722017 122.438559 
L 356.926672 121.538499 
L 357.529 122.029949 
L 358.131327 120.806901 
L 359.335982 122.823686 
L 359.93831 121.6268 
L 360.540638 120.933423 
L 361.142965 120.679708 
L 361.745293 120.765832 
L 362.34762 122.375214 
L 362.949948 121.392447 
L 363.552275 122.473196 
L 364.154603 121.038138 
L 364.75693 120.848237 
L 365.359258 122.072056 
L 365.961585 121.551865 
L 366.563913 119.370369 
L 367.166241 121.443934 
L 367.768568 120.79464 
L 368.370896 122.270231 
L 368.973223 118.971239 
L 369.575551 119.103356 
L 370.177878 119.864834 
L 370.780206 118.7666 
L 371.382533 121.229278 
L 371.984861 119.972799 
L 372.587188 121.061888 
L 373.189516 119.071198 
L 373.791843 121.347191 
L 374.394171 119.555446 
L 374.996499 122.254051 
L 375.598826 119.268602 
L 376.201154 118.685601 
L 376.803481 120.018121 
L 377.405809 123.112373 
L 378.008136 119.050295 
L 378.610464 118.611236 
L 379.212791 119.43837 
L 379.815119 119.147506 
L 380.417446 119.266358 
L 381.019774 117.661866 
L 381.622102 119.426478 
L 382.224429 120.29917 
L 382.826757 119.652121 
L 384.031412 119.028622 
L 384.633739 120.064818 
L 385.236067 118.302182 
L 385.838394 119.420214 
L 386.440722 119.370671 
L 387.043049 120.072623 
L 387.645377 120.465019 
L 388.247705 118.960219 
L 388.850032 120.991408 
L 389.45236 119.098633 
L 390.054687 119.644919 
L 390.657015 119.554273 
L 391.259342 117.42815 
L 391.86167 119.194504 
L 392.463997 120.288384 
L 393.066325 119.49046 
L 393.668652 118.199913 
L 394.27098 119.104528 
L 395.475635 115.97229 
L 396.077963 119.337641 
L 396.68029 118.092719 
L 397.282618 117.621669 
L 397.884945 118.741309 
L 398.487273 118.390148 
L 398.487273 118.390148 
" clip-path="url(#p2873883998)" style="fill: none; stroke: #6495ed; stroke-width: 2; stroke-linecap: square"/>
   </g>
   <g id="line2d_24">
    <path d="M 73.832727 121.652669 
L 74.435055 122.502569 
L 75.037382 124.104971 
L 75.63971 124.326234 
L 76.242037 125.930131 
L 76.844365 126.050791 
L 77.446693 126.442429 
L 78.04902 127.137937 
L 78.651348 128.32397 
L 79.253675 128.311178 
L 79.856003 129.099313 
L 80.45833 129.011087 
L 81.060658 130.459 
L 81.662985 130.430233 
L 82.265313 131.483103 
L 82.86764 132.164785 
L 83.469968 132.049539 
L 84.072295 131.484196 
L 84.674623 132.253685 
L 85.276951 133.242288 
L 85.879278 133.446204 
L 86.481606 133.302576 
L 87.083933 133.739856 
L 87.686261 133.755734 
L 88.288588 134.318351 
L 88.890916 134.586884 
L 89.493243 135.114684 
L 90.095571 134.992994 
L 90.697898 136.254159 
L 91.300226 135.235382 
L 91.902554 135.612499 
L 92.504881 135.840429 
L 93.107209 137.102628 
L 93.709536 136.449688 
L 94.311864 136.92979 
L 94.914191 136.569472 
L 95.516519 137.372526 
L 96.118846 136.925155 
L 96.721174 138.0408 
L 97.323501 137.077705 
L 97.925829 137.868352 
L 98.528157 137.599899 
L 99.130484 138.062528 
L 99.732812 137.911066 
L 100.335139 138.907731 
L 100.937467 137.799275 
L 101.539794 138.509057 
L 102.142122 138.585542 
L 102.744449 138.338041 
L 103.346777 138.808593 
L 103.949104 138.469471 
L 104.551432 138.601596 
L 105.153759 139.227533 
L 106.358415 138.793992 
L 107.56307 139.138365 
L 108.165397 139.378266 
L 108.767725 139.761044 
L 109.370052 139.651723 
L 109.97238 138.57151 
L 110.574707 139.585016 
L 111.177035 139.382419 
L 111.779362 139.409251 
L 112.984018 139.053121 
L 113.586345 139.268739 
L 114.188673 139.761798 
L 114.791 140.40543 
L 115.393328 139.978074 
L 115.995655 140.312921 
L 116.597983 139.152782 
L 117.20031 140.079971 
L 117.802638 139.966613 
L 118.404965 140.274578 
L 119.007293 139.994898 
L 119.609621 140.550677 
L 120.211948 139.626654 
L 120.814276 140.055509 
L 121.416603 139.849115 
L 122.018931 140.787161 
L 122.621258 140.036545 
L 123.223586 140.637048 
L 123.825913 139.818137 
L 124.428241 140.543312 
L 125.030568 140.161024 
L 125.632896 140.95358 
L 126.235223 140.350794 
L 126.837551 140.466932 
L 127.439879 140.348822 
L 128.042206 140.637563 
L 128.644534 140.554195 
L 129.246861 141.238192 
L 129.849189 140.335289 
L 130.451516 141.253723 
L 131.053844 140.48096 
L 131.656171 140.752415 
L 132.258499 141.726912 
L 132.860826 140.584766 
L 133.463154 141.244117 
L 134.065482 140.874704 
L 134.667809 141.310619 
L 135.270137 140.825433 
L 135.872464 141.898154 
L 136.474792 140.753676 
L 137.077119 141.227393 
L 137.679447 141.410213 
L 138.281774 141.476585 
L 138.884102 140.975232 
L 139.486429 141.683888 
L 140.088757 141.46739 
L 140.691084 141.41984 
L 141.293412 141.633009 
L 141.89574 141.343904 
L 142.498067 141.186823 
L 143.100395 142.096455 
L 144.30505 141.509116 
L 145.509705 141.907295 
L 146.112032 141.3008 
L 147.919015 142.1972 
L 149.12367 141.284763 
L 149.725998 141.069956 
L 150.328325 142.420632 
L 150.930653 142.327185 
L 151.53298 141.467424 
L 152.135308 141.976104 
L 152.737635 142.145647 
L 153.339963 141.277594 
L 153.94229 142.884937 
L 154.544618 142.696657 
L 155.146946 141.97855 
L 155.749273 142.125422 
L 156.351601 142.047807 
L 156.953928 142.210943 
L 157.556256 142.720637 
L 158.158583 142.492075 
L 158.760911 142.634869 
L 159.363238 142.499047 
L 159.965566 142.844257 
L 160.567893 142.017868 
L 161.170221 142.901648 
L 161.772548 142.130078 
L 162.374876 142.613803 
L 162.977204 142.841155 
L 163.579531 142.680527 
L 164.181859 142.184576 
L 164.784186 143.121433 
L 165.386514 143.260915 
L 165.988841 143.173556 
L 166.591169 142.955341 
L 167.193496 142.434069 
L 167.795824 142.436544 
L 168.398151 143.20736 
L 169.000479 143.404517 
L 169.602807 142.700496 
L 170.205134 143.177463 
L 170.807462 143.445196 
L 171.409789 142.277554 
L 172.012117 143.700762 
L 172.614444 142.911836 
L 173.216772 143.479997 
L 173.819099 143.631052 
L 174.421427 142.815939 
L 175.023754 142.744211 
L 175.626082 144.037229 
L 176.22841 143.25342 
L 176.830737 143.724181 
L 177.433065 143.533305 
L 178.035392 143.632061 
L 178.63772 142.895551 
L 179.240047 143.792211 
L 179.842375 143.484196 
L 180.444702 143.912654 
L 181.04703 143.864944 
L 181.649357 143.301159 
L 182.251685 143.143044 
L 182.854012 144.138602 
L 183.45634 144.251273 
L 185.263323 143.880814 
L 185.86565 143.005492 
L 186.467978 144.397484 
L 187.070305 143.969412 
L 188.27496 144.236622 
L 188.877288 143.813583 
L 189.479615 144.015886 
L 190.081943 144.74537 
L 190.684271 144.390546 
L 191.888926 144.694436 
L 192.491253 144.724207 
L 193.093581 143.993723 
L 193.695908 145.557058 
L 194.298236 144.768948 
L 195.502891 145.38332 
L 196.707546 143.888296 
L 197.309874 145.303599 
L 197.912201 145.101781 
L 198.514529 145.255361 
L 199.116856 144.655218 
L 199.719184 145.062873 
L 200.321511 144.457688 
L 200.923839 146.144275 
L 201.526166 145.254616 
L 202.128494 145.372441 
L 202.730821 145.797239 
L 203.333149 145.141083 
L 203.935476 144.993942 
L 204.537804 145.654035 
L 205.140132 146.009026 
L 205.742459 145.830779 
L 206.344787 145.326649 
L 206.947114 145.660491 
L 207.549442 145.001417 
L 208.151769 146.247449 
L 208.754097 146.369386 
L 209.356424 145.717216 
L 209.958752 146.301058 
L 210.561079 146.416304 
L 211.163407 145.349055 
L 211.765735 146.830529 
L 212.368062 146.12874 
L 214.175045 146.72537 
L 214.777372 146.049781 
L 215.3797 146.990842 
L 215.982027 147.169333 
L 216.584355 146.407821 
L 217.186682 146.381332 
L 217.78901 146.864458 
L 218.391337 146.107486 
L 218.993665 147.34511 
L 219.595993 146.746034 
L 220.19832 146.853848 
L 220.800648 146.79451 
L 221.402975 146.864358 
L 222.005303 145.965969 
L 222.60763 147.017901 
L 223.209958 146.838041 
L 223.812285 147.144075 
L 224.414613 146.782112 
L 225.01694 148.153335 
L 225.619268 146.402361 
L 226.221596 147.946643 
L 226.823923 147.227083 
L 227.426251 147.709933 
L 228.028578 147.578554 
L 228.630906 146.957235 
L 229.233233 146.627367 
L 229.835561 148.506681 
L 230.437888 147.916273 
L 232.244871 147.562613 
L 232.847199 146.341093 
L 233.449526 148.303925 
L 234.051854 147.631334 
L 234.654181 148.339944 
L 235.256509 147.832905 
L 235.858836 148.523287 
L 236.461164 147.306382 
L 237.063491 148.875298 
L 237.665819 148.016227 
L 238.268146 148.36562 
L 238.870474 148.189772 
L 239.472801 148.497548 
L 240.075129 147.616804 
L 240.677457 149.055044 
L 241.279784 148.380561 
L 241.882112 148.887173 
L 242.484439 147.954373 
L 243.086767 148.81099 
L 243.689094 147.625409 
L 244.291422 149.554744 
L 244.893749 148.688324 
L 245.496077 148.639961 
L 246.700732 148.914156 
L 247.30306 147.902124 
L 247.905387 149.732736 
L 248.507715 148.847226 
L 249.110042 148.613427 
L 249.71237 148.987361 
L 250.314697 148.920947 
L 250.917025 148.240886 
L 251.519352 150.158295 
L 252.12168 149.355593 
L 252.724007 149.724164 
L 253.326335 149.626162 
L 253.928663 149.964643 
L 254.53099 148.632144 
L 255.133318 150.270715 
L 256.337973 149.679168 
L 256.9403 149.729126 
L 257.542628 150.040235 
L 258.144955 148.751782 
L 258.747283 150.751031 
L 259.34961 149.566954 
L 260.554265 149.988318 
L 261.156593 149.507524 
L 261.758921 149.260802 
L 262.361248 150.104012 
L 263.565903 150.445265 
L 264.168231 150.379776 
L 264.770558 150.664816 
L 265.372886 149.216631 
L 265.975213 150.61211 
L 266.577541 150.167382 
L 267.179868 150.536061 
L 267.782196 149.659404 
L 268.384524 150.775342 
L 268.986851 149.35924 
L 269.589179 151.35831 
L 270.191506 150.222704 
L 270.793834 150.667571 
L 271.396161 150.251081 
L 271.998489 150.854498 
L 272.600816 148.772153 
L 273.203144 151.534685 
L 274.407799 151.049654 
L 275.010126 151.016905 
L 275.612454 151.132759 
L 276.214782 149.899242 
L 276.817109 152.309408 
L 277.419437 151.607962 
L 278.021764 151.473154 
L 278.624092 151.844069 
L 279.226419 151.778233 
L 279.828747 150.514325 
L 280.431074 151.991126 
L 281.033402 151.826081 
L 281.635729 152.600707 
L 282.238057 151.668204 
L 282.840385 151.572814 
L 283.442712 150.614644 
L 284.04504 152.95832 
L 284.647367 151.873615 
L 285.249695 152.184029 
L 285.852022 151.409135 
L 286.45435 152.142504 
L 287.056677 150.86688 
L 287.659005 153.36368 
L 288.261332 152.360426 
L 288.86366 151.687198 
L 289.465988 152.109889 
L 290.068315 152.010676 
L 290.670643 151.472894 
L 291.27297 153.609221 
L 291.875298 152.825551 
L 292.477625 152.451545 
L 293.079953 152.855121 
L 293.68228 152.910824 
L 294.284608 150.740429 
L 294.886935 152.351636 
L 295.489263 151.91035 
L 296.09159 153.388695 
L 296.693918 152.106812 
L 297.296246 152.77223 
L 297.898573 151.602645 
L 298.500901 153.680744 
L 299.103228 152.270366 
L 299.705556 153.035253 
L 300.307883 152.715744 
L 300.910211 152.981405 
L 301.512538 151.571676 
L 302.114866 153.600483 
L 302.717193 152.719487 
L 303.319521 153.980929 
L 303.921849 153.562843 
L 304.524176 152.955615 
L 305.126504 152.076554 
L 305.728831 154.508599 
L 306.331159 153.584203 
L 306.933486 153.486405 
L 307.535814 152.983084 
L 308.138141 154.215457 
L 308.740469 152.18485 
L 309.342796 154.02183 
L 309.945124 153.316 
L 310.547452 154.293215 
L 311.149779 153.182267 
L 311.752107 153.98113 
L 312.354434 152.207611 
L 312.956762 154.946063 
L 313.559089 154.485535 
L 314.161417 154.754642 
L 314.763744 153.846384 
L 315.366072 153.615339 
L 315.968399 152.192663 
L 316.570727 154.949015 
L 317.173054 153.726021 
L 317.775382 154.397536 
L 318.37771 153.813321 
L 318.980037 153.533633 
L 319.582365 152.473549 
L 320.184692 155.529918 
L 320.78702 153.029462 
L 321.389347 155.694971 
L 321.991675 154.944606 
L 322.594002 153.975556 
L 323.19633 152.577271 
L 323.798657 155.857654 
L 324.400985 154.116047 
L 325.003313 155.141101 
L 325.60564 154.69167 
L 326.207968 154.511735 
L 326.810295 153.607488 
L 327.412623 155.487743 
L 328.01495 154.743425 
L 328.617278 154.803549 
L 329.219605 155.068657 
L 329.821933 154.819557 
L 330.42426 153.310117 
L 331.026588 155.620249 
L 331.628916 155.037793 
L 332.231243 155.318285 
L 333.435898 155.221903 
L 334.038226 153.767429 
L 334.640553 155.698874 
L 335.242881 155.910087 
L 337.049863 155.637978 
L 337.652191 153.779982 
L 338.254518 157.273497 
L 338.856846 155.267565 
L 339.459174 155.295879 
L 340.663829 155.749866 
L 341.266156 153.755424 
L 341.868484 157.656464 
L 342.470811 156.247606 
L 343.073139 155.695624 
L 343.675466 156.138469 
L 344.277794 156.272507 
L 344.880121 154.373409 
L 345.482449 157.37361 
L 346.084777 155.441072 
L 346.687104 156.084177 
L 347.289432 156.216134 
L 347.891759 156.023838 
L 348.494087 154.266089 
L 349.096414 157.624779 
L 349.698742 155.895302 
L 350.301069 157.173543 
L 350.903397 156.106407 
L 351.505724 157.120578 
L 352.108052 154.517513 
L 352.710379 157.270277 
L 353.312707 155.899447 
L 353.915035 157.105324 
L 354.517362 156.182548 
L 355.11969 156.878751 
L 355.722017 154.86336 
L 356.324345 157.640854 
L 356.926672 156.719028 
L 358.131327 157.039944 
L 358.733655 157.047862 
L 359.335982 154.738726 
L 359.93831 157.904844 
L 360.540638 157.135284 
L 361.142965 157.63322 
L 361.745293 157.119401 
L 362.34762 157.020013 
L 362.949948 155.520806 
L 363.552275 157.681026 
L 364.154603 157.221776 
L 364.75693 157.639405 
L 365.359258 156.636883 
L 365.961585 157.482764 
L 366.563913 156.569095 
L 367.166241 158.237274 
L 367.768568 157.362359 
L 368.370896 157.091288 
L 368.973223 158.163009 
L 369.575551 158.713362 
L 370.177878 156.426046 
L 370.780206 159.728667 
L 371.382533 157.39221 
L 371.984861 158.265341 
L 372.587188 157.316475 
L 373.189516 158.958835 
L 373.791843 155.851286 
L 374.394171 159.381795 
L 374.996499 157.027349 
L 375.598826 158.833109 
L 376.201154 158.614178 
L 376.803481 158.580018 
L 377.405809 155.112913 
L 378.008136 159.777344 
L 378.610464 158.776928 
L 379.212791 158.851428 
L 379.815119 158.52514 
L 380.417446 159.148782 
L 381.019774 157.766107 
L 381.622102 159.846589 
L 382.224429 158.202097 
L 382.826757 158.935466 
L 383.429084 158.605996 
L 384.031412 159.385865 
L 384.633739 156.861303 
L 385.236067 160.467522 
L 385.838394 158.755695 
L 386.440722 159.226301 
L 387.043049 158.26919 
L 387.645377 158.722959 
L 388.247705 157.359562 
L 388.850032 159.158752 
L 389.45236 158.81579 
L 390.054687 158.945298 
L 390.657015 158.54191 
L 391.259342 160.138676 
L 391.86167 157.200429 
L 392.463997 159.510905 
L 393.066325 158.732908 
L 393.668652 159.635082 
L 394.27098 158.749221 
L 394.873307 160.092431 
L 395.475635 158.73707 
L 396.077963 160.102276 
L 396.68029 159.525996 
L 397.282618 160.144219 
L 397.884945 159.135902 
L 398.487273 160.061546 
L 398.487273 160.061546 
" clip-path="url(#p2873883998)" style="fill: none; stroke: #dc143c; stroke-width: 2; stroke-linecap: square"/>
   </g>
   <g id="line2d_25">
    <path d="M 73.832727 295.488 
L 76.844365 295.488 
L 77.446693 285.535661 
L 80.45833 285.535661 
L 81.060658 275.068054 
L 84.072295 275.068054 
L 84.674623 264.938355 
L 87.686261 264.938355 
L 88.288588 254.416111 
L 91.300226 254.416111 
L 91.902554 244.272963 
L 94.914191 244.272963 
L 95.516519 234.065092 
L 98.528157 234.065092 
L 99.130484 223.968175 
L 102.142122 223.968175 
L 102.744449 214.041054 
L 105.756087 214.041054 
L 106.358415 203.510404 
L 109.370052 203.510404 
L 109.97238 193.727019 
L 112.984018 193.727019 
L 113.586345 184.017605 
L 116.597983 184.017605 
L 117.20031 174.569608 
L 120.211948 174.569608 
L 120.814276 165.517519 
L 123.825913 165.517519 
L 124.428241 156.90757 
L 127.439879 156.90757 
L 128.042206 148.830541 
L 131.053844 148.830541 
L 131.656171 141.277186 
L 134.667809 141.277186 
L 135.270137 133.817976 
L 138.281774 133.817976 
L 138.884102 127.423767 
L 141.89574 127.423767 
L 142.498067 120.884139 
L 145.509705 120.884139 
L 146.112032 114.591638 
L 149.12367 114.591638 
L 149.725998 109.112808 
L 152.737635 109.112808 
L 153.339963 103.796209 
L 156.351601 103.796209 
L 156.953928 98.725055 
L 159.965566 98.725055 
L 160.567893 94.149837 
L 163.579531 94.149837 
L 164.181859 89.551084 
L 167.193496 89.551084 
L 167.795824 85.723132 
L 170.807462 85.723132 
L 171.409789 82.228886 
L 174.421427 82.228886 
L 175.023754 78.848957 
L 178.035392 78.848957 
L 178.63772 76.109543 
L 181.649357 76.109543 
L 182.251685 73.183521 
L 185.263323 73.183521 
L 185.86565 70.502106 
L 188.877288 70.502106 
L 189.479615 68.135904 
L 192.491253 68.135904 
L 193.093581 66.053814 
L 196.105218 66.053814 
L 196.707546 64.223895 
L 199.719184 64.223895 
L 200.321511 62.79913 
L 203.333149 62.79913 
L 203.935476 61.39622 
L 206.947114 61.39622 
L 207.549442 60.116034 
L 210.561079 60.116034 
L 211.163407 59.026656 
L 214.175045 59.026656 
L 214.777372 58.07261 
L 217.78901 58.07261 
L 218.391337 57.248012 
L 221.402975 57.248012 
L 222.005303 56.56631 
L 225.01694 56.56631 
L 225.619268 55.987158 
L 228.630906 55.987158 
L 229.233233 55.386992 
L 232.244871 55.386992 
L 232.847199 54.909548 
L 235.858836 54.909548 
L 236.461164 54.524568 
L 239.472801 54.524568 
L 240.075129 54.387555 
L 243.086767 54.387555 
L 243.689094 54.109327 
L 250.314697 54.020226 
L 250.917025 53.772258 
L 257.542628 53.688201 
L 258.144955 53.568 
L 271.998489 53.596579 
L 272.600816 53.727708 
L 279.226419 53.746201 
L 279.828747 53.935329 
L 282.840385 53.935329 
L 283.442712 54.178253 
L 286.45435 54.178253 
L 287.056677 54.343005 
L 290.068315 54.343005 
L 290.670643 54.502713 
L 293.68228 54.502713 
L 294.284608 54.721261 
L 297.296246 54.721261 
L 297.898573 54.901143 
L 300.910211 54.901143 
L 301.512538 55.070938 
L 304.524176 55.070938 
L 305.126504 55.203748 
L 308.138141 55.203748 
L 308.740469 55.450875 
L 311.752107 55.450875 
L 312.354434 55.708089 
L 315.366072 55.708089 
L 315.968399 56.040954 
L 318.980037 56.040954 
L 319.582365 56.357008 
L 322.594002 56.357008 
L 323.19633 56.661294 
L 326.207968 56.661294 
L 326.810295 56.903378 
L 329.821933 56.903378 
L 330.42426 57.122767 
L 333.435898 57.122767 
L 334.038226 57.397633 
L 337.049863 57.397633 
L 337.652191 57.558182 
L 340.663829 57.558182 
L 341.266156 57.779251 
L 344.277794 57.779251 
L 344.880121 58.035625 
L 347.891759 58.035625 
L 348.494087 58.276868 
L 351.505724 58.276868 
L 352.108052 58.458431 
L 355.11969 58.458431 
L 355.722017 58.803065 
L 358.733655 58.803065 
L 359.335982 59.07709 
L 362.34762 59.07709 
L 362.949948 59.273783 
L 365.961585 59.273783 
L 366.563913 59.403231 
L 369.575551 59.403231 
L 370.177878 59.660445 
L 373.189516 59.660445 
L 373.791843 59.847892 
L 376.803481 59.847892 
L 377.405809 60.104266 
L 380.417446 60.104266 
L 381.019774 60.344668 
L 384.031412 60.344668 
L 384.633739 60.590115 
L 387.645377 60.590115 
L 388.247705 60.830517 
L 391.259342 60.830517 
L 391.86167 61.05663 
L 394.873307 61.05663 
L 395.475635 61.338221 
L 398.487273 61.338221 
L 398.487273 61.338221 
" clip-path="url(#p2873883998)" style="fill: none; stroke: #ffff00; stroke-width: 3; stroke-linecap: square"/>
   </g>
   <g id="patch_3">
    <path d="M 57.6 307.584 
L 57.6 41.472 
" style="fill: none; stroke: #ffffff; stroke-linejoin: miter; stroke-linecap: square"/>
   </g>
   <g id="patch_4">
    <path d="M 414.72 307.584 
L 414.72 41.472 
" style="fill: none; stroke: #ffffff; stroke-linejoin: miter; stroke-linecap: square"/>
   </g>
   <g id="patch_5">
    <path d="M 57.6 307.584 
L 414.72 307.584 
" style="fill: none; stroke: #ffffff; stroke-linejoin: miter; stroke-linecap: square"/>
   </g>
   <g id="patch_6">
    <path d="M 57.6 41.472 
L 414.72 41.472 
" style="fill: none; stroke: #ffffff; stroke-linejoin: miter; stroke-linecap: square"/>
   </g>
   <g id="legend_1">
    <g id="patch_7">
     <path d="M 243.124687 302.584 
L 407.72 302.584 
Q 409.72 302.584 409.72 300.584 
L 409.72 257.549625 
Q 409.72 255.549625 407.72 255.549625 
L 243.124687 255.549625 
Q 241.124687 255.549625 241.124687 257.549625 
L 241.124687 300.584 
Q 241.124687 302.584 243.124687 302.584 
z
" style="fill: #e5e5e5; opacity: 0.8; stroke: #cccccc; stroke-width: 0.5; stroke-linejoin: miter"/>
    </g>
    <g id="line2d_26">
     <path d="M 245.124687 263.648062 
L 255.124687 263.648062 
L 265.124687 263.648062 
" style="fill: none; stroke: #6495ed; stroke-width: 2; stroke-linecap: square"/>
    </g>
    <g id="text_14">
     <!-- Generator loss -->
     <g transform="translate(273.124687 267.148062) scale(0.1 -0.1)">
      <defs>
       <path id="DejaVuSans-47" d="M 3809 666 
L 3809 1919 
L 2778 1919 
L 2778 2438 
L 4434 2438 
L 4434 434 
Q 4069 175 3628 42 
Q 3188 -91 2688 -91 
Q 1594 -91 976 548 
Q 359 1188 359 2328 
Q 359 3472 976 4111 
Q 1594 4750 2688 4750 
Q 3144 4750 3555 4637 
Q 3966 4525 4313 4306 
L 4313 3634 
Q 3963 3931 3569 4081 
Q 3175 4231 2741 4231 
Q 1884 4231 1454 3753 
Q 1025 3275 1025 2328 
Q 1025 1384 1454 906 
Q 1884 428 2741 428 
Q 3075 428 3337 486 
Q 3600 544 3809 666 
z
" transform="scale(0.015625)"/>
       <path id="DejaVuSans-65" d="M 3597 1894 
L 3597 1613 
L 953 1613 
Q 991 1019 1311 708 
Q 1631 397 2203 397 
Q 2534 397 2845 478 
Q 3156 559 3463 722 
L 3463 178 
Q 3153 47 2828 -22 
Q 2503 -91 2169 -91 
Q 1331 -91 842 396 
Q 353 884 353 1716 
Q 353 2575 817 3079 
Q 1281 3584 2069 3584 
Q 2775 3584 3186 3129 
Q 3597 2675 3597 1894 
z
M 3022 2063 
Q 3016 2534 2758 2815 
Q 2500 3097 2075 3097 
Q 1594 3097 1305 2825 
Q 1016 2553 972 2059 
L 3022 2063 
z
" transform="scale(0.015625)"/>
       <path id="DejaVuSans-6e" d="M 3513 2113 
L 3513 0 
L 2938 0 
L 2938 2094 
Q 2938 2591 2744 2837 
Q 2550 3084 2163 3084 
Q 1697 3084 1428 2787 
Q 1159 2491 1159 1978 
L 1159 0 
L 581 0 
L 581 3500 
L 1159 3500 
L 1159 2956 
Q 1366 3272 1645 3428 
Q 1925 3584 2291 3584 
Q 2894 3584 3203 3211 
Q 3513 2838 3513 2113 
z
" transform="scale(0.015625)"/>
       <path id="DejaVuSans-72" d="M 2631 2963 
Q 2534 3019 2420 3045 
Q 2306 3072 2169 3072 
Q 1681 3072 1420 2755 
Q 1159 2438 1159 1844 
L 1159 0 
L 581 0 
L 581 3500 
L 1159 3500 
L 1159 2956 
Q 1341 3275 1631 3429 
Q 1922 3584 2338 3584 
Q 2397 3584 2469 3576 
Q 2541 3569 2628 3553 
L 2631 2963 
z
" transform="scale(0.015625)"/>
       <path id="DejaVuSans-61" d="M 2194 1759 
Q 1497 1759 1228 1600 
Q 959 1441 959 1056 
Q 959 750 1161 570 
Q 1363 391 1709 391 
Q 2188 391 2477 730 
Q 2766 1069 2766 1631 
L 2766 1759 
L 2194 1759 
z
M 3341 1997 
L 3341 0 
L 2766 0 
L 2766 531 
Q 2569 213 2275 61 
Q 1981 -91 1556 -91 
Q 1019 -91 701 211 
Q 384 513 384 1019 
Q 384 1609 779 1909 
Q 1175 2209 1959 2209 
L 2766 2209 
L 2766 2266 
Q 2766 2663 2505 2880 
Q 2244 3097 1772 3097 
Q 1472 3097 1187 3025 
Q 903 2953 641 2809 
L 641 3341 
Q 956 3463 1253 3523 
Q 1550 3584 1831 3584 
Q 2591 3584 2966 3190 
Q 3341 2797 3341 1997 
z
" transform="scale(0.015625)"/>
       <path id="DejaVuSans-74" d="M 1172 4494 
L 1172 3500 
L 2356 3500 
L 2356 3053 
L 1172 3053 
L 1172 1153 
Q 1172 725 1289 603 
Q 1406 481 1766 481 
L 2356 481 
L 2356 0 
L 1766 0 
Q 1100 0 847 248 
Q 594 497 594 1153 
L 594 3053 
L 172 3053 
L 172 3500 
L 594 3500 
L 594 4494 
L 1172 4494 
z
" transform="scale(0.015625)"/>
       <path id="DejaVuSans-20" transform="scale(0.015625)"/>
       <path id="DejaVuSans-6c" d="M 603 4863 
L 1178 4863 
L 1178 0 
L 603 0 
L 603 4863 
z
" transform="scale(0.015625)"/>
      </defs>
      <use xlink:href="#DejaVuSans-47"/>
      <use xlink:href="#DejaVuSans-65" x="77.490234"/>
      <use xlink:href="#DejaVuSans-6e" x="139.013672"/>
      <use xlink:href="#DejaVuSans-65" x="202.392578"/>
      <use xlink:href="#DejaVuSans-72" x="263.916016"/>
      <use xlink:href="#DejaVuSans-61" x="305.029297"/>
      <use xlink:href="#DejaVuSans-74" x="366.308594"/>
      <use xlink:href="#DejaVuSans-6f" x="405.517578"/>
      <use xlink:href="#DejaVuSans-72" x="466.699219"/>
      <use xlink:href="#DejaVuSans-20" x="507.8125"/>
      <use xlink:href="#DejaVuSans-6c" x="539.599609"/>
      <use xlink:href="#DejaVuSans-6f" x="567.382812"/>
      <use xlink:href="#DejaVuSans-73" x="628.564453"/>
      <use xlink:href="#DejaVuSans-73" x="680.664062"/>
     </g>
    </g>
    <g id="line2d_27">
     <path d="M 245.124687 278.326188 
L 255.124687 278.326188 
L 265.124687 278.326188 
" style="fill: none; stroke: #dc143c; stroke-width: 2; stroke-linecap: square"/>
    </g>
    <g id="text_15">
     <!-- Average discriminator loss -->
     <g transform="translate(273.124687 281.826188) scale(0.1 -0.1)">
      <defs>
       <path id="DejaVuSans-41" d="M 2188 4044 
L 1331 1722 
L 3047 1722 
L 2188 4044 
z
M 1831 4666 
L 2547 4666 
L 4325 0 
L 3669 0 
L 3244 1197 
L 1141 1197 
L 716 0 
L 50 0 
L 1831 4666 
z
" transform="scale(0.015625)"/>
       <path id="DejaVuSans-76" d="M 191 3500 
L 800 3500 
L 1894 563 
L 2988 3500 
L 3597 3500 
L 2284 0 
L 1503 0 
L 191 3500 
z
" transform="scale(0.015625)"/>
       <path id="DejaVuSans-67" d="M 2906 1791 
Q 2906 2416 2648 2759 
Q 2391 3103 1925 3103 
Q 1463 3103 1205 2759 
Q 947 2416 947 1791 
Q 947 1169 1205 825 
Q 1463 481 1925 481 
Q 2391 481 2648 825 
Q 2906 1169 2906 1791 
z
M 3481 434 
Q 3481 -459 3084 -895 
Q 2688 -1331 1869 -1331 
Q 1566 -1331 1297 -1286 
Q 1028 -1241 775 -1147 
L 775 -588 
Q 1028 -725 1275 -790 
Q 1522 -856 1778 -856 
Q 2344 -856 2625 -561 
Q 2906 -266 2906 331 
L 2906 616 
Q 2728 306 2450 153 
Q 2172 0 1784 0 
Q 1141 0 747 490 
Q 353 981 353 1791 
Q 353 2603 747 3093 
Q 1141 3584 1784 3584 
Q 2172 3584 2450 3431 
Q 2728 3278 2906 2969 
L 2906 3500 
L 3481 3500 
L 3481 434 
z
" transform="scale(0.015625)"/>
       <path id="DejaVuSans-64" d="M 2906 2969 
L 2906 4863 
L 3481 4863 
L 3481 0 
L 2906 0 
L 2906 525 
Q 2725 213 2448 61 
Q 2172 -91 1784 -91 
Q 1150 -91 751 415 
Q 353 922 353 1747 
Q 353 2572 751 3078 
Q 1150 3584 1784 3584 
Q 2172 3584 2448 3432 
Q 2725 3281 2906 2969 
z
M 947 1747 
Q 947 1113 1208 752 
Q 1469 391 1925 391 
Q 2381 391 2643 752 
Q 2906 1113 2906 1747 
Q 2906 2381 2643 2742 
Q 2381 3103 1925 3103 
Q 1469 3103 1208 2742 
Q 947 2381 947 1747 
z
" transform="scale(0.015625)"/>
       <path id="DejaVuSans-69" d="M 603 3500 
L 1178 3500 
L 1178 0 
L 603 0 
L 603 3500 
z
M 603 4863 
L 1178 4863 
L 1178 4134 
L 603 4134 
L 603 4863 
z
" transform="scale(0.015625)"/>
       <path id="DejaVuSans-6d" d="M 3328 2828 
Q 3544 3216 3844 3400 
Q 4144 3584 4550 3584 
Q 5097 3584 5394 3201 
Q 5691 2819 5691 2113 
L 5691 0 
L 5113 0 
L 5113 2094 
Q 5113 2597 4934 2840 
Q 4756 3084 4391 3084 
Q 3944 3084 3684 2787 
Q 3425 2491 3425 1978 
L 3425 0 
L 2847 0 
L 2847 2094 
Q 2847 2600 2669 2842 
Q 2491 3084 2119 3084 
Q 1678 3084 1418 2786 
Q 1159 2488 1159 1978 
L 1159 0 
L 581 0 
L 581 3500 
L 1159 3500 
L 1159 2956 
Q 1356 3278 1631 3431 
Q 1906 3584 2284 3584 
Q 2666 3584 2933 3390 
Q 3200 3197 3328 2828 
z
" transform="scale(0.015625)"/>
      </defs>
      <use xlink:href="#DejaVuSans-41"/>
      <use xlink:href="#DejaVuSans-76" x="62.533203"/>
      <use xlink:href="#DejaVuSans-65" x="121.712891"/>
      <use xlink:href="#DejaVuSans-72" x="183.236328"/>
      <use xlink:href="#DejaVuSans-61" x="224.349609"/>
      <use xlink:href="#DejaVuSans-67" x="285.628906"/>
      <use xlink:href="#DejaVuSans-65" x="349.105469"/>
      <use xlink:href="#DejaVuSans-20" x="410.628906"/>
      <use xlink:href="#DejaVuSans-64" x="442.416016"/>
      <use xlink:href="#DejaVuSans-69" x="505.892578"/>
      <use xlink:href="#DejaVuSans-73" x="533.675781"/>
      <use xlink:href="#DejaVuSans-63" x="585.775391"/>
      <use xlink:href="#DejaVuSans-72" x="640.755859"/>
      <use xlink:href="#DejaVuSans-69" x="681.869141"/>
      <use xlink:href="#DejaVuSans-6d" x="709.652344"/>
      <use xlink:href="#DejaVuSans-69" x="807.064453"/>
      <use xlink:href="#DejaVuSans-6e" x="834.847656"/>
      <use xlink:href="#DejaVuSans-61" x="898.226562"/>
      <use xlink:href="#DejaVuSans-74" x="959.505859"/>
      <use xlink:href="#DejaVuSans-6f" x="998.714844"/>
      <use xlink:href="#DejaVuSans-72" x="1059.896484"/>
      <use xlink:href="#DejaVuSans-20" x="1101.009766"/>
      <use xlink:href="#DejaVuSans-6c" x="1132.796875"/>
      <use xlink:href="#DejaVuSans-6f" x="1160.580078"/>
      <use xlink:href="#DejaVuSans-73" x="1221.761719"/>
      <use xlink:href="#DejaVuSans-73" x="1273.861328"/>
     </g>
    </g>
    <g id="line2d_28">
     <path d="M 245.124687 293.004312 
L 255.124687 293.004312 
L 265.124687 293.004312 
" style="fill: none; stroke: #ffff00; stroke-width: 3; stroke-linecap: square"/>
    </g>
    <g id="text_16">
     <!-- ROC AUC -->
     <g transform="translate(273.124687 296.504312) scale(0.1 -0.1)">
      <defs>
       <path id="DejaVuSans-52" d="M 2841 2188 
Q 3044 2119 3236 1894 
Q 3428 1669 3622 1275 
L 4263 0 
L 3584 0 
L 2988 1197 
Q 2756 1666 2539 1819 
Q 2322 1972 1947 1972 
L 1259 1972 
L 1259 0 
L 628 0 
L 628 4666 
L 2053 4666 
Q 2853 4666 3247 4331 
Q 3641 3997 3641 3322 
Q 3641 2881 3436 2590 
Q 3231 2300 2841 2188 
z
M 1259 4147 
L 1259 2491 
L 2053 2491 
Q 2509 2491 2742 2702 
Q 2975 2913 2975 3322 
Q 2975 3731 2742 3939 
Q 2509 4147 2053 4147 
L 1259 4147 
z
" transform="scale(0.015625)"/>
       <path id="DejaVuSans-4f" d="M 2522 4238 
Q 1834 4238 1429 3725 
Q 1025 3213 1025 2328 
Q 1025 1447 1429 934 
Q 1834 422 2522 422 
Q 3209 422 3611 934 
Q 4013 1447 4013 2328 
Q 4013 3213 3611 3725 
Q 3209 4238 2522 4238 
z
M 2522 4750 
Q 3503 4750 4090 4092 
Q 4678 3434 4678 2328 
Q 4678 1225 4090 567 
Q 3503 -91 2522 -91 
Q 1538 -91 948 565 
Q 359 1222 359 2328 
Q 359 3434 948 4092 
Q 1538 4750 2522 4750 
z
" transform="scale(0.015625)"/>
       <path id="DejaVuSans-43" d="M 4122 4306 
L 4122 3641 
Q 3803 3938 3442 4084 
Q 3081 4231 2675 4231 
Q 1875 4231 1450 3742 
Q 1025 3253 1025 2328 
Q 1025 1406 1450 917 
Q 1875 428 2675 428 
Q 3081 428 3442 575 
Q 3803 722 4122 1019 
L 4122 359 
Q 3791 134 3420 21 
Q 3050 -91 2638 -91 
Q 1578 -91 968 557 
Q 359 1206 359 2328 
Q 359 3453 968 4101 
Q 1578 4750 2638 4750 
Q 3056 4750 3426 4639 
Q 3797 4528 4122 4306 
z
" transform="scale(0.015625)"/>
       <path id="DejaVuSans-55" d="M 556 4666 
L 1191 4666 
L 1191 1831 
Q 1191 1081 1462 751 
Q 1734 422 2344 422 
Q 2950 422 3222 751 
Q 3494 1081 3494 1831 
L 3494 4666 
L 4128 4666 
L 4128 1753 
Q 4128 841 3676 375 
Q 3225 -91 2344 -91 
Q 1459 -91 1007 375 
Q 556 841 556 1753 
L 556 4666 
z
" transform="scale(0.015625)"/>
      </defs>
      <use xlink:href="#DejaVuSans-52"/>
      <use xlink:href="#DejaVuSans-4f" x="69.482422"/>
      <use xlink:href="#DejaVuSans-43" x="148.193359"/>
      <use xlink:href="#DejaVuSans-20" x="218.017578"/>
      <use xlink:href="#DejaVuSans-41" x="249.804688"/>
      <use xlink:href="#DejaVuSans-55" x="318.212891"/>
      <use xlink:href="#DejaVuSans-43" x="391.40625"/>
     </g>
    </g>
   </g>
  </g>
 </g>
 <defs>
  <clipPath id="p2873883998">
   <rect x="57.6" y="41.472" width="357.12" height="266.112"/>
  </clipPath>
 </defs>
</svg>
