<?xml version="1.0" encoding="utf-8" standalone="no"?>
<!DOCTYPE svg PUBLIC "-//W3C//DTD SVG 1.1//EN"
  "http://www.w3.org/Graphics/SVG/1.1/DTD/svg11.dtd">
<svg xmlns:xlink="http://www.w3.org/1999/xlink" width="460.8pt" height="345.6pt" viewBox="0 0 460.8 345.6" xmlns="http://www.w3.org/2000/svg" version="1.1">
 <metadata>
  <rdf:RDF xmlns:dc="http://purl.org/dc/elements/1.1/" xmlns:cc="http://creativecommons.org/ns#" xmlns:rdf="http://www.w3.org/1999/02/22-rdf-syntax-ns#">
   <cc:Work>
    <dc:type rdf:resource="http://purl.org/dc/dcmitype/StillImage"/>
    <dc:date>2023-07-09T11:57:47.977914</dc:date>
    <dc:format>image/svg+xml</dc:format>
    <dc:creator>
     <cc:Agent>
      <dc:title>Matplotlib v3.7.1, https://matplotlib.org/</dc:title>
     </cc:Agent>
    </dc:creator>
   </cc:Work>
  </rdf:RDF>
 </metadata>
 <defs>
  <style type="text/css">*{stroke-linejoin: round; stroke-linecap: butt}</style>
 </defs>
 <g id="figure_1">
  <g id="patch_1">
   <path d="M 0 345.6 
L 460.8 345.6 
L 460.8 0 
L 0 0 
z
" style="fill: #ffffff"/>
  </g>
  <g id="axes_1">
   <g id="patch_2">
    <path d="M 57.6 307.584 
L 414.72 307.584 
L 414.72 41.472 
L 57.6 41.472 
z
" style="fill: #e5e5e5"/>
   </g>
   <g id="matplotlib.axis_1">
    <g id="xtick_1">
     <g id="line2d_1">
      <path d="M 73.2304 307.584 
L 73.2304 41.472 
" clip-path="url(#p61874da4f1)" style="fill: none; stroke: #ffffff; stroke-width: 0.8; stroke-linecap: square"/>
     </g>
     <g id="line2d_2">
      <defs>
       <path id="ma181f0bd22" d="M 0 0 
L 0 3.5 
" style="stroke: #555555; stroke-width: 0.8"/>
      </defs>
      <g>
       <use xlink:href="#ma181f0bd22" x="73.2304" y="307.584" style="fill: #555555; stroke: #555555; stroke-width: 0.8"/>
      </g>
     </g>
     <g id="text_1">
      <!-- 0 -->
      <g style="fill: #555555" transform="translate(70.04915 322.182437) scale(0.1 -0.1)">
       <defs>
        <path id="DejaVuSans-30" d="M 2034 4250 
Q 1547 4250 1301 3770 
Q 1056 3291 1056 2328 
Q 1056 1369 1301 889 
Q 1547 409 2034 409 
Q 2525 409 2770 889 
Q 3016 1369 3016 2328 
Q 3016 3291 2770 3770 
Q 2525 4250 2034 4250 
z
M 2034 4750 
Q 2819 4750 3233 4129 
Q 3647 3509 3647 2328 
Q 3647 1150 3233 529 
Q 2819 -91 2034 -91 
Q 1250 -91 836 529 
Q 422 1150 422 2328 
Q 422 3509 836 4129 
Q 1250 4750 2034 4750 
z
" transform="scale(0.015625)"/>
       </defs>
       <use xlink:href="#DejaVuSans-30"/>
      </g>
     </g>
    </g>
    <g id="xtick_2">
     <g id="line2d_3">
      <path d="M 133.463154 307.584 
L 133.463154 41.472 
" clip-path="url(#p61874da4f1)" style="fill: none; stroke: #ffffff; stroke-width: 0.8; stroke-linecap: square"/>
     </g>
     <g id="line2d_4">
      <g>
       <use xlink:href="#ma181f0bd22" x="133.463154" y="307.584" style="fill: #555555; stroke: #555555; stroke-width: 0.8"/>
      </g>
     </g>
     <g id="text_2">
      <!-- 100 -->
      <g style="fill: #555555" transform="translate(123.919404 322.182437) scale(0.1 -0.1)">
       <defs>
        <path id="DejaVuSans-31" d="M 794 531 
L 1825 531 
L 1825 4091 
L 703 3866 
L 703 4441 
L 1819 4666 
L 2450 4666 
L 2450 531 
L 3481 531 
L 3481 0 
L 794 0 
L 794 531 
z
" transform="scale(0.015625)"/>
       </defs>
       <use xlink:href="#DejaVuSans-31"/>
       <use xlink:href="#DejaVuSans-30" x="63.623047"/>
       <use xlink:href="#DejaVuSans-30" x="127.246094"/>
      </g>
     </g>
    </g>
    <g id="xtick_3">
     <g id="line2d_5">
      <path d="M 193.695908 307.584 
L 193.695908 41.472 
" clip-path="url(#p61874da4f1)" style="fill: none; stroke: #ffffff; stroke-width: 0.8; stroke-linecap: square"/>
     </g>
     <g id="line2d_6">
      <g>
       <use xlink:href="#ma181f0bd22" x="193.695908" y="307.584" style="fill: #555555; stroke: #555555; stroke-width: 0.8"/>
      </g>
     </g>
     <g id="text_3">
      <!-- 200 -->
      <g style="fill: #555555" transform="translate(184.152158 322.182437) scale(0.1 -0.1)">
       <defs>
        <path id="DejaVuSans-32" d="M 1228 531 
L 3431 531 
L 3431 0 
L 469 0 
L 469 531 
Q 828 903 1448 1529 
Q 2069 2156 2228 2338 
Q 2531 2678 2651 2914 
Q 2772 3150 2772 3378 
Q 2772 3750 2511 3984 
Q 2250 4219 1831 4219 
Q 1534 4219 1204 4116 
Q 875 4013 500 3803 
L 500 4441 
Q 881 4594 1212 4672 
Q 1544 4750 1819 4750 
Q 2544 4750 2975 4387 
Q 3406 4025 3406 3419 
Q 3406 3131 3298 2873 
Q 3191 2616 2906 2266 
Q 2828 2175 2409 1742 
Q 1991 1309 1228 531 
z
" transform="scale(0.015625)"/>
       </defs>
       <use xlink:href="#DejaVuSans-32"/>
       <use xlink:href="#DejaVuSans-30" x="63.623047"/>
       <use xlink:href="#DejaVuSans-30" x="127.246094"/>
      </g>
     </g>
    </g>
    <g id="xtick_4">
     <g id="line2d_7">
      <path d="M 253.928663 307.584 
L 253.928663 41.472 
" clip-path="url(#p61874da4f1)" style="fill: none; stroke: #ffffff; stroke-width: 0.8; stroke-linecap: square"/>
     </g>
     <g id="line2d_8">
      <g>
       <use xlink:href="#ma181f0bd22" x="253.928663" y="307.584" style="fill: #555555; stroke: #555555; stroke-width: 0.8"/>
      </g>
     </g>
     <g id="text_4">
      <!-- 300 -->
      <g style="fill: #555555" transform="translate(244.384913 322.182437) scale(0.1 -0.1)">
       <defs>
        <path id="DejaVuSans-33" d="M 2597 2516 
Q 3050 2419 3304 2112 
Q 3559 1806 3559 1356 
Q 3559 666 3084 287 
Q 2609 -91 1734 -91 
Q 1441 -91 1130 -33 
Q 819 25 488 141 
L 488 750 
Q 750 597 1062 519 
Q 1375 441 1716 441 
Q 2309 441 2620 675 
Q 2931 909 2931 1356 
Q 2931 1769 2642 2001 
Q 2353 2234 1838 2234 
L 1294 2234 
L 1294 2753 
L 1863 2753 
Q 2328 2753 2575 2939 
Q 2822 3125 2822 3475 
Q 2822 3834 2567 4026 
Q 2313 4219 1838 4219 
Q 1578 4219 1281 4162 
Q 984 4106 628 3988 
L 628 4550 
Q 988 4650 1302 4700 
Q 1616 4750 1894 4750 
Q 2613 4750 3031 4423 
Q 3450 4097 3450 3541 
Q 3450 3153 3228 2886 
Q 3006 2619 2597 2516 
z
" transform="scale(0.015625)"/>
       </defs>
       <use xlink:href="#DejaVuSans-33"/>
       <use xlink:href="#DejaVuSans-30" x="63.623047"/>
       <use xlink:href="#DejaVuSans-30" x="127.246094"/>
      </g>
     </g>
    </g>
    <g id="xtick_5">
     <g id="line2d_9">
      <path d="M 314.161417 307.584 
L 314.161417 41.472 
" clip-path="url(#p61874da4f1)" style="fill: none; stroke: #ffffff; stroke-width: 0.8; stroke-linecap: square"/>
     </g>
     <g id="line2d_10">
      <g>
       <use xlink:href="#ma181f0bd22" x="314.161417" y="307.584" style="fill: #555555; stroke: #555555; stroke-width: 0.8"/>
      </g>
     </g>
     <g id="text_5">
      <!-- 400 -->
      <g style="fill: #555555" transform="translate(304.617667 322.182437) scale(0.1 -0.1)">
       <defs>
        <path id="DejaVuSans-34" d="M 2419 4116 
L 825 1625 
L 2419 1625 
L 2419 4116 
z
M 2253 4666 
L 3047 4666 
L 3047 1625 
L 3713 1625 
L 3713 1100 
L 3047 1100 
L 3047 0 
L 2419 0 
L 2419 1100 
L 313 1100 
L 313 1709 
L 2253 4666 
z
" transform="scale(0.015625)"/>
       </defs>
       <use xlink:href="#DejaVuSans-34"/>
       <use xlink:href="#DejaVuSans-30" x="63.623047"/>
       <use xlink:href="#DejaVuSans-30" x="127.246094"/>
      </g>
     </g>
    </g>
    <g id="xtick_6">
     <g id="line2d_11">
      <path d="M 374.394171 307.584 
L 374.394171 41.472 
" clip-path="url(#p61874da4f1)" style="fill: none; stroke: #ffffff; stroke-width: 0.8; stroke-linecap: square"/>
     </g>
     <g id="line2d_12">
      <g>
       <use xlink:href="#ma181f0bd22" x="374.394171" y="307.584" style="fill: #555555; stroke: #555555; stroke-width: 0.8"/>
      </g>
     </g>
     <g id="text_6">
      <!-- 500 -->
      <g style="fill: #555555" transform="translate(364.850421 322.182437) scale(0.1 -0.1)">
       <defs>
        <path id="DejaVuSans-35" d="M 691 4666 
L 3169 4666 
L 3169 4134 
L 1269 4134 
L 1269 2991 
Q 1406 3038 1543 3061 
Q 1681 3084 1819 3084 
Q 2600 3084 3056 2656 
Q 3513 2228 3513 1497 
Q 3513 744 3044 326 
Q 2575 -91 1722 -91 
Q 1428 -91 1123 -41 
Q 819 9 494 109 
L 494 744 
Q 775 591 1075 516 
Q 1375 441 1709 441 
Q 2250 441 2565 725 
Q 2881 1009 2881 1497 
Q 2881 1984 2565 2268 
Q 2250 2553 1709 2553 
Q 1456 2553 1204 2497 
Q 953 2441 691 2322 
L 691 4666 
z
" transform="scale(0.015625)"/>
       </defs>
       <use xlink:href="#DejaVuSans-35"/>
       <use xlink:href="#DejaVuSans-30" x="63.623047"/>
       <use xlink:href="#DejaVuSans-30" x="127.246094"/>
      </g>
     </g>
    </g>
    <g id="text_7">
     <!-- Epoch -->
     <g style="fill: #555555" transform="translate(217.786875 337.38025) scale(0.12 -0.12)">
      <defs>
       <path id="DejaVuSans-45" d="M 628 4666 
L 3578 4666 
L 3578 4134 
L 1259 4134 
L 1259 2753 
L 3481 2753 
L 3481 2222 
L 1259 2222 
L 1259 531 
L 3634 531 
L 3634 0 
L 628 0 
L 628 4666 
z
" transform="scale(0.015625)"/>
       <path id="DejaVuSans-70" d="M 1159 525 
L 1159 -1331 
L 581 -1331 
L 581 3500 
L 1159 3500 
L 1159 2969 
Q 1341 3281 1617 3432 
Q 1894 3584 2278 3584 
Q 2916 3584 3314 3078 
Q 3713 2572 3713 1747 
Q 3713 922 3314 415 
Q 2916 -91 2278 -91 
Q 1894 -91 1617 61 
Q 1341 213 1159 525 
z
M 3116 1747 
Q 3116 2381 2855 2742 
Q 2594 3103 2138 3103 
Q 1681 3103 1420 2742 
Q 1159 2381 1159 1747 
Q 1159 1113 1420 752 
Q 1681 391 2138 391 
Q 2594 391 2855 752 
Q 3116 1113 3116 1747 
z
" transform="scale(0.015625)"/>
       <path id="DejaVuSans-6f" d="M 1959 3097 
Q 1497 3097 1228 2736 
Q 959 2375 959 1747 
Q 959 1119 1226 758 
Q 1494 397 1959 397 
Q 2419 397 2687 759 
Q 2956 1122 2956 1747 
Q 2956 2369 2687 2733 
Q 2419 3097 1959 3097 
z
M 1959 3584 
Q 2709 3584 3137 3096 
Q 3566 2609 3566 1747 
Q 3566 888 3137 398 
Q 2709 -91 1959 -91 
Q 1206 -91 779 398 
Q 353 888 353 1747 
Q 353 2609 779 3096 
Q 1206 3584 1959 3584 
z
" transform="scale(0.015625)"/>
       <path id="DejaVuSans-63" d="M 3122 3366 
L 3122 2828 
Q 2878 2963 2633 3030 
Q 2388 3097 2138 3097 
Q 1578 3097 1268 2742 
Q 959 2388 959 1747 
Q 959 1106 1268 751 
Q 1578 397 2138 397 
Q 2388 397 2633 464 
Q 2878 531 3122 666 
L 3122 134 
Q 2881 22 2623 -34 
Q 2366 -91 2075 -91 
Q 1284 -91 818 406 
Q 353 903 353 1747 
Q 353 2603 823 3093 
Q 1294 3584 2113 3584 
Q 2378 3584 2631 3529 
Q 2884 3475 3122 3366 
z
" transform="scale(0.015625)"/>
       <path id="DejaVuSans-68" d="M 3513 2113 
L 3513 0 
L 2938 0 
L 2938 2094 
Q 2938 2591 2744 2837 
Q 2550 3084 2163 3084 
Q 1697 3084 1428 2787 
Q 1159 2491 1159 1978 
L 1159 0 
L 581 0 
L 581 4863 
L 1159 4863 
L 1159 2956 
Q 1366 3272 1645 3428 
Q 1925 3584 2291 3584 
Q 2894 3584 3203 3211 
Q 3513 2838 3513 2113 
z
" transform="scale(0.015625)"/>
      </defs>
      <use xlink:href="#DejaVuSans-45"/>
      <use xlink:href="#DejaVuSans-70" x="63.183594"/>
      <use xlink:href="#DejaVuSans-6f" x="126.660156"/>
      <use xlink:href="#DejaVuSans-63" x="187.841797"/>
      <use xlink:href="#DejaVuSans-68" x="242.822266"/>
     </g>
    </g>
   </g>
   <g id="matplotlib.axis_2">
    <g id="ytick_1">
     <g id="line2d_13">
      <path d="M 57.6 276.330833 
L 414.72 276.330833 
" clip-path="url(#p61874da4f1)" style="fill: none; stroke: #ffffff; stroke-width: 0.8; stroke-linecap: square"/>
     </g>
     <g id="line2d_14">
      <defs>
       <path id="mb37c6d756f" d="M 0 0 
L -3.5 0 
" style="stroke: #555555; stroke-width: 0.8"/>
      </defs>
      <g>
       <use xlink:href="#mb37c6d756f" x="57.6" y="276.330833" style="fill: #555555; stroke: #555555; stroke-width: 0.8"/>
      </g>
     </g>
     <g id="text_8">
      <!-- 0.50 -->
      <g style="fill: #555555" transform="translate(28.334375 280.130052) scale(0.1 -0.1)">
       <defs>
        <path id="DejaVuSans-2e" d="M 684 794 
L 1344 794 
L 1344 0 
L 684 0 
L 684 794 
z
" transform="scale(0.015625)"/>
       </defs>
       <use xlink:href="#DejaVuSans-30"/>
       <use xlink:href="#DejaVuSans-2e" x="63.623047"/>
       <use xlink:href="#DejaVuSans-35" x="95.410156"/>
       <use xlink:href="#DejaVuSans-30" x="159.033203"/>
      </g>
     </g>
    </g>
    <g id="ytick_2">
     <g id="line2d_15">
      <path d="M 57.6 242.792699 
L 414.72 242.792699 
" clip-path="url(#p61874da4f1)" style="fill: none; stroke: #ffffff; stroke-width: 0.8; stroke-linecap: square"/>
     </g>
     <g id="line2d_16">
      <g>
       <use xlink:href="#mb37c6d756f" x="57.6" y="242.792699" style="fill: #555555; stroke: #555555; stroke-width: 0.8"/>
      </g>
     </g>
     <g id="text_9">
      <!-- 0.55 -->
      <g style="fill: #555555" transform="translate(28.334375 246.591918) scale(0.1 -0.1)">
       <use xlink:href="#DejaVuSans-30"/>
       <use xlink:href="#DejaVuSans-2e" x="63.623047"/>
       <use xlink:href="#DejaVuSans-35" x="95.410156"/>
       <use xlink:href="#DejaVuSans-35" x="159.033203"/>
      </g>
     </g>
    </g>
    <g id="ytick_3">
     <g id="line2d_17">
      <path d="M 57.6 209.254566 
L 414.72 209.254566 
" clip-path="url(#p61874da4f1)" style="fill: none; stroke: #ffffff; stroke-width: 0.8; stroke-linecap: square"/>
     </g>
     <g id="line2d_18">
      <g>
       <use xlink:href="#mb37c6d756f" x="57.6" y="209.254566" style="fill: #555555; stroke: #555555; stroke-width: 0.8"/>
      </g>
     </g>
     <g id="text_10">
      <!-- 0.60 -->
      <g style="fill: #555555" transform="translate(28.334375 213.053784) scale(0.1 -0.1)">
       <defs>
        <path id="DejaVuSans-36" d="M 2113 2584 
Q 1688 2584 1439 2293 
Q 1191 2003 1191 1497 
Q 1191 994 1439 701 
Q 1688 409 2113 409 
Q 2538 409 2786 701 
Q 3034 994 3034 1497 
Q 3034 2003 2786 2293 
Q 2538 2584 2113 2584 
z
M 3366 4563 
L 3366 3988 
Q 3128 4100 2886 4159 
Q 2644 4219 2406 4219 
Q 1781 4219 1451 3797 
Q 1122 3375 1075 2522 
Q 1259 2794 1537 2939 
Q 1816 3084 2150 3084 
Q 2853 3084 3261 2657 
Q 3669 2231 3669 1497 
Q 3669 778 3244 343 
Q 2819 -91 2113 -91 
Q 1303 -91 875 529 
Q 447 1150 447 2328 
Q 447 3434 972 4092 
Q 1497 4750 2381 4750 
Q 2619 4750 2861 4703 
Q 3103 4656 3366 4563 
z
" transform="scale(0.015625)"/>
       </defs>
       <use xlink:href="#DejaVuSans-30"/>
       <use xlink:href="#DejaVuSans-2e" x="63.623047"/>
       <use xlink:href="#DejaVuSans-36" x="95.410156"/>
       <use xlink:href="#DejaVuSans-30" x="159.033203"/>
      </g>
     </g>
    </g>
    <g id="ytick_4">
     <g id="line2d_19">
      <path d="M 57.6 175.716432 
L 414.72 175.716432 
" clip-path="url(#p61874da4f1)" style="fill: none; stroke: #ffffff; stroke-width: 0.8; stroke-linecap: square"/>
     </g>
     <g id="line2d_20">
      <g>
       <use xlink:href="#mb37c6d756f" x="57.6" y="175.716432" style="fill: #555555; stroke: #555555; stroke-width: 0.8"/>
      </g>
     </g>
     <g id="text_11">
      <!-- 0.65 -->
      <g style="fill: #555555" transform="translate(28.334375 179.51565) scale(0.1 -0.1)">
       <use xlink:href="#DejaVuSans-30"/>
       <use xlink:href="#DejaVuSans-2e" x="63.623047"/>
       <use xlink:href="#DejaVuSans-36" x="95.410156"/>
       <use xlink:href="#DejaVuSans-35" x="159.033203"/>
      </g>
     </g>
    </g>
    <g id="ytick_5">
     <g id="line2d_21">
      <path d="M 57.6 142.178298 
L 414.72 142.178298 
" clip-path="url(#p61874da4f1)" style="fill: none; stroke: #ffffff; stroke-width: 0.8; stroke-linecap: square"/>
     </g>
     <g id="line2d_22">
      <g>
       <use xlink:href="#mb37c6d756f" x="57.6" y="142.178298" style="fill: #555555; stroke: #555555; stroke-width: 0.8"/>
      </g>
     </g>
     <g id="text_12">
      <!-- 0.70 -->
      <g style="fill: #555555" transform="translate(28.334375 145.977517) scale(0.1 -0.1)">
       <defs>
        <path id="DejaVuSans-37" d="M 525 4666 
L 3525 4666 
L 3525 4397 
L 1831 0 
L 1172 0 
L 2766 4134 
L 525 4134 
L 525 4666 
z
" transform="scale(0.015625)"/>
       </defs>
       <use xlink:href="#DejaVuSans-30"/>
       <use xlink:href="#DejaVuSans-2e" x="63.623047"/>
       <use xlink:href="#DejaVuSans-37" x="95.410156"/>
       <use xlink:href="#DejaVuSans-30" x="159.033203"/>
      </g>
     </g>
    </g>
    <g id="ytick_6">
     <g id="line2d_23">
      <path d="M 57.6 108.640164 
L 414.72 108.640164 
" clip-path="url(#p61874da4f1)" style="fill: none; stroke: #ffffff; stroke-width: 0.8; stroke-linecap: square"/>
     </g>
     <g id="line2d_24">
      <g>
       <use xlink:href="#mb37c6d756f" x="57.6" y="108.640164" style="fill: #555555; stroke: #555555; stroke-width: 0.8"/>
      </g>
     </g>
     <g id="text_13">
      <!-- 0.75 -->
      <g style="fill: #555555" transform="translate(28.334375 112.439383) scale(0.1 -0.1)">
       <use xlink:href="#DejaVuSans-30"/>
       <use xlink:href="#DejaVuSans-2e" x="63.623047"/>
       <use xlink:href="#DejaVuSans-37" x="95.410156"/>
       <use xlink:href="#DejaVuSans-35" x="159.033203"/>
      </g>
     </g>
    </g>
    <g id="ytick_7">
     <g id="line2d_25">
      <path d="M 57.6 75.10203 
L 414.72 75.10203 
" clip-path="url(#p61874da4f1)" style="fill: none; stroke: #ffffff; stroke-width: 0.8; stroke-linecap: square"/>
     </g>
     <g id="line2d_26">
      <g>
       <use xlink:href="#mb37c6d756f" x="57.6" y="75.10203" style="fill: #555555; stroke: #555555; stroke-width: 0.8"/>
      </g>
     </g>
     <g id="text_14">
      <!-- 0.80 -->
      <g style="fill: #555555" transform="translate(28.334375 78.901249) scale(0.1 -0.1)">
       <defs>
        <path id="DejaVuSans-38" d="M 2034 2216 
Q 1584 2216 1326 1975 
Q 1069 1734 1069 1313 
Q 1069 891 1326 650 
Q 1584 409 2034 409 
Q 2484 409 2743 651 
Q 3003 894 3003 1313 
Q 3003 1734 2745 1975 
Q 2488 2216 2034 2216 
z
M 1403 2484 
Q 997 2584 770 2862 
Q 544 3141 544 3541 
Q 544 4100 942 4425 
Q 1341 4750 2034 4750 
Q 2731 4750 3128 4425 
Q 3525 4100 3525 3541 
Q 3525 3141 3298 2862 
Q 3072 2584 2669 2484 
Q 3125 2378 3379 2068 
Q 3634 1759 3634 1313 
Q 3634 634 3220 271 
Q 2806 -91 2034 -91 
Q 1263 -91 848 271 
Q 434 634 434 1313 
Q 434 1759 690 2068 
Q 947 2378 1403 2484 
z
M 1172 3481 
Q 1172 3119 1398 2916 
Q 1625 2713 2034 2713 
Q 2441 2713 2670 2916 
Q 2900 3119 2900 3481 
Q 2900 3844 2670 4047 
Q 2441 4250 2034 4250 
Q 1625 4250 1398 4047 
Q 1172 3844 1172 3481 
z
" transform="scale(0.015625)"/>
       </defs>
       <use xlink:href="#DejaVuSans-30"/>
       <use xlink:href="#DejaVuSans-2e" x="63.623047"/>
       <use xlink:href="#DejaVuSans-38" x="95.410156"/>
       <use xlink:href="#DejaVuSans-30" x="159.033203"/>
      </g>
     </g>
    </g>
    <g id="ytick_8">
     <g id="line2d_27">
      <path d="M 57.6 41.563896 
L 414.72 41.563896 
" clip-path="url(#p61874da4f1)" style="fill: none; stroke: #ffffff; stroke-width: 0.8; stroke-linecap: square"/>
     </g>
     <g id="line2d_28">
      <g>
       <use xlink:href="#mb37c6d756f" x="57.6" y="41.563896" style="fill: #555555; stroke: #555555; stroke-width: 0.8"/>
      </g>
     </g>
     <g id="text_15">
      <!-- 0.85 -->
      <g style="fill: #555555" transform="translate(28.334375 45.363115) scale(0.1 -0.1)">
       <use xlink:href="#DejaVuSans-30"/>
       <use xlink:href="#DejaVuSans-2e" x="63.623047"/>
       <use xlink:href="#DejaVuSans-38" x="95.410156"/>
       <use xlink:href="#DejaVuSans-35" x="159.033203"/>
      </g>
     </g>
    </g>
    <g id="text_16">
     <!-- Loss -->
     <g style="fill: #555555" transform="translate(21.83875 187.688625) rotate(-90) scale(0.12 -0.12)">
      <defs>
       <path id="DejaVuSans-4c" d="M 628 4666 
L 1259 4666 
L 1259 531 
L 3531 531 
L 3531 0 
L 628 0 
L 628 4666 
z
" transform="scale(0.015625)"/>
       <path id="DejaVuSans-73" d="M 2834 3397 
L 2834 2853 
Q 2591 2978 2328 3040 
Q 2066 3103 1784 3103 
Q 1356 3103 1142 2972 
Q 928 2841 928 2578 
Q 928 2378 1081 2264 
Q 1234 2150 1697 2047 
L 1894 2003 
Q 2506 1872 2764 1633 
Q 3022 1394 3022 966 
Q 3022 478 2636 193 
Q 2250 -91 1575 -91 
Q 1294 -91 989 -36 
Q 684 19 347 128 
L 347 722 
Q 666 556 975 473 
Q 1284 391 1588 391 
Q 1994 391 2212 530 
Q 2431 669 2431 922 
Q 2431 1156 2273 1281 
Q 2116 1406 1581 1522 
L 1381 1569 
Q 847 1681 609 1914 
Q 372 2147 372 2553 
Q 372 3047 722 3315 
Q 1072 3584 1716 3584 
Q 2034 3584 2315 3537 
Q 2597 3491 2834 3397 
z
" transform="scale(0.015625)"/>
      </defs>
      <use xlink:href="#DejaVuSans-4c"/>
      <use xlink:href="#DejaVuSans-6f" x="53.962891"/>
      <use xlink:href="#DejaVuSans-73" x="115.144531"/>
      <use xlink:href="#DejaVuSans-73" x="167.244141"/>
     </g>
    </g>
   </g>
   <g id="line2d_29">
    <path d="M 73.832727 122.990646 
L 74.435055 123.865877 
L 75.037382 123.440804 
L 76.242037 126.109323 
L 76.844365 125.635561 
L 77.446693 127.640667 
L 78.04902 128.103146 
L 78.651348 128.197316 
L 79.253675 128.963967 
L 79.856003 129.153443 
L 81.060658 130.756225 
L 81.662985 131.262842 
L 82.265313 130.617876 
L 82.86764 132.229125 
L 84.674623 133.516523 
L 85.276951 133.286339 
L 85.879278 134.982379 
L 86.481606 135.009598 
L 87.083933 134.882675 
L 87.686261 135.294515 
L 88.288588 136.351138 
L 88.890916 136.425557 
L 89.493243 136.776251 
L 90.095571 136.926698 
L 91.902554 138.307227 
L 93.107209 138.180441 
L 93.709536 138.607753 
L 94.311864 139.540508 
L 95.516519 139.98079 
L 96.118846 140.557086 
L 96.721174 140.097301 
L 97.323501 140.656773 
L 97.925829 140.687143 
L 98.528157 140.59362 
L 99.130484 140.727971 
L 99.732812 141.709294 
L 100.335139 140.794083 
L 100.937467 141.650107 
L 101.539794 142.233423 
L 102.142122 141.831922 
L 102.744449 142.49923 
L 103.346777 142.324211 
L 104.551432 143.898694 
L 105.153759 143.05895 
L 106.358415 143.419479 
L 106.960742 144.142399 
L 107.56307 143.813207 
L 108.165397 143.816606 
L 108.767725 143.336343 
L 109.370052 143.550479 
L 109.97238 144.770166 
L 110.574707 144.093543 
L 111.177035 144.79529 
L 111.779362 144.328349 
L 112.38169 144.590973 
L 114.188673 144.914664 
L 114.791 144.504663 
L 115.393328 144.923164 
L 115.995655 144.857812 
L 116.597983 145.567563 
L 117.20031 145.38913 
L 117.802638 145.890814 
L 118.404965 145.594174 
L 119.007293 145.832794 
L 119.609621 145.279471 
L 120.211948 146.49029 
L 120.814276 145.653409 
L 121.416603 146.654579 
L 122.018931 146.089285 
L 122.621258 145.881098 
L 123.223586 146.225883 
L 123.825913 146.41779 
L 124.428241 145.955766 
L 125.030568 146.955488 
L 125.632896 145.694773 
L 126.235223 146.309474 
L 127.439879 145.825414 
L 128.042206 146.212497 
L 128.644534 146.798253 
L 129.246861 146.453484 
L 129.849189 146.73027 
L 131.053844 146.224795 
L 131.656171 146.473818 
L 132.258499 145.83273 
L 132.860826 146.272924 
L 134.065482 146.075892 
L 134.667809 146.510856 
L 135.270137 145.988358 
L 135.872464 145.64722 
L 136.474792 146.620795 
L 137.077119 146.394313 
L 138.281774 146.943374 
L 138.884102 146.843415 
L 139.486429 147.13229 
L 140.088757 146.642936 
L 140.691084 146.302046 
L 141.293412 147.048123 
L 141.89574 146.511768 
L 142.498067 146.490458 
L 143.100395 146.676736 
L 143.702722 146.392418 
L 144.907377 146.957719 
L 145.509705 146.252526 
L 146.112032 146.636611 
L 146.71436 147.553286 
L 147.316687 147.07902 
L 147.919015 146.080817 
L 148.521343 146.243682 
L 149.12367 146.788601 
L 149.725998 146.784603 
L 150.328325 146.159107 
L 152.737635 146.552068 
L 153.339963 146.851555 
L 154.544618 146.205653 
L 155.146946 146.361737 
L 156.351601 146.094851 
L 156.953928 145.801009 
L 157.556256 145.920631 
L 158.158583 146.341643 
L 158.760911 145.954071 
L 159.363238 146.445856 
L 159.965566 145.963331 
L 160.567893 146.51076 
L 161.170221 145.735425 
L 161.772548 146.352749 
L 162.374876 145.873014 
L 162.977204 145.675191 
L 163.579531 145.944012 
L 164.181859 146.371052 
L 164.784186 145.783002 
L 165.386514 145.821583 
L 165.988841 145.249509 
L 166.591169 146.193858 
L 167.193496 145.999817 
L 167.795824 145.214247 
L 168.398151 145.83357 
L 169.000479 145.323817 
L 169.602807 145.955214 
L 170.205134 145.843893 
L 170.807462 144.937541 
L 171.409789 145.602906 
L 172.012117 145.338946 
L 172.614444 144.821357 
L 173.216772 144.835695 
L 174.421427 145.645533 
L 175.023754 145.118389 
L 176.22841 145.671816 
L 176.830737 145.007059 
L 178.035392 144.827546 
L 178.63772 145.458872 
L 179.240047 144.363244 
L 179.842375 144.778059 
L 180.444702 144.18314 
L 181.04703 144.586168 
L 181.649357 144.637895 
L 182.251685 144.895401 
L 182.854012 144.487336 
L 183.45634 144.315763 
L 184.660995 143.269352 
L 185.263323 143.121687 
L 185.86565 143.948166 
L 186.467978 142.716948 
L 187.070305 142.999555 
L 187.672633 142.815844 
L 188.27496 141.953719 
L 188.877288 142.399742 
L 189.479615 141.094113 
L 190.081943 141.572336 
L 190.684271 141.098727 
L 191.286598 141.351971 
L 191.888926 140.416906 
L 192.491253 140.292446 
L 193.093581 140.617648 
L 193.695908 140.375486 
L 194.298236 139.403382 
L 194.900563 139.928231 
L 195.502891 139.492659 
L 196.105218 139.712864 
L 196.707546 139.579913 
L 197.309874 138.985401 
L 197.912201 139.046428 
L 198.514529 138.413919 
L 199.116856 138.772105 
L 199.719184 138.000984 
L 200.321511 138.576248 
L 200.923839 138.280296 
L 201.526166 137.135261 
L 202.128494 137.911347 
L 202.730821 137.947074 
L 203.333149 137.74538 
L 203.935476 137.066462 
L 204.537804 137.362278 
L 205.140132 136.926458 
L 205.742459 136.912945 
L 206.344787 136.620471 
L 206.947114 136.665137 
L 208.151769 136.002035 
L 208.754097 135.753444 
L 209.356424 136.560484 
L 209.958752 135.867117 
L 210.561079 135.450607 
L 211.163407 135.415816 
L 211.765735 135.026645 
L 212.368062 134.841095 
L 213.572717 135.227756 
L 214.175045 134.522162 
L 215.3797 134.16065 
L 215.982027 133.792837 
L 216.584355 134.120446 
L 217.186682 133.739647 
L 217.78901 133.566155 
L 218.391337 134.211905 
L 218.993665 133.604384 
L 219.595993 133.44072 
L 220.19832 134.047049 
L 220.800648 133.79071 
L 221.402975 133.276064 
L 222.60763 133.676174 
L 223.209958 133.494278 
L 223.812285 132.62538 
L 224.414613 133.33717 
L 226.221596 131.980238 
L 226.823923 132.60012 
L 227.426251 132.26342 
L 228.028578 132.454511 
L 228.630906 132.775331 
L 229.233233 131.552062 
L 229.835561 131.854507 
L 230.437888 131.333448 
L 231.040216 131.931254 
L 231.642543 131.605244 
L 232.244871 131.61827 
L 232.847199 132.162597 
L 233.449526 131.515967 
L 234.654181 131.425235 
L 235.256509 131.072095 
L 235.858836 131.014283 
L 236.461164 131.093077 
L 237.063491 130.976773 
L 237.665819 130.979956 
L 238.870474 130.79946 
L 239.472801 130.76127 
L 240.075129 130.509688 
L 241.279784 130.628902 
L 241.882112 130.406674 
L 243.689094 130.141475 
L 244.291422 129.704208 
L 244.893749 130.095474 
L 245.496077 129.513804 
L 246.098404 129.699682 
L 246.700732 129.307161 
L 247.30306 130.186525 
L 247.905387 130.020286 
L 248.507715 129.273241 
L 249.110042 129.725238 
L 249.71237 128.684287 
L 250.314697 129.204587 
L 250.917025 129.427118 
L 251.519352 129.030527 
L 252.12168 128.915583 
L 252.724007 129.199917 
L 253.326335 128.764456 
L 253.928663 128.154705 
L 254.53099 128.673421 
L 255.133318 128.969373 
L 255.735645 128.509348 
L 256.9403 128.649568 
L 257.542628 127.622299 
L 258.144955 128.336968 
L 258.747283 127.875752 
L 259.34961 128.162773 
L 259.951938 127.917532 
L 260.554265 128.596978 
L 261.156593 128.3293 
L 261.758921 127.789642 
L 262.361248 128.013853 
L 262.963576 128.01965 
L 264.168231 127.713487 
L 264.770558 127.267144 
L 265.372886 128.133531 
L 265.975213 127.738723 
L 266.577541 126.896748 
L 267.179868 127.291732 
L 267.782196 127.517079 
L 268.384524 127.258132 
L 268.986851 127.600158 
L 269.589179 126.816355 
L 270.191506 127.3905 
L 270.793834 126.696965 
L 271.396161 127.067809 
L 271.998489 126.508017 
L 272.600816 126.721241 
L 273.203144 126.693103 
L 273.805471 126.403532 
L 274.407799 127.319231 
L 275.010126 126.298183 
L 275.612454 126.200694 
L 276.214782 127.214778 
L 276.817109 125.976659 
L 278.021764 125.248973 
L 278.624092 125.597923 
L 279.226419 126.303077 
L 279.828747 126.157323 
L 280.431074 126.659335 
L 281.033402 125.571736 
L 281.635729 125.296406 
L 282.238057 126.380655 
L 282.840385 124.718095 
L 283.442712 125.378606 
L 284.04504 124.845473 
L 284.647367 125.303538 
L 285.249695 125.488169 
L 285.852022 125.373065 
L 287.056677 125.652905 
L 287.659005 124.862257 
L 288.261332 125.088651 
L 288.86366 125.664059 
L 289.465988 125.650114 
L 290.068315 124.536071 
L 290.670643 124.864568 
L 291.27297 125.331661 
L 291.875298 124.327165 
L 292.477625 124.824451 
L 293.079953 124.329188 
L 293.68228 125.299588 
L 294.284608 125.798466 
L 294.886935 124.874675 
L 296.09159 123.724418 
L 296.693918 124.580194 
L 297.296246 124.073648 
L 297.898573 124.522518 
L 298.500901 124.098732 
L 299.103228 124.781416 
L 299.705556 124.079997 
L 300.307883 124.29187 
L 300.910211 124.282578 
L 301.512538 124.76927 
L 302.114866 123.256317 
L 302.717193 124.456622 
L 303.319521 122.948275 
L 303.921849 123.660393 
L 304.524176 124.072457 
L 305.126504 124.001763 
L 305.728831 122.789056 
L 306.331159 123.142684 
L 306.933486 123.27861 
L 307.535814 122.782731 
L 308.138141 123.070056 
L 308.740469 122.61638 
L 309.342796 123.361306 
L 309.945124 123.058086 
L 310.547452 122.486036 
L 311.149779 122.633428 
L 311.752107 122.495847 
L 312.354434 123.050073 
L 314.161417 122.326129 
L 314.763744 121.827947 
L 315.366072 122.76534 
L 315.968399 122.464726 
L 316.570727 121.67463 
L 317.173054 122.567948 
L 317.775382 121.622183 
L 318.37771 122.604778 
L 318.980037 122.130688 
L 319.582365 122.661254 
L 320.184692 121.749098 
L 320.78702 122.971152 
L 321.389347 121.747195 
L 321.991675 121.291544 
L 322.594002 121.747035 
L 323.19633 121.462845 
L 323.798657 121.032774 
L 324.400985 121.678188 
L 325.003313 120.703046 
L 325.60564 120.556237 
L 326.207968 121.76541 
L 326.810295 120.420311 
L 327.412623 120.871348 
L 328.01495 121.060968 
L 328.617278 121.050181 
L 329.821933 120.67769 
L 330.42426 120.817254 
L 331.026588 120.743482 
L 331.628916 119.665622 
L 332.231243 121.086116 
L 332.833571 120.316794 
L 333.435898 120.349058 
L 334.038226 120.960217 
L 334.640553 120.934278 
L 335.242881 120.176774 
L 335.845208 120.225614 
L 336.447536 120.522454 
L 337.049863 120.107703 
L 337.652191 120.331443 
L 338.254518 119.335151 
L 338.856846 120.08174 
L 339.459174 120.255336 
L 340.061501 119.950995 
L 340.663829 119.370422 
L 341.266156 120.356662 
L 341.868484 119.10583 
L 342.470811 119.288949 
L 343.073139 119.754691 
L 343.675466 119.818284 
L 344.277794 119.253534 
L 344.880121 119.204686 
L 345.482449 118.935201 
L 346.084777 119.455988 
L 346.687104 118.958798 
L 347.289432 118.67787 
L 347.891759 118.910733 
L 348.494087 120.175606 
L 349.096414 118.795181 
L 349.698742 120.017003 
L 350.301069 119.002113 
L 350.903397 119.283504 
L 351.505724 118.671529 
L 352.108052 119.626609 
L 352.710379 118.613757 
L 353.312707 119.121311 
L 353.915035 118.634139 
L 354.517362 117.620536 
L 355.11969 117.557039 
L 355.722017 118.22864 
L 356.324345 117.649706 
L 356.926672 118.279144 
L 358.131327 117.907445 
L 358.733655 117.903774 
L 359.335982 118.425377 
L 359.93831 118.447726 
L 360.540638 117.552185 
L 361.142965 116.33125 
L 361.745293 117.696427 
L 362.34762 118.042259 
L 362.949948 117.48026 
L 363.552275 118.520027 
L 364.154603 116.654405 
L 364.75693 117.129471 
L 365.359258 118.252549 
L 366.563913 116.923723 
L 367.166241 118.637042 
L 367.768568 116.753477 
L 368.370896 118.165527 
L 368.973223 117.207561 
L 370.177878 116.796584 
L 370.780206 117.043832 
L 371.382533 117.070267 
L 371.984861 116.908986 
L 372.587188 116.984997 
L 373.189516 116.701063 
L 373.791843 117.202843 
L 374.394171 116.43935 
L 374.996499 117.462589 
L 375.598826 117.002021 
L 376.201154 115.502093 
L 376.803481 116.076062 
L 377.405809 117.234875 
L 378.008136 115.531983 
L 378.610464 115.748358 
L 379.815119 115.314121 
L 380.417446 115.530104 
L 381.019774 115.498527 
L 381.622102 115.918171 
L 382.224429 116.69361 
L 382.826757 115.390364 
L 383.429084 116.004697 
L 384.031412 115.173141 
L 384.633739 116.344292 
L 385.236067 115.380041 
L 385.838394 116.226909 
L 386.440722 115.478697 
L 387.043049 115.401302 
L 387.645377 115.657898 
L 388.247705 114.516532 
L 388.850032 115.173229 
L 389.45236 115.064874 
L 390.054687 116.103209 
L 391.259342 114.797708 
L 391.86167 114.619562 
L 392.463997 115.115177 
L 393.066325 115.836627 
L 393.668652 115.688891 
L 394.27098 115.223429 
L 395.475635 113.886718 
L 396.077963 114.66035 
L 396.68029 114.534636 
L 397.282618 115.042901 
L 397.884945 115.251503 
L 398.487273 113.877139 
L 398.487273 113.877139 
" clip-path="url(#p61874da4f1)" style="fill: none; stroke: #6495ed; stroke-width: 2; stroke-linecap: square"/>
   </g>
   <g id="line2d_30">
    <path d="M 73.832727 134.243321 
L 74.435055 134.705123 
L 75.037382 135.902423 
L 75.63971 135.918285 
L 76.242037 136.237953 
L 76.844365 136.998045 
L 77.446693 137.126266 
L 78.04902 137.542229 
L 78.651348 138.369304 
L 79.253675 138.530613 
L 79.856003 139.16541 
L 80.45833 139.266719 
L 81.662985 139.951242 
L 82.265313 140.947098 
L 82.86764 140.668911 
L 83.469968 140.964748 
L 84.072295 140.999458 
L 84.674623 141.468153 
L 85.276951 142.142122 
L 85.879278 141.791059 
L 87.083933 142.613423 
L 88.288588 142.549337 
L 88.890916 143.033395 
L 90.095571 143.434916 
L 90.697898 143.61729 
L 91.300226 143.425874 
L 91.902554 143.622617 
L 92.504881 144.192155 
L 93.107209 144.507661 
L 94.914191 144.253789 
L 95.516519 144.39613 
L 96.721174 145.033791 
L 97.323501 144.940359 
L 97.925829 145.169209 
L 99.732812 145.372493 
L 100.335139 145.921478 
L 100.937467 145.620745 
L 101.539794 145.534224 
L 102.142122 145.763441 
L 102.744449 145.518799 
L 103.346777 146.139254 
L 103.949104 145.756966 
L 104.551432 145.531489 
L 105.153759 146.091575 
L 106.358415 145.887084 
L 106.960742 146.161835 
L 108.165397 146.364146 
L 108.767725 146.767613 
L 109.370052 146.623267 
L 109.97238 145.936819 
L 110.574707 146.96186 
L 111.177035 146.505889 
L 111.779362 146.823406 
L 112.984018 146.717556 
L 113.586345 146.545864 
L 114.188673 147.183022 
L 114.791 147.302623 
L 115.393328 147.129892 
L 115.995655 147.269678 
L 116.597983 146.883397 
L 117.20031 146.756306 
L 117.802638 147.220066 
L 118.404965 147.273576 
L 119.007293 147.202633 
L 119.609621 147.54813 
L 120.211948 146.879915 
L 122.621258 147.595551 
L 124.428241 147.217034 
L 125.632896 148.001382 
L 126.235223 147.788781 
L 127.439879 147.992712 
L 128.042206 147.411333 
L 128.644534 148.079289 
L 129.849189 147.870982 
L 131.053844 148.11589 
L 131.656171 147.586124 
L 132.258499 148.821809 
L 132.860826 148.313395 
L 134.065482 148.487786 
L 135.270137 148.026498 
L 135.872464 149.229725 
L 136.474792 148.42401 
L 137.077119 148.56265 
L 138.281774 148.337444 
L 138.884102 147.830845 
L 139.486429 148.713609 
L 140.088757 148.644373 
L 140.691084 148.792866 
L 141.293412 148.463721 
L 141.89574 148.724086 
L 142.498067 148.162173 
L 143.100395 149.151887 
L 144.30505 148.923141 
L 144.907377 148.7925 
L 145.509705 149.128849 
L 146.112032 148.321155 
L 146.71436 148.96308 
L 147.316687 148.844327 
L 147.919015 149.359109 
L 148.521343 149.289912 
L 149.12367 149.052276 
L 149.725998 148.365329 
L 150.328325 149.887408 
L 150.930653 149.389357 
L 152.135308 149.40485 
L 152.737635 149.342362 
L 153.339963 148.496244 
L 153.94229 149.877982 
L 154.544618 149.595933 
L 155.146946 149.525249 
L 156.351601 149.706381 
L 156.953928 149.121148 
L 157.556256 150.311746 
L 158.158583 149.651537 
L 158.760911 149.901026 
L 159.363238 149.654335 
L 159.965566 149.940605 
L 160.567893 148.841993 
L 161.170221 150.500032 
L 161.772548 149.750879 
L 162.374876 150.033153 
L 162.977204 150.150875 
L 163.579531 150.027604 
L 164.181859 149.020994 
L 164.784186 150.642013 
L 165.386514 150.1647 
L 165.988841 150.49233 
L 166.591169 150.020087 
L 167.193496 150.155731 
L 167.795824 149.719914 
L 168.398151 150.784475 
L 169.602807 150.249021 
L 170.205134 150.258396 
L 170.807462 150.791401 
L 171.409789 149.559145 
L 172.012117 151.125167 
L 172.614444 150.873958 
L 173.216772 150.919956 
L 174.421427 150.575612 
L 175.023754 149.91681 
L 175.626082 151.20567 
L 176.22841 150.512099 
L 176.830737 150.900495 
L 178.035392 151.036884 
L 178.63772 149.761022 
L 179.240047 151.808696 
L 179.842375 151.023909 
L 180.444702 151.383585 
L 181.04703 151.164345 
L 181.649357 151.240314 
L 182.251685 150.102918 
L 182.854012 151.823705 
L 183.45634 151.281949 
L 184.660995 151.597319 
L 185.263323 151.730213 
L 185.86565 150.184969 
L 186.467978 152.290828 
L 187.070305 151.485157 
L 187.672633 151.566216 
L 188.27496 151.894146 
L 188.877288 151.703902 
L 189.479615 151.218591 
L 190.081943 152.521357 
L 190.684271 152.096752 
L 191.286598 151.938766 
L 191.888926 152.332212 
L 192.491253 152.447292 
L 193.093581 151.148625 
L 193.695908 152.836604 
L 194.900563 152.40521 
L 195.502891 152.539091 
L 196.105218 152.536059 
L 196.707546 151.358011 
L 197.309874 153.309461 
L 197.912201 152.603424 
L 198.514529 152.935977 
L 199.116856 152.700776 
L 199.719184 153.172059 
L 200.321511 151.676906 
L 200.923839 153.517212 
L 201.526166 153.38211 
L 202.128494 153.010969 
L 202.730821 152.930087 
L 203.333149 153.168256 
L 203.935476 152.239306 
L 204.537804 153.822364 
L 205.140132 153.312172 
L 206.947114 153.571731 
L 207.549442 152.516974 
L 208.151769 154.403169 
L 208.754097 153.84789 
L 209.356424 153.469582 
L 210.561079 154.156205 
L 211.163407 152.865267 
L 211.765735 154.82202 
L 212.368062 154.207345 
L 212.97039 154.174201 
L 213.572717 154.028974 
L 214.175045 154.538967 
L 214.777372 153.252754 
L 215.3797 155.217809 
L 215.982027 154.709339 
L 216.584355 154.611368 
L 217.186682 154.750331 
L 217.78901 155.035449 
L 218.391337 153.354578 
L 218.993665 155.55266 
L 219.595993 154.905788 
L 220.19832 154.662258 
L 220.800648 154.723086 
L 221.402975 155.171204 
L 222.005303 153.697042 
L 222.60763 155.527999 
L 223.209958 154.866876 
L 223.812285 155.377724 
L 224.414613 154.969425 
L 225.01694 155.422761 
L 225.619268 154.241113 
L 226.221596 156.414929 
L 226.823923 155.374138 
L 227.426251 155.615407 
L 228.028578 155.504973 
L 228.630906 155.561769 
L 229.233233 154.661257 
L 229.835561 156.519975 
L 230.437888 156.016776 
L 231.040216 155.783482 
L 231.642543 155.883594 
L 232.244871 156.168862 
L 232.847199 154.423145 
L 233.449526 156.790648 
L 234.051854 156.026289 
L 235.256509 156.224003 
L 235.858836 156.53432 
L 236.461164 154.983807 
L 237.063491 157.150588 
L 237.665819 156.338414 
L 238.268146 156.456939 
L 238.870474 156.446373 
L 239.472801 156.74904 
L 240.075129 155.323209 
L 240.677457 157.425638 
L 241.279784 156.583676 
L 241.882112 156.769734 
L 242.484439 156.750951 
L 243.086767 157.148535 
L 243.689094 155.575442 
L 244.291422 157.934543 
L 244.893749 156.888106 
L 245.496077 157.27395 
L 246.098404 157.137889 
L 246.700732 157.633526 
L 247.30306 155.616743 
L 247.905387 157.894648 
L 248.507715 157.4038 
L 249.110042 157.312762 
L 249.71237 157.750202 
L 250.314697 157.790272 
L 250.917025 156.047556 
L 251.519352 158.449111 
L 252.12168 157.68321 
L 252.724007 157.610694 
L 253.326335 157.749449 
L 253.928663 158.396441 
L 254.53099 156.518249 
L 255.133318 158.613405 
L 255.735645 157.926839 
L 256.337973 158.041299 
L 256.9403 157.929461 
L 257.542628 158.750351 
L 258.144955 156.742324 
L 258.747283 159.231658 
L 259.34961 158.23298 
L 259.951938 158.456945 
L 260.554265 158.079101 
L 261.156593 158.548469 
L 261.758921 157.078651 
L 262.361248 159.293661 
L 262.963576 158.407165 
L 263.565903 158.652698 
L 264.168231 158.610934 
L 264.770558 159.241079 
L 265.372886 157.066209 
L 265.975213 159.607073 
L 266.577541 159.092004 
L 267.782196 158.848432 
L 268.384524 159.369778 
L 268.986851 157.406196 
L 269.589179 160.143502 
L 270.191506 158.969967 
L 270.793834 159.443724 
L 271.396161 159.197645 
L 271.998489 159.839431 
L 272.600816 157.934932 
L 273.203144 160.364207 
L 273.805471 159.561718 
L 274.407799 159.291839 
L 275.612454 160.142543 
L 276.214782 157.815908 
L 276.817109 160.846052 
L 277.419437 160.049436 
L 278.021764 160.37277 
L 278.624092 160.13514 
L 279.226419 160.231623 
L 279.828747 158.431816 
L 280.431074 160.692618 
L 281.033402 160.245578 
L 281.635729 160.512943 
L 282.238057 159.919482 
L 282.840385 161.112714 
L 283.442712 158.912704 
L 284.04504 161.655566 
L 284.647367 160.498953 
L 285.852022 160.514386 
L 286.45435 160.893004 
L 287.056677 158.915134 
L 287.659005 161.821154 
L 288.261332 160.746223 
L 289.465988 160.540271 
L 290.068315 161.468717 
L 290.670643 159.377388 
L 291.27297 161.738718 
L 291.875298 161.180325 
L 292.477625 161.093433 
L 293.079953 161.241984 
L 293.68228 161.265746 
L 294.284608 159.053448 
L 294.886935 162.055535 
L 295.489263 161.277503 
L 296.09159 161.716037 
L 296.693918 161.229545 
L 297.296246 161.947938 
L 297.898573 159.711001 
L 298.500901 162.573379 
L 299.103228 161.193356 
L 299.705556 161.66272 
L 300.307883 161.480283 
L 300.910211 161.98968 
L 301.512538 159.696834 
L 302.114866 163.062459 
L 302.717193 161.46896 
L 303.319521 162.359137 
L 303.921849 161.890202 
L 304.524176 162.221829 
L 305.126504 160.175177 
L 305.728831 163.389232 
L 306.331159 162.16426 
L 307.535814 162.405789 
L 308.138141 162.776114 
L 308.740469 160.862141 
L 309.342796 163.223861 
L 309.945124 162.298573 
L 310.547452 162.726842 
L 311.149779 162.577721 
L 311.752107 163.192971 
L 312.354434 160.823059 
L 312.956762 163.633604 
L 313.559089 162.722723 
L 314.161417 162.961433 
L 315.366072 163.170368 
L 315.968399 161.134341 
L 316.570727 164.282824 
L 317.173054 162.794668 
L 317.775382 163.37662 
L 318.37771 162.802973 
L 318.980037 163.565496 
L 319.582365 161.118261 
L 320.184692 164.37317 
L 320.78702 162.723846 
L 321.389347 163.449035 
L 321.991675 163.513545 
L 322.594002 163.86416 
L 323.19633 161.794071 
L 323.798657 164.819071 
L 324.400985 163.42069 
L 325.003313 164.03293 
L 326.207968 163.979991 
L 326.810295 162.370734 
L 327.412623 165.023809 
L 328.01495 163.826942 
L 328.617278 163.984459 
L 329.219605 163.970631 
L 329.821933 164.634352 
L 330.42426 162.266942 
L 331.026588 165.181287 
L 332.231243 164.101102 
L 332.833571 164.358814 
L 333.435898 164.942049 
L 334.038226 162.320919 
L 334.640553 165.26581 
L 335.242881 164.451099 
L 335.845208 164.609295 
L 336.447536 164.361107 
L 337.049863 165.122189 
L 337.652191 162.679885 
L 338.254518 166.11591 
L 338.856846 164.643598 
L 340.061501 164.746719 
L 340.663829 165.639916 
L 341.266156 162.822817 
L 341.868484 166.400019 
L 342.470811 165.111767 
L 343.073139 165.105914 
L 343.675466 164.96784 
L 344.277794 165.855881 
L 344.880121 163.483862 
L 345.482449 166.625106 
L 346.084777 165.196433 
L 346.687104 165.598682 
L 347.289432 165.62284 
L 347.891759 166.142581 
L 348.494087 163.17032 
L 349.096414 166.835789 
L 349.698742 165.094114 
L 350.301069 165.715725 
L 350.903397 165.47327 
L 351.505724 166.366303 
L 352.108052 163.496458 
L 352.710379 167.036523 
L 353.312707 165.565694 
L 354.517362 166.319516 
L 355.11969 166.989374 
L 355.722017 164.206361 
L 356.324345 167.604151 
L 356.926672 166.087214 
L 357.529 166.334463 
L 358.131327 166.313259 
L 358.733655 166.930528 
L 359.335982 164.26204 
L 359.93831 167.324284 
L 360.540638 166.526907 
L 361.142965 167.235008 
L 361.745293 166.568023 
L 362.34762 167.034712 
L 362.949948 164.806746 
L 363.552275 167.48827 
L 364.154603 167.109137 
L 364.75693 167.080738 
L 365.359258 166.451048 
L 365.961585 167.361693 
L 366.563913 165.211607 
L 367.166241 167.600845 
L 368.370896 166.688009 
L 368.973223 167.030787 
L 369.575551 167.769056 
L 370.177878 165.313529 
L 370.780206 168.442982 
L 371.382533 167.161186 
L 371.984861 167.426817 
L 372.587188 167.244092 
L 373.189516 168.070308 
L 373.791843 165.24707 
L 374.394171 168.825401 
L 374.996499 167.066564 
L 376.803481 168.467858 
L 377.405809 165.298282 
L 378.008136 169.392959 
L 378.610464 167.969966 
L 379.212791 168.309989 
L 379.815119 168.255319 
L 380.417446 168.88026 
L 381.019774 166.25028 
L 381.622102 169.389478 
L 382.224429 167.708329 
L 382.826757 168.511311 
L 383.429084 168.034378 
L 384.031412 169.175599 
L 384.633739 165.981733 
L 385.236067 169.737555 
L 385.838394 167.989472 
L 386.440722 168.534354 
L 387.043049 168.421283 
L 387.645377 168.998797 
L 388.247705 166.840835 
L 388.850032 169.891193 
L 389.45236 168.634464 
L 390.054687 168.367522 
L 390.657015 168.517767 
L 391.259342 169.5286 
L 391.86167 166.855726 
L 392.463997 170.056559 
L 393.066325 168.376854 
L 393.668652 168.617683 
L 394.27098 168.686792 
L 394.873307 169.741777 
L 395.475635 167.284 
L 396.077963 170.376308 
L 396.68029 169.075196 
L 397.282618 169.06606 
L 397.884945 168.800504 
L 398.487273 170.224793 
L 398.487273 170.224793 
" clip-path="url(#p61874da4f1)" style="fill: none; stroke: #dc143c; stroke-width: 2; stroke-linecap: square"/>
   </g>
   <g id="line2d_31">
    <path d="M 73.832727 295.488 
L 76.844365 295.488 
L 77.446693 286.13384 
L 80.45833 286.13384 
L 81.060658 277.044334 
L 84.072295 277.044334 
L 84.674623 268.408289 
L 87.686261 268.408289 
L 88.288588 259.546718 
L 91.300226 259.546718 
L 91.902554 250.85389 
L 94.914191 250.85389 
L 95.516519 242.108493 
L 98.528157 242.108493 
L 99.130484 232.986683 
L 102.142122 232.986683 
L 102.744449 224.004523 
L 105.756087 224.004523 
L 106.358415 214.845592 
L 109.370052 214.845592 
L 109.97238 205.835141 
L 112.984018 205.835141 
L 113.586345 196.675207 
L 116.597983 196.675207 
L 117.20031 187.538549 
L 120.211948 187.538549 
L 120.814276 178.730951 
L 123.825913 178.730951 
L 124.428241 170.041334 
L 127.439879 170.041334 
L 128.042206 161.511633 
L 131.053844 161.511633 
L 131.656171 153.353128 
L 134.667809 153.353128 
L 135.270137 145.617587 
L 138.281774 145.617587 
L 138.884102 138.294977 
L 141.89574 138.294977 
L 142.498067 131.039986 
L 145.509705 131.039986 
L 146.112032 123.959557 
L 149.12367 123.959557 
L 149.725998 117.339212 
L 152.737635 117.339212 
L 153.339963 111.096484 
L 156.351601 111.096484 
L 156.953928 105.407541 
L 159.965566 105.407541 
L 160.567893 99.978637 
L 163.579531 99.978637 
L 164.181859 94.785293 
L 167.193496 94.785293 
L 167.795824 90.129682 
L 170.807462 90.129682 
L 171.409789 85.788686 
L 174.421427 85.788686 
L 175.023754 81.849184 
L 178.035392 81.849184 
L 178.63772 78.176342 
L 181.649357 78.176342 
L 182.251685 74.747086 
L 185.263323 74.747086 
L 185.86565 71.534728 
L 188.877288 71.534728 
L 189.479615 68.644008 
L 192.491253 68.644008 
L 193.093581 66.203339 
L 196.105218 66.203339 
L 196.707546 63.948067 
L 199.719184 63.948067 
L 200.321511 62.151074 
L 203.333149 62.151074 
L 203.935476 60.473866 
L 206.947114 60.473866 
L 207.549442 59.259149 
L 210.561079 59.259149 
L 211.163407 58.122886 
L 214.175045 58.122886 
L 214.777372 57.119852 
L 217.78901 57.119852 
L 218.391337 56.145109 
L 221.402975 56.145109 
L 222.005303 55.506651 
L 225.01694 55.506651 
L 225.619268 54.952263 
L 228.630906 54.952263 
L 229.233233 54.407707 
L 232.244871 54.407707 
L 232.847199 54.168336 
L 235.858836 54.168336 
L 236.461164 53.979527 
L 239.472801 53.979527 
L 240.075129 53.804362 
L 246.700732 53.712867 
L 247.905387 53.602913 
L 257.542628 53.647256 
L 258.747283 53.730323 
L 261.156593 53.730323 
L 261.758921 53.900472 
L 268.384524 53.964679 
L 268.986851 54.185993 
L 271.998489 54.185993 
L 272.600816 54.447837 
L 275.612454 54.447837 
L 276.214782 54.635241 
L 279.226419 54.635241 
L 279.828747 54.83348 
L 282.840385 54.83348 
L 283.442712 55.203072 
L 286.45435 55.203072 
L 287.056677 55.543168 
L 290.068315 55.543168 
L 290.670643 55.904935 
L 293.68228 55.904935 
L 294.284608 56.239413 
L 297.296246 56.239413 
L 297.898573 56.633684 
L 300.910211 56.633684 
L 301.512538 57.059858 
L 304.524176 57.059858 
L 305.126504 57.335146 
L 308.138141 57.335146 
L 308.740469 57.700123 
L 311.752107 57.700123 
L 312.354434 58.071721 
L 315.366072 58.071721 
L 315.968399 58.549863 
L 318.980037 58.549863 
L 319.582365 59.010949 
L 322.594002 59.010949 
L 323.19633 59.396191 
L 326.207968 59.396191 
L 326.810295 59.800495 
L 329.821933 59.800495 
L 330.42426 60.184132 
L 333.435898 60.184132 
L 334.038226 60.665684 
L 337.049863 60.665684 
L 337.652191 61.137004 
L 340.663829 61.137004 
L 341.266156 61.496363 
L 344.277794 61.496363 
L 344.880121 61.829035 
L 347.891759 61.829035 
L 348.494087 62.241766 
L 351.505724 62.241766 
L 352.108052 62.576445 
L 355.11969 62.576445 
L 355.722017 62.975131 
L 358.733655 62.975131 
L 359.335982 63.389065 
L 362.34762 63.389065 
L 362.949948 63.728158 
L 365.961585 63.728158 
L 366.563913 64.104973 
L 369.575551 64.104973 
L 370.177878 64.53195 
L 373.189516 64.53195 
L 373.791843 64.871445 
L 376.803481 64.871445 
L 377.405809 65.264311 
L 380.417446 65.264311 
L 381.019774 65.653366 
L 384.031412 65.653366 
L 384.633739 66.07332 
L 387.645377 66.07332 
L 388.247705 66.481837 
L 391.259342 66.481837 
L 391.86167 66.831966 
L 394.873307 66.831966 
L 395.475635 67.194936 
L 398.487273 67.194936 
L 398.487273 67.194936 
" clip-path="url(#p61874da4f1)" style="fill: none; stroke: #ffff00; stroke-width: 3; stroke-linecap: square"/>
   </g>
   <g id="patch_3">
    <path d="M 57.6 307.584 
L 57.6 41.472 
" style="fill: none; stroke: #ffffff; stroke-linejoin: miter; stroke-linecap: square"/>
   </g>
   <g id="patch_4">
    <path d="M 414.72 307.584 
L 414.72 41.472 
" style="fill: none; stroke: #ffffff; stroke-linejoin: miter; stroke-linecap: square"/>
   </g>
   <g id="patch_5">
    <path d="M 57.6 307.584 
L 414.72 307.584 
" style="fill: none; stroke: #ffffff; stroke-linejoin: miter; stroke-linecap: square"/>
   </g>
   <g id="patch_6">
    <path d="M 57.6 41.472 
L 414.72 41.472 
" style="fill: none; stroke: #ffffff; stroke-linejoin: miter; stroke-linecap: square"/>
   </g>
   <g id="legend_1">
    <g id="patch_7">
     <path d="M 243.124687 302.584 
L 407.72 302.584 
Q 409.72 302.584 409.72 300.584 
L 409.72 257.549625 
Q 409.72 255.549625 407.72 255.549625 
L 243.124687 255.549625 
Q 241.124687 255.549625 241.124687 257.549625 
L 241.124687 300.584 
Q 241.124687 302.584 243.124687 302.584 
z
" style="fill: #e5e5e5; opacity: 0.8; stroke: #cccccc; stroke-width: 0.5; stroke-linejoin: miter"/>
    </g>
    <g id="line2d_32">
     <path d="M 245.124687 263.648062 
L 255.124687 263.648062 
L 265.124687 263.648062 
" style="fill: none; stroke: #6495ed; stroke-width: 2; stroke-linecap: square"/>
    </g>
    <g id="text_17">
     <!-- Generator loss -->
     <g transform="translate(273.124687 267.148062) scale(0.1 -0.1)">
      <defs>
       <path id="DejaVuSans-47" d="M 3809 666 
L 3809 1919 
L 2778 1919 
L 2778 2438 
L 4434 2438 
L 4434 434 
Q 4069 175 3628 42 
Q 3188 -91 2688 -91 
Q 1594 -91 976 548 
Q 359 1188 359 2328 
Q 359 3472 976 4111 
Q 1594 4750 2688 4750 
Q 3144 4750 3555 4637 
Q 3966 4525 4313 4306 
L 4313 3634 
Q 3963 3931 3569 4081 
Q 3175 4231 2741 4231 
Q 1884 4231 1454 3753 
Q 1025 3275 1025 2328 
Q 1025 1384 1454 906 
Q 1884 428 2741 428 
Q 3075 428 3337 486 
Q 3600 544 3809 666 
z
" transform="scale(0.015625)"/>
       <path id="DejaVuSans-65" d="M 3597 1894 
L 3597 1613 
L 953 1613 
Q 991 1019 1311 708 
Q 1631 397 2203 397 
Q 2534 397 2845 478 
Q 3156 559 3463 722 
L 3463 178 
Q 3153 47 2828 -22 
Q 2503 -91 2169 -91 
Q 1331 -91 842 396 
Q 353 884 353 1716 
Q 353 2575 817 3079 
Q 1281 3584 2069 3584 
Q 2775 3584 3186 3129 
Q 3597 2675 3597 1894 
z
M 3022 2063 
Q 3016 2534 2758 2815 
Q 2500 3097 2075 3097 
Q 1594 3097 1305 2825 
Q 1016 2553 972 2059 
L 3022 2063 
z
" transform="scale(0.015625)"/>
       <path id="DejaVuSans-6e" d="M 3513 2113 
L 3513 0 
L 2938 0 
L 2938 2094 
Q 2938 2591 2744 2837 
Q 2550 3084 2163 3084 
Q 1697 3084 1428 2787 
Q 1159 2491 1159 1978 
L 1159 0 
L 581 0 
L 581 3500 
L 1159 3500 
L 1159 2956 
Q 1366 3272 1645 3428 
Q 1925 3584 2291 3584 
Q 2894 3584 3203 3211 
Q 3513 2838 3513 2113 
z
" transform="scale(0.015625)"/>
       <path id="DejaVuSans-72" d="M 2631 2963 
Q 2534 3019 2420 3045 
Q 2306 3072 2169 3072 
Q 1681 3072 1420 2755 
Q 1159 2438 1159 1844 
L 1159 0 
L 581 0 
L 581 3500 
L 1159 3500 
L 1159 2956 
Q 1341 3275 1631 3429 
Q 1922 3584 2338 3584 
Q 2397 3584 2469 3576 
Q 2541 3569 2628 3553 
L 2631 2963 
z
" transform="scale(0.015625)"/>
       <path id="DejaVuSans-61" d="M 2194 1759 
Q 1497 1759 1228 1600 
Q 959 1441 959 1056 
Q 959 750 1161 570 
Q 1363 391 1709 391 
Q 2188 391 2477 730 
Q 2766 1069 2766 1631 
L 2766 1759 
L 2194 1759 
z
M 3341 1997 
L 3341 0 
L 2766 0 
L 2766 531 
Q 2569 213 2275 61 
Q 1981 -91 1556 -91 
Q 1019 -91 701 211 
Q 384 513 384 1019 
Q 384 1609 779 1909 
Q 1175 2209 1959 2209 
L 2766 2209 
L 2766 2266 
Q 2766 2663 2505 2880 
Q 2244 3097 1772 3097 
Q 1472 3097 1187 3025 
Q 903 2953 641 2809 
L 641 3341 
Q 956 3463 1253 3523 
Q 1550 3584 1831 3584 
Q 2591 3584 2966 3190 
Q 3341 2797 3341 1997 
z
" transform="scale(0.015625)"/>
       <path id="DejaVuSans-74" d="M 1172 4494 
L 1172 3500 
L 2356 3500 
L 2356 3053 
L 1172 3053 
L 1172 1153 
Q 1172 725 1289 603 
Q 1406 481 1766 481 
L 2356 481 
L 2356 0 
L 1766 0 
Q 1100 0 847 248 
Q 594 497 594 1153 
L 594 3053 
L 172 3053 
L 172 3500 
L 594 3500 
L 594 4494 
L 1172 4494 
z
" transform="scale(0.015625)"/>
       <path id="DejaVuSans-20" transform="scale(0.015625)"/>
       <path id="DejaVuSans-6c" d="M 603 4863 
L 1178 4863 
L 1178 0 
L 603 0 
L 603 4863 
z
" transform="scale(0.015625)"/>
      </defs>
      <use xlink:href="#DejaVuSans-47"/>
      <use xlink:href="#DejaVuSans-65" x="77.490234"/>
      <use xlink:href="#DejaVuSans-6e" x="139.013672"/>
      <use xlink:href="#DejaVuSans-65" x="202.392578"/>
      <use xlink:href="#DejaVuSans-72" x="263.916016"/>
      <use xlink:href="#DejaVuSans-61" x="305.029297"/>
      <use xlink:href="#DejaVuSans-74" x="366.308594"/>
      <use xlink:href="#DejaVuSans-6f" x="405.517578"/>
      <use xlink:href="#DejaVuSans-72" x="466.699219"/>
      <use xlink:href="#DejaVuSans-20" x="507.8125"/>
      <use xlink:href="#DejaVuSans-6c" x="539.599609"/>
      <use xlink:href="#DejaVuSans-6f" x="567.382812"/>
      <use xlink:href="#DejaVuSans-73" x="628.564453"/>
      <use xlink:href="#DejaVuSans-73" x="680.664062"/>
     </g>
    </g>
    <g id="line2d_33">
     <path d="M 245.124687 278.326188 
L 255.124687 278.326188 
L 265.124687 278.326188 
" style="fill: none; stroke: #dc143c; stroke-width: 2; stroke-linecap: square"/>
    </g>
    <g id="text_18">
     <!-- Average discriminator loss -->
     <g transform="translate(273.124687 281.826188) scale(0.1 -0.1)">
      <defs>
       <path id="DejaVuSans-41" d="M 2188 4044 
L 1331 1722 
L 3047 1722 
L 2188 4044 
z
M 1831 4666 
L 2547 4666 
L 4325 0 
L 3669 0 
L 3244 1197 
L 1141 1197 
L 716 0 
L 50 0 
L 1831 4666 
z
" transform="scale(0.015625)"/>
       <path id="DejaVuSans-76" d="M 191 3500 
L 800 3500 
L 1894 563 
L 2988 3500 
L 3597 3500 
L 2284 0 
L 1503 0 
L 191 3500 
z
" transform="scale(0.015625)"/>
       <path id="DejaVuSans-67" d="M 2906 1791 
Q 2906 2416 2648 2759 
Q 2391 3103 1925 3103 
Q 1463 3103 1205 2759 
Q 947 2416 947 1791 
Q 947 1169 1205 825 
Q 1463 481 1925 481 
Q 2391 481 2648 825 
Q 2906 1169 2906 1791 
z
M 3481 434 
Q 3481 -459 3084 -895 
Q 2688 -1331 1869 -1331 
Q 1566 -1331 1297 -1286 
Q 1028 -1241 775 -1147 
L 775 -588 
Q 1028 -725 1275 -790 
Q 1522 -856 1778 -856 
Q 2344 -856 2625 -561 
Q 2906 -266 2906 331 
L 2906 616 
Q 2728 306 2450 153 
Q 2172 0 1784 0 
Q 1141 0 747 490 
Q 353 981 353 1791 
Q 353 2603 747 3093 
Q 1141 3584 1784 3584 
Q 2172 3584 2450 3431 
Q 2728 3278 2906 2969 
L 2906 3500 
L 3481 3500 
L 3481 434 
z
" transform="scale(0.015625)"/>
       <path id="DejaVuSans-64" d="M 2906 2969 
L 2906 4863 
L 3481 4863 
L 3481 0 
L 2906 0 
L 2906 525 
Q 2725 213 2448 61 
Q 2172 -91 1784 -91 
Q 1150 -91 751 415 
Q 353 922 353 1747 
Q 353 2572 751 3078 
Q 1150 3584 1784 3584 
Q 2172 3584 2448 3432 
Q 2725 3281 2906 2969 
z
M 947 1747 
Q 947 1113 1208 752 
Q 1469 391 1925 391 
Q 2381 391 2643 752 
Q 2906 1113 2906 1747 
Q 2906 2381 2643 2742 
Q 2381 3103 1925 3103 
Q 1469 3103 1208 2742 
Q 947 2381 947 1747 
z
" transform="scale(0.015625)"/>
       <path id="DejaVuSans-69" d="M 603 3500 
L 1178 3500 
L 1178 0 
L 603 0 
L 603 3500 
z
M 603 4863 
L 1178 4863 
L 1178 4134 
L 603 4134 
L 603 4863 
z
" transform="scale(0.015625)"/>
       <path id="DejaVuSans-6d" d="M 3328 2828 
Q 3544 3216 3844 3400 
Q 4144 3584 4550 3584 
Q 5097 3584 5394 3201 
Q 5691 2819 5691 2113 
L 5691 0 
L 5113 0 
L 5113 2094 
Q 5113 2597 4934 2840 
Q 4756 3084 4391 3084 
Q 3944 3084 3684 2787 
Q 3425 2491 3425 1978 
L 3425 0 
L 2847 0 
L 2847 2094 
Q 2847 2600 2669 2842 
Q 2491 3084 2119 3084 
Q 1678 3084 1418 2786 
Q 1159 2488 1159 1978 
L 1159 0 
L 581 0 
L 581 3500 
L 1159 3500 
L 1159 2956 
Q 1356 3278 1631 3431 
Q 1906 3584 2284 3584 
Q 2666 3584 2933 3390 
Q 3200 3197 3328 2828 
z
" transform="scale(0.015625)"/>
      </defs>
      <use xlink:href="#DejaVuSans-41"/>
      <use xlink:href="#DejaVuSans-76" x="62.533203"/>
      <use xlink:href="#DejaVuSans-65" x="121.712891"/>
      <use xlink:href="#DejaVuSans-72" x="183.236328"/>
      <use xlink:href="#DejaVuSans-61" x="224.349609"/>
      <use xlink:href="#DejaVuSans-67" x="285.628906"/>
      <use xlink:href="#DejaVuSans-65" x="349.105469"/>
      <use xlink:href="#DejaVuSans-20" x="410.628906"/>
      <use xlink:href="#DejaVuSans-64" x="442.416016"/>
      <use xlink:href="#DejaVuSans-69" x="505.892578"/>
      <use xlink:href="#DejaVuSans-73" x="533.675781"/>
      <use xlink:href="#DejaVuSans-63" x="585.775391"/>
      <use xlink:href="#DejaVuSans-72" x="640.755859"/>
      <use xlink:href="#DejaVuSans-69" x="681.869141"/>
      <use xlink:href="#DejaVuSans-6d" x="709.652344"/>
      <use xlink:href="#DejaVuSans-69" x="807.064453"/>
      <use xlink:href="#DejaVuSans-6e" x="834.847656"/>
      <use xlink:href="#DejaVuSans-61" x="898.226562"/>
      <use xlink:href="#DejaVuSans-74" x="959.505859"/>
      <use xlink:href="#DejaVuSans-6f" x="998.714844"/>
      <use xlink:href="#DejaVuSans-72" x="1059.896484"/>
      <use xlink:href="#DejaVuSans-20" x="1101.009766"/>
      <use xlink:href="#DejaVuSans-6c" x="1132.796875"/>
      <use xlink:href="#DejaVuSans-6f" x="1160.580078"/>
      <use xlink:href="#DejaVuSans-73" x="1221.761719"/>
      <use xlink:href="#DejaVuSans-73" x="1273.861328"/>
     </g>
    </g>
    <g id="line2d_34">
     <path d="M 245.124687 293.004312 
L 255.124687 293.004312 
L 265.124687 293.004312 
" style="fill: none; stroke: #ffff00; stroke-width: 3; stroke-linecap: square"/>
    </g>
    <g id="text_19">
     <!-- ROC AUC -->
     <g transform="translate(273.124687 296.504312) scale(0.1 -0.1)">
      <defs>
       <path id="DejaVuSans-52" d="M 2841 2188 
Q 3044 2119 3236 1894 
Q 3428 1669 3622 1275 
L 4263 0 
L 3584 0 
L 2988 1197 
Q 2756 1666 2539 1819 
Q 2322 1972 1947 1972 
L 1259 1972 
L 1259 0 
L 628 0 
L 628 4666 
L 2053 4666 
Q 2853 4666 3247 4331 
Q 3641 3997 3641 3322 
Q 3641 2881 3436 2590 
Q 3231 2300 2841 2188 
z
M 1259 4147 
L 1259 2491 
L 2053 2491 
Q 2509 2491 2742 2702 
Q 2975 2913 2975 3322 
Q 2975 3731 2742 3939 
Q 2509 4147 2053 4147 
L 1259 4147 
z
" transform="scale(0.015625)"/>
       <path id="DejaVuSans-4f" d="M 2522 4238 
Q 1834 4238 1429 3725 
Q 1025 3213 1025 2328 
Q 1025 1447 1429 934 
Q 1834 422 2522 422 
Q 3209 422 3611 934 
Q 4013 1447 4013 2328 
Q 4013 3213 3611 3725 
Q 3209 4238 2522 4238 
z
M 2522 4750 
Q 3503 4750 4090 4092 
Q 4678 3434 4678 2328 
Q 4678 1225 4090 567 
Q 3503 -91 2522 -91 
Q 1538 -91 948 565 
Q 359 1222 359 2328 
Q 359 3434 948 4092 
Q 1538 4750 2522 4750 
z
" transform="scale(0.015625)"/>
       <path id="DejaVuSans-43" d="M 4122 4306 
L 4122 3641 
Q 3803 3938 3442 4084 
Q 3081 4231 2675 4231 
Q 1875 4231 1450 3742 
Q 1025 3253 1025 2328 
Q 1025 1406 1450 917 
Q 1875 428 2675 428 
Q 3081 428 3442 575 
Q 3803 722 4122 1019 
L 4122 359 
Q 3791 134 3420 21 
Q 3050 -91 2638 -91 
Q 1578 -91 968 557 
Q 359 1206 359 2328 
Q 359 3453 968 4101 
Q 1578 4750 2638 4750 
Q 3056 4750 3426 4639 
Q 3797 4528 4122 4306 
z
" transform="scale(0.015625)"/>
       <path id="DejaVuSans-55" d="M 556 4666 
L 1191 4666 
L 1191 1831 
Q 1191 1081 1462 751 
Q 1734 422 2344 422 
Q 2950 422 3222 751 
Q 3494 1081 3494 1831 
L 3494 4666 
L 4128 4666 
L 4128 1753 
Q 4128 841 3676 375 
Q 3225 -91 2344 -91 
Q 1459 -91 1007 375 
Q 556 841 556 1753 
L 556 4666 
z
" transform="scale(0.015625)"/>
      </defs>
      <use xlink:href="#DejaVuSans-52"/>
      <use xlink:href="#DejaVuSans-4f" x="69.482422"/>
      <use xlink:href="#DejaVuSans-43" x="148.193359"/>
      <use xlink:href="#DejaVuSans-20" x="218.017578"/>
      <use xlink:href="#DejaVuSans-41" x="249.804688"/>
      <use xlink:href="#DejaVuSans-55" x="318.212891"/>
      <use xlink:href="#DejaVuSans-43" x="391.40625"/>
     </g>
    </g>
   </g>
  </g>
 </g>
 <defs>
  <clipPath id="p61874da4f1">
   <rect x="57.6" y="41.472" width="357.12" height="266.112"/>
  </clipPath>
 </defs>
</svg>
