<?xml version="1.0" encoding="utf-8" standalone="no"?>
<!DOCTYPE svg PUBLIC "-//W3C//DTD SVG 1.1//EN"
  "http://www.w3.org/Graphics/SVG/1.1/DTD/svg11.dtd">
<svg xmlns:xlink="http://www.w3.org/1999/xlink" width="460.8pt" height="345.6pt" viewBox="0 0 460.8 345.6" xmlns="http://www.w3.org/2000/svg" version="1.1">
 <metadata>
  <rdf:RDF xmlns:dc="http://purl.org/dc/elements/1.1/" xmlns:cc="http://creativecommons.org/ns#" xmlns:rdf="http://www.w3.org/1999/02/22-rdf-syntax-ns#">
   <cc:Work>
    <dc:type rdf:resource="http://purl.org/dc/dcmitype/StillImage"/>
    <dc:date>2023-07-13T11:30:32.804746</dc:date>
    <dc:format>image/svg+xml</dc:format>
    <dc:creator>
     <cc:Agent>
      <dc:title>Matplotlib v3.7.1, https://matplotlib.org/</dc:title>
     </cc:Agent>
    </dc:creator>
   </cc:Work>
  </rdf:RDF>
 </metadata>
 <defs>
  <style type="text/css">*{stroke-linejoin: round; stroke-linecap: butt}</style>
 </defs>
 <g id="figure_1">
  <g id="patch_1">
   <path d="M 0 345.6 
L 460.8 345.6 
L 460.8 0 
L 0 0 
z
" style="fill: #ffffff"/>
  </g>
  <g id="axes_1">
   <g id="patch_2">
    <path d="M 57.6 307.584 
L 414.72 307.584 
L 414.72 41.472 
L 57.6 41.472 
z
" style="fill: #e5e5e5"/>
   </g>
   <g id="matplotlib.axis_1">
    <g id="xtick_1">
     <g id="line2d_1">
      <path d="M 70.184923 307.584 
L 70.184923 41.472 
" clip-path="url(#p701cb22bda)" style="fill: none; stroke: #ffffff; stroke-width: 0.8; stroke-linecap: square"/>
     </g>
     <g id="line2d_2">
      <defs>
       <path id="md232cb06b0" d="M 0 0 
L 0 3.5 
" style="stroke: #555555; stroke-width: 0.8"/>
      </defs>
      <g>
       <use xlink:href="#md232cb06b0" x="70.184923" y="307.584" style="fill: #555555; stroke: #555555; stroke-width: 0.8"/>
      </g>
     </g>
     <g id="text_1">
      <!-- 0 -->
      <g style="fill: #555555" transform="translate(67.003673 322.182437) scale(0.1 -0.1)">
       <defs>
        <path id="DejaVuSans-30" d="M 2034 4250 
Q 1547 4250 1301 3770 
Q 1056 3291 1056 2328 
Q 1056 1369 1301 889 
Q 1547 409 2034 409 
Q 2525 409 2770 889 
Q 3016 1369 3016 2328 
Q 3016 3291 2770 3770 
Q 2525 4250 2034 4250 
z
M 2034 4750 
Q 2819 4750 3233 4129 
Q 3647 3509 3647 2328 
Q 3647 1150 3233 529 
Q 2819 -91 2034 -91 
Q 1250 -91 836 529 
Q 422 1150 422 2328 
Q 422 3509 836 4129 
Q 1250 4750 2034 4750 
z
" transform="scale(0.015625)"/>
       </defs>
       <use xlink:href="#DejaVuSans-30"/>
      </g>
     </g>
    </g>
    <g id="xtick_2">
     <g id="line2d_3">
      <path d="M 143.141001 307.584 
L 143.141001 41.472 
" clip-path="url(#p701cb22bda)" style="fill: none; stroke: #ffffff; stroke-width: 0.8; stroke-linecap: square"/>
     </g>
     <g id="line2d_4">
      <g>
       <use xlink:href="#md232cb06b0" x="143.141001" y="307.584" style="fill: #555555; stroke: #555555; stroke-width: 0.8"/>
      </g>
     </g>
     <g id="text_2">
      <!-- 20 -->
      <g style="fill: #555555" transform="translate(136.778501 322.182437) scale(0.1 -0.1)">
       <defs>
        <path id="DejaVuSans-32" d="M 1228 531 
L 3431 531 
L 3431 0 
L 469 0 
L 469 531 
Q 828 903 1448 1529 
Q 2069 2156 2228 2338 
Q 2531 2678 2651 2914 
Q 2772 3150 2772 3378 
Q 2772 3750 2511 3984 
Q 2250 4219 1831 4219 
Q 1534 4219 1204 4116 
Q 875 4013 500 3803 
L 500 4441 
Q 881 4594 1212 4672 
Q 1544 4750 1819 4750 
Q 2544 4750 2975 4387 
Q 3406 4025 3406 3419 
Q 3406 3131 3298 2873 
Q 3191 2616 2906 2266 
Q 2828 2175 2409 1742 
Q 1991 1309 1228 531 
z
" transform="scale(0.015625)"/>
       </defs>
       <use xlink:href="#DejaVuSans-32"/>
       <use xlink:href="#DejaVuSans-30" x="63.623047"/>
      </g>
     </g>
    </g>
    <g id="xtick_3">
     <g id="line2d_5">
      <path d="M 216.097079 307.584 
L 216.097079 41.472 
" clip-path="url(#p701cb22bda)" style="fill: none; stroke: #ffffff; stroke-width: 0.8; stroke-linecap: square"/>
     </g>
     <g id="line2d_6">
      <g>
       <use xlink:href="#md232cb06b0" x="216.097079" y="307.584" style="fill: #555555; stroke: #555555; stroke-width: 0.8"/>
      </g>
     </g>
     <g id="text_3">
      <!-- 40 -->
      <g style="fill: #555555" transform="translate(209.734579 322.182437) scale(0.1 -0.1)">
       <defs>
        <path id="DejaVuSans-34" d="M 2419 4116 
L 825 1625 
L 2419 1625 
L 2419 4116 
z
M 2253 4666 
L 3047 4666 
L 3047 1625 
L 3713 1625 
L 3713 1100 
L 3047 1100 
L 3047 0 
L 2419 0 
L 2419 1100 
L 313 1100 
L 313 1709 
L 2253 4666 
z
" transform="scale(0.015625)"/>
       </defs>
       <use xlink:href="#DejaVuSans-34"/>
       <use xlink:href="#DejaVuSans-30" x="63.623047"/>
      </g>
     </g>
    </g>
    <g id="xtick_4">
     <g id="line2d_7">
      <path d="M 289.053156 307.584 
L 289.053156 41.472 
" clip-path="url(#p701cb22bda)" style="fill: none; stroke: #ffffff; stroke-width: 0.8; stroke-linecap: square"/>
     </g>
     <g id="line2d_8">
      <g>
       <use xlink:href="#md232cb06b0" x="289.053156" y="307.584" style="fill: #555555; stroke: #555555; stroke-width: 0.8"/>
      </g>
     </g>
     <g id="text_4">
      <!-- 60 -->
      <g style="fill: #555555" transform="translate(282.690656 322.182437) scale(0.1 -0.1)">
       <defs>
        <path id="DejaVuSans-36" d="M 2113 2584 
Q 1688 2584 1439 2293 
Q 1191 2003 1191 1497 
Q 1191 994 1439 701 
Q 1688 409 2113 409 
Q 2538 409 2786 701 
Q 3034 994 3034 1497 
Q 3034 2003 2786 2293 
Q 2538 2584 2113 2584 
z
M 3366 4563 
L 3366 3988 
Q 3128 4100 2886 4159 
Q 2644 4219 2406 4219 
Q 1781 4219 1451 3797 
Q 1122 3375 1075 2522 
Q 1259 2794 1537 2939 
Q 1816 3084 2150 3084 
Q 2853 3084 3261 2657 
Q 3669 2231 3669 1497 
Q 3669 778 3244 343 
Q 2819 -91 2113 -91 
Q 1303 -91 875 529 
Q 447 1150 447 2328 
Q 447 3434 972 4092 
Q 1497 4750 2381 4750 
Q 2619 4750 2861 4703 
Q 3103 4656 3366 4563 
z
" transform="scale(0.015625)"/>
       </defs>
       <use xlink:href="#DejaVuSans-36"/>
       <use xlink:href="#DejaVuSans-30" x="63.623047"/>
      </g>
     </g>
    </g>
    <g id="xtick_5">
     <g id="line2d_9">
      <path d="M 362.009234 307.584 
L 362.009234 41.472 
" clip-path="url(#p701cb22bda)" style="fill: none; stroke: #ffffff; stroke-width: 0.8; stroke-linecap: square"/>
     </g>
     <g id="line2d_10">
      <g>
       <use xlink:href="#md232cb06b0" x="362.009234" y="307.584" style="fill: #555555; stroke: #555555; stroke-width: 0.8"/>
      </g>
     </g>
     <g id="text_5">
      <!-- 80 -->
      <g style="fill: #555555" transform="translate(355.646734 322.182437) scale(0.1 -0.1)">
       <defs>
        <path id="DejaVuSans-38" d="M 2034 2216 
Q 1584 2216 1326 1975 
Q 1069 1734 1069 1313 
Q 1069 891 1326 650 
Q 1584 409 2034 409 
Q 2484 409 2743 651 
Q 3003 894 3003 1313 
Q 3003 1734 2745 1975 
Q 2488 2216 2034 2216 
z
M 1403 2484 
Q 997 2584 770 2862 
Q 544 3141 544 3541 
Q 544 4100 942 4425 
Q 1341 4750 2034 4750 
Q 2731 4750 3128 4425 
Q 3525 4100 3525 3541 
Q 3525 3141 3298 2862 
Q 3072 2584 2669 2484 
Q 3125 2378 3379 2068 
Q 3634 1759 3634 1313 
Q 3634 634 3220 271 
Q 2806 -91 2034 -91 
Q 1263 -91 848 271 
Q 434 634 434 1313 
Q 434 1759 690 2068 
Q 947 2378 1403 2484 
z
M 1172 3481 
Q 1172 3119 1398 2916 
Q 1625 2713 2034 2713 
Q 2441 2713 2670 2916 
Q 2900 3119 2900 3481 
Q 2900 3844 2670 4047 
Q 2441 4250 2034 4250 
Q 1625 4250 1398 4047 
Q 1172 3844 1172 3481 
z
" transform="scale(0.015625)"/>
       </defs>
       <use xlink:href="#DejaVuSans-38"/>
       <use xlink:href="#DejaVuSans-30" x="63.623047"/>
      </g>
     </g>
    </g>
   </g>
   <g id="matplotlib.axis_2">
    <g id="ytick_1">
     <g id="line2d_11">
      <path d="M 57.6 295.556633 
L 414.72 295.556633 
" clip-path="url(#p701cb22bda)" style="fill: none; stroke: #ffffff; stroke-width: 0.8; stroke-linecap: square"/>
     </g>
     <g id="line2d_12">
      <defs>
       <path id="m7546771732" d="M 0 0 
L -3.5 0 
" style="stroke: #555555; stroke-width: 0.8"/>
      </defs>
      <g>
       <use xlink:href="#m7546771732" x="57.6" y="295.556633" style="fill: #555555; stroke: #555555; stroke-width: 0.8"/>
      </g>
     </g>
     <g id="text_6">
      <!-- 0.0 -->
      <g style="fill: #555555" transform="translate(34.696875 299.355851) scale(0.1 -0.1)">
       <defs>
        <path id="DejaVuSans-2e" d="M 684 794 
L 1344 794 
L 1344 0 
L 684 0 
L 684 794 
z
" transform="scale(0.015625)"/>
       </defs>
       <use xlink:href="#DejaVuSans-30"/>
       <use xlink:href="#DejaVuSans-2e" x="63.623047"/>
       <use xlink:href="#DejaVuSans-30" x="95.410156"/>
      </g>
     </g>
    </g>
    <g id="ytick_2">
     <g id="line2d_13">
      <path d="M 57.6 261.456866 
L 414.72 261.456866 
" clip-path="url(#p701cb22bda)" style="fill: none; stroke: #ffffff; stroke-width: 0.8; stroke-linecap: square"/>
     </g>
     <g id="line2d_14">
      <g>
       <use xlink:href="#m7546771732" x="57.6" y="261.456866" style="fill: #555555; stroke: #555555; stroke-width: 0.8"/>
      </g>
     </g>
     <g id="text_7">
      <!-- 0.5 -->
      <g style="fill: #555555" transform="translate(34.696875 265.256085) scale(0.1 -0.1)">
       <defs>
        <path id="DejaVuSans-35" d="M 691 4666 
L 3169 4666 
L 3169 4134 
L 1269 4134 
L 1269 2991 
Q 1406 3038 1543 3061 
Q 1681 3084 1819 3084 
Q 2600 3084 3056 2656 
Q 3513 2228 3513 1497 
Q 3513 744 3044 326 
Q 2575 -91 1722 -91 
Q 1428 -91 1123 -41 
Q 819 9 494 109 
L 494 744 
Q 775 591 1075 516 
Q 1375 441 1709 441 
Q 2250 441 2565 725 
Q 2881 1009 2881 1497 
Q 2881 1984 2565 2268 
Q 2250 2553 1709 2553 
Q 1456 2553 1204 2497 
Q 953 2441 691 2322 
L 691 4666 
z
" transform="scale(0.015625)"/>
       </defs>
       <use xlink:href="#DejaVuSans-30"/>
       <use xlink:href="#DejaVuSans-2e" x="63.623047"/>
       <use xlink:href="#DejaVuSans-35" x="95.410156"/>
      </g>
     </g>
    </g>
    <g id="ytick_3">
     <g id="line2d_15">
      <path d="M 57.6 227.3571 
L 414.72 227.3571 
" clip-path="url(#p701cb22bda)" style="fill: none; stroke: #ffffff; stroke-width: 0.8; stroke-linecap: square"/>
     </g>
     <g id="line2d_16">
      <g>
       <use xlink:href="#m7546771732" x="57.6" y="227.3571" style="fill: #555555; stroke: #555555; stroke-width: 0.8"/>
      </g>
     </g>
     <g id="text_8">
      <!-- 1.0 -->
      <g style="fill: #555555" transform="translate(34.696875 231.156318) scale(0.1 -0.1)">
       <defs>
        <path id="DejaVuSans-31" d="M 794 531 
L 1825 531 
L 1825 4091 
L 703 3866 
L 703 4441 
L 1819 4666 
L 2450 4666 
L 2450 531 
L 3481 531 
L 3481 0 
L 794 0 
L 794 531 
z
" transform="scale(0.015625)"/>
       </defs>
       <use xlink:href="#DejaVuSans-31"/>
       <use xlink:href="#DejaVuSans-2e" x="63.623047"/>
       <use xlink:href="#DejaVuSans-30" x="95.410156"/>
      </g>
     </g>
    </g>
    <g id="ytick_4">
     <g id="line2d_17">
      <path d="M 57.6 193.257333 
L 414.72 193.257333 
" clip-path="url(#p701cb22bda)" style="fill: none; stroke: #ffffff; stroke-width: 0.8; stroke-linecap: square"/>
     </g>
     <g id="line2d_18">
      <g>
       <use xlink:href="#m7546771732" x="57.6" y="193.257333" style="fill: #555555; stroke: #555555; stroke-width: 0.8"/>
      </g>
     </g>
     <g id="text_9">
      <!-- 1.5 -->
      <g style="fill: #555555" transform="translate(34.696875 197.056552) scale(0.1 -0.1)">
       <use xlink:href="#DejaVuSans-31"/>
       <use xlink:href="#DejaVuSans-2e" x="63.623047"/>
       <use xlink:href="#DejaVuSans-35" x="95.410156"/>
      </g>
     </g>
    </g>
    <g id="ytick_5">
     <g id="line2d_19">
      <path d="M 57.6 159.157567 
L 414.72 159.157567 
" clip-path="url(#p701cb22bda)" style="fill: none; stroke: #ffffff; stroke-width: 0.8; stroke-linecap: square"/>
     </g>
     <g id="line2d_20">
      <g>
       <use xlink:href="#m7546771732" x="57.6" y="159.157567" style="fill: #555555; stroke: #555555; stroke-width: 0.8"/>
      </g>
     </g>
     <g id="text_10">
      <!-- 2.0 -->
      <g style="fill: #555555" transform="translate(34.696875 162.956785) scale(0.1 -0.1)">
       <use xlink:href="#DejaVuSans-32"/>
       <use xlink:href="#DejaVuSans-2e" x="63.623047"/>
       <use xlink:href="#DejaVuSans-30" x="95.410156"/>
      </g>
     </g>
    </g>
    <g id="ytick_6">
     <g id="line2d_21">
      <path d="M 57.6 125.0578 
L 414.72 125.0578 
" clip-path="url(#p701cb22bda)" style="fill: none; stroke: #ffffff; stroke-width: 0.8; stroke-linecap: square"/>
     </g>
     <g id="line2d_22">
      <g>
       <use xlink:href="#m7546771732" x="57.6" y="125.0578" style="fill: #555555; stroke: #555555; stroke-width: 0.8"/>
      </g>
     </g>
     <g id="text_11">
      <!-- 2.5 -->
      <g style="fill: #555555" transform="translate(34.696875 128.857019) scale(0.1 -0.1)">
       <use xlink:href="#DejaVuSans-32"/>
       <use xlink:href="#DejaVuSans-2e" x="63.623047"/>
       <use xlink:href="#DejaVuSans-35" x="95.410156"/>
      </g>
     </g>
    </g>
    <g id="ytick_7">
     <g id="line2d_23">
      <path d="M 57.6 90.958034 
L 414.72 90.958034 
" clip-path="url(#p701cb22bda)" style="fill: none; stroke: #ffffff; stroke-width: 0.8; stroke-linecap: square"/>
     </g>
     <g id="line2d_24">
      <g>
       <use xlink:href="#m7546771732" x="57.6" y="90.958034" style="fill: #555555; stroke: #555555; stroke-width: 0.8"/>
      </g>
     </g>
     <g id="text_12">
      <!-- 3.0 -->
      <g style="fill: #555555" transform="translate(34.696875 94.757252) scale(0.1 -0.1)">
       <defs>
        <path id="DejaVuSans-33" d="M 2597 2516 
Q 3050 2419 3304 2112 
Q 3559 1806 3559 1356 
Q 3559 666 3084 287 
Q 2609 -91 1734 -91 
Q 1441 -91 1130 -33 
Q 819 25 488 141 
L 488 750 
Q 750 597 1062 519 
Q 1375 441 1716 441 
Q 2309 441 2620 675 
Q 2931 909 2931 1356 
Q 2931 1769 2642 2001 
Q 2353 2234 1838 2234 
L 1294 2234 
L 1294 2753 
L 1863 2753 
Q 2328 2753 2575 2939 
Q 2822 3125 2822 3475 
Q 2822 3834 2567 4026 
Q 2313 4219 1838 4219 
Q 1578 4219 1281 4162 
Q 984 4106 628 3988 
L 628 4550 
Q 988 4650 1302 4700 
Q 1616 4750 1894 4750 
Q 2613 4750 3031 4423 
Q 3450 4097 3450 3541 
Q 3450 3153 3228 2886 
Q 3006 2619 2597 2516 
z
" transform="scale(0.015625)"/>
       </defs>
       <use xlink:href="#DejaVuSans-33"/>
       <use xlink:href="#DejaVuSans-2e" x="63.623047"/>
       <use xlink:href="#DejaVuSans-30" x="95.410156"/>
      </g>
     </g>
    </g>
    <g id="ytick_8">
     <g id="line2d_25">
      <path d="M 57.6 56.858267 
L 414.72 56.858267 
" clip-path="url(#p701cb22bda)" style="fill: none; stroke: #ffffff; stroke-width: 0.8; stroke-linecap: square"/>
     </g>
     <g id="line2d_26">
      <g>
       <use xlink:href="#m7546771732" x="57.6" y="56.858267" style="fill: #555555; stroke: #555555; stroke-width: 0.8"/>
      </g>
     </g>
     <g id="text_13">
      <!-- 3.5 -->
      <g style="fill: #555555" transform="translate(34.696875 60.657486) scale(0.1 -0.1)">
       <use xlink:href="#DejaVuSans-33"/>
       <use xlink:href="#DejaVuSans-2e" x="63.623047"/>
       <use xlink:href="#DejaVuSans-35" x="95.410156"/>
      </g>
     </g>
    </g>
   </g>
   <g id="line2d_27">
    <path d="M 73.832727 246.00404 
L 77.480531 246.049584 
L 81.128335 246.392228 
L 84.776139 246.754017 
L 88.423943 247.296395 
L 92.071747 247.834363 
L 95.719551 248.341684 
L 99.367354 248.717929 
L 103.015158 249.129267 
L 106.662962 249.748937 
L 110.310766 250.27525 
L 113.95857 250.745275 
L 117.606374 251.614101 
L 121.254178 252.327254 
L 124.901982 253.409779 
L 128.549785 254.688752 
L 132.197589 256.050673 
L 135.845393 256.977218 
L 139.493197 257.997035 
L 143.141001 259.239005 
L 146.788805 260.096791 
L 150.436609 261.190962 
L 154.084413 262.380066 
L 157.732217 263.425186 
L 161.38002 264.869246 
L 165.027824 266.43976 
L 168.675628 267.842083 
L 172.323432 269.422225 
L 175.971236 270.568122 
L 179.61904 272.100942 
L 183.266844 273.61205 
L 186.914648 274.818343 
L 190.562451 276.296897 
L 194.210255 278.219508 
L 197.858059 280.064639 
L 201.505863 281.649973 
L 205.153667 283.184468 
L 208.801471 284.626148 
L 212.449275 286.175069 
L 216.097079 287.322217 
L 219.744883 288.406155 
L 223.392686 289.444049 
L 227.04049 290.402131 
L 230.688294 291.121833 
L 234.336098 291.87772 
L 237.983902 292.409458 
L 241.631706 292.882339 
L 245.27951 293.206637 
L 248.927314 293.558171 
L 252.575117 293.78615 
L 256.222921 293.965246 
L 259.870725 294.297264 
L 263.518529 294.321956 
L 267.166333 294.553338 
L 270.814137 294.652815 
L 274.461941 294.730353 
L 278.109745 294.854076 
L 281.757549 294.937507 
L 285.405352 295.002146 
L 289.053156 295.00251 
L 292.70096 295.091926 
L 296.348764 295.103249 
L 299.996568 295.162354 
L 303.644372 295.195189 
L 307.292176 295.221058 
L 310.93998 295.235522 
L 314.587783 295.257164 
L 318.235587 295.254819 
L 321.883391 295.270156 
L 325.531195 295.300634 
L 329.178999 295.300701 
L 332.826803 295.329319 
L 336.474607 295.3322 
L 340.122411 295.354637 
L 343.770215 295.34685 
L 347.418018 295.354465 
L 351.065822 295.349028 
L 354.713626 295.341136 
L 358.36143 295.374136 
L 362.009234 295.382063 
L 365.657038 295.389575 
L 369.304842 295.377148 
L 372.952646 295.386788 
L 376.600449 295.3941 
L 380.248253 295.388189 
L 383.896057 295.388833 
L 387.543861 295.400044 
L 391.191665 295.410531 
L 394.839469 295.397277 
L 398.487273 295.4179 
" clip-path="url(#p701cb22bda)" style="fill: none; stroke: #ff00ff; stroke-opacity: 0.3; stroke-width: 0.5; stroke-linecap: square"/>
   </g>
   <g id="line2d_28">
    <path d="M 73.832727 246.97013 
L 77.480531 246.962178 
L 81.128335 247.557304 
L 84.776139 248.040703 
L 88.423943 248.569235 
L 92.071747 249.546731 
L 95.719551 250.35392 
L 99.367354 251.286889 
L 103.015158 252.182646 
L 106.662962 253.074899 
L 110.310766 253.622444 
L 113.95857 254.267955 
L 117.606374 255.233992 
L 121.254178 256.446092 
L 124.901982 256.874296 
L 128.549785 257.888211 
L 132.197589 258.275176 
L 135.845393 259.472967 
L 139.493197 260.57984 
L 143.141001 261.163295 
L 146.788805 261.685877 
L 150.436609 262.956739 
L 154.084413 263.779397 
L 157.732217 264.670585 
L 161.38002 265.0961 
L 165.027824 265.397848 
L 168.675628 266.543131 
L 172.323432 267.036985 
L 175.971236 267.489801 
L 179.61904 268.186946 
L 183.266844 268.531437 
L 186.914648 269.100597 
L 190.562451 270.297891 
L 194.210255 271.94686 
L 197.858059 272.960022 
L 201.505863 274.329221 
L 205.153667 275.444505 
L 208.801471 276.69265 
L 212.449275 278.066822 
L 216.097079 279.168478 
L 219.744883 280.010453 
L 223.392686 280.96736 
L 227.04049 281.840758 
L 230.688294 282.699564 
L 234.336098 283.556574 
L 237.983902 284.468518 
L 241.631706 285.282998 
L 245.27951 286.105609 
L 248.927314 286.685692 
L 252.575117 287.552497 
L 256.222921 288.176797 
L 259.870725 288.482977 
L 263.518529 289.153259 
L 267.166333 289.738381 
L 270.814137 290.184112 
L 274.461941 290.804618 
L 278.109745 291.003757 
L 281.757549 291.447715 
L 285.405352 291.798864 
L 289.053156 292.119648 
L 292.70096 292.308114 
L 296.348764 292.535863 
L 299.996568 292.964705 
L 303.644372 293.212975 
L 307.292176 293.277128 
L 310.93998 293.413175 
L 314.587783 293.487339 
L 318.235587 293.588647 
L 321.883391 293.571323 
L 325.531195 293.95378 
L 329.178999 293.928321 
L 332.826803 294.061446 
L 336.474607 294.235172 
L 340.122411 294.333773 
L 343.770215 294.331152 
L 347.418018 294.369655 
L 351.065822 294.347054 
L 354.713626 294.410977 
L 358.36143 294.523718 
L 362.009234 294.611615 
L 365.657038 294.503172 
L 369.304842 294.609865 
L 372.952646 294.703026 
L 376.600449 294.663647 
L 380.248253 294.754516 
L 383.896057 294.766187 
L 387.543861 294.78833 
L 391.191665 294.907937 
L 394.839469 294.812455 
L 398.487273 294.790813 
" clip-path="url(#p701cb22bda)" style="fill: none; stroke: #ff00ff; stroke-opacity: 0.3; stroke-width: 0.5; stroke-linecap: square"/>
   </g>
   <g id="line2d_29">
    <path d="M 73.832727 248.593182 
L 77.480531 248.947647 
L 81.128335 249.154686 
L 84.776139 249.430997 
L 88.423943 249.945671 
L 92.071747 250.262771 
L 95.719551 250.796055 
L 99.367354 251.526537 
L 103.015158 252.109667 
L 106.662962 252.893685 
L 110.310766 253.6625 
L 113.95857 254.229317 
L 117.606374 255.221 
L 121.254178 255.985449 
L 124.901982 257.113469 
L 128.549785 257.815618 
L 132.197589 258.958272 
L 135.845393 260.262477 
L 139.493197 261.495524 
L 143.141001 262.790254 
L 146.788805 264.059925 
L 150.436609 265.281401 
L 154.084413 266.818034 
L 157.732217 268.112896 
L 161.38002 269.32364 
L 165.027824 270.230027 
L 168.675628 271.629868 
L 172.323432 272.70678 
L 175.971236 273.499114 
L 179.61904 274.589638 
L 183.266844 275.690162 
L 186.914648 276.718296 
L 190.562451 277.996613 
L 194.210255 279.195225 
L 197.858059 280.703136 
L 201.505863 281.982803 
L 205.153667 283.251553 
L 208.801471 284.527416 
L 212.449275 285.810109 
L 216.097079 286.964349 
L 219.744883 288.10415 
L 223.392686 288.959318 
L 227.04049 289.89382 
L 230.688294 290.723374 
L 234.336098 291.436574 
L 237.983902 292.077901 
L 241.631706 292.541607 
L 245.27951 292.920071 
L 248.927314 293.388561 
L 252.575117 293.703849 
L 256.222921 293.961171 
L 259.870725 294.212332 
L 263.518529 294.271554 
L 267.166333 294.484875 
L 270.814137 294.632863 
L 274.461941 294.740816 
L 278.109745 294.837968 
L 281.757549 294.945308 
L 285.405352 294.948477 
L 289.053156 295.06003 
L 292.70096 295.096334 
L 296.348764 295.111941 
L 299.996568 295.173893 
L 303.644372 295.197543 
L 307.292176 295.225608 
L 310.93998 295.243624 
L 314.587783 295.269465 
L 318.235587 295.262193 
L 321.883391 295.299879 
L 325.531195 295.304264 
L 329.178999 295.315945 
L 332.826803 295.341457 
L 336.474607 295.349184 
L 340.122411 295.351857 
L 343.770215 295.363643 
L 347.418018 295.366104 
L 351.065822 295.364759 
L 354.713626 295.385348 
L 358.36143 295.393805 
L 362.009234 295.393904 
L 365.657038 295.397347 
L 369.304842 295.391748 
L 372.952646 295.405914 
L 376.600449 295.413921 
L 380.248253 295.412645 
L 383.896057 295.403574 
L 387.543861 295.413108 
L 391.191665 295.425826 
L 394.839469 295.414194 
L 398.487273 295.435045 
" clip-path="url(#p701cb22bda)" style="fill: none; stroke: #ff00ff; stroke-opacity: 0.3; stroke-width: 0.5; stroke-linecap: square"/>
   </g>
   <g id="line2d_30">
    <path d="M 73.832727 248.217945 
L 77.480531 248.319936 
L 81.128335 248.840696 
L 84.776139 248.826477 
L 88.423943 249.385574 
L 92.071747 249.869546 
L 95.719551 250.086036 
L 99.367354 250.818348 
L 103.015158 251.291823 
L 106.662962 252.227467 
L 110.310766 253.028513 
L 113.95857 254.148854 
L 117.606374 255.390893 
L 121.254178 256.799862 
L 124.901982 258.145457 
L 128.549785 259.72053 
L 132.197589 261.308924 
L 135.845393 263.220363 
L 139.493197 265.111287 
L 143.141001 267.08504 
L 146.788805 268.706743 
L 150.436609 270.884024 
L 154.084413 273.102609 
L 157.732217 274.786738 
L 161.38002 277.117823 
L 165.027824 278.980692 
L 168.675628 280.998287 
L 172.323432 282.904589 
L 175.971236 283.965185 
L 179.61904 285.56839 
L 183.266844 286.49932 
L 186.914648 287.526611 
L 190.562451 289.142505 
L 194.210255 289.979315 
L 197.858059 291.159836 
L 201.505863 291.759122 
L 205.153667 292.510291 
L 208.801471 293.063522 
L 212.449275 293.555113 
L 216.097079 293.884248 
L 219.744883 294.197511 
L 223.392686 294.415192 
L 227.04049 294.579538 
L 230.688294 294.752702 
L 234.336098 294.86728 
L 237.983902 294.946195 
L 241.631706 295.055746 
L 245.27951 295.072012 
L 248.927314 295.130804 
L 252.575117 295.162396 
L 256.222921 295.22564 
L 259.870725 295.228142 
L 263.518529 295.264623 
L 267.166333 295.301819 
L 270.814137 295.28309 
L 274.461941 295.338429 
L 278.109745 295.337049 
L 281.757549 295.375217 
L 285.405352 295.372947 
L 289.053156 295.376334 
L 292.70096 295.400777 
L 296.348764 295.395746 
L 299.996568 295.418895 
L 303.644372 295.420988 
L 307.292176 295.410001 
L 310.93998 295.433804 
L 314.587783 295.417477 
L 318.235587 295.428977 
L 321.883391 295.440208 
L 325.531195 295.450227 
L 329.178999 295.443761 
L 332.826803 295.449645 
L 336.474607 295.453768 
L 340.122411 295.449818 
L 343.770215 295.465204 
L 347.418018 295.459928 
L 351.065822 295.453268 
L 354.713626 295.450541 
L 358.36143 295.462953 
L 362.009234 295.470262 
L 365.657038 295.470186 
L 369.304842 295.468525 
L 372.952646 295.46467 
L 376.600449 295.468724 
L 380.248253 295.478183 
L 383.896057 295.466383 
L 387.543861 295.469043 
L 391.191665 295.47902 
L 394.839469 295.475244 
L 398.487273 295.477189 
" clip-path="url(#p701cb22bda)" style="fill: none; stroke: #ff00ff; stroke-opacity: 0.3; stroke-width: 0.5; stroke-linecap: square"/>
   </g>
   <g id="line2d_31">
    <path d="M 73.832727 248.466927 
L 77.480531 248.489923 
L 81.128335 248.321985 
L 84.776139 248.393314 
L 88.423943 248.518451 
L 92.071747 248.594271 
L 95.719551 248.58621 
L 99.367354 248.611588 
L 103.015158 248.687413 
L 106.662962 248.721888 
L 110.310766 248.751591 
L 113.95857 249.094824 
L 117.606374 249.064089 
L 121.254178 249.127731 
L 124.901982 249.264498 
L 128.549785 249.248693 
L 132.197589 249.373086 
L 135.845393 249.5045 
L 139.493197 249.581699 
L 143.141001 249.734132 
L 146.788805 249.916981 
L 150.436609 249.804616 
L 154.084413 249.99083 
L 157.732217 250.034882 
L 161.38002 250.051711 
L 165.027824 250.436489 
L 168.675628 250.340502 
L 172.323432 250.462875 
L 175.971236 250.400241 
L 179.61904 250.649849 
L 183.266844 250.524269 
L 186.914648 250.534817 
L 190.562451 251.070215 
L 194.210255 251.216877 
L 197.858059 251.475233 
L 201.505863 251.731857 
L 205.153667 251.828888 
L 208.801471 252.559212 
L 212.449275 252.759044 
L 216.097079 252.869779 
L 219.744883 253.337543 
L 223.392686 254.066964 
L 227.04049 254.471526 
L 230.688294 254.831975 
L 234.336098 255.520323 
L 237.983902 256.52038 
L 241.631706 256.717578 
L 245.27951 257.58999 
L 248.927314 258.687054 
L 252.575117 259.084133 
L 256.222921 260.102527 
L 259.870725 261.261067 
L 263.518529 262.367081 
L 267.166333 263.57414 
L 270.814137 264.278476 
L 274.461941 266.20302 
L 278.109745 266.772148 
L 281.757549 268.51549 
L 285.405352 269.835807 
L 289.053156 270.880752 
L 292.70096 273.205964 
L 296.348764 275.253407 
L 299.996568 276.536116 
L 303.644372 278.025231 
L 307.292176 279.520311 
L 310.93998 280.718898 
L 314.587783 282.020894 
L 318.235587 283.308253 
L 321.883391 284.351411 
L 325.531195 285.827674 
L 329.178999 286.802993 
L 332.826803 288.007783 
L 336.474607 288.677468 
L 340.122411 289.368295 
L 343.770215 290.243661 
L 347.418018 290.505567 
L 351.065822 291.093028 
L 354.713626 291.547738 
L 358.36143 292.281241 
L 362.009234 292.605216 
L 365.657038 292.657508 
L 369.304842 293.172134 
L 372.952646 293.298667 
L 376.600449 293.494239 
L 380.248253 293.490945 
L 383.896057 293.56422 
L 387.543861 293.69862 
L 391.191665 294.140023 
L 394.839469 294.018992 
L 398.487273 294.214856 
" clip-path="url(#p701cb22bda)" style="fill: none; stroke: #ff00ff; stroke-opacity: 0.3; stroke-width: 0.5; stroke-linecap: square"/>
   </g>
   <g id="line2d_32">
    <path d="M 73.832727 248.201165 
L 77.480531 248.395395 
L 81.128335 248.529865 
L 84.776139 248.849347 
L 88.423943 249.107552 
L 92.071747 249.45237 
L 95.719551 249.871318 
L 99.367354 250.298762 
L 103.015158 250.625093 
L 106.662962 251.230995 
L 110.310766 251.622353 
L 113.95857 252.06285 
L 117.606374 252.573753 
L 121.254178 253.29606 
L 124.901982 253.455924 
L 128.549785 253.928392 
L 132.197589 254.487225 
L 135.845393 254.646631 
L 139.493197 255.36582 
L 143.141001 256.149058 
L 146.788805 256.72485 
L 150.436609 256.993466 
L 154.084413 257.27687 
L 157.732217 258.24222 
L 161.38002 258.981511 
L 165.027824 259.576113 
L 168.675628 260.077527 
L 172.323432 260.775603 
L 175.971236 261.462643 
L 179.61904 262.134465 
L 183.266844 262.287055 
L 186.914648 262.625871 
L 190.562451 263.797525 
L 194.210255 264.728426 
L 197.858059 265.676575 
L 201.505863 266.45541 
L 205.153667 268.063455 
L 208.801471 268.533406 
L 212.449275 269.963231 
L 216.097079 270.761481 
L 219.744883 271.76431 
L 223.392686 272.671539 
L 227.04049 274.065762 
L 230.688294 274.974023 
L 234.336098 275.607656 
L 237.983902 276.971304 
L 241.631706 278.250495 
L 245.27951 278.514934 
L 248.927314 279.757126 
L 252.575117 280.772719 
L 256.222921 281.237409 
L 259.870725 282.609979 
L 263.518529 283.396529 
L 267.166333 284.375513 
L 270.814137 285.005679 
L 274.461941 285.855958 
L 278.109745 286.56638 
L 281.757549 287.440965 
L 285.405352 288.047241 
L 289.053156 288.796444 
L 292.70096 289.292219 
L 296.348764 289.946209 
L 299.996568 290.419555 
L 303.644372 290.878697 
L 307.292176 291.343366 
L 310.93998 291.791436 
L 314.587783 292.166473 
L 318.235587 292.421536 
L 321.883391 292.718301 
L 325.531195 292.980449 
L 329.178999 293.312254 
L 332.826803 293.389977 
L 336.474607 293.665391 
L 340.122411 293.754366 
L 343.770215 293.927547 
L 347.418018 294.019743 
L 351.065822 294.024347 
L 354.713626 294.178025 
L 358.36143 294.389587 
L 362.009234 294.304541 
L 365.657038 294.450314 
L 369.304842 294.498004 
L 372.952646 294.617529 
L 376.600449 294.638302 
L 380.248253 294.674604 
L 383.896057 294.787762 
L 387.543861 294.731227 
L 391.191665 294.786182 
L 394.839469 294.685146 
L 398.487273 294.877279 
" clip-path="url(#p701cb22bda)" style="fill: none; stroke: #ff00ff; stroke-opacity: 0.3; stroke-width: 0.5; stroke-linecap: square"/>
   </g>
   <g id="line2d_33">
    <path d="M 73.832727 250.193617 
L 77.480531 250.569528 
L 81.128335 250.638463 
L 84.776139 250.783636 
L 88.423943 250.867998 
L 92.071747 251.357299 
L 95.719551 251.826401 
L 99.367354 252.041123 
L 103.015158 252.505525 
L 106.662962 252.917205 
L 110.310766 253.442075 
L 113.95857 253.743044 
L 117.606374 254.275581 
L 121.254178 254.556505 
L 124.901982 254.846158 
L 128.549785 255.371109 
L 132.197589 255.852662 
L 135.845393 256.215667 
L 139.493197 256.824041 
L 143.141001 257.497718 
L 146.788805 257.512332 
L 150.436609 257.513198 
L 154.084413 259.097055 
L 157.732217 258.641892 
L 161.38002 259.370073 
L 165.027824 259.153421 
L 168.675628 259.931049 
L 172.323432 259.507934 
L 175.971236 259.86537 
L 179.61904 260.150677 
L 183.266844 259.614287 
L 186.914648 260.182299 
L 190.562451 260.819209 
L 194.210255 261.671432 
L 197.858059 261.969423 
L 201.505863 262.836422 
L 205.153667 263.049059 
L 208.801471 263.998535 
L 212.449275 264.949398 
L 216.097079 265.40801 
L 219.744883 266.750811 
L 223.392686 266.829505 
L 227.04049 268.505167 
L 230.688294 269.074612 
L 234.336098 270.009769 
L 237.983902 270.566663 
L 241.631706 270.497296 
L 245.27951 272.052227 
L 248.927314 272.070615 
L 252.575117 272.576446 
L 256.222921 273.71538 
L 259.870725 274.531754 
L 263.518529 274.955454 
L 267.166333 275.702387 
L 270.814137 275.75624 
L 274.461941 276.603996 
L 278.109745 277.11362 
L 281.757549 278.156779 
L 285.405352 278.429994 
L 289.053156 278.981935 
L 292.70096 279.821808 
L 296.348764 280.146182 
L 299.996568 280.751616 
L 303.644372 281.057265 
L 307.292176 280.884188 
L 310.93998 282.223003 
L 314.587783 283.246053 
L 318.235587 283.475875 
L 321.883391 283.759085 
L 325.531195 284.463836 
L 329.178999 285.166126 
L 332.826803 285.039376 
L 336.474607 286.33478 
L 340.122411 286.573336 
L 343.770215 287.088933 
L 347.418018 287.584581 
L 351.065822 288.030754 
L 354.713626 288.036805 
L 358.36143 288.451286 
L 362.009234 288.675646 
L 365.657038 288.991442 
L 369.304842 289.603126 
L 372.952646 289.814233 
L 376.600449 289.367385 
L 380.248253 290.605811 
L 383.896057 290.426492 
L 387.543861 291.084206 
L 391.191665 291.268354 
L 394.839469 291.376265 
L 398.487273 291.703578 
" clip-path="url(#p701cb22bda)" style="fill: none; stroke: #ff00ff; stroke-opacity: 0.3; stroke-width: 0.5; stroke-linecap: square"/>
   </g>
   <g id="line2d_34">
    <path d="M 73.832727 249.154149 
L 77.480531 249.220254 
L 81.128335 249.30679 
L 84.776139 249.577117 
L 88.423943 249.748397 
L 92.071747 250.041037 
L 95.719551 250.133629 
L 99.367354 250.414058 
L 103.015158 250.819579 
L 106.662962 251.193751 
L 110.310766 251.613264 
L 113.95857 251.752755 
L 117.606374 252.059216 
L 121.254178 252.392071 
L 124.901982 253.100586 
L 128.549785 253.627716 
L 132.197589 254.057383 
L 135.845393 254.673923 
L 139.493197 255.278203 
L 143.141001 256.013718 
L 146.788805 256.656887 
L 150.436609 257.651294 
L 154.084413 258.132038 
L 157.732217 259.10212 
L 161.38002 260.004581 
L 165.027824 260.780225 
L 168.675628 261.50376 
L 172.323432 262.555559 
L 175.971236 263.475411 
L 179.61904 264.402601 
L 183.266844 265.381628 
L 186.914648 266.228723 
L 190.562451 267.887694 
L 194.210255 268.923806 
L 197.858059 270.816171 
L 201.505863 271.972526 
L 205.153667 273.912306 
L 208.801471 275.546579 
L 212.449275 277.174778 
L 216.097079 278.624637 
L 219.744883 280.366953 
L 223.392686 281.907317 
L 227.04049 282.984327 
L 230.688294 284.295499 
L 234.336098 285.612917 
L 237.983902 286.804257 
L 241.631706 287.972727 
L 245.27951 288.825105 
L 248.927314 289.742343 
L 252.575117 290.314218 
L 256.222921 291.03515 
L 259.870725 291.597366 
L 263.518529 292.154289 
L 267.166333 292.585965 
L 270.814137 292.932834 
L 274.461941 293.355356 
L 278.109745 293.629105 
L 281.757549 293.80534 
L 285.405352 293.925855 
L 289.053156 294.104289 
L 292.70096 294.338055 
L 296.348764 294.489539 
L 299.996568 294.56693 
L 303.644372 294.671791 
L 307.292176 294.739241 
L 310.93998 294.774525 
L 314.587783 294.880436 
L 318.235587 294.889542 
L 321.883391 294.92663 
L 325.531195 294.995352 
L 329.178999 295.087515 
L 332.826803 295.06869 
L 336.474607 295.097729 
L 340.122411 295.108373 
L 343.770215 295.170846 
L 347.418018 295.17392 
L 351.065822 295.121976 
L 354.713626 295.171477 
L 358.36143 295.223053 
L 362.009234 295.245436 
L 365.657038 295.254936 
L 369.304842 295.262013 
L 372.952646 295.23578 
L 376.600449 295.285776 
L 380.248253 295.2972 
L 383.896057 295.283057 
L 387.543861 295.282155 
L 391.191665 295.306304 
L 394.839469 295.301648 
L 398.487273 295.313572 
" clip-path="url(#p701cb22bda)" style="fill: none; stroke: #ff00ff; stroke-opacity: 0.3; stroke-width: 0.5; stroke-linecap: square"/>
   </g>
   <g id="line2d_35">
    <path d="M 73.832727 248.159137 
L 77.480531 248.374082 
L 81.128335 248.347265 
L 84.776139 248.322997 
L 88.423943 248.501918 
L 92.071747 248.704392 
L 95.719551 249.007305 
L 99.367354 249.18312 
L 103.015158 249.386265 
L 106.662962 249.404375 
L 110.310766 249.899631 
L 113.95857 249.895895 
L 117.606374 250.210551 
L 121.254178 250.329022 
L 124.901982 250.436245 
L 128.549785 250.705019 
L 132.197589 250.828734 
L 135.845393 251.0845 
L 139.493197 251.228165 
L 143.141001 251.382689 
L 146.788805 251.53433 
L 150.436609 251.714007 
L 154.084413 251.89303 
L 157.732217 252.108398 
L 161.38002 252.238231 
L 165.027824 252.432973 
L 168.675628 252.681662 
L 172.323432 252.78245 
L 175.971236 252.700646 
L 179.61904 252.920099 
L 183.266844 253.062415 
L 186.914648 253.017944 
L 190.562451 253.280759 
L 194.210255 253.323608 
L 197.858059 253.656809 
L 201.505863 254.487034 
L 205.153667 254.757187 
L 208.801471 255.350706 
L 212.449275 255.900743 
L 216.097079 256.139359 
L 219.744883 256.689448 
L 223.392686 257.211342 
L 227.04049 257.700741 
L 230.688294 258.324228 
L 234.336098 258.909573 
L 237.983902 259.624779 
L 241.631706 260.431411 
L 245.27951 261.003256 
L 248.927314 261.679763 
L 252.575117 262.120926 
L 256.222921 262.693661 
L 259.870725 263.804163 
L 263.518529 264.507844 
L 267.166333 265.477705 
L 270.814137 265.832464 
L 274.461941 266.419645 
L 278.109745 267.319245 
L 281.757549 268.045337 
L 285.405352 268.663763 
L 289.053156 269.840071 
L 292.70096 270.731294 
L 296.348764 270.942625 
L 299.996568 271.707918 
L 303.644372 272.553196 
L 307.292176 273.474789 
L 310.93998 273.899365 
L 314.587783 274.556557 
L 318.235587 275.190761 
L 321.883391 276.044645 
L 325.531195 276.718993 
L 329.178999 276.900059 
L 332.826803 278.246605 
L 336.474607 278.497859 
L 340.122411 279.132146 
L 343.770215 279.580312 
L 347.418018 280.237052 
L 351.065822 280.960086 
L 354.713626 281.561091 
L 358.36143 282.002403 
L 362.009234 282.515263 
L 365.657038 283.336611 
L 369.304842 283.923021 
L 372.952646 284.429003 
L 376.600449 285.002986 
L 380.248253 285.541826 
L 383.896057 285.905888 
L 387.543861 286.600395 
L 391.191665 287.055082 
L 394.839469 287.342552 
L 398.487273 287.823656 
" clip-path="url(#p701cb22bda)" style="fill: none; stroke: #ff00ff; stroke-opacity: 0.3; stroke-width: 0.5; stroke-linecap: square"/>
   </g>
   <g id="line2d_36">
    <path d="M 73.832727 247.492853 
L 77.480531 247.523999 
L 81.128335 247.764627 
L 84.776139 248.058206 
L 88.423943 248.279205 
L 92.071747 248.923362 
L 95.719551 249.325684 
L 99.367354 250.141101 
L 103.015158 250.551098 
L 106.662962 251.278637 
L 110.310766 251.907697 
L 113.95857 252.460331 
L 117.606374 253.090622 
L 121.254178 254.032692 
L 124.901982 254.701964 
L 128.549785 255.649155 
L 132.197589 256.367451 
L 135.845393 257.52032 
L 139.493197 258.689327 
L 143.141001 259.723298 
L 146.788805 261.131637 
L 150.436609 262.522266 
L 154.084413 263.975834 
L 157.732217 265.657797 
L 161.38002 267.597906 
L 165.027824 269.23045 
L 168.675628 270.887374 
L 172.323432 272.699874 
L 175.971236 274.622776 
L 179.61904 276.504239 
L 183.266844 278.311779 
L 186.914648 279.65784 
L 190.562451 281.885907 
L 194.210255 283.654137 
L 197.858059 285.702652 
L 201.505863 287.264421 
L 205.153667 288.709136 
L 208.801471 289.966173 
L 212.449275 291.051517 
L 216.097079 291.935589 
L 219.744883 292.650265 
L 223.392686 293.112146 
L 227.04049 293.557815 
L 230.688294 293.930213 
L 234.336098 294.296509 
L 237.983902 294.444868 
L 241.631706 294.658601 
L 245.27951 294.773431 
L 248.927314 294.934109 
L 252.575117 295.012573 
L 256.222921 295.074787 
L 259.870725 295.139667 
L 263.518529 295.169329 
L 267.166333 295.226591 
L 270.814137 295.241086 
L 274.461941 295.296956 
L 278.109745 295.328381 
L 281.757549 295.352977 
L 285.405352 295.356248 
L 289.053156 295.379279 
L 292.70096 295.392661 
L 296.348764 295.395044 
L 299.996568 295.419848 
L 303.644372 295.418743 
L 307.292176 295.416927 
L 310.93998 295.425536 
L 314.587783 295.441209 
L 318.235587 295.435972 
L 321.883391 295.443346 
L 325.531195 295.45334 
L 329.178999 295.460463 
L 332.826803 295.463617 
L 336.474607 295.467544 
L 340.122411 295.467364 
L 343.770215 295.463664 
L 347.418018 295.468035 
L 351.065822 295.467531 
L 354.713626 295.467309 
L 358.36143 295.477976 
L 362.009234 295.479153 
L 365.657038 295.477262 
L 369.304842 295.482011 
L 372.952646 295.481895 
L 376.600449 295.480752 
L 380.248253 295.482132 
L 383.896057 295.481077 
L 387.543861 295.48379 
L 391.191665 295.487316 
L 394.839469 295.485832 
L 398.487273 295.488 
" clip-path="url(#p701cb22bda)" style="fill: none; stroke: #ff00ff; stroke-opacity: 0.3; stroke-width: 0.5; stroke-linecap: square"/>
   </g>
   <g id="line2d_37">
    <path d="M 73.832727 247.313623 
L 77.480531 247.506877 
L 81.128335 247.845367 
L 84.776139 248.031983 
L 88.423943 248.69947 
L 92.071747 249.343558 
L 95.719551 249.903208 
L 99.367354 250.458062 
L 103.015158 250.993736 
L 106.662962 251.614809 
L 110.310766 252.155252 
L 113.95857 252.58559 
L 117.606374 253.114439 
L 121.254178 253.746117 
L 124.901982 254.383755 
L 128.549785 255.199244 
L 132.197589 256.156314 
L 135.845393 257.237277 
L 139.493197 257.923999 
L 143.141001 259.00819 
L 146.788805 260.05308 
L 150.436609 261.360806 
L 154.084413 262.119247 
L 157.732217 263.389788 
L 161.38002 264.554419 
L 165.027824 265.521406 
L 168.675628 266.772579 
L 172.323432 267.763973 
L 175.971236 268.847335 
L 179.61904 269.66719 
L 183.266844 270.626429 
L 186.914648 271.435825 
L 190.562451 273.715531 
L 194.210255 275.337231 
L 197.858059 277.020184 
L 201.505863 278.340074 
L 205.153667 279.896895 
L 208.801471 281.496259 
L 212.449275 283.129233 
L 216.097079 284.764855 
L 219.744883 285.928031 
L 223.392686 287.236383 
L 227.04049 288.543781 
L 230.688294 289.266192 
L 234.336098 290.424102 
L 237.983902 291.06325 
L 241.631706 291.768533 
L 245.27951 292.408971 
L 248.927314 292.834987 
L 252.575117 293.376132 
L 256.222921 293.603047 
L 259.870725 293.997515 
L 263.518529 294.207339 
L 267.166333 294.389557 
L 270.814137 294.484052 
L 274.461941 294.652745 
L 278.109745 294.727258 
L 281.757549 294.835187 
L 285.405352 294.882159 
L 289.053156 294.962031 
L 292.70096 295.014169 
L 296.348764 295.075776 
L 299.996568 295.112312 
L 303.644372 295.164254 
L 307.292176 295.165766 
L 310.93998 295.190804 
L 314.587783 295.217123 
L 318.235587 295.260188 
L 321.883391 295.282201 
L 325.531195 295.30384 
L 329.178999 295.321263 
L 332.826803 295.332554 
L 336.474607 295.340373 
L 340.122411 295.335243 
L 343.770215 295.342366 
L 347.418018 295.359365 
L 351.065822 295.358087 
L 354.713626 295.369924 
L 358.36143 295.393062 
L 362.009234 295.383813 
L 365.657038 295.390742 
L 369.304842 295.404133 
L 372.952646 295.400313 
L 376.600449 295.404682 
L 380.248253 295.395353 
L 383.896057 295.32132 
L 387.543861 295.412442 
L 391.191665 295.413763 
L 394.839469 295.424247 
L 398.487273 295.429456 
" clip-path="url(#p701cb22bda)" style="fill: none; stroke: #ff00ff; stroke-opacity: 0.3; stroke-width: 0.5; stroke-linecap: square"/>
   </g>
   <g id="line2d_38">
    <path d="M 73.832727 248.66186 
L 77.480531 248.679596 
L 81.128335 248.712884 
L 84.776139 248.731539 
L 88.423943 248.829099 
L 92.071747 249.006398 
L 95.719551 249.068621 
L 99.367354 249.14982 
L 103.015158 249.1353 
L 106.662962 249.235161 
L 110.310766 249.387021 
L 113.95857 249.509126 
L 117.606374 249.547638 
L 121.254178 249.544943 
L 124.901982 249.736193 
L 128.549785 249.713124 
L 132.197589 249.900903 
L 135.845393 250.058341 
L 139.493197 249.903119 
L 143.141001 250.162995 
L 146.788805 250.244876 
L 150.436609 249.926289 
L 154.084413 249.965594 
L 157.732217 249.89966 
L 161.38002 250.093971 
L 165.027824 250.091081 
L 168.675628 250.107629 
L 172.323432 249.745897 
L 175.971236 250.104792 
L 179.61904 250.086727 
L 183.266844 249.993659 
L 186.914648 249.833428 
L 190.562451 249.742734 
L 194.210255 249.940196 
L 197.858059 249.76875 
L 201.505863 249.978696 
L 205.153667 250.172438 
L 208.801471 250.059057 
L 212.449275 250.453342 
L 216.097079 250.155897 
L 219.744883 250.002114 
L 223.392686 250.163735 
L 227.04049 250.176068 
L 230.688294 250.482171 
L 234.336098 250.515057 
L 237.983902 250.581459 
L 241.631706 250.42592 
L 245.27951 250.605865 
L 248.927314 250.42783 
L 252.575117 250.713836 
L 256.222921 250.746242 
L 259.870725 250.937456 
L 263.518529 250.935997 
L 267.166333 250.973993 
L 270.814137 251.148882 
L 274.461941 250.814864 
L 278.109745 250.819408 
L 281.757549 251.013639 
L 285.405352 251.34764 
L 289.053156 251.240889 
L 292.70096 251.480005 
L 296.348764 251.461001 
L 299.996568 251.572451 
L 303.644372 251.663247 
L 307.292176 251.484387 
L 310.93998 251.630585 
L 314.587783 251.615492 
L 318.235587 252.022769 
L 321.883391 251.733914 
L 325.531195 251.959294 
L 329.178999 251.950684 
L 332.826803 252.223609 
L 336.474607 252.715528 
L 340.122411 252.599281 
L 343.770215 252.583322 
L 347.418018 252.812027 
L 351.065822 252.258515 
L 354.713626 252.736873 
L 358.36143 252.241975 
L 362.009234 252.902701 
L 365.657038 253.309572 
L 369.304842 253.167496 
L 372.952646 253.237796 
L 376.600449 253.590891 
L 380.248253 253.768715 
L 383.896057 253.930884 
L 387.543861 253.59948 
L 391.191665 254.084493 
L 394.839469 253.539786 
L 398.487273 254.112269 
" clip-path="url(#p701cb22bda)" style="fill: none; stroke: #ff00ff; stroke-opacity: 0.3; stroke-width: 0.5; stroke-linecap: square"/>
   </g>
   <g id="line2d_39">
    <path d="M 73.832727 248.042556 
L 77.480531 248.119596 
L 81.128335 248.230616 
L 84.776139 248.207368 
L 88.423943 248.433374 
L 92.071747 248.654978 
L 95.719551 248.829729 
L 99.367354 249.007041 
L 103.015158 249.224762 
L 106.662962 249.516569 
L 110.310766 249.952732 
L 113.95857 250.39442 
L 117.606374 250.804063 
L 121.254178 251.249836 
L 124.901982 251.875108 
L 128.549785 252.186349 
L 132.197589 252.918315 
L 135.845393 253.352165 
L 139.493197 253.902714 
L 143.141001 254.454783 
L 146.788805 255.229817 
L 150.436609 255.835894 
L 154.084413 256.520807 
L 157.732217 257.257927 
L 161.38002 258.183554 
L 165.027824 259.258936 
L 168.675628 260.214595 
L 172.323432 261.51352 
L 175.971236 262.379394 
L 179.61904 263.411308 
L 183.266844 264.568118 
L 186.914648 265.69162 
L 190.562451 267.497626 
L 194.210255 268.796921 
L 197.858059 270.756346 
L 201.505863 272.4324 
L 205.153667 274.492494 
L 208.801471 276.655949 
L 212.449275 278.383037 
L 216.097079 280.281802 
L 219.744883 282.064496 
L 223.392686 283.754199 
L 227.04049 284.8698 
L 230.688294 286.611372 
L 234.336098 287.8356 
L 237.983902 288.902527 
L 241.631706 290.049911 
L 245.27951 290.823022 
L 248.927314 291.531313 
L 252.575117 292.249608 
L 256.222921 292.692659 
L 259.870725 293.145137 
L 263.518529 293.478948 
L 267.166333 293.765294 
L 270.814137 293.967666 
L 274.461941 294.244425 
L 278.109745 294.364579 
L 281.757549 294.537312 
L 285.405352 294.645617 
L 289.053156 294.678799 
L 292.70096 294.822463 
L 296.348764 294.915627 
L 299.996568 294.940259 
L 303.644372 294.883783 
L 307.292176 295.092744 
L 310.93998 295.101719 
L 314.587783 295.170072 
L 318.235587 295.128119 
L 321.883391 295.1881 
L 325.531195 295.205184 
L 329.178999 295.226616 
L 332.826803 295.255914 
L 336.474607 295.252515 
L 340.122411 295.297224 
L 343.770215 295.286137 
L 347.418018 295.295228 
L 351.065822 295.301461 
L 354.713626 295.302678 
L 358.36143 295.338234 
L 362.009234 295.340452 
L 365.657038 295.361566 
L 369.304842 295.336894 
L 372.952646 295.345019 
L 376.600449 295.354389 
L 380.248253 295.366935 
L 383.896057 295.356363 
L 387.543861 295.338235 
L 391.191665 295.366301 
L 394.839469 295.373091 
L 398.487273 295.401509 
" clip-path="url(#p701cb22bda)" style="fill: none; stroke: #ff00ff; stroke-opacity: 0.3; stroke-width: 0.5; stroke-linecap: square"/>
   </g>
   <g id="line2d_40">
    <path d="M 73.832727 247.806761 
L 77.480531 247.758965 
L 81.128335 247.951789 
L 84.776139 247.833757 
L 88.423943 247.901838 
L 92.071747 248.031483 
L 95.719551 247.976524 
L 99.367354 248.114137 
L 103.015158 248.274103 
L 106.662962 248.351586 
L 110.310766 248.506483 
L 113.95857 248.528548 
L 117.606374 248.658263 
L 121.254178 248.664962 
L 124.901982 248.801103 
L 128.549785 248.927517 
L 132.197589 248.906614 
L 135.845393 249.163718 
L 139.493197 249.185446 
L 143.141001 249.366627 
L 146.788805 249.331591 
L 150.436609 249.442927 
L 154.084413 249.577455 
L 157.732217 249.70612 
L 161.38002 249.878672 
L 165.027824 249.900696 
L 168.675628 250.087117 
L 172.323432 250.136637 
L 175.971236 250.221352 
L 179.61904 250.316059 
L 183.266844 250.360619 
L 186.914648 250.345217 
L 190.562451 250.626207 
L 194.210255 250.821246 
L 197.858059 250.88681 
L 201.505863 251.131317 
L 205.153667 251.499163 
L 208.801471 251.753999 
L 212.449275 252.137813 
L 216.097079 252.414103 
L 219.744883 252.674967 
L 223.392686 253.154024 
L 227.04049 253.283284 
L 230.688294 253.715402 
L 234.336098 254.185224 
L 237.983902 254.361861 
L 241.631706 255.120432 
L 245.27951 255.417149 
L 248.927314 256.161907 
L 252.575117 256.607376 
L 256.222921 257.161725 
L 259.870725 257.885744 
L 263.518529 258.655303 
L 267.166333 259.356387 
L 270.814137 260.141604 
L 274.461941 260.873123 
L 278.109745 261.702773 
L 281.757549 262.941493 
L 285.405352 263.90353 
L 289.053156 264.778978 
L 292.70096 265.805499 
L 296.348764 266.701427 
L 299.996568 268.085394 
L 303.644372 269.683123 
L 307.292176 270.051907 
L 310.93998 271.63762 
L 314.587783 273.093615 
L 318.235587 274.658887 
L 321.883391 275.123239 
L 325.531195 276.68552 
L 329.178999 277.759627 
L 332.826803 279.675043 
L 336.474607 280.090462 
L 340.122411 281.998524 
L 343.770215 282.791014 
L 347.418018 283.872084 
L 351.065822 284.623213 
L 354.713626 285.763989 
L 358.36143 286.521007 
L 362.009234 287.634593 
L 365.657038 288.366203 
L 369.304842 289.349604 
L 372.952646 289.792205 
L 376.600449 290.542433 
L 380.248253 291.109049 
L 383.896057 291.31296 
L 387.543861 291.728881 
L 391.191665 292.21216 
L 394.839469 292.35389 
L 398.487273 292.848615 
" clip-path="url(#p701cb22bda)" style="fill: none; stroke: #ff00ff; stroke-opacity: 0.3; stroke-width: 0.5; stroke-linecap: square"/>
   </g>
   <g id="line2d_41">
    <path d="M 73.832727 250.130288 
L 77.480531 250.318412 
L 81.128335 250.464923 
L 84.776139 250.826083 
L 88.423943 251.276145 
L 92.071747 251.904689 
L 95.719551 252.476139 
L 99.367354 253.262678 
L 103.015158 254.274455 
L 106.662962 255.144367 
L 110.310766 256.133534 
L 113.95857 257.053514 
L 117.606374 257.972068 
L 121.254178 258.862159 
L 124.901982 259.590856 
L 128.549785 260.851558 
L 132.197589 262.099349 
L 135.845393 263.104985 
L 139.493197 263.895979 
L 143.141001 264.986867 
L 146.788805 266.341082 
L 150.436609 267.456145 
L 154.084413 268.703806 
L 157.732217 269.688735 
L 161.38002 270.648477 
L 165.027824 271.438422 
L 168.675628 272.61107 
L 172.323432 273.439454 
L 175.971236 274.199442 
L 179.61904 274.988326 
L 183.266844 275.673808 
L 186.914648 275.993373 
L 190.562451 277.635669 
L 194.210255 278.619625 
L 197.858059 279.653222 
L 201.505863 280.746302 
L 205.153667 281.69276 
L 208.801471 282.724474 
L 212.449275 283.616965 
L 216.097079 284.750513 
L 219.744883 285.769453 
L 223.392686 286.632695 
L 227.04049 287.603413 
L 230.688294 288.636751 
L 234.336098 289.501685 
L 237.983902 290.176506 
L 241.631706 290.99347 
L 245.27951 291.58197 
L 248.927314 292.247264 
L 252.575117 292.627869 
L 256.222921 293.059215 
L 259.870725 293.431832 
L 263.518529 293.781401 
L 267.166333 293.914895 
L 270.814137 294.21492 
L 274.461941 294.406112 
L 278.109745 294.510625 
L 281.757549 294.644058 
L 285.405352 294.732517 
L 289.053156 294.819602 
L 292.70096 294.897858 
L 296.348764 295.000121 
L 299.996568 295.032373 
L 303.644372 295.080639 
L 307.292176 295.096479 
L 310.93998 295.148818 
L 314.587783 295.184964 
L 318.235587 295.206023 
L 321.883391 295.228963 
L 325.531195 295.259722 
L 329.178999 295.233654 
L 332.826803 295.271165 
L 336.474607 295.28995 
L 340.122411 295.313124 
L 343.770215 295.320887 
L 347.418018 295.344525 
L 351.065822 295.334907 
L 354.713626 295.33056 
L 358.36143 295.351469 
L 362.009234 295.369819 
L 365.657038 295.378586 
L 369.304842 295.374704 
L 372.952646 295.380129 
L 376.600449 295.381696 
L 380.248253 295.370063 
L 383.896057 295.391124 
L 387.543861 295.395958 
L 391.191665 295.401554 
L 394.839469 295.410407 
L 398.487273 295.394298 
" clip-path="url(#p701cb22bda)" style="fill: none; stroke: #ff00ff; stroke-opacity: 0.3; stroke-width: 0.5; stroke-linecap: square"/>
   </g>
   <g id="line2d_42">
    <path d="M 73.832727 249.538317 
L 77.480531 249.603463 
L 81.128335 249.687771 
L 84.776139 249.831176 
L 88.423943 250.062431 
L 92.071747 250.410778 
L 95.719551 250.820689 
L 99.367354 251.110626 
L 103.015158 251.575029 
L 106.662962 251.979595 
L 110.310766 252.731593 
L 113.95857 253.423555 
L 117.606374 254.173931 
L 121.254178 254.717061 
L 124.901982 255.686354 
L 128.549785 256.335662 
L 132.197589 257.206407 
L 135.845393 258.226733 
L 139.493197 259.407285 
L 143.141001 260.437943 
L 146.788805 261.402025 
L 150.436609 262.488206 
L 154.084413 263.37652 
L 157.732217 264.513017 
L 161.38002 265.420378 
L 165.027824 266.194006 
L 168.675628 267.18695 
L 172.323432 268.051553 
L 175.971236 268.873585 
L 179.61904 269.574815 
L 183.266844 270.470107 
L 186.914648 271.028312 
L 190.562451 271.944746 
L 194.210255 272.801365 
L 197.858059 273.798508 
L 201.505863 274.637503 
L 205.153667 275.449568 
L 208.801471 276.250058 
L 212.449275 277.082706 
L 216.097079 277.960516 
L 219.744883 278.786028 
L 223.392686 279.646333 
L 227.04049 280.581345 
L 230.688294 281.451396 
L 234.336098 282.414886 
L 237.983902 283.325382 
L 241.631706 284.246346 
L 245.27951 285.114151 
L 248.927314 285.999793 
L 252.575117 286.889333 
L 256.222921 287.694126 
L 259.870725 288.518178 
L 263.518529 289.251629 
L 267.166333 289.980229 
L 270.814137 290.59392 
L 274.461941 291.223718 
L 278.109745 291.754128 
L 281.757549 292.258964 
L 285.405352 292.623112 
L 289.053156 293.020236 
L 292.70096 293.346975 
L 296.348764 293.642877 
L 299.996568 293.876814 
L 303.644372 294.05929 
L 307.292176 294.274626 
L 310.93998 294.389476 
L 314.587783 294.507728 
L 318.235587 294.588925 
L 321.883391 294.713506 
L 325.531195 294.82755 
L 329.178999 294.897882 
L 332.826803 294.943391 
L 336.474607 295.01334 
L 340.122411 295.031889 
L 343.770215 295.079381 
L 347.418018 295.11214 
L 351.065822 295.116959 
L 354.713626 295.168103 
L 358.36143 295.211583 
L 362.009234 295.220589 
L 365.657038 295.247412 
L 369.304842 295.262147 
L 372.952646 295.276672 
L 376.600449 295.286987 
L 380.248253 295.316261 
L 383.896057 295.303782 
L 387.543861 295.318765 
L 391.191665 295.341419 
L 394.839469 295.343815 
L 398.487273 295.358547 
" clip-path="url(#p701cb22bda)" style="fill: none; stroke: #ff00ff; stroke-opacity: 0.3; stroke-width: 0.5; stroke-linecap: square"/>
   </g>
   <g id="line2d_43">
    <path d="M 73.832727 250.183434 
L 77.480531 250.069361 
L 81.128335 250.415355 
L 84.776139 250.71732 
L 88.423943 251.164495 
L 92.071747 251.631772 
L 95.719551 251.953554 
L 99.367354 252.441266 
L 103.015158 253.224044 
L 106.662962 253.630895 
L 110.310766 254.203793 
L 113.95857 254.719081 
L 117.606374 255.394954 
L 121.254178 256.024246 
L 124.901982 256.664782 
L 128.549785 257.490885 
L 132.197589 258.326598 
L 135.845393 259.336919 
L 139.493197 260.617527 
L 143.141001 261.584879 
L 146.788805 262.791112 
L 150.436609 263.937682 
L 154.084413 265.258233 
L 157.732217 266.402342 
L 161.38002 267.822589 
L 165.027824 268.819792 
L 168.675628 270.094106 
L 172.323432 271.746682 
L 175.971236 272.533355 
L 179.61904 273.737618 
L 183.266844 275.258815 
L 186.914648 275.995743 
L 190.562451 278.341708 
L 194.210255 279.326006 
L 197.858059 281.283578 
L 201.505863 282.803978 
L 205.153667 284.199287 
L 208.801471 285.61532 
L 212.449275 286.840075 
L 216.097079 288.168413 
L 219.744883 289.390244 
L 223.392686 290.111089 
L 227.04049 291.107843 
L 230.688294 291.770495 
L 234.336098 292.302111 
L 237.983902 292.76912 
L 241.631706 293.2485 
L 245.27951 293.524229 
L 248.927314 293.778099 
L 252.575117 294.082951 
L 256.222921 294.125095 
L 259.870725 294.32809 
L 263.518529 294.53053 
L 267.166333 294.730273 
L 270.814137 294.655591 
L 274.461941 294.895141 
L 278.109745 294.941711 
L 281.757549 295.014533 
L 285.405352 294.994746 
L 289.053156 295.090911 
L 292.70096 295.143446 
L 296.348764 295.148652 
L 299.996568 295.179009 
L 303.644372 295.20103 
L 307.292176 295.232236 
L 310.93998 295.239154 
L 314.587783 295.249533 
L 318.235587 295.252305 
L 321.883391 295.291548 
L 325.531195 295.305653 
L 329.178999 295.313256 
L 332.826803 295.323947 
L 336.474607 295.333943 
L 340.122411 295.338271 
L 343.770215 295.348499 
L 347.418018 295.339028 
L 351.065822 295.354049 
L 354.713626 295.345848 
L 358.36143 295.373577 
L 362.009234 295.390121 
L 365.657038 295.383508 
L 369.304842 295.391248 
L 372.952646 295.393689 
L 376.600449 295.357226 
L 380.248253 295.403813 
L 383.896057 295.384269 
L 387.543861 295.409375 
L 391.191665 295.416121 
L 394.839469 295.401665 
L 398.487273 295.400871 
" clip-path="url(#p701cb22bda)" style="fill: none; stroke: #ff00ff; stroke-opacity: 0.3; stroke-width: 0.5; stroke-linecap: square"/>
   </g>
   <g id="line2d_44">
    <path d="M 73.832727 243.0859 
L 77.480531 243.642777 
L 81.128335 244.051648 
L 84.776139 244.709212 
L 88.423943 245.390073 
L 92.071747 245.814285 
L 95.719551 246.746473 
L 99.367354 247.490739 
L 103.015158 248.043255 
L 106.662962 248.519569 
L 110.310766 249.004691 
L 113.95857 249.186072 
L 117.606374 249.382395 
L 121.254178 249.561902 
L 124.901982 249.887912 
L 128.549785 250.161836 
L 132.197589 250.351595 
L 135.845393 250.652288 
L 139.493197 251.043565 
L 143.141001 251.415912 
L 146.788805 251.866953 
L 150.436609 252.15676 
L 154.084413 252.660585 
L 157.732217 253.160207 
L 161.38002 253.726809 
L 165.027824 254.181272 
L 168.675628 254.600578 
L 172.323432 255.128013 
L 175.971236 255.255593 
L 179.61904 255.776004 
L 183.266844 256.19107 
L 186.914648 256.603628 
L 190.562451 257.338752 
L 194.210255 257.744403 
L 197.858059 258.908455 
L 201.505863 260.016516 
L 205.153667 260.850846 
L 208.801471 261.64407 
L 212.449275 262.856977 
L 216.097079 264.069787 
L 219.744883 264.838342 
L 223.392686 265.9899 
L 227.04049 266.782109 
L 230.688294 268.265675 
L 234.336098 269.614733 
L 237.983902 270.78044 
L 241.631706 271.945372 
L 245.27951 273.111208 
L 248.927314 274.314959 
L 252.575117 275.468163 
L 256.222921 276.52268 
L 259.870725 277.761666 
L 263.518529 278.81984 
L 267.166333 280.317617 
L 270.814137 281.124141 
L 274.461941 282.346365 
L 278.109745 283.480849 
L 281.757549 284.369558 
L 285.405352 285.37118 
L 289.053156 286.34335 
L 292.70096 287.115566 
L 296.348764 288.006146 
L 299.996568 288.618101 
L 303.644372 289.172301 
L 307.292176 289.957495 
L 310.93998 290.6507 
L 314.587783 291.303708 
L 318.235587 291.551726 
L 321.883391 292.144174 
L 325.531195 292.573899 
L 329.178999 292.821133 
L 332.826803 293.105822 
L 336.474607 293.413258 
L 340.122411 293.441255 
L 343.770215 293.703632 
L 347.418018 293.932181 
L 351.065822 294.06022 
L 354.713626 294.054034 
L 358.36143 294.355301 
L 362.009234 294.431692 
L 365.657038 294.385171 
L 369.304842 294.608122 
L 372.952646 294.714448 
L 376.600449 294.677837 
L 380.248253 294.654802 
L 383.896057 294.856799 
L 387.543861 294.783205 
L 391.191665 294.930126 
L 394.839469 294.948683 
L 398.487273 294.933961 
" clip-path="url(#p701cb22bda)" style="fill: none; stroke: #ff00ff; stroke-opacity: 0.3; stroke-width: 0.5; stroke-linecap: square"/>
   </g>
   <g id="line2d_45">
    <path d="M 73.832727 248.78325 
L 77.480531 248.971102 
L 81.128335 249.242465 
L 84.776139 249.244319 
L 88.423943 249.517024 
L 92.071747 250.070313 
L 95.719551 250.260051 
L 99.367354 250.682592 
L 103.015158 251.359721 
L 106.662962 251.674577 
L 110.310766 252.465957 
L 113.95857 253.0647 
L 117.606374 253.821117 
L 121.254178 254.707134 
L 124.901982 255.251073 
L 128.549785 256.313398 
L 132.197589 257.331423 
L 135.845393 257.937833 
L 139.493197 259.243985 
L 143.141001 260.269766 
L 146.788805 261.318916 
L 150.436609 263.03514 
L 154.084413 264.133463 
L 157.732217 265.490782 
L 161.38002 266.736175 
L 165.027824 268.416586 
L 168.675628 269.771777 
L 172.323432 271.271552 
L 175.971236 272.871228 
L 179.61904 274.291549 
L 183.266844 275.844904 
L 186.914648 276.42741 
L 190.562451 278.97559 
L 194.210255 280.678294 
L 197.858059 282.627173 
L 201.505863 284.19969 
L 205.153667 285.500881 
L 208.801471 286.92122 
L 212.449275 288.348361 
L 216.097079 289.484702 
L 219.744883 290.384596 
L 223.392686 291.290853 
L 227.04049 291.997982 
L 230.688294 292.459814 
L 234.336098 293.043097 
L 237.983902 293.334964 
L 241.631706 293.760039 
L 245.27951 293.910031 
L 248.927314 294.20555 
L 252.575117 294.360221 
L 256.222921 294.551513 
L 259.870725 294.614455 
L 263.518529 294.742959 
L 267.166333 294.747497 
L 270.814137 294.885331 
L 274.461941 295.011196 
L 278.109745 295.075691 
L 281.757549 295.123144 
L 285.405352 295.116614 
L 289.053156 295.143381 
L 292.70096 295.22001 
L 296.348764 295.225788 
L 299.996568 295.249309 
L 303.644372 295.249843 
L 307.292176 295.301955 
L 310.93998 295.309703 
L 314.587783 295.329536 
L 318.235587 295.339652 
L 321.883391 295.328721 
L 325.531195 295.348597 
L 329.178999 295.36168 
L 332.826803 295.359292 
L 336.474607 295.357427 
L 340.122411 295.365886 
L 343.770215 295.384933 
L 347.418018 295.385009 
L 351.065822 295.394388 
L 354.713626 295.386849 
L 358.36143 295.412367 
L 362.009234 295.413829 
L 365.657038 295.405111 
L 369.304842 295.412482 
L 372.952646 295.419282 
L 376.600449 295.429465 
L 380.248253 295.419358 
L 383.896057 295.414532 
L 387.543861 295.420818 
L 391.191665 295.441469 
L 394.839469 295.415857 
L 398.487273 295.425606 
" clip-path="url(#p701cb22bda)" style="fill: none; stroke: #ff00ff; stroke-opacity: 0.3; stroke-width: 0.5; stroke-linecap: square"/>
   </g>
   <g id="line2d_46">
    <path d="M 73.832727 249.522898 
L 77.480531 249.887123 
L 81.128335 249.954838 
L 84.776139 250.712202 
L 88.423943 251.274852 
L 92.071747 251.646691 
L 95.719551 252.396262 
L 99.367354 253.183492 
L 103.015158 253.936392 
L 106.662962 254.544367 
L 110.310766 255.290792 
L 113.95857 256.272707 
L 117.606374 257.026193 
L 121.254178 257.666863 
L 124.901982 258.467678 
L 128.549785 259.233131 
L 132.197589 260.429264 
L 135.845393 261.499876 
L 139.493197 262.575292 
L 143.141001 263.709273 
L 146.788805 264.643069 
L 150.436609 265.997731 
L 154.084413 267.157592 
L 157.732217 268.280498 
L 161.38002 269.223259 
L 165.027824 270.448516 
L 168.675628 271.191432 
L 172.323432 271.846403 
L 175.971236 271.889549 
L 179.61904 273.682586 
L 183.266844 273.590473 
L 186.914648 274.162944 
L 190.562451 275.719791 
L 194.210255 276.974076 
L 197.858059 278.222961 
L 201.505863 279.004427 
L 205.153667 280.353574 
L 208.801471 281.252959 
L 212.449275 282.278034 
L 216.097079 283.522539 
L 219.744883 284.612288 
L 223.392686 285.52484 
L 227.04049 286.410128 
L 230.688294 287.295107 
L 234.336098 288.247339 
L 237.983902 288.828167 
L 241.631706 289.687834 
L 245.27951 290.142666 
L 248.927314 290.74205 
L 252.575117 291.114949 
L 256.222921 291.728734 
L 259.870725 291.987403 
L 263.518529 292.341272 
L 267.166333 292.550264 
L 270.814137 293.058674 
L 274.461941 293.333529 
L 278.109745 293.486079 
L 281.757549 293.641993 
L 285.405352 293.577649 
L 289.053156 293.888342 
L 292.70096 294.070661 
L 296.348764 294.232852 
L 299.996568 294.227405 
L 303.644372 294.407434 
L 307.292176 294.501837 
L 310.93998 294.543219 
L 314.587783 294.539754 
L 318.235587 294.608656 
L 321.883391 294.698795 
L 325.531195 294.792754 
L 329.178999 294.771614 
L 332.826803 294.861116 
L 336.474607 294.833101 
L 340.122411 294.792455 
L 343.770215 294.837268 
L 347.418018 294.839654 
L 351.065822 294.94145 
L 354.713626 294.958038 
L 358.36143 294.974417 
L 362.009234 294.89727 
L 365.657038 295.086459 
L 369.304842 295.00567 
L 372.952646 295.042698 
L 376.600449 295.056926 
L 380.248253 295.130384 
L 383.896057 295.035217 
L 387.543861 294.983111 
L 391.191665 295.150195 
L 394.839469 295.138046 
L 398.487273 295.183657 
" clip-path="url(#p701cb22bda)" style="fill: none; stroke: #ff00ff; stroke-opacity: 0.3; stroke-width: 0.5; stroke-linecap: square"/>
   </g>
   <g id="line2d_47">
    <path d="M 73.832727 249.679344 
L 77.480531 249.846709 
L 81.128335 250.059004 
L 84.776139 250.273689 
L 88.423943 250.822575 
L 92.071747 251.29436 
L 95.719551 251.745438 
L 99.367354 252.410453 
L 103.015158 253.101061 
L 106.662962 253.789276 
L 110.310766 254.637541 
L 113.95857 255.362304 
L 117.606374 256.191875 
L 121.254178 257.251505 
L 124.901982 258.339801 
L 128.549785 259.321017 
L 132.197589 260.309867 
L 135.845393 261.921787 
L 139.493197 262.908125 
L 143.141001 264.366337 
L 146.788805 265.576238 
L 150.436609 266.926958 
L 154.084413 267.878326 
L 157.732217 269.127428 
L 161.38002 270.690296 
L 165.027824 272.139685 
L 168.675628 273.186789 
L 172.323432 274.496821 
L 175.971236 275.955875 
L 179.61904 276.711446 
L 183.266844 278.261682 
L 186.914648 278.856665 
L 190.562451 280.728787 
L 194.210255 281.874911 
L 197.858059 283.50598 
L 201.505863 284.925133 
L 205.153667 286.024543 
L 208.801471 287.229765 
L 212.449275 288.515315 
L 216.097079 289.576531 
L 219.744883 290.386722 
L 223.392686 291.098635 
L 227.04049 291.52788 
L 230.688294 292.239622 
L 234.336098 292.463487 
L 237.983902 292.835415 
L 241.631706 293.298757 
L 245.27951 293.626415 
L 248.927314 293.887052 
L 252.575117 294.006302 
L 256.222921 294.155209 
L 259.870725 294.16762 
L 263.518529 294.410784 
L 267.166333 294.616979 
L 270.814137 294.661442 
L 274.461941 294.811866 
L 278.109745 294.830134 
L 281.757549 294.97203 
L 285.405352 294.891768 
L 289.053156 295.015939 
L 292.70096 295.069666 
L 296.348764 295.084761 
L 299.996568 295.076725 
L 303.644372 295.100992 
L 307.292176 295.131209 
L 310.93998 295.197695 
L 314.587783 295.191741 
L 318.235587 295.202904 
L 321.883391 295.228946 
L 325.531195 295.244446 
L 329.178999 295.23109 
L 332.826803 295.227096 
L 336.474607 295.261941 
L 340.122411 295.291748 
L 343.770215 295.295264 
L 347.418018 295.288338 
L 351.065822 295.315628 
L 354.713626 295.332901 
L 358.36143 295.316699 
L 362.009234 295.328672 
L 365.657038 295.348302 
L 369.304842 295.328283 
L 372.952646 295.331638 
L 376.600449 295.353827 
L 380.248253 295.365571 
L 383.896057 295.372719 
L 387.543861 295.358262 
L 391.191665 295.358951 
L 394.839469 295.382493 
L 398.487273 295.371706 
" clip-path="url(#p701cb22bda)" style="fill: none; stroke: #ff00ff; stroke-opacity: 0.3; stroke-width: 0.5; stroke-linecap: square"/>
   </g>
   <g id="line2d_48">
    <path d="M 73.832727 248.507231 
L 77.480531 248.424813 
L 81.128335 248.584121 
L 84.776139 248.640267 
L 88.423943 248.641795 
L 92.071747 248.803717 
L 95.719551 248.847708 
L 99.367354 248.920635 
L 103.015158 249.081918 
L 106.662962 249.165958 
L 110.310766 249.361513 
L 113.95857 249.507207 
L 117.606374 249.797774 
L 121.254178 249.890826 
L 124.901982 250.038154 
L 128.549785 250.237128 
L 132.197589 250.454826 
L 135.845393 250.736425 
L 139.493197 250.792112 
L 143.141001 251.084951 
L 146.788805 251.370746 
L 150.436609 251.529818 
L 154.084413 251.622898 
L 157.732217 251.864819 
L 161.38002 252.014424 
L 165.027824 252.104768 
L 168.675628 252.228015 
L 172.323432 252.508891 
L 175.971236 252.556163 
L 179.61904 252.697471 
L 183.266844 252.839527 
L 186.914648 252.782446 
L 190.562451 253.137634 
L 194.210255 253.300938 
L 197.858059 253.738752 
L 201.505863 254.261723 
L 205.153667 254.451262 
L 208.801471 254.770447 
L 212.449275 255.238793 
L 216.097079 255.535437 
L 219.744883 256.065762 
L 223.392686 256.67305 
L 227.04049 256.763346 
L 230.688294 257.485999 
L 234.336098 258.141193 
L 237.983902 258.593246 
L 241.631706 259.25829 
L 245.27951 259.798249 
L 248.927314 260.485187 
L 252.575117 261.170332 
L 256.222921 261.77578 
L 259.870725 262.570042 
L 263.518529 263.437212 
L 267.166333 264.250072 
L 270.814137 265.255452 
L 274.461941 265.91824 
L 278.109745 266.914732 
L 281.757549 268.04774 
L 285.405352 268.533165 
L 289.053156 269.847203 
L 292.70096 270.804517 
L 296.348764 271.615232 
L 299.996568 272.76828 
L 303.644372 273.682724 
L 307.292176 274.289723 
L 310.93998 275.495218 
L 314.587783 276.485393 
L 318.235587 277.632092 
L 321.883391 278.367301 
L 325.531195 279.549394 
L 329.178999 280.161708 
L 332.826803 281.248343 
L 336.474607 282.099775 
L 340.122411 282.715297 
L 343.770215 283.655497 
L 347.418018 284.403367 
L 351.065822 284.691 
L 354.713626 285.908512 
L 358.36143 286.649489 
L 362.009234 287.135547 
L 365.657038 287.705828 
L 369.304842 288.175302 
L 372.952646 288.83833 
L 376.600449 289.383508 
L 380.248253 289.868979 
L 383.896057 290.250362 
L 387.543861 290.396417 
L 391.191665 290.983282 
L 394.839469 291.066274 
L 398.487273 291.587679 
" clip-path="url(#p701cb22bda)" style="fill: none; stroke: #ff00ff; stroke-opacity: 0.3; stroke-width: 0.5; stroke-linecap: square"/>
   </g>
   <g id="line2d_49">
    <path d="M 73.832727 243.802622 
L 77.480531 243.731911 
L 81.128335 243.838032 
L 84.776139 244.398837 
L 88.423943 244.87228 
L 92.071747 245.440007 
L 95.719551 246.126376 
L 99.367354 246.560873 
L 103.015158 247.194742 
L 106.662962 247.786518 
L 110.310766 248.286099 
L 113.95857 248.915383 
L 117.606374 249.167995 
L 121.254178 249.81992 
L 124.901982 250.028195 
L 128.549785 250.619597 
L 132.197589 250.883949 
L 135.845393 251.101638 
L 139.493197 251.300429 
L 143.141001 251.674434 
L 146.788805 251.800194 
L 150.436609 251.942709 
L 154.084413 252.085411 
L 157.732217 252.539806 
L 161.38002 252.609179 
L 165.027824 252.847706 
L 168.675628 252.905258 
L 172.323432 253.097448 
L 175.971236 253.286568 
L 179.61904 253.393458 
L 183.266844 253.889937 
L 186.914648 253.684845 
L 190.562451 254.207309 
L 194.210255 254.327214 
L 197.858059 254.689996 
L 201.505863 255.470746 
L 205.153667 255.929495 
L 208.801471 256.516303 
L 212.449275 256.874036 
L 216.097079 257.459552 
L 219.744883 257.934032 
L 223.392686 258.566433 
L 227.04049 258.909841 
L 230.688294 259.811712 
L 234.336098 260.809778 
L 237.983902 261.466226 
L 241.631706 262.403489 
L 245.27951 262.73373 
L 248.927314 263.659562 
L 252.575117 264.670138 
L 256.222921 265.193713 
L 259.870725 266.195217 
L 263.518529 267.043764 
L 267.166333 267.43212 
L 270.814137 268.104739 
L 274.461941 269.541118 
L 278.109745 270.125128 
L 281.757549 270.859693 
L 285.405352 271.481778 
L 289.053156 272.471906 
L 292.70096 273.168551 
L 296.348764 273.861186 
L 299.996568 274.928938 
L 303.644372 275.387869 
L 307.292176 275.862827 
L 310.93998 276.697367 
L 314.587783 277.415166 
L 318.235587 278.271511 
L 321.883391 278.979288 
L 325.531195 279.792415 
L 329.178999 280.237309 
L 332.826803 281.069732 
L 336.474607 281.817398 
L 340.122411 282.362028 
L 343.770215 282.840702 
L 347.418018 283.599903 
L 351.065822 284.057707 
L 354.713626 284.608552 
L 358.36143 285.33772 
L 362.009234 285.92568 
L 365.657038 286.417733 
L 369.304842 286.955221 
L 372.952646 287.269924 
L 376.600449 287.771877 
L 380.248253 288.531968 
L 383.896057 288.710709 
L 387.543861 289.403695 
L 391.191665 289.902084 
L 394.839469 290.229599 
L 398.487273 290.476266 
" clip-path="url(#p701cb22bda)" style="fill: none; stroke: #ff00ff; stroke-opacity: 0.3; stroke-width: 0.5; stroke-linecap: square"/>
   </g>
   <g id="line2d_50">
    <path d="M 73.832727 246.307834 
L 77.480531 246.323931 
L 81.128335 246.505028 
L 84.776139 246.702908 
L 88.423943 247.056552 
L 92.071747 247.232745 
L 95.719551 247.743026 
L 99.367354 248.213108 
L 103.015158 248.494105 
L 106.662962 249.011683 
L 110.310766 249.424948 
L 113.95857 249.905456 
L 117.606374 250.336961 
L 121.254178 250.740864 
L 124.901982 251.24471 
L 128.549785 251.69582 
L 132.197589 252.255121 
L 135.845393 252.770178 
L 139.493197 253.262503 
L 143.141001 253.866324 
L 146.788805 254.543123 
L 150.436609 254.973587 
L 154.084413 255.619444 
L 157.732217 256.42454 
L 161.38002 256.954096 
L 165.027824 257.758493 
L 168.675628 258.61749 
L 172.323432 259.329143 
L 175.971236 259.816383 
L 179.61904 260.227217 
L 183.266844 261.307152 
L 186.914648 261.625615 
L 190.562451 263.370083 
L 194.210255 263.740491 
L 197.858059 265.482823 
L 201.505863 267.053286 
L 205.153667 268.18748 
L 208.801471 270.037173 
L 212.449275 271.088856 
L 216.097079 272.888838 
L 219.744883 274.365796 
L 223.392686 275.844059 
L 227.04049 277.348862 
L 230.688294 279.101131 
L 234.336098 280.732516 
L 237.983902 282.124403 
L 241.631706 283.430285 
L 245.27951 284.443079 
L 248.927314 285.819065 
L 252.575117 286.710495 
L 256.222921 287.71362 
L 259.870725 288.59428 
L 263.518529 289.439842 
L 267.166333 290.231127 
L 270.814137 290.844314 
L 274.461941 291.49163 
L 278.109745 291.951307 
L 281.757549 292.282568 
L 285.405352 292.666244 
L 289.053156 292.999465 
L 292.70096 293.361224 
L 296.348764 293.57188 
L 299.996568 293.723513 
L 303.644372 293.907316 
L 307.292176 294.090289 
L 310.93998 294.197422 
L 314.587783 294.395898 
L 318.235587 294.475207 
L 321.883391 294.496921 
L 325.531195 294.626021 
L 329.178999 294.655438 
L 332.826803 294.662999 
L 336.474607 294.754747 
L 340.122411 294.822674 
L 343.770215 294.922974 
L 347.418018 294.914117 
L 351.065822 294.863365 
L 354.713626 295.014085 
L 358.36143 295.002285 
L 362.009234 295.055393 
L 365.657038 295.012627 
L 369.304842 295.082657 
L 372.952646 295.10167 
L 376.600449 295.080721 
L 380.248253 295.169357 
L 383.896057 295.180807 
L 387.543861 295.155282 
L 391.191665 295.176098 
L 394.839469 295.158036 
L 398.487273 295.227735 
" clip-path="url(#p701cb22bda)" style="fill: none; stroke: #ff00ff; stroke-opacity: 0.3; stroke-width: 0.5; stroke-linecap: square"/>
   </g>
   <g id="line2d_51">
    <path d="M 73.832727 248.7269 
L 77.480531 248.65436 
L 81.128335 248.73973 
L 84.776139 248.956655 
L 88.423943 248.980968 
L 92.071747 249.075658 
L 95.719551 249.227031 
L 99.367354 249.52091 
L 103.015158 249.715783 
L 106.662962 249.935155 
L 110.310766 250.123792 
L 113.95857 250.319481 
L 117.606374 250.724425 
L 121.254178 250.927965 
L 124.901982 251.431209 
L 128.549785 251.71204 
L 132.197589 252.29973 
L 135.845393 252.317482 
L 139.493197 253.055692 
L 143.141001 253.252902 
L 146.788805 253.641793 
L 150.436609 253.855259 
L 154.084413 254.175277 
L 157.732217 254.658082 
L 161.38002 255.057412 
L 165.027824 255.546758 
L 168.675628 256.28813 
L 172.323432 255.873865 
L 175.971236 256.533514 
L 179.61904 257.186273 
L 183.266844 257.01658 
L 186.914648 257.814537 
L 190.562451 259.271314 
L 194.210255 259.825476 
L 197.858059 260.870785 
L 201.505863 262.018654 
L 205.153667 263.347146 
L 208.801471 264.502121 
L 212.449275 265.323942 
L 216.097079 266.861222 
L 219.744883 268.280778 
L 223.392686 269.564919 
L 227.04049 271.258239 
L 230.688294 272.640019 
L 234.336098 273.827213 
L 237.983902 275.851319 
L 241.631706 276.67264 
L 245.27951 278.464055 
L 248.927314 280.187191 
L 252.575117 281.756993 
L 256.222921 282.845067 
L 259.870725 284.012557 
L 263.518529 285.443047 
L 267.166333 286.163593 
L 270.814137 287.66916 
L 274.461941 288.386977 
L 278.109745 289.26932 
L 281.757549 289.787437 
L 285.405352 290.33642 
L 289.053156 291.228714 
L 292.70096 291.763206 
L 296.348764 292.316179 
L 299.996568 292.596845 
L 303.644372 292.86668 
L 307.292176 293.304674 
L 310.93998 293.494209 
L 314.587783 293.723503 
L 318.235587 293.841958 
L 321.883391 293.961177 
L 325.531195 294.228477 
L 329.178999 294.363896 
L 332.826803 294.26455 
L 336.474607 294.542831 
L 340.122411 294.633019 
L 343.770215 294.635863 
L 347.418018 294.643209 
L 351.065822 294.825445 
L 354.713626 294.879138 
L 358.36143 294.929241 
L 362.009234 294.900957 
L 365.657038 294.838161 
L 369.304842 295.002822 
L 372.952646 295.084729 
L 376.600449 295.02525 
L 380.248253 295.049349 
L 383.896057 295.092747 
L 387.543861 295.112618 
L 391.191665 295.123204 
L 394.839469 295.111926 
L 398.487273 295.171533 
" clip-path="url(#p701cb22bda)" style="fill: none; stroke: #ff00ff; stroke-opacity: 0.3; stroke-width: 0.5; stroke-linecap: square"/>
   </g>
   <g id="line2d_52">
    <path d="M 73.832727 249.102572 
L 77.480531 249.138377 
L 81.128335 249.405814 
L 84.776139 249.863042 
L 88.423943 250.150682 
L 92.071747 250.563317 
L 95.719551 250.918046 
L 99.367354 251.546443 
L 103.015158 251.964969 
L 106.662962 252.749361 
L 110.310766 253.430803 
L 113.95857 253.960234 
L 117.606374 255.064867 
L 121.254178 255.891519 
L 124.901982 256.717753 
L 128.549785 257.77022 
L 132.197589 258.675681 
L 135.845393 259.936569 
L 139.493197 260.937634 
L 143.141001 262.117694 
L 146.788805 263.243368 
L 150.436609 264.324478 
L 154.084413 265.191363 
L 157.732217 266.140826 
L 161.38002 267.241624 
L 165.027824 267.785437 
L 168.675628 268.56964 
L 172.323432 269.406503 
L 175.971236 269.944883 
L 179.61904 270.583484 
L 183.266844 271.068413 
L 186.914648 271.506635 
L 190.562451 272.260688 
L 194.210255 272.730229 
L 197.858059 273.455334 
L 201.505863 274.041786 
L 205.153667 274.519268 
L 208.801471 275.020356 
L 212.449275 275.528189 
L 216.097079 275.927469 
L 219.744883 276.336608 
L 223.392686 276.714117 
L 227.04049 277.101222 
L 230.688294 277.410313 
L 234.336098 277.747654 
L 237.983902 278.04794 
L 241.631706 278.391941 
L 245.27951 278.677769 
L 248.927314 278.980055 
L 252.575117 279.271834 
L 256.222921 279.517946 
L 259.870725 279.794158 
L 263.518529 280.056323 
L 267.166333 280.324895 
L 270.814137 280.565018 
L 274.461941 280.848362 
L 278.109745 281.071291 
L 281.757549 281.33329 
L 285.405352 281.549631 
L 289.053156 281.782825 
L 292.70096 282.023253 
L 296.348764 282.233502 
L 299.996568 282.460923 
L 303.644372 282.674311 
L 307.292176 282.886036 
L 310.93998 283.093634 
L 314.587783 283.283436 
L 318.235587 283.480984 
L 321.883391 283.674944 
L 325.531195 283.87448 
L 329.178999 284.050583 
L 332.826803 284.240526 
L 336.474607 284.425727 
L 340.122411 284.592003 
L 343.770215 284.760481 
L 347.418018 284.931137 
L 351.065822 285.09751 
L 354.713626 285.26746 
L 358.36143 285.43631 
L 362.009234 285.589025 
L 365.657038 285.756096 
L 369.304842 285.887056 
L 372.952646 286.045138 
L 376.600449 286.195154 
L 380.248253 286.351384 
L 383.896057 286.489335 
L 387.543861 286.611622 
L 391.191665 286.772429 
L 394.839469 286.896999 
L 398.487273 287.043027 
" clip-path="url(#p701cb22bda)" style="fill: none; stroke: #ff00ff; stroke-opacity: 0.3; stroke-width: 0.5; stroke-linecap: square"/>
   </g>
   <g id="line2d_53">
    <path d="M 73.832727 247.205128 
L 77.480531 247.223607 
L 81.128335 247.698595 
L 84.776139 248.1886 
L 88.423943 248.882989 
L 92.071747 249.394131 
L 95.719551 250.159336 
L 99.367354 250.857652 
L 103.015158 251.536598 
L 106.662962 252.2103 
L 110.310766 252.632797 
L 113.95857 253.310617 
L 117.606374 253.775682 
L 121.254178 254.359239 
L 124.901982 254.872084 
L 128.549785 255.573079 
L 132.197589 256.247399 
L 135.845393 257.183586 
L 139.493197 257.792687 
L 143.141001 258.861545 
L 146.788805 259.728229 
L 150.436609 260.74001 
L 154.084413 261.871987 
L 157.732217 262.898613 
L 161.38002 264.113949 
L 165.027824 265.329901 
L 168.675628 266.613167 
L 172.323432 268.109497 
L 175.971236 269.401465 
L 179.61904 271.199871 
L 183.266844 272.152594 
L 186.914648 273.630037 
L 190.562451 275.796803 
L 194.210255 277.429796 
L 197.858059 279.487501 
L 201.505863 281.269339 
L 205.153667 282.995506 
L 208.801471 284.513116 
L 212.449275 285.975127 
L 216.097079 287.551461 
L 219.744883 288.797225 
L 223.392686 289.765196 
L 227.04049 290.670259 
L 230.688294 291.385137 
L 234.336098 292.033673 
L 237.983902 292.668671 
L 241.631706 293.07348 
L 245.27951 293.465565 
L 248.927314 293.757266 
L 252.575117 294.018526 
L 256.222921 294.205162 
L 259.870725 294.450787 
L 263.518529 294.542537 
L 267.166333 294.676274 
L 270.814137 294.815736 
L 274.461941 294.885802 
L 278.109745 294.987809 
L 281.757549 295.028674 
L 285.405352 295.035418 
L 289.053156 295.096483 
L 292.70096 295.15499 
L 296.348764 295.203103 
L 299.996568 295.213001 
L 303.644372 295.244388 
L 307.292176 295.255715 
L 310.93998 295.271616 
L 314.587783 295.299734 
L 318.235587 295.31233 
L 321.883391 295.313065 
L 325.531195 295.344745 
L 329.178999 295.34648 
L 332.826803 295.351279 
L 336.474607 295.3599 
L 340.122411 295.373309 
L 343.770215 295.379475 
L 347.418018 295.375694 
L 351.065822 295.380459 
L 354.713626 295.3887 
L 358.36143 295.397664 
L 362.009234 295.407526 
L 365.657038 295.392358 
L 369.304842 295.413728 
L 372.952646 295.410441 
L 376.600449 295.419488 
L 380.248253 295.415083 
L 383.896057 295.41978 
L 387.543861 295.422303 
L 391.191665 295.438494 
L 394.839469 295.430774 
L 398.487273 295.427781 
" clip-path="url(#p701cb22bda)" style="fill: none; stroke: #ff00ff; stroke-opacity: 0.3; stroke-width: 0.5; stroke-linecap: square"/>
   </g>
   <g id="line2d_54">
    <path d="M 73.832727 242.981539 
L 77.480531 243.875906 
L 81.128335 244.058274 
L 84.776139 245.047791 
L 88.423943 246.572698 
L 92.071747 247.243908 
L 95.719551 247.822204 
L 99.367354 248.633401 
L 103.015158 248.884269 
L 106.662962 249.253091 
L 110.310766 249.70245 
L 113.95857 250.129613 
L 117.606374 250.661186 
L 121.254178 251.186215 
L 124.901982 251.457176 
L 128.549785 251.919286 
L 132.197589 252.557074 
L 135.845393 253.140659 
L 139.493197 253.681598 
L 143.141001 254.106989 
L 146.788805 254.979185 
L 150.436609 255.296829 
L 154.084413 255.895767 
L 157.732217 256.704993 
L 161.38002 257.456645 
L 165.027824 257.7852 
L 168.675628 258.563775 
L 172.323432 258.76846 
L 175.971236 259.669222 
L 179.61904 260.259973 
L 183.266844 260.725181 
L 186.914648 260.888814 
L 190.562451 262.819856 
L 194.210255 263.083372 
L 197.858059 264.595254 
L 201.505863 265.404648 
L 205.153667 266.58309 
L 208.801471 267.572902 
L 212.449275 268.824979 
L 216.097079 270.079764 
L 219.744883 271.284306 
L 223.392686 272.318436 
L 227.04049 273.46214 
L 230.688294 274.787565 
L 234.336098 275.708787 
L 237.983902 277.206505 
L 241.631706 278.285414 
L 245.27951 279.083701 
L 248.927314 280.355342 
L 252.575117 281.884647 
L 256.222921 282.633136 
L 259.870725 283.974591 
L 263.518529 284.846912 
L 267.166333 285.781554 
L 270.814137 286.635623 
L 274.461941 287.500558 
L 278.109745 288.181264 
L 281.757549 289.262281 
L 285.405352 289.823544 
L 289.053156 290.396254 
L 292.70096 290.969036 
L 296.348764 291.412675 
L 299.996568 291.868395 
L 303.644372 292.292444 
L 307.292176 292.594097 
L 310.93998 292.989879 
L 314.587783 293.261335 
L 318.235587 293.467821 
L 321.883391 293.621318 
L 325.531195 293.899035 
L 329.178999 294.074227 
L 332.826803 294.232796 
L 336.474607 294.309298 
L 340.122411 294.378708 
L 343.770215 294.508303 
L 347.418018 294.605173 
L 351.065822 294.613896 
L 354.713626 294.741649 
L 358.36143 294.833834 
L 362.009234 294.87445 
L 365.657038 294.903281 
L 369.304842 294.903289 
L 372.952646 294.965191 
L 376.600449 294.994014 
L 380.248253 295.02992 
L 383.896057 295.035952 
L 387.543861 295.078069 
L 391.191665 295.146117 
L 394.839469 295.124857 
L 398.487273 295.154123 
" clip-path="url(#p701cb22bda)" style="fill: none; stroke: #ff00ff; stroke-opacity: 0.3; stroke-width: 0.5; stroke-linecap: square"/>
   </g>
   <g id="line2d_55">
    <path d="M 73.832727 245.06651 
L 77.480531 245.385069 
L 81.128335 245.880297 
L 84.776139 246.420422 
L 88.423943 246.960024 
L 92.071747 247.604934 
L 95.719551 248.270002 
L 99.367354 248.822875 
L 103.015158 249.383985 
L 106.662962 249.858461 
L 110.310766 250.2731 
L 113.95857 250.599776 
L 117.606374 251.021801 
L 121.254178 251.458928 
L 124.901982 251.747722 
L 128.549785 252.113545 
L 132.197589 252.499054 
L 135.845393 253.180154 
L 139.493197 253.847108 
L 143.141001 254.387551 
L 146.788805 255.054217 
L 150.436609 255.750516 
L 154.084413 256.521006 
L 157.732217 257.306614 
L 161.38002 258.271155 
L 165.027824 259.296647 
L 168.675628 260.270115 
L 172.323432 261.553898 
L 175.971236 262.623845 
L 179.61904 263.792557 
L 183.266844 264.755247 
L 186.914648 265.517566 
L 190.562451 267.967732 
L 194.210255 269.180318 
L 197.858059 271.086803 
L 201.505863 273.134196 
L 205.153667 275.03262 
L 208.801471 276.847882 
L 212.449275 278.985311 
L 216.097079 280.699282 
L 219.744883 282.708846 
L 223.392686 284.426494 
L 227.04049 286.04046 
L 230.688294 287.725761 
L 234.336098 288.883963 
L 237.983902 289.881565 
L 241.631706 290.95073 
L 245.27951 291.835701 
L 248.927314 292.540016 
L 252.575117 293.025152 
L 256.222921 293.348201 
L 259.870725 293.768139 
L 263.518529 294.101859 
L 267.166333 294.319527 
L 270.814137 294.49129 
L 274.461941 294.708861 
L 278.109745 294.801131 
L 281.757549 294.923112 
L 285.405352 294.974949 
L 289.053156 295.055146 
L 292.70096 295.10215 
L 296.348764 295.15433 
L 299.996568 295.218712 
L 303.644372 295.239435 
L 307.292176 295.262676 
L 310.93998 295.288722 
L 314.587783 295.306661 
L 318.235587 295.32596 
L 321.883391 295.344931 
L 325.531195 295.365738 
L 329.178999 295.36302 
L 332.826803 295.38846 
L 336.474607 295.378466 
L 340.122411 295.399599 
L 343.770215 295.404575 
L 347.418018 295.394913 
L 351.065822 295.405152 
L 354.713626 295.406282 
L 358.36143 295.430239 
L 362.009234 295.433636 
L 365.657038 295.440294 
L 369.304842 295.437535 
L 372.952646 295.446775 
L 376.600449 295.450158 
L 380.248253 295.4506 
L 383.896057 295.452145 
L 387.543861 295.443939 
L 391.191665 295.448099 
L 394.839469 295.45379 
L 398.487273 295.457924 
" clip-path="url(#p701cb22bda)" style="fill: none; stroke: #ff00ff; stroke-opacity: 0.3; stroke-width: 0.5; stroke-linecap: square"/>
   </g>
   <g id="line2d_56">
    <path d="M 73.832727 248.672344 
L 77.480531 248.825294 
L 81.128335 248.897663 
L 84.776139 249.300307 
L 88.423943 249.675621 
L 92.071747 250.376806 
L 95.719551 250.97405 
L 99.367354 251.623467 
L 103.015158 252.200711 
L 106.662962 253.019009 
L 110.310766 253.615061 
L 113.95857 254.219065 
L 117.606374 254.974132 
L 121.254178 255.79461 
L 124.901982 256.545067 
L 128.549785 257.749066 
L 132.197589 258.854919 
L 135.845393 259.908094 
L 139.493197 261.140694 
L 143.141001 262.448308 
L 146.788805 263.705436 
L 150.436609 265.029133 
L 154.084413 266.622883 
L 157.732217 268.188196 
L 161.38002 269.994572 
L 165.027824 271.726827 
L 168.675628 273.457354 
L 172.323432 274.951692 
L 175.971236 276.584616 
L 179.61904 277.912923 
L 183.266844 279.571346 
L 186.914648 281.049554 
L 190.562451 282.916885 
L 194.210255 284.376398 
L 197.858059 286.164913 
L 201.505863 287.424862 
L 205.153667 288.852158 
L 208.801471 290.052655 
L 212.449275 290.924099 
L 216.097079 291.837763 
L 219.744883 292.423995 
L 223.392686 292.997763 
L 227.04049 293.343533 
L 230.688294 293.675528 
L 234.336098 294.111016 
L 237.983902 294.326192 
L 241.631706 294.501181 
L 245.27951 294.640842 
L 248.927314 294.733318 
L 252.575117 294.882739 
L 256.222921 294.933179 
L 259.870725 295.058684 
L 263.518529 295.085503 
L 267.166333 295.166686 
L 270.814137 295.177448 
L 274.461941 295.215839 
L 278.109745 295.256249 
L 281.757549 295.271244 
L 285.405352 295.288361 
L 289.053156 295.324536 
L 292.70096 295.33265 
L 296.348764 295.352808 
L 299.996568 295.363851 
L 303.644372 295.370636 
L 307.292176 295.371915 
L 310.93998 295.386918 
L 314.587783 295.400655 
L 318.235587 295.400531 
L 321.883391 295.407824 
L 325.531195 295.421995 
L 329.178999 295.425439 
L 332.826803 295.427299 
L 336.474607 295.427817 
L 340.122411 295.433657 
L 343.770215 295.436543 
L 347.418018 295.439999 
L 351.065822 295.440555 
L 354.713626 295.448979 
L 358.36143 295.450241 
L 362.009234 295.45073 
L 365.657038 295.453023 
L 369.304842 295.455762 
L 372.952646 295.460017 
L 376.600449 295.45901 
L 380.248253 295.457665 
L 383.896057 295.459112 
L 387.543861 295.463974 
L 391.191665 295.465409 
L 394.839469 295.463 
L 398.487273 295.470293 
" clip-path="url(#p701cb22bda)" style="fill: none; stroke: #ff00ff; stroke-opacity: 0.3; stroke-width: 0.5; stroke-linecap: square"/>
   </g>
   <g id="line2d_57">
    <path d="M 73.832727 246.549608 
L 77.480531 246.92952 
L 81.128335 247.152112 
L 84.776139 247.518593 
L 88.423943 248.03178 
L 92.071747 248.381505 
L 95.719551 248.935033 
L 99.367354 249.412529 
L 103.015158 249.980883 
L 106.662962 250.814868 
L 110.310766 251.47492 
L 113.95857 252.027578 
L 117.606374 252.964424 
L 121.254178 253.91151 
L 124.901982 254.592029 
L 128.549785 255.276996 
L 132.197589 256.087408 
L 135.845393 256.765935 
L 139.493197 257.735013 
L 143.141001 258.619063 
L 146.788805 259.566308 
L 150.436609 260.861261 
L 154.084413 262.077723 
L 157.732217 263.505029 
L 161.38002 264.798454 
L 165.027824 266.085655 
L 168.675628 267.486565 
L 172.323432 268.994767 
L 175.971236 270.406213 
L 179.61904 272.114494 
L 183.266844 273.54506 
L 186.914648 274.443856 
L 190.562451 276.820086 
L 194.210255 278.728086 
L 197.858059 280.542305 
L 201.505863 282.41221 
L 205.153667 283.930462 
L 208.801471 285.564649 
L 212.449275 287.224678 
L 216.097079 288.401292 
L 219.744883 289.638742 
L 223.392686 290.703579 
L 227.04049 291.414647 
L 230.688294 292.044901 
L 234.336098 292.535761 
L 237.983902 293.057068 
L 241.631706 293.544487 
L 245.27951 293.775302 
L 248.927314 294.013099 
L 252.575117 294.321549 
L 256.222921 294.477412 
L 259.870725 294.649444 
L 263.518529 294.74444 
L 267.166333 294.837078 
L 270.814137 294.913711 
L 274.461941 294.988122 
L 278.109745 295.048868 
L 281.757549 295.095333 
L 285.405352 295.144865 
L 289.053156 295.188269 
L 292.70096 295.177376 
L 296.348764 295.241575 
L 299.996568 295.262486 
L 303.644372 295.263752 
L 307.292176 295.304922 
L 310.93998 295.313218 
L 314.587783 295.327692 
L 318.235587 295.328075 
L 321.883391 295.338533 
L 325.531195 295.360507 
L 329.178999 295.371142 
L 332.826803 295.381185 
L 336.474607 295.377225 
L 340.122411 295.373288 
L 343.770215 295.394452 
L 347.418018 295.392563 
L 351.065822 295.396547 
L 354.713626 295.400705 
L 358.36143 295.419348 
L 362.009234 295.413811 
L 365.657038 295.422611 
L 369.304842 295.410972 
L 372.952646 295.427129 
L 376.600449 295.422804 
L 380.248253 295.421779 
L 383.896057 295.430509 
L 387.543861 295.427683 
L 391.191665 295.441218 
L 394.839469 295.437675 
L 398.487273 295.438708 
" clip-path="url(#p701cb22bda)" style="fill: none; stroke: #ff00ff; stroke-opacity: 0.3; stroke-width: 0.5; stroke-linecap: square"/>
   </g>
   <g id="line2d_58">
    <path d="M 73.832727 247.742099 
L 77.480531 247.68753 
L 81.128335 247.822025 
L 84.776139 247.873354 
L 88.423943 247.976768 
L 92.071747 248.111267 
L 95.719551 248.165962 
L 99.367354 248.373257 
L 103.015158 248.489837 
L 106.662962 248.70997 
L 110.310766 248.813969 
L 113.95857 248.928818 
L 117.606374 249.041378 
L 121.254178 249.286896 
L 124.901982 249.373676 
L 128.549785 249.589194 
L 132.197589 249.541748 
L 135.845393 249.772047 
L 139.493197 249.818327 
L 143.141001 249.825111 
L 146.788805 250.069638 
L 150.436609 250.054943 
L 154.084413 250.101382 
L 157.732217 250.3979 
L 161.38002 250.465216 
L 165.027824 250.59024 
L 168.675628 250.500309 
L 172.323432 250.636357 
L 175.971236 250.317461 
L 179.61904 250.250685 
L 183.266844 250.345428 
L 186.914648 250.22612 
L 190.562451 250.665243 
L 194.210255 250.374396 
L 197.858059 250.697922 
L 201.505863 250.745116 
L 205.153667 251.03259 
L 208.801471 251.468692 
L 212.449275 251.6565 
L 216.097079 251.457046 
L 219.744883 251.578646 
L 223.392686 252.029558 
L 227.04049 251.913481 
L 230.688294 252.518964 
L 234.336098 252.650581 
L 237.983902 252.744967 
L 241.631706 253.116447 
L 245.27951 253.275983 
L 248.927314 253.646167 
L 252.575117 253.687931 
L 256.222921 254.08022 
L 259.870725 254.049497 
L 263.518529 254.537579 
L 267.166333 254.502071 
L 270.814137 255.303256 
L 274.461941 255.739086 
L 278.109745 256.076827 
L 281.757549 256.440007 
L 285.405352 256.414088 
L 289.053156 256.835658 
L 292.70096 257.317951 
L 296.348764 258.001011 
L 299.996568 258.227444 
L 303.644372 259.124368 
L 307.292176 258.609608 
L 310.93998 259.730241 
L 314.587783 260.53093 
L 318.235587 260.690027 
L 321.883391 261.201506 
L 325.531195 262.570799 
L 329.178999 262.856272 
L 332.826803 263.404235 
L 336.474607 263.883235 
L 340.122411 265.22394 
L 343.770215 264.580529 
L 347.418018 265.56468 
L 351.065822 266.682455 
L 354.713626 267.647155 
L 358.36143 269.041734 
L 362.009234 269.742832 
L 365.657038 269.980035 
L 369.304842 271.215879 
L 372.952646 270.726999 
L 376.600449 272.437585 
L 380.248253 272.88482 
L 383.896057 274.022494 
L 387.543861 274.232935 
L 391.191665 275.600079 
L 394.839469 276.932788 
L 398.487273 276.737546 
" clip-path="url(#p701cb22bda)" style="fill: none; stroke: #ff00ff; stroke-opacity: 0.3; stroke-width: 0.5; stroke-linecap: square"/>
   </g>
   <g id="line2d_59">
    <path d="M 73.832727 250.46607 
L 77.480531 250.133812 
L 81.128335 249.748823 
L 84.776139 249.299644 
L 88.423943 248.724722 
L 92.071747 248.102816 
L 95.719551 247.541857 
L 99.367354 246.853582 
L 103.015158 246.214977 
L 106.662962 245.464121 
L 110.310766 244.68731 
L 113.95857 243.995409 
L 117.606374 243.057306 
L 121.254178 242.121029 
L 124.901982 241.237227 
L 128.549785 240.153427 
L 132.197589 239.042004 
L 135.845393 237.773762 
L 139.493197 236.520882 
L 143.141001 235.166986 
L 146.788805 233.950398 
L 150.436609 232.601071 
L 154.084413 231.23424 
L 157.732217 229.786247 
L 161.38002 228.204345 
L 165.027824 226.911737 
L 168.675628 225.328603 
L 172.323432 223.856826 
L 175.971236 222.638112 
L 179.61904 220.910199 
L 183.266844 219.415926 
L 186.914648 218.354568 
L 190.562451 214.080293 
L 194.210255 211.445094 
L 197.858059 207.441743 
L 201.505863 204.038582 
L 205.153667 200.815437 
L 208.801471 197.633787 
L 212.449275 194.568477 
L 216.097079 191.938051 
L 219.744883 189.348079 
L 223.392686 186.979854 
L 227.04049 184.71705 
L 230.688294 181.790479 
L 234.336098 178.893608 
L 237.983902 176.131158 
L 241.631706 173.195335 
L 245.27951 170.733387 
L 248.927314 167.552826 
L 252.575117 164.673711 
L 256.222921 162.264331 
L 259.870725 158.857325 
L 263.518529 155.779073 
L 267.166333 152.830331 
L 270.814137 150.267994 
L 274.461941 146.589047 
L 278.109745 144.103798 
L 281.757549 140.524053 
L 285.405352 138.676881 
L 289.053156 134.965089 
L 292.70096 131.41962 
L 296.348764 128.547789 
L 299.996568 125.527081 
L 303.644372 122.362195 
L 307.292176 120.678192 
L 310.93998 117.063797 
L 314.587783 113.587304 
L 318.235587 110.886317 
L 321.883391 108.81713 
L 325.531195 103.872079 
L 329.178999 102.228108 
L 332.826803 98.217131 
L 336.474607 95.477543 
L 340.122411 92.719808 
L 343.770215 91.066244 
L 347.418018 88.332997 
L 351.065822 86.685091 
L 354.713626 82.858438 
L 358.36143 79.195637 
L 362.009234 76.591268 
L 365.657038 74.588828 
L 369.304842 70.980108 
L 372.952646 70.090343 
L 376.600449 66.705393 
L 380.248253 63.819822 
L 383.896057 62.770839 
L 387.543861 61.306574 
L 391.191665 56.029704 
L 394.839469 56.07533 
L 398.487273 53.568 
" clip-path="url(#p701cb22bda)" style="fill: none; stroke: #6495ed; stroke-width: 2; stroke-linecap: square"/>
   </g>
   <g id="line2d_60">
    <path d="M 73.832727 247.777055 
L 77.480531 247.920526 
L 81.128335 248.126633 
L 84.776139 248.40832 
L 88.423943 248.79356 
L 92.071747 249.206983 
L 95.719551 249.615428 
L 99.367354 250.08861 
L 103.015158 250.542439 
L 106.662962 251.037718 
L 110.310766 251.544817 
L 113.95857 252.010123 
L 117.606374 252.57348 
L 121.254178 253.142436 
L 124.901982 253.690024 
L 128.549785 254.332278 
L 132.197589 254.995411 
L 135.845393 255.715102 
L 139.493197 256.441305 
L 143.141001 257.212083 
L 146.788805 257.95398 
L 150.436609 258.732345 
L 154.084413 259.549454 
L 157.732217 260.38527 
L 161.38002 261.268942 
L 165.027824 262.060188 
L 168.675628 262.92999 
L 172.323432 263.725809 
L 175.971236 264.447536 
L 179.61904 265.283434 
L 183.266844 265.98658 
L 186.914648 266.56111 
L 190.562451 267.93675 
L 194.210255 268.839693 
L 197.858059 270.044652 
L 201.505863 271.122544 
L 205.153667 272.178262 
L 208.801471 273.22918 
L 212.449275 274.271631 
L 216.097079 275.216467 
L 219.744883 276.141551 
L 223.392686 276.99347 
L 227.04049 277.784727 
L 230.688294 278.609658 
L 234.336098 279.357011 
L 237.983902 280.055047 
L 241.631706 280.702009 
L 245.27951 281.266341 
L 248.927314 281.873166 
L 252.575117 282.405718 
L 256.222921 282.873483 
L 259.870725 283.408038 
L 263.518529 283.874904 
L 267.166333 284.314022 
L 270.814137 284.703488 
L 274.461941 285.162088 
L 278.109745 285.50434 
L 281.757549 285.92831 
L 285.405352 286.209885 
L 289.053156 286.585944 
L 292.70096 286.963762 
L 296.348764 287.274322 
L 299.996568 287.585137 
L 303.644372 287.885984 
L 307.292176 288.082367 
L 310.93998 288.411151 
L 314.587783 288.705523 
L 318.235587 288.946976 
L 321.883391 289.140434 
L 325.531195 289.468394 
L 329.178999 289.641005 
L 332.826803 289.895258 
L 336.474607 290.105917 
L 340.122411 290.3127 
L 343.770215 290.45231 
L 347.418018 290.636981 
L 351.065822 290.77265 
L 354.713626 290.969108 
L 358.36143 291.156186 
L 362.009234 291.310195 
L 365.657038 291.434782 
L 369.304842 291.605269 
L 372.952646 291.685867 
L 376.600449 291.82143 
L 380.248253 291.970539 
L 383.896057 292.053044 
L 387.543861 292.139 
L 391.191665 292.308739 
L 394.839469 292.354603 
L 398.487273 292.456094 
" clip-path="url(#p701cb22bda)" style="fill: none; stroke: #dc143c; stroke-width: 2; stroke-linecap: square"/>
   </g>
   <g id="line2d_61">
    <path d="M 73.832727 272.776871 
L 77.480531 270.890203 
L 81.128335 265.579584 
L 84.776139 258.871433 
L 88.423943 251.883776 
L 92.071747 246.573157 
L 95.719551 244.616613 
L 99.367354 244.406983 
L 103.015158 244.26723 
L 106.662962 244.337106 
L 110.310766 244.0576 
L 113.95857 244.546736 
L 117.606374 244.965995 
L 121.254178 244.546736 
L 124.901982 244.686489 
L 128.549785 244.616613 
L 132.197589 244.616613 
L 135.845393 244.546736 
L 139.493197 244.826242 
L 143.141001 244.965995 
L 146.788805 245.175625 
L 150.436609 245.385255 
L 154.084413 245.315378 
L 157.732217 245.245502 
L 161.38002 245.175625 
L 165.027824 244.826242 
L 168.675628 244.686489 
L 172.323432 244.826242 
L 175.971236 244.686489 
L 179.61904 244.337106 
L 183.266844 244.406983 
L 186.914648 244.0576 
L 190.562451 244.127477 
L 194.210255 244.127477 
L 197.858059 243.987723 
L 201.505863 244.0576 
L 205.153667 244.127477 
L 208.801471 243.917847 
L 212.449275 244.127477 
L 216.097079 244.337106 
L 219.744883 244.756366 
L 223.392686 244.896119 
L 227.04049 244.826242 
L 230.688294 244.756366 
L 234.336098 244.965995 
L 237.983902 245.385255 
L 241.631706 245.315378 
L 245.27951 245.385255 
L 248.927314 245.455131 
L 252.575117 245.594885 
L 256.222921 245.804514 
L 259.870725 245.874391 
L 263.518529 246.014144 
L 267.166333 246.014144 
L 270.814137 245.944267 
L 274.461941 245.944267 
L 278.109745 245.874391 
L 281.757549 245.874391 
L 285.405352 246.014144 
L 289.053156 246.363527 
L 292.70096 246.50328 
L 296.348764 246.852663 
L 299.996568 246.782786 
L 303.644372 246.782786 
L 307.292176 247.132169 
L 310.93998 247.341799 
L 314.587783 247.341799 
L 318.235587 247.551429 
L 321.883391 247.621305 
L 325.531195 247.761058 
L 329.178999 247.900811 
L 332.826803 247.900811 
L 336.474607 248.040565 
L 340.122411 248.110441 
L 343.770215 248.320071 
L 347.418018 248.250194 
L 351.065822 248.459824 
L 354.713626 248.73933 
L 358.36143 248.879083 
L 362.009234 248.94896 
L 365.657038 249.018837 
L 369.304842 249.15859 
L 372.952646 248.94896 
L 376.600449 249.088713 
L 380.248253 249.228466 
L 383.896057 249.088713 
L 387.543861 249.228466 
L 391.191665 249.438096 
L 394.839469 249.438096 
L 398.487273 249.507973 
" clip-path="url(#p701cb22bda)" style="fill: none; stroke: #ffff00; stroke-width: 3; stroke-linecap: square"/>
   </g>
   <g id="patch_3">
    <path d="M 57.6 307.584 
L 57.6 41.472 
" style="fill: none; stroke: #ffffff; stroke-linejoin: miter; stroke-linecap: square"/>
   </g>
   <g id="patch_4">
    <path d="M 414.72 307.584 
L 414.72 41.472 
" style="fill: none; stroke: #ffffff; stroke-linejoin: miter; stroke-linecap: square"/>
   </g>
   <g id="patch_5">
    <path d="M 57.6 307.584 
L 414.72 307.584 
" style="fill: none; stroke: #ffffff; stroke-linejoin: miter; stroke-linecap: square"/>
   </g>
   <g id="patch_6">
    <path d="M 57.6 41.472 
L 414.72 41.472 
" style="fill: none; stroke: #ffffff; stroke-linejoin: miter; stroke-linecap: square"/>
   </g>
  </g>
 </g>
 <defs>
  <clipPath id="p701cb22bda">
   <rect x="57.6" y="41.472" width="357.12" height="266.112"/>
  </clipPath>
 </defs>
</svg>
