<?xml version="1.0" encoding="utf-8" standalone="no"?>
<!DOCTYPE svg PUBLIC "-//W3C//DTD SVG 1.1//EN"
  "http://www.w3.org/Graphics/SVG/1.1/DTD/svg11.dtd">
<svg xmlns:xlink="http://www.w3.org/1999/xlink" width="460.8pt" height="345.6pt" viewBox="0 0 460.8 345.6" xmlns="http://www.w3.org/2000/svg" version="1.1">
 <metadata>
  <rdf:RDF xmlns:dc="http://purl.org/dc/elements/1.1/" xmlns:cc="http://creativecommons.org/ns#" xmlns:rdf="http://www.w3.org/1999/02/22-rdf-syntax-ns#">
   <cc:Work>
    <dc:type rdf:resource="http://purl.org/dc/dcmitype/StillImage"/>
    <dc:date>2023-07-13T11:24:42.036579</dc:date>
    <dc:format>image/svg+xml</dc:format>
    <dc:creator>
     <cc:Agent>
      <dc:title>Matplotlib v3.7.1, https://matplotlib.org/</dc:title>
     </cc:Agent>
    </dc:creator>
   </cc:Work>
  </rdf:RDF>
 </metadata>
 <defs>
  <style type="text/css">*{stroke-linejoin: round; stroke-linecap: butt}</style>
 </defs>
 <g id="figure_1">
  <g id="patch_1">
   <path d="M 0 345.6 
L 460.8 345.6 
L 460.8 0 
L 0 0 
z
" style="fill: #ffffff"/>
  </g>
  <g id="axes_1">
   <g id="patch_2">
    <path d="M 57.6 307.584 
L 414.72 307.584 
L 414.72 41.472 
L 57.6 41.472 
z
" style="fill: #e5e5e5"/>
   </g>
   <g id="matplotlib.axis_1">
    <g id="xtick_1">
     <g id="line2d_1">
      <path d="M 70.184923 307.584 
L 70.184923 41.472 
" clip-path="url(#p8270f0724e)" style="fill: none; stroke: #ffffff; stroke-width: 0.8; stroke-linecap: square"/>
     </g>
     <g id="line2d_2">
      <defs>
       <path id="m91e479f39e" d="M 0 0 
L 0 3.5 
" style="stroke: #555555; stroke-width: 0.8"/>
      </defs>
      <g>
       <use xlink:href="#m91e479f39e" x="70.184923" y="307.584" style="fill: #555555; stroke: #555555; stroke-width: 0.8"/>
      </g>
     </g>
     <g id="text_1">
      <!-- 0 -->
      <g style="fill: #555555" transform="translate(67.003673 322.182437) scale(0.1 -0.1)">
       <defs>
        <path id="DejaVuSans-30" d="M 2034 4250 
Q 1547 4250 1301 3770 
Q 1056 3291 1056 2328 
Q 1056 1369 1301 889 
Q 1547 409 2034 409 
Q 2525 409 2770 889 
Q 3016 1369 3016 2328 
Q 3016 3291 2770 3770 
Q 2525 4250 2034 4250 
z
M 2034 4750 
Q 2819 4750 3233 4129 
Q 3647 3509 3647 2328 
Q 3647 1150 3233 529 
Q 2819 -91 2034 -91 
Q 1250 -91 836 529 
Q 422 1150 422 2328 
Q 422 3509 836 4129 
Q 1250 4750 2034 4750 
z
" transform="scale(0.015625)"/>
       </defs>
       <use xlink:href="#DejaVuSans-30"/>
      </g>
     </g>
    </g>
    <g id="xtick_2">
     <g id="line2d_3">
      <path d="M 143.141001 307.584 
L 143.141001 41.472 
" clip-path="url(#p8270f0724e)" style="fill: none; stroke: #ffffff; stroke-width: 0.8; stroke-linecap: square"/>
     </g>
     <g id="line2d_4">
      <g>
       <use xlink:href="#m91e479f39e" x="143.141001" y="307.584" style="fill: #555555; stroke: #555555; stroke-width: 0.8"/>
      </g>
     </g>
     <g id="text_2">
      <!-- 20 -->
      <g style="fill: #555555" transform="translate(136.778501 322.182437) scale(0.1 -0.1)">
       <defs>
        <path id="DejaVuSans-32" d="M 1228 531 
L 3431 531 
L 3431 0 
L 469 0 
L 469 531 
Q 828 903 1448 1529 
Q 2069 2156 2228 2338 
Q 2531 2678 2651 2914 
Q 2772 3150 2772 3378 
Q 2772 3750 2511 3984 
Q 2250 4219 1831 4219 
Q 1534 4219 1204 4116 
Q 875 4013 500 3803 
L 500 4441 
Q 881 4594 1212 4672 
Q 1544 4750 1819 4750 
Q 2544 4750 2975 4387 
Q 3406 4025 3406 3419 
Q 3406 3131 3298 2873 
Q 3191 2616 2906 2266 
Q 2828 2175 2409 1742 
Q 1991 1309 1228 531 
z
" transform="scale(0.015625)"/>
       </defs>
       <use xlink:href="#DejaVuSans-32"/>
       <use xlink:href="#DejaVuSans-30" x="63.623047"/>
      </g>
     </g>
    </g>
    <g id="xtick_3">
     <g id="line2d_5">
      <path d="M 216.097079 307.584 
L 216.097079 41.472 
" clip-path="url(#p8270f0724e)" style="fill: none; stroke: #ffffff; stroke-width: 0.8; stroke-linecap: square"/>
     </g>
     <g id="line2d_6">
      <g>
       <use xlink:href="#m91e479f39e" x="216.097079" y="307.584" style="fill: #555555; stroke: #555555; stroke-width: 0.8"/>
      </g>
     </g>
     <g id="text_3">
      <!-- 40 -->
      <g style="fill: #555555" transform="translate(209.734579 322.182437) scale(0.1 -0.1)">
       <defs>
        <path id="DejaVuSans-34" d="M 2419 4116 
L 825 1625 
L 2419 1625 
L 2419 4116 
z
M 2253 4666 
L 3047 4666 
L 3047 1625 
L 3713 1625 
L 3713 1100 
L 3047 1100 
L 3047 0 
L 2419 0 
L 2419 1100 
L 313 1100 
L 313 1709 
L 2253 4666 
z
" transform="scale(0.015625)"/>
       </defs>
       <use xlink:href="#DejaVuSans-34"/>
       <use xlink:href="#DejaVuSans-30" x="63.623047"/>
      </g>
     </g>
    </g>
    <g id="xtick_4">
     <g id="line2d_7">
      <path d="M 289.053156 307.584 
L 289.053156 41.472 
" clip-path="url(#p8270f0724e)" style="fill: none; stroke: #ffffff; stroke-width: 0.8; stroke-linecap: square"/>
     </g>
     <g id="line2d_8">
      <g>
       <use xlink:href="#m91e479f39e" x="289.053156" y="307.584" style="fill: #555555; stroke: #555555; stroke-width: 0.8"/>
      </g>
     </g>
     <g id="text_4">
      <!-- 60 -->
      <g style="fill: #555555" transform="translate(282.690656 322.182437) scale(0.1 -0.1)">
       <defs>
        <path id="DejaVuSans-36" d="M 2113 2584 
Q 1688 2584 1439 2293 
Q 1191 2003 1191 1497 
Q 1191 994 1439 701 
Q 1688 409 2113 409 
Q 2538 409 2786 701 
Q 3034 994 3034 1497 
Q 3034 2003 2786 2293 
Q 2538 2584 2113 2584 
z
M 3366 4563 
L 3366 3988 
Q 3128 4100 2886 4159 
Q 2644 4219 2406 4219 
Q 1781 4219 1451 3797 
Q 1122 3375 1075 2522 
Q 1259 2794 1537 2939 
Q 1816 3084 2150 3084 
Q 2853 3084 3261 2657 
Q 3669 2231 3669 1497 
Q 3669 778 3244 343 
Q 2819 -91 2113 -91 
Q 1303 -91 875 529 
Q 447 1150 447 2328 
Q 447 3434 972 4092 
Q 1497 4750 2381 4750 
Q 2619 4750 2861 4703 
Q 3103 4656 3366 4563 
z
" transform="scale(0.015625)"/>
       </defs>
       <use xlink:href="#DejaVuSans-36"/>
       <use xlink:href="#DejaVuSans-30" x="63.623047"/>
      </g>
     </g>
    </g>
    <g id="xtick_5">
     <g id="line2d_9">
      <path d="M 362.009234 307.584 
L 362.009234 41.472 
" clip-path="url(#p8270f0724e)" style="fill: none; stroke: #ffffff; stroke-width: 0.8; stroke-linecap: square"/>
     </g>
     <g id="line2d_10">
      <g>
       <use xlink:href="#m91e479f39e" x="362.009234" y="307.584" style="fill: #555555; stroke: #555555; stroke-width: 0.8"/>
      </g>
     </g>
     <g id="text_5">
      <!-- 80 -->
      <g style="fill: #555555" transform="translate(355.646734 322.182437) scale(0.1 -0.1)">
       <defs>
        <path id="DejaVuSans-38" d="M 2034 2216 
Q 1584 2216 1326 1975 
Q 1069 1734 1069 1313 
Q 1069 891 1326 650 
Q 1584 409 2034 409 
Q 2484 409 2743 651 
Q 3003 894 3003 1313 
Q 3003 1734 2745 1975 
Q 2488 2216 2034 2216 
z
M 1403 2484 
Q 997 2584 770 2862 
Q 544 3141 544 3541 
Q 544 4100 942 4425 
Q 1341 4750 2034 4750 
Q 2731 4750 3128 4425 
Q 3525 4100 3525 3541 
Q 3525 3141 3298 2862 
Q 3072 2584 2669 2484 
Q 3125 2378 3379 2068 
Q 3634 1759 3634 1313 
Q 3634 634 3220 271 
Q 2806 -91 2034 -91 
Q 1263 -91 848 271 
Q 434 634 434 1313 
Q 434 1759 690 2068 
Q 947 2378 1403 2484 
z
M 1172 3481 
Q 1172 3119 1398 2916 
Q 1625 2713 2034 2713 
Q 2441 2713 2670 2916 
Q 2900 3119 2900 3481 
Q 2900 3844 2670 4047 
Q 2441 4250 2034 4250 
Q 1625 4250 1398 4047 
Q 1172 3844 1172 3481 
z
" transform="scale(0.015625)"/>
       </defs>
       <use xlink:href="#DejaVuSans-38"/>
       <use xlink:href="#DejaVuSans-30" x="63.623047"/>
      </g>
     </g>
    </g>
   </g>
   <g id="matplotlib.axis_2">
    <g id="ytick_1">
     <g id="line2d_11">
      <path d="M 57.6 295.5649 
L 414.72 295.5649 
" clip-path="url(#p8270f0724e)" style="fill: none; stroke: #ffffff; stroke-width: 0.8; stroke-linecap: square"/>
     </g>
     <g id="line2d_12">
      <defs>
       <path id="m40e244497b" d="M 0 0 
L -3.5 0 
" style="stroke: #555555; stroke-width: 0.8"/>
      </defs>
      <g>
       <use xlink:href="#m40e244497b" x="57.6" y="295.5649" style="fill: #555555; stroke: #555555; stroke-width: 0.8"/>
      </g>
     </g>
     <g id="text_6">
      <!-- 0.0 -->
      <g style="fill: #555555" transform="translate(34.696875 299.364119) scale(0.1 -0.1)">
       <defs>
        <path id="DejaVuSans-2e" d="M 684 794 
L 1344 794 
L 1344 0 
L 684 0 
L 684 794 
z
" transform="scale(0.015625)"/>
       </defs>
       <use xlink:href="#DejaVuSans-30"/>
       <use xlink:href="#DejaVuSans-2e" x="63.623047"/>
       <use xlink:href="#DejaVuSans-30" x="95.410156"/>
      </g>
     </g>
    </g>
    <g id="ytick_2">
     <g id="line2d_13">
      <path d="M 57.6 256.988363 
L 414.72 256.988363 
" clip-path="url(#p8270f0724e)" style="fill: none; stroke: #ffffff; stroke-width: 0.8; stroke-linecap: square"/>
     </g>
     <g id="line2d_14">
      <g>
       <use xlink:href="#m40e244497b" x="57.6" y="256.988363" style="fill: #555555; stroke: #555555; stroke-width: 0.8"/>
      </g>
     </g>
     <g id="text_7">
      <!-- 0.5 -->
      <g style="fill: #555555" transform="translate(34.696875 260.787581) scale(0.1 -0.1)">
       <defs>
        <path id="DejaVuSans-35" d="M 691 4666 
L 3169 4666 
L 3169 4134 
L 1269 4134 
L 1269 2991 
Q 1406 3038 1543 3061 
Q 1681 3084 1819 3084 
Q 2600 3084 3056 2656 
Q 3513 2228 3513 1497 
Q 3513 744 3044 326 
Q 2575 -91 1722 -91 
Q 1428 -91 1123 -41 
Q 819 9 494 109 
L 494 744 
Q 775 591 1075 516 
Q 1375 441 1709 441 
Q 2250 441 2565 725 
Q 2881 1009 2881 1497 
Q 2881 1984 2565 2268 
Q 2250 2553 1709 2553 
Q 1456 2553 1204 2497 
Q 953 2441 691 2322 
L 691 4666 
z
" transform="scale(0.015625)"/>
       </defs>
       <use xlink:href="#DejaVuSans-30"/>
       <use xlink:href="#DejaVuSans-2e" x="63.623047"/>
       <use xlink:href="#DejaVuSans-35" x="95.410156"/>
      </g>
     </g>
    </g>
    <g id="ytick_3">
     <g id="line2d_15">
      <path d="M 57.6 218.411825 
L 414.72 218.411825 
" clip-path="url(#p8270f0724e)" style="fill: none; stroke: #ffffff; stroke-width: 0.8; stroke-linecap: square"/>
     </g>
     <g id="line2d_16">
      <g>
       <use xlink:href="#m40e244497b" x="57.6" y="218.411825" style="fill: #555555; stroke: #555555; stroke-width: 0.8"/>
      </g>
     </g>
     <g id="text_8">
      <!-- 1.0 -->
      <g style="fill: #555555" transform="translate(34.696875 222.211044) scale(0.1 -0.1)">
       <defs>
        <path id="DejaVuSans-31" d="M 794 531 
L 1825 531 
L 1825 4091 
L 703 3866 
L 703 4441 
L 1819 4666 
L 2450 4666 
L 2450 531 
L 3481 531 
L 3481 0 
L 794 0 
L 794 531 
z
" transform="scale(0.015625)"/>
       </defs>
       <use xlink:href="#DejaVuSans-31"/>
       <use xlink:href="#DejaVuSans-2e" x="63.623047"/>
       <use xlink:href="#DejaVuSans-30" x="95.410156"/>
      </g>
     </g>
    </g>
    <g id="ytick_4">
     <g id="line2d_17">
      <path d="M 57.6 179.835288 
L 414.72 179.835288 
" clip-path="url(#p8270f0724e)" style="fill: none; stroke: #ffffff; stroke-width: 0.8; stroke-linecap: square"/>
     </g>
     <g id="line2d_18">
      <g>
       <use xlink:href="#m40e244497b" x="57.6" y="179.835288" style="fill: #555555; stroke: #555555; stroke-width: 0.8"/>
      </g>
     </g>
     <g id="text_9">
      <!-- 1.5 -->
      <g style="fill: #555555" transform="translate(34.696875 183.634507) scale(0.1 -0.1)">
       <use xlink:href="#DejaVuSans-31"/>
       <use xlink:href="#DejaVuSans-2e" x="63.623047"/>
       <use xlink:href="#DejaVuSans-35" x="95.410156"/>
      </g>
     </g>
    </g>
    <g id="ytick_5">
     <g id="line2d_19">
      <path d="M 57.6 141.258751 
L 414.72 141.258751 
" clip-path="url(#p8270f0724e)" style="fill: none; stroke: #ffffff; stroke-width: 0.8; stroke-linecap: square"/>
     </g>
     <g id="line2d_20">
      <g>
       <use xlink:href="#m40e244497b" x="57.6" y="141.258751" style="fill: #555555; stroke: #555555; stroke-width: 0.8"/>
      </g>
     </g>
     <g id="text_10">
      <!-- 2.0 -->
      <g style="fill: #555555" transform="translate(34.696875 145.05797) scale(0.1 -0.1)">
       <use xlink:href="#DejaVuSans-32"/>
       <use xlink:href="#DejaVuSans-2e" x="63.623047"/>
       <use xlink:href="#DejaVuSans-30" x="95.410156"/>
      </g>
     </g>
    </g>
    <g id="ytick_6">
     <g id="line2d_21">
      <path d="M 57.6 102.682214 
L 414.72 102.682214 
" clip-path="url(#p8270f0724e)" style="fill: none; stroke: #ffffff; stroke-width: 0.8; stroke-linecap: square"/>
     </g>
     <g id="line2d_22">
      <g>
       <use xlink:href="#m40e244497b" x="57.6" y="102.682214" style="fill: #555555; stroke: #555555; stroke-width: 0.8"/>
      </g>
     </g>
     <g id="text_11">
      <!-- 2.5 -->
      <g style="fill: #555555" transform="translate(34.696875 106.481433) scale(0.1 -0.1)">
       <use xlink:href="#DejaVuSans-32"/>
       <use xlink:href="#DejaVuSans-2e" x="63.623047"/>
       <use xlink:href="#DejaVuSans-35" x="95.410156"/>
      </g>
     </g>
    </g>
    <g id="ytick_7">
     <g id="line2d_23">
      <path d="M 57.6 64.105677 
L 414.72 64.105677 
" clip-path="url(#p8270f0724e)" style="fill: none; stroke: #ffffff; stroke-width: 0.8; stroke-linecap: square"/>
     </g>
     <g id="line2d_24">
      <g>
       <use xlink:href="#m40e244497b" x="57.6" y="64.105677" style="fill: #555555; stroke: #555555; stroke-width: 0.8"/>
      </g>
     </g>
     <g id="text_12">
      <!-- 3.0 -->
      <g style="fill: #555555" transform="translate(34.696875 67.904895) scale(0.1 -0.1)">
       <defs>
        <path id="DejaVuSans-33" d="M 2597 2516 
Q 3050 2419 3304 2112 
Q 3559 1806 3559 1356 
Q 3559 666 3084 287 
Q 2609 -91 1734 -91 
Q 1441 -91 1130 -33 
Q 819 25 488 141 
L 488 750 
Q 750 597 1062 519 
Q 1375 441 1716 441 
Q 2309 441 2620 675 
Q 2931 909 2931 1356 
Q 2931 1769 2642 2001 
Q 2353 2234 1838 2234 
L 1294 2234 
L 1294 2753 
L 1863 2753 
Q 2328 2753 2575 2939 
Q 2822 3125 2822 3475 
Q 2822 3834 2567 4026 
Q 2313 4219 1838 4219 
Q 1578 4219 1281 4162 
Q 984 4106 628 3988 
L 628 4550 
Q 988 4650 1302 4700 
Q 1616 4750 1894 4750 
Q 2613 4750 3031 4423 
Q 3450 4097 3450 3541 
Q 3450 3153 3228 2886 
Q 3006 2619 2597 2516 
z
" transform="scale(0.015625)"/>
       </defs>
       <use xlink:href="#DejaVuSans-33"/>
       <use xlink:href="#DejaVuSans-2e" x="63.623047"/>
       <use xlink:href="#DejaVuSans-30" x="95.410156"/>
      </g>
     </g>
    </g>
   </g>
   <g id="line2d_25">
    <path d="M 73.832727 242.166375 
L 77.480531 242.223675 
L 81.128335 242.200516 
L 84.776139 242.389779 
L 88.423943 242.441243 
L 92.071747 242.740557 
L 95.719551 242.893974 
L 99.367354 242.937174 
L 103.015158 243.262779 
L 106.662962 243.348457 
L 110.310766 243.752148 
L 113.95857 244.035776 
L 117.606374 244.380686 
L 121.254178 244.446194 
L 124.901982 244.685859 
L 128.549785 245.112079 
L 132.197589 245.30778 
L 135.845393 245.377818 
L 139.493197 245.810416 
L 143.141001 246.001464 
L 146.788805 246.341766 
L 150.436609 246.609971 
L 154.084413 246.927252 
L 157.732217 247.470103 
L 161.38002 247.781981 
L 165.027824 247.866119 
L 168.675628 248.545045 
L 172.323432 248.73974 
L 175.971236 249.315766 
L 179.61904 249.776356 
L 183.266844 249.964479 
L 186.914648 250.360793 
L 190.562451 251.042773 
L 194.210255 251.814133 
L 197.858059 252.723021 
L 201.505863 253.579176 
L 205.153667 254.404524 
L 208.801471 254.993629 
L 212.449275 256.313134 
L 216.097079 257.103562 
L 219.744883 258.499798 
L 223.392686 259.809233 
L 227.04049 260.948671 
L 230.688294 262.028559 
L 234.336098 263.460825 
L 237.983902 264.753276 
L 241.631706 266.249192 
L 245.27951 267.512287 
L 248.927314 269.290248 
L 252.575117 270.996906 
L 256.222921 272.477502 
L 259.870725 273.791945 
L 263.518529 275.202701 
L 267.166333 276.882103 
L 270.814137 278.433474 
L 274.461941 279.665884 
L 278.109745 280.996849 
L 281.757549 282.31563 
L 285.405352 283.462147 
L 289.053156 284.82859 
L 292.70096 285.735879 
L 296.348764 286.867768 
L 299.996568 287.746378 
L 303.644372 288.649877 
L 307.292176 289.379838 
L 310.93998 290.161416 
L 314.587783 290.678305 
L 318.235587 291.2361 
L 321.883391 291.803676 
L 325.531195 291.85352 
L 329.178999 292.304953 
L 332.826803 292.808809 
L 336.474607 292.820841 
L 340.122411 293.259076 
L 343.770215 293.619622 
L 347.418018 293.581479 
L 351.065822 293.801267 
L 354.713626 293.992852 
L 358.36143 294.099895 
L 362.009234 294.089895 
L 365.657038 294.221282 
L 369.304842 294.358696 
L 372.952646 294.501558 
L 376.600449 294.566028 
L 380.248253 294.468262 
L 383.896057 294.605242 
L 387.543861 294.693918 
L 391.191665 294.727763 
L 394.839469 294.703009 
L 398.487273 294.761996 
" clip-path="url(#p8270f0724e)" style="fill: none; stroke: #ff00ff; stroke-opacity: 0.3; stroke-width: 0.5; stroke-linecap: square"/>
   </g>
   <g id="line2d_26">
    <path d="M 73.832727 244.548492 
L 77.480531 244.45496 
L 81.128335 245.020133 
L 84.776139 245.268797 
L 88.423943 245.787101 
L 92.071747 246.49075 
L 95.719551 246.730691 
L 99.367354 247.891186 
L 103.015158 248.609211 
L 106.662962 249.577555 
L 110.310766 250.315634 
L 113.95857 251.432019 
L 117.606374 252.472908 
L 121.254178 253.846796 
L 124.901982 255.006055 
L 128.549785 256.211572 
L 132.197589 257.740686 
L 135.845393 259.206088 
L 139.493197 260.68381 
L 143.141001 262.375702 
L 146.788805 263.915 
L 150.436609 265.764641 
L 154.084413 267.095881 
L 157.732217 268.548733 
L 161.38002 270.283903 
L 165.027824 272.071861 
L 168.675628 273.96392 
L 172.323432 274.678944 
L 175.971236 276.126128 
L 179.61904 276.916247 
L 183.266844 278.082721 
L 186.914648 279.003601 
L 190.562451 280.824392 
L 194.210255 282.094106 
L 197.858059 284.134595 
L 201.505863 285.276166 
L 205.153667 286.64778 
L 208.801471 287.790361 
L 212.449275 288.951169 
L 216.097079 289.68052 
L 219.744883 290.474899 
L 223.392686 291.320272 
L 227.04049 291.845399 
L 230.688294 292.313399 
L 234.336098 292.571576 
L 237.983902 293.043086 
L 241.631706 293.134488 
L 245.27951 293.605261 
L 248.927314 293.926588 
L 252.575117 294.047436 
L 256.222921 294.182344 
L 259.870725 294.156203 
L 263.518529 294.442427 
L 267.166333 294.529434 
L 270.814137 294.66605 
L 274.461941 294.665341 
L 278.109745 294.788379 
L 281.757549 294.753484 
L 285.405352 294.880543 
L 289.053156 294.890249 
L 292.70096 294.934477 
L 296.348764 294.912912 
L 299.996568 294.942751 
L 303.644372 295.030614 
L 307.292176 295.004087 
L 310.93998 295.029589 
L 314.587783 295.094517 
L 318.235587 295.150712 
L 321.883391 295.127246 
L 325.531195 295.096446 
L 329.178999 295.20373 
L 332.826803 295.158372 
L 336.474607 295.181348 
L 340.122411 295.184843 
L 343.770215 295.23279 
L 347.418018 295.213038 
L 351.065822 295.26301 
L 354.713626 295.254361 
L 358.36143 295.254486 
L 362.009234 295.246386 
L 365.657038 295.274456 
L 369.304842 295.284399 
L 372.952646 295.173833 
L 376.600449 295.324074 
L 380.248253 295.273347 
L 383.896057 295.290506 
L 387.543861 295.258437 
L 391.191665 295.322407 
L 394.839469 295.261673 
L 398.487273 295.297212 
" clip-path="url(#p8270f0724e)" style="fill: none; stroke: #ff00ff; stroke-opacity: 0.3; stroke-width: 0.5; stroke-linecap: square"/>
   </g>
   <g id="line2d_27">
    <path d="M 73.832727 241.078299 
L 77.480531 241.135746 
L 81.128335 241.195363 
L 84.776139 241.392808 
L 88.423943 241.421867 
L 92.071747 241.61807 
L 95.719551 241.834042 
L 99.367354 241.928734 
L 103.015158 242.193981 
L 106.662962 242.384877 
L 110.310766 242.540947 
L 113.95857 242.776974 
L 117.606374 242.908975 
L 121.254178 243.16863 
L 124.901982 243.355865 
L 128.549785 243.519339 
L 132.197589 243.661715 
L 135.845393 243.887979 
L 139.493197 244.077964 
L 143.141001 244.32026 
L 146.788805 244.394726 
L 150.436609 244.654496 
L 154.084413 244.666425 
L 157.732217 245.050107 
L 161.38002 245.111306 
L 165.027824 245.241371 
L 168.675628 245.405001 
L 172.323432 245.552127 
L 175.971236 245.771695 
L 179.61904 245.928005 
L 183.266844 245.990193 
L 186.914648 246.190746 
L 190.562451 246.656863 
L 194.210255 247.142806 
L 197.858059 247.482653 
L 201.505863 247.840555 
L 205.153667 248.107987 
L 208.801471 248.75567 
L 212.449275 249.251109 
L 216.097079 249.856042 
L 219.744883 250.271133 
L 223.392686 250.824952 
L 227.04049 251.557609 
L 230.688294 252.289154 
L 234.336098 252.869862 
L 237.983902 253.572779 
L 241.631706 254.323979 
L 245.27951 255.445229 
L 248.927314 256.364896 
L 252.575117 257.203501 
L 256.222921 257.985329 
L 259.870725 259.195173 
L 263.518529 260.648311 
L 267.166333 261.336655 
L 270.814137 262.583579 
L 274.461941 264.009076 
L 278.109745 264.717001 
L 281.757549 265.957965 
L 285.405352 267.310202 
L 289.053156 268.355818 
L 292.70096 269.658671 
L 296.348764 270.728005 
L 299.996568 271.996057 
L 303.644372 272.831412 
L 307.292176 274.30453 
L 310.93998 275.16318 
L 314.587783 276.558952 
L 318.235587 277.389272 
L 321.883391 278.327767 
L 325.531195 279.397792 
L 329.178999 280.483605 
L 332.826803 281.168266 
L 336.474607 282.318872 
L 340.122411 283.201889 
L 343.770215 284.181908 
L 347.418018 284.99027 
L 351.065822 285.771533 
L 354.713626 286.570847 
L 358.36143 287.267333 
L 362.009234 288.041336 
L 365.657038 288.692037 
L 369.304842 289.234484 
L 372.952646 289.835773 
L 376.600449 290.432802 
L 380.248253 290.842224 
L 383.896057 291.246938 
L 387.543861 291.701251 
L 391.191665 292.083312 
L 394.839469 292.500846 
L 398.487273 292.697436 
" clip-path="url(#p8270f0724e)" style="fill: none; stroke: #ff00ff; stroke-opacity: 0.3; stroke-width: 0.5; stroke-linecap: square"/>
   </g>
   <g id="line2d_28">
    <path d="M 73.832727 246.818125 
L 77.480531 246.918344 
L 81.128335 247.506953 
L 84.776139 248.360785 
L 88.423943 248.182499 
L 92.071747 249.276079 
L 95.719551 250.067508 
L 99.367354 251.018736 
L 103.015158 252.046785 
L 106.662962 253.00344 
L 110.310766 254.164349 
L 113.95857 255.05481 
L 117.606374 256.518198 
L 121.254178 257.22852 
L 124.901982 258.620934 
L 128.549785 259.847285 
L 132.197589 260.929929 
L 135.845393 262.221432 
L 139.493197 263.742327 
L 143.141001 264.597171 
L 146.788805 266.146292 
L 150.436609 267.260472 
L 154.084413 268.475573 
L 157.732217 269.723933 
L 161.38002 270.987642 
L 165.027824 272.08055 
L 168.675628 272.715677 
L 172.323432 272.437608 
L 175.971236 273.098616 
L 179.61904 273.051362 
L 183.266844 273.082684 
L 186.914648 273.661405 
L 190.562451 276.207771 
L 194.210255 278.461173 
L 197.858059 279.122312 
L 201.505863 280.632589 
L 205.153667 281.810891 
L 208.801471 283.677751 
L 212.449275 285.274937 
L 216.097079 286.892419 
L 219.744883 287.519804 
L 223.392686 288.738044 
L 227.04049 289.078844 
L 230.688294 289.791627 
L 234.336098 290.404073 
L 237.983902 290.94797 
L 241.631706 291.066408 
L 245.27951 291.863704 
L 248.927314 292.067386 
L 252.575117 292.365461 
L 256.222921 292.837481 
L 259.870725 293.001993 
L 263.518529 293.319879 
L 267.166333 293.188884 
L 270.814137 293.430027 
L 274.461941 293.780954 
L 278.109745 293.733862 
L 281.757549 294.021004 
L 285.405352 294.113061 
L 289.053156 294.269414 
L 292.70096 294.308028 
L 296.348764 294.286086 
L 299.996568 294.186447 
L 303.644372 294.462976 
L 307.292176 294.616953 
L 310.93998 294.628986 
L 314.587783 294.693967 
L 318.235587 294.685425 
L 321.883391 294.758653 
L 325.531195 294.644954 
L 329.178999 294.678424 
L 332.826803 294.731908 
L 336.474607 294.765517 
L 340.122411 294.76179 
L 343.770215 294.812335 
L 347.418018 294.864877 
L 351.065822 294.894832 
L 354.713626 294.942026 
L 358.36143 294.842487 
L 362.009234 294.783977 
L 365.657038 295.017152 
L 369.304842 294.980105 
L 372.952646 294.998967 
L 376.600449 294.773069 
L 380.248253 294.96681 
L 383.896057 294.90086 
L 387.543861 294.91919 
L 391.191665 294.905863 
L 394.839469 295.075222 
L 398.487273 295.092952 
" clip-path="url(#p8270f0724e)" style="fill: none; stroke: #ff00ff; stroke-opacity: 0.3; stroke-width: 0.5; stroke-linecap: square"/>
   </g>
   <g id="line2d_29">
    <path d="M 73.832727 240.145912 
L 77.480531 240.220558 
L 81.128335 241.067653 
L 84.776139 241.619656 
L 88.423943 242.255829 
L 92.071747 242.816564 
L 95.719551 243.629211 
L 99.367354 244.350096 
L 103.015158 244.634414 
L 106.662962 245.027224 
L 110.310766 245.30395 
L 113.95857 245.455026 
L 117.606374 245.804617 
L 121.254178 246.180937 
L 124.901982 246.448014 
L 128.549785 246.562098 
L 132.197589 247.159131 
L 135.845393 247.48309 
L 139.493197 247.916888 
L 143.141001 248.352816 
L 146.788805 248.538924 
L 150.436609 249.097623 
L 154.084413 249.596704 
L 157.732217 250.368032 
L 161.38002 251.036767 
L 165.027824 251.387054 
L 168.675628 252.301212 
L 172.323432 252.491271 
L 175.971236 253.519508 
L 179.61904 254.666847 
L 183.266844 255.266442 
L 186.914648 256.120293 
L 190.562451 257.462041 
L 194.210255 259.062481 
L 197.858059 260.47965 
L 201.505863 262.092699 
L 205.153667 263.603033 
L 208.801471 265.789087 
L 212.449275 268.173138 
L 216.097079 269.97939 
L 219.744883 271.716091 
L 223.392686 273.821202 
L 227.04049 275.191954 
L 230.688294 276.800503 
L 234.336098 277.8777 
L 237.983902 280.079356 
L 241.631706 282.477387 
L 245.27951 283.456151 
L 248.927314 285.094237 
L 252.575117 286.109556 
L 256.222921 287.227377 
L 259.870725 288.069283 
L 263.518529 289.35701 
L 267.166333 289.96295 
L 270.814137 290.812498 
L 274.461941 291.270538 
L 278.109745 291.772197 
L 281.757549 291.989671 
L 285.405352 292.760301 
L 289.053156 292.805026 
L 292.70096 293.424612 
L 296.348764 293.504876 
L 299.996568 293.795968 
L 303.644372 293.832722 
L 307.292176 294.034483 
L 310.93998 294.036227 
L 314.587783 294.22214 
L 318.235587 294.47409 
L 321.883391 294.539911 
L 325.531195 294.648866 
L 329.178999 294.737158 
L 332.826803 294.721239 
L 336.474607 294.81502 
L 340.122411 294.588153 
L 343.770215 294.822419 
L 347.418018 294.911573 
L 351.065822 294.920353 
L 354.713626 294.972286 
L 358.36143 294.875766 
L 362.009234 294.95553 
L 365.657038 295.08041 
L 369.304842 295.018635 
L 372.952646 295.048273 
L 376.600449 295.10969 
L 380.248253 295.041244 
L 383.896057 295.08902 
L 387.543861 295.170141 
L 391.191665 295.137549 
L 394.839469 295.212473 
L 398.487273 295.069653 
" clip-path="url(#p8270f0724e)" style="fill: none; stroke: #ff00ff; stroke-opacity: 0.3; stroke-width: 0.5; stroke-linecap: square"/>
   </g>
   <g id="line2d_30">
    <path d="M 73.832727 239.463279 
L 77.480531 239.611941 
L 81.128335 240.12686 
L 84.776139 240.440821 
L 88.423943 240.845275 
L 92.071747 241.558153 
L 95.719551 242.035285 
L 99.367354 242.677477 
L 103.015158 243.26941 
L 106.662962 243.766978 
L 110.310766 244.359201 
L 113.95857 244.926706 
L 117.606374 245.496759 
L 121.254178 246.100593 
L 124.901982 246.901867 
L 128.549785 247.429686 
L 132.197589 248.259504 
L 135.845393 248.991403 
L 139.493197 249.91731 
L 143.141001 250.894029 
L 146.788805 251.781901 
L 150.436609 252.763306 
L 154.084413 253.868645 
L 157.732217 255.270047 
L 161.38002 256.235959 
L 165.027824 257.784907 
L 168.675628 259.41566 
L 172.323432 260.847434 
L 175.971236 262.456671 
L 179.61904 264.105204 
L 183.266844 265.793711 
L 186.914648 267.01468 
L 190.562451 269.695578 
L 194.210255 272.167031 
L 197.858059 274.477241 
L 201.505863 276.785978 
L 205.153667 279.259674 
L 208.801471 281.437406 
L 212.449275 283.393353 
L 216.097079 285.278073 
L 219.744883 287.099165 
L 223.392686 288.534302 
L 227.04049 289.723402 
L 230.688294 290.779412 
L 234.336098 291.469171 
L 237.983902 292.143068 
L 241.631706 292.936132 
L 245.27951 293.269154 
L 248.927314 293.62257 
L 252.575117 294.009267 
L 256.222921 294.2324 
L 259.870725 294.458694 
L 263.518529 294.616488 
L 267.166333 294.754732 
L 270.814137 294.855168 
L 274.461941 294.967997 
L 278.109745 295.003854 
L 281.757549 295.036747 
L 285.405352 295.130872 
L 289.053156 295.173692 
L 292.70096 295.209215 
L 296.348764 295.201233 
L 299.996568 295.20893 
L 303.644372 295.252158 
L 307.292176 295.297268 
L 310.93998 295.30029 
L 314.587783 295.336699 
L 318.235587 295.351403 
L 321.883391 295.35099 
L 325.531195 295.34884 
L 329.178999 295.365831 
L 332.826803 295.368206 
L 336.474607 295.395337 
L 340.122411 295.398043 
L 343.770215 295.402945 
L 347.418018 295.399976 
L 351.065822 295.419682 
L 354.713626 295.412411 
L 358.36143 295.424782 
L 362.009234 295.430359 
L 365.657038 295.434999 
L 369.304842 295.424287 
L 372.952646 295.406799 
L 376.600449 295.442408 
L 380.248253 295.43612 
L 383.896057 295.440547 
L 387.543861 295.439395 
L 391.191665 295.444746 
L 394.839469 295.448404 
L 398.487273 295.447459 
" clip-path="url(#p8270f0724e)" style="fill: none; stroke: #ff00ff; stroke-opacity: 0.3; stroke-width: 0.5; stroke-linecap: square"/>
   </g>
   <g id="line2d_31">
    <path d="M 73.832727 235.902175 
L 77.480531 236.284574 
L 81.128335 237.232183 
L 84.776139 238.022857 
L 88.423943 239.236334 
L 92.071747 240.425333 
L 95.719551 241.39599 
L 99.367354 242.558321 
L 103.015158 243.335479 
L 106.662962 243.861753 
L 110.310766 244.22829 
L 113.95857 244.384135 
L 117.606374 244.690072 
L 121.254178 244.885732 
L 124.901982 245.354558 
L 128.549785 245.70438 
L 132.197589 246.218517 
L 135.845393 246.86099 
L 139.493197 247.610212 
L 143.141001 248.347445 
L 146.788805 249.140547 
L 150.436609 249.853665 
L 154.084413 250.859732 
L 157.732217 251.670204 
L 161.38002 252.636617 
L 165.027824 253.443115 
L 168.675628 254.235183 
L 172.323432 255.426586 
L 175.971236 256.607114 
L 179.61904 257.48663 
L 183.266844 258.948569 
L 186.914648 260.033207 
L 190.562451 262.670843 
L 194.210255 264.191232 
L 197.858059 266.336937 
L 201.505863 268.545549 
L 205.153667 270.490002 
L 208.801471 272.457095 
L 212.449275 274.648631 
L 216.097079 277.123661 
L 219.744883 279.33874 
L 223.392686 281.399564 
L 227.04049 283.221636 
L 230.688294 284.774064 
L 234.336098 286.275765 
L 237.983902 287.879836 
L 241.631706 289.19614 
L 245.27951 290.043126 
L 248.927314 291.235291 
L 252.575117 291.960836 
L 256.222921 292.576011 
L 259.870725 293.103338 
L 263.518529 293.495565 
L 267.166333 293.837003 
L 270.814137 294.081272 
L 274.461941 294.317372 
L 278.109745 294.475876 
L 281.757549 294.614127 
L 285.405352 294.75301 
L 289.053156 294.889928 
L 292.70096 294.955861 
L 296.348764 295.020724 
L 299.996568 295.079411 
L 303.644372 295.140295 
L 307.292176 295.196153 
L 310.93998 295.233907 
L 314.587783 295.261822 
L 318.235587 295.292043 
L 321.883391 295.316177 
L 325.531195 295.305764 
L 329.178999 295.330065 
L 332.826803 295.340752 
L 336.474607 295.358885 
L 340.122411 295.368779 
L 343.770215 295.387598 
L 347.418018 295.383214 
L 351.065822 295.406739 
L 354.713626 295.405139 
L 358.36143 295.414057 
L 362.009234 295.415113 
L 365.657038 295.426854 
L 369.304842 295.417983 
L 372.952646 295.41227 
L 376.600449 295.432248 
L 380.248253 295.428107 
L 383.896057 295.440992 
L 387.543861 295.4305 
L 391.191665 295.443884 
L 394.839469 295.445553 
L 398.487273 295.452326 
" clip-path="url(#p8270f0724e)" style="fill: none; stroke: #ff00ff; stroke-opacity: 0.3; stroke-width: 0.5; stroke-linecap: square"/>
   </g>
   <g id="line2d_32">
    <path d="M 73.832727 247.652386 
L 77.480531 248.24483 
L 81.128335 249.315035 
L 84.776139 250.503941 
L 88.423943 252.243673 
L 92.071747 254.384962 
L 95.719551 256.249226 
L 99.367354 258.277093 
L 103.015158 260.331096 
L 106.662962 262.383311 
L 110.310766 264.690529 
L 113.95857 267.497732 
L 117.606374 269.740447 
L 121.254178 272.766048 
L 124.901982 275.580253 
L 128.549785 278.089864 
L 132.197589 280.533793 
L 135.845393 282.765334 
L 139.493197 284.960077 
L 143.141001 286.667215 
L 146.788805 288.149437 
L 150.436609 289.607049 
L 154.084413 290.363558 
L 157.732217 291.136512 
L 161.38002 291.821093 
L 165.027824 292.371841 
L 168.675628 292.955249 
L 172.323432 293.179688 
L 175.971236 293.444609 
L 179.61904 293.599379 
L 183.266844 293.761539 
L 186.914648 293.671869 
L 190.562451 294.26406 
L 194.210255 294.334028 
L 197.858059 294.488377 
L 201.505863 294.687852 
L 205.153667 294.763297 
L 208.801471 294.819441 
L 212.449275 294.865902 
L 216.097079 294.925002 
L 219.744883 294.989649 
L 223.392686 295.044548 
L 227.04049 295.108501 
L 230.688294 295.152916 
L 234.336098 295.184928 
L 237.983902 295.236373 
L 241.631706 295.273248 
L 245.27951 295.298457 
L 248.927314 295.320992 
L 252.575117 295.350098 
L 256.222921 295.356901 
L 259.870725 295.380932 
L 263.518529 295.396674 
L 267.166333 295.401356 
L 270.814137 295.4085 
L 274.461941 295.420929 
L 278.109745 295.413848 
L 281.757549 295.39504 
L 285.405352 295.444029 
L 289.053156 295.436209 
L 292.70096 295.447586 
L 296.348764 295.371299 
L 299.996568 295.41207 
L 303.644372 295.443019 
L 307.292176 295.437565 
L 310.93998 295.455394 
L 314.587783 295.456327 
L 318.235587 295.459875 
L 321.883391 295.456387 
L 325.531195 295.447136 
L 329.178999 295.467056 
L 332.826803 295.458192 
L 336.474607 295.47384 
L 340.122411 295.470291 
L 343.770215 295.469743 
L 347.418018 295.475602 
L 351.065822 295.474591 
L 354.713626 295.469655 
L 358.36143 295.443153 
L 362.009234 295.460778 
L 365.657038 295.485046 
L 369.304842 295.478195 
L 372.952646 295.483131 
L 376.600449 295.485525 
L 380.248253 295.483468 
L 383.896057 295.488 
L 387.543861 295.477544 
L 391.191665 295.480098 
L 394.839469 295.485438 
L 398.487273 295.483586 
" clip-path="url(#p8270f0724e)" style="fill: none; stroke: #ff00ff; stroke-opacity: 0.3; stroke-width: 0.5; stroke-linecap: square"/>
   </g>
   <g id="line2d_33">
    <path d="M 73.832727 238.420464 
L 77.480531 238.247204 
L 81.128335 238.830441 
L 84.776139 239.13474 
L 88.423943 239.602385 
L 92.071747 240.276496 
L 95.719551 240.713527 
L 99.367354 241.264923 
L 103.015158 241.730139 
L 106.662962 242.261968 
L 110.310766 242.641175 
L 113.95857 243.062079 
L 117.606374 243.282507 
L 121.254178 243.554795 
L 124.901982 243.954784 
L 128.549785 244.326058 
L 132.197589 244.680888 
L 135.845393 245.047159 
L 139.493197 245.569041 
L 143.141001 246.0093 
L 146.788805 246.558033 
L 150.436609 247.091158 
L 154.084413 247.703519 
L 157.732217 248.378605 
L 161.38002 249.151092 
L 165.027824 249.616524 
L 168.675628 250.269321 
L 172.323432 250.669553 
L 175.971236 251.204803 
L 179.61904 251.451964 
L 183.266844 251.841514 
L 186.914648 251.958964 
L 190.562451 253.313731 
L 194.210255 254.425743 
L 197.858059 255.438005 
L 201.505863 256.722274 
L 205.153667 257.989979 
L 208.801471 259.100172 
L 212.449275 260.024465 
L 216.097079 261.324696 
L 219.744883 262.523177 
L 223.392686 263.511836 
L 227.04049 264.561246 
L 230.688294 266.087546 
L 234.336098 267.148536 
L 237.983902 268.377816 
L 241.631706 269.628547 
L 245.27951 270.643812 
L 248.927314 272.016836 
L 252.575117 273.161744 
L 256.222921 274.219885 
L 259.870725 275.32636 
L 263.518529 276.440435 
L 267.166333 277.681261 
L 270.814137 278.648896 
L 274.461941 279.860352 
L 278.109745 280.657898 
L 281.757549 281.789295 
L 285.405352 282.842505 
L 289.053156 283.929716 
L 292.70096 284.899981 
L 296.348764 285.72593 
L 299.996568 286.693923 
L 303.644372 287.571405 
L 307.292176 288.417133 
L 310.93998 289.170703 
L 314.587783 289.872724 
L 318.235587 290.612144 
L 321.883391 291.140695 
L 325.531195 291.595098 
L 329.178999 292.104462 
L 332.826803 292.505708 
L 336.474607 292.847099 
L 340.122411 293.197009 
L 343.770215 293.444761 
L 347.418018 293.646795 
L 351.065822 293.895807 
L 354.713626 294.056044 
L 358.36143 294.238998 
L 362.009234 294.337357 
L 365.657038 294.504196 
L 369.304842 294.519517 
L 372.952646 294.651056 
L 376.600449 294.756967 
L 380.248253 294.788814 
L 383.896057 294.834873 
L 387.543861 294.928327 
L 391.191665 294.962221 
L 394.839469 294.979275 
L 398.487273 295.010685 
" clip-path="url(#p8270f0724e)" style="fill: none; stroke: #ff00ff; stroke-opacity: 0.3; stroke-width: 0.5; stroke-linecap: square"/>
   </g>
   <g id="line2d_34">
    <path d="M 73.832727 242.165704 
L 77.480531 242.29494 
L 81.128335 242.279029 
L 84.776139 242.918181 
L 88.423943 243.230846 
L 92.071747 243.606875 
L 95.719551 244.24033 
L 99.367354 244.646265 
L 103.015158 245.306723 
L 106.662962 245.771075 
L 110.310766 246.203696 
L 113.95857 246.668613 
L 117.606374 247.343962 
L 121.254178 247.936782 
L 124.901982 248.541316 
L 128.549785 249.139094 
L 132.197589 249.702313 
L 135.845393 250.331495 
L 139.493197 251.666171 
L 143.141001 252.372698 
L 146.788805 253.489359 
L 150.436609 254.528629 
L 154.084413 255.037165 
L 157.732217 256.73469 
L 161.38002 257.340169 
L 165.027824 257.808032 
L 168.675628 259.476479 
L 172.323432 259.628509 
L 175.971236 261.092764 
L 179.61904 262.062378 
L 183.266844 262.747793 
L 186.914648 262.827398 
L 190.562451 265.728284 
L 194.210255 267.409444 
L 197.858059 269.346011 
L 201.505863 271.054546 
L 205.153667 273.12553 
L 208.801471 275.270557 
L 212.449275 277.096889 
L 216.097079 279.137365 
L 219.744883 280.320662 
L 223.392686 282.108209 
L 227.04049 283.491151 
L 230.688294 285.012786 
L 234.336098 286.083354 
L 237.983902 287.119576 
L 241.631706 288.332299 
L 245.27951 289.20785 
L 248.927314 290.016191 
L 252.575117 290.918381 
L 256.222921 291.427294 
L 259.870725 291.975184 
L 263.518529 292.424525 
L 267.166333 292.823946 
L 270.814137 293.137593 
L 274.461941 293.427335 
L 278.109745 293.631154 
L 281.757549 293.933286 
L 285.405352 294.047453 
L 289.053156 294.154052 
L 292.70096 294.350706 
L 296.348764 294.363284 
L 299.996568 294.569917 
L 303.644372 294.649498 
L 307.292176 294.746424 
L 310.93998 294.743347 
L 314.587783 294.819452 
L 318.235587 294.794861 
L 321.883391 294.969043 
L 325.531195 294.932335 
L 329.178999 294.943168 
L 332.826803 295.084133 
L 336.474607 295.05495 
L 340.122411 295.08657 
L 343.770215 295.135118 
L 347.418018 295.102652 
L 351.065822 295.14138 
L 354.713626 295.173895 
L 358.36143 295.207305 
L 362.009234 295.197626 
L 365.657038 295.228154 
L 369.304842 295.230858 
L 372.952646 295.247328 
L 376.600449 295.242616 
L 380.248253 295.203093 
L 383.896057 295.272014 
L 387.543861 295.187525 
L 391.191665 295.257064 
L 394.839469 295.294266 
L 398.487273 295.262568 
" clip-path="url(#p8270f0724e)" style="fill: none; stroke: #ff00ff; stroke-opacity: 0.3; stroke-width: 0.5; stroke-linecap: square"/>
   </g>
   <g id="line2d_35">
    <path d="M 73.832727 240.768601 
L 77.480531 240.95935 
L 81.128335 241.138386 
L 84.776139 241.21087 
L 88.423943 241.678161 
L 92.071747 241.719098 
L 95.719551 242.128303 
L 99.367354 242.467432 
L 103.015158 242.937671 
L 106.662962 243.155979 
L 110.310766 243.542383 
L 113.95857 243.955267 
L 117.606374 244.359417 
L 121.254178 244.616107 
L 124.901982 244.906371 
L 128.549785 245.084478 
L 132.197589 245.608217 
L 135.845393 245.871689 
L 139.493197 246.314749 
L 143.141001 246.738909 
L 146.788805 247.303199 
L 150.436609 247.695158 
L 154.084413 248.122298 
L 157.732217 248.596928 
L 161.38002 248.828329 
L 165.027824 249.646204 
L 168.675628 249.818167 
L 172.323432 250.415016 
L 175.971236 251.239505 
L 179.61904 251.37059 
L 183.266844 251.804646 
L 186.914648 252.022173 
L 190.562451 253.143626 
L 194.210255 253.649936 
L 197.858059 254.679756 
L 201.505863 255.842983 
L 205.153667 256.388989 
L 208.801471 257.449477 
L 212.449275 258.150215 
L 216.097079 259.489255 
L 219.744883 259.664395 
L 223.392686 261.12043 
L 227.04049 261.937825 
L 230.688294 263.026786 
L 234.336098 264.185359 
L 237.983902 264.823208 
L 241.631706 265.73222 
L 245.27951 266.562243 
L 248.927314 267.50738 
L 252.575117 268.014194 
L 256.222921 268.777511 
L 259.870725 269.559666 
L 263.518529 270.289146 
L 267.166333 271.07529 
L 270.814137 271.609806 
L 274.461941 272.283881 
L 278.109745 272.698666 
L 281.757549 273.283455 
L 285.405352 273.83781 
L 289.053156 274.311546 
L 292.70096 274.866885 
L 296.348764 275.301543 
L 299.996568 275.718956 
L 303.644372 276.043041 
L 307.292176 276.427338 
L 310.93998 276.880232 
L 314.587783 277.305862 
L 318.235587 277.597301 
L 321.883391 277.960712 
L 325.531195 278.25535 
L 329.178999 278.782531 
L 332.826803 278.957021 
L 336.474607 279.323114 
L 340.122411 279.664956 
L 343.770215 279.961724 
L 347.418018 280.216861 
L 351.065822 280.642055 
L 354.713626 280.865841 
L 358.36143 281.139117 
L 362.009234 281.299756 
L 365.657038 281.749003 
L 369.304842 281.905562 
L 372.952646 282.134653 
L 376.600449 282.458 
L 380.248253 282.6361 
L 383.896057 282.919337 
L 387.543861 283.007342 
L 391.191665 283.415229 
L 394.839469 283.591125 
L 398.487273 283.777074 
" clip-path="url(#p8270f0724e)" style="fill: none; stroke: #ff00ff; stroke-opacity: 0.3; stroke-width: 0.5; stroke-linecap: square"/>
   </g>
   <g id="line2d_36">
    <path d="M 73.832727 243.109509 
L 77.480531 243.282585 
L 81.128335 243.463042 
L 84.776139 243.95552 
L 88.423943 244.210457 
L 92.071747 244.568772 
L 95.719551 245.048879 
L 99.367354 245.651817 
L 103.015158 246.247714 
L 106.662962 246.810584 
L 110.310766 247.661873 
L 113.95857 248.330213 
L 117.606374 249.124879 
L 121.254178 250.253184 
L 124.901982 251.264867 
L 128.549785 252.069323 
L 132.197589 253.143451 
L 135.845393 254.09181 
L 139.493197 255.465873 
L 143.141001 256.649123 
L 146.788805 257.759833 
L 150.436609 259.001663 
L 154.084413 260.161241 
L 157.732217 261.629527 
L 161.38002 262.82624 
L 165.027824 263.693723 
L 168.675628 264.969034 
L 172.323432 265.644827 
L 175.971236 267.154675 
L 179.61904 267.978437 
L 183.266844 268.574842 
L 186.914648 269.373656 
L 190.562451 271.20028 
L 194.210255 272.547756 
L 197.858059 273.478743 
L 201.505863 274.730801 
L 205.153667 275.878264 
L 208.801471 276.985915 
L 212.449275 278.111692 
L 216.097079 279.291061 
L 219.744883 280.417234 
L 223.392686 281.47124 
L 227.04049 282.629917 
L 230.688294 283.717199 
L 234.336098 284.796479 
L 237.983902 285.661877 
L 241.631706 286.597203 
L 245.27951 287.60213 
L 248.927314 288.488898 
L 252.575117 289.356795 
L 256.222921 290.145328 
L 259.870725 290.874785 
L 263.518529 291.407426 
L 267.166333 291.924648 
L 270.814137 292.466175 
L 274.461941 292.901233 
L 278.109745 293.252863 
L 281.757549 293.540223 
L 285.405352 293.842724 
L 289.053156 294.027745 
L 292.70096 294.203119 
L 296.348764 294.367131 
L 299.996568 294.484708 
L 303.644372 294.570524 
L 307.292176 294.693648 
L 310.93998 294.774936 
L 314.587783 294.859099 
L 318.235587 294.900106 
L 321.883391 294.977537 
L 325.531195 295.004901 
L 329.178999 295.073921 
L 332.826803 295.098264 
L 336.474607 295.128511 
L 340.122411 295.153751 
L 343.770215 295.187296 
L 347.418018 295.191887 
L 351.065822 295.239948 
L 354.713626 295.253856 
L 358.36143 295.259615 
L 362.009234 295.279479 
L 365.657038 295.294118 
L 369.304842 295.299085 
L 372.952646 295.30985 
L 376.600449 295.3256 
L 380.248253 295.319855 
L 383.896057 295.343162 
L 387.543861 295.342892 
L 391.191665 295.342509 
L 394.839469 295.355422 
L 398.487273 295.359007 
" clip-path="url(#p8270f0724e)" style="fill: none; stroke: #ff00ff; stroke-opacity: 0.3; stroke-width: 0.5; stroke-linecap: square"/>
   </g>
   <g id="line2d_37">
    <path d="M 73.832727 241.144033 
L 77.480531 241.413966 
L 81.128335 241.915025 
L 84.776139 242.488467 
L 88.423943 243.082934 
L 92.071747 243.607404 
L 95.719551 244.404011 
L 99.367354 245.088345 
L 103.015158 245.744421 
L 106.662962 246.30363 
L 110.310766 246.961296 
L 113.95857 247.728862 
L 117.606374 248.33306 
L 121.254178 249.06615 
L 124.901982 249.898483 
L 128.549785 250.80962 
L 132.197589 251.709775 
L 135.845393 252.644466 
L 139.493197 253.540745 
L 143.141001 254.731826 
L 146.788805 255.567881 
L 150.436609 256.610052 
L 154.084413 257.430199 
L 157.732217 258.320033 
L 161.38002 259.248208 
L 165.027824 260.315688 
L 168.675628 261.309702 
L 172.323432 261.95117 
L 175.971236 262.599736 
L 179.61904 263.461428 
L 183.266844 263.990844 
L 186.914648 264.762576 
L 190.562451 266.051191 
L 194.210255 266.923943 
L 197.858059 267.800493 
L 201.505863 268.579365 
L 205.153667 269.414267 
L 208.801471 270.091386 
L 212.449275 270.723951 
L 216.097079 271.522238 
L 219.744883 272.158045 
L 223.392686 272.76603 
L 227.04049 273.264824 
L 230.688294 273.910883 
L 234.336098 274.33376 
L 237.983902 274.798617 
L 241.631706 275.23091 
L 245.27951 275.568588 
L 248.927314 276.014693 
L 252.575117 276.373473 
L 256.222921 276.549184 
L 259.870725 276.907785 
L 263.518529 277.273706 
L 267.166333 277.572563 
L 270.814137 277.948113 
L 274.461941 278.136499 
L 278.109745 278.443851 
L 281.757549 278.625234 
L 285.405352 278.985653 
L 289.053156 279.270368 
L 292.70096 279.488999 
L 296.348764 279.765867 
L 299.996568 279.924427 
L 303.644372 280.218829 
L 307.292176 280.514308 
L 310.93998 280.678269 
L 314.587783 280.924144 
L 318.235587 281.121811 
L 321.883391 281.324305 
L 325.531195 281.557503 
L 329.178999 281.717104 
L 332.826803 281.944127 
L 336.474607 282.136169 
L 340.122411 282.300946 
L 343.770215 282.474363 
L 347.418018 282.693783 
L 351.065822 282.863125 
L 354.713626 282.985256 
L 358.36143 283.204228 
L 362.009234 283.328053 
L 365.657038 283.527142 
L 369.304842 283.677922 
L 372.952646 283.817518 
L 376.600449 283.98743 
L 380.248253 284.127583 
L 383.896057 284.273229 
L 387.543861 284.396083 
L 391.191665 284.554028 
L 394.839469 284.711273 
L 398.487273 284.840685 
" clip-path="url(#p8270f0724e)" style="fill: none; stroke: #ff00ff; stroke-opacity: 0.3; stroke-width: 0.5; stroke-linecap: square"/>
   </g>
   <g id="line2d_38">
    <path d="M 73.832727 242.782143 
L 77.480531 242.935371 
L 81.128335 242.925659 
L 84.776139 243.299361 
L 88.423943 243.793338 
L 92.071747 244.080061 
L 95.719551 244.489307 
L 99.367354 244.809913 
L 103.015158 245.571202 
L 106.662962 246.214286 
L 110.310766 246.743962 
L 113.95857 247.659624 
L 117.606374 248.312844 
L 121.254178 249.380971 
L 124.901982 250.441275 
L 128.549785 251.098569 
L 132.197589 252.298986 
L 135.845393 253.523803 
L 139.493197 255.146494 
L 143.141001 256.270251 
L 146.788805 257.962067 
L 150.436609 259.694841 
L 154.084413 261.517609 
L 157.732217 263.268341 
L 161.38002 265.153103 
L 165.027824 267.053934 
L 168.675628 269.503468 
L 172.323432 270.673754 
L 175.971236 272.999498 
L 179.61904 274.35175 
L 183.266844 276.085979 
L 186.914648 277.457861 
L 190.562451 280.53172 
L 194.210255 282.490219 
L 197.858059 284.272498 
L 201.505863 285.895928 
L 205.153667 287.512311 
L 208.801471 288.82347 
L 212.449275 290.183484 
L 216.097079 291.070133 
L 219.744883 291.971123 
L 223.392686 292.617743 
L 227.04049 293.135808 
L 230.688294 293.589375 
L 234.336098 293.952518 
L 237.983902 294.094827 
L 241.631706 294.336468 
L 245.27951 294.550707 
L 248.927314 294.652446 
L 252.575117 294.778543 
L 256.222921 294.891561 
L 259.870725 295.002386 
L 263.518529 295.077979 
L 267.166333 295.114579 
L 270.814137 295.129545 
L 274.461941 295.231503 
L 278.109745 295.230819 
L 281.757549 295.233964 
L 285.405352 295.295903 
L 289.053156 295.318203 
L 292.70096 295.319564 
L 296.348764 295.357459 
L 299.996568 295.354422 
L 303.644372 295.340774 
L 307.292176 295.385715 
L 310.93998 295.396925 
L 314.587783 295.407064 
L 318.235587 295.403293 
L 321.883391 295.419653 
L 325.531195 295.412273 
L 329.178999 295.425995 
L 332.826803 295.4281 
L 336.474607 295.428249 
L 340.122411 295.43589 
L 343.770215 295.434319 
L 347.418018 295.438655 
L 351.065822 295.445407 
L 354.713626 295.442892 
L 358.36143 295.440689 
L 362.009234 295.433823 
L 365.657038 295.461305 
L 369.304842 295.451035 
L 372.952646 295.442477 
L 376.600449 295.453001 
L 380.248253 295.452769 
L 383.896057 295.458297 
L 387.543861 295.459736 
L 391.191665 295.467442 
L 394.839469 295.464678 
L 398.487273 295.45626 
" clip-path="url(#p8270f0724e)" style="fill: none; stroke: #ff00ff; stroke-opacity: 0.3; stroke-width: 0.5; stroke-linecap: square"/>
   </g>
   <g id="line2d_39">
    <path d="M 73.832727 247.356079 
L 77.480531 247.693618 
L 81.128335 247.936373 
L 84.776139 248.441897 
L 88.423943 249.322494 
L 92.071747 250.00005 
L 95.719551 250.744866 
L 99.367354 251.791153 
L 103.015158 252.671677 
L 106.662962 253.507129 
L 110.310766 254.649427 
L 113.95857 255.689442 
L 117.606374 256.877277 
L 121.254178 257.968068 
L 124.901982 259.046864 
L 128.549785 260.294251 
L 132.197589 261.499157 
L 135.845393 262.557934 
L 139.493197 263.854013 
L 143.141001 264.774795 
L 146.788805 265.741783 
L 150.436609 266.650588 
L 154.084413 267.547796 
L 157.732217 268.131171 
L 161.38002 268.943958 
L 165.027824 269.536847 
L 168.675628 270.138005 
L 172.323432 270.563105 
L 175.971236 271.227817 
L 179.61904 271.611083 
L 183.266844 272.019947 
L 186.914648 272.289655 
L 190.562451 273.084599 
L 194.210255 273.659013 
L 197.858059 274.289893 
L 201.505863 275.00536 
L 205.153667 275.576084 
L 208.801471 276.155766 
L 212.449275 276.765779 
L 216.097079 277.309302 
L 219.744883 277.883647 
L 223.392686 278.435305 
L 227.04049 278.987086 
L 230.688294 279.491664 
L 234.336098 279.968303 
L 237.983902 280.501915 
L 241.631706 281.028838 
L 245.27951 281.518495 
L 248.927314 282.06417 
L 252.575117 282.58438 
L 256.222921 283.103052 
L 259.870725 283.635959 
L 263.518529 284.172041 
L 267.166333 284.707632 
L 270.814137 285.231767 
L 274.461941 285.78181 
L 278.109745 286.302535 
L 281.757549 286.860742 
L 285.405352 287.410917 
L 289.053156 287.949726 
L 292.70096 288.458656 
L 296.348764 288.987203 
L 299.996568 289.455638 
L 303.644372 289.912376 
L 307.292176 290.421494 
L 310.93998 290.854409 
L 314.587783 291.286855 
L 318.235587 291.646567 
L 321.883391 292.039929 
L 325.531195 292.340037 
L 329.178999 292.664531 
L 332.826803 292.957817 
L 336.474607 293.204446 
L 340.122411 293.409942 
L 343.770215 293.611749 
L 347.418018 293.781094 
L 351.065822 293.980964 
L 354.713626 294.113965 
L 358.36143 294.225277 
L 362.009234 294.32522 
L 365.657038 294.486274 
L 369.304842 294.520207 
L 372.952646 294.55704 
L 376.600449 294.698759 
L 380.248253 294.738035 
L 383.896057 294.784935 
L 387.543861 294.83837 
L 391.191665 294.891785 
L 394.839469 294.946625 
L 398.487273 294.986265 
" clip-path="url(#p8270f0724e)" style="fill: none; stroke: #ff00ff; stroke-opacity: 0.3; stroke-width: 0.5; stroke-linecap: square"/>
   </g>
   <g id="line2d_40">
    <path d="M 73.832727 242.972115 
L 77.480531 242.873979 
L 81.128335 242.849826 
L 84.776139 243.048559 
L 88.423943 243.245824 
L 92.071747 243.218797 
L 95.719551 243.380234 
L 99.367354 243.521855 
L 103.015158 243.697934 
L 106.662962 243.946447 
L 110.310766 243.999433 
L 113.95857 244.240679 
L 117.606374 244.483816 
L 121.254178 244.52588 
L 124.901982 244.964296 
L 128.549785 245.053947 
L 132.197589 245.121971 
L 135.845393 245.650378 
L 139.493197 245.821757 
L 143.141001 246.216038 
L 146.788805 246.49046 
L 150.436609 246.584912 
L 154.084413 246.586927 
L 157.732217 246.923467 
L 161.38002 247.251091 
L 165.027824 247.659197 
L 168.675628 247.487919 
L 172.323432 247.212012 
L 175.971236 247.447823 
L 179.61904 247.491515 
L 183.266844 247.181426 
L 186.914648 247.431659 
L 190.562451 247.412082 
L 194.210255 247.323199 
L 197.858059 247.917951 
L 201.505863 248.788408 
L 205.153667 249.367828 
L 208.801471 249.672109 
L 212.449275 249.356414 
L 216.097079 250.383571 
L 219.744883 251.07782 
L 223.392686 251.884396 
L 227.04049 251.703673 
L 230.688294 252.202611 
L 234.336098 253.330893 
L 237.983902 253.767143 
L 241.631706 254.299642 
L 245.27951 255.099201 
L 248.927314 255.934956 
L 252.575117 256.544595 
L 256.222921 257.063935 
L 259.870725 257.471689 
L 263.518529 259.31811 
L 267.166333 259.482667 
L 270.814137 260.471961 
L 274.461941 261.332411 
L 278.109745 262.535741 
L 281.757549 263.719747 
L 285.405352 264.141136 
L 289.053156 265.342815 
L 292.70096 265.906793 
L 296.348764 266.70675 
L 299.996568 268.163936 
L 303.644372 268.698542 
L 307.292176 270.034657 
L 310.93998 270.932359 
L 314.587783 272.694619 
L 318.235587 273.046989 
L 321.883391 274.418658 
L 325.531195 275.338689 
L 329.178999 275.636782 
L 332.826803 276.759247 
L 336.474607 277.829894 
L 340.122411 278.386321 
L 343.770215 279.647217 
L 347.418018 280.38286 
L 351.065822 280.848687 
L 354.713626 281.582945 
L 358.36143 282.757558 
L 362.009234 283.019871 
L 365.657038 284.796522 
L 369.304842 285.171069 
L 372.952646 285.423756 
L 376.600449 286.099992 
L 380.248253 285.381366 
L 383.896057 287.096869 
L 387.543861 287.04886 
L 391.191665 287.346259 
L 394.839469 288.119379 
L 398.487273 288.022848 
" clip-path="url(#p8270f0724e)" style="fill: none; stroke: #ff00ff; stroke-opacity: 0.3; stroke-width: 0.5; stroke-linecap: square"/>
   </g>
   <g id="line2d_41">
    <path d="M 73.832727 246.653571 
L 77.480531 246.677084 
L 81.128335 247.903778 
L 84.776139 249.538853 
L 88.423943 251.034675 
L 92.071747 252.557101 
L 95.719551 254.575973 
L 99.367354 256.760585 
L 103.015158 258.204889 
L 106.662962 260.923689 
L 110.310766 263.335668 
L 113.95857 266.027688 
L 117.606374 268.749981 
L 121.254178 271.357311 
L 124.901982 274.129091 
L 128.549785 276.631935 
L 132.197589 279.004289 
L 135.845393 281.423718 
L 139.493197 283.919901 
L 143.141001 285.415564 
L 146.788805 286.968344 
L 150.436609 288.185682 
L 154.084413 289.324872 
L 157.732217 290.268094 
L 161.38002 291.150581 
L 165.027824 291.48281 
L 168.675628 292.169425 
L 172.323432 292.377982 
L 175.971236 292.602297 
L 179.61904 292.912854 
L 183.266844 292.99933 
L 186.914648 292.86574 
L 190.562451 293.457636 
L 194.210255 293.715662 
L 197.858059 293.897289 
L 201.505863 294.135124 
L 205.153667 294.240691 
L 208.801471 294.337933 
L 212.449275 294.440581 
L 216.097079 294.57659 
L 219.744883 294.759031 
L 223.392686 294.85454 
L 227.04049 294.956443 
L 230.688294 295.05088 
L 234.336098 295.110859 
L 237.983902 295.179459 
L 241.631706 295.232149 
L 245.27951 295.228636 
L 248.927314 295.281352 
L 252.575117 295.302669 
L 256.222921 295.287793 
L 259.870725 295.315731 
L 263.518529 295.332727 
L 267.166333 295.337618 
L 270.814137 295.341627 
L 274.461941 295.364104 
L 278.109745 295.299558 
L 281.757549 295.369066 
L 285.405352 295.402201 
L 289.053156 295.366723 
L 292.70096 295.3717 
L 296.348764 295.370749 
L 299.996568 295.388849 
L 303.644372 295.406224 
L 307.292176 295.421342 
L 310.93998 295.397265 
L 314.587783 295.43488 
L 318.235587 295.439699 
L 321.883391 295.428448 
L 325.531195 295.415334 
L 329.178999 295.442342 
L 332.826803 295.440332 
L 336.474607 295.440521 
L 340.122411 295.440625 
L 343.770215 295.438108 
L 347.418018 295.444422 
L 351.065822 295.462029 
L 354.713626 295.442514 
L 358.36143 295.45358 
L 362.009234 295.460002 
L 365.657038 295.458834 
L 369.304842 295.459943 
L 372.952646 295.449745 
L 376.600449 295.459607 
L 380.248253 295.453038 
L 383.896057 295.457737 
L 387.543861 295.457751 
L 391.191665 295.466769 
L 394.839469 295.46462 
L 398.487273 295.467336 
" clip-path="url(#p8270f0724e)" style="fill: none; stroke: #ff00ff; stroke-opacity: 0.3; stroke-width: 0.5; stroke-linecap: square"/>
   </g>
   <g id="line2d_42">
    <path d="M 73.832727 240.19527 
L 77.480531 240.480636 
L 81.128335 241.131975 
L 84.776139 241.823727 
L 88.423943 242.630391 
L 92.071747 243.228404 
L 95.719551 243.511568 
L 99.367354 243.838056 
L 103.015158 244.092165 
L 106.662962 244.296029 
L 110.310766 244.689704 
L 113.95857 245.355041 
L 117.606374 245.789745 
L 121.254178 246.546251 
L 124.901982 247.422645 
L 128.549785 248.190892 
L 132.197589 249.183485 
L 135.845393 249.907129 
L 139.493197 250.91212 
L 143.141001 251.954476 
L 146.788805 253.153191 
L 150.436609 254.375553 
L 154.084413 255.474817 
L 157.732217 256.739873 
L 161.38002 257.435856 
L 165.027824 258.539135 
L 168.675628 259.691619 
L 172.323432 260.402675 
L 175.971236 261.656774 
L 179.61904 262.65627 
L 183.266844 263.564151 
L 186.914648 264.446953 
L 190.562451 265.784052 
L 194.210255 266.978228 
L 197.858059 268.027709 
L 201.505863 269.134465 
L 205.153667 270.152868 
L 208.801471 271.113517 
L 212.449275 272.091675 
L 216.097079 273.025529 
L 219.744883 273.951572 
L 223.392686 274.848856 
L 227.04049 275.674979 
L 230.688294 276.583029 
L 234.336098 277.45823 
L 237.983902 278.226678 
L 241.631706 279.151786 
L 245.27951 280.031822 
L 248.927314 280.909751 
L 252.575117 281.820666 
L 256.222921 282.647517 
L 259.870725 283.563523 
L 263.518529 284.478892 
L 267.166333 285.342054 
L 270.814137 286.255255 
L 274.461941 287.075689 
L 278.109745 287.884561 
L 281.757549 288.671289 
L 285.405352 289.429296 
L 289.053156 290.135189 
L 292.70096 290.733772 
L 296.348764 291.288779 
L 299.996568 291.786797 
L 303.644372 292.149425 
L 307.292176 292.607391 
L 310.93998 292.898049 
L 314.587783 293.305821 
L 318.235587 293.537637 
L 321.883391 293.743891 
L 325.531195 293.890178 
L 329.178999 294.11137 
L 332.826803 294.247417 
L 336.474607 294.332056 
L 340.122411 294.427089 
L 343.770215 294.569668 
L 347.418018 294.613712 
L 351.065822 294.730441 
L 354.713626 294.76294 
L 358.36143 294.844546 
L 362.009234 294.878807 
L 365.657038 294.936109 
L 369.304842 294.933307 
L 372.952646 294.967226 
L 376.600449 295.038644 
L 380.248253 295.043764 
L 383.896057 295.066321 
L 387.543861 295.082732 
L 391.191665 295.109133 
L 394.839469 295.146023 
L 398.487273 295.144122 
" clip-path="url(#p8270f0724e)" style="fill: none; stroke: #ff00ff; stroke-opacity: 0.3; stroke-width: 0.5; stroke-linecap: square"/>
   </g>
   <g id="line2d_43">
    <path d="M 73.832727 242.36364 
L 77.480531 242.440323 
L 81.128335 242.525311 
L 84.776139 242.423096 
L 88.423943 242.287357 
L 92.071747 242.538178 
L 95.719551 242.383152 
L 99.367354 242.242699 
L 103.015158 242.186269 
L 106.662962 242.285472 
L 110.310766 242.24109 
L 113.95857 242.210398 
L 117.606374 242.075928 
L 121.254178 241.923013 
L 124.901982 242.030222 
L 128.549785 242.030981 
L 132.197589 241.893416 
L 135.845393 241.888785 
L 139.493197 241.759442 
L 143.141001 241.702276 
L 146.788805 241.69805 
L 150.436609 241.485182 
L 154.084413 241.607672 
L 157.732217 241.696339 
L 161.38002 241.377255 
L 165.027824 241.4102 
L 168.675628 241.550188 
L 172.323432 241.479438 
L 175.971236 241.552713 
L 179.61904 241.662203 
L 183.266844 241.677071 
L 186.914648 241.830018 
L 190.562451 241.919311 
L 194.210255 242.027017 
L 197.858059 242.152441 
L 201.505863 242.196924 
L 205.153667 242.239715 
L 208.801471 242.399491 
L 212.449275 242.411977 
L 216.097079 242.509473 
L 219.744883 242.574007 
L 223.392686 242.588939 
L 227.04049 242.785289 
L 230.688294 242.644826 
L 234.336098 242.69819 
L 237.983902 242.592236 
L 241.631706 242.965548 
L 245.27951 242.876646 
L 248.927314 242.858707 
L 252.575117 242.983395 
L 256.222921 243.047864 
L 259.870725 243.109882 
L 263.518529 243.340602 
L 267.166333 243.166855 
L 270.814137 243.384676 
L 274.461941 243.422238 
L 278.109745 243.534487 
L 281.757549 243.471899 
L 285.405352 243.844912 
L 289.053156 243.794906 
L 292.70096 243.460697 
L 296.348764 244.036824 
L 299.996568 244.159733 
L 303.644372 243.826674 
L 307.292176 244.163734 
L 310.93998 244.529679 
L 314.587783 244.191708 
L 318.235587 244.449864 
L 321.883391 244.728268 
L 325.531195 244.68494 
L 329.178999 244.387837 
L 332.826803 244.439191 
L 336.474607 244.753625 
L 340.122411 244.716418 
L 343.770215 244.709483 
L 347.418018 244.998257 
L 351.065822 244.737903 
L 354.713626 245.212942 
L 358.36143 244.648454 
L 362.009234 244.994477 
L 365.657038 244.998013 
L 369.304842 245.646239 
L 372.952646 245.114447 
L 376.600449 245.364914 
L 380.248253 244.758427 
L 383.896057 245.646975 
L 387.543861 245.711917 
L 391.191665 245.613243 
L 394.839469 245.763698 
L 398.487273 245.915791 
" clip-path="url(#p8270f0724e)" style="fill: none; stroke: #ff00ff; stroke-opacity: 0.3; stroke-width: 0.5; stroke-linecap: square"/>
   </g>
   <g id="line2d_44">
    <path d="M 73.832727 242.734823 
L 77.480531 242.721523 
L 81.128335 242.89012 
L 84.776139 243.049993 
L 88.423943 243.320773 
L 92.071747 243.681677 
L 95.719551 243.983457 
L 99.367354 244.442189 
L 103.015158 244.540872 
L 106.662962 245.111522 
L 110.310766 245.516069 
L 113.95857 246.065294 
L 117.606374 246.820645 
L 121.254178 247.129567 
L 124.901982 248.033805 
L 128.549785 248.753655 
L 132.197589 249.342802 
L 135.845393 250.292949 
L 139.493197 251.151192 
L 143.141001 251.880957 
L 146.788805 252.938764 
L 150.436609 253.962237 
L 154.084413 254.969472 
L 157.732217 256.291331 
L 161.38002 257.243049 
L 165.027824 258.372311 
L 168.675628 259.691077 
L 172.323432 260.539409 
L 175.971236 262.167334 
L 179.61904 263.136492 
L 183.266844 264.085876 
L 186.914648 265.505666 
L 190.562451 267.947067 
L 194.210255 270.006451 
L 197.858059 271.93371 
L 201.505863 274.562077 
L 205.153667 276.830017 
L 208.801471 278.797609 
L 212.449275 281.093846 
L 216.097079 283.001044 
L 219.744883 284.860051 
L 223.392686 286.533664 
L 227.04049 287.943867 
L 230.688294 288.926668 
L 234.336098 289.937313 
L 237.983902 290.958527 
L 241.631706 291.696553 
L 245.27951 292.327485 
L 248.927314 292.783707 
L 252.575117 293.306089 
L 256.222921 293.670958 
L 259.870725 293.94988 
L 263.518529 294.235036 
L 267.166333 294.353135 
L 270.814137 294.55617 
L 274.461941 294.671111 
L 278.109745 294.759803 
L 281.757549 294.863065 
L 285.405352 294.923584 
L 289.053156 295.038465 
L 292.70096 295.071449 
L 296.348764 295.071212 
L 299.996568 295.100743 
L 303.644372 295.114894 
L 307.292176 295.189147 
L 310.93998 295.230885 
L 314.587783 295.266676 
L 318.235587 295.28113 
L 321.883391 295.288143 
L 325.531195 295.292199 
L 329.178999 295.318176 
L 332.826803 295.334663 
L 336.474607 295.351499 
L 340.122411 295.339833 
L 343.770215 295.338905 
L 347.418018 295.35869 
L 351.065822 295.332359 
L 354.713626 295.356759 
L 358.36143 295.385404 
L 362.009234 295.378715 
L 365.657038 295.409411 
L 369.304842 295.38064 
L 372.952646 295.413185 
L 376.600449 295.394998 
L 380.248253 295.396465 
L 383.896057 295.419003 
L 387.543861 295.392733 
L 391.191665 295.419012 
L 394.839469 295.421757 
L 398.487273 295.431157 
" clip-path="url(#p8270f0724e)" style="fill: none; stroke: #ff00ff; stroke-opacity: 0.3; stroke-width: 0.5; stroke-linecap: square"/>
   </g>
   <g id="line2d_45">
    <path d="M 73.832727 240.566783 
L 77.480531 240.728142 
L 81.128335 241.020476 
L 84.776139 241.646333 
L 88.423943 242.364486 
L 92.071747 243.285492 
L 95.719551 243.777606 
L 99.367354 244.466856 
L 103.015158 245.075414 
L 106.662962 245.904133 
L 110.310766 246.401963 
L 113.95857 246.926866 
L 117.606374 247.442668 
L 121.254178 248.104 
L 124.901982 248.694714 
L 128.549785 249.238485 
L 132.197589 249.667993 
L 135.845393 250.37109 
L 139.493197 250.958737 
L 143.141001 251.454075 
L 146.788805 252.486465 
L 150.436609 253.062813 
L 154.084413 253.964329 
L 157.732217 254.507121 
L 161.38002 255.407874 
L 165.027824 256.192101 
L 168.675628 256.820028 
L 172.323432 257.520708 
L 175.971236 258.436327 
L 179.61904 259.182118 
L 183.266844 259.127688 
L 186.914648 259.860129 
L 190.562451 261.134856 
L 194.210255 262.368087 
L 197.858059 263.385986 
L 201.505863 264.703775 
L 205.153667 265.871162 
L 208.801471 267.113266 
L 212.449275 267.976126 
L 216.097079 268.937211 
L 219.744883 269.915604 
L 223.392686 270.966616 
L 227.04049 271.898098 
L 230.688294 272.898978 
L 234.336098 273.707548 
L 237.983902 274.686435 
L 241.631706 275.573569 
L 245.27951 276.363677 
L 248.927314 277.108597 
L 252.575117 278.025048 
L 256.222921 278.901016 
L 259.870725 279.668327 
L 263.518529 280.251374 
L 267.166333 281.160945 
L 270.814137 281.983092 
L 274.461941 282.592187 
L 278.109745 283.344039 
L 281.757549 283.965016 
L 285.405352 284.683406 
L 289.053156 285.519254 
L 292.70096 286.124849 
L 296.348764 286.693901 
L 299.996568 287.290777 
L 303.644372 287.825767 
L 307.292176 288.530659 
L 310.93998 288.996165 
L 314.587783 289.464966 
L 318.235587 290.073132 
L 321.883391 290.358887 
L 325.531195 290.719717 
L 329.178999 291.231137 
L 332.826803 291.53781 
L 336.474607 291.869164 
L 340.122411 292.164233 
L 343.770215 292.352424 
L 347.418018 292.581042 
L 351.065822 292.837763 
L 354.713626 293.133818 
L 358.36143 293.186013 
L 362.009234 293.416868 
L 365.657038 293.51195 
L 369.304842 293.548285 
L 372.952646 293.82694 
L 376.600449 293.898118 
L 380.248253 293.944646 
L 383.896057 294.11098 
L 387.543861 294.132599 
L 391.191665 294.188262 
L 394.839469 294.30019 
L 398.487273 294.262466 
" clip-path="url(#p8270f0724e)" style="fill: none; stroke: #ff00ff; stroke-opacity: 0.3; stroke-width: 0.5; stroke-linecap: square"/>
   </g>
   <g id="line2d_46">
    <path d="M 73.832727 242.592296 
L 77.480531 242.628441 
L 81.128335 242.892525 
L 84.776139 243.375902 
L 88.423943 243.627431 
L 92.071747 244.167657 
L 95.719551 244.694031 
L 99.367354 245.178709 
L 103.015158 245.738171 
L 106.662962 246.222095 
L 110.310766 246.747494 
L 113.95857 247.679937 
L 117.606374 248.200117 
L 121.254178 248.930741 
L 124.901982 249.78113 
L 128.549785 250.605572 
L 132.197589 251.56815 
L 135.845393 252.526267 
L 139.493197 253.65149 
L 143.141001 254.814534 
L 146.788805 255.9222 
L 150.436609 257.176154 
L 154.084413 258.578387 
L 157.732217 259.793453 
L 161.38002 261.297169 
L 165.027824 263.008865 
L 168.675628 264.389888 
L 172.323432 265.849755 
L 175.971236 267.390438 
L 179.61904 268.688577 
L 183.266844 269.945238 
L 186.914648 270.865328 
L 190.562451 273.375891 
L 194.210255 275.745858 
L 197.858059 277.548271 
L 201.505863 279.423628 
L 205.153667 281.437963 
L 208.801471 283.063885 
L 212.449275 284.598991 
L 216.097079 286.145391 
L 219.744883 287.514572 
L 223.392686 288.847255 
L 227.04049 289.713725 
L 230.688294 290.696326 
L 234.336098 291.266067 
L 237.983902 291.926794 
L 241.631706 292.500552 
L 245.27951 292.825294 
L 248.927314 293.297253 
L 252.575117 293.545498 
L 256.222921 293.94526 
L 259.870725 294.101597 
L 263.518529 294.281582 
L 267.166333 294.439071 
L 270.814137 294.601085 
L 274.461941 294.671128 
L 278.109745 294.751836 
L 281.757549 294.795932 
L 285.405352 294.882204 
L 289.053156 294.94635 
L 292.70096 294.99838 
L 296.348764 295.035488 
L 299.996568 295.092934 
L 303.644372 295.079254 
L 307.292176 295.127857 
L 310.93998 295.173115 
L 314.587783 295.199495 
L 318.235587 295.201041 
L 321.883391 295.210144 
L 325.531195 295.230371 
L 329.178999 295.244666 
L 332.826803 295.288226 
L 336.474607 295.279495 
L 340.122411 295.273794 
L 343.770215 295.285501 
L 347.418018 295.311471 
L 351.065822 295.322297 
L 354.713626 295.328917 
L 358.36143 295.322275 
L 362.009234 295.323909 
L 365.657038 295.368551 
L 369.304842 295.347721 
L 372.952646 295.338245 
L 376.600449 295.354887 
L 380.248253 295.338248 
L 383.896057 295.365668 
L 387.543861 295.373792 
L 391.191665 295.370905 
L 394.839469 295.373403 
L 398.487273 295.3855 
" clip-path="url(#p8270f0724e)" style="fill: none; stroke: #ff00ff; stroke-opacity: 0.3; stroke-width: 0.5; stroke-linecap: square"/>
   </g>
   <g id="line2d_47">
    <path d="M 73.832727 240.520925 
L 77.480531 240.806554 
L 81.128335 241.203108 
L 84.776139 241.775837 
L 88.423943 242.300822 
L 92.071747 243.307142 
L 95.719551 244.16246 
L 99.367354 244.993999 
L 103.015158 245.743998 
L 106.662962 246.616207 
L 110.310766 247.443128 
L 113.95857 248.471577 
L 117.606374 248.982918 
L 121.254178 249.743338 
L 124.901982 250.770223 
L 128.549785 250.905935 
L 132.197589 251.817398 
L 135.845393 252.409511 
L 139.493197 253.084684 
L 143.141001 253.613432 
L 146.788805 254.390779 
L 150.436609 255.181899 
L 154.084413 255.495392 
L 157.732217 256.02916 
L 161.38002 256.520562 
L 165.027824 256.625407 
L 168.675628 257.563738 
L 172.323432 256.551718 
L 175.971236 257.57945 
L 179.61904 256.971426 
L 183.266844 257.513792 
L 186.914648 257.130361 
L 190.562451 259.229263 
L 194.210255 260.075444 
L 197.858059 261.206933 
L 201.505863 261.493176 
L 205.153667 262.656472 
L 208.801471 263.522997 
L 212.449275 263.966411 
L 216.097079 264.699437 
L 219.744883 265.550784 
L 223.392686 266.541232 
L 227.04049 267.667826 
L 230.688294 268.396501 
L 234.336098 269.43334 
L 237.983902 270.205767 
L 241.631706 271.280196 
L 245.27951 272.358522 
L 248.927314 272.759829 
L 252.575117 273.92083 
L 256.222921 273.70833 
L 259.870725 274.731412 
L 263.518529 275.446859 
L 267.166333 276.24447 
L 270.814137 277.230345 
L 274.461941 278.159151 
L 278.109745 278.890324 
L 281.757549 278.836064 
L 285.405352 279.470502 
L 289.053156 279.951552 
L 292.70096 281.092974 
L 296.348764 281.343349 
L 299.996568 282.118795 
L 303.644372 282.467421 
L 307.292176 283.024808 
L 310.93998 283.637357 
L 314.587783 284.370964 
L 318.235587 284.367011 
L 321.883391 284.847007 
L 325.531195 285.625673 
L 329.178999 285.937776 
L 332.826803 286.459008 
L 336.474607 287.302481 
L 340.122411 287.430526 
L 343.770215 288.010757 
L 347.418018 288.302525 
L 351.065822 288.480479 
L 354.713626 289.563098 
L 358.36143 289.21499 
L 362.009234 289.542448 
L 365.657038 289.901179 
L 369.304842 290.163525 
L 372.952646 290.78538 
L 376.600449 291.01517 
L 380.248253 290.67888 
L 383.896057 290.728267 
L 387.543861 291.203798 
L 391.191665 291.123805 
L 394.839469 291.890627 
L 398.487273 291.790414 
" clip-path="url(#p8270f0724e)" style="fill: none; stroke: #ff00ff; stroke-opacity: 0.3; stroke-width: 0.5; stroke-linecap: square"/>
   </g>
   <g id="line2d_48">
    <path d="M 73.832727 242.082845 
L 77.480531 242.040606 
L 81.128335 242.394865 
L 84.776139 242.80687 
L 88.423943 243.470644 
L 92.071747 244.170333 
L 95.719551 244.606868 
L 99.367354 245.115326 
L 103.015158 245.385728 
L 106.662962 245.721823 
L 110.310766 246.111455 
L 113.95857 246.677939 
L 117.606374 247.089521 
L 121.254178 247.737912 
L 124.901982 248.476369 
L 128.549785 249.163991 
L 132.197589 249.7303 
L 135.845393 250.328106 
L 139.493197 251.220025 
L 143.141001 252.04994 
L 146.788805 252.997093 
L 150.436609 253.559963 
L 154.084413 254.601652 
L 157.732217 255.560375 
L 161.38002 256.443042 
L 165.027824 257.572448 
L 168.675628 258.66097 
L 172.323432 259.308614 
L 175.971236 260.464564 
L 179.61904 261.314724 
L 183.266844 261.683879 
L 186.914648 262.553722 
L 190.562451 263.99894 
L 194.210255 264.980414 
L 197.858059 266.254777 
L 201.505863 267.313716 
L 205.153667 268.646469 
L 208.801471 269.35393 
L 212.449275 270.282788 
L 216.097079 271.235642 
L 219.744883 271.981134 
L 223.392686 272.72483 
L 227.04049 273.332716 
L 230.688294 274.073587 
L 234.336098 274.589692 
L 237.983902 275.307705 
L 241.631706 275.873361 
L 245.27951 276.459976 
L 248.927314 277.094984 
L 252.575117 277.585953 
L 256.222921 278.129218 
L 259.870725 278.685251 
L 263.518529 279.199315 
L 267.166333 279.732068 
L 270.814137 280.266766 
L 274.461941 280.786685 
L 278.109745 281.305455 
L 281.757549 281.830343 
L 285.405352 282.3632 
L 289.053156 282.929163 
L 292.70096 283.424264 
L 296.348764 283.948146 
L 299.996568 284.47725 
L 303.644372 285.002007 
L 307.292176 285.552387 
L 310.93998 286.084739 
L 314.587783 286.58497 
L 318.235587 287.104709 
L 321.883391 287.568561 
L 325.531195 288.050071 
L 329.178999 288.540687 
L 332.826803 289.094346 
L 336.474607 289.527156 
L 340.122411 289.944439 
L 343.770215 290.368027 
L 347.418018 290.787633 
L 351.065822 291.181309 
L 354.713626 291.502637 
L 358.36143 291.821669 
L 362.009234 292.08713 
L 365.657038 292.464835 
L 369.304842 292.622614 
L 372.952646 292.900268 
L 376.600449 293.101256 
L 380.248253 293.289374 
L 383.896057 293.461871 
L 387.543861 293.604736 
L 391.191665 293.701965 
L 394.839469 293.880311 
L 398.487273 293.974869 
" clip-path="url(#p8270f0724e)" style="fill: none; stroke: #ff00ff; stroke-opacity: 0.3; stroke-width: 0.5; stroke-linecap: square"/>
   </g>
   <g id="line2d_49">
    <path d="M 73.832727 241.674109 
L 77.480531 241.721669 
L 81.128335 241.881045 
L 84.776139 241.957351 
L 88.423943 242.063259 
L 92.071747 242.218487 
L 95.719551 242.281052 
L 99.367354 242.400889 
L 103.015158 242.595795 
L 106.662962 242.717964 
L 110.310766 242.790821 
L 113.95857 243.014542 
L 117.606374 243.139723 
L 121.254178 243.20582 
L 124.901982 243.403085 
L 128.549785 243.56316 
L 132.197589 243.610338 
L 135.845393 243.939061 
L 139.493197 243.920744 
L 143.141001 244.125179 
L 146.788805 244.24485 
L 150.436609 244.443877 
L 154.084413 244.431198 
L 157.732217 244.669299 
L 161.38002 244.80852 
L 165.027824 245.063595 
L 168.675628 245.158305 
L 172.323432 245.090695 
L 175.971236 245.286332 
L 179.61904 245.332314 
L 183.266844 245.195287 
L 186.914648 245.491815 
L 190.562451 245.527335 
L 194.210255 245.81209 
L 197.858059 246.2355 
L 201.505863 246.422749 
L 205.153667 247.139582 
L 208.801471 247.077919 
L 212.449275 247.360494 
L 216.097079 247.907369 
L 219.744883 248.107752 
L 223.392686 248.386317 
L 227.04049 248.703847 
L 230.688294 249.190438 
L 234.336098 249.898828 
L 237.983902 250.1014 
L 241.631706 250.634461 
L 245.27951 251.062888 
L 248.927314 251.74645 
L 252.575117 252.442203 
L 256.222921 253.04509 
L 259.870725 253.269004 
L 263.518529 254.344939 
L 267.166333 254.70744 
L 270.814137 255.453663 
L 274.461941 256.156332 
L 278.109745 256.692277 
L 281.757549 257.360221 
L 285.405352 258.335953 
L 289.053156 259.561693 
L 292.70096 259.909116 
L 296.348764 261.200739 
L 299.996568 261.864391 
L 303.644372 262.871946 
L 307.292176 263.514609 
L 310.93998 264.65038 
L 314.587783 265.993467 
L 318.235587 266.593647 
L 321.883391 267.313764 
L 325.531195 268.446962 
L 329.178999 269.556523 
L 332.826803 270.185542 
L 336.474607 271.555572 
L 340.122411 272.474034 
L 343.770215 272.995134 
L 347.418018 274.259486 
L 351.065822 274.659172 
L 354.713626 275.723031 
L 358.36143 277.027195 
L 362.009234 277.86955 
L 365.657038 278.645243 
L 369.304842 279.429091 
L 372.952646 280.449822 
L 376.600449 280.984635 
L 380.248253 281.723606 
L 383.896057 282.830496 
L 387.543861 283.308728 
L 391.191665 284.347101 
L 394.839469 285.151827 
L 398.487273 285.782575 
" clip-path="url(#p8270f0724e)" style="fill: none; stroke: #ff00ff; stroke-opacity: 0.3; stroke-width: 0.5; stroke-linecap: square"/>
   </g>
   <g id="line2d_50">
    <path d="M 73.832727 240.770459 
L 77.480531 240.743796 
L 81.128335 240.93282 
L 84.776139 241.089005 
L 88.423943 241.406907 
L 92.071747 241.596355 
L 95.719551 241.970637 
L 99.367354 242.358701 
L 103.015158 242.710381 
L 106.662962 243.08223 
L 110.310766 243.337765 
L 113.95857 243.566572 
L 117.606374 243.893709 
L 121.254178 244.215106 
L 124.901982 244.258338 
L 128.549785 244.502183 
L 132.197589 244.645373 
L 135.845393 244.959881 
L 139.493197 245.179836 
L 143.141001 245.324175 
L 146.788805 245.468739 
L 150.436609 245.729838 
L 154.084413 246.034841 
L 157.732217 246.224854 
L 161.38002 246.531738 
L 165.027824 246.687201 
L 168.675628 246.971225 
L 172.323432 247.363718 
L 175.971236 247.50355 
L 179.61904 247.803742 
L 183.266844 248.045049 
L 186.914648 248.478912 
L 190.562451 249.046886 
L 194.210255 249.345455 
L 197.858059 249.937613 
L 201.505863 250.670735 
L 205.153667 251.415083 
L 208.801471 252.081694 
L 212.449275 252.962226 
L 216.097079 253.589187 
L 219.744883 254.780246 
L 223.392686 255.428642 
L 227.04049 256.554771 
L 230.688294 257.82624 
L 234.336098 258.726795 
L 237.983902 260.064375 
L 241.631706 261.196214 
L 245.27951 262.191364 
L 248.927314 263.735282 
L 252.575117 264.790502 
L 256.222921 266.526504 
L 259.870725 267.861718 
L 263.518529 269.53441 
L 267.166333 270.876349 
L 270.814137 272.461285 
L 274.461941 273.836851 
L 278.109745 275.341841 
L 281.757549 276.873987 
L 285.405352 278.492029 
L 289.053156 279.865237 
L 292.70096 281.260602 
L 296.348764 282.642512 
L 299.996568 283.786987 
L 303.644372 284.886173 
L 307.292176 286.157126 
L 310.93998 287.430897 
L 314.587783 288.412528 
L 318.235587 289.199633 
L 321.883391 290.038316 
L 325.531195 290.683968 
L 329.178999 291.284929 
L 332.826803 291.861965 
L 336.474607 292.339677 
L 340.122411 292.735089 
L 343.770215 293.114579 
L 347.418018 293.364083 
L 351.065822 293.652054 
L 354.713626 293.866529 
L 358.36143 294.076417 
L 362.009234 294.121797 
L 365.657038 294.309435 
L 369.304842 294.46807 
L 372.952646 294.548207 
L 376.600449 294.68758 
L 380.248253 294.753373 
L 383.896057 294.772059 
L 387.543861 294.85626 
L 391.191665 294.921476 
L 394.839469 294.965438 
L 398.487273 294.958417 
" clip-path="url(#p8270f0724e)" style="fill: none; stroke: #ff00ff; stroke-opacity: 0.3; stroke-width: 0.5; stroke-linecap: square"/>
   </g>
   <g id="line2d_51">
    <path d="M 73.832727 241.093797 
L 77.480531 241.263369 
L 81.128335 241.40756 
L 84.776139 241.70934 
L 88.423943 241.85567 
L 92.071747 242.501237 
L 95.719551 242.735232 
L 99.367354 243.344249 
L 103.015158 243.889685 
L 106.662962 244.213897 
L 110.310766 244.990494 
L 113.95857 245.541513 
L 117.606374 246.164763 
L 121.254178 246.799418 
L 124.901982 247.743656 
L 128.549785 248.500995 
L 132.197589 249.642305 
L 135.845393 250.254421 
L 139.493197 251.724132 
L 143.141001 253.00722 
L 146.788805 254.318327 
L 150.436609 255.840808 
L 154.084413 257.230056 
L 157.732217 258.427398 
L 161.38002 259.791372 
L 165.027824 261.159758 
L 168.675628 262.320366 
L 172.323432 263.284091 
L 175.971236 264.632073 
L 179.61904 265.684037 
L 183.266844 266.308278 
L 186.914648 267.21902 
L 190.562451 268.644011 
L 194.210255 270.013935 
L 197.858059 271.090353 
L 201.505863 272.253746 
L 205.153667 273.281211 
L 208.801471 274.418523 
L 212.449275 275.451651 
L 216.097079 276.567929 
L 219.744883 277.372053 
L 223.392686 278.339542 
L 227.04049 279.267814 
L 230.688294 280.184277 
L 234.336098 281.013535 
L 237.983902 281.867825 
L 241.631706 282.767632 
L 245.27951 283.591718 
L 248.927314 284.543371 
L 252.575117 285.319844 
L 256.222921 286.157541 
L 259.870725 286.946616 
L 263.518529 287.726478 
L 267.166333 288.472543 
L 270.814137 289.162479 
L 274.461941 289.822165 
L 278.109745 290.3649 
L 281.757549 290.947439 
L 285.405352 291.450469 
L 289.053156 291.93229 
L 292.70096 292.33106 
L 296.348764 292.696628 
L 299.996568 292.997951 
L 303.644372 293.296736 
L 307.292176 293.537652 
L 310.93998 293.707316 
L 314.587783 293.958241 
L 318.235587 294.078438 
L 321.883391 294.20276 
L 325.531195 294.317038 
L 329.178999 294.476299 
L 332.826803 294.532149 
L 336.474607 294.622173 
L 340.122411 294.685826 
L 343.770215 294.71864 
L 347.418018 294.784084 
L 351.065822 294.867751 
L 354.713626 294.886311 
L 358.36143 294.943621 
L 362.009234 294.973269 
L 365.657038 295.033843 
L 369.304842 295.008148 
L 372.952646 295.081588 
L 376.600449 295.097514 
L 380.248253 295.107493 
L 383.896057 295.093562 
L 387.543861 295.143679 
L 391.191665 295.152534 
L 394.839469 295.178381 
L 398.487273 295.197013 
" clip-path="url(#p8270f0724e)" style="fill: none; stroke: #ff00ff; stroke-opacity: 0.3; stroke-width: 0.5; stroke-linecap: square"/>
   </g>
   <g id="line2d_52">
    <path d="M 73.832727 242.364229 
L 77.480531 242.479159 
L 81.128335 242.817783 
L 84.776139 243.731155 
L 88.423943 244.183683 
L 92.071747 244.959863 
L 95.719551 245.96891 
L 99.367354 246.877145 
L 103.015158 247.860876 
L 106.662962 248.543381 
L 110.310766 249.780454 
L 113.95857 250.465685 
L 117.606374 251.486063 
L 121.254178 252.442028 
L 124.901982 253.556987 
L 128.549785 254.929505 
L 132.197589 256.113979 
L 135.845393 257.3605 
L 139.493197 258.98317 
L 143.141001 260.281814 
L 146.788805 261.695564 
L 150.436609 263.338726 
L 154.084413 264.709039 
L 157.732217 266.284025 
L 161.38002 267.711136 
L 165.027824 269.084762 
L 168.675628 270.56735 
L 172.323432 271.542015 
L 175.971236 273.173892 
L 179.61904 274.425446 
L 183.266844 275.371834 
L 186.914648 276.253633 
L 190.562451 278.085246 
L 194.210255 279.701134 
L 197.858059 281.397906 
L 201.505863 282.793694 
L 205.153667 284.33632 
L 208.801471 285.755855 
L 212.449275 286.985682 
L 216.097079 288.221019 
L 219.744883 289.257026 
L 223.392686 290.239097 
L 227.04049 291.003851 
L 230.688294 291.706249 
L 234.336098 292.293704 
L 237.983902 292.752654 
L 241.631706 293.194619 
L 245.27951 293.518077 
L 248.927314 293.81276 
L 252.575117 294.125961 
L 256.222921 294.263993 
L 259.870725 294.453261 
L 263.518529 294.589392 
L 267.166333 294.697959 
L 270.814137 294.821633 
L 274.461941 294.927739 
L 278.109745 294.958277 
L 281.757549 294.999736 
L 285.405352 295.070122 
L 289.053156 295.127488 
L 292.70096 295.171232 
L 296.348764 295.172493 
L 299.996568 295.215195 
L 303.644372 295.221895 
L 307.292176 295.268925 
L 310.93998 295.258142 
L 314.587783 295.304254 
L 318.235587 295.312492 
L 321.883391 295.32941 
L 325.531195 295.321512 
L 329.178999 295.349307 
L 332.826803 295.355716 
L 336.474607 295.354505 
L 340.122411 295.366432 
L 343.770215 295.372798 
L 347.418018 295.361772 
L 351.065822 295.395242 
L 354.713626 295.39316 
L 358.36143 295.397094 
L 362.009234 295.395308 
L 365.657038 295.408386 
L 369.304842 295.406556 
L 372.952646 295.406795 
L 376.600449 295.425997 
L 380.248253 295.415973 
L 383.896057 295.424852 
L 387.543861 295.420172 
L 391.191665 295.420171 
L 394.839469 295.435332 
L 398.487273 295.431089 
" clip-path="url(#p8270f0724e)" style="fill: none; stroke: #ff00ff; stroke-opacity: 0.3; stroke-width: 0.5; stroke-linecap: square"/>
   </g>
   <g id="line2d_53">
    <path d="M 73.832727 241.118129 
L 77.480531 241.396956 
L 81.128335 241.613154 
L 84.776139 242.304271 
L 88.423943 243.12262 
L 92.071747 243.809898 
L 95.719551 244.837142 
L 99.367354 245.857061 
L 103.015158 247.193842 
L 106.662962 248.556997 
L 110.310766 249.997875 
L 113.95857 251.782021 
L 117.606374 253.081208 
L 121.254178 254.700776 
L 124.901982 256.415795 
L 128.549785 258.368986 
L 132.197589 259.990141 
L 135.845393 262.353021 
L 139.493197 263.811615 
L 143.141001 266.069922 
L 146.788805 268.066605 
L 150.436609 269.941849 
L 154.084413 271.872145 
L 157.732217 273.8183 
L 161.38002 275.85545 
L 165.027824 277.816908 
L 168.675628 279.937048 
L 172.323432 281.321913 
L 175.971236 282.848669 
L 179.61904 284.057779 
L 183.266844 285.017789 
L 186.914648 285.537707 
L 190.562451 287.577222 
L 194.210255 288.461315 
L 197.858059 289.794108 
L 201.505863 290.748232 
L 205.153667 291.467789 
L 208.801471 291.990008 
L 212.449275 292.521717 
L 216.097079 293.039571 
L 219.744883 293.421426 
L 223.392686 293.745071 
L 227.04049 293.931498 
L 230.688294 294.211561 
L 234.336098 294.459715 
L 237.983902 294.567301 
L 241.631706 294.680175 
L 245.27951 294.714259 
L 248.927314 294.914712 
L 252.575117 294.943125 
L 256.222921 294.970514 
L 259.870725 295.01494 
L 263.518529 295.026002 
L 267.166333 295.092858 
L 270.814137 295.189027 
L 274.461941 295.211201 
L 278.109745 295.1414 
L 281.757549 295.131349 
L 285.405352 295.22421 
L 289.053156 295.246514 
L 292.70096 295.271121 
L 296.348764 295.260825 
L 299.996568 295.284806 
L 303.644372 295.258196 
L 307.292176 295.291771 
L 310.93998 295.286748 
L 314.587783 295.333707 
L 318.235587 295.326161 
L 321.883391 295.358303 
L 325.531195 295.362519 
L 329.178999 295.350372 
L 332.826803 295.346363 
L 336.474607 295.380314 
L 340.122411 295.377991 
L 343.770215 295.374191 
L 347.418018 295.380899 
L 351.065822 295.397377 
L 354.713626 295.369714 
L 358.36143 295.401799 
L 362.009234 295.389153 
L 365.657038 295.410163 
L 369.304842 295.381314 
L 372.952646 295.410361 
L 376.600449 295.415199 
L 380.248253 295.412918 
L 383.896057 295.415815 
L 387.543861 295.401684 
L 391.191665 295.415303 
L 394.839469 295.420054 
L 398.487273 295.42089 
" clip-path="url(#p8270f0724e)" style="fill: none; stroke: #ff00ff; stroke-opacity: 0.3; stroke-width: 0.5; stroke-linecap: square"/>
   </g>
   <g id="line2d_54">
    <path d="M 73.832727 240.497081 
L 77.480531 240.501294 
L 81.128335 240.742991 
L 84.776139 240.690056 
L 88.423943 240.932149 
L 92.071747 240.962367 
L 95.719551 240.981327 
L 99.367354 241.324375 
L 103.015158 241.455971 
L 106.662962 241.591025 
L 110.310766 241.796273 
L 113.95857 242.03552 
L 117.606374 242.312029 
L 121.254178 242.328805 
L 124.901982 242.468044 
L 128.549785 242.637294 
L 132.197589 242.892921 
L 135.845393 242.906225 
L 139.493197 242.995343 
L 143.141001 243.044571 
L 146.788805 243.28351 
L 150.436609 243.564209 
L 154.084413 243.673345 
L 157.732217 243.658564 
L 161.38002 243.670875 
L 165.027824 243.794037 
L 168.675628 243.743235 
L 172.323432 243.864148 
L 175.971236 243.850946 
L 179.61904 243.857517 
L 183.266844 243.719686 
L 186.914648 243.984174 
L 190.562451 244.017298 
L 194.210255 244.038986 
L 197.858059 244.085221 
L 201.505863 244.530576 
L 205.153667 244.44584 
L 208.801471 244.416289 
L 212.449275 244.592938 
L 216.097079 244.857004 
L 219.744883 244.83883 
L 223.392686 244.998354 
L 227.04049 245.147429 
L 230.688294 245.069555 
L 234.336098 245.136319 
L 237.983902 245.539112 
L 241.631706 245.413863 
L 245.27951 245.644625 
L 248.927314 245.623434 
L 252.575117 245.83203 
L 256.222921 245.912728 
L 259.870725 245.822428 
L 263.518529 246.133584 
L 267.166333 246.675525 
L 270.814137 246.393653 
L 274.461941 246.352996 
L 278.109745 247.029683 
L 281.757549 247.27929 
L 285.405352 247.453861 
L 289.053156 247.985441 
L 292.70096 247.672855 
L 296.348764 247.74802 
L 299.996568 247.863272 
L 303.644372 248.172111 
L 307.292176 248.660882 
L 310.93998 248.925549 
L 314.587783 248.937336 
L 318.235587 249.014175 
L 321.883391 249.424474 
L 325.531195 249.61176 
L 329.178999 250.049968 
L 332.826803 249.956017 
L 336.474607 250.214518 
L 340.122411 251.192681 
L 343.770215 250.939239 
L 347.418018 251.246058 
L 351.065822 251.638234 
L 354.713626 252.095917 
L 358.36143 252.904517 
L 362.009234 252.948462 
L 365.657038 253.030861 
L 369.304842 253.126197 
L 372.952646 254.055903 
L 376.600449 253.935624 
L 380.248253 254.94996 
L 383.896057 255.326661 
L 387.543861 256.065439 
L 391.191665 255.256205 
L 394.839469 256.520451 
L 398.487273 257.292853 
" clip-path="url(#p8270f0724e)" style="fill: none; stroke: #ff00ff; stroke-opacity: 0.3; stroke-width: 0.5; stroke-linecap: square"/>
   </g>
   <g id="line2d_55">
    <path d="M 73.832727 241.889314 
L 77.480531 241.948425 
L 81.128335 242.482019 
L 84.776139 242.692611 
L 88.423943 243.071005 
L 92.071747 243.735625 
L 95.719551 244.214471 
L 99.367354 244.751538 
L 103.015158 245.626763 
L 106.662962 246.320171 
L 110.310766 247.42803 
L 113.95857 248.05048 
L 117.606374 249.111447 
L 121.254178 249.822628 
L 124.901982 251.009667 
L 128.549785 252.246405 
L 132.197589 253.362491 
L 135.845393 254.52214 
L 139.493197 255.456367 
L 143.141001 257.03492 
L 146.788805 258.261968 
L 150.436609 259.655184 
L 154.084413 261.4218 
L 157.732217 263.245575 
L 161.38002 264.6594 
L 165.027824 266.465321 
L 168.675628 268.279841 
L 172.323432 269.898678 
L 175.971236 272.139533 
L 179.61904 273.338856 
L 183.266844 274.979886 
L 186.914648 276.436569 
L 190.562451 278.953863 
L 194.210255 281.196302 
L 197.858059 282.713912 
L 201.505863 284.305588 
L 205.153667 286.466675 
L 208.801471 288.11312 
L 212.449275 289.419184 
L 216.097079 290.247079 
L 219.744883 291.028728 
L 223.392686 291.890625 
L 227.04049 292.760809 
L 230.688294 293.007706 
L 234.336098 293.105645 
L 237.983902 293.741514 
L 241.631706 294.050864 
L 245.27951 294.211258 
L 248.927314 294.443918 
L 252.575117 294.633826 
L 256.222921 294.666391 
L 259.870725 294.800161 
L 263.518529 294.899985 
L 267.166333 294.943642 
L 270.814137 295.028003 
L 274.461941 295.092448 
L 278.109745 295.104286 
L 281.757549 295.152511 
L 285.405352 295.164822 
L 289.053156 295.224789 
L 292.70096 295.23215 
L 296.348764 295.221583 
L 299.996568 295.266379 
L 303.644372 295.290716 
L 307.292176 295.2988 
L 310.93998 295.303666 
L 314.587783 295.328598 
L 318.235587 295.350843 
L 321.883391 295.331207 
L 325.531195 295.30826 
L 329.178999 295.369897 
L 332.826803 295.380633 
L 336.474607 295.378016 
L 340.122411 295.384973 
L 343.770215 295.390635 
L 347.418018 295.400937 
L 351.065822 295.399545 
L 354.713626 295.392946 
L 358.36143 295.424771 
L 362.009234 295.410154 
L 365.657038 295.434083 
L 369.304842 295.38832 
L 372.952646 295.404889 
L 376.600449 295.423527 
L 380.248253 295.411824 
L 383.896057 295.434238 
L 387.543861 295.425957 
L 391.191665 295.418811 
L 394.839469 295.4267 
L 398.487273 295.401815 
" clip-path="url(#p8270f0724e)" style="fill: none; stroke: #ff00ff; stroke-opacity: 0.3; stroke-width: 0.5; stroke-linecap: square"/>
   </g>
   <g id="line2d_56">
    <path d="M 73.832727 239.790797 
L 77.480531 240.00069 
L 81.128335 240.138586 
L 84.776139 240.391794 
L 88.423943 240.473007 
L 92.071747 240.854104 
L 95.719551 241.103463 
L 99.367354 241.353903 
L 103.015158 241.631958 
L 106.662962 241.825902 
L 110.310766 242.08398 
L 113.95857 242.288396 
L 117.606374 242.430799 
L 121.254178 242.632851 
L 124.901982 242.840031 
L 128.549785 243.007612 
L 132.197589 243.282047 
L 135.845393 243.406722 
L 139.493197 243.721658 
L 143.141001 243.679948 
L 146.788805 243.84127 
L 150.436609 243.898395 
L 154.084413 244.013049 
L 157.732217 244.408908 
L 161.38002 244.704512 
L 165.027824 244.684935 
L 168.675628 245.172984 
L 172.323432 245.795848 
L 175.971236 246.189141 
L 179.61904 246.366521 
L 183.266844 246.548183 
L 186.914648 247.006051 
L 190.562451 247.762051 
L 194.210255 248.237688 
L 197.858059 248.984288 
L 201.505863 249.477359 
L 205.153667 250.377831 
L 208.801471 251.041164 
L 212.449275 252.146397 
L 216.097079 253.198631 
L 219.744883 254.558562 
L 223.392686 255.572369 
L 227.04049 256.998363 
L 230.688294 258.372975 
L 234.336098 259.722527 
L 237.983902 261.066954 
L 241.631706 262.76224 
L 245.27951 264.289013 
L 248.927314 266.589667 
L 252.575117 267.771351 
L 256.222921 270.035712 
L 259.870725 272.14937 
L 263.518529 274.019925 
L 267.166333 276.167817 
L 270.814137 278.074524 
L 274.461941 279.849453 
L 278.109745 281.700982 
L 281.757549 283.462328 
L 285.405352 285.11189 
L 289.053156 286.766985 
L 292.70096 287.933605 
L 296.348764 289.212802 
L 299.996568 290.168383 
L 303.644372 291.008267 
L 307.292176 291.725762 
L 310.93998 292.308361 
L 314.587783 292.965074 
L 318.235587 293.323734 
L 321.883391 293.670234 
L 325.531195 293.899698 
L 329.178999 294.166026 
L 332.826803 294.345238 
L 336.474607 294.468435 
L 340.122411 294.637677 
L 343.770215 294.732663 
L 347.418018 294.814974 
L 351.065822 294.917381 
L 354.713626 294.942717 
L 358.36143 295.011315 
L 362.009234 295.077446 
L 365.657038 295.104447 
L 369.304842 295.129515 
L 372.952646 295.174112 
L 376.600449 295.215909 
L 380.248253 295.238156 
L 383.896057 295.2796 
L 387.543861 295.273219 
L 391.191665 295.26385 
L 394.839469 295.306448 
L 398.487273 295.319812 
" clip-path="url(#p8270f0724e)" style="fill: none; stroke: #ff00ff; stroke-opacity: 0.3; stroke-width: 0.5; stroke-linecap: square"/>
   </g>
   <g id="line2d_57">
    <path d="M 73.832727 241.640221 
L 77.480531 241.408416 
L 81.128335 240.887551 
L 84.776139 240.282442 
L 88.423943 239.712362 
L 92.071747 238.916275 
L 95.719551 238.166649 
L 99.367354 237.178893 
L 103.015158 236.248709 
L 106.662962 235.303344 
L 110.310766 234.236266 
L 113.95857 233.070408 
L 117.606374 231.949498 
L 121.254178 230.727233 
L 124.901982 229.183722 
L 128.549785 227.868426 
L 132.197589 226.418848 
L 135.845393 224.906327 
L 139.493197 223.056393 
L 143.141001 221.563605 
L 146.788805 219.814456 
L 150.436609 218.126781 
L 154.084413 216.561592 
L 157.732217 214.686406 
L 161.38002 213.084391 
L 165.027824 211.404161 
L 168.675628 209.306096 
L 172.323432 208.584838 
L 175.971236 206.146268 
L 179.61904 204.810277 
L 183.266844 203.597154 
L 186.914648 202.107577 
L 190.562451 196.812269 
L 194.210255 192.86075 
L 197.858059 189.016979 
L 201.505863 185.236605 
L 205.153667 181.830877 
L 208.801471 179.089621 
L 212.449275 176.630844 
L 216.097079 173.960942 
L 219.744883 171.85011 
L 223.392686 168.944442 
L 227.04049 166.660038 
L 230.688294 163.869622 
L 234.336098 161.217259 
L 237.983902 158.08437 
L 241.631706 154.706078 
L 245.27951 151.79651 
L 248.927314 147.998919 
L 252.575117 145.022202 
L 256.222921 142.010985 
L 259.870725 139.13004 
L 263.518529 135.096003 
L 267.166333 132.415247 
L 270.814137 129.105447 
L 274.461941 126.063125 
L 278.109745 123.54279 
L 281.757549 120.668081 
L 285.405352 117.221681 
L 289.053156 113.850903 
L 292.70096 111.457602 
L 296.348764 108.819872 
L 299.996568 105.957542 
L 303.644372 103.99935 
L 307.292176 100.497877 
L 310.93998 97.943383 
L 314.587783 94.656337 
L 318.235587 93.27046 
L 321.883391 90.917315 
L 325.531195 89.624975 
L 329.178999 87.244164 
L 332.826803 85.553872 
L 336.474607 83.267978 
L 340.122411 81.416383 
L 343.770215 79.482399 
L 347.418018 77.805554 
L 351.065822 76.286848 
L 354.713626 73.580635 
L 358.36143 72.169814 
L 362.009234 70.914282 
L 365.657038 67.795861 
L 369.304842 67.101718 
L 372.952646 64.947861 
L 376.600449 63.254129 
L 380.248253 63.536654 
L 383.896057 60.051387 
L 387.543861 58.69851 
L 391.191665 58.099155 
L 394.839469 54.361916 
L 398.487273 53.568 
" clip-path="url(#p8270f0724e)" style="fill: none; stroke: #6495ed; stroke-width: 2; stroke-linecap: square"/>
   </g>
   <g id="line2d_58">
    <path d="M 73.832727 241.981305 
L 77.480531 242.105447 
L 81.128335 242.468144 
L 84.776139 242.921976 
L 88.423943 243.397661 
L 92.071747 243.998811 
L 95.719551 244.555398 
L 99.367354 245.193337 
L 103.015158 245.797607 
L 106.662962 246.414288 
L 110.310766 247.07658 
L 113.95857 247.783045 
L 117.606374 248.465678 
L 121.254178 249.17328 
L 124.901982 250.000171 
L 128.549785 250.738413 
L 132.197589 251.541351 
L 135.845393 252.355075 
L 139.493197 253.267134 
L 143.141001 254.086626 
L 146.788805 254.969279 
L 150.436609 255.839706 
L 154.084413 256.667581 
L 157.732217 257.588847 
L 161.38002 258.413933 
L 165.027824 259.235524 
L 168.675628 260.162385 
L 172.323432 260.696961 
L 175.971236 261.649399 
L 179.61904 262.271877 
L 183.266844 262.841261 
L 186.914648 263.426448 
L 190.562451 264.867211 
L 194.210255 265.95001 
L 197.858059 267.034817 
L 201.505863 268.132056 
L 205.153667 269.229566 
L 208.801471 270.245828 
L 212.449275 271.237092 
L 216.097079 272.253887 
L 219.744883 273.137399 
L 223.392686 274.059789 
L 227.04049 274.835277 
L 230.688294 275.619009 
L 234.336098 276.327232 
L 237.983902 277.049546 
L 241.631706 277.775528 
L 245.27951 278.404427 
L 248.927314 279.097548 
L 252.575117 279.69138 
L 256.222921 280.249048 
L 259.870725 280.792327 
L 263.518529 281.42886 
L 267.166333 281.927689 
L 270.814137 282.472428 
L 274.461941 282.970144 
L 278.109745 283.429972 
L 281.757549 283.877473 
L 285.405352 284.361279 
L 289.053156 284.823286 
L 292.70096 285.194652 
L 296.348764 285.575379 
L 299.996568 285.956162 
L 303.644372 286.26643 
L 307.292176 286.655764 
L 310.93998 286.976828 
L 314.587783 287.328914 
L 318.235587 287.556729 
L 321.883391 287.836661 
L 325.531195 288.063741 
L 329.178999 288.30427 
L 332.826803 288.509212 
L 336.474607 288.757853 
L 340.122411 288.951872 
L 343.770215 289.141771 
L 347.418018 289.321396 
L 351.065822 289.469397 
L 354.713626 289.670882 
L 358.36143 289.81745 
L 362.009234 289.934752 
L 365.657038 290.128259 
L 369.304842 290.23161 
L 372.952646 290.367856 
L 376.600449 290.481306 
L 380.248253 290.515729 
L 383.896057 290.697466 
L 387.543861 290.786085 
L 391.191665 290.842834 
L 394.839469 291.007498 
L 398.487273 291.068567 
" clip-path="url(#p8270f0724e)" style="fill: none; stroke: #dc143c; stroke-width: 2; stroke-linecap: square"/>
   </g>
   <g id="line2d_59">
    <path d="M 73.832727 263.233335 
L 77.480531 258.96462 
L 81.128335 254.142553 
L 84.776139 249.636687 
L 88.423943 243.786966 
L 92.071747 240.308753 
L 95.719551 239.36015 
L 99.367354 239.043949 
L 103.015158 238.095345 
L 106.662962 237.700094 
L 110.310766 237.225792 
L 113.95857 237.146742 
L 117.606374 237.541994 
L 121.254178 237.541994 
L 124.901982 237.700094 
L 128.549785 237.383893 
L 132.197589 237.067692 
L 135.845393 236.751491 
L 139.493197 236.751491 
L 143.141001 236.198139 
L 146.788805 236.198139 
L 150.436609 236.119088 
L 154.084413 235.723837 
L 157.732217 235.249535 
L 161.38002 235.328586 
L 165.027824 235.644787 
L 168.675628 235.565736 
L 172.323432 235.802887 
L 175.971236 236.119088 
L 179.61904 236.43529 
L 183.266844 236.356239 
L 186.914648 236.356239 
L 190.562451 236.277189 
L 194.210255 236.356239 
L 197.858059 236.119088 
L 201.505863 235.881938 
L 205.153667 235.802887 
L 208.801471 235.723837 
L 212.449275 235.565736 
L 216.097079 235.723837 
L 219.744883 235.644787 
L 223.392686 235.565736 
L 227.04049 235.802887 
L 230.688294 235.881938 
L 234.336098 235.960988 
L 237.983902 235.881938 
L 241.631706 235.881938 
L 245.27951 236.040038 
L 248.927314 235.960988 
L 252.575117 235.960988 
L 256.222921 236.198139 
L 259.870725 236.198139 
L 263.518529 236.119088 
L 267.166333 235.960988 
L 270.814137 235.802887 
L 274.461941 235.802887 
L 278.109745 235.486686 
L 281.757549 235.486686 
L 285.405352 235.407636 
L 289.053156 235.723837 
L 292.70096 235.802887 
L 296.348764 235.486686 
L 299.996568 235.407636 
L 303.644372 235.170485 
L 307.292176 235.091435 
L 310.93998 235.091435 
L 314.587783 235.170485 
L 318.235587 235.170485 
L 321.883391 235.012385 
L 325.531195 235.012385 
L 329.178999 234.775234 
L 332.826803 234.696183 
L 336.474607 234.617133 
L 340.122411 234.459033 
L 343.770215 234.221882 
L 347.418018 234.379982 
L 351.065822 234.300932 
L 354.713626 234.379982 
L 358.36143 234.379982 
L 362.009234 234.379982 
L 365.657038 234.379982 
L 369.304842 234.617133 
L 372.952646 234.617133 
L 376.600449 234.775234 
L 380.248253 234.854284 
L 383.896057 235.091435 
L 387.543861 235.407636 
L 391.191665 235.565736 
L 394.839469 235.723837 
L 398.487273 235.881938 
" clip-path="url(#p8270f0724e)" style="fill: none; stroke: #ffff00; stroke-width: 3; stroke-linecap: square"/>
   </g>
   <g id="patch_3">
    <path d="M 57.6 307.584 
L 57.6 41.472 
" style="fill: none; stroke: #ffffff; stroke-linejoin: miter; stroke-linecap: square"/>
   </g>
   <g id="patch_4">
    <path d="M 414.72 307.584 
L 414.72 41.472 
" style="fill: none; stroke: #ffffff; stroke-linejoin: miter; stroke-linecap: square"/>
   </g>
   <g id="patch_5">
    <path d="M 57.6 307.584 
L 414.72 307.584 
" style="fill: none; stroke: #ffffff; stroke-linejoin: miter; stroke-linecap: square"/>
   </g>
   <g id="patch_6">
    <path d="M 57.6 41.472 
L 414.72 41.472 
" style="fill: none; stroke: #ffffff; stroke-linejoin: miter; stroke-linecap: square"/>
   </g>
  </g>
 </g>
 <defs>
  <clipPath id="p8270f0724e">
   <rect x="57.6" y="41.472" width="357.12" height="266.112"/>
  </clipPath>
 </defs>
</svg>
