<?xml version="1.0" encoding="utf-8" standalone="no"?>
<!DOCTYPE svg PUBLIC "-//W3C//DTD SVG 1.1//EN"
  "http://www.w3.org/Graphics/SVG/1.1/DTD/svg11.dtd">
<svg xmlns:xlink="http://www.w3.org/1999/xlink" width="460.8pt" height="345.6pt" viewBox="0 0 460.8 345.6" xmlns="http://www.w3.org/2000/svg" version="1.1">
 <metadata>
  <rdf:RDF xmlns:dc="http://purl.org/dc/elements/1.1/" xmlns:cc="http://creativecommons.org/ns#" xmlns:rdf="http://www.w3.org/1999/02/22-rdf-syntax-ns#">
   <cc:Work>
    <dc:type rdf:resource="http://purl.org/dc/dcmitype/StillImage"/>
    <dc:date>2023-07-13T11:36:28.036386</dc:date>
    <dc:format>image/svg+xml</dc:format>
    <dc:creator>
     <cc:Agent>
      <dc:title>Matplotlib v3.7.1, https://matplotlib.org/</dc:title>
     </cc:Agent>
    </dc:creator>
   </cc:Work>
  </rdf:RDF>
 </metadata>
 <defs>
  <style type="text/css">*{stroke-linejoin: round; stroke-linecap: butt}</style>
 </defs>
 <g id="figure_1">
  <g id="patch_1">
   <path d="M 0 345.6 
L 460.8 345.6 
L 460.8 0 
L 0 0 
z
" style="fill: #ffffff"/>
  </g>
  <g id="axes_1">
   <g id="patch_2">
    <path d="M 57.6 307.584 
L 414.72 307.584 
L 414.72 41.472 
L 57.6 41.472 
z
" style="fill: #e5e5e5"/>
   </g>
   <g id="matplotlib.axis_1">
    <g id="xtick_1">
     <g id="line2d_1">
      <path d="M 73.832727 307.584 
L 73.832727 41.472 
" clip-path="url(#p521f1c6344)" style="fill: none; stroke: #ffffff; stroke-width: 0.8; stroke-linecap: square"/>
     </g>
     <g id="line2d_2">
      <defs>
       <path id="md665fb9150" d="M 0 0 
L 0 3.5 
" style="stroke: #555555; stroke-width: 0.8"/>
      </defs>
      <g>
       <use xlink:href="#md665fb9150" x="73.832727" y="307.584" style="fill: #555555; stroke: #555555; stroke-width: 0.8"/>
      </g>
     </g>
     <g id="text_1">
      <!-- 0 -->
      <g style="fill: #555555" transform="translate(70.651477 322.182437) scale(0.1 -0.1)">
       <defs>
        <path id="DejaVuSans-30" d="M 2034 4250 
Q 1547 4250 1301 3770 
Q 1056 3291 1056 2328 
Q 1056 1369 1301 889 
Q 1547 409 2034 409 
Q 2525 409 2770 889 
Q 3016 1369 3016 2328 
Q 3016 3291 2770 3770 
Q 2525 4250 2034 4250 
z
M 2034 4750 
Q 2819 4750 3233 4129 
Q 3647 3509 3647 2328 
Q 3647 1150 3233 529 
Q 2819 -91 2034 -91 
Q 1250 -91 836 529 
Q 422 1150 422 2328 
Q 422 3509 836 4129 
Q 1250 4750 2034 4750 
z
" transform="scale(0.015625)"/>
       </defs>
       <use xlink:href="#DejaVuSans-30"/>
      </g>
     </g>
    </g>
    <g id="xtick_2">
     <g id="line2d_3">
      <path d="M 146.788805 307.584 
L 146.788805 41.472 
" clip-path="url(#p521f1c6344)" style="fill: none; stroke: #ffffff; stroke-width: 0.8; stroke-linecap: square"/>
     </g>
     <g id="line2d_4">
      <g>
       <use xlink:href="#md665fb9150" x="146.788805" y="307.584" style="fill: #555555; stroke: #555555; stroke-width: 0.8"/>
      </g>
     </g>
     <g id="text_2">
      <!-- 20 -->
      <g style="fill: #555555" transform="translate(140.426305 322.182437) scale(0.1 -0.1)">
       <defs>
        <path id="DejaVuSans-32" d="M 1228 531 
L 3431 531 
L 3431 0 
L 469 0 
L 469 531 
Q 828 903 1448 1529 
Q 2069 2156 2228 2338 
Q 2531 2678 2651 2914 
Q 2772 3150 2772 3378 
Q 2772 3750 2511 3984 
Q 2250 4219 1831 4219 
Q 1534 4219 1204 4116 
Q 875 4013 500 3803 
L 500 4441 
Q 881 4594 1212 4672 
Q 1544 4750 1819 4750 
Q 2544 4750 2975 4387 
Q 3406 4025 3406 3419 
Q 3406 3131 3298 2873 
Q 3191 2616 2906 2266 
Q 2828 2175 2409 1742 
Q 1991 1309 1228 531 
z
" transform="scale(0.015625)"/>
       </defs>
       <use xlink:href="#DejaVuSans-32"/>
       <use xlink:href="#DejaVuSans-30" x="63.623047"/>
      </g>
     </g>
    </g>
    <g id="xtick_3">
     <g id="line2d_5">
      <path d="M 219.744883 307.584 
L 219.744883 41.472 
" clip-path="url(#p521f1c6344)" style="fill: none; stroke: #ffffff; stroke-width: 0.8; stroke-linecap: square"/>
     </g>
     <g id="line2d_6">
      <g>
       <use xlink:href="#md665fb9150" x="219.744883" y="307.584" style="fill: #555555; stroke: #555555; stroke-width: 0.8"/>
      </g>
     </g>
     <g id="text_3">
      <!-- 40 -->
      <g style="fill: #555555" transform="translate(213.382383 322.182437) scale(0.1 -0.1)">
       <defs>
        <path id="DejaVuSans-34" d="M 2419 4116 
L 825 1625 
L 2419 1625 
L 2419 4116 
z
M 2253 4666 
L 3047 4666 
L 3047 1625 
L 3713 1625 
L 3713 1100 
L 3047 1100 
L 3047 0 
L 2419 0 
L 2419 1100 
L 313 1100 
L 313 1709 
L 2253 4666 
z
" transform="scale(0.015625)"/>
       </defs>
       <use xlink:href="#DejaVuSans-34"/>
       <use xlink:href="#DejaVuSans-30" x="63.623047"/>
      </g>
     </g>
    </g>
    <g id="xtick_4">
     <g id="line2d_7">
      <path d="M 292.70096 307.584 
L 292.70096 41.472 
" clip-path="url(#p521f1c6344)" style="fill: none; stroke: #ffffff; stroke-width: 0.8; stroke-linecap: square"/>
     </g>
     <g id="line2d_8">
      <g>
       <use xlink:href="#md665fb9150" x="292.70096" y="307.584" style="fill: #555555; stroke: #555555; stroke-width: 0.8"/>
      </g>
     </g>
     <g id="text_4">
      <!-- 60 -->
      <g style="fill: #555555" transform="translate(286.33846 322.182437) scale(0.1 -0.1)">
       <defs>
        <path id="DejaVuSans-36" d="M 2113 2584 
Q 1688 2584 1439 2293 
Q 1191 2003 1191 1497 
Q 1191 994 1439 701 
Q 1688 409 2113 409 
Q 2538 409 2786 701 
Q 3034 994 3034 1497 
Q 3034 2003 2786 2293 
Q 2538 2584 2113 2584 
z
M 3366 4563 
L 3366 3988 
Q 3128 4100 2886 4159 
Q 2644 4219 2406 4219 
Q 1781 4219 1451 3797 
Q 1122 3375 1075 2522 
Q 1259 2794 1537 2939 
Q 1816 3084 2150 3084 
Q 2853 3084 3261 2657 
Q 3669 2231 3669 1497 
Q 3669 778 3244 343 
Q 2819 -91 2113 -91 
Q 1303 -91 875 529 
Q 447 1150 447 2328 
Q 447 3434 972 4092 
Q 1497 4750 2381 4750 
Q 2619 4750 2861 4703 
Q 3103 4656 3366 4563 
z
" transform="scale(0.015625)"/>
       </defs>
       <use xlink:href="#DejaVuSans-36"/>
       <use xlink:href="#DejaVuSans-30" x="63.623047"/>
      </g>
     </g>
    </g>
    <g id="xtick_5">
     <g id="line2d_9">
      <path d="M 365.657038 307.584 
L 365.657038 41.472 
" clip-path="url(#p521f1c6344)" style="fill: none; stroke: #ffffff; stroke-width: 0.8; stroke-linecap: square"/>
     </g>
     <g id="line2d_10">
      <g>
       <use xlink:href="#md665fb9150" x="365.657038" y="307.584" style="fill: #555555; stroke: #555555; stroke-width: 0.8"/>
      </g>
     </g>
     <g id="text_5">
      <!-- 80 -->
      <g style="fill: #555555" transform="translate(359.294538 322.182437) scale(0.1 -0.1)">
       <defs>
        <path id="DejaVuSans-38" d="M 2034 2216 
Q 1584 2216 1326 1975 
Q 1069 1734 1069 1313 
Q 1069 891 1326 650 
Q 1584 409 2034 409 
Q 2484 409 2743 651 
Q 3003 894 3003 1313 
Q 3003 1734 2745 1975 
Q 2488 2216 2034 2216 
z
M 1403 2484 
Q 997 2584 770 2862 
Q 544 3141 544 3541 
Q 544 4100 942 4425 
Q 1341 4750 2034 4750 
Q 2731 4750 3128 4425 
Q 3525 4100 3525 3541 
Q 3525 3141 3298 2862 
Q 3072 2584 2669 2484 
Q 3125 2378 3379 2068 
Q 3634 1759 3634 1313 
Q 3634 634 3220 271 
Q 2806 -91 2034 -91 
Q 1263 -91 848 271 
Q 434 634 434 1313 
Q 434 1759 690 2068 
Q 947 2378 1403 2484 
z
M 1172 3481 
Q 1172 3119 1398 2916 
Q 1625 2713 2034 2713 
Q 2441 2713 2670 2916 
Q 2900 3119 2900 3481 
Q 2900 3844 2670 4047 
Q 2441 4250 2034 4250 
Q 1625 4250 1398 4047 
Q 1172 3844 1172 3481 
z
" transform="scale(0.015625)"/>
       </defs>
       <use xlink:href="#DejaVuSans-38"/>
       <use xlink:href="#DejaVuSans-30" x="63.623047"/>
      </g>
     </g>
    </g>
    <g id="text_6">
     <!-- epochs -->
     <g style="fill: #555555" transform="translate(214.760625 337.38025) scale(0.12 -0.12)">
      <defs>
       <path id="DejaVuSans-65" d="M 3597 1894 
L 3597 1613 
L 953 1613 
Q 991 1019 1311 708 
Q 1631 397 2203 397 
Q 2534 397 2845 478 
Q 3156 559 3463 722 
L 3463 178 
Q 3153 47 2828 -22 
Q 2503 -91 2169 -91 
Q 1331 -91 842 396 
Q 353 884 353 1716 
Q 353 2575 817 3079 
Q 1281 3584 2069 3584 
Q 2775 3584 3186 3129 
Q 3597 2675 3597 1894 
z
M 3022 2063 
Q 3016 2534 2758 2815 
Q 2500 3097 2075 3097 
Q 1594 3097 1305 2825 
Q 1016 2553 972 2059 
L 3022 2063 
z
" transform="scale(0.015625)"/>
       <path id="DejaVuSans-70" d="M 1159 525 
L 1159 -1331 
L 581 -1331 
L 581 3500 
L 1159 3500 
L 1159 2969 
Q 1341 3281 1617 3432 
Q 1894 3584 2278 3584 
Q 2916 3584 3314 3078 
Q 3713 2572 3713 1747 
Q 3713 922 3314 415 
Q 2916 -91 2278 -91 
Q 1894 -91 1617 61 
Q 1341 213 1159 525 
z
M 3116 1747 
Q 3116 2381 2855 2742 
Q 2594 3103 2138 3103 
Q 1681 3103 1420 2742 
Q 1159 2381 1159 1747 
Q 1159 1113 1420 752 
Q 1681 391 2138 391 
Q 2594 391 2855 752 
Q 3116 1113 3116 1747 
z
" transform="scale(0.015625)"/>
       <path id="DejaVuSans-6f" d="M 1959 3097 
Q 1497 3097 1228 2736 
Q 959 2375 959 1747 
Q 959 1119 1226 758 
Q 1494 397 1959 397 
Q 2419 397 2687 759 
Q 2956 1122 2956 1747 
Q 2956 2369 2687 2733 
Q 2419 3097 1959 3097 
z
M 1959 3584 
Q 2709 3584 3137 3096 
Q 3566 2609 3566 1747 
Q 3566 888 3137 398 
Q 2709 -91 1959 -91 
Q 1206 -91 779 398 
Q 353 888 353 1747 
Q 353 2609 779 3096 
Q 1206 3584 1959 3584 
z
" transform="scale(0.015625)"/>
       <path id="DejaVuSans-63" d="M 3122 3366 
L 3122 2828 
Q 2878 2963 2633 3030 
Q 2388 3097 2138 3097 
Q 1578 3097 1268 2742 
Q 959 2388 959 1747 
Q 959 1106 1268 751 
Q 1578 397 2138 397 
Q 2388 397 2633 464 
Q 2878 531 3122 666 
L 3122 134 
Q 2881 22 2623 -34 
Q 2366 -91 2075 -91 
Q 1284 -91 818 406 
Q 353 903 353 1747 
Q 353 2603 823 3093 
Q 1294 3584 2113 3584 
Q 2378 3584 2631 3529 
Q 2884 3475 3122 3366 
z
" transform="scale(0.015625)"/>
       <path id="DejaVuSans-68" d="M 3513 2113 
L 3513 0 
L 2938 0 
L 2938 2094 
Q 2938 2591 2744 2837 
Q 2550 3084 2163 3084 
Q 1697 3084 1428 2787 
Q 1159 2491 1159 1978 
L 1159 0 
L 581 0 
L 581 4863 
L 1159 4863 
L 1159 2956 
Q 1366 3272 1645 3428 
Q 1925 3584 2291 3584 
Q 2894 3584 3203 3211 
Q 3513 2838 3513 2113 
z
" transform="scale(0.015625)"/>
       <path id="DejaVuSans-73" d="M 2834 3397 
L 2834 2853 
Q 2591 2978 2328 3040 
Q 2066 3103 1784 3103 
Q 1356 3103 1142 2972 
Q 928 2841 928 2578 
Q 928 2378 1081 2264 
Q 1234 2150 1697 2047 
L 1894 2003 
Q 2506 1872 2764 1633 
Q 3022 1394 3022 966 
Q 3022 478 2636 193 
Q 2250 -91 1575 -91 
Q 1294 -91 989 -36 
Q 684 19 347 128 
L 347 722 
Q 666 556 975 473 
Q 1284 391 1588 391 
Q 1994 391 2212 530 
Q 2431 669 2431 922 
Q 2431 1156 2273 1281 
Q 2116 1406 1581 1522 
L 1381 1569 
Q 847 1681 609 1914 
Q 372 2147 372 2553 
Q 372 3047 722 3315 
Q 1072 3584 1716 3584 
Q 2034 3584 2315 3537 
Q 2597 3491 2834 3397 
z
" transform="scale(0.015625)"/>
      </defs>
      <use xlink:href="#DejaVuSans-65"/>
      <use xlink:href="#DejaVuSans-70" x="61.523438"/>
      <use xlink:href="#DejaVuSans-6f" x="125"/>
      <use xlink:href="#DejaVuSans-63" x="186.181641"/>
      <use xlink:href="#DejaVuSans-68" x="241.162109"/>
      <use xlink:href="#DejaVuSans-73" x="304.541016"/>
     </g>
    </g>
   </g>
   <g id="matplotlib.axis_2">
    <g id="ytick_1">
     <g id="line2d_11">
      <path d="M 57.6 298.320798 
L 414.72 298.320798 
" clip-path="url(#p521f1c6344)" style="fill: none; stroke: #ffffff; stroke-width: 0.8; stroke-linecap: square"/>
     </g>
     <g id="line2d_12">
      <defs>
       <path id="m30f2037d7b" d="M 0 0 
L -3.5 0 
" style="stroke: #555555; stroke-width: 0.8"/>
      </defs>
      <g>
       <use xlink:href="#m30f2037d7b" x="57.6" y="298.320798" style="fill: #555555; stroke: #555555; stroke-width: 0.8"/>
      </g>
     </g>
     <g id="text_7">
      <!-- 0.0 -->
      <g style="fill: #555555" transform="translate(34.696875 302.120017) scale(0.1 -0.1)">
       <defs>
        <path id="DejaVuSans-2e" d="M 684 794 
L 1344 794 
L 1344 0 
L 684 0 
L 684 794 
z
" transform="scale(0.015625)"/>
       </defs>
       <use xlink:href="#DejaVuSans-30"/>
       <use xlink:href="#DejaVuSans-2e" x="63.623047"/>
       <use xlink:href="#DejaVuSans-30" x="95.410156"/>
      </g>
     </g>
    </g>
    <g id="ytick_2">
     <g id="line2d_13">
      <path d="M 57.6 263.823522 
L 414.72 263.823522 
" clip-path="url(#p521f1c6344)" style="fill: none; stroke: #ffffff; stroke-width: 0.8; stroke-linecap: square"/>
     </g>
     <g id="line2d_14">
      <g>
       <use xlink:href="#m30f2037d7b" x="57.6" y="263.823522" style="fill: #555555; stroke: #555555; stroke-width: 0.8"/>
      </g>
     </g>
     <g id="text_8">
      <!-- 0.5 -->
      <g style="fill: #555555" transform="translate(34.696875 267.62274) scale(0.1 -0.1)">
       <defs>
        <path id="DejaVuSans-35" d="M 691 4666 
L 3169 4666 
L 3169 4134 
L 1269 4134 
L 1269 2991 
Q 1406 3038 1543 3061 
Q 1681 3084 1819 3084 
Q 2600 3084 3056 2656 
Q 3513 2228 3513 1497 
Q 3513 744 3044 326 
Q 2575 -91 1722 -91 
Q 1428 -91 1123 -41 
Q 819 9 494 109 
L 494 744 
Q 775 591 1075 516 
Q 1375 441 1709 441 
Q 2250 441 2565 725 
Q 2881 1009 2881 1497 
Q 2881 1984 2565 2268 
Q 2250 2553 1709 2553 
Q 1456 2553 1204 2497 
Q 953 2441 691 2322 
L 691 4666 
z
" transform="scale(0.015625)"/>
       </defs>
       <use xlink:href="#DejaVuSans-30"/>
       <use xlink:href="#DejaVuSans-2e" x="63.623047"/>
       <use xlink:href="#DejaVuSans-35" x="95.410156"/>
      </g>
     </g>
    </g>
    <g id="ytick_3">
     <g id="line2d_15">
      <path d="M 57.6 229.326246 
L 414.72 229.326246 
" clip-path="url(#p521f1c6344)" style="fill: none; stroke: #ffffff; stroke-width: 0.8; stroke-linecap: square"/>
     </g>
     <g id="line2d_16">
      <g>
       <use xlink:href="#m30f2037d7b" x="57.6" y="229.326246" style="fill: #555555; stroke: #555555; stroke-width: 0.8"/>
      </g>
     </g>
     <g id="text_9">
      <!-- 1.0 -->
      <g style="fill: #555555" transform="translate(34.696875 233.125464) scale(0.1 -0.1)">
       <defs>
        <path id="DejaVuSans-31" d="M 794 531 
L 1825 531 
L 1825 4091 
L 703 3866 
L 703 4441 
L 1819 4666 
L 2450 4666 
L 2450 531 
L 3481 531 
L 3481 0 
L 794 0 
L 794 531 
z
" transform="scale(0.015625)"/>
       </defs>
       <use xlink:href="#DejaVuSans-31"/>
       <use xlink:href="#DejaVuSans-2e" x="63.623047"/>
       <use xlink:href="#DejaVuSans-30" x="95.410156"/>
      </g>
     </g>
    </g>
    <g id="ytick_4">
     <g id="line2d_17">
      <path d="M 57.6 194.828969 
L 414.72 194.828969 
" clip-path="url(#p521f1c6344)" style="fill: none; stroke: #ffffff; stroke-width: 0.8; stroke-linecap: square"/>
     </g>
     <g id="line2d_18">
      <g>
       <use xlink:href="#m30f2037d7b" x="57.6" y="194.828969" style="fill: #555555; stroke: #555555; stroke-width: 0.8"/>
      </g>
     </g>
     <g id="text_10">
      <!-- 1.5 -->
      <g style="fill: #555555" transform="translate(34.696875 198.628188) scale(0.1 -0.1)">
       <use xlink:href="#DejaVuSans-31"/>
       <use xlink:href="#DejaVuSans-2e" x="63.623047"/>
       <use xlink:href="#DejaVuSans-35" x="95.410156"/>
      </g>
     </g>
    </g>
    <g id="ytick_5">
     <g id="line2d_19">
      <path d="M 57.6 160.331693 
L 414.72 160.331693 
" clip-path="url(#p521f1c6344)" style="fill: none; stroke: #ffffff; stroke-width: 0.8; stroke-linecap: square"/>
     </g>
     <g id="line2d_20">
      <g>
       <use xlink:href="#m30f2037d7b" x="57.6" y="160.331693" style="fill: #555555; stroke: #555555; stroke-width: 0.8"/>
      </g>
     </g>
     <g id="text_11">
      <!-- 2.0 -->
      <g style="fill: #555555" transform="translate(34.696875 164.130912) scale(0.1 -0.1)">
       <use xlink:href="#DejaVuSans-32"/>
       <use xlink:href="#DejaVuSans-2e" x="63.623047"/>
       <use xlink:href="#DejaVuSans-30" x="95.410156"/>
      </g>
     </g>
    </g>
    <g id="ytick_6">
     <g id="line2d_21">
      <path d="M 57.6 125.834417 
L 414.72 125.834417 
" clip-path="url(#p521f1c6344)" style="fill: none; stroke: #ffffff; stroke-width: 0.8; stroke-linecap: square"/>
     </g>
     <g id="line2d_22">
      <g>
       <use xlink:href="#m30f2037d7b" x="57.6" y="125.834417" style="fill: #555555; stroke: #555555; stroke-width: 0.8"/>
      </g>
     </g>
     <g id="text_12">
      <!-- 2.5 -->
      <g style="fill: #555555" transform="translate(34.696875 129.633636) scale(0.1 -0.1)">
       <use xlink:href="#DejaVuSans-32"/>
       <use xlink:href="#DejaVuSans-2e" x="63.623047"/>
       <use xlink:href="#DejaVuSans-35" x="95.410156"/>
      </g>
     </g>
    </g>
    <g id="ytick_7">
     <g id="line2d_23">
      <path d="M 57.6 91.337141 
L 414.72 91.337141 
" clip-path="url(#p521f1c6344)" style="fill: none; stroke: #ffffff; stroke-width: 0.8; stroke-linecap: square"/>
     </g>
     <g id="line2d_24">
      <g>
       <use xlink:href="#m30f2037d7b" x="57.6" y="91.337141" style="fill: #555555; stroke: #555555; stroke-width: 0.8"/>
      </g>
     </g>
     <g id="text_13">
      <!-- 3.0 -->
      <g style="fill: #555555" transform="translate(34.696875 95.13636) scale(0.1 -0.1)">
       <defs>
        <path id="DejaVuSans-33" d="M 2597 2516 
Q 3050 2419 3304 2112 
Q 3559 1806 3559 1356 
Q 3559 666 3084 287 
Q 2609 -91 1734 -91 
Q 1441 -91 1130 -33 
Q 819 25 488 141 
L 488 750 
Q 750 597 1062 519 
Q 1375 441 1716 441 
Q 2309 441 2620 675 
Q 2931 909 2931 1356 
Q 2931 1769 2642 2001 
Q 2353 2234 1838 2234 
L 1294 2234 
L 1294 2753 
L 1863 2753 
Q 2328 2753 2575 2939 
Q 2822 3125 2822 3475 
Q 2822 3834 2567 4026 
Q 2313 4219 1838 4219 
Q 1578 4219 1281 4162 
Q 984 4106 628 3988 
L 628 4550 
Q 988 4650 1302 4700 
Q 1616 4750 1894 4750 
Q 2613 4750 3031 4423 
Q 3450 4097 3450 3541 
Q 3450 3153 3228 2886 
Q 3006 2619 2597 2516 
z
" transform="scale(0.015625)"/>
       </defs>
       <use xlink:href="#DejaVuSans-33"/>
       <use xlink:href="#DejaVuSans-2e" x="63.623047"/>
       <use xlink:href="#DejaVuSans-30" x="95.410156"/>
      </g>
     </g>
    </g>
    <g id="ytick_8">
     <g id="line2d_25">
      <path d="M 57.6 56.839865 
L 414.72 56.839865 
" clip-path="url(#p521f1c6344)" style="fill: none; stroke: #ffffff; stroke-width: 0.8; stroke-linecap: square"/>
     </g>
     <g id="line2d_26">
      <g>
       <use xlink:href="#m30f2037d7b" x="57.6" y="56.839865" style="fill: #555555; stroke: #555555; stroke-width: 0.8"/>
      </g>
     </g>
     <g id="text_14">
      <!-- 3.5 -->
      <g style="fill: #555555" transform="translate(34.696875 60.639084) scale(0.1 -0.1)">
       <use xlink:href="#DejaVuSans-33"/>
       <use xlink:href="#DejaVuSans-2e" x="63.623047"/>
       <use xlink:href="#DejaVuSans-35" x="95.410156"/>
      </g>
     </g>
    </g>
    <g id="text_15">
     <!-- values -->
     <g style="fill: #555555" transform="translate(28.20125 194.043) rotate(-90) scale(0.12 -0.12)">
      <defs>
       <path id="DejaVuSans-76" d="M 191 3500 
L 800 3500 
L 1894 563 
L 2988 3500 
L 3597 3500 
L 2284 0 
L 1503 0 
L 191 3500 
z
" transform="scale(0.015625)"/>
       <path id="DejaVuSans-61" d="M 2194 1759 
Q 1497 1759 1228 1600 
Q 959 1441 959 1056 
Q 959 750 1161 570 
Q 1363 391 1709 391 
Q 2188 391 2477 730 
Q 2766 1069 2766 1631 
L 2766 1759 
L 2194 1759 
z
M 3341 1997 
L 3341 0 
L 2766 0 
L 2766 531 
Q 2569 213 2275 61 
Q 1981 -91 1556 -91 
Q 1019 -91 701 211 
Q 384 513 384 1019 
Q 384 1609 779 1909 
Q 1175 2209 1959 2209 
L 2766 2209 
L 2766 2266 
Q 2766 2663 2505 2880 
Q 2244 3097 1772 3097 
Q 1472 3097 1187 3025 
Q 903 2953 641 2809 
L 641 3341 
Q 956 3463 1253 3523 
Q 1550 3584 1831 3584 
Q 2591 3584 2966 3190 
Q 3341 2797 3341 1997 
z
" transform="scale(0.015625)"/>
       <path id="DejaVuSans-6c" d="M 603 4863 
L 1178 4863 
L 1178 0 
L 603 0 
L 603 4863 
z
" transform="scale(0.015625)"/>
       <path id="DejaVuSans-75" d="M 544 1381 
L 544 3500 
L 1119 3500 
L 1119 1403 
Q 1119 906 1312 657 
Q 1506 409 1894 409 
Q 2359 409 2629 706 
Q 2900 1003 2900 1516 
L 2900 3500 
L 3475 3500 
L 3475 0 
L 2900 0 
L 2900 538 
Q 2691 219 2414 64 
Q 2138 -91 1772 -91 
Q 1169 -91 856 284 
Q 544 659 544 1381 
z
M 1991 3584 
L 1991 3584 
z
" transform="scale(0.015625)"/>
      </defs>
      <use xlink:href="#DejaVuSans-76"/>
      <use xlink:href="#DejaVuSans-61" x="59.179688"/>
      <use xlink:href="#DejaVuSans-6c" x="120.458984"/>
      <use xlink:href="#DejaVuSans-75" x="148.242188"/>
      <use xlink:href="#DejaVuSans-65" x="211.621094"/>
      <use xlink:href="#DejaVuSans-73" x="273.144531"/>
     </g>
    </g>
   </g>
   <g id="PolyCollection_1">
    <defs>
     <path id="m4bb292aa5a" d="M 73.832727 -95.531229 
L 73.832727 -95.279449 
L 77.480531 -95.166604 
L 81.128335 -94.887808 
L 84.776139 -94.543243 
L 88.423943 -94.137424 
L 92.071747 -93.656844 
L 95.719551 -93.195484 
L 99.367354 -92.666981 
L 103.015158 -92.185778 
L 106.662962 -91.666275 
L 110.310766 -91.079983 
L 113.95857 -90.535875 
L 117.606374 -89.936611 
L 121.254178 -89.313318 
L 124.901982 -88.653076 
L 128.549785 -87.987797 
L 132.197589 -87.303121 
L 135.845393 -86.583641 
L 139.493197 -85.80337 
L 143.141001 -85.05895 
L 146.788805 -84.292942 
L 150.436609 -83.491414 
L 154.084413 -82.744661 
L 157.732217 -81.910343 
L 161.38002 -81.160304 
L 165.027824 -80.368074 
L 168.675628 -79.592055 
L 172.323432 -78.978547 
L 175.971236 -78.115238 
L 179.61904 -77.542451 
L 183.266844 -76.933373 
L 186.914648 -76.32496 
L 190.562451 -75.141178 
L 194.210255 -74.157829 
L 197.858059 -73.090643 
L 201.505863 -72.017375 
L 205.153667 -71.032536 
L 208.801471 -70.050868 
L 212.449275 -69.093204 
L 216.097079 -68.13637 
L 219.744883 -67.261365 
L 223.392686 -66.362062 
L 227.04049 -65.611035 
L 230.688294 -64.80353 
L 234.336098 -64.069322 
L 237.983902 -63.376479 
L 241.631706 -62.65042 
L 245.27951 -62.006563 
L 248.927314 -61.377446 
L 252.575117 -60.777445 
L 256.222921 -60.233289 
L 259.870725 -59.636357 
L 263.518529 -59.138408 
L 267.166333 -58.646127 
L 270.814137 -58.104298 
L 274.461941 -57.632695 
L 278.109745 -57.237266 
L 281.757549 -56.82447 
L 285.405352 -56.417431 
L 289.053156 -56.034005 
L 292.70096 -55.603746 
L 296.348764 -55.30181 
L 299.996568 -54.952042 
L 303.644372 -54.683261 
L 307.292176 -54.332612 
L 310.93998 -54.034639 
L 314.587783 -53.712161 
L 318.235587 -53.486261 
L 321.883391 -53.251678 
L 325.531195 -52.972447 
L 329.178999 -52.833816 
L 332.826803 -52.510852 
L 336.474607 -52.398196 
L 340.122411 -52.215176 
L 343.770215 -52.059779 
L 347.418018 -51.885267 
L 351.065822 -51.699823 
L 354.713626 -51.564105 
L 358.36143 -51.390549 
L 362.009234 -51.255909 
L 365.657038 -51.091272 
L 369.304842 -50.981511 
L 372.952646 -50.849443 
L 376.600449 -50.720737 
L 380.248253 -50.626735 
L 383.896057 -50.470253 
L 387.543861 -50.424961 
L 391.191665 -50.34084 
L 394.839469 -50.209332 
L 398.487273 -50.112 
L 398.487273 -51.363567 
L 398.487273 -51.363567 
L 394.839469 -51.578996 
L 391.191665 -51.578463 
L 387.543861 -51.74352 
L 383.896057 -51.742685 
L 380.248253 -51.909333 
L 376.600449 -51.96217 
L 372.952646 -52.051009 
L 369.304842 -52.166624 
L 365.657038 -52.284204 
L 362.009234 -52.434753 
L 358.36143 -52.529941 
L 354.713626 -52.688225 
L 351.065822 -52.927699 
L 347.418018 -53.113092 
L 343.770215 -53.244876 
L 340.122411 -53.428904 
L 336.474607 -53.557409 
L 332.826803 -53.735689 
L 329.178999 -53.944314 
L 325.531195 -54.255716 
L 321.883391 -54.42947 
L 318.235587 -54.646191 
L 314.587783 -54.923214 
L 310.93998 -55.1674 
L 307.292176 -55.52234 
L 303.644372 -55.779373 
L 299.996568 -56.117645 
L 296.348764 -56.469371 
L 292.70096 -56.814016 
L 289.053156 -57.182127 
L 285.405352 -57.662555 
L 281.757549 -58.065201 
L 278.109745 -58.449571 
L 274.461941 -58.920263 
L 270.814137 -59.456161 
L 267.166333 -59.925467 
L 263.518529 -60.398743 
L 259.870725 -60.961854 
L 256.222921 -61.505867 
L 252.575117 -62.136633 
L 248.927314 -62.688101 
L 245.27951 -63.428671 
L 241.631706 -64.082532 
L 237.983902 -64.756491 
L 234.336098 -65.446862 
L 230.688294 -66.12782 
L 227.04049 -66.957088 
L 223.392686 -67.771069 
L 219.744883 -68.59516 
L 216.097079 -69.393601 
L 212.449275 -70.301595 
L 208.801471 -71.163402 
L 205.153667 -72.110196 
L 201.505863 -73.045397 
L 197.858059 -74.062629 
L 194.210255 -75.043213 
L 190.562451 -76.0393 
L 186.914648 -77.165682 
L 183.266844 -77.867592 
L 179.61904 -78.52684 
L 175.971236 -79.208632 
L 172.323432 -80.042684 
L 168.675628 -80.813182 
L 165.027824 -81.616015 
L 161.38002 -82.423756 
L 157.732217 -83.24886 
L 154.084413 -84.05189 
L 150.436609 -84.862783 
L 146.788805 -85.628941 
L 143.141001 -86.433129 
L 139.493197 -87.185176 
L 135.845393 -87.826082 
L 132.197589 -88.529978 
L 128.549785 -89.162884 
L 124.901982 -89.769642 
L 121.254178 -90.344784 
L 117.606374 -90.914084 
L 113.95857 -91.421826 
L 110.310766 -91.897965 
L 106.662962 -92.387381 
L 103.015158 -92.851893 
L 99.367354 -93.296548 
L 95.719551 -93.747756 
L 92.071747 -94.173024 
L 88.423943 -94.548514 
L 84.776139 -94.909509 
L 81.128335 -95.181535 
L 77.480531 -95.399925 
L 73.832727 -95.531229 
z
" style="stroke: #e24a33; stroke-opacity: 0.2"/>
    </defs>
    <g clip-path="url(#p521f1c6344)">
     <use xlink:href="#m4bb292aa5a" x="0" y="345.6" style="fill: #e24a33; fill-opacity: 0.2; stroke: #e24a33; stroke-opacity: 0.2"/>
    </g>
   </g>
   <g id="PolyCollection_2">
    <defs>
     <path id="m6ad36bd8f8" d="M 73.832727 -95.792323 
L 73.832727 -93.61561 
L 77.480531 -93.903464 
L 81.128335 -94.367873 
L 84.776139 -94.750178 
L 88.423943 -95.252698 
L 92.071747 -95.849743 
L 95.719551 -96.323461 
L 99.367354 -96.926998 
L 103.015158 -97.622842 
L 106.662962 -98.188393 
L 110.310766 -98.906022 
L 113.95857 -99.56858 
L 117.606374 -100.501976 
L 121.254178 -101.2871 
L 124.901982 -102.173819 
L 128.549785 -103.194688 
L 132.197589 -104.276949 
L 135.845393 -105.496644 
L 139.493197 -106.465925 
L 143.141001 -107.87412 
L 146.788805 -109.255727 
L 150.436609 -110.615542 
L 154.084413 -112.018097 
L 157.732217 -113.402814 
L 161.38002 -114.544165 
L 165.027824 -115.974959 
L 168.675628 -117.970713 
L 172.323432 -119.057172 
L 175.971236 -120.896028 
L 179.61904 -122.205338 
L 183.266844 -124.059857 
L 186.914648 -125.407433 
L 190.562451 -129.038697 
L 194.210255 -131.578274 
L 197.858059 -134.938381 
L 201.505863 -138.32361 
L 205.153667 -140.984752 
L 208.801471 -144.216385 
L 212.449275 -146.830264 
L 216.097079 -149.425652 
L 219.744883 -152.238891 
L 223.392686 -154.709419 
L 227.04049 -156.753631 
L 230.688294 -159.28768 
L 234.336098 -162.160697 
L 237.983902 -164.808649 
L 241.631706 -167.30793 
L 245.27951 -170.128928 
L 248.927314 -173.495924 
L 252.575117 -175.759401 
L 256.222921 -179.014152 
L 259.870725 -181.878797 
L 263.518529 -185.911355 
L 267.166333 -188.246698 
L 270.814137 -191.962479 
L 274.461941 -194.658216 
L 278.109745 -198.044422 
L 281.757549 -201.432483 
L 285.405352 -204.517905 
L 289.053156 -207.284136 
L 292.70096 -210.214234 
L 296.348764 -213.192957 
L 299.996568 -216.498604 
L 303.644372 -219.429574 
L 307.292176 -221.660068 
L 310.93998 -225.072978 
L 314.587783 -227.828101 
L 318.235587 -230.577904 
L 321.883391 -231.891752 
L 325.531195 -235.045193 
L 329.178999 -236.817945 
L 332.826803 -238.539574 
L 336.474607 -240.574796 
L 340.122411 -243.421488 
L 343.770215 -244.567096 
L 347.418018 -246.919074 
L 351.065822 -249.252244 
L 354.713626 -250.405721 
L 358.36143 -252.387304 
L 362.009234 -252.90694 
L 365.657038 -256.115526 
L 369.304842 -257.952097 
L 372.952646 -259.325699 
L 376.600449 -260.758368 
L 380.248253 -261.782488 
L 383.896057 -264.620099 
L 387.543861 -265.784598 
L 391.191665 -267.310142 
L 394.839469 -269.606672 
L 398.487273 -271.300307 
L 398.487273 -292.032 
L 398.487273 -292.032 
L 394.839469 -290.560878 
L 391.191665 -288.437871 
L 387.543861 -284.490504 
L 383.896057 -283.051903 
L 380.248253 -281.187889 
L 376.600449 -278.56346 
L 372.952646 -275.733437 
L 369.304842 -273.852008 
L 365.657038 -271.340879 
L 362.009234 -268.694809 
L 358.36143 -266.239369 
L 354.713626 -263.579544 
L 351.065822 -260.93762 
L 347.418018 -258.829273 
L 343.770215 -256.579687 
L 340.122411 -254.457283 
L 336.474607 -252.082743 
L 332.826803 -250.929149 
L 329.178999 -246.409999 
L 325.531195 -245.306104 
L 321.883391 -243.701026 
L 318.235587 -240.6537 
L 314.587783 -237.825301 
L 310.93998 -235.013024 
L 307.292176 -232.57109 
L 303.644372 -229.661261 
L 299.996568 -226.782903 
L 296.348764 -223.617694 
L 292.70096 -221.356519 
L 289.053156 -218.2978 
L 285.405352 -214.920309 
L 281.757549 -211.849402 
L 278.109745 -208.921265 
L 274.461941 -206.081135 
L 270.814137 -202.694189 
L 267.166333 -199.342896 
L 263.518529 -195.665815 
L 259.870725 -192.382807 
L 256.222921 -189.000919 
L 252.575117 -186.172387 
L 248.927314 -182.482988 
L 245.27951 -178.559922 
L 241.631706 -176.084412 
L 237.983902 -172.76614 
L 234.336098 -169.383332 
L 230.688294 -166.93346 
L 227.04049 -163.862071 
L 223.392686 -160.970428 
L 219.744883 -157.816976 
L 216.097079 -155.463384 
L 212.449275 -152.610492 
L 208.801471 -150.230061 
L 205.153667 -147.273364 
L 201.505863 -144.36918 
L 197.858059 -140.901383 
L 194.210255 -137.597741 
L 190.562451 -134.157463 
L 186.914648 -130.087637 
L 183.266844 -128.384617 
L 179.61904 -127.400453 
L 175.971236 -126.187413 
L 172.323432 -124.348243 
L 168.675628 -123.080367 
L 165.027824 -121.422428 
L 161.38002 -119.645824 
L 157.732217 -118.172595 
L 154.084413 -116.652294 
L 150.436609 -115.269595 
L 146.788805 -113.793379 
L 143.141001 -112.289191 
L 139.493197 -110.875525 
L 135.845393 -109.403339 
L 132.197589 -108.050979 
L 128.549785 -106.7565 
L 124.901982 -105.511555 
L 121.254178 -104.268311 
L 117.606374 -103.279321 
L 113.95857 -102.205042 
L 110.310766 -101.289197 
L 106.662962 -100.442577 
L 103.015158 -99.751432 
L 99.367354 -98.969138 
L 95.719551 -98.286041 
L 92.071747 -97.664351 
L 88.423943 -97.12762 
L 84.776139 -96.753579 
L 81.128335 -96.362809 
L 77.480531 -96.058941 
L 73.832727 -95.792323 
z
" style="stroke: #348abd; stroke-opacity: 0.2"/>
    </defs>
    <g clip-path="url(#p521f1c6344)">
     <use xlink:href="#m6ad36bd8f8" x="0" y="345.6" style="fill: #348abd; fill-opacity: 0.2; stroke: #348abd; stroke-opacity: 0.2"/>
    </g>
   </g>
   <g id="PolyCollection_3">
    <defs>
     <path id="m3ebc6d6cc1" d="M 73.832727 -77.393628 
L 73.832727 -65.849411 
L 77.480531 -67.765494 
L 81.128335 -72.303866 
L 84.776139 -77.860189 
L 88.423943 -83.854798 
L 92.071747 -87.601428 
L 95.719551 -90.202862 
L 99.367354 -92.366011 
L 103.015158 -93.596037 
L 106.662962 -94.147428 
L 110.310766 -94.359501 
L 113.95857 -94.709776 
L 117.606374 -94.896754 
L 121.254178 -94.981583 
L 124.901982 -95.177751 
L 128.549785 -95.702633 
L 132.197589 -96.084365 
L 135.845393 -96.480235 
L 139.493197 -96.777138 
L 143.141001 -96.960935 
L 146.788805 -97.059903 
L 150.436609 -97.15887 
L 154.084413 -97.228148 
L 157.732217 -97.16912 
L 161.38002 -97.088179 
L 165.027824 -97.031626 
L 168.675628 -96.932659 
L 172.323432 -96.946797 
L 175.971236 -96.959168 
L 179.61904 -96.874692 
L 183.266844 -96.819553 
L 186.914648 -97.144732 
L 190.562451 -97.3409 
L 194.210255 -97.2437 
L 197.858059 -97.441635 
L 201.505863 -97.512326 
L 205.153667 -97.427497 
L 208.801471 -97.526464 
L 212.449275 -97.427497 
L 216.097079 -97.15887 
L 219.744883 -96.734723 
L 223.392686 -96.381268 
L 227.04049 -96.197471 
L 230.688294 -96.056088 
L 234.336098 -96.056088 
L 237.983902 -96.268162 
L 241.631706 -96.112641 
L 245.27951 -96.070227 
L 248.927314 -95.88643 
L 252.575117 -95.815739 
L 256.222921 -96.070227 
L 259.870725 -95.730909 
L 263.518529 -95.872292 
L 267.166333 -96.112641 
L 270.814137 -96.451959 
L 274.461941 -96.211609 
L 278.109745 -96.211609 
L 281.757549 -96.188988 
L 285.405352 -96.211609 
L 289.053156 -96.155056 
L 292.70096 -95.826342 
L 296.348764 -95.617803 
L 299.996568 -95.702633 
L 303.644372 -95.787462 
L 307.292176 -95.306762 
L 310.93998 -95.547112 
L 314.587783 -95.434006 
L 318.235587 -95.40573 
L 321.883391 -95.16538 
L 325.531195 -95.093629 
L 329.178999 -94.698819 
L 332.826803 -94.670542 
L 336.474607 -94.868477 
L 340.122411 -94.557436 
L 343.770215 -94.712957 
L 347.418018 -94.359501 
L 351.065822 -94.118444 
L 354.713626 -94.020184 
L 358.36143 -93.963631 
L 362.009234 -93.949493 
L 365.657038 -93.836387 
L 369.304842 -94.020184 
L 372.952646 -94.175704 
L 376.600449 -93.907078 
L 380.248253 -93.32741 
L 383.896057 -93.723281 
L 387.543861 -93.072922 
L 391.191665 -93.002231 
L 394.839469 -92.648776 
L 398.487273 -92.493255 
L 398.487273 -99.364434 
L 398.487273 -99.364434 
L 394.839469 -99.425582 
L 391.191665 -99.47754 
L 387.543861 -99.519954 
L 383.896057 -99.406848 
L 380.248253 -99.675475 
L 376.600449 -100.11376 
L 372.952646 -100.255142 
L 369.304842 -100.057207 
L 365.657038 -100.467216 
L 362.009234 -100.241004 
L 358.36143 -100.000654 
L 354.713626 -100.297557 
L 351.065822 -100.453077 
L 347.418018 -100.511398 
L 343.770215 -100.453077 
L 340.122411 -100.438939 
L 336.474607 -100.382386 
L 332.826803 -100.35411 
L 329.178999 -100.283419 
L 325.531195 -100.018327 
L 321.883391 -100.085483 
L 318.235587 -100.156175 
L 314.587783 -100.212727 
L 310.93998 -100.297557 
L 307.292176 -100.311695 
L 303.644372 -100.214495 
L 299.996568 -100.170313 
L 296.348764 -100.142036 
L 292.70096 -100.099622 
L 289.053156 -100.212727 
L 285.405352 -100.410663 
L 281.757549 -100.339972 
L 278.109745 -100.35411 
L 274.461941 -100.212727 
L 270.814137 -100.26928 
L 267.166333 -100.028931 
L 263.518529 -99.859272 
L 259.870725 -99.746166 
L 256.222921 -99.689613 
L 252.575117 -99.760304 
L 248.927314 -99.733088 
L 245.27951 -99.746166 
L 241.631706 -99.760304 
L 237.983902 -99.774442 
L 234.336098 -99.87341 
L 230.688294 -99.944101 
L 227.04049 -100.071345 
L 223.392686 -100.170313 
L 219.744883 -100.297557 
L 216.097079 -100.35411 
L 212.449275 -100.566183 
L 208.801471 -100.651013 
L 205.153667 -100.59446 
L 201.505863 -100.523768 
L 197.858059 -100.438939 
L 194.210255 -100.297557 
L 190.562451 -100.283419 
L 186.914648 -100.11376 
L 183.266844 -99.887548 
L 179.61904 -99.859625 
L 175.971236 -99.944101 
L 172.323432 -100.000654 
L 168.675628 -99.974145 
L 165.027824 -100.127898 
L 161.38002 -100.156175 
L 157.732217 -100.325833 
L 154.084413 -100.099622 
L 150.436609 -99.845134 
L 146.788805 -99.816857 
L 143.141001 -99.774442 
L 139.493197 -99.364434 
L 135.845393 -99.223052 
L 132.197589 -98.968563 
L 128.549785 -98.699937 
L 124.901982 -98.558555 
L 121.254178 -98.60097 
L 117.606374 -98.60097 
L 113.95857 -98.770628 
L 110.310766 -99.025116 
L 106.662962 -98.954425 
L 103.015158 -98.982702 
L 99.367354 -98.685799 
L 95.719551 -98.502002 
L 92.071747 -97.370944 
L 88.423943 -94.359501 
L 84.776139 -90.358383 
L 81.128335 -86.512785 
L 77.480531 -81.022204 
L 73.832727 -77.393628 
z
" style="stroke: #988ed5; stroke-opacity: 0.2"/>
    </defs>
    <g clip-path="url(#p521f1c6344)">
     <use xlink:href="#m3ebc6d6cc1" x="0" y="345.6" style="fill: #988ed5; fill-opacity: 0.2; stroke: #988ed5; stroke-opacity: 0.2"/>
    </g>
   </g>
   <g id="line2d_27">
    <path d="M 73.832727 250.193996 
L 77.480531 250.318919 
L 81.128335 250.565096 
L 84.776139 250.870696 
L 88.423943 251.238518 
L 92.071747 251.650903 
L 95.719551 252.07874 
L 99.367354 252.544626 
L 103.015158 253.010035 
L 106.662962 253.496951 
L 110.310766 254.010431 
L 113.95857 254.522481 
L 117.606374 255.07689 
L 121.254178 255.656297 
L 124.901982 256.268986 
L 128.549785 256.899679 
L 132.197589 257.567464 
L 135.845393 258.271313 
L 139.493197 258.986559 
L 143.141001 259.735571 
L 146.788805 260.509289 
L 150.436609 261.305373 
L 154.084413 262.083015 
L 157.732217 262.912375 
L 161.38002 263.714996 
L 165.027824 264.499957 
L 168.675628 265.311527 
L 172.323432 266.046551 
L 175.971236 266.833896 
L 179.61904 267.517323 
L 183.266844 268.174293 
L 186.914648 268.821948 
L 190.562451 270.01032 
L 194.210255 271.009999 
L 197.858059 272.039546 
L 201.505863 273.06359 
L 205.153667 274.026256 
L 208.801471 275.010436 
L 212.449275 275.930369 
L 216.097079 276.860984 
L 219.744883 277.719155 
L 223.392686 278.595926 
L 227.04049 279.380268 
L 230.688294 280.182295 
L 234.336098 280.896637 
L 237.983902 281.613254 
L 241.631706 282.296119 
L 245.27951 282.935792 
L 248.927314 283.592631 
L 252.575117 284.168273 
L 256.222921 284.749265 
L 259.870725 285.301863 
L 263.518529 285.867065 
L 267.166333 286.347196 
L 270.814137 286.85246 
L 274.461941 287.334521 
L 278.109745 287.783033 
L 281.757549 288.223021 
L 285.405352 288.631136 
L 289.053156 289.022614 
L 292.70096 289.400973 
L 296.348764 289.729195 
L 299.996568 290.088106 
L 303.644372 290.409099 
L 307.292176 290.693884 
L 310.93998 291.007875 
L 314.587783 291.294632 
L 318.235587 291.551239 
L 321.883391 291.763328 
L 325.531195 292.024606 
L 329.178999 292.210935 
L 332.826803 292.44578 
L 336.474607 292.636329 
L 340.122411 292.825081 
L 343.770215 292.990604 
L 347.418018 293.151873 
L 351.065822 293.32067 
L 354.713626 293.465371 
L 358.36143 293.628357 
L 362.009234 293.750641 
L 365.657038 293.898717 
L 369.304842 294.032859 
L 372.952646 294.136967 
L 376.600449 294.245181 
L 380.248253 294.34843 
L 383.896057 294.482223 
L 387.543861 294.553962 
L 391.191665 294.657634 
L 394.839469 294.751576 
L 398.487273 294.849268 
" clip-path="url(#p521f1c6344)" style="fill: none; stroke: #e24a33; stroke-width: 2; stroke-linecap: round"/>
   </g>
   <g id="line2d_28">
    <path d="M 73.832727 250.831241 
L 77.480531 250.5926 
L 81.128335 250.234659 
L 84.776139 249.848121 
L 88.423943 249.395716 
L 92.071747 248.860578 
L 95.719551 248.296057 
L 99.367354 247.651932 
L 103.015158 246.99454 
L 106.662962 246.284515 
L 110.310766 245.503688 
L 113.95857 244.713189 
L 117.606374 243.799267 
L 121.254178 242.815634 
L 124.901982 241.739794 
L 128.549785 240.624406 
L 132.197589 239.436036 
L 135.845393 238.150008 
L 139.493197 236.850811 
L 143.141001 235.490382 
L 146.788805 234.075447 
L 150.436609 232.585059 
L 154.084413 231.203344 
L 157.732217 229.645145 
L 161.38002 228.164032 
L 165.027824 226.684066 
L 168.675628 225.07446 
L 172.323432 223.667137 
L 175.971236 222.014468 
L 179.61904 220.638423 
L 183.266844 219.25788 
L 186.914648 217.790278 
L 190.562451 213.994132 
L 194.210255 210.771665 
L 197.858059 207.413985 
L 201.505863 204.077063 
L 205.153667 201.180718 
L 208.801471 198.17767 
L 212.449275 195.602381 
L 216.097079 192.855582 
L 219.744883 190.41209 
L 223.392686 187.530365 
L 227.04049 185.043387 
L 230.688294 182.143617 
L 234.336098 179.523387 
L 237.983902 176.61632 
L 241.631706 173.666378 
L 245.27951 170.811382 
L 248.927314 167.611124 
L 252.575117 164.761953 
L 256.222921 161.656605 
L 259.870725 158.641637 
L 263.518529 155.159903 
L 267.166333 152.429481 
L 270.814137 149.153869 
L 274.461941 145.909452 
L 278.109745 142.921915 
L 281.757549 139.685453 
L 285.405352 136.646021 
L 289.053156 133.647749 
L 292.70096 130.579974 
L 296.348764 128.082098 
L 299.996568 124.827018 
L 303.644372 121.836872 
L 307.292176 119.369942 
L 310.93998 116.239283 
L 314.587783 113.33174 
L 318.235587 110.662355 
L 321.883391 108.792007 
L 325.531195 105.772035 
L 329.178999 104.064674 
L 332.826803 100.935575 
L 336.474607 99.064958 
L 340.122411 96.720198 
L 343.770215 94.80245 
L 347.418018 92.724209 
L 351.065822 90.392895 
L 354.713626 88.337198 
L 358.36143 85.841598 
L 362.009234 83.956578 
L 365.657038 81.558811 
L 369.304842 79.256281 
L 372.952646 77.567106 
L 376.600449 75.566847 
L 380.248253 73.548888 
L 383.896057 70.903064 
L 387.543861 69.771366 
L 391.191665 67.143338 
L 394.839469 65.026809 
L 398.487273 62.99544 
" clip-path="url(#p521f1c6344)" style="fill: none; stroke: #348abd; stroke-width: 2; stroke-linecap: round"/>
   </g>
   <g id="line2d_29">
    <path d="M 73.832727 273.380964 
L 77.480531 270.694701 
L 81.128335 265.887703 
L 84.776139 261.038291 
L 88.423943 256.316123 
L 92.071747 252.512939 
L 95.719551 250.533587 
L 99.367354 249.190456 
L 103.015158 248.511821 
L 106.662962 248.384577 
L 110.310766 248.554236 
L 113.95857 248.738033 
L 117.606374 248.893553 
L 121.254178 248.780447 
L 124.901982 248.766309 
L 128.549785 248.426992 
L 132.197589 248.045259 
L 135.845393 247.677665 
L 139.493197 247.465592 
L 143.141001 247.168689 
L 146.788805 247.08386 
L 150.436609 247.055583 
L 154.084413 246.900063 
L 157.732217 246.829372 
L 161.38002 246.885925 
L 165.027824 246.928339 
L 168.675628 246.857648 
L 172.323432 246.956616 
L 175.971236 246.885925 
L 179.61904 246.900063 
L 183.266844 246.871786 
L 186.914648 246.645575 
L 190.562451 246.504193 
L 194.210255 246.475916 
L 197.858059 246.334534 
L 201.505863 246.292119 
L 205.153667 246.292119 
L 208.801471 246.221428 
L 212.449275 246.334534 
L 216.097079 246.60316 
L 219.744883 246.815234 
L 223.392686 246.984892 
L 227.04049 247.126275 
L 230.688294 247.225242 
L 234.336098 247.295933 
L 237.983902 247.394901 
L 241.631706 247.394901 
L 245.27951 247.451454 
L 248.927314 247.437316 
L 252.575117 247.47973 
L 256.222921 247.508007 
L 259.870725 247.550421 
L 263.518529 247.47973 
L 267.166333 247.366624 
L 270.814137 247.253519 
L 274.461941 247.225242 
L 278.109745 247.211104 
L 281.757549 247.225242 
L 285.405352 247.225242 
L 289.053156 247.394901 
L 292.70096 247.536283 
L 296.348764 247.621113 
L 299.996568 247.578698 
L 303.644372 247.56456 
L 307.292176 247.635251 
L 310.93998 247.677665 
L 314.587783 247.776633 
L 318.235587 247.819048 
L 321.883391 247.96043 
L 325.531195 247.974568 
L 329.178999 248.016983 
L 332.826803 247.988706 
L 336.474607 247.974568 
L 340.122411 247.974568 
L 343.770215 248.016983 
L 347.418018 248.101812 
L 351.065822 248.214918 
L 354.713626 248.328024 
L 358.36143 248.370439 
L 362.009234 248.370439 
L 365.657038 248.455268 
L 369.304842 248.561305 
L 372.952646 248.582512 
L 376.600449 248.695618 
L 380.248253 248.907691 
L 383.896057 248.950106 
L 387.543861 249.049074 
L 391.191665 249.133903 
L 394.839469 249.218732 
L 398.487273 249.303562 
" clip-path="url(#p521f1c6344)" style="fill: none; stroke: #988ed5; stroke-width: 2; stroke-linecap: round"/>
   </g>
   <g id="patch_3">
    <path d="M 57.6 307.584 
L 57.6 41.472 
" style="fill: none; stroke: #ffffff; stroke-linejoin: miter; stroke-linecap: square"/>
   </g>
   <g id="patch_4">
    <path d="M 414.72 307.584 
L 414.72 41.472 
" style="fill: none; stroke: #ffffff; stroke-linejoin: miter; stroke-linecap: square"/>
   </g>
   <g id="patch_5">
    <path d="M 57.6 307.584 
L 414.72 307.584 
" style="fill: none; stroke: #ffffff; stroke-linejoin: miter; stroke-linecap: square"/>
   </g>
   <g id="patch_6">
    <path d="M 57.6 41.472 
L 414.72 41.472 
" style="fill: none; stroke: #ffffff; stroke-linejoin: miter; stroke-linecap: square"/>
   </g>
   <g id="legend_1">
    <g id="patch_7">
     <path d="M 65.3 98.709812 
L 180.160625 98.709812 
Q 182.360625 98.709812 182.360625 96.509812 
L 182.360625 49.172 
Q 182.360625 46.972 180.160625 46.972 
L 65.3 46.972 
Q 63.1 46.972 63.1 49.172 
L 63.1 96.509812 
Q 63.1 98.709812 65.3 98.709812 
z
" style="fill: #eaeaf2; opacity: 0.8; stroke: #cccccc; stroke-linejoin: miter"/>
    </g>
    <g id="line2d_30">
     <path d="M 67.5 55.880281 
L 78.5 55.880281 
L 89.5 55.880281 
" style="fill: none; stroke: #e24a33; stroke-width: 2; stroke-linecap: round"/>
    </g>
    <g id="text_16">
     <!-- Discriminators -->
     <g style="fill: #262626" transform="translate(98.3 59.730281) scale(0.11 -0.11)">
      <defs>
       <path id="DejaVuSans-44" d="M 1259 4147 
L 1259 519 
L 2022 519 
Q 2988 519 3436 956 
Q 3884 1394 3884 2338 
Q 3884 3275 3436 3711 
Q 2988 4147 2022 4147 
L 1259 4147 
z
M 628 4666 
L 1925 4666 
Q 3281 4666 3915 4102 
Q 4550 3538 4550 2338 
Q 4550 1131 3912 565 
Q 3275 0 1925 0 
L 628 0 
L 628 4666 
z
" transform="scale(0.015625)"/>
       <path id="DejaVuSans-69" d="M 603 3500 
L 1178 3500 
L 1178 0 
L 603 0 
L 603 3500 
z
M 603 4863 
L 1178 4863 
L 1178 4134 
L 603 4134 
L 603 4863 
z
" transform="scale(0.015625)"/>
       <path id="DejaVuSans-72" d="M 2631 2963 
Q 2534 3019 2420 3045 
Q 2306 3072 2169 3072 
Q 1681 3072 1420 2755 
Q 1159 2438 1159 1844 
L 1159 0 
L 581 0 
L 581 3500 
L 1159 3500 
L 1159 2956 
Q 1341 3275 1631 3429 
Q 1922 3584 2338 3584 
Q 2397 3584 2469 3576 
Q 2541 3569 2628 3553 
L 2631 2963 
z
" transform="scale(0.015625)"/>
       <path id="DejaVuSans-6d" d="M 3328 2828 
Q 3544 3216 3844 3400 
Q 4144 3584 4550 3584 
Q 5097 3584 5394 3201 
Q 5691 2819 5691 2113 
L 5691 0 
L 5113 0 
L 5113 2094 
Q 5113 2597 4934 2840 
Q 4756 3084 4391 3084 
Q 3944 3084 3684 2787 
Q 3425 2491 3425 1978 
L 3425 0 
L 2847 0 
L 2847 2094 
Q 2847 2600 2669 2842 
Q 2491 3084 2119 3084 
Q 1678 3084 1418 2786 
Q 1159 2488 1159 1978 
L 1159 0 
L 581 0 
L 581 3500 
L 1159 3500 
L 1159 2956 
Q 1356 3278 1631 3431 
Q 1906 3584 2284 3584 
Q 2666 3584 2933 3390 
Q 3200 3197 3328 2828 
z
" transform="scale(0.015625)"/>
       <path id="DejaVuSans-6e" d="M 3513 2113 
L 3513 0 
L 2938 0 
L 2938 2094 
Q 2938 2591 2744 2837 
Q 2550 3084 2163 3084 
Q 1697 3084 1428 2787 
Q 1159 2491 1159 1978 
L 1159 0 
L 581 0 
L 581 3500 
L 1159 3500 
L 1159 2956 
Q 1366 3272 1645 3428 
Q 1925 3584 2291 3584 
Q 2894 3584 3203 3211 
Q 3513 2838 3513 2113 
z
" transform="scale(0.015625)"/>
       <path id="DejaVuSans-74" d="M 1172 4494 
L 1172 3500 
L 2356 3500 
L 2356 3053 
L 1172 3053 
L 1172 1153 
Q 1172 725 1289 603 
Q 1406 481 1766 481 
L 2356 481 
L 2356 0 
L 1766 0 
Q 1100 0 847 248 
Q 594 497 594 1153 
L 594 3053 
L 172 3053 
L 172 3500 
L 594 3500 
L 594 4494 
L 1172 4494 
z
" transform="scale(0.015625)"/>
      </defs>
      <use xlink:href="#DejaVuSans-44"/>
      <use xlink:href="#DejaVuSans-69" x="77.001953"/>
      <use xlink:href="#DejaVuSans-73" x="104.785156"/>
      <use xlink:href="#DejaVuSans-63" x="156.884766"/>
      <use xlink:href="#DejaVuSans-72" x="211.865234"/>
      <use xlink:href="#DejaVuSans-69" x="252.978516"/>
      <use xlink:href="#DejaVuSans-6d" x="280.761719"/>
      <use xlink:href="#DejaVuSans-69" x="378.173828"/>
      <use xlink:href="#DejaVuSans-6e" x="405.957031"/>
      <use xlink:href="#DejaVuSans-61" x="469.335938"/>
      <use xlink:href="#DejaVuSans-74" x="530.615234"/>
      <use xlink:href="#DejaVuSans-6f" x="569.824219"/>
      <use xlink:href="#DejaVuSans-72" x="631.005859"/>
      <use xlink:href="#DejaVuSans-73" x="672.119141"/>
     </g>
    </g>
    <g id="line2d_31">
     <path d="M 67.5 72.026219 
L 78.5 72.026219 
L 89.5 72.026219 
" style="fill: none; stroke: #348abd; stroke-width: 2; stroke-linecap: round"/>
    </g>
    <g id="text_17">
     <!-- Generator -->
     <g style="fill: #262626" transform="translate(98.3 75.876219) scale(0.11 -0.11)">
      <defs>
       <path id="DejaVuSans-47" d="M 3809 666 
L 3809 1919 
L 2778 1919 
L 2778 2438 
L 4434 2438 
L 4434 434 
Q 4069 175 3628 42 
Q 3188 -91 2688 -91 
Q 1594 -91 976 548 
Q 359 1188 359 2328 
Q 359 3472 976 4111 
Q 1594 4750 2688 4750 
Q 3144 4750 3555 4637 
Q 3966 4525 4313 4306 
L 4313 3634 
Q 3963 3931 3569 4081 
Q 3175 4231 2741 4231 
Q 1884 4231 1454 3753 
Q 1025 3275 1025 2328 
Q 1025 1384 1454 906 
Q 1884 428 2741 428 
Q 3075 428 3337 486 
Q 3600 544 3809 666 
z
" transform="scale(0.015625)"/>
      </defs>
      <use xlink:href="#DejaVuSans-47"/>
      <use xlink:href="#DejaVuSans-65" x="77.490234"/>
      <use xlink:href="#DejaVuSans-6e" x="139.013672"/>
      <use xlink:href="#DejaVuSans-65" x="202.392578"/>
      <use xlink:href="#DejaVuSans-72" x="263.916016"/>
      <use xlink:href="#DejaVuSans-61" x="305.029297"/>
      <use xlink:href="#DejaVuSans-74" x="366.308594"/>
      <use xlink:href="#DejaVuSans-6f" x="405.517578"/>
      <use xlink:href="#DejaVuSans-72" x="466.699219"/>
     </g>
    </g>
    <g id="line2d_32">
     <path d="M 67.5 88.172156 
L 78.5 88.172156 
L 89.5 88.172156 
" style="fill: none; stroke: #988ed5; stroke-width: 2; stroke-linecap: round"/>
    </g>
    <g id="text_18">
     <!-- ROC AUC -->
     <g style="fill: #262626" transform="translate(98.3 92.022156) scale(0.11 -0.11)">
      <defs>
       <path id="DejaVuSans-52" d="M 2841 2188 
Q 3044 2119 3236 1894 
Q 3428 1669 3622 1275 
L 4263 0 
L 3584 0 
L 2988 1197 
Q 2756 1666 2539 1819 
Q 2322 1972 1947 1972 
L 1259 1972 
L 1259 0 
L 628 0 
L 628 4666 
L 2053 4666 
Q 2853 4666 3247 4331 
Q 3641 3997 3641 3322 
Q 3641 2881 3436 2590 
Q 3231 2300 2841 2188 
z
M 1259 4147 
L 1259 2491 
L 2053 2491 
Q 2509 2491 2742 2702 
Q 2975 2913 2975 3322 
Q 2975 3731 2742 3939 
Q 2509 4147 2053 4147 
L 1259 4147 
z
" transform="scale(0.015625)"/>
       <path id="DejaVuSans-4f" d="M 2522 4238 
Q 1834 4238 1429 3725 
Q 1025 3213 1025 2328 
Q 1025 1447 1429 934 
Q 1834 422 2522 422 
Q 3209 422 3611 934 
Q 4013 1447 4013 2328 
Q 4013 3213 3611 3725 
Q 3209 4238 2522 4238 
z
M 2522 4750 
Q 3503 4750 4090 4092 
Q 4678 3434 4678 2328 
Q 4678 1225 4090 567 
Q 3503 -91 2522 -91 
Q 1538 -91 948 565 
Q 359 1222 359 2328 
Q 359 3434 948 4092 
Q 1538 4750 2522 4750 
z
" transform="scale(0.015625)"/>
       <path id="DejaVuSans-43" d="M 4122 4306 
L 4122 3641 
Q 3803 3938 3442 4084 
Q 3081 4231 2675 4231 
Q 1875 4231 1450 3742 
Q 1025 3253 1025 2328 
Q 1025 1406 1450 917 
Q 1875 428 2675 428 
Q 3081 428 3442 575 
Q 3803 722 4122 1019 
L 4122 359 
Q 3791 134 3420 21 
Q 3050 -91 2638 -91 
Q 1578 -91 968 557 
Q 359 1206 359 2328 
Q 359 3453 968 4101 
Q 1578 4750 2638 4750 
Q 3056 4750 3426 4639 
Q 3797 4528 4122 4306 
z
" transform="scale(0.015625)"/>
       <path id="DejaVuSans-20" transform="scale(0.015625)"/>
       <path id="DejaVuSans-41" d="M 2188 4044 
L 1331 1722 
L 3047 1722 
L 2188 4044 
z
M 1831 4666 
L 2547 4666 
L 4325 0 
L 3669 0 
L 3244 1197 
L 1141 1197 
L 716 0 
L 50 0 
L 1831 4666 
z
" transform="scale(0.015625)"/>
       <path id="DejaVuSans-55" d="M 556 4666 
L 1191 4666 
L 1191 1831 
Q 1191 1081 1462 751 
Q 1734 422 2344 422 
Q 2950 422 3222 751 
Q 3494 1081 3494 1831 
L 3494 4666 
L 4128 4666 
L 4128 1753 
Q 4128 841 3676 375 
Q 3225 -91 2344 -91 
Q 1459 -91 1007 375 
Q 556 841 556 1753 
L 556 4666 
z
" transform="scale(0.015625)"/>
      </defs>
      <use xlink:href="#DejaVuSans-52"/>
      <use xlink:href="#DejaVuSans-4f" x="69.482422"/>
      <use xlink:href="#DejaVuSans-43" x="148.193359"/>
      <use xlink:href="#DejaVuSans-20" x="218.017578"/>
      <use xlink:href="#DejaVuSans-41" x="249.804688"/>
      <use xlink:href="#DejaVuSans-55" x="318.212891"/>
      <use xlink:href="#DejaVuSans-43" x="391.40625"/>
     </g>
    </g>
   </g>
  </g>
 </g>
 <defs>
  <clipPath id="p521f1c6344">
   <rect x="57.6" y="41.472" width="357.12" height="266.112"/>
  </clipPath>
 </defs>
</svg>
