<?xml version="1.0" encoding="utf-8" standalone="no"?>
<!DOCTYPE svg PUBLIC "-//W3C//DTD SVG 1.1//EN"
  "http://www.w3.org/Graphics/SVG/1.1/DTD/svg11.dtd">
<svg xmlns:xlink="http://www.w3.org/1999/xlink" width="460.8pt" height="345.6pt" viewBox="0 0 460.8 345.6" xmlns="http://www.w3.org/2000/svg" version="1.1">
 <metadata>
  <rdf:RDF xmlns:dc="http://purl.org/dc/elements/1.1/" xmlns:cc="http://creativecommons.org/ns#" xmlns:rdf="http://www.w3.org/1999/02/22-rdf-syntax-ns#">
   <cc:Work>
    <dc:type rdf:resource="http://purl.org/dc/dcmitype/StillImage"/>
    <dc:date>2023-07-03T19:59:19.576309</dc:date>
    <dc:format>image/svg+xml</dc:format>
    <dc:creator>
     <cc:Agent>
      <dc:title>Matplotlib v3.7.1, https://matplotlib.org/</dc:title>
     </cc:Agent>
    </dc:creator>
   </cc:Work>
  </rdf:RDF>
 </metadata>
 <defs>
  <style type="text/css">*{stroke-linejoin: round; stroke-linecap: butt}</style>
 </defs>
 <g id="figure_1">
  <g id="patch_1">
   <path d="M 0 345.6 
L 460.8 345.6 
L 460.8 0 
L 0 0 
z
" style="fill: #ffffff"/>
  </g>
  <g id="axes_1">
   <g id="patch_2">
    <path d="M 57.6 307.584 
L 414.72 307.584 
L 414.72 41.472 
L 57.6 41.472 
z
" style="fill: #e5e5e5"/>
   </g>
   <g id="matplotlib.axis_1">
    <g id="xtick_1">
     <g id="line2d_1">
      <path d="M 70.184923 307.584 
L 70.184923 41.472 
" clip-path="url(#p25cb0eca8d)" style="fill: none; stroke: #ffffff; stroke-width: 0.8; stroke-linecap: square"/>
     </g>
     <g id="line2d_2">
      <defs>
       <path id="mdc30930adf" d="M 0 0 
L 0 3.5 
" style="stroke: #555555; stroke-width: 0.8"/>
      </defs>
      <g>
       <use xlink:href="#mdc30930adf" x="70.184923" y="307.584" style="fill: #555555; stroke: #555555; stroke-width: 0.8"/>
      </g>
     </g>
     <g id="text_1">
      <!-- 0 -->
      <g style="fill: #555555" transform="translate(67.003673 322.182437) scale(0.1 -0.1)">
       <defs>
        <path id="DejaVuSans-30" d="M 2034 4250 
Q 1547 4250 1301 3770 
Q 1056 3291 1056 2328 
Q 1056 1369 1301 889 
Q 1547 409 2034 409 
Q 2525 409 2770 889 
Q 3016 1369 3016 2328 
Q 3016 3291 2770 3770 
Q 2525 4250 2034 4250 
z
M 2034 4750 
Q 2819 4750 3233 4129 
Q 3647 3509 3647 2328 
Q 3647 1150 3233 529 
Q 2819 -91 2034 -91 
Q 1250 -91 836 529 
Q 422 1150 422 2328 
Q 422 3509 836 4129 
Q 1250 4750 2034 4750 
z
" transform="scale(0.015625)"/>
       </defs>
       <use xlink:href="#DejaVuSans-30"/>
      </g>
     </g>
    </g>
    <g id="xtick_2">
     <g id="line2d_3">
      <path d="M 143.141001 307.584 
L 143.141001 41.472 
" clip-path="url(#p25cb0eca8d)" style="fill: none; stroke: #ffffff; stroke-width: 0.8; stroke-linecap: square"/>
     </g>
     <g id="line2d_4">
      <g>
       <use xlink:href="#mdc30930adf" x="143.141001" y="307.584" style="fill: #555555; stroke: #555555; stroke-width: 0.8"/>
      </g>
     </g>
     <g id="text_2">
      <!-- 20 -->
      <g style="fill: #555555" transform="translate(136.778501 322.182437) scale(0.1 -0.1)">
       <defs>
        <path id="DejaVuSans-32" d="M 1228 531 
L 3431 531 
L 3431 0 
L 469 0 
L 469 531 
Q 828 903 1448 1529 
Q 2069 2156 2228 2338 
Q 2531 2678 2651 2914 
Q 2772 3150 2772 3378 
Q 2772 3750 2511 3984 
Q 2250 4219 1831 4219 
Q 1534 4219 1204 4116 
Q 875 4013 500 3803 
L 500 4441 
Q 881 4594 1212 4672 
Q 1544 4750 1819 4750 
Q 2544 4750 2975 4387 
Q 3406 4025 3406 3419 
Q 3406 3131 3298 2873 
Q 3191 2616 2906 2266 
Q 2828 2175 2409 1742 
Q 1991 1309 1228 531 
z
" transform="scale(0.015625)"/>
       </defs>
       <use xlink:href="#DejaVuSans-32"/>
       <use xlink:href="#DejaVuSans-30" x="63.623047"/>
      </g>
     </g>
    </g>
    <g id="xtick_3">
     <g id="line2d_5">
      <path d="M 216.097079 307.584 
L 216.097079 41.472 
" clip-path="url(#p25cb0eca8d)" style="fill: none; stroke: #ffffff; stroke-width: 0.8; stroke-linecap: square"/>
     </g>
     <g id="line2d_6">
      <g>
       <use xlink:href="#mdc30930adf" x="216.097079" y="307.584" style="fill: #555555; stroke: #555555; stroke-width: 0.8"/>
      </g>
     </g>
     <g id="text_3">
      <!-- 40 -->
      <g style="fill: #555555" transform="translate(209.734579 322.182437) scale(0.1 -0.1)">
       <defs>
        <path id="DejaVuSans-34" d="M 2419 4116 
L 825 1625 
L 2419 1625 
L 2419 4116 
z
M 2253 4666 
L 3047 4666 
L 3047 1625 
L 3713 1625 
L 3713 1100 
L 3047 1100 
L 3047 0 
L 2419 0 
L 2419 1100 
L 313 1100 
L 313 1709 
L 2253 4666 
z
" transform="scale(0.015625)"/>
       </defs>
       <use xlink:href="#DejaVuSans-34"/>
       <use xlink:href="#DejaVuSans-30" x="63.623047"/>
      </g>
     </g>
    </g>
    <g id="xtick_4">
     <g id="line2d_7">
      <path d="M 289.053156 307.584 
L 289.053156 41.472 
" clip-path="url(#p25cb0eca8d)" style="fill: none; stroke: #ffffff; stroke-width: 0.8; stroke-linecap: square"/>
     </g>
     <g id="line2d_8">
      <g>
       <use xlink:href="#mdc30930adf" x="289.053156" y="307.584" style="fill: #555555; stroke: #555555; stroke-width: 0.8"/>
      </g>
     </g>
     <g id="text_4">
      <!-- 60 -->
      <g style="fill: #555555" transform="translate(282.690656 322.182437) scale(0.1 -0.1)">
       <defs>
        <path id="DejaVuSans-36" d="M 2113 2584 
Q 1688 2584 1439 2293 
Q 1191 2003 1191 1497 
Q 1191 994 1439 701 
Q 1688 409 2113 409 
Q 2538 409 2786 701 
Q 3034 994 3034 1497 
Q 3034 2003 2786 2293 
Q 2538 2584 2113 2584 
z
M 3366 4563 
L 3366 3988 
Q 3128 4100 2886 4159 
Q 2644 4219 2406 4219 
Q 1781 4219 1451 3797 
Q 1122 3375 1075 2522 
Q 1259 2794 1537 2939 
Q 1816 3084 2150 3084 
Q 2853 3084 3261 2657 
Q 3669 2231 3669 1497 
Q 3669 778 3244 343 
Q 2819 -91 2113 -91 
Q 1303 -91 875 529 
Q 447 1150 447 2328 
Q 447 3434 972 4092 
Q 1497 4750 2381 4750 
Q 2619 4750 2861 4703 
Q 3103 4656 3366 4563 
z
" transform="scale(0.015625)"/>
       </defs>
       <use xlink:href="#DejaVuSans-36"/>
       <use xlink:href="#DejaVuSans-30" x="63.623047"/>
      </g>
     </g>
    </g>
    <g id="xtick_5">
     <g id="line2d_9">
      <path d="M 362.009234 307.584 
L 362.009234 41.472 
" clip-path="url(#p25cb0eca8d)" style="fill: none; stroke: #ffffff; stroke-width: 0.8; stroke-linecap: square"/>
     </g>
     <g id="line2d_10">
      <g>
       <use xlink:href="#mdc30930adf" x="362.009234" y="307.584" style="fill: #555555; stroke: #555555; stroke-width: 0.8"/>
      </g>
     </g>
     <g id="text_5">
      <!-- 80 -->
      <g style="fill: #555555" transform="translate(355.646734 322.182437) scale(0.1 -0.1)">
       <defs>
        <path id="DejaVuSans-38" d="M 2034 2216 
Q 1584 2216 1326 1975 
Q 1069 1734 1069 1313 
Q 1069 891 1326 650 
Q 1584 409 2034 409 
Q 2484 409 2743 651 
Q 3003 894 3003 1313 
Q 3003 1734 2745 1975 
Q 2488 2216 2034 2216 
z
M 1403 2484 
Q 997 2584 770 2862 
Q 544 3141 544 3541 
Q 544 4100 942 4425 
Q 1341 4750 2034 4750 
Q 2731 4750 3128 4425 
Q 3525 4100 3525 3541 
Q 3525 3141 3298 2862 
Q 3072 2584 2669 2484 
Q 3125 2378 3379 2068 
Q 3634 1759 3634 1313 
Q 3634 634 3220 271 
Q 2806 -91 2034 -91 
Q 1263 -91 848 271 
Q 434 634 434 1313 
Q 434 1759 690 2068 
Q 947 2378 1403 2484 
z
M 1172 3481 
Q 1172 3119 1398 2916 
Q 1625 2713 2034 2713 
Q 2441 2713 2670 2916 
Q 2900 3119 2900 3481 
Q 2900 3844 2670 4047 
Q 2441 4250 2034 4250 
Q 1625 4250 1398 4047 
Q 1172 3844 1172 3481 
z
" transform="scale(0.015625)"/>
       </defs>
       <use xlink:href="#DejaVuSans-38"/>
       <use xlink:href="#DejaVuSans-30" x="63.623047"/>
      </g>
     </g>
    </g>
   </g>
   <g id="matplotlib.axis_2">
    <g id="ytick_1">
     <g id="line2d_11">
      <path d="M 57.6 300.069561 
L 414.72 300.069561 
" clip-path="url(#p25cb0eca8d)" style="fill: none; stroke: #ffffff; stroke-width: 0.8; stroke-linecap: square"/>
     </g>
     <g id="line2d_12">
      <defs>
       <path id="mf1face7992" d="M 0 0 
L -3.5 0 
" style="stroke: #555555; stroke-width: 0.8"/>
      </defs>
      <g>
       <use xlink:href="#mf1face7992" x="57.6" y="300.069561" style="fill: #555555; stroke: #555555; stroke-width: 0.8"/>
      </g>
     </g>
     <g id="text_6">
      <!-- 0.2 -->
      <g style="fill: #555555" transform="translate(34.696875 303.86878) scale(0.1 -0.1)">
       <defs>
        <path id="DejaVuSans-2e" d="M 684 794 
L 1344 794 
L 1344 0 
L 684 0 
L 684 794 
z
" transform="scale(0.015625)"/>
       </defs>
       <use xlink:href="#DejaVuSans-30"/>
       <use xlink:href="#DejaVuSans-2e" x="63.623047"/>
       <use xlink:href="#DejaVuSans-32" x="95.410156"/>
      </g>
     </g>
    </g>
    <g id="ytick_2">
     <g id="line2d_13">
      <path d="M 57.6 251.910579 
L 414.72 251.910579 
" clip-path="url(#p25cb0eca8d)" style="fill: none; stroke: #ffffff; stroke-width: 0.8; stroke-linecap: square"/>
     </g>
     <g id="line2d_14">
      <g>
       <use xlink:href="#mf1face7992" x="57.6" y="251.910579" style="fill: #555555; stroke: #555555; stroke-width: 0.8"/>
      </g>
     </g>
     <g id="text_7">
      <!-- 0.4 -->
      <g style="fill: #555555" transform="translate(34.696875 255.709798) scale(0.1 -0.1)">
       <use xlink:href="#DejaVuSans-30"/>
       <use xlink:href="#DejaVuSans-2e" x="63.623047"/>
       <use xlink:href="#DejaVuSans-34" x="95.410156"/>
      </g>
     </g>
    </g>
    <g id="ytick_3">
     <g id="line2d_15">
      <path d="M 57.6 203.751597 
L 414.72 203.751597 
" clip-path="url(#p25cb0eca8d)" style="fill: none; stroke: #ffffff; stroke-width: 0.8; stroke-linecap: square"/>
     </g>
     <g id="line2d_16">
      <g>
       <use xlink:href="#mf1face7992" x="57.6" y="203.751597" style="fill: #555555; stroke: #555555; stroke-width: 0.8"/>
      </g>
     </g>
     <g id="text_8">
      <!-- 0.6 -->
      <g style="fill: #555555" transform="translate(34.696875 207.550815) scale(0.1 -0.1)">
       <use xlink:href="#DejaVuSans-30"/>
       <use xlink:href="#DejaVuSans-2e" x="63.623047"/>
       <use xlink:href="#DejaVuSans-36" x="95.410156"/>
      </g>
     </g>
    </g>
    <g id="ytick_4">
     <g id="line2d_17">
      <path d="M 57.6 155.592614 
L 414.72 155.592614 
" clip-path="url(#p25cb0eca8d)" style="fill: none; stroke: #ffffff; stroke-width: 0.8; stroke-linecap: square"/>
     </g>
     <g id="line2d_18">
      <g>
       <use xlink:href="#mf1face7992" x="57.6" y="155.592614" style="fill: #555555; stroke: #555555; stroke-width: 0.8"/>
      </g>
     </g>
     <g id="text_9">
      <!-- 0.8 -->
      <g style="fill: #555555" transform="translate(34.696875 159.391833) scale(0.1 -0.1)">
       <use xlink:href="#DejaVuSans-30"/>
       <use xlink:href="#DejaVuSans-2e" x="63.623047"/>
       <use xlink:href="#DejaVuSans-38" x="95.410156"/>
      </g>
     </g>
    </g>
    <g id="ytick_5">
     <g id="line2d_19">
      <path d="M 57.6 107.433632 
L 414.72 107.433632 
" clip-path="url(#p25cb0eca8d)" style="fill: none; stroke: #ffffff; stroke-width: 0.8; stroke-linecap: square"/>
     </g>
     <g id="line2d_20">
      <g>
       <use xlink:href="#mf1face7992" x="57.6" y="107.433632" style="fill: #555555; stroke: #555555; stroke-width: 0.8"/>
      </g>
     </g>
     <g id="text_10">
      <!-- 1.0 -->
      <g style="fill: #555555" transform="translate(34.696875 111.232851) scale(0.1 -0.1)">
       <defs>
        <path id="DejaVuSans-31" d="M 794 531 
L 1825 531 
L 1825 4091 
L 703 3866 
L 703 4441 
L 1819 4666 
L 2450 4666 
L 2450 531 
L 3481 531 
L 3481 0 
L 794 0 
L 794 531 
z
" transform="scale(0.015625)"/>
       </defs>
       <use xlink:href="#DejaVuSans-31"/>
       <use xlink:href="#DejaVuSans-2e" x="63.623047"/>
       <use xlink:href="#DejaVuSans-30" x="95.410156"/>
      </g>
     </g>
    </g>
    <g id="ytick_6">
     <g id="line2d_21">
      <path d="M 57.6 59.27465 
L 414.72 59.27465 
" clip-path="url(#p25cb0eca8d)" style="fill: none; stroke: #ffffff; stroke-width: 0.8; stroke-linecap: square"/>
     </g>
     <g id="line2d_22">
      <g>
       <use xlink:href="#mf1face7992" x="57.6" y="59.27465" style="fill: #555555; stroke: #555555; stroke-width: 0.8"/>
      </g>
     </g>
     <g id="text_11">
      <!-- 1.2 -->
      <g style="fill: #555555" transform="translate(34.696875 63.073868) scale(0.1 -0.1)">
       <use xlink:href="#DejaVuSans-31"/>
       <use xlink:href="#DejaVuSans-2e" x="63.623047"/>
       <use xlink:href="#DejaVuSans-32" x="95.410156"/>
      </g>
     </g>
    </g>
   </g>
   <g id="line2d_23">
    <path d="M 73.832727 184.01658 
L 77.480531 184.268681 
L 81.128335 184.322704 
L 84.776139 184.992779 
L 88.423943 185.662969 
L 92.071747 186.384555 
L 95.719551 185.650999 
L 99.367354 187.583677 
L 103.015158 189.267383 
L 106.662962 187.818283 
L 110.310766 188.294312 
L 113.95857 189.191114 
L 117.606374 190.382356 
L 121.254178 190.207371 
L 124.901982 190.795766 
L 128.549785 190.468586 
L 132.197589 192.533307 
L 135.845393 193.155847 
L 139.493197 193.780051 
L 143.141001 194.089419 
L 146.788805 193.998324 
L 150.436609 195.732823 
L 154.084413 196.574396 
L 157.732217 195.715198 
L 161.38002 197.518546 
L 165.027824 198.97874 
L 168.675628 198.504247 
L 172.323432 199.789656 
L 175.971236 200.424726 
L 179.61904 200.447288 
L 183.266844 202.538532 
L 186.914648 202.443002 
L 190.562451 202.845991 
L 194.210255 204.623046 
L 197.858059 204.636781 
L 201.505863 206.283629 
L 205.153667 206.61477 
L 208.801471 206.673357 
L 212.449275 208.625483 
L 216.097079 209.186221 
L 219.744883 209.242396 
L 223.392686 209.727367 
L 227.04049 211.784596 
L 230.688294 211.219811 
L 234.336098 213.029245 
L 237.983902 212.655635 
L 241.631706 213.525827 
L 245.27951 214.353722 
L 248.927314 214.447673 
L 252.575117 215.701048 
L 256.222921 216.562255 
L 259.870725 217.265613 
L 263.518529 218.171012 
L 267.166333 218.549645 
L 270.814137 220.177189 
L 274.461941 219.234589 
L 278.109745 219.724583 
L 281.757549 221.764432 
L 285.405352 222.160259 
L 289.053156 223.126483 
L 292.70096 223.319926 
L 296.348764 224.107806 
L 299.996568 224.540305 
L 303.644372 226.87834 
L 307.292176 226.844196 
L 310.93998 226.750302 
L 314.587783 227.704355 
L 318.235587 228.637217 
L 321.883391 228.818905 
L 325.531195 228.994157 
L 329.178999 231.058978 
L 332.826803 231.25217 
L 336.474607 232.309942 
L 340.122411 232.013103 
L 343.770215 233.588067 
L 347.418018 232.930615 
L 351.065822 234.056124 
L 354.713626 235.292562 
L 358.36143 235.323944 
L 362.009234 235.766704 
L 365.657038 237.123517 
L 369.304842 237.415706 
L 372.952646 238.395199 
L 376.600449 238.851192 
L 380.248253 239.875537 
L 383.896057 239.096297 
L 387.543861 241.79491 
L 391.191665 240.98863 
L 394.839469 242.991872 
L 398.487273 242.4744 
" clip-path="url(#p25cb0eca8d)" style="fill: none; stroke: #ff00ff; stroke-opacity: 0.3; stroke-width: 0.5; stroke-linecap: square"/>
   </g>
   <g id="line2d_24">
    <path d="M 73.832727 191.816199 
L 77.480531 192.444681 
L 81.128335 193.805527 
L 84.776139 196.056845 
L 88.423943 196.099989 
L 92.071747 197.848797 
L 95.719551 198.865973 
L 99.367354 199.802516 
L 103.015158 198.829718 
L 106.662962 201.712575 
L 110.310766 202.223021 
L 113.95857 203.308285 
L 117.606374 204.386488 
L 121.254178 204.686943 
L 124.901982 206.807696 
L 128.549785 207.049751 
L 132.197589 208.193229 
L 135.845393 209.400073 
L 139.493197 211.344075 
L 143.141001 211.110373 
L 146.788805 212.091366 
L 150.436609 213.627155 
L 154.084413 216.072332 
L 157.732217 216.578617 
L 161.38002 217.993644 
L 165.027824 218.566538 
L 168.675628 221.069599 
L 172.323432 223.009726 
L 175.971236 223.160757 
L 179.61904 225.929942 
L 183.266844 227.059053 
L 186.914648 228.307138 
L 190.562451 229.174653 
L 194.210255 231.324062 
L 197.858059 232.896614 
L 201.505863 235.517602 
L 205.153667 235.218769 
L 208.801471 238.029863 
L 212.449275 239.344301 
L 216.097079 240.62577 
L 219.744883 242.030169 
L 223.392686 243.43586 
L 227.04049 244.535074 
L 230.688294 246.313757 
L 234.336098 247.798738 
L 237.983902 249.594939 
L 241.631706 249.667211 
L 245.27951 251.217187 
L 248.927314 252.561147 
L 252.575117 254.562904 
L 256.222921 255.52765 
L 259.870725 257.272627 
L 263.518529 257.651992 
L 267.166333 258.698411 
L 270.814137 260.610228 
L 274.461941 260.733293 
L 278.109745 262.7658 
L 281.757549 263.247621 
L 285.405352 265.307641 
L 289.053156 265.78108 
L 292.70096 267.044566 
L 296.348764 268.057981 
L 299.996568 268.622946 
L 303.644372 270.124095 
L 307.292176 271.440233 
L 310.93998 272.663173 
L 314.587783 273.487631 
L 318.235587 275.302389 
L 321.883391 274.336545 
L 325.531195 276.408478 
L 329.178999 277.560044 
L 332.826803 278.134631 
L 336.474607 279.014669 
L 340.122411 280.028091 
L 343.770215 281.50929 
L 347.418018 281.712263 
L 351.065822 282.31354 
L 354.713626 283.617478 
L 358.36143 284.760633 
L 362.009234 284.76379 
L 365.657038 286.587756 
L 369.304842 287.063548 
L 372.952646 288.071133 
L 376.600449 288.261906 
L 380.248253 289.587194 
L 383.896057 290.150867 
L 387.543861 290.277 
L 391.191665 291.334679 
L 394.839469 292.194551 
L 398.487273 293.380562 
" clip-path="url(#p25cb0eca8d)" style="fill: none; stroke: #ff00ff; stroke-opacity: 0.3; stroke-width: 0.5; stroke-linecap: square"/>
   </g>
   <g id="line2d_25">
    <path d="M 73.832727 175.796447 
L 77.480531 177.013854 
L 81.128335 177.087023 
L 84.776139 177.529884 
L 88.423943 178.522804 
L 92.071747 177.881147 
L 95.719551 178.650742 
L 99.367354 179.154041 
L 103.015158 178.64889 
L 106.662962 179.931917 
L 110.310766 179.869943 
L 113.95857 180.539157 
L 117.606374 180.672405 
L 121.254178 180.632635 
L 124.901982 181.306657 
L 128.549785 180.986912 
L 132.197589 180.69491 
L 135.845393 181.781394 
L 139.493197 181.240205 
L 143.141001 180.801305 
L 146.788805 183.079161 
L 150.436609 181.75434 
L 154.084413 182.712326 
L 157.732217 181.689883 
L 161.38002 182.740442 
L 165.027824 181.961575 
L 168.675628 183.010958 
L 172.323432 183.866266 
L 175.971236 183.386319 
L 179.61904 183.620824 
L 183.266844 183.339472 
L 186.914648 184.109426 
L 190.562451 184.234953 
L 194.210255 184.566625 
L 197.858059 184.524486 
L 201.505863 185.674882 
L 205.153667 183.607118 
L 208.801471 184.915147 
L 212.449275 185.032923 
L 216.097079 184.957773 
L 219.744883 185.550115 
L 223.392686 184.873151 
L 227.04049 185.749098 
L 230.688294 186.293948 
L 234.336098 186.533591 
L 237.983902 185.820545 
L 241.631706 186.986326 
L 245.27951 186.655286 
L 248.927314 187.58761 
L 252.575117 186.13653 
L 256.222921 187.163996 
L 259.870725 187.969444 
L 263.518529 186.855733 
L 267.166333 188.304359 
L 270.814137 187.499744 
L 274.461941 188.802922 
L 278.109745 187.880559 
L 281.757549 188.547218 
L 285.405352 189.441981 
L 289.053156 188.501448 
L 292.70096 188.997341 
L 296.348764 189.499807 
L 299.996568 189.950547 
L 303.644372 190.363928 
L 307.292176 190.044355 
L 310.93998 190.454463 
L 314.587783 189.958771 
L 318.235587 190.51859 
L 321.883391 190.795622 
L 325.531195 191.427175 
L 329.178999 190.580593 
L 332.826803 191.48879 
L 336.474607 191.32642 
L 340.122411 191.374961 
L 343.770215 191.495235 
L 347.418018 192.624331 
L 351.065822 192.814258 
L 354.713626 191.654562 
L 358.36143 191.986119 
L 362.009234 192.991023 
L 365.657038 193.354959 
L 369.304842 193.966074 
L 372.952646 193.439036 
L 376.600449 193.31526 
L 380.248253 194.152183 
L 383.896057 194.333555 
L 387.543861 194.291775 
L 391.191665 194.57416 
L 394.839469 194.869879 
L 398.487273 194.938326 
" clip-path="url(#p25cb0eca8d)" style="fill: none; stroke: #ff00ff; stroke-opacity: 0.3; stroke-width: 0.5; stroke-linecap: square"/>
   </g>
   <g id="line2d_26">
    <path d="M 73.832727 192.042782 
L 77.480531 192.41998 
L 81.128335 192.972221 
L 84.776139 192.32755 
L 88.423943 192.946387 
L 92.071747 192.394863 
L 95.719551 193.73774 
L 99.367354 193.288808 
L 103.015158 193.244043 
L 106.662962 194.157163 
L 110.310766 192.531341 
L 113.95857 195.056706 
L 117.606374 195.281925 
L 121.254178 194.10525 
L 124.901982 193.938345 
L 128.549785 195.31574 
L 132.197589 195.499466 
L 135.845393 195.98758 
L 139.493197 195.277347 
L 143.141001 194.474396 
L 146.788805 195.533797 
L 150.436609 196.700999 
L 154.084413 195.868555 
L 157.732217 196.273008 
L 161.38002 196.400056 
L 165.027824 197.573229 
L 168.675628 196.227884 
L 172.323432 197.614593 
L 175.971236 196.80316 
L 179.61904 196.652818 
L 183.266844 195.598125 
L 186.914648 196.774972 
L 190.562451 198.091498 
L 194.210255 198.322315 
L 197.858059 196.810595 
L 201.505863 198.575005 
L 205.153667 196.928788 
L 208.801471 198.817533 
L 212.449275 199.318249 
L 216.097079 197.950815 
L 219.744883 198.140454 
L 223.392686 198.926626 
L 227.04049 198.638974 
L 230.688294 199.458587 
L 234.336098 199.591721 
L 237.983902 199.752742 
L 241.631706 200.738084 
L 245.27951 200.343935 
L 248.927314 201.085701 
L 252.575117 200.553697 
L 256.222921 200.461841 
L 259.870725 200.757703 
L 263.518529 201.215519 
L 267.166333 200.503392 
L 270.814137 201.663992 
L 274.461941 202.161334 
L 278.109745 203.530907 
L 281.757549 202.704189 
L 285.405352 201.923786 
L 289.053156 202.497699 
L 292.70096 202.561425 
L 296.348764 203.943541 
L 299.996568 203.737296 
L 303.644372 204.216927 
L 307.292176 204.129808 
L 310.93998 204.991187 
L 314.587783 204.831415 
L 318.235587 205.14186 
L 321.883391 203.655314 
L 325.531195 204.301291 
L 329.178999 203.906684 
L 332.826803 204.343072 
L 336.474607 204.915205 
L 340.122411 205.496739 
L 343.770215 205.716002 
L 347.418018 205.418346 
L 351.065822 206.349823 
L 354.713626 207.667152 
L 358.36143 207.776174 
L 362.009234 207.174259 
L 365.657038 206.666181 
L 369.304842 206.464571 
L 372.952646 206.819896 
L 376.600449 208.064013 
L 380.248253 206.508375 
L 383.896057 207.471585 
L 387.543861 208.610197 
L 391.191665 208.46561 
L 394.839469 208.087925 
L 398.487273 208.787795 
" clip-path="url(#p25cb0eca8d)" style="fill: none; stroke: #ff00ff; stroke-opacity: 0.3; stroke-width: 0.5; stroke-linecap: square"/>
   </g>
   <g id="line2d_27">
    <path d="M 73.832727 192.613983 
L 77.480531 195.771058 
L 81.128335 195.145045 
L 84.776139 196.01406 
L 88.423943 196.999459 
L 92.071747 197.444372 
L 95.719551 198.333524 
L 99.367354 198.290395 
L 103.015158 200.783265 
L 106.662962 201.371976 
L 110.310766 202.323187 
L 113.95857 201.90764 
L 117.606374 203.886102 
L 121.254178 203.50081 
L 124.901982 203.550455 
L 128.549785 205.266037 
L 132.197589 204.711615 
L 135.845393 207.464653 
L 139.493197 207.510524 
L 143.141001 208.263025 
L 146.788805 209.608284 
L 150.436609 207.644361 
L 154.084413 209.8297 
L 157.732217 211.334459 
L 161.38002 212.058915 
L 165.027824 212.296937 
L 168.675628 212.629556 
L 172.323432 215.239113 
L 175.971236 214.726212 
L 179.61904 215.513518 
L 183.266844 216.297092 
L 186.914648 216.897343 
L 190.562451 218.353977 
L 194.210255 217.863997 
L 197.858059 219.275752 
L 201.505863 219.788954 
L 205.153667 219.439657 
L 208.801471 220.695156 
L 212.449275 221.663864 
L 216.097079 222.557924 
L 219.744883 223.087674 
L 223.392686 223.290791 
L 227.04049 224.352416 
L 230.688294 225.08514 
L 234.336098 226.394604 
L 237.983902 227.480585 
L 241.631706 227.259686 
L 245.27951 228.068148 
L 248.927314 228.689259 
L 252.575117 230.058602 
L 256.222921 230.05759 
L 259.870725 230.75149 
L 263.518529 232.638757 
L 267.166333 232.065397 
L 270.814137 234.084362 
L 274.461941 233.653213 
L 278.109745 233.870955 
L 281.757549 235.61939 
L 285.405352 236.139596 
L 289.053156 236.262145 
L 292.70096 236.63714 
L 296.348764 238.139645 
L 299.996568 237.201703 
L 303.644372 239.563363 
L 307.292176 238.178943 
L 310.93998 240.222731 
L 314.587783 241.212228 
L 318.235587 241.529848 
L 321.883391 240.763475 
L 325.531195 242.257548 
L 329.178999 243.695346 
L 332.826803 244.482709 
L 336.474607 243.854888 
L 340.122411 245.891607 
L 343.770215 245.048434 
L 347.418018 246.280567 
L 351.065822 246.604489 
L 354.713626 247.908635 
L 358.36143 247.665181 
L 362.009234 249.056813 
L 365.657038 248.320609 
L 369.304842 249.753627 
L 372.952646 249.888569 
L 376.600449 250.221461 
L 380.248253 250.769719 
L 383.896057 251.727239 
L 387.543861 251.319369 
L 391.191665 254.264796 
L 394.839469 252.801509 
L 398.487273 253.857709 
" clip-path="url(#p25cb0eca8d)" style="fill: none; stroke: #ff00ff; stroke-opacity: 0.3; stroke-width: 0.5; stroke-linecap: square"/>
   </g>
   <g id="line2d_28">
    <path d="M 73.832727 182.043729 
L 77.480531 183.449685 
L 81.128335 183.737036 
L 84.776139 185.976829 
L 88.423943 186.421613 
L 92.071747 186.988522 
L 95.719551 189.136947 
L 99.367354 189.835239 
L 103.015158 190.540507 
L 106.662962 191.714254 
L 110.310766 192.728846 
L 113.95857 193.546063 
L 117.606374 194.943637 
L 121.254178 196.647407 
L 124.901982 196.390799 
L 128.549785 198.067917 
L 132.197589 198.821078 
L 135.845393 199.694628 
L 139.493197 200.285334 
L 143.141001 201.212132 
L 146.788805 201.812167 
L 150.436609 203.719355 
L 154.084413 204.210569 
L 157.732217 205.358109 
L 161.38002 206.814514 
L 165.027824 206.937644 
L 168.675628 207.848912 
L 172.323432 207.968368 
L 175.971236 210.471845 
L 179.61904 210.326498 
L 183.266844 211.949277 
L 186.914648 213.638953 
L 190.562451 213.275275 
L 194.210255 215.328615 
L 197.858059 216.404636 
L 201.505863 217.012019 
L 205.153667 218.452278 
L 208.801471 219.809737 
L 212.449275 222.065547 
L 216.097079 222.222965 
L 219.744883 222.730857 
L 223.392686 225.393761 
L 227.04049 224.942347 
L 230.688294 226.677161 
L 234.336098 228.138992 
L 237.983902 229.18193 
L 241.631706 229.909494 
L 245.27951 230.688483 
L 248.927314 232.156872 
L 252.575117 233.323127 
L 256.222921 233.378607 
L 259.870725 235.640166 
L 263.518529 236.898829 
L 267.166333 236.206867 
L 270.814137 238.255255 
L 274.461941 239.190966 
L 278.109745 240.125887 
L 281.757549 241.485844 
L 285.405352 243.203471 
L 289.053156 243.19562 
L 292.70096 244.116218 
L 296.348764 245.173071 
L 299.996568 246.276678 
L 303.644372 247.518011 
L 307.292176 247.781357 
L 310.93998 249.732658 
L 314.587783 249.08582 
L 318.235587 252.214527 
L 321.883391 251.427106 
L 325.531195 252.585267 
L 329.178999 253.125868 
L 332.826803 254.387481 
L 336.474607 254.948333 
L 340.122411 256.421983 
L 343.770215 257.338978 
L 347.418018 259.095774 
L 351.065822 259.178681 
L 354.713626 259.115085 
L 358.36143 261.177768 
L 362.009234 261.205756 
L 365.657038 263.281787 
L 369.304842 265.103499 
L 372.952646 265.542197 
L 376.600449 264.124357 
L 380.248253 266.497729 
L 383.896057 268.497139 
L 387.543861 268.246257 
L 391.191665 269.565381 
L 394.839469 269.912797 
L 398.487273 271.017839 
" clip-path="url(#p25cb0eca8d)" style="fill: none; stroke: #ff00ff; stroke-opacity: 0.3; stroke-width: 0.5; stroke-linecap: square"/>
   </g>
   <g id="line2d_29">
    <path d="M 73.832727 157.103972 
L 77.480531 158.692923 
L 81.128335 159.920161 
L 84.776139 162.026634 
L 88.423943 163.762023 
L 92.071747 165.432625 
L 95.719551 166.885829 
L 99.367354 168.521899 
L 103.015158 169.913316 
L 106.662962 170.885525 
L 110.310766 171.815552 
L 113.95857 173.542545 
L 117.606374 174.126663 
L 121.254178 175.990464 
L 124.901982 177.793123 
L 128.549785 179.436756 
L 132.197589 180.517298 
L 135.845393 182.005652 
L 139.493197 183.737826 
L 143.141001 184.807374 
L 146.788805 186.379862 
L 150.436609 187.198585 
L 154.084413 188.705784 
L 157.732217 189.961182 
L 161.38002 191.577905 
L 165.027824 192.478725 
L 168.675628 193.576203 
L 172.323432 194.51388 
L 175.971236 195.436458 
L 179.61904 196.960335 
L 183.266844 198.056004 
L 186.914648 199.028859 
L 190.562451 199.929292 
L 194.210255 200.340778 
L 197.858059 201.600755 
L 201.505863 202.679359 
L 205.153667 203.074225 
L 208.801471 205.018026 
L 212.449275 206.053975 
L 216.097079 207.244916 
L 219.744883 208.288113 
L 223.392686 209.650753 
L 227.04049 210.240612 
L 230.688294 211.19201 
L 234.336098 212.600837 
L 237.983902 213.080784 
L 241.631706 214.024131 
L 245.27951 215.56889 
L 248.927314 216.58331 
L 252.575117 216.990648 
L 256.222921 218.754154 
L 259.870725 219.171366 
L 263.518529 220.306376 
L 267.166333 220.848527 
L 270.814137 223.641279 
L 274.461941 224.183789 
L 278.109745 226.189952 
L 281.757549 226.515337 
L 285.405352 227.510582 
L 289.053156 229.075262 
L 292.70096 229.975465 
L 296.348764 232.238423 
L 299.996568 233.743598 
L 303.644372 234.633804 
L 307.292176 235.071972 
L 310.93998 236.323911 
L 314.587783 237.997498 
L 318.235587 239.262656 
L 321.883391 239.394068 
L 325.531195 241.621711 
L 329.178999 243.630989 
L 332.826803 244.094567 
L 336.474607 245.203405 
L 340.122411 246.318494 
L 343.770215 247.238252 
L 347.418018 247.804623 
L 351.065822 249.635506 
L 354.713626 250.990016 
L 358.36143 252.55344 
L 362.009234 253.926644 
L 365.657038 253.868042 
L 369.304842 254.626443 
L 372.952646 256.643298 
L 376.600449 257.344812 
L 380.248253 257.999602 
L 383.896057 260.356655 
L 387.543861 260.519025 
L 391.191665 262.757562 
L 394.839469 263.019122 
L 398.487273 263.938708 
" clip-path="url(#p25cb0eca8d)" style="fill: none; stroke: #ff00ff; stroke-opacity: 0.3; stroke-width: 0.5; stroke-linecap: square"/>
   </g>
   <g id="line2d_30">
    <path d="M 73.832727 161.388292 
L 77.480531 164.171514 
L 81.128335 165.949085 
L 84.776139 168.360634 
L 88.423943 170.337461 
L 92.071747 171.621679 
L 95.719551 174.05757 
L 99.367354 176.376273 
L 103.015158 177.37314 
L 106.662962 179.280917 
L 110.310766 181.084049 
L 113.95857 182.416693 
L 117.606374 183.311255 
L 121.254178 184.802322 
L 124.901982 186.8056 
L 128.549785 188.378418 
L 132.197589 189.273095 
L 135.845393 190.71509 
L 139.493197 191.726381 
L 143.141001 192.458115 
L 146.788805 193.657036 
L 150.436609 194.109125 
L 154.084413 196.555422 
L 157.732217 195.905139 
L 161.38002 198.246089 
L 165.027824 198.447282 
L 168.675628 198.282314 
L 172.323432 200.39381 
L 175.971236 199.840909 
L 179.61904 201.37631 
L 183.266844 201.870395 
L 186.914648 202.39284 
L 190.562451 204.356879 
L 194.210255 205.320448 
L 197.858059 206.07005 
L 201.505863 205.603608 
L 205.153667 206.456161 
L 208.801471 207.763616 
L 212.449275 208.430045 
L 216.097079 209.15321 
L 219.744883 210.424439 
L 223.392686 210.769904 
L 227.04049 211.235757 
L 230.688294 211.436577 
L 234.336098 213.047932 
L 237.983902 213.559627 
L 241.631706 214.385154 
L 245.27951 215.364123 
L 248.927314 215.805692 
L 252.575117 215.605058 
L 256.222921 217.226531 
L 259.870725 217.377175 
L 263.518529 218.925063 
L 267.166333 218.930847 
L 270.814137 219.19822 
L 274.461941 219.929853 
L 278.109745 221.414805 
L 281.757549 222.564038 
L 285.405352 223.900384 
L 289.053156 223.258254 
L 292.70096 223.996876 
L 296.348764 225.204107 
L 299.996568 226.650853 
L 303.644372 225.784738 
L 307.292176 226.140077 
L 310.93998 228.225846 
L 314.587783 227.056426 
L 318.235587 228.662312 
L 321.883391 228.027172 
L 325.531195 230.12387 
L 329.178999 232.057675 
L 332.826803 230.973351 
L 336.474607 232.623063 
L 340.122411 233.333303 
L 343.770215 233.703677 
L 347.418018 234.271131 
L 351.065822 235.312828 
L 354.713626 235.499124 
L 358.36143 236.358006 
L 362.009234 237.12219 
L 365.657038 238.274415 
L 369.304842 238.725392 
L 372.952646 238.989837 
L 376.600449 239.728653 
L 380.248253 242.8964 
L 383.896057 242.510942 
L 387.543861 241.133719 
L 391.191665 242.792107 
L 394.839469 243.005737 
L 398.487273 243.613235 
" clip-path="url(#p25cb0eca8d)" style="fill: none; stroke: #ff00ff; stroke-opacity: 0.3; stroke-width: 0.5; stroke-linecap: square"/>
   </g>
   <g id="line2d_31">
    <path d="M 73.832727 172.24462 
L 77.480531 174.263815 
L 81.128335 175.368441 
L 84.776139 175.75692 
L 88.423943 177.099007 
L 92.071747 176.249914 
L 95.719551 176.484821 
L 99.367354 178.824522 
L 103.015158 179.439354 
L 106.662962 179.815547 
L 110.310766 179.976769 
L 113.95857 182.680147 
L 117.606374 183.214318 
L 121.254178 183.063244 
L 124.901982 184.620246 
L 128.549785 184.68166 
L 132.197589 186.152533 
L 135.845393 185.682 
L 139.493197 186.826124 
L 143.141001 187.32783 
L 146.788805 187.386574 
L 150.436609 188.537903 
L 154.084413 188.970559 
L 157.732217 190.048862 
L 161.38002 189.977616 
L 165.027824 190.904213 
L 168.675628 191.571992 
L 172.323432 191.99163 
L 175.971236 193.688827 
L 179.61904 194.004065 
L 183.266844 193.696376 
L 186.914648 194.602995 
L 190.562451 194.580217 
L 194.210255 195.790563 
L 197.858059 196.180793 
L 201.505863 197.46072 
L 205.153667 197.376241 
L 208.801471 198.192855 
L 212.449275 198.658594 
L 216.097079 199.941649 
L 219.744883 200.533675 
L 223.392686 201.255835 
L 227.04049 201.422741 
L 230.688294 201.754111 
L 234.336098 202.669599 
L 237.983902 203.402897 
L 241.631706 203.177333 
L 245.27951 204.620491 
L 248.927314 206.284534 
L 252.575117 206.399153 
L 256.222921 206.048234 
L 259.870725 206.839817 
L 263.518529 207.695929 
L 267.166333 209.390485 
L 270.814137 209.962289 
L 274.461941 209.472754 
L 278.109745 210.124084 
L 281.757549 211.57261 
L 285.405352 211.126018 
L 289.053156 213.01637 
L 292.70096 213.428933 
L 296.348764 213.814527 
L 299.996568 214.256139 
L 303.644372 214.288289 
L 307.292176 216.098684 
L 310.93998 217.192258 
L 314.587783 216.665464 
L 318.235587 217.722381 
L 321.883391 218.771377 
L 325.531195 219.964787 
L 329.178999 219.68497 
L 332.826803 220.862004 
L 336.474607 220.937326 
L 340.122411 221.68644 
L 343.770215 223.112289 
L 347.418018 222.847758 
L 351.065822 224.197739 
L 354.713626 225.11449 
L 358.36143 225.895711 
L 362.009234 225.516877 
L 365.657038 226.922632 
L 369.304842 227.461324 
L 372.952646 228.538307 
L 376.600449 228.775051 
L 380.248253 229.997769 
L 383.896057 230.265881 
L 387.543861 231.095355 
L 391.191665 231.842646 
L 394.839469 231.108387 
L 398.487273 233.193654 
" clip-path="url(#p25cb0eca8d)" style="fill: none; stroke: #ff00ff; stroke-opacity: 0.3; stroke-width: 0.5; stroke-linecap: square"/>
   </g>
   <g id="line2d_32">
    <path d="M 73.832727 201.455809 
L 77.480531 204.672189 
L 81.128335 208.933703 
L 84.776139 210.574365 
L 88.423943 214.461638 
L 92.071747 216.647049 
L 95.719551 219.62446 
L 99.367354 223.254622 
L 103.015158 224.464165 
L 106.662962 225.095918 
L 110.310766 228.312485 
L 113.95857 230.025225 
L 117.606374 232.66856 
L 121.254178 233.760032 
L 124.901982 235.503135 
L 128.549785 235.86161 
L 132.197589 238.70466 
L 135.845393 238.410692 
L 139.493197 240.145938 
L 143.141001 241.013733 
L 146.788805 243.342418 
L 150.436609 244.894274 
L 154.084413 245.962731 
L 157.732217 244.661864 
L 161.38002 246.610043 
L 165.027824 248.400976 
L 168.675628 250.394365 
L 172.323432 250.228178 
L 175.971236 251.819245 
L 179.61904 251.14231 
L 183.266844 254.087743 
L 186.914648 256.06068 
L 190.562451 255.457179 
L 194.210255 255.914127 
L 197.858059 256.346754 
L 201.505863 258.308604 
L 205.153667 258.146902 
L 208.801471 260.230568 
L 212.449275 260.636471 
L 216.097079 262.560925 
L 219.744883 262.939594 
L 223.392686 263.357719 
L 227.04049 264.920246 
L 230.688294 265.173632 
L 234.336098 266.166308 
L 237.983902 265.731743 
L 241.631706 267.213811 
L 245.27951 268.169479 
L 248.927314 269.119858 
L 252.575117 269.948973 
L 256.222921 270.42798 
L 259.870725 270.44648 
L 263.518529 272.139458 
L 267.166333 273.745301 
L 270.814137 274.135086 
L 274.461941 274.456596 
L 278.109745 275.760291 
L 281.757549 276.064671 
L 285.405352 276.185232 
L 289.053156 278.578109 
L 292.70096 278.902031 
L 296.348764 278.927542 
L 299.996568 278.973757 
L 303.644372 280.730897 
L 307.292176 280.754514 
L 310.93998 281.346074 
L 314.587783 281.78516 
L 318.235587 283.289911 
L 321.883391 283.111481 
L 325.531195 284.717403 
L 329.178999 285.534441 
L 332.826803 286.993006 
L 336.474607 285.61884 
L 340.122411 286.441647 
L 343.770215 287.529839 
L 347.418018 288.893943 
L 351.065822 289.004027 
L 354.713626 288.894392 
L 358.36143 289.778796 
L 362.009234 289.439342 
L 365.657038 290.910279 
L 369.304842 292.27941 
L 372.952646 292.333508 
L 376.600449 291.762117 
L 380.248253 293.453943 
L 383.896057 293.816275 
L 387.543861 293.79292 
L 391.191665 295.245662 
L 394.839469 294.566376 
L 398.487273 295.488 
" clip-path="url(#p25cb0eca8d)" style="fill: none; stroke: #ff00ff; stroke-opacity: 0.3; stroke-width: 0.5; stroke-linecap: square"/>
   </g>
   <g id="line2d_33">
    <path d="M 73.832727 178.828713 
L 77.480531 178.86534 
L 81.128335 179.07813 
L 84.776139 179.937601 
L 88.423943 180.378552 
L 92.071747 180.469476 
L 95.719551 181.11851 
L 99.367354 181.477092 
L 103.015158 181.412635 
L 106.662962 181.73426 
L 110.310766 181.190258 
L 113.95857 182.517089 
L 117.606374 182.840895 
L 121.254178 183.672981 
L 124.901982 182.37741 
L 128.549785 184.005902 
L 132.197589 183.315948 
L 135.845393 183.98222 
L 139.493197 183.826653 
L 143.141001 184.137055 
L 146.788805 185.21553 
L 150.436609 186.293273 
L 154.084413 186.822191 
L 157.732217 184.927475 
L 161.38002 186.774297 
L 165.027824 187.953211 
L 168.675628 187.752893 
L 172.323432 187.500447 
L 175.971236 186.597273 
L 179.61904 187.666721 
L 183.266844 187.575496 
L 186.914648 186.606717 
L 190.562451 188.63949 
L 194.210255 189.055152 
L 197.858059 189.914393 
L 201.505863 189.556141 
L 205.153667 189.348159 
L 208.801471 190.197826 
L 212.449275 190.540593 
L 216.097079 190.879096 
L 219.744883 190.643486 
L 223.392686 191.261705 
L 227.04049 191.050293 
L 230.688294 191.171658 
L 234.336098 190.826193 
L 237.983902 191.612667 
L 241.631706 191.963829 
L 245.27951 192.360159 
L 248.927314 193.362752 
L 252.575117 193.680574 
L 256.222921 193.945335 
L 259.870725 193.28644 
L 263.518529 193.855675 
L 267.166333 195.773412 
L 270.814137 194.422928 
L 274.461941 194.315672 
L 278.109745 194.255707 
L 281.757549 196.147194 
L 285.405352 195.579524 
L 289.053156 195.574874 
L 292.70096 195.400764 
L 296.348764 196.879975 
L 299.996568 197.396048 
L 303.644372 196.676213 
L 307.292176 196.805658 
L 310.93998 198.590548 
L 314.587783 196.777541 
L 318.235587 197.730159 
L 321.883391 197.846443 
L 325.531195 199.534656 
L 329.178999 198.610498 
L 332.826803 198.755387 
L 336.474607 199.067094 
L 340.122411 199.49088 
L 343.770215 199.112175 
L 347.418018 199.773782 
L 351.065822 200.698083 
L 354.713626 200.3794 
L 358.36143 200.940741 
L 362.009234 200.546133 
L 365.657038 201.746174 
L 369.304842 201.566969 
L 372.952646 201.748528 
L 376.600449 201.875763 
L 380.248253 202.326115 
L 383.896057 203.280427 
L 387.543861 201.909577 
L 391.191665 201.760541 
L 394.839469 203.15325 
L 398.487273 203.480487 
" clip-path="url(#p25cb0eca8d)" style="fill: none; stroke: #ff00ff; stroke-opacity: 0.3; stroke-width: 0.5; stroke-linecap: square"/>
   </g>
   <g id="line2d_34">
    <path d="M 73.832727 175.003787 
L 77.480531 175.783931 
L 81.128335 176.820971 
L 84.776139 177.815498 
L 88.423943 177.852097 
L 92.071747 179.683519 
L 95.719551 180.157409 
L 99.367354 181.028118 
L 103.015158 182.981578 
L 106.662962 182.836934 
L 110.310766 183.102929 
L 113.95857 183.728267 
L 117.606374 185.198594 
L 121.254178 185.025646 
L 124.901982 186.622347 
L 128.549785 186.463809 
L 132.197589 187.97761 
L 135.845393 187.702688 
L 139.493197 188.909101 
L 143.141001 189.283745 
L 146.788805 189.172384 
L 150.436609 190.494191 
L 154.084413 191.023181 
L 157.732217 192.768789 
L 161.38002 192.30196 
L 165.027824 192.575073 
L 168.675628 193.327287 
L 172.323432 194.035856 
L 175.971236 194.519305 
L 179.61904 195.858924 
L 183.266844 195.576151 
L 186.914648 196.023088 
L 190.562451 196.683762 
L 194.210255 198.752818 
L 197.858059 197.961349 
L 201.505863 198.026553 
L 205.153667 198.467074 
L 208.801471 198.905657 
L 212.449275 199.878943 
L 216.097079 200.706795 
L 219.744883 201.663633 
L 223.392686 200.155013 
L 227.04049 201.966212 
L 230.688294 202.069234 
L 234.336098 202.315782 
L 237.983902 203.549809 
L 241.631706 204.463589 
L 245.27951 203.842026 
L 248.927314 204.187447 
L 252.575117 204.970792 
L 256.222921 205.741205 
L 259.870725 206.175383 
L 263.518529 207.667569 
L 267.166333 206.8637 
L 270.814137 207.996313 
L 274.461941 207.776562 
L 278.109745 208.976114 
L 281.757549 209.777199 
L 285.405352 210.162061 
L 289.053156 209.807282 
L 292.70096 210.758637 
L 296.348764 211.29898 
L 299.996568 210.383133 
L 303.644372 211.801891 
L 307.292176 212.600335 
L 310.93998 212.663974 
L 314.587783 213.14682 
L 318.235587 214.687575 
L 321.883391 214.416743 
L 325.531195 213.913717 
L 329.178999 214.774723 
L 332.826803 216.256461 
L 336.474607 215.685877 
L 340.122411 217.346073 
L 343.770215 217.383462 
L 347.418018 217.290773 
L 351.065822 218.185709 
L 354.713626 219.144096 
L 358.36143 218.870036 
L 362.009234 219.939282 
L 365.657038 219.565787 
L 369.304842 219.926681 
L 372.952646 221.030919 
L 376.600449 220.339071 
L 380.248253 221.359189 
L 383.896057 221.58214 
L 387.543861 222.924716 
L 391.191665 222.901709 
L 394.839469 223.508131 
L 398.487273 223.043354 
" clip-path="url(#p25cb0eca8d)" style="fill: none; stroke: #ff00ff; stroke-opacity: 0.3; stroke-width: 0.5; stroke-linecap: square"/>
   </g>
   <g id="line2d_35">
    <path d="M 73.832727 154.488101 
L 77.480531 153.731093 
L 81.128335 156.264854 
L 84.776139 157.26472 
L 88.423943 157.427937 
L 92.071747 156.872079 
L 95.719551 159.079694 
L 99.367354 160.194581 
L 103.015158 161.530583 
L 106.662962 163.038198 
L 110.310766 161.665353 
L 113.95857 163.401775 
L 117.606374 163.151324 
L 121.254178 164.45044 
L 124.901982 164.415765 
L 128.549785 165.4458 
L 132.197589 165.8327 
L 135.845393 166.395132 
L 139.493197 168.947594 
L 143.141001 168.830291 
L 146.788805 169.842687 
L 150.436609 169.596642 
L 154.084413 170.498295 
L 157.732217 171.432011 
L 161.38002 172.513744 
L 165.027824 172.505563 
L 168.675628 173.445508 
L 172.323432 174.023024 
L 175.971236 174.334573 
L 179.61904 175.066536 
L 183.266844 175.73321 
L 186.914648 176.384913 
L 190.562451 177.059567 
L 194.210255 177.501265 
L 197.858059 178.372533 
L 201.505863 178.979801 
L 205.153667 179.40498 
L 208.801471 179.980701 
L 212.449275 180.65989 
L 216.097079 181.16217 
L 219.744883 181.666187 
L 223.392686 182.153655 
L 227.04049 182.694026 
L 230.688294 183.234986 
L 234.336098 183.809287 
L 237.983902 184.341678 
L 241.631706 184.625915 
L 245.27951 185.408614 
L 248.927314 185.957784 
L 252.575117 186.056012 
L 256.222921 186.829324 
L 259.870725 186.947962 
L 263.518529 187.87509 
L 267.166333 187.849141 
L 270.814137 188.475814 
L 274.461941 189.180034 
L 278.109745 189.487593 
L 281.757549 190.206136 
L 285.405352 190.413918 
L 289.053156 191.069712 
L 292.70096 190.997174 
L 296.348764 191.350389 
L 299.996568 191.694361 
L 303.644372 192.843738 
L 307.292176 193.300104 
L 310.93998 193.030923 
L 314.587783 194.573658 
L 318.235587 193.998453 
L 321.883391 193.40083 
L 325.531195 195.536754 
L 329.178999 194.879108 
L 332.826803 195.534988 
L 336.474607 195.58548 
L 340.122411 196.188658 
L 343.770215 196.492831 
L 347.418018 196.558292 
L 351.065822 198.396029 
L 354.713626 196.873646 
L 358.36143 198.68615 
L 362.009234 197.324759 
L 365.657038 198.848319 
L 369.304842 199.459979 
L 372.952646 199.752038 
L 376.600449 198.424074 
L 380.248253 200.909007 
L 383.896057 201.549602 
L 387.543861 200.970465 
L 391.191665 200.305212 
L 394.839469 201.388409 
L 398.487273 202.531614 
" clip-path="url(#p25cb0eca8d)" style="fill: none; stroke: #ff00ff; stroke-opacity: 0.3; stroke-width: 0.5; stroke-linecap: square"/>
   </g>
   <g id="line2d_36">
    <path d="M 73.832727 177.177386 
L 77.480531 177.67615 
L 81.128335 179.423796 
L 84.776139 180.623478 
L 88.423943 181.574689 
L 92.071747 184.994128 
L 95.719551 185.362815 
L 99.367354 185.315639 
L 103.015158 187.243351 
L 106.662962 190.718377 
L 110.310766 190.105396 
L 113.95857 193.251635 
L 117.606374 194.125243 
L 121.254178 197.123278 
L 124.901982 198.120389 
L 128.549785 197.964751 
L 132.197589 200.61303 
L 135.845393 202.843595 
L 139.493197 204.320897 
L 143.141001 205.774575 
L 146.788805 207.841578 
L 150.436609 210.136255 
L 154.084413 210.218639 
L 157.732217 211.585728 
L 161.38002 213.716514 
L 165.027824 215.402946 
L 168.675628 215.756319 
L 172.323432 218.5399 
L 175.971236 218.099264 
L 179.61904 221.356907 
L 183.266844 222.316228 
L 186.914648 223.941518 
L 190.562451 225.161466 
L 194.210255 226.747905 
L 197.858059 227.325894 
L 201.505863 229.132414 
L 205.153667 230.715573 
L 208.801471 231.46646 
L 212.449275 234.592204 
L 216.097079 234.327838 
L 219.744883 236.783536 
L 223.392686 236.880401 
L 227.04049 239.614874 
L 230.688294 239.67697 
L 234.336098 241.405362 
L 237.983902 243.672568 
L 241.631706 243.393936 
L 245.27951 244.915444 
L 248.927314 245.635853 
L 252.575117 247.7935 
L 256.222921 249.485501 
L 259.870725 251.263057 
L 263.518529 251.000364 
L 267.166333 252.781932 
L 270.814137 254.601125 
L 274.461941 254.670562 
L 278.109745 256.446978 
L 281.757549 257.545841 
L 285.405352 259.028618 
L 289.053156 259.336444 
L 292.70096 260.411804 
L 296.348764 261.235257 
L 299.996568 263.075993 
L 303.644372 264.963074 
L 307.292176 265.574569 
L 310.93998 266.03799 
L 314.587783 266.937016 
L 318.235587 268.573358 
L 321.883391 268.586964 
L 325.531195 269.754475 
L 329.178999 271.593238 
L 332.826803 272.277823 
L 336.474607 272.974055 
L 340.122411 273.466748 
L 343.770215 274.70526 
L 347.418018 276.237928 
L 351.065822 276.566894 
L 354.713626 277.804596 
L 358.36143 278.33937 
L 362.009234 279.06557 
L 365.657038 280.108573 
L 369.304842 281.476323 
L 372.952646 281.763932 
L 376.600449 282.526064 
L 380.248253 283.207413 
L 383.896057 284.010586 
L 387.543861 286.225693 
L 391.191665 286.483722 
L 394.839469 286.813822 
L 398.487273 287.787287 
" clip-path="url(#p25cb0eca8d)" style="fill: none; stroke: #ff00ff; stroke-opacity: 0.3; stroke-width: 0.5; stroke-linecap: square"/>
   </g>
   <g id="line2d_37">
    <path d="M 73.832727 169.050788 
L 77.480531 170.421279 
L 81.128335 168.90844 
L 84.776139 170.361071 
L 88.423943 170.947155 
L 92.071747 171.210092 
L 95.719551 171.572794 
L 99.367354 172.306939 
L 103.015158 172.678482 
L 106.662962 173.905276 
L 110.310766 173.789896 
L 113.95857 175.330077 
L 117.606374 175.123272 
L 121.254178 175.569218 
L 124.901982 176.718838 
L 128.549785 176.806331 
L 132.197589 178.438253 
L 135.845393 177.545657 
L 139.493197 178.001062 
L 143.141001 178.959837 
L 146.788805 178.885147 
L 150.436609 179.789627 
L 154.084413 179.49573 
L 157.732217 179.923708 
L 161.38002 180.938616 
L 165.027824 179.334939 
L 168.675628 182.108143 
L 172.323432 181.982343 
L 175.971236 181.886698 
L 179.61904 181.950983 
L 183.266844 183.041801 
L 186.914648 183.345687 
L 190.562451 183.896894 
L 194.210255 183.557171 
L 197.858059 185.104284 
L 201.505863 185.094754 
L 205.153667 184.744955 
L 208.801471 186.015753 
L 212.449275 186.345401 
L 216.097079 186.904488 
L 219.744883 187.198141 
L 223.392686 187.308411 
L 227.04049 186.507728 
L 230.688294 188.630979 
L 234.336098 189.624932 
L 237.983902 188.716993 
L 241.631706 189.619478 
L 245.27951 190.533747 
L 248.927314 190.846545 
L 252.575117 189.805085 
L 256.222921 190.875566 
L 259.870725 190.948577 
L 263.518529 192.168036 
L 267.166333 190.876226 
L 270.814137 191.430792 
L 274.461941 193.632709 
L 278.109745 192.45866 
L 281.757549 194.095792 
L 285.405352 194.689899 
L 289.053156 194.876338 
L 292.70096 194.723226 
L 296.348764 195.073469 
L 299.996568 195.797208 
L 303.644372 195.684785 
L 307.292176 196.199308 
L 310.93998 196.144051 
L 314.587783 197.401846 
L 318.235587 197.718376 
L 321.883391 198.0981 
L 325.531195 196.966133 
L 329.178999 198.720238 
L 332.826803 199.880206 
L 336.474607 199.11285 
L 340.122411 199.876216 
L 343.770215 200.759871 
L 347.418018 200.841005 
L 351.065822 200.988621 
L 354.713626 201.133567 
L 358.36143 201.607845 
L 362.009234 202.856383 
L 365.657038 202.849163 
L 369.304842 203.197125 
L 372.952646 203.107695 
L 376.600449 204.349272 
L 380.248253 204.548312 
L 383.896057 204.680556 
L 387.543861 204.64634 
L 391.191665 205.15139 
L 394.839469 205.021715 
L 398.487273 206.381456 
" clip-path="url(#p25cb0eca8d)" style="fill: none; stroke: #ff00ff; stroke-opacity: 0.3; stroke-width: 0.5; stroke-linecap: square"/>
   </g>
   <g id="line2d_38">
    <path d="M 73.832727 192.278493 
L 77.480531 192.468635 
L 81.128335 192.268992 
L 84.776139 192.677292 
L 88.423943 192.890398 
L 92.071747 192.657227 
L 95.719551 193.156536 
L 99.367354 192.487724 
L 103.015158 193.298913 
L 106.662962 193.721507 
L 110.310766 193.728827 
L 113.95857 193.288277 
L 117.606374 193.751447 
L 121.254178 193.522338 
L 124.901982 194.723068 
L 128.549785 193.478204 
L 132.197589 195.081966 
L 135.845393 194.160794 
L 139.493197 193.984747 
L 143.141001 193.77065 
L 146.788805 194.738525 
L 150.436609 194.46689 
L 154.084413 194.867109 
L 157.732217 193.779118 
L 161.38002 195.266338 
L 165.027824 194.809599 
L 168.675628 195.169703 
L 172.323432 195.107901 
L 175.971236 194.743721 
L 179.61904 195.796275 
L 183.266844 194.517741 
L 186.914648 195.78043 
L 190.562451 195.655119 
L 194.210255 195.813254 
L 197.858059 195.527669 
L 201.505863 195.754079 
L 205.153667 195.599244 
L 208.801471 196.381656 
L 212.449275 196.156078 
L 216.097079 195.993163 
L 219.744883 196.976783 
L 223.392686 196.424743 
L 227.04049 196.531109 
L 230.688294 196.768571 
L 234.336098 196.714132 
L 237.983902 197.261608 
L 241.631706 196.932204 
L 245.27951 196.008563 
L 248.927314 197.311971 
L 252.575117 196.714835 
L 256.222921 198.053751 
L 259.870725 198.213681 
L 263.518529 198.057669 
L 267.166333 197.025423 
L 270.814137 197.433809 
L 274.461941 197.109615 
L 278.109745 198.327797 
L 281.757549 197.968239 
L 285.405352 198.183698 
L 289.053156 198.24395 
L 292.70096 198.353445 
L 296.348764 198.654532 
L 299.996568 199.255456 
L 303.644372 198.887659 
L 307.292176 198.552026 
L 310.93998 199.280717 
L 314.587783 198.588482 
L 318.235587 199.100952 
L 321.883391 199.061841 
L 325.531195 199.272034 
L 329.178999 199.567853 
L 332.826803 200.043408 
L 336.474607 200.06145 
L 340.122411 200.592492 
L 343.770215 200.932804 
L 347.418018 200.462028 
L 351.065822 200.444733 
L 354.713626 199.843005 
L 358.36143 200.559811 
L 362.009234 200.155444 
L 365.657038 200.718937 
L 369.304842 200.950988 
L 372.952646 200.807779 
L 376.600449 201.740691 
L 380.248253 200.389921 
L 383.896057 202.075779 
L 387.543861 201.076587 
L 391.191665 201.468626 
L 394.839469 200.384797 
L 398.487273 201.824065 
" clip-path="url(#p25cb0eca8d)" style="fill: none; stroke: #ff00ff; stroke-opacity: 0.3; stroke-width: 0.5; stroke-linecap: square"/>
   </g>
   <g id="line2d_39">
    <path d="M 73.832727 161.477421 
L 77.480531 166.117655 
L 81.128335 169.579649 
L 84.776139 172.310757 
L 88.423943 175.802747 
L 92.071747 178.899801 
L 95.719551 182.247893 
L 99.367354 184.635345 
L 103.015158 187.325677 
L 106.662962 190.622086 
L 110.310766 191.337458 
L 113.95857 195.820144 
L 117.606374 196.79231 
L 121.254178 199.190755 
L 124.901982 201.457431 
L 128.549785 203.305214 
L 132.197589 204.094371 
L 135.845393 207.292509 
L 139.493197 208.307159 
L 143.141001 209.435265 
L 146.788805 211.440222 
L 150.436609 214.063744 
L 154.084413 215.864867 
L 157.732217 216.875613 
L 161.38002 218.355499 
L 165.027824 220.020374 
L 168.675628 221.964462 
L 172.323432 222.986704 
L 175.971236 224.825503 
L 179.61904 225.800095 
L 183.266844 227.735529 
L 186.914648 227.33508 
L 190.562451 230.111534 
L 194.210255 231.212012 
L 197.858059 232.776211 
L 201.505863 234.249459 
L 205.153667 234.391965 
L 208.801471 235.76819 
L 212.449275 238.026727 
L 216.097079 238.440201 
L 219.744883 240.423579 
L 223.392686 241.173275 
L 227.04049 242.978847 
L 230.688294 243.311388 
L 234.336098 245.106957 
L 237.983902 246.809198 
L 241.631706 246.99154 
L 245.27951 248.712533 
L 248.927314 249.505257 
L 252.575117 250.133286 
L 256.222921 252.79505 
L 259.870725 252.797066 
L 263.518529 253.693172 
L 267.166333 255.266234 
L 270.814137 255.194005 
L 274.461941 256.861054 
L 278.109745 257.839572 
L 281.757549 260.612545 
L 285.405352 260.85033 
L 289.053156 261.433049 
L 292.70096 262.458872 
L 296.348764 263.524832 
L 299.996568 264.278058 
L 303.644372 266.517535 
L 307.292176 266.403713 
L 310.93998 268.02482 
L 314.587783 267.911091 
L 318.235587 269.300204 
L 321.883391 270.279346 
L 325.531195 270.863593 
L 329.178999 272.257127 
L 332.826803 273.447874 
L 336.474607 274.3268 
L 340.122411 274.074526 
L 343.770215 275.382792 
L 347.418018 276.660953 
L 351.065822 278.118679 
L 354.713626 278.109665 
L 358.36143 278.941715 
L 362.009234 280.053015 
L 365.657038 280.48641 
L 369.304842 281.690118 
L 372.952646 282.149132 
L 376.600449 282.713781 
L 380.248253 284.017898 
L 383.896057 284.898489 
L 387.543861 284.865894 
L 391.191665 286.440004 
L 394.839469 287.037742 
L 398.487273 287.247167 
" clip-path="url(#p25cb0eca8d)" style="fill: none; stroke: #ff00ff; stroke-opacity: 0.3; stroke-width: 0.5; stroke-linecap: square"/>
   </g>
   <g id="line2d_40">
    <path d="M 73.832727 174.866922 
L 77.480531 175.709958 
L 81.128335 176.632192 
L 84.776139 178.239442 
L 88.423943 178.766164 
L 92.071747 178.239428 
L 95.719551 180.828202 
L 99.367354 180.767433 
L 103.015158 181.270244 
L 106.662962 184.012748 
L 110.310766 185.124937 
L 113.95857 184.237723 
L 117.606374 185.136749 
L 121.254178 186.509436 
L 124.901982 187.161283 
L 128.549785 187.764863 
L 132.197589 187.559005 
L 135.845393 189.763793 
L 139.493197 189.830948 
L 143.141001 191.278885 
L 146.788805 190.670224 
L 150.436609 191.478356 
L 154.084413 192.324909 
L 157.732217 193.62282 
L 161.38002 194.195599 
L 165.027824 195.033541 
L 168.675628 195.168555 
L 172.323432 196.508016 
L 175.971236 197.419686 
L 179.61904 198.627535 
L 183.266844 197.794631 
L 186.914648 199.034026 
L 190.562451 198.801272 
L 194.210255 200.477313 
L 197.858059 200.671689 
L 201.505863 201.109311 
L 205.153667 202.295645 
L 208.801471 201.974077 
L 212.449275 202.919505 
L 216.097079 204.349171 
L 219.744883 204.815025 
L 223.392686 204.98081 
L 227.04049 205.767169 
L 230.688294 206.334164 
L 234.336098 206.844381 
L 237.983902 208.396747 
L 241.631706 208.017282 
L 245.27951 208.433059 
L 248.927314 209.917322 
L 252.575117 211.071622 
L 256.222921 211.171687 
L 259.870725 211.663964 
L 263.518529 212.729493 
L 267.166333 212.429353 
L 270.814137 213.866067 
L 274.461941 214.071465 
L 278.109745 214.88142 
L 281.757549 214.637456 
L 285.405352 216.585319 
L 289.053156 217.26069 
L 292.70096 217.454148 
L 296.348764 218.534216 
L 299.996568 218.854506 
L 303.644372 220.340305 
L 307.292176 219.176705 
L 310.93998 219.632024 
L 314.587783 221.940407 
L 318.235587 221.74441 
L 321.883391 223.104266 
L 325.531195 223.868751 
L 329.178999 223.0164 
L 332.826803 224.795018 
L 336.474607 224.729958 
L 340.122411 227.026544 
L 343.770215 226.048149 
L 347.418018 226.775218 
L 351.065822 227.884242 
L 354.713626 228.131729 
L 358.36143 228.805723 
L 362.009234 229.58802 
L 365.657038 230.883053 
L 369.304842 231.549819 
L 372.952646 231.455638 
L 376.600449 231.430909 
L 380.248253 234.05893 
L 383.896057 233.587759 
L 387.543861 233.664444 
L 391.191665 233.474819 
L 394.839469 235.879443 
L 398.487273 235.311041 
" clip-path="url(#p25cb0eca8d)" style="fill: none; stroke: #ff00ff; stroke-opacity: 0.3; stroke-width: 0.5; stroke-linecap: square"/>
   </g>
   <g id="line2d_41">
    <path d="M 73.832727 180.290859 
L 77.480531 181.855094 
L 81.128335 183.19124 
L 84.776139 186.664012 
L 88.423943 191.429816 
L 92.071747 193.09604 
L 95.719551 197.732671 
L 99.367354 200.133843 
L 103.015158 202.234618 
L 106.662962 203.257592 
L 110.310766 204.864598 
L 113.95857 207.590008 
L 117.606374 210.352031 
L 121.254178 211.72311 
L 124.901982 214.685551 
L 128.549785 217.29594 
L 132.197589 218.006762 
L 135.845393 220.128907 
L 139.493197 221.152054 
L 143.141001 223.417294 
L 146.788805 224.064361 
L 150.436609 226.030036 
L 154.084413 226.529647 
L 157.732217 229.30646 
L 161.38002 229.580119 
L 165.027824 231.695088 
L 168.675628 232.061292 
L 172.323432 235.367569 
L 175.971236 235.752983 
L 179.61904 236.542485 
L 183.266844 237.273372 
L 186.914648 237.81154 
L 190.562451 239.671451 
L 194.210255 241.615497 
L 197.858059 240.971594 
L 201.505863 244.16882 
L 205.153667 244.121823 
L 208.801471 247.345156 
L 212.449275 247.808333 
L 216.097079 248.229342 
L 219.744883 249.147141 
L 223.392686 251.864836 
L 227.04049 252.383959 
L 230.688294 251.391563 
L 234.336098 253.280703 
L 237.983902 255.441751 
L 241.631706 255.37288 
L 245.27951 256.426411 
L 248.927314 257.653499 
L 252.575117 257.723826 
L 256.222921 259.896657 
L 259.870725 261.662718 
L 263.518529 261.322937 
L 267.166333 261.534112 
L 270.814137 263.022229 
L 274.461941 263.155678 
L 278.109745 264.209001 
L 281.757549 266.734444 
L 285.405352 266.079382 
L 289.053156 266.691251 
L 292.70096 267.947984 
L 296.348764 268.652332 
L 299.996568 270.873388 
L 303.644372 271.605143 
L 307.292176 271.279794 
L 310.93998 272.934234 
L 314.587783 273.188152 
L 318.235587 274.251212 
L 321.883391 274.522503 
L 325.531195 276.083739 
L 329.178999 275.39291 
L 332.826803 277.531288 
L 336.474607 276.848684 
L 340.122411 277.712747 
L 343.770215 278.199218 
L 347.418018 278.612584 
L 351.065822 280.077507 
L 354.713626 280.70446 
L 358.36143 281.88938 
L 362.009234 282.087926 
L 365.657038 283.710676 
L 369.304842 285.087791 
L 372.952646 284.349226 
L 376.600449 284.810271 
L 380.248253 285.964176 
L 383.896057 286.449771 
L 387.543861 286.644305 
L 391.191665 287.82024 
L 394.839469 287.923205 
L 398.487273 288.315875 
" clip-path="url(#p25cb0eca8d)" style="fill: none; stroke: #ff00ff; stroke-opacity: 0.3; stroke-width: 0.5; stroke-linecap: square"/>
   </g>
   <g id="line2d_42">
    <path d="M 73.832727 154.936171 
L 77.480531 163.469275 
L 81.128335 164.518629 
L 84.776139 171.971765 
L 88.423943 175.283517 
L 92.071747 179.09686 
L 95.719551 181.104904 
L 99.367354 184.936474 
L 103.015158 187.9663 
L 106.662962 188.73103 
L 110.310766 192.740084 
L 113.95857 194.254502 
L 117.606374 195.797409 
L 121.254178 198.089087 
L 124.901982 200.350581 
L 128.549785 201.6903 
L 132.197589 203.162148 
L 135.845393 205.61476 
L 139.493197 206.021524 
L 143.141001 208.058344 
L 146.788805 208.724687 
L 150.436609 210.332999 
L 154.084413 212.859426 
L 157.732217 213.68735 
L 161.38002 215.037977 
L 165.027824 216.842473 
L 168.675628 217.637228 
L 172.323432 219.316599 
L 175.971236 220.723144 
L 179.61904 220.923691 
L 183.266844 222.507403 
L 186.914648 224.20503 
L 190.562451 225.347345 
L 194.210255 226.837536 
L 197.858059 228.487348 
L 201.505863 230.135166 
L 205.153667 230.663502 
L 208.801471 232.274147 
L 212.449275 232.919786 
L 216.097079 234.73814 
L 219.744883 236.383338 
L 223.392686 236.665759 
L 227.04049 237.801687 
L 230.688294 238.595789 
L 234.336098 241.634485 
L 237.983902 241.428319 
L 241.631706 242.083611 
L 245.27951 243.195764 
L 248.927314 244.492232 
L 252.575117 245.474151 
L 256.222921 247.574014 
L 259.870725 248.736717 
L 263.518529 250.973668 
L 267.166333 251.048538 
L 270.814137 251.356923 
L 274.461941 254.229847 
L 278.109745 253.989479 
L 281.757549 255.164195 
L 285.405352 256.662071 
L 289.053156 256.584898 
L 292.70096 259.111798 
L 296.348764 259.283756 
L 299.996568 260.464665 
L 303.644372 262.58526 
L 307.292176 263.095176 
L 310.93998 263.798742 
L 314.587783 264.502796 
L 318.235587 266.060817 
L 321.883391 266.168246 
L 325.531195 267.255232 
L 329.178999 268.990384 
L 332.826803 270.074894 
L 336.474607 271.455511 
L 340.122411 272.518349 
L 343.770215 272.914335 
L 347.418018 274.564204 
L 351.065822 275.043075 
L 354.713626 274.842973 
L 358.36143 275.782817 
L 362.009234 277.388007 
L 365.657038 278.403568 
L 369.304842 280.527264 
L 372.952646 280.287326 
L 376.600449 280.831171 
L 380.248253 281.788604 
L 383.896057 282.72039 
L 387.543861 283.027483 
L 391.191665 284.972476 
L 394.839469 285.230971 
L 398.487273 285.682192 
" clip-path="url(#p25cb0eca8d)" style="fill: none; stroke: #ff00ff; stroke-opacity: 0.3; stroke-width: 0.5; stroke-linecap: square"/>
   </g>
   <g id="line2d_43">
    <path d="M 73.832727 173.276034 
L 77.480531 173.844364 
L 81.128335 175.1109 
L 84.776139 175.530696 
L 88.423943 174.886226 
L 92.071747 176.011461 
L 95.719551 176.280327 
L 99.367354 178.465092 
L 103.015158 178.261473 
L 106.662962 178.73123 
L 110.310766 178.953608 
L 113.95857 180.136081 
L 117.606374 179.845501 
L 121.254178 180.912523 
L 124.901982 181.650585 
L 128.549785 182.610653 
L 132.197589 183.243827 
L 135.845393 183.105139 
L 139.493197 183.418755 
L 143.141001 183.963705 
L 146.788805 184.542929 
L 150.436609 183.991851 
L 154.084413 184.81511 
L 157.732217 186.211177 
L 161.38002 186.850107 
L 165.027824 187.705688 
L 168.675628 187.821455 
L 172.323432 187.91156 
L 175.971236 187.457806 
L 179.61904 189.210561 
L 183.266844 188.694072 
L 186.914648 188.752401 
L 190.562451 190.752019 
L 194.210255 190.001326 
L 197.858059 190.527776 
L 201.505863 191.570499 
L 205.153667 191.195081 
L 208.801471 192.372559 
L 212.449275 192.678138 
L 216.097079 193.452183 
L 219.744883 193.958955 
L 223.392686 193.133801 
L 227.04049 194.462182 
L 230.688294 194.473851 
L 234.336098 196.609158 
L 237.983902 196.026906 
L 241.631706 196.464384 
L 245.27951 197.070748 
L 248.927314 197.707468 
L 252.575117 198.454788 
L 256.222921 198.633721 
L 259.870725 197.917775 
L 263.518529 199.991165 
L 267.166333 199.520633 
L 270.814137 200.488695 
L 274.461941 200.480686 
L 278.109745 202.490939 
L 281.757549 202.006586 
L 285.405352 202.788424 
L 289.053156 203.081473 
L 292.70096 203.343004 
L 296.348764 203.404318 
L 299.996568 203.782262 
L 303.644372 203.540265 
L 307.292176 204.781956 
L 310.93998 205.079311 
L 314.587783 205.813327 
L 318.235587 206.546237 
L 321.883391 205.957899 
L 325.531195 206.706368 
L 329.178999 207.448808 
L 332.826803 207.909423 
L 336.474607 207.845209 
L 340.122411 208.727357 
L 343.770215 209.551319 
L 347.418018 209.242942 
L 351.065822 210.409584 
L 354.713626 209.718138 
L 358.36143 211.180069 
L 362.009234 211.32978 
L 365.657038 211.684086 
L 369.304842 211.978369 
L 372.952646 212.729823 
L 376.600449 212.623442 
L 380.248253 213.396123 
L 383.896057 213.729331 
L 387.543861 213.959717 
L 391.191665 214.923516 
L 394.839469 214.582027 
L 398.487273 216.218484 
" clip-path="url(#p25cb0eca8d)" style="fill: none; stroke: #ff00ff; stroke-opacity: 0.3; stroke-width: 0.5; stroke-linecap: square"/>
   </g>
   <g id="line2d_44">
    <path d="M 73.832727 174.202014 
L 77.480531 177.587006 
L 81.128335 178.509269 
L 84.776139 180.053526 
L 88.423943 181.989448 
L 92.071747 182.911797 
L 95.719551 185.613352 
L 99.367354 185.478439 
L 103.015158 188.227903 
L 106.662962 190.257805 
L 110.310766 190.411406 
L 113.95857 192.04149 
L 117.606374 193.33643 
L 121.254178 194.987742 
L 124.901982 195.432842 
L 128.549785 197.197481 
L 132.197589 197.551772 
L 135.845393 199.166012 
L 139.493197 199.744546 
L 143.141001 201.672747 
L 146.788805 202.837868 
L 150.436609 203.379 
L 154.084413 205.308506 
L 157.732217 206.232046 
L 161.38002 207.294318 
L 165.027824 207.733188 
L 168.675628 208.487871 
L 172.323432 210.420865 
L 175.971236 212.155379 
L 179.61904 213.506896 
L 183.266844 213.616262 
L 186.914648 215.872976 
L 190.562451 216.402555 
L 194.210255 216.655115 
L 197.858059 218.453124 
L 201.505863 219.442944 
L 205.153667 220.622289 
L 208.801471 221.390721 
L 212.449275 223.235706 
L 216.097079 224.440268 
L 219.744883 225.37684 
L 223.392686 226.009885 
L 227.04049 228.378743 
L 230.688294 228.635366 
L 234.336098 230.005024 
L 237.983902 230.819177 
L 241.631706 232.95256 
L 245.27951 232.665747 
L 248.927314 235.231328 
L 252.575117 234.819174 
L 256.222921 237.082448 
L 259.870725 237.412426 
L 263.518529 239.052227 
L 267.166333 240.307008 
L 270.814137 241.148531 
L 274.461941 242.994872 
L 278.109745 243.704058 
L 281.757549 244.688165 
L 285.405352 246.536034 
L 289.053156 246.719696 
L 292.70096 247.58696 
L 296.348764 248.402246 
L 299.996568 249.450897 
L 303.644372 251.292545 
L 307.292176 251.583857 
L 310.93998 252.875252 
L 314.587783 253.722515 
L 318.235587 254.716261 
L 321.883391 255.914565 
L 325.531195 257.254851 
L 329.178999 258.289479 
L 332.826803 259.795989 
L 336.474607 259.383226 
L 340.122411 260.808902 
L 343.770215 261.834861 
L 347.418018 262.72946 
L 351.065822 264.130988 
L 354.713626 264.142291 
L 358.36143 266.22496 
L 362.009234 265.740879 
L 365.657038 267.157692 
L 369.304842 268.420116 
L 372.952646 269.214871 
L 376.600449 269.991528 
L 380.248253 271.116319 
L 383.896057 271.83192 
L 387.543861 272.912433 
L 391.191665 274.072667 
L 394.839469 275.152348 
L 398.487273 275.098856 
" clip-path="url(#p25cb0eca8d)" style="fill: none; stroke: #ff00ff; stroke-opacity: 0.3; stroke-width: 0.5; stroke-linecap: square"/>
   </g>
   <g id="line2d_45">
    <path d="M 73.832727 190.693863 
L 77.480531 192.221873 
L 81.128335 193.672781 
L 84.776139 195.574328 
L 88.423943 196.132109 
L 92.071747 199.917781 
L 95.719551 200.134619 
L 99.367354 201.913079 
L 103.015158 203.257865 
L 106.662962 204.745874 
L 110.310766 205.947006 
L 113.95857 207.13611 
L 117.606374 208.146827 
L 121.254178 210.946339 
L 124.901982 211.976446 
L 128.549785 212.563721 
L 132.197589 214.95789 
L 135.845393 216.312464 
L 139.493197 217.079691 
L 143.141001 217.933751 
L 146.788805 218.833135 
L 150.436609 220.449298 
L 154.084413 219.964743 
L 157.732217 222.490137 
L 161.38002 224.132579 
L 165.027824 225.997241 
L 168.675628 226.824145 
L 172.323432 227.526585 
L 175.971236 227.999672 
L 179.61904 228.789734 
L 183.266844 232.064701 
L 186.914648 231.759811 
L 190.562451 234.324688 
L 194.210255 233.961447 
L 197.858059 236.183795 
L 201.505863 236.847533 
L 205.153667 239.486039 
L 208.801471 238.653422 
L 212.449275 241.041096 
L 216.097079 240.244102 
L 219.744883 243.483122 
L 223.392686 244.628581 
L 227.04049 245.833343 
L 230.688294 246.518094 
L 234.336098 247.765699 
L 237.983902 247.623372 
L 241.631706 249.472505 
L 245.27951 250.775998 
L 248.927314 251.079496 
L 252.575117 253.016839 
L 256.222921 253.986587 
L 259.870725 254.554049 
L 263.518529 256.31149 
L 267.166333 257.233573 
L 270.814137 258.042939 
L 274.461941 259.11304 
L 278.109745 259.862269 
L 281.757549 262.411659 
L 285.405352 262.660891 
L 289.053156 263.328648 
L 292.70096 263.630574 
L 296.348764 265.525534 
L 299.996568 265.813136 
L 303.644372 267.213724 
L 307.292176 267.720978 
L 310.93998 268.623627 
L 314.587783 268.581783 
L 318.235587 271.665359 
L 321.883391 271.23233 
L 325.531195 271.921781 
L 329.178999 272.132662 
L 332.826803 273.251733 
L 336.474607 273.489116 
L 340.122411 275.855154 
L 343.770215 275.949715 
L 347.418018 276.319127 
L 351.065822 277.468568 
L 354.713626 279.258346 
L 358.36143 279.486084 
L 362.009234 280.843435 
L 365.657038 280.95377 
L 369.304842 281.25218 
L 372.952646 282.819343 
L 376.600449 282.49662 
L 380.248253 283.277188 
L 383.896057 284.038824 
L 387.543861 284.700374 
L 391.191665 285.775591 
L 394.839469 285.41586 
L 398.487273 286.933838 
" clip-path="url(#p25cb0eca8d)" style="fill: none; stroke: #ff00ff; stroke-opacity: 0.3; stroke-width: 0.5; stroke-linecap: square"/>
   </g>
   <g id="line2d_46">
    <path d="M 73.832727 140.609137 
L 77.480531 143.682322 
L 81.128335 147.702657 
L 84.776139 148.062001 
L 88.423943 153.431154 
L 92.071747 154.283836 
L 95.719551 156.019412 
L 99.367354 160.213038 
L 103.015158 162.863499 
L 106.662962 163.519552 
L 110.310766 166.379889 
L 113.95857 168.481138 
L 117.606374 169.984203 
L 121.254178 171.921043 
L 124.901982 172.436843 
L 128.549785 175.686019 
L 132.197589 176.455499 
L 135.845393 177.33812 
L 139.493197 179.217794 
L 143.141001 180.795177 
L 146.788805 182.25019 
L 150.436609 182.368885 
L 154.084413 185.260999 
L 157.732217 185.893355 
L 161.38002 186.471215 
L 165.027824 187.206695 
L 168.675628 188.979486 
L 172.323432 189.927755 
L 175.971236 191.388883 
L 179.61904 192.080257 
L 183.266844 192.653481 
L 186.914648 193.586924 
L 190.562451 194.326494 
L 194.210255 195.753089 
L 197.858059 196.496605 
L 201.505863 197.513681 
L 205.153667 198.971765 
L 208.801471 199.668607 
L 212.449275 200.535986 
L 216.097079 201.373712 
L 219.744883 203.12654 
L 223.392686 203.444103 
L 227.04049 203.91996 
L 230.688294 205.259708 
L 234.336098 206.042708 
L 237.983902 207.228425 
L 241.631706 208.244682 
L 245.27951 209.208697 
L 248.927314 210.199966 
L 252.575117 209.54931 
L 256.222921 211.41644 
L 259.870725 211.765307 
L 263.518529 214.905001 
L 267.166333 214.756209 
L 270.814137 215.577329 
L 274.461941 215.372749 
L 278.109745 216.685213 
L 281.757549 218.449192 
L 285.405352 218.457014 
L 289.053156 219.176935 
L 292.70096 220.038501 
L 296.348764 221.66006 
L 299.996568 222.104758 
L 303.644372 224.30788 
L 307.292176 224.230535 
L 310.93998 225.647887 
L 314.587783 226.255385 
L 318.235587 226.723606 
L 321.883391 227.626909 
L 325.531195 228.367613 
L 329.178999 229.568543 
L 332.826803 230.363629 
L 336.474607 230.942558 
L 340.122411 232.262327 
L 343.770215 233.0855 
L 347.418018 234.463354 
L 351.065822 235.073859 
L 354.713626 235.59944 
L 358.36143 235.84631 
L 362.009234 237.034819 
L 365.657038 237.632701 
L 369.304842 239.380368 
L 372.952646 239.923861 
L 376.600449 240.010278 
L 380.248253 242.451702 
L 383.896057 242.742648 
L 387.543861 243.229291 
L 391.191665 244.826444 
L 394.839469 244.262104 
L 398.487273 246.825496 
" clip-path="url(#p25cb0eca8d)" style="fill: none; stroke: #ff00ff; stroke-opacity: 0.3; stroke-width: 0.5; stroke-linecap: square"/>
   </g>
   <g id="line2d_47">
    <path d="M 73.832727 169.403085 
L 77.480531 172.615919 
L 81.128335 176.769991 
L 84.776139 178.795329 
L 88.423943 181.213767 
L 92.071747 182.997912 
L 95.719551 186.942236 
L 99.367354 188.343183 
L 103.015158 192.006384 
L 106.662962 193.82575 
L 110.310766 195.944235 
L 113.95857 197.12137 
L 117.606374 199.730912 
L 121.254178 202.604094 
L 124.901982 203.036506 
L 128.549785 205.961416 
L 132.197589 207.523814 
L 135.845393 209.330061 
L 139.493197 210.440413 
L 143.141001 212.829759 
L 146.788805 214.953024 
L 150.436609 216.037312 
L 154.084413 218.862443 
L 157.732217 220.967251 
L 161.38002 222.362514 
L 165.027824 223.089971 
L 168.675628 225.098502 
L 172.323432 227.557256 
L 175.971236 228.420817 
L 179.61904 229.427035 
L 183.266844 232.48281 
L 186.914648 232.993436 
L 190.562451 234.933858 
L 194.210255 235.32797 
L 197.858059 236.915392 
L 201.505863 238.490306 
L 205.153667 239.791646 
L 208.801471 241.892794 
L 212.449275 241.674572 
L 216.097079 244.514033 
L 219.744883 245.951278 
L 223.392686 246.542902 
L 227.04049 248.546805 
L 230.688294 249.219901 
L 234.336098 250.934909 
L 237.983902 252.176314 
L 241.631706 253.687904 
L 245.27951 253.541322 
L 248.927314 256.134345 
L 252.575117 255.784976 
L 256.222921 258.381859 
L 259.870725 259.556532 
L 263.518529 260.859279 
L 267.166333 261.4579 
L 270.814137 263.335766 
L 274.461941 263.648514 
L 278.109745 264.533934 
L 281.757549 266.477162 
L 285.405352 267.27013 
L 289.053156 267.881123 
L 292.70096 269.35371 
L 296.348764 269.817769 
L 299.996568 271.727921 
L 303.644372 272.430821 
L 307.292176 271.998897 
L 310.93998 274.605274 
L 314.587783 274.898488 
L 318.235587 276.008912 
L 321.883391 275.737284 
L 325.531195 277.631727 
L 329.178999 278.501876 
L 332.826803 279.018164 
L 336.474607 280.300624 
L 340.122411 281.310257 
L 343.770215 281.856276 
L 347.418018 283.27708 
L 351.065822 283.760063 
L 354.713626 284.361598 
L 358.36143 285.274567 
L 362.009234 286.366526 
L 365.657038 286.465465 
L 369.304842 287.283192 
L 372.952646 288.446809 
L 376.600449 289.406995 
L 380.248253 290.846999 
L 383.896057 290.923164 
L 387.543861 290.888951 
L 391.191665 292.158347 
L 394.839469 292.480366 
L 398.487273 293.137047 
" clip-path="url(#p25cb0eca8d)" style="fill: none; stroke: #ff00ff; stroke-opacity: 0.3; stroke-width: 0.5; stroke-linecap: square"/>
   </g>
   <g id="line2d_48">
    <path d="M 73.832727 173.360584 
L 77.480531 173.691768 
L 81.128335 174.406451 
L 84.776139 174.997931 
L 88.423943 175.50311 
L 92.071747 175.866803 
L 95.719551 176.141136 
L 99.367354 176.143777 
L 103.015158 176.495815 
L 106.662962 176.786683 
L 110.310766 177.438229 
L 113.95857 177.756151 
L 117.606374 177.639092 
L 121.254178 178.369418 
L 124.901982 178.595915 
L 128.549785 178.861809 
L 132.197589 179.403315 
L 135.845393 179.880894 
L 139.493197 180.133283 
L 143.141001 180.333543 
L 146.788805 180.813246 
L 150.436609 181.10852 
L 154.084413 180.899864 
L 157.732217 181.712861 
L 161.38002 182.481408 
L 165.027824 182.599228 
L 168.675628 182.726147 
L 172.323432 183.172797 
L 175.971236 183.684492 
L 179.61904 184.089189 
L 183.266844 184.489208 
L 186.914648 184.658122 
L 190.562451 184.775037 
L 194.210255 185.178816 
L 197.858059 185.468105 
L 201.505863 185.664189 
L 205.153667 186.376604 
L 208.801471 186.898575 
L 212.449275 187.198184 
L 216.097079 187.104993 
L 219.744883 187.145567 
L 223.392686 188.125096 
L 227.04049 187.979175 
L 230.688294 188.524914 
L 234.336098 189.51027 
L 237.983902 189.266263 
L 241.631706 189.704833 
L 245.27951 189.986558 
L 248.927314 190.493617 
L 252.575117 190.739934 
L 256.222921 191.791728 
L 259.870725 191.478055 
L 263.518529 191.85419 
L 267.166333 192.191503 
L 270.814137 192.547416 
L 274.461941 192.839877 
L 278.109745 193.930006 
L 281.757549 193.82298 
L 285.405352 194.377632 
L 289.053156 194.263716 
L 292.70096 195.26232 
L 296.348764 195.625452 
L 299.996568 195.919879 
L 303.644372 196.149548 
L 307.292176 196.456246 
L 310.93998 197.395416 
L 314.587783 197.026557 
L 318.235587 197.326524 
L 321.883391 198.123547 
L 325.531195 198.904179 
L 329.178999 198.957872 
L 332.826803 199.514734 
L 336.474607 200.009379 
L 340.122411 200.709135 
L 343.770215 200.926446 
L 347.418018 201.256697 
L 351.065822 201.446968 
L 354.713626 202.204435 
L 358.36143 202.167147 
L 362.009234 203.411135 
L 365.657038 203.775172 
L 369.304842 204.608593 
L 372.952646 204.515588 
L 376.600449 204.649655 
L 380.248253 205.566823 
L 383.896057 205.948613 
L 387.543861 206.451697 
L 391.191665 207.259499 
L 394.839469 208.079801 
L 398.487273 208.106497 
" clip-path="url(#p25cb0eca8d)" style="fill: none; stroke: #ff00ff; stroke-opacity: 0.3; stroke-width: 0.5; stroke-linecap: square"/>
   </g>
   <g id="line2d_49">
    <path d="M 73.832727 171.548711 
L 77.480531 173.333257 
L 81.128335 176.572041 
L 84.776139 179.751449 
L 88.423943 181.546917 
L 92.071747 184.937436 
L 95.719551 185.802633 
L 99.367354 190.433207 
L 103.015158 193.488997 
L 106.662962 195.258961 
L 110.310766 196.357013 
L 113.95857 198.127494 
L 117.606374 200.50952 
L 121.254178 202.685703 
L 124.901982 204.175434 
L 128.549785 207.092852 
L 132.197589 209.179432 
L 135.845393 210.016584 
L 139.493197 211.822257 
L 143.141001 214.066973 
L 146.788805 215.37615 
L 150.436609 217.192415 
L 154.084413 218.804387 
L 157.732217 219.919347 
L 161.38002 220.422258 
L 165.027824 222.292058 
L 168.675628 224.557829 
L 172.323432 226.106047 
L 175.971236 226.940602 
L 179.61904 229.396787 
L 183.266844 229.777803 
L 186.914648 231.418659 
L 190.562451 233.668886 
L 194.210255 236.035397 
L 197.858059 236.616709 
L 201.505863 237.43285 
L 205.153667 237.708073 
L 208.801471 241.926207 
L 212.449275 241.501294 
L 216.097079 243.421206 
L 219.744883 244.904235 
L 223.392686 245.18108 
L 227.04049 246.050827 
L 230.688294 249.166754 
L 234.336098 249.811475 
L 237.983902 251.030662 
L 241.631706 252.066087 
L 245.27951 252.530935 
L 248.927314 254.31523 
L 252.575117 254.599352 
L 256.222921 257.642569 
L 259.870725 257.527929 
L 263.518529 259.624627 
L 267.166333 258.859611 
L 270.814137 260.849677 
L 274.461941 261.740027 
L 278.109745 263.469259 
L 281.757549 264.288485 
L 285.405352 266.089931 
L 289.053156 267.229971 
L 292.70096 268.994238 
L 296.348764 268.376564 
L 299.996568 269.073241 
L 303.644372 270.70001 
L 307.292176 270.762214 
L 310.93998 272.631705 
L 314.587783 273.146572 
L 318.235587 275.571225 
L 321.883391 274.929576 
L 325.531195 276.461805 
L 329.178999 277.331581 
L 332.826803 278.082144 
L 336.474607 278.565364 
L 340.122411 280.065946 
L 343.770215 280.833101 
L 347.418018 281.831547 
L 351.065822 283.004627 
L 354.713626 283.430279 
L 358.36143 283.990112 
L 362.009234 285.348669 
L 365.657038 285.281413 
L 369.304842 285.883134 
L 372.952646 288.272208 
L 376.600449 287.669862 
L 380.248253 288.90868 
L 383.896057 289.744153 
L 387.543861 289.386507 
L 391.191665 291.116937 
L 394.839469 291.06966 
L 398.487273 292.206442 
" clip-path="url(#p25cb0eca8d)" style="fill: none; stroke: #ff00ff; stroke-opacity: 0.3; stroke-width: 0.5; stroke-linecap: square"/>
   </g>
   <g id="line2d_50">
    <path d="M 73.832727 172.319942 
L 77.480531 173.071324 
L 81.128335 173.809143 
L 84.776139 176.675853 
L 88.423943 176.886346 
L 92.071747 178.100797 
L 95.719551 181.65248 
L 99.367354 182.385935 
L 103.015158 183.043768 
L 106.662962 184.865013 
L 110.310766 186.584729 
L 113.95857 187.805021 
L 117.606374 189.468504 
L 121.254178 190.444058 
L 124.901982 191.316532 
L 128.549785 193.201029 
L 132.197589 195.184156 
L 135.845393 195.045884 
L 139.493197 197.024548 
L 143.141001 197.732585 
L 146.788805 199.217839 
L 150.436609 200.183891 
L 154.084413 201.328272 
L 157.732217 202.56408 
L 161.38002 202.434606 
L 165.027824 204.694205 
L 168.675628 206.222272 
L 172.323432 206.648585 
L 175.971236 208.446751 
L 179.61904 208.263125 
L 183.266844 210.757934 
L 186.914648 212.431277 
L 190.562451 212.310443 
L 194.210255 213.3174 
L 197.858059 214.094673 
L 201.505863 216.680634 
L 205.153667 217.22646 
L 208.801471 218.480796 
L 212.449275 219.64418 
L 216.097079 221.564975 
L 219.744883 222.391392 
L 223.392686 224.28605 
L 227.04049 224.443296 
L 230.688294 226.236023 
L 234.336098 227.274828 
L 237.983902 229.357921 
L 241.631706 229.237948 
L 245.27951 230.611632 
L 248.927314 231.338507 
L 252.575117 232.43793 
L 256.222921 233.656263 
L 259.870725 235.295964 
L 263.518529 237.125656 
L 267.166333 238.087675 
L 270.814137 237.725224 
L 274.461941 240.39519 
L 278.109745 241.099302 
L 281.757549 243.283989 
L 285.405352 244.368714 
L 289.053156 243.804367 
L 292.70096 245.129949 
L 296.348764 247.070701 
L 299.996568 248.602349 
L 303.644372 250.493505 
L 307.292176 250.184417 
L 310.93998 251.538073 
L 314.587783 252.487275 
L 318.235587 253.906112 
L 321.883391 252.967273 
L 325.531195 254.800388 
L 329.178999 255.762601 
L 332.826803 257.799779 
L 336.474607 257.829855 
L 340.122411 259.958804 
L 343.770215 259.863783 
L 347.418018 261.23797 
L 351.065822 261.876283 
L 354.713626 263.87087 
L 358.36143 264.261581 
L 362.009234 266.067032 
L 365.657038 266.830728 
L 369.304842 267.806224 
L 372.952646 269.183145 
L 376.600449 269.936938 
L 380.248253 270.623928 
L 383.896057 271.550489 
L 387.543861 271.919879 
L 391.191665 272.433103 
L 394.839469 273.307643 
L 398.487273 274.962751 
" clip-path="url(#p25cb0eca8d)" style="fill: none; stroke: #ff00ff; stroke-opacity: 0.3; stroke-width: 0.5; stroke-linecap: square"/>
   </g>
   <g id="line2d_51">
    <path d="M 73.832727 162.213647 
L 77.480531 162.078317 
L 81.128335 163.416185 
L 84.776139 162.631333 
L 88.423943 162.761338 
L 92.071747 163.769716 
L 95.719551 163.369023 
L 99.367354 164.895382 
L 103.015158 165.031817 
L 106.662962 165.555051 
L 110.310766 165.397361 
L 113.95857 166.981962 
L 117.606374 166.573878 
L 121.254178 166.813177 
L 124.901982 166.253587 
L 128.549785 167.036688 
L 132.197589 167.24866 
L 135.845393 168.254828 
L 139.493197 168.097639 
L 143.141001 168.50525 
L 146.788805 169.055324 
L 150.436609 169.707386 
L 154.084413 169.187381 
L 157.732217 169.648598 
L 161.38002 169.621601 
L 165.027824 170.775757 
L 168.675628 170.628515 
L 172.323432 171.283649 
L 175.971236 170.897753 
L 179.61904 171.447425 
L 183.266844 170.867025 
L 186.914648 172.978105 
L 190.562451 172.188071 
L 194.210255 171.668583 
L 197.858059 172.561351 
L 201.505863 173.222341 
L 205.153667 173.204429 
L 208.801471 173.142268 
L 212.449275 173.922298 
L 216.097079 174.503086 
L 219.744883 174.045916 
L 223.392686 174.221303 
L 227.04049 176.147882 
L 230.688294 175.154904 
L 234.336098 175.49391 
L 237.983902 175.897947 
L 241.631706 177.243121 
L 245.27951 176.211851 
L 248.927314 176.427483 
L 252.575117 176.262759 
L 256.222921 176.617524 
L 259.870725 177.112901 
L 263.518529 177.682924 
L 267.166333 178.747965 
L 270.814137 177.650129 
L 274.461941 178.381647 
L 278.109745 178.039713 
L 281.757549 177.762595 
L 285.405352 178.420485 
L 289.053156 179.040197 
L 292.70096 179.970382 
L 296.348764 179.18098 
L 299.996568 180.409769 
L 303.644372 179.928903 
L 307.292176 180.64848 
L 310.93998 179.634691 
L 314.587783 180.92699 
L 318.235587 181.193702 
L 321.883391 180.949911 
L 325.531195 181.754081 
L 329.178999 181.069496 
L 332.826803 182.359269 
L 336.474607 181.464922 
L 340.122411 181.967661 
L 343.770215 183.145211 
L 347.418018 183.154009 
L 351.065822 183.103087 
L 354.713626 183.829395 
L 358.36143 183.745318 
L 362.009234 184.416254 
L 365.657038 184.6412 
L 369.304842 186.005549 
L 372.952646 184.200636 
L 376.600449 184.011614 
L 380.248253 183.768052 
L 383.896057 185.68645 
L 387.543861 185.151948 
L 391.191665 185.694659 
L 394.839469 187.297689 
L 398.487273 184.549531 
" clip-path="url(#p25cb0eca8d)" style="fill: none; stroke: #ff00ff; stroke-opacity: 0.3; stroke-width: 0.5; stroke-linecap: square"/>
   </g>
   <g id="line2d_52">
    <path d="M 73.832727 151.29414 
L 77.480531 152.830976 
L 81.128335 154.766482 
L 84.776139 157.101547 
L 88.423943 156.064751 
L 92.071747 159.777096 
L 95.719551 161.374815 
L 99.367354 162.223679 
L 103.015158 163.684347 
L 106.662962 164.049604 
L 110.310766 167.095605 
L 113.95857 167.284685 
L 117.606374 169.128995 
L 121.254178 170.477383 
L 124.901982 171.451932 
L 128.549785 173.449914 
L 132.197589 174.744394 
L 135.845393 176.240757 
L 139.493197 176.963807 
L 143.141001 179.360846 
L 146.788805 180.729299 
L 150.436609 181.567441 
L 154.084413 183.883188 
L 157.732217 183.740136 
L 161.38002 185.390688 
L 165.027824 186.941016 
L 168.675628 186.476999 
L 172.323432 188.810729 
L 175.971236 190.218494 
L 179.61904 191.507664 
L 183.266844 192.478682 
L 186.914648 193.60475 
L 190.562451 193.917089 
L 194.210255 195.028934 
L 197.858059 197.008731 
L 201.505863 197.403999 
L 205.153667 197.698354 
L 208.801471 199.235406 
L 212.449275 200.475203 
L 216.097079 200.430438 
L 219.744883 202.117731 
L 223.392686 202.344027 
L 227.04049 204.532883 
L 230.688294 203.970294 
L 234.336098 204.704252 
L 237.983902 207.084197 
L 241.631706 206.673759 
L 245.27951 207.569067 
L 248.927314 210.075587 
L 252.575117 210.56373 
L 256.222921 211.233102 
L 259.870725 212.063149 
L 263.518529 212.716145 
L 267.166333 212.92948 
L 270.814137 214.88894 
L 274.461941 214.757429 
L 278.109745 216.194831 
L 281.757549 217.029271 
L 285.405352 217.777122 
L 289.053156 217.25327 
L 292.70096 219.00736 
L 296.348764 219.310212 
L 299.996568 219.820888 
L 303.644372 221.363365 
L 307.292176 221.915362 
L 310.93998 222.208311 
L 314.587783 224.321486 
L 318.235587 225.318282 
L 321.883391 225.942744 
L 325.531195 226.320301 
L 329.178999 226.590487 
L 332.826803 227.420836 
L 336.474607 229.45381 
L 340.122411 230.640366 
L 343.770215 230.011095 
L 347.418018 231.03788 
L 351.065822 233.465425 
L 354.713626 232.582768 
L 358.36143 232.928319 
L 362.009234 234.586692 
L 365.657038 235.440996 
L 369.304842 236.672232 
L 372.952646 237.739692 
L 376.600449 236.711508 
L 380.248253 239.178127 
L 383.896057 239.070907 
L 387.543861 240.346062 
L 391.191665 242.004048 
L 394.839469 241.452582 
L 398.487273 242.225664 
" clip-path="url(#p25cb0eca8d)" style="fill: none; stroke: #ff00ff; stroke-opacity: 0.3; stroke-width: 0.5; stroke-linecap: square"/>
   </g>
   <g id="line2d_53">
    <path d="M 73.832727 186.201546 
L 77.480531 189.700268 
L 81.128335 189.680864 
L 84.776139 191.740691 
L 88.423943 194.014528 
L 92.071747 194.449107 
L 95.719551 195.810283 
L 99.367354 198.954513 
L 103.015158 201.393261 
L 106.662962 201.615222 
L 110.310766 203.162636 
L 113.95857 204.923673 
L 117.606374 207.085245 
L 121.254178 207.646097 
L 124.901982 208.89297 
L 128.549785 211.115038 
L 132.197589 211.772784 
L 135.845393 212.91774 
L 139.493197 214.860293 
L 143.141001 216.65292 
L 146.788805 218.206304 
L 150.436609 217.737695 
L 154.084413 219.42031 
L 157.732217 219.819984 
L 161.38002 221.262582 
L 165.027824 222.731402 
L 168.675628 224.220703 
L 172.323432 225.400478 
L 175.971236 226.767726 
L 179.61904 227.815386 
L 183.266844 230.518047 
L 186.914648 230.31722 
L 190.562451 231.683039 
L 194.210255 233.246119 
L 197.858059 234.243783 
L 201.505863 236.075792 
L 205.153667 237.137375 
L 208.801471 237.732896 
L 212.449275 239.340052 
L 216.097079 239.501094 
L 219.744883 240.398699 
L 223.392686 242.193264 
L 227.04049 242.931915 
L 230.688294 244.478454 
L 234.336098 245.372069 
L 237.983902 246.542077 
L 241.631706 248.401249 
L 245.27951 247.008849 
L 248.927314 249.554077 
L 252.575117 250.619413 
L 256.222921 253.036466 
L 259.870725 253.353563 
L 263.518529 254.374406 
L 267.166333 254.958746 
L 270.814137 256.671494 
L 274.461941 256.260761 
L 278.109745 257.955411 
L 281.757549 259.599683 
L 285.405352 260.101539 
L 289.053156 259.71677 
L 292.70096 261.042051 
L 296.348764 263.409825 
L 299.996568 264.131677 
L 303.644372 265.333232 
L 307.292176 265.276066 
L 310.93998 267.57868 
L 314.587783 267.218741 
L 318.235587 268.757752 
L 321.883391 268.859468 
L 325.531195 269.977613 
L 329.178999 271.59857 
L 332.826803 272.458743 
L 336.474607 272.187015 
L 340.122411 272.87394 
L 343.770215 274.351127 
L 347.418018 275.615144 
L 351.065822 275.271079 
L 354.713626 277.125005 
L 358.36143 278.030124 
L 362.009234 278.623004 
L 365.657038 278.934238 
L 369.304842 281.162132 
L 372.952646 280.290599 
L 376.600449 281.284975 
L 380.248253 282.107947 
L 383.896057 282.369615 
L 387.543861 283.505091 
L 391.191665 285.246946 
L 394.839469 284.493734 
L 398.487273 286.526959 
" clip-path="url(#p25cb0eca8d)" style="fill: none; stroke: #ff00ff; stroke-opacity: 0.3; stroke-width: 0.5; stroke-linecap: square"/>
   </g>
   <g id="line2d_54">
    <path d="M 73.832727 188.714668 
L 77.480531 190.123351 
L 81.128335 191.350447 
L 84.776139 190.712277 
L 88.423943 192.612347 
L 92.071747 194.078411 
L 95.719551 194.514067 
L 99.367354 194.747108 
L 103.015158 197.279175 
L 106.662962 198.045369 
L 110.310766 198.0798 
L 113.95857 199.755985 
L 117.606374 200.014416 
L 121.254178 202.185576 
L 124.901982 202.861593 
L 128.549785 205.020251 
L 132.197589 205.289461 
L 135.845393 207.753928 
L 139.493197 208.535636 
L 143.141001 209.115707 
L 146.788805 211.012044 
L 150.436609 212.561396 
L 154.084413 214.474771 
L 157.732217 214.866622 
L 161.38002 215.260928 
L 165.027824 216.780054 
L 168.675628 219.361637 
L 172.323432 219.435998 
L 175.971236 220.357987 
L 179.61904 221.828946 
L 183.266844 223.212957 
L 186.914648 224.559393 
L 190.562451 224.992451 
L 194.210255 225.354134 
L 197.858059 227.072142 
L 201.505863 228.283615 
L 205.153667 228.933367 
L 208.801471 230.073012 
L 212.449275 232.002289 
L 216.097079 232.888548 
L 219.744883 233.886714 
L 223.392686 234.095399 
L 227.04049 236.96409 
L 230.688294 236.771831 
L 234.336098 237.75347 
L 237.983902 238.142308 
L 241.631706 240.182902 
L 245.27951 240.933509 
L 248.927314 242.536504 
L 252.575117 241.391124 
L 256.222921 244.74274 
L 259.870725 244.858343 
L 263.518529 245.10011 
L 267.166333 246.752233 
L 270.814137 245.847969 
L 274.461941 247.229303 
L 278.109745 248.673953 
L 281.757549 250.858583 
L 285.405352 249.537565 
L 289.053156 251.947865 
L 292.70096 253.710617 
L 296.348764 252.507907 
L 299.996568 254.653095 
L 303.644372 255.278584 
L 307.292176 254.743028 
L 310.93998 257.685261 
L 314.587783 256.9307 
L 318.235587 259.209388 
L 321.883391 258.145021 
L 325.531195 260.892993 
L 329.178999 261.584432 
L 332.826803 262.08509 
L 336.474607 262.106913 
L 340.122411 262.225558 
L 343.770215 263.568786 
L 347.418018 265.243062 
L 351.065822 266.822712 
L 354.713626 266.288893 
L 358.36143 266.331642 
L 362.009234 268.305992 
L 365.657038 267.834642 
L 369.304842 268.450945 
L 372.952646 269.511021 
L 376.600449 270.628147 
L 380.248253 271.046321 
L 383.896057 271.242979 
L 387.543861 271.420613 
L 391.191665 273.024906 
L 394.839469 272.960557 
L 398.487273 274.185377 
" clip-path="url(#p25cb0eca8d)" style="fill: none; stroke: #ff00ff; stroke-opacity: 0.3; stroke-width: 0.5; stroke-linecap: square"/>
   </g>
   <g id="line2d_55">
    <path d="M 73.832727 175.164406 
L 77.480531 173.612657 
L 81.128335 172.649619 
L 84.776139 171.305723 
L 88.423943 170.206552 
L 92.071747 169.186979 
L 95.719551 167.545039 
L 99.367354 166.026761 
L 103.015158 164.53301 
L 106.662962 163.496043 
L 110.310766 162.92134 
L 113.95857 161.094052 
L 117.606374 159.90723 
L 121.254178 158.687124 
L 124.901982 157.714915 
L 128.549785 156.141393 
L 132.197589 154.922077 
L 135.845393 153.591687 
L 139.493197 152.728901 
L 143.141001 151.683121 
L 146.788805 150.068881 
L 150.436609 149.049754 
L 154.084413 147.321886 
L 157.732217 146.743509 
L 161.38002 145.146449 
L 165.027824 143.894625 
L 168.675628 142.709797 
L 172.323432 140.882624 
L 175.971236 140.369307 
L 179.61904 138.961514 
L 183.266844 137.701623 
L 186.914648 136.490072 
L 190.562451 135.058253 
L 194.210255 133.77534 
L 197.858059 132.701831 
L 201.505863 130.629647 
L 205.153667 130.714169 
L 208.801471 128.179604 
L 212.449275 126.373486 
L 216.097079 125.405683 
L 219.744883 123.684187 
L 223.392686 123.032914 
L 227.04049 121.061714 
L 230.688294 120.349816 
L 234.336098 118.07028 
L 237.983902 116.795506 
L 241.631706 115.710831 
L 245.27951 114.987781 
L 248.927314 112.477874 
L 252.575117 112.238201 
L 256.222921 109.224866 
L 259.870725 108.581085 
L 263.518529 106.233476 
L 267.166333 105.993072 
L 270.814137 104.144959 
L 274.461941 103.383099 
L 278.109745 101.309365 
L 281.757549 98.63228 
L 285.405352 97.603407 
L 289.053156 97.231419 
L 292.70096 95.492614 
L 296.348764 93.834356 
L 299.996568 92.374391 
L 303.644372 89.671931 
L 307.292176 90.326434 
L 310.93998 87.412848 
L 314.587783 87.27162 
L 318.235587 83.936818 
L 321.883391 85.543034 
L 325.531195 82.299944 
L 329.178999 80.886999 
L 332.826803 78.572314 
L 336.474607 78.931988 
L 340.122411 76.310677 
L 343.770215 75.135839 
L 347.418018 73.525518 
L 351.065822 71.426264 
L 354.713626 70.919392 
L 358.36143 69.141548 
L 362.009234 67.706614 
L 365.657038 66.193058 
L 369.304842 63.65347 
L 372.952646 62.916526 
L 376.600449 63.270832 
L 380.248253 59.905028 
L 383.896057 58.450633 
L 387.543861 58.657624 
L 391.191665 55.417606 
L 394.839469 55.779432 
L 398.487273 53.568 
" clip-path="url(#p25cb0eca8d)" style="fill: none; stroke: #6495ed; stroke-width: 2; stroke-linecap: square"/>
   </g>
   <g id="line2d_56">
    <path d="M 73.832727 174.461201 
L 77.480531 176.188986 
L 81.128335 177.49047 
L 84.776139 179.034659 
L 88.423943 180.36589 
L 92.071747 181.600448 
L 95.719551 183.045138 
L 99.367354 184.450363 
L 103.015158 185.796265 
L 106.662962 186.925569 
L 110.310766 187.767524 
L 113.95857 189.162007 
L 117.606374 190.206453 
L 121.254178 191.32081 
L 124.901982 192.257052 
L 128.549785 193.422855 
L 132.197589 194.429312 
L 135.845393 195.471565 
L 139.493197 196.328569 
L 143.141001 197.233331 
L 146.788805 198.29099 
L 150.436609 199.152688 
L 154.084413 200.255511 
L 157.732217 200.921906 
L 161.38002 201.956351 
L 165.027824 202.852037 
L 168.675628 203.716031 
L 172.323432 204.818309 
L 175.971236 205.418655 
L 179.61904 206.341471 
L 183.266844 207.193019 
L 186.914648 208.051791 
L 190.562451 208.925076 
L 194.210255 209.765401 
L 197.858059 210.546949 
L 201.505863 211.616852 
L 205.153667 211.981853 
L 208.801471 213.185086 
L 212.449275 214.153935 
L 216.097079 214.8616 
L 219.744883 215.795479 
L 223.392686 216.367371 
L 227.04049 217.353402 
L 230.688294 217.943754 
L 234.336098 219.025361 
L 237.983902 219.77151 
L 241.631706 220.458852 
L 245.27951 221.031281 
L 248.927314 222.133935 
L 252.575117 222.529461 
L 256.222921 223.756199 
L 259.870725 224.315107 
L 263.518529 225.357486 
L 267.166333 225.765432 
L 270.814137 226.618805 
L 274.461941 227.188644 
L 278.109745 228.090595 
L 281.757549 229.176648 
L 285.405352 229.797477 
L 289.053156 230.237968 
L 292.70096 231.052107 
L 296.348764 231.80893 
L 299.996568 232.547391 
L 303.644372 233.563762 
L 307.292176 233.742924 
L 310.93998 234.798254 
L 314.587783 235.190075 
L 318.235587 236.324705 
L 321.883391 236.280402 
L 325.531195 237.38889 
L 329.178999 238.046077 
L 332.826803 238.927146 
L 336.474607 239.193058 
L 340.122411 240.147032 
L 343.770215 240.724631 
L 347.418018 241.408262 
L 351.065822 242.240745 
L 354.713626 242.660378 
L 358.36143 243.348925 
L 362.009234 244.001317 
L 365.657038 244.664467 
L 369.304842 245.537365 
L 372.952646 245.998775 
L 376.600449 246.215983 
L 380.248253 247.268632 
L 383.896057 247.873157 
L 387.543861 248.153394 
L 391.191665 249.098332 
L 394.839469 249.357938 
L 398.487273 250.102241 
" clip-path="url(#p25cb0eca8d)" style="fill: none; stroke: #dc143c; stroke-width: 2; stroke-linecap: square"/>
   </g>
   <g id="line2d_57">
    <path d="M 73.832727 258.917316 
L 77.480531 256.943587 
L 81.128335 256.203439 
L 84.776139 251.515833 
L 88.423943 243.867634 
L 92.071747 232.76541 
L 95.719551 221.663185 
L 99.367354 209.820813 
L 103.015158 202.912762 
L 106.662962 198.471872 
L 110.310766 192.550686 
L 113.95857 191.070389 
L 117.606374 188.109796 
L 121.254178 185.642635 
L 124.901982 181.695177 
L 128.549785 178.9813 
L 132.197589 178.241152 
L 135.845393 176.514139 
L 139.493197 176.514139 
L 143.141001 175.280559 
L 146.788805 174.046978 
L 150.436609 173.060114 
L 154.084413 171.333101 
L 157.732217 170.839669 
L 161.38002 170.099521 
L 165.027824 169.359373 
L 168.675628 169.359373 
L 172.323432 169.112656 
L 175.971236 168.619224 
L 179.61904 168.619224 
L 183.266844 168.619224 
L 186.914648 168.125792 
L 190.562451 168.125792 
L 194.210255 167.879076 
L 197.858059 167.63236 
L 201.505863 166.892212 
L 205.153667 166.892212 
L 208.801471 166.892212 
L 212.449275 167.138928 
L 216.097079 166.892212 
L 219.744883 167.138928 
L 223.392686 167.385644 
L 227.04049 167.385644 
L 230.688294 167.63236 
L 234.336098 167.385644 
L 237.983902 166.398779 
L 241.631706 166.892212 
L 245.27951 166.892212 
L 248.927314 167.385644 
L 252.575117 166.645495 
L 256.222921 166.892212 
L 259.870725 166.892212 
L 263.518529 166.645495 
L 267.166333 167.138928 
L 270.814137 167.138928 
L 274.461941 167.138928 
L 278.109745 166.892212 
L 281.757549 167.138928 
L 285.405352 167.63236 
L 289.053156 167.879076 
L 292.70096 168.372508 
L 296.348764 168.372508 
L 299.996568 168.619224 
L 303.644372 168.619224 
L 307.292176 168.86594 
L 310.93998 168.619224 
L 314.587783 168.372508 
L 318.235587 168.619224 
L 321.883391 168.372508 
L 325.531195 168.372508 
L 329.178999 168.372508 
L 332.826803 168.372508 
L 336.474607 168.372508 
L 340.122411 168.372508 
L 343.770215 168.125792 
L 347.418018 168.372508 
L 351.065822 168.372508 
L 354.713626 168.372508 
L 358.36143 168.372508 
L 362.009234 168.372508 
L 365.657038 168.125792 
L 369.304842 168.372508 
L 372.952646 168.372508 
L 376.600449 168.372508 
L 380.248253 168.372508 
L 383.896057 168.619224 
L 387.543861 168.619224 
L 391.191665 168.619224 
L 394.839469 168.619224 
L 398.487273 168.619224 
" clip-path="url(#p25cb0eca8d)" style="fill: none; stroke: #ffff00; stroke-width: 3; stroke-linecap: square"/>
   </g>
   <g id="patch_3">
    <path d="M 57.6 307.584 
L 57.6 41.472 
" style="fill: none; stroke: #ffffff; stroke-linejoin: miter; stroke-linecap: square"/>
   </g>
   <g id="patch_4">
    <path d="M 414.72 307.584 
L 414.72 41.472 
" style="fill: none; stroke: #ffffff; stroke-linejoin: miter; stroke-linecap: square"/>
   </g>
   <g id="patch_5">
    <path d="M 57.6 307.584 
L 414.72 307.584 
" style="fill: none; stroke: #ffffff; stroke-linejoin: miter; stroke-linecap: square"/>
   </g>
   <g id="patch_6">
    <path d="M 57.6 41.472 
L 414.72 41.472 
" style="fill: none; stroke: #ffffff; stroke-linejoin: miter; stroke-linecap: square"/>
   </g>
  </g>
 </g>
 <defs>
  <clipPath id="p25cb0eca8d">
   <rect x="57.6" y="41.472" width="357.12" height="266.112"/>
  </clipPath>
 </defs>
</svg>
