<?xml version="1.0" encoding="utf-8" standalone="no"?>
<!DOCTYPE svg PUBLIC "-//W3C//DTD SVG 1.1//EN"
  "http://www.w3.org/Graphics/SVG/1.1/DTD/svg11.dtd">
<svg xmlns:xlink="http://www.w3.org/1999/xlink" width="460.8pt" height="345.6pt" viewBox="0 0 460.8 345.6" xmlns="http://www.w3.org/2000/svg" version="1.1">
 <metadata>
  <rdf:RDF xmlns:dc="http://purl.org/dc/elements/1.1/" xmlns:cc="http://creativecommons.org/ns#" xmlns:rdf="http://www.w3.org/1999/02/22-rdf-syntax-ns#">
   <cc:Work>
    <dc:type rdf:resource="http://purl.org/dc/dcmitype/StillImage"/>
    <dc:date>2023-07-03T19:48:42.792130</dc:date>
    <dc:format>image/svg+xml</dc:format>
    <dc:creator>
     <cc:Agent>
      <dc:title>Matplotlib v3.7.1, https://matplotlib.org/</dc:title>
     </cc:Agent>
    </dc:creator>
   </cc:Work>
  </rdf:RDF>
 </metadata>
 <defs>
  <style type="text/css">*{stroke-linejoin: round; stroke-linecap: butt}</style>
 </defs>
 <g id="figure_1">
  <g id="patch_1">
   <path d="M 0 345.6 
L 460.8 345.6 
L 460.8 0 
L 0 0 
z
" style="fill: #ffffff"/>
  </g>
  <g id="axes_1">
   <g id="patch_2">
    <path d="M 57.6 307.584 
L 414.72 307.584 
L 414.72 41.472 
L 57.6 41.472 
z
" style="fill: #e5e5e5"/>
   </g>
   <g id="matplotlib.axis_1">
    <g id="xtick_1">
     <g id="line2d_1">
      <path d="M 70.184923 307.584 
L 70.184923 41.472 
" clip-path="url(#p655f30001b)" style="fill: none; stroke: #ffffff; stroke-width: 0.8; stroke-linecap: square"/>
     </g>
     <g id="line2d_2">
      <defs>
       <path id="md3bf35d845" d="M 0 0 
L 0 3.5 
" style="stroke: #555555; stroke-width: 0.8"/>
      </defs>
      <g>
       <use xlink:href="#md3bf35d845" x="70.184923" y="307.584" style="fill: #555555; stroke: #555555; stroke-width: 0.8"/>
      </g>
     </g>
     <g id="text_1">
      <!-- 0 -->
      <g style="fill: #555555" transform="translate(67.003673 322.182437) scale(0.1 -0.1)">
       <defs>
        <path id="DejaVuSans-30" d="M 2034 4250 
Q 1547 4250 1301 3770 
Q 1056 3291 1056 2328 
Q 1056 1369 1301 889 
Q 1547 409 2034 409 
Q 2525 409 2770 889 
Q 3016 1369 3016 2328 
Q 3016 3291 2770 3770 
Q 2525 4250 2034 4250 
z
M 2034 4750 
Q 2819 4750 3233 4129 
Q 3647 3509 3647 2328 
Q 3647 1150 3233 529 
Q 2819 -91 2034 -91 
Q 1250 -91 836 529 
Q 422 1150 422 2328 
Q 422 3509 836 4129 
Q 1250 4750 2034 4750 
z
" transform="scale(0.015625)"/>
       </defs>
       <use xlink:href="#DejaVuSans-30"/>
      </g>
     </g>
    </g>
    <g id="xtick_2">
     <g id="line2d_3">
      <path d="M 143.141001 307.584 
L 143.141001 41.472 
" clip-path="url(#p655f30001b)" style="fill: none; stroke: #ffffff; stroke-width: 0.8; stroke-linecap: square"/>
     </g>
     <g id="line2d_4">
      <g>
       <use xlink:href="#md3bf35d845" x="143.141001" y="307.584" style="fill: #555555; stroke: #555555; stroke-width: 0.8"/>
      </g>
     </g>
     <g id="text_2">
      <!-- 20 -->
      <g style="fill: #555555" transform="translate(136.778501 322.182437) scale(0.1 -0.1)">
       <defs>
        <path id="DejaVuSans-32" d="M 1228 531 
L 3431 531 
L 3431 0 
L 469 0 
L 469 531 
Q 828 903 1448 1529 
Q 2069 2156 2228 2338 
Q 2531 2678 2651 2914 
Q 2772 3150 2772 3378 
Q 2772 3750 2511 3984 
Q 2250 4219 1831 4219 
Q 1534 4219 1204 4116 
Q 875 4013 500 3803 
L 500 4441 
Q 881 4594 1212 4672 
Q 1544 4750 1819 4750 
Q 2544 4750 2975 4387 
Q 3406 4025 3406 3419 
Q 3406 3131 3298 2873 
Q 3191 2616 2906 2266 
Q 2828 2175 2409 1742 
Q 1991 1309 1228 531 
z
" transform="scale(0.015625)"/>
       </defs>
       <use xlink:href="#DejaVuSans-32"/>
       <use xlink:href="#DejaVuSans-30" x="63.623047"/>
      </g>
     </g>
    </g>
    <g id="xtick_3">
     <g id="line2d_5">
      <path d="M 216.097079 307.584 
L 216.097079 41.472 
" clip-path="url(#p655f30001b)" style="fill: none; stroke: #ffffff; stroke-width: 0.8; stroke-linecap: square"/>
     </g>
     <g id="line2d_6">
      <g>
       <use xlink:href="#md3bf35d845" x="216.097079" y="307.584" style="fill: #555555; stroke: #555555; stroke-width: 0.8"/>
      </g>
     </g>
     <g id="text_3">
      <!-- 40 -->
      <g style="fill: #555555" transform="translate(209.734579 322.182437) scale(0.1 -0.1)">
       <defs>
        <path id="DejaVuSans-34" d="M 2419 4116 
L 825 1625 
L 2419 1625 
L 2419 4116 
z
M 2253 4666 
L 3047 4666 
L 3047 1625 
L 3713 1625 
L 3713 1100 
L 3047 1100 
L 3047 0 
L 2419 0 
L 2419 1100 
L 313 1100 
L 313 1709 
L 2253 4666 
z
" transform="scale(0.015625)"/>
       </defs>
       <use xlink:href="#DejaVuSans-34"/>
       <use xlink:href="#DejaVuSans-30" x="63.623047"/>
      </g>
     </g>
    </g>
    <g id="xtick_4">
     <g id="line2d_7">
      <path d="M 289.053156 307.584 
L 289.053156 41.472 
" clip-path="url(#p655f30001b)" style="fill: none; stroke: #ffffff; stroke-width: 0.8; stroke-linecap: square"/>
     </g>
     <g id="line2d_8">
      <g>
       <use xlink:href="#md3bf35d845" x="289.053156" y="307.584" style="fill: #555555; stroke: #555555; stroke-width: 0.8"/>
      </g>
     </g>
     <g id="text_4">
      <!-- 60 -->
      <g style="fill: #555555" transform="translate(282.690656 322.182437) scale(0.1 -0.1)">
       <defs>
        <path id="DejaVuSans-36" d="M 2113 2584 
Q 1688 2584 1439 2293 
Q 1191 2003 1191 1497 
Q 1191 994 1439 701 
Q 1688 409 2113 409 
Q 2538 409 2786 701 
Q 3034 994 3034 1497 
Q 3034 2003 2786 2293 
Q 2538 2584 2113 2584 
z
M 3366 4563 
L 3366 3988 
Q 3128 4100 2886 4159 
Q 2644 4219 2406 4219 
Q 1781 4219 1451 3797 
Q 1122 3375 1075 2522 
Q 1259 2794 1537 2939 
Q 1816 3084 2150 3084 
Q 2853 3084 3261 2657 
Q 3669 2231 3669 1497 
Q 3669 778 3244 343 
Q 2819 -91 2113 -91 
Q 1303 -91 875 529 
Q 447 1150 447 2328 
Q 447 3434 972 4092 
Q 1497 4750 2381 4750 
Q 2619 4750 2861 4703 
Q 3103 4656 3366 4563 
z
" transform="scale(0.015625)"/>
       </defs>
       <use xlink:href="#DejaVuSans-36"/>
       <use xlink:href="#DejaVuSans-30" x="63.623047"/>
      </g>
     </g>
    </g>
    <g id="xtick_5">
     <g id="line2d_9">
      <path d="M 362.009234 307.584 
L 362.009234 41.472 
" clip-path="url(#p655f30001b)" style="fill: none; stroke: #ffffff; stroke-width: 0.8; stroke-linecap: square"/>
     </g>
     <g id="line2d_10">
      <g>
       <use xlink:href="#md3bf35d845" x="362.009234" y="307.584" style="fill: #555555; stroke: #555555; stroke-width: 0.8"/>
      </g>
     </g>
     <g id="text_5">
      <!-- 80 -->
      <g style="fill: #555555" transform="translate(355.646734 322.182437) scale(0.1 -0.1)">
       <defs>
        <path id="DejaVuSans-38" d="M 2034 2216 
Q 1584 2216 1326 1975 
Q 1069 1734 1069 1313 
Q 1069 891 1326 650 
Q 1584 409 2034 409 
Q 2484 409 2743 651 
Q 3003 894 3003 1313 
Q 3003 1734 2745 1975 
Q 2488 2216 2034 2216 
z
M 1403 2484 
Q 997 2584 770 2862 
Q 544 3141 544 3541 
Q 544 4100 942 4425 
Q 1341 4750 2034 4750 
Q 2731 4750 3128 4425 
Q 3525 4100 3525 3541 
Q 3525 3141 3298 2862 
Q 3072 2584 2669 2484 
Q 3125 2378 3379 2068 
Q 3634 1759 3634 1313 
Q 3634 634 3220 271 
Q 2806 -91 2034 -91 
Q 1263 -91 848 271 
Q 434 634 434 1313 
Q 434 1759 690 2068 
Q 947 2378 1403 2484 
z
M 1172 3481 
Q 1172 3119 1398 2916 
Q 1625 2713 2034 2713 
Q 2441 2713 2670 2916 
Q 2900 3119 2900 3481 
Q 2900 3844 2670 4047 
Q 2441 4250 2034 4250 
Q 1625 4250 1398 4047 
Q 1172 3844 1172 3481 
z
" transform="scale(0.015625)"/>
       </defs>
       <use xlink:href="#DejaVuSans-38"/>
       <use xlink:href="#DejaVuSans-30" x="63.623047"/>
      </g>
     </g>
    </g>
   </g>
   <g id="matplotlib.axis_2">
    <g id="ytick_1">
     <g id="line2d_11">
      <path d="M 57.6 284.513141 
L 414.72 284.513141 
" clip-path="url(#p655f30001b)" style="fill: none; stroke: #ffffff; stroke-width: 0.8; stroke-linecap: square"/>
     </g>
     <g id="line2d_12">
      <defs>
       <path id="ma3444662a6" d="M 0 0 
L -3.5 0 
" style="stroke: #555555; stroke-width: 0.8"/>
      </defs>
      <g>
       <use xlink:href="#ma3444662a6" x="57.6" y="284.513141" style="fill: #555555; stroke: #555555; stroke-width: 0.8"/>
      </g>
     </g>
     <g id="text_6">
      <!-- 0.2 -->
      <g style="fill: #555555" transform="translate(34.696875 288.31236) scale(0.1 -0.1)">
       <defs>
        <path id="DejaVuSans-2e" d="M 684 794 
L 1344 794 
L 1344 0 
L 684 0 
L 684 794 
z
" transform="scale(0.015625)"/>
       </defs>
       <use xlink:href="#DejaVuSans-30"/>
       <use xlink:href="#DejaVuSans-2e" x="63.623047"/>
       <use xlink:href="#DejaVuSans-32" x="95.410156"/>
      </g>
     </g>
    </g>
    <g id="ytick_2">
     <g id="line2d_13">
      <path d="M 57.6 241.156842 
L 414.72 241.156842 
" clip-path="url(#p655f30001b)" style="fill: none; stroke: #ffffff; stroke-width: 0.8; stroke-linecap: square"/>
     </g>
     <g id="line2d_14">
      <g>
       <use xlink:href="#ma3444662a6" x="57.6" y="241.156842" style="fill: #555555; stroke: #555555; stroke-width: 0.8"/>
      </g>
     </g>
     <g id="text_7">
      <!-- 0.4 -->
      <g style="fill: #555555" transform="translate(34.696875 244.95606) scale(0.1 -0.1)">
       <use xlink:href="#DejaVuSans-30"/>
       <use xlink:href="#DejaVuSans-2e" x="63.623047"/>
       <use xlink:href="#DejaVuSans-34" x="95.410156"/>
      </g>
     </g>
    </g>
    <g id="ytick_3">
     <g id="line2d_15">
      <path d="M 57.6 197.800542 
L 414.72 197.800542 
" clip-path="url(#p655f30001b)" style="fill: none; stroke: #ffffff; stroke-width: 0.8; stroke-linecap: square"/>
     </g>
     <g id="line2d_16">
      <g>
       <use xlink:href="#ma3444662a6" x="57.6" y="197.800542" style="fill: #555555; stroke: #555555; stroke-width: 0.8"/>
      </g>
     </g>
     <g id="text_8">
      <!-- 0.6 -->
      <g style="fill: #555555" transform="translate(34.696875 201.599761) scale(0.1 -0.1)">
       <use xlink:href="#DejaVuSans-30"/>
       <use xlink:href="#DejaVuSans-2e" x="63.623047"/>
       <use xlink:href="#DejaVuSans-36" x="95.410156"/>
      </g>
     </g>
    </g>
    <g id="ytick_4">
     <g id="line2d_17">
      <path d="M 57.6 154.444243 
L 414.72 154.444243 
" clip-path="url(#p655f30001b)" style="fill: none; stroke: #ffffff; stroke-width: 0.8; stroke-linecap: square"/>
     </g>
     <g id="line2d_18">
      <g>
       <use xlink:href="#ma3444662a6" x="57.6" y="154.444243" style="fill: #555555; stroke: #555555; stroke-width: 0.8"/>
      </g>
     </g>
     <g id="text_9">
      <!-- 0.8 -->
      <g style="fill: #555555" transform="translate(34.696875 158.243461) scale(0.1 -0.1)">
       <use xlink:href="#DejaVuSans-30"/>
       <use xlink:href="#DejaVuSans-2e" x="63.623047"/>
       <use xlink:href="#DejaVuSans-38" x="95.410156"/>
      </g>
     </g>
    </g>
    <g id="ytick_5">
     <g id="line2d_19">
      <path d="M 57.6 111.087943 
L 414.72 111.087943 
" clip-path="url(#p655f30001b)" style="fill: none; stroke: #ffffff; stroke-width: 0.8; stroke-linecap: square"/>
     </g>
     <g id="line2d_20">
      <g>
       <use xlink:href="#ma3444662a6" x="57.6" y="111.087943" style="fill: #555555; stroke: #555555; stroke-width: 0.8"/>
      </g>
     </g>
     <g id="text_10">
      <!-- 1.0 -->
      <g style="fill: #555555" transform="translate(34.696875 114.887162) scale(0.1 -0.1)">
       <defs>
        <path id="DejaVuSans-31" d="M 794 531 
L 1825 531 
L 1825 4091 
L 703 3866 
L 703 4441 
L 1819 4666 
L 2450 4666 
L 2450 531 
L 3481 531 
L 3481 0 
L 794 0 
L 794 531 
z
" transform="scale(0.015625)"/>
       </defs>
       <use xlink:href="#DejaVuSans-31"/>
       <use xlink:href="#DejaVuSans-2e" x="63.623047"/>
       <use xlink:href="#DejaVuSans-30" x="95.410156"/>
      </g>
     </g>
    </g>
    <g id="ytick_6">
     <g id="line2d_21">
      <path d="M 57.6 67.731644 
L 414.72 67.731644 
" clip-path="url(#p655f30001b)" style="fill: none; stroke: #ffffff; stroke-width: 0.8; stroke-linecap: square"/>
     </g>
     <g id="line2d_22">
      <g>
       <use xlink:href="#ma3444662a6" x="57.6" y="67.731644" style="fill: #555555; stroke: #555555; stroke-width: 0.8"/>
      </g>
     </g>
     <g id="text_11">
      <!-- 1.2 -->
      <g style="fill: #555555" transform="translate(34.696875 71.530863) scale(0.1 -0.1)">
       <use xlink:href="#DejaVuSans-31"/>
       <use xlink:href="#DejaVuSans-2e" x="63.623047"/>
       <use xlink:href="#DejaVuSans-32" x="95.410156"/>
      </g>
     </g>
    </g>
   </g>
   <g id="line2d_23">
    <path d="M 73.832727 180.952553 
L 77.480531 180.273713 
L 81.128335 180.806324 
L 84.776139 181.683207 
L 88.423943 182.070972 
L 92.071747 181.966414 
L 95.719551 182.549159 
L 99.367354 181.839773 
L 103.015158 181.946386 
L 106.662962 183.01887 
L 110.310766 183.904307 
L 113.95857 183.856034 
L 117.606374 184.154087 
L 121.254178 183.454598 
L 124.901982 183.847066 
L 128.549785 185.774029 
L 132.197589 185.004985 
L 135.845393 184.141747 
L 139.493197 185.426397 
L 143.141001 185.174356 
L 146.788805 185.867798 
L 150.436609 185.80084 
L 154.084413 185.123718 
L 157.732217 186.222794 
L 161.38002 186.626323 
L 165.027824 186.768818 
L 168.675628 187.714093 
L 172.323432 187.194015 
L 175.971236 187.600748 
L 179.61904 187.792679 
L 183.266844 187.472286 
L 186.914648 187.92432 
L 190.562451 189.196346 
L 194.210255 188.043273 
L 197.858059 188.685016 
L 201.505863 188.724994 
L 205.153667 189.812118 
L 208.801471 190.083838 
L 212.449275 189.97813 
L 216.097079 190.751023 
L 219.744883 190.84779 
L 223.392686 190.706755 
L 227.04049 190.947167 
L 230.688294 191.678906 
L 234.336098 191.034617 
L 237.983902 192.231558 
L 241.631706 192.356532 
L 245.27951 192.049447 
L 248.927314 193.016792 
L 252.575117 192.58534 
L 256.222921 193.096438 
L 259.870725 192.668411 
L 263.518529 193.637952 
L 267.166333 193.826756 
L 270.814137 194.389771 
L 274.461941 194.904163 
L 278.109745 194.79547 
L 281.757549 195.187292 
L 285.405352 195.382983 
L 289.053156 195.286449 
L 292.70096 195.425378 
L 296.348764 196.372849 
L 299.996568 195.947329 
L 303.644372 196.471877 
L 307.292176 196.358933 
L 310.93998 197.362871 
L 314.587783 197.280382 
L 318.235587 197.568356 
L 321.883391 198.641383 
L 325.531195 197.723475 
L 329.178999 198.460616 
L 332.826803 199.371559 
L 336.474607 199.090549 
L 340.122411 199.955235 
L 343.770215 199.907556 
L 347.418018 198.798104 
L 351.065822 200.353375 
L 354.713626 200.734331 
L 358.36143 200.635742 
L 362.009234 200.64595 
L 365.657038 202.073999 
L 369.304842 202.290571 
L 372.952646 202.623601 
L 376.600449 201.745504 
L 380.248253 203.141392 
L 383.896057 203.006417 
L 387.543861 203.264906 
L 391.191665 203.598143 
L 394.839469 203.74109 
L 398.487273 203.52519 
" clip-path="url(#p655f30001b)" style="fill: none; stroke: #ff00ff; stroke-opacity: 0.3; stroke-width: 0.5; stroke-linecap: square"/>
   </g>
   <g id="line2d_24">
    <path d="M 73.832727 180.344431 
L 77.480531 181.640077 
L 81.128335 182.22852 
L 84.776139 183.272384 
L 88.423943 182.943656 
L 92.071747 183.435785 
L 95.719551 184.804074 
L 99.367354 185.563103 
L 103.015158 187.678172 
L 106.662962 187.185086 
L 110.310766 188.461803 
L 113.95857 189.501713 
L 117.606374 188.375463 
L 121.254178 191.270248 
L 124.901982 191.056997 
L 128.549785 190.809944 
L 132.197589 192.881946 
L 135.845393 193.765199 
L 139.493197 193.900148 
L 143.141001 195.220073 
L 146.788805 195.812212 
L 150.436609 196.632669 
L 154.084413 196.318477 
L 157.732217 196.435104 
L 161.38002 197.964765 
L 165.027824 199.017286 
L 168.675628 199.745098 
L 172.323432 199.548411 
L 175.971236 200.279182 
L 179.61904 202.058313 
L 183.266844 202.530259 
L 186.914648 202.669691 
L 190.562451 204.575682 
L 194.210255 204.615312 
L 197.858059 205.778606 
L 201.505863 206.930271 
L 205.153667 207.614021 
L 208.801471 207.956316 
L 212.449275 209.083858 
L 216.097079 208.656864 
L 219.744883 208.953044 
L 223.392686 211.362573 
L 227.04049 211.361061 
L 230.688294 212.396552 
L 234.336098 212.067811 
L 237.983902 213.143513 
L 241.631706 213.318556 
L 245.27951 214.823473 
L 248.927314 215.189298 
L 252.575117 216.969618 
L 256.222921 216.379843 
L 259.870725 216.924471 
L 263.518529 219.661249 
L 267.166333 218.584468 
L 270.814137 220.275024 
L 274.461941 220.635454 
L 278.109745 221.750656 
L 281.757549 221.954165 
L 285.405352 223.34544 
L 289.053156 222.606665 
L 292.70096 223.67588 
L 296.348764 223.530336 
L 299.996568 225.002866 
L 303.644372 225.765888 
L 307.292176 226.872116 
L 310.93998 227.397291 
L 314.587783 228.264696 
L 318.235587 229.216871 
L 321.883391 228.398457 
L 325.531195 230.470588 
L 329.178999 231.308934 
L 332.826803 232.58419 
L 336.474607 233.161715 
L 340.122411 231.868441 
L 343.770215 233.869053 
L 347.418018 235.184837 
L 351.065822 235.061569 
L 354.713626 235.556495 
L 358.36143 236.377352 
L 362.009234 237.063706 
L 365.657038 238.142418 
L 369.304842 238.398355 
L 372.952646 239.941642 
L 376.600449 239.547326 
L 380.248253 239.755021 
L 383.896057 240.974561 
L 387.543861 241.685103 
L 391.191665 241.834078 
L 394.839469 242.272811 
L 398.487273 244.218618 
" clip-path="url(#p655f30001b)" style="fill: none; stroke: #ff00ff; stroke-opacity: 0.3; stroke-width: 0.5; stroke-linecap: square"/>
   </g>
   <g id="line2d_25">
    <path d="M 73.832727 163.725695 
L 77.480531 166.816571 
L 81.128335 170.452928 
L 84.776139 168.929676 
L 88.423943 170.775958 
L 92.071747 170.676413 
L 95.719551 173.318485 
L 99.367354 173.181469 
L 103.015158 174.937561 
L 106.662962 176.238582 
L 110.310766 177.79335 
L 113.95857 178.686539 
L 117.606374 179.893223 
L 121.254178 180.565603 
L 124.901982 182.66306 
L 128.549785 182.160929 
L 132.197589 181.946373 
L 135.845393 184.172319 
L 139.493197 184.178766 
L 143.141001 185.083973 
L 146.788805 187.684749 
L 150.436609 187.204455 
L 154.084413 188.869841 
L 157.732217 188.568235 
L 161.38002 190.247058 
L 165.027824 189.901507 
L 168.675628 191.402936 
L 172.323432 192.098716 
L 175.971236 192.597111 
L 179.61904 194.303612 
L 183.266844 193.923652 
L 186.914648 195.093536 
L 190.562451 196.65656 
L 194.210255 196.188451 
L 197.858059 196.891144 
L 201.505863 196.99923 
L 205.153667 197.523093 
L 208.801471 198.298028 
L 212.449275 199.644597 
L 216.097079 198.771305 
L 219.744883 201.167177 
L 223.392686 200.921559 
L 227.04049 202.631251 
L 230.688294 202.123642 
L 234.336098 203.578064 
L 237.983902 202.927702 
L 241.631706 204.656646 
L 245.27951 204.483722 
L 248.927314 204.568899 
L 252.575117 208.071147 
L 256.222921 207.777914 
L 259.870725 207.634359 
L 263.518529 208.418081 
L 267.166333 209.896807 
L 270.814137 211.792616 
L 274.461941 210.910138 
L 278.109745 210.90086 
L 281.757549 211.619588 
L 285.405352 213.000902 
L 289.053156 213.714965 
L 292.70096 213.357578 
L 296.348764 214.089356 
L 299.996568 215.786606 
L 303.644372 214.813111 
L 307.292176 215.54746 
L 310.93998 217.013743 
L 314.587783 218.157152 
L 318.235587 218.857842 
L 321.883391 219.366665 
L 325.531195 219.587107 
L 329.178999 219.939946 
L 332.826803 220.391154 
L 336.474607 221.612037 
L 340.122411 222.3995 
L 343.770215 222.915468 
L 347.418018 223.559557 
L 351.065822 223.772511 
L 354.713626 223.533185 
L 358.36143 225.403604 
L 362.009234 225.555867 
L 365.657038 225.39859 
L 369.304842 226.984698 
L 372.952646 227.730845 
L 376.600449 228.176858 
L 380.248253 228.610616 
L 383.896057 228.437672 
L 387.543861 229.00017 
L 391.191665 230.323623 
L 394.839469 231.89624 
L 398.487273 231.83856 
" clip-path="url(#p655f30001b)" style="fill: none; stroke: #ff00ff; stroke-opacity: 0.3; stroke-width: 0.5; stroke-linecap: square"/>
   </g>
   <g id="line2d_26">
    <path d="M 73.832727 164.673438 
L 77.480531 164.78496 
L 81.128335 165.972766 
L 84.776139 166.957903 
L 88.423943 167.759546 
L 92.071747 168.853402 
L 95.719551 168.40934 
L 99.367354 170.168262 
L 103.015158 170.994778 
L 106.662962 172.342574 
L 110.310766 172.861734 
L 113.95857 174.34926 
L 117.606374 174.608484 
L 121.254178 174.921862 
L 124.901982 174.875888 
L 128.549785 177.523439 
L 132.197589 177.039192 
L 135.845393 177.776849 
L 139.493197 179.437816 
L 143.141001 180.621564 
L 146.788805 180.348643 
L 150.436609 181.080589 
L 154.084413 181.250942 
L 157.732217 183.457583 
L 161.38002 182.764168 
L 165.027824 182.923964 
L 168.675628 184.763863 
L 172.323432 183.180631 
L 175.971236 185.68473 
L 179.61904 185.010464 
L 183.266844 185.595173 
L 186.914648 186.881116 
L 190.562451 186.732444 
L 194.210255 188.128837 
L 197.858059 188.363873 
L 201.505863 188.543374 
L 205.153667 189.043334 
L 208.801471 189.569252 
L 212.449275 190.857364 
L 216.097079 191.121603 
L 219.744883 191.472826 
L 223.392686 192.185184 
L 227.04049 192.792829 
L 230.688294 193.498325 
L 234.336098 193.771699 
L 237.983902 193.023136 
L 241.631706 194.725696 
L 245.27951 194.449169 
L 248.927314 195.182059 
L 252.575117 196.128109 
L 256.222921 196.578606 
L 259.870725 197.21124 
L 263.518529 197.52781 
L 267.166333 197.745312 
L 270.814137 197.878051 
L 274.461941 198.668866 
L 278.109745 199.034588 
L 281.757549 200.283058 
L 285.405352 200.567596 
L 289.053156 200.942155 
L 292.70096 201.21611 
L 296.348764 201.667899 
L 299.996568 201.650326 
L 303.644372 202.692575 
L 307.292176 203.961034 
L 310.93998 203.883107 
L 314.587783 204.109641 
L 318.235587 204.442387 
L 321.883391 204.964429 
L 325.531195 206.165078 
L 329.178999 206.978997 
L 332.826803 207.0554 
L 336.474607 206.369698 
L 340.122411 207.72743 
L 343.770215 207.656273 
L 347.418018 208.282809 
L 351.065822 209.207229 
L 354.713626 209.470938 
L 358.36143 208.982711 
L 362.009234 209.198417 
L 365.657038 211.07925 
L 369.304842 211.03922 
L 372.952646 211.190049 
L 376.600449 212.673686 
L 380.248253 212.321234 
L 383.896057 213.622113 
L 387.543861 213.616725 
L 391.191665 214.134955 
L 394.839469 214.487406 
L 398.487273 214.744409 
" clip-path="url(#p655f30001b)" style="fill: none; stroke: #ff00ff; stroke-opacity: 0.3; stroke-width: 0.5; stroke-linecap: square"/>
   </g>
   <g id="line2d_27">
    <path d="M 73.832727 176.127318 
L 77.480531 176.658417 
L 81.128335 176.468424 
L 84.776139 179.243585 
L 88.423943 180.637832 
L 92.071747 179.833902 
L 95.719551 181.159512 
L 99.367354 181.616663 
L 103.015158 184.055563 
L 106.662962 185.896612 
L 110.310766 184.43489 
L 113.95857 187.652433 
L 117.606374 186.66811 
L 121.254178 188.728341 
L 124.901982 188.496522 
L 128.549785 190.890378 
L 132.197589 191.327592 
L 135.845393 191.91893 
L 139.493197 194.086084 
L 143.141001 194.705409 
L 146.788805 193.908121 
L 150.436609 195.031295 
L 154.084413 195.25297 
L 157.732217 196.04062 
L 161.38002 198.018026 
L 165.027824 197.768919 
L 168.675628 198.657883 
L 172.323432 199.006665 
L 175.971236 200.25803 
L 179.61904 201.89588 
L 183.266844 201.8309 
L 186.914648 202.724645 
L 190.562451 204.117859 
L 194.210255 202.800454 
L 197.858059 205.373733 
L 201.505863 206.323428 
L 205.153667 207.178707 
L 208.801471 207.002565 
L 212.449275 209.384223 
L 216.097079 209.122156 
L 219.744883 210.533214 
L 223.392686 210.338518 
L 227.04049 212.109301 
L 230.688294 211.9927 
L 234.336098 213.123394 
L 237.983902 214.406894 
L 241.631706 214.873181 
L 245.27951 215.348603 
L 248.927314 216.649973 
L 252.575117 217.571267 
L 256.222921 217.129737 
L 259.870725 218.3032 
L 263.518529 219.856662 
L 267.166333 219.756071 
L 270.814137 221.090933 
L 274.461941 221.802438 
L 278.109745 221.581233 
L 281.757549 223.26706 
L 285.405352 223.930376 
L 289.053156 224.005713 
L 292.70096 224.688126 
L 296.348764 226.055038 
L 299.996568 226.162484 
L 303.644372 226.650395 
L 307.292176 227.55522 
L 310.93998 228.24558 
L 314.587783 230.345459 
L 318.235587 229.816414 
L 321.883391 230.176444 
L 325.531195 231.528736 
L 329.178999 232.277758 
L 332.826803 232.575378 
L 336.474607 232.568226 
L 340.122411 233.174449 
L 343.770215 234.596438 
L 347.418018 234.831753 
L 351.065822 236.122385 
L 354.713626 237.207538 
L 358.36143 237.001219 
L 362.009234 237.304247 
L 365.657038 238.611897 
L 369.304842 239.606563 
L 372.952646 239.678321 
L 376.600449 240.073728 
L 380.248253 239.957838 
L 383.896057 241.04524 
L 387.543861 240.920622 
L 391.191665 243.647786 
L 394.839469 243.788918 
L 398.487273 243.513425 
" clip-path="url(#p655f30001b)" style="fill: none; stroke: #ff00ff; stroke-opacity: 0.3; stroke-width: 0.5; stroke-linecap: square"/>
   </g>
   <g id="line2d_28">
    <path d="M 73.832727 180.093075 
L 77.480531 181.462178 
L 81.128335 181.599672 
L 84.776139 184.02795 
L 88.423943 185.728443 
L 92.071747 186.086463 
L 95.719551 188.311452 
L 99.367354 189.375486 
L 103.015158 190.479937 
L 106.662962 191.483189 
L 110.310766 192.728145 
L 113.95857 194.9494 
L 117.606374 195.083199 
L 121.254178 197.006634 
L 124.901982 198.873848 
L 128.549785 199.062743 
L 132.197589 199.545646 
L 135.845393 201.248258 
L 139.493197 202.679628 
L 143.141001 203.658304 
L 146.788805 204.613283 
L 150.436609 204.986124 
L 154.084413 207.190413 
L 157.732217 207.79024 
L 161.38002 208.551789 
L 165.027824 210.060105 
L 168.675628 210.912257 
L 172.323432 211.194468 
L 175.971236 212.786384 
L 179.61904 212.237699 
L 183.266844 214.20305 
L 186.914648 214.992651 
L 190.562451 215.99505 
L 194.210255 216.339451 
L 197.858059 218.155304 
L 201.505863 218.559931 
L 205.153667 220.140909 
L 208.801471 221.154382 
L 212.449275 222.416937 
L 216.097079 223.063952 
L 219.744883 224.53937 
L 223.392686 225.165292 
L 227.04049 225.709015 
L 230.688294 226.682691 
L 234.336098 228.183325 
L 237.983902 229.518006 
L 241.631706 229.894749 
L 245.27951 230.610938 
L 248.927314 231.770543 
L 252.575117 233.659607 
L 256.222921 234.666601 
L 259.870725 234.756144 
L 263.518529 235.822711 
L 267.166333 237.491469 
L 270.814137 238.531197 
L 274.461941 239.069533 
L 278.109745 239.842213 
L 281.757549 240.645775 
L 285.405352 242.351449 
L 289.053156 242.824726 
L 292.70096 243.246008 
L 296.348764 244.176489 
L 299.996568 245.45619 
L 303.644372 246.329617 
L 307.292176 247.630567 
L 310.93998 248.517406 
L 314.587783 250.096013 
L 318.235587 250.143911 
L 321.883391 250.644956 
L 325.531195 250.918653 
L 329.178999 252.258334 
L 332.826803 253.147861 
L 336.474607 253.730677 
L 340.122411 255.715881 
L 343.770215 255.211303 
L 347.418018 256.441283 
L 351.065822 258.310294 
L 354.713626 257.951304 
L 358.36143 259.641473 
L 362.009234 259.827273 
L 365.657038 261.202907 
L 369.304842 261.504824 
L 372.952646 262.563263 
L 376.600449 262.297151 
L 380.248253 263.30499 
L 383.896057 264.823863 
L 387.543861 264.956421 
L 391.191665 265.26357 
L 394.839469 266.64949 
L 398.487273 267.330139 
" clip-path="url(#p655f30001b)" style="fill: none; stroke: #ff00ff; stroke-opacity: 0.3; stroke-width: 0.5; stroke-linecap: square"/>
   </g>
   <g id="line2d_29">
    <path d="M 73.832727 167.153478 
L 77.480531 172.630949 
L 81.128335 174.448559 
L 84.776139 177.019926 
L 88.423943 180.053717 
L 92.071747 183.317104 
L 95.719551 187.053872 
L 99.367354 189.14846 
L 103.015158 192.437535 
L 106.662962 193.820786 
L 110.310766 197.423393 
L 113.95857 199.479529 
L 117.606374 202.553349 
L 121.254178 204.495313 
L 124.901982 206.682972 
L 128.549785 209.622555 
L 132.197589 212.649781 
L 135.845393 214.488892 
L 139.493197 217.097589 
L 143.141001 219.277509 
L 146.788805 222.615774 
L 150.436609 223.782964 
L 154.084413 227.67697 
L 157.732217 227.746467 
L 161.38002 230.104053 
L 165.027824 232.473255 
L 168.675628 234.688586 
L 172.323432 234.634026 
L 175.971236 238.808945 
L 179.61904 239.408087 
L 183.266844 240.092057 
L 186.914648 243.364754 
L 190.562451 244.964461 
L 194.210255 247.188895 
L 197.858059 248.43084 
L 201.505863 248.718524 
L 205.153667 252.613919 
L 208.801471 252.784317 
L 212.449275 255.127858 
L 216.097079 255.40379 
L 219.744883 257.562454 
L 223.392686 259.081934 
L 227.04049 259.589407 
L 230.688294 260.828742 
L 234.336098 262.517735 
L 237.983902 263.171876 
L 241.631706 264.595603 
L 245.27951 265.78839 
L 248.927314 267.268583 
L 252.575117 267.989372 
L 256.222921 269.618488 
L 259.870725 269.54399 
L 263.518529 271.844019 
L 267.166333 272.711987 
L 270.814137 273.641692 
L 274.461941 274.47894 
L 278.109745 274.840946 
L 281.757549 275.309016 
L 285.405352 276.902899 
L 289.053156 277.545705 
L 292.70096 278.594075 
L 296.348764 278.691914 
L 299.996568 279.761385 
L 303.644372 280.386834 
L 307.292176 281.298424 
L 310.93998 282.452376 
L 314.587783 283.531889 
L 318.235587 283.741914 
L 321.883391 284.007938 
L 325.531195 284.28418 
L 329.178999 285.868237 
L 332.826803 287.037471 
L 336.474607 286.304708 
L 340.122411 287.19322 
L 343.770215 288.364267 
L 347.418018 288.488029 
L 351.065822 289.703693 
L 354.713626 290.388448 
L 358.36143 290.235936 
L 362.009234 291.38606 
L 365.657038 291.833786 
L 369.304842 292.215029 
L 372.952646 292.431416 
L 376.600449 293.263822 
L 380.248253 293.017476 
L 383.896057 294.212111 
L 387.543861 293.740287 
L 391.191665 294.136877 
L 394.839469 295.185748 
L 398.487273 295.488 
" clip-path="url(#p655f30001b)" style="fill: none; stroke: #ff00ff; stroke-opacity: 0.3; stroke-width: 0.5; stroke-linecap: square"/>
   </g>
   <g id="line2d_30">
    <path d="M 73.832727 182.012491 
L 77.480531 184.107325 
L 81.128335 185.092746 
L 84.776139 186.631711 
L 88.423943 187.750285 
L 92.071747 189.930153 
L 95.719551 190.850116 
L 99.367354 191.653723 
L 103.015158 193.474292 
L 106.662962 195.420532 
L 110.310766 196.650422 
L 113.95857 200.154996 
L 117.606374 200.327572 
L 121.254178 202.73316 
L 124.901982 205.303261 
L 128.549785 207.249166 
L 132.197589 207.936573 
L 135.845393 210.016276 
L 139.493197 212.585977 
L 143.141001 212.792767 
L 146.788805 214.710426 
L 150.436609 216.481959 
L 154.084413 218.410821 
L 157.732217 220.738268 
L 161.38002 221.096663 
L 165.027824 223.904785 
L 168.675628 225.17966 
L 172.323432 225.3124 
L 175.971236 227.463551 
L 179.61904 228.761561 
L 183.266844 230.026222 
L 186.914648 231.86773 
L 190.562451 233.048371 
L 194.210255 233.753221 
L 197.858059 236.008562 
L 201.505863 236.315117 
L 205.153667 239.177806 
L 208.801471 240.729995 
L 212.449275 241.941906 
L 216.097079 243.279565 
L 219.744883 243.820504 
L 223.392686 245.965827 
L 227.04049 246.319474 
L 230.688294 248.30409 
L 234.336098 248.679922 
L 237.983902 250.478505 
L 241.631706 252.165263 
L 245.27951 253.150826 
L 248.927314 253.56139 
L 252.575117 255.398847 
L 256.222921 255.950905 
L 259.870725 256.468786 
L 263.518529 258.94077 
L 267.166333 260.297623 
L 270.814137 260.390062 
L 274.461941 261.200653 
L 278.109745 262.714615 
L 281.757549 262.622009 
L 285.405352 264.770311 
L 289.053156 265.658855 
L 292.70096 266.125032 
L 296.348764 267.466122 
L 299.996568 268.160138 
L 303.644372 269.644685 
L 307.292176 270.494279 
L 310.93998 271.366317 
L 314.587783 271.999151 
L 318.235587 273.434947 
L 321.883391 273.423802 
L 325.531195 274.370473 
L 329.178999 275.19321 
L 332.826803 276.099343 
L 336.474607 276.544123 
L 340.122411 277.339609 
L 343.770215 278.646344 
L 347.418018 278.258286 
L 351.065822 279.937336 
L 354.713626 280.627378 
L 358.36143 281.020312 
L 362.009234 281.643662 
L 365.657038 283.28651 
L 369.304842 282.480357 
L 372.952646 283.094805 
L 376.600449 284.763818 
L 380.248253 284.190569 
L 383.896057 285.320747 
L 387.543861 285.577675 
L 391.191665 286.406885 
L 394.839469 286.843605 
L 398.487273 287.391324 
" clip-path="url(#p655f30001b)" style="fill: none; stroke: #ff00ff; stroke-opacity: 0.3; stroke-width: 0.5; stroke-linecap: square"/>
   </g>
   <g id="line2d_31">
    <path d="M 73.832727 177.446623 
L 77.480531 177.722386 
L 81.128335 179.339408 
L 84.776139 179.685476 
L 88.423943 180.621332 
L 92.071747 181.743524 
L 95.719551 183.572078 
L 99.367354 183.184055 
L 103.015158 184.743241 
L 106.662962 184.857594 
L 110.310766 186.660086 
L 113.95857 186.064225 
L 117.606374 188.388837 
L 121.254178 188.776692 
L 124.901982 189.329344 
L 128.549785 190.299311 
L 132.197589 191.770207 
L 135.845393 192.212293 
L 139.493197 194.110143 
L 143.141001 194.272937 
L 146.788805 195.431322 
L 150.436609 195.360165 
L 154.084413 196.471373 
L 157.732217 196.990973 
L 161.38002 199.102824 
L 165.027824 199.650592 
L 168.675628 200.472289 
L 172.323432 201.703342 
L 175.971236 201.779138 
L 179.61904 202.788721 
L 183.266844 203.74476 
L 186.914648 204.613503 
L 190.562451 206.003266 
L 194.210255 206.534818 
L 197.858059 207.916868 
L 201.505863 207.875959 
L 205.153667 209.61289 
L 208.801471 209.576555 
L 212.449275 210.895317 
L 216.097079 211.096397 
L 219.744883 212.902378 
L 223.392686 213.495021 
L 227.04049 215.252612 
L 230.688294 215.331689 
L 234.336098 215.850772 
L 237.983902 217.735559 
L 241.631706 217.093932 
L 245.27951 219.684358 
L 248.927314 219.814849 
L 252.575117 221.517952 
L 256.222921 222.202949 
L 259.870725 223.018147 
L 263.518529 223.266162 
L 267.166333 223.935732 
L 270.814137 225.47688 
L 274.461941 226.943318 
L 278.109745 227.361493 
L 281.757549 229.214804 
L 285.405352 228.800176 
L 289.053156 229.126197 
L 292.70096 230.447162 
L 296.348764 231.61514 
L 299.996568 231.527263 
L 303.644372 233.67718 
L 307.292176 233.984246 
L 310.93998 234.634614 
L 314.587783 235.816799 
L 318.235587 237.078721 
L 321.883391 236.81812 
L 325.531195 236.785655 
L 329.178999 238.517734 
L 332.826803 238.797755 
L 336.474607 241.210618 
L 340.122411 241.19811 
L 343.770215 242.581562 
L 347.418018 243.086367 
L 351.065822 243.92596 
L 354.713626 244.793327 
L 358.36143 246.251909 
L 362.009234 245.679041 
L 365.657038 248.778065 
L 369.304842 248.136851 
L 372.952646 249.37731 
L 376.600449 248.886389 
L 380.248253 249.611882 
L 383.896057 251.547753 
L 387.543861 252.10578 
L 391.191665 252.122584 
L 394.839469 253.152073 
L 398.487273 255.004835 
" clip-path="url(#p655f30001b)" style="fill: none; stroke: #ff00ff; stroke-opacity: 0.3; stroke-width: 0.5; stroke-linecap: square"/>
   </g>
   <g id="line2d_32">
    <path d="M 73.832727 168.916212 
L 77.480531 169.834236 
L 81.128335 170.605708 
L 84.776139 171.023179 
L 88.423943 173.033121 
L 92.071747 173.394746 
L 95.719551 174.75452 
L 99.367354 176.500792 
L 103.015158 176.004851 
L 106.662962 178.12815 
L 110.310766 176.511323 
L 113.95857 178.50488 
L 117.606374 180.555434 
L 121.254178 180.849416 
L 124.901982 182.036279 
L 128.549785 181.953984 
L 132.197589 182.929624 
L 135.845393 184.808571 
L 139.493197 185.687379 
L 143.141001 186.398832 
L 146.788805 185.686823 
L 150.436609 189.117359 
L 154.084413 189.199137 
L 157.732217 190.672798 
L 161.38002 190.914631 
L 165.027824 192.171358 
L 168.675628 193.099177 
L 172.323432 193.091334 
L 175.971236 195.397662 
L 179.61904 195.409536 
L 183.266844 197.619059 
L 186.914648 198.281515 
L 190.562451 200.100585 
L 194.210255 199.566785 
L 197.858059 200.8055 
L 201.505863 202.670531 
L 205.153667 204.160589 
L 208.801471 203.788097 
L 212.449275 204.784191 
L 216.097079 205.541528 
L 219.744883 207.354202 
L 223.392686 208.3205 
L 227.04049 209.892724 
L 230.688294 209.252195 
L 234.336098 210.083505 
L 237.983902 212.479687 
L 241.631706 212.809707 
L 245.27951 213.661471 
L 248.927314 213.749167 
L 252.575117 215.158894 
L 256.222921 214.886219 
L 259.870725 217.389272 
L 263.518529 217.793563 
L 267.166333 219.56664 
L 270.814137 219.971189 
L 274.461941 220.64844 
L 278.109745 221.587817 
L 281.757549 221.861487 
L 285.405352 223.90465 
L 289.053156 223.986803 
L 292.70096 224.417511 
L 296.348764 225.880221 
L 299.996568 225.404974 
L 303.644372 227.198647 
L 307.292176 227.40589 
L 310.93998 228.799937 
L 314.587783 230.170106 
L 318.235587 229.900867 
L 321.883391 231.882111 
L 325.531195 230.565145 
L 329.178999 232.242173 
L 332.826803 233.651377 
L 336.474607 233.176775 
L 340.122411 235.105514 
L 343.770215 236.24493 
L 347.418018 235.888867 
L 351.065822 237.742915 
L 354.713626 238.838198 
L 358.36143 238.410384 
L 362.009234 238.778296 
L 365.657038 240.184082 
L 369.304842 240.51343 
L 372.952646 241.419941 
L 376.600449 242.906801 
L 380.248253 242.96808 
L 383.896057 243.474907 
L 387.543861 242.694629 
L 391.191665 243.923873 
L 394.839469 245.435749 
L 398.487273 245.69509 
" clip-path="url(#p655f30001b)" style="fill: none; stroke: #ff00ff; stroke-opacity: 0.3; stroke-width: 0.5; stroke-linecap: square"/>
   </g>
   <g id="line2d_33">
    <path d="M 73.832727 189.421407 
L 77.480531 189.619735 
L 81.128335 190.506128 
L 84.776139 191.652831 
L 88.423943 191.690083 
L 92.071747 193.046291 
L 95.719551 192.848429 
L 99.367354 194.065294 
L 103.015158 194.341032 
L 106.662962 195.598005 
L 110.310766 195.007868 
L 113.95857 196.315247 
L 117.606374 196.439923 
L 121.254178 197.834468 
L 124.901982 198.535688 
L 128.549785 199.683076 
L 132.197589 200.089757 
L 135.845393 199.528952 
L 139.493197 200.32407 
L 143.141001 201.022189 
L 146.788805 200.58345 
L 150.436609 201.997971 
L 154.084413 202.67884 
L 157.732217 203.76617 
L 161.38002 203.434367 
L 165.027824 204.877521 
L 168.675628 205.797522 
L 172.323432 206.105563 
L 175.971236 206.180351 
L 179.61904 207.126285 
L 183.266844 207.636905 
L 186.914648 208.303909 
L 190.562451 209.701426 
L 194.210255 210.06672 
L 197.858059 210.779479 
L 201.505863 211.432877 
L 205.153667 210.753313 
L 208.801471 212.323263 
L 212.449275 212.905194 
L 216.097079 215.552887 
L 219.744883 214.589652 
L 223.392686 214.96624 
L 227.04049 215.996872 
L 230.688294 216.393759 
L 234.336098 216.416177 
L 237.983902 217.404829 
L 241.631706 218.470516 
L 245.27951 218.823639 
L 248.927314 219.936677 
L 252.575117 219.347361 
L 256.222921 219.905104 
L 259.870725 221.370941 
L 263.518529 222.331405 
L 267.166333 222.486046 
L 270.814137 222.442204 
L 274.461941 224.180698 
L 278.109745 224.260208 
L 281.757549 224.034352 
L 285.405352 224.604991 
L 289.053156 224.594221 
L 292.70096 225.952457 
L 296.348764 226.600913 
L 299.996568 226.995074 
L 303.644372 226.547988 
L 307.292176 227.652781 
L 310.93998 229.078356 
L 314.587783 229.594655 
L 318.235587 229.84769 
L 321.883391 229.57537 
L 325.531195 230.309538 
L 329.178999 231.450989 
L 332.826803 231.276915 
L 336.474607 231.815425 
L 340.122411 232.92226 
L 343.770215 232.926427 
L 347.418018 232.091415 
L 351.065822 234.672964 
L 354.713626 235.155112 
L 358.36143 235.670305 
L 362.009234 234.996175 
L 365.657038 236.293339 
L 369.304842 236.491259 
L 372.952646 236.721876 
L 376.600449 237.516736 
L 380.248253 237.958789 
L 383.896057 238.620199 
L 387.543861 238.558002 
L 391.191665 239.11946 
L 394.839469 238.73813 
L 398.487273 239.498077 
" clip-path="url(#p655f30001b)" style="fill: none; stroke: #ff00ff; stroke-opacity: 0.3; stroke-width: 0.5; stroke-linecap: square"/>
   </g>
   <g id="line2d_34">
    <path d="M 73.832727 147.903653 
L 77.480531 153.931592 
L 81.128335 156.351381 
L 84.776139 158.810024 
L 88.423943 162.410602 
L 92.071747 168.465263 
L 95.719551 169.673445 
L 99.367354 171.689899 
L 103.015158 175.039819 
L 106.662962 176.870984 
L 110.310766 180.412642 
L 113.95857 182.391844 
L 117.606374 186.319923 
L 121.254178 188.931643 
L 124.901982 190.477029 
L 128.549785 191.860694 
L 132.197589 195.488188 
L 135.845393 195.424706 
L 139.493197 198.124277 
L 143.141001 199.97857 
L 146.788805 203.701177 
L 150.436609 204.347546 
L 154.084413 206.986439 
L 157.732217 208.624677 
L 161.38002 210.426511 
L 165.027824 211.073617 
L 168.675628 213.976128 
L 172.323432 215.212298 
L 175.971236 217.039444 
L 179.61904 219.556025 
L 183.266844 219.777468 
L 186.914648 220.795438 
L 190.562451 224.059736 
L 194.210255 225.360512 
L 197.858059 226.995287 
L 201.505863 228.840342 
L 205.153667 229.907767 
L 208.801471 231.708276 
L 212.449275 233.862632 
L 216.097079 234.914623 
L 219.744883 236.231815 
L 223.392686 238.091651 
L 227.04049 239.086492 
L 230.688294 239.544089 
L 234.336098 241.402588 
L 237.983902 242.954959 
L 241.631706 245.526966 
L 245.27951 246.164555 
L 248.927314 247.867916 
L 252.575117 248.423798 
L 256.222921 249.786557 
L 259.870725 251.639532 
L 263.518529 253.1412 
L 267.166333 254.452887 
L 270.814137 255.886202 
L 274.461941 256.633912 
L 278.109745 257.288667 
L 281.757549 259.142786 
L 285.405352 259.869887 
L 289.053156 260.697857 
L 292.70096 261.730957 
L 296.348764 263.121025 
L 299.996568 264.051835 
L 303.644372 265.227572 
L 307.292176 266.355998 
L 310.93998 267.519583 
L 314.587783 268.638958 
L 318.235587 270.160292 
L 321.883391 270.389869 
L 325.531195 270.42632 
L 329.178999 271.852935 
L 332.826803 272.158631 
L 336.474607 273.643023 
L 340.122411 273.761265 
L 343.770215 275.04334 
L 347.418018 275.82722 
L 351.065822 276.835583 
L 354.713626 277.183644 
L 358.36143 277.918459 
L 362.009234 279.286718 
L 365.657038 279.955357 
L 369.304842 280.003204 
L 372.952646 281.28413 
L 376.600449 281.893787 
L 380.248253 282.662746 
L 383.896057 283.119687 
L 387.543861 283.452531 
L 391.191665 284.37229 
L 394.839469 285.027445 
L 398.487273 286.117816 
" clip-path="url(#p655f30001b)" style="fill: none; stroke: #ff00ff; stroke-opacity: 0.3; stroke-width: 0.5; stroke-linecap: square"/>
   </g>
   <g id="line2d_35">
    <path d="M 73.832727 177.445253 
L 77.480531 178.320443 
L 81.128335 179.463322 
L 84.776139 180.03794 
L 88.423943 181.41601 
L 92.071747 182.029444 
L 95.719551 182.618288 
L 99.367354 183.803664 
L 103.015158 184.61421 
L 106.662962 185.189629 
L 110.310766 186.098712 
L 113.95857 187.103102 
L 117.606374 187.653996 
L 121.254178 188.447706 
L 124.901982 189.187495 
L 128.549785 189.801045 
L 132.197589 191.083408 
L 135.845393 190.842867 
L 139.493197 193.151611 
L 143.141001 192.492476 
L 146.788805 194.046623 
L 150.436609 195.201027 
L 154.084413 195.395762 
L 157.732217 196.75896 
L 161.38002 196.54828 
L 165.027824 198.005738 
L 168.675628 199.051799 
L 172.323432 198.381499 
L 175.971236 200.01599 
L 179.61904 200.307828 
L 183.266844 201.243012 
L 186.914648 201.720605 
L 190.562451 202.391821 
L 194.210255 202.897117 
L 197.858059 203.719111 
L 201.505863 204.177283 
L 205.153667 205.056996 
L 208.801471 205.55746 
L 212.449275 206.094606 
L 216.097079 206.854656 
L 219.744883 207.280435 
L 223.392686 207.643029 
L 227.04049 208.202878 
L 230.688294 209.039292 
L 234.336098 209.668102 
L 237.983902 210.021923 
L 241.631706 210.623998 
L 245.27951 211.539128 
L 248.927314 211.41909 
L 252.575117 212.316828 
L 256.222921 212.436918 
L 259.870725 213.187845 
L 263.518529 213.997526 
L 267.166333 214.466991 
L 270.814137 214.988063 
L 274.461941 215.631009 
L 278.109745 215.996627 
L 281.757549 216.302277 
L 285.405352 217.34764 
L 289.053156 217.636402 
L 292.70096 217.892965 
L 296.348764 218.400703 
L 299.996568 218.94484 
L 303.644372 219.681748 
L 307.292176 220.203855 
L 310.93998 220.802887 
L 314.587783 220.992111 
L 318.235587 221.201822 
L 321.883391 222.221181 
L 325.531195 222.439349 
L 329.178999 223.264373 
L 332.826803 224.20601 
L 336.474607 223.098213 
L 340.122411 224.078892 
L 343.770215 224.954354 
L 347.418018 225.495364 
L 351.065822 225.811791 
L 354.713626 226.093143 
L 358.36143 227.011219 
L 362.009234 226.793755 
L 365.657038 227.764647 
L 369.304842 227.452012 
L 372.952646 228.530311 
L 376.600449 228.464044 
L 380.248253 228.988599 
L 383.896057 228.917378 
L 387.543861 229.646688 
L 391.191665 230.454844 
L 394.839469 230.895049 
L 398.487273 230.665084 
" clip-path="url(#p655f30001b)" style="fill: none; stroke: #ff00ff; stroke-opacity: 0.3; stroke-width: 0.5; stroke-linecap: square"/>
   </g>
   <g id="line2d_36">
    <path d="M 73.832727 163.146593 
L 77.480531 161.930826 
L 81.128335 165.850829 
L 84.776139 167.013257 
L 88.423943 168.506391 
L 92.071747 171.490538 
L 95.719551 171.305106 
L 99.367354 174.835742 
L 103.015158 178.471802 
L 106.662962 176.628776 
L 110.310766 178.929923 
L 113.95857 181.922482 
L 117.606374 181.433984 
L 121.254178 184.159552 
L 124.901982 185.076633 
L 128.549785 186.496452 
L 132.197589 189.198284 
L 135.845393 189.050427 
L 139.493197 190.852661 
L 143.141001 191.718833 
L 146.788805 192.724127 
L 150.436609 194.216407 
L 154.084413 195.288284 
L 157.732217 194.611382 
L 161.38002 196.716786 
L 165.027824 197.324546 
L 168.675628 200.735209 
L 172.323432 199.302327 
L 175.971236 201.707735 
L 179.61904 202.676462 
L 183.266844 203.83097 
L 186.914648 205.085242 
L 190.562451 206.147467 
L 194.210255 207.569236 
L 197.858059 207.312971 
L 201.505863 207.704883 
L 205.153667 210.312804 
L 208.801471 211.379487 
L 212.449275 212.873421 
L 216.097079 214.436368 
L 219.744883 215.405818 
L 223.392686 217.741594 
L 227.04049 217.506583 
L 230.688294 219.210164 
L 234.336098 218.811726 
L 237.983902 220.905572 
L 241.631706 221.849723 
L 245.27951 221.834385 
L 248.927314 222.27722 
L 252.575117 224.556433 
L 256.222921 225.305086 
L 259.870725 226.843231 
L 263.518529 227.352907 
L 267.166333 228.745067 
L 270.814137 229.944896 
L 274.461941 231.00975 
L 278.109745 231.177441 
L 281.757549 231.852677 
L 285.405352 234.595502 
L 289.053156 234.527194 
L 292.70096 235.041005 
L 296.348764 236.318406 
L 299.996568 237.201549 
L 303.644372 237.681106 
L 307.292176 239.482914 
L 310.93998 238.922167 
L 314.587783 240.498099 
L 318.235587 241.517367 
L 321.883391 243.399254 
L 325.531195 243.446674 
L 329.178999 245.438042 
L 332.826803 245.859983 
L 336.474607 246.048381 
L 340.122411 246.491868 
L 343.770215 247.990409 
L 347.418018 248.984423 
L 351.065822 250.260583 
L 354.713626 251.267886 
L 358.36143 251.154755 
L 362.009234 252.698158 
L 365.657038 253.620744 
L 369.304842 253.78587 
L 372.952646 254.837402 
L 376.600449 255.710506 
L 380.248253 256.172897 
L 383.896057 257.315201 
L 387.543861 257.870967 
L 391.191665 258.253311 
L 394.839469 259.841021 
L 398.487273 259.823106 
" clip-path="url(#p655f30001b)" style="fill: none; stroke: #ff00ff; stroke-opacity: 0.3; stroke-width: 0.5; stroke-linecap: square"/>
   </g>
   <g id="line2d_37">
    <path d="M 73.832727 162.993903 
L 77.480531 164.788953 
L 81.128335 166.884278 
L 84.776139 168.092564 
L 88.423943 170.377585 
L 92.071747 172.226619 
L 95.719551 175.162054 
L 99.367354 176.902111 
L 103.015158 178.884259 
L 106.662962 180.592724 
L 110.310766 183.406144 
L 113.95857 185.459643 
L 117.606374 187.274708 
L 121.254178 189.043566 
L 124.901982 191.067282 
L 128.549785 192.824757 
L 132.197589 194.488527 
L 135.845393 196.109477 
L 139.493197 198.595965 
L 143.141001 201.909344 
L 146.788805 202.348574 
L 150.436609 204.387705 
L 154.084413 206.700855 
L 157.732217 208.947268 
L 161.38002 209.99046 
L 165.027824 210.823992 
L 168.675628 213.40894 
L 172.323432 214.308913 
L 175.971236 215.716159 
L 179.61904 217.908665 
L 183.266844 217.86596 
L 186.914648 220.320158 
L 190.562451 221.727876 
L 194.210255 223.225577 
L 197.858059 224.184303 
L 201.505863 225.573647 
L 205.153667 226.72371 
L 208.801471 228.962072 
L 212.449275 230.268255 
L 216.097079 231.325499 
L 219.744883 232.468171 
L 223.392686 233.910937 
L 227.04049 234.761888 
L 230.688294 235.966187 
L 234.336098 236.599073 
L 237.983902 237.581419 
L 241.631706 239.644726 
L 245.27951 241.157415 
L 248.927314 242.201402 
L 252.575117 243.836287 
L 256.222921 244.06505 
L 259.870725 245.554229 
L 263.518529 246.824001 
L 267.166333 247.996372 
L 270.814137 248.739579 
L 274.461941 250.081689 
L 278.109745 251.290783 
L 281.757549 251.275594 
L 285.405352 253.679567 
L 289.053156 254.289415 
L 292.70096 255.289353 
L 296.348764 255.831991 
L 299.996568 257.252979 
L 303.644372 257.369405 
L 307.292176 258.633239 
L 310.93998 260.511127 
L 314.587783 260.951649 
L 318.235587 262.423946 
L 321.883391 262.561628 
L 325.531195 263.489388 
L 329.178999 263.926435 
L 332.826803 265.162217 
L 336.474607 266.204226 
L 340.122411 266.726888 
L 343.770215 268.011377 
L 347.418018 267.822385 
L 351.065822 269.266379 
L 354.713626 270.246141 
L 358.36143 270.54796 
L 362.009234 271.082593 
L 365.657038 273.153265 
L 369.304842 273.454865 
L 372.952646 273.996043 
L 376.600449 275.05745 
L 380.248253 274.989653 
L 383.896057 276.42225 
L 387.543861 275.846983 
L 391.191665 277.097556 
L 394.839469 278.358318 
L 398.487273 278.430713 
" clip-path="url(#p655f30001b)" style="fill: none; stroke: #ff00ff; stroke-opacity: 0.3; stroke-width: 0.5; stroke-linecap: square"/>
   </g>
   <g id="line2d_38">
    <path d="M 73.832727 168.897373 
L 77.480531 168.642257 
L 81.128335 170.045045 
L 84.776139 171.483315 
L 88.423943 169.637782 
L 92.071747 170.3746 
L 95.719551 171.956954 
L 99.367354 171.988094 
L 103.015158 172.756995 
L 106.662962 172.846203 
L 110.310766 174.123178 
L 113.95857 173.019463 
L 117.606374 174.472722 
L 121.254178 174.75284 
L 124.901982 175.292093 
L 128.549785 175.48016 
L 132.197589 176.784024 
L 135.845393 177.963418 
L 139.493197 177.372029 
L 143.141001 177.048521 
L 146.788805 178.062317 
L 150.436609 179.671198 
L 154.084413 179.426471 
L 157.732217 179.470713 
L 161.38002 179.678615 
L 165.027824 180.94533 
L 168.675628 180.365712 
L 172.323432 179.371207 
L 175.971236 180.915146 
L 179.61904 180.735865 
L 183.266844 181.255051 
L 186.914648 182.112746 
L 190.562451 183.362302 
L 194.210255 182.872021 
L 197.858059 183.876333 
L 201.505863 183.415098 
L 205.153667 183.540421 
L 208.801471 185.038904 
L 212.449275 185.129119 
L 216.097079 185.232734 
L 219.744883 186.071035 
L 223.392686 186.22795 
L 227.04049 185.871118 
L 230.688294 187.791245 
L 234.336098 186.804015 
L 237.983902 188.058365 
L 241.631706 188.927353 
L 245.27951 187.69139 
L 248.927314 189.588246 
L 252.575117 189.871465 
L 256.222921 189.521275 
L 259.870725 190.955255 
L 263.518529 192.006936 
L 267.166333 190.982726 
L 270.814137 193.27382 
L 274.461941 190.816676 
L 278.109745 192.483638 
L 281.757549 192.466711 
L 285.405352 193.233247 
L 289.053156 193.282916 
L 292.70096 193.195388 
L 296.348764 194.790573 
L 299.996568 193.733594 
L 303.644372 194.930807 
L 307.292176 194.833032 
L 310.93998 196.018408 
L 314.587783 195.427083 
L 318.235587 195.973598 
L 321.883391 196.593104 
L 325.531195 196.657542 
L 329.178999 197.844391 
L 332.826803 196.701099 
L 336.474607 197.620506 
L 340.122411 199.212099 
L 343.770215 199.39023 
L 347.418018 199.175196 
L 351.065822 198.420431 
L 354.713626 199.328493 
L 358.36143 200.284996 
L 362.009234 200.322261 
L 365.657038 200.613983 
L 369.304842 200.32531 
L 372.952646 201.708213 
L 376.600449 201.945317 
L 380.248253 202.47378 
L 383.896057 202.596415 
L 387.543861 203.000073 
L 391.191665 203.393756 
L 394.839469 203.594163 
L 398.487273 203.983052 
" clip-path="url(#p655f30001b)" style="fill: none; stroke: #ff00ff; stroke-opacity: 0.3; stroke-width: 0.5; stroke-linecap: square"/>
   </g>
   <g id="line2d_39">
    <path d="M 73.832727 164.860614 
L 77.480531 166.191483 
L 81.128335 166.949556 
L 84.776139 168.339927 
L 88.423943 169.917604 
L 92.071747 171.450521 
L 95.719551 172.746361 
L 99.367354 173.961469 
L 103.015158 175.158759 
L 106.662962 176.319314 
L 110.310766 177.85709 
L 113.95857 177.907508 
L 117.606374 179.433022 
L 121.254178 180.11026 
L 124.901982 181.067293 
L 128.549785 182.254673 
L 132.197589 183.279607 
L 135.845393 184.05263 
L 139.493197 185.117477 
L 143.141001 186.072224 
L 146.788805 187.37433 
L 150.436609 188.038414 
L 154.084413 188.90186 
L 157.732217 189.796742 
L 161.38002 189.507656 
L 165.027824 190.985413 
L 168.675628 191.445227 
L 172.323432 192.482643 
L 175.971236 193.513262 
L 179.61904 194.044155 
L 183.266844 195.129638 
L 186.914648 195.900438 
L 190.562451 196.105536 
L 194.210255 197.431585 
L 197.858059 197.568886 
L 201.505863 198.959813 
L 205.153667 200.298809 
L 208.801471 201.905959 
L 212.449275 201.570641 
L 216.097079 202.316581 
L 219.744883 203.286781 
L 223.392686 204.06306 
L 227.04049 204.465271 
L 230.688294 206.630771 
L 234.336098 206.16628 
L 237.983902 208.075786 
L 241.631706 208.311558 
L 245.27951 209.566141 
L 248.927314 209.549757 
L 252.575117 211.32682 
L 256.222921 211.195024 
L 259.870725 211.99646 
L 263.518529 213.354658 
L 267.166333 213.829305 
L 270.814137 215.23699 
L 274.461941 216.676358 
L 278.109745 216.261291 
L 281.757549 217.299159 
L 285.405352 218.525987 
L 289.053156 219.379612 
L 292.70096 220.201781 
L 296.348764 220.968091 
L 299.996568 221.289589 
L 303.644372 222.470056 
L 307.292176 223.724567 
L 310.93998 223.858586 
L 314.587783 224.169347 
L 318.235587 226.134316 
L 321.883391 227.060914 
L 325.531195 227.282447 
L 329.178999 228.871579 
L 332.826803 229.06497 
L 336.474607 230.042038 
L 340.122411 230.481933 
L 343.770215 231.754863 
L 347.418018 232.477804 
L 351.065822 233.645265 
L 354.713626 234.692656 
L 358.36143 234.995012 
L 362.009234 236.612117 
L 365.657038 237.804781 
L 369.304842 237.471505 
L 372.952646 238.26026 
L 376.600449 238.934196 
L 380.248253 240.14849 
L 383.896057 240.661113 
L 387.543861 241.694194 
L 391.191665 243.010681 
L 394.839469 243.714001 
L 398.487273 243.654357 
" clip-path="url(#p655f30001b)" style="fill: none; stroke: #ff00ff; stroke-opacity: 0.3; stroke-width: 0.5; stroke-linecap: square"/>
   </g>
   <g id="line2d_40">
    <path d="M 73.832727 168.362875 
L 77.480531 171.694034 
L 81.128335 175.791845 
L 84.776139 179.50175 
L 88.423943 181.605719 
L 92.071747 184.977114 
L 95.719551 186.458993 
L 99.367354 189.581798 
L 103.015158 192.139391 
L 106.662962 193.415345 
L 110.310766 196.032996 
L 113.95857 198.515647 
L 117.606374 200.084175 
L 121.254178 202.706142 
L 124.901982 204.307064 
L 128.549785 206.561565 
L 132.197589 208.61748 
L 135.845393 209.990149 
L 139.493197 210.466489 
L 143.141001 212.211275 
L 146.788805 214.268767 
L 150.436609 216.448325 
L 154.084413 217.449459 
L 157.732217 218.679775 
L 161.38002 220.621726 
L 165.027824 220.50674 
L 168.675628 224.178999 
L 172.323432 224.417963 
L 175.971236 227.049349 
L 179.61904 229.157195 
L 183.266844 228.74309 
L 186.914648 230.657629 
L 190.562451 230.754221 
L 194.210255 233.165908 
L 197.858059 234.291738 
L 201.505863 235.66168 
L 205.153667 236.464939 
L 208.801471 237.386406 
L 212.449275 239.203435 
L 216.097079 241.245021 
L 219.744883 241.789209 
L 223.392686 242.779567 
L 227.04049 244.644978 
L 230.688294 244.887638 
L 234.336098 247.29395 
L 237.983902 247.261731 
L 241.631706 249.256982 
L 245.27951 249.438454 
L 248.927314 251.50008 
L 252.575117 252.93815 
L 256.222921 252.978845 
L 259.870725 254.09926 
L 263.518529 255.147323 
L 267.166333 256.909456 
L 270.814137 258.552333 
L 274.461941 258.665096 
L 278.109745 258.783035 
L 281.757549 259.783263 
L 285.405352 261.847196 
L 289.053156 262.279985 
L 292.70096 263.581097 
L 296.348764 264.047358 
L 299.996568 264.915965 
L 303.644372 266.025584 
L 307.292176 266.592766 
L 310.93998 267.44621 
L 314.587783 269.406703 
L 318.235587 268.845109 
L 321.883391 270.428827 
L 325.531195 270.787441 
L 329.178999 271.624488 
L 332.826803 272.988862 
L 336.474607 273.872309 
L 340.122411 274.138515 
L 343.770215 275.01094 
L 347.418018 275.645002 
L 351.065822 276.536813 
L 354.713626 277.164604 
L 358.36143 277.821682 
L 362.009234 278.611419 
L 365.657038 279.593596 
L 369.304842 279.591339 
L 372.952646 280.846716 
L 376.600449 281.348855 
L 380.248253 281.278984 
L 383.896057 282.416129 
L 387.543861 282.763066 
L 391.191665 283.804908 
L 394.839469 284.624185 
L 398.487273 284.765569 
" clip-path="url(#p655f30001b)" style="fill: none; stroke: #ff00ff; stroke-opacity: 0.3; stroke-width: 0.5; stroke-linecap: square"/>
   </g>
   <g id="line2d_41">
    <path d="M 73.832727 175.792595 
L 77.480531 176.432775 
L 81.128335 177.224817 
L 84.776139 176.50136 
L 88.423943 175.540942 
L 92.071747 177.749792 
L 95.719551 176.723566 
L 99.367354 175.868894 
L 103.015158 175.68531 
L 106.662962 176.771284 
L 110.310766 176.780019 
L 113.95857 176.855776 
L 117.606374 176.181987 
L 121.254178 175.362293 
L 124.901982 176.633363 
L 128.549785 177.100787 
L 132.197589 176.357561 
L 135.845393 176.813265 
L 139.493197 176.175036 
L 143.141001 176.035177 
L 146.788805 176.462584 
L 150.436609 174.775284 
L 154.084413 176.342649 
L 157.732217 177.554114 
L 161.38002 174.070666 
L 165.027824 174.376769 
L 168.675628 176.114293 
L 172.323432 174.422471 
L 175.971236 174.823041 
L 179.61904 175.924817 
L 183.266844 173.909771 
L 186.914648 176.578229 
L 190.562451 174.853457 
L 194.210255 175.596567 
L 197.858059 174.204258 
L 201.505863 176.146092 
L 205.153667 176.899423 
L 208.801471 175.01023 
L 212.449275 176.084988 
L 216.097079 175.624774 
L 219.744883 175.578038 
L 223.392686 176.146209 
L 227.04049 174.735009 
L 230.688294 176.728321 
L 234.336098 176.721537 
L 237.983902 178.061412 
L 241.631706 175.511107 
L 245.27951 176.657552 
L 248.927314 177.171647 
L 252.575117 176.856499 
L 256.222921 176.870131 
L 259.870725 176.937683 
L 263.518529 175.939082 
L 267.166333 177.465048 
L 270.814137 176.684634 
L 274.461941 176.860285 
L 278.109745 176.530175 
L 281.757549 177.477026 
L 285.405352 175.849861 
L 289.053156 176.349963 
L 292.70096 178.499712 
L 296.348764 175.994346 
L 299.996568 175.851787 
L 303.644372 177.641926 
L 307.292176 176.451756 
L 310.93998 175.247463 
L 314.587783 177.057876 
L 318.235587 176.242885 
L 321.883391 175.52103 
L 325.531195 175.990211 
L 329.178999 177.475695 
L 332.826803 177.540702 
L 336.474607 176.649489 
L 340.122411 177.150766 
L 343.770215 177.373682 
L 347.418018 176.709818 
L 351.065822 177.721702 
L 354.713626 176.579973 
L 358.36143 178.513486 
L 362.009234 177.686659 
L 365.657038 177.832346 
L 369.304842 176.15546 
L 372.952646 177.847037 
L 376.600449 177.371512 
L 380.248253 179.155746 
L 383.896057 176.981408 
L 387.543861 177.075138 
L 391.191665 177.483022 
L 394.839469 177.368436 
L 398.487273 177.196959 
" clip-path="url(#p655f30001b)" style="fill: none; stroke: #ff00ff; stroke-opacity: 0.3; stroke-width: 0.5; stroke-linecap: square"/>
   </g>
   <g id="line2d_42">
    <path d="M 73.832727 171.141834 
L 77.480531 172.332211 
L 81.128335 175.095665 
L 84.776139 177.366705 
L 88.423943 178.123835 
L 92.071747 178.557922 
L 95.719551 180.041416 
L 99.367354 180.584713 
L 103.015158 182.74352 
L 106.662962 184.357841 
L 110.310766 186.428771 
L 113.95857 187.342738 
L 117.606374 188.206803 
L 121.254178 188.479647 
L 124.901982 190.766735 
L 128.549785 192.046501 
L 132.197589 192.543773 
L 135.845393 193.057312 
L 139.493197 195.052149 
L 143.141001 195.347683 
L 146.788805 195.755049 
L 150.436609 197.454869 
L 154.084413 198.020908 
L 157.732217 199.656588 
L 161.38002 200.286418 
L 165.027824 201.113567 
L 168.675628 203.14532 
L 172.323432 202.998639 
L 175.971236 203.23989 
L 179.61904 206.457278 
L 183.266844 205.789653 
L 186.914648 206.751713 
L 190.562451 206.934574 
L 194.210255 208.215102 
L 197.858059 209.245747 
L 201.505863 209.254236 
L 205.153667 210.877344 
L 208.801471 211.579429 
L 212.449275 213.009598 
L 216.097079 213.491803 
L 219.744883 213.998197 
L 223.392686 214.576252 
L 227.04049 215.666361 
L 230.688294 215.724597 
L 234.336098 216.413632 
L 237.983902 217.236414 
L 241.631706 217.935205 
L 245.27951 218.874368 
L 248.927314 219.859175 
L 252.575117 220.096977 
L 256.222921 221.161586 
L 259.870725 221.402546 
L 263.518529 222.560052 
L 267.166333 223.223574 
L 270.814137 223.802617 
L 274.461941 224.748422 
L 278.109745 225.821178 
L 281.757549 225.118569 
L 285.405352 226.642371 
L 289.053156 227.091795 
L 292.70096 226.922987 
L 296.348764 227.986413 
L 299.996568 228.347075 
L 303.644372 228.660033 
L 307.292176 230.148786 
L 310.93998 230.594031 
L 314.587783 230.944957 
L 318.235587 231.732187 
L 321.883391 231.257837 
L 325.531195 231.905583 
L 329.178999 233.526157 
L 332.826803 233.420385 
L 336.474607 234.574847 
L 340.122411 234.561577 
L 343.770215 235.334736 
L 347.418018 235.978146 
L 351.065822 236.237196 
L 354.713626 236.704937 
L 358.36143 237.610376 
L 362.009234 237.897588 
L 365.657038 238.655609 
L 369.304842 239.372134 
L 372.952646 239.275264 
L 376.600449 240.334471 
L 380.248253 240.531675 
L 383.896057 241.787413 
L 387.543861 241.880517 
L 391.191665 242.053435 
L 394.839469 243.096562 
L 398.487273 243.347407 
" clip-path="url(#p655f30001b)" style="fill: none; stroke: #ff00ff; stroke-opacity: 0.3; stroke-width: 0.5; stroke-linecap: square"/>
   </g>
   <g id="line2d_43">
    <path d="M 73.832727 182.492099 
L 77.480531 184.034553 
L 81.128335 183.809789 
L 84.776139 184.069608 
L 88.423943 184.761912 
L 92.071747 186.414066 
L 95.719551 187.176197 
L 99.367354 186.346308 
L 103.015158 188.258191 
L 106.662962 188.606287 
L 110.310766 188.780375 
L 113.95857 190.742573 
L 117.606374 190.157295 
L 121.254178 191.574464 
L 124.901982 192.470497 
L 128.549785 192.313078 
L 132.197589 193.332611 
L 135.845393 193.565658 
L 139.493197 194.077143 
L 143.141001 194.885246 
L 146.788805 196.112785 
L 150.436609 196.210921 
L 154.084413 197.257938 
L 157.732217 197.135613 
L 161.38002 198.131681 
L 165.027824 198.936942 
L 168.675628 199.210613 
L 172.323432 199.258744 
L 175.971236 200.777113 
L 179.61904 201.224095 
L 183.266844 201.82816 
L 186.914648 201.764007 
L 190.562451 203.64046 
L 194.210255 202.995719 
L 197.858059 203.916973 
L 201.505863 206.109039 
L 205.153667 206.068673 
L 208.801471 205.596856 
L 212.449275 207.198877 
L 216.097079 206.629117 
L 219.744883 207.88074 
L 223.392686 209.342514 
L 227.04049 209.617787 
L 230.688294 210.150217 
L 234.336098 210.954961 
L 237.983902 212.581402 
L 241.631706 212.992619 
L 245.27951 212.499702 
L 248.927314 213.453647 
L 252.575117 214.409078 
L 256.222921 214.830154 
L 259.870725 215.799462 
L 263.518529 215.162267 
L 267.166333 217.413938 
L 270.814137 217.50135 
L 274.461941 218.228632 
L 278.109745 218.577297 
L 281.757549 220.495847 
L 285.405352 220.342059 
L 289.053156 220.867021 
L 292.70096 221.86999 
L 296.348764 222.317205 
L 299.996568 222.353268 
L 303.644372 223.922565 
L 307.292176 223.783203 
L 310.93998 225.162036 
L 314.587783 225.499893 
L 318.235587 227.391961 
L 321.883391 226.915014 
L 325.531195 227.439789 
L 329.178999 229.019203 
L 332.826803 228.753072 
L 336.474607 229.283732 
L 340.122411 230.309093 
L 343.770215 230.057679 
L 347.418018 231.286587 
L 351.065822 231.706034 
L 354.713626 233.612897 
L 358.36143 233.061376 
L 362.009234 233.343129 
L 365.657038 234.165349 
L 369.304842 235.514191 
L 372.952646 234.643065 
L 376.600449 236.529021 
L 380.248253 236.373185 
L 383.896057 236.648174 
L 387.543861 237.450967 
L 391.191665 237.984147 
L 394.839469 239.044149 
L 398.487273 238.648399 
" clip-path="url(#p655f30001b)" style="fill: none; stroke: #ff00ff; stroke-opacity: 0.3; stroke-width: 0.5; stroke-linecap: square"/>
   </g>
   <g id="line2d_44">
    <path d="M 73.832727 183.438279 
L 77.480531 184.709155 
L 81.128335 186.26316 
L 84.776139 188.040559 
L 88.423943 190.68174 
L 92.071747 191.853652 
L 95.719551 193.495844 
L 99.367354 195.312421 
L 103.015158 195.557006 
L 106.662962 197.615027 
L 110.310766 199.117813 
L 113.95857 200.89476 
L 117.606374 201.710423 
L 121.254178 202.984658 
L 124.901982 204.094394 
L 128.549785 205.693856 
L 132.197589 206.535503 
L 135.845393 207.2134 
L 139.493197 208.289567 
L 143.141001 211.096939 
L 146.788805 211.630907 
L 150.436609 212.700704 
L 154.084413 213.712872 
L 157.732217 214.7104 
L 161.38002 214.641026 
L 165.027824 215.542046 
L 168.675628 217.710234 
L 172.323432 217.925837 
L 175.971236 219.534524 
L 179.61904 220.347493 
L 183.266844 221.235301 
L 186.914648 221.489874 
L 190.562451 223.604426 
L 194.210255 224.158409 
L 197.858059 225.687211 
L 201.505863 225.984153 
L 205.153667 227.092551 
L 208.801471 227.892844 
L 212.449275 230.033116 
L 216.097079 230.036824 
L 219.744883 230.965095 
L 223.392686 232.088391 
L 227.04049 233.468187 
L 230.688294 234.335728 
L 234.336098 235.698299 
L 237.983902 235.523462 
L 241.631706 236.673241 
L 245.27951 237.603767 
L 248.927314 238.654446 
L 252.575117 239.089593 
L 256.222921 240.355139 
L 259.870725 241.124298 
L 263.518529 242.032884 
L 267.166333 242.544227 
L 270.814137 244.028722 
L 274.461941 244.587479 
L 278.109745 244.503608 
L 281.757549 245.478382 
L 285.405352 247.03262 
L 289.053156 248.734171 
L 292.70096 248.149074 
L 296.348764 248.953851 
L 299.996568 249.686295 
L 303.644372 250.215882 
L 307.292176 251.694912 
L 310.93998 252.916274 
L 314.587783 253.818412 
L 318.235587 253.75681 
L 321.883391 255.219701 
L 325.531195 254.713178 
L 329.178999 255.824051 
L 332.826803 256.472223 
L 336.474607 257.495212 
L 340.122411 257.735437 
L 343.770215 258.982615 
L 347.418018 260.021194 
L 351.065822 260.087396 
L 354.713626 260.491131 
L 358.36143 260.555446 
L 362.009234 261.833074 
L 365.657038 263.714295 
L 369.304842 263.143734 
L 372.952646 264.185168 
L 376.600449 264.827312 
L 380.248253 265.046178 
L 383.896057 265.869141 
L 387.543861 265.599579 
L 391.191665 267.561448 
L 394.839469 267.533629 
L 398.487273 267.795153 
" clip-path="url(#p655f30001b)" style="fill: none; stroke: #ff00ff; stroke-opacity: 0.3; stroke-width: 0.5; stroke-linecap: square"/>
   </g>
   <g id="line2d_45">
    <path d="M 73.832727 185.853455 
L 77.480531 184.93065 
L 81.128335 185.631547 
L 84.776139 186.054728 
L 88.423943 186.478466 
L 92.071747 186.744616 
L 95.719551 186.609835 
L 99.367354 187.040679 
L 103.015158 187.954814 
L 106.662962 187.405483 
L 110.310766 188.310599 
L 113.95857 189.201709 
L 117.606374 188.994776 
L 121.254178 188.68897 
L 124.901982 189.49166 
L 128.549785 188.84865 
L 132.197589 189.752564 
L 135.845393 190.470633 
L 139.493197 190.748671 
L 143.141001 191.704271 
L 146.788805 190.879666 
L 150.436609 191.611574 
L 154.084413 192.515282 
L 157.732217 192.052652 
L 161.38002 191.863369 
L 165.027824 192.762477 
L 168.675628 193.484151 
L 172.323432 192.832574 
L 175.971236 193.504166 
L 179.61904 193.582791 
L 183.266844 194.389797 
L 186.914648 194.542124 
L 190.562451 195.426902 
L 194.210255 194.711792 
L 197.858059 195.746844 
L 201.505863 195.534368 
L 205.153667 196.579162 
L 208.801471 195.658243 
L 212.449275 196.179794 
L 216.097079 197.153702 
L 219.744883 197.18377 
L 223.392686 198.251318 
L 227.04049 197.512795 
L 230.688294 197.964558 
L 234.336098 198.484959 
L 237.983902 199.132388 
L 241.631706 200.161741 
L 245.27951 200.172776 
L 248.927314 200.472198 
L 252.575117 200.682465 
L 256.222921 201.392833 
L 259.870725 201.501074 
L 263.518529 202.067009 
L 267.166333 202.224402 
L 270.814137 202.430611 
L 274.461941 202.717306 
L 278.109745 203.546058 
L 281.757549 203.545308 
L 285.405352 203.958579 
L 289.053156 203.676148 
L 292.70096 204.813923 
L 296.348764 204.863321 
L 299.996568 205.210797 
L 303.644372 205.965485 
L 307.292176 205.997284 
L 310.93998 207.658548 
L 314.587783 206.463002 
L 318.235587 207.850363 
L 321.883391 207.566135 
L 325.531195 207.557711 
L 329.178999 208.548636 
L 332.826803 209.416927 
L 336.474607 208.735735 
L 340.122411 209.274884 
L 343.770215 211.175229 
L 347.418018 210.597342 
L 351.065822 210.636713 
L 354.713626 211.37415 
L 358.36143 212.181324 
L 362.009234 212.992206 
L 365.657038 213.610536 
L 369.304842 213.098379 
L 372.952646 214.797786 
L 376.600449 214.449056 
L 380.248253 214.291767 
L 383.896057 214.743659 
L 387.543861 215.012265 
L 391.191665 215.575564 
L 394.839469 216.661977 
L 398.487273 216.425842 
" clip-path="url(#p655f30001b)" style="fill: none; stroke: #ff00ff; stroke-opacity: 0.3; stroke-width: 0.5; stroke-linecap: square"/>
   </g>
   <g id="line2d_46">
    <path d="M 73.832727 157.968868 
L 77.480531 163.087853 
L 81.128335 164.214542 
L 84.776139 166.940627 
L 88.423943 170.170161 
L 92.071747 172.670475 
L 95.719551 174.050767 
L 99.367354 175.993261 
L 103.015158 179.215429 
L 106.662962 179.81244 
L 110.310766 181.809383 
L 113.95857 184.162382 
L 117.606374 185.555906 
L 121.254178 187.492727 
L 124.901982 188.784587 
L 128.549785 189.745897 
L 132.197589 191.609326 
L 135.845393 192.528461 
L 139.493197 194.586237 
L 143.141001 195.665311 
L 146.788805 196.994862 
L 150.436609 197.951418 
L 154.084413 197.861279 
L 157.732217 199.698866 
L 161.38002 201.852491 
L 165.027824 201.667318 
L 168.675628 203.053037 
L 172.323432 204.676984 
L 175.971236 205.178972 
L 179.61904 206.415297 
L 183.266844 207.403496 
L 186.914648 208.222338 
L 190.562451 209.502078 
L 194.210255 210.557157 
L 197.858059 210.593711 
L 201.505863 212.527754 
L 205.153667 213.241882 
L 208.801471 213.941667 
L 212.449275 214.359965 
L 216.097079 215.921826 
L 219.744883 216.110889 
L 223.392686 218.791259 
L 227.04049 218.687037 
L 230.688294 220.160155 
L 234.336098 220.81053 
L 237.983902 220.667712 
L 241.631706 222.663738 
L 245.27951 223.029789 
L 248.927314 224.141656 
L 252.575117 224.533058 
L 256.222921 225.466905 
L 259.870725 226.947175 
L 263.518529 227.836876 
L 267.166333 227.883108 
L 270.814137 229.926496 
L 274.461941 230.578254 
L 278.109745 229.628327 
L 281.757549 230.85854 
L 285.405352 232.920425 
L 289.053156 233.708282 
L 292.70096 234.264519 
L 296.348764 234.968271 
L 299.996568 235.375483 
L 303.644372 235.450051 
L 307.292176 237.568285 
L 310.93998 237.985297 
L 314.587783 238.584859 
L 318.235587 240.823777 
L 321.883391 241.499187 
L 325.531195 240.726759 
L 329.178999 243.17679 
L 332.826803 242.968248 
L 336.474607 243.794719 
L 340.122411 244.595167 
L 343.770215 246.101228 
L 347.418018 245.615508 
L 351.065822 247.735422 
L 354.713626 248.387154 
L 358.36143 248.210825 
L 362.009234 249.578765 
L 365.657038 250.678816 
L 369.304842 249.99484 
L 372.952646 251.485053 
L 376.600449 252.301051 
L 380.248253 252.10817 
L 383.896057 253.498735 
L 387.543861 254.187047 
L 391.191665 255.705648 
L 394.839469 255.116765 
L 398.487273 256.558491 
" clip-path="url(#p655f30001b)" style="fill: none; stroke: #ff00ff; stroke-opacity: 0.3; stroke-width: 0.5; stroke-linecap: square"/>
   </g>
   <g id="line2d_47">
    <path d="M 73.832727 178.38691 
L 77.480531 178.277855 
L 81.128335 178.612772 
L 84.776139 179.026263 
L 88.423943 179.567544 
L 92.071747 179.209369 
L 95.719551 179.733388 
L 99.367354 180.209262 
L 103.015158 180.253944 
L 106.662962 180.260236 
L 110.310766 180.178096 
L 113.95857 180.133919 
L 117.606374 179.896298 
L 121.254178 180.548934 
L 124.901982 180.941157 
L 128.549785 180.632728 
L 132.197589 181.290391 
L 135.845393 181.559991 
L 139.493197 181.174552 
L 143.141001 181.479427 
L 146.788805 181.43503 
L 150.436609 181.945288 
L 154.084413 182.006728 
L 157.732217 182.405928 
L 161.38002 182.596451 
L 165.027824 182.164599 
L 168.675628 182.829614 
L 172.323432 182.933035 
L 175.971236 183.192983 
L 179.61904 183.048705 
L 183.266844 183.217469 
L 186.914648 183.625623 
L 190.562451 184.060046 
L 194.210255 184.040561 
L 197.858059 183.732184 
L 201.505863 184.10832 
L 205.153667 184.808467 
L 208.801471 184.375905 
L 212.449275 184.713484 
L 216.097079 185.176204 
L 219.744883 184.833767 
L 223.392686 185.349968 
L 227.04049 185.585134 
L 230.688294 185.798346 
L 234.336098 186.322843 
L 237.983902 185.844979 
L 241.631706 185.841438 
L 245.27951 186.712287 
L 248.927314 186.672981 
L 252.575117 187.013752 
L 256.222921 186.928795 
L 259.870725 186.935359 
L 263.518529 187.794695 
L 267.166333 187.630648 
L 270.814137 188.20825 
L 274.461941 188.664187 
L 278.109745 188.258746 
L 281.757549 188.584864 
L 285.405352 188.835755 
L 289.053156 188.838908 
L 292.70096 189.305026 
L 296.348764 189.838788 
L 299.996568 189.996206 
L 303.644372 190.08044 
L 307.292176 190.367729 
L 310.93998 190.798276 
L 314.587783 190.586498 
L 318.235587 190.99504 
L 321.883391 191.523271 
L 325.531195 191.371111 
L 329.178999 192.209295 
L 332.826803 191.90681 
L 336.474607 192.585289 
L 340.122411 191.459233 
L 343.770215 192.653629 
L 347.418018 192.612462 
L 351.065822 192.996208 
L 354.713626 192.467409 
L 358.36143 193.834044 
L 362.009234 194.168625 
L 365.657038 194.402744 
L 369.304842 194.016452 
L 372.952646 194.058601 
L 376.600449 195.03229 
L 380.248253 194.452619 
L 383.896057 194.728461 
L 387.543861 195.15999 
L 391.191665 195.893047 
L 394.839469 196.370226 
L 398.487273 195.790802 
" clip-path="url(#p655f30001b)" style="fill: none; stroke: #ff00ff; stroke-opacity: 0.3; stroke-width: 0.5; stroke-linecap: square"/>
   </g>
   <g id="line2d_48">
    <path d="M 73.832727 146.705808 
L 77.480531 150.681087 
L 81.128335 153.05573 
L 84.776139 153.536682 
L 88.423943 157.815002 
L 92.071747 160.754029 
L 95.719551 162.053784 
L 99.367354 165.778884 
L 103.015158 166.17842 
L 106.662962 169.855504 
L 110.310766 170.253361 
L 113.95857 173.039685 
L 117.606374 173.697774 
L 121.254178 173.902032 
L 124.901982 175.46574 
L 128.549785 178.579552 
L 132.197589 179.146314 
L 135.845393 180.636953 
L 139.493197 180.329494 
L 143.141001 183.121271 
L 146.788805 184.377261 
L 150.436609 185.727835 
L 154.084413 185.373291 
L 157.732217 187.417668 
L 161.38002 186.984369 
L 165.027824 188.605047 
L 168.675628 190.094278 
L 172.323432 190.552334 
L 175.971236 191.623436 
L 179.61904 191.826854 
L 183.266844 191.776862 
L 186.914648 193.076953 
L 190.562451 194.475167 
L 194.210255 195.564591 
L 197.858059 195.56326 
L 201.505863 196.006805 
L 205.153667 197.624382 
L 208.801471 197.369099 
L 212.449275 199.421512 
L 216.097079 199.221583 
L 219.744883 199.773447 
L 223.392686 199.909778 
L 227.04049 200.493157 
L 230.688294 201.423908 
L 234.336098 203.737059 
L 237.983902 202.855369 
L 241.631706 203.153383 
L 245.27951 204.418974 
L 248.927314 204.845179 
L 252.575117 205.160547 
L 256.222921 206.492437 
L 259.870725 207.66652 
L 263.518529 207.192584 
L 267.166333 207.09446 
L 270.814137 208.455475 
L 274.461941 209.216649 
L 278.109745 209.802133 
L 281.757549 209.59219 
L 285.405352 211.630959 
L 289.053156 211.48296 
L 292.70096 211.847479 
L 296.348764 212.634677 
L 299.996568 212.984892 
L 303.644372 213.455198 
L 307.292176 214.228233 
L 310.93998 214.21296 
L 314.587783 214.872225 
L 318.235587 215.813159 
L 321.883391 216.542521 
L 325.531195 216.343341 
L 329.178999 217.043307 
L 332.826803 218.261697 
L 336.474607 218.172218 
L 340.122411 217.423513 
L 343.770215 219.550346 
L 347.418018 219.005557 
L 351.065822 220.494026 
L 354.713626 221.532669 
L 358.36143 221.143787 
L 362.009234 221.999331 
L 365.657038 222.225671 
L 369.304842 223.049274 
L 372.952646 223.776704 
L 376.600449 224.374128 
L 380.248253 224.256629 
L 383.896057 225.390676 
L 387.543861 225.216389 
L 391.191665 225.782841 
L 394.839469 227.453944 
L 398.487273 226.768294 
" clip-path="url(#p655f30001b)" style="fill: none; stroke: #ff00ff; stroke-opacity: 0.3; stroke-width: 0.5; stroke-linecap: square"/>
   </g>
   <g id="line2d_49">
    <path d="M 73.832727 166.826094 
L 77.480531 170.073136 
L 81.128335 174.044824 
L 84.776139 178.81358 
L 88.423943 183.057182 
L 92.071747 186.099268 
L 95.719551 189.877383 
L 99.367354 192.126574 
L 103.015158 195.512014 
L 106.662962 198.537975 
L 110.310766 201.107817 
L 113.95857 203.270307 
L 117.606374 205.662057 
L 121.254178 208.440499 
L 124.901982 209.955831 
L 128.549785 211.157281 
L 132.197589 213.58963 
L 135.845393 214.794297 
L 139.493197 217.751646 
L 143.141001 217.983801 
L 146.788805 220.137104 
L 150.436609 220.805969 
L 154.084413 223.138217 
L 157.732217 224.563985 
L 161.38002 226.787101 
L 165.027824 227.096137 
L 168.675628 228.560508 
L 172.323432 229.274306 
L 175.971236 230.501095 
L 179.61904 231.695742 
L 183.266844 232.440423 
L 186.914648 233.910285 
L 190.562451 235.148231 
L 194.210255 236.264143 
L 197.858059 238.736276 
L 201.505863 238.604952 
L 205.153667 240.379256 
L 208.801471 241.179905 
L 212.449275 242.574236 
L 216.097079 243.918634 
L 219.744883 244.67754 
L 223.392686 246.3011 
L 227.04049 246.595464 
L 230.688294 247.960735 
L 234.336098 249.182614 
L 237.983902 250.295638 
L 241.631706 250.985662 
L 245.27951 252.970944 
L 248.927314 254.168847 
L 252.575117 255.098068 
L 256.222921 255.387173 
L 259.870725 256.337797 
L 263.518529 258.247917 
L 267.166333 258.223715 
L 270.814137 260.10272 
L 274.461941 260.823451 
L 278.109745 260.574873 
L 281.757549 261.451524 
L 285.405352 262.906036 
L 289.053156 264.518761 
L 292.70096 264.122197 
L 296.348764 265.802888 
L 299.996568 266.180212 
L 303.644372 267.6804 
L 307.292176 268.106864 
L 310.93998 269.406057 
L 314.587783 270.202215 
L 318.235587 271.097485 
L 321.883391 271.74337 
L 325.531195 272.740924 
L 329.178999 272.707691 
L 332.826803 273.198676 
L 336.474607 273.829673 
L 340.122411 275.192228 
L 343.770215 276.118941 
L 347.418018 275.902412 
L 351.065822 278.02312 
L 354.713626 277.950878 
L 358.36143 278.968331 
L 362.009234 279.289238 
L 365.657038 280.14893 
L 369.304842 280.789885 
L 372.952646 281.526703 
L 376.600449 282.371086 
L 380.248253 281.563331 
L 383.896057 282.611336 
L 387.543861 283.921066 
L 391.191665 283.859416 
L 394.839469 284.581904 
L 398.487273 285.178029 
" clip-path="url(#p655f30001b)" style="fill: none; stroke: #ff00ff; stroke-opacity: 0.3; stroke-width: 0.5; stroke-linecap: square"/>
   </g>
   <g id="line2d_50">
    <path d="M 73.832727 177.335216 
L 77.480531 178.351403 
L 81.128335 180.247716 
L 84.776139 181.283891 
L 88.423943 183.016157 
L 92.071747 185.066955 
L 95.719551 186.737393 
L 99.367354 187.538481 
L 103.015158 189.496932 
L 106.662962 190.004812 
L 110.310766 192.743056 
L 113.95857 193.112809 
L 117.606374 194.317283 
L 121.254178 196.050505 
L 124.901982 197.057285 
L 128.549785 198.607801 
L 132.197589 199.778615 
L 135.845393 201.833717 
L 139.493197 202.304629 
L 143.141001 203.880225 
L 146.788805 204.894034 
L 150.436609 207.114721 
L 154.084413 208.062645 
L 157.732217 209.282353 
L 161.38002 209.912093 
L 165.027824 211.569286 
L 168.675628 213.220575 
L 172.323432 213.4246 
L 175.971236 214.986216 
L 179.61904 216.566115 
L 183.266844 217.400772 
L 186.914648 218.734742 
L 190.562451 219.161025 
L 194.210255 221.545661 
L 197.858059 222.117075 
L 201.505863 222.48925 
L 205.153667 224.343821 
L 208.801471 225.610039 
L 212.449275 225.961276 
L 216.097079 227.510435 
L 219.744883 228.019362 
L 223.392686 229.454279 
L 227.04049 230.668431 
L 230.688294 231.341844 
L 234.336098 232.041113 
L 237.983902 232.997009 
L 241.631706 234.483391 
L 245.27951 235.98336 
L 248.927314 237.14104 
L 252.575117 237.883497 
L 256.222921 238.743912 
L 259.870725 239.810291 
L 263.518529 241.219844 
L 267.166333 241.215825 
L 270.814137 243.330655 
L 274.461941 244.227262 
L 278.109745 244.200399 
L 281.757549 245.819256 
L 285.405352 246.350148 
L 289.053156 247.300372 
L 292.70096 248.354424 
L 296.348764 249.016519 
L 299.996568 250.351568 
L 303.644372 250.608938 
L 307.292176 251.918145 
L 310.93998 252.965782 
L 314.587783 253.471097 
L 318.235587 254.588993 
L 321.883391 255.408467 
L 325.531195 255.878604 
L 329.178999 257.639116 
L 332.826803 258.228658 
L 336.474607 258.196684 
L 340.122411 259.442331 
L 343.770215 260.541931 
L 347.418018 261.055748 
L 351.065822 262.132147 
L 354.713626 262.668783 
L 358.36143 263.993567 
L 362.009234 264.748293 
L 365.657038 265.365635 
L 369.304842 266.17777 
L 372.952646 266.68158 
L 376.600449 268.117673 
L 380.248253 267.769686 
L 383.896057 268.984936 
L 387.543861 269.188794 
L 391.191665 269.968626 
L 394.839469 271.363158 
L 398.487273 271.590706 
" clip-path="url(#p655f30001b)" style="fill: none; stroke: #ff00ff; stroke-opacity: 0.3; stroke-width: 0.5; stroke-linecap: square"/>
   </g>
   <g id="line2d_51">
    <path d="M 73.832727 182.794029 
L 77.480531 184.337619 
L 81.128335 185.278126 
L 84.776139 186.739448 
L 88.423943 188.147249 
L 92.071747 188.648734 
L 95.719551 189.00696 
L 99.367354 191.412523 
L 103.015158 192.347616 
L 106.662962 193.296639 
L 110.310766 194.747856 
L 113.95857 195.626987 
L 117.606374 197.16612 
L 121.254178 196.834162 
L 124.901982 198.829826 
L 128.549785 200.049198 
L 132.197589 199.689213 
L 135.845393 201.355736 
L 139.493197 202.427678 
L 143.141001 203.127063 
L 146.788805 204.566922 
L 150.436609 204.439041 
L 154.084413 205.350785 
L 157.732217 207.662812 
L 161.38002 207.814145 
L 165.027824 207.923367 
L 168.675628 209.570909 
L 172.323432 210.173333 
L 175.971236 211.054157 
L 179.61904 212.986314 
L 183.266844 212.379444 
L 186.914648 213.594656 
L 190.562451 213.542441 
L 194.210255 214.675332 
L 197.858059 215.867531 
L 201.505863 216.646704 
L 205.153667 217.797749 
L 208.801471 218.482184 
L 212.449275 219.651364 
L 216.097079 220.159696 
L 219.744883 220.706275 
L 223.392686 221.774308 
L 227.04049 222.119336 
L 230.688294 223.098122 
L 234.336098 224.003335 
L 237.983902 225.200237 
L 241.631706 225.948548 
L 245.27951 226.528929 
L 248.927314 228.099971 
L 252.575117 227.675839 
L 256.222921 229.139829 
L 259.870725 229.512198 
L 263.518529 230.841775 
L 267.166333 232.15637 
L 270.814137 232.159148 
L 274.461941 233.614351 
L 278.109745 233.686393 
L 281.757549 234.471807 
L 285.405352 234.972012 
L 289.053156 236.003297 
L 292.70096 236.879405 
L 296.348764 238.262456 
L 299.996568 238.608989 
L 303.644372 238.791094 
L 307.292176 240.284893 
L 310.93998 241.394189 
L 314.587783 242.124521 
L 318.235587 242.711278 
L 321.883391 243.375601 
L 325.531195 244.384933 
L 329.178999 244.599218 
L 332.826803 245.698695 
L 336.474607 246.461322 
L 340.122411 246.519061 
L 343.770215 248.055118 
L 347.418018 247.788696 
L 351.065822 249.280059 
L 354.713626 250.313857 
L 358.36143 250.048682 
L 362.009234 250.656379 
L 365.657038 252.514942 
L 369.304842 251.989909 
L 372.952646 253.262065 
L 376.600449 254.498628 
L 380.248253 254.021959 
L 383.896057 255.654887 
L 387.543861 255.49157 
L 391.191665 256.456162 
L 394.839469 256.563718 
L 398.487273 258.048762 
" clip-path="url(#p655f30001b)" style="fill: none; stroke: #ff00ff; stroke-opacity: 0.3; stroke-width: 0.5; stroke-linecap: square"/>
   </g>
   <g id="line2d_52">
    <path d="M 73.832727 174.896226 
L 77.480531 175.635202 
L 81.128335 175.227732 
L 84.776139 175.286213 
L 88.423943 175.812506 
L 92.071747 175.927983 
L 95.719551 175.063892 
L 99.367354 175.656638 
L 103.015158 175.959252 
L 106.662962 175.757927 
L 110.310766 175.933125 
L 113.95857 176.678083 
L 117.606374 176.786143 
L 121.254178 176.416119 
L 124.901982 176.254359 
L 128.549785 176.550784 
L 132.197589 176.559532 
L 135.845393 176.954196 
L 139.493197 176.919051 
L 143.141001 177.20824 
L 146.788805 176.663379 
L 150.436609 177.408079 
L 154.084413 177.475773 
L 157.732217 176.989794 
L 161.38002 177.272742 
L 165.027824 177.045291 
L 168.675628 178.135864 
L 172.323432 177.782703 
L 175.971236 176.708849 
L 179.61904 178.21166 
L 183.266844 177.98886 
L 186.914648 177.642611 
L 190.562451 177.66052 
L 194.210255 178.046566 
L 197.858059 178.041268 
L 201.505863 178.365228 
L 205.153667 177.847528 
L 208.801471 177.790171 
L 212.449275 178.435041 
L 216.097079 178.809678 
L 219.744883 178.77421 
L 223.392686 178.711774 
L 227.04049 179.246518 
L 230.688294 178.970586 
L 234.336098 179.331888 
L 237.983902 179.337767 
L 241.631706 179.197159 
L 245.27951 178.908422 
L 248.927314 179.739525 
L 252.575117 179.624359 
L 256.222921 179.550928 
L 259.870725 179.860726 
L 263.518529 179.362434 
L 267.166333 179.880353 
L 270.814137 180.323576 
L 274.461941 179.967791 
L 278.109745 180.318394 
L 281.757549 180.301222 
L 285.405352 181.148968 
L 289.053156 180.647407 
L 292.70096 180.733203 
L 296.348764 181.241096 
L 299.996568 180.481085 
L 303.644372 180.815111 
L 307.292176 180.407008 
L 310.93998 181.187008 
L 314.587783 181.409278 
L 318.235587 181.216972 
L 321.883391 181.595046 
L 325.531195 181.422484 
L 329.178999 181.866107 
L 332.826803 181.030403 
L 336.474607 181.206713 
L 340.122411 181.649289 
L 343.770215 182.232474 
L 347.418018 181.612477 
L 351.065822 181.755514 
L 354.713626 182.518872 
L 358.36143 181.757866 
L 362.009234 182.261547 
L 365.657038 181.93008 
L 369.304842 182.773458 
L 372.952646 183.00635 
L 376.600449 182.484928 
L 380.248253 182.625188 
L 383.896057 182.607602 
L 387.543861 182.711036 
L 391.191665 182.877177 
L 394.839469 183.058512 
L 398.487273 183.715193 
" clip-path="url(#p655f30001b)" style="fill: none; stroke: #ff00ff; stroke-opacity: 0.3; stroke-width: 0.5; stroke-linecap: square"/>
   </g>
   <g id="line2d_53">
    <path d="M 73.832727 192.105435 
L 77.480531 192.875214 
L 81.128335 192.833905 
L 84.776139 198.11478 
L 88.423943 200.009155 
L 92.071747 201.761926 
L 95.719551 203.333026 
L 99.367354 205.114147 
L 103.015158 207.575271 
L 106.662962 208.598215 
L 110.310766 212.148905 
L 113.95857 213.07463 
L 117.606374 213.68911 
L 121.254178 215.58864 
L 124.901982 218.925174 
L 128.549785 220.308335 
L 132.197589 221.018897 
L 135.845393 222.366531 
L 139.493197 224.334163 
L 143.141001 226.023459 
L 146.788805 226.148698 
L 150.436609 228.965587 
L 154.084413 229.582289 
L 157.732217 231.760239 
L 161.38002 231.054232 
L 165.027824 233.775362 
L 168.675628 235.464613 
L 172.323432 234.710856 
L 175.971236 237.390909 
L 179.61904 239.535968 
L 183.266844 239.734767 
L 186.914648 240.253979 
L 190.562451 241.311597 
L 194.210255 243.242184 
L 197.858059 244.456678 
L 201.505863 245.092226 
L 205.153667 245.899322 
L 208.801471 248.206819 
L 212.449275 248.415664 
L 216.097079 249.192479 
L 219.744883 249.719134 
L 223.392686 251.014269 
L 227.04049 252.974678 
L 230.688294 254.33533 
L 234.336098 254.66798 
L 237.983902 255.02204 
L 241.631706 257.306595 
L 245.27951 257.157627 
L 248.927314 258.386225 
L 252.575117 259.269808 
L 256.222921 259.566187 
L 259.870725 260.699007 
L 263.518529 261.685798 
L 267.166333 262.763832 
L 270.814137 263.69981 
L 274.461941 264.723458 
L 278.109745 264.887318 
L 281.757549 266.530493 
L 285.405352 266.411353 
L 289.053156 266.825632 
L 292.70096 267.458744 
L 296.348764 268.366483 
L 299.996568 269.651198 
L 303.644372 270.054933 
L 307.292176 270.498155 
L 310.93998 271.220249 
L 314.587783 272.886643 
L 318.235587 272.904661 
L 321.883391 273.325485 
L 325.531195 274.025241 
L 329.178999 275.758605 
L 332.826803 275.121972 
L 336.474607 275.865063 
L 340.122411 276.385635 
L 343.770215 277.112416 
L 347.418018 277.732429 
L 351.065822 278.213908 
L 354.713626 279.12668 
L 358.36143 279.422462 
L 362.009234 280.477535 
L 365.657038 280.937991 
L 369.304842 280.515055 
L 372.952646 281.836617 
L 376.600449 282.384252 
L 380.248253 282.477479 
L 383.896057 283.260486 
L 387.543861 283.508741 
L 391.191665 284.15146 
L 394.839469 285.128925 
L 398.487273 285.881174 
" clip-path="url(#p655f30001b)" style="fill: none; stroke: #ff00ff; stroke-opacity: 0.3; stroke-width: 0.5; stroke-linecap: square"/>
   </g>
   <g id="line2d_54">
    <path d="M 73.832727 182.210586 
L 77.480531 185.232734 
L 81.128335 186.653845 
L 84.776139 187.88106 
L 88.423943 188.615797 
L 92.071747 190.304247 
L 95.719551 192.619039 
L 99.367354 193.820089 
L 103.015158 194.754316 
L 106.662962 197.981873 
L 110.310766 198.815845 
L 113.95857 200.975879 
L 117.606374 201.632547 
L 121.254178 203.304341 
L 124.901982 203.780112 
L 128.549785 205.90283 
L 132.197589 206.890138 
L 135.845393 207.690166 
L 139.493197 210.067211 
L 143.141001 210.704122 
L 146.788805 211.839597 
L 150.436609 213.474218 
L 154.084413 214.166108 
L 157.732217 214.923109 
L 161.38002 216.547405 
L 165.027824 216.901226 
L 168.675628 219.009937 
L 172.323432 220.228631 
L 175.971236 221.342263 
L 179.61904 220.26607 
L 183.266844 222.951615 
L 186.914648 223.647389 
L 190.562451 224.268988 
L 194.210255 224.844982 
L 197.858059 225.47918 
L 201.505863 226.389367 
L 205.153667 227.549638 
L 208.801471 229.48268 
L 212.449275 229.793066 
L 216.097079 231.257579 
L 219.744883 231.760148 
L 223.392686 233.154512 
L 227.04049 233.263896 
L 230.688294 235.133365 
L 234.336098 234.926161 
L 237.983902 236.54547 
L 241.631706 237.64116 
L 245.27951 238.739642 
L 248.927314 239.060126 
L 252.575117 240.264083 
L 256.222921 240.722294 
L 259.870725 241.8058 
L 263.518529 242.254863 
L 267.166333 244.19109 
L 270.814137 243.29058 
L 274.461941 245.076533 
L 278.109745 245.592767 
L 281.757549 245.389484 
L 285.405352 247.525098 
L 289.053156 248.451404 
L 292.70096 248.958787 
L 296.348764 250.025476 
L 299.996568 250.421245 
L 303.644372 250.622615 
L 307.292176 252.148336 
L 310.93998 252.750431 
L 314.587783 254.500605 
L 318.235587 253.917362 
L 321.883391 255.091136 
L 325.531195 255.904292 
L 329.178999 256.216849 
L 332.826803 257.530287 
L 336.474607 258.081989 
L 340.122411 258.467751 
L 343.770215 259.571388 
L 347.418018 259.523341 
L 351.065822 261.189521 
L 354.713626 261.195458 
L 358.36143 262.377172 
L 362.009234 262.634497 
L 365.657038 264.377952 
L 369.304842 262.748371 
L 372.952646 263.77974 
L 376.600449 265.049764 
L 380.248253 266.261112 
L 383.896057 266.462721 
L 387.543861 267.014275 
L 391.191665 267.808998 
L 394.839469 268.709463 
L 398.487273 268.161068 
" clip-path="url(#p655f30001b)" style="fill: none; stroke: #ff00ff; stroke-opacity: 0.3; stroke-width: 0.5; stroke-linecap: square"/>
   </g>
   <g id="line2d_55">
    <path d="M 73.832727 173.739832 
L 77.480531 172.19659 
L 81.128335 170.879818 
L 84.776139 169.276364 
L 88.423943 167.809525 
L 92.071747 166.321418 
L 95.719551 165.138626 
L 99.367354 163.956583 
L 103.015158 162.088968 
L 106.662962 161.085018 
L 110.310766 159.504253 
L 113.95857 157.731441 
L 117.606374 157.217785 
L 121.254178 155.879138 
L 124.901982 154.501468 
L 128.549785 153.189748 
L 132.197589 152.117419 
L 135.845393 151.260977 
L 139.493197 149.395817 
L 143.141001 148.419337 
L 146.788805 147.273719 
L 150.436609 145.913248 
L 154.084413 144.806484 
L 157.732217 143.441361 
L 161.38002 142.913027 
L 165.027824 141.844186 
L 168.675628 139.126125 
L 172.323432 140.126754 
L 175.971236 137.736929 
L 179.61904 136.261136 
L 183.266844 136.01973 
L 186.914648 134.436265 
L 190.562451 132.66207 
L 194.210255 131.811326 
L 197.858059 130.218157 
L 201.505863 129.365798 
L 205.153667 127.117318 
L 208.801471 126.15721 
L 212.449275 124.104382 
L 216.097079 123.158888 
L 219.744883 122.040559 
L 223.392686 120.043526 
L 227.04049 119.110952 
L 230.688294 117.659231 
L 234.336098 116.65103 
L 237.983902 114.982388 
L 241.631706 113.220714 
L 245.27951 112.242813 
L 248.927314 110.503673 
L 252.575117 108.724116 
L 256.222921 108.301412 
L 259.870725 106.641841 
L 263.518529 104.434722 
L 267.166333 103.073269 
L 270.814137 101.143542 
L 274.461941 99.915822 
L 278.109745 99.784336 
L 281.757549 98.511884 
L 285.405352 95.65824 
L 289.053156 95.203957 
L 292.70096 94.166671 
L 296.348764 92.336721 
L 299.996568 91.597061 
L 303.644372 90.098203 
L 307.292176 88.194189 
L 310.93998 86.08571 
L 314.587783 84.175287 
L 318.235587 83.060034 
L 321.883391 82.262797 
L 325.531195 81.970623 
L 329.178999 78.682363 
L 332.826803 77.896109 
L 336.474607 77.310805 
L 340.122411 75.942297 
L 343.770215 73.164681 
L 347.418018 73.432227 
L 351.065822 70.345537 
L 354.713626 69.05851 
L 358.36143 68.189638 
L 362.009234 67.124648 
L 365.657038 63.604788 
L 369.304842 64.751104 
L 372.952646 62.341045 
L 376.600449 60.702199 
L 380.248253 61.031224 
L 383.896057 58.566612 
L 387.543861 58.689544 
L 391.191665 56.301115 
L 394.839469 54.077069 
L 398.487273 53.568 
" clip-path="url(#p655f30001b)" style="fill: none; stroke: #6495ed; stroke-width: 2; stroke-linecap: square"/>
   </g>
   <g id="line2d_56">
    <path d="M 73.832727 173.200763 
L 77.480531 174.751299 
L 81.128335 176.157863 
L 84.776139 177.595691 
L 88.423943 179.022946 
L 92.071747 180.470667 
L 95.719551 181.689835 
L 99.367354 182.87071 
L 103.015158 184.364082 
L 106.662962 185.459828 
L 110.310766 186.764157 
L 113.95857 188.154568 
L 117.606374 188.98046 
L 121.254178 190.139251 
L 124.901982 191.300829 
L 128.549785 192.432693 
L 132.197589 193.442352 
L 135.845393 194.323509 
L 139.493197 195.544742 
L 143.141001 196.497544 
L 146.788805 197.4277 
L 150.436609 198.449141 
L 154.084413 199.358106 
L 157.732217 200.347903 
L 161.38002 201.004028 
L 165.027824 201.833216 
L 168.675628 203.287479 
L 172.323432 203.366921 
L 175.971236 204.645329 
L 179.61904 205.602132 
L 183.266844 206.092684 
L 186.914648 207.098255 
L 190.562451 208.100966 
L 194.210255 208.756467 
L 197.858059 209.64143 
L 201.505863 210.333921 
L 205.153667 211.467042 
L 208.801471 212.105664 
L 212.449275 213.182927 
L 216.097079 213.837215 
L 219.744883 214.570515 
L 223.392686 215.557285 
L 227.04049 216.18046 
L 230.688294 217.021203 
L 234.336098 217.667177 
L 237.983902 218.521323 
L 241.631706 219.362396 
L 245.27951 220.016364 
L 248.927314 220.843081 
L 252.575117 221.728904 
L 256.222921 222.190308 
L 259.870725 222.997022 
L 263.518529 223.910094 
L 267.166333 224.612259 
L 270.814137 225.513942 
L 274.461941 226.155975 
L 278.109745 226.496226 
L 281.757549 227.163612 
L 285.405352 228.224595 
L 289.053156 228.652561 
L 292.70096 229.258042 
L 296.348764 229.996757 
L 299.996568 230.460784 
L 303.644372 231.172805 
L 307.292176 231.943466 
L 310.93998 232.729036 
L 314.587783 233.495999 
L 318.235587 234.104666 
L 321.883391 234.59807 
L 325.531195 234.926311 
L 329.178999 236.029059 
L 332.826803 236.489967 
L 336.474607 236.907685 
L 340.122411 237.489284 
L 343.770215 238.435517 
L 347.418018 238.618138 
L 351.065822 239.618626 
L 354.713626 240.161177 
L 358.36143 240.657618 
L 362.009234 241.157893 
L 365.657038 242.186003 
L 369.304842 242.22138 
L 372.952646 243.012434 
L 376.600449 243.604098 
L 380.248253 243.827743 
L 383.896057 244.555106 
L 387.543861 244.806631 
L 391.191665 245.56438 
L 394.839469 246.259275 
L 398.487273 246.587301 
" clip-path="url(#p655f30001b)" style="fill: none; stroke: #dc143c; stroke-width: 2; stroke-linecap: square"/>
   </g>
   <g id="line2d_57">
    <path d="M 73.832727 183.718629 
L 77.480531 174.834142 
L 81.128335 166.838103 
L 84.776139 162.173747 
L 88.423943 159.064176 
L 92.071747 157.509391 
L 95.719551 155.510381 
L 99.367354 154.621932 
L 103.015158 154.844045 
L 106.662962 154.39982 
L 110.310766 153.733484 
L 113.95857 153.955596 
L 117.606374 153.289259 
L 121.254178 153.511371 
L 124.901982 154.177708 
L 128.549785 155.066157 
L 132.197589 155.288269 
L 135.845393 155.954606 
L 139.493197 156.39883 
L 143.141001 157.287279 
L 146.788805 157.731503 
L 150.436609 158.175727 
L 154.084413 158.39784 
L 157.732217 158.175727 
L 161.38002 158.175727 
L 165.027824 158.175727 
L 168.675628 158.39784 
L 172.323432 158.842064 
L 175.971236 158.39784 
L 179.61904 157.731503 
L 183.266844 157.731503 
L 186.914648 157.287279 
L 190.562451 157.065167 
L 194.210255 157.287279 
L 197.858059 157.731503 
L 201.505863 157.953615 
L 205.153667 158.175727 
L 208.801471 158.175727 
L 212.449275 158.619952 
L 216.097079 158.619952 
L 219.744883 159.064176 
L 223.392686 159.064176 
L 227.04049 159.508401 
L 230.688294 159.286288 
L 234.336098 159.730513 
L 237.983902 159.952625 
L 241.631706 160.396849 
L 245.27951 160.841074 
L 248.927314 161.285298 
L 252.575117 161.50741 
L 256.222921 161.729523 
L 259.870725 161.951635 
L 263.518529 162.173747 
L 267.166333 162.173747 
L 270.814137 162.173747 
L 274.461941 162.173747 
L 278.109745 162.173747 
L 281.757549 162.840083 
L 285.405352 162.840083 
L 289.053156 162.840083 
L 292.70096 162.840083 
L 296.348764 162.840083 
L 299.996568 162.840083 
L 303.644372 162.617971 
L 307.292176 162.395859 
L 310.93998 162.617971 
L 314.587783 162.840083 
L 318.235587 162.840083 
L 321.883391 162.840083 
L 325.531195 162.840083 
L 329.178999 162.840083 
L 332.826803 162.840083 
L 336.474607 162.840083 
L 340.122411 163.062196 
L 343.770215 163.062196 
L 347.418018 163.062196 
L 351.065822 163.284308 
L 354.713626 163.284308 
L 358.36143 163.284308 
L 362.009234 163.284308 
L 365.657038 163.284308 
L 369.304842 163.284308 
L 372.952646 163.284308 
L 376.600449 163.284308 
L 380.248253 163.284308 
L 383.896057 163.50642 
L 387.543861 163.50642 
L 391.191665 163.284308 
L 394.839469 163.50642 
L 398.487273 163.50642 
" clip-path="url(#p655f30001b)" style="fill: none; stroke: #ffff00; stroke-width: 3; stroke-linecap: square"/>
   </g>
   <g id="patch_3">
    <path d="M 57.6 307.584 
L 57.6 41.472 
" style="fill: none; stroke: #ffffff; stroke-linejoin: miter; stroke-linecap: square"/>
   </g>
   <g id="patch_4">
    <path d="M 414.72 307.584 
L 414.72 41.472 
" style="fill: none; stroke: #ffffff; stroke-linejoin: miter; stroke-linecap: square"/>
   </g>
   <g id="patch_5">
    <path d="M 57.6 307.584 
L 414.72 307.584 
" style="fill: none; stroke: #ffffff; stroke-linejoin: miter; stroke-linecap: square"/>
   </g>
   <g id="patch_6">
    <path d="M 57.6 41.472 
L 414.72 41.472 
" style="fill: none; stroke: #ffffff; stroke-linejoin: miter; stroke-linecap: square"/>
   </g>
  </g>
 </g>
 <defs>
  <clipPath id="p655f30001b">
   <rect x="57.6" y="41.472" width="357.12" height="266.112"/>
  </clipPath>
 </defs>
</svg>
