<?xml version="1.0" encoding="utf-8" standalone="no"?>
<!DOCTYPE svg PUBLIC "-//W3C//DTD SVG 1.1//EN"
  "http://www.w3.org/Graphics/SVG/1.1/DTD/svg11.dtd">
<svg xmlns:xlink="http://www.w3.org/1999/xlink" width="460.8pt" height="345.6pt" viewBox="0 0 460.8 345.6" xmlns="http://www.w3.org/2000/svg" version="1.1">
 <metadata>
  <rdf:RDF xmlns:dc="http://purl.org/dc/elements/1.1/" xmlns:cc="http://creativecommons.org/ns#" xmlns:rdf="http://www.w3.org/1999/02/22-rdf-syntax-ns#">
   <cc:Work>
    <dc:type rdf:resource="http://purl.org/dc/dcmitype/StillImage"/>
    <dc:date>2023-07-09T11:18:48.897557</dc:date>
    <dc:format>image/svg+xml</dc:format>
    <dc:creator>
     <cc:Agent>
      <dc:title>Matplotlib v3.7.1, https://matplotlib.org/</dc:title>
     </cc:Agent>
    </dc:creator>
   </cc:Work>
  </rdf:RDF>
 </metadata>
 <defs>
  <style type="text/css">*{stroke-linejoin: round; stroke-linecap: butt}</style>
 </defs>
 <g id="figure_1">
  <g id="patch_1">
   <path d="M 0 345.6 
L 460.8 345.6 
L 460.8 0 
L 0 0 
z
" style="fill: #ffffff"/>
  </g>
  <g id="axes_1">
   <g id="patch_2">
    <path d="M 57.6 307.584 
L 414.72 307.584 
L 414.72 41.472 
L 57.6 41.472 
z
" style="fill: #e5e5e5"/>
   </g>
   <g id="matplotlib.axis_1">
    <g id="xtick_1">
     <g id="line2d_1">
      <path d="M 70.184923 307.584 
L 70.184923 41.472 
" clip-path="url(#p84d3ea6699)" style="fill: none; stroke: #ffffff; stroke-width: 0.8; stroke-linecap: square"/>
     </g>
     <g id="line2d_2">
      <defs>
       <path id="mb65c77932d" d="M 0 0 
L 0 3.5 
" style="stroke: #555555; stroke-width: 0.8"/>
      </defs>
      <g>
       <use xlink:href="#mb65c77932d" x="70.184923" y="307.584" style="fill: #555555; stroke: #555555; stroke-width: 0.8"/>
      </g>
     </g>
     <g id="text_1">
      <!-- 0 -->
      <g style="fill: #555555" transform="translate(67.003673 322.182437) scale(0.1 -0.1)">
       <defs>
        <path id="DejaVuSans-30" d="M 2034 4250 
Q 1547 4250 1301 3770 
Q 1056 3291 1056 2328 
Q 1056 1369 1301 889 
Q 1547 409 2034 409 
Q 2525 409 2770 889 
Q 3016 1369 3016 2328 
Q 3016 3291 2770 3770 
Q 2525 4250 2034 4250 
z
M 2034 4750 
Q 2819 4750 3233 4129 
Q 3647 3509 3647 2328 
Q 3647 1150 3233 529 
Q 2819 -91 2034 -91 
Q 1250 -91 836 529 
Q 422 1150 422 2328 
Q 422 3509 836 4129 
Q 1250 4750 2034 4750 
z
" transform="scale(0.015625)"/>
       </defs>
       <use xlink:href="#DejaVuSans-30"/>
      </g>
     </g>
    </g>
    <g id="xtick_2">
     <g id="line2d_3">
      <path d="M 143.141001 307.584 
L 143.141001 41.472 
" clip-path="url(#p84d3ea6699)" style="fill: none; stroke: #ffffff; stroke-width: 0.8; stroke-linecap: square"/>
     </g>
     <g id="line2d_4">
      <g>
       <use xlink:href="#mb65c77932d" x="143.141001" y="307.584" style="fill: #555555; stroke: #555555; stroke-width: 0.8"/>
      </g>
     </g>
     <g id="text_2">
      <!-- 20 -->
      <g style="fill: #555555" transform="translate(136.778501 322.182437) scale(0.1 -0.1)">
       <defs>
        <path id="DejaVuSans-32" d="M 1228 531 
L 3431 531 
L 3431 0 
L 469 0 
L 469 531 
Q 828 903 1448 1529 
Q 2069 2156 2228 2338 
Q 2531 2678 2651 2914 
Q 2772 3150 2772 3378 
Q 2772 3750 2511 3984 
Q 2250 4219 1831 4219 
Q 1534 4219 1204 4116 
Q 875 4013 500 3803 
L 500 4441 
Q 881 4594 1212 4672 
Q 1544 4750 1819 4750 
Q 2544 4750 2975 4387 
Q 3406 4025 3406 3419 
Q 3406 3131 3298 2873 
Q 3191 2616 2906 2266 
Q 2828 2175 2409 1742 
Q 1991 1309 1228 531 
z
" transform="scale(0.015625)"/>
       </defs>
       <use xlink:href="#DejaVuSans-32"/>
       <use xlink:href="#DejaVuSans-30" x="63.623047"/>
      </g>
     </g>
    </g>
    <g id="xtick_3">
     <g id="line2d_5">
      <path d="M 216.097079 307.584 
L 216.097079 41.472 
" clip-path="url(#p84d3ea6699)" style="fill: none; stroke: #ffffff; stroke-width: 0.8; stroke-linecap: square"/>
     </g>
     <g id="line2d_6">
      <g>
       <use xlink:href="#mb65c77932d" x="216.097079" y="307.584" style="fill: #555555; stroke: #555555; stroke-width: 0.8"/>
      </g>
     </g>
     <g id="text_3">
      <!-- 40 -->
      <g style="fill: #555555" transform="translate(209.734579 322.182437) scale(0.1 -0.1)">
       <defs>
        <path id="DejaVuSans-34" d="M 2419 4116 
L 825 1625 
L 2419 1625 
L 2419 4116 
z
M 2253 4666 
L 3047 4666 
L 3047 1625 
L 3713 1625 
L 3713 1100 
L 3047 1100 
L 3047 0 
L 2419 0 
L 2419 1100 
L 313 1100 
L 313 1709 
L 2253 4666 
z
" transform="scale(0.015625)"/>
       </defs>
       <use xlink:href="#DejaVuSans-34"/>
       <use xlink:href="#DejaVuSans-30" x="63.623047"/>
      </g>
     </g>
    </g>
    <g id="xtick_4">
     <g id="line2d_7">
      <path d="M 289.053156 307.584 
L 289.053156 41.472 
" clip-path="url(#p84d3ea6699)" style="fill: none; stroke: #ffffff; stroke-width: 0.8; stroke-linecap: square"/>
     </g>
     <g id="line2d_8">
      <g>
       <use xlink:href="#mb65c77932d" x="289.053156" y="307.584" style="fill: #555555; stroke: #555555; stroke-width: 0.8"/>
      </g>
     </g>
     <g id="text_4">
      <!-- 60 -->
      <g style="fill: #555555" transform="translate(282.690656 322.182437) scale(0.1 -0.1)">
       <defs>
        <path id="DejaVuSans-36" d="M 2113 2584 
Q 1688 2584 1439 2293 
Q 1191 2003 1191 1497 
Q 1191 994 1439 701 
Q 1688 409 2113 409 
Q 2538 409 2786 701 
Q 3034 994 3034 1497 
Q 3034 2003 2786 2293 
Q 2538 2584 2113 2584 
z
M 3366 4563 
L 3366 3988 
Q 3128 4100 2886 4159 
Q 2644 4219 2406 4219 
Q 1781 4219 1451 3797 
Q 1122 3375 1075 2522 
Q 1259 2794 1537 2939 
Q 1816 3084 2150 3084 
Q 2853 3084 3261 2657 
Q 3669 2231 3669 1497 
Q 3669 778 3244 343 
Q 2819 -91 2113 -91 
Q 1303 -91 875 529 
Q 447 1150 447 2328 
Q 447 3434 972 4092 
Q 1497 4750 2381 4750 
Q 2619 4750 2861 4703 
Q 3103 4656 3366 4563 
z
" transform="scale(0.015625)"/>
       </defs>
       <use xlink:href="#DejaVuSans-36"/>
       <use xlink:href="#DejaVuSans-30" x="63.623047"/>
      </g>
     </g>
    </g>
    <g id="xtick_5">
     <g id="line2d_9">
      <path d="M 362.009234 307.584 
L 362.009234 41.472 
" clip-path="url(#p84d3ea6699)" style="fill: none; stroke: #ffffff; stroke-width: 0.8; stroke-linecap: square"/>
     </g>
     <g id="line2d_10">
      <g>
       <use xlink:href="#mb65c77932d" x="362.009234" y="307.584" style="fill: #555555; stroke: #555555; stroke-width: 0.8"/>
      </g>
     </g>
     <g id="text_5">
      <!-- 80 -->
      <g style="fill: #555555" transform="translate(355.646734 322.182437) scale(0.1 -0.1)">
       <defs>
        <path id="DejaVuSans-38" d="M 2034 2216 
Q 1584 2216 1326 1975 
Q 1069 1734 1069 1313 
Q 1069 891 1326 650 
Q 1584 409 2034 409 
Q 2484 409 2743 651 
Q 3003 894 3003 1313 
Q 3003 1734 2745 1975 
Q 2488 2216 2034 2216 
z
M 1403 2484 
Q 997 2584 770 2862 
Q 544 3141 544 3541 
Q 544 4100 942 4425 
Q 1341 4750 2034 4750 
Q 2731 4750 3128 4425 
Q 3525 4100 3525 3541 
Q 3525 3141 3298 2862 
Q 3072 2584 2669 2484 
Q 3125 2378 3379 2068 
Q 3634 1759 3634 1313 
Q 3634 634 3220 271 
Q 2806 -91 2034 -91 
Q 1263 -91 848 271 
Q 434 634 434 1313 
Q 434 1759 690 2068 
Q 947 2378 1403 2484 
z
M 1172 3481 
Q 1172 3119 1398 2916 
Q 1625 2713 2034 2713 
Q 2441 2713 2670 2916 
Q 2900 3119 2900 3481 
Q 2900 3844 2670 4047 
Q 2441 4250 2034 4250 
Q 1625 4250 1398 4047 
Q 1172 3844 1172 3481 
z
" transform="scale(0.015625)"/>
       </defs>
       <use xlink:href="#DejaVuSans-38"/>
       <use xlink:href="#DejaVuSans-30" x="63.623047"/>
      </g>
     </g>
    </g>
   </g>
   <g id="matplotlib.axis_2">
    <g id="ytick_1">
     <g id="line2d_11">
      <path d="M 57.6 288.388058 
L 414.72 288.388058 
" clip-path="url(#p84d3ea6699)" style="fill: none; stroke: #ffffff; stroke-width: 0.8; stroke-linecap: square"/>
     </g>
     <g id="line2d_12">
      <defs>
       <path id="m0201173388" d="M 0 0 
L -3.5 0 
" style="stroke: #555555; stroke-width: 0.8"/>
      </defs>
      <g>
       <use xlink:href="#m0201173388" x="57.6" y="288.388058" style="fill: #555555; stroke: #555555; stroke-width: 0.8"/>
      </g>
     </g>
     <g id="text_6">
      <!-- 0.2 -->
      <g style="fill: #555555" transform="translate(34.696875 292.187277) scale(0.1 -0.1)">
       <defs>
        <path id="DejaVuSans-2e" d="M 684 794 
L 1344 794 
L 1344 0 
L 684 0 
L 684 794 
z
" transform="scale(0.015625)"/>
       </defs>
       <use xlink:href="#DejaVuSans-30"/>
       <use xlink:href="#DejaVuSans-2e" x="63.623047"/>
       <use xlink:href="#DejaVuSans-32" x="95.410156"/>
      </g>
     </g>
    </g>
    <g id="ytick_2">
     <g id="line2d_13">
      <path d="M 57.6 239.767745 
L 414.72 239.767745 
" clip-path="url(#p84d3ea6699)" style="fill: none; stroke: #ffffff; stroke-width: 0.8; stroke-linecap: square"/>
     </g>
     <g id="line2d_14">
      <g>
       <use xlink:href="#m0201173388" x="57.6" y="239.767745" style="fill: #555555; stroke: #555555; stroke-width: 0.8"/>
      </g>
     </g>
     <g id="text_7">
      <!-- 0.4 -->
      <g style="fill: #555555" transform="translate(34.696875 243.566964) scale(0.1 -0.1)">
       <use xlink:href="#DejaVuSans-30"/>
       <use xlink:href="#DejaVuSans-2e" x="63.623047"/>
       <use xlink:href="#DejaVuSans-34" x="95.410156"/>
      </g>
     </g>
    </g>
    <g id="ytick_3">
     <g id="line2d_15">
      <path d="M 57.6 191.147432 
L 414.72 191.147432 
" clip-path="url(#p84d3ea6699)" style="fill: none; stroke: #ffffff; stroke-width: 0.8; stroke-linecap: square"/>
     </g>
     <g id="line2d_16">
      <g>
       <use xlink:href="#m0201173388" x="57.6" y="191.147432" style="fill: #555555; stroke: #555555; stroke-width: 0.8"/>
      </g>
     </g>
     <g id="text_8">
      <!-- 0.6 -->
      <g style="fill: #555555" transform="translate(34.696875 194.946651) scale(0.1 -0.1)">
       <use xlink:href="#DejaVuSans-30"/>
       <use xlink:href="#DejaVuSans-2e" x="63.623047"/>
       <use xlink:href="#DejaVuSans-36" x="95.410156"/>
      </g>
     </g>
    </g>
    <g id="ytick_4">
     <g id="line2d_17">
      <path d="M 57.6 142.52712 
L 414.72 142.52712 
" clip-path="url(#p84d3ea6699)" style="fill: none; stroke: #ffffff; stroke-width: 0.8; stroke-linecap: square"/>
     </g>
     <g id="line2d_18">
      <g>
       <use xlink:href="#m0201173388" x="57.6" y="142.52712" style="fill: #555555; stroke: #555555; stroke-width: 0.8"/>
      </g>
     </g>
     <g id="text_9">
      <!-- 0.8 -->
      <g style="fill: #555555" transform="translate(34.696875 146.326338) scale(0.1 -0.1)">
       <use xlink:href="#DejaVuSans-30"/>
       <use xlink:href="#DejaVuSans-2e" x="63.623047"/>
       <use xlink:href="#DejaVuSans-38" x="95.410156"/>
      </g>
     </g>
    </g>
    <g id="ytick_5">
     <g id="line2d_19">
      <path d="M 57.6 93.906807 
L 414.72 93.906807 
" clip-path="url(#p84d3ea6699)" style="fill: none; stroke: #ffffff; stroke-width: 0.8; stroke-linecap: square"/>
     </g>
     <g id="line2d_20">
      <g>
       <use xlink:href="#m0201173388" x="57.6" y="93.906807" style="fill: #555555; stroke: #555555; stroke-width: 0.8"/>
      </g>
     </g>
     <g id="text_10">
      <!-- 1.0 -->
      <g style="fill: #555555" transform="translate(34.696875 97.706026) scale(0.1 -0.1)">
       <defs>
        <path id="DejaVuSans-31" d="M 794 531 
L 1825 531 
L 1825 4091 
L 703 3866 
L 703 4441 
L 1819 4666 
L 2450 4666 
L 2450 531 
L 3481 531 
L 3481 0 
L 794 0 
L 794 531 
z
" transform="scale(0.015625)"/>
       </defs>
       <use xlink:href="#DejaVuSans-31"/>
       <use xlink:href="#DejaVuSans-2e" x="63.623047"/>
       <use xlink:href="#DejaVuSans-30" x="95.410156"/>
      </g>
     </g>
    </g>
    <g id="ytick_6">
     <g id="line2d_21">
      <path d="M 57.6 45.286494 
L 414.72 45.286494 
" clip-path="url(#p84d3ea6699)" style="fill: none; stroke: #ffffff; stroke-width: 0.8; stroke-linecap: square"/>
     </g>
     <g id="line2d_22">
      <g>
       <use xlink:href="#m0201173388" x="57.6" y="45.286494" style="fill: #555555; stroke: #555555; stroke-width: 0.8"/>
      </g>
     </g>
     <g id="text_11">
      <!-- 1.2 -->
      <g style="fill: #555555" transform="translate(34.696875 49.085713) scale(0.1 -0.1)">
       <use xlink:href="#DejaVuSans-31"/>
       <use xlink:href="#DejaVuSans-2e" x="63.623047"/>
       <use xlink:href="#DejaVuSans-32" x="95.410156"/>
      </g>
     </g>
    </g>
   </g>
   <g id="line2d_23">
    <path d="M 73.832727 171.422431 
L 77.480531 173.70982 
L 81.128335 176.57701 
L 84.776139 178.225738 
L 88.423943 179.720279 
L 92.071747 181.197648 
L 95.719551 184.207812 
L 99.367354 186.145296 
L 103.015158 188.510366 
L 106.662962 189.54824 
L 110.310766 192.129036 
L 113.95857 192.990451 
L 117.606374 194.716469 
L 121.254178 196.123996 
L 124.901982 197.780926 
L 128.549785 198.543041 
L 132.197589 200.171657 
L 135.845393 202.332592 
L 139.493197 204.602389 
L 143.141001 205.826054 
L 146.788805 206.681427 
L 150.436609 208.19363 
L 154.084413 209.713166 
L 157.732217 211.592342 
L 161.38002 212.237596 
L 165.027824 212.85526 
L 168.675628 214.249472 
L 172.323432 216.142769 
L 175.971236 216.779061 
L 179.61904 217.065223 
L 183.266844 219.454332 
L 186.914648 219.559268 
L 190.562451 222.108527 
L 194.210255 221.94729 
L 197.858059 223.594366 
L 201.505863 223.877471 
L 205.153667 225.536516 
L 208.801471 226.970017 
L 212.449275 228.796849 
L 216.097079 228.293641 
L 219.744883 230.249839 
L 223.392686 230.971832 
L 227.04049 232.419287 
L 230.688294 232.03344 
L 234.336098 233.737701 
L 237.983902 234.682216 
L 241.631706 235.710462 
L 245.27951 237.057726 
L 248.927314 238.064932 
L 252.575117 238.610697 
L 256.222921 239.789493 
L 259.870725 240.584522 
L 263.518529 241.400627 
L 267.166333 242.926799 
L 270.814137 243.139896 
L 274.461941 244.697026 
L 278.109745 245.304721 
L 281.757549 246.710814 
L 285.405352 247.298695 
L 289.053156 248.403382 
L 292.70096 248.478455 
L 296.348764 249.790501 
L 299.996568 250.730879 
L 303.644372 252.461722 
L 307.292176 253.286694 
L 310.93998 253.248071 
L 314.587783 253.560982 
L 318.235587 254.917194 
L 321.883391 254.941204 
L 325.531195 256.979191 
L 329.178999 257.915635 
L 332.826803 259.026799 
L 336.474607 259.227392 
L 340.122411 259.690064 
L 343.770215 260.986714 
L 347.418018 261.907988 
L 351.065822 262.173227 
L 354.713626 263.273241 
L 358.36143 263.771399 
L 362.009234 264.858496 
L 365.657038 265.261788 
L 369.304842 266.465667 
L 372.952646 266.242137 
L 376.600449 267.148862 
L 380.248253 268.457619 
L 383.896057 268.27703 
L 387.543861 269.712553 
L 391.191665 270.654199 
L 394.839469 271.112003 
L 398.487273 271.175954 
" clip-path="url(#p84d3ea6699)" style="fill: none; stroke: #ff00ff; stroke-opacity: 0.3; stroke-width: 0.5; stroke-linecap: square"/>
   </g>
   <g id="line2d_24">
    <path d="M 73.832727 163.781646 
L 77.480531 166.047908 
L 81.128335 165.803679 
L 84.776139 167.965933 
L 88.423943 167.622824 
L 92.071747 168.271396 
L 95.719551 169.155966 
L 99.367354 170.449516 
L 103.015158 171.542654 
L 106.662962 172.917319 
L 110.310766 172.916073 
L 113.95857 174.503175 
L 117.606374 174.963855 
L 121.254178 176.443789 
L 124.901982 177.033227 
L 128.549785 177.579949 
L 132.197589 178.585307 
L 135.845393 178.591683 
L 139.493197 180.502347 
L 143.141001 180.460369 
L 146.788805 181.219108 
L 150.436609 181.691554 
L 154.084413 183.105356 
L 157.732217 183.521247 
L 161.38002 184.634556 
L 165.027824 185.18364 
L 168.675628 186.677209 
L 172.323432 186.067195 
L 175.971236 187.72298 
L 179.61904 186.923176 
L 183.266844 189.058551 
L 186.914648 190.52869 
L 190.562451 192.069743 
L 194.210255 191.652881 
L 197.858059 192.341836 
L 201.505863 193.55117 
L 205.153667 194.230011 
L 208.801471 194.069882 
L 212.449275 195.878652 
L 216.097079 195.574565 
L 219.744883 196.929799 
L 223.392686 196.979789 
L 227.04049 198.650397 
L 230.688294 199.298665 
L 234.336098 198.576556 
L 237.983902 200.632062 
L 241.631706 201.470829 
L 245.27951 202.254462 
L 248.927314 203.788081 
L 252.575117 203.514525 
L 256.222921 203.051585 
L 259.870725 204.244139 
L 263.518529 205.696861 
L 267.166333 206.320148 
L 270.814137 206.009975 
L 274.461941 206.391627 
L 278.109745 207.060919 
L 281.757549 207.974614 
L 285.405352 207.453018 
L 289.053156 208.560647 
L 292.70096 208.791255 
L 296.348764 209.300201 
L 299.996568 210.978141 
L 303.644372 211.427896 
L 307.292176 212.608206 
L 310.93998 212.475739 
L 314.587783 212.641214 
L 318.235587 212.216122 
L 321.883391 213.927041 
L 325.531195 215.66481 
L 329.178999 216.236773 
L 332.826803 215.440969 
L 336.474607 216.6202 
L 340.122411 217.173195 
L 343.770215 217.884567 
L 347.418018 217.211637 
L 351.065822 218.264863 
L 354.713626 219.760338 
L 358.36143 221.035276 
L 362.009234 220.770319 
L 365.657038 220.219011 
L 369.304842 222.096544 
L 372.952646 222.063267 
L 376.600449 221.478169 
L 380.248253 224.297565 
L 383.896057 223.025946 
L 387.543861 224.125025 
L 391.191665 224.629016 
L 394.839469 225.331055 
L 398.487273 226.170605 
" clip-path="url(#p84d3ea6699)" style="fill: none; stroke: #ff00ff; stroke-opacity: 0.3; stroke-width: 0.5; stroke-linecap: square"/>
   </g>
   <g id="line2d_25">
    <path d="M 73.832727 182.223829 
L 77.480531 183.589408 
L 81.128335 184.589304 
L 84.776139 186.749833 
L 88.423943 186.825268 
L 92.071747 188.95089 
L 95.719551 189.312777 
L 99.367354 191.953258 
L 103.015158 192.187546 
L 106.662962 193.321315 
L 110.310766 194.844734 
L 113.95857 196.34607 
L 117.606374 198.297117 
L 121.254178 198.894061 
L 124.901982 199.077055 
L 128.549785 200.232689 
L 132.197589 201.685556 
L 135.845393 202.55539 
L 139.493197 204.082721 
L 143.141001 204.687489 
L 146.788805 206.845989 
L 150.436609 205.886622 
L 154.084413 207.605887 
L 157.732217 209.358755 
L 161.38002 210.937439 
L 165.027824 211.994309 
L 168.675628 212.919944 
L 172.323432 214.236503 
L 175.971236 214.393749 
L 179.61904 214.602361 
L 183.266844 217.218969 
L 186.914648 217.582581 
L 190.562451 219.375528 
L 194.210255 219.772408 
L 197.858059 221.859647 
L 201.505863 223.436222 
L 205.153667 223.947878 
L 208.801471 224.634986 
L 212.449275 225.689827 
L 216.097079 227.813486 
L 219.744883 228.144423 
L 223.392686 228.168107 
L 227.04049 231.060952 
L 230.688294 230.768508 
L 234.336098 233.034387 
L 237.983902 233.284179 
L 241.631706 233.418675 
L 245.27951 234.774365 
L 248.927314 235.807624 
L 252.575117 238.439874 
L 256.222921 237.785659 
L 259.870725 239.80307 
L 263.518529 241.078573 
L 267.166333 241.854214 
L 270.814137 242.412484 
L 274.461941 244.227818 
L 278.109745 245.296795 
L 281.757549 244.617476 
L 285.405352 245.743927 
L 289.053156 247.060045 
L 292.70096 249.211735 
L 296.348764 249.578425 
L 299.996568 252.011735 
L 303.644372 251.951631 
L 307.292176 253.087986 
L 310.93998 253.473615 
L 314.587783 254.71424 
L 318.235587 255.058174 
L 321.883391 256.704635 
L 325.531195 257.163779 
L 329.178999 258.555375 
L 332.826803 259.635879 
L 336.474607 260.010691 
L 340.122411 260.438457 
L 343.770215 262.554596 
L 347.418018 261.979525 
L 351.065822 262.922207 
L 354.713626 263.647742 
L 358.36143 265.433473 
L 362.009234 265.562557 
L 365.657038 266.453922 
L 369.304842 267.173205 
L 372.952646 268.394218 
L 376.600449 269.287055 
L 380.248253 269.746329 
L 383.896057 270.832904 
L 387.543861 271.293135 
L 391.191665 272.487413 
L 394.839469 272.880918 
L 398.487273 274.493378 
" clip-path="url(#p84d3ea6699)" style="fill: none; stroke: #ff00ff; stroke-opacity: 0.3; stroke-width: 0.5; stroke-linecap: square"/>
   </g>
   <g id="line2d_26">
    <path d="M 73.832727 175.260624 
L 77.480531 177.469535 
L 81.128335 180.898778 
L 84.776139 183.609216 
L 88.423943 184.716772 
L 92.071747 187.457031 
L 95.719551 189.91188 
L 99.367354 192.204485 
L 103.015158 194.138217 
L 106.662962 195.808492 
L 110.310766 197.456684 
L 113.95857 199.689068 
L 117.606374 202.493793 
L 121.254178 203.153927 
L 124.901982 204.833171 
L 128.549785 206.523239 
L 132.197589 209.208842 
L 135.845393 209.484557 
L 139.493197 211.167018 
L 143.141001 214.160996 
L 146.788805 214.411412 
L 150.436609 215.765566 
L 154.084413 217.45896 
L 157.732217 218.78998 
L 161.38002 220.951625 
L 165.027824 221.727607 
L 168.675628 224.095683 
L 172.323432 225.480904 
L 175.971236 226.366466 
L 179.61904 230.305923 
L 183.266844 231.111124 
L 186.914648 231.638523 
L 190.562451 232.931066 
L 194.210255 234.80888 
L 197.858059 234.927336 
L 201.505863 237.152005 
L 205.153667 239.248024 
L 208.801471 241.395867 
L 212.449275 241.87871 
L 216.097079 243.590505 
L 219.744883 245.576676 
L 223.392686 246.04718 
L 227.04049 246.78638 
L 230.688294 249.598603 
L 234.336098 250.610648 
L 237.983902 250.784427 
L 241.631706 253.30861 
L 245.27951 254.445531 
L 248.927314 256.059889 
L 252.575117 257.10955 
L 256.222921 258.392116 
L 259.870725 258.460806 
L 263.518529 260.808386 
L 267.166333 262.682129 
L 270.814137 262.800092 
L 274.461941 264.105285 
L 278.109745 265.345526 
L 281.757549 266.327838 
L 285.405352 266.193291 
L 289.053156 268.670462 
L 292.70096 269.238557 
L 296.348764 270.688584 
L 299.996568 272.337319 
L 303.644372 272.556502 
L 307.292176 273.574213 
L 310.93998 274.617492 
L 314.587783 275.595631 
L 318.235587 275.809923 
L 321.883391 276.340122 
L 325.531195 278.210518 
L 329.178999 279.659122 
L 332.826803 279.892135 
L 336.474607 281.219432 
L 340.122411 281.773931 
L 343.770215 282.583787 
L 347.418018 282.462643 
L 351.065822 283.124151 
L 354.713626 283.850682 
L 358.36143 285.707831 
L 362.009234 285.950512 
L 365.657038 287.057946 
L 369.304842 287.496264 
L 372.952646 287.729763 
L 376.600449 288.628453 
L 380.248253 290.128021 
L 383.896057 290.003364 
L 387.543861 290.245535 
L 391.191665 291.755804 
L 394.839469 292.276198 
L 398.487273 292.875271 
" clip-path="url(#p84d3ea6699)" style="fill: none; stroke: #ff00ff; stroke-opacity: 0.3; stroke-width: 0.5; stroke-linecap: square"/>
   </g>
   <g id="line2d_27">
    <path d="M 73.832727 158.750985 
L 77.480531 159.318311 
L 81.128335 159.963159 
L 84.776139 160.127649 
L 88.423943 159.703194 
L 92.071747 160.622511 
L 95.719551 160.354041 
L 99.367354 161.194952 
L 103.015158 161.457641 
L 106.662962 162.159188 
L 110.310766 162.32762 
L 113.95857 163.22026 
L 117.606374 163.337687 
L 121.254178 162.835595 
L 124.901982 163.675941 
L 128.549785 163.843533 
L 132.197589 165.163802 
L 135.845393 165.230731 
L 139.493197 165.629495 
L 143.141001 165.979646 
L 146.788805 166.066846 
L 150.436609 166.261606 
L 154.084413 166.356965 
L 157.732217 167.374683 
L 161.38002 167.142583 
L 165.027824 167.671771 
L 168.675628 167.575703 
L 172.323432 168.233418 
L 175.971236 167.740266 
L 179.61904 168.559819 
L 183.266844 169.72464 
L 186.914648 168.751 
L 190.562451 169.927441 
L 194.210255 170.196564 
L 197.858059 170.07279 
L 201.505863 170.657534 
L 205.153667 170.891996 
L 208.801471 171.2743 
L 212.449275 171.26933 
L 216.097079 171.911062 
L 219.744883 172.049717 
L 223.392686 172.663324 
L 227.04049 172.834929 
L 230.688294 172.955283 
L 234.336098 173.401661 
L 237.983902 174.118191 
L 241.631706 173.986187 
L 245.27951 173.93582 
L 248.927314 174.93886 
L 252.575117 174.381039 
L 256.222921 175.551264 
L 259.870725 176.108651 
L 263.518529 175.942842 
L 267.166333 175.850454 
L 270.814137 176.024522 
L 274.461941 177.595207 
L 278.109745 177.158059 
L 281.757549 177.210498 
L 285.405352 177.064584 
L 289.053156 177.849129 
L 292.70096 177.900496 
L 296.348764 178.600768 
L 299.996568 178.950339 
L 303.644372 179.299591 
L 307.292176 179.53927 
L 310.93998 180.209649 
L 314.587783 179.64467 
L 318.235587 180.604849 
L 321.883391 179.929253 
L 325.531195 179.926775 
L 329.178999 181.075686 
L 332.826803 181.259332 
L 336.474607 181.267302 
L 340.122411 181.856146 
L 343.770215 181.539887 
L 347.418018 181.855508 
L 351.065822 182.806891 
L 354.713626 182.670468 
L 358.36143 183.550981 
L 362.009234 183.674899 
L 365.657038 183.624923 
L 369.304842 184.750853 
L 372.952646 184.585276 
L 376.600449 185.087368 
L 380.248253 185.478221 
L 383.896057 185.980038 
L 387.543861 185.873406 
L 391.191665 186.015292 
L 394.839469 185.709162 
L 398.487273 186.415172 
" clip-path="url(#p84d3ea6699)" style="fill: none; stroke: #ff00ff; stroke-opacity: 0.3; stroke-width: 0.5; stroke-linecap: square"/>
   </g>
   <g id="line2d_28">
    <path d="M 73.832727 159.506319 
L 77.480531 161.231829 
L 81.128335 163.656293 
L 84.776139 164.131173 
L 88.423943 164.795945 
L 92.071747 166.830251 
L 95.719551 166.405782 
L 99.367354 168.498454 
L 103.015158 169.660464 
L 106.662962 172.397824 
L 110.310766 172.382899 
L 113.95857 174.365057 
L 117.606374 172.837378 
L 121.254178 175.096395 
L 124.901982 176.432342 
L 128.549785 178.746335 
L 132.197589 178.063842 
L 135.845393 179.411903 
L 139.493197 179.555615 
L 143.141001 181.267606 
L 146.788805 183.057669 
L 150.436609 183.406617 
L 154.084413 184.092602 
L 157.732217 185.176424 
L 161.38002 184.994227 
L 165.027824 185.685833 
L 168.675628 187.278036 
L 172.323432 187.62965 
L 175.971236 188.383912 
L 179.61904 188.230318 
L 183.266844 189.200466 
L 186.914648 190.536196 
L 190.562451 189.724061 
L 194.210255 192.790576 
L 197.858059 192.829395 
L 201.505863 193.589786 
L 205.153667 195.143546 
L 208.801471 195.260466 
L 212.449275 194.683707 
L 216.097079 195.375908 
L 219.744883 196.17135 
L 223.392686 197.072177 
L 227.04049 198.700214 
L 230.688294 199.280146 
L 234.336098 200.501188 
L 237.983902 199.402804 
L 241.631706 201.435908 
L 245.27951 200.087383 
L 248.927314 202.57398 
L 252.575117 203.66964 
L 256.222921 204.558166 
L 259.870725 203.444698 
L 263.518529 204.891175 
L 267.166333 205.247614 
L 270.814137 205.643712 
L 274.461941 206.1364 
L 278.109745 207.917089 
L 281.757549 208.123586 
L 285.405352 208.041413 
L 289.053156 210.100294 
L 292.70096 209.267787 
L 296.348764 209.303215 
L 299.996568 209.614605 
L 303.644372 211.270404 
L 307.292176 212.728502 
L 310.93998 212.288093 
L 314.587783 213.263878 
L 318.235587 214.553631 
L 321.883391 214.337064 
L 325.531195 215.594396 
L 329.178999 216.399061 
L 332.826803 216.290393 
L 336.474607 217.017363 
L 340.122411 216.238939 
L 343.770215 218.749437 
L 347.418018 217.800039 
L 351.065822 218.579818 
L 354.713626 219.509908 
L 358.36143 221.638689 
L 362.009234 220.544768 
L 365.657038 221.786907 
L 369.304842 222.139854 
L 372.952646 223.330597 
L 376.600449 223.263212 
L 380.248253 224.519863 
L 383.896057 224.100139 
L 387.543861 224.615381 
L 391.191665 225.077713 
L 394.839469 226.180936 
L 398.487273 225.758351 
" clip-path="url(#p84d3ea6699)" style="fill: none; stroke: #ff00ff; stroke-opacity: 0.3; stroke-width: 0.5; stroke-linecap: square"/>
   </g>
   <g id="line2d_29">
    <path d="M 73.832727 163.266194 
L 77.480531 163.525289 
L 81.128335 164.759502 
L 84.776139 163.462417 
L 88.423943 164.228531 
L 92.071747 164.622644 
L 95.719551 165.35036 
L 99.367354 165.519154 
L 103.015158 166.078018 
L 106.662962 166.821731 
L 110.310766 166.29602 
L 113.95857 166.226758 
L 117.606374 167.179808 
L 121.254178 166.013407 
L 124.901982 167.715546 
L 128.549785 168.381882 
L 132.197589 168.49118 
L 135.845393 169.400281 
L 139.493197 168.885757 
L 143.141001 169.583102 
L 146.788805 168.94944 
L 150.436609 169.722857 
L 154.084413 169.959189 
L 157.732217 169.536096 
L 161.38002 171.0017 
L 165.027824 171.326073 
L 168.675628 171.325652 
L 172.323432 172.797545 
L 175.971236 171.770364 
L 179.61904 172.505253 
L 183.266844 171.165596 
L 186.914648 172.439628 
L 190.562451 173.069768 
L 194.210255 173.098893 
L 197.858059 172.628577 
L 201.505863 173.178399 
L 205.153667 173.284857 
L 208.801471 173.268947 
L 212.449275 173.972856 
L 216.097079 173.8594 
L 219.744883 174.952379 
L 223.392686 176.198373 
L 227.04049 174.571901 
L 230.688294 176.262302 
L 234.336098 175.897387 
L 237.983902 176.502126 
L 241.631706 175.984413 
L 245.27951 177.193443 
L 248.927314 176.781913 
L 252.575117 176.828948 
L 256.222921 178.339876 
L 259.870725 177.757422 
L 263.518529 177.821106 
L 267.166333 179.134434 
L 270.814137 179.787599 
L 274.461941 180.17125 
L 278.109745 179.799553 
L 281.757549 179.445447 
L 285.405352 179.338671 
L 289.053156 180.409509 
L 292.70096 180.512866 
L 296.348764 180.097337 
L 299.996568 181.886995 
L 303.644372 181.452715 
L 307.292176 180.422811 
L 310.93998 181.085018 
L 314.587783 183.117542 
L 318.235587 182.76103 
L 321.883391 182.997724 
L 325.531195 182.666469 
L 329.178999 182.904249 
L 332.826803 183.765215 
L 336.474607 183.856488 
L 340.122411 184.425321 
L 343.770215 184.630267 
L 347.418018 184.705731 
L 351.065822 185.491726 
L 354.713626 185.080384 
L 358.36143 184.595738 
L 362.009234 184.911213 
L 365.657038 186.464438 
L 369.304842 186.155932 
L 372.952646 187.068091 
L 376.600449 186.442602 
L 380.248253 186.411535 
L 383.896057 186.749224 
L 387.543861 187.307132 
L 391.191665 187.531466 
L 394.839469 187.892904 
L 398.487273 187.911205 
" clip-path="url(#p84d3ea6699)" style="fill: none; stroke: #ff00ff; stroke-opacity: 0.3; stroke-width: 0.5; stroke-linecap: square"/>
   </g>
   <g id="line2d_30">
    <path d="M 73.832727 161.861158 
L 77.480531 165.070472 
L 81.128335 166.848059 
L 84.776139 170.482842 
L 88.423943 171.331347 
L 92.071747 175.401902 
L 95.719551 179.142056 
L 99.367354 181.105144 
L 103.015158 184.605996 
L 106.662962 184.176354 
L 110.310766 187.494632 
L 113.95857 189.584798 
L 117.606374 190.369329 
L 121.254178 193.749436 
L 124.901982 194.409687 
L 128.549785 196.608382 
L 132.197589 199.699313 
L 135.845393 199.678679 
L 139.493197 201.084816 
L 143.141001 202.584109 
L 146.788805 202.982076 
L 150.436609 207.199313 
L 154.084413 209.840272 
L 157.732217 207.228134 
L 161.38002 210.070923 
L 165.027824 210.05681 
L 168.675628 212.929261 
L 172.323432 215.484576 
L 175.971236 214.643078 
L 179.61904 216.398959 
L 183.266844 216.338667 
L 186.914648 218.818301 
L 190.562451 220.134651 
L 194.210255 220.228213 
L 197.858059 221.770635 
L 201.505863 221.792928 
L 205.153667 224.63471 
L 208.801471 226.598813 
L 212.449275 225.701231 
L 216.097079 227.865969 
L 219.744883 231.128497 
L 223.392686 232.057479 
L 227.04049 230.911068 
L 230.688294 233.780613 
L 234.336098 233.4488 
L 237.983902 233.572168 
L 241.631706 236.460985 
L 245.27951 237.403131 
L 248.927314 238.253787 
L 252.575117 238.22146 
L 256.222921 240.198937 
L 259.870725 240.330955 
L 263.518529 242.598978 
L 267.166333 242.896768 
L 270.814137 243.224235 
L 274.461941 244.246365 
L 278.109745 245.615451 
L 281.757549 248.165101 
L 285.405352 247.114215 
L 289.053156 248.713765 
L 292.70096 250.008734 
L 296.348764 250.50811 
L 299.996568 250.882321 
L 303.644372 251.627273 
L 307.292176 252.407544 
L 310.93998 254.594633 
L 314.587783 255.858847 
L 318.235587 256.052933 
L 321.883391 256.551251 
L 325.531195 258.406411 
L 329.178999 258.91343 
L 332.826803 259.744829 
L 336.474607 259.227978 
L 340.122411 259.762775 
L 343.770215 261.492792 
L 347.418018 261.568661 
L 351.065822 261.901387 
L 354.713626 263.673172 
L 358.36143 265.156084 
L 362.009234 265.173515 
L 365.657038 265.427097 
L 369.304842 266.442628 
L 372.952646 267.407624 
L 376.600449 268.412128 
L 380.248253 269.002305 
L 383.896057 269.162977 
L 387.543861 269.878673 
L 391.191665 270.170835 
L 394.839469 270.788992 
L 398.487273 272.418579 
" clip-path="url(#p84d3ea6699)" style="fill: none; stroke: #ff00ff; stroke-opacity: 0.3; stroke-width: 0.5; stroke-linecap: square"/>
   </g>
   <g id="line2d_31">
    <path d="M 73.832727 170.739619 
L 77.480531 170.690991 
L 81.128335 170.424303 
L 84.776139 171.994351 
L 88.423943 171.97292 
L 92.071747 172.371438 
L 95.719551 173.958178 
L 99.367354 173.237779 
L 103.015158 173.620981 
L 106.662962 174.667158 
L 110.310766 175.422579 
L 113.95857 175.08702 
L 117.606374 175.370082 
L 121.254178 175.560668 
L 124.901982 177.456335 
L 128.549785 177.028402 
L 132.197589 177.287628 
L 135.845393 177.893874 
L 139.493197 177.12847 
L 143.141001 178.778531 
L 146.788805 178.631443 
L 150.436609 179.632397 
L 154.084413 178.915331 
L 157.732217 180.952869 
L 161.38002 182.000814 
L 165.027824 181.770611 
L 168.675628 183.006071 
L 172.323432 182.212831 
L 175.971236 183.788776 
L 179.61904 183.687187 
L 183.266844 183.84378 
L 186.914648 184.735508 
L 190.562451 185.205737 
L 194.210255 184.582059 
L 197.858059 185.874189 
L 201.505863 185.998064 
L 205.153667 186.890574 
L 208.801471 187.2481 
L 212.449275 187.407084 
L 216.097079 188.818263 
L 219.744883 187.986104 
L 223.392686 189.681547 
L 227.04049 188.581888 
L 230.688294 189.851211 
L 234.336098 190.460993 
L 237.983902 190.691919 
L 241.631706 192.31116 
L 245.27951 191.158743 
L 248.927314 193.251618 
L 252.575117 192.597338 
L 256.222921 193.149913 
L 259.870725 193.17614 
L 263.518529 194.898868 
L 267.166333 195.756415 
L 270.814137 194.260904 
L 274.461941 195.003747 
L 278.109745 195.752328 
L 281.757549 197.101476 
L 285.405352 197.483026 
L 289.053156 198.411429 
L 292.70096 197.985945 
L 296.348764 198.574934 
L 299.996568 199.224288 
L 303.644372 199.486122 
L 307.292176 199.502713 
L 310.93998 200.910443 
L 314.587783 200.666316 
L 318.235587 202.153075 
L 321.883391 201.9532 
L 325.531195 202.687509 
L 329.178999 204.078562 
L 332.826803 203.603552 
L 336.474607 203.809121 
L 340.122411 203.98942 
L 343.770215 205.654666 
L 347.418018 205.402077 
L 351.065822 205.738534 
L 354.713626 205.820388 
L 358.36143 205.502435 
L 362.009234 207.584384 
L 365.657038 208.095229 
L 369.304842 207.87217 
L 372.952646 208.094055 
L 376.600449 207.457191 
L 380.248253 208.136771 
L 383.896057 207.935824 
L 387.543861 209.626675 
L 391.191665 210.167354 
L 394.839469 210.081023 
L 398.487273 210.437636 
" clip-path="url(#p84d3ea6699)" style="fill: none; stroke: #ff00ff; stroke-opacity: 0.3; stroke-width: 0.5; stroke-linecap: square"/>
   </g>
   <g id="line2d_32">
    <path d="M 73.832727 162.633503 
L 77.480531 163.25295 
L 81.128335 164.908619 
L 84.776139 167.293351 
L 88.423943 168.981521 
L 92.071747 171.005902 
L 95.719551 171.961053 
L 99.367354 175.357649 
L 103.015158 176.40471 
L 106.662962 178.744422 
L 110.310766 180.781366 
L 113.95857 182.782563 
L 117.606374 185.62754 
L 121.254178 186.573142 
L 124.901982 188.351164 
L 128.549785 190.997426 
L 132.197589 193.113949 
L 135.845393 194.605128 
L 139.493197 196.974776 
L 143.141001 198.214713 
L 146.788805 201.625988 
L 150.436609 201.970444 
L 154.084413 203.202266 
L 157.732217 204.926328 
L 161.38002 206.771888 
L 165.027824 208.330184 
L 168.675628 209.716614 
L 172.323432 211.129214 
L 175.971236 212.451627 
L 179.61904 214.109484 
L 183.266844 215.571473 
L 186.914648 216.8893 
L 190.562451 219.430264 
L 194.210255 219.878852 
L 197.858059 221.868312 
L 201.505863 222.972796 
L 205.153667 224.414166 
L 208.801471 225.800857 
L 212.449275 226.433895 
L 216.097079 228.265233 
L 219.744883 229.515255 
L 223.392686 231.14511 
L 227.04049 232.47737 
L 230.688294 233.427116 
L 234.336098 234.997105 
L 237.983902 236.167106 
L 241.631706 238.161891 
L 245.27951 239.243728 
L 248.927314 240.380358 
L 252.575117 240.840046 
L 256.222921 241.995578 
L 259.870725 243.324571 
L 263.518529 244.404371 
L 267.166333 245.509914 
L 270.814137 246.32433 
L 274.461941 248.436991 
L 278.109745 248.700861 
L 281.757549 250.268482 
L 285.405352 251.30077 
L 289.053156 252.535497 
L 292.70096 253.380278 
L 296.348764 255.315603 
L 299.996568 255.922596 
L 303.644372 257.029587 
L 307.292176 257.786544 
L 310.93998 258.491453 
L 314.587783 260.336332 
L 318.235587 261.328932 
L 321.883391 260.801308 
L 325.531195 263.147417 
L 329.178999 263.734747 
L 332.826803 265.411086 
L 336.474607 265.349938 
L 340.122411 267.222123 
L 343.770215 267.462483 
L 347.418018 267.866884 
L 351.065822 268.65987 
L 354.713626 269.869733 
L 358.36143 271.175606 
L 362.009234 272.097082 
L 365.657038 272.546924 
L 369.304842 273.151192 
L 372.952646 273.761141 
L 376.600449 274.763471 
L 380.248253 275.928125 
L 383.896057 276.40899 
L 387.543861 277.484929 
L 391.191665 278.648438 
L 394.839469 278.159999 
L 398.487273 279.498449 
" clip-path="url(#p84d3ea6699)" style="fill: none; stroke: #ff00ff; stroke-opacity: 0.3; stroke-width: 0.5; stroke-linecap: square"/>
   </g>
   <g id="line2d_33">
    <path d="M 73.832727 162.001204 
L 77.480531 161.845132 
L 81.128335 163.830042 
L 84.776139 164.488685 
L 88.423943 165.19823 
L 92.071747 168.126105 
L 95.719551 168.598913 
L 99.367354 169.203087 
L 103.015158 170.299211 
L 106.662962 171.929812 
L 110.310766 172.012521 
L 113.95857 173.449435 
L 117.606374 175.27949 
L 121.254178 176.054588 
L 124.901982 176.357502 
L 128.549785 178.006215 
L 132.197589 179.043959 
L 135.845393 180.733867 
L 139.493197 181.280574 
L 143.141001 181.373383 
L 146.788805 183.008027 
L 150.436609 184.046669 
L 154.084413 185.701396 
L 157.732217 186.405116 
L 161.38002 188.895104 
L 165.027824 188.635994 
L 168.675628 191.408594 
L 172.323432 192.324303 
L 175.971236 194.689966 
L 179.61904 195.04558 
L 183.266844 196.690019 
L 186.914648 198.430715 
L 190.562451 199.922024 
L 194.210255 201.075383 
L 197.858059 203.874398 
L 201.505863 205.163978 
L 205.153667 206.585677 
L 208.801471 208.419428 
L 212.449275 210.060809 
L 216.097079 211.774192 
L 219.744883 212.187185 
L 223.392686 213.122963 
L 227.04049 214.919358 
L 230.688294 215.796792 
L 234.336098 218.183183 
L 237.983902 218.830074 
L 241.631706 219.950795 
L 245.27951 219.73819 
L 248.927314 222.364876 
L 252.575117 223.538326 
L 256.222921 224.542496 
L 259.870725 225.544297 
L 263.518529 227.925806 
L 267.166333 227.931355 
L 270.814137 228.863481 
L 274.461941 230.5865 
L 278.109745 231.433142 
L 281.757549 232.827274 
L 285.405352 233.542912 
L 289.053156 234.068935 
L 292.70096 234.500353 
L 296.348764 236.683848 
L 299.996568 238.045138 
L 303.644372 238.288519 
L 307.292176 239.653454 
L 310.93998 239.209524 
L 314.587783 241.932149 
L 318.235587 242.364037 
L 321.883391 243.80679 
L 325.531195 245.691509 
L 329.178999 245.904831 
L 332.826803 247.002295 
L 336.474607 247.175863 
L 340.122411 248.058557 
L 343.770215 249.567029 
L 347.418018 250.580603 
L 351.065822 251.037791 
L 354.713626 252.615098 
L 358.36143 253.624521 
L 362.009234 255.09516 
L 365.657038 253.754322 
L 369.304842 255.068006 
L 372.952646 256.188987 
L 376.600449 257.304962 
L 380.248253 258.617733 
L 383.896057 258.763734 
L 387.543861 260.075164 
L 391.191665 261.135737 
L 394.839469 261.921731 
L 398.487273 262.8604 
" clip-path="url(#p84d3ea6699)" style="fill: none; stroke: #ff00ff; stroke-opacity: 0.3; stroke-width: 0.5; stroke-linecap: square"/>
   </g>
   <g id="line2d_34">
    <path d="M 73.832727 151.045763 
L 77.480531 153.755172 
L 81.128335 153.649598 
L 84.776139 151.472044 
L 88.423943 151.208224 
L 92.071747 153.188817 
L 95.719551 153.078504 
L 99.367354 152.784401 
L 103.015158 150.970647 
L 106.662962 152.050266 
L 110.310766 152.114761 
L 113.95857 152.786633 
L 117.606374 151.717823 
L 121.254178 152.619447 
L 124.901982 153.800279 
L 128.549785 149.525372 
L 132.197589 153.529157 
L 135.845393 154.840023 
L 139.493197 152.388013 
L 143.141001 153.936804 
L 146.788805 155.394583 
L 150.436609 154.496755 
L 154.084413 155.089207 
L 157.732217 152.577354 
L 161.38002 152.263342 
L 165.027824 156.210992 
L 168.675628 153.649685 
L 172.323432 154.253541 
L 175.971236 154.463167 
L 179.61904 153.470632 
L 183.266844 153.31204 
L 186.914648 155.251567 
L 190.562451 152.780619 
L 194.210255 155.615019 
L 197.858059 156.569924 
L 201.505863 154.513592 
L 205.153667 154.843138 
L 208.801471 156.811733 
L 212.449275 153.887089 
L 216.097079 157.870573 
L 219.744883 157.79353 
L 223.392686 156.26646 
L 227.04049 159.01634 
L 230.688294 157.40233 
L 234.336098 157.178952 
L 237.983902 159.360578 
L 241.631706 159.216809 
L 245.27951 157.471548 
L 248.927314 157.95305 
L 252.575117 156.95882 
L 256.222921 159.901301 
L 259.870725 156.88495 
L 263.518529 161.609844 
L 267.166333 158.935312 
L 270.814137 159.981952 
L 274.461941 160.827269 
L 278.109745 158.861471 
L 281.757549 161.61238 
L 285.405352 161.380975 
L 289.053156 160.455615 
L 292.70096 163.522362 
L 296.348764 161.230771 
L 299.996568 162.622621 
L 303.644372 163.957076 
L 307.292176 163.098385 
L 310.93998 160.08657 
L 314.587783 162.009289 
L 318.235587 165.120404 
L 321.883391 163.892349 
L 325.531195 164.621355 
L 329.178999 163.812799 
L 332.826803 165.003209 
L 336.474607 165.030958 
L 340.122411 165.284387 
L 343.770215 163.123207 
L 347.418018 165.454123 
L 351.065822 163.427829 
L 354.713626 164.445084 
L 358.36143 165.423448 
L 362.009234 164.960449 
L 365.657038 165.528471 
L 369.304842 165.8183 
L 372.952646 165.039072 
L 376.600449 168.276134 
L 380.248253 168.537722 
L 383.896057 165.050954 
L 387.543861 167.383682 
L 391.191665 165.147022 
L 394.839469 167.524263 
L 398.487273 167.106836 
" clip-path="url(#p84d3ea6699)" style="fill: none; stroke: #ff00ff; stroke-opacity: 0.3; stroke-width: 0.5; stroke-linecap: square"/>
   </g>
   <g id="line2d_35">
    <path d="M 73.832727 167.278702 
L 77.480531 168.802946 
L 81.128335 169.722205 
L 84.776139 170.94842 
L 88.423943 172.002581 
L 92.071747 172.671453 
L 95.719551 174.019123 
L 99.367354 174.825374 
L 103.015158 175.611934 
L 106.662962 175.660939 
L 110.310766 176.664501 
L 113.95857 177.385189 
L 117.606374 178.287814 
L 121.254178 179.288593 
L 124.901982 179.439115 
L 128.549785 180.387021 
L 132.197589 180.459007 
L 135.845393 180.916499 
L 139.493197 182.035647 
L 143.141001 183.343252 
L 146.788805 183.285539 
L 150.436609 184.454011 
L 154.084413 184.500292 
L 157.732217 185.671532 
L 161.38002 186.758672 
L 165.027824 186.313873 
L 168.675628 186.866158 
L 172.323432 188.456492 
L 175.971236 188.655019 
L 179.61904 190.020265 
L 183.266844 190.696861 
L 186.914648 190.554265 
L 190.562451 191.555291 
L 194.210255 192.467652 
L 197.858059 193.304652 
L 201.505863 193.780314 
L 205.153667 193.931155 
L 208.801471 194.730451 
L 212.449275 195.756704 
L 216.097079 197.193792 
L 219.744883 197.840552 
L 223.392686 197.682351 
L 227.04049 198.957266 
L 230.688294 200.437273 
L 234.336098 200.737723 
L 237.983902 201.994149 
L 241.631706 202.444527 
L 245.27951 202.566503 
L 248.927314 205.222923 
L 252.575117 206.035231 
L 256.222921 206.545366 
L 259.870725 206.27507 
L 263.518529 208.393577 
L 267.166333 208.637212 
L 270.814137 209.842358 
L 274.461941 211.047635 
L 278.109745 211.709175 
L 281.757549 212.938114 
L 285.405352 215.054405 
L 289.053156 215.874009 
L 292.70096 217.382083 
L 296.348764 218.016157 
L 299.996568 219.052553 
L 303.644372 220.904576 
L 307.292176 221.438814 
L 310.93998 223.504934 
L 314.587783 223.711438 
L 318.235587 224.324052 
L 321.883391 226.107545 
L 325.531195 227.389915 
L 329.178999 228.383559 
L 332.826803 229.565217 
L 336.474607 229.589487 
L 340.122411 230.633353 
L 343.770215 232.711811 
L 347.418018 232.229613 
L 351.065822 233.936366 
L 354.713626 234.556921 
L 358.36143 235.90099 
L 362.009234 237.029282 
L 365.657038 238.173136 
L 369.304842 238.959934 
L 372.952646 239.379427 
L 376.600449 240.311408 
L 380.248253 241.871044 
L 383.896057 241.357331 
L 387.543861 243.638648 
L 391.191665 244.222008 
L 394.839469 244.502324 
L 398.487273 245.845907 
" clip-path="url(#p84d3ea6699)" style="fill: none; stroke: #ff00ff; stroke-opacity: 0.3; stroke-width: 0.5; stroke-linecap: square"/>
   </g>
   <g id="line2d_36">
    <path d="M 73.832727 169.656117 
L 77.480531 168.580902 
L 81.128335 169.496727 
L 84.776139 171.013973 
L 88.423943 170.659649 
L 92.071747 169.450083 
L 95.719551 171.250971 
L 99.367354 171.2297 
L 103.015158 172.279397 
L 106.662962 172.137193 
L 110.310766 171.886951 
L 113.95857 172.236203 
L 117.606374 171.689365 
L 121.254178 172.115284 
L 124.901982 173.212465 
L 128.549785 172.231552 
L 132.197589 172.31229 
L 135.845393 173.280713 
L 139.493197 173.274758 
L 143.141001 173.495121 
L 146.788805 174.366578 
L 150.436609 174.605967 
L 154.084413 175.435997 
L 157.732217 174.28271 
L 161.38002 175.344811 
L 165.027824 174.572452 
L 168.675628 173.525623 
L 172.323432 175.937422 
L 175.971236 176.163495 
L 179.61904 175.519082 
L 183.266844 176.142775 
L 186.914648 176.668515 
L 190.562451 177.01881 
L 194.210255 176.897732 
L 197.858059 176.682903 
L 201.505863 177.555229 
L 205.153667 178.165286 
L 208.801471 177.792155 
L 212.449275 177.95295 
L 216.097079 178.791485 
L 219.744883 179.103947 
L 223.392686 179.247804 
L 227.04049 180.140879 
L 230.688294 180.245714 
L 234.336098 181.250203 
L 237.983902 179.496524 
L 241.631706 181.471944 
L 245.27951 181.258564 
L 248.927314 181.544669 
L 252.575117 180.041869 
L 256.222921 183.635515 
L 259.870725 181.904238 
L 263.518529 182.933852 
L 267.166333 182.646603 
L 270.814137 183.640167 
L 274.461941 183.260123 
L 278.109745 183.506844 
L 281.757549 184.074518 
L 285.405352 184.345061 
L 289.053156 184.166066 
L 292.70096 184.708745 
L 296.348764 184.65006 
L 299.996568 186.50301 
L 303.644372 185.950971 
L 307.292176 187.063309 
L 310.93998 186.284023 
L 314.587783 186.718955 
L 318.235587 187.101664 
L 321.883391 187.286252 
L 325.531195 187.678815 
L 329.178999 188.66096 
L 332.826803 188.535709 
L 336.474607 189.137159 
L 340.122411 188.125149 
L 343.770215 188.799832 
L 347.418018 190.204737 
L 351.065822 188.817858 
L 354.713626 190.329148 
L 358.36143 189.663377 
L 362.009234 190.834863 
L 365.657038 191.114505 
L 369.304842 190.667113 
L 372.952646 191.081816 
L 376.600449 192.245144 
L 380.248253 191.202691 
L 383.896057 192.909003 
L 387.543861 193.399373 
L 391.191665 192.635635 
L 394.839469 192.189995 
L 398.487273 193.832188 
" clip-path="url(#p84d3ea6699)" style="fill: none; stroke: #ff00ff; stroke-opacity: 0.3; stroke-width: 0.5; stroke-linecap: square"/>
   </g>
   <g id="line2d_37">
    <path d="M 73.832727 161.115446 
L 77.480531 163.965219 
L 81.128335 165.404191 
L 84.776139 168.324139 
L 88.423943 167.867038 
L 92.071747 170.68634 
L 95.719551 169.39166 
L 99.367354 172.550635 
L 103.015158 173.179747 
L 106.662962 174.781354 
L 110.310766 176.448368 
L 113.95857 177.381972 
L 117.606374 178.470083 
L 121.254178 179.046379 
L 124.901982 180.232137 
L 128.549785 181.884097 
L 132.197589 182.308262 
L 135.845393 184.377721 
L 139.493197 185.218126 
L 143.141001 186.683063 
L 146.788805 188.006506 
L 150.436609 188.833434 
L 154.084413 190.392339 
L 157.732217 191.105319 
L 161.38002 191.894327 
L 165.027824 192.563909 
L 168.675628 194.889682 
L 172.323432 195.337263 
L 175.971236 196.204604 
L 179.61904 196.697698 
L 183.266844 197.934824 
L 186.914648 198.858358 
L 190.562451 200.564452 
L 194.210255 200.979648 
L 197.858059 202.54003 
L 201.505863 202.714895 
L 205.153667 204.787267 
L 208.801471 205.545571 
L 212.449275 207.682018 
L 216.097079 207.637534 
L 219.744883 208.567747 
L 223.392686 209.892798 
L 227.04049 210.962014 
L 230.688294 211.852583 
L 234.336098 212.668977 
L 237.983902 214.076606 
L 241.631706 214.406485 
L 245.27951 215.612132 
L 248.927314 217.102354 
L 252.575117 218.00032 
L 256.222921 219.476153 
L 259.870725 220.521555 
L 263.518529 219.815009 
L 267.166333 221.565689 
L 270.814137 222.902672 
L 274.461941 223.986059 
L 278.109745 223.858576 
L 281.757549 225.936432 
L 285.405352 227.145687 
L 289.053156 227.799735 
L 292.70096 229.127684 
L 296.348764 229.596885 
L 299.996568 229.953852 
L 303.644372 230.671636 
L 307.292176 232.840764 
L 310.93998 233.62431 
L 314.587783 235.213267 
L 318.235587 236.06009 
L 321.883391 236.254879 
L 325.531195 237.215594 
L 329.178999 238.296895 
L 332.826803 239.61578 
L 336.474607 239.798977 
L 340.122411 240.667101 
L 343.770215 243.037495 
L 347.418018 243.684031 
L 351.065822 243.66949 
L 354.713626 246.04697 
L 358.36143 246.745916 
L 362.009234 247.084149 
L 365.657038 248.293026 
L 369.304842 249.652165 
L 372.952646 250.424814 
L 376.600449 250.924682 
L 380.248253 252.167807 
L 383.896057 252.682288 
L 387.543861 253.963971 
L 391.191665 255.198155 
L 394.839469 254.245496 
L 398.487273 257.227651 
" clip-path="url(#p84d3ea6699)" style="fill: none; stroke: #ff00ff; stroke-opacity: 0.3; stroke-width: 0.5; stroke-linecap: square"/>
   </g>
   <g id="line2d_38">
    <path d="M 73.832727 165.224384 
L 77.480531 167.829582 
L 81.128335 170.102205 
L 84.776139 174.783701 
L 88.423943 177.330533 
L 92.071747 182.434079 
L 95.719551 186.729779 
L 99.367354 187.911234 
L 103.015158 193.019895 
L 106.662962 196.709855 
L 110.310766 199.455838 
L 113.95857 201.822298 
L 117.606374 205.719016 
L 121.254178 207.982236 
L 124.901982 210.279275 
L 128.549785 214.023109 
L 132.197589 216.226398 
L 135.845393 219.006816 
L 139.493197 220.432601 
L 143.141001 221.895879 
L 146.788805 224.873542 
L 150.436609 226.818286 
L 154.084413 227.717201 
L 157.732217 228.016172 
L 161.38002 231.679551 
L 165.027824 232.888451 
L 168.675628 233.758342 
L 172.323432 236.287431 
L 175.971236 236.740373 
L 179.61904 238.700107 
L 183.266844 238.846789 
L 186.914648 241.304863 
L 190.562451 243.553454 
L 194.210255 244.315649 
L 197.858059 244.367994 
L 201.505863 247.13903 
L 205.153667 247.890342 
L 208.801471 249.937755 
L 212.449275 250.553652 
L 216.097079 252.25871 
L 219.744883 253.66247 
L 223.392686 255.240458 
L 227.04049 255.566577 
L 230.688294 257.54843 
L 234.336098 259.237991 
L 237.983902 259.659773 
L 241.631706 261.638409 
L 245.27951 262.533209 
L 248.927314 264.127773 
L 252.575117 264.989014 
L 256.222921 265.129944 
L 259.870725 266.362773 
L 263.518529 267.127772 
L 267.166333 268.696341 
L 270.814137 268.996212 
L 274.461941 270.394553 
L 278.109745 271.54095 
L 281.757549 273.130406 
L 285.405352 272.479285 
L 289.053156 274.147038 
L 292.70096 274.350304 
L 296.348764 276.377724 
L 299.996568 277.090551 
L 303.644372 278.400996 
L 307.292176 278.98921 
L 310.93998 279.906201 
L 314.587783 281.663553 
L 318.235587 280.893864 
L 321.883391 281.470054 
L 325.531195 282.998892 
L 329.178999 283.169494 
L 332.826803 284.623245 
L 336.474607 285.816636 
L 340.122411 286.304159 
L 343.770215 286.412232 
L 347.418018 287.051545 
L 351.065822 287.557814 
L 354.713626 288.790122 
L 358.36143 289.54927 
L 362.009234 290.555117 
L 365.657038 290.495165 
L 369.304842 291.55665 
L 372.952646 291.755272 
L 376.600449 292.335943 
L 380.248253 293.525502 
L 383.896057 292.955129 
L 387.543861 293.805829 
L 391.191665 295.029595 
L 394.839469 295.283695 
L 398.487273 295.488 
" clip-path="url(#p84d3ea6699)" style="fill: none; stroke: #ff00ff; stroke-opacity: 0.3; stroke-width: 0.5; stroke-linecap: square"/>
   </g>
   <g id="line2d_39">
    <path d="M 73.832727 158.548226 
L 77.480531 160.977385 
L 81.128335 161.338519 
L 84.776139 163.088097 
L 88.423943 165.31499 
L 92.071747 165.560016 
L 95.719551 166.086364 
L 99.367354 168.116426 
L 103.015158 170.178727 
L 106.662962 171.258404 
L 110.310766 172.047848 
L 113.95857 173.429047 
L 117.606374 175.500303 
L 121.254178 175.733128 
L 124.901982 176.747572 
L 128.549785 178.290856 
L 132.197589 178.337369 
L 135.845393 179.512318 
L 139.493197 180.921918 
L 143.141001 181.646983 
L 146.788805 183.464244 
L 150.436609 183.935806 
L 154.084413 183.746277 
L 157.732217 186.397451 
L 161.38002 187.153017 
L 165.027824 187.268618 
L 168.675628 188.727078 
L 172.323432 188.989013 
L 175.971236 190.269464 
L 179.61904 190.76308 
L 183.266844 191.797824 
L 186.914648 193.667191 
L 190.562451 193.867834 
L 194.210255 193.919635 
L 197.858059 194.983606 
L 201.505863 196.344911 
L 205.153667 197.624825 
L 208.801471 197.877922 
L 212.449275 198.864733 
L 216.097079 199.836142 
L 219.744883 200.247498 
L 223.392686 201.625263 
L 227.04049 202.258765 
L 230.688294 202.995494 
L 234.336098 203.636139 
L 237.983902 204.357943 
L 241.631706 205.824301 
L 245.27951 205.944959 
L 248.927314 206.202721 
L 252.575117 207.348154 
L 256.222921 208.169562 
L 259.870725 209.173023 
L 263.518529 209.431872 
L 267.166333 211.129561 
L 270.814137 210.988965 
L 274.461941 212.684655 
L 278.109745 213.004652 
L 281.757549 213.713589 
L 285.405352 213.73899 
L 289.053156 215.237689 
L 292.70096 215.878921 
L 296.348764 216.523986 
L 299.996568 218.107473 
L 303.644372 219.22844 
L 307.292176 220.457466 
L 310.93998 221.313534 
L 314.587783 221.377507 
L 318.235587 220.94054 
L 321.883391 222.512312 
L 325.531195 223.456023 
L 329.178999 224.295188 
L 332.826803 225.483896 
L 336.474607 226.105081 
L 340.122411 227.133037 
L 343.770215 227.500843 
L 347.418018 228.455885 
L 351.065822 228.961962 
L 354.713626 228.937163 
L 358.36143 231.202817 
L 362.009234 231.680406 
L 365.657038 232.184774 
L 369.304842 232.605114 
L 372.952646 233.736136 
L 376.600449 234.80044 
L 380.248253 235.740514 
L 383.896057 237.04504 
L 387.543861 237.17829 
L 391.191665 238.133745 
L 394.839469 238.571407 
L 398.487273 239.425534 
" clip-path="url(#p84d3ea6699)" style="fill: none; stroke: #ff00ff; stroke-opacity: 0.3; stroke-width: 0.5; stroke-linecap: square"/>
   </g>
   <g id="line2d_40">
    <path d="M 73.832727 152.223146 
L 77.480531 153.547531 
L 81.128335 155.415145 
L 84.776139 156.576386 
L 88.423943 156.595498 
L 92.071747 157.437439 
L 95.719551 159.187945 
L 99.367354 158.971537 
L 103.015158 160.150659 
L 106.662962 160.815575 
L 110.310766 163.042092 
L 113.95857 161.454555 
L 117.606374 162.657238 
L 121.254178 163.08462 
L 124.901982 165.431765 
L 128.549785 165.053823 
L 132.197589 166.787796 
L 135.845393 167.301828 
L 139.493197 167.431484 
L 143.141001 167.307435 
L 146.788805 168.934298 
L 150.436609 169.958827 
L 154.084413 169.769892 
L 157.732217 170.291053 
L 161.38002 171.578474 
L 165.027824 172.707649 
L 168.675628 173.183616 
L 172.323432 174.387386 
L 175.971236 172.651891 
L 179.61904 173.505424 
L 183.266844 174.121292 
L 186.914648 175.489639 
L 190.562451 175.58336 
L 194.210255 175.589721 
L 197.858059 177.777027 
L 201.505863 177.198993 
L 205.153667 176.986888 
L 208.801471 178.477227 
L 212.449275 179.114597 
L 216.097079 179.113554 
L 219.744883 181.354981 
L 223.392686 182.622072 
L 227.04049 182.012029 
L 230.688294 182.241144 
L 234.336098 182.808731 
L 237.983902 181.994496 
L 241.631706 184.056594 
L 245.27951 184.906243 
L 248.927314 184.56257 
L 252.575117 186.321683 
L 256.222921 185.616818 
L 259.870725 186.818095 
L 263.518529 187.960022 
L 267.166333 188.315519 
L 270.814137 187.552389 
L 274.461941 189.541067 
L 278.109745 187.916639 
L 281.757549 190.592576 
L 285.405352 191.048721 
L 289.053156 191.26523 
L 292.70096 192.648053 
L 296.348764 192.442527 
L 299.996568 193.607217 
L 303.644372 194.257151 
L 307.292176 194.535981 
L 310.93998 194.533402 
L 314.587783 194.661624 
L 318.235587 195.143691 
L 321.883391 196.130662 
L 325.531195 197.797995 
L 329.178999 197.59402 
L 332.826803 198.594988 
L 336.474607 198.739699 
L 340.122411 199.211942 
L 343.770215 201.089482 
L 347.418018 200.530777 
L 351.065822 200.128042 
L 354.713626 201.167481 
L 358.36143 201.825616 
L 362.009234 202.066976 
L 365.657038 203.546055 
L 369.304842 204.051611 
L 372.952646 204.531765 
L 376.600449 204.353727 
L 380.248253 205.076922 
L 383.896057 204.730727 
L 387.543861 204.651438 
L 391.191665 205.973185 
L 394.839469 206.962663 
L 398.487273 207.634636 
" clip-path="url(#p84d3ea6699)" style="fill: none; stroke: #ff00ff; stroke-opacity: 0.3; stroke-width: 0.5; stroke-linecap: square"/>
   </g>
   <g id="line2d_41">
    <path d="M 73.832727 161.873388 
L 77.480531 169.582942 
L 81.128335 173.895726 
L 84.776139 176.909077 
L 88.423943 181.080555 
L 92.071747 183.745799 
L 95.719551 186.489173 
L 99.367354 190.684443 
L 103.015158 193.283627 
L 106.662962 195.724595 
L 110.310766 199.816884 
L 113.95857 204.706761 
L 117.606374 204.752332 
L 121.254178 209.146462 
L 124.901982 209.453665 
L 128.549785 213.2634 
L 132.197589 213.725253 
L 135.845393 216.749276 
L 139.493197 217.531149 
L 143.141001 221.552198 
L 146.788805 221.311114 
L 150.436609 224.927749 
L 154.084413 226.801173 
L 157.732217 227.882249 
L 161.38002 230.198762 
L 165.027824 230.083654 
L 168.675628 232.238684 
L 172.323432 234.138371 
L 175.971236 234.718311 
L 179.61904 236.437707 
L 183.266844 238.906532 
L 186.914648 239.642681 
L 190.562451 240.598614 
L 194.210255 241.561596 
L 197.858059 244.644818 
L 201.505863 245.058087 
L 205.153667 246.944103 
L 208.801471 248.150742 
L 212.449275 248.766197 
L 216.097079 249.392635 
L 219.744883 252.129314 
L 223.392686 253.267952 
L 227.04049 252.836512 
L 230.688294 254.063596 
L 234.336098 256.181445 
L 237.983902 255.962299 
L 241.631706 257.915867 
L 245.27951 259.498253 
L 248.927314 260.226555 
L 252.575117 260.499742 
L 256.222921 261.45256 
L 259.870725 262.461773 
L 263.518529 263.264706 
L 267.166333 264.416674 
L 270.814137 265.470589 
L 274.461941 266.449677 
L 278.109745 266.55257 
L 281.757549 269.014425 
L 285.405352 268.947598 
L 289.053156 269.497768 
L 292.70096 271.289237 
L 296.348764 271.985821 
L 299.996568 272.511829 
L 303.644372 273.431284 
L 307.292176 273.85024 
L 310.93998 274.36901 
L 314.587783 276.643209 
L 318.235587 276.51982 
L 321.883391 277.019224 
L 325.531195 279.306225 
L 329.178999 278.799645 
L 332.826803 279.096153 
L 336.474607 280.355753 
L 340.122411 280.697716 
L 343.770215 282.432685 
L 347.418018 281.847692 
L 351.065822 281.901917 
L 354.713626 282.805686 
L 358.36143 285.191879 
L 362.009234 284.665997 
L 365.657038 285.521268 
L 369.304842 286.546696 
L 372.952646 286.168514 
L 376.600449 287.313592 
L 380.248253 288.181093 
L 383.896057 288.858685 
L 387.543861 288.944172 
L 391.191665 290.530622 
L 394.839469 289.514519 
L 398.487273 290.474252 
" clip-path="url(#p84d3ea6699)" style="fill: none; stroke: #ff00ff; stroke-opacity: 0.3; stroke-width: 0.5; stroke-linecap: square"/>
   </g>
   <g id="line2d_42">
    <path d="M 73.832727 147.315404 
L 77.480531 148.041164 
L 81.128335 147.731281 
L 84.776139 150.104595 
L 88.423943 151.188359 
L 92.071747 151.501763 
L 95.719551 152.282251 
L 99.367354 153.618213 
L 103.015158 155.068066 
L 106.662962 154.880464 
L 110.310766 156.383916 
L 113.95857 157.720472 
L 117.606374 158.008388 
L 121.254178 158.995011 
L 124.901982 159.529082 
L 128.549785 161.218209 
L 132.197589 162.442163 
L 135.845393 164.018441 
L 139.493197 164.75672 
L 143.141001 164.555454 
L 146.788805 164.064577 
L 150.436609 165.675284 
L 154.084413 167.008058 
L 157.732217 166.518021 
L 161.38002 168.048511 
L 165.027824 169.764704 
L 168.675628 169.977722 
L 172.323432 169.539574 
L 175.971236 171.374382 
L 179.61904 170.955549 
L 183.266844 171.971456 
L 186.914648 173.144783 
L 190.562451 173.963988 
L 194.210255 174.510261 
L 197.858059 174.321529 
L 201.505863 175.938277 
L 205.153667 175.888041 
L 208.801471 176.683845 
L 212.449275 176.351227 
L 216.097079 178.211466 
L 219.744883 179.673795 
L 223.392686 179.400094 
L 227.04049 181.31948 
L 230.688294 180.305717 
L 234.336098 181.676702 
L 237.983902 181.64052 
L 241.631706 184.330585 
L 245.27951 183.868645 
L 248.927314 185.873276 
L 252.575117 185.080471 
L 256.222921 185.863031 
L 259.870725 186.382454 
L 263.518529 187.464001 
L 267.166333 188.482675 
L 270.814137 187.812485 
L 274.461941 189.692328 
L 278.109745 190.436664 
L 281.757549 191.3543 
L 285.405352 191.099523 
L 289.053156 191.910904 
L 292.70096 193.418137 
L 296.348764 194.391763 
L 299.996568 193.117079 
L 303.644372 195.153704 
L 307.292176 195.807622 
L 310.93998 196.700886 
L 314.587783 197.625391 
L 318.235587 197.218323 
L 321.883391 197.713301 
L 325.531195 198.550706 
L 329.178999 199.954626 
L 332.826803 199.380606 
L 336.474607 200.894273 
L 340.122411 203.11989 
L 343.770215 203.111776 
L 347.418018 202.31558 
L 351.065822 204.222564 
L 354.713626 205.068416 
L 358.36143 204.861108 
L 362.009234 206.197635 
L 365.657038 206.757586 
L 369.304842 207.681627 
L 372.952646 207.020304 
L 376.600449 208.104618 
L 380.248253 209.315749 
L 383.896057 209.835142 
L 387.543861 211.007614 
L 391.191665 209.548719 
L 394.839469 211.312034 
L 398.487273 212.06331 
" clip-path="url(#p84d3ea6699)" style="fill: none; stroke: #ff00ff; stroke-opacity: 0.3; stroke-width: 0.5; stroke-linecap: square"/>
   </g>
   <g id="line2d_43">
    <path d="M 73.832727 149.396252 
L 77.480531 150.913049 
L 81.128335 152.940371 
L 84.776139 155.218994 
L 88.423943 155.859147 
L 92.071747 160.091482 
L 95.719551 160.558291 
L 99.367354 161.073599 
L 103.015158 163.901942 
L 106.662962 165.773193 
L 110.310766 166.73227 
L 113.95857 168.141595 
L 117.606374 170.329234 
L 121.254178 171.161365 
L 124.901982 170.944971 
L 128.549785 172.79343 
L 132.197589 173.849996 
L 135.845393 174.589419 
L 139.493197 176.158322 
L 143.141001 177.629026 
L 146.788805 176.423938 
L 150.436609 178.930966 
L 154.084413 178.776155 
L 157.732217 180.277592 
L 161.38002 181.480638 
L 165.027824 181.906759 
L 168.675628 183.326067 
L 172.323432 183.871224 
L 175.971236 186.07034 
L 179.61904 185.546846 
L 183.266844 186.649127 
L 186.914648 186.818182 
L 190.562451 188.089866 
L 194.210255 188.351005 
L 197.858059 188.964989 
L 201.505863 190.683863 
L 205.153667 191.58643 
L 208.801471 191.631204 
L 212.449275 193.149667 
L 216.097079 193.399561 
L 219.744883 195.353071 
L 223.392686 195.579956 
L 227.04049 196.509821 
L 230.688294 197.493749 
L 234.336098 197.889383 
L 237.983902 199.761822 
L 241.631706 198.935241 
L 245.27951 200.75314 
L 248.927314 202.256751 
L 252.575117 203.001232 
L 256.222921 204.001099 
L 259.870725 204.242371 
L 263.518529 205.916211 
L 267.166333 208.324967 
L 270.814137 206.893734 
L 274.461941 207.425763 
L 278.109745 208.552359 
L 281.757549 210.338843 
L 285.405352 209.592363 
L 289.053156 211.194824 
L 292.70096 212.846291 
L 296.348764 212.864853 
L 299.996568 213.333169 
L 303.644372 214.362813 
L 307.292176 217.141926 
L 310.93998 216.394967 
L 314.587783 218.326837 
L 318.235587 218.350093 
L 321.883391 219.532896 
L 325.531195 220.177505 
L 329.178999 220.803747 
L 332.826803 221.770012 
L 336.474607 223.971062 
L 340.122411 223.696796 
L 343.770215 225.505413 
L 347.418018 225.891216 
L 351.065822 226.178553 
L 354.713626 228.045449 
L 358.36143 229.037223 
L 362.009234 229.687244 
L 365.657038 230.988568 
L 369.304842 231.820691 
L 372.952646 232.280386 
L 376.600449 232.301961 
L 380.248253 234.943905 
L 383.896057 235.116358 
L 387.543861 235.065513 
L 391.191665 235.71278 
L 394.839469 237.93634 
L 398.487273 238.202485 
" clip-path="url(#p84d3ea6699)" style="fill: none; stroke: #ff00ff; stroke-opacity: 0.3; stroke-width: 0.5; stroke-linecap: square"/>
   </g>
   <g id="line2d_44">
    <path d="M 73.832727 154.752431 
L 77.480531 155.748805 
L 81.128335 157.55617 
L 84.776139 157.4266 
L 88.423943 156.053428 
L 92.071747 159.207695 
L 95.719551 157.683073 
L 99.367354 158.248921 
L 103.015158 160.057822 
L 106.662962 159.078951 
L 110.310766 160.439821 
L 113.95857 163.160388 
L 117.606374 160.607833 
L 121.254178 161.613524 
L 124.901982 163.044077 
L 128.549785 161.805719 
L 132.197589 162.983972 
L 135.845393 163.872933 
L 139.493197 164.172412 
L 143.141001 164.261931 
L 146.788805 164.892767 
L 150.436609 166.510935 
L 154.084413 166.016161 
L 157.732217 166.327927 
L 161.38002 167.10927 
L 165.027824 167.248591 
L 168.675628 167.485981 
L 172.323432 168.985709 
L 175.971236 168.659539 
L 179.61904 169.85092 
L 183.266844 170.43888 
L 186.914648 169.923008 
L 190.562451 171.004569 
L 194.210255 171.252753 
L 197.858059 173.264934 
L 201.505863 173.141957 
L 205.153667 175.402496 
L 208.801471 174.551383 
L 212.449275 174.553238 
L 216.097079 174.351407 
L 219.744883 175.636958 
L 223.392686 174.762922 
L 227.04049 175.564059 
L 230.688294 177.754379 
L 234.336098 178.081404 
L 237.983902 177.182764 
L 241.631706 178.170763 
L 245.27951 177.323099 
L 248.927314 179.497988 
L 252.575117 179.703514 
L 256.222921 181.77135 
L 259.870725 180.296879 
L 263.518529 181.993192 
L 267.166333 181.381367 
L 270.814137 182.981756 
L 274.461941 182.953559 
L 278.109745 183.042803 
L 281.757549 182.65053 
L 285.405352 184.927225 
L 289.053156 185.340798 
L 292.70096 185.089759 
L 296.348764 185.380167 
L 299.996568 186.572823 
L 303.644372 186.206806 
L 307.292176 186.358705 
L 310.93998 187.102287 
L 314.587783 187.485156 
L 318.235587 189.343974 
L 321.883391 189.425292 
L 325.531195 191.065891 
L 329.178999 190.223154 
L 332.826803 191.199706 
L 336.474607 190.433636 
L 340.122411 189.292883 
L 343.770215 192.005552 
L 347.418018 191.401987 
L 351.065822 191.505083 
L 354.713626 191.472495 
L 358.36143 194.75465 
L 362.009234 194.201712 
L 365.657038 194.55734 
L 369.304842 193.933763 
L 372.952646 194.95635 
L 376.600449 196.492288 
L 380.248253 196.582546 
L 383.896057 197.917277 
L 387.543861 196.051735 
L 391.191665 198.237708 
L 394.839469 197.980381 
L 398.487273 199.036831 
" clip-path="url(#p84d3ea6699)" style="fill: none; stroke: #ff00ff; stroke-opacity: 0.3; stroke-width: 0.5; stroke-linecap: square"/>
   </g>
   <g id="line2d_45">
    <path d="M 73.832727 167.588353 
L 77.480531 168.078795 
L 81.128335 168.540634 
L 84.776139 168.612939 
L 88.423943 168.914505 
L 92.071747 169.886377 
L 95.719551 170.207591 
L 99.367354 170.604892 
L 103.015158 171.197691 
L 106.662962 171.848871 
L 110.310766 172.156711 
L 113.95857 172.718806 
L 117.606374 172.371713 
L 121.254178 173.806526 
L 124.901982 172.80721 
L 128.549785 173.678043 
L 132.197589 174.470688 
L 135.845393 174.721974 
L 139.493197 175.358475 
L 143.141001 175.829385 
L 146.788805 175.783336 
L 150.436609 176.117605 
L 154.084413 177.153219 
L 157.732217 177.968715 
L 161.38002 178.141812 
L 165.027824 177.923941 
L 168.675628 179.441115 
L 172.323432 178.709863 
L 175.971236 179.461038 
L 179.61904 178.933284 
L 183.266844 180.091874 
L 186.914648 180.66462 
L 190.562451 181.423315 
L 194.210255 181.651011 
L 197.858059 182.347486 
L 201.505863 182.966774 
L 205.153667 182.72753 
L 208.801471 183.234433 
L 212.449275 183.720977 
L 216.097079 185.050056 
L 219.744883 185.288808 
L 223.392686 185.907356 
L 227.04049 185.548787 
L 230.688294 185.655941 
L 234.336098 186.81482 
L 237.983902 188.141117 
L 241.631706 187.373032 
L 245.27951 188.582989 
L 248.927314 189.10657 
L 252.575117 189.576669 
L 256.222921 189.842444 
L 259.870725 190.608095 
L 263.518529 191.131734 
L 267.166333 191.387844 
L 270.814137 191.715144 
L 274.461941 192.996609 
L 278.109745 192.375902 
L 281.757549 193.511496 
L 285.405352 193.643964 
L 289.053156 194.17747 
L 292.70096 195.22156 
L 296.348764 196.091293 
L 299.996568 196.400654 
L 303.644372 197.695435 
L 307.292176 197.147859 
L 310.93998 197.280804 
L 314.587783 198.433671 
L 318.235587 198.637791 
L 321.883391 198.789414 
L 325.531195 200.271899 
L 329.178999 201.172582 
L 332.826803 201.401118 
L 336.474607 202.109113 
L 340.122411 202.406085 
L 343.770215 203.725586 
L 347.418018 203.841854 
L 351.065822 203.503904 
L 354.713626 205.250671 
L 358.36143 204.93776 
L 362.009234 206.135618 
L 365.657038 206.15076 
L 369.304842 206.44553 
L 372.952646 205.798494 
L 376.600449 207.556955 
L 380.248253 208.787777 
L 383.896057 209.797758 
L 387.543861 209.863253 
L 391.191665 210.592142 
L 394.839469 210.83059 
L 398.487273 211.156208 
" clip-path="url(#p84d3ea6699)" style="fill: none; stroke: #ff00ff; stroke-opacity: 0.3; stroke-width: 0.5; stroke-linecap: square"/>
   </g>
   <g id="line2d_46">
    <path d="M 73.832727 169.522823 
L 77.480531 170.255277 
L 81.128335 173.755434 
L 84.776139 171.618553 
L 88.423943 173.263238 
L 92.071747 174.520983 
L 95.719551 173.989896 
L 99.367354 174.540255 
L 103.015158 175.192652 
L 106.662962 175.763659 
L 110.310766 177.277978 
L 113.95857 177.986828 
L 117.606374 178.421918 
L 121.254178 179.330875 
L 124.901982 179.629789 
L 128.549785 180.209939 
L 132.197589 179.986778 
L 135.845393 183.008099 
L 139.493197 181.093886 
L 143.141001 184.288767 
L 146.788805 184.647597 
L 150.436609 184.641251 
L 154.084413 184.175209 
L 157.732217 185.461065 
L 161.38002 186.357618 
L 165.027824 187.944372 
L 168.675628 188.821393 
L 172.323432 189.409281 
L 175.971236 188.433163 
L 179.61904 191.210994 
L 183.266844 190.712814 
L 186.914648 191.290863 
L 190.562451 191.664922 
L 194.210255 191.027667 
L 197.858059 193.107255 
L 201.505863 194.477471 
L 205.153667 194.877206 
L 208.801471 196.35543 
L 212.449275 196.182768 
L 216.097079 197.339184 
L 219.744883 199.134653 
L 223.392686 197.634476 
L 227.04049 199.409716 
L 230.688294 201.563116 
L 234.336098 201.383396 
L 237.983902 202.093724 
L 241.631706 202.954444 
L 245.27951 203.65489 
L 248.927314 202.545015 
L 252.575117 205.605502 
L 256.222921 205.810883 
L 259.870725 205.660173 
L 263.518529 206.336536 
L 267.166333 207.123559 
L 270.814137 208.35599 
L 274.461941 210.198899 
L 278.109745 209.277945 
L 281.757549 210.1027 
L 285.405352 211.248597 
L 289.053156 211.049142 
L 292.70096 213.657889 
L 296.348764 213.163636 
L 299.996568 213.468969 
L 303.644372 214.426221 
L 307.292176 215.514527 
L 310.93998 215.713859 
L 314.587783 215.824779 
L 318.235587 217.371165 
L 321.883391 217.90273 
L 325.531195 219.400755 
L 329.178999 219.732112 
L 332.826803 220.408222 
L 336.474607 222.013342 
L 340.122411 222.036765 
L 343.770215 221.923613 
L 347.418018 223.227125 
L 351.065822 223.960434 
L 354.713626 224.192338 
L 358.36143 225.04243 
L 362.009234 225.718619 
L 365.657038 224.796788 
L 369.304842 226.904653 
L 372.952646 227.001098 
L 376.600449 228.055679 
L 380.248253 229.026892 
L 383.896057 228.754263 
L 387.543861 229.068073 
L 391.191665 231.442655 
L 394.839469 231.285641 
L 398.487273 231.993144 
" clip-path="url(#p84d3ea6699)" style="fill: none; stroke: #ff00ff; stroke-opacity: 0.3; stroke-width: 0.5; stroke-linecap: square"/>
   </g>
   <g id="line2d_47">
    <path d="M 73.832727 163.669073 
L 77.480531 165.604949 
L 81.128335 165.419289 
L 84.776139 165.622366 
L 88.423943 166.755034 
L 92.071747 166.628754 
L 95.719551 166.514065 
L 99.367354 167.318042 
L 103.015158 166.88243 
L 106.662962 166.223816 
L 110.310766 168.883322 
L 113.95857 168.69346 
L 117.606374 168.511075 
L 121.254178 169.328092 
L 124.901982 169.794148 
L 128.549785 169.368722 
L 132.197589 169.679199 
L 135.845393 171.563085 
L 139.493197 171.321798 
L 143.141001 171.543495 
L 146.788805 171.55413 
L 150.436609 172.327707 
L 154.084413 172.16839 
L 157.732217 172.653471 
L 161.38002 173.317967 
L 165.027824 173.724512 
L 168.675628 173.617185 
L 172.323432 174.119669 
L 175.971236 174.953466 
L 179.61904 175.61063 
L 183.266844 176.103594 
L 186.914648 176.074961 
L 190.562451 175.980849 
L 194.210255 176.092929 
L 197.858059 178.074724 
L 201.505863 177.884514 
L 205.153667 177.702896 
L 208.801471 178.05522 
L 212.449275 178.488674 
L 216.097079 178.828319 
L 219.744883 179.938498 
L 223.392686 180.362141 
L 227.04049 180.142488 
L 230.688294 180.601284 
L 234.336098 181.649475 
L 237.983902 182.337329 
L 241.631706 181.915337 
L 245.27951 182.481968 
L 248.927314 183.455289 
L 252.575117 183.841983 
L 256.222921 184.981258 
L 259.870725 184.909967 
L 263.518529 185.518097 
L 267.166333 185.699396 
L 270.814137 186.955185 
L 274.461941 186.334941 
L 278.109745 186.722606 
L 281.757549 186.372586 
L 285.405352 187.94133 
L 289.053156 188.646861 
L 292.70096 190.207766 
L 296.348764 189.675911 
L 299.996568 190.348101 
L 303.644372 191.192998 
L 307.292176 191.815458 
L 310.93998 192.305495 
L 314.587783 192.816716 
L 318.235587 192.349588 
L 321.883391 194.310054 
L 325.531195 194.141347 
L 329.178999 194.834518 
L 332.826803 194.496221 
L 336.474607 195.9844 
L 340.122411 196.043954 
L 343.770215 196.992874 
L 347.418018 197.009566 
L 351.065822 198.131221 
L 354.713626 199.585306 
L 358.36143 199.425945 
L 362.009234 199.890595 
L 365.657038 199.945121 
L 369.304842 200.544818 
L 372.952646 201.808721 
L 376.600449 201.147717 
L 380.248253 202.740036 
L 383.896057 203.884802 
L 387.543861 203.45642 
L 391.191665 205.912414 
L 394.839469 204.878858 
L 398.487273 206.415622 
" clip-path="url(#p84d3ea6699)" style="fill: none; stroke: #ff00ff; stroke-opacity: 0.3; stroke-width: 0.5; stroke-linecap: square"/>
   </g>
   <g id="line2d_48">
    <path d="M 73.832727 163.94502 
L 77.480531 168.309519 
L 81.128335 167.165173 
L 84.776139 171.110809 
L 88.423943 174.074083 
L 92.071747 176.046271 
L 95.719551 178.994896 
L 99.367354 181.529657 
L 103.015158 183.272628 
L 106.662962 184.46866 
L 110.310766 186.323088 
L 113.95857 187.557287 
L 117.606374 190.077327 
L 121.254178 190.937423 
L 124.901982 193.27005 
L 128.549785 194.6559 
L 132.197589 197.855752 
L 135.845393 197.502385 
L 139.493197 200.720871 
L 143.141001 201.673341 
L 146.788805 203.073711 
L 150.436609 205.170672 
L 154.084413 206.338014 
L 157.732217 208.100547 
L 161.38002 210.045088 
L 165.027824 210.885999 
L 168.675628 212.30154 
L 172.323432 214.598608 
L 175.971236 215.367461 
L 179.61904 216.73299 
L 183.266844 217.440869 
L 186.914648 219.528883 
L 190.562451 222.013915 
L 194.210255 222.734538 
L 197.858059 223.740012 
L 201.505863 225.854774 
L 205.153667 226.90645 
L 208.801471 227.853008 
L 212.449275 230.002807 
L 216.097079 230.821607 
L 219.744883 232.365913 
L 223.392686 233.685066 
L 227.04049 234.742806 
L 230.688294 236.475873 
L 234.336098 237.042794 
L 237.983902 239.234273 
L 241.631706 239.807837 
L 245.27951 240.994393 
L 248.927314 243.156212 
L 252.575117 243.820925 
L 256.222921 244.514684 
L 259.870725 246.191718 
L 263.518529 247.734191 
L 267.166333 247.75305 
L 270.814137 249.578766 
L 274.461941 250.552587 
L 278.109745 252.178254 
L 281.757549 253.317985 
L 285.405352 253.371432 
L 289.053156 255.195945 
L 292.70096 256.263958 
L 296.348764 256.480446 
L 299.996568 258.521983 
L 303.644372 258.947423 
L 307.292176 260.484948 
L 310.93998 261.006022 
L 314.587783 262.563529 
L 318.235587 262.733178 
L 321.883391 264.593691 
L 325.531195 265.706551 
L 329.178999 266.513259 
L 332.826803 267.032826 
L 336.474607 268.973607 
L 340.122411 269.732861 
L 343.770215 270.08838 
L 347.418018 270.057501 
L 351.065822 271.423016 
L 354.713626 272.61636 
L 358.36143 274.084514 
L 362.009234 274.654209 
L 365.657038 275.07915 
L 369.304842 276.258305 
L 372.952646 276.523515 
L 376.600449 277.282069 
L 380.248253 279.39819 
L 383.896057 279.199811 
L 387.543861 280.684896 
L 391.191665 281.455905 
L 394.839469 281.743346 
L 398.487273 282.127928 
" clip-path="url(#p84d3ea6699)" style="fill: none; stroke: #ff00ff; stroke-opacity: 0.3; stroke-width: 0.5; stroke-linecap: square"/>
   </g>
   <g id="line2d_49">
    <path d="M 73.832727 168.679477 
L 77.480531 169.962391 
L 81.128335 170.340594 
L 84.776139 170.199274 
L 88.423943 171.070426 
L 92.071747 171.996263 
L 95.719551 172.123369 
L 99.367354 172.434774 
L 103.015158 173.26276 
L 106.662962 173.93866 
L 110.310766 174.291129 
L 113.95857 175.926294 
L 117.606374 176.684743 
L 121.254178 177.659484 
L 124.901982 178.851285 
L 128.549785 180.215952 
L 132.197589 180.678472 
L 135.845393 182.387319 
L 139.493197 183.450797 
L 143.141001 184.577727 
L 146.788805 186.247335 
L 150.436609 187.54058 
L 154.084413 188.830855 
L 157.732217 189.474544 
L 161.38002 191.001281 
L 165.027824 192.105113 
L 168.675628 194.027861 
L 172.323432 195.227936 
L 175.971236 196.332928 
L 179.61904 198.068987 
L 183.266844 199.454099 
L 186.914648 200.620499 
L 190.562451 202.758133 
L 194.210255 204.410687 
L 197.858059 205.018006 
L 201.505863 206.77722 
L 205.153667 207.347763 
L 208.801471 208.418515 
L 212.449275 210.193972 
L 216.097079 212.0666 
L 219.744883 213.517235 
L 223.392686 214.383461 
L 227.04049 216.259428 
L 230.688294 217.43245 
L 234.336098 219.074187 
L 237.983902 220.27416 
L 241.631706 220.485794 
L 245.27951 222.268091 
L 248.927314 223.867306 
L 252.575117 224.7247 
L 256.222921 226.168794 
L 259.870725 227.458641 
L 263.518529 228.0815 
L 267.166333 229.841954 
L 270.814137 230.571474 
L 274.461941 232.742645 
L 278.109745 233.520366 
L 281.757549 233.489981 
L 285.405352 234.9126 
L 289.053156 236.566595 
L 292.70096 237.78884 
L 296.348764 238.810637 
L 299.996568 239.6851 
L 303.644372 240.704094 
L 307.292176 241.890055 
L 310.93998 242.913367 
L 314.587783 243.971012 
L 318.235587 244.525747 
L 321.883391 244.800397 
L 325.531195 246.972561 
L 329.178999 247.53486 
L 332.826803 249.439097 
L 336.474607 249.104197 
L 340.122411 250.408585 
L 343.770215 250.694342 
L 347.418018 251.440185 
L 351.065822 252.085989 
L 354.713626 252.938239 
L 358.36143 255.044163 
L 362.009234 255.995394 
L 365.657038 256.540884 
L 369.304842 257.160142 
L 372.952646 258.82591 
L 376.600449 259.405785 
L 380.248253 260.026398 
L 383.896057 261.187169 
L 387.543861 260.508509 
L 391.191665 262.722672 
L 394.839469 263.204928 
L 398.487273 264.087904 
" clip-path="url(#p84d3ea6699)" style="fill: none; stroke: #ff00ff; stroke-opacity: 0.3; stroke-width: 0.5; stroke-linecap: square"/>
   </g>
   <g id="line2d_50">
    <path d="M 73.832727 160.747429 
L 77.480531 162.25914 
L 81.128335 162.725645 
L 84.776139 162.754697 
L 88.423943 162.389927 
L 92.071747 163.297579 
L 95.719551 164.563641 
L 99.367354 164.368577 
L 103.015158 165.609195 
L 106.662962 165.270115 
L 110.310766 166.618422 
L 113.95857 167.041385 
L 117.606374 167.225074 
L 121.254178 168.19186 
L 124.901982 167.898829 
L 128.549785 168.745276 
L 132.197589 170.450341 
L 135.845393 170.220154 
L 139.493197 170.721435 
L 143.141001 171.225251 
L 146.788805 172.409387 
L 150.436609 172.38445 
L 154.084413 172.820917 
L 157.732217 173.759448 
L 161.38002 174.582305 
L 165.027824 174.755199 
L 168.675628 176.430212 
L 172.323432 176.980571 
L 175.971236 176.227005 
L 179.61904 177.640474 
L 183.266844 178.489398 
L 186.914648 178.821929 
L 190.562451 179.244515 
L 194.210255 179.735421 
L 197.858059 180.322468 
L 201.505863 181.825253 
L 205.153667 181.578938 
L 208.801471 182.784881 
L 212.449275 182.931128 
L 216.097079 183.752739 
L 219.744883 184.391443 
L 223.392686 185.128433 
L 227.04049 185.219676 
L 230.688294 185.711263 
L 234.336098 185.855989 
L 237.983902 187.368309 
L 241.631706 187.358934 
L 245.27951 187.749902 
L 248.927314 188.869949 
L 252.575117 188.292176 
L 256.222921 188.320532 
L 259.870725 188.957411 
L 263.518529 190.423956 
L 267.166333 190.476019 
L 270.814137 190.743881 
L 274.461941 190.921557 
L 278.109745 191.492346 
L 281.757549 192.409939 
L 285.405352 192.656862 
L 289.053156 193.538969 
L 292.70096 193.468302 
L 296.348764 194.527708 
L 299.996568 194.911489 
L 303.644372 194.801351 
L 307.292176 194.791005 
L 310.93998 195.860583 
L 314.587783 195.484612 
L 318.235587 196.95078 
L 321.883391 196.250059 
L 325.531195 197.81534 
L 329.178999 197.77655 
L 332.826803 198.887917 
L 336.474607 198.598509 
L 340.122411 199.550022 
L 343.770215 200.075487 
L 347.418018 199.976115 
L 351.065822 200.292938 
L 354.713626 201.175885 
L 358.36143 202.36731 
L 362.009234 202.666571 
L 365.657038 202.417619 
L 369.304842 202.958095 
L 372.952646 203.491935 
L 376.600449 203.912246 
L 380.248253 204.759229 
L 383.896057 205.065808 
L 387.543861 205.359491 
L 391.191665 206.641768 
L 394.839469 205.867988 
L 398.487273 206.774365 
" clip-path="url(#p84d3ea6699)" style="fill: none; stroke: #ff00ff; stroke-opacity: 0.3; stroke-width: 0.5; stroke-linecap: square"/>
   </g>
   <g id="line2d_51">
    <path d="M 73.832727 173.542055 
L 77.480531 175.45124 
L 81.128335 176.971544 
L 84.776139 177.545303 
L 88.423943 178.793137 
L 92.071747 179.347712 
L 95.719551 178.848156 
L 99.367354 181.354242 
L 103.015158 182.534842 
L 106.662962 182.866474 
L 110.310766 185.138735 
L 113.95857 187.123602 
L 117.606374 187.391754 
L 121.254178 189.754519 
L 124.901982 191.555667 
L 128.549785 193.72602 
L 132.197589 194.569279 
L 135.845393 197.316899 
L 139.493197 198.987492 
L 143.141001 199.86489 
L 146.788805 200.504289 
L 150.436609 203.656773 
L 154.084413 205.325092 
L 157.732217 205.693702 
L 161.38002 207.713099 
L 165.027824 208.564096 
L 168.675628 211.882954 
L 172.323432 212.606163 
L 175.971236 214.159025 
L 179.61904 214.928994 
L 183.266844 216.921468 
L 186.914648 218.514663 
L 190.562451 219.789898 
L 194.210255 221.288401 
L 197.858059 222.178376 
L 201.505863 223.390108 
L 205.153667 225.936027 
L 208.801471 227.239038 
L 212.449275 229.036231 
L 216.097079 229.834614 
L 219.744883 231.608536 
L 223.392686 231.400177 
L 227.04049 234.500947 
L 230.688294 233.184495 
L 234.336098 236.61276 
L 237.983902 237.252935 
L 241.631706 238.925108 
L 245.27951 238.209933 
L 248.927314 241.017722 
L 252.575117 242.987266 
L 256.222921 243.306647 
L 259.870725 244.763861 
L 263.518529 245.956401 
L 267.166333 247.55913 
L 270.814137 247.820993 
L 274.461941 249.421948 
L 278.109745 250.338128 
L 281.757549 251.657846 
L 285.405352 251.717726 
L 289.053156 253.548521 
L 292.70096 254.516169 
L 296.348764 254.31281 
L 299.996568 256.749771 
L 303.644372 257.223586 
L 307.292176 258.688799 
L 310.93998 259.870761 
L 314.587783 259.868146 
L 318.235587 261.146351 
L 321.883391 262.490775 
L 325.531195 264.335415 
L 329.178999 264.745278 
L 332.826803 265.026826 
L 336.474607 266.302988 
L 340.122411 266.942365 
L 343.770215 267.876549 
L 347.418018 268.976759 
L 351.065822 269.610456 
L 354.713626 270.50038 
L 358.36143 271.878639 
L 362.009234 271.917457 
L 365.657038 272.338355 
L 369.304842 274.365677 
L 372.952646 273.998153 
L 376.600449 275.177421 
L 380.248253 276.238884 
L 383.896057 276.817017 
L 387.543861 277.706202 
L 391.191665 278.586921 
L 394.839469 279.124057 
L 398.487273 279.768858 
" clip-path="url(#p84d3ea6699)" style="fill: none; stroke: #ff00ff; stroke-opacity: 0.3; stroke-width: 0.5; stroke-linecap: square"/>
   </g>
   <g id="line2d_52">
    <path d="M 73.832727 159.413959 
L 77.480531 162.651949 
L 81.128335 166.228902 
L 84.776139 166.170653 
L 88.423943 168.069724 
L 92.071747 171.883169 
L 95.719551 173.457549 
L 99.367354 175.077906 
L 103.015158 176.171783 
L 106.662962 177.58163 
L 110.310766 179.910576 
L 113.95857 180.229138 
L 117.606374 181.013915 
L 121.254178 182.15987 
L 124.901982 183.963279 
L 128.549785 183.924344 
L 132.197589 187.099259 
L 135.845393 187.590773 
L 139.493197 188.032877 
L 143.141001 188.832971 
L 146.788805 190.448386 
L 150.436609 191.364052 
L 154.084413 191.884996 
L 157.732217 193.183863 
L 161.38002 195.165962 
L 165.027824 196.687193 
L 168.675628 196.983789 
L 172.323432 198.088606 
L 175.971236 199.303664 
L 179.61904 199.096066 
L 183.266844 200.470339 
L 186.914648 201.720317 
L 190.562451 202.028114 
L 194.210255 204.082706 
L 197.858059 205.174526 
L 201.505863 205.572334 
L 205.153667 206.932205 
L 208.801471 209.246458 
L 212.449275 208.887454 
L 216.097079 210.021976 
L 219.744883 210.782309 
L 223.392686 212.146251 
L 227.04049 214.215507 
L 230.688294 214.920561 
L 234.336098 216.044411 
L 237.983902 216.906862 
L 241.631706 218.070495 
L 245.27951 219.069057 
L 248.927314 219.885677 
L 252.575117 221.186392 
L 256.222921 222.365217 
L 259.870725 223.759936 
L 263.518529 224.651606 
L 267.166333 224.491013 
L 270.814137 225.739608 
L 274.461941 227.664414 
L 278.109745 227.794367 
L 281.757549 229.854176 
L 285.405352 230.522505 
L 289.053156 232.015965 
L 292.70096 233.585607 
L 296.348764 234.302028 
L 299.996568 234.96159 
L 303.644372 235.5353 
L 307.292176 237.121554 
L 310.93998 237.544647 
L 314.587783 238.229603 
L 318.235587 240.11149 
L 321.883391 240.660225 
L 325.531195 242.46049 
L 329.178999 243.140207 
L 332.826803 244.702916 
L 336.474607 245.263635 
L 340.122411 245.904737 
L 343.770215 247.246502 
L 347.418018 247.898623 
L 351.065822 248.179715 
L 354.713626 249.733685 
L 358.36143 251.489596 
L 362.009234 251.891693 
L 365.657038 252.919728 
L 369.304842 254.222363 
L 372.952646 254.589097 
L 376.600449 255.626848 
L 380.248253 257.294841 
L 383.896057 257.332203 
L 387.543861 259.199578 
L 391.191665 258.988256 
L 394.839469 260.100985 
L 398.487273 261.241318 
" clip-path="url(#p84d3ea6699)" style="fill: none; stroke: #ff00ff; stroke-opacity: 0.3; stroke-width: 0.5; stroke-linecap: square"/>
   </g>
   <g id="line2d_53">
    <path d="M 73.832727 125.210429 
L 77.480531 128.061043 
L 81.128335 132.739684 
L 84.776139 136.553563 
L 88.423943 136.193647 
L 92.071747 139.785525 
L 95.719551 143.680824 
L 99.367354 146.079423 
L 103.015158 146.845175 
L 106.662962 150.136444 
L 110.310766 151.690509 
L 113.95857 154.414148 
L 117.606374 156.741485 
L 121.254178 158.931023 
L 124.901982 160.675573 
L 128.549785 162.716806 
L 132.197589 165.112449 
L 135.845393 166.214818 
L 139.493197 169.152054 
L 143.141001 169.875683 
L 146.788805 172.155812 
L 150.436609 174.052189 
L 154.084413 175.074428 
L 157.732217 178.18082 
L 161.38002 178.233549 
L 165.027824 182.221945 
L 168.675628 181.119997 
L 172.323432 185.310195 
L 175.971236 186.155164 
L 179.61904 187.549593 
L 183.266844 189.908794 
L 186.914648 190.292706 
L 190.562451 191.786362 
L 194.210255 192.749352 
L 197.858059 195.960738 
L 201.505863 196.372036 
L 205.153667 197.85013 
L 208.801471 198.87234 
L 212.449275 202.730718 
L 216.097079 203.326604 
L 219.744883 203.363844 
L 223.392686 205.121348 
L 227.04049 206.661604 
L 230.688294 206.692772 
L 234.336098 209.29881 
L 237.983902 211.953186 
L 241.631706 213.12802 
L 245.27951 214.109136 
L 248.927314 214.948527 
L 252.575117 217.535619 
L 256.222921 216.291813 
L 259.870725 218.471027 
L 263.518529 220.920363 
L 267.166333 221.430193 
L 270.814137 222.259462 
L 274.461941 223.850672 
L 278.109745 225.39663 
L 281.757549 226.721116 
L 285.405352 227.867172 
L 289.053156 228.747301 
L 292.70096 230.316095 
L 296.348764 231.451421 
L 299.996568 232.072976 
L 303.644372 233.127586 
L 307.292176 234.567724 
L 310.93998 234.762744 
L 314.587783 236.553866 
L 318.235587 238.216895 
L 321.883391 238.504775 
L 325.531195 240.0433 
L 329.178999 241.040174 
L 332.826803 243.069011 
L 336.474607 243.362187 
L 340.122411 244.370276 
L 343.770215 244.591249 
L 347.418018 246.507172 
L 351.065822 246.26858 
L 354.713626 248.664115 
L 358.36143 249.966677 
L 362.009234 249.677189 
L 365.657038 251.86748 
L 369.304842 252.488318 
L 372.952646 251.860112 
L 376.600449 253.606546 
L 380.248253 255.198619 
L 383.896057 255.784767 
L 387.543861 256.708337 
L 391.191665 258.902925 
L 394.839469 258.022158 
L 398.487273 258.921993 
" clip-path="url(#p84d3ea6699)" style="fill: none; stroke: #ff00ff; stroke-opacity: 0.3; stroke-width: 0.5; stroke-linecap: square"/>
   </g>
   <g id="line2d_54">
    <path d="M 73.832727 170.108016 
L 77.480531 169.626282 
L 81.128335 170.224732 
L 84.776139 169.754866 
L 88.423943 169.556976 
L 92.071747 170.518372 
L 95.719551 170.704307 
L 99.367354 170.591662 
L 103.015158 170.824777 
L 106.662962 171.7861 
L 110.310766 171.628276 
L 113.95857 170.982225 
L 117.606374 172.058527 
L 121.254178 171.530845 
L 124.901982 171.828556 
L 128.549785 172.113849 
L 132.197589 172.119776 
L 135.845393 173.182196 
L 139.493197 172.44722 
L 143.141001 173.444885 
L 146.788805 172.446481 
L 150.436609 173.140044 
L 154.084413 173.505888 
L 157.732217 173.227883 
L 161.38002 173.375391 
L 165.027824 174.462951 
L 168.675628 174.625789 
L 172.323432 174.76769 
L 175.971236 174.036844 
L 179.61904 174.488989 
L 183.266844 174.492163 
L 186.914648 174.941193 
L 190.562451 176.035998 
L 194.210255 174.654856 
L 197.858059 175.575666 
L 201.505863 176.084974 
L 205.153667 174.498915 
L 208.801471 175.578201 
L 212.449275 176.273865 
L 216.097079 175.857481 
L 219.744883 176.04375 
L 223.392686 177.097128 
L 227.04049 176.692017 
L 230.688294 177.22477 
L 234.336098 177.114618 
L 237.983902 177.474969 
L 241.631706 177.622187 
L 245.27951 178.690838 
L 248.927314 177.712547 
L 252.575117 177.88676 
L 256.222921 178.346063 
L 259.870725 177.746859 
L 263.518529 178.358322 
L 267.166333 178.678188 
L 270.814137 179.139882 
L 274.461941 179.228068 
L 278.109745 179.15388 
L 281.757549 180.643435 
L 285.405352 179.194452 
L 289.053156 179.667695 
L 292.70096 179.795829 
L 296.348764 180.239469 
L 299.996568 179.559628 
L 303.644372 180.390571 
L 307.292176 180.089918 
L 310.93998 180.790161 
L 314.587783 181.065195 
L 318.235587 180.720334 
L 321.883391 180.730245 
L 325.531195 181.122837 
L 329.178999 181.157526 
L 332.826803 181.304497 
L 336.474607 183.261152 
L 340.122411 181.647359 
L 343.770215 181.875895 
L 347.418018 181.85061 
L 351.065822 182.881196 
L 354.713626 183.47317 
L 358.36143 182.764682 
L 362.009234 183.353511 
L 365.657038 183.429482 
L 369.304842 183.863182 
L 372.952646 182.921637 
L 376.600449 184.362999 
L 380.248253 183.410471 
L 383.896057 183.402502 
L 387.543861 184.264815 
L 391.191665 184.051769 
L 394.839469 185.254264 
L 398.487273 184.492975 
" clip-path="url(#p84d3ea6699)" style="fill: none; stroke: #ff00ff; stroke-opacity: 0.3; stroke-width: 0.5; stroke-linecap: square"/>
   </g>
   <g id="line2d_55">
    <path d="M 73.832727 174.998559 
L 77.480531 172.909755 
L 81.128335 171.296441 
L 84.776139 169.800118 
L 88.423943 169.369679 
L 92.071747 167.08158 
L 95.719551 166.037417 
L 99.367354 164.531531 
L 103.015158 163.028819 
L 106.662962 161.957893 
L 110.310766 160.19126 
L 113.95857 158.709862 
L 117.606374 157.820438 
L 121.254178 156.573343 
L 124.901982 155.421549 
L 128.549785 154.201377 
L 132.197589 152.602914 
L 135.845393 151.060238 
L 139.493197 150.162396 
L 143.141001 148.801641 
L 146.788805 147.837203 
L 150.436609 146.121777 
L 154.084413 145.229049 
L 157.732217 144.413307 
L 161.38002 142.4084 
L 165.027824 141.6838 
L 168.675628 140.041505 
L 172.323432 138.432001 
L 175.971236 138.093486 
L 179.61904 137.12486 
L 183.266844 135.614236 
L 186.914648 134.287519 
L 190.562451 132.60145 
L 194.210255 132.168083 
L 197.858059 130.122344 
L 201.505863 128.834706 
L 205.153667 127.411529 
L 208.801471 125.86923 
L 212.449275 124.83976 
L 216.097079 123.309604 
L 219.744883 121.249012 
L 223.392686 120.490534 
L 227.04049 119.117826 
L 230.688294 117.886887 
L 234.336098 116.08032 
L 237.983902 115.139282 
L 241.631706 113.265423 
L 245.27951 112.653671 
L 248.927314 110.291731 
L 252.575117 109.333639 
L 256.222921 107.979333 
L 259.870725 107.470532 
L 263.518529 104.896922 
L 267.166333 103.736564 
L 270.814137 103.425783 
L 274.461941 100.90215 
L 278.109745 100.581806 
L 281.757549 98.047116 
L 285.405352 98.087587 
L 289.053156 95.817847 
L 292.70096 93.932947 
L 296.348764 93.182105 
L 299.996568 91.281744 
L 303.644372 89.863928 
L 307.292176 88.267769 
L 310.93998 87.711238 
L 314.587783 85.70426 
L 318.235587 84.784436 
L 321.883391 83.933381 
L 325.531195 80.408287 
L 329.178999 79.55048 
L 332.826803 77.909171 
L 336.474607 76.876962 
L 340.122411 76.286669 
L 343.770215 73.905444 
L 347.418018 73.992181 
L 351.065822 73.401743 
L 354.713626 70.576109 
L 358.36143 67.630905 
L 362.009234 67.101788 
L 365.657038 66.33379 
L 369.304842 64.399899 
L 372.952646 64.300527 
L 376.600449 62.351393 
L 380.248253 59.285109 
L 383.896057 59.519528 
L 387.543861 58.090903 
L 391.191665 55.677394 
L 394.839469 55.607726 
L 398.487273 53.568 
" clip-path="url(#p84d3ea6699)" style="fill: none; stroke: #6495ed; stroke-width: 2; stroke-linecap: square"/>
   </g>
   <g id="line2d_56">
    <path d="M 73.832727 162.259481 
L 77.480531 163.992404 
L 81.128335 165.425704 
L 84.776139 166.698132 
L 88.423943 167.479298 
L 92.071747 169.21074 
L 95.719551 170.256258 
L 99.367354 171.524459 
L 103.015158 172.750069 
L 106.662962 173.788971 
L 110.310766 175.094255 
L 113.95857 176.285717 
L 117.606374 177.147172 
L 121.254178 178.216112 
L 124.901982 179.23474 
L 128.549785 180.197579 
L 132.197589 181.421834 
L 135.845393 182.565387 
L 139.493197 183.328189 
L 143.141001 184.386861 
L 146.788805 185.242737 
L 150.436609 186.353769 
L 154.084413 187.140036 
L 157.732217 187.872294 
L 161.38002 189.096309 
L 165.027824 189.876346 
L 168.675628 190.87696 
L 172.323432 191.929404 
L 175.971236 192.472831 
L 179.61904 193.2238 
L 183.266844 194.196295 
L 186.914648 195.115731 
L 190.562451 196.100178 
L 194.210255 196.685007 
L 197.858059 197.830098 
L 201.505863 198.645155 
L 205.153667 199.538 
L 208.801471 200.461537 
L 212.449275 201.151676 
L 216.097079 202.128071 
L 219.744883 203.209065 
L 223.392686 203.830058 
L 227.04049 204.701577 
L 230.688294 205.464238 
L 234.336098 206.409016 
L 237.983902 207.099738 
L 241.631706 208.070395 
L 245.27951 208.58875 
L 248.927314 209.731293 
L 252.575117 210.349671 
L 256.222921 211.214566 
L 259.870725 211.644692 
L 263.518529 212.890324 
L 267.166333 213.533828 
L 270.814137 214.01359 
L 274.461941 215.117914 
L 278.109745 215.519299 
L 281.757549 216.631562 
L 285.405352 216.981593 
L 289.053156 217.963351 
L 292.70096 218.886252 
L 296.348764 219.404925 
L 299.996568 220.304275 
L 303.644372 221.044437 
L 307.292176 221.821631 
L 310.93998 222.264759 
L 314.587783 223.174349 
L 318.235587 223.799992 
L 321.883391 224.333335 
L 325.531195 225.583381 
L 329.178999 226.156832 
L 332.826803 226.865927 
L 336.474607 227.488363 
L 340.122411 227.932448 
L 343.770215 228.87272 
L 347.418018 229.162312 
L 351.065822 229.604544 
L 354.713626 230.611445 
L 358.36143 231.635939 
L 362.009234 232.096487 
L 365.657038 232.604305 
L 369.304842 233.353658 
L 372.952646 233.689303 
L 376.600449 234.464615 
L 380.248253 235.460966 
L 383.896057 235.653881 
L 387.543861 236.317108 
L 391.191665 237.123121 
L 394.839469 237.458464 
L 398.487273 238.229155 
" clip-path="url(#p84d3ea6699)" style="fill: none; stroke: #dc143c; stroke-width: 2; stroke-linecap: square"/>
   </g>
   <g id="line2d_57">
    <path d="M 73.832727 220.688258 
L 77.480531 214.461271 
L 81.128335 207.487046 
L 84.776139 199.267423 
L 88.423943 197.772946 
L 92.071747 196.527549 
L 95.719551 196.02939 
L 99.367354 195.780311 
L 103.015158 195.282152 
L 106.662962 192.293198 
L 110.310766 191.795039 
L 113.95857 190.051483 
L 117.606374 188.058847 
L 121.254178 187.560688 
L 124.901982 186.066211 
L 128.549785 185.817132 
L 132.197589 184.322655 
L 135.845393 183.326337 
L 139.493197 182.08094 
L 143.141001 180.586463 
L 146.788805 178.842906 
L 150.436609 178.095668 
L 154.084413 177.846589 
L 157.732217 178.095668 
L 161.38002 178.095668 
L 165.027824 177.34843 
L 168.675628 176.601191 
L 172.323432 174.608555 
L 175.971236 174.110397 
L 179.61904 173.114079 
L 183.266844 173.114079 
L 186.914648 172.36684 
L 190.562451 172.117761 
L 194.210255 171.370522 
L 197.858059 171.868681 
L 201.505863 172.117761 
L 205.153667 172.117761 
L 208.801471 171.868681 
L 212.449275 172.61592 
L 216.097079 172.36684 
L 219.744883 172.36684 
L 223.392686 171.868681 
L 227.04049 171.619602 
L 230.688294 171.619602 
L 234.336098 171.121443 
L 237.983902 170.872363 
L 241.631706 170.374204 
L 245.27951 169.876046 
L 248.927314 169.626966 
L 252.575117 168.630648 
L 256.222921 168.381569 
L 259.870725 167.509791 
L 263.518529 166.638012 
L 267.166333 166.388933 
L 270.814137 166.388933 
L 274.461941 166.388933 
L 278.109745 166.638012 
L 281.757549 166.388933 
L 285.405352 166.139853 
L 289.053156 166.139853 
L 292.70096 165.890774 
L 296.348764 165.890774 
L 299.996568 164.894456 
L 303.644372 164.894456 
L 307.292176 164.645377 
L 310.93998 163.898138 
L 314.587783 163.649059 
L 318.235587 163.898138 
L 321.883391 163.898138 
L 325.531195 163.399979 
L 329.178999 163.1509 
L 332.826803 162.90182 
L 336.474607 162.90182 
L 340.122411 162.90182 
L 343.770215 162.90182 
L 347.418018 162.652741 
L 351.065822 162.90182 
L 354.713626 162.652741 
L 358.36143 162.652741 
L 362.009234 162.403661 
L 365.657038 162.403661 
L 369.304842 162.403661 
L 372.952646 162.403661 
L 376.600449 162.403661 
L 380.248253 162.154582 
L 383.896057 161.905502 
L 387.543861 162.154582 
L 391.191665 162.154582 
L 394.839469 162.154582 
L 398.487273 162.154582 
" clip-path="url(#p84d3ea6699)" style="fill: none; stroke: #ffff00; stroke-width: 3; stroke-linecap: square"/>
   </g>
   <g id="patch_3">
    <path d="M 57.6 307.584 
L 57.6 41.472 
" style="fill: none; stroke: #ffffff; stroke-linejoin: miter; stroke-linecap: square"/>
   </g>
   <g id="patch_4">
    <path d="M 414.72 307.584 
L 414.72 41.472 
" style="fill: none; stroke: #ffffff; stroke-linejoin: miter; stroke-linecap: square"/>
   </g>
   <g id="patch_5">
    <path d="M 57.6 307.584 
L 414.72 307.584 
" style="fill: none; stroke: #ffffff; stroke-linejoin: miter; stroke-linecap: square"/>
   </g>
   <g id="patch_6">
    <path d="M 57.6 41.472 
L 414.72 41.472 
" style="fill: none; stroke: #ffffff; stroke-linejoin: miter; stroke-linecap: square"/>
   </g>
  </g>
 </g>
 <defs>
  <clipPath id="p84d3ea6699">
   <rect x="57.6" y="41.472" width="357.12" height="266.112"/>
  </clipPath>
 </defs>
</svg>
