<?xml version="1.0" encoding="utf-8" standalone="no"?>
<!DOCTYPE svg PUBLIC "-//W3C//DTD SVG 1.1//EN"
  "http://www.w3.org/Graphics/SVG/1.1/DTD/svg11.dtd">
<svg xmlns:xlink="http://www.w3.org/1999/xlink" width="460.8pt" height="345.6pt" viewBox="0 0 460.8 345.6" xmlns="http://www.w3.org/2000/svg" version="1.1">
 <metadata>
  <rdf:RDF xmlns:dc="http://purl.org/dc/elements/1.1/" xmlns:cc="http://creativecommons.org/ns#" xmlns:rdf="http://www.w3.org/1999/02/22-rdf-syntax-ns#">
   <cc:Work>
    <dc:type rdf:resource="http://purl.org/dc/dcmitype/StillImage"/>
    <dc:date>2023-07-09T11:16:10.056621</dc:date>
    <dc:format>image/svg+xml</dc:format>
    <dc:creator>
     <cc:Agent>
      <dc:title>Matplotlib v3.7.1, https://matplotlib.org/</dc:title>
     </cc:Agent>
    </dc:creator>
   </cc:Work>
  </rdf:RDF>
 </metadata>
 <defs>
  <style type="text/css">*{stroke-linejoin: round; stroke-linecap: butt}</style>
 </defs>
 <g id="figure_1">
  <g id="patch_1">
   <path d="M 0 345.6 
L 460.8 345.6 
L 460.8 0 
L 0 0 
z
" style="fill: #ffffff"/>
  </g>
  <g id="axes_1">
   <g id="patch_2">
    <path d="M 57.6 307.584 
L 414.72 307.584 
L 414.72 41.472 
L 57.6 41.472 
z
" style="fill: #e5e5e5"/>
   </g>
   <g id="matplotlib.axis_1">
    <g id="xtick_1">
     <g id="line2d_1">
      <path d="M 70.184923 307.584 
L 70.184923 41.472 
" clip-path="url(#pa42a0df160)" style="fill: none; stroke: #ffffff; stroke-width: 0.8; stroke-linecap: square"/>
     </g>
     <g id="line2d_2">
      <defs>
       <path id="m540fbcdc5b" d="M 0 0 
L 0 3.5 
" style="stroke: #555555; stroke-width: 0.8"/>
      </defs>
      <g>
       <use xlink:href="#m540fbcdc5b" x="70.184923" y="307.584" style="fill: #555555; stroke: #555555; stroke-width: 0.8"/>
      </g>
     </g>
     <g id="text_1">
      <!-- 0 -->
      <g style="fill: #555555" transform="translate(67.003673 322.182437) scale(0.1 -0.1)">
       <defs>
        <path id="DejaVuSans-30" d="M 2034 4250 
Q 1547 4250 1301 3770 
Q 1056 3291 1056 2328 
Q 1056 1369 1301 889 
Q 1547 409 2034 409 
Q 2525 409 2770 889 
Q 3016 1369 3016 2328 
Q 3016 3291 2770 3770 
Q 2525 4250 2034 4250 
z
M 2034 4750 
Q 2819 4750 3233 4129 
Q 3647 3509 3647 2328 
Q 3647 1150 3233 529 
Q 2819 -91 2034 -91 
Q 1250 -91 836 529 
Q 422 1150 422 2328 
Q 422 3509 836 4129 
Q 1250 4750 2034 4750 
z
" transform="scale(0.015625)"/>
       </defs>
       <use xlink:href="#DejaVuSans-30"/>
      </g>
     </g>
    </g>
    <g id="xtick_2">
     <g id="line2d_3">
      <path d="M 143.141001 307.584 
L 143.141001 41.472 
" clip-path="url(#pa42a0df160)" style="fill: none; stroke: #ffffff; stroke-width: 0.8; stroke-linecap: square"/>
     </g>
     <g id="line2d_4">
      <g>
       <use xlink:href="#m540fbcdc5b" x="143.141001" y="307.584" style="fill: #555555; stroke: #555555; stroke-width: 0.8"/>
      </g>
     </g>
     <g id="text_2">
      <!-- 20 -->
      <g style="fill: #555555" transform="translate(136.778501 322.182437) scale(0.1 -0.1)">
       <defs>
        <path id="DejaVuSans-32" d="M 1228 531 
L 3431 531 
L 3431 0 
L 469 0 
L 469 531 
Q 828 903 1448 1529 
Q 2069 2156 2228 2338 
Q 2531 2678 2651 2914 
Q 2772 3150 2772 3378 
Q 2772 3750 2511 3984 
Q 2250 4219 1831 4219 
Q 1534 4219 1204 4116 
Q 875 4013 500 3803 
L 500 4441 
Q 881 4594 1212 4672 
Q 1544 4750 1819 4750 
Q 2544 4750 2975 4387 
Q 3406 4025 3406 3419 
Q 3406 3131 3298 2873 
Q 3191 2616 2906 2266 
Q 2828 2175 2409 1742 
Q 1991 1309 1228 531 
z
" transform="scale(0.015625)"/>
       </defs>
       <use xlink:href="#DejaVuSans-32"/>
       <use xlink:href="#DejaVuSans-30" x="63.623047"/>
      </g>
     </g>
    </g>
    <g id="xtick_3">
     <g id="line2d_5">
      <path d="M 216.097079 307.584 
L 216.097079 41.472 
" clip-path="url(#pa42a0df160)" style="fill: none; stroke: #ffffff; stroke-width: 0.8; stroke-linecap: square"/>
     </g>
     <g id="line2d_6">
      <g>
       <use xlink:href="#m540fbcdc5b" x="216.097079" y="307.584" style="fill: #555555; stroke: #555555; stroke-width: 0.8"/>
      </g>
     </g>
     <g id="text_3">
      <!-- 40 -->
      <g style="fill: #555555" transform="translate(209.734579 322.182437) scale(0.1 -0.1)">
       <defs>
        <path id="DejaVuSans-34" d="M 2419 4116 
L 825 1625 
L 2419 1625 
L 2419 4116 
z
M 2253 4666 
L 3047 4666 
L 3047 1625 
L 3713 1625 
L 3713 1100 
L 3047 1100 
L 3047 0 
L 2419 0 
L 2419 1100 
L 313 1100 
L 313 1709 
L 2253 4666 
z
" transform="scale(0.015625)"/>
       </defs>
       <use xlink:href="#DejaVuSans-34"/>
       <use xlink:href="#DejaVuSans-30" x="63.623047"/>
      </g>
     </g>
    </g>
    <g id="xtick_4">
     <g id="line2d_7">
      <path d="M 289.053156 307.584 
L 289.053156 41.472 
" clip-path="url(#pa42a0df160)" style="fill: none; stroke: #ffffff; stroke-width: 0.8; stroke-linecap: square"/>
     </g>
     <g id="line2d_8">
      <g>
       <use xlink:href="#m540fbcdc5b" x="289.053156" y="307.584" style="fill: #555555; stroke: #555555; stroke-width: 0.8"/>
      </g>
     </g>
     <g id="text_4">
      <!-- 60 -->
      <g style="fill: #555555" transform="translate(282.690656 322.182437) scale(0.1 -0.1)">
       <defs>
        <path id="DejaVuSans-36" d="M 2113 2584 
Q 1688 2584 1439 2293 
Q 1191 2003 1191 1497 
Q 1191 994 1439 701 
Q 1688 409 2113 409 
Q 2538 409 2786 701 
Q 3034 994 3034 1497 
Q 3034 2003 2786 2293 
Q 2538 2584 2113 2584 
z
M 3366 4563 
L 3366 3988 
Q 3128 4100 2886 4159 
Q 2644 4219 2406 4219 
Q 1781 4219 1451 3797 
Q 1122 3375 1075 2522 
Q 1259 2794 1537 2939 
Q 1816 3084 2150 3084 
Q 2853 3084 3261 2657 
Q 3669 2231 3669 1497 
Q 3669 778 3244 343 
Q 2819 -91 2113 -91 
Q 1303 -91 875 529 
Q 447 1150 447 2328 
Q 447 3434 972 4092 
Q 1497 4750 2381 4750 
Q 2619 4750 2861 4703 
Q 3103 4656 3366 4563 
z
" transform="scale(0.015625)"/>
       </defs>
       <use xlink:href="#DejaVuSans-36"/>
       <use xlink:href="#DejaVuSans-30" x="63.623047"/>
      </g>
     </g>
    </g>
    <g id="xtick_5">
     <g id="line2d_9">
      <path d="M 362.009234 307.584 
L 362.009234 41.472 
" clip-path="url(#pa42a0df160)" style="fill: none; stroke: #ffffff; stroke-width: 0.8; stroke-linecap: square"/>
     </g>
     <g id="line2d_10">
      <g>
       <use xlink:href="#m540fbcdc5b" x="362.009234" y="307.584" style="fill: #555555; stroke: #555555; stroke-width: 0.8"/>
      </g>
     </g>
     <g id="text_5">
      <!-- 80 -->
      <g style="fill: #555555" transform="translate(355.646734 322.182437) scale(0.1 -0.1)">
       <defs>
        <path id="DejaVuSans-38" d="M 2034 2216 
Q 1584 2216 1326 1975 
Q 1069 1734 1069 1313 
Q 1069 891 1326 650 
Q 1584 409 2034 409 
Q 2484 409 2743 651 
Q 3003 894 3003 1313 
Q 3003 1734 2745 1975 
Q 2488 2216 2034 2216 
z
M 1403 2484 
Q 997 2584 770 2862 
Q 544 3141 544 3541 
Q 544 4100 942 4425 
Q 1341 4750 2034 4750 
Q 2731 4750 3128 4425 
Q 3525 4100 3525 3541 
Q 3525 3141 3298 2862 
Q 3072 2584 2669 2484 
Q 3125 2378 3379 2068 
Q 3634 1759 3634 1313 
Q 3634 634 3220 271 
Q 2806 -91 2034 -91 
Q 1263 -91 848 271 
Q 434 634 434 1313 
Q 434 1759 690 2068 
Q 947 2378 1403 2484 
z
M 1172 3481 
Q 1172 3119 1398 2916 
Q 1625 2713 2034 2713 
Q 2441 2713 2670 2916 
Q 2900 3119 2900 3481 
Q 2900 3844 2670 4047 
Q 2441 4250 2034 4250 
Q 1625 4250 1398 4047 
Q 1172 3844 1172 3481 
z
" transform="scale(0.015625)"/>
       </defs>
       <use xlink:href="#DejaVuSans-38"/>
       <use xlink:href="#DejaVuSans-30" x="63.623047"/>
      </g>
     </g>
    </g>
   </g>
   <g id="matplotlib.axis_2">
    <g id="ytick_1">
     <g id="line2d_11">
      <path d="M 57.6 283.365802 
L 414.72 283.365802 
" clip-path="url(#pa42a0df160)" style="fill: none; stroke: #ffffff; stroke-width: 0.8; stroke-linecap: square"/>
     </g>
     <g id="line2d_12">
      <defs>
       <path id="m634a074ae2" d="M 0 0 
L -3.5 0 
" style="stroke: #555555; stroke-width: 0.8"/>
      </defs>
      <g>
       <use xlink:href="#m634a074ae2" x="57.6" y="283.365802" style="fill: #555555; stroke: #555555; stroke-width: 0.8"/>
      </g>
     </g>
     <g id="text_6">
      <!-- 0.2 -->
      <g style="fill: #555555" transform="translate(34.696875 287.165021) scale(0.1 -0.1)">
       <defs>
        <path id="DejaVuSans-2e" d="M 684 794 
L 1344 794 
L 1344 0 
L 684 0 
L 684 794 
z
" transform="scale(0.015625)"/>
       </defs>
       <use xlink:href="#DejaVuSans-30"/>
       <use xlink:href="#DejaVuSans-2e" x="63.623047"/>
       <use xlink:href="#DejaVuSans-32" x="95.410156"/>
      </g>
     </g>
    </g>
    <g id="ytick_2">
     <g id="line2d_13">
      <path d="M 57.6 242.877783 
L 414.72 242.877783 
" clip-path="url(#pa42a0df160)" style="fill: none; stroke: #ffffff; stroke-width: 0.8; stroke-linecap: square"/>
     </g>
     <g id="line2d_14">
      <g>
       <use xlink:href="#m634a074ae2" x="57.6" y="242.877783" style="fill: #555555; stroke: #555555; stroke-width: 0.8"/>
      </g>
     </g>
     <g id="text_7">
      <!-- 0.4 -->
      <g style="fill: #555555" transform="translate(34.696875 246.677002) scale(0.1 -0.1)">
       <use xlink:href="#DejaVuSans-30"/>
       <use xlink:href="#DejaVuSans-2e" x="63.623047"/>
       <use xlink:href="#DejaVuSans-34" x="95.410156"/>
      </g>
     </g>
    </g>
    <g id="ytick_3">
     <g id="line2d_15">
      <path d="M 57.6 202.389763 
L 414.72 202.389763 
" clip-path="url(#pa42a0df160)" style="fill: none; stroke: #ffffff; stroke-width: 0.8; stroke-linecap: square"/>
     </g>
     <g id="line2d_16">
      <g>
       <use xlink:href="#m634a074ae2" x="57.6" y="202.389763" style="fill: #555555; stroke: #555555; stroke-width: 0.8"/>
      </g>
     </g>
     <g id="text_8">
      <!-- 0.6 -->
      <g style="fill: #555555" transform="translate(34.696875 206.188982) scale(0.1 -0.1)">
       <use xlink:href="#DejaVuSans-30"/>
       <use xlink:href="#DejaVuSans-2e" x="63.623047"/>
       <use xlink:href="#DejaVuSans-36" x="95.410156"/>
      </g>
     </g>
    </g>
    <g id="ytick_4">
     <g id="line2d_17">
      <path d="M 57.6 161.901744 
L 414.72 161.901744 
" clip-path="url(#pa42a0df160)" style="fill: none; stroke: #ffffff; stroke-width: 0.8; stroke-linecap: square"/>
     </g>
     <g id="line2d_18">
      <g>
       <use xlink:href="#m634a074ae2" x="57.6" y="161.901744" style="fill: #555555; stroke: #555555; stroke-width: 0.8"/>
      </g>
     </g>
     <g id="text_9">
      <!-- 0.8 -->
      <g style="fill: #555555" transform="translate(34.696875 165.700962) scale(0.1 -0.1)">
       <use xlink:href="#DejaVuSans-30"/>
       <use xlink:href="#DejaVuSans-2e" x="63.623047"/>
       <use xlink:href="#DejaVuSans-38" x="95.410156"/>
      </g>
     </g>
    </g>
    <g id="ytick_5">
     <g id="line2d_19">
      <path d="M 57.6 121.413724 
L 414.72 121.413724 
" clip-path="url(#pa42a0df160)" style="fill: none; stroke: #ffffff; stroke-width: 0.8; stroke-linecap: square"/>
     </g>
     <g id="line2d_20">
      <g>
       <use xlink:href="#m634a074ae2" x="57.6" y="121.413724" style="fill: #555555; stroke: #555555; stroke-width: 0.8"/>
      </g>
     </g>
     <g id="text_10">
      <!-- 1.0 -->
      <g style="fill: #555555" transform="translate(34.696875 125.212943) scale(0.1 -0.1)">
       <defs>
        <path id="DejaVuSans-31" d="M 794 531 
L 1825 531 
L 1825 4091 
L 703 3866 
L 703 4441 
L 1819 4666 
L 2450 4666 
L 2450 531 
L 3481 531 
L 3481 0 
L 794 0 
L 794 531 
z
" transform="scale(0.015625)"/>
       </defs>
       <use xlink:href="#DejaVuSans-31"/>
       <use xlink:href="#DejaVuSans-2e" x="63.623047"/>
       <use xlink:href="#DejaVuSans-30" x="95.410156"/>
      </g>
     </g>
    </g>
    <g id="ytick_6">
     <g id="line2d_21">
      <path d="M 57.6 80.925705 
L 414.72 80.925705 
" clip-path="url(#pa42a0df160)" style="fill: none; stroke: #ffffff; stroke-width: 0.8; stroke-linecap: square"/>
     </g>
     <g id="line2d_22">
      <g>
       <use xlink:href="#m634a074ae2" x="57.6" y="80.925705" style="fill: #555555; stroke: #555555; stroke-width: 0.8"/>
      </g>
     </g>
     <g id="text_11">
      <!-- 1.2 -->
      <g style="fill: #555555" transform="translate(34.696875 84.724923) scale(0.1 -0.1)">
       <use xlink:href="#DejaVuSans-31"/>
       <use xlink:href="#DejaVuSans-2e" x="63.623047"/>
       <use xlink:href="#DejaVuSans-32" x="95.410156"/>
      </g>
     </g>
    </g>
   </g>
   <g id="line2d_23">
    <path d="M 73.832727 188.175912 
L 77.480531 188.797716 
L 81.128335 189.344347 
L 84.776139 189.922918 
L 88.423943 190.38471 
L 92.071747 190.921808 
L 95.719551 192.010508 
L 99.367354 192.23113 
L 103.015158 192.707039 
L 106.662962 193.831553 
L 110.310766 194.018449 
L 113.95857 194.971849 
L 117.606374 195.02803 
L 121.254178 196.460236 
L 124.901982 196.631506 
L 128.549785 197.450691 
L 132.197589 197.828357 
L 135.845393 198.159675 
L 139.493197 198.938294 
L 143.141001 199.499899 
L 146.788805 200.647857 
L 150.436609 201.030808 
L 154.084413 201.17202 
L 157.732217 202.193318 
L 161.38002 202.435852 
L 165.027824 203.346549 
L 168.675628 203.309361 
L 172.323432 204.244758 
L 175.971236 204.703726 
L 179.61904 206.099335 
L 183.266844 205.612481 
L 186.914648 207.3205 
L 190.562451 207.252554 
L 194.210255 208.323143 
L 197.858059 209.992826 
L 201.505863 209.734437 
L 205.153667 210.594045 
L 208.801471 211.418396 
L 212.449275 211.234347 
L 216.097079 213.456599 
L 219.744883 213.208092 
L 223.392686 214.004424 
L 227.04049 215.378168 
L 230.688294 215.439936 
L 234.336098 216.776323 
L 237.983902 216.166102 
L 241.631706 217.499653 
L 245.27951 218.667654 
L 248.927314 218.971678 
L 252.575117 220.293887 
L 256.222921 220.624541 
L 259.870725 221.348113 
L 263.518529 223.115849 
L 267.166333 222.747553 
L 270.814137 223.416235 
L 274.461941 224.56035 
L 278.109745 225.27553 
L 281.757549 225.888049 
L 285.405352 227.121968 
L 289.053156 226.858873 
L 292.70096 227.933166 
L 296.348764 228.515121 
L 299.996568 229.509064 
L 303.644372 230.939761 
L 307.292176 231.229155 
L 310.93998 231.702875 
L 314.587783 232.715768 
L 318.235587 233.544125 
L 321.883391 234.383063 
L 325.531195 235.207437 
L 329.178999 235.60503 
L 332.826803 236.7511 
L 336.474607 236.936054 
L 340.122411 238.298787 
L 343.770215 238.734757 
L 347.418018 239.727445 
L 351.065822 239.393949 
L 354.713626 241.052387 
L 358.36143 241.884943 
L 362.009234 241.983664 
L 365.657038 242.984629 
L 369.304842 243.141993 
L 372.952646 244.104316 
L 376.600449 245.435569 
L 380.248253 246.599756 
L 383.896057 246.31648 
L 387.543861 247.255563 
L 391.191665 248.003443 
L 394.839469 248.537832 
L 398.487273 248.646912 
" clip-path="url(#pa42a0df160)" style="fill: none; stroke: #ff00ff; stroke-opacity: 0.3; stroke-width: 0.5; stroke-linecap: square"/>
   </g>
   <g id="line2d_24">
    <path d="M 73.832727 188.685801 
L 77.480531 189.123967 
L 81.128335 189.058024 
L 84.776139 189.553119 
L 88.423943 190.249059 
L 92.071747 190.59861 
L 95.719551 190.353096 
L 99.367354 190.245934 
L 103.015158 190.96614 
L 106.662962 191.166079 
L 110.310766 191.902599 
L 113.95857 192.737447 
L 117.606374 193.002834 
L 121.254178 193.73034 
L 124.901982 193.358587 
L 128.549785 193.882955 
L 132.197589 194.2998 
L 135.845393 194.677104 
L 139.493197 194.47714 
L 143.141001 194.541297 
L 146.788805 195.778775 
L 150.436609 195.953931 
L 154.084413 196.766408 
L 157.732217 196.285334 
L 161.38002 196.960037 
L 165.027824 197.299789 
L 168.675628 196.482474 
L 172.323432 197.620984 
L 175.971236 197.418112 
L 179.61904 198.250076 
L 183.266844 198.494529 
L 186.914648 198.81179 
L 190.562451 199.540056 
L 194.210255 199.637625 
L 197.858059 199.653383 
L 201.505863 200.26796 
L 205.153667 200.541914 
L 208.801471 201.361052 
L 212.449275 201.706802 
L 216.097079 201.92571 
L 219.744883 202.785608 
L 223.392686 202.361825 
L 227.04049 203.681946 
L 230.688294 203.888124 
L 234.336098 203.574604 
L 237.983902 203.619575 
L 241.631706 204.715406 
L 245.27951 204.830942 
L 248.927314 205.431461 
L 252.575117 205.900034 
L 256.222921 205.270073 
L 259.870725 206.507009 
L 263.518529 206.362394 
L 267.166333 206.760089 
L 270.814137 207.897803 
L 274.461941 208.36996 
L 278.109745 207.923685 
L 281.757549 207.801755 
L 285.405352 209.177985 
L 289.053156 209.434286 
L 292.70096 209.18987 
L 296.348764 210.104344 
L 299.996568 210.190956 
L 303.644372 210.594118 
L 307.292176 211.269376 
L 310.93998 210.944248 
L 314.587783 211.848912 
L 318.235587 211.666287 
L 321.883391 212.420291 
L 325.531195 213.352152 
L 329.178999 212.603012 
L 332.826803 213.244025 
L 336.474607 213.607694 
L 340.122411 213.83897 
L 343.770215 214.501993 
L 347.418018 214.060255 
L 351.065822 216.010289 
L 354.713626 215.663091 
L 358.36143 215.340244 
L 362.009234 216.192769 
L 365.657038 216.009372 
L 369.304842 216.695587 
L 372.952646 216.585674 
L 376.600449 217.895587 
L 380.248253 217.781729 
L 383.896057 218.004293 
L 387.543861 218.253017 
L 391.191665 218.759081 
L 394.839469 219.825446 
L 398.487273 218.621995 
" clip-path="url(#pa42a0df160)" style="fill: none; stroke: #ff00ff; stroke-opacity: 0.3; stroke-width: 0.5; stroke-linecap: square"/>
   </g>
   <g id="line2d_25">
    <path d="M 73.832727 186.296479 
L 77.480531 185.899869 
L 81.128335 187.628835 
L 84.776139 187.671345 
L 88.423943 188.039888 
L 92.071747 188.929167 
L 95.719551 189.34851 
L 99.367354 190.668957 
L 103.015158 191.06991 
L 106.662962 192.344771 
L 110.310766 191.853959 
L 113.95857 192.778955 
L 117.606374 194.022069 
L 121.254178 194.973055 
L 124.901982 195.344579 
L 128.549785 196.141189 
L 132.197589 196.833135 
L 135.845393 197.404357 
L 139.493197 197.935965 
L 143.141001 199.402789 
L 146.788805 199.746379 
L 150.436609 201.217209 
L 154.084413 200.492418 
L 157.732217 202.120184 
L 161.38002 201.896171 
L 165.027824 203.969246 
L 168.675628 204.022628 
L 172.323432 204.770007 
L 175.971236 205.536209 
L 179.61904 206.687401 
L 183.266844 206.676312 
L 186.914648 207.651166 
L 190.562451 208.720524 
L 194.210255 208.595553 
L 197.858059 209.324362 
L 201.505863 211.242746 
L 205.153667 211.074022 
L 208.801471 212.279343 
L 212.449275 212.210179 
L 216.097079 212.984671 
L 219.744883 213.761793 
L 223.392686 215.168986 
L 227.04049 215.735743 
L 230.688294 216.695309 
L 234.336098 216.8719 
L 237.983902 218.173222 
L 241.631706 217.638851 
L 245.27951 218.608806 
L 248.927314 219.082483 
L 252.575117 220.407817 
L 256.222921 220.828391 
L 259.870725 221.775987 
L 263.518529 222.525767 
L 267.166333 222.349308 
L 270.814137 223.877454 
L 274.461941 224.226655 
L 278.109745 225.362209 
L 281.757549 226.044176 
L 285.405352 226.163663 
L 289.053156 227.497069 
L 292.70096 228.193335 
L 296.348764 228.370071 
L 299.996568 229.418084 
L 303.644372 230.743592 
L 307.292176 230.162018 
L 310.93998 230.823755 
L 314.587783 231.460287 
L 318.235587 232.262718 
L 321.883391 234.084312 
L 325.531195 233.890888 
L 329.178999 234.945652 
L 332.826803 236.271172 
L 336.474607 235.85846 
L 340.122411 236.896494 
L 343.770215 237.406419 
L 347.418018 237.960983 
L 351.065822 238.517768 
L 354.713626 240.105038 
L 358.36143 239.468187 
L 362.009234 240.273678 
L 365.657038 240.63068 
L 369.304842 241.82627 
L 372.952646 242.426373 
L 376.600449 243.193733 
L 380.248253 243.331369 
L 383.896057 243.932515 
L 387.543861 244.533559 
L 391.191665 245.561198 
L 394.839469 246.533029 
L 398.487273 247.45712 
" clip-path="url(#pa42a0df160)" style="fill: none; stroke: #ff00ff; stroke-opacity: 0.3; stroke-width: 0.5; stroke-linecap: square"/>
   </g>
   <g id="line2d_26">
    <path d="M 73.832727 187.40714 
L 77.480531 188.306314 
L 81.128335 188.732305 
L 84.776139 189.859919 
L 88.423943 190.281747 
L 92.071747 190.060547 
L 95.719551 191.783974 
L 99.367354 192.31621 
L 103.015158 192.77922 
L 106.662962 192.937374 
L 110.310766 193.786328 
L 113.95857 194.812175 
L 117.606374 195.736857 
L 121.254178 196.202063 
L 124.901982 197.685491 
L 128.549785 197.310758 
L 132.197589 197.962402 
L 135.845393 198.493515 
L 139.493197 199.765275 
L 143.141001 200.451586 
L 146.788805 201.150651 
L 150.436609 201.87193 
L 154.084413 202.334519 
L 157.732217 203.206929 
L 161.38002 203.073958 
L 165.027824 203.860178 
L 168.675628 204.791883 
L 172.323432 205.796155 
L 175.971236 205.84792 
L 179.61904 206.933591 
L 183.266844 207.893737 
L 186.914648 208.311933 
L 190.562451 208.215595 
L 194.210255 210.578504 
L 197.858059 210.179204 
L 201.505863 210.428953 
L 205.153667 211.52178 
L 208.801471 212.263524 
L 212.449275 212.045461 
L 216.097079 213.529118 
L 219.744883 214.469257 
L 223.392686 215.509076 
L 227.04049 215.218506 
L 230.688294 217.040516 
L 234.336098 217.526416 
L 237.983902 217.802519 
L 241.631706 218.198296 
L 245.27951 218.772329 
L 248.927314 219.504589 
L 252.575117 220.063081 
L 256.222921 221.150394 
L 259.870725 221.906726 
L 263.518529 222.616241 
L 267.166333 222.592699 
L 270.814137 222.437996 
L 274.461941 223.692669 
L 278.109745 225.053943 
L 281.757549 225.476465 
L 285.405352 226.600091 
L 289.053156 226.981558 
L 292.70096 227.70119 
L 296.348764 227.37611 
L 299.996568 228.202644 
L 303.644372 229.455236 
L 307.292176 228.879815 
L 310.93998 230.121408 
L 314.587783 231.05663 
L 318.235587 231.469934 
L 321.883391 232.879539 
L 325.531195 232.422773 
L 329.178999 233.158514 
L 332.826803 234.786858 
L 336.474607 234.66868 
L 340.122411 235.122961 
L 343.770215 235.515033 
L 347.418018 236.614545 
L 351.065822 236.845942 
L 354.713626 237.696627 
L 358.36143 238.947427 
L 362.009234 238.313098 
L 365.657038 239.62531 
L 369.304842 240.06867 
L 372.952646 241.759657 
L 376.600449 240.871241 
L 380.248253 242.282982 
L 383.896057 241.559965 
L 387.543861 242.243296 
L 391.191665 243.434289 
L 394.839469 244.242277 
L 398.487273 244.354723 
" clip-path="url(#pa42a0df160)" style="fill: none; stroke: #ff00ff; stroke-opacity: 0.3; stroke-width: 0.5; stroke-linecap: square"/>
   </g>
   <g id="line2d_27">
    <path d="M 73.832727 195.936857 
L 77.480531 198.636598 
L 81.128335 201.39993 
L 84.776139 204.21382 
L 88.423943 206.533519 
L 92.071747 210.159523 
L 95.719551 212.937347 
L 99.367354 214.852328 
L 103.015158 217.980715 
L 106.662962 219.090339 
L 110.310766 221.891028 
L 113.95857 223.618347 
L 117.606374 224.897738 
L 121.254178 227.097793 
L 124.901982 228.524925 
L 128.549785 230.298512 
L 132.197589 231.625548 
L 135.845393 233.62684 
L 139.493197 234.747787 
L 143.141001 235.953055 
L 146.788805 236.939022 
L 150.436609 237.46415 
L 154.084413 239.040362 
L 157.732217 240.897503 
L 161.38002 241.783084 
L 165.027824 243.143399 
L 168.675628 243.59672 
L 172.323432 245.497475 
L 175.971236 245.737137 
L 179.61904 246.92013 
L 183.266844 247.490375 
L 186.914648 248.679823 
L 190.562451 249.509428 
L 194.210255 250.581326 
L 197.858059 252.091547 
L 201.505863 253.256229 
L 205.153667 253.817147 
L 208.801471 255.535742 
L 212.449275 255.893304 
L 216.097079 257.255332 
L 219.744883 258.146283 
L 223.392686 259.069191 
L 227.04049 259.72194 
L 230.688294 261.28305 
L 234.336098 261.699901 
L 237.983902 262.596396 
L 241.631706 263.697495 
L 245.27951 264.655408 
L 248.927314 265.284403 
L 252.575117 265.915873 
L 256.222921 267.193876 
L 259.870725 268.301847 
L 263.518529 268.958342 
L 267.166333 270.21824 
L 270.814137 270.772816 
L 274.461941 270.888937 
L 278.109745 272.211308 
L 281.757549 273.178627 
L 285.405352 273.651768 
L 289.053156 274.297505 
L 292.70096 274.777258 
L 296.348764 275.659964 
L 299.996568 276.247959 
L 303.644372 277.1722 
L 307.292176 277.662535 
L 310.93998 278.560611 
L 314.587783 279.074497 
L 318.235587 279.797284 
L 321.883391 280.939264 
L 325.531195 281.545768 
L 329.178999 282.093482 
L 332.826803 282.581988 
L 336.474607 282.220254 
L 340.122411 283.641461 
L 343.770215 284.753721 
L 347.418018 285.306101 
L 351.065822 285.291634 
L 354.713626 286.253127 
L 358.36143 285.875546 
L 362.009234 286.577867 
L 365.657038 287.680307 
L 369.304842 288.318935 
L 372.952646 288.450706 
L 376.600449 289.24813 
L 380.248253 289.766423 
L 383.896057 289.959102 
L 387.543861 290.219931 
L 391.191665 290.445959 
L 394.839469 291.467501 
L 398.487273 291.856415 
" clip-path="url(#pa42a0df160)" style="fill: none; stroke: #ff00ff; stroke-opacity: 0.3; stroke-width: 0.5; stroke-linecap: square"/>
   </g>
   <g id="line2d_28">
    <path d="M 73.832727 173.582325 
L 77.480531 176.16775 
L 81.128335 179.185911 
L 84.776139 181.961913 
L 88.423943 183.890288 
L 92.071747 186.545722 
L 95.719551 188.915122 
L 99.367354 190.661066 
L 103.015158 192.327649 
L 106.662962 193.617652 
L 110.310766 195.388814 
L 113.95857 196.2908 
L 117.606374 197.276586 
L 121.254178 199.327519 
L 124.901982 199.535881 
L 128.549785 200.215362 
L 132.197589 201.334301 
L 135.845393 203.218742 
L 139.493197 203.212673 
L 143.141001 203.891575 
L 146.788805 204.224848 
L 150.436609 205.205567 
L 154.084413 206.532373 
L 157.732217 206.572698 
L 161.38002 207.386297 
L 165.027824 207.415884 
L 168.675628 208.780856 
L 172.323432 208.727173 
L 175.971236 209.825912 
L 179.61904 210.698275 
L 183.266844 210.363698 
L 186.914648 211.78648 
L 190.562451 211.784924 
L 194.210255 212.425938 
L 197.858059 213.34262 
L 201.505863 214.266493 
L 205.153667 214.284991 
L 208.801471 215.019978 
L 212.449275 215.330204 
L 216.097079 216.060835 
L 219.744883 216.903949 
L 223.392686 217.031249 
L 227.04049 218.535744 
L 230.688294 217.981717 
L 234.336098 218.65677 
L 237.983902 218.987956 
L 241.631706 220.305784 
L 245.27951 219.965066 
L 248.927314 220.38786 
L 252.575117 221.417495 
L 256.222921 221.385893 
L 259.870725 222.514823 
L 263.518529 223.097743 
L 267.166333 223.25533 
L 270.814137 223.489828 
L 274.461941 223.773212 
L 278.109745 225.023886 
L 281.757549 225.069605 
L 285.405352 225.182685 
L 289.053156 225.326993 
L 292.70096 225.802891 
L 296.348764 226.512948 
L 299.996568 227.061733 
L 303.644372 227.699247 
L 307.292176 228.106439 
L 310.93998 228.172792 
L 314.587783 228.715978 
L 318.235587 229.158096 
L 321.883391 229.63932 
L 325.531195 229.611314 
L 329.178999 230.297185 
L 332.826803 230.628515 
L 336.474607 231.101861 
L 340.122411 231.157596 
L 343.770215 231.60171 
L 347.418018 232.547092 
L 351.065822 232.39619 
L 354.713626 233.033609 
L 358.36143 233.127539 
L 362.009234 233.703974 
L 365.657038 233.863877 
L 369.304842 234.653344 
L 372.952646 234.756686 
L 376.600449 235.371854 
L 380.248253 235.399064 
L 383.896057 235.751776 
L 387.543861 235.951034 
L 391.191665 236.224838 
L 394.839469 236.88558 
L 398.487273 236.887034 
" clip-path="url(#pa42a0df160)" style="fill: none; stroke: #ff00ff; stroke-opacity: 0.3; stroke-width: 0.5; stroke-linecap: square"/>
   </g>
   <g id="line2d_29">
    <path d="M 73.832727 183.233056 
L 77.480531 183.951838 
L 81.128335 183.989835 
L 84.776139 183.896647 
L 88.423943 182.968598 
L 92.071747 184.465335 
L 95.719551 184.420098 
L 99.367354 184.846294 
L 103.015158 184.261232 
L 106.662962 186.095055 
L 110.310766 185.886487 
L 113.95857 185.548895 
L 117.606374 185.033359 
L 121.254178 185.158741 
L 124.901982 185.436533 
L 128.549785 184.079235 
L 132.197589 185.902813 
L 135.845393 186.691194 
L 139.493197 186.984274 
L 143.141001 186.073202 
L 146.788805 187.171218 
L 150.436609 187.470802 
L 154.084413 187.675737 
L 157.732217 188.141402 
L 161.38002 187.430971 
L 165.027824 188.634664 
L 168.675628 187.695224 
L 172.323432 188.920781 
L 175.971236 188.654742 
L 179.61904 186.854367 
L 183.266844 188.786241 
L 186.914648 189.721385 
L 190.562451 189.197692 
L 194.210255 189.666724 
L 197.858059 189.581017 
L 201.505863 189.77204 
L 205.153667 190.10956 
L 208.801471 189.899292 
L 212.449275 189.960734 
L 216.097079 190.086851 
L 219.744883 190.624794 
L 223.392686 190.763606 
L 227.04049 190.32001 
L 230.688294 191.05455 
L 234.336098 191.053802 
L 237.983902 191.420969 
L 241.631706 191.7777 
L 245.27951 191.086152 
L 248.927314 192.457603 
L 252.575117 191.884294 
L 256.222921 192.982177 
L 259.870725 192.502285 
L 263.518529 192.723932 
L 267.166333 192.756041 
L 270.814137 193.276053 
L 274.461941 192.771112 
L 278.109745 193.472699 
L 281.757549 192.779619 
L 285.405352 194.374395 
L 289.053156 194.525767 
L 292.70096 194.451016 
L 296.348764 194.157779 
L 299.996568 194.373912 
L 303.644372 195.2247 
L 307.292176 194.735553 
L 310.93998 195.389212 
L 314.587783 194.622805 
L 318.235587 195.026703 
L 321.883391 195.398504 
L 325.531195 196.057412 
L 329.178999 195.934395 
L 332.826803 196.333768 
L 336.474607 195.770679 
L 340.122411 196.431554 
L 343.770215 196.596163 
L 347.418018 196.509865 
L 351.065822 196.787041 
L 354.713626 195.977545 
L 358.36143 198.048001 
L 362.009234 197.118577 
L 365.657038 197.782094 
L 369.304842 197.124236 
L 372.952646 198.399555 
L 376.600449 198.06534 
L 380.248253 198.769558 
L 383.896057 197.782094 
L 387.543861 198.677841 
L 391.191665 198.94528 
L 394.839469 198.638951 
L 398.487273 198.338028 
" clip-path="url(#pa42a0df160)" style="fill: none; stroke: #ff00ff; stroke-opacity: 0.3; stroke-width: 0.5; stroke-linecap: square"/>
   </g>
   <g id="line2d_30">
    <path d="M 73.832727 187.007791 
L 77.480531 187.645149 
L 81.128335 187.35447 
L 84.776139 188.812027 
L 88.423943 190.628486 
L 92.071747 191.663129 
L 95.719551 191.639769 
L 99.367354 193.913568 
L 103.015158 193.333537 
L 106.662962 193.847408 
L 110.310766 195.301188 
L 113.95857 194.881544 
L 117.606374 196.109732 
L 121.254178 197.67918 
L 124.901982 197.788031 
L 128.549785 198.253588 
L 132.197589 199.224327 
L 135.845393 199.899718 
L 139.493197 199.076526 
L 143.141001 200.582578 
L 146.788805 201.213336 
L 150.436609 201.99561 
L 154.084413 203.041306 
L 157.732217 202.41406 
L 161.38002 203.910592 
L 165.027824 204.321572 
L 168.675628 203.546694 
L 172.323432 204.612372 
L 175.971236 204.678833 
L 179.61904 205.611262 
L 183.266844 206.947564 
L 186.914648 207.014472 
L 190.562451 207.836639 
L 194.210255 206.93475 
L 197.858059 208.740253 
L 201.505863 208.849984 
L 205.153667 208.696259 
L 208.801471 210.029701 
L 212.449275 210.098733 
L 216.097079 210.191053 
L 219.744883 211.276278 
L 223.392686 211.770927 
L 227.04049 211.898686 
L 230.688294 212.382028 
L 234.336098 212.888755 
L 237.983902 213.126873 
L 241.631706 213.704744 
L 245.27951 214.538192 
L 248.927314 215.603182 
L 252.575117 215.224829 
L 256.222921 215.23342 
L 259.870725 216.471104 
L 263.518529 217.015116 
L 267.166333 217.952166 
L 270.814137 218.523593 
L 274.461941 218.420329 
L 278.109745 218.949934 
L 281.757549 219.626399 
L 285.405352 220.562532 
L 289.053156 219.917175 
L 292.70096 220.550007 
L 296.348764 221.250895 
L 299.996568 221.704783 
L 303.644372 222.486563 
L 307.292176 222.475523 
L 310.93998 223.491028 
L 314.587783 222.941972 
L 318.235587 223.674902 
L 321.883391 224.300127 
L 325.531195 226.168327 
L 329.178999 224.680302 
L 332.826803 225.610378 
L 336.474607 225.732055 
L 340.122411 227.091651 
L 343.770215 226.613968 
L 347.418018 227.603947 
L 351.065822 227.926843 
L 354.713626 227.562143 
L 358.36143 228.329607 
L 362.009234 229.150699 
L 365.657038 230.214404 
L 369.304842 230.877475 
L 372.952646 230.504009 
L 376.600449 231.243436 
L 380.248253 232.582791 
L 383.896057 232.366561 
L 387.543861 232.705518 
L 391.191665 232.618013 
L 394.839469 233.021838 
L 398.487273 233.896203 
" clip-path="url(#pa42a0df160)" style="fill: none; stroke: #ff00ff; stroke-opacity: 0.3; stroke-width: 0.5; stroke-linecap: square"/>
   </g>
   <g id="line2d_31">
    <path d="M 73.832727 161.214525 
L 77.480531 164.182708 
L 81.128335 166.38073 
L 84.776139 168.684996 
L 88.423943 170.763464 
L 92.071747 172.401522 
L 95.719551 172.124599 
L 99.367354 174.494917 
L 103.015158 177.411648 
L 106.662962 178.758316 
L 110.310766 180.0965 
L 113.95857 181.870655 
L 117.606374 182.291409 
L 121.254178 184.531494 
L 124.901982 186.77485 
L 128.549785 187.543128 
L 132.197589 189.811328 
L 135.845393 190.424517 
L 139.493197 191.950538 
L 143.141001 193.032481 
L 146.788805 194.807336 
L 150.436609 196.736531 
L 154.084413 196.542299 
L 157.732217 197.722474 
L 161.38002 199.921232 
L 165.027824 200.797794 
L 168.675628 201.194946 
L 172.323432 202.600956 
L 175.971236 204.27321 
L 179.61904 205.37557 
L 183.266844 206.159944 
L 186.914648 206.831824 
L 190.562451 207.824777 
L 194.210255 208.944283 
L 197.858059 210.16902 
L 201.505863 211.196266 
L 205.153667 212.599886 
L 208.801471 212.904936 
L 212.449275 213.271863 
L 216.097079 214.580485 
L 219.744883 215.263984 
L 223.392686 217.118682 
L 227.04049 217.556534 
L 230.688294 218.553156 
L 234.336098 219.590453 
L 237.983902 220.227956 
L 241.631706 220.562267 
L 245.27951 222.325381 
L 248.927314 223.185532 
L 252.575117 223.90622 
L 256.222921 224.839524 
L 259.870725 225.453949 
L 263.518529 226.995488 
L 267.166333 228.199398 
L 270.814137 228.30183 
L 274.461941 229.393076 
L 278.109745 229.856883 
L 281.757549 230.80422 
L 285.405352 232.10486 
L 289.053156 232.837735 
L 292.70096 233.017928 
L 296.348764 234.217639 
L 299.996568 235.313139 
L 303.644372 236.269978 
L 307.292176 237.153646 
L 310.93998 237.498684 
L 314.587783 239.328187 
L 318.235587 239.126365 
L 321.883391 239.849074 
L 325.531195 241.592882 
L 329.178999 241.840351 
L 332.826803 242.941311 
L 336.474607 243.343151 
L 340.122411 243.203984 
L 343.770215 245.51663 
L 347.418018 246.375303 
L 351.065822 246.691569 
L 354.713626 247.425735 
L 358.36143 247.865102 
L 362.009234 248.512324 
L 365.657038 249.627842 
L 369.304842 250.350575 
L 372.952646 250.968271 
L 376.600449 251.745598 
L 380.248253 253.095632 
L 383.896057 254.190993 
L 387.543861 253.916181 
L 391.191665 255.085093 
L 394.839469 255.701298 
L 398.487273 256.346179 
" clip-path="url(#pa42a0df160)" style="fill: none; stroke: #ff00ff; stroke-opacity: 0.3; stroke-width: 0.5; stroke-linecap: square"/>
   </g>
   <g id="line2d_32">
    <path d="M 73.832727 165.210123 
L 77.480531 168.990468 
L 81.128335 175.127267 
L 84.776139 178.065597 
L 88.423943 184.125618 
L 92.071747 188.401216 
L 95.719551 191.015334 
L 99.367354 194.570654 
L 103.015158 196.651572 
L 106.662962 200.768123 
L 110.310766 202.762428 
L 113.95857 204.593271 
L 117.606374 207.128608 
L 121.254178 208.236325 
L 124.901982 209.886956 
L 128.549785 211.307964 
L 132.197589 214.406644 
L 135.845393 215.084183 
L 139.493197 216.254066 
L 143.141001 218.002978 
L 146.788805 220.058315 
L 150.436609 221.591685 
L 154.084413 221.277417 
L 157.732217 222.568989 
L 161.38002 223.985466 
L 165.027824 225.778969 
L 168.675628 226.841612 
L 172.323432 228.81161 
L 175.971236 228.279416 
L 179.61904 229.560165 
L 183.266844 231.170302 
L 186.914648 232.194839 
L 190.562451 232.942369 
L 194.210255 234.696602 
L 197.858059 235.424192 
L 201.505863 236.341206 
L 205.153667 237.190714 
L 208.801471 238.055028 
L 212.449275 238.821243 
L 216.097079 239.93909 
L 219.744883 240.104151 
L 223.392686 242.249673 
L 227.04049 242.675887 
L 230.688294 243.74513 
L 234.336098 245.49216 
L 237.983902 245.614712 
L 241.631706 246.813343 
L 245.27951 247.519473 
L 248.927314 248.157422 
L 252.575117 249.1443 
L 256.222921 250.664023 
L 259.870725 250.966219 
L 263.518529 252.086823 
L 267.166333 252.810546 
L 270.814137 254.06423 
L 274.461941 253.741931 
L 278.109745 255.345859 
L 281.757549 255.12785 
L 285.405352 256.818554 
L 289.053156 257.430222 
L 292.70096 258.826247 
L 296.348764 258.812763 
L 299.996568 259.587526 
L 303.644372 259.976148 
L 307.292176 261.687841 
L 310.93998 262.274996 
L 314.587783 262.715286 
L 318.235587 263.753766 
L 321.883391 264.251251 
L 325.531195 265.072808 
L 329.178999 265.301652 
L 332.826803 266.237182 
L 336.474607 266.106347 
L 340.122411 267.051083 
L 343.770215 268.163283 
L 347.418018 268.616453 
L 351.065822 269.904544 
L 354.713626 270.707495 
L 358.36143 270.296249 
L 362.009234 271.511586 
L 365.657038 271.946084 
L 369.304842 272.039145 
L 372.952646 272.898711 
L 376.600449 274.17565 
L 380.248253 274.538377 
L 383.896057 275.049841 
L 387.543861 275.356417 
L 391.191665 275.803129 
L 394.839469 277.04335 
L 398.487273 277.01928 
" clip-path="url(#pa42a0df160)" style="fill: none; stroke: #ff00ff; stroke-opacity: 0.3; stroke-width: 0.5; stroke-linecap: square"/>
   </g>
   <g id="line2d_33">
    <path d="M 73.832727 154.037279 
L 77.480531 157.102596 
L 81.128335 160.129734 
L 84.776139 160.626109 
L 88.423943 162.763485 
L 92.071747 162.931473 
L 95.719551 165.338943 
L 99.367354 167.958757 
L 103.015158 170.152966 
L 106.662962 170.949769 
L 110.310766 172.917372 
L 113.95857 174.821964 
L 117.606374 174.342905 
L 121.254178 177.507781 
L 124.901982 177.51408 
L 128.549785 179.401357 
L 132.197589 181.677557 
L 135.845393 182.571071 
L 139.493197 183.818818 
L 143.141001 184.081865 
L 146.788805 185.110897 
L 150.436609 187.166548 
L 154.084413 187.717981 
L 157.732217 189.093451 
L 161.38002 189.816854 
L 165.027824 188.59733 
L 168.675628 190.942659 
L 172.323432 193.536023 
L 175.971236 193.86097 
L 179.61904 196.027656 
L 183.266844 196.449714 
L 186.914648 197.785702 
L 190.562451 197.6254 
L 194.210255 199.595609 
L 197.858059 200.046071 
L 201.505863 200.829287 
L 205.153667 202.248027 
L 208.801471 204.289367 
L 212.449275 204.826164 
L 216.097079 204.030097 
L 219.744883 205.533555 
L 223.392686 207.633743 
L 227.04049 208.442672 
L 230.688294 209.710099 
L 234.336098 208.399378 
L 237.983902 210.808163 
L 241.631706 212.237063 
L 245.27951 212.193684 
L 248.927314 214.299941 
L 252.575117 214.632213 
L 256.222921 215.520165 
L 259.870725 215.821426 
L 263.518529 214.914035 
L 267.166333 216.515025 
L 270.814137 217.545952 
L 274.461941 218.577325 
L 278.109745 220.422683 
L 281.757549 220.745181 
L 285.405352 221.224674 
L 289.053156 220.93192 
L 292.70096 222.756542 
L 296.348764 223.35057 
L 299.996568 223.883885 
L 303.644372 225.829274 
L 307.292176 226.165069 
L 310.93998 227.277558 
L 314.587783 227.208816 
L 318.235587 227.805992 
L 321.883391 228.487332 
L 325.531195 229.765987 
L 329.178999 231.081915 
L 332.826803 231.807026 
L 336.474607 232.307647 
L 340.122411 233.116462 
L 343.770215 233.960565 
L 347.418018 233.483033 
L 351.065822 234.223998 
L 354.713626 235.387082 
L 358.36143 235.461797 
L 362.009234 236.510642 
L 365.657038 238.265019 
L 369.304842 237.856935 
L 372.952646 238.722576 
L 376.600449 239.090956 
L 380.248253 240.484864 
L 383.896057 240.08759 
L 387.543861 241.345588 
L 391.191665 241.209648 
L 394.839469 242.783018 
L 398.487273 242.548569 
" clip-path="url(#pa42a0df160)" style="fill: none; stroke: #ff00ff; stroke-opacity: 0.3; stroke-width: 0.5; stroke-linecap: square"/>
   </g>
   <g id="line2d_34">
    <path d="M 73.832727 197.455506 
L 77.480531 200.420104 
L 81.128335 202.222675 
L 84.776139 203.836516 
L 88.423943 207.245688 
L 92.071747 210.213557 
L 95.719551 212.094354 
L 99.367354 213.886029 
L 103.015158 216.06133 
L 106.662962 217.601421 
L 110.310766 220.18395 
L 113.95857 221.940584 
L 117.606374 223.827415 
L 121.254178 225.378172 
L 124.901982 227.344568 
L 128.549785 228.924509 
L 132.197589 230.680938 
L 135.845393 232.591147 
L 139.493197 233.387069 
L 143.141001 234.736523 
L 146.788805 236.454056 
L 150.436609 237.736953 
L 154.084413 239.16435 
L 157.732217 240.700538 
L 161.38002 242.481076 
L 165.027824 243.43275 
L 168.675628 244.546549 
L 172.323432 246.001717 
L 175.971236 247.095527 
L 179.61904 248.744167 
L 183.266844 249.049977 
L 186.914648 250.921857 
L 190.562451 252.672802 
L 194.210255 252.59828 
L 197.858059 254.054902 
L 201.505863 255.501594 
L 205.153667 256.690343 
L 208.801471 257.842663 
L 212.449275 258.62063 
L 216.097079 260.1441 
L 219.744883 260.931098 
L 223.392686 262.438767 
L 227.04049 262.729977 
L 230.688294 264.071637 
L 234.336098 265.018654 
L 237.983902 265.951595 
L 241.631706 266.866486 
L 245.27951 268.041913 
L 248.927314 268.714203 
L 252.575117 269.969896 
L 256.222921 270.991489 
L 259.870725 271.55316 
L 263.518529 272.437921 
L 267.166333 273.289258 
L 270.814137 274.202839 
L 274.461941 275.084688 
L 278.109745 275.739898 
L 281.757549 276.399832 
L 285.405352 277.329027 
L 289.053156 277.970701 
L 292.70096 278.515589 
L 296.348764 279.352038 
L 299.996568 279.916075 
L 303.644372 280.824878 
L 307.292176 281.469499 
L 310.93998 282.277427 
L 314.587783 282.843934 
L 318.235587 283.628758 
L 321.883391 284.191962 
L 325.531195 284.63881 
L 329.178999 285.316783 
L 332.826803 286.222572 
L 336.474607 286.225257 
L 340.122411 286.771025 
L 343.770215 287.208479 
L 347.418018 288.472802 
L 351.065822 288.37686 
L 354.713626 289.268622 
L 358.36143 289.047433 
L 362.009234 289.991228 
L 365.657038 290.127705 
L 369.304842 290.673199 
L 372.952646 291.600194 
L 376.600449 291.963525 
L 380.248253 292.013824 
L 383.896057 292.338677 
L 387.543861 292.689845 
L 391.191665 293.640361 
L 394.839469 294.074853 
L 398.487273 294.355058 
" clip-path="url(#pa42a0df160)" style="fill: none; stroke: #ff00ff; stroke-opacity: 0.3; stroke-width: 0.5; stroke-linecap: square"/>
   </g>
   <g id="line2d_35">
    <path d="M 73.832727 181.684048 
L 77.480531 182.544574 
L 81.128335 183.840357 
L 84.776139 184.999597 
L 88.423943 186.730156 
L 92.071747 188.333342 
L 95.719551 189.175925 
L 99.367354 190.991105 
L 103.015158 191.426653 
L 106.662962 193.526961 
L 110.310766 194.505966 
L 113.95857 195.735155 
L 117.606374 198.046698 
L 121.254178 199.388068 
L 124.901982 200.945402 
L 128.549785 201.194548 
L 132.197589 203.427165 
L 135.845393 204.704076 
L 139.493197 205.079944 
L 143.141001 206.925748 
L 146.788805 207.292578 
L 150.436609 208.960633 
L 154.084413 209.420736 
L 157.732217 210.701171 
L 161.38002 211.440525 
L 165.027824 212.722469 
L 168.675628 213.267084 
L 172.323432 213.812557 
L 175.971236 214.934452 
L 179.61904 215.58145 
L 183.266844 216.851315 
L 186.914648 217.388993 
L 190.562451 218.818701 
L 194.210255 219.971413 
L 197.858059 220.412801 
L 201.505863 220.884632 
L 205.153667 222.146569 
L 208.801471 222.671806 
L 212.449275 223.52742 
L 216.097079 224.189677 
L 219.744883 225.536652 
L 223.392686 226.799651 
L 227.04049 227.454415 
L 230.688294 227.89859 
L 234.336098 228.975399 
L 237.983902 229.344551 
L 241.631706 230.40492 
L 245.27951 232.14451 
L 248.927314 232.15327 
L 252.575117 233.338489 
L 256.222921 233.493754 
L 259.870725 234.873712 
L 263.518529 235.8365 
L 267.166333 236.134907 
L 270.814137 237.47279 
L 274.461941 237.606684 
L 278.109745 238.896018 
L 281.757549 239.340881 
L 285.405352 240.321793 
L 289.053156 240.247904 
L 292.70096 241.859139 
L 296.348764 242.465172 
L 299.996568 243.768449 
L 303.644372 244.190772 
L 307.292176 245.354024 
L 310.93998 245.680805 
L 314.587783 246.579322 
L 318.235587 247.22077 
L 321.883391 248.471425 
L 325.531195 249.16906 
L 329.178999 249.394599 
L 332.826803 250.531776 
L 336.474607 251.507378 
L 340.122411 252.619228 
L 343.770215 252.531143 
L 347.418018 253.347325 
L 351.065822 254.385786 
L 354.713626 255.273745 
L 358.36143 255.278245 
L 362.009234 256.433238 
L 365.657038 257.063163 
L 369.304842 257.671791 
L 372.952646 259.343755 
L 376.600449 259.682585 
L 380.248253 259.653499 
L 383.896057 259.886072 
L 387.543861 260.891822 
L 391.191665 262.641693 
L 394.839469 263.090864 
L 398.487273 263.095136 
" clip-path="url(#pa42a0df160)" style="fill: none; stroke: #ff00ff; stroke-opacity: 0.3; stroke-width: 0.5; stroke-linecap: square"/>
   </g>
   <g id="line2d_36">
    <path d="M 73.832727 200.245335 
L 77.480531 201.78901 
L 81.128335 203.433656 
L 84.776139 204.910821 
L 88.423943 206.121501 
L 92.071747 207.329332 
L 95.719551 209.64009 
L 99.367354 211.832912 
L 103.015158 211.731868 
L 106.662962 212.818155 
L 110.310766 214.221703 
L 113.95857 215.318053 
L 117.606374 217.063273 
L 121.254178 218.261138 
L 124.901982 219.810942 
L 128.549785 220.13776 
L 132.197589 221.490846 
L 135.845393 223.002238 
L 139.493197 223.546431 
L 143.141001 225.33705 
L 146.788805 226.035228 
L 150.436609 227.017914 
L 154.084413 227.697829 
L 157.732217 229.215314 
L 161.38002 230.140449 
L 165.027824 231.436811 
L 168.675628 232.35934 
L 172.323432 232.39788 
L 175.971236 234.486399 
L 179.61904 235.659938 
L 183.266844 236.697514 
L 186.914648 237.744338 
L 190.562451 237.363885 
L 194.210255 239.505647 
L 197.858059 240.072707 
L 201.505863 241.224417 
L 205.153667 242.728792 
L 208.801471 243.86977 
L 212.449275 243.652823 
L 216.097079 245.624884 
L 219.744883 246.421011 
L 223.392686 247.157289 
L 227.04049 248.530104 
L 230.688294 249.092095 
L 234.336098 249.892216 
L 237.983902 251.390171 
L 241.631706 251.472217 
L 245.27951 253.592037 
L 248.927314 253.453382 
L 252.575117 254.642993 
L 256.222921 255.736013 
L 259.870725 256.167905 
L 263.518529 257.409106 
L 267.166333 258.293867 
L 270.814137 259.342645 
L 274.461941 259.964045 
L 278.109745 260.654248 
L 281.757549 260.886815 
L 285.405352 262.199956 
L 289.053156 263.178937 
L 292.70096 263.642919 
L 296.348764 264.174991 
L 299.996568 265.176548 
L 303.644372 265.797864 
L 307.292176 266.566685 
L 310.93998 267.333756 
L 314.587783 268.867476 
L 318.235587 268.913382 
L 321.883391 269.922921 
L 325.531195 270.60037 
L 329.178999 270.886777 
L 332.826803 271.743381 
L 336.474607 272.185716 
L 340.122411 273.09403 
L 343.770215 274.010944 
L 347.418018 274.527059 
L 351.065822 274.991512 
L 354.713626 275.903802 
L 358.36143 275.898492 
L 362.009234 277.099419 
L 365.657038 277.507845 
L 369.304842 278.081842 
L 372.952646 278.967091 
L 376.600449 279.616416 
L 380.248253 280.144627 
L 383.896057 280.861457 
L 387.543861 280.90587 
L 391.191665 281.712115 
L 394.839469 282.344064 
L 398.487273 282.301892 
" clip-path="url(#pa42a0df160)" style="fill: none; stroke: #ff00ff; stroke-opacity: 0.3; stroke-width: 0.5; stroke-linecap: square"/>
   </g>
   <g id="line2d_37">
    <path d="M 73.832727 189.10629 
L 77.480531 191.128855 
L 81.128335 192.048626 
L 84.776139 193.523691 
L 88.423943 194.313906 
L 92.071747 196.269732 
L 95.719551 197.634462 
L 99.367354 198.970692 
L 103.015158 199.997045 
L 106.662962 201.163381 
L 110.310766 201.950699 
L 113.95857 204.414507 
L 117.606374 205.224945 
L 121.254178 206.216946 
L 124.901982 206.795419 
L 128.549785 207.978213 
L 132.197589 210.954649 
L 135.845393 210.738214 
L 139.493197 213.384188 
L 143.141001 213.196062 
L 146.788805 214.031223 
L 150.436609 215.60656 
L 154.084413 216.082651 
L 157.732217 217.312383 
L 161.38002 217.870513 
L 165.027824 219.609542 
L 168.675628 219.705687 
L 172.323432 220.983154 
L 175.971236 221.39615 
L 179.61904 222.584953 
L 183.266844 222.621646 
L 186.914648 224.224452 
L 190.562451 224.938697 
L 194.210255 225.849913 
L 197.858059 226.849829 
L 201.505863 226.880918 
L 205.153667 228.753552 
L 208.801471 228.717293 
L 212.449275 229.91237 
L 216.097079 230.331592 
L 219.744883 232.271684 
L 223.392686 233.197361 
L 227.04049 233.08629 
L 230.688294 234.193169 
L 234.336098 234.947522 
L 237.983902 236.0791 
L 241.631706 236.104331 
L 245.27951 237.76476 
L 248.927314 237.868796 
L 252.575117 238.848778 
L 256.222921 239.704507 
L 259.870725 240.723265 
L 263.518529 241.905051 
L 267.166333 242.464762 
L 270.814137 241.571718 
L 274.461941 243.23777 
L 278.109745 244.236853 
L 281.757549 244.973656 
L 285.405352 245.962477 
L 289.053156 246.389005 
L 292.70096 247.209379 
L 296.348764 247.255672 
L 299.996568 248.076987 
L 303.644372 248.002134 
L 307.292176 249.662961 
L 310.93998 250.791329 
L 314.587783 250.954962 
L 318.235587 252.586968 
L 321.883391 252.766341 
L 325.531195 253.817298 
L 329.178999 253.780887 
L 332.826803 254.861039 
L 336.474607 254.501503 
L 340.122411 255.735132 
L 343.770215 256.226602 
L 347.418018 257.503381 
L 351.065822 258.147399 
L 354.713626 258.707852 
L 358.36143 258.338072 
L 362.009234 259.362995 
L 365.657038 260.522211 
L 369.304842 260.391418 
L 372.952646 261.60194 
L 376.600449 262.124921 
L 380.248253 262.743304 
L 383.896057 263.079932 
L 387.543861 263.041018 
L 391.191665 264.606346 
L 394.839469 264.937936 
L 398.487273 265.450714 
" clip-path="url(#pa42a0df160)" style="fill: none; stroke: #ff00ff; stroke-opacity: 0.3; stroke-width: 0.5; stroke-linecap: square"/>
   </g>
   <g id="line2d_38">
    <path d="M 73.832727 177.41084 
L 77.480531 182.092085 
L 81.128335 185.04557 
L 84.776139 189.192709 
L 88.423943 192.344891 
L 92.071747 195.511421 
L 95.719551 198.084779 
L 99.367354 200.628853 
L 103.015158 201.125673 
L 106.662962 204.158833 
L 110.310766 204.482888 
L 113.95857 206.887365 
L 117.606374 208.091963 
L 121.254178 209.192621 
L 124.901982 211.496019 
L 128.549785 212.330601 
L 132.197589 214.410638 
L 135.845393 214.119851 
L 139.493197 215.344032 
L 143.141001 215.970651 
L 146.788805 216.776757 
L 150.436609 219.445814 
L 154.084413 219.240879 
L 157.732217 220.745495 
L 161.38002 221.11913 
L 165.027824 223.066533 
L 168.675628 223.281797 
L 172.323432 223.917936 
L 175.971236 225.28727 
L 179.61904 226.471235 
L 183.266844 228.166656 
L 186.914648 228.680744 
L 190.562451 228.953963 
L 194.210255 230.492383 
L 197.858059 231.614193 
L 201.505863 233.285029 
L 205.153667 233.262719 
L 208.801471 235.018774 
L 212.449275 235.1723 
L 216.097079 236.341085 
L 219.744883 236.986401 
L 223.392686 238.47816 
L 227.04049 239.693062 
L 230.688294 239.785292 
L 234.336098 240.337962 
L 237.983902 241.93284 
L 241.631706 242.196351 
L 245.27951 243.870977 
L 248.927314 244.25961 
L 252.575117 245.558048 
L 256.222921 246.06857 
L 259.870725 247.106266 
L 263.518529 248.103509 
L 267.166333 248.374707 
L 270.814137 249.716831 
L 274.461941 251.054407 
L 278.109745 251.163324 
L 281.757549 252.732163 
L 285.405352 252.869786 
L 289.053156 254.499102 
L 292.70096 254.56934 
L 296.348764 255.307844 
L 299.996568 256.255827 
L 303.644372 256.635157 
L 307.292176 258.490729 
L 310.93998 259.485964 
L 314.587783 259.403297 
L 318.235587 260.224263 
L 321.883391 260.656842 
L 325.531195 261.7215 
L 329.178999 262.132076 
L 332.826803 263.194997 
L 336.474607 263.735679 
L 340.122411 263.543721 
L 343.770215 265.002256 
L 347.418018 267.013732 
L 351.065822 266.631258 
L 354.713626 267.568048 
L 358.36143 267.239487 
L 362.009234 268.123373 
L 365.657038 269.081944 
L 369.304842 269.871868 
L 372.952646 270.560225 
L 376.600449 270.828352 
L 380.248253 271.981269 
L 383.896057 272.501824 
L 387.543861 272.601438 
L 391.191665 273.179218 
L 394.839469 273.993798 
L 398.487273 274.485264 
" clip-path="url(#pa42a0df160)" style="fill: none; stroke: #ff00ff; stroke-opacity: 0.3; stroke-width: 0.5; stroke-linecap: square"/>
   </g>
   <g id="line2d_39">
    <path d="M 73.832727 172.46288 
L 77.480531 175.106175 
L 81.128335 179.386973 
L 84.776139 182.153671 
L 88.423943 183.924858 
L 92.071747 187.660763 
L 95.719551 190.408746 
L 99.367354 192.903214 
L 103.015158 192.792626 
L 106.662962 197.132598 
L 110.310766 198.12449 
L 113.95857 200.886627 
L 117.606374 202.072027 
L 121.254178 204.819334 
L 124.901982 205.646375 
L 128.549785 206.345609 
L 132.197589 208.875698 
L 135.845393 209.782896 
L 139.493197 211.897479 
L 143.141001 213.985516 
L 146.788805 215.674518 
L 150.436609 215.87038 
L 154.084413 218.887612 
L 157.732217 219.955304 
L 161.38002 222.028283 
L 165.027824 221.211824 
L 168.675628 223.65317 
L 172.323432 224.007197 
L 175.971236 225.859922 
L 179.61904 227.325027 
L 183.266844 229.124865 
L 186.914648 231.057783 
L 190.562451 232.218248 
L 194.210255 233.180348 
L 197.858059 234.896185 
L 201.505863 236.071251 
L 205.153667 236.7118 
L 208.801471 238.869653 
L 212.449275 238.977303 
L 216.097079 240.924357 
L 219.744883 241.939302 
L 223.392686 243.950186 
L 227.04049 244.332932 
L 230.688294 245.670905 
L 234.336098 246.534561 
L 237.983902 247.242019 
L 241.631706 249.955263 
L 245.27951 250.534364 
L 248.927314 250.836192 
L 252.575117 252.449599 
L 256.222921 253.24826 
L 259.870725 253.853678 
L 263.518529 256.150867 
L 267.166333 257.025613 
L 270.814137 257.359405 
L 274.461941 259.47216 
L 278.109745 259.564377 
L 281.757549 260.307165 
L 285.405352 261.182495 
L 289.053156 261.772655 
L 292.70096 262.771063 
L 296.348764 263.420656 
L 299.996568 264.655746 
L 303.644372 266.020265 
L 307.292176 267.389002 
L 310.93998 267.650848 
L 314.587783 268.502426 
L 318.235587 268.761225 
L 321.883391 270.107054 
L 325.531195 270.482433 
L 329.178999 271.743079 
L 332.826803 271.539006 
L 336.474607 272.888835 
L 340.122411 272.708376 
L 343.770215 274.15781 
L 347.418018 275.268046 
L 351.065822 274.823678 
L 354.713626 276.533413 
L 358.36143 277.27205 
L 362.009234 277.75862 
L 365.657038 277.834888 
L 369.304842 278.40215 
L 372.952646 279.365242 
L 376.600449 280.706863 
L 380.248253 280.693834 
L 383.896057 281.40619 
L 387.543861 281.604902 
L 391.191665 282.071062 
L 394.839469 283.588444 
L 398.487273 282.936628 
" clip-path="url(#pa42a0df160)" style="fill: none; stroke: #ff00ff; stroke-opacity: 0.3; stroke-width: 0.5; stroke-linecap: square"/>
   </g>
   <g id="line2d_40">
    <path d="M 73.832727 174.156069 
L 77.480531 173.977897 
L 81.128335 175.381964 
L 84.776139 175.904535 
L 88.423943 177.227262 
L 92.071747 177.707974 
L 95.719551 179.296391 
L 99.367354 180.018479 
L 103.015158 180.868567 
L 106.662962 181.422739 
L 110.310766 182.430981 
L 113.95857 183.238305 
L 117.606374 184.457612 
L 121.254178 184.963905 
L 124.901982 185.518077 
L 128.549785 185.838403 
L 132.197589 186.799139 
L 135.845393 187.570458 
L 139.493197 189.246006 
L 143.141001 190.004655 
L 146.788805 191.278152 
L 150.436609 191.429078 
L 154.084413 191.822683 
L 157.732217 193.832313 
L 161.38002 194.164198 
L 165.027824 194.20479 
L 168.675628 195.317731 
L 172.323432 197.614324 
L 175.971236 196.517382 
L 179.61904 198.136073 
L 183.266844 199.070143 
L 186.914648 199.349214 
L 190.562451 200.238349 
L 194.210255 200.765987 
L 197.858059 201.030011 
L 201.505863 203.414664 
L 205.153667 203.323056 
L 208.801471 203.878797 
L 212.449275 205.378598 
L 216.097079 206.86345 
L 219.744883 206.252855 
L 223.392686 207.319027 
L 227.04049 208.280778 
L 230.688294 209.284193 
L 234.336098 210.321949 
L 237.983902 210.476048 
L 241.631706 211.235916 
L 245.27951 212.299929 
L 248.927314 213.80043 
L 252.575117 213.293341 
L 256.222921 214.188424 
L 259.870725 215.714772 
L 263.518529 215.501269 
L 267.166333 216.233831 
L 270.814137 217.424419 
L 274.461941 218.345011 
L 278.109745 218.965524 
L 281.757549 219.555256 
L 285.405352 220.920204 
L 289.053156 220.420041 
L 292.70096 221.247878 
L 296.348764 222.262986 
L 299.996568 223.310787 
L 303.644372 224.062775 
L 307.292176 224.312591 
L 310.93998 225.518245 
L 314.587783 226.434499 
L 318.235587 226.870022 
L 321.883391 227.585848 
L 325.531195 227.716134 
L 329.178999 228.700213 
L 332.826803 229.635079 
L 336.474607 229.874579 
L 340.122411 230.846283 
L 343.770215 230.96276 
L 347.418018 232.059744 
L 351.065822 232.810592 
L 354.713626 232.819243 
L 358.36143 233.277977 
L 362.009234 234.737911 
L 365.657038 234.458991 
L 369.304842 235.498647 
L 372.952646 236.553731 
L 376.600449 237.229948 
L 380.248253 237.721436 
L 383.896057 237.926039 
L 387.543861 238.110256 
L 391.191665 238.765201 
L 394.839469 240.907766 
L 398.487273 239.980019 
" clip-path="url(#pa42a0df160)" style="fill: none; stroke: #ff00ff; stroke-opacity: 0.3; stroke-width: 0.5; stroke-linecap: square"/>
   </g>
   <g id="line2d_41">
    <path d="M 73.832727 187.641215 
L 77.480531 189.756402 
L 81.128335 189.000142 
L 84.776139 188.800673 
L 88.423943 190.331195 
L 92.071747 191.161723 
L 95.719551 190.806357 
L 99.367354 192.003787 
L 103.015158 192.562955 
L 106.662962 191.965102 
L 110.310766 192.998696 
L 113.95857 194.560494 
L 117.606374 193.677839 
L 121.254178 194.544373 
L 124.901982 195.025641 
L 128.549785 196.015855 
L 132.197589 196.844525 
L 135.845393 196.992918 
L 139.493197 196.968399 
L 143.141001 197.082631 
L 146.788805 198.157093 
L 150.436609 198.780188 
L 154.084413 199.03474 
L 157.732217 199.737329 
L 161.38002 199.580213 
L 165.027824 200.637697 
L 168.675628 201.098934 
L 172.323432 201.236467 
L 175.971236 202.152847 
L 179.61904 202.808341 
L 183.266844 202.640341 
L 186.914648 203.604082 
L 190.562451 203.894061 
L 194.210255 205.648209 
L 197.858059 205.391352 
L 201.505863 204.944052 
L 205.153667 206.235395 
L 208.801471 207.653049 
L 212.449275 207.579058 
L 216.097079 207.464065 
L 219.744883 208.318594 
L 223.392686 208.759245 
L 227.04049 209.275758 
L 230.688294 209.047957 
L 234.336098 209.683577 
L 237.983902 210.748483 
L 241.631706 211.533388 
L 245.27951 211.898263 
L 248.927314 212.450637 
L 252.575117 212.665359 
L 256.222921 214.367296 
L 259.870725 213.717872 
L 263.518529 216.228039 
L 267.166333 214.042831 
L 270.814137 215.997173 
L 274.461941 216.284461 
L 278.109745 217.416926 
L 281.757549 216.731182 
L 285.405352 217.960299 
L 289.053156 219.554001 
L 292.70096 219.107135 
L 296.348764 219.602689 
L 299.996568 220.300161 
L 303.644372 220.755208 
L 307.292176 220.371075 
L 310.93998 222.06745 
L 314.587783 221.383588 
L 318.235587 221.696554 
L 321.883391 223.131239 
L 325.531195 224.120712 
L 329.178999 223.781912 
L 332.826803 224.613653 
L 336.474607 225.75544 
L 340.122411 225.473569 
L 343.770215 226.208121 
L 347.418018 227.157703 
L 351.065822 227.921365 
L 354.713626 229.067803 
L 358.36143 228.609667 
L 362.009234 228.826313 
L 365.657038 230.480346 
L 369.304842 229.64177 
L 372.952646 231.888329 
L 376.600449 231.355014 
L 380.248253 232.089276 
L 383.896057 231.48822 
L 387.543861 232.425355 
L 391.191665 232.722477 
L 394.839469 234.365494 
L 398.487273 234.473959 
" clip-path="url(#pa42a0df160)" style="fill: none; stroke: #ff00ff; stroke-opacity: 0.3; stroke-width: 0.5; stroke-linecap: square"/>
   </g>
   <g id="line2d_42">
    <path d="M 73.832727 191.083702 
L 77.480531 193.344276 
L 81.128335 194.142057 
L 84.776139 195.922992 
L 88.423943 197.122172 
L 92.071747 197.849521 
L 95.719551 199.481775 
L 99.367354 201.271182 
L 103.015158 203.130802 
L 106.662962 203.214266 
L 110.310766 204.498731 
L 113.95857 206.164964 
L 117.606374 207.036602 
L 121.254178 208.737055 
L 124.901982 209.55232 
L 128.549785 210.821545 
L 132.197589 213.104442 
L 135.845393 213.12125 
L 139.493197 212.81141 
L 143.141001 215.526874 
L 146.788805 215.976914 
L 150.436609 217.577457 
L 154.084413 218.768468 
L 157.732217 218.427086 
L 161.38002 220.687528 
L 165.027824 221.103263 
L 168.675628 222.78161 
L 172.323432 223.140627 
L 175.971236 223.920368 
L 179.61904 225.357533 
L 183.266844 226.802625 
L 186.914648 228.638427 
L 190.562451 229.339544 
L 194.210255 230.511472 
L 197.858059 231.626996 
L 201.505863 232.888251 
L 205.153667 234.177181 
L 208.801471 235.045875 
L 212.449275 236.035945 
L 216.097079 237.150515 
L 219.744883 238.79781 
L 223.392686 240.445485 
L 227.04049 241.727857 
L 230.688294 240.274504 
L 234.336098 242.1444 
L 237.983902 243.510627 
L 241.631706 244.693294 
L 245.27951 245.646151 
L 248.927314 247.285729 
L 252.575117 247.758797 
L 256.222921 248.234448 
L 259.870725 248.877567 
L 263.518529 250.35034 
L 267.166333 252.129641 
L 270.814137 253.020097 
L 274.461941 253.129677 
L 278.109745 254.077539 
L 281.757549 254.346136 
L 285.405352 256.510686 
L 289.053156 256.635573 
L 292.70096 258.118747 
L 296.348764 258.74434 
L 299.996568 258.849288 
L 303.644372 260.383889 
L 307.292176 261.231684 
L 310.93998 262.148511 
L 314.587783 262.59277 
L 318.235587 262.882749 
L 321.883391 263.755468 
L 325.531195 265.125984 
L 329.178999 264.650267 
L 332.826803 266.072138 
L 336.474607 266.203837 
L 340.122411 266.703016 
L 343.770215 268.576809 
L 347.418018 269.252013 
L 351.065822 269.696267 
L 354.713626 270.84656 
L 358.36143 270.002246 
L 362.009234 271.354656 
L 365.657038 271.593124 
L 369.304842 272.813022 
L 372.952646 273.142784 
L 376.600449 273.498374 
L 380.248253 274.364959 
L 383.896057 274.952667 
L 387.543861 275.229931 
L 391.191665 276.787618 
L 394.839469 277.593271 
L 398.487273 276.91496 
" clip-path="url(#pa42a0df160)" style="fill: none; stroke: #ff00ff; stroke-opacity: 0.3; stroke-width: 0.5; stroke-linecap: square"/>
   </g>
   <g id="line2d_43">
    <path d="M 73.832727 168.614999 
L 77.480531 170.255482 
L 81.128335 170.083983 
L 84.776139 173.921306 
L 88.423943 173.844781 
L 92.071747 175.168293 
L 95.719551 175.745862 
L 99.367354 176.027358 
L 103.015158 178.115443 
L 106.662962 180.055233 
L 110.310766 179.691372 
L 113.95857 180.487921 
L 117.606374 183.906891 
L 121.254178 184.538119 
L 124.901982 183.535922 
L 128.549785 184.67827 
L 132.197589 184.547856 
L 135.845393 186.689179 
L 139.493197 188.44667 
L 143.141001 188.471888 
L 146.788805 189.401807 
L 150.436609 189.278392 
L 154.084413 189.815599 
L 157.732217 193.35691 
L 161.38002 193.790684 
L 165.027824 194.163305 
L 168.675628 194.09075 
L 172.323432 198.515235 
L 175.971236 196.624374 
L 179.61904 197.568061 
L 183.266844 197.222311 
L 186.914648 198.587006 
L 190.562451 200.060539 
L 194.210255 200.102566 
L 197.858059 199.616146 
L 201.505863 201.019743 
L 205.153667 201.873511 
L 208.801471 203.069228 
L 212.449275 203.766085 
L 216.097079 205.654267 
L 219.744883 205.140746 
L 223.392686 207.031775 
L 227.04049 206.042804 
L 230.688294 208.115673 
L 234.336098 207.696958 
L 237.983902 207.84208 
L 241.631706 209.093858 
L 245.27951 210.117303 
L 248.927314 209.904959 
L 252.575117 210.284603 
L 256.222921 211.633696 
L 259.870725 212.986107 
L 263.518529 211.488634 
L 267.166333 212.653654 
L 270.814137 213.040249 
L 274.461941 214.697794 
L 278.109745 214.614801 
L 281.757549 214.686813 
L 285.405352 214.554011 
L 289.053156 216.467387 
L 292.70096 216.024431 
L 296.348764 217.397861 
L 299.996568 216.889252 
L 303.644372 218.463153 
L 307.292176 218.438224 
L 310.93998 220.36182 
L 314.587783 219.941923 
L 318.235587 220.531341 
L 321.883391 221.79323 
L 325.531195 220.884801 
L 329.178999 221.527287 
L 332.826803 221.839649 
L 336.474607 221.899643 
L 340.122411 222.947649 
L 343.770215 222.952832 
L 347.418018 223.917363 
L 351.065822 224.04651 
L 354.713626 224.28479 
L 358.36143 223.300265 
L 362.009234 225.719524 
L 365.657038 225.330534 
L 369.304842 227.1602 
L 372.952646 226.721576 
L 376.600449 227.594324 
L 380.248253 227.278258 
L 383.896057 227.906427 
L 387.543861 227.982228 
L 391.191665 227.337558 
L 394.839469 230.113788 
L 398.487273 229.366482 
" clip-path="url(#pa42a0df160)" style="fill: none; stroke: #ff00ff; stroke-opacity: 0.3; stroke-width: 0.5; stroke-linecap: square"/>
   </g>
   <g id="line2d_44">
    <path d="M 73.832727 184.079983 
L 77.480531 185.068303 
L 81.128335 185.738807 
L 84.776139 186.120153 
L 88.423943 189.302658 
L 92.071747 188.619001 
L 95.719551 191.476161 
L 99.367354 191.979401 
L 103.015158 193.977242 
L 106.662962 195.127312 
L 110.310766 195.755777 
L 113.95857 196.17308 
L 117.606374 195.937255 
L 121.254178 199.122813 
L 124.901982 198.675911 
L 128.549785 200.778283 
L 132.197589 200.751037 
L 135.845393 202.104521 
L 139.493197 202.548504 
L 143.141001 203.254724 
L 146.788805 203.426815 
L 150.436609 204.969669 
L 154.084413 204.7309 
L 157.732217 205.682236 
L 161.38002 206.667854 
L 165.027824 208.159921 
L 168.675628 208.338225 
L 172.323432 209.191861 
L 175.971236 210.19857 
L 179.61904 211.560272 
L 183.266844 211.439271 
L 186.914648 212.226758 
L 190.562451 213.778155 
L 194.210255 213.366499 
L 197.858059 214.696816 
L 201.505863 215.007079 
L 205.153667 215.302259 
L 208.801471 217.426519 
L 212.449275 217.245789 
L 216.097079 218.102718 
L 219.744883 218.625192 
L 223.392686 217.99657 
L 227.04049 220.760167 
L 230.688294 221.948005 
L 234.336098 221.618798 
L 237.983902 221.266159 
L 241.631706 223.48987 
L 245.27951 224.338015 
L 248.927314 224.231529 
L 252.575117 225.185352 
L 256.222921 225.493322 
L 259.870725 226.363838 
L 263.518529 227.081123 
L 267.166333 229.041142 
L 270.814137 228.278011 
L 274.461941 229.292889 
L 278.109745 230.235996 
L 281.757549 230.729511 
L 285.405352 232.105994 
L 289.053156 232.565307 
L 292.70096 233.149072 
L 296.348764 233.298622 
L 299.996568 234.413947 
L 303.644372 234.873585 
L 307.292176 235.347076 
L 310.93998 236.018454 
L 314.587783 236.694624 
L 318.235587 238.343445 
L 321.883391 237.160971 
L 325.531195 239.063137 
L 329.178999 239.268163 
L 332.826803 240.874885 
L 336.474607 241.075844 
L 340.122411 241.843356 
L 343.770215 241.378191 
L 347.418018 243.016454 
L 351.065822 243.127121 
L 354.713626 243.629329 
L 358.36143 243.790669 
L 362.009234 244.645378 
L 365.657038 245.627472 
L 369.304842 245.73838 
L 372.952646 246.265174 
L 376.600449 248.001947 
L 380.248253 248.039588 
L 383.896057 248.588246 
L 387.543861 249.483444 
L 391.191665 249.994213 
L 394.839469 250.49662 
L 398.487273 250.532307 
" clip-path="url(#pa42a0df160)" style="fill: none; stroke: #ff00ff; stroke-opacity: 0.3; stroke-width: 0.5; stroke-linecap: square"/>
   </g>
   <g id="line2d_45">
    <path d="M 73.832727 168.396151 
L 77.480531 169.947597 
L 81.128335 169.716478 
L 84.776139 170.283802 
L 88.423943 171.102952 
L 92.071747 171.569643 
L 95.719551 172.926168 
L 99.367354 172.777909 
L 103.015158 173.19111 
L 106.662962 173.579707 
L 110.310766 173.839629 
L 113.95857 174.834887 
L 117.606374 175.385198 
L 121.254178 176.085602 
L 124.901982 176.268155 
L 128.549785 177.22036 
L 132.197589 177.174858 
L 135.845393 177.101072 
L 139.493197 177.748505 
L 143.141001 178.292204 
L 146.788805 179.090491 
L 150.436609 178.95437 
L 154.084413 179.460771 
L 157.732217 180.247016 
L 161.38002 180.53066 
L 165.027824 180.707251 
L 168.675628 180.917327 
L 172.323432 182.317726 
L 175.971236 181.997665 
L 179.61904 182.639198 
L 183.266844 183.222064 
L 186.914648 182.710088 
L 190.562451 183.397811 
L 194.210255 183.760055 
L 197.858059 183.810227 
L 201.505863 184.432779 
L 205.153667 185.232056 
L 208.801471 184.939676 
L 212.449275 186.247127 
L 216.097079 185.283929 
L 219.744883 185.86297 
L 223.392686 185.760599 
L 227.04049 186.848539 
L 230.688294 187.074554 
L 234.336098 188.002989 
L 237.983902 188.597161 
L 241.631706 188.199418 
L 245.27951 188.370712 
L 248.927314 188.626446 
L 252.575117 189.33654 
L 256.222921 188.927189 
L 259.870725 189.448251 
L 263.518529 190.081554 
L 267.166333 190.539461 
L 270.814137 190.007684 
L 274.461941 190.696372 
L 278.109745 191.065289 
L 281.757549 190.991913 
L 285.405352 190.896577 
L 289.053156 192.384264 
L 292.70096 192.699088 
L 296.348764 192.260535 
L 299.996568 192.859064 
L 303.644372 193.860934 
L 307.292176 193.834835 
L 310.93998 194.116802 
L 314.587783 193.929809 
L 318.235587 195.104193 
L 321.883391 195.074654 
L 325.531195 195.576639 
L 329.178999 194.955801 
L 332.826803 195.695204 
L 336.474607 195.153677 
L 340.122411 196.183349 
L 343.770215 195.785544 
L 347.418018 196.271855 
L 351.065822 197.053756 
L 354.713626 197.643029 
L 358.36143 198.204152 
L 362.009234 197.398323 
L 365.657038 197.537207 
L 369.304842 198.655096 
L 372.952646 198.009521 
L 376.600449 199.439664 
L 380.248253 198.788152 
L 383.896057 199.791507 
L 387.543861 198.791217 
L 391.191665 199.109467 
L 394.839469 200.560714 
L 398.487273 199.766481 
" clip-path="url(#pa42a0df160)" style="fill: none; stroke: #ff00ff; stroke-opacity: 0.3; stroke-width: 0.5; stroke-linecap: square"/>
   </g>
   <g id="line2d_46">
    <path d="M 73.832727 180.926823 
L 77.480531 185.23249 
L 81.128335 188.637258 
L 84.776139 192.937495 
L 88.423943 195.866932 
L 92.071747 199.145425 
L 95.719551 200.929752 
L 99.367354 204.034441 
L 103.015158 207.280186 
L 106.662962 210.151873 
L 110.310766 212.505274 
L 113.95857 215.025939 
L 117.606374 218.044233 
L 121.254178 219.529289 
L 124.901982 221.795933 
L 128.549785 225.08032 
L 132.197589 226.866282 
L 135.845393 227.80992 
L 139.493197 229.684883 
L 143.141001 232.036999 
L 146.788805 234.151298 
L 150.436609 235.299401 
L 154.084413 238.016313 
L 157.732217 239.226957 
L 161.38002 241.174191 
L 165.027824 241.449564 
L 168.675628 243.188533 
L 172.323432 244.299918 
L 175.971236 245.898133 
L 179.61904 247.351907 
L 183.266844 248.34649 
L 186.914648 250.469127 
L 190.562451 250.212566 
L 194.210255 251.934292 
L 197.858059 253.244435 
L 201.505863 254.472164 
L 205.153667 255.687543 
L 208.801471 257.287543 
L 212.449275 257.951489 
L 216.097079 258.999876 
L 219.744883 259.507038 
L 223.392686 261.284878 
L 227.04049 262.949301 
L 230.688294 263.753724 
L 234.336098 264.187462 
L 237.983902 265.253465 
L 241.631706 265.703993 
L 245.27951 267.7635 
L 248.927314 266.990112 
L 252.575117 268.361141 
L 256.222921 269.523989 
L 259.870725 270.251151 
L 263.518529 271.320756 
L 267.166333 272.400672 
L 270.814137 273.666591 
L 274.461941 274.294854 
L 278.109745 273.673454 
L 281.757549 274.850061 
L 285.405352 276.166318 
L 289.053156 276.743045 
L 292.70096 277.816587 
L 296.348764 278.155413 
L 299.996568 278.99107 
L 303.644372 279.456916 
L 307.292176 280.149067 
L 310.93998 280.773819 
L 314.587783 281.702691 
L 318.235587 282.304314 
L 321.883391 283.003449 
L 325.531195 283.369174 
L 329.178999 283.671778 
L 332.826803 284.897045 
L 336.474607 284.446125 
L 340.122411 285.610816 
L 343.770215 285.954711 
L 347.418018 286.578334 
L 351.065822 287.147523 
L 354.713626 287.271215 
L 358.36143 287.818244 
L 362.009234 288.62035 
L 365.657038 289.103487 
L 369.304842 289.588335 
L 372.952646 289.529385 
L 376.600449 290.276025 
L 380.248253 291.217389 
L 383.896057 291.25008 
L 387.543861 291.266638 
L 391.191665 292.296457 
L 394.839469 292.462683 
L 398.487273 292.654267 
" clip-path="url(#pa42a0df160)" style="fill: none; stroke: #ff00ff; stroke-opacity: 0.3; stroke-width: 0.5; stroke-linecap: square"/>
   </g>
   <g id="line2d_47">
    <path d="M 73.832727 183.141521 
L 77.480531 185.104888 
L 81.128335 186.015477 
L 84.776139 187.350198 
L 88.423943 187.254826 
L 92.071747 188.724824 
L 95.719551 189.135333 
L 99.367354 190.581235 
L 103.015158 191.560203 
L 106.662962 192.797899 
L 110.310766 192.652234 
L 113.95857 194.132054 
L 117.606374 194.821743 
L 121.254178 195.802679 
L 124.901982 196.095216 
L 128.549785 197.305231 
L 132.197589 197.759566 
L 135.845393 198.009413 
L 139.493197 200.122487 
L 143.141001 199.053359 
L 146.788805 200.601486 
L 150.436609 201.724696 
L 154.084413 202.09301 
L 157.732217 202.858103 
L 161.38002 203.196214 
L 165.027824 203.839123 
L 168.675628 204.922417 
L 172.323432 205.274321 
L 175.971236 205.669591 
L 179.61904 206.002092 
L 183.266844 207.135872 
L 186.914648 208.157869 
L 190.562451 208.233369 
L 194.210255 209.34993 
L 197.858059 210.011204 
L 201.505863 211.181243 
L 205.153667 211.250661 
L 208.801471 212.193274 
L 212.449275 212.376622 
L 216.097079 212.950837 
L 219.744883 214.783151 
L 223.392686 215.371821 
L 227.04049 216.414718 
L 230.688294 216.464636 
L 234.336098 217.730169 
L 237.983902 217.7321 
L 241.631706 219.588668 
L 245.27951 220.041157 
L 248.927314 220.351419 
L 252.575117 221.534358 
L 256.222921 222.481737 
L 259.870725 223.420681 
L 263.518529 224.852018 
L 267.166333 225.614667 
L 270.814137 225.812206 
L 274.461941 226.124001 
L 278.109745 226.583506 
L 281.757549 228.434825 
L 285.405352 229.485933 
L 289.053156 229.470596 
L 292.70096 231.384299 
L 296.348764 231.152353 
L 299.996568 231.91689 
L 303.644372 232.831998 
L 307.292176 234.186188 
L 310.93998 234.836795 
L 314.587783 234.964626 
L 318.235587 236.304536 
L 321.883391 237.865514 
L 325.531195 237.666395 
L 329.178999 238.84184 
L 332.826803 240.20306 
L 336.474607 240.978161 
L 340.122411 240.816393 
L 343.770215 241.649111 
L 347.418018 243.188219 
L 351.065822 243.872443 
L 354.713626 243.934422 
L 358.36143 244.523073 
L 362.009234 245.643158 
L 365.657038 246.317843 
L 369.304842 247.018393 
L 372.952646 248.36722 
L 376.600449 248.36506 
L 380.248253 250.044107 
L 383.896057 249.629561 
L 387.543861 251.12707 
L 391.191665 251.981092 
L 394.839469 252.242522 
L 398.487273 253.552296 
" clip-path="url(#pa42a0df160)" style="fill: none; stroke: #ff00ff; stroke-opacity: 0.3; stroke-width: 0.5; stroke-linecap: square"/>
   </g>
   <g id="line2d_48">
    <path d="M 73.832727 167.208832 
L 77.480531 169.318263 
L 81.128335 170.311301 
L 84.776139 171.541492 
L 88.423943 172.80513 
L 92.071747 174.507008 
L 95.719551 175.368679 
L 99.367354 176.413832 
L 103.015158 177.029567 
L 106.662962 177.952801 
L 110.310766 178.834322 
L 113.95857 180.180603 
L 117.606374 181.274624 
L 121.254178 181.847982 
L 124.901982 182.711017 
L 128.549785 183.130927 
L 132.197589 184.216623 
L 135.845393 185.29316 
L 139.493197 185.484098 
L 143.141001 185.911972 
L 146.788805 186.577468 
L 150.436609 187.860956 
L 154.084413 187.702476 
L 157.732217 188.895852 
L 161.38002 188.687406 
L 165.027824 189.652764 
L 168.675628 189.387509 
L 172.323432 190.777747 
L 175.971236 190.610447 
L 179.61904 191.080625 
L 183.266844 191.106677 
L 186.914648 191.564028 
L 190.562451 192.136626 
L 194.210255 192.25268 
L 197.858059 192.653682 
L 201.505863 192.407649 
L 205.153667 193.119854 
L 208.801471 194.497375 
L 212.449275 194.558008 
L 216.097079 195.472905 
L 219.744883 194.799782 
L 223.392686 195.651053 
L 227.04049 196.36987 
L 230.688294 195.628839 
L 234.336098 196.559107 
L 237.983902 197.014191 
L 241.631706 197.835223 
L 245.27951 198.587911 
L 248.927314 197.971585 
L 252.575117 198.84922 
L 256.222921 198.885479 
L 259.870725 199.643996 
L 263.518529 199.555694 
L 267.166333 199.887338 
L 270.814137 199.801329 
L 274.461941 200.970415 
L 278.109745 201.140069 
L 281.757549 200.516527 
L 285.405352 201.783375 
L 289.053156 202.69698 
L 292.70096 202.68559 
L 296.348764 201.805239 
L 299.996568 202.755828 
L 303.644372 203.689765 
L 307.292176 203.7128 
L 310.93998 204.351823 
L 314.587783 204.419527 
L 318.235587 205.61662 
L 321.883391 205.355938 
L 325.531195 205.418297 
L 329.178999 205.647618 
L 332.826803 205.87636 
L 336.474607 207.071039 
L 340.122411 206.922249 
L 343.770215 206.704873 
L 347.418018 207.793055 
L 351.065822 208.308796 
L 354.713626 208.641791 
L 358.36143 208.464042 
L 362.009234 209.703849 
L 365.657038 209.01971 
L 369.304842 210.232923 
L 372.952646 210.472308 
L 376.600449 211.13147 
L 380.248253 211.252181 
L 383.896057 211.432634 
L 387.543861 211.844966 
L 391.191665 211.979216 
L 394.839469 213.451543 
L 398.487273 213.38881 
" clip-path="url(#pa42a0df160)" style="fill: none; stroke: #ff00ff; stroke-opacity: 0.3; stroke-width: 0.5; stroke-linecap: square"/>
   </g>
   <g id="line2d_49">
    <path d="M 73.832727 183.345105 
L 77.480531 186.846403 
L 81.128335 188.056238 
L 84.776139 190.585784 
L 88.423943 192.406478 
L 92.071747 194.514714 
L 95.719551 197.604139 
L 99.367354 199.352701 
L 103.015158 201.585547 
L 106.662962 203.262205 
L 110.310766 205.051334 
L 113.95857 206.914647 
L 117.606374 209.43378 
L 121.254178 210.876061 
L 124.901982 211.919778 
L 128.549785 212.560659 
L 132.197589 214.561914 
L 135.845393 216.930326 
L 139.493197 219.264408 
L 143.141001 219.742309 
L 146.788805 220.614997 
L 150.436609 222.753646 
L 154.084413 223.707589 
L 157.732217 224.336923 
L 161.38002 225.472839 
L 165.027824 226.150209 
L 168.675628 228.170324 
L 172.323432 229.847634 
L 175.971236 229.968865 
L 179.61904 232.220848 
L 183.266844 231.983653 
L 186.914648 233.77423 
L 190.562451 235.800017 
L 194.210255 236.148663 
L 197.858059 237.298147 
L 201.505863 237.622455 
L 205.153667 239.136145 
L 208.801471 240.516001 
L 212.449275 241.90992 
L 216.097079 243.385004 
L 219.744883 243.682621 
L 223.392686 245.288184 
L 227.04049 247.056082 
L 230.688294 247.006706 
L 234.336098 248.710659 
L 237.983902 248.772089 
L 241.631706 251.062407 
L 245.27951 251.8325 
L 248.927314 253.484127 
L 252.575117 254.69448 
L 256.222921 255.402149 
L 259.870725 256.690608 
L 263.518529 257.915091 
L 267.166333 258.918917 
L 270.814137 259.357113 
L 274.461941 261.536909 
L 278.109745 261.47575 
L 281.757549 262.015829 
L 285.405352 264.572524 
L 289.053156 263.88214 
L 292.70096 265.061206 
L 296.348764 266.537882 
L 299.996568 268.193841 
L 303.644372 269.139796 
L 307.292176 269.945872 
L 310.93998 270.023712 
L 314.587783 271.298777 
L 318.235587 272.384569 
L 321.883391 273.595194 
L 325.531195 273.367933 
L 329.178999 274.104772 
L 332.826803 274.814742 
L 336.474607 275.917183 
L 340.122411 276.077922 
L 343.770215 277.734647 
L 347.418018 278.277709 
L 351.065822 278.436593 
L 354.713626 279.820108 
L 358.36143 278.915721 
L 362.009234 281.014045 
L 365.657038 281.157339 
L 369.304842 281.934842 
L 372.952646 283.038022 
L 376.600449 283.062758 
L 380.248253 283.466746 
L 383.896057 283.993567 
L 387.543861 284.635679 
L 391.191665 284.505709 
L 394.839469 286.060765 
L 398.487273 286.313025 
" clip-path="url(#pa42a0df160)" style="fill: none; stroke: #ff00ff; stroke-opacity: 0.3; stroke-width: 0.5; stroke-linecap: square"/>
   </g>
   <g id="line2d_50">
    <path d="M 73.832727 175.968728 
L 77.480531 176.474526 
L 81.128335 178.209453 
L 84.776139 179.131649 
L 88.423943 179.352355 
L 92.071747 180.597134 
L 95.719551 181.287354 
L 99.367354 181.256018 
L 103.015158 182.687053 
L 106.662962 182.708785 
L 110.310766 182.520598 
L 113.95857 184.318982 
L 117.606374 184.37252 
L 121.254178 185.422777 
L 124.901982 185.796509 
L 128.549785 186.766584 
L 132.197589 186.703103 
L 135.845393 187.83517 
L 139.493197 188.336069 
L 143.141001 188.75698 
L 146.788805 189.564353 
L 150.436609 189.621717 
L 154.084413 190.971232 
L 157.732217 191.221006 
L 161.38002 191.128203 
L 165.027824 191.669525 
L 168.675628 191.693887 
L 172.323432 191.950044 
L 175.971236 193.543251 
L 179.61904 194.068693 
L 183.266844 193.8024 
L 186.914648 194.769616 
L 190.562451 194.332802 
L 194.210255 194.896748 
L 197.858059 195.611378 
L 201.505863 196.032809 
L 205.153667 195.657243 
L 208.801471 196.692344 
L 212.449275 197.414649 
L 216.097079 197.276151 
L 219.744883 198.282378 
L 223.392686 198.359446 
L 227.04049 199.451573 
L 230.688294 199.056737 
L 234.336098 199.549238 
L 237.983902 199.722946 
L 241.631706 201.723272 
L 245.27951 202.168413 
L 248.927314 202.461131 
L 252.575117 202.973216 
L 256.222921 203.036407 
L 259.870725 202.945692 
L 263.518529 203.615328 
L 267.166333 204.972143 
L 270.814137 205.258116 
L 274.461941 205.145428 
L 278.109745 205.034296 
L 281.757549 206.355829 
L 285.405352 207.266696 
L 289.053156 205.537054 
L 292.70096 207.599305 
L 296.348764 207.695667 
L 299.996568 208.636747 
L 303.644372 208.774497 
L 307.292176 208.679957 
L 310.93998 209.708869 
L 314.587783 210.59851 
L 318.235587 210.565303 
L 321.883391 210.732314 
L 325.531195 211.991476 
L 329.178999 211.987072 
L 332.826803 212.688466 
L 336.474607 213.206547 
L 340.122411 213.449323 
L 343.770215 214.378107 
L 347.418018 215.08942 
L 351.065822 214.283 
L 354.713626 215.258832 
L 358.36143 216.13409 
L 362.009234 216.129553 
L 365.657038 216.80159 
L 369.304842 217.45765 
L 372.952646 217.24498 
L 376.600449 217.603593 
L 380.248253 218.664794 
L 383.896057 219.318538 
L 387.543861 218.887563 
L 391.191665 220.505519 
L 394.839469 220.169277 
L 398.487273 220.919697 
" clip-path="url(#pa42a0df160)" style="fill: none; stroke: #ff00ff; stroke-opacity: 0.3; stroke-width: 0.5; stroke-linecap: square"/>
   </g>
   <g id="line2d_51">
    <path d="M 73.832727 160.076727 
L 77.480531 170.583482 
L 81.128335 179.226467 
L 84.776139 186.602868 
L 88.423943 192.276632 
L 92.071747 196.785871 
L 95.719551 205.248318 
L 99.367354 205.008257 
L 103.015158 210.466673 
L 106.662962 213.729781 
L 110.310766 217.640866 
L 113.95857 218.475147 
L 117.606374 221.308849 
L 121.254178 224.817931 
L 124.901982 227.728762 
L 128.549785 229.251507 
L 132.197589 230.911876 
L 135.845393 233.196547 
L 139.493197 234.742864 
L 143.141001 237.217731 
L 146.788805 238.653315 
L 150.436609 239.157334 
L 154.084413 241.131808 
L 157.732217 242.066554 
L 161.38002 244.353179 
L 165.027824 245.183617 
L 168.675628 247.438453 
L 172.323432 248.953657 
L 175.971236 249.50246 
L 179.61904 251.655957 
L 183.266844 251.712748 
L 186.914648 253.833557 
L 190.562451 254.983126 
L 194.210255 256.887628 
L 197.858059 257.581227 
L 201.505863 258.204521 
L 205.153667 260.228582 
L 208.801471 261.108728 
L 212.449275 261.65125 
L 216.097079 264.064656 
L 219.744883 264.009079 
L 223.392686 265.68038 
L 227.04049 266.320289 
L 230.688294 267.249913 
L 234.336098 268.49302 
L 237.983902 269.793666 
L 241.631706 269.647012 
L 245.27951 271.14008 
L 248.927314 272.545921 
L 252.575117 273.090187 
L 256.222921 273.678166 
L 259.870725 274.264507 
L 263.518529 275.371705 
L 267.166333 276.158655 
L 270.814137 277.951115 
L 274.461941 277.799893 
L 278.109745 278.217109 
L 281.757549 278.206005 
L 285.405352 279.674473 
L 289.053156 279.962672 
L 292.70096 281.162742 
L 296.348764 281.640996 
L 299.996568 282.425213 
L 303.644372 283.214188 
L 307.292176 284.145905 
L 310.93998 285.00021 
L 314.587783 284.667881 
L 318.235587 285.606201 
L 321.883391 286.324183 
L 325.531195 286.460886 
L 329.178999 287.319906 
L 332.826803 287.962317 
L 336.474607 287.662347 
L 340.122411 287.714132 
L 343.770215 289.633973 
L 347.418018 289.745865 
L 351.065822 290.036197 
L 354.713626 290.486058 
L 358.36143 290.200272 
L 362.009234 291.572258 
L 365.657038 291.947163 
L 369.304842 292.256481 
L 372.952646 292.817688 
L 376.600449 293.10888 
L 380.248253 293.919161 
L 383.896057 293.797514 
L 387.543861 293.697366 
L 391.191665 294.610087 
L 394.839469 295.320974 
L 398.487273 295.488 
" clip-path="url(#pa42a0df160)" style="fill: none; stroke: #ff00ff; stroke-opacity: 0.3; stroke-width: 0.5; stroke-linecap: square"/>
   </g>
   <g id="line2d_52">
    <path d="M 73.832727 174.150386 
L 77.480531 175.145403 
L 81.128335 177.457633 
L 84.776139 179.367764 
L 88.423943 180.084784 
L 92.071747 180.926063 
L 95.719551 182.455765 
L 99.367354 182.917316 
L 103.015158 185.584949 
L 106.662962 185.568816 
L 110.310766 187.670778 
L 113.95857 188.889216 
L 117.606374 190.130338 
L 121.254178 191.043449 
L 124.901982 192.483727 
L 128.549785 194.209628 
L 132.197589 195.797623 
L 135.845393 196.434558 
L 139.493197 197.607156 
L 143.141001 198.592954 
L 146.788805 200.507622 
L 150.436609 201.594766 
L 154.084413 203.859925 
L 157.732217 203.90165 
L 161.38002 205.343437 
L 165.027824 206.139564 
L 168.675628 207.065272 
L 172.323432 208.272017 
L 175.971236 209.259083 
L 179.61904 210.314395 
L 183.266844 211.61083 
L 186.914648 212.743235 
L 190.562451 213.830861 
L 194.210255 214.761359 
L 197.858059 216.674893 
L 201.505863 216.99686 
L 205.153667 217.449819 
L 208.801471 219.02179 
L 212.449275 220.445054 
L 216.097079 221.765296 
L 219.744883 222.745369 
L 223.392686 223.751752 
L 227.04049 224.815216 
L 230.688294 224.515849 
L 234.336098 226.658927 
L 237.983902 226.663374 
L 241.631706 228.083784 
L 245.27951 228.560135 
L 248.927314 230.306102 
L 252.575117 231.57914 
L 256.222921 232.35254 
L 259.870725 233.521048 
L 263.518529 234.921664 
L 267.166333 235.341272 
L 270.814137 236.418515 
L 274.461941 237.420174 
L 278.109745 238.623089 
L 281.757549 239.338576 
L 285.405352 240.109654 
L 289.053156 240.414203 
L 292.70096 242.161637 
L 296.348764 242.066125 
L 299.996568 243.868823 
L 303.644372 244.463888 
L 307.292176 245.949849 
L 310.93998 246.430435 
L 314.587783 246.99064 
L 318.235587 247.9848 
L 321.883391 249.129428 
L 325.531195 250.870497 
L 329.178999 250.480307 
L 332.826803 251.610696 
L 336.474607 251.811143 
L 340.122411 253.195101 
L 343.770215 254.171452 
L 347.418018 254.920278 
L 351.065822 255.78916 
L 354.713626 256.282668 
L 358.36143 256.805794 
L 362.009234 258.352841 
L 365.657038 258.403447 
L 369.304842 260.052492 
L 372.952646 261.142375 
L 376.600449 261.669566 
L 380.248253 262.351286 
L 383.896057 262.451069 
L 387.543861 262.756414 
L 391.191665 263.994406 
L 394.839469 265.229568 
L 398.487273 265.126038 
" clip-path="url(#pa42a0df160)" style="fill: none; stroke: #ff00ff; stroke-opacity: 0.3; stroke-width: 0.5; stroke-linecap: square"/>
   </g>
   <g id="line2d_53">
    <path d="M 73.832727 174.249016 
L 77.480531 175.2714 
L 81.128335 174.342012 
L 84.776139 175.884939 
L 88.423943 175.263231 
L 92.071747 175.684504 
L 95.719551 177.517181 
L 99.367354 177.640306 
L 103.015158 178.196312 
L 106.662962 178.254122 
L 110.310766 177.876083 
L 113.95857 178.398641 
L 117.606374 179.4631 
L 121.254178 179.451987 
L 124.901982 180.376524 
L 128.549785 179.614738 
L 132.197589 180.026334 
L 135.845393 181.328054 
L 139.493197 181.389713 
L 143.141001 181.483964 
L 146.788805 181.6381 
L 150.436609 181.344428 
L 154.084413 183.366076 
L 157.732217 183.334378 
L 161.38002 183.514661 
L 165.027824 183.317328 
L 168.675628 183.301147 
L 172.323432 184.357268 
L 175.971236 184.186589 
L 179.61904 184.908013 
L 183.266844 185.502162 
L 186.914648 186.094415 
L 190.562451 185.754156 
L 194.210255 186.540678 
L 197.858059 186.685474 
L 201.505863 186.407984 
L 205.153667 186.853969 
L 208.801471 186.30583 
L 212.449275 187.508533 
L 216.097079 188.32743 
L 219.744883 188.433155 
L 223.392686 188.422139 
L 227.04049 189.650218 
L 230.688294 188.797101 
L 234.336098 189.114591 
L 237.983902 189.71131 
L 241.631706 191.034122 
L 245.27951 190.807732 
L 248.927314 190.669657 
L 252.575117 190.95861 
L 256.222921 190.703238 
L 259.870725 191.907992 
L 263.518529 192.580101 
L 267.166333 192.100053 
L 270.814137 192.545615 
L 274.461941 193.389236 
L 278.109745 192.452113 
L 281.757549 193.466678 
L 285.405352 193.902913 
L 289.053156 193.586702 
L 292.70096 193.613622 
L 296.348764 194.377773 
L 299.996568 194.955426 
L 303.644372 195.562365 
L 307.292176 194.717067 
L 310.93998 194.753013 
L 314.587783 196.006069 
L 318.235587 195.777641 
L 321.883391 196.327819 
L 325.531195 197.229551 
L 329.178999 196.717249 
L 332.826803 197.653165 
L 336.474607 197.471892 
L 340.122411 197.550553 
L 343.770215 198.438891 
L 347.418018 197.790601 
L 351.065822 198.357141 
L 354.713626 198.747706 
L 358.36143 199.136279 
L 362.009234 198.983905 
L 365.657038 199.505196 
L 369.304842 199.890222 
L 372.952646 199.935797 
L 376.600449 200.324418 
L 380.248253 200.663544 
L 383.896057 200.875079 
L 387.543861 200.839363 
L 391.191665 200.662301 
L 394.839469 201.474922 
L 398.487273 201.270603 
" clip-path="url(#pa42a0df160)" style="fill: none; stroke: #ff00ff; stroke-opacity: 0.3; stroke-width: 0.5; stroke-linecap: square"/>
   </g>
   <g id="line2d_54">
    <path d="M 73.832727 191.448131 
L 77.480531 192.202014 
L 81.128335 192.570231 
L 84.776139 192.599287 
L 88.423943 193.108475 
L 92.071747 192.637971 
L 95.719551 192.95872 
L 99.367354 193.680277 
L 103.015158 193.819595 
L 106.662962 193.921604 
L 110.310766 193.716621 
L 113.95857 194.834883 
L 117.606374 194.553834 
L 121.254178 194.285043 
L 124.901982 195.085888 
L 128.549785 195.486564 
L 132.197589 195.864881 
L 135.845393 196.137714 
L 139.493197 196.986703 
L 143.141001 196.080072 
L 146.788805 196.738088 
L 150.436609 197.400242 
L 154.084413 197.541865 
L 157.732217 197.434438 
L 161.38002 198.019211 
L 165.027824 198.345171 
L 168.675628 198.206903 
L 172.323432 198.298619 
L 175.971236 199.441908 
L 179.61904 199.491066 
L 183.266844 198.984991 
L 186.914648 199.780949 
L 190.562451 200.499682 
L 194.210255 200.397878 
L 197.858059 200.552376 
L 201.505863 201.183508 
L 205.153667 201.095447 
L 208.801471 201.552666 
L 212.449275 201.856075 
L 216.097079 201.642778 
L 219.744883 202.949421 
L 223.392686 202.706826 
L 227.04049 203.777234 
L 230.688294 204.115261 
L 234.336098 204.32915 
L 237.983902 204.850586 
L 241.631706 205.087751 
L 245.27951 205.989579 
L 248.927314 206.317374 
L 252.575117 206.705453 
L 256.222921 207.373037 
L 259.870725 207.188952 
L 263.518529 207.083275 
L 267.166333 208.291987 
L 270.814137 209.37323 
L 274.461941 209.676869 
L 278.109745 208.662171 
L 281.757549 209.352102 
L 285.405352 210.098057 
L 289.053156 210.176465 
L 292.70096 210.942233 
L 296.348764 210.774739 
L 299.996568 212.484761 
L 303.644372 212.698469 
L 307.292176 214.015875 
L 310.93998 213.765341 
L 314.587783 214.347266 
L 318.235587 214.329106 
L 321.883391 215.037064 
L 325.531195 214.984756 
L 329.178999 214.790089 
L 332.826803 216.043484 
L 336.474607 216.096057 
L 340.122411 216.755219 
L 343.770215 217.331496 
L 347.418018 217.363231 
L 351.065822 217.673952 
L 354.713626 218.270187 
L 358.36143 218.277922 
L 362.009234 218.450652 
L 365.657038 219.711165 
L 369.304842 219.850966 
L 372.952646 220.487202 
L 376.600449 221.595848 
L 380.248253 221.130967 
L 383.896057 222.181103 
L 387.543861 222.421055 
L 391.191665 223.506214 
L 394.839469 223.515155 
L 398.487273 223.377508 
" clip-path="url(#pa42a0df160)" style="fill: none; stroke: #ff00ff; stroke-opacity: 0.3; stroke-width: 0.5; stroke-linecap: square"/>
   </g>
   <g id="line2d_55">
    <path d="M 73.832727 182.40838 
L 77.480531 179.993055 
L 81.128335 178.356168 
L 84.776139 176.422604 
L 88.423943 174.651732 
L 92.071747 172.831254 
L 95.719551 170.871483 
L 99.367354 169.286155 
L 103.015158 167.773225 
L 106.662962 166.293731 
L 110.310766 165.119058 
L 113.95857 163.371715 
L 117.606374 162.044679 
L 121.254178 160.202664 
L 124.901982 159.257469 
L 128.549785 158.250084 
L 132.197589 156.204713 
L 135.845393 155.085437 
L 139.493197 153.925509 
L 143.141001 152.923143 
L 146.788805 151.388397 
L 150.436609 149.936572 
L 154.084413 148.915154 
L 157.732217 147.571213 
L 161.38002 146.441668 
L 165.027824 145.412467 
L 168.675628 144.625692 
L 172.323432 142.555827 
L 175.971236 141.996936 
L 179.61904 140.015964 
L 183.266844 139.428561 
L 186.914648 137.297423 
L 190.562451 136.482062 
L 194.210255 134.968734 
L 197.858059 133.620716 
L 201.505863 132.33613 
L 205.153667 131.036401 
L 208.801471 128.932509 
L 212.449275 128.383139 
L 216.097079 126.415657 
L 219.744883 125.204664 
L 223.392686 123.139456 
L 227.04049 121.346394 
L 230.688294 120.77493 
L 234.336098 119.37779 
L 237.983902 118.330091 
L 241.631706 116.169849 
L 245.27951 114.299778 
L 248.927314 113.339223 
L 252.575117 111.628936 
L 256.222921 110.39498 
L 259.870725 108.8466 
L 263.518529 106.910382 
L 267.166333 105.631443 
L 270.814137 104.194652 
L 274.461941 102.641155 
L 278.109745 101.571737 
L 281.757549 100.882602 
L 285.405352 97.944079 
L 289.053156 97.66356 
L 292.70096 95.709484 
L 296.348764 95.109761 
L 299.996568 92.904729 
L 303.644372 90.625536 
L 307.292176 89.408329 
L 310.93998 87.780503 
L 314.587783 86.796201 
L 318.235587 85.135893 
L 321.883391 83.126625 
L 325.531195 81.544627 
L 329.178999 81.50768 
L 332.826803 78.710937 
L 336.474607 78.798128 
L 340.122411 77.281506 
L 343.770215 75.162965 
L 347.418018 72.988075 
L 351.065822 72.34192 
L 354.713626 70.332411 
L 358.36143 71.048044 
L 362.009234 68.402202 
L 365.657038 66.865478 
L 369.304842 65.347263 
L 372.952646 63.289247 
L 376.600449 61.410489 
L 380.248253 59.942591 
L 383.896057 59.879966 
L 387.543861 59.247447 
L 391.191665 56.899621 
L 394.839469 53.568 
L 398.487273 54.594124 
" clip-path="url(#pa42a0df160)" style="fill: none; stroke: #6495ed; stroke-width: 2; stroke-linecap: square"/>
   </g>
   <g id="line2d_56">
    <path d="M 73.832727 179.801237 
L 77.480531 181.887956 
L 81.128335 183.537461 
L 84.776139 185.276261 
L 88.423943 186.833116 
L 92.071747 188.374871 
L 95.719551 189.973863 
L 99.367354 191.279222 
L 103.015158 192.588532 
L 106.662962 193.860001 
L 110.310766 194.904942 
L 113.95857 196.210561 
L 117.606374 197.281277 
L 121.254178 198.600933 
L 124.901982 199.471548 
L 128.549785 200.361089 
L 132.197589 201.646131 
L 135.845393 202.554487 
L 139.493197 203.474637 
L 143.141001 204.286693 
L 146.788805 205.296594 
L 150.436609 206.252793 
L 154.084413 207.034699 
L 157.732217 207.950166 
L 161.38002 208.749718 
L 165.027824 209.480262 
L 168.675628 210.123053 
L 172.323432 211.259569 
L 175.971236 211.792733 
L 179.61904 212.829615 
L 183.266844 213.410608 
L 186.914648 214.450959 
L 190.562451 215.059622 
L 194.210255 215.903209 
L 197.858059 216.654046 
L 201.505863 217.382788 
L 205.153667 218.112339 
L 208.801471 219.101094 
L 212.449275 219.599565 
L 216.097079 220.499982 
L 219.744883 221.198564 
L 223.392686 222.141624 
L 227.04049 222.960407 
L 230.688294 223.463092 
L 234.336098 224.15743 
L 237.983902 224.763719 
L 241.631706 225.692567 
L 245.27951 226.521032 
L 248.927314 227.095274 
L 252.575117 227.839614 
L 256.222921 228.475506 
L 259.870725 229.212203 
L 263.518529 230.00629 
L 267.166333 230.627055 
L 270.814137 231.288171 
L 274.461941 231.988728 
L 278.109745 232.543468 
L 281.757549 233.023741 
L 285.405352 234.026763 
L 289.053156 234.393557 
L 292.70096 235.141889 
L 296.348764 235.564931 
L 299.996568 236.381075 
L 303.644372 237.190416 
L 307.292176 237.73431 
L 310.93998 238.417269 
L 314.587783 238.90043 
L 318.235587 239.528842 
L 321.883391 240.269404 
L 325.531195 240.905112 
L 329.178999 241.163749 
L 332.826803 242.055189 
L 336.474607 242.291274 
L 340.122411 242.887858 
L 343.770215 243.573844 
L 347.418018 244.292475 
L 351.065822 244.684584 
L 354.713626 245.347597 
L 358.36143 245.474339 
L 362.009234 246.242827 
L 365.657038 246.805062 
L 369.304842 247.369839 
L 372.952646 248.019721 
L 376.600449 248.609895 
L 380.248253 249.151711 
L 383.896057 249.39555 
L 387.543861 249.740356 
L 391.191665 250.396822 
L 394.839469 251.271098 
L 398.487273 251.3038 
" clip-path="url(#pa42a0df160)" style="fill: none; stroke: #dc143c; stroke-width: 2; stroke-linecap: square"/>
   </g>
   <g id="line2d_57">
    <path d="M 73.832727 255.613256 
L 77.480531 252.91682 
L 81.128335 249.390712 
L 84.776139 244.412677 
L 88.423943 238.190133 
L 92.071747 230.100826 
L 95.719551 222.426355 
L 99.367354 216.411229 
L 103.015158 214.12963 
L 106.662962 210.396103 
L 110.310766 207.284831 
L 113.95857 206.869995 
L 117.606374 206.455159 
L 121.254178 204.173559 
L 124.901982 201.269705 
L 128.549785 200.440033 
L 132.197589 198.988106 
L 135.845393 197.743597 
L 139.493197 197.328761 
L 143.141001 196.499088 
L 146.788805 195.461998 
L 150.436609 194.632325 
L 154.084413 194.424907 
L 157.732217 193.802653 
L 161.38002 193.802653 
L 165.027824 192.143307 
L 168.675628 191.106217 
L 172.323432 191.106217 
L 175.971236 190.898799 
L 179.61904 190.276544 
L 183.266844 189.446872 
L 186.914648 188.824617 
L 190.562451 188.409781 
L 194.210255 187.994945 
L 197.858059 187.787527 
L 201.505863 187.580109 
L 205.153667 187.580109 
L 208.801471 187.580109 
L 212.449275 187.580109 
L 216.097079 187.37269 
L 219.744883 187.165272 
L 223.392686 187.165272 
L 227.04049 187.165272 
L 230.688294 186.957854 
L 234.336098 186.543018 
L 237.983902 186.128182 
L 241.631706 185.713345 
L 245.27951 185.920763 
L 248.927314 185.505927 
L 252.575117 185.505927 
L 256.222921 185.091091 
L 259.870725 185.091091 
L 263.518529 185.091091 
L 267.166333 184.883673 
L 270.814137 184.676255 
L 274.461941 184.468837 
L 278.109745 184.261418 
L 281.757549 184.261418 
L 285.405352 184.261418 
L 289.053156 184.054 
L 292.70096 184.054 
L 296.348764 183.639164 
L 299.996568 183.431746 
L 303.644372 183.224328 
L 307.292176 183.431746 
L 310.93998 183.639164 
L 314.587783 183.431746 
L 318.235587 183.431746 
L 321.883391 183.431746 
L 325.531195 183.224328 
L 329.178999 183.224328 
L 332.826803 183.224328 
L 336.474607 182.809491 
L 340.122411 182.602073 
L 343.770215 182.602073 
L 347.418018 182.602073 
L 351.065822 182.602073 
L 354.713626 182.809491 
L 358.36143 182.602073 
L 362.009234 182.809491 
L 365.657038 182.809491 
L 369.304842 182.602073 
L 372.952646 182.602073 
L 376.600449 182.602073 
L 380.248253 182.394655 
L 383.896057 182.394655 
L 387.543861 182.394655 
L 391.191665 182.394655 
L 394.839469 182.394655 
L 398.487273 182.394655 
" clip-path="url(#pa42a0df160)" style="fill: none; stroke: #ffff00; stroke-width: 3; stroke-linecap: square"/>
   </g>
   <g id="patch_3">
    <path d="M 57.6 307.584 
L 57.6 41.472 
" style="fill: none; stroke: #ffffff; stroke-linejoin: miter; stroke-linecap: square"/>
   </g>
   <g id="patch_4">
    <path d="M 414.72 307.584 
L 414.72 41.472 
" style="fill: none; stroke: #ffffff; stroke-linejoin: miter; stroke-linecap: square"/>
   </g>
   <g id="patch_5">
    <path d="M 57.6 307.584 
L 414.72 307.584 
" style="fill: none; stroke: #ffffff; stroke-linejoin: miter; stroke-linecap: square"/>
   </g>
   <g id="patch_6">
    <path d="M 57.6 41.472 
L 414.72 41.472 
" style="fill: none; stroke: #ffffff; stroke-linejoin: miter; stroke-linecap: square"/>
   </g>
  </g>
 </g>
 <defs>
  <clipPath id="pa42a0df160">
   <rect x="57.6" y="41.472" width="357.12" height="266.112"/>
  </clipPath>
 </defs>
</svg>
