<?xml version="1.0" encoding="utf-8" standalone="no"?>
<!DOCTYPE svg PUBLIC "-//W3C//DTD SVG 1.1//EN"
  "http://www.w3.org/Graphics/SVG/1.1/DTD/svg11.dtd">
<svg xmlns:xlink="http://www.w3.org/1999/xlink" width="460.8pt" height="345.6pt" viewBox="0 0 460.8 345.6" xmlns="http://www.w3.org/2000/svg" version="1.1">
 <metadata>
  <rdf:RDF xmlns:dc="http://purl.org/dc/elements/1.1/" xmlns:cc="http://creativecommons.org/ns#" xmlns:rdf="http://www.w3.org/1999/02/22-rdf-syntax-ns#">
   <cc:Work>
    <dc:type rdf:resource="http://purl.org/dc/dcmitype/StillImage"/>
    <dc:date>2023-07-09T11:21:27.929955</dc:date>
    <dc:format>image/svg+xml</dc:format>
    <dc:creator>
     <cc:Agent>
      <dc:title>Matplotlib v3.7.1, https://matplotlib.org/</dc:title>
     </cc:Agent>
    </dc:creator>
   </cc:Work>
  </rdf:RDF>
 </metadata>
 <defs>
  <style type="text/css">*{stroke-linejoin: round; stroke-linecap: butt}</style>
 </defs>
 <g id="figure_1">
  <g id="patch_1">
   <path d="M 0 345.6 
L 460.8 345.6 
L 460.8 0 
L 0 0 
z
" style="fill: #ffffff"/>
  </g>
  <g id="axes_1">
   <g id="patch_2">
    <path d="M 57.6 307.584 
L 414.72 307.584 
L 414.72 41.472 
L 57.6 41.472 
z
" style="fill: #e5e5e5"/>
   </g>
   <g id="matplotlib.axis_1">
    <g id="xtick_1">
     <g id="line2d_1">
      <path d="M 70.184923 307.584 
L 70.184923 41.472 
" clip-path="url(#p0b3fed8c5d)" style="fill: none; stroke: #ffffff; stroke-width: 0.8; stroke-linecap: square"/>
     </g>
     <g id="line2d_2">
      <defs>
       <path id="m16cb338a49" d="M 0 0 
L 0 3.5 
" style="stroke: #555555; stroke-width: 0.8"/>
      </defs>
      <g>
       <use xlink:href="#m16cb338a49" x="70.184923" y="307.584" style="fill: #555555; stroke: #555555; stroke-width: 0.8"/>
      </g>
     </g>
     <g id="text_1">
      <!-- 0 -->
      <g style="fill: #555555" transform="translate(67.003673 322.182437) scale(0.1 -0.1)">
       <defs>
        <path id="DejaVuSans-30" d="M 2034 4250 
Q 1547 4250 1301 3770 
Q 1056 3291 1056 2328 
Q 1056 1369 1301 889 
Q 1547 409 2034 409 
Q 2525 409 2770 889 
Q 3016 1369 3016 2328 
Q 3016 3291 2770 3770 
Q 2525 4250 2034 4250 
z
M 2034 4750 
Q 2819 4750 3233 4129 
Q 3647 3509 3647 2328 
Q 3647 1150 3233 529 
Q 2819 -91 2034 -91 
Q 1250 -91 836 529 
Q 422 1150 422 2328 
Q 422 3509 836 4129 
Q 1250 4750 2034 4750 
z
" transform="scale(0.015625)"/>
       </defs>
       <use xlink:href="#DejaVuSans-30"/>
      </g>
     </g>
    </g>
    <g id="xtick_2">
     <g id="line2d_3">
      <path d="M 143.141001 307.584 
L 143.141001 41.472 
" clip-path="url(#p0b3fed8c5d)" style="fill: none; stroke: #ffffff; stroke-width: 0.8; stroke-linecap: square"/>
     </g>
     <g id="line2d_4">
      <g>
       <use xlink:href="#m16cb338a49" x="143.141001" y="307.584" style="fill: #555555; stroke: #555555; stroke-width: 0.8"/>
      </g>
     </g>
     <g id="text_2">
      <!-- 20 -->
      <g style="fill: #555555" transform="translate(136.778501 322.182437) scale(0.1 -0.1)">
       <defs>
        <path id="DejaVuSans-32" d="M 1228 531 
L 3431 531 
L 3431 0 
L 469 0 
L 469 531 
Q 828 903 1448 1529 
Q 2069 2156 2228 2338 
Q 2531 2678 2651 2914 
Q 2772 3150 2772 3378 
Q 2772 3750 2511 3984 
Q 2250 4219 1831 4219 
Q 1534 4219 1204 4116 
Q 875 4013 500 3803 
L 500 4441 
Q 881 4594 1212 4672 
Q 1544 4750 1819 4750 
Q 2544 4750 2975 4387 
Q 3406 4025 3406 3419 
Q 3406 3131 3298 2873 
Q 3191 2616 2906 2266 
Q 2828 2175 2409 1742 
Q 1991 1309 1228 531 
z
" transform="scale(0.015625)"/>
       </defs>
       <use xlink:href="#DejaVuSans-32"/>
       <use xlink:href="#DejaVuSans-30" x="63.623047"/>
      </g>
     </g>
    </g>
    <g id="xtick_3">
     <g id="line2d_5">
      <path d="M 216.097079 307.584 
L 216.097079 41.472 
" clip-path="url(#p0b3fed8c5d)" style="fill: none; stroke: #ffffff; stroke-width: 0.8; stroke-linecap: square"/>
     </g>
     <g id="line2d_6">
      <g>
       <use xlink:href="#m16cb338a49" x="216.097079" y="307.584" style="fill: #555555; stroke: #555555; stroke-width: 0.8"/>
      </g>
     </g>
     <g id="text_3">
      <!-- 40 -->
      <g style="fill: #555555" transform="translate(209.734579 322.182437) scale(0.1 -0.1)">
       <defs>
        <path id="DejaVuSans-34" d="M 2419 4116 
L 825 1625 
L 2419 1625 
L 2419 4116 
z
M 2253 4666 
L 3047 4666 
L 3047 1625 
L 3713 1625 
L 3713 1100 
L 3047 1100 
L 3047 0 
L 2419 0 
L 2419 1100 
L 313 1100 
L 313 1709 
L 2253 4666 
z
" transform="scale(0.015625)"/>
       </defs>
       <use xlink:href="#DejaVuSans-34"/>
       <use xlink:href="#DejaVuSans-30" x="63.623047"/>
      </g>
     </g>
    </g>
    <g id="xtick_4">
     <g id="line2d_7">
      <path d="M 289.053156 307.584 
L 289.053156 41.472 
" clip-path="url(#p0b3fed8c5d)" style="fill: none; stroke: #ffffff; stroke-width: 0.8; stroke-linecap: square"/>
     </g>
     <g id="line2d_8">
      <g>
       <use xlink:href="#m16cb338a49" x="289.053156" y="307.584" style="fill: #555555; stroke: #555555; stroke-width: 0.8"/>
      </g>
     </g>
     <g id="text_4">
      <!-- 60 -->
      <g style="fill: #555555" transform="translate(282.690656 322.182437) scale(0.1 -0.1)">
       <defs>
        <path id="DejaVuSans-36" d="M 2113 2584 
Q 1688 2584 1439 2293 
Q 1191 2003 1191 1497 
Q 1191 994 1439 701 
Q 1688 409 2113 409 
Q 2538 409 2786 701 
Q 3034 994 3034 1497 
Q 3034 2003 2786 2293 
Q 2538 2584 2113 2584 
z
M 3366 4563 
L 3366 3988 
Q 3128 4100 2886 4159 
Q 2644 4219 2406 4219 
Q 1781 4219 1451 3797 
Q 1122 3375 1075 2522 
Q 1259 2794 1537 2939 
Q 1816 3084 2150 3084 
Q 2853 3084 3261 2657 
Q 3669 2231 3669 1497 
Q 3669 778 3244 343 
Q 2819 -91 2113 -91 
Q 1303 -91 875 529 
Q 447 1150 447 2328 
Q 447 3434 972 4092 
Q 1497 4750 2381 4750 
Q 2619 4750 2861 4703 
Q 3103 4656 3366 4563 
z
" transform="scale(0.015625)"/>
       </defs>
       <use xlink:href="#DejaVuSans-36"/>
       <use xlink:href="#DejaVuSans-30" x="63.623047"/>
      </g>
     </g>
    </g>
    <g id="xtick_5">
     <g id="line2d_9">
      <path d="M 362.009234 307.584 
L 362.009234 41.472 
" clip-path="url(#p0b3fed8c5d)" style="fill: none; stroke: #ffffff; stroke-width: 0.8; stroke-linecap: square"/>
     </g>
     <g id="line2d_10">
      <g>
       <use xlink:href="#m16cb338a49" x="362.009234" y="307.584" style="fill: #555555; stroke: #555555; stroke-width: 0.8"/>
      </g>
     </g>
     <g id="text_5">
      <!-- 80 -->
      <g style="fill: #555555" transform="translate(355.646734 322.182437) scale(0.1 -0.1)">
       <defs>
        <path id="DejaVuSans-38" d="M 2034 2216 
Q 1584 2216 1326 1975 
Q 1069 1734 1069 1313 
Q 1069 891 1326 650 
Q 1584 409 2034 409 
Q 2484 409 2743 651 
Q 3003 894 3003 1313 
Q 3003 1734 2745 1975 
Q 2488 2216 2034 2216 
z
M 1403 2484 
Q 997 2584 770 2862 
Q 544 3141 544 3541 
Q 544 4100 942 4425 
Q 1341 4750 2034 4750 
Q 2731 4750 3128 4425 
Q 3525 4100 3525 3541 
Q 3525 3141 3298 2862 
Q 3072 2584 2669 2484 
Q 3125 2378 3379 2068 
Q 3634 1759 3634 1313 
Q 3634 634 3220 271 
Q 2806 -91 2034 -91 
Q 1263 -91 848 271 
Q 434 634 434 1313 
Q 434 1759 690 2068 
Q 947 2378 1403 2484 
z
M 1172 3481 
Q 1172 3119 1398 2916 
Q 1625 2713 2034 2713 
Q 2441 2713 2670 2916 
Q 2900 3119 2900 3481 
Q 2900 3844 2670 4047 
Q 2441 4250 2034 4250 
Q 1625 4250 1398 4047 
Q 1172 3844 1172 3481 
z
" transform="scale(0.015625)"/>
       </defs>
       <use xlink:href="#DejaVuSans-38"/>
       <use xlink:href="#DejaVuSans-30" x="63.623047"/>
      </g>
     </g>
    </g>
   </g>
   <g id="matplotlib.axis_2">
    <g id="ytick_1">
     <g id="line2d_11">
      <path d="M 57.6 283.391979 
L 414.72 283.391979 
" clip-path="url(#p0b3fed8c5d)" style="fill: none; stroke: #ffffff; stroke-width: 0.8; stroke-linecap: square"/>
     </g>
     <g id="line2d_12">
      <defs>
       <path id="m165fec057a" d="M 0 0 
L -3.5 0 
" style="stroke: #555555; stroke-width: 0.8"/>
      </defs>
      <g>
       <use xlink:href="#m165fec057a" x="57.6" y="283.391979" style="fill: #555555; stroke: #555555; stroke-width: 0.8"/>
      </g>
     </g>
     <g id="text_6">
      <!-- 0.2 -->
      <g style="fill: #555555" transform="translate(34.696875 287.191197) scale(0.1 -0.1)">
       <defs>
        <path id="DejaVuSans-2e" d="M 684 794 
L 1344 794 
L 1344 0 
L 684 0 
L 684 794 
z
" transform="scale(0.015625)"/>
       </defs>
       <use xlink:href="#DejaVuSans-30"/>
       <use xlink:href="#DejaVuSans-2e" x="63.623047"/>
       <use xlink:href="#DejaVuSans-32" x="95.410156"/>
      </g>
     </g>
    </g>
    <g id="ytick_2">
     <g id="line2d_13">
      <path d="M 57.6 244.653389 
L 414.72 244.653389 
" clip-path="url(#p0b3fed8c5d)" style="fill: none; stroke: #ffffff; stroke-width: 0.8; stroke-linecap: square"/>
     </g>
     <g id="line2d_14">
      <g>
       <use xlink:href="#m165fec057a" x="57.6" y="244.653389" style="fill: #555555; stroke: #555555; stroke-width: 0.8"/>
      </g>
     </g>
     <g id="text_7">
      <!-- 0.4 -->
      <g style="fill: #555555" transform="translate(34.696875 248.452608) scale(0.1 -0.1)">
       <use xlink:href="#DejaVuSans-30"/>
       <use xlink:href="#DejaVuSans-2e" x="63.623047"/>
       <use xlink:href="#DejaVuSans-34" x="95.410156"/>
      </g>
     </g>
    </g>
    <g id="ytick_3">
     <g id="line2d_15">
      <path d="M 57.6 205.9148 
L 414.72 205.9148 
" clip-path="url(#p0b3fed8c5d)" style="fill: none; stroke: #ffffff; stroke-width: 0.8; stroke-linecap: square"/>
     </g>
     <g id="line2d_16">
      <g>
       <use xlink:href="#m165fec057a" x="57.6" y="205.9148" style="fill: #555555; stroke: #555555; stroke-width: 0.8"/>
      </g>
     </g>
     <g id="text_8">
      <!-- 0.6 -->
      <g style="fill: #555555" transform="translate(34.696875 209.714018) scale(0.1 -0.1)">
       <use xlink:href="#DejaVuSans-30"/>
       <use xlink:href="#DejaVuSans-2e" x="63.623047"/>
       <use xlink:href="#DejaVuSans-36" x="95.410156"/>
      </g>
     </g>
    </g>
    <g id="ytick_4">
     <g id="line2d_17">
      <path d="M 57.6 167.17621 
L 414.72 167.17621 
" clip-path="url(#p0b3fed8c5d)" style="fill: none; stroke: #ffffff; stroke-width: 0.8; stroke-linecap: square"/>
     </g>
     <g id="line2d_18">
      <g>
       <use xlink:href="#m165fec057a" x="57.6" y="167.17621" style="fill: #555555; stroke: #555555; stroke-width: 0.8"/>
      </g>
     </g>
     <g id="text_9">
      <!-- 0.8 -->
      <g style="fill: #555555" transform="translate(34.696875 170.975429) scale(0.1 -0.1)">
       <use xlink:href="#DejaVuSans-30"/>
       <use xlink:href="#DejaVuSans-2e" x="63.623047"/>
       <use xlink:href="#DejaVuSans-38" x="95.410156"/>
      </g>
     </g>
    </g>
    <g id="ytick_5">
     <g id="line2d_19">
      <path d="M 57.6 128.437621 
L 414.72 128.437621 
" clip-path="url(#p0b3fed8c5d)" style="fill: none; stroke: #ffffff; stroke-width: 0.8; stroke-linecap: square"/>
     </g>
     <g id="line2d_20">
      <g>
       <use xlink:href="#m165fec057a" x="57.6" y="128.437621" style="fill: #555555; stroke: #555555; stroke-width: 0.8"/>
      </g>
     </g>
     <g id="text_10">
      <!-- 1.0 -->
      <g style="fill: #555555" transform="translate(34.696875 132.23684) scale(0.1 -0.1)">
       <defs>
        <path id="DejaVuSans-31" d="M 794 531 
L 1825 531 
L 1825 4091 
L 703 3866 
L 703 4441 
L 1819 4666 
L 2450 4666 
L 2450 531 
L 3481 531 
L 3481 0 
L 794 0 
L 794 531 
z
" transform="scale(0.015625)"/>
       </defs>
       <use xlink:href="#DejaVuSans-31"/>
       <use xlink:href="#DejaVuSans-2e" x="63.623047"/>
       <use xlink:href="#DejaVuSans-30" x="95.410156"/>
      </g>
     </g>
    </g>
    <g id="ytick_6">
     <g id="line2d_21">
      <path d="M 57.6 89.699031 
L 414.72 89.699031 
" clip-path="url(#p0b3fed8c5d)" style="fill: none; stroke: #ffffff; stroke-width: 0.8; stroke-linecap: square"/>
     </g>
     <g id="line2d_22">
      <g>
       <use xlink:href="#m165fec057a" x="57.6" y="89.699031" style="fill: #555555; stroke: #555555; stroke-width: 0.8"/>
      </g>
     </g>
     <g id="text_11">
      <!-- 1.2 -->
      <g style="fill: #555555" transform="translate(34.696875 93.49825) scale(0.1 -0.1)">
       <use xlink:href="#DejaVuSans-31"/>
       <use xlink:href="#DejaVuSans-2e" x="63.623047"/>
       <use xlink:href="#DejaVuSans-32" x="95.410156"/>
      </g>
     </g>
    </g>
    <g id="ytick_7">
     <g id="line2d_23">
      <path d="M 57.6 50.960442 
L 414.72 50.960442 
" clip-path="url(#p0b3fed8c5d)" style="fill: none; stroke: #ffffff; stroke-width: 0.8; stroke-linecap: square"/>
     </g>
     <g id="line2d_24">
      <g>
       <use xlink:href="#m165fec057a" x="57.6" y="50.960442" style="fill: #555555; stroke: #555555; stroke-width: 0.8"/>
      </g>
     </g>
     <g id="text_12">
      <!-- 1.4 -->
      <g style="fill: #555555" transform="translate(34.696875 54.759661) scale(0.1 -0.1)">
       <use xlink:href="#DejaVuSans-31"/>
       <use xlink:href="#DejaVuSans-2e" x="63.623047"/>
       <use xlink:href="#DejaVuSans-34" x="95.410156"/>
      </g>
     </g>
    </g>
   </g>
   <g id="line2d_25">
    <path d="M 73.832727 197.938863 
L 77.480531 198.42956 
L 81.128335 199.859824 
L 84.776139 200.377698 
L 88.423943 199.964953 
L 92.071747 201.418029 
L 95.719551 201.313259 
L 99.367354 202.676354 
L 103.015158 203.648835 
L 106.662962 203.328935 
L 110.310766 203.822529 
L 113.95857 204.901964 
L 117.606374 206.00271 
L 121.254178 205.571724 
L 124.901982 206.842182 
L 128.549785 207.942951 
L 132.197589 207.721761 
L 135.845393 207.346548 
L 139.493197 207.546577 
L 143.141001 208.610576 
L 146.788805 208.902999 
L 150.436609 209.37527 
L 154.084413 210.14875 
L 157.732217 210.487181 
L 161.38002 211.86563 
L 165.027824 212.144558 
L 168.675628 213.607782 
L 172.323432 213.331499 
L 175.971236 213.00817 
L 179.61904 213.95434 
L 183.266844 213.316721 
L 186.914648 215.872045 
L 190.562451 216.314796 
L 194.210255 216.028468 
L 197.858059 217.165559 
L 201.505863 216.744766 
L 205.153667 217.50684 
L 208.801471 219.253102 
L 212.449275 218.154434 
L 216.097079 219.869051 
L 219.744883 219.558664 
L 223.392686 220.619684 
L 227.04049 221.24929 
L 230.688294 220.366848 
L 234.336098 222.681713 
L 237.983902 222.111598 
L 241.631706 223.472638 
L 245.27951 222.864655 
L 248.927314 224.972183 
L 252.575117 224.733987 
L 256.222921 226.333506 
L 259.870725 225.319994 
L 263.518529 225.442596 
L 267.166333 226.693854 
L 270.814137 225.380316 
L 274.461941 227.630921 
L 278.109745 227.916343 
L 281.757549 229.228374 
L 285.405352 229.171659 
L 289.053156 229.487715 
L 292.70096 229.560945 
L 296.348764 230.732093 
L 299.996568 231.976332 
L 303.644372 230.738235 
L 307.292176 232.221842 
L 310.93998 232.931427 
L 314.587783 232.523507 
L 318.235587 233.071624 
L 321.883391 234.435706 
L 325.531195 234.868585 
L 329.178999 235.794171 
L 332.826803 237.2541 
L 336.474607 236.755766 
L 340.122411 236.036397 
L 343.770215 236.227161 
L 347.418018 237.652737 
L 351.065822 238.22489 
L 354.713626 238.782121 
L 358.36143 239.022026 
L 362.009234 240.428553 
L 365.657038 240.054847 
L 369.304842 240.351392 
L 372.952646 240.387574 
L 376.600449 241.31241 
L 380.248253 241.714141 
L 383.896057 242.491183 
L 387.543861 243.590463 
L 391.191665 243.149144 
L 394.839469 244.044366 
L 398.487273 243.326591 
" clip-path="url(#p0b3fed8c5d)" style="fill: none; stroke: #ff00ff; stroke-opacity: 0.3; stroke-width: 0.5; stroke-linecap: square"/>
   </g>
   <g id="line2d_26">
    <path d="M 73.832727 198.32091 
L 77.480531 199.279307 
L 81.128335 201.228645 
L 84.776139 201.384341 
L 88.423943 202.687945 
L 92.071747 205.011018 
L 95.719551 206.402548 
L 99.367354 207.534328 
L 103.015158 208.3611 
L 106.662962 209.034843 
L 110.310766 210.925129 
L 113.95857 211.779412 
L 117.606374 212.610548 
L 121.254178 215.035125 
L 124.901982 215.738701 
L 128.549785 217.717202 
L 132.197589 217.6264 
L 135.845393 219.852288 
L 139.493197 219.98883 
L 143.141001 221.546505 
L 146.788805 222.695683 
L 150.436609 224.387775 
L 154.084413 224.824488 
L 157.732217 227.055565 
L 161.38002 226.60972 
L 165.027824 228.239464 
L 168.675628 228.776578 
L 172.323432 230.750317 
L 175.971236 232.423106 
L 179.61904 232.13772 
L 183.266844 234.083023 
L 186.914648 235.777852 
L 190.562451 236.271655 
L 194.210255 238.004877 
L 197.858059 238.544634 
L 201.505863 240.133388 
L 205.153667 241.26784 
L 208.801471 242.552874 
L 212.449275 242.783075 
L 216.097079 243.416012 
L 219.744883 244.974172 
L 223.392686 246.353637 
L 227.04049 247.077873 
L 230.688294 248.748873 
L 234.336098 249.913607 
L 237.983902 249.916089 
L 241.631706 250.924337 
L 245.27951 252.80978 
L 248.927314 253.77011 
L 252.575117 254.254469 
L 256.222921 255.92267 
L 259.870725 256.377323 
L 263.518529 257.399783 
L 267.166333 257.519972 
L 270.814137 259.254637 
L 274.461941 260.081248 
L 278.109745 260.628256 
L 281.757549 261.681621 
L 285.405352 262.866213 
L 289.053156 262.307851 
L 292.70096 263.595528 
L 296.348764 264.647728 
L 299.996568 265.148706 
L 303.644372 266.611717 
L 307.292176 266.188148 
L 310.93998 267.477234 
L 314.587783 268.437074 
L 318.235587 269.106464 
L 321.883391 269.633846 
L 325.531195 270.858591 
L 329.178999 270.981557 
L 332.826803 272.273206 
L 336.474607 272.508758 
L 340.122411 272.633825 
L 343.770215 273.004593 
L 347.418018 274.477732 
L 351.065822 275.088835 
L 354.713626 275.151692 
L 358.36143 275.801805 
L 362.009234 276.759437 
L 365.657038 277.531572 
L 369.304842 277.912606 
L 372.952646 278.354052 
L 376.600449 278.562206 
L 380.248253 279.359486 
L 383.896057 281.019893 
L 387.543861 280.391323 
L 391.191665 281.081538 
L 394.839469 281.904113 
L 398.487273 282.513785 
" clip-path="url(#p0b3fed8c5d)" style="fill: none; stroke: #ff00ff; stroke-opacity: 0.3; stroke-width: 0.5; stroke-linecap: square"/>
   </g>
   <g id="line2d_27">
    <path d="M 73.832727 181.833381 
L 77.480531 184.81639 
L 81.128335 185.466904 
L 84.776139 187.124073 
L 88.423943 188.813742 
L 92.071747 191.687916 
L 95.719551 192.935249 
L 99.367354 194.81683 
L 103.015158 195.573397 
L 106.662962 196.270357 
L 110.310766 198.977128 
L 113.95857 199.70855 
L 117.606374 201.449882 
L 121.254178 204.370594 
L 124.901982 205.092699 
L 128.549785 206.627745 
L 132.197589 207.375942 
L 135.845393 208.319018 
L 139.493197 209.506548 
L 143.141001 211.440647 
L 146.788805 212.725236 
L 150.436609 213.473826 
L 154.084413 214.972367 
L 157.732217 216.678256 
L 161.38002 217.558712 
L 165.027824 218.019554 
L 168.675628 219.765839 
L 172.323432 220.123422 
L 175.971236 222.303014 
L 179.61904 222.666878 
L 183.266844 223.883305 
L 186.914648 225.516894 
L 190.562451 225.671239 
L 194.210255 226.639229 
L 197.858059 227.971453 
L 201.505863 229.281389 
L 205.153667 231.433325 
L 208.801471 231.612393 
L 212.449275 233.186462 
L 216.097079 233.608102 
L 219.744883 234.567019 
L 223.392686 236.309222 
L 227.04049 236.334333 
L 230.688294 238.621062 
L 234.336098 239.371816 
L 237.983902 240.433027 
L 241.631706 241.732411 
L 245.27951 241.796462 
L 248.927314 242.359195 
L 252.575117 243.182746 
L 256.222921 245.171095 
L 259.870725 245.98799 
L 263.518529 247.393819 
L 267.166333 246.880366 
L 270.814137 248.633336 
L 274.461941 248.747539 
L 278.109745 250.126584 
L 281.757549 250.952334 
L 285.405352 253.343719 
L 289.053156 252.955005 
L 292.70096 253.605975 
L 296.348764 254.807936 
L 299.996568 255.00946 
L 303.644372 256.301317 
L 307.292176 256.436405 
L 310.93998 257.556789 
L 314.587783 258.951754 
L 318.235587 259.253402 
L 321.883391 261.310871 
L 325.531195 261.312435 
L 329.178999 261.6435 
L 332.826803 263.376225 
L 336.474607 264.005231 
L 340.122411 264.507826 
L 343.770215 264.154104 
L 347.418018 265.803336 
L 351.065822 266.773445 
L 354.713626 267.119333 
L 358.36143 267.878019 
L 362.009234 268.277528 
L 365.657038 269.435785 
L 369.304842 270.480839 
L 372.952646 270.857852 
L 376.600449 271.010737 
L 380.248253 271.461754 
L 383.896057 272.838432 
L 387.543861 273.289922 
L 391.191665 274.041599 
L 394.839469 275.237664 
L 398.487273 274.936253 
" clip-path="url(#p0b3fed8c5d)" style="fill: none; stroke: #ff00ff; stroke-opacity: 0.3; stroke-width: 0.5; stroke-linecap: square"/>
   </g>
   <g id="line2d_28">
    <path d="M 73.832727 185.086231 
L 77.480531 185.655676 
L 81.128335 187.365572 
L 84.776139 188.766234 
L 88.423943 188.740916 
L 92.071747 189.407813 
L 95.719551 190.531176 
L 99.367354 189.819831 
L 103.015158 192.263272 
L 106.662962 191.713615 
L 110.310766 193.107431 
L 113.95857 192.567933 
L 117.606374 195.065982 
L 121.254178 194.907666 
L 124.901982 195.652353 
L 128.549785 195.956102 
L 132.197589 195.791459 
L 135.845393 197.523474 
L 139.493197 197.30054 
L 143.141001 198.718023 
L 146.788805 198.543821 
L 150.436609 200.360842 
L 154.084413 200.904392 
L 157.732217 201.937404 
L 161.38002 201.47288 
L 165.027824 203.520928 
L 168.675628 202.87741 
L 172.323432 203.541767 
L 175.971236 204.424797 
L 179.61904 205.470174 
L 183.266844 205.202307 
L 186.914648 206.842771 
L 190.562451 208.220285 
L 194.210255 207.970094 
L 197.858059 209.225901 
L 201.505863 208.087691 
L 205.153667 209.362294 
L 208.801471 212.226908 
L 212.449275 211.046744 
L 216.097079 211.550614 
L 219.744883 213.187741 
L 223.392686 213.875522 
L 227.04049 214.379577 
L 230.688294 214.979998 
L 234.336098 215.869194 
L 237.983902 216.133897 
L 241.631706 216.343659 
L 245.27951 218.622295 
L 248.927314 218.508923 
L 252.575117 220.243813 
L 256.222921 220.092181 
L 259.870725 221.148376 
L 263.518529 221.371968 
L 267.166333 222.769305 
L 270.814137 222.46977 
L 274.461941 223.12085 
L 278.109745 224.662823 
L 281.757549 224.936763 
L 285.405352 225.526268 
L 289.053156 226.355782 
L 292.70096 226.826368 
L 296.348764 228.152247 
L 299.996568 227.038351 
L 303.644372 229.088968 
L 307.292176 228.519471 
L 310.93998 229.451626 
L 314.587783 231.019552 
L 318.235587 231.721194 
L 321.883391 231.677323 
L 325.531195 232.08777 
L 329.178999 232.045181 
L 332.826803 232.689369 
L 336.474607 233.443979 
L 340.122411 234.752766 
L 343.770215 235.233679 
L 347.418018 237.024903 
L 351.065822 236.799596 
L 354.713626 237.052593 
L 358.36143 237.959499 
L 362.009234 239.166327 
L 365.657038 239.372163 
L 369.304842 239.833276 
L 372.952646 240.611755 
L 376.600449 240.899393 
L 380.248253 241.657588 
L 383.896057 242.258424 
L 387.543861 242.499068 
L 391.191665 243.937408 
L 394.839469 243.367442 
L 398.487273 244.456806 
" clip-path="url(#p0b3fed8c5d)" style="fill: none; stroke: #ff00ff; stroke-opacity: 0.3; stroke-width: 0.5; stroke-linecap: square"/>
   </g>
   <g id="line2d_29">
    <path d="M 73.832727 194.208235 
L 77.480531 194.650074 
L 81.128335 193.804206 
L 84.776139 193.911321 
L 88.423943 195.327084 
L 92.071747 197.367443 
L 95.719551 197.298901 
L 99.367354 196.300789 
L 103.015158 199.27171 
L 106.662962 199.508533 
L 110.310766 199.676108 
L 113.95857 198.951094 
L 117.606374 200.322732 
L 121.254178 200.792048 
L 124.901982 200.177265 
L 128.549785 201.158186 
L 132.197589 202.577667 
L 135.845393 203.122799 
L 139.493197 203.124011 
L 143.141001 203.449984 
L 146.788805 202.726343 
L 150.436609 202.769002 
L 154.084413 203.989539 
L 157.732217 204.853567 
L 161.38002 205.255414 
L 165.027824 206.466508 
L 168.675628 206.180365 
L 172.323432 207.269393 
L 175.971236 208.533085 
L 179.61904 208.200751 
L 183.266844 208.725287 
L 186.914648 208.631888 
L 190.562451 207.716658 
L 194.210255 208.647785 
L 197.858059 211.255327 
L 201.505863 211.157957 
L 205.153667 210.844441 
L 208.801471 213.02693 
L 212.449275 213.609295 
L 216.097079 211.739836 
L 219.744883 214.241129 
L 223.392686 212.979192 
L 227.04049 214.079938 
L 230.688294 214.059376 
L 234.336098 213.373834 
L 237.983902 215.031604 
L 241.631706 215.96646 
L 245.27951 216.637271 
L 248.927314 216.497934 
L 252.575117 216.663224 
L 256.222921 217.255436 
L 259.870725 218.152044 
L 263.518529 219.270801 
L 267.166333 218.142854 
L 270.814137 219.131637 
L 274.461941 220.030635 
L 278.109745 218.774296 
L 281.757549 221.155707 
L 285.405352 221.917261 
L 289.053156 221.640735 
L 292.70096 220.892862 
L 296.348764 222.30328 
L 299.996568 222.578628 
L 303.644372 224.542236 
L 307.292176 224.263112 
L 310.93998 223.391615 
L 314.587783 223.751704 
L 318.235587 225.349953 
L 321.883391 225.581609 
L 325.531195 225.241897 
L 329.178999 226.123497 
L 332.826803 226.320299 
L 336.474607 226.461702 
L 340.122411 228.013101 
L 343.770215 227.030963 
L 347.418018 227.323923 
L 351.065822 228.152374 
L 354.713626 229.977627 
L 358.36143 227.847829 
L 362.009234 230.354941 
L 365.657038 230.117264 
L 369.304842 230.507693 
L 372.952646 231.161065 
L 376.600449 231.107837 
L 380.248253 232.136334 
L 383.896057 232.776072 
L 387.543861 231.755355 
L 391.191665 233.255432 
L 394.839469 234.071784 
L 398.487273 234.242287 
" clip-path="url(#p0b3fed8c5d)" style="fill: none; stroke: #ff00ff; stroke-opacity: 0.3; stroke-width: 0.5; stroke-linecap: square"/>
   </g>
   <g id="line2d_30">
    <path d="M 73.832727 191.216568 
L 77.480531 193.196235 
L 81.128335 194.478515 
L 84.776139 196.009151 
L 88.423943 197.881346 
L 92.071747 199.406163 
L 95.719551 200.497119 
L 99.367354 201.330992 
L 103.015158 202.079396 
L 106.662962 203.46587 
L 110.310766 204.16537 
L 113.95857 205.238547 
L 117.606374 206.380751 
L 121.254178 208.111427 
L 124.901982 207.99241 
L 128.549785 210.160122 
L 132.197589 210.4883 
L 135.845393 210.878417 
L 139.493197 213.338461 
L 143.141001 214.15094 
L 146.788805 214.280798 
L 150.436609 214.657488 
L 154.084413 216.82699 
L 157.732217 217.004991 
L 161.38002 217.236168 
L 165.027824 219.116467 
L 168.675628 219.62492 
L 172.323432 219.957797 
L 175.971236 220.515848 
L 179.61904 221.937199 
L 183.266844 221.303413 
L 186.914648 224.078854 
L 190.562451 222.94629 
L 194.210255 223.434297 
L 197.858059 225.687546 
L 201.505863 226.304626 
L 205.153667 227.589723 
L 208.801471 226.677853 
L 212.449275 227.973941 
L 216.097079 229.811853 
L 219.744883 229.63552 
L 223.392686 231.252622 
L 227.04049 231.799965 
L 230.688294 231.898502 
L 234.336098 234.157298 
L 237.983902 232.964099 
L 241.631706 235.198207 
L 245.27951 235.623184 
L 248.927314 235.945151 
L 252.575117 235.992607 
L 256.222921 238.312759 
L 259.870725 237.968089 
L 263.518529 239.18813 
L 267.166333 239.621933 
L 270.814137 241.17772 
L 274.461941 240.212206 
L 278.109745 242.42458 
L 281.757549 243.258481 
L 285.405352 244.015821 
L 289.053156 243.626264 
L 292.70096 245.407883 
L 296.348764 245.146481 
L 299.996568 247.006692 
L 303.644372 246.241732 
L 307.292176 247.307352 
L 310.93998 248.612786 
L 314.587783 249.875434 
L 318.235587 250.63424 
L 321.883391 250.352346 
L 325.531195 252.046275 
L 329.178999 251.390322 
L 332.826803 253.048854 
L 336.474607 253.638826 
L 340.122411 253.303369 
L 343.770215 253.942298 
L 347.418018 255.028596 
L 351.065822 255.805817 
L 354.713626 256.297253 
L 358.36143 256.829824 
L 362.009234 257.446985 
L 365.657038 257.666565 
L 369.304842 258.599926 
L 372.952646 259.109113 
L 376.600449 259.75987 
L 380.248253 259.60676 
L 383.896057 261.204507 
L 387.543861 261.916389 
L 391.191665 262.416374 
L 394.839469 263.244318 
L 398.487273 263.289597 
" clip-path="url(#p0b3fed8c5d)" style="fill: none; stroke: #ff00ff; stroke-opacity: 0.3; stroke-width: 0.5; stroke-linecap: square"/>
   </g>
   <g id="line2d_31">
    <path d="M 73.832727 192.737818 
L 77.480531 195.259927 
L 81.128335 196.74526 
L 84.776139 199.411312 
L 88.423943 200.37943 
L 92.071747 203.278287 
L 95.719551 206.732504 
L 99.367354 207.925703 
L 103.015158 210.782698 
L 106.662962 213.957573 
L 110.310766 215.460143 
L 113.95857 217.317225 
L 117.606374 221.177573 
L 121.254178 222.606751 
L 124.901982 224.144349 
L 128.549785 226.460253 
L 132.197589 228.564167 
L 135.845393 230.015166 
L 139.493197 231.252443 
L 143.141001 234.235123 
L 146.788805 235.343835 
L 150.436609 237.151222 
L 154.084413 238.60543 
L 157.732217 239.777202 
L 161.38002 241.019634 
L 165.027824 242.563414 
L 168.675628 244.177769 
L 172.323432 244.267554 
L 175.971236 246.842401 
L 179.61904 247.682172 
L 183.266844 249.661199 
L 186.914648 250.511223 
L 190.562451 252.03705 
L 194.210255 253.336197 
L 197.858059 254.161064 
L 201.505863 254.892504 
L 205.153667 256.118294 
L 208.801471 258.506354 
L 212.449275 259.654025 
L 216.097079 259.82746 
L 219.744883 261.735583 
L 223.392686 262.368658 
L 227.04049 263.353764 
L 230.688294 264.779295 
L 234.336098 265.655964 
L 237.983902 266.488982 
L 241.631706 267.305271 
L 245.27951 268.481603 
L 248.927314 269.416857 
L 252.575117 269.045865 
L 256.222921 270.656531 
L 259.870725 271.114047 
L 263.518529 272.623163 
L 267.166333 273.015682 
L 270.814137 273.506304 
L 274.461941 274.535278 
L 278.109745 275.65712 
L 281.757549 276.351122 
L 285.405352 276.334866 
L 289.053156 277.080688 
L 292.70096 279.095691 
L 296.348764 278.773632 
L 299.996568 280.075697 
L 303.644372 279.809943 
L 307.292176 280.114122 
L 310.93998 281.463481 
L 314.587783 282.223073 
L 318.235587 281.957235 
L 321.883391 282.768023 
L 325.531195 283.846715 
L 329.178999 283.902769 
L 332.826803 284.940884 
L 336.474607 285.130199 
L 340.122411 285.935324 
L 343.770215 286.339232 
L 347.418018 286.466815 
L 351.065822 287.066301 
L 354.713626 287.966531 
L 358.36143 288.58829 
L 362.009234 288.607382 
L 365.657038 289.246695 
L 369.304842 289.125557 
L 372.952646 289.973745 
L 376.600449 290.541075 
L 380.248253 290.624735 
L 383.896057 291.638684 
L 387.543861 291.99341 
L 391.191665 292.108585 
L 394.839469 292.666336 
L 398.487273 293.114657 
" clip-path="url(#p0b3fed8c5d)" style="fill: none; stroke: #ff00ff; stroke-opacity: 0.3; stroke-width: 0.5; stroke-linecap: square"/>
   </g>
   <g id="line2d_32">
    <path d="M 73.832727 206.790899 
L 77.480531 208.524288 
L 81.128335 210.410914 
L 84.776139 212.687588 
L 88.423943 215.959337 
L 92.071747 217.407877 
L 95.719551 218.917374 
L 99.367354 221.722843 
L 103.015158 223.789537 
L 106.662962 225.876428 
L 110.310766 229.428501 
L 113.95857 230.087622 
L 117.606374 231.555731 
L 121.254178 233.914576 
L 124.901982 235.551085 
L 128.549785 236.630052 
L 132.197589 238.053591 
L 135.845393 240.726357 
L 139.493197 242.092938 
L 143.141001 243.927987 
L 146.788805 244.775222 
L 150.436609 246.465052 
L 154.084413 247.191192 
L 157.732217 249.207123 
L 161.38002 249.625577 
L 165.027824 250.749609 
L 168.675628 251.543149 
L 172.323432 254.271088 
L 175.971236 254.618835 
L 179.61904 254.863352 
L 183.266844 256.763371 
L 186.914648 258.791013 
L 190.562451 259.043687 
L 194.210255 260.352613 
L 197.858059 261.721047 
L 201.505863 262.5674 
L 205.153667 263.579025 
L 208.801471 265.127169 
L 212.449275 265.519335 
L 216.097079 266.481663 
L 219.744883 266.709018 
L 223.392686 268.219843 
L 227.04049 268.85767 
L 230.688294 269.458645 
L 234.336098 271.130441 
L 237.983902 271.536375 
L 241.631706 271.848685 
L 245.27951 273.21399 
L 248.927314 274.213377 
L 252.575117 274.956878 
L 256.222921 275.358151 
L 259.870725 276.031591 
L 263.518529 276.925762 
L 267.166333 277.081692 
L 270.814137 278.386167 
L 274.461941 278.400131 
L 278.109745 279.683589 
L 281.757549 280.59046 
L 285.405352 281.068807 
L 289.053156 281.345916 
L 292.70096 282.094182 
L 296.348764 281.901897 
L 299.996568 282.710503 
L 303.644372 284.159322 
L 307.292176 283.500397 
L 310.93998 284.543199 
L 314.587783 285.852777 
L 318.235587 286.104268 
L 321.883391 286.275518 
L 325.531195 286.755859 
L 329.178999 287.467357 
L 332.826803 287.481087 
L 336.474607 288.192259 
L 340.122411 289.131725 
L 343.770215 289.250471 
L 347.418018 289.659218 
L 351.065822 290.260846 
L 354.713626 290.419884 
L 358.36143 291.209801 
L 362.009234 291.669194 
L 365.657038 291.857891 
L 369.304842 292.11258 
L 372.952646 292.752586 
L 376.600449 292.970777 
L 380.248253 293.185266 
L 383.896057 293.806569 
L 387.543861 294.19683 
L 391.191665 294.907919 
L 394.839469 295.488 
L 398.487273 295.290537 
" clip-path="url(#p0b3fed8c5d)" style="fill: none; stroke: #ff00ff; stroke-opacity: 0.3; stroke-width: 0.5; stroke-linecap: square"/>
   </g>
   <g id="line2d_33">
    <path d="M 73.832727 151.106389 
L 77.480531 156.758913 
L 81.128335 165.051974 
L 84.776139 172.563243 
L 88.423943 178.699849 
L 92.071747 181.797153 
L 95.719551 186.331013 
L 99.367354 191.413064 
L 103.015158 194.136702 
L 106.662962 194.37947 
L 110.310766 197.208723 
L 113.95857 200.761315 
L 117.606374 203.380645 
L 121.254178 205.546463 
L 124.901982 208.656813 
L 128.549785 209.474546 
L 132.197589 211.633564 
L 135.845393 212.534051 
L 139.493197 215.469991 
L 143.141001 216.865793 
L 146.788805 218.881653 
L 150.436609 220.524391 
L 154.084413 222.569646 
L 157.732217 224.033298 
L 161.38002 227.169127 
L 165.027824 226.953091 
L 168.675628 229.583741 
L 172.323432 230.285123 
L 175.971236 232.794018 
L 179.61904 234.666456 
L 183.266844 236.856317 
L 186.914648 238.847287 
L 190.562451 239.671686 
L 194.210255 242.20074 
L 197.858059 243.807717 
L 201.505863 244.91707 
L 205.153667 246.953833 
L 208.801471 248.587445 
L 212.449275 250.507488 
L 216.097079 251.787799 
L 219.744883 253.607511 
L 223.392686 254.979536 
L 227.04049 256.159452 
L 230.688294 257.943628 
L 234.336098 257.455921 
L 237.983902 258.797063 
L 241.631706 260.584107 
L 245.27951 261.959354 
L 248.927314 262.596868 
L 252.575117 263.771514 
L 256.222921 264.590216 
L 259.870725 265.999388 
L 263.518529 266.564977 
L 267.166333 267.831169 
L 270.814137 268.531546 
L 274.461941 269.450263 
L 278.109745 270.823795 
L 281.757549 271.575212 
L 285.405352 273.009852 
L 289.053156 273.664684 
L 292.70096 273.675583 
L 296.348764 273.925849 
L 299.996568 274.976805 
L 303.644372 275.761429 
L 307.292176 276.805637 
L 310.93998 277.476673 
L 314.587783 279.04162 
L 318.235587 279.412047 
L 321.883391 279.965558 
L 325.531195 280.545414 
L 329.178999 280.77451 
L 332.826803 281.590453 
L 336.474607 282.527359 
L 340.122411 282.992706 
L 343.770215 283.616217 
L 347.418018 283.882228 
L 351.065822 284.704581 
L 354.713626 285.194366 
L 358.36143 285.857921 
L 362.009234 285.605463 
L 365.657038 286.933551 
L 369.304842 287.603233 
L 372.952646 287.791341 
L 376.600449 288.085843 
L 380.248253 287.968277 
L 383.896057 289.759296 
L 387.543861 288.971047 
L 391.191665 289.934489 
L 394.839469 290.553708 
L 398.487273 291.324882 
" clip-path="url(#p0b3fed8c5d)" style="fill: none; stroke: #ff00ff; stroke-opacity: 0.3; stroke-width: 0.5; stroke-linecap: square"/>
   </g>
   <g id="line2d_34">
    <path d="M 73.832727 201.484656 
L 77.480531 201.97989 
L 81.128335 202.21251 
L 84.776139 203.069438 
L 88.423943 202.528566 
L 92.071747 203.111311 
L 95.719551 202.883875 
L 99.367354 203.923387 
L 103.015158 203.862521 
L 106.662962 203.237013 
L 110.310766 203.894455 
L 113.95857 203.581285 
L 117.606374 204.666965 
L 121.254178 204.739099 
L 124.901982 205.185059 
L 128.549785 204.657475 
L 132.197589 204.821668 
L 135.845393 204.295632 
L 139.493197 205.040908 
L 143.141001 205.41754 
L 146.788805 205.6654 
L 150.436609 205.407866 
L 154.084413 205.243153 
L 157.732217 205.913687 
L 161.38002 207.263724 
L 165.027824 205.602838 
L 168.675628 205.172821 
L 172.323432 205.662779 
L 175.971236 205.894522 
L 179.61904 206.92825 
L 183.266844 206.82939 
L 186.914648 207.302619 
L 190.562451 206.294522 
L 194.210255 207.681884 
L 197.858059 208.041626 
L 201.505863 208.013295 
L 205.153667 208.489988 
L 208.801471 209.337056 
L 212.449275 209.971142 
L 216.097079 209.555141 
L 219.744883 210.218863 
L 223.392686 210.786173 
L 227.04049 209.26819 
L 230.688294 211.019324 
L 234.336098 210.529401 
L 237.983902 210.762471 
L 241.631706 210.073835 
L 245.27951 211.593907 
L 248.927314 211.027994 
L 252.575117 210.590012 
L 256.222921 211.864649 
L 259.870725 212.208979 
L 263.518529 212.356732 
L 267.166333 210.673136 
L 270.814137 211.789191 
L 274.461941 212.573581 
L 278.109745 212.458316 
L 281.757549 213.805802 
L 285.405352 213.532474 
L 289.053156 214.752169 
L 292.70096 214.432315 
L 296.348764 213.656756 
L 299.996568 214.635657 
L 303.644372 213.853471 
L 307.292176 214.008809 
L 310.93998 213.400007 
L 314.587783 215.66225 
L 318.235587 215.42022 
L 321.883391 214.772176 
L 325.531195 214.691927 
L 329.178999 214.467538 
L 332.826803 215.102594 
L 336.474607 215.76403 
L 340.122411 215.578491 
L 343.770215 216.403877 
L 347.418018 217.31427 
L 351.065822 216.576821 
L 354.713626 216.705675 
L 358.36143 217.325145 
L 362.009234 216.576348 
L 365.657038 217.890596 
L 369.304842 218.590685 
L 372.952646 218.671061 
L 376.600449 217.900467 
L 380.248253 218.874091 
L 383.896057 217.391448 
L 387.543861 218.608187 
L 391.191665 220.127105 
L 394.839469 219.7453 
L 398.487273 219.313148 
" clip-path="url(#p0b3fed8c5d)" style="fill: none; stroke: #ff00ff; stroke-opacity: 0.3; stroke-width: 0.5; stroke-linecap: square"/>
   </g>
   <g id="line2d_35">
    <path d="M 73.832727 180.290334 
L 77.480531 180.666343 
L 81.128335 182.1517 
L 84.776139 183.224519 
L 88.423943 184.405769 
L 92.071747 184.524463 
L 95.719551 185.142143 
L 99.367354 186.6207 
L 103.015158 187.494933 
L 106.662962 188.252863 
L 110.310766 188.82897 
L 113.95857 189.304254 
L 117.606374 190.31413 
L 121.254178 190.161459 
L 124.901982 191.375138 
L 128.549785 191.811158 
L 132.197589 191.7286 
L 135.845393 193.282222 
L 139.493197 193.948669 
L 143.141001 194.383246 
L 146.788805 195.171319 
L 150.436609 196.172824 
L 154.084413 196.24281 
L 157.732217 197.236719 
L 161.38002 197.679585 
L 165.027824 198.295257 
L 168.675628 199.179154 
L 172.323432 199.781988 
L 175.971236 199.615855 
L 179.61904 199.813806 
L 183.266844 200.75993 
L 186.914648 201.397514 
L 190.562451 201.852422 
L 194.210255 202.978024 
L 197.858059 202.515243 
L 201.505863 203.829364 
L 205.153667 203.428325 
L 208.801471 204.246831 
L 212.449275 204.763158 
L 216.097079 205.232797 
L 219.744883 206.45442 
L 223.392686 206.41422 
L 227.04049 206.88962 
L 230.688294 207.480874 
L 234.336098 207.587446 
L 237.983902 207.926176 
L 241.631706 207.934489 
L 245.27951 209.258319 
L 248.927314 209.910958 
L 252.575117 209.459468 
L 256.222921 210.30328 
L 259.870725 210.811226 
L 263.518529 211.453959 
L 267.166333 211.862467 
L 270.814137 212.073602 
L 274.461941 212.412725 
L 278.109745 213.337768 
L 281.757549 213.863031 
L 285.405352 213.348459 
L 289.053156 214.493191 
L 292.70096 215.238929 
L 296.348764 215.621623 
L 299.996568 215.704839 
L 303.644372 216.132096 
L 307.292176 217.067241 
L 310.93998 216.907816 
L 314.587783 217.787372 
L 318.235587 217.329855 
L 321.883391 219.247237 
L 325.531195 219.089313 
L 329.178999 219.578694 
L 332.826803 219.728179 
L 336.474607 220.370473 
L 340.122411 221.199924 
L 343.770215 221.184673 
L 347.418018 222.085402 
L 351.065822 222.331634 
L 354.713626 222.562857 
L 358.36143 223.658108 
L 362.009234 223.722379 
L 365.657038 224.434683 
L 369.304842 224.839404 
L 372.952646 225.590989 
L 376.600449 225.375173 
L 380.248253 227.043806 
L 383.896057 227.805176 
L 387.543861 227.48852 
L 391.191665 228.234511 
L 394.839469 227.747514 
L 398.487273 229.205163 
" clip-path="url(#p0b3fed8c5d)" style="fill: none; stroke: #ff00ff; stroke-opacity: 0.3; stroke-width: 0.5; stroke-linecap: square"/>
   </g>
   <g id="line2d_36">
    <path d="M 73.832727 196.259066 
L 77.480531 198.203382 
L 81.128335 200.754065 
L 84.776139 204.170623 
L 88.423943 204.957518 
L 92.071747 207.199754 
L 95.719551 209.382093 
L 99.367354 211.276985 
L 103.015158 212.741873 
L 106.662962 214.593668 
L 110.310766 216.323351 
L 113.95857 217.411398 
L 117.606374 218.896685 
L 121.254178 219.291709 
L 124.901982 221.848383 
L 128.549785 222.578558 
L 132.197589 223.286683 
L 135.845393 225.425659 
L 139.493197 225.908973 
L 143.141001 227.498033 
L 146.788805 228.334197 
L 150.436609 229.066554 
L 154.084413 230.285734 
L 157.732217 232.388685 
L 161.38002 232.862775 
L 165.027824 233.483232 
L 168.675628 233.952859 
L 172.323432 235.663147 
L 175.971236 236.42383 
L 179.61904 237.318244 
L 183.266844 237.886991 
L 186.914648 239.945949 
L 190.562451 240.965921 
L 194.210255 242.221064 
L 197.858059 242.178827 
L 201.505863 243.044979 
L 205.153667 244.659409 
L 208.801471 246.009285 
L 212.449275 246.401428 
L 216.097079 247.479119 
L 219.744883 247.606172 
L 223.392686 249.367586 
L 227.04049 249.711021 
L 230.688294 251.151306 
L 234.336098 252.317132 
L 237.983902 252.657224 
L 241.631706 253.909845 
L 245.27951 253.990002 
L 248.927314 256.368462 
L 252.575117 256.547751 
L 256.222921 256.922721 
L 259.870725 257.405504 
L 263.518529 259.204694 
L 267.166333 259.762606 
L 270.814137 260.305902 
L 274.461941 260.276474 
L 278.109745 261.913884 
L 281.757549 262.783776 
L 285.405352 263.551011 
L 289.053156 263.847659 
L 292.70096 264.73241 
L 296.348764 265.551724 
L 299.996568 265.56615 
L 303.644372 267.15114 
L 307.292176 267.631487 
L 310.93998 268.546757 
L 314.587783 268.316833 
L 318.235587 269.536354 
L 321.883391 271.057269 
L 325.531195 271.403417 
L 329.178999 271.934955 
L 332.826803 272.072103 
L 336.474607 272.644464 
L 340.122411 273.394947 
L 343.770215 274.409397 
L 347.418018 275.440438 
L 351.065822 275.845329 
L 354.713626 275.613466 
L 358.36143 276.945672 
L 362.009234 277.463194 
L 365.657038 277.597162 
L 369.304842 278.351706 
L 372.952646 278.509901 
L 376.600449 279.311825 
L 380.248253 279.469475 
L 383.896057 280.566039 
L 387.543861 280.973422 
L 391.191665 281.195548 
L 394.839469 281.706521 
L 398.487273 282.199062 
" clip-path="url(#p0b3fed8c5d)" style="fill: none; stroke: #ff00ff; stroke-opacity: 0.3; stroke-width: 0.5; stroke-linecap: square"/>
   </g>
   <g id="line2d_37">
    <path d="M 73.832727 175.994059 
L 77.480531 177.204021 
L 81.128335 177.906569 
L 84.776139 180.386954 
L 88.423943 182.414083 
L 92.071747 182.250052 
L 95.719551 184.226232 
L 99.367354 186.288816 
L 103.015158 187.158143 
L 106.662962 188.177589 
L 110.310766 189.90516 
L 113.95857 192.649729 
L 117.606374 192.572597 
L 121.254178 194.143629 
L 124.901982 197.425007 
L 128.549785 198.019089 
L 132.197589 199.001349 
L 135.845393 199.893662 
L 139.493197 202.269127 
L 143.141001 202.194777 
L 146.788805 204.529845 
L 150.436609 205.497028 
L 154.084413 207.153458 
L 157.732217 207.468556 
L 161.38002 208.801738 
L 165.027824 209.705492 
L 168.675628 209.975841 
L 172.323432 213.337306 
L 175.971236 212.639122 
L 179.61904 213.201837 
L 183.266844 214.137652 
L 186.914648 216.386479 
L 190.562451 215.504372 
L 194.210255 216.59011 
L 197.858059 218.269965 
L 201.505863 218.381282 
L 205.153667 218.778568 
L 208.801471 220.252033 
L 212.449275 219.866511 
L 216.097079 221.606793 
L 219.744883 222.65404 
L 223.392686 222.862923 
L 227.04049 223.332689 
L 230.688294 224.999164 
L 234.336098 225.268001 
L 237.983902 225.645008 
L 241.631706 226.324536 
L 245.27951 226.785724 
L 248.927314 228.326005 
L 252.575117 227.538579 
L 256.222921 229.437541 
L 259.870725 230.392728 
L 263.518529 231.01188 
L 267.166333 231.108166 
L 270.814137 232.948 
L 274.461941 232.779045 
L 278.109745 232.368152 
L 281.757549 233.002221 
L 285.405352 234.965206 
L 289.053156 234.514749 
L 292.70096 234.938075 
L 296.348764 235.783544 
L 299.996568 235.97877 
L 303.644372 237.519121 
L 307.292176 237.736323 
L 310.93998 238.164741 
L 314.587783 238.906957 
L 318.235587 239.417269 
L 321.883391 240.318922 
L 325.531195 241.414669 
L 329.178999 242.532987 
L 332.826803 241.988514 
L 336.474607 242.630756 
L 340.122411 244.438709 
L 343.770215 243.823689 
L 347.418018 244.486367 
L 351.065822 245.4224 
L 354.713626 245.674255 
L 358.36143 246.903023 
L 362.009234 247.167791 
L 365.657038 247.68821 
L 369.304842 247.695928 
L 372.952646 248.097746 
L 376.600449 248.935965 
L 380.248253 248.278304 
L 383.896057 249.872588 
L 387.543861 251.145672 
L 391.191665 250.64616 
L 394.839469 251.226932 
L 398.487273 252.452797 
" clip-path="url(#p0b3fed8c5d)" style="fill: none; stroke: #ff00ff; stroke-opacity: 0.3; stroke-width: 0.5; stroke-linecap: square"/>
   </g>
   <g id="line2d_38">
    <path d="M 73.832727 174.062327 
L 77.480531 175.438906 
L 81.128335 177.302754 
L 84.776139 178.677221 
L 88.423943 181.239957 
L 92.071747 181.136317 
L 95.719551 183.451263 
L 99.367354 184.224258 
L 103.015158 185.505384 
L 106.662962 187.031921 
L 110.310766 187.772129 
L 113.95857 188.928845 
L 117.606374 189.198583 
L 121.254178 189.241011 
L 124.901982 190.672244 
L 128.549785 191.343574 
L 132.197589 192.540606 
L 135.845393 193.050572 
L 139.493197 192.837647 
L 143.141001 194.478561 
L 146.788805 195.375458 
L 150.436609 195.56057 
L 154.084413 197.830698 
L 157.732217 197.441932 
L 161.38002 198.000952 
L 165.027824 199.000253 
L 168.675628 200.459956 
L 172.323432 200.802323 
L 175.971236 200.805567 
L 179.61904 202.12284 
L 183.266844 203.555921 
L 186.914648 204.78529 
L 190.562451 204.02571 
L 194.210255 205.58761 
L 197.858059 207.311659 
L 201.505863 207.701695 
L 205.153667 208.43792 
L 208.801471 209.535988 
L 212.449275 209.213063 
L 216.097079 211.215162 
L 219.744883 211.1263 
L 223.392686 212.227439 
L 227.04049 213.338611 
L 230.688294 214.659347 
L 234.336098 214.673617 
L 237.983902 216.014268 
L 241.631706 216.946862 
L 245.27951 217.426071 
L 248.927314 218.290665 
L 252.575117 219.845892 
L 256.222921 219.69673 
L 259.870725 220.775114 
L 263.518529 221.706195 
L 267.166333 221.257695 
L 270.814137 222.566609 
L 274.461941 223.372381 
L 278.109745 224.932538 
L 281.757549 225.497163 
L 285.405352 225.988414 
L 289.053156 226.5511 
L 292.70096 228.406717 
L 296.348764 228.583921 
L 299.996568 229.338127 
L 303.644372 230.029649 
L 307.292176 230.565833 
L 310.93998 231.820475 
L 314.587783 232.210828 
L 318.235587 232.866279 
L 321.883391 234.745562 
L 325.531195 235.050939 
L 329.178999 235.129831 
L 332.826803 235.249559 
L 336.474607 237.427425 
L 340.122411 237.870874 
L 343.770215 238.095038 
L 347.418018 239.553875 
L 351.065822 240.374286 
L 354.713626 240.69014 
L 358.36143 241.996526 
L 362.009234 242.774232 
L 365.657038 243.671601 
L 369.304842 243.971004 
L 372.952646 243.491418 
L 376.600449 244.351082 
L 380.248253 245.85984 
L 383.896057 247.383769 
L 387.543861 247.860808 
L 391.191665 247.700621 
L 394.839469 248.629636 
L 398.487273 248.845637 
" clip-path="url(#p0b3fed8c5d)" style="fill: none; stroke: #ff00ff; stroke-opacity: 0.3; stroke-width: 0.5; stroke-linecap: square"/>
   </g>
   <g id="line2d_39">
    <path d="M 73.832727 191.592023 
L 77.480531 192.356486 
L 81.128335 193.242357 
L 84.776139 193.195889 
L 88.423943 193.410914 
L 92.071747 192.764221 
L 95.719551 193.554061 
L 99.367354 193.326301 
L 103.015158 194.056788 
L 106.662962 193.649284 
L 110.310766 194.569259 
L 113.95857 193.808351 
L 117.606374 194.000979 
L 121.254178 194.189971 
L 124.901982 194.810099 
L 128.549785 193.728471 
L 132.197589 195.55265 
L 135.845393 195.815772 
L 139.493197 195.859586 
L 143.141001 195.984052 
L 146.788805 196.158428 
L 150.436609 196.546929 
L 154.084413 195.957603 
L 157.732217 196.074704 
L 161.38002 196.208856 
L 165.027824 196.584346 
L 168.675628 196.958369 
L 172.323432 198.298571 
L 175.971236 197.301856 
L 179.61904 198.206753 
L 183.266844 197.384622 
L 186.914648 198.0578 
L 190.562451 198.482875 
L 194.210255 198.085669 
L 197.858059 198.266868 
L 201.505863 199.421564 
L 205.153667 199.616663 
L 208.801471 198.35132 
L 212.449275 198.242092 
L 216.097079 200.283595 
L 219.744883 198.828855 
L 223.392686 199.761934 
L 227.04049 199.890892 
L 230.688294 199.849803 
L 234.336098 200.914298 
L 237.983902 200.608633 
L 241.631706 201.25962 
L 245.27951 201.70737 
L 248.927314 201.478329 
L 252.575117 201.460503 
L 256.222921 201.7608 
L 259.870725 201.332677 
L 263.518529 202.650828 
L 267.166333 202.92763 
L 270.814137 202.447104 
L 274.461941 203.108033 
L 278.109745 201.772703 
L 281.757549 203.475244 
L 285.405352 203.661107 
L 289.053156 204.618904 
L 292.70096 204.368135 
L 296.348764 204.86577 
L 299.996568 204.798151 
L 303.644372 205.176204 
L 307.292176 204.41204 
L 310.93998 205.219844 
L 314.587783 205.27601 
L 318.235587 205.743167 
L 321.883391 205.987332 
L 325.531195 206.36019 
L 329.178999 206.862536 
L 332.826803 206.318327 
L 336.474607 207.948366 
L 340.122411 207.647561 
L 343.770215 207.941601 
L 347.418018 208.032413 
L 351.065822 208.152043 
L 354.713626 207.443838 
L 358.36143 208.527336 
L 362.009234 209.281606 
L 365.657038 209.312823 
L 369.304842 208.58311 
L 372.952646 209.388454 
L 376.600449 209.66752 
L 380.248253 210.334787 
L 383.896057 210.690026 
L 387.543861 209.918508 
L 391.191665 211.424184 
L 394.839469 211.113277 
L 398.487273 211.74338 
" clip-path="url(#p0b3fed8c5d)" style="fill: none; stroke: #ff00ff; stroke-opacity: 0.3; stroke-width: 0.5; stroke-linecap: square"/>
   </g>
   <g id="line2d_40">
    <path d="M 73.832727 185.264301 
L 77.480531 185.215766 
L 81.128335 185.968442 
L 84.776139 185.859931 
L 88.423943 186.917672 
L 92.071747 187.049712 
L 95.719551 187.37378 
L 99.367354 188.0886 
L 103.015158 188.234979 
L 106.662962 188.943415 
L 110.310766 188.786242 
L 113.95857 190.188613 
L 117.606374 189.858229 
L 121.254178 190.145596 
L 124.901982 191.006634 
L 128.549785 191.351298 
L 132.197589 191.652068 
L 135.845393 192.314428 
L 139.493197 192.429659 
L 143.141001 192.749305 
L 146.788805 194.130387 
L 150.436609 193.325885 
L 154.084413 193.875081 
L 157.732217 194.073216 
L 161.38002 194.422453 
L 165.027824 195.986696 
L 168.675628 196.215968 
L 172.323432 196.323394 
L 175.971236 197.12755 
L 179.61904 197.207776 
L 183.266844 197.575738 
L 186.914648 197.875077 
L 190.562451 198.372666 
L 194.210255 198.487712 
L 197.858059 199.547162 
L 201.505863 200.194571 
L 205.153667 200.277083 
L 208.801471 200.696675 
L 212.449275 201.473261 
L 216.097079 202.321218 
L 219.744883 202.832257 
L 223.392686 202.973533 
L 227.04049 203.392455 
L 230.688294 203.72412 
L 234.336098 204.308943 
L 237.983902 204.641716 
L 241.631706 205.151382 
L 245.27951 205.515107 
L 248.927314 206.625482 
L 252.575117 206.842528 
L 256.222921 206.830706 
L 259.870725 207.294907 
L 263.518529 208.14866 
L 267.166333 208.400768 
L 270.814137 209.110405 
L 274.461941 209.463231 
L 278.109745 210.385307 
L 281.757549 210.669926 
L 285.405352 210.804633 
L 289.053156 211.177606 
L 292.70096 212.187135 
L 296.348764 212.861179 
L 299.996568 213.141641 
L 303.644372 213.602414 
L 307.292176 214.125056 
L 310.93998 214.614322 
L 314.587783 214.78984 
L 318.235587 215.558425 
L 321.883391 216.338787 
L 325.531195 216.708896 
L 329.178999 216.856557 
L 332.826803 217.37069 
L 336.474607 218.193664 
L 340.122411 218.240375 
L 343.770215 219.229504 
L 347.418018 219.952764 
L 351.065822 220.212988 
L 354.713626 220.625826 
L 358.36143 220.896614 
L 362.009234 221.311137 
L 365.657038 222.374674 
L 369.304842 222.517278 
L 372.952646 223.556189 
L 376.600449 223.718708 
L 380.248253 224.08652 
L 383.896057 224.772166 
L 387.543861 225.444882 
L 391.191665 225.975374 
L 394.839469 226.596345 
L 398.487273 226.593245 
" clip-path="url(#p0b3fed8c5d)" style="fill: none; stroke: #ff00ff; stroke-opacity: 0.3; stroke-width: 0.5; stroke-linecap: square"/>
   </g>
   <g id="line2d_41">
    <path d="M 73.832727 180.825087 
L 77.480531 184.433973 
L 81.128335 184.981356 
L 84.776139 186.422819 
L 88.423943 186.856691 
L 92.071747 188.504728 
L 95.719551 191.915167 
L 99.367354 192.447634 
L 103.015158 194.432924 
L 106.662962 197.345427 
L 110.310766 198.845053 
L 113.95857 199.233265 
L 117.606374 201.53154 
L 121.254178 202.836771 
L 124.901982 203.862452 
L 128.549785 206.301483 
L 132.197589 208.112755 
L 135.845393 208.886351 
L 139.493197 210.766927 
L 143.141001 213.183988 
L 146.788805 213.898104 
L 150.436609 214.751141 
L 154.084413 216.346348 
L 157.732217 216.767903 
L 161.38002 217.922506 
L 165.027824 219.571894 
L 168.675628 221.385267 
L 172.323432 221.967597 
L 175.971236 223.466427 
L 179.61904 224.24718 
L 183.266844 225.666632 
L 186.914648 226.545553 
L 190.562451 227.870307 
L 194.210255 228.894256 
L 197.858059 229.220905 
L 201.505863 231.477346 
L 205.153667 232.516644 
L 208.801471 234.20973 
L 212.449275 233.765946 
L 216.097079 235.513645 
L 219.744883 236.541871 
L 223.392686 238.646213 
L 227.04049 237.733177 
L 230.688294 239.762563 
L 234.336098 239.861815 
L 237.983902 242.549306 
L 241.631706 243.243028 
L 245.27951 244.258618 
L 248.927314 244.271202 
L 252.575117 245.576451 
L 256.222921 246.696893 
L 259.870725 246.559918 
L 263.518529 247.810634 
L 267.166333 249.354119 
L 270.814137 249.607792 
L 274.461941 250.213136 
L 278.109745 251.978933 
L 281.757549 252.397496 
L 285.405352 253.07595 
L 289.053156 254.030225 
L 292.70096 255.394417 
L 296.348764 256.221818 
L 299.996568 256.449497 
L 303.644372 257.172474 
L 307.292176 257.791309 
L 310.93998 258.576328 
L 314.587783 259.999832 
L 318.235587 260.361531 
L 321.883391 261.434362 
L 325.531195 262.275646 
L 329.178999 263.03159 
L 332.826803 263.976352 
L 336.474607 264.815038 
L 340.122411 265.112426 
L 343.770215 265.599573 
L 347.418018 266.238075 
L 351.065822 266.56582 
L 354.713626 267.620178 
L 358.36143 268.953966 
L 362.009234 268.998876 
L 365.657038 269.981772 
L 369.304842 269.716346 
L 372.952646 270.980951 
L 376.600449 271.120414 
L 380.248253 271.800761 
L 383.896057 273.743505 
L 387.543861 273.464263 
L 391.191665 273.921941 
L 394.839469 274.943226 
L 398.487273 275.248618 
" clip-path="url(#p0b3fed8c5d)" style="fill: none; stroke: #ff00ff; stroke-opacity: 0.3; stroke-width: 0.5; stroke-linecap: square"/>
   </g>
   <g id="line2d_42">
    <path d="M 73.832727 183.167175 
L 77.480531 185.407344 
L 81.128335 185.991786 
L 84.776139 190.038689 
L 88.423943 190.33259 
L 92.071747 192.042716 
L 95.719551 194.309669 
L 99.367354 194.954515 
L 103.015158 197.955465 
L 106.662962 199.678637 
L 110.310766 200.445998 
L 113.95857 202.330419 
L 117.606374 203.604352 
L 121.254178 205.899359 
L 124.901982 206.140973 
L 128.549785 206.906591 
L 132.197589 209.860633 
L 135.845393 211.579083 
L 139.493197 212.001596 
L 143.141001 212.649778 
L 146.788805 214.253021 
L 150.436609 215.655034 
L 154.084413 217.225777 
L 157.732217 218.013677 
L 161.38002 219.427305 
L 165.027824 220.385367 
L 168.675628 221.281697 
L 172.323432 222.252505 
L 175.971236 223.946895 
L 179.61904 225.050401 
L 183.266844 226.094819 
L 186.914648 227.677125 
L 190.562451 228.27134 
L 194.210255 230.167421 
L 197.858059 229.967427 
L 201.505863 231.945224 
L 205.153667 232.093554 
L 208.801471 234.176041 
L 212.449275 235.042528 
L 216.097079 236.496223 
L 219.744883 236.59275 
L 223.392686 237.816191 
L 227.04049 238.690621 
L 230.688294 240.183268 
L 234.336098 241.088673 
L 237.983902 241.538518 
L 241.631706 243.517037 
L 245.27951 243.933673 
L 248.927314 244.893934 
L 252.575117 245.527379 
L 256.222921 246.500074 
L 259.870725 246.297177 
L 263.518529 247.980847 
L 267.166333 249.160123 
L 270.814137 250.060442 
L 274.461941 250.307696 
L 278.109745 251.596603 
L 281.757549 253.175664 
L 285.405352 252.926436 
L 289.053156 253.848155 
L 292.70096 255.537604 
L 296.348764 255.755065 
L 299.996568 256.688103 
L 303.644372 257.295041 
L 307.292176 258.005676 
L 310.93998 259.525321 
L 314.587783 258.951391 
L 318.235587 260.255618 
L 321.883391 261.454266 
L 325.531195 261.522104 
L 329.178999 262.838817 
L 332.826803 263.947731 
L 336.474607 263.702464 
L 340.122411 264.718556 
L 343.770215 265.097527 
L 347.418018 265.884457 
L 351.065822 267.215105 
L 354.713626 267.063115 
L 358.36143 268.406012 
L 362.009234 268.819814 
L 365.657038 269.487363 
L 369.304842 269.93214 
L 372.952646 270.87267 
L 376.600449 271.653649 
L 380.248253 271.939018 
L 383.896057 272.698951 
L 387.543861 273.43865 
L 391.191665 274.039377 
L 394.839469 274.540239 
L 398.487273 275.038504 
" clip-path="url(#p0b3fed8c5d)" style="fill: none; stroke: #ff00ff; stroke-opacity: 0.3; stroke-width: 0.5; stroke-linecap: square"/>
   </g>
   <g id="line2d_43">
    <path d="M 73.832727 179.67666 
L 77.480531 183.317318 
L 81.128335 188.447015 
L 84.776139 190.680222 
L 88.423943 193.034247 
L 92.071747 195.75269 
L 95.719551 197.723837 
L 99.367354 199.640896 
L 103.015158 201.790413 
L 106.662962 203.587289 
L 110.310766 203.844061 
L 113.95857 206.249912 
L 117.606374 207.673295 
L 121.254178 210.539283 
L 124.901982 211.063322 
L 128.549785 212.561193 
L 132.197589 215.211556 
L 135.845393 217.151254 
L 139.493197 218.980779 
L 143.141001 219.122413 
L 146.788805 220.563136 
L 150.436609 221.63539 
L 154.084413 224.330062 
L 157.732217 225.703045 
L 161.38002 227.152185 
L 165.027824 227.801124 
L 168.675628 228.632866 
L 172.323432 231.132843 
L 175.971236 232.302478 
L 179.61904 233.453382 
L 183.266844 234.60103 
L 186.914648 235.184815 
L 190.562451 236.641251 
L 194.210255 237.95506 
L 197.858059 238.422246 
L 201.505863 240.500912 
L 205.153667 241.865992 
L 208.801471 242.979201 
L 212.449275 244.477217 
L 216.097079 245.042651 
L 219.744883 246.726558 
L 223.392686 247.943863 
L 227.04049 248.835633 
L 230.688294 250.043662 
L 234.336098 250.530012 
L 237.983902 252.15777 
L 241.631706 252.280332 
L 245.27951 253.301487 
L 248.927314 254.641694 
L 252.575117 254.802181 
L 256.222921 255.877638 
L 259.870725 256.849808 
L 263.518529 258.765187 
L 267.166333 258.59435 
L 270.814137 260.559147 
L 274.461941 260.853608 
L 278.109745 261.325573 
L 281.757549 262.28853 
L 285.405352 263.520428 
L 289.053156 264.108611 
L 292.70096 264.353048 
L 296.348764 265.313684 
L 299.996568 266.469662 
L 303.644372 266.354858 
L 307.292176 266.96328 
L 310.93998 268.64915 
L 314.587783 269.958324 
L 318.235587 270.314637 
L 321.883391 270.887038 
L 325.531195 271.089843 
L 329.178999 271.763569 
L 332.826803 273.091989 
L 336.474607 273.383835 
L 340.122411 273.75879 
L 343.770215 275.136931 
L 347.418018 274.656359 
L 351.065822 275.475543 
L 354.713626 276.285809 
L 358.36143 277.136718 
L 362.009234 277.422454 
L 365.657038 278.408951 
L 369.304842 278.811361 
L 372.952646 279.576921 
L 376.600449 279.701353 
L 380.248253 280.109827 
L 383.896057 280.484586 
L 387.543861 281.782175 
L 391.191665 282.176624 
L 394.839469 282.603752 
L 398.487273 283.059494 
" clip-path="url(#p0b3fed8c5d)" style="fill: none; stroke: #ff00ff; stroke-opacity: 0.3; stroke-width: 0.5; stroke-linecap: square"/>
   </g>
   <g id="line2d_44">
    <path d="M 73.832727 186.318833 
L 77.480531 186.848702 
L 81.128335 188.087042 
L 84.776139 188.336379 
L 88.423943 189.023965 
L 92.071747 189.260314 
L 95.719551 190.347276 
L 99.367354 190.728399 
L 103.015158 190.524849 
L 106.662962 191.168275 
L 110.310766 192.169411 
L 113.95857 192.176719 
L 117.606374 193.576054 
L 121.254178 193.43696 
L 124.901982 193.7857 
L 128.549785 194.221177 
L 132.197589 193.084006 
L 135.845393 196.329698 
L 139.493197 196.412718 
L 143.141001 196.73562 
L 146.788805 196.910781 
L 150.436609 198.056726 
L 154.084413 197.602765 
L 157.732217 198.181458 
L 161.38002 197.960729 
L 165.027824 198.707194 
L 168.675628 199.558534 
L 172.323432 200.203726 
L 175.971236 200.013753 
L 179.61904 200.766106 
L 183.266844 200.949868 
L 186.914648 202.397992 
L 190.562451 202.393432 
L 194.210255 202.351039 
L 197.858059 203.219534 
L 201.505863 203.987531 
L 205.153667 204.410851 
L 208.801471 205.357333 
L 212.449275 205.341955 
L 216.097079 205.738768 
L 219.744883 206.978701 
L 223.392686 206.109386 
L 227.04049 207.028045 
L 230.688294 207.812781 
L 234.336098 208.555102 
L 237.983902 207.708495 
L 241.631706 209.182561 
L 245.27951 209.678834 
L 248.927314 210.886291 
L 252.575117 210.256373 
L 256.222921 211.231313 
L 259.870725 211.705189 
L 263.518529 212.522587 
L 267.166333 212.918107 
L 270.814137 213.065479 
L 274.461941 213.040034 
L 278.109745 214.419834 
L 281.757549 214.643115 
L 285.405352 215.899072 
L 289.053156 215.798515 
L 292.70096 217.340962 
L 296.348764 217.518685 
L 299.996568 218.380335 
L 303.644372 218.662668 
L 307.292176 218.26074 
L 310.93998 219.021648 
L 314.587783 219.857137 
L 318.235587 220.166393 
L 321.883391 220.680561 
L 325.531195 220.765647 
L 329.178999 221.363667 
L 332.826803 222.327443 
L 336.474607 222.204096 
L 340.122411 223.582754 
L 343.770215 223.644601 
L 347.418018 224.521466 
L 351.065822 224.543667 
L 354.713626 225.371201 
L 358.36143 226.312078 
L 362.009234 225.956498 
L 365.657038 227.254306 
L 369.304842 228.028606 
L 372.952646 228.215641 
L 376.600449 229.374124 
L 380.248253 229.494585 
L 383.896057 230.457311 
L 387.543861 231.548931 
L 391.191665 231.227339 
L 394.839469 232.547527 
L 398.487273 231.83187 
" clip-path="url(#p0b3fed8c5d)" style="fill: none; stroke: #ff00ff; stroke-opacity: 0.3; stroke-width: 0.5; stroke-linecap: square"/>
   </g>
   <g id="line2d_45">
    <path d="M 73.832727 190.766036 
L 77.480531 191.987 
L 81.128335 193.547619 
L 84.776139 195.854644 
L 88.423943 197.061154 
L 92.071747 198.904752 
L 95.719551 200.398306 
L 99.367354 202.139857 
L 103.015158 203.804173 
L 106.662962 204.974178 
L 110.310766 207.022099 
L 113.95857 207.75508 
L 117.606374 209.415839 
L 121.254178 210.664823 
L 124.901982 212.267073 
L 128.549785 212.946011 
L 132.197589 215.277328 
L 135.845393 216.440498 
L 139.493197 217.415323 
L 143.141001 218.775717 
L 146.788805 220.172638 
L 150.436609 222.174841 
L 154.084413 223.304104 
L 157.732217 223.945406 
L 161.38002 224.631202 
L 165.027824 227.283255 
L 168.675628 227.584268 
L 172.323432 228.741447 
L 175.971236 230.799418 
L 179.61904 231.479291 
L 183.266844 232.022911 
L 186.914648 233.114588 
L 190.562451 234.250368 
L 194.210255 236.261732 
L 197.858059 237.119612 
L 201.505863 238.48273 
L 205.153667 238.542995 
L 208.801471 239.641837 
L 212.449275 240.29959 
L 216.097079 242.283263 
L 219.744883 242.596364 
L 223.392686 243.780049 
L 227.04049 245.257047 
L 230.688294 246.111331 
L 234.336098 246.420962 
L 237.983902 247.854759 
L 241.631706 248.827384 
L 245.27951 249.376072 
L 248.927314 251.10867 
L 252.575117 250.787587 
L 256.222921 252.386806 
L 259.870725 253.442123 
L 263.518529 254.725303 
L 267.166333 254.949876 
L 270.814137 256.69204 
L 274.461941 256.722351 
L 278.109745 258.032432 
L 281.757549 259.040835 
L 285.405352 259.917822 
L 289.053156 259.750247 
L 292.70096 261.210239 
L 296.348764 262.20308 
L 299.996568 262.500012 
L 303.644372 263.253421 
L 307.292176 263.725779 
L 310.93998 264.297533 
L 314.587783 265.753473 
L 318.235587 265.539521 
L 321.883391 267.174033 
L 325.531195 267.996343 
L 329.178999 268.551548 
L 332.826803 269.205214 
L 336.474607 269.916467 
L 340.122411 270.969492 
L 343.770215 271.272121 
L 347.418018 271.525321 
L 351.065822 273.464678 
L 354.713626 273.21881 
L 358.36143 274.246457 
L 362.009234 274.267177 
L 365.657038 275.518797 
L 369.304842 275.402688 
L 372.952646 276.032419 
L 376.600449 277.092478 
L 380.248253 277.35203 
L 383.896057 278.805485 
L 387.543861 278.708045 
L 391.191665 279.351898 
L 394.839469 279.412593 
L 398.487273 279.93845 
" clip-path="url(#p0b3fed8c5d)" style="fill: none; stroke: #ff00ff; stroke-opacity: 0.3; stroke-width: 0.5; stroke-linecap: square"/>
   </g>
   <g id="line2d_46">
    <path d="M 73.832727 170.294062 
L 77.480531 170.927051 
L 81.128335 172.172964 
L 84.776139 172.420385 
L 88.423943 173.534512 
L 92.071747 174.598303 
L 95.719551 174.827402 
L 99.367354 175.94736 
L 103.015158 177.531056 
L 106.662962 178.846494 
L 110.310766 178.786344 
L 113.95857 180.604728 
L 117.606374 180.651092 
L 121.254178 181.596616 
L 124.901982 182.000934 
L 128.549785 183.073972 
L 132.197589 183.756212 
L 135.845393 184.857894 
L 139.493197 185.957116 
L 143.141001 187.191392 
L 146.788805 186.956117 
L 150.436609 188.223792 
L 154.084413 188.357229 
L 157.732217 190.015357 
L 161.38002 189.912514 
L 165.027824 190.515498 
L 168.675628 191.978249 
L 172.323432 192.720951 
L 175.971236 193.699424 
L 179.61904 193.653648 
L 183.266844 194.449895 
L 186.914648 194.654184 
L 190.562451 195.602167 
L 194.210255 195.836669 
L 197.858059 197.333524 
L 201.505863 197.980367 
L 205.153667 198.797257 
L 208.801471 199.573566 
L 212.449275 199.988528 
L 216.097079 200.517289 
L 219.744883 200.873775 
L 223.392686 202.262073 
L 227.04049 203.255809 
L 230.688294 203.674603 
L 234.336098 204.527075 
L 237.983902 204.93429 
L 241.631706 205.868465 
L 245.27951 206.633691 
L 248.927314 206.387078 
L 252.575117 207.34066 
L 256.222921 208.260012 
L 259.870725 208.344602 
L 263.518529 208.770589 
L 267.166333 210.031107 
L 270.814137 211.319933 
L 274.461941 211.990697 
L 278.109745 211.754948 
L 281.757549 212.82218 
L 285.405352 214.035178 
L 289.053156 214.713343 
L 292.70096 214.942165 
L 296.348764 215.956081 
L 299.996568 216.130041 
L 303.644372 217.554129 
L 307.292176 217.84564 
L 310.93998 218.167053 
L 314.587783 218.635918 
L 318.235587 219.741259 
L 321.883391 220.6615 
L 325.531195 220.990059 
L 329.178999 221.35921 
L 332.826803 222.080888 
L 336.474607 222.703014 
L 340.122411 223.28532 
L 343.770215 224.776934 
L 347.418018 224.990009 
L 351.065822 225.326014 
L 354.713626 226.603624 
L 358.36143 226.734141 
L 362.009234 228.034465 
L 365.657038 228.517618 
L 369.304842 229.024466 
L 372.952646 230.326604 
L 376.600449 229.892991 
L 380.248253 230.567577 
L 383.896057 232.023176 
L 387.543861 232.210084 
L 391.191665 233.167343 
L 394.839469 233.838287 
L 398.487273 234.413181 
" clip-path="url(#p0b3fed8c5d)" style="fill: none; stroke: #ff00ff; stroke-opacity: 0.3; stroke-width: 0.5; stroke-linecap: square"/>
   </g>
   <g id="line2d_47">
    <path d="M 73.832727 190.57903 
L 77.480531 191.974936 
L 81.128335 192.226444 
L 84.776139 192.165336 
L 88.423943 193.119507 
L 92.071747 193.921527 
L 95.719551 194.64549 
L 99.367354 194.017315 
L 103.015158 195.998807 
L 106.662962 197.271666 
L 110.310766 197.698092 
L 113.95857 197.675776 
L 117.606374 198.362899 
L 121.254178 199.6543 
L 124.901982 199.916475 
L 128.549785 199.746879 
L 132.197589 201.803817 
L 135.845393 202.257409 
L 139.493197 203.813201 
L 143.141001 203.407487 
L 146.788805 204.744409 
L 150.436609 205.169323 
L 154.084413 204.379587 
L 157.732217 206.041386 
L 161.38002 206.527153 
L 165.027824 205.968768 
L 168.675628 206.71439 
L 172.323432 208.086721 
L 175.971236 209.51934 
L 179.61904 208.788911 
L 183.266844 209.699615 
L 186.914648 210.761894 
L 190.562451 210.98223 
L 194.210255 212.383758 
L 197.858059 212.027491 
L 201.505863 213.740838 
L 205.153667 213.597669 
L 208.801471 214.936046 
L 212.449275 214.531983 
L 216.097079 215.395572 
L 219.744883 215.813489 
L 223.392686 216.507782 
L 227.04049 217.836796 
L 230.688294 218.478883 
L 234.336098 219.206333 
L 237.983902 220.08231 
L 241.631706 221.405252 
L 245.27951 221.73007 
L 248.927314 221.761773 
L 252.575117 221.965507 
L 256.222921 222.674209 
L 259.870725 223.687063 
L 263.518529 224.935886 
L 267.166333 225.701539 
L 270.814137 225.121529 
L 274.461941 226.290189 
L 278.109745 227.008975 
L 281.757549 227.621385 
L 285.405352 228.125042 
L 289.053156 228.968664 
L 292.70096 228.815733 
L 296.348764 229.644046 
L 299.996568 231.688804 
L 303.644372 231.923381 
L 307.292176 232.264657 
L 310.93998 232.970564 
L 314.587783 233.625443 
L 318.235587 234.031163 
L 321.883391 234.923476 
L 325.531195 233.890199 
L 329.178999 236.167692 
L 332.826803 236.662419 
L 336.474607 236.770561 
L 340.122411 238.980314 
L 343.770215 238.413091 
L 347.418018 238.651853 
L 351.065822 239.574852 
L 354.713626 239.861203 
L 358.36143 241.166423 
L 362.009234 240.611039 
L 365.657038 242.072757 
L 369.304842 242.098549 
L 372.952646 244.417489 
L 376.600449 243.64301 
L 380.248253 244.212467 
L 383.896057 245.102021 
L 387.543861 246.520105 
L 391.191665 246.0131 
L 394.839469 246.928498 
L 398.487273 247.829544 
" clip-path="url(#p0b3fed8c5d)" style="fill: none; stroke: #ff00ff; stroke-opacity: 0.3; stroke-width: 0.5; stroke-linecap: square"/>
   </g>
   <g id="line2d_48">
    <path d="M 73.832727 191.977083 
L 77.480531 193.091522 
L 81.128335 194.417881 
L 84.776139 195.0082 
L 88.423943 197.039127 
L 92.071747 196.971958 
L 95.719551 199.062191 
L 99.367354 198.540219 
L 103.015158 200.15548 
L 106.662962 201.82865 
L 110.310766 201.357314 
L 113.95857 204.505405 
L 117.606374 204.568198 
L 121.254178 205.054162 
L 124.901982 206.211998 
L 128.549785 206.834885 
L 132.197589 208.038994 
L 135.845393 208.513471 
L 139.493197 209.497751 
L 143.141001 210.658162 
L 146.788805 211.298032 
L 150.436609 212.576087 
L 154.084413 213.960978 
L 157.732217 213.831686 
L 161.38002 215.569947 
L 165.027824 216.295331 
L 168.675628 216.887266 
L 172.323432 218.423871 
L 175.971236 218.985951 
L 179.61904 219.125057 
L 183.266844 220.979068 
L 186.914648 221.75054 
L 190.562451 221.787449 
L 194.210255 222.696121 
L 197.858059 224.000383 
L 201.505863 225.657962 
L 205.153667 225.673092 
L 208.801471 226.853406 
L 212.449275 227.926375 
L 216.097079 228.425096 
L 219.744883 228.962926 
L 223.392686 230.733605 
L 227.04049 230.756828 
L 230.688294 231.809276 
L 234.336098 233.022096 
L 237.983902 232.850364 
L 241.631706 234.689153 
L 245.27951 235.101835 
L 248.927314 236.045667 
L 252.575117 236.410547 
L 256.222921 238.053118 
L 259.870725 238.038704 
L 263.518529 239.553789 
L 267.166333 239.702967 
L 270.814137 241.800226 
L 274.461941 241.524936 
L 278.109745 242.767074 
L 281.757549 243.009594 
L 285.405352 244.270354 
L 289.053156 244.976013 
L 292.70096 246.339882 
L 296.348764 246.795667 
L 299.996568 247.693319 
L 303.644372 248.126008 
L 307.292176 249.108742 
L 310.93998 249.875907 
L 314.587783 250.303811 
L 318.235587 250.772855 
L 321.883391 252.243758 
L 325.531195 252.821273 
L 329.178999 253.204417 
L 332.826803 253.907155 
L 336.474607 255.014552 
L 340.122411 255.461482 
L 343.770215 256.062549 
L 347.418018 256.679733 
L 351.065822 257.490683 
L 354.713626 258.227421 
L 358.36143 258.789391 
L 362.009234 260.088486 
L 365.657038 260.28788 
L 369.304842 260.157906 
L 372.952646 261.498847 
L 376.600449 261.9081 
L 380.248253 262.545741 
L 383.896057 263.57768 
L 387.543861 263.762682 
L 391.191665 264.450764 
L 394.839469 265.310041 
L 398.487273 266.028816 
" clip-path="url(#p0b3fed8c5d)" style="fill: none; stroke: #ff00ff; stroke-opacity: 0.3; stroke-width: 0.5; stroke-linecap: square"/>
   </g>
   <g id="line2d_49">
    <path d="M 73.832727 185.370607 
L 77.480531 185.427628 
L 81.128335 185.282242 
L 84.776139 185.687933 
L 88.423943 185.737115 
L 92.071747 186.340445 
L 95.719551 186.429203 
L 99.367354 186.237591 
L 103.015158 186.664767 
L 106.662962 186.831004 
L 110.310766 187.11254 
L 113.95857 187.500279 
L 117.606374 187.405125 
L 121.254178 187.599496 
L 124.901982 187.949472 
L 128.549785 188.045226 
L 132.197589 188.184112 
L 135.845393 188.45834 
L 139.493197 188.266324 
L 143.141001 188.061527 
L 146.788805 188.730883 
L 150.436609 189.048555 
L 154.084413 189.101293 
L 157.732217 189.105553 
L 161.38002 189.491121 
L 165.027824 189.421147 
L 168.675628 189.761829 
L 172.323432 189.746185 
L 175.971236 190.044727 
L 179.61904 190.223028 
L 183.266844 190.175855 
L 186.914648 190.748245 
L 190.562451 190.172196 
L 194.210255 190.7648 
L 197.858059 190.944256 
L 201.505863 191.0826 
L 205.153667 190.894636 
L 208.801471 191.257541 
L 212.449275 191.362635 
L 216.097079 191.664456 
L 219.744883 191.900043 
L 223.392686 191.698398 
L 227.04049 191.782227 
L 230.688294 192.235495 
L 234.336098 192.583392 
L 237.983902 191.936826 
L 241.631706 193.082875 
L 245.27951 192.549403 
L 248.927314 193.147076 
L 252.575117 193.301168 
L 256.222921 193.159026 
L 259.870725 193.565167 
L 263.518529 193.394647 
L 267.166333 193.489859 
L 270.814137 193.670862 
L 274.461941 193.501242 
L 278.109745 193.643708 
L 281.757549 193.962627 
L 285.405352 194.094909 
L 289.053156 193.848112 
L 292.70096 194.314426 
L 296.348764 194.482475 
L 299.996568 194.693991 
L 303.644372 194.659402 
L 307.292176 194.650628 
L 310.93998 194.888132 
L 314.587783 194.782149 
L 318.235587 195.095018 
L 321.883391 195.095399 
L 325.531195 195.337786 
L 329.178999 195.653046 
L 332.826803 195.439359 
L 336.474607 195.908964 
L 340.122411 195.901771 
L 343.770215 195.692172 
L 347.418018 196.018156 
L 351.065822 196.130824 
L 354.713626 195.736389 
L 358.36143 195.981478 
L 362.009234 196.431987 
L 365.657038 196.491894 
L 369.304842 196.942068 
L 372.952646 197.007759 
L 376.600449 197.394228 
L 380.248253 197.338234 
L 383.896057 197.10558 
L 387.543861 197.390025 
L 391.191665 197.430398 
L 394.839469 197.521892 
L 398.487273 197.493365 
" clip-path="url(#p0b3fed8c5d)" style="fill: none; stroke: #ff00ff; stroke-opacity: 0.3; stroke-width: 0.5; stroke-linecap: square"/>
   </g>
   <g id="line2d_50">
    <path d="M 73.832727 183.65666 
L 77.480531 185.094428 
L 81.128335 186.383427 
L 84.776139 187.200166 
L 88.423943 188.031083 
L 92.071747 189.162516 
L 95.719551 189.984809 
L 99.367354 190.662823 
L 103.015158 191.6473 
L 106.662962 192.778791 
L 110.310766 192.837209 
L 113.95857 194.604102 
L 117.606374 194.957182 
L 121.254178 196.14462 
L 124.901982 196.759507 
L 128.549785 196.756597 
L 132.197589 198.392916 
L 135.845393 199.42669 
L 139.493197 199.603721 
L 143.141001 199.480455 
L 146.788805 201.277215 
L 150.436609 202.13263 
L 154.084413 202.821162 
L 157.732217 203.557364 
L 161.38002 204.045948 
L 165.027824 205.071629 
L 168.675628 206.453023 
L 172.323432 206.880534 
L 175.971236 207.599903 
L 179.61904 208.709412 
L 183.266844 208.511554 
L 186.914648 209.026069 
L 190.562451 210.073362 
L 194.210255 210.929827 
L 197.858059 211.324713 
L 201.505863 212.446563 
L 205.153667 213.266962 
L 208.801471 213.663429 
L 212.449275 214.19174 
L 216.097079 215.212699 
L 219.744883 216.364093 
L 223.392686 216.958707 
L 227.04049 217.679773 
L 230.688294 217.855188 
L 234.336098 218.921276 
L 237.983902 219.498826 
L 241.631706 220.322192 
L 245.27951 221.529753 
L 248.927314 222.274094 
L 252.575117 223.013793 
L 256.222921 224.311555 
L 259.870725 223.695941 
L 263.518529 225.487864 
L 267.166333 225.984784 
L 270.814137 226.802804 
L 274.461941 227.56478 
L 278.109745 227.797245 
L 281.757549 228.694383 
L 285.405352 229.274167 
L 289.053156 230.706786 
L 292.70096 230.989604 
L 296.348764 232.02978 
L 299.996568 232.713452 
L 303.644372 234.078446 
L 307.292176 234.27553 
L 310.93998 235.078248 
L 314.587783 236.548371 
L 318.235587 236.172374 
L 321.883391 237.980321 
L 325.531195 237.637192 
L 329.178999 238.205004 
L 332.826803 239.183841 
L 336.474607 240.054334 
L 340.122411 241.462096 
L 343.770215 241.5735 
L 347.418018 242.01972 
L 351.065822 242.762727 
L 354.713626 243.522192 
L 358.36143 244.232936 
L 362.009234 245.51868 
L 365.657038 245.749522 
L 369.304842 246.278999 
L 372.952646 246.66309 
L 376.600449 247.797386 
L 380.248253 248.668392 
L 383.896057 249.972845 
L 387.543861 250.048216 
L 391.191665 250.714374 
L 394.839469 251.175718 
L 398.487273 251.868129 
" clip-path="url(#p0b3fed8c5d)" style="fill: none; stroke: #ff00ff; stroke-opacity: 0.3; stroke-width: 0.5; stroke-linecap: square"/>
   </g>
   <g id="line2d_51">
    <path d="M 73.832727 177.395299 
L 77.480531 178.898492 
L 81.128335 180.058118 
L 84.776139 182.283532 
L 88.423943 182.085316 
L 92.071747 184.0202 
L 95.719551 184.815143 
L 99.367354 185.618871 
L 103.015158 186.00848 
L 106.662962 187.603964 
L 110.310766 188.671761 
L 113.95857 190.015553 
L 117.606374 190.887847 
L 121.254178 193.301144 
L 124.901982 193.493761 
L 128.549785 194.809429 
L 132.197589 195.924111 
L 135.845393 197.023818 
L 139.493197 198.425092 
L 143.141001 199.773629 
L 146.788805 200.175568 
L 150.436609 202.30128 
L 154.084413 204.29442 
L 157.732217 204.785371 
L 161.38002 206.668949 
L 165.027824 206.128528 
L 168.675628 207.48241 
L 172.323432 209.159829 
L 175.971236 210.002625 
L 179.61904 210.550343 
L 183.266844 212.592573 
L 186.914648 213.431075 
L 190.562451 214.483355 
L 194.210255 214.39238 
L 197.858059 215.941627 
L 201.505863 217.717929 
L 205.153667 218.237246 
L 208.801471 219.615546 
L 212.449275 220.513585 
L 216.097079 221.408877 
L 219.744883 221.59863 
L 223.392686 223.371504 
L 227.04049 223.77021 
L 230.688294 224.428275 
L 234.336098 225.527757 
L 237.983902 226.680173 
L 241.631706 227.309145 
L 245.27951 228.46585 
L 248.927314 229.716889 
L 252.575117 230.517639 
L 256.222921 231.733801 
L 259.870725 231.284083 
L 263.518529 232.727052 
L 267.166333 233.851102 
L 270.814137 234.495492 
L 274.461941 235.138727 
L 278.109745 237.004422 
L 281.757549 237.483689 
L 285.405352 238.648984 
L 289.053156 239.068749 
L 292.70096 240.408586 
L 296.348764 240.877665 
L 299.996568 242.044894 
L 303.644372 242.956181 
L 307.292176 243.197402 
L 310.93998 244.257071 
L 314.587783 245.3473 
L 318.235587 246.052983 
L 321.883391 246.943079 
L 325.531195 247.720444 
L 329.178999 248.438133 
L 332.826803 248.732427 
L 336.474607 250.51662 
L 340.122411 251.582004 
L 343.770215 251.419456 
L 347.418018 252.278606 
L 351.065822 253.53958 
L 354.713626 254.281929 
L 358.36143 255.041094 
L 362.009234 255.27585 
L 365.657038 256.532124 
L 369.304842 257.019802 
L 372.952646 258.424783 
L 376.600449 258.666396 
L 380.248253 259.4155 
L 383.896057 260.590538 
L 387.543861 261.372804 
L 391.191665 261.266636 
L 394.839469 262.638575 
L 398.487273 263.425338 
" clip-path="url(#p0b3fed8c5d)" style="fill: none; stroke: #ff00ff; stroke-opacity: 0.3; stroke-width: 0.5; stroke-linecap: square"/>
   </g>
   <g id="line2d_52">
    <path d="M 73.832727 185.754432 
L 77.480531 186.971887 
L 81.128335 189.734305 
L 84.776139 190.744805 
L 88.423943 193.018038 
L 92.071747 196.04897 
L 95.719551 195.537549 
L 99.367354 196.304437 
L 103.015158 199.220416 
L 106.662962 200.636849 
L 110.310766 201.652116 
L 113.95857 203.137438 
L 117.606374 203.624637 
L 121.254178 205.325088 
L 124.901982 206.12937 
L 128.549785 208.242636 
L 132.197589 209.396305 
L 135.845393 209.528184 
L 139.493197 212.408915 
L 143.141001 211.965206 
L 146.788805 213.64154 
L 150.436609 215.584067 
L 154.084413 215.896867 
L 157.732217 217.643314 
L 161.38002 218.034978 
L 165.027824 219.383607 
L 168.675628 219.420978 
L 172.323432 221.296394 
L 175.971236 222.372677 
L 179.61904 222.833137 
L 183.266844 224.224864 
L 186.914648 225.993506 
L 190.562451 225.855549 
L 194.210255 227.415653 
L 197.858059 227.621801 
L 201.505863 229.620633 
L 205.153667 230.491316 
L 208.801471 231.828268 
L 212.449275 233.414955 
L 216.097079 233.687301 
L 219.744883 234.990085 
L 223.392686 236.010611 
L 227.04049 236.667112 
L 230.688294 237.651098 
L 234.336098 238.550823 
L 237.983902 239.747825 
L 241.631706 240.829072 
L 245.27951 241.815806 
L 248.927314 243.04469 
L 252.575117 243.655773 
L 256.222921 245.224727 
L 259.870725 245.196338 
L 263.518529 246.657675 
L 267.166333 246.948655 
L 270.814137 248.425734 
L 274.461941 249.395243 
L 278.109745 251.259217 
L 281.757549 250.978345 
L 285.405352 251.743553 
L 289.053156 252.679691 
L 292.70096 253.926614 
L 296.348764 254.82003 
L 299.996568 255.348756 
L 303.644372 256.455668 
L 307.292176 257.053826 
L 310.93998 257.704571 
L 314.587783 259.645759 
L 318.235587 259.910693 
L 321.883391 260.539902 
L 325.531195 261.781688 
L 329.178999 262.297414 
L 332.826803 262.815271 
L 336.474607 263.741619 
L 340.122411 264.564794 
L 343.770215 265.091062 
L 347.418018 264.965371 
L 351.065822 267.054693 
L 354.713626 267.189856 
L 358.36143 268.267351 
L 362.009234 268.370702 
L 365.657038 269.792636 
L 369.304842 270.354531 
L 372.952646 271.012873 
L 376.600449 271.599919 
L 380.248253 272.509116 
L 383.896057 273.563065 
L 387.543861 273.313243 
L 391.191665 274.29649 
L 394.839469 275.163286 
L 398.487273 275.877739 
" clip-path="url(#p0b3fed8c5d)" style="fill: none; stroke: #ff00ff; stroke-opacity: 0.3; stroke-width: 0.5; stroke-linecap: square"/>
   </g>
   <g id="line2d_53">
    <path d="M 73.832727 193.706628 
L 77.480531 194.860193 
L 81.128335 196.493291 
L 84.776139 198.196236 
L 88.423943 198.67989 
L 92.071747 200.62371 
L 95.719551 201.013851 
L 99.367354 203.107698 
L 103.015158 204.260916 
L 106.662962 205.536719 
L 110.310766 206.392758 
L 113.95857 207.735338 
L 117.606374 209.383479 
L 121.254178 210.197043 
L 124.901982 211.569478 
L 128.549785 212.261693 
L 132.197589 213.256433 
L 135.845393 215.266845 
L 139.493197 215.427944 
L 143.141001 216.6203 
L 146.788805 216.890476 
L 150.436609 219.028217 
L 154.084413 219.776045 
L 157.732217 221.211296 
L 161.38002 222.062243 
L 165.027824 222.853884 
L 168.675628 223.736753 
L 172.323432 224.788525 
L 175.971236 225.764291 
L 179.61904 226.953438 
L 183.266844 226.835436 
L 186.914648 228.416386 
L 190.562451 229.153257 
L 194.210255 230.516496 
L 197.858059 230.954392 
L 201.505863 231.944745 
L 205.153667 233.549639 
L 208.801471 232.37572 
L 212.449275 234.366938 
L 216.097079 235.246009 
L 219.744883 235.864324 
L 223.392686 237.814725 
L 227.04049 239.410157 
L 230.688294 239.364832 
L 234.336098 240.037339 
L 237.983902 240.806508 
L 241.631706 241.908074 
L 245.27951 242.886137 
L 248.927314 243.803538 
L 252.575117 244.549495 
L 256.222921 245.284091 
L 259.870725 245.632664 
L 263.518529 247.090093 
L 267.166333 247.275032 
L 270.814137 248.874124 
L 274.461941 248.820937 
L 278.109745 250.296411 
L 281.757549 251.289205 
L 285.405352 251.351762 
L 289.053156 252.057975 
L 292.70096 253.440951 
L 296.348764 253.321501 
L 299.996568 255.211642 
L 303.644372 255.647633 
L 307.292176 256.534514 
L 310.93998 257.184844 
L 314.587783 257.603119 
L 318.235587 258.209676 
L 321.883391 259.684486 
L 325.531195 260.092879 
L 329.178999 259.934776 
L 332.826803 261.520136 
L 336.474607 262.053543 
L 340.122411 262.834124 
L 343.770215 263.178482 
L 347.418018 264.596474 
L 351.065822 265.093417 
L 354.713626 265.721771 
L 358.36143 265.682425 
L 362.009234 267.335104 
L 365.657038 267.6691 
L 369.304842 268.103008 
L 372.952646 268.957476 
L 376.600449 268.882728 
L 380.248253 269.612407 
L 383.896057 270.715549 
L 387.543861 271.030548 
L 391.191665 271.357526 
L 394.839469 271.513181 
L 398.487273 272.335756 
" clip-path="url(#p0b3fed8c5d)" style="fill: none; stroke: #ff00ff; stroke-opacity: 0.3; stroke-width: 0.5; stroke-linecap: square"/>
   </g>
   <g id="line2d_54">
    <path d="M 73.832727 185.835455 
L 77.480531 185.565291 
L 81.128335 186.194251 
L 84.776139 187.0012 
L 88.423943 187.29554 
L 92.071747 188.028867 
L 95.719551 189.155301 
L 99.367354 188.965097 
L 103.015158 190.303647 
L 106.662962 190.906746 
L 110.310766 191.167063 
L 113.95857 191.51339 
L 117.606374 192.320478 
L 121.254178 192.3193 
L 124.901982 192.672623 
L 128.549785 194.439204 
L 132.197589 194.540385 
L 135.845393 194.84515 
L 139.493197 195.042338 
L 143.141001 196.234937 
L 146.788805 196.801531 
L 150.436609 198.697681 
L 154.084413 198.756572 
L 157.732217 198.996062 
L 161.38002 199.492462 
L 165.027824 199.85135 
L 168.675628 200.809885 
L 172.323432 201.989507 
L 175.971236 201.524174 
L 179.61904 203.387652 
L 183.266844 203.164984 
L 186.914648 203.816018 
L 190.562451 203.56563 
L 194.210255 204.653169 
L 197.858059 205.219578 
L 201.505863 205.593521 
L 205.153667 206.303273 
L 208.801471 207.719706 
L 212.449275 207.152788 
L 216.097079 207.297817 
L 219.744883 208.182879 
L 223.392686 208.870546 
L 227.04049 209.714924 
L 230.688294 210.927703 
L 234.336098 210.545125 
L 237.983902 210.893045 
L 241.631706 212.138935 
L 245.27951 212.136153 
L 248.927314 212.13725 
L 252.575117 213.421885 
L 256.222921 214.139984 
L 259.870725 213.940671 
L 263.518529 214.776575 
L 267.166333 215.035171 
L 270.814137 215.862936 
L 274.461941 215.61876 
L 278.109745 216.463473 
L 281.757549 216.274862 
L 285.405352 217.98224 
L 289.053156 218.106822 
L 292.70096 218.557574 
L 296.348764 218.865352 
L 299.996568 219.332266 
L 303.644372 219.469144 
L 307.292176 220.274465 
L 310.93998 220.316812 
L 314.587783 220.87731 
L 318.235587 221.855599 
L 321.883391 222.660182 
L 325.531195 222.022309 
L 329.178999 223.046951 
L 332.826803 223.907399 
L 336.474607 223.369818 
L 340.122411 224.422976 
L 343.770215 224.780859 
L 347.418018 225.413883 
L 351.065822 225.819453 
L 354.713626 227.670353 
L 358.36143 226.220024 
L 362.009234 227.222511 
L 365.657038 227.466059 
L 369.304842 228.652411 
L 372.952646 228.58414 
L 376.600449 229.255794 
L 380.248253 229.896108 
L 383.896057 229.930905 
L 387.543861 229.727251 
L 391.191665 229.948234 
L 394.839469 230.529328 
L 398.487273 231.779634 
" clip-path="url(#p0b3fed8c5d)" style="fill: none; stroke: #ff00ff; stroke-opacity: 0.3; stroke-width: 0.5; stroke-linecap: square"/>
   </g>
   <g id="line2d_55">
    <path d="M 73.832727 198.741541 
L 77.480531 200.856146 
L 81.128335 201.581518 
L 84.776139 203.12378 
L 88.423943 203.218345 
L 92.071747 204.637641 
L 95.719551 206.514731 
L 99.367354 207.543564 
L 103.015158 207.223802 
L 106.662962 208.183411 
L 110.310766 209.352526 
L 113.95857 210.115616 
L 117.606374 211.729422 
L 121.254178 212.631514 
L 124.901982 213.699588 
L 128.549785 213.868261 
L 132.197589 214.816301 
L 135.845393 216.262832 
L 139.493197 217.327327 
L 143.141001 218.084979 
L 146.788805 218.978735 
L 150.436609 220.345017 
L 154.084413 220.778578 
L 157.732217 221.385695 
L 161.38002 222.970915 
L 165.027824 223.696449 
L 168.675628 225.045898 
L 172.323432 226.039819 
L 175.971236 227.027135 
L 179.61904 228.314709 
L 183.266844 229.451874 
L 186.914648 230.318049 
L 190.562451 231.837111 
L 194.210255 233.236792 
L 197.858059 234.652879 
L 201.505863 236.147916 
L 205.153667 238.188829 
L 208.801471 239.120874 
L 212.449275 240.399668 
L 216.097079 241.767733 
L 219.744883 241.893221 
L 223.392686 244.814169 
L 227.04049 245.61956 
L 230.688294 246.536077 
L 234.336098 247.585033 
L 237.983902 248.937241 
L 241.631706 249.899759 
L 245.27951 251.404263 
L 248.927314 252.495802 
L 252.575117 253.656155 
L 256.222921 254.296747 
L 259.870725 255.653331 
L 263.518529 256.475918 
L 267.166333 257.426002 
L 270.814137 258.371728 
L 274.461941 259.634935 
L 278.109745 260.49016 
L 281.757549 261.185896 
L 285.405352 262.784729 
L 289.053156 262.973391 
L 292.70096 264.097453 
L 296.348764 264.170059 
L 299.996568 265.618639 
L 303.644372 265.735151 
L 307.292176 267.399871 
L 310.93998 268.000269 
L 314.587783 268.860117 
L 318.235587 269.389144 
L 321.883391 270.426727 
L 325.531195 270.832205 
L 329.178999 271.47215 
L 332.826803 272.34733 
L 336.474607 273.531357 
L 340.122411 273.958721 
L 343.770215 274.775835 
L 347.418018 274.880973 
L 351.065822 276.030358 
L 354.713626 276.125149 
L 358.36143 276.779424 
L 362.009234 277.58291 
L 365.657038 278.29878 
L 369.304842 278.710657 
L 372.952646 279.770843 
L 376.600449 279.568852 
L 380.248253 280.204095 
L 383.896057 281.845638 
L 387.543861 281.828826 
L 391.191665 282.039479 
L 394.839469 283.353297 
L 398.487273 283.605777 
" clip-path="url(#p0b3fed8c5d)" style="fill: none; stroke: #ff00ff; stroke-opacity: 0.3; stroke-width: 0.5; stroke-linecap: square"/>
   </g>
   <g id="line2d_56">
    <path d="M 73.832727 184.616234 
L 77.480531 187.301393 
L 81.128335 188.175777 
L 84.776139 189.661826 
L 88.423943 189.093258 
L 92.071747 191.728716 
L 95.719551 192.598758 
L 99.367354 194.302027 
L 103.015158 195.106448 
L 106.662962 194.993387 
L 110.310766 196.13274 
L 113.95857 197.236581 
L 117.606374 198.344843 
L 121.254178 200.723794 
L 124.901982 200.153875 
L 128.549785 200.949199 
L 132.197589 201.926021 
L 135.845393 202.603735 
L 139.493197 204.791825 
L 143.141001 205.510154 
L 146.788805 205.373138 
L 150.436609 208.055965 
L 154.084413 208.628089 
L 157.732217 208.607354 
L 161.38002 210.462059 
L 165.027824 210.24447 
L 168.675628 211.005609 
L 172.323432 211.772289 
L 175.971236 213.649044 
L 179.61904 213.778983 
L 183.266844 214.299512 
L 186.914648 214.849216 
L 190.562451 216.643297 
L 194.210255 216.578114 
L 197.858059 217.661289 
L 201.505863 218.693793 
L 205.153667 219.432973 
L 208.801471 220.433844 
L 212.449275 220.872219 
L 216.097079 222.256118 
L 219.744883 222.454427 
L 223.392686 224.111273 
L 227.04049 223.416021 
L 230.688294 225.36988 
L 234.336098 226.184166 
L 237.983902 226.684087 
L 241.631706 227.241462 
L 245.27951 228.231492 
L 248.927314 228.16239 
L 252.575117 229.528169 
L 256.222921 230.005884 
L 259.870725 231.484059 
L 263.518529 232.816502 
L 267.166333 232.164608 
L 270.814137 233.773785 
L 274.461941 234.332014 
L 278.109745 234.507054 
L 281.757549 235.031358 
L 285.405352 237.296118 
L 289.053156 237.261206 
L 292.70096 237.060767 
L 296.348764 238.492041 
L 299.996568 239.281102 
L 303.644372 239.042495 
L 307.292176 240.543005 
L 310.93998 240.855718 
L 314.587783 241.803193 
L 318.235587 242.444275 
L 321.883391 242.74986 
L 325.531195 243.697485 
L 329.178999 244.35611 
L 332.826803 245.172342 
L 336.474607 245.820033 
L 340.122411 247.360177 
L 343.770215 247.068942 
L 347.418018 247.718886 
L 351.065822 249.306323 
L 354.713626 249.354339 
L 358.36143 249.655167 
L 362.009234 250.388072 
L 365.657038 251.454645 
L 369.304842 251.651424 
L 372.952646 253.252611 
L 376.600449 253.390465 
L 380.248253 253.571438 
L 383.896057 255.022495 
L 387.543861 254.816076 
L 391.191665 254.950263 
L 394.839469 256.046553 
L 398.487273 257.200713 
" clip-path="url(#p0b3fed8c5d)" style="fill: none; stroke: #ff00ff; stroke-opacity: 0.3; stroke-width: 0.5; stroke-linecap: square"/>
   </g>
   <g id="line2d_57">
    <path d="M 73.832727 184.513761 
L 77.480531 182.765628 
L 81.128335 180.995607 
L 84.776139 179.095739 
L 88.423943 177.956617 
L 92.071747 176.065373 
L 95.719551 174.458355 
L 99.367354 173.431416 
L 103.015158 171.439718 
L 106.662962 170.208225 
L 110.310766 168.949404 
L 113.95857 167.690099 
L 117.606374 166.085667 
L 121.254178 164.501255 
L 124.901982 163.348244 
L 128.549785 162.265693 
L 132.197589 160.80921 
L 135.845393 159.107904 
L 139.493197 157.758317 
L 143.141001 156.43481 
L 146.788805 155.41691 
L 150.436609 153.503304 
L 154.084413 152.256167 
L 157.732217 150.930212 
L 161.38002 149.784717 
L 165.027824 148.688104 
L 168.675628 147.489433 
L 172.323432 145.554895 
L 175.971236 144.071235 
L 179.61904 143.248539 
L 183.266844 142.00707 
L 186.914648 139.633753 
L 190.562451 139.299491 
L 194.210255 137.36956 
L 197.858059 135.863849 
L 201.505863 133.863863 
L 205.153667 132.489211 
L 208.801471 130.14949 
L 212.449275 129.564147 
L 216.097079 127.899832 
L 219.744883 126.597994 
L 223.392686 124.197974 
L 227.04049 123.516057 
L 230.688294 121.367094 
L 234.336098 120.069043 
L 237.983902 119.231892 
L 241.631706 117.014052 
L 245.27951 115.36344 
L 248.927314 113.741345 
L 252.575117 113.35244 
L 256.222921 110.825863 
L 259.870725 110.542202 
L 263.518529 107.614829 
L 267.166333 107.521107 
L 270.814137 105.146208 
L 274.461941 104.646125 
L 278.109745 102.383166 
L 281.757549 100.666795 
L 285.405352 98.68976 
L 289.053156 98.237172 
L 292.70096 96.215181 
L 296.348764 95.218271 
L 299.996568 93.419052 
L 303.644372 92.075445 
L 307.292176 91.548115 
L 310.93998 89.707958 
L 314.587783 87.31685 
L 318.235587 86.447973 
L 321.883391 83.868451 
L 325.531195 83.31503 
L 329.178999 82.265151 
L 332.826803 80.389065 
L 336.474607 78.801328 
L 340.122411 76.768369 
L 343.770215 76.595332 
L 347.418018 74.686621 
L 351.065822 72.53588 
L 354.713626 71.748926 
L 358.36143 69.930912 
L 362.009234 68.564931 
L 365.657038 66.539638 
L 369.304842 65.980906 
L 372.952646 63.735589 
L 376.600449 63.408773 
L 380.248253 61.981257 
L 383.896057 57.987333 
L 387.543861 57.926445 
L 391.191665 56.681848 
L 394.839469 54.730304 
L 398.487273 53.568 
" clip-path="url(#p0b3fed8c5d)" style="fill: none; stroke: #6495ed; stroke-width: 2; stroke-linecap: square"/>
   </g>
   <g id="line2d_58">
    <path d="M 73.832727 186.65209 
L 77.480531 188.143702 
L 81.128335 189.616414 
L 84.776139 191.113928 
L 88.423943 192.234046 
L 92.071747 193.605174 
L 95.719551 194.882852 
L 99.367354 195.889003 
L 103.015158 197.237194 
L 106.662962 198.237277 
L 110.310766 199.260554 
L 113.95857 200.299242 
L 117.606374 201.421594 
L 121.254178 202.52166 
L 124.901982 203.432719 
L 128.549785 204.299413 
L 132.197589 205.312449 
L 135.845393 206.369604 
L 139.493197 207.314181 
L 143.141001 208.222089 
L 146.788805 209.028311 
L 150.436609 210.130571 
L 154.084413 211.005663 
L 157.732217 211.857 
L 161.38002 212.668286 
L 165.027824 213.42535 
L 168.675628 214.243483 
L 172.323432 215.277194 
L 175.971236 216.124683 
L 179.61904 216.802913 
L 183.266844 217.551427 
L 186.914648 218.728306 
L 190.562451 219.155442 
L 194.210255 220.102489 
L 197.858059 220.978227 
L 201.505863 221.927942 
L 205.153667 222.693953 
L 208.801471 223.741947 
L 212.449275 224.250441 
L 216.097079 225.116867 
L 219.744883 225.820981 
L 223.392686 226.837526 
L 227.04049 227.39279 
L 230.688294 228.312034 
L 234.336098 229.011113 
L 237.983902 229.579018 
L 241.631706 230.522533 
L 245.27951 231.291195 
L 248.927314 232.033954 
L 252.575117 232.482519 
L 256.222921 233.448277 
L 259.870725 233.865525 
L 263.518529 234.912659 
L 267.166333 235.254272 
L 270.814137 236.131759 
L 274.461941 236.598245 
L 278.109745 237.444129 
L 281.757549 238.2102 
L 285.405352 239.001641 
L 289.053156 239.416141 
L 292.70096 240.180899 
L 296.348764 240.743209 
L 299.996568 241.435282 
L 303.644372 242.034534 
L 307.292176 242.462448 
L 310.93998 243.154624 
L 314.587783 243.974351 
L 318.235587 244.462336 
L 321.883391 245.31272 
L 325.531195 245.711125 
L 329.178999 246.224064 
L 332.826803 246.910054 
L 336.474607 247.535924 
L 340.122411 248.238554 
L 343.770215 248.545942 
L 347.418018 249.225761 
L 351.065822 249.91206 
L 354.713626 250.347837 
L 358.36143 250.964141 
L 362.009234 251.529285 
L 365.657038 252.192822 
L 369.304842 252.561287 
L 372.952646 253.246874 
L 376.600449 253.576649 
L 380.248253 254.090577 
L 383.896057 255.0598 
L 387.543861 255.343929 
L 391.191665 255.827743 
L 394.839469 256.419039 
L 398.487273 256.869461 
" clip-path="url(#p0b3fed8c5d)" style="fill: none; stroke: #dc143c; stroke-width: 2; stroke-linecap: square"/>
   </g>
   <g id="line2d_59">
    <path d="M 73.832727 204.644682 
L 77.480531 197.698726 
L 81.128335 192.737329 
L 84.776139 189.76049 
L 88.423943 184.402181 
L 92.071747 182.020711 
L 95.719551 180.631519 
L 99.367354 179.043872 
L 103.015158 178.646961 
L 106.662962 177.456225 
L 110.310766 176.463946 
L 113.95857 174.876299 
L 117.606374 173.487107 
L 121.254178 173.487107 
L 124.901982 172.89174 
L 128.549785 172.89174 
L 132.197589 173.288652 
L 135.845393 173.487107 
L 139.493197 173.487107 
L 143.141001 173.884019 
L 146.788805 174.082475 
L 150.436609 173.685563 
L 154.084413 174.082475 
L 157.732217 173.884019 
L 161.38002 173.685563 
L 165.027824 173.288652 
L 168.675628 173.685563 
L 172.323432 173.090196 
L 175.971236 173.288652 
L 179.61904 173.487107 
L 183.266844 173.685563 
L 186.914648 173.884019 
L 190.562451 174.280931 
L 194.210255 174.280931 
L 197.858059 174.082475 
L 201.505863 173.685563 
L 205.153667 173.685563 
L 208.801471 173.884019 
L 212.449275 174.280931 
L 216.097079 174.876299 
L 219.744883 175.27321 
L 223.392686 175.27321 
L 227.04049 175.670122 
L 230.688294 175.471666 
L 234.336098 175.27321 
L 237.983902 175.868578 
L 241.631706 175.670122 
L 245.27951 175.471666 
L 248.927314 175.471666 
L 252.575117 175.670122 
L 256.222921 176.067034 
L 259.870725 175.868578 
L 263.518529 175.868578 
L 267.166333 176.067034 
L 270.814137 176.067034 
L 274.461941 176.067034 
L 278.109745 176.662402 
L 281.757549 176.662402 
L 285.405352 177.257769 
L 289.053156 177.456225 
L 292.70096 177.456225 
L 296.348764 177.257769 
L 299.996568 177.059313 
L 303.644372 177.059313 
L 307.292176 177.257769 
L 310.93998 177.257769 
L 314.587783 177.059313 
L 318.235587 177.059313 
L 321.883391 177.059313 
L 325.531195 177.059313 
L 329.178999 177.059313 
L 332.826803 177.257769 
L 336.474607 177.456225 
L 340.122411 177.456225 
L 343.770215 177.456225 
L 347.418018 177.456225 
L 351.065822 177.654681 
L 354.713626 177.654681 
L 358.36143 177.853137 
L 362.009234 178.051593 
L 365.657038 178.250049 
L 369.304842 178.051593 
L 372.952646 178.051593 
L 376.600449 178.051593 
L 380.248253 178.250049 
L 383.896057 178.250049 
L 387.543861 178.250049 
L 391.191665 178.250049 
L 394.839469 178.051593 
L 398.487273 178.051593 
" clip-path="url(#p0b3fed8c5d)" style="fill: none; stroke: #ffff00; stroke-width: 3; stroke-linecap: square"/>
   </g>
   <g id="patch_3">
    <path d="M 57.6 307.584 
L 57.6 41.472 
" style="fill: none; stroke: #ffffff; stroke-linejoin: miter; stroke-linecap: square"/>
   </g>
   <g id="patch_4">
    <path d="M 414.72 307.584 
L 414.72 41.472 
" style="fill: none; stroke: #ffffff; stroke-linejoin: miter; stroke-linecap: square"/>
   </g>
   <g id="patch_5">
    <path d="M 57.6 307.584 
L 414.72 307.584 
" style="fill: none; stroke: #ffffff; stroke-linejoin: miter; stroke-linecap: square"/>
   </g>
   <g id="patch_6">
    <path d="M 57.6 41.472 
L 414.72 41.472 
" style="fill: none; stroke: #ffffff; stroke-linejoin: miter; stroke-linecap: square"/>
   </g>
  </g>
 </g>
 <defs>
  <clipPath id="p0b3fed8c5d">
   <rect x="57.6" y="41.472" width="357.12" height="266.112"/>
  </clipPath>
 </defs>
</svg>
