<?xml version="1.0" encoding="utf-8" standalone="no"?>
<!DOCTYPE svg PUBLIC "-//W3C//DTD SVG 1.1//EN"
  "http://www.w3.org/Graphics/SVG/1.1/DTD/svg11.dtd">
<svg xmlns:xlink="http://www.w3.org/1999/xlink" width="460.8pt" height="345.6pt" viewBox="0 0 460.8 345.6" xmlns="http://www.w3.org/2000/svg" version="1.1">
 <metadata>
  <rdf:RDF xmlns:dc="http://purl.org/dc/elements/1.1/" xmlns:cc="http://creativecommons.org/ns#" xmlns:rdf="http://www.w3.org/1999/02/22-rdf-syntax-ns#">
   <cc:Work>
    <dc:type rdf:resource="http://purl.org/dc/dcmitype/StillImage"/>
    <dc:date>2023-07-05T11:37:24.490805</dc:date>
    <dc:format>image/svg+xml</dc:format>
    <dc:creator>
     <cc:Agent>
      <dc:title>Matplotlib v3.7.1, https://matplotlib.org/</dc:title>
     </cc:Agent>
    </dc:creator>
   </cc:Work>
  </rdf:RDF>
 </metadata>
 <defs>
  <style type="text/css">*{stroke-linejoin: round; stroke-linecap: butt}</style>
 </defs>
 <g id="figure_1">
  <g id="patch_1">
   <path d="M 0 345.6 
L 460.8 345.6 
L 460.8 0 
L 0 0 
z
" style="fill: #ffffff"/>
  </g>
  <g id="axes_1">
   <g id="patch_2">
    <path d="M 57.6 307.584 
L 414.72 307.584 
L 414.72 41.472 
L 57.6 41.472 
z
" style="fill: #e5e5e5"/>
   </g>
   <g id="matplotlib.axis_1">
    <g id="xtick_1">
     <g id="line2d_1">
      <path d="M 73.2304 307.584 
L 73.2304 41.472 
" clip-path="url(#p8e0d2de766)" style="fill: none; stroke: #ffffff; stroke-width: 0.8; stroke-linecap: square"/>
     </g>
     <g id="line2d_2">
      <defs>
       <path id="m5c776b9f6e" d="M 0 0 
L 0 3.5 
" style="stroke: #555555; stroke-width: 0.8"/>
      </defs>
      <g>
       <use xlink:href="#m5c776b9f6e" x="73.2304" y="307.584" style="fill: #555555; stroke: #555555; stroke-width: 0.8"/>
      </g>
     </g>
     <g id="text_1">
      <!-- 0 -->
      <g style="fill: #555555" transform="translate(70.04915 322.182437) scale(0.1 -0.1)">
       <defs>
        <path id="DejaVuSans-30" d="M 2034 4250 
Q 1547 4250 1301 3770 
Q 1056 3291 1056 2328 
Q 1056 1369 1301 889 
Q 1547 409 2034 409 
Q 2525 409 2770 889 
Q 3016 1369 3016 2328 
Q 3016 3291 2770 3770 
Q 2525 4250 2034 4250 
z
M 2034 4750 
Q 2819 4750 3233 4129 
Q 3647 3509 3647 2328 
Q 3647 1150 3233 529 
Q 2819 -91 2034 -91 
Q 1250 -91 836 529 
Q 422 1150 422 2328 
Q 422 3509 836 4129 
Q 1250 4750 2034 4750 
z
" transform="scale(0.015625)"/>
       </defs>
       <use xlink:href="#DejaVuSans-30"/>
      </g>
     </g>
    </g>
    <g id="xtick_2">
     <g id="line2d_3">
      <path d="M 133.463154 307.584 
L 133.463154 41.472 
" clip-path="url(#p8e0d2de766)" style="fill: none; stroke: #ffffff; stroke-width: 0.8; stroke-linecap: square"/>
     </g>
     <g id="line2d_4">
      <g>
       <use xlink:href="#m5c776b9f6e" x="133.463154" y="307.584" style="fill: #555555; stroke: #555555; stroke-width: 0.8"/>
      </g>
     </g>
     <g id="text_2">
      <!-- 100 -->
      <g style="fill: #555555" transform="translate(123.919404 322.182437) scale(0.1 -0.1)">
       <defs>
        <path id="DejaVuSans-31" d="M 794 531 
L 1825 531 
L 1825 4091 
L 703 3866 
L 703 4441 
L 1819 4666 
L 2450 4666 
L 2450 531 
L 3481 531 
L 3481 0 
L 794 0 
L 794 531 
z
" transform="scale(0.015625)"/>
       </defs>
       <use xlink:href="#DejaVuSans-31"/>
       <use xlink:href="#DejaVuSans-30" x="63.623047"/>
       <use xlink:href="#DejaVuSans-30" x="127.246094"/>
      </g>
     </g>
    </g>
    <g id="xtick_3">
     <g id="line2d_5">
      <path d="M 193.695908 307.584 
L 193.695908 41.472 
" clip-path="url(#p8e0d2de766)" style="fill: none; stroke: #ffffff; stroke-width: 0.8; stroke-linecap: square"/>
     </g>
     <g id="line2d_6">
      <g>
       <use xlink:href="#m5c776b9f6e" x="193.695908" y="307.584" style="fill: #555555; stroke: #555555; stroke-width: 0.8"/>
      </g>
     </g>
     <g id="text_3">
      <!-- 200 -->
      <g style="fill: #555555" transform="translate(184.152158 322.182437) scale(0.1 -0.1)">
       <defs>
        <path id="DejaVuSans-32" d="M 1228 531 
L 3431 531 
L 3431 0 
L 469 0 
L 469 531 
Q 828 903 1448 1529 
Q 2069 2156 2228 2338 
Q 2531 2678 2651 2914 
Q 2772 3150 2772 3378 
Q 2772 3750 2511 3984 
Q 2250 4219 1831 4219 
Q 1534 4219 1204 4116 
Q 875 4013 500 3803 
L 500 4441 
Q 881 4594 1212 4672 
Q 1544 4750 1819 4750 
Q 2544 4750 2975 4387 
Q 3406 4025 3406 3419 
Q 3406 3131 3298 2873 
Q 3191 2616 2906 2266 
Q 2828 2175 2409 1742 
Q 1991 1309 1228 531 
z
" transform="scale(0.015625)"/>
       </defs>
       <use xlink:href="#DejaVuSans-32"/>
       <use xlink:href="#DejaVuSans-30" x="63.623047"/>
       <use xlink:href="#DejaVuSans-30" x="127.246094"/>
      </g>
     </g>
    </g>
    <g id="xtick_4">
     <g id="line2d_7">
      <path d="M 253.928663 307.584 
L 253.928663 41.472 
" clip-path="url(#p8e0d2de766)" style="fill: none; stroke: #ffffff; stroke-width: 0.8; stroke-linecap: square"/>
     </g>
     <g id="line2d_8">
      <g>
       <use xlink:href="#m5c776b9f6e" x="253.928663" y="307.584" style="fill: #555555; stroke: #555555; stroke-width: 0.8"/>
      </g>
     </g>
     <g id="text_4">
      <!-- 300 -->
      <g style="fill: #555555" transform="translate(244.384913 322.182437) scale(0.1 -0.1)">
       <defs>
        <path id="DejaVuSans-33" d="M 2597 2516 
Q 3050 2419 3304 2112 
Q 3559 1806 3559 1356 
Q 3559 666 3084 287 
Q 2609 -91 1734 -91 
Q 1441 -91 1130 -33 
Q 819 25 488 141 
L 488 750 
Q 750 597 1062 519 
Q 1375 441 1716 441 
Q 2309 441 2620 675 
Q 2931 909 2931 1356 
Q 2931 1769 2642 2001 
Q 2353 2234 1838 2234 
L 1294 2234 
L 1294 2753 
L 1863 2753 
Q 2328 2753 2575 2939 
Q 2822 3125 2822 3475 
Q 2822 3834 2567 4026 
Q 2313 4219 1838 4219 
Q 1578 4219 1281 4162 
Q 984 4106 628 3988 
L 628 4550 
Q 988 4650 1302 4700 
Q 1616 4750 1894 4750 
Q 2613 4750 3031 4423 
Q 3450 4097 3450 3541 
Q 3450 3153 3228 2886 
Q 3006 2619 2597 2516 
z
" transform="scale(0.015625)"/>
       </defs>
       <use xlink:href="#DejaVuSans-33"/>
       <use xlink:href="#DejaVuSans-30" x="63.623047"/>
       <use xlink:href="#DejaVuSans-30" x="127.246094"/>
      </g>
     </g>
    </g>
    <g id="xtick_5">
     <g id="line2d_9">
      <path d="M 314.161417 307.584 
L 314.161417 41.472 
" clip-path="url(#p8e0d2de766)" style="fill: none; stroke: #ffffff; stroke-width: 0.8; stroke-linecap: square"/>
     </g>
     <g id="line2d_10">
      <g>
       <use xlink:href="#m5c776b9f6e" x="314.161417" y="307.584" style="fill: #555555; stroke: #555555; stroke-width: 0.8"/>
      </g>
     </g>
     <g id="text_5">
      <!-- 400 -->
      <g style="fill: #555555" transform="translate(304.617667 322.182437) scale(0.1 -0.1)">
       <defs>
        <path id="DejaVuSans-34" d="M 2419 4116 
L 825 1625 
L 2419 1625 
L 2419 4116 
z
M 2253 4666 
L 3047 4666 
L 3047 1625 
L 3713 1625 
L 3713 1100 
L 3047 1100 
L 3047 0 
L 2419 0 
L 2419 1100 
L 313 1100 
L 313 1709 
L 2253 4666 
z
" transform="scale(0.015625)"/>
       </defs>
       <use xlink:href="#DejaVuSans-34"/>
       <use xlink:href="#DejaVuSans-30" x="63.623047"/>
       <use xlink:href="#DejaVuSans-30" x="127.246094"/>
      </g>
     </g>
    </g>
    <g id="xtick_6">
     <g id="line2d_11">
      <path d="M 374.394171 307.584 
L 374.394171 41.472 
" clip-path="url(#p8e0d2de766)" style="fill: none; stroke: #ffffff; stroke-width: 0.8; stroke-linecap: square"/>
     </g>
     <g id="line2d_12">
      <g>
       <use xlink:href="#m5c776b9f6e" x="374.394171" y="307.584" style="fill: #555555; stroke: #555555; stroke-width: 0.8"/>
      </g>
     </g>
     <g id="text_6">
      <!-- 500 -->
      <g style="fill: #555555" transform="translate(364.850421 322.182437) scale(0.1 -0.1)">
       <defs>
        <path id="DejaVuSans-35" d="M 691 4666 
L 3169 4666 
L 3169 4134 
L 1269 4134 
L 1269 2991 
Q 1406 3038 1543 3061 
Q 1681 3084 1819 3084 
Q 2600 3084 3056 2656 
Q 3513 2228 3513 1497 
Q 3513 744 3044 326 
Q 2575 -91 1722 -91 
Q 1428 -91 1123 -41 
Q 819 9 494 109 
L 494 744 
Q 775 591 1075 516 
Q 1375 441 1709 441 
Q 2250 441 2565 725 
Q 2881 1009 2881 1497 
Q 2881 1984 2565 2268 
Q 2250 2553 1709 2553 
Q 1456 2553 1204 2497 
Q 953 2441 691 2322 
L 691 4666 
z
" transform="scale(0.015625)"/>
       </defs>
       <use xlink:href="#DejaVuSans-35"/>
       <use xlink:href="#DejaVuSans-30" x="63.623047"/>
       <use xlink:href="#DejaVuSans-30" x="127.246094"/>
      </g>
     </g>
    </g>
    <g id="text_7">
     <!-- Epoch -->
     <g style="fill: #555555" transform="translate(217.786875 337.38025) scale(0.12 -0.12)">
      <defs>
       <path id="DejaVuSans-45" d="M 628 4666 
L 3578 4666 
L 3578 4134 
L 1259 4134 
L 1259 2753 
L 3481 2753 
L 3481 2222 
L 1259 2222 
L 1259 531 
L 3634 531 
L 3634 0 
L 628 0 
L 628 4666 
z
" transform="scale(0.015625)"/>
       <path id="DejaVuSans-70" d="M 1159 525 
L 1159 -1331 
L 581 -1331 
L 581 3500 
L 1159 3500 
L 1159 2969 
Q 1341 3281 1617 3432 
Q 1894 3584 2278 3584 
Q 2916 3584 3314 3078 
Q 3713 2572 3713 1747 
Q 3713 922 3314 415 
Q 2916 -91 2278 -91 
Q 1894 -91 1617 61 
Q 1341 213 1159 525 
z
M 3116 1747 
Q 3116 2381 2855 2742 
Q 2594 3103 2138 3103 
Q 1681 3103 1420 2742 
Q 1159 2381 1159 1747 
Q 1159 1113 1420 752 
Q 1681 391 2138 391 
Q 2594 391 2855 752 
Q 3116 1113 3116 1747 
z
" transform="scale(0.015625)"/>
       <path id="DejaVuSans-6f" d="M 1959 3097 
Q 1497 3097 1228 2736 
Q 959 2375 959 1747 
Q 959 1119 1226 758 
Q 1494 397 1959 397 
Q 2419 397 2687 759 
Q 2956 1122 2956 1747 
Q 2956 2369 2687 2733 
Q 2419 3097 1959 3097 
z
M 1959 3584 
Q 2709 3584 3137 3096 
Q 3566 2609 3566 1747 
Q 3566 888 3137 398 
Q 2709 -91 1959 -91 
Q 1206 -91 779 398 
Q 353 888 353 1747 
Q 353 2609 779 3096 
Q 1206 3584 1959 3584 
z
" transform="scale(0.015625)"/>
       <path id="DejaVuSans-63" d="M 3122 3366 
L 3122 2828 
Q 2878 2963 2633 3030 
Q 2388 3097 2138 3097 
Q 1578 3097 1268 2742 
Q 959 2388 959 1747 
Q 959 1106 1268 751 
Q 1578 397 2138 397 
Q 2388 397 2633 464 
Q 2878 531 3122 666 
L 3122 134 
Q 2881 22 2623 -34 
Q 2366 -91 2075 -91 
Q 1284 -91 818 406 
Q 353 903 353 1747 
Q 353 2603 823 3093 
Q 1294 3584 2113 3584 
Q 2378 3584 2631 3529 
Q 2884 3475 3122 3366 
z
" transform="scale(0.015625)"/>
       <path id="DejaVuSans-68" d="M 3513 2113 
L 3513 0 
L 2938 0 
L 2938 2094 
Q 2938 2591 2744 2837 
Q 2550 3084 2163 3084 
Q 1697 3084 1428 2787 
Q 1159 2491 1159 1978 
L 1159 0 
L 581 0 
L 581 4863 
L 1159 4863 
L 1159 2956 
Q 1366 3272 1645 3428 
Q 1925 3584 2291 3584 
Q 2894 3584 3203 3211 
Q 3513 2838 3513 2113 
z
" transform="scale(0.015625)"/>
      </defs>
      <use xlink:href="#DejaVuSans-45"/>
      <use xlink:href="#DejaVuSans-70" x="63.183594"/>
      <use xlink:href="#DejaVuSans-6f" x="126.660156"/>
      <use xlink:href="#DejaVuSans-63" x="187.841797"/>
      <use xlink:href="#DejaVuSans-68" x="242.822266"/>
     </g>
    </g>
   </g>
   <g id="matplotlib.axis_2">
    <g id="ytick_1">
     <g id="line2d_13">
      <path d="M 57.6 268.107286 
L 414.72 268.107286 
" clip-path="url(#p8e0d2de766)" style="fill: none; stroke: #ffffff; stroke-width: 0.8; stroke-linecap: square"/>
     </g>
     <g id="line2d_14">
      <defs>
       <path id="mf65c2ea243" d="M 0 0 
L -3.5 0 
" style="stroke: #555555; stroke-width: 0.8"/>
      </defs>
      <g>
       <use xlink:href="#mf65c2ea243" x="57.6" y="268.107286" style="fill: #555555; stroke: #555555; stroke-width: 0.8"/>
      </g>
     </g>
     <g id="text_8">
      <!-- 0.65 -->
      <g style="fill: #555555" transform="translate(28.334375 271.906504) scale(0.1 -0.1)">
       <defs>
        <path id="DejaVuSans-2e" d="M 684 794 
L 1344 794 
L 1344 0 
L 684 0 
L 684 794 
z
" transform="scale(0.015625)"/>
        <path id="DejaVuSans-36" d="M 2113 2584 
Q 1688 2584 1439 2293 
Q 1191 2003 1191 1497 
Q 1191 994 1439 701 
Q 1688 409 2113 409 
Q 2538 409 2786 701 
Q 3034 994 3034 1497 
Q 3034 2003 2786 2293 
Q 2538 2584 2113 2584 
z
M 3366 4563 
L 3366 3988 
Q 3128 4100 2886 4159 
Q 2644 4219 2406 4219 
Q 1781 4219 1451 3797 
Q 1122 3375 1075 2522 
Q 1259 2794 1537 2939 
Q 1816 3084 2150 3084 
Q 2853 3084 3261 2657 
Q 3669 2231 3669 1497 
Q 3669 778 3244 343 
Q 2819 -91 2113 -91 
Q 1303 -91 875 529 
Q 447 1150 447 2328 
Q 447 3434 972 4092 
Q 1497 4750 2381 4750 
Q 2619 4750 2861 4703 
Q 3103 4656 3366 4563 
z
" transform="scale(0.015625)"/>
       </defs>
       <use xlink:href="#DejaVuSans-30"/>
       <use xlink:href="#DejaVuSans-2e" x="63.623047"/>
       <use xlink:href="#DejaVuSans-36" x="95.410156"/>
       <use xlink:href="#DejaVuSans-35" x="159.033203"/>
      </g>
     </g>
    </g>
    <g id="ytick_2">
     <g id="line2d_15">
      <path d="M 57.6 216.585431 
L 414.72 216.585431 
" clip-path="url(#p8e0d2de766)" style="fill: none; stroke: #ffffff; stroke-width: 0.8; stroke-linecap: square"/>
     </g>
     <g id="line2d_16">
      <g>
       <use xlink:href="#mf65c2ea243" x="57.6" y="216.585431" style="fill: #555555; stroke: #555555; stroke-width: 0.8"/>
      </g>
     </g>
     <g id="text_9">
      <!-- 0.70 -->
      <g style="fill: #555555" transform="translate(28.334375 220.384649) scale(0.1 -0.1)">
       <defs>
        <path id="DejaVuSans-37" d="M 525 4666 
L 3525 4666 
L 3525 4397 
L 1831 0 
L 1172 0 
L 2766 4134 
L 525 4134 
L 525 4666 
z
" transform="scale(0.015625)"/>
       </defs>
       <use xlink:href="#DejaVuSans-30"/>
       <use xlink:href="#DejaVuSans-2e" x="63.623047"/>
       <use xlink:href="#DejaVuSans-37" x="95.410156"/>
       <use xlink:href="#DejaVuSans-30" x="159.033203"/>
      </g>
     </g>
    </g>
    <g id="ytick_3">
     <g id="line2d_17">
      <path d="M 57.6 165.063575 
L 414.72 165.063575 
" clip-path="url(#p8e0d2de766)" style="fill: none; stroke: #ffffff; stroke-width: 0.8; stroke-linecap: square"/>
     </g>
     <g id="line2d_18">
      <g>
       <use xlink:href="#mf65c2ea243" x="57.6" y="165.063575" style="fill: #555555; stroke: #555555; stroke-width: 0.8"/>
      </g>
     </g>
     <g id="text_10">
      <!-- 0.75 -->
      <g style="fill: #555555" transform="translate(28.334375 168.862794) scale(0.1 -0.1)">
       <use xlink:href="#DejaVuSans-30"/>
       <use xlink:href="#DejaVuSans-2e" x="63.623047"/>
       <use xlink:href="#DejaVuSans-37" x="95.410156"/>
       <use xlink:href="#DejaVuSans-35" x="159.033203"/>
      </g>
     </g>
    </g>
    <g id="ytick_4">
     <g id="line2d_19">
      <path d="M 57.6 113.54172 
L 414.72 113.54172 
" clip-path="url(#p8e0d2de766)" style="fill: none; stroke: #ffffff; stroke-width: 0.8; stroke-linecap: square"/>
     </g>
     <g id="line2d_20">
      <g>
       <use xlink:href="#mf65c2ea243" x="57.6" y="113.54172" style="fill: #555555; stroke: #555555; stroke-width: 0.8"/>
      </g>
     </g>
     <g id="text_11">
      <!-- 0.80 -->
      <g style="fill: #555555" transform="translate(28.334375 117.340939) scale(0.1 -0.1)">
       <defs>
        <path id="DejaVuSans-38" d="M 2034 2216 
Q 1584 2216 1326 1975 
Q 1069 1734 1069 1313 
Q 1069 891 1326 650 
Q 1584 409 2034 409 
Q 2484 409 2743 651 
Q 3003 894 3003 1313 
Q 3003 1734 2745 1975 
Q 2488 2216 2034 2216 
z
M 1403 2484 
Q 997 2584 770 2862 
Q 544 3141 544 3541 
Q 544 4100 942 4425 
Q 1341 4750 2034 4750 
Q 2731 4750 3128 4425 
Q 3525 4100 3525 3541 
Q 3525 3141 3298 2862 
Q 3072 2584 2669 2484 
Q 3125 2378 3379 2068 
Q 3634 1759 3634 1313 
Q 3634 634 3220 271 
Q 2806 -91 2034 -91 
Q 1263 -91 848 271 
Q 434 634 434 1313 
Q 434 1759 690 2068 
Q 947 2378 1403 2484 
z
M 1172 3481 
Q 1172 3119 1398 2916 
Q 1625 2713 2034 2713 
Q 2441 2713 2670 2916 
Q 2900 3119 2900 3481 
Q 2900 3844 2670 4047 
Q 2441 4250 2034 4250 
Q 1625 4250 1398 4047 
Q 1172 3844 1172 3481 
z
" transform="scale(0.015625)"/>
       </defs>
       <use xlink:href="#DejaVuSans-30"/>
       <use xlink:href="#DejaVuSans-2e" x="63.623047"/>
       <use xlink:href="#DejaVuSans-38" x="95.410156"/>
       <use xlink:href="#DejaVuSans-30" x="159.033203"/>
      </g>
     </g>
    </g>
    <g id="ytick_5">
     <g id="line2d_21">
      <path d="M 57.6 62.019865 
L 414.72 62.019865 
" clip-path="url(#p8e0d2de766)" style="fill: none; stroke: #ffffff; stroke-width: 0.8; stroke-linecap: square"/>
     </g>
     <g id="line2d_22">
      <g>
       <use xlink:href="#mf65c2ea243" x="57.6" y="62.019865" style="fill: #555555; stroke: #555555; stroke-width: 0.8"/>
      </g>
     </g>
     <g id="text_12">
      <!-- 0.85 -->
      <g style="fill: #555555" transform="translate(28.334375 65.819084) scale(0.1 -0.1)">
       <use xlink:href="#DejaVuSans-30"/>
       <use xlink:href="#DejaVuSans-2e" x="63.623047"/>
       <use xlink:href="#DejaVuSans-38" x="95.410156"/>
       <use xlink:href="#DejaVuSans-35" x="159.033203"/>
      </g>
     </g>
    </g>
    <g id="text_13">
     <!-- Loss -->
     <g style="fill: #555555" transform="translate(21.83875 187.688625) rotate(-90) scale(0.12 -0.12)">
      <defs>
       <path id="DejaVuSans-4c" d="M 628 4666 
L 1259 4666 
L 1259 531 
L 3531 531 
L 3531 0 
L 628 0 
L 628 4666 
z
" transform="scale(0.015625)"/>
       <path id="DejaVuSans-73" d="M 2834 3397 
L 2834 2853 
Q 2591 2978 2328 3040 
Q 2066 3103 1784 3103 
Q 1356 3103 1142 2972 
Q 928 2841 928 2578 
Q 928 2378 1081 2264 
Q 1234 2150 1697 2047 
L 1894 2003 
Q 2506 1872 2764 1633 
Q 3022 1394 3022 966 
Q 3022 478 2636 193 
Q 2250 -91 1575 -91 
Q 1294 -91 989 -36 
Q 684 19 347 128 
L 347 722 
Q 666 556 975 473 
Q 1284 391 1588 391 
Q 1994 391 2212 530 
Q 2431 669 2431 922 
Q 2431 1156 2273 1281 
Q 2116 1406 1581 1522 
L 1381 1569 
Q 847 1681 609 1914 
Q 372 2147 372 2553 
Q 372 3047 722 3315 
Q 1072 3584 1716 3584 
Q 2034 3584 2315 3537 
Q 2597 3491 2834 3397 
z
" transform="scale(0.015625)"/>
      </defs>
      <use xlink:href="#DejaVuSans-4c"/>
      <use xlink:href="#DejaVuSans-6f" x="53.962891"/>
      <use xlink:href="#DejaVuSans-73" x="115.144531"/>
      <use xlink:href="#DejaVuSans-73" x="167.244141"/>
     </g>
    </g>
   </g>
   <g id="line2d_23">
    <path d="M 73.832727 280.795767 
L 74.435055 279.079724 
L 75.037382 276.235049 
L 75.63971 276.367223 
L 76.242037 273.413529 
L 76.844365 272.333663 
L 77.446693 272.809905 
L 78.04902 269.901477 
L 78.651348 268.954276 
L 79.253675 267.588567 
L 79.856003 267.823555 
L 80.45833 266.505753 
L 81.060658 264.631127 
L 81.662985 263.640257 
L 82.265313 263.302023 
L 82.86764 261.991837 
L 83.469968 259.860234 
L 84.072295 259.301139 
L 85.276951 256.419551 
L 85.879278 255.119069 
L 86.481606 255.58708 
L 87.083933 254.721259 
L 87.686261 253.27159 
L 88.288588 251.456234 
L 88.890916 251.822535 
L 89.493243 251.258588 
L 90.095571 250.013812 
L 90.697898 249.350427 
L 91.300226 246.554273 
L 91.902554 245.838314 
L 92.504881 244.860587 
L 93.107209 246.095904 
L 93.709536 244.673014 
L 94.311864 244.475676 
L 94.914191 242.754781 
L 95.516519 242.537543 
L 96.118846 243.736623 
L 96.721174 241.073379 
L 97.323501 239.045759 
L 98.528157 241.391406 
L 99.130484 238.84406 
L 99.732812 238.743455 
L 100.937467 237.339237 
L 101.539794 235.161877 
L 102.142122 236.22037 
L 102.744449 234.861785 
L 103.346777 234.566606 
L 103.949104 234.680047 
L 105.153759 233.363227 
L 105.756087 233.172521 
L 106.358415 233.170433 
L 106.960742 232.877588 
L 107.56307 230.935033 
L 108.767725 230.357634 
L 109.370052 230.553561 
L 109.97238 229.102356 
L 110.574707 230.809984 
L 111.177035 229.126678 
L 111.779362 229.307434 
L 112.984018 225.863802 
L 113.586345 228.043496 
L 114.188673 228.968647 
L 114.791 225.992168 
L 115.393328 227.321149 
L 115.995655 227.432931 
L 117.20031 224.680139 
L 117.802638 225.428343 
L 118.404965 225.195688 
L 119.007293 225.222344 
L 119.609621 225.624637 
L 120.211948 223.572081 
L 120.814276 223.856328 
L 121.416603 223.108369 
L 122.018931 222.91103 
L 122.621258 224.798124 
L 123.223586 222.196852 
L 123.825913 221.083943 
L 124.428241 222.576666 
L 125.030568 222.188131 
L 125.632896 223.428607 
L 126.235223 221.786329 
L 126.837551 221.512032 
L 127.439879 222.854709 
L 128.644534 220.058003 
L 129.246861 220.137663 
L 129.849189 221.188171 
L 130.451516 219.692069 
L 131.053844 220.174146 
L 131.656171 221.032781 
L 132.258499 220.841645 
L 132.860826 220.20031 
L 133.463154 220.581352 
L 134.065482 218.146894 
L 134.667809 217.908957 
L 135.270137 219.104352 
L 135.872464 218.759608 
L 136.474792 217.853742 
L 137.077119 219.624386 
L 137.679447 219.217301 
L 138.281774 218.944786 
L 138.884102 218.363211 
L 139.486429 216.660312 
L 140.088757 218.391709 
L 140.691084 217.27358 
L 141.293412 217.603399 
L 141.89574 217.278063 
L 142.498067 217.360364 
L 143.100395 216.671368 
L 143.702722 216.649011 
L 144.30505 217.691289 
L 144.907377 215.288093 
L 145.509705 215.813777 
L 146.112032 216.948121 
L 146.71436 214.748098 
L 147.316687 213.992155 
L 147.919015 216.398791 
L 148.521343 216.446329 
L 149.12367 214.927748 
L 149.725998 216.088319 
L 150.930653 215.037688 
L 151.53298 215.877345 
L 152.737635 213.928587 
L 153.339963 215.370824 
L 153.94229 214.642151 
L 154.544618 214.727707 
L 155.146946 215.327155 
L 155.749273 214.665306 
L 156.351601 214.938251 
L 156.953928 213.227552 
L 157.556256 214.319948 
L 158.158583 213.880803 
L 158.760911 213.605708 
L 159.363238 213.977169 
L 159.965566 213.380117 
L 160.567893 214.303733 
L 161.170221 212.144492 
L 161.772548 213.490855 
L 162.374876 211.762283 
L 162.977204 214.749204 
L 163.579531 211.419259 
L 164.181859 214.074518 
L 164.784186 211.725063 
L 165.386514 212.109852 
L 165.988841 213.705452 
L 166.591169 214.245631 
L 167.795824 211.800977 
L 169.000479 211.956858 
L 169.602807 212.999443 
L 170.205134 211.57084 
L 170.807462 211.651238 
L 171.409789 212.808246 
L 172.012117 211.364473 
L 173.216772 212.515401 
L 173.819099 210.661535 
L 174.421427 212.33053 
L 175.023754 210.650971 
L 175.626082 211.271055 
L 176.22841 210.403084 
L 176.830737 211.44616 
L 177.433065 211.569428 
L 178.035392 211.416311 
L 178.63772 211.516792 
L 179.240047 210.763121 
L 179.842375 210.89941 
L 180.444702 209.366396 
L 181.649357 211.188631 
L 182.251685 210.811458 
L 182.854012 210.973604 
L 183.45634 210.857154 
L 184.660995 208.289846 
L 185.263323 208.564573 
L 185.86565 208.502355 
L 186.467978 208.312387 
L 187.070305 208.239176 
L 187.672633 207.874716 
L 188.27496 208.087287 
L 188.877288 208.682067 
L 189.479615 208.882108 
L 190.081943 208.279589 
L 190.684271 206.950793 
L 191.286598 208.710627 
L 191.888926 206.891032 
L 192.491253 208.927742 
L 193.695908 207.269249 
L 194.298236 206.63553 
L 194.900563 208.273632 
L 195.502891 205.077825 
L 196.105218 205.698033 
L 196.707546 205.987377 
L 197.309874 205.178184 
L 197.912201 205.757179 
L 198.514529 207.004841 
L 199.116856 204.737381 
L 199.719184 203.938076 
L 200.321511 206.168071 
L 201.526166 203.018022 
L 202.128494 204.425741 
L 202.730821 204.610244 
L 203.333149 204.590835 
L 203.935476 203.860811 
L 204.537804 203.93175 
L 205.140132 203.881755 
L 205.742459 204.14039 
L 206.344787 204.658396 
L 206.947114 200.572938 
L 207.549442 203.662858 
L 208.151769 202.290393 
L 208.754097 201.329249 
L 209.356424 203.46945 
L 209.958752 201.544768 
L 210.561079 203.868857 
L 211.163407 202.032434 
L 212.368062 200.626986 
L 212.97039 202.232045 
L 214.175045 201.780371 
L 214.777372 199.972384 
L 215.3797 200.95828 
L 215.982027 201.577197 
L 216.584355 200.017711 
L 217.186682 200.306503 
L 217.78901 198.280971 
L 218.391337 202.705461 
L 218.993665 200.426638 
L 219.595993 200.158729 
L 220.19832 199.570398 
L 220.800648 200.455812 
L 221.402975 200.125747 
L 222.005303 199.633905 
L 222.60763 199.710802 
L 223.209958 201.194988 
L 223.812285 200.264431 
L 224.414613 200.833292 
L 225.619268 199.425818 
L 226.221596 200.104926 
L 226.823923 200.362087 
L 227.426251 199.00209 
L 228.028578 199.773387 
L 228.630906 197.234333 
L 229.233233 199.214414 
L 229.835561 199.306727 
L 230.437888 198.587881 
L 231.040216 198.570684 
L 231.642543 197.529143 
L 232.244871 195.987592 
L 232.847199 197.403112 
L 233.449526 198.410995 
L 234.051854 197.150864 
L 234.654181 196.588329 
L 235.256509 197.997953 
L 235.858836 198.402212 
L 236.461164 197.213819 
L 237.063491 196.978523 
L 237.665819 197.208782 
L 238.268146 196.145254 
L 238.870474 195.993365 
L 239.472801 194.799199 
L 240.075129 198.071533 
L 240.677457 196.728241 
L 241.279784 196.079167 
L 241.882112 195.788533 
L 242.484439 195.962778 
L 243.086767 195.834966 
L 243.689094 197.021209 
L 244.291422 196.305127 
L 244.893749 198.055932 
L 245.496077 194.216211 
L 246.098404 195.934219 
L 246.700732 193.850585 
L 247.30306 195.598012 
L 247.905387 195.798114 
L 248.507715 197.644365 
L 249.110042 194.579442 
L 249.71237 194.486577 
L 250.314697 193.684078 
L 250.917025 195.095422 
L 251.519352 195.984091 
L 252.12168 195.546789 
L 252.724007 196.492639 
L 253.326335 194.168488 
L 253.928663 195.56503 
L 254.53099 193.207345 
L 255.133318 194.90619 
L 256.337973 193.006874 
L 256.9403 195.859472 
L 257.542628 193.125965 
L 258.144955 192.354606 
L 258.747283 194.50881 
L 259.34961 193.425382 
L 259.951938 194.230276 
L 260.554265 195.483282 
L 261.156593 192.731963 
L 261.758921 192.719864 
L 262.361248 194.307725 
L 262.963576 194.015371 
L 263.565903 194.522814 
L 264.168231 195.66287 
L 264.770558 193.593915 
L 265.372886 193.693659 
L 265.975213 190.914887 
L 266.577541 191.193729 
L 267.179868 194.333705 
L 267.782196 192.692839 
L 268.384524 192.628595 
L 268.986851 192.755671 
L 269.589179 191.497015 
L 270.191506 192.117468 
L 270.793834 190.26225 
L 271.396161 192.164146 
L 272.600816 191.33794 
L 273.203144 193.622844 
L 273.805471 192.106351 
L 274.407799 194.361958 
L 275.010126 192.409637 
L 275.612454 191.796861 
L 276.214782 192.659919 
L 277.419437 189.070848 
L 278.021764 190.037949 
L 278.624092 188.890031 
L 279.226419 191.257911 
L 279.828747 191.364473 
L 280.431074 192.329117 
L 281.033402 190.787197 
L 281.635729 190.39166 
L 282.238057 190.635186 
L 282.840385 186.999375 
L 283.442712 189.702295 
L 285.249695 190.943877 
L 285.852022 189.385865 
L 286.45435 189.719308 
L 287.056677 188.681452 
L 287.659005 188.419071 
L 288.261332 188.915458 
L 288.86366 189.165433 
L 289.465988 191.453469 
L 290.068315 188.316686 
L 291.27297 191.74613 
L 291.875298 187.702989 
L 292.477625 188.491791 
L 293.079953 190.758269 
L 293.68228 190.336936 
L 294.284608 191.027345 
L 294.886935 188.665975 
L 295.489263 187.298914 
L 296.09159 187.73898 
L 296.693918 187.644027 
L 297.296246 186.753269 
L 297.898573 189.872118 
L 298.500901 186.952389 
L 299.103228 188.92332 
L 299.705556 188.536688 
L 300.307883 188.922214 
L 300.910211 187.188238 
L 301.512538 191.588529 
L 302.114866 185.501922 
L 302.717193 189.858299 
L 303.319521 187.231661 
L 303.921849 189.038234 
L 304.524176 187.860835 
L 305.126504 187.679895 
L 305.728831 185.419252 
L 306.331159 185.916991 
L 306.933486 187.183938 
L 307.535814 187.533719 
L 308.138141 184.81833 
L 308.740469 184.957751 
L 309.342796 188.743915 
L 309.945124 186.793437 
L 310.547452 185.674325 
L 311.149779 187.638069 
L 311.752107 184.650411 
L 312.354434 186.858173 
L 312.956762 185.612292 
L 313.559089 188.424476 
L 314.161417 187.684809 
L 314.763744 185.181807 
L 315.366072 187.350813 
L 315.968399 186.548683 
L 316.570727 181.978692 
L 317.173054 183.88544 
L 317.775382 186.951714 
L 318.37771 187.309724 
L 318.980037 185.325159 
L 319.582365 184.671846 
L 320.184692 182.97294 
L 320.78702 185.298441 
L 321.389347 186.255531 
L 321.991675 185.611493 
L 322.594002 182.582685 
L 323.19633 184.482983 
L 323.798657 184.715024 
L 324.400985 184.672276 
L 325.60564 182.991181 
L 326.207968 183.074281 
L 326.810295 181.698929 
L 327.412623 181.975437 
L 328.01495 184.481632 
L 328.617278 183.416384 
L 329.219605 184.743706 
L 329.821933 180.800924 
L 330.42426 184.152796 
L 331.628916 180.726607 
L 332.231243 185.813807 
L 332.833571 181.107159 
L 334.038226 184.480404 
L 334.640553 184.944792 
L 335.242881 182.082121 
L 335.845208 185.25594 
L 336.447536 184.579043 
L 337.049863 181.285273 
L 337.652191 184.088245 
L 338.254518 182.370605 
L 338.856846 182.618676 
L 339.459174 181.545013 
L 340.663829 182.136108 
L 341.266156 182.939467 
L 341.868484 181.457921 
L 342.470811 183.282921 
L 343.073139 180.981496 
L 343.675466 183.741535 
L 344.277794 180.185016 
L 344.880121 183.713467 
L 345.482449 180.031838 
L 346.084777 179.848318 
L 346.687104 180.770583 
L 347.891759 180.627047 
L 348.494087 184.292524 
L 349.096414 178.183806 
L 349.698742 182.345362 
L 350.301069 184.320224 
L 350.903397 183.793496 
L 351.505724 181.032105 
L 352.108052 183.736315 
L 352.710379 178.952279 
L 353.312707 181.782397 
L 353.915035 180.924929 
L 355.11969 176.851447 
L 355.722017 181.507486 
L 356.324345 181.2518 
L 356.926672 178.406327 
L 357.529 179.455852 
L 358.131327 178.356209 
L 358.733655 179.587227 
L 359.335982 179.584831 
L 359.93831 181.50116 
L 360.540638 180.461462 
L 361.142965 175.167343 
L 361.745293 182.483002 
L 362.34762 179.978403 
L 362.949948 178.403256 
L 363.552275 180.67434 
L 364.154603 178.71035 
L 364.75693 177.515876 
L 365.359258 176.791932 
L 365.961585 178.919174 
L 366.563913 180.264861 
L 367.768568 178.807392 
L 368.370896 179.628009 
L 368.973223 177.667581 
L 369.575551 181.279131 
L 370.177878 177.165605 
L 370.780206 180.298641 
L 371.382533 180.409379 
L 371.984861 181.133937 
L 372.587188 176.341732 
L 373.189516 180.526566 
L 373.791843 177.561388 
L 374.394171 177.347097 
L 374.996499 178.79044 
L 375.598826 179.787882 
L 376.201154 176.805813 
L 376.803481 177.303551 
L 377.405809 178.228273 
L 378.008136 176.468808 
L 378.610464 179.278106 
L 379.212791 176.210787 
L 379.815119 179.143291 
L 380.417446 178.993736 
L 381.019774 177.694728 
L 381.622102 179.193409 
L 382.224429 179.742125 
L 382.826757 177.19226 
L 383.429084 178.290491 
L 384.031412 178.734365 
L 384.633739 177.357784 
L 385.236067 178.247068 
L 385.838394 178.205671 
L 386.440722 177.281318 
L 387.043049 174.206261 
L 387.645377 178.246269 
L 388.247705 175.783988 
L 388.850032 173.93958 
L 389.45236 174.792872 
L 390.054687 180.648974 
L 390.657015 175.590211 
L 391.259342 176.209928 
L 391.86167 174.802699 
L 392.463997 173.728177 
L 393.066325 177.214617 
L 393.668652 178.296387 
L 394.27098 176.977909 
L 394.873307 173.700599 
L 396.077963 173.76122 
L 396.68029 177.321301 
L 397.282618 174.688092 
L 397.884945 178.462525 
L 398.487273 176.549082 
L 398.487273 176.549082 
" clip-path="url(#p8e0d2de766)" style="fill: none; stroke: #6495ed; stroke-width: 2; stroke-linecap: square"/>
   </g>
   <g id="line2d_24">
    <path d="M 73.832727 201.400962 
L 75.037382 204.605812 
L 75.63971 204.885618 
L 76.242037 206.406259 
L 76.844365 207.400231 
L 77.446693 206.323568 
L 78.04902 208.495117 
L 78.651348 208.69409 
L 79.253675 209.71195 
L 79.856003 209.779704 
L 80.45833 210.521773 
L 81.060658 210.576817 
L 81.662985 211.885127 
L 82.265313 211.557212 
L 83.469968 213.676475 
L 84.072295 214.10761 
L 84.674623 213.619159 
L 85.276951 215.150063 
L 85.879278 215.482324 
L 86.481606 215.25836 
L 87.083933 215.725254 
L 87.686261 216.626726 
L 88.288588 216.273905 
L 88.890916 216.774232 
L 89.493243 216.556831 
L 90.095571 217.484105 
L 90.697898 217.609151 
L 91.300226 219.121893 
L 91.902554 218.358239 
L 92.504881 219.744561 
L 93.107209 218.504158 
L 93.709536 219.423844 
L 94.311864 219.273831 
L 94.914191 220.289619 
L 95.516519 219.214915 
L 96.118846 219.512477 
L 96.721174 220.418261 
L 97.323501 221.830323 
L 97.925829 221.034316 
L 98.528157 220.46263 
L 99.130484 220.342215 
L 99.732812 221.446206 
L 100.335139 221.292361 
L 100.937467 221.81729 
L 101.539794 222.757041 
L 102.142122 222.477002 
L 102.744449 221.647811 
L 103.346777 222.958492 
L 103.949104 222.350795 
L 104.551432 222.89668 
L 105.153759 222.903685 
L 105.756087 223.258167 
L 106.358415 221.795151 
L 106.960742 223.138907 
L 107.56307 223.591339 
L 108.767725 223.974798 
L 109.370052 224.02729 
L 109.97238 223.278186 
L 110.574707 223.734166 
L 111.177035 224.02507 
L 111.779362 224.069752 
L 112.38169 224.647012 
L 112.984018 225.745568 
L 113.586345 223.077614 
L 114.791 225.038094 
L 115.393328 224.561422 
L 115.995655 224.266532 
L 116.597983 225.263234 
L 117.20031 224.368002 
L 117.802638 225.544437 
L 118.404965 225.06435 
L 119.007293 225.300226 
L 119.609621 224.92562 
L 120.211948 226.305496 
L 120.814276 224.473682 
L 121.416603 226.520833 
L 122.621258 225.348357 
L 123.223586 226.450515 
L 123.825913 227.319853 
L 124.428241 224.89375 
L 125.030568 226.762206 
L 125.632896 225.521233 
L 126.235223 226.533523 
L 126.837551 226.577885 
L 127.439879 226.241531 
L 128.042206 225.121187 
L 128.644534 227.652608 
L 129.246861 226.969329 
L 129.849189 226.651207 
L 130.451516 227.309372 
L 131.053844 227.403613 
L 131.656171 225.220885 
L 132.258499 227.16263 
L 132.860826 226.772119 
L 133.463154 226.769306 
L 134.065482 227.854725 
L 134.667809 228.367357 
L 135.270137 225.983155 
L 135.872464 228.140534 
L 136.474792 228.017092 
L 137.077119 227.286017 
L 137.679447 227.387665 
L 138.281774 227.928685 
L 138.884102 226.401865 
L 139.486429 229.268875 
L 140.088757 227.655559 
L 140.691084 228.34747 
L 141.293412 228.040713 
L 141.89574 228.630595 
L 142.498067 226.697489 
L 143.100395 229.105403 
L 143.702722 228.389305 
L 144.30505 228.108996 
L 144.907377 229.2664 
L 145.509705 229.450577 
L 146.112032 226.951991 
L 146.71436 230.163711 
L 147.316687 229.783841 
L 147.919015 228.785045 
L 148.521343 228.530676 
L 149.12367 229.778323 
L 149.725998 227.194451 
L 150.328325 229.808363 
L 150.930653 229.25407 
L 151.53298 229.196926 
L 152.135308 229.483752 
L 152.737635 230.428668 
L 153.339963 227.648096 
L 153.94229 230.334234 
L 154.544618 229.469214 
L 155.146946 229.443249 
L 155.749273 229.553901 
L 156.351601 229.875236 
L 156.953928 228.676349 
L 157.556256 230.612013 
L 158.158583 229.940871 
L 158.760911 230.316229 
L 159.363238 229.978465 
L 159.965566 230.710458 
L 160.567893 228.16364 
L 161.170221 231.59371 
L 161.772548 230.132547 
L 162.374876 231.233274 
L 162.977204 229.632631 
L 163.579531 231.68535 
L 164.181859 228.287123 
L 164.784186 231.874173 
L 165.386514 230.852581 
L 166.591169 229.868507 
L 167.193496 230.96869 
L 167.795824 229.264499 
L 168.398151 231.82701 
L 169.000479 230.944789 
L 169.602807 230.628117 
L 170.807462 231.577105 
L 171.409789 228.771459 
L 172.012117 232.140562 
L 172.614444 230.910054 
L 173.216772 230.970051 
L 173.819099 231.798275 
L 174.421427 231.471097 
L 175.023754 230.043072 
L 175.626082 232.371021 
L 176.22841 231.884307 
L 177.433065 231.391421 
L 178.035392 231.918637 
L 178.63772 229.611976 
L 179.240047 232.718728 
L 179.842375 231.718651 
L 180.444702 232.680461 
L 181.04703 232.159135 
L 181.649357 232.241378 
L 182.251685 230.065416 
L 182.854012 232.796847 
L 183.45634 231.843362 
L 184.058668 232.654779 
L 185.263323 233.4576 
L 185.86565 231.066236 
L 186.467978 233.976285 
L 187.070305 233.015513 
L 187.672633 233.375827 
L 188.27496 233.070188 
L 188.877288 233.277937 
L 189.479615 230.817272 
L 190.081943 233.957786 
L 190.684271 233.608804 
L 191.286598 232.850926 
L 191.888926 233.564997 
L 192.491253 233.123414 
L 193.093581 231.035124 
L 193.695908 234.288056 
L 194.298236 233.50406 
L 194.900563 232.974034 
L 195.502891 234.281705 
L 196.105218 234.528053 
L 196.707546 231.898351 
L 197.309874 235.235067 
L 197.912201 233.899604 
L 198.514529 233.444468 
L 199.719184 235.294478 
L 200.321511 231.680169 
L 200.923839 235.401632 
L 202.730821 234.367566 
L 203.333149 234.87468 
L 203.935476 232.601375 
L 204.537804 235.598052 
L 205.140132 234.596892 
L 205.742459 234.642363 
L 206.344787 234.342271 
L 206.947114 236.777948 
L 207.549442 232.780144 
L 208.151769 236.528216 
L 208.754097 235.869742 
L 209.356424 234.996473 
L 209.958752 235.805101 
L 210.561079 235.242548 
L 211.163407 233.499159 
L 211.765735 236.995073 
L 212.368062 236.209422 
L 212.97039 235.654128 
L 213.572717 235.658888 
L 214.175045 236.292098 
L 214.777372 234.528852 
L 215.3797 237.300454 
L 215.982027 235.887651 
L 216.584355 236.897236 
L 217.186682 236.590455 
L 217.78901 238.046508 
L 218.391337 233.359474 
L 218.993665 237.746278 
L 219.595993 236.725365 
L 220.19832 237.234723 
L 220.800648 236.593885 
L 221.402975 237.375894 
L 222.005303 234.895495 
L 222.60763 238.140559 
L 223.209958 236.334357 
L 223.812285 236.974145 
L 224.414613 236.430658 
L 225.01694 237.430671 
L 225.619268 235.031559 
L 226.221596 238.105627 
L 226.823923 236.79283 
L 227.426251 237.647114 
L 228.028578 237.099123 
L 228.630906 238.95313 
L 229.233233 235.262795 
L 229.835561 238.516823 
L 230.437888 237.674153 
L 231.040216 237.802451 
L 231.642543 238.158281 
L 232.244871 239.541363 
L 232.847199 236.200052 
L 233.449526 239.185987 
L 234.051854 238.574462 
L 234.654181 238.980535 
L 235.256509 238.158856 
L 235.858836 238.545834 
L 236.461164 236.30877 
L 237.063491 239.939363 
L 237.665819 238.681831 
L 238.268146 239.370634 
L 238.870474 239.279713 
L 239.472801 240.432787 
L 240.075129 236.100176 
L 240.677457 240.305232 
L 241.279784 239.336811 
L 241.882112 239.689407 
L 242.484439 239.459596 
L 243.086767 240.183601 
L 243.689094 236.708477 
L 244.291422 240.614384 
L 244.893749 238.58057 
L 245.496077 240.569864 
L 246.098404 239.636071 
L 246.700732 241.208559 
L 247.30306 237.573835 
L 247.905387 241.119495 
L 248.507715 238.961885 
L 249.110042 240.703782 
L 249.71237 240.57147 
L 250.314697 241.630337 
L 250.917025 238.014408 
L 251.519352 241.266425 
L 252.12168 240.15806 
L 252.724007 239.90327 
L 253.326335 240.826377 
L 253.928663 240.779054 
L 254.53099 239.081836 
L 255.133318 241.927156 
L 255.735645 241.161884 
L 256.337973 241.814588 
L 256.9403 240.290252 
L 257.542628 242.236145 
L 258.144955 239.611466 
L 258.747283 242.380221 
L 259.34961 241.597405 
L 259.951938 241.448955 
L 260.554265 240.695589 
L 261.156593 242.706555 
L 261.758921 239.672855 
L 262.361248 242.724609 
L 262.963576 241.493926 
L 263.565903 241.479781 
L 264.168231 240.636249 
L 264.770558 242.341337 
L 265.372886 239.343729 
L 265.975213 244.417779 
L 266.577541 242.835172 
L 267.179868 241.629339 
L 268.384524 242.883054 
L 268.986851 239.872902 
L 269.589179 244.2872 
L 270.191506 242.66234 
L 270.793834 243.731359 
L 271.396161 242.608595 
L 271.998489 243.463938 
L 272.600816 240.758171 
L 273.203144 243.416502 
L 273.805471 242.804877 
L 274.407799 241.978693 
L 275.010126 242.585861 
L 275.612454 243.468529 
L 276.214782 240.045255 
L 276.817109 244.845902 
L 277.419437 244.30377 
L 278.021764 244.002778 
L 278.624092 244.302078 
L 279.226419 243.922215 
L 279.828747 240.742709 
L 280.431074 244.360036 
L 281.033402 243.746041 
L 281.635729 244.04372 
L 282.238057 243.712783 
L 282.840385 246.177291 
L 283.442712 241.662552 
L 284.04504 245.632813 
L 284.647367 244.016441 
L 285.249695 243.842721 
L 286.45435 245.068754 
L 287.056677 242.351281 
L 287.659005 246.649307 
L 288.261332 244.937324 
L 288.86366 244.978886 
L 289.465988 243.7019 
L 290.068315 245.858247 
L 290.670643 241.720629 
L 291.27297 245.15693 
L 291.875298 245.482241 
L 292.477625 245.370711 
L 293.079953 244.064737 
L 293.68228 245.081984 
L 294.284608 241.495388 
L 294.886935 246.770277 
L 295.489263 245.97763 
L 296.09159 245.82728 
L 296.693918 245.807961 
L 297.296246 246.884661 
L 297.898573 242.19575 
L 298.500901 247.796236 
L 299.103228 245.478406 
L 299.705556 245.693015 
L 300.307883 245.332619 
L 300.910211 246.991155 
L 301.512538 241.490711 
L 302.114866 248.654957 
L 302.717193 245.113526 
L 303.319521 246.444533 
L 303.921849 245.405673 
L 304.524176 246.686784 
L 305.126504 243.404291 
L 305.728831 248.852069 
L 306.331159 247.071444 
L 307.535814 246.313686 
L 308.138141 248.279777 
L 308.740469 244.881544 
L 309.342796 247.531272 
L 309.945124 246.877616 
L 310.547452 247.617353 
L 311.149779 246.441026 
L 311.752107 248.580905 
L 312.354434 244.15108 
L 312.956762 249.17605 
L 313.559089 246.27791 
L 314.161417 246.741377 
L 314.763744 247.681438 
L 315.366072 247.432068 
L 315.968399 244.31634 
L 316.570727 250.95247 
L 317.173054 248.490395 
L 317.775382 247.320255 
L 318.37771 246.845509 
L 318.980037 248.536305 
L 319.582365 245.376966 
L 320.184692 250.602859 
L 320.78702 248.029885 
L 321.389347 247.756759 
L 321.991675 247.656268 
L 322.594002 249.889224 
L 323.19633 245.569987 
L 323.798657 249.932131 
L 324.400985 248.368134 
L 325.003313 248.85042 
L 325.60564 249.10294 
L 326.207968 249.768094 
L 326.810295 246.919464 
L 327.412623 251.424216 
L 328.01495 248.731448 
L 328.617278 249.367192 
L 329.219605 248.441158 
L 329.821933 250.976611 
L 330.42426 245.951017 
L 331.026588 251.470283 
L 331.628916 250.681896 
L 332.231243 248.481851 
L 332.833571 250.369476 
L 333.435898 250.38792 
L 334.038226 246.029007 
L 334.640553 250.497731 
L 335.242881 250.031897 
L 335.845208 248.797688 
L 336.447536 248.903381 
L 337.049863 251.194998 
L 337.652191 246.354797 
L 338.254518 251.851823 
L 338.856846 250.151443 
L 339.459174 250.913196 
L 340.061501 250.386302 
L 340.663829 251.117874 
L 341.266156 247.128493 
L 341.868484 252.671421 
L 342.470811 250.163837 
L 343.073139 251.322009 
L 343.675466 249.773265 
L 344.277794 252.294619 
L 344.880121 247.070176 
L 345.482449 253.526064 
L 346.084777 251.864156 
L 347.289432 251.393989 
L 347.891759 252.213374 
L 348.494087 246.847797 
L 349.096414 254.463681 
L 349.698742 250.9609 
L 350.301069 250.141953 
L 350.903397 249.951076 
L 351.505724 252.139742 
L 352.108052 247.281027 
L 352.710379 254.274032 
L 353.312707 251.328129 
L 353.915035 251.837101 
L 354.517362 252.532829 
L 355.11969 254.318784 
L 355.722017 248.382595 
L 356.324345 253.501601 
L 357.529 252.703073 
L 358.131327 253.04942 
L 358.733655 253.15483 
L 359.335982 249.520428 
L 359.93831 253.59297 
L 360.540638 252.289924 
L 361.142965 254.905356 
L 361.745293 251.404617 
L 362.34762 253.134795 
L 362.949948 250.279875 
L 363.552275 254.246593 
L 364.154603 253.335039 
L 364.75693 254.173163 
L 365.359258 254.17176 
L 365.961585 254.055027 
L 366.563913 249.689164 
L 367.166241 255.124271 
L 367.768568 253.621957 
L 368.370896 253.437022 
L 368.973223 254.140403 
L 369.575551 253.161306 
L 370.177878 251.289979 
L 370.780206 254.790324 
L 371.382533 252.989684 
L 371.984861 252.822671 
L 372.587188 254.789385 
L 373.189516 253.74773 
L 373.791843 251.275493 
L 374.394171 256.334032 
L 374.996499 254.05737 
L 375.598826 253.676279 
L 376.201154 254.743336 
L 376.803481 255.381364 
L 377.405809 251.118304 
L 378.008136 257.200301 
L 378.610464 253.982347 
L 379.212791 255.521451 
L 379.815119 253.768048 
L 380.417446 254.772132 
L 381.019774 251.3772 
L 381.622102 255.964376 
L 382.224429 253.688252 
L 382.826757 255.126279 
L 383.429084 254.095487 
L 384.031412 254.8611 
L 384.633739 251.646021 
L 385.236067 256.4443 
L 385.838394 254.522716 
L 386.440722 255.13329 
L 387.043049 256.214378 
L 387.645377 255.218033 
L 388.247705 252.452389 
L 388.850032 258.536877 
L 390.054687 253.783885 
L 390.657015 255.802141 
L 391.259342 256.389686 
L 391.86167 253.046472 
L 392.463997 258.99071 
L 393.066325 255.537107 
L 393.668652 255.129605 
L 394.27098 255.411809 
L 394.873307 257.656152 
L 395.475635 253.709556 
L 396.077963 259.079785 
L 396.68029 255.582164 
L 397.282618 256.98212 
L 397.884945 254.994385 
L 398.487273 256.502368 
L 398.487273 256.502368 
" clip-path="url(#p8e0d2de766)" style="fill: none; stroke: #dc143c; stroke-width: 2; stroke-linecap: square"/>
   </g>
   <g id="line2d_25">
    <path d="M 73.832727 295.488 
L 76.844365 295.488 
L 77.446693 286.402707 
L 80.45833 286.402707 
L 81.060658 277.551675 
L 84.072295 277.551675 
L 84.674623 270.338923 
L 87.686261 270.338923 
L 88.288588 262.676146 
L 91.300226 262.676146 
L 91.902554 253.871349 
L 94.914191 253.871349 
L 95.516519 244.742903 
L 98.528157 244.742903 
L 99.130484 236.606981 
L 102.142122 236.606981 
L 102.744449 228.4726 
L 105.756087 228.4726 
L 106.358415 220.389078 
L 109.370052 220.389078 
L 109.97238 213.239515 
L 112.984018 213.239515 
L 113.586345 205.433407 
L 116.597983 205.433407 
L 117.20031 197.037025 
L 120.211948 197.037025 
L 120.814276 189.343423 
L 123.825913 189.343423 
L 124.428241 182.76564 
L 127.439879 182.76564 
L 128.042206 175.737831 
L 131.053844 175.737831 
L 131.656171 169.600828 
L 134.667809 169.600828 
L 135.270137 163.231105 
L 138.281774 163.231105 
L 138.884102 157.514845 
L 141.89574 157.514845 
L 142.498067 151.086558 
L 145.509705 151.086558 
L 146.112032 145.713983 
L 149.12367 145.713983 
L 149.725998 139.923746 
L 152.737635 139.923746 
L 153.339963 134.856326 
L 156.351601 134.856326 
L 156.953928 130.605734 
L 159.965566 130.605734 
L 160.567893 126.02687 
L 163.579531 126.02687 
L 164.181859 122.055233 
L 167.193496 122.055233 
L 167.795824 117.610452 
L 170.807462 117.610452 
L 171.409789 113.715874 
L 174.421427 113.715874 
L 175.023754 110.191181 
L 178.035392 110.191181 
L 178.63772 106.426064 
L 181.649357 106.426064 
L 182.251685 103.413045 
L 185.263323 103.413045 
L 185.86565 99.569326 
L 188.877288 99.569326 
L 189.479615 96.468459 
L 192.491253 96.468459 
L 193.093581 94.101197 
L 196.105218 94.101197 
L 196.707546 91.120543 
L 199.719184 91.120543 
L 200.321511 88.925894 
L 203.333149 88.925894 
L 203.935476 85.972981 
L 206.947114 85.972981 
L 207.549442 83.776791 
L 210.561079 83.776791 
L 211.163407 82.08611 
L 214.175045 82.08611 
L 214.777372 79.39674 
L 217.78901 79.39674 
L 218.391337 77.212879 
L 221.402975 77.212879 
L 222.005303 75.611586 
L 225.01694 75.611586 
L 225.619268 74.269213 
L 228.630906 74.269213 
L 229.233233 72.578532 
L 232.244871 72.578532 
L 232.847199 70.998816 
L 235.858836 70.998816 
L 236.461164 69.855256 
L 239.472801 69.855256 
L 240.075129 68.576071 
L 243.086767 68.576071 
L 243.689094 67.303052 
L 246.700732 67.303052 
L 247.30306 66.091679 
L 250.314697 66.091679 
L 250.917025 64.830989 
L 253.928663 64.830989 
L 254.53099 63.826135 
L 257.542628 63.826135 
L 258.144955 62.902965 
L 261.156593 62.902965 
L 261.758921 62.024489 
L 264.770558 62.024489 
L 265.372886 60.897882 
L 268.384524 60.897882 
L 268.986851 60.188936 
L 271.998489 60.188936 
L 272.600816 59.516979 
L 275.612454 59.516979 
L 276.214782 58.547573 
L 279.226419 58.547573 
L 279.828747 57.88178 
L 282.840385 57.88178 
L 283.442712 57.319247 
L 290.068315 57.214447 
L 290.670643 57.029504 
L 293.68228 57.029504 
L 294.284608 56.500877 
L 297.296246 56.500877 
L 297.898573 56.110957 
L 300.910211 56.110957 
L 301.512538 55.956839 
L 304.524176 55.956839 
L 305.126504 55.67326 
L 308.138141 55.67326 
L 308.740469 55.158504 
L 311.752107 55.158504 
L 312.354434 54.733137 
L 315.366072 54.733137 
L 315.968399 54.486547 
L 326.207968 54.440311 
L 326.810295 54.215298 
L 329.821933 54.215298 
L 330.42426 53.990285 
L 347.891759 53.944049 
L 348.494087 53.825378 
L 355.11969 53.715954 
L 369.575551 53.589577 
L 372.587188 53.617318 
L 373.189516 53.617318 
L 373.791843 53.819213 
L 376.803481 53.819213 
L 377.405809 53.968708 
L 380.417446 53.968708 
L 381.019774 54.112039 
L 384.031412 54.112039 
L 384.633739 54.232251 
L 391.259342 54.310852 
L 392.463997 54.375582 
L 394.873307 54.375582 
L 395.475635 54.665325 
L 398.487273 54.665325 
L 398.487273 54.665325 
" clip-path="url(#p8e0d2de766)" style="fill: none; stroke: #ffff00; stroke-width: 3; stroke-linecap: square"/>
   </g>
   <g id="patch_3">
    <path d="M 57.6 307.584 
L 57.6 41.472 
" style="fill: none; stroke: #ffffff; stroke-linejoin: miter; stroke-linecap: square"/>
   </g>
   <g id="patch_4">
    <path d="M 414.72 307.584 
L 414.72 41.472 
" style="fill: none; stroke: #ffffff; stroke-linejoin: miter; stroke-linecap: square"/>
   </g>
   <g id="patch_5">
    <path d="M 57.6 307.584 
L 414.72 307.584 
" style="fill: none; stroke: #ffffff; stroke-linejoin: miter; stroke-linecap: square"/>
   </g>
   <g id="patch_6">
    <path d="M 57.6 41.472 
L 414.72 41.472 
" style="fill: none; stroke: #ffffff; stroke-linejoin: miter; stroke-linecap: square"/>
   </g>
   <g id="legend_1">
    <g id="patch_7">
     <path d="M 243.124687 302.584 
L 407.72 302.584 
Q 409.72 302.584 409.72 300.584 
L 409.72 257.549625 
Q 409.72 255.549625 407.72 255.549625 
L 243.124687 255.549625 
Q 241.124687 255.549625 241.124687 257.549625 
L 241.124687 300.584 
Q 241.124687 302.584 243.124687 302.584 
z
" style="fill: #e5e5e5; opacity: 0.8; stroke: #cccccc; stroke-width: 0.5; stroke-linejoin: miter"/>
    </g>
    <g id="line2d_26">
     <path d="M 245.124687 263.648062 
L 255.124687 263.648062 
L 265.124687 263.648062 
" style="fill: none; stroke: #6495ed; stroke-width: 2; stroke-linecap: square"/>
    </g>
    <g id="text_14">
     <!-- Generator loss -->
     <g transform="translate(273.124687 267.148062) scale(0.1 -0.1)">
      <defs>
       <path id="DejaVuSans-47" d="M 3809 666 
L 3809 1919 
L 2778 1919 
L 2778 2438 
L 4434 2438 
L 4434 434 
Q 4069 175 3628 42 
Q 3188 -91 2688 -91 
Q 1594 -91 976 548 
Q 359 1188 359 2328 
Q 359 3472 976 4111 
Q 1594 4750 2688 4750 
Q 3144 4750 3555 4637 
Q 3966 4525 4313 4306 
L 4313 3634 
Q 3963 3931 3569 4081 
Q 3175 4231 2741 4231 
Q 1884 4231 1454 3753 
Q 1025 3275 1025 2328 
Q 1025 1384 1454 906 
Q 1884 428 2741 428 
Q 3075 428 3337 486 
Q 3600 544 3809 666 
z
" transform="scale(0.015625)"/>
       <path id="DejaVuSans-65" d="M 3597 1894 
L 3597 1613 
L 953 1613 
Q 991 1019 1311 708 
Q 1631 397 2203 397 
Q 2534 397 2845 478 
Q 3156 559 3463 722 
L 3463 178 
Q 3153 47 2828 -22 
Q 2503 -91 2169 -91 
Q 1331 -91 842 396 
Q 353 884 353 1716 
Q 353 2575 817 3079 
Q 1281 3584 2069 3584 
Q 2775 3584 3186 3129 
Q 3597 2675 3597 1894 
z
M 3022 2063 
Q 3016 2534 2758 2815 
Q 2500 3097 2075 3097 
Q 1594 3097 1305 2825 
Q 1016 2553 972 2059 
L 3022 2063 
z
" transform="scale(0.015625)"/>
       <path id="DejaVuSans-6e" d="M 3513 2113 
L 3513 0 
L 2938 0 
L 2938 2094 
Q 2938 2591 2744 2837 
Q 2550 3084 2163 3084 
Q 1697 3084 1428 2787 
Q 1159 2491 1159 1978 
L 1159 0 
L 581 0 
L 581 3500 
L 1159 3500 
L 1159 2956 
Q 1366 3272 1645 3428 
Q 1925 3584 2291 3584 
Q 2894 3584 3203 3211 
Q 3513 2838 3513 2113 
z
" transform="scale(0.015625)"/>
       <path id="DejaVuSans-72" d="M 2631 2963 
Q 2534 3019 2420 3045 
Q 2306 3072 2169 3072 
Q 1681 3072 1420 2755 
Q 1159 2438 1159 1844 
L 1159 0 
L 581 0 
L 581 3500 
L 1159 3500 
L 1159 2956 
Q 1341 3275 1631 3429 
Q 1922 3584 2338 3584 
Q 2397 3584 2469 3576 
Q 2541 3569 2628 3553 
L 2631 2963 
z
" transform="scale(0.015625)"/>
       <path id="DejaVuSans-61" d="M 2194 1759 
Q 1497 1759 1228 1600 
Q 959 1441 959 1056 
Q 959 750 1161 570 
Q 1363 391 1709 391 
Q 2188 391 2477 730 
Q 2766 1069 2766 1631 
L 2766 1759 
L 2194 1759 
z
M 3341 1997 
L 3341 0 
L 2766 0 
L 2766 531 
Q 2569 213 2275 61 
Q 1981 -91 1556 -91 
Q 1019 -91 701 211 
Q 384 513 384 1019 
Q 384 1609 779 1909 
Q 1175 2209 1959 2209 
L 2766 2209 
L 2766 2266 
Q 2766 2663 2505 2880 
Q 2244 3097 1772 3097 
Q 1472 3097 1187 3025 
Q 903 2953 641 2809 
L 641 3341 
Q 956 3463 1253 3523 
Q 1550 3584 1831 3584 
Q 2591 3584 2966 3190 
Q 3341 2797 3341 1997 
z
" transform="scale(0.015625)"/>
       <path id="DejaVuSans-74" d="M 1172 4494 
L 1172 3500 
L 2356 3500 
L 2356 3053 
L 1172 3053 
L 1172 1153 
Q 1172 725 1289 603 
Q 1406 481 1766 481 
L 2356 481 
L 2356 0 
L 1766 0 
Q 1100 0 847 248 
Q 594 497 594 1153 
L 594 3053 
L 172 3053 
L 172 3500 
L 594 3500 
L 594 4494 
L 1172 4494 
z
" transform="scale(0.015625)"/>
       <path id="DejaVuSans-20" transform="scale(0.015625)"/>
       <path id="DejaVuSans-6c" d="M 603 4863 
L 1178 4863 
L 1178 0 
L 603 0 
L 603 4863 
z
" transform="scale(0.015625)"/>
      </defs>
      <use xlink:href="#DejaVuSans-47"/>
      <use xlink:href="#DejaVuSans-65" x="77.490234"/>
      <use xlink:href="#DejaVuSans-6e" x="139.013672"/>
      <use xlink:href="#DejaVuSans-65" x="202.392578"/>
      <use xlink:href="#DejaVuSans-72" x="263.916016"/>
      <use xlink:href="#DejaVuSans-61" x="305.029297"/>
      <use xlink:href="#DejaVuSans-74" x="366.308594"/>
      <use xlink:href="#DejaVuSans-6f" x="405.517578"/>
      <use xlink:href="#DejaVuSans-72" x="466.699219"/>
      <use xlink:href="#DejaVuSans-20" x="507.8125"/>
      <use xlink:href="#DejaVuSans-6c" x="539.599609"/>
      <use xlink:href="#DejaVuSans-6f" x="567.382812"/>
      <use xlink:href="#DejaVuSans-73" x="628.564453"/>
      <use xlink:href="#DejaVuSans-73" x="680.664062"/>
     </g>
    </g>
    <g id="line2d_27">
     <path d="M 245.124687 278.326188 
L 255.124687 278.326188 
L 265.124687 278.326188 
" style="fill: none; stroke: #dc143c; stroke-width: 2; stroke-linecap: square"/>
    </g>
    <g id="text_15">
     <!-- Average discriminator loss -->
     <g transform="translate(273.124687 281.826188) scale(0.1 -0.1)">
      <defs>
       <path id="DejaVuSans-41" d="M 2188 4044 
L 1331 1722 
L 3047 1722 
L 2188 4044 
z
M 1831 4666 
L 2547 4666 
L 4325 0 
L 3669 0 
L 3244 1197 
L 1141 1197 
L 716 0 
L 50 0 
L 1831 4666 
z
" transform="scale(0.015625)"/>
       <path id="DejaVuSans-76" d="M 191 3500 
L 800 3500 
L 1894 563 
L 2988 3500 
L 3597 3500 
L 2284 0 
L 1503 0 
L 191 3500 
z
" transform="scale(0.015625)"/>
       <path id="DejaVuSans-67" d="M 2906 1791 
Q 2906 2416 2648 2759 
Q 2391 3103 1925 3103 
Q 1463 3103 1205 2759 
Q 947 2416 947 1791 
Q 947 1169 1205 825 
Q 1463 481 1925 481 
Q 2391 481 2648 825 
Q 2906 1169 2906 1791 
z
M 3481 434 
Q 3481 -459 3084 -895 
Q 2688 -1331 1869 -1331 
Q 1566 -1331 1297 -1286 
Q 1028 -1241 775 -1147 
L 775 -588 
Q 1028 -725 1275 -790 
Q 1522 -856 1778 -856 
Q 2344 -856 2625 -561 
Q 2906 -266 2906 331 
L 2906 616 
Q 2728 306 2450 153 
Q 2172 0 1784 0 
Q 1141 0 747 490 
Q 353 981 353 1791 
Q 353 2603 747 3093 
Q 1141 3584 1784 3584 
Q 2172 3584 2450 3431 
Q 2728 3278 2906 2969 
L 2906 3500 
L 3481 3500 
L 3481 434 
z
" transform="scale(0.015625)"/>
       <path id="DejaVuSans-64" d="M 2906 2969 
L 2906 4863 
L 3481 4863 
L 3481 0 
L 2906 0 
L 2906 525 
Q 2725 213 2448 61 
Q 2172 -91 1784 -91 
Q 1150 -91 751 415 
Q 353 922 353 1747 
Q 353 2572 751 3078 
Q 1150 3584 1784 3584 
Q 2172 3584 2448 3432 
Q 2725 3281 2906 2969 
z
M 947 1747 
Q 947 1113 1208 752 
Q 1469 391 1925 391 
Q 2381 391 2643 752 
Q 2906 1113 2906 1747 
Q 2906 2381 2643 2742 
Q 2381 3103 1925 3103 
Q 1469 3103 1208 2742 
Q 947 2381 947 1747 
z
" transform="scale(0.015625)"/>
       <path id="DejaVuSans-69" d="M 603 3500 
L 1178 3500 
L 1178 0 
L 603 0 
L 603 3500 
z
M 603 4863 
L 1178 4863 
L 1178 4134 
L 603 4134 
L 603 4863 
z
" transform="scale(0.015625)"/>
       <path id="DejaVuSans-6d" d="M 3328 2828 
Q 3544 3216 3844 3400 
Q 4144 3584 4550 3584 
Q 5097 3584 5394 3201 
Q 5691 2819 5691 2113 
L 5691 0 
L 5113 0 
L 5113 2094 
Q 5113 2597 4934 2840 
Q 4756 3084 4391 3084 
Q 3944 3084 3684 2787 
Q 3425 2491 3425 1978 
L 3425 0 
L 2847 0 
L 2847 2094 
Q 2847 2600 2669 2842 
Q 2491 3084 2119 3084 
Q 1678 3084 1418 2786 
Q 1159 2488 1159 1978 
L 1159 0 
L 581 0 
L 581 3500 
L 1159 3500 
L 1159 2956 
Q 1356 3278 1631 3431 
Q 1906 3584 2284 3584 
Q 2666 3584 2933 3390 
Q 3200 3197 3328 2828 
z
" transform="scale(0.015625)"/>
      </defs>
      <use xlink:href="#DejaVuSans-41"/>
      <use xlink:href="#DejaVuSans-76" x="62.533203"/>
      <use xlink:href="#DejaVuSans-65" x="121.712891"/>
      <use xlink:href="#DejaVuSans-72" x="183.236328"/>
      <use xlink:href="#DejaVuSans-61" x="224.349609"/>
      <use xlink:href="#DejaVuSans-67" x="285.628906"/>
      <use xlink:href="#DejaVuSans-65" x="349.105469"/>
      <use xlink:href="#DejaVuSans-20" x="410.628906"/>
      <use xlink:href="#DejaVuSans-64" x="442.416016"/>
      <use xlink:href="#DejaVuSans-69" x="505.892578"/>
      <use xlink:href="#DejaVuSans-73" x="533.675781"/>
      <use xlink:href="#DejaVuSans-63" x="585.775391"/>
      <use xlink:href="#DejaVuSans-72" x="640.755859"/>
      <use xlink:href="#DejaVuSans-69" x="681.869141"/>
      <use xlink:href="#DejaVuSans-6d" x="709.652344"/>
      <use xlink:href="#DejaVuSans-69" x="807.064453"/>
      <use xlink:href="#DejaVuSans-6e" x="834.847656"/>
      <use xlink:href="#DejaVuSans-61" x="898.226562"/>
      <use xlink:href="#DejaVuSans-74" x="959.505859"/>
      <use xlink:href="#DejaVuSans-6f" x="998.714844"/>
      <use xlink:href="#DejaVuSans-72" x="1059.896484"/>
      <use xlink:href="#DejaVuSans-20" x="1101.009766"/>
      <use xlink:href="#DejaVuSans-6c" x="1132.796875"/>
      <use xlink:href="#DejaVuSans-6f" x="1160.580078"/>
      <use xlink:href="#DejaVuSans-73" x="1221.761719"/>
      <use xlink:href="#DejaVuSans-73" x="1273.861328"/>
     </g>
    </g>
    <g id="line2d_28">
     <path d="M 245.124687 293.004312 
L 255.124687 293.004312 
L 265.124687 293.004312 
" style="fill: none; stroke: #ffff00; stroke-width: 3; stroke-linecap: square"/>
    </g>
    <g id="text_16">
     <!-- ROC AUC -->
     <g transform="translate(273.124687 296.504312) scale(0.1 -0.1)">
      <defs>
       <path id="DejaVuSans-52" d="M 2841 2188 
Q 3044 2119 3236 1894 
Q 3428 1669 3622 1275 
L 4263 0 
L 3584 0 
L 2988 1197 
Q 2756 1666 2539 1819 
Q 2322 1972 1947 1972 
L 1259 1972 
L 1259 0 
L 628 0 
L 628 4666 
L 2053 4666 
Q 2853 4666 3247 4331 
Q 3641 3997 3641 3322 
Q 3641 2881 3436 2590 
Q 3231 2300 2841 2188 
z
M 1259 4147 
L 1259 2491 
L 2053 2491 
Q 2509 2491 2742 2702 
Q 2975 2913 2975 3322 
Q 2975 3731 2742 3939 
Q 2509 4147 2053 4147 
L 1259 4147 
z
" transform="scale(0.015625)"/>
       <path id="DejaVuSans-4f" d="M 2522 4238 
Q 1834 4238 1429 3725 
Q 1025 3213 1025 2328 
Q 1025 1447 1429 934 
Q 1834 422 2522 422 
Q 3209 422 3611 934 
Q 4013 1447 4013 2328 
Q 4013 3213 3611 3725 
Q 3209 4238 2522 4238 
z
M 2522 4750 
Q 3503 4750 4090 4092 
Q 4678 3434 4678 2328 
Q 4678 1225 4090 567 
Q 3503 -91 2522 -91 
Q 1538 -91 948 565 
Q 359 1222 359 2328 
Q 359 3434 948 4092 
Q 1538 4750 2522 4750 
z
" transform="scale(0.015625)"/>
       <path id="DejaVuSans-43" d="M 4122 4306 
L 4122 3641 
Q 3803 3938 3442 4084 
Q 3081 4231 2675 4231 
Q 1875 4231 1450 3742 
Q 1025 3253 1025 2328 
Q 1025 1406 1450 917 
Q 1875 428 2675 428 
Q 3081 428 3442 575 
Q 3803 722 4122 1019 
L 4122 359 
Q 3791 134 3420 21 
Q 3050 -91 2638 -91 
Q 1578 -91 968 557 
Q 359 1206 359 2328 
Q 359 3453 968 4101 
Q 1578 4750 2638 4750 
Q 3056 4750 3426 4639 
Q 3797 4528 4122 4306 
z
" transform="scale(0.015625)"/>
       <path id="DejaVuSans-55" d="M 556 4666 
L 1191 4666 
L 1191 1831 
Q 1191 1081 1462 751 
Q 1734 422 2344 422 
Q 2950 422 3222 751 
Q 3494 1081 3494 1831 
L 3494 4666 
L 4128 4666 
L 4128 1753 
Q 4128 841 3676 375 
Q 3225 -91 2344 -91 
Q 1459 -91 1007 375 
Q 556 841 556 1753 
L 556 4666 
z
" transform="scale(0.015625)"/>
      </defs>
      <use xlink:href="#DejaVuSans-52"/>
      <use xlink:href="#DejaVuSans-4f" x="69.482422"/>
      <use xlink:href="#DejaVuSans-43" x="148.193359"/>
      <use xlink:href="#DejaVuSans-20" x="218.017578"/>
      <use xlink:href="#DejaVuSans-41" x="249.804688"/>
      <use xlink:href="#DejaVuSans-55" x="318.212891"/>
      <use xlink:href="#DejaVuSans-43" x="391.40625"/>
     </g>
    </g>
   </g>
  </g>
 </g>
 <defs>
  <clipPath id="p8e0d2de766">
   <rect x="57.6" y="41.472" width="357.12" height="266.112"/>
  </clipPath>
 </defs>
</svg>
