<?xml version="1.0" encoding="utf-8" standalone="no"?>
<!DOCTYPE svg PUBLIC "-//W3C//DTD SVG 1.1//EN"
  "http://www.w3.org/Graphics/SVG/1.1/DTD/svg11.dtd">
<svg xmlns:xlink="http://www.w3.org/1999/xlink" width="460.8pt" height="345.6pt" viewBox="0 0 460.8 345.6" xmlns="http://www.w3.org/2000/svg" version="1.1">
 <metadata>
  <rdf:RDF xmlns:dc="http://purl.org/dc/elements/1.1/" xmlns:cc="http://creativecommons.org/ns#" xmlns:rdf="http://www.w3.org/1999/02/22-rdf-syntax-ns#">
   <cc:Work>
    <dc:type rdf:resource="http://purl.org/dc/dcmitype/StillImage"/>
    <dc:date>2023-07-13T07:22:12.617305</dc:date>
    <dc:format>image/svg+xml</dc:format>
    <dc:creator>
     <cc:Agent>
      <dc:title>Matplotlib v3.7.1, https://matplotlib.org/</dc:title>
     </cc:Agent>
    </dc:creator>
   </cc:Work>
  </rdf:RDF>
 </metadata>
 <defs>
  <style type="text/css">*{stroke-linejoin: round; stroke-linecap: butt}</style>
 </defs>
 <g id="figure_1">
  <g id="patch_1">
   <path d="M 0 345.6 
L 460.8 345.6 
L 460.8 0 
L 0 0 
z
" style="fill: #ffffff"/>
  </g>
  <g id="axes_1">
   <g id="patch_2">
    <path d="M 57.6 307.584 
L 414.72 307.584 
L 414.72 41.472 
L 57.6 41.472 
z
" style="fill: #e5e5e5"/>
   </g>
   <g id="matplotlib.axis_1">
    <g id="xtick_1">
     <g id="line2d_1">
      <path d="M 73.109666 307.584 
L 73.109666 41.472 
" clip-path="url(#p4c919e0b07)" style="fill: none; stroke: #ffffff; stroke-width: 0.8; stroke-linecap: square"/>
     </g>
     <g id="line2d_2">
      <defs>
       <path id="m4b40dcf282" d="M 0 0 
L 0 3.5 
" style="stroke: #555555; stroke-width: 0.8"/>
      </defs>
      <g>
       <use xlink:href="#m4b40dcf282" x="73.109666" y="307.584" style="fill: #555555; stroke: #555555; stroke-width: 0.8"/>
      </g>
     </g>
     <g id="text_1">
      <!-- 0 -->
      <g style="fill: #555555" transform="translate(69.928416 322.182437) scale(0.1 -0.1)">
       <defs>
        <path id="DejaVuSans-30" d="M 2034 4250 
Q 1547 4250 1301 3770 
Q 1056 3291 1056 2328 
Q 1056 1369 1301 889 
Q 1547 409 2034 409 
Q 2525 409 2770 889 
Q 3016 1369 3016 2328 
Q 3016 3291 2770 3770 
Q 2525 4250 2034 4250 
z
M 2034 4750 
Q 2819 4750 3233 4129 
Q 3647 3509 3647 2328 
Q 3647 1150 3233 529 
Q 2819 -91 2034 -91 
Q 1250 -91 836 529 
Q 422 1150 422 2328 
Q 422 3509 836 4129 
Q 1250 4750 2034 4750 
z
" transform="scale(0.015625)"/>
       </defs>
       <use xlink:href="#DejaVuSans-30"/>
      </g>
     </g>
    </g>
    <g id="xtick_2">
     <g id="line2d_3">
      <path d="M 145.415801 307.584 
L 145.415801 41.472 
" clip-path="url(#p4c919e0b07)" style="fill: none; stroke: #ffffff; stroke-width: 0.8; stroke-linecap: square"/>
     </g>
     <g id="line2d_4">
      <g>
       <use xlink:href="#m4b40dcf282" x="145.415801" y="307.584" style="fill: #555555; stroke: #555555; stroke-width: 0.8"/>
      </g>
     </g>
     <g id="text_2">
      <!-- 100 -->
      <g style="fill: #555555" transform="translate(135.872051 322.182437) scale(0.1 -0.1)">
       <defs>
        <path id="DejaVuSans-31" d="M 794 531 
L 1825 531 
L 1825 4091 
L 703 3866 
L 703 4441 
L 1819 4666 
L 2450 4666 
L 2450 531 
L 3481 531 
L 3481 0 
L 794 0 
L 794 531 
z
" transform="scale(0.015625)"/>
       </defs>
       <use xlink:href="#DejaVuSans-31"/>
       <use xlink:href="#DejaVuSans-30" x="63.623047"/>
       <use xlink:href="#DejaVuSans-30" x="127.246094"/>
      </g>
     </g>
    </g>
    <g id="xtick_3">
     <g id="line2d_5">
      <path d="M 217.721936 307.584 
L 217.721936 41.472 
" clip-path="url(#p4c919e0b07)" style="fill: none; stroke: #ffffff; stroke-width: 0.8; stroke-linecap: square"/>
     </g>
     <g id="line2d_6">
      <g>
       <use xlink:href="#m4b40dcf282" x="217.721936" y="307.584" style="fill: #555555; stroke: #555555; stroke-width: 0.8"/>
      </g>
     </g>
     <g id="text_3">
      <!-- 200 -->
      <g style="fill: #555555" transform="translate(208.178186 322.182437) scale(0.1 -0.1)">
       <defs>
        <path id="DejaVuSans-32" d="M 1228 531 
L 3431 531 
L 3431 0 
L 469 0 
L 469 531 
Q 828 903 1448 1529 
Q 2069 2156 2228 2338 
Q 2531 2678 2651 2914 
Q 2772 3150 2772 3378 
Q 2772 3750 2511 3984 
Q 2250 4219 1831 4219 
Q 1534 4219 1204 4116 
Q 875 4013 500 3803 
L 500 4441 
Q 881 4594 1212 4672 
Q 1544 4750 1819 4750 
Q 2544 4750 2975 4387 
Q 3406 4025 3406 3419 
Q 3406 3131 3298 2873 
Q 3191 2616 2906 2266 
Q 2828 2175 2409 1742 
Q 1991 1309 1228 531 
z
" transform="scale(0.015625)"/>
       </defs>
       <use xlink:href="#DejaVuSans-32"/>
       <use xlink:href="#DejaVuSans-30" x="63.623047"/>
       <use xlink:href="#DejaVuSans-30" x="127.246094"/>
      </g>
     </g>
    </g>
    <g id="xtick_4">
     <g id="line2d_7">
      <path d="M 290.02807 307.584 
L 290.02807 41.472 
" clip-path="url(#p4c919e0b07)" style="fill: none; stroke: #ffffff; stroke-width: 0.8; stroke-linecap: square"/>
     </g>
     <g id="line2d_8">
      <g>
       <use xlink:href="#m4b40dcf282" x="290.02807" y="307.584" style="fill: #555555; stroke: #555555; stroke-width: 0.8"/>
      </g>
     </g>
     <g id="text_4">
      <!-- 300 -->
      <g style="fill: #555555" transform="translate(280.48432 322.182437) scale(0.1 -0.1)">
       <defs>
        <path id="DejaVuSans-33" d="M 2597 2516 
Q 3050 2419 3304 2112 
Q 3559 1806 3559 1356 
Q 3559 666 3084 287 
Q 2609 -91 1734 -91 
Q 1441 -91 1130 -33 
Q 819 25 488 141 
L 488 750 
Q 750 597 1062 519 
Q 1375 441 1716 441 
Q 2309 441 2620 675 
Q 2931 909 2931 1356 
Q 2931 1769 2642 2001 
Q 2353 2234 1838 2234 
L 1294 2234 
L 1294 2753 
L 1863 2753 
Q 2328 2753 2575 2939 
Q 2822 3125 2822 3475 
Q 2822 3834 2567 4026 
Q 2313 4219 1838 4219 
Q 1578 4219 1281 4162 
Q 984 4106 628 3988 
L 628 4550 
Q 988 4650 1302 4700 
Q 1616 4750 1894 4750 
Q 2613 4750 3031 4423 
Q 3450 4097 3450 3541 
Q 3450 3153 3228 2886 
Q 3006 2619 2597 2516 
z
" transform="scale(0.015625)"/>
       </defs>
       <use xlink:href="#DejaVuSans-33"/>
       <use xlink:href="#DejaVuSans-30" x="63.623047"/>
       <use xlink:href="#DejaVuSans-30" x="127.246094"/>
      </g>
     </g>
    </g>
    <g id="xtick_5">
     <g id="line2d_9">
      <path d="M 362.334205 307.584 
L 362.334205 41.472 
" clip-path="url(#p4c919e0b07)" style="fill: none; stroke: #ffffff; stroke-width: 0.8; stroke-linecap: square"/>
     </g>
     <g id="line2d_10">
      <g>
       <use xlink:href="#m4b40dcf282" x="362.334205" y="307.584" style="fill: #555555; stroke: #555555; stroke-width: 0.8"/>
      </g>
     </g>
     <g id="text_5">
      <!-- 400 -->
      <g style="fill: #555555" transform="translate(352.790455 322.182437) scale(0.1 -0.1)">
       <defs>
        <path id="DejaVuSans-34" d="M 2419 4116 
L 825 1625 
L 2419 1625 
L 2419 4116 
z
M 2253 4666 
L 3047 4666 
L 3047 1625 
L 3713 1625 
L 3713 1100 
L 3047 1100 
L 3047 0 
L 2419 0 
L 2419 1100 
L 313 1100 
L 313 1709 
L 2253 4666 
z
" transform="scale(0.015625)"/>
       </defs>
       <use xlink:href="#DejaVuSans-34"/>
       <use xlink:href="#DejaVuSans-30" x="63.623047"/>
       <use xlink:href="#DejaVuSans-30" x="127.246094"/>
      </g>
     </g>
    </g>
    <g id="text_6">
     <!-- Epoch -->
     <g style="fill: #555555" transform="translate(217.786875 337.38025) scale(0.12 -0.12)">
      <defs>
       <path id="DejaVuSans-45" d="M 628 4666 
L 3578 4666 
L 3578 4134 
L 1259 4134 
L 1259 2753 
L 3481 2753 
L 3481 2222 
L 1259 2222 
L 1259 531 
L 3634 531 
L 3634 0 
L 628 0 
L 628 4666 
z
" transform="scale(0.015625)"/>
       <path id="DejaVuSans-70" d="M 1159 525 
L 1159 -1331 
L 581 -1331 
L 581 3500 
L 1159 3500 
L 1159 2969 
Q 1341 3281 1617 3432 
Q 1894 3584 2278 3584 
Q 2916 3584 3314 3078 
Q 3713 2572 3713 1747 
Q 3713 922 3314 415 
Q 2916 -91 2278 -91 
Q 1894 -91 1617 61 
Q 1341 213 1159 525 
z
M 3116 1747 
Q 3116 2381 2855 2742 
Q 2594 3103 2138 3103 
Q 1681 3103 1420 2742 
Q 1159 2381 1159 1747 
Q 1159 1113 1420 752 
Q 1681 391 2138 391 
Q 2594 391 2855 752 
Q 3116 1113 3116 1747 
z
" transform="scale(0.015625)"/>
       <path id="DejaVuSans-6f" d="M 1959 3097 
Q 1497 3097 1228 2736 
Q 959 2375 959 1747 
Q 959 1119 1226 758 
Q 1494 397 1959 397 
Q 2419 397 2687 759 
Q 2956 1122 2956 1747 
Q 2956 2369 2687 2733 
Q 2419 3097 1959 3097 
z
M 1959 3584 
Q 2709 3584 3137 3096 
Q 3566 2609 3566 1747 
Q 3566 888 3137 398 
Q 2709 -91 1959 -91 
Q 1206 -91 779 398 
Q 353 888 353 1747 
Q 353 2609 779 3096 
Q 1206 3584 1959 3584 
z
" transform="scale(0.015625)"/>
       <path id="DejaVuSans-63" d="M 3122 3366 
L 3122 2828 
Q 2878 2963 2633 3030 
Q 2388 3097 2138 3097 
Q 1578 3097 1268 2742 
Q 959 2388 959 1747 
Q 959 1106 1268 751 
Q 1578 397 2138 397 
Q 2388 397 2633 464 
Q 2878 531 3122 666 
L 3122 134 
Q 2881 22 2623 -34 
Q 2366 -91 2075 -91 
Q 1284 -91 818 406 
Q 353 903 353 1747 
Q 353 2603 823 3093 
Q 1294 3584 2113 3584 
Q 2378 3584 2631 3529 
Q 2884 3475 3122 3366 
z
" transform="scale(0.015625)"/>
       <path id="DejaVuSans-68" d="M 3513 2113 
L 3513 0 
L 2938 0 
L 2938 2094 
Q 2938 2591 2744 2837 
Q 2550 3084 2163 3084 
Q 1697 3084 1428 2787 
Q 1159 2491 1159 1978 
L 1159 0 
L 581 0 
L 581 4863 
L 1159 4863 
L 1159 2956 
Q 1366 3272 1645 3428 
Q 1925 3584 2291 3584 
Q 2894 3584 3203 3211 
Q 3513 2838 3513 2113 
z
" transform="scale(0.015625)"/>
      </defs>
      <use xlink:href="#DejaVuSans-45"/>
      <use xlink:href="#DejaVuSans-70" x="63.183594"/>
      <use xlink:href="#DejaVuSans-6f" x="126.660156"/>
      <use xlink:href="#DejaVuSans-63" x="187.841797"/>
      <use xlink:href="#DejaVuSans-68" x="242.822266"/>
     </g>
    </g>
   </g>
   <g id="matplotlib.axis_2">
    <g id="ytick_1">
     <g id="line2d_11">
      <path d="M 57.6 289.813523 
L 414.72 289.813523 
" clip-path="url(#p4c919e0b07)" style="fill: none; stroke: #ffffff; stroke-width: 0.8; stroke-linecap: square"/>
     </g>
     <g id="line2d_12">
      <defs>
       <path id="m8dafa72c5e" d="M 0 0 
L -3.5 0 
" style="stroke: #555555; stroke-width: 0.8"/>
      </defs>
      <g>
       <use xlink:href="#m8dafa72c5e" x="57.6" y="289.813523" style="fill: #555555; stroke: #555555; stroke-width: 0.8"/>
      </g>
     </g>
     <g id="text_7">
      <!-- 0.4 -->
      <g style="fill: #555555" transform="translate(34.696875 293.612741) scale(0.1 -0.1)">
       <defs>
        <path id="DejaVuSans-2e" d="M 684 794 
L 1344 794 
L 1344 0 
L 684 0 
L 684 794 
z
" transform="scale(0.015625)"/>
       </defs>
       <use xlink:href="#DejaVuSans-30"/>
       <use xlink:href="#DejaVuSans-2e" x="63.623047"/>
       <use xlink:href="#DejaVuSans-34" x="95.410156"/>
      </g>
     </g>
    </g>
    <g id="ytick_2">
     <g id="line2d_13">
      <path d="M 57.6 250.57102 
L 414.72 250.57102 
" clip-path="url(#p4c919e0b07)" style="fill: none; stroke: #ffffff; stroke-width: 0.8; stroke-linecap: square"/>
     </g>
     <g id="line2d_14">
      <g>
       <use xlink:href="#m8dafa72c5e" x="57.6" y="250.57102" style="fill: #555555; stroke: #555555; stroke-width: 0.8"/>
      </g>
     </g>
     <g id="text_8">
      <!-- 0.6 -->
      <g style="fill: #555555" transform="translate(34.696875 254.370239) scale(0.1 -0.1)">
       <defs>
        <path id="DejaVuSans-36" d="M 2113 2584 
Q 1688 2584 1439 2293 
Q 1191 2003 1191 1497 
Q 1191 994 1439 701 
Q 1688 409 2113 409 
Q 2538 409 2786 701 
Q 3034 994 3034 1497 
Q 3034 2003 2786 2293 
Q 2538 2584 2113 2584 
z
M 3366 4563 
L 3366 3988 
Q 3128 4100 2886 4159 
Q 2644 4219 2406 4219 
Q 1781 4219 1451 3797 
Q 1122 3375 1075 2522 
Q 1259 2794 1537 2939 
Q 1816 3084 2150 3084 
Q 2853 3084 3261 2657 
Q 3669 2231 3669 1497 
Q 3669 778 3244 343 
Q 2819 -91 2113 -91 
Q 1303 -91 875 529 
Q 447 1150 447 2328 
Q 447 3434 972 4092 
Q 1497 4750 2381 4750 
Q 2619 4750 2861 4703 
Q 3103 4656 3366 4563 
z
" transform="scale(0.015625)"/>
       </defs>
       <use xlink:href="#DejaVuSans-30"/>
       <use xlink:href="#DejaVuSans-2e" x="63.623047"/>
       <use xlink:href="#DejaVuSans-36" x="95.410156"/>
      </g>
     </g>
    </g>
    <g id="ytick_3">
     <g id="line2d_15">
      <path d="M 57.6 211.328517 
L 414.72 211.328517 
" clip-path="url(#p4c919e0b07)" style="fill: none; stroke: #ffffff; stroke-width: 0.8; stroke-linecap: square"/>
     </g>
     <g id="line2d_16">
      <g>
       <use xlink:href="#m8dafa72c5e" x="57.6" y="211.328517" style="fill: #555555; stroke: #555555; stroke-width: 0.8"/>
      </g>
     </g>
     <g id="text_9">
      <!-- 0.8 -->
      <g style="fill: #555555" transform="translate(34.696875 215.127736) scale(0.1 -0.1)">
       <defs>
        <path id="DejaVuSans-38" d="M 2034 2216 
Q 1584 2216 1326 1975 
Q 1069 1734 1069 1313 
Q 1069 891 1326 650 
Q 1584 409 2034 409 
Q 2484 409 2743 651 
Q 3003 894 3003 1313 
Q 3003 1734 2745 1975 
Q 2488 2216 2034 2216 
z
M 1403 2484 
Q 997 2584 770 2862 
Q 544 3141 544 3541 
Q 544 4100 942 4425 
Q 1341 4750 2034 4750 
Q 2731 4750 3128 4425 
Q 3525 4100 3525 3541 
Q 3525 3141 3298 2862 
Q 3072 2584 2669 2484 
Q 3125 2378 3379 2068 
Q 3634 1759 3634 1313 
Q 3634 634 3220 271 
Q 2806 -91 2034 -91 
Q 1263 -91 848 271 
Q 434 634 434 1313 
Q 434 1759 690 2068 
Q 947 2378 1403 2484 
z
M 1172 3481 
Q 1172 3119 1398 2916 
Q 1625 2713 2034 2713 
Q 2441 2713 2670 2916 
Q 2900 3119 2900 3481 
Q 2900 3844 2670 4047 
Q 2441 4250 2034 4250 
Q 1625 4250 1398 4047 
Q 1172 3844 1172 3481 
z
" transform="scale(0.015625)"/>
       </defs>
       <use xlink:href="#DejaVuSans-30"/>
       <use xlink:href="#DejaVuSans-2e" x="63.623047"/>
       <use xlink:href="#DejaVuSans-38" x="95.410156"/>
      </g>
     </g>
    </g>
    <g id="ytick_4">
     <g id="line2d_17">
      <path d="M 57.6 172.086014 
L 414.72 172.086014 
" clip-path="url(#p4c919e0b07)" style="fill: none; stroke: #ffffff; stroke-width: 0.8; stroke-linecap: square"/>
     </g>
     <g id="line2d_18">
      <g>
       <use xlink:href="#m8dafa72c5e" x="57.6" y="172.086014" style="fill: #555555; stroke: #555555; stroke-width: 0.8"/>
      </g>
     </g>
     <g id="text_10">
      <!-- 1.0 -->
      <g style="fill: #555555" transform="translate(34.696875 175.885233) scale(0.1 -0.1)">
       <use xlink:href="#DejaVuSans-31"/>
       <use xlink:href="#DejaVuSans-2e" x="63.623047"/>
       <use xlink:href="#DejaVuSans-30" x="95.410156"/>
      </g>
     </g>
    </g>
    <g id="ytick_5">
     <g id="line2d_19">
      <path d="M 57.6 132.843511 
L 414.72 132.843511 
" clip-path="url(#p4c919e0b07)" style="fill: none; stroke: #ffffff; stroke-width: 0.8; stroke-linecap: square"/>
     </g>
     <g id="line2d_20">
      <g>
       <use xlink:href="#m8dafa72c5e" x="57.6" y="132.843511" style="fill: #555555; stroke: #555555; stroke-width: 0.8"/>
      </g>
     </g>
     <g id="text_11">
      <!-- 1.2 -->
      <g style="fill: #555555" transform="translate(34.696875 136.64273) scale(0.1 -0.1)">
       <use xlink:href="#DejaVuSans-31"/>
       <use xlink:href="#DejaVuSans-2e" x="63.623047"/>
       <use xlink:href="#DejaVuSans-32" x="95.410156"/>
      </g>
     </g>
    </g>
    <g id="ytick_6">
     <g id="line2d_21">
      <path d="M 57.6 93.601008 
L 414.72 93.601008 
" clip-path="url(#p4c919e0b07)" style="fill: none; stroke: #ffffff; stroke-width: 0.8; stroke-linecap: square"/>
     </g>
     <g id="line2d_22">
      <g>
       <use xlink:href="#m8dafa72c5e" x="57.6" y="93.601008" style="fill: #555555; stroke: #555555; stroke-width: 0.8"/>
      </g>
     </g>
     <g id="text_12">
      <!-- 1.4 -->
      <g style="fill: #555555" transform="translate(34.696875 97.400227) scale(0.1 -0.1)">
       <use xlink:href="#DejaVuSans-31"/>
       <use xlink:href="#DejaVuSans-2e" x="63.623047"/>
       <use xlink:href="#DejaVuSans-34" x="95.410156"/>
      </g>
     </g>
    </g>
    <g id="ytick_7">
     <g id="line2d_23">
      <path d="M 57.6 54.358505 
L 414.72 54.358505 
" clip-path="url(#p4c919e0b07)" style="fill: none; stroke: #ffffff; stroke-width: 0.8; stroke-linecap: square"/>
     </g>
     <g id="line2d_24">
      <g>
       <use xlink:href="#m8dafa72c5e" x="57.6" y="54.358505" style="fill: #555555; stroke: #555555; stroke-width: 0.8"/>
      </g>
     </g>
     <g id="text_13">
      <!-- 1.6 -->
      <g style="fill: #555555" transform="translate(34.696875 58.157724) scale(0.1 -0.1)">
       <use xlink:href="#DejaVuSans-31"/>
       <use xlink:href="#DejaVuSans-2e" x="63.623047"/>
       <use xlink:href="#DejaVuSans-36" x="95.410156"/>
      </g>
     </g>
    </g>
    <g id="text_14">
     <!-- Loss -->
     <g style="fill: #555555" transform="translate(28.20125 187.688625) rotate(-90) scale(0.12 -0.12)">
      <defs>
       <path id="DejaVuSans-4c" d="M 628 4666 
L 1259 4666 
L 1259 531 
L 3531 531 
L 3531 0 
L 628 0 
L 628 4666 
z
" transform="scale(0.015625)"/>
       <path id="DejaVuSans-73" d="M 2834 3397 
L 2834 2853 
Q 2591 2978 2328 3040 
Q 2066 3103 1784 3103 
Q 1356 3103 1142 2972 
Q 928 2841 928 2578 
Q 928 2378 1081 2264 
Q 1234 2150 1697 2047 
L 1894 2003 
Q 2506 1872 2764 1633 
Q 3022 1394 3022 966 
Q 3022 478 2636 193 
Q 2250 -91 1575 -91 
Q 1294 -91 989 -36 
Q 684 19 347 128 
L 347 722 
Q 666 556 975 473 
Q 1284 391 1588 391 
Q 1994 391 2212 530 
Q 2431 669 2431 922 
Q 2431 1156 2273 1281 
Q 2116 1406 1581 1522 
L 1381 1569 
Q 847 1681 609 1914 
Q 372 2147 372 2553 
Q 372 3047 722 3315 
Q 1072 3584 1716 3584 
Q 2034 3584 2315 3537 
Q 2597 3491 2834 3397 
z
" transform="scale(0.015625)"/>
      </defs>
      <use xlink:href="#DejaVuSans-4c"/>
      <use xlink:href="#DejaVuSans-6f" x="53.962891"/>
      <use xlink:href="#DejaVuSans-73" x="115.144531"/>
      <use xlink:href="#DejaVuSans-73" x="167.244141"/>
     </g>
    </g>
   </g>
   <g id="line2d_25">
    <path d="M 73.832727 228.452277 
L 74.555789 225.817985 
L 75.27885 222.658159 
L 76.001911 218.302138 
L 77.448034 207.414595 
L 78.894157 194.808726 
L 85.401709 124.006111 
L 86.12477 119.27726 
L 87.570893 105.119593 
L 89.017016 95.654124 
L 89.740077 88.750204 
L 91.1862 79.943057 
L 91.909261 76.868559 
L 92.632322 72.404767 
L 94.078445 68.425319 
L 94.801506 65.938199 
L 96.247629 62.13439 
L 96.97069 61.565045 
L 98.416813 56.336225 
L 99.139874 56.537873 
L 99.862936 56.348809 
L 100.585997 54.797631 
L 101.309059 54.86965 
L 102.03212 55.262257 
L 103.478243 53.568 
L 104.201304 54.654552 
L 104.924365 57.340116 
L 105.647427 56.071025 
L 106.370488 56.560445 
L 107.093549 58.620597 
L 107.816611 59.736247 
L 108.539672 61.269625 
L 109.262733 60.954042 
L 109.985795 64.700873 
L 110.708856 64.672992 
L 111.431917 65.471913 
L 112.154979 67.834128 
L 112.87804 69.711368 
L 113.601101 72.112247 
L 115.047224 76.158194 
L 115.770285 77.062371 
L 117.216408 83.475188 
L 117.93947 85.243639 
L 118.662531 86.484661 
L 119.385592 88.686442 
L 120.108654 90.26094 
L 121.554776 95.772573 
L 122.277838 96.291161 
L 123.72396 100.436797 
L 124.447022 101.01772 
L 125.893144 106.052353 
L 128.062328 111.220405 
L 129.508451 114.276753 
L 130.231512 114.9594 
L 130.954574 117.817819 
L 131.677635 118.311121 
L 132.400696 119.985777 
L 133.123758 122.266407 
L 133.846819 126.296986 
L 134.569881 126.887078 
L 135.292942 128.097903 
L 136.016003 131.608608 
L 136.739065 133.535973 
L 137.462126 136.118479 
L 138.185187 136.131484 
L 138.908249 139.157237 
L 140.354371 143.525409 
L 141.077433 147.540293 
L 141.800494 150.009987 
L 142.523555 148.986565 
L 143.969678 155.194459 
L 144.692739 155.978106 
L 146.138862 161.836594 
L 146.861923 163.073897 
L 148.308046 169.406742 
L 149.031108 169.789315 
L 149.754169 171.333382 
L 150.47723 174.957905 
L 151.200292 176.033569 
L 151.923353 182.150603 
L 152.646414 182.357397 
L 153.369476 184.315918 
L 154.092537 188.987264 
L 154.815598 189.518073 
L 155.53866 193.252612 
L 156.261721 194.267344 
L 156.984782 198.130109 
L 157.707844 198.622383 
L 158.430905 201.91661 
L 159.153966 203.920415 
L 159.877028 206.486407 
L 160.600089 205.96003 
L 162.046212 212.903867 
L 162.769273 212.679085 
L 164.215396 216.423191 
L 164.938457 217.248789 
L 165.661519 218.598798 
L 166.38458 222.04201 
L 167.107641 222.655481 
L 168.553764 224.359538 
L 169.276825 226.486762 
L 169.999887 226.928945 
L 170.722948 228.44588 
L 172.169071 230.130722 
L 172.892132 231.45409 
L 173.615193 231.859819 
L 174.338255 233.409418 
L 175.061316 233.806154 
L 175.784377 233.944426 
L 176.507439 235.063853 
L 177.2305 236.536931 
L 177.953561 236.943759 
L 178.676623 236.597266 
L 179.399684 238.744969 
L 180.122745 237.857925 
L 180.845807 239.254001 
L 181.568868 239.125928 
L 182.29193 239.690641 
L 183.014991 239.881997 
L 183.738052 238.112646 
L 184.461114 237.162693 
L 185.184175 235.956511 
L 185.907236 236.725083 
L 186.630298 236.155914 
L 187.353359 236.849414 
L 188.07642 236.812002 
L 188.799482 237.031041 
L 189.522543 237.806583 
L 190.245604 237.998653 
L 190.968666 238.676201 
L 192.414788 238.641466 
L 193.13785 238.334527 
L 194.583972 239.101824 
L 195.307034 237.92985 
L 196.030095 237.190727 
L 196.753157 237.243226 
L 197.476218 236.849894 
L 198.199279 236.960741 
L 198.922341 236.345399 
L 201.091525 235.905555 
L 201.814586 236.252212 
L 202.537647 235.985492 
L 203.260709 235.375425 
L 203.98377 235.739589 
L 204.706831 235.291769 
L 205.429893 235.082718 
L 206.152954 235.867055 
L 207.599077 235.850073 
L 208.322138 235.146819 
L 209.045199 235.539274 
L 209.768261 234.950995 
L 210.491322 235.545531 
L 211.214383 235.149602 
L 211.937445 234.931733 
L 212.660506 234.96662 
L 213.383568 235.124481 
L 214.106629 234.4505 
L 214.82969 234.926341 
L 215.552752 234.569019 
L 216.275813 234.438407 
L 216.998874 233.842748 
L 217.721936 234.448231 
L 218.444997 234.057635 
L 219.168058 234.385159 
L 219.89112 234.063237 
L 221.337242 234.207801 
L 222.060304 234.384188 
L 222.783365 234.365955 
L 223.506426 233.96653 
L 224.229488 233.971851 
L 224.952549 233.699892 
L 225.67561 233.983792 
L 226.398672 233.843894 
L 227.121733 233.986236 
L 227.844794 233.487343 
L 228.567856 233.247662 
L 229.290917 233.490723 
L 230.013979 233.539048 
L 231.460101 233.209127 
L 232.183163 233.296396 
L 232.906224 233.207525 
L 233.629285 232.931904 
L 235.075408 232.814321 
L 235.798469 233.234985 
L 236.521531 232.892983 
L 237.967653 232.747238 
L 238.690715 232.970171 
L 239.413776 232.622777 
L 240.136837 233.091017 
L 241.58296 232.114049 
L 242.306021 232.578722 
L 243.029083 232.465056 
L 243.752144 232.472167 
L 244.475206 233.094994 
L 245.198267 232.819841 
L 245.921328 232.267431 
L 246.64439 232.463337 
L 247.367451 232.216428 
L 249.536635 232.159625 
L 250.259696 232.417094 
L 250.982758 231.569942 
L 251.705819 231.750469 
L 252.42888 232.304212 
L 253.151942 231.688988 
L 255.321126 232.203084 
L 256.044187 232.037048 
L 256.767248 232.019224 
L 257.49031 231.581006 
L 258.213371 231.703197 
L 259.659494 231.592725 
L 260.382555 230.908019 
L 261.105617 231.201556 
L 261.828678 231.819108 
L 262.551739 231.202866 
L 263.274801 231.920424 
L 263.997862 230.892815 
L 264.720923 231.441857 
L 265.443985 231.615671 
L 266.167046 231.159676 
L 266.890107 231.034619 
L 267.613169 231.373347 
L 268.33623 230.636071 
L 269.059291 230.965407 
L 269.782353 230.749818 
L 270.505414 231.247085 
L 271.228475 231.4901 
L 271.951537 230.777887 
L 273.397659 230.841403 
L 274.120721 230.135354 
L 274.843782 230.56335 
L 275.566843 231.29272 
L 276.289905 230.781688 
L 277.012966 230.527329 
L 277.736028 231.094136 
L 278.459089 230.521821 
L 279.18215 230.699587 
L 279.905212 230.334827 
L 280.628273 230.505541 
L 282.074396 230.158849 
L 282.797457 230.226365 
L 283.520518 230.522183 
L 284.24358 230.483507 
L 284.966641 230.185877 
L 285.689702 230.176953 
L 286.412764 229.842214 
L 287.135825 230.238505 
L 287.858886 230.201022 
L 289.305009 229.842331 
L 290.02807 230.169351 
L 290.751132 230.005233 
L 291.474193 230.44241 
L 292.197255 229.902538 
L 292.920316 229.659372 
L 296.535623 229.529122 
L 297.258684 229.654389 
L 297.981745 229.244321 
L 298.704807 229.21768 
L 299.427868 229.902023 
L 300.873991 229.346116 
L 301.597052 229.309218 
L 302.320113 229.601796 
L 303.043175 229.193026 
L 303.766236 229.703357 
L 304.489297 229.056824 
L 305.212359 229.167905 
L 305.93542 229.782545 
L 306.658481 229.392371 
L 307.381543 229.434766 
L 308.104604 228.408607 
L 308.827666 229.275208 
L 309.550727 229.495803 
L 310.273788 228.443611 
L 310.99685 228.548248 
L 311.719911 229.076706 
L 312.442972 228.48769 
L 313.166034 228.591578 
L 314.612156 228.395661 
L 315.335218 228.550353 
L 316.058279 229.25273 
L 316.78134 228.488181 
L 317.504402 228.828593 
L 318.227463 228.36992 
L 318.950524 228.582281 
L 320.396647 227.875167 
L 321.119708 228.575088 
L 321.84277 228.367405 
L 322.565831 227.975523 
L 323.288892 228.351558 
L 324.011954 227.275567 
L 324.735015 228.304345 
L 325.458077 228.33225 
L 326.181138 228.519232 
L 326.904199 227.858232 
L 327.627261 228.217508 
L 328.350322 227.995464 
L 329.073383 227.404249 
L 329.796445 227.20011 
L 330.519506 227.932731 
L 331.242567 227.849438 
L 331.965629 228.113187 
L 332.68869 227.011759 
L 333.411751 227.680922 
L 334.134813 227.150335 
L 334.857874 228.174938 
L 335.580935 227.833485 
L 336.303997 226.933635 
L 337.027058 227.730427 
L 337.750119 226.942816 
L 338.473181 227.7766 
L 339.196242 227.446457 
L 339.919304 228.055179 
L 341.365426 227.097028 
L 342.088488 227.877775 
L 342.811549 226.999526 
L 343.53461 226.999327 
L 344.257672 226.511486 
L 344.980733 227.352287 
L 345.703794 226.93381 
L 347.149917 226.62135 
L 347.872978 226.856692 
L 349.319101 226.157391 
L 350.042162 226.003295 
L 350.765224 227.002835 
L 351.488285 226.058532 
L 352.934408 226.162888 
L 353.657469 226.189202 
L 355.103592 226.833899 
L 355.826653 226.099968 
L 356.549715 226.258402 
L 357.272776 225.717091 
L 357.995837 225.671433 
L 358.718899 225.439027 
L 359.44196 226.418322 
L 360.888083 225.703221 
L 361.611144 226.450776 
L 362.334205 226.136129 
L 363.057267 226.001062 
L 363.780328 225.620945 
L 364.503389 224.718919 
L 365.226451 224.571584 
L 365.949512 225.596794 
L 366.672573 225.261856 
L 367.395635 225.543558 
L 368.118696 225.238747 
L 368.841757 225.675456 
L 370.28788 225.093247 
L 371.010941 225.352143 
L 371.734003 224.67001 
L 372.457064 225.130204 
L 373.180126 224.811662 
L 373.903187 224.682992 
L 374.626248 225.140086 
L 375.34931 224.8538 
L 376.072371 223.997912 
L 376.795432 224.673004 
L 377.518494 225.516261 
L 378.241555 224.352977 
L 378.964616 224.247955 
L 379.687678 224.42785 
L 380.410739 223.532783 
L 381.1338 224.948683 
L 381.856862 224.87588 
L 382.579923 224.59826 
L 383.302984 224.509201 
L 384.026046 223.340327 
L 384.749107 224.70747 
L 385.472168 223.665359 
L 386.19523 224.519213 
L 386.918291 224.245545 
L 387.641353 223.132656 
L 388.364414 224.159761 
L 389.087475 222.997179 
L 389.810537 224.22502 
L 390.533598 222.628722 
L 391.256659 223.374032 
L 391.979721 223.781855 
L 393.425843 223.177448 
L 394.148905 223.641548 
L 395.595027 223.073057 
L 396.318089 223.030744 
L 397.04115 222.408911 
L 397.764211 223.819128 
L 398.487273 223.087851 
L 398.487273 223.087851 
" clip-path="url(#p4c919e0b07)" style="fill: none; stroke: #6495ed; stroke-width: 2; stroke-linecap: square"/>
   </g>
   <g id="line2d_26">
    <path d="M 73.832727 233.115458 
L 74.555789 233.869792 
L 75.27885 234.827031 
L 76.001911 236.29584 
L 78.894157 244.463797 
L 80.340279 249.341604 
L 81.786402 253.696241 
L 85.401709 264.136232 
L 86.12477 265.238362 
L 86.847832 267.053981 
L 87.570893 269.314104 
L 88.293954 269.991151 
L 89.740077 272.936794 
L 90.463138 274.29465 
L 91.1862 276.143943 
L 91.909261 276.428913 
L 92.632322 278.062277 
L 93.355384 278.622592 
L 94.078445 279.670058 
L 94.801506 281.318672 
L 95.524568 281.407594 
L 96.247629 282.738947 
L 96.97069 283.09239 
L 97.693752 284.267363 
L 98.416813 285.975493 
L 99.139874 285.734171 
L 99.862936 286.911248 
L 100.585997 287.329932 
L 101.309059 288.120195 
L 102.03212 289.506672 
L 102.755181 289.27191 
L 103.478243 290.585045 
L 104.201304 290.520164 
L 104.924365 290.907198 
L 105.647427 292.552341 
L 106.370488 291.921379 
L 107.093549 292.819536 
L 107.816611 292.609654 
L 108.539672 293.056179 
L 109.262733 294.59575 
L 109.985795 293.209979 
L 110.708856 294.369281 
L 111.431917 293.990803 
L 112.154979 294.262091 
L 112.87804 295.488 
L 113.601101 293.908243 
L 114.324163 294.755479 
L 115.047224 293.914082 
L 115.770285 294.256404 
L 116.493347 295.356271 
L 117.216408 293.071457 
L 117.93947 293.920441 
L 118.662531 292.96161 
L 119.385592 293.066372 
L 120.108654 294.338201 
L 120.831715 291.531312 
L 121.554776 292.279179 
L 122.277838 291.057943 
L 123.000899 291.01559 
L 123.72396 292.353859 
L 124.447022 289.257372 
L 125.170083 290.11583 
L 125.893144 288.127598 
L 126.616206 288.047036 
L 127.339267 289.698582 
L 128.062328 285.637623 
L 128.78539 287.033135 
L 129.508451 284.78116 
L 130.231512 285.028277 
L 130.954574 286.757267 
L 131.677635 282.400399 
L 132.400696 284.050696 
L 133.123758 281.533462 
L 133.846819 281.181411 
L 134.569881 283.922616 
L 135.292942 278.764284 
L 136.016003 280.333705 
L 136.739065 277.58539 
L 137.462126 277.63033 
L 138.185187 281.093955 
L 138.908249 274.821282 
L 139.63131 276.750339 
L 140.354371 273.824829 
L 141.077433 273.505466 
L 141.800494 276.843575 
L 142.523555 270.547324 
L 143.246617 272.461144 
L 143.969678 268.841595 
L 144.692739 269.23864 
L 145.415801 273.124462 
L 146.138862 264.587488 
L 146.861923 267.243444 
L 147.584985 263.134561 
L 148.308046 262.935882 
L 149.031108 268.002386 
L 149.754169 258.707823 
L 150.47723 261.119265 
L 151.200292 257.032879 
L 151.923353 255.671697 
L 152.646414 261.714301 
L 153.369476 250.728317 
L 154.092537 253.468276 
L 154.815598 248.752301 
L 155.53866 248.289461 
L 156.261721 254.68627 
L 156.984782 241.652248 
L 157.707844 246.228958 
L 158.430905 239.82462 
L 159.153966 240.190627 
L 159.877028 246.459469 
L 160.600089 233.776988 
L 161.32315 237.790446 
L 162.046212 231.425449 
L 162.769273 232.862349 
L 163.492334 239.726406 
L 164.215396 225.783754 
L 164.938457 231.654164 
L 165.661519 226.346421 
L 166.38458 226.408884 
L 167.107641 233.825595 
L 167.830703 220.883027 
L 168.553764 227.184406 
L 169.276825 221.803461 
L 169.999887 223.389826 
L 170.722948 229.647493 
L 171.446009 217.525218 
L 172.169071 223.844494 
L 172.892132 218.80552 
L 173.615193 220.568077 
L 174.338255 225.55239 
L 175.061316 214.712214 
L 175.784377 221.374684 
L 176.507439 216.825131 
L 177.2305 218.091429 
L 177.953561 222.47366 
L 178.676623 213.806773 
L 179.399684 219.172241 
L 180.122745 216.221556 
L 180.845807 217.549782 
L 181.568868 221.034405 
L 182.29193 213.564291 
L 183.014991 219.55175 
L 183.738052 216.815498 
L 184.461114 218.903043 
L 185.184175 221.821567 
L 185.907236 215.537559 
L 186.630298 221.587618 
L 187.353359 218.787904 
L 188.799482 223.083358 
L 189.522543 218.363392 
L 190.245604 223.708245 
L 190.968666 221.161644 
L 192.414788 224.517191 
L 193.13785 220.806576 
L 193.860911 225.165091 
L 194.583972 222.67956 
L 195.307034 224.602748 
L 196.030095 225.880663 
L 196.753157 222.33568 
L 197.476218 226.59919 
L 198.199279 224.310505 
L 198.922341 225.807201 
L 199.645402 226.530206 
L 200.368463 223.65082 
L 201.091525 227.499427 
L 201.814586 225.332578 
L 202.537647 226.624315 
L 203.260709 227.414517 
L 203.98377 224.702399 
L 204.706831 228.482521 
L 205.429893 226.812037 
L 206.152954 227.470658 
L 206.876015 227.798432 
L 207.599077 225.499116 
L 208.322138 229.163681 
L 209.045199 227.241802 
L 209.768261 228.446773 
L 210.491322 228.353526 
L 211.214383 226.401498 
L 211.937445 229.620942 
L 212.660506 227.8868 
L 213.383568 228.623962 
L 214.106629 229.04631 
L 214.82969 226.842786 
L 215.552752 229.968674 
L 216.275813 228.446268 
L 216.998874 229.53739 
L 217.721936 229.23659 
L 218.444997 227.668315 
L 219.168058 230.357967 
L 219.89112 229.026891 
L 220.614181 229.773592 
L 221.337242 229.658783 
L 222.060304 227.93742 
L 222.783365 230.670362 
L 223.506426 229.416938 
L 224.229488 230.121898 
L 224.952549 230.100778 
L 225.67561 228.447375 
L 226.398672 231.103434 
L 227.121733 229.629338 
L 227.844794 230.54279 
L 228.567856 230.408353 
L 229.290917 228.87419 
L 230.013979 231.348676 
L 230.73704 230.094023 
L 231.460101 230.787241 
L 232.183163 230.452475 
L 232.906224 229.18862 
L 233.629285 231.771462 
L 234.352347 230.496621 
L 235.075408 231.151645 
L 235.798469 230.595646 
L 236.521531 229.554472 
L 237.244592 231.984244 
L 237.967653 230.768798 
L 238.690715 231.238443 
L 239.413776 231.01459 
L 240.136837 229.669694 
L 240.859899 232.244646 
L 241.58296 231.243395 
L 242.306021 231.60777 
L 243.029083 231.209076 
L 243.752144 230.162106 
L 244.475206 232.130988 
L 245.198267 231.057346 
L 245.921328 231.858749 
L 246.64439 231.254849 
L 247.367451 230.412953 
L 248.090512 232.618207 
L 248.813574 231.426326 
L 249.536635 231.972212 
L 250.259696 231.303714 
L 250.982758 230.832492 
L 251.705819 232.939371 
L 252.42888 231.522326 
L 253.151942 232.340057 
L 253.875003 231.690486 
L 254.598064 230.866481 
L 255.321126 232.827826 
L 256.044187 231.824164 
L 256.767248 232.314172 
L 257.49031 231.902857 
L 258.213371 231.086662 
L 258.936432 233.17606 
L 259.659494 232.12155 
L 260.382555 232.959873 
L 261.828678 231.160636 
L 262.551739 233.489523 
L 263.274801 232.117175 
L 263.997862 233.045102 
L 264.720923 232.047996 
L 265.443985 231.33972 
L 266.167046 233.565008 
L 266.890107 232.589218 
L 267.613169 232.854372 
L 268.33623 232.458892 
L 269.059291 231.765219 
L 269.782353 233.832445 
L 270.505414 232.611563 
L 271.228475 232.920571 
L 272.674598 231.95033 
L 273.397659 233.869068 
L 274.120721 233.256154 
L 274.843782 233.475441 
L 275.566843 232.244869 
L 276.289905 232.098391 
L 277.012966 234.147642 
L 277.736028 232.882469 
L 278.459089 233.572472 
L 279.18215 232.559456 
L 279.905212 232.400062 
L 280.628273 234.156775 
L 281.351334 233.334768 
L 282.074396 233.791626 
L 282.797457 232.829086 
L 283.520518 232.378734 
L 284.24358 234.236372 
L 284.966641 233.483255 
L 285.689702 233.874621 
L 286.412764 233.044814 
L 287.135825 232.613597 
L 287.858886 234.458326 
L 288.581948 233.638366 
L 289.305009 234.110671 
L 290.02807 232.910139 
L 290.751132 232.800989 
L 291.474193 234.398127 
L 292.197255 233.750684 
L 292.920316 234.217779 
L 293.643377 233.164576 
L 294.366439 233.07967 
L 295.0895 234.839395 
L 295.812561 233.9647 
L 296.535623 234.381933 
L 297.258684 233.181181 
L 297.981745 233.321848 
L 298.704807 235.131257 
L 299.427868 233.972654 
L 300.150929 234.463892 
L 300.873991 233.424276 
L 301.597052 233.399236 
L 302.320113 235.018713 
L 303.043175 234.365141 
L 303.766236 234.441127 
L 304.489297 233.564077 
L 305.212359 233.541343 
L 305.93542 234.971941 
L 306.658481 234.297278 
L 307.381543 234.565858 
L 308.104604 233.819598 
L 308.827666 233.461617 
L 309.550727 235.078714 
L 310.273788 234.725488 
L 310.99685 235.032636 
L 311.719911 233.516679 
L 312.442972 233.912069 
L 313.166034 235.571445 
L 313.889095 234.860188 
L 314.612156 235.230826 
L 315.335218 233.854021 
L 316.058279 233.713343 
L 316.78134 235.802733 
L 317.504402 234.855583 
L 318.227463 235.374895 
L 318.950524 233.935422 
L 319.673586 234.301087 
L 320.396647 236.1987 
L 321.119708 235.053909 
L 321.84277 235.461595 
L 322.565831 234.247043 
L 323.288892 234.345272 
L 324.011954 236.547906 
L 324.735015 235.27035 
L 325.458077 235.542623 
L 326.181138 234.024221 
L 326.904199 234.654768 
L 327.627261 236.134043 
L 328.350322 235.454505 
L 329.073383 236.010761 
L 329.796445 234.639771 
L 330.519506 234.660479 
L 331.242567 236.323543 
L 331.965629 235.432896 
L 332.68869 236.255739 
L 333.411751 234.379631 
L 334.134813 235.086366 
L 334.857874 236.2589 
L 335.580935 235.655902 
L 336.303997 236.344545 
L 337.027058 234.40058 
L 337.750119 235.241078 
L 338.473181 236.484969 
L 339.196242 235.879571 
L 339.919304 235.856577 
L 340.642365 234.444507 
L 341.365426 235.178513 
L 342.088488 236.423236 
L 342.811549 236.091743 
L 343.53461 236.335835 
L 344.257672 234.912827 
L 344.980733 235.090117 
L 345.703794 236.873009 
L 346.426856 236.231618 
L 347.149917 236.586811 
L 347.872978 234.821851 
L 348.59604 235.613228 
L 349.319101 237.38359 
L 350.042162 236.743705 
L 350.765224 236.565847 
L 351.488285 235.353651 
L 352.211346 235.946824 
L 352.934408 237.5868 
L 353.657469 236.88504 
L 354.38053 236.983319 
L 355.103592 235.133132 
L 355.826653 236.147067 
L 356.549715 237.629659 
L 357.272776 237.181957 
L 357.995837 237.423547 
L 358.718899 235.742897 
L 359.44196 236.023494 
L 360.165021 237.72549 
L 360.888083 237.201019 
L 361.611144 237.008755 
L 362.334205 235.341934 
L 363.057267 236.145707 
L 363.780328 237.857593 
L 364.503389 237.564688 
L 365.226451 237.891622 
L 365.949512 235.509673 
L 366.672573 236.52441 
L 367.395635 237.96519 
L 368.118696 237.460446 
L 368.841757 237.552696 
L 369.564819 235.624823 
L 370.28788 236.777485 
L 371.010941 238.226437 
L 371.734003 237.860175 
L 372.457064 237.866311 
L 373.180126 235.995088 
L 373.903187 237.057317 
L 374.626248 238.381139 
L 375.34931 237.842969 
L 376.072371 238.482287 
L 376.795432 236.078173 
L 377.518494 236.734721 
L 378.241555 238.804532 
L 378.964616 238.122551 
L 379.687678 238.293777 
L 380.410739 236.650918 
L 381.1338 237.033282 
L 381.856862 238.605091 
L 382.579923 238.046745 
L 383.302984 238.262145 
L 384.026046 236.703796 
L 384.749107 237.137832 
L 385.472168 239.156822 
L 386.19523 238.042721 
L 386.918291 238.393611 
L 387.641353 236.771231 
L 388.364414 237.459646 
L 389.087475 239.454886 
L 389.810537 238.258932 
L 390.533598 239.242048 
L 391.256659 236.692044 
L 391.979721 237.744035 
L 392.702782 239.381103 
L 393.425843 238.875577 
L 394.148905 238.894538 
L 394.871966 236.769166 
L 396.318089 239.679345 
L 397.764211 238.9418 
L 398.487273 236.971743 
L 398.487273 236.971743 
" clip-path="url(#p4c919e0b07)" style="fill: none; stroke: #dc143c; stroke-width: 2; stroke-linecap: square"/>
   </g>
   <g id="line2d_27">
    <path d="M 73.832727 218.9796 
L 76.724973 218.9796 
L 77.448034 219.679663 
L 80.340279 219.679663 
L 81.063341 220.525065 
L 83.955586 220.525065 
L 84.678647 221.263936 
L 87.570893 221.263936 
L 88.293954 221.594184 
L 91.1862 221.594184 
L 91.909261 221.221324 
L 94.801506 221.221324 
L 95.524568 220.420817 
L 98.416813 220.420817 
L 99.139874 219.652269 
L 102.03212 219.652269 
L 102.755181 218.743709 
L 105.647427 218.743709 
L 106.370488 217.975161 
L 109.262733 217.975161 
L 109.985795 217.506423 
L 112.87804 217.506423 
L 113.601101 217.017901 
L 116.493347 217.017901 
L 117.216408 216.591775 
L 120.108654 216.591775 
L 120.831715 216.126081 
L 123.72396 216.126081 
L 124.447022 215.827793 
L 138.185187 215.818662 
L 138.908249 215.984546 
L 141.800494 215.984546 
L 142.523555 216.26305 
L 145.415801 216.26305 
L 146.138862 216.565903 
L 149.031108 216.565903 
L 149.754169 216.724178 
L 152.646414 216.724178 
L 153.369476 216.558294 
L 156.261721 216.558294 
L 156.984782 216.078903 
L 159.877028 216.078903 
L 160.600089 215.14447 
L 163.492334 215.14447 
L 164.215396 214.076113 
L 167.107641 214.076113 
L 167.830703 212.671421 
L 170.722948 212.671421 
L 171.446009 210.895391 
L 174.338255 210.895391 
L 175.061316 209.286767 
L 177.953561 209.286767 
L 178.676623 207.862291 
L 181.568868 207.862291 
L 182.29193 206.500211 
L 185.184175 206.500211 
L 185.907236 205.337497 
L 188.799482 205.337497 
L 189.522543 204.304143 
L 192.414788 204.304143 
L 193.13785 203.171867 
L 196.030095 203.171867 
L 196.753157 202.0959 
L 199.645402 202.0959 
L 200.368463 201.108202 
L 203.260709 201.108202 
L 203.98377 200.192032 
L 206.876015 200.192032 
L 207.599077 199.364131 
L 210.491322 199.364131 
L 211.214383 198.626782 
L 214.106629 198.626782 
L 214.82969 197.874214 
L 217.721936 197.874214 
L 218.444997 197.165019 
L 221.337242 197.165019 
L 222.060304 196.536484 
L 224.952549 196.536484 
L 225.67561 195.979478 
L 228.567856 195.979478 
L 229.290917 195.437689 
L 232.183163 195.437689 
L 232.906224 194.952211 
L 235.798469 194.952211 
L 236.521531 194.419554 
L 239.413776 194.419554 
L 240.136837 193.964513 
L 243.029083 193.964513 
L 243.752144 193.620569 
L 246.64439 193.620569 
L 247.367451 193.278146 
L 250.259696 193.278146 
L 250.982758 192.93268 
L 253.875003 192.93268 
L 254.598064 192.613086 
L 257.49031 192.613086 
L 258.213371 192.266098 
L 261.105617 192.266098 
L 261.828678 192.091083 
L 264.720923 192.091083 
L 265.443985 191.928242 
L 268.33623 191.928242 
L 269.059291 191.718223 
L 271.951537 191.718223 
L 272.674598 191.526466 
L 275.566843 191.526466 
L 276.289905 191.337754 
L 282.797457 191.279922 
L 283.520518 191.127735 
L 290.02807 191.050119 
L 290.751132 190.935978 
L 297.258684 190.858363 
L 299.427868 190.809663 
L 308.104604 190.846188 
L 309.550727 190.948153 
L 311.719911 190.948153 
L 312.442972 191.193175 
L 315.335218 191.193175 
L 316.058279 191.547773 
L 318.950524 191.547773 
L 319.673586 191.954114 
L 322.565831 191.954114 
L 323.288892 192.441114 
L 326.181138 192.441114 
L 326.904199 192.987468 
L 329.796445 192.987468 
L 330.519506 193.503384 
L 333.411751 193.503384 
L 334.134813 194.045172 
L 337.027058 194.045172 
L 337.750119 194.605223 
L 340.642365 194.605223 
L 341.365426 195.322027 
L 344.257672 195.322027 
L 344.980733 196.019046 
L 347.872978 196.019046 
L 348.59604 196.752591 
L 351.488285 196.752591 
L 352.211346 197.513529 
L 355.103592 197.513529 
L 355.826653 198.419046 
L 358.718899 198.419046 
L 359.44196 199.198247 
L 362.334205 199.198247 
L 363.057267 200.14181 
L 365.949512 200.14181 
L 366.672573 201.032108 
L 369.564819 201.032108 
L 370.28788 201.971106 
L 373.180126 201.971106 
L 373.903187 202.928366 
L 376.795432 202.928366 
L 377.518494 203.972374 
L 380.410739 203.972374 
L 381.1338 205.144219 
L 384.026046 205.144219 
L 384.749107 206.526083 
L 387.641353 206.526083 
L 388.364414 208.055569 
L 391.256659 208.055569 
L 391.979721 209.808771 
L 394.871966 209.808771 
L 395.595027 211.921136 
L 398.487273 211.921136 
L 398.487273 211.921136 
" clip-path="url(#p4c919e0b07)" style="fill: none; stroke: #ffff00; stroke-width: 3; stroke-linecap: square"/>
   </g>
   <g id="patch_3">
    <path d="M 57.6 307.584 
L 57.6 41.472 
" style="fill: none; stroke: #ffffff; stroke-linejoin: miter; stroke-linecap: square"/>
   </g>
   <g id="patch_4">
    <path d="M 414.72 307.584 
L 414.72 41.472 
" style="fill: none; stroke: #ffffff; stroke-linejoin: miter; stroke-linecap: square"/>
   </g>
   <g id="patch_5">
    <path d="M 57.6 307.584 
L 414.72 307.584 
" style="fill: none; stroke: #ffffff; stroke-linejoin: miter; stroke-linecap: square"/>
   </g>
   <g id="patch_6">
    <path d="M 57.6 41.472 
L 414.72 41.472 
" style="fill: none; stroke: #ffffff; stroke-linejoin: miter; stroke-linecap: square"/>
   </g>
   <g id="legend_1">
    <g id="patch_7">
     <path d="M 243.124687 302.584 
L 407.72 302.584 
Q 409.72 302.584 409.72 300.584 
L 409.72 257.549625 
Q 409.72 255.549625 407.72 255.549625 
L 243.124687 255.549625 
Q 241.124687 255.549625 241.124687 257.549625 
L 241.124687 300.584 
Q 241.124687 302.584 243.124687 302.584 
z
" style="fill: #e5e5e5; opacity: 0.8; stroke: #cccccc; stroke-width: 0.5; stroke-linejoin: miter"/>
    </g>
    <g id="line2d_28">
     <path d="M 245.124687 263.648062 
L 255.124687 263.648062 
L 265.124687 263.648062 
" style="fill: none; stroke: #6495ed; stroke-width: 2; stroke-linecap: square"/>
    </g>
    <g id="text_15">
     <!-- Generator loss -->
     <g transform="translate(273.124687 267.148062) scale(0.1 -0.1)">
      <defs>
       <path id="DejaVuSans-47" d="M 3809 666 
L 3809 1919 
L 2778 1919 
L 2778 2438 
L 4434 2438 
L 4434 434 
Q 4069 175 3628 42 
Q 3188 -91 2688 -91 
Q 1594 -91 976 548 
Q 359 1188 359 2328 
Q 359 3472 976 4111 
Q 1594 4750 2688 4750 
Q 3144 4750 3555 4637 
Q 3966 4525 4313 4306 
L 4313 3634 
Q 3963 3931 3569 4081 
Q 3175 4231 2741 4231 
Q 1884 4231 1454 3753 
Q 1025 3275 1025 2328 
Q 1025 1384 1454 906 
Q 1884 428 2741 428 
Q 3075 428 3337 486 
Q 3600 544 3809 666 
z
" transform="scale(0.015625)"/>
       <path id="DejaVuSans-65" d="M 3597 1894 
L 3597 1613 
L 953 1613 
Q 991 1019 1311 708 
Q 1631 397 2203 397 
Q 2534 397 2845 478 
Q 3156 559 3463 722 
L 3463 178 
Q 3153 47 2828 -22 
Q 2503 -91 2169 -91 
Q 1331 -91 842 396 
Q 353 884 353 1716 
Q 353 2575 817 3079 
Q 1281 3584 2069 3584 
Q 2775 3584 3186 3129 
Q 3597 2675 3597 1894 
z
M 3022 2063 
Q 3016 2534 2758 2815 
Q 2500 3097 2075 3097 
Q 1594 3097 1305 2825 
Q 1016 2553 972 2059 
L 3022 2063 
z
" transform="scale(0.015625)"/>
       <path id="DejaVuSans-6e" d="M 3513 2113 
L 3513 0 
L 2938 0 
L 2938 2094 
Q 2938 2591 2744 2837 
Q 2550 3084 2163 3084 
Q 1697 3084 1428 2787 
Q 1159 2491 1159 1978 
L 1159 0 
L 581 0 
L 581 3500 
L 1159 3500 
L 1159 2956 
Q 1366 3272 1645 3428 
Q 1925 3584 2291 3584 
Q 2894 3584 3203 3211 
Q 3513 2838 3513 2113 
z
" transform="scale(0.015625)"/>
       <path id="DejaVuSans-72" d="M 2631 2963 
Q 2534 3019 2420 3045 
Q 2306 3072 2169 3072 
Q 1681 3072 1420 2755 
Q 1159 2438 1159 1844 
L 1159 0 
L 581 0 
L 581 3500 
L 1159 3500 
L 1159 2956 
Q 1341 3275 1631 3429 
Q 1922 3584 2338 3584 
Q 2397 3584 2469 3576 
Q 2541 3569 2628 3553 
L 2631 2963 
z
" transform="scale(0.015625)"/>
       <path id="DejaVuSans-61" d="M 2194 1759 
Q 1497 1759 1228 1600 
Q 959 1441 959 1056 
Q 959 750 1161 570 
Q 1363 391 1709 391 
Q 2188 391 2477 730 
Q 2766 1069 2766 1631 
L 2766 1759 
L 2194 1759 
z
M 3341 1997 
L 3341 0 
L 2766 0 
L 2766 531 
Q 2569 213 2275 61 
Q 1981 -91 1556 -91 
Q 1019 -91 701 211 
Q 384 513 384 1019 
Q 384 1609 779 1909 
Q 1175 2209 1959 2209 
L 2766 2209 
L 2766 2266 
Q 2766 2663 2505 2880 
Q 2244 3097 1772 3097 
Q 1472 3097 1187 3025 
Q 903 2953 641 2809 
L 641 3341 
Q 956 3463 1253 3523 
Q 1550 3584 1831 3584 
Q 2591 3584 2966 3190 
Q 3341 2797 3341 1997 
z
" transform="scale(0.015625)"/>
       <path id="DejaVuSans-74" d="M 1172 4494 
L 1172 3500 
L 2356 3500 
L 2356 3053 
L 1172 3053 
L 1172 1153 
Q 1172 725 1289 603 
Q 1406 481 1766 481 
L 2356 481 
L 2356 0 
L 1766 0 
Q 1100 0 847 248 
Q 594 497 594 1153 
L 594 3053 
L 172 3053 
L 172 3500 
L 594 3500 
L 594 4494 
L 1172 4494 
z
" transform="scale(0.015625)"/>
       <path id="DejaVuSans-20" transform="scale(0.015625)"/>
       <path id="DejaVuSans-6c" d="M 603 4863 
L 1178 4863 
L 1178 0 
L 603 0 
L 603 4863 
z
" transform="scale(0.015625)"/>
      </defs>
      <use xlink:href="#DejaVuSans-47"/>
      <use xlink:href="#DejaVuSans-65" x="77.490234"/>
      <use xlink:href="#DejaVuSans-6e" x="139.013672"/>
      <use xlink:href="#DejaVuSans-65" x="202.392578"/>
      <use xlink:href="#DejaVuSans-72" x="263.916016"/>
      <use xlink:href="#DejaVuSans-61" x="305.029297"/>
      <use xlink:href="#DejaVuSans-74" x="366.308594"/>
      <use xlink:href="#DejaVuSans-6f" x="405.517578"/>
      <use xlink:href="#DejaVuSans-72" x="466.699219"/>
      <use xlink:href="#DejaVuSans-20" x="507.8125"/>
      <use xlink:href="#DejaVuSans-6c" x="539.599609"/>
      <use xlink:href="#DejaVuSans-6f" x="567.382812"/>
      <use xlink:href="#DejaVuSans-73" x="628.564453"/>
      <use xlink:href="#DejaVuSans-73" x="680.664062"/>
     </g>
    </g>
    <g id="line2d_29">
     <path d="M 245.124687 278.326188 
L 255.124687 278.326188 
L 265.124687 278.326188 
" style="fill: none; stroke: #dc143c; stroke-width: 2; stroke-linecap: square"/>
    </g>
    <g id="text_16">
     <!-- Average discriminator loss -->
     <g transform="translate(273.124687 281.826188) scale(0.1 -0.1)">
      <defs>
       <path id="DejaVuSans-41" d="M 2188 4044 
L 1331 1722 
L 3047 1722 
L 2188 4044 
z
M 1831 4666 
L 2547 4666 
L 4325 0 
L 3669 0 
L 3244 1197 
L 1141 1197 
L 716 0 
L 50 0 
L 1831 4666 
z
" transform="scale(0.015625)"/>
       <path id="DejaVuSans-76" d="M 191 3500 
L 800 3500 
L 1894 563 
L 2988 3500 
L 3597 3500 
L 2284 0 
L 1503 0 
L 191 3500 
z
" transform="scale(0.015625)"/>
       <path id="DejaVuSans-67" d="M 2906 1791 
Q 2906 2416 2648 2759 
Q 2391 3103 1925 3103 
Q 1463 3103 1205 2759 
Q 947 2416 947 1791 
Q 947 1169 1205 825 
Q 1463 481 1925 481 
Q 2391 481 2648 825 
Q 2906 1169 2906 1791 
z
M 3481 434 
Q 3481 -459 3084 -895 
Q 2688 -1331 1869 -1331 
Q 1566 -1331 1297 -1286 
Q 1028 -1241 775 -1147 
L 775 -588 
Q 1028 -725 1275 -790 
Q 1522 -856 1778 -856 
Q 2344 -856 2625 -561 
Q 2906 -266 2906 331 
L 2906 616 
Q 2728 306 2450 153 
Q 2172 0 1784 0 
Q 1141 0 747 490 
Q 353 981 353 1791 
Q 353 2603 747 3093 
Q 1141 3584 1784 3584 
Q 2172 3584 2450 3431 
Q 2728 3278 2906 2969 
L 2906 3500 
L 3481 3500 
L 3481 434 
z
" transform="scale(0.015625)"/>
       <path id="DejaVuSans-64" d="M 2906 2969 
L 2906 4863 
L 3481 4863 
L 3481 0 
L 2906 0 
L 2906 525 
Q 2725 213 2448 61 
Q 2172 -91 1784 -91 
Q 1150 -91 751 415 
Q 353 922 353 1747 
Q 353 2572 751 3078 
Q 1150 3584 1784 3584 
Q 2172 3584 2448 3432 
Q 2725 3281 2906 2969 
z
M 947 1747 
Q 947 1113 1208 752 
Q 1469 391 1925 391 
Q 2381 391 2643 752 
Q 2906 1113 2906 1747 
Q 2906 2381 2643 2742 
Q 2381 3103 1925 3103 
Q 1469 3103 1208 2742 
Q 947 2381 947 1747 
z
" transform="scale(0.015625)"/>
       <path id="DejaVuSans-69" d="M 603 3500 
L 1178 3500 
L 1178 0 
L 603 0 
L 603 3500 
z
M 603 4863 
L 1178 4863 
L 1178 4134 
L 603 4134 
L 603 4863 
z
" transform="scale(0.015625)"/>
       <path id="DejaVuSans-6d" d="M 3328 2828 
Q 3544 3216 3844 3400 
Q 4144 3584 4550 3584 
Q 5097 3584 5394 3201 
Q 5691 2819 5691 2113 
L 5691 0 
L 5113 0 
L 5113 2094 
Q 5113 2597 4934 2840 
Q 4756 3084 4391 3084 
Q 3944 3084 3684 2787 
Q 3425 2491 3425 1978 
L 3425 0 
L 2847 0 
L 2847 2094 
Q 2847 2600 2669 2842 
Q 2491 3084 2119 3084 
Q 1678 3084 1418 2786 
Q 1159 2488 1159 1978 
L 1159 0 
L 581 0 
L 581 3500 
L 1159 3500 
L 1159 2956 
Q 1356 3278 1631 3431 
Q 1906 3584 2284 3584 
Q 2666 3584 2933 3390 
Q 3200 3197 3328 2828 
z
" transform="scale(0.015625)"/>
      </defs>
      <use xlink:href="#DejaVuSans-41"/>
      <use xlink:href="#DejaVuSans-76" x="62.533203"/>
      <use xlink:href="#DejaVuSans-65" x="121.712891"/>
      <use xlink:href="#DejaVuSans-72" x="183.236328"/>
      <use xlink:href="#DejaVuSans-61" x="224.349609"/>
      <use xlink:href="#DejaVuSans-67" x="285.628906"/>
      <use xlink:href="#DejaVuSans-65" x="349.105469"/>
      <use xlink:href="#DejaVuSans-20" x="410.628906"/>
      <use xlink:href="#DejaVuSans-64" x="442.416016"/>
      <use xlink:href="#DejaVuSans-69" x="505.892578"/>
      <use xlink:href="#DejaVuSans-73" x="533.675781"/>
      <use xlink:href="#DejaVuSans-63" x="585.775391"/>
      <use xlink:href="#DejaVuSans-72" x="640.755859"/>
      <use xlink:href="#DejaVuSans-69" x="681.869141"/>
      <use xlink:href="#DejaVuSans-6d" x="709.652344"/>
      <use xlink:href="#DejaVuSans-69" x="807.064453"/>
      <use xlink:href="#DejaVuSans-6e" x="834.847656"/>
      <use xlink:href="#DejaVuSans-61" x="898.226562"/>
      <use xlink:href="#DejaVuSans-74" x="959.505859"/>
      <use xlink:href="#DejaVuSans-6f" x="998.714844"/>
      <use xlink:href="#DejaVuSans-72" x="1059.896484"/>
      <use xlink:href="#DejaVuSans-20" x="1101.009766"/>
      <use xlink:href="#DejaVuSans-6c" x="1132.796875"/>
      <use xlink:href="#DejaVuSans-6f" x="1160.580078"/>
      <use xlink:href="#DejaVuSans-73" x="1221.761719"/>
      <use xlink:href="#DejaVuSans-73" x="1273.861328"/>
     </g>
    </g>
    <g id="line2d_30">
     <path d="M 245.124687 293.004312 
L 255.124687 293.004312 
L 265.124687 293.004312 
" style="fill: none; stroke: #ffff00; stroke-width: 3; stroke-linecap: square"/>
    </g>
    <g id="text_17">
     <!-- ROC AUC -->
     <g transform="translate(273.124687 296.504312) scale(0.1 -0.1)">
      <defs>
       <path id="DejaVuSans-52" d="M 2841 2188 
Q 3044 2119 3236 1894 
Q 3428 1669 3622 1275 
L 4263 0 
L 3584 0 
L 2988 1197 
Q 2756 1666 2539 1819 
Q 2322 1972 1947 1972 
L 1259 1972 
L 1259 0 
L 628 0 
L 628 4666 
L 2053 4666 
Q 2853 4666 3247 4331 
Q 3641 3997 3641 3322 
Q 3641 2881 3436 2590 
Q 3231 2300 2841 2188 
z
M 1259 4147 
L 1259 2491 
L 2053 2491 
Q 2509 2491 2742 2702 
Q 2975 2913 2975 3322 
Q 2975 3731 2742 3939 
Q 2509 4147 2053 4147 
L 1259 4147 
z
" transform="scale(0.015625)"/>
       <path id="DejaVuSans-4f" d="M 2522 4238 
Q 1834 4238 1429 3725 
Q 1025 3213 1025 2328 
Q 1025 1447 1429 934 
Q 1834 422 2522 422 
Q 3209 422 3611 934 
Q 4013 1447 4013 2328 
Q 4013 3213 3611 3725 
Q 3209 4238 2522 4238 
z
M 2522 4750 
Q 3503 4750 4090 4092 
Q 4678 3434 4678 2328 
Q 4678 1225 4090 567 
Q 3503 -91 2522 -91 
Q 1538 -91 948 565 
Q 359 1222 359 2328 
Q 359 3434 948 4092 
Q 1538 4750 2522 4750 
z
" transform="scale(0.015625)"/>
       <path id="DejaVuSans-43" d="M 4122 4306 
L 4122 3641 
Q 3803 3938 3442 4084 
Q 3081 4231 2675 4231 
Q 1875 4231 1450 3742 
Q 1025 3253 1025 2328 
Q 1025 1406 1450 917 
Q 1875 428 2675 428 
Q 3081 428 3442 575 
Q 3803 722 4122 1019 
L 4122 359 
Q 3791 134 3420 21 
Q 3050 -91 2638 -91 
Q 1578 -91 968 557 
Q 359 1206 359 2328 
Q 359 3453 968 4101 
Q 1578 4750 2638 4750 
Q 3056 4750 3426 4639 
Q 3797 4528 4122 4306 
z
" transform="scale(0.015625)"/>
       <path id="DejaVuSans-55" d="M 556 4666 
L 1191 4666 
L 1191 1831 
Q 1191 1081 1462 751 
Q 1734 422 2344 422 
Q 2950 422 3222 751 
Q 3494 1081 3494 1831 
L 3494 4666 
L 4128 4666 
L 4128 1753 
Q 4128 841 3676 375 
Q 3225 -91 2344 -91 
Q 1459 -91 1007 375 
Q 556 841 556 1753 
L 556 4666 
z
" transform="scale(0.015625)"/>
      </defs>
      <use xlink:href="#DejaVuSans-52"/>
      <use xlink:href="#DejaVuSans-4f" x="69.482422"/>
      <use xlink:href="#DejaVuSans-43" x="148.193359"/>
      <use xlink:href="#DejaVuSans-20" x="218.017578"/>
      <use xlink:href="#DejaVuSans-41" x="249.804688"/>
      <use xlink:href="#DejaVuSans-55" x="318.212891"/>
      <use xlink:href="#DejaVuSans-43" x="391.40625"/>
     </g>
    </g>
   </g>
  </g>
 </g>
 <defs>
  <clipPath id="p4c919e0b07">
   <rect x="57.6" y="41.472" width="357.12" height="266.112"/>
  </clipPath>
 </defs>
</svg>
