<?xml version="1.0" encoding="utf-8" standalone="no"?>
<!DOCTYPE svg PUBLIC "-//W3C//DTD SVG 1.1//EN"
  "http://www.w3.org/Graphics/SVG/1.1/DTD/svg11.dtd">
<svg xmlns:xlink="http://www.w3.org/1999/xlink" width="460.8pt" height="345.6pt" viewBox="0 0 460.8 345.6" xmlns="http://www.w3.org/2000/svg" version="1.1">
 <metadata>
  <rdf:RDF xmlns:dc="http://purl.org/dc/elements/1.1/" xmlns:cc="http://creativecommons.org/ns#" xmlns:rdf="http://www.w3.org/1999/02/22-rdf-syntax-ns#">
   <cc:Work>
    <dc:type rdf:resource="http://purl.org/dc/dcmitype/StillImage"/>
    <dc:date>2023-07-13T07:33:57.317513</dc:date>
    <dc:format>image/svg+xml</dc:format>
    <dc:creator>
     <cc:Agent>
      <dc:title>Matplotlib v3.7.1, https://matplotlib.org/</dc:title>
     </cc:Agent>
    </dc:creator>
   </cc:Work>
  </rdf:RDF>
 </metadata>
 <defs>
  <style type="text/css">*{stroke-linejoin: round; stroke-linecap: butt}</style>
 </defs>
 <g id="figure_1">
  <g id="patch_1">
   <path d="M 0 345.6 
L 460.8 345.6 
L 460.8 0 
L 0 0 
z
" style="fill: #ffffff"/>
  </g>
  <g id="axes_1">
   <g id="patch_2">
    <path d="M 57.6 307.584 
L 414.72 307.584 
L 414.72 41.472 
L 57.6 41.472 
z
" style="fill: #e5e5e5"/>
   </g>
   <g id="matplotlib.axis_1">
    <g id="xtick_1">
     <g id="line2d_1">
      <path d="M 73.109666 307.584 
L 73.109666 41.472 
" clip-path="url(#p5a9da1af94)" style="fill: none; stroke: #ffffff; stroke-width: 0.8; stroke-linecap: square"/>
     </g>
     <g id="line2d_2">
      <defs>
       <path id="meea05b3b93" d="M 0 0 
L 0 3.5 
" style="stroke: #555555; stroke-width: 0.8"/>
      </defs>
      <g>
       <use xlink:href="#meea05b3b93" x="73.109666" y="307.584" style="fill: #555555; stroke: #555555; stroke-width: 0.8"/>
      </g>
     </g>
     <g id="text_1">
      <!-- 0 -->
      <g style="fill: #555555" transform="translate(69.928416 322.182437) scale(0.1 -0.1)">
       <defs>
        <path id="DejaVuSans-30" d="M 2034 4250 
Q 1547 4250 1301 3770 
Q 1056 3291 1056 2328 
Q 1056 1369 1301 889 
Q 1547 409 2034 409 
Q 2525 409 2770 889 
Q 3016 1369 3016 2328 
Q 3016 3291 2770 3770 
Q 2525 4250 2034 4250 
z
M 2034 4750 
Q 2819 4750 3233 4129 
Q 3647 3509 3647 2328 
Q 3647 1150 3233 529 
Q 2819 -91 2034 -91 
Q 1250 -91 836 529 
Q 422 1150 422 2328 
Q 422 3509 836 4129 
Q 1250 4750 2034 4750 
z
" transform="scale(0.015625)"/>
       </defs>
       <use xlink:href="#DejaVuSans-30"/>
      </g>
     </g>
    </g>
    <g id="xtick_2">
     <g id="line2d_3">
      <path d="M 145.415801 307.584 
L 145.415801 41.472 
" clip-path="url(#p5a9da1af94)" style="fill: none; stroke: #ffffff; stroke-width: 0.8; stroke-linecap: square"/>
     </g>
     <g id="line2d_4">
      <g>
       <use xlink:href="#meea05b3b93" x="145.415801" y="307.584" style="fill: #555555; stroke: #555555; stroke-width: 0.8"/>
      </g>
     </g>
     <g id="text_2">
      <!-- 100 -->
      <g style="fill: #555555" transform="translate(135.872051 322.182437) scale(0.1 -0.1)">
       <defs>
        <path id="DejaVuSans-31" d="M 794 531 
L 1825 531 
L 1825 4091 
L 703 3866 
L 703 4441 
L 1819 4666 
L 2450 4666 
L 2450 531 
L 3481 531 
L 3481 0 
L 794 0 
L 794 531 
z
" transform="scale(0.015625)"/>
       </defs>
       <use xlink:href="#DejaVuSans-31"/>
       <use xlink:href="#DejaVuSans-30" x="63.623047"/>
       <use xlink:href="#DejaVuSans-30" x="127.246094"/>
      </g>
     </g>
    </g>
    <g id="xtick_3">
     <g id="line2d_5">
      <path d="M 217.721936 307.584 
L 217.721936 41.472 
" clip-path="url(#p5a9da1af94)" style="fill: none; stroke: #ffffff; stroke-width: 0.8; stroke-linecap: square"/>
     </g>
     <g id="line2d_6">
      <g>
       <use xlink:href="#meea05b3b93" x="217.721936" y="307.584" style="fill: #555555; stroke: #555555; stroke-width: 0.8"/>
      </g>
     </g>
     <g id="text_3">
      <!-- 200 -->
      <g style="fill: #555555" transform="translate(208.178186 322.182437) scale(0.1 -0.1)">
       <defs>
        <path id="DejaVuSans-32" d="M 1228 531 
L 3431 531 
L 3431 0 
L 469 0 
L 469 531 
Q 828 903 1448 1529 
Q 2069 2156 2228 2338 
Q 2531 2678 2651 2914 
Q 2772 3150 2772 3378 
Q 2772 3750 2511 3984 
Q 2250 4219 1831 4219 
Q 1534 4219 1204 4116 
Q 875 4013 500 3803 
L 500 4441 
Q 881 4594 1212 4672 
Q 1544 4750 1819 4750 
Q 2544 4750 2975 4387 
Q 3406 4025 3406 3419 
Q 3406 3131 3298 2873 
Q 3191 2616 2906 2266 
Q 2828 2175 2409 1742 
Q 1991 1309 1228 531 
z
" transform="scale(0.015625)"/>
       </defs>
       <use xlink:href="#DejaVuSans-32"/>
       <use xlink:href="#DejaVuSans-30" x="63.623047"/>
       <use xlink:href="#DejaVuSans-30" x="127.246094"/>
      </g>
     </g>
    </g>
    <g id="xtick_4">
     <g id="line2d_7">
      <path d="M 290.02807 307.584 
L 290.02807 41.472 
" clip-path="url(#p5a9da1af94)" style="fill: none; stroke: #ffffff; stroke-width: 0.8; stroke-linecap: square"/>
     </g>
     <g id="line2d_8">
      <g>
       <use xlink:href="#meea05b3b93" x="290.02807" y="307.584" style="fill: #555555; stroke: #555555; stroke-width: 0.8"/>
      </g>
     </g>
     <g id="text_4">
      <!-- 300 -->
      <g style="fill: #555555" transform="translate(280.48432 322.182437) scale(0.1 -0.1)">
       <defs>
        <path id="DejaVuSans-33" d="M 2597 2516 
Q 3050 2419 3304 2112 
Q 3559 1806 3559 1356 
Q 3559 666 3084 287 
Q 2609 -91 1734 -91 
Q 1441 -91 1130 -33 
Q 819 25 488 141 
L 488 750 
Q 750 597 1062 519 
Q 1375 441 1716 441 
Q 2309 441 2620 675 
Q 2931 909 2931 1356 
Q 2931 1769 2642 2001 
Q 2353 2234 1838 2234 
L 1294 2234 
L 1294 2753 
L 1863 2753 
Q 2328 2753 2575 2939 
Q 2822 3125 2822 3475 
Q 2822 3834 2567 4026 
Q 2313 4219 1838 4219 
Q 1578 4219 1281 4162 
Q 984 4106 628 3988 
L 628 4550 
Q 988 4650 1302 4700 
Q 1616 4750 1894 4750 
Q 2613 4750 3031 4423 
Q 3450 4097 3450 3541 
Q 3450 3153 3228 2886 
Q 3006 2619 2597 2516 
z
" transform="scale(0.015625)"/>
       </defs>
       <use xlink:href="#DejaVuSans-33"/>
       <use xlink:href="#DejaVuSans-30" x="63.623047"/>
       <use xlink:href="#DejaVuSans-30" x="127.246094"/>
      </g>
     </g>
    </g>
    <g id="xtick_5">
     <g id="line2d_9">
      <path d="M 362.334205 307.584 
L 362.334205 41.472 
" clip-path="url(#p5a9da1af94)" style="fill: none; stroke: #ffffff; stroke-width: 0.8; stroke-linecap: square"/>
     </g>
     <g id="line2d_10">
      <g>
       <use xlink:href="#meea05b3b93" x="362.334205" y="307.584" style="fill: #555555; stroke: #555555; stroke-width: 0.8"/>
      </g>
     </g>
     <g id="text_5">
      <!-- 400 -->
      <g style="fill: #555555" transform="translate(352.790455 322.182437) scale(0.1 -0.1)">
       <defs>
        <path id="DejaVuSans-34" d="M 2419 4116 
L 825 1625 
L 2419 1625 
L 2419 4116 
z
M 2253 4666 
L 3047 4666 
L 3047 1625 
L 3713 1625 
L 3713 1100 
L 3047 1100 
L 3047 0 
L 2419 0 
L 2419 1100 
L 313 1100 
L 313 1709 
L 2253 4666 
z
" transform="scale(0.015625)"/>
       </defs>
       <use xlink:href="#DejaVuSans-34"/>
       <use xlink:href="#DejaVuSans-30" x="63.623047"/>
       <use xlink:href="#DejaVuSans-30" x="127.246094"/>
      </g>
     </g>
    </g>
    <g id="text_6">
     <!-- Epoch -->
     <g style="fill: #555555" transform="translate(217.786875 337.38025) scale(0.12 -0.12)">
      <defs>
       <path id="DejaVuSans-45" d="M 628 4666 
L 3578 4666 
L 3578 4134 
L 1259 4134 
L 1259 2753 
L 3481 2753 
L 3481 2222 
L 1259 2222 
L 1259 531 
L 3634 531 
L 3634 0 
L 628 0 
L 628 4666 
z
" transform="scale(0.015625)"/>
       <path id="DejaVuSans-70" d="M 1159 525 
L 1159 -1331 
L 581 -1331 
L 581 3500 
L 1159 3500 
L 1159 2969 
Q 1341 3281 1617 3432 
Q 1894 3584 2278 3584 
Q 2916 3584 3314 3078 
Q 3713 2572 3713 1747 
Q 3713 922 3314 415 
Q 2916 -91 2278 -91 
Q 1894 -91 1617 61 
Q 1341 213 1159 525 
z
M 3116 1747 
Q 3116 2381 2855 2742 
Q 2594 3103 2138 3103 
Q 1681 3103 1420 2742 
Q 1159 2381 1159 1747 
Q 1159 1113 1420 752 
Q 1681 391 2138 391 
Q 2594 391 2855 752 
Q 3116 1113 3116 1747 
z
" transform="scale(0.015625)"/>
       <path id="DejaVuSans-6f" d="M 1959 3097 
Q 1497 3097 1228 2736 
Q 959 2375 959 1747 
Q 959 1119 1226 758 
Q 1494 397 1959 397 
Q 2419 397 2687 759 
Q 2956 1122 2956 1747 
Q 2956 2369 2687 2733 
Q 2419 3097 1959 3097 
z
M 1959 3584 
Q 2709 3584 3137 3096 
Q 3566 2609 3566 1747 
Q 3566 888 3137 398 
Q 2709 -91 1959 -91 
Q 1206 -91 779 398 
Q 353 888 353 1747 
Q 353 2609 779 3096 
Q 1206 3584 1959 3584 
z
" transform="scale(0.015625)"/>
       <path id="DejaVuSans-63" d="M 3122 3366 
L 3122 2828 
Q 2878 2963 2633 3030 
Q 2388 3097 2138 3097 
Q 1578 3097 1268 2742 
Q 959 2388 959 1747 
Q 959 1106 1268 751 
Q 1578 397 2138 397 
Q 2388 397 2633 464 
Q 2878 531 3122 666 
L 3122 134 
Q 2881 22 2623 -34 
Q 2366 -91 2075 -91 
Q 1284 -91 818 406 
Q 353 903 353 1747 
Q 353 2603 823 3093 
Q 1294 3584 2113 3584 
Q 2378 3584 2631 3529 
Q 2884 3475 3122 3366 
z
" transform="scale(0.015625)"/>
       <path id="DejaVuSans-68" d="M 3513 2113 
L 3513 0 
L 2938 0 
L 2938 2094 
Q 2938 2591 2744 2837 
Q 2550 3084 2163 3084 
Q 1697 3084 1428 2787 
Q 1159 2491 1159 1978 
L 1159 0 
L 581 0 
L 581 4863 
L 1159 4863 
L 1159 2956 
Q 1366 3272 1645 3428 
Q 1925 3584 2291 3584 
Q 2894 3584 3203 3211 
Q 3513 2838 3513 2113 
z
" transform="scale(0.015625)"/>
      </defs>
      <use xlink:href="#DejaVuSans-45"/>
      <use xlink:href="#DejaVuSans-70" x="63.183594"/>
      <use xlink:href="#DejaVuSans-6f" x="126.660156"/>
      <use xlink:href="#DejaVuSans-63" x="187.841797"/>
      <use xlink:href="#DejaVuSans-68" x="242.822266"/>
     </g>
    </g>
   </g>
   <g id="matplotlib.axis_2">
    <g id="ytick_1">
     <g id="line2d_11">
      <path d="M 57.6 289.838761 
L 414.72 289.838761 
" clip-path="url(#p5a9da1af94)" style="fill: none; stroke: #ffffff; stroke-width: 0.8; stroke-linecap: square"/>
     </g>
     <g id="line2d_12">
      <defs>
       <path id="m75b229d1c1" d="M 0 0 
L -3.5 0 
" style="stroke: #555555; stroke-width: 0.8"/>
      </defs>
      <g>
       <use xlink:href="#m75b229d1c1" x="57.6" y="289.838761" style="fill: #555555; stroke: #555555; stroke-width: 0.8"/>
      </g>
     </g>
     <g id="text_7">
      <!-- 0.4 -->
      <g style="fill: #555555" transform="translate(34.696875 293.637979) scale(0.1 -0.1)">
       <defs>
        <path id="DejaVuSans-2e" d="M 684 794 
L 1344 794 
L 1344 0 
L 684 0 
L 684 794 
z
" transform="scale(0.015625)"/>
       </defs>
       <use xlink:href="#DejaVuSans-30"/>
       <use xlink:href="#DejaVuSans-2e" x="63.623047"/>
       <use xlink:href="#DejaVuSans-34" x="95.410156"/>
      </g>
     </g>
    </g>
    <g id="ytick_2">
     <g id="line2d_13">
      <path d="M 57.6 254.746257 
L 414.72 254.746257 
" clip-path="url(#p5a9da1af94)" style="fill: none; stroke: #ffffff; stroke-width: 0.8; stroke-linecap: square"/>
     </g>
     <g id="line2d_14">
      <g>
       <use xlink:href="#m75b229d1c1" x="57.6" y="254.746257" style="fill: #555555; stroke: #555555; stroke-width: 0.8"/>
      </g>
     </g>
     <g id="text_8">
      <!-- 0.6 -->
      <g style="fill: #555555" transform="translate(34.696875 258.545476) scale(0.1 -0.1)">
       <defs>
        <path id="DejaVuSans-36" d="M 2113 2584 
Q 1688 2584 1439 2293 
Q 1191 2003 1191 1497 
Q 1191 994 1439 701 
Q 1688 409 2113 409 
Q 2538 409 2786 701 
Q 3034 994 3034 1497 
Q 3034 2003 2786 2293 
Q 2538 2584 2113 2584 
z
M 3366 4563 
L 3366 3988 
Q 3128 4100 2886 4159 
Q 2644 4219 2406 4219 
Q 1781 4219 1451 3797 
Q 1122 3375 1075 2522 
Q 1259 2794 1537 2939 
Q 1816 3084 2150 3084 
Q 2853 3084 3261 2657 
Q 3669 2231 3669 1497 
Q 3669 778 3244 343 
Q 2819 -91 2113 -91 
Q 1303 -91 875 529 
Q 447 1150 447 2328 
Q 447 3434 972 4092 
Q 1497 4750 2381 4750 
Q 2619 4750 2861 4703 
Q 3103 4656 3366 4563 
z
" transform="scale(0.015625)"/>
       </defs>
       <use xlink:href="#DejaVuSans-30"/>
       <use xlink:href="#DejaVuSans-2e" x="63.623047"/>
       <use xlink:href="#DejaVuSans-36" x="95.410156"/>
      </g>
     </g>
    </g>
    <g id="ytick_3">
     <g id="line2d_15">
      <path d="M 57.6 219.653754 
L 414.72 219.653754 
" clip-path="url(#p5a9da1af94)" style="fill: none; stroke: #ffffff; stroke-width: 0.8; stroke-linecap: square"/>
     </g>
     <g id="line2d_16">
      <g>
       <use xlink:href="#m75b229d1c1" x="57.6" y="219.653754" style="fill: #555555; stroke: #555555; stroke-width: 0.8"/>
      </g>
     </g>
     <g id="text_9">
      <!-- 0.8 -->
      <g style="fill: #555555" transform="translate(34.696875 223.452973) scale(0.1 -0.1)">
       <defs>
        <path id="DejaVuSans-38" d="M 2034 2216 
Q 1584 2216 1326 1975 
Q 1069 1734 1069 1313 
Q 1069 891 1326 650 
Q 1584 409 2034 409 
Q 2484 409 2743 651 
Q 3003 894 3003 1313 
Q 3003 1734 2745 1975 
Q 2488 2216 2034 2216 
z
M 1403 2484 
Q 997 2584 770 2862 
Q 544 3141 544 3541 
Q 544 4100 942 4425 
Q 1341 4750 2034 4750 
Q 2731 4750 3128 4425 
Q 3525 4100 3525 3541 
Q 3525 3141 3298 2862 
Q 3072 2584 2669 2484 
Q 3125 2378 3379 2068 
Q 3634 1759 3634 1313 
Q 3634 634 3220 271 
Q 2806 -91 2034 -91 
Q 1263 -91 848 271 
Q 434 634 434 1313 
Q 434 1759 690 2068 
Q 947 2378 1403 2484 
z
M 1172 3481 
Q 1172 3119 1398 2916 
Q 1625 2713 2034 2713 
Q 2441 2713 2670 2916 
Q 2900 3119 2900 3481 
Q 2900 3844 2670 4047 
Q 2441 4250 2034 4250 
Q 1625 4250 1398 4047 
Q 1172 3844 1172 3481 
z
" transform="scale(0.015625)"/>
       </defs>
       <use xlink:href="#DejaVuSans-30"/>
       <use xlink:href="#DejaVuSans-2e" x="63.623047"/>
       <use xlink:href="#DejaVuSans-38" x="95.410156"/>
      </g>
     </g>
    </g>
    <g id="ytick_4">
     <g id="line2d_17">
      <path d="M 57.6 184.561251 
L 414.72 184.561251 
" clip-path="url(#p5a9da1af94)" style="fill: none; stroke: #ffffff; stroke-width: 0.8; stroke-linecap: square"/>
     </g>
     <g id="line2d_18">
      <g>
       <use xlink:href="#m75b229d1c1" x="57.6" y="184.561251" style="fill: #555555; stroke: #555555; stroke-width: 0.8"/>
      </g>
     </g>
     <g id="text_10">
      <!-- 1.0 -->
      <g style="fill: #555555" transform="translate(34.696875 188.360469) scale(0.1 -0.1)">
       <use xlink:href="#DejaVuSans-31"/>
       <use xlink:href="#DejaVuSans-2e" x="63.623047"/>
       <use xlink:href="#DejaVuSans-30" x="95.410156"/>
      </g>
     </g>
    </g>
    <g id="ytick_5">
     <g id="line2d_19">
      <path d="M 57.6 149.468747 
L 414.72 149.468747 
" clip-path="url(#p5a9da1af94)" style="fill: none; stroke: #ffffff; stroke-width: 0.8; stroke-linecap: square"/>
     </g>
     <g id="line2d_20">
      <g>
       <use xlink:href="#m75b229d1c1" x="57.6" y="149.468747" style="fill: #555555; stroke: #555555; stroke-width: 0.8"/>
      </g>
     </g>
     <g id="text_11">
      <!-- 1.2 -->
      <g style="fill: #555555" transform="translate(34.696875 153.267966) scale(0.1 -0.1)">
       <use xlink:href="#DejaVuSans-31"/>
       <use xlink:href="#DejaVuSans-2e" x="63.623047"/>
       <use xlink:href="#DejaVuSans-32" x="95.410156"/>
      </g>
     </g>
    </g>
    <g id="ytick_6">
     <g id="line2d_21">
      <path d="M 57.6 114.376244 
L 414.72 114.376244 
" clip-path="url(#p5a9da1af94)" style="fill: none; stroke: #ffffff; stroke-width: 0.8; stroke-linecap: square"/>
     </g>
     <g id="line2d_22">
      <g>
       <use xlink:href="#m75b229d1c1" x="57.6" y="114.376244" style="fill: #555555; stroke: #555555; stroke-width: 0.8"/>
      </g>
     </g>
     <g id="text_12">
      <!-- 1.4 -->
      <g style="fill: #555555" transform="translate(34.696875 118.175463) scale(0.1 -0.1)">
       <use xlink:href="#DejaVuSans-31"/>
       <use xlink:href="#DejaVuSans-2e" x="63.623047"/>
       <use xlink:href="#DejaVuSans-34" x="95.410156"/>
      </g>
     </g>
    </g>
    <g id="ytick_7">
     <g id="line2d_23">
      <path d="M 57.6 79.283741 
L 414.72 79.283741 
" clip-path="url(#p5a9da1af94)" style="fill: none; stroke: #ffffff; stroke-width: 0.8; stroke-linecap: square"/>
     </g>
     <g id="line2d_24">
      <g>
       <use xlink:href="#m75b229d1c1" x="57.6" y="79.283741" style="fill: #555555; stroke: #555555; stroke-width: 0.8"/>
      </g>
     </g>
     <g id="text_13">
      <!-- 1.6 -->
      <g style="fill: #555555" transform="translate(34.696875 83.082959) scale(0.1 -0.1)">
       <use xlink:href="#DejaVuSans-31"/>
       <use xlink:href="#DejaVuSans-2e" x="63.623047"/>
       <use xlink:href="#DejaVuSans-36" x="95.410156"/>
      </g>
     </g>
    </g>
    <g id="ytick_8">
     <g id="line2d_25">
      <path d="M 57.6 44.191237 
L 414.72 44.191237 
" clip-path="url(#p5a9da1af94)" style="fill: none; stroke: #ffffff; stroke-width: 0.8; stroke-linecap: square"/>
     </g>
     <g id="line2d_26">
      <g>
       <use xlink:href="#m75b229d1c1" x="57.6" y="44.191237" style="fill: #555555; stroke: #555555; stroke-width: 0.8"/>
      </g>
     </g>
     <g id="text_14">
      <!-- 1.8 -->
      <g style="fill: #555555" transform="translate(34.696875 47.990456) scale(0.1 -0.1)">
       <use xlink:href="#DejaVuSans-31"/>
       <use xlink:href="#DejaVuSans-2e" x="63.623047"/>
       <use xlink:href="#DejaVuSans-38" x="95.410156"/>
      </g>
     </g>
    </g>
    <g id="text_15">
     <!-- Loss -->
     <g style="fill: #555555" transform="translate(28.20125 187.688625) rotate(-90) scale(0.12 -0.12)">
      <defs>
       <path id="DejaVuSans-4c" d="M 628 4666 
L 1259 4666 
L 1259 531 
L 3531 531 
L 3531 0 
L 628 0 
L 628 4666 
z
" transform="scale(0.015625)"/>
       <path id="DejaVuSans-73" d="M 2834 3397 
L 2834 2853 
Q 2591 2978 2328 3040 
Q 2066 3103 1784 3103 
Q 1356 3103 1142 2972 
Q 928 2841 928 2578 
Q 928 2378 1081 2264 
Q 1234 2150 1697 2047 
L 1894 2003 
Q 2506 1872 2764 1633 
Q 3022 1394 3022 966 
Q 3022 478 2636 193 
Q 2250 -91 1575 -91 
Q 1294 -91 989 -36 
Q 684 19 347 128 
L 347 722 
Q 666 556 975 473 
Q 1284 391 1588 391 
Q 1994 391 2212 530 
Q 2431 669 2431 922 
Q 2431 1156 2273 1281 
Q 2116 1406 1581 1522 
L 1381 1569 
Q 847 1681 609 1914 
Q 372 2147 372 2553 
Q 372 3047 722 3315 
Q 1072 3584 1716 3584 
Q 2034 3584 2315 3537 
Q 2597 3491 2834 3397 
z
" transform="scale(0.015625)"/>
      </defs>
      <use xlink:href="#DejaVuSans-4c"/>
      <use xlink:href="#DejaVuSans-6f" x="53.962891"/>
      <use xlink:href="#DejaVuSans-73" x="115.144531"/>
      <use xlink:href="#DejaVuSans-73" x="167.244141"/>
     </g>
    </g>
   </g>
   <g id="line2d_27">
    <path d="M 73.832727 228.922816 
L 74.555789 226.564451 
L 75.27885 223.349775 
L 76.001911 219.385463 
L 77.448034 209.789428 
L 79.617218 191.146381 
L 81.063341 177.042972 
L 83.232525 154.298189 
L 84.678647 138.213659 
L 86.12477 123.021648 
L 86.847832 114.456192 
L 89.740077 86.102768 
L 90.463138 81.450797 
L 91.909261 69.682357 
L 93.355384 63.369595 
L 94.078445 58.828294 
L 94.801506 55.214756 
L 95.524568 54.616223 
L 96.247629 55.747401 
L 96.97069 53.568 
L 97.693752 54.172327 
L 98.416813 54.038083 
L 99.139874 53.682143 
L 99.862936 57.463935 
L 100.585997 60.117624 
L 101.309059 61.070801 
L 102.03212 64.156044 
L 102.755181 63.492773 
L 103.478243 68.291769 
L 104.201304 70.556573 
L 104.924365 72.127087 
L 105.647427 75.4909 
L 106.370488 77.849955 
L 107.093549 81.47186 
L 108.539672 85.934367 
L 109.262733 86.789926 
L 109.985795 90.938222 
L 110.708856 92.015623 
L 111.431917 94.627269 
L 113.601101 100.857891 
L 114.324163 103.141144 
L 115.047224 104.433277 
L 115.770285 107.63009 
L 116.493347 107.781758 
L 117.216408 111.770584 
L 117.93947 113.935929 
L 119.385592 119.873006 
L 120.108654 121.463621 
L 120.831715 123.400555 
L 121.554776 126.299409 
L 122.277838 131.217254 
L 123.000899 131.997093 
L 123.72396 135.438821 
L 124.447022 138.102675 
L 125.170083 141.725019 
L 125.893144 143.820439 
L 126.616206 147.588301 
L 127.339267 150.660932 
L 128.062328 154.9747 
L 128.78539 158.110165 
L 129.508451 159.119524 
L 130.231512 163.00362 
L 130.954574 165.821652 
L 131.677635 168.122872 
L 132.400696 169.729258 
L 133.123758 173.445058 
L 133.846819 176.123052 
L 134.569881 180.196132 
L 135.292942 180.123216 
L 136.016003 185.27035 
L 136.739065 188.775518 
L 137.462126 190.981034 
L 138.185187 192.670334 
L 138.908249 195.437287 
L 139.63131 199.699402 
L 140.354371 200.237172 
L 141.077433 204.390508 
L 141.800494 207.820073 
L 142.523555 207.923172 
L 143.246617 210.271015 
L 143.969678 214.233089 
L 144.692739 214.840376 
L 145.415801 218.819089 
L 147.584985 226.994667 
L 148.308046 230.268747 
L 149.031108 231.975534 
L 149.754169 232.233741 
L 150.47723 233.79547 
L 151.923353 238.942468 
L 152.646414 240.596775 
L 153.369476 239.859741 
L 154.815598 242.11779 
L 155.53866 245.849894 
L 156.261721 244.564831 
L 156.984782 245.862277 
L 157.707844 245.828998 
L 159.153966 247.182449 
L 161.32315 246.887512 
L 162.046212 247.265227 
L 162.769273 247.82931 
L 163.492334 246.994763 
L 164.215396 247.916523 
L 164.938457 247.05174 
L 165.661519 247.564975 
L 166.38458 247.014393 
L 167.107641 246.741084 
L 167.830703 247.204558 
L 168.553764 246.31022 
L 169.999887 246.874617 
L 170.722948 246.110789 
L 171.446009 246.26276 
L 173.615193 245.819471 
L 174.338255 245.177514 
L 175.061316 245.326588 
L 175.784377 244.649094 
L 176.507439 244.723809 
L 177.2305 245.013161 
L 178.676623 244.671402 
L 179.399684 244.558326 
L 180.122745 244.999304 
L 180.845807 244.457403 
L 181.568868 244.73159 
L 182.29193 243.885455 
L 183.014991 244.404305 
L 185.184175 241.180457 
L 185.907236 241.298846 
L 186.630298 240.255288 
L 187.353359 240.244652 
L 188.07642 240.545435 
L 188.799482 240.97061 
L 190.245604 240.816181 
L 190.968666 241.459236 
L 191.691727 241.870344 
L 193.13785 241.970044 
L 194.583972 242.475602 
L 195.307034 242.342132 
L 196.030095 241.666605 
L 196.753157 241.395628 
L 197.476218 240.897914 
L 198.199279 240.578734 
L 199.645402 240.638065 
L 200.368463 239.865514 
L 201.091525 239.874906 
L 201.814586 239.641621 
L 202.537647 239.950091 
L 203.260709 239.477728 
L 204.706831 239.913173 
L 205.429893 239.202767 
L 206.152954 239.770992 
L 206.876015 239.306409 
L 207.599077 239.439848 
L 208.322138 238.874761 
L 209.045199 239.29798 
L 209.768261 239.006881 
L 210.491322 238.46178 
L 211.214383 238.469164 
L 211.937445 238.828074 
L 212.660506 238.903071 
L 213.383568 238.609526 
L 214.106629 238.469111 
L 214.82969 237.911073 
L 215.552752 238.194181 
L 216.275813 238.035936 
L 216.998874 238.400463 
L 217.721936 237.686709 
L 219.168058 237.737046 
L 219.89112 237.569074 
L 220.614181 237.204704 
L 221.337242 237.359111 
L 222.060304 237.644008 
L 222.783365 237.509942 
L 223.506426 236.810329 
L 224.229488 237.446209 
L 224.952549 236.812723 
L 225.67561 236.628761 
L 226.398672 236.764981 
L 227.121733 236.080867 
L 227.844794 236.866762 
L 228.567856 236.424059 
L 229.290917 236.805528 
L 230.013979 236.593338 
L 230.73704 235.586834 
L 231.460101 236.30682 
L 232.183163 235.516439 
L 232.906224 236.407137 
L 233.629285 235.155237 
L 234.352347 235.568103 
L 235.075408 235.25751 
L 235.798469 235.263586 
L 236.521531 235.497739 
L 237.244592 234.787082 
L 237.967653 235.199351 
L 238.690715 235.48066 
L 239.413776 235.202384 
L 240.136837 235.620332 
L 240.859899 235.045926 
L 241.58296 234.840775 
L 242.306021 234.424835 
L 243.029083 233.775829 
L 243.752144 234.433254 
L 244.475206 234.889553 
L 245.198267 233.469294 
L 245.921328 233.566432 
L 246.64439 233.789101 
L 247.367451 233.857959 
L 248.090512 233.462977 
L 248.813574 233.810007 
L 249.536635 233.792155 
L 250.259696 234.371664 
L 250.982758 233.259227 
L 253.875003 233.021728 
L 254.598064 233.0325 
L 255.321126 232.80365 
L 256.044187 232.936837 
L 256.767248 232.753606 
L 257.49031 232.171106 
L 258.213371 232.609929 
L 258.936432 232.411837 
L 259.659494 231.800523 
L 260.382555 233.037353 
L 261.105617 231.542902 
L 261.828678 231.86799 
L 262.551739 231.733694 
L 263.274801 232.331422 
L 263.997862 230.508213 
L 264.720923 230.52025 
L 265.443985 231.578168 
L 266.167046 231.441581 
L 266.890107 231.523606 
L 267.613169 231.339382 
L 268.33623 230.700804 
L 269.059291 230.340105 
L 269.782353 230.55881 
L 270.505414 229.961166 
L 271.228475 230.452658 
L 271.951537 230.1869 
L 272.674598 230.263309 
L 273.397659 229.447283 
L 274.120721 229.787954 
L 275.566843 229.503853 
L 276.289905 230.38974 
L 277.012966 227.665426 
L 278.459089 230.457626 
L 279.905212 228.695807 
L 280.628273 228.141021 
L 281.351334 229.107501 
L 282.074396 228.441292 
L 284.24358 227.883494 
L 284.966641 228.468525 
L 285.689702 227.051634 
L 286.412764 229.013292 
L 287.135825 227.005471 
L 287.858886 226.9637 
L 288.581948 227.663031 
L 289.305009 227.392431 
L 290.02807 227.584332 
L 290.751132 225.746125 
L 291.474193 226.911732 
L 292.197255 227.126589 
L 292.920316 226.662425 
L 293.643377 226.644176 
L 294.366439 225.366622 
L 295.0895 225.807589 
L 295.812561 225.153773 
L 296.535623 227.064854 
L 297.258684 225.917454 
L 297.981745 225.646195 
L 298.704807 224.839927 
L 299.427868 224.778547 
L 300.150929 225.119082 
L 300.873991 224.515707 
L 301.597052 224.531175 
L 302.320113 224.358967 
L 303.043175 224.815214 
L 303.766236 223.697684 
L 304.489297 223.494509 
L 305.212359 225.50075 
L 305.93542 223.584629 
L 306.658481 223.981691 
L 307.381543 223.668107 
L 308.104604 221.741151 
L 308.827666 223.163355 
L 309.550727 223.132534 
L 310.273788 221.41532 
L 310.99685 223.561275 
L 311.719911 222.881376 
L 312.442972 221.654681 
L 313.166034 221.798734 
L 314.612156 222.668244 
L 315.335218 221.936733 
L 316.058279 221.508703 
L 316.78134 220.811641 
L 317.504402 221.505408 
L 318.227463 222.001376 
L 318.950524 220.210253 
L 319.673586 219.160054 
L 320.396647 219.678057 
L 321.119708 221.674939 
L 321.84277 220.167823 
L 322.565831 220.106192 
L 323.288892 219.490695 
L 324.011954 220.975848 
L 324.735015 218.379932 
L 325.458077 220.258696 
L 326.181138 218.334542 
L 326.904199 219.708502 
L 327.627261 218.730078 
L 328.350322 219.392136 
L 329.073383 218.364234 
L 329.796445 216.703432 
L 330.519506 217.634333 
L 331.242567 217.934676 
L 331.965629 217.239205 
L 332.68869 219.282396 
L 333.411751 216.650994 
L 334.134813 216.997104 
L 334.857874 218.591442 
L 335.580935 217.570338 
L 336.303997 215.920957 
L 337.027058 215.390226 
L 337.750119 215.634387 
L 338.473181 216.611618 
L 339.196242 215.177481 
L 339.919304 215.310575 
L 340.642365 215.932137 
L 341.365426 215.412125 
L 342.088488 215.155717 
L 342.811549 215.651445 
L 343.53461 214.964611 
L 344.257672 213.337779 
L 344.980733 214.226574 
L 345.703794 214.654991 
L 346.426856 213.974799 
L 347.149917 213.592921 
L 347.872978 211.798033 
L 348.59604 213.664791 
L 349.319101 213.146966 
L 350.042162 213.974987 
L 350.765224 215.269536 
L 351.488285 212.887127 
L 352.211346 211.007652 
L 352.934408 211.834104 
L 353.657469 210.427536 
L 354.38053 211.005821 
L 355.103592 210.994652 
L 355.826653 213.065296 
L 356.549715 212.665357 
L 357.272776 211.587391 
L 357.995837 212.959217 
L 359.44196 206.880586 
L 360.165021 209.576548 
L 360.888083 208.526254 
L 361.611144 211.818521 
L 362.334205 211.837106 
L 363.057267 208.638609 
L 365.226451 208.305917 
L 365.949512 208.497703 
L 366.672573 208.48577 
L 367.395635 206.47684 
L 368.118696 206.863152 
L 368.841757 207.756204 
L 369.564819 208.456235 
L 370.28788 207.786209 
L 371.010941 206.426556 
L 371.734003 207.09035 
L 372.457064 206.830156 
L 373.180126 205.966367 
L 373.903187 206.719381 
L 374.626248 205.877523 
L 375.34931 203.210845 
L 376.072371 207.596034 
L 376.795432 206.96714 
L 377.518494 202.860364 
L 378.241555 204.128338 
L 378.964616 204.85005 
L 379.687678 205.778409 
L 380.410739 203.806711 
L 381.1338 202.756784 
L 381.856862 204.527032 
L 382.579923 202.887576 
L 383.302984 203.923092 
L 384.026046 202.190703 
L 384.749107 202.955817 
L 385.472168 202.124052 
L 386.19523 201.622175 
L 386.918291 203.544268 
L 387.641353 200.281912 
L 388.364414 200.651993 
L 389.087475 201.452728 
L 389.810537 201.112758 
L 390.533598 203.867317 
L 391.256659 199.512479 
L 391.979721 199.618799 
L 392.702782 199.000907 
L 393.425843 200.15135 
L 394.148905 202.303999 
L 394.871966 196.962245 
L 395.595027 199.975775 
L 396.318089 201.971098 
L 397.04115 198.942978 
L 397.764211 197.783949 
L 398.487273 198.534694 
L 398.487273 198.534694 
" clip-path="url(#p5a9da1af94)" style="fill: none; stroke: #6495ed; stroke-width: 2; stroke-linecap: square"/>
   </g>
   <g id="line2d_28">
    <path d="M 73.832727 241.490715 
L 74.555789 242.053456 
L 75.27885 243.024697 
L 76.001911 244.320058 
L 77.448034 247.540703 
L 83.232525 263.621464 
L 83.955586 266.066873 
L 84.678647 267.338172 
L 87.570893 275.035916 
L 88.293954 275.716989 
L 89.017016 277.689055 
L 90.463138 280.298393 
L 91.1862 282.510388 
L 91.909261 282.771776 
L 92.632322 284.289503 
L 93.355384 285.070604 
L 94.078445 286.339392 
L 94.801506 288.36171 
L 95.524568 287.870906 
L 96.247629 288.99881 
L 97.693752 290.278489 
L 98.416813 292.016019 
L 99.139874 291.259962 
L 99.862936 292.170732 
L 100.585997 292.102144 
L 101.309059 292.625309 
L 102.03212 294.046226 
L 102.755181 292.950766 
L 103.478243 293.719178 
L 104.201304 293.411251 
L 104.924365 293.726622 
L 105.647427 295.167213 
L 106.370488 293.145567 
L 107.093549 294.146513 
L 107.816611 293.566094 
L 108.539672 293.636191 
L 109.262733 295.488 
L 109.985795 292.661245 
L 110.708856 293.951051 
L 111.431917 293.069621 
L 112.154979 293.0318 
L 112.87804 295.046331 
L 113.601101 291.708402 
L 114.324163 292.999718 
L 115.047224 291.990226 
L 115.770285 291.765311 
L 116.493347 294.218108 
L 117.216408 289.912044 
L 117.93947 291.413222 
L 118.662531 289.985333 
L 119.385592 289.585168 
L 120.108654 292.053043 
L 120.831715 287.515827 
L 121.554776 288.936758 
L 122.277838 286.886768 
L 123.000899 286.914044 
L 123.72396 289.153439 
L 124.447022 283.891813 
L 125.170083 285.173789 
L 125.893144 283.283898 
L 126.616206 282.653341 
L 127.339267 285.065544 
L 128.062328 278.53783 
L 128.78539 280.015927 
L 129.508451 277.882501 
L 130.231512 277.112968 
L 130.954574 279.529718 
L 131.677635 272.739996 
L 132.400696 274.57564 
L 133.123758 271.333762 
L 133.846819 270.790394 
L 134.569881 272.875681 
L 135.292942 266.209478 
L 136.016003 267.054954 
L 136.739065 263.318159 
L 137.462126 263.041833 
L 138.185187 265.705565 
L 138.908249 257.481662 
L 139.63131 258.517272 
L 140.354371 255.111042 
L 141.077433 254.213345 
L 141.800494 256.065662 
L 142.523555 248.465319 
L 143.246617 250.006788 
L 143.969678 244.615907 
L 144.692739 245.482819 
L 145.415801 247.066201 
L 146.138862 238.102784 
L 146.861923 239.774001 
L 147.584985 234.642507 
L 148.308046 234.577652 
L 149.031108 236.602039 
L 149.754169 228.509025 
L 150.47723 231.00689 
L 151.200292 225.434893 
L 151.923353 226.247934 
L 152.646414 228.960425 
L 153.369476 221.839087 
L 154.092537 225.15136 
L 154.815598 220.840328 
L 155.53866 221.530544 
L 156.261721 226.291275 
L 156.984782 218.761943 
L 157.707844 223.080296 
L 158.430905 218.891881 
L 159.153966 221.237025 
L 159.877028 225.648993 
L 160.600089 219.047654 
L 161.32315 223.492218 
L 162.046212 219.714265 
L 162.769273 221.977441 
L 163.492334 227.037651 
L 164.215396 220.125868 
L 164.938457 225.038496 
L 165.661519 221.30893 
L 166.38458 223.890363 
L 167.107641 228.72841 
L 167.830703 222.218287 
L 168.553764 226.979803 
L 169.276825 223.516201 
L 169.999887 225.382205 
L 170.722948 230.459574 
L 171.446009 224.252998 
L 172.169071 228.422196 
L 172.892132 225.406634 
L 173.615193 227.112284 
L 174.338255 232.075294 
L 175.061316 225.988787 
L 175.784377 230.27447 
L 176.507439 227.237391 
L 177.2305 228.600449 
L 177.953561 233.316302 
L 178.676623 227.477567 
L 179.399684 231.197936 
L 180.122745 228.07349 
L 180.845807 229.641734 
L 181.568868 233.877503 
L 182.29193 228.554181 
L 183.014991 231.64769 
L 183.738052 229.084679 
L 184.461114 230.462808 
L 185.184175 235.101987 
L 185.907236 229.213832 
L 186.630298 233.042606 
L 187.353359 230.574344 
L 188.07642 231.616876 
L 188.799482 235.87768 
L 189.522543 230.731702 
L 190.245604 234.214998 
L 190.968666 231.7564 
L 191.691727 232.691333 
L 192.414788 236.929385 
L 193.13785 231.939032 
L 193.860911 234.818491 
L 194.583972 232.517172 
L 195.307034 233.433019 
L 196.030095 237.639147 
L 196.753157 232.808757 
L 197.476218 235.775083 
L 198.199279 233.768945 
L 198.922341 234.422787 
L 199.645402 238.209213 
L 200.368463 233.790274 
L 201.091525 236.421769 
L 201.814586 234.551445 
L 202.537647 235.055352 
L 203.260709 239.106432 
L 203.98377 234.310434 
L 204.706831 236.754419 
L 205.429893 235.26115 
L 206.152954 235.541861 
L 206.876015 239.494355 
L 207.599077 234.873381 
L 208.322138 237.598699 
L 209.045199 235.558567 
L 209.768261 236.244399 
L 210.491322 240.142387 
L 211.214383 235.665937 
L 211.937445 237.841682 
L 212.660506 236.066753 
L 213.383568 236.692017 
L 214.106629 240.315413 
L 214.82969 236.205666 
L 215.552752 238.36084 
L 216.275813 236.764632 
L 216.998874 237.007265 
L 217.721936 240.908902 
L 218.444997 236.582542 
L 219.168058 238.814012 
L 219.89112 237.274052 
L 220.614181 237.877276 
L 221.337242 241.319551 
L 222.060304 236.889282 
L 222.783365 239.149912 
L 223.506426 237.930064 
L 224.229488 237.93599 
L 224.952549 241.741299 
L 225.67561 237.622365 
L 226.398672 239.684369 
L 227.121733 238.470818 
L 227.844794 238.425179 
L 228.567856 242.114045 
L 229.290917 237.705209 
L 230.013979 239.868256 
L 230.73704 238.890196 
L 231.460101 238.80609 
L 232.183163 242.692047 
L 232.906224 238.067165 
L 233.629285 240.729807 
L 234.352347 239.072228 
L 235.075408 239.496911 
L 235.798469 243.047802 
L 236.521531 238.785206 
L 237.244592 241.160417 
L 237.967653 239.567835 
L 238.690715 239.624346 
L 239.413776 243.290469 
L 240.136837 238.925639 
L 240.859899 241.136013 
L 241.58296 239.798097 
L 242.306021 240.166372 
L 243.029083 244.037552 
L 243.752144 239.543465 
L 244.475206 241.247939 
L 245.198267 240.560863 
L 245.921328 240.689 
L 246.64439 244.20222 
L 247.367451 240.004234 
L 248.090512 242.096225 
L 248.813574 240.637694 
L 249.536635 240.813201 
L 250.259696 244.129538 
L 250.982758 240.50915 
L 251.705819 242.400492 
L 252.42888 241.145995 
L 253.151942 241.304589 
L 253.875003 244.973946 
L 254.598064 240.71724 
L 255.321126 242.701113 
L 256.044187 241.309089 
L 256.767248 241.542213 
L 257.49031 245.526736 
L 258.213371 240.980929 
L 258.936432 242.912415 
L 259.659494 241.970058 
L 260.382555 241.478203 
L 261.105617 245.925827 
L 261.828678 241.483965 
L 262.551739 243.343127 
L 263.274801 241.814261 
L 263.997862 242.818662 
L 264.720923 246.653664 
L 265.443985 241.816541 
L 266.167046 243.675436 
L 266.890107 242.432804 
L 267.613169 242.575292 
L 268.33623 246.780047 
L 269.059291 242.562142 
L 269.782353 244.211106 
L 270.505414 243.261862 
L 271.228475 243.100709 
L 271.951537 247.163163 
L 272.674598 242.635368 
L 273.397659 244.769948 
L 274.120721 243.37 
L 274.843782 243.536747 
L 275.566843 247.668997 
L 276.289905 242.610991 
L 277.012966 245.794994 
L 277.736028 243.94869 
L 278.459089 243.297593 
L 279.18215 247.80864 
L 279.905212 243.642359 
L 280.628273 245.621459 
L 281.351334 243.994578 
L 282.074396 244.257054 
L 282.797457 248.607071 
L 283.520518 243.89525 
L 284.24358 245.776795 
L 284.966641 244.363396 
L 285.689702 245.128161 
L 286.412764 248.406368 
L 287.135825 244.60967 
L 287.858886 246.379752 
L 288.581948 244.933235 
L 289.305009 245.082217 
L 290.02807 249.243858 
L 290.751132 245.379972 
L 291.474193 246.4965 
L 292.197255 245.225465 
L 292.920316 245.388889 
L 293.643377 249.837888 
L 294.366439 245.545147 
L 295.0895 247.062364 
L 296.535623 245.367172 
L 297.258684 250.26088 
L 297.981745 245.524522 
L 298.704807 247.542625 
L 299.427868 246.511287 
L 300.150929 246.325819 
L 300.873991 251.348019 
L 301.597052 246.292186 
L 302.320113 248.037906 
L 303.043175 246.826724 
L 303.766236 247.356957 
L 304.489297 252.0077 
L 305.212359 246.005848 
L 305.93542 248.531962 
L 306.658481 247.104163 
L 307.381543 247.227121 
L 308.104604 252.809057 
L 308.827666 246.850839 
L 309.550727 248.560133 
L 310.273788 248.30022 
L 310.99685 247.3015 
L 311.719911 252.429335 
L 312.442972 247.738865 
L 313.166034 249.431266 
L 313.889095 248.112715 
L 314.612156 247.980952 
L 315.335218 253.072578 
L 316.058279 247.881153 
L 316.78134 249.816633 
L 317.504402 248.435814 
L 318.227463 248.165677 
L 318.950524 253.816556 
L 319.673586 249.016048 
L 320.396647 250.526424 
L 321.119708 248.468755 
L 321.84277 249.068591 
L 322.565831 254.274458 
L 323.288892 249.098673 
L 324.011954 249.974246 
L 324.735015 249.999543 
L 325.458077 249.150054 
L 326.181138 254.973782 
L 326.904199 248.703726 
L 327.627261 250.83204 
L 328.350322 249.482426 
L 329.073383 249.911017 
L 329.796445 255.883536 
L 330.519506 250.059641 
L 331.242567 251.559855 
L 331.965629 251.261252 
L 332.68869 250.279007 
L 333.411751 256.285028 
L 334.134813 250.669477 
L 334.857874 251.343634 
L 335.580935 250.695883 
L 336.303997 251.292836 
L 337.027058 256.478056 
L 337.750119 251.030614 
L 338.473181 252.194801 
L 339.196242 251.929686 
L 339.919304 252.094342 
L 340.642365 256.974193 
L 341.365426 251.648416 
L 342.088488 253.15081 
L 342.811549 251.981446 
L 343.53461 252.179495 
L 344.257672 257.875495 
L 344.980733 251.868586 
L 345.703794 253.099887 
L 346.426856 252.445672 
L 347.149917 252.5569 
L 347.872978 258.493789 
L 348.59604 252.259717 
L 349.319101 253.883654 
L 350.042162 252.876158 
L 350.765224 252.092983 
L 351.488285 258.329597 
L 352.211346 253.183652 
L 352.934408 254.2993 
L 354.38053 254.271884 
L 355.103592 259.799474 
L 355.826653 253.244934 
L 356.549715 254.814001 
L 357.272776 254.450922 
L 357.995837 253.495372 
L 358.718899 259.330903 
L 359.44196 255.027111 
L 360.165021 255.514733 
L 360.888083 255.30942 
L 361.611144 254.093481 
L 362.334205 259.030875 
L 363.057267 254.990906 
L 363.780328 256.163563 
L 364.503389 255.679245 
L 365.226451 255.778405 
L 365.949512 260.787291 
L 366.672573 254.965735 
L 367.395635 257.211136 
L 368.118696 256.648066 
L 368.841757 256.479722 
L 369.564819 261.343705 
L 370.28788 255.884262 
L 371.010941 257.373672 
L 371.734003 256.410384 
L 372.457064 256.398348 
L 373.180126 261.880131 
L 373.903187 255.534481 
L 374.626248 257.029955 
L 375.34931 257.867309 
L 376.072371 256.131983 
L 376.795432 261.312833 
L 377.518494 257.701861 
L 378.241555 258.256658 
L 378.964616 257.52532 
L 379.687678 257.069977 
L 380.410739 263.269554 
L 381.1338 258.013314 
L 382.579923 258.830151 
L 383.302984 258.319541 
L 384.026046 263.768211 
L 384.749107 258.113203 
L 385.472168 259.677377 
L 386.19523 259.180552 
L 386.918291 258.481182 
L 387.641353 264.949947 
L 388.364414 258.989665 
L 389.087475 259.998903 
L 389.810537 259.848854 
L 390.533598 257.992736 
L 391.256659 264.791923 
L 391.979721 259.327301 
L 392.702782 260.374496 
L 393.425843 259.85348 
L 394.148905 259.170055 
L 394.871966 266.666121 
L 395.595027 259.679291 
L 396.318089 259.552764 
L 397.04115 260.467246 
L 397.764211 260.800859 
L 398.487273 265.545939 
L 398.487273 265.545939 
" clip-path="url(#p5a9da1af94)" style="fill: none; stroke: #dc143c; stroke-width: 2; stroke-linecap: square"/>
   </g>
   <g id="line2d_29">
    <path d="M 73.832727 243.463841 
L 76.724973 243.463841 
L 77.448034 233.723636 
L 80.340279 233.723636 
L 81.063341 232.045604 
L 83.955586 232.045604 
L 84.678647 231.482857 
L 91.1862 231.393716 
L 91.909261 231.057566 
L 94.801506 231.057566 
L 95.524568 230.460115 
L 98.416813 230.460115 
L 99.139874 229.350954 
L 102.03212 229.350954 
L 102.755181 228.075078 
L 105.647427 228.075078 
L 106.370488 227.004023 
L 109.262733 227.004023 
L 109.985795 226.061576 
L 112.87804 226.061576 
L 113.601101 225.442351 
L 116.493347 225.442351 
L 117.216408 224.789103 
L 120.108654 224.789103 
L 120.831715 224.126328 
L 123.72396 224.126328 
L 124.447022 223.541126 
L 127.339267 223.541126 
L 128.062328 222.969534 
L 130.954574 222.969534 
L 131.677635 222.632022 
L 134.569881 222.632022 
L 135.292942 222.154334 
L 138.185187 222.154334 
L 138.908249 221.6086 
L 141.800494 221.6086 
L 142.523555 220.800205 
L 145.415801 220.800205 
L 146.138862 219.674712 
L 149.031108 219.674712 
L 149.754169 218.09739 
L 152.646414 218.09739 
L 153.369476 216.571783 
L 156.261721 216.571783 
L 156.984782 215.065228 
L 159.877028 215.065228 
L 160.600089 213.600863 
L 163.492334 213.600863 
L 164.215396 212.444069 
L 167.107641 212.444069 
L 167.830703 211.634314 
L 170.722948 211.634314 
L 171.446009 211.227394 
L 177.953561 211.318577 
L 178.676623 211.522717 
L 181.568868 211.522717 
L 182.29193 211.895613 
L 185.184175 211.895613 
L 185.907236 212.193657 
L 188.799482 212.193657 
L 189.522543 212.316142 
L 199.645402 212.414129 
L 201.091525 212.501229 
L 203.260709 212.501229 
L 203.98377 212.744836 
L 206.876015 212.744836 
L 207.599077 213.046963 
L 214.106629 213.14495 
L 214.82969 213.39264 
L 217.721936 213.39264 
L 218.444997 213.855358 
L 221.337242 213.855358 
L 222.060304 214.726356 
L 224.952549 214.726356 
L 225.67561 215.903564 
L 228.567856 215.903564 
L 229.290917 217.185564 
L 232.183163 217.185564 
L 232.906224 218.813241 
L 235.798469 218.813241 
L 236.521531 220.536184 
L 239.413776 220.536184 
L 240.136837 222.289067 
L 243.029083 222.289067 
L 243.752144 224.078695 
L 246.64439 224.078695 
L 247.367451 225.905069 
L 250.259696 225.905069 
L 250.982758 227.923334 
L 253.875003 227.923334 
L 254.598064 230.294081 
L 257.49031 230.294081 
L 258.213371 232.606309 
L 261.105617 232.606309 
L 261.828678 234.850489 
L 264.720923 234.850489 
L 265.443985 237.233485 
L 268.33623 237.233485 
L 269.059291 239.632812 
L 271.951537 239.632812 
L 272.674598 242.118558 
L 275.566843 242.118558 
L 276.289905 244.620635 
L 279.18215 244.620635 
L 279.905212 247.354752 
L 282.797457 247.354752 
L 283.520518 249.737748 
L 286.412764 249.737748 
L 287.135825 252.186068 
L 290.02807 252.186068 
L 290.751132 254.454745 
L 293.643377 254.454745 
L 294.366439 256.590051 
L 297.258684 256.590051 
L 297.981745 258.771628 
L 300.873991 258.771628 
L 301.597052 260.823917 
L 304.489297 260.823917 
L 305.212359 263.036796 
L 308.104604 263.036796 
L 308.827666 264.73252 
L 311.719911 264.73252 
L 312.442972 266.312564 
L 315.335218 266.312564 
L 316.058279 267.866751 
L 318.950524 267.866751 
L 319.673586 269.173248 
L 322.565831 269.173248 
L 323.288892 270.500159 
L 326.181138 270.500159 
L 326.904199 271.897838 
L 329.796445 271.897838 
L 330.519506 272.93487 
L 333.411751 272.93487 
L 334.134813 274.484974 
L 337.027058 274.484974 
L 337.750119 275.312422 
L 340.642365 275.312422 
L 341.365426 276.723711 
L 344.257672 276.723711 
L 344.980733 277.764825 
L 347.872978 277.764825 
L 348.59604 278.812744 
L 351.488285 278.812744 
L 352.211346 279.562619 
L 355.103592 279.562619 
L 355.826653 280.986156 
L 358.718899 280.986156 
L 359.44196 281.627156 
L 362.334205 281.627156 
L 363.057267 282.607029 
L 365.949512 282.607029 
L 366.672573 283.359625 
L 369.564819 283.359625 
L 370.28788 284.427959 
L 373.180126 284.427959 
L 373.903187 285.262211 
L 376.795432 285.262211 
L 377.518494 285.918182 
L 380.410739 285.918182 
L 381.1338 286.439419 
L 384.026046 286.439419 
L 384.749107 287.187933 
L 387.641353 287.187933 
L 388.364414 288.022186 
L 391.256659 288.022186 
L 391.979721 288.384194 
L 394.871966 288.384194 
L 395.595027 289.143596 
L 398.487273 289.143596 
L 398.487273 289.143596 
" clip-path="url(#p5a9da1af94)" style="fill: none; stroke: #ffff00; stroke-width: 3; stroke-linecap: square"/>
   </g>
   <g id="patch_3">
    <path d="M 57.6 307.584 
L 57.6 41.472 
" style="fill: none; stroke: #ffffff; stroke-linejoin: miter; stroke-linecap: square"/>
   </g>
   <g id="patch_4">
    <path d="M 414.72 307.584 
L 414.72 41.472 
" style="fill: none; stroke: #ffffff; stroke-linejoin: miter; stroke-linecap: square"/>
   </g>
   <g id="patch_5">
    <path d="M 57.6 307.584 
L 414.72 307.584 
" style="fill: none; stroke: #ffffff; stroke-linejoin: miter; stroke-linecap: square"/>
   </g>
   <g id="patch_6">
    <path d="M 57.6 41.472 
L 414.72 41.472 
" style="fill: none; stroke: #ffffff; stroke-linejoin: miter; stroke-linecap: square"/>
   </g>
   <g id="legend_1">
    <g id="patch_7">
     <path d="M 243.124687 302.584 
L 407.72 302.584 
Q 409.72 302.584 409.72 300.584 
L 409.72 257.549625 
Q 409.72 255.549625 407.72 255.549625 
L 243.124687 255.549625 
Q 241.124687 255.549625 241.124687 257.549625 
L 241.124687 300.584 
Q 241.124687 302.584 243.124687 302.584 
z
" style="fill: #e5e5e5; opacity: 0.8; stroke: #cccccc; stroke-width: 0.5; stroke-linejoin: miter"/>
    </g>
    <g id="line2d_30">
     <path d="M 245.124687 263.648062 
L 255.124687 263.648062 
L 265.124687 263.648062 
" style="fill: none; stroke: #6495ed; stroke-width: 2; stroke-linecap: square"/>
    </g>
    <g id="text_16">
     <!-- Generator loss -->
     <g transform="translate(273.124687 267.148062) scale(0.1 -0.1)">
      <defs>
       <path id="DejaVuSans-47" d="M 3809 666 
L 3809 1919 
L 2778 1919 
L 2778 2438 
L 4434 2438 
L 4434 434 
Q 4069 175 3628 42 
Q 3188 -91 2688 -91 
Q 1594 -91 976 548 
Q 359 1188 359 2328 
Q 359 3472 976 4111 
Q 1594 4750 2688 4750 
Q 3144 4750 3555 4637 
Q 3966 4525 4313 4306 
L 4313 3634 
Q 3963 3931 3569 4081 
Q 3175 4231 2741 4231 
Q 1884 4231 1454 3753 
Q 1025 3275 1025 2328 
Q 1025 1384 1454 906 
Q 1884 428 2741 428 
Q 3075 428 3337 486 
Q 3600 544 3809 666 
z
" transform="scale(0.015625)"/>
       <path id="DejaVuSans-65" d="M 3597 1894 
L 3597 1613 
L 953 1613 
Q 991 1019 1311 708 
Q 1631 397 2203 397 
Q 2534 397 2845 478 
Q 3156 559 3463 722 
L 3463 178 
Q 3153 47 2828 -22 
Q 2503 -91 2169 -91 
Q 1331 -91 842 396 
Q 353 884 353 1716 
Q 353 2575 817 3079 
Q 1281 3584 2069 3584 
Q 2775 3584 3186 3129 
Q 3597 2675 3597 1894 
z
M 3022 2063 
Q 3016 2534 2758 2815 
Q 2500 3097 2075 3097 
Q 1594 3097 1305 2825 
Q 1016 2553 972 2059 
L 3022 2063 
z
" transform="scale(0.015625)"/>
       <path id="DejaVuSans-6e" d="M 3513 2113 
L 3513 0 
L 2938 0 
L 2938 2094 
Q 2938 2591 2744 2837 
Q 2550 3084 2163 3084 
Q 1697 3084 1428 2787 
Q 1159 2491 1159 1978 
L 1159 0 
L 581 0 
L 581 3500 
L 1159 3500 
L 1159 2956 
Q 1366 3272 1645 3428 
Q 1925 3584 2291 3584 
Q 2894 3584 3203 3211 
Q 3513 2838 3513 2113 
z
" transform="scale(0.015625)"/>
       <path id="DejaVuSans-72" d="M 2631 2963 
Q 2534 3019 2420 3045 
Q 2306 3072 2169 3072 
Q 1681 3072 1420 2755 
Q 1159 2438 1159 1844 
L 1159 0 
L 581 0 
L 581 3500 
L 1159 3500 
L 1159 2956 
Q 1341 3275 1631 3429 
Q 1922 3584 2338 3584 
Q 2397 3584 2469 3576 
Q 2541 3569 2628 3553 
L 2631 2963 
z
" transform="scale(0.015625)"/>
       <path id="DejaVuSans-61" d="M 2194 1759 
Q 1497 1759 1228 1600 
Q 959 1441 959 1056 
Q 959 750 1161 570 
Q 1363 391 1709 391 
Q 2188 391 2477 730 
Q 2766 1069 2766 1631 
L 2766 1759 
L 2194 1759 
z
M 3341 1997 
L 3341 0 
L 2766 0 
L 2766 531 
Q 2569 213 2275 61 
Q 1981 -91 1556 -91 
Q 1019 -91 701 211 
Q 384 513 384 1019 
Q 384 1609 779 1909 
Q 1175 2209 1959 2209 
L 2766 2209 
L 2766 2266 
Q 2766 2663 2505 2880 
Q 2244 3097 1772 3097 
Q 1472 3097 1187 3025 
Q 903 2953 641 2809 
L 641 3341 
Q 956 3463 1253 3523 
Q 1550 3584 1831 3584 
Q 2591 3584 2966 3190 
Q 3341 2797 3341 1997 
z
" transform="scale(0.015625)"/>
       <path id="DejaVuSans-74" d="M 1172 4494 
L 1172 3500 
L 2356 3500 
L 2356 3053 
L 1172 3053 
L 1172 1153 
Q 1172 725 1289 603 
Q 1406 481 1766 481 
L 2356 481 
L 2356 0 
L 1766 0 
Q 1100 0 847 248 
Q 594 497 594 1153 
L 594 3053 
L 172 3053 
L 172 3500 
L 594 3500 
L 594 4494 
L 1172 4494 
z
" transform="scale(0.015625)"/>
       <path id="DejaVuSans-20" transform="scale(0.015625)"/>
       <path id="DejaVuSans-6c" d="M 603 4863 
L 1178 4863 
L 1178 0 
L 603 0 
L 603 4863 
z
" transform="scale(0.015625)"/>
      </defs>
      <use xlink:href="#DejaVuSans-47"/>
      <use xlink:href="#DejaVuSans-65" x="77.490234"/>
      <use xlink:href="#DejaVuSans-6e" x="139.013672"/>
      <use xlink:href="#DejaVuSans-65" x="202.392578"/>
      <use xlink:href="#DejaVuSans-72" x="263.916016"/>
      <use xlink:href="#DejaVuSans-61" x="305.029297"/>
      <use xlink:href="#DejaVuSans-74" x="366.308594"/>
      <use xlink:href="#DejaVuSans-6f" x="405.517578"/>
      <use xlink:href="#DejaVuSans-72" x="466.699219"/>
      <use xlink:href="#DejaVuSans-20" x="507.8125"/>
      <use xlink:href="#DejaVuSans-6c" x="539.599609"/>
      <use xlink:href="#DejaVuSans-6f" x="567.382812"/>
      <use xlink:href="#DejaVuSans-73" x="628.564453"/>
      <use xlink:href="#DejaVuSans-73" x="680.664062"/>
     </g>
    </g>
    <g id="line2d_31">
     <path d="M 245.124687 278.326188 
L 255.124687 278.326188 
L 265.124687 278.326188 
" style="fill: none; stroke: #dc143c; stroke-width: 2; stroke-linecap: square"/>
    </g>
    <g id="text_17">
     <!-- Average discriminator loss -->
     <g transform="translate(273.124687 281.826188) scale(0.1 -0.1)">
      <defs>
       <path id="DejaVuSans-41" d="M 2188 4044 
L 1331 1722 
L 3047 1722 
L 2188 4044 
z
M 1831 4666 
L 2547 4666 
L 4325 0 
L 3669 0 
L 3244 1197 
L 1141 1197 
L 716 0 
L 50 0 
L 1831 4666 
z
" transform="scale(0.015625)"/>
       <path id="DejaVuSans-76" d="M 191 3500 
L 800 3500 
L 1894 563 
L 2988 3500 
L 3597 3500 
L 2284 0 
L 1503 0 
L 191 3500 
z
" transform="scale(0.015625)"/>
       <path id="DejaVuSans-67" d="M 2906 1791 
Q 2906 2416 2648 2759 
Q 2391 3103 1925 3103 
Q 1463 3103 1205 2759 
Q 947 2416 947 1791 
Q 947 1169 1205 825 
Q 1463 481 1925 481 
Q 2391 481 2648 825 
Q 2906 1169 2906 1791 
z
M 3481 434 
Q 3481 -459 3084 -895 
Q 2688 -1331 1869 -1331 
Q 1566 -1331 1297 -1286 
Q 1028 -1241 775 -1147 
L 775 -588 
Q 1028 -725 1275 -790 
Q 1522 -856 1778 -856 
Q 2344 -856 2625 -561 
Q 2906 -266 2906 331 
L 2906 616 
Q 2728 306 2450 153 
Q 2172 0 1784 0 
Q 1141 0 747 490 
Q 353 981 353 1791 
Q 353 2603 747 3093 
Q 1141 3584 1784 3584 
Q 2172 3584 2450 3431 
Q 2728 3278 2906 2969 
L 2906 3500 
L 3481 3500 
L 3481 434 
z
" transform="scale(0.015625)"/>
       <path id="DejaVuSans-64" d="M 2906 2969 
L 2906 4863 
L 3481 4863 
L 3481 0 
L 2906 0 
L 2906 525 
Q 2725 213 2448 61 
Q 2172 -91 1784 -91 
Q 1150 -91 751 415 
Q 353 922 353 1747 
Q 353 2572 751 3078 
Q 1150 3584 1784 3584 
Q 2172 3584 2448 3432 
Q 2725 3281 2906 2969 
z
M 947 1747 
Q 947 1113 1208 752 
Q 1469 391 1925 391 
Q 2381 391 2643 752 
Q 2906 1113 2906 1747 
Q 2906 2381 2643 2742 
Q 2381 3103 1925 3103 
Q 1469 3103 1208 2742 
Q 947 2381 947 1747 
z
" transform="scale(0.015625)"/>
       <path id="DejaVuSans-69" d="M 603 3500 
L 1178 3500 
L 1178 0 
L 603 0 
L 603 3500 
z
M 603 4863 
L 1178 4863 
L 1178 4134 
L 603 4134 
L 603 4863 
z
" transform="scale(0.015625)"/>
       <path id="DejaVuSans-6d" d="M 3328 2828 
Q 3544 3216 3844 3400 
Q 4144 3584 4550 3584 
Q 5097 3584 5394 3201 
Q 5691 2819 5691 2113 
L 5691 0 
L 5113 0 
L 5113 2094 
Q 5113 2597 4934 2840 
Q 4756 3084 4391 3084 
Q 3944 3084 3684 2787 
Q 3425 2491 3425 1978 
L 3425 0 
L 2847 0 
L 2847 2094 
Q 2847 2600 2669 2842 
Q 2491 3084 2119 3084 
Q 1678 3084 1418 2786 
Q 1159 2488 1159 1978 
L 1159 0 
L 581 0 
L 581 3500 
L 1159 3500 
L 1159 2956 
Q 1356 3278 1631 3431 
Q 1906 3584 2284 3584 
Q 2666 3584 2933 3390 
Q 3200 3197 3328 2828 
z
" transform="scale(0.015625)"/>
      </defs>
      <use xlink:href="#DejaVuSans-41"/>
      <use xlink:href="#DejaVuSans-76" x="62.533203"/>
      <use xlink:href="#DejaVuSans-65" x="121.712891"/>
      <use xlink:href="#DejaVuSans-72" x="183.236328"/>
      <use xlink:href="#DejaVuSans-61" x="224.349609"/>
      <use xlink:href="#DejaVuSans-67" x="285.628906"/>
      <use xlink:href="#DejaVuSans-65" x="349.105469"/>
      <use xlink:href="#DejaVuSans-20" x="410.628906"/>
      <use xlink:href="#DejaVuSans-64" x="442.416016"/>
      <use xlink:href="#DejaVuSans-69" x="505.892578"/>
      <use xlink:href="#DejaVuSans-73" x="533.675781"/>
      <use xlink:href="#DejaVuSans-63" x="585.775391"/>
      <use xlink:href="#DejaVuSans-72" x="640.755859"/>
      <use xlink:href="#DejaVuSans-69" x="681.869141"/>
      <use xlink:href="#DejaVuSans-6d" x="709.652344"/>
      <use xlink:href="#DejaVuSans-69" x="807.064453"/>
      <use xlink:href="#DejaVuSans-6e" x="834.847656"/>
      <use xlink:href="#DejaVuSans-61" x="898.226562"/>
      <use xlink:href="#DejaVuSans-74" x="959.505859"/>
      <use xlink:href="#DejaVuSans-6f" x="998.714844"/>
      <use xlink:href="#DejaVuSans-72" x="1059.896484"/>
      <use xlink:href="#DejaVuSans-20" x="1101.009766"/>
      <use xlink:href="#DejaVuSans-6c" x="1132.796875"/>
      <use xlink:href="#DejaVuSans-6f" x="1160.580078"/>
      <use xlink:href="#DejaVuSans-73" x="1221.761719"/>
      <use xlink:href="#DejaVuSans-73" x="1273.861328"/>
     </g>
    </g>
    <g id="line2d_32">
     <path d="M 245.124687 293.004312 
L 255.124687 293.004312 
L 265.124687 293.004312 
" style="fill: none; stroke: #ffff00; stroke-width: 3; stroke-linecap: square"/>
    </g>
    <g id="text_18">
     <!-- ROC AUC -->
     <g transform="translate(273.124687 296.504312) scale(0.1 -0.1)">
      <defs>
       <path id="DejaVuSans-52" d="M 2841 2188 
Q 3044 2119 3236 1894 
Q 3428 1669 3622 1275 
L 4263 0 
L 3584 0 
L 2988 1197 
Q 2756 1666 2539 1819 
Q 2322 1972 1947 1972 
L 1259 1972 
L 1259 0 
L 628 0 
L 628 4666 
L 2053 4666 
Q 2853 4666 3247 4331 
Q 3641 3997 3641 3322 
Q 3641 2881 3436 2590 
Q 3231 2300 2841 2188 
z
M 1259 4147 
L 1259 2491 
L 2053 2491 
Q 2509 2491 2742 2702 
Q 2975 2913 2975 3322 
Q 2975 3731 2742 3939 
Q 2509 4147 2053 4147 
L 1259 4147 
z
" transform="scale(0.015625)"/>
       <path id="DejaVuSans-4f" d="M 2522 4238 
Q 1834 4238 1429 3725 
Q 1025 3213 1025 2328 
Q 1025 1447 1429 934 
Q 1834 422 2522 422 
Q 3209 422 3611 934 
Q 4013 1447 4013 2328 
Q 4013 3213 3611 3725 
Q 3209 4238 2522 4238 
z
M 2522 4750 
Q 3503 4750 4090 4092 
Q 4678 3434 4678 2328 
Q 4678 1225 4090 567 
Q 3503 -91 2522 -91 
Q 1538 -91 948 565 
Q 359 1222 359 2328 
Q 359 3434 948 4092 
Q 1538 4750 2522 4750 
z
" transform="scale(0.015625)"/>
       <path id="DejaVuSans-43" d="M 4122 4306 
L 4122 3641 
Q 3803 3938 3442 4084 
Q 3081 4231 2675 4231 
Q 1875 4231 1450 3742 
Q 1025 3253 1025 2328 
Q 1025 1406 1450 917 
Q 1875 428 2675 428 
Q 3081 428 3442 575 
Q 3803 722 4122 1019 
L 4122 359 
Q 3791 134 3420 21 
Q 3050 -91 2638 -91 
Q 1578 -91 968 557 
Q 359 1206 359 2328 
Q 359 3453 968 4101 
Q 1578 4750 2638 4750 
Q 3056 4750 3426 4639 
Q 3797 4528 4122 4306 
z
" transform="scale(0.015625)"/>
       <path id="DejaVuSans-55" d="M 556 4666 
L 1191 4666 
L 1191 1831 
Q 1191 1081 1462 751 
Q 1734 422 2344 422 
Q 2950 422 3222 751 
Q 3494 1081 3494 1831 
L 3494 4666 
L 4128 4666 
L 4128 1753 
Q 4128 841 3676 375 
Q 3225 -91 2344 -91 
Q 1459 -91 1007 375 
Q 556 841 556 1753 
L 556 4666 
z
" transform="scale(0.015625)"/>
      </defs>
      <use xlink:href="#DejaVuSans-52"/>
      <use xlink:href="#DejaVuSans-4f" x="69.482422"/>
      <use xlink:href="#DejaVuSans-43" x="148.193359"/>
      <use xlink:href="#DejaVuSans-20" x="218.017578"/>
      <use xlink:href="#DejaVuSans-41" x="249.804688"/>
      <use xlink:href="#DejaVuSans-55" x="318.212891"/>
      <use xlink:href="#DejaVuSans-43" x="391.40625"/>
     </g>
    </g>
   </g>
  </g>
 </g>
 <defs>
  <clipPath id="p5a9da1af94">
   <rect x="57.6" y="41.472" width="357.12" height="266.112"/>
  </clipPath>
 </defs>
</svg>
