<?xml version="1.0" encoding="utf-8" standalone="no"?>
<!DOCTYPE svg PUBLIC "-//W3C//DTD SVG 1.1//EN"
  "http://www.w3.org/Graphics/SVG/1.1/DTD/svg11.dtd">
<svg xmlns:xlink="http://www.w3.org/1999/xlink" width="460.8pt" height="345.6pt" viewBox="0 0 460.8 345.6" xmlns="http://www.w3.org/2000/svg" version="1.1">
 <metadata>
  <rdf:RDF xmlns:dc="http://purl.org/dc/elements/1.1/" xmlns:cc="http://creativecommons.org/ns#" xmlns:rdf="http://www.w3.org/1999/02/22-rdf-syntax-ns#">
   <cc:Work>
    <dc:type rdf:resource="http://purl.org/dc/dcmitype/StillImage"/>
    <dc:date>2023-07-06T15:00:55.564079</dc:date>
    <dc:format>image/svg+xml</dc:format>
    <dc:creator>
     <cc:Agent>
      <dc:title>Matplotlib v3.7.1, https://matplotlib.org/</dc:title>
     </cc:Agent>
    </dc:creator>
   </cc:Work>
  </rdf:RDF>
 </metadata>
 <defs>
  <style type="text/css">*{stroke-linejoin: round; stroke-linecap: butt}</style>
 </defs>
 <g id="figure_1">
  <g id="patch_1">
   <path d="M 0 345.6 
L 460.8 345.6 
L 460.8 0 
L 0 0 
z
" style="fill: #ffffff"/>
  </g>
  <g id="axes_1">
   <g id="patch_2">
    <path d="M 57.6 307.584 
L 414.72 307.584 
L 414.72 41.472 
L 57.6 41.472 
z
" style="fill: #e5e5e5"/>
   </g>
   <g id="matplotlib.axis_1">
    <g id="xtick_1">
     <g id="line2d_1">
      <path d="M 70.184923 307.584 
L 70.184923 41.472 
" clip-path="url(#pd6b5b0ce19)" style="fill: none; stroke: #ffffff; stroke-width: 0.8; stroke-linecap: square"/>
     </g>
     <g id="line2d_2">
      <defs>
       <path id="m176eaed7db" d="M 0 0 
L 0 3.5 
" style="stroke: #555555; stroke-width: 0.8"/>
      </defs>
      <g>
       <use xlink:href="#m176eaed7db" x="70.184923" y="307.584" style="fill: #555555; stroke: #555555; stroke-width: 0.8"/>
      </g>
     </g>
     <g id="text_1">
      <!-- 0 -->
      <g style="fill: #555555" transform="translate(67.003673 322.182437) scale(0.1 -0.1)">
       <defs>
        <path id="DejaVuSans-30" d="M 2034 4250 
Q 1547 4250 1301 3770 
Q 1056 3291 1056 2328 
Q 1056 1369 1301 889 
Q 1547 409 2034 409 
Q 2525 409 2770 889 
Q 3016 1369 3016 2328 
Q 3016 3291 2770 3770 
Q 2525 4250 2034 4250 
z
M 2034 4750 
Q 2819 4750 3233 4129 
Q 3647 3509 3647 2328 
Q 3647 1150 3233 529 
Q 2819 -91 2034 -91 
Q 1250 -91 836 529 
Q 422 1150 422 2328 
Q 422 3509 836 4129 
Q 1250 4750 2034 4750 
z
" transform="scale(0.015625)"/>
       </defs>
       <use xlink:href="#DejaVuSans-30"/>
      </g>
     </g>
    </g>
    <g id="xtick_2">
     <g id="line2d_3">
      <path d="M 143.141001 307.584 
L 143.141001 41.472 
" clip-path="url(#pd6b5b0ce19)" style="fill: none; stroke: #ffffff; stroke-width: 0.8; stroke-linecap: square"/>
     </g>
     <g id="line2d_4">
      <g>
       <use xlink:href="#m176eaed7db" x="143.141001" y="307.584" style="fill: #555555; stroke: #555555; stroke-width: 0.8"/>
      </g>
     </g>
     <g id="text_2">
      <!-- 20 -->
      <g style="fill: #555555" transform="translate(136.778501 322.182437) scale(0.1 -0.1)">
       <defs>
        <path id="DejaVuSans-32" d="M 1228 531 
L 3431 531 
L 3431 0 
L 469 0 
L 469 531 
Q 828 903 1448 1529 
Q 2069 2156 2228 2338 
Q 2531 2678 2651 2914 
Q 2772 3150 2772 3378 
Q 2772 3750 2511 3984 
Q 2250 4219 1831 4219 
Q 1534 4219 1204 4116 
Q 875 4013 500 3803 
L 500 4441 
Q 881 4594 1212 4672 
Q 1544 4750 1819 4750 
Q 2544 4750 2975 4387 
Q 3406 4025 3406 3419 
Q 3406 3131 3298 2873 
Q 3191 2616 2906 2266 
Q 2828 2175 2409 1742 
Q 1991 1309 1228 531 
z
" transform="scale(0.015625)"/>
       </defs>
       <use xlink:href="#DejaVuSans-32"/>
       <use xlink:href="#DejaVuSans-30" x="63.623047"/>
      </g>
     </g>
    </g>
    <g id="xtick_3">
     <g id="line2d_5">
      <path d="M 216.097079 307.584 
L 216.097079 41.472 
" clip-path="url(#pd6b5b0ce19)" style="fill: none; stroke: #ffffff; stroke-width: 0.8; stroke-linecap: square"/>
     </g>
     <g id="line2d_6">
      <g>
       <use xlink:href="#m176eaed7db" x="216.097079" y="307.584" style="fill: #555555; stroke: #555555; stroke-width: 0.8"/>
      </g>
     </g>
     <g id="text_3">
      <!-- 40 -->
      <g style="fill: #555555" transform="translate(209.734579 322.182437) scale(0.1 -0.1)">
       <defs>
        <path id="DejaVuSans-34" d="M 2419 4116 
L 825 1625 
L 2419 1625 
L 2419 4116 
z
M 2253 4666 
L 3047 4666 
L 3047 1625 
L 3713 1625 
L 3713 1100 
L 3047 1100 
L 3047 0 
L 2419 0 
L 2419 1100 
L 313 1100 
L 313 1709 
L 2253 4666 
z
" transform="scale(0.015625)"/>
       </defs>
       <use xlink:href="#DejaVuSans-34"/>
       <use xlink:href="#DejaVuSans-30" x="63.623047"/>
      </g>
     </g>
    </g>
    <g id="xtick_4">
     <g id="line2d_7">
      <path d="M 289.053156 307.584 
L 289.053156 41.472 
" clip-path="url(#pd6b5b0ce19)" style="fill: none; stroke: #ffffff; stroke-width: 0.8; stroke-linecap: square"/>
     </g>
     <g id="line2d_8">
      <g>
       <use xlink:href="#m176eaed7db" x="289.053156" y="307.584" style="fill: #555555; stroke: #555555; stroke-width: 0.8"/>
      </g>
     </g>
     <g id="text_4">
      <!-- 60 -->
      <g style="fill: #555555" transform="translate(282.690656 322.182437) scale(0.1 -0.1)">
       <defs>
        <path id="DejaVuSans-36" d="M 2113 2584 
Q 1688 2584 1439 2293 
Q 1191 2003 1191 1497 
Q 1191 994 1439 701 
Q 1688 409 2113 409 
Q 2538 409 2786 701 
Q 3034 994 3034 1497 
Q 3034 2003 2786 2293 
Q 2538 2584 2113 2584 
z
M 3366 4563 
L 3366 3988 
Q 3128 4100 2886 4159 
Q 2644 4219 2406 4219 
Q 1781 4219 1451 3797 
Q 1122 3375 1075 2522 
Q 1259 2794 1537 2939 
Q 1816 3084 2150 3084 
Q 2853 3084 3261 2657 
Q 3669 2231 3669 1497 
Q 3669 778 3244 343 
Q 2819 -91 2113 -91 
Q 1303 -91 875 529 
Q 447 1150 447 2328 
Q 447 3434 972 4092 
Q 1497 4750 2381 4750 
Q 2619 4750 2861 4703 
Q 3103 4656 3366 4563 
z
" transform="scale(0.015625)"/>
       </defs>
       <use xlink:href="#DejaVuSans-36"/>
       <use xlink:href="#DejaVuSans-30" x="63.623047"/>
      </g>
     </g>
    </g>
    <g id="xtick_5">
     <g id="line2d_9">
      <path d="M 362.009234 307.584 
L 362.009234 41.472 
" clip-path="url(#pd6b5b0ce19)" style="fill: none; stroke: #ffffff; stroke-width: 0.8; stroke-linecap: square"/>
     </g>
     <g id="line2d_10">
      <g>
       <use xlink:href="#m176eaed7db" x="362.009234" y="307.584" style="fill: #555555; stroke: #555555; stroke-width: 0.8"/>
      </g>
     </g>
     <g id="text_5">
      <!-- 80 -->
      <g style="fill: #555555" transform="translate(355.646734 322.182437) scale(0.1 -0.1)">
       <defs>
        <path id="DejaVuSans-38" d="M 2034 2216 
Q 1584 2216 1326 1975 
Q 1069 1734 1069 1313 
Q 1069 891 1326 650 
Q 1584 409 2034 409 
Q 2484 409 2743 651 
Q 3003 894 3003 1313 
Q 3003 1734 2745 1975 
Q 2488 2216 2034 2216 
z
M 1403 2484 
Q 997 2584 770 2862 
Q 544 3141 544 3541 
Q 544 4100 942 4425 
Q 1341 4750 2034 4750 
Q 2731 4750 3128 4425 
Q 3525 4100 3525 3541 
Q 3525 3141 3298 2862 
Q 3072 2584 2669 2484 
Q 3125 2378 3379 2068 
Q 3634 1759 3634 1313 
Q 3634 634 3220 271 
Q 2806 -91 2034 -91 
Q 1263 -91 848 271 
Q 434 634 434 1313 
Q 434 1759 690 2068 
Q 947 2378 1403 2484 
z
M 1172 3481 
Q 1172 3119 1398 2916 
Q 1625 2713 2034 2713 
Q 2441 2713 2670 2916 
Q 2900 3119 2900 3481 
Q 2900 3844 2670 4047 
Q 2441 4250 2034 4250 
Q 1625 4250 1398 4047 
Q 1172 3844 1172 3481 
z
" transform="scale(0.015625)"/>
       </defs>
       <use xlink:href="#DejaVuSans-38"/>
       <use xlink:href="#DejaVuSans-30" x="63.623047"/>
      </g>
     </g>
    </g>
   </g>
   <g id="matplotlib.axis_2">
    <g id="ytick_1">
     <g id="line2d_11">
      <path d="M 57.6 295.559911 
L 414.72 295.559911 
" clip-path="url(#pd6b5b0ce19)" style="fill: none; stroke: #ffffff; stroke-width: 0.8; stroke-linecap: square"/>
     </g>
     <g id="line2d_12">
      <defs>
       <path id="m7067e3f7c9" d="M 0 0 
L -3.5 0 
" style="stroke: #555555; stroke-width: 0.8"/>
      </defs>
      <g>
       <use xlink:href="#m7067e3f7c9" x="57.6" y="295.559911" style="fill: #555555; stroke: #555555; stroke-width: 0.8"/>
      </g>
     </g>
     <g id="text_6">
      <!-- 0.0 -->
      <g style="fill: #555555" transform="translate(34.696875 299.359129) scale(0.1 -0.1)">
       <defs>
        <path id="DejaVuSans-2e" d="M 684 794 
L 1344 794 
L 1344 0 
L 684 0 
L 684 794 
z
" transform="scale(0.015625)"/>
       </defs>
       <use xlink:href="#DejaVuSans-30"/>
       <use xlink:href="#DejaVuSans-2e" x="63.623047"/>
       <use xlink:href="#DejaVuSans-30" x="95.410156"/>
      </g>
     </g>
    </g>
    <g id="ytick_2">
     <g id="line2d_13">
      <path d="M 57.6 258.633819 
L 414.72 258.633819 
" clip-path="url(#pd6b5b0ce19)" style="fill: none; stroke: #ffffff; stroke-width: 0.8; stroke-linecap: square"/>
     </g>
     <g id="line2d_14">
      <g>
       <use xlink:href="#m7067e3f7c9" x="57.6" y="258.633819" style="fill: #555555; stroke: #555555; stroke-width: 0.8"/>
      </g>
     </g>
     <g id="text_7">
      <!-- 0.5 -->
      <g style="fill: #555555" transform="translate(34.696875 262.433037) scale(0.1 -0.1)">
       <defs>
        <path id="DejaVuSans-35" d="M 691 4666 
L 3169 4666 
L 3169 4134 
L 1269 4134 
L 1269 2991 
Q 1406 3038 1543 3061 
Q 1681 3084 1819 3084 
Q 2600 3084 3056 2656 
Q 3513 2228 3513 1497 
Q 3513 744 3044 326 
Q 2575 -91 1722 -91 
Q 1428 -91 1123 -41 
Q 819 9 494 109 
L 494 744 
Q 775 591 1075 516 
Q 1375 441 1709 441 
Q 2250 441 2565 725 
Q 2881 1009 2881 1497 
Q 2881 1984 2565 2268 
Q 2250 2553 1709 2553 
Q 1456 2553 1204 2497 
Q 953 2441 691 2322 
L 691 4666 
z
" transform="scale(0.015625)"/>
       </defs>
       <use xlink:href="#DejaVuSans-30"/>
       <use xlink:href="#DejaVuSans-2e" x="63.623047"/>
       <use xlink:href="#DejaVuSans-35" x="95.410156"/>
      </g>
     </g>
    </g>
    <g id="ytick_3">
     <g id="line2d_15">
      <path d="M 57.6 221.707727 
L 414.72 221.707727 
" clip-path="url(#pd6b5b0ce19)" style="fill: none; stroke: #ffffff; stroke-width: 0.8; stroke-linecap: square"/>
     </g>
     <g id="line2d_16">
      <g>
       <use xlink:href="#m7067e3f7c9" x="57.6" y="221.707727" style="fill: #555555; stroke: #555555; stroke-width: 0.8"/>
      </g>
     </g>
     <g id="text_8">
      <!-- 1.0 -->
      <g style="fill: #555555" transform="translate(34.696875 225.506945) scale(0.1 -0.1)">
       <defs>
        <path id="DejaVuSans-31" d="M 794 531 
L 1825 531 
L 1825 4091 
L 703 3866 
L 703 4441 
L 1819 4666 
L 2450 4666 
L 2450 531 
L 3481 531 
L 3481 0 
L 794 0 
L 794 531 
z
" transform="scale(0.015625)"/>
       </defs>
       <use xlink:href="#DejaVuSans-31"/>
       <use xlink:href="#DejaVuSans-2e" x="63.623047"/>
       <use xlink:href="#DejaVuSans-30" x="95.410156"/>
      </g>
     </g>
    </g>
    <g id="ytick_4">
     <g id="line2d_17">
      <path d="M 57.6 184.781635 
L 414.72 184.781635 
" clip-path="url(#pd6b5b0ce19)" style="fill: none; stroke: #ffffff; stroke-width: 0.8; stroke-linecap: square"/>
     </g>
     <g id="line2d_18">
      <g>
       <use xlink:href="#m7067e3f7c9" x="57.6" y="184.781635" style="fill: #555555; stroke: #555555; stroke-width: 0.8"/>
      </g>
     </g>
     <g id="text_9">
      <!-- 1.5 -->
      <g style="fill: #555555" transform="translate(34.696875 188.580853) scale(0.1 -0.1)">
       <use xlink:href="#DejaVuSans-31"/>
       <use xlink:href="#DejaVuSans-2e" x="63.623047"/>
       <use xlink:href="#DejaVuSans-35" x="95.410156"/>
      </g>
     </g>
    </g>
    <g id="ytick_5">
     <g id="line2d_19">
      <path d="M 57.6 147.855543 
L 414.72 147.855543 
" clip-path="url(#pd6b5b0ce19)" style="fill: none; stroke: #ffffff; stroke-width: 0.8; stroke-linecap: square"/>
     </g>
     <g id="line2d_20">
      <g>
       <use xlink:href="#m7067e3f7c9" x="57.6" y="147.855543" style="fill: #555555; stroke: #555555; stroke-width: 0.8"/>
      </g>
     </g>
     <g id="text_10">
      <!-- 2.0 -->
      <g style="fill: #555555" transform="translate(34.696875 151.654761) scale(0.1 -0.1)">
       <use xlink:href="#DejaVuSans-32"/>
       <use xlink:href="#DejaVuSans-2e" x="63.623047"/>
       <use xlink:href="#DejaVuSans-30" x="95.410156"/>
      </g>
     </g>
    </g>
    <g id="ytick_6">
     <g id="line2d_21">
      <path d="M 57.6 110.929451 
L 414.72 110.929451 
" clip-path="url(#pd6b5b0ce19)" style="fill: none; stroke: #ffffff; stroke-width: 0.8; stroke-linecap: square"/>
     </g>
     <g id="line2d_22">
      <g>
       <use xlink:href="#m7067e3f7c9" x="57.6" y="110.929451" style="fill: #555555; stroke: #555555; stroke-width: 0.8"/>
      </g>
     </g>
     <g id="text_11">
      <!-- 2.5 -->
      <g style="fill: #555555" transform="translate(34.696875 114.728669) scale(0.1 -0.1)">
       <use xlink:href="#DejaVuSans-32"/>
       <use xlink:href="#DejaVuSans-2e" x="63.623047"/>
       <use xlink:href="#DejaVuSans-35" x="95.410156"/>
      </g>
     </g>
    </g>
    <g id="ytick_7">
     <g id="line2d_23">
      <path d="M 57.6 74.003359 
L 414.72 74.003359 
" clip-path="url(#pd6b5b0ce19)" style="fill: none; stroke: #ffffff; stroke-width: 0.8; stroke-linecap: square"/>
     </g>
     <g id="line2d_24">
      <g>
       <use xlink:href="#m7067e3f7c9" x="57.6" y="74.003359" style="fill: #555555; stroke: #555555; stroke-width: 0.8"/>
      </g>
     </g>
     <g id="text_12">
      <!-- 3.0 -->
      <g style="fill: #555555" transform="translate(34.696875 77.802577) scale(0.1 -0.1)">
       <defs>
        <path id="DejaVuSans-33" d="M 2597 2516 
Q 3050 2419 3304 2112 
Q 3559 1806 3559 1356 
Q 3559 666 3084 287 
Q 2609 -91 1734 -91 
Q 1441 -91 1130 -33 
Q 819 25 488 141 
L 488 750 
Q 750 597 1062 519 
Q 1375 441 1716 441 
Q 2309 441 2620 675 
Q 2931 909 2931 1356 
Q 2931 1769 2642 2001 
Q 2353 2234 1838 2234 
L 1294 2234 
L 1294 2753 
L 1863 2753 
Q 2328 2753 2575 2939 
Q 2822 3125 2822 3475 
Q 2822 3834 2567 4026 
Q 2313 4219 1838 4219 
Q 1578 4219 1281 4162 
Q 984 4106 628 3988 
L 628 4550 
Q 988 4650 1302 4700 
Q 1616 4750 1894 4750 
Q 2613 4750 3031 4423 
Q 3450 4097 3450 3541 
Q 3450 3153 3228 2886 
Q 3006 2619 2597 2516 
z
" transform="scale(0.015625)"/>
       </defs>
       <use xlink:href="#DejaVuSans-33"/>
       <use xlink:href="#DejaVuSans-2e" x="63.623047"/>
       <use xlink:href="#DejaVuSans-30" x="95.410156"/>
      </g>
     </g>
    </g>
   </g>
   <g id="line2d_25">
    <path d="M 73.832727 241.397292 
L 77.480531 241.386221 
L 81.128335 241.733859 
L 84.776139 242.08601 
L 88.423943 242.587738 
L 92.071747 242.937489 
L 95.719551 243.452872 
L 99.367354 243.886717 
L 103.015158 244.16731 
L 106.662962 244.640856 
L 110.310766 245.073456 
L 113.95857 245.389198 
L 117.606374 245.7328 
L 121.254178 246.241972 
L 124.901982 246.358464 
L 128.549785 246.695969 
L 132.197589 247.051941 
L 135.845393 247.349494 
L 139.493197 247.553171 
L 143.141001 247.961283 
L 146.788805 248.271892 
L 150.436609 248.568591 
L 154.084413 248.89588 
L 157.732217 249.362247 
L 161.38002 249.483212 
L 165.027824 250.046162 
L 168.675628 250.450748 
L 172.323432 250.63625 
L 175.971236 251.142419 
L 179.61904 251.54638 
L 183.266844 251.821175 
L 186.914648 252.316353 
L 190.562451 253.175769 
L 194.210255 254.153421 
L 197.858059 254.80253 
L 201.505863 255.970961 
L 205.153667 257.051205 
L 208.801471 257.831196 
L 212.449275 258.797586 
L 216.097079 260.037481 
L 219.744883 261.359956 
L 223.392686 262.371788 
L 227.04049 263.664616 
L 230.688294 265.046755 
L 234.336098 266.126292 
L 237.983902 267.1234 
L 241.631706 268.689555 
L 245.27951 269.549033 
L 248.927314 271.089163 
L 252.575117 271.895316 
L 256.222921 273.347256 
L 259.870725 274.657577 
L 263.518529 275.815651 
L 267.166333 276.958831 
L 270.814137 277.989659 
L 274.461941 279.278904 
L 278.109745 280.620996 
L 281.757549 281.508406 
L 285.405352 282.651685 
L 289.053156 283.676656 
L 292.70096 284.43598 
L 296.348764 285.424085 
L 299.996568 286.491839 
L 303.644372 287.386474 
L 307.292176 288.06277 
L 310.93998 288.999253 
L 314.587783 289.566948 
L 318.235587 290.204591 
L 321.883391 290.624343 
L 325.531195 291.339554 
L 329.178999 291.789154 
L 332.826803 292.077891 
L 336.474607 292.596385 
L 340.122411 292.900598 
L 343.770215 293.078654 
L 347.418018 293.433655 
L 351.065822 293.687357 
L 354.713626 293.918908 
L 358.36143 294.033284 
L 362.009234 294.187169 
L 365.657038 294.296147 
L 369.304842 294.401734 
L 372.952646 294.528941 
L 376.600449 294.567558 
L 380.248253 294.677608 
L 383.896057 294.736983 
L 387.543861 294.763262 
L 391.191665 294.867859 
L 394.839469 294.691833 
L 398.487273 294.945006 
" clip-path="url(#pd6b5b0ce19)" style="fill: none; stroke: #ff00ff; stroke-opacity: 0.3; stroke-width: 0.5; stroke-linecap: square"/>
   </g>
   <g id="line2d_26">
    <path d="M 73.832727 244.85214 
L 77.480531 244.969993 
L 81.128335 245.307195 
L 84.776139 245.795536 
L 88.423943 246.219244 
L 92.071747 246.929105 
L 95.719551 247.664342 
L 99.367354 248.595795 
L 103.015158 249.608363 
L 106.662962 250.619584 
L 110.310766 251.909034 
L 113.95857 253.211059 
L 117.606374 254.598267 
L 121.254178 255.981478 
L 124.901982 257.698571 
L 128.549785 259.315423 
L 132.197589 261.317035 
L 135.845393 263.218538 
L 139.493197 265.389272 
L 143.141001 267.490116 
L 146.788805 269.831042 
L 150.436609 272.068708 
L 154.084413 274.033222 
L 157.732217 276.156389 
L 161.38002 278.35298 
L 165.027824 280.072172 
L 168.675628 281.898516 
L 172.323432 283.51548 
L 175.971236 284.973053 
L 179.61904 286.408887 
L 183.266844 287.55012 
L 186.914648 288.42754 
L 190.562451 289.551997 
L 194.210255 290.745163 
L 197.858059 291.472416 
L 201.505863 292.275701 
L 205.153667 292.83127 
L 208.801471 293.33985 
L 212.449275 293.683708 
L 216.097079 294.00888 
L 219.744883 294.23961 
L 223.392686 294.472822 
L 227.04049 294.631446 
L 230.688294 294.780475 
L 234.336098 294.872335 
L 237.983902 294.96074 
L 241.631706 295.02327 
L 245.27951 295.09198 
L 248.927314 295.14492 
L 252.575117 295.179325 
L 256.222921 295.236496 
L 259.870725 295.270805 
L 263.518529 295.262531 
L 267.166333 295.305802 
L 270.814137 295.322963 
L 274.461941 295.346671 
L 278.109745 295.368612 
L 281.757549 295.37582 
L 285.405352 295.386007 
L 289.053156 295.377341 
L 292.70096 295.393658 
L 296.348764 295.410157 
L 299.996568 295.404375 
L 303.644372 295.425963 
L 307.292176 295.413531 
L 310.93998 295.42635 
L 314.587783 295.426666 
L 318.235587 295.437327 
L 321.883391 295.435112 
L 325.531195 295.440684 
L 329.178999 295.445882 
L 332.826803 295.453526 
L 336.474607 295.451879 
L 340.122411 295.452302 
L 343.770215 295.453224 
L 347.418018 295.463452 
L 351.065822 295.459087 
L 354.713626 295.460445 
L 358.36143 295.463104 
L 362.009234 295.461301 
L 365.657038 295.47022 
L 369.304842 295.464162 
L 372.952646 295.473583 
L 376.600449 295.468016 
L 380.248253 295.476699 
L 383.896057 295.471748 
L 387.543861 295.479548 
L 391.191665 295.469216 
L 394.839469 295.479654 
L 398.487273 295.473897 
" clip-path="url(#pd6b5b0ce19)" style="fill: none; stroke: #ff00ff; stroke-opacity: 0.3; stroke-width: 0.5; stroke-linecap: square"/>
   </g>
   <g id="line2d_27">
    <path d="M 73.832727 245.754682 
L 77.480531 245.890015 
L 81.128335 246.127002 
L 84.776139 246.149672 
L 88.423943 246.521992 
L 92.071747 246.679612 
L 95.719551 247.167298 
L 99.367354 247.523555 
L 103.015158 248.0023 
L 106.662962 248.372723 
L 110.310766 248.765477 
L 113.95857 249.283958 
L 117.606374 249.93345 
L 121.254178 250.797352 
L 124.901982 251.253731 
L 128.549785 252.158989 
L 132.197589 252.99426 
L 135.845393 253.596264 
L 139.493197 254.568871 
L 143.141001 255.471694 
L 146.788805 256.494664 
L 150.436609 256.695361 
L 154.084413 257.97451 
L 157.732217 258.30852 
L 161.38002 259.017958 
L 165.027824 259.904815 
L 168.675628 260.694779 
L 172.323432 261.885218 
L 175.971236 262.81582 
L 179.61904 262.693825 
L 183.266844 263.637632 
L 186.914648 263.305793 
L 190.562451 265.608013 
L 194.210255 267.660319 
L 197.858059 269.095823 
L 201.505863 270.647566 
L 205.153667 271.853425 
L 208.801471 273.556117 
L 212.449275 275.317619 
L 216.097079 277.203314 
L 219.744883 278.836021 
L 223.392686 279.973737 
L 227.04049 281.575911 
L 230.688294 283.182242 
L 234.336098 284.046103 
L 237.983902 285.010358 
L 241.631706 286.243799 
L 245.27951 287.249745 
L 248.927314 288.115238 
L 252.575117 288.693739 
L 256.222921 289.637993 
L 259.870725 290.169698 
L 263.518529 291.045781 
L 267.166333 291.437266 
L 270.814137 291.416336 
L 274.461941 292.103267 
L 278.109745 292.295528 
L 281.757549 292.870505 
L 285.405352 292.97273 
L 289.053156 293.052247 
L 292.70096 293.181749 
L 296.348764 293.598995 
L 299.996568 293.911566 
L 303.644372 293.479264 
L 307.292176 293.730779 
L 310.93998 294.071967 
L 314.587783 294.192048 
L 318.235587 294.17527 
L 321.883391 294.321335 
L 325.531195 294.271913 
L 329.178999 294.47515 
L 332.826803 294.194685 
L 336.474607 294.55197 
L 340.122411 294.657169 
L 343.770215 294.57436 
L 347.418018 294.53065 
L 351.065822 294.694805 
L 354.713626 294.631304 
L 358.36143 294.60088 
L 362.009234 294.800512 
L 365.657038 294.753231 
L 369.304842 294.911743 
L 372.952646 294.911507 
L 376.600449 294.720658 
L 380.248253 294.891743 
L 383.896057 294.954033 
L 387.543861 294.983612 
L 391.191665 294.905155 
L 394.839469 294.881123 
L 398.487273 294.954109 
" clip-path="url(#pd6b5b0ce19)" style="fill: none; stroke: #ff00ff; stroke-opacity: 0.3; stroke-width: 0.5; stroke-linecap: square"/>
   </g>
   <g id="line2d_28">
    <path d="M 73.832727 242.982296 
L 77.480531 243.263786 
L 81.128335 243.430734 
L 84.776139 243.65367 
L 88.423943 243.988274 
L 92.071747 244.177038 
L 95.719551 244.409953 
L 99.367354 244.819835 
L 103.015158 245.371084 
L 106.662962 245.679563 
L 110.310766 246.194906 
L 113.95857 246.626665 
L 117.606374 247.092368 
L 121.254178 247.519567 
L 124.901982 247.745566 
L 128.549785 248.198059 
L 132.197589 248.430564 
L 135.845393 248.596931 
L 139.493197 248.761823 
L 143.141001 249.755837 
L 146.788805 249.596641 
L 150.436609 249.940515 
L 154.084413 250.166938 
L 157.732217 250.639498 
L 161.38002 250.37996 
L 165.027824 251.036496 
L 168.675628 250.621675 
L 172.323432 250.30397 
L 175.971236 250.26728 
L 179.61904 250.499645 
L 183.266844 250.394839 
L 186.914648 250.372997 
L 190.562451 250.913726 
L 194.210255 250.528086 
L 197.858059 250.696732 
L 201.505863 251.166102 
L 205.153667 251.594507 
L 208.801471 251.474792 
L 212.449275 252.343148 
L 216.097079 252.546249 
L 219.744883 252.782927 
L 223.392686 252.943501 
L 227.04049 252.880848 
L 230.688294 253.741708 
L 234.336098 253.972898 
L 237.983902 254.196718 
L 241.631706 254.411013 
L 245.27951 254.353806 
L 248.927314 255.269056 
L 252.575117 255.157814 
L 256.222921 255.433926 
L 259.870725 255.770845 
L 263.518529 257.223712 
L 267.166333 257.423705 
L 270.814137 257.019832 
L 274.461941 258.093371 
L 278.109745 258.765179 
L 281.757549 258.407845 
L 285.405352 258.935672 
L 289.053156 259.522945 
L 292.70096 260.48019 
L 296.348764 260.391149 
L 299.996568 261.018264 
L 303.644372 261.160185 
L 307.292176 262.030148 
L 310.93998 262.31337 
L 314.587783 263.330708 
L 318.235587 263.758219 
L 321.883391 263.452238 
L 325.531195 263.940985 
L 329.178999 264.243671 
L 332.826803 265.060654 
L 336.474607 266.019934 
L 340.122411 266.467263 
L 343.770215 266.8263 
L 347.418018 267.119676 
L 351.065822 266.866255 
L 354.713626 270.347202 
L 358.36143 269.620564 
L 362.009234 270.591912 
L 365.657038 269.333785 
L 369.304842 270.070719 
L 372.952646 271.670254 
L 376.600449 271.906376 
L 380.248253 271.161789 
L 383.896057 270.754834 
L 387.543861 272.581674 
L 391.191665 273.485147 
L 394.839469 273.721438 
L 398.487273 274.440342 
" clip-path="url(#pd6b5b0ce19)" style="fill: none; stroke: #ff00ff; stroke-opacity: 0.3; stroke-width: 0.5; stroke-linecap: square"/>
   </g>
   <g id="line2d_29">
    <path d="M 73.832727 243.081335 
L 77.480531 243.149988 
L 81.128335 243.507715 
L 84.776139 243.363358 
L 88.423943 243.535034 
L 92.071747 243.833388 
L 95.719551 244.124281 
L 99.367354 244.193638 
L 103.015158 244.332453 
L 106.662962 244.697954 
L 110.310766 244.924904 
L 113.95857 245.109464 
L 117.606374 245.222167 
L 121.254178 245.449135 
L 124.901982 245.707757 
L 128.549785 245.915172 
L 132.197589 245.94378 
L 135.845393 246.1396 
L 139.493197 246.205854 
L 143.141001 246.603243 
L 146.788805 246.863833 
L 150.436609 246.883162 
L 154.084413 247.18274 
L 157.732217 247.51115 
L 161.38002 247.764085 
L 165.027824 248.098786 
L 168.675628 248.311941 
L 172.323432 248.630755 
L 175.971236 248.525659 
L 179.61904 249.026569 
L 183.266844 249.359592 
L 186.914648 249.746135 
L 190.562451 250.145148 
L 194.210255 250.775791 
L 197.858059 251.105029 
L 201.505863 251.922988 
L 205.153667 252.7241 
L 208.801471 253.193095 
L 212.449275 254.399779 
L 216.097079 255.006291 
L 219.744883 255.956739 
L 223.392686 257.017433 
L 227.04049 257.754295 
L 230.688294 258.641031 
L 234.336098 259.560417 
L 237.983902 261.181752 
L 241.631706 261.794532 
L 245.27951 262.728922 
L 248.927314 264.199198 
L 252.575117 264.884973 
L 256.222921 266.029773 
L 259.870725 267.397942 
L 263.518529 268.620451 
L 267.166333 269.433601 
L 270.814137 270.65361 
L 274.461941 271.652633 
L 278.109745 272.571985 
L 281.757549 273.596172 
L 285.405352 274.434646 
L 289.053156 275.437217 
L 292.70096 276.174133 
L 296.348764 276.80256 
L 299.996568 277.622754 
L 303.644372 278.493947 
L 307.292176 279.228942 
L 310.93998 279.977879 
L 314.587783 280.755248 
L 318.235587 281.434302 
L 321.883391 281.831524 
L 325.531195 282.582261 
L 329.178999 283.254316 
L 332.826803 283.667432 
L 336.474607 284.116799 
L 340.122411 284.77699 
L 343.770215 285.142394 
L 347.418018 285.666982 
L 351.065822 286.246801 
L 354.713626 286.738171 
L 358.36143 287.00169 
L 362.009234 287.471504 
L 365.657038 287.848864 
L 369.304842 288.245349 
L 372.952646 288.636851 
L 376.600449 288.949784 
L 380.248253 289.377286 
L 383.896057 289.652517 
L 387.543861 289.942524 
L 391.191665 290.323887 
L 394.839469 290.451251 
L 398.487273 290.752991 
" clip-path="url(#pd6b5b0ce19)" style="fill: none; stroke: #ff00ff; stroke-opacity: 0.3; stroke-width: 0.5; stroke-linecap: square"/>
   </g>
   <g id="line2d_30">
    <path d="M 73.832727 247.322699 
L 77.480531 247.628149 
L 81.128335 247.982654 
L 84.776139 248.493406 
L 88.423943 249.27835 
L 92.071747 249.830401 
L 95.719551 250.615768 
L 99.367354 251.348219 
L 103.015158 252.376726 
L 106.662962 253.082624 
L 110.310766 254.26118 
L 113.95857 255.309443 
L 117.606374 256.7569 
L 121.254178 258.351501 
L 124.901982 259.996945 
L 128.549785 261.896756 
L 132.197589 263.984124 
L 135.845393 266.1254 
L 139.493197 267.806228 
L 143.141001 269.760699 
L 146.788805 271.978495 
L 150.436609 274.087096 
L 154.084413 276.241503 
L 157.732217 278.009991 
L 161.38002 279.894793 
L 165.027824 281.692946 
L 168.675628 283.092785 
L 172.323432 284.441097 
L 175.971236 285.525868 
L 179.61904 286.598685 
L 183.266844 287.462073 
L 186.914648 287.930689 
L 190.562451 289.48716 
L 194.210255 290.796549 
L 197.858059 291.436959 
L 201.505863 292.10692 
L 205.153667 292.566039 
L 208.801471 292.989331 
L 212.449275 293.374356 
L 216.097079 293.744125 
L 219.744883 293.969093 
L 223.392686 294.196106 
L 227.04049 294.418395 
L 230.688294 294.544861 
L 234.336098 294.750684 
L 237.983902 294.850176 
L 241.631706 294.923238 
L 245.27951 294.988593 
L 248.927314 295.04899 
L 252.575117 295.09953 
L 256.222921 295.16226 
L 259.870725 295.161006 
L 263.518529 295.207074 
L 267.166333 295.217409 
L 270.814137 295.245995 
L 274.461941 295.29469 
L 278.109745 295.297056 
L 281.757549 295.307446 
L 285.405352 295.332637 
L 289.053156 295.284814 
L 292.70096 295.299263 
L 296.348764 295.32492 
L 299.996568 295.377437 
L 303.644372 295.386915 
L 307.292176 295.357068 
L 310.93998 295.354249 
L 314.587783 295.383627 
L 318.235587 295.410478 
L 321.883391 295.389851 
L 325.531195 295.410714 
L 329.178999 295.413268 
L 332.826803 295.403603 
L 336.474607 295.417458 
L 340.122411 295.404826 
L 343.770215 295.416538 
L 347.418018 295.428001 
L 351.065822 295.435213 
L 354.713626 295.425985 
L 358.36143 295.431654 
L 362.009234 295.431489 
L 365.657038 295.445391 
L 369.304842 295.441778 
L 372.952646 295.443447 
L 376.600449 295.436778 
L 380.248253 295.454709 
L 383.896057 295.445115 
L 387.543861 295.453613 
L 391.191665 295.459006 
L 394.839469 295.441741 
L 398.487273 295.446239 
" clip-path="url(#pd6b5b0ce19)" style="fill: none; stroke: #ff00ff; stroke-opacity: 0.3; stroke-width: 0.5; stroke-linecap: square"/>
   </g>
   <g id="line2d_31">
    <path d="M 73.832727 245.513601 
L 77.480531 245.617152 
L 81.128335 245.836466 
L 84.776139 246.363707 
L 88.423943 246.977962 
L 92.071747 247.743854 
L 95.719551 248.514672 
L 99.367354 249.481949 
L 103.015158 250.659474 
L 106.662962 251.800495 
L 110.310766 252.878238 
L 113.95857 254.222487 
L 117.606374 255.137482 
L 121.254178 256.997589 
L 124.901982 257.955916 
L 128.549785 259.691541 
L 132.197589 261.094261 
L 135.845393 262.855074 
L 139.493197 264.294049 
L 143.141001 266.075736 
L 146.788805 267.878362 
L 150.436609 269.766622 
L 154.084413 271.588644 
L 157.732217 273.31964 
L 161.38002 275.211026 
L 165.027824 276.829672 
L 168.675628 278.582075 
L 172.323432 279.86812 
L 175.971236 281.660964 
L 179.61904 282.976359 
L 183.266844 284.250322 
L 186.914648 285.580947 
L 190.562451 287.107677 
L 194.210255 288.314098 
L 197.858059 289.487694 
L 201.505863 290.362732 
L 205.153667 291.145397 
L 208.801471 291.870559 
L 212.449275 292.478662 
L 216.097079 292.946537 
L 219.744883 293.441634 
L 223.392686 293.786609 
L 227.04049 294.101056 
L 230.688294 294.31317 
L 234.336098 294.481406 
L 237.983902 294.669719 
L 241.631706 294.803276 
L 245.27951 294.87901 
L 248.927314 295.002729 
L 252.575117 295.043389 
L 256.222921 295.115581 
L 259.870725 295.138223 
L 263.518529 295.187963 
L 267.166333 295.237638 
L 270.814137 295.249601 
L 274.461941 295.283617 
L 278.109745 295.302831 
L 281.757549 295.333876 
L 285.405352 295.347731 
L 289.053156 295.346495 
L 292.70096 295.361333 
L 296.348764 295.376141 
L 299.996568 295.3884 
L 303.644372 295.407754 
L 307.292176 295.389782 
L 310.93998 295.414237 
L 314.587783 295.408261 
L 318.235587 295.423108 
L 321.883391 295.414497 
L 325.531195 295.429528 
L 329.178999 295.439986 
L 332.826803 295.43031 
L 336.474607 295.441544 
L 340.122411 295.436544 
L 343.770215 295.443934 
L 347.418018 295.448157 
L 351.065822 295.45835 
L 354.713626 295.453201 
L 358.36143 295.452916 
L 362.009234 295.452556 
L 365.657038 295.461236 
L 369.304842 295.461535 
L 372.952646 295.471238 
L 376.600449 295.467341 
L 380.248253 295.463972 
L 383.896057 295.47109 
L 387.543861 295.472303 
L 391.191665 295.471428 
L 394.839469 295.470084 
L 398.487273 295.471324 
" clip-path="url(#pd6b5b0ce19)" style="fill: none; stroke: #ff00ff; stroke-opacity: 0.3; stroke-width: 0.5; stroke-linecap: square"/>
   </g>
   <g id="line2d_32">
    <path d="M 73.832727 243.693371 
L 77.480531 243.750178 
L 81.128335 243.852888 
L 84.776139 244.115402 
L 88.423943 244.341472 
L 92.071747 244.598849 
L 95.719551 244.808724 
L 99.367354 245.053947 
L 103.015158 245.257118 
L 106.662962 245.361898 
L 110.310766 245.447141 
L 113.95857 245.612491 
L 117.606374 245.811361 
L 121.254178 246.059133 
L 124.901982 246.181309 
L 128.549785 246.444346 
L 132.197589 246.626252 
L 135.845393 246.842703 
L 139.493197 247.034821 
L 143.141001 247.374924 
L 146.788805 247.420853 
L 150.436609 247.926279 
L 154.084413 248.077683 
L 157.732217 248.514606 
L 161.38002 248.915657 
L 165.027824 249.269291 
L 168.675628 249.441803 
L 172.323432 249.928322 
L 175.971236 250.530335 
L 179.61904 250.794385 
L 183.266844 251.134958 
L 186.914648 251.976181 
L 190.562451 252.678368 
L 194.210255 253.579118 
L 197.858059 254.270772 
L 201.505863 255.264601 
L 205.153667 256.246408 
L 208.801471 257.395167 
L 212.449275 258.465013 
L 216.097079 259.686739 
L 219.744883 261.023745 
L 223.392686 262.184284 
L 227.04049 263.727511 
L 230.688294 265.451656 
L 234.336098 266.842288 
L 237.983902 268.709822 
L 241.631706 270.335411 
L 245.27951 272.168515 
L 248.927314 273.78708 
L 252.575117 275.782051 
L 256.222921 277.699351 
L 259.870725 278.814664 
L 263.518529 280.885374 
L 267.166333 282.394361 
L 270.814137 283.714366 
L 274.461941 284.950133 
L 278.109745 286.394162 
L 281.757549 287.370641 
L 285.405352 288.76761 
L 289.053156 289.439368 
L 292.70096 290.202577 
L 296.348764 290.865648 
L 299.996568 291.379577 
L 303.644372 292.047705 
L 307.292176 292.196315 
L 310.93998 292.889166 
L 314.587783 293.139145 
L 318.235587 293.471581 
L 321.883391 293.630216 
L 325.531195 293.869354 
L 329.178999 294.133794 
L 332.826803 294.152209 
L 336.474607 294.419024 
L 340.122411 294.38336 
L 343.770215 294.522104 
L 347.418018 294.66914 
L 351.065822 294.757708 
L 354.713626 294.773105 
L 358.36143 294.80957 
L 362.009234 294.818731 
L 365.657038 294.952557 
L 369.304842 294.985053 
L 372.952646 294.949031 
L 376.600449 294.85509 
L 380.248253 295.069366 
L 383.896057 295.084974 
L 387.543861 295.102388 
L 391.191665 295.083294 
L 394.839469 295.145147 
L 398.487273 295.162327 
" clip-path="url(#pd6b5b0ce19)" style="fill: none; stroke: #ff00ff; stroke-opacity: 0.3; stroke-width: 0.5; stroke-linecap: square"/>
   </g>
   <g id="line2d_33">
    <path d="M 73.832727 244.424955 
L 77.480531 244.396122 
L 81.128335 244.402413 
L 84.776139 244.439855 
L 88.423943 244.441924 
L 92.071747 244.557611 
L 95.719551 244.564655 
L 99.367354 244.640487 
L 103.015158 244.66582 
L 106.662962 244.763367 
L 110.310766 244.877267 
L 113.95857 244.936583 
L 117.606374 245.007375 
L 121.254178 245.091487 
L 124.901982 245.195548 
L 128.549785 245.34823 
L 132.197589 245.429238 
L 135.845393 245.60146 
L 139.493197 245.744632 
L 143.141001 245.870691 
L 146.788805 246.15627 
L 150.436609 246.258994 
L 154.084413 246.522111 
L 157.732217 246.796637 
L 161.38002 246.965509 
L 165.027824 247.392646 
L 168.675628 247.564695 
L 172.323432 248.092113 
L 175.971236 248.304682 
L 179.61904 248.657722 
L 183.266844 248.952915 
L 186.914648 249.296649 
L 190.562451 249.837365 
L 194.210255 250.220109 
L 197.858059 250.788676 
L 201.505863 251.698023 
L 205.153667 252.235446 
L 208.801471 253.181861 
L 212.449275 253.739489 
L 216.097079 254.504378 
L 219.744883 255.840378 
L 223.392686 256.78351 
L 227.04049 257.654375 
L 230.688294 258.887095 
L 234.336098 260.086971 
L 237.983902 261.151002 
L 241.631706 262.495384 
L 245.27951 263.758648 
L 248.927314 264.920292 
L 252.575117 266.448901 
L 256.222921 268.042464 
L 259.870725 269.241421 
L 263.518529 270.66853 
L 267.166333 272.356084 
L 270.814137 273.414815 
L 274.461941 275.005592 
L 278.109745 276.674728 
L 281.757549 277.844334 
L 285.405352 279.195062 
L 289.053156 280.417357 
L 292.70096 281.497598 
L 296.348764 282.868464 
L 299.996568 284.31529 
L 303.644372 285.688438 
L 307.292176 286.562812 
L 310.93998 287.851816 
L 314.587783 288.712892 
L 318.235587 289.681897 
L 321.883391 290.300467 
L 325.531195 290.913898 
L 329.178999 291.70013 
L 332.826803 292.18774 
L 336.474607 292.582251 
L 340.122411 293.05605 
L 343.770215 293.348042 
L 347.418018 293.712774 
L 351.065822 293.930141 
L 354.713626 294.089408 
L 358.36143 294.244809 
L 362.009234 294.431873 
L 365.657038 294.524678 
L 369.304842 294.60089 
L 372.952646 294.768696 
L 376.600449 294.778865 
L 380.248253 294.908007 
L 383.896057 294.95396 
L 387.543861 294.973489 
L 391.191665 295.062294 
L 394.839469 295.044276 
L 398.487273 295.130538 
" clip-path="url(#pd6b5b0ce19)" style="fill: none; stroke: #ff00ff; stroke-opacity: 0.3; stroke-width: 0.5; stroke-linecap: square"/>
   </g>
   <g id="line2d_34">
    <path d="M 73.832727 247.594435 
L 77.480531 247.811287 
L 81.128335 248.21016 
L 84.776139 248.441983 
L 88.423943 248.919566 
L 92.071747 249.874266 
L 95.719551 250.364888 
L 99.367354 250.780233 
L 103.015158 251.639327 
L 106.662962 252.446395 
L 110.310766 253.347832 
L 113.95857 254.418831 
L 117.606374 255.346578 
L 121.254178 256.050962 
L 124.901982 257.48682 
L 128.549785 258.150856 
L 132.197589 259.257709 
L 135.845393 260.818868 
L 139.493197 261.807157 
L 143.141001 262.919829 
L 146.788805 264.437583 
L 150.436609 265.704116 
L 154.084413 266.763412 
L 157.732217 268.423454 
L 161.38002 269.561783 
L 165.027824 270.658251 
L 168.675628 272.32091 
L 172.323432 273.413461 
L 175.971236 274.804199 
L 179.61904 275.649885 
L 183.266844 276.743405 
L 186.914648 278.400494 
L 190.562451 279.781678 
L 194.210255 281.448436 
L 197.858059 282.822124 
L 201.505863 284.385374 
L 205.153667 285.366387 
L 208.801471 286.648168 
L 212.449275 287.869914 
L 216.097079 288.873837 
L 219.744883 289.564071 
L 223.392686 290.495179 
L 227.04049 291.26288 
L 230.688294 291.829977 
L 234.336098 292.394952 
L 237.983902 292.743621 
L 241.631706 293.093598 
L 245.27951 293.420311 
L 248.927314 293.698347 
L 252.575117 293.927842 
L 256.222921 294.158313 
L 259.870725 294.352422 
L 263.518529 294.324836 
L 267.166333 294.603348 
L 270.814137 294.682857 
L 274.461941 294.772728 
L 278.109745 294.801155 
L 281.757549 294.88292 
L 285.405352 294.997208 
L 289.053156 294.981317 
L 292.70096 295.023721 
L 296.348764 294.99768 
L 299.996568 295.085665 
L 303.644372 295.155932 
L 307.292176 295.162002 
L 310.93998 295.192728 
L 314.587783 295.200939 
L 318.235587 295.216769 
L 321.883391 295.215444 
L 325.531195 295.262272 
L 329.178999 295.257376 
L 332.826803 295.275501 
L 336.474607 295.275067 
L 340.122411 295.291403 
L 343.770215 295.271972 
L 347.418018 295.315672 
L 351.065822 295.324895 
L 354.713626 295.328295 
L 358.36143 295.304415 
L 362.009234 295.333099 
L 365.657038 295.340673 
L 369.304842 295.349477 
L 372.952646 295.327453 
L 376.600449 295.302318 
L 380.248253 295.355384 
L 383.896057 295.322283 
L 387.543861 295.385102 
L 391.191665 295.393782 
L 394.839469 295.365742 
L 398.487273 295.333853 
" clip-path="url(#pd6b5b0ce19)" style="fill: none; stroke: #ff00ff; stroke-opacity: 0.3; stroke-width: 0.5; stroke-linecap: square"/>
   </g>
   <g id="line2d_35">
    <path d="M 73.832727 243.70637 
L 77.480531 243.691514 
L 81.128335 243.80824 
L 84.776139 243.763652 
L 88.423943 244.044408 
L 92.071747 244.011781 
L 95.719551 244.07674 
L 99.367354 244.233427 
L 103.015158 244.322557 
L 106.662962 244.407906 
L 110.310766 244.562652 
L 113.95857 244.639703 
L 117.606374 244.740534 
L 121.254178 244.825707 
L 124.901982 244.893475 
L 128.549785 244.905892 
L 132.197589 245.053392 
L 135.845393 245.077744 
L 139.493197 245.211638 
L 143.141001 245.227313 
L 146.788805 245.319749 
L 150.436609 245.32949 
L 154.084413 245.394784 
L 157.732217 245.521261 
L 161.38002 245.464128 
L 165.027824 245.547276 
L 168.675628 245.587655 
L 172.323432 245.69736 
L 175.971236 245.626718 
L 179.61904 245.687997 
L 183.266844 245.6928 
L 186.914648 245.787498 
L 190.562451 245.767809 
L 194.210255 245.839701 
L 197.858059 245.898841 
L 201.505863 245.944555 
L 205.153667 246.122688 
L 208.801471 246.198432 
L 212.449275 246.139644 
L 216.097079 246.324275 
L 219.744883 246.487071 
L 223.392686 246.369082 
L 227.04049 246.582347 
L 230.688294 246.635408 
L 234.336098 246.930738 
L 237.983902 246.925794 
L 241.631706 246.945863 
L 245.27951 246.802571 
L 248.927314 247.127676 
L 252.575117 247.168046 
L 256.222921 247.347988 
L 259.870725 247.401806 
L 263.518529 247.673828 
L 267.166333 247.596948 
L 270.814137 247.711244 
L 274.461941 247.839041 
L 278.109745 247.870255 
L 281.757549 248.170445 
L 285.405352 248.204816 
L 289.053156 248.550138 
L 292.70096 248.67293 
L 296.348764 248.757241 
L 299.996568 248.741825 
L 303.644372 249.16434 
L 307.292176 249.300369 
L 310.93998 249.520096 
L 314.587783 249.510869 
L 318.235587 249.892033 
L 321.883391 249.96731 
L 325.531195 250.195775 
L 329.178999 250.747201 
L 332.826803 250.989862 
L 336.474607 250.739585 
L 340.122411 251.322463 
L 343.770215 251.887231 
L 347.418018 251.959519 
L 351.065822 252.53152 
L 354.713626 252.683695 
L 358.36143 252.863866 
L 362.009234 253.142187 
L 365.657038 253.511214 
L 369.304842 254.235332 
L 372.952646 254.270583 
L 376.600449 254.459047 
L 380.248253 255.382326 
L 383.896057 255.678154 
L 387.543861 256.026439 
L 391.191665 256.469916 
L 394.839469 256.931661 
L 398.487273 257.997149 
" clip-path="url(#pd6b5b0ce19)" style="fill: none; stroke: #ff00ff; stroke-opacity: 0.3; stroke-width: 0.5; stroke-linecap: square"/>
   </g>
   <g id="line2d_36">
    <path d="M 73.832727 244.559328 
L 77.480531 244.483738 
L 81.128335 244.636512 
L 84.776139 244.592365 
L 88.423943 244.603898 
L 92.071747 244.79661 
L 95.719551 244.878803 
L 99.367354 245.027465 
L 103.015158 245.164937 
L 106.662962 245.169907 
L 110.310766 245.287382 
L 113.95857 245.400692 
L 117.606374 245.491649 
L 121.254178 245.557013 
L 124.901982 245.67042 
L 128.549785 245.808051 
L 132.197589 245.894562 
L 135.845393 245.973907 
L 139.493197 246.107343 
L 143.141001 246.224676 
L 146.788805 246.425572 
L 150.436609 246.658394 
L 154.084413 246.857939 
L 157.732217 247.208046 
L 161.38002 247.410879 
L 165.027824 247.760432 
L 168.675628 247.999642 
L 172.323432 248.584438 
L 175.971236 249.257234 
L 179.61904 249.335435 
L 183.266844 249.904939 
L 186.914648 250.158578 
L 190.562451 250.603161 
L 194.210255 251.566048 
L 197.858059 252.345124 
L 201.505863 252.329779 
L 205.153667 253.297201 
L 208.801471 254.037434 
L 212.449275 254.809093 
L 216.097079 255.742756 
L 219.744883 256.789232 
L 223.392686 257.799278 
L 227.04049 258.896544 
L 230.688294 260.450523 
L 234.336098 261.02479 
L 237.983902 262.103152 
L 241.631706 263.768524 
L 245.27951 265.361766 
L 248.927314 266.355617 
L 252.575117 267.708417 
L 256.222921 269.463411 
L 259.870725 270.696555 
L 263.518529 272.210012 
L 267.166333 273.586697 
L 270.814137 274.96919 
L 274.461941 276.469351 
L 278.109745 277.738036 
L 281.757549 279.164034 
L 285.405352 280.492138 
L 289.053156 281.408933 
L 292.70096 282.754907 
L 296.348764 283.921107 
L 299.996568 285.040169 
L 303.644372 286.040877 
L 307.292176 286.807448 
L 310.93998 287.914177 
L 314.587783 288.381274 
L 318.235587 289.48571 
L 321.883391 289.766097 
L 325.531195 290.571847 
L 329.178999 291.012151 
L 332.826803 291.586211 
L 336.474607 291.928664 
L 340.122411 292.322772 
L 343.770215 292.48121 
L 347.418018 292.863341 
L 351.065822 293.234943 
L 354.713626 293.416805 
L 358.36143 293.473346 
L 362.009234 293.79503 
L 365.657038 293.874628 
L 369.304842 294.018489 
L 372.952646 294.170498 
L 376.600449 294.185056 
L 380.248253 294.26146 
L 383.896057 294.441833 
L 387.543861 294.520154 
L 391.191665 294.541147 
L 394.839469 294.572177 
L 398.487273 294.663747 
" clip-path="url(#pd6b5b0ce19)" style="fill: none; stroke: #ff00ff; stroke-opacity: 0.3; stroke-width: 0.5; stroke-linecap: square"/>
   </g>
   <g id="line2d_37">
    <path d="M 73.832727 243.653723 
L 77.480531 243.635583 
L 81.128335 243.726667 
L 84.776139 243.79863 
L 88.423943 243.867899 
L 92.071747 243.937384 
L 95.719551 244.078047 
L 99.367354 244.199087 
L 103.015158 244.332479 
L 106.662962 244.460333 
L 110.310766 244.579304 
L 113.95857 244.694358 
L 117.606374 244.834863 
L 121.254178 244.954961 
L 124.901982 245.103213 
L 128.549785 245.19771 
L 132.197589 245.334245 
L 135.845393 245.4693 
L 139.493197 245.432474 
L 143.141001 245.574506 
L 146.788805 245.615757 
L 150.436609 245.798679 
L 154.084413 245.849253 
L 157.732217 245.879935 
L 161.38002 245.875766 
L 165.027824 246.059921 
L 168.675628 246.074698 
L 172.323432 246.140045 
L 175.971236 246.293082 
L 179.61904 246.327374 
L 183.266844 246.360591 
L 186.914648 246.397043 
L 190.562451 246.466866 
L 194.210255 246.693584 
L 197.858059 246.646518 
L 201.505863 246.723768 
L 205.153667 246.991955 
L 208.801471 247.163094 
L 212.449275 247.096026 
L 216.097079 247.238877 
L 219.744883 247.386567 
L 223.392686 247.706658 
L 227.04049 248.054837 
L 230.688294 248.107044 
L 234.336098 248.454018 
L 237.983902 248.604067 
L 241.631706 248.254254 
L 245.27951 249.116187 
L 248.927314 249.302108 
L 252.575117 248.843563 
L 256.222921 249.543223 
L 259.870725 249.308217 
L 263.518529 250.154956 
L 267.166333 249.754468 
L 270.814137 250.230255 
L 274.461941 250.797876 
L 278.109745 250.863284 
L 281.757549 251.419169 
L 285.405352 251.429293 
L 289.053156 251.856796 
L 292.70096 251.561184 
L 296.348764 251.814097 
L 299.996568 252.101781 
L 303.644372 253.149683 
L 307.292176 253.524213 
L 310.93998 253.179528 
L 314.587783 254.557382 
L 318.235587 253.970908 
L 321.883391 253.273224 
L 325.531195 255.26593 
L 329.178999 254.568096 
L 332.826803 255.064832 
L 336.474607 255.188258 
L 340.122411 255.763424 
L 343.770215 256.001903 
L 347.418018 255.819711 
L 351.065822 257.911096 
L 354.713626 256.109781 
L 358.36143 258.005042 
L 362.009234 256.863418 
L 365.657038 258.184843 
L 369.304842 258.85892 
L 372.952646 258.993908 
L 376.600449 257.604721 
L 380.248253 260.336937 
L 383.896057 260.78039 
L 387.543861 260.271666 
L 391.191665 259.616944 
L 394.839469 260.788169 
L 398.487273 261.799169 
" clip-path="url(#pd6b5b0ce19)" style="fill: none; stroke: #ff00ff; stroke-opacity: 0.3; stroke-width: 0.5; stroke-linecap: square"/>
   </g>
   <g id="line2d_38">
    <path d="M 73.832727 245.341618 
L 77.480531 245.353904 
L 81.128335 245.631124 
L 84.776139 245.733249 
L 88.423943 246.073527 
L 92.071747 246.478809 
L 95.719551 247.074641 
L 99.367354 247.564532 
L 103.015158 248.234449 
L 106.662962 248.886732 
L 110.310766 249.47557 
L 113.95857 250.395081 
L 117.606374 251.216169 
L 121.254178 252.347559 
L 124.901982 253.398432 
L 128.549785 254.282723 
L 132.197589 255.966058 
L 135.845393 257.355493 
L 139.493197 258.960294 
L 143.141001 260.438105 
L 146.788805 262.361149 
L 150.436609 264.281516 
L 154.084413 266.526172 
L 157.732217 268.570789 
L 161.38002 270.9975 
L 165.027824 272.855989 
L 168.675628 275.258351 
L 172.323432 277.226083 
L 175.971236 279.151896 
L 179.61904 281.07694 
L 183.266844 282.818015 
L 186.914648 284.573516 
L 190.562451 286.132277 
L 194.210255 287.694147 
L 197.858059 289.036071 
L 201.505863 290.387643 
L 205.153667 291.221912 
L 208.801471 292.057625 
L 212.449275 292.688528 
L 216.097079 293.249696 
L 219.744883 293.670653 
L 223.392686 293.953729 
L 227.04049 294.259431 
L 230.688294 294.45602 
L 234.336098 294.671926 
L 237.983902 294.793912 
L 241.631706 294.885734 
L 245.27951 294.972837 
L 248.927314 295.05923 
L 252.575117 295.129645 
L 256.222921 295.190589 
L 259.870725 295.207216 
L 263.518529 295.2412 
L 267.166333 295.285856 
L 270.814137 295.30925 
L 274.461941 295.341939 
L 278.109745 295.345418 
L 281.757549 295.368954 
L 285.405352 295.375153 
L 289.053156 295.381641 
L 292.70096 295.388541 
L 296.348764 295.40917 
L 299.996568 295.419975 
L 303.644372 295.433388 
L 307.292176 295.417768 
L 310.93998 295.430437 
L 314.587783 295.427799 
L 318.235587 295.448083 
L 321.883391 295.42838 
L 325.531195 295.446258 
L 329.178999 295.453256 
L 332.826803 295.457595 
L 336.474607 295.458054 
L 340.122411 295.452685 
L 343.770215 295.465387 
L 347.418018 295.463038 
L 351.065822 295.467613 
L 354.713626 295.445744 
L 358.36143 295.461838 
L 362.009234 295.463669 
L 365.657038 295.468841 
L 369.304842 295.474544 
L 372.952646 295.477105 
L 376.600449 295.475575 
L 380.248253 295.476803 
L 383.896057 295.475338 
L 387.543861 295.483159 
L 391.191665 295.488 
L 394.839469 295.484597 
L 398.487273 295.471172 
" clip-path="url(#pd6b5b0ce19)" style="fill: none; stroke: #ff00ff; stroke-opacity: 0.3; stroke-width: 0.5; stroke-linecap: square"/>
   </g>
   <g id="line2d_39">
    <path d="M 73.832727 246.18571 
L 77.480531 246.234185 
L 81.128335 246.322307 
L 84.776139 246.735195 
L 88.423943 246.848342 
L 92.071747 247.002014 
L 95.719551 247.6878 
L 99.367354 247.977861 
L 103.015158 248.35188 
L 106.662962 248.840895 
L 110.310766 249.418068 
L 113.95857 249.727907 
L 117.606374 250.452949 
L 121.254178 250.972364 
L 124.901982 251.64762 
L 128.549785 252.393796 
L 132.197589 252.944663 
L 135.845393 253.453346 
L 139.493197 253.983286 
L 143.141001 254.669913 
L 146.788805 255.473534 
L 150.436609 256.22545 
L 154.084413 256.969258 
L 157.732217 257.370996 
L 161.38002 258.601293 
L 165.027824 259.115716 
L 168.675628 260.111204 
L 172.323432 260.435338 
L 175.971236 261.487097 
L 179.61904 262.360843 
L 183.266844 263.141026 
L 186.914648 262.931778 
L 190.562451 264.932646 
L 194.210255 266.183114 
L 197.858059 268.015208 
L 201.505863 269.737545 
L 205.153667 271.42831 
L 208.801471 273.165782 
L 212.449275 274.448818 
L 216.097079 276.35669 
L 219.744883 278.433243 
L 223.392686 279.554439 
L 227.04049 280.843745 
L 230.688294 282.741255 
L 234.336098 283.876491 
L 237.983902 284.964209 
L 241.631706 286.016296 
L 245.27951 287.078699 
L 248.927314 288.216207 
L 252.575117 289.141281 
L 256.222921 289.667742 
L 259.870725 290.106484 
L 263.518529 290.922916 
L 267.166333 291.481136 
L 270.814137 291.775197 
L 274.461941 292.390785 
L 278.109745 292.675674 
L 281.757549 293.037933 
L 285.405352 293.398683 
L 289.053156 293.297966 
L 292.70096 293.66297 
L 296.348764 293.680797 
L 299.996568 293.907758 
L 303.644372 294.193062 
L 307.292176 294.13045 
L 310.93998 294.26561 
L 314.587783 294.389506 
L 318.235587 294.411138 
L 321.883391 294.498363 
L 325.531195 294.528552 
L 329.178999 294.605018 
L 332.826803 294.748518 
L 336.474607 294.613429 
L 340.122411 294.708536 
L 343.770215 294.798709 
L 347.418018 294.917668 
L 351.065822 294.904078 
L 354.713626 294.919098 
L 358.36143 294.936912 
L 362.009234 295.012792 
L 365.657038 295.046882 
L 369.304842 295.034875 
L 372.952646 295.028537 
L 376.600449 295.047575 
L 380.248253 295.074278 
L 383.896057 295.080308 
L 387.543861 295.091396 
L 391.191665 295.088651 
L 394.839469 295.096653 
L 398.487273 295.148733 
" clip-path="url(#pd6b5b0ce19)" style="fill: none; stroke: #ff00ff; stroke-opacity: 0.3; stroke-width: 0.5; stroke-linecap: square"/>
   </g>
   <g id="line2d_40">
    <path d="M 73.832727 244.870827 
L 77.480531 245.001106 
L 81.128335 244.935892 
L 84.776139 245.031061 
L 88.423943 245.266838 
L 92.071747 245.532745 
L 95.719551 245.691893 
L 99.367354 245.799705 
L 103.015158 246.02714 
L 106.662962 246.521164 
L 110.310766 246.656656 
L 113.95857 246.704505 
L 117.606374 247.117692 
L 121.254178 247.125572 
L 124.901982 247.756237 
L 128.549785 247.374008 
L 132.197589 247.909873 
L 135.845393 248.024931 
L 139.493197 248.030891 
L 143.141001 248.010365 
L 146.788805 248.869525 
L 150.436609 248.761299 
L 154.084413 249.122619 
L 157.732217 248.374924 
L 161.38002 248.971553 
L 165.027824 248.967622 
L 168.675628 249.023082 
L 172.323432 249.038568 
L 175.971236 248.652259 
L 179.61904 248.953756 
L 183.266844 248.638851 
L 186.914648 248.96801 
L 190.562451 249.272566 
L 194.210255 248.934621 
L 197.858059 249.323646 
L 201.505863 249.531043 
L 205.153667 249.765209 
L 208.801471 250.848956 
L 212.449275 250.686529 
L 216.097079 250.891342 
L 219.744883 252.201036 
L 223.392686 251.841323 
L 227.04049 251.96386 
L 230.688294 252.005599 
L 234.336098 252.635062 
L 237.983902 253.07883 
L 241.631706 253.50337 
L 245.27951 252.626003 
L 248.927314 254.326003 
L 252.575117 253.897827 
L 256.222921 254.63166 
L 259.870725 255.73769 
L 263.518529 255.29298 
L 267.166333 255.32761 
L 270.814137 255.903216 
L 274.461941 255.360466 
L 278.109745 257.266358 
L 281.757549 257.312103 
L 285.405352 257.041278 
L 289.053156 257.668404 
L 292.70096 258.498996 
L 296.348764 258.96066 
L 299.996568 259.771382 
L 303.644372 260.080604 
L 307.292176 259.684767 
L 310.93998 261.469821 
L 314.587783 260.32696 
L 318.235587 261.295582 
L 321.883391 261.900106 
L 325.531195 261.785587 
L 329.178999 262.739755 
L 332.826803 263.308852 
L 336.474607 263.992556 
L 340.122411 264.542899 
L 343.770215 265.412083 
L 347.418018 265.780229 
L 351.065822 265.53636 
L 354.713626 264.77424 
L 358.36143 265.671836 
L 362.009234 264.865336 
L 365.657038 266.297331 
L 369.304842 267.968356 
L 372.952646 267.418818 
L 376.600449 268.81602 
L 380.248253 266.81681 
L 383.896057 270.013903 
L 387.543861 268.522086 
L 391.191665 269.196319 
L 394.839469 267.708745 
L 398.487273 270.298244 
" clip-path="url(#pd6b5b0ce19)" style="fill: none; stroke: #ff00ff; stroke-opacity: 0.3; stroke-width: 0.5; stroke-linecap: square"/>
   </g>
   <g id="line2d_41">
    <path d="M 73.832727 242.838956 
L 77.480531 243.135039 
L 81.128335 243.35716 
L 84.776139 243.830747 
L 88.423943 244.514019 
L 92.071747 245.17592 
L 95.719551 245.986004 
L 99.367354 246.627449 
L 103.015158 247.283914 
L 106.662962 248.012095 
L 110.310766 248.859159 
L 113.95857 249.669713 
L 117.606374 250.637835 
L 121.254178 251.49898 
L 124.901982 252.408741 
L 128.549785 253.667346 
L 132.197589 254.757001 
L 135.845393 256.239664 
L 139.493197 257.373228 
L 143.141001 258.757125 
L 146.788805 260.506097 
L 150.436609 262.133265 
L 154.084413 264.064928 
L 157.732217 266.100844 
L 161.38002 268.064465 
L 165.027824 269.735705 
L 168.675628 272.124373 
L 172.323432 274.031094 
L 175.971236 276.131212 
L 179.61904 278.199653 
L 183.266844 279.848701 
L 186.914648 281.468745 
L 190.562451 283.744895 
L 194.210255 285.522561 
L 197.858059 287.189279 
L 201.505863 288.577916 
L 205.153667 289.829433 
L 208.801471 290.908483 
L 212.449275 291.852036 
L 216.097079 292.556419 
L 219.744883 293.125979 
L 223.392686 293.575458 
L 227.04049 293.883512 
L 230.688294 294.186465 
L 234.336098 294.394518 
L 237.983902 294.632101 
L 241.631706 294.732467 
L 245.27951 294.829787 
L 248.927314 294.95173 
L 252.575117 295.024311 
L 256.222921 295.122769 
L 259.870725 295.157112 
L 263.518529 295.208946 
L 267.166333 295.262335 
L 270.814137 295.284151 
L 274.461941 295.308666 
L 278.109745 295.344744 
L 281.757549 295.3634 
L 285.405352 295.372108 
L 289.053156 295.378442 
L 292.70096 295.390335 
L 296.348764 295.402194 
L 299.996568 295.413305 
L 303.644372 295.425921 
L 307.292176 295.421961 
L 310.93998 295.434847 
L 314.587783 295.433285 
L 318.235587 295.442191 
L 321.883391 295.439372 
L 325.531195 295.446794 
L 329.178999 295.455957 
L 332.826803 295.45717 
L 336.474607 295.457822 
L 340.122411 295.456137 
L 343.770215 295.461129 
L 347.418018 295.465495 
L 351.065822 295.469983 
L 354.713626 295.464927 
L 358.36143 295.450022 
L 362.009234 295.469598 
L 365.657038 295.476838 
L 369.304842 295.453833 
L 372.952646 295.482519 
L 376.600449 295.477795 
L 380.248253 295.483137 
L 383.896057 295.475776 
L 387.543861 295.485683 
L 391.191665 295.484573 
L 394.839469 295.485283 
L 398.487273 295.482751 
" clip-path="url(#pd6b5b0ce19)" style="fill: none; stroke: #ff00ff; stroke-opacity: 0.3; stroke-width: 0.5; stroke-linecap: square"/>
   </g>
   <g id="line2d_42">
    <path d="M 73.832727 241.797344 
L 77.480531 242.096742 
L 81.128335 242.190639 
L 84.776139 242.773895 
L 88.423943 243.235671 
L 92.071747 243.94948 
L 95.719551 244.827076 
L 99.367354 245.66858 
L 103.015158 246.384568 
L 106.662962 247.157257 
L 110.310766 247.832192 
L 113.95857 248.523406 
L 117.606374 249.175517 
L 121.254178 250.042592 
L 124.901982 250.756938 
L 128.549785 251.469901 
L 132.197589 252.43554 
L 135.845393 253.183763 
L 139.493197 253.776426 
L 143.141001 254.516299 
L 146.788805 255.738438 
L 150.436609 256.12576 
L 154.084413 257.098539 
L 157.732217 257.988297 
L 161.38002 258.706734 
L 165.027824 259.929525 
L 168.675628 260.478266 
L 172.323432 261.496305 
L 175.971236 262.799991 
L 179.61904 263.517504 
L 183.266844 264.341028 
L 186.914648 265.435961 
L 190.562451 266.929345 
L 194.210255 268.50733 
L 197.858059 269.677734 
L 201.505863 271.468674 
L 205.153667 272.824375 
L 208.801471 274.274941 
L 212.449275 275.480961 
L 216.097079 276.982357 
L 219.744883 278.541294 
L 223.392686 279.942153 
L 227.04049 281.271177 
L 230.688294 282.265791 
L 234.336098 283.743851 
L 237.983902 285.174559 
L 241.631706 286.063609 
L 245.27951 286.701284 
L 248.927314 287.732245 
L 252.575117 288.163924 
L 256.222921 289.243617 
L 259.870725 290.034521 
L 263.518529 290.805828 
L 267.166333 291.131826 
L 270.814137 291.696368 
L 274.461941 292.106637 
L 278.109745 292.390696 
L 281.757549 292.614905 
L 285.405352 293.130477 
L 289.053156 293.349362 
L 292.70096 293.52007 
L 296.348764 293.780504 
L 299.996568 293.820294 
L 303.644372 294.110408 
L 307.292176 294.013399 
L 310.93998 294.287807 
L 314.587783 294.380706 
L 318.235587 294.485143 
L 321.883391 294.533046 
L 325.531195 294.630034 
L 329.178999 294.62393 
L 332.826803 294.723092 
L 336.474607 294.613463 
L 340.122411 294.851115 
L 343.770215 294.78429 
L 347.418018 294.778754 
L 351.065822 294.933918 
L 354.713626 295.01504 
L 358.36143 294.959598 
L 362.009234 295.017998 
L 365.657038 295.021913 
L 369.304842 295.086975 
L 372.952646 295.081306 
L 376.600449 295.124704 
L 380.248253 295.148267 
L 383.896057 295.124196 
L 387.543861 295.114643 
L 391.191665 295.155262 
L 394.839469 295.181787 
L 398.487273 295.170359 
" clip-path="url(#pd6b5b0ce19)" style="fill: none; stroke: #ff00ff; stroke-opacity: 0.3; stroke-width: 0.5; stroke-linecap: square"/>
   </g>
   <g id="line2d_43">
    <path d="M 73.832727 246.017037 
L 77.480531 246.320502 
L 81.128335 246.470155 
L 84.776139 246.875529 
L 88.423943 247.20636 
L 92.071747 247.711808 
L 95.719551 248.055542 
L 99.367354 248.654627 
L 103.015158 249.486223 
L 106.662962 250.37073 
L 110.310766 251.383755 
L 113.95857 252.234006 
L 117.606374 252.908193 
L 121.254178 254.317239 
L 124.901982 255.62957 
L 128.549785 256.941557 
L 132.197589 257.957307 
L 135.845393 259.776169 
L 139.493197 260.813737 
L 143.141001 262.57225 
L 146.788805 264.373264 
L 150.436609 265.656645 
L 154.084413 267.605084 
L 157.732217 269.224436 
L 161.38002 271.079303 
L 165.027824 272.622779 
L 168.675628 274.415878 
L 172.323432 275.927539 
L 175.971236 277.150482 
L 179.61904 278.697998 
L 183.266844 279.911858 
L 186.914648 281.334149 
L 190.562451 283.147733 
L 194.210255 284.555624 
L 197.858059 285.856921 
L 201.505863 287.427813 
L 205.153667 288.518293 
L 208.801471 289.235574 
L 212.449275 290.306809 
L 216.097079 291.086295 
L 219.744883 291.769413 
L 223.392686 292.432358 
L 227.04049 292.935794 
L 230.688294 293.304775 
L 234.336098 293.568623 
L 237.983902 293.840565 
L 241.631706 294.02303 
L 245.27951 294.240151 
L 248.927314 294.348618 
L 252.575117 294.472591 
L 256.222921 294.674162 
L 259.870725 294.68198 
L 263.518529 294.813748 
L 267.166333 294.896187 
L 270.814137 294.933763 
L 274.461941 295.023217 
L 278.109745 294.986617 
L 281.757549 295.105977 
L 285.405352 295.117456 
L 289.053156 295.116203 
L 292.70096 295.150407 
L 296.348764 295.191523 
L 299.996568 295.203938 
L 303.644372 295.237857 
L 307.292176 295.222985 
L 310.93998 295.267996 
L 314.587783 295.240952 
L 318.235587 295.294219 
L 321.883391 295.273543 
L 325.531195 295.261468 
L 329.178999 295.306327 
L 332.826803 295.313307 
L 336.474607 295.32086 
L 340.122411 295.301904 
L 343.770215 295.335376 
L 347.418018 295.34428 
L 351.065822 295.353506 
L 354.713626 295.345057 
L 358.36143 295.34632 
L 362.009234 295.352189 
L 365.657038 295.373141 
L 369.304842 295.367113 
L 372.952646 295.381838 
L 376.600449 295.370683 
L 380.248253 295.387892 
L 383.896057 295.367776 
L 387.543861 295.363746 
L 391.191665 295.381139 
L 394.839469 295.379165 
L 398.487273 295.396252 
" clip-path="url(#pd6b5b0ce19)" style="fill: none; stroke: #ff00ff; stroke-opacity: 0.3; stroke-width: 0.5; stroke-linecap: square"/>
   </g>
   <g id="line2d_44">
    <path d="M 73.832727 244.16271 
L 77.480531 244.122692 
L 81.128335 244.249899 
L 84.776139 244.390558 
L 88.423943 244.425355 
L 92.071747 244.492362 
L 95.719551 244.716046 
L 99.367354 244.7845 
L 103.015158 244.962911 
L 106.662962 245.125848 
L 110.310766 245.284379 
L 113.95857 245.4297 
L 117.606374 245.662048 
L 121.254178 245.954996 
L 124.901982 246.059776 
L 128.549785 246.548373 
L 132.197589 246.912822 
L 135.845393 247.15554 
L 139.493197 247.636966 
L 143.141001 248.035319 
L 146.788805 248.607166 
L 150.436609 249.223854 
L 154.084413 249.798879 
L 157.732217 250.362586 
L 161.38002 251.245306 
L 165.027824 252.095702 
L 168.675628 252.717673 
L 172.323432 253.654915 
L 175.971236 254.630516 
L 179.61904 255.868661 
L 183.266844 256.736101 
L 186.914648 257.864506 
L 190.562451 259.477343 
L 194.210255 261.285112 
L 197.858059 262.783849 
L 201.505863 264.929912 
L 205.153667 266.901657 
L 208.801471 268.99506 
L 212.449275 271.275381 
L 216.097079 273.286285 
L 219.744883 275.57914 
L 223.392686 277.609651 
L 227.04049 279.691894 
L 230.688294 281.696822 
L 234.336098 283.542735 
L 237.983902 285.160033 
L 241.631706 286.662356 
L 245.27951 288.043049 
L 248.927314 289.220099 
L 252.575117 290.260128 
L 256.222921 291.217226 
L 259.870725 291.936439 
L 263.518529 292.514142 
L 267.166333 293.056075 
L 270.814137 293.461344 
L 274.461941 293.834399 
L 278.109745 294.143784 
L 281.757549 294.340691 
L 285.405352 294.546158 
L 289.053156 294.666036 
L 292.70096 294.779234 
L 296.348764 294.890794 
L 299.996568 294.970338 
L 303.644372 295.069347 
L 307.292176 295.070493 
L 310.93998 295.168102 
L 314.587783 295.192175 
L 318.235587 295.238089 
L 321.883391 295.235513 
L 325.531195 295.269662 
L 329.178999 295.315957 
L 332.826803 295.322477 
L 336.474607 295.335372 
L 340.122411 295.349699 
L 343.770215 295.36113 
L 347.418018 295.382615 
L 351.065822 295.390185 
L 354.713626 295.393883 
L 358.36143 295.380594 
L 362.009234 295.405049 
L 365.657038 295.410748 
L 369.304842 295.41925 
L 372.952646 295.421123 
L 376.600449 295.423603 
L 380.248253 295.429816 
L 383.896057 295.43506 
L 387.543861 295.43988 
L 391.191665 295.445798 
L 394.839469 295.446778 
L 398.487273 295.453394 
" clip-path="url(#pd6b5b0ce19)" style="fill: none; stroke: #ff00ff; stroke-opacity: 0.3; stroke-width: 0.5; stroke-linecap: square"/>
   </g>
   <g id="line2d_45">
    <path d="M 73.832727 243.566952 
L 77.480531 243.541984 
L 81.128335 243.793964 
L 84.776139 243.782972 
L 88.423943 243.95647 
L 92.071747 244.110613 
L 95.719551 244.296128 
L 99.367354 244.358622 
L 103.015158 244.541954 
L 106.662962 244.654846 
L 110.310766 244.907975 
L 113.95857 245.07082 
L 117.606374 245.165153 
L 121.254178 245.337295 
L 124.901982 245.513491 
L 128.549785 245.732571 
L 132.197589 245.757891 
L 135.845393 245.957836 
L 139.493197 246.015338 
L 143.141001 246.248363 
L 146.788805 246.416372 
L 150.436609 246.563066 
L 154.084413 246.705354 
L 157.732217 246.903138 
L 161.38002 246.91596 
L 165.027824 247.136898 
L 168.675628 247.497878 
L 172.323432 247.629087 
L 175.971236 247.853356 
L 179.61904 247.949838 
L 183.266844 247.955829 
L 186.914648 248.466797 
L 190.562451 248.743986 
L 194.210255 249.127949 
L 197.858059 249.480425 
L 201.505863 249.827949 
L 205.153667 250.315142 
L 208.801471 250.911586 
L 212.449275 251.411113 
L 216.097079 252.23681 
L 219.744883 252.688154 
L 223.392686 253.665066 
L 227.04049 254.379134 
L 230.688294 255.185023 
L 234.336098 256.018912 
L 237.983902 257.01013 
L 241.631706 258.118431 
L 245.27951 258.736593 
L 248.927314 260.077422 
L 252.575117 261.006722 
L 256.222921 262.426275 
L 259.870725 263.789312 
L 263.518529 264.940246 
L 267.166333 265.800153 
L 270.814137 267.97686 
L 274.461941 269.146872 
L 278.109745 270.863298 
L 281.757549 272.129864 
L 285.405352 273.627309 
L 289.053156 275.243494 
L 292.70096 276.573622 
L 296.348764 278.195848 
L 299.996568 279.621781 
L 303.644372 280.557399 
L 307.292176 282.006768 
L 310.93998 283.591585 
L 314.587783 284.801997 
L 318.235587 285.829823 
L 321.883391 286.656123 
L 325.531195 287.920629 
L 329.178999 288.6483 
L 332.826803 289.401936 
L 336.474607 290.060016 
L 340.122411 290.636979 
L 343.770215 291.161374 
L 347.418018 291.730356 
L 351.065822 292.116982 
L 354.713626 292.375809 
L 358.36143 292.787767 
L 362.009234 293.036914 
L 365.657038 293.34143 
L 369.304842 293.543286 
L 372.952646 293.774322 
L 376.600449 293.77202 
L 380.248253 294.085514 
L 383.896057 294.015641 
L 387.543861 294.247762 
L 391.191665 294.3568 
L 394.839469 294.476703 
L 398.487273 294.500246 
" clip-path="url(#pd6b5b0ce19)" style="fill: none; stroke: #ff00ff; stroke-opacity: 0.3; stroke-width: 0.5; stroke-linecap: square"/>
   </g>
   <g id="line2d_46">
    <path d="M 73.832727 243.631801 
L 77.480531 243.652834 
L 81.128335 243.772632 
L 84.776139 243.94407 
L 88.423943 244.148725 
L 92.071747 244.328649 
L 95.719551 244.468371 
L 99.367354 244.732007 
L 103.015158 244.898951 
L 106.662962 244.975337 
L 110.310766 245.174261 
L 113.95857 245.197314 
L 117.606374 245.452608 
L 121.254178 245.468618 
L 124.901982 245.679022 
L 128.549785 245.782009 
L 132.197589 246.009241 
L 135.845393 246.128565 
L 139.493197 246.291559 
L 143.141001 246.585419 
L 146.788805 246.822697 
L 150.436609 247.185614 
L 154.084413 247.462984 
L 157.732217 247.656744 
L 161.38002 248.249781 
L 165.027824 248.569595 
L 168.675628 248.964378 
L 172.323432 249.210248 
L 175.971236 249.877308 
L 179.61904 250.111645 
L 183.266844 250.666936 
L 186.914648 251.095407 
L 190.562451 252.21709 
L 194.210255 253.046057 
L 197.858059 253.911935 
L 201.505863 254.939615 
L 205.153667 256.069596 
L 208.801471 257.489959 
L 212.449275 258.823929 
L 216.097079 260.431958 
L 219.744883 261.70981 
L 223.392686 263.498923 
L 227.04049 265.182953 
L 230.688294 266.884851 
L 234.336098 268.789538 
L 237.983902 270.590961 
L 241.631706 272.665698 
L 245.27951 274.440348 
L 248.927314 276.576173 
L 252.575117 278.356915 
L 256.222921 280.431593 
L 259.870725 282.051781 
L 263.518529 283.74592 
L 267.166333 285.473614 
L 270.814137 286.908579 
L 274.461941 288.293645 
L 278.109745 289.532736 
L 281.757549 290.612266 
L 285.405352 291.424452 
L 289.053156 292.091592 
L 292.70096 292.665586 
L 296.348764 293.186871 
L 299.996568 293.478702 
L 303.644372 293.93521 
L 307.292176 294.122137 
L 310.93998 294.397144 
L 314.587783 294.533763 
L 318.235587 294.757932 
L 321.883391 294.805659 
L 325.531195 294.913896 
L 329.178999 294.982271 
L 332.826803 295.071399 
L 336.474607 295.090397 
L 340.122411 295.140085 
L 343.770215 295.19996 
L 347.418018 295.227977 
L 351.065822 295.254229 
L 354.713626 295.270923 
L 358.36143 295.279805 
L 362.009234 295.297342 
L 365.657038 295.33391 
L 369.304842 295.346635 
L 372.952646 295.352165 
L 376.600449 295.358352 
L 380.248253 295.371909 
L 383.896057 295.395616 
L 387.543861 295.398962 
L 391.191665 295.400599 
L 394.839469 295.402005 
L 398.487273 295.415174 
" clip-path="url(#pd6b5b0ce19)" style="fill: none; stroke: #ff00ff; stroke-opacity: 0.3; stroke-width: 0.5; stroke-linecap: square"/>
   </g>
   <g id="line2d_47">
    <path d="M 73.832727 244.90146 
L 77.480531 244.749043 
L 81.128335 245.034006 
L 84.776139 245.627154 
L 88.423943 246.033875 
L 92.071747 246.505868 
L 95.719551 246.904872 
L 99.367354 247.578517 
L 103.015158 248.172391 
L 106.662962 248.665984 
L 110.310766 249.511824 
L 113.95857 250.03558 
L 117.606374 251.022819 
L 121.254178 251.872392 
L 124.901982 252.515985 
L 128.549785 253.504836 
L 132.197589 254.462331 
L 135.845393 255.4941 
L 139.493197 256.76253 
L 143.141001 257.832191 
L 146.788805 259.464582 
L 150.436609 260.772735 
L 154.084413 262.207548 
L 157.732217 263.624059 
L 161.38002 265.383701 
L 165.027824 266.987044 
L 168.675628 268.25407 
L 172.323432 269.799021 
L 175.971236 271.589562 
L 179.61904 272.388486 
L 183.266844 274.459603 
L 186.914648 276.067162 
L 190.562451 277.931809 
L 194.210255 280.395563 
L 197.858059 282.132426 
L 201.505863 283.510011 
L 205.153667 285.11753 
L 208.801471 286.406281 
L 212.449275 287.646583 
L 216.097079 288.899826 
L 219.744883 289.848873 
L 223.392686 290.847486 
L 227.04049 291.562951 
L 230.688294 292.215198 
L 234.336098 292.749888 
L 237.983902 293.223065 
L 241.631706 293.594888 
L 245.27951 293.812681 
L 248.927314 294.050424 
L 252.575117 294.305524 
L 256.222921 294.409265 
L 259.870725 294.57091 
L 263.518529 294.715022 
L 267.166333 294.79649 
L 270.814137 294.863774 
L 274.461941 294.956943 
L 278.109745 295.030927 
L 281.757549 295.055663 
L 285.405352 295.132806 
L 289.053156 295.118677 
L 292.70096 295.166474 
L 296.348764 295.21799 
L 299.996568 295.236768 
L 303.644372 295.273239 
L 307.292176 295.251671 
L 310.93998 295.302613 
L 314.587783 295.288402 
L 318.235587 295.333162 
L 321.883391 295.314271 
L 325.531195 295.328255 
L 329.178999 295.335344 
L 332.826803 295.360409 
L 336.474607 295.365948 
L 340.122411 295.369434 
L 343.770215 295.385401 
L 347.418018 295.385684 
L 351.065822 295.3741 
L 354.713626 295.402042 
L 358.36143 295.391017 
L 362.009234 295.409516 
L 365.657038 295.409383 
L 369.304842 295.415208 
L 372.952646 295.42295 
L 376.600449 295.419282 
L 380.248253 295.415503 
L 383.896057 295.431482 
L 387.543861 295.429824 
L 391.191665 295.428816 
L 394.839469 295.41809 
L 398.487273 295.433092 
" clip-path="url(#pd6b5b0ce19)" style="fill: none; stroke: #ff00ff; stroke-opacity: 0.3; stroke-width: 0.5; stroke-linecap: square"/>
   </g>
   <g id="line2d_48">
    <path d="M 73.832727 242.666594 
L 77.480531 243.119522 
L 81.128335 243.512676 
L 84.776139 243.836901 
L 88.423943 244.533484 
L 92.071747 245.168472 
L 95.719551 245.744452 
L 99.367354 246.432923 
L 103.015158 246.768055 
L 106.662962 247.425062 
L 110.310766 247.777951 
L 113.95857 248.463693 
L 117.606374 248.887569 
L 121.254178 249.702956 
L 124.901982 250.354249 
L 128.549785 251.279377 
L 132.197589 252.343773 
L 135.845393 253.360333 
L 139.493197 254.390452 
L 143.141001 255.646411 
L 146.788805 257.130395 
L 150.436609 258.493978 
L 154.084413 260.006854 
L 157.732217 261.764678 
L 161.38002 263.178636 
L 165.027824 264.989424 
L 168.675628 266.498178 
L 172.323432 268.174342 
L 175.971236 269.769327 
L 179.61904 271.072859 
L 183.266844 272.817048 
L 186.914648 273.95701 
L 190.562451 275.934301 
L 194.210255 277.917584 
L 197.858059 279.729323 
L 201.505863 281.424118 
L 205.153667 283.229474 
L 208.801471 284.77372 
L 212.449275 286.316167 
L 216.097079 287.536024 
L 219.744883 288.740777 
L 223.392686 289.87391 
L 227.04049 290.847035 
L 230.688294 291.519553 
L 234.336098 292.024223 
L 237.983902 292.72432 
L 241.631706 293.055987 
L 245.27951 293.51998 
L 248.927314 293.800354 
L 252.575117 293.910625 
L 256.222921 294.308356 
L 259.870725 294.439907 
L 263.518529 294.574193 
L 267.166333 294.733454 
L 270.814137 294.768539 
L 274.461941 294.913672 
L 278.109745 294.929132 
L 281.757549 295.016129 
L 285.405352 295.073191 
L 289.053156 295.120322 
L 292.70096 295.152005 
L 296.348764 295.182212 
L 299.996568 295.195125 
L 303.644372 295.257117 
L 307.292176 295.219237 
L 310.93998 295.267359 
L 314.587783 295.28103 
L 318.235587 295.304 
L 321.883391 295.310512 
L 325.531195 295.321642 
L 329.178999 295.335208 
L 332.826803 295.360778 
L 336.474607 295.354893 
L 340.122411 295.336116 
L 343.770215 295.371524 
L 347.418018 295.366733 
L 351.065822 295.38182 
L 354.713626 295.390267 
L 358.36143 295.368733 
L 362.009234 295.379623 
L 365.657038 295.401356 
L 369.304842 295.403879 
L 372.952646 295.409517 
L 376.600449 295.397979 
L 380.248253 295.420475 
L 383.896057 295.417592 
L 387.543861 295.404576 
L 391.191665 295.430339 
L 394.839469 295.412634 
L 398.487273 295.432483 
" clip-path="url(#pd6b5b0ce19)" style="fill: none; stroke: #ff00ff; stroke-opacity: 0.3; stroke-width: 0.5; stroke-linecap: square"/>
   </g>
   <g id="line2d_49">
    <path d="M 73.832727 244.504044 
L 77.480531 244.501557 
L 81.128335 244.692434 
L 84.776139 244.794114 
L 88.423943 245.047784 
L 92.071747 245.326563 
L 95.719551 245.612081 
L 99.367354 245.96255 
L 103.015158 246.197833 
L 106.662962 246.544728 
L 110.310766 246.648732 
L 113.95857 247.247228 
L 117.606374 247.620912 
L 121.254178 248.037194 
L 124.901982 248.622101 
L 128.549785 249.018698 
L 132.197589 249.874522 
L 135.845393 250.699193 
L 139.493197 251.489067 
L 143.141001 252.503616 
L 146.788805 253.46436 
L 150.436609 254.774212 
L 154.084413 255.807641 
L 157.732217 256.88482 
L 161.38002 257.964042 
L 165.027824 259.207485 
L 168.675628 260.352124 
L 172.323432 261.3443 
L 175.971236 262.259821 
L 179.61904 263.322012 
L 183.266844 264.154404 
L 186.914648 264.895718 
L 190.562451 265.813173 
L 194.210255 267.07898 
L 197.858059 267.941918 
L 201.505863 269.021441 
L 205.153667 269.866366 
L 208.801471 270.723063 
L 212.449275 271.462445 
L 216.097079 272.150885 
L 219.744883 272.74002 
L 223.392686 273.392503 
L 227.04049 273.89102 
L 230.688294 274.459098 
L 234.336098 274.891756 
L 237.983902 275.367349 
L 241.631706 275.816049 
L 245.27951 276.240796 
L 248.927314 276.649023 
L 252.575117 277.053987 
L 256.222921 277.448818 
L 259.870725 277.816121 
L 263.518529 278.175272 
L 267.166333 278.554837 
L 270.814137 278.877883 
L 274.461941 279.232476 
L 278.109745 279.5391 
L 281.757549 279.887492 
L 285.405352 280.186632 
L 289.053156 280.522732 
L 292.70096 280.811799 
L 296.348764 281.100997 
L 299.996568 281.396135 
L 303.644372 281.708918 
L 307.292176 281.966932 
L 310.93998 282.255644 
L 314.587783 282.513647 
L 318.235587 282.792515 
L 321.883391 283.04804 
L 325.531195 283.295465 
L 329.178999 283.55694 
L 332.826803 283.81004 
L 336.474607 284.048049 
L 340.122411 284.283156 
L 343.770215 284.516989 
L 347.418018 284.76662 
L 351.065822 284.984025 
L 354.713626 285.209314 
L 358.36143 285.430611 
L 362.009234 285.656309 
L 365.657038 285.872875 
L 369.304842 286.084892 
L 372.952646 286.299258 
L 376.600449 286.489285 
L 380.248253 286.706923 
L 383.896057 286.89561 
L 387.543861 287.103501 
L 391.191665 287.296752 
L 394.839469 287.481873 
L 398.487273 287.684981 
" clip-path="url(#pd6b5b0ce19)" style="fill: none; stroke: #ff00ff; stroke-opacity: 0.3; stroke-width: 0.5; stroke-linecap: square"/>
   </g>
   <g id="line2d_50">
    <path d="M 73.832727 244.292637 
L 77.480531 244.269729 
L 81.128335 244.282231 
L 84.776139 244.424999 
L 88.423943 244.516321 
L 92.071747 244.639087 
L 95.719551 244.753823 
L 99.367354 244.914767 
L 103.015158 245.046314 
L 106.662962 245.254063 
L 110.310766 245.397025 
L 113.95857 245.613794 
L 117.606374 245.810265 
L 121.254178 246.139129 
L 124.901982 246.2899 
L 128.549785 246.641328 
L 132.197589 246.992933 
L 135.845393 247.218109 
L 139.493197 247.465467 
L 143.141001 247.858727 
L 146.788805 248.31883 
L 150.436609 248.755374 
L 154.084413 249.198367 
L 157.732217 249.665443 
L 161.38002 250.353633 
L 165.027824 250.936906 
L 168.675628 251.613039 
L 172.323432 251.963213 
L 175.971236 252.957763 
L 179.61904 253.66588 
L 183.266844 254.567836 
L 186.914648 255.476488 
L 190.562451 256.66008 
L 194.210255 258.151235 
L 197.858059 259.515724 
L 201.505863 260.812355 
L 205.153667 262.111333 
L 208.801471 264.038292 
L 212.449275 265.478439 
L 216.097079 267.046375 
L 219.744883 268.52693 
L 223.392686 270.384194 
L 227.04049 272.075199 
L 230.688294 273.5949 
L 234.336098 275.21307 
L 237.983902 276.880307 
L 241.631706 278.346742 
L 245.27951 279.812868 
L 248.927314 281.370856 
L 252.575117 282.680952 
L 256.222921 283.971641 
L 259.870725 285.188018 
L 263.518529 286.460832 
L 267.166333 287.645963 
L 270.814137 288.450336 
L 274.461941 289.511367 
L 278.109745 290.313415 
L 281.757549 291.031625 
L 285.405352 291.608031 
L 289.053156 292.14443 
L 292.70096 292.558991 
L 296.348764 292.992802 
L 299.996568 293.327439 
L 303.644372 293.689874 
L 307.292176 293.831104 
L 310.93998 294.068935 
L 314.587783 294.183895 
L 318.235587 294.422756 
L 321.883391 294.477579 
L 325.531195 294.558624 
L 329.178999 294.772372 
L 332.826803 294.813575 
L 336.474607 294.895352 
L 340.122411 294.874999 
L 343.770215 295.020591 
L 347.418018 295.024527 
L 351.065822 295.054204 
L 354.713626 295.108705 
L 358.36143 295.133262 
L 362.009234 295.173225 
L 365.657038 295.208699 
L 369.304842 295.217123 
L 372.952646 295.241412 
L 376.600449 295.248703 
L 380.248253 295.268617 
L 383.896057 295.289662 
L 387.543861 295.280687 
L 391.191665 295.298194 
L 394.839469 295.298105 
L 398.487273 295.321219 
" clip-path="url(#pd6b5b0ce19)" style="fill: none; stroke: #ff00ff; stroke-opacity: 0.3; stroke-width: 0.5; stroke-linecap: square"/>
   </g>
   <g id="line2d_51">
    <path d="M 73.832727 241.272761 
L 77.480531 241.593851 
L 81.128335 242.166547 
L 84.776139 242.747589 
L 88.423943 243.85177 
L 92.071747 244.83319 
L 95.719551 246.146274 
L 99.367354 247.258158 
L 103.015158 248.402621 
L 106.662962 249.780747 
L 110.310766 250.699013 
L 113.95857 251.76513 
L 117.606374 252.734211 
L 121.254178 254.018726 
L 124.901982 255.336423 
L 128.549785 256.809613 
L 132.197589 257.722953 
L 135.845393 259.120668 
L 139.493197 260.046863 
L 143.141001 261.11556 
L 146.788805 262.271389 
L 150.436609 263.364893 
L 154.084413 264.523792 
L 157.732217 265.649926 
L 161.38002 266.791521 
L 165.027824 267.749172 
L 168.675628 268.324219 
L 172.323432 269.340826 
L 175.971236 270.018369 
L 179.61904 271.129199 
L 183.266844 271.41757 
L 186.914648 272.460801 
L 190.562451 273.689357 
L 194.210255 274.694157 
L 197.858059 275.40115 
L 201.505863 276.313155 
L 205.153667 277.194741 
L 208.801471 278.101906 
L 212.449275 278.914251 
L 216.097079 279.737739 
L 219.744883 280.509636 
L 223.392686 281.390721 
L 227.04049 282.29502 
L 230.688294 283.17634 
L 234.336098 284.131064 
L 237.983902 284.942572 
L 241.631706 285.689847 
L 245.27951 286.59732 
L 248.927314 287.322348 
L 252.575117 288.089695 
L 256.222921 288.864397 
L 259.870725 289.550265 
L 263.518529 290.192024 
L 267.166333 290.800336 
L 270.814137 291.335836 
L 274.461941 291.86676 
L 278.109745 292.337273 
L 281.757549 292.749528 
L 285.405352 293.053809 
L 289.053156 293.394494 
L 292.70096 293.58284 
L 296.348764 293.859796 
L 299.996568 293.978266 
L 303.644372 294.205964 
L 307.292176 294.287689 
L 310.93998 294.442549 
L 314.587783 294.544664 
L 318.235587 294.661707 
L 321.883391 294.725294 
L 325.531195 294.797099 
L 329.178999 294.860445 
L 332.826803 294.916832 
L 336.474607 294.957777 
L 340.122411 295.008314 
L 343.770215 295.046086 
L 347.418018 295.07746 
L 351.065822 295.122879 
L 354.713626 295.129422 
L 358.36143 295.148892 
L 362.009234 295.173984 
L 365.657038 295.201462 
L 369.304842 295.228884 
L 372.952646 295.225299 
L 376.600449 295.253879 
L 380.248253 295.257833 
L 383.896057 295.262991 
L 387.543861 295.270318 
L 391.191665 295.304914 
L 394.839469 295.301721 
L 398.487273 295.313678 
" clip-path="url(#pd6b5b0ce19)" style="fill: none; stroke: #ff00ff; stroke-opacity: 0.3; stroke-width: 0.5; stroke-linecap: square"/>
   </g>
   <g id="line2d_52">
    <path d="M 73.832727 244.395259 
L 77.480531 244.390717 
L 81.128335 244.522119 
L 84.776139 244.56789 
L 88.423943 244.765281 
L 92.071747 244.99442 
L 95.719551 245.249455 
L 99.367354 245.607715 
L 103.015158 245.842245 
L 106.662962 246.30149 
L 110.310766 246.714273 
L 113.95857 247.089379 
L 117.606374 247.367946 
L 121.254178 247.588453 
L 124.901982 248.024645 
L 128.549785 248.444778 
L 132.197589 248.841683 
L 135.845393 249.420691 
L 139.493197 250.021269 
L 143.141001 251.155137 
L 146.788805 252.006638 
L 150.436609 252.976577 
L 154.084413 254.173819 
L 157.732217 255.713057 
L 161.38002 256.983446 
L 165.027824 258.186613 
L 168.675628 259.695043 
L 172.323432 261.086587 
L 175.971236 262.644955 
L 179.61904 264.155416 
L 183.266844 265.779591 
L 186.914648 267.532091 
L 190.562451 269.294493 
L 194.210255 271.259965 
L 197.858059 273.249773 
L 201.505863 275.455602 
L 205.153667 277.570848 
L 208.801471 279.443814 
L 212.449275 281.472539 
L 216.097079 283.274003 
L 219.744883 285.070598 
L 223.392686 286.52846 
L 227.04049 287.923816 
L 230.688294 289.064971 
L 234.336098 290.107743 
L 237.983902 291.123127 
L 241.631706 291.864985 
L 245.27951 292.453521 
L 248.927314 292.973179 
L 252.575117 293.365704 
L 256.222921 293.785644 
L 259.870725 293.977509 
L 263.518529 294.262735 
L 267.166333 294.420875 
L 270.814137 294.608728 
L 274.461941 294.732278 
L 278.109745 294.837252 
L 281.757549 294.925606 
L 285.405352 295.023033 
L 289.053156 295.067277 
L 292.70096 295.110044 
L 296.348764 295.146208 
L 299.996568 295.189942 
L 303.644372 295.236506 
L 307.292176 295.241152 
L 310.93998 295.273577 
L 314.587783 295.298923 
L 318.235587 295.329883 
L 321.883391 295.328673 
L 325.531195 295.33873 
L 329.178999 295.35502 
L 332.826803 295.35711 
L 336.474607 295.36397 
L 340.122411 295.382539 
L 343.770215 295.385875 
L 347.418018 295.388129 
L 351.065822 295.399416 
L 354.713626 295.402645 
L 358.36143 295.407548 
L 362.009234 295.408532 
L 365.657038 295.421514 
L 369.304842 295.420494 
L 372.952646 295.425411 
L 376.600449 295.427092 
L 380.248253 295.435366 
L 383.896057 295.432328 
L 387.543861 295.440949 
L 391.191665 295.437215 
L 394.839469 295.414554 
L 398.487273 295.44699 
" clip-path="url(#pd6b5b0ce19)" style="fill: none; stroke: #ff00ff; stroke-opacity: 0.3; stroke-width: 0.5; stroke-linecap: square"/>
   </g>
   <g id="line2d_53">
    <path d="M 73.832727 237.626904 
L 77.480531 237.842022 
L 81.128335 237.640581 
L 84.776139 238.650217 
L 88.423943 239.335462 
L 92.071747 240.228984 
L 95.719551 241.105228 
L 99.367354 242.607291 
L 103.015158 243.619766 
L 106.662962 243.941354 
L 110.310766 245.142179 
L 113.95857 245.535272 
L 117.606374 246.223858 
L 121.254178 246.61699 
L 124.901982 247.022694 
L 128.549785 247.385193 
L 132.197589 247.793068 
L 135.845393 248.276012 
L 139.493197 248.363325 
L 143.141001 248.703616 
L 146.788805 248.97371 
L 150.436609 249.200947 
L 154.084413 249.374814 
L 157.732217 249.812811 
L 161.38002 250.171128 
L 165.027824 250.001539 
L 168.675628 250.193239 
L 172.323432 250.335532 
L 175.971236 250.278637 
L 179.61904 250.24093 
L 183.266844 250.221856 
L 186.914648 250.301289 
L 190.562451 250.641048 
L 194.210255 251.098796 
L 197.858059 251.085674 
L 201.505863 251.790996 
L 205.153667 251.791638 
L 208.801471 252.237766 
L 212.449275 252.840007 
L 216.097079 253.162084 
L 219.744883 253.120758 
L 223.392686 253.650975 
L 227.04049 254.453153 
L 230.688294 254.539369 
L 234.336098 255.703799 
L 237.983902 255.648005 
L 241.631706 256.59626 
L 245.27951 257.007141 
L 248.927314 257.556621 
L 252.575117 257.705574 
L 256.222921 258.882143 
L 259.870725 259.804827 
L 263.518529 259.624846 
L 267.166333 260.733673 
L 270.814137 261.580026 
L 274.461941 262.1207 
L 278.109745 262.569336 
L 281.757549 263.782234 
L 285.405352 264.109863 
L 289.053156 265.075354 
L 292.70096 265.345816 
L 296.348764 265.865202 
L 299.996568 267.271732 
L 303.644372 268.16804 
L 307.292176 268.525046 
L 310.93998 268.8954 
L 314.587783 269.08429 
L 318.235587 271.052073 
L 321.883391 271.014267 
L 325.531195 272.5691 
L 329.178999 272.506452 
L 332.826803 273.106836 
L 336.474607 273.318813 
L 340.122411 274.140112 
L 343.770215 275.508031 
L 347.418018 274.927354 
L 351.065822 276.531738 
L 354.713626 276.371353 
L 358.36143 278.206828 
L 362.009234 277.480386 
L 365.657038 278.76454 
L 369.304842 279.183175 
L 372.952646 278.930356 
L 376.600449 279.042797 
L 380.248253 280.226574 
L 383.896057 281.683686 
L 387.543861 281.505645 
L 391.191665 282.02426 
L 394.839469 282.483674 
L 398.487273 282.767673 
" clip-path="url(#pd6b5b0ce19)" style="fill: none; stroke: #ff00ff; stroke-opacity: 0.3; stroke-width: 0.5; stroke-linecap: square"/>
   </g>
   <g id="line2d_54">
    <path d="M 73.832727 243.084549 
L 77.480531 243.34325 
L 81.128335 244.027672 
L 84.776139 244.285634 
L 88.423943 244.992294 
L 92.071747 245.760343 
L 95.719551 246.676737 
L 99.367354 247.179262 
L 103.015158 247.965615 
L 106.662962 248.632732 
L 110.310766 249.379339 
L 113.95857 250.01732 
L 117.606374 250.683606 
L 121.254178 251.425028 
L 124.901982 252.2116 
L 128.549785 252.892945 
L 132.197589 253.622033 
L 135.845393 254.626144 
L 139.493197 255.39691 
L 143.141001 256.292862 
L 146.788805 257.011187 
L 150.436609 258.34569 
L 154.084413 259.106905 
L 157.732217 260.101639 
L 161.38002 260.91626 
L 165.027824 261.816075 
L 168.675628 262.677824 
L 172.323432 263.731561 
L 175.971236 264.516357 
L 179.61904 265.318667 
L 183.266844 266.199102 
L 186.914648 266.458653 
L 190.562451 267.596714 
L 194.210255 268.528292 
L 197.858059 269.883679 
L 201.505863 270.934268 
L 205.153667 271.621414 
L 208.801471 272.746852 
L 212.449275 273.504046 
L 216.097079 274.389823 
L 219.744883 275.087061 
L 223.392686 275.919226 
L 227.04049 276.67471 
L 230.688294 277.120961 
L 234.336098 277.84032 
L 237.983902 278.520566 
L 241.631706 279.034819 
L 245.27951 279.688129 
L 248.927314 280.329517 
L 252.575117 280.835547 
L 256.222921 281.403824 
L 259.870725 281.927238 
L 263.518529 282.456906 
L 267.166333 282.961697 
L 270.814137 283.460561 
L 274.461941 283.958176 
L 278.109745 284.455819 
L 281.757549 285.007661 
L 285.405352 285.458448 
L 289.053156 285.888969 
L 292.70096 286.373528 
L 296.348764 286.817208 
L 299.996568 287.243714 
L 303.644372 287.761511 
L 307.292176 288.12212 
L 310.93998 288.603645 
L 314.587783 288.973544 
L 318.235587 289.392199 
L 321.883391 289.695781 
L 325.531195 290.107296 
L 329.178999 290.468425 
L 332.826803 290.782161 
L 336.474607 291.072811 
L 340.122411 291.370028 
L 343.770215 291.640887 
L 347.418018 291.86715 
L 351.065822 292.149971 
L 354.713626 292.377166 
L 358.36143 292.53482 
L 362.009234 292.730578 
L 365.657038 293.000995 
L 369.304842 293.133756 
L 372.952646 293.23615 
L 376.600449 293.33531 
L 380.248253 293.558851 
L 383.896057 293.710464 
L 387.543861 293.714052 
L 391.191665 293.860914 
L 394.839469 293.998037 
L 398.487273 293.991244 
" clip-path="url(#pd6b5b0ce19)" style="fill: none; stroke: #ff00ff; stroke-opacity: 0.3; stroke-width: 0.5; stroke-linecap: square"/>
   </g>
   <g id="line2d_55">
    <path d="M 73.832727 242.619357 
L 77.480531 243.063771 
L 81.128335 243.291712 
L 84.776139 243.673118 
L 88.423943 244.561846 
L 92.071747 245.108007 
L 95.719551 245.923655 
L 99.367354 246.894637 
L 103.015158 247.403171 
L 106.662962 247.97345 
L 110.310766 248.77874 
L 113.95857 249.293757 
L 117.606374 249.756862 
L 121.254178 250.29701 
L 124.901982 250.952326 
L 128.549785 251.644099 
L 132.197589 252.339824 
L 135.845393 253.124658 
L 139.493197 253.981252 
L 143.141001 254.981209 
L 146.788805 256.029626 
L 150.436609 256.932194 
L 154.084413 257.689106 
L 157.732217 258.696586 
L 161.38002 258.987241 
L 165.027824 259.774245 
L 168.675628 260.944866 
L 172.323432 261.695242 
L 175.971236 262.654331 
L 179.61904 263.19057 
L 183.266844 264.476165 
L 186.914648 265.063727 
L 190.562451 266.52006 
L 194.210255 267.598965 
L 197.858059 268.493231 
L 201.505863 269.427966 
L 205.153667 270.205466 
L 208.801471 271.118892 
L 212.449275 271.964732 
L 216.097079 272.943227 
L 219.744883 273.825412 
L 223.392686 274.681574 
L 227.04049 275.576752 
L 230.688294 276.406545 
L 234.336098 277.085569 
L 237.983902 277.786 
L 241.631706 278.47813 
L 245.27951 279.115595 
L 248.927314 279.655243 
L 252.575117 280.260222 
L 256.222921 281.068467 
L 259.870725 281.702894 
L 263.518529 282.443321 
L 267.166333 283.171108 
L 270.814137 283.944178 
L 274.461941 284.637176 
L 278.109745 285.238189 
L 281.757549 286.062877 
L 285.405352 286.721954 
L 289.053156 287.397208 
L 292.70096 288.060694 
L 296.348764 288.641827 
L 299.996568 289.236122 
L 303.644372 289.867623 
L 307.292176 290.408033 
L 310.93998 290.978492 
L 314.587783 291.381026 
L 318.235587 291.851916 
L 321.883391 292.197995 
L 325.531195 292.545868 
L 329.178999 292.896003 
L 332.826803 293.172368 
L 336.474607 293.416133 
L 340.122411 293.653529 
L 343.770215 293.817279 
L 347.418018 293.999684 
L 351.065822 294.173815 
L 354.713626 294.291878 
L 358.36143 294.380381 
L 362.009234 294.49901 
L 365.657038 294.601102 
L 369.304842 294.698023 
L 372.952646 294.763218 
L 376.600449 294.804467 
L 380.248253 294.881599 
L 383.896057 294.917066 
L 387.543861 294.983518 
L 391.191665 295.010376 
L 394.839469 295.016402 
L 398.487273 295.081535 
" clip-path="url(#pd6b5b0ce19)" style="fill: none; stroke: #ff00ff; stroke-opacity: 0.3; stroke-width: 0.5; stroke-linecap: square"/>
   </g>
   <g id="line2d_56">
    <path d="M 73.832727 244.119183 
L 77.480531 244.055096 
L 81.128335 244.229584 
L 84.776139 244.222202 
L 88.423943 244.292932 
L 92.071747 244.396518 
L 95.719551 244.506919 
L 99.367354 244.660736 
L 103.015158 244.681345 
L 106.662962 244.895526 
L 110.310766 245.123612 
L 113.95857 245.2705 
L 117.606374 245.390955 
L 121.254178 245.5471 
L 124.901982 245.697083 
L 128.549785 245.969193 
L 132.197589 246.169045 
L 135.845393 246.407115 
L 139.493197 246.660525 
L 143.141001 246.716707 
L 146.788805 247.10939 
L 150.436609 247.302992 
L 154.084413 247.463424 
L 157.732217 247.767906 
L 161.38002 248.152195 
L 165.027824 248.387461 
L 168.675628 248.787447 
L 172.323432 249.136775 
L 175.971236 249.383037 
L 179.61904 249.914011 
L 183.266844 250.174729 
L 186.914648 250.349332 
L 190.562451 251.100663 
L 194.210255 251.540962 
L 197.858059 252.03956 
L 201.505863 252.61866 
L 205.153667 252.964828 
L 208.801471 253.896647 
L 212.449275 254.696219 
L 216.097079 255.607696 
L 219.744883 256.143244 
L 223.392686 257.117458 
L 227.04049 257.973837 
L 230.688294 258.753084 
L 234.336098 259.663338 
L 237.983902 260.598723 
L 241.631706 261.483119 
L 245.27951 262.65226 
L 248.927314 263.694032 
L 252.575117 264.554108 
L 256.222921 265.65414 
L 259.870725 266.357105 
L 263.518529 267.538965 
L 267.166333 268.224588 
L 270.814137 269.03595 
L 274.461941 270.123656 
L 278.109745 271.010091 
L 281.757549 272.052724 
L 285.405352 272.759976 
L 289.053156 273.538163 
L 292.70096 274.267898 
L 296.348764 275.074781 
L 299.996568 275.937338 
L 303.644372 276.660868 
L 307.292176 277.380422 
L 310.93998 278.31227 
L 314.587783 279.033113 
L 318.235587 279.967768 
L 321.883391 280.677125 
L 325.531195 281.592426 
L 329.178999 282.364723 
L 332.826803 283.247448 
L 336.474607 283.960169 
L 340.122411 284.700028 
L 343.770215 285.479001 
L 347.418018 286.324634 
L 351.065822 287.058707 
L 354.713626 287.688546 
L 358.36143 288.265179 
L 362.009234 288.923688 
L 365.657038 289.472889 
L 369.304842 289.973514 
L 372.952646 290.447441 
L 376.600449 290.762845 
L 380.248253 291.375504 
L 383.896057 291.68242 
L 387.543861 292.090018 
L 391.191665 292.458932 
L 394.839469 292.496389 
L 398.487273 292.868911 
" clip-path="url(#pd6b5b0ce19)" style="fill: none; stroke: #ff00ff; stroke-opacity: 0.3; stroke-width: 0.5; stroke-linecap: square"/>
   </g>
   <g id="line2d_57">
    <path d="M 73.832727 245.667194 
L 77.480531 245.427869 
L 81.128335 245.091835 
L 84.776139 244.762046 
L 88.423943 244.289234 
L 92.071747 243.812104 
L 95.719551 243.262836 
L 99.367354 242.735876 
L 103.015158 242.160059 
L 106.662962 241.593486 
L 110.310766 240.912679 
L 113.95857 240.291394 
L 117.606374 239.570864 
L 121.254178 238.698828 
L 124.901982 237.83593 
L 128.549785 236.876414 
L 132.197589 235.81491 
L 135.845393 234.641381 
L 139.493197 233.711261 
L 143.141001 232.388419 
L 146.788805 230.845409 
L 150.436609 229.540342 
L 154.084413 228.07562 
L 157.732217 226.642646 
L 161.38002 225.063303 
L 165.027824 223.550807 
L 168.675628 221.945523 
L 172.323432 220.38094 
L 175.971236 218.624287 
L 179.61904 217.02613 
L 183.266844 215.333498 
L 186.914648 213.765811 
L 190.562451 210.389423 
L 194.210255 207.049351 
L 197.858059 204.208554 
L 201.505863 200.921807 
L 205.153667 198.206738 
L 208.801471 195.133379 
L 212.449275 192.351674 
L 216.097079 189.517041 
L 219.744883 186.725396 
L 223.392686 184.185252 
L 227.04049 181.547939 
L 230.688294 178.821135 
L 234.336098 176.111226 
L 237.983902 173.309404 
L 241.631706 170.539277 
L 245.27951 168.003261 
L 248.927314 164.240991 
L 252.575117 162.03034 
L 256.222921 157.651578 
L 259.870725 154.687677 
L 263.518529 150.641059 
L 267.166333 147.647666 
L 270.814137 144.355002 
L 274.461941 140.489101 
L 278.109745 136.551537 
L 281.757549 132.698119 
L 285.405352 129.573522 
L 289.053156 126.525007 
L 292.70096 123.520687 
L 296.348764 120.128346 
L 299.996568 115.966935 
L 303.644372 112.027346 
L 307.292176 110.321966 
L 310.93998 105.591156 
L 314.587783 103.24732 
L 318.235587 98.677638 
L 321.883391 98.912349 
L 325.531195 93.85731 
L 329.178999 91.867759 
L 332.826803 88.7024 
L 336.474607 87.340776 
L 340.122411 84.179343 
L 343.770215 81.621643 
L 347.418018 80.542307 
L 351.065822 76.919463 
L 354.713626 76.209044 
L 358.36143 73.621324 
L 362.009234 74.110202 
L 365.657038 71.216864 
L 369.304842 68.033439 
L 372.952646 67.085721 
L 376.600449 67.947337 
L 380.248253 64.673267 
L 383.896057 60.737059 
L 387.543861 60.702689 
L 391.191665 59.24586 
L 394.839469 58.56231 
L 398.487273 53.568 
" clip-path="url(#pd6b5b0ce19)" style="fill: none; stroke: #6495ed; stroke-width: 2; stroke-linecap: square"/>
   </g>
   <g id="line2d_58">
    <path d="M 73.832727 243.950998 
L 77.480531 244.064415 
L 81.128335 244.271432 
L 84.776139 244.530761 
L 88.423943 244.904191 
L 92.071747 245.301601 
L 95.719551 245.754626 
L 99.367354 246.220275 
L 103.015158 246.692853 
L 106.662962 247.170739 
L 110.310766 247.696046 
L 113.95857 248.191845 
L 117.606374 248.71853 
L 121.254178 249.318377 
L 124.901982 249.910143 
L 128.549785 250.547167 
L 132.197589 251.225748 
L 135.845393 251.958988 
L 139.493197 252.605522 
L 143.141001 253.404679 
L 146.788805 254.288721 
L 150.436609 255.086315 
L 154.084413 255.95171 
L 157.732217 256.808908 
L 161.38002 257.687857 
L 165.027824 258.544824 
L 168.675628 259.392908 
L 172.323432 260.199788 
L 175.971236 261.047925 
L 179.61904 261.791813 
L 183.266844 262.549738 
L 186.914648 263.262439 
L 190.562451 264.40326 
L 194.210255 265.482545 
L 197.858059 266.425524 
L 201.505863 267.466742 
L 205.153667 268.392925 
L 208.801471 269.382947 
L 212.449275 270.305737 
L 216.097079 271.24029 
L 219.744883 272.156534 
L 223.392686 272.998737 
L 227.04049 273.840314 
L 230.688294 274.662143 
L 234.336098 275.443635 
L 237.983902 276.196552 
L 241.631706 276.919173 
L 245.27951 277.563692 
L 248.927314 278.342804 
L 252.575117 278.876506 
L 256.222921 279.644386 
L 259.870725 280.231828 
L 263.518529 280.881586 
L 267.166333 281.408249 
L 270.814137 281.931102 
L 274.461941 282.492116 
L 278.109745 283.042927 
L 281.757549 283.522164 
L 285.405352 283.947127 
L 289.053156 284.369137 
L 292.70096 284.753096 
L 296.348764 285.129676 
L 299.996568 285.546844 
L 303.644372 285.933135 
L 307.292176 286.190322 
L 310.93998 286.588083 
L 314.587783 286.839865 
L 318.235587 287.183512 
L 321.883391 287.318166 
L 325.531195 287.661003 
L 329.178999 287.876934 
L 332.826803 288.102386 
L 336.474607 288.294522 
L 340.122411 288.524796 
L 343.770215 288.737468 
L 347.418018 288.864035 
L 351.065822 289.099866 
L 354.713626 289.211011 
L 358.36143 289.401472 
L 362.009234 289.454266 
L 365.657038 289.628854 
L 369.304842 289.828094 
L 372.952646 289.919835 
L 376.600449 289.960924 
L 380.248253 290.113717 
L 383.896057 290.307963 
L 387.543861 290.353943 
L 391.191665 290.459279 
L 394.839469 290.498984 
L 398.487273 290.726526 
" clip-path="url(#pd6b5b0ce19)" style="fill: none; stroke: #dc143c; stroke-width: 2; stroke-linecap: square"/>
   </g>
   <g id="line2d_59">
    <path d="M 73.832727 281.485621 
L 77.480531 279.593916 
L 81.128335 273.843131 
L 84.776139 267.487 
L 88.423943 261.433543 
L 92.071747 256.515108 
L 95.719551 254.093725 
L 99.367354 251.445337 
L 103.015158 249.6293 
L 106.662962 248.645613 
L 110.310766 248.040268 
L 113.95857 247.056581 
L 117.606374 246.375567 
L 121.254178 246.148562 
L 124.901982 245.543216 
L 128.549785 244.559529 
L 132.197589 244.332525 
L 135.845393 244.332525 
L 139.493197 244.10552 
L 143.141001 243.878515 
L 146.788805 243.651511 
L 150.436609 243.651511 
L 154.084413 243.651511 
L 157.732217 243.727179 
L 161.38002 243.802847 
L 165.027824 243.802847 
L 168.675628 243.954184 
L 172.323432 244.029852 
L 175.971236 244.10552 
L 179.61904 244.408193 
L 183.266844 244.181188 
L 186.914648 244.10552 
L 190.562451 243.954184 
L 194.210255 243.878515 
L 197.858059 243.651511 
L 201.505863 243.575842 
L 205.153667 243.727179 
L 208.801471 243.651511 
L 212.449275 243.727179 
L 216.097079 244.10552 
L 219.744883 244.559529 
L 223.392686 245.013539 
L 227.04049 245.316212 
L 230.688294 245.618884 
L 234.336098 245.467548 
L 237.983902 245.316212 
L 241.631706 245.39188 
L 245.27951 245.467548 
L 248.927314 245.467548 
L 252.575117 245.543216 
L 256.222921 245.39188 
L 259.870725 245.694553 
L 263.518529 245.467548 
L 267.166333 245.316212 
L 270.814137 245.164875 
L 274.461941 245.164875 
L 278.109745 245.316212 
L 281.757549 245.316212 
L 285.405352 245.240543 
L 289.053156 245.164875 
L 292.70096 245.316212 
L 296.348764 245.316212 
L 299.996568 245.164875 
L 303.644372 245.543216 
L 307.292176 245.694553 
L 310.93998 245.618884 
L 314.587783 245.921557 
L 318.235587 245.770221 
L 321.883391 246.22423 
L 325.531195 246.451235 
L 329.178999 246.980912 
L 332.826803 247.056581 
L 336.474607 247.056581 
L 340.122411 247.132249 
L 343.770215 247.207917 
L 347.418018 247.283585 
L 351.065822 247.586258 
L 354.713626 247.586258 
L 358.36143 247.661926 
L 362.009234 247.737595 
L 365.657038 247.888931 
L 369.304842 247.926765 
L 372.952646 248.115936 
L 376.600449 248.267272 
L 380.248253 248.494277 
L 383.896057 248.645613 
L 387.543861 248.948286 
L 391.191665 249.023954 
L 394.839469 249.326627 
L 398.487273 249.6293 
" clip-path="url(#pd6b5b0ce19)" style="fill: none; stroke: #ffff00; stroke-width: 3; stroke-linecap: square"/>
   </g>
   <g id="patch_3">
    <path d="M 57.6 307.584 
L 57.6 41.472 
" style="fill: none; stroke: #ffffff; stroke-linejoin: miter; stroke-linecap: square"/>
   </g>
   <g id="patch_4">
    <path d="M 414.72 307.584 
L 414.72 41.472 
" style="fill: none; stroke: #ffffff; stroke-linejoin: miter; stroke-linecap: square"/>
   </g>
   <g id="patch_5">
    <path d="M 57.6 307.584 
L 414.72 307.584 
" style="fill: none; stroke: #ffffff; stroke-linejoin: miter; stroke-linecap: square"/>
   </g>
   <g id="patch_6">
    <path d="M 57.6 41.472 
L 414.72 41.472 
" style="fill: none; stroke: #ffffff; stroke-linejoin: miter; stroke-linecap: square"/>
   </g>
  </g>
 </g>
 <defs>
  <clipPath id="pd6b5b0ce19">
   <rect x="57.6" y="41.472" width="357.12" height="266.112"/>
  </clipPath>
 </defs>
</svg>
