<?xml version="1.0" encoding="utf-8" standalone="no"?>
<!DOCTYPE svg PUBLIC "-//W3C//DTD SVG 1.1//EN"
  "http://www.w3.org/Graphics/SVG/1.1/DTD/svg11.dtd">
<svg xmlns:xlink="http://www.w3.org/1999/xlink" width="460.8pt" height="345.6pt" viewBox="0 0 460.8 345.6" xmlns="http://www.w3.org/2000/svg" version="1.1">
 <metadata>
  <rdf:RDF xmlns:dc="http://purl.org/dc/elements/1.1/" xmlns:cc="http://creativecommons.org/ns#" xmlns:rdf="http://www.w3.org/1999/02/22-rdf-syntax-ns#">
   <cc:Work>
    <dc:type rdf:resource="http://purl.org/dc/dcmitype/StillImage"/>
    <dc:date>2023-07-06T14:47:15.790568</dc:date>
    <dc:format>image/svg+xml</dc:format>
    <dc:creator>
     <cc:Agent>
      <dc:title>Matplotlib v3.7.1, https://matplotlib.org/</dc:title>
     </cc:Agent>
    </dc:creator>
   </cc:Work>
  </rdf:RDF>
 </metadata>
 <defs>
  <style type="text/css">*{stroke-linejoin: round; stroke-linecap: butt}</style>
 </defs>
 <g id="figure_1">
  <g id="patch_1">
   <path d="M 0 345.6 
L 460.8 345.6 
L 460.8 0 
L 0 0 
z
" style="fill: #ffffff"/>
  </g>
  <g id="axes_1">
   <g id="patch_2">
    <path d="M 57.6 307.584 
L 414.72 307.584 
L 414.72 41.472 
L 57.6 41.472 
z
" style="fill: #e5e5e5"/>
   </g>
   <g id="matplotlib.axis_1">
    <g id="xtick_1">
     <g id="line2d_1">
      <path d="M 70.184923 307.584 
L 70.184923 41.472 
" clip-path="url(#p9b8c31cb84)" style="fill: none; stroke: #ffffff; stroke-width: 0.8; stroke-linecap: square"/>
     </g>
     <g id="line2d_2">
      <defs>
       <path id="mbcc7f33414" d="M 0 0 
L 0 3.5 
" style="stroke: #555555; stroke-width: 0.8"/>
      </defs>
      <g>
       <use xlink:href="#mbcc7f33414" x="70.184923" y="307.584" style="fill: #555555; stroke: #555555; stroke-width: 0.8"/>
      </g>
     </g>
     <g id="text_1">
      <!-- 0 -->
      <g style="fill: #555555" transform="translate(67.003673 322.182437) scale(0.1 -0.1)">
       <defs>
        <path id="DejaVuSans-30" d="M 2034 4250 
Q 1547 4250 1301 3770 
Q 1056 3291 1056 2328 
Q 1056 1369 1301 889 
Q 1547 409 2034 409 
Q 2525 409 2770 889 
Q 3016 1369 3016 2328 
Q 3016 3291 2770 3770 
Q 2525 4250 2034 4250 
z
M 2034 4750 
Q 2819 4750 3233 4129 
Q 3647 3509 3647 2328 
Q 3647 1150 3233 529 
Q 2819 -91 2034 -91 
Q 1250 -91 836 529 
Q 422 1150 422 2328 
Q 422 3509 836 4129 
Q 1250 4750 2034 4750 
z
" transform="scale(0.015625)"/>
       </defs>
       <use xlink:href="#DejaVuSans-30"/>
      </g>
     </g>
    </g>
    <g id="xtick_2">
     <g id="line2d_3">
      <path d="M 143.141001 307.584 
L 143.141001 41.472 
" clip-path="url(#p9b8c31cb84)" style="fill: none; stroke: #ffffff; stroke-width: 0.8; stroke-linecap: square"/>
     </g>
     <g id="line2d_4">
      <g>
       <use xlink:href="#mbcc7f33414" x="143.141001" y="307.584" style="fill: #555555; stroke: #555555; stroke-width: 0.8"/>
      </g>
     </g>
     <g id="text_2">
      <!-- 20 -->
      <g style="fill: #555555" transform="translate(136.778501 322.182437) scale(0.1 -0.1)">
       <defs>
        <path id="DejaVuSans-32" d="M 1228 531 
L 3431 531 
L 3431 0 
L 469 0 
L 469 531 
Q 828 903 1448 1529 
Q 2069 2156 2228 2338 
Q 2531 2678 2651 2914 
Q 2772 3150 2772 3378 
Q 2772 3750 2511 3984 
Q 2250 4219 1831 4219 
Q 1534 4219 1204 4116 
Q 875 4013 500 3803 
L 500 4441 
Q 881 4594 1212 4672 
Q 1544 4750 1819 4750 
Q 2544 4750 2975 4387 
Q 3406 4025 3406 3419 
Q 3406 3131 3298 2873 
Q 3191 2616 2906 2266 
Q 2828 2175 2409 1742 
Q 1991 1309 1228 531 
z
" transform="scale(0.015625)"/>
       </defs>
       <use xlink:href="#DejaVuSans-32"/>
       <use xlink:href="#DejaVuSans-30" x="63.623047"/>
      </g>
     </g>
    </g>
    <g id="xtick_3">
     <g id="line2d_5">
      <path d="M 216.097079 307.584 
L 216.097079 41.472 
" clip-path="url(#p9b8c31cb84)" style="fill: none; stroke: #ffffff; stroke-width: 0.8; stroke-linecap: square"/>
     </g>
     <g id="line2d_6">
      <g>
       <use xlink:href="#mbcc7f33414" x="216.097079" y="307.584" style="fill: #555555; stroke: #555555; stroke-width: 0.8"/>
      </g>
     </g>
     <g id="text_3">
      <!-- 40 -->
      <g style="fill: #555555" transform="translate(209.734579 322.182437) scale(0.1 -0.1)">
       <defs>
        <path id="DejaVuSans-34" d="M 2419 4116 
L 825 1625 
L 2419 1625 
L 2419 4116 
z
M 2253 4666 
L 3047 4666 
L 3047 1625 
L 3713 1625 
L 3713 1100 
L 3047 1100 
L 3047 0 
L 2419 0 
L 2419 1100 
L 313 1100 
L 313 1709 
L 2253 4666 
z
" transform="scale(0.015625)"/>
       </defs>
       <use xlink:href="#DejaVuSans-34"/>
       <use xlink:href="#DejaVuSans-30" x="63.623047"/>
      </g>
     </g>
    </g>
    <g id="xtick_4">
     <g id="line2d_7">
      <path d="M 289.053156 307.584 
L 289.053156 41.472 
" clip-path="url(#p9b8c31cb84)" style="fill: none; stroke: #ffffff; stroke-width: 0.8; stroke-linecap: square"/>
     </g>
     <g id="line2d_8">
      <g>
       <use xlink:href="#mbcc7f33414" x="289.053156" y="307.584" style="fill: #555555; stroke: #555555; stroke-width: 0.8"/>
      </g>
     </g>
     <g id="text_4">
      <!-- 60 -->
      <g style="fill: #555555" transform="translate(282.690656 322.182437) scale(0.1 -0.1)">
       <defs>
        <path id="DejaVuSans-36" d="M 2113 2584 
Q 1688 2584 1439 2293 
Q 1191 2003 1191 1497 
Q 1191 994 1439 701 
Q 1688 409 2113 409 
Q 2538 409 2786 701 
Q 3034 994 3034 1497 
Q 3034 2003 2786 2293 
Q 2538 2584 2113 2584 
z
M 3366 4563 
L 3366 3988 
Q 3128 4100 2886 4159 
Q 2644 4219 2406 4219 
Q 1781 4219 1451 3797 
Q 1122 3375 1075 2522 
Q 1259 2794 1537 2939 
Q 1816 3084 2150 3084 
Q 2853 3084 3261 2657 
Q 3669 2231 3669 1497 
Q 3669 778 3244 343 
Q 2819 -91 2113 -91 
Q 1303 -91 875 529 
Q 447 1150 447 2328 
Q 447 3434 972 4092 
Q 1497 4750 2381 4750 
Q 2619 4750 2861 4703 
Q 3103 4656 3366 4563 
z
" transform="scale(0.015625)"/>
       </defs>
       <use xlink:href="#DejaVuSans-36"/>
       <use xlink:href="#DejaVuSans-30" x="63.623047"/>
      </g>
     </g>
    </g>
    <g id="xtick_5">
     <g id="line2d_9">
      <path d="M 362.009234 307.584 
L 362.009234 41.472 
" clip-path="url(#p9b8c31cb84)" style="fill: none; stroke: #ffffff; stroke-width: 0.8; stroke-linecap: square"/>
     </g>
     <g id="line2d_10">
      <g>
       <use xlink:href="#mbcc7f33414" x="362.009234" y="307.584" style="fill: #555555; stroke: #555555; stroke-width: 0.8"/>
      </g>
     </g>
     <g id="text_5">
      <!-- 80 -->
      <g style="fill: #555555" transform="translate(355.646734 322.182437) scale(0.1 -0.1)">
       <defs>
        <path id="DejaVuSans-38" d="M 2034 2216 
Q 1584 2216 1326 1975 
Q 1069 1734 1069 1313 
Q 1069 891 1326 650 
Q 1584 409 2034 409 
Q 2484 409 2743 651 
Q 3003 894 3003 1313 
Q 3003 1734 2745 1975 
Q 2488 2216 2034 2216 
z
M 1403 2484 
Q 997 2584 770 2862 
Q 544 3141 544 3541 
Q 544 4100 942 4425 
Q 1341 4750 2034 4750 
Q 2731 4750 3128 4425 
Q 3525 4100 3525 3541 
Q 3525 3141 3298 2862 
Q 3072 2584 2669 2484 
Q 3125 2378 3379 2068 
Q 3634 1759 3634 1313 
Q 3634 634 3220 271 
Q 2806 -91 2034 -91 
Q 1263 -91 848 271 
Q 434 634 434 1313 
Q 434 1759 690 2068 
Q 947 2378 1403 2484 
z
M 1172 3481 
Q 1172 3119 1398 2916 
Q 1625 2713 2034 2713 
Q 2441 2713 2670 2916 
Q 2900 3119 2900 3481 
Q 2900 3844 2670 4047 
Q 2441 4250 2034 4250 
Q 1625 4250 1398 4047 
Q 1172 3844 1172 3481 
z
" transform="scale(0.015625)"/>
       </defs>
       <use xlink:href="#DejaVuSans-38"/>
       <use xlink:href="#DejaVuSans-30" x="63.623047"/>
      </g>
     </g>
    </g>
   </g>
   <g id="matplotlib.axis_2">
    <g id="ytick_1">
     <g id="line2d_11">
      <path d="M 57.6 295.551717 
L 414.72 295.551717 
" clip-path="url(#p9b8c31cb84)" style="fill: none; stroke: #ffffff; stroke-width: 0.8; stroke-linecap: square"/>
     </g>
     <g id="line2d_12">
      <defs>
       <path id="m742b86ab24" d="M 0 0 
L -3.5 0 
" style="stroke: #555555; stroke-width: 0.8"/>
      </defs>
      <g>
       <use xlink:href="#m742b86ab24" x="57.6" y="295.551717" style="fill: #555555; stroke: #555555; stroke-width: 0.8"/>
      </g>
     </g>
     <g id="text_6">
      <!-- 0.0 -->
      <g style="fill: #555555" transform="translate(34.696875 299.350936) scale(0.1 -0.1)">
       <defs>
        <path id="DejaVuSans-2e" d="M 684 794 
L 1344 794 
L 1344 0 
L 684 0 
L 684 794 
z
" transform="scale(0.015625)"/>
       </defs>
       <use xlink:href="#DejaVuSans-30"/>
       <use xlink:href="#DejaVuSans-2e" x="63.623047"/>
       <use xlink:href="#DejaVuSans-30" x="95.410156"/>
      </g>
     </g>
    </g>
    <g id="ytick_2">
     <g id="line2d_13">
      <path d="M 57.6 261.478604 
L 414.72 261.478604 
" clip-path="url(#p9b8c31cb84)" style="fill: none; stroke: #ffffff; stroke-width: 0.8; stroke-linecap: square"/>
     </g>
     <g id="line2d_14">
      <g>
       <use xlink:href="#m742b86ab24" x="57.6" y="261.478604" style="fill: #555555; stroke: #555555; stroke-width: 0.8"/>
      </g>
     </g>
     <g id="text_7">
      <!-- 0.5 -->
      <g style="fill: #555555" transform="translate(34.696875 265.277822) scale(0.1 -0.1)">
       <defs>
        <path id="DejaVuSans-35" d="M 691 4666 
L 3169 4666 
L 3169 4134 
L 1269 4134 
L 1269 2991 
Q 1406 3038 1543 3061 
Q 1681 3084 1819 3084 
Q 2600 3084 3056 2656 
Q 3513 2228 3513 1497 
Q 3513 744 3044 326 
Q 2575 -91 1722 -91 
Q 1428 -91 1123 -41 
Q 819 9 494 109 
L 494 744 
Q 775 591 1075 516 
Q 1375 441 1709 441 
Q 2250 441 2565 725 
Q 2881 1009 2881 1497 
Q 2881 1984 2565 2268 
Q 2250 2553 1709 2553 
Q 1456 2553 1204 2497 
Q 953 2441 691 2322 
L 691 4666 
z
" transform="scale(0.015625)"/>
       </defs>
       <use xlink:href="#DejaVuSans-30"/>
       <use xlink:href="#DejaVuSans-2e" x="63.623047"/>
       <use xlink:href="#DejaVuSans-35" x="95.410156"/>
      </g>
     </g>
    </g>
    <g id="ytick_3">
     <g id="line2d_15">
      <path d="M 57.6 227.40549 
L 414.72 227.40549 
" clip-path="url(#p9b8c31cb84)" style="fill: none; stroke: #ffffff; stroke-width: 0.8; stroke-linecap: square"/>
     </g>
     <g id="line2d_16">
      <g>
       <use xlink:href="#m742b86ab24" x="57.6" y="227.40549" style="fill: #555555; stroke: #555555; stroke-width: 0.8"/>
      </g>
     </g>
     <g id="text_8">
      <!-- 1.0 -->
      <g style="fill: #555555" transform="translate(34.696875 231.204709) scale(0.1 -0.1)">
       <defs>
        <path id="DejaVuSans-31" d="M 794 531 
L 1825 531 
L 1825 4091 
L 703 3866 
L 703 4441 
L 1819 4666 
L 2450 4666 
L 2450 531 
L 3481 531 
L 3481 0 
L 794 0 
L 794 531 
z
" transform="scale(0.015625)"/>
       </defs>
       <use xlink:href="#DejaVuSans-31"/>
       <use xlink:href="#DejaVuSans-2e" x="63.623047"/>
       <use xlink:href="#DejaVuSans-30" x="95.410156"/>
      </g>
     </g>
    </g>
    <g id="ytick_4">
     <g id="line2d_17">
      <path d="M 57.6 193.332377 
L 414.72 193.332377 
" clip-path="url(#p9b8c31cb84)" style="fill: none; stroke: #ffffff; stroke-width: 0.8; stroke-linecap: square"/>
     </g>
     <g id="line2d_18">
      <g>
       <use xlink:href="#m742b86ab24" x="57.6" y="193.332377" style="fill: #555555; stroke: #555555; stroke-width: 0.8"/>
      </g>
     </g>
     <g id="text_9">
      <!-- 1.5 -->
      <g style="fill: #555555" transform="translate(34.696875 197.131596) scale(0.1 -0.1)">
       <use xlink:href="#DejaVuSans-31"/>
       <use xlink:href="#DejaVuSans-2e" x="63.623047"/>
       <use xlink:href="#DejaVuSans-35" x="95.410156"/>
      </g>
     </g>
    </g>
    <g id="ytick_5">
     <g id="line2d_19">
      <path d="M 57.6 159.259264 
L 414.72 159.259264 
" clip-path="url(#p9b8c31cb84)" style="fill: none; stroke: #ffffff; stroke-width: 0.8; stroke-linecap: square"/>
     </g>
     <g id="line2d_20">
      <g>
       <use xlink:href="#m742b86ab24" x="57.6" y="159.259264" style="fill: #555555; stroke: #555555; stroke-width: 0.8"/>
      </g>
     </g>
     <g id="text_10">
      <!-- 2.0 -->
      <g style="fill: #555555" transform="translate(34.696875 163.058482) scale(0.1 -0.1)">
       <use xlink:href="#DejaVuSans-32"/>
       <use xlink:href="#DejaVuSans-2e" x="63.623047"/>
       <use xlink:href="#DejaVuSans-30" x="95.410156"/>
      </g>
     </g>
    </g>
    <g id="ytick_6">
     <g id="line2d_21">
      <path d="M 57.6 125.18615 
L 414.72 125.18615 
" clip-path="url(#p9b8c31cb84)" style="fill: none; stroke: #ffffff; stroke-width: 0.8; stroke-linecap: square"/>
     </g>
     <g id="line2d_22">
      <g>
       <use xlink:href="#m742b86ab24" x="57.6" y="125.18615" style="fill: #555555; stroke: #555555; stroke-width: 0.8"/>
      </g>
     </g>
     <g id="text_11">
      <!-- 2.5 -->
      <g style="fill: #555555" transform="translate(34.696875 128.985369) scale(0.1 -0.1)">
       <use xlink:href="#DejaVuSans-32"/>
       <use xlink:href="#DejaVuSans-2e" x="63.623047"/>
       <use xlink:href="#DejaVuSans-35" x="95.410156"/>
      </g>
     </g>
    </g>
    <g id="ytick_7">
     <g id="line2d_23">
      <path d="M 57.6 91.113037 
L 414.72 91.113037 
" clip-path="url(#p9b8c31cb84)" style="fill: none; stroke: #ffffff; stroke-width: 0.8; stroke-linecap: square"/>
     </g>
     <g id="line2d_24">
      <g>
       <use xlink:href="#m742b86ab24" x="57.6" y="91.113037" style="fill: #555555; stroke: #555555; stroke-width: 0.8"/>
      </g>
     </g>
     <g id="text_12">
      <!-- 3.0 -->
      <g style="fill: #555555" transform="translate(34.696875 94.912256) scale(0.1 -0.1)">
       <defs>
        <path id="DejaVuSans-33" d="M 2597 2516 
Q 3050 2419 3304 2112 
Q 3559 1806 3559 1356 
Q 3559 666 3084 287 
Q 2609 -91 1734 -91 
Q 1441 -91 1130 -33 
Q 819 25 488 141 
L 488 750 
Q 750 597 1062 519 
Q 1375 441 1716 441 
Q 2309 441 2620 675 
Q 2931 909 2931 1356 
Q 2931 1769 2642 2001 
Q 2353 2234 1838 2234 
L 1294 2234 
L 1294 2753 
L 1863 2753 
Q 2328 2753 2575 2939 
Q 2822 3125 2822 3475 
Q 2822 3834 2567 4026 
Q 2313 4219 1838 4219 
Q 1578 4219 1281 4162 
Q 984 4106 628 3988 
L 628 4550 
Q 988 4650 1302 4700 
Q 1616 4750 1894 4750 
Q 2613 4750 3031 4423 
Q 3450 4097 3450 3541 
Q 3450 3153 3228 2886 
Q 3006 2619 2597 2516 
z
" transform="scale(0.015625)"/>
       </defs>
       <use xlink:href="#DejaVuSans-33"/>
       <use xlink:href="#DejaVuSans-2e" x="63.623047"/>
       <use xlink:href="#DejaVuSans-30" x="95.410156"/>
      </g>
     </g>
    </g>
    <g id="ytick_8">
     <g id="line2d_25">
      <path d="M 57.6 57.039924 
L 414.72 57.039924 
" clip-path="url(#p9b8c31cb84)" style="fill: none; stroke: #ffffff; stroke-width: 0.8; stroke-linecap: square"/>
     </g>
     <g id="line2d_26">
      <g>
       <use xlink:href="#m742b86ab24" x="57.6" y="57.039924" style="fill: #555555; stroke: #555555; stroke-width: 0.8"/>
      </g>
     </g>
     <g id="text_13">
      <!-- 3.5 -->
      <g style="fill: #555555" transform="translate(34.696875 60.839142) scale(0.1 -0.1)">
       <use xlink:href="#DejaVuSans-33"/>
       <use xlink:href="#DejaVuSans-2e" x="63.623047"/>
       <use xlink:href="#DejaVuSans-35" x="95.410156"/>
      </g>
     </g>
    </g>
   </g>
   <g id="line2d_27">
    <path d="M 73.832727 248.347311 
L 77.480531 248.065652 
L 81.128335 248.902925 
L 84.776139 249.55491 
L 88.423943 250.270121 
L 92.071747 250.794723 
L 95.719551 251.353562 
L 99.367354 252.071731 
L 103.015158 252.444127 
L 106.662962 253.497734 
L 110.310766 254.438146 
L 113.95857 255.245508 
L 117.606374 256.531975 
L 121.254178 257.213871 
L 124.901982 258.514271 
L 128.549785 259.736387 
L 132.197589 260.517851 
L 135.845393 261.525386 
L 139.493197 262.508597 
L 143.141001 263.584379 
L 146.788805 264.825191 
L 150.436609 265.78133 
L 154.084413 266.423569 
L 157.732217 267.24612 
L 161.38002 268.201601 
L 165.027824 268.717635 
L 168.675628 269.705551 
L 172.323432 270.15573 
L 175.971236 270.586922 
L 179.61904 271.103276 
L 183.266844 271.705248 
L 186.914648 272.189388 
L 190.562451 272.927246 
L 194.210255 273.707826 
L 197.858059 274.486156 
L 201.505863 275.167602 
L 205.153667 275.917138 
L 208.801471 276.743986 
L 212.449275 277.282587 
L 216.097079 278.014751 
L 219.744883 278.63196 
L 223.392686 279.274435 
L 227.04049 279.968153 
L 230.688294 280.57754 
L 234.336098 281.196588 
L 237.983902 281.829589 
L 241.631706 282.471635 
L 245.27951 283.172781 
L 248.927314 283.763645 
L 252.575117 284.507293 
L 256.222921 285.195861 
L 259.870725 285.844434 
L 263.518529 286.554057 
L 267.166333 287.173477 
L 270.814137 287.836961 
L 274.461941 288.426447 
L 278.109745 289.03267 
L 281.757549 289.576413 
L 285.405352 290.122239 
L 289.053156 290.619394 
L 292.70096 291.159751 
L 296.348764 291.557396 
L 299.996568 291.996376 
L 303.644372 292.370183 
L 307.292176 292.709309 
L 310.93998 292.98283 
L 314.587783 293.320732 
L 318.235587 293.440494 
L 321.883391 293.730912 
L 325.531195 293.927577 
L 329.178999 294.054539 
L 332.826803 294.235526 
L 336.474607 294.366848 
L 340.122411 294.451102 
L 343.770215 294.553689 
L 347.418018 294.650798 
L 351.065822 294.662132 
L 354.713626 294.769716 
L 358.36143 294.828023 
L 362.009234 294.858576 
L 365.657038 294.936441 
L 369.304842 294.993311 
L 372.952646 295.006505 
L 376.600449 295.064723 
L 380.248253 295.065694 
L 383.896057 295.070978 
L 387.543861 295.106976 
L 391.191665 295.134592 
L 394.839469 295.167511 
L 398.487273 295.159324 
" clip-path="url(#p9b8c31cb84)" style="fill: none; stroke: #ff00ff; stroke-opacity: 0.3; stroke-width: 0.5; stroke-linecap: square"/>
   </g>
   <g id="line2d_28">
    <path d="M 73.832727 249.187107 
L 77.480531 249.266711 
L 81.128335 249.2163 
L 84.776139 249.27098 
L 88.423943 249.330693 
L 92.071747 249.370434 
L 95.719551 249.503768 
L 99.367354 249.604505 
L 103.015158 249.712704 
L 106.662962 249.851115 
L 110.310766 249.9108 
L 113.95857 250.110394 
L 117.606374 250.337418 
L 121.254178 250.39088 
L 124.901982 250.523641 
L 128.549785 250.786027 
L 132.197589 250.935868 
L 135.845393 251.018335 
L 139.493197 251.241309 
L 143.141001 251.517965 
L 146.788805 251.624665 
L 150.436609 251.892892 
L 154.084413 252.173528 
L 157.732217 252.569679 
L 161.38002 252.620309 
L 165.027824 252.717818 
L 168.675628 253.022484 
L 172.323432 253.19505 
L 175.971236 253.498559 
L 179.61904 253.546062 
L 183.266844 253.816178 
L 186.914648 253.955405 
L 190.562451 254.38667 
L 194.210255 254.956781 
L 197.858059 255.374203 
L 201.505863 256.079333 
L 205.153667 256.27519 
L 208.801471 257.008619 
L 212.449275 257.612313 
L 216.097079 258.342667 
L 219.744883 258.838726 
L 223.392686 259.857994 
L 227.04049 260.499247 
L 230.688294 261.035474 
L 234.336098 261.721178 
L 237.983902 262.584817 
L 241.631706 263.785586 
L 245.27951 264.50586 
L 248.927314 265.05604 
L 252.575117 266.023747 
L 256.222921 266.627558 
L 259.870725 267.377583 
L 263.518529 268.179501 
L 267.166333 268.797878 
L 270.814137 269.57813 
L 274.461941 270.326187 
L 278.109745 270.774534 
L 281.757549 271.466619 
L 285.405352 272.118901 
L 289.053156 272.859214 
L 292.70096 273.458399 
L 296.348764 273.819139 
L 299.996568 274.553382 
L 303.644372 274.998353 
L 307.292176 275.65361 
L 310.93998 276.135425 
L 314.587783 276.409198 
L 318.235587 276.908377 
L 321.883391 277.459502 
L 325.531195 277.729379 
L 329.178999 278.036894 
L 332.826803 278.579062 
L 336.474607 278.807437 
L 340.122411 279.124102 
L 343.770215 279.500943 
L 347.418018 279.889308 
L 351.065822 280.286329 
L 354.713626 280.499493 
L 358.36143 280.890326 
L 362.009234 281.312649 
L 365.657038 281.574008 
L 369.304842 281.811696 
L 372.952646 282.161949 
L 376.600449 282.451712 
L 380.248253 282.685067 
L 383.896057 282.987267 
L 387.543861 283.312667 
L 391.191665 283.527406 
L 394.839469 283.892332 
L 398.487273 284.18805 
" clip-path="url(#p9b8c31cb84)" style="fill: none; stroke: #ff00ff; stroke-opacity: 0.3; stroke-width: 0.5; stroke-linecap: square"/>
   </g>
   <g id="line2d_29">
    <path d="M 73.832727 247.170127 
L 77.480531 247.407464 
L 81.128335 247.824042 
L 84.776139 248.310661 
L 88.423943 248.736382 
L 92.071747 249.101394 
L 95.719551 249.616971 
L 99.367354 250.44303 
L 103.015158 251.037304 
L 106.662962 251.710219 
L 110.310766 252.508727 
L 113.95857 253.244609 
L 117.606374 254.159171 
L 121.254178 255.267746 
L 124.901982 256.503603 
L 128.549785 257.932308 
L 132.197589 259.17457 
L 135.845393 260.346003 
L 139.493197 261.556193 
L 143.141001 262.847553 
L 146.788805 264.384733 
L 150.436609 266.052671 
L 154.084413 267.644931 
L 157.732217 269.127402 
L 161.38002 270.572842 
L 165.027824 272.146084 
L 168.675628 273.458239 
L 172.323432 275.178091 
L 175.971236 276.229328 
L 179.61904 277.894027 
L 183.266844 278.613403 
L 186.914648 280.124359 
L 190.562451 281.862965 
L 194.210255 283.588076 
L 197.858059 284.947957 
L 201.505863 286.349429 
L 205.153667 287.663798 
L 208.801471 288.645023 
L 212.449275 289.737031 
L 216.097079 290.561323 
L 219.744883 291.355283 
L 223.392686 292.241811 
L 227.04049 292.774606 
L 230.688294 293.222705 
L 234.336098 293.387999 
L 237.983902 293.733617 
L 241.631706 293.859122 
L 245.27951 294.245901 
L 248.927314 294.415248 
L 252.575117 294.513261 
L 256.222921 294.699908 
L 259.870725 294.80335 
L 263.518529 294.84299 
L 267.166333 294.978315 
L 270.814137 294.968656 
L 274.461941 295.040672 
L 278.109745 295.087493 
L 281.757549 295.139588 
L 285.405352 295.175266 
L 289.053156 295.204834 
L 292.70096 295.228102 
L 296.348764 295.226935 
L 299.996568 295.283563 
L 303.644372 295.291834 
L 307.292176 295.311577 
L 310.93998 295.309744 
L 314.587783 295.340627 
L 318.235587 295.332839 
L 321.883391 295.343233 
L 325.531195 295.35454 
L 329.178999 295.358843 
L 332.826803 295.359187 
L 336.474607 295.376412 
L 340.122411 295.37859 
L 343.770215 295.386875 
L 347.418018 295.397728 
L 351.065822 295.399677 
L 354.713626 295.401361 
L 358.36143 295.358582 
L 362.009234 295.398959 
L 365.657038 295.404944 
L 369.304842 295.410456 
L 372.952646 295.395922 
L 376.600449 295.420942 
L 380.248253 295.421924 
L 383.896057 295.418227 
L 387.543861 295.404315 
L 391.191665 295.426726 
L 394.839469 295.415806 
L 398.487273 295.421977 
" clip-path="url(#p9b8c31cb84)" style="fill: none; stroke: #ff00ff; stroke-opacity: 0.3; stroke-width: 0.5; stroke-linecap: square"/>
   </g>
   <g id="line2d_30">
    <path d="M 73.832727 248.243507 
L 77.480531 248.252862 
L 81.128335 248.308862 
L 84.776139 248.580148 
L 88.423943 248.725504 
L 92.071747 248.984479 
L 95.719551 249.259859 
L 99.367354 249.681976 
L 103.015158 250.088789 
L 106.662962 250.50416 
L 110.310766 251.191946 
L 113.95857 251.596732 
L 117.606374 252.072344 
L 121.254178 252.359251 
L 124.901982 252.855494 
L 128.549785 253.16009 
L 132.197589 253.744482 
L 135.845393 254.160796 
L 139.493197 254.799628 
L 143.141001 255.186339 
L 146.788805 256.127823 
L 150.436609 256.588723 
L 154.084413 257.565256 
L 157.732217 258.198082 
L 161.38002 258.874421 
L 165.027824 259.841015 
L 168.675628 260.654486 
L 172.323432 261.744698 
L 175.971236 262.909981 
L 179.61904 263.370934 
L 183.266844 264.642039 
L 186.914648 265.745854 
L 190.562451 267.402716 
L 194.210255 269.094142 
L 197.858059 270.634484 
L 201.505863 271.989515 
L 205.153667 274.298142 
L 208.801471 275.626422 
L 212.449275 277.321514 
L 216.097079 279.23917 
L 219.744883 280.925879 
L 223.392686 282.750793 
L 227.04049 284.265566 
L 230.688294 285.823035 
L 234.336098 286.993756 
L 237.983902 288.062451 
L 241.631706 289.095203 
L 245.27951 290.192108 
L 248.927314 290.857105 
L 252.575117 291.287386 
L 256.222921 292.052994 
L 259.870725 292.678823 
L 263.518529 293.10241 
L 267.166333 293.354186 
L 270.814137 293.68291 
L 274.461941 293.91622 
L 278.109745 294.096268 
L 281.757549 294.300262 
L 285.405352 294.515421 
L 289.053156 294.542873 
L 292.70096 294.654193 
L 296.348764 294.712926 
L 299.996568 294.836488 
L 303.644372 294.917079 
L 307.292176 294.979387 
L 310.93998 295.020208 
L 314.587783 295.077621 
L 318.235587 295.035988 
L 321.883391 295.142418 
L 325.531195 295.155283 
L 329.178999 295.16385 
L 332.826803 295.185938 
L 336.474607 295.185829 
L 340.122411 295.198153 
L 343.770215 295.220544 
L 347.418018 295.188591 
L 351.065822 295.224531 
L 354.713626 295.281774 
L 358.36143 295.25475 
L 362.009234 295.28674 
L 365.657038 295.293967 
L 369.304842 295.279056 
L 372.952646 295.324068 
L 376.600449 295.328382 
L 380.248253 295.33729 
L 383.896057 295.321359 
L 387.543861 295.333248 
L 391.191665 295.318636 
L 394.839469 295.36632 
L 398.487273 295.335071 
" clip-path="url(#p9b8c31cb84)" style="fill: none; stroke: #ff00ff; stroke-opacity: 0.3; stroke-width: 0.5; stroke-linecap: square"/>
   </g>
   <g id="line2d_31">
    <path d="M 73.832727 248.458167 
L 77.480531 248.626842 
L 81.128335 248.649414 
L 84.776139 248.72838 
L 88.423943 248.955554 
L 92.071747 249.013886 
L 95.719551 249.190828 
L 99.367354 249.411982 
L 103.015158 249.819088 
L 106.662962 250.235998 
L 110.310766 250.573581 
L 113.95857 251.098495 
L 117.606374 251.665572 
L 121.254178 252.2416 
L 124.901982 252.873146 
L 128.549785 253.327621 
L 132.197589 254.035098 
L 135.845393 255.314445 
L 139.493197 256.11673 
L 143.141001 257.16335 
L 146.788805 258.247587 
L 150.436609 259.340866 
L 154.084413 260.366279 
L 157.732217 261.719277 
L 161.38002 262.744138 
L 165.027824 263.990613 
L 168.675628 265.397814 
L 172.323432 266.196705 
L 175.971236 267.304261 
L 179.61904 268.565226 
L 183.266844 269.582254 
L 186.914648 270.408725 
L 190.562451 271.57571 
L 194.210255 272.531197 
L 197.858059 273.633868 
L 201.505863 274.650746 
L 205.153667 275.583954 
L 208.801471 276.51654 
L 212.449275 277.351468 
L 216.097079 278.323755 
L 219.744883 279.064631 
L 223.392686 279.87504 
L 227.04049 280.672084 
L 230.688294 281.46855 
L 234.336098 282.179658 
L 237.983902 282.936202 
L 241.631706 283.675307 
L 245.27951 284.40335 
L 248.927314 285.15939 
L 252.575117 285.859686 
L 256.222921 286.591742 
L 259.870725 287.29749 
L 263.518529 287.9942 
L 267.166333 288.635346 
L 270.814137 289.297666 
L 274.461941 289.874621 
L 278.109745 290.464076 
L 281.757549 290.999345 
L 285.405352 291.506201 
L 289.053156 291.95466 
L 292.70096 292.347608 
L 296.348764 292.708815 
L 299.996568 293.079488 
L 303.644372 293.369975 
L 307.292176 293.619043 
L 310.93998 293.843693 
L 314.587783 294.031362 
L 318.235587 294.21949 
L 321.883391 294.353293 
L 325.531195 294.484029 
L 329.178999 294.596668 
L 332.826803 294.705812 
L 336.474607 294.759275 
L 340.122411 294.858319 
L 343.770215 294.91101 
L 347.418018 294.968611 
L 351.065822 294.997985 
L 354.713626 295.059294 
L 358.36143 295.073846 
L 362.009234 295.127131 
L 365.657038 295.143506 
L 369.304842 295.157062 
L 372.952646 295.210474 
L 376.600449 295.230436 
L 380.248253 295.240181 
L 383.896057 295.254454 
L 387.543861 295.260238 
L 391.191665 295.291361 
L 394.839469 295.298552 
L 398.487273 295.3055 
" clip-path="url(#p9b8c31cb84)" style="fill: none; stroke: #ff00ff; stroke-opacity: 0.3; stroke-width: 0.5; stroke-linecap: square"/>
   </g>
   <g id="line2d_32">
    <path d="M 73.832727 249.59459 
L 77.480531 249.901973 
L 81.128335 250.140927 
L 84.776139 250.461592 
L 88.423943 250.866394 
L 92.071747 251.286749 
L 95.719551 252.023265 
L 99.367354 252.622657 
L 103.015158 253.151833 
L 106.662962 253.723856 
L 110.310766 254.496693 
L 113.95857 255.182228 
L 117.606374 256.201834 
L 121.254178 256.933032 
L 124.901982 257.893412 
L 128.549785 258.907212 
L 132.197589 260.150864 
L 135.845393 261.394796 
L 139.493197 262.571953 
L 143.141001 264.163306 
L 146.788805 265.463238 
L 150.436609 266.964845 
L 154.084413 268.531393 
L 157.732217 270.406369 
L 161.38002 271.92416 
L 165.027824 273.584143 
L 168.675628 275.042599 
L 172.323432 276.339718 
L 175.971236 277.811192 
L 179.61904 278.984463 
L 183.266844 280.201147 
L 186.914648 281.650058 
L 190.562451 283.321463 
L 194.210255 285.004964 
L 197.858059 286.545083 
L 201.505863 287.914135 
L 205.153667 289.024416 
L 208.801471 290.190744 
L 212.449275 291.081057 
L 216.097079 291.857741 
L 219.744883 292.544031 
L 223.392686 293.145905 
L 227.04049 293.603894 
L 230.688294 293.940442 
L 234.336098 294.218931 
L 237.983902 294.467617 
L 241.631706 294.605696 
L 245.27951 294.776709 
L 248.927314 294.871293 
L 252.575117 294.981117 
L 256.222921 295.053594 
L 259.870725 295.11442 
L 263.518529 295.156522 
L 267.166333 295.220392 
L 270.814137 295.263805 
L 274.461941 295.286573 
L 278.109745 295.30289 
L 281.757549 295.321617 
L 285.405352 295.340518 
L 289.053156 295.365671 
L 292.70096 295.385312 
L 296.348764 295.386254 
L 299.996568 295.400284 
L 303.644372 295.408172 
L 307.292176 295.425087 
L 310.93998 295.419015 
L 314.587783 295.438295 
L 318.235587 295.440142 
L 321.883391 295.441961 
L 325.531195 295.452708 
L 329.178999 295.45825 
L 332.826803 295.460959 
L 336.474607 295.449112 
L 340.122411 295.457981 
L 343.770215 295.471509 
L 347.418018 295.47296 
L 351.065822 295.466605 
L 354.713626 295.471646 
L 358.36143 295.47164 
L 362.009234 295.473435 
L 365.657038 295.476092 
L 369.304842 295.479409 
L 372.952646 295.480744 
L 376.600449 295.4816 
L 380.248253 295.481452 
L 383.896057 295.479165 
L 387.543861 295.475661 
L 391.191665 295.483121 
L 394.839469 295.485644 
L 398.487273 295.487555 
" clip-path="url(#p9b8c31cb84)" style="fill: none; stroke: #ff00ff; stroke-opacity: 0.3; stroke-width: 0.5; stroke-linecap: square"/>
   </g>
   <g id="line2d_33">
    <path d="M 73.832727 249.148698 
L 77.480531 249.268986 
L 81.128335 249.274802 
L 84.776139 249.324905 
L 88.423943 249.296565 
L 92.071747 249.586332 
L 95.719551 249.580898 
L 99.367354 249.746076 
L 103.015158 249.893411 
L 106.662962 250.115589 
L 110.310766 250.097197 
L 113.95857 250.317515 
L 117.606374 250.51769 
L 121.254178 250.526102 
L 124.901982 250.911862 
L 128.549785 250.858969 
L 132.197589 250.955686 
L 135.845393 251.07425 
L 139.493197 251.325515 
L 143.141001 251.211362 
L 146.788805 251.402268 
L 150.436609 251.545447 
L 154.084413 251.421586 
L 157.732217 251.46705 
L 161.38002 251.616127 
L 165.027824 251.552031 
L 168.675628 251.632643 
L 172.323432 251.739725 
L 175.971236 251.639921 
L 179.61904 251.359318 
L 183.266844 251.215379 
L 186.914648 251.551069 
L 190.562451 251.227024 
L 194.210255 251.68229 
L 197.858059 251.698647 
L 201.505863 251.770647 
L 205.153667 252.057945 
L 208.801471 252.072267 
L 212.449275 252.348305 
L 216.097079 252.603725 
L 219.744883 252.328914 
L 223.392686 252.894942 
L 227.04049 253.226664 
L 230.688294 253.34652 
L 234.336098 253.417208 
L 237.983902 253.569909 
L 241.631706 253.675492 
L 245.27951 254.00301 
L 248.927314 254.291144 
L 252.575117 254.662879 
L 256.222921 254.924989 
L 259.870725 255.253867 
L 263.518529 255.424505 
L 267.166333 255.403692 
L 270.814137 256.234247 
L 274.461941 256.374835 
L 278.109745 256.693043 
L 281.757549 257.062657 
L 285.405352 257.435712 
L 289.053156 257.719789 
L 292.70096 258.195072 
L 296.348764 258.370324 
L 299.996568 259.176053 
L 303.644372 259.271542 
L 307.292176 260.13657 
L 310.93998 259.814715 
L 314.587783 260.311729 
L 318.235587 260.857241 
L 321.883391 262.215107 
L 325.531195 262.193602 
L 329.178999 262.796168 
L 332.826803 263.207331 
L 336.474607 263.374039 
L 340.122411 264.231932 
L 343.770215 264.790901 
L 347.418018 265.344728 
L 351.065822 266.065155 
L 354.713626 266.28191 
L 358.36143 266.699211 
L 362.009234 267.59859 
L 365.657038 267.822129 
L 369.304842 268.127798 
L 372.952646 269.18073 
L 376.600449 269.761952 
L 380.248253 270.272128 
L 383.896057 269.918767 
L 387.543861 271.014019 
L 391.191665 271.176158 
L 394.839469 271.972823 
L 398.487273 271.780916 
" clip-path="url(#p9b8c31cb84)" style="fill: none; stroke: #ff00ff; stroke-opacity: 0.3; stroke-width: 0.5; stroke-linecap: square"/>
   </g>
   <g id="line2d_34">
    <path d="M 73.832727 245.272062 
L 77.480531 245.088561 
L 81.128335 245.447541 
L 84.776139 245.839358 
L 88.423943 245.853529 
L 92.071747 246.175007 
L 95.719551 246.496111 
L 99.367354 246.601816 
L 103.015158 246.966171 
L 106.662962 247.217452 
L 110.310766 247.426445 
L 113.95857 247.548418 
L 117.606374 247.816345 
L 121.254178 248.025025 
L 124.901982 248.087545 
L 128.549785 248.155922 
L 132.197589 248.325528 
L 135.845393 248.419254 
L 139.493197 248.566833 
L 143.141001 248.633471 
L 146.788805 248.72007 
L 150.436609 248.78174 
L 154.084413 248.878087 
L 157.732217 249.038895 
L 161.38002 249.126476 
L 165.027824 249.198078 
L 168.675628 249.203874 
L 172.323432 249.35545 
L 175.971236 249.484068 
L 179.61904 249.546543 
L 183.266844 249.540706 
L 186.914648 249.640095 
L 190.562451 249.853284 
L 194.210255 249.799599 
L 197.858059 250.042817 
L 201.505863 250.154514 
L 205.153667 250.291357 
L 208.801471 250.49271 
L 212.449275 250.56653 
L 216.097079 250.892199 
L 219.744883 251.028961 
L 223.392686 251.16974 
L 227.04049 251.689658 
L 230.688294 251.77923 
L 234.336098 252.144892 
L 237.983902 252.224171 
L 241.631706 252.77225 
L 245.27951 253.000968 
L 248.927314 253.417891 
L 252.575117 253.891679 
L 256.222921 254.263487 
L 259.870725 254.839771 
L 263.518529 255.28076 
L 267.166333 255.947872 
L 270.814137 256.709209 
L 274.461941 257.374752 
L 278.109745 257.833914 
L 281.757549 258.184072 
L 285.405352 258.938586 
L 289.053156 259.405014 
L 292.70096 260.250391 
L 296.348764 261.204243 
L 299.996568 261.691915 
L 303.644372 262.619207 
L 307.292176 263.722644 
L 310.93998 264.195488 
L 314.587783 265.537279 
L 318.235587 266.190257 
L 321.883391 267.2583 
L 325.531195 267.852832 
L 329.178999 269.00574 
L 332.826803 269.909902 
L 336.474607 270.447353 
L 340.122411 271.667195 
L 343.770215 272.367862 
L 347.418018 273.18505 
L 351.065822 274.301475 
L 354.713626 275.006128 
L 358.36143 275.918862 
L 362.009234 277.120831 
L 365.657038 278.203413 
L 369.304842 278.702406 
L 372.952646 279.495091 
L 376.600449 280.876533 
L 380.248253 281.610855 
L 383.896057 282.432824 
L 387.543861 282.743025 
L 391.191665 283.707789 
L 394.839469 284.551152 
L 398.487273 285.593735 
" clip-path="url(#p9b8c31cb84)" style="fill: none; stroke: #ff00ff; stroke-opacity: 0.3; stroke-width: 0.5; stroke-linecap: square"/>
   </g>
   <g id="line2d_35">
    <path d="M 73.832727 247.448627 
L 77.480531 247.495419 
L 81.128335 247.702536 
L 84.776139 247.727135 
L 88.423943 247.905051 
L 92.071747 248.212073 
L 95.719551 248.409859 
L 99.367354 248.596159 
L 103.015158 248.781976 
L 106.662962 248.974816 
L 110.310766 249.338813 
L 113.95857 249.528074 
L 117.606374 249.782003 
L 121.254178 250.042261 
L 124.901982 250.235896 
L 128.549785 250.413825 
L 132.197589 250.631657 
L 135.845393 250.792879 
L 139.493197 251.106834 
L 143.141001 251.39284 
L 146.788805 251.650356 
L 150.436609 251.975124 
L 154.084413 252.371908 
L 157.732217 252.550499 
L 161.38002 253.201237 
L 165.027824 253.429995 
L 168.675628 253.812181 
L 172.323432 254.341242 
L 175.971236 255.18666 
L 179.61904 255.645716 
L 183.266844 256.207329 
L 186.914648 256.953167 
L 190.562451 257.875085 
L 194.210255 258.510319 
L 197.858059 259.547276 
L 201.505863 260.96464 
L 205.153667 262.116011 
L 208.801471 263.44069 
L 212.449275 264.65288 
L 216.097079 265.785723 
L 219.744883 267.198489 
L 223.392686 268.48713 
L 227.04049 270.22903 
L 230.688294 271.815449 
L 234.336098 273.307606 
L 237.983902 274.691657 
L 241.631706 276.15078 
L 245.27951 277.799301 
L 248.927314 279.31821 
L 252.575117 280.718078 
L 256.222921 281.999972 
L 259.870725 283.525966 
L 263.518529 284.643941 
L 267.166333 286.007184 
L 270.814137 287.366641 
L 274.461941 288.26446 
L 278.109745 289.265619 
L 281.757549 290.190366 
L 285.405352 291.087322 
L 289.053156 291.695178 
L 292.70096 292.227883 
L 296.348764 292.743377 
L 299.996568 293.186412 
L 303.644372 293.616331 
L 307.292176 293.888942 
L 310.93998 294.136384 
L 314.587783 294.325037 
L 318.235587 294.496217 
L 321.883391 294.626763 
L 325.531195 294.721625 
L 329.178999 294.870305 
L 332.826803 294.942149 
L 336.474607 294.959405 
L 340.122411 295.051656 
L 343.770215 295.123171 
L 347.418018 295.158573 
L 351.065822 295.182114 
L 354.713626 295.208313 
L 358.36143 295.234615 
L 362.009234 295.266411 
L 365.657038 295.273192 
L 369.304842 295.308923 
L 372.952646 295.322384 
L 376.600449 295.3322 
L 380.248253 295.351519 
L 383.896057 295.355464 
L 387.543861 295.357165 
L 391.191665 295.372767 
L 394.839469 295.378887 
L 398.487273 295.384473 
" clip-path="url(#p9b8c31cb84)" style="fill: none; stroke: #ff00ff; stroke-opacity: 0.3; stroke-width: 0.5; stroke-linecap: square"/>
   </g>
   <g id="line2d_36">
    <path d="M 73.832727 250.704173 
L 77.480531 250.691033 
L 81.128335 250.992937 
L 84.776139 251.518241 
L 88.423943 252.137171 
L 92.071747 252.743878 
L 95.719551 253.44783 
L 99.367354 254.550536 
L 103.015158 255.514653 
L 106.662962 256.434369 
L 110.310766 257.668362 
L 113.95857 258.854766 
L 117.606374 260.00147 
L 121.254178 261.313746 
L 124.901982 262.37887 
L 128.549785 263.656081 
L 132.197589 264.902277 
L 135.845393 266.047173 
L 139.493197 267.182772 
L 143.141001 268.448128 
L 146.788805 269.687041 
L 150.436609 271.221415 
L 154.084413 272.640141 
L 157.732217 273.987364 
L 161.38002 275.289548 
L 165.027824 276.559502 
L 168.675628 277.717181 
L 172.323432 278.820542 
L 175.971236 279.929168 
L 179.61904 281.007126 
L 183.266844 281.889086 
L 186.914648 282.847173 
L 190.562451 283.962868 
L 194.210255 285.259971 
L 197.858059 286.3974 
L 201.505863 287.50625 
L 205.153667 288.518716 
L 208.801471 289.513526 
L 212.449275 290.333286 
L 216.097079 291.179239 
L 219.744883 291.754381 
L 223.392686 292.376093 
L 227.04049 292.915265 
L 230.688294 293.305249 
L 234.336098 293.65394 
L 237.983902 293.93894 
L 241.631706 294.155764 
L 245.27951 294.377353 
L 248.927314 294.530938 
L 252.575117 294.689735 
L 256.222921 294.775836 
L 259.870725 294.87354 
L 263.518529 294.926655 
L 267.166333 295.010667 
L 270.814137 295.06516 
L 274.461941 295.105064 
L 278.109745 295.150912 
L 281.757549 295.169049 
L 285.405352 295.222194 
L 289.053156 295.234321 
L 292.70096 295.260591 
L 296.348764 295.243705 
L 299.996568 295.294128 
L 303.644372 295.305603 
L 307.292176 295.297306 
L 310.93998 295.308652 
L 314.587783 295.345394 
L 318.235587 295.348845 
L 321.883391 295.358537 
L 325.531195 295.365977 
L 329.178999 295.366056 
L 332.826803 295.383086 
L 336.474607 295.370059 
L 340.122411 295.39152 
L 343.770215 295.390252 
L 347.418018 295.400548 
L 351.065822 295.40304 
L 354.713626 295.414692 
L 358.36143 295.398461 
L 362.009234 295.414605 
L 365.657038 295.406779 
L 369.304842 295.426286 
L 372.952646 295.421871 
L 376.600449 295.420215 
L 380.248253 295.436114 
L 383.896057 295.429151 
L 387.543861 295.422072 
L 391.191665 295.427375 
L 394.839469 295.441125 
L 398.487273 295.429292 
" clip-path="url(#p9b8c31cb84)" style="fill: none; stroke: #ff00ff; stroke-opacity: 0.3; stroke-width: 0.5; stroke-linecap: square"/>
   </g>
   <g id="line2d_37">
    <path d="M 73.832727 247.891294 
L 77.480531 248.088244 
L 81.128335 248.202284 
L 84.776139 248.25408 
L 88.423943 248.50039 
L 92.071747 248.821766 
L 95.719551 248.996014 
L 99.367354 249.217819 
L 103.015158 249.536079 
L 106.662962 249.633133 
L 110.310766 250.199604 
L 113.95857 250.442766 
L 117.606374 250.724531 
L 121.254178 251.036366 
L 124.901982 251.479637 
L 128.549785 251.711044 
L 132.197589 252.130964 
L 135.845393 252.368252 
L 139.493197 252.73504 
L 143.141001 253.262802 
L 146.788805 253.713121 
L 150.436609 254.092492 
L 154.084413 254.464332 
L 157.732217 255.115777 
L 161.38002 255.560462 
L 165.027824 255.818596 
L 168.675628 256.341926 
L 172.323432 256.725444 
L 175.971236 257.442951 
L 179.61904 257.700377 
L 183.266844 258.042481 
L 186.914648 258.382001 
L 190.562451 259.492563 
L 194.210255 260.483983 
L 197.858059 261.515767 
L 201.505863 262.434227 
L 205.153667 263.503589 
L 208.801471 264.446787 
L 212.449275 265.381191 
L 216.097079 266.269788 
L 219.744883 267.347601 
L 223.392686 268.561985 
L 227.04049 269.560119 
L 230.688294 270.829383 
L 234.336098 271.7423 
L 237.983902 272.827191 
L 241.631706 274.08173 
L 245.27951 275.045097 
L 248.927314 276.185385 
L 252.575117 277.400478 
L 256.222921 277.941447 
L 259.870725 279.0098 
L 263.518529 280.185898 
L 267.166333 280.909759 
L 270.814137 282.027845 
L 274.461941 282.979117 
L 278.109745 283.800294 
L 281.757549 284.511633 
L 285.405352 285.195319 
L 289.053156 286.221415 
L 292.70096 287.129893 
L 296.348764 287.619393 
L 299.996568 288.473016 
L 303.644372 289.005317 
L 307.292176 289.779294 
L 310.93998 290.166986 
L 314.587783 290.717882 
L 318.235587 291.27238 
L 321.883391 291.636158 
L 325.531195 292.104218 
L 329.178999 292.378821 
L 332.826803 292.781134 
L 336.474607 292.905775 
L 340.122411 293.246769 
L 343.770215 293.452878 
L 347.418018 293.605975 
L 351.065822 293.750862 
L 354.713626 293.974227 
L 358.36143 294.05879 
L 362.009234 294.223027 
L 365.657038 294.314117 
L 369.304842 294.399456 
L 372.952646 294.53196 
L 376.600449 294.5999 
L 380.248253 294.630992 
L 383.896057 294.636287 
L 387.543861 294.719954 
L 391.191665 294.818594 
L 394.839469 294.859941 
L 398.487273 294.894822 
" clip-path="url(#p9b8c31cb84)" style="fill: none; stroke: #ff00ff; stroke-opacity: 0.3; stroke-width: 0.5; stroke-linecap: square"/>
   </g>
   <g id="line2d_38">
    <path d="M 73.832727 245.436631 
L 77.480531 245.758657 
L 81.128335 246.370905 
L 84.776139 247.085974 
L 88.423943 247.890664 
L 92.071747 248.70459 
L 95.719551 249.678296 
L 99.367354 250.361509 
L 103.015158 250.857824 
L 106.662962 251.174176 
L 110.310766 251.355601 
L 113.95857 251.714265 
L 117.606374 252.120936 
L 121.254178 252.703853 
L 124.901982 253.220526 
L 128.549785 253.989642 
L 132.197589 254.724631 
L 135.845393 255.50423 
L 139.493197 256.065405 
L 143.141001 256.590287 
L 146.788805 257.225468 
L 150.436609 258.065455 
L 154.084413 258.892878 
L 157.732217 259.898974 
L 161.38002 260.645193 
L 165.027824 261.625798 
L 168.675628 262.32056 
L 172.323432 263.215855 
L 175.971236 263.95821 
L 179.61904 264.857398 
L 183.266844 265.754717 
L 186.914648 266.502872 
L 190.562451 267.732145 
L 194.210255 268.769817 
L 197.858059 269.69841 
L 201.505863 270.832707 
L 205.153667 271.717417 
L 208.801471 272.751502 
L 212.449275 273.629183 
L 216.097079 274.624405 
L 219.744883 275.475216 
L 223.392686 276.339087 
L 227.04049 277.188568 
L 230.688294 278.012819 
L 234.336098 278.82835 
L 237.983902 279.713649 
L 241.631706 280.508194 
L 245.27951 281.302842 
L 248.927314 282.135099 
L 252.575117 283.034378 
L 256.222921 283.821161 
L 259.870725 284.686104 
L 263.518529 285.535376 
L 267.166333 286.332588 
L 270.814137 287.148705 
L 274.461941 287.89707 
L 278.109745 288.602428 
L 281.757549 289.347577 
L 285.405352 290.014321 
L 289.053156 290.641878 
L 292.70096 291.213491 
L 296.348764 291.675501 
L 299.996568 292.181301 
L 303.644372 292.538145 
L 307.292176 292.91555 
L 310.93998 293.235398 
L 314.587783 293.527553 
L 318.235587 293.751938 
L 321.883391 293.909636 
L 325.531195 294.095112 
L 329.178999 294.279122 
L 332.826803 294.396513 
L 336.474607 294.500037 
L 340.122411 294.568215 
L 343.770215 294.666044 
L 347.418018 294.785902 
L 351.065822 294.818678 
L 354.713626 294.889606 
L 358.36143 294.890968 
L 362.009234 294.975781 
L 365.657038 295.004492 
L 369.304842 295.020098 
L 372.952646 295.078969 
L 376.600449 295.114026 
L 380.248253 295.122768 
L 383.896057 295.144379 
L 387.543861 295.15052 
L 391.191665 295.183971 
L 394.839469 295.208634 
L 398.487273 295.213096 
" clip-path="url(#p9b8c31cb84)" style="fill: none; stroke: #ff00ff; stroke-opacity: 0.3; stroke-width: 0.5; stroke-linecap: square"/>
   </g>
   <g id="line2d_39">
    <path d="M 73.832727 248.387511 
L 77.480531 248.639308 
L 81.128335 249.078055 
L 84.776139 249.656488 
L 88.423943 250.160558 
L 92.071747 250.649956 
L 95.719551 251.088775 
L 99.367354 251.607451 
L 103.015158 252.268307 
L 106.662962 253.107189 
L 110.310766 253.948484 
L 113.95857 255.442279 
L 117.606374 256.378235 
L 121.254178 258.178829 
L 124.901982 259.584214 
L 128.549785 260.803808 
L 132.197589 262.22136 
L 135.845393 263.54006 
L 139.493197 265.099852 
L 143.141001 266.755851 
L 146.788805 268.197017 
L 150.436609 269.874816 
L 154.084413 270.999907 
L 157.732217 272.183987 
L 161.38002 273.266713 
L 165.027824 274.30101 
L 168.675628 275.117134 
L 172.323432 276.276267 
L 175.971236 277.138985 
L 179.61904 277.851668 
L 183.266844 278.623655 
L 186.914648 279.550954 
L 190.562451 280.488523 
L 194.210255 281.420113 
L 197.858059 282.360271 
L 201.505863 283.297449 
L 205.153667 284.266812 
L 208.801471 285.174802 
L 212.449275 286.130385 
L 216.097079 287.094285 
L 219.744883 287.889995 
L 223.392686 288.746355 
L 227.04049 289.5357 
L 230.688294 290.184128 
L 234.336098 290.888752 
L 237.983902 291.390825 
L 241.631706 291.93628 
L 245.27951 292.416904 
L 248.927314 292.75463 
L 252.575117 293.099749 
L 256.222921 293.429699 
L 259.870725 293.689721 
L 263.518529 293.878546 
L 267.166333 294.104584 
L 270.814137 294.267987 
L 274.461941 294.381418 
L 278.109745 294.53563 
L 281.757549 294.636356 
L 285.405352 294.767062 
L 289.053156 294.843193 
L 292.70096 294.910766 
L 296.348764 294.951962 
L 299.996568 294.995431 
L 303.644372 295.050215 
L 307.292176 295.054915 
L 310.93998 295.120986 
L 314.587783 295.151288 
L 318.235587 295.143953 
L 321.883391 295.196573 
L 325.531195 295.237999 
L 329.178999 295.247158 
L 332.826803 295.257967 
L 336.474607 295.262233 
L 340.122411 295.292423 
L 343.770215 295.302963 
L 347.418018 295.304147 
L 351.065822 295.316161 
L 354.713626 295.315906 
L 358.36143 295.329172 
L 362.009234 295.334113 
L 365.657038 295.353974 
L 369.304842 295.353821 
L 372.952646 295.358936 
L 376.600449 295.355458 
L 380.248253 295.381795 
L 383.896057 295.3649 
L 387.543861 295.360826 
L 391.191665 295.38405 
L 394.839469 295.394249 
L 398.487273 295.393336 
" clip-path="url(#p9b8c31cb84)" style="fill: none; stroke: #ff00ff; stroke-opacity: 0.3; stroke-width: 0.5; stroke-linecap: square"/>
   </g>
   <g id="line2d_40">
    <path d="M 73.832727 243.03712 
L 77.480531 243.725008 
L 81.128335 245.278805 
L 84.776139 246.929781 
L 88.423943 247.886273 
L 92.071747 248.408231 
L 95.719551 248.611968 
L 99.367354 248.582394 
L 103.015158 248.652221 
L 106.662962 248.788885 
L 110.310766 248.815462 
L 113.95857 248.796067 
L 117.606374 248.854492 
L 121.254178 248.950753 
L 124.901982 249.03316 
L 128.549785 249.18625 
L 132.197589 249.208976 
L 135.845393 249.300404 
L 139.493197 249.391035 
L 143.141001 249.560329 
L 146.788805 249.57911 
L 150.436609 249.784733 
L 154.084413 250.113034 
L 157.732217 250.267376 
L 161.38002 250.552045 
L 165.027824 250.824525 
L 168.675628 251.08904 
L 172.323432 251.770765 
L 175.971236 251.985575 
L 179.61904 252.55963 
L 183.266844 252.774509 
L 186.914648 253.60021 
L 190.562451 254.391171 
L 194.210255 255.015413 
L 197.858059 255.776271 
L 201.505863 256.629938 
L 205.153667 257.541397 
L 208.801471 258.52168 
L 212.449275 259.644236 
L 216.097079 260.946963 
L 219.744883 262.421883 
L 223.392686 263.750035 
L 227.04049 265.414439 
L 230.688294 267.189381 
L 234.336098 268.599689 
L 237.983902 270.66194 
L 241.631706 272.525222 
L 245.27951 274.267234 
L 248.927314 276.080639 
L 252.575117 278.45128 
L 256.222921 280.228566 
L 259.870725 281.993019 
L 263.518529 283.628681 
L 267.166333 285.217741 
L 270.814137 286.878024 
L 274.461941 288.139511 
L 278.109745 289.498728 
L 281.757549 290.459136 
L 285.405352 291.316809 
L 289.053156 292.136162 
L 292.70096 292.733531 
L 296.348764 293.134469 
L 299.996568 293.62345 
L 303.644372 293.953147 
L 307.292176 294.267035 
L 310.93998 294.422537 
L 314.587783 294.660092 
L 318.235587 294.806417 
L 321.883391 294.857008 
L 325.531195 294.965377 
L 329.178999 295.051568 
L 332.826803 295.111536 
L 336.474607 295.140181 
L 340.122411 295.194748 
L 343.770215 295.234384 
L 347.418018 295.260222 
L 351.065822 295.287988 
L 354.713626 295.324861 
L 358.36143 295.336744 
L 362.009234 295.356875 
L 365.657038 295.354963 
L 369.304842 295.379101 
L 372.952646 295.385331 
L 376.600449 295.393025 
L 380.248253 295.400606 
L 383.896057 295.407916 
L 387.543861 295.411877 
L 391.191665 295.422823 
L 394.839469 295.425932 
L 398.487273 295.424611 
" clip-path="url(#p9b8c31cb84)" style="fill: none; stroke: #ff00ff; stroke-opacity: 0.3; stroke-width: 0.5; stroke-linecap: square"/>
   </g>
   <g id="line2d_41">
    <path d="M 73.832727 247.888324 
L 77.480531 247.971527 
L 81.128335 248.163794 
L 84.776139 248.199696 
L 88.423943 248.244945 
L 92.071747 248.345089 
L 95.719551 248.597845 
L 99.367354 248.742527 
L 103.015158 248.87996 
L 106.662962 248.972785 
L 110.310766 249.005421 
L 113.95857 249.119746 
L 117.606374 249.230727 
L 121.254178 249.294721 
L 124.901982 249.384732 
L 128.549785 249.478292 
L 132.197589 249.569395 
L 135.845393 249.815464 
L 139.493197 249.854718 
L 143.141001 250.086169 
L 146.788805 250.30981 
L 150.436609 250.438692 
L 154.084413 250.513397 
L 157.732217 250.752208 
L 161.38002 250.993846 
L 165.027824 251.273975 
L 168.675628 251.426911 
L 172.323432 251.656672 
L 175.971236 251.881072 
L 179.61904 252.061739 
L 183.266844 252.11817 
L 186.914648 252.42394 
L 190.562451 252.893293 
L 194.210255 253.221578 
L 197.858059 253.665021 
L 201.505863 254.086208 
L 205.153667 254.540735 
L 208.801471 255.127451 
L 212.449275 255.694365 
L 216.097079 256.336922 
L 219.744883 257.206747 
L 223.392686 258.054792 
L 227.04049 258.584589 
L 230.688294 259.29816 
L 234.336098 260.326989 
L 237.983902 261.082128 
L 241.631706 261.969844 
L 245.27951 262.844955 
L 248.927314 263.774274 
L 252.575117 264.782357 
L 256.222921 265.509523 
L 259.870725 266.561891 
L 263.518529 267.395088 
L 267.166333 268.228354 
L 270.814137 268.928821 
L 274.461941 269.951452 
L 278.109745 270.851956 
L 281.757549 271.42711 
L 285.405352 272.275228 
L 289.053156 272.966296 
L 292.70096 273.562149 
L 296.348764 274.094582 
L 299.996568 274.886694 
L 303.644372 275.545882 
L 307.292176 276.092225 
L 310.93998 276.642441 
L 314.587783 277.101485 
L 318.235587 277.57785 
L 321.883391 278.138708 
L 325.531195 278.50552 
L 329.178999 279.028586 
L 332.826803 279.424595 
L 336.474607 279.833676 
L 340.122411 280.200295 
L 343.770215 280.584607 
L 347.418018 280.990398 
L 351.065822 281.367226 
L 354.713626 281.690538 
L 358.36143 281.978436 
L 362.009234 282.388662 
L 365.657038 282.68953 
L 369.304842 283.061461 
L 372.952646 283.381789 
L 376.600449 283.728241 
L 380.248253 284.016474 
L 383.896057 284.330032 
L 387.543861 284.613199 
L 391.191665 284.922591 
L 394.839469 285.22164 
L 398.487273 285.514446 
" clip-path="url(#p9b8c31cb84)" style="fill: none; stroke: #ff00ff; stroke-opacity: 0.3; stroke-width: 0.5; stroke-linecap: square"/>
   </g>
   <g id="line2d_42">
    <path d="M 73.832727 247.571774 
L 77.480531 247.638469 
L 81.128335 247.699616 
L 84.776139 247.89726 
L 88.423943 248.060018 
L 92.071747 248.23804 
L 95.719551 248.501921 
L 99.367354 248.709619 
L 103.015158 249.024683 
L 106.662962 249.242884 
L 110.310766 249.548379 
L 113.95857 249.792409 
L 117.606374 250.119436 
L 121.254178 250.40354 
L 124.901982 250.73631 
L 128.549785 250.986409 
L 132.197589 251.33517 
L 135.845393 251.798373 
L 139.493197 252.169141 
L 143.141001 252.462666 
L 146.788805 252.975309 
L 150.436609 253.389247 
L 154.084413 253.952915 
L 157.732217 254.490454 
L 161.38002 254.992732 
L 165.027824 255.619554 
L 168.675628 256.294009 
L 172.323432 256.998976 
L 175.971236 257.721174 
L 179.61904 258.49427 
L 183.266844 259.180135 
L 186.914648 259.916687 
L 190.562451 261.281674 
L 194.210255 262.235122 
L 197.858059 263.723466 
L 201.505863 264.991444 
L 205.153667 266.255592 
L 208.801471 267.907707 
L 212.449275 269.489435 
L 216.097079 271.160451 
L 219.744883 272.707574 
L 223.392686 274.473419 
L 227.04049 276.314478 
L 230.688294 277.721751 
L 234.336098 279.511206 
L 237.983902 281.052192 
L 241.631706 282.638795 
L 245.27951 284.172316 
L 248.927314 285.465097 
L 252.575117 286.931042 
L 256.222921 287.976334 
L 259.870725 289.090557 
L 263.518529 290.102227 
L 267.166333 290.863913 
L 270.814137 291.636592 
L 274.461941 292.228264 
L 278.109745 292.743796 
L 281.757549 293.184329 
L 285.405352 293.50249 
L 289.053156 293.815411 
L 292.70096 294.042532 
L 296.348764 294.205733 
L 299.996568 294.479654 
L 303.644372 294.568002 
L 307.292176 294.703089 
L 310.93998 294.81773 
L 314.587783 294.912802 
L 318.235587 294.952827 
L 321.883391 294.975544 
L 325.531195 295.051372 
L 329.178999 295.094383 
L 332.826803 295.148191 
L 336.474607 295.189694 
L 340.122411 295.226371 
L 343.770215 295.248148 
L 347.418018 295.265989 
L 351.065822 295.277695 
L 354.713626 295.307215 
L 358.36143 295.298136 
L 362.009234 295.326126 
L 365.657038 295.328766 
L 369.304842 295.353778 
L 372.952646 295.364859 
L 376.600449 295.364791 
L 380.248253 295.356474 
L 383.896057 295.370867 
L 387.543861 295.35742 
L 391.191665 295.38657 
L 394.839469 295.38982 
L 398.487273 295.38108 
" clip-path="url(#p9b8c31cb84)" style="fill: none; stroke: #ff00ff; stroke-opacity: 0.3; stroke-width: 0.5; stroke-linecap: square"/>
   </g>
   <g id="line2d_43">
    <path d="M 73.832727 249.189272 
L 77.480531 249.30081 
L 81.128335 249.692992 
L 84.776139 250.000668 
L 88.423943 250.51929 
L 92.071747 251.078601 
L 95.719551 251.671116 
L 99.367354 252.346546 
L 103.015158 252.987267 
L 106.662962 253.874603 
L 110.310766 254.748855 
L 113.95857 255.794846 
L 117.606374 256.87507 
L 121.254178 258.020129 
L 124.901982 258.841618 
L 128.549785 260.238327 
L 132.197589 260.927031 
L 135.845393 262.104363 
L 139.493197 263.1103 
L 143.141001 264.428227 
L 146.788805 265.462781 
L 150.436609 266.557406 
L 154.084413 267.51727 
L 157.732217 268.525563 
L 161.38002 269.453941 
L 165.027824 270.357106 
L 168.675628 271.256633 
L 172.323432 272.172466 
L 175.971236 272.895273 
L 179.61904 273.4394 
L 183.266844 273.90709 
L 186.914648 274.613763 
L 190.562451 275.855087 
L 194.210255 276.474606 
L 197.858059 277.322117 
L 201.505863 278.114593 
L 205.153667 278.674046 
L 208.801471 279.440171 
L 212.449275 280.13701 
L 216.097079 280.842062 
L 219.744883 281.493653 
L 223.392686 282.203421 
L 227.04049 282.970741 
L 230.688294 283.613296 
L 234.336098 284.315198 
L 237.983902 285.027899 
L 241.631706 285.644015 
L 245.27951 286.321933 
L 248.927314 286.984166 
L 252.575117 287.672588 
L 256.222921 288.266535 
L 259.870725 288.896244 
L 263.518529 289.424555 
L 267.166333 290.05055 
L 270.814137 290.585685 
L 274.461941 291.036608 
L 278.109745 291.550704 
L 281.757549 291.922268 
L 285.405352 292.33687 
L 289.053156 292.701416 
L 292.70096 293.03522 
L 296.348764 293.24472 
L 299.996568 293.54813 
L 303.644372 293.782586 
L 307.292176 293.983028 
L 310.93998 294.151748 
L 314.587783 294.300673 
L 318.235587 294.411587 
L 321.883391 294.536695 
L 325.531195 294.642887 
L 329.178999 294.708167 
L 332.826803 294.792531 
L 336.474607 294.841037 
L 340.122411 294.905654 
L 343.770215 294.957778 
L 347.418018 295.00782 
L 351.065822 295.053717 
L 354.713626 295.084258 
L 358.36143 295.11387 
L 362.009234 295.138605 
L 365.657038 295.167004 
L 369.304842 295.187077 
L 372.952646 295.211916 
L 376.600449 295.226073 
L 380.248253 295.247634 
L 383.896057 295.262831 
L 387.543861 295.275196 
L 391.191665 295.290799 
L 394.839469 295.300065 
L 398.487273 295.302277 
" clip-path="url(#p9b8c31cb84)" style="fill: none; stroke: #ff00ff; stroke-opacity: 0.3; stroke-width: 0.5; stroke-linecap: square"/>
   </g>
   <g id="line2d_44">
    <path d="M 73.832727 248.613503 
L 77.480531 248.668809 
L 81.128335 248.675227 
L 84.776139 248.753072 
L 88.423943 248.946687 
L 92.071747 249.008269 
L 95.719551 249.266167 
L 99.367354 249.383545 
L 103.015158 249.635363 
L 106.662962 249.879069 
L 110.310766 250.122287 
L 113.95857 250.246352 
L 117.606374 250.61599 
L 121.254178 250.769329 
L 124.901982 251.283118 
L 128.549785 251.729485 
L 132.197589 251.989836 
L 135.845393 252.578899 
L 139.493197 252.984473 
L 143.141001 253.708864 
L 146.788805 254.229376 
L 150.436609 254.92178 
L 154.084413 255.527744 
L 157.732217 256.121438 
L 161.38002 256.946838 
L 165.027824 257.894663 
L 168.675628 258.529316 
L 172.323432 259.332397 
L 175.971236 260.494393 
L 179.61904 261.49922 
L 183.266844 262.015056 
L 186.914648 263.269301 
L 190.562451 264.829893 
L 194.210255 266.168937 
L 197.858059 268.18512 
L 201.505863 269.905464 
L 205.153667 271.549064 
L 208.801471 273.268714 
L 212.449275 275.133153 
L 216.097079 276.95156 
L 219.744883 278.997897 
L 223.392686 280.918577 
L 227.04049 282.569718 
L 230.688294 284.384212 
L 234.336098 285.612006 
L 237.983902 287.089141 
L 241.631706 288.254476 
L 245.27951 289.401178 
L 248.927314 290.142995 
L 252.575117 291.123339 
L 256.222921 291.800546 
L 259.870725 292.430696 
L 263.518529 292.796848 
L 267.166333 293.313874 
L 270.814137 293.607783 
L 274.461941 293.928236 
L 278.109745 294.080683 
L 281.757549 294.305382 
L 285.405352 294.489266 
L 289.053156 294.631852 
L 292.70096 294.696155 
L 296.348764 294.786855 
L 299.996568 294.857599 
L 303.644372 294.934283 
L 307.292176 295.008322 
L 310.93998 295.048912 
L 314.587783 295.099059 
L 318.235587 295.130122 
L 321.883391 295.151332 
L 325.531195 295.205994 
L 329.178999 295.187701 
L 332.826803 295.250764 
L 336.474607 295.25613 
L 340.122411 295.284238 
L 343.770215 295.277121 
L 347.418018 295.302863 
L 351.065822 295.294312 
L 354.713626 295.324078 
L 358.36143 295.303279 
L 362.009234 295.343524 
L 365.657038 295.336931 
L 369.304842 295.348277 
L 372.952646 295.351496 
L 376.600449 295.372121 
L 380.248253 295.348412 
L 383.896057 295.373082 
L 387.543861 295.332904 
L 391.191665 295.384087 
L 394.839469 295.382146 
L 398.487273 295.395725 
" clip-path="url(#p9b8c31cb84)" style="fill: none; stroke: #ff00ff; stroke-opacity: 0.3; stroke-width: 0.5; stroke-linecap: square"/>
   </g>
   <g id="line2d_45">
    <path d="M 73.832727 246.111151 
L 77.480531 246.716742 
L 81.128335 246.927579 
L 84.776139 247.361131 
L 88.423943 248.127257 
L 92.071747 248.768535 
L 95.719551 249.619838 
L 99.367354 250.537187 
L 103.015158 251.198664 
L 106.662962 252.054634 
L 110.310766 252.851383 
L 113.95857 253.519554 
L 117.606374 254.522449 
L 121.254178 255.051783 
L 124.901982 255.791499 
L 128.549785 256.566574 
L 132.197589 257.343054 
L 135.845393 258.01692 
L 139.493197 258.98998 
L 143.141001 260.199106 
L 146.788805 261.140103 
L 150.436609 262.164003 
L 154.084413 263.198436 
L 157.732217 264.128029 
L 161.38002 265.306598 
L 165.027824 265.826774 
L 168.675628 266.586794 
L 172.323432 267.290616 
L 175.971236 268.444015 
L 179.61904 268.592475 
L 183.266844 269.260336 
L 186.914648 269.736935 
L 190.562451 271.453479 
L 194.210255 272.508221 
L 197.858059 273.884853 
L 201.505863 274.961238 
L 205.153667 275.896016 
L 208.801471 277.12368 
L 212.449275 278.39822 
L 216.097079 279.474885 
L 219.744883 280.423615 
L 223.392686 281.807728 
L 227.04049 283.080672 
L 230.688294 283.683432 
L 234.336098 284.798766 
L 237.983902 285.374542 
L 241.631706 286.195048 
L 245.27951 287.13741 
L 248.927314 287.945569 
L 252.575117 288.700095 
L 256.222921 289.349346 
L 259.870725 289.924986 
L 263.518529 290.580893 
L 267.166333 291.226051 
L 270.814137 291.645735 
L 274.461941 292.012267 
L 278.109745 292.295793 
L 281.757549 292.686257 
L 285.405352 293.002897 
L 289.053156 293.170461 
L 292.70096 293.392404 
L 296.348764 293.63266 
L 299.996568 293.801299 
L 303.644372 294.03312 
L 307.292176 294.186694 
L 310.93998 294.203088 
L 314.587783 294.363156 
L 318.235587 294.396167 
L 321.883391 294.540447 
L 325.531195 294.578863 
L 329.178999 294.638156 
L 332.826803 294.738202 
L 336.474607 294.664413 
L 340.122411 294.835009 
L 343.770215 294.832434 
L 347.418018 294.910806 
L 351.065822 294.921982 
L 354.713626 294.775641 
L 358.36143 294.873086 
L 362.009234 294.922103 
L 365.657038 295.006157 
L 369.304842 294.987139 
L 372.952646 295.082455 
L 376.600449 294.990031 
L 380.248253 295.08938 
L 383.896057 295.061188 
L 387.543861 295.060442 
L 391.191665 295.139483 
L 394.839469 295.096716 
L 398.487273 295.123229 
" clip-path="url(#p9b8c31cb84)" style="fill: none; stroke: #ff00ff; stroke-opacity: 0.3; stroke-width: 0.5; stroke-linecap: square"/>
   </g>
   <g id="line2d_46">
    <path d="M 73.832727 249.892818 
L 77.480531 249.872655 
L 81.128335 250.11121 
L 84.776139 250.498998 
L 88.423943 250.633127 
L 92.071747 251.13062 
L 95.719551 251.548754 
L 99.367354 252.114701 
L 103.015158 252.884511 
L 106.662962 253.686751 
L 110.310766 254.385642 
L 113.95857 255.139396 
L 117.606374 256.112697 
L 121.254178 256.970649 
L 124.901982 258.029694 
L 128.549785 259.162742 
L 132.197589 260.202189 
L 135.845393 261.51565 
L 139.493197 262.563945 
L 143.141001 263.878102 
L 146.788805 265.195442 
L 150.436609 266.476231 
L 154.084413 267.748402 
L 157.732217 269.234736 
L 161.38002 270.601471 
L 165.027824 272.025511 
L 168.675628 273.408423 
L 172.323432 274.690416 
L 175.971236 275.989028 
L 179.61904 277.284417 
L 183.266844 278.245993 
L 186.914648 279.638942 
L 190.562451 280.79514 
L 194.210255 282.346029 
L 197.858059 283.686987 
L 201.505863 285.20572 
L 205.153667 286.157779 
L 208.801471 287.388487 
L 212.449275 288.401944 
L 216.097079 289.339714 
L 219.744883 290.152376 
L 223.392686 290.938133 
L 227.04049 291.679169 
L 230.688294 292.19627 
L 234.336098 292.640974 
L 237.983902 293.053513 
L 241.631706 293.418306 
L 245.27951 293.684764 
L 248.927314 293.919127 
L 252.575117 294.159602 
L 256.222921 294.349188 
L 259.870725 294.4937 
L 263.518529 294.606921 
L 267.166333 294.694758 
L 270.814137 294.784914 
L 274.461941 294.852601 
L 278.109745 294.917868 
L 281.757549 294.969442 
L 285.405352 295.041492 
L 289.053156 295.085152 
L 292.70096 295.121 
L 296.348764 295.102112 
L 299.996568 295.164546 
L 303.644372 295.212422 
L 307.292176 295.212828 
L 310.93998 295.246529 
L 314.587783 295.261826 
L 318.235587 295.251225 
L 321.883391 295.301914 
L 325.531195 295.304826 
L 329.178999 295.305471 
L 332.826803 295.334154 
L 336.474607 295.312545 
L 340.122411 295.331929 
L 343.770215 295.334449 
L 347.418018 295.342736 
L 351.065822 295.335325 
L 354.713626 295.367936 
L 358.36143 295.351646 
L 362.009234 295.373184 
L 365.657038 295.363517 
L 369.304842 295.388353 
L 372.952646 295.389826 
L 376.600449 295.383396 
L 380.248253 295.38999 
L 383.896057 295.399363 
L 387.543861 295.387067 
L 391.191665 295.408751 
L 394.839469 295.40977 
L 398.487273 295.400585 
" clip-path="url(#p9b8c31cb84)" style="fill: none; stroke: #ff00ff; stroke-opacity: 0.3; stroke-width: 0.5; stroke-linecap: square"/>
   </g>
   <g id="line2d_47">
    <path d="M 73.832727 247.120488 
L 77.480531 247.248159 
L 81.128335 247.281117 
L 84.776139 247.342248 
L 88.423943 247.450934 
L 92.071747 247.691732 
L 95.719551 247.800341 
L 99.367354 247.996621 
L 103.015158 248.205082 
L 106.662962 248.48192 
L 110.310766 248.611184 
L 113.95857 248.821433 
L 117.606374 248.952224 
L 121.254178 249.150092 
L 124.901982 249.303231 
L 128.549785 249.528496 
L 132.197589 249.609131 
L 135.845393 249.763891 
L 139.493197 249.99938 
L 143.141001 250.03772 
L 146.788805 250.18698 
L 150.436609 250.372955 
L 154.084413 250.471881 
L 157.732217 250.712187 
L 161.38002 250.824854 
L 165.027824 251.00444 
L 168.675628 251.123492 
L 172.323432 251.236508 
L 175.971236 251.407503 
L 179.61904 251.535715 
L 183.266844 251.703501 
L 186.914648 251.705093 
L 190.562451 252.073896 
L 194.210255 252.421503 
L 197.858059 252.549118 
L 201.505863 252.835863 
L 205.153667 253.136897 
L 208.801471 253.36211 
L 212.449275 253.652031 
L 216.097079 254.125275 
L 219.744883 254.569708 
L 223.392686 254.815656 
L 227.04049 255.509799 
L 230.688294 255.968871 
L 234.336098 256.457765 
L 237.983902 256.98647 
L 241.631706 257.515832 
L 245.27951 258.142829 
L 248.927314 258.820029 
L 252.575117 259.480426 
L 256.222921 260.256248 
L 259.870725 261.190953 
L 263.518529 261.914318 
L 267.166333 263.073884 
L 270.814137 263.966792 
L 274.461941 265.303667 
L 278.109745 266.15221 
L 281.757549 267.282407 
L 285.405352 268.476656 
L 289.053156 270.078911 
L 292.70096 270.950135 
L 296.348764 272.384358 
L 299.996568 273.113018 
L 303.644372 274.953084 
L 307.292176 276.37908 
L 310.93998 278.080435 
L 314.587783 278.882757 
L 318.235587 280.598368 
L 321.883391 282.032594 
L 325.531195 282.886531 
L 329.178999 283.759024 
L 332.826803 285.003153 
L 336.474607 286.241171 
L 340.122411 286.83727 
L 343.770215 287.861103 
L 347.418018 288.602107 
L 351.065822 289.135087 
L 354.713626 290.250459 
L 358.36143 290.329861 
L 362.009234 290.88009 
L 365.657038 291.423485 
L 369.304842 291.87614 
L 372.952646 292.103811 
L 376.600449 292.621797 
L 380.248253 292.70528 
L 383.896057 293.029566 
L 387.543861 292.683032 
L 391.191665 293.292171 
L 394.839469 293.503035 
L 398.487273 293.789144 
" clip-path="url(#p9b8c31cb84)" style="fill: none; stroke: #ff00ff; stroke-opacity: 0.3; stroke-width: 0.5; stroke-linecap: square"/>
   </g>
   <g id="line2d_48">
    <path d="M 73.832727 248.989779 
L 77.480531 249.053794 
L 81.128335 249.066199 
L 84.776139 249.101996 
L 88.423943 249.242068 
L 92.071747 249.434546 
L 95.719551 249.468344 
L 99.367354 249.793368 
L 103.015158 249.859552 
L 106.662962 250.047582 
L 110.310766 250.177889 
L 113.95857 250.326163 
L 117.606374 250.557061 
L 121.254178 250.815987 
L 124.901982 250.989606 
L 128.549785 251.270896 
L 132.197589 251.495332 
L 135.845393 251.712693 
L 139.493197 251.951127 
L 143.141001 252.22636 
L 146.788805 252.469965 
L 150.436609 252.792673 
L 154.084413 253.043166 
L 157.732217 253.31539 
L 161.38002 253.684379 
L 165.027824 254.089669 
L 168.675628 253.977445 
L 172.323432 254.642106 
L 175.971236 254.964868 
L 179.61904 255.257425 
L 183.266844 255.382757 
L 186.914648 255.988575 
L 190.562451 256.484838 
L 194.210255 257.113662 
L 197.858059 257.958527 
L 201.505863 258.650736 
L 205.153667 259.603333 
L 208.801471 260.171912 
L 212.449275 261.037838 
L 216.097079 262.513028 
L 219.744883 263.578682 
L 223.392686 264.613434 
L 227.04049 265.300535 
L 230.688294 266.710509 
L 234.336098 268.309711 
L 237.983902 269.547631 
L 241.631706 270.598638 
L 245.27951 271.905035 
L 248.927314 273.527625 
L 252.575117 274.907379 
L 256.222921 276.242663 
L 259.870725 277.717937 
L 263.518529 279.196261 
L 267.166333 280.883109 
L 270.814137 282.106237 
L 274.461941 283.462674 
L 278.109745 284.688505 
L 281.757549 285.97442 
L 285.405352 287.082816 
L 289.053156 287.990721 
L 292.70096 288.955738 
L 296.348764 289.618097 
L 299.996568 290.496897 
L 303.644372 291.157081 
L 307.292176 291.704616 
L 310.93998 292.21684 
L 314.587783 292.540658 
L 318.235587 292.994353 
L 321.883391 293.290665 
L 325.531195 293.523205 
L 329.178999 293.864525 
L 332.826803 294.020672 
L 336.474607 294.083555 
L 340.122411 294.3039 
L 343.770215 294.394316 
L 347.418018 294.55026 
L 351.065822 294.578664 
L 354.713626 294.677583 
L 358.36143 294.716178 
L 362.009234 294.802547 
L 365.657038 294.839601 
L 369.304842 294.920005 
L 372.952646 294.98801 
L 376.600449 294.985767 
L 380.248253 295.033014 
L 383.896057 295.070201 
L 387.543861 295.075412 
L 391.191665 295.113814 
L 394.839469 295.133878 
L 398.487273 295.133144 
" clip-path="url(#p9b8c31cb84)" style="fill: none; stroke: #ff00ff; stroke-opacity: 0.3; stroke-width: 0.5; stroke-linecap: square"/>
   </g>
   <g id="line2d_49">
    <path d="M 73.832727 248.767301 
L 77.480531 248.770895 
L 81.128335 249.06589 
L 84.776139 249.153881 
L 88.423943 249.498313 
L 92.071747 249.88127 
L 95.719551 250.706622 
L 99.367354 250.708235 
L 103.015158 251.479134 
L 106.662962 251.65348 
L 110.310766 252.069533 
L 113.95857 252.506907 
L 117.606374 253.137064 
L 121.254178 253.574036 
L 124.901982 254.065741 
L 128.549785 254.294726 
L 132.197589 254.783353 
L 135.845393 255.227806 
L 139.493197 255.483576 
L 143.141001 256.11056 
L 146.788805 256.561427 
L 150.436609 256.994102 
L 154.084413 257.226723 
L 157.732217 257.769022 
L 161.38002 257.921857 
L 165.027824 258.629217 
L 168.675628 258.792876 
L 172.323432 259.296429 
L 175.971236 259.972773 
L 179.61904 259.884798 
L 183.266844 259.787834 
L 186.914648 260.359593 
L 190.562451 260.848037 
L 194.210255 262.247931 
L 197.858059 262.985549 
L 201.505863 263.481747 
L 205.153667 264.116639 
L 208.801471 265.616099 
L 212.449275 266.052596 
L 216.097079 267.153496 
L 219.744883 267.945011 
L 223.392686 269.28963 
L 227.04049 269.656143 
L 230.688294 271.012468 
L 234.336098 271.486321 
L 237.983902 272.239204 
L 241.631706 272.922292 
L 245.27951 273.919561 
L 248.927314 274.403736 
L 252.575117 275.341284 
L 256.222921 275.96773 
L 259.870725 276.477947 
L 263.518529 277.385155 
L 267.166333 278.095872 
L 270.814137 278.6807 
L 274.461941 279.469203 
L 278.109745 279.625865 
L 281.757549 280.153801 
L 285.405352 280.951712 
L 289.053156 281.556838 
L 292.70096 281.955237 
L 296.348764 282.793126 
L 299.996568 283.199786 
L 303.644372 283.817808 
L 307.292176 284.535089 
L 310.93998 284.768421 
L 314.587783 285.401735 
L 318.235587 285.864542 
L 321.883391 286.207466 
L 325.531195 286.498805 
L 329.178999 286.845974 
L 332.826803 287.423127 
L 336.474607 287.837293 
L 340.122411 288.209619 
L 343.770215 288.759365 
L 347.418018 289.212016 
L 351.065822 289.350686 
L 354.713626 289.81508 
L 358.36143 290.001101 
L 362.009234 290.565433 
L 365.657038 290.802075 
L 369.304842 291.128949 
L 372.952646 291.14395 
L 376.600449 291.362913 
L 380.248253 291.768137 
L 383.896057 291.856313 
L 387.543861 292.184179 
L 391.191665 292.562341 
L 394.839469 292.489809 
L 398.487273 292.676761 
" clip-path="url(#p9b8c31cb84)" style="fill: none; stroke: #ff00ff; stroke-opacity: 0.3; stroke-width: 0.5; stroke-linecap: square"/>
   </g>
   <g id="line2d_50">
    <path d="M 73.832727 246.648779 
L 77.480531 246.973657 
L 81.128335 247.215218 
L 84.776139 247.608082 
L 88.423943 247.808651 
L 92.071747 248.282151 
L 95.719551 248.696129 
L 99.367354 249.177367 
L 103.015158 249.831639 
L 106.662962 250.548158 
L 110.310766 251.228746 
L 113.95857 251.907474 
L 117.606374 252.667435 
L 121.254178 253.448614 
L 124.901982 254.173822 
L 128.549785 255.070881 
L 132.197589 256.263273 
L 135.845393 257.333354 
L 139.493197 258.318608 
L 143.141001 259.695906 
L 146.788805 261.053785 
L 150.436609 262.41146 
L 154.084413 263.640605 
L 157.732217 265.088888 
L 161.38002 266.486743 
L 165.027824 267.88399 
L 168.675628 269.693384 
L 172.323432 271.09418 
L 175.971236 272.419561 
L 179.61904 273.821072 
L 183.266844 275.468537 
L 186.914648 276.426737 
L 190.562451 278.423783 
L 194.210255 279.980181 
L 197.858059 281.601176 
L 201.505863 282.988502 
L 205.153667 284.331785 
L 208.801471 285.771635 
L 212.449275 286.979205 
L 216.097079 288.316044 
L 219.744883 289.384856 
L 223.392686 290.316124 
L 227.04049 291.201192 
L 230.688294 291.850611 
L 234.336098 292.529212 
L 237.983902 292.989625 
L 241.631706 293.50966 
L 245.27951 293.777396 
L 248.927314 294.019988 
L 252.575117 294.343758 
L 256.222921 294.526656 
L 259.870725 294.678454 
L 263.518529 294.798092 
L 267.166333 294.875698 
L 270.814137 295.00356 
L 274.461941 295.042303 
L 278.109745 295.120736 
L 281.757549 295.149217 
L 285.405352 295.196483 
L 289.053156 295.22903 
L 292.70096 295.264228 
L 296.348764 295.273587 
L 299.996568 295.291385 
L 303.644372 295.316148 
L 307.292176 295.341841 
L 310.93998 295.34121 
L 314.587783 295.359297 
L 318.235587 295.373373 
L 321.883391 295.378636 
L 325.531195 295.38671 
L 329.178999 295.395719 
L 332.826803 295.403735 
L 336.474607 295.408464 
L 340.122411 295.411076 
L 343.770215 295.418112 
L 347.418018 295.419716 
L 351.065822 295.424569 
L 354.713626 295.435161 
L 358.36143 295.431065 
L 362.009234 295.430021 
L 365.657038 295.424961 
L 369.304842 295.441035 
L 372.952646 295.447213 
L 376.600449 295.449527 
L 380.248253 295.442152 
L 383.896057 295.446955 
L 387.543861 295.446337 
L 391.191665 295.44996 
L 394.839469 295.448514 
L 398.487273 295.443037 
" clip-path="url(#p9b8c31cb84)" style="fill: none; stroke: #ff00ff; stroke-opacity: 0.3; stroke-width: 0.5; stroke-linecap: square"/>
   </g>
   <g id="line2d_51">
    <path d="M 73.832727 248.093284 
L 77.480531 248.178798 
L 81.128335 248.287545 
L 84.776139 248.448061 
L 88.423943 248.692433 
L 92.071747 248.930436 
L 95.719551 249.355035 
L 99.367354 249.768518 
L 103.015158 250.356858 
L 106.662962 250.770015 
L 110.310766 251.156917 
L 113.95857 251.676815 
L 117.606374 252.220134 
L 121.254178 252.382331 
L 124.901982 253.003791 
L 128.549785 253.734401 
L 132.197589 253.975487 
L 135.845393 254.778361 
L 139.493197 255.313348 
L 143.141001 256.329338 
L 146.788805 257.239079 
L 150.436609 258.042457 
L 154.084413 258.899775 
L 157.732217 259.834581 
L 161.38002 260.887315 
L 165.027824 262.138255 
L 168.675628 262.982586 
L 172.323432 264.246088 
L 175.971236 265.503491 
L 179.61904 266.309306 
L 183.266844 267.287734 
L 186.914648 268.79563 
L 190.562451 270.30589 
L 194.210255 272.384484 
L 197.858059 274.017791 
L 201.505863 275.793863 
L 205.153667 277.271123 
L 208.801471 278.92371 
L 212.449275 280.696556 
L 216.097079 282.273375 
L 219.744883 283.740361 
L 223.392686 285.261873 
L 227.04049 286.54944 
L 230.688294 287.848063 
L 234.336098 288.784967 
L 237.983902 289.860794 
L 241.631706 290.711564 
L 245.27951 291.402154 
L 248.927314 292.033489 
L 252.575117 292.514381 
L 256.222921 293.103881 
L 259.870725 293.351351 
L 263.518529 293.748223 
L 267.166333 294.040592 
L 270.814137 294.256459 
L 274.461941 294.379069 
L 278.109745 294.5637 
L 281.757549 294.698457 
L 285.405352 294.769931 
L 289.053156 294.892296 
L 292.70096 294.94776 
L 296.348764 294.995058 
L 299.996568 295.021772 
L 303.644372 295.120373 
L 307.292176 295.156015 
L 310.93998 295.185455 
L 314.587783 295.210696 
L 318.235587 295.229858 
L 321.883391 295.252666 
L 325.531195 295.282396 
L 329.178999 295.290769 
L 332.826803 295.30432 
L 336.474607 295.318878 
L 340.122411 295.344986 
L 343.770215 295.329369 
L 347.418018 295.361611 
L 351.065822 295.353557 
L 354.713626 295.35372 
L 358.36143 295.354755 
L 362.009234 295.390091 
L 365.657038 295.38841 
L 369.304842 295.388711 
L 372.952646 295.395852 
L 376.600449 295.392316 
L 380.248253 295.407946 
L 383.896057 295.399077 
L 387.543861 295.388789 
L 391.191665 295.416784 
L 394.839469 295.411897 
L 398.487273 295.418848 
" clip-path="url(#p9b8c31cb84)" style="fill: none; stroke: #ff00ff; stroke-opacity: 0.3; stroke-width: 0.5; stroke-linecap: square"/>
   </g>
   <g id="line2d_52">
    <path d="M 73.832727 248.67147 
L 77.480531 248.651055 
L 81.128335 249.169056 
L 84.776139 249.306086 
L 88.423943 249.431162 
L 92.071747 249.856038 
L 95.719551 250.344376 
L 99.367354 250.622814 
L 103.015158 251.426009 
L 106.662962 251.863265 
L 110.310766 252.418737 
L 113.95857 253.018726 
L 117.606374 253.818919 
L 121.254178 254.042877 
L 124.901982 255.132727 
L 128.549785 255.807137 
L 132.197589 256.487685 
L 135.845393 256.974926 
L 139.493197 257.762255 
L 143.141001 258.639448 
L 146.788805 259.403869 
L 150.436609 259.911667 
L 154.084413 260.766089 
L 157.732217 261.503302 
L 161.38002 262.430644 
L 165.027824 262.939799 
L 168.675628 263.683606 
L 172.323432 264.54746 
L 175.971236 264.9992 
L 179.61904 265.659337 
L 183.266844 265.998693 
L 186.914648 266.650258 
L 190.562451 267.693161 
L 194.210255 268.690831 
L 197.858059 269.716983 
L 201.505863 271.219607 
L 205.153667 271.641465 
L 208.801471 272.857315 
L 212.449275 273.527891 
L 216.097079 274.568691 
L 219.744883 275.361406 
L 223.392686 276.116407 
L 227.04049 277.041912 
L 230.688294 277.682182 
L 234.336098 278.253767 
L 237.983902 278.919338 
L 241.631706 279.556377 
L 245.27951 280.249318 
L 248.927314 280.730904 
L 252.575117 281.309564 
L 256.222921 281.994308 
L 259.870725 282.636554 
L 263.518529 283.138312 
L 267.166333 283.65525 
L 270.814137 284.10054 
L 274.461941 284.73074 
L 278.109745 285.241806 
L 281.757549 285.620177 
L 285.405352 286.304796 
L 289.053156 286.717823 
L 292.70096 287.241234 
L 296.348764 287.642645 
L 299.996568 288.085427 
L 303.644372 288.59598 
L 307.292176 288.989066 
L 310.93998 289.391518 
L 314.587783 289.779932 
L 318.235587 290.129525 
L 321.883391 290.507172 
L 325.531195 290.878506 
L 329.178999 291.184124 
L 332.826803 291.559961 
L 336.474607 291.748836 
L 340.122411 292.041349 
L 343.770215 292.203303 
L 347.418018 292.521448 
L 351.065822 292.659669 
L 354.713626 292.919361 
L 358.36143 293.019897 
L 362.009234 293.207661 
L 365.657038 293.308768 
L 369.304842 293.438723 
L 372.952646 293.509358 
L 376.600449 293.784893 
L 380.248253 293.844465 
L 383.896057 294.00816 
L 387.543861 293.879013 
L 391.191665 294.064823 
L 394.839469 294.1981 
L 398.487273 294.225293 
" clip-path="url(#p9b8c31cb84)" style="fill: none; stroke: #ff00ff; stroke-opacity: 0.3; stroke-width: 0.5; stroke-linecap: square"/>
   </g>
   <g id="line2d_53">
    <path d="M 73.832727 247.675249 
L 77.480531 247.710981 
L 81.128335 247.840825 
L 84.776139 247.948143 
L 88.423943 248.145934 
L 92.071747 248.289645 
L 95.719551 248.434023 
L 99.367354 248.668708 
L 103.015158 248.833602 
L 106.662962 249.008017 
L 110.310766 249.278576 
L 113.95857 249.511383 
L 117.606374 249.650501 
L 121.254178 249.92959 
L 124.901982 250.215417 
L 128.549785 250.379182 
L 132.197589 250.710379 
L 135.845393 251.070176 
L 139.493197 251.485519 
L 143.141001 251.756837 
L 146.788805 252.212396 
L 150.436609 252.606775 
L 154.084413 253.235843 
L 157.732217 253.709156 
L 161.38002 254.208908 
L 165.027824 254.934363 
L 168.675628 255.589744 
L 172.323432 256.394275 
L 175.971236 257.059973 
L 179.61904 258.144011 
L 183.266844 258.863572 
L 186.914648 259.989447 
L 190.562451 261.362647 
L 194.210255 262.784923 
L 197.858059 264.289115 
L 201.505863 266.020909 
L 205.153667 267.790152 
L 208.801471 269.83552 
L 212.449275 271.721737 
L 216.097079 273.692795 
L 219.744883 275.957673 
L 223.392686 278.026727 
L 227.04049 279.986341 
L 230.688294 281.936183 
L 234.336098 283.829393 
L 237.983902 285.376652 
L 241.631706 286.833324 
L 245.27951 288.325357 
L 248.927314 289.50971 
L 252.575117 290.518116 
L 256.222921 291.454865 
L 259.870725 292.19202 
L 263.518529 292.750702 
L 267.166333 293.278499 
L 270.814137 293.701881 
L 274.461941 293.986981 
L 278.109745 294.278302 
L 281.757549 294.442139 
L 285.405352 294.659771 
L 289.053156 294.760052 
L 292.70096 294.880463 
L 296.348764 294.955887 
L 299.996568 295.0359 
L 303.644372 295.098583 
L 307.292176 295.179453 
L 310.93998 295.209425 
L 314.587783 295.233432 
L 318.235587 295.273321 
L 321.883391 295.294082 
L 325.531195 295.312996 
L 329.178999 295.334118 
L 332.826803 295.362098 
L 336.474607 295.348759 
L 340.122411 295.365131 
L 343.770215 295.384 
L 347.418018 295.403528 
L 351.065822 295.401442 
L 354.713626 295.413017 
L 358.36143 295.410395 
L 362.009234 295.426233 
L 365.657038 295.424472 
L 369.304842 295.436802 
L 372.952646 295.436678 
L 376.600449 295.428909 
L 380.248253 295.437318 
L 383.896057 295.440542 
L 387.543861 295.441713 
L 391.191665 295.447426 
L 394.839469 295.445815 
L 398.487273 295.452744 
" clip-path="url(#p9b8c31cb84)" style="fill: none; stroke: #ff00ff; stroke-opacity: 0.3; stroke-width: 0.5; stroke-linecap: square"/>
   </g>
   <g id="line2d_54">
    <path d="M 73.832727 247.996982 
L 77.480531 248.289589 
L 81.128335 248.331718 
L 84.776139 248.573563 
L 88.423943 248.603223 
L 92.071747 248.989775 
L 95.719551 249.336631 
L 99.367354 249.772917 
L 103.015158 250.400929 
L 106.662962 250.68442 
L 110.310766 251.423974 
L 113.95857 252.093392 
L 117.606374 253.064674 
L 121.254178 253.717402 
L 124.901982 254.773007 
L 128.549785 255.651033 
L 132.197589 257.062641 
L 135.845393 257.826469 
L 139.493197 258.942022 
L 143.141001 259.878047 
L 146.788805 261.181253 
L 150.436609 262.56793 
L 154.084413 263.852239 
L 157.732217 265.110456 
L 161.38002 266.464969 
L 165.027824 267.940192 
L 168.675628 269.74043 
L 172.323432 271.155611 
L 175.971236 272.029033 
L 179.61904 273.514294 
L 183.266844 275.326078 
L 186.914648 276.51665 
L 190.562451 279.317031 
L 194.210255 280.923829 
L 197.858059 282.551721 
L 201.505863 284.417853 
L 205.153667 285.803258 
L 208.801471 287.328837 
L 212.449275 288.578811 
L 216.097079 289.72362 
L 219.744883 290.71637 
L 223.392686 291.421211 
L 227.04049 292.125108 
L 230.688294 292.623739 
L 234.336098 292.909264 
L 237.983902 293.311931 
L 241.631706 293.710435 
L 245.27951 294.090585 
L 248.927314 294.118331 
L 252.575117 294.352457 
L 256.222921 294.589343 
L 259.870725 294.639801 
L 263.518529 294.748806 
L 267.166333 294.767639 
L 270.814137 294.971466 
L 274.461941 294.98514 
L 278.109745 295.039558 
L 281.757549 295.088809 
L 285.405352 295.113868 
L 289.053156 295.113062 
L 292.70096 295.165659 
L 296.348764 295.171781 
L 299.996568 295.219097 
L 303.644372 295.249945 
L 307.292176 295.208659 
L 310.93998 295.262993 
L 314.587783 295.287994 
L 318.235587 295.282568 
L 321.883391 295.273242 
L 325.531195 295.286935 
L 329.178999 295.32044 
L 332.826803 295.331269 
L 336.474607 295.29437 
L 340.122411 295.344737 
L 343.770215 295.329236 
L 347.418018 295.361708 
L 351.065822 295.369334 
L 354.713626 295.354815 
L 358.36143 295.374764 
L 362.009234 295.361276 
L 365.657038 295.348768 
L 369.304842 295.378905 
L 372.952646 295.389466 
L 376.600449 295.384374 
L 380.248253 295.392782 
L 383.896057 295.388206 
L 387.543861 295.381514 
L 391.191665 295.384196 
L 394.839469 295.373809 
L 398.487273 295.377311 
" clip-path="url(#p9b8c31cb84)" style="fill: none; stroke: #ff00ff; stroke-opacity: 0.3; stroke-width: 0.5; stroke-linecap: square"/>
   </g>
   <g id="line2d_55">
    <path d="M 73.832727 248.916402 
L 77.480531 249.367282 
L 81.128335 250.053849 
L 84.776139 250.624488 
L 88.423943 251.406894 
L 92.071747 252.210073 
L 95.719551 253.28749 
L 99.367354 254.170475 
L 103.015158 255.177326 
L 106.662962 256.088334 
L 110.310766 257.358367 
L 113.95857 258.453839 
L 117.606374 260.059652 
L 121.254178 261.468408 
L 124.901982 263.157667 
L 128.549785 265.257332 
L 132.197589 267.248773 
L 135.845393 269.483905 
L 139.493197 271.477594 
L 143.141001 273.595238 
L 146.788805 276.035491 
L 150.436609 278.257163 
L 154.084413 280.11829 
L 157.732217 281.930563 
L 161.38002 283.5482 
L 165.027824 285.210949 
L 168.675628 286.583633 
L 172.323432 287.719139 
L 175.971236 289.004909 
L 179.61904 289.721616 
L 183.266844 290.379886 
L 186.914648 291.010574 
L 190.562451 292.026587 
L 194.210255 292.563925 
L 197.858059 293.092262 
L 201.505863 293.525289 
L 205.153667 293.778794 
L 208.801471 294.134102 
L 212.449275 294.337305 
L 216.097079 294.539452 
L 219.744883 294.71904 
L 223.392686 294.870245 
L 227.04049 294.985641 
L 230.688294 295.048173 
L 234.336098 295.130003 
L 237.983902 295.174102 
L 241.631706 295.223322 
L 245.27951 295.268311 
L 248.927314 295.277077 
L 252.575117 295.321801 
L 256.222921 295.320727 
L 259.870725 295.360982 
L 263.518529 295.373006 
L 267.166333 295.38586 
L 270.814137 295.405406 
L 274.461941 295.392197 
L 278.109745 295.409911 
L 281.757549 295.410891 
L 285.405352 295.421444 
L 289.053156 295.422272 
L 292.70096 295.429706 
L 296.348764 295.429813 
L 299.996568 295.431838 
L 303.644372 295.414087 
L 307.292176 295.449762 
L 310.93998 295.449575 
L 314.587783 295.449068 
L 318.235587 295.456649 
L 321.883391 295.455029 
L 325.531195 295.463492 
L 329.178999 295.460746 
L 332.826803 295.470561 
L 336.474607 295.468077 
L 340.122411 295.465731 
L 343.770215 295.467977 
L 347.418018 295.481784 
L 351.065822 295.471771 
L 354.713626 295.479518 
L 358.36143 295.472652 
L 362.009234 295.481614 
L 365.657038 295.470584 
L 369.304842 295.47796 
L 372.952646 295.474013 
L 376.600449 295.488 
L 380.248253 295.487543 
L 383.896057 295.481199 
L 387.543861 295.47821 
L 391.191665 295.485063 
L 394.839469 295.48655 
L 398.487273 295.476441 
" clip-path="url(#p9b8c31cb84)" style="fill: none; stroke: #ff00ff; stroke-opacity: 0.3; stroke-width: 0.5; stroke-linecap: square"/>
   </g>
   <g id="line2d_56">
    <path d="M 73.832727 248.594319 
L 77.480531 248.552474 
L 81.128335 248.665913 
L 84.776139 248.802488 
L 88.423943 248.817103 
L 92.071747 249.084042 
L 95.719551 249.219167 
L 99.367354 249.334215 
L 103.015158 249.465335 
L 106.662962 249.631618 
L 110.310766 249.801731 
L 113.95857 250.097689 
L 117.606374 250.354762 
L 121.254178 250.596075 
L 124.901982 250.998749 
L 128.549785 251.385825 
L 132.197589 252.033484 
L 135.845393 252.491757 
L 139.493197 253.496402 
L 143.141001 254.096095 
L 146.788805 254.990307 
L 150.436609 255.786739 
L 154.084413 256.763223 
L 157.732217 257.63155 
L 161.38002 258.139697 
L 165.027824 259.26625 
L 168.675628 259.94646 
L 172.323432 261.007569 
L 175.971236 262.132707 
L 179.61904 263.004739 
L 183.266844 263.872306 
L 186.914648 264.960972 
L 190.562451 266.248374 
L 194.210255 268.075605 
L 197.858059 269.537582 
L 201.505863 271.135318 
L 205.153667 272.577973 
L 208.801471 274.059528 
L 212.449275 275.320355 
L 216.097079 276.788977 
L 219.744883 278.110167 
L 223.392686 279.424012 
L 227.04049 280.76658 
L 230.688294 282.001844 
L 234.336098 283.358617 
L 237.983902 284.519093 
L 241.631706 285.667685 
L 245.27951 286.905175 
L 248.927314 287.899015 
L 252.575117 288.959526 
L 256.222921 289.834733 
L 259.870725 290.663203 
L 263.518529 291.317586 
L 267.166333 291.847961 
L 270.814137 292.372249 
L 274.461941 292.854429 
L 278.109745 293.261963 
L 281.757549 293.563291 
L 285.405352 293.835949 
L 289.053156 294.080924 
L 292.70096 294.286878 
L 296.348764 294.39911 
L 299.996568 294.555187 
L 303.644372 294.704869 
L 307.292176 294.80684 
L 310.93998 294.871343 
L 314.587783 294.965951 
L 318.235587 295.004562 
L 321.883391 295.070937 
L 325.531195 295.117162 
L 329.178999 295.152992 
L 332.826803 295.185138 
L 336.474607 295.20711 
L 340.122411 295.23863 
L 343.770215 295.266832 
L 347.418018 295.287891 
L 351.065822 295.284465 
L 354.713626 295.304944 
L 358.36143 295.301468 
L 362.009234 295.328767 
L 365.657038 295.342238 
L 369.304842 295.351476 
L 372.952646 295.366976 
L 376.600449 295.367241 
L 380.248253 295.382204 
L 383.896057 295.375803 
L 387.543861 295.381289 
L 391.191665 295.392353 
L 394.839469 295.400346 
L 398.487273 295.400374 
" clip-path="url(#p9b8c31cb84)" style="fill: none; stroke: #ff00ff; stroke-opacity: 0.3; stroke-width: 0.5; stroke-linecap: square"/>
   </g>
   <g id="line2d_57">
    <path d="M 73.832727 247.885814 
L 77.480531 247.967774 
L 81.128335 247.939012 
L 84.776139 247.891054 
L 88.423943 247.971738 
L 92.071747 248.043494 
L 95.719551 248.058137 
L 99.367354 248.065347 
L 103.015158 248.144199 
L 106.662962 248.194111 
L 110.310766 248.236253 
L 113.95857 248.320731 
L 117.606374 248.339346 
L 121.254178 248.381443 
L 124.901982 248.459576 
L 128.549785 248.488667 
L 132.197589 248.608357 
L 135.845393 248.607191 
L 139.493197 248.619259 
L 143.141001 248.724615 
L 146.788805 248.78471 
L 150.436609 248.734972 
L 154.084413 248.826595 
L 157.732217 248.877323 
L 161.38002 248.891897 
L 165.027824 248.958235 
L 168.675628 248.980604 
L 172.323432 248.952516 
L 175.971236 249.009187 
L 179.61904 249.077893 
L 183.266844 249.097077 
L 186.914648 249.114685 
L 190.562451 249.198367 
L 194.210255 249.207717 
L 197.858059 249.261016 
L 201.505863 249.370219 
L 205.153667 249.303105 
L 208.801471 249.454684 
L 212.449275 249.387875 
L 216.097079 249.494702 
L 219.744883 249.527578 
L 223.392686 249.519861 
L 227.04049 249.658576 
L 230.688294 249.760695 
L 234.336098 249.703496 
L 237.983902 249.818868 
L 241.631706 249.87653 
L 245.27951 249.893374 
L 248.927314 249.986967 
L 252.575117 250.082412 
L 256.222921 250.034941 
L 259.870725 250.13927 
L 263.518529 250.256295 
L 267.166333 250.35477 
L 270.814137 250.460654 
L 274.461941 250.489014 
L 278.109745 250.522816 
L 281.757549 250.613618 
L 285.405352 250.883283 
L 289.053156 250.891789 
L 292.70096 250.830179 
L 296.348764 250.97861 
L 299.996568 251.16701 
L 303.644372 251.138009 
L 307.292176 251.30965 
L 310.93998 251.39838 
L 314.587783 251.662639 
L 318.235587 251.6984 
L 321.883391 251.721714 
L 325.531195 252.084562 
L 329.178999 252.030682 
L 332.826803 252.20833 
L 336.474607 252.439676 
L 340.122411 252.52653 
L 343.770215 252.809339 
L 347.418018 252.819867 
L 351.065822 253.160903 
L 354.713626 253.141646 
L 358.36143 253.28294 
L 362.009234 253.653639 
L 365.657038 253.773614 
L 369.304842 253.793444 
L 372.952646 254.090075 
L 376.600449 254.428048 
L 380.248253 254.667631 
L 383.896057 255.022412 
L 387.543861 255.32583 
L 391.191665 255.417733 
L 394.839469 255.938513 
L 398.487273 256.181561 
" clip-path="url(#p9b8c31cb84)" style="fill: none; stroke: #ff00ff; stroke-opacity: 0.3; stroke-width: 0.5; stroke-linecap: square"/>
   </g>
   <g id="line2d_58">
    <path d="M 73.832727 249.49211 
L 77.480531 249.893273 
L 81.128335 249.943059 
L 84.776139 250.433988 
L 88.423943 250.931591 
L 92.071747 251.400915 
L 95.719551 252.135335 
L 99.367354 252.709901 
L 103.015158 253.316459 
L 106.662962 254.342538 
L 110.310766 255.057193 
L 113.95857 256.180834 
L 117.606374 256.995166 
L 121.254178 257.780265 
L 124.901982 259.046578 
L 128.549785 259.839805 
L 132.197589 261.093765 
L 135.845393 261.999487 
L 139.493197 263.206064 
L 143.141001 264.224763 
L 146.788805 265.126366 
L 150.436609 266.553964 
L 154.084413 267.667944 
L 157.732217 268.754286 
L 161.38002 270.318837 
L 165.027824 270.997234 
L 168.675628 272.090181 
L 172.323432 272.555302 
L 175.971236 274.027397 
L 179.61904 274.270843 
L 183.266844 275.637868 
L 186.914648 275.501931 
L 190.562451 278.550179 
L 194.210255 279.472402 
L 197.858059 280.862867 
L 201.505863 281.967763 
L 205.153667 283.221556 
L 208.801471 284.709771 
L 212.449275 285.104094 
L 216.097079 286.778978 
L 219.744883 287.810143 
L 223.392686 288.52405 
L 227.04049 289.432433 
L 230.688294 290.425792 
L 234.336098 290.574872 
L 237.983902 291.508453 
L 241.631706 291.550348 
L 245.27951 292.447903 
L 248.927314 292.5163 
L 252.575117 292.690623 
L 256.222921 292.839078 
L 259.870725 293.442694 
L 263.518529 293.30397 
L 267.166333 293.790401 
L 270.814137 293.900121 
L 274.461941 294.215498 
L 278.109745 294.072784 
L 281.757549 294.195016 
L 285.405352 294.246384 
L 289.053156 294.405803 
L 292.70096 294.397811 
L 296.348764 294.531472 
L 299.996568 294.51791 
L 303.644372 294.533683 
L 307.292176 294.698277 
L 310.93998 294.777021 
L 314.587783 294.874889 
L 318.235587 294.910721 
L 321.883391 294.948951 
L 325.531195 294.847984 
L 329.178999 294.903025 
L 332.826803 294.997197 
L 336.474607 294.864319 
L 340.122411 294.919068 
L 343.770215 294.949762 
L 347.418018 294.862063 
L 351.065822 294.93897 
L 354.713626 295.050064 
L 358.36143 295.092452 
L 362.009234 295.02991 
L 365.657038 295.067209 
L 369.304842 295.105985 
L 372.952646 295.03882 
L 376.600449 295.047312 
L 380.248253 295.173181 
L 383.896057 295.073267 
L 387.543861 295.100201 
L 391.191665 295.147782 
L 394.839469 295.158033 
L 398.487273 295.096244 
" clip-path="url(#p9b8c31cb84)" style="fill: none; stroke: #ff00ff; stroke-opacity: 0.3; stroke-width: 0.5; stroke-linecap: square"/>
   </g>
   <g id="line2d_59">
    <path d="M 73.832727 247.033102 
L 77.480531 246.853191 
L 81.128335 246.579192 
L 84.776139 246.339621 
L 88.423943 246.079887 
L 92.071747 245.684626 
L 95.719551 245.173416 
L 99.367354 244.671431 
L 103.015158 244.024848 
L 106.662962 243.361937 
L 110.310766 242.587931 
L 113.95857 241.721201 
L 117.606374 240.601886 
L 121.254178 239.630015 
L 124.901982 238.314234 
L 128.549785 237.040862 
L 132.197589 235.707151 
L 135.845393 234.365402 
L 139.493197 233.034909 
L 143.141001 231.517043 
L 146.788805 229.981788 
L 150.436609 228.426468 
L 154.084413 227.043167 
L 157.732217 225.495528 
L 161.38002 224.022399 
L 165.027824 222.472371 
L 168.675628 221.023662 
L 172.323432 219.435056 
L 175.971236 217.82921 
L 179.61904 216.613001 
L 183.266844 215.402981 
L 186.914648 213.618821 
L 190.562451 210.095223 
L 194.210255 206.87155 
L 197.858059 203.571069 
L 201.505863 200.171348 
L 205.153667 197.414859 
L 208.801471 194.049932 
L 212.449275 191.554286 
L 216.097079 188.144565 
L 219.744883 185.289049 
L 223.392686 181.803315 
L 227.04049 178.462938 
L 230.688294 175.246113 
L 234.336098 172.360677 
L 237.983902 169.098856 
L 241.631706 165.749868 
L 245.27951 161.862646 
L 248.927314 158.920978 
L 252.575117 154.825677 
L 256.222921 151.622712 
L 259.870725 147.747562 
L 263.518529 144.393724 
L 267.166333 140.761 
L 270.814137 136.848871 
L 274.461941 133.368401 
L 278.109745 130.556542 
L 281.757549 127.770775 
L 285.405352 124.09641 
L 289.053156 121.014243 
L 292.70096 118.332622 
L 296.348764 116.111889 
L 299.996568 112.904683 
L 303.644372 109.857058 
L 307.292176 106.375727 
L 310.93998 104.772327 
L 314.587783 102.189132 
L 318.235587 99.850037 
L 321.883391 96.602895 
L 325.531195 95.449432 
L 329.178999 93.476341 
L 332.826803 90.504331 
L 336.474607 89.722347 
L 340.122411 87.076259 
L 343.770215 84.919865 
L 347.418018 82.468907 
L 351.065822 80.532307 
L 354.713626 78.415053 
L 358.36143 77.630047 
L 362.009234 73.754198 
L 365.657038 72.107954 
L 369.304842 70.445853 
L 372.952646 68.110738 
L 376.600449 64.949545 
L 380.248253 62.684749 
L 383.896057 62.194697 
L 387.543861 60.813512 
L 391.191665 57.799015 
L 394.839469 54.597528 
L 398.487273 53.568 
" clip-path="url(#p9b8c31cb84)" style="fill: none; stroke: #6495ed; stroke-width: 2; stroke-linecap: square"/>
   </g>
   <g id="line2d_60">
    <path d="M 73.832727 248.01393 
L 77.480531 248.159483 
L 81.128335 248.422505 
L 84.776139 248.724611 
L 88.423943 249.032694 
L 92.071747 249.391149 
L 95.719551 249.79079 
L 99.367354 250.17882 
L 103.015158 250.619721 
L 106.662962 251.062277 
L 110.310766 251.545341 
L 113.95857 252.051556 
L 117.606374 252.639291 
L 121.254178 253.155643 
L 124.901982 253.796318 
L 128.549785 254.421731 
L 132.197589 255.074942 
L 135.845393 255.747061 
L 139.493197 256.437357 
L 143.141001 257.199876 
L 146.788805 257.981442 
L 150.436609 258.779461 
L 154.084413 259.545543 
L 157.732217 260.352062 
L 161.38002 261.134344 
L 165.027824 261.915532 
L 168.675628 262.66257 
L 172.323432 263.438875 
L 175.971236 264.220667 
L 179.61904 264.861385 
L 183.266844 265.504399 
L 186.914648 266.241283 
L 190.562451 267.3794 
L 194.210255 268.395187 
L 197.858059 269.423434 
L 201.505863 270.450421 
L 205.153667 271.388287 
L 208.801471 272.425835 
L 212.449275 273.335075 
L 216.097079 274.369055 
L 219.744883 275.287775 
L 223.392686 276.252083 
L 227.04049 277.154877 
L 230.688294 278.009255 
L 234.336098 278.775418 
L 237.983902 279.54888 
L 241.631706 280.284211 
L 245.27951 281.043718 
L 248.927314 281.68472 
L 252.575117 282.384734 
L 256.222921 282.969483 
L 259.870725 283.58991 
L 263.518529 284.130353 
L 267.166333 284.672522 
L 270.814137 285.201298 
L 274.461941 285.678353 
L 278.109745 286.07992 
L 281.757549 286.470366 
L 285.405352 286.88585 
L 289.053156 287.248553 
L 292.70096 287.572171 
L 296.348764 287.862333 
L 299.996568 288.176389 
L 303.644372 288.465345 
L 307.292176 288.772025 
L 310.93998 288.974223 
L 314.587783 289.215067 
L 318.235587 289.430644 
L 321.883391 289.675225 
L 325.531195 289.828094 
L 329.178999 290.005268 
L 332.826803 290.202316 
L 336.474607 290.320687 
L 340.122411 290.497007 
L 343.770215 290.649384 
L 347.418018 290.79118 
L 351.065822 290.923191 
L 354.713626 291.051374 
L 358.36143 291.139062 
L 362.009234 291.306163 
L 365.657038 291.408378 
L 369.304842 291.497284 
L 372.952646 291.610047 
L 376.600449 291.738652 
L 380.248253 291.832137 
L 383.896057 291.894069 
L 387.543861 291.96451 
L 391.191665 292.07444 
L 394.839469 292.17648 
L 398.487273 292.24375 
" clip-path="url(#p9b8c31cb84)" style="fill: none; stroke: #dc143c; stroke-width: 2; stroke-linecap: square"/>
   </g>
   <g id="line2d_61">
    <path d="M 73.832727 263.084509 
L 77.480531 258.406438 
L 81.128335 252.122462 
L 84.776139 248.072789 
L 88.423943 245.97813 
L 92.071747 245.210089 
L 95.719551 244.791157 
L 99.367354 244.930801 
L 103.015158 245.000623 
L 106.662962 244.930801 
L 110.310766 246.117774 
L 113.95857 246.397062 
L 117.606374 246.397062 
L 121.254178 246.257418 
L 124.901982 246.187596 
L 128.549785 246.187596 
L 132.197589 245.419554 
L 135.845393 244.860979 
L 139.493197 244.232581 
L 143.141001 243.813649 
L 146.788805 243.743827 
L 150.436609 243.604184 
L 154.084413 243.46454 
L 157.732217 243.674006 
L 161.38002 244.023115 
L 165.027824 244.023115 
L 168.675628 244.023115 
L 172.323432 244.232581 
L 175.971236 244.092937 
L 179.61904 244.092937 
L 183.266844 244.232581 
L 186.914648 243.953293 
L 190.562451 243.534362 
L 194.210255 243.46454 
L 197.858059 243.46454 
L 201.505863 243.46454 
L 205.153667 243.394718 
L 208.801471 243.534362 
L 212.449275 243.813649 
L 216.097079 244.162759 
L 219.744883 244.232581 
L 223.392686 244.232581 
L 227.04049 244.372225 
L 230.688294 244.651513 
L 234.336098 244.651513 
L 237.983902 244.791157 
L 241.631706 244.721335 
L 245.27951 244.581691 
L 248.927314 244.511869 
L 252.575117 244.511869 
L 256.222921 244.511869 
L 259.870725 244.511869 
L 263.518529 244.511869 
L 267.166333 244.511869 
L 270.814137 244.581691 
L 274.461941 244.651513 
L 278.109745 244.860979 
L 281.757549 245.140267 
L 285.405352 245.140267 
L 289.053156 245.27991 
L 292.70096 245.559198 
L 296.348764 245.908308 
L 299.996568 246.047952 
L 303.644372 245.768664 
L 307.292176 245.62902 
L 310.93998 245.698842 
L 314.587783 245.698842 
L 318.235587 245.698842 
L 321.883391 245.768664 
L 325.531195 245.559198 
L 329.178999 245.349732 
L 332.826803 245.27991 
L 336.474607 245.000623 
L 340.122411 245.000623 
L 343.770215 244.930801 
L 347.418018 245.000623 
L 351.065822 245.000623 
L 354.713626 245.000623 
L 358.36143 245.070445 
L 362.009234 245.140267 
L 365.657038 245.27991 
L 369.304842 245.349732 
L 372.952646 245.419554 
L 376.600449 245.419554 
L 380.248253 245.698842 
L 383.896057 245.62902 
L 387.543861 245.489376 
L 391.191665 245.559198 
L 394.839469 245.559198 
L 398.487273 245.419554 
" clip-path="url(#p9b8c31cb84)" style="fill: none; stroke: #ffff00; stroke-width: 3; stroke-linecap: square"/>
   </g>
   <g id="patch_3">
    <path d="M 57.6 307.584 
L 57.6 41.472 
" style="fill: none; stroke: #ffffff; stroke-linejoin: miter; stroke-linecap: square"/>
   </g>
   <g id="patch_4">
    <path d="M 414.72 307.584 
L 414.72 41.472 
" style="fill: none; stroke: #ffffff; stroke-linejoin: miter; stroke-linecap: square"/>
   </g>
   <g id="patch_5">
    <path d="M 57.6 307.584 
L 414.72 307.584 
" style="fill: none; stroke: #ffffff; stroke-linejoin: miter; stroke-linecap: square"/>
   </g>
   <g id="patch_6">
    <path d="M 57.6 41.472 
L 414.72 41.472 
" style="fill: none; stroke: #ffffff; stroke-linejoin: miter; stroke-linecap: square"/>
   </g>
  </g>
 </g>
 <defs>
  <clipPath id="p9b8c31cb84">
   <rect x="57.6" y="41.472" width="357.12" height="266.112"/>
  </clipPath>
 </defs>
</svg>
