<?xml version="1.0" encoding="utf-8" standalone="no"?>
<!DOCTYPE svg PUBLIC "-//W3C//DTD SVG 1.1//EN"
  "http://www.w3.org/Graphics/SVG/1.1/DTD/svg11.dtd">
<svg xmlns:xlink="http://www.w3.org/1999/xlink" width="460.8pt" height="345.6pt" viewBox="0 0 460.8 345.6" xmlns="http://www.w3.org/2000/svg" version="1.1">
 <metadata>
  <rdf:RDF xmlns:dc="http://purl.org/dc/elements/1.1/" xmlns:cc="http://creativecommons.org/ns#" xmlns:rdf="http://www.w3.org/1999/02/22-rdf-syntax-ns#">
   <cc:Work>
    <dc:type rdf:resource="http://purl.org/dc/dcmitype/StillImage"/>
    <dc:date>2023-07-06T14:57:57.071614</dc:date>
    <dc:format>image/svg+xml</dc:format>
    <dc:creator>
     <cc:Agent>
      <dc:title>Matplotlib v3.7.1, https://matplotlib.org/</dc:title>
     </cc:Agent>
    </dc:creator>
   </cc:Work>
  </rdf:RDF>
 </metadata>
 <defs>
  <style type="text/css">*{stroke-linejoin: round; stroke-linecap: butt}</style>
 </defs>
 <g id="figure_1">
  <g id="patch_1">
   <path d="M 0 345.6 
L 460.8 345.6 
L 460.8 0 
L 0 0 
z
" style="fill: #ffffff"/>
  </g>
  <g id="axes_1">
   <g id="patch_2">
    <path d="M 57.6 307.584 
L 414.72 307.584 
L 414.72 41.472 
L 57.6 41.472 
z
" style="fill: #e5e5e5"/>
   </g>
   <g id="matplotlib.axis_1">
    <g id="xtick_1">
     <g id="line2d_1">
      <path d="M 70.184923 307.584 
L 70.184923 41.472 
" clip-path="url(#pbb6623e0aa)" style="fill: none; stroke: #ffffff; stroke-width: 0.8; stroke-linecap: square"/>
     </g>
     <g id="line2d_2">
      <defs>
       <path id="m159bbb61ec" d="M 0 0 
L 0 3.5 
" style="stroke: #555555; stroke-width: 0.8"/>
      </defs>
      <g>
       <use xlink:href="#m159bbb61ec" x="70.184923" y="307.584" style="fill: #555555; stroke: #555555; stroke-width: 0.8"/>
      </g>
     </g>
     <g id="text_1">
      <!-- 0 -->
      <g style="fill: #555555" transform="translate(67.003673 322.182437) scale(0.1 -0.1)">
       <defs>
        <path id="DejaVuSans-30" d="M 2034 4250 
Q 1547 4250 1301 3770 
Q 1056 3291 1056 2328 
Q 1056 1369 1301 889 
Q 1547 409 2034 409 
Q 2525 409 2770 889 
Q 3016 1369 3016 2328 
Q 3016 3291 2770 3770 
Q 2525 4250 2034 4250 
z
M 2034 4750 
Q 2819 4750 3233 4129 
Q 3647 3509 3647 2328 
Q 3647 1150 3233 529 
Q 2819 -91 2034 -91 
Q 1250 -91 836 529 
Q 422 1150 422 2328 
Q 422 3509 836 4129 
Q 1250 4750 2034 4750 
z
" transform="scale(0.015625)"/>
       </defs>
       <use xlink:href="#DejaVuSans-30"/>
      </g>
     </g>
    </g>
    <g id="xtick_2">
     <g id="line2d_3">
      <path d="M 143.141001 307.584 
L 143.141001 41.472 
" clip-path="url(#pbb6623e0aa)" style="fill: none; stroke: #ffffff; stroke-width: 0.8; stroke-linecap: square"/>
     </g>
     <g id="line2d_4">
      <g>
       <use xlink:href="#m159bbb61ec" x="143.141001" y="307.584" style="fill: #555555; stroke: #555555; stroke-width: 0.8"/>
      </g>
     </g>
     <g id="text_2">
      <!-- 20 -->
      <g style="fill: #555555" transform="translate(136.778501 322.182437) scale(0.1 -0.1)">
       <defs>
        <path id="DejaVuSans-32" d="M 1228 531 
L 3431 531 
L 3431 0 
L 469 0 
L 469 531 
Q 828 903 1448 1529 
Q 2069 2156 2228 2338 
Q 2531 2678 2651 2914 
Q 2772 3150 2772 3378 
Q 2772 3750 2511 3984 
Q 2250 4219 1831 4219 
Q 1534 4219 1204 4116 
Q 875 4013 500 3803 
L 500 4441 
Q 881 4594 1212 4672 
Q 1544 4750 1819 4750 
Q 2544 4750 2975 4387 
Q 3406 4025 3406 3419 
Q 3406 3131 3298 2873 
Q 3191 2616 2906 2266 
Q 2828 2175 2409 1742 
Q 1991 1309 1228 531 
z
" transform="scale(0.015625)"/>
       </defs>
       <use xlink:href="#DejaVuSans-32"/>
       <use xlink:href="#DejaVuSans-30" x="63.623047"/>
      </g>
     </g>
    </g>
    <g id="xtick_3">
     <g id="line2d_5">
      <path d="M 216.097079 307.584 
L 216.097079 41.472 
" clip-path="url(#pbb6623e0aa)" style="fill: none; stroke: #ffffff; stroke-width: 0.8; stroke-linecap: square"/>
     </g>
     <g id="line2d_6">
      <g>
       <use xlink:href="#m159bbb61ec" x="216.097079" y="307.584" style="fill: #555555; stroke: #555555; stroke-width: 0.8"/>
      </g>
     </g>
     <g id="text_3">
      <!-- 40 -->
      <g style="fill: #555555" transform="translate(209.734579 322.182437) scale(0.1 -0.1)">
       <defs>
        <path id="DejaVuSans-34" d="M 2419 4116 
L 825 1625 
L 2419 1625 
L 2419 4116 
z
M 2253 4666 
L 3047 4666 
L 3047 1625 
L 3713 1625 
L 3713 1100 
L 3047 1100 
L 3047 0 
L 2419 0 
L 2419 1100 
L 313 1100 
L 313 1709 
L 2253 4666 
z
" transform="scale(0.015625)"/>
       </defs>
       <use xlink:href="#DejaVuSans-34"/>
       <use xlink:href="#DejaVuSans-30" x="63.623047"/>
      </g>
     </g>
    </g>
    <g id="xtick_4">
     <g id="line2d_7">
      <path d="M 289.053156 307.584 
L 289.053156 41.472 
" clip-path="url(#pbb6623e0aa)" style="fill: none; stroke: #ffffff; stroke-width: 0.8; stroke-linecap: square"/>
     </g>
     <g id="line2d_8">
      <g>
       <use xlink:href="#m159bbb61ec" x="289.053156" y="307.584" style="fill: #555555; stroke: #555555; stroke-width: 0.8"/>
      </g>
     </g>
     <g id="text_4">
      <!-- 60 -->
      <g style="fill: #555555" transform="translate(282.690656 322.182437) scale(0.1 -0.1)">
       <defs>
        <path id="DejaVuSans-36" d="M 2113 2584 
Q 1688 2584 1439 2293 
Q 1191 2003 1191 1497 
Q 1191 994 1439 701 
Q 1688 409 2113 409 
Q 2538 409 2786 701 
Q 3034 994 3034 1497 
Q 3034 2003 2786 2293 
Q 2538 2584 2113 2584 
z
M 3366 4563 
L 3366 3988 
Q 3128 4100 2886 4159 
Q 2644 4219 2406 4219 
Q 1781 4219 1451 3797 
Q 1122 3375 1075 2522 
Q 1259 2794 1537 2939 
Q 1816 3084 2150 3084 
Q 2853 3084 3261 2657 
Q 3669 2231 3669 1497 
Q 3669 778 3244 343 
Q 2819 -91 2113 -91 
Q 1303 -91 875 529 
Q 447 1150 447 2328 
Q 447 3434 972 4092 
Q 1497 4750 2381 4750 
Q 2619 4750 2861 4703 
Q 3103 4656 3366 4563 
z
" transform="scale(0.015625)"/>
       </defs>
       <use xlink:href="#DejaVuSans-36"/>
       <use xlink:href="#DejaVuSans-30" x="63.623047"/>
      </g>
     </g>
    </g>
    <g id="xtick_5">
     <g id="line2d_9">
      <path d="M 362.009234 307.584 
L 362.009234 41.472 
" clip-path="url(#pbb6623e0aa)" style="fill: none; stroke: #ffffff; stroke-width: 0.8; stroke-linecap: square"/>
     </g>
     <g id="line2d_10">
      <g>
       <use xlink:href="#m159bbb61ec" x="362.009234" y="307.584" style="fill: #555555; stroke: #555555; stroke-width: 0.8"/>
      </g>
     </g>
     <g id="text_5">
      <!-- 80 -->
      <g style="fill: #555555" transform="translate(355.646734 322.182437) scale(0.1 -0.1)">
       <defs>
        <path id="DejaVuSans-38" d="M 2034 2216 
Q 1584 2216 1326 1975 
Q 1069 1734 1069 1313 
Q 1069 891 1326 650 
Q 1584 409 2034 409 
Q 2484 409 2743 651 
Q 3003 894 3003 1313 
Q 3003 1734 2745 1975 
Q 2488 2216 2034 2216 
z
M 1403 2484 
Q 997 2584 770 2862 
Q 544 3141 544 3541 
Q 544 4100 942 4425 
Q 1341 4750 2034 4750 
Q 2731 4750 3128 4425 
Q 3525 4100 3525 3541 
Q 3525 3141 3298 2862 
Q 3072 2584 2669 2484 
Q 3125 2378 3379 2068 
Q 3634 1759 3634 1313 
Q 3634 634 3220 271 
Q 2806 -91 2034 -91 
Q 1263 -91 848 271 
Q 434 634 434 1313 
Q 434 1759 690 2068 
Q 947 2378 1403 2484 
z
M 1172 3481 
Q 1172 3119 1398 2916 
Q 1625 2713 2034 2713 
Q 2441 2713 2670 2916 
Q 2900 3119 2900 3481 
Q 2900 3844 2670 4047 
Q 2441 4250 2034 4250 
Q 1625 4250 1398 4047 
Q 1172 3844 1172 3481 
z
" transform="scale(0.015625)"/>
       </defs>
       <use xlink:href="#DejaVuSans-38"/>
       <use xlink:href="#DejaVuSans-30" x="63.623047"/>
      </g>
     </g>
    </g>
   </g>
   <g id="matplotlib.axis_2">
    <g id="ytick_1">
     <g id="line2d_11">
      <path d="M 57.6 295.554633 
L 414.72 295.554633 
" clip-path="url(#pbb6623e0aa)" style="fill: none; stroke: #ffffff; stroke-width: 0.8; stroke-linecap: square"/>
     </g>
     <g id="line2d_12">
      <defs>
       <path id="mfa12cea434" d="M 0 0 
L -3.5 0 
" style="stroke: #555555; stroke-width: 0.8"/>
      </defs>
      <g>
       <use xlink:href="#mfa12cea434" x="57.6" y="295.554633" style="fill: #555555; stroke: #555555; stroke-width: 0.8"/>
      </g>
     </g>
     <g id="text_6">
      <!-- 0.0 -->
      <g style="fill: #555555" transform="translate(34.696875 299.353852) scale(0.1 -0.1)">
       <defs>
        <path id="DejaVuSans-2e" d="M 684 794 
L 1344 794 
L 1344 0 
L 684 0 
L 684 794 
z
" transform="scale(0.015625)"/>
       </defs>
       <use xlink:href="#DejaVuSans-30"/>
       <use xlink:href="#DejaVuSans-2e" x="63.623047"/>
       <use xlink:href="#DejaVuSans-30" x="95.410156"/>
      </g>
     </g>
    </g>
    <g id="ytick_2">
     <g id="line2d_13">
      <path d="M 57.6 261.389513 
L 414.72 261.389513 
" clip-path="url(#pbb6623e0aa)" style="fill: none; stroke: #ffffff; stroke-width: 0.8; stroke-linecap: square"/>
     </g>
     <g id="line2d_14">
      <g>
       <use xlink:href="#mfa12cea434" x="57.6" y="261.389513" style="fill: #555555; stroke: #555555; stroke-width: 0.8"/>
      </g>
     </g>
     <g id="text_7">
      <!-- 0.5 -->
      <g style="fill: #555555" transform="translate(34.696875 265.188731) scale(0.1 -0.1)">
       <defs>
        <path id="DejaVuSans-35" d="M 691 4666 
L 3169 4666 
L 3169 4134 
L 1269 4134 
L 1269 2991 
Q 1406 3038 1543 3061 
Q 1681 3084 1819 3084 
Q 2600 3084 3056 2656 
Q 3513 2228 3513 1497 
Q 3513 744 3044 326 
Q 2575 -91 1722 -91 
Q 1428 -91 1123 -41 
Q 819 9 494 109 
L 494 744 
Q 775 591 1075 516 
Q 1375 441 1709 441 
Q 2250 441 2565 725 
Q 2881 1009 2881 1497 
Q 2881 1984 2565 2268 
Q 2250 2553 1709 2553 
Q 1456 2553 1204 2497 
Q 953 2441 691 2322 
L 691 4666 
z
" transform="scale(0.015625)"/>
       </defs>
       <use xlink:href="#DejaVuSans-30"/>
       <use xlink:href="#DejaVuSans-2e" x="63.623047"/>
       <use xlink:href="#DejaVuSans-35" x="95.410156"/>
      </g>
     </g>
    </g>
    <g id="ytick_3">
     <g id="line2d_15">
      <path d="M 57.6 227.224392 
L 414.72 227.224392 
" clip-path="url(#pbb6623e0aa)" style="fill: none; stroke: #ffffff; stroke-width: 0.8; stroke-linecap: square"/>
     </g>
     <g id="line2d_16">
      <g>
       <use xlink:href="#mfa12cea434" x="57.6" y="227.224392" style="fill: #555555; stroke: #555555; stroke-width: 0.8"/>
      </g>
     </g>
     <g id="text_8">
      <!-- 1.0 -->
      <g style="fill: #555555" transform="translate(34.696875 231.023611) scale(0.1 -0.1)">
       <defs>
        <path id="DejaVuSans-31" d="M 794 531 
L 1825 531 
L 1825 4091 
L 703 3866 
L 703 4441 
L 1819 4666 
L 2450 4666 
L 2450 531 
L 3481 531 
L 3481 0 
L 794 0 
L 794 531 
z
" transform="scale(0.015625)"/>
       </defs>
       <use xlink:href="#DejaVuSans-31"/>
       <use xlink:href="#DejaVuSans-2e" x="63.623047"/>
       <use xlink:href="#DejaVuSans-30" x="95.410156"/>
      </g>
     </g>
    </g>
    <g id="ytick_4">
     <g id="line2d_17">
      <path d="M 57.6 193.059272 
L 414.72 193.059272 
" clip-path="url(#pbb6623e0aa)" style="fill: none; stroke: #ffffff; stroke-width: 0.8; stroke-linecap: square"/>
     </g>
     <g id="line2d_18">
      <g>
       <use xlink:href="#mfa12cea434" x="57.6" y="193.059272" style="fill: #555555; stroke: #555555; stroke-width: 0.8"/>
      </g>
     </g>
     <g id="text_9">
      <!-- 1.5 -->
      <g style="fill: #555555" transform="translate(34.696875 196.858491) scale(0.1 -0.1)">
       <use xlink:href="#DejaVuSans-31"/>
       <use xlink:href="#DejaVuSans-2e" x="63.623047"/>
       <use xlink:href="#DejaVuSans-35" x="95.410156"/>
      </g>
     </g>
    </g>
    <g id="ytick_5">
     <g id="line2d_19">
      <path d="M 57.6 158.894152 
L 414.72 158.894152 
" clip-path="url(#pbb6623e0aa)" style="fill: none; stroke: #ffffff; stroke-width: 0.8; stroke-linecap: square"/>
     </g>
     <g id="line2d_20">
      <g>
       <use xlink:href="#mfa12cea434" x="57.6" y="158.894152" style="fill: #555555; stroke: #555555; stroke-width: 0.8"/>
      </g>
     </g>
     <g id="text_10">
      <!-- 2.0 -->
      <g style="fill: #555555" transform="translate(34.696875 162.693371) scale(0.1 -0.1)">
       <use xlink:href="#DejaVuSans-32"/>
       <use xlink:href="#DejaVuSans-2e" x="63.623047"/>
       <use xlink:href="#DejaVuSans-30" x="95.410156"/>
      </g>
     </g>
    </g>
    <g id="ytick_6">
     <g id="line2d_21">
      <path d="M 57.6 124.729032 
L 414.72 124.729032 
" clip-path="url(#pbb6623e0aa)" style="fill: none; stroke: #ffffff; stroke-width: 0.8; stroke-linecap: square"/>
     </g>
     <g id="line2d_22">
      <g>
       <use xlink:href="#mfa12cea434" x="57.6" y="124.729032" style="fill: #555555; stroke: #555555; stroke-width: 0.8"/>
      </g>
     </g>
     <g id="text_11">
      <!-- 2.5 -->
      <g style="fill: #555555" transform="translate(34.696875 128.528251) scale(0.1 -0.1)">
       <use xlink:href="#DejaVuSans-32"/>
       <use xlink:href="#DejaVuSans-2e" x="63.623047"/>
       <use xlink:href="#DejaVuSans-35" x="95.410156"/>
      </g>
     </g>
    </g>
    <g id="ytick_7">
     <g id="line2d_23">
      <path d="M 57.6 90.563912 
L 414.72 90.563912 
" clip-path="url(#pbb6623e0aa)" style="fill: none; stroke: #ffffff; stroke-width: 0.8; stroke-linecap: square"/>
     </g>
     <g id="line2d_24">
      <g>
       <use xlink:href="#mfa12cea434" x="57.6" y="90.563912" style="fill: #555555; stroke: #555555; stroke-width: 0.8"/>
      </g>
     </g>
     <g id="text_12">
      <!-- 3.0 -->
      <g style="fill: #555555" transform="translate(34.696875 94.36313) scale(0.1 -0.1)">
       <defs>
        <path id="DejaVuSans-33" d="M 2597 2516 
Q 3050 2419 3304 2112 
Q 3559 1806 3559 1356 
Q 3559 666 3084 287 
Q 2609 -91 1734 -91 
Q 1441 -91 1130 -33 
Q 819 25 488 141 
L 488 750 
Q 750 597 1062 519 
Q 1375 441 1716 441 
Q 2309 441 2620 675 
Q 2931 909 2931 1356 
Q 2931 1769 2642 2001 
Q 2353 2234 1838 2234 
L 1294 2234 
L 1294 2753 
L 1863 2753 
Q 2328 2753 2575 2939 
Q 2822 3125 2822 3475 
Q 2822 3834 2567 4026 
Q 2313 4219 1838 4219 
Q 1578 4219 1281 4162 
Q 984 4106 628 3988 
L 628 4550 
Q 988 4650 1302 4700 
Q 1616 4750 1894 4750 
Q 2613 4750 3031 4423 
Q 3450 4097 3450 3541 
Q 3450 3153 3228 2886 
Q 3006 2619 2597 2516 
z
" transform="scale(0.015625)"/>
       </defs>
       <use xlink:href="#DejaVuSans-33"/>
       <use xlink:href="#DejaVuSans-2e" x="63.623047"/>
       <use xlink:href="#DejaVuSans-30" x="95.410156"/>
      </g>
     </g>
    </g>
    <g id="ytick_8">
     <g id="line2d_25">
      <path d="M 57.6 56.398791 
L 414.72 56.398791 
" clip-path="url(#pbb6623e0aa)" style="fill: none; stroke: #ffffff; stroke-width: 0.8; stroke-linecap: square"/>
     </g>
     <g id="line2d_26">
      <g>
       <use xlink:href="#mfa12cea434" x="57.6" y="56.398791" style="fill: #555555; stroke: #555555; stroke-width: 0.8"/>
      </g>
     </g>
     <g id="text_13">
      <!-- 3.5 -->
      <g style="fill: #555555" transform="translate(34.696875 60.19801) scale(0.1 -0.1)">
       <use xlink:href="#DejaVuSans-33"/>
       <use xlink:href="#DejaVuSans-2e" x="63.623047"/>
       <use xlink:href="#DejaVuSans-35" x="95.410156"/>
      </g>
     </g>
    </g>
   </g>
   <g id="line2d_27">
    <path d="M 73.832727 246.559207 
L 77.480531 246.736312 
L 81.128335 247.098877 
L 84.776139 247.567111 
L 88.423943 248.235249 
L 92.071747 248.726722 
L 95.719551 249.430592 
L 99.367354 250.329275 
L 103.015158 251.128941 
L 106.662962 251.831063 
L 110.310766 252.701453 
L 113.95857 253.204212 
L 117.606374 253.828633 
L 121.254178 254.442673 
L 124.901982 254.637642 
L 128.549785 255.741032 
L 132.197589 255.929367 
L 135.845393 256.591893 
L 139.493197 257.257837 
L 143.141001 257.712455 
L 146.788805 258.06542 
L 150.436609 258.935317 
L 154.084413 258.863004 
L 157.732217 259.395959 
L 161.38002 259.746997 
L 165.027824 260.399623 
L 168.675628 260.852086 
L 172.323432 260.854791 
L 175.971236 261.924481 
L 179.61904 261.544864 
L 183.266844 262.128056 
L 186.914648 262.585875 
L 190.562451 263.923733 
L 194.210255 265.143107 
L 197.858059 266.425316 
L 201.505863 267.793265 
L 205.153667 269.172609 
L 208.801471 270.486268 
L 212.449275 271.272648 
L 216.097079 272.608367 
L 219.744883 273.682326 
L 223.392686 275.4877 
L 227.04049 276.926474 
L 230.688294 278.140237 
L 234.336098 278.891353 
L 237.983902 279.962137 
L 241.631706 281.482629 
L 245.27951 282.10864 
L 248.927314 283.170065 
L 252.575117 283.965583 
L 256.222921 285.233522 
L 259.870725 286.114386 
L 263.518529 286.54685 
L 267.166333 287.253009 
L 270.814137 288.162305 
L 274.461941 288.690499 
L 278.109745 289.464728 
L 281.757549 290.20886 
L 285.405352 290.710543 
L 289.053156 290.808927 
L 292.70096 291.422957 
L 296.348764 291.619327 
L 299.996568 292.19204 
L 303.644372 292.439919 
L 307.292176 292.59403 
L 310.93998 292.950214 
L 314.587783 293.090774 
L 318.235587 293.437758 
L 321.883391 293.574817 
L 325.531195 293.772337 
L 329.178999 293.841003 
L 332.826803 293.982215 
L 336.474607 294.128982 
L 340.122411 294.182441 
L 343.770215 294.288725 
L 347.418018 294.28016 
L 351.065822 294.505072 
L 354.713626 294.354476 
L 358.36143 294.565885 
L 362.009234 294.603109 
L 365.657038 294.563508 
L 369.304842 294.682584 
L 372.952646 294.618558 
L 376.600449 294.700212 
L 380.248253 294.460179 
L 383.896057 294.710226 
L 387.543861 294.901161 
L 391.191665 294.705024 
L 394.839469 294.906484 
L 398.487273 294.896816 
" clip-path="url(#pbb6623e0aa)" style="fill: none; stroke: #ff00ff; stroke-opacity: 0.3; stroke-width: 0.5; stroke-linecap: square"/>
   </g>
   <g id="line2d_28">
    <path d="M 73.832727 249.494669 
L 77.480531 249.494323 
L 81.128335 249.952366 
L 84.776139 250.473245 
L 88.423943 251.051195 
L 92.071747 251.904553 
L 95.719551 252.810254 
L 99.367354 253.61477 
L 103.015158 254.839335 
L 106.662962 256.039198 
L 110.310766 257.274474 
L 113.95857 258.760614 
L 117.606374 260.029523 
L 121.254178 261.48818 
L 124.901982 263.40867 
L 128.549785 265.062539 
L 132.197589 266.889924 
L 135.845393 269.022868 
L 139.493197 270.848651 
L 143.141001 272.826731 
L 146.788805 274.986624 
L 150.436609 277.169272 
L 154.084413 279.253233 
L 157.732217 280.964026 
L 161.38002 282.619911 
L 165.027824 284.246974 
L 168.675628 285.675123 
L 172.323432 286.992324 
L 175.971236 288.128197 
L 179.61904 288.822562 
L 183.266844 289.784505 
L 186.914648 290.389462 
L 190.562451 291.261953 
L 194.210255 292.064608 
L 197.858059 292.598834 
L 201.505863 293.069499 
L 205.153667 293.441011 
L 208.801471 293.811118 
L 212.449275 294.12049 
L 216.097079 294.331736 
L 219.744883 294.49384 
L 223.392686 294.721801 
L 227.04049 294.788881 
L 230.688294 294.935499 
L 234.336098 294.990853 
L 237.983902 295.050761 
L 241.631706 295.115124 
L 245.27951 295.137555 
L 248.927314 295.196756 
L 252.575117 295.223857 
L 256.222921 295.219495 
L 259.870725 295.263782 
L 263.518529 295.308413 
L 267.166333 295.287066 
L 270.814137 295.334325 
L 274.461941 295.320842 
L 278.109745 295.357239 
L 281.757549 295.370976 
L 285.405352 295.397023 
L 289.053156 295.388568 
L 292.70096 295.407514 
L 296.348764 295.38357 
L 299.996568 295.409778 
L 303.644372 295.406509 
L 307.292176 295.407304 
L 310.93998 295.416167 
L 314.587783 295.427158 
L 318.235587 295.435374 
L 321.883391 295.436248 
L 325.531195 295.429251 
L 329.178999 295.445773 
L 332.826803 295.443488 
L 336.474607 295.44409 
L 340.122411 295.449992 
L 343.770215 295.454429 
L 347.418018 295.43983 
L 351.065822 295.459269 
L 354.713626 295.453634 
L 358.36143 295.461427 
L 362.009234 295.457199 
L 365.657038 295.461252 
L 369.304842 295.459166 
L 372.952646 295.463375 
L 376.600449 295.469809 
L 380.248253 295.458524 
L 383.896057 295.467295 
L 387.543861 295.466933 
L 391.191665 295.469779 
L 394.839469 295.472999 
L 398.487273 295.476003 
" clip-path="url(#pbb6623e0aa)" style="fill: none; stroke: #ff00ff; stroke-opacity: 0.3; stroke-width: 0.5; stroke-linecap: square"/>
   </g>
   <g id="line2d_29">
    <path d="M 73.832727 248.526385 
L 77.480531 248.668184 
L 81.128335 248.595098 
L 84.776139 248.821142 
L 88.423943 249.080229 
L 92.071747 249.181186 
L 95.719551 249.443189 
L 99.367354 249.731478 
L 103.015158 250.070693 
L 106.662962 250.434679 
L 110.310766 250.774359 
L 113.95857 251.154217 
L 117.606374 251.578566 
L 121.254178 252.201904 
L 124.901982 252.857963 
L 128.549785 253.328444 
L 132.197589 254.263522 
L 135.845393 254.851276 
L 139.493197 255.895074 
L 143.141001 256.599057 
L 146.788805 257.635047 
L 150.436609 258.66762 
L 154.084413 259.648032 
L 157.732217 260.891971 
L 161.38002 261.955398 
L 165.027824 263.412491 
L 168.675628 264.675932 
L 172.323432 266.33349 
L 175.971236 267.723417 
L 179.61904 269.059464 
L 183.266844 270.73558 
L 186.914648 272.225437 
L 190.562451 274.659059 
L 194.210255 276.899856 
L 197.858059 279.156308 
L 201.505863 281.162726 
L 205.153667 283.385109 
L 208.801471 285.2063 
L 212.449275 286.848954 
L 216.097079 288.303322 
L 219.744883 289.59388 
L 223.392686 290.810801 
L 227.04049 291.570485 
L 230.688294 292.254414 
L 234.336098 292.860288 
L 237.983902 293.407725 
L 241.631706 293.828922 
L 245.27951 294.084788 
L 248.927314 294.297158 
L 252.575117 294.490052 
L 256.222921 294.709135 
L 259.870725 294.725818 
L 263.518529 294.932192 
L 267.166333 294.951148 
L 270.814137 295.07531 
L 274.461941 295.095546 
L 278.109745 295.157736 
L 281.757549 295.222155 
L 285.405352 295.258432 
L 289.053156 295.273392 
L 292.70096 295.297274 
L 296.348764 295.315721 
L 299.996568 295.33864 
L 303.644372 295.357534 
L 307.292176 295.364932 
L 310.93998 295.387242 
L 314.587783 295.389832 
L 318.235587 295.399174 
L 321.883391 295.411366 
L 325.531195 295.410229 
L 329.178999 295.407819 
L 332.826803 295.416436 
L 336.474607 295.434423 
L 340.122411 295.437858 
L 343.770215 295.439239 
L 347.418018 295.444036 
L 351.065822 295.441 
L 354.713626 295.446469 
L 358.36143 295.45037 
L 362.009234 295.45295 
L 365.657038 295.458855 
L 369.304842 295.450318 
L 372.952646 295.458776 
L 376.600449 295.46267 
L 380.248253 295.462545 
L 383.896057 295.471674 
L 387.543861 295.463422 
L 391.191665 295.465039 
L 394.839469 295.467926 
L 398.487273 295.467557 
" clip-path="url(#pbb6623e0aa)" style="fill: none; stroke: #ff00ff; stroke-opacity: 0.3; stroke-width: 0.5; stroke-linecap: square"/>
   </g>
   <g id="line2d_30">
    <path d="M 73.832727 248.015611 
L 77.480531 248.145636 
L 81.128335 248.225426 
L 84.776139 248.358297 
L 88.423943 248.56638 
L 92.071747 248.917997 
L 95.719551 249.135114 
L 99.367354 249.8303 
L 103.015158 250.221338 
L 106.662962 250.790764 
L 110.310766 251.245521 
L 113.95857 251.806121 
L 117.606374 252.308489 
L 121.254178 252.914774 
L 124.901982 253.521735 
L 128.549785 253.701142 
L 132.197589 254.658747 
L 135.845393 255.162365 
L 139.493197 255.805843 
L 143.141001 256.443317 
L 146.788805 257.123935 
L 150.436609 257.996247 
L 154.084413 258.310126 
L 157.732217 258.97541 
L 161.38002 259.95783 
L 165.027824 260.371227 
L 168.675628 260.853724 
L 172.323432 261.916641 
L 175.971236 262.357497 
L 179.61904 262.959671 
L 183.266844 263.639266 
L 186.914648 264.151712 
L 190.562451 265.369903 
L 194.210255 267.1364 
L 197.858059 268.267694 
L 201.505863 269.249888 
L 205.153667 270.40037 
L 208.801471 271.610552 
L 212.449275 272.680265 
L 216.097079 274.13102 
L 219.744883 275.287245 
L 223.392686 276.538216 
L 227.04049 277.799835 
L 230.688294 279.16558 
L 234.336098 280.379467 
L 237.983902 281.604447 
L 241.631706 282.615635 
L 245.27951 283.926603 
L 248.927314 285.012148 
L 252.575117 285.601762 
L 256.222921 286.566213 
L 259.870725 287.498733 
L 263.518529 288.254331 
L 267.166333 289.225029 
L 270.814137 289.977254 
L 274.461941 290.720056 
L 278.109745 291.342702 
L 281.757549 291.718808 
L 285.405352 292.223528 
L 289.053156 292.497896 
L 292.70096 292.870087 
L 296.348764 293.144026 
L 299.996568 293.382745 
L 303.644372 293.63596 
L 307.292176 293.795603 
L 310.93998 293.975332 
L 314.587783 294.187726 
L 318.235587 294.29082 
L 321.883391 294.408285 
L 325.531195 294.436912 
L 329.178999 294.527537 
L 332.826803 294.699776 
L 336.474607 294.738861 
L 340.122411 294.769041 
L 343.770215 294.745329 
L 347.418018 294.824299 
L 351.065822 294.983034 
L 354.713626 294.995671 
L 358.36143 295.048055 
L 362.009234 294.91577 
L 365.657038 295.061944 
L 369.304842 295.07033 
L 372.952646 295.122133 
L 376.600449 295.156616 
L 380.248253 295.169621 
L 383.896057 295.158118 
L 387.543861 295.183963 
L 391.191665 295.175794 
L 394.839469 295.222831 
L 398.487273 295.176716 
" clip-path="url(#pbb6623e0aa)" style="fill: none; stroke: #ff00ff; stroke-opacity: 0.3; stroke-width: 0.5; stroke-linecap: square"/>
   </g>
   <g id="line2d_31">
    <path d="M 73.832727 249.190158 
L 77.480531 249.710051 
L 81.128335 249.571262 
L 84.776139 249.989017 
L 88.423943 250.186239 
L 92.071747 250.578388 
L 95.719551 251.400536 
L 99.367354 252.029478 
L 103.015158 252.097375 
L 106.662962 252.912286 
L 110.310766 253.422628 
L 113.95857 253.724744 
L 117.606374 253.912174 
L 121.254178 254.749868 
L 124.901982 255.194459 
L 128.549785 255.467242 
L 132.197589 255.978212 
L 135.845393 256.068746 
L 139.493197 256.317211 
L 143.141001 256.559013 
L 146.788805 257.017077 
L 150.436609 257.384798 
L 154.084413 257.748194 
L 157.732217 257.883394 
L 161.38002 258.2617 
L 165.027824 258.565515 
L 168.675628 258.476341 
L 172.323432 258.674214 
L 175.971236 258.412304 
L 179.61904 258.294099 
L 183.266844 257.716104 
L 186.914648 258.108559 
L 190.562451 258.65163 
L 194.210255 259.088576 
L 197.858059 260.645204 
L 201.505863 261.274794 
L 205.153667 262.129094 
L 208.801471 262.675422 
L 212.449275 263.416871 
L 216.097079 264.193041 
L 219.744883 264.402051 
L 223.392686 265.489403 
L 227.04049 266.425976 
L 230.688294 266.920617 
L 234.336098 267.888832 
L 237.983902 268.459227 
L 241.631706 269.232725 
L 245.27951 270.387767 
L 248.927314 270.62144 
L 252.575117 271.687106 
L 256.222921 272.06453 
L 259.870725 272.48966 
L 263.518529 274.130338 
L 267.166333 273.93497 
L 270.814137 274.753364 
L 274.461941 275.401198 
L 278.109745 275.801679 
L 281.757549 276.540493 
L 285.405352 277.409931 
L 289.053156 277.426239 
L 292.70096 278.419147 
L 296.348764 278.842906 
L 299.996568 279.037029 
L 303.644372 279.974753 
L 307.292176 280.33261 
L 310.93998 280.918238 
L 314.587783 281.515889 
L 318.235587 281.559348 
L 321.883391 282.327286 
L 325.531195 283.085874 
L 329.178999 283.180132 
L 332.826803 283.74477 
L 336.474607 284.08478 
L 340.122411 284.703504 
L 343.770215 284.579685 
L 347.418018 285.116435 
L 351.065822 285.421024 
L 354.713626 285.998661 
L 358.36143 286.440758 
L 362.009234 286.713754 
L 365.657038 286.736266 
L 369.304842 287.144218 
L 372.952646 287.370441 
L 376.600449 287.68541 
L 380.248253 288.41066 
L 383.896057 288.419653 
L 387.543861 288.317368 
L 391.191665 288.956235 
L 394.839469 288.91422 
L 398.487273 289.186215 
" clip-path="url(#pbb6623e0aa)" style="fill: none; stroke: #ff00ff; stroke-opacity: 0.3; stroke-width: 0.5; stroke-linecap: square"/>
   </g>
   <g id="line2d_32">
    <path d="M 73.832727 248.869845 
L 77.480531 248.881476 
L 81.128335 249.117283 
L 84.776139 249.126903 
L 88.423943 249.319278 
L 92.071747 249.539902 
L 95.719551 249.767824 
L 99.367354 249.972608 
L 103.015158 250.202835 
L 106.662962 250.576335 
L 110.310766 250.695029 
L 113.95857 251.101922 
L 117.606374 251.479572 
L 121.254178 251.765792 
L 124.901982 252.106433 
L 128.549785 252.462282 
L 132.197589 252.766105 
L 135.845393 253.192739 
L 139.493197 253.678184 
L 143.141001 254.061626 
L 146.788805 254.608501 
L 150.436609 255.154578 
L 154.084413 255.781911 
L 157.732217 256.457458 
L 161.38002 256.833475 
L 165.027824 257.611645 
L 168.675628 258.241344 
L 172.323432 258.910672 
L 175.971236 259.545907 
L 179.61904 260.136935 
L 183.266844 260.649432 
L 186.914648 261.790755 
L 190.562451 262.481449 
L 194.210255 263.575386 
L 197.858059 265.021566 
L 201.505863 266.420701 
L 205.153667 267.525155 
L 208.801471 269.044216 
L 212.449275 270.416293 
L 216.097079 271.604815 
L 219.744883 273.004592 
L 223.392686 274.371397 
L 227.04049 275.756886 
L 230.688294 277.255576 
L 234.336098 278.570378 
L 237.983902 279.904824 
L 241.631706 281.303922 
L 245.27951 282.473181 
L 248.927314 283.514453 
L 252.575117 284.842906 
L 256.222921 285.923991 
L 259.870725 286.781219 
L 263.518529 287.956648 
L 267.166333 288.697901 
L 270.814137 289.50388 
L 274.461941 290.181854 
L 278.109745 291.06079 
L 281.757549 291.49274 
L 285.405352 292.049604 
L 289.053156 292.498144 
L 292.70096 292.850898 
L 296.348764 293.111963 
L 299.996568 293.442131 
L 303.644372 293.686956 
L 307.292176 293.909803 
L 310.93998 294.07858 
L 314.587783 294.314724 
L 318.235587 294.433206 
L 321.883391 294.50533 
L 325.531195 294.597494 
L 329.178999 294.697447 
L 332.826803 294.717888 
L 336.474607 294.836063 
L 340.122411 294.8942 
L 343.770215 294.927388 
L 347.418018 294.955186 
L 351.065822 295.036677 
L 354.713626 295.026169 
L 358.36143 295.079865 
L 362.009234 295.105027 
L 365.657038 295.132278 
L 369.304842 295.138401 
L 372.952646 295.171037 
L 376.600449 295.19082 
L 380.248253 295.188978 
L 383.896057 295.210239 
L 387.543861 295.242247 
L 391.191665 295.209135 
L 394.839469 295.239753 
L 398.487273 295.244172 
" clip-path="url(#pbb6623e0aa)" style="fill: none; stroke: #ff00ff; stroke-opacity: 0.3; stroke-width: 0.5; stroke-linecap: square"/>
   </g>
   <g id="line2d_33">
    <path d="M 73.832727 247.471567 
L 77.480531 247.650098 
L 81.128335 248.1047 
L 84.776139 248.54734 
L 88.423943 249.373063 
L 92.071747 250.306235 
L 95.719551 251.300357 
L 99.367354 252.258467 
L 103.015158 253.255232 
L 106.662962 254.12003 
L 110.310766 254.973578 
L 113.95857 255.686481 
L 117.606374 256.640856 
L 121.254178 257.693948 
L 124.901982 259.003247 
L 128.549785 260.50264 
L 132.197589 262.088751 
L 135.845393 263.815319 
L 139.493197 265.655891 
L 143.141001 267.40446 
L 146.788805 269.316287 
L 150.436609 271.554188 
L 154.084413 273.302155 
L 157.732217 275.512687 
L 161.38002 277.56237 
L 165.027824 279.507195 
L 168.675628 281.530085 
L 172.323432 283.249438 
L 175.971236 284.897615 
L 179.61904 286.081834 
L 183.266844 287.236105 
L 186.914648 288.199714 
L 190.562451 289.467747 
L 194.210255 290.610479 
L 197.858059 291.409405 
L 201.505863 292.215307 
L 205.153667 292.902603 
L 208.801471 293.405141 
L 212.449275 293.848927 
L 216.097079 294.154584 
L 219.744883 294.366044 
L 223.392686 294.606649 
L 227.04049 294.696707 
L 230.688294 294.86799 
L 234.336098 294.973325 
L 237.983902 295.014642 
L 241.631706 295.103943 
L 245.27951 295.146671 
L 248.927314 295.205061 
L 252.575117 295.233171 
L 256.222921 295.261966 
L 259.870725 295.284211 
L 263.518529 295.326631 
L 267.166333 295.336397 
L 270.814137 295.346648 
L 274.461941 295.376133 
L 278.109745 295.36752 
L 281.757549 295.396195 
L 285.405352 295.410051 
L 289.053156 295.413676 
L 292.70096 295.422939 
L 296.348764 295.421523 
L 299.996568 295.418917 
L 303.644372 295.429639 
L 307.292176 295.438308 
L 310.93998 295.448837 
L 314.587783 295.451832 
L 318.235587 295.448249 
L 321.883391 295.450826 
L 325.531195 295.45438 
L 329.178999 295.460741 
L 332.826803 295.459984 
L 336.474607 295.461417 
L 340.122411 295.46552 
L 343.770215 295.471397 
L 347.418018 295.468725 
L 351.065822 295.470573 
L 354.713626 295.468443 
L 358.36143 295.471088 
L 362.009234 295.473798 
L 365.657038 295.475237 
L 369.304842 295.471484 
L 372.952646 295.479274 
L 376.600449 295.473073 
L 380.248253 295.476562 
L 383.896057 295.486334 
L 387.543861 295.484752 
L 391.191665 295.484016 
L 394.839469 295.480477 
L 398.487273 295.482626 
" clip-path="url(#pbb6623e0aa)" style="fill: none; stroke: #ff00ff; stroke-opacity: 0.3; stroke-width: 0.5; stroke-linecap: square"/>
   </g>
   <g id="line2d_34">
    <path d="M 73.832727 247.399955 
L 77.480531 247.408532 
L 81.128335 247.452714 
L 84.776139 247.611443 
L 88.423943 247.708425 
L 92.071747 247.877926 
L 95.719551 248.025305 
L 99.367354 248.19881 
L 103.015158 248.300732 
L 106.662962 248.430414 
L 110.310766 248.654165 
L 113.95857 248.715563 
L 117.606374 248.986868 
L 121.254178 249.022379 
L 124.901982 249.311189 
L 128.549785 249.429875 
L 132.197589 249.675237 
L 135.845393 249.83843 
L 139.493197 249.934694 
L 143.141001 250.215811 
L 146.788805 250.401331 
L 150.436609 250.688056 
L 154.084413 250.937035 
L 157.732217 251.242242 
L 161.38002 251.559623 
L 165.027824 251.691985 
L 168.675628 252.058146 
L 172.323432 252.386964 
L 175.971236 252.648979 
L 179.61904 253.181225 
L 183.266844 253.388844 
L 186.914648 253.796523 
L 190.562451 254.479369 
L 194.210255 254.916946 
L 197.858059 255.816232 
L 201.505863 256.547968 
L 205.153667 257.41075 
L 208.801471 258.380166 
L 212.449275 259.371155 
L 216.097079 260.146612 
L 219.744883 261.177552 
L 223.392686 262.290308 
L 227.04049 263.412662 
L 230.688294 264.67729 
L 234.336098 265.736391 
L 237.983902 267.287531 
L 241.631706 268.512646 
L 245.27951 269.699289 
L 248.927314 271.458651 
L 252.575117 272.786972 
L 256.222921 274.068389 
L 259.870725 275.615053 
L 263.518529 277.072583 
L 267.166333 278.123783 
L 270.814137 279.885957 
L 274.461941 281.103493 
L 278.109745 282.556182 
L 281.757549 284.064683 
L 285.405352 285.489288 
L 289.053156 286.513053 
L 292.70096 287.830755 
L 296.348764 288.632442 
L 299.996568 289.548601 
L 303.644372 290.539077 
L 307.292176 291.179126 
L 310.93998 291.847095 
L 314.587783 292.466366 
L 318.235587 292.926059 
L 321.883391 293.220701 
L 325.531195 293.6206 
L 329.178999 293.890547 
L 332.826803 294.134266 
L 336.474607 294.286926 
L 340.122411 294.441237 
L 343.770215 294.631522 
L 347.418018 294.731285 
L 351.065822 294.788275 
L 354.713626 294.883065 
L 358.36143 294.93496 
L 362.009234 295.012721 
L 365.657038 295.065027 
L 369.304842 295.07985 
L 372.952646 295.170181 
L 376.600449 295.183582 
L 380.248253 295.198556 
L 383.896057 295.208069 
L 387.543861 295.250321 
L 391.191665 295.280095 
L 394.839469 295.299598 
L 398.487273 295.291815 
" clip-path="url(#pbb6623e0aa)" style="fill: none; stroke: #ff00ff; stroke-opacity: 0.3; stroke-width: 0.5; stroke-linecap: square"/>
   </g>
   <g id="line2d_35">
    <path d="M 73.832727 247.720338 
L 77.480531 247.763578 
L 81.128335 247.7847 
L 84.776139 247.876753 
L 88.423943 247.866152 
L 92.071747 247.93708 
L 95.719551 247.943523 
L 99.367354 248.071902 
L 103.015158 248.143049 
L 106.662962 248.261376 
L 110.310766 248.278718 
L 113.95857 248.493241 
L 117.606374 248.566641 
L 121.254178 248.694185 
L 124.901982 248.733145 
L 128.549785 248.82761 
L 132.197589 248.966097 
L 135.845393 249.075806 
L 139.493197 249.170181 
L 143.141001 249.409482 
L 146.788805 249.544316 
L 150.436609 249.657605 
L 154.084413 249.780918 
L 157.732217 250.078643 
L 161.38002 250.183542 
L 165.027824 250.274231 
L 168.675628 250.538177 
L 172.323432 250.75839 
L 175.971236 250.908203 
L 179.61904 251.044043 
L 183.266844 251.297657 
L 186.914648 251.500767 
L 190.562451 251.846914 
L 194.210255 252.195746 
L 197.858059 252.344044 
L 201.505863 252.900018 
L 205.153667 253.3007 
L 208.801471 253.671134 
L 212.449275 254.156774 
L 216.097079 254.569072 
L 219.744883 255.082868 
L 223.392686 255.69011 
L 227.04049 256.143893 
L 230.688294 257.019024 
L 234.336098 257.641759 
L 237.983902 258.407849 
L 241.631706 259.141588 
L 245.27951 260.0101 
L 248.927314 260.887247 
L 252.575117 261.945478 
L 256.222921 263.240248 
L 259.870725 264.16293 
L 263.518529 265.193333 
L 267.166333 266.6171 
L 270.814137 267.668634 
L 274.461941 269.299533 
L 278.109745 270.438565 
L 281.757549 272.111555 
L 285.405352 273.429179 
L 289.053156 274.855146 
L 292.70096 276.395026 
L 296.348764 277.7301 
L 299.996568 279.290507 
L 303.644372 280.771032 
L 307.292176 281.926956 
L 310.93998 283.337593 
L 314.587783 284.543385 
L 318.235587 285.663855 
L 321.883391 286.790908 
L 325.531195 287.751449 
L 329.178999 288.800203 
L 332.826803 289.617166 
L 336.474607 290.394878 
L 340.122411 291.002995 
L 343.770215 291.615294 
L 347.418018 292.134034 
L 351.065822 292.544567 
L 354.713626 292.973608 
L 358.36143 293.34413 
L 362.009234 293.610874 
L 365.657038 293.865145 
L 369.304842 294.054911 
L 372.952646 294.267227 
L 376.600449 294.384051 
L 380.248253 294.513555 
L 383.896057 294.645131 
L 387.543861 294.718323 
L 391.191665 294.777212 
L 394.839469 294.856928 
L 398.487273 294.919582 
" clip-path="url(#pbb6623e0aa)" style="fill: none; stroke: #ff00ff; stroke-opacity: 0.3; stroke-width: 0.5; stroke-linecap: square"/>
   </g>
   <g id="line2d_36">
    <path d="M 73.832727 248.786372 
L 77.480531 248.780182 
L 81.128335 248.778479 
L 84.776139 248.866444 
L 88.423943 248.832635 
L 92.071747 248.803323 
L 95.719551 248.861027 
L 99.367354 248.963755 
L 103.015158 249.004259 
L 106.662962 249.117854 
L 110.310766 249.023169 
L 113.95857 249.117955 
L 117.606374 249.151271 
L 121.254178 249.253246 
L 124.901982 249.258259 
L 128.549785 249.332702 
L 132.197589 249.42581 
L 135.845393 249.545563 
L 139.493197 249.607746 
L 143.141001 249.839994 
L 146.788805 249.737123 
L 150.436609 249.952423 
L 154.084413 250.027245 
L 157.732217 250.150508 
L 161.38002 250.142362 
L 165.027824 250.330819 
L 168.675628 250.308952 
L 172.323432 250.351032 
L 175.971236 250.359825 
L 179.61904 250.316108 
L 183.266844 250.664173 
L 186.914648 250.556199 
L 190.562451 250.927003 
L 194.210255 250.856748 
L 197.858059 250.921302 
L 201.505863 251.053708 
L 205.153667 251.42977 
L 208.801471 251.540151 
L 212.449275 251.704338 
L 216.097079 252.114383 
L 219.744883 252.38182 
L 223.392686 252.482153 
L 227.04049 252.4756 
L 230.688294 253.236871 
L 234.336098 253.050142 
L 237.983902 253.546628 
L 241.631706 253.736539 
L 245.27951 253.974569 
L 248.927314 254.292724 
L 252.575117 254.551824 
L 256.222921 255.081927 
L 259.870725 255.206929 
L 263.518529 255.526652 
L 267.166333 255.781048 
L 270.814137 256.166131 
L 274.461941 256.464781 
L 278.109745 256.981518 
L 281.757549 257.72462 
L 285.405352 257.877277 
L 289.053156 258.254992 
L 292.70096 258.982769 
L 296.348764 259.065121 
L 299.996568 259.902847 
L 303.644372 260.475605 
L 307.292176 261.320528 
L 310.93998 261.403607 
L 314.587783 262.315488 
L 318.235587 263.42276 
L 321.883391 263.576136 
L 325.531195 264.295189 
L 329.178999 264.638177 
L 332.826803 265.87619 
L 336.474607 267.34465 
L 340.122411 267.010062 
L 343.770215 267.893627 
L 347.418018 268.892459 
L 351.065822 269.5594 
L 354.713626 270.418553 
L 358.36143 271.288249 
L 362.009234 272.30864 
L 365.657038 273.377436 
L 369.304842 274.45238 
L 372.952646 275.101412 
L 376.600449 275.769222 
L 380.248253 276.204022 
L 383.896057 277.226022 
L 387.543861 278.014038 
L 391.191665 279.787969 
L 394.839469 280.236143 
L 398.487273 281.177942 
" clip-path="url(#pbb6623e0aa)" style="fill: none; stroke: #ff00ff; stroke-opacity: 0.3; stroke-width: 0.5; stroke-linecap: square"/>
   </g>
   <g id="line2d_37">
    <path d="M 73.832727 248.315496 
L 77.480531 248.347691 
L 81.128335 248.519767 
L 84.776139 248.589876 
L 88.423943 248.765605 
L 92.071747 249.052717 
L 95.719551 249.314643 
L 99.367354 249.56993 
L 103.015158 250.014273 
L 106.662962 250.336028 
L 110.310766 250.717543 
L 113.95857 250.825399 
L 117.606374 251.196256 
L 121.254178 251.723737 
L 124.901982 251.957442 
L 128.549785 252.47942 
L 132.197589 252.809097 
L 135.845393 253.568389 
L 139.493197 253.87692 
L 143.141001 254.643926 
L 146.788805 255.167159 
L 150.436609 256.081046 
L 154.084413 256.56887 
L 157.732217 257.474807 
L 161.38002 257.9643 
L 165.027824 258.446638 
L 168.675628 259.240194 
L 172.323432 259.845258 
L 175.971236 260.458316 
L 179.61904 261.078457 
L 183.266844 261.964635 
L 186.914648 262.676646 
L 190.562451 263.57784 
L 194.210255 264.620813 
L 197.858059 266.040782 
L 201.505863 267.104801 
L 205.153667 268.384196 
L 208.801471 269.771249 
L 212.449275 270.855772 
L 216.097079 271.926499 
L 219.744883 273.090782 
L 223.392686 274.344089 
L 227.04049 275.483389 
L 230.688294 276.581895 
L 234.336098 277.689594 
L 237.983902 278.785494 
L 241.631706 279.898716 
L 245.27951 280.966384 
L 248.927314 282.114794 
L 252.575117 282.993029 
L 256.222921 284.159981 
L 259.870725 285.074553 
L 263.518529 286.171917 
L 267.166333 287.006733 
L 270.814137 288.054164 
L 274.461941 288.82914 
L 278.109745 289.601995 
L 281.757549 290.380232 
L 285.405352 291.097187 
L 289.053156 291.578006 
L 292.70096 292.095051 
L 296.348764 292.462362 
L 299.996568 292.812824 
L 303.644372 293.18266 
L 307.292176 293.560406 
L 310.93998 293.742693 
L 314.587783 293.968906 
L 318.235587 294.089416 
L 321.883391 294.267944 
L 325.531195 294.457335 
L 329.178999 294.566581 
L 332.826803 294.669643 
L 336.474607 294.753929 
L 340.122411 294.856492 
L 343.770215 294.869462 
L 347.418018 294.944287 
L 351.065822 295.00375 
L 354.713626 295.00671 
L 358.36143 295.079584 
L 362.009234 295.117345 
L 365.657038 295.15097 
L 369.304842 295.162356 
L 372.952646 295.18189 
L 376.600449 295.184831 
L 380.248253 295.211352 
L 383.896057 295.252862 
L 387.543861 295.271176 
L 391.191665 295.232995 
L 394.839469 295.246675 
L 398.487273 295.267614 
" clip-path="url(#pbb6623e0aa)" style="fill: none; stroke: #ff00ff; stroke-opacity: 0.3; stroke-width: 0.5; stroke-linecap: square"/>
   </g>
   <g id="line2d_38">
    <path d="M 73.832727 248.868158 
L 77.480531 249.019805 
L 81.128335 249.260927 
L 84.776139 249.615823 
L 88.423943 250.176187 
L 92.071747 250.635998 
L 95.719551 251.145387 
L 99.367354 251.59041 
L 103.015158 252.3563 
L 106.662962 253.090532 
L 110.310766 253.841662 
L 113.95857 254.757773 
L 117.606374 255.615044 
L 121.254178 256.968778 
L 124.901982 258.277592 
L 128.549785 259.558345 
L 132.197589 260.795625 
L 135.845393 262.543486 
L 139.493197 264.342832 
L 143.141001 265.958159 
L 146.788805 267.872866 
L 150.436609 269.733806 
L 154.084413 271.469022 
L 157.732217 273.806072 
L 161.38002 275.524174 
L 165.027824 277.357091 
L 168.675628 279.59756 
L 172.323432 281.108511 
L 175.971236 282.918639 
L 179.61904 284.032432 
L 183.266844 285.229264 
L 186.914648 286.327464 
L 190.562451 287.944896 
L 194.210255 289.414858 
L 197.858059 290.357665 
L 201.505863 291.306769 
L 205.153667 291.999331 
L 208.801471 292.684491 
L 212.449275 293.182352 
L 216.097079 293.623385 
L 219.744883 293.938904 
L 223.392686 294.267513 
L 227.04049 294.426985 
L 230.688294 294.652911 
L 234.336098 294.762379 
L 237.983902 294.905116 
L 241.631706 294.961116 
L 245.27951 295.062278 
L 248.927314 295.091203 
L 252.575117 295.136876 
L 256.222921 295.198465 
L 259.870725 295.210271 
L 263.518529 295.262765 
L 267.166333 295.256222 
L 270.814137 295.313438 
L 274.461941 295.327787 
L 278.109745 295.343813 
L 281.757549 295.369559 
L 285.405352 295.384666 
L 289.053156 295.384982 
L 292.70096 295.388958 
L 296.348764 295.402968 
L 299.996568 295.397443 
L 303.644372 295.411439 
L 307.292176 295.416374 
L 310.93998 295.424155 
L 314.587783 295.433393 
L 318.235587 295.429614 
L 321.883391 295.439181 
L 325.531195 295.437003 
L 329.178999 295.445009 
L 332.826803 295.447974 
L 336.474607 295.441642 
L 340.122411 295.447431 
L 343.770215 295.456727 
L 347.418018 295.462018 
L 351.065822 295.459292 
L 354.713626 295.460373 
L 358.36143 295.461525 
L 362.009234 295.467366 
L 365.657038 295.464334 
L 369.304842 295.465415 
L 372.952646 295.470745 
L 376.600449 295.470363 
L 380.248253 295.463082 
L 383.896057 295.470509 
L 387.543861 295.473304 
L 391.191665 295.467427 
L 394.839469 295.476104 
L 398.487273 295.474081 
" clip-path="url(#pbb6623e0aa)" style="fill: none; stroke: #ff00ff; stroke-opacity: 0.3; stroke-width: 0.5; stroke-linecap: square"/>
   </g>
   <g id="line2d_39">
    <path d="M 73.832727 250.004885 
L 77.480531 250.042249 
L 81.128335 250.160523 
L 84.776139 250.469388 
L 88.423943 250.538035 
L 92.071747 250.77664 
L 95.719551 251.056376 
L 99.367354 251.462108 
L 103.015158 251.817191 
L 106.662962 252.113479 
L 110.310766 252.723862 
L 113.95857 253.023831 
L 117.606374 253.634438 
L 121.254178 254.283442 
L 124.901982 254.673213 
L 128.549785 255.383473 
L 132.197589 255.939215 
L 135.845393 256.840493 
L 139.493197 257.554642 
L 143.141001 258.516018 
L 146.788805 258.989302 
L 150.436609 259.997181 
L 154.084413 260.986916 
L 157.732217 261.721979 
L 161.38002 262.587115 
L 165.027824 263.360903 
L 168.675628 263.711098 
L 172.323432 264.90966 
L 175.971236 265.280688 
L 179.61904 265.962788 
L 183.266844 266.642616 
L 186.914648 266.925293 
L 190.562451 267.985703 
L 194.210255 269.059177 
L 197.858059 269.983092 
L 201.505863 270.998021 
L 205.153667 271.875074 
L 208.801471 272.611768 
L 212.449275 273.367262 
L 216.097079 274.152736 
L 219.744883 274.655116 
L 223.392686 275.494948 
L 227.04049 276.07635 
L 230.688294 276.609313 
L 234.336098 277.224837 
L 237.983902 277.678248 
L 241.631706 278.161308 
L 245.27951 278.677491 
L 248.927314 279.214107 
L 252.575117 279.557894 
L 256.222921 280.146918 
L 259.870725 280.501177 
L 263.518529 281.084895 
L 267.166333 281.496397 
L 270.814137 282.029959 
L 274.461941 282.461105 
L 278.109745 282.909885 
L 281.757549 283.382717 
L 285.405352 283.784056 
L 289.053156 284.201152 
L 292.70096 284.643844 
L 296.348764 285.137411 
L 299.996568 285.583626 
L 303.644372 285.986199 
L 307.292176 286.386586 
L 310.93998 286.874912 
L 314.587783 287.228029 
L 318.235587 287.640749 
L 321.883391 288.0965 
L 325.531195 288.480831 
L 329.178999 288.830034 
L 332.826803 289.241213 
L 336.474607 289.645089 
L 340.122411 290.030002 
L 343.770215 290.301504 
L 347.418018 290.656551 
L 351.065822 290.952352 
L 354.713626 291.207215 
L 358.36143 291.54017 
L 362.009234 291.821186 
L 365.657038 291.997906 
L 369.304842 292.327265 
L 372.952646 292.531411 
L 376.600449 292.635497 
L 380.248253 292.888027 
L 383.896057 293.135337 
L 387.543861 293.24365 
L 391.191665 293.415207 
L 394.839469 293.483867 
L 398.487273 293.705654 
" clip-path="url(#pbb6623e0aa)" style="fill: none; stroke: #ff00ff; stroke-opacity: 0.3; stroke-width: 0.5; stroke-linecap: square"/>
   </g>
   <g id="line2d_40">
    <path d="M 73.832727 247.500138 
L 77.480531 247.463022 
L 81.128335 247.66891 
L 84.776139 247.790479 
L 88.423943 248.075767 
L 92.071747 248.429196 
L 95.719551 248.678085 
L 99.367354 249.281169 
L 103.015158 249.830858 
L 106.662962 250.422494 
L 110.310766 250.852667 
L 113.95857 251.334776 
L 117.606374 252.154574 
L 121.254178 252.640218 
L 124.901982 253.422713 
L 128.549785 253.906533 
L 132.197589 254.501736 
L 135.845393 255.189025 
L 139.493197 255.706051 
L 143.141001 256.344328 
L 146.788805 256.719372 
L 150.436609 257.80832 
L 154.084413 258.362066 
L 157.732217 259.009523 
L 161.38002 259.835723 
L 165.027824 260.964931 
L 168.675628 261.800827 
L 172.323432 262.607367 
L 175.971236 263.905385 
L 179.61904 264.568143 
L 183.266844 265.559988 
L 186.914648 266.42374 
L 190.562451 267.728789 
L 194.210255 269.186629 
L 197.858059 270.719362 
L 201.505863 272.129667 
L 205.153667 273.841277 
L 208.801471 275.173246 
L 212.449275 276.878005 
L 216.097079 278.538143 
L 219.744883 279.794786 
L 223.392686 281.7422 
L 227.04049 282.932325 
L 230.688294 284.220907 
L 234.336098 285.306813 
L 237.983902 286.604649 
L 241.631706 287.655114 
L 245.27951 288.692662 
L 248.927314 289.676687 
L 252.575117 290.369717 
L 256.222921 291.146011 
L 259.870725 291.679853 
L 263.518529 292.345748 
L 267.166333 292.709685 
L 270.814137 293.126519 
L 274.461941 293.38512 
L 278.109745 293.74393 
L 281.757549 293.956098 
L 285.405352 294.194698 
L 289.053156 294.392832 
L 292.70096 294.476967 
L 296.348764 294.571146 
L 299.996568 294.710318 
L 303.644372 294.815961 
L 307.292176 294.834798 
L 310.93998 294.94652 
L 314.587783 294.991139 
L 318.235587 295.039256 
L 321.883391 295.084887 
L 325.531195 295.121734 
L 329.178999 295.165569 
L 332.826803 295.187636 
L 336.474607 295.21201 
L 340.122411 295.238206 
L 343.770215 295.215646 
L 347.418018 295.282039 
L 351.065822 295.273592 
L 354.713626 295.298172 
L 358.36143 295.279763 
L 362.009234 295.315932 
L 365.657038 295.328628 
L 369.304842 295.332491 
L 372.952646 295.33148 
L 376.600449 295.348128 
L 380.248253 295.353726 
L 383.896057 295.370406 
L 387.543861 295.367316 
L 391.191665 295.343603 
L 394.839469 295.363818 
L 398.487273 295.380136 
" clip-path="url(#pbb6623e0aa)" style="fill: none; stroke: #ff00ff; stroke-opacity: 0.3; stroke-width: 0.5; stroke-linecap: square"/>
   </g>
   <g id="line2d_41">
    <path d="M 73.832727 247.920149 
L 77.480531 247.945905 
L 81.128335 248.105335 
L 84.776139 248.187247 
L 88.423943 248.155113 
L 92.071747 248.281879 
L 95.719551 248.457335 
L 99.367354 248.907868 
L 103.015158 248.896191 
L 106.662962 249.190553 
L 110.310766 249.533165 
L 113.95857 249.620168 
L 117.606374 250.044346 
L 121.254178 250.158482 
L 124.901982 250.449781 
L 128.549785 250.769325 
L 132.197589 250.934782 
L 135.845393 251.00099 
L 139.493197 251.188636 
L 143.141001 251.438176 
L 146.788805 251.492271 
L 150.436609 251.61505 
L 154.084413 251.784222 
L 157.732217 252.075044 
L 161.38002 252.345006 
L 165.027824 252.432261 
L 168.675628 252.785846 
L 172.323432 252.762077 
L 175.971236 253.214206 
L 179.61904 253.411004 
L 183.266844 253.33613 
L 186.914648 253.453504 
L 190.562451 254.021781 
L 194.210255 254.498389 
L 197.858059 254.683163 
L 201.505863 255.323521 
L 205.153667 255.807843 
L 208.801471 256.067052 
L 212.449275 256.536731 
L 216.097079 257.089341 
L 219.744883 257.222627 
L 223.392686 258.180122 
L 227.04049 258.192813 
L 230.688294 259.27195 
L 234.336098 260.067734 
L 237.983902 260.464727 
L 241.631706 261.199162 
L 245.27951 262.126928 
L 248.927314 263.235676 
L 252.575117 263.445118 
L 256.222921 263.946655 
L 259.870725 265.1454 
L 263.518529 265.685744 
L 267.166333 266.374224 
L 270.814137 267.44132 
L 274.461941 267.795239 
L 278.109745 268.817412 
L 281.757549 269.716003 
L 285.405352 270.887479 
L 289.053156 271.894795 
L 292.70096 273.033095 
L 296.348764 272.79439 
L 299.996568 274.618176 
L 303.644372 275.275336 
L 307.292176 275.992493 
L 310.93998 277.510098 
L 314.587783 278.374865 
L 318.235587 279.231859 
L 321.883391 280.075211 
L 325.531195 281.152637 
L 329.178999 281.725771 
L 332.826803 282.734615 
L 336.474607 283.619449 
L 340.122411 284.033427 
L 343.770215 284.570228 
L 347.418018 285.115996 
L 351.065822 286.163215 
L 354.713626 286.359497 
L 358.36143 287.683137 
L 362.009234 288.590815 
L 365.657038 288.318745 
L 369.304842 289.223711 
L 372.952646 289.459282 
L 376.600449 289.814822 
L 380.248253 290.129517 
L 383.896057 290.451524 
L 387.543861 291.106143 
L 391.191665 291.575628 
L 394.839469 291.75524 
L 398.487273 291.675416 
" clip-path="url(#pbb6623e0aa)" style="fill: none; stroke: #ff00ff; stroke-opacity: 0.3; stroke-width: 0.5; stroke-linecap: square"/>
   </g>
   <g id="line2d_42">
    <path d="M 73.832727 244.917054 
L 77.480531 245.407329 
L 81.128335 245.949623 
L 84.776139 246.627149 
L 88.423943 247.712705 
L 92.071747 248.571654 
L 95.719551 249.174103 
L 99.367354 249.840625 
L 103.015158 250.732686 
L 106.662962 251.348485 
L 110.310766 251.987658 
L 113.95857 252.795339 
L 117.606374 253.367417 
L 121.254178 254.189524 
L 124.901982 254.99202 
L 128.549785 255.761506 
L 132.197589 256.511496 
L 135.845393 257.505829 
L 139.493197 258.419705 
L 143.141001 259.357316 
L 146.788805 260.294052 
L 150.436609 261.446169 
L 154.084413 262.751231 
L 157.732217 263.848667 
L 161.38002 265.116585 
L 165.027824 266.479382 
L 168.675628 267.766069 
L 172.323432 269.244923 
L 175.971236 270.401036 
L 179.61904 271.850022 
L 183.266844 272.941936 
L 186.914648 274.513314 
L 190.562451 276.187627 
L 194.210255 278.000314 
L 197.858059 279.616299 
L 201.505863 281.388252 
L 205.153667 282.97022 
L 208.801471 284.502122 
L 212.449275 285.82887 
L 216.097079 287.096396 
L 219.744883 288.309453 
L 223.392686 289.359621 
L 227.04049 290.197442 
L 230.688294 291.009533 
L 234.336098 291.645198 
L 237.983902 292.286882 
L 241.631706 292.830141 
L 245.27951 293.264818 
L 248.927314 293.575205 
L 252.575117 293.870115 
L 256.222921 294.04061 
L 259.870725 294.253864 
L 263.518529 294.459347 
L 267.166333 294.518737 
L 270.814137 294.687549 
L 274.461941 294.748565 
L 278.109745 294.893261 
L 281.757549 294.959617 
L 285.405352 295.022612 
L 289.053156 295.067512 
L 292.70096 295.11812 
L 296.348764 295.132633 
L 299.996568 295.16666 
L 303.644372 295.19962 
L 307.292176 295.211819 
L 310.93998 295.248635 
L 314.587783 295.266303 
L 318.235587 295.291965 
L 321.883391 295.296518 
L 325.531195 295.314809 
L 329.178999 295.311696 
L 332.826803 295.335005 
L 336.474607 295.343347 
L 340.122411 295.343485 
L 343.770215 295.353067 
L 347.418018 295.347216 
L 351.065822 295.374428 
L 354.713626 295.365501 
L 358.36143 295.385939 
L 362.009234 295.379731 
L 365.657038 295.397989 
L 369.304842 295.387567 
L 372.952646 295.390219 
L 376.600449 295.405996 
L 380.248253 295.39396 
L 383.896057 295.405346 
L 387.543861 295.404244 
L 391.191665 295.410194 
L 394.839469 295.424578 
L 398.487273 295.418475 
" clip-path="url(#pbb6623e0aa)" style="fill: none; stroke: #ff00ff; stroke-opacity: 0.3; stroke-width: 0.5; stroke-linecap: square"/>
   </g>
   <g id="line2d_43">
    <path d="M 73.832727 246.561365 
L 77.480531 246.734309 
L 81.128335 247.557849 
L 84.776139 248.379369 
L 88.423943 249.366087 
L 92.071747 249.871114 
L 95.719551 250.50342 
L 99.367354 250.986678 
L 103.015158 251.552459 
L 106.662962 252.200613 
L 110.310766 252.8596 
L 113.95857 253.615129 
L 117.606374 254.416615 
L 121.254178 255.364197 
L 124.901982 256.296073 
L 128.549785 257.355828 
L 132.197589 258.468089 
L 135.845393 259.765447 
L 139.493197 261.117763 
L 143.141001 262.389837 
L 146.788805 263.678302 
L 150.436609 265.29122 
L 154.084413 266.685095 
L 157.732217 268.455486 
L 161.38002 269.64926 
L 165.027824 271.077538 
L 168.675628 272.372387 
L 172.323432 274.065625 
L 175.971236 275.359988 
L 179.61904 276.622531 
L 183.266844 277.927833 
L 186.914648 279.478277 
L 190.562451 281.125696 
L 194.210255 282.922792 
L 197.858059 284.499256 
L 201.505863 286.040447 
L 205.153667 287.321473 
L 208.801471 288.590321 
L 212.449275 289.642588 
L 216.097079 290.556838 
L 219.744883 291.386365 
L 223.392686 292.161225 
L 227.04049 292.658478 
L 230.688294 293.147733 
L 234.336098 293.588957 
L 237.983902 293.914254 
L 241.631706 294.131438 
L 245.27951 294.347258 
L 248.927314 294.49413 
L 252.575117 294.627388 
L 256.222921 294.775485 
L 259.870725 294.843344 
L 263.518529 294.96066 
L 267.166333 295.005096 
L 270.814137 295.056174 
L 274.461941 295.11937 
L 278.109745 295.19365 
L 281.757549 295.214576 
L 285.405352 295.252731 
L 289.053156 295.253772 
L 292.70096 295.280462 
L 296.348764 295.31195 
L 299.996568 295.318441 
L 303.644372 295.337169 
L 307.292176 295.335332 
L 310.93998 295.355947 
L 314.587783 295.368116 
L 318.235587 295.37514 
L 321.883391 295.390658 
L 325.531195 295.390417 
L 329.178999 295.391996 
L 332.826803 295.402647 
L 336.474607 295.406598 
L 340.122411 295.417401 
L 343.770215 295.41975 
L 347.418018 295.421904 
L 351.065822 295.426843 
L 354.713626 295.426715 
L 358.36143 295.415874 
L 362.009234 295.434773 
L 365.657038 295.43784 
L 369.304842 295.432271 
L 372.952646 295.449675 
L 376.600449 295.436752 
L 380.248253 295.446446 
L 383.896057 295.450928 
L 387.543861 295.453102 
L 391.191665 295.455491 
L 394.839469 295.456685 
L 398.487273 295.448284 
" clip-path="url(#pbb6623e0aa)" style="fill: none; stroke: #ff00ff; stroke-opacity: 0.3; stroke-width: 0.5; stroke-linecap: square"/>
   </g>
   <g id="line2d_44">
    <path d="M 73.832727 249.131514 
L 77.480531 249.222626 
L 81.128335 249.552731 
L 84.776139 249.819365 
L 88.423943 250.453247 
L 92.071747 250.719735 
L 95.719551 251.188697 
L 99.367354 251.709119 
L 103.015158 252.145695 
L 106.662962 252.668968 
L 110.310766 253.344646 
L 113.95857 254.048841 
L 117.606374 254.750511 
L 121.254178 255.774947 
L 124.901982 256.740998 
L 128.549785 257.61039 
L 132.197589 259.03183 
L 135.845393 260.426015 
L 139.493197 261.663797 
L 143.141001 263.217053 
L 146.788805 264.686646 
L 150.436609 266.384325 
L 154.084413 268.010942 
L 157.732217 269.529416 
L 161.38002 271.407802 
L 165.027824 273.248652 
L 168.675628 275.144663 
L 172.323432 277.040634 
L 175.971236 278.829801 
L 179.61904 280.313857 
L 183.266844 281.981515 
L 186.914648 283.125054 
L 190.562451 285.048241 
L 194.210255 286.860563 
L 197.858059 288.363096 
L 201.505863 289.85571 
L 205.153667 290.618909 
L 208.801471 291.665496 
L 212.449275 292.380649 
L 216.097079 292.90977 
L 219.744883 293.412761 
L 223.392686 293.860064 
L 227.04049 294.12717 
L 230.688294 294.402764 
L 234.336098 294.601577 
L 237.983902 294.759312 
L 241.631706 294.882363 
L 245.27951 294.995112 
L 248.927314 295.057363 
L 252.575117 295.130207 
L 256.222921 295.185584 
L 259.870725 295.21288 
L 263.518529 295.26939 
L 267.166333 295.274849 
L 270.814137 295.300784 
L 274.461941 295.322497 
L 278.109745 295.356083 
L 281.757549 295.378678 
L 285.405352 295.389593 
L 289.053156 295.398602 
L 292.70096 295.413906 
L 296.348764 295.408964 
L 299.996568 295.421455 
L 303.644372 295.402862 
L 307.292176 295.432549 
L 310.93998 295.439498 
L 314.587783 295.446987 
L 318.235587 295.445775 
L 321.883391 295.448958 
L 325.531195 295.449348 
L 329.178999 295.456668 
L 332.826803 295.463761 
L 336.474607 295.460537 
L 340.122411 295.464957 
L 343.770215 295.469305 
L 347.418018 295.470304 
L 351.065822 295.470096 
L 354.713626 295.473014 
L 358.36143 295.474462 
L 362.009234 295.478001 
L 365.657038 295.478524 
L 369.304842 295.477435 
L 372.952646 295.48458 
L 376.600449 295.482426 
L 380.248253 295.477854 
L 383.896057 295.484873 
L 387.543861 295.484234 
L 391.191665 295.486889 
L 394.839469 295.487058 
L 398.487273 295.488 
" clip-path="url(#pbb6623e0aa)" style="fill: none; stroke: #ff00ff; stroke-opacity: 0.3; stroke-width: 0.5; stroke-linecap: square"/>
   </g>
   <g id="line2d_45">
    <path d="M 73.832727 247.582204 
L 77.480531 247.640967 
L 81.128335 247.62826 
L 84.776139 247.756508 
L 88.423943 247.870465 
L 92.071747 247.876929 
L 95.719551 248.020421 
L 99.367354 248.098929 
L 103.015158 248.206015 
L 106.662962 248.344783 
L 110.310766 248.508017 
L 113.95857 248.580545 
L 117.606374 248.600127 
L 121.254178 248.72636 
L 124.901982 248.8141 
L 128.549785 248.96044 
L 132.197589 249.045737 
L 135.845393 249.104898 
L 139.493197 249.228548 
L 143.141001 249.296922 
L 146.788805 249.427492 
L 150.436609 249.582568 
L 154.084413 249.727564 
L 157.732217 249.783015 
L 161.38002 249.930161 
L 165.027824 250.085864 
L 168.675628 250.267821 
L 172.323432 250.419117 
L 175.971236 250.677447 
L 179.61904 250.745544 
L 183.266844 251.024266 
L 186.914648 251.225169 
L 190.562451 251.415727 
L 194.210255 251.795728 
L 197.858059 252.234641 
L 201.505863 252.652922 
L 205.153667 253.0306 
L 208.801471 253.617255 
L 212.449275 254.104296 
L 216.097079 254.667744 
L 219.744883 255.393643 
L 223.392686 256.180149 
L 227.04049 256.979815 
L 230.688294 257.962508 
L 234.336098 258.916928 
L 237.983902 260.21519 
L 241.631706 261.250565 
L 245.27951 262.538912 
L 248.927314 264.137844 
L 252.575117 265.580417 
L 256.222921 267.332389 
L 259.870725 269.034225 
L 263.518529 270.851618 
L 267.166333 272.729055 
L 270.814137 274.786482 
L 274.461941 276.838964 
L 278.109745 278.764734 
L 281.757549 280.706402 
L 285.405352 282.650025 
L 289.053156 284.174525 
L 292.70096 285.997403 
L 296.348764 287.41565 
L 299.996568 288.714059 
L 303.644372 289.866786 
L 307.292176 290.834307 
L 310.93998 291.648235 
L 314.587783 292.396294 
L 318.235587 292.911155 
L 321.883391 293.41294 
L 325.531195 293.775905 
L 329.178999 294.069962 
L 332.826803 294.255489 
L 336.474607 294.494326 
L 340.122411 294.655136 
L 343.770215 294.789103 
L 347.418018 294.910162 
L 351.065822 294.989574 
L 354.713626 295.036085 
L 358.36143 295.091445 
L 362.009234 295.129428 
L 365.657038 295.220249 
L 369.304842 295.209374 
L 372.952646 295.262759 
L 376.600449 295.285931 
L 380.248253 295.307757 
L 383.896057 295.334771 
L 387.543861 295.347707 
L 391.191665 295.343724 
L 394.839469 295.362777 
L 398.487273 295.377376 
" clip-path="url(#pbb6623e0aa)" style="fill: none; stroke: #ff00ff; stroke-opacity: 0.3; stroke-width: 0.5; stroke-linecap: square"/>
   </g>
   <g id="line2d_46">
    <path d="M 73.832727 247.684994 
L 77.480531 247.660015 
L 81.128335 247.662581 
L 84.776139 247.735317 
L 88.423943 247.807923 
L 92.071747 247.878244 
L 95.719551 247.988686 
L 99.367354 248.052641 
L 103.015158 248.091944 
L 106.662962 248.138924 
L 110.310766 248.221642 
L 113.95857 248.219976 
L 117.606374 248.284921 
L 121.254178 248.356643 
L 124.901982 248.326806 
L 128.549785 248.374136 
L 132.197589 248.378323 
L 135.845393 248.412726 
L 139.493197 248.444616 
L 143.141001 248.504677 
L 146.788805 248.535382 
L 150.436609 248.564022 
L 154.084413 248.604314 
L 157.732217 248.712394 
L 161.38002 248.701015 
L 165.027824 248.764416 
L 168.675628 248.777665 
L 172.323432 248.792107 
L 175.971236 248.883464 
L 179.61904 248.919708 
L 183.266844 248.953227 
L 186.914648 248.972809 
L 190.562451 249.064036 
L 194.210255 249.107484 
L 197.858059 249.16959 
L 201.505863 249.278359 
L 205.153667 249.428901 
L 208.801471 249.467129 
L 212.449275 249.620506 
L 216.097079 249.716779 
L 219.744883 249.897803 
L 223.392686 250.02955 
L 227.04049 250.148814 
L 230.688294 250.364485 
L 234.336098 250.425096 
L 237.983902 250.648424 
L 241.631706 250.875906 
L 245.27951 251.018584 
L 248.927314 251.324847 
L 252.575117 251.710032 
L 256.222921 251.879497 
L 259.870725 252.215022 
L 263.518529 252.556628 
L 267.166333 252.797221 
L 270.814137 253.245807 
L 274.461941 253.633721 
L 278.109745 254.074752 
L 281.757549 254.623338 
L 285.405352 255.229823 
L 289.053156 255.893107 
L 292.70096 256.522468 
L 296.348764 257.261612 
L 299.996568 257.875273 
L 303.644372 258.587769 
L 307.292176 259.521258 
L 310.93998 260.438632 
L 314.587783 261.445385 
L 318.235587 262.320608 
L 321.883391 263.547689 
L 325.531195 264.519406 
L 329.178999 265.702962 
L 332.826803 267.271705 
L 336.474607 268.493375 
L 340.122411 270.238401 
L 343.770215 271.616944 
L 347.418018 272.968725 
L 351.065822 274.788761 
L 354.713626 275.897214 
L 358.36143 277.903314 
L 362.009234 279.451644 
L 365.657038 281.13995 
L 369.304842 282.441651 
L 372.952646 283.942223 
L 376.600449 285.078982 
L 380.248253 286.298721 
L 383.896057 287.543834 
L 387.543861 288.610965 
L 391.191665 289.403074 
L 394.839469 290.373306 
L 398.487273 290.73606 
" clip-path="url(#pbb6623e0aa)" style="fill: none; stroke: #ff00ff; stroke-opacity: 0.3; stroke-width: 0.5; stroke-linecap: square"/>
   </g>
   <g id="line2d_47">
    <path d="M 73.832727 246.243422 
L 77.480531 246.419493 
L 81.128335 246.65539 
L 84.776139 246.94822 
L 88.423943 247.191623 
L 92.071747 247.734674 
L 95.719551 247.959301 
L 99.367354 248.342731 
L 103.015158 248.587457 
L 106.662962 248.853899 
L 110.310766 249.100035 
L 113.95857 249.269659 
L 117.606374 249.306937 
L 121.254178 249.525977 
L 124.901982 249.713134 
L 128.549785 249.882176 
L 132.197589 250.343192 
L 135.845393 250.625111 
L 139.493197 251.070924 
L 143.141001 251.62838 
L 146.788805 251.891112 
L 150.436609 252.226304 
L 154.084413 252.868755 
L 157.732217 253.578107 
L 161.38002 254.220322 
L 165.027824 254.990819 
L 168.675628 255.699848 
L 172.323432 256.679564 
L 175.971236 257.429697 
L 179.61904 258.256198 
L 183.266844 259.322506 
L 186.914648 260.309321 
L 190.562451 261.575059 
L 194.210255 263.096372 
L 197.858059 264.738289 
L 201.505863 266.538014 
L 205.153667 268.350538 
L 208.801471 270.311137 
L 212.449275 272.179536 
L 216.097079 274.094736 
L 219.744883 276.149846 
L 223.392686 278.386004 
L 227.04049 280.33643 
L 230.688294 282.414167 
L 234.336098 284.145593 
L 237.983902 285.866879 
L 241.631706 287.326471 
L 245.27951 288.770963 
L 248.927314 290.027349 
L 252.575117 290.927083 
L 256.222921 291.820281 
L 259.870725 292.420973 
L 263.518529 293.021468 
L 267.166333 293.452104 
L 270.814137 293.838701 
L 274.461941 294.129333 
L 278.109745 294.372292 
L 281.757549 294.588811 
L 285.405352 294.747043 
L 289.053156 294.860559 
L 292.70096 294.965891 
L 296.348764 294.999054 
L 299.996568 295.063994 
L 303.644372 295.130261 
L 307.292176 295.197853 
L 310.93998 295.224938 
L 314.587783 295.266035 
L 318.235587 295.291258 
L 321.883391 295.314535 
L 325.531195 295.316059 
L 329.178999 295.335896 
L 332.826803 295.352721 
L 336.474607 295.378013 
L 340.122411 295.384899 
L 343.770215 295.396203 
L 347.418018 295.409639 
L 351.065822 295.403712 
L 354.713626 295.415529 
L 358.36143 295.432268 
L 362.009234 295.434277 
L 365.657038 295.430984 
L 369.304842 295.431805 
L 372.952646 295.436759 
L 376.600449 295.443997 
L 380.248253 295.444373 
L 383.896057 295.460317 
L 387.543861 295.454483 
L 391.191665 295.460131 
L 394.839469 295.463023 
L 398.487273 295.460543 
" clip-path="url(#pbb6623e0aa)" style="fill: none; stroke: #ff00ff; stroke-opacity: 0.3; stroke-width: 0.5; stroke-linecap: square"/>
   </g>
   <g id="line2d_48">
    <path d="M 73.832727 247.882814 
L 77.480531 247.893236 
L 81.128335 248.006215 
L 84.776139 248.208182 
L 88.423943 248.330178 
L 92.071747 248.340397 
L 95.719551 248.486932 
L 99.367354 248.636542 
L 103.015158 248.988322 
L 106.662962 249.047614 
L 110.310766 249.358878 
L 113.95857 249.512166 
L 117.606374 249.761796 
L 121.254178 250.117885 
L 124.901982 250.444511 
L 128.549785 250.798722 
L 132.197589 251.298817 
L 135.845393 251.564918 
L 139.493197 252.193212 
L 143.141001 252.514182 
L 146.788805 253.046395 
L 150.436609 253.649609 
L 154.084413 253.986482 
L 157.732217 254.653937 
L 161.38002 255.037762 
L 165.027824 255.390882 
L 168.675628 256.244206 
L 172.323432 256.845657 
L 175.971236 257.776728 
L 179.61904 258.31417 
L 183.266844 258.996889 
L 186.914648 259.616114 
L 190.562451 260.477719 
L 194.210255 261.583374 
L 197.858059 262.632244 
L 201.505863 263.888827 
L 205.153667 264.717363 
L 208.801471 265.973567 
L 212.449275 266.803247 
L 216.097079 267.845493 
L 219.744883 268.697419 
L 223.392686 269.508667 
L 227.04049 270.323388 
L 230.688294 271.281036 
L 234.336098 272.079677 
L 237.983902 272.947127 
L 241.631706 273.821245 
L 245.27951 274.463862 
L 248.927314 275.246778 
L 252.575117 276.002066 
L 256.222921 276.867783 
L 259.870725 277.575157 
L 263.518529 278.491689 
L 267.166333 279.158094 
L 270.814137 280.033266 
L 274.461941 280.828865 
L 278.109745 281.708465 
L 281.757549 282.539018 
L 285.405352 283.439847 
L 289.053156 284.275719 
L 292.70096 285.131069 
L 296.348764 285.989834 
L 299.996568 286.835324 
L 303.644372 287.681652 
L 307.292176 288.403791 
L 310.93998 289.191085 
L 314.587783 289.863681 
L 318.235587 290.491514 
L 321.883391 291.145484 
L 325.531195 291.652466 
L 329.178999 292.128993 
L 332.826803 292.514578 
L 336.474607 292.890881 
L 340.122411 293.201665 
L 343.770215 293.413214 
L 347.418018 293.624614 
L 351.065822 293.919538 
L 354.713626 294.092659 
L 358.36143 294.192956 
L 362.009234 294.380731 
L 365.657038 294.409132 
L 369.304842 294.535691 
L 372.952646 294.624319 
L 376.600449 294.693651 
L 380.248253 294.731289 
L 383.896057 294.825321 
L 387.543861 294.815883 
L 391.191665 294.879971 
L 394.839469 294.968448 
L 398.487273 295.013337 
" clip-path="url(#pbb6623e0aa)" style="fill: none; stroke: #ff00ff; stroke-opacity: 0.3; stroke-width: 0.5; stroke-linecap: square"/>
   </g>
   <g id="line2d_49">
    <path d="M 73.832727 247.480727 
L 77.480531 247.533058 
L 81.128335 247.710208 
L 84.776139 247.897268 
L 88.423943 248.033365 
L 92.071747 248.194863 
L 95.719551 248.290586 
L 99.367354 248.471313 
L 103.015158 248.81162 
L 106.662962 248.950771 
L 110.310766 249.038902 
L 113.95857 249.070776 
L 117.606374 249.1932 
L 121.254178 249.409401 
L 124.901982 249.500872 
L 128.549785 249.731938 
L 132.197589 249.8108 
L 135.845393 249.903065 
L 139.493197 250.328917 
L 143.141001 250.263491 
L 146.788805 250.533978 
L 150.436609 250.580245 
L 154.084413 250.789893 
L 157.732217 251.016454 
L 161.38002 251.279109 
L 165.027824 251.375362 
L 168.675628 251.740443 
L 172.323432 252.054574 
L 175.971236 252.284879 
L 179.61904 252.663686 
L 183.266844 252.712784 
L 186.914648 252.905337 
L 190.562451 253.111336 
L 194.210255 253.873088 
L 197.858059 254.269061 
L 201.505863 254.844071 
L 205.153667 255.631006 
L 208.801471 256.050284 
L 212.449275 256.773894 
L 216.097079 257.461232 
L 219.744883 258.191933 
L 223.392686 258.972738 
L 227.04049 260.066932 
L 230.688294 260.931192 
L 234.336098 261.705039 
L 237.983902 262.831862 
L 241.631706 263.934666 
L 245.27951 265.026896 
L 248.927314 266.253303 
L 252.575117 267.578454 
L 256.222921 268.835267 
L 259.870725 270.354248 
L 263.518529 271.863454 
L 267.166333 272.957962 
L 270.814137 274.800399 
L 274.461941 276.114423 
L 278.109745 277.810249 
L 281.757549 279.275772 
L 285.405352 280.7985 
L 289.053156 282.066397 
L 292.70096 283.427342 
L 296.348764 284.640017 
L 299.996568 286.009159 
L 303.644372 287.009337 
L 307.292176 287.932281 
L 310.93998 288.960566 
L 314.587783 289.759798 
L 318.235587 290.479634 
L 321.883391 291.176042 
L 325.531195 291.598753 
L 329.178999 292.122904 
L 332.826803 292.3676 
L 336.474607 292.948291 
L 340.122411 293.129219 
L 343.770215 293.399586 
L 347.418018 293.778126 
L 351.065822 294.00427 
L 354.713626 294.028506 
L 358.36143 294.235299 
L 362.009234 294.33721 
L 365.657038 294.463962 
L 369.304842 294.588437 
L 372.952646 294.660506 
L 376.600449 294.693681 
L 380.248253 294.75396 
L 383.896057 294.877508 
L 387.543861 294.971759 
L 391.191665 294.933033 
L 394.839469 294.994602 
L 398.487273 295.016263 
" clip-path="url(#pbb6623e0aa)" style="fill: none; stroke: #ff00ff; stroke-opacity: 0.3; stroke-width: 0.5; stroke-linecap: square"/>
   </g>
   <g id="line2d_50">
    <path d="M 73.832727 249.738776 
L 77.480531 249.852888 
L 81.128335 250.195948 
L 84.776139 250.301254 
L 88.423943 250.679899 
L 92.071747 251.255866 
L 95.719551 251.795825 
L 99.367354 252.317645 
L 103.015158 252.872946 
L 106.662962 253.687885 
L 110.310766 254.310555 
L 113.95857 255.035603 
L 117.606374 255.759608 
L 121.254178 256.651739 
L 124.901982 257.409915 
L 128.549785 258.497503 
L 132.197589 259.477814 
L 135.845393 260.462727 
L 139.493197 261.586811 
L 143.141001 262.547514 
L 146.788805 263.381116 
L 150.436609 264.461874 
L 154.084413 265.475969 
L 157.732217 266.436208 
L 161.38002 267.133262 
L 165.027824 268.104177 
L 168.675628 268.720469 
L 172.323432 269.581467 
L 175.971236 270.098348 
L 179.61904 270.697277 
L 183.266844 271.235811 
L 186.914648 271.754279 
L 190.562451 272.612827 
L 194.210255 273.413208 
L 197.858059 274.142939 
L 201.505863 274.949252 
L 205.153667 275.603838 
L 208.801471 276.359483 
L 212.449275 276.956012 
L 216.097079 277.589691 
L 219.744883 278.169032 
L 223.392686 278.833219 
L 227.04049 279.373965 
L 230.688294 279.959548 
L 234.336098 280.468865 
L 237.983902 281.028307 
L 241.631706 281.620286 
L 245.27951 282.182163 
L 248.927314 282.749648 
L 252.575117 283.25667 
L 256.222921 283.854609 
L 259.870725 284.379096 
L 263.518529 284.965428 
L 267.166333 285.481665 
L 270.814137 286.070794 
L 274.461941 286.648223 
L 278.109745 287.230126 
L 281.757549 287.79068 
L 285.405352 288.346908 
L 289.053156 288.876156 
L 292.70096 289.427875 
L 296.348764 289.911835 
L 299.996568 290.398378 
L 303.644372 290.86656 
L 307.292176 291.29171 
L 310.93998 291.741329 
L 314.587783 292.102185 
L 318.235587 292.446675 
L 321.883391 292.747942 
L 325.531195 293.013531 
L 329.178999 293.276299 
L 332.826803 293.515686 
L 336.474607 293.6766 
L 340.122411 293.868785 
L 343.770215 294.026667 
L 347.418018 294.168851 
L 351.065822 294.278069 
L 354.713626 294.3569 
L 358.36143 294.470776 
L 362.009234 294.542752 
L 365.657038 294.639548 
L 369.304842 294.655859 
L 372.952646 294.744336 
L 376.600449 294.787796 
L 380.248253 294.813011 
L 383.896057 294.876819 
L 387.543861 294.919874 
L 391.191665 294.942854 
L 394.839469 295.002156 
L 398.487273 294.985742 
" clip-path="url(#pbb6623e0aa)" style="fill: none; stroke: #ff00ff; stroke-opacity: 0.3; stroke-width: 0.5; stroke-linecap: square"/>
   </g>
   <g id="line2d_51">
    <path d="M 73.832727 248.664555 
L 77.480531 248.744565 
L 81.128335 248.701752 
L 84.776139 248.704741 
L 88.423943 248.947509 
L 92.071747 248.985475 
L 95.719551 249.018795 
L 99.367354 249.036174 
L 103.015158 249.212489 
L 106.662962 249.336897 
L 110.310766 249.271818 
L 113.95857 249.586816 
L 117.606374 249.655895 
L 121.254178 249.651769 
L 124.901982 249.493402 
L 128.549785 249.73674 
L 132.197589 249.894317 
L 135.845393 249.769917 
L 139.493197 250.142338 
L 143.141001 250.27626 
L 146.788805 250.362587 
L 150.436609 250.172611 
L 154.084413 250.190482 
L 157.732217 250.440507 
L 161.38002 250.51978 
L 165.027824 250.403905 
L 168.675628 249.919609 
L 172.323432 250.406658 
L 175.971236 249.994528 
L 179.61904 250.475415 
L 183.266844 250.338614 
L 186.914648 249.906156 
L 190.562451 250.276272 
L 194.210255 249.926186 
L 197.858059 250.094711 
L 201.505863 250.408247 
L 205.153667 250.477977 
L 208.801471 250.657217 
L 212.449275 251.005152 
L 216.097079 251.064285 
L 219.744883 251.133938 
L 223.392686 251.127467 
L 227.04049 251.363094 
L 230.688294 251.441524 
L 234.336098 251.230618 
L 237.983902 251.660449 
L 241.631706 251.275806 
L 245.27951 252.185099 
L 248.927314 252.231582 
L 252.575117 252.36438 
L 256.222921 252.09777 
L 259.870725 251.891552 
L 263.518529 252.053397 
L 267.166333 252.495015 
L 270.814137 252.767062 
L 274.461941 252.830492 
L 278.109745 253.368398 
L 281.757549 253.41829 
L 285.405352 253.337356 
L 289.053156 253.604621 
L 292.70096 253.532382 
L 296.348764 254.140174 
L 299.996568 254.135873 
L 303.644372 253.997898 
L 307.292176 253.881164 
L 310.93998 254.290391 
L 314.587783 254.878108 
L 318.235587 255.325269 
L 321.883391 254.676728 
L 325.531195 255.640821 
L 329.178999 254.569797 
L 332.826803 256.253574 
L 336.474607 255.566252 
L 340.122411 255.599629 
L 343.770215 255.604194 
L 347.418018 256.108501 
L 351.065822 256.891232 
L 354.713626 256.130477 
L 358.36143 257.207037 
L 362.009234 256.007968 
L 365.657038 257.761235 
L 369.304842 257.356125 
L 372.952646 257.334409 
L 376.600449 258.307474 
L 380.248253 258.155421 
L 383.896057 259.981921 
L 387.543861 259.494907 
L 391.191665 258.469136 
L 394.839469 260.167848 
L 398.487273 259.914703 
" clip-path="url(#pbb6623e0aa)" style="fill: none; stroke: #ff00ff; stroke-opacity: 0.3; stroke-width: 0.5; stroke-linecap: square"/>
   </g>
   <g id="line2d_52">
    <path d="M 73.832727 246.739791 
L 77.480531 246.905859 
L 81.128335 247.332265 
L 84.776139 247.571745 
L 88.423943 248.465415 
L 92.071747 248.817293 
L 95.719551 249.25213 
L 99.367354 249.520161 
L 103.015158 249.996332 
L 106.662962 250.357451 
L 110.310766 250.540157 
L 113.95857 251.035434 
L 117.606374 251.328085 
L 121.254178 251.765035 
L 124.901982 252.140502 
L 128.549785 252.546597 
L 132.197589 253.086202 
L 135.845393 253.562842 
L 139.493197 254.178641 
L 143.141001 254.619644 
L 146.788805 255.309263 
L 150.436609 256.105454 
L 154.084413 256.728434 
L 157.732217 257.545841 
L 161.38002 258.221905 
L 165.027824 258.912375 
L 168.675628 259.913326 
L 172.323432 260.660754 
L 175.971236 261.692505 
L 179.61904 262.450638 
L 183.266844 263.077358 
L 186.914648 264.398353 
L 190.562451 265.642259 
L 194.210255 267.151331 
L 197.858059 268.48355 
L 201.505863 270.137705 
L 205.153667 271.437405 
L 208.801471 273.028664 
L 212.449275 274.607499 
L 216.097079 276.436964 
L 219.744883 277.959094 
L 223.392686 279.836877 
L 227.04049 281.275266 
L 230.688294 282.91874 
L 234.336098 284.395714 
L 237.983902 285.798108 
L 241.631706 287.252207 
L 245.27951 288.443612 
L 248.927314 289.590392 
L 252.575117 290.461897 
L 256.222921 291.378431 
L 259.870725 292.007688 
L 263.518529 292.660337 
L 267.166333 293.107048 
L 270.814137 293.542144 
L 274.461941 293.860876 
L 278.109745 294.126001 
L 281.757549 294.382915 
L 285.405352 294.540522 
L 289.053156 294.689286 
L 292.70096 294.798283 
L 296.348764 294.865572 
L 299.996568 294.973779 
L 303.644372 295.054803 
L 307.292176 295.092473 
L 310.93998 295.14804 
L 314.587783 295.196046 
L 318.235587 295.220899 
L 321.883391 295.25521 
L 325.531195 295.271072 
L 329.178999 295.295647 
L 332.826803 295.317912 
L 336.474607 295.334563 
L 340.122411 295.350818 
L 343.770215 295.361445 
L 347.418018 295.364018 
L 351.065822 295.381834 
L 354.713626 295.394588 
L 358.36143 295.3857 
L 362.009234 295.39344 
L 365.657038 295.412392 
L 369.304842 295.409764 
L 372.952646 295.420069 
L 376.600449 295.426132 
L 380.248253 295.43138 
L 383.896057 295.437449 
L 387.543861 295.439254 
L 391.191665 295.428538 
L 394.839469 295.443559 
L 398.487273 295.444327 
" clip-path="url(#pbb6623e0aa)" style="fill: none; stroke: #ff00ff; stroke-opacity: 0.3; stroke-width: 0.5; stroke-linecap: square"/>
   </g>
   <g id="line2d_53">
    <path d="M 73.832727 248.507936 
L 77.480531 248.629313 
L 81.128335 248.695402 
L 84.776139 248.915704 
L 88.423943 249.036842 
L 92.071747 249.259265 
L 95.719551 249.467487 
L 99.367354 249.786469 
L 103.015158 250.024455 
L 106.662962 250.347688 
L 110.310766 250.825314 
L 113.95857 251.234553 
L 117.606374 251.696889 
L 121.254178 252.319168 
L 124.901982 253.048362 
L 128.549785 253.7655 
L 132.197589 254.565834 
L 135.845393 255.499674 
L 139.493197 256.39736 
L 143.141001 257.084877 
L 146.788805 258.188036 
L 150.436609 259.283887 
L 154.084413 260.582296 
L 157.732217 261.609892 
L 161.38002 263.026298 
L 165.027824 264.247044 
L 168.675628 265.733538 
L 172.323432 267.046055 
L 175.971236 268.56143 
L 179.61904 269.964823 
L 183.266844 271.284915 
L 186.914648 272.940498 
L 190.562451 274.916834 
L 194.210255 277.240356 
L 197.858059 279.341716 
L 201.505863 281.353731 
L 205.153667 283.157951 
L 208.801471 285.177688 
L 212.449275 286.589931 
L 216.097079 288.017784 
L 219.744883 289.070875 
L 223.392686 290.336308 
L 227.04049 291.197946 
L 230.688294 291.996156 
L 234.336098 292.611571 
L 237.983902 293.09763 
L 241.631706 293.597548 
L 245.27951 293.895553 
L 248.927314 294.192251 
L 252.575117 294.38654 
L 256.222921 294.578493 
L 259.870725 294.726032 
L 263.518529 294.874882 
L 267.166333 294.917923 
L 270.814137 295.026847 
L 274.461941 295.085503 
L 278.109745 295.132858 
L 281.757549 295.178968 
L 285.405352 295.23616 
L 289.053156 295.254917 
L 292.70096 295.281294 
L 296.348764 295.296885 
L 299.996568 295.320241 
L 303.644372 295.323851 
L 307.292176 295.346414 
L 310.93998 295.35643 
L 314.587783 295.378653 
L 318.235587 295.379954 
L 321.883391 295.384914 
L 325.531195 295.39475 
L 329.178999 295.406475 
L 332.826803 295.415457 
L 336.474607 295.41576 
L 340.122411 295.427744 
L 343.770215 295.430789 
L 347.418018 295.429433 
L 351.065822 295.442329 
L 354.713626 295.438182 
L 358.36143 295.446711 
L 362.009234 295.444849 
L 365.657038 295.443748 
L 369.304842 295.445802 
L 372.952646 295.454704 
L 376.600449 295.456206 
L 380.248253 295.459737 
L 383.896057 295.45746 
L 387.543861 295.463976 
L 391.191665 295.464243 
L 394.839469 295.465527 
L 398.487273 295.465517 
" clip-path="url(#pbb6623e0aa)" style="fill: none; stroke: #ff00ff; stroke-opacity: 0.3; stroke-width: 0.5; stroke-linecap: square"/>
   </g>
   <g id="line2d_54">
    <path d="M 73.832727 251.183093 
L 77.480531 251.565162 
L 81.128335 251.819281 
L 84.776139 252.475641 
L 88.423943 253.036449 
L 92.071747 253.915681 
L 95.719551 254.745412 
L 99.367354 255.76419 
L 103.015158 256.720907 
L 106.662962 257.852229 
L 110.310766 259.032111 
L 113.95857 260.134919 
L 117.606374 261.557377 
L 121.254178 262.940203 
L 124.901982 264.235298 
L 128.549785 265.454649 
L 132.197589 266.616949 
L 135.845393 267.726477 
L 139.493197 268.795312 
L 143.141001 269.800174 
L 146.788805 270.6124 
L 150.436609 271.525756 
L 154.084413 272.298936 
L 157.732217 272.978473 
L 161.38002 273.595119 
L 165.027824 274.244391 
L 168.675628 274.873031 
L 172.323432 275.474922 
L 175.971236 276.075576 
L 179.61904 276.571733 
L 183.266844 277.238687 
L 186.914648 277.766768 
L 190.562451 278.394563 
L 194.210255 279.287904 
L 197.858059 279.953361 
L 201.505863 280.735247 
L 205.153667 281.419315 
L 208.801471 282.211709 
L 212.449275 282.948156 
L 216.097079 283.670958 
L 219.744883 284.360475 
L 223.392686 285.16488 
L 227.04049 285.865128 
L 230.688294 286.627151 
L 234.336098 287.338907 
L 237.983902 288.09163 
L 241.631706 288.76364 
L 245.27951 289.408328 
L 248.927314 290.044942 
L 252.575117 290.631307 
L 256.222921 291.168759 
L 259.870725 291.624414 
L 263.518529 292.127787 
L 267.166333 292.423724 
L 270.814137 292.84672 
L 274.461941 293.113493 
L 278.109745 293.41695 
L 281.757549 293.669345 
L 285.405352 293.90331 
L 289.053156 294.035867 
L 292.70096 294.276592 
L 296.348764 294.363058 
L 299.996568 294.480454 
L 303.644372 294.578455 
L 307.292176 294.668257 
L 310.93998 294.780283 
L 314.587783 294.841254 
L 318.235587 294.885258 
L 321.883391 294.954826 
L 325.531195 294.988634 
L 329.178999 295.039648 
L 332.826803 295.064247 
L 336.474607 295.114542 
L 340.122411 295.124878 
L 343.770215 295.16216 
L 347.418018 295.187446 
L 351.065822 295.202533 
L 354.713626 295.217856 
L 358.36143 295.24332 
L 362.009234 295.244904 
L 365.657038 295.268932 
L 369.304842 295.267587 
L 372.952646 295.29173 
L 376.600449 295.300402 
L 380.248253 295.304042 
L 383.896057 295.320387 
L 387.543861 295.323563 
L 391.191665 295.323564 
L 394.839469 295.342685 
L 398.487273 295.345124 
" clip-path="url(#pbb6623e0aa)" style="fill: none; stroke: #ff00ff; stroke-opacity: 0.3; stroke-width: 0.5; stroke-linecap: square"/>
   </g>
   <g id="line2d_55">
    <path d="M 73.832727 248.716658 
L 77.480531 248.748174 
L 81.128335 248.816446 
L 84.776139 249.001697 
L 88.423943 248.988131 
L 92.071747 249.241223 
L 95.719551 249.362287 
L 99.367354 249.547 
L 103.015158 249.691723 
L 106.662962 249.948688 
L 110.310766 250.086703 
L 113.95857 250.423833 
L 117.606374 250.45027 
L 121.254178 250.994449 
L 124.901982 251.261564 
L 128.549785 251.723329 
L 132.197589 252.05367 
L 135.845393 252.584401 
L 139.493197 253.100909 
L 143.141001 253.539464 
L 146.788805 254.175525 
L 150.436609 255.166405 
L 154.084413 255.734422 
L 157.732217 256.984303 
L 161.38002 257.898301 
L 165.027824 259.111168 
L 168.675628 260.323999 
L 172.323432 261.48772 
L 175.971236 262.578656 
L 179.61904 263.621344 
L 183.266844 264.553172 
L 186.914648 265.508093 
L 190.562451 267.017678 
L 194.210255 268.686363 
L 197.858059 269.850652 
L 201.505863 271.282808 
L 205.153667 272.434168 
L 208.801471 273.49403 
L 212.449275 274.969243 
L 216.097079 276.087831 
L 219.744883 277.326551 
L 223.392686 278.713447 
L 227.04049 279.732802 
L 230.688294 280.997272 
L 234.336098 282.250779 
L 237.983902 283.403106 
L 241.631706 284.488946 
L 245.27951 285.559798 
L 248.927314 286.574512 
L 252.575117 287.583535 
L 256.222921 288.651089 
L 259.870725 289.300575 
L 263.518529 290.182311 
L 267.166333 290.799642 
L 270.814137 291.387195 
L 274.461941 291.878966 
L 278.109745 292.430377 
L 281.757549 292.89085 
L 285.405352 293.301606 
L 289.053156 293.557532 
L 292.70096 293.818149 
L 296.348764 294.032543 
L 299.996568 294.235481 
L 303.644372 294.37621 
L 307.292176 294.541696 
L 310.93998 294.629193 
L 314.587783 294.771513 
L 318.235587 294.851473 
L 321.883391 294.904798 
L 325.531195 294.974866 
L 329.178999 295.041683 
L 332.826803 295.075651 
L 336.474607 295.141986 
L 340.122411 295.171574 
L 343.770215 295.194701 
L 347.418018 295.216009 
L 351.065822 295.242491 
L 354.713626 295.2543 
L 358.36143 295.275333 
L 362.009234 295.303641 
L 365.657038 295.294054 
L 369.304842 295.314359 
L 372.952646 295.339053 
L 376.600449 295.355982 
L 380.248253 295.35232 
L 383.896057 295.36207 
L 387.543861 295.353489 
L 391.191665 295.377564 
L 394.839469 295.387989 
L 398.487273 295.391088 
" clip-path="url(#pbb6623e0aa)" style="fill: none; stroke: #ff00ff; stroke-opacity: 0.3; stroke-width: 0.5; stroke-linecap: square"/>
   </g>
   <g id="line2d_56">
    <path d="M 73.832727 247.711231 
L 77.480531 247.515736 
L 81.128335 247.613211 
L 84.776139 247.777626 
L 88.423943 247.985 
L 92.071747 248.13892 
L 95.719551 248.298679 
L 99.367354 248.602408 
L 103.015158 248.6288 
L 106.662962 248.852287 
L 110.310766 249.25951 
L 113.95857 249.468184 
L 117.606374 249.541339 
L 121.254178 249.879084 
L 124.901982 249.774511 
L 128.549785 250.206383 
L 132.197589 250.563954 
L 135.845393 250.500141 
L 139.493197 250.749104 
L 143.141001 251.101262 
L 146.788805 251.065532 
L 150.436609 251.359877 
L 154.084413 251.472567 
L 157.732217 251.86969 
L 161.38002 251.94959 
L 165.027824 252.398437 
L 168.675628 252.621243 
L 172.323432 252.929876 
L 175.971236 252.847931 
L 179.61904 253.238044 
L 183.266844 253.536418 
L 186.914648 253.836363 
L 190.562451 254.35391 
L 194.210255 254.473557 
L 197.858059 255.324051 
L 201.505863 255.767066 
L 205.153667 256.15781 
L 208.801471 257.198545 
L 212.449275 257.734497 
L 216.097079 258.146078 
L 219.744883 258.74023 
L 223.392686 259.750398 
L 227.04049 260.398947 
L 230.688294 261.744618 
L 234.336098 262.404251 
L 237.983902 263.150092 
L 241.631706 264.327634 
L 245.27951 265.313722 
L 248.927314 266.536102 
L 252.575117 267.820842 
L 256.222921 268.86475 
L 259.870725 270.267175 
L 263.518529 271.52576 
L 267.166333 272.297283 
L 270.814137 273.764081 
L 274.461941 275.000431 
L 278.109745 276.567609 
L 281.757549 277.756745 
L 285.405352 279.18167 
L 289.053156 280.33293 
L 292.70096 281.671809 
L 296.348764 282.605431 
L 299.996568 283.61865 
L 303.644372 284.507949 
L 307.292176 285.504526 
L 310.93998 286.745895 
L 314.587783 287.60661 
L 318.235587 288.473383 
L 321.883391 288.936286 
L 325.531195 289.826178 
L 329.178999 289.964262 
L 332.826803 290.983583 
L 336.474607 291.385101 
L 340.122411 291.816901 
L 343.770215 292.230765 
L 347.418018 292.40999 
L 351.065822 292.653735 
L 354.713626 293.163828 
L 358.36143 292.974768 
L 362.009234 293.522549 
L 365.657038 293.712158 
L 369.304842 293.602052 
L 372.952646 293.762657 
L 376.600449 293.951054 
L 380.248253 294.139394 
L 383.896057 294.253949 
L 387.543861 294.197158 
L 391.191665 294.249888 
L 394.839469 294.492818 
L 398.487273 294.525307 
" clip-path="url(#pbb6623e0aa)" style="fill: none; stroke: #ff00ff; stroke-opacity: 0.3; stroke-width: 0.5; stroke-linecap: square"/>
   </g>
   <g id="line2d_57">
    <path d="M 73.832727 243.56141 
L 77.480531 244.002067 
L 81.128335 245.394484 
L 84.776139 246.449575 
L 88.423943 247.704046 
L 92.071747 249.029861 
L 95.719551 250.439282 
L 99.367354 251.848731 
L 103.015158 253.155253 
L 106.662962 254.791708 
L 110.310766 256.445195 
L 113.95857 258.148977 
L 117.606374 259.937556 
L 121.254178 261.362107 
L 124.901982 263.206336 
L 128.549785 264.327262 
L 132.197589 266.020571 
L 135.845393 267.77751 
L 139.493197 269.098359 
L 143.141001 270.578997 
L 146.788805 272.174215 
L 150.436609 273.489141 
L 154.084413 274.677016 
L 157.732217 275.933947 
L 161.38002 277.193772 
L 165.027824 278.101835 
L 168.675628 279.274079 
L 172.323432 280.553145 
L 175.971236 281.66607 
L 179.61904 282.742819 
L 183.266844 283.7088 
L 186.914648 284.72982 
L 190.562451 285.909215 
L 194.210255 287.126663 
L 197.858059 288.089157 
L 201.505863 289.065018 
L 205.153667 289.723606 
L 208.801471 290.535125 
L 212.449275 291.139011 
L 216.097079 291.714969 
L 219.744883 292.222081 
L 223.392686 292.671635 
L 227.04049 293.072957 
L 230.688294 293.440165 
L 234.336098 293.72904 
L 237.983902 293.992907 
L 241.631706 294.242205 
L 245.27951 294.410912 
L 248.927314 294.576102 
L 252.575117 294.681868 
L 256.222921 294.804681 
L 259.870725 294.8755 
L 263.518529 294.956729 
L 267.166333 295.009877 
L 270.814137 295.07041 
L 274.461941 295.114139 
L 278.109745 295.153333 
L 281.757549 295.189103 
L 285.405352 295.216918 
L 289.053156 295.23975 
L 292.70096 295.270416 
L 296.348764 295.284827 
L 299.996568 295.295455 
L 303.644372 295.321149 
L 307.292176 295.326531 
L 310.93998 295.338312 
L 314.587783 295.351401 
L 318.235587 295.356944 
L 321.883391 295.368001 
L 325.531195 295.371246 
L 329.178999 295.378764 
L 332.826803 295.387876 
L 336.474607 295.391204 
L 340.122411 295.404084 
L 343.770215 295.406083 
L 347.418018 295.406974 
L 351.065822 295.417843 
L 354.713626 295.416675 
L 358.36143 295.426566 
L 362.009234 295.425366 
L 365.657038 295.427312 
L 369.304842 295.430487 
L 372.952646 295.436644 
L 376.600449 295.436787 
L 380.248253 295.435353 
L 383.896057 295.443282 
L 387.543861 295.44396 
L 391.191665 295.443234 
L 394.839469 295.448671 
L 398.487273 295.450378 
" clip-path="url(#pbb6623e0aa)" style="fill: none; stroke: #ff00ff; stroke-opacity: 0.3; stroke-width: 0.5; stroke-linecap: square"/>
   </g>
   <g id="line2d_58">
    <path d="M 73.832727 248.441993 
L 77.480531 248.509398 
L 81.128335 248.906512 
L 84.776139 249.295179 
L 88.423943 249.727409 
L 92.071747 250.271608 
L 95.719551 250.980394 
L 99.367354 251.704847 
L 103.015158 252.41487 
L 106.662962 253.067573 
L 110.310766 253.845759 
L 113.95857 254.517905 
L 117.606374 255.280957 
L 121.254178 256.175979 
L 124.901982 257.012006 
L 128.549785 258.03577 
L 132.197589 258.681667 
L 135.845393 260.092986 
L 139.493197 261.150219 
L 143.141001 262.4378 
L 146.788805 263.641881 
L 150.436609 265.298443 
L 154.084413 266.937812 
L 157.732217 268.584633 
L 161.38002 269.984888 
L 165.027824 271.328301 
L 168.675628 272.867057 
L 172.323432 274.669131 
L 175.971236 276.205057 
L 179.61904 277.3765 
L 183.266844 278.861231 
L 186.914648 280.448127 
L 190.562451 282.165753 
L 194.210255 284.033612 
L 197.858059 285.506852 
L 201.505863 286.797373 
L 205.153667 288.124776 
L 208.801471 289.486798 
L 212.449275 290.286112 
L 216.097079 291.170444 
L 219.744883 291.819667 
L 223.392686 292.607286 
L 227.04049 292.844652 
L 230.688294 293.306528 
L 234.336098 293.623668 
L 237.983902 294.013878 
L 241.631706 294.119876 
L 245.27951 294.382779 
L 248.927314 294.431123 
L 252.575117 294.636997 
L 256.222921 294.742683 
L 259.870725 294.839041 
L 263.518529 294.929747 
L 267.166333 294.949896 
L 270.814137 295.054246 
L 274.461941 295.05879 
L 278.109745 295.107175 
L 281.757549 295.1611 
L 285.405352 295.199501 
L 289.053156 295.184435 
L 292.70096 295.241551 
L 296.348764 295.22031 
L 299.996568 295.254954 
L 303.644372 295.289364 
L 307.292176 295.280142 
L 310.93998 295.313164 
L 314.587783 295.314688 
L 318.235587 295.330723 
L 321.883391 295.334926 
L 325.531195 295.35656 
L 329.178999 295.33885 
L 332.826803 295.359935 
L 336.474607 295.349061 
L 340.122411 295.361621 
L 343.770215 295.374236 
L 347.418018 295.385313 
L 351.065822 295.391246 
L 354.713626 295.397651 
L 358.36143 295.387856 
L 362.009234 295.391045 
L 365.657038 295.40984 
L 369.304842 295.413699 
L 372.952646 295.400099 
L 376.600449 295.402456 
L 380.248253 295.422133 
L 383.896057 295.42319 
L 387.543861 295.41896 
L 391.191665 295.416341 
L 394.839469 295.427505 
L 398.487273 295.429652 
" clip-path="url(#pbb6623e0aa)" style="fill: none; stroke: #ff00ff; stroke-opacity: 0.3; stroke-width: 0.5; stroke-linecap: square"/>
   </g>
   <g id="line2d_59">
    <path d="M 73.832727 248.140072 
L 77.480531 247.898372 
L 81.128335 247.558578 
L 84.776139 247.175796 
L 88.423943 246.714356 
L 92.071747 246.230361 
L 95.719551 245.681661 
L 99.367354 245.047339 
L 103.015158 244.436765 
L 106.662962 243.699283 
L 110.310766 242.962094 
L 113.95857 242.217317 
L 117.606374 241.413326 
L 121.254178 240.344412 
L 124.901982 239.387218 
L 128.549785 238.279319 
L 132.197589 237.111493 
L 135.845393 235.784652 
L 139.493197 234.43954 
L 143.141001 233.127358 
L 146.788805 231.855883 
L 150.436609 230.089293 
L 154.084413 228.745131 
L 157.732217 227.018317 
L 161.38002 225.626169 
L 165.027824 224.03438 
L 168.675628 222.446029 
L 172.323432 220.631035 
L 175.971236 219.063504 
L 179.61904 217.862117 
L 183.266844 216.376759 
L 186.914648 214.731478 
L 190.562451 211.562783 
L 194.210255 208.068191 
L 197.858059 204.794458 
L 201.505863 201.478148 
L 205.153667 198.657441 
L 208.801471 195.619882 
L 212.449275 193.192306 
L 216.097079 190.632218 
L 219.744883 188.442917 
L 223.392686 184.964542 
L 227.04049 182.72921 
L 230.688294 179.521889 
L 234.336098 177.198878 
L 237.983902 174.208824 
L 241.631706 171.455587 
L 245.27951 168.605678 
L 248.927314 165.739005 
L 252.575117 163.302982 
L 256.222921 160.269585 
L 259.870725 157.932825 
L 263.518529 154.455599 
L 267.166333 152.675638 
L 270.814137 148.922993 
L 274.461941 146.304232 
L 278.109745 142.695112 
L 281.757549 139.159776 
L 285.405352 135.587197 
L 289.053156 133.355466 
L 292.70096 129.304708 
L 296.348764 127.514436 
L 299.996568 124.023378 
L 303.644372 120.822696 
L 307.292176 118.463697 
L 310.93998 114.829636 
L 314.587783 111.584967 
L 318.235587 108.873525 
L 321.883391 106.807784 
L 325.531195 103.786044 
L 329.178999 102.906319 
L 332.826803 98.835849 
L 336.474607 96.38606 
L 340.122411 94.756305 
L 343.770215 93.158122 
L 347.418018 90.546757 
L 351.065822 87.292313 
L 354.713626 86.123794 
L 358.36143 81.866611 
L 362.009234 79.687565 
L 365.657038 76.909948 
L 369.304842 74.350536 
L 372.952646 72.003284 
L 376.600449 69.362301 
L 380.248253 67.310718 
L 383.896057 62.479954 
L 387.543861 60.9579 
L 391.191665 58.132615 
L 394.839469 54.758593 
L 398.487273 53.568 
" clip-path="url(#pbb6623e0aa)" style="fill: none; stroke: #6495ed; stroke-width: 2; stroke-linecap: square"/>
   </g>
   <g id="line2d_60">
    <path d="M 73.832727 247.981015 
L 77.480531 248.095039 
L 81.128335 248.331079 
L 84.776139 248.617345 
L 88.423943 248.977058 
L 92.071747 249.345392 
L 95.719551 249.741937 
L 99.367354 250.189954 
L 103.015158 250.625393 
L 106.662962 251.108236 
L 110.310766 251.58589 
L 113.95857 252.063302 
L 117.606374 252.563024 
L 121.254178 253.16269 
L 124.901982 253.725747 
L 128.549785 254.335046 
L 132.197589 254.983484 
L 135.845393 255.674752 
L 139.493197 256.390842 
L 143.141001 257.097825 
L 146.788805 257.802517 
L 150.436609 258.655732 
L 154.084413 259.385786 
L 157.732217 260.237522 
L 161.38002 260.998264 
L 165.027824 261.78869 
L 168.675628 262.581403 
L 172.323432 263.425399 
L 175.971236 264.188962 
L 179.61904 264.853686 
L 183.266844 265.552135 
L 186.914648 266.267047 
L 190.562451 267.300704 
L 194.210255 268.370207 
L 197.858059 269.396857 
L 201.505863 270.422928 
L 205.153667 271.362836 
L 208.801471 272.327026 
L 212.449275 273.194564 
L 216.097079 274.05422 
L 219.744883 274.825487 
L 223.392686 275.75053 
L 227.04049 276.471015 
L 230.688294 277.30485 
L 234.336098 277.974863 
L 237.983902 278.712189 
L 241.631706 279.396564 
L 245.27951 280.083852 
L 248.927314 280.750989 
L 252.575117 281.346286 
L 256.222921 281.963925 
L 259.870725 282.517961 
L 263.518529 283.142177 
L 267.166333 283.607059 
L 270.814137 284.222433 
L 274.461941 284.711843 
L 278.109745 285.270375 
L 281.757549 285.793122 
L 285.405352 286.293658 
L 289.053156 286.692109 
L 292.70096 287.178509 
L 296.348764 287.516104 
L 299.996568 287.943852 
L 303.644372 288.310009 
L 307.292176 288.633186 
L 310.93998 289.003496 
L 314.587783 289.342268 
L 318.235587 289.63516 
L 321.883391 289.873815 
L 325.531195 290.16744 
L 329.178999 290.326714 
L 332.826803 290.647209 
L 336.474607 290.863051 
L 340.122411 291.028863 
L 343.770215 291.190888 
L 347.418018 291.38608 
L 351.065822 291.604363 
L 354.713626 291.714262 
L 358.36143 291.939956 
L 362.009234 292.0709 
L 365.657038 292.243918 
L 369.304842 292.372339 
L 372.952646 292.488499 
L 376.600449 292.621088 
L 380.248253 292.717377 
L 383.896057 292.894463 
L 387.543861 292.971926 
L 391.191665 293.057282 
L 394.839469 293.191634 
L 398.487273 293.241641 
" clip-path="url(#pbb6623e0aa)" style="fill: none; stroke: #dc143c; stroke-width: 2; stroke-linecap: square"/>
   </g>
   <g id="line2d_61">
    <path d="M 73.832727 269.090667 
L 77.480531 267.900488 
L 81.128335 265.3101 
L 84.776139 261.949597 
L 88.423943 258.449072 
L 92.071747 253.338306 
L 95.719551 248.997656 
L 99.367354 245.147078 
L 103.015158 244.376963 
L 106.662962 245.007058 
L 110.310766 245.917194 
L 113.95857 247.037362 
L 117.606374 247.667456 
L 121.254178 247.877488 
L 124.901982 248.15753 
L 128.549785 247.737467 
L 132.197589 247.107372 
L 135.845393 246.197236 
L 139.493197 245.707162 
L 143.141001 245.217089 
L 146.788805 244.867037 
L 150.436609 244.727016 
L 154.084413 244.516984 
L 157.732217 244.376963 
L 161.38002 244.236942 
L 165.027824 244.516984 
L 168.675628 244.236942 
L 172.323432 244.096921 
L 175.971236 243.676858 
L 179.61904 243.536837 
L 183.266844 243.466827 
L 186.914648 243.046764 
L 190.562451 242.906743 
L 194.210255 242.836732 
L 197.858059 242.696711 
L 201.505863 242.696711 
L 205.153667 242.626701 
L 208.801471 242.48668 
L 212.449275 242.626701 
L 216.097079 242.906743 
L 219.744883 243.116774 
L 223.392686 243.466827 
L 227.04049 243.606848 
L 230.688294 243.536837 
L 234.336098 243.746869 
L 237.983902 243.88689 
L 241.631706 243.9569 
L 245.27951 244.096921 
L 248.927314 244.096921 
L 252.575117 244.096921 
L 256.222921 243.9569 
L 259.870725 243.816879 
L 263.518529 243.606848 
L 267.166333 243.326806 
L 270.814137 243.046764 
L 274.461941 242.836732 
L 278.109745 242.766722 
L 281.757549 242.55669 
L 285.405352 242.55669 
L 289.053156 242.696711 
L 292.70096 242.766722 
L 296.348764 242.766722 
L 299.996568 242.696711 
L 303.644372 242.766722 
L 307.292176 242.836732 
L 310.93998 242.836732 
L 314.587783 242.976753 
L 318.235587 243.116774 
L 321.883391 243.396816 
L 325.531195 243.326806 
L 329.178999 243.326806 
L 332.826803 243.256795 
L 336.474607 243.396816 
L 340.122411 243.396816 
L 343.770215 243.606848 
L 347.418018 243.816879 
L 351.065822 243.9569 
L 354.713626 244.166932 
L 358.36143 244.096921 
L 362.009234 243.88689 
L 365.657038 243.9569 
L 369.304842 244.026911 
L 372.952646 244.096921 
L 376.600449 244.236942 
L 380.248253 244.586995 
L 383.896057 244.657005 
L 387.543861 244.586995 
L 391.191665 244.516984 
L 394.839469 244.516984 
L 398.487273 244.586995 
" clip-path="url(#pbb6623e0aa)" style="fill: none; stroke: #ffff00; stroke-width: 3; stroke-linecap: square"/>
   </g>
   <g id="patch_3">
    <path d="M 57.6 307.584 
L 57.6 41.472 
" style="fill: none; stroke: #ffffff; stroke-linejoin: miter; stroke-linecap: square"/>
   </g>
   <g id="patch_4">
    <path d="M 414.72 307.584 
L 414.72 41.472 
" style="fill: none; stroke: #ffffff; stroke-linejoin: miter; stroke-linecap: square"/>
   </g>
   <g id="patch_5">
    <path d="M 57.6 307.584 
L 414.72 307.584 
" style="fill: none; stroke: #ffffff; stroke-linejoin: miter; stroke-linecap: square"/>
   </g>
   <g id="patch_6">
    <path d="M 57.6 41.472 
L 414.72 41.472 
" style="fill: none; stroke: #ffffff; stroke-linejoin: miter; stroke-linecap: square"/>
   </g>
  </g>
 </g>
 <defs>
  <clipPath id="pbb6623e0aa">
   <rect x="57.6" y="41.472" width="357.12" height="266.112"/>
  </clipPath>
 </defs>
</svg>
