<?xml version="1.0" encoding="utf-8" standalone="no"?>
<!DOCTYPE svg PUBLIC "-//W3C//DTD SVG 1.1//EN"
  "http://www.w3.org/Graphics/SVG/1.1/DTD/svg11.dtd">
<svg xmlns:xlink="http://www.w3.org/1999/xlink" width="460.8pt" height="345.6pt" viewBox="0 0 460.8 345.6" xmlns="http://www.w3.org/2000/svg" version="1.1">
 <metadata>
  <rdf:RDF xmlns:dc="http://purl.org/dc/elements/1.1/" xmlns:cc="http://creativecommons.org/ns#" xmlns:rdf="http://www.w3.org/1999/02/22-rdf-syntax-ns#">
   <cc:Work>
    <dc:type rdf:resource="http://purl.org/dc/dcmitype/StillImage"/>
    <dc:date>2023-07-12T22:40:51.905722</dc:date>
    <dc:format>image/svg+xml</dc:format>
    <dc:creator>
     <cc:Agent>
      <dc:title>Matplotlib v3.7.1, https://matplotlib.org/</dc:title>
     </cc:Agent>
    </dc:creator>
   </cc:Work>
  </rdf:RDF>
 </metadata>
 <defs>
  <style type="text/css">*{stroke-linejoin: round; stroke-linecap: butt}</style>
 </defs>
 <g id="figure_1">
  <g id="patch_1">
   <path d="M 0 345.6 
L 460.8 345.6 
L 460.8 0 
L 0 0 
z
" style="fill: #ffffff"/>
  </g>
  <g id="axes_1">
   <g id="patch_2">
    <path d="M 57.6 307.584 
L 414.72 307.584 
L 414.72 41.472 
L 57.6 41.472 
z
" style="fill: #e5e5e5"/>
   </g>
   <g id="matplotlib.axis_1">
    <g id="xtick_1">
     <g id="line2d_1">
      <path d="M 73.832727 307.584 
L 73.832727 41.472 
" clip-path="url(#peab15073bf)" style="fill: none; stroke: #ffffff; stroke-width: 0.8; stroke-linecap: square"/>
     </g>
     <g id="line2d_2">
      <defs>
       <path id="m5970fbdde1" d="M 0 0 
L 0 3.5 
" style="stroke: #555555; stroke-width: 0.8"/>
      </defs>
      <g>
       <use xlink:href="#m5970fbdde1" x="73.832727" y="307.584" style="fill: #555555; stroke: #555555; stroke-width: 0.8"/>
      </g>
     </g>
     <g id="text_1">
      <!-- 0 -->
      <g style="fill: #555555" transform="translate(70.651477 322.182437) scale(0.1 -0.1)">
       <defs>
        <path id="DejaVuSans-30" d="M 2034 4250 
Q 1547 4250 1301 3770 
Q 1056 3291 1056 2328 
Q 1056 1369 1301 889 
Q 1547 409 2034 409 
Q 2525 409 2770 889 
Q 3016 1369 3016 2328 
Q 3016 3291 2770 3770 
Q 2525 4250 2034 4250 
z
M 2034 4750 
Q 2819 4750 3233 4129 
Q 3647 3509 3647 2328 
Q 3647 1150 3233 529 
Q 2819 -91 2034 -91 
Q 1250 -91 836 529 
Q 422 1150 422 2328 
Q 422 3509 836 4129 
Q 1250 4750 2034 4750 
z
" transform="scale(0.015625)"/>
       </defs>
       <use xlink:href="#DejaVuSans-30"/>
      </g>
     </g>
    </g>
    <g id="xtick_2">
     <g id="line2d_3">
      <path d="M 134.177438 307.584 
L 134.177438 41.472 
" clip-path="url(#peab15073bf)" style="fill: none; stroke: #ffffff; stroke-width: 0.8; stroke-linecap: square"/>
     </g>
     <g id="line2d_4">
      <g>
       <use xlink:href="#m5970fbdde1" x="134.177438" y="307.584" style="fill: #555555; stroke: #555555; stroke-width: 0.8"/>
      </g>
     </g>
     <g id="text_2">
      <!-- 50 -->
      <g style="fill: #555555" transform="translate(127.814938 322.182437) scale(0.1 -0.1)">
       <defs>
        <path id="DejaVuSans-35" d="M 691 4666 
L 3169 4666 
L 3169 4134 
L 1269 4134 
L 1269 2991 
Q 1406 3038 1543 3061 
Q 1681 3084 1819 3084 
Q 2600 3084 3056 2656 
Q 3513 2228 3513 1497 
Q 3513 744 3044 326 
Q 2575 -91 1722 -91 
Q 1428 -91 1123 -41 
Q 819 9 494 109 
L 494 744 
Q 775 591 1075 516 
Q 1375 441 1709 441 
Q 2250 441 2565 725 
Q 2881 1009 2881 1497 
Q 2881 1984 2565 2268 
Q 2250 2553 1709 2553 
Q 1456 2553 1204 2497 
Q 953 2441 691 2322 
L 691 4666 
z
" transform="scale(0.015625)"/>
       </defs>
       <use xlink:href="#DejaVuSans-35"/>
       <use xlink:href="#DejaVuSans-30" x="63.623047"/>
      </g>
     </g>
    </g>
    <g id="xtick_3">
     <g id="line2d_5">
      <path d="M 194.522149 307.584 
L 194.522149 41.472 
" clip-path="url(#peab15073bf)" style="fill: none; stroke: #ffffff; stroke-width: 0.8; stroke-linecap: square"/>
     </g>
     <g id="line2d_6">
      <g>
       <use xlink:href="#m5970fbdde1" x="194.522149" y="307.584" style="fill: #555555; stroke: #555555; stroke-width: 0.8"/>
      </g>
     </g>
     <g id="text_3">
      <!-- 100 -->
      <g style="fill: #555555" transform="translate(184.978399 322.182437) scale(0.1 -0.1)">
       <defs>
        <path id="DejaVuSans-31" d="M 794 531 
L 1825 531 
L 1825 4091 
L 703 3866 
L 703 4441 
L 1819 4666 
L 2450 4666 
L 2450 531 
L 3481 531 
L 3481 0 
L 794 0 
L 794 531 
z
" transform="scale(0.015625)"/>
       </defs>
       <use xlink:href="#DejaVuSans-31"/>
       <use xlink:href="#DejaVuSans-30" x="63.623047"/>
       <use xlink:href="#DejaVuSans-30" x="127.246094"/>
      </g>
     </g>
    </g>
    <g id="xtick_4">
     <g id="line2d_7">
      <path d="M 254.86686 307.584 
L 254.86686 41.472 
" clip-path="url(#peab15073bf)" style="fill: none; stroke: #ffffff; stroke-width: 0.8; stroke-linecap: square"/>
     </g>
     <g id="line2d_8">
      <g>
       <use xlink:href="#m5970fbdde1" x="254.86686" y="307.584" style="fill: #555555; stroke: #555555; stroke-width: 0.8"/>
      </g>
     </g>
     <g id="text_4">
      <!-- 150 -->
      <g style="fill: #555555" transform="translate(245.32311 322.182437) scale(0.1 -0.1)">
       <use xlink:href="#DejaVuSans-31"/>
       <use xlink:href="#DejaVuSans-35" x="63.623047"/>
       <use xlink:href="#DejaVuSans-30" x="127.246094"/>
      </g>
     </g>
    </g>
    <g id="xtick_5">
     <g id="line2d_9">
      <path d="M 315.211571 307.584 
L 315.211571 41.472 
" clip-path="url(#peab15073bf)" style="fill: none; stroke: #ffffff; stroke-width: 0.8; stroke-linecap: square"/>
     </g>
     <g id="line2d_10">
      <g>
       <use xlink:href="#m5970fbdde1" x="315.211571" y="307.584" style="fill: #555555; stroke: #555555; stroke-width: 0.8"/>
      </g>
     </g>
     <g id="text_5">
      <!-- 200 -->
      <g style="fill: #555555" transform="translate(305.667821 322.182437) scale(0.1 -0.1)">
       <defs>
        <path id="DejaVuSans-32" d="M 1228 531 
L 3431 531 
L 3431 0 
L 469 0 
L 469 531 
Q 828 903 1448 1529 
Q 2069 2156 2228 2338 
Q 2531 2678 2651 2914 
Q 2772 3150 2772 3378 
Q 2772 3750 2511 3984 
Q 2250 4219 1831 4219 
Q 1534 4219 1204 4116 
Q 875 4013 500 3803 
L 500 4441 
Q 881 4594 1212 4672 
Q 1544 4750 1819 4750 
Q 2544 4750 2975 4387 
Q 3406 4025 3406 3419 
Q 3406 3131 3298 2873 
Q 3191 2616 2906 2266 
Q 2828 2175 2409 1742 
Q 1991 1309 1228 531 
z
" transform="scale(0.015625)"/>
       </defs>
       <use xlink:href="#DejaVuSans-32"/>
       <use xlink:href="#DejaVuSans-30" x="63.623047"/>
       <use xlink:href="#DejaVuSans-30" x="127.246094"/>
      </g>
     </g>
    </g>
    <g id="xtick_6">
     <g id="line2d_11">
      <path d="M 375.556283 307.584 
L 375.556283 41.472 
" clip-path="url(#peab15073bf)" style="fill: none; stroke: #ffffff; stroke-width: 0.8; stroke-linecap: square"/>
     </g>
     <g id="line2d_12">
      <g>
       <use xlink:href="#m5970fbdde1" x="375.556283" y="307.584" style="fill: #555555; stroke: #555555; stroke-width: 0.8"/>
      </g>
     </g>
     <g id="text_6">
      <!-- 250 -->
      <g style="fill: #555555" transform="translate(366.012533 322.182437) scale(0.1 -0.1)">
       <use xlink:href="#DejaVuSans-32"/>
       <use xlink:href="#DejaVuSans-35" x="63.623047"/>
       <use xlink:href="#DejaVuSans-30" x="127.246094"/>
      </g>
     </g>
    </g>
    <g id="text_7">
     <!-- epochs -->
     <g style="fill: #555555" transform="translate(214.760625 337.38025) scale(0.12 -0.12)">
      <defs>
       <path id="DejaVuSans-65" d="M 3597 1894 
L 3597 1613 
L 953 1613 
Q 991 1019 1311 708 
Q 1631 397 2203 397 
Q 2534 397 2845 478 
Q 3156 559 3463 722 
L 3463 178 
Q 3153 47 2828 -22 
Q 2503 -91 2169 -91 
Q 1331 -91 842 396 
Q 353 884 353 1716 
Q 353 2575 817 3079 
Q 1281 3584 2069 3584 
Q 2775 3584 3186 3129 
Q 3597 2675 3597 1894 
z
M 3022 2063 
Q 3016 2534 2758 2815 
Q 2500 3097 2075 3097 
Q 1594 3097 1305 2825 
Q 1016 2553 972 2059 
L 3022 2063 
z
" transform="scale(0.015625)"/>
       <path id="DejaVuSans-70" d="M 1159 525 
L 1159 -1331 
L 581 -1331 
L 581 3500 
L 1159 3500 
L 1159 2969 
Q 1341 3281 1617 3432 
Q 1894 3584 2278 3584 
Q 2916 3584 3314 3078 
Q 3713 2572 3713 1747 
Q 3713 922 3314 415 
Q 2916 -91 2278 -91 
Q 1894 -91 1617 61 
Q 1341 213 1159 525 
z
M 3116 1747 
Q 3116 2381 2855 2742 
Q 2594 3103 2138 3103 
Q 1681 3103 1420 2742 
Q 1159 2381 1159 1747 
Q 1159 1113 1420 752 
Q 1681 391 2138 391 
Q 2594 391 2855 752 
Q 3116 1113 3116 1747 
z
" transform="scale(0.015625)"/>
       <path id="DejaVuSans-6f" d="M 1959 3097 
Q 1497 3097 1228 2736 
Q 959 2375 959 1747 
Q 959 1119 1226 758 
Q 1494 397 1959 397 
Q 2419 397 2687 759 
Q 2956 1122 2956 1747 
Q 2956 2369 2687 2733 
Q 2419 3097 1959 3097 
z
M 1959 3584 
Q 2709 3584 3137 3096 
Q 3566 2609 3566 1747 
Q 3566 888 3137 398 
Q 2709 -91 1959 -91 
Q 1206 -91 779 398 
Q 353 888 353 1747 
Q 353 2609 779 3096 
Q 1206 3584 1959 3584 
z
" transform="scale(0.015625)"/>
       <path id="DejaVuSans-63" d="M 3122 3366 
L 3122 2828 
Q 2878 2963 2633 3030 
Q 2388 3097 2138 3097 
Q 1578 3097 1268 2742 
Q 959 2388 959 1747 
Q 959 1106 1268 751 
Q 1578 397 2138 397 
Q 2388 397 2633 464 
Q 2878 531 3122 666 
L 3122 134 
Q 2881 22 2623 -34 
Q 2366 -91 2075 -91 
Q 1284 -91 818 406 
Q 353 903 353 1747 
Q 353 2603 823 3093 
Q 1294 3584 2113 3584 
Q 2378 3584 2631 3529 
Q 2884 3475 3122 3366 
z
" transform="scale(0.015625)"/>
       <path id="DejaVuSans-68" d="M 3513 2113 
L 3513 0 
L 2938 0 
L 2938 2094 
Q 2938 2591 2744 2837 
Q 2550 3084 2163 3084 
Q 1697 3084 1428 2787 
Q 1159 2491 1159 1978 
L 1159 0 
L 581 0 
L 581 4863 
L 1159 4863 
L 1159 2956 
Q 1366 3272 1645 3428 
Q 1925 3584 2291 3584 
Q 2894 3584 3203 3211 
Q 3513 2838 3513 2113 
z
" transform="scale(0.015625)"/>
       <path id="DejaVuSans-73" d="M 2834 3397 
L 2834 2853 
Q 2591 2978 2328 3040 
Q 2066 3103 1784 3103 
Q 1356 3103 1142 2972 
Q 928 2841 928 2578 
Q 928 2378 1081 2264 
Q 1234 2150 1697 2047 
L 1894 2003 
Q 2506 1872 2764 1633 
Q 3022 1394 3022 966 
Q 3022 478 2636 193 
Q 2250 -91 1575 -91 
Q 1294 -91 989 -36 
Q 684 19 347 128 
L 347 722 
Q 666 556 975 473 
Q 1284 391 1588 391 
Q 1994 391 2212 530 
Q 2431 669 2431 922 
Q 2431 1156 2273 1281 
Q 2116 1406 1581 1522 
L 1381 1569 
Q 847 1681 609 1914 
Q 372 2147 372 2553 
Q 372 3047 722 3315 
Q 1072 3584 1716 3584 
Q 2034 3584 2315 3537 
Q 2597 3491 2834 3397 
z
" transform="scale(0.015625)"/>
      </defs>
      <use xlink:href="#DejaVuSans-65"/>
      <use xlink:href="#DejaVuSans-70" x="61.523438"/>
      <use xlink:href="#DejaVuSans-6f" x="125"/>
      <use xlink:href="#DejaVuSans-63" x="186.181641"/>
      <use xlink:href="#DejaVuSans-68" x="241.162109"/>
      <use xlink:href="#DejaVuSans-73" x="304.541016"/>
     </g>
    </g>
   </g>
   <g id="matplotlib.axis_2">
    <g id="ytick_1">
     <g id="line2d_13">
      <path d="M 57.6 275.583615 
L 414.72 275.583615 
" clip-path="url(#peab15073bf)" style="fill: none; stroke: #ffffff; stroke-width: 0.8; stroke-linecap: square"/>
     </g>
     <g id="line2d_14">
      <defs>
       <path id="m71af091f9e" d="M 0 0 
L -3.5 0 
" style="stroke: #555555; stroke-width: 0.8"/>
      </defs>
      <g>
       <use xlink:href="#m71af091f9e" x="57.6" y="275.583615" style="fill: #555555; stroke: #555555; stroke-width: 0.8"/>
      </g>
     </g>
     <g id="text_8">
      <!-- 0.5 -->
      <g style="fill: #555555" transform="translate(34.696875 279.382834) scale(0.1 -0.1)">
       <defs>
        <path id="DejaVuSans-2e" d="M 684 794 
L 1344 794 
L 1344 0 
L 684 0 
L 684 794 
z
" transform="scale(0.015625)"/>
       </defs>
       <use xlink:href="#DejaVuSans-30"/>
       <use xlink:href="#DejaVuSans-2e" x="63.623047"/>
       <use xlink:href="#DejaVuSans-35" x="95.410156"/>
      </g>
     </g>
    </g>
    <g id="ytick_2">
     <g id="line2d_15">
      <path d="M 57.6 241.546733 
L 414.72 241.546733 
" clip-path="url(#peab15073bf)" style="fill: none; stroke: #ffffff; stroke-width: 0.8; stroke-linecap: square"/>
     </g>
     <g id="line2d_16">
      <g>
       <use xlink:href="#m71af091f9e" x="57.6" y="241.546733" style="fill: #555555; stroke: #555555; stroke-width: 0.8"/>
      </g>
     </g>
     <g id="text_9">
      <!-- 1.0 -->
      <g style="fill: #555555" transform="translate(34.696875 245.345952) scale(0.1 -0.1)">
       <use xlink:href="#DejaVuSans-31"/>
       <use xlink:href="#DejaVuSans-2e" x="63.623047"/>
       <use xlink:href="#DejaVuSans-30" x="95.410156"/>
      </g>
     </g>
    </g>
    <g id="ytick_3">
     <g id="line2d_17">
      <path d="M 57.6 207.509852 
L 414.72 207.509852 
" clip-path="url(#peab15073bf)" style="fill: none; stroke: #ffffff; stroke-width: 0.8; stroke-linecap: square"/>
     </g>
     <g id="line2d_18">
      <g>
       <use xlink:href="#m71af091f9e" x="57.6" y="207.509852" style="fill: #555555; stroke: #555555; stroke-width: 0.8"/>
      </g>
     </g>
     <g id="text_10">
      <!-- 1.5 -->
      <g style="fill: #555555" transform="translate(34.696875 211.30907) scale(0.1 -0.1)">
       <use xlink:href="#DejaVuSans-31"/>
       <use xlink:href="#DejaVuSans-2e" x="63.623047"/>
       <use xlink:href="#DejaVuSans-35" x="95.410156"/>
      </g>
     </g>
    </g>
    <g id="ytick_4">
     <g id="line2d_19">
      <path d="M 57.6 173.47297 
L 414.72 173.47297 
" clip-path="url(#peab15073bf)" style="fill: none; stroke: #ffffff; stroke-width: 0.8; stroke-linecap: square"/>
     </g>
     <g id="line2d_20">
      <g>
       <use xlink:href="#m71af091f9e" x="57.6" y="173.47297" style="fill: #555555; stroke: #555555; stroke-width: 0.8"/>
      </g>
     </g>
     <g id="text_11">
      <!-- 2.0 -->
      <g style="fill: #555555" transform="translate(34.696875 177.272189) scale(0.1 -0.1)">
       <use xlink:href="#DejaVuSans-32"/>
       <use xlink:href="#DejaVuSans-2e" x="63.623047"/>
       <use xlink:href="#DejaVuSans-30" x="95.410156"/>
      </g>
     </g>
    </g>
    <g id="ytick_5">
     <g id="line2d_21">
      <path d="M 57.6 139.436088 
L 414.72 139.436088 
" clip-path="url(#peab15073bf)" style="fill: none; stroke: #ffffff; stroke-width: 0.8; stroke-linecap: square"/>
     </g>
     <g id="line2d_22">
      <g>
       <use xlink:href="#m71af091f9e" x="57.6" y="139.436088" style="fill: #555555; stroke: #555555; stroke-width: 0.8"/>
      </g>
     </g>
     <g id="text_12">
      <!-- 2.5 -->
      <g style="fill: #555555" transform="translate(34.696875 143.235307) scale(0.1 -0.1)">
       <use xlink:href="#DejaVuSans-32"/>
       <use xlink:href="#DejaVuSans-2e" x="63.623047"/>
       <use xlink:href="#DejaVuSans-35" x="95.410156"/>
      </g>
     </g>
    </g>
    <g id="ytick_6">
     <g id="line2d_23">
      <path d="M 57.6 105.399207 
L 414.72 105.399207 
" clip-path="url(#peab15073bf)" style="fill: none; stroke: #ffffff; stroke-width: 0.8; stroke-linecap: square"/>
     </g>
     <g id="line2d_24">
      <g>
       <use xlink:href="#m71af091f9e" x="57.6" y="105.399207" style="fill: #555555; stroke: #555555; stroke-width: 0.8"/>
      </g>
     </g>
     <g id="text_13">
      <!-- 3.0 -->
      <g style="fill: #555555" transform="translate(34.696875 109.198425) scale(0.1 -0.1)">
       <defs>
        <path id="DejaVuSans-33" d="M 2597 2516 
Q 3050 2419 3304 2112 
Q 3559 1806 3559 1356 
Q 3559 666 3084 287 
Q 2609 -91 1734 -91 
Q 1441 -91 1130 -33 
Q 819 25 488 141 
L 488 750 
Q 750 597 1062 519 
Q 1375 441 1716 441 
Q 2309 441 2620 675 
Q 2931 909 2931 1356 
Q 2931 1769 2642 2001 
Q 2353 2234 1838 2234 
L 1294 2234 
L 1294 2753 
L 1863 2753 
Q 2328 2753 2575 2939 
Q 2822 3125 2822 3475 
Q 2822 3834 2567 4026 
Q 2313 4219 1838 4219 
Q 1578 4219 1281 4162 
Q 984 4106 628 3988 
L 628 4550 
Q 988 4650 1302 4700 
Q 1616 4750 1894 4750 
Q 2613 4750 3031 4423 
Q 3450 4097 3450 3541 
Q 3450 3153 3228 2886 
Q 3006 2619 2597 2516 
z
" transform="scale(0.015625)"/>
       </defs>
       <use xlink:href="#DejaVuSans-33"/>
       <use xlink:href="#DejaVuSans-2e" x="63.623047"/>
       <use xlink:href="#DejaVuSans-30" x="95.410156"/>
      </g>
     </g>
    </g>
    <g id="ytick_7">
     <g id="line2d_25">
      <path d="M 57.6 71.362325 
L 414.72 71.362325 
" clip-path="url(#peab15073bf)" style="fill: none; stroke: #ffffff; stroke-width: 0.8; stroke-linecap: square"/>
     </g>
     <g id="line2d_26">
      <g>
       <use xlink:href="#m71af091f9e" x="57.6" y="71.362325" style="fill: #555555; stroke: #555555; stroke-width: 0.8"/>
      </g>
     </g>
     <g id="text_14">
      <!-- 3.5 -->
      <g style="fill: #555555" transform="translate(34.696875 75.161544) scale(0.1 -0.1)">
       <use xlink:href="#DejaVuSans-33"/>
       <use xlink:href="#DejaVuSans-2e" x="63.623047"/>
       <use xlink:href="#DejaVuSans-35" x="95.410156"/>
      </g>
     </g>
    </g>
    <g id="text_15">
     <!-- values -->
     <g style="fill: #555555" transform="translate(28.20125 194.043) rotate(-90) scale(0.12 -0.12)">
      <defs>
       <path id="DejaVuSans-76" d="M 191 3500 
L 800 3500 
L 1894 563 
L 2988 3500 
L 3597 3500 
L 2284 0 
L 1503 0 
L 191 3500 
z
" transform="scale(0.015625)"/>
       <path id="DejaVuSans-61" d="M 2194 1759 
Q 1497 1759 1228 1600 
Q 959 1441 959 1056 
Q 959 750 1161 570 
Q 1363 391 1709 391 
Q 2188 391 2477 730 
Q 2766 1069 2766 1631 
L 2766 1759 
L 2194 1759 
z
M 3341 1997 
L 3341 0 
L 2766 0 
L 2766 531 
Q 2569 213 2275 61 
Q 1981 -91 1556 -91 
Q 1019 -91 701 211 
Q 384 513 384 1019 
Q 384 1609 779 1909 
Q 1175 2209 1959 2209 
L 2766 2209 
L 2766 2266 
Q 2766 2663 2505 2880 
Q 2244 3097 1772 3097 
Q 1472 3097 1187 3025 
Q 903 2953 641 2809 
L 641 3341 
Q 956 3463 1253 3523 
Q 1550 3584 1831 3584 
Q 2591 3584 2966 3190 
Q 3341 2797 3341 1997 
z
" transform="scale(0.015625)"/>
       <path id="DejaVuSans-6c" d="M 603 4863 
L 1178 4863 
L 1178 0 
L 603 0 
L 603 4863 
z
" transform="scale(0.015625)"/>
       <path id="DejaVuSans-75" d="M 544 1381 
L 544 3500 
L 1119 3500 
L 1119 1403 
Q 1119 906 1312 657 
Q 1506 409 1894 409 
Q 2359 409 2629 706 
Q 2900 1003 2900 1516 
L 2900 3500 
L 3475 3500 
L 3475 0 
L 2900 0 
L 2900 538 
Q 2691 219 2414 64 
Q 2138 -91 1772 -91 
Q 1169 -91 856 284 
Q 544 659 544 1381 
z
M 1991 3584 
L 1991 3584 
z
" transform="scale(0.015625)"/>
      </defs>
      <use xlink:href="#DejaVuSans-76"/>
      <use xlink:href="#DejaVuSans-61" x="59.179688"/>
      <use xlink:href="#DejaVuSans-6c" x="120.458984"/>
      <use xlink:href="#DejaVuSans-75" x="148.242188"/>
      <use xlink:href="#DejaVuSans-65" x="211.621094"/>
      <use xlink:href="#DejaVuSans-73" x="273.144531"/>
     </g>
    </g>
   </g>
   <g id="PolyCollection_1">
    <defs>
     <path id="mca0afd3f18" d="M 73.832727 -84.598934 
L 73.832727 -84.014414 
L 75.039621 -80.625373 
L 76.246516 -78.237617 
L 77.45341 -76.378055 
L 78.660304 -74.915748 
L 79.867198 -73.713676 
L 81.074093 -72.6439 
L 82.280987 -71.753807 
L 83.487881 -71.017219 
L 84.694775 -70.287631 
L 85.901669 -69.703398 
L 87.108564 -69.195111 
L 88.315458 -68.661059 
L 89.522352 -68.208113 
L 90.729246 -67.866797 
L 91.936141 -67.42793 
L 93.143035 -67.135308 
L 94.349929 -66.803089 
L 95.556823 -66.500598 
L 96.763717 -66.230384 
L 97.970612 -66.008237 
L 99.177506 -65.72711 
L 100.3844 -65.498583 
L 101.591294 -65.314608 
L 102.798189 -65.062748 
L 104.005083 -64.90521 
L 105.211977 -64.741041 
L 106.418871 -64.519212 
L 107.625765 -64.381279 
L 108.83266 -64.247653 
L 110.039554 -64.050948 
L 111.246448 -63.926236 
L 112.453342 -63.833363 
L 113.660237 -63.636736 
L 114.867131 -63.5379 
L 116.074025 -63.454144 
L 117.280919 -63.24516 
L 118.487813 -63.177034 
L 119.694708 -63.09675 
L 120.901602 -62.912998 
L 122.108496 -62.850659 
L 123.31539 -62.785751 
L 124.522285 -62.639685 
L 125.729179 -62.555313 
L 126.936073 -62.494305 
L 128.142967 -62.367248 
L 129.349861 -62.252789 
L 130.556756 -62.227881 
L 131.76365 -62.096977 
L 132.970544 -62.024697 
L 134.177438 -61.934095 
L 135.384333 -61.85841 
L 136.591227 -61.791753 
L 137.798121 -61.737773 
L 139.005015 -61.623895 
L 140.211909 -61.573254 
L 141.418804 -61.516815 
L 142.625698 -61.400948 
L 143.832592 -61.356455 
L 145.039486 -61.311357 
L 146.246381 -61.204194 
L 147.453275 -61.144744 
L 148.660169 -61.104472 
L 149.867063 -61.005221 
L 151.073957 -60.934848 
L 152.280852 -60.913606 
L 153.487746 -60.823253 
L 154.69464 -60.7468 
L 155.901534 -60.726132 
L 157.108429 -60.643191 
L 158.315323 -60.595784 
L 159.522217 -60.549954 
L 160.729111 -60.430902 
L 161.936005 -60.419905 
L 163.1429 -60.377776 
L 164.349794 -60.292109 
L 165.556688 -60.259909 
L 166.763582 -60.202574 
L 167.970477 -60.125205 
L 169.177371 -60.087441 
L 170.384265 -60.049749 
L 171.591159 -59.973628 
L 172.798053 -59.927589 
L 174.004948 -59.892075 
L 175.211842 -59.818486 
L 176.418736 -59.783878 
L 177.62563 -59.73844 
L 178.832525 -59.671622 
L 180.039419 -59.61765 
L 181.246313 -59.590243 
L 182.453207 -59.527407 
L 183.660101 -59.49597 
L 184.866996 -59.408203 
L 186.07389 -59.307186 
L 187.280784 -59.241849 
L 188.487678 -59.164608 
L 189.694572 -59.047103 
L 190.901467 -58.97658 
L 192.108361 -58.912531 
L 193.315255 -58.822247 
L 194.522149 -58.761835 
L 195.729044 -58.68175 
L 196.935938 -58.601664 
L 198.142832 -58.533533 
L 199.349726 -58.444767 
L 200.55662 -58.369671 
L 201.763515 -58.299152 
L 202.970409 -58.223262 
L 204.177303 -58.154887 
L 205.384197 -58.090198 
L 206.591092 -58.003442 
L 207.797986 -57.947537 
L 209.00488 -57.871402 
L 210.211774 -57.810208 
L 211.418668 -57.724915 
L 212.625563 -57.676601 
L 213.832457 -57.586007 
L 215.039351 -57.544461 
L 216.246245 -57.47293 
L 217.45314 -57.380409 
L 218.660034 -57.324265 
L 219.866928 -57.277366 
L 221.073822 -57.184314 
L 222.280716 -57.137291 
L 223.487611 -57.07929 
L 224.694505 -56.994828 
L 225.901399 -56.948004 
L 227.108293 -56.89439 
L 228.315188 -56.804103 
L 229.522082 -56.746154 
L 230.728976 -56.705233 
L 231.93587 -56.615654 
L 233.142764 -56.563711 
L 234.349659 -56.498677 
L 235.556553 -56.443179 
L 236.763447 -56.400862 
L 237.970341 -56.338304 
L 239.177236 -56.255523 
L 240.38413 -56.2023 
L 241.591024 -56.139209 
L 242.797918 -56.069018 
L 244.004812 -56.047255 
L 245.211707 -55.988594 
L 246.418601 -55.881397 
L 247.625495 -55.878204 
L 248.832389 -55.818389 
L 250.039284 -55.722381 
L 251.246178 -55.70337 
L 252.453072 -55.648236 
L 253.659966 -55.550508 
L 254.86686 -55.520198 
L 256.073755 -55.461942 
L 257.280649 -55.377697 
L 258.487543 -55.363669 
L 259.694437 -55.311389 
L 260.901332 -55.204473 
L 262.108226 -55.187175 
L 263.31512 -55.15122 
L 264.522014 -55.056296 
L 265.728908 -55.048848 
L 266.935803 -54.995418 
L 268.142697 -54.892157 
L 269.349591 -54.881303 
L 270.556485 -54.831832 
L 271.76338 -54.735676 
L 272.970274 -54.71913 
L 274.177168 -54.676303 
L 275.384062 -54.570687 
L 276.590956 -54.567343 
L 277.797851 -54.524452 
L 279.004745 -54.417367 
L 280.211639 -54.419548 
L 281.418533 -54.354302 
L 282.625428 -54.265167 
L 283.832322 -54.268469 
L 285.039216 -54.205762 
L 286.24611 -54.118909 
L 287.453004 -54.112177 
L 288.659899 -54.05763 
L 289.866793 -53.968258 
L 291.073687 -53.967753 
L 292.280581 -53.925422 
L 293.487475 -53.819912 
L 294.69437 -53.827085 
L 295.901264 -53.780445 
L 297.108158 -53.678138 
L 298.315052 -53.687791 
L 299.521947 -53.632871 
L 300.728841 -53.517931 
L 301.935735 -53.528352 
L 303.142629 -53.48703 
L 304.349523 -53.381939 
L 305.556418 -53.402038 
L 306.763312 -53.346536 
L 307.970206 -53.234406 
L 309.1771 -53.25665 
L 310.383995 -53.199376 
L 311.590889 -53.090581 
L 312.797783 -53.110966 
L 314.004677 -53.060328 
L 315.211571 -52.948263 
L 316.418466 -52.973344 
L 317.62536 -52.923798 
L 318.832254 -52.823752 
L 320.039148 -52.84569 
L 321.246043 -52.787129 
L 322.452937 -52.676961 
L 323.659831 -52.709389 
L 324.866725 -52.663524 
L 326.073619 -52.548369 
L 327.280514 -52.574297 
L 328.487408 -52.529999 
L 329.694302 -52.41861 
L 330.901196 -52.452221 
L 332.108091 -52.395227 
L 333.314985 -52.271712 
L 334.521879 -52.317695 
L 335.728773 -52.260061 
L 336.935667 -52.140697 
L 338.142562 -52.182808 
L 339.349456 -52.142883 
L 340.55635 -52.013445 
L 341.763244 -52.062968 
L 342.970139 -52.014504 
L 344.177033 -51.886595 
L 345.383927 -51.935387 
L 346.590821 -51.880693 
L 347.797715 -51.755318 
L 349.00461 -51.8104 
L 350.211504 -51.757345 
L 351.418398 -51.634517 
L 352.625292 -51.685784 
L 353.832187 -51.642694 
L 355.039081 -51.516853 
L 356.245975 -51.571655 
L 357.452869 -51.514211 
L 358.659763 -51.393113 
L 359.866658 -51.444708 
L 361.073552 -51.39123 
L 362.280446 -51.273419 
L 363.48734 -51.324859 
L 364.694235 -51.273981 
L 365.901129 -51.146281 
L 367.108023 -51.203579 
L 368.314917 -51.155292 
L 369.521811 -51.025733 
L 370.728706 -51.089453 
L 371.9356 -51.036452 
L 373.142494 -50.905915 
L 374.349388 -50.976088 
L 375.556283 -50.919769 
L 376.763177 -50.790103 
L 377.970071 -50.857429 
L 379.176965 -50.809177 
L 380.383859 -50.672342 
L 381.590754 -50.741682 
L 382.797648 -50.692301 
L 384.004542 -50.556992 
L 385.211436 -50.627066 
L 386.418331 -50.579255 
L 387.625225 -50.447701 
L 388.832119 -50.514211 
L 390.039013 -50.466983 
L 391.245907 -50.331261 
L 392.452802 -50.371581 
L 393.659696 -50.355023 
L 394.86659 -50.22688 
L 396.073484 -50.29255 
L 397.280379 -50.243799 
L 398.487273 -50.112 
L 398.487273 -50.430631 
L 398.487273 -50.430631 
L 397.280379 -50.602269 
L 396.073484 -50.610701 
L 394.86659 -50.546812 
L 393.659696 -50.712304 
L 392.452802 -50.722378 
L 391.245907 -50.689945 
L 390.039013 -50.791402 
L 388.832119 -50.86545 
L 387.625225 -50.806695 
L 386.418331 -50.932246 
L 385.211436 -50.977748 
L 384.004542 -50.916501 
L 382.797648 -51.050951 
L 381.590754 -51.091277 
L 380.383859 -51.031499 
L 379.176965 -51.162619 
L 377.970071 -51.202978 
L 376.763177 -51.12327 
L 375.556283 -51.271759 
L 374.349388 -51.287082 
L 373.142494 -51.230497 
L 371.9356 -51.392445 
L 370.728706 -51.431106 
L 369.521811 -51.358738 
L 368.314917 -51.511337 
L 367.108023 -51.548044 
L 365.901129 -51.50084 
L 364.694235 -51.599038 
L 363.48734 -51.6667 
L 362.280446 -51.622109 
L 361.073552 -51.7465 
L 359.866658 -51.783455 
L 358.659763 -51.724977 
L 357.452869 -51.845862 
L 356.245975 -51.907371 
L 355.039081 -51.838598 
L 353.832187 -51.96265 
L 352.625292 -52.006768 
L 351.418398 -51.965738 
L 350.211504 -52.118915 
L 349.00461 -52.153527 
L 347.797715 -52.086502 
L 346.590821 -52.237533 
L 345.383927 -52.276182 
L 344.177033 -52.221532 
L 342.970139 -52.343751 
L 341.763244 -52.401059 
L 340.55635 -52.346548 
L 339.349456 -52.487364 
L 338.142562 -52.515828 
L 336.935667 -52.498666 
L 335.728773 -52.60413 
L 334.521879 -52.654939 
L 333.314985 -52.615101 
L 332.108091 -52.744363 
L 330.901196 -52.769141 
L 329.694302 -52.753632 
L 328.487408 -52.84818 
L 327.280514 -52.899257 
L 326.073619 -52.881218 
L 324.866725 -53.018745 
L 323.659831 -53.043854 
L 322.452937 -53.029073 
L 321.246043 -53.147489 
L 320.039148 -53.158447 
L 318.832254 -53.153465 
L 317.62536 -53.281142 
L 316.418466 -53.313871 
L 315.211571 -53.266322 
L 314.004677 -53.417444 
L 312.797783 -53.433606 
L 311.590889 -53.418256 
L 310.383995 -53.541453 
L 309.1771 -53.587819 
L 307.970206 -53.561736 
L 306.763312 -53.685344 
L 305.556418 -53.727033 
L 304.349523 -53.724147 
L 303.142629 -53.816276 
L 301.935735 -53.861162 
L 300.728841 -53.866024 
L 299.521947 -53.968001 
L 298.315052 -53.995527 
L 297.108158 -54.013515 
L 295.901264 -54.102525 
L 294.69437 -54.152376 
L 293.487475 -54.126147 
L 292.280581 -54.249878 
L 291.073687 -54.291646 
L 289.866793 -54.288251 
L 288.659899 -54.412816 
L 287.453004 -54.445314 
L 286.24611 -54.454083 
L 285.039216 -54.534695 
L 283.832322 -54.600168 
L 282.625428 -54.600199 
L 281.418533 -54.689989 
L 280.211639 -54.750049 
L 279.004745 -54.746184 
L 277.797851 -54.845858 
L 276.590956 -54.888525 
L 275.384062 -54.915214 
L 274.177168 -55.018363 
L 272.970274 -55.054002 
L 271.76338 -55.066298 
L 270.556485 -55.172399 
L 269.349591 -55.213919 
L 268.142697 -55.224629 
L 266.935803 -55.332542 
L 265.728908 -55.376243 
L 264.522014 -55.382875 
L 263.31512 -55.483295 
L 262.108226 -55.526839 
L 260.901332 -55.551094 
L 259.694437 -55.652703 
L 258.487543 -55.659803 
L 257.280649 -55.7341 
L 256.073755 -55.81229 
L 254.86686 -55.844887 
L 253.659966 -55.882485 
L 252.453072 -55.973029 
L 251.246178 -56.017699 
L 250.039284 -56.050971 
L 248.832389 -56.143944 
L 247.625495 -56.182784 
L 246.418601 -56.220542 
L 245.211707 -56.318269 
L 244.004812 -56.362453 
L 242.797918 -56.375562 
L 241.591024 -56.492318 
L 240.38413 -56.532174 
L 239.177236 -56.566484 
L 237.970341 -56.662786 
L 236.763447 -56.712764 
L 235.556553 -56.754722 
L 234.349659 -56.845702 
L 233.142764 -56.860615 
L 231.93587 -56.950982 
L 230.728976 -57.024675 
L 229.522082 -57.069574 
L 228.315188 -57.122579 
L 227.108293 -57.213608 
L 225.901399 -57.260652 
L 224.694505 -57.302059 
L 223.487611 -57.396831 
L 222.280716 -57.446255 
L 221.073822 -57.508375 
L 219.866928 -57.590964 
L 218.660034 -57.628726 
L 217.45314 -57.687173 
L 216.246245 -57.788504 
L 215.039351 -57.838061 
L 213.832457 -57.892591 
L 212.625563 -57.976621 
L 211.418668 -58.037243 
L 210.211774 -58.091539 
L 209.00488 -58.194967 
L 207.797986 -58.228468 
L 206.591092 -58.307247 
L 205.384197 -58.389558 
L 204.177303 -58.439088 
L 202.970409 -58.529669 
L 201.763515 -58.598465 
L 200.55662 -58.663994 
L 199.349726 -58.741421 
L 198.142832 -58.824799 
L 196.935938 -58.867924 
L 195.729044 -58.978517 
L 194.522149 -59.053576 
L 193.315255 -59.107155 
L 192.108361 -59.202281 
L 190.901467 -59.270187 
L 189.694572 -59.344943 
L 188.487678 -59.418636 
L 187.280784 -59.523797 
L 186.07389 -59.583558 
L 184.866996 -59.682011 
L 183.660101 -59.775612 
L 182.453207 -59.794001 
L 181.246313 -59.844338 
L 180.039419 -59.902392 
L 178.832525 -59.937117 
L 177.62563 -59.99631 
L 176.418736 -60.068325 
L 175.211842 -60.097689 
L 174.004948 -60.175733 
L 172.798053 -60.203903 
L 171.591159 -60.226847 
L 170.384265 -60.330841 
L 169.177371 -60.380596 
L 167.970477 -60.395444 
L 166.763582 -60.483213 
L 165.556688 -60.533268 
L 164.349794 -60.582781 
L 163.1429 -60.640888 
L 161.936005 -60.699447 
L 160.729111 -60.753196 
L 159.522217 -60.828243 
L 158.315323 -60.879215 
L 157.108429 -60.926332 
L 155.901534 -61.018116 
L 154.69464 -61.056829 
L 153.487746 -61.111939 
L 152.280852 -61.206342 
L 151.073957 -61.270873 
L 149.867063 -61.284362 
L 148.660169 -61.391883 
L 147.453275 -61.449631 
L 146.246381 -61.479798 
L 145.039486 -61.604451 
L 143.832592 -61.64635 
L 142.625698 -61.71417 
L 141.418804 -61.811161 
L 140.211909 -61.870419 
L 139.005015 -61.918967 
L 137.798121 -62.037432 
L 136.591227 -62.097415 
L 135.384333 -62.143618 
L 134.177438 -62.276851 
L 132.970544 -62.334714 
L 131.76365 -62.386595 
L 130.556756 -62.524674 
L 129.349861 -62.585068 
L 128.142967 -62.650178 
L 126.936073 -62.791517 
L 125.729179 -62.866474 
L 124.522285 -62.936557 
L 123.31539 -63.077154 
L 122.108496 -63.159023 
L 120.901602 -63.234103 
L 119.694708 -63.408959 
L 118.487813 -63.48572 
L 117.280919 -63.577507 
L 116.074025 -63.747877 
L 114.867131 -63.846727 
L 113.660237 -63.940001 
L 112.453342 -64.126714 
L 111.246448 -64.235133 
L 110.039554 -64.358815 
L 108.83266 -64.538803 
L 107.625765 -64.684367 
L 106.418871 -64.81727 
L 105.211977 -65.039836 
L 104.005083 -65.192707 
L 102.798189 -65.357074 
L 101.591294 -65.614077 
L 100.3844 -65.80247 
L 99.177506 -66.003129 
L 97.970612 -66.279954 
L 96.763717 -66.514616 
L 95.556823 -66.773712 
L 94.349929 -67.09511 
L 93.143035 -67.406354 
L 91.936141 -67.731642 
L 90.729246 -68.138175 
L 89.522352 -68.51611 
L 88.315458 -68.956885 
L 87.108564 -69.4949 
L 85.901669 -70.043221 
L 84.694775 -70.651131 
L 83.487881 -71.389012 
L 82.280987 -72.15953 
L 81.074093 -73.060156 
L 79.867198 -74.139942 
L 78.660304 -75.413531 
L 77.45341 -76.929308 
L 76.246516 -78.818023 
L 75.039621 -81.27517 
L 73.832727 -84.598934 
z
" style="stroke: #e24a33; stroke-opacity: 0.2"/>
    </defs>
    <g clip-path="url(#peab15073bf)">
     <use xlink:href="#mca0afd3f18" x="0" y="345.6" style="fill: #e24a33; fill-opacity: 0.2; stroke: #e24a33; stroke-opacity: 0.2"/>
    </g>
   </g>
   <g id="PolyCollection_2">
    <defs>
     <path id="m3f5fbf5189" d="M 73.832727 -90.181542 
L 73.832727 -88.670735 
L 75.039621 -94.807585 
L 76.246516 -100.414165 
L 77.45341 -105.540264 
L 78.660304 -110.221079 
L 79.867198 -114.644239 
L 81.074093 -118.715986 
L 82.280987 -122.579656 
L 83.487881 -126.176125 
L 84.694775 -129.615815 
L 85.901669 -132.822608 
L 87.108564 -135.862282 
L 88.315458 -138.873313 
L 89.522352 -141.578299 
L 90.729246 -144.153494 
L 91.936141 -146.46971 
L 93.143035 -149.01019 
L 94.349929 -151.322916 
L 95.556823 -153.525632 
L 96.763717 -155.552932 
L 97.970612 -157.504671 
L 99.177506 -159.398452 
L 100.3844 -161.264474 
L 101.591294 -162.90532 
L 102.798189 -164.632047 
L 104.005083 -166.132489 
L 105.211977 -167.639576 
L 106.418871 -169.187946 
L 107.625765 -170.500323 
L 108.83266 -171.751084 
L 110.039554 -173.049657 
L 111.246448 -174.328964 
L 112.453342 -175.488098 
L 113.660237 -176.658428 
L 114.867131 -177.506642 
L 116.074025 -178.612633 
L 117.280919 -179.586384 
L 118.487813 -180.639435 
L 119.694708 -181.563746 
L 120.901602 -182.487976 
L 122.108496 -183.381934 
L 123.31539 -184.18463 
L 124.522285 -184.994262 
L 125.729179 -185.693846 
L 126.936073 -186.468509 
L 128.142967 -187.234785 
L 129.349861 -187.9364 
L 130.556756 -188.477098 
L 131.76365 -189.250775 
L 132.970544 -189.818697 
L 134.177438 -190.43749 
L 135.384333 -191.031072 
L 136.591227 -191.544201 
L 137.798121 -192.082419 
L 139.005015 -192.501891 
L 140.211909 -193.063931 
L 141.418804 -193.467494 
L 142.625698 -193.941608 
L 143.832592 -194.480246 
L 145.039486 -194.866223 
L 146.246381 -195.41312 
L 147.453275 -195.619826 
L 148.660169 -196.005997 
L 149.867063 -196.544488 
L 151.073957 -196.741264 
L 152.280852 -197.202035 
L 153.487746 -197.324605 
L 154.69464 -197.788914 
L 155.901534 -198.141651 
L 157.108429 -198.34799 
L 158.315323 -198.816338 
L 159.522217 -198.953001 
L 160.729111 -199.448378 
L 161.936005 -199.483474 
L 163.1429 -199.885872 
L 164.349794 -199.928443 
L 165.556688 -200.172786 
L 166.763582 -200.513959 
L 167.970477 -200.57426 
L 169.177371 -200.900595 
L 170.384265 -201.067731 
L 171.591159 -201.279384 
L 172.798053 -201.417924 
L 174.004948 -201.613257 
L 175.211842 -201.764926 
L 176.418736 -201.945118 
L 177.62563 -202.010457 
L 178.832525 -202.176702 
L 180.039419 -202.305805 
L 181.246313 -202.41714 
L 182.453207 -202.535428 
L 183.660101 -202.568303 
L 184.866996 -203.408832 
L 186.07389 -203.960626 
L 187.280784 -204.991203 
L 188.487678 -205.71121 
L 189.694572 -206.281726 
L 190.901467 -207.185892 
L 192.108361 -207.899855 
L 193.315255 -208.84454 
L 194.522149 -209.389062 
L 195.729044 -209.954641 
L 196.935938 -210.5476 
L 198.142832 -211.501381 
L 199.349726 -211.941753 
L 200.55662 -212.858168 
L 201.763515 -213.274258 
L 202.970409 -214.346483 
L 204.177303 -214.756097 
L 205.384197 -215.528631 
L 206.591092 -216.183283 
L 207.797986 -216.820332 
L 209.00488 -217.339587 
L 210.211774 -218.060986 
L 211.418668 -218.716651 
L 212.625563 -219.29312 
L 213.832457 -219.68851 
L 215.039351 -220.530431 
L 216.246245 -221.144475 
L 217.45314 -221.54267 
L 218.660034 -222.430216 
L 219.866928 -222.074473 
L 221.073822 -223.43754 
L 222.280716 -224.167807 
L 223.487611 -224.532096 
L 224.694505 -225.010424 
L 225.901399 -225.59418 
L 227.108293 -226.189924 
L 228.315188 -226.734056 
L 229.522082 -227.344478 
L 230.728976 -228.057947 
L 231.93587 -228.3245 
L 233.142764 -228.93586 
L 234.349659 -229.45169 
L 235.556553 -229.963651 
L 236.763447 -229.924429 
L 237.970341 -230.960919 
L 239.177236 -231.603616 
L 240.38413 -231.542656 
L 241.591024 -232.365452 
L 242.797918 -232.854742 
L 244.004812 -232.225253 
L 245.211707 -233.772308 
L 246.418601 -233.911867 
L 247.625495 -234.876376 
L 248.832389 -235.369254 
L 250.039284 -235.728282 
L 251.246178 -235.930622 
L 252.453072 -236.822892 
L 253.659966 -237.121252 
L 254.86686 -237.747297 
L 256.073755 -238.105637 
L 257.280649 -238.357238 
L 258.487543 -238.988474 
L 259.694437 -239.047435 
L 260.901332 -239.742843 
L 262.108226 -240.268291 
L 263.31512 -240.617299 
L 264.522014 -241.220075 
L 265.728908 -241.527921 
L 266.935803 -241.76177 
L 268.142697 -242.143628 
L 269.349591 -242.239336 
L 270.556485 -243.342207 
L 271.76338 -243.588784 
L 272.970274 -244.129014 
L 274.177168 -244.346218 
L 275.384062 -244.710407 
L 276.590956 -244.87305 
L 277.797851 -245.217362 
L 279.004745 -246.040943 
L 280.211639 -246.317169 
L 281.418533 -246.825734 
L 282.625428 -247.56761 
L 283.832322 -247.562971 
L 285.039216 -247.82422 
L 286.24611 -248.498342 
L 287.453004 -248.500747 
L 288.659899 -249.094416 
L 289.866793 -249.470801 
L 291.073687 -249.54566 
L 292.280581 -250.345692 
L 293.487475 -250.443679 
L 294.69437 -251.271375 
L 295.901264 -250.96105 
L 297.108158 -251.431683 
L 298.315052 -251.495347 
L 299.521947 -252.287159 
L 300.728841 -252.917862 
L 301.935735 -253.070147 
L 303.142629 -253.086554 
L 304.349523 -253.617364 
L 305.556418 -254.443422 
L 306.763312 -254.468591 
L 307.970206 -255.106767 
L 309.1771 -254.817044 
L 310.383995 -255.749097 
L 311.590889 -255.956991 
L 312.797783 -255.150938 
L 314.004677 -256.506316 
L 315.211571 -256.931651 
L 316.418466 -257.028768 
L 317.62536 -257.495914 
L 318.832254 -258.001877 
L 320.039148 -258.514013 
L 321.246043 -258.696451 
L 322.452937 -258.160269 
L 323.659831 -258.523468 
L 324.866725 -258.696341 
L 326.073619 -259.882491 
L 327.280514 -259.294256 
L 328.487408 -260.612886 
L 329.694302 -259.849165 
L 330.901196 -261.257155 
L 332.108091 -261.132429 
L 333.314985 -261.686877 
L 334.521879 -261.929515 
L 335.728773 -262.036261 
L 336.935667 -262.496234 
L 338.142562 -262.646336 
L 339.349456 -263.14528 
L 340.55635 -263.239554 
L 341.763244 -262.943313 
L 342.970139 -264.074445 
L 344.177033 -264.308621 
L 345.383927 -264.580795 
L 346.590821 -265.210021 
L 347.797715 -265.383108 
L 349.00461 -265.39345 
L 350.211504 -265.65873 
L 351.418398 -265.956701 
L 352.625292 -266.556775 
L 353.832187 -266.637983 
L 355.039081 -266.796629 
L 356.245975 -267.322901 
L 357.452869 -267.131481 
L 358.659763 -267.644428 
L 359.866658 -268.182746 
L 361.073552 -268.391958 
L 362.280446 -268.557758 
L 363.48734 -269.190831 
L 364.694235 -268.754713 
L 365.901129 -269.337538 
L 367.108023 -269.713844 
L 368.314917 -270.10702 
L 369.521811 -269.966202 
L 370.728706 -270.292396 
L 371.9356 -270.84999 
L 373.142494 -271.01912 
L 374.349388 -271.294281 
L 375.556283 -271.621834 
L 376.763177 -271.710036 
L 377.970071 -272.195487 
L 379.176965 -272.063922 
L 380.383859 -272.263958 
L 381.590754 -272.877727 
L 382.797648 -273.13322 
L 384.004542 -273.441747 
L 385.211436 -273.72414 
L 386.418331 -273.788905 
L 387.625225 -274.171512 
L 388.832119 -274.475585 
L 390.039013 -275.718683 
L 391.245907 -274.768313 
L 392.452802 -275.095586 
L 393.659696 -275.537556 
L 394.86659 -275.785996 
L 396.073484 -275.969314 
L 397.280379 -276.48566 
L 398.487273 -275.464001 
L 398.487273 -291.846153 
L 398.487273 -291.846153 
L 397.280379 -291.799845 
L 396.073484 -291.376429 
L 394.86659 -291.88926 
L 393.659696 -292.032 
L 392.452802 -290.541708 
L 391.245907 -290.122905 
L 390.039013 -289.974419 
L 388.832119 -289.67887 
L 387.625225 -290.494557 
L 386.418331 -289.032624 
L 385.211436 -288.795757 
L 384.004542 -288.466054 
L 382.797648 -288.02704 
L 381.590754 -288.021753 
L 380.383859 -287.664971 
L 379.176965 -288.211284 
L 377.970071 -286.94149 
L 376.763177 -287.477752 
L 375.556283 -286.401319 
L 374.349388 -285.997135 
L 373.142494 -285.761238 
L 371.9356 -285.406317 
L 370.728706 -284.988918 
L 369.521811 -284.701964 
L 368.314917 -285.316044 
L 367.108023 -283.745917 
L 365.901129 -283.890137 
L 364.694235 -284.285922 
L 363.48734 -283.138582 
L 362.280446 -282.781099 
L 361.073552 -282.593947 
L 359.866658 -282.248646 
L 358.659763 -282.022539 
L 357.452869 -282.368346 
L 356.245975 -281.289911 
L 355.039081 -281.086714 
L 353.832187 -280.936356 
L 352.625292 -280.269755 
L 351.418398 -280.277505 
L 350.211504 -279.69214 
L 349.00461 -279.212967 
L 347.797715 -279.636926 
L 346.590821 -279.586418 
L 345.383927 -278.212554 
L 344.177033 -277.870035 
L 342.970139 -277.732346 
L 341.763244 -277.214432 
L 340.55635 -276.877058 
L 339.349456 -276.380808 
L 338.142562 -276.272712 
L 336.935667 -275.971259 
L 335.728773 -275.748686 
L 334.521879 -275.181251 
L 333.314985 -274.872718 
L 332.108091 -274.316654 
L 330.901196 -274.572384 
L 329.694302 -274.302164 
L 328.487408 -273.384539 
L 327.280514 -273.19483 
L 326.073619 -272.491779 
L 324.866725 -272.187135 
L 323.659831 -272.103897 
L 322.452937 -272.187606 
L 321.246043 -271.297774 
L 320.039148 -270.830361 
L 318.832254 -270.349533 
L 317.62536 -270.087726 
L 316.418466 -270.230048 
L 315.211571 -269.541062 
L 314.004677 -268.793251 
L 312.797783 -268.448484 
L 311.590889 -268.184204 
L 310.383995 -267.658435 
L 309.1771 -267.167414 
L 307.970206 -266.679551 
L 306.763312 -266.464085 
L 305.556418 -266.219125 
L 304.349523 -265.348895 
L 303.142629 -265.181775 
L 301.935735 -264.818812 
L 300.728841 -264.66623 
L 299.521947 -263.952761 
L 298.315052 -263.417455 
L 297.108158 -263.165762 
L 295.901264 -262.548735 
L 294.69437 -261.754854 
L 293.487475 -262.118957 
L 292.280581 -261.438771 
L 291.073687 -260.982408 
L 289.866793 -260.761232 
L 288.659899 -260.291937 
L 287.453004 -259.216167 
L 286.24611 -259.101427 
L 285.039216 -258.760566 
L 283.832322 -258.831735 
L 282.625428 -258.03532 
L 281.418533 -257.472887 
L 280.211639 -257.168437 
L 279.004745 -256.84234 
L 277.797851 -255.934928 
L 276.590956 -255.618786 
L 275.384062 -255.099853 
L 274.177168 -255.044528 
L 272.970274 -254.686017 
L 271.76338 -253.499605 
L 270.556485 -253.006802 
L 269.349591 -252.73443 
L 268.142697 -252.320921 
L 266.935803 -252.042001 
L 265.728908 -251.290868 
L 264.522014 -250.691576 
L 263.31512 -250.341861 
L 262.108226 -249.918094 
L 260.901332 -249.839973 
L 259.694437 -248.737923 
L 258.487543 -248.662888 
L 257.280649 -248.230198 
L 256.073755 -247.300415 
L 254.86686 -246.983442 
L 253.659966 -246.156988 
L 252.453072 -245.711382 
L 251.246178 -245.014983 
L 250.039284 -244.605296 
L 248.832389 -244.410794 
L 247.625495 -243.842836 
L 246.418601 -242.940085 
L 245.211707 -242.92354 
L 244.004812 -241.777894 
L 242.797918 -241.78824 
L 241.591024 -240.910365 
L 240.38413 -240.040457 
L 239.177236 -239.75078 
L 237.970341 -239.547599 
L 236.763447 -238.877441 
L 235.556553 -238.000534 
L 234.349659 -237.874433 
L 233.142764 -236.648542 
L 231.93587 -236.086969 
L 230.728976 -235.356899 
L 229.522082 -235.249142 
L 228.315188 -234.698651 
L 227.108293 -233.974667 
L 225.901399 -232.986413 
L 224.694505 -232.340817 
L 223.487611 -232.254921 
L 222.280716 -231.567257 
L 221.073822 -230.588922 
L 219.866928 -229.714578 
L 218.660034 -229.246786 
L 217.45314 -228.899742 
L 216.246245 -228.32312 
L 215.039351 -227.425303 
L 213.832457 -226.385966 
L 212.625563 -225.90249 
L 211.418668 -225.486442 
L 210.211774 -224.579844 
L 209.00488 -223.889437 
L 207.797986 -223.158387 
L 206.591092 -222.612931 
L 205.384197 -221.662584 
L 204.177303 -220.643814 
L 202.970409 -220.160418 
L 201.763515 -219.362711 
L 200.55662 -218.495066 
L 199.349726 -217.952927 
L 198.142832 -217.107117 
L 196.935938 -216.318324 
L 195.729044 -215.40314 
L 194.522149 -214.664254 
L 193.315255 -213.910297 
L 192.108361 -213.269535 
L 190.901467 -212.242005 
L 189.694572 -211.259329 
L 188.487678 -210.513968 
L 187.280784 -209.514077 
L 186.07389 -208.829107 
L 184.866996 -207.933809 
L 183.660101 -206.831178 
L 182.453207 -206.931421 
L 181.246313 -206.791456 
L 180.039419 -206.76333 
L 178.832525 -206.596735 
L 177.62563 -206.520645 
L 176.418736 -206.447308 
L 175.211842 -206.370204 
L 174.004948 -206.144741 
L 172.798053 -206.0727 
L 171.591159 -205.671794 
L 170.384265 -205.524659 
L 169.177371 -205.358648 
L 167.970477 -205.02997 
L 166.763582 -205.078281 
L 165.556688 -204.691249 
L 164.349794 -204.616487 
L 163.1429 -204.439589 
L 161.936005 -203.964344 
L 160.729111 -204.078065 
L 159.522217 -203.701021 
L 158.315323 -203.401694 
L 157.108429 -202.875048 
L 155.901534 -202.764194 
L 154.69464 -202.453544 
L 153.487746 -202.079574 
L 152.280852 -201.857314 
L 151.073957 -201.560304 
L 149.867063 -201.148609 
L 148.660169 -200.548431 
L 147.453275 -200.155476 
L 146.246381 -199.637367 
L 145.039486 -199.573619 
L 143.832592 -199.251738 
L 142.625698 -198.612615 
L 141.418804 -197.9295 
L 140.211909 -197.365719 
L 139.005015 -196.933149 
L 137.798121 -196.524139 
L 136.591227 -195.814937 
L 135.384333 -195.674999 
L 134.177438 -195.131077 
L 132.970544 -194.4546 
L 131.76365 -193.788564 
L 130.556756 -192.791152 
L 129.349861 -192.08013 
L 128.142967 -191.17337 
L 126.936073 -190.642547 
L 125.729179 -189.833099 
L 124.522285 -189.006845 
L 123.31539 -188.093368 
L 122.108496 -187.28416 
L 120.901602 -186.323977 
L 119.694708 -185.408642 
L 118.487813 -184.345453 
L 117.280919 -183.261564 
L 116.074025 -182.211 
L 114.867131 -180.975453 
L 113.660237 -180.11995 
L 112.453342 -178.871898 
L 111.246448 -177.570433 
L 110.039554 -176.277226 
L 108.83266 -175.092491 
L 107.625765 -173.682549 
L 106.418871 -172.194167 
L 105.211977 -170.572522 
L 104.005083 -169.10041 
L 102.798189 -167.339243 
L 101.591294 -165.596591 
L 100.3844 -163.950841 
L 99.177506 -162.002264 
L 97.970612 -160.12325 
L 96.763717 -158.137288 
L 95.556823 -155.826078 
L 94.349929 -153.889364 
L 93.143035 -151.346951 
L 91.936141 -149.183453 
L 90.729246 -146.394427 
L 89.522352 -143.953197 
L 88.315458 -141.089304 
L 87.108564 -138.088159 
L 85.901669 -134.97381 
L 84.694775 -131.878621 
L 83.487881 -128.378952 
L 82.280987 -124.757929 
L 81.074093 -120.841294 
L 79.867198 -116.699417 
L 78.660304 -112.250911 
L 77.45341 -107.413225 
L 76.246516 -102.24564 
L 75.039621 -96.548592 
L 73.832727 -90.181542 
z
" style="stroke: #348abd; stroke-opacity: 0.2"/>
    </defs>
    <g clip-path="url(#peab15073bf)">
     <use xlink:href="#m3f5fbf5189" x="0" y="345.6" style="fill: #348abd; fill-opacity: 0.2; stroke: #348abd; stroke-opacity: 0.2"/>
    </g>
   </g>
   <g id="PolyCollection_3">
    <defs>
     <path id="m2ff3d7aafa" d="M 73.832727 -80.475325 
L 73.832727 -70.832429 
L 75.039621 -70.832429 
L 76.246516 -70.826488 
L 77.45341 -74.774466 
L 78.660304 -74.774466 
L 79.867198 -74.774466 
L 81.074093 -76.382093 
L 82.280987 -76.478973 
L 83.487881 -76.384456 
L 84.694775 -77.362643 
L 85.901669 -77.27212 
L 87.108564 -77.362643 
L 88.315458 -77.974743 
L 89.522352 -77.863452 
L 90.729246 -77.863452 
L 91.936141 -78.4026 
L 93.143035 -78.283888 
L 94.349929 -78.286783 
L 95.556823 -78.505105 
L 96.763717 -78.716624 
L 97.970612 -78.729816 
L 99.177506 -79.000322 
L 100.3844 -78.997766 
L 101.591294 -78.795845 
L 102.798189 -79.14303 
L 104.005083 -79.14303 
L 105.211977 -79.140594 
L 106.418871 -79.509118 
L 107.625765 -79.40262 
L 108.83266 -79.40262 
L 110.039554 -79.633455 
L 111.246448 -79.734695 
L 112.453342 -79.633455 
L 113.660237 -79.762318 
L 114.867131 -79.871605 
L 116.074025 -79.874408 
L 117.280919 -80.108704 
L 118.487813 -80.108704 
L 119.694708 -80.221725 
L 120.901602 -80.302531 
L 122.108496 -80.422355 
L 123.31539 -80.302531 
L 124.522285 -80.649982 
L 125.729179 -80.521651 
L 126.936073 -80.521651 
L 128.142967 -80.754084 
L 129.349861 -80.834038 
L 130.556756 -80.885876 
L 131.76365 -81.032311 
L 132.970544 -80.97001 
L 134.177438 -81.033909 
L 135.384333 -81.2927 
L 136.591227 -81.173022 
L 137.798121 -81.173022 
L 139.005015 -81.384288 
L 140.211909 -81.384288 
L 141.418804 -81.425303 
L 142.625698 -81.658788 
L 143.832592 -81.553088 
L 145.039486 -81.624975 
L 146.246381 -81.717362 
L 147.453275 -81.776735 
L 148.660169 -81.717362 
L 149.867063 -81.890422 
L 151.073957 -81.890422 
L 152.280852 -81.890422 
L 153.487746 -82.052832 
L 154.69464 -82.049294 
L 155.901534 -82.123028 
L 157.108429 -82.240003 
L 158.315323 -82.145 
L 159.522217 -82.193676 
L 160.729111 -82.350495 
L 161.936005 -82.328396 
L 163.1429 -82.350495 
L 164.349794 -82.474033 
L 165.556688 -82.499632 
L 166.763582 -82.474033 
L 167.970477 -82.63426 
L 169.177371 -82.599435 
L 170.384265 -82.599122 
L 171.591159 -82.705667 
L 172.798053 -82.705667 
L 174.004948 -82.697413 
L 175.211842 -82.794327 
L 176.418736 -82.794327 
L 177.62563 -82.782612 
L 178.832525 -82.874201 
L 180.039419 -82.874201 
L 181.246313 -82.876277 
L 182.453207 -82.96499 
L 183.660101 -82.964984 
L 184.866996 -82.964724 
L 186.07389 -83.014246 
L 187.280784 -83.014246 
L 188.487678 -83.014246 
L 189.694572 -83.081606 
L 190.901467 -83.095364 
L 192.108361 -83.067495 
L 193.315255 -83.164409 
L 194.522149 -83.164409 
L 195.729044 -83.275167 
L 196.935938 -83.259458 
L 198.142832 -83.259458 
L 199.349726 -83.223782 
L 200.55662 -83.278362 
L 201.763515 -83.278362 
L 202.970409 -83.278362 
L 204.177303 -83.355793 
L 205.384197 -83.322825 
L 206.591092 -83.418421 
L 207.797986 -83.371016 
L 209.00488 -83.371016 
L 210.211774 -83.46287 
L 211.418668 -83.424984 
L 212.625563 -83.484037 
L 213.832457 -83.484037 
L 215.039351 -83.435101 
L 216.246245 -83.437045 
L 217.45314 -83.520499 
L 218.660034 -83.461539 
L 219.866928 -83.532627 
L 221.073822 -83.532627 
L 222.280716 -83.479111 
L 223.487611 -83.547537 
L 224.694505 -83.479111 
L 225.901399 -83.568304 
L 227.108293 -83.556629 
L 228.315188 -83.56857 
L 229.522082 -83.593065 
L 230.728976 -83.536088 
L 231.93587 -83.536088 
L 233.142764 -83.552063 
L 234.349659 -83.552063 
L 235.556553 -83.601851 
L 236.763447 -83.568304 
L 237.970341 -83.608507 
L 239.177236 -83.607502 
L 240.38413 -83.701427 
L 241.591024 -83.571499 
L 242.797918 -83.571499 
L 244.004812 -83.657623 
L 245.211707 -83.631404 
L 246.418601 -83.536088 
L 247.625495 -83.590668 
L 248.832389 -83.590668 
L 250.039284 -83.590668 
L 251.246178 -83.608507 
L 252.453072 -83.651373 
L 253.659966 -83.608507 
L 254.86686 -83.612501 
L 256.073755 -83.651439 
L 257.280649 -83.652437 
L 258.487543 -83.656298 
L 259.694437 -83.622751 
L 260.901332 -83.655459 
L 262.108226 -83.631138 
L 263.31512 -83.631138 
L 264.522014 -83.631138 
L 265.728908 -83.638859 
L 266.935803 -83.638859 
L 268.142697 -83.638859 
L 269.349591 -83.640989 
L 270.556485 -83.640989 
L 271.76338 -83.674995 
L 272.970274 -83.674536 
L 274.177168 -83.633268 
L 275.384062 -83.633268 
L 276.590956 -83.668945 
L 277.797851 -83.628475 
L 279.004745 -83.628475 
L 280.211639 -83.630872 
L 281.418533 -83.630872 
L 282.625428 -83.630872 
L 283.832322 -83.716337 
L 285.039216 -83.621553 
L 286.24611 -83.621553 
L 287.453004 -83.62102 
L 288.659899 -83.658401 
L 289.866793 -83.62102 
L 291.073687 -83.674756 
L 292.280581 -83.631404 
L 293.487475 -83.675867 
L 294.69437 -83.620754 
L 295.901264 -83.620754 
L 297.108158 -83.620754 
L 298.315052 -83.659859 
L 299.521947 -83.617027 
L 300.728841 -83.617027 
L 301.935735 -83.658435 
L 303.142629 -83.611702 
L 304.349523 -83.611702 
L 305.556418 -83.560849 
L 306.763312 -83.611436 
L 307.970206 -83.642586 
L 309.1771 -83.667347 
L 310.383995 -83.613566 
L 311.590889 -83.613566 
L 312.797783 -83.619689 
L 314.004677 -83.671634 
L 315.211571 -83.619689 
L 316.418466 -83.679062 
L 317.62536 -83.622618 
L 318.832254 -83.566174 
L 320.039148 -83.612767 
L 321.246043 -83.554725 
L 322.452937 -83.612767 
L 323.659831 -83.597325 
L 324.866725 -83.597325 
L 326.073619 -83.658295 
L 327.280514 -83.57709 
L 328.487408 -83.57709 
L 329.694302 -83.57709 
L 330.901196 -83.565109 
L 332.108091 -83.565109 
L 333.314985 -83.579127 
L 334.521879 -83.556589 
L 335.728773 -83.581616 
L 336.935667 -83.556589 
L 338.142562 -83.546738 
L 339.349456 -83.590868 
L 340.55635 -83.592 
L 341.763244 -83.537685 
L 342.970139 -83.537685 
L 344.177033 -83.537685 
L 345.383927 -83.575226 
L 346.590821 -83.575226 
L 347.797715 -83.575226 
L 349.00461 -83.521977 
L 350.211504 -83.521977 
L 351.418398 -83.521977 
L 352.625292 -83.514522 
L 353.832187 -83.514522 
L 355.039081 -83.550998 
L 356.245975 -83.528387 
L 357.452869 -83.498015 
L 358.659763 -83.498015 
L 359.866658 -83.495885 
L 361.073552 -83.554645 
L 362.280446 -83.495885 
L 363.48734 -83.474585 
L 364.694235 -83.504178 
L 365.901129 -83.474585 
L 367.108023 -83.489761 
L 368.314917 -83.489761 
L 369.521811 -83.489189 
L 370.728706 -83.457279 
L 371.9356 -83.441038 
L 373.142494 -83.441038 
L 374.349388 -83.430122 
L 375.556283 -83.430122 
L 376.763177 -83.430122 
L 377.970071 -83.414147 
L 379.176965 -83.431021 
L 380.383859 -83.414147 
L 381.590754 -83.398705 
L 382.797648 -83.398705 
L 384.004542 -83.411219 
L 385.211436 -83.367554 
L 386.418331 -83.380334 
L 387.625225 -83.485588 
L 388.832119 -83.365158 
L 390.039013 -83.365012 
L 391.245907 -83.359301 
L 392.452802 -83.344391 
L 393.659696 -83.341196 
L 394.86659 -83.344391 
L 396.073484 -83.313506 
L 397.280379 -83.313506 
L 398.487273 -83.313506 
L 398.487273 -84.796769 
L 398.487273 -84.796769 
L 397.280379 -84.808477 
L 396.073484 -84.719684 
L 394.86659 -84.824718 
L 393.659696 -84.824718 
L 392.452802 -84.824718 
L 391.245907 -84.835901 
L 390.039013 -84.835901 
L 388.832119 -84.835901 
L 387.625225 -84.859597 
L 386.418331 -84.850251 
L 385.211436 -84.859597 
L 384.004542 -84.885955 
L 382.797648 -84.885955 
L 381.590754 -84.847036 
L 380.383859 -84.862831 
L 379.176965 -84.840201 
L 377.970071 -84.892079 
L 376.763177 -84.913645 
L 375.556283 -84.913645 
L 374.349388 -84.877968 
L 373.142494 -84.891812 
L 371.9356 -84.927223 
L 370.728706 -84.927223 
L 369.521811 -84.861993 
L 368.314917 -84.863364 
L 367.108023 -84.943464 
L 365.901129 -84.965562 
L 364.694235 -84.966122 
L 363.48734 -84.965562 
L 362.280446 -84.988992 
L 361.073552 -84.915242 
L 359.866658 -84.961835 
L 358.659763 -85.009227 
L 357.452869 -85.009227 
L 356.245975 -85.009227 
L 355.039081 -85.013154 
L 353.832187 -85.012422 
L 352.625292 -85.012422 
L 351.418398 -84.978609 
L 350.211504 -85.019344 
L 349.00461 -84.978609 
L 347.797715 -84.997066 
L 346.590821 -85.03665 
L 345.383927 -84.997066 
L 344.177033 -85.04517 
L 342.970139 -85.0135 
L 341.763244 -85.04517 
L 340.55635 -85.04091 
L 339.349456 -85.011357 
L 338.142562 -85.04091 
L 336.935667 -85.053157 
L 335.728773 -85.053157 
L 334.521879 -85.07712 
L 333.314985 -85.060879 
L 332.108091 -85.060879 
L 330.901196 -85.080847 
L 329.694302 -85.035585 
L 328.487408 -85.036071 
L 327.280514 -85.058482 
L 326.073619 -85.058749 
L 324.866725 -85.06434 
L 323.659831 -85.045769 
L 322.452937 -84.977277 
L 321.246043 -85.080894 
L 320.039148 -85.182287 
L 318.832254 -85.094426 
L 317.62536 -85.094472 
L 316.418466 -85.094426 
L 315.211571 -85.096822 
L 314.004677 -85.109242 
L 312.797783 -85.109242 
L 311.590889 -85.10188 
L 310.383995 -85.088568 
L 309.1771 -85.10188 
L 307.970206 -85.093227 
L 306.763312 -85.111199 
L 305.556418 -85.111199 
L 304.349523 -85.124511 
L 303.142629 -85.032923 
L 301.935735 -85.124991 
L 300.728841 -85.146769 
L 299.521947 -85.146343 
L 298.315052 -85.170039 
L 297.108158 -85.162318 
L 295.901264 -85.162318 
L 294.69437 -85.182586 
L 293.487475 -85.185748 
L 292.280581 -85.185748 
L 291.073687 -85.185748 
L 289.866793 -85.203586 
L 288.659899 -85.203586 
L 287.453004 -85.223289 
L 286.24611 -85.239796 
L 285.039216 -85.229945 
L 283.832322 -85.215667 
L 282.625428 -85.225152 
L 281.418533 -85.225152 
L 280.211639 -85.225152 
L 279.004745 -85.221159 
L 277.797851 -85.18841 
L 276.590956 -85.221159 
L 275.384062 -85.234737 
L 274.177168 -85.234737 
L 272.970274 -85.234737 
L 271.76338 -85.210509 
L 270.556485 -85.244854 
L 269.349591 -85.244854 
L 268.142697 -85.258639 
L 266.935803 -85.176163 
L 265.728908 -85.176163 
L 264.522014 -85.240861 
L 263.31512 -85.200884 
L 262.108226 -85.259764 
L 260.901332 -85.200125 
L 259.694437 -85.200125 
L 258.487543 -85.272631 
L 257.280649 -85.237932 
L 256.073755 -85.198215 
L 254.86686 -85.237932 
L 253.659966 -85.349223 
L 252.453072 -85.243636 
L 251.246178 -85.242725 
L 250.039284 -85.163916 
L 248.832389 -85.239796 
L 247.625495 -85.20344 
L 246.418601 -85.315942 
L 245.211707 -85.255504 
L 244.004812 -85.161253 
L 242.797918 -85.234471 
L 241.591024 -85.234471 
L 240.38413 -85.234471 
L 239.177236 -85.232607 
L 237.970341 -85.232607 
L 236.763447 -85.232607 
L 235.556553 -85.205983 
L 234.349659 -85.205983 
L 233.142764 -85.206455 
L 231.93587 -85.193203 
L 230.728976 -85.193203 
L 229.522082 -85.193203 
L 228.315188 -85.174566 
L 227.108293 -85.174566 
L 225.901399 -85.174732 
L 224.694505 -85.100815 
L 223.487611 -85.166046 
L 222.280716 -85.166046 
L 221.073822 -85.258167 
L 219.866928 -85.18626 
L 218.660034 -85.098013 
L 217.45314 -85.165513 
L 216.246245 -85.099577 
L 215.039351 -85.165513 
L 213.832457 -85.164848 
L 212.625563 -85.07663 
L 211.418668 -85.232341 
L 210.211774 -85.129836 
L 209.00488 -85.129836 
L 207.797986 -85.05793 
L 206.591092 -85.097887 
L 205.384197 -85.097887 
L 204.177303 -85.097887 
L 202.970409 -85.064606 
L 201.763515 -85.064939 
L 200.55662 -84.99854 
L 199.349726 -84.962035 
L 198.142832 -84.960238 
L 196.935938 -84.960238 
L 195.729044 -84.937873 
L 194.522149 -85.005233 
L 193.315255 -85.005233 
L 192.108361 -84.951185 
L 190.901467 -84.971952 
L 189.694572 -84.971952 
L 188.487678 -84.868383 
L 187.280784 -84.927489 
L 186.07389 -84.927489 
L 184.866996 -84.951984 
L 183.660101 -84.898469 
L 182.453207 -84.875305 
L 181.246313 -84.86998 
L 180.039419 -84.86998 
L 178.832525 -84.842464 
L 177.62563 -84.827381 
L 176.418736 -84.827381 
L 175.211842 -84.777593 
L 174.004948 -84.788775 
L 172.798053 -84.788775 
L 171.591159 -84.788775 
L 170.384265 -84.715078 
L 169.177371 -84.714226 
L 167.970477 -84.748306 
L 166.763582 -84.691862 
L 165.556688 -84.691862 
L 164.349794 -84.691862 
L 163.1429 -84.607195 
L 161.936005 -84.607801 
L 160.729111 -84.631424 
L 159.522217 -84.55368 
L 158.315323 -84.568057 
L 157.108429 -84.568057 
L 155.901534 -84.502827 
L 154.69464 -84.502827 
L 153.487746 -84.505283 
L 152.280852 -84.408043 
L 151.073957 -84.408043 
L 149.867063 -84.408043 
L 148.660169 -84.28384 
L 147.453275 -84.357457 
L 146.246381 -84.320182 
L 145.039486 -84.231789 
L 143.832592 -84.231789 
L 142.625698 -84.12755 
L 141.418804 -84.087497 
L 140.211909 -84.078963 
L 139.005015 -84.160701 
L 137.798121 -84.062323 
L 136.591227 -83.957955 
L 135.384333 -83.959289 
L 134.177438 -83.950899 
L 132.970544 -83.825231 
L 131.76365 -83.950899 
L 130.556756 -83.856382 
L 129.349861 -83.856382 
L 128.142967 -83.856382 
L 126.936073 -83.767189 
L 125.729179 -83.767189 
L 124.522285 -83.767189 
L 123.31539 -83.654035 
L 122.108496 -83.654035 
L 120.901602 -83.654035 
L 119.694708 -83.398802 
L 118.487813 -83.580551 
L 117.280919 -83.397374 
L 116.074025 -83.48417 
L 114.867131 -83.388009 
L 113.660237 -83.388009 
L 112.453342 -83.37847 
L 111.246448 -83.299928 
L 110.039554 -83.332676 
L 108.83266 -83.275966 
L 107.625765 -83.289278 
L 106.418871 -83.289278 
L 105.211977 -83.183312 
L 104.005083 -83.183312 
L 102.798189 -83.183565 
L 101.591294 -83.119147 
L 100.3844 -83.121809 
L 99.177506 -83.121809 
L 97.970612 -83.065898 
L 96.763717 -83.065898 
L 95.556823 -83.065898 
L 94.349929 -83.029422 
L 93.143035 -83.029422 
L 91.936141 -82.692221 
L 90.729246 -82.761978 
L 89.522352 -83.00333 
L 88.315458 -83.004528 
L 87.108564 -82.985758 
L 85.901669 -82.985758 
L 84.694775 -82.985758 
L 83.487881 -82.887247 
L 82.280987 -82.887247 
L 81.074093 -82.887247 
L 79.867198 -82.461519 
L 78.660304 -82.461519 
L 77.45341 -82.449538 
L 76.246516 -80.25261 
L 75.039621 -80.475325 
L 73.832727 -80.475325 
z
" style="stroke: #988ed5; stroke-opacity: 0.2"/>
    </defs>
    <g clip-path="url(#peab15073bf)">
     <use xlink:href="#m2ff3d7aafa" x="0" y="345.6" style="fill: #988ed5; fill-opacity: 0.2; stroke: #988ed5; stroke-opacity: 0.2"/>
    </g>
   </g>
   <g id="line2d_27">
    <path d="M 73.832727 261.297546 
L 75.039621 264.670782 
L 76.246516 267.111422 
L 77.45341 268.992904 
L 78.660304 270.490697 
L 81.074093 272.791415 
L 82.280987 273.682913 
L 84.694775 275.152749 
L 87.108564 276.264698 
L 89.522352 277.226775 
L 95.556823 278.954901 
L 100.3844 279.933739 
L 111.246448 281.499186 
L 131.76365 283.354753 
L 137.798121 283.715149 
L 142.625698 284.04663 
L 152.280852 284.549012 
L 157.108429 284.818904 
L 183.660101 285.970753 
L 193.315255 286.637738 
L 202.970409 287.226724 
L 231.93587 288.826656 
L 241.591024 289.27855 
L 246.418601 289.546571 
L 252.453072 289.793801 
L 254.86686 289.912575 
L 274.177168 290.76085 
L 276.590956 290.870595 
L 288.659899 291.368691 
L 289.866793 291.47681 
L 292.280581 291.513246 
L 293.487475 291.623364 
L 295.901264 291.660152 
L 297.108158 291.769603 
L 299.521947 291.805406 
L 300.728841 291.917929 
L 303.142629 291.951199 
L 304.349523 292.059142 
L 306.763312 292.090686 
L 307.970206 292.20343 
L 310.383995 292.229717 
L 311.590889 292.345599 
L 314.004677 292.368022 
L 315.211571 292.485913 
L 317.62536 292.505227 
L 318.832254 292.618556 
L 321.246043 292.641189 
L 322.452937 292.756184 
L 324.866725 292.771958 
L 326.073619 292.892999 
L 328.487408 292.909696 
L 329.694302 293.022085 
L 332.108091 293.037419 
L 333.314985 293.158592 
L 335.728773 293.167463 
L 336.935667 293.288498 
L 339.349456 293.294747 
L 340.55635 293.415792 
L 342.970139 293.423813 
L 344.177033 293.545757 
L 346.590821 293.549503 
L 347.797715 293.676567 
L 350.211504 293.672966 
L 351.418398 293.796724 
L 353.832187 293.79586 
L 355.039081 293.923293 
L 357.452869 293.919401 
L 358.659763 294.04593 
L 361.073552 294.041297 
L 362.280446 294.167375 
L 364.694235 294.159292 
L 365.901129 294.289351 
L 368.314917 294.280466 
L 369.521811 294.410084 
L 371.9356 294.397196 
L 373.142494 294.527832 
L 375.556283 294.515512 
L 376.763177 294.643937 
L 379.176965 294.62827 
L 380.383859 294.761264 
L 382.797648 294.742448 
L 384.004542 294.876025 
L 386.418331 294.857058 
L 387.625225 294.990214 
L 390.039013 294.968815 
L 391.245907 295.101219 
L 392.452802 295.035563 
L 398.487273 295.327283 
L 398.487273 295.327283 
" clip-path="url(#peab15073bf)" style="fill: none; stroke: #e24a33; stroke-width: 2; stroke-linecap: round"/>
   </g>
   <g id="line2d_28">
    <path d="M 73.832727 256.187155 
L 75.039621 249.871284 
L 77.45341 239.010403 
L 79.867198 229.780638 
L 82.280987 221.753767 
L 84.694775 214.744586 
L 87.108564 208.494308 
L 89.522352 202.807628 
L 93.143035 195.453325 
L 95.556823 191.036781 
L 97.970612 187.021916 
L 100.3844 183.253221 
L 104.005083 178.33312 
L 106.418871 175.289048 
L 110.039554 171.221946 
L 113.660237 167.552605 
L 120.901602 161.388717 
L 124.522285 158.802501 
L 129.349861 155.759487 
L 135.384333 152.519859 
L 139.005015 150.957226 
L 141.418804 149.926706 
L 143.832592 148.927311 
L 145.039486 148.595559 
L 146.246381 148.074756 
L 148.660169 147.322786 
L 149.867063 146.862488 
L 151.073957 146.608728 
L 152.280852 146.181424 
L 154.69464 145.513297 
L 160.729111 144.033198 
L 161.936005 143.876091 
L 163.1429 143.537052 
L 165.556688 143.205043 
L 166.763582 142.849281 
L 171.591159 142.123057 
L 174.004948 141.770161 
L 181.246313 140.995702 
L 183.660101 140.900259 
L 186.07389 139.080569 
L 188.487678 137.539396 
L 189.694572 136.8025 
L 192.108361 135.12529 
L 194.522149 133.552685 
L 195.729044 132.92529 
L 199.349726 130.608434 
L 204.177303 127.900045 
L 205.384197 127.004393 
L 209.00488 125.055553 
L 212.625563 123.002195 
L 213.832457 122.478825 
L 218.660034 119.765352 
L 219.866928 119.259789 
L 222.280716 118.006836 
L 223.487611 117.417594 
L 224.694505 116.957719 
L 227.108293 115.723343 
L 234.349659 112.189554 
L 235.556553 111.817435 
L 241.591024 108.960907 
L 244.004812 108.00113 
L 250.039284 105.437889 
L 263.31512 100.026226 
L 264.522014 99.749331 
L 265.728908 99.190605 
L 266.935803 98.797981 
L 268.142697 98.253615 
L 269.349591 97.968057 
L 270.556485 97.428337 
L 271.76338 97.055805 
L 272.970274 96.422447 
L 275.384062 95.69487 
L 276.590956 95.216327 
L 277.797851 94.872571 
L 279.004745 94.328524 
L 280.211639 94.007149 
L 282.625428 92.917428 
L 285.039216 92.307607 
L 291.073687 90.199953 
L 292.280581 89.948342 
L 293.487475 89.454981 
L 298.315052 87.885571 
L 303.142629 86.238104 
L 304.349523 85.996876 
L 306.763312 85.133662 
L 310.383995 84.068555 
L 312.797783 83.220778 
L 314.004677 82.951957 
L 315.211571 82.454701 
L 316.418466 82.27901 
L 317.62536 81.858383 
L 318.832254 81.666248 
L 320.039148 81.127118 
L 321.246043 80.753824 
L 322.452937 80.529628 
L 323.659831 80.109299 
L 324.866725 79.847061 
L 326.073619 79.412865 
L 327.280514 79.164061 
L 328.487408 78.601287 
L 329.694302 78.605007 
L 330.901196 77.966624 
L 332.108091 77.745662 
L 335.728773 76.714086 
L 340.55635 75.568135 
L 342.970139 74.756619 
L 345.383927 74.241594 
L 347.797715 73.372316 
L 349.00461 73.398274 
L 350.211504 72.924565 
L 351.418398 72.719092 
L 352.625292 72.243065 
L 353.832187 72.07434 
L 356.245975 71.296626 
L 358.659763 70.766516 
L 359.866658 70.383724 
L 362.280446 69.930572 
L 363.48734 69.508253 
L 364.694235 69.327151 
L 368.314917 68.33469 
L 374.349388 66.952864 
L 375.556283 66.531804 
L 376.763177 66.394245 
L 381.590754 65.15026 
L 382.797648 65.017521 
L 386.418331 64.085916 
L 392.452802 62.694082 
L 393.659696 62.356952 
L 394.86659 62.230416 
L 397.280379 61.492426 
L 398.487273 61.350663 
L 398.487273 61.350663 
" clip-path="url(#peab15073bf)" style="fill: none; stroke: #348abd; stroke-width: 2; stroke-linecap: round"/>
   </g>
   <g id="line2d_29">
    <path d="M 73.832727 269.946123 
L 76.246516 269.946123 
L 77.45341 266.982007 
L 79.867198 266.982007 
L 81.074093 265.964149 
L 83.487881 265.964149 
L 84.694775 265.471061 
L 87.108564 265.471061 
L 88.315458 265.166609 
L 90.729246 265.166609 
L 91.936141 264.941898 
L 94.349929 264.941898 
L 95.556823 264.758321 
L 97.970612 264.758321 
L 99.177506 264.591385 
L 101.591294 264.591385 
L 102.798189 264.436829 
L 105.211977 264.436829 
L 106.418871 264.254051 
L 108.83266 264.254051 
L 110.039554 264.094037 
L 112.453342 264.094037 
L 113.660237 263.920711 
L 116.074025 263.920711 
L 117.280919 263.755372 
L 119.694708 263.755372 
L 120.901602 263.621717 
L 123.31539 263.621717 
L 124.522285 263.45558 
L 126.936073 263.45558 
L 128.142967 263.294767 
L 130.556756 263.294767 
L 131.76365 263.139546 
L 134.177438 263.139546 
L 135.384333 262.982327 
L 137.798121 262.982327 
L 139.005015 262.827505 
L 141.418804 262.827505 
L 142.625698 262.707562 
L 145.039486 262.707562 
L 146.246381 262.581228 
L 148.660169 262.581228 
L 149.867063 262.450767 
L 152.280852 262.450767 
L 153.487746 262.320972 
L 159.522217 262.219133 
L 161.936005 262.12009 
L 166.763582 262.017053 
L 169.177371 261.932386 
L 174.004948 261.852779 
L 176.418736 261.789146 
L 181.246313 261.72791 
L 183.660101 261.668271 
L 192.108361 261.573221 
L 194.522149 261.515179 
L 202.970409 261.428516 
L 207.797986 261.349574 
L 228.315188 261.259583 
L 236.763447 261.199545 
L 344.177033 261.308572 
L 398.487273 261.539008 
L 398.487273 261.539008 
" clip-path="url(#peab15073bf)" style="fill: none; stroke: #988ed5; stroke-width: 2; stroke-linecap: round"/>
   </g>
   <g id="patch_3">
    <path d="M 57.6 307.584 
L 57.6 41.472 
" style="fill: none; stroke: #ffffff; stroke-linejoin: miter; stroke-linecap: square"/>
   </g>
   <g id="patch_4">
    <path d="M 414.72 307.584 
L 414.72 41.472 
" style="fill: none; stroke: #ffffff; stroke-linejoin: miter; stroke-linecap: square"/>
   </g>
   <g id="patch_5">
    <path d="M 57.6 307.584 
L 414.72 307.584 
" style="fill: none; stroke: #ffffff; stroke-linejoin: miter; stroke-linecap: square"/>
   </g>
   <g id="patch_6">
    <path d="M 57.6 41.472 
L 414.72 41.472 
" style="fill: none; stroke: #ffffff; stroke-linejoin: miter; stroke-linecap: square"/>
   </g>
   <g id="legend_1">
    <g id="patch_7">
     <path d="M 65.3 98.709812 
L 180.160625 98.709812 
Q 182.360625 98.709812 182.360625 96.509812 
L 182.360625 49.172 
Q 182.360625 46.972 180.160625 46.972 
L 65.3 46.972 
Q 63.1 46.972 63.1 49.172 
L 63.1 96.509812 
Q 63.1 98.709812 65.3 98.709812 
z
" style="fill: #eaeaf2; opacity: 0.8; stroke: #cccccc; stroke-linejoin: miter"/>
    </g>
    <g id="line2d_30">
     <path d="M 67.5 55.880281 
L 78.5 55.880281 
L 89.5 55.880281 
" style="fill: none; stroke: #e24a33; stroke-width: 2; stroke-linecap: round"/>
    </g>
    <g id="text_16">
     <!-- Discriminators -->
     <g style="fill: #262626" transform="translate(98.3 59.730281) scale(0.11 -0.11)">
      <defs>
       <path id="DejaVuSans-44" d="M 1259 4147 
L 1259 519 
L 2022 519 
Q 2988 519 3436 956 
Q 3884 1394 3884 2338 
Q 3884 3275 3436 3711 
Q 2988 4147 2022 4147 
L 1259 4147 
z
M 628 4666 
L 1925 4666 
Q 3281 4666 3915 4102 
Q 4550 3538 4550 2338 
Q 4550 1131 3912 565 
Q 3275 0 1925 0 
L 628 0 
L 628 4666 
z
" transform="scale(0.015625)"/>
       <path id="DejaVuSans-69" d="M 603 3500 
L 1178 3500 
L 1178 0 
L 603 0 
L 603 3500 
z
M 603 4863 
L 1178 4863 
L 1178 4134 
L 603 4134 
L 603 4863 
z
" transform="scale(0.015625)"/>
       <path id="DejaVuSans-72" d="M 2631 2963 
Q 2534 3019 2420 3045 
Q 2306 3072 2169 3072 
Q 1681 3072 1420 2755 
Q 1159 2438 1159 1844 
L 1159 0 
L 581 0 
L 581 3500 
L 1159 3500 
L 1159 2956 
Q 1341 3275 1631 3429 
Q 1922 3584 2338 3584 
Q 2397 3584 2469 3576 
Q 2541 3569 2628 3553 
L 2631 2963 
z
" transform="scale(0.015625)"/>
       <path id="DejaVuSans-6d" d="M 3328 2828 
Q 3544 3216 3844 3400 
Q 4144 3584 4550 3584 
Q 5097 3584 5394 3201 
Q 5691 2819 5691 2113 
L 5691 0 
L 5113 0 
L 5113 2094 
Q 5113 2597 4934 2840 
Q 4756 3084 4391 3084 
Q 3944 3084 3684 2787 
Q 3425 2491 3425 1978 
L 3425 0 
L 2847 0 
L 2847 2094 
Q 2847 2600 2669 2842 
Q 2491 3084 2119 3084 
Q 1678 3084 1418 2786 
Q 1159 2488 1159 1978 
L 1159 0 
L 581 0 
L 581 3500 
L 1159 3500 
L 1159 2956 
Q 1356 3278 1631 3431 
Q 1906 3584 2284 3584 
Q 2666 3584 2933 3390 
Q 3200 3197 3328 2828 
z
" transform="scale(0.015625)"/>
       <path id="DejaVuSans-6e" d="M 3513 2113 
L 3513 0 
L 2938 0 
L 2938 2094 
Q 2938 2591 2744 2837 
Q 2550 3084 2163 3084 
Q 1697 3084 1428 2787 
Q 1159 2491 1159 1978 
L 1159 0 
L 581 0 
L 581 3500 
L 1159 3500 
L 1159 2956 
Q 1366 3272 1645 3428 
Q 1925 3584 2291 3584 
Q 2894 3584 3203 3211 
Q 3513 2838 3513 2113 
z
" transform="scale(0.015625)"/>
       <path id="DejaVuSans-74" d="M 1172 4494 
L 1172 3500 
L 2356 3500 
L 2356 3053 
L 1172 3053 
L 1172 1153 
Q 1172 725 1289 603 
Q 1406 481 1766 481 
L 2356 481 
L 2356 0 
L 1766 0 
Q 1100 0 847 248 
Q 594 497 594 1153 
L 594 3053 
L 172 3053 
L 172 3500 
L 594 3500 
L 594 4494 
L 1172 4494 
z
" transform="scale(0.015625)"/>
      </defs>
      <use xlink:href="#DejaVuSans-44"/>
      <use xlink:href="#DejaVuSans-69" x="77.001953"/>
      <use xlink:href="#DejaVuSans-73" x="104.785156"/>
      <use xlink:href="#DejaVuSans-63" x="156.884766"/>
      <use xlink:href="#DejaVuSans-72" x="211.865234"/>
      <use xlink:href="#DejaVuSans-69" x="252.978516"/>
      <use xlink:href="#DejaVuSans-6d" x="280.761719"/>
      <use xlink:href="#DejaVuSans-69" x="378.173828"/>
      <use xlink:href="#DejaVuSans-6e" x="405.957031"/>
      <use xlink:href="#DejaVuSans-61" x="469.335938"/>
      <use xlink:href="#DejaVuSans-74" x="530.615234"/>
      <use xlink:href="#DejaVuSans-6f" x="569.824219"/>
      <use xlink:href="#DejaVuSans-72" x="631.005859"/>
      <use xlink:href="#DejaVuSans-73" x="672.119141"/>
     </g>
    </g>
    <g id="line2d_31">
     <path d="M 67.5 72.026219 
L 78.5 72.026219 
L 89.5 72.026219 
" style="fill: none; stroke: #348abd; stroke-width: 2; stroke-linecap: round"/>
    </g>
    <g id="text_17">
     <!-- Generator -->
     <g style="fill: #262626" transform="translate(98.3 75.876219) scale(0.11 -0.11)">
      <defs>
       <path id="DejaVuSans-47" d="M 3809 666 
L 3809 1919 
L 2778 1919 
L 2778 2438 
L 4434 2438 
L 4434 434 
Q 4069 175 3628 42 
Q 3188 -91 2688 -91 
Q 1594 -91 976 548 
Q 359 1188 359 2328 
Q 359 3472 976 4111 
Q 1594 4750 2688 4750 
Q 3144 4750 3555 4637 
Q 3966 4525 4313 4306 
L 4313 3634 
Q 3963 3931 3569 4081 
Q 3175 4231 2741 4231 
Q 1884 4231 1454 3753 
Q 1025 3275 1025 2328 
Q 1025 1384 1454 906 
Q 1884 428 2741 428 
Q 3075 428 3337 486 
Q 3600 544 3809 666 
z
" transform="scale(0.015625)"/>
      </defs>
      <use xlink:href="#DejaVuSans-47"/>
      <use xlink:href="#DejaVuSans-65" x="77.490234"/>
      <use xlink:href="#DejaVuSans-6e" x="139.013672"/>
      <use xlink:href="#DejaVuSans-65" x="202.392578"/>
      <use xlink:href="#DejaVuSans-72" x="263.916016"/>
      <use xlink:href="#DejaVuSans-61" x="305.029297"/>
      <use xlink:href="#DejaVuSans-74" x="366.308594"/>
      <use xlink:href="#DejaVuSans-6f" x="405.517578"/>
      <use xlink:href="#DejaVuSans-72" x="466.699219"/>
     </g>
    </g>
    <g id="line2d_32">
     <path d="M 67.5 88.172156 
L 78.5 88.172156 
L 89.5 88.172156 
" style="fill: none; stroke: #988ed5; stroke-width: 2; stroke-linecap: round"/>
    </g>
    <g id="text_18">
     <!-- ROC AUC -->
     <g style="fill: #262626" transform="translate(98.3 92.022156) scale(0.11 -0.11)">
      <defs>
       <path id="DejaVuSans-52" d="M 2841 2188 
Q 3044 2119 3236 1894 
Q 3428 1669 3622 1275 
L 4263 0 
L 3584 0 
L 2988 1197 
Q 2756 1666 2539 1819 
Q 2322 1972 1947 1972 
L 1259 1972 
L 1259 0 
L 628 0 
L 628 4666 
L 2053 4666 
Q 2853 4666 3247 4331 
Q 3641 3997 3641 3322 
Q 3641 2881 3436 2590 
Q 3231 2300 2841 2188 
z
M 1259 4147 
L 1259 2491 
L 2053 2491 
Q 2509 2491 2742 2702 
Q 2975 2913 2975 3322 
Q 2975 3731 2742 3939 
Q 2509 4147 2053 4147 
L 1259 4147 
z
" transform="scale(0.015625)"/>
       <path id="DejaVuSans-4f" d="M 2522 4238 
Q 1834 4238 1429 3725 
Q 1025 3213 1025 2328 
Q 1025 1447 1429 934 
Q 1834 422 2522 422 
Q 3209 422 3611 934 
Q 4013 1447 4013 2328 
Q 4013 3213 3611 3725 
Q 3209 4238 2522 4238 
z
M 2522 4750 
Q 3503 4750 4090 4092 
Q 4678 3434 4678 2328 
Q 4678 1225 4090 567 
Q 3503 -91 2522 -91 
Q 1538 -91 948 565 
Q 359 1222 359 2328 
Q 359 3434 948 4092 
Q 1538 4750 2522 4750 
z
" transform="scale(0.015625)"/>
       <path id="DejaVuSans-43" d="M 4122 4306 
L 4122 3641 
Q 3803 3938 3442 4084 
Q 3081 4231 2675 4231 
Q 1875 4231 1450 3742 
Q 1025 3253 1025 2328 
Q 1025 1406 1450 917 
Q 1875 428 2675 428 
Q 3081 428 3442 575 
Q 3803 722 4122 1019 
L 4122 359 
Q 3791 134 3420 21 
Q 3050 -91 2638 -91 
Q 1578 -91 968 557 
Q 359 1206 359 2328 
Q 359 3453 968 4101 
Q 1578 4750 2638 4750 
Q 3056 4750 3426 4639 
Q 3797 4528 4122 4306 
z
" transform="scale(0.015625)"/>
       <path id="DejaVuSans-20" transform="scale(0.015625)"/>
       <path id="DejaVuSans-41" d="M 2188 4044 
L 1331 1722 
L 3047 1722 
L 2188 4044 
z
M 1831 4666 
L 2547 4666 
L 4325 0 
L 3669 0 
L 3244 1197 
L 1141 1197 
L 716 0 
L 50 0 
L 1831 4666 
z
" transform="scale(0.015625)"/>
       <path id="DejaVuSans-55" d="M 556 4666 
L 1191 4666 
L 1191 1831 
Q 1191 1081 1462 751 
Q 1734 422 2344 422 
Q 2950 422 3222 751 
Q 3494 1081 3494 1831 
L 3494 4666 
L 4128 4666 
L 4128 1753 
Q 4128 841 3676 375 
Q 3225 -91 2344 -91 
Q 1459 -91 1007 375 
Q 556 841 556 1753 
L 556 4666 
z
" transform="scale(0.015625)"/>
      </defs>
      <use xlink:href="#DejaVuSans-52"/>
      <use xlink:href="#DejaVuSans-4f" x="69.482422"/>
      <use xlink:href="#DejaVuSans-43" x="148.193359"/>
      <use xlink:href="#DejaVuSans-20" x="218.017578"/>
      <use xlink:href="#DejaVuSans-41" x="249.804688"/>
      <use xlink:href="#DejaVuSans-55" x="318.212891"/>
      <use xlink:href="#DejaVuSans-43" x="391.40625"/>
     </g>
    </g>
   </g>
  </g>
 </g>
 <defs>
  <clipPath id="peab15073bf">
   <rect x="57.6" y="41.472" width="357.12" height="266.112"/>
  </clipPath>
 </defs>
</svg>
