<?xml version="1.0" encoding="utf-8" standalone="no"?>
<!DOCTYPE svg PUBLIC "-//W3C//DTD SVG 1.1//EN"
  "http://www.w3.org/Graphics/SVG/1.1/DTD/svg11.dtd">
<svg xmlns:xlink="http://www.w3.org/1999/xlink" width="460.8pt" height="345.6pt" viewBox="0 0 460.8 345.6" xmlns="http://www.w3.org/2000/svg" version="1.1">
 <metadata>
  <rdf:RDF xmlns:dc="http://purl.org/dc/elements/1.1/" xmlns:cc="http://creativecommons.org/ns#" xmlns:rdf="http://www.w3.org/1999/02/22-rdf-syntax-ns#">
   <cc:Work>
    <dc:type rdf:resource="http://purl.org/dc/dcmitype/StillImage"/>
    <dc:date>2023-07-03T20:14:13.171357</dc:date>
    <dc:format>image/svg+xml</dc:format>
    <dc:creator>
     <cc:Agent>
      <dc:title>Matplotlib v3.7.1, https://matplotlib.org/</dc:title>
     </cc:Agent>
    </dc:creator>
   </cc:Work>
  </rdf:RDF>
 </metadata>
 <defs>
  <style type="text/css">*{stroke-linejoin: round; stroke-linecap: butt}</style>
 </defs>
 <g id="figure_1">
  <g id="patch_1">
   <path d="M 0 345.6 
L 460.8 345.6 
L 460.8 0 
L 0 0 
z
" style="fill: #ffffff"/>
  </g>
  <g id="axes_1">
   <g id="patch_2">
    <path d="M 57.6 307.584 
L 414.72 307.584 
L 414.72 41.472 
L 57.6 41.472 
z
" style="fill: #e5e5e5"/>
   </g>
   <g id="matplotlib.axis_1">
    <g id="xtick_1">
     <g id="line2d_1">
      <path d="M 73.109666 307.584 
L 73.109666 41.472 
" clip-path="url(#p74b526579d)" style="fill: none; stroke: #ffffff; stroke-width: 0.8; stroke-linecap: square"/>
     </g>
     <g id="line2d_2">
      <defs>
       <path id="mdf72dbe786" d="M 0 0 
L 0 3.5 
" style="stroke: #555555; stroke-width: 0.8"/>
      </defs>
      <g>
       <use xlink:href="#mdf72dbe786" x="73.109666" y="307.584" style="fill: #555555; stroke: #555555; stroke-width: 0.8"/>
      </g>
     </g>
     <g id="text_1">
      <!-- 0 -->
      <g style="fill: #555555" transform="translate(69.928416 322.182437) scale(0.1 -0.1)">
       <defs>
        <path id="DejaVuSans-30" d="M 2034 4250 
Q 1547 4250 1301 3770 
Q 1056 3291 1056 2328 
Q 1056 1369 1301 889 
Q 1547 409 2034 409 
Q 2525 409 2770 889 
Q 3016 1369 3016 2328 
Q 3016 3291 2770 3770 
Q 2525 4250 2034 4250 
z
M 2034 4750 
Q 2819 4750 3233 4129 
Q 3647 3509 3647 2328 
Q 3647 1150 3233 529 
Q 2819 -91 2034 -91 
Q 1250 -91 836 529 
Q 422 1150 422 2328 
Q 422 3509 836 4129 
Q 1250 4750 2034 4750 
z
" transform="scale(0.015625)"/>
       </defs>
       <use xlink:href="#DejaVuSans-30"/>
      </g>
     </g>
    </g>
    <g id="xtick_2">
     <g id="line2d_3">
      <path d="M 145.415801 307.584 
L 145.415801 41.472 
" clip-path="url(#p74b526579d)" style="fill: none; stroke: #ffffff; stroke-width: 0.8; stroke-linecap: square"/>
     </g>
     <g id="line2d_4">
      <g>
       <use xlink:href="#mdf72dbe786" x="145.415801" y="307.584" style="fill: #555555; stroke: #555555; stroke-width: 0.8"/>
      </g>
     </g>
     <g id="text_2">
      <!-- 100 -->
      <g style="fill: #555555" transform="translate(135.872051 322.182437) scale(0.1 -0.1)">
       <defs>
        <path id="DejaVuSans-31" d="M 794 531 
L 1825 531 
L 1825 4091 
L 703 3866 
L 703 4441 
L 1819 4666 
L 2450 4666 
L 2450 531 
L 3481 531 
L 3481 0 
L 794 0 
L 794 531 
z
" transform="scale(0.015625)"/>
       </defs>
       <use xlink:href="#DejaVuSans-31"/>
       <use xlink:href="#DejaVuSans-30" x="63.623047"/>
       <use xlink:href="#DejaVuSans-30" x="127.246094"/>
      </g>
     </g>
    </g>
    <g id="xtick_3">
     <g id="line2d_5">
      <path d="M 217.721936 307.584 
L 217.721936 41.472 
" clip-path="url(#p74b526579d)" style="fill: none; stroke: #ffffff; stroke-width: 0.8; stroke-linecap: square"/>
     </g>
     <g id="line2d_6">
      <g>
       <use xlink:href="#mdf72dbe786" x="217.721936" y="307.584" style="fill: #555555; stroke: #555555; stroke-width: 0.8"/>
      </g>
     </g>
     <g id="text_3">
      <!-- 200 -->
      <g style="fill: #555555" transform="translate(208.178186 322.182437) scale(0.1 -0.1)">
       <defs>
        <path id="DejaVuSans-32" d="M 1228 531 
L 3431 531 
L 3431 0 
L 469 0 
L 469 531 
Q 828 903 1448 1529 
Q 2069 2156 2228 2338 
Q 2531 2678 2651 2914 
Q 2772 3150 2772 3378 
Q 2772 3750 2511 3984 
Q 2250 4219 1831 4219 
Q 1534 4219 1204 4116 
Q 875 4013 500 3803 
L 500 4441 
Q 881 4594 1212 4672 
Q 1544 4750 1819 4750 
Q 2544 4750 2975 4387 
Q 3406 4025 3406 3419 
Q 3406 3131 3298 2873 
Q 3191 2616 2906 2266 
Q 2828 2175 2409 1742 
Q 1991 1309 1228 531 
z
" transform="scale(0.015625)"/>
       </defs>
       <use xlink:href="#DejaVuSans-32"/>
       <use xlink:href="#DejaVuSans-30" x="63.623047"/>
       <use xlink:href="#DejaVuSans-30" x="127.246094"/>
      </g>
     </g>
    </g>
    <g id="xtick_4">
     <g id="line2d_7">
      <path d="M 290.02807 307.584 
L 290.02807 41.472 
" clip-path="url(#p74b526579d)" style="fill: none; stroke: #ffffff; stroke-width: 0.8; stroke-linecap: square"/>
     </g>
     <g id="line2d_8">
      <g>
       <use xlink:href="#mdf72dbe786" x="290.02807" y="307.584" style="fill: #555555; stroke: #555555; stroke-width: 0.8"/>
      </g>
     </g>
     <g id="text_4">
      <!-- 300 -->
      <g style="fill: #555555" transform="translate(280.48432 322.182437) scale(0.1 -0.1)">
       <defs>
        <path id="DejaVuSans-33" d="M 2597 2516 
Q 3050 2419 3304 2112 
Q 3559 1806 3559 1356 
Q 3559 666 3084 287 
Q 2609 -91 1734 -91 
Q 1441 -91 1130 -33 
Q 819 25 488 141 
L 488 750 
Q 750 597 1062 519 
Q 1375 441 1716 441 
Q 2309 441 2620 675 
Q 2931 909 2931 1356 
Q 2931 1769 2642 2001 
Q 2353 2234 1838 2234 
L 1294 2234 
L 1294 2753 
L 1863 2753 
Q 2328 2753 2575 2939 
Q 2822 3125 2822 3475 
Q 2822 3834 2567 4026 
Q 2313 4219 1838 4219 
Q 1578 4219 1281 4162 
Q 984 4106 628 3988 
L 628 4550 
Q 988 4650 1302 4700 
Q 1616 4750 1894 4750 
Q 2613 4750 3031 4423 
Q 3450 4097 3450 3541 
Q 3450 3153 3228 2886 
Q 3006 2619 2597 2516 
z
" transform="scale(0.015625)"/>
       </defs>
       <use xlink:href="#DejaVuSans-33"/>
       <use xlink:href="#DejaVuSans-30" x="63.623047"/>
       <use xlink:href="#DejaVuSans-30" x="127.246094"/>
      </g>
     </g>
    </g>
    <g id="xtick_5">
     <g id="line2d_9">
      <path d="M 362.334205 307.584 
L 362.334205 41.472 
" clip-path="url(#p74b526579d)" style="fill: none; stroke: #ffffff; stroke-width: 0.8; stroke-linecap: square"/>
     </g>
     <g id="line2d_10">
      <g>
       <use xlink:href="#mdf72dbe786" x="362.334205" y="307.584" style="fill: #555555; stroke: #555555; stroke-width: 0.8"/>
      </g>
     </g>
     <g id="text_5">
      <!-- 400 -->
      <g style="fill: #555555" transform="translate(352.790455 322.182437) scale(0.1 -0.1)">
       <defs>
        <path id="DejaVuSans-34" d="M 2419 4116 
L 825 1625 
L 2419 1625 
L 2419 4116 
z
M 2253 4666 
L 3047 4666 
L 3047 1625 
L 3713 1625 
L 3713 1100 
L 3047 1100 
L 3047 0 
L 2419 0 
L 2419 1100 
L 313 1100 
L 313 1709 
L 2253 4666 
z
" transform="scale(0.015625)"/>
       </defs>
       <use xlink:href="#DejaVuSans-34"/>
       <use xlink:href="#DejaVuSans-30" x="63.623047"/>
       <use xlink:href="#DejaVuSans-30" x="127.246094"/>
      </g>
     </g>
    </g>
    <g id="text_6">
     <!-- Epoch -->
     <g style="fill: #555555" transform="translate(217.786875 337.38025) scale(0.12 -0.12)">
      <defs>
       <path id="DejaVuSans-45" d="M 628 4666 
L 3578 4666 
L 3578 4134 
L 1259 4134 
L 1259 2753 
L 3481 2753 
L 3481 2222 
L 1259 2222 
L 1259 531 
L 3634 531 
L 3634 0 
L 628 0 
L 628 4666 
z
" transform="scale(0.015625)"/>
       <path id="DejaVuSans-70" d="M 1159 525 
L 1159 -1331 
L 581 -1331 
L 581 3500 
L 1159 3500 
L 1159 2969 
Q 1341 3281 1617 3432 
Q 1894 3584 2278 3584 
Q 2916 3584 3314 3078 
Q 3713 2572 3713 1747 
Q 3713 922 3314 415 
Q 2916 -91 2278 -91 
Q 1894 -91 1617 61 
Q 1341 213 1159 525 
z
M 3116 1747 
Q 3116 2381 2855 2742 
Q 2594 3103 2138 3103 
Q 1681 3103 1420 2742 
Q 1159 2381 1159 1747 
Q 1159 1113 1420 752 
Q 1681 391 2138 391 
Q 2594 391 2855 752 
Q 3116 1113 3116 1747 
z
" transform="scale(0.015625)"/>
       <path id="DejaVuSans-6f" d="M 1959 3097 
Q 1497 3097 1228 2736 
Q 959 2375 959 1747 
Q 959 1119 1226 758 
Q 1494 397 1959 397 
Q 2419 397 2687 759 
Q 2956 1122 2956 1747 
Q 2956 2369 2687 2733 
Q 2419 3097 1959 3097 
z
M 1959 3584 
Q 2709 3584 3137 3096 
Q 3566 2609 3566 1747 
Q 3566 888 3137 398 
Q 2709 -91 1959 -91 
Q 1206 -91 779 398 
Q 353 888 353 1747 
Q 353 2609 779 3096 
Q 1206 3584 1959 3584 
z
" transform="scale(0.015625)"/>
       <path id="DejaVuSans-63" d="M 3122 3366 
L 3122 2828 
Q 2878 2963 2633 3030 
Q 2388 3097 2138 3097 
Q 1578 3097 1268 2742 
Q 959 2388 959 1747 
Q 959 1106 1268 751 
Q 1578 397 2138 397 
Q 2388 397 2633 464 
Q 2878 531 3122 666 
L 3122 134 
Q 2881 22 2623 -34 
Q 2366 -91 2075 -91 
Q 1284 -91 818 406 
Q 353 903 353 1747 
Q 353 2603 823 3093 
Q 1294 3584 2113 3584 
Q 2378 3584 2631 3529 
Q 2884 3475 3122 3366 
z
" transform="scale(0.015625)"/>
       <path id="DejaVuSans-68" d="M 3513 2113 
L 3513 0 
L 2938 0 
L 2938 2094 
Q 2938 2591 2744 2837 
Q 2550 3084 2163 3084 
Q 1697 3084 1428 2787 
Q 1159 2491 1159 1978 
L 1159 0 
L 581 0 
L 581 4863 
L 1159 4863 
L 1159 2956 
Q 1366 3272 1645 3428 
Q 1925 3584 2291 3584 
Q 2894 3584 3203 3211 
Q 3513 2838 3513 2113 
z
" transform="scale(0.015625)"/>
      </defs>
      <use xlink:href="#DejaVuSans-45"/>
      <use xlink:href="#DejaVuSans-70" x="63.183594"/>
      <use xlink:href="#DejaVuSans-6f" x="126.660156"/>
      <use xlink:href="#DejaVuSans-63" x="187.841797"/>
      <use xlink:href="#DejaVuSans-68" x="242.822266"/>
     </g>
    </g>
   </g>
   <g id="matplotlib.axis_2">
    <g id="ytick_1">
     <g id="line2d_11">
      <path d="M 57.6 267.831845 
L 414.72 267.831845 
" clip-path="url(#p74b526579d)" style="fill: none; stroke: #ffffff; stroke-width: 0.8; stroke-linecap: square"/>
     </g>
     <g id="line2d_12">
      <defs>
       <path id="m34919f1251" d="M 0 0 
L -3.5 0 
" style="stroke: #555555; stroke-width: 0.8"/>
      </defs>
      <g>
       <use xlink:href="#m34919f1251" x="57.6" y="267.831845" style="fill: #555555; stroke: #555555; stroke-width: 0.8"/>
      </g>
     </g>
     <g id="text_7">
      <!-- 0.5 -->
      <g style="fill: #555555" transform="translate(34.696875 271.631064) scale(0.1 -0.1)">
       <defs>
        <path id="DejaVuSans-2e" d="M 684 794 
L 1344 794 
L 1344 0 
L 684 0 
L 684 794 
z
" transform="scale(0.015625)"/>
        <path id="DejaVuSans-35" d="M 691 4666 
L 3169 4666 
L 3169 4134 
L 1269 4134 
L 1269 2991 
Q 1406 3038 1543 3061 
Q 1681 3084 1819 3084 
Q 2600 3084 3056 2656 
Q 3513 2228 3513 1497 
Q 3513 744 3044 326 
Q 2575 -91 1722 -91 
Q 1428 -91 1123 -41 
Q 819 9 494 109 
L 494 744 
Q 775 591 1075 516 
Q 1375 441 1709 441 
Q 2250 441 2565 725 
Q 2881 1009 2881 1497 
Q 2881 1984 2565 2268 
Q 2250 2553 1709 2553 
Q 1456 2553 1204 2497 
Q 953 2441 691 2322 
L 691 4666 
z
" transform="scale(0.015625)"/>
       </defs>
       <use xlink:href="#DejaVuSans-30"/>
       <use xlink:href="#DejaVuSans-2e" x="63.623047"/>
       <use xlink:href="#DejaVuSans-35" x="95.410156"/>
      </g>
     </g>
    </g>
    <g id="ytick_2">
     <g id="line2d_13">
      <path d="M 57.6 213.220034 
L 414.72 213.220034 
" clip-path="url(#p74b526579d)" style="fill: none; stroke: #ffffff; stroke-width: 0.8; stroke-linecap: square"/>
     </g>
     <g id="line2d_14">
      <g>
       <use xlink:href="#m34919f1251" x="57.6" y="213.220034" style="fill: #555555; stroke: #555555; stroke-width: 0.8"/>
      </g>
     </g>
     <g id="text_8">
      <!-- 1.0 -->
      <g style="fill: #555555" transform="translate(34.696875 217.019253) scale(0.1 -0.1)">
       <use xlink:href="#DejaVuSans-31"/>
       <use xlink:href="#DejaVuSans-2e" x="63.623047"/>
       <use xlink:href="#DejaVuSans-30" x="95.410156"/>
      </g>
     </g>
    </g>
    <g id="ytick_3">
     <g id="line2d_15">
      <path d="M 57.6 158.608223 
L 414.72 158.608223 
" clip-path="url(#p74b526579d)" style="fill: none; stroke: #ffffff; stroke-width: 0.8; stroke-linecap: square"/>
     </g>
     <g id="line2d_16">
      <g>
       <use xlink:href="#m34919f1251" x="57.6" y="158.608223" style="fill: #555555; stroke: #555555; stroke-width: 0.8"/>
      </g>
     </g>
     <g id="text_9">
      <!-- 1.5 -->
      <g style="fill: #555555" transform="translate(34.696875 162.407442) scale(0.1 -0.1)">
       <use xlink:href="#DejaVuSans-31"/>
       <use xlink:href="#DejaVuSans-2e" x="63.623047"/>
       <use xlink:href="#DejaVuSans-35" x="95.410156"/>
      </g>
     </g>
    </g>
    <g id="ytick_4">
     <g id="line2d_17">
      <path d="M 57.6 103.996412 
L 414.72 103.996412 
" clip-path="url(#p74b526579d)" style="fill: none; stroke: #ffffff; stroke-width: 0.8; stroke-linecap: square"/>
     </g>
     <g id="line2d_18">
      <g>
       <use xlink:href="#m34919f1251" x="57.6" y="103.996412" style="fill: #555555; stroke: #555555; stroke-width: 0.8"/>
      </g>
     </g>
     <g id="text_10">
      <!-- 2.0 -->
      <g style="fill: #555555" transform="translate(34.696875 107.795631) scale(0.1 -0.1)">
       <use xlink:href="#DejaVuSans-32"/>
       <use xlink:href="#DejaVuSans-2e" x="63.623047"/>
       <use xlink:href="#DejaVuSans-30" x="95.410156"/>
      </g>
     </g>
    </g>
    <g id="ytick_5">
     <g id="line2d_19">
      <path d="M 57.6 49.384601 
L 414.72 49.384601 
" clip-path="url(#p74b526579d)" style="fill: none; stroke: #ffffff; stroke-width: 0.8; stroke-linecap: square"/>
     </g>
     <g id="line2d_20">
      <g>
       <use xlink:href="#m34919f1251" x="57.6" y="49.384601" style="fill: #555555; stroke: #555555; stroke-width: 0.8"/>
      </g>
     </g>
     <g id="text_11">
      <!-- 2.5 -->
      <g style="fill: #555555" transform="translate(34.696875 53.18382) scale(0.1 -0.1)">
       <use xlink:href="#DejaVuSans-32"/>
       <use xlink:href="#DejaVuSans-2e" x="63.623047"/>
       <use xlink:href="#DejaVuSans-35" x="95.410156"/>
      </g>
     </g>
    </g>
    <g id="text_12">
     <!-- Loss -->
     <g style="fill: #555555" transform="translate(28.20125 187.688625) rotate(-90) scale(0.12 -0.12)">
      <defs>
       <path id="DejaVuSans-4c" d="M 628 4666 
L 1259 4666 
L 1259 531 
L 3531 531 
L 3531 0 
L 628 0 
L 628 4666 
z
" transform="scale(0.015625)"/>
       <path id="DejaVuSans-73" d="M 2834 3397 
L 2834 2853 
Q 2591 2978 2328 3040 
Q 2066 3103 1784 3103 
Q 1356 3103 1142 2972 
Q 928 2841 928 2578 
Q 928 2378 1081 2264 
Q 1234 2150 1697 2047 
L 1894 2003 
Q 2506 1872 2764 1633 
Q 3022 1394 3022 966 
Q 3022 478 2636 193 
Q 2250 -91 1575 -91 
Q 1294 -91 989 -36 
Q 684 19 347 128 
L 347 722 
Q 666 556 975 473 
Q 1284 391 1588 391 
Q 1994 391 2212 530 
Q 2431 669 2431 922 
Q 2431 1156 2273 1281 
Q 2116 1406 1581 1522 
L 1381 1569 
Q 847 1681 609 1914 
Q 372 2147 372 2553 
Q 372 3047 722 3315 
Q 1072 3584 1716 3584 
Q 2034 3584 2315 3537 
Q 2597 3491 2834 3397 
z
" transform="scale(0.015625)"/>
      </defs>
      <use xlink:href="#DejaVuSans-4c"/>
      <use xlink:href="#DejaVuSans-6f" x="53.962891"/>
      <use xlink:href="#DejaVuSans-73" x="115.144531"/>
      <use xlink:href="#DejaVuSans-73" x="167.244141"/>
     </g>
    </g>
   </g>
   <g id="line2d_21">
    <path d="M 73.832727 240.008513 
L 81.786402 227.661344 
L 82.509463 226.813288 
L 83.232525 225.51057 
L 84.678647 223.55388 
L 86.12477 221.495552 
L 86.847832 220.165654 
L 87.570893 219.299494 
L 88.293954 218.145411 
L 89.740077 216.582798 
L 90.463138 215.390599 
L 91.909261 213.587569 
L 93.355384 211.153777 
L 94.078445 210.601735 
L 94.801506 209.769636 
L 95.524568 208.698754 
L 96.247629 207.895873 
L 96.97069 206.711661 
L 97.693752 206.361866 
L 99.139874 203.852834 
L 99.862936 202.660355 
L 100.585997 202.422562 
L 101.309059 201.113926 
L 102.03212 200.35564 
L 102.755181 199.83378 
L 103.478243 198.788679 
L 104.201304 198.340084 
L 110.708856 191.26243 
L 111.431917 190.605105 
L 112.154979 189.495708 
L 112.87804 188.881142 
L 113.601101 188.773385 
L 114.324163 187.72124 
L 115.047224 187.36013 
L 115.770285 186.276736 
L 116.493347 185.50983 
L 117.216408 185.600114 
L 117.93947 184.593775 
L 118.662531 183.806414 
L 119.385592 183.573764 
L 120.108654 183.096551 
L 120.831715 181.956609 
L 123.72396 180.174406 
L 124.447022 178.888543 
L 125.170083 178.526795 
L 125.893144 177.943374 
L 126.616206 177.767116 
L 127.339267 177.44443 
L 128.062328 176.005121 
L 129.508451 175.799541 
L 130.231512 174.829125 
L 130.954574 174.05304 
L 131.677635 173.961727 
L 132.400696 173.450401 
L 133.123758 172.407969 
L 133.846819 172.872969 
L 134.569881 171.418074 
L 135.292942 171.622613 
L 136.016003 170.94508 
L 136.739065 170.830083 
L 138.185187 170.096978 
L 138.908249 170.029793 
L 139.63131 168.461764 
L 140.354371 168.781781 
L 141.077433 168.615939 
L 141.800494 168.198893 
L 142.523555 166.782331 
L 143.246617 166.894685 
L 143.969678 166.402433 
L 144.692739 166.669873 
L 145.415801 165.921131 
L 146.138862 166.490751 
L 146.861923 165.054059 
L 147.584985 164.598968 
L 148.308046 164.756242 
L 149.031108 164.207064 
L 149.754169 163.375942 
L 151.200292 163.929273 
L 152.646414 163.589504 
L 153.369476 162.237562 
L 154.092537 162.351582 
L 154.815598 161.512569 
L 155.53866 161.330595 
L 156.261721 161.599598 
L 156.984782 161.491528 
L 157.707844 161.644037 
L 158.430905 160.432769 
L 159.153966 160.969707 
L 159.877028 160.285859 
L 160.600089 160.201056 
L 161.32315 159.606424 
L 162.046212 160.333058 
L 162.769273 159.295014 
L 163.492334 158.818113 
L 164.215396 158.722556 
L 164.938457 159.082962 
L 165.661519 158.96557 
L 166.38458 159.03644 
L 167.107641 159.381821 
L 167.830703 157.614592 
L 168.553764 158.351525 
L 169.276825 157.162079 
L 169.999887 157.688249 
L 171.446009 157.012851 
L 172.169071 157.757387 
L 172.892132 157.446354 
L 173.615193 157.836721 
L 174.338255 157.380523 
L 175.061316 157.064373 
L 175.784377 155.414328 
L 176.507439 155.332676 
L 177.2305 155.566889 
L 177.953561 155.091134 
L 178.676623 156.140675 
L 179.399684 154.684348 
L 180.122745 155.507424 
L 180.845807 155.386477 
L 181.568868 154.682122 
L 182.29193 154.833615 
L 183.014991 154.553128 
L 183.738052 153.96334 
L 184.461114 153.988925 
L 185.184175 153.175106 
L 185.907236 153.288697 
L 186.630298 152.364934 
L 187.353359 151.94682 
L 188.07642 152.104641 
L 188.799482 151.164303 
L 189.522543 150.5163 
L 190.245604 149.458647 
L 190.968666 150.061183 
L 191.691727 149.623734 
L 192.414788 148.972671 
L 193.13785 148.846425 
L 193.860911 147.880085 
L 195.307034 147.024757 
L 196.030095 147.456789 
L 196.753157 145.800078 
L 197.476218 144.957783 
L 198.199279 143.934609 
L 198.922341 144.876926 
L 199.645402 143.515428 
L 200.368463 144.012211 
L 201.091525 144.156543 
L 201.814586 143.373023 
L 202.537647 142.287832 
L 203.260709 142.025834 
L 203.98377 140.489314 
L 204.706831 142.073007 
L 205.429893 140.52236 
L 206.876015 139.99563 
L 207.599077 139.211068 
L 208.322138 138.23301 
L 209.045199 138.783385 
L 209.768261 137.736162 
L 210.491322 137.043876 
L 211.214383 137.517834 
L 211.937445 136.240917 
L 212.660506 135.42827 
L 213.383568 136.454479 
L 214.106629 134.766153 
L 214.82969 134.209033 
L 215.552752 134.811985 
L 216.275813 134.476187 
L 217.721936 132.542713 
L 218.444997 132.755051 
L 219.168058 133.141706 
L 219.89112 131.460412 
L 222.060304 130.446443 
L 222.783365 130.783686 
L 223.506426 129.346383 
L 224.229488 129.486548 
L 224.952549 128.459793 
L 225.67561 128.723093 
L 227.121733 127.17824 
L 227.844794 126.969821 
L 228.567856 126.642591 
L 229.290917 126.012895 
L 230.013979 126.069508 
L 231.460101 125.492948 
L 232.183163 123.162336 
L 232.906224 123.578236 
L 233.629285 123.271018 
L 234.352347 123.423852 
L 235.075408 122.386785 
L 235.798469 122.386954 
L 236.521531 121.974387 
L 237.244592 122.545036 
L 237.967653 121.059621 
L 238.690715 119.931085 
L 240.136837 120.568073 
L 240.859899 119.6272 
L 241.58296 120.280581 
L 242.306021 118.41032 
L 243.029083 118.985018 
L 243.752144 119.089832 
L 244.475206 119.005903 
L 245.198267 118.108545 
L 245.921328 115.664798 
L 246.64439 117.196682 
L 247.367451 116.422693 
L 248.090512 116.784389 
L 248.813574 114.253769 
L 249.536635 115.169121 
L 250.259696 114.975403 
L 250.982758 114.349457 
L 251.705819 113.454039 
L 253.151942 115.346695 
L 253.875003 113.094856 
L 254.598064 112.798211 
L 255.321126 111.625952 
L 256.044187 111.154481 
L 256.767248 111.986385 
L 257.49031 110.636592 
L 258.213371 110.623102 
L 259.659494 109.443344 
L 260.382555 111.593323 
L 261.105617 108.78301 
L 261.828678 108.411823 
L 262.551739 108.948488 
L 263.274801 108.079983 
L 264.720923 108.034281 
L 265.443985 106.944286 
L 266.167046 107.419233 
L 266.890107 106.836789 
L 267.613169 106.430654 
L 268.33623 106.719539 
L 269.059291 104.760609 
L 269.782353 105.824668 
L 270.505414 105.162382 
L 271.228475 103.880556 
L 271.951537 104.736535 
L 272.674598 103.372758 
L 273.397659 104.773487 
L 274.120721 104.501606 
L 274.843782 103.360024 
L 275.566843 102.935999 
L 276.289905 100.900613 
L 277.012966 102.845064 
L 277.736028 101.355262 
L 278.459089 101.276644 
L 279.18215 101.591375 
L 279.905212 100.63312 
L 280.628273 100.02871 
L 281.351334 100.824261 
L 282.074396 98.87843 
L 282.797457 99.600779 
L 283.520518 98.794734 
L 284.24358 98.879523 
L 284.966641 97.833224 
L 285.689702 97.199935 
L 286.412764 96.857991 
L 287.858886 95.787865 
L 288.581948 96.46683 
L 289.305009 96.360531 
L 290.02807 94.716671 
L 290.751132 95.449905 
L 291.474193 95.375038 
L 292.197255 94.961716 
L 292.920316 95.077155 
L 293.643377 93.677351 
L 294.366439 93.010364 
L 295.0895 93.9031 
L 295.812561 92.973985 
L 296.535623 91.858651 
L 297.258684 91.842766 
L 297.981745 92.031798 
L 298.704807 92.706675 
L 299.427868 90.882949 
L 300.150929 92.14242 
L 300.873991 90.963364 
L 301.597052 90.979145 
L 302.320113 88.968055 
L 303.043175 89.699649 
L 303.766236 88.413227 
L 304.489297 90.312236 
L 305.212359 89.161852 
L 305.93542 88.506479 
L 306.658481 88.336901 
L 308.104604 86.478333 
L 308.827666 86.174878 
L 309.550727 88.002353 
L 310.273788 87.273805 
L 310.99685 85.231388 
L 311.719911 87.282607 
L 312.442972 85.014858 
L 313.166034 84.556381 
L 313.889095 86.729133 
L 314.612156 85.298678 
L 315.335218 84.808249 
L 316.058279 85.40904 
L 316.78134 83.584585 
L 317.504402 84.767547 
L 318.227463 84.607317 
L 318.950524 82.768879 
L 319.673586 83.58909 
L 320.396647 83.037491 
L 321.119708 81.930777 
L 321.84277 83.462115 
L 322.565831 81.597297 
L 323.288892 80.671463 
L 324.011954 80.876067 
L 324.735015 79.998982 
L 325.458077 80.578054 
L 326.181138 80.405689 
L 326.904199 78.66079 
L 327.627261 78.580688 
L 328.350322 79.783389 
L 329.073383 79.551651 
L 329.796445 77.197836 
L 330.519506 78.640036 
L 331.242567 76.908261 
L 331.965629 77.801673 
L 332.68869 78.169033 
L 333.411751 76.188776 
L 334.134813 76.887506 
L 334.857874 78.068411 
L 335.580935 76.513011 
L 336.303997 76.219582 
L 337.027058 76.42028 
L 337.750119 74.782669 
L 338.473181 76.463716 
L 339.196242 75.721679 
L 339.919304 74.14464 
L 340.642365 74.448329 
L 341.365426 74.911494 
L 342.088488 73.947015 
L 342.811549 74.084824 
L 343.53461 73.268336 
L 344.257672 73.032744 
L 345.703794 71.28597 
L 346.426856 73.267008 
L 347.149917 73.16136 
L 347.872978 72.122066 
L 348.59604 72.507264 
L 349.319101 71.772519 
L 350.042162 72.673587 
L 350.765224 71.921004 
L 351.488285 70.899444 
L 352.211346 73.789546 
L 352.934408 71.851735 
L 353.657469 68.677423 
L 354.38053 70.558412 
L 355.826653 68.798982 
L 356.549715 69.497816 
L 357.272776 68.935124 
L 357.995837 68.813799 
L 358.718899 67.281967 
L 359.44196 69.164492 
L 360.165021 65.580165 
L 360.888083 67.76599 
L 361.611144 65.933254 
L 362.334205 66.475583 
L 363.780328 67.123039 
L 364.503389 64.261582 
L 365.226451 65.848647 
L 365.949512 64.8443 
L 366.672573 64.977552 
L 367.395635 64.485196 
L 368.118696 65.759353 
L 368.841757 65.837997 
L 369.564819 63.731988 
L 370.28788 64.872529 
L 371.010941 63.332025 
L 371.734003 65.536026 
L 372.457064 62.39916 
L 373.180126 62.897401 
L 373.903187 61.871987 
L 374.626248 63.255386 
L 375.34931 59.526506 
L 376.072371 62.026697 
L 376.795432 60.416116 
L 377.518494 61.695143 
L 378.241555 62.221925 
L 378.964616 58.45289 
L 379.687678 59.730276 
L 380.410739 57.935508 
L 381.1338 58.340732 
L 381.856862 59.101518 
L 382.579923 58.886836 
L 383.302984 60.716056 
L 384.026046 59.010062 
L 384.749107 57.603591 
L 385.472168 59.383098 
L 386.19523 58.559944 
L 386.918291 58.074671 
L 387.641353 56.7001 
L 388.364414 57.073501 
L 389.087475 56.92663 
L 389.810537 57.005222 
L 391.256659 56.232796 
L 391.979721 57.684448 
L 392.702782 55.74583 
L 393.425843 57.064022 
L 394.148905 59.05605 
L 394.871966 54.377639 
L 395.595027 53.568 
L 396.318089 54.760727 
L 397.04115 55.355815 
L 397.764211 54.729061 
L 398.487273 54.30975 
L 398.487273 54.30975 
" clip-path="url(#p74b526579d)" style="fill: none; stroke: #6495ed; stroke-width: 2; stroke-linecap: square"/>
   </g>
   <g id="line2d_22">
    <path d="M 73.832727 247.702786 
L 77.448034 250.467974 
L 78.171095 251.017752 
L 79.617218 251.938462 
L 80.340279 252.564872 
L 81.063341 252.867792 
L 81.786402 253.350658 
L 82.509463 253.636561 
L 83.955586 254.706053 
L 84.678647 254.937828 
L 86.12477 255.645293 
L 87.570893 256.641171 
L 89.017016 257.102403 
L 89.740077 257.344797 
L 91.1862 258.2451 
L 91.909261 258.331251 
L 93.355384 259.050845 
L 94.078445 259.266123 
L 94.801506 259.746957 
L 95.524568 259.831295 
L 97.693752 260.537605 
L 98.416813 261.119512 
L 99.139874 261.225878 
L 99.862936 261.582281 
L 100.585997 261.61091 
L 102.03212 262.474042 
L 102.755181 262.332337 
L 103.478243 262.651503 
L 104.201304 262.722634 
L 104.924365 262.981484 
L 105.647427 263.435987 
L 106.370488 263.392021 
L 108.539672 264.002858 
L 109.262733 264.506476 
L 109.985795 264.390163 
L 110.708856 264.619404 
L 111.431917 264.719533 
L 112.154979 265.025841 
L 112.87804 265.49792 
L 113.601101 265.201917 
L 114.324163 265.514327 
L 115.047224 265.538726 
L 115.770285 265.827988 
L 116.493347 266.350477 
L 117.216408 265.999193 
L 117.93947 266.293042 
L 119.385592 266.508273 
L 120.108654 266.981509 
L 120.831715 266.85483 
L 121.554776 267.036184 
L 122.277838 267.071189 
L 123.000899 267.247412 
L 123.72396 267.703472 
L 124.447022 267.585389 
L 125.170083 267.762129 
L 126.616206 267.924945 
L 127.339267 268.369795 
L 128.062328 268.265549 
L 128.78539 268.402525 
L 129.508451 268.366779 
L 130.231512 268.614431 
L 130.954574 269.155366 
L 131.677635 268.798886 
L 133.123758 269.125431 
L 133.846819 269.138942 
L 134.569881 269.797038 
L 135.292942 269.357465 
L 136.016003 269.606521 
L 136.739065 269.563704 
L 137.462126 269.697885 
L 138.185187 270.200331 
L 138.908249 269.793037 
L 139.63131 270.185684 
L 140.354371 270.088495 
L 141.077433 270.179182 
L 141.800494 270.703115 
L 142.523555 270.509094 
L 143.969678 270.646697 
L 144.692739 270.691122 
L 145.415801 271.25689 
L 146.138862 270.726482 
L 146.861923 271.091286 
L 148.308046 271.167914 
L 149.031108 271.718301 
L 149.754169 271.39984 
L 150.47723 271.513395 
L 151.200292 271.403416 
L 151.923353 271.507212 
L 152.646414 271.9992 
L 153.369476 271.767369 
L 155.53866 272.065286 
L 156.261721 272.504996 
L 156.984782 272.050582 
L 158.430905 272.292204 
L 159.153966 272.308023 
L 159.877028 272.902569 
L 160.600089 272.42531 
L 161.32315 272.695202 
L 162.046212 272.498794 
L 162.769273 272.750531 
L 163.492334 273.307952 
L 164.215396 272.845917 
L 164.938457 272.945866 
L 165.661519 272.892854 
L 166.38458 272.984047 
L 167.107641 273.427489 
L 167.830703 273.187385 
L 169.999887 273.371044 
L 170.722948 273.929077 
L 171.446009 273.466699 
L 172.892132 273.498612 
L 173.615193 273.52352 
L 174.338255 274.110321 
L 175.061316 273.638594 
L 175.784377 274.055971 
L 176.507439 273.995577 
L 177.2305 274.058533 
L 177.953561 274.640204 
L 178.676623 273.968113 
L 179.399684 274.354675 
L 180.122745 274.150487 
L 180.845807 274.274114 
L 181.568868 274.904605 
L 182.29193 274.347729 
L 183.014991 274.564922 
L 184.461114 274.634102 
L 185.184175 275.312416 
L 185.907236 274.733014 
L 186.630298 275.047786 
L 187.353359 275.009706 
L 188.07642 275.094082 
L 188.799482 275.745432 
L 189.522543 275.292385 
L 190.245604 275.619829 
L 190.968666 275.440006 
L 191.691727 275.592876 
L 192.414788 276.233216 
L 193.13785 275.704116 
L 193.860911 276.016193 
L 194.583972 275.979779 
L 195.307034 276.136569 
L 196.030095 276.635327 
L 196.753157 276.271173 
L 197.476218 276.586977 
L 198.922341 276.588651 
L 199.645402 277.329618 
L 200.368463 276.666285 
L 201.091525 276.878507 
L 201.814586 276.869142 
L 202.537647 277.106453 
L 203.260709 277.718001 
L 203.98377 277.302854 
L 205.429893 277.39835 
L 206.152954 277.556811 
L 206.876015 278.15461 
L 207.599077 277.662404 
L 208.322138 277.988587 
L 209.045199 277.81781 
L 209.768261 278.052982 
L 210.491322 278.704412 
L 211.214383 278.07027 
L 211.937445 278.391584 
L 213.383568 278.391476 
L 214.106629 279.17153 
L 214.82969 278.632043 
L 215.552752 278.76717 
L 216.275813 278.694078 
L 216.998874 278.913382 
L 217.721936 279.618929 
L 218.444997 278.981208 
L 219.89112 279.237418 
L 220.614181 279.383164 
L 221.337242 280.013556 
L 222.060304 279.441266 
L 222.783365 279.614091 
L 224.229488 279.758146 
L 224.952549 280.454141 
L 225.67561 279.814646 
L 226.398672 280.134747 
L 227.121733 280.07771 
L 227.844794 280.227079 
L 228.567856 280.862152 
L 229.290917 280.306157 
L 230.013979 280.530027 
L 230.73704 280.427995 
L 231.460101 280.609013 
L 232.183163 281.424059 
L 232.906224 280.758141 
L 233.629285 281.034803 
L 234.352347 280.890273 
L 235.075408 281.112576 
L 235.798469 281.71894 
L 236.521531 281.125973 
L 237.244592 281.297622 
L 237.967653 281.3325 
L 238.690715 281.558661 
L 239.413776 282.141216 
L 240.136837 281.456327 
L 240.859899 281.793975 
L 241.58296 281.617235 
L 242.306021 281.917455 
L 243.029083 282.472191 
L 243.752144 281.817202 
L 244.475206 282.064391 
L 245.198267 282.043846 
L 246.64439 282.846476 
L 247.367451 282.259731 
L 248.813574 282.595782 
L 249.536635 282.640198 
L 250.259696 283.250265 
L 250.982758 282.667353 
L 251.705819 283.005512 
L 252.42888 282.7869 
L 253.151942 282.835823 
L 253.875003 283.643189 
L 254.598064 283.023167 
L 255.321126 283.369488 
L 256.044187 283.288618 
L 256.767248 283.346396 
L 257.49031 284.085455 
L 258.213371 283.412452 
L 258.936432 283.735788 
L 260.382555 283.583006 
L 261.105617 284.450302 
L 261.828678 283.819067 
L 262.551739 284.028129 
L 263.274801 283.968731 
L 263.997862 284.115309 
L 264.720923 284.721305 
L 265.443985 284.154937 
L 266.167046 284.36695 
L 266.890107 284.309741 
L 267.613169 284.427204 
L 268.33623 285.050428 
L 269.059291 284.518688 
L 269.782353 284.723736 
L 270.505414 284.632543 
L 271.228475 284.870994 
L 271.951537 285.43582 
L 272.674598 284.860821 
L 273.397659 284.987491 
L 274.120721 284.88864 
L 274.843782 285.118282 
L 275.566843 285.773579 
L 276.289905 285.25752 
L 277.012966 285.383899 
L 277.736028 285.354725 
L 278.459089 285.482587 
L 279.18215 286.096718 
L 279.905212 285.488789 
L 280.628273 285.803819 
L 281.351334 285.605069 
L 282.074396 285.882976 
L 282.797457 286.454528 
L 283.520518 285.850731 
L 284.24358 286.103817 
L 284.966641 286.034314 
L 285.689702 286.231265 
L 286.412764 286.883404 
L 287.135825 286.241426 
L 287.858886 286.563076 
L 288.581948 286.364096 
L 289.305009 286.477125 
L 290.02807 287.250133 
L 290.751132 286.517222 
L 291.474193 286.763186 
L 292.197255 286.690387 
L 292.920316 286.805991 
L 293.643377 287.540226 
L 294.366439 286.909658 
L 295.0895 287.128696 
L 295.812561 287.024343 
L 296.535623 287.241833 
L 297.258684 287.883122 
L 297.981745 287.172735 
L 298.704807 287.394527 
L 300.150929 287.408973 
L 300.873991 288.135871 
L 301.597052 287.443107 
L 302.320113 287.869418 
L 303.043175 287.658814 
L 303.766236 287.901241 
L 304.489297 288.393607 
L 305.212359 287.790688 
L 305.93542 288.107037 
L 306.658481 287.976415 
L 307.381543 288.151282 
L 308.104604 288.867869 
L 308.827666 288.192222 
L 309.550727 288.340843 
L 310.273788 288.240042 
L 310.99685 288.526611 
L 311.719911 289.023176 
L 312.442972 288.462919 
L 313.166034 288.810765 
L 313.889095 288.481688 
L 314.612156 288.710495 
L 315.335218 289.385883 
L 316.058279 288.638283 
L 316.78134 289.051338 
L 317.504402 288.823503 
L 318.227463 288.952235 
L 318.950524 289.73259 
L 319.673586 288.982404 
L 320.396647 289.310896 
L 321.119708 289.207472 
L 321.84277 289.232384 
L 322.565831 290.002347 
L 323.288892 289.371495 
L 324.011954 289.646826 
L 324.735015 289.554057 
L 325.458077 289.643053 
L 326.181138 290.277063 
L 326.904199 289.688794 
L 327.627261 289.99992 
L 328.350322 289.734127 
L 329.073383 289.892943 
L 329.796445 290.699445 
L 330.519506 289.888578 
L 331.242567 290.279156 
L 331.965629 290.059742 
L 332.68869 290.185389 
L 333.411751 290.952554 
L 334.134813 290.162228 
L 334.857874 290.419097 
L 335.580935 290.341856 
L 336.303997 290.493967 
L 337.027058 291.119908 
L 337.750119 290.530613 
L 338.473181 290.726373 
L 339.196242 290.56794 
L 339.919304 290.825121 
L 340.642365 291.432654 
L 341.365426 290.694598 
L 342.088488 291.0379 
L 342.811549 290.874616 
L 343.53461 291.081058 
L 344.257672 291.699486 
L 344.980733 291.065962 
L 345.703794 291.410353 
L 346.426856 291.103433 
L 347.149917 291.252425 
L 347.872978 291.961164 
L 348.59604 291.226792 
L 349.319101 291.584701 
L 350.042162 291.338249 
L 350.765224 291.50966 
L 351.488285 292.223075 
L 352.211346 291.354085 
L 352.934408 291.745967 
L 354.38053 291.822054 
L 355.103592 292.479295 
L 355.826653 291.856338 
L 356.549715 292.065971 
L 357.272776 291.955995 
L 357.995837 292.105239 
L 358.718899 292.818043 
L 359.44196 291.994862 
L 360.165021 292.486266 
L 360.888083 292.176287 
L 361.611144 292.412625 
L 362.334205 293.037398 
L 363.057267 292.272769 
L 363.780328 292.588616 
L 365.226451 292.645942 
L 365.949512 293.307297 
L 366.672573 292.603202 
L 367.395635 292.945465 
L 368.118696 292.679789 
L 368.841757 292.806845 
L 369.564819 293.570442 
L 370.28788 292.774768 
L 371.010941 293.217288 
L 371.734003 292.903912 
L 372.457064 293.213844 
L 373.180126 293.804879 
L 373.903187 293.147005 
L 374.626248 293.360591 
L 376.072371 293.402532 
L 376.795432 294.12103 
L 377.518494 293.353586 
L 378.241555 293.61661 
L 379.687678 293.709421 
L 380.410739 294.398765 
L 381.1338 293.681679 
L 381.856862 293.963113 
L 382.579923 293.775365 
L 383.302984 293.812366 
L 384.026046 294.548413 
L 384.749107 293.859282 
L 385.472168 294.136001 
L 386.19523 293.987292 
L 386.918291 294.13703 
L 387.641353 294.86945 
L 388.364414 294.10715 
L 389.087475 294.415785 
L 389.810537 294.259388 
L 390.533598 294.418664 
L 391.256659 295.044561 
L 391.979721 294.236705 
L 392.702782 294.676072 
L 393.425843 294.413598 
L 394.148905 294.469095 
L 394.871966 295.323823 
L 395.595027 294.648942 
L 396.318089 294.904984 
L 397.04115 294.678372 
L 397.764211 294.839785 
L 398.487273 295.488 
L 398.487273 295.488 
" clip-path="url(#p74b526579d)" style="fill: none; stroke: #dc143c; stroke-width: 2; stroke-linecap: square"/>
   </g>
   <g id="line2d_23">
    <path d="M 73.832727 269.216117 
L 76.724973 269.216117 
L 77.448034 261.784763 
L 80.340279 261.784763 
L 81.063341 257.617546 
L 83.955586 257.617546 
L 84.678647 255.221756 
L 87.570893 255.221756 
L 88.293954 253.152125 
L 91.1862 253.152125 
L 91.909261 250.451355 
L 94.801506 250.451355 
L 95.524568 248.476607 
L 98.416813 248.476607 
L 99.139874 247.094877 
L 102.03212 247.094877 
L 102.755181 246.146897 
L 105.647427 246.146897 
L 106.370488 245.416638 
L 109.262733 245.416638 
L 109.985795 244.908761 
L 112.87804 244.908761 
L 113.601101 244.472893 
L 116.493347 244.472893 
L 117.216408 244.133603 
L 120.108654 244.133603 
L 120.831715 243.807867 
L 123.72396 243.807867 
L 124.447022 243.551175 
L 127.339267 243.551175 
L 128.062328 243.333453 
L 130.954574 243.333453 
L 131.677635 243.113189 
L 134.569881 243.113189 
L 135.292942 242.915799 
L 138.185187 242.915799 
L 138.908249 242.766698 
L 141.800494 242.766698 
L 142.523555 242.574814 
L 145.415801 242.574814 
L 146.138862 242.443927 
L 149.031108 242.443927 
L 149.754169 242.272799 
L 152.646414 242.272799 
L 153.369476 242.11565 
L 159.877028 242.027968 
L 161.32315 241.939862 
L 167.107641 241.839897 
L 168.553764 241.754756 
L 174.338255 241.692489 
L 176.507439 241.640389 
L 185.184175 241.52941 
L 186.630298 241.471379 
L 196.030095 241.371413 
L 198.199279 241.322277 
L 206.876015 241.230783 
L 209.768261 241.200285 
L 224.952549 241.096083 
L 227.844794 241.068127 
L 246.64439 240.968161 
L 254.598064 240.923261 
L 290.02807 240.821601 
L 296.535623 240.801269 
L 351.488285 240.697068 
L 360.165021 240.658945 
L 398.487273 240.553896 
L 398.487273 240.553896 
" clip-path="url(#p74b526579d)" style="fill: none; stroke: #ffff00; stroke-width: 3; stroke-linecap: square"/>
   </g>
   <g id="patch_3">
    <path d="M 57.6 307.584 
L 57.6 41.472 
" style="fill: none; stroke: #ffffff; stroke-linejoin: miter; stroke-linecap: square"/>
   </g>
   <g id="patch_4">
    <path d="M 414.72 307.584 
L 414.72 41.472 
" style="fill: none; stroke: #ffffff; stroke-linejoin: miter; stroke-linecap: square"/>
   </g>
   <g id="patch_5">
    <path d="M 57.6 307.584 
L 414.72 307.584 
" style="fill: none; stroke: #ffffff; stroke-linejoin: miter; stroke-linecap: square"/>
   </g>
   <g id="patch_6">
    <path d="M 57.6 41.472 
L 414.72 41.472 
" style="fill: none; stroke: #ffffff; stroke-linejoin: miter; stroke-linecap: square"/>
   </g>
   <g id="legend_1">
    <g id="patch_7">
     <path d="M 243.124687 302.584 
L 407.72 302.584 
Q 409.72 302.584 409.72 300.584 
L 409.72 257.549625 
Q 409.72 255.549625 407.72 255.549625 
L 243.124687 255.549625 
Q 241.124687 255.549625 241.124687 257.549625 
L 241.124687 300.584 
Q 241.124687 302.584 243.124687 302.584 
z
" style="fill: #e5e5e5; opacity: 0.8; stroke: #cccccc; stroke-width: 0.5; stroke-linejoin: miter"/>
    </g>
    <g id="line2d_24">
     <path d="M 245.124687 263.648062 
L 255.124687 263.648062 
L 265.124687 263.648062 
" style="fill: none; stroke: #6495ed; stroke-width: 2; stroke-linecap: square"/>
    </g>
    <g id="text_13">
     <!-- Generator loss -->
     <g transform="translate(273.124687 267.148062) scale(0.1 -0.1)">
      <defs>
       <path id="DejaVuSans-47" d="M 3809 666 
L 3809 1919 
L 2778 1919 
L 2778 2438 
L 4434 2438 
L 4434 434 
Q 4069 175 3628 42 
Q 3188 -91 2688 -91 
Q 1594 -91 976 548 
Q 359 1188 359 2328 
Q 359 3472 976 4111 
Q 1594 4750 2688 4750 
Q 3144 4750 3555 4637 
Q 3966 4525 4313 4306 
L 4313 3634 
Q 3963 3931 3569 4081 
Q 3175 4231 2741 4231 
Q 1884 4231 1454 3753 
Q 1025 3275 1025 2328 
Q 1025 1384 1454 906 
Q 1884 428 2741 428 
Q 3075 428 3337 486 
Q 3600 544 3809 666 
z
" transform="scale(0.015625)"/>
       <path id="DejaVuSans-65" d="M 3597 1894 
L 3597 1613 
L 953 1613 
Q 991 1019 1311 708 
Q 1631 397 2203 397 
Q 2534 397 2845 478 
Q 3156 559 3463 722 
L 3463 178 
Q 3153 47 2828 -22 
Q 2503 -91 2169 -91 
Q 1331 -91 842 396 
Q 353 884 353 1716 
Q 353 2575 817 3079 
Q 1281 3584 2069 3584 
Q 2775 3584 3186 3129 
Q 3597 2675 3597 1894 
z
M 3022 2063 
Q 3016 2534 2758 2815 
Q 2500 3097 2075 3097 
Q 1594 3097 1305 2825 
Q 1016 2553 972 2059 
L 3022 2063 
z
" transform="scale(0.015625)"/>
       <path id="DejaVuSans-6e" d="M 3513 2113 
L 3513 0 
L 2938 0 
L 2938 2094 
Q 2938 2591 2744 2837 
Q 2550 3084 2163 3084 
Q 1697 3084 1428 2787 
Q 1159 2491 1159 1978 
L 1159 0 
L 581 0 
L 581 3500 
L 1159 3500 
L 1159 2956 
Q 1366 3272 1645 3428 
Q 1925 3584 2291 3584 
Q 2894 3584 3203 3211 
Q 3513 2838 3513 2113 
z
" transform="scale(0.015625)"/>
       <path id="DejaVuSans-72" d="M 2631 2963 
Q 2534 3019 2420 3045 
Q 2306 3072 2169 3072 
Q 1681 3072 1420 2755 
Q 1159 2438 1159 1844 
L 1159 0 
L 581 0 
L 581 3500 
L 1159 3500 
L 1159 2956 
Q 1341 3275 1631 3429 
Q 1922 3584 2338 3584 
Q 2397 3584 2469 3576 
Q 2541 3569 2628 3553 
L 2631 2963 
z
" transform="scale(0.015625)"/>
       <path id="DejaVuSans-61" d="M 2194 1759 
Q 1497 1759 1228 1600 
Q 959 1441 959 1056 
Q 959 750 1161 570 
Q 1363 391 1709 391 
Q 2188 391 2477 730 
Q 2766 1069 2766 1631 
L 2766 1759 
L 2194 1759 
z
M 3341 1997 
L 3341 0 
L 2766 0 
L 2766 531 
Q 2569 213 2275 61 
Q 1981 -91 1556 -91 
Q 1019 -91 701 211 
Q 384 513 384 1019 
Q 384 1609 779 1909 
Q 1175 2209 1959 2209 
L 2766 2209 
L 2766 2266 
Q 2766 2663 2505 2880 
Q 2244 3097 1772 3097 
Q 1472 3097 1187 3025 
Q 903 2953 641 2809 
L 641 3341 
Q 956 3463 1253 3523 
Q 1550 3584 1831 3584 
Q 2591 3584 2966 3190 
Q 3341 2797 3341 1997 
z
" transform="scale(0.015625)"/>
       <path id="DejaVuSans-74" d="M 1172 4494 
L 1172 3500 
L 2356 3500 
L 2356 3053 
L 1172 3053 
L 1172 1153 
Q 1172 725 1289 603 
Q 1406 481 1766 481 
L 2356 481 
L 2356 0 
L 1766 0 
Q 1100 0 847 248 
Q 594 497 594 1153 
L 594 3053 
L 172 3053 
L 172 3500 
L 594 3500 
L 594 4494 
L 1172 4494 
z
" transform="scale(0.015625)"/>
       <path id="DejaVuSans-20" transform="scale(0.015625)"/>
       <path id="DejaVuSans-6c" d="M 603 4863 
L 1178 4863 
L 1178 0 
L 603 0 
L 603 4863 
z
" transform="scale(0.015625)"/>
      </defs>
      <use xlink:href="#DejaVuSans-47"/>
      <use xlink:href="#DejaVuSans-65" x="77.490234"/>
      <use xlink:href="#DejaVuSans-6e" x="139.013672"/>
      <use xlink:href="#DejaVuSans-65" x="202.392578"/>
      <use xlink:href="#DejaVuSans-72" x="263.916016"/>
      <use xlink:href="#DejaVuSans-61" x="305.029297"/>
      <use xlink:href="#DejaVuSans-74" x="366.308594"/>
      <use xlink:href="#DejaVuSans-6f" x="405.517578"/>
      <use xlink:href="#DejaVuSans-72" x="466.699219"/>
      <use xlink:href="#DejaVuSans-20" x="507.8125"/>
      <use xlink:href="#DejaVuSans-6c" x="539.599609"/>
      <use xlink:href="#DejaVuSans-6f" x="567.382812"/>
      <use xlink:href="#DejaVuSans-73" x="628.564453"/>
      <use xlink:href="#DejaVuSans-73" x="680.664062"/>
     </g>
    </g>
    <g id="line2d_25">
     <path d="M 245.124687 278.326188 
L 255.124687 278.326188 
L 265.124687 278.326188 
" style="fill: none; stroke: #dc143c; stroke-width: 2; stroke-linecap: square"/>
    </g>
    <g id="text_14">
     <!-- Average discriminator loss -->
     <g transform="translate(273.124687 281.826188) scale(0.1 -0.1)">
      <defs>
       <path id="DejaVuSans-41" d="M 2188 4044 
L 1331 1722 
L 3047 1722 
L 2188 4044 
z
M 1831 4666 
L 2547 4666 
L 4325 0 
L 3669 0 
L 3244 1197 
L 1141 1197 
L 716 0 
L 50 0 
L 1831 4666 
z
" transform="scale(0.015625)"/>
       <path id="DejaVuSans-76" d="M 191 3500 
L 800 3500 
L 1894 563 
L 2988 3500 
L 3597 3500 
L 2284 0 
L 1503 0 
L 191 3500 
z
" transform="scale(0.015625)"/>
       <path id="DejaVuSans-67" d="M 2906 1791 
Q 2906 2416 2648 2759 
Q 2391 3103 1925 3103 
Q 1463 3103 1205 2759 
Q 947 2416 947 1791 
Q 947 1169 1205 825 
Q 1463 481 1925 481 
Q 2391 481 2648 825 
Q 2906 1169 2906 1791 
z
M 3481 434 
Q 3481 -459 3084 -895 
Q 2688 -1331 1869 -1331 
Q 1566 -1331 1297 -1286 
Q 1028 -1241 775 -1147 
L 775 -588 
Q 1028 -725 1275 -790 
Q 1522 -856 1778 -856 
Q 2344 -856 2625 -561 
Q 2906 -266 2906 331 
L 2906 616 
Q 2728 306 2450 153 
Q 2172 0 1784 0 
Q 1141 0 747 490 
Q 353 981 353 1791 
Q 353 2603 747 3093 
Q 1141 3584 1784 3584 
Q 2172 3584 2450 3431 
Q 2728 3278 2906 2969 
L 2906 3500 
L 3481 3500 
L 3481 434 
z
" transform="scale(0.015625)"/>
       <path id="DejaVuSans-64" d="M 2906 2969 
L 2906 4863 
L 3481 4863 
L 3481 0 
L 2906 0 
L 2906 525 
Q 2725 213 2448 61 
Q 2172 -91 1784 -91 
Q 1150 -91 751 415 
Q 353 922 353 1747 
Q 353 2572 751 3078 
Q 1150 3584 1784 3584 
Q 2172 3584 2448 3432 
Q 2725 3281 2906 2969 
z
M 947 1747 
Q 947 1113 1208 752 
Q 1469 391 1925 391 
Q 2381 391 2643 752 
Q 2906 1113 2906 1747 
Q 2906 2381 2643 2742 
Q 2381 3103 1925 3103 
Q 1469 3103 1208 2742 
Q 947 2381 947 1747 
z
" transform="scale(0.015625)"/>
       <path id="DejaVuSans-69" d="M 603 3500 
L 1178 3500 
L 1178 0 
L 603 0 
L 603 3500 
z
M 603 4863 
L 1178 4863 
L 1178 4134 
L 603 4134 
L 603 4863 
z
" transform="scale(0.015625)"/>
       <path id="DejaVuSans-6d" d="M 3328 2828 
Q 3544 3216 3844 3400 
Q 4144 3584 4550 3584 
Q 5097 3584 5394 3201 
Q 5691 2819 5691 2113 
L 5691 0 
L 5113 0 
L 5113 2094 
Q 5113 2597 4934 2840 
Q 4756 3084 4391 3084 
Q 3944 3084 3684 2787 
Q 3425 2491 3425 1978 
L 3425 0 
L 2847 0 
L 2847 2094 
Q 2847 2600 2669 2842 
Q 2491 3084 2119 3084 
Q 1678 3084 1418 2786 
Q 1159 2488 1159 1978 
L 1159 0 
L 581 0 
L 581 3500 
L 1159 3500 
L 1159 2956 
Q 1356 3278 1631 3431 
Q 1906 3584 2284 3584 
Q 2666 3584 2933 3390 
Q 3200 3197 3328 2828 
z
" transform="scale(0.015625)"/>
      </defs>
      <use xlink:href="#DejaVuSans-41"/>
      <use xlink:href="#DejaVuSans-76" x="62.533203"/>
      <use xlink:href="#DejaVuSans-65" x="121.712891"/>
      <use xlink:href="#DejaVuSans-72" x="183.236328"/>
      <use xlink:href="#DejaVuSans-61" x="224.349609"/>
      <use xlink:href="#DejaVuSans-67" x="285.628906"/>
      <use xlink:href="#DejaVuSans-65" x="349.105469"/>
      <use xlink:href="#DejaVuSans-20" x="410.628906"/>
      <use xlink:href="#DejaVuSans-64" x="442.416016"/>
      <use xlink:href="#DejaVuSans-69" x="505.892578"/>
      <use xlink:href="#DejaVuSans-73" x="533.675781"/>
      <use xlink:href="#DejaVuSans-63" x="585.775391"/>
      <use xlink:href="#DejaVuSans-72" x="640.755859"/>
      <use xlink:href="#DejaVuSans-69" x="681.869141"/>
      <use xlink:href="#DejaVuSans-6d" x="709.652344"/>
      <use xlink:href="#DejaVuSans-69" x="807.064453"/>
      <use xlink:href="#DejaVuSans-6e" x="834.847656"/>
      <use xlink:href="#DejaVuSans-61" x="898.226562"/>
      <use xlink:href="#DejaVuSans-74" x="959.505859"/>
      <use xlink:href="#DejaVuSans-6f" x="998.714844"/>
      <use xlink:href="#DejaVuSans-72" x="1059.896484"/>
      <use xlink:href="#DejaVuSans-20" x="1101.009766"/>
      <use xlink:href="#DejaVuSans-6c" x="1132.796875"/>
      <use xlink:href="#DejaVuSans-6f" x="1160.580078"/>
      <use xlink:href="#DejaVuSans-73" x="1221.761719"/>
      <use xlink:href="#DejaVuSans-73" x="1273.861328"/>
     </g>
    </g>
    <g id="line2d_26">
     <path d="M 245.124687 293.004312 
L 255.124687 293.004312 
L 265.124687 293.004312 
" style="fill: none; stroke: #ffff00; stroke-width: 3; stroke-linecap: square"/>
    </g>
    <g id="text_15">
     <!-- ROC AUC -->
     <g transform="translate(273.124687 296.504312) scale(0.1 -0.1)">
      <defs>
       <path id="DejaVuSans-52" d="M 2841 2188 
Q 3044 2119 3236 1894 
Q 3428 1669 3622 1275 
L 4263 0 
L 3584 0 
L 2988 1197 
Q 2756 1666 2539 1819 
Q 2322 1972 1947 1972 
L 1259 1972 
L 1259 0 
L 628 0 
L 628 4666 
L 2053 4666 
Q 2853 4666 3247 4331 
Q 3641 3997 3641 3322 
Q 3641 2881 3436 2590 
Q 3231 2300 2841 2188 
z
M 1259 4147 
L 1259 2491 
L 2053 2491 
Q 2509 2491 2742 2702 
Q 2975 2913 2975 3322 
Q 2975 3731 2742 3939 
Q 2509 4147 2053 4147 
L 1259 4147 
z
" transform="scale(0.015625)"/>
       <path id="DejaVuSans-4f" d="M 2522 4238 
Q 1834 4238 1429 3725 
Q 1025 3213 1025 2328 
Q 1025 1447 1429 934 
Q 1834 422 2522 422 
Q 3209 422 3611 934 
Q 4013 1447 4013 2328 
Q 4013 3213 3611 3725 
Q 3209 4238 2522 4238 
z
M 2522 4750 
Q 3503 4750 4090 4092 
Q 4678 3434 4678 2328 
Q 4678 1225 4090 567 
Q 3503 -91 2522 -91 
Q 1538 -91 948 565 
Q 359 1222 359 2328 
Q 359 3434 948 4092 
Q 1538 4750 2522 4750 
z
" transform="scale(0.015625)"/>
       <path id="DejaVuSans-43" d="M 4122 4306 
L 4122 3641 
Q 3803 3938 3442 4084 
Q 3081 4231 2675 4231 
Q 1875 4231 1450 3742 
Q 1025 3253 1025 2328 
Q 1025 1406 1450 917 
Q 1875 428 2675 428 
Q 3081 428 3442 575 
Q 3803 722 4122 1019 
L 4122 359 
Q 3791 134 3420 21 
Q 3050 -91 2638 -91 
Q 1578 -91 968 557 
Q 359 1206 359 2328 
Q 359 3453 968 4101 
Q 1578 4750 2638 4750 
Q 3056 4750 3426 4639 
Q 3797 4528 4122 4306 
z
" transform="scale(0.015625)"/>
       <path id="DejaVuSans-55" d="M 556 4666 
L 1191 4666 
L 1191 1831 
Q 1191 1081 1462 751 
Q 1734 422 2344 422 
Q 2950 422 3222 751 
Q 3494 1081 3494 1831 
L 3494 4666 
L 4128 4666 
L 4128 1753 
Q 4128 841 3676 375 
Q 3225 -91 2344 -91 
Q 1459 -91 1007 375 
Q 556 841 556 1753 
L 556 4666 
z
" transform="scale(0.015625)"/>
      </defs>
      <use xlink:href="#DejaVuSans-52"/>
      <use xlink:href="#DejaVuSans-4f" x="69.482422"/>
      <use xlink:href="#DejaVuSans-43" x="148.193359"/>
      <use xlink:href="#DejaVuSans-20" x="218.017578"/>
      <use xlink:href="#DejaVuSans-41" x="249.804688"/>
      <use xlink:href="#DejaVuSans-55" x="318.212891"/>
      <use xlink:href="#DejaVuSans-43" x="391.40625"/>
     </g>
    </g>
   </g>
  </g>
 </g>
 <defs>
  <clipPath id="p74b526579d">
   <rect x="57.6" y="41.472" width="357.12" height="266.112"/>
  </clipPath>
 </defs>
</svg>
