<?xml version="1.0" encoding="utf-8" standalone="no"?>
<!DOCTYPE svg PUBLIC "-//W3C//DTD SVG 1.1//EN"
  "http://www.w3.org/Graphics/SVG/1.1/DTD/svg11.dtd">
<svg xmlns:xlink="http://www.w3.org/1999/xlink" width="460.8pt" height="345.6pt" viewBox="0 0 460.8 345.6" xmlns="http://www.w3.org/2000/svg" version="1.1">
 <metadata>
  <rdf:RDF xmlns:dc="http://purl.org/dc/elements/1.1/" xmlns:cc="http://creativecommons.org/ns#" xmlns:rdf="http://www.w3.org/1999/02/22-rdf-syntax-ns#">
   <cc:Work>
    <dc:type rdf:resource="http://purl.org/dc/dcmitype/StillImage"/>
    <dc:date>2023-07-06T14:16:47.267629</dc:date>
    <dc:format>image/svg+xml</dc:format>
    <dc:creator>
     <cc:Agent>
      <dc:title>Matplotlib v3.7.1, https://matplotlib.org/</dc:title>
     </cc:Agent>
    </dc:creator>
   </cc:Work>
  </rdf:RDF>
 </metadata>
 <defs>
  <style type="text/css">*{stroke-linejoin: round; stroke-linecap: butt}</style>
 </defs>
 <g id="figure_1">
  <g id="patch_1">
   <path d="M 0 345.6 
L 460.8 345.6 
L 460.8 0 
L 0 0 
z
" style="fill: #ffffff"/>
  </g>
  <g id="axes_1">
   <g id="patch_2">
    <path d="M 57.6 307.584 
L 414.72 307.584 
L 414.72 41.472 
L 57.6 41.472 
z
" style="fill: #e5e5e5"/>
   </g>
   <g id="matplotlib.axis_1">
    <g id="xtick_1">
     <g id="line2d_1">
      <path d="M 72.625833 307.584 
L 72.625833 41.472 
" clip-path="url(#p9ce95a12e4)" style="fill: none; stroke: #ffffff; stroke-width: 0.8; stroke-linecap: square"/>
     </g>
     <g id="line2d_2">
      <defs>
       <path id="m29718475ea" d="M 0 0 
L 0 3.5 
" style="stroke: #555555; stroke-width: 0.8"/>
      </defs>
      <g>
       <use xlink:href="#m29718475ea" x="72.625833" y="307.584" style="fill: #555555; stroke: #555555; stroke-width: 0.8"/>
      </g>
     </g>
     <g id="text_1">
      <!-- 0 -->
      <g style="fill: #555555" transform="translate(69.444583 322.182437) scale(0.1 -0.1)">
       <defs>
        <path id="DejaVuSans-30" d="M 2034 4250 
Q 1547 4250 1301 3770 
Q 1056 3291 1056 2328 
Q 1056 1369 1301 889 
Q 1547 409 2034 409 
Q 2525 409 2770 889 
Q 3016 1369 3016 2328 
Q 3016 3291 2770 3770 
Q 2525 4250 2034 4250 
z
M 2034 4750 
Q 2819 4750 3233 4129 
Q 3647 3509 3647 2328 
Q 3647 1150 3233 529 
Q 2819 -91 2034 -91 
Q 1250 -91 836 529 
Q 422 1150 422 2328 
Q 422 3509 836 4129 
Q 1250 4750 2034 4750 
z
" transform="scale(0.015625)"/>
       </defs>
       <use xlink:href="#DejaVuSans-30"/>
      </g>
     </g>
    </g>
    <g id="xtick_2">
     <g id="line2d_3">
      <path d="M 132.970544 307.584 
L 132.970544 41.472 
" clip-path="url(#p9ce95a12e4)" style="fill: none; stroke: #ffffff; stroke-width: 0.8; stroke-linecap: square"/>
     </g>
     <g id="line2d_4">
      <g>
       <use xlink:href="#m29718475ea" x="132.970544" y="307.584" style="fill: #555555; stroke: #555555; stroke-width: 0.8"/>
      </g>
     </g>
     <g id="text_2">
      <!-- 50 -->
      <g style="fill: #555555" transform="translate(126.608044 322.182437) scale(0.1 -0.1)">
       <defs>
        <path id="DejaVuSans-35" d="M 691 4666 
L 3169 4666 
L 3169 4134 
L 1269 4134 
L 1269 2991 
Q 1406 3038 1543 3061 
Q 1681 3084 1819 3084 
Q 2600 3084 3056 2656 
Q 3513 2228 3513 1497 
Q 3513 744 3044 326 
Q 2575 -91 1722 -91 
Q 1428 -91 1123 -41 
Q 819 9 494 109 
L 494 744 
Q 775 591 1075 516 
Q 1375 441 1709 441 
Q 2250 441 2565 725 
Q 2881 1009 2881 1497 
Q 2881 1984 2565 2268 
Q 2250 2553 1709 2553 
Q 1456 2553 1204 2497 
Q 953 2441 691 2322 
L 691 4666 
z
" transform="scale(0.015625)"/>
       </defs>
       <use xlink:href="#DejaVuSans-35"/>
       <use xlink:href="#DejaVuSans-30" x="63.623047"/>
      </g>
     </g>
    </g>
    <g id="xtick_3">
     <g id="line2d_5">
      <path d="M 193.315255 307.584 
L 193.315255 41.472 
" clip-path="url(#p9ce95a12e4)" style="fill: none; stroke: #ffffff; stroke-width: 0.8; stroke-linecap: square"/>
     </g>
     <g id="line2d_6">
      <g>
       <use xlink:href="#m29718475ea" x="193.315255" y="307.584" style="fill: #555555; stroke: #555555; stroke-width: 0.8"/>
      </g>
     </g>
     <g id="text_3">
      <!-- 100 -->
      <g style="fill: #555555" transform="translate(183.771505 322.182437) scale(0.1 -0.1)">
       <defs>
        <path id="DejaVuSans-31" d="M 794 531 
L 1825 531 
L 1825 4091 
L 703 3866 
L 703 4441 
L 1819 4666 
L 2450 4666 
L 2450 531 
L 3481 531 
L 3481 0 
L 794 0 
L 794 531 
z
" transform="scale(0.015625)"/>
       </defs>
       <use xlink:href="#DejaVuSans-31"/>
       <use xlink:href="#DejaVuSans-30" x="63.623047"/>
       <use xlink:href="#DejaVuSans-30" x="127.246094"/>
      </g>
     </g>
    </g>
    <g id="xtick_4">
     <g id="line2d_7">
      <path d="M 253.659966 307.584 
L 253.659966 41.472 
" clip-path="url(#p9ce95a12e4)" style="fill: none; stroke: #ffffff; stroke-width: 0.8; stroke-linecap: square"/>
     </g>
     <g id="line2d_8">
      <g>
       <use xlink:href="#m29718475ea" x="253.659966" y="307.584" style="fill: #555555; stroke: #555555; stroke-width: 0.8"/>
      </g>
     </g>
     <g id="text_4">
      <!-- 150 -->
      <g style="fill: #555555" transform="translate(244.116216 322.182437) scale(0.1 -0.1)">
       <use xlink:href="#DejaVuSans-31"/>
       <use xlink:href="#DejaVuSans-35" x="63.623047"/>
       <use xlink:href="#DejaVuSans-30" x="127.246094"/>
      </g>
     </g>
    </g>
    <g id="xtick_5">
     <g id="line2d_9">
      <path d="M 314.004677 307.584 
L 314.004677 41.472 
" clip-path="url(#p9ce95a12e4)" style="fill: none; stroke: #ffffff; stroke-width: 0.8; stroke-linecap: square"/>
     </g>
     <g id="line2d_10">
      <g>
       <use xlink:href="#m29718475ea" x="314.004677" y="307.584" style="fill: #555555; stroke: #555555; stroke-width: 0.8"/>
      </g>
     </g>
     <g id="text_5">
      <!-- 200 -->
      <g style="fill: #555555" transform="translate(304.460927 322.182437) scale(0.1 -0.1)">
       <defs>
        <path id="DejaVuSans-32" d="M 1228 531 
L 3431 531 
L 3431 0 
L 469 0 
L 469 531 
Q 828 903 1448 1529 
Q 2069 2156 2228 2338 
Q 2531 2678 2651 2914 
Q 2772 3150 2772 3378 
Q 2772 3750 2511 3984 
Q 2250 4219 1831 4219 
Q 1534 4219 1204 4116 
Q 875 4013 500 3803 
L 500 4441 
Q 881 4594 1212 4672 
Q 1544 4750 1819 4750 
Q 2544 4750 2975 4387 
Q 3406 4025 3406 3419 
Q 3406 3131 3298 2873 
Q 3191 2616 2906 2266 
Q 2828 2175 2409 1742 
Q 1991 1309 1228 531 
z
" transform="scale(0.015625)"/>
       </defs>
       <use xlink:href="#DejaVuSans-32"/>
       <use xlink:href="#DejaVuSans-30" x="63.623047"/>
       <use xlink:href="#DejaVuSans-30" x="127.246094"/>
      </g>
     </g>
    </g>
    <g id="xtick_6">
     <g id="line2d_11">
      <path d="M 374.349388 307.584 
L 374.349388 41.472 
" clip-path="url(#p9ce95a12e4)" style="fill: none; stroke: #ffffff; stroke-width: 0.8; stroke-linecap: square"/>
     </g>
     <g id="line2d_12">
      <g>
       <use xlink:href="#m29718475ea" x="374.349388" y="307.584" style="fill: #555555; stroke: #555555; stroke-width: 0.8"/>
      </g>
     </g>
     <g id="text_6">
      <!-- 250 -->
      <g style="fill: #555555" transform="translate(364.805638 322.182437) scale(0.1 -0.1)">
       <use xlink:href="#DejaVuSans-32"/>
       <use xlink:href="#DejaVuSans-35" x="63.623047"/>
       <use xlink:href="#DejaVuSans-30" x="127.246094"/>
      </g>
     </g>
    </g>
    <g id="text_7">
     <!-- Epoch -->
     <g style="fill: #555555" transform="translate(217.786875 337.38025) scale(0.12 -0.12)">
      <defs>
       <path id="DejaVuSans-45" d="M 628 4666 
L 3578 4666 
L 3578 4134 
L 1259 4134 
L 1259 2753 
L 3481 2753 
L 3481 2222 
L 1259 2222 
L 1259 531 
L 3634 531 
L 3634 0 
L 628 0 
L 628 4666 
z
" transform="scale(0.015625)"/>
       <path id="DejaVuSans-70" d="M 1159 525 
L 1159 -1331 
L 581 -1331 
L 581 3500 
L 1159 3500 
L 1159 2969 
Q 1341 3281 1617 3432 
Q 1894 3584 2278 3584 
Q 2916 3584 3314 3078 
Q 3713 2572 3713 1747 
Q 3713 922 3314 415 
Q 2916 -91 2278 -91 
Q 1894 -91 1617 61 
Q 1341 213 1159 525 
z
M 3116 1747 
Q 3116 2381 2855 2742 
Q 2594 3103 2138 3103 
Q 1681 3103 1420 2742 
Q 1159 2381 1159 1747 
Q 1159 1113 1420 752 
Q 1681 391 2138 391 
Q 2594 391 2855 752 
Q 3116 1113 3116 1747 
z
" transform="scale(0.015625)"/>
       <path id="DejaVuSans-6f" d="M 1959 3097 
Q 1497 3097 1228 2736 
Q 959 2375 959 1747 
Q 959 1119 1226 758 
Q 1494 397 1959 397 
Q 2419 397 2687 759 
Q 2956 1122 2956 1747 
Q 2956 2369 2687 2733 
Q 2419 3097 1959 3097 
z
M 1959 3584 
Q 2709 3584 3137 3096 
Q 3566 2609 3566 1747 
Q 3566 888 3137 398 
Q 2709 -91 1959 -91 
Q 1206 -91 779 398 
Q 353 888 353 1747 
Q 353 2609 779 3096 
Q 1206 3584 1959 3584 
z
" transform="scale(0.015625)"/>
       <path id="DejaVuSans-63" d="M 3122 3366 
L 3122 2828 
Q 2878 2963 2633 3030 
Q 2388 3097 2138 3097 
Q 1578 3097 1268 2742 
Q 959 2388 959 1747 
Q 959 1106 1268 751 
Q 1578 397 2138 397 
Q 2388 397 2633 464 
Q 2878 531 3122 666 
L 3122 134 
Q 2881 22 2623 -34 
Q 2366 -91 2075 -91 
Q 1284 -91 818 406 
Q 353 903 353 1747 
Q 353 2603 823 3093 
Q 1294 3584 2113 3584 
Q 2378 3584 2631 3529 
Q 2884 3475 3122 3366 
z
" transform="scale(0.015625)"/>
       <path id="DejaVuSans-68" d="M 3513 2113 
L 3513 0 
L 2938 0 
L 2938 2094 
Q 2938 2591 2744 2837 
Q 2550 3084 2163 3084 
Q 1697 3084 1428 2787 
Q 1159 2491 1159 1978 
L 1159 0 
L 581 0 
L 581 4863 
L 1159 4863 
L 1159 2956 
Q 1366 3272 1645 3428 
Q 1925 3584 2291 3584 
Q 2894 3584 3203 3211 
Q 3513 2838 3513 2113 
z
" transform="scale(0.015625)"/>
      </defs>
      <use xlink:href="#DejaVuSans-45"/>
      <use xlink:href="#DejaVuSans-70" x="63.183594"/>
      <use xlink:href="#DejaVuSans-6f" x="126.660156"/>
      <use xlink:href="#DejaVuSans-63" x="187.841797"/>
      <use xlink:href="#DejaVuSans-68" x="242.822266"/>
     </g>
    </g>
   </g>
   <g id="matplotlib.axis_2">
    <g id="ytick_1">
     <g id="line2d_13">
      <path d="M 57.6 303.743325 
L 414.72 303.743325 
" clip-path="url(#p9ce95a12e4)" style="fill: none; stroke: #ffffff; stroke-width: 0.8; stroke-linecap: square"/>
     </g>
     <g id="line2d_14">
      <defs>
       <path id="m4ef41410ce" d="M 0 0 
L -3.5 0 
" style="stroke: #555555; stroke-width: 0.8"/>
      </defs>
      <g>
       <use xlink:href="#m4ef41410ce" x="57.6" y="303.743325" style="fill: #555555; stroke: #555555; stroke-width: 0.8"/>
      </g>
     </g>
     <g id="text_8">
      <!-- 0.0 -->
      <g style="fill: #555555" transform="translate(34.696875 307.542544) scale(0.1 -0.1)">
       <defs>
        <path id="DejaVuSans-2e" d="M 684 794 
L 1344 794 
L 1344 0 
L 684 0 
L 684 794 
z
" transform="scale(0.015625)"/>
       </defs>
       <use xlink:href="#DejaVuSans-30"/>
       <use xlink:href="#DejaVuSans-2e" x="63.623047"/>
       <use xlink:href="#DejaVuSans-30" x="95.410156"/>
      </g>
     </g>
    </g>
    <g id="ytick_2">
     <g id="line2d_15">
      <path d="M 57.6 261.609468 
L 414.72 261.609468 
" clip-path="url(#p9ce95a12e4)" style="fill: none; stroke: #ffffff; stroke-width: 0.8; stroke-linecap: square"/>
     </g>
     <g id="line2d_16">
      <g>
       <use xlink:href="#m4ef41410ce" x="57.6" y="261.609468" style="fill: #555555; stroke: #555555; stroke-width: 0.8"/>
      </g>
     </g>
     <g id="text_9">
      <!-- 0.5 -->
      <g style="fill: #555555" transform="translate(34.696875 265.408686) scale(0.1 -0.1)">
       <use xlink:href="#DejaVuSans-30"/>
       <use xlink:href="#DejaVuSans-2e" x="63.623047"/>
       <use xlink:href="#DejaVuSans-35" x="95.410156"/>
      </g>
     </g>
    </g>
    <g id="ytick_3">
     <g id="line2d_17">
      <path d="M 57.6 219.47561 
L 414.72 219.47561 
" clip-path="url(#p9ce95a12e4)" style="fill: none; stroke: #ffffff; stroke-width: 0.8; stroke-linecap: square"/>
     </g>
     <g id="line2d_18">
      <g>
       <use xlink:href="#m4ef41410ce" x="57.6" y="219.47561" style="fill: #555555; stroke: #555555; stroke-width: 0.8"/>
      </g>
     </g>
     <g id="text_10">
      <!-- 1.0 -->
      <g style="fill: #555555" transform="translate(34.696875 223.274829) scale(0.1 -0.1)">
       <use xlink:href="#DejaVuSans-31"/>
       <use xlink:href="#DejaVuSans-2e" x="63.623047"/>
       <use xlink:href="#DejaVuSans-30" x="95.410156"/>
      </g>
     </g>
    </g>
    <g id="ytick_4">
     <g id="line2d_19">
      <path d="M 57.6 177.341752 
L 414.72 177.341752 
" clip-path="url(#p9ce95a12e4)" style="fill: none; stroke: #ffffff; stroke-width: 0.8; stroke-linecap: square"/>
     </g>
     <g id="line2d_20">
      <g>
       <use xlink:href="#m4ef41410ce" x="57.6" y="177.341752" style="fill: #555555; stroke: #555555; stroke-width: 0.8"/>
      </g>
     </g>
     <g id="text_11">
      <!-- 1.5 -->
      <g style="fill: #555555" transform="translate(34.696875 181.140971) scale(0.1 -0.1)">
       <use xlink:href="#DejaVuSans-31"/>
       <use xlink:href="#DejaVuSans-2e" x="63.623047"/>
       <use xlink:href="#DejaVuSans-35" x="95.410156"/>
      </g>
     </g>
    </g>
    <g id="ytick_5">
     <g id="line2d_21">
      <path d="M 57.6 135.207894 
L 414.72 135.207894 
" clip-path="url(#p9ce95a12e4)" style="fill: none; stroke: #ffffff; stroke-width: 0.8; stroke-linecap: square"/>
     </g>
     <g id="line2d_22">
      <g>
       <use xlink:href="#m4ef41410ce" x="57.6" y="135.207894" style="fill: #555555; stroke: #555555; stroke-width: 0.8"/>
      </g>
     </g>
     <g id="text_12">
      <!-- 2.0 -->
      <g style="fill: #555555" transform="translate(34.696875 139.007113) scale(0.1 -0.1)">
       <use xlink:href="#DejaVuSans-32"/>
       <use xlink:href="#DejaVuSans-2e" x="63.623047"/>
       <use xlink:href="#DejaVuSans-30" x="95.410156"/>
      </g>
     </g>
    </g>
    <g id="ytick_6">
     <g id="line2d_23">
      <path d="M 57.6 93.074037 
L 414.72 93.074037 
" clip-path="url(#p9ce95a12e4)" style="fill: none; stroke: #ffffff; stroke-width: 0.8; stroke-linecap: square"/>
     </g>
     <g id="line2d_24">
      <g>
       <use xlink:href="#m4ef41410ce" x="57.6" y="93.074037" style="fill: #555555; stroke: #555555; stroke-width: 0.8"/>
      </g>
     </g>
     <g id="text_13">
      <!-- 2.5 -->
      <g style="fill: #555555" transform="translate(34.696875 96.873255) scale(0.1 -0.1)">
       <use xlink:href="#DejaVuSans-32"/>
       <use xlink:href="#DejaVuSans-2e" x="63.623047"/>
       <use xlink:href="#DejaVuSans-35" x="95.410156"/>
      </g>
     </g>
    </g>
    <g id="ytick_7">
     <g id="line2d_25">
      <path d="M 57.6 50.940179 
L 414.72 50.940179 
" clip-path="url(#p9ce95a12e4)" style="fill: none; stroke: #ffffff; stroke-width: 0.8; stroke-linecap: square"/>
     </g>
     <g id="line2d_26">
      <g>
       <use xlink:href="#m4ef41410ce" x="57.6" y="50.940179" style="fill: #555555; stroke: #555555; stroke-width: 0.8"/>
      </g>
     </g>
     <g id="text_14">
      <!-- 3.0 -->
      <g style="fill: #555555" transform="translate(34.696875 54.739398) scale(0.1 -0.1)">
       <defs>
        <path id="DejaVuSans-33" d="M 2597 2516 
Q 3050 2419 3304 2112 
Q 3559 1806 3559 1356 
Q 3559 666 3084 287 
Q 2609 -91 1734 -91 
Q 1441 -91 1130 -33 
Q 819 25 488 141 
L 488 750 
Q 750 597 1062 519 
Q 1375 441 1716 441 
Q 2309 441 2620 675 
Q 2931 909 2931 1356 
Q 2931 1769 2642 2001 
Q 2353 2234 1838 2234 
L 1294 2234 
L 1294 2753 
L 1863 2753 
Q 2328 2753 2575 2939 
Q 2822 3125 2822 3475 
Q 2822 3834 2567 4026 
Q 2313 4219 1838 4219 
Q 1578 4219 1281 4162 
Q 984 4106 628 3988 
L 628 4550 
Q 988 4650 1302 4700 
Q 1616 4750 1894 4750 
Q 2613 4750 3031 4423 
Q 3450 4097 3450 3541 
Q 3450 3153 3228 2886 
Q 3006 2619 2597 2516 
z
" transform="scale(0.015625)"/>
       </defs>
       <use xlink:href="#DejaVuSans-33"/>
       <use xlink:href="#DejaVuSans-2e" x="63.623047"/>
       <use xlink:href="#DejaVuSans-30" x="95.410156"/>
      </g>
     </g>
    </g>
    <g id="text_15">
     <!-- Loss -->
     <g style="fill: #555555" transform="translate(28.20125 187.688625) rotate(-90) scale(0.12 -0.12)">
      <defs>
       <path id="DejaVuSans-4c" d="M 628 4666 
L 1259 4666 
L 1259 531 
L 3531 531 
L 3531 0 
L 628 0 
L 628 4666 
z
" transform="scale(0.015625)"/>
       <path id="DejaVuSans-73" d="M 2834 3397 
L 2834 2853 
Q 2591 2978 2328 3040 
Q 2066 3103 1784 3103 
Q 1356 3103 1142 2972 
Q 928 2841 928 2578 
Q 928 2378 1081 2264 
Q 1234 2150 1697 2047 
L 1894 2003 
Q 2506 1872 2764 1633 
Q 3022 1394 3022 966 
Q 3022 478 2636 193 
Q 2250 -91 1575 -91 
Q 1294 -91 989 -36 
Q 684 19 347 128 
L 347 722 
Q 666 556 975 473 
Q 1284 391 1588 391 
Q 1994 391 2212 530 
Q 2431 669 2431 922 
Q 2431 1156 2273 1281 
Q 2116 1406 1581 1522 
L 1381 1569 
Q 847 1681 609 1914 
Q 372 2147 372 2553 
Q 372 3047 722 3315 
Q 1072 3584 1716 3584 
Q 2034 3584 2315 3537 
Q 2597 3491 2834 3397 
z
" transform="scale(0.015625)"/>
      </defs>
      <use xlink:href="#DejaVuSans-4c"/>
      <use xlink:href="#DejaVuSans-6f" x="53.962891"/>
      <use xlink:href="#DejaVuSans-73" x="115.144531"/>
      <use xlink:href="#DejaVuSans-73" x="167.244141"/>
     </g>
    </g>
   </g>
   <g id="line2d_27">
    <path d="M 73.832727 243.309128 
L 75.039621 240.347164 
L 76.246516 236.323044 
L 77.45341 231.287384 
L 78.660304 225.318426 
L 79.867198 218.329961 
L 81.074093 210.401525 
L 82.280987 201.402269 
L 84.694775 180.859644 
L 89.522352 137.08383 
L 93.143035 107.31027 
L 94.349929 98.469472 
L 96.763717 83.061431 
L 99.177506 71.357446 
L 101.591294 62.318088 
L 102.798189 59.372347 
L 104.005083 56.840219 
L 105.211977 55.14229 
L 106.418871 54.137881 
L 107.625765 53.586745 
L 108.83266 53.568 
L 110.039554 53.921983 
L 111.246448 54.513402 
L 112.453342 55.387802 
L 113.660237 56.595712 
L 114.867131 57.479675 
L 116.074025 59.015109 
L 117.280919 60.002179 
L 120.901602 64.014892 
L 123.31539 67.165963 
L 125.729179 71.108358 
L 128.142967 76.104745 
L 129.349861 78.912763 
L 132.970544 89.262053 
L 136.591227 101.473597 
L 140.211909 112.995618 
L 141.418804 116.168187 
L 142.625698 118.515357 
L 143.832592 120.456327 
L 145.039486 121.919433 
L 146.246381 122.074837 
L 147.453275 121.797883 
L 148.660169 121.19459 
L 151.073957 116.92184 
L 152.280852 114.159268 
L 153.487746 111.786221 
L 154.69464 108.586832 
L 157.108429 103.97597 
L 158.315323 102.484556 
L 159.522217 101.810643 
L 160.729111 101.510444 
L 161.936005 101.965826 
L 163.1429 103.520125 
L 164.349794 105.862735 
L 165.556688 109.401401 
L 166.763582 113.329812 
L 167.970477 118.620191 
L 169.177371 124.894225 
L 171.591159 140.849545 
L 176.418736 169.844096 
L 177.62563 172.949922 
L 178.832525 172.32235 
L 181.246313 165.922828 
L 182.453207 163.646509 
L 183.660101 162.389888 
L 184.866996 155.96282 
L 186.07389 150.513983 
L 187.280784 146.148603 
L 188.487678 143.757424 
L 189.694572 142.491109 
L 190.901467 142.369207 
L 192.108361 142.824991 
L 193.315255 143.429609 
L 194.522149 144.989604 
L 198.142832 147.014043 
L 199.349726 146.955076 
L 200.55662 146.541432 
L 201.763515 145.96911 
L 202.970409 145.099402 
L 205.384197 142.265397 
L 207.797986 138.449686 
L 210.211774 135.419463 
L 211.418668 133.54209 
L 212.625563 132.14866 
L 213.832457 131.02031 
L 216.246245 128.34417 
L 219.866928 126.36575 
L 222.280716 126.113487 
L 223.487611 125.694148 
L 224.694505 125.542079 
L 225.901399 125.929032 
L 227.108293 125.401483 
L 228.315188 124.341984 
L 229.522082 124.915281 
L 230.728976 123.965238 
L 231.93587 124.301883 
L 233.142764 123.520223 
L 234.349659 122.354885 
L 235.556553 122.166874 
L 236.763447 121.485528 
L 237.970341 120.55421 
L 239.177236 119.992406 
L 240.38413 120.040845 
L 242.797918 118.849811 
L 244.004812 116.929957 
L 245.211707 117.188286 
L 246.418601 116.907897 
L 247.625495 117.182259 
L 248.832389 116.282926 
L 251.246178 115.346184 
L 252.453072 114.164794 
L 253.659966 114.476525 
L 254.86686 113.566102 
L 256.073755 114.18163 
L 257.280649 113.963984 
L 258.487543 112.907238 
L 259.694437 113.593526 
L 260.901332 113.010205 
L 262.108226 111.666921 
L 263.31512 112.181833 
L 264.522014 112.24962 
L 265.728908 110.92044 
L 266.935803 110.773595 
L 268.142697 111.654666 
L 270.556485 108.549483 
L 271.76338 108.673806 
L 272.970274 109.362645 
L 274.177168 106.769923 
L 275.384062 108.886529 
L 276.590956 107.616899 
L 279.004745 107.130597 
L 280.211639 107.075186 
L 281.418533 107.169453 
L 282.625428 106.476314 
L 283.832322 106.370756 
L 285.039216 105.920778 
L 286.24611 104.114879 
L 287.453004 105.023494 
L 288.659899 104.918097 
L 289.866793 103.526936 
L 291.073687 104.923139 
L 292.280581 103.010558 
L 293.487475 102.318584 
L 294.69437 103.277446 
L 295.901264 104.07759 
L 297.108158 102.870262 
L 298.315052 102.252525 
L 299.521947 102.955307 
L 300.728841 101.962993 
L 301.935735 100.187653 
L 303.142629 100.86918 
L 304.349523 100.47851 
L 305.556418 100.94422 
L 306.763312 100.32383 
L 307.970206 99.088535 
L 309.1771 99.37437 
L 310.383995 99.451901 
L 311.590889 100.175759 
L 312.797783 98.895582 
L 314.004677 98.209052 
L 315.211571 98.619612 
L 316.418466 96.967992 
L 317.62536 98.892548 
L 318.832254 97.709912 
L 320.039148 97.471753 
L 321.246043 96.469313 
L 323.659831 95.841631 
L 324.866725 97.473401 
L 326.073619 95.697759 
L 328.487408 95.869617 
L 329.694302 93.9801 
L 330.901196 94.32681 
L 332.108091 93.888385 
L 333.314985 94.788843 
L 334.521879 93.151487 
L 335.728773 94.384512 
L 336.935667 93.226226 
L 338.142562 93.125148 
L 339.349456 94.240238 
L 340.55635 92.101432 
L 341.763244 93.290979 
L 342.970139 92.116339 
L 344.177033 91.404094 
L 345.383927 91.519818 
L 346.590821 91.513951 
L 347.797715 91.660435 
L 349.00461 90.466508 
L 350.211504 92.10316 
L 351.418398 90.058058 
L 352.625292 90.542371 
L 353.832187 90.066094 
L 355.039081 89.969316 
L 356.245975 88.55706 
L 357.452869 88.377627 
L 359.866658 88.475029 
L 361.073552 88.287499 
L 362.280446 88.500243 
L 363.48734 88.211254 
L 364.694235 87.189185 
L 365.901129 87.920176 
L 367.108023 86.270545 
L 368.314917 87.329762 
L 369.521811 86.453192 
L 370.728706 86.040463 
L 371.9356 86.873295 
L 373.142494 84.51632 
L 374.349388 86.126312 
L 375.556283 85.216873 
L 376.763177 85.172733 
L 377.970071 84.428543 
L 379.176965 84.490825 
L 380.383859 83.877628 
L 381.590754 84.264239 
L 382.797648 83.051587 
L 384.004542 83.484005 
L 385.211436 83.108645 
L 386.418331 83.109429 
L 387.625225 82.064737 
L 388.832119 81.532145 
L 390.039013 82.519678 
L 391.245907 81.657071 
L 392.452802 81.047691 
L 393.659696 82.509672 
L 394.86659 79.951266 
L 396.073484 80.458101 
L 397.280379 81.505947 
L 398.487273 80.064117 
L 398.487273 80.064117 
" clip-path="url(#p9ce95a12e4)" style="fill: none; stroke: #6495ed; stroke-width: 2; stroke-linecap: square"/>
   </g>
   <g id="line2d_28">
    <path d="M 73.832727 245.348797 
L 75.039621 246.107935 
L 76.246516 247.394443 
L 78.660304 250.87497 
L 85.901669 262.353886 
L 88.315458 265.376872 
L 89.522352 266.668902 
L 93.143035 269.831437 
L 94.349929 270.602553 
L 95.556823 271.561656 
L 96.763717 272.303025 
L 97.970612 272.894526 
L 99.177506 273.725277 
L 104.005083 276.142362 
L 105.211977 276.614651 
L 106.418871 277.248247 
L 113.660237 280.054741 
L 120.901602 282.454355 
L 126.936073 284.071642 
L 129.349861 284.562139 
L 131.76365 284.973484 
L 135.384333 285.285628 
L 141.418804 285.196124 
L 148.660169 285.15674 
L 149.867063 285.422568 
L 152.280852 285.550595 
L 153.487746 285.894282 
L 154.69464 285.912647 
L 155.901534 285.738531 
L 157.108429 286.221088 
L 158.315323 286.035381 
L 159.522217 285.576226 
L 160.729111 286.171388 
L 161.936005 285.872208 
L 163.1429 285.152988 
L 164.349794 285.870199 
L 165.556688 285.384621 
L 166.763582 284.379312 
L 167.970477 285.002379 
L 169.177371 284.138855 
L 170.384265 282.316852 
L 171.591159 282.444694 
L 172.798053 280.820583 
L 174.004948 278.102433 
L 175.211842 277.547557 
L 176.418736 274.630081 
L 177.62563 271.177455 
L 178.832525 272.354685 
L 180.039419 271.727818 
L 181.246313 269.878348 
L 182.453207 272.592912 
L 184.866996 271.444059 
L 186.07389 275.045551 
L 187.280784 275.700138 
L 188.487678 275.927867 
L 189.694572 278.599513 
L 192.108361 280.336535 
L 193.315255 281.760268 
L 196.935938 283.509282 
L 198.142832 283.831217 
L 199.349726 284.286139 
L 201.763515 284.756811 
L 202.970409 285.154058 
L 204.177303 285.235225 
L 205.384197 285.504716 
L 206.591092 285.935603 
L 207.797986 285.958248 
L 209.00488 286.191325 
L 210.211774 286.572314 
L 211.418668 286.481024 
L 212.625563 286.717172 
L 213.832457 287.080986 
L 215.039351 286.920396 
L 217.45314 287.552553 
L 218.660034 287.339097 
L 221.073822 287.94624 
L 222.280716 287.715385 
L 223.487611 287.951087 
L 224.694505 288.302446 
L 225.901399 288.021012 
L 227.108293 288.256039 
L 228.315188 288.675163 
L 229.522082 288.367204 
L 231.93587 288.879347 
L 233.142764 288.665324 
L 235.556553 289.201198 
L 236.763447 288.965241 
L 239.177236 289.500781 
L 240.38413 289.193382 
L 241.591024 289.373852 
L 242.797918 289.700354 
L 244.004812 289.537491 
L 245.211707 289.6467 
L 246.418601 289.971968 
L 247.625495 289.631093 
L 248.832389 289.848584 
L 250.039284 290.20079 
L 251.246178 289.887724 
L 253.659966 290.431873 
L 254.86686 290.186589 
L 256.073755 290.284998 
L 257.280649 290.621012 
L 258.487543 290.37421 
L 259.694437 290.468468 
L 260.901332 290.805055 
L 262.108226 290.590694 
L 263.31512 290.687071 
L 264.522014 290.983974 
L 265.728908 290.74666 
L 268.142697 291.110582 
L 269.349591 290.883043 
L 271.76338 291.43702 
L 272.970274 291.026703 
L 274.177168 291.342818 
L 275.384062 291.510845 
L 276.590956 291.257965 
L 277.797851 291.402176 
L 279.004745 291.744912 
L 280.211639 291.404029 
L 281.418533 291.521105 
L 282.625428 291.88515 
L 283.832322 291.526825 
L 285.039216 291.700424 
L 286.24611 292.128677 
L 287.453004 291.71803 
L 288.659899 291.842427 
L 289.866793 292.265965 
L 291.073687 291.798131 
L 292.280581 292.056793 
L 293.487475 292.433505 
L 294.69437 292.013413 
L 295.901264 292.072067 
L 297.108158 292.484016 
L 298.315052 292.162812 
L 299.521947 292.216636 
L 300.728841 292.606371 
L 301.935735 292.349845 
L 303.142629 292.418675 
L 304.349523 292.7834 
L 305.556418 292.365906 
L 306.763312 292.529102 
L 307.970206 292.952859 
L 309.1771 292.55569 
L 310.383995 292.677592 
L 311.590889 292.952901 
L 312.797783 292.653281 
L 314.004677 292.828309 
L 315.211571 293.128537 
L 316.418466 292.832559 
L 317.62536 292.854688 
L 318.832254 293.252435 
L 320.039148 292.874229 
L 321.246043 293.05594 
L 322.452937 293.41669 
L 323.659831 293.047299 
L 324.866725 293.060348 
L 326.073619 293.511279 
L 327.280514 293.102944 
L 328.487408 293.225841 
L 329.694302 293.676359 
L 330.901196 293.262792 
L 332.108091 293.422855 
L 333.314985 293.705324 
L 334.521879 293.409931 
L 335.728773 293.459938 
L 336.935667 293.864791 
L 338.142562 293.468394 
L 339.349456 293.523408 
L 340.55635 293.987688 
L 341.763244 293.519323 
L 342.970139 293.702415 
L 344.177033 294.087903 
L 345.383927 293.677711 
L 346.590821 293.783187 
L 347.797715 294.125039 
L 349.00461 293.799009 
L 350.211504 293.807712 
L 351.418398 294.271184 
L 352.625292 293.844827 
L 353.832187 293.986382 
L 355.039081 294.332507 
L 356.245975 294.02256 
L 357.452869 294.12813 
L 358.659763 294.497014 
L 359.866658 294.092834 
L 361.073552 294.219252 
L 362.280446 294.557007 
L 363.48734 294.172761 
L 364.694235 294.333255 
L 365.901129 294.628951 
L 367.108023 294.31546 
L 368.314917 294.364906 
L 369.521811 294.752731 
L 370.728706 294.371532 
L 371.9356 294.430982 
L 373.142494 294.915605 
L 374.349388 294.413648 
L 375.556283 294.568796 
L 376.763177 294.917783 
L 377.970071 294.558552 
L 379.176965 294.653602 
L 380.383859 295.055359 
L 381.590754 294.630947 
L 382.797648 294.782433 
L 384.004542 295.116662 
L 385.211436 294.740232 
L 386.418331 294.830041 
L 387.625225 295.24042 
L 388.832119 294.874057 
L 390.039013 294.910159 
L 391.245907 295.310017 
L 392.452802 294.956316 
L 393.659696 294.957136 
L 394.86659 295.4352 
L 396.073484 295.024442 
L 397.280379 295.048473 
L 398.487273 295.488 
L 398.487273 295.488 
" clip-path="url(#p9ce95a12e4)" style="fill: none; stroke: #dc143c; stroke-width: 2; stroke-linecap: square"/>
   </g>
   <g id="line2d_29">
    <path d="M 73.832727 253.938429 
L 76.246516 253.938429 
L 77.45341 249.919168 
L 79.867198 249.919168 
L 81.074093 249.231988 
L 83.487881 249.231988 
L 84.694775 248.969969 
L 87.108564 248.969969 
L 88.315458 248.681585 
L 90.729246 248.681585 
L 91.936141 248.480539 
L 94.349929 248.480539 
L 95.556823 248.269606 
L 101.591294 248.16414 
L 102.798189 247.975454 
L 105.211977 247.975454 
L 106.418871 247.62692 
L 108.83266 247.62692 
L 110.039554 247.406099 
L 112.453342 247.406099 
L 113.660237 246.880415 
L 116.074025 246.880415 
L 117.280919 246.01526 
L 119.694708 246.01526 
L 120.901602 245.230029 
L 123.31539 245.230029 
L 124.522285 244.690338 
L 126.936073 244.690338 
L 128.142967 244.265176 
L 130.556756 244.265176 
L 131.76365 244.134991 
L 134.177438 244.134991 
L 135.384333 244.27012 
L 137.798121 244.27012 
L 139.005015 244.616181 
L 141.418804 244.616181 
L 142.625698 245.389053 
L 145.039486 245.389053 
L 146.246381 246.422295 
L 148.660169 246.422295 
L 149.867063 246.89195 
L 152.280852 246.89195 
L 153.487746 247.05015 
L 155.901534 247.05015 
L 157.108429 247.371493 
L 159.522217 247.371493 
L 160.729111 247.654934 
L 163.1429 247.654934 
L 164.349794 248.030659 
L 166.763582 248.030659 
L 167.970477 248.404735 
L 170.384265 248.404735 
L 171.591159 249.139705 
L 174.004948 249.139705 
L 175.211842 250.423429 
L 177.62563 250.423429 
L 178.832525 250.929339 
L 181.246313 250.929339 
L 182.453207 249.962014 
L 184.866996 249.962014 
L 186.07389 247.783472 
L 188.487678 247.783472 
L 189.694572 246.143797 
L 192.108361 246.143797 
L 193.315255 242.956732 
L 195.729044 242.956732 
L 196.935938 241.73398 
L 199.349726 241.73398 
L 200.55662 240.946278 
L 202.970409 240.946278 
L 204.177303 240.689203 
L 206.591092 240.689203 
L 207.797986 240.400818 
L 221.073822 240.356325 
L 222.280716 240.219548 
L 224.694505 240.219548 
L 225.901399 240.044869 
L 228.315188 240.044869 
L 229.522082 239.913036 
L 231.93587 239.913036 
L 233.142764 239.741653 
L 235.556553 239.741653 
L 236.763447 239.573566 
L 239.177236 239.573566 
L 240.38413 239.449972 
L 242.797918 239.449972 
L 244.004812 239.296716 
L 246.418601 239.296716 
L 247.625495 239.113798 
L 250.039284 239.113798 
L 251.246178 238.970429 
L 253.659966 238.970429 
L 254.86686 238.774327 
L 257.280649 238.774327 
L 258.487543 238.60624 
L 260.901332 238.60624 
L 262.108226 238.449688 
L 264.522014 238.449688 
L 265.728908 238.289841 
L 268.142697 238.289841 
L 269.349591 238.120106 
L 271.76338 238.120106 
L 272.970274 237.909173 
L 275.384062 237.909173 
L 276.590956 237.709775 
L 279.004745 237.709775 
L 280.211639 237.530153 
L 282.625428 237.530153 
L 283.832322 237.340642 
L 286.24611 237.340642 
L 287.453004 237.136301 
L 293.487475 237.037426 
L 294.69437 236.899002 
L 297.108158 236.899002 
L 298.315052 236.714435 
L 300.728841 236.714435 
L 301.935735 236.595785 
L 304.349523 236.595785 
L 305.556418 236.457361 
L 307.970206 236.457361 
L 309.1771 236.304105 
L 311.590889 236.304105 
L 312.797783 236.142609 
L 315.211571 236.142609 
L 316.418466 235.964635 
L 318.832254 235.964635 
L 320.039148 235.799843 
L 322.452937 235.799843 
L 323.659831 235.658123 
L 326.073619 235.658123 
L 327.280514 235.450485 
L 329.694302 235.450485 
L 330.901196 235.262623 
L 333.314985 235.262623 
L 334.521879 235.087944 
L 336.935667 235.087944 
L 338.142562 234.881955 
L 340.55635 234.881955 
L 341.763244 234.736939 
L 344.177033 234.736939 
L 345.383927 234.598514 
L 347.797715 234.598514 
L 349.00461 234.453498 
L 351.418398 234.453498 
L 352.625292 234.282115 
L 358.659763 234.171704 
L 361.073552 234.077773 
L 362.280446 234.077773 
L 363.48734 233.926165 
L 365.901129 233.926165 
L 367.108023 233.789388 
L 373.142494 233.71688 
L 375.556283 233.639428 
L 380.383859 233.553737 
L 382.797648 233.453214 
L 387.625225 233.367522 
L 390.039013 233.285127 
L 394.86659 233.199435 
L 397.280379 233.10056 
L 398.487273 233.10056 
L 398.487273 233.10056 
" clip-path="url(#p9ce95a12e4)" style="fill: none; stroke: #ffff00; stroke-width: 3; stroke-linecap: square"/>
   </g>
   <g id="patch_3">
    <path d="M 57.6 307.584 
L 57.6 41.472 
" style="fill: none; stroke: #ffffff; stroke-linejoin: miter; stroke-linecap: square"/>
   </g>
   <g id="patch_4">
    <path d="M 414.72 307.584 
L 414.72 41.472 
" style="fill: none; stroke: #ffffff; stroke-linejoin: miter; stroke-linecap: square"/>
   </g>
   <g id="patch_5">
    <path d="M 57.6 307.584 
L 414.72 307.584 
" style="fill: none; stroke: #ffffff; stroke-linejoin: miter; stroke-linecap: square"/>
   </g>
   <g id="patch_6">
    <path d="M 57.6 41.472 
L 414.72 41.472 
" style="fill: none; stroke: #ffffff; stroke-linejoin: miter; stroke-linecap: square"/>
   </g>
   <g id="legend_1">
    <g id="patch_7">
     <path d="M 243.124687 302.584 
L 407.72 302.584 
Q 409.72 302.584 409.72 300.584 
L 409.72 257.549625 
Q 409.72 255.549625 407.72 255.549625 
L 243.124687 255.549625 
Q 241.124687 255.549625 241.124687 257.549625 
L 241.124687 300.584 
Q 241.124687 302.584 243.124687 302.584 
z
" style="fill: #e5e5e5; opacity: 0.8; stroke: #cccccc; stroke-width: 0.5; stroke-linejoin: miter"/>
    </g>
    <g id="line2d_30">
     <path d="M 245.124687 263.648062 
L 255.124687 263.648062 
L 265.124687 263.648062 
" style="fill: none; stroke: #6495ed; stroke-width: 2; stroke-linecap: square"/>
    </g>
    <g id="text_16">
     <!-- Generator loss -->
     <g transform="translate(273.124687 267.148062) scale(0.1 -0.1)">
      <defs>
       <path id="DejaVuSans-47" d="M 3809 666 
L 3809 1919 
L 2778 1919 
L 2778 2438 
L 4434 2438 
L 4434 434 
Q 4069 175 3628 42 
Q 3188 -91 2688 -91 
Q 1594 -91 976 548 
Q 359 1188 359 2328 
Q 359 3472 976 4111 
Q 1594 4750 2688 4750 
Q 3144 4750 3555 4637 
Q 3966 4525 4313 4306 
L 4313 3634 
Q 3963 3931 3569 4081 
Q 3175 4231 2741 4231 
Q 1884 4231 1454 3753 
Q 1025 3275 1025 2328 
Q 1025 1384 1454 906 
Q 1884 428 2741 428 
Q 3075 428 3337 486 
Q 3600 544 3809 666 
z
" transform="scale(0.015625)"/>
       <path id="DejaVuSans-65" d="M 3597 1894 
L 3597 1613 
L 953 1613 
Q 991 1019 1311 708 
Q 1631 397 2203 397 
Q 2534 397 2845 478 
Q 3156 559 3463 722 
L 3463 178 
Q 3153 47 2828 -22 
Q 2503 -91 2169 -91 
Q 1331 -91 842 396 
Q 353 884 353 1716 
Q 353 2575 817 3079 
Q 1281 3584 2069 3584 
Q 2775 3584 3186 3129 
Q 3597 2675 3597 1894 
z
M 3022 2063 
Q 3016 2534 2758 2815 
Q 2500 3097 2075 3097 
Q 1594 3097 1305 2825 
Q 1016 2553 972 2059 
L 3022 2063 
z
" transform="scale(0.015625)"/>
       <path id="DejaVuSans-6e" d="M 3513 2113 
L 3513 0 
L 2938 0 
L 2938 2094 
Q 2938 2591 2744 2837 
Q 2550 3084 2163 3084 
Q 1697 3084 1428 2787 
Q 1159 2491 1159 1978 
L 1159 0 
L 581 0 
L 581 3500 
L 1159 3500 
L 1159 2956 
Q 1366 3272 1645 3428 
Q 1925 3584 2291 3584 
Q 2894 3584 3203 3211 
Q 3513 2838 3513 2113 
z
" transform="scale(0.015625)"/>
       <path id="DejaVuSans-72" d="M 2631 2963 
Q 2534 3019 2420 3045 
Q 2306 3072 2169 3072 
Q 1681 3072 1420 2755 
Q 1159 2438 1159 1844 
L 1159 0 
L 581 0 
L 581 3500 
L 1159 3500 
L 1159 2956 
Q 1341 3275 1631 3429 
Q 1922 3584 2338 3584 
Q 2397 3584 2469 3576 
Q 2541 3569 2628 3553 
L 2631 2963 
z
" transform="scale(0.015625)"/>
       <path id="DejaVuSans-61" d="M 2194 1759 
Q 1497 1759 1228 1600 
Q 959 1441 959 1056 
Q 959 750 1161 570 
Q 1363 391 1709 391 
Q 2188 391 2477 730 
Q 2766 1069 2766 1631 
L 2766 1759 
L 2194 1759 
z
M 3341 1997 
L 3341 0 
L 2766 0 
L 2766 531 
Q 2569 213 2275 61 
Q 1981 -91 1556 -91 
Q 1019 -91 701 211 
Q 384 513 384 1019 
Q 384 1609 779 1909 
Q 1175 2209 1959 2209 
L 2766 2209 
L 2766 2266 
Q 2766 2663 2505 2880 
Q 2244 3097 1772 3097 
Q 1472 3097 1187 3025 
Q 903 2953 641 2809 
L 641 3341 
Q 956 3463 1253 3523 
Q 1550 3584 1831 3584 
Q 2591 3584 2966 3190 
Q 3341 2797 3341 1997 
z
" transform="scale(0.015625)"/>
       <path id="DejaVuSans-74" d="M 1172 4494 
L 1172 3500 
L 2356 3500 
L 2356 3053 
L 1172 3053 
L 1172 1153 
Q 1172 725 1289 603 
Q 1406 481 1766 481 
L 2356 481 
L 2356 0 
L 1766 0 
Q 1100 0 847 248 
Q 594 497 594 1153 
L 594 3053 
L 172 3053 
L 172 3500 
L 594 3500 
L 594 4494 
L 1172 4494 
z
" transform="scale(0.015625)"/>
       <path id="DejaVuSans-20" transform="scale(0.015625)"/>
       <path id="DejaVuSans-6c" d="M 603 4863 
L 1178 4863 
L 1178 0 
L 603 0 
L 603 4863 
z
" transform="scale(0.015625)"/>
      </defs>
      <use xlink:href="#DejaVuSans-47"/>
      <use xlink:href="#DejaVuSans-65" x="77.490234"/>
      <use xlink:href="#DejaVuSans-6e" x="139.013672"/>
      <use xlink:href="#DejaVuSans-65" x="202.392578"/>
      <use xlink:href="#DejaVuSans-72" x="263.916016"/>
      <use xlink:href="#DejaVuSans-61" x="305.029297"/>
      <use xlink:href="#DejaVuSans-74" x="366.308594"/>
      <use xlink:href="#DejaVuSans-6f" x="405.517578"/>
      <use xlink:href="#DejaVuSans-72" x="466.699219"/>
      <use xlink:href="#DejaVuSans-20" x="507.8125"/>
      <use xlink:href="#DejaVuSans-6c" x="539.599609"/>
      <use xlink:href="#DejaVuSans-6f" x="567.382812"/>
      <use xlink:href="#DejaVuSans-73" x="628.564453"/>
      <use xlink:href="#DejaVuSans-73" x="680.664062"/>
     </g>
    </g>
    <g id="line2d_31">
     <path d="M 245.124687 278.326188 
L 255.124687 278.326188 
L 265.124687 278.326188 
" style="fill: none; stroke: #dc143c; stroke-width: 2; stroke-linecap: square"/>
    </g>
    <g id="text_17">
     <!-- Average discriminator loss -->
     <g transform="translate(273.124687 281.826188) scale(0.1 -0.1)">
      <defs>
       <path id="DejaVuSans-41" d="M 2188 4044 
L 1331 1722 
L 3047 1722 
L 2188 4044 
z
M 1831 4666 
L 2547 4666 
L 4325 0 
L 3669 0 
L 3244 1197 
L 1141 1197 
L 716 0 
L 50 0 
L 1831 4666 
z
" transform="scale(0.015625)"/>
       <path id="DejaVuSans-76" d="M 191 3500 
L 800 3500 
L 1894 563 
L 2988 3500 
L 3597 3500 
L 2284 0 
L 1503 0 
L 191 3500 
z
" transform="scale(0.015625)"/>
       <path id="DejaVuSans-67" d="M 2906 1791 
Q 2906 2416 2648 2759 
Q 2391 3103 1925 3103 
Q 1463 3103 1205 2759 
Q 947 2416 947 1791 
Q 947 1169 1205 825 
Q 1463 481 1925 481 
Q 2391 481 2648 825 
Q 2906 1169 2906 1791 
z
M 3481 434 
Q 3481 -459 3084 -895 
Q 2688 -1331 1869 -1331 
Q 1566 -1331 1297 -1286 
Q 1028 -1241 775 -1147 
L 775 -588 
Q 1028 -725 1275 -790 
Q 1522 -856 1778 -856 
Q 2344 -856 2625 -561 
Q 2906 -266 2906 331 
L 2906 616 
Q 2728 306 2450 153 
Q 2172 0 1784 0 
Q 1141 0 747 490 
Q 353 981 353 1791 
Q 353 2603 747 3093 
Q 1141 3584 1784 3584 
Q 2172 3584 2450 3431 
Q 2728 3278 2906 2969 
L 2906 3500 
L 3481 3500 
L 3481 434 
z
" transform="scale(0.015625)"/>
       <path id="DejaVuSans-64" d="M 2906 2969 
L 2906 4863 
L 3481 4863 
L 3481 0 
L 2906 0 
L 2906 525 
Q 2725 213 2448 61 
Q 2172 -91 1784 -91 
Q 1150 -91 751 415 
Q 353 922 353 1747 
Q 353 2572 751 3078 
Q 1150 3584 1784 3584 
Q 2172 3584 2448 3432 
Q 2725 3281 2906 2969 
z
M 947 1747 
Q 947 1113 1208 752 
Q 1469 391 1925 391 
Q 2381 391 2643 752 
Q 2906 1113 2906 1747 
Q 2906 2381 2643 2742 
Q 2381 3103 1925 3103 
Q 1469 3103 1208 2742 
Q 947 2381 947 1747 
z
" transform="scale(0.015625)"/>
       <path id="DejaVuSans-69" d="M 603 3500 
L 1178 3500 
L 1178 0 
L 603 0 
L 603 3500 
z
M 603 4863 
L 1178 4863 
L 1178 4134 
L 603 4134 
L 603 4863 
z
" transform="scale(0.015625)"/>
       <path id="DejaVuSans-6d" d="M 3328 2828 
Q 3544 3216 3844 3400 
Q 4144 3584 4550 3584 
Q 5097 3584 5394 3201 
Q 5691 2819 5691 2113 
L 5691 0 
L 5113 0 
L 5113 2094 
Q 5113 2597 4934 2840 
Q 4756 3084 4391 3084 
Q 3944 3084 3684 2787 
Q 3425 2491 3425 1978 
L 3425 0 
L 2847 0 
L 2847 2094 
Q 2847 2600 2669 2842 
Q 2491 3084 2119 3084 
Q 1678 3084 1418 2786 
Q 1159 2488 1159 1978 
L 1159 0 
L 581 0 
L 581 3500 
L 1159 3500 
L 1159 2956 
Q 1356 3278 1631 3431 
Q 1906 3584 2284 3584 
Q 2666 3584 2933 3390 
Q 3200 3197 3328 2828 
z
" transform="scale(0.015625)"/>
      </defs>
      <use xlink:href="#DejaVuSans-41"/>
      <use xlink:href="#DejaVuSans-76" x="62.533203"/>
      <use xlink:href="#DejaVuSans-65" x="121.712891"/>
      <use xlink:href="#DejaVuSans-72" x="183.236328"/>
      <use xlink:href="#DejaVuSans-61" x="224.349609"/>
      <use xlink:href="#DejaVuSans-67" x="285.628906"/>
      <use xlink:href="#DejaVuSans-65" x="349.105469"/>
      <use xlink:href="#DejaVuSans-20" x="410.628906"/>
      <use xlink:href="#DejaVuSans-64" x="442.416016"/>
      <use xlink:href="#DejaVuSans-69" x="505.892578"/>
      <use xlink:href="#DejaVuSans-73" x="533.675781"/>
      <use xlink:href="#DejaVuSans-63" x="585.775391"/>
      <use xlink:href="#DejaVuSans-72" x="640.755859"/>
      <use xlink:href="#DejaVuSans-69" x="681.869141"/>
      <use xlink:href="#DejaVuSans-6d" x="709.652344"/>
      <use xlink:href="#DejaVuSans-69" x="807.064453"/>
      <use xlink:href="#DejaVuSans-6e" x="834.847656"/>
      <use xlink:href="#DejaVuSans-61" x="898.226562"/>
      <use xlink:href="#DejaVuSans-74" x="959.505859"/>
      <use xlink:href="#DejaVuSans-6f" x="998.714844"/>
      <use xlink:href="#DejaVuSans-72" x="1059.896484"/>
      <use xlink:href="#DejaVuSans-20" x="1101.009766"/>
      <use xlink:href="#DejaVuSans-6c" x="1132.796875"/>
      <use xlink:href="#DejaVuSans-6f" x="1160.580078"/>
      <use xlink:href="#DejaVuSans-73" x="1221.761719"/>
      <use xlink:href="#DejaVuSans-73" x="1273.861328"/>
     </g>
    </g>
    <g id="line2d_32">
     <path d="M 245.124687 293.004312 
L 255.124687 293.004312 
L 265.124687 293.004312 
" style="fill: none; stroke: #ffff00; stroke-width: 3; stroke-linecap: square"/>
    </g>
    <g id="text_18">
     <!-- ROC AUC -->
     <g transform="translate(273.124687 296.504312) scale(0.1 -0.1)">
      <defs>
       <path id="DejaVuSans-52" d="M 2841 2188 
Q 3044 2119 3236 1894 
Q 3428 1669 3622 1275 
L 4263 0 
L 3584 0 
L 2988 1197 
Q 2756 1666 2539 1819 
Q 2322 1972 1947 1972 
L 1259 1972 
L 1259 0 
L 628 0 
L 628 4666 
L 2053 4666 
Q 2853 4666 3247 4331 
Q 3641 3997 3641 3322 
Q 3641 2881 3436 2590 
Q 3231 2300 2841 2188 
z
M 1259 4147 
L 1259 2491 
L 2053 2491 
Q 2509 2491 2742 2702 
Q 2975 2913 2975 3322 
Q 2975 3731 2742 3939 
Q 2509 4147 2053 4147 
L 1259 4147 
z
" transform="scale(0.015625)"/>
       <path id="DejaVuSans-4f" d="M 2522 4238 
Q 1834 4238 1429 3725 
Q 1025 3213 1025 2328 
Q 1025 1447 1429 934 
Q 1834 422 2522 422 
Q 3209 422 3611 934 
Q 4013 1447 4013 2328 
Q 4013 3213 3611 3725 
Q 3209 4238 2522 4238 
z
M 2522 4750 
Q 3503 4750 4090 4092 
Q 4678 3434 4678 2328 
Q 4678 1225 4090 567 
Q 3503 -91 2522 -91 
Q 1538 -91 948 565 
Q 359 1222 359 2328 
Q 359 3434 948 4092 
Q 1538 4750 2522 4750 
z
" transform="scale(0.015625)"/>
       <path id="DejaVuSans-43" d="M 4122 4306 
L 4122 3641 
Q 3803 3938 3442 4084 
Q 3081 4231 2675 4231 
Q 1875 4231 1450 3742 
Q 1025 3253 1025 2328 
Q 1025 1406 1450 917 
Q 1875 428 2675 428 
Q 3081 428 3442 575 
Q 3803 722 4122 1019 
L 4122 359 
Q 3791 134 3420 21 
Q 3050 -91 2638 -91 
Q 1578 -91 968 557 
Q 359 1206 359 2328 
Q 359 3453 968 4101 
Q 1578 4750 2638 4750 
Q 3056 4750 3426 4639 
Q 3797 4528 4122 4306 
z
" transform="scale(0.015625)"/>
       <path id="DejaVuSans-55" d="M 556 4666 
L 1191 4666 
L 1191 1831 
Q 1191 1081 1462 751 
Q 1734 422 2344 422 
Q 2950 422 3222 751 
Q 3494 1081 3494 1831 
L 3494 4666 
L 4128 4666 
L 4128 1753 
Q 4128 841 3676 375 
Q 3225 -91 2344 -91 
Q 1459 -91 1007 375 
Q 556 841 556 1753 
L 556 4666 
z
" transform="scale(0.015625)"/>
      </defs>
      <use xlink:href="#DejaVuSans-52"/>
      <use xlink:href="#DejaVuSans-4f" x="69.482422"/>
      <use xlink:href="#DejaVuSans-43" x="148.193359"/>
      <use xlink:href="#DejaVuSans-20" x="218.017578"/>
      <use xlink:href="#DejaVuSans-41" x="249.804688"/>
      <use xlink:href="#DejaVuSans-55" x="318.212891"/>
      <use xlink:href="#DejaVuSans-43" x="391.40625"/>
     </g>
    </g>
   </g>
  </g>
 </g>
 <defs>
  <clipPath id="p9ce95a12e4">
   <rect x="57.6" y="41.472" width="357.12" height="266.112"/>
  </clipPath>
 </defs>
</svg>
