<?xml version="1.0" encoding="utf-8" standalone="no"?>
<!DOCTYPE svg PUBLIC "-//W3C//DTD SVG 1.1//EN"
  "http://www.w3.org/Graphics/SVG/1.1/DTD/svg11.dtd">
<svg xmlns:xlink="http://www.w3.org/1999/xlink" width="460.8pt" height="345.6pt" viewBox="0 0 460.8 345.6" xmlns="http://www.w3.org/2000/svg" version="1.1">
 <metadata>
  <rdf:RDF xmlns:dc="http://purl.org/dc/elements/1.1/" xmlns:cc="http://creativecommons.org/ns#" xmlns:rdf="http://www.w3.org/1999/02/22-rdf-syntax-ns#">
   <cc:Work>
    <dc:type rdf:resource="http://purl.org/dc/dcmitype/StillImage"/>
    <dc:date>2023-07-06T17:24:33.420233</dc:date>
    <dc:format>image/svg+xml</dc:format>
    <dc:creator>
     <cc:Agent>
      <dc:title>Matplotlib v3.7.1, https://matplotlib.org/</dc:title>
     </cc:Agent>
    </dc:creator>
   </cc:Work>
  </rdf:RDF>
 </metadata>
 <defs>
  <style type="text/css">*{stroke-linejoin: round; stroke-linecap: butt}</style>
 </defs>
 <g id="figure_1">
  <g id="patch_1">
   <path d="M 0 345.6 
L 460.8 345.6 
L 460.8 0 
L 0 0 
z
" style="fill: #ffffff"/>
  </g>
  <g id="axes_1">
   <g id="patch_2">
    <path d="M 57.6 307.584 
L 414.72 307.584 
L 414.72 41.472 
L 57.6 41.472 
z
" style="fill: #e5e5e5"/>
   </g>
   <g id="matplotlib.axis_1">
    <g id="xtick_1">
     <g id="line2d_1">
      <path d="M 72.625833 307.584 
L 72.625833 41.472 
" clip-path="url(#p7ffa94b5bb)" style="fill: none; stroke: #ffffff; stroke-width: 0.8; stroke-linecap: square"/>
     </g>
     <g id="line2d_2">
      <defs>
       <path id="mab9a158ca7" d="M 0 0 
L 0 3.5 
" style="stroke: #555555; stroke-width: 0.8"/>
      </defs>
      <g>
       <use xlink:href="#mab9a158ca7" x="72.625833" y="307.584" style="fill: #555555; stroke: #555555; stroke-width: 0.8"/>
      </g>
     </g>
     <g id="text_1">
      <!-- 0 -->
      <g style="fill: #555555" transform="translate(69.444583 322.182437) scale(0.1 -0.1)">
       <defs>
        <path id="DejaVuSans-30" d="M 2034 4250 
Q 1547 4250 1301 3770 
Q 1056 3291 1056 2328 
Q 1056 1369 1301 889 
Q 1547 409 2034 409 
Q 2525 409 2770 889 
Q 3016 1369 3016 2328 
Q 3016 3291 2770 3770 
Q 2525 4250 2034 4250 
z
M 2034 4750 
Q 2819 4750 3233 4129 
Q 3647 3509 3647 2328 
Q 3647 1150 3233 529 
Q 2819 -91 2034 -91 
Q 1250 -91 836 529 
Q 422 1150 422 2328 
Q 422 3509 836 4129 
Q 1250 4750 2034 4750 
z
" transform="scale(0.015625)"/>
       </defs>
       <use xlink:href="#DejaVuSans-30"/>
      </g>
     </g>
    </g>
    <g id="xtick_2">
     <g id="line2d_3">
      <path d="M 132.970544 307.584 
L 132.970544 41.472 
" clip-path="url(#p7ffa94b5bb)" style="fill: none; stroke: #ffffff; stroke-width: 0.8; stroke-linecap: square"/>
     </g>
     <g id="line2d_4">
      <g>
       <use xlink:href="#mab9a158ca7" x="132.970544" y="307.584" style="fill: #555555; stroke: #555555; stroke-width: 0.8"/>
      </g>
     </g>
     <g id="text_2">
      <!-- 50 -->
      <g style="fill: #555555" transform="translate(126.608044 322.182437) scale(0.1 -0.1)">
       <defs>
        <path id="DejaVuSans-35" d="M 691 4666 
L 3169 4666 
L 3169 4134 
L 1269 4134 
L 1269 2991 
Q 1406 3038 1543 3061 
Q 1681 3084 1819 3084 
Q 2600 3084 3056 2656 
Q 3513 2228 3513 1497 
Q 3513 744 3044 326 
Q 2575 -91 1722 -91 
Q 1428 -91 1123 -41 
Q 819 9 494 109 
L 494 744 
Q 775 591 1075 516 
Q 1375 441 1709 441 
Q 2250 441 2565 725 
Q 2881 1009 2881 1497 
Q 2881 1984 2565 2268 
Q 2250 2553 1709 2553 
Q 1456 2553 1204 2497 
Q 953 2441 691 2322 
L 691 4666 
z
" transform="scale(0.015625)"/>
       </defs>
       <use xlink:href="#DejaVuSans-35"/>
       <use xlink:href="#DejaVuSans-30" x="63.623047"/>
      </g>
     </g>
    </g>
    <g id="xtick_3">
     <g id="line2d_5">
      <path d="M 193.315255 307.584 
L 193.315255 41.472 
" clip-path="url(#p7ffa94b5bb)" style="fill: none; stroke: #ffffff; stroke-width: 0.8; stroke-linecap: square"/>
     </g>
     <g id="line2d_6">
      <g>
       <use xlink:href="#mab9a158ca7" x="193.315255" y="307.584" style="fill: #555555; stroke: #555555; stroke-width: 0.8"/>
      </g>
     </g>
     <g id="text_3">
      <!-- 100 -->
      <g style="fill: #555555" transform="translate(183.771505 322.182437) scale(0.1 -0.1)">
       <defs>
        <path id="DejaVuSans-31" d="M 794 531 
L 1825 531 
L 1825 4091 
L 703 3866 
L 703 4441 
L 1819 4666 
L 2450 4666 
L 2450 531 
L 3481 531 
L 3481 0 
L 794 0 
L 794 531 
z
" transform="scale(0.015625)"/>
       </defs>
       <use xlink:href="#DejaVuSans-31"/>
       <use xlink:href="#DejaVuSans-30" x="63.623047"/>
       <use xlink:href="#DejaVuSans-30" x="127.246094"/>
      </g>
     </g>
    </g>
    <g id="xtick_4">
     <g id="line2d_7">
      <path d="M 253.659966 307.584 
L 253.659966 41.472 
" clip-path="url(#p7ffa94b5bb)" style="fill: none; stroke: #ffffff; stroke-width: 0.8; stroke-linecap: square"/>
     </g>
     <g id="line2d_8">
      <g>
       <use xlink:href="#mab9a158ca7" x="253.659966" y="307.584" style="fill: #555555; stroke: #555555; stroke-width: 0.8"/>
      </g>
     </g>
     <g id="text_4">
      <!-- 150 -->
      <g style="fill: #555555" transform="translate(244.116216 322.182437) scale(0.1 -0.1)">
       <use xlink:href="#DejaVuSans-31"/>
       <use xlink:href="#DejaVuSans-35" x="63.623047"/>
       <use xlink:href="#DejaVuSans-30" x="127.246094"/>
      </g>
     </g>
    </g>
    <g id="xtick_5">
     <g id="line2d_9">
      <path d="M 314.004677 307.584 
L 314.004677 41.472 
" clip-path="url(#p7ffa94b5bb)" style="fill: none; stroke: #ffffff; stroke-width: 0.8; stroke-linecap: square"/>
     </g>
     <g id="line2d_10">
      <g>
       <use xlink:href="#mab9a158ca7" x="314.004677" y="307.584" style="fill: #555555; stroke: #555555; stroke-width: 0.8"/>
      </g>
     </g>
     <g id="text_5">
      <!-- 200 -->
      <g style="fill: #555555" transform="translate(304.460927 322.182437) scale(0.1 -0.1)">
       <defs>
        <path id="DejaVuSans-32" d="M 1228 531 
L 3431 531 
L 3431 0 
L 469 0 
L 469 531 
Q 828 903 1448 1529 
Q 2069 2156 2228 2338 
Q 2531 2678 2651 2914 
Q 2772 3150 2772 3378 
Q 2772 3750 2511 3984 
Q 2250 4219 1831 4219 
Q 1534 4219 1204 4116 
Q 875 4013 500 3803 
L 500 4441 
Q 881 4594 1212 4672 
Q 1544 4750 1819 4750 
Q 2544 4750 2975 4387 
Q 3406 4025 3406 3419 
Q 3406 3131 3298 2873 
Q 3191 2616 2906 2266 
Q 2828 2175 2409 1742 
Q 1991 1309 1228 531 
z
" transform="scale(0.015625)"/>
       </defs>
       <use xlink:href="#DejaVuSans-32"/>
       <use xlink:href="#DejaVuSans-30" x="63.623047"/>
       <use xlink:href="#DejaVuSans-30" x="127.246094"/>
      </g>
     </g>
    </g>
    <g id="xtick_6">
     <g id="line2d_11">
      <path d="M 374.349388 307.584 
L 374.349388 41.472 
" clip-path="url(#p7ffa94b5bb)" style="fill: none; stroke: #ffffff; stroke-width: 0.8; stroke-linecap: square"/>
     </g>
     <g id="line2d_12">
      <g>
       <use xlink:href="#mab9a158ca7" x="374.349388" y="307.584" style="fill: #555555; stroke: #555555; stroke-width: 0.8"/>
      </g>
     </g>
     <g id="text_6">
      <!-- 250 -->
      <g style="fill: #555555" transform="translate(364.805638 322.182437) scale(0.1 -0.1)">
       <use xlink:href="#DejaVuSans-32"/>
       <use xlink:href="#DejaVuSans-35" x="63.623047"/>
       <use xlink:href="#DejaVuSans-30" x="127.246094"/>
      </g>
     </g>
    </g>
    <g id="text_7">
     <!-- Epoch -->
     <g style="fill: #555555" transform="translate(217.786875 337.38025) scale(0.12 -0.12)">
      <defs>
       <path id="DejaVuSans-45" d="M 628 4666 
L 3578 4666 
L 3578 4134 
L 1259 4134 
L 1259 2753 
L 3481 2753 
L 3481 2222 
L 1259 2222 
L 1259 531 
L 3634 531 
L 3634 0 
L 628 0 
L 628 4666 
z
" transform="scale(0.015625)"/>
       <path id="DejaVuSans-70" d="M 1159 525 
L 1159 -1331 
L 581 -1331 
L 581 3500 
L 1159 3500 
L 1159 2969 
Q 1341 3281 1617 3432 
Q 1894 3584 2278 3584 
Q 2916 3584 3314 3078 
Q 3713 2572 3713 1747 
Q 3713 922 3314 415 
Q 2916 -91 2278 -91 
Q 1894 -91 1617 61 
Q 1341 213 1159 525 
z
M 3116 1747 
Q 3116 2381 2855 2742 
Q 2594 3103 2138 3103 
Q 1681 3103 1420 2742 
Q 1159 2381 1159 1747 
Q 1159 1113 1420 752 
Q 1681 391 2138 391 
Q 2594 391 2855 752 
Q 3116 1113 3116 1747 
z
" transform="scale(0.015625)"/>
       <path id="DejaVuSans-6f" d="M 1959 3097 
Q 1497 3097 1228 2736 
Q 959 2375 959 1747 
Q 959 1119 1226 758 
Q 1494 397 1959 397 
Q 2419 397 2687 759 
Q 2956 1122 2956 1747 
Q 2956 2369 2687 2733 
Q 2419 3097 1959 3097 
z
M 1959 3584 
Q 2709 3584 3137 3096 
Q 3566 2609 3566 1747 
Q 3566 888 3137 398 
Q 2709 -91 1959 -91 
Q 1206 -91 779 398 
Q 353 888 353 1747 
Q 353 2609 779 3096 
Q 1206 3584 1959 3584 
z
" transform="scale(0.015625)"/>
       <path id="DejaVuSans-63" d="M 3122 3366 
L 3122 2828 
Q 2878 2963 2633 3030 
Q 2388 3097 2138 3097 
Q 1578 3097 1268 2742 
Q 959 2388 959 1747 
Q 959 1106 1268 751 
Q 1578 397 2138 397 
Q 2388 397 2633 464 
Q 2878 531 3122 666 
L 3122 134 
Q 2881 22 2623 -34 
Q 2366 -91 2075 -91 
Q 1284 -91 818 406 
Q 353 903 353 1747 
Q 353 2603 823 3093 
Q 1294 3584 2113 3584 
Q 2378 3584 2631 3529 
Q 2884 3475 3122 3366 
z
" transform="scale(0.015625)"/>
       <path id="DejaVuSans-68" d="M 3513 2113 
L 3513 0 
L 2938 0 
L 2938 2094 
Q 2938 2591 2744 2837 
Q 2550 3084 2163 3084 
Q 1697 3084 1428 2787 
Q 1159 2491 1159 1978 
L 1159 0 
L 581 0 
L 581 4863 
L 1159 4863 
L 1159 2956 
Q 1366 3272 1645 3428 
Q 1925 3584 2291 3584 
Q 2894 3584 3203 3211 
Q 3513 2838 3513 2113 
z
" transform="scale(0.015625)"/>
      </defs>
      <use xlink:href="#DejaVuSans-45"/>
      <use xlink:href="#DejaVuSans-70" x="63.183594"/>
      <use xlink:href="#DejaVuSans-6f" x="126.660156"/>
      <use xlink:href="#DejaVuSans-63" x="187.841797"/>
      <use xlink:href="#DejaVuSans-68" x="242.822266"/>
     </g>
    </g>
   </g>
   <g id="matplotlib.axis_2">
    <g id="ytick_1">
     <g id="line2d_13">
      <path d="M 57.6 305.215832 
L 414.72 305.215832 
" clip-path="url(#p7ffa94b5bb)" style="fill: none; stroke: #ffffff; stroke-width: 0.8; stroke-linecap: square"/>
     </g>
     <g id="line2d_14">
      <defs>
       <path id="m2c8cd69703" d="M 0 0 
L -3.5 0 
" style="stroke: #555555; stroke-width: 0.8"/>
      </defs>
      <g>
       <use xlink:href="#m2c8cd69703" x="57.6" y="305.215832" style="fill: #555555; stroke: #555555; stroke-width: 0.8"/>
      </g>
     </g>
     <g id="text_8">
      <!-- 0.0 -->
      <g style="fill: #555555" transform="translate(34.696875 309.015051) scale(0.1 -0.1)">
       <defs>
        <path id="DejaVuSans-2e" d="M 684 794 
L 1344 794 
L 1344 0 
L 684 0 
L 684 794 
z
" transform="scale(0.015625)"/>
       </defs>
       <use xlink:href="#DejaVuSans-30"/>
       <use xlink:href="#DejaVuSans-2e" x="63.623047"/>
       <use xlink:href="#DejaVuSans-30" x="95.410156"/>
      </g>
     </g>
    </g>
    <g id="ytick_2">
     <g id="line2d_15">
      <path d="M 57.6 262.58389 
L 414.72 262.58389 
" clip-path="url(#p7ffa94b5bb)" style="fill: none; stroke: #ffffff; stroke-width: 0.8; stroke-linecap: square"/>
     </g>
     <g id="line2d_16">
      <g>
       <use xlink:href="#m2c8cd69703" x="57.6" y="262.58389" style="fill: #555555; stroke: #555555; stroke-width: 0.8"/>
      </g>
     </g>
     <g id="text_9">
      <!-- 0.5 -->
      <g style="fill: #555555" transform="translate(34.696875 266.383109) scale(0.1 -0.1)">
       <use xlink:href="#DejaVuSans-30"/>
       <use xlink:href="#DejaVuSans-2e" x="63.623047"/>
       <use xlink:href="#DejaVuSans-35" x="95.410156"/>
      </g>
     </g>
    </g>
    <g id="ytick_3">
     <g id="line2d_17">
      <path d="M 57.6 219.951949 
L 414.72 219.951949 
" clip-path="url(#p7ffa94b5bb)" style="fill: none; stroke: #ffffff; stroke-width: 0.8; stroke-linecap: square"/>
     </g>
     <g id="line2d_18">
      <g>
       <use xlink:href="#m2c8cd69703" x="57.6" y="219.951949" style="fill: #555555; stroke: #555555; stroke-width: 0.8"/>
      </g>
     </g>
     <g id="text_10">
      <!-- 1.0 -->
      <g style="fill: #555555" transform="translate(34.696875 223.751168) scale(0.1 -0.1)">
       <use xlink:href="#DejaVuSans-31"/>
       <use xlink:href="#DejaVuSans-2e" x="63.623047"/>
       <use xlink:href="#DejaVuSans-30" x="95.410156"/>
      </g>
     </g>
    </g>
    <g id="ytick_4">
     <g id="line2d_19">
      <path d="M 57.6 177.320007 
L 414.72 177.320007 
" clip-path="url(#p7ffa94b5bb)" style="fill: none; stroke: #ffffff; stroke-width: 0.8; stroke-linecap: square"/>
     </g>
     <g id="line2d_20">
      <g>
       <use xlink:href="#m2c8cd69703" x="57.6" y="177.320007" style="fill: #555555; stroke: #555555; stroke-width: 0.8"/>
      </g>
     </g>
     <g id="text_11">
      <!-- 1.5 -->
      <g style="fill: #555555" transform="translate(34.696875 181.119226) scale(0.1 -0.1)">
       <use xlink:href="#DejaVuSans-31"/>
       <use xlink:href="#DejaVuSans-2e" x="63.623047"/>
       <use xlink:href="#DejaVuSans-35" x="95.410156"/>
      </g>
     </g>
    </g>
    <g id="ytick_5">
     <g id="line2d_21">
      <path d="M 57.6 134.688066 
L 414.72 134.688066 
" clip-path="url(#p7ffa94b5bb)" style="fill: none; stroke: #ffffff; stroke-width: 0.8; stroke-linecap: square"/>
     </g>
     <g id="line2d_22">
      <g>
       <use xlink:href="#m2c8cd69703" x="57.6" y="134.688066" style="fill: #555555; stroke: #555555; stroke-width: 0.8"/>
      </g>
     </g>
     <g id="text_12">
      <!-- 2.0 -->
      <g style="fill: #555555" transform="translate(34.696875 138.487285) scale(0.1 -0.1)">
       <use xlink:href="#DejaVuSans-32"/>
       <use xlink:href="#DejaVuSans-2e" x="63.623047"/>
       <use xlink:href="#DejaVuSans-30" x="95.410156"/>
      </g>
     </g>
    </g>
    <g id="ytick_6">
     <g id="line2d_23">
      <path d="M 57.6 92.056124 
L 414.72 92.056124 
" clip-path="url(#p7ffa94b5bb)" style="fill: none; stroke: #ffffff; stroke-width: 0.8; stroke-linecap: square"/>
     </g>
     <g id="line2d_24">
      <g>
       <use xlink:href="#m2c8cd69703" x="57.6" y="92.056124" style="fill: #555555; stroke: #555555; stroke-width: 0.8"/>
      </g>
     </g>
     <g id="text_13">
      <!-- 2.5 -->
      <g style="fill: #555555" transform="translate(34.696875 95.855343) scale(0.1 -0.1)">
       <use xlink:href="#DejaVuSans-32"/>
       <use xlink:href="#DejaVuSans-2e" x="63.623047"/>
       <use xlink:href="#DejaVuSans-35" x="95.410156"/>
      </g>
     </g>
    </g>
    <g id="ytick_7">
     <g id="line2d_25">
      <path d="M 57.6 49.424183 
L 414.72 49.424183 
" clip-path="url(#p7ffa94b5bb)" style="fill: none; stroke: #ffffff; stroke-width: 0.8; stroke-linecap: square"/>
     </g>
     <g id="line2d_26">
      <g>
       <use xlink:href="#m2c8cd69703" x="57.6" y="49.424183" style="fill: #555555; stroke: #555555; stroke-width: 0.8"/>
      </g>
     </g>
     <g id="text_14">
      <!-- 3.0 -->
      <g style="fill: #555555" transform="translate(34.696875 53.223402) scale(0.1 -0.1)">
       <defs>
        <path id="DejaVuSans-33" d="M 2597 2516 
Q 3050 2419 3304 2112 
Q 3559 1806 3559 1356 
Q 3559 666 3084 287 
Q 2609 -91 1734 -91 
Q 1441 -91 1130 -33 
Q 819 25 488 141 
L 488 750 
Q 750 597 1062 519 
Q 1375 441 1716 441 
Q 2309 441 2620 675 
Q 2931 909 2931 1356 
Q 2931 1769 2642 2001 
Q 2353 2234 1838 2234 
L 1294 2234 
L 1294 2753 
L 1863 2753 
Q 2328 2753 2575 2939 
Q 2822 3125 2822 3475 
Q 2822 3834 2567 4026 
Q 2313 4219 1838 4219 
Q 1578 4219 1281 4162 
Q 984 4106 628 3988 
L 628 4550 
Q 988 4650 1302 4700 
Q 1616 4750 1894 4750 
Q 2613 4750 3031 4423 
Q 3450 4097 3450 3541 
Q 3450 3153 3228 2886 
Q 3006 2619 2597 2516 
z
" transform="scale(0.015625)"/>
       </defs>
       <use xlink:href="#DejaVuSans-33"/>
       <use xlink:href="#DejaVuSans-2e" x="63.623047"/>
       <use xlink:href="#DejaVuSans-30" x="95.410156"/>
      </g>
     </g>
    </g>
    <g id="text_15">
     <!-- Loss -->
     <g style="fill: #555555" transform="translate(28.20125 187.688625) rotate(-90) scale(0.12 -0.12)">
      <defs>
       <path id="DejaVuSans-4c" d="M 628 4666 
L 1259 4666 
L 1259 531 
L 3531 531 
L 3531 0 
L 628 0 
L 628 4666 
z
" transform="scale(0.015625)"/>
       <path id="DejaVuSans-73" d="M 2834 3397 
L 2834 2853 
Q 2591 2978 2328 3040 
Q 2066 3103 1784 3103 
Q 1356 3103 1142 2972 
Q 928 2841 928 2578 
Q 928 2378 1081 2264 
Q 1234 2150 1697 2047 
L 1894 2003 
Q 2506 1872 2764 1633 
Q 3022 1394 3022 966 
Q 3022 478 2636 193 
Q 2250 -91 1575 -91 
Q 1294 -91 989 -36 
Q 684 19 347 128 
L 347 722 
Q 666 556 975 473 
Q 1284 391 1588 391 
Q 1994 391 2212 530 
Q 2431 669 2431 922 
Q 2431 1156 2273 1281 
Q 2116 1406 1581 1522 
L 1381 1569 
Q 847 1681 609 1914 
Q 372 2147 372 2553 
Q 372 3047 722 3315 
Q 1072 3584 1716 3584 
Q 2034 3584 2315 3537 
Q 2597 3491 2834 3397 
z
" transform="scale(0.015625)"/>
      </defs>
      <use xlink:href="#DejaVuSans-4c"/>
      <use xlink:href="#DejaVuSans-6f" x="53.962891"/>
      <use xlink:href="#DejaVuSans-73" x="115.144531"/>
      <use xlink:href="#DejaVuSans-73" x="167.244141"/>
     </g>
    </g>
   </g>
   <g id="line2d_27">
    <path d="M 73.832727 244.163414 
L 75.039621 241.132288 
L 76.246516 237.086873 
L 77.45341 232.18168 
L 78.660304 226.380528 
L 79.867198 219.547147 
L 81.074093 211.653516 
L 82.280987 202.653917 
L 84.694775 181.951627 
L 91.936141 114.356568 
L 94.349929 95.121344 
L 95.556823 86.808312 
L 96.763717 79.315383 
L 97.970612 73.047234 
L 99.177506 67.62047 
L 100.3844 63.064558 
L 101.591294 59.543671 
L 102.798189 56.954284 
L 104.005083 55.142722 
L 105.211977 54.039528 
L 106.418871 53.568 
L 107.625765 53.66687 
L 108.83266 54.025582 
L 110.039554 54.762246 
L 111.246448 55.854846 
L 113.660237 58.575595 
L 117.280919 63.283325 
L 120.901602 68.250283 
L 123.31539 71.961177 
L 124.522285 73.99079 
L 126.936073 78.728166 
L 129.349861 84.331037 
L 131.76365 90.366774 
L 137.798121 106.654069 
L 140.211909 111.874446 
L 141.418804 113.847176 
L 142.625698 115.453066 
L 143.832592 116.305363 
L 145.039486 116.691035 
L 146.246381 116.367438 
L 147.453275 115.480806 
L 148.660169 114.234349 
L 149.867063 112.417892 
L 154.69464 103.023139 
L 155.901534 101.277682 
L 157.108429 100.165937 
L 158.315323 100.427915 
L 159.522217 101.963021 
L 161.936005 106.447267 
L 163.1429 109.679075 
L 164.349794 113.46124 
L 165.556688 117.970844 
L 167.970477 129.734644 
L 169.177371 134.72644 
L 170.384265 140.535273 
L 172.798053 153.283867 
L 174.004948 157.782873 
L 175.211842 161.472509 
L 176.418736 163.535396 
L 177.62563 164.369456 
L 178.832525 164.100569 
L 180.039419 164.262687 
L 181.246313 167.023347 
L 182.453207 173.060371 
L 183.660101 178.183657 
L 184.866996 172.406962 
L 186.07389 167.203307 
L 187.280784 162.713232 
L 188.487678 159.857075 
L 189.694572 157.781284 
L 190.901467 156.695275 
L 192.108361 156.33359 
L 193.315255 156.08801 
L 194.522149 156.430935 
L 198.142832 156.845931 
L 200.55662 156.150703 
L 202.970409 154.007699 
L 206.591092 149.41003 
L 211.418668 143.041723 
L 212.625563 141.644743 
L 213.832457 140.465452 
L 215.039351 139.633619 
L 216.246245 138.553427 
L 218.660034 137.077426 
L 219.866928 136.705088 
L 222.280716 135.459681 
L 224.694505 134.624125 
L 225.901399 134.577353 
L 236.763447 130.346331 
L 241.591024 128.028644 
L 242.797918 127.687321 
L 244.004812 126.835669 
L 245.211707 126.723553 
L 246.418601 125.953036 
L 248.832389 125.10287 
L 250.039284 124.972402 
L 251.246178 124.589856 
L 252.453072 123.937206 
L 253.659966 123.618538 
L 254.86686 122.921438 
L 256.073755 123.062176 
L 257.280649 122.788556 
L 259.694437 121.98698 
L 260.901332 121.625262 
L 262.108226 120.920573 
L 263.31512 120.870439 
L 265.728908 120.273031 
L 266.935803 119.826437 
L 268.142697 119.78009 
L 270.556485 118.549742 
L 271.76338 118.395923 
L 272.970274 117.836102 
L 274.177168 117.462021 
L 275.384062 117.64248 
L 276.590956 116.833969 
L 277.797851 116.548241 
L 279.004745 116.087925 
L 280.211639 116.140389 
L 283.832322 114.932614 
L 285.039216 114.75549 
L 286.24611 114.407492 
L 288.659899 114.036382 
L 289.866793 113.362937 
L 291.073687 113.457682 
L 292.280581 112.810638 
L 293.487475 111.963644 
L 294.69437 112.010749 
L 295.901264 112.570352 
L 297.108158 111.705114 
L 299.521947 111.489079 
L 301.935735 110.20787 
L 303.142629 110.032937 
L 304.349523 109.60798 
L 305.556418 109.554201 
L 306.763312 109.351719 
L 307.970206 108.485383 
L 309.1771 108.730716 
L 310.383995 108.586018 
L 312.797783 107.71312 
L 314.004677 107.585522 
L 315.211571 107.57537 
L 316.418466 106.943321 
L 317.62536 107.126298 
L 320.039148 106.15769 
L 322.452937 105.440945 
L 324.866725 104.965181 
L 326.073619 104.833672 
L 327.280514 104.57202 
L 328.487408 104.469272 
L 329.694302 103.877074 
L 330.901196 103.650349 
L 333.314985 103.468518 
L 334.521879 102.444247 
L 336.935667 102.782261 
L 338.142562 102.133351 
L 340.55635 101.43001 
L 341.763244 101.603121 
L 342.970139 101.245807 
L 344.177033 100.368413 
L 347.797715 100.116084 
L 349.00461 99.668706 
L 350.211504 100.017462 
L 351.418398 99.259803 
L 352.625292 98.867107 
L 353.832187 98.990182 
L 355.039081 98.544518 
L 356.245975 97.768482 
L 357.452869 97.772993 
L 358.659763 97.604695 
L 361.073552 96.788342 
L 363.48734 96.784548 
L 364.694235 96.080892 
L 365.901129 96.041259 
L 367.108023 95.77621 
L 368.314917 95.8996 
L 370.728706 95.101044 
L 371.9356 95.209533 
L 373.142494 94.204889 
L 374.349388 94.438663 
L 377.970071 93.578538 
L 379.176965 93.066168 
L 380.383859 92.759204 
L 381.590754 92.583893 
L 382.797648 92.202851 
L 387.625225 91.495615 
L 388.832119 90.752765 
L 390.039013 91.217045 
L 391.245907 90.305463 
L 392.452802 90.226312 
L 393.659696 90.513066 
L 394.86659 89.910058 
L 397.280379 89.702052 
L 398.487273 88.80796 
L 398.487273 88.80796 
" clip-path="url(#p7ffa94b5bb)" style="fill: none; stroke: #6495ed; stroke-width: 2; stroke-linecap: square"/>
   </g>
   <g id="line2d_28">
    <path d="M 73.832727 245.99598 
L 75.039621 246.787468 
L 76.246516 248.126159 
L 78.660304 251.580006 
L 81.074093 255.438226 
L 84.694775 261.378377 
L 87.108564 264.779066 
L 88.315458 266.380489 
L 89.522352 267.721868 
L 93.143035 271.016881 
L 94.349929 271.814162 
L 95.556823 272.794655 
L 99.177506 274.972713 
L 104.005083 277.348677 
L 105.211977 277.815374 
L 106.418871 278.448217 
L 114.867131 281.613809 
L 124.522285 284.506727 
L 129.349861 285.476227 
L 132.970544 285.953918 
L 139.005015 286.269932 
L 141.418804 286.168075 
L 142.625698 286.258146 
L 145.039486 286.173439 
L 146.246381 286.388259 
L 148.660169 286.324348 
L 149.867063 286.694626 
L 151.073957 286.686701 
L 152.280852 286.503073 
L 153.487746 287.045928 
L 154.69464 286.89365 
L 155.901534 286.480528 
L 157.108429 287.147514 
L 158.315323 286.745903 
L 159.522217 285.958933 
L 160.729111 286.668294 
L 161.936005 286.062443 
L 163.1429 285.033549 
L 164.349794 285.8735 
L 165.556688 284.965993 
L 166.763582 283.281885 
L 167.970477 283.868591 
L 169.177371 282.644053 
L 170.384265 280.688452 
L 171.591159 281.102155 
L 172.798053 279.030597 
L 174.004948 276.654869 
L 175.211842 277.559587 
L 176.418736 276.240706 
L 177.62563 274.278998 
L 178.832525 276.108844 
L 180.039419 275.416148 
L 181.246313 273.25859 
L 182.453207 273.483805 
L 183.660101 271.056785 
L 184.866996 270.93854 
L 186.07389 274.057719 
L 187.280784 274.807624 
L 188.487678 274.681229 
L 189.694572 277.154501 
L 190.901467 277.777368 
L 192.108361 277.930549 
L 193.315255 279.721684 
L 194.522149 280.289301 
L 195.729044 280.596389 
L 196.935938 281.649948 
L 201.763515 283.299487 
L 210.211774 285.238156 
L 212.625563 285.574167 
L 213.832457 285.864662 
L 215.039351 285.878402 
L 217.45314 286.390741 
L 218.660034 286.376305 
L 219.866928 286.52408 
L 221.073822 286.83621 
L 222.280716 286.7779 
L 224.694505 287.262101 
L 225.901399 287.130947 
L 227.108293 287.318516 
L 228.315188 287.6274 
L 229.522082 287.514229 
L 231.93587 287.944908 
L 233.142764 287.834757 
L 235.556553 288.258374 
L 236.763447 288.120132 
L 239.177236 288.543375 
L 240.38413 288.396482 
L 242.797918 288.802353 
L 244.004812 288.686488 
L 245.211707 288.805382 
L 246.418601 289.106287 
L 247.625495 288.93396 
L 250.039284 289.316883 
L 251.246178 289.149084 
L 253.659966 289.590392 
L 254.86686 289.433346 
L 256.073755 289.543864 
L 257.280649 289.804862 
L 258.487543 289.618008 
L 260.901332 290.041199 
L 262.108226 289.871723 
L 263.31512 289.995469 
L 264.522014 290.256749 
L 265.728908 290.041299 
L 268.142697 290.437375 
L 269.349591 290.231659 
L 271.76338 290.660719 
L 272.970274 290.470223 
L 275.384062 290.83362 
L 276.590956 290.660997 
L 277.797851 290.78547 
L 279.004745 291.067241 
L 280.211639 290.81473 
L 281.418533 290.952366 
L 282.625428 291.218318 
L 283.832322 291.018284 
L 285.039216 291.151775 
L 286.24611 291.41181 
L 287.453004 291.172429 
L 288.659899 291.296971 
L 289.866793 291.601827 
L 291.073687 291.326843 
L 292.280581 291.497323 
L 293.487475 291.818104 
L 294.69437 291.546479 
L 295.901264 291.604003 
L 297.108158 291.928378 
L 298.315052 291.65841 
L 299.521947 291.778886 
L 300.728841 292.062603 
L 301.935735 291.840572 
L 303.142629 291.974159 
L 304.349523 292.262561 
L 305.556418 291.974896 
L 306.763312 292.10005 
L 307.970206 292.43358 
L 309.1771 292.125824 
L 310.383995 292.243168 
L 311.590889 292.547812 
L 312.797783 292.299048 
L 314.004677 292.419242 
L 315.211571 292.677092 
L 316.418466 292.424389 
L 317.62536 292.531105 
L 318.832254 292.830927 
L 320.039148 292.567416 
L 321.246043 292.694724 
L 322.452937 292.980841 
L 323.659831 292.70549 
L 324.866725 292.846492 
L 326.073619 293.104631 
L 327.280514 292.834137 
L 328.487408 292.951259 
L 329.694302 293.246628 
L 330.901196 292.981675 
L 332.108091 293.084533 
L 333.314985 293.35027 
L 334.521879 293.136761 
L 335.728773 293.2384 
L 336.935667 293.477687 
L 338.142562 293.216691 
L 339.349456 293.359582 
L 340.55635 293.642471 
L 341.763244 293.328004 
L 342.970139 293.462658 
L 344.177033 293.79621 
L 345.383927 293.49519 
L 346.590821 293.613028 
L 347.797715 293.893186 
L 349.00461 293.607083 
L 350.211504 293.700552 
L 351.418398 294.020785 
L 352.625292 293.744329 
L 353.832187 293.840545 
L 355.039081 294.129777 
L 356.245975 293.876489 
L 357.452869 293.983729 
L 358.659763 294.256314 
L 359.866658 293.977387 
L 361.073552 294.122737 
L 362.280446 294.38884 
L 363.48734 294.075355 
L 365.901129 294.501723 
L 367.108023 294.208733 
L 368.314917 294.309129 
L 369.521811 294.598078 
L 370.728706 294.298773 
L 371.9356 294.409105 
L 373.142494 294.736706 
L 374.349388 294.426947 
L 375.556283 294.535413 
L 376.763177 294.819469 
L 377.970071 294.518572 
L 379.176965 294.65406 
L 380.383859 294.952039 
L 381.590754 294.649233 
L 382.797648 294.778456 
L 384.004542 295.06213 
L 385.211436 294.775862 
L 386.418331 294.885109 
L 387.625225 295.159499 
L 388.832119 294.905683 
L 390.039013 294.979315 
L 391.245907 295.298369 
L 392.452802 294.998826 
L 393.659696 295.085957 
L 394.86659 295.381055 
L 396.073484 295.083974 
L 397.280379 295.175907 
L 398.487273 295.488 
L 398.487273 295.488 
" clip-path="url(#p7ffa94b5bb)" style="fill: none; stroke: #dc143c; stroke-width: 2; stroke-linecap: square"/>
   </g>
   <g id="line2d_29">
    <path d="M 73.832727 252.400446 
L 76.246516 252.400446 
L 77.45341 249.559539 
L 79.867198 249.559539 
L 81.074093 249.280084 
L 87.108564 249.201716 
L 88.315458 249.086999 
L 90.729246 249.086999 
L 91.936141 248.942436 
L 94.349929 248.942436 
L 95.556823 248.714503 
L 97.970612 248.714503 
L 99.177506 248.501744 
L 101.591294 248.501744 
L 102.798189 248.220454 
L 105.211977 248.220454 
L 106.418871 247.809775 
L 108.83266 247.809775 
L 110.039554 247.440114 
L 112.453342 247.440114 
L 113.660237 246.936727 
L 116.074025 246.936727 
L 117.280919 246.358308 
L 119.694708 246.358308 
L 120.901602 245.850086 
L 123.31539 245.850086 
L 124.522285 245.555458 
L 134.177438 245.525778 
L 135.384333 245.775554 
L 137.798121 245.775554 
L 139.005015 246.109033 
L 141.418804 246.109033 
L 142.625698 246.666609 
L 145.039486 246.666609 
L 146.246381 247.199509 
L 148.660169 247.199509 
L 149.867063 247.431944 
L 152.280852 247.431944 
L 153.487746 247.666379 
L 155.901534 247.666379 
L 157.108429 247.949169 
L 159.522217 247.949169 
L 160.729111 248.292319 
L 163.1429 248.292319 
L 164.349794 248.617461 
L 166.763582 248.617461 
L 167.970477 248.906587 
L 170.384265 248.906587 
L 171.591159 249.213388 
L 174.004948 249.213388 
L 175.211842 249.572878 
L 181.246313 249.566208 
L 182.453207 249.020304 
L 184.866996 249.020304 
L 186.07389 248.08056 
L 188.487678 248.08056 
L 189.694572 247.070786 
L 192.108361 247.070786 
L 193.315255 245.662838 
L 195.729044 245.662838 
L 196.935938 244.074478 
L 199.349726 244.074478 
L 200.55662 242.750233 
L 202.970409 242.750233 
L 204.177303 242.162977 
L 206.591092 242.162977 
L 207.797986 241.9092 
L 213.832457 241.802153 
L 219.866928 241.637414 
L 221.073822 241.637414 
L 222.280716 241.424321 
L 224.694505 241.424321 
L 225.901399 241.212562 
L 228.315188 241.212562 
L 229.522082 241.000136 
L 231.93587 241.000136 
L 233.142764 240.825893 
L 235.556553 240.825893 
L 236.763447 240.686666 
L 242.797918 240.58112 
L 245.211707 240.487913 
L 250.039284 240.396539 
L 252.453072 240.302498 
L 253.659966 240.302498 
L 254.86686 240.189616 
L 260.901332 240.101744 
L 262.108226 239.98636 
L 268.142697 239.880314 
L 270.556485 239.776936 
L 275.384062 239.68056 
L 277.797851 239.58852 
L 282.625428 239.492812 
L 283.832322 239.37576 
L 286.24611 239.37576 
L 287.453004 239.256375 
L 293.487475 239.155998 
L 295.901264 239.063958 
L 300.728841 238.964248 
L 303.142629 238.877543 
L 307.970206 238.788838 
L 310.383995 238.689461 
L 311.590889 238.689461 
L 312.797783 238.57341 
L 315.211571 238.57341 
L 316.418466 238.452357 
L 322.452937 238.357649 
L 324.866725 238.274947 
L 329.694302 238.18224 
L 332.108091 238.077194 
L 336.935667 237.986154 
L 339.349456 237.883442 
L 344.177033 237.784899 
L 346.590821 237.712034 
L 351.418398 237.629332 
L 353.832187 237.538959 
L 358.659763 237.466927 
L 361.073552 237.393562 
L 365.901129 237.329534 
L 368.314917 237.258836 
L 376.763177 237.147955 
L 381.590754 237.047411 
L 391.245907 236.947701 
L 397.280379 236.860996 
L 398.487273 236.860996 
L 398.487273 236.860996 
" clip-path="url(#p7ffa94b5bb)" style="fill: none; stroke: #ffff00; stroke-width: 3; stroke-linecap: square"/>
   </g>
   <g id="patch_3">
    <path d="M 57.6 307.584 
L 57.6 41.472 
" style="fill: none; stroke: #ffffff; stroke-linejoin: miter; stroke-linecap: square"/>
   </g>
   <g id="patch_4">
    <path d="M 414.72 307.584 
L 414.72 41.472 
" style="fill: none; stroke: #ffffff; stroke-linejoin: miter; stroke-linecap: square"/>
   </g>
   <g id="patch_5">
    <path d="M 57.6 307.584 
L 414.72 307.584 
" style="fill: none; stroke: #ffffff; stroke-linejoin: miter; stroke-linecap: square"/>
   </g>
   <g id="patch_6">
    <path d="M 57.6 41.472 
L 414.72 41.472 
" style="fill: none; stroke: #ffffff; stroke-linejoin: miter; stroke-linecap: square"/>
   </g>
   <g id="legend_1">
    <g id="patch_7">
     <path d="M 243.124687 302.584 
L 407.72 302.584 
Q 409.72 302.584 409.72 300.584 
L 409.72 257.549625 
Q 409.72 255.549625 407.72 255.549625 
L 243.124687 255.549625 
Q 241.124687 255.549625 241.124687 257.549625 
L 241.124687 300.584 
Q 241.124687 302.584 243.124687 302.584 
z
" style="fill: #e5e5e5; opacity: 0.8; stroke: #cccccc; stroke-width: 0.5; stroke-linejoin: miter"/>
    </g>
    <g id="line2d_30">
     <path d="M 245.124687 263.648062 
L 255.124687 263.648062 
L 265.124687 263.648062 
" style="fill: none; stroke: #6495ed; stroke-width: 2; stroke-linecap: square"/>
    </g>
    <g id="text_16">
     <!-- Generator loss -->
     <g transform="translate(273.124687 267.148062) scale(0.1 -0.1)">
      <defs>
       <path id="DejaVuSans-47" d="M 3809 666 
L 3809 1919 
L 2778 1919 
L 2778 2438 
L 4434 2438 
L 4434 434 
Q 4069 175 3628 42 
Q 3188 -91 2688 -91 
Q 1594 -91 976 548 
Q 359 1188 359 2328 
Q 359 3472 976 4111 
Q 1594 4750 2688 4750 
Q 3144 4750 3555 4637 
Q 3966 4525 4313 4306 
L 4313 3634 
Q 3963 3931 3569 4081 
Q 3175 4231 2741 4231 
Q 1884 4231 1454 3753 
Q 1025 3275 1025 2328 
Q 1025 1384 1454 906 
Q 1884 428 2741 428 
Q 3075 428 3337 486 
Q 3600 544 3809 666 
z
" transform="scale(0.015625)"/>
       <path id="DejaVuSans-65" d="M 3597 1894 
L 3597 1613 
L 953 1613 
Q 991 1019 1311 708 
Q 1631 397 2203 397 
Q 2534 397 2845 478 
Q 3156 559 3463 722 
L 3463 178 
Q 3153 47 2828 -22 
Q 2503 -91 2169 -91 
Q 1331 -91 842 396 
Q 353 884 353 1716 
Q 353 2575 817 3079 
Q 1281 3584 2069 3584 
Q 2775 3584 3186 3129 
Q 3597 2675 3597 1894 
z
M 3022 2063 
Q 3016 2534 2758 2815 
Q 2500 3097 2075 3097 
Q 1594 3097 1305 2825 
Q 1016 2553 972 2059 
L 3022 2063 
z
" transform="scale(0.015625)"/>
       <path id="DejaVuSans-6e" d="M 3513 2113 
L 3513 0 
L 2938 0 
L 2938 2094 
Q 2938 2591 2744 2837 
Q 2550 3084 2163 3084 
Q 1697 3084 1428 2787 
Q 1159 2491 1159 1978 
L 1159 0 
L 581 0 
L 581 3500 
L 1159 3500 
L 1159 2956 
Q 1366 3272 1645 3428 
Q 1925 3584 2291 3584 
Q 2894 3584 3203 3211 
Q 3513 2838 3513 2113 
z
" transform="scale(0.015625)"/>
       <path id="DejaVuSans-72" d="M 2631 2963 
Q 2534 3019 2420 3045 
Q 2306 3072 2169 3072 
Q 1681 3072 1420 2755 
Q 1159 2438 1159 1844 
L 1159 0 
L 581 0 
L 581 3500 
L 1159 3500 
L 1159 2956 
Q 1341 3275 1631 3429 
Q 1922 3584 2338 3584 
Q 2397 3584 2469 3576 
Q 2541 3569 2628 3553 
L 2631 2963 
z
" transform="scale(0.015625)"/>
       <path id="DejaVuSans-61" d="M 2194 1759 
Q 1497 1759 1228 1600 
Q 959 1441 959 1056 
Q 959 750 1161 570 
Q 1363 391 1709 391 
Q 2188 391 2477 730 
Q 2766 1069 2766 1631 
L 2766 1759 
L 2194 1759 
z
M 3341 1997 
L 3341 0 
L 2766 0 
L 2766 531 
Q 2569 213 2275 61 
Q 1981 -91 1556 -91 
Q 1019 -91 701 211 
Q 384 513 384 1019 
Q 384 1609 779 1909 
Q 1175 2209 1959 2209 
L 2766 2209 
L 2766 2266 
Q 2766 2663 2505 2880 
Q 2244 3097 1772 3097 
Q 1472 3097 1187 3025 
Q 903 2953 641 2809 
L 641 3341 
Q 956 3463 1253 3523 
Q 1550 3584 1831 3584 
Q 2591 3584 2966 3190 
Q 3341 2797 3341 1997 
z
" transform="scale(0.015625)"/>
       <path id="DejaVuSans-74" d="M 1172 4494 
L 1172 3500 
L 2356 3500 
L 2356 3053 
L 1172 3053 
L 1172 1153 
Q 1172 725 1289 603 
Q 1406 481 1766 481 
L 2356 481 
L 2356 0 
L 1766 0 
Q 1100 0 847 248 
Q 594 497 594 1153 
L 594 3053 
L 172 3053 
L 172 3500 
L 594 3500 
L 594 4494 
L 1172 4494 
z
" transform="scale(0.015625)"/>
       <path id="DejaVuSans-20" transform="scale(0.015625)"/>
       <path id="DejaVuSans-6c" d="M 603 4863 
L 1178 4863 
L 1178 0 
L 603 0 
L 603 4863 
z
" transform="scale(0.015625)"/>
      </defs>
      <use xlink:href="#DejaVuSans-47"/>
      <use xlink:href="#DejaVuSans-65" x="77.490234"/>
      <use xlink:href="#DejaVuSans-6e" x="139.013672"/>
      <use xlink:href="#DejaVuSans-65" x="202.392578"/>
      <use xlink:href="#DejaVuSans-72" x="263.916016"/>
      <use xlink:href="#DejaVuSans-61" x="305.029297"/>
      <use xlink:href="#DejaVuSans-74" x="366.308594"/>
      <use xlink:href="#DejaVuSans-6f" x="405.517578"/>
      <use xlink:href="#DejaVuSans-72" x="466.699219"/>
      <use xlink:href="#DejaVuSans-20" x="507.8125"/>
      <use xlink:href="#DejaVuSans-6c" x="539.599609"/>
      <use xlink:href="#DejaVuSans-6f" x="567.382812"/>
      <use xlink:href="#DejaVuSans-73" x="628.564453"/>
      <use xlink:href="#DejaVuSans-73" x="680.664062"/>
     </g>
    </g>
    <g id="line2d_31">
     <path d="M 245.124687 278.326188 
L 255.124687 278.326188 
L 265.124687 278.326188 
" style="fill: none; stroke: #dc143c; stroke-width: 2; stroke-linecap: square"/>
    </g>
    <g id="text_17">
     <!-- Average discriminator loss -->
     <g transform="translate(273.124687 281.826188) scale(0.1 -0.1)">
      <defs>
       <path id="DejaVuSans-41" d="M 2188 4044 
L 1331 1722 
L 3047 1722 
L 2188 4044 
z
M 1831 4666 
L 2547 4666 
L 4325 0 
L 3669 0 
L 3244 1197 
L 1141 1197 
L 716 0 
L 50 0 
L 1831 4666 
z
" transform="scale(0.015625)"/>
       <path id="DejaVuSans-76" d="M 191 3500 
L 800 3500 
L 1894 563 
L 2988 3500 
L 3597 3500 
L 2284 0 
L 1503 0 
L 191 3500 
z
" transform="scale(0.015625)"/>
       <path id="DejaVuSans-67" d="M 2906 1791 
Q 2906 2416 2648 2759 
Q 2391 3103 1925 3103 
Q 1463 3103 1205 2759 
Q 947 2416 947 1791 
Q 947 1169 1205 825 
Q 1463 481 1925 481 
Q 2391 481 2648 825 
Q 2906 1169 2906 1791 
z
M 3481 434 
Q 3481 -459 3084 -895 
Q 2688 -1331 1869 -1331 
Q 1566 -1331 1297 -1286 
Q 1028 -1241 775 -1147 
L 775 -588 
Q 1028 -725 1275 -790 
Q 1522 -856 1778 -856 
Q 2344 -856 2625 -561 
Q 2906 -266 2906 331 
L 2906 616 
Q 2728 306 2450 153 
Q 2172 0 1784 0 
Q 1141 0 747 490 
Q 353 981 353 1791 
Q 353 2603 747 3093 
Q 1141 3584 1784 3584 
Q 2172 3584 2450 3431 
Q 2728 3278 2906 2969 
L 2906 3500 
L 3481 3500 
L 3481 434 
z
" transform="scale(0.015625)"/>
       <path id="DejaVuSans-64" d="M 2906 2969 
L 2906 4863 
L 3481 4863 
L 3481 0 
L 2906 0 
L 2906 525 
Q 2725 213 2448 61 
Q 2172 -91 1784 -91 
Q 1150 -91 751 415 
Q 353 922 353 1747 
Q 353 2572 751 3078 
Q 1150 3584 1784 3584 
Q 2172 3584 2448 3432 
Q 2725 3281 2906 2969 
z
M 947 1747 
Q 947 1113 1208 752 
Q 1469 391 1925 391 
Q 2381 391 2643 752 
Q 2906 1113 2906 1747 
Q 2906 2381 2643 2742 
Q 2381 3103 1925 3103 
Q 1469 3103 1208 2742 
Q 947 2381 947 1747 
z
" transform="scale(0.015625)"/>
       <path id="DejaVuSans-69" d="M 603 3500 
L 1178 3500 
L 1178 0 
L 603 0 
L 603 3500 
z
M 603 4863 
L 1178 4863 
L 1178 4134 
L 603 4134 
L 603 4863 
z
" transform="scale(0.015625)"/>
       <path id="DejaVuSans-6d" d="M 3328 2828 
Q 3544 3216 3844 3400 
Q 4144 3584 4550 3584 
Q 5097 3584 5394 3201 
Q 5691 2819 5691 2113 
L 5691 0 
L 5113 0 
L 5113 2094 
Q 5113 2597 4934 2840 
Q 4756 3084 4391 3084 
Q 3944 3084 3684 2787 
Q 3425 2491 3425 1978 
L 3425 0 
L 2847 0 
L 2847 2094 
Q 2847 2600 2669 2842 
Q 2491 3084 2119 3084 
Q 1678 3084 1418 2786 
Q 1159 2488 1159 1978 
L 1159 0 
L 581 0 
L 581 3500 
L 1159 3500 
L 1159 2956 
Q 1356 3278 1631 3431 
Q 1906 3584 2284 3584 
Q 2666 3584 2933 3390 
Q 3200 3197 3328 2828 
z
" transform="scale(0.015625)"/>
      </defs>
      <use xlink:href="#DejaVuSans-41"/>
      <use xlink:href="#DejaVuSans-76" x="62.533203"/>
      <use xlink:href="#DejaVuSans-65" x="121.712891"/>
      <use xlink:href="#DejaVuSans-72" x="183.236328"/>
      <use xlink:href="#DejaVuSans-61" x="224.349609"/>
      <use xlink:href="#DejaVuSans-67" x="285.628906"/>
      <use xlink:href="#DejaVuSans-65" x="349.105469"/>
      <use xlink:href="#DejaVuSans-20" x="410.628906"/>
      <use xlink:href="#DejaVuSans-64" x="442.416016"/>
      <use xlink:href="#DejaVuSans-69" x="505.892578"/>
      <use xlink:href="#DejaVuSans-73" x="533.675781"/>
      <use xlink:href="#DejaVuSans-63" x="585.775391"/>
      <use xlink:href="#DejaVuSans-72" x="640.755859"/>
      <use xlink:href="#DejaVuSans-69" x="681.869141"/>
      <use xlink:href="#DejaVuSans-6d" x="709.652344"/>
      <use xlink:href="#DejaVuSans-69" x="807.064453"/>
      <use xlink:href="#DejaVuSans-6e" x="834.847656"/>
      <use xlink:href="#DejaVuSans-61" x="898.226562"/>
      <use xlink:href="#DejaVuSans-74" x="959.505859"/>
      <use xlink:href="#DejaVuSans-6f" x="998.714844"/>
      <use xlink:href="#DejaVuSans-72" x="1059.896484"/>
      <use xlink:href="#DejaVuSans-20" x="1101.009766"/>
      <use xlink:href="#DejaVuSans-6c" x="1132.796875"/>
      <use xlink:href="#DejaVuSans-6f" x="1160.580078"/>
      <use xlink:href="#DejaVuSans-73" x="1221.761719"/>
      <use xlink:href="#DejaVuSans-73" x="1273.861328"/>
     </g>
    </g>
    <g id="line2d_32">
     <path d="M 245.124687 293.004312 
L 255.124687 293.004312 
L 265.124687 293.004312 
" style="fill: none; stroke: #ffff00; stroke-width: 3; stroke-linecap: square"/>
    </g>
    <g id="text_18">
     <!-- ROC AUC -->
     <g transform="translate(273.124687 296.504312) scale(0.1 -0.1)">
      <defs>
       <path id="DejaVuSans-52" d="M 2841 2188 
Q 3044 2119 3236 1894 
Q 3428 1669 3622 1275 
L 4263 0 
L 3584 0 
L 2988 1197 
Q 2756 1666 2539 1819 
Q 2322 1972 1947 1972 
L 1259 1972 
L 1259 0 
L 628 0 
L 628 4666 
L 2053 4666 
Q 2853 4666 3247 4331 
Q 3641 3997 3641 3322 
Q 3641 2881 3436 2590 
Q 3231 2300 2841 2188 
z
M 1259 4147 
L 1259 2491 
L 2053 2491 
Q 2509 2491 2742 2702 
Q 2975 2913 2975 3322 
Q 2975 3731 2742 3939 
Q 2509 4147 2053 4147 
L 1259 4147 
z
" transform="scale(0.015625)"/>
       <path id="DejaVuSans-4f" d="M 2522 4238 
Q 1834 4238 1429 3725 
Q 1025 3213 1025 2328 
Q 1025 1447 1429 934 
Q 1834 422 2522 422 
Q 3209 422 3611 934 
Q 4013 1447 4013 2328 
Q 4013 3213 3611 3725 
Q 3209 4238 2522 4238 
z
M 2522 4750 
Q 3503 4750 4090 4092 
Q 4678 3434 4678 2328 
Q 4678 1225 4090 567 
Q 3503 -91 2522 -91 
Q 1538 -91 948 565 
Q 359 1222 359 2328 
Q 359 3434 948 4092 
Q 1538 4750 2522 4750 
z
" transform="scale(0.015625)"/>
       <path id="DejaVuSans-43" d="M 4122 4306 
L 4122 3641 
Q 3803 3938 3442 4084 
Q 3081 4231 2675 4231 
Q 1875 4231 1450 3742 
Q 1025 3253 1025 2328 
Q 1025 1406 1450 917 
Q 1875 428 2675 428 
Q 3081 428 3442 575 
Q 3803 722 4122 1019 
L 4122 359 
Q 3791 134 3420 21 
Q 3050 -91 2638 -91 
Q 1578 -91 968 557 
Q 359 1206 359 2328 
Q 359 3453 968 4101 
Q 1578 4750 2638 4750 
Q 3056 4750 3426 4639 
Q 3797 4528 4122 4306 
z
" transform="scale(0.015625)"/>
       <path id="DejaVuSans-55" d="M 556 4666 
L 1191 4666 
L 1191 1831 
Q 1191 1081 1462 751 
Q 1734 422 2344 422 
Q 2950 422 3222 751 
Q 3494 1081 3494 1831 
L 3494 4666 
L 4128 4666 
L 4128 1753 
Q 4128 841 3676 375 
Q 3225 -91 2344 -91 
Q 1459 -91 1007 375 
Q 556 841 556 1753 
L 556 4666 
z
" transform="scale(0.015625)"/>
      </defs>
      <use xlink:href="#DejaVuSans-52"/>
      <use xlink:href="#DejaVuSans-4f" x="69.482422"/>
      <use xlink:href="#DejaVuSans-43" x="148.193359"/>
      <use xlink:href="#DejaVuSans-20" x="218.017578"/>
      <use xlink:href="#DejaVuSans-41" x="249.804688"/>
      <use xlink:href="#DejaVuSans-55" x="318.212891"/>
      <use xlink:href="#DejaVuSans-43" x="391.40625"/>
     </g>
    </g>
   </g>
  </g>
 </g>
 <defs>
  <clipPath id="p7ffa94b5bb">
   <rect x="57.6" y="41.472" width="357.12" height="266.112"/>
  </clipPath>
 </defs>
</svg>
