<?xml version="1.0" encoding="utf-8" standalone="no"?>
<!DOCTYPE svg PUBLIC "-//W3C//DTD SVG 1.1//EN"
  "http://www.w3.org/Graphics/SVG/1.1/DTD/svg11.dtd">
<svg xmlns:xlink="http://www.w3.org/1999/xlink" width="460.8pt" height="345.6pt" viewBox="0 0 460.8 345.6" xmlns="http://www.w3.org/2000/svg" version="1.1">
 <metadata>
  <rdf:RDF xmlns:dc="http://purl.org/dc/elements/1.1/" xmlns:cc="http://creativecommons.org/ns#" xmlns:rdf="http://www.w3.org/1999/02/22-rdf-syntax-ns#">
   <cc:Work>
    <dc:type rdf:resource="http://purl.org/dc/dcmitype/StillImage"/>
    <dc:date>2023-07-13T09:43:58.567332</dc:date>
    <dc:format>image/svg+xml</dc:format>
    <dc:creator>
     <cc:Agent>
      <dc:title>Matplotlib v3.7.1, https://matplotlib.org/</dc:title>
     </cc:Agent>
    </dc:creator>
   </cc:Work>
  </rdf:RDF>
 </metadata>
 <defs>
  <style type="text/css">*{stroke-linejoin: round; stroke-linecap: butt}</style>
 </defs>
 <g id="figure_1">
  <g id="patch_1">
   <path d="M 0 345.6 
L 460.8 345.6 
L 460.8 0 
L 0 0 
z
" style="fill: #ffffff"/>
  </g>
  <g id="axes_1">
   <g id="patch_2">
    <path d="M 57.6 307.584 
L 414.72 307.584 
L 414.72 41.472 
L 57.6 41.472 
z
" style="fill: #e5e5e5"/>
   </g>
   <g id="matplotlib.axis_1">
    <g id="xtick_1">
     <g id="line2d_1">
      <path d="M 72.625833 307.584 
L 72.625833 41.472 
" clip-path="url(#pebac31b447)" style="fill: none; stroke: #ffffff; stroke-width: 0.8; stroke-linecap: square"/>
     </g>
     <g id="line2d_2">
      <defs>
       <path id="meebf06d95c" d="M 0 0 
L 0 3.5 
" style="stroke: #555555; stroke-width: 0.8"/>
      </defs>
      <g>
       <use xlink:href="#meebf06d95c" x="72.625833" y="307.584" style="fill: #555555; stroke: #555555; stroke-width: 0.8"/>
      </g>
     </g>
     <g id="text_1">
      <!-- 0 -->
      <g style="fill: #555555" transform="translate(69.444583 322.182437) scale(0.1 -0.1)">
       <defs>
        <path id="DejaVuSans-30" d="M 2034 4250 
Q 1547 4250 1301 3770 
Q 1056 3291 1056 2328 
Q 1056 1369 1301 889 
Q 1547 409 2034 409 
Q 2525 409 2770 889 
Q 3016 1369 3016 2328 
Q 3016 3291 2770 3770 
Q 2525 4250 2034 4250 
z
M 2034 4750 
Q 2819 4750 3233 4129 
Q 3647 3509 3647 2328 
Q 3647 1150 3233 529 
Q 2819 -91 2034 -91 
Q 1250 -91 836 529 
Q 422 1150 422 2328 
Q 422 3509 836 4129 
Q 1250 4750 2034 4750 
z
" transform="scale(0.015625)"/>
       </defs>
       <use xlink:href="#DejaVuSans-30"/>
      </g>
     </g>
    </g>
    <g id="xtick_2">
     <g id="line2d_3">
      <path d="M 132.970544 307.584 
L 132.970544 41.472 
" clip-path="url(#pebac31b447)" style="fill: none; stroke: #ffffff; stroke-width: 0.8; stroke-linecap: square"/>
     </g>
     <g id="line2d_4">
      <g>
       <use xlink:href="#meebf06d95c" x="132.970544" y="307.584" style="fill: #555555; stroke: #555555; stroke-width: 0.8"/>
      </g>
     </g>
     <g id="text_2">
      <!-- 50 -->
      <g style="fill: #555555" transform="translate(126.608044 322.182437) scale(0.1 -0.1)">
       <defs>
        <path id="DejaVuSans-35" d="M 691 4666 
L 3169 4666 
L 3169 4134 
L 1269 4134 
L 1269 2991 
Q 1406 3038 1543 3061 
Q 1681 3084 1819 3084 
Q 2600 3084 3056 2656 
Q 3513 2228 3513 1497 
Q 3513 744 3044 326 
Q 2575 -91 1722 -91 
Q 1428 -91 1123 -41 
Q 819 9 494 109 
L 494 744 
Q 775 591 1075 516 
Q 1375 441 1709 441 
Q 2250 441 2565 725 
Q 2881 1009 2881 1497 
Q 2881 1984 2565 2268 
Q 2250 2553 1709 2553 
Q 1456 2553 1204 2497 
Q 953 2441 691 2322 
L 691 4666 
z
" transform="scale(0.015625)"/>
       </defs>
       <use xlink:href="#DejaVuSans-35"/>
       <use xlink:href="#DejaVuSans-30" x="63.623047"/>
      </g>
     </g>
    </g>
    <g id="xtick_3">
     <g id="line2d_5">
      <path d="M 193.315255 307.584 
L 193.315255 41.472 
" clip-path="url(#pebac31b447)" style="fill: none; stroke: #ffffff; stroke-width: 0.8; stroke-linecap: square"/>
     </g>
     <g id="line2d_6">
      <g>
       <use xlink:href="#meebf06d95c" x="193.315255" y="307.584" style="fill: #555555; stroke: #555555; stroke-width: 0.8"/>
      </g>
     </g>
     <g id="text_3">
      <!-- 100 -->
      <g style="fill: #555555" transform="translate(183.771505 322.182437) scale(0.1 -0.1)">
       <defs>
        <path id="DejaVuSans-31" d="M 794 531 
L 1825 531 
L 1825 4091 
L 703 3866 
L 703 4441 
L 1819 4666 
L 2450 4666 
L 2450 531 
L 3481 531 
L 3481 0 
L 794 0 
L 794 531 
z
" transform="scale(0.015625)"/>
       </defs>
       <use xlink:href="#DejaVuSans-31"/>
       <use xlink:href="#DejaVuSans-30" x="63.623047"/>
       <use xlink:href="#DejaVuSans-30" x="127.246094"/>
      </g>
     </g>
    </g>
    <g id="xtick_4">
     <g id="line2d_7">
      <path d="M 253.659966 307.584 
L 253.659966 41.472 
" clip-path="url(#pebac31b447)" style="fill: none; stroke: #ffffff; stroke-width: 0.8; stroke-linecap: square"/>
     </g>
     <g id="line2d_8">
      <g>
       <use xlink:href="#meebf06d95c" x="253.659966" y="307.584" style="fill: #555555; stroke: #555555; stroke-width: 0.8"/>
      </g>
     </g>
     <g id="text_4">
      <!-- 150 -->
      <g style="fill: #555555" transform="translate(244.116216 322.182437) scale(0.1 -0.1)">
       <use xlink:href="#DejaVuSans-31"/>
       <use xlink:href="#DejaVuSans-35" x="63.623047"/>
       <use xlink:href="#DejaVuSans-30" x="127.246094"/>
      </g>
     </g>
    </g>
    <g id="xtick_5">
     <g id="line2d_9">
      <path d="M 314.004677 307.584 
L 314.004677 41.472 
" clip-path="url(#pebac31b447)" style="fill: none; stroke: #ffffff; stroke-width: 0.8; stroke-linecap: square"/>
     </g>
     <g id="line2d_10">
      <g>
       <use xlink:href="#meebf06d95c" x="314.004677" y="307.584" style="fill: #555555; stroke: #555555; stroke-width: 0.8"/>
      </g>
     </g>
     <g id="text_5">
      <!-- 200 -->
      <g style="fill: #555555" transform="translate(304.460927 322.182437) scale(0.1 -0.1)">
       <defs>
        <path id="DejaVuSans-32" d="M 1228 531 
L 3431 531 
L 3431 0 
L 469 0 
L 469 531 
Q 828 903 1448 1529 
Q 2069 2156 2228 2338 
Q 2531 2678 2651 2914 
Q 2772 3150 2772 3378 
Q 2772 3750 2511 3984 
Q 2250 4219 1831 4219 
Q 1534 4219 1204 4116 
Q 875 4013 500 3803 
L 500 4441 
Q 881 4594 1212 4672 
Q 1544 4750 1819 4750 
Q 2544 4750 2975 4387 
Q 3406 4025 3406 3419 
Q 3406 3131 3298 2873 
Q 3191 2616 2906 2266 
Q 2828 2175 2409 1742 
Q 1991 1309 1228 531 
z
" transform="scale(0.015625)"/>
       </defs>
       <use xlink:href="#DejaVuSans-32"/>
       <use xlink:href="#DejaVuSans-30" x="63.623047"/>
       <use xlink:href="#DejaVuSans-30" x="127.246094"/>
      </g>
     </g>
    </g>
    <g id="xtick_6">
     <g id="line2d_11">
      <path d="M 374.349388 307.584 
L 374.349388 41.472 
" clip-path="url(#pebac31b447)" style="fill: none; stroke: #ffffff; stroke-width: 0.8; stroke-linecap: square"/>
     </g>
     <g id="line2d_12">
      <g>
       <use xlink:href="#meebf06d95c" x="374.349388" y="307.584" style="fill: #555555; stroke: #555555; stroke-width: 0.8"/>
      </g>
     </g>
     <g id="text_6">
      <!-- 250 -->
      <g style="fill: #555555" transform="translate(364.805638 322.182437) scale(0.1 -0.1)">
       <use xlink:href="#DejaVuSans-32"/>
       <use xlink:href="#DejaVuSans-35" x="63.623047"/>
       <use xlink:href="#DejaVuSans-30" x="127.246094"/>
      </g>
     </g>
    </g>
    <g id="text_7">
     <!-- Epoch -->
     <g style="fill: #555555" transform="translate(217.786875 337.38025) scale(0.12 -0.12)">
      <defs>
       <path id="DejaVuSans-45" d="M 628 4666 
L 3578 4666 
L 3578 4134 
L 1259 4134 
L 1259 2753 
L 3481 2753 
L 3481 2222 
L 1259 2222 
L 1259 531 
L 3634 531 
L 3634 0 
L 628 0 
L 628 4666 
z
" transform="scale(0.015625)"/>
       <path id="DejaVuSans-70" d="M 1159 525 
L 1159 -1331 
L 581 -1331 
L 581 3500 
L 1159 3500 
L 1159 2969 
Q 1341 3281 1617 3432 
Q 1894 3584 2278 3584 
Q 2916 3584 3314 3078 
Q 3713 2572 3713 1747 
Q 3713 922 3314 415 
Q 2916 -91 2278 -91 
Q 1894 -91 1617 61 
Q 1341 213 1159 525 
z
M 3116 1747 
Q 3116 2381 2855 2742 
Q 2594 3103 2138 3103 
Q 1681 3103 1420 2742 
Q 1159 2381 1159 1747 
Q 1159 1113 1420 752 
Q 1681 391 2138 391 
Q 2594 391 2855 752 
Q 3116 1113 3116 1747 
z
" transform="scale(0.015625)"/>
       <path id="DejaVuSans-6f" d="M 1959 3097 
Q 1497 3097 1228 2736 
Q 959 2375 959 1747 
Q 959 1119 1226 758 
Q 1494 397 1959 397 
Q 2419 397 2687 759 
Q 2956 1122 2956 1747 
Q 2956 2369 2687 2733 
Q 2419 3097 1959 3097 
z
M 1959 3584 
Q 2709 3584 3137 3096 
Q 3566 2609 3566 1747 
Q 3566 888 3137 398 
Q 2709 -91 1959 -91 
Q 1206 -91 779 398 
Q 353 888 353 1747 
Q 353 2609 779 3096 
Q 1206 3584 1959 3584 
z
" transform="scale(0.015625)"/>
       <path id="DejaVuSans-63" d="M 3122 3366 
L 3122 2828 
Q 2878 2963 2633 3030 
Q 2388 3097 2138 3097 
Q 1578 3097 1268 2742 
Q 959 2388 959 1747 
Q 959 1106 1268 751 
Q 1578 397 2138 397 
Q 2388 397 2633 464 
Q 2878 531 3122 666 
L 3122 134 
Q 2881 22 2623 -34 
Q 2366 -91 2075 -91 
Q 1284 -91 818 406 
Q 353 903 353 1747 
Q 353 2603 823 3093 
Q 1294 3584 2113 3584 
Q 2378 3584 2631 3529 
Q 2884 3475 3122 3366 
z
" transform="scale(0.015625)"/>
       <path id="DejaVuSans-68" d="M 3513 2113 
L 3513 0 
L 2938 0 
L 2938 2094 
Q 2938 2591 2744 2837 
Q 2550 3084 2163 3084 
Q 1697 3084 1428 2787 
Q 1159 2491 1159 1978 
L 1159 0 
L 581 0 
L 581 4863 
L 1159 4863 
L 1159 2956 
Q 1366 3272 1645 3428 
Q 1925 3584 2291 3584 
Q 2894 3584 3203 3211 
Q 3513 2838 3513 2113 
z
" transform="scale(0.015625)"/>
      </defs>
      <use xlink:href="#DejaVuSans-45"/>
      <use xlink:href="#DejaVuSans-70" x="63.183594"/>
      <use xlink:href="#DejaVuSans-6f" x="126.660156"/>
      <use xlink:href="#DejaVuSans-63" x="187.841797"/>
      <use xlink:href="#DejaVuSans-68" x="242.822266"/>
     </g>
    </g>
   </g>
   <g id="matplotlib.axis_2">
    <g id="ytick_1">
     <g id="line2d_13">
      <path d="M 57.6 303.600959 
L 414.72 303.600959 
" clip-path="url(#pebac31b447)" style="fill: none; stroke: #ffffff; stroke-width: 0.8; stroke-linecap: square"/>
     </g>
     <g id="line2d_14">
      <defs>
       <path id="m28812c26ea" d="M 0 0 
L -3.5 0 
" style="stroke: #555555; stroke-width: 0.8"/>
      </defs>
      <g>
       <use xlink:href="#m28812c26ea" x="57.6" y="303.600959" style="fill: #555555; stroke: #555555; stroke-width: 0.8"/>
      </g>
     </g>
     <g id="text_8">
      <!-- 0.0 -->
      <g style="fill: #555555" transform="translate(34.696875 307.400178) scale(0.1 -0.1)">
       <defs>
        <path id="DejaVuSans-2e" d="M 684 794 
L 1344 794 
L 1344 0 
L 684 0 
L 684 794 
z
" transform="scale(0.015625)"/>
       </defs>
       <use xlink:href="#DejaVuSans-30"/>
       <use xlink:href="#DejaVuSans-2e" x="63.623047"/>
       <use xlink:href="#DejaVuSans-30" x="95.410156"/>
      </g>
     </g>
    </g>
    <g id="ytick_2">
     <g id="line2d_15">
      <path d="M 57.6 259.408278 
L 414.72 259.408278 
" clip-path="url(#pebac31b447)" style="fill: none; stroke: #ffffff; stroke-width: 0.8; stroke-linecap: square"/>
     </g>
     <g id="line2d_16">
      <g>
       <use xlink:href="#m28812c26ea" x="57.6" y="259.408278" style="fill: #555555; stroke: #555555; stroke-width: 0.8"/>
      </g>
     </g>
     <g id="text_9">
      <!-- 0.5 -->
      <g style="fill: #555555" transform="translate(34.696875 263.207497) scale(0.1 -0.1)">
       <use xlink:href="#DejaVuSans-30"/>
       <use xlink:href="#DejaVuSans-2e" x="63.623047"/>
       <use xlink:href="#DejaVuSans-35" x="95.410156"/>
      </g>
     </g>
    </g>
    <g id="ytick_3">
     <g id="line2d_17">
      <path d="M 57.6 215.215597 
L 414.72 215.215597 
" clip-path="url(#pebac31b447)" style="fill: none; stroke: #ffffff; stroke-width: 0.8; stroke-linecap: square"/>
     </g>
     <g id="line2d_18">
      <g>
       <use xlink:href="#m28812c26ea" x="57.6" y="215.215597" style="fill: #555555; stroke: #555555; stroke-width: 0.8"/>
      </g>
     </g>
     <g id="text_10">
      <!-- 1.0 -->
      <g style="fill: #555555" transform="translate(34.696875 219.014816) scale(0.1 -0.1)">
       <use xlink:href="#DejaVuSans-31"/>
       <use xlink:href="#DejaVuSans-2e" x="63.623047"/>
       <use xlink:href="#DejaVuSans-30" x="95.410156"/>
      </g>
     </g>
    </g>
    <g id="ytick_4">
     <g id="line2d_19">
      <path d="M 57.6 171.022916 
L 414.72 171.022916 
" clip-path="url(#pebac31b447)" style="fill: none; stroke: #ffffff; stroke-width: 0.8; stroke-linecap: square"/>
     </g>
     <g id="line2d_20">
      <g>
       <use xlink:href="#m28812c26ea" x="57.6" y="171.022916" style="fill: #555555; stroke: #555555; stroke-width: 0.8"/>
      </g>
     </g>
     <g id="text_11">
      <!-- 1.5 -->
      <g style="fill: #555555" transform="translate(34.696875 174.822135) scale(0.1 -0.1)">
       <use xlink:href="#DejaVuSans-31"/>
       <use xlink:href="#DejaVuSans-2e" x="63.623047"/>
       <use xlink:href="#DejaVuSans-35" x="95.410156"/>
      </g>
     </g>
    </g>
    <g id="ytick_5">
     <g id="line2d_21">
      <path d="M 57.6 126.830235 
L 414.72 126.830235 
" clip-path="url(#pebac31b447)" style="fill: none; stroke: #ffffff; stroke-width: 0.8; stroke-linecap: square"/>
     </g>
     <g id="line2d_22">
      <g>
       <use xlink:href="#m28812c26ea" x="57.6" y="126.830235" style="fill: #555555; stroke: #555555; stroke-width: 0.8"/>
      </g>
     </g>
     <g id="text_12">
      <!-- 2.0 -->
      <g style="fill: #555555" transform="translate(34.696875 130.629454) scale(0.1 -0.1)">
       <use xlink:href="#DejaVuSans-32"/>
       <use xlink:href="#DejaVuSans-2e" x="63.623047"/>
       <use xlink:href="#DejaVuSans-30" x="95.410156"/>
      </g>
     </g>
    </g>
    <g id="ytick_6">
     <g id="line2d_23">
      <path d="M 57.6 82.637554 
L 414.72 82.637554 
" clip-path="url(#pebac31b447)" style="fill: none; stroke: #ffffff; stroke-width: 0.8; stroke-linecap: square"/>
     </g>
     <g id="line2d_24">
      <g>
       <use xlink:href="#m28812c26ea" x="57.6" y="82.637554" style="fill: #555555; stroke: #555555; stroke-width: 0.8"/>
      </g>
     </g>
     <g id="text_13">
      <!-- 2.5 -->
      <g style="fill: #555555" transform="translate(34.696875 86.436773) scale(0.1 -0.1)">
       <use xlink:href="#DejaVuSans-32"/>
       <use xlink:href="#DejaVuSans-2e" x="63.623047"/>
       <use xlink:href="#DejaVuSans-35" x="95.410156"/>
      </g>
     </g>
    </g>
    <g id="text_14">
     <!-- Loss -->
     <g style="fill: #555555" transform="translate(28.20125 187.688625) rotate(-90) scale(0.12 -0.12)">
      <defs>
       <path id="DejaVuSans-4c" d="M 628 4666 
L 1259 4666 
L 1259 531 
L 3531 531 
L 3531 0 
L 628 0 
L 628 4666 
z
" transform="scale(0.015625)"/>
       <path id="DejaVuSans-73" d="M 2834 3397 
L 2834 2853 
Q 2591 2978 2328 3040 
Q 2066 3103 1784 3103 
Q 1356 3103 1142 2972 
Q 928 2841 928 2578 
Q 928 2378 1081 2264 
Q 1234 2150 1697 2047 
L 1894 2003 
Q 2506 1872 2764 1633 
Q 3022 1394 3022 966 
Q 3022 478 2636 193 
Q 2250 -91 1575 -91 
Q 1294 -91 989 -36 
Q 684 19 347 128 
L 347 722 
Q 666 556 975 473 
Q 1284 391 1588 391 
Q 1994 391 2212 530 
Q 2431 669 2431 922 
Q 2431 1156 2273 1281 
Q 2116 1406 1581 1522 
L 1381 1569 
Q 847 1681 609 1914 
Q 372 2147 372 2553 
Q 372 3047 722 3315 
Q 1072 3584 1716 3584 
Q 2034 3584 2315 3537 
Q 2597 3491 2834 3397 
z
" transform="scale(0.015625)"/>
      </defs>
      <use xlink:href="#DejaVuSans-4c"/>
      <use xlink:href="#DejaVuSans-6f" x="53.962891"/>
      <use xlink:href="#DejaVuSans-73" x="115.144531"/>
      <use xlink:href="#DejaVuSans-73" x="167.244141"/>
     </g>
    </g>
   </g>
   <g id="line2d_25">
    <path d="M 73.832727 241.430562 
L 75.039621 238.393731 
L 76.246516 234.325649 
L 77.45341 229.409012 
L 78.660304 223.453795 
L 79.867198 216.311668 
L 81.074093 207.765213 
L 82.280987 198.076612 
L 84.694775 175.761379 
L 89.522352 129.422368 
L 91.936141 108.358717 
L 94.349929 90.541338 
L 95.556823 82.722962 
L 96.763717 75.899428 
L 97.970612 70.257904 
L 99.177506 65.654697 
L 100.3844 61.939261 
L 101.591294 59.090484 
L 102.798189 57.176302 
L 104.005083 55.873797 
L 105.211977 54.843173 
L 106.418871 54.34278 
L 107.625765 54.024119 
L 108.83266 53.912075 
L 110.039554 53.928048 
L 112.453342 54.134308 
L 114.867131 54.005491 
L 117.280919 53.879665 
L 119.694708 53.568 
L 120.901602 53.753672 
L 122.108496 53.69018 
L 124.522285 54.9545 
L 125.729179 56.708024 
L 126.936073 58.125838 
L 128.142967 60.860507 
L 130.556756 67.312403 
L 132.970544 75.343656 
L 135.384333 84.190023 
L 137.798121 92.880768 
L 140.211909 100.658031 
L 141.418804 103.886392 
L 142.625698 106.249212 
L 143.832592 107.386612 
L 145.039486 108.105781 
L 146.246381 108.02482 
L 147.453275 106.856738 
L 148.660169 105.108251 
L 149.867063 102.607363 
L 153.487746 94.291923 
L 155.901534 90.260544 
L 157.108429 89.326349 
L 158.315323 89.902224 
L 159.522217 92.051261 
L 160.729111 95.403508 
L 161.936005 96.991485 
L 163.1429 97.071456 
L 164.349794 96.21721 
L 165.556688 95.56128 
L 166.763582 95.944045 
L 167.970477 97.537942 
L 169.177371 100.326031 
L 170.384265 104.772668 
L 174.004948 121.031572 
L 175.211842 125.308785 
L 176.418736 128.241401 
L 177.62563 129.946952 
L 178.832525 131.343483 
L 180.039419 133.648985 
L 181.246313 137.777572 
L 182.453207 144.563692 
L 183.660101 154.285798 
L 186.07389 133.395354 
L 187.280784 125.364501 
L 188.487678 120.229461 
L 189.694572 117.074075 
L 190.901467 116.201327 
L 192.108361 116.470468 
L 193.315255 117.292493 
L 194.522149 119.336947 
L 195.729044 121.020383 
L 196.935938 123.170874 
L 198.142832 125.064763 
L 199.349726 125.965432 
L 200.55662 127.281865 
L 201.763515 125.746423 
L 202.970409 124.556784 
L 204.177303 122.353295 
L 205.384197 119.497816 
L 206.591092 116.171172 
L 209.00488 110.402264 
L 210.211774 107.348491 
L 211.418668 106.094328 
L 212.625563 102.621165 
L 213.832457 101.236477 
L 215.039351 101.454622 
L 216.246245 99.746384 
L 217.45314 99.760018 
L 218.660034 99.419377 
L 219.866928 98.902611 
L 221.073822 97.670932 
L 222.280716 96.867999 
L 223.487611 97.243451 
L 224.694505 96.252528 
L 225.901399 96.479776 
L 227.108293 95.720421 
L 228.315188 96.218074 
L 229.522082 94.820574 
L 230.728976 94.366878 
L 233.142764 91.711485 
L 234.349659 91.921854 
L 235.556553 91.261435 
L 236.763447 90.7944 
L 237.970341 89.170116 
L 239.177236 88.85746 
L 240.38413 88.173355 
L 242.797918 87.280842 
L 244.004812 87.557864 
L 245.211707 86.978427 
L 246.418601 85.677567 
L 247.625495 85.508774 
L 248.832389 84.905631 
L 250.039284 84.527039 
L 252.453072 83.939721 
L 253.659966 82.763843 
L 254.86686 82.405585 
L 256.073755 82.766793 
L 257.280649 82.661977 
L 258.487543 81.866777 
L 259.694437 81.620648 
L 260.901332 81.83382 
L 262.108226 81.028547 
L 263.31512 80.470225 
L 264.522014 80.266937 
L 265.728908 80.504363 
L 266.935803 78.892785 
L 268.142697 79.085011 
L 269.349591 78.33969 
L 271.76338 78.730125 
L 272.970274 77.728939 
L 274.177168 78.237066 
L 275.384062 78.088335 
L 276.590956 77.466964 
L 277.797851 77.195526 
L 279.004745 76.348803 
L 280.211639 77.033224 
L 281.418533 76.204244 
L 282.625428 76.301116 
L 283.832322 75.420951 
L 285.039216 75.651296 
L 286.24611 76.074394 
L 287.453004 75.485539 
L 288.659899 75.371367 
L 289.866793 74.810285 
L 291.073687 74.570435 
L 292.280581 74.713266 
L 294.69437 73.425533 
L 295.901264 74.160655 
L 297.108158 73.530412 
L 298.315052 73.735703 
L 299.521947 73.374727 
L 300.728841 72.782858 
L 301.935735 72.82631 
L 303.142629 72.699536 
L 304.349523 72.126337 
L 305.556418 72.418932 
L 306.763312 72.563449 
L 307.970206 71.220801 
L 309.1771 71.710615 
L 312.797783 71.004784 
L 315.211571 71.704946 
L 316.418466 70.389672 
L 317.62536 70.568137 
L 318.832254 71.493397 
L 320.039148 70.461172 
L 322.452937 69.48913 
L 323.659831 69.831814 
L 324.866725 69.382881 
L 326.073619 69.59089 
L 327.280514 69.11138 
L 328.487408 69.695832 
L 329.694302 69.114794 
L 330.901196 69.33492 
L 332.108091 68.950385 
L 333.314985 68.394487 
L 335.728773 67.819855 
L 338.142562 68.405908 
L 339.349456 67.20548 
L 340.55635 67.983695 
L 341.763244 68.23425 
L 342.970139 68.169198 
L 344.177033 66.897902 
L 345.383927 67.134275 
L 346.590821 66.566028 
L 347.797715 66.630953 
L 349.00461 66.470274 
L 350.211504 67.290824 
L 351.418398 66.603074 
L 352.625292 66.112249 
L 353.832187 66.391083 
L 356.245975 65.656298 
L 357.452869 66.400565 
L 358.659763 66.188764 
L 359.866658 64.963364 
L 361.073552 65.417481 
L 362.280446 65.208925 
L 364.694235 64.439918 
L 365.901129 64.990696 
L 367.108023 64.861309 
L 368.314917 64.537843 
L 369.521811 64.887229 
L 370.728706 64.365489 
L 371.9356 65.368993 
L 373.142494 64.147597 
L 374.349388 64.374171 
L 375.556283 64.213471 
L 377.970071 63.533096 
L 379.176965 62.643849 
L 380.383859 62.903401 
L 381.590754 63.413972 
L 382.797648 63.097123 
L 384.004542 63.147866 
L 385.211436 63.530104 
L 386.418331 62.742616 
L 388.832119 62.36984 
L 390.039013 62.586173 
L 391.245907 62.218938 
L 392.452802 61.579824 
L 393.659696 62.189563 
L 394.86659 62.329254 
L 396.073484 62.589607 
L 397.280379 61.622939 
L 398.487273 61.263565 
L 398.487273 61.263565 
" clip-path="url(#pebac31b447)" style="fill: none; stroke: #6495ed; stroke-width: 2; stroke-linecap: square"/>
   </g>
   <g id="line2d_26">
    <path d="M 73.832727 241.744955 
L 75.039621 242.560277 
L 76.246516 243.954966 
L 78.660304 247.544523 
L 81.074093 251.665469 
L 84.694775 258.087874 
L 85.901669 259.969348 
L 88.315458 263.26862 
L 89.522352 264.601715 
L 93.143035 267.902451 
L 94.349929 268.700032 
L 95.556823 269.70257 
L 99.177506 271.908405 
L 104.005083 274.276135 
L 105.211977 274.766362 
L 106.418871 275.410967 
L 112.453342 277.855201 
L 114.867131 278.863779 
L 124.522285 282.433469 
L 129.349861 283.625955 
L 132.970544 284.162779 
L 137.798121 284.364536 
L 139.005015 284.414724 
L 141.418804 284.253405 
L 143.832592 284.298051 
L 145.039486 284.281738 
L 147.453275 284.57254 
L 148.660169 284.668525 
L 149.867063 285.086415 
L 152.280852 285.299619 
L 153.487746 285.798032 
L 154.69464 285.799578 
L 155.901534 285.611705 
L 157.108429 286.121201 
L 158.315323 285.837828 
L 159.522217 285.138034 
L 160.729111 285.37214 
L 161.936005 284.860828 
L 163.1429 284.209209 
L 164.349794 285.196432 
L 165.556688 285.05249 
L 166.763582 284.412857 
L 167.970477 285.450458 
L 169.177371 285.035521 
L 170.384265 283.977592 
L 171.591159 284.698405 
L 172.798053 283.950687 
L 174.004948 282.684064 
L 175.211842 283.372194 
L 176.418736 282.664834 
L 177.62563 281.580026 
L 178.832525 282.527888 
L 180.039419 281.755281 
L 181.246313 280.065373 
L 182.453207 280.145227 
L 183.660101 277.654803 
L 184.866996 277.762761 
L 186.07389 280.24328 
L 187.280784 280.341123 
L 188.487678 279.611331 
L 189.694572 281.733418 
L 192.108361 281.338253 
L 193.315255 283.426294 
L 195.729044 283.856742 
L 196.935938 285.240239 
L 198.142832 285.358174 
L 199.349726 285.605544 
L 200.55662 286.226377 
L 202.970409 286.584273 
L 204.177303 287.130843 
L 205.384197 287.26191 
L 206.591092 287.557842 
L 207.797986 287.981797 
L 209.00488 288.081622 
L 211.418668 288.634401 
L 213.832457 289.005636 
L 215.039351 289.201605 
L 216.246245 289.250062 
L 218.660034 289.682735 
L 219.866928 289.67884 
L 222.280716 290.225636 
L 223.487611 290.146058 
L 225.901399 290.558202 
L 227.108293 290.54801 
L 228.315188 290.657818 
L 229.522082 290.882763 
L 230.728976 290.857685 
L 233.142764 291.243162 
L 234.349659 291.175966 
L 236.763447 291.443454 
L 239.177236 291.640241 
L 240.38413 291.751381 
L 241.591024 291.721955 
L 244.004812 291.917161 
L 245.211707 291.892408 
L 246.418601 292.091518 
L 251.246178 292.35244 
L 252.453072 292.296933 
L 253.659966 292.494762 
L 254.86686 292.56257 
L 256.073755 292.478233 
L 258.487543 292.689845 
L 259.694437 292.635536 
L 262.108226 292.816601 
L 263.31512 292.78217 
L 264.522014 292.926045 
L 266.935803 292.959923 
L 269.349591 293.142142 
L 270.556485 293.073807 
L 272.970274 293.259563 
L 274.177168 293.168488 
L 276.590956 293.356455 
L 277.797851 293.307002 
L 279.004745 293.473646 
L 281.418533 293.41674 
L 283.832322 293.584407 
L 285.039216 293.506679 
L 287.453004 293.630821 
L 288.659899 293.57985 
L 289.866793 293.727612 
L 293.487475 293.8316 
L 294.69437 293.860885 
L 295.901264 293.760246 
L 297.108158 293.926269 
L 299.521947 293.848775 
L 300.728841 294.010864 
L 303.142629 293.928099 
L 304.349523 294.103197 
L 306.763312 293.981696 
L 307.970206 294.195099 
L 310.383995 294.091094 
L 311.590889 294.248454 
L 315.211571 294.268847 
L 320.039148 294.32423 
L 321.246043 294.292147 
L 322.452937 294.456706 
L 324.866725 294.35703 
L 326.073619 294.494452 
L 328.487408 294.377036 
L 329.694302 294.56491 
L 332.108091 294.442967 
L 333.314985 294.635491 
L 335.728773 294.543443 
L 336.935667 294.689348 
L 339.349456 294.614069 
L 340.55635 294.72901 
L 342.970139 294.598898 
L 344.177033 294.815792 
L 346.590821 294.700001 
L 347.797715 294.850129 
L 350.211504 294.691697 
L 351.418398 294.88651 
L 353.832187 294.769847 
L 355.039081 294.955362 
L 357.452869 294.790674 
L 358.659763 294.962507 
L 359.866658 294.971725 
L 361.073552 294.851348 
L 362.280446 295.03524 
L 364.694235 294.941462 
L 365.901129 295.074106 
L 368.314917 294.970268 
L 369.521811 295.122696 
L 371.9356 294.951098 
L 373.142494 295.179349 
L 375.556283 295.02643 
L 376.763177 295.197421 
L 379.176965 295.119573 
L 380.383859 295.283677 
L 382.797648 295.128554 
L 384.004542 295.303462 
L 386.418331 295.176789 
L 387.625225 295.365705 
L 390.039013 295.217908 
L 391.245907 295.402138 
L 393.659696 295.255453 
L 394.86659 295.417879 
L 397.280379 295.307225 
L 398.487273 295.488 
L 398.487273 295.488 
" clip-path="url(#pebac31b447)" style="fill: none; stroke: #dc143c; stroke-width: 2; stroke-linecap: square"/>
   </g>
   <g id="line2d_27">
    <path d="M 73.832727 247.215018 
L 76.246516 247.215018 
L 77.45341 244.173833 
L 79.867198 244.173833 
L 81.074093 244.471124 
L 83.487881 244.471124 
L 84.694775 244.74076 
L 94.349929 244.633597 
L 95.556823 244.286181 
L 97.970612 244.286181 
L 99.177506 243.727896 
L 101.591294 243.727896 
L 102.798189 242.99331 
L 105.211977 242.99331 
L 106.418871 242.004644 
L 108.83266 242.004644 
L 110.039554 241.286479 
L 112.453342 241.286479 
L 113.660237 240.696217 
L 116.074025 240.696217 
L 117.280919 240.105092 
L 119.694708 240.105092 
L 120.901602 239.621129 
L 123.31539 239.621129 
L 124.522285 239.389519 
L 130.556756 239.453471 
L 131.76365 239.754219 
L 134.177438 239.754219 
L 135.384333 240.298677 
L 137.798121 240.298677 
L 139.005015 241.145611 
L 141.418804 241.145611 
L 142.625698 242.05304 
L 145.039486 242.05304 
L 146.246381 243.185167 
L 148.660169 243.185167 
L 149.867063 243.632832 
L 152.280852 243.632832 
L 153.487746 243.978519 
L 155.901534 243.978519 
L 157.108429 244.165191 
L 159.522217 244.165191 
L 160.729111 244.346676 
L 174.004948 244.441741 
L 175.211842 244.569645 
L 177.62563 244.569645 
L 178.832525 244.108152 
L 181.246313 244.108152 
L 182.453207 243.650116 
L 184.866996 243.650116 
L 186.07389 243.231835 
L 188.487678 243.231835 
L 189.694572 242.246625 
L 192.108361 242.246625 
L 193.315255 241.09635 
L 195.729044 241.09635 
L 196.935938 239.831999 
L 199.349726 239.831999 
L 200.55662 238.463076 
L 202.970409 238.463076 
L 204.177303 237.597129 
L 206.591092 237.597129 
L 207.797986 237.056129 
L 210.211774 237.056129 
L 211.418668 236.338827 
L 213.832457 236.338827 
L 215.039351 235.785727 
L 217.45314 235.785727 
L 218.660034 235.230035 
L 221.073822 235.230035 
L 222.280716 234.641502 
L 224.694505 234.641502 
L 225.901399 234.230134 
L 228.315188 234.230134 
L 229.522082 233.855063 
L 231.93587 233.855063 
L 233.142764 233.562957 
L 235.556553 233.562957 
L 236.763447 233.348631 
L 239.177236 233.348631 
L 240.38413 233.167145 
L 242.797918 233.167145 
L 244.004812 233.018499 
L 250.039284 232.935534 
L 252.453072 232.824914 
L 257.280649 232.760098 
L 259.694437 232.688368 
L 260.901332 232.688368 
L 262.108226 232.534537 
L 264.522014 232.534537 
L 265.728908 232.408361 
L 271.76338 232.327125 
L 274.177168 232.252802 
L 279.004745 232.19922 
L 281.418533 232.13354 
L 286.24611 232.030698 
L 288.659899 231.920942 
L 293.487475 231.844891 
L 298.315052 231.753283 
L 304.349523 231.682418 
L 309.1771 231.549328 
L 315.211571 231.499203 
L 317.62536 231.411053 
L 329.694302 231.309075 
L 332.108091 231.24858 
L 336.935667 231.189813 
L 339.349456 231.129318 
L 347.797715 231.034254 
L 368.314917 230.702394 
L 376.763177 230.609058 
L 379.176965 230.548563 
L 387.625225 230.448313 
L 390.039013 230.370534 
L 398.487273 230.259914 
L 398.487273 230.259914 
" clip-path="url(#pebac31b447)" style="fill: none; stroke: #ffff00; stroke-width: 3; stroke-linecap: square"/>
   </g>
   <g id="patch_3">
    <path d="M 57.6 307.584 
L 57.6 41.472 
" style="fill: none; stroke: #ffffff; stroke-linejoin: miter; stroke-linecap: square"/>
   </g>
   <g id="patch_4">
    <path d="M 414.72 307.584 
L 414.72 41.472 
" style="fill: none; stroke: #ffffff; stroke-linejoin: miter; stroke-linecap: square"/>
   </g>
   <g id="patch_5">
    <path d="M 57.6 307.584 
L 414.72 307.584 
" style="fill: none; stroke: #ffffff; stroke-linejoin: miter; stroke-linecap: square"/>
   </g>
   <g id="patch_6">
    <path d="M 57.6 41.472 
L 414.72 41.472 
" style="fill: none; stroke: #ffffff; stroke-linejoin: miter; stroke-linecap: square"/>
   </g>
   <g id="legend_1">
    <g id="patch_7">
     <path d="M 243.124687 302.584 
L 407.72 302.584 
Q 409.72 302.584 409.72 300.584 
L 409.72 257.549625 
Q 409.72 255.549625 407.72 255.549625 
L 243.124687 255.549625 
Q 241.124687 255.549625 241.124687 257.549625 
L 241.124687 300.584 
Q 241.124687 302.584 243.124687 302.584 
z
" style="fill: #e5e5e5; opacity: 0.8; stroke: #cccccc; stroke-width: 0.5; stroke-linejoin: miter"/>
    </g>
    <g id="line2d_28">
     <path d="M 245.124687 263.648062 
L 255.124687 263.648062 
L 265.124687 263.648062 
" style="fill: none; stroke: #6495ed; stroke-width: 2; stroke-linecap: square"/>
    </g>
    <g id="text_15">
     <!-- Generator loss -->
     <g transform="translate(273.124687 267.148062) scale(0.1 -0.1)">
      <defs>
       <path id="DejaVuSans-47" d="M 3809 666 
L 3809 1919 
L 2778 1919 
L 2778 2438 
L 4434 2438 
L 4434 434 
Q 4069 175 3628 42 
Q 3188 -91 2688 -91 
Q 1594 -91 976 548 
Q 359 1188 359 2328 
Q 359 3472 976 4111 
Q 1594 4750 2688 4750 
Q 3144 4750 3555 4637 
Q 3966 4525 4313 4306 
L 4313 3634 
Q 3963 3931 3569 4081 
Q 3175 4231 2741 4231 
Q 1884 4231 1454 3753 
Q 1025 3275 1025 2328 
Q 1025 1384 1454 906 
Q 1884 428 2741 428 
Q 3075 428 3337 486 
Q 3600 544 3809 666 
z
" transform="scale(0.015625)"/>
       <path id="DejaVuSans-65" d="M 3597 1894 
L 3597 1613 
L 953 1613 
Q 991 1019 1311 708 
Q 1631 397 2203 397 
Q 2534 397 2845 478 
Q 3156 559 3463 722 
L 3463 178 
Q 3153 47 2828 -22 
Q 2503 -91 2169 -91 
Q 1331 -91 842 396 
Q 353 884 353 1716 
Q 353 2575 817 3079 
Q 1281 3584 2069 3584 
Q 2775 3584 3186 3129 
Q 3597 2675 3597 1894 
z
M 3022 2063 
Q 3016 2534 2758 2815 
Q 2500 3097 2075 3097 
Q 1594 3097 1305 2825 
Q 1016 2553 972 2059 
L 3022 2063 
z
" transform="scale(0.015625)"/>
       <path id="DejaVuSans-6e" d="M 3513 2113 
L 3513 0 
L 2938 0 
L 2938 2094 
Q 2938 2591 2744 2837 
Q 2550 3084 2163 3084 
Q 1697 3084 1428 2787 
Q 1159 2491 1159 1978 
L 1159 0 
L 581 0 
L 581 3500 
L 1159 3500 
L 1159 2956 
Q 1366 3272 1645 3428 
Q 1925 3584 2291 3584 
Q 2894 3584 3203 3211 
Q 3513 2838 3513 2113 
z
" transform="scale(0.015625)"/>
       <path id="DejaVuSans-72" d="M 2631 2963 
Q 2534 3019 2420 3045 
Q 2306 3072 2169 3072 
Q 1681 3072 1420 2755 
Q 1159 2438 1159 1844 
L 1159 0 
L 581 0 
L 581 3500 
L 1159 3500 
L 1159 2956 
Q 1341 3275 1631 3429 
Q 1922 3584 2338 3584 
Q 2397 3584 2469 3576 
Q 2541 3569 2628 3553 
L 2631 2963 
z
" transform="scale(0.015625)"/>
       <path id="DejaVuSans-61" d="M 2194 1759 
Q 1497 1759 1228 1600 
Q 959 1441 959 1056 
Q 959 750 1161 570 
Q 1363 391 1709 391 
Q 2188 391 2477 730 
Q 2766 1069 2766 1631 
L 2766 1759 
L 2194 1759 
z
M 3341 1997 
L 3341 0 
L 2766 0 
L 2766 531 
Q 2569 213 2275 61 
Q 1981 -91 1556 -91 
Q 1019 -91 701 211 
Q 384 513 384 1019 
Q 384 1609 779 1909 
Q 1175 2209 1959 2209 
L 2766 2209 
L 2766 2266 
Q 2766 2663 2505 2880 
Q 2244 3097 1772 3097 
Q 1472 3097 1187 3025 
Q 903 2953 641 2809 
L 641 3341 
Q 956 3463 1253 3523 
Q 1550 3584 1831 3584 
Q 2591 3584 2966 3190 
Q 3341 2797 3341 1997 
z
" transform="scale(0.015625)"/>
       <path id="DejaVuSans-74" d="M 1172 4494 
L 1172 3500 
L 2356 3500 
L 2356 3053 
L 1172 3053 
L 1172 1153 
Q 1172 725 1289 603 
Q 1406 481 1766 481 
L 2356 481 
L 2356 0 
L 1766 0 
Q 1100 0 847 248 
Q 594 497 594 1153 
L 594 3053 
L 172 3053 
L 172 3500 
L 594 3500 
L 594 4494 
L 1172 4494 
z
" transform="scale(0.015625)"/>
       <path id="DejaVuSans-20" transform="scale(0.015625)"/>
       <path id="DejaVuSans-6c" d="M 603 4863 
L 1178 4863 
L 1178 0 
L 603 0 
L 603 4863 
z
" transform="scale(0.015625)"/>
      </defs>
      <use xlink:href="#DejaVuSans-47"/>
      <use xlink:href="#DejaVuSans-65" x="77.490234"/>
      <use xlink:href="#DejaVuSans-6e" x="139.013672"/>
      <use xlink:href="#DejaVuSans-65" x="202.392578"/>
      <use xlink:href="#DejaVuSans-72" x="263.916016"/>
      <use xlink:href="#DejaVuSans-61" x="305.029297"/>
      <use xlink:href="#DejaVuSans-74" x="366.308594"/>
      <use xlink:href="#DejaVuSans-6f" x="405.517578"/>
      <use xlink:href="#DejaVuSans-72" x="466.699219"/>
      <use xlink:href="#DejaVuSans-20" x="507.8125"/>
      <use xlink:href="#DejaVuSans-6c" x="539.599609"/>
      <use xlink:href="#DejaVuSans-6f" x="567.382812"/>
      <use xlink:href="#DejaVuSans-73" x="628.564453"/>
      <use xlink:href="#DejaVuSans-73" x="680.664062"/>
     </g>
    </g>
    <g id="line2d_29">
     <path d="M 245.124687 278.326188 
L 255.124687 278.326188 
L 265.124687 278.326188 
" style="fill: none; stroke: #dc143c; stroke-width: 2; stroke-linecap: square"/>
    </g>
    <g id="text_16">
     <!-- Average discriminator loss -->
     <g transform="translate(273.124687 281.826188) scale(0.1 -0.1)">
      <defs>
       <path id="DejaVuSans-41" d="M 2188 4044 
L 1331 1722 
L 3047 1722 
L 2188 4044 
z
M 1831 4666 
L 2547 4666 
L 4325 0 
L 3669 0 
L 3244 1197 
L 1141 1197 
L 716 0 
L 50 0 
L 1831 4666 
z
" transform="scale(0.015625)"/>
       <path id="DejaVuSans-76" d="M 191 3500 
L 800 3500 
L 1894 563 
L 2988 3500 
L 3597 3500 
L 2284 0 
L 1503 0 
L 191 3500 
z
" transform="scale(0.015625)"/>
       <path id="DejaVuSans-67" d="M 2906 1791 
Q 2906 2416 2648 2759 
Q 2391 3103 1925 3103 
Q 1463 3103 1205 2759 
Q 947 2416 947 1791 
Q 947 1169 1205 825 
Q 1463 481 1925 481 
Q 2391 481 2648 825 
Q 2906 1169 2906 1791 
z
M 3481 434 
Q 3481 -459 3084 -895 
Q 2688 -1331 1869 -1331 
Q 1566 -1331 1297 -1286 
Q 1028 -1241 775 -1147 
L 775 -588 
Q 1028 -725 1275 -790 
Q 1522 -856 1778 -856 
Q 2344 -856 2625 -561 
Q 2906 -266 2906 331 
L 2906 616 
Q 2728 306 2450 153 
Q 2172 0 1784 0 
Q 1141 0 747 490 
Q 353 981 353 1791 
Q 353 2603 747 3093 
Q 1141 3584 1784 3584 
Q 2172 3584 2450 3431 
Q 2728 3278 2906 2969 
L 2906 3500 
L 3481 3500 
L 3481 434 
z
" transform="scale(0.015625)"/>
       <path id="DejaVuSans-64" d="M 2906 2969 
L 2906 4863 
L 3481 4863 
L 3481 0 
L 2906 0 
L 2906 525 
Q 2725 213 2448 61 
Q 2172 -91 1784 -91 
Q 1150 -91 751 415 
Q 353 922 353 1747 
Q 353 2572 751 3078 
Q 1150 3584 1784 3584 
Q 2172 3584 2448 3432 
Q 2725 3281 2906 2969 
z
M 947 1747 
Q 947 1113 1208 752 
Q 1469 391 1925 391 
Q 2381 391 2643 752 
Q 2906 1113 2906 1747 
Q 2906 2381 2643 2742 
Q 2381 3103 1925 3103 
Q 1469 3103 1208 2742 
Q 947 2381 947 1747 
z
" transform="scale(0.015625)"/>
       <path id="DejaVuSans-69" d="M 603 3500 
L 1178 3500 
L 1178 0 
L 603 0 
L 603 3500 
z
M 603 4863 
L 1178 4863 
L 1178 4134 
L 603 4134 
L 603 4863 
z
" transform="scale(0.015625)"/>
       <path id="DejaVuSans-6d" d="M 3328 2828 
Q 3544 3216 3844 3400 
Q 4144 3584 4550 3584 
Q 5097 3584 5394 3201 
Q 5691 2819 5691 2113 
L 5691 0 
L 5113 0 
L 5113 2094 
Q 5113 2597 4934 2840 
Q 4756 3084 4391 3084 
Q 3944 3084 3684 2787 
Q 3425 2491 3425 1978 
L 3425 0 
L 2847 0 
L 2847 2094 
Q 2847 2600 2669 2842 
Q 2491 3084 2119 3084 
Q 1678 3084 1418 2786 
Q 1159 2488 1159 1978 
L 1159 0 
L 581 0 
L 581 3500 
L 1159 3500 
L 1159 2956 
Q 1356 3278 1631 3431 
Q 1906 3584 2284 3584 
Q 2666 3584 2933 3390 
Q 3200 3197 3328 2828 
z
" transform="scale(0.015625)"/>
      </defs>
      <use xlink:href="#DejaVuSans-41"/>
      <use xlink:href="#DejaVuSans-76" x="62.533203"/>
      <use xlink:href="#DejaVuSans-65" x="121.712891"/>
      <use xlink:href="#DejaVuSans-72" x="183.236328"/>
      <use xlink:href="#DejaVuSans-61" x="224.349609"/>
      <use xlink:href="#DejaVuSans-67" x="285.628906"/>
      <use xlink:href="#DejaVuSans-65" x="349.105469"/>
      <use xlink:href="#DejaVuSans-20" x="410.628906"/>
      <use xlink:href="#DejaVuSans-64" x="442.416016"/>
      <use xlink:href="#DejaVuSans-69" x="505.892578"/>
      <use xlink:href="#DejaVuSans-73" x="533.675781"/>
      <use xlink:href="#DejaVuSans-63" x="585.775391"/>
      <use xlink:href="#DejaVuSans-72" x="640.755859"/>
      <use xlink:href="#DejaVuSans-69" x="681.869141"/>
      <use xlink:href="#DejaVuSans-6d" x="709.652344"/>
      <use xlink:href="#DejaVuSans-69" x="807.064453"/>
      <use xlink:href="#DejaVuSans-6e" x="834.847656"/>
      <use xlink:href="#DejaVuSans-61" x="898.226562"/>
      <use xlink:href="#DejaVuSans-74" x="959.505859"/>
      <use xlink:href="#DejaVuSans-6f" x="998.714844"/>
      <use xlink:href="#DejaVuSans-72" x="1059.896484"/>
      <use xlink:href="#DejaVuSans-20" x="1101.009766"/>
      <use xlink:href="#DejaVuSans-6c" x="1132.796875"/>
      <use xlink:href="#DejaVuSans-6f" x="1160.580078"/>
      <use xlink:href="#DejaVuSans-73" x="1221.761719"/>
      <use xlink:href="#DejaVuSans-73" x="1273.861328"/>
     </g>
    </g>
    <g id="line2d_30">
     <path d="M 245.124687 293.004312 
L 255.124687 293.004312 
L 265.124687 293.004312 
" style="fill: none; stroke: #ffff00; stroke-width: 3; stroke-linecap: square"/>
    </g>
    <g id="text_17">
     <!-- ROC AUC -->
     <g transform="translate(273.124687 296.504312) scale(0.1 -0.1)">
      <defs>
       <path id="DejaVuSans-52" d="M 2841 2188 
Q 3044 2119 3236 1894 
Q 3428 1669 3622 1275 
L 4263 0 
L 3584 0 
L 2988 1197 
Q 2756 1666 2539 1819 
Q 2322 1972 1947 1972 
L 1259 1972 
L 1259 0 
L 628 0 
L 628 4666 
L 2053 4666 
Q 2853 4666 3247 4331 
Q 3641 3997 3641 3322 
Q 3641 2881 3436 2590 
Q 3231 2300 2841 2188 
z
M 1259 4147 
L 1259 2491 
L 2053 2491 
Q 2509 2491 2742 2702 
Q 2975 2913 2975 3322 
Q 2975 3731 2742 3939 
Q 2509 4147 2053 4147 
L 1259 4147 
z
" transform="scale(0.015625)"/>
       <path id="DejaVuSans-4f" d="M 2522 4238 
Q 1834 4238 1429 3725 
Q 1025 3213 1025 2328 
Q 1025 1447 1429 934 
Q 1834 422 2522 422 
Q 3209 422 3611 934 
Q 4013 1447 4013 2328 
Q 4013 3213 3611 3725 
Q 3209 4238 2522 4238 
z
M 2522 4750 
Q 3503 4750 4090 4092 
Q 4678 3434 4678 2328 
Q 4678 1225 4090 567 
Q 3503 -91 2522 -91 
Q 1538 -91 948 565 
Q 359 1222 359 2328 
Q 359 3434 948 4092 
Q 1538 4750 2522 4750 
z
" transform="scale(0.015625)"/>
       <path id="DejaVuSans-43" d="M 4122 4306 
L 4122 3641 
Q 3803 3938 3442 4084 
Q 3081 4231 2675 4231 
Q 1875 4231 1450 3742 
Q 1025 3253 1025 2328 
Q 1025 1406 1450 917 
Q 1875 428 2675 428 
Q 3081 428 3442 575 
Q 3803 722 4122 1019 
L 4122 359 
Q 3791 134 3420 21 
Q 3050 -91 2638 -91 
Q 1578 -91 968 557 
Q 359 1206 359 2328 
Q 359 3453 968 4101 
Q 1578 4750 2638 4750 
Q 3056 4750 3426 4639 
Q 3797 4528 4122 4306 
z
" transform="scale(0.015625)"/>
       <path id="DejaVuSans-55" d="M 556 4666 
L 1191 4666 
L 1191 1831 
Q 1191 1081 1462 751 
Q 1734 422 2344 422 
Q 2950 422 3222 751 
Q 3494 1081 3494 1831 
L 3494 4666 
L 4128 4666 
L 4128 1753 
Q 4128 841 3676 375 
Q 3225 -91 2344 -91 
Q 1459 -91 1007 375 
Q 556 841 556 1753 
L 556 4666 
z
" transform="scale(0.015625)"/>
      </defs>
      <use xlink:href="#DejaVuSans-52"/>
      <use xlink:href="#DejaVuSans-4f" x="69.482422"/>
      <use xlink:href="#DejaVuSans-43" x="148.193359"/>
      <use xlink:href="#DejaVuSans-20" x="218.017578"/>
      <use xlink:href="#DejaVuSans-41" x="249.804688"/>
      <use xlink:href="#DejaVuSans-55" x="318.212891"/>
      <use xlink:href="#DejaVuSans-43" x="391.40625"/>
     </g>
    </g>
   </g>
  </g>
 </g>
 <defs>
  <clipPath id="pebac31b447">
   <rect x="57.6" y="41.472" width="357.12" height="266.112"/>
  </clipPath>
 </defs>
</svg>
