<?xml version="1.0" encoding="utf-8" standalone="no"?>
<!DOCTYPE svg PUBLIC "-//W3C//DTD SVG 1.1//EN"
  "http://www.w3.org/Graphics/SVG/1.1/DTD/svg11.dtd">
<svg xmlns:xlink="http://www.w3.org/1999/xlink" width="460.8pt" height="345.6pt" viewBox="0 0 460.8 345.6" xmlns="http://www.w3.org/2000/svg" version="1.1">
 <metadata>
  <rdf:RDF xmlns:dc="http://purl.org/dc/elements/1.1/" xmlns:cc="http://creativecommons.org/ns#" xmlns:rdf="http://www.w3.org/1999/02/22-rdf-syntax-ns#">
   <cc:Work>
    <dc:type rdf:resource="http://purl.org/dc/dcmitype/StillImage"/>
    <dc:date>2023-07-13T08:32:59.966597</dc:date>
    <dc:format>image/svg+xml</dc:format>
    <dc:creator>
     <cc:Agent>
      <dc:title>Matplotlib v3.7.1, https://matplotlib.org/</dc:title>
     </cc:Agent>
    </dc:creator>
   </cc:Work>
  </rdf:RDF>
 </metadata>
 <defs>
  <style type="text/css">*{stroke-linejoin: round; stroke-linecap: butt}</style>
 </defs>
 <g id="figure_1">
  <g id="patch_1">
   <path d="M 0 345.6 
L 460.8 345.6 
L 460.8 0 
L 0 0 
z
" style="fill: #ffffff"/>
  </g>
  <g id="axes_1">
   <g id="patch_2">
    <path d="M 57.6 307.584 
L 414.72 307.584 
L 414.72 41.472 
L 57.6 41.472 
z
" style="fill: #e5e5e5"/>
   </g>
   <g id="matplotlib.axis_1">
    <g id="xtick_1">
     <g id="line2d_1">
      <path d="M 72.625833 307.584 
L 72.625833 41.472 
" clip-path="url(#p92cf653537)" style="fill: none; stroke: #ffffff; stroke-width: 0.8; stroke-linecap: square"/>
     </g>
     <g id="line2d_2">
      <defs>
       <path id="me852d7cf1d" d="M 0 0 
L 0 3.5 
" style="stroke: #555555; stroke-width: 0.8"/>
      </defs>
      <g>
       <use xlink:href="#me852d7cf1d" x="72.625833" y="307.584" style="fill: #555555; stroke: #555555; stroke-width: 0.8"/>
      </g>
     </g>
     <g id="text_1">
      <!-- 0 -->
      <g style="fill: #555555" transform="translate(69.444583 322.182437) scale(0.1 -0.1)">
       <defs>
        <path id="DejaVuSans-30" d="M 2034 4250 
Q 1547 4250 1301 3770 
Q 1056 3291 1056 2328 
Q 1056 1369 1301 889 
Q 1547 409 2034 409 
Q 2525 409 2770 889 
Q 3016 1369 3016 2328 
Q 3016 3291 2770 3770 
Q 2525 4250 2034 4250 
z
M 2034 4750 
Q 2819 4750 3233 4129 
Q 3647 3509 3647 2328 
Q 3647 1150 3233 529 
Q 2819 -91 2034 -91 
Q 1250 -91 836 529 
Q 422 1150 422 2328 
Q 422 3509 836 4129 
Q 1250 4750 2034 4750 
z
" transform="scale(0.015625)"/>
       </defs>
       <use xlink:href="#DejaVuSans-30"/>
      </g>
     </g>
    </g>
    <g id="xtick_2">
     <g id="line2d_3">
      <path d="M 132.970544 307.584 
L 132.970544 41.472 
" clip-path="url(#p92cf653537)" style="fill: none; stroke: #ffffff; stroke-width: 0.8; stroke-linecap: square"/>
     </g>
     <g id="line2d_4">
      <g>
       <use xlink:href="#me852d7cf1d" x="132.970544" y="307.584" style="fill: #555555; stroke: #555555; stroke-width: 0.8"/>
      </g>
     </g>
     <g id="text_2">
      <!-- 50 -->
      <g style="fill: #555555" transform="translate(126.608044 322.182437) scale(0.1 -0.1)">
       <defs>
        <path id="DejaVuSans-35" d="M 691 4666 
L 3169 4666 
L 3169 4134 
L 1269 4134 
L 1269 2991 
Q 1406 3038 1543 3061 
Q 1681 3084 1819 3084 
Q 2600 3084 3056 2656 
Q 3513 2228 3513 1497 
Q 3513 744 3044 326 
Q 2575 -91 1722 -91 
Q 1428 -91 1123 -41 
Q 819 9 494 109 
L 494 744 
Q 775 591 1075 516 
Q 1375 441 1709 441 
Q 2250 441 2565 725 
Q 2881 1009 2881 1497 
Q 2881 1984 2565 2268 
Q 2250 2553 1709 2553 
Q 1456 2553 1204 2497 
Q 953 2441 691 2322 
L 691 4666 
z
" transform="scale(0.015625)"/>
       </defs>
       <use xlink:href="#DejaVuSans-35"/>
       <use xlink:href="#DejaVuSans-30" x="63.623047"/>
      </g>
     </g>
    </g>
    <g id="xtick_3">
     <g id="line2d_5">
      <path d="M 193.315255 307.584 
L 193.315255 41.472 
" clip-path="url(#p92cf653537)" style="fill: none; stroke: #ffffff; stroke-width: 0.8; stroke-linecap: square"/>
     </g>
     <g id="line2d_6">
      <g>
       <use xlink:href="#me852d7cf1d" x="193.315255" y="307.584" style="fill: #555555; stroke: #555555; stroke-width: 0.8"/>
      </g>
     </g>
     <g id="text_3">
      <!-- 100 -->
      <g style="fill: #555555" transform="translate(183.771505 322.182437) scale(0.1 -0.1)">
       <defs>
        <path id="DejaVuSans-31" d="M 794 531 
L 1825 531 
L 1825 4091 
L 703 3866 
L 703 4441 
L 1819 4666 
L 2450 4666 
L 2450 531 
L 3481 531 
L 3481 0 
L 794 0 
L 794 531 
z
" transform="scale(0.015625)"/>
       </defs>
       <use xlink:href="#DejaVuSans-31"/>
       <use xlink:href="#DejaVuSans-30" x="63.623047"/>
       <use xlink:href="#DejaVuSans-30" x="127.246094"/>
      </g>
     </g>
    </g>
    <g id="xtick_4">
     <g id="line2d_7">
      <path d="M 253.659966 307.584 
L 253.659966 41.472 
" clip-path="url(#p92cf653537)" style="fill: none; stroke: #ffffff; stroke-width: 0.8; stroke-linecap: square"/>
     </g>
     <g id="line2d_8">
      <g>
       <use xlink:href="#me852d7cf1d" x="253.659966" y="307.584" style="fill: #555555; stroke: #555555; stroke-width: 0.8"/>
      </g>
     </g>
     <g id="text_4">
      <!-- 150 -->
      <g style="fill: #555555" transform="translate(244.116216 322.182437) scale(0.1 -0.1)">
       <use xlink:href="#DejaVuSans-31"/>
       <use xlink:href="#DejaVuSans-35" x="63.623047"/>
       <use xlink:href="#DejaVuSans-30" x="127.246094"/>
      </g>
     </g>
    </g>
    <g id="xtick_5">
     <g id="line2d_9">
      <path d="M 314.004677 307.584 
L 314.004677 41.472 
" clip-path="url(#p92cf653537)" style="fill: none; stroke: #ffffff; stroke-width: 0.8; stroke-linecap: square"/>
     </g>
     <g id="line2d_10">
      <g>
       <use xlink:href="#me852d7cf1d" x="314.004677" y="307.584" style="fill: #555555; stroke: #555555; stroke-width: 0.8"/>
      </g>
     </g>
     <g id="text_5">
      <!-- 200 -->
      <g style="fill: #555555" transform="translate(304.460927 322.182437) scale(0.1 -0.1)">
       <defs>
        <path id="DejaVuSans-32" d="M 1228 531 
L 3431 531 
L 3431 0 
L 469 0 
L 469 531 
Q 828 903 1448 1529 
Q 2069 2156 2228 2338 
Q 2531 2678 2651 2914 
Q 2772 3150 2772 3378 
Q 2772 3750 2511 3984 
Q 2250 4219 1831 4219 
Q 1534 4219 1204 4116 
Q 875 4013 500 3803 
L 500 4441 
Q 881 4594 1212 4672 
Q 1544 4750 1819 4750 
Q 2544 4750 2975 4387 
Q 3406 4025 3406 3419 
Q 3406 3131 3298 2873 
Q 3191 2616 2906 2266 
Q 2828 2175 2409 1742 
Q 1991 1309 1228 531 
z
" transform="scale(0.015625)"/>
       </defs>
       <use xlink:href="#DejaVuSans-32"/>
       <use xlink:href="#DejaVuSans-30" x="63.623047"/>
       <use xlink:href="#DejaVuSans-30" x="127.246094"/>
      </g>
     </g>
    </g>
    <g id="xtick_6">
     <g id="line2d_11">
      <path d="M 374.349388 307.584 
L 374.349388 41.472 
" clip-path="url(#p92cf653537)" style="fill: none; stroke: #ffffff; stroke-width: 0.8; stroke-linecap: square"/>
     </g>
     <g id="line2d_12">
      <g>
       <use xlink:href="#me852d7cf1d" x="374.349388" y="307.584" style="fill: #555555; stroke: #555555; stroke-width: 0.8"/>
      </g>
     </g>
     <g id="text_6">
      <!-- 250 -->
      <g style="fill: #555555" transform="translate(364.805638 322.182437) scale(0.1 -0.1)">
       <use xlink:href="#DejaVuSans-32"/>
       <use xlink:href="#DejaVuSans-35" x="63.623047"/>
       <use xlink:href="#DejaVuSans-30" x="127.246094"/>
      </g>
     </g>
    </g>
    <g id="text_7">
     <!-- Epoch -->
     <g style="fill: #555555" transform="translate(217.786875 337.38025) scale(0.12 -0.12)">
      <defs>
       <path id="DejaVuSans-45" d="M 628 4666 
L 3578 4666 
L 3578 4134 
L 1259 4134 
L 1259 2753 
L 3481 2753 
L 3481 2222 
L 1259 2222 
L 1259 531 
L 3634 531 
L 3634 0 
L 628 0 
L 628 4666 
z
" transform="scale(0.015625)"/>
       <path id="DejaVuSans-70" d="M 1159 525 
L 1159 -1331 
L 581 -1331 
L 581 3500 
L 1159 3500 
L 1159 2969 
Q 1341 3281 1617 3432 
Q 1894 3584 2278 3584 
Q 2916 3584 3314 3078 
Q 3713 2572 3713 1747 
Q 3713 922 3314 415 
Q 2916 -91 2278 -91 
Q 1894 -91 1617 61 
Q 1341 213 1159 525 
z
M 3116 1747 
Q 3116 2381 2855 2742 
Q 2594 3103 2138 3103 
Q 1681 3103 1420 2742 
Q 1159 2381 1159 1747 
Q 1159 1113 1420 752 
Q 1681 391 2138 391 
Q 2594 391 2855 752 
Q 3116 1113 3116 1747 
z
" transform="scale(0.015625)"/>
       <path id="DejaVuSans-6f" d="M 1959 3097 
Q 1497 3097 1228 2736 
Q 959 2375 959 1747 
Q 959 1119 1226 758 
Q 1494 397 1959 397 
Q 2419 397 2687 759 
Q 2956 1122 2956 1747 
Q 2956 2369 2687 2733 
Q 2419 3097 1959 3097 
z
M 1959 3584 
Q 2709 3584 3137 3096 
Q 3566 2609 3566 1747 
Q 3566 888 3137 398 
Q 2709 -91 1959 -91 
Q 1206 -91 779 398 
Q 353 888 353 1747 
Q 353 2609 779 3096 
Q 1206 3584 1959 3584 
z
" transform="scale(0.015625)"/>
       <path id="DejaVuSans-63" d="M 3122 3366 
L 3122 2828 
Q 2878 2963 2633 3030 
Q 2388 3097 2138 3097 
Q 1578 3097 1268 2742 
Q 959 2388 959 1747 
Q 959 1106 1268 751 
Q 1578 397 2138 397 
Q 2388 397 2633 464 
Q 2878 531 3122 666 
L 3122 134 
Q 2881 22 2623 -34 
Q 2366 -91 2075 -91 
Q 1284 -91 818 406 
Q 353 903 353 1747 
Q 353 2603 823 3093 
Q 1294 3584 2113 3584 
Q 2378 3584 2631 3529 
Q 2884 3475 3122 3366 
z
" transform="scale(0.015625)"/>
       <path id="DejaVuSans-68" d="M 3513 2113 
L 3513 0 
L 2938 0 
L 2938 2094 
Q 2938 2591 2744 2837 
Q 2550 3084 2163 3084 
Q 1697 3084 1428 2787 
Q 1159 2491 1159 1978 
L 1159 0 
L 581 0 
L 581 4863 
L 1159 4863 
L 1159 2956 
Q 1366 3272 1645 3428 
Q 1925 3584 2291 3584 
Q 2894 3584 3203 3211 
Q 3513 2838 3513 2113 
z
" transform="scale(0.015625)"/>
      </defs>
      <use xlink:href="#DejaVuSans-45"/>
      <use xlink:href="#DejaVuSans-70" x="63.183594"/>
      <use xlink:href="#DejaVuSans-6f" x="126.660156"/>
      <use xlink:href="#DejaVuSans-63" x="187.841797"/>
      <use xlink:href="#DejaVuSans-68" x="242.822266"/>
     </g>
    </g>
   </g>
   <g id="matplotlib.axis_2">
    <g id="ytick_1">
     <g id="line2d_13">
      <path d="M 57.6 268.886357 
L 414.72 268.886357 
" clip-path="url(#p92cf653537)" style="fill: none; stroke: #ffffff; stroke-width: 0.8; stroke-linecap: square"/>
     </g>
     <g id="line2d_14">
      <defs>
       <path id="mac35fc832c" d="M 0 0 
L -3.5 0 
" style="stroke: #555555; stroke-width: 0.8"/>
      </defs>
      <g>
       <use xlink:href="#mac35fc832c" x="57.6" y="268.886357" style="fill: #555555; stroke: #555555; stroke-width: 0.8"/>
      </g>
     </g>
     <g id="text_8">
      <!-- 0.5 -->
      <g style="fill: #555555" transform="translate(34.696875 272.685576) scale(0.1 -0.1)">
       <defs>
        <path id="DejaVuSans-2e" d="M 684 794 
L 1344 794 
L 1344 0 
L 684 0 
L 684 794 
z
" transform="scale(0.015625)"/>
       </defs>
       <use xlink:href="#DejaVuSans-30"/>
       <use xlink:href="#DejaVuSans-2e" x="63.623047"/>
       <use xlink:href="#DejaVuSans-35" x="95.410156"/>
      </g>
     </g>
    </g>
    <g id="ytick_2">
     <g id="line2d_15">
      <path d="M 57.6 227.951703 
L 414.72 227.951703 
" clip-path="url(#p92cf653537)" style="fill: none; stroke: #ffffff; stroke-width: 0.8; stroke-linecap: square"/>
     </g>
     <g id="line2d_16">
      <g>
       <use xlink:href="#mac35fc832c" x="57.6" y="227.951703" style="fill: #555555; stroke: #555555; stroke-width: 0.8"/>
      </g>
     </g>
     <g id="text_9">
      <!-- 1.0 -->
      <g style="fill: #555555" transform="translate(34.696875 231.750922) scale(0.1 -0.1)">
       <use xlink:href="#DejaVuSans-31"/>
       <use xlink:href="#DejaVuSans-2e" x="63.623047"/>
       <use xlink:href="#DejaVuSans-30" x="95.410156"/>
      </g>
     </g>
    </g>
    <g id="ytick_3">
     <g id="line2d_17">
      <path d="M 57.6 187.01705 
L 414.72 187.01705 
" clip-path="url(#p92cf653537)" style="fill: none; stroke: #ffffff; stroke-width: 0.8; stroke-linecap: square"/>
     </g>
     <g id="line2d_18">
      <g>
       <use xlink:href="#mac35fc832c" x="57.6" y="187.01705" style="fill: #555555; stroke: #555555; stroke-width: 0.8"/>
      </g>
     </g>
     <g id="text_10">
      <!-- 1.5 -->
      <g style="fill: #555555" transform="translate(34.696875 190.816268) scale(0.1 -0.1)">
       <use xlink:href="#DejaVuSans-31"/>
       <use xlink:href="#DejaVuSans-2e" x="63.623047"/>
       <use xlink:href="#DejaVuSans-35" x="95.410156"/>
      </g>
     </g>
    </g>
    <g id="ytick_4">
     <g id="line2d_19">
      <path d="M 57.6 146.082396 
L 414.72 146.082396 
" clip-path="url(#p92cf653537)" style="fill: none; stroke: #ffffff; stroke-width: 0.8; stroke-linecap: square"/>
     </g>
     <g id="line2d_20">
      <g>
       <use xlink:href="#mac35fc832c" x="57.6" y="146.082396" style="fill: #555555; stroke: #555555; stroke-width: 0.8"/>
      </g>
     </g>
     <g id="text_11">
      <!-- 2.0 -->
      <g style="fill: #555555" transform="translate(34.696875 149.881615) scale(0.1 -0.1)">
       <use xlink:href="#DejaVuSans-32"/>
       <use xlink:href="#DejaVuSans-2e" x="63.623047"/>
       <use xlink:href="#DejaVuSans-30" x="95.410156"/>
      </g>
     </g>
    </g>
    <g id="ytick_5">
     <g id="line2d_21">
      <path d="M 57.6 105.147742 
L 414.72 105.147742 
" clip-path="url(#p92cf653537)" style="fill: none; stroke: #ffffff; stroke-width: 0.8; stroke-linecap: square"/>
     </g>
     <g id="line2d_22">
      <g>
       <use xlink:href="#mac35fc832c" x="57.6" y="105.147742" style="fill: #555555; stroke: #555555; stroke-width: 0.8"/>
      </g>
     </g>
     <g id="text_12">
      <!-- 2.5 -->
      <g style="fill: #555555" transform="translate(34.696875 108.946961) scale(0.1 -0.1)">
       <use xlink:href="#DejaVuSans-32"/>
       <use xlink:href="#DejaVuSans-2e" x="63.623047"/>
       <use xlink:href="#DejaVuSans-35" x="95.410156"/>
      </g>
     </g>
    </g>
    <g id="ytick_6">
     <g id="line2d_23">
      <path d="M 57.6 64.213088 
L 414.72 64.213088 
" clip-path="url(#p92cf653537)" style="fill: none; stroke: #ffffff; stroke-width: 0.8; stroke-linecap: square"/>
     </g>
     <g id="line2d_24">
      <g>
       <use xlink:href="#mac35fc832c" x="57.6" y="64.213088" style="fill: #555555; stroke: #555555; stroke-width: 0.8"/>
      </g>
     </g>
     <g id="text_13">
      <!-- 3.0 -->
      <g style="fill: #555555" transform="translate(34.696875 68.012307) scale(0.1 -0.1)">
       <defs>
        <path id="DejaVuSans-33" d="M 2597 2516 
Q 3050 2419 3304 2112 
Q 3559 1806 3559 1356 
Q 3559 666 3084 287 
Q 2609 -91 1734 -91 
Q 1441 -91 1130 -33 
Q 819 25 488 141 
L 488 750 
Q 750 597 1062 519 
Q 1375 441 1716 441 
Q 2309 441 2620 675 
Q 2931 909 2931 1356 
Q 2931 1769 2642 2001 
Q 2353 2234 1838 2234 
L 1294 2234 
L 1294 2753 
L 1863 2753 
Q 2328 2753 2575 2939 
Q 2822 3125 2822 3475 
Q 2822 3834 2567 4026 
Q 2313 4219 1838 4219 
Q 1578 4219 1281 4162 
Q 984 4106 628 3988 
L 628 4550 
Q 988 4650 1302 4700 
Q 1616 4750 1894 4750 
Q 2613 4750 3031 4423 
Q 3450 4097 3450 3541 
Q 3450 3153 3228 2886 
Q 3006 2619 2597 2516 
z
" transform="scale(0.015625)"/>
       </defs>
       <use xlink:href="#DejaVuSans-33"/>
       <use xlink:href="#DejaVuSans-2e" x="63.623047"/>
       <use xlink:href="#DejaVuSans-30" x="95.410156"/>
      </g>
     </g>
    </g>
    <g id="text_14">
     <!-- Loss -->
     <g style="fill: #555555" transform="translate(28.20125 187.688625) rotate(-90) scale(0.12 -0.12)">
      <defs>
       <path id="DejaVuSans-4c" d="M 628 4666 
L 1259 4666 
L 1259 531 
L 3531 531 
L 3531 0 
L 628 0 
L 628 4666 
z
" transform="scale(0.015625)"/>
       <path id="DejaVuSans-73" d="M 2834 3397 
L 2834 2853 
Q 2591 2978 2328 3040 
Q 2066 3103 1784 3103 
Q 1356 3103 1142 2972 
Q 928 2841 928 2578 
Q 928 2378 1081 2264 
Q 1234 2150 1697 2047 
L 1894 2003 
Q 2506 1872 2764 1633 
Q 3022 1394 3022 966 
Q 3022 478 2636 193 
Q 2250 -91 1575 -91 
Q 1294 -91 989 -36 
Q 684 19 347 128 
L 347 722 
Q 666 556 975 473 
Q 1284 391 1588 391 
Q 1994 391 2212 530 
Q 2431 669 2431 922 
Q 2431 1156 2273 1281 
Q 2116 1406 1581 1522 
L 1381 1569 
Q 847 1681 609 1914 
Q 372 2147 372 2553 
Q 372 3047 722 3315 
Q 1072 3584 1716 3584 
Q 2034 3584 2315 3537 
Q 2597 3491 2834 3397 
z
" transform="scale(0.015625)"/>
      </defs>
      <use xlink:href="#DejaVuSans-4c"/>
      <use xlink:href="#DejaVuSans-6f" x="53.962891"/>
      <use xlink:href="#DejaVuSans-73" x="115.144531"/>
      <use xlink:href="#DejaVuSans-73" x="167.244141"/>
     </g>
    </g>
   </g>
   <g id="line2d_25">
    <path d="M 73.832727 250.639628 
L 75.039621 247.797867 
L 76.246516 244.105705 
L 77.45341 239.557305 
L 78.660304 234.195411 
L 79.867198 228.04399 
L 81.074093 221.028851 
L 82.280987 212.848614 
L 83.487881 203.652843 
L 85.901669 182.095995 
L 88.315458 157.205772 
L 91.936141 119.328961 
L 94.349929 96.887466 
L 95.556823 86.915184 
L 96.763717 78.41045 
L 97.970612 71.330146 
L 99.177506 65.041735 
L 100.3844 60.359771 
L 101.591294 56.874176 
L 102.798189 54.614149 
L 104.005083 53.568 
L 105.211977 53.774825 
L 106.418871 54.910157 
L 108.83266 59.238454 
L 110.039554 62.106365 
L 111.246448 65.365148 
L 114.867131 77.080473 
L 119.694708 92.563854 
L 122.108496 99.347017 
L 124.522285 105.185434 
L 125.729179 107.770122 
L 129.349861 114.511319 
L 130.556756 116.441784 
L 131.76365 118.112507 
L 132.970544 120.209998 
L 135.384333 123.664402 
L 136.591227 125.219474 
L 137.798121 127.073307 
L 139.005015 127.467711 
L 140.211909 129.035197 
L 141.418804 128.886149 
L 142.625698 129.420759 
L 143.832592 128.974337 
L 145.039486 128.966197 
L 148.660169 127.08779 
L 149.867063 126.118624 
L 151.073957 124.180391 
L 152.280852 122.702166 
L 153.487746 119.611716 
L 155.901534 114.907285 
L 157.108429 113.70592 
L 158.315323 114.506322 
L 159.522217 117.474192 
L 160.729111 121.44074 
L 161.936005 126.552262 
L 164.349794 141.687383 
L 165.556688 150.710068 
L 166.763582 163.022883 
L 167.970477 169.565873 
L 169.177371 172.34021 
L 170.384265 177.49324 
L 171.591159 188.784715 
L 172.798053 201.717108 
L 174.004948 204.982293 
L 175.211842 204.379941 
L 176.418736 202.884881 
L 177.62563 202.183216 
L 178.832525 202.124619 
L 180.039419 203.74549 
L 181.246313 208.308807 
L 182.453207 218.650802 
L 183.660101 226.579799 
L 187.280784 224.279036 
L 190.901467 221.354607 
L 192.108361 220.285757 
L 198.142832 213.433896 
L 199.349726 211.407592 
L 200.55662 210.105829 
L 202.970409 206.715341 
L 204.177303 204.789395 
L 205.384197 203.5072 
L 206.591092 202.744782 
L 207.797986 201.715048 
L 209.00488 199.97714 
L 210.211774 199.087056 
L 211.418668 197.706573 
L 212.625563 197.176901 
L 213.832457 196.349425 
L 215.039351 195.296025 
L 216.246245 195.177124 
L 218.660034 192.541461 
L 219.866928 193.654493 
L 221.073822 192.019626 
L 222.280716 191.596772 
L 224.694505 190.042793 
L 225.901399 190.557318 
L 227.108293 189.93374 
L 228.315188 188.700314 
L 229.522082 188.736649 
L 230.728976 187.908012 
L 231.93587 187.25938 
L 233.142764 187.068336 
L 234.349659 186.413039 
L 235.556553 186.44017 
L 237.970341 185.972247 
L 240.38413 184.669324 
L 241.591024 183.848182 
L 242.797918 184.288446 
L 244.004812 183.313562 
L 245.211707 182.929581 
L 246.418601 181.676411 
L 247.625495 181.375357 
L 248.832389 181.376343 
L 250.039284 181.878122 
L 251.246178 180.764778 
L 252.453072 180.703166 
L 253.659966 179.703853 
L 254.86686 179.387311 
L 256.073755 179.586045 
L 257.280649 179.321121 
L 258.487543 178.861084 
L 259.694437 178.06316 
L 260.901332 178.002251 
L 262.108226 177.748179 
L 263.31512 177.6211 
L 264.522014 177.165318 
L 265.728908 177.35317 
L 266.935803 176.672752 
L 268.142697 176.61518 
L 269.349591 176.825713 
L 270.556485 175.915213 
L 271.76338 175.762719 
L 272.970274 174.594819 
L 274.177168 175.007591 
L 275.384062 174.595102 
L 276.590956 173.574738 
L 277.797851 173.792513 
L 279.004745 173.339786 
L 280.211639 173.284859 
L 281.418533 173.394254 
L 282.625428 173.178753 
L 283.832322 172.002831 
L 285.039216 171.70532 
L 286.24611 172.337087 
L 287.453004 171.770133 
L 288.659899 171.563454 
L 289.866793 170.911739 
L 291.073687 171.116846 
L 292.280581 170.015419 
L 293.487475 169.084901 
L 294.69437 169.698779 
L 295.901264 170.453263 
L 297.108158 169.268723 
L 298.315052 169.458703 
L 299.521947 168.711216 
L 300.728841 169.349942 
L 301.935735 168.210023 
L 303.142629 167.430047 
L 304.349523 167.049325 
L 305.556418 167.485052 
L 306.763312 167.171964 
L 307.970206 166.031791 
L 309.1771 166.924608 
L 310.383995 166.908846 
L 311.590889 165.417309 
L 312.797783 165.467668 
L 316.418466 165.101996 
L 318.832254 164.029291 
L 320.039148 163.734688 
L 321.246043 164.405689 
L 322.452937 163.377039 
L 323.659831 163.435255 
L 324.866725 162.017051 
L 326.073619 162.553008 
L 327.280514 162.122074 
L 328.487408 162.072153 
L 329.694302 162.425645 
L 330.901196 161.059929 
L 332.108091 161.2872 
L 333.314985 161.888732 
L 334.521879 160.005855 
L 335.728773 159.617999 
L 336.935667 160.603317 
L 338.142562 159.89968 
L 339.349456 158.874661 
L 340.55635 159.11906 
L 341.763244 159.082481 
L 342.970139 158.752734 
L 344.177033 157.645949 
L 345.383927 157.861997 
L 346.590821 157.418297 
L 347.797715 157.346066 
L 349.00461 157.46649 
L 352.625292 155.880538 
L 353.832187 155.750482 
L 357.452869 154.451794 
L 358.659763 155.106954 
L 359.866658 154.580025 
L 361.073552 153.195589 
L 362.280446 153.258792 
L 363.48734 154.08983 
L 364.694235 152.605105 
L 365.901129 152.56552 
L 367.108023 152.752826 
L 368.314917 152.387525 
L 369.521811 151.489126 
L 370.728706 152.504474 
L 371.9356 151.526808 
L 373.142494 151.093531 
L 374.349388 149.262878 
L 375.556283 150.261586 
L 376.763177 149.888818 
L 377.970071 149.99428 
L 379.176965 149.030151 
L 380.383859 148.27068 
L 381.590754 148.388712 
L 382.797648 147.905993 
L 385.211436 147.458146 
L 386.418331 147.710753 
L 387.625225 147.781793 
L 388.832119 146.632056 
L 390.039013 146.953497 
L 391.245907 144.964377 
L 392.452802 145.65801 
L 393.659696 144.789232 
L 394.86659 144.424692 
L 396.073484 144.439136 
L 397.280379 144.295065 
L 398.487273 143.908156 
L 398.487273 143.908156 
" clip-path="url(#p92cf653537)" style="fill: none; stroke: #6495ed; stroke-width: 2; stroke-linecap: square"/>
   </g>
   <g id="line2d_26">
    <path d="M 73.832727 253.245505 
L 75.039621 253.998668 
L 76.246516 255.189117 
L 78.660304 258.407141 
L 81.074093 261.934534 
L 85.901669 269.351307 
L 89.522352 274.104182 
L 93.143035 277.559137 
L 94.349929 278.334906 
L 95.556823 279.331188 
L 96.763717 280.056041 
L 97.970612 280.614666 
L 99.177506 281.444723 
L 104.005083 283.707996 
L 105.211977 284.113225 
L 106.418871 284.700534 
L 111.246448 286.349501 
L 120.901602 288.740291 
L 129.349861 290.148466 
L 136.591227 290.856951 
L 137.798121 290.818261 
L 139.005015 291.036867 
L 141.418804 290.948908 
L 142.625698 291.143539 
L 143.832592 291.113707 
L 145.039486 290.878915 
L 146.246381 291.200892 
L 147.453275 291.002792 
L 148.660169 290.50961 
L 149.867063 290.993899 
L 151.073957 290.657079 
L 152.280852 289.832485 
L 153.487746 290.776841 
L 154.69464 290.28396 
L 155.901534 289.26216 
L 157.108429 290.597308 
L 158.315323 289.839016 
L 159.522217 288.401199 
L 160.729111 289.878628 
L 161.936005 288.753941 
L 163.1429 286.838079 
L 164.349794 288.040036 
L 165.556688 286.032803 
L 166.763582 282.414768 
L 167.970477 282.973776 
L 169.177371 281.195677 
L 170.384265 278.273689 
L 171.591159 277.979222 
L 172.798053 272.477871 
L 174.004948 268.634178 
L 175.211842 271.312582 
L 176.418736 270.734528 
L 177.62563 269.272155 
L 178.832525 272.421531 
L 180.039419 271.880538 
L 181.246313 269.839177 
L 182.453207 268.415549 
L 183.660101 263.993829 
L 184.866996 264.278637 
L 186.07389 267.02509 
L 187.280784 267.974163 
L 188.487678 268.644095 
L 189.694572 270.781764 
L 190.901467 271.658876 
L 192.108361 272.261328 
L 193.315255 273.838308 
L 194.522149 274.598678 
L 195.729044 274.962696 
L 196.935938 275.992036 
L 198.142832 276.451388 
L 200.55662 277.64158 
L 204.177303 279.088619 
L 206.591092 279.685585 
L 207.797986 279.82786 
L 209.00488 280.307305 
L 210.211774 280.64312 
L 212.625563 281.033565 
L 213.832457 281.391716 
L 216.246245 281.577859 
L 217.45314 282.042388 
L 219.866928 282.038752 
L 221.073822 282.569871 
L 222.280716 282.391674 
L 223.487611 282.688689 
L 224.694505 283.108305 
L 225.901399 282.753464 
L 227.108293 283.018063 
L 228.315188 283.523774 
L 229.522082 283.225912 
L 231.93587 283.912655 
L 233.142764 283.653047 
L 235.556553 284.191974 
L 236.763447 283.927436 
L 237.970341 284.111387 
L 239.177236 284.479632 
L 240.38413 284.272825 
L 242.797918 284.74739 
L 244.004812 284.568991 
L 245.211707 284.77839 
L 246.418601 285.265749 
L 247.625495 284.979063 
L 250.039284 285.366437 
L 251.246178 285.20812 
L 252.453072 285.394541 
L 253.659966 285.856157 
L 254.86686 285.551733 
L 256.073755 285.722971 
L 257.280649 286.081699 
L 258.487543 285.784837 
L 260.901332 286.436122 
L 262.108226 286.111012 
L 263.31512 286.330382 
L 264.522014 286.727658 
L 265.728908 286.301195 
L 268.142697 286.937683 
L 269.349591 286.515873 
L 271.76338 287.184193 
L 272.970274 286.970796 
L 274.177168 287.078666 
L 275.384062 287.47981 
L 276.590956 287.246583 
L 277.797851 287.395008 
L 279.004745 287.799698 
L 280.211639 287.414125 
L 281.418533 287.607959 
L 282.625428 287.967292 
L 283.832322 287.744266 
L 286.24611 288.252036 
L 287.453004 287.913123 
L 288.659899 288.121154 
L 289.866793 288.588111 
L 291.073687 288.144987 
L 292.280581 288.474246 
L 293.487475 288.971541 
L 294.69437 288.488884 
L 295.901264 288.5825 
L 297.108158 289.104839 
L 298.315052 288.643255 
L 300.728841 289.214712 
L 301.935735 288.932053 
L 303.142629 289.231411 
L 304.349523 289.654644 
L 305.556418 289.157834 
L 306.763312 289.37354 
L 307.970206 289.908967 
L 309.1771 289.357424 
L 310.383995 289.539566 
L 311.590889 290.129504 
L 312.797783 289.686415 
L 314.004677 289.897312 
L 315.211571 290.291486 
L 316.418466 289.843053 
L 317.62536 290.107807 
L 318.832254 290.566468 
L 320.039148 290.138391 
L 321.246043 290.270211 
L 322.452937 290.785741 
L 323.659831 290.301889 
L 326.073619 290.990126 
L 327.280514 290.579898 
L 328.487408 290.812736 
L 329.694302 291.164042 
L 330.901196 290.862085 
L 332.108091 291.007558 
L 333.314985 291.358208 
L 334.521879 291.096047 
L 336.935667 291.623945 
L 338.142562 291.220853 
L 340.55635 291.934364 
L 341.763244 291.438115 
L 342.970139 291.678412 
L 344.177033 292.253172 
L 345.383927 291.723663 
L 346.590821 291.987668 
L 347.797715 292.432398 
L 349.00461 291.867885 
L 350.211504 292.160108 
L 351.418398 292.685316 
L 352.625292 292.212974 
L 353.832187 292.430726 
L 355.039081 292.898419 
L 356.245975 292.448963 
L 358.659763 293.074752 
L 359.866658 292.602097 
L 362.280446 293.400832 
L 363.48734 292.787612 
L 365.901129 293.583511 
L 367.108023 293.055066 
L 368.314917 293.264196 
L 369.521811 293.804637 
L 370.728706 293.168878 
L 371.9356 293.474957 
L 373.142494 293.972901 
L 374.349388 293.609718 
L 375.556283 293.735142 
L 376.763177 294.200077 
L 377.970071 293.663088 
L 379.176965 293.95593 
L 380.383859 294.471596 
L 381.590754 293.959446 
L 382.797648 294.213934 
L 384.004542 294.675592 
L 385.211436 294.201035 
L 386.418331 294.376588 
L 387.625225 294.80546 
L 388.832119 294.397259 
L 390.039013 294.571024 
L 391.245907 295.147859 
L 392.452802 294.595933 
L 393.659696 294.867592 
L 394.86659 295.324532 
L 396.073484 294.831435 
L 397.280379 295.0177 
L 398.487273 295.488 
L 398.487273 295.488 
" clip-path="url(#p92cf653537)" style="fill: none; stroke: #dc143c; stroke-width: 2; stroke-linecap: square"/>
   </g>
   <g id="line2d_27">
    <path d="M 73.832727 267.43504 
L 76.246516 267.43504 
L 77.45341 260.513069 
L 79.867198 260.513069 
L 81.074093 258.249239 
L 83.487881 258.249239 
L 84.694775 257.296637 
L 87.108564 257.296637 
L 88.315458 256.773907 
L 90.729246 256.773907 
L 91.936141 256.345637 
L 94.349929 256.345637 
L 95.556823 255.998217 
L 97.970612 255.998217 
L 99.177506 255.75006 
L 101.591294 255.75006 
L 102.798189 255.454674 
L 105.211977 255.454674 
L 106.418871 255.156886 
L 108.83266 255.156886 
L 110.039554 254.694994 
L 112.453342 254.694994 
L 113.660237 253.889685 
L 116.074025 253.889685 
L 117.280919 253.303715 
L 119.694708 253.303715 
L 120.901602 252.969104 
L 148.660169 253.044352 
L 149.867063 253.250882 
L 152.280852 253.250882 
L 153.487746 253.918504 
L 155.901534 253.918504 
L 157.108429 254.731817 
L 159.522217 254.731817 
L 160.729111 255.732449 
L 163.1429 255.732449 
L 164.349794 256.616207 
L 166.763582 256.616207 
L 167.970477 257.274223 
L 170.384265 257.274223 
L 171.591159 257.698491 
L 174.004948 257.698491 
L 175.211842 257.957855 
L 177.62563 257.957855 
L 178.832525 258.215618 
L 181.246313 258.215618 
L 182.453207 257.937042 
L 188.487678 257.930638 
L 189.694572 258.5038 
L 192.108361 258.5038 
L 193.315255 258.342097 
L 195.729044 258.342097 
L 196.935938 256.111889 
L 199.349726 256.111889 
L 200.55662 254.101019 
L 202.970409 254.101019 
L 204.177303 253.18444 
L 206.591092 253.18444 
L 207.797986 252.951493 
L 210.211774 252.951493 
L 211.418668 253.081175 
L 221.073822 253.138811 
L 222.280716 252.900261 
L 224.694505 252.900261 
L 225.901399 252.605674 
L 228.315188 252.605674 
L 229.522082 252.272664 
L 231.93587 252.272664 
L 233.142764 252.062932 
L 235.556553 252.062932 
L 236.763447 251.931649 
L 242.797918 251.853199 
L 245.211707 251.769947 
L 246.418601 251.769947 
L 247.625495 251.64827 
L 250.039284 251.64827 
L 251.246178 251.454547 
L 253.659966 251.454547 
L 254.86686 251.246416 
L 257.280649 251.246416 
L 258.487543 251.099123 
L 260.901332 251.099123 
L 262.108226 250.979047 
L 268.142697 250.898997 
L 269.349591 250.785325 
L 279.004745 250.695668 
L 283.832322 250.569188 
L 289.866793 250.50835 
L 291.073687 250.384271 
L 293.487475 250.384271 
L 294.69437 250.256191 
L 297.108158 250.256191 
L 298.315052 250.1129 
L 304.349523 250.010435 
L 305.556418 249.890359 
L 307.970206 249.890359 
L 309.1771 249.754274 
L 311.590889 249.754274 
L 312.797783 249.60538 
L 315.211571 249.60538 
L 316.418466 249.437273 
L 318.832254 249.437273 
L 320.039148 249.312394 
L 326.073619 249.206728 
L 327.280514 249.080248 
L 329.694302 249.080248 
L 330.901196 248.966576 
L 333.314985 248.966576 
L 334.521879 248.849702 
L 340.55635 248.758445 
L 341.763244 248.627162 
L 347.797715 248.521495 
L 350.211504 248.443045 
L 358.659763 248.343783 
L 364.694235 248.271737 
L 380.383859 248.209298 
L 384.004542 248.159666 
L 387.625225 248.135651 
L 392.452802 248.238116 
L 398.487273 248.252525 
L 398.487273 248.252525 
" clip-path="url(#p92cf653537)" style="fill: none; stroke: #ffff00; stroke-width: 3; stroke-linecap: square"/>
   </g>
   <g id="patch_3">
    <path d="M 57.6 307.584 
L 57.6 41.472 
" style="fill: none; stroke: #ffffff; stroke-linejoin: miter; stroke-linecap: square"/>
   </g>
   <g id="patch_4">
    <path d="M 414.72 307.584 
L 414.72 41.472 
" style="fill: none; stroke: #ffffff; stroke-linejoin: miter; stroke-linecap: square"/>
   </g>
   <g id="patch_5">
    <path d="M 57.6 307.584 
L 414.72 307.584 
" style="fill: none; stroke: #ffffff; stroke-linejoin: miter; stroke-linecap: square"/>
   </g>
   <g id="patch_6">
    <path d="M 57.6 41.472 
L 414.72 41.472 
" style="fill: none; stroke: #ffffff; stroke-linejoin: miter; stroke-linecap: square"/>
   </g>
   <g id="legend_1">
    <g id="patch_7">
     <path d="M 243.124687 302.584 
L 407.72 302.584 
Q 409.72 302.584 409.72 300.584 
L 409.72 257.549625 
Q 409.72 255.549625 407.72 255.549625 
L 243.124687 255.549625 
Q 241.124687 255.549625 241.124687 257.549625 
L 241.124687 300.584 
Q 241.124687 302.584 243.124687 302.584 
z
" style="fill: #e5e5e5; opacity: 0.8; stroke: #cccccc; stroke-width: 0.5; stroke-linejoin: miter"/>
    </g>
    <g id="line2d_28">
     <path d="M 245.124687 263.648062 
L 255.124687 263.648062 
L 265.124687 263.648062 
" style="fill: none; stroke: #6495ed; stroke-width: 2; stroke-linecap: square"/>
    </g>
    <g id="text_15">
     <!-- Generator loss -->
     <g transform="translate(273.124687 267.148062) scale(0.1 -0.1)">
      <defs>
       <path id="DejaVuSans-47" d="M 3809 666 
L 3809 1919 
L 2778 1919 
L 2778 2438 
L 4434 2438 
L 4434 434 
Q 4069 175 3628 42 
Q 3188 -91 2688 -91 
Q 1594 -91 976 548 
Q 359 1188 359 2328 
Q 359 3472 976 4111 
Q 1594 4750 2688 4750 
Q 3144 4750 3555 4637 
Q 3966 4525 4313 4306 
L 4313 3634 
Q 3963 3931 3569 4081 
Q 3175 4231 2741 4231 
Q 1884 4231 1454 3753 
Q 1025 3275 1025 2328 
Q 1025 1384 1454 906 
Q 1884 428 2741 428 
Q 3075 428 3337 486 
Q 3600 544 3809 666 
z
" transform="scale(0.015625)"/>
       <path id="DejaVuSans-65" d="M 3597 1894 
L 3597 1613 
L 953 1613 
Q 991 1019 1311 708 
Q 1631 397 2203 397 
Q 2534 397 2845 478 
Q 3156 559 3463 722 
L 3463 178 
Q 3153 47 2828 -22 
Q 2503 -91 2169 -91 
Q 1331 -91 842 396 
Q 353 884 353 1716 
Q 353 2575 817 3079 
Q 1281 3584 2069 3584 
Q 2775 3584 3186 3129 
Q 3597 2675 3597 1894 
z
M 3022 2063 
Q 3016 2534 2758 2815 
Q 2500 3097 2075 3097 
Q 1594 3097 1305 2825 
Q 1016 2553 972 2059 
L 3022 2063 
z
" transform="scale(0.015625)"/>
       <path id="DejaVuSans-6e" d="M 3513 2113 
L 3513 0 
L 2938 0 
L 2938 2094 
Q 2938 2591 2744 2837 
Q 2550 3084 2163 3084 
Q 1697 3084 1428 2787 
Q 1159 2491 1159 1978 
L 1159 0 
L 581 0 
L 581 3500 
L 1159 3500 
L 1159 2956 
Q 1366 3272 1645 3428 
Q 1925 3584 2291 3584 
Q 2894 3584 3203 3211 
Q 3513 2838 3513 2113 
z
" transform="scale(0.015625)"/>
       <path id="DejaVuSans-72" d="M 2631 2963 
Q 2534 3019 2420 3045 
Q 2306 3072 2169 3072 
Q 1681 3072 1420 2755 
Q 1159 2438 1159 1844 
L 1159 0 
L 581 0 
L 581 3500 
L 1159 3500 
L 1159 2956 
Q 1341 3275 1631 3429 
Q 1922 3584 2338 3584 
Q 2397 3584 2469 3576 
Q 2541 3569 2628 3553 
L 2631 2963 
z
" transform="scale(0.015625)"/>
       <path id="DejaVuSans-61" d="M 2194 1759 
Q 1497 1759 1228 1600 
Q 959 1441 959 1056 
Q 959 750 1161 570 
Q 1363 391 1709 391 
Q 2188 391 2477 730 
Q 2766 1069 2766 1631 
L 2766 1759 
L 2194 1759 
z
M 3341 1997 
L 3341 0 
L 2766 0 
L 2766 531 
Q 2569 213 2275 61 
Q 1981 -91 1556 -91 
Q 1019 -91 701 211 
Q 384 513 384 1019 
Q 384 1609 779 1909 
Q 1175 2209 1959 2209 
L 2766 2209 
L 2766 2266 
Q 2766 2663 2505 2880 
Q 2244 3097 1772 3097 
Q 1472 3097 1187 3025 
Q 903 2953 641 2809 
L 641 3341 
Q 956 3463 1253 3523 
Q 1550 3584 1831 3584 
Q 2591 3584 2966 3190 
Q 3341 2797 3341 1997 
z
" transform="scale(0.015625)"/>
       <path id="DejaVuSans-74" d="M 1172 4494 
L 1172 3500 
L 2356 3500 
L 2356 3053 
L 1172 3053 
L 1172 1153 
Q 1172 725 1289 603 
Q 1406 481 1766 481 
L 2356 481 
L 2356 0 
L 1766 0 
Q 1100 0 847 248 
Q 594 497 594 1153 
L 594 3053 
L 172 3053 
L 172 3500 
L 594 3500 
L 594 4494 
L 1172 4494 
z
" transform="scale(0.015625)"/>
       <path id="DejaVuSans-20" transform="scale(0.015625)"/>
       <path id="DejaVuSans-6c" d="M 603 4863 
L 1178 4863 
L 1178 0 
L 603 0 
L 603 4863 
z
" transform="scale(0.015625)"/>
      </defs>
      <use xlink:href="#DejaVuSans-47"/>
      <use xlink:href="#DejaVuSans-65" x="77.490234"/>
      <use xlink:href="#DejaVuSans-6e" x="139.013672"/>
      <use xlink:href="#DejaVuSans-65" x="202.392578"/>
      <use xlink:href="#DejaVuSans-72" x="263.916016"/>
      <use xlink:href="#DejaVuSans-61" x="305.029297"/>
      <use xlink:href="#DejaVuSans-74" x="366.308594"/>
      <use xlink:href="#DejaVuSans-6f" x="405.517578"/>
      <use xlink:href="#DejaVuSans-72" x="466.699219"/>
      <use xlink:href="#DejaVuSans-20" x="507.8125"/>
      <use xlink:href="#DejaVuSans-6c" x="539.599609"/>
      <use xlink:href="#DejaVuSans-6f" x="567.382812"/>
      <use xlink:href="#DejaVuSans-73" x="628.564453"/>
      <use xlink:href="#DejaVuSans-73" x="680.664062"/>
     </g>
    </g>
    <g id="line2d_29">
     <path d="M 245.124687 278.326188 
L 255.124687 278.326188 
L 265.124687 278.326188 
" style="fill: none; stroke: #dc143c; stroke-width: 2; stroke-linecap: square"/>
    </g>
    <g id="text_16">
     <!-- Average discriminator loss -->
     <g transform="translate(273.124687 281.826188) scale(0.1 -0.1)">
      <defs>
       <path id="DejaVuSans-41" d="M 2188 4044 
L 1331 1722 
L 3047 1722 
L 2188 4044 
z
M 1831 4666 
L 2547 4666 
L 4325 0 
L 3669 0 
L 3244 1197 
L 1141 1197 
L 716 0 
L 50 0 
L 1831 4666 
z
" transform="scale(0.015625)"/>
       <path id="DejaVuSans-76" d="M 191 3500 
L 800 3500 
L 1894 563 
L 2988 3500 
L 3597 3500 
L 2284 0 
L 1503 0 
L 191 3500 
z
" transform="scale(0.015625)"/>
       <path id="DejaVuSans-67" d="M 2906 1791 
Q 2906 2416 2648 2759 
Q 2391 3103 1925 3103 
Q 1463 3103 1205 2759 
Q 947 2416 947 1791 
Q 947 1169 1205 825 
Q 1463 481 1925 481 
Q 2391 481 2648 825 
Q 2906 1169 2906 1791 
z
M 3481 434 
Q 3481 -459 3084 -895 
Q 2688 -1331 1869 -1331 
Q 1566 -1331 1297 -1286 
Q 1028 -1241 775 -1147 
L 775 -588 
Q 1028 -725 1275 -790 
Q 1522 -856 1778 -856 
Q 2344 -856 2625 -561 
Q 2906 -266 2906 331 
L 2906 616 
Q 2728 306 2450 153 
Q 2172 0 1784 0 
Q 1141 0 747 490 
Q 353 981 353 1791 
Q 353 2603 747 3093 
Q 1141 3584 1784 3584 
Q 2172 3584 2450 3431 
Q 2728 3278 2906 2969 
L 2906 3500 
L 3481 3500 
L 3481 434 
z
" transform="scale(0.015625)"/>
       <path id="DejaVuSans-64" d="M 2906 2969 
L 2906 4863 
L 3481 4863 
L 3481 0 
L 2906 0 
L 2906 525 
Q 2725 213 2448 61 
Q 2172 -91 1784 -91 
Q 1150 -91 751 415 
Q 353 922 353 1747 
Q 353 2572 751 3078 
Q 1150 3584 1784 3584 
Q 2172 3584 2448 3432 
Q 2725 3281 2906 2969 
z
M 947 1747 
Q 947 1113 1208 752 
Q 1469 391 1925 391 
Q 2381 391 2643 752 
Q 2906 1113 2906 1747 
Q 2906 2381 2643 2742 
Q 2381 3103 1925 3103 
Q 1469 3103 1208 2742 
Q 947 2381 947 1747 
z
" transform="scale(0.015625)"/>
       <path id="DejaVuSans-69" d="M 603 3500 
L 1178 3500 
L 1178 0 
L 603 0 
L 603 3500 
z
M 603 4863 
L 1178 4863 
L 1178 4134 
L 603 4134 
L 603 4863 
z
" transform="scale(0.015625)"/>
       <path id="DejaVuSans-6d" d="M 3328 2828 
Q 3544 3216 3844 3400 
Q 4144 3584 4550 3584 
Q 5097 3584 5394 3201 
Q 5691 2819 5691 2113 
L 5691 0 
L 5113 0 
L 5113 2094 
Q 5113 2597 4934 2840 
Q 4756 3084 4391 3084 
Q 3944 3084 3684 2787 
Q 3425 2491 3425 1978 
L 3425 0 
L 2847 0 
L 2847 2094 
Q 2847 2600 2669 2842 
Q 2491 3084 2119 3084 
Q 1678 3084 1418 2786 
Q 1159 2488 1159 1978 
L 1159 0 
L 581 0 
L 581 3500 
L 1159 3500 
L 1159 2956 
Q 1356 3278 1631 3431 
Q 1906 3584 2284 3584 
Q 2666 3584 2933 3390 
Q 3200 3197 3328 2828 
z
" transform="scale(0.015625)"/>
      </defs>
      <use xlink:href="#DejaVuSans-41"/>
      <use xlink:href="#DejaVuSans-76" x="62.533203"/>
      <use xlink:href="#DejaVuSans-65" x="121.712891"/>
      <use xlink:href="#DejaVuSans-72" x="183.236328"/>
      <use xlink:href="#DejaVuSans-61" x="224.349609"/>
      <use xlink:href="#DejaVuSans-67" x="285.628906"/>
      <use xlink:href="#DejaVuSans-65" x="349.105469"/>
      <use xlink:href="#DejaVuSans-20" x="410.628906"/>
      <use xlink:href="#DejaVuSans-64" x="442.416016"/>
      <use xlink:href="#DejaVuSans-69" x="505.892578"/>
      <use xlink:href="#DejaVuSans-73" x="533.675781"/>
      <use xlink:href="#DejaVuSans-63" x="585.775391"/>
      <use xlink:href="#DejaVuSans-72" x="640.755859"/>
      <use xlink:href="#DejaVuSans-69" x="681.869141"/>
      <use xlink:href="#DejaVuSans-6d" x="709.652344"/>
      <use xlink:href="#DejaVuSans-69" x="807.064453"/>
      <use xlink:href="#DejaVuSans-6e" x="834.847656"/>
      <use xlink:href="#DejaVuSans-61" x="898.226562"/>
      <use xlink:href="#DejaVuSans-74" x="959.505859"/>
      <use xlink:href="#DejaVuSans-6f" x="998.714844"/>
      <use xlink:href="#DejaVuSans-72" x="1059.896484"/>
      <use xlink:href="#DejaVuSans-20" x="1101.009766"/>
      <use xlink:href="#DejaVuSans-6c" x="1132.796875"/>
      <use xlink:href="#DejaVuSans-6f" x="1160.580078"/>
      <use xlink:href="#DejaVuSans-73" x="1221.761719"/>
      <use xlink:href="#DejaVuSans-73" x="1273.861328"/>
     </g>
    </g>
    <g id="line2d_30">
     <path d="M 245.124687 293.004312 
L 255.124687 293.004312 
L 265.124687 293.004312 
" style="fill: none; stroke: #ffff00; stroke-width: 3; stroke-linecap: square"/>
    </g>
    <g id="text_17">
     <!-- ROC AUC -->
     <g transform="translate(273.124687 296.504312) scale(0.1 -0.1)">
      <defs>
       <path id="DejaVuSans-52" d="M 2841 2188 
Q 3044 2119 3236 1894 
Q 3428 1669 3622 1275 
L 4263 0 
L 3584 0 
L 2988 1197 
Q 2756 1666 2539 1819 
Q 2322 1972 1947 1972 
L 1259 1972 
L 1259 0 
L 628 0 
L 628 4666 
L 2053 4666 
Q 2853 4666 3247 4331 
Q 3641 3997 3641 3322 
Q 3641 2881 3436 2590 
Q 3231 2300 2841 2188 
z
M 1259 4147 
L 1259 2491 
L 2053 2491 
Q 2509 2491 2742 2702 
Q 2975 2913 2975 3322 
Q 2975 3731 2742 3939 
Q 2509 4147 2053 4147 
L 1259 4147 
z
" transform="scale(0.015625)"/>
       <path id="DejaVuSans-4f" d="M 2522 4238 
Q 1834 4238 1429 3725 
Q 1025 3213 1025 2328 
Q 1025 1447 1429 934 
Q 1834 422 2522 422 
Q 3209 422 3611 934 
Q 4013 1447 4013 2328 
Q 4013 3213 3611 3725 
Q 3209 4238 2522 4238 
z
M 2522 4750 
Q 3503 4750 4090 4092 
Q 4678 3434 4678 2328 
Q 4678 1225 4090 567 
Q 3503 -91 2522 -91 
Q 1538 -91 948 565 
Q 359 1222 359 2328 
Q 359 3434 948 4092 
Q 1538 4750 2522 4750 
z
" transform="scale(0.015625)"/>
       <path id="DejaVuSans-43" d="M 4122 4306 
L 4122 3641 
Q 3803 3938 3442 4084 
Q 3081 4231 2675 4231 
Q 1875 4231 1450 3742 
Q 1025 3253 1025 2328 
Q 1025 1406 1450 917 
Q 1875 428 2675 428 
Q 3081 428 3442 575 
Q 3803 722 4122 1019 
L 4122 359 
Q 3791 134 3420 21 
Q 3050 -91 2638 -91 
Q 1578 -91 968 557 
Q 359 1206 359 2328 
Q 359 3453 968 4101 
Q 1578 4750 2638 4750 
Q 3056 4750 3426 4639 
Q 3797 4528 4122 4306 
z
" transform="scale(0.015625)"/>
       <path id="DejaVuSans-55" d="M 556 4666 
L 1191 4666 
L 1191 1831 
Q 1191 1081 1462 751 
Q 1734 422 2344 422 
Q 2950 422 3222 751 
Q 3494 1081 3494 1831 
L 3494 4666 
L 4128 4666 
L 4128 1753 
Q 4128 841 3676 375 
Q 3225 -91 2344 -91 
Q 1459 -91 1007 375 
Q 556 841 556 1753 
L 556 4666 
z
" transform="scale(0.015625)"/>
      </defs>
      <use xlink:href="#DejaVuSans-52"/>
      <use xlink:href="#DejaVuSans-4f" x="69.482422"/>
      <use xlink:href="#DejaVuSans-43" x="148.193359"/>
      <use xlink:href="#DejaVuSans-20" x="218.017578"/>
      <use xlink:href="#DejaVuSans-41" x="249.804688"/>
      <use xlink:href="#DejaVuSans-55" x="318.212891"/>
      <use xlink:href="#DejaVuSans-43" x="391.40625"/>
     </g>
    </g>
   </g>
  </g>
 </g>
 <defs>
  <clipPath id="p92cf653537">
   <rect x="57.6" y="41.472" width="357.12" height="266.112"/>
  </clipPath>
 </defs>
</svg>
