<?xml version="1.0" encoding="utf-8" standalone="no"?>
<!DOCTYPE svg PUBLIC "-//W3C//DTD SVG 1.1//EN"
  "http://www.w3.org/Graphics/SVG/1.1/DTD/svg11.dtd">
<svg xmlns:xlink="http://www.w3.org/1999/xlink" width="460.8pt" height="345.6pt" viewBox="0 0 460.8 345.6" xmlns="http://www.w3.org/2000/svg" version="1.1">
 <metadata>
  <rdf:RDF xmlns:dc="http://purl.org/dc/elements/1.1/" xmlns:cc="http://creativecommons.org/ns#" xmlns:rdf="http://www.w3.org/1999/02/22-rdf-syntax-ns#">
   <cc:Work>
    <dc:type rdf:resource="http://purl.org/dc/dcmitype/StillImage"/>
    <dc:date>2023-07-13T07:57:20.634203</dc:date>
    <dc:format>image/svg+xml</dc:format>
    <dc:creator>
     <cc:Agent>
      <dc:title>Matplotlib v3.7.1, https://matplotlib.org/</dc:title>
     </cc:Agent>
    </dc:creator>
   </cc:Work>
  </rdf:RDF>
 </metadata>
 <defs>
  <style type="text/css">*{stroke-linejoin: round; stroke-linecap: butt}</style>
 </defs>
 <g id="figure_1">
  <g id="patch_1">
   <path d="M 0 345.6 
L 460.8 345.6 
L 460.8 0 
L 0 0 
z
" style="fill: #ffffff"/>
  </g>
  <g id="axes_1">
   <g id="patch_2">
    <path d="M 57.6 307.584 
L 414.72 307.584 
L 414.72 41.472 
L 57.6 41.472 
z
" style="fill: #e5e5e5"/>
   </g>
   <g id="matplotlib.axis_1">
    <g id="xtick_1">
     <g id="line2d_1">
      <path d="M 72.625833 307.584 
L 72.625833 41.472 
" clip-path="url(#p3bea7b07f6)" style="fill: none; stroke: #ffffff; stroke-width: 0.8; stroke-linecap: square"/>
     </g>
     <g id="line2d_2">
      <defs>
       <path id="mc450b80e4d" d="M 0 0 
L 0 3.5 
" style="stroke: #555555; stroke-width: 0.8"/>
      </defs>
      <g>
       <use xlink:href="#mc450b80e4d" x="72.625833" y="307.584" style="fill: #555555; stroke: #555555; stroke-width: 0.8"/>
      </g>
     </g>
     <g id="text_1">
      <!-- 0 -->
      <g style="fill: #555555" transform="translate(69.444583 322.182437) scale(0.1 -0.1)">
       <defs>
        <path id="DejaVuSans-30" d="M 2034 4250 
Q 1547 4250 1301 3770 
Q 1056 3291 1056 2328 
Q 1056 1369 1301 889 
Q 1547 409 2034 409 
Q 2525 409 2770 889 
Q 3016 1369 3016 2328 
Q 3016 3291 2770 3770 
Q 2525 4250 2034 4250 
z
M 2034 4750 
Q 2819 4750 3233 4129 
Q 3647 3509 3647 2328 
Q 3647 1150 3233 529 
Q 2819 -91 2034 -91 
Q 1250 -91 836 529 
Q 422 1150 422 2328 
Q 422 3509 836 4129 
Q 1250 4750 2034 4750 
z
" transform="scale(0.015625)"/>
       </defs>
       <use xlink:href="#DejaVuSans-30"/>
      </g>
     </g>
    </g>
    <g id="xtick_2">
     <g id="line2d_3">
      <path d="M 132.970544 307.584 
L 132.970544 41.472 
" clip-path="url(#p3bea7b07f6)" style="fill: none; stroke: #ffffff; stroke-width: 0.8; stroke-linecap: square"/>
     </g>
     <g id="line2d_4">
      <g>
       <use xlink:href="#mc450b80e4d" x="132.970544" y="307.584" style="fill: #555555; stroke: #555555; stroke-width: 0.8"/>
      </g>
     </g>
     <g id="text_2">
      <!-- 50 -->
      <g style="fill: #555555" transform="translate(126.608044 322.182437) scale(0.1 -0.1)">
       <defs>
        <path id="DejaVuSans-35" d="M 691 4666 
L 3169 4666 
L 3169 4134 
L 1269 4134 
L 1269 2991 
Q 1406 3038 1543 3061 
Q 1681 3084 1819 3084 
Q 2600 3084 3056 2656 
Q 3513 2228 3513 1497 
Q 3513 744 3044 326 
Q 2575 -91 1722 -91 
Q 1428 -91 1123 -41 
Q 819 9 494 109 
L 494 744 
Q 775 591 1075 516 
Q 1375 441 1709 441 
Q 2250 441 2565 725 
Q 2881 1009 2881 1497 
Q 2881 1984 2565 2268 
Q 2250 2553 1709 2553 
Q 1456 2553 1204 2497 
Q 953 2441 691 2322 
L 691 4666 
z
" transform="scale(0.015625)"/>
       </defs>
       <use xlink:href="#DejaVuSans-35"/>
       <use xlink:href="#DejaVuSans-30" x="63.623047"/>
      </g>
     </g>
    </g>
    <g id="xtick_3">
     <g id="line2d_5">
      <path d="M 193.315255 307.584 
L 193.315255 41.472 
" clip-path="url(#p3bea7b07f6)" style="fill: none; stroke: #ffffff; stroke-width: 0.8; stroke-linecap: square"/>
     </g>
     <g id="line2d_6">
      <g>
       <use xlink:href="#mc450b80e4d" x="193.315255" y="307.584" style="fill: #555555; stroke: #555555; stroke-width: 0.8"/>
      </g>
     </g>
     <g id="text_3">
      <!-- 100 -->
      <g style="fill: #555555" transform="translate(183.771505 322.182437) scale(0.1 -0.1)">
       <defs>
        <path id="DejaVuSans-31" d="M 794 531 
L 1825 531 
L 1825 4091 
L 703 3866 
L 703 4441 
L 1819 4666 
L 2450 4666 
L 2450 531 
L 3481 531 
L 3481 0 
L 794 0 
L 794 531 
z
" transform="scale(0.015625)"/>
       </defs>
       <use xlink:href="#DejaVuSans-31"/>
       <use xlink:href="#DejaVuSans-30" x="63.623047"/>
       <use xlink:href="#DejaVuSans-30" x="127.246094"/>
      </g>
     </g>
    </g>
    <g id="xtick_4">
     <g id="line2d_7">
      <path d="M 253.659966 307.584 
L 253.659966 41.472 
" clip-path="url(#p3bea7b07f6)" style="fill: none; stroke: #ffffff; stroke-width: 0.8; stroke-linecap: square"/>
     </g>
     <g id="line2d_8">
      <g>
       <use xlink:href="#mc450b80e4d" x="253.659966" y="307.584" style="fill: #555555; stroke: #555555; stroke-width: 0.8"/>
      </g>
     </g>
     <g id="text_4">
      <!-- 150 -->
      <g style="fill: #555555" transform="translate(244.116216 322.182437) scale(0.1 -0.1)">
       <use xlink:href="#DejaVuSans-31"/>
       <use xlink:href="#DejaVuSans-35" x="63.623047"/>
       <use xlink:href="#DejaVuSans-30" x="127.246094"/>
      </g>
     </g>
    </g>
    <g id="xtick_5">
     <g id="line2d_9">
      <path d="M 314.004677 307.584 
L 314.004677 41.472 
" clip-path="url(#p3bea7b07f6)" style="fill: none; stroke: #ffffff; stroke-width: 0.8; stroke-linecap: square"/>
     </g>
     <g id="line2d_10">
      <g>
       <use xlink:href="#mc450b80e4d" x="314.004677" y="307.584" style="fill: #555555; stroke: #555555; stroke-width: 0.8"/>
      </g>
     </g>
     <g id="text_5">
      <!-- 200 -->
      <g style="fill: #555555" transform="translate(304.460927 322.182437) scale(0.1 -0.1)">
       <defs>
        <path id="DejaVuSans-32" d="M 1228 531 
L 3431 531 
L 3431 0 
L 469 0 
L 469 531 
Q 828 903 1448 1529 
Q 2069 2156 2228 2338 
Q 2531 2678 2651 2914 
Q 2772 3150 2772 3378 
Q 2772 3750 2511 3984 
Q 2250 4219 1831 4219 
Q 1534 4219 1204 4116 
Q 875 4013 500 3803 
L 500 4441 
Q 881 4594 1212 4672 
Q 1544 4750 1819 4750 
Q 2544 4750 2975 4387 
Q 3406 4025 3406 3419 
Q 3406 3131 3298 2873 
Q 3191 2616 2906 2266 
Q 2828 2175 2409 1742 
Q 1991 1309 1228 531 
z
" transform="scale(0.015625)"/>
       </defs>
       <use xlink:href="#DejaVuSans-32"/>
       <use xlink:href="#DejaVuSans-30" x="63.623047"/>
       <use xlink:href="#DejaVuSans-30" x="127.246094"/>
      </g>
     </g>
    </g>
    <g id="xtick_6">
     <g id="line2d_11">
      <path d="M 374.349388 307.584 
L 374.349388 41.472 
" clip-path="url(#p3bea7b07f6)" style="fill: none; stroke: #ffffff; stroke-width: 0.8; stroke-linecap: square"/>
     </g>
     <g id="line2d_12">
      <g>
       <use xlink:href="#mc450b80e4d" x="374.349388" y="307.584" style="fill: #555555; stroke: #555555; stroke-width: 0.8"/>
      </g>
     </g>
     <g id="text_6">
      <!-- 250 -->
      <g style="fill: #555555" transform="translate(364.805638 322.182437) scale(0.1 -0.1)">
       <use xlink:href="#DejaVuSans-32"/>
       <use xlink:href="#DejaVuSans-35" x="63.623047"/>
       <use xlink:href="#DejaVuSans-30" x="127.246094"/>
      </g>
     </g>
    </g>
    <g id="text_7">
     <!-- Epoch -->
     <g style="fill: #555555" transform="translate(217.786875 337.38025) scale(0.12 -0.12)">
      <defs>
       <path id="DejaVuSans-45" d="M 628 4666 
L 3578 4666 
L 3578 4134 
L 1259 4134 
L 1259 2753 
L 3481 2753 
L 3481 2222 
L 1259 2222 
L 1259 531 
L 3634 531 
L 3634 0 
L 628 0 
L 628 4666 
z
" transform="scale(0.015625)"/>
       <path id="DejaVuSans-70" d="M 1159 525 
L 1159 -1331 
L 581 -1331 
L 581 3500 
L 1159 3500 
L 1159 2969 
Q 1341 3281 1617 3432 
Q 1894 3584 2278 3584 
Q 2916 3584 3314 3078 
Q 3713 2572 3713 1747 
Q 3713 922 3314 415 
Q 2916 -91 2278 -91 
Q 1894 -91 1617 61 
Q 1341 213 1159 525 
z
M 3116 1747 
Q 3116 2381 2855 2742 
Q 2594 3103 2138 3103 
Q 1681 3103 1420 2742 
Q 1159 2381 1159 1747 
Q 1159 1113 1420 752 
Q 1681 391 2138 391 
Q 2594 391 2855 752 
Q 3116 1113 3116 1747 
z
" transform="scale(0.015625)"/>
       <path id="DejaVuSans-6f" d="M 1959 3097 
Q 1497 3097 1228 2736 
Q 959 2375 959 1747 
Q 959 1119 1226 758 
Q 1494 397 1959 397 
Q 2419 397 2687 759 
Q 2956 1122 2956 1747 
Q 2956 2369 2687 2733 
Q 2419 3097 1959 3097 
z
M 1959 3584 
Q 2709 3584 3137 3096 
Q 3566 2609 3566 1747 
Q 3566 888 3137 398 
Q 2709 -91 1959 -91 
Q 1206 -91 779 398 
Q 353 888 353 1747 
Q 353 2609 779 3096 
Q 1206 3584 1959 3584 
z
" transform="scale(0.015625)"/>
       <path id="DejaVuSans-63" d="M 3122 3366 
L 3122 2828 
Q 2878 2963 2633 3030 
Q 2388 3097 2138 3097 
Q 1578 3097 1268 2742 
Q 959 2388 959 1747 
Q 959 1106 1268 751 
Q 1578 397 2138 397 
Q 2388 397 2633 464 
Q 2878 531 3122 666 
L 3122 134 
Q 2881 22 2623 -34 
Q 2366 -91 2075 -91 
Q 1284 -91 818 406 
Q 353 903 353 1747 
Q 353 2603 823 3093 
Q 1294 3584 2113 3584 
Q 2378 3584 2631 3529 
Q 2884 3475 3122 3366 
z
" transform="scale(0.015625)"/>
       <path id="DejaVuSans-68" d="M 3513 2113 
L 3513 0 
L 2938 0 
L 2938 2094 
Q 2938 2591 2744 2837 
Q 2550 3084 2163 3084 
Q 1697 3084 1428 2787 
Q 1159 2491 1159 1978 
L 1159 0 
L 581 0 
L 581 4863 
L 1159 4863 
L 1159 2956 
Q 1366 3272 1645 3428 
Q 1925 3584 2291 3584 
Q 2894 3584 3203 3211 
Q 3513 2838 3513 2113 
z
" transform="scale(0.015625)"/>
      </defs>
      <use xlink:href="#DejaVuSans-45"/>
      <use xlink:href="#DejaVuSans-70" x="63.183594"/>
      <use xlink:href="#DejaVuSans-6f" x="126.660156"/>
      <use xlink:href="#DejaVuSans-63" x="187.841797"/>
      <use xlink:href="#DejaVuSans-68" x="242.822266"/>
     </g>
    </g>
   </g>
   <g id="matplotlib.axis_2">
    <g id="ytick_1">
     <g id="line2d_13">
      <path d="M 57.6 302.791117 
L 414.72 302.791117 
" clip-path="url(#p3bea7b07f6)" style="fill: none; stroke: #ffffff; stroke-width: 0.8; stroke-linecap: square"/>
     </g>
     <g id="line2d_14">
      <defs>
       <path id="md8802055bd" d="M 0 0 
L -3.5 0 
" style="stroke: #555555; stroke-width: 0.8"/>
      </defs>
      <g>
       <use xlink:href="#md8802055bd" x="57.6" y="302.791117" style="fill: #555555; stroke: #555555; stroke-width: 0.8"/>
      </g>
     </g>
     <g id="text_8">
      <!-- 0.0 -->
      <g style="fill: #555555" transform="translate(34.696875 306.590336) scale(0.1 -0.1)">
       <defs>
        <path id="DejaVuSans-2e" d="M 684 794 
L 1344 794 
L 1344 0 
L 684 0 
L 684 794 
z
" transform="scale(0.015625)"/>
       </defs>
       <use xlink:href="#DejaVuSans-30"/>
       <use xlink:href="#DejaVuSans-2e" x="63.623047"/>
       <use xlink:href="#DejaVuSans-30" x="95.410156"/>
      </g>
     </g>
    </g>
    <g id="ytick_2">
     <g id="line2d_15">
      <path d="M 57.6 261.307063 
L 414.72 261.307063 
" clip-path="url(#p3bea7b07f6)" style="fill: none; stroke: #ffffff; stroke-width: 0.8; stroke-linecap: square"/>
     </g>
     <g id="line2d_16">
      <g>
       <use xlink:href="#md8802055bd" x="57.6" y="261.307063" style="fill: #555555; stroke: #555555; stroke-width: 0.8"/>
      </g>
     </g>
     <g id="text_9">
      <!-- 0.5 -->
      <g style="fill: #555555" transform="translate(34.696875 265.106282) scale(0.1 -0.1)">
       <use xlink:href="#DejaVuSans-30"/>
       <use xlink:href="#DejaVuSans-2e" x="63.623047"/>
       <use xlink:href="#DejaVuSans-35" x="95.410156"/>
      </g>
     </g>
    </g>
    <g id="ytick_3">
     <g id="line2d_17">
      <path d="M 57.6 219.823009 
L 414.72 219.823009 
" clip-path="url(#p3bea7b07f6)" style="fill: none; stroke: #ffffff; stroke-width: 0.8; stroke-linecap: square"/>
     </g>
     <g id="line2d_18">
      <g>
       <use xlink:href="#md8802055bd" x="57.6" y="219.823009" style="fill: #555555; stroke: #555555; stroke-width: 0.8"/>
      </g>
     </g>
     <g id="text_10">
      <!-- 1.0 -->
      <g style="fill: #555555" transform="translate(34.696875 223.622228) scale(0.1 -0.1)">
       <use xlink:href="#DejaVuSans-31"/>
       <use xlink:href="#DejaVuSans-2e" x="63.623047"/>
       <use xlink:href="#DejaVuSans-30" x="95.410156"/>
      </g>
     </g>
    </g>
    <g id="ytick_4">
     <g id="line2d_19">
      <path d="M 57.6 178.338955 
L 414.72 178.338955 
" clip-path="url(#p3bea7b07f6)" style="fill: none; stroke: #ffffff; stroke-width: 0.8; stroke-linecap: square"/>
     </g>
     <g id="line2d_20">
      <g>
       <use xlink:href="#md8802055bd" x="57.6" y="178.338955" style="fill: #555555; stroke: #555555; stroke-width: 0.8"/>
      </g>
     </g>
     <g id="text_11">
      <!-- 1.5 -->
      <g style="fill: #555555" transform="translate(34.696875 182.138174) scale(0.1 -0.1)">
       <use xlink:href="#DejaVuSans-31"/>
       <use xlink:href="#DejaVuSans-2e" x="63.623047"/>
       <use xlink:href="#DejaVuSans-35" x="95.410156"/>
      </g>
     </g>
    </g>
    <g id="ytick_5">
     <g id="line2d_21">
      <path d="M 57.6 136.854901 
L 414.72 136.854901 
" clip-path="url(#p3bea7b07f6)" style="fill: none; stroke: #ffffff; stroke-width: 0.8; stroke-linecap: square"/>
     </g>
     <g id="line2d_22">
      <g>
       <use xlink:href="#md8802055bd" x="57.6" y="136.854901" style="fill: #555555; stroke: #555555; stroke-width: 0.8"/>
      </g>
     </g>
     <g id="text_12">
      <!-- 2.0 -->
      <g style="fill: #555555" transform="translate(34.696875 140.65412) scale(0.1 -0.1)">
       <use xlink:href="#DejaVuSans-32"/>
       <use xlink:href="#DejaVuSans-2e" x="63.623047"/>
       <use xlink:href="#DejaVuSans-30" x="95.410156"/>
      </g>
     </g>
    </g>
    <g id="ytick_6">
     <g id="line2d_23">
      <path d="M 57.6 95.370847 
L 414.72 95.370847 
" clip-path="url(#p3bea7b07f6)" style="fill: none; stroke: #ffffff; stroke-width: 0.8; stroke-linecap: square"/>
     </g>
     <g id="line2d_24">
      <g>
       <use xlink:href="#md8802055bd" x="57.6" y="95.370847" style="fill: #555555; stroke: #555555; stroke-width: 0.8"/>
      </g>
     </g>
     <g id="text_13">
      <!-- 2.5 -->
      <g style="fill: #555555" transform="translate(34.696875 99.170066) scale(0.1 -0.1)">
       <use xlink:href="#DejaVuSans-32"/>
       <use xlink:href="#DejaVuSans-2e" x="63.623047"/>
       <use xlink:href="#DejaVuSans-35" x="95.410156"/>
      </g>
     </g>
    </g>
    <g id="ytick_7">
     <g id="line2d_25">
      <path d="M 57.6 53.886793 
L 414.72 53.886793 
" clip-path="url(#p3bea7b07f6)" style="fill: none; stroke: #ffffff; stroke-width: 0.8; stroke-linecap: square"/>
     </g>
     <g id="line2d_26">
      <g>
       <use xlink:href="#md8802055bd" x="57.6" y="53.886793" style="fill: #555555; stroke: #555555; stroke-width: 0.8"/>
      </g>
     </g>
     <g id="text_14">
      <!-- 3.0 -->
      <g style="fill: #555555" transform="translate(34.696875 57.686012) scale(0.1 -0.1)">
       <defs>
        <path id="DejaVuSans-33" d="M 2597 2516 
Q 3050 2419 3304 2112 
Q 3559 1806 3559 1356 
Q 3559 666 3084 287 
Q 2609 -91 1734 -91 
Q 1441 -91 1130 -33 
Q 819 25 488 141 
L 488 750 
Q 750 597 1062 519 
Q 1375 441 1716 441 
Q 2309 441 2620 675 
Q 2931 909 2931 1356 
Q 2931 1769 2642 2001 
Q 2353 2234 1838 2234 
L 1294 2234 
L 1294 2753 
L 1863 2753 
Q 2328 2753 2575 2939 
Q 2822 3125 2822 3475 
Q 2822 3834 2567 4026 
Q 2313 4219 1838 4219 
Q 1578 4219 1281 4162 
Q 984 4106 628 3988 
L 628 4550 
Q 988 4650 1302 4700 
Q 1616 4750 1894 4750 
Q 2613 4750 3031 4423 
Q 3450 4097 3450 3541 
Q 3450 3153 3228 2886 
Q 3006 2619 2597 2516 
z
" transform="scale(0.015625)"/>
       </defs>
       <use xlink:href="#DejaVuSans-33"/>
       <use xlink:href="#DejaVuSans-2e" x="63.623047"/>
       <use xlink:href="#DejaVuSans-30" x="95.410156"/>
      </g>
     </g>
    </g>
    <g id="text_15">
     <!-- Loss -->
     <g style="fill: #555555" transform="translate(28.20125 187.688625) rotate(-90) scale(0.12 -0.12)">
      <defs>
       <path id="DejaVuSans-4c" d="M 628 4666 
L 1259 4666 
L 1259 531 
L 3531 531 
L 3531 0 
L 628 0 
L 628 4666 
z
" transform="scale(0.015625)"/>
       <path id="DejaVuSans-73" d="M 2834 3397 
L 2834 2853 
Q 2591 2978 2328 3040 
Q 2066 3103 1784 3103 
Q 1356 3103 1142 2972 
Q 928 2841 928 2578 
Q 928 2378 1081 2264 
Q 1234 2150 1697 2047 
L 1894 2003 
Q 2506 1872 2764 1633 
Q 3022 1394 3022 966 
Q 3022 478 2636 193 
Q 2250 -91 1575 -91 
Q 1294 -91 989 -36 
Q 684 19 347 128 
L 347 722 
Q 666 556 975 473 
Q 1284 391 1588 391 
Q 1994 391 2212 530 
Q 2431 669 2431 922 
Q 2431 1156 2273 1281 
Q 2116 1406 1581 1522 
L 1381 1569 
Q 847 1681 609 1914 
Q 372 2147 372 2553 
Q 372 3047 722 3315 
Q 1072 3584 1716 3584 
Q 2034 3584 2315 3537 
Q 2597 3491 2834 3397 
z
" transform="scale(0.015625)"/>
      </defs>
      <use xlink:href="#DejaVuSans-4c"/>
      <use xlink:href="#DejaVuSans-6f" x="53.962891"/>
      <use xlink:href="#DejaVuSans-73" x="115.144531"/>
      <use xlink:href="#DejaVuSans-73" x="167.244141"/>
     </g>
    </g>
   </g>
   <g id="line2d_27">
    <path d="M 73.832727 243.889143 
L 75.039621 240.81463 
L 76.246516 236.735388 
L 77.45341 231.856405 
L 78.660304 226.104989 
L 79.867198 219.229367 
L 81.074093 211.298763 
L 83.487881 192.504723 
L 85.901669 171.359091 
L 90.729246 127.741098 
L 91.936141 117.420803 
L 94.349929 99.1079 
L 95.556823 91.408368 
L 97.970612 78.038851 
L 100.3844 67.865827 
L 101.591294 64.342747 
L 102.798189 61.175351 
L 104.005083 58.677607 
L 105.211977 56.806311 
L 106.418871 55.283836 
L 107.625765 54.310248 
L 108.83266 53.813029 
L 110.039554 53.568 
L 112.453342 54.246157 
L 113.660237 54.937923 
L 116.074025 56.988357 
L 119.694708 61.403645 
L 120.901602 63.507864 
L 123.31539 68.36265 
L 124.522285 70.928441 
L 125.729179 73.81356 
L 128.142967 81.531488 
L 130.556756 88.547442 
L 131.76365 92.410046 
L 135.384333 102.565425 
L 136.591227 105.866403 
L 137.798121 108.792725 
L 139.005015 110.542842 
L 140.211909 112.755599 
L 141.418804 114.39601 
L 143.832592 115.933459 
L 145.039486 115.369815 
L 146.246381 114.133613 
L 148.660169 110.577953 
L 149.867063 108.512367 
L 151.073957 106.072957 
L 152.280852 103.95147 
L 153.487746 101.562363 
L 154.69464 99.885931 
L 157.108429 97.403853 
L 158.315323 97.331138 
L 159.522217 97.551975 
L 160.729111 99.106436 
L 161.936005 101.016423 
L 163.1429 104.131003 
L 164.349794 107.891279 
L 165.556688 111.283507 
L 166.763582 117.057582 
L 167.970477 123.960091 
L 170.384265 135.909382 
L 172.798053 144.575519 
L 175.211842 157.929222 
L 176.418736 160.243011 
L 177.62563 160.594977 
L 178.832525 159.208913 
L 180.039419 160.422674 
L 181.246313 168.63149 
L 182.453207 182.98412 
L 183.660101 190.903618 
L 186.07389 177.382191 
L 187.280784 169.88603 
L 188.487678 164.934019 
L 189.694572 160.632344 
L 190.901467 157.367338 
L 192.108361 156.186523 
L 193.315255 155.310407 
L 194.522149 155.729816 
L 195.729044 156.01692 
L 196.935938 157.106415 
L 198.142832 156.994424 
L 199.349726 158.136281 
L 200.55662 158.184428 
L 201.763515 157.860522 
L 204.177303 157.06077 
L 205.384197 156.41272 
L 207.797986 153.425027 
L 211.418668 147.952496 
L 212.625563 146.565205 
L 213.832457 144.443846 
L 217.45314 139.522526 
L 218.660034 138.290606 
L 219.866928 137.224294 
L 221.073822 136.824497 
L 222.280716 135.805136 
L 223.487611 135.264122 
L 224.694505 135.164405 
L 225.901399 133.688079 
L 227.108293 133.878038 
L 228.315188 133.336588 
L 229.522082 132.672179 
L 230.728976 133.03813 
L 234.349659 131.508455 
L 236.763447 130.40536 
L 239.177236 129.485873 
L 240.38413 128.605514 
L 242.797918 127.166713 
L 244.004812 126.295907 
L 245.211707 125.977688 
L 246.418601 125.251305 
L 247.625495 123.589135 
L 248.832389 123.120501 
L 251.246178 123.092214 
L 252.453072 121.70694 
L 253.659966 122.07934 
L 254.86686 121.002653 
L 256.073755 120.814119 
L 257.280649 120.203554 
L 258.487543 120.134281 
L 260.901332 118.348479 
L 263.31512 118.165879 
L 264.522014 117.091605 
L 265.728908 116.383836 
L 266.935803 116.985934 
L 268.142697 115.803893 
L 270.556485 114.644382 
L 271.76338 114.016212 
L 272.970274 113.018253 
L 274.177168 113.535431 
L 275.384062 112.823983 
L 276.590956 111.636086 
L 277.797851 111.218486 
L 279.004745 110.964833 
L 280.211639 110.429456 
L 281.418533 109.499565 
L 282.625428 108.865164 
L 283.832322 108.903875 
L 286.24611 108.19215 
L 287.453004 107.758646 
L 288.659899 107.522202 
L 289.866793 106.521514 
L 291.073687 106.177144 
L 292.280581 106.426782 
L 293.487475 104.814422 
L 294.69437 104.469498 
L 295.901264 104.501484 
L 297.108158 103.334595 
L 299.521947 103.628107 
L 300.728841 101.847587 
L 301.935735 101.833187 
L 303.142629 101.58343 
L 304.349523 100.834061 
L 305.556418 99.771438 
L 306.763312 99.915603 
L 307.970206 99.732093 
L 309.1771 99.303535 
L 310.383995 98.54928 
L 311.590889 98.348165 
L 312.797783 97.579095 
L 315.211571 97.345974 
L 316.418466 96.976581 
L 317.62536 96.979053 
L 318.832254 95.702062 
L 320.039148 95.303275 
L 321.246043 94.468965 
L 322.452937 94.134348 
L 324.866725 92.944117 
L 326.073619 93.212942 
L 327.280514 93.177851 
L 328.487408 91.873601 
L 329.694302 92.161575 
L 330.901196 91.779542 
L 332.108091 91.856827 
L 334.521879 90.365962 
L 335.728773 89.770451 
L 336.935667 91.045009 
L 338.142562 88.898814 
L 339.349456 88.625004 
L 341.763244 87.825371 
L 342.970139 87.76852 
L 344.177033 87.011081 
L 345.383927 86.640481 
L 346.590821 86.095491 
L 347.797715 86.731 
L 350.211504 85.454503 
L 351.418398 85.423288 
L 352.625292 84.885221 
L 353.832187 85.586661 
L 355.039081 84.452944 
L 356.245975 83.694891 
L 357.452869 83.233299 
L 358.659763 82.242521 
L 359.866658 82.116238 
L 361.073552 82.285564 
L 362.280446 82.06273 
L 363.48734 81.170067 
L 364.694235 81.465023 
L 365.901129 80.004898 
L 367.108023 80.183106 
L 368.314917 81.529015 
L 370.728706 79.576597 
L 371.9356 79.685057 
L 373.142494 78.504044 
L 374.349388 79.575549 
L 375.556283 79.06563 
L 376.763177 78.215417 
L 377.970071 77.923408 
L 379.176965 76.689243 
L 380.383859 77.238684 
L 381.590754 75.465958 
L 382.797648 76.057137 
L 384.004542 75.619123 
L 385.211436 75.027865 
L 386.418331 75.823996 
L 387.625225 75.267632 
L 388.832119 74.130315 
L 390.039013 74.743531 
L 391.245907 73.235219 
L 392.452802 73.469823 
L 393.659696 74.135993 
L 394.86659 73.979563 
L 396.073484 74.172944 
L 397.280379 73.462465 
L 398.487273 71.583316 
L 398.487273 71.583316 
" clip-path="url(#p3bea7b07f6)" style="fill: none; stroke: #6495ed; stroke-width: 2; stroke-linecap: square"/>
   </g>
   <g id="line2d_28">
    <path d="M 73.832727 244.851626 
L 75.039621 245.673189 
L 76.246516 247.071222 
L 78.660304 250.506798 
L 81.074093 254.339872 
L 84.694775 260.170636 
L 87.108564 263.436251 
L 88.315458 264.956619 
L 89.522352 266.245091 
L 93.143035 269.419167 
L 94.349929 270.212634 
L 95.556823 271.148769 
L 100.3844 273.884135 
L 101.591294 274.401773 
L 102.798189 275.112772 
L 110.039554 278.237048 
L 117.280919 280.812398 
L 122.108496 282.220154 
L 126.936073 283.267721 
L 129.349861 283.658452 
L 132.970544 284.01782 
L 145.039486 284.314501 
L 146.246381 284.586159 
L 148.660169 284.796019 
L 149.867063 285.141643 
L 151.073957 285.213219 
L 152.280852 285.163297 
L 153.487746 285.583465 
L 154.69464 285.458055 
L 155.901534 285.19391 
L 157.108429 285.701255 
L 158.315323 285.391382 
L 159.522217 284.943004 
L 160.729111 285.522333 
L 161.936005 285.010702 
L 163.1429 284.2862 
L 164.349794 284.963034 
L 165.556688 284.268001 
L 166.763582 283.163326 
L 167.970477 283.692281 
L 169.177371 282.423969 
L 170.384265 280.775175 
L 171.591159 281.527859 
L 172.798053 280.127765 
L 174.004948 277.707617 
L 175.211842 277.866654 
L 176.418736 276.052392 
L 177.62563 273.74445 
L 178.832525 275.867471 
L 180.039419 274.58255 
L 181.246313 270.551693 
L 182.453207 268.92749 
L 183.660101 264.693788 
L 184.866996 264.098101 
L 186.07389 268.772129 
L 187.280784 270.107746 
L 188.487678 269.094654 
L 189.694572 273.165748 
L 190.901467 274.163466 
L 192.108361 273.462283 
L 193.315255 276.594944 
L 194.522149 277.49386 
L 195.729044 277.399578 
L 196.935938 279.273259 
L 198.142832 280.150026 
L 199.349726 280.154066 
L 200.55662 281.185184 
L 201.763515 281.75153 
L 202.970409 281.872813 
L 204.177303 282.356264 
L 205.384197 282.698532 
L 206.591092 282.845965 
L 209.00488 283.579717 
L 210.211774 283.699224 
L 213.832457 284.467668 
L 215.039351 284.596939 
L 216.246245 284.952476 
L 217.45314 285.121163 
L 218.660034 285.168173 
L 219.866928 285.483513 
L 221.073822 285.612972 
L 222.280716 285.621178 
L 223.487611 285.905547 
L 228.315188 286.538838 
L 229.522082 286.51222 
L 231.93587 286.908196 
L 233.142764 286.856202 
L 235.556553 287.300813 
L 236.763447 287.223288 
L 239.177236 287.62623 
L 240.38413 287.560849 
L 242.797918 287.980016 
L 244.004812 287.901952 
L 246.418601 288.298048 
L 247.625495 288.270274 
L 250.039284 288.63228 
L 251.246178 288.482186 
L 252.453072 288.759365 
L 253.659966 288.902562 
L 254.86686 288.826244 
L 257.280649 289.231503 
L 258.487543 289.075301 
L 260.901332 289.552053 
L 262.108226 289.38389 
L 264.522014 289.795832 
L 265.728908 289.689767 
L 266.935803 289.804738 
L 268.142697 290.040345 
L 269.349591 289.904682 
L 271.76338 290.303751 
L 272.970274 290.200538 
L 275.384062 290.508984 
L 276.590956 290.415957 
L 279.004745 290.766073 
L 280.211639 290.637316 
L 282.625428 291.063175 
L 283.832322 290.887896 
L 286.24611 291.242307 
L 287.453004 291.103853 
L 289.866793 291.488491 
L 291.073687 291.33596 
L 292.280581 291.4615 
L 293.487475 291.704041 
L 294.69437 291.553742 
L 297.108158 291.906781 
L 298.315052 291.715827 
L 299.521947 291.846576 
L 300.728841 292.094531 
L 301.935735 291.903184 
L 304.349523 292.256209 
L 305.556418 292.124 
L 307.970206 292.425779 
L 309.1771 292.26004 
L 311.590889 292.607969 
L 312.797783 292.478747 
L 315.211571 292.780158 
L 316.418466 292.60561 
L 318.832254 292.952998 
L 320.039148 292.788771 
L 322.452937 293.112102 
L 323.659831 292.964535 
L 326.073619 293.260318 
L 327.280514 293.078792 
L 329.694302 293.405953 
L 330.901196 293.245399 
L 333.314985 293.529117 
L 334.521879 293.39469 
L 336.935667 293.603543 
L 338.142562 293.507629 
L 340.55635 293.805979 
L 341.763244 293.647451 
L 344.177033 293.950051 
L 345.383927 293.801269 
L 347.797715 294.050818 
L 349.00461 293.908814 
L 351.418398 294.181464 
L 352.625292 294.035177 
L 358.659763 294.4336 
L 359.866658 294.261178 
L 362.280446 294.503304 
L 363.48734 294.378413 
L 365.901129 294.685092 
L 367.108023 294.517049 
L 373.142494 294.855997 
L 374.349388 294.632856 
L 376.763177 294.896554 
L 377.970071 294.726334 
L 380.383859 294.986704 
L 381.590754 294.887359 
L 384.004542 295.122894 
L 385.211436 294.982853 
L 387.625225 295.207367 
L 388.832119 295.093296 
L 391.245907 295.361377 
L 392.452802 295.181805 
L 394.86659 295.373198 
L 396.073484 295.177211 
L 398.487273 295.488 
L 398.487273 295.488 
" clip-path="url(#p3bea7b07f6)" style="fill: none; stroke: #dc143c; stroke-width: 2; stroke-linecap: square"/>
   </g>
   <g id="line2d_29">
    <path d="M 73.832727 248.297866 
L 76.246516 248.297866 
L 77.45341 247.314632 
L 79.867198 247.314632 
L 81.074093 247.947407 
L 83.487881 247.947407 
L 84.694775 248.181047 
L 101.591294 248.254059 
L 102.798189 248.528261 
L 105.211977 248.528261 
L 106.418871 248.847894 
L 108.83266 248.847894 
L 110.039554 248.973637 
L 116.074025 249.070176 
L 117.280919 248.778126 
L 119.694708 248.778126 
L 120.901602 248.224854 
L 123.31539 248.224854 
L 124.522285 247.778667 
L 126.936073 247.778667 
L 128.142967 247.428207 
L 130.556756 247.428207 
L 131.76365 247.277315 
L 137.798121 247.314632 
L 140.211909 247.402247 
L 145.039486 247.470392 
L 146.246381 247.00798 
L 148.660169 247.00798 
L 149.867063 246.550435 
L 152.280852 246.550435 
L 153.487746 246.30057 
L 163.1429 246.350868 
L 165.556688 246.414145 
L 170.384265 246.516363 
L 171.591159 246.750002 
L 174.004948 246.750002 
L 175.211842 247.24811 
L 177.62563 247.24811 
L 178.832525 247.658602 
L 184.866996 247.596947 
L 186.07389 247.069635 
L 188.487678 247.069635 
L 189.694572 246.282723 
L 192.108361 246.282723 
L 193.315255 245.671041 
L 195.729044 245.671041 
L 196.935938 243.649407 
L 199.349726 243.649407 
L 200.55662 241.822473 
L 202.970409 241.822473 
L 204.177303 241.285426 
L 210.211774 241.239996 
L 211.418668 241.514198 
L 213.832457 241.514198 
L 215.039351 241.861413 
L 217.45314 241.861413 
L 218.660034 242.08045 
L 231.93587 242.059358 
L 234.349659 241.96363 
L 239.177236 241.888995 
L 241.591024 241.82734 
L 246.418601 241.778666 
L 248.832389 241.682938 
L 253.659966 241.605058 
L 254.86686 241.470391 
L 257.280649 241.470391 
L 258.487543 241.348703 
L 264.522014 241.251353 
L 265.728908 241.092348 
L 268.142697 241.092348 
L 269.349591 240.952814 
L 271.76338 240.952814 
L 272.970274 240.762981 
L 275.384062 240.762981 
L 276.590956 240.600731 
L 279.004745 240.600731 
L 280.211639 240.441726 
L 282.625428 240.441726 
L 283.832322 240.2884 
L 286.24611 240.2884 
L 287.453004 240.167524 
L 289.866793 240.167524 
L 291.073687 240.027989 
L 293.487475 240.027989 
L 294.69437 239.912792 
L 297.108158 239.912792 
L 298.315052 239.787859 
L 304.349523 239.700244 
L 306.763312 239.599649 
L 307.970206 239.599649 
L 309.1771 239.479584 
L 311.590889 239.479584 
L 312.797783 239.338427 
L 315.211571 239.338427 
L 316.418466 239.215117 
L 322.452937 239.143727 
L 324.866725 239.036642 
L 329.694302 238.97012 
L 332.108091 238.871147 
L 336.935667 238.7884 
L 339.349456 238.69754 
L 344.177033 238.609925 
L 346.590821 238.5288 
L 351.418398 238.436318 
L 353.832187 238.338968 
L 358.659763 238.231883 
L 359.866658 238.098838 
L 362.280446 238.098838 
L 363.48734 237.986885 
L 369.521811 237.904138 
L 371.9356 237.818146 
L 376.763177 237.735398 
L 379.176965 237.633992 
L 384.004542 237.563413 
L 386.418331 237.483911 
L 391.245907 237.397107 
L 393.659696 237.303813 
L 398.487273 237.214576 
L 398.487273 237.214576 
" clip-path="url(#p3bea7b07f6)" style="fill: none; stroke: #ffff00; stroke-width: 3; stroke-linecap: square"/>
   </g>
   <g id="patch_3">
    <path d="M 57.6 307.584 
L 57.6 41.472 
" style="fill: none; stroke: #ffffff; stroke-linejoin: miter; stroke-linecap: square"/>
   </g>
   <g id="patch_4">
    <path d="M 414.72 307.584 
L 414.72 41.472 
" style="fill: none; stroke: #ffffff; stroke-linejoin: miter; stroke-linecap: square"/>
   </g>
   <g id="patch_5">
    <path d="M 57.6 307.584 
L 414.72 307.584 
" style="fill: none; stroke: #ffffff; stroke-linejoin: miter; stroke-linecap: square"/>
   </g>
   <g id="patch_6">
    <path d="M 57.6 41.472 
L 414.72 41.472 
" style="fill: none; stroke: #ffffff; stroke-linejoin: miter; stroke-linecap: square"/>
   </g>
   <g id="legend_1">
    <g id="patch_7">
     <path d="M 243.124687 302.584 
L 407.72 302.584 
Q 409.72 302.584 409.72 300.584 
L 409.72 257.549625 
Q 409.72 255.549625 407.72 255.549625 
L 243.124687 255.549625 
Q 241.124687 255.549625 241.124687 257.549625 
L 241.124687 300.584 
Q 241.124687 302.584 243.124687 302.584 
z
" style="fill: #e5e5e5; opacity: 0.8; stroke: #cccccc; stroke-width: 0.5; stroke-linejoin: miter"/>
    </g>
    <g id="line2d_30">
     <path d="M 245.124687 263.648062 
L 255.124687 263.648062 
L 265.124687 263.648062 
" style="fill: none; stroke: #6495ed; stroke-width: 2; stroke-linecap: square"/>
    </g>
    <g id="text_16">
     <!-- Generator loss -->
     <g transform="translate(273.124687 267.148062) scale(0.1 -0.1)">
      <defs>
       <path id="DejaVuSans-47" d="M 3809 666 
L 3809 1919 
L 2778 1919 
L 2778 2438 
L 4434 2438 
L 4434 434 
Q 4069 175 3628 42 
Q 3188 -91 2688 -91 
Q 1594 -91 976 548 
Q 359 1188 359 2328 
Q 359 3472 976 4111 
Q 1594 4750 2688 4750 
Q 3144 4750 3555 4637 
Q 3966 4525 4313 4306 
L 4313 3634 
Q 3963 3931 3569 4081 
Q 3175 4231 2741 4231 
Q 1884 4231 1454 3753 
Q 1025 3275 1025 2328 
Q 1025 1384 1454 906 
Q 1884 428 2741 428 
Q 3075 428 3337 486 
Q 3600 544 3809 666 
z
" transform="scale(0.015625)"/>
       <path id="DejaVuSans-65" d="M 3597 1894 
L 3597 1613 
L 953 1613 
Q 991 1019 1311 708 
Q 1631 397 2203 397 
Q 2534 397 2845 478 
Q 3156 559 3463 722 
L 3463 178 
Q 3153 47 2828 -22 
Q 2503 -91 2169 -91 
Q 1331 -91 842 396 
Q 353 884 353 1716 
Q 353 2575 817 3079 
Q 1281 3584 2069 3584 
Q 2775 3584 3186 3129 
Q 3597 2675 3597 1894 
z
M 3022 2063 
Q 3016 2534 2758 2815 
Q 2500 3097 2075 3097 
Q 1594 3097 1305 2825 
Q 1016 2553 972 2059 
L 3022 2063 
z
" transform="scale(0.015625)"/>
       <path id="DejaVuSans-6e" d="M 3513 2113 
L 3513 0 
L 2938 0 
L 2938 2094 
Q 2938 2591 2744 2837 
Q 2550 3084 2163 3084 
Q 1697 3084 1428 2787 
Q 1159 2491 1159 1978 
L 1159 0 
L 581 0 
L 581 3500 
L 1159 3500 
L 1159 2956 
Q 1366 3272 1645 3428 
Q 1925 3584 2291 3584 
Q 2894 3584 3203 3211 
Q 3513 2838 3513 2113 
z
" transform="scale(0.015625)"/>
       <path id="DejaVuSans-72" d="M 2631 2963 
Q 2534 3019 2420 3045 
Q 2306 3072 2169 3072 
Q 1681 3072 1420 2755 
Q 1159 2438 1159 1844 
L 1159 0 
L 581 0 
L 581 3500 
L 1159 3500 
L 1159 2956 
Q 1341 3275 1631 3429 
Q 1922 3584 2338 3584 
Q 2397 3584 2469 3576 
Q 2541 3569 2628 3553 
L 2631 2963 
z
" transform="scale(0.015625)"/>
       <path id="DejaVuSans-61" d="M 2194 1759 
Q 1497 1759 1228 1600 
Q 959 1441 959 1056 
Q 959 750 1161 570 
Q 1363 391 1709 391 
Q 2188 391 2477 730 
Q 2766 1069 2766 1631 
L 2766 1759 
L 2194 1759 
z
M 3341 1997 
L 3341 0 
L 2766 0 
L 2766 531 
Q 2569 213 2275 61 
Q 1981 -91 1556 -91 
Q 1019 -91 701 211 
Q 384 513 384 1019 
Q 384 1609 779 1909 
Q 1175 2209 1959 2209 
L 2766 2209 
L 2766 2266 
Q 2766 2663 2505 2880 
Q 2244 3097 1772 3097 
Q 1472 3097 1187 3025 
Q 903 2953 641 2809 
L 641 3341 
Q 956 3463 1253 3523 
Q 1550 3584 1831 3584 
Q 2591 3584 2966 3190 
Q 3341 2797 3341 1997 
z
" transform="scale(0.015625)"/>
       <path id="DejaVuSans-74" d="M 1172 4494 
L 1172 3500 
L 2356 3500 
L 2356 3053 
L 1172 3053 
L 1172 1153 
Q 1172 725 1289 603 
Q 1406 481 1766 481 
L 2356 481 
L 2356 0 
L 1766 0 
Q 1100 0 847 248 
Q 594 497 594 1153 
L 594 3053 
L 172 3053 
L 172 3500 
L 594 3500 
L 594 4494 
L 1172 4494 
z
" transform="scale(0.015625)"/>
       <path id="DejaVuSans-20" transform="scale(0.015625)"/>
       <path id="DejaVuSans-6c" d="M 603 4863 
L 1178 4863 
L 1178 0 
L 603 0 
L 603 4863 
z
" transform="scale(0.015625)"/>
      </defs>
      <use xlink:href="#DejaVuSans-47"/>
      <use xlink:href="#DejaVuSans-65" x="77.490234"/>
      <use xlink:href="#DejaVuSans-6e" x="139.013672"/>
      <use xlink:href="#DejaVuSans-65" x="202.392578"/>
      <use xlink:href="#DejaVuSans-72" x="263.916016"/>
      <use xlink:href="#DejaVuSans-61" x="305.029297"/>
      <use xlink:href="#DejaVuSans-74" x="366.308594"/>
      <use xlink:href="#DejaVuSans-6f" x="405.517578"/>
      <use xlink:href="#DejaVuSans-72" x="466.699219"/>
      <use xlink:href="#DejaVuSans-20" x="507.8125"/>
      <use xlink:href="#DejaVuSans-6c" x="539.599609"/>
      <use xlink:href="#DejaVuSans-6f" x="567.382812"/>
      <use xlink:href="#DejaVuSans-73" x="628.564453"/>
      <use xlink:href="#DejaVuSans-73" x="680.664062"/>
     </g>
    </g>
    <g id="line2d_31">
     <path d="M 245.124687 278.326188 
L 255.124687 278.326188 
L 265.124687 278.326188 
" style="fill: none; stroke: #dc143c; stroke-width: 2; stroke-linecap: square"/>
    </g>
    <g id="text_17">
     <!-- Average discriminator loss -->
     <g transform="translate(273.124687 281.826188) scale(0.1 -0.1)">
      <defs>
       <path id="DejaVuSans-41" d="M 2188 4044 
L 1331 1722 
L 3047 1722 
L 2188 4044 
z
M 1831 4666 
L 2547 4666 
L 4325 0 
L 3669 0 
L 3244 1197 
L 1141 1197 
L 716 0 
L 50 0 
L 1831 4666 
z
" transform="scale(0.015625)"/>
       <path id="DejaVuSans-76" d="M 191 3500 
L 800 3500 
L 1894 563 
L 2988 3500 
L 3597 3500 
L 2284 0 
L 1503 0 
L 191 3500 
z
" transform="scale(0.015625)"/>
       <path id="DejaVuSans-67" d="M 2906 1791 
Q 2906 2416 2648 2759 
Q 2391 3103 1925 3103 
Q 1463 3103 1205 2759 
Q 947 2416 947 1791 
Q 947 1169 1205 825 
Q 1463 481 1925 481 
Q 2391 481 2648 825 
Q 2906 1169 2906 1791 
z
M 3481 434 
Q 3481 -459 3084 -895 
Q 2688 -1331 1869 -1331 
Q 1566 -1331 1297 -1286 
Q 1028 -1241 775 -1147 
L 775 -588 
Q 1028 -725 1275 -790 
Q 1522 -856 1778 -856 
Q 2344 -856 2625 -561 
Q 2906 -266 2906 331 
L 2906 616 
Q 2728 306 2450 153 
Q 2172 0 1784 0 
Q 1141 0 747 490 
Q 353 981 353 1791 
Q 353 2603 747 3093 
Q 1141 3584 1784 3584 
Q 2172 3584 2450 3431 
Q 2728 3278 2906 2969 
L 2906 3500 
L 3481 3500 
L 3481 434 
z
" transform="scale(0.015625)"/>
       <path id="DejaVuSans-64" d="M 2906 2969 
L 2906 4863 
L 3481 4863 
L 3481 0 
L 2906 0 
L 2906 525 
Q 2725 213 2448 61 
Q 2172 -91 1784 -91 
Q 1150 -91 751 415 
Q 353 922 353 1747 
Q 353 2572 751 3078 
Q 1150 3584 1784 3584 
Q 2172 3584 2448 3432 
Q 2725 3281 2906 2969 
z
M 947 1747 
Q 947 1113 1208 752 
Q 1469 391 1925 391 
Q 2381 391 2643 752 
Q 2906 1113 2906 1747 
Q 2906 2381 2643 2742 
Q 2381 3103 1925 3103 
Q 1469 3103 1208 2742 
Q 947 2381 947 1747 
z
" transform="scale(0.015625)"/>
       <path id="DejaVuSans-69" d="M 603 3500 
L 1178 3500 
L 1178 0 
L 603 0 
L 603 3500 
z
M 603 4863 
L 1178 4863 
L 1178 4134 
L 603 4134 
L 603 4863 
z
" transform="scale(0.015625)"/>
       <path id="DejaVuSans-6d" d="M 3328 2828 
Q 3544 3216 3844 3400 
Q 4144 3584 4550 3584 
Q 5097 3584 5394 3201 
Q 5691 2819 5691 2113 
L 5691 0 
L 5113 0 
L 5113 2094 
Q 5113 2597 4934 2840 
Q 4756 3084 4391 3084 
Q 3944 3084 3684 2787 
Q 3425 2491 3425 1978 
L 3425 0 
L 2847 0 
L 2847 2094 
Q 2847 2600 2669 2842 
Q 2491 3084 2119 3084 
Q 1678 3084 1418 2786 
Q 1159 2488 1159 1978 
L 1159 0 
L 581 0 
L 581 3500 
L 1159 3500 
L 1159 2956 
Q 1356 3278 1631 3431 
Q 1906 3584 2284 3584 
Q 2666 3584 2933 3390 
Q 3200 3197 3328 2828 
z
" transform="scale(0.015625)"/>
      </defs>
      <use xlink:href="#DejaVuSans-41"/>
      <use xlink:href="#DejaVuSans-76" x="62.533203"/>
      <use xlink:href="#DejaVuSans-65" x="121.712891"/>
      <use xlink:href="#DejaVuSans-72" x="183.236328"/>
      <use xlink:href="#DejaVuSans-61" x="224.349609"/>
      <use xlink:href="#DejaVuSans-67" x="285.628906"/>
      <use xlink:href="#DejaVuSans-65" x="349.105469"/>
      <use xlink:href="#DejaVuSans-20" x="410.628906"/>
      <use xlink:href="#DejaVuSans-64" x="442.416016"/>
      <use xlink:href="#DejaVuSans-69" x="505.892578"/>
      <use xlink:href="#DejaVuSans-73" x="533.675781"/>
      <use xlink:href="#DejaVuSans-63" x="585.775391"/>
      <use xlink:href="#DejaVuSans-72" x="640.755859"/>
      <use xlink:href="#DejaVuSans-69" x="681.869141"/>
      <use xlink:href="#DejaVuSans-6d" x="709.652344"/>
      <use xlink:href="#DejaVuSans-69" x="807.064453"/>
      <use xlink:href="#DejaVuSans-6e" x="834.847656"/>
      <use xlink:href="#DejaVuSans-61" x="898.226562"/>
      <use xlink:href="#DejaVuSans-74" x="959.505859"/>
      <use xlink:href="#DejaVuSans-6f" x="998.714844"/>
      <use xlink:href="#DejaVuSans-72" x="1059.896484"/>
      <use xlink:href="#DejaVuSans-20" x="1101.009766"/>
      <use xlink:href="#DejaVuSans-6c" x="1132.796875"/>
      <use xlink:href="#DejaVuSans-6f" x="1160.580078"/>
      <use xlink:href="#DejaVuSans-73" x="1221.761719"/>
      <use xlink:href="#DejaVuSans-73" x="1273.861328"/>
     </g>
    </g>
    <g id="line2d_32">
     <path d="M 245.124687 293.004312 
L 255.124687 293.004312 
L 265.124687 293.004312 
" style="fill: none; stroke: #ffff00; stroke-width: 3; stroke-linecap: square"/>
    </g>
    <g id="text_18">
     <!-- ROC AUC -->
     <g transform="translate(273.124687 296.504312) scale(0.1 -0.1)">
      <defs>
       <path id="DejaVuSans-52" d="M 2841 2188 
Q 3044 2119 3236 1894 
Q 3428 1669 3622 1275 
L 4263 0 
L 3584 0 
L 2988 1197 
Q 2756 1666 2539 1819 
Q 2322 1972 1947 1972 
L 1259 1972 
L 1259 0 
L 628 0 
L 628 4666 
L 2053 4666 
Q 2853 4666 3247 4331 
Q 3641 3997 3641 3322 
Q 3641 2881 3436 2590 
Q 3231 2300 2841 2188 
z
M 1259 4147 
L 1259 2491 
L 2053 2491 
Q 2509 2491 2742 2702 
Q 2975 2913 2975 3322 
Q 2975 3731 2742 3939 
Q 2509 4147 2053 4147 
L 1259 4147 
z
" transform="scale(0.015625)"/>
       <path id="DejaVuSans-4f" d="M 2522 4238 
Q 1834 4238 1429 3725 
Q 1025 3213 1025 2328 
Q 1025 1447 1429 934 
Q 1834 422 2522 422 
Q 3209 422 3611 934 
Q 4013 1447 4013 2328 
Q 4013 3213 3611 3725 
Q 3209 4238 2522 4238 
z
M 2522 4750 
Q 3503 4750 4090 4092 
Q 4678 3434 4678 2328 
Q 4678 1225 4090 567 
Q 3503 -91 2522 -91 
Q 1538 -91 948 565 
Q 359 1222 359 2328 
Q 359 3434 948 4092 
Q 1538 4750 2522 4750 
z
" transform="scale(0.015625)"/>
       <path id="DejaVuSans-43" d="M 4122 4306 
L 4122 3641 
Q 3803 3938 3442 4084 
Q 3081 4231 2675 4231 
Q 1875 4231 1450 3742 
Q 1025 3253 1025 2328 
Q 1025 1406 1450 917 
Q 1875 428 2675 428 
Q 3081 428 3442 575 
Q 3803 722 4122 1019 
L 4122 359 
Q 3791 134 3420 21 
Q 3050 -91 2638 -91 
Q 1578 -91 968 557 
Q 359 1206 359 2328 
Q 359 3453 968 4101 
Q 1578 4750 2638 4750 
Q 3056 4750 3426 4639 
Q 3797 4528 4122 4306 
z
" transform="scale(0.015625)"/>
       <path id="DejaVuSans-55" d="M 556 4666 
L 1191 4666 
L 1191 1831 
Q 1191 1081 1462 751 
Q 1734 422 2344 422 
Q 2950 422 3222 751 
Q 3494 1081 3494 1831 
L 3494 4666 
L 4128 4666 
L 4128 1753 
Q 4128 841 3676 375 
Q 3225 -91 2344 -91 
Q 1459 -91 1007 375 
Q 556 841 556 1753 
L 556 4666 
z
" transform="scale(0.015625)"/>
      </defs>
      <use xlink:href="#DejaVuSans-52"/>
      <use xlink:href="#DejaVuSans-4f" x="69.482422"/>
      <use xlink:href="#DejaVuSans-43" x="148.193359"/>
      <use xlink:href="#DejaVuSans-20" x="218.017578"/>
      <use xlink:href="#DejaVuSans-41" x="249.804688"/>
      <use xlink:href="#DejaVuSans-55" x="318.212891"/>
      <use xlink:href="#DejaVuSans-43" x="391.40625"/>
     </g>
    </g>
   </g>
  </g>
 </g>
 <defs>
  <clipPath id="p3bea7b07f6">
   <rect x="57.6" y="41.472" width="357.12" height="266.112"/>
  </clipPath>
 </defs>
</svg>
