<?xml version="1.0" encoding="utf-8" standalone="no"?>
<!DOCTYPE svg PUBLIC "-//W3C//DTD SVG 1.1//EN"
  "http://www.w3.org/Graphics/SVG/1.1/DTD/svg11.dtd">
<svg xmlns:xlink="http://www.w3.org/1999/xlink" width="460.8pt" height="345.6pt" viewBox="0 0 460.8 345.6" xmlns="http://www.w3.org/2000/svg" version="1.1">
 <metadata>
  <rdf:RDF xmlns:dc="http://purl.org/dc/elements/1.1/" xmlns:cc="http://creativecommons.org/ns#" xmlns:rdf="http://www.w3.org/1999/02/22-rdf-syntax-ns#">
   <cc:Work>
    <dc:type rdf:resource="http://purl.org/dc/dcmitype/StillImage"/>
    <dc:date>2023-07-13T09:44:07.679975</dc:date>
    <dc:format>image/svg+xml</dc:format>
    <dc:creator>
     <cc:Agent>
      <dc:title>Matplotlib v3.7.1, https://matplotlib.org/</dc:title>
     </cc:Agent>
    </dc:creator>
   </cc:Work>
  </rdf:RDF>
 </metadata>
 <defs>
  <style type="text/css">*{stroke-linejoin: round; stroke-linecap: butt}</style>
 </defs>
 <g id="figure_1">
  <g id="patch_1">
   <path d="M 0 345.6 
L 460.8 345.6 
L 460.8 0 
L 0 0 
z
" style="fill: #ffffff"/>
  </g>
  <g id="axes_1">
   <g id="patch_2">
    <path d="M 57.6 307.584 
L 414.72 307.584 
L 414.72 41.472 
L 57.6 41.472 
z
" style="fill: #e5e5e5"/>
   </g>
   <g id="matplotlib.axis_1">
    <g id="xtick_1">
     <g id="line2d_1">
      <path d="M 73.832727 307.584 
L 73.832727 41.472 
" clip-path="url(#p29a2847d04)" style="fill: none; stroke: #ffffff; stroke-width: 0.8; stroke-linecap: square"/>
     </g>
     <g id="line2d_2">
      <defs>
       <path id="mc979d085cf" d="M 0 0 
L 0 3.5 
" style="stroke: #555555; stroke-width: 0.8"/>
      </defs>
      <g>
       <use xlink:href="#mc979d085cf" x="73.832727" y="307.584" style="fill: #555555; stroke: #555555; stroke-width: 0.8"/>
      </g>
     </g>
     <g id="text_1">
      <!-- 0 -->
      <g style="fill: #555555" transform="translate(70.651477 322.182437) scale(0.1 -0.1)">
       <defs>
        <path id="DejaVuSans-30" d="M 2034 4250 
Q 1547 4250 1301 3770 
Q 1056 3291 1056 2328 
Q 1056 1369 1301 889 
Q 1547 409 2034 409 
Q 2525 409 2770 889 
Q 3016 1369 3016 2328 
Q 3016 3291 2770 3770 
Q 2525 4250 2034 4250 
z
M 2034 4750 
Q 2819 4750 3233 4129 
Q 3647 3509 3647 2328 
Q 3647 1150 3233 529 
Q 2819 -91 2034 -91 
Q 1250 -91 836 529 
Q 422 1150 422 2328 
Q 422 3509 836 4129 
Q 1250 4750 2034 4750 
z
" transform="scale(0.015625)"/>
       </defs>
       <use xlink:href="#DejaVuSans-30"/>
      </g>
     </g>
    </g>
    <g id="xtick_2">
     <g id="line2d_3">
      <path d="M 134.177438 307.584 
L 134.177438 41.472 
" clip-path="url(#p29a2847d04)" style="fill: none; stroke: #ffffff; stroke-width: 0.8; stroke-linecap: square"/>
     </g>
     <g id="line2d_4">
      <g>
       <use xlink:href="#mc979d085cf" x="134.177438" y="307.584" style="fill: #555555; stroke: #555555; stroke-width: 0.8"/>
      </g>
     </g>
     <g id="text_2">
      <!-- 50 -->
      <g style="fill: #555555" transform="translate(127.814938 322.182437) scale(0.1 -0.1)">
       <defs>
        <path id="DejaVuSans-35" d="M 691 4666 
L 3169 4666 
L 3169 4134 
L 1269 4134 
L 1269 2991 
Q 1406 3038 1543 3061 
Q 1681 3084 1819 3084 
Q 2600 3084 3056 2656 
Q 3513 2228 3513 1497 
Q 3513 744 3044 326 
Q 2575 -91 1722 -91 
Q 1428 -91 1123 -41 
Q 819 9 494 109 
L 494 744 
Q 775 591 1075 516 
Q 1375 441 1709 441 
Q 2250 441 2565 725 
Q 2881 1009 2881 1497 
Q 2881 1984 2565 2268 
Q 2250 2553 1709 2553 
Q 1456 2553 1204 2497 
Q 953 2441 691 2322 
L 691 4666 
z
" transform="scale(0.015625)"/>
       </defs>
       <use xlink:href="#DejaVuSans-35"/>
       <use xlink:href="#DejaVuSans-30" x="63.623047"/>
      </g>
     </g>
    </g>
    <g id="xtick_3">
     <g id="line2d_5">
      <path d="M 194.522149 307.584 
L 194.522149 41.472 
" clip-path="url(#p29a2847d04)" style="fill: none; stroke: #ffffff; stroke-width: 0.8; stroke-linecap: square"/>
     </g>
     <g id="line2d_6">
      <g>
       <use xlink:href="#mc979d085cf" x="194.522149" y="307.584" style="fill: #555555; stroke: #555555; stroke-width: 0.8"/>
      </g>
     </g>
     <g id="text_3">
      <!-- 100 -->
      <g style="fill: #555555" transform="translate(184.978399 322.182437) scale(0.1 -0.1)">
       <defs>
        <path id="DejaVuSans-31" d="M 794 531 
L 1825 531 
L 1825 4091 
L 703 3866 
L 703 4441 
L 1819 4666 
L 2450 4666 
L 2450 531 
L 3481 531 
L 3481 0 
L 794 0 
L 794 531 
z
" transform="scale(0.015625)"/>
       </defs>
       <use xlink:href="#DejaVuSans-31"/>
       <use xlink:href="#DejaVuSans-30" x="63.623047"/>
       <use xlink:href="#DejaVuSans-30" x="127.246094"/>
      </g>
     </g>
    </g>
    <g id="xtick_4">
     <g id="line2d_7">
      <path d="M 254.86686 307.584 
L 254.86686 41.472 
" clip-path="url(#p29a2847d04)" style="fill: none; stroke: #ffffff; stroke-width: 0.8; stroke-linecap: square"/>
     </g>
     <g id="line2d_8">
      <g>
       <use xlink:href="#mc979d085cf" x="254.86686" y="307.584" style="fill: #555555; stroke: #555555; stroke-width: 0.8"/>
      </g>
     </g>
     <g id="text_4">
      <!-- 150 -->
      <g style="fill: #555555" transform="translate(245.32311 322.182437) scale(0.1 -0.1)">
       <use xlink:href="#DejaVuSans-31"/>
       <use xlink:href="#DejaVuSans-35" x="63.623047"/>
       <use xlink:href="#DejaVuSans-30" x="127.246094"/>
      </g>
     </g>
    </g>
    <g id="xtick_5">
     <g id="line2d_9">
      <path d="M 315.211571 307.584 
L 315.211571 41.472 
" clip-path="url(#p29a2847d04)" style="fill: none; stroke: #ffffff; stroke-width: 0.8; stroke-linecap: square"/>
     </g>
     <g id="line2d_10">
      <g>
       <use xlink:href="#mc979d085cf" x="315.211571" y="307.584" style="fill: #555555; stroke: #555555; stroke-width: 0.8"/>
      </g>
     </g>
     <g id="text_5">
      <!-- 200 -->
      <g style="fill: #555555" transform="translate(305.667821 322.182437) scale(0.1 -0.1)">
       <defs>
        <path id="DejaVuSans-32" d="M 1228 531 
L 3431 531 
L 3431 0 
L 469 0 
L 469 531 
Q 828 903 1448 1529 
Q 2069 2156 2228 2338 
Q 2531 2678 2651 2914 
Q 2772 3150 2772 3378 
Q 2772 3750 2511 3984 
Q 2250 4219 1831 4219 
Q 1534 4219 1204 4116 
Q 875 4013 500 3803 
L 500 4441 
Q 881 4594 1212 4672 
Q 1544 4750 1819 4750 
Q 2544 4750 2975 4387 
Q 3406 4025 3406 3419 
Q 3406 3131 3298 2873 
Q 3191 2616 2906 2266 
Q 2828 2175 2409 1742 
Q 1991 1309 1228 531 
z
" transform="scale(0.015625)"/>
       </defs>
       <use xlink:href="#DejaVuSans-32"/>
       <use xlink:href="#DejaVuSans-30" x="63.623047"/>
       <use xlink:href="#DejaVuSans-30" x="127.246094"/>
      </g>
     </g>
    </g>
    <g id="xtick_6">
     <g id="line2d_11">
      <path d="M 375.556283 307.584 
L 375.556283 41.472 
" clip-path="url(#p29a2847d04)" style="fill: none; stroke: #ffffff; stroke-width: 0.8; stroke-linecap: square"/>
     </g>
     <g id="line2d_12">
      <g>
       <use xlink:href="#mc979d085cf" x="375.556283" y="307.584" style="fill: #555555; stroke: #555555; stroke-width: 0.8"/>
      </g>
     </g>
     <g id="text_6">
      <!-- 250 -->
      <g style="fill: #555555" transform="translate(366.012533 322.182437) scale(0.1 -0.1)">
       <use xlink:href="#DejaVuSans-32"/>
       <use xlink:href="#DejaVuSans-35" x="63.623047"/>
       <use xlink:href="#DejaVuSans-30" x="127.246094"/>
      </g>
     </g>
    </g>
    <g id="text_7">
     <!-- epochs -->
     <g style="fill: #555555" transform="translate(214.760625 337.38025) scale(0.12 -0.12)">
      <defs>
       <path id="DejaVuSans-65" d="M 3597 1894 
L 3597 1613 
L 953 1613 
Q 991 1019 1311 708 
Q 1631 397 2203 397 
Q 2534 397 2845 478 
Q 3156 559 3463 722 
L 3463 178 
Q 3153 47 2828 -22 
Q 2503 -91 2169 -91 
Q 1331 -91 842 396 
Q 353 884 353 1716 
Q 353 2575 817 3079 
Q 1281 3584 2069 3584 
Q 2775 3584 3186 3129 
Q 3597 2675 3597 1894 
z
M 3022 2063 
Q 3016 2534 2758 2815 
Q 2500 3097 2075 3097 
Q 1594 3097 1305 2825 
Q 1016 2553 972 2059 
L 3022 2063 
z
" transform="scale(0.015625)"/>
       <path id="DejaVuSans-70" d="M 1159 525 
L 1159 -1331 
L 581 -1331 
L 581 3500 
L 1159 3500 
L 1159 2969 
Q 1341 3281 1617 3432 
Q 1894 3584 2278 3584 
Q 2916 3584 3314 3078 
Q 3713 2572 3713 1747 
Q 3713 922 3314 415 
Q 2916 -91 2278 -91 
Q 1894 -91 1617 61 
Q 1341 213 1159 525 
z
M 3116 1747 
Q 3116 2381 2855 2742 
Q 2594 3103 2138 3103 
Q 1681 3103 1420 2742 
Q 1159 2381 1159 1747 
Q 1159 1113 1420 752 
Q 1681 391 2138 391 
Q 2594 391 2855 752 
Q 3116 1113 3116 1747 
z
" transform="scale(0.015625)"/>
       <path id="DejaVuSans-6f" d="M 1959 3097 
Q 1497 3097 1228 2736 
Q 959 2375 959 1747 
Q 959 1119 1226 758 
Q 1494 397 1959 397 
Q 2419 397 2687 759 
Q 2956 1122 2956 1747 
Q 2956 2369 2687 2733 
Q 2419 3097 1959 3097 
z
M 1959 3584 
Q 2709 3584 3137 3096 
Q 3566 2609 3566 1747 
Q 3566 888 3137 398 
Q 2709 -91 1959 -91 
Q 1206 -91 779 398 
Q 353 888 353 1747 
Q 353 2609 779 3096 
Q 1206 3584 1959 3584 
z
" transform="scale(0.015625)"/>
       <path id="DejaVuSans-63" d="M 3122 3366 
L 3122 2828 
Q 2878 2963 2633 3030 
Q 2388 3097 2138 3097 
Q 1578 3097 1268 2742 
Q 959 2388 959 1747 
Q 959 1106 1268 751 
Q 1578 397 2138 397 
Q 2388 397 2633 464 
Q 2878 531 3122 666 
L 3122 134 
Q 2881 22 2623 -34 
Q 2366 -91 2075 -91 
Q 1284 -91 818 406 
Q 353 903 353 1747 
Q 353 2603 823 3093 
Q 1294 3584 2113 3584 
Q 2378 3584 2631 3529 
Q 2884 3475 3122 3366 
z
" transform="scale(0.015625)"/>
       <path id="DejaVuSans-68" d="M 3513 2113 
L 3513 0 
L 2938 0 
L 2938 2094 
Q 2938 2591 2744 2837 
Q 2550 3084 2163 3084 
Q 1697 3084 1428 2787 
Q 1159 2491 1159 1978 
L 1159 0 
L 581 0 
L 581 4863 
L 1159 4863 
L 1159 2956 
Q 1366 3272 1645 3428 
Q 1925 3584 2291 3584 
Q 2894 3584 3203 3211 
Q 3513 2838 3513 2113 
z
" transform="scale(0.015625)"/>
       <path id="DejaVuSans-73" d="M 2834 3397 
L 2834 2853 
Q 2591 2978 2328 3040 
Q 2066 3103 1784 3103 
Q 1356 3103 1142 2972 
Q 928 2841 928 2578 
Q 928 2378 1081 2264 
Q 1234 2150 1697 2047 
L 1894 2003 
Q 2506 1872 2764 1633 
Q 3022 1394 3022 966 
Q 3022 478 2636 193 
Q 2250 -91 1575 -91 
Q 1294 -91 989 -36 
Q 684 19 347 128 
L 347 722 
Q 666 556 975 473 
Q 1284 391 1588 391 
Q 1994 391 2212 530 
Q 2431 669 2431 922 
Q 2431 1156 2273 1281 
Q 2116 1406 1581 1522 
L 1381 1569 
Q 847 1681 609 1914 
Q 372 2147 372 2553 
Q 372 3047 722 3315 
Q 1072 3584 1716 3584 
Q 2034 3584 2315 3537 
Q 2597 3491 2834 3397 
z
" transform="scale(0.015625)"/>
      </defs>
      <use xlink:href="#DejaVuSans-65"/>
      <use xlink:href="#DejaVuSans-70" x="61.523438"/>
      <use xlink:href="#DejaVuSans-6f" x="125"/>
      <use xlink:href="#DejaVuSans-63" x="186.181641"/>
      <use xlink:href="#DejaVuSans-68" x="241.162109"/>
      <use xlink:href="#DejaVuSans-73" x="304.541016"/>
     </g>
    </g>
   </g>
   <g id="matplotlib.axis_2">
    <g id="ytick_1">
     <g id="line2d_13">
      <path d="M 57.6 302.97107 
L 414.72 302.97107 
" clip-path="url(#p29a2847d04)" style="fill: none; stroke: #ffffff; stroke-width: 0.8; stroke-linecap: square"/>
     </g>
     <g id="line2d_14">
      <defs>
       <path id="md531d9c391" d="M 0 0 
L -3.5 0 
" style="stroke: #555555; stroke-width: 0.8"/>
      </defs>
      <g>
       <use xlink:href="#md531d9c391" x="57.6" y="302.97107" style="fill: #555555; stroke: #555555; stroke-width: 0.8"/>
      </g>
     </g>
     <g id="text_8">
      <!-- 0.0 -->
      <g style="fill: #555555" transform="translate(34.696875 306.770289) scale(0.1 -0.1)">
       <defs>
        <path id="DejaVuSans-2e" d="M 684 794 
L 1344 794 
L 1344 0 
L 684 0 
L 684 794 
z
" transform="scale(0.015625)"/>
       </defs>
       <use xlink:href="#DejaVuSans-30"/>
       <use xlink:href="#DejaVuSans-2e" x="63.623047"/>
       <use xlink:href="#DejaVuSans-30" x="95.410156"/>
      </g>
     </g>
    </g>
    <g id="ytick_2">
     <g id="line2d_15">
      <path d="M 57.6 262.086273 
L 414.72 262.086273 
" clip-path="url(#p29a2847d04)" style="fill: none; stroke: #ffffff; stroke-width: 0.8; stroke-linecap: square"/>
     </g>
     <g id="line2d_16">
      <g>
       <use xlink:href="#md531d9c391" x="57.6" y="262.086273" style="fill: #555555; stroke: #555555; stroke-width: 0.8"/>
      </g>
     </g>
     <g id="text_9">
      <!-- 0.5 -->
      <g style="fill: #555555" transform="translate(34.696875 265.885491) scale(0.1 -0.1)">
       <use xlink:href="#DejaVuSans-30"/>
       <use xlink:href="#DejaVuSans-2e" x="63.623047"/>
       <use xlink:href="#DejaVuSans-35" x="95.410156"/>
      </g>
     </g>
    </g>
    <g id="ytick_3">
     <g id="line2d_17">
      <path d="M 57.6 221.201475 
L 414.72 221.201475 
" clip-path="url(#p29a2847d04)" style="fill: none; stroke: #ffffff; stroke-width: 0.8; stroke-linecap: square"/>
     </g>
     <g id="line2d_18">
      <g>
       <use xlink:href="#md531d9c391" x="57.6" y="221.201475" style="fill: #555555; stroke: #555555; stroke-width: 0.8"/>
      </g>
     </g>
     <g id="text_10">
      <!-- 1.0 -->
      <g style="fill: #555555" transform="translate(34.696875 225.000694) scale(0.1 -0.1)">
       <use xlink:href="#DejaVuSans-31"/>
       <use xlink:href="#DejaVuSans-2e" x="63.623047"/>
       <use xlink:href="#DejaVuSans-30" x="95.410156"/>
      </g>
     </g>
    </g>
    <g id="ytick_4">
     <g id="line2d_19">
      <path d="M 57.6 180.316677 
L 414.72 180.316677 
" clip-path="url(#p29a2847d04)" style="fill: none; stroke: #ffffff; stroke-width: 0.8; stroke-linecap: square"/>
     </g>
     <g id="line2d_20">
      <g>
       <use xlink:href="#md531d9c391" x="57.6" y="180.316677" style="fill: #555555; stroke: #555555; stroke-width: 0.8"/>
      </g>
     </g>
     <g id="text_11">
      <!-- 1.5 -->
      <g style="fill: #555555" transform="translate(34.696875 184.115896) scale(0.1 -0.1)">
       <use xlink:href="#DejaVuSans-31"/>
       <use xlink:href="#DejaVuSans-2e" x="63.623047"/>
       <use xlink:href="#DejaVuSans-35" x="95.410156"/>
      </g>
     </g>
    </g>
    <g id="ytick_5">
     <g id="line2d_21">
      <path d="M 57.6 139.43188 
L 414.72 139.43188 
" clip-path="url(#p29a2847d04)" style="fill: none; stroke: #ffffff; stroke-width: 0.8; stroke-linecap: square"/>
     </g>
     <g id="line2d_22">
      <g>
       <use xlink:href="#md531d9c391" x="57.6" y="139.43188" style="fill: #555555; stroke: #555555; stroke-width: 0.8"/>
      </g>
     </g>
     <g id="text_12">
      <!-- 2.0 -->
      <g style="fill: #555555" transform="translate(34.696875 143.231099) scale(0.1 -0.1)">
       <use xlink:href="#DejaVuSans-32"/>
       <use xlink:href="#DejaVuSans-2e" x="63.623047"/>
       <use xlink:href="#DejaVuSans-30" x="95.410156"/>
      </g>
     </g>
    </g>
    <g id="ytick_6">
     <g id="line2d_23">
      <path d="M 57.6 98.547082 
L 414.72 98.547082 
" clip-path="url(#p29a2847d04)" style="fill: none; stroke: #ffffff; stroke-width: 0.8; stroke-linecap: square"/>
     </g>
     <g id="line2d_24">
      <g>
       <use xlink:href="#md531d9c391" x="57.6" y="98.547082" style="fill: #555555; stroke: #555555; stroke-width: 0.8"/>
      </g>
     </g>
     <g id="text_13">
      <!-- 2.5 -->
      <g style="fill: #555555" transform="translate(34.696875 102.346301) scale(0.1 -0.1)">
       <use xlink:href="#DejaVuSans-32"/>
       <use xlink:href="#DejaVuSans-2e" x="63.623047"/>
       <use xlink:href="#DejaVuSans-35" x="95.410156"/>
      </g>
     </g>
    </g>
    <g id="ytick_7">
     <g id="line2d_25">
      <path d="M 57.6 57.662284 
L 414.72 57.662284 
" clip-path="url(#p29a2847d04)" style="fill: none; stroke: #ffffff; stroke-width: 0.8; stroke-linecap: square"/>
     </g>
     <g id="line2d_26">
      <g>
       <use xlink:href="#md531d9c391" x="57.6" y="57.662284" style="fill: #555555; stroke: #555555; stroke-width: 0.8"/>
      </g>
     </g>
     <g id="text_14">
      <!-- 3.0 -->
      <g style="fill: #555555" transform="translate(34.696875 61.461503) scale(0.1 -0.1)">
       <defs>
        <path id="DejaVuSans-33" d="M 2597 2516 
Q 3050 2419 3304 2112 
Q 3559 1806 3559 1356 
Q 3559 666 3084 287 
Q 2609 -91 1734 -91 
Q 1441 -91 1130 -33 
Q 819 25 488 141 
L 488 750 
Q 750 597 1062 519 
Q 1375 441 1716 441 
Q 2309 441 2620 675 
Q 2931 909 2931 1356 
Q 2931 1769 2642 2001 
Q 2353 2234 1838 2234 
L 1294 2234 
L 1294 2753 
L 1863 2753 
Q 2328 2753 2575 2939 
Q 2822 3125 2822 3475 
Q 2822 3834 2567 4026 
Q 2313 4219 1838 4219 
Q 1578 4219 1281 4162 
Q 984 4106 628 3988 
L 628 4550 
Q 988 4650 1302 4700 
Q 1616 4750 1894 4750 
Q 2613 4750 3031 4423 
Q 3450 4097 3450 3541 
Q 3450 3153 3228 2886 
Q 3006 2619 2597 2516 
z
" transform="scale(0.015625)"/>
       </defs>
       <use xlink:href="#DejaVuSans-33"/>
       <use xlink:href="#DejaVuSans-2e" x="63.623047"/>
       <use xlink:href="#DejaVuSans-30" x="95.410156"/>
      </g>
     </g>
    </g>
    <g id="text_15">
     <!-- values -->
     <g style="fill: #555555" transform="translate(28.20125 194.043) rotate(-90) scale(0.12 -0.12)">
      <defs>
       <path id="DejaVuSans-76" d="M 191 3500 
L 800 3500 
L 1894 563 
L 2988 3500 
L 3597 3500 
L 2284 0 
L 1503 0 
L 191 3500 
z
" transform="scale(0.015625)"/>
       <path id="DejaVuSans-61" d="M 2194 1759 
Q 1497 1759 1228 1600 
Q 959 1441 959 1056 
Q 959 750 1161 570 
Q 1363 391 1709 391 
Q 2188 391 2477 730 
Q 2766 1069 2766 1631 
L 2766 1759 
L 2194 1759 
z
M 3341 1997 
L 3341 0 
L 2766 0 
L 2766 531 
Q 2569 213 2275 61 
Q 1981 -91 1556 -91 
Q 1019 -91 701 211 
Q 384 513 384 1019 
Q 384 1609 779 1909 
Q 1175 2209 1959 2209 
L 2766 2209 
L 2766 2266 
Q 2766 2663 2505 2880 
Q 2244 3097 1772 3097 
Q 1472 3097 1187 3025 
Q 903 2953 641 2809 
L 641 3341 
Q 956 3463 1253 3523 
Q 1550 3584 1831 3584 
Q 2591 3584 2966 3190 
Q 3341 2797 3341 1997 
z
" transform="scale(0.015625)"/>
       <path id="DejaVuSans-6c" d="M 603 4863 
L 1178 4863 
L 1178 0 
L 603 0 
L 603 4863 
z
" transform="scale(0.015625)"/>
       <path id="DejaVuSans-75" d="M 544 1381 
L 544 3500 
L 1119 3500 
L 1119 1403 
Q 1119 906 1312 657 
Q 1506 409 1894 409 
Q 2359 409 2629 706 
Q 2900 1003 2900 1516 
L 2900 3500 
L 3475 3500 
L 3475 0 
L 2900 0 
L 2900 538 
Q 2691 219 2414 64 
Q 2138 -91 1772 -91 
Q 1169 -91 856 284 
Q 544 659 544 1381 
z
M 1991 3584 
L 1991 3584 
z
" transform="scale(0.015625)"/>
      </defs>
      <use xlink:href="#DejaVuSans-76"/>
      <use xlink:href="#DejaVuSans-61" x="59.179688"/>
      <use xlink:href="#DejaVuSans-6c" x="120.458984"/>
      <use xlink:href="#DejaVuSans-75" x="148.242188"/>
      <use xlink:href="#DejaVuSans-65" x="211.621094"/>
      <use xlink:href="#DejaVuSans-73" x="273.144531"/>
     </g>
    </g>
   </g>
   <g id="PolyCollection_1">
    <defs>
     <path id="m24f2dbd602" d="M 73.832727 -99.693024 
L 73.832727 -99.15064 
L 75.039621 -98.411461 
L 76.246516 -97.154725 
L 77.45341 -95.574059 
L 78.660304 -93.878293 
L 79.867198 -92.100522 
L 81.074093 -90.203429 
L 82.280987 -88.295736 
L 83.487881 -86.442369 
L 84.694775 -84.56968 
L 85.901669 -82.861716 
L 87.108564 -81.354653 
L 88.315458 -79.793603 
L 89.522352 -78.440167 
L 90.729246 -77.332929 
L 91.936141 -76.087617 
L 93.143035 -75.125105 
L 94.349929 -74.361548 
L 95.556823 -73.393225 
L 96.763717 -72.670599 
L 97.970612 -72.106946 
L 99.177506 -71.279613 
L 100.3844 -70.702482 
L 101.591294 -70.212811 
L 102.798189 -69.504708 
L 104.005083 -69.004009 
L 105.211977 -68.626882 
L 106.418871 -67.977598 
L 107.625765 -67.557084 
L 108.83266 -67.16949 
L 110.039554 -66.627167 
L 111.246448 -66.252032 
L 112.453342 -65.909813 
L 113.660237 -65.459918 
L 114.867131 -65.115606 
L 116.074025 -64.774219 
L 117.280919 -64.369801 
L 118.487813 -64.006096 
L 119.694708 -63.669433 
L 120.901602 -63.268796 
L 122.108496 -62.941378 
L 123.31539 -62.618381 
L 124.522285 -62.246317 
L 125.729179 -61.976211 
L 126.936073 -61.703989 
L 128.142967 -61.434604 
L 129.349861 -61.250616 
L 130.556756 -61.049976 
L 131.76365 -60.860961 
L 132.970544 -60.764678 
L 134.177438 -60.683159 
L 135.384333 -60.57798 
L 136.591227 -60.552255 
L 137.798121 -60.555724 
L 139.005015 -60.512215 
L 140.211909 -60.548231 
L 141.418804 -60.641843 
L 142.625698 -60.595586 
L 143.832592 -60.620426 
L 145.039486 -60.658218 
L 146.246381 -60.455152 
L 147.453275 -60.39093 
L 148.660169 -60.292127 
L 149.867063 -59.940441 
L 151.073957 -59.888567 
L 152.280852 -59.881261 
L 153.487746 -59.438671 
L 154.69464 -59.42473 
L 155.901534 -59.716477 
L 157.108429 -59.184586 
L 158.315323 -59.493584 
L 159.522217 -60.029741 
L 160.729111 -59.592126 
L 161.936005 -60.004107 
L 163.1429 -60.66704 
L 164.349794 -59.89005 
L 165.556688 -60.356314 
L 166.763582 -61.113254 
L 167.970477 -60.383794 
L 169.177371 -61.12281 
L 170.384265 -62.728086 
L 171.591159 -62.082568 
L 172.798053 -63.103348 
L 174.004948 -64.58847 
L 175.211842 -64.033973 
L 176.418736 -65.172696 
L 177.62563 -67.125182 
L 178.832525 -65.552552 
L 180.039419 -66.269349 
L 181.246313 -68.393561 
L 182.453207 -67.559516 
L 183.660101 -68.661485 
L 184.866996 -68.976775 
L 186.07389 -66.314474 
L 187.280784 -66.218427 
L 188.487678 -66.201171 
L 189.694572 -64.365582 
L 190.901467 -64.017125 
L 192.108361 -64.058631 
L 193.315255 -62.559266 
L 194.522149 -62.23519 
L 195.729044 -61.88739 
L 196.935938 -61.116317 
L 198.142832 -60.936466 
L 199.349726 -60.602684 
L 200.55662 -60.246227 
L 201.763515 -60.008221 
L 202.970409 -59.764219 
L 204.177303 -59.40663 
L 205.384197 -59.223592 
L 206.591092 -58.921473 
L 207.797986 -58.760838 
L 209.00488 -58.4929 
L 210.211774 -58.43118 
L 211.418668 -58.06797 
L 212.625563 -57.900949 
L 213.832457 -57.67525 
L 215.039351 -57.338784 
L 216.246245 -57.430188 
L 217.45314 -57.107897 
L 218.660034 -57.011688 
L 219.866928 -56.902262 
L 221.073822 -56.790851 
L 222.280716 -56.547994 
L 223.487611 -56.801527 
L 224.694505 -56.257242 
L 225.901399 -56.340328 
L 227.108293 -56.262624 
L 228.315188 -56.10791 
L 229.522082 -55.922433 
L 230.728976 -55.962298 
L 231.93587 -55.69504 
L 233.142764 -55.716415 
L 234.349659 -55.49391 
L 235.556553 -55.43018 
L 236.763447 -55.481253 
L 237.970341 -55.381902 
L 239.177236 -55.186653 
L 240.38413 -55.036803 
L 241.591024 -55.130502 
L 242.797918 -54.979123 
L 244.004812 -55.400723 
L 245.211707 -54.959161 
L 246.418601 -54.784612 
L 247.625495 -54.704495 
L 248.832389 -54.590731 
L 250.039284 -54.496943 
L 251.246178 -54.590592 
L 252.453072 -54.64016 
L 253.659966 -54.197115 
L 254.86686 -54.368794 
L 256.073755 -54.244158 
L 257.280649 -54.062392 
L 258.487543 -54.117647 
L 259.694437 -54.09581 
L 260.901332 -54.011324 
L 262.108226 -54.044494 
L 263.31512 -53.927695 
L 264.522014 -54.092637 
L 265.728908 -53.90677 
L 266.935803 -54.007079 
L 268.142697 -53.606873 
L 269.349591 -53.671677 
L 270.556485 -53.473624 
L 271.76338 -53.527133 
L 272.970274 -53.562016 
L 274.177168 -53.761123 
L 275.384062 -53.554677 
L 276.590956 -53.682852 
L 277.797851 -53.148616 
L 279.004745 -53.216065 
L 280.211639 -53.329909 
L 281.418533 -53.284073 
L 282.625428 -53.107197 
L 283.832322 -53.192884 
L 285.039216 -53.177353 
L 286.24611 -52.976357 
L 287.453004 -53.074615 
L 288.659899 -53.152052 
L 289.866793 -52.8667 
L 291.073687 -53.05436 
L 292.280581 -52.961748 
L 293.487475 -52.730711 
L 294.69437 -52.863995 
L 295.901264 -52.814831 
L 297.108158 -52.666175 
L 298.315052 -52.771011 
L 299.521947 -52.704488 
L 300.728841 -52.554735 
L 301.935735 -52.689961 
L 303.142629 -52.594875 
L 304.349523 -52.423215 
L 305.556418 -52.468665 
L 306.763312 -52.515304 
L 307.970206 -52.289744 
L 309.1771 -52.453451 
L 310.383995 -52.370629 
L 311.590889 -52.198283 
L 312.797783 -52.315533 
L 314.004677 -52.044578 
L 315.211571 -52.088665 
L 316.418466 -52.202688 
L 317.62536 -52.210578 
L 318.832254 -51.977727 
L 320.039148 -52.114373 
L 321.246043 -52.023413 
L 322.452937 -51.92849 
L 323.659831 -51.983928 
L 324.866725 -51.9268 
L 326.073619 -51.741661 
L 327.280514 -51.898155 
L 328.487408 -51.963887 
L 329.694302 -51.626138 
L 330.901196 -51.906202 
L 332.108091 -51.73656 
L 333.314985 -51.545821 
L 334.521879 -51.702774 
L 335.728773 -51.617456 
L 336.935667 -51.570248 
L 338.142562 -51.605057 
L 339.349456 -51.583897 
L 340.55635 -51.347258 
L 341.763244 -51.671253 
L 342.970139 -51.462117 
L 344.177033 -51.238909 
L 345.383927 -51.537166 
L 346.590821 -51.338555 
L 347.797715 -51.179311 
L 349.00461 -51.311309 
L 350.211504 -51.294724 
L 351.418398 -51.085954 
L 352.625292 -51.236185 
L 353.832187 -51.215375 
L 355.039081 -51.014935 
L 356.245975 -51.14375 
L 357.452869 -51.114242 
L 358.659763 -50.865602 
L 359.866658 -51.142407 
L 361.073552 -51.029809 
L 362.280446 -50.848574 
L 363.48734 -51.050955 
L 364.694235 -50.898034 
L 365.901129 -50.768616 
L 367.108023 -50.937772 
L 368.314917 -50.883334 
L 369.521811 -50.824203 
L 370.728706 -50.835091 
L 371.9356 -50.828323 
L 373.142494 -50.729501 
L 374.349388 -50.836546 
L 375.556283 -50.753128 
L 376.763177 -50.563415 
L 377.970071 -50.715904 
L 379.176965 -50.655812 
L 380.383859 -50.469865 
L 381.590754 -50.624228 
L 382.797648 -50.60937 
L 384.004542 -50.396312 
L 385.211436 -50.555032 
L 386.418331 -50.51776 
L 387.625225 -50.316016 
L 388.832119 -50.453149 
L 390.039013 -50.448186 
L 391.245907 -50.22696 
L 392.452802 -50.405972 
L 393.659696 -50.388141 
L 394.86659 -50.193481 
L 396.073484 -50.433888 
L 397.280379 -50.332823 
L 398.487273 -50.112 
L 398.487273 -54.323661 
L 398.487273 -54.323661 
L 397.280379 -55.00699 
L 396.073484 -55.13793 
L 394.86659 -54.722154 
L 393.659696 -55.065556 
L 392.452802 -55.163111 
L 391.245907 -54.844875 
L 390.039013 -55.319833 
L 388.832119 -55.420134 
L 387.625225 -54.931233 
L 386.418331 -55.344858 
L 385.211436 -55.287002 
L 384.004542 -55.20476 
L 382.797648 -55.593119 
L 381.590754 -55.460468 
L 380.383859 -55.198898 
L 379.176965 -55.773339 
L 377.970071 -55.878887 
L 376.763177 -55.568071 
L 375.556283 -55.640333 
L 374.349388 -56.268357 
L 373.142494 -55.736034 
L 371.9356 -56.112851 
L 370.728706 -56.312068 
L 369.521811 -55.894359 
L 368.314917 -56.260252 
L 367.108023 -56.46898 
L 365.901129 -55.896778 
L 364.694235 -56.078905 
L 363.48734 -56.35202 
L 362.280446 -56.154729 
L 361.073552 -56.535212 
L 359.866658 -56.729553 
L 358.659763 -56.38524 
L 357.452869 -56.689652 
L 356.245975 -56.847297 
L 355.039081 -56.422567 
L 353.832187 -56.660757 
L 352.625292 -57.124281 
L 351.418398 -56.67349 
L 350.211504 -56.866188 
L 349.00461 -57.251565 
L 347.797715 -56.946195 
L 346.590821 -56.990135 
L 345.383927 -57.383928 
L 344.177033 -56.980247 
L 342.970139 -57.532084 
L 341.763244 -57.584682 
L 340.55635 -57.337267 
L 339.349456 -57.518768 
L 338.142562 -57.767101 
L 336.935667 -57.58759 
L 335.728773 -57.826121 
L 334.521879 -57.710862 
L 333.314985 -57.61252 
L 332.108091 -57.91637 
L 330.901196 -57.905885 
L 329.694302 -57.717444 
L 328.487408 -58.105245 
L 327.280514 -58.208789 
L 326.073619 -57.900008 
L 324.866725 -58.249444 
L 323.659831 -58.644235 
L 322.452937 -58.05309 
L 321.246043 -58.43323 
L 320.039148 -58.794446 
L 318.832254 -58.221797 
L 317.62536 -58.672122 
L 316.418466 -58.750258 
L 315.211571 -58.420631 
L 314.004677 -58.737695 
L 312.797783 -59.171831 
L 311.590889 -58.543124 
L 310.383995 -59.082427 
L 309.1771 -59.239388 
L 307.970206 -58.749295 
L 306.763312 -59.133886 
L 305.556418 -59.32225 
L 304.349523 -59.272233 
L 303.142629 -59.564289 
L 301.935735 -59.808154 
L 300.728841 -59.248553 
L 299.521947 -59.472198 
L 298.315052 -59.658802 
L 297.108158 -59.419776 
L 295.901264 -59.886324 
L 294.69437 -59.904021 
L 293.487475 -59.802292 
L 292.280581 -60.205064 
L 291.073687 -60.03304 
L 289.866793 -59.807484 
L 288.659899 -60.251914 
L 287.453004 -60.395073 
L 286.24611 -60.113588 
L 285.039216 -60.358272 
L 283.832322 -60.575882 
L 282.625428 -60.618632 
L 281.418533 -60.665148 
L 280.211639 -60.846991 
L 279.004745 -60.524175 
L 277.797851 -60.858059 
L 276.590956 -61.003483 
L 275.384062 -60.555887 
L 274.177168 -61.12424 
L 272.970274 -61.291232 
L 271.76338 -61.241508 
L 270.556485 -61.348885 
L 269.349591 -61.832153 
L 268.142697 -61.368836 
L 266.935803 -61.601665 
L 265.728908 -61.82971 
L 264.522014 -61.507639 
L 263.31512 -61.846807 
L 262.108226 -62.176563 
L 260.901332 -61.763004 
L 259.694437 -62.308172 
L 258.487543 -62.465786 
L 257.280649 -62.074254 
L 256.073755 -62.499639 
L 254.86686 -62.558846 
L 253.659966 -62.393585 
L 252.453072 -62.775388 
L 251.246178 -62.889918 
L 250.039284 -62.757997 
L 248.832389 -62.930556 
L 247.625495 -63.116711 
L 246.418601 -63.084343 
L 245.211707 -63.46808 
L 244.004812 -63.470955 
L 242.797918 -63.104695 
L 241.591024 -63.513465 
L 240.38413 -63.764793 
L 239.177236 -63.568041 
L 237.970341 -63.692867 
L 236.763447 -63.464241 
L 235.556553 -63.310048 
L 234.349659 -64.102377 
L 233.142764 -64.324748 
L 231.93587 -64.171932 
L 230.728976 -64.480052 
L 229.522082 -64.760091 
L 228.315188 -64.402815 
L 227.108293 -64.939269 
L 225.901399 -65.084387 
L 224.694505 -64.919144 
L 223.487611 -65.152748 
L 222.280716 -65.532892 
L 221.073822 -65.411006 
L 219.866928 -65.665497 
L 218.660034 -65.837063 
L 217.45314 -65.678726 
L 216.246245 -66.086553 
L 215.039351 -66.264659 
L 213.832457 -66.610346 
L 212.625563 -66.652539 
L 211.418668 -67.073038 
L 210.211774 -67.2096 
L 209.00488 -67.127774 
L 207.797986 -67.918594 
L 206.591092 -67.647621 
L 205.384197 -68.343053 
L 204.177303 -68.245586 
L 202.970409 -68.627347 
L 201.763515 -68.965291 
L 200.55662 -69.38681 
L 199.349726 -70.03603 
L 198.142832 -70.917163 
L 196.935938 -70.934498 
L 195.729044 -72.176662 
L 194.522149 -72.426149 
L 193.315255 -73.08872 
L 192.108361 -75.037587 
L 190.901467 -75.406984 
L 189.694572 -75.917116 
L 188.487678 -78.525654 
L 187.280784 -78.598357 
L 186.07389 -79.302587 
L 184.866996 -82.349265 
L 183.660101 -83.465674 
L 182.453207 -79.195614 
L 181.246313 -78.324845 
L 180.039419 -76.437994 
L 178.832525 -75.655176 
L 177.62563 -78.701564 
L 176.418736 -76.509249 
L 175.211842 -75.71045 
L 174.004948 -77.231609 
L 172.798053 -74.555967 
L 171.591159 -70.171538 
L 170.384265 -70.269051 
L 169.177371 -67.89746 
L 167.970477 -66.432535 
L 166.763582 -67.193402 
L 165.556688 -64.33868 
L 164.349794 -62.897684 
L 163.1429 -63.656659 
L 161.936005 -62.267649 
L 160.729111 -61.570219 
L 159.522217 -62.610208 
L 158.315323 -61.469501 
L 157.108429 -60.868079 
L 155.901534 -61.911701 
L 154.69464 -61.25133 
L 153.487746 -60.897095 
L 152.280852 -61.644002 
L 151.073957 -61.113556 
L 149.867063 -60.93133 
L 148.660169 -61.355667 
L 147.453275 -61.068946 
L 146.246381 -60.97479 
L 145.039486 -61.241716 
L 143.832592 -61.0956 
L 142.625698 -61.068193 
L 141.418804 -61.162061 
L 140.211909 -61.191212 
L 139.005015 -61.153568 
L 137.798121 -61.265731 
L 136.591227 -61.231559 
L 135.384333 -61.262779 
L 134.177438 -61.415204 
L 132.970544 -61.491012 
L 131.76365 -61.585114 
L 130.556756 -61.799104 
L 129.349861 -61.951859 
L 128.142967 -62.118029 
L 126.936073 -62.343904 
L 125.729179 -62.518904 
L 124.522285 -62.77882 
L 123.31539 -63.078156 
L 122.108496 -63.291871 
L 120.901602 -63.588618 
L 119.694708 -63.937575 
L 118.487813 -64.244416 
L 117.280919 -64.589716 
L 116.074025 -65.042125 
L 114.867131 -65.422784 
L 113.660237 -65.810414 
L 112.453342 -66.308044 
L 111.246448 -66.709806 
L 110.039554 -67.140057 
L 108.83266 -67.661788 
L 107.625765 -68.098222 
L 106.418871 -68.551575 
L 105.211977 -69.176799 
L 104.005083 -69.615105 
L 102.798189 -70.118293 
L 101.591294 -70.790203 
L 100.3844 -71.285504 
L 99.177506 -71.86677 
L 97.970612 -72.651074 
L 96.763717 -73.233285 
L 95.556823 -73.928139 
L 94.349929 -74.855933 
L 93.143035 -75.597522 
L 91.936141 -76.486789 
L 90.729246 -77.634024 
L 89.522352 -78.680699 
L 88.315458 -79.931217 
L 87.108564 -81.445709 
L 85.901669 -83.007524 
L 84.694775 -84.776235 
L 83.487881 -86.713999 
L 82.280987 -88.610392 
L 81.074093 -90.533393 
L 79.867198 -92.474563 
L 78.660304 -94.280535 
L 77.45341 -96.011583 
L 76.246516 -97.633844 
L 75.039621 -98.921389 
L 73.832727 -99.693024 
z
" style="stroke: #e24a33; stroke-opacity: 0.2"/>
    </defs>
    <g clip-path="url(#p29a2847d04)">
     <use xlink:href="#m24f2dbd602" x="0" y="345.6" style="fill: #e24a33; fill-opacity: 0.2; stroke: #e24a33; stroke-opacity: 0.2"/>
    </g>
   </g>
   <g id="PolyCollection_2">
    <defs>
     <path id="m7f17fe27c7" d="M 73.832727 -101.773952 
L 73.832727 -100.571126 
L 75.039621 -103.430518 
L 76.246516 -107.251545 
L 77.45341 -111.909298 
L 78.660304 -117.444449 
L 79.867198 -123.99401 
L 81.074093 -131.6016 
L 82.280987 -140.071109 
L 83.487881 -149.561746 
L 84.694775 -159.928537 
L 85.901669 -170.832046 
L 87.108564 -182.2985 
L 88.315458 -193.231574 
L 89.522352 -203.703492 
L 90.729246 -213.654074 
L 91.936141 -223.232502 
L 93.143035 -232.112649 
L 94.349929 -240.394333 
L 95.556823 -247.767482 
L 96.763717 -254.267234 
L 97.970612 -259.983138 
L 99.177506 -264.749684 
L 100.3844 -268.763818 
L 101.591294 -271.927188 
L 102.798189 -274.059246 
L 104.005083 -275.75096 
L 105.211977 -276.882312 
L 106.418871 -277.445094 
L 107.625765 -277.174848 
L 108.83266 -277.483862 
L 110.039554 -277.246919 
L 111.246448 -276.681093 
L 112.453342 -275.790563 
L 113.660237 -274.759732 
L 114.867131 -273.475037 
L 116.074025 -271.686604 
L 117.280919 -269.688257 
L 118.487813 -266.317331 
L 119.694708 -264.478237 
L 120.901602 -262.546946 
L 122.108496 -259.763484 
L 123.31539 -257.106566 
L 124.522285 -254.876624 
L 125.729179 -252.086441 
L 126.936073 -249.873226 
L 128.142967 -247.55972 
L 129.349861 -245.52104 
L 130.556756 -242.927097 
L 131.76365 -241.342379 
L 132.970544 -238.891251 
L 134.177438 -236.042732 
L 135.384333 -233.46679 
L 136.591227 -231.20952 
L 137.798121 -228.832085 
L 139.005015 -227.463961 
L 140.211909 -225.536342 
L 141.418804 -224.412609 
L 142.625698 -223.02088 
L 143.832592 -221.793692 
L 145.039486 -220.87703 
L 146.246381 -220.849892 
L 147.453275 -221.307609 
L 148.660169 -222.241119 
L 149.867063 -224.179162 
L 151.073957 -226.181554 
L 152.280852 -228.621387 
L 153.487746 -231.117705 
L 154.69464 -233.781824 
L 155.901534 -235.411971 
L 157.108429 -236.491625 
L 158.315323 -236.244229 
L 159.522217 -234.055048 
L 160.729111 -231.060135 
L 161.936005 -227.789335 
L 163.1429 -223.093976 
L 164.349794 -216.92687 
L 165.556688 -209.564886 
L 166.763582 -199.905249 
L 167.970477 -192.90562 
L 169.177371 -190.091519 
L 170.384265 -185.794232 
L 171.591159 -178.387128 
L 172.798053 -168.772042 
L 174.004948 -164.228018 
L 175.211842 -161.73423 
L 176.418736 -162.908035 
L 177.62563 -161.736043 
L 178.832525 -160.968113 
L 180.039419 -160.663422 
L 181.246313 -158.57358 
L 182.453207 -149.1694 
L 183.660101 -142.047601 
L 184.866996 -146.304462 
L 186.07389 -147.850113 
L 187.280784 -154.287897 
L 188.487678 -154.360779 
L 189.694572 -156.403981 
L 190.901467 -155.853342 
L 192.108361 -157.623018 
L 193.315255 -159.332481 
L 194.522149 -159.148177 
L 195.729044 -159.569129 
L 196.935938 -160.810138 
L 198.142832 -161.655345 
L 199.349726 -162.985962 
L 200.55662 -163.512999 
L 201.763515 -164.877489 
L 202.970409 -167.054011 
L 204.177303 -168.746502 
L 205.384197 -167.52231 
L 206.591092 -168.458703 
L 207.797986 -169.538441 
L 209.00488 -173.65307 
L 210.211774 -174.269016 
L 211.418668 -175.900082 
L 212.625563 -176.536321 
L 213.832457 -175.366003 
L 215.039351 -177.661749 
L 216.246245 -179.423924 
L 217.45314 -177.65376 
L 218.660034 -179.604656 
L 219.866928 -179.309919 
L 221.073822 -180.396015 
L 222.280716 -184.588353 
L 223.487611 -181.490605 
L 224.694505 -182.038461 
L 225.901399 -181.946571 
L 227.108293 -182.385479 
L 228.315188 -183.437292 
L 229.522082 -184.59558 
L 230.728976 -184.540825 
L 231.93587 -184.4495 
L 233.142764 -185.140454 
L 234.349659 -186.996718 
L 235.556553 -185.684417 
L 236.763447 -186.063608 
L 237.970341 -185.339912 
L 239.177236 -187.283362 
L 240.38413 -187.6161 
L 241.591024 -188.479984 
L 242.797918 -192.555128 
L 244.004812 -193.204477 
L 245.211707 -189.733081 
L 246.418601 -189.412113 
L 247.625495 -190.609541 
L 248.832389 -190.431944 
L 250.039284 -190.682853 
L 251.246178 -191.440618 
L 252.453072 -192.496915 
L 253.659966 -194.079444 
L 254.86686 -192.834402 
L 256.073755 -194.265377 
L 257.280649 -193.66087 
L 258.487543 -194.155189 
L 259.694437 -194.652942 
L 260.901332 -195.000698 
L 262.108226 -193.698595 
L 263.31512 -195.426111 
L 264.522014 -194.777798 
L 265.728908 -196.182523 
L 266.935803 -200.622504 
L 268.142697 -195.305376 
L 269.349591 -195.544826 
L 270.556485 -197.844879 
L 271.76338 -198.036275 
L 272.970274 -198.799447 
L 274.177168 -197.566255 
L 275.384062 -198.9293 
L 276.590956 -200.020855 
L 277.797851 -200.024045 
L 279.004745 -200.040035 
L 280.211639 -200.786631 
L 281.418533 -200.585034 
L 282.625428 -198.909583 
L 283.832322 -199.755895 
L 285.039216 -201.915056 
L 286.24611 -202.111142 
L 287.453004 -202.369149 
L 288.659899 -200.511786 
L 289.866793 -203.414799 
L 291.073687 -203.259585 
L 292.280581 -203.821224 
L 293.487475 -205.085972 
L 294.69437 -202.420968 
L 295.901264 -201.54255 
L 297.108158 -205.161051 
L 298.315052 -202.746835 
L 299.521947 -205.698945 
L 300.728841 -205.580065 
L 301.935735 -204.034077 
L 303.142629 -206.706858 
L 304.349523 -207.033267 
L 305.556418 -210.009181 
L 306.763312 -208.004245 
L 307.970206 -208.543593 
L 309.1771 -208.036633 
L 310.383995 -205.715158 
L 311.590889 -208.972382 
L 312.797783 -208.606833 
L 314.004677 -207.06289 
L 315.211571 -209.715004 
L 316.418466 -209.92288 
L 317.62536 -210.036823 
L 318.832254 -210.569287 
L 320.039148 -210.988145 
L 321.246043 -210.228478 
L 322.452937 -210.958177 
L 323.659831 -211.353744 
L 324.866725 -212.59384 
L 326.073619 -211.596867 
L 327.280514 -213.774481 
L 328.487408 -211.857478 
L 329.694302 -209.730008 
L 330.901196 -211.399531 
L 332.108091 -213.063398 
L 333.314985 -212.951115 
L 334.521879 -214.152881 
L 335.728773 -213.905646 
L 336.935667 -213.804687 
L 338.142562 -212.905287 
L 339.349456 -215.146378 
L 340.55635 -214.883992 
L 341.763244 -214.92845 
L 342.970139 -213.98043 
L 344.177033 -217.563841 
L 345.383927 -216.082977 
L 346.590821 -216.281044 
L 347.797715 -217.748749 
L 349.00461 -216.544934 
L 350.211504 -216.613291 
L 351.418398 -216.197647 
L 352.625292 -219.173028 
L 353.832187 -217.704348 
L 355.039081 -217.114106 
L 356.245975 -219.02186 
L 357.452869 -217.988061 
L 358.659763 -218.306405 
L 359.866658 -218.884537 
L 361.073552 -219.228149 
L 362.280446 -219.758884 
L 363.48734 -218.755547 
L 364.694235 -220.350034 
L 365.901129 -220.04252 
L 367.108023 -220.178999 
L 368.314917 -220.976213 
L 369.521811 -221.008733 
L 370.728706 -220.754478 
L 371.9356 -223.5075 
L 373.142494 -221.575994 
L 374.349388 -222.70435 
L 375.556283 -224.756843 
L 376.763177 -222.491617 
L 377.970071 -222.584103 
L 379.176965 -224.094695 
L 380.383859 -223.814145 
L 381.590754 -221.812358 
L 382.797648 -224.290711 
L 384.004542 -227.054534 
L 385.211436 -225.008895 
L 386.418331 -224.853908 
L 387.625225 -227.359668 
L 388.832119 -225.760358 
L 390.039013 -225.078848 
L 391.245907 -229.114636 
L 392.452802 -227.447253 
L 393.659696 -226.49711 
L 394.86659 -227.156035 
L 396.073484 -227.367697 
L 397.280379 -228.091155 
L 398.487273 -228.234762 
L 398.487273 -266.869487 
L 398.487273 -266.869487 
L 397.280379 -264.865994 
L 396.073484 -265.279673 
L 394.86659 -265.55071 
L 393.659696 -264.640774 
L 392.452802 -264.674603 
L 391.245907 -265.552527 
L 390.039013 -264.654854 
L 388.832119 -265.604736 
L 387.625225 -264.307313 
L 386.418331 -264.057718 
L 385.211436 -264.554 
L 384.004542 -263.91562 
L 382.797648 -263.659833 
L 381.590754 -263.72671 
L 380.383859 -263.291919 
L 379.176965 -263.469396 
L 377.970071 -262.680973 
L 376.763177 -262.282394 
L 375.556283 -261.824123 
L 374.349388 -261.121962 
L 373.142494 -262.206096 
L 371.9356 -260.83049 
L 370.728706 -261.406294 
L 369.521811 -260.750321 
L 368.314917 -260.323961 
L 367.108023 -260.941348 
L 365.901129 -260.648936 
L 364.694235 -259.803716 
L 363.48734 -259.681747 
L 362.280446 -259.65285 
L 361.073552 -259.513884 
L 359.866658 -259.713813 
L 358.659763 -259.227754 
L 357.452869 -258.148938 
L 356.245975 -257.412615 
L 355.039081 -259.049991 
L 353.832187 -257.507754 
L 352.625292 -257.809507 
L 351.418398 -257.494743 
L 350.211504 -256.829747 
L 349.00461 -257.039705 
L 347.797715 -256.656 
L 346.590821 -256.959041 
L 345.383927 -256.826784 
L 344.177033 -256.496809 
L 342.970139 -255.588756 
L 341.763244 -254.961477 
L 340.55635 -255.477847 
L 339.349456 -255.196611 
L 338.142562 -254.862479 
L 336.935667 -254.122422 
L 335.728773 -254.21023 
L 334.521879 -254.406887 
L 333.314985 -253.688291 
L 332.108091 -253.346689 
L 330.901196 -253.150355 
L 329.694302 -253.147563 
L 328.487408 -252.679619 
L 327.280514 -253.355197 
L 326.073619 -253.281274 
L 324.866725 -252.063366 
L 323.659831 -251.990824 
L 322.452937 -251.342773 
L 321.246043 -251.460054 
L 320.039148 -250.755422 
L 318.832254 -250.148821 
L 317.62536 -250.076427 
L 316.418466 -250.067556 
L 315.211571 -249.292443 
L 314.004677 -249.431246 
L 312.797783 -248.850167 
L 311.590889 -249.53614 
L 310.383995 -248.9342 
L 309.1771 -248.771008 
L 307.970206 -248.867693 
L 306.763312 -248.137029 
L 305.556418 -248.04723 
L 304.349523 -247.712116 
L 303.142629 -247.056872 
L 301.935735 -247.169757 
L 300.728841 -246.819862 
L 299.521947 -246.18742 
L 298.315052 -245.565221 
L 297.108158 -245.720458 
L 295.901264 -245.383574 
L 294.69437 -245.081583 
L 293.487475 -244.764779 
L 292.280581 -245.237581 
L 291.073687 -244.840807 
L 289.866793 -244.705883 
L 288.659899 -242.887423 
L 287.453004 -244.216354 
L 286.24611 -244.019486 
L 285.039216 -242.203675 
L 283.832322 -241.990308 
L 282.625428 -241.542667 
L 281.418533 -243.081613 
L 280.211639 -242.62957 
L 279.004745 -243.04451 
L 277.797851 -242.468266 
L 276.590956 -241.715115 
L 275.384062 -241.531168 
L 274.177168 -241.873776 
L 272.970274 -239.396965 
L 271.76338 -240.392692 
L 270.556485 -240.309661 
L 269.349591 -240.884927 
L 268.142697 -240.105591 
L 266.935803 -240.381299 
L 265.728908 -239.376998 
L 264.522014 -237.565162 
L 263.31512 -238.42735 
L 262.108226 -238.098946 
L 260.901332 -238.103247 
L 259.694437 -237.293545 
L 258.487543 -237.718482 
L 257.280649 -237.249766 
L 256.073755 -236.950886 
L 254.86686 -236.370153 
L 253.659966 -235.163744 
L 252.453072 -235.206244 
L 251.246178 -235.861125 
L 250.039284 -234.036395 
L 248.832389 -233.707687 
L 247.625495 -234.33487 
L 246.418601 -233.35826 
L 245.211707 -233.795713 
L 244.004812 -232.142116 
L 242.797918 -233.208917 
L 241.591024 -231.671917 
L 240.38413 -232.198074 
L 239.177236 -230.390985 
L 237.970341 -230.149396 
L 236.763447 -229.025819 
L 235.556553 -228.879697 
L 234.349659 -226.609325 
L 233.142764 -227.877801 
L 231.93587 -227.374699 
L 230.728976 -226.687011 
L 229.522082 -226.764466 
L 228.315188 -225.349534 
L 227.108293 -225.093409 
L 225.901399 -225.446235 
L 224.694505 -223.823891 
L 223.487611 -223.82499 
L 222.280716 -223.840064 
L 221.073822 -224.110797 
L 219.866928 -222.356141 
L 218.660034 -221.739609 
L 217.45314 -222.129348 
L 216.246245 -220.966861 
L 215.039351 -220.170338 
L 213.832457 -219.350242 
L 212.625563 -218.082323 
L 211.418668 -215.817399 
L 210.211774 -214.351219 
L 209.00488 -212.487608 
L 207.797986 -210.478497 
L 206.591092 -208.725886 
L 205.384197 -206.759386 
L 204.177303 -205.035132 
L 202.970409 -203.369376 
L 201.763515 -202.381872 
L 200.55662 -201.192337 
L 199.349726 -201.010125 
L 198.142832 -201.318476 
L 196.935938 -202.040395 
L 195.729044 -203.57815 
L 194.522149 -204.703997 
L 193.315255 -205.315289 
L 192.108361 -205.542726 
L 190.901467 -206.628765 
L 189.694572 -204.333076 
L 188.487678 -202.550392 
L 187.280784 -199.563556 
L 186.07389 -194.315332 
L 184.866996 -188.370002 
L 183.660101 -181.471424 
L 182.453207 -185.247749 
L 181.246313 -189.095359 
L 180.039419 -193.092176 
L 178.832525 -192.047238 
L 177.62563 -192.427239 
L 176.418736 -193.927805 
L 175.211842 -196.850088 
L 174.004948 -201.722103 
L 172.798053 -205.634477 
L 171.591159 -210.253861 
L 170.384265 -215.348761 
L 169.177371 -221.986875 
L 167.970477 -225.994512 
L 166.763582 -230.001181 
L 165.556688 -232.834111 
L 164.349794 -234.65245 
L 163.1429 -236.884079 
L 161.936005 -238.727552 
L 160.729111 -239.954307 
L 159.522217 -241.606385 
L 158.315323 -242.680117 
L 157.108429 -242.306344 
L 155.901534 -241.444967 
L 154.69464 -239.973506 
L 153.487746 -238.345996 
L 152.280852 -235.52998 
L 151.073957 -233.588801 
L 149.867063 -231.397831 
L 148.660169 -229.515886 
L 147.453275 -226.962606 
L 146.246381 -226.623742 
L 145.039486 -225.757743 
L 143.832592 -225.580542 
L 142.625698 -226.112771 
L 141.418804 -227.693539 
L 140.211909 -229.836006 
L 139.005015 -232.893139 
L 137.798121 -236.158124 
L 136.591227 -239.951531 
L 135.384333 -243.375296 
L 134.177438 -247.086778 
L 132.970544 -251.124698 
L 131.76365 -254.895165 
L 130.556756 -258.248036 
L 129.349861 -261.46439 
L 128.142967 -264.423241 
L 126.936073 -266.440844 
L 125.729179 -269.424401 
L 124.522285 -271.430344 
L 123.31539 -273.193075 
L 122.108496 -274.741134 
L 120.901602 -275.944354 
L 119.694708 -277.594288 
L 118.487813 -278.76173 
L 117.280919 -279.782536 
L 116.074025 -281.181713 
L 114.867131 -282.534814 
L 113.660237 -283.568255 
L 112.453342 -285.077703 
L 111.246448 -286.794124 
L 110.039554 -288.61176 
L 108.83266 -289.444292 
L 107.625765 -290.15107 
L 106.418871 -290.90631 
L 105.211977 -291.531784 
L 104.005083 -292.032 
L 102.798189 -289.454051 
L 101.591294 -286.454666 
L 100.3844 -283.786886 
L 99.177506 -279.516335 
L 97.970612 -273.094084 
L 96.763717 -266.76879 
L 95.556823 -258.744374 
L 94.349929 -249.909217 
L 93.143035 -240.008637 
L 91.936141 -229.449083 
L 90.729246 -217.97125 
L 89.522352 -206.3354 
L 88.315458 -194.509337 
L 87.108564 -183.118034 
L 85.901669 -172.246953 
L 84.694775 -161.597557 
L 83.487881 -151.357938 
L 82.280987 -141.749719 
L 81.074093 -133.043503 
L 79.867198 -125.500363 
L 78.660304 -118.860102 
L 77.45341 -113.348915 
L 76.246516 -108.595236 
L 75.039621 -104.683315 
L 73.832727 -101.773952 
z
" style="stroke: #348abd; stroke-opacity: 0.2"/>
    </defs>
    <g clip-path="url(#p29a2847d04)">
     <use xlink:href="#m7f17fe27c7" x="0" y="345.6" style="fill: #348abd; fill-opacity: 0.2; stroke: #348abd; stroke-opacity: 0.2"/>
    </g>
   </g>
   <g id="PolyCollection_3">
    <defs>
     <path id="m1bcb4cd59e" d="M 73.832727 -97.239921 
L 73.832727 -89.039283 
L 75.039621 -88.436437 
L 76.246516 -88.887289 
L 77.45341 -93.619155 
L 78.660304 -93.772665 
L 79.867198 -93.665208 
L 81.074093 -95.054152 
L 82.280987 -94.96857 
L 83.487881 -95.054152 
L 84.694775 -95.637082 
L 85.901669 -95.625976 
L 87.108564 -95.63346 
L 88.315458 -95.879588 
L 89.522352 -95.99456 
L 90.729246 -95.949946 
L 91.936141 -96.200679 
L 93.143035 -96.200679 
L 94.349929 -96.190189 
L 95.556823 -96.439899 
L 96.763717 -96.441818 
L 97.970612 -96.441818 
L 99.177506 -96.502262 
L 100.3844 -96.502262 
L 101.591294 -96.502262 
L 102.798189 -96.526728 
L 104.005083 -96.526728 
L 105.211977 -96.526728 
L 106.418871 -96.595168 
L 107.625765 -96.566224 
L 108.83266 -96.595168 
L 110.039554 -96.59101 
L 111.246448 -96.70992 
L 112.453342 -96.711579 
L 113.660237 -96.886037 
L 114.867131 -96.886037 
L 116.074025 -96.741162 
L 117.280919 -97.147963 
L 118.487813 -97.413319 
L 119.694708 -97.415486 
L 120.901602 -97.878734 
L 122.108496 -97.877455 
L 123.31539 -97.878734 
L 124.522285 -98.418737 
L 125.729179 -98.078477 
L 126.936073 -98.273382 
L 128.142967 -98.550659 
L 129.349861 -98.537707 
L 130.556756 -98.537707 
L 131.76365 -98.60007 
L 132.970544 -98.613023 
L 134.177438 -98.591595 
L 135.384333 -98.455515 
L 136.591227 -98.455515 
L 137.798121 -98.453968 
L 139.005015 -98.299547 
L 140.211909 -98.301366 
L 141.418804 -98.219494 
L 142.625698 -97.872338 
L 143.832592 -97.872977 
L 145.039486 -97.975869 
L 146.246381 -97.744733 
L 147.453275 -97.744653 
L 148.660169 -97.738336 
L 149.867063 -97.457221 
L 151.073957 -97.457221 
L 152.280852 -97.508775 
L 153.487746 -97.226317 
L 154.69464 -97.257019 
L 155.901534 -97.226317 
L 157.108429 -97.125416 
L 158.315323 -97.099991 
L 159.522217 -97.099991 
L 160.729111 -96.752675 
L 161.936005 -96.745959 
L 163.1429 -96.745959 
L 164.349794 -96.235858 
L 165.556688 -96.240016 
L 166.763582 -96.193004 
L 167.970477 -95.761785 
L 169.177371 -95.78972 
L 170.384265 -95.78972 
L 171.591159 -95.354136 
L 172.798053 -95.354136 
L 174.004948 -95.354136 
L 175.211842 -94.840837 
L 176.418736 -94.828365 
L 177.62563 -94.828365 
L 178.832525 -94.610573 
L 180.039419 -94.610573 
L 181.246313 -94.610573 
L 182.453207 -95.17792 
L 183.660101 -95.17792 
L 184.866996 -95.106921 
L 186.07389 -95.878628 
L 187.280784 -95.754221 
L 188.487678 -95.878628 
L 189.694572 -95.872552 
L 190.901467 -95.912528 
L 192.108361 -96.086506 
L 193.315255 -96.533604 
L 194.522149 -96.533604 
L 195.729044 -96.533604 
L 196.935938 -98.648522 
L 198.142832 -98.506845 
L 199.349726 -98.648522 
L 200.55662 -100.258137 
L 201.763515 -100.125095 
L 202.970409 -100.223278 
L 204.177303 -100.929903 
L 205.384197 -101.272422 
L 206.591092 -101.018523 
L 207.797986 -101.154251 
L 209.00488 -101.293369 
L 210.211774 -101.293369 
L 211.418668 -101.360578 
L 212.625563 -101.237722 
L 213.832457 -101.363728 
L 215.039351 -101.134423 
L 216.246245 -101.170881 
L 217.45314 -101.16997 
L 218.660034 -101.296567 
L 219.866928 -101.196786 
L 221.073822 -101.214216 
L 222.280716 -101.392191 
L 223.487611 -101.392191 
L 224.694505 -101.455514 
L 225.901399 -101.672986 
L 227.108293 -101.373962 
L 228.315188 -101.714242 
L 229.522082 -101.949624 
L 230.728976 -101.909967 
L 231.93587 -101.909967 
L 233.142764 -102.083306 
L 234.349659 -102.103885 
L 235.556553 -102.072432 
L 236.763447 -102.217627 
L 237.970341 -102.217627 
L 239.177236 -102.188204 
L 240.38413 -102.259202 
L 241.591024 -102.274873 
L 242.797918 -102.2979 
L 244.004812 -102.069993 
L 245.211707 -102.380091 
L 246.418601 -102.329881 
L 247.625495 -102.185645 
L 248.832389 -102.50162 
L 250.039284 -102.50162 
L 251.246178 -102.5352 
L 252.453072 -102.5352 
L 253.659966 -102.5352 
L 254.86686 -102.6724 
L 256.073755 -102.812797 
L 257.280649 -102.6724 
L 258.487543 -102.775379 
L 259.694437 -102.802196 
L 260.901332 -102.772749 
L 262.108226 -102.865886 
L 263.31512 -102.865886 
L 264.522014 -102.865886 
L 265.728908 -102.949357 
L 266.935803 -103.195932 
L 268.142697 -102.949357 
L 269.349591 -103.329134 
L 270.556485 -103.045621 
L 271.76338 -103.329134 
L 272.970274 -103.102547 
L 274.177168 -103.458978 
L 275.384062 -103.459134 
L 276.590956 -103.133553 
L 277.797851 -103.582585 
L 279.004745 -103.134848 
L 280.211639 -103.229193 
L 281.418533 -103.604013 
L 282.625428 -103.229193 
L 283.832322 -103.690382 
L 285.039216 -103.699317 
L 286.24611 -103.74473 
L 287.453004 -103.77991 
L 288.659899 -103.441868 
L 289.866793 -103.77991 
L 291.073687 -103.566115 
L 292.280581 -103.566115 
L 293.487475 -103.895841 
L 294.69437 -103.689563 
L 295.901264 -104.003298 
L 297.108158 -103.689563 
L 298.315052 -104.179187 
L 299.521947 -103.837476 
L 300.728841 -103.837476 
L 301.935735 -103.940455 
L 303.142629 -104.214534 
L 304.349523 -103.937737 
L 305.556418 -103.938153 
L 306.763312 -104.316235 
L 307.970206 -104.059106 
L 309.1771 -104.432007 
L 310.383995 -104.188646 
L 311.590889 -104.436164 
L 312.797783 -104.338941 
L 314.004677 -104.338941 
L 315.211571 -104.207499 
L 316.418466 -104.66419 
L 317.62536 -104.66419 
L 318.832254 -104.703847 
L 320.039148 -104.802029 
L 321.246043 -104.620056 
L 322.452937 -104.615547 
L 323.659831 -104.73359 
L 324.866725 -104.73359 
L 326.073619 -104.888363 
L 327.280514 -104.921 
L 328.487408 -104.862474 
L 329.694302 -104.635087 
L 330.901196 -105.00639 
L 332.108091 -104.985282 
L 333.314985 -105.00639 
L 334.521879 -105.081545 
L 335.728773 -105.104892 
L 336.935667 -105.17621 
L 338.142562 -105.258402 
L 339.349456 -105.156062 
L 340.55635 -105.219065 
L 341.763244 -105.34539 
L 342.970139 -105.343248 
L 344.177033 -105.34539 
L 345.383927 -105.437177 
L 346.590821 -105.333238 
L 347.797715 -105.437177 
L 349.00461 -105.517449 
L 350.211504 -105.517449 
L 351.418398 -105.405195 
L 352.625292 -105.590319 
L 353.832187 -105.590367 
L 355.039081 -105.590367 
L 356.245975 -105.650172 
L 357.452869 -105.643352 
L 358.659763 -105.489626 
L 359.866658 -105.524397 
L 361.073552 -105.709017 
L 362.280446 -105.709017 
L 363.48734 -105.765624 
L 364.694235 -105.765624 
L 365.901129 -105.765624 
L 367.108023 -105.790889 
L 368.314917 -105.820631 
L 369.521811 -105.790889 
L 370.728706 -105.643775 
L 371.9356 -105.865669 
L 373.142494 -105.643775 
L 374.349388 -105.883635 
L 375.556283 -105.715733 
L 376.763177 -105.883635 
L 377.970071 -105.910978 
L 379.176965 -105.773139 
L 380.383859 -105.910978 
L 381.590754 -105.95911 
L 382.797648 -105.95911 
L 384.004542 -105.956 
L 385.211436 -106.003244 
L 386.418331 -106.003244 
L 387.625225 -105.89131 
L 388.832119 -106.07808 
L 390.039013 -105.998123 
L 391.245907 -106.076301 
L 392.452802 -105.956872 
L 393.659696 -106.001965 
L 394.86659 -106.001965 
L 396.073484 -106.133408 
L 397.280379 -106.021154 
L 398.487273 -106.021154 
L 398.487273 -110.257547 
L 398.487273 -110.257547 
L 397.280379 -110.246789 
L 396.073484 -110.257547 
L 394.86659 -110.179992 
L 393.659696 -110.179992 
L 392.452802 -110.179992 
L 391.245907 -110.120827 
L 390.039013 -110.091244 
L 388.832119 -110.120827 
L 387.625225 -110.053666 
L 386.418331 -110.053666 
L 385.211436 -110.053666 
L 384.004542 -109.875531 
L 382.797648 -109.99642 
L 381.590754 -109.934057 
L 380.383859 -109.937575 
L 379.176965 -109.937575 
L 377.970071 -109.937575 
L 376.763177 -109.882247 
L 375.556283 -109.866656 
L 374.349388 -109.784384 
L 373.142494 -109.832356 
L 371.9356 -109.832356 
L 370.728706 -109.832356 
L 369.521811 -109.778628 
L 368.314917 -109.778628 
L 367.108023 -109.778628 
L 365.901129 -109.594832 
L 364.694235 -109.692918 
L 363.48734 -109.692918 
L 362.280446 -109.615843 
L 361.073552 -109.615843 
L 359.866658 -109.563074 
L 358.659763 -109.544205 
L 357.452869 -109.544205 
L 356.245975 -109.544205 
L 355.039081 -109.436749 
L 353.832187 -109.474167 
L 352.625292 -109.436749 
L 351.418398 -109.367349 
L 350.211504 -109.381421 
L 349.00461 -109.395493 
L 347.797715 -109.279665 
L 346.590821 -109.289955 
L 345.383927 -109.300509 
L 344.177033 -109.240384 
L 342.970139 -109.240384 
L 341.763244 -109.240384 
L 340.55635 -109.142201 
L 339.349456 -108.85437 
L 338.142562 -109.096468 
L 336.935667 -108.950634 
L 335.728773 -109.026749 
L 334.521879 -109.026749 
L 333.314985 -108.738918 
L 332.108091 -108.935923 
L 330.901196 -108.935923 
L 329.694302 -108.712054 
L 328.487408 -108.834542 
L 327.280514 -108.649371 
L 326.073619 -108.698362 
L 324.866725 -108.738119 
L 323.659831 -108.738119 
L 322.452937 -108.666001 
L 321.246043 -108.666001 
L 320.039148 -108.666001 
L 318.832254 -108.387445 
L 317.62536 -108.578372 
L 316.418466 -108.578372 
L 315.211571 -108.439574 
L 314.004677 -108.457803 
L 312.797783 -108.457803 
L 311.590889 -108.430939 
L 310.383995 -108.370495 
L 309.1771 -108.370495 
L 307.970206 -108.281587 
L 306.763312 -108.37785 
L 305.556418 -108.281587 
L 304.349523 -108.2931 
L 303.142629 -108.201314 
L 301.935735 -108.201314 
L 300.728841 -108.223381 
L 299.521947 -108.119442 
L 298.315052 -108.119442 
L 297.108158 -108.027976 
L 295.901264 -108.027976 
L 294.69437 -107.943225 
L 293.487475 -107.899715 
L 292.280581 -107.961455 
L 291.073687 -107.961455 
L 289.866793 -107.875425 
L 288.659899 -107.929473 
L 287.453004 -107.822728 
L 286.24611 -107.740784 
L 285.039216 -107.740784 
L 283.832322 -107.740784 
L 282.625428 -107.621814 
L 281.418533 -107.621174 
L 280.211639 -107.62183 
L 279.004745 -107.737138 
L 277.797851 -107.549536 
L 276.590956 -107.523952 
L 275.384062 -107.497567 
L 274.177168 -107.661471 
L 272.970274 -107.497567 
L 271.76338 -107.553142 
L 270.556485 -107.440001 
L 269.349591 -107.552735 
L 268.142697 -107.520753 
L 266.935803 -107.520753 
L 265.728908 -107.375878 
L 264.522014 -107.156807 
L 263.31512 -107.28729 
L 262.108226 -107.28729 
L 260.901332 -107.132693 
L 259.694437 -107.203068 
L 258.487543 -107.00181 
L 257.280649 -107.161924 
L 256.073755 -107.40786 
L 254.86686 -107.161924 
L 253.659966 -107.127384 
L 252.453072 -107.127384 
L 251.246178 -107.127384 
L 250.039284 -107.073656 
L 248.832389 -107.210839 
L 247.625495 -107.073656 
L 246.418601 -107.022486 
L 245.211707 -107.022486 
L 244.004812 -107.022486 
L 242.797918 -106.921105 
L 241.591024 -106.921105 
L 240.38413 -106.921105 
L 239.177236 -106.809035 
L 237.970341 -106.805653 
L 236.763447 -106.805653 
L 235.556553 -106.532214 
L 234.349659 -106.650224 
L 233.142764 -106.650224 
L 231.93587 -106.473048 
L 230.728976 -106.393223 
L 229.522082 -106.393223 
L 228.315188 -106.251419 
L 227.108293 -105.892589 
L 225.901399 -106.210163 
L 224.694505 -106.002924 
L 223.487611 -106.002924 
L 222.280716 -106.002924 
L 221.073822 -105.531521 
L 219.866928 -105.696225 
L 218.660034 -105.698283 
L 217.45314 -105.264798 
L 216.246245 -105.303903 
L 215.039351 -105.407114 
L 213.832457 -105.131116 
L 212.625563 -105.114806 
L 211.418668 -105.132771 
L 210.211774 -104.892696 
L 209.00488 -104.892696 
L 207.797986 -104.913324 
L 206.591092 -104.727833 
L 205.384197 -104.727833 
L 204.177303 -104.703527 
L 202.970409 -104.384355 
L 201.763515 -104.286172 
L 200.55662 -104.384355 
L 199.349726 -103.337609 
L 198.142832 -103.331213 
L 196.935938 -103.199314 
L 195.729044 -102.308453 
L 194.522149 -102.205086 
L 193.315255 -102.308453 
L 192.108361 -100.473691 
L 190.901467 -100.513667 
L 189.694572 -100.473691 
L 188.487678 -98.971213 
L 187.280784 -98.784442 
L 186.07389 -98.784442 
L 184.866996 -97.905918 
L 183.660101 -97.905918 
L 182.453207 -97.905918 
L 181.246313 -97.385264 
L 180.039419 -97.315864 
L 178.832525 -97.385264 
L 177.62563 -97.129094 
L 176.418736 -97.154679 
L 175.211842 -97.154679 
L 174.004948 -97.322628 
L 172.798053 -97.320342 
L 171.591159 -97.320342 
L 170.384265 -97.57939 
L 169.177371 -97.473212 
L 167.970477 -97.473212 
L 166.763582 -97.593469 
L 165.556688 -97.593469 
L 164.349794 -97.581628 
L 163.1429 -97.772236 
L 161.936005 -97.774795 
L 160.729111 -97.772236 
L 159.522217 -98.008258 
L 158.315323 -97.944295 
L 157.108429 -98.008258 
L 155.901534 -98.264428 
L 154.69464 -98.264428 
L 153.487746 -98.265707 
L 152.280852 -98.525075 
L 151.073957 -98.649162 
L 149.867063 -98.659396 
L 148.660169 -98.827697 
L 147.453275 -98.827617 
L 146.246381 -98.827617 
L 145.039486 -99.433021 
L 143.832592 -99.433021 
L 142.625698 -99.433309 
L 141.418804 -100.061772 
L 140.211909 -100.062276 
L 139.005015 -100.13453 
L 137.798121 -100.617766 
L 136.591227 -100.67965 
L 135.384333 -100.618442 
L 134.177438 -100.984751 
L 132.970544 -100.984751 
L 131.76365 -100.989228 
L 130.556756 -101.230582 
L 129.349861 -101.230582 
L 128.142967 -101.166244 
L 126.936073 -101.303443 
L 125.729179 -101.192948 
L 124.522285 -101.303443 
L 123.31539 -100.976723 
L 122.108496 -101.125148 
L 120.901602 -100.976723 
L 119.694708 -100.530297 
L 118.487813 -100.530297 
L 117.280919 -100.635036 
L 116.074025 -99.989495 
L 114.867131 -100.036827 
L 113.660237 -100.036827 
L 112.453342 -99.35115 
L 111.246448 -99.477635 
L 110.039554 -99.477635 
L 108.83266 -98.92452 
L 107.625765 -98.92452 
L 106.418871 -98.92452 
L 105.211977 -98.162407 
L 104.005083 -98.162887 
L 102.798189 -98.162407 
L 101.591294 -97.624483 
L 100.3844 -97.639195 
L 99.177506 -97.588025 
L 97.970612 -97.234792 
L 96.763717 -97.234792 
L 95.556823 -97.247265 
L 94.349929 -96.991895 
L 93.143035 -97.010764 
L 91.936141 -96.991895 
L 90.729246 -96.964711 
L 89.522352 -96.964711 
L 88.315458 -96.964711 
L 87.108564 -97.007334 
L 85.901669 -97.057792 
L 84.694775 -97.057136 
L 83.487881 -97.27301 
L 82.280987 -97.283883 
L 81.074093 -97.343688 
L 79.867198 -97.793344 
L 78.660304 -97.854108 
L 77.45341 -97.854108 
L 76.246516 -97.06801 
L 75.039621 -97.232553 
L 73.832727 -97.239921 
z
" style="stroke: #988ed5; stroke-opacity: 0.2"/>
    </defs>
    <g clip-path="url(#p29a2847d04)">
     <use xlink:href="#m1bcb4cd59e" x="0" y="345.6" style="fill: #988ed5; fill-opacity: 0.2; stroke: #988ed5; stroke-opacity: 0.2"/>
    </g>
   </g>
   <g id="line2d_27">
    <path d="M 73.832727 246.178168 
L 75.039621 246.93722 
L 76.246516 248.22105 
L 78.660304 251.533348 
L 81.074093 255.233446 
L 84.694775 260.930167 
L 87.108564 264.191491 
L 88.315458 265.727281 
L 89.522352 267.013685 
L 93.143035 270.173667 
L 94.349929 270.938271 
L 95.556823 271.878588 
L 99.177506 273.967381 
L 104.005083 276.245965 
L 105.211977 276.693533 
L 106.418871 277.300443 
L 114.867131 280.33629 
L 124.522285 283.110573 
L 129.349861 284.040349 
L 132.970544 284.498493 
L 139.005015 284.80164 
L 141.418804 284.704022 
L 142.625698 284.790455 
L 145.039486 284.709322 
L 146.246381 284.915345 
L 148.660169 284.854129 
L 149.867063 285.209217 
L 151.073957 285.201562 
L 152.280852 285.025488 
L 153.487746 285.546134 
L 154.69464 285.400049 
L 155.901534 285.003968 
L 157.108429 285.643703 
L 158.315323 285.258621 
L 159.522217 284.504036 
L 160.729111 285.184209 
L 161.936005 284.603104 
L 163.1429 283.616372 
L 164.349794 284.421864 
L 165.556688 283.551591 
L 166.763582 281.936523 
L 167.970477 282.498894 
L 169.177371 281.32453 
L 170.384265 279.449929 
L 171.591159 279.847571 
L 172.798053 277.860017 
L 174.004948 275.579653 
L 175.211842 276.446683 
L 176.418736 275.180641 
L 177.62563 273.298282 
L 178.832525 275.052307 
L 180.039419 274.387785 
L 181.246313 272.317837 
L 182.453207 272.535774 
L 183.660101 270.209141 
L 184.866996 270.095741 
L 186.07389 273.088067 
L 187.280784 273.807319 
L 188.487678 273.685488 
L 189.694572 276.058017 
L 190.901467 276.655763 
L 192.108361 276.802852 
L 193.315255 278.521171 
L 194.522149 279.065534 
L 195.729044 279.360456 
L 196.935938 280.370793 
L 201.763515 281.952737 
L 210.211774 283.812235 
L 212.625563 284.13464 
L 213.832457 284.413662 
L 215.039351 284.426595 
L 217.45314 284.918151 
L 218.660034 284.904322 
L 219.866928 285.046348 
L 221.073822 285.345729 
L 222.280716 285.289644 
L 224.694505 285.75419 
L 225.901399 285.628413 
L 227.108293 285.808374 
L 228.315188 286.104901 
L 229.522082 285.995894 
L 231.93587 286.409305 
L 233.142764 286.303536 
L 235.556553 286.710405 
L 236.763447 286.577633 
L 239.177236 286.983847 
L 240.38413 286.84278 
L 242.797918 287.232412 
L 244.004812 287.120884 
L 245.211707 287.234838 
L 246.418601 287.523893 
L 247.625495 287.358072 
L 250.039284 287.725628 
L 251.246178 287.564652 
L 253.659966 287.988119 
L 254.86686 287.837349 
L 256.073755 287.943426 
L 257.280649 288.193931 
L 258.487543 288.014556 
L 260.901332 288.420637 
L 262.108226 288.257748 
L 263.31512 288.37645 
L 264.522014 288.627461 
L 265.728908 288.420657 
L 268.142697 288.800475 
L 269.349591 288.603299 
L 271.76338 289.014863 
L 272.970274 288.832271 
L 275.384062 289.180411 
L 276.590956 289.014983 
L 277.797851 289.13427 
L 279.004745 289.404461 
L 280.211639 289.1626 
L 281.418533 289.294602 
L 282.625428 289.549524 
L 283.832322 289.35761 
L 285.039216 289.485782 
L 286.24611 289.735343 
L 287.453004 289.504955 
L 288.659899 289.624917 
L 289.866793 289.917747 
L 291.073687 289.653265 
L 292.280581 289.81696 
L 293.487475 290.125039 
L 294.69437 289.864173 
L 295.901264 289.919385 
L 297.108158 290.230426 
L 298.315052 289.971535 
L 299.521947 290.087165 
L 300.728841 290.359552 
L 301.935735 290.146538 
L 303.142629 290.274167 
L 304.349523 290.550576 
L 305.556418 290.274939 
L 306.763312 290.395153 
L 307.970206 290.714783 
L 309.1771 290.420159 
L 310.383995 290.532239 
L 311.590889 290.824627 
L 312.797783 290.585449 
L 314.004677 290.701795 
L 315.211571 290.948634 
L 316.418466 290.706152 
L 317.62536 290.808369 
L 318.832254 291.096143 
L 320.039148 290.843183 
L 321.246043 290.965766 
L 322.452937 291.240003 
L 323.659831 290.975471 
L 324.866725 291.111049 
L 326.073619 291.359014 
L 327.280514 291.098888 
L 328.487408 291.211529 
L 329.694302 291.494873 
L 330.901196 291.24024 
L 332.108091 291.339175 
L 333.314985 291.594282 
L 334.521879 291.389722 
L 335.728773 291.486761 
L 336.935667 291.716576 
L 338.142562 291.465906 
L 339.349456 291.603224 
L 340.55635 291.874061 
L 341.763244 291.573059 
L 342.970139 291.70203 
L 344.177033 292.022054 
L 345.383927 291.733422 
L 346.590821 291.846255 
L 347.797715 292.115177 
L 349.00461 291.8403 
L 350.211504 291.929987 
L 351.418398 292.237336 
L 352.625292 291.972149 
L 353.832187 292.06467 
L 355.039081 292.341447 
L 356.245975 292.099166 
L 357.452869 292.202045 
L 358.659763 292.463543 
L 359.866658 292.195499 
L 361.073552 292.335293 
L 362.280446 292.59036 
L 363.48734 292.28983 
L 365.901129 292.698839 
L 367.108023 292.418082 
L 368.314917 292.514245 
L 369.521811 292.791117 
L 370.728706 292.503958 
L 371.9356 292.610195 
L 373.142494 292.924328 
L 374.349388 292.627298 
L 375.556283 292.731176 
L 376.763177 293.00412 
L 377.970071 292.715303 
L 379.176965 292.845666 
L 380.383859 293.131007 
L 381.590754 292.840222 
L 382.797648 292.964608 
L 384.004542 293.236911 
L 385.211436 292.962571 
L 386.418331 293.067265 
L 387.625225 293.33027 
L 388.832119 293.086521 
L 390.039013 293.157293 
L 391.245907 293.463884 
L 392.452802 293.176087 
L 393.659696 293.259598 
L 394.86659 293.543242 
L 396.073484 293.257863 
L 397.280379 293.346257 
L 398.487273 293.645654 
L 398.487273 293.645654 
" clip-path="url(#p29a2847d04)" style="fill: none; stroke: #e24a33; stroke-width: 2; stroke-linecap: round"/>
   </g>
   <g id="line2d_28">
    <path d="M 73.832727 244.420704 
L 75.039621 241.513803 
L 76.246516 237.634173 
L 77.45341 232.930009 
L 78.660304 227.366613 
L 79.867198 220.81329 
L 81.074093 213.243147 
L 82.280987 204.612344 
L 84.694775 184.758476 
L 91.936141 119.933576 
L 94.349929 101.486492 
L 95.556823 93.514062 
L 96.763717 86.328151 
L 97.970612 80.31681 
L 99.177506 75.112414 
L 100.3844 70.743193 
L 101.591294 67.366599 
L 102.798189 64.883373 
L 104.005083 63.146061 
L 105.211977 62.088081 
L 106.418871 61.635917 
L 107.625765 61.730692 
L 108.83266 62.074996 
L 110.039554 62.781189 
L 111.246448 63.8287 
L 113.660237 66.438794 
L 117.280919 70.95377 
L 120.901602 75.713121 
L 123.31539 79.279647 
L 124.522285 81.225252 
L 126.936073 85.763857 
L 129.349861 91.139968 
L 131.76365 96.929148 
L 137.798121 112.549268 
L 140.211909 117.554745 
L 141.418804 119.448796 
L 142.625698 120.990655 
L 143.832592 121.807937 
L 145.039486 122.177441 
L 146.246381 121.865714 
L 147.453275 121.014296 
L 148.660169 119.817856 
L 149.867063 118.073611 
L 154.69464 109.062623 
L 155.901534 107.387556 
L 157.108429 106.320857 
L 158.315323 106.571241 
L 159.522217 108.041322 
L 161.936005 112.341557 
L 163.1429 115.439932 
L 164.349794 119.063715 
L 165.556688 123.386797 
L 167.970477 134.670088 
L 169.177371 139.457081 
L 170.384265 145.028503 
L 172.798053 157.267131 
L 174.004948 161.584455 
L 175.211842 165.12504 
L 176.418736 167.106692 
L 177.62563 167.907343 
L 178.832525 167.650698 
L 180.039419 167.806569 
L 181.246313 170.455265 
L 182.453207 176.241476 
L 183.660101 181.152425 
L 184.866996 175.61003 
L 186.07389 170.618824 
L 187.280784 166.311134 
L 188.487678 163.574804 
L 189.694572 161.585703 
L 190.901467 160.543898 
L 193.315255 159.959815 
L 194.522149 160.28931 
L 198.142832 160.679922 
L 200.55662 160.01199 
L 202.970409 157.95525 
L 206.591092 153.538791 
L 211.418668 147.426095 
L 212.625563 146.085378 
L 213.832457 144.953774 
L 215.039351 144.157964 
L 216.246245 143.124379 
L 218.660034 141.713634 
L 219.866928 141.358467 
L 222.280716 140.16865 
L 224.694505 139.368352 
L 225.901399 139.322249 
L 236.763447 135.257523 
L 241.591024 133.022885 
L 242.797918 132.693707 
L 244.004812 131.876195 
L 245.211707 131.768269 
L 246.418601 131.024017 
L 248.832389 130.205312 
L 250.039284 130.084936 
L 251.246178 129.716046 
L 252.453072 129.091388 
L 253.659966 128.784727 
L 254.86686 128.115326 
L 256.073755 128.251987 
L 257.280649 127.9896 
L 259.694437 127.224587 
L 260.901332 126.87648 
L 262.108226 126.201302 
L 263.31512 126.154312 
L 265.728908 125.577796 
L 266.935803 125.152637 
L 268.142697 125.112716 
L 270.556485 123.934257 
L 271.76338 123.783138 
L 272.970274 123.241219 
L 274.177168 122.890056 
L 275.384062 123.065072 
L 276.590956 122.286855 
L 277.797851 122.016404 
L 279.004745 121.578245 
L 280.211639 121.623408 
L 285.039216 120.294635 
L 286.24611 119.957994 
L 288.659899 119.604989 
L 289.866793 118.953003 
L 291.073687 119.052297 
L 292.280581 118.431856 
L 293.487475 117.614309 
L 294.69437 117.660942 
L 295.901264 118.198327 
L 297.108158 117.371395 
L 299.521947 117.165184 
L 301.935735 115.934487 
L 303.142629 115.776884 
L 304.349523 115.369173 
L 305.556418 115.311689 
L 306.763312 115.116712 
L 307.970206 114.282902 
L 309.1771 114.506925 
L 310.383995 114.376854 
L 312.797783 113.539211 
L 314.004677 113.40256 
L 315.211571 113.40023 
L 316.418466 112.794538 
L 317.62536 112.974535 
L 320.039148 112.044045 
L 322.452937 111.354458 
L 324.866725 110.898794 
L 328.487408 110.422588 
L 329.694302 109.85204 
L 330.901196 109.64255 
L 333.314985 109.463279 
L 334.521879 108.479062 
L 336.935667 108.813918 
L 338.142562 108.195745 
L 340.55635 107.525616 
L 341.763244 107.679914 
L 342.970139 107.341929 
L 344.177033 106.495983 
L 347.797715 106.249403 
L 349.00461 105.824585 
L 350.211504 106.158664 
L 351.418398 105.4262 
L 352.625292 105.04659 
L 353.832187 105.165102 
L 355.039081 104.745562 
L 356.245975 103.987335 
L 357.452869 103.995648 
L 358.659763 103.834179 
L 361.073552 103.059883 
L 363.48734 103.060017 
L 364.694235 102.388425 
L 365.901129 102.346147 
L 367.108023 102.085665 
L 368.314917 102.208443 
L 370.728706 101.447493 
L 371.9356 101.547386 
L 373.142494 100.585349 
L 374.349388 100.808163 
L 377.970071 99.979941 
L 379.176965 99.482976 
L 380.383859 99.195544 
L 381.590754 99.031915 
L 382.797648 98.657968 
L 387.625225 97.973107 
L 388.832119 97.263615 
L 390.039013 97.703353 
L 391.245907 96.819334 
L 392.452802 96.748484 
L 393.659696 97.028208 
L 394.86659 96.445077 
L 397.280379 96.252404 
L 398.487273 95.395773 
L 398.487273 95.395773 
" clip-path="url(#p29a2847d04)" style="fill: none; stroke: #348abd; stroke-width: 2; stroke-linecap: round"/>
   </g>
   <g id="line2d_29">
    <path d="M 73.832727 252.320166 
L 76.246516 252.320166 
L 77.45341 249.595686 
L 79.867198 249.595686 
L 81.074093 249.327683 
L 87.108564 249.252847 
L 89.522352 249.142672 
L 90.729246 249.142672 
L 91.936141 249.003713 
L 94.349929 249.003713 
L 95.556823 248.785441 
L 97.970612 248.785441 
L 99.177506 248.581241 
L 101.591294 248.581241 
L 102.798189 248.3102 
L 105.211977 248.3102 
L 106.418871 247.917471 
L 108.83266 247.917471 
L 110.039554 247.562639 
L 112.453342 247.562639 
L 113.660237 247.080042 
L 116.074025 247.080042 
L 117.280919 246.525968 
L 119.694708 246.525968 
L 120.901602 246.039054 
L 123.31539 246.039054 
L 124.522285 245.754581 
L 134.177438 245.727716 
L 135.384333 245.965977 
L 137.798121 245.965977 
L 139.005015 246.287708 
L 141.418804 246.287708 
L 142.625698 246.821954 
L 145.039486 246.821954 
L 146.246381 247.332374 
L 148.660169 247.332374 
L 149.867063 247.555923 
L 152.280852 247.555923 
L 153.487746 247.781391 
L 155.901534 247.781391 
L 157.108429 248.052432 
L 159.522217 248.052432 
L 160.729111 248.381039 
L 163.1429 248.381039 
L 164.349794 248.691257 
L 166.763582 248.691257 
L 167.970477 248.968534 
L 170.384265 248.968534 
L 171.591159 249.262761 
L 174.004948 249.262761 
L 175.211842 249.608478 
L 181.246313 249.602082 
L 182.453207 249.080148 
L 184.866996 249.080148 
L 186.07389 248.177318 
L 188.487678 248.177318 
L 189.694572 247.208287 
L 192.108361 247.208287 
L 193.315255 245.859479 
L 195.729044 245.859479 
L 196.935938 244.334135 
L 199.349726 244.334135 
L 200.55662 243.067678 
L 202.970409 243.067678 
L 204.177303 242.504968 
L 206.591092 242.504968 
L 207.797986 242.260632 
L 213.832457 242.155893 
L 219.866928 241.998066 
L 221.073822 241.998066 
L 222.280716 241.794505 
L 224.694505 241.794505 
L 225.901399 241.587267 
L 228.315188 241.587267 
L 229.522082 241.388664 
L 231.93587 241.388664 
L 233.142764 241.222681 
L 235.556553 241.222681 
L 236.763447 241.08836 
L 242.797918 240.990497 
L 245.211707 240.898711 
L 250.039284 240.812362 
L 252.453072 240.717378 
L 257.280649 240.612639 
L 259.694437 240.522612 
L 264.522014 240.422511 
L 266.935803 240.314095 
L 271.76338 240.215433 
L 274.177168 240.121728 
L 279.004745 240.033939 
L 281.418533 239.940234 
L 286.24611 239.831178 
L 288.659899 239.720523 
L 293.487475 239.618663 
L 295.901264 239.535831 
L 300.728841 239.437489 
L 303.142629 239.355297 
L 307.970206 239.267989 
L 310.383995 239.170446 
L 315.211571 239.064908 
L 316.418466 238.940501 
L 322.452937 238.852553 
L 324.866725 238.770521 
L 329.694302 238.682093 
L 332.108091 238.58487 
L 336.935667 238.49852 
L 339.349456 238.399698 
L 344.177033 238.300876 
L 346.590821 238.231157 
L 351.418398 238.150565 
L 353.832187 238.067733 
L 358.659763 238.002811 
L 361.073552 237.929894 
L 365.901129 237.864972 
L 368.314917 237.80037 
L 376.763177 237.695152 
L 381.590754 237.592812 
L 391.245907 237.500546 
L 396.073484 237.410039 
L 398.487273 237.410039 
L 398.487273 237.410039 
" clip-path="url(#p29a2847d04)" style="fill: none; stroke: #988ed5; stroke-width: 2; stroke-linecap: round"/>
   </g>
   <g id="patch_3">
    <path d="M 57.6 307.584 
L 57.6 41.472 
" style="fill: none; stroke: #ffffff; stroke-linejoin: miter; stroke-linecap: square"/>
   </g>
   <g id="patch_4">
    <path d="M 414.72 307.584 
L 414.72 41.472 
" style="fill: none; stroke: #ffffff; stroke-linejoin: miter; stroke-linecap: square"/>
   </g>
   <g id="patch_5">
    <path d="M 57.6 307.584 
L 414.72 307.584 
" style="fill: none; stroke: #ffffff; stroke-linejoin: miter; stroke-linecap: square"/>
   </g>
   <g id="patch_6">
    <path d="M 57.6 41.472 
L 414.72 41.472 
" style="fill: none; stroke: #ffffff; stroke-linejoin: miter; stroke-linecap: square"/>
   </g>
   <g id="legend_1">
    <g id="patch_7">
     <path d="M 292.159375 200.396906 
L 407.02 200.396906 
Q 409.22 200.396906 409.22 198.196906 
L 409.22 150.859094 
Q 409.22 148.659094 407.02 148.659094 
L 292.159375 148.659094 
Q 289.959375 148.659094 289.959375 150.859094 
L 289.959375 198.196906 
Q 289.959375 200.396906 292.159375 200.396906 
z
" style="fill: #eaeaf2; opacity: 0.8; stroke: #cccccc; stroke-linejoin: miter"/>
    </g>
    <g id="line2d_30">
     <path d="M 294.359375 157.567375 
L 305.359375 157.567375 
L 316.359375 157.567375 
" style="fill: none; stroke: #e24a33; stroke-width: 2; stroke-linecap: round"/>
    </g>
    <g id="text_16">
     <!-- Discriminators -->
     <g style="fill: #262626" transform="translate(325.159375 161.417375) scale(0.11 -0.11)">
      <defs>
       <path id="DejaVuSans-44" d="M 1259 4147 
L 1259 519 
L 2022 519 
Q 2988 519 3436 956 
Q 3884 1394 3884 2338 
Q 3884 3275 3436 3711 
Q 2988 4147 2022 4147 
L 1259 4147 
z
M 628 4666 
L 1925 4666 
Q 3281 4666 3915 4102 
Q 4550 3538 4550 2338 
Q 4550 1131 3912 565 
Q 3275 0 1925 0 
L 628 0 
L 628 4666 
z
" transform="scale(0.015625)"/>
       <path id="DejaVuSans-69" d="M 603 3500 
L 1178 3500 
L 1178 0 
L 603 0 
L 603 3500 
z
M 603 4863 
L 1178 4863 
L 1178 4134 
L 603 4134 
L 603 4863 
z
" transform="scale(0.015625)"/>
       <path id="DejaVuSans-72" d="M 2631 2963 
Q 2534 3019 2420 3045 
Q 2306 3072 2169 3072 
Q 1681 3072 1420 2755 
Q 1159 2438 1159 1844 
L 1159 0 
L 581 0 
L 581 3500 
L 1159 3500 
L 1159 2956 
Q 1341 3275 1631 3429 
Q 1922 3584 2338 3584 
Q 2397 3584 2469 3576 
Q 2541 3569 2628 3553 
L 2631 2963 
z
" transform="scale(0.015625)"/>
       <path id="DejaVuSans-6d" d="M 3328 2828 
Q 3544 3216 3844 3400 
Q 4144 3584 4550 3584 
Q 5097 3584 5394 3201 
Q 5691 2819 5691 2113 
L 5691 0 
L 5113 0 
L 5113 2094 
Q 5113 2597 4934 2840 
Q 4756 3084 4391 3084 
Q 3944 3084 3684 2787 
Q 3425 2491 3425 1978 
L 3425 0 
L 2847 0 
L 2847 2094 
Q 2847 2600 2669 2842 
Q 2491 3084 2119 3084 
Q 1678 3084 1418 2786 
Q 1159 2488 1159 1978 
L 1159 0 
L 581 0 
L 581 3500 
L 1159 3500 
L 1159 2956 
Q 1356 3278 1631 3431 
Q 1906 3584 2284 3584 
Q 2666 3584 2933 3390 
Q 3200 3197 3328 2828 
z
" transform="scale(0.015625)"/>
       <path id="DejaVuSans-6e" d="M 3513 2113 
L 3513 0 
L 2938 0 
L 2938 2094 
Q 2938 2591 2744 2837 
Q 2550 3084 2163 3084 
Q 1697 3084 1428 2787 
Q 1159 2491 1159 1978 
L 1159 0 
L 581 0 
L 581 3500 
L 1159 3500 
L 1159 2956 
Q 1366 3272 1645 3428 
Q 1925 3584 2291 3584 
Q 2894 3584 3203 3211 
Q 3513 2838 3513 2113 
z
" transform="scale(0.015625)"/>
       <path id="DejaVuSans-74" d="M 1172 4494 
L 1172 3500 
L 2356 3500 
L 2356 3053 
L 1172 3053 
L 1172 1153 
Q 1172 725 1289 603 
Q 1406 481 1766 481 
L 2356 481 
L 2356 0 
L 1766 0 
Q 1100 0 847 248 
Q 594 497 594 1153 
L 594 3053 
L 172 3053 
L 172 3500 
L 594 3500 
L 594 4494 
L 1172 4494 
z
" transform="scale(0.015625)"/>
      </defs>
      <use xlink:href="#DejaVuSans-44"/>
      <use xlink:href="#DejaVuSans-69" x="77.001953"/>
      <use xlink:href="#DejaVuSans-73" x="104.785156"/>
      <use xlink:href="#DejaVuSans-63" x="156.884766"/>
      <use xlink:href="#DejaVuSans-72" x="211.865234"/>
      <use xlink:href="#DejaVuSans-69" x="252.978516"/>
      <use xlink:href="#DejaVuSans-6d" x="280.761719"/>
      <use xlink:href="#DejaVuSans-69" x="378.173828"/>
      <use xlink:href="#DejaVuSans-6e" x="405.957031"/>
      <use xlink:href="#DejaVuSans-61" x="469.335938"/>
      <use xlink:href="#DejaVuSans-74" x="530.615234"/>
      <use xlink:href="#DejaVuSans-6f" x="569.824219"/>
      <use xlink:href="#DejaVuSans-72" x="631.005859"/>
      <use xlink:href="#DejaVuSans-73" x="672.119141"/>
     </g>
    </g>
    <g id="line2d_31">
     <path d="M 294.359375 173.713312 
L 305.359375 173.713312 
L 316.359375 173.713312 
" style="fill: none; stroke: #348abd; stroke-width: 2; stroke-linecap: round"/>
    </g>
    <g id="text_17">
     <!-- Generator -->
     <g style="fill: #262626" transform="translate(325.159375 177.563312) scale(0.11 -0.11)">
      <defs>
       <path id="DejaVuSans-47" d="M 3809 666 
L 3809 1919 
L 2778 1919 
L 2778 2438 
L 4434 2438 
L 4434 434 
Q 4069 175 3628 42 
Q 3188 -91 2688 -91 
Q 1594 -91 976 548 
Q 359 1188 359 2328 
Q 359 3472 976 4111 
Q 1594 4750 2688 4750 
Q 3144 4750 3555 4637 
Q 3966 4525 4313 4306 
L 4313 3634 
Q 3963 3931 3569 4081 
Q 3175 4231 2741 4231 
Q 1884 4231 1454 3753 
Q 1025 3275 1025 2328 
Q 1025 1384 1454 906 
Q 1884 428 2741 428 
Q 3075 428 3337 486 
Q 3600 544 3809 666 
z
" transform="scale(0.015625)"/>
      </defs>
      <use xlink:href="#DejaVuSans-47"/>
      <use xlink:href="#DejaVuSans-65" x="77.490234"/>
      <use xlink:href="#DejaVuSans-6e" x="139.013672"/>
      <use xlink:href="#DejaVuSans-65" x="202.392578"/>
      <use xlink:href="#DejaVuSans-72" x="263.916016"/>
      <use xlink:href="#DejaVuSans-61" x="305.029297"/>
      <use xlink:href="#DejaVuSans-74" x="366.308594"/>
      <use xlink:href="#DejaVuSans-6f" x="405.517578"/>
      <use xlink:href="#DejaVuSans-72" x="466.699219"/>
     </g>
    </g>
    <g id="line2d_32">
     <path d="M 294.359375 189.85925 
L 305.359375 189.85925 
L 316.359375 189.85925 
" style="fill: none; stroke: #988ed5; stroke-width: 2; stroke-linecap: round"/>
    </g>
    <g id="text_18">
     <!-- ROC AUC -->
     <g style="fill: #262626" transform="translate(325.159375 193.70925) scale(0.11 -0.11)">
      <defs>
       <path id="DejaVuSans-52" d="M 2841 2188 
Q 3044 2119 3236 1894 
Q 3428 1669 3622 1275 
L 4263 0 
L 3584 0 
L 2988 1197 
Q 2756 1666 2539 1819 
Q 2322 1972 1947 1972 
L 1259 1972 
L 1259 0 
L 628 0 
L 628 4666 
L 2053 4666 
Q 2853 4666 3247 4331 
Q 3641 3997 3641 3322 
Q 3641 2881 3436 2590 
Q 3231 2300 2841 2188 
z
M 1259 4147 
L 1259 2491 
L 2053 2491 
Q 2509 2491 2742 2702 
Q 2975 2913 2975 3322 
Q 2975 3731 2742 3939 
Q 2509 4147 2053 4147 
L 1259 4147 
z
" transform="scale(0.015625)"/>
       <path id="DejaVuSans-4f" d="M 2522 4238 
Q 1834 4238 1429 3725 
Q 1025 3213 1025 2328 
Q 1025 1447 1429 934 
Q 1834 422 2522 422 
Q 3209 422 3611 934 
Q 4013 1447 4013 2328 
Q 4013 3213 3611 3725 
Q 3209 4238 2522 4238 
z
M 2522 4750 
Q 3503 4750 4090 4092 
Q 4678 3434 4678 2328 
Q 4678 1225 4090 567 
Q 3503 -91 2522 -91 
Q 1538 -91 948 565 
Q 359 1222 359 2328 
Q 359 3434 948 4092 
Q 1538 4750 2522 4750 
z
" transform="scale(0.015625)"/>
       <path id="DejaVuSans-43" d="M 4122 4306 
L 4122 3641 
Q 3803 3938 3442 4084 
Q 3081 4231 2675 4231 
Q 1875 4231 1450 3742 
Q 1025 3253 1025 2328 
Q 1025 1406 1450 917 
Q 1875 428 2675 428 
Q 3081 428 3442 575 
Q 3803 722 4122 1019 
L 4122 359 
Q 3791 134 3420 21 
Q 3050 -91 2638 -91 
Q 1578 -91 968 557 
Q 359 1206 359 2328 
Q 359 3453 968 4101 
Q 1578 4750 2638 4750 
Q 3056 4750 3426 4639 
Q 3797 4528 4122 4306 
z
" transform="scale(0.015625)"/>
       <path id="DejaVuSans-20" transform="scale(0.015625)"/>
       <path id="DejaVuSans-41" d="M 2188 4044 
L 1331 1722 
L 3047 1722 
L 2188 4044 
z
M 1831 4666 
L 2547 4666 
L 4325 0 
L 3669 0 
L 3244 1197 
L 1141 1197 
L 716 0 
L 50 0 
L 1831 4666 
z
" transform="scale(0.015625)"/>
       <path id="DejaVuSans-55" d="M 556 4666 
L 1191 4666 
L 1191 1831 
Q 1191 1081 1462 751 
Q 1734 422 2344 422 
Q 2950 422 3222 751 
Q 3494 1081 3494 1831 
L 3494 4666 
L 4128 4666 
L 4128 1753 
Q 4128 841 3676 375 
Q 3225 -91 2344 -91 
Q 1459 -91 1007 375 
Q 556 841 556 1753 
L 556 4666 
z
" transform="scale(0.015625)"/>
      </defs>
      <use xlink:href="#DejaVuSans-52"/>
      <use xlink:href="#DejaVuSans-4f" x="69.482422"/>
      <use xlink:href="#DejaVuSans-43" x="148.193359"/>
      <use xlink:href="#DejaVuSans-20" x="218.017578"/>
      <use xlink:href="#DejaVuSans-41" x="249.804688"/>
      <use xlink:href="#DejaVuSans-55" x="318.212891"/>
      <use xlink:href="#DejaVuSans-43" x="391.40625"/>
     </g>
    </g>
   </g>
  </g>
 </g>
 <defs>
  <clipPath id="p29a2847d04">
   <rect x="57.6" y="41.472" width="357.12" height="266.112"/>
  </clipPath>
 </defs>
</svg>
