<?xml version="1.0" encoding="utf-8" standalone="no"?>
<!DOCTYPE svg PUBLIC "-//W3C//DTD SVG 1.1//EN"
  "http://www.w3.org/Graphics/SVG/1.1/DTD/svg11.dtd">
<svg xmlns:xlink="http://www.w3.org/1999/xlink" width="460.8pt" height="345.6pt" viewBox="0 0 460.8 345.6" xmlns="http://www.w3.org/2000/svg" version="1.1">
 <metadata>
  <rdf:RDF xmlns:dc="http://purl.org/dc/elements/1.1/" xmlns:cc="http://creativecommons.org/ns#" xmlns:rdf="http://www.w3.org/1999/02/22-rdf-syntax-ns#">
   <cc:Work>
    <dc:type rdf:resource="http://purl.org/dc/dcmitype/StillImage"/>
    <dc:date>2023-07-09T12:40:54.892185</dc:date>
    <dc:format>image/svg+xml</dc:format>
    <dc:creator>
     <cc:Agent>
      <dc:title>Matplotlib v3.7.1, https://matplotlib.org/</dc:title>
     </cc:Agent>
    </dc:creator>
   </cc:Work>
  </rdf:RDF>
 </metadata>
 <defs>
  <style type="text/css">*{stroke-linejoin: round; stroke-linecap: butt}</style>
 </defs>
 <g id="figure_1">
  <g id="patch_1">
   <path d="M 0 345.6 
L 460.8 345.6 
L 460.8 0 
L 0 0 
z
" style="fill: #ffffff"/>
  </g>
  <g id="axes_1">
   <g id="patch_2">
    <path d="M 57.6 307.584 
L 414.72 307.584 
L 414.72 41.472 
L 57.6 41.472 
z
" style="fill: #e5e5e5"/>
   </g>
   <g id="matplotlib.axis_1">
    <g id="xtick_1">
     <g id="line2d_1">
      <path d="M 73.109666 307.584 
L 73.109666 41.472 
" clip-path="url(#p6a04b34918)" style="fill: none; stroke: #ffffff; stroke-width: 0.8; stroke-linecap: square"/>
     </g>
     <g id="line2d_2">
      <defs>
       <path id="m84af7fc811" d="M 0 0 
L 0 3.5 
" style="stroke: #555555; stroke-width: 0.8"/>
      </defs>
      <g>
       <use xlink:href="#m84af7fc811" x="73.109666" y="307.584" style="fill: #555555; stroke: #555555; stroke-width: 0.8"/>
      </g>
     </g>
     <g id="text_1">
      <!-- 0 -->
      <g style="fill: #555555" transform="translate(69.928416 322.182437) scale(0.1 -0.1)">
       <defs>
        <path id="DejaVuSans-30" d="M 2034 4250 
Q 1547 4250 1301 3770 
Q 1056 3291 1056 2328 
Q 1056 1369 1301 889 
Q 1547 409 2034 409 
Q 2525 409 2770 889 
Q 3016 1369 3016 2328 
Q 3016 3291 2770 3770 
Q 2525 4250 2034 4250 
z
M 2034 4750 
Q 2819 4750 3233 4129 
Q 3647 3509 3647 2328 
Q 3647 1150 3233 529 
Q 2819 -91 2034 -91 
Q 1250 -91 836 529 
Q 422 1150 422 2328 
Q 422 3509 836 4129 
Q 1250 4750 2034 4750 
z
" transform="scale(0.015625)"/>
       </defs>
       <use xlink:href="#DejaVuSans-30"/>
      </g>
     </g>
    </g>
    <g id="xtick_2">
     <g id="line2d_3">
      <path d="M 145.415801 307.584 
L 145.415801 41.472 
" clip-path="url(#p6a04b34918)" style="fill: none; stroke: #ffffff; stroke-width: 0.8; stroke-linecap: square"/>
     </g>
     <g id="line2d_4">
      <g>
       <use xlink:href="#m84af7fc811" x="145.415801" y="307.584" style="fill: #555555; stroke: #555555; stroke-width: 0.8"/>
      </g>
     </g>
     <g id="text_2">
      <!-- 100 -->
      <g style="fill: #555555" transform="translate(135.872051 322.182437) scale(0.1 -0.1)">
       <defs>
        <path id="DejaVuSans-31" d="M 794 531 
L 1825 531 
L 1825 4091 
L 703 3866 
L 703 4441 
L 1819 4666 
L 2450 4666 
L 2450 531 
L 3481 531 
L 3481 0 
L 794 0 
L 794 531 
z
" transform="scale(0.015625)"/>
       </defs>
       <use xlink:href="#DejaVuSans-31"/>
       <use xlink:href="#DejaVuSans-30" x="63.623047"/>
       <use xlink:href="#DejaVuSans-30" x="127.246094"/>
      </g>
     </g>
    </g>
    <g id="xtick_3">
     <g id="line2d_5">
      <path d="M 217.721936 307.584 
L 217.721936 41.472 
" clip-path="url(#p6a04b34918)" style="fill: none; stroke: #ffffff; stroke-width: 0.8; stroke-linecap: square"/>
     </g>
     <g id="line2d_6">
      <g>
       <use xlink:href="#m84af7fc811" x="217.721936" y="307.584" style="fill: #555555; stroke: #555555; stroke-width: 0.8"/>
      </g>
     </g>
     <g id="text_3">
      <!-- 200 -->
      <g style="fill: #555555" transform="translate(208.178186 322.182437) scale(0.1 -0.1)">
       <defs>
        <path id="DejaVuSans-32" d="M 1228 531 
L 3431 531 
L 3431 0 
L 469 0 
L 469 531 
Q 828 903 1448 1529 
Q 2069 2156 2228 2338 
Q 2531 2678 2651 2914 
Q 2772 3150 2772 3378 
Q 2772 3750 2511 3984 
Q 2250 4219 1831 4219 
Q 1534 4219 1204 4116 
Q 875 4013 500 3803 
L 500 4441 
Q 881 4594 1212 4672 
Q 1544 4750 1819 4750 
Q 2544 4750 2975 4387 
Q 3406 4025 3406 3419 
Q 3406 3131 3298 2873 
Q 3191 2616 2906 2266 
Q 2828 2175 2409 1742 
Q 1991 1309 1228 531 
z
" transform="scale(0.015625)"/>
       </defs>
       <use xlink:href="#DejaVuSans-32"/>
       <use xlink:href="#DejaVuSans-30" x="63.623047"/>
       <use xlink:href="#DejaVuSans-30" x="127.246094"/>
      </g>
     </g>
    </g>
    <g id="xtick_4">
     <g id="line2d_7">
      <path d="M 290.02807 307.584 
L 290.02807 41.472 
" clip-path="url(#p6a04b34918)" style="fill: none; stroke: #ffffff; stroke-width: 0.8; stroke-linecap: square"/>
     </g>
     <g id="line2d_8">
      <g>
       <use xlink:href="#m84af7fc811" x="290.02807" y="307.584" style="fill: #555555; stroke: #555555; stroke-width: 0.8"/>
      </g>
     </g>
     <g id="text_4">
      <!-- 300 -->
      <g style="fill: #555555" transform="translate(280.48432 322.182437) scale(0.1 -0.1)">
       <defs>
        <path id="DejaVuSans-33" d="M 2597 2516 
Q 3050 2419 3304 2112 
Q 3559 1806 3559 1356 
Q 3559 666 3084 287 
Q 2609 -91 1734 -91 
Q 1441 -91 1130 -33 
Q 819 25 488 141 
L 488 750 
Q 750 597 1062 519 
Q 1375 441 1716 441 
Q 2309 441 2620 675 
Q 2931 909 2931 1356 
Q 2931 1769 2642 2001 
Q 2353 2234 1838 2234 
L 1294 2234 
L 1294 2753 
L 1863 2753 
Q 2328 2753 2575 2939 
Q 2822 3125 2822 3475 
Q 2822 3834 2567 4026 
Q 2313 4219 1838 4219 
Q 1578 4219 1281 4162 
Q 984 4106 628 3988 
L 628 4550 
Q 988 4650 1302 4700 
Q 1616 4750 1894 4750 
Q 2613 4750 3031 4423 
Q 3450 4097 3450 3541 
Q 3450 3153 3228 2886 
Q 3006 2619 2597 2516 
z
" transform="scale(0.015625)"/>
       </defs>
       <use xlink:href="#DejaVuSans-33"/>
       <use xlink:href="#DejaVuSans-30" x="63.623047"/>
       <use xlink:href="#DejaVuSans-30" x="127.246094"/>
      </g>
     </g>
    </g>
    <g id="xtick_5">
     <g id="line2d_9">
      <path d="M 362.334205 307.584 
L 362.334205 41.472 
" clip-path="url(#p6a04b34918)" style="fill: none; stroke: #ffffff; stroke-width: 0.8; stroke-linecap: square"/>
     </g>
     <g id="line2d_10">
      <g>
       <use xlink:href="#m84af7fc811" x="362.334205" y="307.584" style="fill: #555555; stroke: #555555; stroke-width: 0.8"/>
      </g>
     </g>
     <g id="text_5">
      <!-- 400 -->
      <g style="fill: #555555" transform="translate(352.790455 322.182437) scale(0.1 -0.1)">
       <defs>
        <path id="DejaVuSans-34" d="M 2419 4116 
L 825 1625 
L 2419 1625 
L 2419 4116 
z
M 2253 4666 
L 3047 4666 
L 3047 1625 
L 3713 1625 
L 3713 1100 
L 3047 1100 
L 3047 0 
L 2419 0 
L 2419 1100 
L 313 1100 
L 313 1709 
L 2253 4666 
z
" transform="scale(0.015625)"/>
       </defs>
       <use xlink:href="#DejaVuSans-34"/>
       <use xlink:href="#DejaVuSans-30" x="63.623047"/>
       <use xlink:href="#DejaVuSans-30" x="127.246094"/>
      </g>
     </g>
    </g>
    <g id="text_6">
     <!-- Epoch -->
     <g style="fill: #555555" transform="translate(217.786875 337.38025) scale(0.12 -0.12)">
      <defs>
       <path id="DejaVuSans-45" d="M 628 4666 
L 3578 4666 
L 3578 4134 
L 1259 4134 
L 1259 2753 
L 3481 2753 
L 3481 2222 
L 1259 2222 
L 1259 531 
L 3634 531 
L 3634 0 
L 628 0 
L 628 4666 
z
" transform="scale(0.015625)"/>
       <path id="DejaVuSans-70" d="M 1159 525 
L 1159 -1331 
L 581 -1331 
L 581 3500 
L 1159 3500 
L 1159 2969 
Q 1341 3281 1617 3432 
Q 1894 3584 2278 3584 
Q 2916 3584 3314 3078 
Q 3713 2572 3713 1747 
Q 3713 922 3314 415 
Q 2916 -91 2278 -91 
Q 1894 -91 1617 61 
Q 1341 213 1159 525 
z
M 3116 1747 
Q 3116 2381 2855 2742 
Q 2594 3103 2138 3103 
Q 1681 3103 1420 2742 
Q 1159 2381 1159 1747 
Q 1159 1113 1420 752 
Q 1681 391 2138 391 
Q 2594 391 2855 752 
Q 3116 1113 3116 1747 
z
" transform="scale(0.015625)"/>
       <path id="DejaVuSans-6f" d="M 1959 3097 
Q 1497 3097 1228 2736 
Q 959 2375 959 1747 
Q 959 1119 1226 758 
Q 1494 397 1959 397 
Q 2419 397 2687 759 
Q 2956 1122 2956 1747 
Q 2956 2369 2687 2733 
Q 2419 3097 1959 3097 
z
M 1959 3584 
Q 2709 3584 3137 3096 
Q 3566 2609 3566 1747 
Q 3566 888 3137 398 
Q 2709 -91 1959 -91 
Q 1206 -91 779 398 
Q 353 888 353 1747 
Q 353 2609 779 3096 
Q 1206 3584 1959 3584 
z
" transform="scale(0.015625)"/>
       <path id="DejaVuSans-63" d="M 3122 3366 
L 3122 2828 
Q 2878 2963 2633 3030 
Q 2388 3097 2138 3097 
Q 1578 3097 1268 2742 
Q 959 2388 959 1747 
Q 959 1106 1268 751 
Q 1578 397 2138 397 
Q 2388 397 2633 464 
Q 2878 531 3122 666 
L 3122 134 
Q 2881 22 2623 -34 
Q 2366 -91 2075 -91 
Q 1284 -91 818 406 
Q 353 903 353 1747 
Q 353 2603 823 3093 
Q 1294 3584 2113 3584 
Q 2378 3584 2631 3529 
Q 2884 3475 3122 3366 
z
" transform="scale(0.015625)"/>
       <path id="DejaVuSans-68" d="M 3513 2113 
L 3513 0 
L 2938 0 
L 2938 2094 
Q 2938 2591 2744 2837 
Q 2550 3084 2163 3084 
Q 1697 3084 1428 2787 
Q 1159 2491 1159 1978 
L 1159 0 
L 581 0 
L 581 4863 
L 1159 4863 
L 1159 2956 
Q 1366 3272 1645 3428 
Q 1925 3584 2291 3584 
Q 2894 3584 3203 3211 
Q 3513 2838 3513 2113 
z
" transform="scale(0.015625)"/>
      </defs>
      <use xlink:href="#DejaVuSans-45"/>
      <use xlink:href="#DejaVuSans-70" x="63.183594"/>
      <use xlink:href="#DejaVuSans-6f" x="126.660156"/>
      <use xlink:href="#DejaVuSans-63" x="187.841797"/>
      <use xlink:href="#DejaVuSans-68" x="242.822266"/>
     </g>
    </g>
   </g>
   <g id="matplotlib.axis_2">
    <g id="ytick_1">
     <g id="line2d_11">
      <path d="M 57.6 297.920805 
L 414.72 297.920805 
" clip-path="url(#p6a04b34918)" style="fill: none; stroke: #ffffff; stroke-width: 0.8; stroke-linecap: square"/>
     </g>
     <g id="line2d_12">
      <defs>
       <path id="m7fdbfd5e61" d="M 0 0 
L -3.5 0 
" style="stroke: #555555; stroke-width: 0.8"/>
      </defs>
      <g>
       <use xlink:href="#m7fdbfd5e61" x="57.6" y="297.920805" style="fill: #555555; stroke: #555555; stroke-width: 0.8"/>
      </g>
     </g>
     <g id="text_7">
      <!-- 0.25 -->
      <g style="fill: #555555" transform="translate(28.334375 301.720024) scale(0.1 -0.1)">
       <defs>
        <path id="DejaVuSans-2e" d="M 684 794 
L 1344 794 
L 1344 0 
L 684 0 
L 684 794 
z
" transform="scale(0.015625)"/>
        <path id="DejaVuSans-35" d="M 691 4666 
L 3169 4666 
L 3169 4134 
L 1269 4134 
L 1269 2991 
Q 1406 3038 1543 3061 
Q 1681 3084 1819 3084 
Q 2600 3084 3056 2656 
Q 3513 2228 3513 1497 
Q 3513 744 3044 326 
Q 2575 -91 1722 -91 
Q 1428 -91 1123 -41 
Q 819 9 494 109 
L 494 744 
Q 775 591 1075 516 
Q 1375 441 1709 441 
Q 2250 441 2565 725 
Q 2881 1009 2881 1497 
Q 2881 1984 2565 2268 
Q 2250 2553 1709 2553 
Q 1456 2553 1204 2497 
Q 953 2441 691 2322 
L 691 4666 
z
" transform="scale(0.015625)"/>
       </defs>
       <use xlink:href="#DejaVuSans-30"/>
       <use xlink:href="#DejaVuSans-2e" x="63.623047"/>
       <use xlink:href="#DejaVuSans-32" x="95.410156"/>
       <use xlink:href="#DejaVuSans-35" x="159.033203"/>
      </g>
     </g>
    </g>
    <g id="ytick_2">
     <g id="line2d_13">
      <path d="M 57.6 267.275137 
L 414.72 267.275137 
" clip-path="url(#p6a04b34918)" style="fill: none; stroke: #ffffff; stroke-width: 0.8; stroke-linecap: square"/>
     </g>
     <g id="line2d_14">
      <g>
       <use xlink:href="#m7fdbfd5e61" x="57.6" y="267.275137" style="fill: #555555; stroke: #555555; stroke-width: 0.8"/>
      </g>
     </g>
     <g id="text_8">
      <!-- 0.50 -->
      <g style="fill: #555555" transform="translate(28.334375 271.074356) scale(0.1 -0.1)">
       <use xlink:href="#DejaVuSans-30"/>
       <use xlink:href="#DejaVuSans-2e" x="63.623047"/>
       <use xlink:href="#DejaVuSans-35" x="95.410156"/>
       <use xlink:href="#DejaVuSans-30" x="159.033203"/>
      </g>
     </g>
    </g>
    <g id="ytick_3">
     <g id="line2d_15">
      <path d="M 57.6 236.629469 
L 414.72 236.629469 
" clip-path="url(#p6a04b34918)" style="fill: none; stroke: #ffffff; stroke-width: 0.8; stroke-linecap: square"/>
     </g>
     <g id="line2d_16">
      <g>
       <use xlink:href="#m7fdbfd5e61" x="57.6" y="236.629469" style="fill: #555555; stroke: #555555; stroke-width: 0.8"/>
      </g>
     </g>
     <g id="text_9">
      <!-- 0.75 -->
      <g style="fill: #555555" transform="translate(28.334375 240.428688) scale(0.1 -0.1)">
       <defs>
        <path id="DejaVuSans-37" d="M 525 4666 
L 3525 4666 
L 3525 4397 
L 1831 0 
L 1172 0 
L 2766 4134 
L 525 4134 
L 525 4666 
z
" transform="scale(0.015625)"/>
       </defs>
       <use xlink:href="#DejaVuSans-30"/>
       <use xlink:href="#DejaVuSans-2e" x="63.623047"/>
       <use xlink:href="#DejaVuSans-37" x="95.410156"/>
       <use xlink:href="#DejaVuSans-35" x="159.033203"/>
      </g>
     </g>
    </g>
    <g id="ytick_4">
     <g id="line2d_17">
      <path d="M 57.6 205.983801 
L 414.72 205.983801 
" clip-path="url(#p6a04b34918)" style="fill: none; stroke: #ffffff; stroke-width: 0.8; stroke-linecap: square"/>
     </g>
     <g id="line2d_18">
      <g>
       <use xlink:href="#m7fdbfd5e61" x="57.6" y="205.983801" style="fill: #555555; stroke: #555555; stroke-width: 0.8"/>
      </g>
     </g>
     <g id="text_10">
      <!-- 1.00 -->
      <g style="fill: #555555" transform="translate(28.334375 209.783019) scale(0.1 -0.1)">
       <use xlink:href="#DejaVuSans-31"/>
       <use xlink:href="#DejaVuSans-2e" x="63.623047"/>
       <use xlink:href="#DejaVuSans-30" x="95.410156"/>
       <use xlink:href="#DejaVuSans-30" x="159.033203"/>
      </g>
     </g>
    </g>
    <g id="ytick_5">
     <g id="line2d_19">
      <path d="M 57.6 175.338132 
L 414.72 175.338132 
" clip-path="url(#p6a04b34918)" style="fill: none; stroke: #ffffff; stroke-width: 0.8; stroke-linecap: square"/>
     </g>
     <g id="line2d_20">
      <g>
       <use xlink:href="#m7fdbfd5e61" x="57.6" y="175.338132" style="fill: #555555; stroke: #555555; stroke-width: 0.8"/>
      </g>
     </g>
     <g id="text_11">
      <!-- 1.25 -->
      <g style="fill: #555555" transform="translate(28.334375 179.137351) scale(0.1 -0.1)">
       <use xlink:href="#DejaVuSans-31"/>
       <use xlink:href="#DejaVuSans-2e" x="63.623047"/>
       <use xlink:href="#DejaVuSans-32" x="95.410156"/>
       <use xlink:href="#DejaVuSans-35" x="159.033203"/>
      </g>
     </g>
    </g>
    <g id="ytick_6">
     <g id="line2d_21">
      <path d="M 57.6 144.692464 
L 414.72 144.692464 
" clip-path="url(#p6a04b34918)" style="fill: none; stroke: #ffffff; stroke-width: 0.8; stroke-linecap: square"/>
     </g>
     <g id="line2d_22">
      <g>
       <use xlink:href="#m7fdbfd5e61" x="57.6" y="144.692464" style="fill: #555555; stroke: #555555; stroke-width: 0.8"/>
      </g>
     </g>
     <g id="text_12">
      <!-- 1.50 -->
      <g style="fill: #555555" transform="translate(28.334375 148.491683) scale(0.1 -0.1)">
       <use xlink:href="#DejaVuSans-31"/>
       <use xlink:href="#DejaVuSans-2e" x="63.623047"/>
       <use xlink:href="#DejaVuSans-35" x="95.410156"/>
       <use xlink:href="#DejaVuSans-30" x="159.033203"/>
      </g>
     </g>
    </g>
    <g id="ytick_7">
     <g id="line2d_23">
      <path d="M 57.6 114.046796 
L 414.72 114.046796 
" clip-path="url(#p6a04b34918)" style="fill: none; stroke: #ffffff; stroke-width: 0.8; stroke-linecap: square"/>
     </g>
     <g id="line2d_24">
      <g>
       <use xlink:href="#m7fdbfd5e61" x="57.6" y="114.046796" style="fill: #555555; stroke: #555555; stroke-width: 0.8"/>
      </g>
     </g>
     <g id="text_13">
      <!-- 1.75 -->
      <g style="fill: #555555" transform="translate(28.334375 117.846014) scale(0.1 -0.1)">
       <use xlink:href="#DejaVuSans-31"/>
       <use xlink:href="#DejaVuSans-2e" x="63.623047"/>
       <use xlink:href="#DejaVuSans-37" x="95.410156"/>
       <use xlink:href="#DejaVuSans-35" x="159.033203"/>
      </g>
     </g>
    </g>
    <g id="ytick_8">
     <g id="line2d_25">
      <path d="M 57.6 83.401127 
L 414.72 83.401127 
" clip-path="url(#p6a04b34918)" style="fill: none; stroke: #ffffff; stroke-width: 0.8; stroke-linecap: square"/>
     </g>
     <g id="line2d_26">
      <g>
       <use xlink:href="#m7fdbfd5e61" x="57.6" y="83.401127" style="fill: #555555; stroke: #555555; stroke-width: 0.8"/>
      </g>
     </g>
     <g id="text_14">
      <!-- 2.00 -->
      <g style="fill: #555555" transform="translate(28.334375 87.200346) scale(0.1 -0.1)">
       <use xlink:href="#DejaVuSans-32"/>
       <use xlink:href="#DejaVuSans-2e" x="63.623047"/>
       <use xlink:href="#DejaVuSans-30" x="95.410156"/>
       <use xlink:href="#DejaVuSans-30" x="159.033203"/>
      </g>
     </g>
    </g>
    <g id="ytick_9">
     <g id="line2d_27">
      <path d="M 57.6 52.755459 
L 414.72 52.755459 
" clip-path="url(#p6a04b34918)" style="fill: none; stroke: #ffffff; stroke-width: 0.8; stroke-linecap: square"/>
     </g>
     <g id="line2d_28">
      <g>
       <use xlink:href="#m7fdbfd5e61" x="57.6" y="52.755459" style="fill: #555555; stroke: #555555; stroke-width: 0.8"/>
      </g>
     </g>
     <g id="text_15">
      <!-- 2.25 -->
      <g style="fill: #555555" transform="translate(28.334375 56.554678) scale(0.1 -0.1)">
       <use xlink:href="#DejaVuSans-32"/>
       <use xlink:href="#DejaVuSans-2e" x="63.623047"/>
       <use xlink:href="#DejaVuSans-32" x="95.410156"/>
       <use xlink:href="#DejaVuSans-35" x="159.033203"/>
      </g>
     </g>
    </g>
    <g id="text_16">
     <!-- Loss -->
     <g style="fill: #555555" transform="translate(21.83875 187.688625) rotate(-90) scale(0.12 -0.12)">
      <defs>
       <path id="DejaVuSans-4c" d="M 628 4666 
L 1259 4666 
L 1259 531 
L 3531 531 
L 3531 0 
L 628 0 
L 628 4666 
z
" transform="scale(0.015625)"/>
       <path id="DejaVuSans-73" d="M 2834 3397 
L 2834 2853 
Q 2591 2978 2328 3040 
Q 2066 3103 1784 3103 
Q 1356 3103 1142 2972 
Q 928 2841 928 2578 
Q 928 2378 1081 2264 
Q 1234 2150 1697 2047 
L 1894 2003 
Q 2506 1872 2764 1633 
Q 3022 1394 3022 966 
Q 3022 478 2636 193 
Q 2250 -91 1575 -91 
Q 1294 -91 989 -36 
Q 684 19 347 128 
L 347 722 
Q 666 556 975 473 
Q 1284 391 1588 391 
Q 1994 391 2212 530 
Q 2431 669 2431 922 
Q 2431 1156 2273 1281 
Q 2116 1406 1581 1522 
L 1381 1569 
Q 847 1681 609 1914 
Q 372 2147 372 2553 
Q 372 3047 722 3315 
Q 1072 3584 1716 3584 
Q 2034 3584 2315 3537 
Q 2597 3491 2834 3397 
z
" transform="scale(0.015625)"/>
      </defs>
      <use xlink:href="#DejaVuSans-4c"/>
      <use xlink:href="#DejaVuSans-6f" x="53.962891"/>
      <use xlink:href="#DejaVuSans-73" x="115.144531"/>
      <use xlink:href="#DejaVuSans-73" x="167.244141"/>
     </g>
    </g>
   </g>
   <g id="line2d_29">
    <path d="M 73.832727 232.99353 
L 74.555789 231.942578 
L 75.27885 230.322508 
L 76.001911 229.386575 
L 77.448034 226.624858 
L 78.171095 225.395979 
L 78.894157 224.525797 
L 79.617218 222.582568 
L 80.340279 221.952018 
L 81.063341 220.652988 
L 81.786402 219.654344 
L 82.509463 218.242896 
L 83.232525 217.672054 
L 84.678647 214.630996 
L 85.401709 213.255372 
L 86.12477 212.574027 
L 88.293954 209.27586 
L 89.017016 208.48621 
L 89.740077 207.165444 
L 91.1862 205.161367 
L 91.909261 203.802914 
L 94.801506 200.410566 
L 96.247629 198.139429 
L 96.97069 197.736607 
L 97.693752 195.89366 
L 99.139874 194.513098 
L 99.862936 193.480733 
L 100.585997 192.678276 
L 101.309059 191.603227 
L 102.03212 190.978083 
L 102.755181 189.975632 
L 103.478243 188.656619 
L 104.924365 187.950329 
L 105.647427 186.186556 
L 106.370488 186.029188 
L 107.093549 185.250915 
L 108.539672 184.178263 
L 109.262733 181.906322 
L 109.985795 182.036012 
L 110.708856 180.906837 
L 111.431917 180.134643 
L 112.154979 179.812251 
L 112.87804 178.63798 
L 113.601101 178.567385 
L 114.324163 177.659392 
L 115.047224 176.993068 
L 115.770285 176.026638 
L 116.493347 175.5089 
L 117.216408 175.24702 
L 117.93947 173.874919 
L 119.385592 173.017969 
L 120.108654 173.031705 
L 120.831715 172.253665 
L 121.554776 171.133901 
L 122.277838 171.253216 
L 123.000899 170.541899 
L 123.72396 169.066572 
L 124.447022 168.755256 
L 125.893144 167.674772 
L 126.616206 166.915481 
L 127.339267 166.426267 
L 129.508451 165.568426 
L 130.231512 164.377014 
L 130.954574 164.356862 
L 131.677635 164.567304 
L 132.400696 163.616349 
L 133.123758 163.215032 
L 133.846819 162.675345 
L 134.569881 161.257739 
L 136.016003 161.375578 
L 136.739065 160.666073 
L 137.462126 160.714296 
L 138.185187 159.725216 
L 138.908249 159.677168 
L 139.63131 159.760754 
L 140.354371 158.929231 
L 141.077433 159.498875 
L 141.800494 158.933966 
L 142.523555 157.772116 
L 143.969678 157.672324 
L 144.692739 157.03074 
L 145.415801 155.188393 
L 146.138862 156.105197 
L 146.861923 155.732434 
L 147.584985 155.071986 
L 148.308046 155.371479 
L 149.031108 155.436814 
L 149.754169 154.864846 
L 150.47723 154.646163 
L 151.200292 153.845532 
L 151.923353 153.872946 
L 152.646414 153.506919 
L 153.369476 153.533793 
L 154.092537 152.519665 
L 154.815598 152.862296 
L 155.53866 152.866432 
L 156.984782 151.86154 
L 157.707844 152.909862 
L 158.430905 151.68842 
L 159.153966 150.9859 
L 159.877028 150.577058 
L 160.600089 152.271581 
L 161.32315 151.455533 
L 162.046212 151.031829 
L 162.769273 151.72314 
L 163.492334 149.790148 
L 164.215396 150.222269 
L 164.938457 149.713883 
L 165.661519 149.395101 
L 166.38458 148.814 
L 167.107641 150.049295 
L 167.830703 149.086664 
L 168.553764 149.693644 
L 169.999887 149.098486 
L 170.722948 148.158008 
L 171.446009 149.053683 
L 172.169071 148.671816 
L 172.892132 148.612356 
L 173.615193 148.144842 
L 174.338255 148.67563 
L 175.061316 148.197697 
L 175.784377 148.452139 
L 176.507439 147.551876 
L 177.2305 147.968799 
L 177.953561 147.349062 
L 178.676623 148.693896 
L 179.399684 147.147272 
L 180.122745 147.455211 
L 180.845807 147.199718 
L 181.568868 146.810807 
L 182.29193 147.953047 
L 183.014991 146.926615 
L 183.738052 147.724397 
L 184.461114 146.252138 
L 185.184175 145.610131 
L 185.907236 145.496047 
L 186.630298 143.787847 
L 187.353359 144.368172 
L 188.07642 144.532642 
L 188.799482 142.474314 
L 190.245604 141.918231 
L 190.968666 141.412826 
L 191.691727 141.881523 
L 192.414788 141.417444 
L 193.860911 139.801101 
L 194.583972 138.399174 
L 195.307034 140.632273 
L 196.030095 139.477145 
L 196.753157 137.653312 
L 197.476218 137.569331 
L 198.199279 137.854679 
L 198.922341 137.413162 
L 201.091525 135.573927 
L 201.814586 135.46262 
L 202.537647 134.977088 
L 203.260709 133.531586 
L 203.98377 133.364223 
L 204.706831 133.550378 
L 205.429893 133.266813 
L 206.152954 131.966256 
L 206.876015 131.567059 
L 207.599077 132.709313 
L 208.322138 131.547068 
L 209.768261 131.112098 
L 210.491322 128.901225 
L 211.937445 127.721489 
L 212.660506 126.713309 
L 213.383568 129.23804 
L 214.106629 128.743142 
L 214.82969 126.949104 
L 215.552752 127.008112 
L 216.275813 125.721832 
L 216.998874 127.200813 
L 217.721936 125.298932 
L 218.444997 124.410594 
L 219.168058 125.547806 
L 219.89112 124.427545 
L 220.614181 124.450239 
L 222.060304 123.590469 
L 222.783365 122.553501 
L 223.506426 122.644701 
L 224.229488 122.076796 
L 224.952549 121.915805 
L 226.398672 120.663486 
L 227.121733 121.941246 
L 227.844794 119.811052 
L 228.567856 120.663501 
L 229.290917 120.685099 
L 230.013979 118.9285 
L 230.73704 118.122871 
L 231.460101 119.020533 
L 232.183163 118.584715 
L 232.906224 117.006774 
L 233.629285 117.389313 
L 234.352347 116.666072 
L 235.075408 117.717697 
L 235.798469 116.6877 
L 236.521531 115.367445 
L 237.244592 116.192042 
L 237.967653 115.069325 
L 238.690715 114.72478 
L 239.413776 113.955801 
L 240.136837 115.130203 
L 240.859899 115.286854 
L 241.58296 112.617338 
L 242.306021 112.955892 
L 243.029083 111.241598 
L 243.752144 113.017983 
L 245.198267 110.339582 
L 245.921328 111.306319 
L 246.64439 109.750006 
L 247.367451 110.968145 
L 248.090512 109.656804 
L 248.813574 109.891065 
L 249.536635 109.107107 
L 250.259696 108.665269 
L 250.982758 109.401953 
L 251.705819 109.098719 
L 252.42888 107.765327 
L 253.151942 106.974297 
L 253.875003 107.16957 
L 254.598064 107.506634 
L 255.321126 107.280614 
L 256.044187 106.509005 
L 256.767248 105.501088 
L 257.49031 106.07852 
L 258.213371 105.798448 
L 258.936432 105.375592 
L 259.659494 102.660644 
L 260.382555 103.729686 
L 261.105617 104.566324 
L 261.828678 104.62482 
L 262.551739 102.764688 
L 263.274801 103.121435 
L 263.997862 103.909236 
L 264.720923 102.562576 
L 265.443985 101.971597 
L 266.167046 100.899398 
L 266.890107 101.651149 
L 267.613169 100.880825 
L 268.33623 99.325593 
L 269.059291 100.126853 
L 269.782353 99.661517 
L 270.505414 98.813831 
L 271.228475 99.371609 
L 271.951537 98.501742 
L 272.674598 98.93452 
L 273.397659 98.842517 
L 274.843782 97.979006 
L 275.566843 96.960962 
L 276.289905 97.236388 
L 277.012966 98.517348 
L 277.736028 96.844117 
L 278.459089 97.42795 
L 279.18215 96.54515 
L 279.905212 95.116656 
L 280.628273 96.697432 
L 281.351334 95.997338 
L 282.074396 94.789501 
L 282.797457 93.311806 
L 284.24358 94.094083 
L 284.966641 91.942071 
L 285.689702 92.962657 
L 286.412764 91.704376 
L 287.135825 94.823973 
L 287.858886 93.42738 
L 288.581948 92.687188 
L 289.305009 92.172547 
L 290.02807 91.081907 
L 290.751132 90.20238 
L 291.474193 91.837092 
L 292.197255 90.133158 
L 292.920316 90.82634 
L 293.643377 91.098755 
L 294.366439 90.369728 
L 295.0895 89.421447 
L 295.812561 88.959603 
L 296.535623 89.342873 
L 297.258684 89.939054 
L 297.981745 88.210965 
L 298.704807 88.754247 
L 299.427868 87.879776 
L 300.150929 87.223521 
L 300.873991 86.09119 
L 301.597052 86.838147 
L 302.320113 86.415028 
L 303.043175 86.896585 
L 303.766236 87.204656 
L 304.489297 85.022936 
L 305.212359 85.402114 
L 305.93542 84.59121 
L 306.658481 84.376165 
L 307.381543 85.231931 
L 308.104604 83.347995 
L 308.827666 85.522145 
L 309.550727 81.978932 
L 310.273788 83.719749 
L 310.99685 82.625119 
L 311.719911 82.786593 
L 312.442972 81.714379 
L 313.166034 83.615018 
L 313.889095 83.163871 
L 314.612156 83.935875 
L 315.335218 81.053112 
L 316.058279 81.611971 
L 316.78134 81.100107 
L 317.504402 80.958478 
L 318.227463 82.575698 
L 318.950524 80.815387 
L 319.673586 79.800252 
L 320.396647 78.409066 
L 321.119708 78.647813 
L 321.84277 78.058149 
L 322.565831 78.189433 
L 323.288892 78.754546 
L 324.011954 77.493796 
L 324.735015 78.78497 
L 325.458077 76.319174 
L 326.181138 76.690899 
L 326.904199 76.005053 
L 327.627261 77.052659 
L 329.073383 75.48562 
L 329.796445 77.041348 
L 330.519506 76.675614 
L 331.242567 77.404218 
L 331.965629 75.002952 
L 332.68869 77.472782 
L 333.411751 74.830753 
L 334.134813 75.665243 
L 334.857874 74.05679 
L 335.580935 74.354486 
L 336.303997 75.377337 
L 337.027058 72.579124 
L 337.750119 73.898678 
L 338.473181 73.740682 
L 339.196242 74.956834 
L 339.919304 72.42788 
L 340.642365 70.72418 
L 341.365426 71.863351 
L 342.811549 73.551561 
L 343.53461 72.157861 
L 344.257672 71.677181 
L 344.980733 70.820217 
L 346.426856 70.036814 
L 347.149917 69.052542 
L 347.872978 73.142777 
L 348.59604 70.603185 
L 349.319101 69.8327 
L 350.042162 71.48958 
L 350.765224 68.870493 
L 351.488285 69.597343 
L 352.211346 70.075276 
L 352.934408 68.970241 
L 354.38053 67.491114 
L 355.103592 68.435464 
L 355.826653 66.490942 
L 356.549715 66.786534 
L 357.272776 66.053546 
L 357.995837 69.290558 
L 359.44196 67.840686 
L 360.165021 65.244425 
L 360.888083 65.520698 
L 361.611144 65.527245 
L 362.334205 64.13375 
L 363.057267 63.80975 
L 363.780328 65.949589 
L 364.503389 65.800215 
L 365.226451 65.17738 
L 365.949512 65.488608 
L 366.672573 64.897249 
L 367.395635 65.192256 
L 368.118696 63.519507 
L 368.841757 64.110223 
L 370.28788 63.709096 
L 371.010941 63.955266 
L 371.734003 64.898623 
L 373.180126 62.825536 
L 373.903187 64.098737 
L 375.34931 62.255249 
L 376.072371 60.69689 
L 376.795432 60.268993 
L 377.518494 61.689259 
L 378.241555 61.016126 
L 378.964616 62.507031 
L 379.687678 62.110055 
L 380.410739 59.831071 
L 381.856862 59.193623 
L 382.579923 60.156122 
L 383.302984 59.08534 
L 384.026046 58.488604 
L 384.749107 58.116236 
L 385.472168 58.692894 
L 386.19523 60.870902 
L 386.918291 58.0968 
L 388.364414 58.868688 
L 389.087475 58.683658 
L 389.810537 57.126527 
L 390.533598 56.635326 
L 391.256659 57.506231 
L 391.979721 59.41878 
L 392.702782 57.735889 
L 393.425843 58.208853 
L 394.148905 56.951522 
L 394.871966 58.351593 
L 395.595027 56.024941 
L 396.318089 57.381641 
L 397.04115 55.548236 
L 397.764211 57.35484 
L 398.487273 53.568 
L 398.487273 53.568 
" clip-path="url(#p6a04b34918)" style="fill: none; stroke: #6495ed; stroke-width: 2; stroke-linecap: square"/>
   </g>
   <g id="line2d_30">
    <path d="M 73.832727 246.570009 
L 74.555789 247.070233 
L 75.27885 247.74406 
L 76.001911 248.110797 
L 76.724973 248.885712 
L 77.448034 249.278309 
L 78.171095 249.84402 
L 78.894157 250.124013 
L 79.617218 250.838773 
L 82.509463 252.509546 
L 83.232525 252.711211 
L 83.955586 253.478361 
L 84.678647 253.794583 
L 85.401709 254.328533 
L 86.12477 254.500152 
L 86.847832 254.890747 
L 87.570893 255.430635 
L 88.293954 255.591465 
L 91.1862 257.124026 
L 91.909261 257.328598 
L 92.632322 257.693379 
L 93.355384 257.852707 
L 96.247629 259.133098 
L 96.97069 259.182439 
L 98.416813 260.109739 
L 99.139874 260.067185 
L 99.862936 260.475955 
L 100.585997 260.583841 
L 101.309059 260.889579 
L 102.03212 261.344756 
L 102.755181 261.320296 
L 103.478243 261.781461 
L 104.201304 261.788069 
L 104.924365 261.907917 
L 105.647427 262.652798 
L 106.370488 262.384664 
L 107.093549 262.734233 
L 107.816611 262.763633 
L 108.539672 262.925764 
L 109.262733 263.756298 
L 109.985795 263.440452 
L 110.708856 263.846705 
L 112.154979 264.017729 
L 112.87804 264.641737 
L 113.601101 264.32637 
L 114.324163 264.676986 
L 115.047224 264.730203 
L 115.770285 264.972452 
L 116.493347 265.434691 
L 117.216408 265.158922 
L 117.93947 265.632694 
L 118.662531 265.59394 
L 119.385592 265.746389 
L 120.108654 266.125542 
L 120.831715 265.940238 
L 121.554776 266.348778 
L 122.277838 266.197038 
L 123.000899 266.403644 
L 123.72396 267.069626 
L 124.447022 266.761083 
L 125.170083 267.063908 
L 125.893144 267.050896 
L 126.616206 267.257381 
L 127.339267 267.754906 
L 128.062328 267.421243 
L 128.78539 267.705044 
L 129.508451 267.615937 
L 130.231512 267.883688 
L 130.954574 268.318467 
L 131.677635 267.870743 
L 132.400696 268.288387 
L 133.123758 268.21138 
L 133.846819 268.363253 
L 134.569881 269.077634 
L 135.292942 268.630818 
L 136.016003 268.869121 
L 137.462126 268.890037 
L 138.185187 269.535203 
L 138.908249 269.110573 
L 139.63131 269.321173 
L 141.077433 269.292277 
L 141.800494 269.833888 
L 142.523555 269.593188 
L 143.246617 269.863386 
L 143.969678 269.727775 
L 144.692739 269.885916 
L 145.415801 270.683765 
L 146.138862 270.067011 
L 146.861923 270.365425 
L 148.308046 270.356391 
L 149.031108 270.819492 
L 149.754169 270.442093 
L 150.47723 270.716884 
L 151.923353 270.784309 
L 152.646414 271.344722 
L 153.369476 270.858732 
L 154.092537 271.272478 
L 154.815598 271.071356 
L 155.53866 271.148528 
L 156.261721 271.718797 
L 156.984782 271.305307 
L 159.153966 271.649625 
L 159.877028 272.218149 
L 160.600089 271.432427 
L 161.32315 271.826901 
L 162.769273 271.719167 
L 163.492334 272.550684 
L 164.215396 271.983983 
L 164.938457 272.315965 
L 165.661519 272.204929 
L 166.38458 272.356967 
L 167.107641 272.710526 
L 167.830703 272.343182 
L 168.553764 272.501807 
L 169.276825 272.368487 
L 169.999887 272.518269 
L 170.722948 273.202308 
L 171.446009 272.529691 
L 172.169071 272.844819 
L 172.892132 272.691839 
L 173.615193 272.828455 
L 174.338255 273.336736 
L 175.061316 272.835497 
L 175.784377 273.066711 
L 177.2305 273.077279 
L 177.953561 273.731186 
L 178.676623 272.969987 
L 179.399684 273.473695 
L 180.122745 273.252852 
L 180.845807 273.382575 
L 181.568868 274.008416 
L 182.29193 273.266643 
L 183.014991 273.723833 
L 183.738052 273.413206 
L 184.461114 273.714852 
L 185.184175 274.405417 
L 185.907236 273.824687 
L 186.630298 274.372074 
L 187.353359 274.10513 
L 188.07642 274.152559 
L 188.799482 275.051938 
L 189.522543 274.464648 
L 190.245604 274.8139 
L 190.968666 274.689519 
L 191.691727 274.706916 
L 192.414788 275.373937 
L 193.13785 274.873055 
L 193.860911 275.291402 
L 194.583972 275.320745 
L 195.307034 275.088567 
L 196.030095 275.848268 
L 196.753157 275.485945 
L 197.476218 275.808092 
L 198.199279 275.575996 
L 198.922341 275.720093 
L 199.645402 276.412052 
L 200.368463 275.912974 
L 201.091525 276.252967 
L 201.814586 276.074535 
L 202.537647 276.258755 
L 203.260709 277.06684 
L 203.98377 276.456483 
L 204.706831 276.717301 
L 205.429893 276.584149 
L 206.152954 276.838635 
L 206.876015 277.524451 
L 207.599077 276.710725 
L 208.322138 277.210677 
L 209.045199 277.022217 
L 209.768261 277.146016 
L 210.491322 278.053063 
L 211.214383 277.488459 
L 211.937445 277.885958 
L 213.383568 277.5913 
L 214.106629 278.302195 
L 214.82969 277.85066 
L 215.552752 278.172571 
L 216.998874 278.061702 
L 217.721936 278.942068 
L 218.444997 278.371413 
L 219.168058 278.544011 
L 219.89112 278.495694 
L 220.614181 278.593064 
L 221.337242 279.280046 
L 222.060304 278.657684 
L 222.783365 279.123834 
L 223.506426 278.895648 
L 224.229488 279.085585 
L 224.952549 279.758931 
L 225.67561 279.139234 
L 226.398672 279.562801 
L 227.121733 279.180614 
L 227.844794 279.563014 
L 228.567856 280.113719 
L 229.290917 279.419784 
L 230.013979 279.976737 
L 230.73704 279.837721 
L 231.460101 279.83943 
L 232.183163 280.543018 
L 232.906224 280.058485 
L 233.629285 280.352327 
L 235.075408 280.194124 
L 235.798469 281.000513 
L 236.521531 280.449618 
L 237.244592 280.686425 
L 237.967653 280.594001 
L 238.690715 280.758758 
L 239.413776 281.521542 
L 240.136837 280.670264 
L 240.859899 280.979412 
L 242.306021 281.129457 
L 243.029083 282.008232 
L 243.752144 281.120056 
L 244.475206 281.599708 
L 245.921328 281.507102 
L 246.64439 282.411718 
L 247.367451 281.53692 
L 248.090512 282.037546 
L 248.813574 281.790862 
L 249.536635 281.957343 
L 250.259696 282.729251 
L 250.982758 281.926831 
L 251.705819 282.277356 
L 252.42888 282.227477 
L 253.151942 282.404044 
L 253.875003 283.109088 
L 254.598064 282.34404 
L 255.321126 282.714921 
L 256.044187 282.539803 
L 256.767248 282.755303 
L 257.49031 283.404296 
L 258.213371 282.718085 
L 258.936432 283.108428 
L 260.382555 283.171995 
L 261.105617 283.773899 
L 261.828678 283.06261 
L 262.551739 283.579425 
L 263.274801 283.348403 
L 263.997862 283.358381 
L 264.720923 284.218011 
L 265.443985 283.512398 
L 266.167046 283.989317 
L 266.890107 283.675796 
L 267.613169 283.838892 
L 268.33623 284.745441 
L 269.059291 283.917134 
L 269.782353 284.31801 
L 270.505414 284.170252 
L 271.228475 284.204905 
L 271.951537 285.016773 
L 272.674598 284.235106 
L 273.397659 284.597842 
L 274.120721 284.469719 
L 274.843782 284.574966 
L 275.566843 285.380412 
L 276.289905 284.597972 
L 277.012966 284.843847 
L 278.459089 284.801507 
L 279.18215 285.650764 
L 279.905212 285.007884 
L 280.628273 285.212517 
L 281.351334 285.079778 
L 282.074396 285.273261 
L 282.797457 286.14883 
L 283.520518 285.362577 
L 284.24358 285.685376 
L 285.689702 285.659204 
L 286.412764 286.500077 
L 287.135825 285.442717 
L 287.858886 285.946021 
L 288.581948 285.780887 
L 289.305009 285.935479 
L 290.02807 286.790585 
L 290.751132 286.085186 
L 291.474193 286.308913 
L 292.920316 286.236848 
L 293.643377 286.988497 
L 294.366439 286.273043 
L 295.0895 286.725679 
L 295.812561 286.552545 
L 296.535623 286.613268 
L 297.258684 287.288651 
L 297.981745 286.672684 
L 298.704807 286.983833 
L 299.427868 286.835397 
L 300.150929 286.990285 
L 300.873991 287.840694 
L 301.597052 287.010663 
L 302.320113 287.411733 
L 303.043175 287.124905 
L 303.766236 287.2044 
L 304.489297 288.129353 
L 305.212359 287.330293 
L 305.93542 287.787984 
L 306.658481 287.584217 
L 307.381543 287.582532 
L 308.104604 288.466442 
L 308.827666 287.531998 
L 309.550727 288.196792 
L 310.273788 287.782829 
L 310.99685 288.001714 
L 311.719911 288.721344 
L 312.442972 288.047447 
L 313.166034 288.266827 
L 313.889095 288.054912 
L 314.612156 288.089935 
L 315.335218 289.103562 
L 316.058279 288.250132 
L 316.78134 288.688213 
L 317.504402 288.452956 
L 318.227463 288.432516 
L 318.950524 289.296396 
L 319.673586 288.627467 
L 320.396647 289.071671 
L 321.119708 288.859823 
L 321.84277 288.991468 
L 322.565831 289.707993 
L 323.288892 288.885027 
L 324.011954 289.372345 
L 324.735015 289.02209 
L 325.458077 289.345697 
L 326.181138 290.033842 
L 326.904199 289.321657 
L 327.627261 289.60281 
L 328.350322 289.418717 
L 329.073383 289.586906 
L 329.796445 290.216632 
L 330.519506 289.456855 
L 331.242567 289.786 
L 332.68869 289.607818 
L 333.411751 290.576049 
L 334.134813 289.738093 
L 334.857874 290.256874 
L 335.580935 289.985631 
L 336.303997 290.004473 
L 337.027058 290.969761 
L 337.750119 290.100252 
L 338.473181 290.472458 
L 339.196242 290.141974 
L 339.919304 290.435705 
L 340.642365 291.341559 
L 341.365426 290.438311 
L 342.088488 290.759513 
L 342.811549 290.420512 
L 343.53461 290.644458 
L 344.257672 291.461347 
L 344.980733 290.713666 
L 345.703794 291.142603 
L 346.426856 290.927768 
L 347.149917 291.092018 
L 347.872978 291.522757 
L 348.59604 290.939366 
L 349.319101 291.382952 
L 350.042162 290.99578 
L 350.765224 291.284502 
L 351.488285 291.97508 
L 352.211346 291.1808 
L 352.934408 291.605588 
L 353.657469 291.444625 
L 354.38053 291.561333 
L 355.103592 292.266597 
L 355.826653 291.620595 
L 356.549715 292.008259 
L 357.995837 291.657301 
L 358.718899 292.459406 
L 359.44196 291.727498 
L 360.165021 292.276886 
L 360.888083 292.025221 
L 361.611144 292.119214 
L 362.334205 292.951096 
L 363.057267 292.213445 
L 363.780328 292.397223 
L 364.503389 292.164504 
L 365.226451 292.328946 
L 365.949512 293.066268 
L 366.672573 292.326648 
L 367.395635 292.664596 
L 368.118696 292.528367 
L 368.841757 292.548519 
L 369.564819 293.365618 
L 370.28788 292.592526 
L 371.010941 292.939482 
L 371.734003 292.622141 
L 372.457064 292.77828 
L 373.180126 293.588099 
L 373.903187 292.702482 
L 374.626248 293.213768 
L 375.34931 292.999488 
L 376.072371 293.206666 
L 376.795432 293.972371 
L 377.518494 293.075654 
L 378.241555 293.537623 
L 378.964616 293.152703 
L 379.687678 293.296866 
L 380.410739 294.188546 
L 381.1338 293.403178 
L 381.856862 293.816606 
L 382.579923 293.516474 
L 383.302984 293.686764 
L 384.026046 294.436474 
L 384.749107 293.710056 
L 385.472168 294.069916 
L 386.19523 293.615384 
L 386.918291 293.934592 
L 387.641353 294.638322 
L 388.364414 293.807083 
L 389.087475 294.221983 
L 389.810537 294.079612 
L 390.533598 294.212206 
L 391.256659 294.871758 
L 391.979721 293.977501 
L 392.702782 294.482207 
L 393.425843 294.182977 
L 394.148905 294.336673 
L 394.871966 295.015353 
L 395.595027 294.410065 
L 396.318089 294.69956 
L 397.04115 294.542409 
L 397.764211 294.517514 
L 398.487273 295.488 
L 398.487273 295.488 
" clip-path="url(#p6a04b34918)" style="fill: none; stroke: #dc143c; stroke-width: 2; stroke-linecap: square"/>
   </g>
   <g id="line2d_31">
    <path d="M 73.832727 246.35789 
L 76.724973 246.35789 
L 77.448034 240.970273 
L 80.340279 240.970273 
L 81.063341 238.620886 
L 83.955586 238.620886 
L 84.678647 236.646583 
L 87.570893 236.646583 
L 88.293954 235.661571 
L 91.1862 235.661571 
L 91.909261 235.157655 
L 94.801506 235.157655 
L 95.524568 234.892387 
L 98.416813 234.892387 
L 99.139874 234.687017 
L 105.647427 234.583382 
L 107.093549 234.477845 
L 112.87804 234.416995 
L 115.047224 234.363751 
L 134.569881 234.259164 
L 138.908249 234.224936 
L 174.338255 234.316687 
L 178.676623 234.35044 
L 203.260709 234.451223 
L 207.599077 234.485451 
L 246.64439 234.576726 
L 250.982758 234.599545 
L 290.02807 234.703181 
L 293.643377 234.727901 
L 305.212359 234.760228 
L 398.487273 234.86006 
L 398.487273 234.86006 
" clip-path="url(#p6a04b34918)" style="fill: none; stroke: #ffff00; stroke-width: 3; stroke-linecap: square"/>
   </g>
   <g id="patch_3">
    <path d="M 57.6 307.584 
L 57.6 41.472 
" style="fill: none; stroke: #ffffff; stroke-linejoin: miter; stroke-linecap: square"/>
   </g>
   <g id="patch_4">
    <path d="M 414.72 307.584 
L 414.72 41.472 
" style="fill: none; stroke: #ffffff; stroke-linejoin: miter; stroke-linecap: square"/>
   </g>
   <g id="patch_5">
    <path d="M 57.6 307.584 
L 414.72 307.584 
" style="fill: none; stroke: #ffffff; stroke-linejoin: miter; stroke-linecap: square"/>
   </g>
   <g id="patch_6">
    <path d="M 57.6 41.472 
L 414.72 41.472 
" style="fill: none; stroke: #ffffff; stroke-linejoin: miter; stroke-linecap: square"/>
   </g>
   <g id="legend_1">
    <g id="patch_7">
     <path d="M 243.124687 302.584 
L 407.72 302.584 
Q 409.72 302.584 409.72 300.584 
L 409.72 257.549625 
Q 409.72 255.549625 407.72 255.549625 
L 243.124687 255.549625 
Q 241.124687 255.549625 241.124687 257.549625 
L 241.124687 300.584 
Q 241.124687 302.584 243.124687 302.584 
z
" style="fill: #e5e5e5; opacity: 0.8; stroke: #cccccc; stroke-width: 0.5; stroke-linejoin: miter"/>
    </g>
    <g id="line2d_32">
     <path d="M 245.124687 263.648062 
L 255.124687 263.648062 
L 265.124687 263.648062 
" style="fill: none; stroke: #6495ed; stroke-width: 2; stroke-linecap: square"/>
    </g>
    <g id="text_17">
     <!-- Generator loss -->
     <g transform="translate(273.124687 267.148062) scale(0.1 -0.1)">
      <defs>
       <path id="DejaVuSans-47" d="M 3809 666 
L 3809 1919 
L 2778 1919 
L 2778 2438 
L 4434 2438 
L 4434 434 
Q 4069 175 3628 42 
Q 3188 -91 2688 -91 
Q 1594 -91 976 548 
Q 359 1188 359 2328 
Q 359 3472 976 4111 
Q 1594 4750 2688 4750 
Q 3144 4750 3555 4637 
Q 3966 4525 4313 4306 
L 4313 3634 
Q 3963 3931 3569 4081 
Q 3175 4231 2741 4231 
Q 1884 4231 1454 3753 
Q 1025 3275 1025 2328 
Q 1025 1384 1454 906 
Q 1884 428 2741 428 
Q 3075 428 3337 486 
Q 3600 544 3809 666 
z
" transform="scale(0.015625)"/>
       <path id="DejaVuSans-65" d="M 3597 1894 
L 3597 1613 
L 953 1613 
Q 991 1019 1311 708 
Q 1631 397 2203 397 
Q 2534 397 2845 478 
Q 3156 559 3463 722 
L 3463 178 
Q 3153 47 2828 -22 
Q 2503 -91 2169 -91 
Q 1331 -91 842 396 
Q 353 884 353 1716 
Q 353 2575 817 3079 
Q 1281 3584 2069 3584 
Q 2775 3584 3186 3129 
Q 3597 2675 3597 1894 
z
M 3022 2063 
Q 3016 2534 2758 2815 
Q 2500 3097 2075 3097 
Q 1594 3097 1305 2825 
Q 1016 2553 972 2059 
L 3022 2063 
z
" transform="scale(0.015625)"/>
       <path id="DejaVuSans-6e" d="M 3513 2113 
L 3513 0 
L 2938 0 
L 2938 2094 
Q 2938 2591 2744 2837 
Q 2550 3084 2163 3084 
Q 1697 3084 1428 2787 
Q 1159 2491 1159 1978 
L 1159 0 
L 581 0 
L 581 3500 
L 1159 3500 
L 1159 2956 
Q 1366 3272 1645 3428 
Q 1925 3584 2291 3584 
Q 2894 3584 3203 3211 
Q 3513 2838 3513 2113 
z
" transform="scale(0.015625)"/>
       <path id="DejaVuSans-72" d="M 2631 2963 
Q 2534 3019 2420 3045 
Q 2306 3072 2169 3072 
Q 1681 3072 1420 2755 
Q 1159 2438 1159 1844 
L 1159 0 
L 581 0 
L 581 3500 
L 1159 3500 
L 1159 2956 
Q 1341 3275 1631 3429 
Q 1922 3584 2338 3584 
Q 2397 3584 2469 3576 
Q 2541 3569 2628 3553 
L 2631 2963 
z
" transform="scale(0.015625)"/>
       <path id="DejaVuSans-61" d="M 2194 1759 
Q 1497 1759 1228 1600 
Q 959 1441 959 1056 
Q 959 750 1161 570 
Q 1363 391 1709 391 
Q 2188 391 2477 730 
Q 2766 1069 2766 1631 
L 2766 1759 
L 2194 1759 
z
M 3341 1997 
L 3341 0 
L 2766 0 
L 2766 531 
Q 2569 213 2275 61 
Q 1981 -91 1556 -91 
Q 1019 -91 701 211 
Q 384 513 384 1019 
Q 384 1609 779 1909 
Q 1175 2209 1959 2209 
L 2766 2209 
L 2766 2266 
Q 2766 2663 2505 2880 
Q 2244 3097 1772 3097 
Q 1472 3097 1187 3025 
Q 903 2953 641 2809 
L 641 3341 
Q 956 3463 1253 3523 
Q 1550 3584 1831 3584 
Q 2591 3584 2966 3190 
Q 3341 2797 3341 1997 
z
" transform="scale(0.015625)"/>
       <path id="DejaVuSans-74" d="M 1172 4494 
L 1172 3500 
L 2356 3500 
L 2356 3053 
L 1172 3053 
L 1172 1153 
Q 1172 725 1289 603 
Q 1406 481 1766 481 
L 2356 481 
L 2356 0 
L 1766 0 
Q 1100 0 847 248 
Q 594 497 594 1153 
L 594 3053 
L 172 3053 
L 172 3500 
L 594 3500 
L 594 4494 
L 1172 4494 
z
" transform="scale(0.015625)"/>
       <path id="DejaVuSans-20" transform="scale(0.015625)"/>
       <path id="DejaVuSans-6c" d="M 603 4863 
L 1178 4863 
L 1178 0 
L 603 0 
L 603 4863 
z
" transform="scale(0.015625)"/>
      </defs>
      <use xlink:href="#DejaVuSans-47"/>
      <use xlink:href="#DejaVuSans-65" x="77.490234"/>
      <use xlink:href="#DejaVuSans-6e" x="139.013672"/>
      <use xlink:href="#DejaVuSans-65" x="202.392578"/>
      <use xlink:href="#DejaVuSans-72" x="263.916016"/>
      <use xlink:href="#DejaVuSans-61" x="305.029297"/>
      <use xlink:href="#DejaVuSans-74" x="366.308594"/>
      <use xlink:href="#DejaVuSans-6f" x="405.517578"/>
      <use xlink:href="#DejaVuSans-72" x="466.699219"/>
      <use xlink:href="#DejaVuSans-20" x="507.8125"/>
      <use xlink:href="#DejaVuSans-6c" x="539.599609"/>
      <use xlink:href="#DejaVuSans-6f" x="567.382812"/>
      <use xlink:href="#DejaVuSans-73" x="628.564453"/>
      <use xlink:href="#DejaVuSans-73" x="680.664062"/>
     </g>
    </g>
    <g id="line2d_33">
     <path d="M 245.124687 278.326188 
L 255.124687 278.326188 
L 265.124687 278.326188 
" style="fill: none; stroke: #dc143c; stroke-width: 2; stroke-linecap: square"/>
    </g>
    <g id="text_18">
     <!-- Average discriminator loss -->
     <g transform="translate(273.124687 281.826188) scale(0.1 -0.1)">
      <defs>
       <path id="DejaVuSans-41" d="M 2188 4044 
L 1331 1722 
L 3047 1722 
L 2188 4044 
z
M 1831 4666 
L 2547 4666 
L 4325 0 
L 3669 0 
L 3244 1197 
L 1141 1197 
L 716 0 
L 50 0 
L 1831 4666 
z
" transform="scale(0.015625)"/>
       <path id="DejaVuSans-76" d="M 191 3500 
L 800 3500 
L 1894 563 
L 2988 3500 
L 3597 3500 
L 2284 0 
L 1503 0 
L 191 3500 
z
" transform="scale(0.015625)"/>
       <path id="DejaVuSans-67" d="M 2906 1791 
Q 2906 2416 2648 2759 
Q 2391 3103 1925 3103 
Q 1463 3103 1205 2759 
Q 947 2416 947 1791 
Q 947 1169 1205 825 
Q 1463 481 1925 481 
Q 2391 481 2648 825 
Q 2906 1169 2906 1791 
z
M 3481 434 
Q 3481 -459 3084 -895 
Q 2688 -1331 1869 -1331 
Q 1566 -1331 1297 -1286 
Q 1028 -1241 775 -1147 
L 775 -588 
Q 1028 -725 1275 -790 
Q 1522 -856 1778 -856 
Q 2344 -856 2625 -561 
Q 2906 -266 2906 331 
L 2906 616 
Q 2728 306 2450 153 
Q 2172 0 1784 0 
Q 1141 0 747 490 
Q 353 981 353 1791 
Q 353 2603 747 3093 
Q 1141 3584 1784 3584 
Q 2172 3584 2450 3431 
Q 2728 3278 2906 2969 
L 2906 3500 
L 3481 3500 
L 3481 434 
z
" transform="scale(0.015625)"/>
       <path id="DejaVuSans-64" d="M 2906 2969 
L 2906 4863 
L 3481 4863 
L 3481 0 
L 2906 0 
L 2906 525 
Q 2725 213 2448 61 
Q 2172 -91 1784 -91 
Q 1150 -91 751 415 
Q 353 922 353 1747 
Q 353 2572 751 3078 
Q 1150 3584 1784 3584 
Q 2172 3584 2448 3432 
Q 2725 3281 2906 2969 
z
M 947 1747 
Q 947 1113 1208 752 
Q 1469 391 1925 391 
Q 2381 391 2643 752 
Q 2906 1113 2906 1747 
Q 2906 2381 2643 2742 
Q 2381 3103 1925 3103 
Q 1469 3103 1208 2742 
Q 947 2381 947 1747 
z
" transform="scale(0.015625)"/>
       <path id="DejaVuSans-69" d="M 603 3500 
L 1178 3500 
L 1178 0 
L 603 0 
L 603 3500 
z
M 603 4863 
L 1178 4863 
L 1178 4134 
L 603 4134 
L 603 4863 
z
" transform="scale(0.015625)"/>
       <path id="DejaVuSans-6d" d="M 3328 2828 
Q 3544 3216 3844 3400 
Q 4144 3584 4550 3584 
Q 5097 3584 5394 3201 
Q 5691 2819 5691 2113 
L 5691 0 
L 5113 0 
L 5113 2094 
Q 5113 2597 4934 2840 
Q 4756 3084 4391 3084 
Q 3944 3084 3684 2787 
Q 3425 2491 3425 1978 
L 3425 0 
L 2847 0 
L 2847 2094 
Q 2847 2600 2669 2842 
Q 2491 3084 2119 3084 
Q 1678 3084 1418 2786 
Q 1159 2488 1159 1978 
L 1159 0 
L 581 0 
L 581 3500 
L 1159 3500 
L 1159 2956 
Q 1356 3278 1631 3431 
Q 1906 3584 2284 3584 
Q 2666 3584 2933 3390 
Q 3200 3197 3328 2828 
z
" transform="scale(0.015625)"/>
      </defs>
      <use xlink:href="#DejaVuSans-41"/>
      <use xlink:href="#DejaVuSans-76" x="62.533203"/>
      <use xlink:href="#DejaVuSans-65" x="121.712891"/>
      <use xlink:href="#DejaVuSans-72" x="183.236328"/>
      <use xlink:href="#DejaVuSans-61" x="224.349609"/>
      <use xlink:href="#DejaVuSans-67" x="285.628906"/>
      <use xlink:href="#DejaVuSans-65" x="349.105469"/>
      <use xlink:href="#DejaVuSans-20" x="410.628906"/>
      <use xlink:href="#DejaVuSans-64" x="442.416016"/>
      <use xlink:href="#DejaVuSans-69" x="505.892578"/>
      <use xlink:href="#DejaVuSans-73" x="533.675781"/>
      <use xlink:href="#DejaVuSans-63" x="585.775391"/>
      <use xlink:href="#DejaVuSans-72" x="640.755859"/>
      <use xlink:href="#DejaVuSans-69" x="681.869141"/>
      <use xlink:href="#DejaVuSans-6d" x="709.652344"/>
      <use xlink:href="#DejaVuSans-69" x="807.064453"/>
      <use xlink:href="#DejaVuSans-6e" x="834.847656"/>
      <use xlink:href="#DejaVuSans-61" x="898.226562"/>
      <use xlink:href="#DejaVuSans-74" x="959.505859"/>
      <use xlink:href="#DejaVuSans-6f" x="998.714844"/>
      <use xlink:href="#DejaVuSans-72" x="1059.896484"/>
      <use xlink:href="#DejaVuSans-20" x="1101.009766"/>
      <use xlink:href="#DejaVuSans-6c" x="1132.796875"/>
      <use xlink:href="#DejaVuSans-6f" x="1160.580078"/>
      <use xlink:href="#DejaVuSans-73" x="1221.761719"/>
      <use xlink:href="#DejaVuSans-73" x="1273.861328"/>
     </g>
    </g>
    <g id="line2d_34">
     <path d="M 245.124687 293.004312 
L 255.124687 293.004312 
L 265.124687 293.004312 
" style="fill: none; stroke: #ffff00; stroke-width: 3; stroke-linecap: square"/>
    </g>
    <g id="text_19">
     <!-- ROC AUC -->
     <g transform="translate(273.124687 296.504312) scale(0.1 -0.1)">
      <defs>
       <path id="DejaVuSans-52" d="M 2841 2188 
Q 3044 2119 3236 1894 
Q 3428 1669 3622 1275 
L 4263 0 
L 3584 0 
L 2988 1197 
Q 2756 1666 2539 1819 
Q 2322 1972 1947 1972 
L 1259 1972 
L 1259 0 
L 628 0 
L 628 4666 
L 2053 4666 
Q 2853 4666 3247 4331 
Q 3641 3997 3641 3322 
Q 3641 2881 3436 2590 
Q 3231 2300 2841 2188 
z
M 1259 4147 
L 1259 2491 
L 2053 2491 
Q 2509 2491 2742 2702 
Q 2975 2913 2975 3322 
Q 2975 3731 2742 3939 
Q 2509 4147 2053 4147 
L 1259 4147 
z
" transform="scale(0.015625)"/>
       <path id="DejaVuSans-4f" d="M 2522 4238 
Q 1834 4238 1429 3725 
Q 1025 3213 1025 2328 
Q 1025 1447 1429 934 
Q 1834 422 2522 422 
Q 3209 422 3611 934 
Q 4013 1447 4013 2328 
Q 4013 3213 3611 3725 
Q 3209 4238 2522 4238 
z
M 2522 4750 
Q 3503 4750 4090 4092 
Q 4678 3434 4678 2328 
Q 4678 1225 4090 567 
Q 3503 -91 2522 -91 
Q 1538 -91 948 565 
Q 359 1222 359 2328 
Q 359 3434 948 4092 
Q 1538 4750 2522 4750 
z
" transform="scale(0.015625)"/>
       <path id="DejaVuSans-43" d="M 4122 4306 
L 4122 3641 
Q 3803 3938 3442 4084 
Q 3081 4231 2675 4231 
Q 1875 4231 1450 3742 
Q 1025 3253 1025 2328 
Q 1025 1406 1450 917 
Q 1875 428 2675 428 
Q 3081 428 3442 575 
Q 3803 722 4122 1019 
L 4122 359 
Q 3791 134 3420 21 
Q 3050 -91 2638 -91 
Q 1578 -91 968 557 
Q 359 1206 359 2328 
Q 359 3453 968 4101 
Q 1578 4750 2638 4750 
Q 3056 4750 3426 4639 
Q 3797 4528 4122 4306 
z
" transform="scale(0.015625)"/>
       <path id="DejaVuSans-55" d="M 556 4666 
L 1191 4666 
L 1191 1831 
Q 1191 1081 1462 751 
Q 1734 422 2344 422 
Q 2950 422 3222 751 
Q 3494 1081 3494 1831 
L 3494 4666 
L 4128 4666 
L 4128 1753 
Q 4128 841 3676 375 
Q 3225 -91 2344 -91 
Q 1459 -91 1007 375 
Q 556 841 556 1753 
L 556 4666 
z
" transform="scale(0.015625)"/>
      </defs>
      <use xlink:href="#DejaVuSans-52"/>
      <use xlink:href="#DejaVuSans-4f" x="69.482422"/>
      <use xlink:href="#DejaVuSans-43" x="148.193359"/>
      <use xlink:href="#DejaVuSans-20" x="218.017578"/>
      <use xlink:href="#DejaVuSans-41" x="249.804688"/>
      <use xlink:href="#DejaVuSans-55" x="318.212891"/>
      <use xlink:href="#DejaVuSans-43" x="391.40625"/>
     </g>
    </g>
   </g>
  </g>
 </g>
 <defs>
  <clipPath id="p6a04b34918">
   <rect x="57.6" y="41.472" width="357.12" height="266.112"/>
  </clipPath>
 </defs>
</svg>
