<?xml version="1.0" encoding="utf-8" standalone="no"?>
<!DOCTYPE svg PUBLIC "-//W3C//DTD SVG 1.1//EN"
  "http://www.w3.org/Graphics/SVG/1.1/DTD/svg11.dtd">
<svg xmlns:xlink="http://www.w3.org/1999/xlink" width="460.8pt" height="345.6pt" viewBox="0 0 460.8 345.6" xmlns="http://www.w3.org/2000/svg" version="1.1">
 <metadata>
  <rdf:RDF xmlns:dc="http://purl.org/dc/elements/1.1/" xmlns:cc="http://creativecommons.org/ns#" xmlns:rdf="http://www.w3.org/1999/02/22-rdf-syntax-ns#">
   <cc:Work>
    <dc:type rdf:resource="http://purl.org/dc/dcmitype/StillImage"/>
    <dc:date>2023-07-09T12:52:06.183394</dc:date>
    <dc:format>image/svg+xml</dc:format>
    <dc:creator>
     <cc:Agent>
      <dc:title>Matplotlib v3.7.1, https://matplotlib.org/</dc:title>
     </cc:Agent>
    </dc:creator>
   </cc:Work>
  </rdf:RDF>
 </metadata>
 <defs>
  <style type="text/css">*{stroke-linejoin: round; stroke-linecap: butt}</style>
 </defs>
 <g id="figure_1">
  <g id="patch_1">
   <path d="M 0 345.6 
L 460.8 345.6 
L 460.8 0 
L 0 0 
z
" style="fill: #ffffff"/>
  </g>
  <g id="axes_1">
   <g id="patch_2">
    <path d="M 57.6 307.584 
L 414.72 307.584 
L 414.72 41.472 
L 57.6 41.472 
z
" style="fill: #e5e5e5"/>
   </g>
   <g id="matplotlib.axis_1">
    <g id="xtick_1">
     <g id="line2d_1">
      <path d="M 73.109666 307.584 
L 73.109666 41.472 
" clip-path="url(#pbaef0a5bcb)" style="fill: none; stroke: #ffffff; stroke-width: 0.8; stroke-linecap: square"/>
     </g>
     <g id="line2d_2">
      <defs>
       <path id="m99feceb283" d="M 0 0 
L 0 3.5 
" style="stroke: #555555; stroke-width: 0.8"/>
      </defs>
      <g>
       <use xlink:href="#m99feceb283" x="73.109666" y="307.584" style="fill: #555555; stroke: #555555; stroke-width: 0.8"/>
      </g>
     </g>
     <g id="text_1">
      <!-- 0 -->
      <g style="fill: #555555" transform="translate(69.928416 322.182437) scale(0.1 -0.1)">
       <defs>
        <path id="DejaVuSans-30" d="M 2034 4250 
Q 1547 4250 1301 3770 
Q 1056 3291 1056 2328 
Q 1056 1369 1301 889 
Q 1547 409 2034 409 
Q 2525 409 2770 889 
Q 3016 1369 3016 2328 
Q 3016 3291 2770 3770 
Q 2525 4250 2034 4250 
z
M 2034 4750 
Q 2819 4750 3233 4129 
Q 3647 3509 3647 2328 
Q 3647 1150 3233 529 
Q 2819 -91 2034 -91 
Q 1250 -91 836 529 
Q 422 1150 422 2328 
Q 422 3509 836 4129 
Q 1250 4750 2034 4750 
z
" transform="scale(0.015625)"/>
       </defs>
       <use xlink:href="#DejaVuSans-30"/>
      </g>
     </g>
    </g>
    <g id="xtick_2">
     <g id="line2d_3">
      <path d="M 145.415801 307.584 
L 145.415801 41.472 
" clip-path="url(#pbaef0a5bcb)" style="fill: none; stroke: #ffffff; stroke-width: 0.8; stroke-linecap: square"/>
     </g>
     <g id="line2d_4">
      <g>
       <use xlink:href="#m99feceb283" x="145.415801" y="307.584" style="fill: #555555; stroke: #555555; stroke-width: 0.8"/>
      </g>
     </g>
     <g id="text_2">
      <!-- 100 -->
      <g style="fill: #555555" transform="translate(135.872051 322.182437) scale(0.1 -0.1)">
       <defs>
        <path id="DejaVuSans-31" d="M 794 531 
L 1825 531 
L 1825 4091 
L 703 3866 
L 703 4441 
L 1819 4666 
L 2450 4666 
L 2450 531 
L 3481 531 
L 3481 0 
L 794 0 
L 794 531 
z
" transform="scale(0.015625)"/>
       </defs>
       <use xlink:href="#DejaVuSans-31"/>
       <use xlink:href="#DejaVuSans-30" x="63.623047"/>
       <use xlink:href="#DejaVuSans-30" x="127.246094"/>
      </g>
     </g>
    </g>
    <g id="xtick_3">
     <g id="line2d_5">
      <path d="M 217.721936 307.584 
L 217.721936 41.472 
" clip-path="url(#pbaef0a5bcb)" style="fill: none; stroke: #ffffff; stroke-width: 0.8; stroke-linecap: square"/>
     </g>
     <g id="line2d_6">
      <g>
       <use xlink:href="#m99feceb283" x="217.721936" y="307.584" style="fill: #555555; stroke: #555555; stroke-width: 0.8"/>
      </g>
     </g>
     <g id="text_3">
      <!-- 200 -->
      <g style="fill: #555555" transform="translate(208.178186 322.182437) scale(0.1 -0.1)">
       <defs>
        <path id="DejaVuSans-32" d="M 1228 531 
L 3431 531 
L 3431 0 
L 469 0 
L 469 531 
Q 828 903 1448 1529 
Q 2069 2156 2228 2338 
Q 2531 2678 2651 2914 
Q 2772 3150 2772 3378 
Q 2772 3750 2511 3984 
Q 2250 4219 1831 4219 
Q 1534 4219 1204 4116 
Q 875 4013 500 3803 
L 500 4441 
Q 881 4594 1212 4672 
Q 1544 4750 1819 4750 
Q 2544 4750 2975 4387 
Q 3406 4025 3406 3419 
Q 3406 3131 3298 2873 
Q 3191 2616 2906 2266 
Q 2828 2175 2409 1742 
Q 1991 1309 1228 531 
z
" transform="scale(0.015625)"/>
       </defs>
       <use xlink:href="#DejaVuSans-32"/>
       <use xlink:href="#DejaVuSans-30" x="63.623047"/>
       <use xlink:href="#DejaVuSans-30" x="127.246094"/>
      </g>
     </g>
    </g>
    <g id="xtick_4">
     <g id="line2d_7">
      <path d="M 290.02807 307.584 
L 290.02807 41.472 
" clip-path="url(#pbaef0a5bcb)" style="fill: none; stroke: #ffffff; stroke-width: 0.8; stroke-linecap: square"/>
     </g>
     <g id="line2d_8">
      <g>
       <use xlink:href="#m99feceb283" x="290.02807" y="307.584" style="fill: #555555; stroke: #555555; stroke-width: 0.8"/>
      </g>
     </g>
     <g id="text_4">
      <!-- 300 -->
      <g style="fill: #555555" transform="translate(280.48432 322.182437) scale(0.1 -0.1)">
       <defs>
        <path id="DejaVuSans-33" d="M 2597 2516 
Q 3050 2419 3304 2112 
Q 3559 1806 3559 1356 
Q 3559 666 3084 287 
Q 2609 -91 1734 -91 
Q 1441 -91 1130 -33 
Q 819 25 488 141 
L 488 750 
Q 750 597 1062 519 
Q 1375 441 1716 441 
Q 2309 441 2620 675 
Q 2931 909 2931 1356 
Q 2931 1769 2642 2001 
Q 2353 2234 1838 2234 
L 1294 2234 
L 1294 2753 
L 1863 2753 
Q 2328 2753 2575 2939 
Q 2822 3125 2822 3475 
Q 2822 3834 2567 4026 
Q 2313 4219 1838 4219 
Q 1578 4219 1281 4162 
Q 984 4106 628 3988 
L 628 4550 
Q 988 4650 1302 4700 
Q 1616 4750 1894 4750 
Q 2613 4750 3031 4423 
Q 3450 4097 3450 3541 
Q 3450 3153 3228 2886 
Q 3006 2619 2597 2516 
z
" transform="scale(0.015625)"/>
       </defs>
       <use xlink:href="#DejaVuSans-33"/>
       <use xlink:href="#DejaVuSans-30" x="63.623047"/>
       <use xlink:href="#DejaVuSans-30" x="127.246094"/>
      </g>
     </g>
    </g>
    <g id="xtick_5">
     <g id="line2d_9">
      <path d="M 362.334205 307.584 
L 362.334205 41.472 
" clip-path="url(#pbaef0a5bcb)" style="fill: none; stroke: #ffffff; stroke-width: 0.8; stroke-linecap: square"/>
     </g>
     <g id="line2d_10">
      <g>
       <use xlink:href="#m99feceb283" x="362.334205" y="307.584" style="fill: #555555; stroke: #555555; stroke-width: 0.8"/>
      </g>
     </g>
     <g id="text_5">
      <!-- 400 -->
      <g style="fill: #555555" transform="translate(352.790455 322.182437) scale(0.1 -0.1)">
       <defs>
        <path id="DejaVuSans-34" d="M 2419 4116 
L 825 1625 
L 2419 1625 
L 2419 4116 
z
M 2253 4666 
L 3047 4666 
L 3047 1625 
L 3713 1625 
L 3713 1100 
L 3047 1100 
L 3047 0 
L 2419 0 
L 2419 1100 
L 313 1100 
L 313 1709 
L 2253 4666 
z
" transform="scale(0.015625)"/>
       </defs>
       <use xlink:href="#DejaVuSans-34"/>
       <use xlink:href="#DejaVuSans-30" x="63.623047"/>
       <use xlink:href="#DejaVuSans-30" x="127.246094"/>
      </g>
     </g>
    </g>
    <g id="text_6">
     <!-- Epoch -->
     <g style="fill: #555555" transform="translate(217.786875 337.38025) scale(0.12 -0.12)">
      <defs>
       <path id="DejaVuSans-45" d="M 628 4666 
L 3578 4666 
L 3578 4134 
L 1259 4134 
L 1259 2753 
L 3481 2753 
L 3481 2222 
L 1259 2222 
L 1259 531 
L 3634 531 
L 3634 0 
L 628 0 
L 628 4666 
z
" transform="scale(0.015625)"/>
       <path id="DejaVuSans-70" d="M 1159 525 
L 1159 -1331 
L 581 -1331 
L 581 3500 
L 1159 3500 
L 1159 2969 
Q 1341 3281 1617 3432 
Q 1894 3584 2278 3584 
Q 2916 3584 3314 3078 
Q 3713 2572 3713 1747 
Q 3713 922 3314 415 
Q 2916 -91 2278 -91 
Q 1894 -91 1617 61 
Q 1341 213 1159 525 
z
M 3116 1747 
Q 3116 2381 2855 2742 
Q 2594 3103 2138 3103 
Q 1681 3103 1420 2742 
Q 1159 2381 1159 1747 
Q 1159 1113 1420 752 
Q 1681 391 2138 391 
Q 2594 391 2855 752 
Q 3116 1113 3116 1747 
z
" transform="scale(0.015625)"/>
       <path id="DejaVuSans-6f" d="M 1959 3097 
Q 1497 3097 1228 2736 
Q 959 2375 959 1747 
Q 959 1119 1226 758 
Q 1494 397 1959 397 
Q 2419 397 2687 759 
Q 2956 1122 2956 1747 
Q 2956 2369 2687 2733 
Q 2419 3097 1959 3097 
z
M 1959 3584 
Q 2709 3584 3137 3096 
Q 3566 2609 3566 1747 
Q 3566 888 3137 398 
Q 2709 -91 1959 -91 
Q 1206 -91 779 398 
Q 353 888 353 1747 
Q 353 2609 779 3096 
Q 1206 3584 1959 3584 
z
" transform="scale(0.015625)"/>
       <path id="DejaVuSans-63" d="M 3122 3366 
L 3122 2828 
Q 2878 2963 2633 3030 
Q 2388 3097 2138 3097 
Q 1578 3097 1268 2742 
Q 959 2388 959 1747 
Q 959 1106 1268 751 
Q 1578 397 2138 397 
Q 2388 397 2633 464 
Q 2878 531 3122 666 
L 3122 134 
Q 2881 22 2623 -34 
Q 2366 -91 2075 -91 
Q 1284 -91 818 406 
Q 353 903 353 1747 
Q 353 2603 823 3093 
Q 1294 3584 2113 3584 
Q 2378 3584 2631 3529 
Q 2884 3475 3122 3366 
z
" transform="scale(0.015625)"/>
       <path id="DejaVuSans-68" d="M 3513 2113 
L 3513 0 
L 2938 0 
L 2938 2094 
Q 2938 2591 2744 2837 
Q 2550 3084 2163 3084 
Q 1697 3084 1428 2787 
Q 1159 2491 1159 1978 
L 1159 0 
L 581 0 
L 581 4863 
L 1159 4863 
L 1159 2956 
Q 1366 3272 1645 3428 
Q 1925 3584 2291 3584 
Q 2894 3584 3203 3211 
Q 3513 2838 3513 2113 
z
" transform="scale(0.015625)"/>
      </defs>
      <use xlink:href="#DejaVuSans-45"/>
      <use xlink:href="#DejaVuSans-70" x="63.183594"/>
      <use xlink:href="#DejaVuSans-6f" x="126.660156"/>
      <use xlink:href="#DejaVuSans-63" x="187.841797"/>
      <use xlink:href="#DejaVuSans-68" x="242.822266"/>
     </g>
    </g>
   </g>
   <g id="matplotlib.axis_2">
    <g id="ytick_1">
     <g id="line2d_11">
      <path d="M 57.6 267.36114 
L 414.72 267.36114 
" clip-path="url(#pbaef0a5bcb)" style="fill: none; stroke: #ffffff; stroke-width: 0.8; stroke-linecap: square"/>
     </g>
     <g id="line2d_12">
      <defs>
       <path id="mad37f1e172" d="M 0 0 
L -3.5 0 
" style="stroke: #555555; stroke-width: 0.8"/>
      </defs>
      <g>
       <use xlink:href="#mad37f1e172" x="57.6" y="267.36114" style="fill: #555555; stroke: #555555; stroke-width: 0.8"/>
      </g>
     </g>
     <g id="text_7">
      <!-- 0.5 -->
      <g style="fill: #555555" transform="translate(34.696875 271.160359) scale(0.1 -0.1)">
       <defs>
        <path id="DejaVuSans-2e" d="M 684 794 
L 1344 794 
L 1344 0 
L 684 0 
L 684 794 
z
" transform="scale(0.015625)"/>
        <path id="DejaVuSans-35" d="M 691 4666 
L 3169 4666 
L 3169 4134 
L 1269 4134 
L 1269 2991 
Q 1406 3038 1543 3061 
Q 1681 3084 1819 3084 
Q 2600 3084 3056 2656 
Q 3513 2228 3513 1497 
Q 3513 744 3044 326 
Q 2575 -91 1722 -91 
Q 1428 -91 1123 -41 
Q 819 9 494 109 
L 494 744 
Q 775 591 1075 516 
Q 1375 441 1709 441 
Q 2250 441 2565 725 
Q 2881 1009 2881 1497 
Q 2881 1984 2565 2268 
Q 2250 2553 1709 2553 
Q 1456 2553 1204 2497 
Q 953 2441 691 2322 
L 691 4666 
z
" transform="scale(0.015625)"/>
       </defs>
       <use xlink:href="#DejaVuSans-30"/>
       <use xlink:href="#DejaVuSans-2e" x="63.623047"/>
       <use xlink:href="#DejaVuSans-35" x="95.410156"/>
      </g>
     </g>
    </g>
    <g id="ytick_2">
     <g id="line2d_13">
      <path d="M 57.6 214.26295 
L 414.72 214.26295 
" clip-path="url(#pbaef0a5bcb)" style="fill: none; stroke: #ffffff; stroke-width: 0.8; stroke-linecap: square"/>
     </g>
     <g id="line2d_14">
      <g>
       <use xlink:href="#mad37f1e172" x="57.6" y="214.26295" style="fill: #555555; stroke: #555555; stroke-width: 0.8"/>
      </g>
     </g>
     <g id="text_8">
      <!-- 1.0 -->
      <g style="fill: #555555" transform="translate(34.696875 218.062169) scale(0.1 -0.1)">
       <use xlink:href="#DejaVuSans-31"/>
       <use xlink:href="#DejaVuSans-2e" x="63.623047"/>
       <use xlink:href="#DejaVuSans-30" x="95.410156"/>
      </g>
     </g>
    </g>
    <g id="ytick_3">
     <g id="line2d_15">
      <path d="M 57.6 161.16476 
L 414.72 161.16476 
" clip-path="url(#pbaef0a5bcb)" style="fill: none; stroke: #ffffff; stroke-width: 0.8; stroke-linecap: square"/>
     </g>
     <g id="line2d_16">
      <g>
       <use xlink:href="#mad37f1e172" x="57.6" y="161.16476" style="fill: #555555; stroke: #555555; stroke-width: 0.8"/>
      </g>
     </g>
     <g id="text_9">
      <!-- 1.5 -->
      <g style="fill: #555555" transform="translate(34.696875 164.963978) scale(0.1 -0.1)">
       <use xlink:href="#DejaVuSans-31"/>
       <use xlink:href="#DejaVuSans-2e" x="63.623047"/>
       <use xlink:href="#DejaVuSans-35" x="95.410156"/>
      </g>
     </g>
    </g>
    <g id="ytick_4">
     <g id="line2d_17">
      <path d="M 57.6 108.066569 
L 414.72 108.066569 
" clip-path="url(#pbaef0a5bcb)" style="fill: none; stroke: #ffffff; stroke-width: 0.8; stroke-linecap: square"/>
     </g>
     <g id="line2d_18">
      <g>
       <use xlink:href="#mad37f1e172" x="57.6" y="108.066569" style="fill: #555555; stroke: #555555; stroke-width: 0.8"/>
      </g>
     </g>
     <g id="text_10">
      <!-- 2.0 -->
      <g style="fill: #555555" transform="translate(34.696875 111.865788) scale(0.1 -0.1)">
       <use xlink:href="#DejaVuSans-32"/>
       <use xlink:href="#DejaVuSans-2e" x="63.623047"/>
       <use xlink:href="#DejaVuSans-30" x="95.410156"/>
      </g>
     </g>
    </g>
    <g id="ytick_5">
     <g id="line2d_19">
      <path d="M 57.6 54.968379 
L 414.72 54.968379 
" clip-path="url(#pbaef0a5bcb)" style="fill: none; stroke: #ffffff; stroke-width: 0.8; stroke-linecap: square"/>
     </g>
     <g id="line2d_20">
      <g>
       <use xlink:href="#mad37f1e172" x="57.6" y="54.968379" style="fill: #555555; stroke: #555555; stroke-width: 0.8"/>
      </g>
     </g>
     <g id="text_11">
      <!-- 2.5 -->
      <g style="fill: #555555" transform="translate(34.696875 58.767598) scale(0.1 -0.1)">
       <use xlink:href="#DejaVuSans-32"/>
       <use xlink:href="#DejaVuSans-2e" x="63.623047"/>
       <use xlink:href="#DejaVuSans-35" x="95.410156"/>
      </g>
     </g>
    </g>
    <g id="text_12">
     <!-- Loss -->
     <g style="fill: #555555" transform="translate(28.20125 187.688625) rotate(-90) scale(0.12 -0.12)">
      <defs>
       <path id="DejaVuSans-4c" d="M 628 4666 
L 1259 4666 
L 1259 531 
L 3531 531 
L 3531 0 
L 628 0 
L 628 4666 
z
" transform="scale(0.015625)"/>
       <path id="DejaVuSans-73" d="M 2834 3397 
L 2834 2853 
Q 2591 2978 2328 3040 
Q 2066 3103 1784 3103 
Q 1356 3103 1142 2972 
Q 928 2841 928 2578 
Q 928 2378 1081 2264 
Q 1234 2150 1697 2047 
L 1894 2003 
Q 2506 1872 2764 1633 
Q 3022 1394 3022 966 
Q 3022 478 2636 193 
Q 2250 -91 1575 -91 
Q 1294 -91 989 -36 
Q 684 19 347 128 
L 347 722 
Q 666 556 975 473 
Q 1284 391 1588 391 
Q 1994 391 2212 530 
Q 2431 669 2431 922 
Q 2431 1156 2273 1281 
Q 2116 1406 1581 1522 
L 1381 1569 
Q 847 1681 609 1914 
Q 372 2147 372 2553 
Q 372 3047 722 3315 
Q 1072 3584 1716 3584 
Q 2034 3584 2315 3537 
Q 2597 3491 2834 3397 
z
" transform="scale(0.015625)"/>
      </defs>
      <use xlink:href="#DejaVuSans-4c"/>
      <use xlink:href="#DejaVuSans-6f" x="53.962891"/>
      <use xlink:href="#DejaVuSans-73" x="115.144531"/>
      <use xlink:href="#DejaVuSans-73" x="167.244141"/>
     </g>
    </g>
   </g>
   <g id="line2d_21">
    <path d="M 73.832727 237.613548 
L 75.27885 234.559364 
L 78.894157 227.641939 
L 79.617218 226.965347 
L 80.340279 225.621981 
L 81.063341 223.754887 
L 81.786402 222.919353 
L 82.509463 221.279638 
L 83.232525 220.110904 
L 83.955586 219.172746 
L 87.570893 212.800767 
L 88.293954 211.881073 
L 89.017016 210.520407 
L 89.740077 209.609498 
L 90.463138 208.074611 
L 91.1862 207.191376 
L 92.632322 204.935221 
L 93.355384 204.352399 
L 94.078445 202.396896 
L 94.801506 201.742256 
L 96.247629 200.008524 
L 98.416813 196.599182 
L 99.862936 195.038494 
L 100.585997 194.428909 
L 101.309059 193.02415 
L 102.03212 192.452101 
L 102.755181 190.838471 
L 103.478243 190.788313 
L 104.201304 189.381275 
L 104.924365 188.579771 
L 106.370488 187.687143 
L 107.093549 186.632422 
L 107.816611 185.776165 
L 108.539672 185.148755 
L 109.262733 183.723918 
L 111.431917 182.087943 
L 112.154979 180.926464 
L 112.87804 180.686007 
L 113.601101 180.6567 
L 115.047224 177.827217 
L 116.493347 177.349027 
L 117.216408 176.583843 
L 117.93947 176.121565 
L 118.662531 174.993456 
L 119.385592 174.167962 
L 120.108654 173.600115 
L 120.831715 173.451618 
L 121.554776 172.863251 
L 123.000899 172.127146 
L 123.72396 170.750744 
L 124.447022 170.716133 
L 125.170083 170.039744 
L 125.893144 169.913894 
L 126.616206 169.142204 
L 127.339267 168.695497 
L 128.062328 168.014727 
L 128.78539 168.176656 
L 130.231512 167.305068 
L 130.954574 165.947441 
L 131.677635 165.943554 
L 132.400696 165.695464 
L 133.123758 164.653947 
L 133.846819 164.56357 
L 134.569881 163.670524 
L 135.292942 164.27245 
L 136.016003 162.940534 
L 136.739065 163.094601 
L 138.185187 162.480104 
L 138.908249 162.437264 
L 139.63131 161.514127 
L 140.354371 161.740227 
L 141.077433 160.907365 
L 141.800494 160.755753 
L 142.523555 159.880735 
L 143.246617 160.355609 
L 143.969678 159.052114 
L 144.692739 159.785408 
L 145.415801 158.616649 
L 146.138862 158.541438 
L 146.861923 159.023111 
L 147.584985 158.44872 
L 148.308046 158.196882 
L 149.031108 157.738326 
L 149.754169 158.305375 
L 150.47723 157.246691 
L 151.200292 157.451384 
L 152.646414 155.529062 
L 154.092537 157.297874 
L 154.815598 156.226467 
L 155.53866 154.279371 
L 156.261721 156.028104 
L 156.984782 156.258724 
L 157.707844 155.382629 
L 158.430905 155.862643 
L 159.153966 154.624256 
L 159.877028 154.404485 
L 160.600089 155.314482 
L 161.32315 154.341377 
L 162.046212 154.228302 
L 162.769273 154.002708 
L 163.492334 154.336832 
L 164.215396 153.700055 
L 164.938457 154.878815 
L 165.661519 153.923636 
L 166.38458 153.326685 
L 167.107641 154.054751 
L 168.553764 153.325078 
L 169.276825 153.232992 
L 170.722948 152.599164 
L 171.446009 151.892961 
L 172.169071 151.73226 
L 172.892132 153.003891 
L 173.615193 152.48248 
L 174.338255 152.533207 
L 175.061316 152.272103 
L 175.784377 152.745812 
L 176.507439 151.589333 
L 177.2305 152.619292 
L 177.953561 151.875883 
L 178.676623 153.338763 
L 179.399684 152.91835 
L 180.122745 151.975945 
L 180.845807 151.85583 
L 181.568868 152.271723 
L 182.29193 151.831131 
L 183.014991 152.197424 
L 183.738052 151.67452 
L 184.461114 150.596226 
L 185.184175 149.728601 
L 185.907236 149.475409 
L 186.630298 149.765465 
L 187.353359 148.198068 
L 188.07642 148.249226 
L 188.799482 148.428751 
L 190.245604 147.994312 
L 190.968666 146.075674 
L 191.691727 146.769129 
L 192.414788 144.623024 
L 193.13785 145.425503 
L 193.860911 144.478299 
L 194.583972 143.728358 
L 195.307034 143.186413 
L 196.030095 142.171974 
L 196.753157 142.187292 
L 197.476218 141.500585 
L 198.199279 141.147522 
L 198.922341 141.74841 
L 199.645402 140.802675 
L 200.368463 140.053315 
L 201.091525 138.837171 
L 201.814586 139.031876 
L 202.537647 138.979781 
L 203.260709 138.265717 
L 203.98377 138.452509 
L 204.706831 138.260438 
L 205.429893 136.350282 
L 206.152954 136.938941 
L 206.876015 136.409289 
L 207.599077 134.979501 
L 208.322138 134.262373 
L 209.045199 136.373348 
L 209.768261 134.987705 
L 210.491322 134.328988 
L 211.214383 133.440259 
L 211.937445 132.340254 
L 213.383568 131.416268 
L 214.106629 130.616891 
L 214.82969 131.160671 
L 216.275813 131.465388 
L 216.998874 130.643919 
L 217.721936 130.171564 
L 218.444997 128.942204 
L 219.168058 128.738865 
L 219.89112 128.169715 
L 220.614181 126.72047 
L 221.337242 126.862574 
L 222.060304 127.649064 
L 222.783365 126.735155 
L 223.506426 126.395536 
L 224.229488 125.622946 
L 224.952549 126.0129 
L 225.67561 125.653405 
L 226.398672 124.079501 
L 227.121733 124.6604 
L 227.844794 124.838444 
L 228.567856 123.20647 
L 229.290917 123.17291 
L 230.73704 121.773873 
L 232.183163 122.414435 
L 232.906224 122.195817 
L 233.629285 120.100578 
L 234.352347 120.692958 
L 235.075408 119.645554 
L 235.798469 119.702826 
L 236.521531 118.454514 
L 237.967653 118.62219 
L 238.690715 118.302586 
L 239.413776 116.717921 
L 240.136837 116.787056 
L 240.859899 117.116863 
L 242.306021 115.545453 
L 243.752144 116.412154 
L 244.475206 113.876134 
L 245.198267 114.250465 
L 245.921328 114.406634 
L 246.64439 115.966878 
L 247.367451 113.519741 
L 248.090512 113.102974 
L 248.813574 113.377042 
L 249.536635 111.649121 
L 250.259696 111.865309 
L 250.982758 111.066514 
L 251.705819 111.701126 
L 253.151942 110.891064 
L 253.875003 110.545875 
L 254.598064 110.80527 
L 255.321126 109.774374 
L 256.044187 109.508231 
L 256.767248 108.60883 
L 257.49031 108.598931 
L 258.213371 108.743073 
L 258.936432 107.872371 
L 259.659494 107.990511 
L 260.382555 107.602291 
L 261.105617 107.908603 
L 261.828678 106.28025 
L 262.551739 106.619147 
L 263.274801 106.490045 
L 263.997862 105.511762 
L 265.443985 105.393698 
L 266.167046 103.383304 
L 266.890107 103.593175 
L 267.613169 103.173484 
L 268.33623 104.417163 
L 269.059291 103.466376 
L 269.782353 103.242276 
L 270.505414 101.824959 
L 271.228475 102.528326 
L 271.951537 101.182332 
L 272.674598 102.241738 
L 273.397659 101.99599 
L 274.120721 100.428048 
L 274.843782 99.800816 
L 275.566843 99.394468 
L 276.289905 100.180275 
L 277.012966 100.143992 
L 277.736028 99.810361 
L 278.459089 99.318257 
L 279.18215 98.597597 
L 279.905212 99.644293 
L 280.628273 98.61684 
L 281.351334 98.871956 
L 282.074396 97.758469 
L 282.797457 97.303812 
L 283.520518 96.704482 
L 284.24358 94.749663 
L 284.966641 95.580841 
L 285.689702 96.735776 
L 286.412764 95.384238 
L 287.135825 95.145427 
L 288.581948 93.882557 
L 289.305009 94.951305 
L 290.751132 94.261661 
L 291.474193 93.243095 
L 292.197255 92.812897 
L 292.920316 92.90083 
L 293.643377 93.410075 
L 294.366439 92.569782 
L 295.0895 92.112973 
L 295.812561 92.250557 
L 296.535623 90.852229 
L 297.258684 90.0091 
L 297.981745 90.877397 
L 298.704807 92.498204 
L 299.427868 90.943024 
L 300.150929 90.703428 
L 302.320113 88.52813 
L 303.043175 88.149406 
L 303.766236 88.506533 
L 304.489297 87.402869 
L 305.212359 88.384646 
L 305.93542 87.232674 
L 306.658481 87.265918 
L 307.381543 87.548353 
L 308.104604 87.182998 
L 308.827666 84.899257 
L 309.550727 87.517439 
L 310.273788 85.999832 
L 310.99685 88.216628 
L 311.719911 84.728327 
L 312.442972 83.703533 
L 313.166034 83.480193 
L 313.889095 83.505512 
L 314.612156 84.385708 
L 315.335218 84.106918 
L 316.058279 83.348052 
L 316.78134 83.835851 
L 317.504402 82.465906 
L 318.227463 82.407925 
L 318.950524 83.170589 
L 319.673586 83.294856 
L 320.396647 80.746935 
L 321.119708 82.73315 
L 321.84277 80.694119 
L 322.565831 81.124394 
L 323.288892 80.298634 
L 324.011954 80.744251 
L 324.735015 81.562036 
L 325.458077 80.384289 
L 326.181138 77.500509 
L 326.904199 80.411228 
L 327.627261 79.103973 
L 328.350322 79.310654 
L 329.073383 78.915674 
L 329.796445 77.633029 
L 330.519506 76.779114 
L 331.242567 78.75196 
L 332.68869 78.539836 
L 333.411751 77.639258 
L 334.134813 77.602621 
L 334.857874 77.876954 
L 335.580935 77.126544 
L 336.303997 76.09061 
L 337.027058 76.901837 
L 337.750119 76.102383 
L 338.473181 76.140033 
L 339.196242 75.855445 
L 339.919304 73.611 
L 340.642365 74.811687 
L 341.365426 71.465579 
L 342.088488 73.017696 
L 342.811549 76.121828 
L 343.53461 73.940732 
L 344.257672 74.291555 
L 344.980733 74.008182 
L 345.703794 72.689863 
L 346.426856 72.622286 
L 347.149917 71.100349 
L 349.319101 71.874686 
L 350.042162 69.835073 
L 350.765224 72.626084 
L 351.488285 70.586547 
L 352.211346 72.084785 
L 352.934408 69.720023 
L 353.657469 71.014872 
L 354.38053 68.476218 
L 355.103592 70.402932 
L 355.826653 71.205095 
L 356.549715 70.144752 
L 357.272776 67.484237 
L 357.995837 68.083846 
L 358.718899 66.458025 
L 359.44196 69.150873 
L 360.165021 68.328354 
L 360.888083 68.421402 
L 361.611144 68.125825 
L 362.334205 67.518975 
L 363.057267 68.361674 
L 363.780328 66.919265 
L 364.503389 68.340811 
L 365.226451 65.28876 
L 365.949512 65.481464 
L 366.672573 67.238514 
L 368.118696 64.591089 
L 368.841757 65.944197 
L 369.564819 64.707532 
L 370.28788 65.549041 
L 371.010941 62.478912 
L 371.734003 64.165904 
L 372.457064 63.903774 
L 373.180126 64.801998 
L 373.903187 63.526898 
L 374.626248 64.158283 
L 375.34931 64.348253 
L 376.072371 62.320312 
L 376.795432 61.478449 
L 377.518494 62.657969 
L 378.241555 62.960331 
L 378.964616 62.194932 
L 379.687678 62.493673 
L 381.1338 61.333244 
L 381.856862 60.705581 
L 382.579923 59.886606 
L 383.302984 60.968698 
L 384.026046 60.265533 
L 384.749107 61.19014 
L 385.472168 57.964424 
L 386.19523 58.884169 
L 386.918291 60.762726 
L 387.641353 58.21592 
L 388.364414 59.089812 
L 389.087475 59.586473 
L 389.810537 56.815743 
L 391.256659 57.865502 
L 391.979721 58.284661 
L 392.702782 57.602866 
L 393.425843 60.948139 
L 394.148905 57.804306 
L 394.871966 55.666708 
L 395.595027 58.076411 
L 396.318089 56.482568 
L 397.04115 55.194783 
L 397.764211 55.376474 
L 398.487273 53.568 
L 398.487273 53.568 
" clip-path="url(#pbaef0a5bcb)" style="fill: none; stroke: #6495ed; stroke-width: 2; stroke-linecap: square"/>
   </g>
   <g id="line2d_22">
    <path d="M 73.832727 249.193149 
L 75.27885 250.584441 
L 76.001911 251.100714 
L 76.724973 251.852313 
L 77.448034 252.20532 
L 78.894157 253.403684 
L 79.617218 253.631077 
L 81.063341 254.833808 
L 81.786402 255.209407 
L 82.509463 255.742696 
L 83.232525 256.090557 
L 83.955586 256.577567 
L 84.678647 256.876506 
L 87.570893 258.652542 
L 88.293954 258.772227 
L 89.017016 259.240695 
L 89.740077 259.486406 
L 91.1862 260.340871 
L 91.909261 260.491967 
L 92.632322 260.866825 
L 93.355384 261.007938 
L 94.801506 261.875887 
L 95.524568 261.883464 
L 98.416813 263.245636 
L 99.139874 263.188624 
L 99.862936 263.487331 
L 100.585997 263.615749 
L 102.755181 264.420024 
L 103.478243 264.556155 
L 104.201304 264.841841 
L 104.924365 264.992646 
L 105.647427 265.371235 
L 106.370488 265.209077 
L 107.093549 265.550457 
L 108.539672 265.82975 
L 109.262733 266.415015 
L 109.985795 266.241282 
L 110.708856 266.469098 
L 112.154979 266.792765 
L 112.87804 267.160659 
L 113.601101 266.860843 
L 114.324163 267.28758 
L 115.047224 267.511639 
L 115.770285 267.550179 
L 116.493347 267.960553 
L 117.216408 267.755379 
L 118.662531 268.171777 
L 119.385592 268.320969 
L 120.108654 268.790376 
L 120.831715 268.456552 
L 121.554776 268.736824 
L 123.000899 268.845926 
L 123.72396 269.441528 
L 124.447022 269.079537 
L 125.170083 269.38591 
L 125.893144 269.374402 
L 126.616206 269.513862 
L 127.339267 269.975915 
L 128.062328 269.688488 
L 128.78539 269.863922 
L 130.231512 269.985419 
L 130.954574 270.600999 
L 131.677635 270.198953 
L 132.400696 270.44928 
L 133.846819 270.585756 
L 134.569881 271.156066 
L 135.292942 270.635403 
L 136.016003 271.039056 
L 136.739065 270.988563 
L 137.462126 271.054295 
L 138.185187 271.525176 
L 138.908249 271.094686 
L 139.63131 271.459603 
L 140.354371 271.390249 
L 141.077433 271.514043 
L 141.800494 271.985791 
L 142.523555 271.652957 
L 143.969678 271.963342 
L 144.692739 271.87802 
L 145.415801 272.492867 
L 146.138862 272.05369 
L 146.861923 272.21665 
L 148.308046 272.300009 
L 149.031108 272.827752 
L 149.754169 272.270498 
L 150.47723 272.660505 
L 151.200292 272.58139 
L 151.923353 272.750763 
L 152.646414 273.359113 
L 153.369476 272.716364 
L 155.53866 273.23975 
L 156.261721 273.495036 
L 156.984782 272.937865 
L 157.707844 273.317443 
L 158.430905 273.198525 
L 159.153966 273.389908 
L 159.877028 273.928398 
L 160.600089 273.267595 
L 161.32315 273.652429 
L 162.769273 273.671624 
L 163.492334 274.136265 
L 164.215396 273.685471 
L 166.38458 273.965833 
L 167.107641 274.398115 
L 167.830703 273.895718 
L 168.553764 274.204148 
L 169.276825 274.149206 
L 169.999887 274.217764 
L 170.722948 274.809371 
L 171.446009 274.324051 
L 172.169071 274.632304 
L 172.892132 274.383972 
L 173.615193 274.492931 
L 174.338255 275.010641 
L 175.061316 274.481571 
L 175.784377 274.701943 
L 176.507439 274.766535 
L 177.2305 274.65211 
L 177.953561 275.31976 
L 178.676623 274.51514 
L 179.399684 274.853718 
L 180.845807 274.974866 
L 181.568868 275.462941 
L 182.29193 274.923094 
L 183.014991 275.140778 
L 183.738052 275.154089 
L 184.461114 275.333016 
L 185.184175 275.980717 
L 185.907236 275.416853 
L 186.630298 275.662152 
L 188.07642 275.813727 
L 188.799482 276.350788 
L 189.522543 275.736028 
L 190.245604 276.06667 
L 190.968666 276.22711 
L 191.691727 276.175724 
L 192.414788 277.021562 
L 193.13785 276.272626 
L 193.860911 276.701088 
L 195.307034 276.808843 
L 196.030095 277.521325 
L 196.753157 276.855138 
L 197.476218 277.239389 
L 198.922341 277.167822 
L 199.645402 277.880902 
L 200.368463 277.297258 
L 201.091525 277.749129 
L 201.814586 277.647089 
L 202.537647 277.68221 
L 203.260709 278.372584 
L 203.98377 277.675221 
L 204.706831 278.022904 
L 205.429893 278.140244 
L 206.152954 278.12756 
L 206.876015 278.784731 
L 207.599077 278.27495 
L 208.322138 278.654593 
L 209.045199 278.330429 
L 209.768261 278.530322 
L 210.491322 279.228597 
L 211.214383 278.626641 
L 211.937445 279.067205 
L 212.660506 279.0256 
L 213.383568 279.12459 
L 214.106629 279.819012 
L 214.82969 279.054787 
L 215.552752 279.37986 
L 216.275813 279.266216 
L 216.998874 279.401951 
L 217.721936 280.095592 
L 218.444997 279.500433 
L 219.168058 279.848444 
L 219.89112 279.810101 
L 220.614181 280.017058 
L 221.337242 280.644061 
L 222.060304 279.823074 
L 222.783365 280.262932 
L 223.506426 280.21075 
L 224.229488 280.330704 
L 224.952549 280.940376 
L 225.67561 280.226641 
L 226.398672 280.74391 
L 227.121733 280.582242 
L 227.844794 280.598184 
L 228.567856 281.42636 
L 229.290917 280.679186 
L 230.013979 281.094515 
L 231.460101 281.080863 
L 232.183163 281.716974 
L 232.906224 280.978138 
L 233.629285 281.523086 
L 234.352347 281.381539 
L 235.075408 281.534902 
L 235.798469 282.199135 
L 236.521531 281.531579 
L 237.244592 281.889488 
L 237.967653 281.770689 
L 238.690715 281.848958 
L 239.413776 282.674758 
L 240.136837 281.891671 
L 240.859899 282.237281 
L 241.58296 282.19735 
L 242.306021 282.318396 
L 243.029083 282.939909 
L 243.752144 282.144293 
L 244.475206 282.723018 
L 245.198267 282.592499 
L 245.921328 282.636141 
L 246.64439 283.177253 
L 247.367451 282.60847 
L 248.090512 283.010758 
L 248.813574 282.877401 
L 249.536635 283.073433 
L 250.259696 283.75658 
L 250.982758 283.016585 
L 251.705819 283.331329 
L 252.42888 283.26324 
L 253.151942 283.346102 
L 253.875003 284.056534 
L 254.598064 283.248701 
L 255.321126 283.696392 
L 256.044187 283.625758 
L 256.767248 283.740452 
L 257.49031 284.443971 
L 258.213371 283.637561 
L 258.936432 284.073614 
L 259.659494 283.967856 
L 260.382555 284.036644 
L 261.105617 284.725615 
L 261.828678 284.034942 
L 262.551739 284.385327 
L 263.274801 284.289913 
L 263.997862 284.405732 
L 264.720923 285.125015 
L 265.443985 284.321659 
L 266.167046 284.862497 
L 266.890107 284.72426 
L 267.613169 284.808527 
L 268.33623 285.43637 
L 269.059291 284.694754 
L 269.782353 285.093666 
L 271.228475 285.068812 
L 271.951537 285.888081 
L 272.674598 284.989284 
L 273.397659 285.38551 
L 274.120721 285.383031 
L 274.843782 285.492924 
L 275.566843 286.23451 
L 276.289905 285.33584 
L 277.012966 285.737731 
L 277.736028 285.628551 
L 278.459089 285.736955 
L 279.18215 286.508111 
L 279.905212 285.590766 
L 280.628273 286.069092 
L 281.351334 285.935685 
L 282.074396 286.056428 
L 282.797457 286.818991 
L 283.520518 286.028967 
L 284.24358 286.545561 
L 284.966641 286.361477 
L 285.689702 286.359663 
L 286.412764 287.159208 
L 287.135825 286.334238 
L 287.858886 286.768813 
L 289.305009 286.667878 
L 290.02807 287.432219 
L 290.751132 286.612771 
L 291.474193 287.071617 
L 292.197255 286.986483 
L 292.920316 287.022506 
L 293.643377 287.711342 
L 294.366439 286.919455 
L 295.0895 287.351272 
L 295.812561 287.213198 
L 296.535623 287.378555 
L 297.258684 288.153324 
L 297.981745 287.249104 
L 298.704807 287.551091 
L 299.427868 287.517758 
L 300.150929 287.598571 
L 300.873991 288.356202 
L 301.597052 287.558606 
L 302.320113 288.00924 
L 303.043175 287.888096 
L 303.766236 287.930417 
L 304.489297 288.756015 
L 305.212359 287.803422 
L 305.93542 288.305635 
L 306.658481 288.164593 
L 307.381543 288.196055 
L 308.104604 288.962352 
L 308.827666 288.245899 
L 309.550727 288.491394 
L 310.99685 288.35085 
L 311.719911 289.300708 
L 312.442972 288.511514 
L 313.166034 288.941218 
L 313.889095 288.800475 
L 314.612156 288.818505 
L 315.335218 289.563523 
L 316.058279 288.738781 
L 316.78134 289.112978 
L 318.227463 289.137471 
L 318.950524 289.812032 
L 319.673586 288.961786 
L 320.396647 289.514932 
L 321.119708 289.274001 
L 321.84277 289.453701 
L 322.565831 290.151338 
L 323.288892 289.327821 
L 324.011954 289.725334 
L 324.735015 289.52991 
L 325.458077 289.66464 
L 326.181138 290.577066 
L 326.904199 289.521813 
L 327.627261 290.007206 
L 328.350322 289.866987 
L 329.073383 289.93762 
L 329.796445 290.776291 
L 330.519506 289.937687 
L 331.242567 290.234722 
L 331.965629 290.078793 
L 332.68869 290.165876 
L 333.411751 290.964592 
L 334.134813 290.08246 
L 334.857874 290.459309 
L 335.580935 290.376408 
L 336.303997 290.514174 
L 337.027058 291.189103 
L 337.750119 290.354776 
L 338.473181 290.764214 
L 339.196242 290.635065 
L 339.919304 290.844869 
L 340.642365 291.487424 
L 341.365426 290.817424 
L 342.088488 291.144869 
L 342.811549 290.798367 
L 343.53461 291.01621 
L 344.257672 291.716966 
L 344.980733 290.848783 
L 345.703794 291.350623 
L 346.426856 291.196456 
L 347.149917 291.355684 
L 347.872978 292.06898 
L 348.59604 291.190207 
L 349.319101 291.598132 
L 350.765224 291.457662 
L 351.488285 292.315225 
L 352.211346 291.345779 
L 352.934408 291.892484 
L 353.657469 291.675809 
L 354.38053 291.868441 
L 355.103592 292.504736 
L 355.826653 291.594552 
L 356.549715 292.062139 
L 357.995837 292.093344 
L 358.718899 292.924215 
L 359.44196 291.879569 
L 360.165021 292.350813 
L 360.888083 292.195334 
L 361.611144 292.272302 
L 362.334205 293.045047 
L 363.057267 292.103144 
L 363.780328 292.607481 
L 364.503389 292.367099 
L 365.226451 292.611539 
L 365.949512 293.33337 
L 366.672573 292.341715 
L 367.395635 292.849723 
L 368.118696 292.746419 
L 368.841757 292.761966 
L 369.564819 293.547213 
L 370.28788 292.595701 
L 371.010941 293.208961 
L 371.734003 292.961255 
L 372.457064 293.051606 
L 373.180126 293.734163 
L 373.903187 292.911663 
L 374.626248 293.276123 
L 375.34931 293.132418 
L 376.072371 293.304397 
L 376.795432 294.091927 
L 377.518494 293.140193 
L 378.241555 293.526071 
L 378.964616 293.400017 
L 379.687678 293.46612 
L 380.410739 294.218517 
L 381.1338 293.347363 
L 381.856862 293.834886 
L 382.579923 293.685291 
L 383.302984 293.736152 
L 384.026046 294.496016 
L 384.749107 293.571323 
L 385.472168 294.16122 
L 386.19523 293.940134 
L 386.918291 293.90258 
L 387.641353 294.767738 
L 388.364414 293.832069 
L 389.087475 294.232969 
L 390.533598 294.24082 
L 391.256659 294.949519 
L 391.979721 294.054467 
L 392.702782 294.506236 
L 393.425843 294.191309 
L 394.148905 294.436826 
L 394.871966 295.240393 
L 395.595027 294.216283 
L 396.318089 294.737951 
L 397.04115 294.630535 
L 397.764211 294.684104 
L 398.487273 295.488 
L 398.487273 295.488 
" clip-path="url(#pbaef0a5bcb)" style="fill: none; stroke: #dc143c; stroke-width: 2; stroke-linecap: square"/>
   </g>
   <g id="line2d_23">
    <path d="M 73.832727 267.190637 
L 76.724973 267.190637 
L 77.448034 258.414247 
L 80.340279 258.414247 
L 81.063341 252.882773 
L 83.955586 252.882773 
L 84.678647 249.403929 
L 87.570893 249.403929 
L 88.293954 247.263989 
L 91.1862 247.263989 
L 91.909261 245.948148 
L 94.801506 245.948148 
L 95.524568 244.981139 
L 98.416813 244.981139 
L 99.139874 244.27318 
L 102.03212 244.27318 
L 102.755181 243.772378 
L 105.647427 243.772378 
L 106.370488 243.326351 
L 109.262733 243.326351 
L 109.985795 242.990699 
L 112.87804 242.990699 
L 113.601101 242.690053 
L 116.493347 242.690053 
L 117.216408 242.45036 
L 120.108654 242.45036 
L 120.831715 242.248556 
L 123.72396 242.248556 
L 124.447022 242.068992 
L 127.339267 242.068992 
L 128.062328 241.910021 
L 130.954574 241.910021 
L 131.677635 241.759286 
L 134.569881 241.759286 
L 135.292942 241.632438 
L 138.185187 241.632438 
L 138.908249 241.504766 
L 145.415801 241.403453 
L 146.861923 241.304198 
L 152.646414 241.216476 
L 154.092537 241.129165 
L 159.877028 241.049267 
L 161.32315 240.988314 
L 167.107641 240.910064 
L 168.553764 240.849935 
L 177.953561 240.755211 
L 180.122745 240.716497 
L 188.799482 240.632481 
L 191.691727 240.599534 
L 206.876015 240.490807 
L 209.768261 240.461978 
L 239.413776 240.352428 
L 255.321126 240.335954 
L 398.487273 240.243701 
L 398.487273 240.243701 
" clip-path="url(#pbaef0a5bcb)" style="fill: none; stroke: #ffff00; stroke-width: 3; stroke-linecap: square"/>
   </g>
   <g id="patch_3">
    <path d="M 57.6 307.584 
L 57.6 41.472 
" style="fill: none; stroke: #ffffff; stroke-linejoin: miter; stroke-linecap: square"/>
   </g>
   <g id="patch_4">
    <path d="M 414.72 307.584 
L 414.72 41.472 
" style="fill: none; stroke: #ffffff; stroke-linejoin: miter; stroke-linecap: square"/>
   </g>
   <g id="patch_5">
    <path d="M 57.6 307.584 
L 414.72 307.584 
" style="fill: none; stroke: #ffffff; stroke-linejoin: miter; stroke-linecap: square"/>
   </g>
   <g id="patch_6">
    <path d="M 57.6 41.472 
L 414.72 41.472 
" style="fill: none; stroke: #ffffff; stroke-linejoin: miter; stroke-linecap: square"/>
   </g>
   <g id="legend_1">
    <g id="patch_7">
     <path d="M 243.124687 302.584 
L 407.72 302.584 
Q 409.72 302.584 409.72 300.584 
L 409.72 257.549625 
Q 409.72 255.549625 407.72 255.549625 
L 243.124687 255.549625 
Q 241.124687 255.549625 241.124687 257.549625 
L 241.124687 300.584 
Q 241.124687 302.584 243.124687 302.584 
z
" style="fill: #e5e5e5; opacity: 0.8; stroke: #cccccc; stroke-width: 0.5; stroke-linejoin: miter"/>
    </g>
    <g id="line2d_24">
     <path d="M 245.124687 263.648062 
L 255.124687 263.648062 
L 265.124687 263.648062 
" style="fill: none; stroke: #6495ed; stroke-width: 2; stroke-linecap: square"/>
    </g>
    <g id="text_13">
     <!-- Generator loss -->
     <g transform="translate(273.124687 267.148062) scale(0.1 -0.1)">
      <defs>
       <path id="DejaVuSans-47" d="M 3809 666 
L 3809 1919 
L 2778 1919 
L 2778 2438 
L 4434 2438 
L 4434 434 
Q 4069 175 3628 42 
Q 3188 -91 2688 -91 
Q 1594 -91 976 548 
Q 359 1188 359 2328 
Q 359 3472 976 4111 
Q 1594 4750 2688 4750 
Q 3144 4750 3555 4637 
Q 3966 4525 4313 4306 
L 4313 3634 
Q 3963 3931 3569 4081 
Q 3175 4231 2741 4231 
Q 1884 4231 1454 3753 
Q 1025 3275 1025 2328 
Q 1025 1384 1454 906 
Q 1884 428 2741 428 
Q 3075 428 3337 486 
Q 3600 544 3809 666 
z
" transform="scale(0.015625)"/>
       <path id="DejaVuSans-65" d="M 3597 1894 
L 3597 1613 
L 953 1613 
Q 991 1019 1311 708 
Q 1631 397 2203 397 
Q 2534 397 2845 478 
Q 3156 559 3463 722 
L 3463 178 
Q 3153 47 2828 -22 
Q 2503 -91 2169 -91 
Q 1331 -91 842 396 
Q 353 884 353 1716 
Q 353 2575 817 3079 
Q 1281 3584 2069 3584 
Q 2775 3584 3186 3129 
Q 3597 2675 3597 1894 
z
M 3022 2063 
Q 3016 2534 2758 2815 
Q 2500 3097 2075 3097 
Q 1594 3097 1305 2825 
Q 1016 2553 972 2059 
L 3022 2063 
z
" transform="scale(0.015625)"/>
       <path id="DejaVuSans-6e" d="M 3513 2113 
L 3513 0 
L 2938 0 
L 2938 2094 
Q 2938 2591 2744 2837 
Q 2550 3084 2163 3084 
Q 1697 3084 1428 2787 
Q 1159 2491 1159 1978 
L 1159 0 
L 581 0 
L 581 3500 
L 1159 3500 
L 1159 2956 
Q 1366 3272 1645 3428 
Q 1925 3584 2291 3584 
Q 2894 3584 3203 3211 
Q 3513 2838 3513 2113 
z
" transform="scale(0.015625)"/>
       <path id="DejaVuSans-72" d="M 2631 2963 
Q 2534 3019 2420 3045 
Q 2306 3072 2169 3072 
Q 1681 3072 1420 2755 
Q 1159 2438 1159 1844 
L 1159 0 
L 581 0 
L 581 3500 
L 1159 3500 
L 1159 2956 
Q 1341 3275 1631 3429 
Q 1922 3584 2338 3584 
Q 2397 3584 2469 3576 
Q 2541 3569 2628 3553 
L 2631 2963 
z
" transform="scale(0.015625)"/>
       <path id="DejaVuSans-61" d="M 2194 1759 
Q 1497 1759 1228 1600 
Q 959 1441 959 1056 
Q 959 750 1161 570 
Q 1363 391 1709 391 
Q 2188 391 2477 730 
Q 2766 1069 2766 1631 
L 2766 1759 
L 2194 1759 
z
M 3341 1997 
L 3341 0 
L 2766 0 
L 2766 531 
Q 2569 213 2275 61 
Q 1981 -91 1556 -91 
Q 1019 -91 701 211 
Q 384 513 384 1019 
Q 384 1609 779 1909 
Q 1175 2209 1959 2209 
L 2766 2209 
L 2766 2266 
Q 2766 2663 2505 2880 
Q 2244 3097 1772 3097 
Q 1472 3097 1187 3025 
Q 903 2953 641 2809 
L 641 3341 
Q 956 3463 1253 3523 
Q 1550 3584 1831 3584 
Q 2591 3584 2966 3190 
Q 3341 2797 3341 1997 
z
" transform="scale(0.015625)"/>
       <path id="DejaVuSans-74" d="M 1172 4494 
L 1172 3500 
L 2356 3500 
L 2356 3053 
L 1172 3053 
L 1172 1153 
Q 1172 725 1289 603 
Q 1406 481 1766 481 
L 2356 481 
L 2356 0 
L 1766 0 
Q 1100 0 847 248 
Q 594 497 594 1153 
L 594 3053 
L 172 3053 
L 172 3500 
L 594 3500 
L 594 4494 
L 1172 4494 
z
" transform="scale(0.015625)"/>
       <path id="DejaVuSans-20" transform="scale(0.015625)"/>
       <path id="DejaVuSans-6c" d="M 603 4863 
L 1178 4863 
L 1178 0 
L 603 0 
L 603 4863 
z
" transform="scale(0.015625)"/>
      </defs>
      <use xlink:href="#DejaVuSans-47"/>
      <use xlink:href="#DejaVuSans-65" x="77.490234"/>
      <use xlink:href="#DejaVuSans-6e" x="139.013672"/>
      <use xlink:href="#DejaVuSans-65" x="202.392578"/>
      <use xlink:href="#DejaVuSans-72" x="263.916016"/>
      <use xlink:href="#DejaVuSans-61" x="305.029297"/>
      <use xlink:href="#DejaVuSans-74" x="366.308594"/>
      <use xlink:href="#DejaVuSans-6f" x="405.517578"/>
      <use xlink:href="#DejaVuSans-72" x="466.699219"/>
      <use xlink:href="#DejaVuSans-20" x="507.8125"/>
      <use xlink:href="#DejaVuSans-6c" x="539.599609"/>
      <use xlink:href="#DejaVuSans-6f" x="567.382812"/>
      <use xlink:href="#DejaVuSans-73" x="628.564453"/>
      <use xlink:href="#DejaVuSans-73" x="680.664062"/>
     </g>
    </g>
    <g id="line2d_25">
     <path d="M 245.124687 278.326188 
L 255.124687 278.326188 
L 265.124687 278.326188 
" style="fill: none; stroke: #dc143c; stroke-width: 2; stroke-linecap: square"/>
    </g>
    <g id="text_14">
     <!-- Average discriminator loss -->
     <g transform="translate(273.124687 281.826188) scale(0.1 -0.1)">
      <defs>
       <path id="DejaVuSans-41" d="M 2188 4044 
L 1331 1722 
L 3047 1722 
L 2188 4044 
z
M 1831 4666 
L 2547 4666 
L 4325 0 
L 3669 0 
L 3244 1197 
L 1141 1197 
L 716 0 
L 50 0 
L 1831 4666 
z
" transform="scale(0.015625)"/>
       <path id="DejaVuSans-76" d="M 191 3500 
L 800 3500 
L 1894 563 
L 2988 3500 
L 3597 3500 
L 2284 0 
L 1503 0 
L 191 3500 
z
" transform="scale(0.015625)"/>
       <path id="DejaVuSans-67" d="M 2906 1791 
Q 2906 2416 2648 2759 
Q 2391 3103 1925 3103 
Q 1463 3103 1205 2759 
Q 947 2416 947 1791 
Q 947 1169 1205 825 
Q 1463 481 1925 481 
Q 2391 481 2648 825 
Q 2906 1169 2906 1791 
z
M 3481 434 
Q 3481 -459 3084 -895 
Q 2688 -1331 1869 -1331 
Q 1566 -1331 1297 -1286 
Q 1028 -1241 775 -1147 
L 775 -588 
Q 1028 -725 1275 -790 
Q 1522 -856 1778 -856 
Q 2344 -856 2625 -561 
Q 2906 -266 2906 331 
L 2906 616 
Q 2728 306 2450 153 
Q 2172 0 1784 0 
Q 1141 0 747 490 
Q 353 981 353 1791 
Q 353 2603 747 3093 
Q 1141 3584 1784 3584 
Q 2172 3584 2450 3431 
Q 2728 3278 2906 2969 
L 2906 3500 
L 3481 3500 
L 3481 434 
z
" transform="scale(0.015625)"/>
       <path id="DejaVuSans-64" d="M 2906 2969 
L 2906 4863 
L 3481 4863 
L 3481 0 
L 2906 0 
L 2906 525 
Q 2725 213 2448 61 
Q 2172 -91 1784 -91 
Q 1150 -91 751 415 
Q 353 922 353 1747 
Q 353 2572 751 3078 
Q 1150 3584 1784 3584 
Q 2172 3584 2448 3432 
Q 2725 3281 2906 2969 
z
M 947 1747 
Q 947 1113 1208 752 
Q 1469 391 1925 391 
Q 2381 391 2643 752 
Q 2906 1113 2906 1747 
Q 2906 2381 2643 2742 
Q 2381 3103 1925 3103 
Q 1469 3103 1208 2742 
Q 947 2381 947 1747 
z
" transform="scale(0.015625)"/>
       <path id="DejaVuSans-69" d="M 603 3500 
L 1178 3500 
L 1178 0 
L 603 0 
L 603 3500 
z
M 603 4863 
L 1178 4863 
L 1178 4134 
L 603 4134 
L 603 4863 
z
" transform="scale(0.015625)"/>
       <path id="DejaVuSans-6d" d="M 3328 2828 
Q 3544 3216 3844 3400 
Q 4144 3584 4550 3584 
Q 5097 3584 5394 3201 
Q 5691 2819 5691 2113 
L 5691 0 
L 5113 0 
L 5113 2094 
Q 5113 2597 4934 2840 
Q 4756 3084 4391 3084 
Q 3944 3084 3684 2787 
Q 3425 2491 3425 1978 
L 3425 0 
L 2847 0 
L 2847 2094 
Q 2847 2600 2669 2842 
Q 2491 3084 2119 3084 
Q 1678 3084 1418 2786 
Q 1159 2488 1159 1978 
L 1159 0 
L 581 0 
L 581 3500 
L 1159 3500 
L 1159 2956 
Q 1356 3278 1631 3431 
Q 1906 3584 2284 3584 
Q 2666 3584 2933 3390 
Q 3200 3197 3328 2828 
z
" transform="scale(0.015625)"/>
      </defs>
      <use xlink:href="#DejaVuSans-41"/>
      <use xlink:href="#DejaVuSans-76" x="62.533203"/>
      <use xlink:href="#DejaVuSans-65" x="121.712891"/>
      <use xlink:href="#DejaVuSans-72" x="183.236328"/>
      <use xlink:href="#DejaVuSans-61" x="224.349609"/>
      <use xlink:href="#DejaVuSans-67" x="285.628906"/>
      <use xlink:href="#DejaVuSans-65" x="349.105469"/>
      <use xlink:href="#DejaVuSans-20" x="410.628906"/>
      <use xlink:href="#DejaVuSans-64" x="442.416016"/>
      <use xlink:href="#DejaVuSans-69" x="505.892578"/>
      <use xlink:href="#DejaVuSans-73" x="533.675781"/>
      <use xlink:href="#DejaVuSans-63" x="585.775391"/>
      <use xlink:href="#DejaVuSans-72" x="640.755859"/>
      <use xlink:href="#DejaVuSans-69" x="681.869141"/>
      <use xlink:href="#DejaVuSans-6d" x="709.652344"/>
      <use xlink:href="#DejaVuSans-69" x="807.064453"/>
      <use xlink:href="#DejaVuSans-6e" x="834.847656"/>
      <use xlink:href="#DejaVuSans-61" x="898.226562"/>
      <use xlink:href="#DejaVuSans-74" x="959.505859"/>
      <use xlink:href="#DejaVuSans-6f" x="998.714844"/>
      <use xlink:href="#DejaVuSans-72" x="1059.896484"/>
      <use xlink:href="#DejaVuSans-20" x="1101.009766"/>
      <use xlink:href="#DejaVuSans-6c" x="1132.796875"/>
      <use xlink:href="#DejaVuSans-6f" x="1160.580078"/>
      <use xlink:href="#DejaVuSans-73" x="1221.761719"/>
      <use xlink:href="#DejaVuSans-73" x="1273.861328"/>
     </g>
    </g>
    <g id="line2d_26">
     <path d="M 245.124687 293.004312 
L 255.124687 293.004312 
L 265.124687 293.004312 
" style="fill: none; stroke: #ffff00; stroke-width: 3; stroke-linecap: square"/>
    </g>
    <g id="text_15">
     <!-- ROC AUC -->
     <g transform="translate(273.124687 296.504312) scale(0.1 -0.1)">
      <defs>
       <path id="DejaVuSans-52" d="M 2841 2188 
Q 3044 2119 3236 1894 
Q 3428 1669 3622 1275 
L 4263 0 
L 3584 0 
L 2988 1197 
Q 2756 1666 2539 1819 
Q 2322 1972 1947 1972 
L 1259 1972 
L 1259 0 
L 628 0 
L 628 4666 
L 2053 4666 
Q 2853 4666 3247 4331 
Q 3641 3997 3641 3322 
Q 3641 2881 3436 2590 
Q 3231 2300 2841 2188 
z
M 1259 4147 
L 1259 2491 
L 2053 2491 
Q 2509 2491 2742 2702 
Q 2975 2913 2975 3322 
Q 2975 3731 2742 3939 
Q 2509 4147 2053 4147 
L 1259 4147 
z
" transform="scale(0.015625)"/>
       <path id="DejaVuSans-4f" d="M 2522 4238 
Q 1834 4238 1429 3725 
Q 1025 3213 1025 2328 
Q 1025 1447 1429 934 
Q 1834 422 2522 422 
Q 3209 422 3611 934 
Q 4013 1447 4013 2328 
Q 4013 3213 3611 3725 
Q 3209 4238 2522 4238 
z
M 2522 4750 
Q 3503 4750 4090 4092 
Q 4678 3434 4678 2328 
Q 4678 1225 4090 567 
Q 3503 -91 2522 -91 
Q 1538 -91 948 565 
Q 359 1222 359 2328 
Q 359 3434 948 4092 
Q 1538 4750 2522 4750 
z
" transform="scale(0.015625)"/>
       <path id="DejaVuSans-43" d="M 4122 4306 
L 4122 3641 
Q 3803 3938 3442 4084 
Q 3081 4231 2675 4231 
Q 1875 4231 1450 3742 
Q 1025 3253 1025 2328 
Q 1025 1406 1450 917 
Q 1875 428 2675 428 
Q 3081 428 3442 575 
Q 3803 722 4122 1019 
L 4122 359 
Q 3791 134 3420 21 
Q 3050 -91 2638 -91 
Q 1578 -91 968 557 
Q 359 1206 359 2328 
Q 359 3453 968 4101 
Q 1578 4750 2638 4750 
Q 3056 4750 3426 4639 
Q 3797 4528 4122 4306 
z
" transform="scale(0.015625)"/>
       <path id="DejaVuSans-55" d="M 556 4666 
L 1191 4666 
L 1191 1831 
Q 1191 1081 1462 751 
Q 1734 422 2344 422 
Q 2950 422 3222 751 
Q 3494 1081 3494 1831 
L 3494 4666 
L 4128 4666 
L 4128 1753 
Q 4128 841 3676 375 
Q 3225 -91 2344 -91 
Q 1459 -91 1007 375 
Q 556 841 556 1753 
L 556 4666 
z
" transform="scale(0.015625)"/>
      </defs>
      <use xlink:href="#DejaVuSans-52"/>
      <use xlink:href="#DejaVuSans-4f" x="69.482422"/>
      <use xlink:href="#DejaVuSans-43" x="148.193359"/>
      <use xlink:href="#DejaVuSans-20" x="218.017578"/>
      <use xlink:href="#DejaVuSans-41" x="249.804688"/>
      <use xlink:href="#DejaVuSans-55" x="318.212891"/>
      <use xlink:href="#DejaVuSans-43" x="391.40625"/>
     </g>
    </g>
   </g>
  </g>
 </g>
 <defs>
  <clipPath id="pbaef0a5bcb">
   <rect x="57.6" y="41.472" width="357.12" height="266.112"/>
  </clipPath>
 </defs>
</svg>
