<?xml version="1.0" encoding="utf-8" standalone="no"?>
<!DOCTYPE svg PUBLIC "-//W3C//DTD SVG 1.1//EN"
  "http://www.w3.org/Graphics/SVG/1.1/DTD/svg11.dtd">
<svg xmlns:xlink="http://www.w3.org/1999/xlink" width="460.8pt" height="345.6pt" viewBox="0 0 460.8 345.6" xmlns="http://www.w3.org/2000/svg" version="1.1">
 <metadata>
  <rdf:RDF xmlns:dc="http://purl.org/dc/elements/1.1/" xmlns:cc="http://creativecommons.org/ns#" xmlns:rdf="http://www.w3.org/1999/02/22-rdf-syntax-ns#">
   <cc:Work>
    <dc:type rdf:resource="http://purl.org/dc/dcmitype/StillImage"/>
    <dc:date>2023-07-09T13:03:15.266226</dc:date>
    <dc:format>image/svg+xml</dc:format>
    <dc:creator>
     <cc:Agent>
      <dc:title>Matplotlib v3.7.1, https://matplotlib.org/</dc:title>
     </cc:Agent>
    </dc:creator>
   </cc:Work>
  </rdf:RDF>
 </metadata>
 <defs>
  <style type="text/css">*{stroke-linejoin: round; stroke-linecap: butt}</style>
 </defs>
 <g id="figure_1">
  <g id="patch_1">
   <path d="M 0 345.6 
L 460.8 345.6 
L 460.8 0 
L 0 0 
z
" style="fill: #ffffff"/>
  </g>
  <g id="axes_1">
   <g id="patch_2">
    <path d="M 57.6 307.584 
L 414.72 307.584 
L 414.72 41.472 
L 57.6 41.472 
z
" style="fill: #e5e5e5"/>
   </g>
   <g id="matplotlib.axis_1">
    <g id="xtick_1">
     <g id="line2d_1">
      <path d="M 73.109666 307.584 
L 73.109666 41.472 
" clip-path="url(#p5f8df82413)" style="fill: none; stroke: #ffffff; stroke-width: 0.8; stroke-linecap: square"/>
     </g>
     <g id="line2d_2">
      <defs>
       <path id="m4ee3c9f553" d="M 0 0 
L 0 3.5 
" style="stroke: #555555; stroke-width: 0.8"/>
      </defs>
      <g>
       <use xlink:href="#m4ee3c9f553" x="73.109666" y="307.584" style="fill: #555555; stroke: #555555; stroke-width: 0.8"/>
      </g>
     </g>
     <g id="text_1">
      <!-- 0 -->
      <g style="fill: #555555" transform="translate(69.928416 322.182437) scale(0.1 -0.1)">
       <defs>
        <path id="DejaVuSans-30" d="M 2034 4250 
Q 1547 4250 1301 3770 
Q 1056 3291 1056 2328 
Q 1056 1369 1301 889 
Q 1547 409 2034 409 
Q 2525 409 2770 889 
Q 3016 1369 3016 2328 
Q 3016 3291 2770 3770 
Q 2525 4250 2034 4250 
z
M 2034 4750 
Q 2819 4750 3233 4129 
Q 3647 3509 3647 2328 
Q 3647 1150 3233 529 
Q 2819 -91 2034 -91 
Q 1250 -91 836 529 
Q 422 1150 422 2328 
Q 422 3509 836 4129 
Q 1250 4750 2034 4750 
z
" transform="scale(0.015625)"/>
       </defs>
       <use xlink:href="#DejaVuSans-30"/>
      </g>
     </g>
    </g>
    <g id="xtick_2">
     <g id="line2d_3">
      <path d="M 145.415801 307.584 
L 145.415801 41.472 
" clip-path="url(#p5f8df82413)" style="fill: none; stroke: #ffffff; stroke-width: 0.8; stroke-linecap: square"/>
     </g>
     <g id="line2d_4">
      <g>
       <use xlink:href="#m4ee3c9f553" x="145.415801" y="307.584" style="fill: #555555; stroke: #555555; stroke-width: 0.8"/>
      </g>
     </g>
     <g id="text_2">
      <!-- 100 -->
      <g style="fill: #555555" transform="translate(135.872051 322.182437) scale(0.1 -0.1)">
       <defs>
        <path id="DejaVuSans-31" d="M 794 531 
L 1825 531 
L 1825 4091 
L 703 3866 
L 703 4441 
L 1819 4666 
L 2450 4666 
L 2450 531 
L 3481 531 
L 3481 0 
L 794 0 
L 794 531 
z
" transform="scale(0.015625)"/>
       </defs>
       <use xlink:href="#DejaVuSans-31"/>
       <use xlink:href="#DejaVuSans-30" x="63.623047"/>
       <use xlink:href="#DejaVuSans-30" x="127.246094"/>
      </g>
     </g>
    </g>
    <g id="xtick_3">
     <g id="line2d_5">
      <path d="M 217.721936 307.584 
L 217.721936 41.472 
" clip-path="url(#p5f8df82413)" style="fill: none; stroke: #ffffff; stroke-width: 0.8; stroke-linecap: square"/>
     </g>
     <g id="line2d_6">
      <g>
       <use xlink:href="#m4ee3c9f553" x="217.721936" y="307.584" style="fill: #555555; stroke: #555555; stroke-width: 0.8"/>
      </g>
     </g>
     <g id="text_3">
      <!-- 200 -->
      <g style="fill: #555555" transform="translate(208.178186 322.182437) scale(0.1 -0.1)">
       <defs>
        <path id="DejaVuSans-32" d="M 1228 531 
L 3431 531 
L 3431 0 
L 469 0 
L 469 531 
Q 828 903 1448 1529 
Q 2069 2156 2228 2338 
Q 2531 2678 2651 2914 
Q 2772 3150 2772 3378 
Q 2772 3750 2511 3984 
Q 2250 4219 1831 4219 
Q 1534 4219 1204 4116 
Q 875 4013 500 3803 
L 500 4441 
Q 881 4594 1212 4672 
Q 1544 4750 1819 4750 
Q 2544 4750 2975 4387 
Q 3406 4025 3406 3419 
Q 3406 3131 3298 2873 
Q 3191 2616 2906 2266 
Q 2828 2175 2409 1742 
Q 1991 1309 1228 531 
z
" transform="scale(0.015625)"/>
       </defs>
       <use xlink:href="#DejaVuSans-32"/>
       <use xlink:href="#DejaVuSans-30" x="63.623047"/>
       <use xlink:href="#DejaVuSans-30" x="127.246094"/>
      </g>
     </g>
    </g>
    <g id="xtick_4">
     <g id="line2d_7">
      <path d="M 290.02807 307.584 
L 290.02807 41.472 
" clip-path="url(#p5f8df82413)" style="fill: none; stroke: #ffffff; stroke-width: 0.8; stroke-linecap: square"/>
     </g>
     <g id="line2d_8">
      <g>
       <use xlink:href="#m4ee3c9f553" x="290.02807" y="307.584" style="fill: #555555; stroke: #555555; stroke-width: 0.8"/>
      </g>
     </g>
     <g id="text_4">
      <!-- 300 -->
      <g style="fill: #555555" transform="translate(280.48432 322.182437) scale(0.1 -0.1)">
       <defs>
        <path id="DejaVuSans-33" d="M 2597 2516 
Q 3050 2419 3304 2112 
Q 3559 1806 3559 1356 
Q 3559 666 3084 287 
Q 2609 -91 1734 -91 
Q 1441 -91 1130 -33 
Q 819 25 488 141 
L 488 750 
Q 750 597 1062 519 
Q 1375 441 1716 441 
Q 2309 441 2620 675 
Q 2931 909 2931 1356 
Q 2931 1769 2642 2001 
Q 2353 2234 1838 2234 
L 1294 2234 
L 1294 2753 
L 1863 2753 
Q 2328 2753 2575 2939 
Q 2822 3125 2822 3475 
Q 2822 3834 2567 4026 
Q 2313 4219 1838 4219 
Q 1578 4219 1281 4162 
Q 984 4106 628 3988 
L 628 4550 
Q 988 4650 1302 4700 
Q 1616 4750 1894 4750 
Q 2613 4750 3031 4423 
Q 3450 4097 3450 3541 
Q 3450 3153 3228 2886 
Q 3006 2619 2597 2516 
z
" transform="scale(0.015625)"/>
       </defs>
       <use xlink:href="#DejaVuSans-33"/>
       <use xlink:href="#DejaVuSans-30" x="63.623047"/>
       <use xlink:href="#DejaVuSans-30" x="127.246094"/>
      </g>
     </g>
    </g>
    <g id="xtick_5">
     <g id="line2d_9">
      <path d="M 362.334205 307.584 
L 362.334205 41.472 
" clip-path="url(#p5f8df82413)" style="fill: none; stroke: #ffffff; stroke-width: 0.8; stroke-linecap: square"/>
     </g>
     <g id="line2d_10">
      <g>
       <use xlink:href="#m4ee3c9f553" x="362.334205" y="307.584" style="fill: #555555; stroke: #555555; stroke-width: 0.8"/>
      </g>
     </g>
     <g id="text_5">
      <!-- 400 -->
      <g style="fill: #555555" transform="translate(352.790455 322.182437) scale(0.1 -0.1)">
       <defs>
        <path id="DejaVuSans-34" d="M 2419 4116 
L 825 1625 
L 2419 1625 
L 2419 4116 
z
M 2253 4666 
L 3047 4666 
L 3047 1625 
L 3713 1625 
L 3713 1100 
L 3047 1100 
L 3047 0 
L 2419 0 
L 2419 1100 
L 313 1100 
L 313 1709 
L 2253 4666 
z
" transform="scale(0.015625)"/>
       </defs>
       <use xlink:href="#DejaVuSans-34"/>
       <use xlink:href="#DejaVuSans-30" x="63.623047"/>
       <use xlink:href="#DejaVuSans-30" x="127.246094"/>
      </g>
     </g>
    </g>
    <g id="text_6">
     <!-- Epoch -->
     <g style="fill: #555555" transform="translate(217.786875 337.38025) scale(0.12 -0.12)">
      <defs>
       <path id="DejaVuSans-45" d="M 628 4666 
L 3578 4666 
L 3578 4134 
L 1259 4134 
L 1259 2753 
L 3481 2753 
L 3481 2222 
L 1259 2222 
L 1259 531 
L 3634 531 
L 3634 0 
L 628 0 
L 628 4666 
z
" transform="scale(0.015625)"/>
       <path id="DejaVuSans-70" d="M 1159 525 
L 1159 -1331 
L 581 -1331 
L 581 3500 
L 1159 3500 
L 1159 2969 
Q 1341 3281 1617 3432 
Q 1894 3584 2278 3584 
Q 2916 3584 3314 3078 
Q 3713 2572 3713 1747 
Q 3713 922 3314 415 
Q 2916 -91 2278 -91 
Q 1894 -91 1617 61 
Q 1341 213 1159 525 
z
M 3116 1747 
Q 3116 2381 2855 2742 
Q 2594 3103 2138 3103 
Q 1681 3103 1420 2742 
Q 1159 2381 1159 1747 
Q 1159 1113 1420 752 
Q 1681 391 2138 391 
Q 2594 391 2855 752 
Q 3116 1113 3116 1747 
z
" transform="scale(0.015625)"/>
       <path id="DejaVuSans-6f" d="M 1959 3097 
Q 1497 3097 1228 2736 
Q 959 2375 959 1747 
Q 959 1119 1226 758 
Q 1494 397 1959 397 
Q 2419 397 2687 759 
Q 2956 1122 2956 1747 
Q 2956 2369 2687 2733 
Q 2419 3097 1959 3097 
z
M 1959 3584 
Q 2709 3584 3137 3096 
Q 3566 2609 3566 1747 
Q 3566 888 3137 398 
Q 2709 -91 1959 -91 
Q 1206 -91 779 398 
Q 353 888 353 1747 
Q 353 2609 779 3096 
Q 1206 3584 1959 3584 
z
" transform="scale(0.015625)"/>
       <path id="DejaVuSans-63" d="M 3122 3366 
L 3122 2828 
Q 2878 2963 2633 3030 
Q 2388 3097 2138 3097 
Q 1578 3097 1268 2742 
Q 959 2388 959 1747 
Q 959 1106 1268 751 
Q 1578 397 2138 397 
Q 2388 397 2633 464 
Q 2878 531 3122 666 
L 3122 134 
Q 2881 22 2623 -34 
Q 2366 -91 2075 -91 
Q 1284 -91 818 406 
Q 353 903 353 1747 
Q 353 2603 823 3093 
Q 1294 3584 2113 3584 
Q 2378 3584 2631 3529 
Q 2884 3475 3122 3366 
z
" transform="scale(0.015625)"/>
       <path id="DejaVuSans-68" d="M 3513 2113 
L 3513 0 
L 2938 0 
L 2938 2094 
Q 2938 2591 2744 2837 
Q 2550 3084 2163 3084 
Q 1697 3084 1428 2787 
Q 1159 2491 1159 1978 
L 1159 0 
L 581 0 
L 581 4863 
L 1159 4863 
L 1159 2956 
Q 1366 3272 1645 3428 
Q 1925 3584 2291 3584 
Q 2894 3584 3203 3211 
Q 3513 2838 3513 2113 
z
" transform="scale(0.015625)"/>
      </defs>
      <use xlink:href="#DejaVuSans-45"/>
      <use xlink:href="#DejaVuSans-70" x="63.183594"/>
      <use xlink:href="#DejaVuSans-6f" x="126.660156"/>
      <use xlink:href="#DejaVuSans-63" x="187.841797"/>
      <use xlink:href="#DejaVuSans-68" x="242.822266"/>
     </g>
    </g>
   </g>
   <g id="matplotlib.axis_2">
    <g id="ytick_1">
     <g id="line2d_11">
      <path d="M 57.6 267.371885 
L 414.72 267.371885 
" clip-path="url(#p5f8df82413)" style="fill: none; stroke: #ffffff; stroke-width: 0.8; stroke-linecap: square"/>
     </g>
     <g id="line2d_12">
      <defs>
       <path id="m8ef2558871" d="M 0 0 
L -3.5 0 
" style="stroke: #555555; stroke-width: 0.8"/>
      </defs>
      <g>
       <use xlink:href="#m8ef2558871" x="57.6" y="267.371885" style="fill: #555555; stroke: #555555; stroke-width: 0.8"/>
      </g>
     </g>
     <g id="text_7">
      <!-- 0.5 -->
      <g style="fill: #555555" transform="translate(34.696875 271.171104) scale(0.1 -0.1)">
       <defs>
        <path id="DejaVuSans-2e" d="M 684 794 
L 1344 794 
L 1344 0 
L 684 0 
L 684 794 
z
" transform="scale(0.015625)"/>
        <path id="DejaVuSans-35" d="M 691 4666 
L 3169 4666 
L 3169 4134 
L 1269 4134 
L 1269 2991 
Q 1406 3038 1543 3061 
Q 1681 3084 1819 3084 
Q 2600 3084 3056 2656 
Q 3513 2228 3513 1497 
Q 3513 744 3044 326 
Q 2575 -91 1722 -91 
Q 1428 -91 1123 -41 
Q 819 9 494 109 
L 494 744 
Q 775 591 1075 516 
Q 1375 441 1709 441 
Q 2250 441 2565 725 
Q 2881 1009 2881 1497 
Q 2881 1984 2565 2268 
Q 2250 2553 1709 2553 
Q 1456 2553 1204 2497 
Q 953 2441 691 2322 
L 691 4666 
z
" transform="scale(0.015625)"/>
       </defs>
       <use xlink:href="#DejaVuSans-30"/>
       <use xlink:href="#DejaVuSans-2e" x="63.623047"/>
       <use xlink:href="#DejaVuSans-35" x="95.410156"/>
      </g>
     </g>
    </g>
    <g id="ytick_2">
     <g id="line2d_13">
      <path d="M 57.6 210.264321 
L 414.72 210.264321 
" clip-path="url(#p5f8df82413)" style="fill: none; stroke: #ffffff; stroke-width: 0.8; stroke-linecap: square"/>
     </g>
     <g id="line2d_14">
      <g>
       <use xlink:href="#m8ef2558871" x="57.6" y="210.264321" style="fill: #555555; stroke: #555555; stroke-width: 0.8"/>
      </g>
     </g>
     <g id="text_8">
      <!-- 1.0 -->
      <g style="fill: #555555" transform="translate(34.696875 214.063539) scale(0.1 -0.1)">
       <use xlink:href="#DejaVuSans-31"/>
       <use xlink:href="#DejaVuSans-2e" x="63.623047"/>
       <use xlink:href="#DejaVuSans-30" x="95.410156"/>
      </g>
     </g>
    </g>
    <g id="ytick_3">
     <g id="line2d_15">
      <path d="M 57.6 153.156756 
L 414.72 153.156756 
" clip-path="url(#p5f8df82413)" style="fill: none; stroke: #ffffff; stroke-width: 0.8; stroke-linecap: square"/>
     </g>
     <g id="line2d_16">
      <g>
       <use xlink:href="#m8ef2558871" x="57.6" y="153.156756" style="fill: #555555; stroke: #555555; stroke-width: 0.8"/>
      </g>
     </g>
     <g id="text_9">
      <!-- 1.5 -->
      <g style="fill: #555555" transform="translate(34.696875 156.955974) scale(0.1 -0.1)">
       <use xlink:href="#DejaVuSans-31"/>
       <use xlink:href="#DejaVuSans-2e" x="63.623047"/>
       <use xlink:href="#DejaVuSans-35" x="95.410156"/>
      </g>
     </g>
    </g>
    <g id="ytick_4">
     <g id="line2d_17">
      <path d="M 57.6 96.049191 
L 414.72 96.049191 
" clip-path="url(#p5f8df82413)" style="fill: none; stroke: #ffffff; stroke-width: 0.8; stroke-linecap: square"/>
     </g>
     <g id="line2d_18">
      <g>
       <use xlink:href="#m8ef2558871" x="57.6" y="96.049191" style="fill: #555555; stroke: #555555; stroke-width: 0.8"/>
      </g>
     </g>
     <g id="text_10">
      <!-- 2.0 -->
      <g style="fill: #555555" transform="translate(34.696875 99.84841) scale(0.1 -0.1)">
       <use xlink:href="#DejaVuSans-32"/>
       <use xlink:href="#DejaVuSans-2e" x="63.623047"/>
       <use xlink:href="#DejaVuSans-30" x="95.410156"/>
      </g>
     </g>
    </g>
    <g id="text_11">
     <!-- Loss -->
     <g style="fill: #555555" transform="translate(28.20125 187.688625) rotate(-90) scale(0.12 -0.12)">
      <defs>
       <path id="DejaVuSans-4c" d="M 628 4666 
L 1259 4666 
L 1259 531 
L 3531 531 
L 3531 0 
L 628 0 
L 628 4666 
z
" transform="scale(0.015625)"/>
       <path id="DejaVuSans-73" d="M 2834 3397 
L 2834 2853 
Q 2591 2978 2328 3040 
Q 2066 3103 1784 3103 
Q 1356 3103 1142 2972 
Q 928 2841 928 2578 
Q 928 2378 1081 2264 
Q 1234 2150 1697 2047 
L 1894 2003 
Q 2506 1872 2764 1633 
Q 3022 1394 3022 966 
Q 3022 478 2636 193 
Q 2250 -91 1575 -91 
Q 1294 -91 989 -36 
Q 684 19 347 128 
L 347 722 
Q 666 556 975 473 
Q 1284 391 1588 391 
Q 1994 391 2212 530 
Q 2431 669 2431 922 
Q 2431 1156 2273 1281 
Q 2116 1406 1581 1522 
L 1381 1569 
Q 847 1681 609 1914 
Q 372 2147 372 2553 
Q 372 3047 722 3315 
Q 1072 3584 1716 3584 
Q 2034 3584 2315 3537 
Q 2597 3491 2834 3397 
z
" transform="scale(0.015625)"/>
      </defs>
      <use xlink:href="#DejaVuSans-4c"/>
      <use xlink:href="#DejaVuSans-6f" x="53.962891"/>
      <use xlink:href="#DejaVuSans-73" x="115.144531"/>
      <use xlink:href="#DejaVuSans-73" x="167.244141"/>
     </g>
    </g>
   </g>
   <g id="line2d_19">
    <path d="M 73.832727 239.403345 
L 76.001911 235.659193 
L 78.894157 230.711747 
L 80.340279 228.421319 
L 81.063341 227.119068 
L 81.786402 226.087541 
L 83.232525 223.778746 
L 89.017016 214.817051 
L 89.740077 213.827659 
L 90.463138 212.577188 
L 91.909261 210.646638 
L 94.078445 207.405488 
L 95.524568 205.599308 
L 99.862936 199.623297 
L 100.585997 199.06135 
L 101.309059 197.874383 
L 102.03212 197.120915 
L 103.478243 195.242541 
L 104.924365 193.922938 
L 105.647427 192.813781 
L 106.370488 192.230157 
L 107.816611 190.648313 
L 108.539672 189.845208 
L 109.262733 188.558647 
L 109.985795 188.02411 
L 112.87804 184.963824 
L 113.601101 184.697608 
L 114.324163 183.637625 
L 116.493347 181.407536 
L 117.216408 181.157819 
L 118.662531 179.43158 
L 121.554776 177.016661 
L 122.277838 176.801806 
L 128.062328 171.810285 
L 128.78539 171.626667 
L 129.508451 171.115805 
L 130.954574 169.762625 
L 131.677635 169.626653 
L 133.123758 168.533126 
L 133.846819 168.108309 
L 134.569881 167.266329 
L 135.292942 167.192557 
L 136.016003 166.509432 
L 136.739065 166.677766 
L 137.462126 166.140808 
L 138.185187 165.455102 
L 138.908249 165.407673 
L 139.63131 164.637967 
L 140.354371 164.397803 
L 141.077433 164.45611 
L 141.800494 164.023047 
L 142.523555 162.767298 
L 143.246617 162.725983 
L 143.969678 162.54787 
L 144.692739 162.212986 
L 145.415801 161.508473 
L 146.138862 161.546673 
L 146.861923 161.143496 
L 147.584985 160.554803 
L 148.308046 160.615784 
L 149.031108 160.064103 
L 151.200292 159.687334 
L 151.923353 158.955082 
L 152.646414 158.622379 
L 153.369476 158.494608 
L 154.092537 158.480971 
L 154.815598 157.727709 
L 155.53866 157.322683 
L 156.261721 157.679347 
L 157.707844 157.25401 
L 159.153966 156.589704 
L 159.877028 155.99897 
L 160.600089 156.655096 
L 161.32315 155.880777 
L 162.046212 155.824365 
L 163.492334 155.360978 
L 164.215396 154.978965 
L 164.938457 155.334411 
L 165.661519 154.739858 
L 166.38458 154.529879 
L 167.107641 154.83369 
L 167.830703 154.135316 
L 168.553764 154.246696 
L 169.276825 153.813587 
L 171.446009 153.562136 
L 172.169071 153.423976 
L 172.892132 153.507733 
L 174.338255 153.129748 
L 176.507439 152.365183 
L 177.2305 152.420154 
L 177.953561 152.354274 
L 178.676623 152.930352 
L 179.399684 152.032281 
L 180.122745 151.908971 
L 180.845807 151.953894 
L 181.568868 151.633154 
L 182.29193 152.077858 
L 183.014991 151.656668 
L 183.738052 151.426288 
L 184.461114 150.677849 
L 185.184175 150.113859 
L 186.630298 149.263312 
L 187.353359 148.646742 
L 188.07642 148.660385 
L 188.799482 147.760899 
L 189.522543 147.321632 
L 190.245604 146.738192 
L 191.691727 146.42046 
L 192.414788 145.28765 
L 193.13785 145.379285 
L 193.860911 144.27875 
L 194.583972 143.660976 
L 195.307034 143.786135 
L 196.030095 143.36 
L 198.199279 141.197191 
L 198.922341 141.651407 
L 199.645402 140.872782 
L 200.368463 140.34596 
L 201.091525 140.137469 
L 203.260709 138.187647 
L 204.706831 137.885059 
L 205.429893 137.036143 
L 206.876015 136.124029 
L 207.599077 136.02725 
L 208.322138 135.00951 
L 209.045199 135.339302 
L 209.768261 134.816682 
L 210.491322 133.793469 
L 211.214383 133.362111 
L 212.660506 131.894909 
L 213.383568 132.602496 
L 214.106629 131.795451 
L 214.82969 131.189256 
L 215.552752 131.008268 
L 216.275813 130.988228 
L 218.444997 129.234276 
L 219.168058 129.153038 
L 219.89112 128.163164 
L 220.614181 127.632532 
L 221.337242 127.618609 
L 223.506426 126.403635 
L 224.229488 125.881867 
L 224.952549 126.042701 
L 225.67561 125.529988 
L 226.398672 124.74711 
L 227.121733 124.700882 
L 228.567856 123.42359 
L 229.290917 123.459698 
L 230.013979 122.57667 
L 232.183163 121.312947 
L 232.906224 121.257766 
L 233.629285 120.285306 
L 234.352347 120.481092 
L 235.075408 119.803952 
L 235.798469 119.500696 
L 236.521531 118.928475 
L 237.244592 118.710376 
L 237.967653 118.662461 
L 238.690715 117.95812 
L 240.136837 117.349972 
L 240.859899 117.364693 
L 241.58296 116.317356 
L 242.306021 116.018901 
L 243.029083 115.393552 
L 243.752144 116.035766 
L 244.475206 114.819081 
L 245.198267 114.487735 
L 245.921328 113.734912 
L 246.64439 114.128043 
L 247.367451 113.376772 
L 248.090512 113.317713 
L 248.813574 112.578797 
L 249.536635 112.445657 
L 251.705819 111.276311 
L 252.42888 111.315423 
L 253.875003 110.737739 
L 254.598064 110.07551 
L 255.321126 109.176413 
L 256.044187 109.468142 
L 256.767248 108.813914 
L 258.213371 108.103149 
L 258.936432 107.656501 
L 259.659494 106.718894 
L 260.382555 107.496366 
L 261.105617 106.771575 
L 262.551739 105.972271 
L 263.274801 105.808025 
L 263.997862 105.506556 
L 265.443985 104.528026 
L 266.167046 104.05779 
L 266.890107 104.035016 
L 267.613169 103.37253 
L 268.33623 103.905302 
L 269.059291 102.521433 
L 269.782353 102.632434 
L 270.505414 101.793752 
L 271.228475 101.801592 
L 272.674598 101.315733 
L 273.397659 101.742645 
L 274.120721 101.193749 
L 274.843782 100.495418 
L 275.566843 99.488772 
L 276.289905 99.386335 
L 277.012966 100.063306 
L 277.736028 99.296388 
L 278.459089 99.337087 
L 279.18215 98.752922 
L 279.905212 98.025615 
L 280.628273 98.314133 
L 281.351334 97.979823 
L 282.074396 96.807046 
L 282.797457 96.710109 
L 283.520518 96.362108 
L 284.24358 95.839128 
L 285.689702 95.173907 
L 286.412764 94.633184 
L 287.135825 95.025591 
L 287.858886 93.875304 
L 289.305009 94.136517 
L 290.02807 93.547699 
L 290.751132 92.776734 
L 291.474193 92.764355 
L 292.197255 92.401197 
L 292.920316 92.606102 
L 295.0895 91.49896 
L 295.812561 90.754878 
L 296.535623 90.172873 
L 297.258684 90.013378 
L 297.981745 90.019521 
L 298.704807 90.186951 
L 300.873991 88.663842 
L 301.597052 88.785848 
L 302.320113 88.115033 
L 303.043175 88.127946 
L 303.766236 87.545295 
L 304.489297 87.504615 
L 305.212359 86.93705 
L 305.93542 86.794798 
L 306.658481 86.351553 
L 307.381543 86.480092 
L 308.104604 85.792283 
L 308.827666 85.37317 
L 309.550727 85.804964 
L 310.273788 84.992279 
L 310.99685 84.739134 
L 311.719911 84.682208 
L 312.442972 83.679146 
L 313.166034 83.800111 
L 313.889095 84.429491 
L 314.612156 84.415031 
L 315.335218 83.285908 
L 316.78134 82.791074 
L 317.504402 82.340763 
L 318.227463 82.600858 
L 318.950524 81.408281 
L 319.673586 81.450481 
L 320.396647 79.762874 
L 321.119708 80.96423 
L 321.84277 80.488818 
L 322.565831 80.593657 
L 323.288892 79.24033 
L 324.011954 79.379881 
L 324.735015 79.640161 
L 325.458077 78.927898 
L 326.181138 78.426633 
L 329.073383 77.715176 
L 329.796445 77.171163 
L 331.242567 76.882643 
L 331.965629 76.440593 
L 332.68869 77.250792 
L 333.411751 75.525542 
L 334.134813 76.656189 
L 334.857874 75.891426 
L 335.580935 75.59885 
L 336.303997 75.712463 
L 337.027058 75.195804 
L 337.750119 74.15391 
L 338.473181 74.997859 
L 339.196242 74.363232 
L 339.919304 73.496567 
L 340.642365 72.876781 
L 341.365426 72.049337 
L 342.811549 73.847711 
L 343.53461 72.637031 
L 344.257672 72.634472 
L 344.980733 71.864436 
L 345.703794 71.31672 
L 347.149917 70.643754 
L 347.872978 71.226166 
L 348.59604 71.295425 
L 349.319101 70.444559 
L 350.042162 70.993123 
L 350.765224 70.639457 
L 351.488285 70.053119 
L 352.211346 70.938557 
L 352.934408 69.280178 
L 354.38053 68.463465 
L 355.103592 68.639884 
L 355.826653 68.35928 
L 356.549715 68.401172 
L 357.272776 67.123166 
L 357.995837 67.849874 
L 358.718899 66.7485 
L 359.44196 67.679844 
L 360.165021 66.370348 
L 361.611144 66.435888 
L 362.334205 66.161726 
L 363.057267 66.188157 
L 363.780328 65.639833 
L 364.503389 65.816432 
L 365.226451 65.288771 
L 365.949512 64.54781 
L 366.672573 64.950072 
L 367.395635 64.428423 
L 368.118696 63.693508 
L 368.841757 64.673361 
L 369.564819 63.160314 
L 370.28788 64.362045 
L 371.010941 62.942465 
L 371.734003 63.606543 
L 372.457064 62.721949 
L 373.180126 62.825002 
L 373.903187 61.903804 
L 374.626248 61.800822 
L 375.34931 61.289538 
L 376.072371 61.521824 
L 376.795432 60.875174 
L 378.964616 60.484638 
L 381.1338 59.362132 
L 381.856862 58.706513 
L 382.579923 58.643729 
L 383.302984 59.603061 
L 384.026046 58.361878 
L 384.749107 58.653609 
L 385.472168 57.633138 
L 386.19523 58.624787 
L 386.918291 58.258596 
L 387.641353 57.357151 
L 388.364414 56.99933 
L 389.087475 58.235319 
L 389.810537 56.120945 
L 390.533598 55.515605 
L 391.256659 56.663403 
L 391.979721 56.838221 
L 392.702782 56.536834 
L 393.425843 57.272474 
L 394.871966 55.749754 
L 395.595027 55.890783 
L 396.318089 55.251895 
L 397.04115 54.815502 
L 397.764211 54.553926 
L 398.487273 53.568 
L 398.487273 53.568 
" clip-path="url(#p5f8df82413)" style="fill: none; stroke: #6495ed; stroke-width: 2; stroke-linecap: square"/>
   </g>
   <g id="line2d_20">
    <path d="M 73.832727 246.1757 
L 78.171095 249.621887 
L 81.063341 251.616425 
L 85.401709 254.220008 
L 86.12477 254.559465 
L 87.570893 255.534036 
L 88.293954 255.736776 
L 91.1862 257.275418 
L 91.909261 257.419374 
L 92.632322 257.840343 
L 94.078445 258.445009 
L 94.801506 258.882375 
L 95.524568 258.96766 
L 96.97069 259.568326 
L 97.693752 259.85462 
L 98.416813 260.360051 
L 99.139874 260.387729 
L 99.862936 260.762607 
L 100.585997 260.873309 
L 102.03212 261.634785 
L 102.755181 261.654699 
L 103.478243 261.970431 
L 104.924365 262.286483 
L 105.647427 262.808151 
L 106.370488 262.698678 
L 107.093549 263.017042 
L 108.539672 263.366197 
L 109.262733 263.924628 
L 109.985795 263.778517 
L 110.708856 264.07311 
L 111.431917 264.171932 
L 112.154979 264.415958 
L 112.87804 264.864376 
L 113.601101 264.635956 
L 114.324163 264.985653 
L 115.770285 265.282901 
L 116.493347 265.768735 
L 117.216408 265.505305 
L 117.93947 265.82445 
L 119.385592 266.10599 
L 120.108654 266.533477 
L 120.831715 266.320068 
L 121.554776 266.631367 
L 122.277838 266.616192 
L 123.000899 266.795452 
L 123.72396 267.261301 
L 124.447022 267.051081 
L 125.170083 267.308035 
L 125.893144 267.367289 
L 126.616206 267.544478 
L 127.339267 267.984439 
L 128.062328 267.766031 
L 128.78539 267.975455 
L 129.508451 268.008092 
L 130.231512 268.199993 
L 130.954574 268.672543 
L 131.677635 268.324959 
L 132.400696 268.607047 
L 133.123758 268.625741 
L 133.846819 268.766399 
L 134.569881 269.29883 
L 135.292942 268.924525 
L 136.016003 269.226069 
L 136.739065 269.115288 
L 137.462126 269.281804 
L 138.185187 269.802192 
L 138.908249 269.406684 
L 139.63131 269.718811 
L 141.077433 269.740524 
L 141.800494 270.227283 
L 142.523555 270.020128 
L 143.246617 270.229305 
L 143.969678 270.180682 
L 144.692739 270.303741 
L 145.415801 270.840065 
L 146.138862 270.403858 
L 146.861923 270.671092 
L 148.308046 270.749693 
L 149.031108 271.270869 
L 149.754169 270.849452 
L 150.47723 271.067674 
L 151.200292 271.017063 
L 151.923353 271.198085 
L 152.646414 271.697382 
L 153.369476 271.260443 
L 154.092537 271.475966 
L 155.53866 271.644187 
L 156.261721 272.049069 
L 156.984782 271.597557 
L 157.707844 271.851918 
L 158.430905 271.823335 
L 159.153966 271.952907 
L 159.877028 272.508241 
L 160.600089 271.924042 
L 161.32315 272.265056 
L 162.046212 272.185358 
L 162.769273 272.296705 
L 163.492334 272.809416 
L 164.215396 272.376106 
L 164.938457 272.552225 
L 166.38458 272.651076 
L 167.107641 273.097903 
L 167.830703 272.696335 
L 168.553764 272.907934 
L 169.276825 272.873966 
L 169.999887 272.965381 
L 170.722948 273.483525 
L 171.446009 272.961094 
L 172.169071 273.217979 
L 172.892132 273.120334 
L 173.615193 273.228052 
L 174.338255 273.762132 
L 175.061316 273.254963 
L 175.784377 273.522802 
L 176.507439 273.473501 
L 177.2305 273.559892 
L 177.953561 274.080551 
L 178.676623 273.447434 
L 179.399684 273.828113 
L 180.122745 273.743827 
L 180.845807 273.821737 
L 181.568868 274.386276 
L 182.29193 273.768954 
L 183.014991 274.076267 
L 183.738052 273.996665 
L 184.461114 274.186969 
L 185.184175 274.805305 
L 185.907236 274.289278 
L 186.630298 274.603169 
L 187.353359 274.57292 
L 188.07642 274.661895 
L 188.799482 275.321923 
L 189.522543 274.797676 
L 190.245604 275.132318 
L 190.968666 275.041917 
L 191.691727 275.150928 
L 192.414788 275.853148 
L 193.13785 275.250297 
L 193.860911 275.653375 
L 195.307034 275.701129 
L 196.030095 276.301326 
L 196.753157 275.80069 
L 197.476218 276.150744 
L 198.922341 276.170585 
L 199.645402 276.824919 
L 200.368463 276.285482 
L 201.091525 276.580005 
L 201.814586 276.55259 
L 202.537647 276.733449 
L 203.260709 277.386161 
L 203.98377 276.771658 
L 204.706831 277.070089 
L 205.429893 277.049373 
L 206.152954 277.199375 
L 206.876015 277.842431 
L 207.599077 277.214976 
L 208.322138 277.623763 
L 209.045199 277.459258 
L 209.768261 277.614605 
L 210.491322 278.329757 
L 211.214383 277.74927 
L 211.937445 278.100771 
L 213.383568 278.085826 
L 214.106629 278.767791 
L 214.82969 278.19344 
L 215.552752 278.499594 
L 216.275813 278.3742 
L 216.998874 278.546411 
L 217.721936 279.212689 
L 218.444997 278.617305 
L 219.168058 278.9129 
L 219.89112 278.901746 
L 220.614181 279.064709 
L 221.337242 279.670571 
L 222.060304 279.04931 
L 222.783365 279.392371 
L 223.506426 279.302999 
L 224.229488 279.466021 
L 224.952549 280.059205 
L 225.67561 279.436185 
L 226.398672 279.82198 
L 227.121733 279.691338 
L 227.844794 279.88066 
L 228.567856 280.554324 
L 229.290917 279.869968 
L 230.013979 280.269226 
L 230.73704 280.186064 
L 231.460101 280.326696 
L 232.183163 280.992057 
L 232.906224 280.322644 
L 233.629285 280.720131 
L 234.352347 280.566693 
L 235.075408 280.742745 
L 235.798469 281.401354 
L 236.521531 280.765004 
L 237.244592 281.093746 
L 237.967653 280.948099 
L 238.690715 281.133941 
L 239.413776 281.805306 
L 240.136837 281.133741 
L 240.859899 281.439169 
L 241.58296 281.410405 
L 242.306021 281.538542 
L 243.029083 282.254358 
L 243.752144 281.481086 
L 244.475206 281.904802 
L 245.198267 281.815378 
L 245.921328 281.979956 
L 246.64439 282.605568 
L 247.367451 281.939089 
L 248.090512 282.271882 
L 248.813574 282.205066 
L 249.536635 282.315725 
L 250.259696 283.013413 
L 250.982758 282.326301 
L 251.705819 282.678137 
L 252.42888 282.530471 
L 253.151942 282.680086 
L 253.875003 283.34555 
L 254.598064 282.692856 
L 255.321126 283.085572 
L 256.044187 282.91374 
L 256.767248 283.088258 
L 257.49031 283.769862 
L 258.213371 283.081645 
L 258.936432 283.443993 
L 260.382555 283.428426 
L 261.105617 284.153429 
L 261.828678 283.451134 
L 262.551739 283.827019 
L 263.274801 283.685745 
L 263.997862 283.811735 
L 264.720923 284.513041 
L 265.443985 283.836889 
L 266.167046 284.198747 
L 266.890107 284.046821 
L 267.613169 284.208536 
L 268.33623 284.844201 
L 269.059291 284.223411 
L 269.782353 284.550033 
L 270.505414 284.45951 
L 271.228475 284.561482 
L 271.951537 285.259108 
L 272.674598 284.539439 
L 273.397659 284.82669 
L 274.120721 284.724495 
L 274.843782 284.891003 
L 275.566843 285.639436 
L 276.289905 284.898217 
L 277.012966 285.190009 
L 277.736028 285.089825 
L 278.459089 285.181142 
L 279.18215 285.929171 
L 279.905212 285.223298 
L 280.628273 285.540343 
L 281.351334 285.425727 
L 282.074396 285.615392 
L 282.797457 286.310547 
L 283.520518 285.581672 
L 284.24358 285.954074 
L 284.966641 285.825796 
L 285.689702 285.974501 
L 286.412764 286.688264 
L 287.135825 285.890064 
L 287.858886 286.336498 
L 288.581948 286.1573 
L 289.305009 286.252615 
L 290.02807 286.989752 
L 290.751132 286.293738 
L 291.474193 286.626525 
L 292.197255 286.510373 
L 292.920316 286.587152 
L 293.643377 287.304383 
L 294.366439 286.559334 
L 295.0895 286.93647 
L 295.812561 286.844233 
L 296.535623 286.992309 
L 297.258684 287.674118 
L 297.981745 286.916701 
L 298.704807 287.26167 
L 299.427868 287.135821 
L 300.150929 287.274787 
L 300.873991 288.004041 
L 301.597052 287.233016 
L 302.320113 287.602487 
L 303.043175 287.434307 
L 303.766236 287.605213 
L 304.489297 288.296039 
L 305.212359 287.55971 
L 305.93542 287.922042 
L 306.658481 287.799088 
L 307.381543 287.891966 
L 308.104604 288.630744 
L 308.827666 287.877228 
L 309.550727 288.205635 
L 310.273788 288.099775 
L 310.99685 288.231461 
L 311.719911 288.91452 
L 312.442972 288.209853 
L 313.166034 288.557788 
L 313.889095 288.335986 
L 314.612156 288.451923 
L 315.335218 289.219612 
L 316.058279 288.471826 
L 316.78134 288.830116 
L 317.504402 288.699994 
L 318.227463 288.790626 
L 318.950524 289.570092 
L 319.673586 288.799453 
L 320.396647 289.27176 
L 321.119708 289.025641 
L 321.84277 289.151888 
L 322.565831 289.834414 
L 323.288892 289.141541 
L 324.011954 289.49609 
L 324.735015 289.315095 
L 325.458077 289.48157 
L 326.181138 290.188336 
L 326.904199 289.425724 
L 327.627261 289.781124 
L 328.350322 289.619543 
L 329.073383 289.754434 
L 329.796445 290.468244 
L 330.519506 289.687839 
L 331.242567 290.062147 
L 331.965629 289.915817 
L 332.68869 289.959536 
L 333.411751 290.789534 
L 334.134813 289.91659 
L 334.857874 290.327914 
L 335.580935 290.178803 
L 336.303997 290.278869 
L 337.027058 291.017311 
L 337.750119 290.290389 
L 338.473181 290.588612 
L 339.196242 290.452507 
L 339.919304 290.625945 
L 340.642365 291.370264 
L 341.365426 290.623889 
L 342.088488 290.917915 
L 342.811549 290.669741 
L 343.53461 290.879556 
L 344.257672 291.56711 
L 344.980733 290.816394 
L 345.703794 291.234212 
L 346.426856 291.063255 
L 347.149917 291.21533 
L 347.872978 291.856712 
L 348.59604 291.071909 
L 349.319101 291.489708 
L 350.042162 291.261731 
L 350.765224 291.401799 
L 351.488285 292.120533 
L 352.211346 291.285862 
L 352.934408 291.731962 
L 353.657469 291.586745 
L 354.38053 291.728296 
L 355.103592 292.39948 
L 355.826653 291.653569 
L 356.549715 292.001512 
L 357.272776 291.898712 
L 357.995837 291.959272 
L 358.718899 292.716834 
L 359.44196 291.862434 
L 360.165021 292.295098 
L 360.888083 292.130427 
L 361.611144 292.225095 
L 362.334205 292.940297 
L 363.057267 292.150495 
L 363.780328 292.536945 
L 364.503389 292.350719 
L 365.226451 292.502888 
L 365.949512 293.225992 
L 366.672573 292.430469 
L 367.395635 292.810462 
L 368.118696 292.671086 
L 368.841757 292.716518 
L 369.564819 293.496618 
L 370.28788 292.623219 
L 371.010941 293.079683 
L 371.734003 292.868752 
L 372.457064 293.017793 
L 373.180126 293.698153 
L 373.903187 292.977078 
L 374.626248 293.335019 
L 375.34931 293.1802 
L 376.072371 293.280479 
L 376.795432 294.016351 
L 377.518494 293.228866 
L 378.241555 293.597725 
L 378.964616 293.396092 
L 379.687678 293.544082 
L 380.410739 294.260287 
L 381.1338 293.485664 
L 381.856862 293.893784 
L 382.579923 293.691486 
L 383.302984 293.763052 
L 384.026046 294.513595 
L 384.749107 293.690498 
L 385.472168 294.137249 
L 386.19523 293.882018 
L 386.918291 294.020291 
L 387.641353 294.757312 
L 388.364414 293.97836 
L 389.087475 294.257468 
L 389.810537 294.233669 
L 390.533598 294.355889 
L 391.256659 294.967223 
L 391.979721 294.166536 
L 392.702782 294.554374 
L 393.425843 294.330972 
L 394.148905 294.502768 
L 394.871966 295.182168 
L 395.595027 294.398656 
L 396.318089 294.821516 
L 397.04115 294.634646 
L 397.764211 294.766712 
L 398.487273 295.488 
L 398.487273 295.488 
" clip-path="url(#p5f8df82413)" style="fill: none; stroke: #dc143c; stroke-width: 2; stroke-linecap: square"/>
   </g>
   <g id="line2d_21">
    <path d="M 73.832727 253.692965 
L 76.724973 253.692965 
L 77.448034 247.74116 
L 80.340279 247.74116 
L 81.063341 244.285685 
L 83.955586 244.285685 
L 84.678647 242.285892 
L 87.570893 242.285892 
L 88.293954 241.02156 
L 91.1862 241.02156 
L 91.909261 240.002617 
L 94.801506 240.002617 
L 95.524568 239.279028 
L 98.416813 239.279028 
L 99.139874 238.786743 
L 102.03212 238.786743 
L 102.755181 238.457726 
L 105.647427 238.457726 
L 106.370488 238.18638 
L 109.262733 238.18638 
L 109.985795 238.010798 
L 112.87804 238.010798 
L 113.601101 237.869942 
L 120.108654 237.759827 
L 121.554776 237.664329 
L 130.954574 237.559263 
L 132.400696 237.494062 
L 141.800494 237.404765 
L 143.969678 237.355953 
L 159.877028 237.246015 
L 169.276825 237.200303 
L 329.796445 237.310241 
L 360.888083 237.326453 
L 398.487273 237.321847 
L 398.487273 237.321847 
" clip-path="url(#p5f8df82413)" style="fill: none; stroke: #ffff00; stroke-width: 3; stroke-linecap: square"/>
   </g>
   <g id="patch_3">
    <path d="M 57.6 307.584 
L 57.6 41.472 
" style="fill: none; stroke: #ffffff; stroke-linejoin: miter; stroke-linecap: square"/>
   </g>
   <g id="patch_4">
    <path d="M 414.72 307.584 
L 414.72 41.472 
" style="fill: none; stroke: #ffffff; stroke-linejoin: miter; stroke-linecap: square"/>
   </g>
   <g id="patch_5">
    <path d="M 57.6 307.584 
L 414.72 307.584 
" style="fill: none; stroke: #ffffff; stroke-linejoin: miter; stroke-linecap: square"/>
   </g>
   <g id="patch_6">
    <path d="M 57.6 41.472 
L 414.72 41.472 
" style="fill: none; stroke: #ffffff; stroke-linejoin: miter; stroke-linecap: square"/>
   </g>
   <g id="legend_1">
    <g id="patch_7">
     <path d="M 243.124687 302.584 
L 407.72 302.584 
Q 409.72 302.584 409.72 300.584 
L 409.72 257.549625 
Q 409.72 255.549625 407.72 255.549625 
L 243.124687 255.549625 
Q 241.124687 255.549625 241.124687 257.549625 
L 241.124687 300.584 
Q 241.124687 302.584 243.124687 302.584 
z
" style="fill: #e5e5e5; opacity: 0.8; stroke: #cccccc; stroke-width: 0.5; stroke-linejoin: miter"/>
    </g>
    <g id="line2d_22">
     <path d="M 245.124687 263.648062 
L 255.124687 263.648062 
L 265.124687 263.648062 
" style="fill: none; stroke: #6495ed; stroke-width: 2; stroke-linecap: square"/>
    </g>
    <g id="text_12">
     <!-- Generator loss -->
     <g transform="translate(273.124687 267.148062) scale(0.1 -0.1)">
      <defs>
       <path id="DejaVuSans-47" d="M 3809 666 
L 3809 1919 
L 2778 1919 
L 2778 2438 
L 4434 2438 
L 4434 434 
Q 4069 175 3628 42 
Q 3188 -91 2688 -91 
Q 1594 -91 976 548 
Q 359 1188 359 2328 
Q 359 3472 976 4111 
Q 1594 4750 2688 4750 
Q 3144 4750 3555 4637 
Q 3966 4525 4313 4306 
L 4313 3634 
Q 3963 3931 3569 4081 
Q 3175 4231 2741 4231 
Q 1884 4231 1454 3753 
Q 1025 3275 1025 2328 
Q 1025 1384 1454 906 
Q 1884 428 2741 428 
Q 3075 428 3337 486 
Q 3600 544 3809 666 
z
" transform="scale(0.015625)"/>
       <path id="DejaVuSans-65" d="M 3597 1894 
L 3597 1613 
L 953 1613 
Q 991 1019 1311 708 
Q 1631 397 2203 397 
Q 2534 397 2845 478 
Q 3156 559 3463 722 
L 3463 178 
Q 3153 47 2828 -22 
Q 2503 -91 2169 -91 
Q 1331 -91 842 396 
Q 353 884 353 1716 
Q 353 2575 817 3079 
Q 1281 3584 2069 3584 
Q 2775 3584 3186 3129 
Q 3597 2675 3597 1894 
z
M 3022 2063 
Q 3016 2534 2758 2815 
Q 2500 3097 2075 3097 
Q 1594 3097 1305 2825 
Q 1016 2553 972 2059 
L 3022 2063 
z
" transform="scale(0.015625)"/>
       <path id="DejaVuSans-6e" d="M 3513 2113 
L 3513 0 
L 2938 0 
L 2938 2094 
Q 2938 2591 2744 2837 
Q 2550 3084 2163 3084 
Q 1697 3084 1428 2787 
Q 1159 2491 1159 1978 
L 1159 0 
L 581 0 
L 581 3500 
L 1159 3500 
L 1159 2956 
Q 1366 3272 1645 3428 
Q 1925 3584 2291 3584 
Q 2894 3584 3203 3211 
Q 3513 2838 3513 2113 
z
" transform="scale(0.015625)"/>
       <path id="DejaVuSans-72" d="M 2631 2963 
Q 2534 3019 2420 3045 
Q 2306 3072 2169 3072 
Q 1681 3072 1420 2755 
Q 1159 2438 1159 1844 
L 1159 0 
L 581 0 
L 581 3500 
L 1159 3500 
L 1159 2956 
Q 1341 3275 1631 3429 
Q 1922 3584 2338 3584 
Q 2397 3584 2469 3576 
Q 2541 3569 2628 3553 
L 2631 2963 
z
" transform="scale(0.015625)"/>
       <path id="DejaVuSans-61" d="M 2194 1759 
Q 1497 1759 1228 1600 
Q 959 1441 959 1056 
Q 959 750 1161 570 
Q 1363 391 1709 391 
Q 2188 391 2477 730 
Q 2766 1069 2766 1631 
L 2766 1759 
L 2194 1759 
z
M 3341 1997 
L 3341 0 
L 2766 0 
L 2766 531 
Q 2569 213 2275 61 
Q 1981 -91 1556 -91 
Q 1019 -91 701 211 
Q 384 513 384 1019 
Q 384 1609 779 1909 
Q 1175 2209 1959 2209 
L 2766 2209 
L 2766 2266 
Q 2766 2663 2505 2880 
Q 2244 3097 1772 3097 
Q 1472 3097 1187 3025 
Q 903 2953 641 2809 
L 641 3341 
Q 956 3463 1253 3523 
Q 1550 3584 1831 3584 
Q 2591 3584 2966 3190 
Q 3341 2797 3341 1997 
z
" transform="scale(0.015625)"/>
       <path id="DejaVuSans-74" d="M 1172 4494 
L 1172 3500 
L 2356 3500 
L 2356 3053 
L 1172 3053 
L 1172 1153 
Q 1172 725 1289 603 
Q 1406 481 1766 481 
L 2356 481 
L 2356 0 
L 1766 0 
Q 1100 0 847 248 
Q 594 497 594 1153 
L 594 3053 
L 172 3053 
L 172 3500 
L 594 3500 
L 594 4494 
L 1172 4494 
z
" transform="scale(0.015625)"/>
       <path id="DejaVuSans-20" transform="scale(0.015625)"/>
       <path id="DejaVuSans-6c" d="M 603 4863 
L 1178 4863 
L 1178 0 
L 603 0 
L 603 4863 
z
" transform="scale(0.015625)"/>
      </defs>
      <use xlink:href="#DejaVuSans-47"/>
      <use xlink:href="#DejaVuSans-65" x="77.490234"/>
      <use xlink:href="#DejaVuSans-6e" x="139.013672"/>
      <use xlink:href="#DejaVuSans-65" x="202.392578"/>
      <use xlink:href="#DejaVuSans-72" x="263.916016"/>
      <use xlink:href="#DejaVuSans-61" x="305.029297"/>
      <use xlink:href="#DejaVuSans-74" x="366.308594"/>
      <use xlink:href="#DejaVuSans-6f" x="405.517578"/>
      <use xlink:href="#DejaVuSans-72" x="466.699219"/>
      <use xlink:href="#DejaVuSans-20" x="507.8125"/>
      <use xlink:href="#DejaVuSans-6c" x="539.599609"/>
      <use xlink:href="#DejaVuSans-6f" x="567.382812"/>
      <use xlink:href="#DejaVuSans-73" x="628.564453"/>
      <use xlink:href="#DejaVuSans-73" x="680.664062"/>
     </g>
    </g>
    <g id="line2d_23">
     <path d="M 245.124687 278.326188 
L 255.124687 278.326188 
L 265.124687 278.326188 
" style="fill: none; stroke: #dc143c; stroke-width: 2; stroke-linecap: square"/>
    </g>
    <g id="text_13">
     <!-- Average discriminator loss -->
     <g transform="translate(273.124687 281.826188) scale(0.1 -0.1)">
      <defs>
       <path id="DejaVuSans-41" d="M 2188 4044 
L 1331 1722 
L 3047 1722 
L 2188 4044 
z
M 1831 4666 
L 2547 4666 
L 4325 0 
L 3669 0 
L 3244 1197 
L 1141 1197 
L 716 0 
L 50 0 
L 1831 4666 
z
" transform="scale(0.015625)"/>
       <path id="DejaVuSans-76" d="M 191 3500 
L 800 3500 
L 1894 563 
L 2988 3500 
L 3597 3500 
L 2284 0 
L 1503 0 
L 191 3500 
z
" transform="scale(0.015625)"/>
       <path id="DejaVuSans-67" d="M 2906 1791 
Q 2906 2416 2648 2759 
Q 2391 3103 1925 3103 
Q 1463 3103 1205 2759 
Q 947 2416 947 1791 
Q 947 1169 1205 825 
Q 1463 481 1925 481 
Q 2391 481 2648 825 
Q 2906 1169 2906 1791 
z
M 3481 434 
Q 3481 -459 3084 -895 
Q 2688 -1331 1869 -1331 
Q 1566 -1331 1297 -1286 
Q 1028 -1241 775 -1147 
L 775 -588 
Q 1028 -725 1275 -790 
Q 1522 -856 1778 -856 
Q 2344 -856 2625 -561 
Q 2906 -266 2906 331 
L 2906 616 
Q 2728 306 2450 153 
Q 2172 0 1784 0 
Q 1141 0 747 490 
Q 353 981 353 1791 
Q 353 2603 747 3093 
Q 1141 3584 1784 3584 
Q 2172 3584 2450 3431 
Q 2728 3278 2906 2969 
L 2906 3500 
L 3481 3500 
L 3481 434 
z
" transform="scale(0.015625)"/>
       <path id="DejaVuSans-64" d="M 2906 2969 
L 2906 4863 
L 3481 4863 
L 3481 0 
L 2906 0 
L 2906 525 
Q 2725 213 2448 61 
Q 2172 -91 1784 -91 
Q 1150 -91 751 415 
Q 353 922 353 1747 
Q 353 2572 751 3078 
Q 1150 3584 1784 3584 
Q 2172 3584 2448 3432 
Q 2725 3281 2906 2969 
z
M 947 1747 
Q 947 1113 1208 752 
Q 1469 391 1925 391 
Q 2381 391 2643 752 
Q 2906 1113 2906 1747 
Q 2906 2381 2643 2742 
Q 2381 3103 1925 3103 
Q 1469 3103 1208 2742 
Q 947 2381 947 1747 
z
" transform="scale(0.015625)"/>
       <path id="DejaVuSans-69" d="M 603 3500 
L 1178 3500 
L 1178 0 
L 603 0 
L 603 3500 
z
M 603 4863 
L 1178 4863 
L 1178 4134 
L 603 4134 
L 603 4863 
z
" transform="scale(0.015625)"/>
       <path id="DejaVuSans-6d" d="M 3328 2828 
Q 3544 3216 3844 3400 
Q 4144 3584 4550 3584 
Q 5097 3584 5394 3201 
Q 5691 2819 5691 2113 
L 5691 0 
L 5113 0 
L 5113 2094 
Q 5113 2597 4934 2840 
Q 4756 3084 4391 3084 
Q 3944 3084 3684 2787 
Q 3425 2491 3425 1978 
L 3425 0 
L 2847 0 
L 2847 2094 
Q 2847 2600 2669 2842 
Q 2491 3084 2119 3084 
Q 1678 3084 1418 2786 
Q 1159 2488 1159 1978 
L 1159 0 
L 581 0 
L 581 3500 
L 1159 3500 
L 1159 2956 
Q 1356 3278 1631 3431 
Q 1906 3584 2284 3584 
Q 2666 3584 2933 3390 
Q 3200 3197 3328 2828 
z
" transform="scale(0.015625)"/>
      </defs>
      <use xlink:href="#DejaVuSans-41"/>
      <use xlink:href="#DejaVuSans-76" x="62.533203"/>
      <use xlink:href="#DejaVuSans-65" x="121.712891"/>
      <use xlink:href="#DejaVuSans-72" x="183.236328"/>
      <use xlink:href="#DejaVuSans-61" x="224.349609"/>
      <use xlink:href="#DejaVuSans-67" x="285.628906"/>
      <use xlink:href="#DejaVuSans-65" x="349.105469"/>
      <use xlink:href="#DejaVuSans-20" x="410.628906"/>
      <use xlink:href="#DejaVuSans-64" x="442.416016"/>
      <use xlink:href="#DejaVuSans-69" x="505.892578"/>
      <use xlink:href="#DejaVuSans-73" x="533.675781"/>
      <use xlink:href="#DejaVuSans-63" x="585.775391"/>
      <use xlink:href="#DejaVuSans-72" x="640.755859"/>
      <use xlink:href="#DejaVuSans-69" x="681.869141"/>
      <use xlink:href="#DejaVuSans-6d" x="709.652344"/>
      <use xlink:href="#DejaVuSans-69" x="807.064453"/>
      <use xlink:href="#DejaVuSans-6e" x="834.847656"/>
      <use xlink:href="#DejaVuSans-61" x="898.226562"/>
      <use xlink:href="#DejaVuSans-74" x="959.505859"/>
      <use xlink:href="#DejaVuSans-6f" x="998.714844"/>
      <use xlink:href="#DejaVuSans-72" x="1059.896484"/>
      <use xlink:href="#DejaVuSans-20" x="1101.009766"/>
      <use xlink:href="#DejaVuSans-6c" x="1132.796875"/>
      <use xlink:href="#DejaVuSans-6f" x="1160.580078"/>
      <use xlink:href="#DejaVuSans-73" x="1221.761719"/>
      <use xlink:href="#DejaVuSans-73" x="1273.861328"/>
     </g>
    </g>
    <g id="line2d_24">
     <path d="M 245.124687 293.004312 
L 255.124687 293.004312 
L 265.124687 293.004312 
" style="fill: none; stroke: #ffff00; stroke-width: 3; stroke-linecap: square"/>
    </g>
    <g id="text_14">
     <!-- ROC AUC -->
     <g transform="translate(273.124687 296.504312) scale(0.1 -0.1)">
      <defs>
       <path id="DejaVuSans-52" d="M 2841 2188 
Q 3044 2119 3236 1894 
Q 3428 1669 3622 1275 
L 4263 0 
L 3584 0 
L 2988 1197 
Q 2756 1666 2539 1819 
Q 2322 1972 1947 1972 
L 1259 1972 
L 1259 0 
L 628 0 
L 628 4666 
L 2053 4666 
Q 2853 4666 3247 4331 
Q 3641 3997 3641 3322 
Q 3641 2881 3436 2590 
Q 3231 2300 2841 2188 
z
M 1259 4147 
L 1259 2491 
L 2053 2491 
Q 2509 2491 2742 2702 
Q 2975 2913 2975 3322 
Q 2975 3731 2742 3939 
Q 2509 4147 2053 4147 
L 1259 4147 
z
" transform="scale(0.015625)"/>
       <path id="DejaVuSans-4f" d="M 2522 4238 
Q 1834 4238 1429 3725 
Q 1025 3213 1025 2328 
Q 1025 1447 1429 934 
Q 1834 422 2522 422 
Q 3209 422 3611 934 
Q 4013 1447 4013 2328 
Q 4013 3213 3611 3725 
Q 3209 4238 2522 4238 
z
M 2522 4750 
Q 3503 4750 4090 4092 
Q 4678 3434 4678 2328 
Q 4678 1225 4090 567 
Q 3503 -91 2522 -91 
Q 1538 -91 948 565 
Q 359 1222 359 2328 
Q 359 3434 948 4092 
Q 1538 4750 2522 4750 
z
" transform="scale(0.015625)"/>
       <path id="DejaVuSans-43" d="M 4122 4306 
L 4122 3641 
Q 3803 3938 3442 4084 
Q 3081 4231 2675 4231 
Q 1875 4231 1450 3742 
Q 1025 3253 1025 2328 
Q 1025 1406 1450 917 
Q 1875 428 2675 428 
Q 3081 428 3442 575 
Q 3803 722 4122 1019 
L 4122 359 
Q 3791 134 3420 21 
Q 3050 -91 2638 -91 
Q 1578 -91 968 557 
Q 359 1206 359 2328 
Q 359 3453 968 4101 
Q 1578 4750 2638 4750 
Q 3056 4750 3426 4639 
Q 3797 4528 4122 4306 
z
" transform="scale(0.015625)"/>
       <path id="DejaVuSans-55" d="M 556 4666 
L 1191 4666 
L 1191 1831 
Q 1191 1081 1462 751 
Q 1734 422 2344 422 
Q 2950 422 3222 751 
Q 3494 1081 3494 1831 
L 3494 4666 
L 4128 4666 
L 4128 1753 
Q 4128 841 3676 375 
Q 3225 -91 2344 -91 
Q 1459 -91 1007 375 
Q 556 841 556 1753 
L 556 4666 
z
" transform="scale(0.015625)"/>
      </defs>
      <use xlink:href="#DejaVuSans-52"/>
      <use xlink:href="#DejaVuSans-4f" x="69.482422"/>
      <use xlink:href="#DejaVuSans-43" x="148.193359"/>
      <use xlink:href="#DejaVuSans-20" x="218.017578"/>
      <use xlink:href="#DejaVuSans-41" x="249.804688"/>
      <use xlink:href="#DejaVuSans-55" x="318.212891"/>
      <use xlink:href="#DejaVuSans-43" x="391.40625"/>
     </g>
    </g>
   </g>
  </g>
 </g>
 <defs>
  <clipPath id="p5f8df82413">
   <rect x="57.6" y="41.472" width="357.12" height="266.112"/>
  </clipPath>
 </defs>
</svg>
