<?xml version="1.0" encoding="utf-8" standalone="no"?>
<!DOCTYPE svg PUBLIC "-//W3C//DTD SVG 1.1//EN"
  "http://www.w3.org/Graphics/SVG/1.1/DTD/svg11.dtd">
<svg xmlns:xlink="http://www.w3.org/1999/xlink" width="460.8pt" height="345.6pt" viewBox="0 0 460.8 345.6" xmlns="http://www.w3.org/2000/svg" version="1.1">
 <metadata>
  <rdf:RDF xmlns:dc="http://purl.org/dc/elements/1.1/" xmlns:cc="http://creativecommons.org/ns#" xmlns:rdf="http://www.w3.org/1999/02/22-rdf-syntax-ns#">
   <cc:Work>
    <dc:type rdf:resource="http://purl.org/dc/dcmitype/StillImage"/>
    <dc:date>2023-07-12T19:25:28.357097</dc:date>
    <dc:format>image/svg+xml</dc:format>
    <dc:creator>
     <cc:Agent>
      <dc:title>Matplotlib v3.7.1, https://matplotlib.org/</dc:title>
     </cc:Agent>
    </dc:creator>
   </cc:Work>
  </rdf:RDF>
 </metadata>
 <defs>
  <style type="text/css">*{stroke-linejoin: round; stroke-linecap: butt}</style>
 </defs>
 <g id="figure_1">
  <g id="patch_1">
   <path d="M 0 345.6 
L 460.8 345.6 
L 460.8 0 
L 0 0 
z
" style="fill: #ffffff"/>
  </g>
  <g id="axes_1">
   <g id="patch_2">
    <path d="M 57.6 307.584 
L 414.72 307.584 
L 414.72 41.472 
L 57.6 41.472 
z
" style="fill: #e5e5e5"/>
   </g>
   <g id="matplotlib.axis_1">
    <g id="xtick_1">
     <g id="line2d_1">
      <path d="M 73.2304 307.584 
L 73.2304 41.472 
" clip-path="url(#pdd3d3f1a64)" style="fill: none; stroke: #ffffff; stroke-width: 0.8; stroke-linecap: square"/>
     </g>
     <g id="line2d_2">
      <defs>
       <path id="md90a7bd617" d="M 0 0 
L 0 3.5 
" style="stroke: #555555; stroke-width: 0.8"/>
      </defs>
      <g>
       <use xlink:href="#md90a7bd617" x="73.2304" y="307.584" style="fill: #555555; stroke: #555555; stroke-width: 0.8"/>
      </g>
     </g>
     <g id="text_1">
      <!-- 0 -->
      <g style="fill: #555555" transform="translate(70.04915 322.182437) scale(0.1 -0.1)">
       <defs>
        <path id="DejaVuSans-30" d="M 2034 4250 
Q 1547 4250 1301 3770 
Q 1056 3291 1056 2328 
Q 1056 1369 1301 889 
Q 1547 409 2034 409 
Q 2525 409 2770 889 
Q 3016 1369 3016 2328 
Q 3016 3291 2770 3770 
Q 2525 4250 2034 4250 
z
M 2034 4750 
Q 2819 4750 3233 4129 
Q 3647 3509 3647 2328 
Q 3647 1150 3233 529 
Q 2819 -91 2034 -91 
Q 1250 -91 836 529 
Q 422 1150 422 2328 
Q 422 3509 836 4129 
Q 1250 4750 2034 4750 
z
" transform="scale(0.015625)"/>
       </defs>
       <use xlink:href="#DejaVuSans-30"/>
      </g>
     </g>
    </g>
    <g id="xtick_2">
     <g id="line2d_3">
      <path d="M 133.463154 307.584 
L 133.463154 41.472 
" clip-path="url(#pdd3d3f1a64)" style="fill: none; stroke: #ffffff; stroke-width: 0.8; stroke-linecap: square"/>
     </g>
     <g id="line2d_4">
      <g>
       <use xlink:href="#md90a7bd617" x="133.463154" y="307.584" style="fill: #555555; stroke: #555555; stroke-width: 0.8"/>
      </g>
     </g>
     <g id="text_2">
      <!-- 100 -->
      <g style="fill: #555555" transform="translate(123.919404 322.182437) scale(0.1 -0.1)">
       <defs>
        <path id="DejaVuSans-31" d="M 794 531 
L 1825 531 
L 1825 4091 
L 703 3866 
L 703 4441 
L 1819 4666 
L 2450 4666 
L 2450 531 
L 3481 531 
L 3481 0 
L 794 0 
L 794 531 
z
" transform="scale(0.015625)"/>
       </defs>
       <use xlink:href="#DejaVuSans-31"/>
       <use xlink:href="#DejaVuSans-30" x="63.623047"/>
       <use xlink:href="#DejaVuSans-30" x="127.246094"/>
      </g>
     </g>
    </g>
    <g id="xtick_3">
     <g id="line2d_5">
      <path d="M 193.695908 307.584 
L 193.695908 41.472 
" clip-path="url(#pdd3d3f1a64)" style="fill: none; stroke: #ffffff; stroke-width: 0.8; stroke-linecap: square"/>
     </g>
     <g id="line2d_6">
      <g>
       <use xlink:href="#md90a7bd617" x="193.695908" y="307.584" style="fill: #555555; stroke: #555555; stroke-width: 0.8"/>
      </g>
     </g>
     <g id="text_3">
      <!-- 200 -->
      <g style="fill: #555555" transform="translate(184.152158 322.182437) scale(0.1 -0.1)">
       <defs>
        <path id="DejaVuSans-32" d="M 1228 531 
L 3431 531 
L 3431 0 
L 469 0 
L 469 531 
Q 828 903 1448 1529 
Q 2069 2156 2228 2338 
Q 2531 2678 2651 2914 
Q 2772 3150 2772 3378 
Q 2772 3750 2511 3984 
Q 2250 4219 1831 4219 
Q 1534 4219 1204 4116 
Q 875 4013 500 3803 
L 500 4441 
Q 881 4594 1212 4672 
Q 1544 4750 1819 4750 
Q 2544 4750 2975 4387 
Q 3406 4025 3406 3419 
Q 3406 3131 3298 2873 
Q 3191 2616 2906 2266 
Q 2828 2175 2409 1742 
Q 1991 1309 1228 531 
z
" transform="scale(0.015625)"/>
       </defs>
       <use xlink:href="#DejaVuSans-32"/>
       <use xlink:href="#DejaVuSans-30" x="63.623047"/>
       <use xlink:href="#DejaVuSans-30" x="127.246094"/>
      </g>
     </g>
    </g>
    <g id="xtick_4">
     <g id="line2d_7">
      <path d="M 253.928663 307.584 
L 253.928663 41.472 
" clip-path="url(#pdd3d3f1a64)" style="fill: none; stroke: #ffffff; stroke-width: 0.8; stroke-linecap: square"/>
     </g>
     <g id="line2d_8">
      <g>
       <use xlink:href="#md90a7bd617" x="253.928663" y="307.584" style="fill: #555555; stroke: #555555; stroke-width: 0.8"/>
      </g>
     </g>
     <g id="text_4">
      <!-- 300 -->
      <g style="fill: #555555" transform="translate(244.384913 322.182437) scale(0.1 -0.1)">
       <defs>
        <path id="DejaVuSans-33" d="M 2597 2516 
Q 3050 2419 3304 2112 
Q 3559 1806 3559 1356 
Q 3559 666 3084 287 
Q 2609 -91 1734 -91 
Q 1441 -91 1130 -33 
Q 819 25 488 141 
L 488 750 
Q 750 597 1062 519 
Q 1375 441 1716 441 
Q 2309 441 2620 675 
Q 2931 909 2931 1356 
Q 2931 1769 2642 2001 
Q 2353 2234 1838 2234 
L 1294 2234 
L 1294 2753 
L 1863 2753 
Q 2328 2753 2575 2939 
Q 2822 3125 2822 3475 
Q 2822 3834 2567 4026 
Q 2313 4219 1838 4219 
Q 1578 4219 1281 4162 
Q 984 4106 628 3988 
L 628 4550 
Q 988 4650 1302 4700 
Q 1616 4750 1894 4750 
Q 2613 4750 3031 4423 
Q 3450 4097 3450 3541 
Q 3450 3153 3228 2886 
Q 3006 2619 2597 2516 
z
" transform="scale(0.015625)"/>
       </defs>
       <use xlink:href="#DejaVuSans-33"/>
       <use xlink:href="#DejaVuSans-30" x="63.623047"/>
       <use xlink:href="#DejaVuSans-30" x="127.246094"/>
      </g>
     </g>
    </g>
    <g id="xtick_5">
     <g id="line2d_9">
      <path d="M 314.161417 307.584 
L 314.161417 41.472 
" clip-path="url(#pdd3d3f1a64)" style="fill: none; stroke: #ffffff; stroke-width: 0.8; stroke-linecap: square"/>
     </g>
     <g id="line2d_10">
      <g>
       <use xlink:href="#md90a7bd617" x="314.161417" y="307.584" style="fill: #555555; stroke: #555555; stroke-width: 0.8"/>
      </g>
     </g>
     <g id="text_5">
      <!-- 400 -->
      <g style="fill: #555555" transform="translate(304.617667 322.182437) scale(0.1 -0.1)">
       <defs>
        <path id="DejaVuSans-34" d="M 2419 4116 
L 825 1625 
L 2419 1625 
L 2419 4116 
z
M 2253 4666 
L 3047 4666 
L 3047 1625 
L 3713 1625 
L 3713 1100 
L 3047 1100 
L 3047 0 
L 2419 0 
L 2419 1100 
L 313 1100 
L 313 1709 
L 2253 4666 
z
" transform="scale(0.015625)"/>
       </defs>
       <use xlink:href="#DejaVuSans-34"/>
       <use xlink:href="#DejaVuSans-30" x="63.623047"/>
       <use xlink:href="#DejaVuSans-30" x="127.246094"/>
      </g>
     </g>
    </g>
    <g id="xtick_6">
     <g id="line2d_11">
      <path d="M 374.394171 307.584 
L 374.394171 41.472 
" clip-path="url(#pdd3d3f1a64)" style="fill: none; stroke: #ffffff; stroke-width: 0.8; stroke-linecap: square"/>
     </g>
     <g id="line2d_12">
      <g>
       <use xlink:href="#md90a7bd617" x="374.394171" y="307.584" style="fill: #555555; stroke: #555555; stroke-width: 0.8"/>
      </g>
     </g>
     <g id="text_6">
      <!-- 500 -->
      <g style="fill: #555555" transform="translate(364.850421 322.182437) scale(0.1 -0.1)">
       <defs>
        <path id="DejaVuSans-35" d="M 691 4666 
L 3169 4666 
L 3169 4134 
L 1269 4134 
L 1269 2991 
Q 1406 3038 1543 3061 
Q 1681 3084 1819 3084 
Q 2600 3084 3056 2656 
Q 3513 2228 3513 1497 
Q 3513 744 3044 326 
Q 2575 -91 1722 -91 
Q 1428 -91 1123 -41 
Q 819 9 494 109 
L 494 744 
Q 775 591 1075 516 
Q 1375 441 1709 441 
Q 2250 441 2565 725 
Q 2881 1009 2881 1497 
Q 2881 1984 2565 2268 
Q 2250 2553 1709 2553 
Q 1456 2553 1204 2497 
Q 953 2441 691 2322 
L 691 4666 
z
" transform="scale(0.015625)"/>
       </defs>
       <use xlink:href="#DejaVuSans-35"/>
       <use xlink:href="#DejaVuSans-30" x="63.623047"/>
       <use xlink:href="#DejaVuSans-30" x="127.246094"/>
      </g>
     </g>
    </g>
    <g id="text_7">
     <!-- Epoch -->
     <g style="fill: #555555" transform="translate(217.786875 337.38025) scale(0.12 -0.12)">
      <defs>
       <path id="DejaVuSans-45" d="M 628 4666 
L 3578 4666 
L 3578 4134 
L 1259 4134 
L 1259 2753 
L 3481 2753 
L 3481 2222 
L 1259 2222 
L 1259 531 
L 3634 531 
L 3634 0 
L 628 0 
L 628 4666 
z
" transform="scale(0.015625)"/>
       <path id="DejaVuSans-70" d="M 1159 525 
L 1159 -1331 
L 581 -1331 
L 581 3500 
L 1159 3500 
L 1159 2969 
Q 1341 3281 1617 3432 
Q 1894 3584 2278 3584 
Q 2916 3584 3314 3078 
Q 3713 2572 3713 1747 
Q 3713 922 3314 415 
Q 2916 -91 2278 -91 
Q 1894 -91 1617 61 
Q 1341 213 1159 525 
z
M 3116 1747 
Q 3116 2381 2855 2742 
Q 2594 3103 2138 3103 
Q 1681 3103 1420 2742 
Q 1159 2381 1159 1747 
Q 1159 1113 1420 752 
Q 1681 391 2138 391 
Q 2594 391 2855 752 
Q 3116 1113 3116 1747 
z
" transform="scale(0.015625)"/>
       <path id="DejaVuSans-6f" d="M 1959 3097 
Q 1497 3097 1228 2736 
Q 959 2375 959 1747 
Q 959 1119 1226 758 
Q 1494 397 1959 397 
Q 2419 397 2687 759 
Q 2956 1122 2956 1747 
Q 2956 2369 2687 2733 
Q 2419 3097 1959 3097 
z
M 1959 3584 
Q 2709 3584 3137 3096 
Q 3566 2609 3566 1747 
Q 3566 888 3137 398 
Q 2709 -91 1959 -91 
Q 1206 -91 779 398 
Q 353 888 353 1747 
Q 353 2609 779 3096 
Q 1206 3584 1959 3584 
z
" transform="scale(0.015625)"/>
       <path id="DejaVuSans-63" d="M 3122 3366 
L 3122 2828 
Q 2878 2963 2633 3030 
Q 2388 3097 2138 3097 
Q 1578 3097 1268 2742 
Q 959 2388 959 1747 
Q 959 1106 1268 751 
Q 1578 397 2138 397 
Q 2388 397 2633 464 
Q 2878 531 3122 666 
L 3122 134 
Q 2881 22 2623 -34 
Q 2366 -91 2075 -91 
Q 1284 -91 818 406 
Q 353 903 353 1747 
Q 353 2603 823 3093 
Q 1294 3584 2113 3584 
Q 2378 3584 2631 3529 
Q 2884 3475 3122 3366 
z
" transform="scale(0.015625)"/>
       <path id="DejaVuSans-68" d="M 3513 2113 
L 3513 0 
L 2938 0 
L 2938 2094 
Q 2938 2591 2744 2837 
Q 2550 3084 2163 3084 
Q 1697 3084 1428 2787 
Q 1159 2491 1159 1978 
L 1159 0 
L 581 0 
L 581 4863 
L 1159 4863 
L 1159 2956 
Q 1366 3272 1645 3428 
Q 1925 3584 2291 3584 
Q 2894 3584 3203 3211 
Q 3513 2838 3513 2113 
z
" transform="scale(0.015625)"/>
      </defs>
      <use xlink:href="#DejaVuSans-45"/>
      <use xlink:href="#DejaVuSans-70" x="63.183594"/>
      <use xlink:href="#DejaVuSans-6f" x="126.660156"/>
      <use xlink:href="#DejaVuSans-63" x="187.841797"/>
      <use xlink:href="#DejaVuSans-68" x="242.822266"/>
     </g>
    </g>
   </g>
   <g id="matplotlib.axis_2">
    <g id="ytick_1">
     <g id="line2d_13">
      <path d="M 57.6 267.710891 
L 414.72 267.710891 
" clip-path="url(#pdd3d3f1a64)" style="fill: none; stroke: #ffffff; stroke-width: 0.8; stroke-linecap: square"/>
     </g>
     <g id="line2d_14">
      <defs>
       <path id="mfdbd6db2e3" d="M 0 0 
L -3.5 0 
" style="stroke: #555555; stroke-width: 0.8"/>
      </defs>
      <g>
       <use xlink:href="#mfdbd6db2e3" x="57.6" y="267.710891" style="fill: #555555; stroke: #555555; stroke-width: 0.8"/>
      </g>
     </g>
     <g id="text_8">
      <!-- 0.60 -->
      <g style="fill: #555555" transform="translate(28.334375 271.510109) scale(0.1 -0.1)">
       <defs>
        <path id="DejaVuSans-2e" d="M 684 794 
L 1344 794 
L 1344 0 
L 684 0 
L 684 794 
z
" transform="scale(0.015625)"/>
        <path id="DejaVuSans-36" d="M 2113 2584 
Q 1688 2584 1439 2293 
Q 1191 2003 1191 1497 
Q 1191 994 1439 701 
Q 1688 409 2113 409 
Q 2538 409 2786 701 
Q 3034 994 3034 1497 
Q 3034 2003 2786 2293 
Q 2538 2584 2113 2584 
z
M 3366 4563 
L 3366 3988 
Q 3128 4100 2886 4159 
Q 2644 4219 2406 4219 
Q 1781 4219 1451 3797 
Q 1122 3375 1075 2522 
Q 1259 2794 1537 2939 
Q 1816 3084 2150 3084 
Q 2853 3084 3261 2657 
Q 3669 2231 3669 1497 
Q 3669 778 3244 343 
Q 2819 -91 2113 -91 
Q 1303 -91 875 529 
Q 447 1150 447 2328 
Q 447 3434 972 4092 
Q 1497 4750 2381 4750 
Q 2619 4750 2861 4703 
Q 3103 4656 3366 4563 
z
" transform="scale(0.015625)"/>
       </defs>
       <use xlink:href="#DejaVuSans-30"/>
       <use xlink:href="#DejaVuSans-2e" x="63.623047"/>
       <use xlink:href="#DejaVuSans-36" x="95.410156"/>
       <use xlink:href="#DejaVuSans-30" x="159.033203"/>
      </g>
     </g>
    </g>
    <g id="ytick_2">
     <g id="line2d_15">
      <path d="M 57.6 219.339334 
L 414.72 219.339334 
" clip-path="url(#pdd3d3f1a64)" style="fill: none; stroke: #ffffff; stroke-width: 0.8; stroke-linecap: square"/>
     </g>
     <g id="line2d_16">
      <g>
       <use xlink:href="#mfdbd6db2e3" x="57.6" y="219.339334" style="fill: #555555; stroke: #555555; stroke-width: 0.8"/>
      </g>
     </g>
     <g id="text_9">
      <!-- 0.65 -->
      <g style="fill: #555555" transform="translate(28.334375 223.138553) scale(0.1 -0.1)">
       <use xlink:href="#DejaVuSans-30"/>
       <use xlink:href="#DejaVuSans-2e" x="63.623047"/>
       <use xlink:href="#DejaVuSans-36" x="95.410156"/>
       <use xlink:href="#DejaVuSans-35" x="159.033203"/>
      </g>
     </g>
    </g>
    <g id="ytick_3">
     <g id="line2d_17">
      <path d="M 57.6 170.967778 
L 414.72 170.967778 
" clip-path="url(#pdd3d3f1a64)" style="fill: none; stroke: #ffffff; stroke-width: 0.8; stroke-linecap: square"/>
     </g>
     <g id="line2d_18">
      <g>
       <use xlink:href="#mfdbd6db2e3" x="57.6" y="170.967778" style="fill: #555555; stroke: #555555; stroke-width: 0.8"/>
      </g>
     </g>
     <g id="text_10">
      <!-- 0.70 -->
      <g style="fill: #555555" transform="translate(28.334375 174.766997) scale(0.1 -0.1)">
       <defs>
        <path id="DejaVuSans-37" d="M 525 4666 
L 3525 4666 
L 3525 4397 
L 1831 0 
L 1172 0 
L 2766 4134 
L 525 4134 
L 525 4666 
z
" transform="scale(0.015625)"/>
       </defs>
       <use xlink:href="#DejaVuSans-30"/>
       <use xlink:href="#DejaVuSans-2e" x="63.623047"/>
       <use xlink:href="#DejaVuSans-37" x="95.410156"/>
       <use xlink:href="#DejaVuSans-30" x="159.033203"/>
      </g>
     </g>
    </g>
    <g id="ytick_4">
     <g id="line2d_19">
      <path d="M 57.6 122.596222 
L 414.72 122.596222 
" clip-path="url(#pdd3d3f1a64)" style="fill: none; stroke: #ffffff; stroke-width: 0.8; stroke-linecap: square"/>
     </g>
     <g id="line2d_20">
      <g>
       <use xlink:href="#mfdbd6db2e3" x="57.6" y="122.596222" style="fill: #555555; stroke: #555555; stroke-width: 0.8"/>
      </g>
     </g>
     <g id="text_11">
      <!-- 0.75 -->
      <g style="fill: #555555" transform="translate(28.334375 126.395441) scale(0.1 -0.1)">
       <use xlink:href="#DejaVuSans-30"/>
       <use xlink:href="#DejaVuSans-2e" x="63.623047"/>
       <use xlink:href="#DejaVuSans-37" x="95.410156"/>
       <use xlink:href="#DejaVuSans-35" x="159.033203"/>
      </g>
     </g>
    </g>
    <g id="ytick_5">
     <g id="line2d_21">
      <path d="M 57.6 74.224666 
L 414.72 74.224666 
" clip-path="url(#pdd3d3f1a64)" style="fill: none; stroke: #ffffff; stroke-width: 0.8; stroke-linecap: square"/>
     </g>
     <g id="line2d_22">
      <g>
       <use xlink:href="#mfdbd6db2e3" x="57.6" y="74.224666" style="fill: #555555; stroke: #555555; stroke-width: 0.8"/>
      </g>
     </g>
     <g id="text_12">
      <!-- 0.80 -->
      <g style="fill: #555555" transform="translate(28.334375 78.023885) scale(0.1 -0.1)">
       <defs>
        <path id="DejaVuSans-38" d="M 2034 2216 
Q 1584 2216 1326 1975 
Q 1069 1734 1069 1313 
Q 1069 891 1326 650 
Q 1584 409 2034 409 
Q 2484 409 2743 651 
Q 3003 894 3003 1313 
Q 3003 1734 2745 1975 
Q 2488 2216 2034 2216 
z
M 1403 2484 
Q 997 2584 770 2862 
Q 544 3141 544 3541 
Q 544 4100 942 4425 
Q 1341 4750 2034 4750 
Q 2731 4750 3128 4425 
Q 3525 4100 3525 3541 
Q 3525 3141 3298 2862 
Q 3072 2584 2669 2484 
Q 3125 2378 3379 2068 
Q 3634 1759 3634 1313 
Q 3634 634 3220 271 
Q 2806 -91 2034 -91 
Q 1263 -91 848 271 
Q 434 634 434 1313 
Q 434 1759 690 2068 
Q 947 2378 1403 2484 
z
M 1172 3481 
Q 1172 3119 1398 2916 
Q 1625 2713 2034 2713 
Q 2441 2713 2670 2916 
Q 2900 3119 2900 3481 
Q 2900 3844 2670 4047 
Q 2441 4250 2034 4250 
Q 1625 4250 1398 4047 
Q 1172 3844 1172 3481 
z
" transform="scale(0.015625)"/>
       </defs>
       <use xlink:href="#DejaVuSans-30"/>
       <use xlink:href="#DejaVuSans-2e" x="63.623047"/>
       <use xlink:href="#DejaVuSans-38" x="95.410156"/>
       <use xlink:href="#DejaVuSans-30" x="159.033203"/>
      </g>
     </g>
    </g>
    <g id="text_13">
     <!-- Loss -->
     <g style="fill: #555555" transform="translate(21.83875 187.688625) rotate(-90) scale(0.12 -0.12)">
      <defs>
       <path id="DejaVuSans-4c" d="M 628 4666 
L 1259 4666 
L 1259 531 
L 3531 531 
L 3531 0 
L 628 0 
L 628 4666 
z
" transform="scale(0.015625)"/>
       <path id="DejaVuSans-73" d="M 2834 3397 
L 2834 2853 
Q 2591 2978 2328 3040 
Q 2066 3103 1784 3103 
Q 1356 3103 1142 2972 
Q 928 2841 928 2578 
Q 928 2378 1081 2264 
Q 1234 2150 1697 2047 
L 1894 2003 
Q 2506 1872 2764 1633 
Q 3022 1394 3022 966 
Q 3022 478 2636 193 
Q 2250 -91 1575 -91 
Q 1294 -91 989 -36 
Q 684 19 347 128 
L 347 722 
Q 666 556 975 473 
Q 1284 391 1588 391 
Q 1994 391 2212 530 
Q 2431 669 2431 922 
Q 2431 1156 2273 1281 
Q 2116 1406 1581 1522 
L 1381 1569 
Q 847 1681 609 1914 
Q 372 2147 372 2553 
Q 372 3047 722 3315 
Q 1072 3584 1716 3584 
Q 2034 3584 2315 3537 
Q 2597 3491 2834 3397 
z
" transform="scale(0.015625)"/>
      </defs>
      <use xlink:href="#DejaVuSans-4c"/>
      <use xlink:href="#DejaVuSans-6f" x="53.962891"/>
      <use xlink:href="#DejaVuSans-73" x="115.144531"/>
      <use xlink:href="#DejaVuSans-73" x="167.244141"/>
     </g>
    </g>
   </g>
   <g id="line2d_23">
    <path d="M 73.832727 137.804652 
L 74.435055 137.570481 
L 75.037382 138.711294 
L 75.63971 141.003529 
L 76.242037 140.906597 
L 76.844365 140.456303 
L 77.446693 143.920085 
L 78.04902 144.767564 
L 78.651348 147.304638 
L 79.253675 144.897826 
L 80.45833 147.613714 
L 81.060658 151.023523 
L 81.662985 150.382133 
L 82.265313 148.670338 
L 82.86764 152.608055 
L 83.469968 152.388185 
L 84.072295 151.070346 
L 84.674623 152.479408 
L 85.276951 151.224999 
L 85.879278 155.998259 
L 86.481606 155.675113 
L 87.083933 154.976521 
L 87.686261 155.844701 
L 88.288588 155.389333 
L 88.890916 156.668884 
L 89.493243 156.852023 
L 90.095571 158.182894 
L 90.697898 158.316788 
L 91.300226 159.075408 
L 91.902554 161.346596 
L 92.504881 158.244132 
L 93.107209 160.499463 
L 93.709536 159.001137 
L 94.311864 161.750874 
L 94.914191 161.909679 
L 95.516519 162.705433 
L 96.118846 163.837481 
L 96.721174 164.225556 
L 97.323501 165.271339 
L 97.925829 164.383092 
L 98.528157 164.244873 
L 99.130484 161.849363 
L 99.732812 165.264938 
L 100.937467 166.807549 
L 101.539794 165.396353 
L 102.744449 167.993685 
L 103.346777 168.312737 
L 104.551432 170.964907 
L 105.153759 168.631096 
L 105.756087 169.906322 
L 106.358415 169.276292 
L 106.960742 170.295204 
L 107.56307 170.10232 
L 108.165397 169.326574 
L 108.767725 169.33309 
L 109.370052 168.362327 
L 109.97238 170.464158 
L 110.574707 169.735581 
L 111.177035 170.744921 
L 111.779362 168.795264 
L 112.38169 168.787537 
L 112.984018 169.525167 
L 113.586345 171.088364 
L 114.188673 170.530874 
L 114.791 171.270638 
L 115.393328 171.618348 
L 115.995655 170.300048 
L 116.597983 173.0943 
L 117.802638 171.807772 
L 118.404965 173.840637 
L 119.007293 173.02718 
L 119.609621 171.459658 
L 120.211948 172.326628 
L 120.814276 174.844615 
L 121.416603 174.042459 
L 122.018931 174.041537 
L 122.621258 173.707666 
L 123.223586 174.279283 
L 123.825913 175.452271 
L 124.428241 173.551802 
L 125.030568 174.232057 
L 125.632896 172.977013 
L 126.235223 173.911563 
L 126.837551 173.222486 
L 127.439879 172.980992 
L 128.644534 175.271497 
L 129.246861 174.8889 
L 129.849189 174.771613 
L 130.451516 172.766138 
L 131.053844 174.854648 
L 131.656171 174.271787 
L 132.258499 174.196132 
L 132.860826 172.869009 
L 133.463154 174.490446 
L 134.065482 172.045922 
L 134.667809 173.656576 
L 135.270137 172.98572 
L 135.872464 173.517665 
L 136.474792 172.160153 
L 137.077119 174.06045 
L 137.679447 174.984448 
L 138.281774 173.850267 
L 138.884102 177.545625 
L 139.486429 174.856609 
L 140.691084 175.562812 
L 141.293412 174.457059 
L 141.89574 174.61967 
L 142.498067 175.435722 
L 143.100395 176.725248 
L 143.702722 175.127973 
L 144.30505 176.542225 
L 144.907377 176.660089 
L 145.509705 176.584031 
L 146.112032 175.027062 
L 146.71436 174.822991 
L 147.316687 175.289949 
L 147.919015 173.703168 
L 148.521343 176.36664 
L 149.12367 175.540612 
L 149.725998 175.918365 
L 150.328325 174.247683 
L 150.930653 174.187483 
L 151.53298 174.387459 
L 152.135308 175.9175 
L 152.737635 175.725654 
L 153.339963 173.480991 
L 153.94229 175.551164 
L 154.544618 176.59072 
L 155.146946 173.121921 
L 155.749273 175.474414 
L 156.351601 173.973955 
L 156.953928 176.501976 
L 157.556256 175.281127 
L 158.158583 175.190249 
L 158.760911 174.874773 
L 159.363238 175.89922 
L 159.965566 175.883248 
L 161.170221 174.078326 
L 161.772548 176.472049 
L 162.374876 174.9047 
L 162.977204 173.725887 
L 163.579531 174.834178 
L 164.181859 174.825701 
L 164.784186 173.409373 
L 165.386514 175.126762 
L 165.988841 174.888208 
L 166.591169 175.942872 
L 167.193496 174.757255 
L 169.000479 174.371487 
L 169.602807 176.33233 
L 170.205134 175.574749 
L 170.807462 174.166493 
L 171.409789 175.080804 
L 172.012117 174.043036 
L 172.614444 172.664362 
L 173.216772 175.096777 
L 173.819099 174.254949 
L 175.023754 175.229057 
L 175.626082 174.263887 
L 176.22841 174.306442 
L 176.830737 174.763886 
L 177.433065 173.507285 
L 178.035392 174.479894 
L 178.63772 174.626013 
L 179.240047 172.477475 
L 179.842375 174.346057 
L 181.04703 173.041481 
L 181.649357 173.189964 
L 182.854012 174.989292 
L 184.058668 172.504692 
L 184.660995 170.089346 
L 185.263323 171.875008 
L 185.86565 172.910527 
L 186.467978 169.682934 
L 187.070305 172.076138 
L 187.672633 171.27058 
L 188.27496 170.259683 
L 188.877288 171.772886 
L 189.479615 169.608491 
L 190.081943 171.022224 
L 190.684271 169.29682 
L 191.286598 168.938384 
L 191.888926 167.359388 
L 192.491253 169.033875 
L 193.093581 168.298379 
L 193.695908 168.277504 
L 194.298236 165.796768 
L 195.502891 166.456033 
L 196.105218 167.869421 
L 196.707546 167.218516 
L 197.309874 166.947325 
L 198.514529 165.71108 
L 199.116856 166.291289 
L 199.719184 163.364641 
L 200.321511 166.622565 
L 200.923839 165.902176 
L 201.526166 162.743837 
L 202.128494 165.248562 
L 202.730821 165.547835 
L 203.333149 163.706758 
L 203.935476 162.88419 
L 204.537804 164.112478 
L 205.140132 162.85138 
L 205.742459 164.174812 
L 206.344787 160.80208 
L 206.947114 164.337999 
L 207.549442 161.666858 
L 208.151769 161.655671 
L 208.754097 161.787202 
L 209.356424 163.617495 
L 209.958752 161.589186 
L 210.561079 161.234729 
L 211.163407 162.109598 
L 211.765735 160.720371 
L 212.368062 161.981585 
L 212.97039 160.363493 
L 213.572717 161.544208 
L 214.175045 159.443935 
L 215.3797 159.956966 
L 215.982027 160.507882 
L 216.584355 159.60199 
L 217.186682 159.529853 
L 217.78901 160.703245 
L 218.391337 158.446473 
L 218.993665 157.914298 
L 219.595993 158.853404 
L 220.19832 159.123845 
L 220.800648 158.025876 
L 221.402975 158.996236 
L 222.005303 158.741191 
L 222.60763 158.813904 
L 223.812285 157.112892 
L 224.414613 158.598359 
L 225.01694 158.054478 
L 226.221596 154.736353 
L 226.823923 156.145646 
L 227.426251 157.212592 
L 228.028578 156.62062 
L 228.630906 156.214727 
L 229.233233 154.039376 
L 229.835561 155.256708 
L 230.437888 155.542026 
L 231.040216 156.920758 
L 231.642543 155.555289 
L 232.244871 156.118429 
L 232.847199 154.467872 
L 233.449526 154.452707 
L 234.051854 156.760915 
L 235.256509 153.64663 
L 235.858836 153.331212 
L 236.461164 155.242292 
L 237.063491 153.952073 
L 237.665819 154.150032 
L 238.268146 153.588679 
L 238.870474 155.407843 
L 239.472801 155.501143 
L 240.075129 152.552006 
L 240.677457 154.708905 
L 241.279784 154.398619 
L 241.882112 155.359983 
L 242.484439 152.856238 
L 243.086767 152.725746 
L 243.689094 153.047393 
L 244.291422 151.820431 
L 244.893749 153.729493 
L 245.496077 151.567058 
L 246.098404 152.701124 
L 246.700732 150.598717 
L 247.30306 154.060365 
L 247.905387 152.601712 
L 248.507715 150.246682 
L 249.110042 152.769109 
L 250.314697 150.656784 
L 250.917025 151.650093 
L 251.519352 151.190112 
L 252.12168 151.530038 
L 252.724007 152.522886 
L 253.326335 151.977679 
L 253.928663 148.761676 
L 254.53099 151.366505 
L 255.133318 152.737048 
L 255.735645 152.171832 
L 256.337973 151.23434 
L 256.9403 151.407388 
L 257.542628 147.777651 
L 258.144955 152.232839 
L 258.747283 150.188961 
L 259.34961 149.282838 
L 260.554265 151.690688 
L 261.156593 149.865584 
L 261.758921 150.702857 
L 262.361248 148.495445 
L 262.963576 150.020814 
L 263.565903 149.573865 
L 264.168231 148.356591 
L 264.770558 150.031943 
L 265.372886 150.516316 
L 265.975213 150.461305 
L 266.577541 149.466496 
L 267.179868 147.737402 
L 267.782196 149.482757 
L 268.384524 148.339523 
L 268.986851 150.159437 
L 269.589179 148.918233 
L 270.191506 148.895744 
L 270.793834 147.889114 
L 271.396161 149.3277 
L 271.998489 148.823895 
L 272.600816 146.613139 
L 273.203144 147.193809 
L 273.805471 148.175528 
L 274.407799 147.306426 
L 275.010126 147.140528 
L 275.612454 146.196867 
L 276.214782 147.595434 
L 276.817109 146.576522 
L 277.419437 148.20436 
L 278.021764 145.384274 
L 278.624092 145.969731 
L 279.226419 146.310925 
L 279.828747 149.207991 
L 280.431074 147.408605 
L 281.033402 146.215261 
L 281.635729 147.121384 
L 282.238057 146.949086 
L 282.840385 146.177203 
L 283.442712 147.740631 
L 284.04504 145.007905 
L 284.647367 144.942457 
L 285.249695 145.736136 
L 285.852022 147.633608 
L 286.45435 148.954734 
L 287.056677 145.927175 
L 287.659005 145.571046 
L 288.261332 146.278749 
L 288.86366 147.214856 
L 290.068315 144.186144 
L 290.670643 146.535466 
L 291.27297 147.942914 
L 291.875298 146.672647 
L 292.477625 144.688046 
L 293.079953 143.307758 
L 293.68228 146.114062 
L 294.284608 146.121039 
L 294.886935 144.309256 
L 295.489263 143.555826 
L 296.693918 145.781517 
L 297.296246 144.424986 
L 297.898573 144.27979 
L 298.500901 145.470712 
L 299.103228 142.025324 
L 299.705556 144.172363 
L 300.307883 145.282729 
L 300.910211 145.839123 
L 301.512538 145.076006 
L 302.114866 145.344832 
L 302.717193 146.188967 
L 303.319521 142.959125 
L 303.921849 144.675937 
L 304.524176 144.92314 
L 305.126504 147.20119 
L 305.728831 142.799051 
L 306.331159 144.165097 
L 306.933486 144.637014 
L 307.535814 141.679517 
L 308.138141 142.011543 
L 308.740469 141.769991 
L 309.342796 143.606397 
L 309.945124 144.556286 
L 310.547452 142.994069 
L 311.149779 142.421818 
L 311.752107 143.373263 
L 312.354434 143.723799 
L 312.956762 143.244213 
L 313.559089 141.429027 
L 314.161417 141.381801 
L 314.763744 139.411616 
L 315.366072 142.386355 
L 315.968399 140.8389 
L 316.570727 140.726341 
L 317.173054 142.879492 
L 317.775382 141.960395 
L 318.37771 140.383301 
L 318.980037 140.645439 
L 319.582365 143.371015 
L 320.184692 141.249925 
L 320.78702 142.406479 
L 321.389347 140.732742 
L 321.991675 140.093774 
L 322.594002 141.229742 
L 323.19633 141.852507 
L 323.798657 141.946671 
L 324.400985 140.177616 
L 325.003313 139.848877 
L 325.60564 138.340807 
L 326.207968 143.580333 
L 326.810295 141.47856 
L 328.01495 138.722481 
L 328.617278 139.344496 
L 329.219605 141.336535 
L 330.42426 138.798193 
L 331.026588 139.208814 
L 331.628916 137.552721 
L 332.231243 139.722537 
L 332.833571 140.186266 
L 333.435898 136.885152 
L 334.038226 141.32333 
L 334.640553 139.030634 
L 335.242881 137.19244 
L 335.845208 139.035131 
L 336.447536 138.512989 
L 337.049863 140.924703 
L 337.652191 137.516854 
L 338.254518 136.250509 
L 338.856846 139.206853 
L 339.459174 140.42528 
L 340.061501 136.819416 
L 340.663829 137.789775 
L 341.266156 137.452156 
L 341.868484 136.12832 
L 342.470811 136.222311 
L 343.073139 138.094642 
L 343.675466 137.314052 
L 344.277794 137.23984 
L 344.880121 139.279221 
L 345.482449 137.175487 
L 346.084777 138.907753 
L 346.687104 137.372004 
L 347.289432 136.532079 
L 348.494087 140.671849 
L 349.096414 138.48214 
L 349.698742 138.662568 
L 351.505724 137.312265 
L 352.108052 135.661593 
L 353.915035 137.071174 
L 354.517362 134.072101 
L 355.11969 135.193135 
L 355.722017 137.36618 
L 356.324345 136.192211 
L 356.926672 137.735456 
L 357.529 135.555434 
L 358.131327 137.645328 
L 358.733655 134.109467 
L 359.335982 136.806153 
L 359.93831 134.405165 
L 361.142965 137.673353 
L 361.745293 134.068641 
L 362.34762 137.120592 
L 362.949948 134.774268 
L 363.552275 134.486701 
L 364.154603 133.77525 
L 364.75693 135.192962 
L 365.359258 136.967841 
L 365.961585 136.868314 
L 366.563913 133.747168 
L 367.166241 136.731594 
L 367.768568 133.634494 
L 368.370896 135.857475 
L 368.973223 136.212682 
L 369.575551 136.041133 
L 370.177878 134.94772 
L 370.780206 133.412028 
L 371.382533 135.419003 
L 371.984861 133.739556 
L 373.189516 135.344848 
L 373.791843 136.387517 
L 374.394171 134.110447 
L 374.996499 135.609292 
L 375.598826 134.439705 
L 376.201154 129.914802 
L 376.803481 133.289148 
L 377.405809 137.642042 
L 378.008136 132.986588 
L 378.610464 132.196196 
L 379.212791 133.405512 
L 379.815119 131.47327 
L 380.417446 131.343066 
L 381.019774 131.731429 
L 381.622102 132.852982 
L 382.224429 135.322935 
L 382.826757 133.735174 
L 383.429084 132.836548 
L 384.031412 131.611777 
L 384.633739 132.86832 
L 385.236067 131.660734 
L 385.838394 133.04552 
L 386.440722 131.792956 
L 387.043049 132.98284 
L 387.645377 133.38683 
L 388.247705 132.976151 
L 388.850032 132.806563 
L 389.45236 133.519282 
L 390.054687 133.840986 
L 390.657015 130.531339 
L 391.259342 132.959602 
L 391.86167 132.663558 
L 392.463997 130.564091 
L 393.066325 132.142281 
L 393.668652 131.822825 
L 394.27098 130.380318 
L 394.873307 133.963521 
L 395.475635 133.693714 
L 396.68029 130.841049 
L 397.282618 131.840355 
L 397.884945 131.233736 
L 398.487273 128.772605 
L 398.487273 128.772605 
" clip-path="url(#pdd3d3f1a64)" style="fill: none; stroke: #6495ed; stroke-width: 2; stroke-linecap: square"/>
   </g>
   <g id="line2d_24">
    <path d="M 73.832727 173.736865 
L 74.435055 176.389121 
L 75.037382 175.941581 
L 75.63971 175.309446 
L 76.242037 176.302497 
L 76.844365 177.616472 
L 77.446693 174.882319 
L 78.04902 176.884176 
L 78.651348 175.581373 
L 79.253675 177.210097 
L 79.856003 177.312103 
L 80.45833 177.711638 
L 81.060658 174.84424 
L 81.662985 177.54435 
L 82.265313 177.976782 
L 82.86764 176.677474 
L 83.469968 177.275667 
L 84.072295 178.871069 
L 84.674623 176.891218 
L 85.276951 180.124152 
L 85.879278 177.24383 
L 87.686261 179.064868 
L 88.288588 177.722313 
L 88.890916 179.68932 
L 89.493243 178.903223 
L 90.095571 178.593521 
L 91.300226 179.439356 
L 91.902554 176.799267 
L 92.504881 180.806151 
L 93.107209 179.044492 
L 93.709536 180.036359 
L 94.311864 179.001792 
L 94.914191 179.749679 
L 95.516519 177.667173 
L 96.118846 179.586455 
L 96.721174 178.814299 
L 97.323501 178.517484 
L 98.528157 180.064081 
L 99.130484 179.575543 
L 99.732812 180.379478 
L 100.335139 179.087725 
L 100.937467 179.160597 
L 101.539794 179.975099 
L 102.142122 180.212846 
L 102.744449 177.810545 
L 103.346777 180.139613 
L 103.949104 178.725836 
L 104.551432 178.319771 
L 105.153759 179.613132 
L 105.756087 179.70078 
L 106.358415 178.168491 
L 106.960742 180.110983 
L 107.56307 179.555144 
L 108.767725 180.329275 
L 109.370052 181.400841 
L 109.97238 178.522926 
L 110.574707 181.437457 
L 111.177035 180.092495 
L 111.779362 181.239225 
L 112.984018 181.552993 
L 113.586345 179.084827 
L 114.188673 181.912113 
L 114.791 180.659095 
L 115.393328 180.695632 
L 115.995655 181.332777 
L 116.597983 180.632736 
L 117.20031 179.008906 
L 117.802638 181.864051 
L 118.404965 180.058524 
L 119.007293 180.546544 
L 119.609621 181.363562 
L 120.211948 181.542866 
L 120.814276 178.361065 
L 121.416603 181.350198 
L 122.018931 180.390665 
L 122.621258 180.704707 
L 123.223586 180.464215 
L 123.825913 180.529093 
L 124.428241 179.351578 
L 125.030568 181.636108 
L 126.235223 181.073522 
L 126.837551 181.417722 
L 127.439879 182.050924 
L 128.042206 179.55797 
L 128.644534 181.62087 
L 129.246861 180.861047 
L 129.849189 181.149458 
L 130.451516 182.120603 
L 131.053844 181.709751 
L 131.656171 179.94941 
L 132.258499 182.586054 
L 132.860826 182.262556 
L 133.463154 181.48965 
L 134.065482 182.733017 
L 134.667809 182.519395 
L 135.270137 180.75579 
L 135.872464 183.163373 
L 136.474792 182.775933 
L 137.077119 182.06366 
L 137.679447 181.738374 
L 138.281774 182.91186 
L 138.884102 178.805426 
L 139.486429 182.860604 
L 140.088757 181.746807 
L 140.691084 181.511122 
L 141.293412 182.2342 
L 141.89574 182.708503 
L 142.498067 180.18787 
L 143.100395 182.270354 
L 143.702722 182.21378 
L 144.30505 181.597682 
L 144.907377 181.560763 
L 145.509705 182.143855 
L 146.112032 180.853709 
L 146.71436 183.69317 
L 147.316687 182.50023 
L 147.919015 183.421316 
L 148.521343 182.107902 
L 149.12367 182.996884 
L 149.725998 180.706329 
L 150.328325 184.282526 
L 150.930653 183.142809 
L 151.53298 183.264111 
L 152.135308 182.566074 
L 152.737635 183.147162 
L 153.339963 182.155741 
L 153.94229 183.811034 
L 154.544618 182.322835 
L 155.146946 184.057552 
L 155.749273 182.973711 
L 156.351601 184.209026 
L 156.953928 180.818592 
L 157.556256 184.108065 
L 158.158583 183.114986 
L 158.760911 183.500286 
L 159.363238 182.944713 
L 159.965566 183.462192 
L 160.567893 181.784656 
L 161.170221 185.016523 
L 161.772548 182.782773 
L 162.374876 183.699585 
L 162.977204 184.29594 
L 163.579531 184.141431 
L 164.181859 182.073463 
L 164.784186 185.571266 
L 165.386514 183.738536 
L 165.988841 183.882471 
L 166.591169 183.406756 
L 167.193496 184.484484 
L 167.795824 182.464204 
L 168.398151 185.339654 
L 169.602807 183.453968 
L 170.205134 183.762265 
L 170.807462 184.949266 
L 171.409789 182.475881 
L 172.012117 185.684099 
L 172.614444 185.432449 
L 173.216772 184.376668 
L 174.421427 184.838257 
L 175.023754 182.501678 
L 175.626082 185.713897 
L 176.22841 184.645812 
L 176.830737 184.563599 
L 177.433065 185.160826 
L 178.035392 185.050616 
L 178.63772 182.97121 
L 179.240047 186.863806 
L 179.842375 184.909759 
L 181.649357 185.868089 
L 182.251685 183.362059 
L 182.854012 185.678232 
L 183.45634 185.202747 
L 184.058668 185.689094 
L 184.660995 186.657551 
L 185.263323 186.188928 
L 185.86565 183.522299 
L 186.467978 187.795826 
L 187.070305 185.515845 
L 188.27496 186.353571 
L 188.877288 185.71141 
L 189.479615 184.693219 
L 190.081943 186.640468 
L 190.684271 186.349866 
L 191.286598 186.539636 
L 191.888926 187.145441 
L 192.491253 186.576051 
L 193.093581 184.862727 
L 193.695908 187.612039 
L 194.298236 187.792388 
L 195.502891 187.42335 
L 196.105218 186.985944 
L 196.707546 184.991584 
L 197.309874 188.012532 
L 197.912201 187.258807 
L 198.514529 187.541423 
L 199.116856 187.172269 
L 199.719184 188.840925 
L 200.321511 185.186039 
L 200.923839 188.356437 
L 201.526166 188.800928 
L 202.128494 187.557395 
L 202.730821 187.275486 
L 203.333149 188.494879 
L 203.935476 186.844438 
L 204.537804 189.008603 
L 205.742459 187.899599 
L 206.344787 189.397715 
L 206.947114 187.924408 
L 207.549442 187.20585 
L 208.151769 189.956574 
L 209.356424 187.963389 
L 209.958752 188.918258 
L 210.561079 189.355657 
L 211.163407 186.740219 
L 211.765735 190.301848 
L 212.368062 188.625963 
L 212.97039 189.482365 
L 213.572717 188.815423 
L 214.175045 190.095615 
L 214.777372 187.879798 
L 215.3797 190.59911 
L 215.982027 189.355981 
L 216.584355 189.838717 
L 217.186682 189.794187 
L 217.78901 189.49717 
L 218.391337 188.487239 
L 218.993665 191.617287 
L 219.595993 190.200793 
L 220.19832 190.127078 
L 220.800648 190.579 
L 221.402975 190.335567 
L 222.005303 188.506787 
L 222.60763 191.248969 
L 223.209958 190.63657 
L 223.812285 191.119313 
L 224.414613 190.280333 
L 225.01694 190.764683 
L 225.619268 189.46805 
L 226.221596 193.168937 
L 226.823923 191.512851 
L 227.426251 191.054954 
L 228.028578 191.27716 
L 228.630906 191.704186 
L 229.233233 190.485859 
L 229.835561 192.888476 
L 230.437888 191.721831 
L 231.040216 191.079035 
L 231.642543 191.61284 
L 232.244871 191.608623 
L 232.847199 190.352246 
L 233.449526 193.304532 
L 234.051854 191.132136 
L 234.654181 191.981345 
L 235.858836 192.957975 
L 236.461164 190.073847 
L 237.063491 193.605052 
L 237.665819 192.513095 
L 238.268146 192.759613 
L 238.870474 191.881674 
L 239.472801 192.067869 
L 240.075129 191.433463 
L 240.677457 193.30193 
L 241.279784 192.460657 
L 241.882112 191.992798 
L 242.484439 193.144278 
L 243.086767 193.404557 
L 243.689094 191.300391 
L 244.291422 194.813907 
L 244.893749 192.873188 
L 245.496077 193.984225 
L 246.098404 193.275751 
L 246.700732 194.491605 
L 247.30306 190.830564 
L 247.905387 194.501458 
L 248.507715 194.598117 
L 249.110042 193.56871 
L 249.71237 193.94554 
L 250.314697 194.559079 
L 250.917025 192.125265 
L 251.519352 195.391125 
L 252.12168 194.168467 
L 252.724007 193.7314 
L 253.326335 193.981832 
L 253.928663 195.597488 
L 254.53099 192.43326 
L 255.133318 194.645927 
L 255.735645 193.912297 
L 256.337973 194.473074 
L 256.9403 194.218511 
L 257.542628 196.161984 
L 258.144955 192.123795 
L 258.747283 195.948918 
L 260.554265 194.328036 
L 261.156593 195.303318 
L 261.758921 192.932099 
L 262.361248 196.866429 
L 262.963576 195.173756 
L 264.168231 195.89044 
L 264.770558 195.483913 
L 265.372886 193.178437 
L 265.975213 196.173005 
L 266.577541 195.57208 
L 267.179868 196.452773 
L 267.782196 195.505947 
L 268.384524 196.228138 
L 268.986851 193.404283 
L 269.589179 197.036427 
L 270.191506 195.989664 
L 270.793834 196.540702 
L 271.396161 195.769707 
L 271.998489 196.138616 
L 272.600816 195.221465 
L 273.203144 197.970488 
L 273.805471 196.54293 
L 274.407799 196.988235 
L 275.010126 196.937679 
L 275.612454 197.535454 
L 276.214782 194.876861 
L 276.817109 198.322112 
L 277.419437 196.551313 
L 278.021764 197.972729 
L 278.624092 197.548046 
L 279.226419 197.585534 
L 279.828747 194.263236 
L 280.431074 198.156777 
L 281.635729 197.373319 
L 282.238057 197.33245 
L 282.840385 197.883906 
L 283.442712 195.192987 
L 284.04504 199.414271 
L 284.647367 198.563714 
L 285.249695 198.388382 
L 285.852022 197.382155 
L 286.45435 196.967606 
L 287.056677 196.358003 
L 287.659005 199.568859 
L 288.261332 198.155912 
L 288.86366 197.815143 
L 290.068315 199.179228 
L 290.670643 196.212958 
L 291.27297 198.548297 
L 291.875298 198.1562 
L 292.477625 199.130192 
L 293.079953 199.548562 
L 293.68228 198.486575 
L 294.284608 196.569714 
L 294.886935 200.328084 
L 296.693918 198.716414 
L 297.296246 199.482703 
L 297.898573 197.604549 
L 298.500901 200.12769 
L 299.103228 200.697166 
L 299.705556 199.83383 
L 300.307883 199.185153 
L 300.910211 199.064658 
L 301.512538 197.459187 
L 302.114866 200.39315 
L 302.717193 199.088812 
L 303.319521 200.638443 
L 303.921849 199.691113 
L 304.524176 199.745742 
L 305.126504 196.727719 
L 305.728831 201.564222 
L 306.331159 200.037043 
L 306.933486 199.891068 
L 307.535814 201.00475 
L 308.138141 200.961625 
L 308.740469 199.124902 
L 309.342796 201.328868 
L 309.945124 199.866676 
L 310.547452 200.638976 
L 311.149779 200.781845 
L 311.752107 200.43012 
L 312.354434 198.338748 
L 312.956762 201.534395 
L 313.559089 201.379403 
L 314.161417 201.528398 
L 314.763744 202.157578 
L 315.968399 199.713566 
L 316.570727 202.835497 
L 317.173054 200.882547 
L 318.37771 201.911651 
L 318.980037 201.860121 
L 319.582365 198.654455 
L 320.184692 202.766734 
L 320.78702 201.202045 
L 321.389347 202.068827 
L 321.991675 202.083891 
L 322.594002 201.737507 
L 323.19633 199.439729 
L 323.798657 202.536289 
L 324.400985 202.37254 
L 325.003313 202.605702 
L 325.60564 203.07759 
L 326.207968 200.811332 
L 326.810295 199.84715 
L 327.412623 203.475568 
L 328.617278 202.968938 
L 329.219605 201.848178 
L 329.821933 202.458948 
L 330.42426 201.184213 
L 331.026588 204.026852 
L 331.628916 203.90844 
L 332.231243 203.027264 
L 332.833571 202.656863 
L 333.435898 204.320128 
L 334.038226 200.27267 
L 334.640553 204.406623 
L 335.242881 204.348866 
L 335.845208 203.573711 
L 336.447536 203.535798 
L 337.049863 202.524 
L 337.652191 202.093089 
L 338.254518 205.828977 
L 338.856846 203.665576 
L 339.459174 203.235343 
L 340.061501 204.550969 
L 340.663829 204.189073 
L 341.266156 202.474582 
L 341.868484 206.205865 
L 342.470811 205.083512 
L 343.073139 204.440356 
L 344.277794 204.724096 
L 344.880121 201.806429 
L 345.482449 205.877573 
L 346.084777 204.25992 
L 346.687104 204.992706 
L 347.289432 205.217543 
L 347.891759 204.419129 
L 348.494087 201.525998 
L 349.096414 205.646962 
L 349.698742 204.534737 
L 350.301069 204.834413 
L 350.903397 204.837916 
L 351.505724 205.041475 
L 352.108052 203.919411 
L 352.710379 206.831448 
L 353.312707 205.580923 
L 353.915035 205.538699 
L 354.517362 206.641447 
L 355.11969 206.134528 
L 355.722017 203.223565 
L 356.324345 206.943992 
L 356.926672 205.274616 
L 357.529 206.360244 
L 358.131327 205.089321 
L 358.733655 206.761747 
L 359.335982 203.663061 
L 359.93831 207.803862 
L 360.540638 205.974743 
L 361.142965 205.417066 
L 361.745293 206.970258 
L 362.34762 205.557022 
L 362.949948 204.692878 
L 363.552275 207.96529 
L 364.75693 206.894762 
L 365.359258 205.93138 
L 365.961585 205.938934 
L 366.563913 205.402967 
L 367.166241 207.234407 
L 367.768568 207.595113 
L 368.370896 206.759823 
L 368.973223 206.29835 
L 369.575551 206.414239 
L 370.177878 204.884472 
L 370.780206 208.88025 
L 371.382533 207.071003 
L 371.984861 207.925863 
L 372.587188 207.275261 
L 373.189516 206.919629 
L 373.791843 204.49399 
L 374.394171 208.728458 
L 374.996499 207.163812 
L 375.598826 207.735602 
L 376.201154 209.584298 
L 376.803481 208.117118 
L 377.405809 204.168841 
L 378.008136 209.444911 
L 378.610464 208.706373 
L 379.212791 208.321311 
L 379.815119 209.063446 
L 380.417446 209.018231 
L 381.019774 206.933944 
L 381.622102 209.591974 
L 382.224429 207.625566 
L 382.826757 208.409615 
L 383.429084 208.464561 
L 384.031412 209.048756 
L 384.633739 206.526034 
L 385.236067 210.350565 
L 385.838394 208.759856 
L 386.440722 209.382274 
L 387.043049 208.642294 
L 387.645377 208.326422 
L 388.247705 206.709987 
L 388.850032 209.923849 
L 389.45236 208.75871 
L 390.054687 208.615769 
L 390.657015 209.934041 
L 391.259342 208.643102 
L 391.86167 206.852949 
L 392.463997 211.070846 
L 393.066325 209.360535 
L 394.27098 209.990688 
L 395.475635 206.442422 
L 396.077963 210.543982 
L 397.282618 209.901951 
L 397.884945 209.701131 
L 398.487273 210.841598 
L 398.487273 210.841598 
" clip-path="url(#pdd3d3f1a64)" style="fill: none; stroke: #dc143c; stroke-width: 2; stroke-linecap: square"/>
   </g>
   <g id="line2d_25">
    <path d="M 73.832727 295.488 
L 76.844365 295.488 
L 77.446693 286.901796 
L 80.45833 286.901796 
L 81.060658 278.455945 
L 84.072295 278.455945 
L 84.674623 270.244501 
L 87.686261 270.244501 
L 88.288588 262.281932 
L 91.300226 262.281932 
L 91.902554 254.135601 
L 94.914191 254.135601 
L 95.516519 246.362583 
L 98.528157 246.362583 
L 99.130484 238.424612 
L 102.142122 238.424612 
L 102.744449 231.168155 
L 105.756087 231.168155 
L 106.358415 223.617967 
L 109.370052 223.617967 
L 109.97238 216.354276 
L 112.984018 216.354276 
L 113.586345 208.666627 
L 116.597983 208.666627 
L 117.20031 201.893452 
L 120.211948 201.893452 
L 120.814276 194.124775 
L 123.825913 194.124775 
L 124.428241 186.470406 
L 127.439879 186.470406 
L 128.042206 179.348516 
L 131.053844 179.348516 
L 131.656171 172.359745 
L 134.667809 172.359745 
L 135.270137 165.683515 
L 138.281774 165.683515 
L 138.884102 159.335743 
L 141.89574 159.335743 
L 142.498067 152.66096 
L 145.509705 152.66096 
L 146.112032 146.216242 
L 149.12367 146.216242 
L 149.725998 139.755608 
L 152.737635 139.755608 
L 153.339963 132.988221 
L 156.351601 132.988221 
L 156.953928 127.336432 
L 159.965566 127.336432 
L 160.567893 122.020336 
L 163.579531 122.020336 
L 164.181859 116.730285 
L 167.193496 116.730285 
L 167.795824 111.929303 
L 170.807462 111.929303 
L 171.409789 106.998095 
L 174.421427 106.998095 
L 175.023754 102.123319 
L 178.035392 102.123319 
L 178.63772 97.989381 
L 181.649357 97.989381 
L 182.251685 93.612356 
L 185.263323 93.612356 
L 185.86565 89.110893 
L 188.877288 89.110893 
L 189.479615 84.981296 
L 192.491253 84.981296 
L 193.093581 81.29736 
L 196.105218 81.29736 
L 196.707546 77.630787 
L 199.719184 77.630787 
L 200.321511 74.501033 
L 203.333149 74.501033 
L 203.935476 71.599898 
L 206.947114 71.599898 
L 207.549442 69.114036 
L 210.561079 69.114036 
L 211.163407 66.714993 
L 214.175045 66.714993 
L 214.777372 64.787654 
L 217.78901 64.787654 
L 218.391337 62.86321 
L 221.402975 62.86321 
L 222.005303 61.479925 
L 225.01694 61.479925 
L 225.619268 60.021399 
L 228.630906 60.021399 
L 229.233233 58.423966 
L 232.244871 58.423966 
L 232.847199 57.694703 
L 235.858836 57.694703 
L 236.461164 57.107241 
L 239.472801 57.107241 
L 240.075129 55.938105 
L 243.086767 55.938105 
L 243.689094 55.796304 
L 246.700732 55.796304 
L 247.30306 55.286977 
L 250.314697 55.286977 
L 250.917025 54.705303 
L 253.928663 54.705303 
L 254.53099 54.549032 
L 257.542628 54.549032 
L 258.144955 54.363823 
L 261.156593 54.363823 
L 261.758921 53.964464 
L 264.770558 53.964464 
L 265.372886 53.568 
L 271.998489 53.66784 
L 274.407799 53.699672 
L 282.840385 53.721377 
L 283.442712 54.224916 
L 286.45435 54.224916 
L 287.056677 54.399997 
L 290.068315 54.399997 
L 290.670643 54.771863 
L 293.68228 54.771863 
L 294.284608 55.246463 
L 297.296246 55.246463 
L 297.898573 55.851288 
L 300.910211 55.851288 
L 301.512538 56.568975 
L 308.138141 56.600808 
L 308.740469 57.095665 
L 311.752107 57.095665 
L 312.354434 57.450168 
L 315.366072 57.450168 
L 315.968399 58.325573 
L 318.980037 58.325573 
L 319.582365 58.907247 
L 322.594002 58.907247 
L 323.19633 59.500497 
L 326.207968 59.500497 
L 326.810295 59.937476 
L 329.821933 59.937476 
L 330.42426 60.472848 
L 333.435898 60.472848 
L 334.038226 61.400343 
L 337.049863 61.400343 
L 337.652191 62.463852 
L 340.663829 62.463852 
L 341.266156 63.059995 
L 344.277794 63.059995 
L 344.880121 63.407264 
L 347.891759 63.407264 
L 348.494087 64.075755 
L 351.505724 64.075755 
L 352.108052 64.640065 
L 355.11969 64.640065 
L 355.722017 65.168202 
L 358.733655 65.168202 
L 359.335982 65.939427 
L 362.34762 65.939427 
L 362.949948 66.545699 
L 365.961585 66.545699 
L 366.563913 67.287985 
L 369.575551 67.287985 
L 370.177878 67.939113 
L 373.189516 67.939113 
L 373.791843 68.468697 
L 376.803481 68.468697 
L 377.405809 69.114036 
L 380.417446 69.114036 
L 381.019774 69.663878 
L 384.031412 69.663878 
L 384.633739 70.306324 
L 387.645377 70.306324 
L 388.247705 70.980603 
L 391.259342 70.980603 
L 391.86167 71.42337 
L 394.873307 71.42337 
L 395.475635 71.756168 
L 398.487273 71.756168 
L 398.487273 71.756168 
" clip-path="url(#pdd3d3f1a64)" style="fill: none; stroke: #ffff00; stroke-width: 3; stroke-linecap: square"/>
   </g>
   <g id="patch_3">
    <path d="M 57.6 307.584 
L 57.6 41.472 
" style="fill: none; stroke: #ffffff; stroke-linejoin: miter; stroke-linecap: square"/>
   </g>
   <g id="patch_4">
    <path d="M 414.72 307.584 
L 414.72 41.472 
" style="fill: none; stroke: #ffffff; stroke-linejoin: miter; stroke-linecap: square"/>
   </g>
   <g id="patch_5">
    <path d="M 57.6 307.584 
L 414.72 307.584 
" style="fill: none; stroke: #ffffff; stroke-linejoin: miter; stroke-linecap: square"/>
   </g>
   <g id="patch_6">
    <path d="M 57.6 41.472 
L 414.72 41.472 
" style="fill: none; stroke: #ffffff; stroke-linejoin: miter; stroke-linecap: square"/>
   </g>
   <g id="legend_1">
    <g id="patch_7">
     <path d="M 243.124687 302.584 
L 407.72 302.584 
Q 409.72 302.584 409.72 300.584 
L 409.72 257.549625 
Q 409.72 255.549625 407.72 255.549625 
L 243.124687 255.549625 
Q 241.124687 255.549625 241.124687 257.549625 
L 241.124687 300.584 
Q 241.124687 302.584 243.124687 302.584 
z
" style="fill: #e5e5e5; opacity: 0.8; stroke: #cccccc; stroke-width: 0.5; stroke-linejoin: miter"/>
    </g>
    <g id="line2d_26">
     <path d="M 245.124687 263.648062 
L 255.124687 263.648062 
L 265.124687 263.648062 
" style="fill: none; stroke: #6495ed; stroke-width: 2; stroke-linecap: square"/>
    </g>
    <g id="text_14">
     <!-- Generator loss -->
     <g transform="translate(273.124687 267.148062) scale(0.1 -0.1)">
      <defs>
       <path id="DejaVuSans-47" d="M 3809 666 
L 3809 1919 
L 2778 1919 
L 2778 2438 
L 4434 2438 
L 4434 434 
Q 4069 175 3628 42 
Q 3188 -91 2688 -91 
Q 1594 -91 976 548 
Q 359 1188 359 2328 
Q 359 3472 976 4111 
Q 1594 4750 2688 4750 
Q 3144 4750 3555 4637 
Q 3966 4525 4313 4306 
L 4313 3634 
Q 3963 3931 3569 4081 
Q 3175 4231 2741 4231 
Q 1884 4231 1454 3753 
Q 1025 3275 1025 2328 
Q 1025 1384 1454 906 
Q 1884 428 2741 428 
Q 3075 428 3337 486 
Q 3600 544 3809 666 
z
" transform="scale(0.015625)"/>
       <path id="DejaVuSans-65" d="M 3597 1894 
L 3597 1613 
L 953 1613 
Q 991 1019 1311 708 
Q 1631 397 2203 397 
Q 2534 397 2845 478 
Q 3156 559 3463 722 
L 3463 178 
Q 3153 47 2828 -22 
Q 2503 -91 2169 -91 
Q 1331 -91 842 396 
Q 353 884 353 1716 
Q 353 2575 817 3079 
Q 1281 3584 2069 3584 
Q 2775 3584 3186 3129 
Q 3597 2675 3597 1894 
z
M 3022 2063 
Q 3016 2534 2758 2815 
Q 2500 3097 2075 3097 
Q 1594 3097 1305 2825 
Q 1016 2553 972 2059 
L 3022 2063 
z
" transform="scale(0.015625)"/>
       <path id="DejaVuSans-6e" d="M 3513 2113 
L 3513 0 
L 2938 0 
L 2938 2094 
Q 2938 2591 2744 2837 
Q 2550 3084 2163 3084 
Q 1697 3084 1428 2787 
Q 1159 2491 1159 1978 
L 1159 0 
L 581 0 
L 581 3500 
L 1159 3500 
L 1159 2956 
Q 1366 3272 1645 3428 
Q 1925 3584 2291 3584 
Q 2894 3584 3203 3211 
Q 3513 2838 3513 2113 
z
" transform="scale(0.015625)"/>
       <path id="DejaVuSans-72" d="M 2631 2963 
Q 2534 3019 2420 3045 
Q 2306 3072 2169 3072 
Q 1681 3072 1420 2755 
Q 1159 2438 1159 1844 
L 1159 0 
L 581 0 
L 581 3500 
L 1159 3500 
L 1159 2956 
Q 1341 3275 1631 3429 
Q 1922 3584 2338 3584 
Q 2397 3584 2469 3576 
Q 2541 3569 2628 3553 
L 2631 2963 
z
" transform="scale(0.015625)"/>
       <path id="DejaVuSans-61" d="M 2194 1759 
Q 1497 1759 1228 1600 
Q 959 1441 959 1056 
Q 959 750 1161 570 
Q 1363 391 1709 391 
Q 2188 391 2477 730 
Q 2766 1069 2766 1631 
L 2766 1759 
L 2194 1759 
z
M 3341 1997 
L 3341 0 
L 2766 0 
L 2766 531 
Q 2569 213 2275 61 
Q 1981 -91 1556 -91 
Q 1019 -91 701 211 
Q 384 513 384 1019 
Q 384 1609 779 1909 
Q 1175 2209 1959 2209 
L 2766 2209 
L 2766 2266 
Q 2766 2663 2505 2880 
Q 2244 3097 1772 3097 
Q 1472 3097 1187 3025 
Q 903 2953 641 2809 
L 641 3341 
Q 956 3463 1253 3523 
Q 1550 3584 1831 3584 
Q 2591 3584 2966 3190 
Q 3341 2797 3341 1997 
z
" transform="scale(0.015625)"/>
       <path id="DejaVuSans-74" d="M 1172 4494 
L 1172 3500 
L 2356 3500 
L 2356 3053 
L 1172 3053 
L 1172 1153 
Q 1172 725 1289 603 
Q 1406 481 1766 481 
L 2356 481 
L 2356 0 
L 1766 0 
Q 1100 0 847 248 
Q 594 497 594 1153 
L 594 3053 
L 172 3053 
L 172 3500 
L 594 3500 
L 594 4494 
L 1172 4494 
z
" transform="scale(0.015625)"/>
       <path id="DejaVuSans-20" transform="scale(0.015625)"/>
       <path id="DejaVuSans-6c" d="M 603 4863 
L 1178 4863 
L 1178 0 
L 603 0 
L 603 4863 
z
" transform="scale(0.015625)"/>
      </defs>
      <use xlink:href="#DejaVuSans-47"/>
      <use xlink:href="#DejaVuSans-65" x="77.490234"/>
      <use xlink:href="#DejaVuSans-6e" x="139.013672"/>
      <use xlink:href="#DejaVuSans-65" x="202.392578"/>
      <use xlink:href="#DejaVuSans-72" x="263.916016"/>
      <use xlink:href="#DejaVuSans-61" x="305.029297"/>
      <use xlink:href="#DejaVuSans-74" x="366.308594"/>
      <use xlink:href="#DejaVuSans-6f" x="405.517578"/>
      <use xlink:href="#DejaVuSans-72" x="466.699219"/>
      <use xlink:href="#DejaVuSans-20" x="507.8125"/>
      <use xlink:href="#DejaVuSans-6c" x="539.599609"/>
      <use xlink:href="#DejaVuSans-6f" x="567.382812"/>
      <use xlink:href="#DejaVuSans-73" x="628.564453"/>
      <use xlink:href="#DejaVuSans-73" x="680.664062"/>
     </g>
    </g>
    <g id="line2d_27">
     <path d="M 245.124687 278.326188 
L 255.124687 278.326188 
L 265.124687 278.326188 
" style="fill: none; stroke: #dc143c; stroke-width: 2; stroke-linecap: square"/>
    </g>
    <g id="text_15">
     <!-- Average discriminator loss -->
     <g transform="translate(273.124687 281.826188) scale(0.1 -0.1)">
      <defs>
       <path id="DejaVuSans-41" d="M 2188 4044 
L 1331 1722 
L 3047 1722 
L 2188 4044 
z
M 1831 4666 
L 2547 4666 
L 4325 0 
L 3669 0 
L 3244 1197 
L 1141 1197 
L 716 0 
L 50 0 
L 1831 4666 
z
" transform="scale(0.015625)"/>
       <path id="DejaVuSans-76" d="M 191 3500 
L 800 3500 
L 1894 563 
L 2988 3500 
L 3597 3500 
L 2284 0 
L 1503 0 
L 191 3500 
z
" transform="scale(0.015625)"/>
       <path id="DejaVuSans-67" d="M 2906 1791 
Q 2906 2416 2648 2759 
Q 2391 3103 1925 3103 
Q 1463 3103 1205 2759 
Q 947 2416 947 1791 
Q 947 1169 1205 825 
Q 1463 481 1925 481 
Q 2391 481 2648 825 
Q 2906 1169 2906 1791 
z
M 3481 434 
Q 3481 -459 3084 -895 
Q 2688 -1331 1869 -1331 
Q 1566 -1331 1297 -1286 
Q 1028 -1241 775 -1147 
L 775 -588 
Q 1028 -725 1275 -790 
Q 1522 -856 1778 -856 
Q 2344 -856 2625 -561 
Q 2906 -266 2906 331 
L 2906 616 
Q 2728 306 2450 153 
Q 2172 0 1784 0 
Q 1141 0 747 490 
Q 353 981 353 1791 
Q 353 2603 747 3093 
Q 1141 3584 1784 3584 
Q 2172 3584 2450 3431 
Q 2728 3278 2906 2969 
L 2906 3500 
L 3481 3500 
L 3481 434 
z
" transform="scale(0.015625)"/>
       <path id="DejaVuSans-64" d="M 2906 2969 
L 2906 4863 
L 3481 4863 
L 3481 0 
L 2906 0 
L 2906 525 
Q 2725 213 2448 61 
Q 2172 -91 1784 -91 
Q 1150 -91 751 415 
Q 353 922 353 1747 
Q 353 2572 751 3078 
Q 1150 3584 1784 3584 
Q 2172 3584 2448 3432 
Q 2725 3281 2906 2969 
z
M 947 1747 
Q 947 1113 1208 752 
Q 1469 391 1925 391 
Q 2381 391 2643 752 
Q 2906 1113 2906 1747 
Q 2906 2381 2643 2742 
Q 2381 3103 1925 3103 
Q 1469 3103 1208 2742 
Q 947 2381 947 1747 
z
" transform="scale(0.015625)"/>
       <path id="DejaVuSans-69" d="M 603 3500 
L 1178 3500 
L 1178 0 
L 603 0 
L 603 3500 
z
M 603 4863 
L 1178 4863 
L 1178 4134 
L 603 4134 
L 603 4863 
z
" transform="scale(0.015625)"/>
       <path id="DejaVuSans-6d" d="M 3328 2828 
Q 3544 3216 3844 3400 
Q 4144 3584 4550 3584 
Q 5097 3584 5394 3201 
Q 5691 2819 5691 2113 
L 5691 0 
L 5113 0 
L 5113 2094 
Q 5113 2597 4934 2840 
Q 4756 3084 4391 3084 
Q 3944 3084 3684 2787 
Q 3425 2491 3425 1978 
L 3425 0 
L 2847 0 
L 2847 2094 
Q 2847 2600 2669 2842 
Q 2491 3084 2119 3084 
Q 1678 3084 1418 2786 
Q 1159 2488 1159 1978 
L 1159 0 
L 581 0 
L 581 3500 
L 1159 3500 
L 1159 2956 
Q 1356 3278 1631 3431 
Q 1906 3584 2284 3584 
Q 2666 3584 2933 3390 
Q 3200 3197 3328 2828 
z
" transform="scale(0.015625)"/>
      </defs>
      <use xlink:href="#DejaVuSans-41"/>
      <use xlink:href="#DejaVuSans-76" x="62.533203"/>
      <use xlink:href="#DejaVuSans-65" x="121.712891"/>
      <use xlink:href="#DejaVuSans-72" x="183.236328"/>
      <use xlink:href="#DejaVuSans-61" x="224.349609"/>
      <use xlink:href="#DejaVuSans-67" x="285.628906"/>
      <use xlink:href="#DejaVuSans-65" x="349.105469"/>
      <use xlink:href="#DejaVuSans-20" x="410.628906"/>
      <use xlink:href="#DejaVuSans-64" x="442.416016"/>
      <use xlink:href="#DejaVuSans-69" x="505.892578"/>
      <use xlink:href="#DejaVuSans-73" x="533.675781"/>
      <use xlink:href="#DejaVuSans-63" x="585.775391"/>
      <use xlink:href="#DejaVuSans-72" x="640.755859"/>
      <use xlink:href="#DejaVuSans-69" x="681.869141"/>
      <use xlink:href="#DejaVuSans-6d" x="709.652344"/>
      <use xlink:href="#DejaVuSans-69" x="807.064453"/>
      <use xlink:href="#DejaVuSans-6e" x="834.847656"/>
      <use xlink:href="#DejaVuSans-61" x="898.226562"/>
      <use xlink:href="#DejaVuSans-74" x="959.505859"/>
      <use xlink:href="#DejaVuSans-6f" x="998.714844"/>
      <use xlink:href="#DejaVuSans-72" x="1059.896484"/>
      <use xlink:href="#DejaVuSans-20" x="1101.009766"/>
      <use xlink:href="#DejaVuSans-6c" x="1132.796875"/>
      <use xlink:href="#DejaVuSans-6f" x="1160.580078"/>
      <use xlink:href="#DejaVuSans-73" x="1221.761719"/>
      <use xlink:href="#DejaVuSans-73" x="1273.861328"/>
     </g>
    </g>
    <g id="line2d_28">
     <path d="M 245.124687 293.004312 
L 255.124687 293.004312 
L 265.124687 293.004312 
" style="fill: none; stroke: #ffff00; stroke-width: 3; stroke-linecap: square"/>
    </g>
    <g id="text_16">
     <!-- ROC AUC -->
     <g transform="translate(273.124687 296.504312) scale(0.1 -0.1)">
      <defs>
       <path id="DejaVuSans-52" d="M 2841 2188 
Q 3044 2119 3236 1894 
Q 3428 1669 3622 1275 
L 4263 0 
L 3584 0 
L 2988 1197 
Q 2756 1666 2539 1819 
Q 2322 1972 1947 1972 
L 1259 1972 
L 1259 0 
L 628 0 
L 628 4666 
L 2053 4666 
Q 2853 4666 3247 4331 
Q 3641 3997 3641 3322 
Q 3641 2881 3436 2590 
Q 3231 2300 2841 2188 
z
M 1259 4147 
L 1259 2491 
L 2053 2491 
Q 2509 2491 2742 2702 
Q 2975 2913 2975 3322 
Q 2975 3731 2742 3939 
Q 2509 4147 2053 4147 
L 1259 4147 
z
" transform="scale(0.015625)"/>
       <path id="DejaVuSans-4f" d="M 2522 4238 
Q 1834 4238 1429 3725 
Q 1025 3213 1025 2328 
Q 1025 1447 1429 934 
Q 1834 422 2522 422 
Q 3209 422 3611 934 
Q 4013 1447 4013 2328 
Q 4013 3213 3611 3725 
Q 3209 4238 2522 4238 
z
M 2522 4750 
Q 3503 4750 4090 4092 
Q 4678 3434 4678 2328 
Q 4678 1225 4090 567 
Q 3503 -91 2522 -91 
Q 1538 -91 948 565 
Q 359 1222 359 2328 
Q 359 3434 948 4092 
Q 1538 4750 2522 4750 
z
" transform="scale(0.015625)"/>
       <path id="DejaVuSans-43" d="M 4122 4306 
L 4122 3641 
Q 3803 3938 3442 4084 
Q 3081 4231 2675 4231 
Q 1875 4231 1450 3742 
Q 1025 3253 1025 2328 
Q 1025 1406 1450 917 
Q 1875 428 2675 428 
Q 3081 428 3442 575 
Q 3803 722 4122 1019 
L 4122 359 
Q 3791 134 3420 21 
Q 3050 -91 2638 -91 
Q 1578 -91 968 557 
Q 359 1206 359 2328 
Q 359 3453 968 4101 
Q 1578 4750 2638 4750 
Q 3056 4750 3426 4639 
Q 3797 4528 4122 4306 
z
" transform="scale(0.015625)"/>
       <path id="DejaVuSans-55" d="M 556 4666 
L 1191 4666 
L 1191 1831 
Q 1191 1081 1462 751 
Q 1734 422 2344 422 
Q 2950 422 3222 751 
Q 3494 1081 3494 1831 
L 3494 4666 
L 4128 4666 
L 4128 1753 
Q 4128 841 3676 375 
Q 3225 -91 2344 -91 
Q 1459 -91 1007 375 
Q 556 841 556 1753 
L 556 4666 
z
" transform="scale(0.015625)"/>
      </defs>
      <use xlink:href="#DejaVuSans-52"/>
      <use xlink:href="#DejaVuSans-4f" x="69.482422"/>
      <use xlink:href="#DejaVuSans-43" x="148.193359"/>
      <use xlink:href="#DejaVuSans-20" x="218.017578"/>
      <use xlink:href="#DejaVuSans-41" x="249.804688"/>
      <use xlink:href="#DejaVuSans-55" x="318.212891"/>
      <use xlink:href="#DejaVuSans-43" x="391.40625"/>
     </g>
    </g>
   </g>
  </g>
 </g>
 <defs>
  <clipPath id="pdd3d3f1a64">
   <rect x="57.6" y="41.472" width="357.12" height="266.112"/>
  </clipPath>
 </defs>
</svg>
