<?xml version="1.0" encoding="utf-8" standalone="no"?>
<!DOCTYPE svg PUBLIC "-//W3C//DTD SVG 1.1//EN"
  "http://www.w3.org/Graphics/SVG/1.1/DTD/svg11.dtd">
<svg xmlns:xlink="http://www.w3.org/1999/xlink" width="460.8pt" height="345.6pt" viewBox="0 0 460.8 345.6" xmlns="http://www.w3.org/2000/svg" version="1.1">
 <metadata>
  <rdf:RDF xmlns:dc="http://purl.org/dc/elements/1.1/" xmlns:cc="http://creativecommons.org/ns#" xmlns:rdf="http://www.w3.org/1999/02/22-rdf-syntax-ns#">
   <cc:Work>
    <dc:type rdf:resource="http://purl.org/dc/dcmitype/StillImage"/>
    <dc:date>2023-07-03T20:33:08.531486</dc:date>
    <dc:format>image/svg+xml</dc:format>
    <dc:creator>
     <cc:Agent>
      <dc:title>Matplotlib v3.7.1, https://matplotlib.org/</dc:title>
     </cc:Agent>
    </dc:creator>
   </cc:Work>
  </rdf:RDF>
 </metadata>
 <defs>
  <style type="text/css">*{stroke-linejoin: round; stroke-linecap: butt}</style>
 </defs>
 <g id="figure_1">
  <g id="patch_1">
   <path d="M 0 345.6 
L 460.8 345.6 
L 460.8 0 
L 0 0 
z
" style="fill: #ffffff"/>
  </g>
  <g id="axes_1">
   <g id="patch_2">
    <path d="M 57.6 307.584 
L 414.72 307.584 
L 414.72 41.472 
L 57.6 41.472 
z
" style="fill: #e5e5e5"/>
   </g>
   <g id="matplotlib.axis_1">
    <g id="xtick_1">
     <g id="line2d_1">
      <path d="M 73.2304 307.584 
L 73.2304 41.472 
" clip-path="url(#p0e7b812169)" style="fill: none; stroke: #ffffff; stroke-width: 0.8; stroke-linecap: square"/>
     </g>
     <g id="line2d_2">
      <defs>
       <path id="m42f099af77" d="M 0 0 
L 0 3.5 
" style="stroke: #555555; stroke-width: 0.8"/>
      </defs>
      <g>
       <use xlink:href="#m42f099af77" x="73.2304" y="307.584" style="fill: #555555; stroke: #555555; stroke-width: 0.8"/>
      </g>
     </g>
     <g id="text_1">
      <!-- 0 -->
      <g style="fill: #555555" transform="translate(70.04915 322.182437) scale(0.1 -0.1)">
       <defs>
        <path id="DejaVuSans-30" d="M 2034 4250 
Q 1547 4250 1301 3770 
Q 1056 3291 1056 2328 
Q 1056 1369 1301 889 
Q 1547 409 2034 409 
Q 2525 409 2770 889 
Q 3016 1369 3016 2328 
Q 3016 3291 2770 3770 
Q 2525 4250 2034 4250 
z
M 2034 4750 
Q 2819 4750 3233 4129 
Q 3647 3509 3647 2328 
Q 3647 1150 3233 529 
Q 2819 -91 2034 -91 
Q 1250 -91 836 529 
Q 422 1150 422 2328 
Q 422 3509 836 4129 
Q 1250 4750 2034 4750 
z
" transform="scale(0.015625)"/>
       </defs>
       <use xlink:href="#DejaVuSans-30"/>
      </g>
     </g>
    </g>
    <g id="xtick_2">
     <g id="line2d_3">
      <path d="M 133.463154 307.584 
L 133.463154 41.472 
" clip-path="url(#p0e7b812169)" style="fill: none; stroke: #ffffff; stroke-width: 0.8; stroke-linecap: square"/>
     </g>
     <g id="line2d_4">
      <g>
       <use xlink:href="#m42f099af77" x="133.463154" y="307.584" style="fill: #555555; stroke: #555555; stroke-width: 0.8"/>
      </g>
     </g>
     <g id="text_2">
      <!-- 100 -->
      <g style="fill: #555555" transform="translate(123.919404 322.182437) scale(0.1 -0.1)">
       <defs>
        <path id="DejaVuSans-31" d="M 794 531 
L 1825 531 
L 1825 4091 
L 703 3866 
L 703 4441 
L 1819 4666 
L 2450 4666 
L 2450 531 
L 3481 531 
L 3481 0 
L 794 0 
L 794 531 
z
" transform="scale(0.015625)"/>
       </defs>
       <use xlink:href="#DejaVuSans-31"/>
       <use xlink:href="#DejaVuSans-30" x="63.623047"/>
       <use xlink:href="#DejaVuSans-30" x="127.246094"/>
      </g>
     </g>
    </g>
    <g id="xtick_3">
     <g id="line2d_5">
      <path d="M 193.695908 307.584 
L 193.695908 41.472 
" clip-path="url(#p0e7b812169)" style="fill: none; stroke: #ffffff; stroke-width: 0.8; stroke-linecap: square"/>
     </g>
     <g id="line2d_6">
      <g>
       <use xlink:href="#m42f099af77" x="193.695908" y="307.584" style="fill: #555555; stroke: #555555; stroke-width: 0.8"/>
      </g>
     </g>
     <g id="text_3">
      <!-- 200 -->
      <g style="fill: #555555" transform="translate(184.152158 322.182437) scale(0.1 -0.1)">
       <defs>
        <path id="DejaVuSans-32" d="M 1228 531 
L 3431 531 
L 3431 0 
L 469 0 
L 469 531 
Q 828 903 1448 1529 
Q 2069 2156 2228 2338 
Q 2531 2678 2651 2914 
Q 2772 3150 2772 3378 
Q 2772 3750 2511 3984 
Q 2250 4219 1831 4219 
Q 1534 4219 1204 4116 
Q 875 4013 500 3803 
L 500 4441 
Q 881 4594 1212 4672 
Q 1544 4750 1819 4750 
Q 2544 4750 2975 4387 
Q 3406 4025 3406 3419 
Q 3406 3131 3298 2873 
Q 3191 2616 2906 2266 
Q 2828 2175 2409 1742 
Q 1991 1309 1228 531 
z
" transform="scale(0.015625)"/>
       </defs>
       <use xlink:href="#DejaVuSans-32"/>
       <use xlink:href="#DejaVuSans-30" x="63.623047"/>
       <use xlink:href="#DejaVuSans-30" x="127.246094"/>
      </g>
     </g>
    </g>
    <g id="xtick_4">
     <g id="line2d_7">
      <path d="M 253.928663 307.584 
L 253.928663 41.472 
" clip-path="url(#p0e7b812169)" style="fill: none; stroke: #ffffff; stroke-width: 0.8; stroke-linecap: square"/>
     </g>
     <g id="line2d_8">
      <g>
       <use xlink:href="#m42f099af77" x="253.928663" y="307.584" style="fill: #555555; stroke: #555555; stroke-width: 0.8"/>
      </g>
     </g>
     <g id="text_4">
      <!-- 300 -->
      <g style="fill: #555555" transform="translate(244.384913 322.182437) scale(0.1 -0.1)">
       <defs>
        <path id="DejaVuSans-33" d="M 2597 2516 
Q 3050 2419 3304 2112 
Q 3559 1806 3559 1356 
Q 3559 666 3084 287 
Q 2609 -91 1734 -91 
Q 1441 -91 1130 -33 
Q 819 25 488 141 
L 488 750 
Q 750 597 1062 519 
Q 1375 441 1716 441 
Q 2309 441 2620 675 
Q 2931 909 2931 1356 
Q 2931 1769 2642 2001 
Q 2353 2234 1838 2234 
L 1294 2234 
L 1294 2753 
L 1863 2753 
Q 2328 2753 2575 2939 
Q 2822 3125 2822 3475 
Q 2822 3834 2567 4026 
Q 2313 4219 1838 4219 
Q 1578 4219 1281 4162 
Q 984 4106 628 3988 
L 628 4550 
Q 988 4650 1302 4700 
Q 1616 4750 1894 4750 
Q 2613 4750 3031 4423 
Q 3450 4097 3450 3541 
Q 3450 3153 3228 2886 
Q 3006 2619 2597 2516 
z
" transform="scale(0.015625)"/>
       </defs>
       <use xlink:href="#DejaVuSans-33"/>
       <use xlink:href="#DejaVuSans-30" x="63.623047"/>
       <use xlink:href="#DejaVuSans-30" x="127.246094"/>
      </g>
     </g>
    </g>
    <g id="xtick_5">
     <g id="line2d_9">
      <path d="M 314.161417 307.584 
L 314.161417 41.472 
" clip-path="url(#p0e7b812169)" style="fill: none; stroke: #ffffff; stroke-width: 0.8; stroke-linecap: square"/>
     </g>
     <g id="line2d_10">
      <g>
       <use xlink:href="#m42f099af77" x="314.161417" y="307.584" style="fill: #555555; stroke: #555555; stroke-width: 0.8"/>
      </g>
     </g>
     <g id="text_5">
      <!-- 400 -->
      <g style="fill: #555555" transform="translate(304.617667 322.182437) scale(0.1 -0.1)">
       <defs>
        <path id="DejaVuSans-34" d="M 2419 4116 
L 825 1625 
L 2419 1625 
L 2419 4116 
z
M 2253 4666 
L 3047 4666 
L 3047 1625 
L 3713 1625 
L 3713 1100 
L 3047 1100 
L 3047 0 
L 2419 0 
L 2419 1100 
L 313 1100 
L 313 1709 
L 2253 4666 
z
" transform="scale(0.015625)"/>
       </defs>
       <use xlink:href="#DejaVuSans-34"/>
       <use xlink:href="#DejaVuSans-30" x="63.623047"/>
       <use xlink:href="#DejaVuSans-30" x="127.246094"/>
      </g>
     </g>
    </g>
    <g id="xtick_6">
     <g id="line2d_11">
      <path d="M 374.394171 307.584 
L 374.394171 41.472 
" clip-path="url(#p0e7b812169)" style="fill: none; stroke: #ffffff; stroke-width: 0.8; stroke-linecap: square"/>
     </g>
     <g id="line2d_12">
      <g>
       <use xlink:href="#m42f099af77" x="374.394171" y="307.584" style="fill: #555555; stroke: #555555; stroke-width: 0.8"/>
      </g>
     </g>
     <g id="text_6">
      <!-- 500 -->
      <g style="fill: #555555" transform="translate(364.850421 322.182437) scale(0.1 -0.1)">
       <defs>
        <path id="DejaVuSans-35" d="M 691 4666 
L 3169 4666 
L 3169 4134 
L 1269 4134 
L 1269 2991 
Q 1406 3038 1543 3061 
Q 1681 3084 1819 3084 
Q 2600 3084 3056 2656 
Q 3513 2228 3513 1497 
Q 3513 744 3044 326 
Q 2575 -91 1722 -91 
Q 1428 -91 1123 -41 
Q 819 9 494 109 
L 494 744 
Q 775 591 1075 516 
Q 1375 441 1709 441 
Q 2250 441 2565 725 
Q 2881 1009 2881 1497 
Q 2881 1984 2565 2268 
Q 2250 2553 1709 2553 
Q 1456 2553 1204 2497 
Q 953 2441 691 2322 
L 691 4666 
z
" transform="scale(0.015625)"/>
       </defs>
       <use xlink:href="#DejaVuSans-35"/>
       <use xlink:href="#DejaVuSans-30" x="63.623047"/>
       <use xlink:href="#DejaVuSans-30" x="127.246094"/>
      </g>
     </g>
    </g>
    <g id="text_7">
     <!-- Epoch -->
     <g style="fill: #555555" transform="translate(217.786875 337.38025) scale(0.12 -0.12)">
      <defs>
       <path id="DejaVuSans-45" d="M 628 4666 
L 3578 4666 
L 3578 4134 
L 1259 4134 
L 1259 2753 
L 3481 2753 
L 3481 2222 
L 1259 2222 
L 1259 531 
L 3634 531 
L 3634 0 
L 628 0 
L 628 4666 
z
" transform="scale(0.015625)"/>
       <path id="DejaVuSans-70" d="M 1159 525 
L 1159 -1331 
L 581 -1331 
L 581 3500 
L 1159 3500 
L 1159 2969 
Q 1341 3281 1617 3432 
Q 1894 3584 2278 3584 
Q 2916 3584 3314 3078 
Q 3713 2572 3713 1747 
Q 3713 922 3314 415 
Q 2916 -91 2278 -91 
Q 1894 -91 1617 61 
Q 1341 213 1159 525 
z
M 3116 1747 
Q 3116 2381 2855 2742 
Q 2594 3103 2138 3103 
Q 1681 3103 1420 2742 
Q 1159 2381 1159 1747 
Q 1159 1113 1420 752 
Q 1681 391 2138 391 
Q 2594 391 2855 752 
Q 3116 1113 3116 1747 
z
" transform="scale(0.015625)"/>
       <path id="DejaVuSans-6f" d="M 1959 3097 
Q 1497 3097 1228 2736 
Q 959 2375 959 1747 
Q 959 1119 1226 758 
Q 1494 397 1959 397 
Q 2419 397 2687 759 
Q 2956 1122 2956 1747 
Q 2956 2369 2687 2733 
Q 2419 3097 1959 3097 
z
M 1959 3584 
Q 2709 3584 3137 3096 
Q 3566 2609 3566 1747 
Q 3566 888 3137 398 
Q 2709 -91 1959 -91 
Q 1206 -91 779 398 
Q 353 888 353 1747 
Q 353 2609 779 3096 
Q 1206 3584 1959 3584 
z
" transform="scale(0.015625)"/>
       <path id="DejaVuSans-63" d="M 3122 3366 
L 3122 2828 
Q 2878 2963 2633 3030 
Q 2388 3097 2138 3097 
Q 1578 3097 1268 2742 
Q 959 2388 959 1747 
Q 959 1106 1268 751 
Q 1578 397 2138 397 
Q 2388 397 2633 464 
Q 2878 531 3122 666 
L 3122 134 
Q 2881 22 2623 -34 
Q 2366 -91 2075 -91 
Q 1284 -91 818 406 
Q 353 903 353 1747 
Q 353 2603 823 3093 
Q 1294 3584 2113 3584 
Q 2378 3584 2631 3529 
Q 2884 3475 3122 3366 
z
" transform="scale(0.015625)"/>
       <path id="DejaVuSans-68" d="M 3513 2113 
L 3513 0 
L 2938 0 
L 2938 2094 
Q 2938 2591 2744 2837 
Q 2550 3084 2163 3084 
Q 1697 3084 1428 2787 
Q 1159 2491 1159 1978 
L 1159 0 
L 581 0 
L 581 4863 
L 1159 4863 
L 1159 2956 
Q 1366 3272 1645 3428 
Q 1925 3584 2291 3584 
Q 2894 3584 3203 3211 
Q 3513 2838 3513 2113 
z
" transform="scale(0.015625)"/>
      </defs>
      <use xlink:href="#DejaVuSans-45"/>
      <use xlink:href="#DejaVuSans-70" x="63.183594"/>
      <use xlink:href="#DejaVuSans-6f" x="126.660156"/>
      <use xlink:href="#DejaVuSans-63" x="187.841797"/>
      <use xlink:href="#DejaVuSans-68" x="242.822266"/>
     </g>
    </g>
   </g>
   <g id="matplotlib.axis_2">
    <g id="ytick_1">
     <g id="line2d_13">
      <path d="M 57.6 304.278893 
L 414.72 304.278893 
" clip-path="url(#p0e7b812169)" style="fill: none; stroke: #ffffff; stroke-width: 0.8; stroke-linecap: square"/>
     </g>
     <g id="line2d_14">
      <defs>
       <path id="m5c0b321a34" d="M 0 0 
L -3.5 0 
" style="stroke: #555555; stroke-width: 0.8"/>
      </defs>
      <g>
       <use xlink:href="#m5c0b321a34" x="57.6" y="304.278893" style="fill: #555555; stroke: #555555; stroke-width: 0.8"/>
      </g>
     </g>
     <g id="text_8">
      <!-- 0.3 -->
      <g style="fill: #555555" transform="translate(34.696875 308.078112) scale(0.1 -0.1)">
       <defs>
        <path id="DejaVuSans-2e" d="M 684 794 
L 1344 794 
L 1344 0 
L 684 0 
L 684 794 
z
" transform="scale(0.015625)"/>
       </defs>
       <use xlink:href="#DejaVuSans-30"/>
       <use xlink:href="#DejaVuSans-2e" x="63.623047"/>
       <use xlink:href="#DejaVuSans-33" x="95.410156"/>
      </g>
     </g>
    </g>
    <g id="ytick_2">
     <g id="line2d_15">
      <path d="M 57.6 256.69862 
L 414.72 256.69862 
" clip-path="url(#p0e7b812169)" style="fill: none; stroke: #ffffff; stroke-width: 0.8; stroke-linecap: square"/>
     </g>
     <g id="line2d_16">
      <g>
       <use xlink:href="#m5c0b321a34" x="57.6" y="256.69862" style="fill: #555555; stroke: #555555; stroke-width: 0.8"/>
      </g>
     </g>
     <g id="text_9">
      <!-- 0.4 -->
      <g style="fill: #555555" transform="translate(34.696875 260.497839) scale(0.1 -0.1)">
       <use xlink:href="#DejaVuSans-30"/>
       <use xlink:href="#DejaVuSans-2e" x="63.623047"/>
       <use xlink:href="#DejaVuSans-34" x="95.410156"/>
      </g>
     </g>
    </g>
    <g id="ytick_3">
     <g id="line2d_17">
      <path d="M 57.6 209.118346 
L 414.72 209.118346 
" clip-path="url(#p0e7b812169)" style="fill: none; stroke: #ffffff; stroke-width: 0.8; stroke-linecap: square"/>
     </g>
     <g id="line2d_18">
      <g>
       <use xlink:href="#m5c0b321a34" x="57.6" y="209.118346" style="fill: #555555; stroke: #555555; stroke-width: 0.8"/>
      </g>
     </g>
     <g id="text_10">
      <!-- 0.5 -->
      <g style="fill: #555555" transform="translate(34.696875 212.917565) scale(0.1 -0.1)">
       <use xlink:href="#DejaVuSans-30"/>
       <use xlink:href="#DejaVuSans-2e" x="63.623047"/>
       <use xlink:href="#DejaVuSans-35" x="95.410156"/>
      </g>
     </g>
    </g>
    <g id="ytick_4">
     <g id="line2d_19">
      <path d="M 57.6 161.538073 
L 414.72 161.538073 
" clip-path="url(#p0e7b812169)" style="fill: none; stroke: #ffffff; stroke-width: 0.8; stroke-linecap: square"/>
     </g>
     <g id="line2d_20">
      <g>
       <use xlink:href="#m5c0b321a34" x="57.6" y="161.538073" style="fill: #555555; stroke: #555555; stroke-width: 0.8"/>
      </g>
     </g>
     <g id="text_11">
      <!-- 0.6 -->
      <g style="fill: #555555" transform="translate(34.696875 165.337292) scale(0.1 -0.1)">
       <defs>
        <path id="DejaVuSans-36" d="M 2113 2584 
Q 1688 2584 1439 2293 
Q 1191 2003 1191 1497 
Q 1191 994 1439 701 
Q 1688 409 2113 409 
Q 2538 409 2786 701 
Q 3034 994 3034 1497 
Q 3034 2003 2786 2293 
Q 2538 2584 2113 2584 
z
M 3366 4563 
L 3366 3988 
Q 3128 4100 2886 4159 
Q 2644 4219 2406 4219 
Q 1781 4219 1451 3797 
Q 1122 3375 1075 2522 
Q 1259 2794 1537 2939 
Q 1816 3084 2150 3084 
Q 2853 3084 3261 2657 
Q 3669 2231 3669 1497 
Q 3669 778 3244 343 
Q 2819 -91 2113 -91 
Q 1303 -91 875 529 
Q 447 1150 447 2328 
Q 447 3434 972 4092 
Q 1497 4750 2381 4750 
Q 2619 4750 2861 4703 
Q 3103 4656 3366 4563 
z
" transform="scale(0.015625)"/>
       </defs>
       <use xlink:href="#DejaVuSans-30"/>
       <use xlink:href="#DejaVuSans-2e" x="63.623047"/>
       <use xlink:href="#DejaVuSans-36" x="95.410156"/>
      </g>
     </g>
    </g>
    <g id="ytick_5">
     <g id="line2d_21">
      <path d="M 57.6 113.9578 
L 414.72 113.9578 
" clip-path="url(#p0e7b812169)" style="fill: none; stroke: #ffffff; stroke-width: 0.8; stroke-linecap: square"/>
     </g>
     <g id="line2d_22">
      <g>
       <use xlink:href="#m5c0b321a34" x="57.6" y="113.9578" style="fill: #555555; stroke: #555555; stroke-width: 0.8"/>
      </g>
     </g>
     <g id="text_12">
      <!-- 0.7 -->
      <g style="fill: #555555" transform="translate(34.696875 117.757018) scale(0.1 -0.1)">
       <defs>
        <path id="DejaVuSans-37" d="M 525 4666 
L 3525 4666 
L 3525 4397 
L 1831 0 
L 1172 0 
L 2766 4134 
L 525 4134 
L 525 4666 
z
" transform="scale(0.015625)"/>
       </defs>
       <use xlink:href="#DejaVuSans-30"/>
       <use xlink:href="#DejaVuSans-2e" x="63.623047"/>
       <use xlink:href="#DejaVuSans-37" x="95.410156"/>
      </g>
     </g>
    </g>
    <g id="ytick_6">
     <g id="line2d_23">
      <path d="M 57.6 66.377526 
L 414.72 66.377526 
" clip-path="url(#p0e7b812169)" style="fill: none; stroke: #ffffff; stroke-width: 0.8; stroke-linecap: square"/>
     </g>
     <g id="line2d_24">
      <g>
       <use xlink:href="#m5c0b321a34" x="57.6" y="66.377526" style="fill: #555555; stroke: #555555; stroke-width: 0.8"/>
      </g>
     </g>
     <g id="text_13">
      <!-- 0.8 -->
      <g style="fill: #555555" transform="translate(34.696875 70.176745) scale(0.1 -0.1)">
       <defs>
        <path id="DejaVuSans-38" d="M 2034 2216 
Q 1584 2216 1326 1975 
Q 1069 1734 1069 1313 
Q 1069 891 1326 650 
Q 1584 409 2034 409 
Q 2484 409 2743 651 
Q 3003 894 3003 1313 
Q 3003 1734 2745 1975 
Q 2488 2216 2034 2216 
z
M 1403 2484 
Q 997 2584 770 2862 
Q 544 3141 544 3541 
Q 544 4100 942 4425 
Q 1341 4750 2034 4750 
Q 2731 4750 3128 4425 
Q 3525 4100 3525 3541 
Q 3525 3141 3298 2862 
Q 3072 2584 2669 2484 
Q 3125 2378 3379 2068 
Q 3634 1759 3634 1313 
Q 3634 634 3220 271 
Q 2806 -91 2034 -91 
Q 1263 -91 848 271 
Q 434 634 434 1313 
Q 434 1759 690 2068 
Q 947 2378 1403 2484 
z
M 1172 3481 
Q 1172 3119 1398 2916 
Q 1625 2713 2034 2713 
Q 2441 2713 2670 2916 
Q 2900 3119 2900 3481 
Q 2900 3844 2670 4047 
Q 2441 4250 2034 4250 
Q 1625 4250 1398 4047 
Q 1172 3844 1172 3481 
z
" transform="scale(0.015625)"/>
       </defs>
       <use xlink:href="#DejaVuSans-30"/>
       <use xlink:href="#DejaVuSans-2e" x="63.623047"/>
       <use xlink:href="#DejaVuSans-38" x="95.410156"/>
      </g>
     </g>
    </g>
    <g id="text_14">
     <!-- Loss -->
     <g style="fill: #555555" transform="translate(28.20125 187.688625) rotate(-90) scale(0.12 -0.12)">
      <defs>
       <path id="DejaVuSans-4c" d="M 628 4666 
L 1259 4666 
L 1259 531 
L 3531 531 
L 3531 0 
L 628 0 
L 628 4666 
z
" transform="scale(0.015625)"/>
       <path id="DejaVuSans-73" d="M 2834 3397 
L 2834 2853 
Q 2591 2978 2328 3040 
Q 2066 3103 1784 3103 
Q 1356 3103 1142 2972 
Q 928 2841 928 2578 
Q 928 2378 1081 2264 
Q 1234 2150 1697 2047 
L 1894 2003 
Q 2506 1872 2764 1633 
Q 3022 1394 3022 966 
Q 3022 478 2636 193 
Q 2250 -91 1575 -91 
Q 1294 -91 989 -36 
Q 684 19 347 128 
L 347 722 
Q 666 556 975 473 
Q 1284 391 1588 391 
Q 1994 391 2212 530 
Q 2431 669 2431 922 
Q 2431 1156 2273 1281 
Q 2116 1406 1581 1522 
L 1381 1569 
Q 847 1681 609 1914 
Q 372 2147 372 2553 
Q 372 3047 722 3315 
Q 1072 3584 1716 3584 
Q 2034 3584 2315 3537 
Q 2597 3491 2834 3397 
z
" transform="scale(0.015625)"/>
      </defs>
      <use xlink:href="#DejaVuSans-4c"/>
      <use xlink:href="#DejaVuSans-6f" x="53.962891"/>
      <use xlink:href="#DejaVuSans-73" x="115.144531"/>
      <use xlink:href="#DejaVuSans-73" x="167.244141"/>
     </g>
    </g>
   </g>
   <g id="line2d_25">
    <path d="M 73.832727 131.747981 
L 74.435055 132.269126 
L 75.037382 132.282512 
L 75.63971 132.027101 
L 76.242037 132.048371 
L 76.844365 131.496144 
L 77.446693 131.726002 
L 78.04902 132.496602 
L 78.651348 131.090709 
L 79.253675 131.471244 
L 79.856003 131.705016 
L 80.45833 131.655272 
L 81.060658 130.806399 
L 81.662985 130.45499 
L 82.86764 130.506151 
L 83.469968 129.731723 
L 84.072295 130.336161 
L 84.674623 130.20925 
L 85.276951 129.846922 
L 85.879278 129.758949 
L 86.481606 129.106951 
L 87.083933 128.909594 
L 87.686261 130.525918 
L 88.288588 129.638504 
L 89.493243 128.700552 
L 90.095571 129.365283 
L 90.697898 128.239503 
L 91.300226 128.131876 
L 91.902554 127.883527 
L 92.504881 128.728458 
L 93.107209 127.859081 
L 93.709536 128.637054 
L 94.311864 127.855195 
L 94.914191 127.764897 
L 95.516519 128.099687 
L 97.323501 127.093841 
L 97.925829 126.578766 
L 98.528157 126.496777 
L 99.130484 127.62962 
L 99.732812 126.93528 
L 100.335139 125.764634 
L 100.937467 126.403019 
L 101.539794 126.276391 
L 102.744449 125.700484 
L 103.346777 125.632873 
L 103.949104 126.061706 
L 104.551432 126.119844 
L 105.153759 125.250892 
L 105.756087 124.669085 
L 106.358415 125.420797 
L 106.960742 125.560243 
L 107.56307 124.930593 
L 108.165397 125.854536 
L 108.767725 124.640243 
L 109.370052 124.9718 
L 109.97238 125.067232 
L 110.574707 124.007615 
L 111.177035 123.70992 
L 111.779362 123.928973 
L 112.38169 123.257208 
L 112.984018 123.995789 
L 113.586345 123.681446 
L 114.188673 124.068901 
L 114.791 123.720782 
L 115.393328 123.574217 
L 115.995655 122.603991 
L 116.597983 123.156388 
L 117.20031 122.642448 
L 117.802638 123.622713 
L 118.404965 122.945503 
L 119.007293 123.003811 
L 119.609621 122.67112 
L 120.211948 123.111665 
L 120.814276 122.263727 
L 121.416603 122.470387 
L 123.825913 121.896918 
L 124.428241 122.42711 
L 125.030568 121.902789 
L 125.632896 122.416843 
L 126.235223 120.742125 
L 126.837551 121.387941 
L 127.439879 121.100738 
L 128.644534 121.147731 
L 129.246861 120.982307 
L 130.451516 121.08514 
L 131.053844 120.108051 
L 131.656171 119.99464 
L 132.258499 120.082329 
L 133.463154 119.557923 
L 134.065482 119.688067 
L 134.667809 120.889938 
L 135.872464 118.342468 
L 136.474792 119.50852 
L 137.077119 119.973341 
L 137.679447 119.628058 
L 138.281774 119.790192 
L 138.884102 119.789426 
L 139.486429 119.427297 
L 140.088757 119.437705 
L 140.691084 118.532934 
L 141.293412 119.315672 
L 141.89574 118.885109 
L 142.498067 119.014204 
L 143.100395 118.267853 
L 143.702722 118.573035 
L 144.30505 118.415013 
L 144.907377 118.870249 
L 145.509705 118.165643 
L 146.112032 118.564244 
L 147.316687 119.110061 
L 147.919015 118.192273 
L 149.12367 117.540559 
L 149.725998 117.640386 
L 150.328325 117.369973 
L 150.930653 117.537042 
L 151.53298 118.03998 
L 153.339963 117.431827 
L 153.94229 118.271908 
L 154.544618 117.41379 
L 155.146946 117.939613 
L 155.749273 117.394647 
L 158.158583 116.99355 
L 158.760911 116.223178 
L 159.363238 116.647217 
L 159.965566 116.206332 
L 160.567893 116.683717 
L 161.170221 116.592085 
L 161.772548 115.68601 
L 162.374876 116.382505 
L 162.977204 115.873442 
L 163.579531 116.851098 
L 164.181859 115.935125 
L 164.784186 115.734789 
L 165.386514 115.793098 
L 165.988841 116.046268 
L 166.591169 115.875228 
L 167.193496 115.193396 
L 169.000479 115.851576 
L 169.602807 115.70555 
L 170.205134 115.38026 
L 171.409789 115.224564 
L 172.012117 115.511511 
L 173.216772 114.614085 
L 173.819099 115.013934 
L 174.421427 114.989516 
L 175.023754 114.508444 
L 175.626082 114.710283 
L 176.22841 115.430373 
L 176.830737 115.175671 
L 177.433065 114.348777 
L 178.035392 114.560201 
L 178.63772 115.581588 
L 179.240047 114.198752 
L 179.842375 114.361397 
L 180.444702 114.095352 
L 181.04703 114.585668 
L 181.649357 113.605545 
L 182.251685 114.286498 
L 182.854012 114.177993 
L 183.45634 113.156861 
L 184.058668 113.581666 
L 185.263323 112.82882 
L 185.86565 113.18247 
L 186.467978 112.282463 
L 187.070305 112.859591 
L 187.672633 112.649783 
L 188.27496 112.176709 
L 188.877288 112.292134 
L 189.479615 111.687129 
L 190.081943 111.638634 
L 190.684271 111.806809 
L 191.888926 111.274916 
L 192.491253 110.467987 
L 193.093581 111.587103 
L 193.695908 111.287706 
L 194.298236 110.613474 
L 194.900563 111.248201 
L 195.502891 110.235832 
L 196.105218 109.82688 
L 196.707546 110.307186 
L 197.309874 109.64322 
L 197.912201 109.724075 
L 198.514529 108.524643 
L 199.116856 109.241131 
L 199.719184 109.749485 
L 200.321511 109.083308 
L 200.923839 109.857083 
L 201.526166 108.437209 
L 202.730821 109.506667 
L 203.935476 109.115326 
L 204.537804 109.673594 
L 205.140132 108.490724 
L 205.742459 108.13716 
L 206.344787 108.83598 
L 206.947114 108.227798 
L 207.549442 108.171957 
L 208.151769 108.367585 
L 209.356424 108.319571 
L 210.561079 107.550702 
L 211.163407 107.546391 
L 211.765735 107.380258 
L 212.368062 106.782031 
L 213.572717 107.827808 
L 214.175045 107.501582 
L 214.777372 107.683796 
L 215.3797 107.15939 
L 215.982027 105.830722 
L 217.186682 106.671682 
L 217.78901 106.592473 
L 218.391337 107.044645 
L 219.595993 105.990247 
L 220.19832 106.684728 
L 220.800648 106.076235 
L 221.402975 105.300304 
L 222.005303 105.928167 
L 222.60763 105.806701 
L 223.209958 106.558015 
L 223.812285 105.879955 
L 224.414613 105.799327 
L 225.01694 106.347782 
L 225.619268 105.26854 
L 226.221596 105.062419 
L 226.823923 106.417831 
L 227.426251 105.786083 
L 228.028578 106.04708 
L 229.233233 104.827315 
L 229.835561 105.259125 
L 230.437888 104.137626 
L 231.040216 105.451831 
L 231.642543 105.135361 
L 232.244871 105.47486 
L 232.847199 106.342989 
L 233.449526 104.933466 
L 234.051854 104.692037 
L 235.256509 104.788348 
L 235.858836 104.708004 
L 236.461164 105.47381 
L 237.665819 104.713733 
L 238.268146 104.52701 
L 238.870474 104.570628 
L 239.472801 104.007709 
L 240.075129 104.497601 
L 240.677457 104.514276 
L 241.279784 104.374263 
L 241.882112 103.908335 
L 242.484439 104.248656 
L 243.086767 104.438725 
L 243.689094 103.734829 
L 244.291422 104.704005 
L 244.893749 103.645268 
L 245.496077 103.786189 
L 246.098404 103.533529 
L 246.700732 104.187852 
L 247.30306 104.039132 
L 247.905387 104.809193 
L 248.507715 103.56654 
L 249.110042 103.887037 
L 249.71237 102.491637 
L 250.314697 103.596403 
L 250.917025 103.300636 
L 251.519352 102.77002 
L 252.12168 103.314901 
L 252.724007 103.642857 
L 253.326335 102.662422 
L 254.53099 103.333137 
L 255.133318 102.86097 
L 255.735645 102.898009 
L 256.337973 102.458031 
L 256.9403 102.724558 
L 257.542628 102.6903 
L 258.144955 102.981245 
L 258.747283 102.352219 
L 259.34961 103.104782 
L 259.951938 102.616223 
L 260.554265 103.212692 
L 261.156593 103.477546 
L 261.758921 103.013462 
L 262.361248 102.760888 
L 262.963576 103.370572 
L 263.565903 102.488574 
L 264.168231 101.939127 
L 264.770558 102.284439 
L 265.372886 103.022452 
L 265.975213 102.486079 
L 266.577541 102.333757 
L 267.179868 102.038103 
L 267.782196 102.035466 
L 268.384524 102.77209 
L 268.986851 102.452274 
L 269.589179 102.703345 
L 270.191506 103.162381 
L 270.793834 102.748267 
L 271.396161 101.548921 
L 271.998489 101.491435 
L 272.600816 102.22389 
L 273.203144 102.072731 
L 273.805471 101.550339 
L 274.407799 102.674872 
L 275.010126 101.172243 
L 275.612454 101.685276 
L 276.214782 103.199391 
L 276.817109 102.234553 
L 278.021764 101.365687 
L 278.624092 101.55689 
L 279.226419 102.856319 
L 279.828747 101.650733 
L 280.431074 102.222274 
L 281.033402 100.938669 
L 281.635729 100.748714 
L 282.238057 102.981047 
L 282.840385 100.679231 
L 283.442712 101.31237 
L 284.04504 101.457601 
L 284.647367 102.288296 
L 285.249695 101.934816 
L 285.852022 101.207664 
L 286.45435 101.672486 
L 287.056677 101.636582 
L 287.659005 102.150097 
L 288.261332 101.543079 
L 288.86366 100.730365 
L 289.465988 102.253441 
L 290.068315 100.552689 
L 290.670643 101.462763 
L 291.27297 101.483806 
L 291.875298 100.811701 
L 292.477625 100.915839 
L 293.079953 100.060585 
L 293.68228 101.369742 
L 294.284608 102.00288 
L 294.886935 100.464149 
L 295.489263 101.23801 
L 296.09159 100.505781 
L 296.693918 100.949503 
L 297.296246 100.320165 
L 297.898573 101.01008 
L 298.500901 100.751805 
L 299.103228 101.568603 
L 299.705556 100.919611 
L 300.307883 101.101541 
L 300.910211 100.642335 
L 301.512538 101.012632 
L 302.114866 99.914077 
L 302.717193 100.316223 
L 303.921849 99.842723 
L 304.524176 100.849817 
L 305.126504 101.105852 
L 305.728831 99.920969 
L 306.331159 100.000065 
L 306.933486 99.496447 
L 307.535814 99.413579 
L 308.138141 101.331938 
L 308.740469 98.885174 
L 309.342796 99.567602 
L 309.945124 98.700806 
L 310.547452 100.006616 
L 311.149779 98.818075 
L 311.752107 99.165173 
L 312.354434 99.2249 
L 313.559089 99.732488 
L 314.161417 99.719073 
L 314.763744 99.246794 
L 315.366072 98.956075 
L 316.570727 99.724065 
L 317.173054 99.369479 
L 317.775382 98.016364 
L 318.37771 99.90798 
L 318.980037 98.656139 
L 319.582365 99.940963 
L 320.184692 99.978993 
L 320.78702 99.38139 
L 321.389347 99.337489 
L 321.991675 98.699558 
L 322.594002 98.39239 
L 323.19633 97.676299 
L 323.798657 97.845296 
L 324.400985 99.452943 
L 325.003313 97.636652 
L 325.60564 98.284509 
L 326.207968 98.281985 
L 326.810295 97.733529 
L 328.01495 98.8645 
L 328.617278 98.176343 
L 329.219605 98.168289 
L 329.821933 97.319558 
L 330.42426 97.757068 
L 331.026588 97.661268 
L 332.231243 97.780267 
L 332.833571 98.159866 
L 333.435898 98.110123 
L 334.038226 98.820031 
L 334.640553 98.179803 
L 335.242881 99.054059 
L 335.845208 96.893902 
L 336.447536 98.156718 
L 337.652191 98.048723 
L 338.254518 97.443803 
L 338.856846 97.753552 
L 339.459174 97.248998 
L 340.061501 98.356883 
L 341.266156 96.410958 
L 341.868484 98.86762 
L 342.470811 97.119563 
L 343.073139 96.810296 
L 343.675466 98.479229 
L 344.277794 97.413032 
L 344.880121 96.085555 
L 345.482449 97.549473 
L 346.084777 97.294516 
L 346.687104 96.760978 
L 347.289432 96.905246 
L 347.891759 96.413851 
L 349.096414 97.229827 
L 349.698742 98.276851 
L 350.301069 96.673431 
L 350.903397 97.004903 
L 351.505724 96.759929 
L 352.108052 97.47982 
L 352.710379 96.254439 
L 353.312707 95.748496 
L 353.915035 96.895603 
L 354.517362 95.940267 
L 355.11969 96.288613 
L 355.722017 95.103844 
L 356.324345 96.328714 
L 356.926672 97.83123 
L 357.529 96.268903 
L 358.733655 96.765572 
L 359.335982 96.134817 
L 359.93831 97.187258 
L 360.540638 95.499381 
L 361.142965 94.456866 
L 361.745293 96.706924 
L 362.34762 96.890187 
L 362.949948 96.164283 
L 363.552275 96.703918 
L 364.154603 96.034138 
L 364.75693 95.550401 
L 365.359258 96.482114 
L 365.961585 95.450545 
L 366.563913 95.829918 
L 367.166241 97.20677 
L 367.768568 95.151971 
L 368.370896 96.3345 
L 368.973223 96.312152 
L 369.575551 95.905667 
L 370.177878 96.62848 
L 370.780206 95.932751 
L 371.382533 94.307493 
L 371.984861 96.605423 
L 372.587188 96.507099 
L 373.189516 94.867774 
L 373.791843 96.739623 
L 374.394171 95.545551 
L 374.996499 95.635906 
L 375.598826 95.432962 
L 376.201154 95.590814 
L 376.803481 94.819052 
L 377.405809 93.090025 
L 378.008136 94.931811 
L 378.610464 94.901154 
L 379.212791 94.269519 
L 379.815119 93.359445 
L 380.417446 94.820782 
L 381.622102 94.446996 
L 382.224429 94.38883 
L 382.826757 94.084498 
L 383.429084 95.671782 
L 384.031412 94.555927 
L 384.633739 95.966386 
L 385.236067 93.609609 
L 385.838394 96.017803 
L 386.440722 95.940522 
L 387.043049 94.275078 
L 387.645377 94.222129 
L 388.247705 93.16705 
L 388.850032 93.601158 
L 389.45236 94.698777 
L 390.054687 95.235689 
L 390.657015 95.549834 
L 391.259342 94.682498 
L 391.86167 94.012889 
L 392.463997 94.474704 
L 393.066325 94.2434 
L 393.668652 96.165701 
L 394.873307 93.817658 
L 395.475635 94.532644 
L 396.077963 95.535909 
L 396.68029 92.199179 
L 397.282618 95.782103 
L 398.487273 93.766469 
L 398.487273 93.766469 
" clip-path="url(#p0e7b812169)" style="fill: none; stroke: #6495ed; stroke-width: 2; stroke-linecap: square"/>
   </g>
   <g id="line2d_26">
    <path d="M 73.832727 111.398906 
L 74.435055 110.589893 
L 75.037382 111.061687 
L 75.63971 111.341775 
L 76.242037 111.464152 
L 77.446693 112.241597 
L 78.04902 111.342498 
L 78.651348 112.577851 
L 79.253675 112.612436 
L 79.856003 112.447189 
L 80.45833 112.546499 
L 81.060658 113.353286 
L 81.662985 113.119596 
L 83.469968 113.931689 
L 84.072295 113.551856 
L 84.674623 113.871318 
L 85.276951 113.840249 
L 85.879278 114.005294 
L 86.481606 114.575501 
L 87.083933 114.648295 
L 87.686261 113.675924 
L 88.288588 114.451657 
L 88.890916 114.297488 
L 89.493243 114.728238 
L 90.095571 114.576189 
L 90.697898 115.16712 
L 91.300226 115.044984 
L 91.902554 115.406703 
L 92.504881 114.64677 
L 93.107209 115.258007 
L 93.709536 114.935305 
L 94.311864 115.259907 
L 96.118846 115.123985 
L 97.925829 115.901777 
L 98.528157 115.765121 
L 99.130484 115.341872 
L 99.732812 115.477372 
L 100.335139 116.200412 
L 100.937467 115.959759 
L 102.142122 116.024778 
L 102.744449 116.287619 
L 103.346777 116.171322 
L 103.949104 115.844263 
L 104.551432 116.009407 
L 105.153759 116.387712 
L 105.756087 116.592518 
L 106.358415 116.243189 
L 106.960742 116.027841 
L 107.56307 116.373164 
L 108.165397 116.011179 
L 108.767725 116.547344 
L 109.370052 116.302019 
L 109.97238 116.269072 
L 110.574707 116.760406 
L 112.38169 117.203401 
L 112.984018 116.760009 
L 113.586345 116.912859 
L 114.188673 116.725605 
L 115.393328 116.99522 
L 115.995655 117.483903 
L 116.597983 117.106778 
L 117.20031 117.327976 
L 117.802638 116.779311 
L 118.404965 117.103254 
L 119.609621 117.354822 
L 120.211948 116.97563 
L 120.814276 117.318401 
L 122.018931 117.306043 
L 122.621258 117.541782 
L 123.825913 117.501284 
L 124.428241 117.082867 
L 125.030568 117.494761 
L 125.632896 117.109096 
L 126.235223 118.088195 
L 126.837551 117.70342 
L 127.439879 117.821345 
L 128.042206 117.551783 
L 128.644534 117.817506 
L 129.246861 117.733018 
L 129.849189 117.814889 
L 130.451516 117.73434 
L 131.053844 118.137932 
L 131.656171 118.004998 
L 132.258499 118.180727 
L 132.860826 118.108707 
L 133.463154 118.383186 
L 134.065482 118.32274 
L 134.667809 117.628713 
L 135.270137 118.079393 
L 135.872464 119.017037 
L 136.474792 118.213146 
L 137.077119 118.089922 
L 137.679447 118.238621 
L 138.281774 118.149056 
L 138.884102 117.828527 
L 139.486429 118.371686 
L 140.088757 118.181518 
L 140.691084 118.688446 
L 141.293412 118.312498 
L 141.89574 118.489001 
L 142.498067 118.167515 
L 143.100395 118.93191 
L 143.702722 118.619142 
L 144.30505 118.825071 
L 144.907377 118.580388 
L 145.509705 118.902795 
L 146.112032 118.373646 
L 146.71436 118.670913 
L 147.316687 118.248047 
L 147.919015 118.834004 
L 149.12367 119.151502 
L 149.725998 118.750849 
L 150.328325 119.344624 
L 150.930653 118.982423 
L 151.53298 118.845012 
L 152.737635 119.050977 
L 153.339963 118.766504 
L 153.94229 118.834962 
L 154.544618 119.030171 
L 155.146946 118.837454 
L 155.749273 119.155051 
L 156.351601 119.180805 
L 156.953928 118.869072 
L 157.556256 119.344074 
L 158.158583 119.116598 
L 158.760911 119.620985 
L 159.363238 119.417271 
L 159.965566 119.662238 
L 160.567893 118.948139 
L 161.170221 119.556828 
L 161.772548 119.711752 
L 162.374876 119.490742 
L 162.977204 119.765792 
L 163.579531 119.216177 
L 164.181859 119.246976 
L 164.784186 119.953574 
L 165.386514 119.59644 
L 165.988841 119.584465 
L 166.591169 119.690418 
L 167.193496 120.043203 
L 167.795824 119.459336 
L 168.398151 120.066571 
L 169.000479 119.572752 
L 170.205134 119.906465 
L 170.807462 119.965737 
L 171.409789 119.501593 
L 172.012117 120.075012 
L 172.614444 119.931712 
L 173.216772 120.263532 
L 173.819099 120.09028 
L 174.421427 120.163382 
L 175.023754 119.870348 
L 175.626082 120.440694 
L 176.22841 119.748081 
L 176.830737 119.960466 
L 177.433065 120.449457 
L 178.035392 120.321769 
L 178.63772 119.190168 
L 179.240047 120.680233 
L 179.842375 120.197701 
L 180.444702 120.473322 
L 181.04703 120.23269 
L 181.649357 120.766157 
L 182.251685 119.819917 
L 182.854012 120.65233 
L 183.45634 120.757124 
L 184.058668 120.509421 
L 185.263323 120.849103 
L 185.86565 119.988748 
L 186.467978 121.20761 
L 187.070305 120.491557 
L 188.27496 120.933418 
L 188.877288 120.873656 
L 189.479615 120.478767 
L 190.081943 121.358588 
L 190.684271 120.823097 
L 191.888926 121.084197 
L 192.491253 121.462723 
L 193.093581 120.228965 
L 193.695908 121.197407 
L 194.900563 120.863102 
L 195.502891 121.347733 
L 196.105218 121.552652 
L 196.707546 120.589343 
L 197.309874 121.800154 
L 197.912201 121.322298 
L 198.514529 121.965504 
L 199.719184 121.481632 
L 200.321511 121.049655 
L 200.923839 121.60352 
L 201.526166 121.759791 
L 202.128494 121.625289 
L 202.730821 121.366412 
L 203.333149 121.522342 
L 203.935476 120.840351 
L 204.537804 121.572008 
L 205.140132 121.650413 
L 205.742459 121.909418 
L 206.344787 121.612637 
L 206.947114 121.96773 
L 207.549442 121.234481 
L 208.151769 122.176208 
L 208.754097 121.743147 
L 209.356424 121.796354 
L 210.561079 122.279357 
L 211.163407 121.522069 
L 211.765735 122.594654 
L 213.572717 122.036528 
L 214.175045 122.242266 
L 214.777372 121.310011 
L 215.3797 122.641388 
L 215.982027 122.812785 
L 217.186682 122.562749 
L 217.78901 122.701025 
L 218.391337 121.657446 
L 218.993665 122.999199 
L 220.19832 122.454488 
L 221.402975 123.267514 
L 222.005303 122.163471 
L 222.60763 123.374881 
L 223.209958 122.459975 
L 223.812285 122.861479 
L 224.414613 122.968687 
L 225.01694 122.812576 
L 225.619268 122.459734 
L 226.221596 123.749776 
L 226.823923 122.546424 
L 227.426251 122.928483 
L 228.028578 122.92642 
L 228.630906 123.244585 
L 229.233233 122.66337 
L 229.835561 123.70037 
L 230.437888 123.708864 
L 231.040216 123.160412 
L 231.642543 123.312472 
L 232.244871 123.30217 
L 232.847199 122.004818 
L 233.449526 123.935287 
L 234.051854 123.473631 
L 235.256509 123.58744 
L 235.858836 123.754817 
L 236.461164 122.442566 
L 237.063491 123.974913 
L 237.665819 123.557956 
L 238.268146 123.734281 
L 238.870474 123.760957 
L 239.472801 124.145442 
L 240.075129 122.974948 
L 240.677457 124.324429 
L 241.279784 123.740297 
L 241.882112 124.060904 
L 242.484439 123.937867 
L 243.086767 123.978309 
L 243.689094 123.3729 
L 244.291422 124.255025 
L 245.496077 124.118868 
L 246.098404 124.312929 
L 246.700732 124.148763 
L 247.30306 123.247995 
L 247.905387 124.233166 
L 249.110042 124.092047 
L 249.71237 124.866542 
L 250.314697 124.514881 
L 250.917025 123.57991 
L 251.519352 125.240725 
L 252.12168 124.393996 
L 252.724007 124.286079 
L 253.326335 124.842202 
L 253.928663 124.84417 
L 254.53099 123.668202 
L 255.133318 125.362212 
L 255.735645 124.578915 
L 256.337973 124.936613 
L 256.9403 124.911567 
L 257.542628 125.044356 
L 258.144955 123.888071 
L 258.747283 125.631509 
L 259.34961 124.627088 
L 259.951938 124.938559 
L 260.554265 124.728099 
L 261.156593 124.739432 
L 261.758921 123.925492 
L 262.361248 125.566603 
L 262.963576 124.608873 
L 263.565903 125.125487 
L 264.168231 125.452961 
L 264.770558 125.503144 
L 265.372886 124.040485 
L 265.975213 125.810599 
L 266.577541 125.219873 
L 267.782196 125.550835 
L 268.384524 125.386747 
L 268.986851 124.384106 
L 269.589179 125.836888 
L 270.191506 124.929856 
L 270.793834 125.231359 
L 271.396161 125.835297 
L 271.998489 126.044874 
L 272.600816 124.560615 
L 273.203144 126.205137 
L 274.407799 125.314418 
L 275.010126 126.139228 
L 275.612454 126.102633 
L 276.214782 124.189889 
L 276.817109 126.252505 
L 277.419437 125.738242 
L 278.021764 126.015933 
L 278.624092 126.031095 
L 279.226419 125.643526 
L 279.828747 124.998884 
L 280.431074 126.394497 
L 281.033402 126.278685 
L 281.635729 126.445251 
L 282.238057 125.463847 
L 282.840385 126.769115 
L 283.442712 125.273839 
L 284.04504 126.846265 
L 284.647367 125.683656 
L 285.249695 125.949322 
L 285.852022 126.338791 
L 286.45435 126.309675 
L 287.056677 125.105578 
L 287.659005 126.495097 
L 288.261332 126.066623 
L 288.86366 126.488602 
L 289.465988 125.896445 
L 290.068315 126.878794 
L 290.670643 125.190747 
L 291.27297 126.862009 
L 291.875298 126.409825 
L 292.477625 126.445049 
L 293.079953 126.939527 
L 293.68228 126.539239 
L 294.284608 124.976544 
L 294.886935 127.433889 
L 295.489263 126.261343 
L 296.09159 126.686222 
L 296.693918 126.561949 
L 297.296246 127.124896 
L 297.898573 125.494225 
L 298.500901 127.395933 
L 299.103228 126.190811 
L 299.705556 126.53768 
L 300.307883 126.551725 
L 300.910211 127.032527 
L 301.512538 125.508288 
L 302.114866 127.764858 
L 302.717193 126.835067 
L 303.921849 127.173189 
L 304.524176 126.95325 
L 305.126504 125.50437 
L 305.728831 127.862558 
L 306.331159 127.018273 
L 306.933486 127.35295 
L 307.535814 127.426033 
L 308.138141 126.777336 
L 308.740469 126.520047 
L 309.342796 128.049639 
L 310.547452 127.105841 
L 311.149779 127.763412 
L 311.752107 127.890734 
L 312.354434 126.488333 
L 312.956762 128.24622 
L 313.559089 127.283716 
L 314.161417 127.329116 
L 315.366072 128.018712 
L 315.968399 126.458055 
L 316.570727 128.147946 
L 317.173054 127.49236 
L 317.775382 128.183062 
L 318.37771 127.376641 
L 318.980037 128.257834 
L 319.582365 126.187557 
L 320.184692 128.097972 
L 320.78702 127.581202 
L 321.389347 127.600905 
L 322.594002 128.406781 
L 323.19633 127.282964 
L 323.798657 129.126715 
L 324.400985 127.541321 
L 325.003313 128.429004 
L 325.60564 128.169535 
L 326.207968 128.525911 
L 326.810295 127.297694 
L 327.412623 129.02928 
L 328.01495 127.893478 
L 328.617278 128.298353 
L 329.219605 128.3606 
L 329.821933 129.060654 
L 330.42426 127.399779 
L 331.026588 129.423269 
L 331.628916 128.527694 
L 332.833571 128.495438 
L 333.435898 128.835276 
L 334.038226 126.957252 
L 334.640553 129.289792 
L 335.242881 127.977179 
L 335.845208 129.048487 
L 336.447536 128.512337 
L 337.049863 128.835829 
L 337.652191 127.312136 
L 338.254518 129.612778 
L 338.856846 128.636299 
L 339.459174 128.875271 
L 340.061501 128.464951 
L 340.663829 129.243615 
L 341.266156 128.183187 
L 341.868484 129.086951 
L 342.470811 129.012144 
L 343.073139 129.193499 
L 343.675466 128.488936 
L 344.277794 129.275942 
L 344.880121 128.346413 
L 345.482449 129.785547 
L 346.084777 128.95458 
L 346.687104 129.250003 
L 347.289432 129.328607 
L 347.891759 129.881082 
L 348.494087 128.14171 
L 349.096414 130.061689 
L 349.698742 128.666981 
L 350.301069 129.417214 
L 350.903397 129.416519 
L 351.505724 129.785675 
L 352.108052 127.89747 
L 352.710379 130.585322 
L 353.312707 129.868603 
L 353.915035 129.397394 
L 354.517362 129.939968 
L 355.11969 130.033953 
L 355.722017 128.969746 
L 356.324345 130.596255 
L 356.926672 128.959642 
L 357.529 129.679828 
L 358.131327 129.722939 
L 358.733655 129.927411 
L 359.335982 128.597052 
L 359.93831 130.329653 
L 360.540638 130.166199 
L 361.142965 130.572585 
L 361.745293 129.788348 
L 362.34762 130.013637 
L 362.949948 128.716221 
L 363.552275 130.634346 
L 364.154603 129.994125 
L 364.75693 130.221633 
L 365.359258 129.905418 
L 365.961585 130.677365 
L 366.563913 128.90177 
L 367.166241 130.522916 
L 367.768568 130.474665 
L 368.370896 129.896159 
L 368.973223 130.130008 
L 369.575551 130.645864 
L 370.177878 128.604245 
L 370.780206 131.12243 
L 371.382533 130.909013 
L 371.984861 129.904872 
L 372.587188 130.034889 
L 373.189516 131.101709 
L 373.791843 128.552016 
L 374.394171 131.355677 
L 374.996499 130.254087 
L 375.598826 130.46605 
L 376.201154 130.421546 
L 376.803481 131.142448 
L 377.405809 130.216453 
L 378.008136 131.740643 
L 378.610464 130.78487 
L 379.212791 131.067574 
L 379.815119 131.561411 
L 380.417446 131.299038 
L 381.019774 129.651918 
L 381.622102 132.075895 
L 382.224429 131.122391 
L 382.826757 131.270877 
L 383.429084 130.612679 
L 384.031412 131.551595 
L 384.633739 129.08727 
L 385.236067 132.552482 
L 385.838394 130.416718 
L 386.440722 130.496793 
L 387.043049 131.359686 
L 387.645377 131.750349 
L 388.247705 130.376521 
L 388.850032 132.677549 
L 389.45236 131.119377 
L 390.657015 130.837535 
L 391.259342 131.683675 
L 391.86167 130.108551 
L 392.463997 132.374934 
L 393.668652 130.600491 
L 394.27098 131.283412 
L 394.873307 132.139017 
L 395.475635 129.967105 
L 396.077963 131.975301 
L 396.68029 132.434965 
L 397.282618 130.82578 
L 397.884945 131.349204 
L 398.487273 132.29181 
L 398.487273 132.29181 
" clip-path="url(#p0e7b812169)" style="fill: none; stroke: #dc143c; stroke-width: 2; stroke-linecap: square"/>
   </g>
   <g id="line2d_27">
    <path d="M 73.832727 295.488 
L 76.844365 295.488 
L 77.446693 290.34711 
L 80.45833 290.34711 
L 81.060658 284.648294 
L 84.072295 284.648294 
L 84.674623 277.896962 
L 87.686261 277.896962 
L 88.288588 269.965731 
L 91.300226 269.965731 
L 91.902554 261.806063 
L 94.914191 261.806063 
L 95.516519 253.44927 
L 98.528157 253.44927 
L 99.130484 242.928379 
L 102.142122 242.928379 
L 102.744449 232.071594 
L 105.756087 232.071594 
L 106.358415 220.935846 
L 109.370052 220.935846 
L 109.97238 209.318317 
L 112.984018 209.318317 
L 113.586345 197.557037 
L 116.597983 197.557037 
L 117.20031 185.652718 
L 120.211948 185.652718 
L 120.814276 175.023657 
L 123.825913 175.023657 
L 124.428241 163.988962 
L 127.439879 163.988962 
L 128.042206 153.497249 
L 131.053844 153.497249 
L 131.656171 143.560615 
L 134.667809 143.560615 
L 135.270137 134.941938 
L 138.281774 134.941938 
L 138.884102 126.967297 
L 141.89574 126.967297 
L 142.498067 119.570507 
L 145.509705 119.570507 
L 146.112032 112.316757 
L 149.12367 112.316757 
L 149.725998 106.003084 
L 152.737635 106.003084 
L 153.339963 100.366892 
L 156.351601 100.366892 
L 156.953928 95.800296 
L 159.965566 95.800296 
L 160.567893 91.911182 
L 163.579531 91.911182 
L 164.181859 88.2747 
L 167.193496 88.2747 
L 167.795824 84.809723 
L 170.807462 84.809723 
L 171.409789 81.81514 
L 174.421427 81.81514 
L 175.023754 79.443955 
L 178.035392 79.443955 
L 178.63772 76.915496 
L 181.649357 76.915496 
L 182.251685 74.833237 
L 185.263323 74.833237 
L 185.86565 72.921059 
L 188.877288 72.921059 
L 189.479615 71.050868 
L 192.491253 71.050868 
L 193.093581 69.61549 
L 196.105218 69.61549 
L 196.707546 68.188651 
L 199.719184 68.188651 
L 200.321511 67.065682 
L 203.333149 67.065682 
L 203.935476 65.953389 
L 206.947114 65.953389 
L 207.549442 65.352764 
L 210.561079 65.352764 
L 211.163407 64.259685 
L 214.175045 64.259685 
L 214.777372 63.503922 
L 217.78901 63.503922 
L 218.391337 62.542496 
L 221.402975 62.542496 
L 222.005303 61.770367 
L 225.01694 61.770367 
L 225.619268 61.122774 
L 228.630906 61.122774 
L 229.233233 60.49653 
L 232.244871 60.49653 
L 232.847199 60.123631 
L 235.858836 60.123631 
L 236.461164 59.616943 
L 239.472801 59.616943 
L 240.075129 59.265393 
L 243.086767 59.265393 
L 243.689094 58.727392 
L 246.700732 58.727392 
L 247.30306 58.216435 
L 250.314697 58.216435 
L 250.917025 57.943165 
L 253.928663 57.943165 
L 254.53099 57.508353 
L 257.542628 57.508353 
L 258.144955 57.214445 
L 261.156593 57.214445 
L 261.758921 57.057884 
L 264.770558 57.057884 
L 265.372886 56.889225 
L 268.384524 56.889225 
L 268.986851 56.613821 
L 271.998489 56.613821 
L 272.600816 56.31849 
L 275.612454 56.31849 
L 276.214782 56.0929 
L 279.226419 56.0929 
L 279.828747 55.802551 
L 282.840385 55.802551 
L 283.442712 55.643143 
L 290.068315 55.54636 
L 290.670643 55.339273 
L 293.68228 55.339273 
L 294.284608 55.10372 
L 304.524176 55.096603 
L 305.126504 54.923675 
L 308.138141 54.923675 
L 308.740469 54.806966 
L 318.980037 54.703778 
L 320.184692 54.624074 
L 322.594002 54.624074 
L 323.19633 54.448299 
L 329.821933 54.411294 
L 331.026588 54.325185 
L 337.049863 54.215593 
L 338.254518 54.14514 
L 344.277794 54.078958 
L 345.482449 54.022027 
L 347.891759 54.022027 
L 348.494087 53.898201 
L 355.11969 53.804265 
L 356.324345 53.740217 
L 376.803481 53.65482 
L 378.008136 53.568 
L 387.645377 53.616392 
L 388.850032 53.688979 
L 398.487273 53.718868 
L 398.487273 53.718868 
" clip-path="url(#p0e7b812169)" style="fill: none; stroke: #ffff00; stroke-width: 3; stroke-linecap: square"/>
   </g>
   <g id="patch_3">
    <path d="M 57.6 307.584 
L 57.6 41.472 
" style="fill: none; stroke: #ffffff; stroke-linejoin: miter; stroke-linecap: square"/>
   </g>
   <g id="patch_4">
    <path d="M 414.72 307.584 
L 414.72 41.472 
" style="fill: none; stroke: #ffffff; stroke-linejoin: miter; stroke-linecap: square"/>
   </g>
   <g id="patch_5">
    <path d="M 57.6 307.584 
L 414.72 307.584 
" style="fill: none; stroke: #ffffff; stroke-linejoin: miter; stroke-linecap: square"/>
   </g>
   <g id="patch_6">
    <path d="M 57.6 41.472 
L 414.72 41.472 
" style="fill: none; stroke: #ffffff; stroke-linejoin: miter; stroke-linecap: square"/>
   </g>
   <g id="legend_1">
    <g id="patch_7">
     <path d="M 243.124687 302.584 
L 407.72 302.584 
Q 409.72 302.584 409.72 300.584 
L 409.72 257.549625 
Q 409.72 255.549625 407.72 255.549625 
L 243.124687 255.549625 
Q 241.124687 255.549625 241.124687 257.549625 
L 241.124687 300.584 
Q 241.124687 302.584 243.124687 302.584 
z
" style="fill: #e5e5e5; opacity: 0.8; stroke: #cccccc; stroke-width: 0.5; stroke-linejoin: miter"/>
    </g>
    <g id="line2d_28">
     <path d="M 245.124687 263.648062 
L 255.124687 263.648062 
L 265.124687 263.648062 
" style="fill: none; stroke: #6495ed; stroke-width: 2; stroke-linecap: square"/>
    </g>
    <g id="text_15">
     <!-- Generator loss -->
     <g transform="translate(273.124687 267.148062) scale(0.1 -0.1)">
      <defs>
       <path id="DejaVuSans-47" d="M 3809 666 
L 3809 1919 
L 2778 1919 
L 2778 2438 
L 4434 2438 
L 4434 434 
Q 4069 175 3628 42 
Q 3188 -91 2688 -91 
Q 1594 -91 976 548 
Q 359 1188 359 2328 
Q 359 3472 976 4111 
Q 1594 4750 2688 4750 
Q 3144 4750 3555 4637 
Q 3966 4525 4313 4306 
L 4313 3634 
Q 3963 3931 3569 4081 
Q 3175 4231 2741 4231 
Q 1884 4231 1454 3753 
Q 1025 3275 1025 2328 
Q 1025 1384 1454 906 
Q 1884 428 2741 428 
Q 3075 428 3337 486 
Q 3600 544 3809 666 
z
" transform="scale(0.015625)"/>
       <path id="DejaVuSans-65" d="M 3597 1894 
L 3597 1613 
L 953 1613 
Q 991 1019 1311 708 
Q 1631 397 2203 397 
Q 2534 397 2845 478 
Q 3156 559 3463 722 
L 3463 178 
Q 3153 47 2828 -22 
Q 2503 -91 2169 -91 
Q 1331 -91 842 396 
Q 353 884 353 1716 
Q 353 2575 817 3079 
Q 1281 3584 2069 3584 
Q 2775 3584 3186 3129 
Q 3597 2675 3597 1894 
z
M 3022 2063 
Q 3016 2534 2758 2815 
Q 2500 3097 2075 3097 
Q 1594 3097 1305 2825 
Q 1016 2553 972 2059 
L 3022 2063 
z
" transform="scale(0.015625)"/>
       <path id="DejaVuSans-6e" d="M 3513 2113 
L 3513 0 
L 2938 0 
L 2938 2094 
Q 2938 2591 2744 2837 
Q 2550 3084 2163 3084 
Q 1697 3084 1428 2787 
Q 1159 2491 1159 1978 
L 1159 0 
L 581 0 
L 581 3500 
L 1159 3500 
L 1159 2956 
Q 1366 3272 1645 3428 
Q 1925 3584 2291 3584 
Q 2894 3584 3203 3211 
Q 3513 2838 3513 2113 
z
" transform="scale(0.015625)"/>
       <path id="DejaVuSans-72" d="M 2631 2963 
Q 2534 3019 2420 3045 
Q 2306 3072 2169 3072 
Q 1681 3072 1420 2755 
Q 1159 2438 1159 1844 
L 1159 0 
L 581 0 
L 581 3500 
L 1159 3500 
L 1159 2956 
Q 1341 3275 1631 3429 
Q 1922 3584 2338 3584 
Q 2397 3584 2469 3576 
Q 2541 3569 2628 3553 
L 2631 2963 
z
" transform="scale(0.015625)"/>
       <path id="DejaVuSans-61" d="M 2194 1759 
Q 1497 1759 1228 1600 
Q 959 1441 959 1056 
Q 959 750 1161 570 
Q 1363 391 1709 391 
Q 2188 391 2477 730 
Q 2766 1069 2766 1631 
L 2766 1759 
L 2194 1759 
z
M 3341 1997 
L 3341 0 
L 2766 0 
L 2766 531 
Q 2569 213 2275 61 
Q 1981 -91 1556 -91 
Q 1019 -91 701 211 
Q 384 513 384 1019 
Q 384 1609 779 1909 
Q 1175 2209 1959 2209 
L 2766 2209 
L 2766 2266 
Q 2766 2663 2505 2880 
Q 2244 3097 1772 3097 
Q 1472 3097 1187 3025 
Q 903 2953 641 2809 
L 641 3341 
Q 956 3463 1253 3523 
Q 1550 3584 1831 3584 
Q 2591 3584 2966 3190 
Q 3341 2797 3341 1997 
z
" transform="scale(0.015625)"/>
       <path id="DejaVuSans-74" d="M 1172 4494 
L 1172 3500 
L 2356 3500 
L 2356 3053 
L 1172 3053 
L 1172 1153 
Q 1172 725 1289 603 
Q 1406 481 1766 481 
L 2356 481 
L 2356 0 
L 1766 0 
Q 1100 0 847 248 
Q 594 497 594 1153 
L 594 3053 
L 172 3053 
L 172 3500 
L 594 3500 
L 594 4494 
L 1172 4494 
z
" transform="scale(0.015625)"/>
       <path id="DejaVuSans-20" transform="scale(0.015625)"/>
       <path id="DejaVuSans-6c" d="M 603 4863 
L 1178 4863 
L 1178 0 
L 603 0 
L 603 4863 
z
" transform="scale(0.015625)"/>
      </defs>
      <use xlink:href="#DejaVuSans-47"/>
      <use xlink:href="#DejaVuSans-65" x="77.490234"/>
      <use xlink:href="#DejaVuSans-6e" x="139.013672"/>
      <use xlink:href="#DejaVuSans-65" x="202.392578"/>
      <use xlink:href="#DejaVuSans-72" x="263.916016"/>
      <use xlink:href="#DejaVuSans-61" x="305.029297"/>
      <use xlink:href="#DejaVuSans-74" x="366.308594"/>
      <use xlink:href="#DejaVuSans-6f" x="405.517578"/>
      <use xlink:href="#DejaVuSans-72" x="466.699219"/>
      <use xlink:href="#DejaVuSans-20" x="507.8125"/>
      <use xlink:href="#DejaVuSans-6c" x="539.599609"/>
      <use xlink:href="#DejaVuSans-6f" x="567.382812"/>
      <use xlink:href="#DejaVuSans-73" x="628.564453"/>
      <use xlink:href="#DejaVuSans-73" x="680.664062"/>
     </g>
    </g>
    <g id="line2d_29">
     <path d="M 245.124687 278.326188 
L 255.124687 278.326188 
L 265.124687 278.326188 
" style="fill: none; stroke: #dc143c; stroke-width: 2; stroke-linecap: square"/>
    </g>
    <g id="text_16">
     <!-- Average discriminator loss -->
     <g transform="translate(273.124687 281.826188) scale(0.1 -0.1)">
      <defs>
       <path id="DejaVuSans-41" d="M 2188 4044 
L 1331 1722 
L 3047 1722 
L 2188 4044 
z
M 1831 4666 
L 2547 4666 
L 4325 0 
L 3669 0 
L 3244 1197 
L 1141 1197 
L 716 0 
L 50 0 
L 1831 4666 
z
" transform="scale(0.015625)"/>
       <path id="DejaVuSans-76" d="M 191 3500 
L 800 3500 
L 1894 563 
L 2988 3500 
L 3597 3500 
L 2284 0 
L 1503 0 
L 191 3500 
z
" transform="scale(0.015625)"/>
       <path id="DejaVuSans-67" d="M 2906 1791 
Q 2906 2416 2648 2759 
Q 2391 3103 1925 3103 
Q 1463 3103 1205 2759 
Q 947 2416 947 1791 
Q 947 1169 1205 825 
Q 1463 481 1925 481 
Q 2391 481 2648 825 
Q 2906 1169 2906 1791 
z
M 3481 434 
Q 3481 -459 3084 -895 
Q 2688 -1331 1869 -1331 
Q 1566 -1331 1297 -1286 
Q 1028 -1241 775 -1147 
L 775 -588 
Q 1028 -725 1275 -790 
Q 1522 -856 1778 -856 
Q 2344 -856 2625 -561 
Q 2906 -266 2906 331 
L 2906 616 
Q 2728 306 2450 153 
Q 2172 0 1784 0 
Q 1141 0 747 490 
Q 353 981 353 1791 
Q 353 2603 747 3093 
Q 1141 3584 1784 3584 
Q 2172 3584 2450 3431 
Q 2728 3278 2906 2969 
L 2906 3500 
L 3481 3500 
L 3481 434 
z
" transform="scale(0.015625)"/>
       <path id="DejaVuSans-64" d="M 2906 2969 
L 2906 4863 
L 3481 4863 
L 3481 0 
L 2906 0 
L 2906 525 
Q 2725 213 2448 61 
Q 2172 -91 1784 -91 
Q 1150 -91 751 415 
Q 353 922 353 1747 
Q 353 2572 751 3078 
Q 1150 3584 1784 3584 
Q 2172 3584 2448 3432 
Q 2725 3281 2906 2969 
z
M 947 1747 
Q 947 1113 1208 752 
Q 1469 391 1925 391 
Q 2381 391 2643 752 
Q 2906 1113 2906 1747 
Q 2906 2381 2643 2742 
Q 2381 3103 1925 3103 
Q 1469 3103 1208 2742 
Q 947 2381 947 1747 
z
" transform="scale(0.015625)"/>
       <path id="DejaVuSans-69" d="M 603 3500 
L 1178 3500 
L 1178 0 
L 603 0 
L 603 3500 
z
M 603 4863 
L 1178 4863 
L 1178 4134 
L 603 4134 
L 603 4863 
z
" transform="scale(0.015625)"/>
       <path id="DejaVuSans-6d" d="M 3328 2828 
Q 3544 3216 3844 3400 
Q 4144 3584 4550 3584 
Q 5097 3584 5394 3201 
Q 5691 2819 5691 2113 
L 5691 0 
L 5113 0 
L 5113 2094 
Q 5113 2597 4934 2840 
Q 4756 3084 4391 3084 
Q 3944 3084 3684 2787 
Q 3425 2491 3425 1978 
L 3425 0 
L 2847 0 
L 2847 2094 
Q 2847 2600 2669 2842 
Q 2491 3084 2119 3084 
Q 1678 3084 1418 2786 
Q 1159 2488 1159 1978 
L 1159 0 
L 581 0 
L 581 3500 
L 1159 3500 
L 1159 2956 
Q 1356 3278 1631 3431 
Q 1906 3584 2284 3584 
Q 2666 3584 2933 3390 
Q 3200 3197 3328 2828 
z
" transform="scale(0.015625)"/>
      </defs>
      <use xlink:href="#DejaVuSans-41"/>
      <use xlink:href="#DejaVuSans-76" x="62.533203"/>
      <use xlink:href="#DejaVuSans-65" x="121.712891"/>
      <use xlink:href="#DejaVuSans-72" x="183.236328"/>
      <use xlink:href="#DejaVuSans-61" x="224.349609"/>
      <use xlink:href="#DejaVuSans-67" x="285.628906"/>
      <use xlink:href="#DejaVuSans-65" x="349.105469"/>
      <use xlink:href="#DejaVuSans-20" x="410.628906"/>
      <use xlink:href="#DejaVuSans-64" x="442.416016"/>
      <use xlink:href="#DejaVuSans-69" x="505.892578"/>
      <use xlink:href="#DejaVuSans-73" x="533.675781"/>
      <use xlink:href="#DejaVuSans-63" x="585.775391"/>
      <use xlink:href="#DejaVuSans-72" x="640.755859"/>
      <use xlink:href="#DejaVuSans-69" x="681.869141"/>
      <use xlink:href="#DejaVuSans-6d" x="709.652344"/>
      <use xlink:href="#DejaVuSans-69" x="807.064453"/>
      <use xlink:href="#DejaVuSans-6e" x="834.847656"/>
      <use xlink:href="#DejaVuSans-61" x="898.226562"/>
      <use xlink:href="#DejaVuSans-74" x="959.505859"/>
      <use xlink:href="#DejaVuSans-6f" x="998.714844"/>
      <use xlink:href="#DejaVuSans-72" x="1059.896484"/>
      <use xlink:href="#DejaVuSans-20" x="1101.009766"/>
      <use xlink:href="#DejaVuSans-6c" x="1132.796875"/>
      <use xlink:href="#DejaVuSans-6f" x="1160.580078"/>
      <use xlink:href="#DejaVuSans-73" x="1221.761719"/>
      <use xlink:href="#DejaVuSans-73" x="1273.861328"/>
     </g>
    </g>
    <g id="line2d_30">
     <path d="M 245.124687 293.004312 
L 255.124687 293.004312 
L 265.124687 293.004312 
" style="fill: none; stroke: #ffff00; stroke-width: 3; stroke-linecap: square"/>
    </g>
    <g id="text_17">
     <!-- ROC AUC -->
     <g transform="translate(273.124687 296.504312) scale(0.1 -0.1)">
      <defs>
       <path id="DejaVuSans-52" d="M 2841 2188 
Q 3044 2119 3236 1894 
Q 3428 1669 3622 1275 
L 4263 0 
L 3584 0 
L 2988 1197 
Q 2756 1666 2539 1819 
Q 2322 1972 1947 1972 
L 1259 1972 
L 1259 0 
L 628 0 
L 628 4666 
L 2053 4666 
Q 2853 4666 3247 4331 
Q 3641 3997 3641 3322 
Q 3641 2881 3436 2590 
Q 3231 2300 2841 2188 
z
M 1259 4147 
L 1259 2491 
L 2053 2491 
Q 2509 2491 2742 2702 
Q 2975 2913 2975 3322 
Q 2975 3731 2742 3939 
Q 2509 4147 2053 4147 
L 1259 4147 
z
" transform="scale(0.015625)"/>
       <path id="DejaVuSans-4f" d="M 2522 4238 
Q 1834 4238 1429 3725 
Q 1025 3213 1025 2328 
Q 1025 1447 1429 934 
Q 1834 422 2522 422 
Q 3209 422 3611 934 
Q 4013 1447 4013 2328 
Q 4013 3213 3611 3725 
Q 3209 4238 2522 4238 
z
M 2522 4750 
Q 3503 4750 4090 4092 
Q 4678 3434 4678 2328 
Q 4678 1225 4090 567 
Q 3503 -91 2522 -91 
Q 1538 -91 948 565 
Q 359 1222 359 2328 
Q 359 3434 948 4092 
Q 1538 4750 2522 4750 
z
" transform="scale(0.015625)"/>
       <path id="DejaVuSans-43" d="M 4122 4306 
L 4122 3641 
Q 3803 3938 3442 4084 
Q 3081 4231 2675 4231 
Q 1875 4231 1450 3742 
Q 1025 3253 1025 2328 
Q 1025 1406 1450 917 
Q 1875 428 2675 428 
Q 3081 428 3442 575 
Q 3803 722 4122 1019 
L 4122 359 
Q 3791 134 3420 21 
Q 3050 -91 2638 -91 
Q 1578 -91 968 557 
Q 359 1206 359 2328 
Q 359 3453 968 4101 
Q 1578 4750 2638 4750 
Q 3056 4750 3426 4639 
Q 3797 4528 4122 4306 
z
" transform="scale(0.015625)"/>
       <path id="DejaVuSans-55" d="M 556 4666 
L 1191 4666 
L 1191 1831 
Q 1191 1081 1462 751 
Q 1734 422 2344 422 
Q 2950 422 3222 751 
Q 3494 1081 3494 1831 
L 3494 4666 
L 4128 4666 
L 4128 1753 
Q 4128 841 3676 375 
Q 3225 -91 2344 -91 
Q 1459 -91 1007 375 
Q 556 841 556 1753 
L 556 4666 
z
" transform="scale(0.015625)"/>
      </defs>
      <use xlink:href="#DejaVuSans-52"/>
      <use xlink:href="#DejaVuSans-4f" x="69.482422"/>
      <use xlink:href="#DejaVuSans-43" x="148.193359"/>
      <use xlink:href="#DejaVuSans-20" x="218.017578"/>
      <use xlink:href="#DejaVuSans-41" x="249.804688"/>
      <use xlink:href="#DejaVuSans-55" x="318.212891"/>
      <use xlink:href="#DejaVuSans-43" x="391.40625"/>
     </g>
    </g>
   </g>
  </g>
 </g>
 <defs>
  <clipPath id="p0e7b812169">
   <rect x="57.6" y="41.472" width="357.12" height="266.112"/>
  </clipPath>
 </defs>
</svg>
