<?xml version="1.0" encoding="utf-8" standalone="no"?>
<!DOCTYPE svg PUBLIC "-//W3C//DTD SVG 1.1//EN"
  "http://www.w3.org/Graphics/SVG/1.1/DTD/svg11.dtd">
<svg xmlns:xlink="http://www.w3.org/1999/xlink" width="460.8pt" height="345.6pt" viewBox="0 0 460.8 345.6" xmlns="http://www.w3.org/2000/svg" version="1.1">
 <metadata>
  <rdf:RDF xmlns:dc="http://purl.org/dc/elements/1.1/" xmlns:cc="http://creativecommons.org/ns#" xmlns:rdf="http://www.w3.org/1999/02/22-rdf-syntax-ns#">
   <cc:Work>
    <dc:type rdf:resource="http://purl.org/dc/dcmitype/StillImage"/>
    <dc:date>2023-07-03T20:14:23.669467</dc:date>
    <dc:format>image/svg+xml</dc:format>
    <dc:creator>
     <cc:Agent>
      <dc:title>Matplotlib v3.7.1, https://matplotlib.org/</dc:title>
     </cc:Agent>
    </dc:creator>
   </cc:Work>
  </rdf:RDF>
 </metadata>
 <defs>
  <style type="text/css">*{stroke-linejoin: round; stroke-linecap: butt}</style>
 </defs>
 <g id="figure_1">
  <g id="patch_1">
   <path d="M 0 345.6 
L 460.8 345.6 
L 460.8 0 
L 0 0 
z
" style="fill: #ffffff"/>
  </g>
  <g id="axes_1">
   <g id="patch_2">
    <path d="M 57.6 307.584 
L 414.72 307.584 
L 414.72 41.472 
L 57.6 41.472 
z
" style="fill: #e5e5e5"/>
   </g>
   <g id="matplotlib.axis_1">
    <g id="xtick_1">
     <g id="line2d_1">
      <path d="M 73.2304 307.584 
L 73.2304 41.472 
" clip-path="url(#p89128095dd)" style="fill: none; stroke: #ffffff; stroke-width: 0.8; stroke-linecap: square"/>
     </g>
     <g id="line2d_2">
      <defs>
       <path id="m032fd47dce" d="M 0 0 
L 0 3.5 
" style="stroke: #555555; stroke-width: 0.8"/>
      </defs>
      <g>
       <use xlink:href="#m032fd47dce" x="73.2304" y="307.584" style="fill: #555555; stroke: #555555; stroke-width: 0.8"/>
      </g>
     </g>
     <g id="text_1">
      <!-- 0 -->
      <g style="fill: #555555" transform="translate(70.04915 322.182437) scale(0.1 -0.1)">
       <defs>
        <path id="DejaVuSans-30" d="M 2034 4250 
Q 1547 4250 1301 3770 
Q 1056 3291 1056 2328 
Q 1056 1369 1301 889 
Q 1547 409 2034 409 
Q 2525 409 2770 889 
Q 3016 1369 3016 2328 
Q 3016 3291 2770 3770 
Q 2525 4250 2034 4250 
z
M 2034 4750 
Q 2819 4750 3233 4129 
Q 3647 3509 3647 2328 
Q 3647 1150 3233 529 
Q 2819 -91 2034 -91 
Q 1250 -91 836 529 
Q 422 1150 422 2328 
Q 422 3509 836 4129 
Q 1250 4750 2034 4750 
z
" transform="scale(0.015625)"/>
       </defs>
       <use xlink:href="#DejaVuSans-30"/>
      </g>
     </g>
    </g>
    <g id="xtick_2">
     <g id="line2d_3">
      <path d="M 133.463154 307.584 
L 133.463154 41.472 
" clip-path="url(#p89128095dd)" style="fill: none; stroke: #ffffff; stroke-width: 0.8; stroke-linecap: square"/>
     </g>
     <g id="line2d_4">
      <g>
       <use xlink:href="#m032fd47dce" x="133.463154" y="307.584" style="fill: #555555; stroke: #555555; stroke-width: 0.8"/>
      </g>
     </g>
     <g id="text_2">
      <!-- 100 -->
      <g style="fill: #555555" transform="translate(123.919404 322.182437) scale(0.1 -0.1)">
       <defs>
        <path id="DejaVuSans-31" d="M 794 531 
L 1825 531 
L 1825 4091 
L 703 3866 
L 703 4441 
L 1819 4666 
L 2450 4666 
L 2450 531 
L 3481 531 
L 3481 0 
L 794 0 
L 794 531 
z
" transform="scale(0.015625)"/>
       </defs>
       <use xlink:href="#DejaVuSans-31"/>
       <use xlink:href="#DejaVuSans-30" x="63.623047"/>
       <use xlink:href="#DejaVuSans-30" x="127.246094"/>
      </g>
     </g>
    </g>
    <g id="xtick_3">
     <g id="line2d_5">
      <path d="M 193.695908 307.584 
L 193.695908 41.472 
" clip-path="url(#p89128095dd)" style="fill: none; stroke: #ffffff; stroke-width: 0.8; stroke-linecap: square"/>
     </g>
     <g id="line2d_6">
      <g>
       <use xlink:href="#m032fd47dce" x="193.695908" y="307.584" style="fill: #555555; stroke: #555555; stroke-width: 0.8"/>
      </g>
     </g>
     <g id="text_3">
      <!-- 200 -->
      <g style="fill: #555555" transform="translate(184.152158 322.182437) scale(0.1 -0.1)">
       <defs>
        <path id="DejaVuSans-32" d="M 1228 531 
L 3431 531 
L 3431 0 
L 469 0 
L 469 531 
Q 828 903 1448 1529 
Q 2069 2156 2228 2338 
Q 2531 2678 2651 2914 
Q 2772 3150 2772 3378 
Q 2772 3750 2511 3984 
Q 2250 4219 1831 4219 
Q 1534 4219 1204 4116 
Q 875 4013 500 3803 
L 500 4441 
Q 881 4594 1212 4672 
Q 1544 4750 1819 4750 
Q 2544 4750 2975 4387 
Q 3406 4025 3406 3419 
Q 3406 3131 3298 2873 
Q 3191 2616 2906 2266 
Q 2828 2175 2409 1742 
Q 1991 1309 1228 531 
z
" transform="scale(0.015625)"/>
       </defs>
       <use xlink:href="#DejaVuSans-32"/>
       <use xlink:href="#DejaVuSans-30" x="63.623047"/>
       <use xlink:href="#DejaVuSans-30" x="127.246094"/>
      </g>
     </g>
    </g>
    <g id="xtick_4">
     <g id="line2d_7">
      <path d="M 253.928663 307.584 
L 253.928663 41.472 
" clip-path="url(#p89128095dd)" style="fill: none; stroke: #ffffff; stroke-width: 0.8; stroke-linecap: square"/>
     </g>
     <g id="line2d_8">
      <g>
       <use xlink:href="#m032fd47dce" x="253.928663" y="307.584" style="fill: #555555; stroke: #555555; stroke-width: 0.8"/>
      </g>
     </g>
     <g id="text_4">
      <!-- 300 -->
      <g style="fill: #555555" transform="translate(244.384913 322.182437) scale(0.1 -0.1)">
       <defs>
        <path id="DejaVuSans-33" d="M 2597 2516 
Q 3050 2419 3304 2112 
Q 3559 1806 3559 1356 
Q 3559 666 3084 287 
Q 2609 -91 1734 -91 
Q 1441 -91 1130 -33 
Q 819 25 488 141 
L 488 750 
Q 750 597 1062 519 
Q 1375 441 1716 441 
Q 2309 441 2620 675 
Q 2931 909 2931 1356 
Q 2931 1769 2642 2001 
Q 2353 2234 1838 2234 
L 1294 2234 
L 1294 2753 
L 1863 2753 
Q 2328 2753 2575 2939 
Q 2822 3125 2822 3475 
Q 2822 3834 2567 4026 
Q 2313 4219 1838 4219 
Q 1578 4219 1281 4162 
Q 984 4106 628 3988 
L 628 4550 
Q 988 4650 1302 4700 
Q 1616 4750 1894 4750 
Q 2613 4750 3031 4423 
Q 3450 4097 3450 3541 
Q 3450 3153 3228 2886 
Q 3006 2619 2597 2516 
z
" transform="scale(0.015625)"/>
       </defs>
       <use xlink:href="#DejaVuSans-33"/>
       <use xlink:href="#DejaVuSans-30" x="63.623047"/>
       <use xlink:href="#DejaVuSans-30" x="127.246094"/>
      </g>
     </g>
    </g>
    <g id="xtick_5">
     <g id="line2d_9">
      <path d="M 314.161417 307.584 
L 314.161417 41.472 
" clip-path="url(#p89128095dd)" style="fill: none; stroke: #ffffff; stroke-width: 0.8; stroke-linecap: square"/>
     </g>
     <g id="line2d_10">
      <g>
       <use xlink:href="#m032fd47dce" x="314.161417" y="307.584" style="fill: #555555; stroke: #555555; stroke-width: 0.8"/>
      </g>
     </g>
     <g id="text_5">
      <!-- 400 -->
      <g style="fill: #555555" transform="translate(304.617667 322.182437) scale(0.1 -0.1)">
       <defs>
        <path id="DejaVuSans-34" d="M 2419 4116 
L 825 1625 
L 2419 1625 
L 2419 4116 
z
M 2253 4666 
L 3047 4666 
L 3047 1625 
L 3713 1625 
L 3713 1100 
L 3047 1100 
L 3047 0 
L 2419 0 
L 2419 1100 
L 313 1100 
L 313 1709 
L 2253 4666 
z
" transform="scale(0.015625)"/>
       </defs>
       <use xlink:href="#DejaVuSans-34"/>
       <use xlink:href="#DejaVuSans-30" x="63.623047"/>
       <use xlink:href="#DejaVuSans-30" x="127.246094"/>
      </g>
     </g>
    </g>
    <g id="xtick_6">
     <g id="line2d_11">
      <path d="M 374.394171 307.584 
L 374.394171 41.472 
" clip-path="url(#p89128095dd)" style="fill: none; stroke: #ffffff; stroke-width: 0.8; stroke-linecap: square"/>
     </g>
     <g id="line2d_12">
      <g>
       <use xlink:href="#m032fd47dce" x="374.394171" y="307.584" style="fill: #555555; stroke: #555555; stroke-width: 0.8"/>
      </g>
     </g>
     <g id="text_6">
      <!-- 500 -->
      <g style="fill: #555555" transform="translate(364.850421 322.182437) scale(0.1 -0.1)">
       <defs>
        <path id="DejaVuSans-35" d="M 691 4666 
L 3169 4666 
L 3169 4134 
L 1269 4134 
L 1269 2991 
Q 1406 3038 1543 3061 
Q 1681 3084 1819 3084 
Q 2600 3084 3056 2656 
Q 3513 2228 3513 1497 
Q 3513 744 3044 326 
Q 2575 -91 1722 -91 
Q 1428 -91 1123 -41 
Q 819 9 494 109 
L 494 744 
Q 775 591 1075 516 
Q 1375 441 1709 441 
Q 2250 441 2565 725 
Q 2881 1009 2881 1497 
Q 2881 1984 2565 2268 
Q 2250 2553 1709 2553 
Q 1456 2553 1204 2497 
Q 953 2441 691 2322 
L 691 4666 
z
" transform="scale(0.015625)"/>
       </defs>
       <use xlink:href="#DejaVuSans-35"/>
       <use xlink:href="#DejaVuSans-30" x="63.623047"/>
       <use xlink:href="#DejaVuSans-30" x="127.246094"/>
      </g>
     </g>
    </g>
    <g id="text_7">
     <!-- Epoch -->
     <g style="fill: #555555" transform="translate(217.786875 337.38025) scale(0.12 -0.12)">
      <defs>
       <path id="DejaVuSans-45" d="M 628 4666 
L 3578 4666 
L 3578 4134 
L 1259 4134 
L 1259 2753 
L 3481 2753 
L 3481 2222 
L 1259 2222 
L 1259 531 
L 3634 531 
L 3634 0 
L 628 0 
L 628 4666 
z
" transform="scale(0.015625)"/>
       <path id="DejaVuSans-70" d="M 1159 525 
L 1159 -1331 
L 581 -1331 
L 581 3500 
L 1159 3500 
L 1159 2969 
Q 1341 3281 1617 3432 
Q 1894 3584 2278 3584 
Q 2916 3584 3314 3078 
Q 3713 2572 3713 1747 
Q 3713 922 3314 415 
Q 2916 -91 2278 -91 
Q 1894 -91 1617 61 
Q 1341 213 1159 525 
z
M 3116 1747 
Q 3116 2381 2855 2742 
Q 2594 3103 2138 3103 
Q 1681 3103 1420 2742 
Q 1159 2381 1159 1747 
Q 1159 1113 1420 752 
Q 1681 391 2138 391 
Q 2594 391 2855 752 
Q 3116 1113 3116 1747 
z
" transform="scale(0.015625)"/>
       <path id="DejaVuSans-6f" d="M 1959 3097 
Q 1497 3097 1228 2736 
Q 959 2375 959 1747 
Q 959 1119 1226 758 
Q 1494 397 1959 397 
Q 2419 397 2687 759 
Q 2956 1122 2956 1747 
Q 2956 2369 2687 2733 
Q 2419 3097 1959 3097 
z
M 1959 3584 
Q 2709 3584 3137 3096 
Q 3566 2609 3566 1747 
Q 3566 888 3137 398 
Q 2709 -91 1959 -91 
Q 1206 -91 779 398 
Q 353 888 353 1747 
Q 353 2609 779 3096 
Q 1206 3584 1959 3584 
z
" transform="scale(0.015625)"/>
       <path id="DejaVuSans-63" d="M 3122 3366 
L 3122 2828 
Q 2878 2963 2633 3030 
Q 2388 3097 2138 3097 
Q 1578 3097 1268 2742 
Q 959 2388 959 1747 
Q 959 1106 1268 751 
Q 1578 397 2138 397 
Q 2388 397 2633 464 
Q 2878 531 3122 666 
L 3122 134 
Q 2881 22 2623 -34 
Q 2366 -91 2075 -91 
Q 1284 -91 818 406 
Q 353 903 353 1747 
Q 353 2603 823 3093 
Q 1294 3584 2113 3584 
Q 2378 3584 2631 3529 
Q 2884 3475 3122 3366 
z
" transform="scale(0.015625)"/>
       <path id="DejaVuSans-68" d="M 3513 2113 
L 3513 0 
L 2938 0 
L 2938 2094 
Q 2938 2591 2744 2837 
Q 2550 3084 2163 3084 
Q 1697 3084 1428 2787 
Q 1159 2491 1159 1978 
L 1159 0 
L 581 0 
L 581 4863 
L 1159 4863 
L 1159 2956 
Q 1366 3272 1645 3428 
Q 1925 3584 2291 3584 
Q 2894 3584 3203 3211 
Q 3513 2838 3513 2113 
z
" transform="scale(0.015625)"/>
      </defs>
      <use xlink:href="#DejaVuSans-45"/>
      <use xlink:href="#DejaVuSans-70" x="63.183594"/>
      <use xlink:href="#DejaVuSans-6f" x="126.660156"/>
      <use xlink:href="#DejaVuSans-63" x="187.841797"/>
      <use xlink:href="#DejaVuSans-68" x="242.822266"/>
     </g>
    </g>
   </g>
   <g id="matplotlib.axis_2">
    <g id="ytick_1">
     <g id="line2d_13">
      <path d="M 57.6 303.125779 
L 414.72 303.125779 
" clip-path="url(#p89128095dd)" style="fill: none; stroke: #ffffff; stroke-width: 0.8; stroke-linecap: square"/>
     </g>
     <g id="line2d_14">
      <defs>
       <path id="mc53c22f94c" d="M 0 0 
L -3.5 0 
" style="stroke: #555555; stroke-width: 0.8"/>
      </defs>
      <g>
       <use xlink:href="#mc53c22f94c" x="57.6" y="303.125779" style="fill: #555555; stroke: #555555; stroke-width: 0.8"/>
      </g>
     </g>
     <g id="text_8">
      <!-- 0.65 -->
      <g style="fill: #555555" transform="translate(28.334375 306.924997) scale(0.1 -0.1)">
       <defs>
        <path id="DejaVuSans-2e" d="M 684 794 
L 1344 794 
L 1344 0 
L 684 0 
L 684 794 
z
" transform="scale(0.015625)"/>
        <path id="DejaVuSans-36" d="M 2113 2584 
Q 1688 2584 1439 2293 
Q 1191 2003 1191 1497 
Q 1191 994 1439 701 
Q 1688 409 2113 409 
Q 2538 409 2786 701 
Q 3034 994 3034 1497 
Q 3034 2003 2786 2293 
Q 2538 2584 2113 2584 
z
M 3366 4563 
L 3366 3988 
Q 3128 4100 2886 4159 
Q 2644 4219 2406 4219 
Q 1781 4219 1451 3797 
Q 1122 3375 1075 2522 
Q 1259 2794 1537 2939 
Q 1816 3084 2150 3084 
Q 2853 3084 3261 2657 
Q 3669 2231 3669 1497 
Q 3669 778 3244 343 
Q 2819 -91 2113 -91 
Q 1303 -91 875 529 
Q 447 1150 447 2328 
Q 447 3434 972 4092 
Q 1497 4750 2381 4750 
Q 2619 4750 2861 4703 
Q 3103 4656 3366 4563 
z
" transform="scale(0.015625)"/>
       </defs>
       <use xlink:href="#DejaVuSans-30"/>
       <use xlink:href="#DejaVuSans-2e" x="63.623047"/>
       <use xlink:href="#DejaVuSans-36" x="95.410156"/>
       <use xlink:href="#DejaVuSans-35" x="159.033203"/>
      </g>
     </g>
    </g>
    <g id="ytick_2">
     <g id="line2d_15">
      <path d="M 57.6 247.394746 
L 414.72 247.394746 
" clip-path="url(#p89128095dd)" style="fill: none; stroke: #ffffff; stroke-width: 0.8; stroke-linecap: square"/>
     </g>
     <g id="line2d_16">
      <g>
       <use xlink:href="#mc53c22f94c" x="57.6" y="247.394746" style="fill: #555555; stroke: #555555; stroke-width: 0.8"/>
      </g>
     </g>
     <g id="text_9">
      <!-- 0.70 -->
      <g style="fill: #555555" transform="translate(28.334375 251.193965) scale(0.1 -0.1)">
       <defs>
        <path id="DejaVuSans-37" d="M 525 4666 
L 3525 4666 
L 3525 4397 
L 1831 0 
L 1172 0 
L 2766 4134 
L 525 4134 
L 525 4666 
z
" transform="scale(0.015625)"/>
       </defs>
       <use xlink:href="#DejaVuSans-30"/>
       <use xlink:href="#DejaVuSans-2e" x="63.623047"/>
       <use xlink:href="#DejaVuSans-37" x="95.410156"/>
       <use xlink:href="#DejaVuSans-30" x="159.033203"/>
      </g>
     </g>
    </g>
    <g id="ytick_3">
     <g id="line2d_17">
      <path d="M 57.6 191.663714 
L 414.72 191.663714 
" clip-path="url(#p89128095dd)" style="fill: none; stroke: #ffffff; stroke-width: 0.8; stroke-linecap: square"/>
     </g>
     <g id="line2d_18">
      <g>
       <use xlink:href="#mc53c22f94c" x="57.6" y="191.663714" style="fill: #555555; stroke: #555555; stroke-width: 0.8"/>
      </g>
     </g>
     <g id="text_10">
      <!-- 0.75 -->
      <g style="fill: #555555" transform="translate(28.334375 195.462933) scale(0.1 -0.1)">
       <use xlink:href="#DejaVuSans-30"/>
       <use xlink:href="#DejaVuSans-2e" x="63.623047"/>
       <use xlink:href="#DejaVuSans-37" x="95.410156"/>
       <use xlink:href="#DejaVuSans-35" x="159.033203"/>
      </g>
     </g>
    </g>
    <g id="ytick_4">
     <g id="line2d_19">
      <path d="M 57.6 135.932682 
L 414.72 135.932682 
" clip-path="url(#p89128095dd)" style="fill: none; stroke: #ffffff; stroke-width: 0.8; stroke-linecap: square"/>
     </g>
     <g id="line2d_20">
      <g>
       <use xlink:href="#mc53c22f94c" x="57.6" y="135.932682" style="fill: #555555; stroke: #555555; stroke-width: 0.8"/>
      </g>
     </g>
     <g id="text_11">
      <!-- 0.80 -->
      <g style="fill: #555555" transform="translate(28.334375 139.7319) scale(0.1 -0.1)">
       <defs>
        <path id="DejaVuSans-38" d="M 2034 2216 
Q 1584 2216 1326 1975 
Q 1069 1734 1069 1313 
Q 1069 891 1326 650 
Q 1584 409 2034 409 
Q 2484 409 2743 651 
Q 3003 894 3003 1313 
Q 3003 1734 2745 1975 
Q 2488 2216 2034 2216 
z
M 1403 2484 
Q 997 2584 770 2862 
Q 544 3141 544 3541 
Q 544 4100 942 4425 
Q 1341 4750 2034 4750 
Q 2731 4750 3128 4425 
Q 3525 4100 3525 3541 
Q 3525 3141 3298 2862 
Q 3072 2584 2669 2484 
Q 3125 2378 3379 2068 
Q 3634 1759 3634 1313 
Q 3634 634 3220 271 
Q 2806 -91 2034 -91 
Q 1263 -91 848 271 
Q 434 634 434 1313 
Q 434 1759 690 2068 
Q 947 2378 1403 2484 
z
M 1172 3481 
Q 1172 3119 1398 2916 
Q 1625 2713 2034 2713 
Q 2441 2713 2670 2916 
Q 2900 3119 2900 3481 
Q 2900 3844 2670 4047 
Q 2441 4250 2034 4250 
Q 1625 4250 1398 4047 
Q 1172 3844 1172 3481 
z
" transform="scale(0.015625)"/>
       </defs>
       <use xlink:href="#DejaVuSans-30"/>
       <use xlink:href="#DejaVuSans-2e" x="63.623047"/>
       <use xlink:href="#DejaVuSans-38" x="95.410156"/>
       <use xlink:href="#DejaVuSans-30" x="159.033203"/>
      </g>
     </g>
    </g>
    <g id="ytick_5">
     <g id="line2d_21">
      <path d="M 57.6 80.201649 
L 414.72 80.201649 
" clip-path="url(#p89128095dd)" style="fill: none; stroke: #ffffff; stroke-width: 0.8; stroke-linecap: square"/>
     </g>
     <g id="line2d_22">
      <g>
       <use xlink:href="#mc53c22f94c" x="57.6" y="80.201649" style="fill: #555555; stroke: #555555; stroke-width: 0.8"/>
      </g>
     </g>
     <g id="text_12">
      <!-- 0.85 -->
      <g style="fill: #555555" transform="translate(28.334375 84.000868) scale(0.1 -0.1)">
       <use xlink:href="#DejaVuSans-30"/>
       <use xlink:href="#DejaVuSans-2e" x="63.623047"/>
       <use xlink:href="#DejaVuSans-38" x="95.410156"/>
       <use xlink:href="#DejaVuSans-35" x="159.033203"/>
      </g>
     </g>
    </g>
    <g id="text_13">
     <!-- Loss -->
     <g style="fill: #555555" transform="translate(21.83875 187.688625) rotate(-90) scale(0.12 -0.12)">
      <defs>
       <path id="DejaVuSans-4c" d="M 628 4666 
L 1259 4666 
L 1259 531 
L 3531 531 
L 3531 0 
L 628 0 
L 628 4666 
z
" transform="scale(0.015625)"/>
       <path id="DejaVuSans-73" d="M 2834 3397 
L 2834 2853 
Q 2591 2978 2328 3040 
Q 2066 3103 1784 3103 
Q 1356 3103 1142 2972 
Q 928 2841 928 2578 
Q 928 2378 1081 2264 
Q 1234 2150 1697 2047 
L 1894 2003 
Q 2506 1872 2764 1633 
Q 3022 1394 3022 966 
Q 3022 478 2636 193 
Q 2250 -91 1575 -91 
Q 1294 -91 989 -36 
Q 684 19 347 128 
L 347 722 
Q 666 556 975 473 
Q 1284 391 1588 391 
Q 1994 391 2212 530 
Q 2431 669 2431 922 
Q 2431 1156 2273 1281 
Q 2116 1406 1581 1522 
L 1381 1569 
Q 847 1681 609 1914 
Q 372 2147 372 2553 
Q 372 3047 722 3315 
Q 1072 3584 1716 3584 
Q 2034 3584 2315 3537 
Q 2597 3491 2834 3397 
z
" transform="scale(0.015625)"/>
      </defs>
      <use xlink:href="#DejaVuSans-4c"/>
      <use xlink:href="#DejaVuSans-6f" x="53.962891"/>
      <use xlink:href="#DejaVuSans-73" x="115.144531"/>
      <use xlink:href="#DejaVuSans-73" x="167.244141"/>
     </g>
    </g>
   </g>
   <g id="line2d_23">
    <path d="M 73.832727 53.568 
L 74.435055 61.886323 
L 75.037382 61.715515 
L 76.242037 78.352029 
L 76.844365 78.551073 
L 77.446693 85.684168 
L 78.04902 87.711945 
L 78.651348 92.744647 
L 79.856003 100.413487 
L 81.060658 110.181921 
L 81.662985 112.859248 
L 82.265313 116.254755 
L 82.86764 121.852767 
L 83.469968 123.778032 
L 84.674623 131.297455 
L 85.276951 134.416652 
L 85.879278 140.090867 
L 86.481606 142.187605 
L 87.083933 142.948636 
L 87.686261 144.936949 
L 88.288588 149.560868 
L 88.890916 151.658403 
L 89.493243 157.980507 
L 90.095571 156.736416 
L 90.697898 163.716175 
L 91.902554 167.481401 
L 92.504881 168.708684 
L 93.107209 172.982416 
L 93.709536 173.611836 
L 94.311864 178.967752 
L 94.914191 179.226988 
L 95.516519 182.972416 
L 96.118846 184.536931 
L 96.721174 184.818688 
L 97.323501 184.558987 
L 97.925829 189.007381 
L 98.528157 190.905008 
L 99.130484 191.27506 
L 99.732812 193.834064 
L 100.335139 195.287231 
L 100.937467 193.496433 
L 101.539794 200.039439 
L 102.142122 200.420984 
L 102.744449 201.813627 
L 103.346777 200.479182 
L 104.551432 208.161243 
L 105.153759 207.696452 
L 105.756087 211.288877 
L 106.358415 208.605637 
L 106.960742 212.670093 
L 107.56307 212.369534 
L 108.165397 212.285093 
L 108.767725 212.528716 
L 109.370052 216.920439 
L 109.97238 218.66885 
L 111.177035 220.778875 
L 111.779362 222.201482 
L 112.38169 220.796282 
L 112.984018 219.947488 
L 113.586345 223.018452 
L 114.188673 223.893754 
L 114.791 222.952614 
L 115.393328 226.589551 
L 115.995655 226.531751 
L 116.597983 227.793913 
L 117.20031 229.631149 
L 117.802638 230.651615 
L 118.404965 228.228806 
L 119.007293 232.176135 
L 119.609621 231.971178 
L 120.211948 235.969264 
L 120.814276 233.025062 
L 121.416603 235.189565 
L 122.621258 234.798586 
L 123.223586 236.275471 
L 123.825913 235.68558 
L 124.428241 236.956047 
L 125.030568 239.760866 
L 125.632896 236.602272 
L 126.235223 240.993995 
L 126.837551 238.001293 
L 127.439879 237.358054 
L 128.042206 237.988538 
L 128.644534 241.374145 
L 129.246861 243.012537 
L 129.849189 241.513728 
L 130.451516 244.656045 
L 131.053844 241.210246 
L 131.656171 245.317022 
L 132.258499 241.039371 
L 132.860826 243.568678 
L 133.463154 241.963172 
L 134.065482 244.680294 
L 135.270137 245.62097 
L 135.872464 244.731451 
L 136.474792 248.582579 
L 137.077119 247.074203 
L 137.679447 246.651002 
L 138.281774 249.015081 
L 138.884102 246.805999 
L 139.486429 249.058796 
L 140.088757 247.181166 
L 140.691084 246.648544 
L 141.293412 250.926727 
L 141.89574 247.646953 
L 142.498067 248.11945 
L 143.100395 249.698846 
L 143.702722 248.901342 
L 144.30505 249.165161 
L 144.907377 249.789532 
L 145.509705 248.916689 
L 146.71436 253.627307 
L 147.316687 251.2233 
L 147.919015 250.30209 
L 148.521343 248.165424 
L 149.12367 253.639863 
L 149.725998 250.494358 
L 150.328325 252.163244 
L 150.930653 252.175336 
L 151.53298 249.577334 
L 152.135308 250.543321 
L 152.737635 253.071366 
L 153.94229 252.847541 
L 154.544618 252.324419 
L 155.146946 253.290606 
L 155.749273 250.614342 
L 156.953928 253.349801 
L 157.556256 251.928856 
L 158.158583 251.593351 
L 158.760911 252.018811 
L 159.363238 254.110234 
L 159.965566 253.167101 
L 160.567893 256.166978 
L 161.170221 251.599464 
L 161.772548 253.918233 
L 162.374876 253.73819 
L 162.977204 253.711814 
L 163.579531 255.723514 
L 164.181859 255.699729 
L 164.784186 256.145984 
L 165.386514 255.611236 
L 165.988841 250.898558 
L 166.591169 255.577154 
L 167.193496 254.376313 
L 167.795824 252.27333 
L 168.398151 255.336388 
L 169.000479 253.130561 
L 169.602807 254.783037 
L 170.205134 256.007198 
L 170.807462 254.995568 
L 171.409789 255.115087 
L 172.012117 257.152099 
L 172.614444 252.141387 
L 173.216772 251.201043 
L 173.819099 256.262248 
L 174.421427 255.090639 
L 175.023754 254.643388 
L 175.626082 255.821574 
L 176.22841 255.652559 
L 176.830737 254.334258 
L 177.433065 253.734536 
L 178.035392 255.68312 
L 178.63772 253.729353 
L 179.240047 252.565252 
L 179.842375 254.185175 
L 180.444702 251.78821 
L 181.04703 253.562863 
L 181.649357 253.892389 
L 182.251685 254.582864 
L 182.854012 253.119466 
L 183.45634 256.234145 
L 184.058668 252.54459 
L 184.660995 252.744232 
L 185.263323 250.490305 
L 185.86565 256.410202 
L 186.467978 251.066842 
L 187.070305 250.564714 
L 187.672633 251.437956 
L 188.27496 249.993758 
L 188.877288 249.384668 
L 189.479615 248.544245 
L 190.684271 247.683692 
L 191.286598 247.41768 
L 192.491253 245.667342 
L 193.093581 245.60921 
L 193.695908 246.070878 
L 194.298236 244.401061 
L 195.502891 246.552211 
L 196.105218 246.319019 
L 196.707546 245.320942 
L 197.309874 243.282668 
L 197.912201 245.815496 
L 198.514529 242.486692 
L 199.116856 243.078509 
L 199.719184 242.523365 
L 200.321511 244.364854 
L 200.923839 243.561037 
L 201.526166 241.371022 
L 202.128494 242.596246 
L 202.730821 241.92816 
L 203.333149 240.41892 
L 203.935476 241.07445 
L 204.537804 240.231502 
L 205.140132 243.089205 
L 205.742459 240.705793 
L 206.344787 240.684733 
L 206.947114 242.176566 
L 207.549442 238.766377 
L 208.151769 238.943696 
L 208.754097 238.568263 
L 209.356424 239.728179 
L 209.958752 240.389289 
L 210.561079 237.610513 
L 211.163407 238.361313 
L 212.368062 236.476308 
L 212.97039 237.363369 
L 213.572717 237.112438 
L 214.175045 235.866952 
L 214.777372 236.640008 
L 215.3797 235.39007 
L 215.982027 235.846158 
L 216.584355 236.67409 
L 217.186682 231.732405 
L 218.391337 237.391605 
L 218.993665 235.092235 
L 219.595993 234.594692 
L 220.19832 236.580481 
L 221.402975 236.709833 
L 222.005303 236.394857 
L 222.60763 236.29188 
L 223.209958 234.949264 
L 223.812285 231.391719 
L 224.414613 234.567386 
L 225.01694 234.68365 
L 225.619268 232.807083 
L 226.221596 234.29101 
L 226.823923 232.643716 
L 227.426251 231.75134 
L 228.028578 233.080137 
L 228.630906 237.036369 
L 229.233233 231.720646 
L 229.835561 233.658734 
L 231.040216 231.367801 
L 231.642543 231.987522 
L 232.244871 230.928124 
L 232.847199 234.080606 
L 234.051854 230.744826 
L 234.654181 234.785365 
L 235.256509 231.650024 
L 235.858836 233.355517 
L 236.461164 231.086044 
L 237.063491 231.559803 
L 237.665819 230.943006 
L 238.268146 232.558212 
L 238.870474 229.470439 
L 239.472801 232.926935 
L 240.677457 230.089097 
L 241.279784 231.828672 
L 241.882112 229.74748 
L 242.484439 230.116801 
L 243.086767 230.859229 
L 243.689094 229.522459 
L 244.291422 227.828127 
L 244.893749 227.289792 
L 245.496077 228.678715 
L 246.098404 228.688614 
L 246.700732 228.388453 
L 247.30306 229.081785 
L 247.905387 229.184031 
L 248.507715 227.481927 
L 249.110042 228.625499 
L 249.71237 226.69266 
L 250.314697 229.921411 
L 250.917025 231.040601 
L 251.519352 231.356574 
L 252.12168 226.731991 
L 252.724007 227.363005 
L 253.326335 230.656066 
L 253.928663 226.837492 
L 254.53099 228.237111 
L 255.133318 228.438945 
L 255.735645 227.851712 
L 256.337973 229.545978 
L 256.9403 228.201169 
L 257.542628 226.399409 
L 258.144955 227.966183 
L 258.747283 225.119841 
L 259.34961 226.475213 
L 259.951938 226.243748 
L 260.554265 227.109815 
L 261.156593 226.658711 
L 261.758921 227.032284 
L 262.361248 224.984111 
L 262.963576 227.071216 
L 263.565903 227.420074 
L 264.168231 228.310125 
L 264.770558 224.041907 
L 265.372886 227.926055 
L 265.975213 226.190732 
L 266.577541 221.789243 
L 267.179868 226.309321 
L 267.782196 225.851573 
L 268.384524 225.795036 
L 268.986851 226.676184 
L 269.589179 223.430425 
L 270.191506 224.744009 
L 270.793834 224.458332 
L 271.396161 226.185417 
L 271.998489 224.371898 
L 272.600816 223.845056 
L 273.203144 222.256225 
L 273.805471 225.22966 
L 275.010126 226.676848 
L 275.612454 225.166214 
L 276.214782 226.850314 
L 276.817109 223.616979 
L 277.419437 222.478788 
L 278.021764 220.673706 
L 278.624092 225.160766 
L 279.828747 224.78221 
L 280.431074 225.624094 
L 281.033402 225.232982 
L 281.635729 225.313437 
L 282.238057 224.59167 
L 282.840385 221.221742 
L 283.442712 221.742006 
L 284.647367 220.997452 
L 285.249695 221.365444 
L 285.852022 221.576048 
L 286.45435 221.031667 
L 287.056677 225.571676 
L 287.659005 223.055391 
L 288.261332 221.435667 
L 288.86366 223.647009 
L 289.465988 222.305123 
L 290.068315 221.832227 
L 290.670643 220.574915 
L 291.27297 221.652251 
L 291.875298 221.997854 
L 292.477625 222.999983 
L 293.079953 223.517391 
L 293.68228 222.981314 
L 294.284608 222.628802 
L 294.886935 220.95573 
L 295.489263 218.837134 
L 296.09159 219.512395 
L 296.693918 222.488355 
L 297.296246 222.830038 
L 297.898573 222.000046 
L 298.500901 221.516122 
L 299.103228 222.749716 
L 299.705556 219.810961 
L 300.307883 219.469278 
L 300.910211 222.740814 
L 301.512538 221.710117 
L 302.114866 219.291494 
L 302.717193 222.396938 
L 303.319521 219.120353 
L 303.921849 220.772032 
L 304.524176 217.447414 
L 305.126504 219.321324 
L 305.728831 220.07013 
L 306.331159 221.246655 
L 306.933486 220.211308 
L 307.535814 216.842974 
L 308.138141 220.304718 
L 308.740469 220.889027 
L 309.342796 217.963759 
L 309.945124 218.561156 
L 310.547452 216.874199 
L 311.149779 217.563412 
L 311.752107 219.471337 
L 312.354434 218.698149 
L 312.956762 220.537511 
L 313.559089 219.644006 
L 314.161417 217.587728 
L 315.366072 218.339059 
L 315.968399 217.657685 
L 316.570727 216.471128 
L 317.173054 219.902112 
L 317.775382 217.004348 
L 318.37771 220.072455 
L 318.980037 219.205658 
L 320.184692 216.484017 
L 321.389347 219.901647 
L 321.991675 217.381974 
L 322.594002 217.720202 
L 323.798657 216.046931 
L 324.400985 215.69774 
L 325.003313 216.556234 
L 325.60564 217.644066 
L 326.207968 218.01259 
L 326.810295 215.134225 
L 327.412623 215.130771 
L 328.01495 216.205449 
L 328.617278 217.519564 
L 329.219605 215.871738 
L 329.821933 215.101671 
L 330.42426 218.551656 
L 331.026588 217.455519 
L 331.628916 215.649972 
L 332.231243 216.427347 
L 332.833571 215.921233 
L 333.435898 217.026804 
L 334.038226 214.751949 
L 334.640553 215.764243 
L 335.242881 218.849624 
L 335.845208 216.099814 
L 336.447536 217.368487 
L 337.049863 213.980687 
L 337.652191 215.058554 
L 338.254518 215.516103 
L 338.856846 214.005136 
L 339.459174 213.55443 
L 340.061501 215.385223 
L 340.663829 212.282037 
L 341.266156 218.475653 
L 341.868484 214.033704 
L 342.470811 216.714087 
L 343.073139 216.176084 
L 343.675466 213.427869 
L 344.277794 213.371065 
L 344.880121 209.847203 
L 345.482449 213.825159 
L 346.084777 212.012305 
L 346.687104 211.934507 
L 347.289432 211.526653 
L 347.891759 212.726099 
L 348.494087 213.192085 
L 349.096414 213.896579 
L 349.698742 211.64976 
L 350.301069 215.132963 
L 350.903397 212.011441 
L 351.505724 212.842097 
L 352.108052 215.625125 
L 352.710379 214.817722 
L 353.312707 215.159737 
L 353.915035 212.916772 
L 354.517362 212.339173 
L 355.11969 210.668625 
L 355.722017 208.327201 
L 356.324345 209.111485 
L 356.926672 210.517615 
L 357.529 212.361694 
L 358.131327 213.102927 
L 358.733655 210.852588 
L 359.335982 210.794124 
L 359.93831 214.846887 
L 360.540638 209.916762 
L 361.142965 209.384207 
L 361.745293 209.058801 
L 362.34762 209.617001 
L 362.949948 212.2253 
L 363.552275 213.018553 
L 364.154603 205.77989 
L 364.75693 211.269477 
L 365.359258 213.692153 
L 365.961585 211.210349 
L 366.563913 212.282768 
L 367.166241 215.514309 
L 367.768568 211.274726 
L 368.370896 213.917174 
L 369.575551 210.222703 
L 370.177878 211.311731 
L 370.780206 210.329134 
L 371.382533 209.851057 
L 371.984861 206.6722 
L 372.587188 210.509775 
L 373.189516 212.246493 
L 373.791843 209.497614 
L 374.394171 210.932312 
L 374.996499 211.16185 
L 375.598826 210.092354 
L 376.201154 207.505979 
L 376.803481 210.676265 
L 377.405809 211.89903 
L 378.008136 207.062647 
L 379.212791 211.028313 
L 379.815119 208.837965 
L 380.417446 208.637726 
L 381.019774 209.318568 
L 381.622102 209.336306 
L 382.224429 208.910514 
L 382.826757 208.905598 
L 383.429084 206.603571 
L 384.031412 206.827329 
L 384.633739 211.72676 
L 385.236067 208.418418 
L 385.838394 208.518738 
L 386.440722 206.608155 
L 387.043049 208.243557 
L 387.645377 206.853106 
L 388.850032 207.763686 
L 389.45236 203.401993 
L 390.054687 206.25438 
L 390.657015 207.902206 
L 391.259342 205.935352 
L 391.86167 204.490954 
L 392.463997 209.448517 
L 393.668652 210.794057 
L 394.27098 207.806205 
L 394.873307 205.728867 
L 395.475635 207.070952 
L 396.077963 203.992614 
L 397.282618 208.307403 
L 397.884945 204.776233 
L 398.487273 205.114927 
L 398.487273 205.114927 
" clip-path="url(#p89128095dd)" style="fill: none; stroke: #6495ed; stroke-width: 2; stroke-linecap: square"/>
   </g>
   <g id="line2d_24">
    <path d="M 73.832727 227.352458 
L 74.435055 229.015042 
L 75.037382 232.897038 
L 75.63971 233.083517 
L 76.242037 232.107215 
L 76.844365 235.057149 
L 77.446693 235.156421 
L 78.04902 238.662254 
L 79.253675 240.828211 
L 79.856003 241.122658 
L 80.45833 241.836377 
L 81.060658 241.96602 
L 81.662985 244.624222 
L 82.265313 245.823527 
L 82.86764 245.950221 
L 84.072295 247.130591 
L 84.674623 247.15969 
L 85.276951 249.223459 
L 85.879278 248.954325 
L 86.481606 250.002046 
L 87.083933 250.571781 
L 87.686261 251.421414 
L 88.288588 250.784137 
L 88.890916 253.052597 
L 89.493243 252.037455 
L 90.095571 253.957729 
L 90.697898 251.854472 
L 91.300226 252.500086 
L 91.902554 252.504911 
L 92.504881 255.04885 
L 93.107209 254.57 
L 93.709536 255.533106 
L 94.311864 253.76934 
L 94.914191 254.787414 
L 95.516519 253.543613 
L 96.118846 255.797499 
L 96.721174 256.627134 
L 97.323501 258.007736 
L 97.925829 256.305556 
L 98.528157 256.56671 
L 99.130484 256.35339 
L 99.732812 258.044874 
L 100.335139 258.040954 
L 100.937467 259.914706 
L 101.539794 257.087191 
L 102.142122 257.786801 
L 102.744449 257.115874 
L 103.346777 260.49037 
L 103.949104 259.088916 
L 104.551432 258.493154 
L 105.153759 258.713134 
L 105.756087 257.704453 
L 106.960742 259.552909 
L 107.56307 259.963271 
L 108.165397 260.903182 
L 108.767725 260.772369 
L 109.97238 257.948441 
L 110.574707 260.242313 
L 111.177035 259.734854 
L 111.779362 259.779192 
L 112.38169 260.37928 
L 112.984018 261.425224 
L 113.586345 259.38994 
L 114.188673 261.555822 
L 114.791 262.053747 
L 115.393328 260.88894 
L 115.995655 260.812247 
L 116.597983 260.852383 
L 117.20031 258.902503 
L 117.802638 261.205892 
L 118.404965 262.361573 
L 119.007293 260.913331 
L 119.609621 260.863088 
L 120.211948 259.340461 
L 120.814276 259.862179 
L 121.416603 261.54971 
L 122.018931 261.434907 
L 122.621258 262.11555 
L 123.223586 261.018641 
L 123.825913 261.838792 
L 124.428241 259.949926 
L 125.030568 261.537602 
L 125.632896 262.699154 
L 126.235223 261.160101 
L 126.837551 262.318364 
L 127.439879 262.962924 
L 128.042206 261.375056 
L 128.644534 262.699162 
L 129.246861 261.33223 
L 129.849189 262.650929 
L 130.451516 260.54117 
L 131.053844 262.67571 
L 131.656171 259.242492 
L 132.258499 264.317657 
L 132.860826 262.670951 
L 133.463154 263.944665 
L 134.065482 262.179205 
L 134.667809 262.301249 
L 135.270137 260.540945 
L 135.872464 264.051553 
L 136.474792 261.586067 
L 137.077119 262.62722 
L 137.679447 262.319344 
L 138.281774 261.680249 
L 138.884102 261.24783 
L 139.486429 262.995511 
L 140.691084 264.053114 
L 141.293412 261.49088 
L 141.89574 263.426352 
L 142.498067 261.424967 
L 143.100395 263.827139 
L 143.702722 263.604128 
L 144.30505 263.853456 
L 144.907377 263.093455 
L 145.509705 264.004815 
L 146.112032 260.854385 
L 146.71436 262.754944 
L 147.316687 263.13335 
L 148.521343 264.528485 
L 149.12367 262.299845 
L 149.725998 261.80726 
L 150.328325 264.246968 
L 150.930653 263.337493 
L 151.53298 265.075748 
L 152.737635 263.25708 
L 153.339963 261.286148 
L 153.94229 264.419554 
L 154.544618 263.813021 
L 155.146946 263.659586 
L 155.749273 264.553066 
L 156.351601 264.314858 
L 156.953928 261.470169 
L 157.556256 265.502802 
L 158.158583 264.753323 
L 158.760911 264.865268 
L 159.363238 263.334711 
L 159.965566 264.275079 
L 160.567893 260.548345 
L 161.170221 266.064523 
L 161.772548 263.955752 
L 162.374876 264.372716 
L 163.579531 263.248734 
L 164.181859 261.043937 
L 164.784186 264.106787 
L 165.386514 263.394338 
L 165.988841 266.057763 
L 166.591169 263.171211 
L 167.193496 264.212537 
L 167.795824 263.119797 
L 168.398151 264.821619 
L 169.000479 264.898362 
L 169.602807 264.373604 
L 170.205134 263.168345 
L 170.807462 264.234287 
L 171.409789 261.688728 
L 172.012117 264.207555 
L 172.614444 265.625269 
L 173.216772 266.309217 
L 173.819099 263.216122 
L 174.421427 264.428523 
L 175.023754 262.132749 
L 175.626082 264.897988 
L 176.22841 263.81175 
L 176.830737 264.816097 
L 178.035392 264.140969 
L 178.63772 262.547886 
L 179.240047 266.607791 
L 179.842375 264.640189 
L 180.444702 266.161545 
L 181.04703 264.67746 
L 181.649357 265.280439 
L 182.251685 262.296424 
L 182.854012 266.536065 
L 183.45634 263.686418 
L 184.058668 265.619855 
L 184.660995 264.704376 
L 185.263323 266.519157 
L 185.86565 260.55263 
L 186.467978 266.662859 
L 187.070305 265.537158 
L 187.672633 265.205432 
L 188.27496 265.261454 
L 188.877288 266.180588 
L 189.479615 263.640012 
L 190.081943 267.353077 
L 190.684271 266.235954 
L 191.286598 266.500712 
L 191.888926 266.305165 
L 192.491253 267.450456 
L 193.093581 264.685499 
L 193.695908 267.997254 
L 194.900563 267.042868 
L 195.502891 265.878401 
L 196.105218 266.771566 
L 196.707546 264.252524 
L 197.309874 268.932772 
L 197.912201 266.294801 
L 198.514529 268.194114 
L 199.116856 267.209582 
L 199.719184 268.317603 
L 200.321511 264.470436 
L 200.923839 268.46236 
L 201.526166 268.201214 
L 202.128494 267.638347 
L 202.730821 267.383189 
L 203.333149 268.919693 
L 203.935476 265.668885 
L 204.537804 269.789007 
L 205.140132 266.868239 
L 205.742459 268.315037 
L 206.344787 267.776527 
L 206.947114 267.942552 
L 207.549442 266.556502 
L 208.151769 270.215272 
L 208.754097 269.028341 
L 209.356424 268.765161 
L 209.958752 267.792007 
L 210.561079 270.153204 
L 211.163407 266.769349 
L 211.765735 270.792016 
L 212.368062 269.950838 
L 212.97039 269.680516 
L 213.572717 269.264357 
L 214.175045 270.804415 
L 214.777372 267.301929 
L 215.3797 271.778026 
L 215.982027 270.258497 
L 216.584355 269.974971 
L 217.186682 271.877391 
L 217.78901 271.613147 
L 218.391337 266.98996 
L 218.993665 271.987302 
L 219.595993 270.775806 
L 220.800648 269.498305 
L 221.402975 270.415628 
L 222.005303 267.357827 
L 222.60763 271.32546 
L 223.209958 270.510973 
L 223.812285 272.619537 
L 224.414613 270.498583 
L 225.01694 271.460352 
L 225.619268 269.115631 
L 226.221596 272.484729 
L 226.823923 271.882249 
L 227.426251 272.639983 
L 228.028578 271.499574 
L 229.233233 269.918483 
L 229.835561 273.048642 
L 230.437888 272.147638 
L 231.040216 272.781733 
L 231.642543 272.099936 
L 232.244871 273.86014 
L 232.847199 268.89296 
L 233.449526 273.862407 
L 234.051854 273.035546 
L 234.654181 271.408016 
L 235.256509 272.463718 
L 235.858836 272.722323 
L 236.461164 270.341751 
L 237.063491 274.27649 
L 237.665819 272.893895 
L 238.268146 272.343277 
L 238.870474 273.339726 
L 239.472801 272.940866 
L 240.075129 270.105253 
L 240.677457 274.958876 
L 241.279784 272.543093 
L 241.882112 273.779046 
L 242.484439 273.080764 
L 243.086767 274.052059 
L 243.689094 271.133168 
L 244.291422 276.073416 
L 244.893749 274.677102 
L 245.496077 274.50798 
L 246.098404 273.976462 
L 246.700732 275.354788 
L 247.30306 271.539353 
L 247.905387 275.717922 
L 248.507715 274.873738 
L 249.110042 274.686486 
L 249.71237 275.123689 
L 250.314697 274.872932 
L 250.917025 270.736152 
L 251.519352 274.80589 
L 252.12168 275.460572 
L 252.724007 275.370775 
L 253.326335 273.275457 
L 253.928663 276.483047 
L 254.53099 272.206625 
L 255.133318 276.296494 
L 255.735645 274.904573 
L 256.337973 274.370971 
L 256.9403 274.478266 
L 257.542628 276.738347 
L 258.144955 272.363266 
L 258.747283 277.98556 
L 259.34961 275.723254 
L 259.951938 276.120387 
L 260.554265 275.256155 
L 261.156593 276.8047 
L 261.758921 272.852405 
L 262.361248 278.149592 
L 262.963576 275.490992 
L 263.565903 275.74615 
L 264.168231 274.87926 
L 264.770558 278.339551 
L 265.372886 272.764817 
L 265.975213 277.998989 
L 266.577541 278.364423 
L 267.179868 276.513509 
L 267.782196 276.34951 
L 268.384524 277.838603 
L 268.986851 273.530623 
L 269.589179 279.426902 
L 270.191506 277.19646 
L 270.793834 277.651177 
L 271.396161 276.444938 
L 271.998489 278.769321 
L 272.600816 275.135182 
L 273.203144 280.382035 
L 273.805471 277.221855 
L 274.407799 277.237294 
L 275.010126 276.432821 
L 275.612454 278.818725 
L 276.214782 273.968407 
L 276.817109 279.981879 
L 277.419437 278.724418 
L 278.021764 279.97027 
L 278.624092 277.415327 
L 279.226419 279.07811 
L 279.828747 275.233259 
L 280.431074 279.28163 
L 281.033402 277.549313 
L 281.635729 277.904084 
L 282.238057 277.800717 
L 282.840385 280.848677 
L 283.442712 276.603813 
L 284.04504 281.266397 
L 284.647367 279.794362 
L 285.249695 279.904547 
L 285.852022 279.318095 
L 286.45435 281.274793 
L 287.056677 275.021103 
L 287.659005 280.811423 
L 288.261332 279.81142 
L 288.86366 279.064914 
L 289.465988 279.296977 
L 290.068315 281.154194 
L 290.670643 277.683565 
L 291.27297 281.83247 
L 291.875298 279.736704 
L 292.477625 279.53712 
L 293.079953 278.895866 
L 293.68228 280.838679 
L 294.284608 276.802242 
L 294.886935 282.246029 
L 295.489263 281.389695 
L 296.09159 281.355231 
L 296.693918 279.546039 
L 297.296246 281.114133 
L 297.898573 277.321535 
L 298.500901 282.165832 
L 299.103228 279.585884 
L 299.705556 281.29499 
L 300.307883 281.06781 
L 300.910211 281.387445 
L 301.512538 277.550077 
L 302.114866 283.46759 
L 302.717193 280.026126 
L 303.319521 281.933171 
L 303.921849 280.654517 
L 304.524176 284.069589 
L 305.126504 278.937638 
L 305.728831 283.315849 
L 306.331159 280.726725 
L 306.933486 281.506225 
L 307.535814 282.793467 
L 308.138141 283.042944 
L 308.740469 278.341627 
L 309.342796 284.361469 
L 309.945124 282.206151 
L 310.547452 283.283885 
L 311.149779 282.76166 
L 311.752107 283.648854 
L 312.354434 279.685863 
L 312.956762 283.534251 
L 313.559089 281.912036 
L 314.161417 283.26015 
L 314.763744 282.757608 
L 315.366072 284.384456 
L 315.968399 280.366697 
L 316.570727 285.729598 
L 317.173054 282.061817 
L 317.775382 283.714302 
L 318.37771 281.822604 
L 318.980037 284.116086 
L 319.582365 280.352986 
L 320.184692 285.967299 
L 320.78702 283.071072 
L 321.389347 282.64053 
L 321.991675 283.469534 
L 322.594002 285.174778 
L 323.19633 281.189921 
L 323.798657 286.389944 
L 324.400985 284.462196 
L 325.003313 284.475649 
L 325.60564 283.616458 
L 326.207968 285.356282 
L 326.810295 282.108066 
L 327.412623 286.937248 
L 328.01495 284.506426 
L 328.617278 284.111302 
L 329.219605 284.543597 
L 329.821933 286.974254 
L 330.42426 280.58328 
L 331.026588 285.995718 
L 331.628916 284.847536 
L 332.833571 284.809451 
L 333.435898 286.251772 
L 334.038226 282.626661 
L 334.640553 287.046453 
L 335.242881 283.487388 
L 335.845208 285.05466 
L 336.447536 284.100747 
L 337.049863 287.655527 
L 337.652191 282.41609 
L 338.254518 287.260861 
L 338.856846 285.835913 
L 339.459174 286.206305 
L 340.061501 285.21028 
L 340.663829 288.65749 
L 341.266156 280.895391 
L 341.868484 287.980128 
L 342.470811 284.610656 
L 343.073139 285.162354 
L 343.675466 286.149311 
L 344.277794 288.319337 
L 344.880121 285.203819 
L 345.482449 288.471892 
L 346.084777 287.075486 
L 346.687104 287.446011 
L 347.289432 287.159977 
L 347.891759 288.701247 
L 348.494087 283.771845 
L 349.096414 288.546716 
L 350.301069 286.190767 
L 350.903397 287.333551 
L 351.505724 289.02897 
L 352.108052 282.803 
L 352.710379 288.345446 
L 353.312707 285.886172 
L 353.915035 287.383885 
L 354.517362 287.392488 
L 355.11969 290.286258 
L 355.722017 286.523598 
L 356.324345 291.366375 
L 356.926672 288.444902 
L 358.131327 287.303488 
L 358.733655 290.437318 
L 359.335982 285.653794 
L 359.93831 288.813841 
L 360.540638 289.01516 
L 361.142965 289.410042 
L 361.745293 289.312123 
L 362.34762 291.294325 
L 362.949948 285.151774 
L 363.552275 290.047966 
L 364.154603 291.101816 
L 364.75693 288.90916 
L 365.359258 287.596366 
L 365.961585 290.772224 
L 366.563913 285.413874 
L 367.166241 289.08359 
L 367.768568 288.714194 
L 368.370896 287.653933 
L 368.973223 288.28621 
L 369.575551 291.213355 
L 370.177878 285.791666 
L 370.780206 291.538479 
L 371.382533 289.483878 
L 371.984861 291.353179 
L 372.587188 289.294966 
L 373.189516 290.696669 
L 373.791843 286.816417 
L 374.394171 291.517801 
L 374.996499 288.913064 
L 376.201154 290.542229 
L 376.803481 291.460026 
L 377.405809 285.801249 
L 378.008136 293.272955 
L 378.610464 290.10991 
L 379.212791 289.518998 
L 379.815119 290.218293 
L 380.417446 292.753969 
L 381.019774 287.357003 
L 381.622102 292.604254 
L 382.224429 290.448512 
L 382.826757 290.821105 
L 383.429084 291.455832 
L 384.031412 293.796666 
L 384.633739 286.350838 
L 385.236067 293.08876 
L 385.838394 290.542238 
L 386.440722 291.563841 
L 387.043049 290.792106 
L 387.645377 293.667572 
L 388.247705 288.22792 
L 388.850032 293.398562 
L 389.45236 293.024507 
L 390.054687 292.113512 
L 390.657015 290.994131 
L 391.259342 294.395775 
L 391.86167 289.802051 
L 392.463997 292.950397 
L 393.066325 290.072963 
L 393.668652 290.025818 
L 394.27098 291.09303 
L 394.873307 294.640012 
L 395.475635 288.713953 
L 396.077963 295.488 
L 396.68029 291.981104 
L 397.282618 291.362721 
L 397.884945 292.640064 
L 398.487273 295.167377 
L 398.487273 295.167377 
" clip-path="url(#p89128095dd)" style="fill: none; stroke: #dc143c; stroke-width: 2; stroke-linecap: square"/>
   </g>
   <g id="line2d_25">
    <path d="M 73.832727 287.675129 
L 76.844365 287.675129 
L 77.446693 257.844107 
L 80.45833 257.844107 
L 81.060658 233.344458 
L 84.072295 233.344458 
L 84.674623 214.159513 
L 87.686261 214.159513 
L 88.288588 197.361849 
L 91.300226 197.361849 
L 91.902554 183.534952 
L 94.914191 183.534952 
L 95.516519 170.34822 
L 98.528157 170.34822 
L 99.130484 160.028893 
L 102.142122 160.028893 
L 102.744449 151.243295 
L 105.756087 151.243295 
L 106.358415 143.394605 
L 109.370052 143.394605 
L 109.97238 136.386132 
L 112.984018 136.386132 
L 113.586345 129.741086 
L 116.597983 129.741086 
L 117.20031 123.64118 
L 120.211948 123.64118 
L 120.814276 118.123091 
L 123.825913 118.123091 
L 124.428241 113.170148 
L 127.439879 113.170148 
L 128.042206 108.777349 
L 131.053844 108.777349 
L 131.656171 104.636281 
L 134.667809 104.636281 
L 135.270137 101.063694 
L 138.281774 101.063694 
L 138.884102 97.852866 
L 141.89574 97.852866 
L 142.498067 94.958787 
L 145.509705 94.958787 
L 146.112032 92.191407 
L 149.12367 92.191407 
L 149.725998 89.654086 
L 152.737635 89.654086 
L 153.339963 87.45852 
L 156.351601 87.45852 
L 156.953928 85.629715 
L 159.965566 85.629715 
L 160.567893 83.80091 
L 163.579531 83.80091 
L 164.181859 82.53225 
L 167.193496 82.53225 
L 167.795824 81.640354 
L 170.807462 81.640354 
L 171.409789 80.936839 
L 174.421427 80.936839 
L 175.023754 80.518398 
L 178.035392 80.518398 
L 178.63772 80.113293 
L 185.263323 80.148302 
L 185.86565 80.491724 
L 188.877288 80.491724 
L 189.479615 80.681773 
L 192.491253 80.681773 
L 193.093581 81.025195 
L 196.105218 81.025195 
L 196.707546 81.461974 
L 199.719184 81.461974 
L 200.321511 82.042124 
L 203.333149 82.042124 
L 203.935476 82.915682 
L 206.947114 82.915682 
L 207.549442 84.207682 
L 210.561079 84.207682 
L 211.163407 85.523021 
L 214.175045 85.523021 
L 214.777372 86.461596 
L 217.78901 86.461596 
L 218.391337 87.376832 
L 221.402975 87.376832 
L 222.005303 88.890556 
L 225.01694 88.890556 
L 225.619268 90.177554 
L 228.630906 90.177554 
L 229.233233 91.534571 
L 232.244871 91.534571 
L 232.847199 93.18833 
L 235.858836 93.18833 
L 236.461164 94.73873 
L 239.472801 94.73873 
L 240.075129 96.22578 
L 243.086767 96.22578 
L 243.689094 97.767844 
L 246.700732 97.767844 
L 247.30306 98.963152 
L 250.314697 98.963152 
L 250.917025 100.783621 
L 253.928663 100.783621 
L 254.53099 102.477391 
L 257.542628 102.477391 
L 258.144955 104.157824 
L 261.156593 104.157824 
L 261.758921 105.821587 
L 264.770558 105.821587 
L 265.372886 107.145261 
L 268.384524 107.145261 
L 268.986851 109.019078 
L 271.998489 109.019078 
L 272.600816 111.006256 
L 275.612454 111.006256 
L 276.214782 112.765043 
L 279.226419 112.765043 
L 279.828747 114.4088 
L 282.840385 114.4088 
L 283.442712 116.294286 
L 286.45435 116.294286 
L 287.056677 117.914704 
L 290.068315 117.914704 
L 290.670643 119.871875 
L 293.68228 119.871875 
L 294.284608 121.694011 
L 297.296246 121.694011 
L 297.898573 123.352772 
L 300.910211 123.352772 
L 301.512538 124.993195 
L 304.524176 124.993195 
L 305.126504 126.596942 
L 308.138141 126.596942 
L 308.740469 128.337391 
L 311.752107 128.337391 
L 312.354434 130.111181 
L 315.366072 130.111181 
L 315.968399 132.158375 
L 318.980037 132.158375 
L 319.582365 134.108878 
L 322.594002 134.108878 
L 323.19633 135.679283 
L 326.207968 135.679283 
L 326.810295 137.589775 
L 329.821933 137.589775 
L 330.42426 139.496934 
L 333.435898 139.496934 
L 334.038226 141.357413 
L 337.049863 141.357413 
L 337.652191 143.284577 
L 340.663829 143.284577 
L 341.266156 144.698274 
L 344.277794 144.698274 
L 344.880121 146.298687 
L 347.891759 146.298687 
L 348.494087 148.275863 
L 351.505724 148.275863 
L 352.108052 149.924622 
L 355.11969 149.924622 
L 355.722017 151.733421 
L 358.733655 151.733421 
L 359.335982 153.650582 
L 362.34762 153.650582 
L 362.949948 155.11596 
L 365.961585 155.11596 
L 366.563913 156.688032 
L 369.575551 156.688032 
L 370.177878 158.551845 
L 373.189516 158.551845 
L 373.791843 159.998885 
L 376.803481 159.998885 
L 377.405809 161.786012 
L 380.417446 161.786012 
L 381.019774 163.363086 
L 384.031412 163.363086 
L 384.633739 165.073527 
L 387.645377 165.073527 
L 388.247705 166.703947 
L 391.259342 166.703947 
L 391.86167 168.301025 
L 394.873307 168.301025 
L 395.475635 169.814749 
L 398.487273 169.814749 
L 398.487273 169.814749 
" clip-path="url(#p89128095dd)" style="fill: none; stroke: #ffff00; stroke-width: 3; stroke-linecap: square"/>
   </g>
   <g id="patch_3">
    <path d="M 57.6 307.584 
L 57.6 41.472 
" style="fill: none; stroke: #ffffff; stroke-linejoin: miter; stroke-linecap: square"/>
   </g>
   <g id="patch_4">
    <path d="M 414.72 307.584 
L 414.72 41.472 
" style="fill: none; stroke: #ffffff; stroke-linejoin: miter; stroke-linecap: square"/>
   </g>
   <g id="patch_5">
    <path d="M 57.6 307.584 
L 414.72 307.584 
" style="fill: none; stroke: #ffffff; stroke-linejoin: miter; stroke-linecap: square"/>
   </g>
   <g id="patch_6">
    <path d="M 57.6 41.472 
L 414.72 41.472 
" style="fill: none; stroke: #ffffff; stroke-linejoin: miter; stroke-linecap: square"/>
   </g>
   <g id="legend_1">
    <g id="patch_7">
     <path d="M 243.124687 302.584 
L 407.72 302.584 
Q 409.72 302.584 409.72 300.584 
L 409.72 257.549625 
Q 409.72 255.549625 407.72 255.549625 
L 243.124687 255.549625 
Q 241.124687 255.549625 241.124687 257.549625 
L 241.124687 300.584 
Q 241.124687 302.584 243.124687 302.584 
z
" style="fill: #e5e5e5; opacity: 0.8; stroke: #cccccc; stroke-width: 0.5; stroke-linejoin: miter"/>
    </g>
    <g id="line2d_26">
     <path d="M 245.124687 263.648062 
L 255.124687 263.648062 
L 265.124687 263.648062 
" style="fill: none; stroke: #6495ed; stroke-width: 2; stroke-linecap: square"/>
    </g>
    <g id="text_14">
     <!-- Generator loss -->
     <g transform="translate(273.124687 267.148062) scale(0.1 -0.1)">
      <defs>
       <path id="DejaVuSans-47" d="M 3809 666 
L 3809 1919 
L 2778 1919 
L 2778 2438 
L 4434 2438 
L 4434 434 
Q 4069 175 3628 42 
Q 3188 -91 2688 -91 
Q 1594 -91 976 548 
Q 359 1188 359 2328 
Q 359 3472 976 4111 
Q 1594 4750 2688 4750 
Q 3144 4750 3555 4637 
Q 3966 4525 4313 4306 
L 4313 3634 
Q 3963 3931 3569 4081 
Q 3175 4231 2741 4231 
Q 1884 4231 1454 3753 
Q 1025 3275 1025 2328 
Q 1025 1384 1454 906 
Q 1884 428 2741 428 
Q 3075 428 3337 486 
Q 3600 544 3809 666 
z
" transform="scale(0.015625)"/>
       <path id="DejaVuSans-65" d="M 3597 1894 
L 3597 1613 
L 953 1613 
Q 991 1019 1311 708 
Q 1631 397 2203 397 
Q 2534 397 2845 478 
Q 3156 559 3463 722 
L 3463 178 
Q 3153 47 2828 -22 
Q 2503 -91 2169 -91 
Q 1331 -91 842 396 
Q 353 884 353 1716 
Q 353 2575 817 3079 
Q 1281 3584 2069 3584 
Q 2775 3584 3186 3129 
Q 3597 2675 3597 1894 
z
M 3022 2063 
Q 3016 2534 2758 2815 
Q 2500 3097 2075 3097 
Q 1594 3097 1305 2825 
Q 1016 2553 972 2059 
L 3022 2063 
z
" transform="scale(0.015625)"/>
       <path id="DejaVuSans-6e" d="M 3513 2113 
L 3513 0 
L 2938 0 
L 2938 2094 
Q 2938 2591 2744 2837 
Q 2550 3084 2163 3084 
Q 1697 3084 1428 2787 
Q 1159 2491 1159 1978 
L 1159 0 
L 581 0 
L 581 3500 
L 1159 3500 
L 1159 2956 
Q 1366 3272 1645 3428 
Q 1925 3584 2291 3584 
Q 2894 3584 3203 3211 
Q 3513 2838 3513 2113 
z
" transform="scale(0.015625)"/>
       <path id="DejaVuSans-72" d="M 2631 2963 
Q 2534 3019 2420 3045 
Q 2306 3072 2169 3072 
Q 1681 3072 1420 2755 
Q 1159 2438 1159 1844 
L 1159 0 
L 581 0 
L 581 3500 
L 1159 3500 
L 1159 2956 
Q 1341 3275 1631 3429 
Q 1922 3584 2338 3584 
Q 2397 3584 2469 3576 
Q 2541 3569 2628 3553 
L 2631 2963 
z
" transform="scale(0.015625)"/>
       <path id="DejaVuSans-61" d="M 2194 1759 
Q 1497 1759 1228 1600 
Q 959 1441 959 1056 
Q 959 750 1161 570 
Q 1363 391 1709 391 
Q 2188 391 2477 730 
Q 2766 1069 2766 1631 
L 2766 1759 
L 2194 1759 
z
M 3341 1997 
L 3341 0 
L 2766 0 
L 2766 531 
Q 2569 213 2275 61 
Q 1981 -91 1556 -91 
Q 1019 -91 701 211 
Q 384 513 384 1019 
Q 384 1609 779 1909 
Q 1175 2209 1959 2209 
L 2766 2209 
L 2766 2266 
Q 2766 2663 2505 2880 
Q 2244 3097 1772 3097 
Q 1472 3097 1187 3025 
Q 903 2953 641 2809 
L 641 3341 
Q 956 3463 1253 3523 
Q 1550 3584 1831 3584 
Q 2591 3584 2966 3190 
Q 3341 2797 3341 1997 
z
" transform="scale(0.015625)"/>
       <path id="DejaVuSans-74" d="M 1172 4494 
L 1172 3500 
L 2356 3500 
L 2356 3053 
L 1172 3053 
L 1172 1153 
Q 1172 725 1289 603 
Q 1406 481 1766 481 
L 2356 481 
L 2356 0 
L 1766 0 
Q 1100 0 847 248 
Q 594 497 594 1153 
L 594 3053 
L 172 3053 
L 172 3500 
L 594 3500 
L 594 4494 
L 1172 4494 
z
" transform="scale(0.015625)"/>
       <path id="DejaVuSans-20" transform="scale(0.015625)"/>
       <path id="DejaVuSans-6c" d="M 603 4863 
L 1178 4863 
L 1178 0 
L 603 0 
L 603 4863 
z
" transform="scale(0.015625)"/>
      </defs>
      <use xlink:href="#DejaVuSans-47"/>
      <use xlink:href="#DejaVuSans-65" x="77.490234"/>
      <use xlink:href="#DejaVuSans-6e" x="139.013672"/>
      <use xlink:href="#DejaVuSans-65" x="202.392578"/>
      <use xlink:href="#DejaVuSans-72" x="263.916016"/>
      <use xlink:href="#DejaVuSans-61" x="305.029297"/>
      <use xlink:href="#DejaVuSans-74" x="366.308594"/>
      <use xlink:href="#DejaVuSans-6f" x="405.517578"/>
      <use xlink:href="#DejaVuSans-72" x="466.699219"/>
      <use xlink:href="#DejaVuSans-20" x="507.8125"/>
      <use xlink:href="#DejaVuSans-6c" x="539.599609"/>
      <use xlink:href="#DejaVuSans-6f" x="567.382812"/>
      <use xlink:href="#DejaVuSans-73" x="628.564453"/>
      <use xlink:href="#DejaVuSans-73" x="680.664062"/>
     </g>
    </g>
    <g id="line2d_27">
     <path d="M 245.124687 278.326188 
L 255.124687 278.326188 
L 265.124687 278.326188 
" style="fill: none; stroke: #dc143c; stroke-width: 2; stroke-linecap: square"/>
    </g>
    <g id="text_15">
     <!-- Average discriminator loss -->
     <g transform="translate(273.124687 281.826188) scale(0.1 -0.1)">
      <defs>
       <path id="DejaVuSans-41" d="M 2188 4044 
L 1331 1722 
L 3047 1722 
L 2188 4044 
z
M 1831 4666 
L 2547 4666 
L 4325 0 
L 3669 0 
L 3244 1197 
L 1141 1197 
L 716 0 
L 50 0 
L 1831 4666 
z
" transform="scale(0.015625)"/>
       <path id="DejaVuSans-76" d="M 191 3500 
L 800 3500 
L 1894 563 
L 2988 3500 
L 3597 3500 
L 2284 0 
L 1503 0 
L 191 3500 
z
" transform="scale(0.015625)"/>
       <path id="DejaVuSans-67" d="M 2906 1791 
Q 2906 2416 2648 2759 
Q 2391 3103 1925 3103 
Q 1463 3103 1205 2759 
Q 947 2416 947 1791 
Q 947 1169 1205 825 
Q 1463 481 1925 481 
Q 2391 481 2648 825 
Q 2906 1169 2906 1791 
z
M 3481 434 
Q 3481 -459 3084 -895 
Q 2688 -1331 1869 -1331 
Q 1566 -1331 1297 -1286 
Q 1028 -1241 775 -1147 
L 775 -588 
Q 1028 -725 1275 -790 
Q 1522 -856 1778 -856 
Q 2344 -856 2625 -561 
Q 2906 -266 2906 331 
L 2906 616 
Q 2728 306 2450 153 
Q 2172 0 1784 0 
Q 1141 0 747 490 
Q 353 981 353 1791 
Q 353 2603 747 3093 
Q 1141 3584 1784 3584 
Q 2172 3584 2450 3431 
Q 2728 3278 2906 2969 
L 2906 3500 
L 3481 3500 
L 3481 434 
z
" transform="scale(0.015625)"/>
       <path id="DejaVuSans-64" d="M 2906 2969 
L 2906 4863 
L 3481 4863 
L 3481 0 
L 2906 0 
L 2906 525 
Q 2725 213 2448 61 
Q 2172 -91 1784 -91 
Q 1150 -91 751 415 
Q 353 922 353 1747 
Q 353 2572 751 3078 
Q 1150 3584 1784 3584 
Q 2172 3584 2448 3432 
Q 2725 3281 2906 2969 
z
M 947 1747 
Q 947 1113 1208 752 
Q 1469 391 1925 391 
Q 2381 391 2643 752 
Q 2906 1113 2906 1747 
Q 2906 2381 2643 2742 
Q 2381 3103 1925 3103 
Q 1469 3103 1208 2742 
Q 947 2381 947 1747 
z
" transform="scale(0.015625)"/>
       <path id="DejaVuSans-69" d="M 603 3500 
L 1178 3500 
L 1178 0 
L 603 0 
L 603 3500 
z
M 603 4863 
L 1178 4863 
L 1178 4134 
L 603 4134 
L 603 4863 
z
" transform="scale(0.015625)"/>
       <path id="DejaVuSans-6d" d="M 3328 2828 
Q 3544 3216 3844 3400 
Q 4144 3584 4550 3584 
Q 5097 3584 5394 3201 
Q 5691 2819 5691 2113 
L 5691 0 
L 5113 0 
L 5113 2094 
Q 5113 2597 4934 2840 
Q 4756 3084 4391 3084 
Q 3944 3084 3684 2787 
Q 3425 2491 3425 1978 
L 3425 0 
L 2847 0 
L 2847 2094 
Q 2847 2600 2669 2842 
Q 2491 3084 2119 3084 
Q 1678 3084 1418 2786 
Q 1159 2488 1159 1978 
L 1159 0 
L 581 0 
L 581 3500 
L 1159 3500 
L 1159 2956 
Q 1356 3278 1631 3431 
Q 1906 3584 2284 3584 
Q 2666 3584 2933 3390 
Q 3200 3197 3328 2828 
z
" transform="scale(0.015625)"/>
      </defs>
      <use xlink:href="#DejaVuSans-41"/>
      <use xlink:href="#DejaVuSans-76" x="62.533203"/>
      <use xlink:href="#DejaVuSans-65" x="121.712891"/>
      <use xlink:href="#DejaVuSans-72" x="183.236328"/>
      <use xlink:href="#DejaVuSans-61" x="224.349609"/>
      <use xlink:href="#DejaVuSans-67" x="285.628906"/>
      <use xlink:href="#DejaVuSans-65" x="349.105469"/>
      <use xlink:href="#DejaVuSans-20" x="410.628906"/>
      <use xlink:href="#DejaVuSans-64" x="442.416016"/>
      <use xlink:href="#DejaVuSans-69" x="505.892578"/>
      <use xlink:href="#DejaVuSans-73" x="533.675781"/>
      <use xlink:href="#DejaVuSans-63" x="585.775391"/>
      <use xlink:href="#DejaVuSans-72" x="640.755859"/>
      <use xlink:href="#DejaVuSans-69" x="681.869141"/>
      <use xlink:href="#DejaVuSans-6d" x="709.652344"/>
      <use xlink:href="#DejaVuSans-69" x="807.064453"/>
      <use xlink:href="#DejaVuSans-6e" x="834.847656"/>
      <use xlink:href="#DejaVuSans-61" x="898.226562"/>
      <use xlink:href="#DejaVuSans-74" x="959.505859"/>
      <use xlink:href="#DejaVuSans-6f" x="998.714844"/>
      <use xlink:href="#DejaVuSans-72" x="1059.896484"/>
      <use xlink:href="#DejaVuSans-20" x="1101.009766"/>
      <use xlink:href="#DejaVuSans-6c" x="1132.796875"/>
      <use xlink:href="#DejaVuSans-6f" x="1160.580078"/>
      <use xlink:href="#DejaVuSans-73" x="1221.761719"/>
      <use xlink:href="#DejaVuSans-73" x="1273.861328"/>
     </g>
    </g>
    <g id="line2d_28">
     <path d="M 245.124687 293.004312 
L 255.124687 293.004312 
L 265.124687 293.004312 
" style="fill: none; stroke: #ffff00; stroke-width: 3; stroke-linecap: square"/>
    </g>
    <g id="text_16">
     <!-- ROC AUC -->
     <g transform="translate(273.124687 296.504312) scale(0.1 -0.1)">
      <defs>
       <path id="DejaVuSans-52" d="M 2841 2188 
Q 3044 2119 3236 1894 
Q 3428 1669 3622 1275 
L 4263 0 
L 3584 0 
L 2988 1197 
Q 2756 1666 2539 1819 
Q 2322 1972 1947 1972 
L 1259 1972 
L 1259 0 
L 628 0 
L 628 4666 
L 2053 4666 
Q 2853 4666 3247 4331 
Q 3641 3997 3641 3322 
Q 3641 2881 3436 2590 
Q 3231 2300 2841 2188 
z
M 1259 4147 
L 1259 2491 
L 2053 2491 
Q 2509 2491 2742 2702 
Q 2975 2913 2975 3322 
Q 2975 3731 2742 3939 
Q 2509 4147 2053 4147 
L 1259 4147 
z
" transform="scale(0.015625)"/>
       <path id="DejaVuSans-4f" d="M 2522 4238 
Q 1834 4238 1429 3725 
Q 1025 3213 1025 2328 
Q 1025 1447 1429 934 
Q 1834 422 2522 422 
Q 3209 422 3611 934 
Q 4013 1447 4013 2328 
Q 4013 3213 3611 3725 
Q 3209 4238 2522 4238 
z
M 2522 4750 
Q 3503 4750 4090 4092 
Q 4678 3434 4678 2328 
Q 4678 1225 4090 567 
Q 3503 -91 2522 -91 
Q 1538 -91 948 565 
Q 359 1222 359 2328 
Q 359 3434 948 4092 
Q 1538 4750 2522 4750 
z
" transform="scale(0.015625)"/>
       <path id="DejaVuSans-43" d="M 4122 4306 
L 4122 3641 
Q 3803 3938 3442 4084 
Q 3081 4231 2675 4231 
Q 1875 4231 1450 3742 
Q 1025 3253 1025 2328 
Q 1025 1406 1450 917 
Q 1875 428 2675 428 
Q 3081 428 3442 575 
Q 3803 722 4122 1019 
L 4122 359 
Q 3791 134 3420 21 
Q 3050 -91 2638 -91 
Q 1578 -91 968 557 
Q 359 1206 359 2328 
Q 359 3453 968 4101 
Q 1578 4750 2638 4750 
Q 3056 4750 3426 4639 
Q 3797 4528 4122 4306 
z
" transform="scale(0.015625)"/>
       <path id="DejaVuSans-55" d="M 556 4666 
L 1191 4666 
L 1191 1831 
Q 1191 1081 1462 751 
Q 1734 422 2344 422 
Q 2950 422 3222 751 
Q 3494 1081 3494 1831 
L 3494 4666 
L 4128 4666 
L 4128 1753 
Q 4128 841 3676 375 
Q 3225 -91 2344 -91 
Q 1459 -91 1007 375 
Q 556 841 556 1753 
L 556 4666 
z
" transform="scale(0.015625)"/>
      </defs>
      <use xlink:href="#DejaVuSans-52"/>
      <use xlink:href="#DejaVuSans-4f" x="69.482422"/>
      <use xlink:href="#DejaVuSans-43" x="148.193359"/>
      <use xlink:href="#DejaVuSans-20" x="218.017578"/>
      <use xlink:href="#DejaVuSans-41" x="249.804688"/>
      <use xlink:href="#DejaVuSans-55" x="318.212891"/>
      <use xlink:href="#DejaVuSans-43" x="391.40625"/>
     </g>
    </g>
   </g>
  </g>
 </g>
 <defs>
  <clipPath id="p89128095dd">
   <rect x="57.6" y="41.472" width="357.12" height="266.112"/>
  </clipPath>
 </defs>
</svg>
