<?xml version="1.0" encoding="utf-8" standalone="no"?>
<!DOCTYPE svg PUBLIC "-//W3C//DTD SVG 1.1//EN"
  "http://www.w3.org/Graphics/SVG/1.1/DTD/svg11.dtd">
<svg xmlns:xlink="http://www.w3.org/1999/xlink" width="460.8pt" height="345.6pt" viewBox="0 0 460.8 345.6" xmlns="http://www.w3.org/2000/svg" version="1.1">
 <metadata>
  <rdf:RDF xmlns:dc="http://purl.org/dc/elements/1.1/" xmlns:cc="http://creativecommons.org/ns#" xmlns:rdf="http://www.w3.org/1999/02/22-rdf-syntax-ns#">
   <cc:Work>
    <dc:type rdf:resource="http://purl.org/dc/dcmitype/StillImage"/>
    <dc:date>2023-07-03T19:55:40.518924</dc:date>
    <dc:format>image/svg+xml</dc:format>
    <dc:creator>
     <cc:Agent>
      <dc:title>Matplotlib v3.7.1, https://matplotlib.org/</dc:title>
     </cc:Agent>
    </dc:creator>
   </cc:Work>
  </rdf:RDF>
 </metadata>
 <defs>
  <style type="text/css">*{stroke-linejoin: round; stroke-linecap: butt}</style>
 </defs>
 <g id="figure_1">
  <g id="patch_1">
   <path d="M 0 345.6 
L 460.8 345.6 
L 460.8 0 
L 0 0 
z
" style="fill: #ffffff"/>
  </g>
  <g id="axes_1">
   <g id="patch_2">
    <path d="M 57.6 307.584 
L 414.72 307.584 
L 414.72 41.472 
L 57.6 41.472 
z
" style="fill: #e5e5e5"/>
   </g>
   <g id="matplotlib.axis_1">
    <g id="xtick_1">
     <g id="line2d_1">
      <path d="M 73.2304 307.584 
L 73.2304 41.472 
" clip-path="url(#pe42971396b)" style="fill: none; stroke: #ffffff; stroke-width: 0.8; stroke-linecap: square"/>
     </g>
     <g id="line2d_2">
      <defs>
       <path id="mfb379779c7" d="M 0 0 
L 0 3.5 
" style="stroke: #555555; stroke-width: 0.8"/>
      </defs>
      <g>
       <use xlink:href="#mfb379779c7" x="73.2304" y="307.584" style="fill: #555555; stroke: #555555; stroke-width: 0.8"/>
      </g>
     </g>
     <g id="text_1">
      <!-- 0 -->
      <g style="fill: #555555" transform="translate(70.04915 322.182437) scale(0.1 -0.1)">
       <defs>
        <path id="DejaVuSans-30" d="M 2034 4250 
Q 1547 4250 1301 3770 
Q 1056 3291 1056 2328 
Q 1056 1369 1301 889 
Q 1547 409 2034 409 
Q 2525 409 2770 889 
Q 3016 1369 3016 2328 
Q 3016 3291 2770 3770 
Q 2525 4250 2034 4250 
z
M 2034 4750 
Q 2819 4750 3233 4129 
Q 3647 3509 3647 2328 
Q 3647 1150 3233 529 
Q 2819 -91 2034 -91 
Q 1250 -91 836 529 
Q 422 1150 422 2328 
Q 422 3509 836 4129 
Q 1250 4750 2034 4750 
z
" transform="scale(0.015625)"/>
       </defs>
       <use xlink:href="#DejaVuSans-30"/>
      </g>
     </g>
    </g>
    <g id="xtick_2">
     <g id="line2d_3">
      <path d="M 133.463154 307.584 
L 133.463154 41.472 
" clip-path="url(#pe42971396b)" style="fill: none; stroke: #ffffff; stroke-width: 0.8; stroke-linecap: square"/>
     </g>
     <g id="line2d_4">
      <g>
       <use xlink:href="#mfb379779c7" x="133.463154" y="307.584" style="fill: #555555; stroke: #555555; stroke-width: 0.8"/>
      </g>
     </g>
     <g id="text_2">
      <!-- 100 -->
      <g style="fill: #555555" transform="translate(123.919404 322.182437) scale(0.1 -0.1)">
       <defs>
        <path id="DejaVuSans-31" d="M 794 531 
L 1825 531 
L 1825 4091 
L 703 3866 
L 703 4441 
L 1819 4666 
L 2450 4666 
L 2450 531 
L 3481 531 
L 3481 0 
L 794 0 
L 794 531 
z
" transform="scale(0.015625)"/>
       </defs>
       <use xlink:href="#DejaVuSans-31"/>
       <use xlink:href="#DejaVuSans-30" x="63.623047"/>
       <use xlink:href="#DejaVuSans-30" x="127.246094"/>
      </g>
     </g>
    </g>
    <g id="xtick_3">
     <g id="line2d_5">
      <path d="M 193.695908 307.584 
L 193.695908 41.472 
" clip-path="url(#pe42971396b)" style="fill: none; stroke: #ffffff; stroke-width: 0.8; stroke-linecap: square"/>
     </g>
     <g id="line2d_6">
      <g>
       <use xlink:href="#mfb379779c7" x="193.695908" y="307.584" style="fill: #555555; stroke: #555555; stroke-width: 0.8"/>
      </g>
     </g>
     <g id="text_3">
      <!-- 200 -->
      <g style="fill: #555555" transform="translate(184.152158 322.182437) scale(0.1 -0.1)">
       <defs>
        <path id="DejaVuSans-32" d="M 1228 531 
L 3431 531 
L 3431 0 
L 469 0 
L 469 531 
Q 828 903 1448 1529 
Q 2069 2156 2228 2338 
Q 2531 2678 2651 2914 
Q 2772 3150 2772 3378 
Q 2772 3750 2511 3984 
Q 2250 4219 1831 4219 
Q 1534 4219 1204 4116 
Q 875 4013 500 3803 
L 500 4441 
Q 881 4594 1212 4672 
Q 1544 4750 1819 4750 
Q 2544 4750 2975 4387 
Q 3406 4025 3406 3419 
Q 3406 3131 3298 2873 
Q 3191 2616 2906 2266 
Q 2828 2175 2409 1742 
Q 1991 1309 1228 531 
z
" transform="scale(0.015625)"/>
       </defs>
       <use xlink:href="#DejaVuSans-32"/>
       <use xlink:href="#DejaVuSans-30" x="63.623047"/>
       <use xlink:href="#DejaVuSans-30" x="127.246094"/>
      </g>
     </g>
    </g>
    <g id="xtick_4">
     <g id="line2d_7">
      <path d="M 253.928663 307.584 
L 253.928663 41.472 
" clip-path="url(#pe42971396b)" style="fill: none; stroke: #ffffff; stroke-width: 0.8; stroke-linecap: square"/>
     </g>
     <g id="line2d_8">
      <g>
       <use xlink:href="#mfb379779c7" x="253.928663" y="307.584" style="fill: #555555; stroke: #555555; stroke-width: 0.8"/>
      </g>
     </g>
     <g id="text_4">
      <!-- 300 -->
      <g style="fill: #555555" transform="translate(244.384913 322.182437) scale(0.1 -0.1)">
       <defs>
        <path id="DejaVuSans-33" d="M 2597 2516 
Q 3050 2419 3304 2112 
Q 3559 1806 3559 1356 
Q 3559 666 3084 287 
Q 2609 -91 1734 -91 
Q 1441 -91 1130 -33 
Q 819 25 488 141 
L 488 750 
Q 750 597 1062 519 
Q 1375 441 1716 441 
Q 2309 441 2620 675 
Q 2931 909 2931 1356 
Q 2931 1769 2642 2001 
Q 2353 2234 1838 2234 
L 1294 2234 
L 1294 2753 
L 1863 2753 
Q 2328 2753 2575 2939 
Q 2822 3125 2822 3475 
Q 2822 3834 2567 4026 
Q 2313 4219 1838 4219 
Q 1578 4219 1281 4162 
Q 984 4106 628 3988 
L 628 4550 
Q 988 4650 1302 4700 
Q 1616 4750 1894 4750 
Q 2613 4750 3031 4423 
Q 3450 4097 3450 3541 
Q 3450 3153 3228 2886 
Q 3006 2619 2597 2516 
z
" transform="scale(0.015625)"/>
       </defs>
       <use xlink:href="#DejaVuSans-33"/>
       <use xlink:href="#DejaVuSans-30" x="63.623047"/>
       <use xlink:href="#DejaVuSans-30" x="127.246094"/>
      </g>
     </g>
    </g>
    <g id="xtick_5">
     <g id="line2d_9">
      <path d="M 314.161417 307.584 
L 314.161417 41.472 
" clip-path="url(#pe42971396b)" style="fill: none; stroke: #ffffff; stroke-width: 0.8; stroke-linecap: square"/>
     </g>
     <g id="line2d_10">
      <g>
       <use xlink:href="#mfb379779c7" x="314.161417" y="307.584" style="fill: #555555; stroke: #555555; stroke-width: 0.8"/>
      </g>
     </g>
     <g id="text_5">
      <!-- 400 -->
      <g style="fill: #555555" transform="translate(304.617667 322.182437) scale(0.1 -0.1)">
       <defs>
        <path id="DejaVuSans-34" d="M 2419 4116 
L 825 1625 
L 2419 1625 
L 2419 4116 
z
M 2253 4666 
L 3047 4666 
L 3047 1625 
L 3713 1625 
L 3713 1100 
L 3047 1100 
L 3047 0 
L 2419 0 
L 2419 1100 
L 313 1100 
L 313 1709 
L 2253 4666 
z
" transform="scale(0.015625)"/>
       </defs>
       <use xlink:href="#DejaVuSans-34"/>
       <use xlink:href="#DejaVuSans-30" x="63.623047"/>
       <use xlink:href="#DejaVuSans-30" x="127.246094"/>
      </g>
     </g>
    </g>
    <g id="xtick_6">
     <g id="line2d_11">
      <path d="M 374.394171 307.584 
L 374.394171 41.472 
" clip-path="url(#pe42971396b)" style="fill: none; stroke: #ffffff; stroke-width: 0.8; stroke-linecap: square"/>
     </g>
     <g id="line2d_12">
      <g>
       <use xlink:href="#mfb379779c7" x="374.394171" y="307.584" style="fill: #555555; stroke: #555555; stroke-width: 0.8"/>
      </g>
     </g>
     <g id="text_6">
      <!-- 500 -->
      <g style="fill: #555555" transform="translate(364.850421 322.182437) scale(0.1 -0.1)">
       <defs>
        <path id="DejaVuSans-35" d="M 691 4666 
L 3169 4666 
L 3169 4134 
L 1269 4134 
L 1269 2991 
Q 1406 3038 1543 3061 
Q 1681 3084 1819 3084 
Q 2600 3084 3056 2656 
Q 3513 2228 3513 1497 
Q 3513 744 3044 326 
Q 2575 -91 1722 -91 
Q 1428 -91 1123 -41 
Q 819 9 494 109 
L 494 744 
Q 775 591 1075 516 
Q 1375 441 1709 441 
Q 2250 441 2565 725 
Q 2881 1009 2881 1497 
Q 2881 1984 2565 2268 
Q 2250 2553 1709 2553 
Q 1456 2553 1204 2497 
Q 953 2441 691 2322 
L 691 4666 
z
" transform="scale(0.015625)"/>
       </defs>
       <use xlink:href="#DejaVuSans-35"/>
       <use xlink:href="#DejaVuSans-30" x="63.623047"/>
       <use xlink:href="#DejaVuSans-30" x="127.246094"/>
      </g>
     </g>
    </g>
    <g id="text_7">
     <!-- Epoch -->
     <g style="fill: #555555" transform="translate(217.786875 337.38025) scale(0.12 -0.12)">
      <defs>
       <path id="DejaVuSans-45" d="M 628 4666 
L 3578 4666 
L 3578 4134 
L 1259 4134 
L 1259 2753 
L 3481 2753 
L 3481 2222 
L 1259 2222 
L 1259 531 
L 3634 531 
L 3634 0 
L 628 0 
L 628 4666 
z
" transform="scale(0.015625)"/>
       <path id="DejaVuSans-70" d="M 1159 525 
L 1159 -1331 
L 581 -1331 
L 581 3500 
L 1159 3500 
L 1159 2969 
Q 1341 3281 1617 3432 
Q 1894 3584 2278 3584 
Q 2916 3584 3314 3078 
Q 3713 2572 3713 1747 
Q 3713 922 3314 415 
Q 2916 -91 2278 -91 
Q 1894 -91 1617 61 
Q 1341 213 1159 525 
z
M 3116 1747 
Q 3116 2381 2855 2742 
Q 2594 3103 2138 3103 
Q 1681 3103 1420 2742 
Q 1159 2381 1159 1747 
Q 1159 1113 1420 752 
Q 1681 391 2138 391 
Q 2594 391 2855 752 
Q 3116 1113 3116 1747 
z
" transform="scale(0.015625)"/>
       <path id="DejaVuSans-6f" d="M 1959 3097 
Q 1497 3097 1228 2736 
Q 959 2375 959 1747 
Q 959 1119 1226 758 
Q 1494 397 1959 397 
Q 2419 397 2687 759 
Q 2956 1122 2956 1747 
Q 2956 2369 2687 2733 
Q 2419 3097 1959 3097 
z
M 1959 3584 
Q 2709 3584 3137 3096 
Q 3566 2609 3566 1747 
Q 3566 888 3137 398 
Q 2709 -91 1959 -91 
Q 1206 -91 779 398 
Q 353 888 353 1747 
Q 353 2609 779 3096 
Q 1206 3584 1959 3584 
z
" transform="scale(0.015625)"/>
       <path id="DejaVuSans-63" d="M 3122 3366 
L 3122 2828 
Q 2878 2963 2633 3030 
Q 2388 3097 2138 3097 
Q 1578 3097 1268 2742 
Q 959 2388 959 1747 
Q 959 1106 1268 751 
Q 1578 397 2138 397 
Q 2388 397 2633 464 
Q 2878 531 3122 666 
L 3122 134 
Q 2881 22 2623 -34 
Q 2366 -91 2075 -91 
Q 1284 -91 818 406 
Q 353 903 353 1747 
Q 353 2603 823 3093 
Q 1294 3584 2113 3584 
Q 2378 3584 2631 3529 
Q 2884 3475 3122 3366 
z
" transform="scale(0.015625)"/>
       <path id="DejaVuSans-68" d="M 3513 2113 
L 3513 0 
L 2938 0 
L 2938 2094 
Q 2938 2591 2744 2837 
Q 2550 3084 2163 3084 
Q 1697 3084 1428 2787 
Q 1159 2491 1159 1978 
L 1159 0 
L 581 0 
L 581 4863 
L 1159 4863 
L 1159 2956 
Q 1366 3272 1645 3428 
Q 1925 3584 2291 3584 
Q 2894 3584 3203 3211 
Q 3513 2838 3513 2113 
z
" transform="scale(0.015625)"/>
      </defs>
      <use xlink:href="#DejaVuSans-45"/>
      <use xlink:href="#DejaVuSans-70" x="63.183594"/>
      <use xlink:href="#DejaVuSans-6f" x="126.660156"/>
      <use xlink:href="#DejaVuSans-63" x="187.841797"/>
      <use xlink:href="#DejaVuSans-68" x="242.822266"/>
     </g>
    </g>
   </g>
   <g id="matplotlib.axis_2">
    <g id="ytick_1">
     <g id="line2d_13">
      <path d="M 57.6 287.248548 
L 414.72 287.248548 
" clip-path="url(#pe42971396b)" style="fill: none; stroke: #ffffff; stroke-width: 0.8; stroke-linecap: square"/>
     </g>
     <g id="line2d_14">
      <defs>
       <path id="m47a335869d" d="M 0 0 
L -3.5 0 
" style="stroke: #555555; stroke-width: 0.8"/>
      </defs>
      <g>
       <use xlink:href="#m47a335869d" x="57.6" y="287.248548" style="fill: #555555; stroke: #555555; stroke-width: 0.8"/>
      </g>
     </g>
     <g id="text_8">
      <!-- 0.4 -->
      <g style="fill: #555555" transform="translate(34.696875 291.047767) scale(0.1 -0.1)">
       <defs>
        <path id="DejaVuSans-2e" d="M 684 794 
L 1344 794 
L 1344 0 
L 684 0 
L 684 794 
z
" transform="scale(0.015625)"/>
       </defs>
       <use xlink:href="#DejaVuSans-30"/>
       <use xlink:href="#DejaVuSans-2e" x="63.623047"/>
       <use xlink:href="#DejaVuSans-34" x="95.410156"/>
      </g>
     </g>
    </g>
    <g id="ytick_2">
     <g id="line2d_15">
      <path d="M 57.6 234.359744 
L 414.72 234.359744 
" clip-path="url(#pe42971396b)" style="fill: none; stroke: #ffffff; stroke-width: 0.8; stroke-linecap: square"/>
     </g>
     <g id="line2d_16">
      <g>
       <use xlink:href="#m47a335869d" x="57.6" y="234.359744" style="fill: #555555; stroke: #555555; stroke-width: 0.8"/>
      </g>
     </g>
     <g id="text_9">
      <!-- 0.5 -->
      <g style="fill: #555555" transform="translate(34.696875 238.158963) scale(0.1 -0.1)">
       <use xlink:href="#DejaVuSans-30"/>
       <use xlink:href="#DejaVuSans-2e" x="63.623047"/>
       <use xlink:href="#DejaVuSans-35" x="95.410156"/>
      </g>
     </g>
    </g>
    <g id="ytick_3">
     <g id="line2d_17">
      <path d="M 57.6 181.470941 
L 414.72 181.470941 
" clip-path="url(#pe42971396b)" style="fill: none; stroke: #ffffff; stroke-width: 0.8; stroke-linecap: square"/>
     </g>
     <g id="line2d_18">
      <g>
       <use xlink:href="#m47a335869d" x="57.6" y="181.470941" style="fill: #555555; stroke: #555555; stroke-width: 0.8"/>
      </g>
     </g>
     <g id="text_10">
      <!-- 0.6 -->
      <g style="fill: #555555" transform="translate(34.696875 185.27016) scale(0.1 -0.1)">
       <defs>
        <path id="DejaVuSans-36" d="M 2113 2584 
Q 1688 2584 1439 2293 
Q 1191 2003 1191 1497 
Q 1191 994 1439 701 
Q 1688 409 2113 409 
Q 2538 409 2786 701 
Q 3034 994 3034 1497 
Q 3034 2003 2786 2293 
Q 2538 2584 2113 2584 
z
M 3366 4563 
L 3366 3988 
Q 3128 4100 2886 4159 
Q 2644 4219 2406 4219 
Q 1781 4219 1451 3797 
Q 1122 3375 1075 2522 
Q 1259 2794 1537 2939 
Q 1816 3084 2150 3084 
Q 2853 3084 3261 2657 
Q 3669 2231 3669 1497 
Q 3669 778 3244 343 
Q 2819 -91 2113 -91 
Q 1303 -91 875 529 
Q 447 1150 447 2328 
Q 447 3434 972 4092 
Q 1497 4750 2381 4750 
Q 2619 4750 2861 4703 
Q 3103 4656 3366 4563 
z
" transform="scale(0.015625)"/>
       </defs>
       <use xlink:href="#DejaVuSans-30"/>
       <use xlink:href="#DejaVuSans-2e" x="63.623047"/>
       <use xlink:href="#DejaVuSans-36" x="95.410156"/>
      </g>
     </g>
    </g>
    <g id="ytick_4">
     <g id="line2d_19">
      <path d="M 57.6 128.582137 
L 414.72 128.582137 
" clip-path="url(#pe42971396b)" style="fill: none; stroke: #ffffff; stroke-width: 0.8; stroke-linecap: square"/>
     </g>
     <g id="line2d_20">
      <g>
       <use xlink:href="#m47a335869d" x="57.6" y="128.582137" style="fill: #555555; stroke: #555555; stroke-width: 0.8"/>
      </g>
     </g>
     <g id="text_11">
      <!-- 0.7 -->
      <g style="fill: #555555" transform="translate(34.696875 132.381356) scale(0.1 -0.1)">
       <defs>
        <path id="DejaVuSans-37" d="M 525 4666 
L 3525 4666 
L 3525 4397 
L 1831 0 
L 1172 0 
L 2766 4134 
L 525 4134 
L 525 4666 
z
" transform="scale(0.015625)"/>
       </defs>
       <use xlink:href="#DejaVuSans-30"/>
       <use xlink:href="#DejaVuSans-2e" x="63.623047"/>
       <use xlink:href="#DejaVuSans-37" x="95.410156"/>
      </g>
     </g>
    </g>
    <g id="ytick_5">
     <g id="line2d_21">
      <path d="M 57.6 75.693334 
L 414.72 75.693334 
" clip-path="url(#pe42971396b)" style="fill: none; stroke: #ffffff; stroke-width: 0.8; stroke-linecap: square"/>
     </g>
     <g id="line2d_22">
      <g>
       <use xlink:href="#m47a335869d" x="57.6" y="75.693334" style="fill: #555555; stroke: #555555; stroke-width: 0.8"/>
      </g>
     </g>
     <g id="text_12">
      <!-- 0.8 -->
      <g style="fill: #555555" transform="translate(34.696875 79.492553) scale(0.1 -0.1)">
       <defs>
        <path id="DejaVuSans-38" d="M 2034 2216 
Q 1584 2216 1326 1975 
Q 1069 1734 1069 1313 
Q 1069 891 1326 650 
Q 1584 409 2034 409 
Q 2484 409 2743 651 
Q 3003 894 3003 1313 
Q 3003 1734 2745 1975 
Q 2488 2216 2034 2216 
z
M 1403 2484 
Q 997 2584 770 2862 
Q 544 3141 544 3541 
Q 544 4100 942 4425 
Q 1341 4750 2034 4750 
Q 2731 4750 3128 4425 
Q 3525 4100 3525 3541 
Q 3525 3141 3298 2862 
Q 3072 2584 2669 2484 
Q 3125 2378 3379 2068 
Q 3634 1759 3634 1313 
Q 3634 634 3220 271 
Q 2806 -91 2034 -91 
Q 1263 -91 848 271 
Q 434 634 434 1313 
Q 434 1759 690 2068 
Q 947 2378 1403 2484 
z
M 1172 3481 
Q 1172 3119 1398 2916 
Q 1625 2713 2034 2713 
Q 2441 2713 2670 2916 
Q 2900 3119 2900 3481 
Q 2900 3844 2670 4047 
Q 2441 4250 2034 4250 
Q 1625 4250 1398 4047 
Q 1172 3844 1172 3481 
z
" transform="scale(0.015625)"/>
       </defs>
       <use xlink:href="#DejaVuSans-30"/>
       <use xlink:href="#DejaVuSans-2e" x="63.623047"/>
       <use xlink:href="#DejaVuSans-38" x="95.410156"/>
      </g>
     </g>
    </g>
    <g id="text_13">
     <!-- Loss -->
     <g style="fill: #555555" transform="translate(28.20125 187.688625) rotate(-90) scale(0.12 -0.12)">
      <defs>
       <path id="DejaVuSans-4c" d="M 628 4666 
L 1259 4666 
L 1259 531 
L 3531 531 
L 3531 0 
L 628 0 
L 628 4666 
z
" transform="scale(0.015625)"/>
       <path id="DejaVuSans-73" d="M 2834 3397 
L 2834 2853 
Q 2591 2978 2328 3040 
Q 2066 3103 1784 3103 
Q 1356 3103 1142 2972 
Q 928 2841 928 2578 
Q 928 2378 1081 2264 
Q 1234 2150 1697 2047 
L 1894 2003 
Q 2506 1872 2764 1633 
Q 3022 1394 3022 966 
Q 3022 478 2636 193 
Q 2250 -91 1575 -91 
Q 1294 -91 989 -36 
Q 684 19 347 128 
L 347 722 
Q 666 556 975 473 
Q 1284 391 1588 391 
Q 1994 391 2212 530 
Q 2431 669 2431 922 
Q 2431 1156 2273 1281 
Q 2116 1406 1581 1522 
L 1381 1569 
Q 847 1681 609 1914 
Q 372 2147 372 2553 
Q 372 3047 722 3315 
Q 1072 3584 1716 3584 
Q 2034 3584 2315 3537 
Q 2597 3491 2834 3397 
z
" transform="scale(0.015625)"/>
      </defs>
      <use xlink:href="#DejaVuSans-4c"/>
      <use xlink:href="#DejaVuSans-6f" x="53.962891"/>
      <use xlink:href="#DejaVuSans-73" x="115.144531"/>
      <use xlink:href="#DejaVuSans-73" x="167.244141"/>
     </g>
    </g>
   </g>
   <g id="line2d_23">
    <path d="M 73.832727 166.648509 
L 74.435055 165.630877 
L 75.037382 164.130169 
L 75.63971 163.82596 
L 76.242037 164.470125 
L 76.844365 162.911822 
L 78.04902 162.445894 
L 78.651348 160.79368 
L 79.253675 161.316005 
L 79.856003 158.714219 
L 80.45833 158.376406 
L 81.060658 158.417671 
L 81.662985 159.167474 
L 82.265313 155.713306 
L 82.86764 157.623987 
L 83.469968 157.210925 
L 84.072295 156.10181 
L 84.674623 154.444552 
L 85.276951 154.725527 
L 85.879278 154.767423 
L 87.083933 152.862133 
L 87.686261 151.536982 
L 88.288588 153.826615 
L 88.890916 152.858823 
L 89.493243 151.363284 
L 90.095571 150.221793 
L 90.697898 151.059549 
L 91.300226 150.430011 
L 91.902554 149.104135 
L 92.504881 148.911869 
L 93.107209 147.821763 
L 93.709536 147.535302 
L 94.914191 148.054033 
L 95.516519 146.833511 
L 96.118846 146.616656 
L 97.323501 146.025672 
L 97.925829 145.801882 
L 98.528157 144.616888 
L 99.130484 144.881155 
L 99.732812 145.471067 
L 100.335139 143.409922 
L 101.539794 144.648791 
L 102.142122 143.229004 
L 102.744449 143.240196 
L 103.346777 143.637274 
L 103.949104 142.433586 
L 104.551432 143.002125 
L 105.153759 142.584366 
L 105.756087 141.396378 
L 106.358415 141.9077 
L 106.960742 141.598826 
L 107.56307 141.42352 
L 108.165397 141.124261 
L 108.767725 140.640049 
L 109.370052 139.853994 
L 109.97238 139.975299 
L 110.574707 139.707627 
L 111.177035 141.028585 
L 111.779362 139.206456 
L 112.38169 140.679265 
L 112.984018 140.375688 
L 113.586345 139.049181 
L 114.188673 139.27748 
L 114.791 138.794876 
L 115.393328 137.9569 
L 115.995655 139.47646 
L 116.597983 137.976603 
L 117.20031 138.650054 
L 117.802638 138.465606 
L 118.404965 138.436036 
L 119.007293 137.212015 
L 119.609621 137.030152 
L 120.211948 137.826989 
L 120.814276 135.942725 
L 121.416603 137.984673 
L 122.018931 137.684878 
L 122.621258 135.90849 
L 123.223586 136.968901 
L 123.825913 136.609147 
L 124.428241 135.821862 
L 125.030568 136.989328 
L 125.632896 135.037382 
L 126.235223 135.380176 
L 127.439879 135.696774 
L 128.042206 136.596316 
L 128.644534 135.460847 
L 129.246861 135.203231 
L 130.451516 135.227914 
L 131.053844 134.821946 
L 131.656171 134.709625 
L 132.258499 135.067961 
L 132.860826 134.529717 
L 133.463154 135.415767 
L 134.065482 133.991946 
L 134.667809 134.482052 
L 135.270137 133.256014 
L 135.872464 134.159213 
L 136.474792 133.655362 
L 137.077119 132.745133 
L 138.281774 135.085488 
L 138.884102 132.985883 
L 139.486429 135.049393 
L 140.088757 133.667373 
L 140.691084 133.210808 
L 141.293412 134.103258 
L 141.89574 133.77115 
L 142.498067 132.835324 
L 143.100395 133.549 
L 143.702722 132.883997 
L 144.30505 132.523234 
L 144.907377 133.140856 
L 145.509705 132.546814 
L 146.112032 132.417376 
L 146.71436 134.015148 
L 148.521343 131.85117 
L 149.12367 131.811323 
L 149.725998 132.947676 
L 150.328325 131.921973 
L 150.930653 132.436417 
L 151.53298 131.495514 
L 152.135308 131.566444 
L 152.737635 132.013614 
L 153.339963 133.442605 
L 153.94229 131.511907 
L 154.544618 131.210504 
L 155.146946 131.228536 
L 155.749273 131.540594 
L 156.351601 131.474866 
L 156.953928 129.16512 
L 157.556256 130.411807 
L 158.158583 132.461699 
L 158.760911 131.772013 
L 159.363238 131.449773 
L 159.965566 131.630784 
L 161.170221 131.174724 
L 161.772548 131.171509 
L 162.374876 130.249836 
L 162.977204 130.946426 
L 163.579531 129.369113 
L 164.181859 131.79222 
L 164.784186 130.332997 
L 165.386514 130.368052 
L 165.988841 129.90556 
L 167.193496 131.101493 
L 167.795824 129.519452 
L 168.398151 130.171877 
L 169.000479 129.957386 
L 169.602807 129.193839 
L 170.205134 129.968893 
L 170.807462 128.439812 
L 171.409789 129.195573 
L 172.012117 128.302083 
L 173.216772 129.56904 
L 173.819099 128.750735 
L 174.421427 129.740248 
L 175.023754 128.75146 
L 175.626082 130.012364 
L 176.22841 129.652421 
L 176.830737 128.413332 
L 177.433065 129.642302 
L 178.035392 128.028989 
L 178.63772 129.639465 
L 179.240047 128.415286 
L 179.842375 128.198053 
L 180.444702 128.208645 
L 181.04703 128.705592 
L 181.649357 129.013899 
L 182.251685 129.064968 
L 182.854012 127.677116 
L 183.45634 128.313589 
L 184.058668 127.728563 
L 184.660995 127.793314 
L 185.263323 127.548024 
L 185.86565 126.428159 
L 186.467978 127.639161 
L 187.070305 127.103313 
L 187.672633 126.843932 
L 188.27496 125.736298 
L 188.877288 126.289201 
L 189.479615 124.977826 
L 190.081943 125.776554 
L 190.684271 124.966856 
L 191.286598 126.825585 
L 191.888926 125.149917 
L 193.695908 125.779045 
L 194.298236 124.258381 
L 194.900563 125.172898 
L 195.502891 124.833256 
L 196.105218 124.164061 
L 196.707546 123.86001 
L 197.309874 123.887436 
L 197.912201 123.689464 
L 198.514529 124.507706 
L 199.719184 122.931119 
L 200.321511 123.437302 
L 200.923839 122.980832 
L 201.526166 121.923227 
L 202.730821 123.212031 
L 203.333149 123.191036 
L 203.935476 122.097367 
L 204.537804 121.292271 
L 205.140132 121.882813 
L 205.742459 122.065307 
L 206.344787 121.266768 
L 206.947114 120.184669 
L 207.549442 121.970198 
L 208.151769 120.536321 
L 208.754097 120.909599 
L 209.356424 121.137046 
L 209.958752 120.935764 
L 210.561079 121.497241 
L 211.163407 119.990196 
L 211.765735 120.238701 
L 212.368062 119.580823 
L 212.97039 120.310261 
L 214.175045 120.363915 
L 214.777372 119.438996 
L 215.3797 118.733232 
L 215.982027 119.636778 
L 216.584355 118.71851 
L 217.186682 119.404067 
L 217.78901 117.772249 
L 218.391337 119.93506 
L 218.993665 119.021742 
L 219.595993 118.578764 
L 220.800648 119.557999 
L 221.402975 117.837063 
L 222.005303 118.378081 
L 222.60763 118.444061 
L 223.209958 118.777713 
L 223.812285 118.517891 
L 224.414613 118.660538 
L 225.01694 118.978553 
L 225.619268 118.445858 
L 226.221596 117.397143 
L 226.823923 118.026807 
L 227.426251 117.925236 
L 228.028578 118.065991 
L 228.630906 117.015416 
L 229.233233 117.881606 
L 229.835561 117.786561 
L 230.437888 117.338098 
L 231.040216 117.44011 
L 231.642543 117.027017 
L 232.244871 116.372323 
L 232.847199 116.610331 
L 233.449526 117.305628 
L 234.051854 116.611087 
L 234.654181 116.497789 
L 235.858836 116.958263 
L 236.461164 116.018779 
L 237.063491 116.526067 
L 237.665819 116.67981 
L 238.268146 116.327779 
L 238.870474 116.390166 
L 239.472801 115.5677 
L 240.075129 116.644219 
L 240.677457 115.885747 
L 241.279784 115.534505 
L 241.882112 116.212622 
L 242.484439 115.213904 
L 243.086767 115.414303 
L 243.689094 116.471656 
L 244.291422 115.568772 
L 244.893749 117.260549 
L 245.496077 114.855096 
L 246.098404 115.913709 
L 246.700732 114.690918 
L 247.30306 116.369391 
L 247.905387 115.796061 
L 248.507715 115.90586 
L 249.110042 114.55943 
L 249.71237 114.595904 
L 250.314697 114.164054 
L 250.917025 115.094112 
L 251.519352 114.742523 
L 252.12168 115.331962 
L 252.724007 115.651365 
L 253.326335 114.069828 
L 253.928663 115.042475 
L 254.53099 114.177263 
L 255.133318 114.821144 
L 256.337973 113.716032 
L 256.9403 114.777767 
L 258.144955 112.980479 
L 258.747283 114.789588 
L 259.951938 113.11701 
L 260.554265 114.867611 
L 261.156593 113.31908 
L 261.758921 113.016668 
L 262.361248 114.369592 
L 262.963576 113.640248 
L 263.565903 113.719784 
L 264.168231 114.546001 
L 264.770558 113.567207 
L 265.372886 113.642896 
L 265.975213 112.495889 
L 266.577541 112.528296 
L 267.179868 113.695888 
L 267.782196 112.570664 
L 268.384524 112.979943 
L 268.986851 113.103297 
L 269.589179 112.219895 
L 270.191506 112.480379 
L 270.793834 111.333182 
L 271.396161 112.098463 
L 272.600816 111.745267 
L 273.203144 113.987676 
L 273.805471 112.462536 
L 274.407799 113.891717 
L 275.010126 111.801758 
L 275.612454 111.779533 
L 276.214782 112.603386 
L 276.817109 111.816858 
L 277.419437 110.740559 
L 278.021764 111.391281 
L 278.624092 111.345319 
L 279.226419 111.825685 
L 279.828747 111.305126 
L 280.431074 112.170875 
L 281.033402 111.338857 
L 281.635729 110.904769 
L 282.238057 111.907301 
L 282.840385 109.124661 
L 283.442712 110.72713 
L 284.04504 110.908993 
L 285.249695 111.9323 
L 285.852022 110.205562 
L 286.45435 110.741757 
L 287.056677 110.845598 
L 287.659005 109.452954 
L 288.261332 110.958801 
L 288.86366 110.786175 
L 289.465988 111.903896 
L 290.068315 109.713186 
L 290.670643 110.960377 
L 291.27297 111.617751 
L 291.875298 109.072236 
L 292.477625 110.202914 
L 293.079953 111.060372 
L 293.68228 111.636571 
L 294.284608 111.552717 
L 294.886935 110.508983 
L 295.489263 109.892401 
L 296.09159 109.669809 
L 296.693918 108.678153 
L 297.296246 108.614095 
L 297.898573 110.757866 
L 298.500901 108.717968 
L 299.103228 110.7503 
L 299.705556 109.942714 
L 300.307883 110.139267 
L 300.910211 108.582918 
L 301.512538 111.063745 
L 302.114866 107.093211 
L 302.717193 109.539456 
L 303.319521 109.020568 
L 303.921849 110.163351 
L 304.524176 110.161302 
L 305.126504 108.783443 
L 305.728831 107.872458 
L 306.331159 107.852786 
L 307.535814 109.293473 
L 308.138141 108.294377 
L 308.740469 108.078815 
L 309.342796 109.903813 
L 310.547452 108.573209 
L 311.149779 108.911242 
L 311.752107 107.08615 
L 312.354434 109.061455 
L 312.956762 108.4386 
L 313.559089 109.010228 
L 314.161417 109.273046 
L 314.763744 107.709257 
L 315.366072 108.480433 
L 315.968399 108.576676 
L 316.570727 106.580628 
L 317.775382 107.479824 
L 318.37771 108.152203 
L 318.980037 106.49898 
L 319.582365 107.571874 
L 320.184692 107.218678 
L 320.78702 108.210681 
L 321.389347 108.233346 
L 321.991675 107.903446 
L 322.594002 106.456139 
L 323.19633 106.628639 
L 324.400985 107.22473 
L 325.003313 106.712178 
L 325.60564 105.611133 
L 326.207968 106.080339 
L 326.810295 105.396706 
L 328.01495 107.201276 
L 328.617278 106.509636 
L 329.219605 106.630594 
L 330.42426 106.098655 
L 331.026588 106.180019 
L 331.628916 104.406941 
L 332.231243 108.294377 
L 332.833571 105.454143 
L 333.435898 105.984064 
L 334.038226 106.78894 
L 334.640553 107.184505 
L 335.242881 105.13868 
L 335.845208 107.114711 
L 336.447536 107.03341 
L 337.049863 104.693086 
L 337.652191 106.647365 
L 338.254518 105.905349 
L 338.856846 105.7395 
L 339.459174 105.91613 
L 340.061501 105.722004 
L 340.663829 104.855908 
L 341.266156 106.665302 
L 341.868484 104.674707 
L 342.470811 105.403263 
L 343.073139 104.925293 
L 343.675466 106.638286 
L 344.277794 104.946509 
L 344.880121 106.628608 
L 345.482449 104.298845 
L 346.084777 104.719125 
L 346.687104 104.827316 
L 347.289432 105.301976 
L 347.891759 103.638823 
L 348.494087 106.933636 
L 349.096414 103.676116 
L 349.698742 106.900882 
L 350.301069 105.197631 
L 350.903397 106.373136 
L 351.505724 105.031782 
L 352.108052 106.226107 
L 352.710379 104.029691 
L 353.312707 105.500799 
L 353.915035 105.097794 
L 354.517362 102.930853 
L 355.11969 102.706747 
L 355.722017 106.342148 
L 356.324345 103.400752 
L 356.926672 103.115364 
L 357.529 103.920901 
L 358.131327 102.658988 
L 358.733655 104.325199 
L 359.335982 104.744943 
L 359.93831 104.179116 
L 360.540638 104.583287 
L 361.142965 100.566697 
L 361.745293 105.491751 
L 362.34762 103.203568 
L 362.949948 102.764752 
L 363.552275 105.027873 
L 364.154603 103.591473 
L 364.75693 102.800942 
L 365.359258 102.921364 
L 365.961585 103.307504 
L 367.166241 103.487349 
L 367.768568 102.661447 
L 368.370896 103.05613 
L 368.973223 103.16741 
L 369.575551 103.574545 
L 370.177878 101.329676 
L 370.780206 105.417102 
L 371.382533 104.139994 
L 371.984861 104.558793 
L 372.587188 101.709606 
L 373.189516 102.996454 
L 373.791843 101.486446 
L 374.996499 102.519683 
L 375.598826 104.885919 
L 376.803481 101.564374 
L 377.405809 102.183036 
L 378.008136 102.084901 
L 378.610464 102.909006 
L 379.212791 100.165709 
L 379.815119 102.867237 
L 380.417446 102.148706 
L 381.019774 103.255205 
L 381.622102 102.786503 
L 382.224429 103.938744 
L 382.826757 100.618333 
L 383.429084 103.122394 
L 384.633739 101.034169 
L 385.236067 103.74115 
L 386.440722 101.320282 
L 387.043049 100.779327 
L 387.645377 101.919431 
L 388.247705 100.015055 
L 388.850032 100.088695 
L 389.45236 101.90266 
L 390.054687 103.355988 
L 390.657015 101.391306 
L 391.259342 101.54341 
L 392.463997 99.976911 
L 393.066325 102.620434 
L 393.668652 100.997884 
L 394.27098 101.905844 
L 394.873307 100.6979 
L 395.475635 98.548361 
L 396.077963 99.593261 
L 396.68029 103.614518 
L 397.282618 100.59201 
L 397.884945 103.380135 
L 398.487273 100.70534 
L 398.487273 100.70534 
" clip-path="url(#pe42971396b)" style="fill: none; stroke: #6495ed; stroke-width: 2; stroke-linecap: square"/>
   </g>
   <g id="line2d_24">
    <path d="M 73.832727 123.194409 
L 74.435055 122.87562 
L 75.037382 123.966148 
L 75.63971 123.766222 
L 76.242037 123.301437 
L 76.844365 123.644393 
L 77.446693 124.786813 
L 78.04902 124.013687 
L 78.651348 125.006245 
L 79.253675 124.18867 
L 79.856003 125.937828 
L 80.45833 125.752785 
L 81.060658 126.519867 
L 81.662985 125.247539 
L 82.265313 127.119642 
L 82.86764 125.812027 
L 83.469968 126.040175 
L 84.072295 125.993137 
L 84.674623 127.830253 
L 85.276951 126.844838 
L 85.879278 126.787791 
L 86.481606 126.953569 
L 87.083933 127.663348 
L 87.686261 127.8218 
L 88.288588 127.330504 
L 88.890916 127.005801 
L 89.493243 127.939472 
L 90.095571 128.066377 
L 90.697898 127.699782 
L 91.300226 127.510763 
L 91.902554 128.97047 
L 92.504881 128.448422 
L 93.107209 129.015329 
L 93.709536 128.72762 
L 94.311864 128.743918 
L 94.914191 128.060166 
L 95.516519 129.588088 
L 96.118846 129.078799 
L 96.721174 129.236416 
L 97.323501 128.946406 
L 97.925829 129.223645 
L 98.528157 129.368751 
L 99.130484 129.92163 
L 99.732812 129.041577 
L 100.335139 130.172326 
L 100.937467 129.368412 
L 101.539794 129.270009 
L 102.142122 129.553207 
L 102.744449 130.161147 
L 103.346777 129.419217 
L 103.949104 130.03265 
L 104.551432 129.340497 
L 105.153759 129.727583 
L 105.756087 129.907176 
L 106.358415 130.304085 
L 106.960742 130.008641 
L 107.56307 130.129264 
L 108.165397 129.835648 
L 108.767725 130.344684 
L 109.370052 130.253422 
L 109.97238 130.825566 
L 110.574707 130.684992 
L 111.177035 129.910585 
L 111.779362 130.460299 
L 112.38169 129.938184 
L 112.984018 129.598377 
L 113.586345 130.86375 
L 114.188673 130.546475 
L 114.791 130.762293 
L 115.393328 130.815262 
L 115.995655 130.196107 
L 116.597983 130.547862 
L 117.20031 130.741338 
L 118.404965 130.632146 
L 119.609621 131.172671 
L 120.211948 130.453809 
L 120.814276 131.834557 
L 121.416603 130.704718 
L 122.018931 130.827962 
L 122.621258 131.401541 
L 123.223586 131.049415 
L 123.825913 130.866871 
L 124.428241 131.709808 
L 125.030568 131.067514 
L 125.632896 131.981369 
L 126.235223 131.511962 
L 126.837551 131.658455 
L 127.439879 131.224647 
L 128.042206 131.07683 
L 128.644534 131.73723 
L 129.246861 131.762835 
L 129.849189 131.405513 
L 130.451516 131.631675 
L 131.053844 131.556809 
L 131.656171 131.951973 
L 132.258499 131.861573 
L 132.860826 131.9703 
L 133.463154 131.160353 
L 134.065482 132.123192 
L 134.667809 131.567846 
L 135.270137 132.47975 
L 135.872464 132.189637 
L 137.077119 132.498578 
L 137.679447 132.130072 
L 138.281774 131.296108 
L 138.884102 132.577117 
L 139.486429 131.740489 
L 140.088757 132.270769 
L 140.691084 132.185263 
L 141.293412 131.925394 
L 141.89574 131.850059 
L 142.498067 132.467602 
L 143.100395 132.385466 
L 143.702722 132.549139 
L 145.509705 132.489866 
L 146.112032 132.664719 
L 146.71436 132.151016 
L 147.316687 132.414767 
L 147.919015 132.55081 
L 148.521343 132.998788 
L 149.12367 132.84004 
L 149.725998 132.26526 
L 150.328325 133.222125 
L 150.930653 132.803764 
L 152.135308 133.222385 
L 152.737635 132.748908 
L 153.339963 132.023462 
L 153.94229 133.490416 
L 154.544618 133.44004 
L 155.146946 133.175828 
L 155.749273 133.22661 
L 156.351601 133.049357 
L 156.953928 134.138439 
L 157.556256 134.112821 
L 158.158583 132.876474 
L 158.760911 132.901268 
L 159.363238 133.312942 
L 159.965566 133.11527 
L 160.567893 133.04096 
L 161.170221 133.685105 
L 161.772548 133.507301 
L 162.374876 133.71153 
L 162.977204 133.602697 
L 163.579531 134.223838 
L 164.181859 132.86455 
L 164.784186 134.222683 
L 165.386514 133.946622 
L 165.988841 133.991319 
L 166.591169 133.846856 
L 167.193496 133.396738 
L 168.398151 134.365295 
L 169.000479 134.168611 
L 169.602807 134.309725 
L 170.205134 134.144196 
L 170.807462 134.772977 
L 171.409789 134.089702 
L 172.012117 135.337812 
L 173.216772 134.244506 
L 173.819099 134.855117 
L 174.421427 134.263247 
L 175.626082 134.588167 
L 176.22841 134.460651 
L 176.830737 134.88116 
L 177.433065 134.460911 
L 178.035392 135.158041 
L 178.63772 133.971715 
L 179.240047 135.489924 
L 180.444702 135.021644 
L 181.04703 135.020257 
L 181.649357 134.789902 
L 182.251685 134.292344 
L 182.854012 135.93631 
L 183.45634 135.190058 
L 185.86565 135.297433 
L 186.467978 135.699217 
L 187.672633 135.405009 
L 188.27496 136.044931 
L 188.877288 135.67438 
L 189.479615 135.771778 
L 190.081943 136.416971 
L 190.684271 136.361091 
L 191.286598 135.195291 
L 191.888926 136.245385 
L 192.491253 136.018147 
L 193.093581 135.205718 
L 193.695908 136.238308 
L 194.298236 136.4821 
L 194.900563 135.847968 
L 196.105218 136.465786 
L 196.707546 135.864841 
L 197.309874 137.008192 
L 197.912201 136.609556 
L 198.514529 136.005399 
L 199.116856 136.603189 
L 199.719184 136.886118 
L 200.321511 135.864849 
L 200.923839 137.289872 
L 201.526166 137.301686 
L 202.128494 136.824019 
L 202.730821 136.668333 
L 203.333149 136.655759 
L 203.935476 136.334776 
L 204.537804 138.003268 
L 205.140132 137.231627 
L 205.742459 136.968719 
L 206.947114 138.038079 
L 207.549442 136.365571 
L 208.151769 138.342484 
L 208.754097 137.664064 
L 209.356424 137.360837 
L 209.958752 137.66806 
L 211.163407 137.245431 
L 211.765735 138.517498 
L 212.368062 138.258382 
L 212.97039 137.800938 
L 213.572717 137.968595 
L 214.175045 137.999111 
L 214.777372 137.473646 
L 215.3797 139.244687 
L 215.982027 138.28221 
L 216.584355 138.626068 
L 217.186682 138.455589 
L 217.78901 139.259046 
L 218.391337 137.250522 
L 218.993665 139.177757 
L 220.19832 138.46429 
L 220.800648 138.358621 
L 221.402975 139.274532 
L 222.005303 137.986123 
L 222.60763 139.486268 
L 223.209958 138.787342 
L 225.01694 138.828634 
L 225.619268 138.031498 
L 226.221596 140.09249 
L 226.823923 139.195253 
L 227.426251 139.158141 
L 228.028578 139.268338 
L 228.630906 139.849186 
L 229.233233 138.312402 
L 229.835561 139.920258 
L 230.437888 139.547926 
L 231.040216 139.368064 
L 232.244871 140.181711 
L 232.847199 138.934753 
L 233.449526 140.303462 
L 234.051854 140.016127 
L 235.256509 139.983956 
L 235.858836 140.017506 
L 236.461164 139.214876 
L 237.063491 140.779977 
L 237.665819 140.102964 
L 238.870474 140.273265 
L 239.472801 140.836957 
L 240.075129 139.037963 
L 240.677457 141.148601 
L 241.882112 140.289169 
L 242.484439 140.931546 
L 243.086767 141.044729 
L 243.689094 139.166932 
L 244.291422 141.406383 
L 244.893749 139.953937 
L 245.496077 141.010644 
L 246.098404 140.7175 
L 246.700732 141.457791 
L 247.30306 139.272306 
L 247.905387 141.44539 
L 248.507715 140.772739 
L 249.110042 141.360901 
L 249.71237 141.459209 
L 250.314697 141.854148 
L 250.917025 139.956325 
L 251.519352 142.057254 
L 252.12168 141.09211 
L 252.724007 140.860876 
L 253.326335 141.739286 
L 253.928663 141.564015 
L 254.53099 140.47954 
L 255.133318 142.16424 
L 255.735645 141.704125 
L 256.337973 141.946679 
L 256.9403 141.574848 
L 257.542628 142.235878 
L 258.144955 141.100811 
L 258.747283 142.336508 
L 259.34961 141.99036 
L 259.951938 142.390371 
L 260.554265 141.695826 
L 261.156593 142.718179 
L 261.758921 141.232144 
L 262.361248 142.68256 
L 262.963576 142.258123 
L 263.565903 142.208768 
L 264.168231 141.943101 
L 264.770558 142.683719 
L 265.372886 141.003728 
L 265.975213 143.619345 
L 266.577541 142.818993 
L 267.179868 142.272758 
L 267.782196 142.961116 
L 268.384524 143.047311 
L 268.986851 141.341096 
L 269.589179 143.853156 
L 270.191506 142.934092 
L 270.793834 143.531042 
L 271.396161 143.27538 
L 271.998489 143.700161 
L 272.600816 142.02709 
L 273.203144 143.184102 
L 273.805471 143.035805 
L 274.407799 142.432077 
L 275.010126 143.493792 
L 275.612454 143.78201 
L 276.214782 141.651286 
L 276.817109 144.299664 
L 278.021764 143.680238 
L 279.226419 143.885633 
L 279.828747 142.336665 
L 280.431074 144.259108 
L 281.033402 143.840345 
L 281.635729 144.002632 
L 282.238057 143.702793 
L 282.840385 145.298169 
L 283.442712 142.673879 
L 284.04504 145.01386 
L 284.647367 143.930571 
L 285.249695 143.622793 
L 285.852022 144.572238 
L 286.45435 144.705302 
L 287.056677 142.747212 
L 287.659005 145.80693 
L 288.261332 144.236446 
L 288.86366 144.370022 
L 289.465988 143.942456 
L 290.068315 145.314601 
L 290.670643 142.720598 
L 291.27297 144.916458 
L 291.875298 145.163951 
L 292.477625 144.696428 
L 293.079953 144.428192 
L 293.68228 144.573117 
L 294.284608 142.594044 
L 294.886935 145.544054 
L 295.489263 144.908534 
L 296.09159 145.043635 
L 296.693918 145.649494 
L 297.296246 146.066764 
L 297.898573 142.987415 
L 298.500901 146.524629 
L 299.103228 144.663682 
L 299.705556 145.069745 
L 300.307883 145.097991 
L 300.910211 146.236014 
L 301.512538 142.916099 
L 302.114866 147.355433 
L 302.717193 145.281824 
L 303.319521 145.617304 
L 303.921849 145.145588 
L 304.524176 145.618612 
L 305.126504 144.072655 
L 305.728831 147.112295 
L 306.331159 146.154764 
L 307.535814 145.709713 
L 308.138141 146.636213 
L 308.740469 144.522343 
L 309.342796 146.342979 
L 309.945124 145.695799 
L 310.547452 146.065692 
L 311.149779 145.962029 
L 311.752107 147.265609 
L 312.354434 144.17404 
L 312.956762 147.150235 
L 313.559089 145.916902 
L 314.161417 145.83315 
L 314.763744 146.61497 
L 315.366072 146.763567 
L 315.968399 144.374313 
L 316.570727 148.06321 
L 317.173054 146.883934 
L 318.37771 146.514053 
L 318.980037 147.743863 
L 319.582365 144.932776 
L 320.184692 147.853074 
L 320.78702 146.507921 
L 321.991675 146.680343 
L 322.594002 147.904565 
L 323.19633 145.455455 
L 323.798657 148.084505 
L 324.400985 146.97697 
L 325.003313 147.305464 
L 325.60564 147.907422 
L 326.207968 148.144425 
L 326.810295 146.084634 
L 327.412623 148.574895 
L 328.01495 147.135079 
L 328.617278 147.551561 
L 329.219605 147.585954 
L 329.821933 148.171646 
L 330.42426 145.83436 
L 331.026588 148.778474 
L 331.628916 148.560252 
L 332.231243 146.880388 
L 332.833571 148.240814 
L 333.435898 148.581929 
L 334.038226 145.637448 
L 334.640553 148.479885 
L 335.242881 148.248584 
L 335.845208 147.466958 
L 336.447536 147.623377 
L 337.049863 149.215798 
L 337.652191 145.751061 
L 338.254518 149.111165 
L 338.856846 148.138675 
L 340.061501 148.360783 
L 340.663829 149.312608 
L 341.266156 145.88245 
L 341.868484 149.908006 
L 342.470811 148.450544 
L 343.073139 148.835163 
L 343.675466 148.109429 
L 344.277794 149.50422 
L 344.880121 146.046498 
L 345.482449 150.231176 
L 346.084777 148.888017 
L 346.687104 148.963841 
L 347.289432 148.860335 
L 347.891759 150.181387 
L 348.494087 145.971695 
L 349.096414 150.609032 
L 349.698742 148.056862 
L 350.301069 148.896387 
L 350.903397 148.401386 
L 351.505724 149.641595 
L 352.108052 146.443612 
L 352.710379 150.599922 
L 353.312707 148.738584 
L 353.915035 149.083735 
L 355.11969 150.855465 
L 355.722017 146.339972 
L 356.324345 150.981908 
L 356.926672 149.987072 
L 357.529 149.694867 
L 358.131327 150.370678 
L 358.733655 150.168179 
L 359.335982 147.263501 
L 359.93831 150.667557 
L 360.540638 149.334293 
L 361.142965 151.323122 
L 361.745293 149.246195 
L 362.34762 150.761243 
L 362.949948 148.217726 
L 363.552275 150.512159 
L 364.154603 149.935321 
L 364.75693 150.529032 
L 365.359258 150.491057 
L 365.961585 150.916031 
L 366.563913 148.108526 
L 367.166241 151.413534 
L 367.768568 150.516481 
L 368.973223 150.562842 
L 369.575551 150.929803 
L 370.177878 149.079885 
L 370.780206 150.599079 
L 371.382533 149.945697 
L 371.984861 149.933091 
L 372.587188 151.293442 
L 373.189516 151.348633 
L 373.791843 149.144052 
L 374.394171 152.266696 
L 374.996499 150.864126 
L 375.598826 149.949547 
L 376.201154 150.8272 
L 376.803481 152.210288 
L 377.405809 148.850129 
L 378.008136 152.479599 
L 378.610464 150.778034 
L 379.212791 152.225096 
L 379.815119 151.030152 
L 380.417446 152.020236 
L 381.019774 148.484121 
L 381.622102 152.264958 
L 382.224429 150.342531 
L 382.826757 152.047599 
L 383.429084 150.877792 
L 384.031412 152.169298 
L 384.633739 149.604956 
L 385.236067 151.878511 
L 385.838394 151.049764 
L 386.440722 151.841021 
L 387.645377 152.331333 
L 388.247705 150.098676 
L 388.850032 153.663127 
L 389.45236 151.577786 
L 390.054687 151.110251 
L 390.657015 152.009613 
L 391.259342 152.643205 
L 391.86167 149.779923 
L 392.463997 153.90565 
L 393.066325 151.403213 
L 393.668652 152.23741 
L 394.27098 151.907368 
L 394.873307 153.103537 
L 395.475635 150.920235 
L 396.077963 154.137873 
L 396.68029 150.912224 
L 397.282618 152.519043 
L 397.884945 151.342872 
L 398.487273 153.216477 
L 398.487273 153.216477 
" clip-path="url(#pe42971396b)" style="fill: none; stroke: #dc143c; stroke-width: 2; stroke-linecap: square"/>
   </g>
   <g id="line2d_25">
    <path d="M 73.832727 295.488 
L 76.844365 295.488 
L 77.446693 292.53901 
L 80.45833 292.53901 
L 81.060658 289.132009 
L 84.072295 289.132009 
L 84.674623 285.714725 
L 87.686261 285.714725 
L 88.288588 281.820445 
L 91.300226 281.820445 
L 91.902554 277.179425 
L 94.914191 277.179425 
L 95.516519 272.103333 
L 98.528157 272.103333 
L 99.130484 266.573978 
L 102.142122 266.573978 
L 102.744449 260.70843 
L 105.756087 260.70843 
L 106.358415 254.740048 
L 109.370052 254.740048 
L 109.97238 248.634026 
L 112.984018 248.634026 
L 113.586345 242.088186 
L 116.597983 242.088186 
L 117.20031 234.788487 
L 120.211948 234.788487 
L 120.814276 227.264133 
L 123.825913 227.264133 
L 124.428241 219.909061 
L 127.439879 219.909061 
L 128.042206 211.522476 
L 131.053844 211.522476 
L 131.656171 203.297263 
L 134.667809 203.297263 
L 135.270137 194.74535 
L 138.281774 194.74535 
L 138.884102 185.752039 
L 141.89574 185.752039 
L 142.498067 176.548311 
L 145.509705 176.548311 
L 146.112032 167.455329 
L 149.12367 167.455329 
L 149.725998 158.265049 
L 152.737635 158.265049 
L 153.339963 149.663301 
L 156.351601 149.663301 
L 156.953928 141.040987 
L 159.965566 141.040987 
L 160.567893 132.040556 
L 163.579531 132.040556 
L 164.181859 123.430107 
L 167.193496 123.430107 
L 167.795824 115.577472 
L 170.807462 115.577472 
L 171.409789 108.110073 
L 174.421427 108.110073 
L 175.023754 101.258892 
L 178.035392 101.258892 
L 178.63772 94.61971 
L 181.649357 94.61971 
L 182.251685 88.544538 
L 185.263323 88.544538 
L 185.86565 82.826915 
L 188.877288 82.826915 
L 189.479615 77.903494 
L 192.491253 77.903494 
L 193.093581 73.687262 
L 196.105218 73.687262 
L 196.707546 69.901353 
L 199.719184 69.901353 
L 200.321511 66.841618 
L 203.333149 66.841618 
L 203.935476 63.957494 
L 206.947114 63.957494 
L 207.549442 61.786885 
L 210.561079 61.786885 
L 211.163407 60.234869 
L 214.175045 60.234869 
L 214.777372 58.626688 
L 217.78901 58.626688 
L 218.391337 57.246327 
L 221.402975 57.246327 
L 222.005303 56.267022 
L 225.01694 56.267022 
L 225.619268 55.532938 
L 228.630906 55.532938 
L 229.233233 54.876377 
L 232.244871 54.876377 
L 232.847199 54.410456 
L 235.858836 54.410456 
L 236.461164 54.177099 
L 239.472801 54.177099 
L 240.075129 53.939788 
L 243.086767 53.939788 
L 243.689094 53.784744 
L 250.314697 53.714342 
L 250.917025 53.568 
L 253.928663 53.568 
L 254.53099 53.724626 
L 261.156593 53.795819 
L 261.758921 54.007817 
L 268.384524 54.052906 
L 268.986851 54.30683 
L 271.998489 54.30683 
L 272.600816 54.583693 
L 275.612454 54.583693 
L 276.214782 54.737945 
L 279.226419 54.737945 
L 279.828747 54.85581 
L 282.840385 54.85581 
L 283.442712 55.091539 
L 286.45435 55.091539 
L 287.056677 55.520282 
L 290.068315 55.520282 
L 290.670643 55.894443 
L 293.68228 55.894443 
L 294.284608 56.145202 
L 297.296246 56.145202 
L 297.898573 56.398334 
L 300.910211 56.398334 
L 301.512538 56.770122 
L 304.524176 56.770122 
L 305.126504 57.144283 
L 308.138141 57.144283 
L 308.740469 57.383968 
L 311.752107 57.383968 
L 312.354434 57.638682 
L 315.366072 57.638682 
L 315.968399 57.807964 
L 318.980037 57.807964 
L 319.582365 58.173423 
L 322.594002 58.173423 
L 323.19633 58.531764 
L 326.207968 58.531764 
L 326.810295 58.793597 
L 329.821933 58.793597 
L 330.42426 58.997685 
L 333.435898 58.997685 
L 334.038226 59.369473 
L 337.049863 59.369473 
L 337.652191 59.658993 
L 340.663829 59.658993 
L 341.266156 59.944558 
L 344.277794 59.944558 
L 344.880121 60.12887 
L 347.891759 60.12887 
L 348.494087 60.363017 
L 351.505724 60.363017 
L 352.108052 60.52518 
L 355.11969 60.52518 
L 355.722017 60.696835 
L 362.34762 60.755372 
L 362.949948 60.913579 
L 365.961585 60.913579 
L 366.563913 61.163547 
L 369.575551 61.163547 
L 370.177878 61.361307 
L 373.189516 61.361307 
L 373.791843 61.558275 
L 376.803481 61.558275 
L 377.405809 61.761572 
L 380.417446 61.761572 
L 381.019774 61.989391 
L 384.031412 61.989391 
L 384.633739 62.228284 
L 387.645377 62.228284 
L 388.247705 62.389656 
L 391.259342 62.389656 
L 391.86167 62.541536 
L 394.873307 62.541536 
L 395.475635 62.789921 
L 398.487273 62.789921 
L 398.487273 62.789921 
" clip-path="url(#pe42971396b)" style="fill: none; stroke: #ffff00; stroke-width: 3; stroke-linecap: square"/>
   </g>
   <g id="patch_3">
    <path d="M 57.6 307.584 
L 57.6 41.472 
" style="fill: none; stroke: #ffffff; stroke-linejoin: miter; stroke-linecap: square"/>
   </g>
   <g id="patch_4">
    <path d="M 414.72 307.584 
L 414.72 41.472 
" style="fill: none; stroke: #ffffff; stroke-linejoin: miter; stroke-linecap: square"/>
   </g>
   <g id="patch_5">
    <path d="M 57.6 307.584 
L 414.72 307.584 
" style="fill: none; stroke: #ffffff; stroke-linejoin: miter; stroke-linecap: square"/>
   </g>
   <g id="patch_6">
    <path d="M 57.6 41.472 
L 414.72 41.472 
" style="fill: none; stroke: #ffffff; stroke-linejoin: miter; stroke-linecap: square"/>
   </g>
   <g id="legend_1">
    <g id="patch_7">
     <path d="M 243.124687 302.584 
L 407.72 302.584 
Q 409.72 302.584 409.72 300.584 
L 409.72 257.549625 
Q 409.72 255.549625 407.72 255.549625 
L 243.124687 255.549625 
Q 241.124687 255.549625 241.124687 257.549625 
L 241.124687 300.584 
Q 241.124687 302.584 243.124687 302.584 
z
" style="fill: #e5e5e5; opacity: 0.8; stroke: #cccccc; stroke-width: 0.5; stroke-linejoin: miter"/>
    </g>
    <g id="line2d_26">
     <path d="M 245.124687 263.648062 
L 255.124687 263.648062 
L 265.124687 263.648062 
" style="fill: none; stroke: #6495ed; stroke-width: 2; stroke-linecap: square"/>
    </g>
    <g id="text_14">
     <!-- Generator loss -->
     <g transform="translate(273.124687 267.148062) scale(0.1 -0.1)">
      <defs>
       <path id="DejaVuSans-47" d="M 3809 666 
L 3809 1919 
L 2778 1919 
L 2778 2438 
L 4434 2438 
L 4434 434 
Q 4069 175 3628 42 
Q 3188 -91 2688 -91 
Q 1594 -91 976 548 
Q 359 1188 359 2328 
Q 359 3472 976 4111 
Q 1594 4750 2688 4750 
Q 3144 4750 3555 4637 
Q 3966 4525 4313 4306 
L 4313 3634 
Q 3963 3931 3569 4081 
Q 3175 4231 2741 4231 
Q 1884 4231 1454 3753 
Q 1025 3275 1025 2328 
Q 1025 1384 1454 906 
Q 1884 428 2741 428 
Q 3075 428 3337 486 
Q 3600 544 3809 666 
z
" transform="scale(0.015625)"/>
       <path id="DejaVuSans-65" d="M 3597 1894 
L 3597 1613 
L 953 1613 
Q 991 1019 1311 708 
Q 1631 397 2203 397 
Q 2534 397 2845 478 
Q 3156 559 3463 722 
L 3463 178 
Q 3153 47 2828 -22 
Q 2503 -91 2169 -91 
Q 1331 -91 842 396 
Q 353 884 353 1716 
Q 353 2575 817 3079 
Q 1281 3584 2069 3584 
Q 2775 3584 3186 3129 
Q 3597 2675 3597 1894 
z
M 3022 2063 
Q 3016 2534 2758 2815 
Q 2500 3097 2075 3097 
Q 1594 3097 1305 2825 
Q 1016 2553 972 2059 
L 3022 2063 
z
" transform="scale(0.015625)"/>
       <path id="DejaVuSans-6e" d="M 3513 2113 
L 3513 0 
L 2938 0 
L 2938 2094 
Q 2938 2591 2744 2837 
Q 2550 3084 2163 3084 
Q 1697 3084 1428 2787 
Q 1159 2491 1159 1978 
L 1159 0 
L 581 0 
L 581 3500 
L 1159 3500 
L 1159 2956 
Q 1366 3272 1645 3428 
Q 1925 3584 2291 3584 
Q 2894 3584 3203 3211 
Q 3513 2838 3513 2113 
z
" transform="scale(0.015625)"/>
       <path id="DejaVuSans-72" d="M 2631 2963 
Q 2534 3019 2420 3045 
Q 2306 3072 2169 3072 
Q 1681 3072 1420 2755 
Q 1159 2438 1159 1844 
L 1159 0 
L 581 0 
L 581 3500 
L 1159 3500 
L 1159 2956 
Q 1341 3275 1631 3429 
Q 1922 3584 2338 3584 
Q 2397 3584 2469 3576 
Q 2541 3569 2628 3553 
L 2631 2963 
z
" transform="scale(0.015625)"/>
       <path id="DejaVuSans-61" d="M 2194 1759 
Q 1497 1759 1228 1600 
Q 959 1441 959 1056 
Q 959 750 1161 570 
Q 1363 391 1709 391 
Q 2188 391 2477 730 
Q 2766 1069 2766 1631 
L 2766 1759 
L 2194 1759 
z
M 3341 1997 
L 3341 0 
L 2766 0 
L 2766 531 
Q 2569 213 2275 61 
Q 1981 -91 1556 -91 
Q 1019 -91 701 211 
Q 384 513 384 1019 
Q 384 1609 779 1909 
Q 1175 2209 1959 2209 
L 2766 2209 
L 2766 2266 
Q 2766 2663 2505 2880 
Q 2244 3097 1772 3097 
Q 1472 3097 1187 3025 
Q 903 2953 641 2809 
L 641 3341 
Q 956 3463 1253 3523 
Q 1550 3584 1831 3584 
Q 2591 3584 2966 3190 
Q 3341 2797 3341 1997 
z
" transform="scale(0.015625)"/>
       <path id="DejaVuSans-74" d="M 1172 4494 
L 1172 3500 
L 2356 3500 
L 2356 3053 
L 1172 3053 
L 1172 1153 
Q 1172 725 1289 603 
Q 1406 481 1766 481 
L 2356 481 
L 2356 0 
L 1766 0 
Q 1100 0 847 248 
Q 594 497 594 1153 
L 594 3053 
L 172 3053 
L 172 3500 
L 594 3500 
L 594 4494 
L 1172 4494 
z
" transform="scale(0.015625)"/>
       <path id="DejaVuSans-20" transform="scale(0.015625)"/>
       <path id="DejaVuSans-6c" d="M 603 4863 
L 1178 4863 
L 1178 0 
L 603 0 
L 603 4863 
z
" transform="scale(0.015625)"/>
      </defs>
      <use xlink:href="#DejaVuSans-47"/>
      <use xlink:href="#DejaVuSans-65" x="77.490234"/>
      <use xlink:href="#DejaVuSans-6e" x="139.013672"/>
      <use xlink:href="#DejaVuSans-65" x="202.392578"/>
      <use xlink:href="#DejaVuSans-72" x="263.916016"/>
      <use xlink:href="#DejaVuSans-61" x="305.029297"/>
      <use xlink:href="#DejaVuSans-74" x="366.308594"/>
      <use xlink:href="#DejaVuSans-6f" x="405.517578"/>
      <use xlink:href="#DejaVuSans-72" x="466.699219"/>
      <use xlink:href="#DejaVuSans-20" x="507.8125"/>
      <use xlink:href="#DejaVuSans-6c" x="539.599609"/>
      <use xlink:href="#DejaVuSans-6f" x="567.382812"/>
      <use xlink:href="#DejaVuSans-73" x="628.564453"/>
      <use xlink:href="#DejaVuSans-73" x="680.664062"/>
     </g>
    </g>
    <g id="line2d_27">
     <path d="M 245.124687 278.326188 
L 255.124687 278.326188 
L 265.124687 278.326188 
" style="fill: none; stroke: #dc143c; stroke-width: 2; stroke-linecap: square"/>
    </g>
    <g id="text_15">
     <!-- Average discriminator loss -->
     <g transform="translate(273.124687 281.826188) scale(0.1 -0.1)">
      <defs>
       <path id="DejaVuSans-41" d="M 2188 4044 
L 1331 1722 
L 3047 1722 
L 2188 4044 
z
M 1831 4666 
L 2547 4666 
L 4325 0 
L 3669 0 
L 3244 1197 
L 1141 1197 
L 716 0 
L 50 0 
L 1831 4666 
z
" transform="scale(0.015625)"/>
       <path id="DejaVuSans-76" d="M 191 3500 
L 800 3500 
L 1894 563 
L 2988 3500 
L 3597 3500 
L 2284 0 
L 1503 0 
L 191 3500 
z
" transform="scale(0.015625)"/>
       <path id="DejaVuSans-67" d="M 2906 1791 
Q 2906 2416 2648 2759 
Q 2391 3103 1925 3103 
Q 1463 3103 1205 2759 
Q 947 2416 947 1791 
Q 947 1169 1205 825 
Q 1463 481 1925 481 
Q 2391 481 2648 825 
Q 2906 1169 2906 1791 
z
M 3481 434 
Q 3481 -459 3084 -895 
Q 2688 -1331 1869 -1331 
Q 1566 -1331 1297 -1286 
Q 1028 -1241 775 -1147 
L 775 -588 
Q 1028 -725 1275 -790 
Q 1522 -856 1778 -856 
Q 2344 -856 2625 -561 
Q 2906 -266 2906 331 
L 2906 616 
Q 2728 306 2450 153 
Q 2172 0 1784 0 
Q 1141 0 747 490 
Q 353 981 353 1791 
Q 353 2603 747 3093 
Q 1141 3584 1784 3584 
Q 2172 3584 2450 3431 
Q 2728 3278 2906 2969 
L 2906 3500 
L 3481 3500 
L 3481 434 
z
" transform="scale(0.015625)"/>
       <path id="DejaVuSans-64" d="M 2906 2969 
L 2906 4863 
L 3481 4863 
L 3481 0 
L 2906 0 
L 2906 525 
Q 2725 213 2448 61 
Q 2172 -91 1784 -91 
Q 1150 -91 751 415 
Q 353 922 353 1747 
Q 353 2572 751 3078 
Q 1150 3584 1784 3584 
Q 2172 3584 2448 3432 
Q 2725 3281 2906 2969 
z
M 947 1747 
Q 947 1113 1208 752 
Q 1469 391 1925 391 
Q 2381 391 2643 752 
Q 2906 1113 2906 1747 
Q 2906 2381 2643 2742 
Q 2381 3103 1925 3103 
Q 1469 3103 1208 2742 
Q 947 2381 947 1747 
z
" transform="scale(0.015625)"/>
       <path id="DejaVuSans-69" d="M 603 3500 
L 1178 3500 
L 1178 0 
L 603 0 
L 603 3500 
z
M 603 4863 
L 1178 4863 
L 1178 4134 
L 603 4134 
L 603 4863 
z
" transform="scale(0.015625)"/>
       <path id="DejaVuSans-6d" d="M 3328 2828 
Q 3544 3216 3844 3400 
Q 4144 3584 4550 3584 
Q 5097 3584 5394 3201 
Q 5691 2819 5691 2113 
L 5691 0 
L 5113 0 
L 5113 2094 
Q 5113 2597 4934 2840 
Q 4756 3084 4391 3084 
Q 3944 3084 3684 2787 
Q 3425 2491 3425 1978 
L 3425 0 
L 2847 0 
L 2847 2094 
Q 2847 2600 2669 2842 
Q 2491 3084 2119 3084 
Q 1678 3084 1418 2786 
Q 1159 2488 1159 1978 
L 1159 0 
L 581 0 
L 581 3500 
L 1159 3500 
L 1159 2956 
Q 1356 3278 1631 3431 
Q 1906 3584 2284 3584 
Q 2666 3584 2933 3390 
Q 3200 3197 3328 2828 
z
" transform="scale(0.015625)"/>
      </defs>
      <use xlink:href="#DejaVuSans-41"/>
      <use xlink:href="#DejaVuSans-76" x="62.533203"/>
      <use xlink:href="#DejaVuSans-65" x="121.712891"/>
      <use xlink:href="#DejaVuSans-72" x="183.236328"/>
      <use xlink:href="#DejaVuSans-61" x="224.349609"/>
      <use xlink:href="#DejaVuSans-67" x="285.628906"/>
      <use xlink:href="#DejaVuSans-65" x="349.105469"/>
      <use xlink:href="#DejaVuSans-20" x="410.628906"/>
      <use xlink:href="#DejaVuSans-64" x="442.416016"/>
      <use xlink:href="#DejaVuSans-69" x="505.892578"/>
      <use xlink:href="#DejaVuSans-73" x="533.675781"/>
      <use xlink:href="#DejaVuSans-63" x="585.775391"/>
      <use xlink:href="#DejaVuSans-72" x="640.755859"/>
      <use xlink:href="#DejaVuSans-69" x="681.869141"/>
      <use xlink:href="#DejaVuSans-6d" x="709.652344"/>
      <use xlink:href="#DejaVuSans-69" x="807.064453"/>
      <use xlink:href="#DejaVuSans-6e" x="834.847656"/>
      <use xlink:href="#DejaVuSans-61" x="898.226562"/>
      <use xlink:href="#DejaVuSans-74" x="959.505859"/>
      <use xlink:href="#DejaVuSans-6f" x="998.714844"/>
      <use xlink:href="#DejaVuSans-72" x="1059.896484"/>
      <use xlink:href="#DejaVuSans-20" x="1101.009766"/>
      <use xlink:href="#DejaVuSans-6c" x="1132.796875"/>
      <use xlink:href="#DejaVuSans-6f" x="1160.580078"/>
      <use xlink:href="#DejaVuSans-73" x="1221.761719"/>
      <use xlink:href="#DejaVuSans-73" x="1273.861328"/>
     </g>
    </g>
    <g id="line2d_28">
     <path d="M 245.124687 293.004312 
L 255.124687 293.004312 
L 265.124687 293.004312 
" style="fill: none; stroke: #ffff00; stroke-width: 3; stroke-linecap: square"/>
    </g>
    <g id="text_16">
     <!-- ROC AUC -->
     <g transform="translate(273.124687 296.504312) scale(0.1 -0.1)">
      <defs>
       <path id="DejaVuSans-52" d="M 2841 2188 
Q 3044 2119 3236 1894 
Q 3428 1669 3622 1275 
L 4263 0 
L 3584 0 
L 2988 1197 
Q 2756 1666 2539 1819 
Q 2322 1972 1947 1972 
L 1259 1972 
L 1259 0 
L 628 0 
L 628 4666 
L 2053 4666 
Q 2853 4666 3247 4331 
Q 3641 3997 3641 3322 
Q 3641 2881 3436 2590 
Q 3231 2300 2841 2188 
z
M 1259 4147 
L 1259 2491 
L 2053 2491 
Q 2509 2491 2742 2702 
Q 2975 2913 2975 3322 
Q 2975 3731 2742 3939 
Q 2509 4147 2053 4147 
L 1259 4147 
z
" transform="scale(0.015625)"/>
       <path id="DejaVuSans-4f" d="M 2522 4238 
Q 1834 4238 1429 3725 
Q 1025 3213 1025 2328 
Q 1025 1447 1429 934 
Q 1834 422 2522 422 
Q 3209 422 3611 934 
Q 4013 1447 4013 2328 
Q 4013 3213 3611 3725 
Q 3209 4238 2522 4238 
z
M 2522 4750 
Q 3503 4750 4090 4092 
Q 4678 3434 4678 2328 
Q 4678 1225 4090 567 
Q 3503 -91 2522 -91 
Q 1538 -91 948 565 
Q 359 1222 359 2328 
Q 359 3434 948 4092 
Q 1538 4750 2522 4750 
z
" transform="scale(0.015625)"/>
       <path id="DejaVuSans-43" d="M 4122 4306 
L 4122 3641 
Q 3803 3938 3442 4084 
Q 3081 4231 2675 4231 
Q 1875 4231 1450 3742 
Q 1025 3253 1025 2328 
Q 1025 1406 1450 917 
Q 1875 428 2675 428 
Q 3081 428 3442 575 
Q 3803 722 4122 1019 
L 4122 359 
Q 3791 134 3420 21 
Q 3050 -91 2638 -91 
Q 1578 -91 968 557 
Q 359 1206 359 2328 
Q 359 3453 968 4101 
Q 1578 4750 2638 4750 
Q 3056 4750 3426 4639 
Q 3797 4528 4122 4306 
z
" transform="scale(0.015625)"/>
       <path id="DejaVuSans-55" d="M 556 4666 
L 1191 4666 
L 1191 1831 
Q 1191 1081 1462 751 
Q 1734 422 2344 422 
Q 2950 422 3222 751 
Q 3494 1081 3494 1831 
L 3494 4666 
L 4128 4666 
L 4128 1753 
Q 4128 841 3676 375 
Q 3225 -91 2344 -91 
Q 1459 -91 1007 375 
Q 556 841 556 1753 
L 556 4666 
z
" transform="scale(0.015625)"/>
      </defs>
      <use xlink:href="#DejaVuSans-52"/>
      <use xlink:href="#DejaVuSans-4f" x="69.482422"/>
      <use xlink:href="#DejaVuSans-43" x="148.193359"/>
      <use xlink:href="#DejaVuSans-20" x="218.017578"/>
      <use xlink:href="#DejaVuSans-41" x="249.804688"/>
      <use xlink:href="#DejaVuSans-55" x="318.212891"/>
      <use xlink:href="#DejaVuSans-43" x="391.40625"/>
     </g>
    </g>
   </g>
  </g>
 </g>
 <defs>
  <clipPath id="pe42971396b">
   <rect x="57.6" y="41.472" width="357.12" height="266.112"/>
  </clipPath>
 </defs>
</svg>
