<?xml version="1.0" encoding="utf-8" standalone="no"?>
<!DOCTYPE svg PUBLIC "-//W3C//DTD SVG 1.1//EN"
  "http://www.w3.org/Graphics/SVG/1.1/DTD/svg11.dtd">
<svg xmlns:xlink="http://www.w3.org/1999/xlink" width="460.8pt" height="345.6pt" viewBox="0 0 460.8 345.6" xmlns="http://www.w3.org/2000/svg" version="1.1">
 <metadata>
  <rdf:RDF xmlns:dc="http://purl.org/dc/elements/1.1/" xmlns:cc="http://creativecommons.org/ns#" xmlns:rdf="http://www.w3.org/1999/02/22-rdf-syntax-ns#">
   <cc:Work>
    <dc:type rdf:resource="http://purl.org/dc/dcmitype/StillImage"/>
    <dc:date>2023-07-06T15:15:29.035853</dc:date>
    <dc:format>image/svg+xml</dc:format>
    <dc:creator>
     <cc:Agent>
      <dc:title>Matplotlib v3.7.1, https://matplotlib.org/</dc:title>
     </cc:Agent>
    </dc:creator>
   </cc:Work>
  </rdf:RDF>
 </metadata>
 <defs>
  <style type="text/css">*{stroke-linejoin: round; stroke-linecap: butt}</style>
 </defs>
 <g id="figure_1">
  <g id="patch_1">
   <path d="M 0 345.6 
L 460.8 345.6 
L 460.8 0 
L 0 0 
z
" style="fill: #ffffff"/>
  </g>
  <g id="axes_1">
   <g id="patch_2">
    <path d="M 57.6 307.584 
L 414.72 307.584 
L 414.72 41.472 
L 57.6 41.472 
z
" style="fill: #e5e5e5"/>
   </g>
   <g id="matplotlib.axis_1">
    <g id="xtick_1">
     <g id="line2d_1">
      <path d="M 73.2304 307.584 
L 73.2304 41.472 
" clip-path="url(#pd550ba1223)" style="fill: none; stroke: #ffffff; stroke-width: 0.8; stroke-linecap: square"/>
     </g>
     <g id="line2d_2">
      <defs>
       <path id="m61e09c0150" d="M 0 0 
L 0 3.5 
" style="stroke: #555555; stroke-width: 0.8"/>
      </defs>
      <g>
       <use xlink:href="#m61e09c0150" x="73.2304" y="307.584" style="fill: #555555; stroke: #555555; stroke-width: 0.8"/>
      </g>
     </g>
     <g id="text_1">
      <!-- 0 -->
      <g style="fill: #555555" transform="translate(70.04915 322.182437) scale(0.1 -0.1)">
       <defs>
        <path id="DejaVuSans-30" d="M 2034 4250 
Q 1547 4250 1301 3770 
Q 1056 3291 1056 2328 
Q 1056 1369 1301 889 
Q 1547 409 2034 409 
Q 2525 409 2770 889 
Q 3016 1369 3016 2328 
Q 3016 3291 2770 3770 
Q 2525 4250 2034 4250 
z
M 2034 4750 
Q 2819 4750 3233 4129 
Q 3647 3509 3647 2328 
Q 3647 1150 3233 529 
Q 2819 -91 2034 -91 
Q 1250 -91 836 529 
Q 422 1150 422 2328 
Q 422 3509 836 4129 
Q 1250 4750 2034 4750 
z
" transform="scale(0.015625)"/>
       </defs>
       <use xlink:href="#DejaVuSans-30"/>
      </g>
     </g>
    </g>
    <g id="xtick_2">
     <g id="line2d_3">
      <path d="M 133.463154 307.584 
L 133.463154 41.472 
" clip-path="url(#pd550ba1223)" style="fill: none; stroke: #ffffff; stroke-width: 0.8; stroke-linecap: square"/>
     </g>
     <g id="line2d_4">
      <g>
       <use xlink:href="#m61e09c0150" x="133.463154" y="307.584" style="fill: #555555; stroke: #555555; stroke-width: 0.8"/>
      </g>
     </g>
     <g id="text_2">
      <!-- 100 -->
      <g style="fill: #555555" transform="translate(123.919404 322.182437) scale(0.1 -0.1)">
       <defs>
        <path id="DejaVuSans-31" d="M 794 531 
L 1825 531 
L 1825 4091 
L 703 3866 
L 703 4441 
L 1819 4666 
L 2450 4666 
L 2450 531 
L 3481 531 
L 3481 0 
L 794 0 
L 794 531 
z
" transform="scale(0.015625)"/>
       </defs>
       <use xlink:href="#DejaVuSans-31"/>
       <use xlink:href="#DejaVuSans-30" x="63.623047"/>
       <use xlink:href="#DejaVuSans-30" x="127.246094"/>
      </g>
     </g>
    </g>
    <g id="xtick_3">
     <g id="line2d_5">
      <path d="M 193.695908 307.584 
L 193.695908 41.472 
" clip-path="url(#pd550ba1223)" style="fill: none; stroke: #ffffff; stroke-width: 0.8; stroke-linecap: square"/>
     </g>
     <g id="line2d_6">
      <g>
       <use xlink:href="#m61e09c0150" x="193.695908" y="307.584" style="fill: #555555; stroke: #555555; stroke-width: 0.8"/>
      </g>
     </g>
     <g id="text_3">
      <!-- 200 -->
      <g style="fill: #555555" transform="translate(184.152158 322.182437) scale(0.1 -0.1)">
       <defs>
        <path id="DejaVuSans-32" d="M 1228 531 
L 3431 531 
L 3431 0 
L 469 0 
L 469 531 
Q 828 903 1448 1529 
Q 2069 2156 2228 2338 
Q 2531 2678 2651 2914 
Q 2772 3150 2772 3378 
Q 2772 3750 2511 3984 
Q 2250 4219 1831 4219 
Q 1534 4219 1204 4116 
Q 875 4013 500 3803 
L 500 4441 
Q 881 4594 1212 4672 
Q 1544 4750 1819 4750 
Q 2544 4750 2975 4387 
Q 3406 4025 3406 3419 
Q 3406 3131 3298 2873 
Q 3191 2616 2906 2266 
Q 2828 2175 2409 1742 
Q 1991 1309 1228 531 
z
" transform="scale(0.015625)"/>
       </defs>
       <use xlink:href="#DejaVuSans-32"/>
       <use xlink:href="#DejaVuSans-30" x="63.623047"/>
       <use xlink:href="#DejaVuSans-30" x="127.246094"/>
      </g>
     </g>
    </g>
    <g id="xtick_4">
     <g id="line2d_7">
      <path d="M 253.928663 307.584 
L 253.928663 41.472 
" clip-path="url(#pd550ba1223)" style="fill: none; stroke: #ffffff; stroke-width: 0.8; stroke-linecap: square"/>
     </g>
     <g id="line2d_8">
      <g>
       <use xlink:href="#m61e09c0150" x="253.928663" y="307.584" style="fill: #555555; stroke: #555555; stroke-width: 0.8"/>
      </g>
     </g>
     <g id="text_4">
      <!-- 300 -->
      <g style="fill: #555555" transform="translate(244.384913 322.182437) scale(0.1 -0.1)">
       <defs>
        <path id="DejaVuSans-33" d="M 2597 2516 
Q 3050 2419 3304 2112 
Q 3559 1806 3559 1356 
Q 3559 666 3084 287 
Q 2609 -91 1734 -91 
Q 1441 -91 1130 -33 
Q 819 25 488 141 
L 488 750 
Q 750 597 1062 519 
Q 1375 441 1716 441 
Q 2309 441 2620 675 
Q 2931 909 2931 1356 
Q 2931 1769 2642 2001 
Q 2353 2234 1838 2234 
L 1294 2234 
L 1294 2753 
L 1863 2753 
Q 2328 2753 2575 2939 
Q 2822 3125 2822 3475 
Q 2822 3834 2567 4026 
Q 2313 4219 1838 4219 
Q 1578 4219 1281 4162 
Q 984 4106 628 3988 
L 628 4550 
Q 988 4650 1302 4700 
Q 1616 4750 1894 4750 
Q 2613 4750 3031 4423 
Q 3450 4097 3450 3541 
Q 3450 3153 3228 2886 
Q 3006 2619 2597 2516 
z
" transform="scale(0.015625)"/>
       </defs>
       <use xlink:href="#DejaVuSans-33"/>
       <use xlink:href="#DejaVuSans-30" x="63.623047"/>
       <use xlink:href="#DejaVuSans-30" x="127.246094"/>
      </g>
     </g>
    </g>
    <g id="xtick_5">
     <g id="line2d_9">
      <path d="M 314.161417 307.584 
L 314.161417 41.472 
" clip-path="url(#pd550ba1223)" style="fill: none; stroke: #ffffff; stroke-width: 0.8; stroke-linecap: square"/>
     </g>
     <g id="line2d_10">
      <g>
       <use xlink:href="#m61e09c0150" x="314.161417" y="307.584" style="fill: #555555; stroke: #555555; stroke-width: 0.8"/>
      </g>
     </g>
     <g id="text_5">
      <!-- 400 -->
      <g style="fill: #555555" transform="translate(304.617667 322.182437) scale(0.1 -0.1)">
       <defs>
        <path id="DejaVuSans-34" d="M 2419 4116 
L 825 1625 
L 2419 1625 
L 2419 4116 
z
M 2253 4666 
L 3047 4666 
L 3047 1625 
L 3713 1625 
L 3713 1100 
L 3047 1100 
L 3047 0 
L 2419 0 
L 2419 1100 
L 313 1100 
L 313 1709 
L 2253 4666 
z
" transform="scale(0.015625)"/>
       </defs>
       <use xlink:href="#DejaVuSans-34"/>
       <use xlink:href="#DejaVuSans-30" x="63.623047"/>
       <use xlink:href="#DejaVuSans-30" x="127.246094"/>
      </g>
     </g>
    </g>
    <g id="xtick_6">
     <g id="line2d_11">
      <path d="M 374.394171 307.584 
L 374.394171 41.472 
" clip-path="url(#pd550ba1223)" style="fill: none; stroke: #ffffff; stroke-width: 0.8; stroke-linecap: square"/>
     </g>
     <g id="line2d_12">
      <g>
       <use xlink:href="#m61e09c0150" x="374.394171" y="307.584" style="fill: #555555; stroke: #555555; stroke-width: 0.8"/>
      </g>
     </g>
     <g id="text_6">
      <!-- 500 -->
      <g style="fill: #555555" transform="translate(364.850421 322.182437) scale(0.1 -0.1)">
       <defs>
        <path id="DejaVuSans-35" d="M 691 4666 
L 3169 4666 
L 3169 4134 
L 1269 4134 
L 1269 2991 
Q 1406 3038 1543 3061 
Q 1681 3084 1819 3084 
Q 2600 3084 3056 2656 
Q 3513 2228 3513 1497 
Q 3513 744 3044 326 
Q 2575 -91 1722 -91 
Q 1428 -91 1123 -41 
Q 819 9 494 109 
L 494 744 
Q 775 591 1075 516 
Q 1375 441 1709 441 
Q 2250 441 2565 725 
Q 2881 1009 2881 1497 
Q 2881 1984 2565 2268 
Q 2250 2553 1709 2553 
Q 1456 2553 1204 2497 
Q 953 2441 691 2322 
L 691 4666 
z
" transform="scale(0.015625)"/>
       </defs>
       <use xlink:href="#DejaVuSans-35"/>
       <use xlink:href="#DejaVuSans-30" x="63.623047"/>
       <use xlink:href="#DejaVuSans-30" x="127.246094"/>
      </g>
     </g>
    </g>
    <g id="text_7">
     <!-- Epoch -->
     <g style="fill: #555555" transform="translate(217.786875 337.38025) scale(0.12 -0.12)">
      <defs>
       <path id="DejaVuSans-45" d="M 628 4666 
L 3578 4666 
L 3578 4134 
L 1259 4134 
L 1259 2753 
L 3481 2753 
L 3481 2222 
L 1259 2222 
L 1259 531 
L 3634 531 
L 3634 0 
L 628 0 
L 628 4666 
z
" transform="scale(0.015625)"/>
       <path id="DejaVuSans-70" d="M 1159 525 
L 1159 -1331 
L 581 -1331 
L 581 3500 
L 1159 3500 
L 1159 2969 
Q 1341 3281 1617 3432 
Q 1894 3584 2278 3584 
Q 2916 3584 3314 3078 
Q 3713 2572 3713 1747 
Q 3713 922 3314 415 
Q 2916 -91 2278 -91 
Q 1894 -91 1617 61 
Q 1341 213 1159 525 
z
M 3116 1747 
Q 3116 2381 2855 2742 
Q 2594 3103 2138 3103 
Q 1681 3103 1420 2742 
Q 1159 2381 1159 1747 
Q 1159 1113 1420 752 
Q 1681 391 2138 391 
Q 2594 391 2855 752 
Q 3116 1113 3116 1747 
z
" transform="scale(0.015625)"/>
       <path id="DejaVuSans-6f" d="M 1959 3097 
Q 1497 3097 1228 2736 
Q 959 2375 959 1747 
Q 959 1119 1226 758 
Q 1494 397 1959 397 
Q 2419 397 2687 759 
Q 2956 1122 2956 1747 
Q 2956 2369 2687 2733 
Q 2419 3097 1959 3097 
z
M 1959 3584 
Q 2709 3584 3137 3096 
Q 3566 2609 3566 1747 
Q 3566 888 3137 398 
Q 2709 -91 1959 -91 
Q 1206 -91 779 398 
Q 353 888 353 1747 
Q 353 2609 779 3096 
Q 1206 3584 1959 3584 
z
" transform="scale(0.015625)"/>
       <path id="DejaVuSans-63" d="M 3122 3366 
L 3122 2828 
Q 2878 2963 2633 3030 
Q 2388 3097 2138 3097 
Q 1578 3097 1268 2742 
Q 959 2388 959 1747 
Q 959 1106 1268 751 
Q 1578 397 2138 397 
Q 2388 397 2633 464 
Q 2878 531 3122 666 
L 3122 134 
Q 2881 22 2623 -34 
Q 2366 -91 2075 -91 
Q 1284 -91 818 406 
Q 353 903 353 1747 
Q 353 2603 823 3093 
Q 1294 3584 2113 3584 
Q 2378 3584 2631 3529 
Q 2884 3475 3122 3366 
z
" transform="scale(0.015625)"/>
       <path id="DejaVuSans-68" d="M 3513 2113 
L 3513 0 
L 2938 0 
L 2938 2094 
Q 2938 2591 2744 2837 
Q 2550 3084 2163 3084 
Q 1697 3084 1428 2787 
Q 1159 2491 1159 1978 
L 1159 0 
L 581 0 
L 581 4863 
L 1159 4863 
L 1159 2956 
Q 1366 3272 1645 3428 
Q 1925 3584 2291 3584 
Q 2894 3584 3203 3211 
Q 3513 2838 3513 2113 
z
" transform="scale(0.015625)"/>
      </defs>
      <use xlink:href="#DejaVuSans-45"/>
      <use xlink:href="#DejaVuSans-70" x="63.183594"/>
      <use xlink:href="#DejaVuSans-6f" x="126.660156"/>
      <use xlink:href="#DejaVuSans-63" x="187.841797"/>
      <use xlink:href="#DejaVuSans-68" x="242.822266"/>
     </g>
    </g>
   </g>
   <g id="matplotlib.axis_2">
    <g id="ytick_1">
     <g id="line2d_13">
      <path d="M 57.6 259.218958 
L 414.72 259.218958 
" clip-path="url(#pd550ba1223)" style="fill: none; stroke: #ffffff; stroke-width: 0.8; stroke-linecap: square"/>
     </g>
     <g id="line2d_14">
      <defs>
       <path id="m5427e0336e" d="M 0 0 
L -3.5 0 
" style="stroke: #555555; stroke-width: 0.8"/>
      </defs>
      <g>
       <use xlink:href="#m5427e0336e" x="57.6" y="259.218958" style="fill: #555555; stroke: #555555; stroke-width: 0.8"/>
      </g>
     </g>
     <g id="text_8">
      <!-- 0.5 -->
      <g style="fill: #555555" transform="translate(34.696875 263.018177) scale(0.1 -0.1)">
       <defs>
        <path id="DejaVuSans-2e" d="M 684 794 
L 1344 794 
L 1344 0 
L 684 0 
L 684 794 
z
" transform="scale(0.015625)"/>
       </defs>
       <use xlink:href="#DejaVuSans-30"/>
       <use xlink:href="#DejaVuSans-2e" x="63.623047"/>
       <use xlink:href="#DejaVuSans-35" x="95.410156"/>
      </g>
     </g>
    </g>
    <g id="ytick_2">
     <g id="line2d_15">
      <path d="M 57.6 200.328943 
L 414.72 200.328943 
" clip-path="url(#pd550ba1223)" style="fill: none; stroke: #ffffff; stroke-width: 0.8; stroke-linecap: square"/>
     </g>
     <g id="line2d_16">
      <g>
       <use xlink:href="#m5427e0336e" x="57.6" y="200.328943" style="fill: #555555; stroke: #555555; stroke-width: 0.8"/>
      </g>
     </g>
     <g id="text_9">
      <!-- 1.0 -->
      <g style="fill: #555555" transform="translate(34.696875 204.128162) scale(0.1 -0.1)">
       <use xlink:href="#DejaVuSans-31"/>
       <use xlink:href="#DejaVuSans-2e" x="63.623047"/>
       <use xlink:href="#DejaVuSans-30" x="95.410156"/>
      </g>
     </g>
    </g>
    <g id="ytick_3">
     <g id="line2d_17">
      <path d="M 57.6 141.438929 
L 414.72 141.438929 
" clip-path="url(#pd550ba1223)" style="fill: none; stroke: #ffffff; stroke-width: 0.8; stroke-linecap: square"/>
     </g>
     <g id="line2d_18">
      <g>
       <use xlink:href="#m5427e0336e" x="57.6" y="141.438929" style="fill: #555555; stroke: #555555; stroke-width: 0.8"/>
      </g>
     </g>
     <g id="text_10">
      <!-- 1.5 -->
      <g style="fill: #555555" transform="translate(34.696875 145.238147) scale(0.1 -0.1)">
       <use xlink:href="#DejaVuSans-31"/>
       <use xlink:href="#DejaVuSans-2e" x="63.623047"/>
       <use xlink:href="#DejaVuSans-35" x="95.410156"/>
      </g>
     </g>
    </g>
    <g id="ytick_4">
     <g id="line2d_19">
      <path d="M 57.6 82.548914 
L 414.72 82.548914 
" clip-path="url(#pd550ba1223)" style="fill: none; stroke: #ffffff; stroke-width: 0.8; stroke-linecap: square"/>
     </g>
     <g id="line2d_20">
      <g>
       <use xlink:href="#m5427e0336e" x="57.6" y="82.548914" style="fill: #555555; stroke: #555555; stroke-width: 0.8"/>
      </g>
     </g>
     <g id="text_11">
      <!-- 2.0 -->
      <g style="fill: #555555" transform="translate(34.696875 86.348132) scale(0.1 -0.1)">
       <use xlink:href="#DejaVuSans-32"/>
       <use xlink:href="#DejaVuSans-2e" x="63.623047"/>
       <use xlink:href="#DejaVuSans-30" x="95.410156"/>
      </g>
     </g>
    </g>
    <g id="text_12">
     <!-- Loss -->
     <g style="fill: #555555" transform="translate(28.20125 187.688625) rotate(-90) scale(0.12 -0.12)">
      <defs>
       <path id="DejaVuSans-4c" d="M 628 4666 
L 1259 4666 
L 1259 531 
L 3531 531 
L 3531 0 
L 628 0 
L 628 4666 
z
" transform="scale(0.015625)"/>
       <path id="DejaVuSans-73" d="M 2834 3397 
L 2834 2853 
Q 2591 2978 2328 3040 
Q 2066 3103 1784 3103 
Q 1356 3103 1142 2972 
Q 928 2841 928 2578 
Q 928 2378 1081 2264 
Q 1234 2150 1697 2047 
L 1894 2003 
Q 2506 1872 2764 1633 
Q 3022 1394 3022 966 
Q 3022 478 2636 193 
Q 2250 -91 1575 -91 
Q 1294 -91 989 -36 
Q 684 19 347 128 
L 347 722 
Q 666 556 975 473 
Q 1284 391 1588 391 
Q 1994 391 2212 530 
Q 2431 669 2431 922 
Q 2431 1156 2273 1281 
Q 2116 1406 1581 1522 
L 1381 1569 
Q 847 1681 609 1914 
Q 372 2147 372 2553 
Q 372 3047 722 3315 
Q 1072 3584 1716 3584 
Q 2034 3584 2315 3537 
Q 2597 3491 2834 3397 
z
" transform="scale(0.015625)"/>
      </defs>
      <use xlink:href="#DejaVuSans-4c"/>
      <use xlink:href="#DejaVuSans-6f" x="53.962891"/>
      <use xlink:href="#DejaVuSans-73" x="115.144531"/>
      <use xlink:href="#DejaVuSans-73" x="167.244141"/>
     </g>
    </g>
   </g>
   <g id="line2d_21">
    <path d="M 73.832727 238.257956 
L 74.435055 238.207031 
L 75.037382 237.987375 
L 76.844365 237.751264 
L 77.446693 237.501147 
L 78.04902 237.432011 
L 79.253675 237.143578 
L 84.674623 236.663738 
L 85.879278 236.750873 
L 86.481606 236.543095 
L 87.686261 236.658374 
L 90.095571 236.365995 
L 90.697898 236.387463 
L 91.902554 236.606017 
L 92.504881 236.21956 
L 93.107209 236.091237 
L 94.311864 235.958997 
L 95.516519 235.94853 
L 96.118846 235.658945 
L 97.925829 235.084128 
L 98.528157 235.179786 
L 99.732812 234.744889 
L 101.539794 234.291782 
L 102.142122 234.361002 
L 103.346777 233.894697 
L 103.949104 233.835411 
L 104.551432 233.63254 
L 105.756087 233.455616 
L 106.960742 233.065354 
L 108.165397 232.882491 
L 108.767725 232.822868 
L 109.97238 232.254067 
L 111.177035 232.247524 
L 111.779362 231.87496 
L 112.38169 231.367257 
L 112.984018 231.34734 
L 113.586345 231.149777 
L 114.188673 231.097982 
L 114.791 230.803525 
L 115.393328 230.803384 
L 115.995655 230.438339 
L 119.609621 229.402608 
L 120.211948 229.165774 
L 120.814276 229.183542 
L 121.416603 228.813281 
L 123.223586 228.995821 
L 123.825913 229.205986 
L 124.428241 228.968575 
L 125.030568 228.610333 
L 126.235223 228.981345 
L 126.837551 229.055795 
L 128.042206 228.764104 
L 128.644534 228.357534 
L 129.246861 229.149115 
L 129.849189 229.124811 
L 130.451516 228.690033 
L 131.053844 228.518122 
L 131.656171 228.641762 
L 132.258499 228.594333 
L 132.860826 228.430685 
L 133.463154 228.523591 
L 134.065482 228.145481 
L 134.667809 228.102938 
L 135.270137 227.758329 
L 135.872464 227.760975 
L 136.474792 227.978336 
L 137.077119 227.378969 
L 137.679447 227.297843 
L 138.884102 227.636359 
L 140.088757 226.450732 
L 140.691084 226.750089 
L 141.293412 226.517979 
L 141.89574 226.590323 
L 142.498067 226.444168 
L 143.100395 226.455218 
L 143.702722 226.348763 
L 144.30505 225.979085 
L 144.907377 226.353818 
L 145.509705 225.825763 
L 146.112032 226.1254 
L 146.71436 225.967965 
L 147.316687 226.070727 
L 147.919015 225.883076 
L 148.521343 226.188477 
L 149.12367 226.322248 
L 149.725998 226.236447 
L 150.328325 225.900065 
L 150.930653 226.276708 
L 151.53298 226.430788 
L 152.135308 225.640639 
L 152.737635 226.228205 
L 153.339963 225.847617 
L 153.94229 225.958901 
L 154.544618 226.293654 
L 155.146946 225.611624 
L 155.749273 225.518971 
L 156.351601 225.28373 
L 157.556256 224.477533 
L 158.158583 224.628075 
L 158.760911 224.075568 
L 159.965566 223.899747 
L 161.170221 222.71141 
L 161.772548 223.540219 
L 162.374876 222.918009 
L 162.977204 222.967403 
L 163.579531 222.661384 
L 164.181859 223.13327 
L 164.784186 222.890237 
L 165.386514 223.150386 
L 165.988841 222.743696 
L 166.591169 222.749116 
L 167.795824 223.576247 
L 168.398151 222.933846 
L 169.000479 223.077586 
L 169.602807 222.416525 
L 170.205134 223.127127 
L 170.807462 223.185241 
L 171.409789 223.112575 
L 172.012117 223.735691 
L 172.614444 222.051473 
L 173.216772 222.674168 
L 173.819099 222.321043 
L 175.023754 221.433846 
L 175.626082 221.458101 
L 176.22841 219.999633 
L 177.433065 217.980353 
L 178.035392 217.91529 
L 178.63772 218.243984 
L 179.240047 218.015167 
L 179.842375 217.306811 
L 180.444702 217.337475 
L 181.04703 216.829961 
L 181.649357 216.543837 
L 182.251685 217.903243 
L 182.854012 218.957893 
L 183.45634 215.7661 
L 185.263323 210.474218 
L 185.86565 211.687336 
L 186.467978 210.511137 
L 187.070305 211.174149 
L 187.672633 210.690357 
L 188.27496 210.487247 
L 188.877288 210.487612 
L 189.479615 210.717462 
L 190.081943 210.497637 
L 190.684271 208.26259 
L 191.286598 205.517179 
L 191.888926 206.252198 
L 192.491253 204.710624 
L 193.093581 203.552706 
L 193.695908 204.253677 
L 194.298236 200.136912 
L 194.900563 200.260861 
L 195.502891 199.351797 
L 196.105218 200.04131 
L 196.707546 199.942901 
L 197.309874 197.48513 
L 197.912201 199.141583 
L 198.514529 193.235528 
L 199.116856 198.793969 
L 199.719184 196.021691 
L 200.321511 197.817622 
L 200.923839 195.91664 
L 201.526166 191.006251 
L 202.128494 192.880556 
L 202.730821 191.158563 
L 203.333149 191.316995 
L 203.935476 189.550367 
L 204.537804 192.26842 
L 205.140132 191.380514 
L 205.742459 189.866067 
L 206.344787 187.632663 
L 207.549442 187.214692 
L 208.151769 187.904809 
L 208.754097 187.946565 
L 209.356424 186.827259 
L 209.958752 181.788905 
L 210.561079 179.803807 
L 211.163407 182.711013 
L 211.765735 180.979345 
L 212.368062 181.189096 
L 212.97039 178.30486 
L 213.572717 179.702842 
L 214.175045 179.66416 
L 214.777372 179.88826 
L 215.982027 172.965169 
L 216.584355 172.554542 
L 217.186682 176.231236 
L 217.78901 172.418518 
L 218.391337 173.037099 
L 218.993665 174.720495 
L 219.595993 173.327105 
L 220.19832 170.579749 
L 220.800648 170.364902 
L 221.402975 163.507464 
L 222.60763 169.792261 
L 223.209958 166.166927 
L 223.812285 166.111031 
L 224.414613 163.213752 
L 225.01694 164.119615 
L 225.619268 165.346907 
L 226.221596 163.619128 
L 226.823923 166.116872 
L 227.426251 161.310271 
L 228.028578 160.69937 
L 228.630906 161.917437 
L 229.233233 160.569888 
L 229.835561 158.905039 
L 230.437888 152.75753 
L 231.040216 160.587158 
L 231.642543 160.704649 
L 232.244871 153.261204 
L 232.847199 156.716508 
L 233.449526 153.326689 
L 234.051854 154.864598 
L 234.654181 153.35272 
L 235.256509 152.459465 
L 235.858836 149.941615 
L 236.461164 153.981944 
L 237.063491 150.796637 
L 237.665819 154.816888 
L 238.268146 147.862263 
L 238.870474 148.061469 
L 239.472801 147.33201 
L 240.075129 147.615263 
L 240.677457 145.673227 
L 241.279784 146.620692 
L 241.882112 143.733479 
L 242.484439 147.482875 
L 243.086767 146.782592 
L 243.689094 142.418785 
L 244.291422 143.465194 
L 244.893749 140.942275 
L 245.496077 143.627277 
L 246.098404 141.279864 
L 246.700732 140.379182 
L 247.30306 141.053237 
L 248.507715 138.669922 
L 249.110042 139.331313 
L 249.71237 138.333808 
L 250.314697 137.781413 
L 250.917025 139.319898 
L 251.519352 134.819954 
L 252.12168 135.088829 
L 252.724007 134.259374 
L 253.928663 135.057912 
L 254.53099 134.1058 
L 255.133318 137.329605 
L 255.735645 128.416207 
L 256.337973 127.921982 
L 256.9403 131.322795 
L 257.542628 130.505864 
L 258.144955 130.333841 
L 258.747283 128.311535 
L 259.34961 129.156996 
L 259.951938 129.255167 
L 260.554265 130.778193 
L 261.156593 124.306448 
L 261.758921 123.745545 
L 262.361248 127.446782 
L 262.963576 129.465002 
L 263.565903 125.026457 
L 264.168231 122.340332 
L 264.770558 127.349482 
L 265.372886 128.404792 
L 265.975213 120.140049 
L 266.577541 122.250993 
L 267.179868 119.806981 
L 267.782196 119.770013 
L 268.384524 121.938676 
L 268.986851 124.87058 
L 269.589179 121.116901 
L 270.191506 124.737209 
L 270.793834 124.876435 
L 271.396161 118.40219 
L 271.998489 115.399859 
L 272.600816 116.808877 
L 273.203144 116.777567 
L 273.805471 117.198219 
L 274.407799 115.711867 
L 275.010126 113.357841 
L 275.612454 117.677224 
L 276.214782 120.174659 
L 276.817109 114.229614 
L 277.419437 113.602187 
L 278.021764 113.604307 
L 278.624092 115.392081 
L 279.226419 111.466069 
L 279.828747 109.591119 
L 280.431074 116.025081 
L 281.033402 112.037306 
L 281.635729 110.022681 
L 282.238057 115.367861 
L 282.840385 108.769695 
L 283.442712 107.902064 
L 284.04504 103.586542 
L 284.647367 111.720427 
L 285.249695 110.794935 
L 285.852022 109.17399 
L 286.45435 108.354967 
L 287.056677 107.856474 
L 287.659005 114.415173 
L 288.261332 104.352716 
L 288.86366 104.002771 
L 289.465988 113.320648 
L 290.068315 103.044313 
L 291.27297 111.580612 
L 291.875298 102.156856 
L 292.477625 99.953064 
L 293.079953 100.071397 
L 293.68228 105.50652 
L 294.284608 106.447078 
L 294.886935 106.961296 
L 295.489263 105.410526 
L 296.09159 101.303701 
L 296.693918 102.343454 
L 297.296246 98.251892 
L 299.103228 105.381827 
L 299.705556 97.281653 
L 300.307883 97.715798 
L 300.910211 93.727251 
L 301.512538 100.842654 
L 302.114866 97.827111 
L 302.717193 99.775452 
L 303.921849 100.591049 
L 304.524176 102.720104 
L 305.728831 89.603774 
L 306.331159 94.602871 
L 307.535814 98.315832 
L 308.138141 99.219491 
L 308.740469 97.428418 
L 309.342796 94.078501 
L 309.945124 95.520023 
L 310.547452 87.401077 
L 311.149779 88.551427 
L 311.752107 93.574252 
L 312.354434 94.146317 
L 312.956762 95.316366 
L 313.559089 101.188625 
L 314.161417 85.331932 
L 314.763744 91.8294 
L 315.366072 89.197373 
L 315.968399 87.278602 
L 316.570727 92.319019 
L 317.173054 94.533736 
L 317.775382 91.686257 
L 318.37771 93.509146 
L 318.980037 86.148526 
L 319.582365 84.201 
L 320.78702 93.908738 
L 321.389347 94.426523 
L 321.991675 88.94932 
L 322.594002 92.943469 
L 323.19633 84.218775 
L 323.798657 80.688045 
L 324.400985 88.386437 
L 325.003313 89.048445 
L 325.60564 83.812023 
L 326.207968 85.117127 
L 326.810295 81.815748 
L 327.412623 84.643823 
L 328.01495 89.639746 
L 328.617278 88.737014 
L 329.219605 80.29216 
L 329.821933 81.190385 
L 330.42426 77.066193 
L 331.026588 87.309786 
L 331.628916 81.721368 
L 332.231243 87.581904 
L 332.833571 81.023865 
L 333.435898 77.094442 
L 334.038226 85.303753 
L 334.640553 79.981753 
L 335.845208 76.728295 
L 336.447536 82.65117 
L 337.049863 83.21453 
L 337.652191 77.670298 
L 338.254518 84.934952 
L 338.856846 80.653871 
L 339.459174 80.593441 
L 340.061501 78.653665 
L 340.663829 79.799789 
L 341.266156 78.623141 
L 341.868484 82.795408 
L 342.470811 82.289277 
L 343.073139 78.633278 
L 343.675466 81.531934 
L 344.277794 72.510677 
L 344.880121 78.300322 
L 345.482449 76.085045 
L 346.084777 76.397979 
L 346.687104 75.956939 
L 347.289432 76.420331 
L 347.891759 74.25456 
L 348.494087 76.880634 
L 349.096414 70.557703 
L 349.698742 76.901695 
L 350.301069 74.433267 
L 350.903397 78.611824 
L 351.505724 78.316609 
L 352.108052 74.137013 
L 352.710379 72.953654 
L 353.312707 72.865452 
L 353.915035 70.397586 
L 354.517362 71.336219 
L 355.11969 74.652383 
L 355.722017 68.210557 
L 356.324345 77.446802 
L 356.926672 76.678002 
L 357.529 73.029669 
L 358.131327 73.738825 
L 358.733655 61.869879 
L 359.335982 74.062402 
L 359.93831 77.431638 
L 360.540638 74.343492 
L 361.745293 69.88977 
L 362.34762 73.549335 
L 362.949948 73.546218 
L 363.552275 69.584137 
L 364.154603 69.014037 
L 364.75693 61.377087 
L 365.359258 70.902256 
L 365.961585 67.906047 
L 366.563913 75.954047 
L 367.166241 72.315374 
L 367.768568 67.781368 
L 368.370896 66.386644 
L 368.973223 66.937901 
L 369.575551 64.93396 
L 370.177878 71.264613 
L 370.780206 71.774675 
L 371.382533 70.356222 
L 371.984861 69.757115 
L 372.587188 70.706869 
L 373.189516 61.116889 
L 373.791843 65.32465 
L 374.394171 66.217568 
L 374.996499 69.942365 
L 375.598826 68.429448 
L 376.201154 60.084324 
L 376.803481 59.685097 
L 377.405809 65.018343 
L 378.008136 68.072989 
L 378.610464 68.621325 
L 379.212791 62.859761 
L 379.815119 66.640495 
L 380.417446 60.133157 
L 381.019774 60.580571 
L 381.622102 65.690376 
L 382.224429 62.220919 
L 382.826757 67.125931 
L 383.429084 68.434756 
L 384.031412 58.446026 
L 384.633739 59.899973 
L 385.236067 53.568 
L 385.838394 61.27622 
L 386.440722 71.635001 
L 387.043049 66.577257 
L 387.645377 66.838803 
L 388.247705 56.770014 
L 389.45236 62.101014 
L 390.054687 60.02381 
L 390.657015 62.879109 
L 391.259342 59.999464 
L 391.86167 58.855951 
L 393.066325 63.102436 
L 393.668652 62.604898 
L 394.27098 55.910316 
L 394.873307 62.130386 
L 395.475635 58.45987 
L 396.077963 59.343268 
L 396.68029 59.953944 
L 397.282618 63.89533 
L 397.884945 62.920472 
L 398.487273 63.25719 
L 398.487273 63.25719 
" clip-path="url(#pd550ba1223)" style="fill: none; stroke: #6495ed; stroke-width: 2; stroke-linecap: square"/>
   </g>
   <g id="line2d_22">
    <path d="M 73.832727 235.740572 
L 74.435055 235.730321 
L 75.037382 235.855894 
L 76.242037 235.894728 
L 82.265313 236.665016 
L 87.686261 237.190862 
L 88.288588 237.175833 
L 88.890916 237.390105 
L 90.095571 237.485398 
L 91.300226 237.502308 
L 91.902554 237.337651 
L 92.504881 237.73446 
L 94.914191 237.825454 
L 95.516519 237.624313 
L 96.118846 237.968545 
L 96.721174 237.926805 
L 97.925829 238.048448 
L 99.130484 237.896061 
L 99.732812 238.196742 
L 100.937467 238.16922 
L 102.142122 238.218752 
L 102.744449 238.117987 
L 103.346777 238.459109 
L 103.949104 238.377179 
L 105.756087 238.525403 
L 106.358415 238.409116 
L 106.960742 238.704934 
L 107.56307 238.634631 
L 111.779362 238.998575 
L 112.38169 239.192634 
L 115.393328 239.401971 
L 116.597983 239.626267 
L 117.20031 239.60322 
L 118.404965 239.895739 
L 119.007293 239.88623 
L 120.211948 240.154923 
L 120.814276 240.187905 
L 122.018931 240.403686 
L 123.825913 240.288568 
L 125.030568 240.591075 
L 127.439879 240.595772 
L 128.644534 240.890722 
L 129.246861 240.663133 
L 129.849189 240.639908 
L 130.451516 240.907245 
L 131.656171 240.993148 
L 132.258499 240.907385 
L 132.860826 241.110485 
L 133.463154 241.011502 
L 134.065482 241.242324 
L 134.667809 241.254076 
L 135.270137 241.473467 
L 136.474792 241.464024 
L 137.679447 241.848253 
L 138.884102 241.753703 
L 140.088757 242.470771 
L 140.691084 242.357375 
L 141.293412 242.551261 
L 143.100395 242.817737 
L 144.30505 243.158254 
L 144.907377 243.119198 
L 145.509705 243.452694 
L 146.112032 243.137995 
L 146.71436 243.540811 
L 149.12367 243.656283 
L 149.725998 243.369005 
L 150.328325 243.923416 
L 150.930653 243.727659 
L 151.53298 243.711496 
L 152.135308 244.083406 
L 152.737635 243.970872 
L 153.339963 243.712344 
L 153.94229 244.122108 
L 154.544618 243.948351 
L 155.749273 244.339863 
L 156.351601 244.525093 
L 156.953928 244.35471 
L 157.556256 244.912769 
L 158.158583 244.82633 
L 159.965566 245.356289 
L 160.567893 245.325883 
L 161.170221 245.936153 
L 161.772548 245.655468 
L 163.579531 246.255166 
L 164.181859 245.972847 
L 164.784186 246.332917 
L 165.386514 246.260952 
L 165.988841 246.383184 
L 166.591169 246.635329 
L 167.795824 246.390134 
L 168.398151 246.839509 
L 171.409789 247.294152 
L 172.012117 247.161325 
L 172.614444 248.003187 
L 173.216772 247.695994 
L 173.819099 248.127321 
L 174.421427 248.33302 
L 175.626082 248.455546 
L 176.22841 249.182329 
L 176.830737 249.421202 
L 177.433065 249.970527 
L 178.035392 250.142046 
L 178.63772 249.737429 
L 179.842375 250.671333 
L 180.444702 250.62823 
L 181.649357 251.323491 
L 182.251685 250.282468 
L 182.854012 250.498852 
L 183.45634 251.326378 
L 184.058668 251.519707 
L 184.660995 251.924097 
L 185.263323 252.547657 
L 185.86565 251.502761 
L 186.467978 253.081859 
L 187.070305 253.301853 
L 188.27496 254.409605 
L 188.877288 254.847007 
L 189.479615 254.185371 
L 190.081943 255.338548 
L 190.684271 255.832699 
L 191.286598 256.593611 
L 191.888926 256.058947 
L 192.491253 256.535861 
L 193.093581 256.053466 
L 193.695908 256.588992 
L 194.298236 258.069053 
L 194.900563 258.155361 
L 195.502891 258.468563 
L 196.105218 258.494731 
L 196.707546 258.09625 
L 197.309874 260.366558 
L 197.912201 259.676482 
L 198.514529 261.664952 
L 199.116856 259.869942 
L 199.719184 260.940599 
L 200.321511 259.3718 
L 200.923839 261.109322 
L 201.526166 262.207806 
L 202.128494 261.849916 
L 202.730821 261.931745 
L 203.333149 262.153658 
L 203.935476 262.117453 
L 204.537804 262.710618 
L 205.140132 262.999332 
L 206.344787 263.815408 
L 206.947114 264.101138 
L 207.549442 263.34224 
L 208.151769 264.864838 
L 208.754097 264.512344 
L 209.356424 264.846205 
L 210.561079 266.325986 
L 211.163407 265.051058 
L 211.765735 266.809244 
L 212.368062 266.898199 
L 212.97039 267.809558 
L 213.572717 267.083079 
L 214.175045 267.088558 
L 214.777372 266.282398 
L 215.3797 268.027731 
L 215.982027 269.281348 
L 216.584355 269.217769 
L 217.186682 268.103898 
L 217.78901 269.632529 
L 218.391337 268.999698 
L 218.993665 269.665143 
L 220.19832 269.757274 
L 220.800648 269.447197 
L 221.402975 271.479216 
L 222.005303 270.280455 
L 222.60763 270.62547 
L 223.209958 271.472212 
L 223.812285 271.49301 
L 224.414613 272.323197 
L 225.01694 272.234015 
L 225.619268 270.572105 
L 226.221596 272.373708 
L 226.823923 271.868209 
L 227.426251 272.803567 
L 228.028578 272.66436 
L 229.233233 272.130352 
L 229.835561 274.470545 
L 230.437888 275.460045 
L 231.040216 273.955411 
L 231.642543 273.383069 
L 232.244871 274.951984 
L 232.847199 273.202381 
L 233.449526 275.240585 
L 234.051854 275.223918 
L 235.256509 274.86258 
L 235.858836 276.187538 
L 236.461164 274.863526 
L 237.063491 276.620026 
L 237.665819 275.804758 
L 238.268146 277.016812 
L 239.472801 276.552418 
L 240.075129 275.7491 
L 240.677457 277.555915 
L 241.279784 277.397527 
L 241.882112 278.091887 
L 242.484439 276.924596 
L 243.086767 277.149281 
L 243.689094 277.786444 
L 244.893749 279.360431 
L 245.496077 278.099562 
L 246.098404 278.349944 
L 246.700732 278.208364 
L 247.30306 277.424191 
L 247.905387 279.230841 
L 248.507715 280.049194 
L 249.110042 279.822299 
L 249.71237 279.406095 
L 250.314697 279.857429 
L 250.917025 279.04013 
L 251.519352 280.955514 
L 252.12168 280.712567 
L 252.724007 280.714825 
L 253.326335 280.144482 
L 253.928663 280.295674 
L 254.53099 279.384511 
L 255.133318 280.157686 
L 255.735645 281.956734 
L 256.337973 282.088957 
L 256.9403 281.588 
L 257.542628 281.67017 
L 258.144955 281.103207 
L 258.747283 282.777245 
L 259.34961 282.389324 
L 259.951938 282.574815 
L 260.554265 281.229446 
L 261.156593 282.754942 
L 261.758921 281.810444 
L 262.361248 282.482822 
L 262.963576 282.226596 
L 263.565903 283.348382 
L 264.168231 283.066955 
L 264.770558 282.288778 
L 265.372886 280.980416 
L 265.975213 284.117023 
L 266.577541 283.428642 
L 267.179868 284.172377 
L 267.782196 283.698635 
L 268.384524 283.519508 
L 268.986851 282.556972 
L 269.589179 284.842721 
L 270.191506 283.805963 
L 270.793834 283.666096 
L 271.396161 284.052453 
L 271.998489 284.970216 
L 272.600816 283.580545 
L 273.203144 285.329577 
L 273.805471 284.920095 
L 274.407799 284.77026 
L 275.010126 285.615285 
L 275.612454 284.938257 
L 276.214782 283.487823 
L 276.817109 285.949479 
L 277.419437 285.9164 
L 278.021764 285.57434 
L 278.624092 284.589476 
L 279.226419 285.761108 
L 279.828747 285.652561 
L 280.431074 285.90668 
L 281.033402 286.803955 
L 281.635729 286.866748 
L 282.238057 284.843544 
L 282.840385 286.216013 
L 283.442712 285.914599 
L 284.04504 287.339372 
L 284.647367 286.104248 
L 285.249695 286.415298 
L 285.852022 286.15622 
L 286.45435 286.425001 
L 287.056677 285.671205 
L 287.659005 285.934915 
L 288.261332 287.691029 
L 288.86366 287.623059 
L 289.465988 286.098105 
L 290.068315 287.749667 
L 290.670643 286.648227 
L 291.27297 287.035716 
L 291.875298 287.988077 
L 292.477625 288.221446 
L 293.68228 288.199597 
L 294.284608 286.72616 
L 294.886935 287.785926 
L 295.489263 287.576861 
L 296.09159 288.501437 
L 296.693918 287.7493 
L 297.296246 288.890402 
L 297.898573 287.754986 
L 298.500901 288.404904 
L 299.103228 287.995466 
L 299.705556 288.702323 
L 300.307883 288.449814 
L 300.910211 289.055211 
L 301.512538 287.280189 
L 302.114866 289.150553 
L 302.717193 289.00059 
L 303.319521 289.02986 
L 303.921849 288.474585 
L 304.524176 288.110616 
L 305.126504 287.891432 
L 305.728831 289.801388 
L 306.331159 288.987754 
L 306.933486 289.316658 
L 308.138141 288.88213 
L 308.740469 288.082362 
L 309.342796 289.461566 
L 309.945124 289.291162 
L 310.547452 290.230578 
L 311.149779 290.111502 
L 311.752107 290.137217 
L 312.354434 289.500628 
L 312.956762 290.031249 
L 313.559089 288.838209 
L 314.161417 290.982275 
L 314.763744 289.298212 
L 315.366072 290.027863 
L 315.968399 289.892558 
L 316.570727 290.517508 
L 317.173054 290.386794 
L 317.775382 289.970667 
L 318.37771 289.054209 
L 318.980037 289.989199 
L 319.582365 289.403042 
L 320.184692 290.883232 
L 320.78702 290.378263 
L 321.389347 290.32558 
L 321.991675 290.999128 
L 322.594002 290.463619 
L 323.19633 290.2986 
L 323.798657 291.878767 
L 324.400985 290.849734 
L 326.207968 291.249214 
L 326.810295 291.061119 
L 327.412623 291.887115 
L 328.01495 291.339138 
L 328.617278 290.98791 
L 329.219605 291.38838 
L 329.821933 291.467793 
L 330.42426 290.645127 
L 331.628916 291.832777 
L 332.231243 291.485436 
L 333.435898 291.957285 
L 334.038226 290.058311 
L 334.640553 291.877183 
L 335.845208 292.12098 
L 337.652191 291.631248 
L 338.254518 291.766537 
L 338.856846 292.237051 
L 339.459174 291.701469 
L 340.663829 291.957029 
L 341.266156 291.526486 
L 341.868484 291.973191 
L 342.470811 292.102345 
L 343.073139 292.025857 
L 343.675466 291.699126 
L 344.277794 292.996422 
L 344.880121 291.005293 
L 345.482449 292.908382 
L 346.084777 292.759883 
L 346.687104 292.819542 
L 347.289432 291.92915 
L 347.891759 292.523887 
L 348.494087 291.31112 
L 349.096414 292.956424 
L 349.698742 292.521236 
L 350.301069 292.734786 
L 350.903397 292.428119 
L 351.505724 292.404214 
L 352.108052 291.82622 
L 352.710379 293.084681 
L 353.312707 293.634103 
L 353.915035 293.197408 
L 354.517362 293.181684 
L 355.11969 292.971783 
L 355.722017 292.430371 
L 356.324345 293.216297 
L 356.926672 292.99136 
L 358.131327 292.25853 
L 358.733655 293.962648 
L 359.335982 292.296389 
L 359.93831 293.379409 
L 360.540638 293.536092 
L 361.142965 293.259485 
L 361.745293 293.459434 
L 362.34762 293.297775 
L 362.949948 292.111053 
L 363.552275 293.375587 
L 364.154603 293.624523 
L 364.75693 294.228488 
L 365.359258 293.106078 
L 365.961585 294.313581 
L 366.563913 292.42623 
L 367.166241 293.750117 
L 367.768568 293.983697 
L 368.973223 293.720509 
L 369.575551 293.90464 
L 370.177878 292.071138 
L 370.780206 293.357452 
L 371.984861 293.823567 
L 372.587188 292.728049 
L 373.189516 294.704186 
L 373.791843 293.282962 
L 374.394171 294.09284 
L 374.996499 293.614658 
L 375.598826 293.539994 
L 376.803481 294.767155 
L 377.405809 293.503043 
L 378.008136 294.578821 
L 378.610464 294.574304 
L 379.815119 293.655234 
L 380.417446 294.397029 
L 381.019774 293.129273 
L 381.622102 294.338798 
L 382.224429 295.245034 
L 382.826757 293.890905 
L 383.429084 293.653105 
L 384.031412 294.848436 
L 384.633739 293.313361 
L 385.236067 295.310878 
L 386.440722 293.712777 
L 387.043049 294.631349 
L 387.645377 294.316338 
L 388.247705 294.265869 
L 388.850032 295.110421 
L 389.45236 294.823127 
L 390.054687 294.993743 
L 390.657015 294.397972 
L 391.259342 294.697521 
L 391.86167 293.648389 
L 392.463997 295.004913 
L 393.668652 294.533571 
L 394.27098 295.057788 
L 394.873307 294.505478 
L 395.475635 293.328664 
L 396.077963 295.022293 
L 396.68029 295.488 
L 397.282618 294.870817 
L 397.884945 294.835289 
L 398.487273 294.073988 
L 398.487273 294.073988 
" clip-path="url(#pd550ba1223)" style="fill: none; stroke: #dc143c; stroke-width: 2; stroke-linecap: square"/>
   </g>
   <g id="line2d_23">
    <path d="M 73.832727 248.955572 
L 76.844365 248.955572 
L 77.446693 238.14116 
L 80.45833 238.14116 
L 81.060658 231.903363 
L 84.072295 231.903363 
L 84.674623 228.781999 
L 87.686261 228.781999 
L 88.288588 226.86292 
L 91.300226 226.86292 
L 91.902554 226.551295 
L 94.914191 226.551295 
L 95.516519 227.613887 
L 98.528157 227.613887 
L 99.130484 229.376712 
L 102.142122 229.376712 
L 102.744449 232.033545 
L 105.756087 232.033545 
L 106.358415 236.150385 
L 109.370052 236.150385 
L 109.97238 243.566334 
L 112.984018 243.566334 
L 113.586345 252.958261 
L 116.597983 252.958261 
L 117.20031 260.961525 
L 120.211948 260.961525 
L 120.814276 266.416823 
L 123.825913 266.416823 
L 124.428241 268.844296 
L 127.439879 268.844296 
L 128.042206 267.876301 
L 131.053844 267.876301 
L 131.656171 261.530519 
L 134.667809 261.530519 
L 135.270137 250.204893 
L 138.281774 250.204893 
L 138.884102 240.556831 
L 141.89574 240.556831 
L 142.498067 235.577691 
L 145.509705 235.577691 
L 146.112032 233.494785 
L 152.737635 233.439647 
L 153.339963 236.221025 
L 156.351601 236.221025 
L 156.953928 244.07561 
L 159.965566 244.07561 
L 160.567893 254.954321 
L 163.579531 254.954321 
L 164.181859 263.013075 
L 167.193496 263.013075 
L 167.795824 263.89986 
L 170.807462 263.89986 
L 171.409789 257.271519 
L 174.421427 257.271519 
L 175.023754 245.885822 
L 178.035392 245.885822 
L 178.63772 237.218086 
L 181.649357 237.218086 
L 182.251685 232.643936 
L 185.263323 232.643936 
L 185.86565 230.369721 
L 188.877288 230.369721 
L 189.479615 229.645707 
L 196.105218 229.617169 
L 196.707546 229.975477 
L 199.719184 229.975477 
L 200.321511 230.418341 
L 203.333149 230.418341 
L 203.935476 231.058504 
L 206.947114 231.058504 
L 207.549442 231.796611 
L 210.561079 231.796611 
L 211.163407 232.292323 
L 214.175045 232.292323 
L 214.777372 232.677407 
L 221.402975 232.678816 
L 222.005303 232.809526 
L 225.01694 232.809526 
L 225.619268 233.410229 
L 232.244871 233.497251 
L 232.847199 234.07752 
L 235.858836 234.07752 
L 236.461164 234.451682 
L 239.472801 234.451682 
L 240.075129 234.582744 
L 243.086767 234.582744 
L 243.689094 234.879749 
L 253.928663 234.966419 
L 254.53099 235.460017 
L 261.156593 235.37229 
L 261.758921 236.142458 
L 268.384524 236.226309 
L 268.986851 236.343631 
L 271.998489 236.343631 
L 272.600816 236.558193 
L 275.612454 236.558193 
L 276.214782 236.389433 
L 279.226419 236.389433 
L 279.828747 236.559955 
L 282.840385 236.559955 
L 283.442712 236.994716 
L 286.45435 236.994716 
L 287.056677 237.758542 
L 290.068315 237.758542 
L 290.670643 238.127067 
L 293.68228 238.127067 
L 294.284608 237.719082 
L 297.296246 237.719082 
L 297.898573 237.082091 
L 304.524176 237.076454 
L 305.126504 237.82513 
L 315.366072 237.734584 
L 315.968399 238.061184 
L 318.980037 238.061184 
L 319.582365 238.783788 
L 322.594002 238.783788 
L 323.19633 238.295475 
L 333.435898 238.405751 
L 334.038226 238.904281 
L 337.049863 238.904281 
L 337.652191 238.522368 
L 344.277794 238.599526 
L 344.880121 239.423599 
L 355.11969 239.444738 
L 355.722017 238.962766 
L 358.733655 238.962766 
L 359.335982 239.203047 
L 362.34762 239.203047 
L 362.949948 239.614555 
L 365.961585 239.614555 
L 366.563913 239.344327 
L 369.575551 239.344327 
L 370.177878 239.826299 
L 376.803481 239.755835 
L 377.405809 239.297469 
L 380.417446 239.297469 
L 381.019774 239.524009 
L 384.031412 239.524009 
L 384.633739 240.360765 
L 387.645377 240.360765 
L 388.247705 240.717312 
L 391.259342 240.717312 
L 391.86167 240.852426 
L 394.873307 240.852426 
L 395.475635 240.285369 
L 398.487273 240.285369 
L 398.487273 240.285369 
" clip-path="url(#pd550ba1223)" style="fill: none; stroke: #ffff00; stroke-width: 3; stroke-linecap: square"/>
   </g>
   <g id="patch_3">
    <path d="M 57.6 307.584 
L 57.6 41.472 
" style="fill: none; stroke: #ffffff; stroke-linejoin: miter; stroke-linecap: square"/>
   </g>
   <g id="patch_4">
    <path d="M 414.72 307.584 
L 414.72 41.472 
" style="fill: none; stroke: #ffffff; stroke-linejoin: miter; stroke-linecap: square"/>
   </g>
   <g id="patch_5">
    <path d="M 57.6 307.584 
L 414.72 307.584 
" style="fill: none; stroke: #ffffff; stroke-linejoin: miter; stroke-linecap: square"/>
   </g>
   <g id="patch_6">
    <path d="M 57.6 41.472 
L 414.72 41.472 
" style="fill: none; stroke: #ffffff; stroke-linejoin: miter; stroke-linecap: square"/>
   </g>
   <g id="legend_1">
    <g id="patch_7">
     <path d="M 243.124687 302.584 
L 407.72 302.584 
Q 409.72 302.584 409.72 300.584 
L 409.72 257.549625 
Q 409.72 255.549625 407.72 255.549625 
L 243.124687 255.549625 
Q 241.124687 255.549625 241.124687 257.549625 
L 241.124687 300.584 
Q 241.124687 302.584 243.124687 302.584 
z
" style="fill: #e5e5e5; opacity: 0.8; stroke: #cccccc; stroke-width: 0.5; stroke-linejoin: miter"/>
    </g>
    <g id="line2d_24">
     <path d="M 245.124687 263.648062 
L 255.124687 263.648062 
L 265.124687 263.648062 
" style="fill: none; stroke: #6495ed; stroke-width: 2; stroke-linecap: square"/>
    </g>
    <g id="text_13">
     <!-- Generator loss -->
     <g transform="translate(273.124687 267.148062) scale(0.1 -0.1)">
      <defs>
       <path id="DejaVuSans-47" d="M 3809 666 
L 3809 1919 
L 2778 1919 
L 2778 2438 
L 4434 2438 
L 4434 434 
Q 4069 175 3628 42 
Q 3188 -91 2688 -91 
Q 1594 -91 976 548 
Q 359 1188 359 2328 
Q 359 3472 976 4111 
Q 1594 4750 2688 4750 
Q 3144 4750 3555 4637 
Q 3966 4525 4313 4306 
L 4313 3634 
Q 3963 3931 3569 4081 
Q 3175 4231 2741 4231 
Q 1884 4231 1454 3753 
Q 1025 3275 1025 2328 
Q 1025 1384 1454 906 
Q 1884 428 2741 428 
Q 3075 428 3337 486 
Q 3600 544 3809 666 
z
" transform="scale(0.015625)"/>
       <path id="DejaVuSans-65" d="M 3597 1894 
L 3597 1613 
L 953 1613 
Q 991 1019 1311 708 
Q 1631 397 2203 397 
Q 2534 397 2845 478 
Q 3156 559 3463 722 
L 3463 178 
Q 3153 47 2828 -22 
Q 2503 -91 2169 -91 
Q 1331 -91 842 396 
Q 353 884 353 1716 
Q 353 2575 817 3079 
Q 1281 3584 2069 3584 
Q 2775 3584 3186 3129 
Q 3597 2675 3597 1894 
z
M 3022 2063 
Q 3016 2534 2758 2815 
Q 2500 3097 2075 3097 
Q 1594 3097 1305 2825 
Q 1016 2553 972 2059 
L 3022 2063 
z
" transform="scale(0.015625)"/>
       <path id="DejaVuSans-6e" d="M 3513 2113 
L 3513 0 
L 2938 0 
L 2938 2094 
Q 2938 2591 2744 2837 
Q 2550 3084 2163 3084 
Q 1697 3084 1428 2787 
Q 1159 2491 1159 1978 
L 1159 0 
L 581 0 
L 581 3500 
L 1159 3500 
L 1159 2956 
Q 1366 3272 1645 3428 
Q 1925 3584 2291 3584 
Q 2894 3584 3203 3211 
Q 3513 2838 3513 2113 
z
" transform="scale(0.015625)"/>
       <path id="DejaVuSans-72" d="M 2631 2963 
Q 2534 3019 2420 3045 
Q 2306 3072 2169 3072 
Q 1681 3072 1420 2755 
Q 1159 2438 1159 1844 
L 1159 0 
L 581 0 
L 581 3500 
L 1159 3500 
L 1159 2956 
Q 1341 3275 1631 3429 
Q 1922 3584 2338 3584 
Q 2397 3584 2469 3576 
Q 2541 3569 2628 3553 
L 2631 2963 
z
" transform="scale(0.015625)"/>
       <path id="DejaVuSans-61" d="M 2194 1759 
Q 1497 1759 1228 1600 
Q 959 1441 959 1056 
Q 959 750 1161 570 
Q 1363 391 1709 391 
Q 2188 391 2477 730 
Q 2766 1069 2766 1631 
L 2766 1759 
L 2194 1759 
z
M 3341 1997 
L 3341 0 
L 2766 0 
L 2766 531 
Q 2569 213 2275 61 
Q 1981 -91 1556 -91 
Q 1019 -91 701 211 
Q 384 513 384 1019 
Q 384 1609 779 1909 
Q 1175 2209 1959 2209 
L 2766 2209 
L 2766 2266 
Q 2766 2663 2505 2880 
Q 2244 3097 1772 3097 
Q 1472 3097 1187 3025 
Q 903 2953 641 2809 
L 641 3341 
Q 956 3463 1253 3523 
Q 1550 3584 1831 3584 
Q 2591 3584 2966 3190 
Q 3341 2797 3341 1997 
z
" transform="scale(0.015625)"/>
       <path id="DejaVuSans-74" d="M 1172 4494 
L 1172 3500 
L 2356 3500 
L 2356 3053 
L 1172 3053 
L 1172 1153 
Q 1172 725 1289 603 
Q 1406 481 1766 481 
L 2356 481 
L 2356 0 
L 1766 0 
Q 1100 0 847 248 
Q 594 497 594 1153 
L 594 3053 
L 172 3053 
L 172 3500 
L 594 3500 
L 594 4494 
L 1172 4494 
z
" transform="scale(0.015625)"/>
       <path id="DejaVuSans-20" transform="scale(0.015625)"/>
       <path id="DejaVuSans-6c" d="M 603 4863 
L 1178 4863 
L 1178 0 
L 603 0 
L 603 4863 
z
" transform="scale(0.015625)"/>
      </defs>
      <use xlink:href="#DejaVuSans-47"/>
      <use xlink:href="#DejaVuSans-65" x="77.490234"/>
      <use xlink:href="#DejaVuSans-6e" x="139.013672"/>
      <use xlink:href="#DejaVuSans-65" x="202.392578"/>
      <use xlink:href="#DejaVuSans-72" x="263.916016"/>
      <use xlink:href="#DejaVuSans-61" x="305.029297"/>
      <use xlink:href="#DejaVuSans-74" x="366.308594"/>
      <use xlink:href="#DejaVuSans-6f" x="405.517578"/>
      <use xlink:href="#DejaVuSans-72" x="466.699219"/>
      <use xlink:href="#DejaVuSans-20" x="507.8125"/>
      <use xlink:href="#DejaVuSans-6c" x="539.599609"/>
      <use xlink:href="#DejaVuSans-6f" x="567.382812"/>
      <use xlink:href="#DejaVuSans-73" x="628.564453"/>
      <use xlink:href="#DejaVuSans-73" x="680.664062"/>
     </g>
    </g>
    <g id="line2d_25">
     <path d="M 245.124687 278.326188 
L 255.124687 278.326188 
L 265.124687 278.326188 
" style="fill: none; stroke: #dc143c; stroke-width: 2; stroke-linecap: square"/>
    </g>
    <g id="text_14">
     <!-- Average discriminator loss -->
     <g transform="translate(273.124687 281.826188) scale(0.1 -0.1)">
      <defs>
       <path id="DejaVuSans-41" d="M 2188 4044 
L 1331 1722 
L 3047 1722 
L 2188 4044 
z
M 1831 4666 
L 2547 4666 
L 4325 0 
L 3669 0 
L 3244 1197 
L 1141 1197 
L 716 0 
L 50 0 
L 1831 4666 
z
" transform="scale(0.015625)"/>
       <path id="DejaVuSans-76" d="M 191 3500 
L 800 3500 
L 1894 563 
L 2988 3500 
L 3597 3500 
L 2284 0 
L 1503 0 
L 191 3500 
z
" transform="scale(0.015625)"/>
       <path id="DejaVuSans-67" d="M 2906 1791 
Q 2906 2416 2648 2759 
Q 2391 3103 1925 3103 
Q 1463 3103 1205 2759 
Q 947 2416 947 1791 
Q 947 1169 1205 825 
Q 1463 481 1925 481 
Q 2391 481 2648 825 
Q 2906 1169 2906 1791 
z
M 3481 434 
Q 3481 -459 3084 -895 
Q 2688 -1331 1869 -1331 
Q 1566 -1331 1297 -1286 
Q 1028 -1241 775 -1147 
L 775 -588 
Q 1028 -725 1275 -790 
Q 1522 -856 1778 -856 
Q 2344 -856 2625 -561 
Q 2906 -266 2906 331 
L 2906 616 
Q 2728 306 2450 153 
Q 2172 0 1784 0 
Q 1141 0 747 490 
Q 353 981 353 1791 
Q 353 2603 747 3093 
Q 1141 3584 1784 3584 
Q 2172 3584 2450 3431 
Q 2728 3278 2906 2969 
L 2906 3500 
L 3481 3500 
L 3481 434 
z
" transform="scale(0.015625)"/>
       <path id="DejaVuSans-64" d="M 2906 2969 
L 2906 4863 
L 3481 4863 
L 3481 0 
L 2906 0 
L 2906 525 
Q 2725 213 2448 61 
Q 2172 -91 1784 -91 
Q 1150 -91 751 415 
Q 353 922 353 1747 
Q 353 2572 751 3078 
Q 1150 3584 1784 3584 
Q 2172 3584 2448 3432 
Q 2725 3281 2906 2969 
z
M 947 1747 
Q 947 1113 1208 752 
Q 1469 391 1925 391 
Q 2381 391 2643 752 
Q 2906 1113 2906 1747 
Q 2906 2381 2643 2742 
Q 2381 3103 1925 3103 
Q 1469 3103 1208 2742 
Q 947 2381 947 1747 
z
" transform="scale(0.015625)"/>
       <path id="DejaVuSans-69" d="M 603 3500 
L 1178 3500 
L 1178 0 
L 603 0 
L 603 3500 
z
M 603 4863 
L 1178 4863 
L 1178 4134 
L 603 4134 
L 603 4863 
z
" transform="scale(0.015625)"/>
       <path id="DejaVuSans-6d" d="M 3328 2828 
Q 3544 3216 3844 3400 
Q 4144 3584 4550 3584 
Q 5097 3584 5394 3201 
Q 5691 2819 5691 2113 
L 5691 0 
L 5113 0 
L 5113 2094 
Q 5113 2597 4934 2840 
Q 4756 3084 4391 3084 
Q 3944 3084 3684 2787 
Q 3425 2491 3425 1978 
L 3425 0 
L 2847 0 
L 2847 2094 
Q 2847 2600 2669 2842 
Q 2491 3084 2119 3084 
Q 1678 3084 1418 2786 
Q 1159 2488 1159 1978 
L 1159 0 
L 581 0 
L 581 3500 
L 1159 3500 
L 1159 2956 
Q 1356 3278 1631 3431 
Q 1906 3584 2284 3584 
Q 2666 3584 2933 3390 
Q 3200 3197 3328 2828 
z
" transform="scale(0.015625)"/>
      </defs>
      <use xlink:href="#DejaVuSans-41"/>
      <use xlink:href="#DejaVuSans-76" x="62.533203"/>
      <use xlink:href="#DejaVuSans-65" x="121.712891"/>
      <use xlink:href="#DejaVuSans-72" x="183.236328"/>
      <use xlink:href="#DejaVuSans-61" x="224.349609"/>
      <use xlink:href="#DejaVuSans-67" x="285.628906"/>
      <use xlink:href="#DejaVuSans-65" x="349.105469"/>
      <use xlink:href="#DejaVuSans-20" x="410.628906"/>
      <use xlink:href="#DejaVuSans-64" x="442.416016"/>
      <use xlink:href="#DejaVuSans-69" x="505.892578"/>
      <use xlink:href="#DejaVuSans-73" x="533.675781"/>
      <use xlink:href="#DejaVuSans-63" x="585.775391"/>
      <use xlink:href="#DejaVuSans-72" x="640.755859"/>
      <use xlink:href="#DejaVuSans-69" x="681.869141"/>
      <use xlink:href="#DejaVuSans-6d" x="709.652344"/>
      <use xlink:href="#DejaVuSans-69" x="807.064453"/>
      <use xlink:href="#DejaVuSans-6e" x="834.847656"/>
      <use xlink:href="#DejaVuSans-61" x="898.226562"/>
      <use xlink:href="#DejaVuSans-74" x="959.505859"/>
      <use xlink:href="#DejaVuSans-6f" x="998.714844"/>
      <use xlink:href="#DejaVuSans-72" x="1059.896484"/>
      <use xlink:href="#DejaVuSans-20" x="1101.009766"/>
      <use xlink:href="#DejaVuSans-6c" x="1132.796875"/>
      <use xlink:href="#DejaVuSans-6f" x="1160.580078"/>
      <use xlink:href="#DejaVuSans-73" x="1221.761719"/>
      <use xlink:href="#DejaVuSans-73" x="1273.861328"/>
     </g>
    </g>
    <g id="line2d_26">
     <path d="M 245.124687 293.004312 
L 255.124687 293.004312 
L 265.124687 293.004312 
" style="fill: none; stroke: #ffff00; stroke-width: 3; stroke-linecap: square"/>
    </g>
    <g id="text_15">
     <!-- ROC AUC -->
     <g transform="translate(273.124687 296.504312) scale(0.1 -0.1)">
      <defs>
       <path id="DejaVuSans-52" d="M 2841 2188 
Q 3044 2119 3236 1894 
Q 3428 1669 3622 1275 
L 4263 0 
L 3584 0 
L 2988 1197 
Q 2756 1666 2539 1819 
Q 2322 1972 1947 1972 
L 1259 1972 
L 1259 0 
L 628 0 
L 628 4666 
L 2053 4666 
Q 2853 4666 3247 4331 
Q 3641 3997 3641 3322 
Q 3641 2881 3436 2590 
Q 3231 2300 2841 2188 
z
M 1259 4147 
L 1259 2491 
L 2053 2491 
Q 2509 2491 2742 2702 
Q 2975 2913 2975 3322 
Q 2975 3731 2742 3939 
Q 2509 4147 2053 4147 
L 1259 4147 
z
" transform="scale(0.015625)"/>
       <path id="DejaVuSans-4f" d="M 2522 4238 
Q 1834 4238 1429 3725 
Q 1025 3213 1025 2328 
Q 1025 1447 1429 934 
Q 1834 422 2522 422 
Q 3209 422 3611 934 
Q 4013 1447 4013 2328 
Q 4013 3213 3611 3725 
Q 3209 4238 2522 4238 
z
M 2522 4750 
Q 3503 4750 4090 4092 
Q 4678 3434 4678 2328 
Q 4678 1225 4090 567 
Q 3503 -91 2522 -91 
Q 1538 -91 948 565 
Q 359 1222 359 2328 
Q 359 3434 948 4092 
Q 1538 4750 2522 4750 
z
" transform="scale(0.015625)"/>
       <path id="DejaVuSans-43" d="M 4122 4306 
L 4122 3641 
Q 3803 3938 3442 4084 
Q 3081 4231 2675 4231 
Q 1875 4231 1450 3742 
Q 1025 3253 1025 2328 
Q 1025 1406 1450 917 
Q 1875 428 2675 428 
Q 3081 428 3442 575 
Q 3803 722 4122 1019 
L 4122 359 
Q 3791 134 3420 21 
Q 3050 -91 2638 -91 
Q 1578 -91 968 557 
Q 359 1206 359 2328 
Q 359 3453 968 4101 
Q 1578 4750 2638 4750 
Q 3056 4750 3426 4639 
Q 3797 4528 4122 4306 
z
" transform="scale(0.015625)"/>
       <path id="DejaVuSans-55" d="M 556 4666 
L 1191 4666 
L 1191 1831 
Q 1191 1081 1462 751 
Q 1734 422 2344 422 
Q 2950 422 3222 751 
Q 3494 1081 3494 1831 
L 3494 4666 
L 4128 4666 
L 4128 1753 
Q 4128 841 3676 375 
Q 3225 -91 2344 -91 
Q 1459 -91 1007 375 
Q 556 841 556 1753 
L 556 4666 
z
" transform="scale(0.015625)"/>
      </defs>
      <use xlink:href="#DejaVuSans-52"/>
      <use xlink:href="#DejaVuSans-4f" x="69.482422"/>
      <use xlink:href="#DejaVuSans-43" x="148.193359"/>
      <use xlink:href="#DejaVuSans-20" x="218.017578"/>
      <use xlink:href="#DejaVuSans-41" x="249.804688"/>
      <use xlink:href="#DejaVuSans-55" x="318.212891"/>
      <use xlink:href="#DejaVuSans-43" x="391.40625"/>
     </g>
    </g>
   </g>
  </g>
 </g>
 <defs>
  <clipPath id="pd550ba1223">
   <rect x="57.6" y="41.472" width="357.12" height="266.112"/>
  </clipPath>
 </defs>
</svg>
