<?xml version="1.0" encoding="utf-8" standalone="no"?>
<!DOCTYPE svg PUBLIC "-//W3C//DTD SVG 1.1//EN"
  "http://www.w3.org/Graphics/SVG/1.1/DTD/svg11.dtd">
<svg xmlns:xlink="http://www.w3.org/1999/xlink" width="460.8pt" height="345.6pt" viewBox="0 0 460.8 345.6" xmlns="http://www.w3.org/2000/svg" version="1.1">
 <metadata>
  <rdf:RDF xmlns:dc="http://purl.org/dc/elements/1.1/" xmlns:cc="http://creativecommons.org/ns#" xmlns:rdf="http://www.w3.org/1999/02/22-rdf-syntax-ns#">
   <cc:Work>
    <dc:type rdf:resource="http://purl.org/dc/dcmitype/StillImage"/>
    <dc:date>2023-07-06T14:55:53.852169</dc:date>
    <dc:format>image/svg+xml</dc:format>
    <dc:creator>
     <cc:Agent>
      <dc:title>Matplotlib v3.7.1, https://matplotlib.org/</dc:title>
     </cc:Agent>
    </dc:creator>
   </cc:Work>
  </rdf:RDF>
 </metadata>
 <defs>
  <style type="text/css">*{stroke-linejoin: round; stroke-linecap: butt}</style>
 </defs>
 <g id="figure_1">
  <g id="patch_1">
   <path d="M 0 345.6 
L 460.8 345.6 
L 460.8 0 
L 0 0 
z
" style="fill: #ffffff"/>
  </g>
  <g id="axes_1">
   <g id="patch_2">
    <path d="M 57.6 307.584 
L 414.72 307.584 
L 414.72 41.472 
L 57.6 41.472 
z
" style="fill: #e5e5e5"/>
   </g>
   <g id="matplotlib.axis_1">
    <g id="xtick_1">
     <g id="line2d_1">
      <path d="M 73.2304 307.584 
L 73.2304 41.472 
" clip-path="url(#p95031ae3d6)" style="fill: none; stroke: #ffffff; stroke-width: 0.8; stroke-linecap: square"/>
     </g>
     <g id="line2d_2">
      <defs>
       <path id="mf9501ea00c" d="M 0 0 
L 0 3.5 
" style="stroke: #555555; stroke-width: 0.8"/>
      </defs>
      <g>
       <use xlink:href="#mf9501ea00c" x="73.2304" y="307.584" style="fill: #555555; stroke: #555555; stroke-width: 0.8"/>
      </g>
     </g>
     <g id="text_1">
      <!-- 0 -->
      <g style="fill: #555555" transform="translate(70.04915 322.182437) scale(0.1 -0.1)">
       <defs>
        <path id="DejaVuSans-30" d="M 2034 4250 
Q 1547 4250 1301 3770 
Q 1056 3291 1056 2328 
Q 1056 1369 1301 889 
Q 1547 409 2034 409 
Q 2525 409 2770 889 
Q 3016 1369 3016 2328 
Q 3016 3291 2770 3770 
Q 2525 4250 2034 4250 
z
M 2034 4750 
Q 2819 4750 3233 4129 
Q 3647 3509 3647 2328 
Q 3647 1150 3233 529 
Q 2819 -91 2034 -91 
Q 1250 -91 836 529 
Q 422 1150 422 2328 
Q 422 3509 836 4129 
Q 1250 4750 2034 4750 
z
" transform="scale(0.015625)"/>
       </defs>
       <use xlink:href="#DejaVuSans-30"/>
      </g>
     </g>
    </g>
    <g id="xtick_2">
     <g id="line2d_3">
      <path d="M 133.463154 307.584 
L 133.463154 41.472 
" clip-path="url(#p95031ae3d6)" style="fill: none; stroke: #ffffff; stroke-width: 0.8; stroke-linecap: square"/>
     </g>
     <g id="line2d_4">
      <g>
       <use xlink:href="#mf9501ea00c" x="133.463154" y="307.584" style="fill: #555555; stroke: #555555; stroke-width: 0.8"/>
      </g>
     </g>
     <g id="text_2">
      <!-- 100 -->
      <g style="fill: #555555" transform="translate(123.919404 322.182437) scale(0.1 -0.1)">
       <defs>
        <path id="DejaVuSans-31" d="M 794 531 
L 1825 531 
L 1825 4091 
L 703 3866 
L 703 4441 
L 1819 4666 
L 2450 4666 
L 2450 531 
L 3481 531 
L 3481 0 
L 794 0 
L 794 531 
z
" transform="scale(0.015625)"/>
       </defs>
       <use xlink:href="#DejaVuSans-31"/>
       <use xlink:href="#DejaVuSans-30" x="63.623047"/>
       <use xlink:href="#DejaVuSans-30" x="127.246094"/>
      </g>
     </g>
    </g>
    <g id="xtick_3">
     <g id="line2d_5">
      <path d="M 193.695908 307.584 
L 193.695908 41.472 
" clip-path="url(#p95031ae3d6)" style="fill: none; stroke: #ffffff; stroke-width: 0.8; stroke-linecap: square"/>
     </g>
     <g id="line2d_6">
      <g>
       <use xlink:href="#mf9501ea00c" x="193.695908" y="307.584" style="fill: #555555; stroke: #555555; stroke-width: 0.8"/>
      </g>
     </g>
     <g id="text_3">
      <!-- 200 -->
      <g style="fill: #555555" transform="translate(184.152158 322.182437) scale(0.1 -0.1)">
       <defs>
        <path id="DejaVuSans-32" d="M 1228 531 
L 3431 531 
L 3431 0 
L 469 0 
L 469 531 
Q 828 903 1448 1529 
Q 2069 2156 2228 2338 
Q 2531 2678 2651 2914 
Q 2772 3150 2772 3378 
Q 2772 3750 2511 3984 
Q 2250 4219 1831 4219 
Q 1534 4219 1204 4116 
Q 875 4013 500 3803 
L 500 4441 
Q 881 4594 1212 4672 
Q 1544 4750 1819 4750 
Q 2544 4750 2975 4387 
Q 3406 4025 3406 3419 
Q 3406 3131 3298 2873 
Q 3191 2616 2906 2266 
Q 2828 2175 2409 1742 
Q 1991 1309 1228 531 
z
" transform="scale(0.015625)"/>
       </defs>
       <use xlink:href="#DejaVuSans-32"/>
       <use xlink:href="#DejaVuSans-30" x="63.623047"/>
       <use xlink:href="#DejaVuSans-30" x="127.246094"/>
      </g>
     </g>
    </g>
    <g id="xtick_4">
     <g id="line2d_7">
      <path d="M 253.928663 307.584 
L 253.928663 41.472 
" clip-path="url(#p95031ae3d6)" style="fill: none; stroke: #ffffff; stroke-width: 0.8; stroke-linecap: square"/>
     </g>
     <g id="line2d_8">
      <g>
       <use xlink:href="#mf9501ea00c" x="253.928663" y="307.584" style="fill: #555555; stroke: #555555; stroke-width: 0.8"/>
      </g>
     </g>
     <g id="text_4">
      <!-- 300 -->
      <g style="fill: #555555" transform="translate(244.384913 322.182437) scale(0.1 -0.1)">
       <defs>
        <path id="DejaVuSans-33" d="M 2597 2516 
Q 3050 2419 3304 2112 
Q 3559 1806 3559 1356 
Q 3559 666 3084 287 
Q 2609 -91 1734 -91 
Q 1441 -91 1130 -33 
Q 819 25 488 141 
L 488 750 
Q 750 597 1062 519 
Q 1375 441 1716 441 
Q 2309 441 2620 675 
Q 2931 909 2931 1356 
Q 2931 1769 2642 2001 
Q 2353 2234 1838 2234 
L 1294 2234 
L 1294 2753 
L 1863 2753 
Q 2328 2753 2575 2939 
Q 2822 3125 2822 3475 
Q 2822 3834 2567 4026 
Q 2313 4219 1838 4219 
Q 1578 4219 1281 4162 
Q 984 4106 628 3988 
L 628 4550 
Q 988 4650 1302 4700 
Q 1616 4750 1894 4750 
Q 2613 4750 3031 4423 
Q 3450 4097 3450 3541 
Q 3450 3153 3228 2886 
Q 3006 2619 2597 2516 
z
" transform="scale(0.015625)"/>
       </defs>
       <use xlink:href="#DejaVuSans-33"/>
       <use xlink:href="#DejaVuSans-30" x="63.623047"/>
       <use xlink:href="#DejaVuSans-30" x="127.246094"/>
      </g>
     </g>
    </g>
    <g id="xtick_5">
     <g id="line2d_9">
      <path d="M 314.161417 307.584 
L 314.161417 41.472 
" clip-path="url(#p95031ae3d6)" style="fill: none; stroke: #ffffff; stroke-width: 0.8; stroke-linecap: square"/>
     </g>
     <g id="line2d_10">
      <g>
       <use xlink:href="#mf9501ea00c" x="314.161417" y="307.584" style="fill: #555555; stroke: #555555; stroke-width: 0.8"/>
      </g>
     </g>
     <g id="text_5">
      <!-- 400 -->
      <g style="fill: #555555" transform="translate(304.617667 322.182437) scale(0.1 -0.1)">
       <defs>
        <path id="DejaVuSans-34" d="M 2419 4116 
L 825 1625 
L 2419 1625 
L 2419 4116 
z
M 2253 4666 
L 3047 4666 
L 3047 1625 
L 3713 1625 
L 3713 1100 
L 3047 1100 
L 3047 0 
L 2419 0 
L 2419 1100 
L 313 1100 
L 313 1709 
L 2253 4666 
z
" transform="scale(0.015625)"/>
       </defs>
       <use xlink:href="#DejaVuSans-34"/>
       <use xlink:href="#DejaVuSans-30" x="63.623047"/>
       <use xlink:href="#DejaVuSans-30" x="127.246094"/>
      </g>
     </g>
    </g>
    <g id="xtick_6">
     <g id="line2d_11">
      <path d="M 374.394171 307.584 
L 374.394171 41.472 
" clip-path="url(#p95031ae3d6)" style="fill: none; stroke: #ffffff; stroke-width: 0.8; stroke-linecap: square"/>
     </g>
     <g id="line2d_12">
      <g>
       <use xlink:href="#mf9501ea00c" x="374.394171" y="307.584" style="fill: #555555; stroke: #555555; stroke-width: 0.8"/>
      </g>
     </g>
     <g id="text_6">
      <!-- 500 -->
      <g style="fill: #555555" transform="translate(364.850421 322.182437) scale(0.1 -0.1)">
       <defs>
        <path id="DejaVuSans-35" d="M 691 4666 
L 3169 4666 
L 3169 4134 
L 1269 4134 
L 1269 2991 
Q 1406 3038 1543 3061 
Q 1681 3084 1819 3084 
Q 2600 3084 3056 2656 
Q 3513 2228 3513 1497 
Q 3513 744 3044 326 
Q 2575 -91 1722 -91 
Q 1428 -91 1123 -41 
Q 819 9 494 109 
L 494 744 
Q 775 591 1075 516 
Q 1375 441 1709 441 
Q 2250 441 2565 725 
Q 2881 1009 2881 1497 
Q 2881 1984 2565 2268 
Q 2250 2553 1709 2553 
Q 1456 2553 1204 2497 
Q 953 2441 691 2322 
L 691 4666 
z
" transform="scale(0.015625)"/>
       </defs>
       <use xlink:href="#DejaVuSans-35"/>
       <use xlink:href="#DejaVuSans-30" x="63.623047"/>
       <use xlink:href="#DejaVuSans-30" x="127.246094"/>
      </g>
     </g>
    </g>
    <g id="text_7">
     <!-- Epoch -->
     <g style="fill: #555555" transform="translate(217.786875 337.38025) scale(0.12 -0.12)">
      <defs>
       <path id="DejaVuSans-45" d="M 628 4666 
L 3578 4666 
L 3578 4134 
L 1259 4134 
L 1259 2753 
L 3481 2753 
L 3481 2222 
L 1259 2222 
L 1259 531 
L 3634 531 
L 3634 0 
L 628 0 
L 628 4666 
z
" transform="scale(0.015625)"/>
       <path id="DejaVuSans-70" d="M 1159 525 
L 1159 -1331 
L 581 -1331 
L 581 3500 
L 1159 3500 
L 1159 2969 
Q 1341 3281 1617 3432 
Q 1894 3584 2278 3584 
Q 2916 3584 3314 3078 
Q 3713 2572 3713 1747 
Q 3713 922 3314 415 
Q 2916 -91 2278 -91 
Q 1894 -91 1617 61 
Q 1341 213 1159 525 
z
M 3116 1747 
Q 3116 2381 2855 2742 
Q 2594 3103 2138 3103 
Q 1681 3103 1420 2742 
Q 1159 2381 1159 1747 
Q 1159 1113 1420 752 
Q 1681 391 2138 391 
Q 2594 391 2855 752 
Q 3116 1113 3116 1747 
z
" transform="scale(0.015625)"/>
       <path id="DejaVuSans-6f" d="M 1959 3097 
Q 1497 3097 1228 2736 
Q 959 2375 959 1747 
Q 959 1119 1226 758 
Q 1494 397 1959 397 
Q 2419 397 2687 759 
Q 2956 1122 2956 1747 
Q 2956 2369 2687 2733 
Q 2419 3097 1959 3097 
z
M 1959 3584 
Q 2709 3584 3137 3096 
Q 3566 2609 3566 1747 
Q 3566 888 3137 398 
Q 2709 -91 1959 -91 
Q 1206 -91 779 398 
Q 353 888 353 1747 
Q 353 2609 779 3096 
Q 1206 3584 1959 3584 
z
" transform="scale(0.015625)"/>
       <path id="DejaVuSans-63" d="M 3122 3366 
L 3122 2828 
Q 2878 2963 2633 3030 
Q 2388 3097 2138 3097 
Q 1578 3097 1268 2742 
Q 959 2388 959 1747 
Q 959 1106 1268 751 
Q 1578 397 2138 397 
Q 2388 397 2633 464 
Q 2878 531 3122 666 
L 3122 134 
Q 2881 22 2623 -34 
Q 2366 -91 2075 -91 
Q 1284 -91 818 406 
Q 353 903 353 1747 
Q 353 2603 823 3093 
Q 1294 3584 2113 3584 
Q 2378 3584 2631 3529 
Q 2884 3475 3122 3366 
z
" transform="scale(0.015625)"/>
       <path id="DejaVuSans-68" d="M 3513 2113 
L 3513 0 
L 2938 0 
L 2938 2094 
Q 2938 2591 2744 2837 
Q 2550 3084 2163 3084 
Q 1697 3084 1428 2787 
Q 1159 2491 1159 1978 
L 1159 0 
L 581 0 
L 581 4863 
L 1159 4863 
L 1159 2956 
Q 1366 3272 1645 3428 
Q 1925 3584 2291 3584 
Q 2894 3584 3203 3211 
Q 3513 2838 3513 2113 
z
" transform="scale(0.015625)"/>
      </defs>
      <use xlink:href="#DejaVuSans-45"/>
      <use xlink:href="#DejaVuSans-70" x="63.183594"/>
      <use xlink:href="#DejaVuSans-6f" x="126.660156"/>
      <use xlink:href="#DejaVuSans-63" x="187.841797"/>
      <use xlink:href="#DejaVuSans-68" x="242.822266"/>
     </g>
    </g>
   </g>
   <g id="matplotlib.axis_2">
    <g id="ytick_1">
     <g id="line2d_13">
      <path d="M 57.6 264.634434 
L 414.72 264.634434 
" clip-path="url(#p95031ae3d6)" style="fill: none; stroke: #ffffff; stroke-width: 0.8; stroke-linecap: square"/>
     </g>
     <g id="line2d_14">
      <defs>
       <path id="m4ee5d0cca0" d="M 0 0 
L -3.5 0 
" style="stroke: #555555; stroke-width: 0.8"/>
      </defs>
      <g>
       <use xlink:href="#m4ee5d0cca0" x="57.6" y="264.634434" style="fill: #555555; stroke: #555555; stroke-width: 0.8"/>
      </g>
     </g>
     <g id="text_8">
      <!-- 0.5 -->
      <g style="fill: #555555" transform="translate(34.696875 268.433653) scale(0.1 -0.1)">
       <defs>
        <path id="DejaVuSans-2e" d="M 684 794 
L 1344 794 
L 1344 0 
L 684 0 
L 684 794 
z
" transform="scale(0.015625)"/>
       </defs>
       <use xlink:href="#DejaVuSans-30"/>
       <use xlink:href="#DejaVuSans-2e" x="63.623047"/>
       <use xlink:href="#DejaVuSans-35" x="95.410156"/>
      </g>
     </g>
    </g>
    <g id="ytick_2">
     <g id="line2d_15">
      <path d="M 57.6 221.273194 
L 414.72 221.273194 
" clip-path="url(#p95031ae3d6)" style="fill: none; stroke: #ffffff; stroke-width: 0.8; stroke-linecap: square"/>
     </g>
     <g id="line2d_16">
      <g>
       <use xlink:href="#m4ee5d0cca0" x="57.6" y="221.273194" style="fill: #555555; stroke: #555555; stroke-width: 0.8"/>
      </g>
     </g>
     <g id="text_9">
      <!-- 1.0 -->
      <g style="fill: #555555" transform="translate(34.696875 225.072412) scale(0.1 -0.1)">
       <use xlink:href="#DejaVuSans-31"/>
       <use xlink:href="#DejaVuSans-2e" x="63.623047"/>
       <use xlink:href="#DejaVuSans-30" x="95.410156"/>
      </g>
     </g>
    </g>
    <g id="ytick_3">
     <g id="line2d_17">
      <path d="M 57.6 177.911953 
L 414.72 177.911953 
" clip-path="url(#p95031ae3d6)" style="fill: none; stroke: #ffffff; stroke-width: 0.8; stroke-linecap: square"/>
     </g>
     <g id="line2d_18">
      <g>
       <use xlink:href="#m4ee5d0cca0" x="57.6" y="177.911953" style="fill: #555555; stroke: #555555; stroke-width: 0.8"/>
      </g>
     </g>
     <g id="text_10">
      <!-- 1.5 -->
      <g style="fill: #555555" transform="translate(34.696875 181.711172) scale(0.1 -0.1)">
       <use xlink:href="#DejaVuSans-31"/>
       <use xlink:href="#DejaVuSans-2e" x="63.623047"/>
       <use xlink:href="#DejaVuSans-35" x="95.410156"/>
      </g>
     </g>
    </g>
    <g id="ytick_4">
     <g id="line2d_19">
      <path d="M 57.6 134.550712 
L 414.72 134.550712 
" clip-path="url(#p95031ae3d6)" style="fill: none; stroke: #ffffff; stroke-width: 0.8; stroke-linecap: square"/>
     </g>
     <g id="line2d_20">
      <g>
       <use xlink:href="#m4ee5d0cca0" x="57.6" y="134.550712" style="fill: #555555; stroke: #555555; stroke-width: 0.8"/>
      </g>
     </g>
     <g id="text_11">
      <!-- 2.0 -->
      <g style="fill: #555555" transform="translate(34.696875 138.349931) scale(0.1 -0.1)">
       <use xlink:href="#DejaVuSans-32"/>
       <use xlink:href="#DejaVuSans-2e" x="63.623047"/>
       <use xlink:href="#DejaVuSans-30" x="95.410156"/>
      </g>
     </g>
    </g>
    <g id="ytick_5">
     <g id="line2d_21">
      <path d="M 57.6 91.189472 
L 414.72 91.189472 
" clip-path="url(#p95031ae3d6)" style="fill: none; stroke: #ffffff; stroke-width: 0.8; stroke-linecap: square"/>
     </g>
     <g id="line2d_22">
      <g>
       <use xlink:href="#m4ee5d0cca0" x="57.6" y="91.189472" style="fill: #555555; stroke: #555555; stroke-width: 0.8"/>
      </g>
     </g>
     <g id="text_12">
      <!-- 2.5 -->
      <g style="fill: #555555" transform="translate(34.696875 94.988691) scale(0.1 -0.1)">
       <use xlink:href="#DejaVuSans-32"/>
       <use xlink:href="#DejaVuSans-2e" x="63.623047"/>
       <use xlink:href="#DejaVuSans-35" x="95.410156"/>
      </g>
     </g>
    </g>
    <g id="ytick_6">
     <g id="line2d_23">
      <path d="M 57.6 47.828231 
L 414.72 47.828231 
" clip-path="url(#p95031ae3d6)" style="fill: none; stroke: #ffffff; stroke-width: 0.8; stroke-linecap: square"/>
     </g>
     <g id="line2d_24">
      <g>
       <use xlink:href="#m4ee5d0cca0" x="57.6" y="47.828231" style="fill: #555555; stroke: #555555; stroke-width: 0.8"/>
      </g>
     </g>
     <g id="text_13">
      <!-- 3.0 -->
      <g style="fill: #555555" transform="translate(34.696875 51.62745) scale(0.1 -0.1)">
       <use xlink:href="#DejaVuSans-33"/>
       <use xlink:href="#DejaVuSans-2e" x="63.623047"/>
       <use xlink:href="#DejaVuSans-30" x="95.410156"/>
      </g>
     </g>
    </g>
    <g id="text_14">
     <!-- Loss -->
     <g style="fill: #555555" transform="translate(28.20125 187.688625) rotate(-90) scale(0.12 -0.12)">
      <defs>
       <path id="DejaVuSans-4c" d="M 628 4666 
L 1259 4666 
L 1259 531 
L 3531 531 
L 3531 0 
L 628 0 
L 628 4666 
z
" transform="scale(0.015625)"/>
       <path id="DejaVuSans-73" d="M 2834 3397 
L 2834 2853 
Q 2591 2978 2328 3040 
Q 2066 3103 1784 3103 
Q 1356 3103 1142 2972 
Q 928 2841 928 2578 
Q 928 2378 1081 2264 
Q 1234 2150 1697 2047 
L 1894 2003 
Q 2506 1872 2764 1633 
Q 3022 1394 3022 966 
Q 3022 478 2636 193 
Q 2250 -91 1575 -91 
Q 1294 -91 989 -36 
Q 684 19 347 128 
L 347 722 
Q 666 556 975 473 
Q 1284 391 1588 391 
Q 1994 391 2212 530 
Q 2431 669 2431 922 
Q 2431 1156 2273 1281 
Q 2116 1406 1581 1522 
L 1381 1569 
Q 847 1681 609 1914 
Q 372 2147 372 2553 
Q 372 3047 722 3315 
Q 1072 3584 1716 3584 
Q 2034 3584 2315 3537 
Q 2597 3491 2834 3397 
z
" transform="scale(0.015625)"/>
      </defs>
      <use xlink:href="#DejaVuSans-4c"/>
      <use xlink:href="#DejaVuSans-6f" x="53.962891"/>
      <use xlink:href="#DejaVuSans-73" x="115.144531"/>
      <use xlink:href="#DejaVuSans-73" x="167.244141"/>
     </g>
    </g>
   </g>
   <g id="line2d_25">
    <path d="M 73.832727 244.122983 
L 75.63971 244.747101 
L 78.651348 246.572354 
L 79.253675 246.988381 
L 81.662985 248.083969 
L 82.86764 248.337506 
L 83.469968 248.515803 
L 84.072295 248.463766 
L 85.276951 248.599619 
L 87.686261 248.416521 
L 88.890916 248.017826 
L 89.493243 247.939659 
L 91.300226 247.21536 
L 91.902554 247.248736 
L 93.107209 246.925995 
L 94.914191 246.535643 
L 95.516519 246.305661 
L 96.118846 246.269855 
L 97.323501 245.921693 
L 98.528157 245.753817 
L 99.732812 245.431304 
L 103.949104 244.545198 
L 105.153759 244.302396 
L 105.756087 244.139928 
L 106.358415 244.12272 
L 107.56307 243.780497 
L 108.165397 243.846051 
L 109.370052 243.558201 
L 109.97238 243.692189 
L 110.574707 243.436268 
L 111.779362 243.298549 
L 112.38169 243.475124 
L 112.984018 243.009976 
L 114.791 243.082777 
L 115.393328 242.964581 
L 115.995655 243.089321 
L 116.597983 242.824665 
L 117.20031 242.797041 
L 117.802638 242.58772 
L 118.404965 242.796788 
L 119.007293 242.553532 
L 119.609621 242.764057 
L 120.211948 242.42308 
L 120.814276 242.504912 
L 121.416603 242.472838 
L 122.018931 242.269047 
L 122.621258 242.406446 
L 123.223586 242.221332 
L 123.825913 242.43759 
L 124.428241 241.920327 
L 125.030568 242.228667 
L 125.632896 241.887405 
L 126.235223 242.013463 
L 126.837551 242.00466 
L 127.439879 241.640908 
L 128.042206 241.990383 
L 129.849189 241.550336 
L 130.451516 241.101273 
L 131.053844 241.280232 
L 131.656171 240.978524 
L 132.258499 240.998156 
L 132.860826 240.476075 
L 133.463154 240.739666 
L 134.065482 240.668649 
L 134.667809 240.414967 
L 135.270137 240.420172 
L 136.474792 240.041543 
L 137.077119 240.004124 
L 137.679447 239.602349 
L 138.281774 239.395612 
L 138.884102 239.552674 
L 139.486429 238.874327 
L 140.088757 238.809533 
L 142.498067 238.146125 
L 143.100395 238.095122 
L 143.702722 237.674588 
L 144.30505 237.50251 
L 144.907377 237.03593 
L 145.509705 236.860424 
L 146.112032 236.946464 
L 147.316687 235.825252 
L 147.919015 235.027976 
L 148.521343 234.892733 
L 149.12367 235.293909 
L 149.725998 234.901489 
L 150.328325 235.518257 
L 150.930653 235.181482 
L 152.135308 234.69895 
L 152.737635 234.888319 
L 153.339963 235.620356 
L 153.94229 235.268245 
L 154.544618 235.083874 
L 155.146946 235.157627 
L 155.749273 234.615723 
L 156.351601 234.792727 
L 156.953928 234.449372 
L 157.556256 234.491577 
L 158.158583 234.686048 
L 158.760911 233.93763 
L 159.363238 234.367778 
L 159.965566 234.096423 
L 160.567893 233.544559 
L 161.170221 233.726122 
L 161.772548 233.133923 
L 162.374876 233.255768 
L 162.977204 232.648605 
L 163.579531 232.41472 
L 164.181859 231.955005 
L 164.784186 231.902756 
L 165.386514 232.184465 
L 165.988841 232.036154 
L 166.591169 230.850712 
L 167.795824 231.291225 
L 169.000479 230.495225 
L 169.602807 230.179013 
L 170.205134 230.109282 
L 170.807462 229.904546 
L 171.409789 229.011311 
L 172.012117 230.005844 
L 172.614444 230.087691 
L 173.819099 228.702811 
L 174.421427 228.53569 
L 175.023754 228.484144 
L 175.626082 228.256163 
L 176.830737 229.008241 
L 177.433065 228.358428 
L 178.035392 229.388038 
L 178.63772 229.880541 
L 179.240047 229.506368 
L 179.842375 230.380079 
L 180.444702 229.503809 
L 181.04703 230.603336 
L 181.649357 229.518396 
L 182.251685 229.633863 
L 182.854012 228.730988 
L 184.058668 221.680981 
L 185.263323 220.561868 
L 185.86565 221.194913 
L 186.467978 220.763472 
L 187.070305 220.833761 
L 187.672633 220.119634 
L 188.27496 218.395318 
L 188.877288 217.526915 
L 189.479615 215.018462 
L 190.081943 213.491376 
L 190.684271 212.849317 
L 191.286598 212.506484 
L 191.888926 212.364169 
L 192.491253 210.527736 
L 193.093581 209.509792 
L 193.695908 207.993334 
L 194.298236 207.611888 
L 194.900563 204.192212 
L 195.502891 205.273869 
L 196.105218 204.683242 
L 196.707546 202.797268 
L 197.309874 201.82353 
L 197.912201 200.626655 
L 198.514529 198.969949 
L 199.116856 197.888209 
L 199.719184 195.193567 
L 200.321511 196.240664 
L 200.923839 194.983062 
L 201.526166 195.027981 
L 202.128494 192.636803 
L 202.730821 192.553768 
L 203.333149 190.345782 
L 203.935476 189.246715 
L 204.537804 188.788994 
L 205.140132 193.675506 
L 205.742459 185.673352 
L 206.344787 183.463992 
L 206.947114 183.370907 
L 207.549442 185.255299 
L 208.151769 183.354562 
L 208.754097 182.670499 
L 209.356424 181.420382 
L 209.958752 179.657246 
L 210.561079 181.00756 
L 211.163407 177.921102 
L 211.765735 176.116851 
L 212.368062 177.709543 
L 212.97039 175.010755 
L 213.572717 176.943229 
L 214.175045 173.897442 
L 214.777372 175.32797 
L 215.3797 171.429638 
L 215.982027 171.148069 
L 217.186682 172.337905 
L 217.78901 172.164389 
L 218.391337 169.109784 
L 218.993665 167.284246 
L 219.595993 172.022302 
L 220.19832 165.257715 
L 220.800648 166.252243 
L 221.402975 164.339928 
L 222.005303 167.434387 
L 222.60763 165.044554 
L 223.209958 165.095851 
L 223.812285 165.832898 
L 224.414613 163.27723 
L 225.01694 162.454098 
L 225.619268 160.036859 
L 226.221596 162.330372 
L 226.823923 160.498384 
L 227.426251 163.058858 
L 228.028578 158.129392 
L 228.630906 160.617965 
L 229.233233 158.96343 
L 229.835561 158.374013 
L 230.437888 159.414938 
L 231.040216 155.707004 
L 231.642543 153.096917 
L 232.244871 155.899965 
L 232.847199 158.166289 
L 233.449526 154.539643 
L 234.051854 157.310292 
L 234.654181 155.062711 
L 235.256509 151.96607 
L 235.858836 154.249948 
L 236.461164 149.033423 
L 237.063491 156.067525 
L 237.665819 153.080065 
L 238.268146 152.083863 
L 238.870474 150.356838 
L 239.472801 154.538796 
L 240.075129 143.392994 
L 240.677457 150.535791 
L 241.279784 151.848226 
L 241.882112 150.615984 
L 242.484439 147.313635 
L 244.291422 147.031559 
L 244.893749 147.481578 
L 245.496077 147.501148 
L 246.098404 146.57266 
L 246.700732 144.061012 
L 247.30306 143.13665 
L 247.905387 148.459606 
L 248.507715 145.872304 
L 249.110042 142.123255 
L 249.71237 139.333491 
L 250.314697 143.147101 
L 250.917025 141.296587 
L 251.519352 147.69659 
L 252.12168 140.848088 
L 252.724007 141.034929 
L 253.928663 132.842854 
L 255.133318 142.725668 
L 255.735645 138.771376 
L 256.337973 140.75489 
L 257.542628 134.017307 
L 258.144955 138.217718 
L 258.747283 133.817739 
L 259.34961 131.53994 
L 259.951938 132.012909 
L 260.554265 138.153063 
L 261.156593 135.503298 
L 261.758921 130.514481 
L 262.361248 134.346576 
L 262.963576 134.718624 
L 263.565903 136.179753 
L 264.168231 130.152378 
L 264.770558 126.829518 
L 265.372886 130.114582 
L 265.975213 136.634806 
L 266.577541 129.037183 
L 267.179868 130.906441 
L 267.782196 132.36209 
L 268.384524 127.37471 
L 268.986851 130.707659 
L 269.589179 126.826768 
L 270.191506 124.347045 
L 270.793834 134.215385 
L 271.396161 126.521153 
L 271.998489 125.098234 
L 272.600816 121.432913 
L 273.203144 131.651303 
L 273.805471 126.763003 
L 274.407799 130.218997 
L 275.010126 118.938655 
L 275.612454 121.158539 
L 276.214782 121.274761 
L 276.817109 123.712966 
L 277.419437 120.680835 
L 278.021764 123.183261 
L 278.624092 120.10343 
L 279.226419 121.590983 
L 279.828747 119.621715 
L 280.431074 119.509298 
L 281.033402 117.86963 
L 281.635729 122.227708 
L 282.238057 120.275105 
L 282.840385 114.759467 
L 284.04504 120.074049 
L 284.647367 118.823757 
L 285.249695 115.5811 
L 285.852022 117.575903 
L 286.45435 114.470661 
L 287.056677 122.937627 
L 287.659005 117.001517 
L 288.261332 117.469069 
L 288.86366 114.403154 
L 289.465988 113.159312 
L 290.068315 106.487892 
L 290.670643 108.168912 
L 291.27297 115.056068 
L 291.875298 116.35433 
L 292.477625 120.249984 
L 293.079953 111.840208 
L 293.68228 111.782811 
L 294.284608 107.263582 
L 294.886935 111.973984 
L 295.489263 110.086759 
L 296.09159 105.347948 
L 296.693918 111.735028 
L 297.296246 116.418447 
L 297.898573 113.073505 
L 298.500901 114.840952 
L 299.103228 102.723057 
L 299.705556 102.914705 
L 300.307883 98.754044 
L 301.512538 105.812481 
L 302.114866 112.86666 
L 302.717193 115.437256 
L 303.319521 108.576483 
L 303.921849 104.917034 
L 304.524176 97.61381 
L 305.126504 100.42026 
L 305.728831 106.165218 
L 306.331159 105.069232 
L 306.933486 107.471378 
L 307.535814 95.993165 
L 308.138141 99.503144 
L 308.740469 101.470262 
L 309.342796 106.087021 
L 309.945124 109.294941 
L 310.547452 103.361539 
L 311.149779 100.515371 
L 311.752107 93.967326 
L 312.354434 94.845219 
L 312.956762 96.596518 
L 313.559089 103.887336 
L 314.161417 97.261756 
L 314.763744 97.949014 
L 315.366072 98.046068 
L 315.968399 100.656114 
L 316.570727 97.497693 
L 317.173054 97.027101 
L 317.775382 97.406407 
L 318.37771 90.916628 
L 318.980037 89.010423 
L 319.582365 94.857335 
L 320.184692 104.862325 
L 320.78702 95.899791 
L 321.389347 93.313895 
L 321.991675 93.417834 
L 322.594002 89.735725 
L 323.19633 89.885876 
L 323.798657 93.83963 
L 324.400985 91.737041 
L 325.003313 90.154564 
L 325.60564 93.693573 
L 326.207968 94.349217 
L 326.810295 93.299235 
L 328.01495 88.525213 
L 328.617278 90.409522 
L 329.219605 82.772729 
L 329.821933 91.276105 
L 330.42426 87.073988 
L 331.026588 94.804094 
L 331.628916 96.817506 
L 332.231243 88.301227 
L 332.833571 87.011236 
L 333.435898 85.248565 
L 334.038226 84.087387 
L 334.640553 88.358046 
L 335.242881 82.782095 
L 335.845208 84.230425 
L 336.447536 79.579778 
L 337.049863 91.045255 
L 337.652191 86.557185 
L 338.254518 98.723815 
L 338.856846 91.945478 
L 339.459174 80.952371 
L 340.061501 72.11011 
L 340.663829 80.971641 
L 341.266156 78.699714 
L 341.868484 79.927325 
L 342.470811 85.558047 
L 343.073139 84.503868 
L 343.675466 91.896682 
L 344.277794 77.792792 
L 344.880121 83.047061 
L 345.482449 75.183635 
L 346.084777 79.962578 
L 346.687104 77.278304 
L 347.289432 79.495998 
L 347.891759 77.596719 
L 348.494087 75.168913 
L 349.096414 81.085319 
L 349.698742 82.373512 
L 350.301069 88.79814 
L 350.903397 75.978843 
L 351.505724 76.745188 
L 352.108052 76.038143 
L 352.710379 72.991477 
L 353.312707 75.012828 
L 353.915035 81.778614 
L 354.517362 76.487438 
L 355.11969 83.79244 
L 355.722017 77.733885 
L 356.324345 79.642386 
L 356.926672 71.911866 
L 357.529 71.176412 
L 358.131327 78.490388 
L 358.733655 75.309863 
L 359.335982 77.405277 
L 359.93831 78.490346 
L 360.540638 84.136865 
L 361.142965 80.160946 
L 361.745293 72.307072 
L 362.34762 68.606251 
L 362.949948 70.173324 
L 363.552275 77.460752 
L 364.154603 77.525386 
L 364.75693 80.939676 
L 365.359258 79.587139 
L 365.961585 69.2315 
L 366.563913 69.493923 
L 367.166241 63.096195 
L 367.768568 63.524483 
L 368.973223 74.112191 
L 369.575551 66.867461 
L 370.177878 73.408827 
L 370.780206 69.62989 
L 371.382533 75.762466 
L 371.984861 74.126189 
L 372.587188 67.998886 
L 373.189516 65.874773 
L 373.791843 69.361265 
L 374.394171 72.150243 
L 374.996499 72.451744 
L 375.598826 73.634219 
L 376.201154 68.578772 
L 376.803481 59.23108 
L 377.405809 69.17522 
L 378.008136 76.706647 
L 378.610464 71.501422 
L 379.212791 64.906153 
L 379.815119 56.719412 
L 380.417446 73.211265 
L 381.019774 61.029335 
L 381.622102 60.735815 
L 382.224429 71.037406 
L 382.826757 65.349162 
L 383.429084 63.046655 
L 384.031412 64.138526 
L 384.633739 60.374849 
L 385.236067 54.148734 
L 385.838394 58.951827 
L 386.440722 65.76676 
L 387.043049 70.183952 
L 387.645377 65.859307 
L 388.247705 68.365827 
L 388.850032 61.442715 
L 390.054687 60.323159 
L 390.657015 63.211217 
L 391.259342 68.757125 
L 391.86167 64.965308 
L 392.463997 62.597153 
L 393.066325 65.991532 
L 393.668652 53.568 
L 394.27098 67.702058 
L 394.873307 58.558606 
L 395.475635 64.450407 
L 396.077963 66.378612 
L 397.282618 56.40625 
L 397.884945 53.755306 
L 398.487273 63.751467 
L 398.487273 63.751467 
" clip-path="url(#p95031ae3d6)" style="fill: none; stroke: #6495ed; stroke-width: 2; stroke-linecap: square"/>
   </g>
   <g id="line2d_26">
    <path d="M 73.832727 247.629252 
L 75.63971 247.765062 
L 78.651348 248.135356 
L 79.856003 248.275463 
L 81.060658 248.364011 
L 85.879278 248.76795 
L 88.288588 248.836387 
L 88.890916 248.995064 
L 90.095571 249.004607 
L 91.300226 249.20892 
L 91.902554 249.037224 
L 93.107209 249.208635 
L 95.516519 249.276361 
L 96.118846 249.436858 
L 99.130484 249.488734 
L 99.732812 249.699171 
L 100.937467 249.754323 
L 102.744449 249.70968 
L 103.346777 249.95301 
L 104.551432 249.978253 
L 105.756087 250.15569 
L 106.358415 249.993768 
L 106.960742 250.263739 
L 108.767725 250.316924 
L 109.370052 250.456407 
L 109.97238 250.247961 
L 110.574707 250.531251 
L 111.177035 250.486541 
L 111.779362 250.573267 
L 112.38169 250.474594 
L 112.984018 250.75932 
L 113.586345 250.61649 
L 114.188673 250.768701 
L 114.791 250.704021 
L 115.393328 250.791495 
L 115.995655 250.740945 
L 116.597983 250.941769 
L 117.20031 250.866341 
L 117.802638 251.051757 
L 118.404965 250.957585 
L 119.007293 251.108082 
L 119.609621 251.015576 
L 120.211948 251.263534 
L 120.814276 251.173198 
L 123.825913 251.489011 
L 124.428241 251.692812 
L 125.030568 251.575058 
L 125.632896 251.76203 
L 126.837551 251.807017 
L 127.439879 252.079925 
L 128.042206 251.957725 
L 129.246861 252.036819 
L 131.656171 252.496287 
L 132.258499 252.389547 
L 132.860826 252.649024 
L 133.463154 252.540113 
L 134.065482 252.585516 
L 134.667809 252.766479 
L 137.077119 252.866588 
L 138.281774 253.201679 
L 138.884102 253.127489 
L 139.486429 253.327227 
L 143.100395 253.696437 
L 143.702722 253.864041 
L 144.30505 253.908428 
L 145.509705 254.235756 
L 146.112032 254.096552 
L 147.919015 254.944974 
L 152.135308 255.519501 
L 152.737635 255.622716 
L 153.339963 255.108531 
L 153.94229 255.623493 
L 154.544618 255.636729 
L 155.146946 255.522156 
L 156.351601 255.800337 
L 156.953928 255.617613 
L 157.556256 256.064405 
L 158.158583 255.924361 
L 158.760911 256.170405 
L 159.363238 255.977559 
L 159.965566 256.297964 
L 160.567893 256.133007 
L 161.170221 256.567698 
L 161.772548 256.729954 
L 162.374876 256.674426 
L 163.579531 257.232349 
L 164.181859 257.084213 
L 164.784186 257.518136 
L 165.386514 257.414328 
L 165.988841 257.474223 
L 166.591169 257.931289 
L 167.193496 258.147218 
L 167.795824 257.842208 
L 168.398151 258.219724 
L 169.602807 258.577348 
L 170.205134 258.716302 
L 170.807462 259.114332 
L 171.409789 259.194446 
L 172.012117 258.947672 
L 172.614444 259.046606 
L 173.216772 259.29224 
L 173.819099 259.752752 
L 174.421427 260.061208 
L 175.023754 259.887114 
L 176.830737 259.745141 
L 177.433065 260.11779 
L 178.035392 259.922095 
L 178.63772 259.500508 
L 179.240047 259.454159 
L 179.842375 259.235264 
L 180.444702 259.563807 
L 181.04703 259.314693 
L 181.649357 259.80099 
L 182.251685 259.529675 
L 182.854012 259.902557 
L 184.058668 261.703773 
L 184.660995 262.124603 
L 185.263323 262.945463 
L 185.86565 263.024898 
L 186.467978 264.109631 
L 187.070305 264.451447 
L 188.877288 266.066429 
L 189.479615 266.384074 
L 190.081943 267.498755 
L 191.286598 268.018593 
L 191.888926 268.070055 
L 192.491253 268.801524 
L 193.093581 268.906775 
L 193.695908 270.237953 
L 194.298236 270.421321 
L 194.900563 271.29971 
L 195.502891 270.822079 
L 196.105218 271.238315 
L 196.707546 271.366312 
L 197.309874 272.525941 
L 198.514529 273.108046 
L 199.116856 272.993081 
L 199.719184 273.853634 
L 200.321511 272.978741 
L 200.923839 274.605966 
L 201.526166 274.722881 
L 202.128494 275.068548 
L 202.730821 274.643282 
L 203.333149 275.369825 
L 203.935476 275.330704 
L 204.537804 276.550071 
L 205.140132 275.228934 
L 205.742459 276.694448 
L 206.344787 276.976628 
L 206.947114 277.02825 
L 207.549442 276.298689 
L 208.151769 277.97381 
L 208.754097 277.879032 
L 209.356424 278.290897 
L 210.561079 278.015666 
L 211.163407 278.222763 
L 211.765735 279.323402 
L 212.97039 279.366891 
L 213.572717 278.670142 
L 214.175045 279.201173 
L 214.777372 278.449478 
L 215.3797 280.195232 
L 215.982027 280.841073 
L 217.186682 279.891252 
L 217.78901 279.865605 
L 218.391337 280.29254 
L 218.993665 281.614134 
L 219.595993 280.815585 
L 220.19832 281.593469 
L 220.800648 281.002881 
L 221.402975 281.580524 
L 222.005303 280.375249 
L 222.60763 282.249092 
L 223.209958 282.2721 
L 224.414613 281.468741 
L 225.01694 282.23231 
L 225.619268 281.868341 
L 226.221596 282.940867 
L 226.823923 283.512526 
L 227.426251 282.1943 
L 228.028578 282.979143 
L 228.630906 282.138015 
L 229.233233 282.407416 
L 229.835561 283.38526 
L 231.040216 283.329031 
L 231.642543 283.759402 
L 232.244871 283.251792 
L 232.847199 282.186385 
L 233.449526 284.235119 
L 234.051854 283.709294 
L 234.654181 283.799673 
L 235.256509 284.12631 
L 235.858836 283.569649 
L 236.461164 284.019245 
L 237.063491 283.902754 
L 237.665819 284.820871 
L 238.870474 284.092693 
L 239.472801 283.950885 
L 240.075129 284.873504 
L 240.677457 285.341976 
L 241.279784 285.093418 
L 241.882112 284.355688 
L 242.484439 284.922177 
L 243.086767 285.147779 
L 243.689094 284.376718 
L 244.291422 285.723439 
L 244.893749 285.635823 
L 246.098404 284.814818 
L 246.700732 285.801424 
L 247.30306 285.361426 
L 247.905387 285.289013 
L 248.507715 285.579955 
L 249.110042 286.235315 
L 249.71237 286.402838 
L 250.314697 286.058064 
L 250.917025 285.433591 
L 251.519352 285.343981 
L 252.12168 286.735619 
L 252.724007 286.388012 
L 253.326335 285.882145 
L 253.928663 287.016531 
L 254.53099 286.228779 
L 255.133318 286.354903 
L 255.735645 287.172167 
L 256.337973 286.977041 
L 256.9403 286.644616 
L 257.542628 287.248014 
L 258.144955 286.008387 
L 258.747283 287.75661 
L 259.34961 288.303469 
L 259.951938 287.907526 
L 260.554265 286.609229 
L 261.156593 287.314151 
L 262.963576 288.137257 
L 263.565903 287.24068 
L 264.770558 288.21303 
L 265.975213 287.408745 
L 266.577541 289.010098 
L 267.179868 287.814204 
L 267.782196 287.908265 
L 268.384524 288.226235 
L 268.986851 287.001556 
L 269.589179 288.595337 
L 270.191506 289.367772 
L 270.793834 287.441503 
L 271.396161 288.122628 
L 271.998489 289.124858 
L 273.203144 288.075302 
L 273.805471 289.132733 
L 274.407799 287.694462 
L 275.010126 288.645546 
L 275.612454 289.182891 
L 276.214782 288.63753 
L 276.817109 288.878082 
L 277.419437 289.799829 
L 278.021764 289.351017 
L 278.624092 289.508532 
L 279.226419 289.410372 
L 279.828747 289.169881 
L 280.431074 290.057349 
L 281.033402 289.458472 
L 281.635729 288.381494 
L 282.238057 288.638974 
L 282.840385 289.754174 
L 283.442712 288.429029 
L 284.04504 288.772401 
L 284.647367 289.372128 
L 285.852022 289.442385 
L 286.45435 290.705799 
L 287.056677 289.030116 
L 287.659005 289.655394 
L 288.261332 289.877896 
L 288.86366 289.720191 
L 289.465988 289.275129 
L 290.068315 290.305519 
L 290.670643 290.264251 
L 293.079953 289.60677 
L 293.68228 289.751691 
L 294.284608 289.684959 
L 294.886935 289.942286 
L 295.489263 291.176985 
L 296.09159 291.158873 
L 297.898573 290.036733 
L 298.500901 289.709713 
L 299.103228 291.165546 
L 299.705556 290.481842 
L 300.307883 290.507298 
L 300.910211 291.169118 
L 301.512538 290.924104 
L 302.114866 291.442093 
L 302.717193 290.237265 
L 303.319521 290.995412 
L 303.921849 291.025017 
L 304.524176 292.041352 
L 305.126504 290.979309 
L 305.728831 291.38926 
L 306.331159 291.166369 
L 306.933486 289.534853 
L 307.535814 291.294712 
L 308.138141 291.600986 
L 308.740469 290.999341 
L 309.342796 290.670139 
L 309.945124 291.182002 
L 310.547452 291.373279 
L 311.149779 291.383869 
L 311.752107 291.891714 
L 312.354434 290.719414 
L 312.956762 291.59764 
L 313.559089 291.155558 
L 314.161417 291.450745 
L 314.763744 292.316826 
L 315.366072 291.861541 
L 315.968399 290.95193 
L 317.173054 292.426118 
L 317.775382 291.290896 
L 318.37771 291.632651 
L 318.980037 293.228154 
L 319.582365 291.7996 
L 320.184692 290.852551 
L 320.78702 292.228782 
L 321.389347 292.422599 
L 321.991675 291.569328 
L 322.594002 292.451605 
L 323.19633 291.867152 
L 323.798657 292.063348 
L 324.400985 293.257165 
L 325.60564 291.886327 
L 326.207968 292.357606 
L 326.810295 291.396555 
L 327.412623 291.795977 
L 328.01495 292.329024 
L 328.617278 291.653895 
L 329.219605 292.408633 
L 329.821933 292.559778 
L 330.42426 292.073984 
L 331.026588 292.666833 
L 332.231243 292.735802 
L 332.833571 292.496633 
L 333.435898 293.049813 
L 334.038226 291.231435 
L 334.640553 292.22422 
L 335.242881 292.724575 
L 335.845208 291.828725 
L 336.447536 292.80284 
L 337.049863 292.340467 
L 337.652191 292.799648 
L 338.254518 292.408051 
L 338.856846 292.643874 
L 339.459174 293.425688 
L 340.061501 293.157309 
L 341.266156 292.471705 
L 341.868484 293.360221 
L 342.470811 293.639747 
L 343.073139 292.698938 
L 343.675466 292.54666 
L 344.277794 293.536198 
L 344.880121 292.197556 
L 345.482449 293.839686 
L 346.084777 292.851425 
L 346.687104 293.01682 
L 347.289432 292.414847 
L 347.891759 293.306569 
L 349.096414 293.284474 
L 349.698742 293.827407 
L 350.301069 292.701863 
L 350.903397 292.889658 
L 351.505724 293.578339 
L 352.108052 292.604114 
L 352.710379 294.158914 
L 353.312707 293.896178 
L 353.915035 293.317606 
L 354.517362 293.623224 
L 355.11969 293.206107 
L 355.722017 292.60138 
L 356.926672 293.786597 
L 357.529 293.198847 
L 358.131327 293.429124 
L 358.733655 293.300491 
L 359.335982 293.599631 
L 360.540638 293.337447 
L 361.745293 293.190988 
L 362.34762 294.169023 
L 362.949948 293.167365 
L 363.552275 294.128285 
L 364.154603 294.343928 
L 364.75693 293.58365 
L 365.359258 293.15182 
L 365.961585 294.378671 
L 366.563913 293.444577 
L 367.166241 294.41713 
L 367.768568 294.12219 
L 368.370896 294.046241 
L 368.973223 293.750771 
L 369.575551 294.291229 
L 370.177878 293.439229 
L 370.780206 294.355821 
L 371.382533 293.285339 
L 371.984861 293.259785 
L 372.587188 293.569776 
L 373.189516 294.027158 
L 373.791843 293.770688 
L 374.996499 293.763297 
L 376.201154 293.688301 
L 376.803481 294.909541 
L 377.405809 293.540831 
L 378.008136 293.65667 
L 378.610464 294.545453 
L 379.212791 294.284445 
L 379.815119 294.628096 
L 380.417446 294.204957 
L 381.019774 294.316034 
L 381.622102 294.885183 
L 382.224429 294.524436 
L 382.826757 295.04235 
L 383.429084 293.699801 
L 384.031412 294.343058 
L 384.633739 294.058222 
L 385.236067 295.488 
L 385.838394 294.6961 
L 386.440722 294.214024 
L 387.043049 294.523005 
L 387.645377 294.679193 
L 388.247705 294.000154 
L 388.850032 294.471966 
L 389.45236 294.280031 
L 390.054687 294.675887 
L 390.657015 294.417217 
L 391.259342 294.673373 
L 391.86167 294.041454 
L 392.463997 295.232349 
L 393.066325 294.648055 
L 393.668652 295.306348 
L 394.27098 293.951477 
L 394.873307 295.100807 
L 395.475635 294.166011 
L 396.077963 294.188794 
L 396.68029 295.13511 
L 397.282618 294.492694 
L 397.884945 295.107054 
L 398.487273 294.114286 
L 398.487273 294.114286 
" clip-path="url(#p95031ae3d6)" style="fill: none; stroke: #dc143c; stroke-width: 2; stroke-linecap: square"/>
   </g>
   <g id="line2d_27">
    <path d="M 73.832727 258.409638 
L 76.844365 258.409638 
L 77.446693 251.453162 
L 80.45833 251.453162 
L 81.060658 243.05304 
L 84.072295 243.05304 
L 84.674623 237.959683 
L 87.686261 237.959683 
L 88.288588 235.854011 
L 91.300226 235.854011 
L 91.902554 235.497185 
L 94.914191 235.497185 
L 95.516519 236.227439 
L 98.528157 236.227439 
L 99.130484 237.595724 
L 102.142122 237.595724 
L 102.744449 239.805811 
L 105.756087 239.805811 
L 106.358415 243.560845 
L 109.370052 243.560845 
L 109.97238 249.208053 
L 112.984018 249.208053 
L 113.586345 255.439854 
L 116.597983 255.439854 
L 117.20031 261.363987 
L 120.211948 261.363987 
L 120.814276 266.04669 
L 123.825913 266.04669 
L 124.428241 268.275325 
L 131.053844 268.340179 
L 131.656171 265.397633 
L 134.667809 265.397633 
L 135.270137 259.859639 
L 138.281774 259.859639 
L 138.884102 252.903422 
L 141.89574 252.903422 
L 142.498067 246.944916 
L 145.509705 246.944916 
L 146.112032 243.539054 
L 149.12367 243.539054 
L 149.725998 242.558724 
L 152.737635 242.558724 
L 153.339963 243.561623 
L 156.351601 243.561623 
L 156.953928 246.310905 
L 159.965566 246.310905 
L 160.567893 252.22998 
L 163.579531 252.22998 
L 164.181859 261.035179 
L 167.193496 261.035179 
L 167.795824 268.279995 
L 170.807462 268.279995 
L 171.409789 270.852355 
L 174.421427 270.852355 
L 175.023754 267.026242 
L 178.035392 267.026242 
L 178.63772 257.47302 
L 181.649357 257.47302 
L 182.251685 245.76328 
L 185.263323 245.76328 
L 185.86565 241.98412 
L 188.877288 241.98412 
L 189.479615 240.756308 
L 192.491253 240.756308 
L 193.093581 240.341763 
L 196.105218 240.341763 
L 196.707546 240.171586 
L 199.719184 240.171586 
L 200.321511 240.025536 
L 203.333149 240.025536 
L 203.935476 239.856916 
L 206.947114 239.856916 
L 207.549442 240.014121 
L 214.175045 240.077678 
L 215.3797 240.144867 
L 221.402975 240.213612 
L 222.005303 240.532433 
L 225.01694 240.532433 
L 225.619268 240.762534 
L 228.630906 240.762534 
L 229.233233 241.06605 
L 235.858836 241.073832 
L 236.461164 241.348293 
L 239.472801 241.348293 
L 240.075129 241.557641 
L 250.314697 241.499532 
L 250.917025 241.74001 
L 253.928663 241.74001 
L 254.53099 242.05935 
L 268.384524 242.152999 
L 268.986851 242.377912 
L 275.612454 242.466892 
L 276.214782 242.823069 
L 279.226419 242.823069 
L 279.828747 243.233723 
L 282.840385 243.233723 
L 283.442712 243.572778 
L 286.45435 243.572778 
L 287.056677 243.777976 
L 290.068315 243.777976 
L 290.670643 243.481464 
L 293.68228 243.481464 
L 294.284608 243.739323 
L 297.296246 243.739323 
L 297.898573 243.394819 
L 300.910211 243.394819 
L 301.512538 243.628812 
L 304.524176 243.628812 
L 305.126504 243.894453 
L 308.138141 243.894453 
L 308.740469 244.055809 
L 311.752107 244.055809 
L 312.354434 244.273459 
L 315.366072 244.273459 
L 315.968399 244.700456 
L 318.980037 244.700456 
L 319.582365 244.541175 
L 322.594002 244.541175 
L 323.19633 244.695268 
L 326.207968 244.695268 
L 326.810295 244.815636 
L 329.821933 244.815636 
L 330.42426 245.053779 
L 333.435898 245.053779 
L 334.038226 244.899946 
L 337.049863 244.899946 
L 337.652191 245.632794 
L 340.663829 245.632794 
L 341.266156 245.904661 
L 344.277794 245.904661 
L 345.482449 245.793112 
L 347.891759 245.793112 
L 348.494087 245.674041 
L 351.505724 245.674041 
L 352.108052 246.027624 
L 355.11969 246.027624 
L 355.722017 245.802451 
L 358.733655 245.802451 
L 359.335982 245.505162 
L 362.34762 245.505162 
L 362.949948 246.360972 
L 365.961585 246.360972 
L 366.563913 246.236972 
L 369.575551 246.236972 
L 370.177878 246.058754 
L 373.189516 246.058754 
L 373.791843 246.185348 
L 376.803481 246.185348 
L 377.405809 247.286825 
L 380.417446 247.286825 
L 381.019774 246.959962 
L 387.645377 247.022481 
L 388.247705 247.207963 
L 391.259342 247.207963 
L 391.86167 247.542349 
L 394.873307 247.542349 
L 395.475635 247.835747 
L 398.487273 247.835747 
L 398.487273 247.835747 
" clip-path="url(#p95031ae3d6)" style="fill: none; stroke: #ffff00; stroke-width: 3; stroke-linecap: square"/>
   </g>
   <g id="patch_3">
    <path d="M 57.6 307.584 
L 57.6 41.472 
" style="fill: none; stroke: #ffffff; stroke-linejoin: miter; stroke-linecap: square"/>
   </g>
   <g id="patch_4">
    <path d="M 414.72 307.584 
L 414.72 41.472 
" style="fill: none; stroke: #ffffff; stroke-linejoin: miter; stroke-linecap: square"/>
   </g>
   <g id="patch_5">
    <path d="M 57.6 307.584 
L 414.72 307.584 
" style="fill: none; stroke: #ffffff; stroke-linejoin: miter; stroke-linecap: square"/>
   </g>
   <g id="patch_6">
    <path d="M 57.6 41.472 
L 414.72 41.472 
" style="fill: none; stroke: #ffffff; stroke-linejoin: miter; stroke-linecap: square"/>
   </g>
   <g id="legend_1">
    <g id="patch_7">
     <path d="M 243.124687 302.584 
L 407.72 302.584 
Q 409.72 302.584 409.72 300.584 
L 409.72 257.549625 
Q 409.72 255.549625 407.72 255.549625 
L 243.124687 255.549625 
Q 241.124687 255.549625 241.124687 257.549625 
L 241.124687 300.584 
Q 241.124687 302.584 243.124687 302.584 
z
" style="fill: #e5e5e5; opacity: 0.8; stroke: #cccccc; stroke-width: 0.5; stroke-linejoin: miter"/>
    </g>
    <g id="line2d_28">
     <path d="M 245.124687 263.648062 
L 255.124687 263.648062 
L 265.124687 263.648062 
" style="fill: none; stroke: #6495ed; stroke-width: 2; stroke-linecap: square"/>
    </g>
    <g id="text_15">
     <!-- Generator loss -->
     <g transform="translate(273.124687 267.148062) scale(0.1 -0.1)">
      <defs>
       <path id="DejaVuSans-47" d="M 3809 666 
L 3809 1919 
L 2778 1919 
L 2778 2438 
L 4434 2438 
L 4434 434 
Q 4069 175 3628 42 
Q 3188 -91 2688 -91 
Q 1594 -91 976 548 
Q 359 1188 359 2328 
Q 359 3472 976 4111 
Q 1594 4750 2688 4750 
Q 3144 4750 3555 4637 
Q 3966 4525 4313 4306 
L 4313 3634 
Q 3963 3931 3569 4081 
Q 3175 4231 2741 4231 
Q 1884 4231 1454 3753 
Q 1025 3275 1025 2328 
Q 1025 1384 1454 906 
Q 1884 428 2741 428 
Q 3075 428 3337 486 
Q 3600 544 3809 666 
z
" transform="scale(0.015625)"/>
       <path id="DejaVuSans-65" d="M 3597 1894 
L 3597 1613 
L 953 1613 
Q 991 1019 1311 708 
Q 1631 397 2203 397 
Q 2534 397 2845 478 
Q 3156 559 3463 722 
L 3463 178 
Q 3153 47 2828 -22 
Q 2503 -91 2169 -91 
Q 1331 -91 842 396 
Q 353 884 353 1716 
Q 353 2575 817 3079 
Q 1281 3584 2069 3584 
Q 2775 3584 3186 3129 
Q 3597 2675 3597 1894 
z
M 3022 2063 
Q 3016 2534 2758 2815 
Q 2500 3097 2075 3097 
Q 1594 3097 1305 2825 
Q 1016 2553 972 2059 
L 3022 2063 
z
" transform="scale(0.015625)"/>
       <path id="DejaVuSans-6e" d="M 3513 2113 
L 3513 0 
L 2938 0 
L 2938 2094 
Q 2938 2591 2744 2837 
Q 2550 3084 2163 3084 
Q 1697 3084 1428 2787 
Q 1159 2491 1159 1978 
L 1159 0 
L 581 0 
L 581 3500 
L 1159 3500 
L 1159 2956 
Q 1366 3272 1645 3428 
Q 1925 3584 2291 3584 
Q 2894 3584 3203 3211 
Q 3513 2838 3513 2113 
z
" transform="scale(0.015625)"/>
       <path id="DejaVuSans-72" d="M 2631 2963 
Q 2534 3019 2420 3045 
Q 2306 3072 2169 3072 
Q 1681 3072 1420 2755 
Q 1159 2438 1159 1844 
L 1159 0 
L 581 0 
L 581 3500 
L 1159 3500 
L 1159 2956 
Q 1341 3275 1631 3429 
Q 1922 3584 2338 3584 
Q 2397 3584 2469 3576 
Q 2541 3569 2628 3553 
L 2631 2963 
z
" transform="scale(0.015625)"/>
       <path id="DejaVuSans-61" d="M 2194 1759 
Q 1497 1759 1228 1600 
Q 959 1441 959 1056 
Q 959 750 1161 570 
Q 1363 391 1709 391 
Q 2188 391 2477 730 
Q 2766 1069 2766 1631 
L 2766 1759 
L 2194 1759 
z
M 3341 1997 
L 3341 0 
L 2766 0 
L 2766 531 
Q 2569 213 2275 61 
Q 1981 -91 1556 -91 
Q 1019 -91 701 211 
Q 384 513 384 1019 
Q 384 1609 779 1909 
Q 1175 2209 1959 2209 
L 2766 2209 
L 2766 2266 
Q 2766 2663 2505 2880 
Q 2244 3097 1772 3097 
Q 1472 3097 1187 3025 
Q 903 2953 641 2809 
L 641 3341 
Q 956 3463 1253 3523 
Q 1550 3584 1831 3584 
Q 2591 3584 2966 3190 
Q 3341 2797 3341 1997 
z
" transform="scale(0.015625)"/>
       <path id="DejaVuSans-74" d="M 1172 4494 
L 1172 3500 
L 2356 3500 
L 2356 3053 
L 1172 3053 
L 1172 1153 
Q 1172 725 1289 603 
Q 1406 481 1766 481 
L 2356 481 
L 2356 0 
L 1766 0 
Q 1100 0 847 248 
Q 594 497 594 1153 
L 594 3053 
L 172 3053 
L 172 3500 
L 594 3500 
L 594 4494 
L 1172 4494 
z
" transform="scale(0.015625)"/>
       <path id="DejaVuSans-20" transform="scale(0.015625)"/>
       <path id="DejaVuSans-6c" d="M 603 4863 
L 1178 4863 
L 1178 0 
L 603 0 
L 603 4863 
z
" transform="scale(0.015625)"/>
      </defs>
      <use xlink:href="#DejaVuSans-47"/>
      <use xlink:href="#DejaVuSans-65" x="77.490234"/>
      <use xlink:href="#DejaVuSans-6e" x="139.013672"/>
      <use xlink:href="#DejaVuSans-65" x="202.392578"/>
      <use xlink:href="#DejaVuSans-72" x="263.916016"/>
      <use xlink:href="#DejaVuSans-61" x="305.029297"/>
      <use xlink:href="#DejaVuSans-74" x="366.308594"/>
      <use xlink:href="#DejaVuSans-6f" x="405.517578"/>
      <use xlink:href="#DejaVuSans-72" x="466.699219"/>
      <use xlink:href="#DejaVuSans-20" x="507.8125"/>
      <use xlink:href="#DejaVuSans-6c" x="539.599609"/>
      <use xlink:href="#DejaVuSans-6f" x="567.382812"/>
      <use xlink:href="#DejaVuSans-73" x="628.564453"/>
      <use xlink:href="#DejaVuSans-73" x="680.664062"/>
     </g>
    </g>
    <g id="line2d_29">
     <path d="M 245.124687 278.326188 
L 255.124687 278.326188 
L 265.124687 278.326188 
" style="fill: none; stroke: #dc143c; stroke-width: 2; stroke-linecap: square"/>
    </g>
    <g id="text_16">
     <!-- Average discriminator loss -->
     <g transform="translate(273.124687 281.826188) scale(0.1 -0.1)">
      <defs>
       <path id="DejaVuSans-41" d="M 2188 4044 
L 1331 1722 
L 3047 1722 
L 2188 4044 
z
M 1831 4666 
L 2547 4666 
L 4325 0 
L 3669 0 
L 3244 1197 
L 1141 1197 
L 716 0 
L 50 0 
L 1831 4666 
z
" transform="scale(0.015625)"/>
       <path id="DejaVuSans-76" d="M 191 3500 
L 800 3500 
L 1894 563 
L 2988 3500 
L 3597 3500 
L 2284 0 
L 1503 0 
L 191 3500 
z
" transform="scale(0.015625)"/>
       <path id="DejaVuSans-67" d="M 2906 1791 
Q 2906 2416 2648 2759 
Q 2391 3103 1925 3103 
Q 1463 3103 1205 2759 
Q 947 2416 947 1791 
Q 947 1169 1205 825 
Q 1463 481 1925 481 
Q 2391 481 2648 825 
Q 2906 1169 2906 1791 
z
M 3481 434 
Q 3481 -459 3084 -895 
Q 2688 -1331 1869 -1331 
Q 1566 -1331 1297 -1286 
Q 1028 -1241 775 -1147 
L 775 -588 
Q 1028 -725 1275 -790 
Q 1522 -856 1778 -856 
Q 2344 -856 2625 -561 
Q 2906 -266 2906 331 
L 2906 616 
Q 2728 306 2450 153 
Q 2172 0 1784 0 
Q 1141 0 747 490 
Q 353 981 353 1791 
Q 353 2603 747 3093 
Q 1141 3584 1784 3584 
Q 2172 3584 2450 3431 
Q 2728 3278 2906 2969 
L 2906 3500 
L 3481 3500 
L 3481 434 
z
" transform="scale(0.015625)"/>
       <path id="DejaVuSans-64" d="M 2906 2969 
L 2906 4863 
L 3481 4863 
L 3481 0 
L 2906 0 
L 2906 525 
Q 2725 213 2448 61 
Q 2172 -91 1784 -91 
Q 1150 -91 751 415 
Q 353 922 353 1747 
Q 353 2572 751 3078 
Q 1150 3584 1784 3584 
Q 2172 3584 2448 3432 
Q 2725 3281 2906 2969 
z
M 947 1747 
Q 947 1113 1208 752 
Q 1469 391 1925 391 
Q 2381 391 2643 752 
Q 2906 1113 2906 1747 
Q 2906 2381 2643 2742 
Q 2381 3103 1925 3103 
Q 1469 3103 1208 2742 
Q 947 2381 947 1747 
z
" transform="scale(0.015625)"/>
       <path id="DejaVuSans-69" d="M 603 3500 
L 1178 3500 
L 1178 0 
L 603 0 
L 603 3500 
z
M 603 4863 
L 1178 4863 
L 1178 4134 
L 603 4134 
L 603 4863 
z
" transform="scale(0.015625)"/>
       <path id="DejaVuSans-6d" d="M 3328 2828 
Q 3544 3216 3844 3400 
Q 4144 3584 4550 3584 
Q 5097 3584 5394 3201 
Q 5691 2819 5691 2113 
L 5691 0 
L 5113 0 
L 5113 2094 
Q 5113 2597 4934 2840 
Q 4756 3084 4391 3084 
Q 3944 3084 3684 2787 
Q 3425 2491 3425 1978 
L 3425 0 
L 2847 0 
L 2847 2094 
Q 2847 2600 2669 2842 
Q 2491 3084 2119 3084 
Q 1678 3084 1418 2786 
Q 1159 2488 1159 1978 
L 1159 0 
L 581 0 
L 581 3500 
L 1159 3500 
L 1159 2956 
Q 1356 3278 1631 3431 
Q 1906 3584 2284 3584 
Q 2666 3584 2933 3390 
Q 3200 3197 3328 2828 
z
" transform="scale(0.015625)"/>
      </defs>
      <use xlink:href="#DejaVuSans-41"/>
      <use xlink:href="#DejaVuSans-76" x="62.533203"/>
      <use xlink:href="#DejaVuSans-65" x="121.712891"/>
      <use xlink:href="#DejaVuSans-72" x="183.236328"/>
      <use xlink:href="#DejaVuSans-61" x="224.349609"/>
      <use xlink:href="#DejaVuSans-67" x="285.628906"/>
      <use xlink:href="#DejaVuSans-65" x="349.105469"/>
      <use xlink:href="#DejaVuSans-20" x="410.628906"/>
      <use xlink:href="#DejaVuSans-64" x="442.416016"/>
      <use xlink:href="#DejaVuSans-69" x="505.892578"/>
      <use xlink:href="#DejaVuSans-73" x="533.675781"/>
      <use xlink:href="#DejaVuSans-63" x="585.775391"/>
      <use xlink:href="#DejaVuSans-72" x="640.755859"/>
      <use xlink:href="#DejaVuSans-69" x="681.869141"/>
      <use xlink:href="#DejaVuSans-6d" x="709.652344"/>
      <use xlink:href="#DejaVuSans-69" x="807.064453"/>
      <use xlink:href="#DejaVuSans-6e" x="834.847656"/>
      <use xlink:href="#DejaVuSans-61" x="898.226562"/>
      <use xlink:href="#DejaVuSans-74" x="959.505859"/>
      <use xlink:href="#DejaVuSans-6f" x="998.714844"/>
      <use xlink:href="#DejaVuSans-72" x="1059.896484"/>
      <use xlink:href="#DejaVuSans-20" x="1101.009766"/>
      <use xlink:href="#DejaVuSans-6c" x="1132.796875"/>
      <use xlink:href="#DejaVuSans-6f" x="1160.580078"/>
      <use xlink:href="#DejaVuSans-73" x="1221.761719"/>
      <use xlink:href="#DejaVuSans-73" x="1273.861328"/>
     </g>
    </g>
    <g id="line2d_30">
     <path d="M 245.124687 293.004312 
L 255.124687 293.004312 
L 265.124687 293.004312 
" style="fill: none; stroke: #ffff00; stroke-width: 3; stroke-linecap: square"/>
    </g>
    <g id="text_17">
     <!-- ROC AUC -->
     <g transform="translate(273.124687 296.504312) scale(0.1 -0.1)">
      <defs>
       <path id="DejaVuSans-52" d="M 2841 2188 
Q 3044 2119 3236 1894 
Q 3428 1669 3622 1275 
L 4263 0 
L 3584 0 
L 2988 1197 
Q 2756 1666 2539 1819 
Q 2322 1972 1947 1972 
L 1259 1972 
L 1259 0 
L 628 0 
L 628 4666 
L 2053 4666 
Q 2853 4666 3247 4331 
Q 3641 3997 3641 3322 
Q 3641 2881 3436 2590 
Q 3231 2300 2841 2188 
z
M 1259 4147 
L 1259 2491 
L 2053 2491 
Q 2509 2491 2742 2702 
Q 2975 2913 2975 3322 
Q 2975 3731 2742 3939 
Q 2509 4147 2053 4147 
L 1259 4147 
z
" transform="scale(0.015625)"/>
       <path id="DejaVuSans-4f" d="M 2522 4238 
Q 1834 4238 1429 3725 
Q 1025 3213 1025 2328 
Q 1025 1447 1429 934 
Q 1834 422 2522 422 
Q 3209 422 3611 934 
Q 4013 1447 4013 2328 
Q 4013 3213 3611 3725 
Q 3209 4238 2522 4238 
z
M 2522 4750 
Q 3503 4750 4090 4092 
Q 4678 3434 4678 2328 
Q 4678 1225 4090 567 
Q 3503 -91 2522 -91 
Q 1538 -91 948 565 
Q 359 1222 359 2328 
Q 359 3434 948 4092 
Q 1538 4750 2522 4750 
z
" transform="scale(0.015625)"/>
       <path id="DejaVuSans-43" d="M 4122 4306 
L 4122 3641 
Q 3803 3938 3442 4084 
Q 3081 4231 2675 4231 
Q 1875 4231 1450 3742 
Q 1025 3253 1025 2328 
Q 1025 1406 1450 917 
Q 1875 428 2675 428 
Q 3081 428 3442 575 
Q 3803 722 4122 1019 
L 4122 359 
Q 3791 134 3420 21 
Q 3050 -91 2638 -91 
Q 1578 -91 968 557 
Q 359 1206 359 2328 
Q 359 3453 968 4101 
Q 1578 4750 2638 4750 
Q 3056 4750 3426 4639 
Q 3797 4528 4122 4306 
z
" transform="scale(0.015625)"/>
       <path id="DejaVuSans-55" d="M 556 4666 
L 1191 4666 
L 1191 1831 
Q 1191 1081 1462 751 
Q 1734 422 2344 422 
Q 2950 422 3222 751 
Q 3494 1081 3494 1831 
L 3494 4666 
L 4128 4666 
L 4128 1753 
Q 4128 841 3676 375 
Q 3225 -91 2344 -91 
Q 1459 -91 1007 375 
Q 556 841 556 1753 
L 556 4666 
z
" transform="scale(0.015625)"/>
      </defs>
      <use xlink:href="#DejaVuSans-52"/>
      <use xlink:href="#DejaVuSans-4f" x="69.482422"/>
      <use xlink:href="#DejaVuSans-43" x="148.193359"/>
      <use xlink:href="#DejaVuSans-20" x="218.017578"/>
      <use xlink:href="#DejaVuSans-41" x="249.804688"/>
      <use xlink:href="#DejaVuSans-55" x="318.212891"/>
      <use xlink:href="#DejaVuSans-43" x="391.40625"/>
     </g>
    </g>
   </g>
  </g>
 </g>
 <defs>
  <clipPath id="p95031ae3d6">
   <rect x="57.6" y="41.472" width="357.12" height="266.112"/>
  </clipPath>
 </defs>
</svg>
