<?xml version="1.0" encoding="utf-8" standalone="no"?>
<!DOCTYPE svg PUBLIC "-//W3C//DTD SVG 1.1//EN"
  "http://www.w3.org/Graphics/SVG/1.1/DTD/svg11.dtd">
<svg xmlns:xlink="http://www.w3.org/1999/xlink" width="460.8pt" height="345.6pt" viewBox="0 0 460.8 345.6" xmlns="http://www.w3.org/2000/svg" version="1.1">
 <metadata>
  <rdf:RDF xmlns:dc="http://purl.org/dc/elements/1.1/" xmlns:cc="http://creativecommons.org/ns#" xmlns:rdf="http://www.w3.org/1999/02/22-rdf-syntax-ns#">
   <cc:Work>
    <dc:type rdf:resource="http://purl.org/dc/dcmitype/StillImage"/>
    <dc:date>2023-07-06T13:40:00.178859</dc:date>
    <dc:format>image/svg+xml</dc:format>
    <dc:creator>
     <cc:Agent>
      <dc:title>Matplotlib v3.7.1, https://matplotlib.org/</dc:title>
     </cc:Agent>
    </dc:creator>
   </cc:Work>
  </rdf:RDF>
 </metadata>
 <defs>
  <style type="text/css">*{stroke-linejoin: round; stroke-linecap: butt}</style>
 </defs>
 <g id="figure_1">
  <g id="patch_1">
   <path d="M 0 345.6 
L 460.8 345.6 
L 460.8 0 
L 0 0 
z
" style="fill: #ffffff"/>
  </g>
  <g id="axes_1">
   <g id="patch_2">
    <path d="M 57.6 307.584 
L 414.72 307.584 
L 414.72 41.472 
L 57.6 41.472 
z
" style="fill: #e5e5e5"/>
   </g>
   <g id="matplotlib.axis_1">
    <g id="xtick_1">
     <g id="line2d_1">
      <path d="M 73.2304 307.584 
L 73.2304 41.472 
" clip-path="url(#pb6835f37b0)" style="fill: none; stroke: #ffffff; stroke-width: 0.8; stroke-linecap: square"/>
     </g>
     <g id="line2d_2">
      <defs>
       <path id="m5b7449720f" d="M 0 0 
L 0 3.5 
" style="stroke: #555555; stroke-width: 0.8"/>
      </defs>
      <g>
       <use xlink:href="#m5b7449720f" x="73.2304" y="307.584" style="fill: #555555; stroke: #555555; stroke-width: 0.8"/>
      </g>
     </g>
     <g id="text_1">
      <!-- 0 -->
      <g style="fill: #555555" transform="translate(70.04915 322.182437) scale(0.1 -0.1)">
       <defs>
        <path id="DejaVuSans-30" d="M 2034 4250 
Q 1547 4250 1301 3770 
Q 1056 3291 1056 2328 
Q 1056 1369 1301 889 
Q 1547 409 2034 409 
Q 2525 409 2770 889 
Q 3016 1369 3016 2328 
Q 3016 3291 2770 3770 
Q 2525 4250 2034 4250 
z
M 2034 4750 
Q 2819 4750 3233 4129 
Q 3647 3509 3647 2328 
Q 3647 1150 3233 529 
Q 2819 -91 2034 -91 
Q 1250 -91 836 529 
Q 422 1150 422 2328 
Q 422 3509 836 4129 
Q 1250 4750 2034 4750 
z
" transform="scale(0.015625)"/>
       </defs>
       <use xlink:href="#DejaVuSans-30"/>
      </g>
     </g>
    </g>
    <g id="xtick_2">
     <g id="line2d_3">
      <path d="M 133.463154 307.584 
L 133.463154 41.472 
" clip-path="url(#pb6835f37b0)" style="fill: none; stroke: #ffffff; stroke-width: 0.8; stroke-linecap: square"/>
     </g>
     <g id="line2d_4">
      <g>
       <use xlink:href="#m5b7449720f" x="133.463154" y="307.584" style="fill: #555555; stroke: #555555; stroke-width: 0.8"/>
      </g>
     </g>
     <g id="text_2">
      <!-- 100 -->
      <g style="fill: #555555" transform="translate(123.919404 322.182437) scale(0.1 -0.1)">
       <defs>
        <path id="DejaVuSans-31" d="M 794 531 
L 1825 531 
L 1825 4091 
L 703 3866 
L 703 4441 
L 1819 4666 
L 2450 4666 
L 2450 531 
L 3481 531 
L 3481 0 
L 794 0 
L 794 531 
z
" transform="scale(0.015625)"/>
       </defs>
       <use xlink:href="#DejaVuSans-31"/>
       <use xlink:href="#DejaVuSans-30" x="63.623047"/>
       <use xlink:href="#DejaVuSans-30" x="127.246094"/>
      </g>
     </g>
    </g>
    <g id="xtick_3">
     <g id="line2d_5">
      <path d="M 193.695908 307.584 
L 193.695908 41.472 
" clip-path="url(#pb6835f37b0)" style="fill: none; stroke: #ffffff; stroke-width: 0.8; stroke-linecap: square"/>
     </g>
     <g id="line2d_6">
      <g>
       <use xlink:href="#m5b7449720f" x="193.695908" y="307.584" style="fill: #555555; stroke: #555555; stroke-width: 0.8"/>
      </g>
     </g>
     <g id="text_3">
      <!-- 200 -->
      <g style="fill: #555555" transform="translate(184.152158 322.182437) scale(0.1 -0.1)">
       <defs>
        <path id="DejaVuSans-32" d="M 1228 531 
L 3431 531 
L 3431 0 
L 469 0 
L 469 531 
Q 828 903 1448 1529 
Q 2069 2156 2228 2338 
Q 2531 2678 2651 2914 
Q 2772 3150 2772 3378 
Q 2772 3750 2511 3984 
Q 2250 4219 1831 4219 
Q 1534 4219 1204 4116 
Q 875 4013 500 3803 
L 500 4441 
Q 881 4594 1212 4672 
Q 1544 4750 1819 4750 
Q 2544 4750 2975 4387 
Q 3406 4025 3406 3419 
Q 3406 3131 3298 2873 
Q 3191 2616 2906 2266 
Q 2828 2175 2409 1742 
Q 1991 1309 1228 531 
z
" transform="scale(0.015625)"/>
       </defs>
       <use xlink:href="#DejaVuSans-32"/>
       <use xlink:href="#DejaVuSans-30" x="63.623047"/>
       <use xlink:href="#DejaVuSans-30" x="127.246094"/>
      </g>
     </g>
    </g>
    <g id="xtick_4">
     <g id="line2d_7">
      <path d="M 253.928663 307.584 
L 253.928663 41.472 
" clip-path="url(#pb6835f37b0)" style="fill: none; stroke: #ffffff; stroke-width: 0.8; stroke-linecap: square"/>
     </g>
     <g id="line2d_8">
      <g>
       <use xlink:href="#m5b7449720f" x="253.928663" y="307.584" style="fill: #555555; stroke: #555555; stroke-width: 0.8"/>
      </g>
     </g>
     <g id="text_4">
      <!-- 300 -->
      <g style="fill: #555555" transform="translate(244.384913 322.182437) scale(0.1 -0.1)">
       <defs>
        <path id="DejaVuSans-33" d="M 2597 2516 
Q 3050 2419 3304 2112 
Q 3559 1806 3559 1356 
Q 3559 666 3084 287 
Q 2609 -91 1734 -91 
Q 1441 -91 1130 -33 
Q 819 25 488 141 
L 488 750 
Q 750 597 1062 519 
Q 1375 441 1716 441 
Q 2309 441 2620 675 
Q 2931 909 2931 1356 
Q 2931 1769 2642 2001 
Q 2353 2234 1838 2234 
L 1294 2234 
L 1294 2753 
L 1863 2753 
Q 2328 2753 2575 2939 
Q 2822 3125 2822 3475 
Q 2822 3834 2567 4026 
Q 2313 4219 1838 4219 
Q 1578 4219 1281 4162 
Q 984 4106 628 3988 
L 628 4550 
Q 988 4650 1302 4700 
Q 1616 4750 1894 4750 
Q 2613 4750 3031 4423 
Q 3450 4097 3450 3541 
Q 3450 3153 3228 2886 
Q 3006 2619 2597 2516 
z
" transform="scale(0.015625)"/>
       </defs>
       <use xlink:href="#DejaVuSans-33"/>
       <use xlink:href="#DejaVuSans-30" x="63.623047"/>
       <use xlink:href="#DejaVuSans-30" x="127.246094"/>
      </g>
     </g>
    </g>
    <g id="xtick_5">
     <g id="line2d_9">
      <path d="M 314.161417 307.584 
L 314.161417 41.472 
" clip-path="url(#pb6835f37b0)" style="fill: none; stroke: #ffffff; stroke-width: 0.8; stroke-linecap: square"/>
     </g>
     <g id="line2d_10">
      <g>
       <use xlink:href="#m5b7449720f" x="314.161417" y="307.584" style="fill: #555555; stroke: #555555; stroke-width: 0.8"/>
      </g>
     </g>
     <g id="text_5">
      <!-- 400 -->
      <g style="fill: #555555" transform="translate(304.617667 322.182437) scale(0.1 -0.1)">
       <defs>
        <path id="DejaVuSans-34" d="M 2419 4116 
L 825 1625 
L 2419 1625 
L 2419 4116 
z
M 2253 4666 
L 3047 4666 
L 3047 1625 
L 3713 1625 
L 3713 1100 
L 3047 1100 
L 3047 0 
L 2419 0 
L 2419 1100 
L 313 1100 
L 313 1709 
L 2253 4666 
z
" transform="scale(0.015625)"/>
       </defs>
       <use xlink:href="#DejaVuSans-34"/>
       <use xlink:href="#DejaVuSans-30" x="63.623047"/>
       <use xlink:href="#DejaVuSans-30" x="127.246094"/>
      </g>
     </g>
    </g>
    <g id="xtick_6">
     <g id="line2d_11">
      <path d="M 374.394171 307.584 
L 374.394171 41.472 
" clip-path="url(#pb6835f37b0)" style="fill: none; stroke: #ffffff; stroke-width: 0.8; stroke-linecap: square"/>
     </g>
     <g id="line2d_12">
      <g>
       <use xlink:href="#m5b7449720f" x="374.394171" y="307.584" style="fill: #555555; stroke: #555555; stroke-width: 0.8"/>
      </g>
     </g>
     <g id="text_6">
      <!-- 500 -->
      <g style="fill: #555555" transform="translate(364.850421 322.182437) scale(0.1 -0.1)">
       <defs>
        <path id="DejaVuSans-35" d="M 691 4666 
L 3169 4666 
L 3169 4134 
L 1269 4134 
L 1269 2991 
Q 1406 3038 1543 3061 
Q 1681 3084 1819 3084 
Q 2600 3084 3056 2656 
Q 3513 2228 3513 1497 
Q 3513 744 3044 326 
Q 2575 -91 1722 -91 
Q 1428 -91 1123 -41 
Q 819 9 494 109 
L 494 744 
Q 775 591 1075 516 
Q 1375 441 1709 441 
Q 2250 441 2565 725 
Q 2881 1009 2881 1497 
Q 2881 1984 2565 2268 
Q 2250 2553 1709 2553 
Q 1456 2553 1204 2497 
Q 953 2441 691 2322 
L 691 4666 
z
" transform="scale(0.015625)"/>
       </defs>
       <use xlink:href="#DejaVuSans-35"/>
       <use xlink:href="#DejaVuSans-30" x="63.623047"/>
       <use xlink:href="#DejaVuSans-30" x="127.246094"/>
      </g>
     </g>
    </g>
    <g id="text_7">
     <!-- Epoch -->
     <g style="fill: #555555" transform="translate(217.786875 337.38025) scale(0.12 -0.12)">
      <defs>
       <path id="DejaVuSans-45" d="M 628 4666 
L 3578 4666 
L 3578 4134 
L 1259 4134 
L 1259 2753 
L 3481 2753 
L 3481 2222 
L 1259 2222 
L 1259 531 
L 3634 531 
L 3634 0 
L 628 0 
L 628 4666 
z
" transform="scale(0.015625)"/>
       <path id="DejaVuSans-70" d="M 1159 525 
L 1159 -1331 
L 581 -1331 
L 581 3500 
L 1159 3500 
L 1159 2969 
Q 1341 3281 1617 3432 
Q 1894 3584 2278 3584 
Q 2916 3584 3314 3078 
Q 3713 2572 3713 1747 
Q 3713 922 3314 415 
Q 2916 -91 2278 -91 
Q 1894 -91 1617 61 
Q 1341 213 1159 525 
z
M 3116 1747 
Q 3116 2381 2855 2742 
Q 2594 3103 2138 3103 
Q 1681 3103 1420 2742 
Q 1159 2381 1159 1747 
Q 1159 1113 1420 752 
Q 1681 391 2138 391 
Q 2594 391 2855 752 
Q 3116 1113 3116 1747 
z
" transform="scale(0.015625)"/>
       <path id="DejaVuSans-6f" d="M 1959 3097 
Q 1497 3097 1228 2736 
Q 959 2375 959 1747 
Q 959 1119 1226 758 
Q 1494 397 1959 397 
Q 2419 397 2687 759 
Q 2956 1122 2956 1747 
Q 2956 2369 2687 2733 
Q 2419 3097 1959 3097 
z
M 1959 3584 
Q 2709 3584 3137 3096 
Q 3566 2609 3566 1747 
Q 3566 888 3137 398 
Q 2709 -91 1959 -91 
Q 1206 -91 779 398 
Q 353 888 353 1747 
Q 353 2609 779 3096 
Q 1206 3584 1959 3584 
z
" transform="scale(0.015625)"/>
       <path id="DejaVuSans-63" d="M 3122 3366 
L 3122 2828 
Q 2878 2963 2633 3030 
Q 2388 3097 2138 3097 
Q 1578 3097 1268 2742 
Q 959 2388 959 1747 
Q 959 1106 1268 751 
Q 1578 397 2138 397 
Q 2388 397 2633 464 
Q 2878 531 3122 666 
L 3122 134 
Q 2881 22 2623 -34 
Q 2366 -91 2075 -91 
Q 1284 -91 818 406 
Q 353 903 353 1747 
Q 353 2603 823 3093 
Q 1294 3584 2113 3584 
Q 2378 3584 2631 3529 
Q 2884 3475 3122 3366 
z
" transform="scale(0.015625)"/>
       <path id="DejaVuSans-68" d="M 3513 2113 
L 3513 0 
L 2938 0 
L 2938 2094 
Q 2938 2591 2744 2837 
Q 2550 3084 2163 3084 
Q 1697 3084 1428 2787 
Q 1159 2491 1159 1978 
L 1159 0 
L 581 0 
L 581 4863 
L 1159 4863 
L 1159 2956 
Q 1366 3272 1645 3428 
Q 1925 3584 2291 3584 
Q 2894 3584 3203 3211 
Q 3513 2838 3513 2113 
z
" transform="scale(0.015625)"/>
      </defs>
      <use xlink:href="#DejaVuSans-45"/>
      <use xlink:href="#DejaVuSans-70" x="63.183594"/>
      <use xlink:href="#DejaVuSans-6f" x="126.660156"/>
      <use xlink:href="#DejaVuSans-63" x="187.841797"/>
      <use xlink:href="#DejaVuSans-68" x="242.822266"/>
     </g>
    </g>
   </g>
   <g id="matplotlib.axis_2">
    <g id="ytick_1">
     <g id="line2d_13">
      <path d="M 57.6 307.467392 
L 414.72 307.467392 
" clip-path="url(#pb6835f37b0)" style="fill: none; stroke: #ffffff; stroke-width: 0.8; stroke-linecap: square"/>
     </g>
     <g id="line2d_14">
      <defs>
       <path id="m3f0c174aa9" d="M 0 0 
L -3.5 0 
" style="stroke: #555555; stroke-width: 0.8"/>
      </defs>
      <g>
       <use xlink:href="#m3f0c174aa9" x="57.6" y="307.467392" style="fill: #555555; stroke: #555555; stroke-width: 0.8"/>
      </g>
     </g>
     <g id="text_8">
      <!-- 0.0 -->
      <g style="fill: #555555" transform="translate(34.696875 311.266611) scale(0.1 -0.1)">
       <defs>
        <path id="DejaVuSans-2e" d="M 684 794 
L 1344 794 
L 1344 0 
L 684 0 
L 684 794 
z
" transform="scale(0.015625)"/>
       </defs>
       <use xlink:href="#DejaVuSans-30"/>
       <use xlink:href="#DejaVuSans-2e" x="63.623047"/>
       <use xlink:href="#DejaVuSans-30" x="95.410156"/>
      </g>
     </g>
    </g>
    <g id="ytick_2">
     <g id="line2d_15">
      <path d="M 57.6 265.149048 
L 414.72 265.149048 
" clip-path="url(#pb6835f37b0)" style="fill: none; stroke: #ffffff; stroke-width: 0.8; stroke-linecap: square"/>
     </g>
     <g id="line2d_16">
      <g>
       <use xlink:href="#m3f0c174aa9" x="57.6" y="265.149048" style="fill: #555555; stroke: #555555; stroke-width: 0.8"/>
      </g>
     </g>
     <g id="text_9">
      <!-- 0.5 -->
      <g style="fill: #555555" transform="translate(34.696875 268.948266) scale(0.1 -0.1)">
       <use xlink:href="#DejaVuSans-30"/>
       <use xlink:href="#DejaVuSans-2e" x="63.623047"/>
       <use xlink:href="#DejaVuSans-35" x="95.410156"/>
      </g>
     </g>
    </g>
    <g id="ytick_3">
     <g id="line2d_17">
      <path d="M 57.6 222.830703 
L 414.72 222.830703 
" clip-path="url(#pb6835f37b0)" style="fill: none; stroke: #ffffff; stroke-width: 0.8; stroke-linecap: square"/>
     </g>
     <g id="line2d_18">
      <g>
       <use xlink:href="#m3f0c174aa9" x="57.6" y="222.830703" style="fill: #555555; stroke: #555555; stroke-width: 0.8"/>
      </g>
     </g>
     <g id="text_10">
      <!-- 1.0 -->
      <g style="fill: #555555" transform="translate(34.696875 226.629922) scale(0.1 -0.1)">
       <use xlink:href="#DejaVuSans-31"/>
       <use xlink:href="#DejaVuSans-2e" x="63.623047"/>
       <use xlink:href="#DejaVuSans-30" x="95.410156"/>
      </g>
     </g>
    </g>
    <g id="ytick_4">
     <g id="line2d_19">
      <path d="M 57.6 180.512359 
L 414.72 180.512359 
" clip-path="url(#pb6835f37b0)" style="fill: none; stroke: #ffffff; stroke-width: 0.8; stroke-linecap: square"/>
     </g>
     <g id="line2d_20">
      <g>
       <use xlink:href="#m3f0c174aa9" x="57.6" y="180.512359" style="fill: #555555; stroke: #555555; stroke-width: 0.8"/>
      </g>
     </g>
     <g id="text_11">
      <!-- 1.5 -->
      <g style="fill: #555555" transform="translate(34.696875 184.311577) scale(0.1 -0.1)">
       <use xlink:href="#DejaVuSans-31"/>
       <use xlink:href="#DejaVuSans-2e" x="63.623047"/>
       <use xlink:href="#DejaVuSans-35" x="95.410156"/>
      </g>
     </g>
    </g>
    <g id="ytick_5">
     <g id="line2d_21">
      <path d="M 57.6 138.194014 
L 414.72 138.194014 
" clip-path="url(#pb6835f37b0)" style="fill: none; stroke: #ffffff; stroke-width: 0.8; stroke-linecap: square"/>
     </g>
     <g id="line2d_22">
      <g>
       <use xlink:href="#m3f0c174aa9" x="57.6" y="138.194014" style="fill: #555555; stroke: #555555; stroke-width: 0.8"/>
      </g>
     </g>
     <g id="text_12">
      <!-- 2.0 -->
      <g style="fill: #555555" transform="translate(34.696875 141.993233) scale(0.1 -0.1)">
       <use xlink:href="#DejaVuSans-32"/>
       <use xlink:href="#DejaVuSans-2e" x="63.623047"/>
       <use xlink:href="#DejaVuSans-30" x="95.410156"/>
      </g>
     </g>
    </g>
    <g id="ytick_6">
     <g id="line2d_23">
      <path d="M 57.6 95.87567 
L 414.72 95.87567 
" clip-path="url(#pb6835f37b0)" style="fill: none; stroke: #ffffff; stroke-width: 0.8; stroke-linecap: square"/>
     </g>
     <g id="line2d_24">
      <g>
       <use xlink:href="#m3f0c174aa9" x="57.6" y="95.87567" style="fill: #555555; stroke: #555555; stroke-width: 0.8"/>
      </g>
     </g>
     <g id="text_13">
      <!-- 2.5 -->
      <g style="fill: #555555" transform="translate(34.696875 99.674889) scale(0.1 -0.1)">
       <use xlink:href="#DejaVuSans-32"/>
       <use xlink:href="#DejaVuSans-2e" x="63.623047"/>
       <use xlink:href="#DejaVuSans-35" x="95.410156"/>
      </g>
     </g>
    </g>
    <g id="ytick_7">
     <g id="line2d_25">
      <path d="M 57.6 53.557325 
L 414.72 53.557325 
" clip-path="url(#pb6835f37b0)" style="fill: none; stroke: #ffffff; stroke-width: 0.8; stroke-linecap: square"/>
     </g>
     <g id="line2d_26">
      <g>
       <use xlink:href="#m3f0c174aa9" x="57.6" y="53.557325" style="fill: #555555; stroke: #555555; stroke-width: 0.8"/>
      </g>
     </g>
     <g id="text_14">
      <!-- 3.0 -->
      <g style="fill: #555555" transform="translate(34.696875 57.356544) scale(0.1 -0.1)">
       <use xlink:href="#DejaVuSans-33"/>
       <use xlink:href="#DejaVuSans-2e" x="63.623047"/>
       <use xlink:href="#DejaVuSans-30" x="95.410156"/>
      </g>
     </g>
    </g>
    <g id="text_15">
     <!-- Loss -->
     <g style="fill: #555555" transform="translate(28.20125 187.688625) rotate(-90) scale(0.12 -0.12)">
      <defs>
       <path id="DejaVuSans-4c" d="M 628 4666 
L 1259 4666 
L 1259 531 
L 3531 531 
L 3531 0 
L 628 0 
L 628 4666 
z
" transform="scale(0.015625)"/>
       <path id="DejaVuSans-73" d="M 2834 3397 
L 2834 2853 
Q 2591 2978 2328 3040 
Q 2066 3103 1784 3103 
Q 1356 3103 1142 2972 
Q 928 2841 928 2578 
Q 928 2378 1081 2264 
Q 1234 2150 1697 2047 
L 1894 2003 
Q 2506 1872 2764 1633 
Q 3022 1394 3022 966 
Q 3022 478 2636 193 
Q 2250 -91 1575 -91 
Q 1294 -91 989 -36 
Q 684 19 347 128 
L 347 722 
Q 666 556 975 473 
Q 1284 391 1588 391 
Q 1994 391 2212 530 
Q 2431 669 2431 922 
Q 2431 1156 2273 1281 
Q 2116 1406 1581 1522 
L 1381 1569 
Q 847 1681 609 1914 
Q 372 2147 372 2553 
Q 372 3047 722 3315 
Q 1072 3584 1716 3584 
Q 2034 3584 2315 3537 
Q 2597 3491 2834 3397 
z
" transform="scale(0.015625)"/>
      </defs>
      <use xlink:href="#DejaVuSans-4c"/>
      <use xlink:href="#DejaVuSans-6f" x="53.962891"/>
      <use xlink:href="#DejaVuSans-73" x="115.144531"/>
      <use xlink:href="#DejaVuSans-73" x="167.244141"/>
     </g>
    </g>
   </g>
   <g id="line2d_27">
    <path d="M 73.832727 249.451487 
L 76.844365 249.570982 
L 78.04902 249.46418 
L 79.253675 249.423544 
L 79.856003 249.535159 
L 81.060658 249.386355 
L 82.265313 249.275047 
L 83.469968 249.069227 
L 84.674623 249.076411 
L 85.276951 248.803465 
L 85.879278 248.895153 
L 86.481606 248.687476 
L 89.493243 248.323736 
L 91.902554 247.78973 
L 92.504881 247.613931 
L 93.107209 247.666835 
L 94.311864 247.429772 
L 94.914191 247.117967 
L 95.516519 246.999234 
L 96.118846 246.999451 
L 96.721174 246.792844 
L 97.323501 246.876627 
L 99.130484 246.607656 
L 99.732812 246.246256 
L 100.335139 246.360636 
L 101.539794 245.964422 
L 102.744449 245.793259 
L 103.949104 245.332735 
L 104.551432 245.266754 
L 105.153759 244.971526 
L 106.358415 244.703696 
L 106.960742 244.3681 
L 108.165397 244.049277 
L 109.370052 243.819938 
L 109.97238 243.35783 
L 111.177035 243.233376 
L 111.779362 243.128516 
L 113.586345 242.571259 
L 114.791 242.315703 
L 115.393328 242.070821 
L 115.995655 242.260448 
L 116.597983 242.037516 
L 118.404965 241.752296 
L 119.609621 241.570564 
L 120.814276 241.488749 
L 121.416603 241.701899 
L 122.018931 241.486686 
L 122.621258 241.752881 
L 123.825913 241.605615 
L 124.428241 241.606165 
L 125.030568 241.724984 
L 125.632896 241.37389 
L 126.235223 241.678562 
L 127.439879 241.519386 
L 128.042206 241.769549 
L 129.246861 241.889796 
L 130.451516 241.700804 
L 131.053844 241.475436 
L 131.656171 241.480087 
L 132.258499 241.69688 
L 132.860826 241.398821 
L 133.463154 241.248286 
L 134.065482 241.341639 
L 134.667809 241.064653 
L 135.270137 241.114258 
L 135.872464 240.73899 
L 136.474792 240.9758 
L 137.077119 240.464899 
L 137.679447 240.124914 
L 138.281774 240.231756 
L 140.088757 239.820897 
L 140.691084 239.357412 
L 141.293412 239.308559 
L 141.89574 239.030296 
L 142.498067 239.142793 
L 143.100395 238.716442 
L 143.702722 238.585955 
L 144.30505 238.096974 
L 144.907377 238.541844 
L 145.509705 238.185816 
L 146.112032 238.630076 
L 146.71436 238.514976 
L 147.316687 238.082939 
L 147.919015 238.581748 
L 148.521343 238.101494 
L 149.12367 238.050506 
L 149.725998 238.49403 
L 150.328325 238.169078 
L 150.930653 238.338415 
L 151.53298 238.822488 
L 152.135308 238.275204 
L 152.737635 238.032557 
L 153.94229 238.329869 
L 154.544618 237.929559 
L 155.146946 238.349311 
L 155.749273 237.711127 
L 157.556256 237.094125 
L 158.158583 236.486672 
L 159.965566 235.924234 
L 160.567893 235.414756 
L 161.772548 235.176755 
L 162.374876 234.37161 
L 162.977204 234.523941 
L 163.579531 234.121335 
L 164.181859 234.55431 
L 164.784186 233.717357 
L 165.386514 233.598968 
L 165.988841 233.853601 
L 166.591169 233.480381 
L 167.193496 233.750855 
L 167.795824 233.839264 
L 168.398151 233.808713 
L 169.000479 234.120548 
L 169.602807 233.444947 
L 170.205134 233.948689 
L 170.807462 233.769298 
L 171.409789 234.644041 
L 172.012117 234.342149 
L 172.614444 234.235896 
L 173.216772 235.063526 
L 173.819099 234.08472 
L 174.421427 234.418733 
L 175.023754 233.953754 
L 175.626082 233.948447 
L 176.22841 234.160952 
L 176.830737 233.573789 
L 177.433065 233.437889 
L 178.035392 232.664873 
L 178.63772 232.958008 
L 179.240047 232.191198 
L 179.842375 232.430243 
L 181.04703 231.294838 
L 181.649357 230.868709 
L 182.251685 230.691366 
L 182.854012 230.259678 
L 183.45634 228.361408 
L 184.058668 227.612688 
L 184.660995 225.981481 
L 185.263323 226.172107 
L 185.86565 224.421804 
L 186.467978 223.874495 
L 187.070305 225.143525 
L 187.672633 223.603926 
L 188.27496 225.554343 
L 188.877288 225.017638 
L 190.081943 223.431279 
L 190.684271 222.120474 
L 191.286598 219.163056 
L 191.888926 220.59435 
L 192.491253 220.99806 
L 193.093581 218.775681 
L 193.695908 215.68375 
L 194.900563 215.571201 
L 195.502891 214.612418 
L 196.105218 212.695528 
L 196.707546 212.593907 
L 197.309874 211.360811 
L 197.912201 211.338342 
L 198.514529 209.968554 
L 200.923839 207.350748 
L 201.526166 203.853784 
L 202.128494 205.543762 
L 202.730821 203.487748 
L 203.333149 204.352467 
L 203.935476 198.515158 
L 204.537804 200.260901 
L 205.140132 196.792541 
L 205.742459 200.347418 
L 206.947114 195.307128 
L 207.549442 195.835675 
L 208.151769 193.656761 
L 208.754097 193.511937 
L 209.356424 194.398661 
L 209.958752 192.275532 
L 210.561079 192.872798 
L 211.163407 186.308805 
L 211.765735 188.157147 
L 212.368062 190.805757 
L 212.97039 187.651987 
L 213.572717 187.534697 
L 214.175045 183.978942 
L 214.777372 186.355237 
L 215.3797 185.338348 
L 215.982027 182.540112 
L 216.584355 181.573933 
L 217.186682 183.696719 
L 217.78901 175.4722 
L 218.391337 179.221036 
L 219.595993 176.866434 
L 220.19832 173.868971 
L 220.800648 172.947691 
L 221.402975 174.140893 
L 222.005303 175.913735 
L 222.60763 174.207897 
L 223.209958 170.700219 
L 223.812285 169.184416 
L 224.414613 169.619646 
L 225.01694 171.577469 
L 225.619268 170.673976 
L 226.221596 167.131207 
L 226.823923 165.438485 
L 227.426251 168.06637 
L 228.028578 163.147325 
L 228.630906 166.807032 
L 229.233233 167.750186 
L 229.835561 168.007367 
L 230.437888 160.578362 
L 231.040216 160.146805 
L 231.642543 161.94139 
L 232.847199 160.202226 
L 233.449526 159.166178 
L 234.051854 162.548595 
L 234.654181 159.306462 
L 235.256509 157.083911 
L 235.858836 157.260729 
L 236.461164 153.212749 
L 237.063491 154.798967 
L 237.665819 152.916764 
L 238.268146 158.058383 
L 238.870474 149.493041 
L 239.472801 152.728142 
L 240.075129 154.495122 
L 240.677457 156.702105 
L 241.279784 151.693344 
L 241.882112 151.778308 
L 242.484439 145.840972 
L 243.086767 148.188471 
L 243.689094 146.950018 
L 244.291422 147.30209 
L 244.893749 150.273795 
L 245.496077 146.836773 
L 246.700732 145.808322 
L 247.30306 147.6178 
L 247.905387 142.600322 
L 249.110042 145.057231 
L 249.71237 141.705062 
L 250.314697 145.816969 
L 250.917025 143.733714 
L 251.519352 143.091407 
L 252.12168 138.809513 
L 252.724007 138.329415 
L 253.326335 138.727697 
L 253.928663 143.740342 
L 255.133318 139.78459 
L 255.735645 136.07599 
L 256.337973 138.382032 
L 256.9403 136.384527 
L 257.542628 130.726185 
L 258.144955 135.514188 
L 258.747283 138.564621 
L 259.34961 139.036092 
L 259.951938 132.604422 
L 261.156593 137.228754 
L 261.758921 130.318953 
L 262.361248 130.816647 
L 262.963576 127.519325 
L 263.565903 134.641589 
L 264.168231 135.052231 
L 264.770558 125.511438 
L 265.372886 134.764984 
L 266.577541 127.822957 
L 267.179868 126.884575 
L 267.782196 118.724931 
L 268.384524 126.176597 
L 268.986851 130.066737 
L 269.589179 127.042778 
L 270.191506 127.819204 
L 270.793834 124.642915 
L 271.396161 124.116607 
L 271.998489 124.54543 
L 272.600816 125.173339 
L 273.203144 124.958635 
L 273.805471 120.403659 
L 274.407799 120.837587 
L 275.010126 119.868493 
L 275.612454 116.857792 
L 276.214782 123.277889 
L 276.817109 127.098331 
L 277.419437 124.196153 
L 278.021764 114.469188 
L 278.624092 117.019567 
L 279.226419 111.634912 
L 279.828747 120.981544 
L 280.431074 120.193232 
L 281.033402 120.284119 
L 281.635729 119.386659 
L 282.238057 115.280039 
L 282.840385 110.038696 
L 283.442712 112.033749 
L 284.04504 121.090127 
L 284.647367 117.825151 
L 285.249695 119.641156 
L 285.852022 115.165544 
L 286.45435 106.888962 
L 287.056677 109.435305 
L 287.659005 116.289916 
L 288.261332 117.83524 
L 288.86366 118.155622 
L 289.465988 114.978223 
L 290.068315 110.139429 
L 290.670643 112.728168 
L 291.27297 108.82364 
L 291.875298 109.320789 
L 292.477625 113.852782 
L 293.079953 114.094929 
L 293.68228 110.060671 
L 294.284608 108.288111 
L 294.886935 104.060921 
L 295.489263 111.202013 
L 296.09159 105.394952 
L 296.693918 105.262821 
L 297.296246 105.576563 
L 297.898573 112.154379 
L 298.500901 111.666109 
L 299.103228 106.972725 
L 299.705556 103.571743 
L 300.307883 104.121822 
L 300.910211 100.731918 
L 301.512538 101.13356 
L 302.717193 105.607013 
L 303.319521 104.470635 
L 303.921849 108.428718 
L 304.524176 97.712903 
L 305.126504 102.942281 
L 305.728831 104.740488 
L 306.331159 93.335986 
L 306.933486 109.38066 
L 308.138141 95.327266 
L 308.740469 99.883897 
L 309.342796 102.464766 
L 309.945124 103.87697 
L 311.149779 96.487193 
L 311.752107 90.483812 
L 312.354434 95.449793 
L 312.956762 104.001051 
L 313.559089 102.649242 
L 314.161417 94.77517 
L 314.763744 96.329535 
L 315.366072 95.298774 
L 315.968399 96.519116 
L 316.570727 99.794444 
L 317.173054 97.522071 
L 317.775382 94.045156 
L 318.37771 99.653796 
L 320.184692 89.672234 
L 320.78702 98.443523 
L 321.389347 93.85852 
L 321.991675 92.926434 
L 322.594002 91.154742 
L 323.19633 87.837946 
L 323.798657 95.221569 
L 324.400985 95.243362 
L 325.003313 87.130492 
L 325.60564 92.975025 
L 326.207968 93.813642 
L 326.810295 85.961707 
L 327.412623 81.36942 
L 328.01495 86.047649 
L 328.617278 92.340538 
L 329.219605 93.109619 
L 329.821933 96.811126 
L 330.42426 84.531321 
L 331.026588 89.125223 
L 331.628916 85.198155 
L 332.231243 92.602501 
L 332.833571 88.401948 
L 333.435898 90.718836 
L 334.038226 87.624836 
L 334.640553 92.153197 
L 335.242881 84.611634 
L 335.845208 85.969375 
L 336.447536 89.576243 
L 337.049863 84.848191 
L 337.652191 82.931614 
L 338.254518 83.548485 
L 338.856846 90.329564 
L 339.459174 86.185108 
L 340.061501 86.62729 
L 340.663829 85.793031 
L 341.266156 83.889711 
L 341.868484 83.791016 
L 342.470811 85.843458 
L 343.073139 85.243376 
L 343.675466 82.035023 
L 344.277794 75.974494 
L 344.880121 88.543443 
L 345.482449 82.305622 
L 346.084777 83.505645 
L 346.687104 78.925324 
L 347.289432 75.313875 
L 347.891759 70.827891 
L 348.494087 83.683321 
L 349.096414 79.012739 
L 349.698742 86.69727 
L 350.301069 78.919371 
L 350.903397 82.894202 
L 351.505724 70.457506 
L 352.108052 76.22092 
L 352.710379 86.620974 
L 353.312707 74.654669 
L 353.915035 75.61317 
L 354.517362 84.717412 
L 355.11969 84.237576 
L 355.722017 80.039384 
L 356.324345 77.53913 
L 356.926672 70.203372 
L 357.529 81.840275 
L 358.131327 71.914165 
L 358.733655 67.986673 
L 359.335982 86.986354 
L 359.93831 77.510658 
L 360.540638 84.364199 
L 361.142965 76.892274 
L 361.745293 81.204558 
L 362.34762 71.499528 
L 362.949948 66.628085 
L 363.552275 81.344156 
L 364.154603 70.915851 
L 364.75693 81.409959 
L 365.359258 70.156699 
L 365.961585 64.127084 
L 366.563913 73.102383 
L 367.166241 72.065386 
L 367.768568 78.166313 
L 368.370896 77.832331 
L 368.973223 71.793192 
L 369.575551 70.402761 
L 370.177878 79.28342 
L 370.780206 72.549055 
L 371.382533 70.486665 
L 371.984861 63.188722 
L 372.587188 71.969112 
L 373.189516 72.785533 
L 373.791843 74.554239 
L 374.394171 75.211064 
L 374.996499 78.818113 
L 375.598826 67.566991 
L 376.201154 65.488074 
L 376.803481 64.304578 
L 377.405809 67.209642 
L 378.008136 78.282079 
L 378.610464 76.478484 
L 379.212791 65.759138 
L 379.815119 64.588557 
L 380.417446 59.612446 
L 381.019774 68.28619 
L 382.224429 75.78013 
L 382.826757 69.523664 
L 383.429084 65.783696 
L 384.031412 60.5003 
L 384.633739 63.118378 
L 385.236067 75.269583 
L 385.838394 62.856577 
L 386.440722 64.132916 
L 387.645377 64.018945 
L 388.247705 59.242343 
L 388.850032 61.667451 
L 389.45236 74.516262 
L 390.054687 64.234356 
L 390.657015 65.303235 
L 391.259342 53.568 
L 392.463997 65.737446 
L 393.066325 76.647947 
L 393.668652 64.28444 
L 394.27098 67.636145 
L 394.873307 58.211057 
L 395.475635 56.498792 
L 396.077963 70.842864 
L 396.68029 67.53192 
L 397.282618 63.435107 
L 397.884945 54.558908 
L 398.487273 55.892233 
L 398.487273 55.892233 
" clip-path="url(#pb6835f37b0)" style="fill: none; stroke: #6495ed; stroke-width: 2; stroke-linecap: square"/>
   </g>
   <g id="line2d_28">
    <path d="M 73.832727 248.20352 
L 76.844365 248.508685 
L 80.45833 249.097434 
L 81.662985 249.238303 
L 87.686261 249.726518 
L 88.288588 249.666599 
L 88.890916 249.787556 
L 90.697898 249.871321 
L 91.300226 249.969899 
L 91.902554 249.884314 
L 92.504881 250.09226 
L 93.107209 250.003512 
L 94.311864 250.090924 
L 94.914191 250.271448 
L 95.516519 250.160947 
L 96.721174 250.329403 
L 97.925829 250.297776 
L 98.528157 250.397306 
L 99.130484 250.24158 
L 99.732812 250.560131 
L 100.335139 250.426237 
L 102.142122 250.648297 
L 102.744449 250.484145 
L 103.346777 250.761928 
L 104.551432 250.772002 
L 105.756087 250.951097 
L 106.358415 250.818979 
L 106.960742 251.116882 
L 108.767725 251.201447 
L 112.984018 251.701688 
L 113.586345 251.655967 
L 114.188673 251.85239 
L 118.404965 252.272196 
L 120.211948 252.457612 
L 121.416603 252.465193 
L 122.018931 252.586176 
L 122.621258 252.499915 
L 123.825913 252.634718 
L 125.030568 252.655266 
L 125.632896 252.839498 
L 126.235223 252.749287 
L 127.439879 252.863593 
L 128.042206 252.760905 
L 134.065482 253.2163 
L 134.667809 253.356847 
L 135.270137 253.334081 
L 135.872464 253.518592 
L 136.474792 253.52379 
L 137.679447 253.909273 
L 138.884102 253.96465 
L 141.89574 254.718679 
L 142.498067 254.602961 
L 143.100395 254.894843 
L 144.30505 255.247899 
L 144.907377 255.191839 
L 145.509705 255.462899 
L 146.112032 255.158294 
L 147.316687 255.679317 
L 147.919015 255.503228 
L 148.521343 255.792665 
L 149.12367 255.924706 
L 149.725998 255.519443 
L 150.328325 255.919389 
L 150.930653 255.876106 
L 151.53298 255.706852 
L 152.737635 256.139029 
L 153.339963 255.729646 
L 153.94229 256.006667 
L 154.544618 256.152647 
L 155.146946 255.929437 
L 155.749273 256.210622 
L 156.351601 256.363078 
L 156.953928 256.037805 
L 157.556256 256.531594 
L 158.158583 256.734895 
L 158.760911 256.799528 
L 159.965566 257.134068 
L 160.567893 256.992793 
L 161.170221 257.445818 
L 161.772548 257.529289 
L 162.374876 257.846113 
L 162.977204 257.817862 
L 163.579531 258.102784 
L 164.181859 257.716257 
L 164.784186 258.384505 
L 165.386514 258.557338 
L 165.988841 258.547751 
L 166.591169 258.773009 
L 167.193496 258.82162 
L 167.795824 258.6791 
L 168.398151 259.006843 
L 169.000479 259.025052 
L 169.602807 259.379608 
L 170.205134 259.268211 
L 170.807462 259.3933 
L 171.409789 258.951501 
L 172.614444 259.538883 
L 173.216772 259.148465 
L 173.819099 259.629652 
L 175.023754 259.60936 
L 177.433065 260.326928 
L 178.035392 260.708066 
L 178.63772 260.302881 
L 179.240047 260.869242 
L 179.842375 260.861455 
L 180.444702 261.046117 
L 181.649357 261.738439 
L 182.251685 261.320789 
L 182.854012 261.985385 
L 183.45634 262.327697 
L 184.058668 262.344779 
L 184.660995 262.990703 
L 185.263323 263.183105 
L 185.86565 263.255937 
L 186.467978 264.424376 
L 187.070305 264.36166 
L 187.672633 265.26479 
L 188.27496 265.105376 
L 188.877288 265.720108 
L 189.479615 265.387925 
L 190.081943 266.4283 
L 190.684271 266.868292 
L 191.286598 267.770309 
L 191.888926 267.41076 
L 192.491253 267.50531 
L 193.093581 267.308394 
L 193.695908 269.085999 
L 194.900563 269.037845 
L 196.105218 269.995614 
L 196.707546 269.286719 
L 197.309874 270.600252 
L 197.912201 270.654968 
L 199.116856 271.479163 
L 199.719184 271.973724 
L 200.321511 271.324878 
L 200.923839 272.345157 
L 201.526166 273.065845 
L 202.128494 272.596625 
L 202.730821 273.26477 
L 203.333149 273.011456 
L 203.935476 273.582296 
L 205.140132 275.180799 
L 205.742459 274.633539 
L 206.344787 274.743014 
L 206.947114 275.674808 
L 207.549442 275.091969 
L 208.151769 276.058772 
L 208.754097 276.295304 
L 209.356424 275.912443 
L 209.958752 276.379227 
L 210.561079 276.108251 
L 211.765735 277.615262 
L 212.368062 277.132583 
L 212.97039 277.633226 
L 213.572717 277.775186 
L 214.175045 278.66875 
L 214.777372 277.248777 
L 215.982027 278.955607 
L 216.584355 278.945623 
L 217.186682 278.770072 
L 217.78901 280.071056 
L 218.391337 278.780712 
L 218.993665 279.760668 
L 219.595993 280.3083 
L 221.402975 281.165465 
L 222.005303 280.001781 
L 222.60763 281.176729 
L 223.209958 281.687799 
L 223.812285 281.432333 
L 224.414613 281.532234 
L 225.01694 281.214328 
L 225.619268 280.532465 
L 226.221596 282.01982 
L 226.823923 282.347069 
L 227.426251 281.63604 
L 228.028578 282.413781 
L 228.630906 282.232554 
L 229.233233 281.247093 
L 229.835561 281.909972 
L 230.437888 283.619204 
L 231.040216 283.16768 
L 231.642543 283.556732 
L 232.244871 283.517501 
L 232.847199 282.966055 
L 233.449526 284.281593 
L 234.051854 283.281169 
L 235.256509 283.605935 
L 235.858836 284.150269 
L 236.461164 283.266721 
L 237.063491 284.571923 
L 237.665819 285.068994 
L 238.268146 284.419356 
L 238.870474 285.596955 
L 239.472801 285.172429 
L 240.075129 283.977219 
L 240.677457 284.438671 
L 241.279784 285.089731 
L 241.882112 284.441176 
L 242.484439 285.207989 
L 243.086767 285.293056 
L 243.689094 284.600938 
L 244.291422 285.899702 
L 244.893749 285.78351 
L 245.496077 286.017957 
L 246.700732 286.161396 
L 247.30306 284.771814 
L 247.905387 286.681278 
L 248.507715 286.522767 
L 249.110042 286.106707 
L 250.314697 286.137601 
L 250.917025 285.28019 
L 252.12168 286.827883 
L 252.724007 286.773331 
L 253.326335 287.460679 
L 253.928663 286.695809 
L 254.53099 286.196117 
L 255.133318 286.986209 
L 255.735645 287.428375 
L 256.337973 286.772196 
L 256.9403 287.224732 
L 257.542628 288.107953 
L 258.144955 286.870331 
L 258.747283 287.387656 
L 259.34961 287.382188 
L 259.951938 288.197882 
L 260.554265 287.595623 
L 261.758921 287.319058 
L 262.361248 287.646364 
L 262.963576 288.540156 
L 263.565903 288.105592 
L 264.168231 288.206025 
L 264.770558 289.367714 
L 265.372886 287.411498 
L 265.975213 288.303105 
L 266.577541 288.67663 
L 267.179868 288.181194 
L 267.782196 289.614141 
L 268.384524 288.810312 
L 268.986851 287.648842 
L 270.191506 288.827743 
L 270.793834 289.210944 
L 271.396161 289.374311 
L 271.998489 289.14163 
L 272.600816 288.046292 
L 273.805471 289.566442 
L 274.407799 289.580743 
L 275.612454 290.024781 
L 276.214782 288.355235 
L 276.817109 289.041644 
L 277.419437 288.979489 
L 278.021764 289.749481 
L 278.624092 290.042603 
L 279.226419 290.66215 
L 279.828747 288.726072 
L 280.431074 290.56638 
L 281.033402 290.08693 
L 281.635729 289.433082 
L 282.238057 290.404011 
L 282.840385 290.533736 
L 283.442712 289.532649 
L 284.04504 289.613492 
L 284.647367 290.349967 
L 285.249695 289.331261 
L 285.852022 289.929177 
L 286.45435 290.322159 
L 287.056677 289.70678 
L 287.659005 290.278333 
L 288.261332 290.444337 
L 288.86366 289.91574 
L 290.068315 290.714383 
L 290.670643 289.508765 
L 291.27297 290.86453 
L 291.875298 291.477326 
L 292.477625 290.735987 
L 293.079953 290.424469 
L 293.68228 290.855204 
L 294.284608 290.306677 
L 294.886935 291.235173 
L 295.489263 290.431542 
L 296.09159 290.793021 
L 297.296246 291.741032 
L 297.898573 290.581358 
L 298.500901 291.262983 
L 299.103228 291.424594 
L 299.705556 291.766063 
L 300.307883 291.366796 
L 300.910211 291.496237 
L 301.512538 290.778737 
L 302.114866 291.614845 
L 303.319521 291.396622 
L 303.921849 291.1717 
L 304.524176 292.072576 
L 305.126504 290.650545 
L 305.728831 291.073236 
L 306.331159 291.996773 
L 306.933486 291.104918 
L 307.535814 291.949225 
L 308.138141 292.368534 
L 308.740469 290.894017 
L 309.342796 292.395334 
L 309.945124 291.803103 
L 310.547452 292.137335 
L 311.149779 291.994074 
L 311.752107 292.744976 
L 312.354434 291.608589 
L 312.956762 291.985203 
L 313.559089 291.737578 
L 314.161417 291.844342 
L 314.763744 292.119762 
L 315.366072 292.065622 
L 315.968399 291.118269 
L 316.570727 292.408863 
L 317.173054 292.800606 
L 318.37771 292.17197 
L 318.980037 292.088756 
L 319.582365 291.49273 
L 320.184692 292.76685 
L 320.78702 292.249609 
L 321.389347 292.060931 
L 321.991675 292.468154 
L 323.19633 292.334722 
L 323.798657 292.614188 
L 325.003313 293.535791 
L 325.60564 292.064607 
L 326.207968 292.206696 
L 326.810295 292.004052 
L 327.412623 293.514771 
L 328.01495 293.07019 
L 328.617278 293.179463 
L 329.219605 293.436651 
L 330.42426 292.077818 
L 331.628916 294.075551 
L 332.231243 292.548621 
L 332.833571 293.565552 
L 333.435898 293.420007 
L 334.038226 292.179766 
L 334.640553 293.235395 
L 335.242881 292.602658 
L 335.845208 292.705378 
L 336.447536 292.565004 
L 337.049863 293.126456 
L 337.652191 292.664413 
L 338.254518 293.816281 
L 338.856846 293.109099 
L 339.459174 293.475722 
L 340.663829 293.293254 
L 341.266156 292.475572 
L 341.868484 293.734297 
L 342.470811 293.513527 
L 343.073139 293.458212 
L 344.277794 294.30536 
L 344.880121 292.364294 
L 345.482449 292.950344 
L 346.687104 293.584675 
L 347.289432 294.227875 
L 347.891759 294.1973 
L 348.494087 293.170769 
L 349.096414 294.509896 
L 349.698742 293.931037 
L 350.301069 293.710302 
L 350.903397 293.333492 
L 351.505724 293.790021 
L 352.108052 292.492128 
L 353.312707 294.344454 
L 353.915035 293.997512 
L 354.517362 294.09737 
L 355.11969 293.554925 
L 355.722017 292.72805 
L 356.324345 294.030085 
L 356.926672 294.59986 
L 357.529 292.962135 
L 358.131327 294.25945 
L 358.733655 294.39908 
L 359.335982 292.373841 
L 359.93831 294.297898 
L 360.540638 293.798658 
L 361.142965 294.391969 
L 361.745293 293.884643 
L 362.34762 294.264179 
L 363.552275 293.804967 
L 364.154603 295.270428 
L 364.75693 293.636949 
L 365.359258 294.539746 
L 365.961585 293.697591 
L 366.563913 293.712125 
L 367.166241 294.380322 
L 367.768568 294.672686 
L 369.575551 294.420272 
L 370.177878 293.184731 
L 370.780206 294.303093 
L 371.382533 294.51452 
L 372.587188 294.236934 
L 373.189516 294.258836 
L 373.791843 293.436045 
L 374.394171 294.882103 
L 374.996499 294.292418 
L 375.598826 294.983276 
L 376.201154 294.930308 
L 378.008136 294.397315 
L 378.610464 295.052694 
L 379.212791 294.744499 
L 379.815119 294.913214 
L 380.417446 295.332592 
L 381.019774 293.751732 
L 381.622102 294.945054 
L 382.224429 294.759577 
L 382.826757 295.00939 
L 383.429084 295.024855 
L 384.031412 294.916447 
L 384.633739 293.74273 
L 385.838394 295.071411 
L 386.440722 294.835608 
L 387.645377 294.823332 
L 388.247705 294.590566 
L 388.850032 295.289181 
L 389.45236 294.65652 
L 391.259342 295.26658 
L 391.86167 294.219112 
L 392.463997 295.488 
L 393.066325 294.786468 
L 393.668652 295.03883 
L 394.27098 294.782617 
L 394.873307 295.183547 
L 395.475635 294.895029 
L 396.077963 295.163333 
L 396.68029 294.640335 
L 397.884945 295.153181 
L 398.487273 294.480745 
L 398.487273 294.480745 
" clip-path="url(#pb6835f37b0)" style="fill: none; stroke: #dc143c; stroke-width: 2; stroke-linecap: square"/>
   </g>
   <g id="line2d_29">
    <path d="M 73.832727 256.370681 
L 76.844365 256.370681 
L 77.446693 251.735537 
L 80.45833 251.735537 
L 81.060658 248.442099 
L 84.072295 248.442099 
L 84.674623 246.259344 
L 87.686261 246.259344 
L 88.288588 244.423186 
L 91.300226 244.423186 
L 91.902554 242.874383 
L 94.914191 242.874383 
L 95.516519 241.561413 
L 98.528157 241.561413 
L 99.130484 240.262241 
L 102.142122 240.262241 
L 102.744449 239.269158 
L 109.370052 239.232701 
L 109.97238 240.896952 
L 112.984018 240.896952 
L 113.586345 244.182542 
L 116.597983 244.182542 
L 117.20031 247.981446 
L 120.211948 247.981446 
L 120.814276 251.316152 
L 123.825913 251.316152 
L 124.428241 254.215395 
L 127.439879 254.215395 
L 128.042206 256.249916 
L 131.053844 256.249916 
L 131.656171 257.204769 
L 134.667809 257.204769 
L 135.270137 255.970916 
L 138.281774 255.970916 
L 138.884102 253.243326 
L 141.89574 253.243326 
L 142.498067 250.075463 
L 145.509705 250.075463 
L 146.112032 247.237362 
L 149.12367 247.237362 
L 149.725998 245.025618 
L 152.737635 245.025618 
L 153.339963 243.54859 
L 156.351601 243.54859 
L 156.953928 242.765517 
L 159.965566 242.765517 
L 160.567893 243.502259 
L 163.579531 243.502259 
L 164.181859 246.053385 
L 167.193496 246.053385 
L 167.795824 249.336443 
L 170.807462 249.336443 
L 171.409789 250.920691 
L 174.421427 250.920691 
L 175.023754 249.006808 
L 178.035392 249.006808 
L 178.63772 244.771429 
L 181.649357 244.771429 
L 182.251685 241.767751 
L 188.877288 241.68876 
L 189.479615 242.189795 
L 192.491253 242.189795 
L 193.093581 243.212119 
L 196.105218 243.212119 
L 196.707546 244.07874 
L 199.719184 244.07874 
L 200.321511 244.858522 
L 203.333149 244.858522 
L 203.935476 245.126888 
L 206.947114 245.126888 
L 207.549442 245.442725 
L 210.561079 245.442725 
L 211.163407 245.671849 
L 214.175045 245.671849 
L 214.777372 245.838565 
L 217.78901 245.838565 
L 218.391337 245.496272 
L 221.402975 245.496272 
L 222.005303 245.885909 
L 225.01694 245.885909 
L 225.619268 246.001358 
L 228.630906 246.001358 
L 229.233233 246.500367 
L 232.244871 246.500367 
L 232.847199 246.293776 
L 235.858836 246.293776 
L 236.461164 246.107691 
L 243.086767 246.068196 
L 243.689094 245.911227 
L 246.700732 245.911227 
L 247.30306 246.100856 
L 250.314697 246.100856 
L 250.917025 246.818989 
L 253.928663 246.818989 
L 254.53099 246.397831 
L 257.542628 246.397831 
L 258.144955 246.864434 
L 275.612454 246.864687 
L 276.214782 247.103052 
L 279.226419 247.103052 
L 279.828747 246.938615 
L 282.840385 246.938615 
L 283.442712 246.723162 
L 286.45435 246.723162 
L 287.056677 246.978363 
L 290.068315 246.978363 
L 290.670643 247.12242 
L 293.68228 247.12242 
L 294.284608 246.995073 
L 297.296246 246.995073 
L 297.898573 246.509735 
L 304.524176 246.564927 
L 305.126504 246.817596 
L 308.138141 246.817596 
L 308.740469 248.13639 
L 311.752107 248.13639 
L 312.354434 248.299435 
L 315.366072 248.299435 
L 315.968399 247.017605 
L 318.980037 247.017605 
L 319.582365 246.515558 
L 322.594002 246.515558 
L 323.19633 247.258882 
L 326.207968 247.258882 
L 326.810295 247.521932 
L 329.821933 247.521932 
L 330.42426 247.862453 
L 333.435898 247.862453 
L 334.038226 248.49476 
L 337.049863 248.49476 
L 337.652191 248.284371 
L 340.663829 248.284371 
L 341.266156 248.120439 
L 344.277794 248.120439 
L 344.880121 247.902961 
L 355.11969 247.968028 
L 355.722017 246.971527 
L 358.733655 246.971527 
L 359.335982 247.308504 
L 362.34762 247.308504 
L 362.949948 247.699914 
L 369.575551 247.733334 
L 370.177878 247.936887 
L 373.189516 247.936887 
L 373.791843 248.471088 
L 376.803481 248.471088 
L 377.405809 248.730846 
L 380.417446 248.730846 
L 381.019774 248.47843 
L 384.031412 248.47843 
L 384.633739 248.681224 
L 387.645377 248.681224 
L 388.247705 249.28758 
L 391.259342 249.28758 
L 391.86167 248.331588 
L 394.873307 248.331588 
L 395.475635 248.608816 
L 398.487273 248.608816 
L 398.487273 248.608816 
" clip-path="url(#pb6835f37b0)" style="fill: none; stroke: #ffff00; stroke-width: 3; stroke-linecap: square"/>
   </g>
   <g id="patch_3">
    <path d="M 57.6 307.584 
L 57.6 41.472 
" style="fill: none; stroke: #ffffff; stroke-linejoin: miter; stroke-linecap: square"/>
   </g>
   <g id="patch_4">
    <path d="M 414.72 307.584 
L 414.72 41.472 
" style="fill: none; stroke: #ffffff; stroke-linejoin: miter; stroke-linecap: square"/>
   </g>
   <g id="patch_5">
    <path d="M 57.6 307.584 
L 414.72 307.584 
" style="fill: none; stroke: #ffffff; stroke-linejoin: miter; stroke-linecap: square"/>
   </g>
   <g id="patch_6">
    <path d="M 57.6 41.472 
L 414.72 41.472 
" style="fill: none; stroke: #ffffff; stroke-linejoin: miter; stroke-linecap: square"/>
   </g>
   <g id="legend_1">
    <g id="patch_7">
     <path d="M 243.124687 302.584 
L 407.72 302.584 
Q 409.72 302.584 409.72 300.584 
L 409.72 257.549625 
Q 409.72 255.549625 407.72 255.549625 
L 243.124687 255.549625 
Q 241.124687 255.549625 241.124687 257.549625 
L 241.124687 300.584 
Q 241.124687 302.584 243.124687 302.584 
z
" style="fill: #e5e5e5; opacity: 0.8; stroke: #cccccc; stroke-width: 0.5; stroke-linejoin: miter"/>
    </g>
    <g id="line2d_30">
     <path d="M 245.124687 263.648062 
L 255.124687 263.648062 
L 265.124687 263.648062 
" style="fill: none; stroke: #6495ed; stroke-width: 2; stroke-linecap: square"/>
    </g>
    <g id="text_16">
     <!-- Generator loss -->
     <g transform="translate(273.124687 267.148062) scale(0.1 -0.1)">
      <defs>
       <path id="DejaVuSans-47" d="M 3809 666 
L 3809 1919 
L 2778 1919 
L 2778 2438 
L 4434 2438 
L 4434 434 
Q 4069 175 3628 42 
Q 3188 -91 2688 -91 
Q 1594 -91 976 548 
Q 359 1188 359 2328 
Q 359 3472 976 4111 
Q 1594 4750 2688 4750 
Q 3144 4750 3555 4637 
Q 3966 4525 4313 4306 
L 4313 3634 
Q 3963 3931 3569 4081 
Q 3175 4231 2741 4231 
Q 1884 4231 1454 3753 
Q 1025 3275 1025 2328 
Q 1025 1384 1454 906 
Q 1884 428 2741 428 
Q 3075 428 3337 486 
Q 3600 544 3809 666 
z
" transform="scale(0.015625)"/>
       <path id="DejaVuSans-65" d="M 3597 1894 
L 3597 1613 
L 953 1613 
Q 991 1019 1311 708 
Q 1631 397 2203 397 
Q 2534 397 2845 478 
Q 3156 559 3463 722 
L 3463 178 
Q 3153 47 2828 -22 
Q 2503 -91 2169 -91 
Q 1331 -91 842 396 
Q 353 884 353 1716 
Q 353 2575 817 3079 
Q 1281 3584 2069 3584 
Q 2775 3584 3186 3129 
Q 3597 2675 3597 1894 
z
M 3022 2063 
Q 3016 2534 2758 2815 
Q 2500 3097 2075 3097 
Q 1594 3097 1305 2825 
Q 1016 2553 972 2059 
L 3022 2063 
z
" transform="scale(0.015625)"/>
       <path id="DejaVuSans-6e" d="M 3513 2113 
L 3513 0 
L 2938 0 
L 2938 2094 
Q 2938 2591 2744 2837 
Q 2550 3084 2163 3084 
Q 1697 3084 1428 2787 
Q 1159 2491 1159 1978 
L 1159 0 
L 581 0 
L 581 3500 
L 1159 3500 
L 1159 2956 
Q 1366 3272 1645 3428 
Q 1925 3584 2291 3584 
Q 2894 3584 3203 3211 
Q 3513 2838 3513 2113 
z
" transform="scale(0.015625)"/>
       <path id="DejaVuSans-72" d="M 2631 2963 
Q 2534 3019 2420 3045 
Q 2306 3072 2169 3072 
Q 1681 3072 1420 2755 
Q 1159 2438 1159 1844 
L 1159 0 
L 581 0 
L 581 3500 
L 1159 3500 
L 1159 2956 
Q 1341 3275 1631 3429 
Q 1922 3584 2338 3584 
Q 2397 3584 2469 3576 
Q 2541 3569 2628 3553 
L 2631 2963 
z
" transform="scale(0.015625)"/>
       <path id="DejaVuSans-61" d="M 2194 1759 
Q 1497 1759 1228 1600 
Q 959 1441 959 1056 
Q 959 750 1161 570 
Q 1363 391 1709 391 
Q 2188 391 2477 730 
Q 2766 1069 2766 1631 
L 2766 1759 
L 2194 1759 
z
M 3341 1997 
L 3341 0 
L 2766 0 
L 2766 531 
Q 2569 213 2275 61 
Q 1981 -91 1556 -91 
Q 1019 -91 701 211 
Q 384 513 384 1019 
Q 384 1609 779 1909 
Q 1175 2209 1959 2209 
L 2766 2209 
L 2766 2266 
Q 2766 2663 2505 2880 
Q 2244 3097 1772 3097 
Q 1472 3097 1187 3025 
Q 903 2953 641 2809 
L 641 3341 
Q 956 3463 1253 3523 
Q 1550 3584 1831 3584 
Q 2591 3584 2966 3190 
Q 3341 2797 3341 1997 
z
" transform="scale(0.015625)"/>
       <path id="DejaVuSans-74" d="M 1172 4494 
L 1172 3500 
L 2356 3500 
L 2356 3053 
L 1172 3053 
L 1172 1153 
Q 1172 725 1289 603 
Q 1406 481 1766 481 
L 2356 481 
L 2356 0 
L 1766 0 
Q 1100 0 847 248 
Q 594 497 594 1153 
L 594 3053 
L 172 3053 
L 172 3500 
L 594 3500 
L 594 4494 
L 1172 4494 
z
" transform="scale(0.015625)"/>
       <path id="DejaVuSans-20" transform="scale(0.015625)"/>
       <path id="DejaVuSans-6c" d="M 603 4863 
L 1178 4863 
L 1178 0 
L 603 0 
L 603 4863 
z
" transform="scale(0.015625)"/>
      </defs>
      <use xlink:href="#DejaVuSans-47"/>
      <use xlink:href="#DejaVuSans-65" x="77.490234"/>
      <use xlink:href="#DejaVuSans-6e" x="139.013672"/>
      <use xlink:href="#DejaVuSans-65" x="202.392578"/>
      <use xlink:href="#DejaVuSans-72" x="263.916016"/>
      <use xlink:href="#DejaVuSans-61" x="305.029297"/>
      <use xlink:href="#DejaVuSans-74" x="366.308594"/>
      <use xlink:href="#DejaVuSans-6f" x="405.517578"/>
      <use xlink:href="#DejaVuSans-72" x="466.699219"/>
      <use xlink:href="#DejaVuSans-20" x="507.8125"/>
      <use xlink:href="#DejaVuSans-6c" x="539.599609"/>
      <use xlink:href="#DejaVuSans-6f" x="567.382812"/>
      <use xlink:href="#DejaVuSans-73" x="628.564453"/>
      <use xlink:href="#DejaVuSans-73" x="680.664062"/>
     </g>
    </g>
    <g id="line2d_31">
     <path d="M 245.124687 278.326188 
L 255.124687 278.326188 
L 265.124687 278.326188 
" style="fill: none; stroke: #dc143c; stroke-width: 2; stroke-linecap: square"/>
    </g>
    <g id="text_17">
     <!-- Average discriminator loss -->
     <g transform="translate(273.124687 281.826188) scale(0.1 -0.1)">
      <defs>
       <path id="DejaVuSans-41" d="M 2188 4044 
L 1331 1722 
L 3047 1722 
L 2188 4044 
z
M 1831 4666 
L 2547 4666 
L 4325 0 
L 3669 0 
L 3244 1197 
L 1141 1197 
L 716 0 
L 50 0 
L 1831 4666 
z
" transform="scale(0.015625)"/>
       <path id="DejaVuSans-76" d="M 191 3500 
L 800 3500 
L 1894 563 
L 2988 3500 
L 3597 3500 
L 2284 0 
L 1503 0 
L 191 3500 
z
" transform="scale(0.015625)"/>
       <path id="DejaVuSans-67" d="M 2906 1791 
Q 2906 2416 2648 2759 
Q 2391 3103 1925 3103 
Q 1463 3103 1205 2759 
Q 947 2416 947 1791 
Q 947 1169 1205 825 
Q 1463 481 1925 481 
Q 2391 481 2648 825 
Q 2906 1169 2906 1791 
z
M 3481 434 
Q 3481 -459 3084 -895 
Q 2688 -1331 1869 -1331 
Q 1566 -1331 1297 -1286 
Q 1028 -1241 775 -1147 
L 775 -588 
Q 1028 -725 1275 -790 
Q 1522 -856 1778 -856 
Q 2344 -856 2625 -561 
Q 2906 -266 2906 331 
L 2906 616 
Q 2728 306 2450 153 
Q 2172 0 1784 0 
Q 1141 0 747 490 
Q 353 981 353 1791 
Q 353 2603 747 3093 
Q 1141 3584 1784 3584 
Q 2172 3584 2450 3431 
Q 2728 3278 2906 2969 
L 2906 3500 
L 3481 3500 
L 3481 434 
z
" transform="scale(0.015625)"/>
       <path id="DejaVuSans-64" d="M 2906 2969 
L 2906 4863 
L 3481 4863 
L 3481 0 
L 2906 0 
L 2906 525 
Q 2725 213 2448 61 
Q 2172 -91 1784 -91 
Q 1150 -91 751 415 
Q 353 922 353 1747 
Q 353 2572 751 3078 
Q 1150 3584 1784 3584 
Q 2172 3584 2448 3432 
Q 2725 3281 2906 2969 
z
M 947 1747 
Q 947 1113 1208 752 
Q 1469 391 1925 391 
Q 2381 391 2643 752 
Q 2906 1113 2906 1747 
Q 2906 2381 2643 2742 
Q 2381 3103 1925 3103 
Q 1469 3103 1208 2742 
Q 947 2381 947 1747 
z
" transform="scale(0.015625)"/>
       <path id="DejaVuSans-69" d="M 603 3500 
L 1178 3500 
L 1178 0 
L 603 0 
L 603 3500 
z
M 603 4863 
L 1178 4863 
L 1178 4134 
L 603 4134 
L 603 4863 
z
" transform="scale(0.015625)"/>
       <path id="DejaVuSans-6d" d="M 3328 2828 
Q 3544 3216 3844 3400 
Q 4144 3584 4550 3584 
Q 5097 3584 5394 3201 
Q 5691 2819 5691 2113 
L 5691 0 
L 5113 0 
L 5113 2094 
Q 5113 2597 4934 2840 
Q 4756 3084 4391 3084 
Q 3944 3084 3684 2787 
Q 3425 2491 3425 1978 
L 3425 0 
L 2847 0 
L 2847 2094 
Q 2847 2600 2669 2842 
Q 2491 3084 2119 3084 
Q 1678 3084 1418 2786 
Q 1159 2488 1159 1978 
L 1159 0 
L 581 0 
L 581 3500 
L 1159 3500 
L 1159 2956 
Q 1356 3278 1631 3431 
Q 1906 3584 2284 3584 
Q 2666 3584 2933 3390 
Q 3200 3197 3328 2828 
z
" transform="scale(0.015625)"/>
      </defs>
      <use xlink:href="#DejaVuSans-41"/>
      <use xlink:href="#DejaVuSans-76" x="62.533203"/>
      <use xlink:href="#DejaVuSans-65" x="121.712891"/>
      <use xlink:href="#DejaVuSans-72" x="183.236328"/>
      <use xlink:href="#DejaVuSans-61" x="224.349609"/>
      <use xlink:href="#DejaVuSans-67" x="285.628906"/>
      <use xlink:href="#DejaVuSans-65" x="349.105469"/>
      <use xlink:href="#DejaVuSans-20" x="410.628906"/>
      <use xlink:href="#DejaVuSans-64" x="442.416016"/>
      <use xlink:href="#DejaVuSans-69" x="505.892578"/>
      <use xlink:href="#DejaVuSans-73" x="533.675781"/>
      <use xlink:href="#DejaVuSans-63" x="585.775391"/>
      <use xlink:href="#DejaVuSans-72" x="640.755859"/>
      <use xlink:href="#DejaVuSans-69" x="681.869141"/>
      <use xlink:href="#DejaVuSans-6d" x="709.652344"/>
      <use xlink:href="#DejaVuSans-69" x="807.064453"/>
      <use xlink:href="#DejaVuSans-6e" x="834.847656"/>
      <use xlink:href="#DejaVuSans-61" x="898.226562"/>
      <use xlink:href="#DejaVuSans-74" x="959.505859"/>
      <use xlink:href="#DejaVuSans-6f" x="998.714844"/>
      <use xlink:href="#DejaVuSans-72" x="1059.896484"/>
      <use xlink:href="#DejaVuSans-20" x="1101.009766"/>
      <use xlink:href="#DejaVuSans-6c" x="1132.796875"/>
      <use xlink:href="#DejaVuSans-6f" x="1160.580078"/>
      <use xlink:href="#DejaVuSans-73" x="1221.761719"/>
      <use xlink:href="#DejaVuSans-73" x="1273.861328"/>
     </g>
    </g>
    <g id="line2d_32">
     <path d="M 245.124687 293.004312 
L 255.124687 293.004312 
L 265.124687 293.004312 
" style="fill: none; stroke: #ffff00; stroke-width: 3; stroke-linecap: square"/>
    </g>
    <g id="text_18">
     <!-- ROC AUC -->
     <g transform="translate(273.124687 296.504312) scale(0.1 -0.1)">
      <defs>
       <path id="DejaVuSans-52" d="M 2841 2188 
Q 3044 2119 3236 1894 
Q 3428 1669 3622 1275 
L 4263 0 
L 3584 0 
L 2988 1197 
Q 2756 1666 2539 1819 
Q 2322 1972 1947 1972 
L 1259 1972 
L 1259 0 
L 628 0 
L 628 4666 
L 2053 4666 
Q 2853 4666 3247 4331 
Q 3641 3997 3641 3322 
Q 3641 2881 3436 2590 
Q 3231 2300 2841 2188 
z
M 1259 4147 
L 1259 2491 
L 2053 2491 
Q 2509 2491 2742 2702 
Q 2975 2913 2975 3322 
Q 2975 3731 2742 3939 
Q 2509 4147 2053 4147 
L 1259 4147 
z
" transform="scale(0.015625)"/>
       <path id="DejaVuSans-4f" d="M 2522 4238 
Q 1834 4238 1429 3725 
Q 1025 3213 1025 2328 
Q 1025 1447 1429 934 
Q 1834 422 2522 422 
Q 3209 422 3611 934 
Q 4013 1447 4013 2328 
Q 4013 3213 3611 3725 
Q 3209 4238 2522 4238 
z
M 2522 4750 
Q 3503 4750 4090 4092 
Q 4678 3434 4678 2328 
Q 4678 1225 4090 567 
Q 3503 -91 2522 -91 
Q 1538 -91 948 565 
Q 359 1222 359 2328 
Q 359 3434 948 4092 
Q 1538 4750 2522 4750 
z
" transform="scale(0.015625)"/>
       <path id="DejaVuSans-43" d="M 4122 4306 
L 4122 3641 
Q 3803 3938 3442 4084 
Q 3081 4231 2675 4231 
Q 1875 4231 1450 3742 
Q 1025 3253 1025 2328 
Q 1025 1406 1450 917 
Q 1875 428 2675 428 
Q 3081 428 3442 575 
Q 3803 722 4122 1019 
L 4122 359 
Q 3791 134 3420 21 
Q 3050 -91 2638 -91 
Q 1578 -91 968 557 
Q 359 1206 359 2328 
Q 359 3453 968 4101 
Q 1578 4750 2638 4750 
Q 3056 4750 3426 4639 
Q 3797 4528 4122 4306 
z
" transform="scale(0.015625)"/>
       <path id="DejaVuSans-55" d="M 556 4666 
L 1191 4666 
L 1191 1831 
Q 1191 1081 1462 751 
Q 1734 422 2344 422 
Q 2950 422 3222 751 
Q 3494 1081 3494 1831 
L 3494 4666 
L 4128 4666 
L 4128 1753 
Q 4128 841 3676 375 
Q 3225 -91 2344 -91 
Q 1459 -91 1007 375 
Q 556 841 556 1753 
L 556 4666 
z
" transform="scale(0.015625)"/>
      </defs>
      <use xlink:href="#DejaVuSans-52"/>
      <use xlink:href="#DejaVuSans-4f" x="69.482422"/>
      <use xlink:href="#DejaVuSans-43" x="148.193359"/>
      <use xlink:href="#DejaVuSans-20" x="218.017578"/>
      <use xlink:href="#DejaVuSans-41" x="249.804688"/>
      <use xlink:href="#DejaVuSans-55" x="318.212891"/>
      <use xlink:href="#DejaVuSans-43" x="391.40625"/>
     </g>
    </g>
   </g>
  </g>
 </g>
 <defs>
  <clipPath id="pb6835f37b0">
   <rect x="57.6" y="41.472" width="357.12" height="266.112"/>
  </clipPath>
 </defs>
</svg>
