<?xml version="1.0" encoding="utf-8" standalone="no"?>
<!DOCTYPE svg PUBLIC "-//W3C//DTD SVG 1.1//EN"
  "http://www.w3.org/Graphics/SVG/1.1/DTD/svg11.dtd">
<svg xmlns:xlink="http://www.w3.org/1999/xlink" width="460.8pt" height="345.6pt" viewBox="0 0 460.8 345.6" xmlns="http://www.w3.org/2000/svg" version="1.1">
 <metadata>
  <rdf:RDF xmlns:dc="http://purl.org/dc/elements/1.1/" xmlns:cc="http://creativecommons.org/ns#" xmlns:rdf="http://www.w3.org/1999/02/22-rdf-syntax-ns#">
   <cc:Work>
    <dc:type rdf:resource="http://purl.org/dc/dcmitype/StillImage"/>
    <dc:date>2023-07-06T15:15:29.153059</dc:date>
    <dc:format>image/svg+xml</dc:format>
    <dc:creator>
     <cc:Agent>
      <dc:title>Matplotlib v3.7.1, https://matplotlib.org/</dc:title>
     </cc:Agent>
    </dc:creator>
   </cc:Work>
  </rdf:RDF>
 </metadata>
 <defs>
  <style type="text/css">*{stroke-linejoin: round; stroke-linecap: butt}</style>
 </defs>
 <g id="figure_1">
  <g id="patch_1">
   <path d="M 0 345.6 
L 460.8 345.6 
L 460.8 0 
L 0 0 
z
" style="fill: #ffffff"/>
  </g>
  <g id="axes_1">
   <g id="patch_2">
    <path d="M 57.6 307.584 
L 414.72 307.584 
L 414.72 41.472 
L 57.6 41.472 
z
" style="fill: #e5e5e5"/>
   </g>
   <g id="matplotlib.axis_1">
    <g id="xtick_1">
     <g id="line2d_1">
      <path d="M 73.2304 307.584 
L 73.2304 41.472 
" clip-path="url(#p4b9c5282cc)" style="fill: none; stroke: #ffffff; stroke-width: 0.8; stroke-linecap: square"/>
     </g>
     <g id="line2d_2">
      <defs>
       <path id="m7ca1eb7088" d="M 0 0 
L 0 3.5 
" style="stroke: #555555; stroke-width: 0.8"/>
      </defs>
      <g>
       <use xlink:href="#m7ca1eb7088" x="73.2304" y="307.584" style="fill: #555555; stroke: #555555; stroke-width: 0.8"/>
      </g>
     </g>
     <g id="text_1">
      <!-- 0 -->
      <g style="fill: #555555" transform="translate(70.04915 322.182437) scale(0.1 -0.1)">
       <defs>
        <path id="DejaVuSans-30" d="M 2034 4250 
Q 1547 4250 1301 3770 
Q 1056 3291 1056 2328 
Q 1056 1369 1301 889 
Q 1547 409 2034 409 
Q 2525 409 2770 889 
Q 3016 1369 3016 2328 
Q 3016 3291 2770 3770 
Q 2525 4250 2034 4250 
z
M 2034 4750 
Q 2819 4750 3233 4129 
Q 3647 3509 3647 2328 
Q 3647 1150 3233 529 
Q 2819 -91 2034 -91 
Q 1250 -91 836 529 
Q 422 1150 422 2328 
Q 422 3509 836 4129 
Q 1250 4750 2034 4750 
z
" transform="scale(0.015625)"/>
       </defs>
       <use xlink:href="#DejaVuSans-30"/>
      </g>
     </g>
    </g>
    <g id="xtick_2">
     <g id="line2d_3">
      <path d="M 133.463154 307.584 
L 133.463154 41.472 
" clip-path="url(#p4b9c5282cc)" style="fill: none; stroke: #ffffff; stroke-width: 0.8; stroke-linecap: square"/>
     </g>
     <g id="line2d_4">
      <g>
       <use xlink:href="#m7ca1eb7088" x="133.463154" y="307.584" style="fill: #555555; stroke: #555555; stroke-width: 0.8"/>
      </g>
     </g>
     <g id="text_2">
      <!-- 100 -->
      <g style="fill: #555555" transform="translate(123.919404 322.182437) scale(0.1 -0.1)">
       <defs>
        <path id="DejaVuSans-31" d="M 794 531 
L 1825 531 
L 1825 4091 
L 703 3866 
L 703 4441 
L 1819 4666 
L 2450 4666 
L 2450 531 
L 3481 531 
L 3481 0 
L 794 0 
L 794 531 
z
" transform="scale(0.015625)"/>
       </defs>
       <use xlink:href="#DejaVuSans-31"/>
       <use xlink:href="#DejaVuSans-30" x="63.623047"/>
       <use xlink:href="#DejaVuSans-30" x="127.246094"/>
      </g>
     </g>
    </g>
    <g id="xtick_3">
     <g id="line2d_5">
      <path d="M 193.695908 307.584 
L 193.695908 41.472 
" clip-path="url(#p4b9c5282cc)" style="fill: none; stroke: #ffffff; stroke-width: 0.8; stroke-linecap: square"/>
     </g>
     <g id="line2d_6">
      <g>
       <use xlink:href="#m7ca1eb7088" x="193.695908" y="307.584" style="fill: #555555; stroke: #555555; stroke-width: 0.8"/>
      </g>
     </g>
     <g id="text_3">
      <!-- 200 -->
      <g style="fill: #555555" transform="translate(184.152158 322.182437) scale(0.1 -0.1)">
       <defs>
        <path id="DejaVuSans-32" d="M 1228 531 
L 3431 531 
L 3431 0 
L 469 0 
L 469 531 
Q 828 903 1448 1529 
Q 2069 2156 2228 2338 
Q 2531 2678 2651 2914 
Q 2772 3150 2772 3378 
Q 2772 3750 2511 3984 
Q 2250 4219 1831 4219 
Q 1534 4219 1204 4116 
Q 875 4013 500 3803 
L 500 4441 
Q 881 4594 1212 4672 
Q 1544 4750 1819 4750 
Q 2544 4750 2975 4387 
Q 3406 4025 3406 3419 
Q 3406 3131 3298 2873 
Q 3191 2616 2906 2266 
Q 2828 2175 2409 1742 
Q 1991 1309 1228 531 
z
" transform="scale(0.015625)"/>
       </defs>
       <use xlink:href="#DejaVuSans-32"/>
       <use xlink:href="#DejaVuSans-30" x="63.623047"/>
       <use xlink:href="#DejaVuSans-30" x="127.246094"/>
      </g>
     </g>
    </g>
    <g id="xtick_4">
     <g id="line2d_7">
      <path d="M 253.928663 307.584 
L 253.928663 41.472 
" clip-path="url(#p4b9c5282cc)" style="fill: none; stroke: #ffffff; stroke-width: 0.8; stroke-linecap: square"/>
     </g>
     <g id="line2d_8">
      <g>
       <use xlink:href="#m7ca1eb7088" x="253.928663" y="307.584" style="fill: #555555; stroke: #555555; stroke-width: 0.8"/>
      </g>
     </g>
     <g id="text_4">
      <!-- 300 -->
      <g style="fill: #555555" transform="translate(244.384913 322.182437) scale(0.1 -0.1)">
       <defs>
        <path id="DejaVuSans-33" d="M 2597 2516 
Q 3050 2419 3304 2112 
Q 3559 1806 3559 1356 
Q 3559 666 3084 287 
Q 2609 -91 1734 -91 
Q 1441 -91 1130 -33 
Q 819 25 488 141 
L 488 750 
Q 750 597 1062 519 
Q 1375 441 1716 441 
Q 2309 441 2620 675 
Q 2931 909 2931 1356 
Q 2931 1769 2642 2001 
Q 2353 2234 1838 2234 
L 1294 2234 
L 1294 2753 
L 1863 2753 
Q 2328 2753 2575 2939 
Q 2822 3125 2822 3475 
Q 2822 3834 2567 4026 
Q 2313 4219 1838 4219 
Q 1578 4219 1281 4162 
Q 984 4106 628 3988 
L 628 4550 
Q 988 4650 1302 4700 
Q 1616 4750 1894 4750 
Q 2613 4750 3031 4423 
Q 3450 4097 3450 3541 
Q 3450 3153 3228 2886 
Q 3006 2619 2597 2516 
z
" transform="scale(0.015625)"/>
       </defs>
       <use xlink:href="#DejaVuSans-33"/>
       <use xlink:href="#DejaVuSans-30" x="63.623047"/>
       <use xlink:href="#DejaVuSans-30" x="127.246094"/>
      </g>
     </g>
    </g>
    <g id="xtick_5">
     <g id="line2d_9">
      <path d="M 314.161417 307.584 
L 314.161417 41.472 
" clip-path="url(#p4b9c5282cc)" style="fill: none; stroke: #ffffff; stroke-width: 0.8; stroke-linecap: square"/>
     </g>
     <g id="line2d_10">
      <g>
       <use xlink:href="#m7ca1eb7088" x="314.161417" y="307.584" style="fill: #555555; stroke: #555555; stroke-width: 0.8"/>
      </g>
     </g>
     <g id="text_5">
      <!-- 400 -->
      <g style="fill: #555555" transform="translate(304.617667 322.182437) scale(0.1 -0.1)">
       <defs>
        <path id="DejaVuSans-34" d="M 2419 4116 
L 825 1625 
L 2419 1625 
L 2419 4116 
z
M 2253 4666 
L 3047 4666 
L 3047 1625 
L 3713 1625 
L 3713 1100 
L 3047 1100 
L 3047 0 
L 2419 0 
L 2419 1100 
L 313 1100 
L 313 1709 
L 2253 4666 
z
" transform="scale(0.015625)"/>
       </defs>
       <use xlink:href="#DejaVuSans-34"/>
       <use xlink:href="#DejaVuSans-30" x="63.623047"/>
       <use xlink:href="#DejaVuSans-30" x="127.246094"/>
      </g>
     </g>
    </g>
    <g id="xtick_6">
     <g id="line2d_11">
      <path d="M 374.394171 307.584 
L 374.394171 41.472 
" clip-path="url(#p4b9c5282cc)" style="fill: none; stroke: #ffffff; stroke-width: 0.8; stroke-linecap: square"/>
     </g>
     <g id="line2d_12">
      <g>
       <use xlink:href="#m7ca1eb7088" x="374.394171" y="307.584" style="fill: #555555; stroke: #555555; stroke-width: 0.8"/>
      </g>
     </g>
     <g id="text_6">
      <!-- 500 -->
      <g style="fill: #555555" transform="translate(364.850421 322.182437) scale(0.1 -0.1)">
       <defs>
        <path id="DejaVuSans-35" d="M 691 4666 
L 3169 4666 
L 3169 4134 
L 1269 4134 
L 1269 2991 
Q 1406 3038 1543 3061 
Q 1681 3084 1819 3084 
Q 2600 3084 3056 2656 
Q 3513 2228 3513 1497 
Q 3513 744 3044 326 
Q 2575 -91 1722 -91 
Q 1428 -91 1123 -41 
Q 819 9 494 109 
L 494 744 
Q 775 591 1075 516 
Q 1375 441 1709 441 
Q 2250 441 2565 725 
Q 2881 1009 2881 1497 
Q 2881 1984 2565 2268 
Q 2250 2553 1709 2553 
Q 1456 2553 1204 2497 
Q 953 2441 691 2322 
L 691 4666 
z
" transform="scale(0.015625)"/>
       </defs>
       <use xlink:href="#DejaVuSans-35"/>
       <use xlink:href="#DejaVuSans-30" x="63.623047"/>
       <use xlink:href="#DejaVuSans-30" x="127.246094"/>
      </g>
     </g>
    </g>
    <g id="text_7">
     <!-- Epoch -->
     <g style="fill: #555555" transform="translate(217.786875 337.38025) scale(0.12 -0.12)">
      <defs>
       <path id="DejaVuSans-45" d="M 628 4666 
L 3578 4666 
L 3578 4134 
L 1259 4134 
L 1259 2753 
L 3481 2753 
L 3481 2222 
L 1259 2222 
L 1259 531 
L 3634 531 
L 3634 0 
L 628 0 
L 628 4666 
z
" transform="scale(0.015625)"/>
       <path id="DejaVuSans-70" d="M 1159 525 
L 1159 -1331 
L 581 -1331 
L 581 3500 
L 1159 3500 
L 1159 2969 
Q 1341 3281 1617 3432 
Q 1894 3584 2278 3584 
Q 2916 3584 3314 3078 
Q 3713 2572 3713 1747 
Q 3713 922 3314 415 
Q 2916 -91 2278 -91 
Q 1894 -91 1617 61 
Q 1341 213 1159 525 
z
M 3116 1747 
Q 3116 2381 2855 2742 
Q 2594 3103 2138 3103 
Q 1681 3103 1420 2742 
Q 1159 2381 1159 1747 
Q 1159 1113 1420 752 
Q 1681 391 2138 391 
Q 2594 391 2855 752 
Q 3116 1113 3116 1747 
z
" transform="scale(0.015625)"/>
       <path id="DejaVuSans-6f" d="M 1959 3097 
Q 1497 3097 1228 2736 
Q 959 2375 959 1747 
Q 959 1119 1226 758 
Q 1494 397 1959 397 
Q 2419 397 2687 759 
Q 2956 1122 2956 1747 
Q 2956 2369 2687 2733 
Q 2419 3097 1959 3097 
z
M 1959 3584 
Q 2709 3584 3137 3096 
Q 3566 2609 3566 1747 
Q 3566 888 3137 398 
Q 2709 -91 1959 -91 
Q 1206 -91 779 398 
Q 353 888 353 1747 
Q 353 2609 779 3096 
Q 1206 3584 1959 3584 
z
" transform="scale(0.015625)"/>
       <path id="DejaVuSans-63" d="M 3122 3366 
L 3122 2828 
Q 2878 2963 2633 3030 
Q 2388 3097 2138 3097 
Q 1578 3097 1268 2742 
Q 959 2388 959 1747 
Q 959 1106 1268 751 
Q 1578 397 2138 397 
Q 2388 397 2633 464 
Q 2878 531 3122 666 
L 3122 134 
Q 2881 22 2623 -34 
Q 2366 -91 2075 -91 
Q 1284 -91 818 406 
Q 353 903 353 1747 
Q 353 2603 823 3093 
Q 1294 3584 2113 3584 
Q 2378 3584 2631 3529 
Q 2884 3475 3122 3366 
z
" transform="scale(0.015625)"/>
       <path id="DejaVuSans-68" d="M 3513 2113 
L 3513 0 
L 2938 0 
L 2938 2094 
Q 2938 2591 2744 2837 
Q 2550 3084 2163 3084 
Q 1697 3084 1428 2787 
Q 1159 2491 1159 1978 
L 1159 0 
L 581 0 
L 581 4863 
L 1159 4863 
L 1159 2956 
Q 1366 3272 1645 3428 
Q 1925 3584 2291 3584 
Q 2894 3584 3203 3211 
Q 3513 2838 3513 2113 
z
" transform="scale(0.015625)"/>
      </defs>
      <use xlink:href="#DejaVuSans-45"/>
      <use xlink:href="#DejaVuSans-70" x="63.183594"/>
      <use xlink:href="#DejaVuSans-6f" x="126.660156"/>
      <use xlink:href="#DejaVuSans-63" x="187.841797"/>
      <use xlink:href="#DejaVuSans-68" x="242.822266"/>
     </g>
    </g>
   </g>
   <g id="matplotlib.axis_2">
    <g id="ytick_1">
     <g id="line2d_13">
      <path d="M 57.6 306.535602 
L 414.72 306.535602 
" clip-path="url(#p4b9c5282cc)" style="fill: none; stroke: #ffffff; stroke-width: 0.8; stroke-linecap: square"/>
     </g>
     <g id="line2d_14">
      <defs>
       <path id="mcc31e7da62" d="M 0 0 
L -3.5 0 
" style="stroke: #555555; stroke-width: 0.8"/>
      </defs>
      <g>
       <use xlink:href="#mcc31e7da62" x="57.6" y="306.535602" style="fill: #555555; stroke: #555555; stroke-width: 0.8"/>
      </g>
     </g>
     <g id="text_8">
      <!-- 0.0 -->
      <g style="fill: #555555" transform="translate(34.696875 310.334821) scale(0.1 -0.1)">
       <defs>
        <path id="DejaVuSans-2e" d="M 684 794 
L 1344 794 
L 1344 0 
L 684 0 
L 684 794 
z
" transform="scale(0.015625)"/>
       </defs>
       <use xlink:href="#DejaVuSans-30"/>
       <use xlink:href="#DejaVuSans-2e" x="63.623047"/>
       <use xlink:href="#DejaVuSans-30" x="95.410156"/>
      </g>
     </g>
    </g>
    <g id="ytick_2">
     <g id="line2d_15">
      <path d="M 57.6 266.495233 
L 414.72 266.495233 
" clip-path="url(#p4b9c5282cc)" style="fill: none; stroke: #ffffff; stroke-width: 0.8; stroke-linecap: square"/>
     </g>
     <g id="line2d_16">
      <g>
       <use xlink:href="#mcc31e7da62" x="57.6" y="266.495233" style="fill: #555555; stroke: #555555; stroke-width: 0.8"/>
      </g>
     </g>
     <g id="text_9">
      <!-- 0.5 -->
      <g style="fill: #555555" transform="translate(34.696875 270.294452) scale(0.1 -0.1)">
       <use xlink:href="#DejaVuSans-30"/>
       <use xlink:href="#DejaVuSans-2e" x="63.623047"/>
       <use xlink:href="#DejaVuSans-35" x="95.410156"/>
      </g>
     </g>
    </g>
    <g id="ytick_3">
     <g id="line2d_17">
      <path d="M 57.6 226.454864 
L 414.72 226.454864 
" clip-path="url(#p4b9c5282cc)" style="fill: none; stroke: #ffffff; stroke-width: 0.8; stroke-linecap: square"/>
     </g>
     <g id="line2d_18">
      <g>
       <use xlink:href="#mcc31e7da62" x="57.6" y="226.454864" style="fill: #555555; stroke: #555555; stroke-width: 0.8"/>
      </g>
     </g>
     <g id="text_10">
      <!-- 1.0 -->
      <g style="fill: #555555" transform="translate(34.696875 230.254083) scale(0.1 -0.1)">
       <use xlink:href="#DejaVuSans-31"/>
       <use xlink:href="#DejaVuSans-2e" x="63.623047"/>
       <use xlink:href="#DejaVuSans-30" x="95.410156"/>
      </g>
     </g>
    </g>
    <g id="ytick_4">
     <g id="line2d_19">
      <path d="M 57.6 186.414495 
L 414.72 186.414495 
" clip-path="url(#p4b9c5282cc)" style="fill: none; stroke: #ffffff; stroke-width: 0.8; stroke-linecap: square"/>
     </g>
     <g id="line2d_20">
      <g>
       <use xlink:href="#mcc31e7da62" x="57.6" y="186.414495" style="fill: #555555; stroke: #555555; stroke-width: 0.8"/>
      </g>
     </g>
     <g id="text_11">
      <!-- 1.5 -->
      <g style="fill: #555555" transform="translate(34.696875 190.213714) scale(0.1 -0.1)">
       <use xlink:href="#DejaVuSans-31"/>
       <use xlink:href="#DejaVuSans-2e" x="63.623047"/>
       <use xlink:href="#DejaVuSans-35" x="95.410156"/>
      </g>
     </g>
    </g>
    <g id="ytick_5">
     <g id="line2d_21">
      <path d="M 57.6 146.374126 
L 414.72 146.374126 
" clip-path="url(#p4b9c5282cc)" style="fill: none; stroke: #ffffff; stroke-width: 0.8; stroke-linecap: square"/>
     </g>
     <g id="line2d_22">
      <g>
       <use xlink:href="#mcc31e7da62" x="57.6" y="146.374126" style="fill: #555555; stroke: #555555; stroke-width: 0.8"/>
      </g>
     </g>
     <g id="text_12">
      <!-- 2.0 -->
      <g style="fill: #555555" transform="translate(34.696875 150.173345) scale(0.1 -0.1)">
       <use xlink:href="#DejaVuSans-32"/>
       <use xlink:href="#DejaVuSans-2e" x="63.623047"/>
       <use xlink:href="#DejaVuSans-30" x="95.410156"/>
      </g>
     </g>
    </g>
    <g id="ytick_6">
     <g id="line2d_23">
      <path d="M 57.6 106.333757 
L 414.72 106.333757 
" clip-path="url(#p4b9c5282cc)" style="fill: none; stroke: #ffffff; stroke-width: 0.8; stroke-linecap: square"/>
     </g>
     <g id="line2d_24">
      <g>
       <use xlink:href="#mcc31e7da62" x="57.6" y="106.333757" style="fill: #555555; stroke: #555555; stroke-width: 0.8"/>
      </g>
     </g>
     <g id="text_13">
      <!-- 2.5 -->
      <g style="fill: #555555" transform="translate(34.696875 110.132976) scale(0.1 -0.1)">
       <use xlink:href="#DejaVuSans-32"/>
       <use xlink:href="#DejaVuSans-2e" x="63.623047"/>
       <use xlink:href="#DejaVuSans-35" x="95.410156"/>
      </g>
     </g>
    </g>
    <g id="ytick_7">
     <g id="line2d_25">
      <path d="M 57.6 66.293389 
L 414.72 66.293389 
" clip-path="url(#p4b9c5282cc)" style="fill: none; stroke: #ffffff; stroke-width: 0.8; stroke-linecap: square"/>
     </g>
     <g id="line2d_26">
      <g>
       <use xlink:href="#mcc31e7da62" x="57.6" y="66.293389" style="fill: #555555; stroke: #555555; stroke-width: 0.8"/>
      </g>
     </g>
     <g id="text_14">
      <!-- 3.0 -->
      <g style="fill: #555555" transform="translate(34.696875 70.092607) scale(0.1 -0.1)">
       <use xlink:href="#DejaVuSans-33"/>
       <use xlink:href="#DejaVuSans-2e" x="63.623047"/>
       <use xlink:href="#DejaVuSans-30" x="95.410156"/>
      </g>
     </g>
    </g>
    <g id="text_15">
     <!-- Loss -->
     <g style="fill: #555555" transform="translate(28.20125 187.688625) rotate(-90) scale(0.12 -0.12)">
      <defs>
       <path id="DejaVuSans-4c" d="M 628 4666 
L 1259 4666 
L 1259 531 
L 3531 531 
L 3531 0 
L 628 0 
L 628 4666 
z
" transform="scale(0.015625)"/>
       <path id="DejaVuSans-73" d="M 2834 3397 
L 2834 2853 
Q 2591 2978 2328 3040 
Q 2066 3103 1784 3103 
Q 1356 3103 1142 2972 
Q 928 2841 928 2578 
Q 928 2378 1081 2264 
Q 1234 2150 1697 2047 
L 1894 2003 
Q 2506 1872 2764 1633 
Q 3022 1394 3022 966 
Q 3022 478 2636 193 
Q 2250 -91 1575 -91 
Q 1294 -91 989 -36 
Q 684 19 347 128 
L 347 722 
Q 666 556 975 473 
Q 1284 391 1588 391 
Q 1994 391 2212 530 
Q 2431 669 2431 922 
Q 2431 1156 2273 1281 
Q 2116 1406 1581 1522 
L 1381 1569 
Q 847 1681 609 1914 
Q 372 2147 372 2553 
Q 372 3047 722 3315 
Q 1072 3584 1716 3584 
Q 2034 3584 2315 3537 
Q 2597 3491 2834 3397 
z
" transform="scale(0.015625)"/>
      </defs>
      <use xlink:href="#DejaVuSans-4c"/>
      <use xlink:href="#DejaVuSans-6f" x="53.962891"/>
      <use xlink:href="#DejaVuSans-73" x="115.144531"/>
      <use xlink:href="#DejaVuSans-73" x="167.244141"/>
     </g>
    </g>
   </g>
   <g id="line2d_27">
    <path d="M 73.832727 250.21685 
L 76.242037 250.480512 
L 82.86764 251.307765 
L 84.674623 251.373772 
L 87.686261 251.152088 
L 88.890916 250.999352 
L 90.095571 250.706306 
L 91.300226 250.506945 
L 93.107209 250.153765 
L 95.516519 249.645507 
L 110.574707 246.213215 
L 112.38169 245.983841 
L 113.586345 245.698269 
L 117.20031 245.409147 
L 117.802638 245.199435 
L 119.609621 245.157876 
L 120.211948 244.975853 
L 121.416603 244.992271 
L 122.018931 244.834596 
L 122.621258 244.940954 
L 127.439879 244.40925 
L 128.042206 244.509283 
L 131.656171 244.037085 
L 132.258499 244.08767 
L 132.860826 243.786478 
L 134.065482 243.658377 
L 135.872464 243.372555 
L 136.474792 243.367708 
L 137.679447 242.940137 
L 138.281774 243.068603 
L 138.884102 243.005151 
L 140.088757 242.490652 
L 140.691084 242.511105 
L 141.89574 242.197185 
L 143.100395 242.128103 
L 145.509705 241.674899 
L 146.112032 241.874895 
L 148.521343 241.029479 
L 151.53298 240.653082 
L 152.135308 240.21866 
L 153.94229 240.01072 
L 154.544618 239.802187 
L 155.146946 239.777584 
L 157.556256 238.968301 
L 158.158583 238.939166 
L 159.363238 238.70573 
L 159.965566 238.633882 
L 160.567893 238.412866 
L 161.170221 238.427281 
L 161.772548 238.127788 
L 162.374876 238.232671 
L 162.977204 237.75405 
L 164.181859 237.740774 
L 165.386514 237.590991 
L 166.591169 236.712167 
L 167.193496 236.711277 
L 167.795824 236.498725 
L 169.000479 235.582868 
L 169.602807 235.121219 
L 170.205134 235.242816 
L 170.807462 234.878754 
L 172.012117 235.423563 
L 172.614444 235.26465 
L 173.216772 235.640268 
L 173.819099 235.3192 
L 174.421427 235.722435 
L 175.626082 235.4465 
L 176.22841 235.853357 
L 176.830737 235.597934 
L 177.433065 234.777679 
L 178.035392 234.791055 
L 178.63772 234.470004 
L 179.842375 233.546966 
L 180.444702 232.781196 
L 181.04703 232.455826 
L 181.649357 231.534519 
L 182.251685 231.334355 
L 182.854012 231.005275 
L 184.058668 224.819054 
L 184.660995 223.247303 
L 185.86565 222.033183 
L 186.467978 221.643979 
L 187.070305 221.615861 
L 187.672633 219.675731 
L 188.27496 219.896937 
L 188.877288 217.742247 
L 189.479615 216.690939 
L 190.081943 215.169159 
L 191.286598 211.380304 
L 191.888926 210.613891 
L 192.491253 208.406902 
L 193.093581 207.968621 
L 193.695908 206.670242 
L 194.298236 204.450204 
L 194.900563 204.592015 
L 195.502891 202.94994 
L 196.105218 202.230992 
L 196.707546 200.326041 
L 197.309874 199.536625 
L 197.912201 198.011522 
L 198.514529 194.985751 
L 199.116856 195.181765 
L 199.719184 193.065954 
L 200.321511 192.369521 
L 200.923839 190.288133 
L 201.526166 189.695729 
L 202.128494 186.615082 
L 202.730821 185.832419 
L 203.333149 185.591249 
L 203.935476 181.933201 
L 204.537804 182.519726 
L 205.140132 182.943461 
L 205.742459 179.215667 
L 206.344787 178.737986 
L 206.947114 176.434692 
L 207.549442 175.923688 
L 208.151769 175.565459 
L 208.754097 175.761646 
L 209.356424 174.769853 
L 209.958752 172.196316 
L 210.561079 170.786345 
L 211.163407 169.009911 
L 211.765735 168.60722 
L 212.368062 167.485367 
L 212.97039 166.834964 
L 213.572717 166.370498 
L 214.175045 163.272431 
L 214.777372 164.146766 
L 215.3797 161.34652 
L 216.584355 160.563922 
L 217.78901 157.618333 
L 218.391337 158.128907 
L 218.993665 155.421133 
L 219.595993 157.212324 
L 220.19832 153.793697 
L 220.800648 154.56469 
L 221.402975 152.875285 
L 222.005303 152.930362 
L 223.209958 148.981341 
L 223.812285 149.412208 
L 224.414613 147.608959 
L 225.01694 149.01073 
L 225.619268 146.634698 
L 226.221596 146.093893 
L 226.823923 148.213648 
L 227.426251 147.40008 
L 228.028578 143.454463 
L 228.630906 146.231614 
L 229.233233 143.228077 
L 229.835561 142.524672 
L 230.437888 140.270381 
L 231.040216 139.573699 
L 231.642543 139.411321 
L 232.847199 138.499163 
L 233.449526 137.631538 
L 234.051854 140.450743 
L 234.654181 139.127648 
L 235.256509 136.988181 
L 235.858836 136.857398 
L 236.461164 132.92392 
L 237.063491 135.589054 
L 237.665819 135.489274 
L 238.268146 134.37379 
L 238.870474 132.159732 
L 239.472801 131.267568 
L 240.075129 131.160712 
L 241.279784 133.389785 
L 241.882112 133.644047 
L 242.484439 129.38461 
L 243.086767 128.510659 
L 243.689094 129.147937 
L 244.291422 129.068035 
L 244.893749 129.690657 
L 245.496077 126.740703 
L 246.098404 125.389115 
L 246.700732 124.317444 
L 247.905387 129.32063 
L 248.507715 125.094272 
L 249.110042 125.934349 
L 249.71237 120.716699 
L 250.314697 122.183313 
L 250.917025 124.564953 
L 251.519352 122.682082 
L 252.12168 121.961448 
L 252.724007 122.016406 
L 253.326335 120.886643 
L 253.928663 118.414577 
L 254.53099 121.794547 
L 255.735645 118.230111 
L 256.337973 122.950918 
L 256.9403 115.008002 
L 257.542628 115.765599 
L 258.144955 117.797798 
L 258.747283 115.541905 
L 259.34961 116.300832 
L 259.951938 116.391372 
L 260.554265 118.341013 
L 261.156593 117.596692 
L 261.758921 114.322597 
L 262.361248 114.797823 
L 262.963576 113.258038 
L 263.565903 115.19129 
L 264.168231 113.115556 
L 264.770558 112.969594 
L 265.372886 111.64145 
L 265.975213 114.730216 
L 266.577541 110.99518 
L 267.782196 110.300258 
L 268.384524 110.166911 
L 268.986851 112.467219 
L 269.589179 105.396203 
L 270.191506 108.594916 
L 270.793834 108.757185 
L 271.396161 109.260223 
L 271.998489 111.963652 
L 272.600816 106.986744 
L 273.203144 110.13716 
L 273.805471 104.43618 
L 274.407799 107.267896 
L 275.010126 102.436411 
L 275.612454 101.785135 
L 276.214782 105.661143 
L 276.817109 108.177826 
L 277.419437 104.418067 
L 278.021764 101.686143 
L 278.624092 103.590047 
L 279.226419 101.509048 
L 280.431074 104.444547 
L 281.033402 99.351475 
L 281.635729 100.714424 
L 282.238057 102.970192 
L 282.840385 101.682435 
L 283.442712 97.845186 
L 284.04504 102.177326 
L 284.647367 99.417905 
L 285.249695 102.358476 
L 285.852022 100.880603 
L 286.45435 95.905435 
L 287.056677 99.229916 
L 287.659005 101.096223 
L 288.261332 101.392739 
L 288.86366 94.92493 
L 289.465988 99.944074 
L 290.068315 96.773855 
L 290.670643 96.166358 
L 291.27297 93.507932 
L 291.875298 95.446079 
L 292.477625 95.659559 
L 293.079953 94.310504 
L 294.284608 95.521803 
L 294.886935 93.463266 
L 295.489263 95.827428 
L 296.09159 91.649107 
L 296.693918 95.186017 
L 297.296246 93.728065 
L 297.898573 90.478751 
L 298.500901 95.360771 
L 299.103228 87.771424 
L 299.705556 88.992916 
L 300.307883 91.747304 
L 300.910211 89.998423 
L 301.512538 92.532686 
L 302.114866 93.623613 
L 302.717193 94.002386 
L 303.319521 87.609038 
L 303.921849 95.133525 
L 304.524176 87.086321 
L 305.126504 91.714112 
L 305.728831 88.915661 
L 306.331159 87.991884 
L 306.933486 87.746851 
L 307.535814 85.471835 
L 308.138141 86.978594 
L 308.740469 85.004086 
L 309.342796 88.113208 
L 309.945124 89.284477 
L 310.547452 87.186371 
L 311.149779 82.860894 
L 311.752107 86.371863 
L 312.956762 86.048554 
L 313.559089 88.030858 
L 314.161417 82.849769 
L 314.763744 85.096314 
L 315.968399 84.882131 
L 316.570727 85.630509 
L 317.173054 81.432296 
L 317.775382 84.152306 
L 318.37771 82.872716 
L 319.582365 81.018604 
L 320.184692 83.509814 
L 320.78702 83.358222 
L 321.389347 84.677931 
L 321.991675 81.623091 
L 322.594002 84.137375 
L 323.19633 77.240518 
L 323.798657 81.16944 
L 324.400985 83.102889 
L 325.003313 78.975421 
L 325.60564 79.529366 
L 326.207968 83.527555 
L 326.810295 77.748495 
L 327.412623 78.522986 
L 328.01495 78.837343 
L 328.617278 77.850006 
L 329.219605 76.116689 
L 329.821933 77.417592 
L 330.42426 77.069878 
L 331.026588 81.554491 
L 331.628916 77.65467 
L 332.231243 78.890063 
L 333.435898 76.700919 
L 334.038226 75.043664 
L 334.640553 74.828987 
L 335.242881 75.033138 
L 335.845208 77.06619 
L 336.447536 78.498609 
L 337.049863 77.276101 
L 337.652191 75.682543 
L 338.254518 78.038396 
L 339.459174 75.605672 
L 340.061501 72.078048 
L 340.663829 75.339313 
L 341.266156 72.948941 
L 341.868484 74.328738 
L 342.470811 72.72701 
L 343.073139 76.16001 
L 343.675466 77.211932 
L 344.277794 68.672672 
L 344.880121 76.658044 
L 345.482449 68.508386 
L 346.084777 71.597942 
L 346.687104 69.33472 
L 347.289432 68.034077 
L 347.891759 69.649468 
L 348.494087 71.869143 
L 349.096414 69.605214 
L 349.698742 70.217828 
L 350.903397 74.166011 
L 352.108052 69.889864 
L 352.710379 67.683023 
L 353.312707 70.109003 
L 353.915035 69.828202 
L 354.517362 67.104181 
L 355.11969 67.419226 
L 355.722017 69.691628 
L 356.324345 69.57152 
L 356.926672 66.818049 
L 357.529 69.670218 
L 358.733655 66.245599 
L 359.335982 70.317832 
L 359.93831 69.566796 
L 360.540638 69.702958 
L 361.142965 69.181528 
L 361.745293 63.582907 
L 362.34762 62.778607 
L 362.949948 65.284941 
L 363.552275 72.530057 
L 364.154603 65.807536 
L 364.75693 69.589501 
L 365.359258 65.862488 
L 365.961585 64.107771 
L 366.563913 67.709172 
L 367.166241 61.53407 
L 367.768568 61.653945 
L 368.973223 67.391118 
L 369.575551 60.562906 
L 370.177878 64.69328 
L 370.780206 62.99345 
L 371.382533 65.25466 
L 371.984861 64.923779 
L 372.587188 65.409135 
L 373.189516 60.813117 
L 373.791843 63.515793 
L 374.394171 65.092181 
L 374.996499 67.617015 
L 376.803481 58.139633 
L 377.405809 60.327955 
L 378.008136 64.089098 
L 378.610464 64.030865 
L 379.212791 61.065198 
L 379.815119 62.051765 
L 380.417446 58.809647 
L 381.019774 59.981258 
L 381.622102 63.460512 
L 382.224429 65.719885 
L 382.826757 56.635985 
L 383.429084 60.383893 
L 384.031412 58.760625 
L 384.633739 59.226457 
L 385.236067 57.702276 
L 385.838394 57.498144 
L 386.440722 56.956709 
L 387.043049 57.122292 
L 387.645377 57.767382 
L 388.247705 58.771118 
L 388.850032 60.342194 
L 389.45236 61.337289 
L 390.054687 55.337423 
L 390.657015 58.460284 
L 391.259342 59.377018 
L 391.86167 58.956501 
L 392.463997 53.568 
L 393.066325 62.994133 
L 393.668652 57.789606 
L 394.27098 54.647041 
L 394.873307 55.065936 
L 395.475635 54.368929 
L 396.68029 61.133103 
L 397.282618 54.392184 
L 397.884945 56.198738 
L 398.487273 54.814996 
L 398.487273 54.814996 
" clip-path="url(#p4b9c5282cc)" style="fill: none; stroke: #6495ed; stroke-width: 2; stroke-linecap: square"/>
   </g>
   <g id="line2d_28">
    <path d="M 73.832727 250.667988 
L 76.242037 250.849023 
L 80.45833 251.343797 
L 82.265313 251.485671 
L 84.072295 251.660135 
L 84.674623 251.588222 
L 85.276951 251.732714 
L 87.083933 251.808734 
L 87.686261 251.860337 
L 88.288588 251.777256 
L 88.890916 251.952712 
L 91.902554 251.988609 
L 92.504881 252.210962 
L 94.311864 252.224582 
L 94.914191 252.286481 
L 95.516519 252.183029 
L 96.118846 252.411427 
L 99.130484 252.390215 
L 99.732812 252.664351 
L 100.335139 252.600245 
L 102.142122 252.766886 
L 102.744449 252.650083 
L 103.346777 252.897522 
L 104.551432 252.909597 
L 109.97238 253.317624 
L 110.574707 253.515478 
L 111.779362 253.556068 
L 112.38169 253.566131 
L 112.984018 253.712411 
L 113.586345 253.660679 
L 114.188673 253.805522 
L 115.995655 253.854292 
L 116.597983 253.996778 
L 117.20031 253.938143 
L 117.802638 254.111811 
L 119.609621 254.172379 
L 120.211948 254.307045 
L 121.416603 254.317823 
L 122.018931 254.411952 
L 123.223586 254.425534 
L 126.837551 254.703384 
L 127.439879 254.817183 
L 128.644534 254.828519 
L 131.656171 255.166704 
L 132.258499 255.129188 
L 132.860826 255.323492 
L 135.872464 255.601219 
L 141.89574 256.493686 
L 142.498067 256.416499 
L 143.702722 256.697462 
L 145.509705 256.990621 
L 146.112032 256.798195 
L 146.71436 257.07742 
L 147.919015 257.3353 
L 149.12367 257.5187 
L 149.725998 257.378613 
L 150.328325 257.735459 
L 151.53298 257.797881 
L 152.737635 258.061009 
L 153.339963 257.900664 
L 153.94229 258.211887 
L 156.351601 258.479222 
L 156.953928 258.366381 
L 157.556256 258.759527 
L 158.760911 258.793733 
L 159.965566 258.967226 
L 160.567893 258.85081 
L 161.170221 259.128763 
L 161.772548 259.229786 
L 162.374876 259.157415 
L 162.977204 259.391176 
L 163.579531 259.492368 
L 164.181859 259.325571 
L 164.784186 259.622146 
L 165.988841 259.844601 
L 167.193496 260.275199 
L 167.795824 260.176654 
L 168.398151 260.59426 
L 169.602807 260.998747 
L 170.205134 261.039727 
L 170.807462 261.354317 
L 171.409789 261.055427 
L 172.614444 261.40893 
L 173.216772 261.234385 
L 173.819099 261.468685 
L 174.421427 261.51694 
L 175.023754 261.318914 
L 175.626082 261.552843 
L 176.22841 261.44348 
L 176.830737 261.57913 
L 178.035392 262.023246 
L 178.63772 261.83809 
L 179.240047 262.256254 
L 181.04703 262.966563 
L 181.649357 263.521674 
L 182.251685 263.317805 
L 182.854012 263.845256 
L 184.058668 265.358156 
L 185.263323 266.454028 
L 185.86565 266.698418 
L 186.467978 267.710037 
L 187.070305 268.135761 
L 187.672633 269.025823 
L 188.27496 269.254843 
L 188.877288 269.966763 
L 189.479615 270.059301 
L 190.081943 270.8998 
L 191.286598 271.876603 
L 191.888926 271.987243 
L 192.491253 272.551724 
L 193.093581 272.575157 
L 193.695908 273.506496 
L 194.298236 274.217204 
L 194.900563 274.282856 
L 195.502891 274.709607 
L 196.707546 275.097948 
L 197.309874 275.933231 
L 197.912201 276.181225 
L 198.514529 276.900944 
L 199.116856 276.636157 
L 199.719184 277.090264 
L 200.321511 276.788691 
L 200.923839 277.796089 
L 201.526166 277.959925 
L 202.128494 278.324865 
L 202.730821 278.498998 
L 203.333149 278.415836 
L 203.935476 279.037153 
L 204.537804 279.440329 
L 205.140132 279.430344 
L 205.742459 279.976144 
L 206.344787 280.034488 
L 206.947114 280.345154 
L 207.549442 280.227805 
L 208.151769 280.958525 
L 209.356424 280.998383 
L 209.958752 281.271075 
L 211.163407 281.514508 
L 211.765735 282.131379 
L 212.97039 282.320201 
L 213.572717 282.121496 
L 214.175045 282.492572 
L 214.777372 282.022625 
L 215.3797 282.882412 
L 215.982027 283.420454 
L 216.584355 283.366888 
L 217.186682 283.190924 
L 217.78901 283.591132 
L 218.391337 283.144209 
L 218.993665 284.275874 
L 219.595993 283.956842 
L 220.19832 284.403848 
L 220.800648 284.058161 
L 221.402975 284.486526 
L 222.005303 283.936499 
L 222.60763 284.748418 
L 223.209958 285.050963 
L 223.812285 284.774415 
L 224.414613 284.911778 
L 225.01694 284.914302 
L 225.619268 284.494769 
L 226.221596 285.534604 
L 226.823923 285.278665 
L 227.426251 285.313817 
L 228.028578 285.616105 
L 228.630906 285.235487 
L 229.233233 285.164771 
L 229.835561 285.861816 
L 230.437888 286.122136 
L 231.040216 285.968409 
L 231.642543 286.512481 
L 232.847199 285.957456 
L 233.449526 286.760491 
L 234.051854 286.367129 
L 236.461164 286.592231 
L 237.063491 286.994228 
L 238.870474 287.334657 
L 240.075129 287.059006 
L 240.677457 287.547764 
L 241.279784 287.534443 
L 241.882112 287.30553 
L 243.086767 287.572712 
L 243.689094 287.366559 
L 244.291422 287.987033 
L 245.496077 288.157886 
L 246.700732 288.094106 
L 247.30306 287.636766 
L 247.905387 288.318533 
L 249.110042 288.64577 
L 249.71237 288.522755 
L 250.314697 288.614575 
L 250.917025 288.209292 
L 252.12168 288.923791 
L 253.326335 288.82438 
L 253.928663 288.950602 
L 254.53099 288.458223 
L 255.735645 289.302399 
L 256.337973 289.017351 
L 257.542628 289.489536 
L 258.144955 288.731142 
L 258.747283 289.796267 
L 259.951938 289.749696 
L 260.554265 289.182919 
L 261.156593 289.43761 
L 261.758921 289.321199 
L 262.963576 289.905556 
L 263.565903 289.682233 
L 264.770558 290.117628 
L 265.372886 289.535592 
L 266.577541 290.288748 
L 267.782196 290.24689 
L 268.384524 290.175738 
L 268.986851 289.436963 
L 269.589179 290.544647 
L 270.793834 290.3274 
L 271.396161 290.412535 
L 271.998489 290.338659 
L 272.600816 290.117405 
L 273.805471 290.894389 
L 274.407799 290.626227 
L 275.612454 291.014341 
L 276.214782 290.099544 
L 276.817109 290.702225 
L 277.419437 291.040557 
L 278.021764 291.099531 
L 278.624092 290.972386 
L 279.226419 291.157774 
L 279.828747 290.836606 
L 280.431074 291.20024 
L 281.033402 291.208306 
L 281.635729 291.08335 
L 282.840385 291.134964 
L 283.442712 290.851863 
L 284.04504 291.085568 
L 284.647367 291.529828 
L 285.249695 291.216326 
L 285.852022 291.311078 
L 286.45435 291.678453 
L 287.056677 290.990885 
L 287.659005 291.473005 
L 288.261332 291.404303 
L 288.86366 291.689383 
L 289.465988 291.204264 
L 290.068315 291.630628 
L 290.670643 291.240079 
L 291.27297 291.821787 
L 291.875298 291.993785 
L 293.079953 291.807945 
L 293.68228 291.863014 
L 294.284608 291.319382 
L 294.886935 291.930783 
L 295.489263 291.955504 
L 296.09159 292.160621 
L 296.693918 291.94321 
L 297.296246 292.186609 
L 297.898573 291.788303 
L 298.500901 291.845484 
L 299.103228 292.18731 
L 299.705556 292.208275 
L 300.307883 292.048187 
L 300.910211 292.183792 
L 301.512538 291.880083 
L 302.114866 292.43316 
L 302.717193 292.09034 
L 303.319521 292.611293 
L 303.921849 292.14893 
L 304.524176 292.69822 
L 305.126504 291.626477 
L 305.728831 292.455503 
L 306.331159 292.503767 
L 306.933486 292.201017 
L 308.138141 292.376383 
L 308.740469 292.07612 
L 309.342796 292.450612 
L 309.945124 292.434876 
L 310.547452 292.776856 
L 311.149779 292.832976 
L 311.752107 292.723264 
L 312.354434 292.252722 
L 312.956762 292.843983 
L 313.559089 292.343714 
L 314.161417 292.988746 
L 314.763744 292.980127 
L 315.366072 292.839423 
L 315.968399 292.398519 
L 316.570727 292.936625 
L 317.173054 293.138135 
L 317.775382 292.782116 
L 318.37771 292.737068 
L 318.980037 292.944899 
L 319.582365 292.512388 
L 320.78702 293.10079 
L 323.19633 292.988255 
L 323.798657 293.339085 
L 324.400985 293.39424 
L 325.003313 293.679268 
L 325.60564 293.028187 
L 326.810295 292.908617 
L 327.412623 293.408477 
L 328.617278 293.406106 
L 329.219605 293.725752 
L 329.821933 293.258385 
L 330.42426 292.96441 
L 331.026588 293.416403 
L 331.628916 293.691879 
L 332.231243 293.438395 
L 332.833571 293.729118 
L 333.435898 293.782397 
L 334.038226 292.782788 
L 334.640553 293.68792 
L 335.242881 293.201742 
L 335.845208 293.168748 
L 336.447536 293.498682 
L 337.652191 293.223784 
L 338.254518 293.688887 
L 339.459174 293.67256 
L 340.061501 293.882739 
L 341.266156 293.198268 
L 341.868484 293.8452 
L 342.470811 293.989742 
L 343.073139 293.628901 
L 343.675466 293.662483 
L 344.277794 294.138631 
L 344.880121 293.038172 
L 345.482449 294.022387 
L 346.084777 293.754945 
L 346.687104 293.905391 
L 347.891759 293.92104 
L 348.494087 293.430806 
L 349.096414 294.220608 
L 349.698742 294.218209 
L 350.301069 293.966727 
L 350.903397 293.866951 
L 351.505724 293.946346 
L 352.108052 293.19077 
L 352.710379 294.235246 
L 353.915035 294.074058 
L 354.517362 294.355985 
L 355.11969 294.044642 
L 355.722017 293.466457 
L 356.324345 294.144297 
L 356.926672 294.152058 
L 357.529 293.750774 
L 358.131327 294.196215 
L 358.733655 294.37441 
L 359.335982 293.597988 
L 359.93831 294.291768 
L 361.142965 294.059621 
L 361.745293 294.260643 
L 362.34762 294.589501 
L 362.949948 293.763652 
L 364.154603 294.772994 
L 365.359258 294.270921 
L 365.961585 294.390826 
L 366.563913 293.731958 
L 367.166241 294.59818 
L 368.973223 294.377423 
L 369.575551 294.725293 
L 370.177878 293.78116 
L 370.780206 294.64258 
L 371.382533 294.431463 
L 371.984861 294.421604 
L 372.587188 294.136716 
L 373.189516 294.484745 
L 373.791843 294.206826 
L 374.394171 294.643777 
L 374.996499 294.379551 
L 376.201154 294.633158 
L 376.803481 294.814404 
L 377.405809 294.414951 
L 378.008136 294.758439 
L 379.212791 294.802425 
L 379.815119 294.616424 
L 380.417446 295.04814 
L 381.019774 294.317638 
L 381.622102 294.926057 
L 382.224429 294.875535 
L 382.826757 295.013408 
L 383.429084 294.725948 
L 384.031412 294.77824 
L 384.633739 294.307359 
L 385.236067 295.009024 
L 385.838394 294.812049 
L 386.440722 294.77996 
L 387.043049 294.933662 
L 387.645377 294.89051 
L 388.247705 294.415909 
L 388.850032 294.960579 
L 389.45236 294.808663 
L 390.054687 295.157866 
L 390.657015 294.917844 
L 391.259342 294.952336 
L 391.86167 294.233881 
L 392.463997 295.488 
L 393.066325 294.791217 
L 394.27098 295.05248 
L 394.873307 294.975566 
L 395.475635 294.610546 
L 396.077963 295.074496 
L 397.884945 295.106045 
L 398.487273 294.686386 
L 398.487273 294.686386 
" clip-path="url(#p4b9c5282cc)" style="fill: none; stroke: #dc143c; stroke-width: 2; stroke-linecap: square"/>
   </g>
   <g id="line2d_29">
    <path d="M 73.832727 260.469056 
L 76.844365 260.469056 
L 77.446693 251.473543 
L 80.45833 251.473543 
L 81.060658 245.420848 
L 84.072295 245.420848 
L 84.674623 242.930775 
L 87.686261 242.930775 
L 88.288588 242.076908 
L 91.300226 242.076908 
L 91.902554 242.205401 
L 94.914191 242.205401 
L 95.516519 242.90809 
L 98.528157 242.90809 
L 99.130484 244.092605 
L 102.142122 244.092605 
L 102.744449 246.201078 
L 105.756087 246.201078 
L 106.358415 249.761808 
L 109.370052 249.761808 
L 109.97238 254.848696 
L 112.984018 254.848696 
L 113.586345 260.195924 
L 116.597983 260.195924 
L 117.20031 264.896613 
L 120.211948 264.896613 
L 120.814276 268.034637 
L 123.825913 268.034637 
L 124.428241 268.905968 
L 127.439879 268.905968 
L 128.042206 267.557962 
L 131.053844 267.557962 
L 131.656171 264.200799 
L 134.667809 264.200799 
L 135.270137 259.539683 
L 138.281774 259.539683 
L 138.884102 255.145399 
L 141.89574 255.145399 
L 142.498067 252.036001 
L 145.509705 252.036001 
L 146.112032 250.543284 
L 149.12367 250.543284 
L 149.725998 250.386213 
L 152.737635 250.386213 
L 153.339963 251.617751 
L 156.351601 251.617751 
L 156.953928 254.19121 
L 159.965566 254.19121 
L 160.567893 257.777907 
L 163.579531 257.777907 
L 164.181859 261.3223 
L 167.193496 261.3223 
L 167.795824 262.88827 
L 170.807462 262.88827 
L 171.409789 262.699842 
L 174.421427 262.699842 
L 175.023754 259.821966 
L 178.035392 259.821966 
L 178.63772 256.210835 
L 181.649357 256.210835 
L 182.251685 253.031824 
L 185.263323 253.031824 
L 185.86565 252.382866 
L 192.491253 252.434943 
L 193.093581 252.765998 
L 196.105218 252.765998 
L 196.707546 253.205951 
L 199.719184 253.205951 
L 200.321511 253.729266 
L 203.333149 253.729266 
L 203.935476 253.9233 
L 206.947114 253.9233 
L 207.549442 254.225082 
L 210.561079 254.225082 
L 211.163407 254.350629 
L 214.175045 254.350629 
L 214.777372 254.536829 
L 221.402975 254.468414 
L 222.005303 254.710501 
L 228.630906 254.789887 
L 229.835561 254.894737 
L 246.700732 254.901325 
L 247.30306 254.722335 
L 264.770558 254.814512 
L 267.179868 254.844695 
L 290.068315 254.904966 
L 291.27297 254.979465 
L 297.296246 254.932035 
L 297.898573 254.658543 
L 304.524176 254.646374 
L 305.126504 254.905972 
L 308.138141 254.905972 
L 308.740469 255.062444 
L 311.752107 255.062444 
L 312.354434 255.287547 
L 315.366072 255.287547 
L 315.968399 254.968446 
L 326.207968 255.077176 
L 326.810295 255.309849 
L 333.435898 255.342092 
L 334.038226 255.48618 
L 351.505724 255.45329 
L 352.108052 255.682441 
L 355.11969 255.682441 
L 355.722017 255.279762 
L 362.34762 255.273246 
L 362.949948 255.461003 
L 369.575551 255.554858 
L 370.177878 255.240691 
L 373.189516 255.240691 
L 373.791843 255.61635 
L 380.417446 255.699641 
L 382.826757 255.734375 
L 384.031412 255.734375 
L 384.633739 256.082054 
L 394.873307 256.020227 
L 395.475635 255.838961 
L 398.487273 255.838961 
L 398.487273 255.838961 
" clip-path="url(#p4b9c5282cc)" style="fill: none; stroke: #ffff00; stroke-width: 3; stroke-linecap: square"/>
   </g>
   <g id="patch_3">
    <path d="M 57.6 307.584 
L 57.6 41.472 
" style="fill: none; stroke: #ffffff; stroke-linejoin: miter; stroke-linecap: square"/>
   </g>
   <g id="patch_4">
    <path d="M 414.72 307.584 
L 414.72 41.472 
" style="fill: none; stroke: #ffffff; stroke-linejoin: miter; stroke-linecap: square"/>
   </g>
   <g id="patch_5">
    <path d="M 57.6 307.584 
L 414.72 307.584 
" style="fill: none; stroke: #ffffff; stroke-linejoin: miter; stroke-linecap: square"/>
   </g>
   <g id="patch_6">
    <path d="M 57.6 41.472 
L 414.72 41.472 
" style="fill: none; stroke: #ffffff; stroke-linejoin: miter; stroke-linecap: square"/>
   </g>
   <g id="legend_1">
    <g id="patch_7">
     <path d="M 243.124687 302.584 
L 407.72 302.584 
Q 409.72 302.584 409.72 300.584 
L 409.72 257.549625 
Q 409.72 255.549625 407.72 255.549625 
L 243.124687 255.549625 
Q 241.124687 255.549625 241.124687 257.549625 
L 241.124687 300.584 
Q 241.124687 302.584 243.124687 302.584 
z
" style="fill: #e5e5e5; opacity: 0.8; stroke: #cccccc; stroke-width: 0.5; stroke-linejoin: miter"/>
    </g>
    <g id="line2d_30">
     <path d="M 245.124687 263.648062 
L 255.124687 263.648062 
L 265.124687 263.648062 
" style="fill: none; stroke: #6495ed; stroke-width: 2; stroke-linecap: square"/>
    </g>
    <g id="text_16">
     <!-- Generator loss -->
     <g transform="translate(273.124687 267.148062) scale(0.1 -0.1)">
      <defs>
       <path id="DejaVuSans-47" d="M 3809 666 
L 3809 1919 
L 2778 1919 
L 2778 2438 
L 4434 2438 
L 4434 434 
Q 4069 175 3628 42 
Q 3188 -91 2688 -91 
Q 1594 -91 976 548 
Q 359 1188 359 2328 
Q 359 3472 976 4111 
Q 1594 4750 2688 4750 
Q 3144 4750 3555 4637 
Q 3966 4525 4313 4306 
L 4313 3634 
Q 3963 3931 3569 4081 
Q 3175 4231 2741 4231 
Q 1884 4231 1454 3753 
Q 1025 3275 1025 2328 
Q 1025 1384 1454 906 
Q 1884 428 2741 428 
Q 3075 428 3337 486 
Q 3600 544 3809 666 
z
" transform="scale(0.015625)"/>
       <path id="DejaVuSans-65" d="M 3597 1894 
L 3597 1613 
L 953 1613 
Q 991 1019 1311 708 
Q 1631 397 2203 397 
Q 2534 397 2845 478 
Q 3156 559 3463 722 
L 3463 178 
Q 3153 47 2828 -22 
Q 2503 -91 2169 -91 
Q 1331 -91 842 396 
Q 353 884 353 1716 
Q 353 2575 817 3079 
Q 1281 3584 2069 3584 
Q 2775 3584 3186 3129 
Q 3597 2675 3597 1894 
z
M 3022 2063 
Q 3016 2534 2758 2815 
Q 2500 3097 2075 3097 
Q 1594 3097 1305 2825 
Q 1016 2553 972 2059 
L 3022 2063 
z
" transform="scale(0.015625)"/>
       <path id="DejaVuSans-6e" d="M 3513 2113 
L 3513 0 
L 2938 0 
L 2938 2094 
Q 2938 2591 2744 2837 
Q 2550 3084 2163 3084 
Q 1697 3084 1428 2787 
Q 1159 2491 1159 1978 
L 1159 0 
L 581 0 
L 581 3500 
L 1159 3500 
L 1159 2956 
Q 1366 3272 1645 3428 
Q 1925 3584 2291 3584 
Q 2894 3584 3203 3211 
Q 3513 2838 3513 2113 
z
" transform="scale(0.015625)"/>
       <path id="DejaVuSans-72" d="M 2631 2963 
Q 2534 3019 2420 3045 
Q 2306 3072 2169 3072 
Q 1681 3072 1420 2755 
Q 1159 2438 1159 1844 
L 1159 0 
L 581 0 
L 581 3500 
L 1159 3500 
L 1159 2956 
Q 1341 3275 1631 3429 
Q 1922 3584 2338 3584 
Q 2397 3584 2469 3576 
Q 2541 3569 2628 3553 
L 2631 2963 
z
" transform="scale(0.015625)"/>
       <path id="DejaVuSans-61" d="M 2194 1759 
Q 1497 1759 1228 1600 
Q 959 1441 959 1056 
Q 959 750 1161 570 
Q 1363 391 1709 391 
Q 2188 391 2477 730 
Q 2766 1069 2766 1631 
L 2766 1759 
L 2194 1759 
z
M 3341 1997 
L 3341 0 
L 2766 0 
L 2766 531 
Q 2569 213 2275 61 
Q 1981 -91 1556 -91 
Q 1019 -91 701 211 
Q 384 513 384 1019 
Q 384 1609 779 1909 
Q 1175 2209 1959 2209 
L 2766 2209 
L 2766 2266 
Q 2766 2663 2505 2880 
Q 2244 3097 1772 3097 
Q 1472 3097 1187 3025 
Q 903 2953 641 2809 
L 641 3341 
Q 956 3463 1253 3523 
Q 1550 3584 1831 3584 
Q 2591 3584 2966 3190 
Q 3341 2797 3341 1997 
z
" transform="scale(0.015625)"/>
       <path id="DejaVuSans-74" d="M 1172 4494 
L 1172 3500 
L 2356 3500 
L 2356 3053 
L 1172 3053 
L 1172 1153 
Q 1172 725 1289 603 
Q 1406 481 1766 481 
L 2356 481 
L 2356 0 
L 1766 0 
Q 1100 0 847 248 
Q 594 497 594 1153 
L 594 3053 
L 172 3053 
L 172 3500 
L 594 3500 
L 594 4494 
L 1172 4494 
z
" transform="scale(0.015625)"/>
       <path id="DejaVuSans-20" transform="scale(0.015625)"/>
       <path id="DejaVuSans-6c" d="M 603 4863 
L 1178 4863 
L 1178 0 
L 603 0 
L 603 4863 
z
" transform="scale(0.015625)"/>
      </defs>
      <use xlink:href="#DejaVuSans-47"/>
      <use xlink:href="#DejaVuSans-65" x="77.490234"/>
      <use xlink:href="#DejaVuSans-6e" x="139.013672"/>
      <use xlink:href="#DejaVuSans-65" x="202.392578"/>
      <use xlink:href="#DejaVuSans-72" x="263.916016"/>
      <use xlink:href="#DejaVuSans-61" x="305.029297"/>
      <use xlink:href="#DejaVuSans-74" x="366.308594"/>
      <use xlink:href="#DejaVuSans-6f" x="405.517578"/>
      <use xlink:href="#DejaVuSans-72" x="466.699219"/>
      <use xlink:href="#DejaVuSans-20" x="507.8125"/>
      <use xlink:href="#DejaVuSans-6c" x="539.599609"/>
      <use xlink:href="#DejaVuSans-6f" x="567.382812"/>
      <use xlink:href="#DejaVuSans-73" x="628.564453"/>
      <use xlink:href="#DejaVuSans-73" x="680.664062"/>
     </g>
    </g>
    <g id="line2d_31">
     <path d="M 245.124687 278.326188 
L 255.124687 278.326188 
L 265.124687 278.326188 
" style="fill: none; stroke: #dc143c; stroke-width: 2; stroke-linecap: square"/>
    </g>
    <g id="text_17">
     <!-- Average discriminator loss -->
     <g transform="translate(273.124687 281.826188) scale(0.1 -0.1)">
      <defs>
       <path id="DejaVuSans-41" d="M 2188 4044 
L 1331 1722 
L 3047 1722 
L 2188 4044 
z
M 1831 4666 
L 2547 4666 
L 4325 0 
L 3669 0 
L 3244 1197 
L 1141 1197 
L 716 0 
L 50 0 
L 1831 4666 
z
" transform="scale(0.015625)"/>
       <path id="DejaVuSans-76" d="M 191 3500 
L 800 3500 
L 1894 563 
L 2988 3500 
L 3597 3500 
L 2284 0 
L 1503 0 
L 191 3500 
z
" transform="scale(0.015625)"/>
       <path id="DejaVuSans-67" d="M 2906 1791 
Q 2906 2416 2648 2759 
Q 2391 3103 1925 3103 
Q 1463 3103 1205 2759 
Q 947 2416 947 1791 
Q 947 1169 1205 825 
Q 1463 481 1925 481 
Q 2391 481 2648 825 
Q 2906 1169 2906 1791 
z
M 3481 434 
Q 3481 -459 3084 -895 
Q 2688 -1331 1869 -1331 
Q 1566 -1331 1297 -1286 
Q 1028 -1241 775 -1147 
L 775 -588 
Q 1028 -725 1275 -790 
Q 1522 -856 1778 -856 
Q 2344 -856 2625 -561 
Q 2906 -266 2906 331 
L 2906 616 
Q 2728 306 2450 153 
Q 2172 0 1784 0 
Q 1141 0 747 490 
Q 353 981 353 1791 
Q 353 2603 747 3093 
Q 1141 3584 1784 3584 
Q 2172 3584 2450 3431 
Q 2728 3278 2906 2969 
L 2906 3500 
L 3481 3500 
L 3481 434 
z
" transform="scale(0.015625)"/>
       <path id="DejaVuSans-64" d="M 2906 2969 
L 2906 4863 
L 3481 4863 
L 3481 0 
L 2906 0 
L 2906 525 
Q 2725 213 2448 61 
Q 2172 -91 1784 -91 
Q 1150 -91 751 415 
Q 353 922 353 1747 
Q 353 2572 751 3078 
Q 1150 3584 1784 3584 
Q 2172 3584 2448 3432 
Q 2725 3281 2906 2969 
z
M 947 1747 
Q 947 1113 1208 752 
Q 1469 391 1925 391 
Q 2381 391 2643 752 
Q 2906 1113 2906 1747 
Q 2906 2381 2643 2742 
Q 2381 3103 1925 3103 
Q 1469 3103 1208 2742 
Q 947 2381 947 1747 
z
" transform="scale(0.015625)"/>
       <path id="DejaVuSans-69" d="M 603 3500 
L 1178 3500 
L 1178 0 
L 603 0 
L 603 3500 
z
M 603 4863 
L 1178 4863 
L 1178 4134 
L 603 4134 
L 603 4863 
z
" transform="scale(0.015625)"/>
       <path id="DejaVuSans-6d" d="M 3328 2828 
Q 3544 3216 3844 3400 
Q 4144 3584 4550 3584 
Q 5097 3584 5394 3201 
Q 5691 2819 5691 2113 
L 5691 0 
L 5113 0 
L 5113 2094 
Q 5113 2597 4934 2840 
Q 4756 3084 4391 3084 
Q 3944 3084 3684 2787 
Q 3425 2491 3425 1978 
L 3425 0 
L 2847 0 
L 2847 2094 
Q 2847 2600 2669 2842 
Q 2491 3084 2119 3084 
Q 1678 3084 1418 2786 
Q 1159 2488 1159 1978 
L 1159 0 
L 581 0 
L 581 3500 
L 1159 3500 
L 1159 2956 
Q 1356 3278 1631 3431 
Q 1906 3584 2284 3584 
Q 2666 3584 2933 3390 
Q 3200 3197 3328 2828 
z
" transform="scale(0.015625)"/>
      </defs>
      <use xlink:href="#DejaVuSans-41"/>
      <use xlink:href="#DejaVuSans-76" x="62.533203"/>
      <use xlink:href="#DejaVuSans-65" x="121.712891"/>
      <use xlink:href="#DejaVuSans-72" x="183.236328"/>
      <use xlink:href="#DejaVuSans-61" x="224.349609"/>
      <use xlink:href="#DejaVuSans-67" x="285.628906"/>
      <use xlink:href="#DejaVuSans-65" x="349.105469"/>
      <use xlink:href="#DejaVuSans-20" x="410.628906"/>
      <use xlink:href="#DejaVuSans-64" x="442.416016"/>
      <use xlink:href="#DejaVuSans-69" x="505.892578"/>
      <use xlink:href="#DejaVuSans-73" x="533.675781"/>
      <use xlink:href="#DejaVuSans-63" x="585.775391"/>
      <use xlink:href="#DejaVuSans-72" x="640.755859"/>
      <use xlink:href="#DejaVuSans-69" x="681.869141"/>
      <use xlink:href="#DejaVuSans-6d" x="709.652344"/>
      <use xlink:href="#DejaVuSans-69" x="807.064453"/>
      <use xlink:href="#DejaVuSans-6e" x="834.847656"/>
      <use xlink:href="#DejaVuSans-61" x="898.226562"/>
      <use xlink:href="#DejaVuSans-74" x="959.505859"/>
      <use xlink:href="#DejaVuSans-6f" x="998.714844"/>
      <use xlink:href="#DejaVuSans-72" x="1059.896484"/>
      <use xlink:href="#DejaVuSans-20" x="1101.009766"/>
      <use xlink:href="#DejaVuSans-6c" x="1132.796875"/>
      <use xlink:href="#DejaVuSans-6f" x="1160.580078"/>
      <use xlink:href="#DejaVuSans-73" x="1221.761719"/>
      <use xlink:href="#DejaVuSans-73" x="1273.861328"/>
     </g>
    </g>
    <g id="line2d_32">
     <path d="M 245.124687 293.004312 
L 255.124687 293.004312 
L 265.124687 293.004312 
" style="fill: none; stroke: #ffff00; stroke-width: 3; stroke-linecap: square"/>
    </g>
    <g id="text_18">
     <!-- ROC AUC -->
     <g transform="translate(273.124687 296.504312) scale(0.1 -0.1)">
      <defs>
       <path id="DejaVuSans-52" d="M 2841 2188 
Q 3044 2119 3236 1894 
Q 3428 1669 3622 1275 
L 4263 0 
L 3584 0 
L 2988 1197 
Q 2756 1666 2539 1819 
Q 2322 1972 1947 1972 
L 1259 1972 
L 1259 0 
L 628 0 
L 628 4666 
L 2053 4666 
Q 2853 4666 3247 4331 
Q 3641 3997 3641 3322 
Q 3641 2881 3436 2590 
Q 3231 2300 2841 2188 
z
M 1259 4147 
L 1259 2491 
L 2053 2491 
Q 2509 2491 2742 2702 
Q 2975 2913 2975 3322 
Q 2975 3731 2742 3939 
Q 2509 4147 2053 4147 
L 1259 4147 
z
" transform="scale(0.015625)"/>
       <path id="DejaVuSans-4f" d="M 2522 4238 
Q 1834 4238 1429 3725 
Q 1025 3213 1025 2328 
Q 1025 1447 1429 934 
Q 1834 422 2522 422 
Q 3209 422 3611 934 
Q 4013 1447 4013 2328 
Q 4013 3213 3611 3725 
Q 3209 4238 2522 4238 
z
M 2522 4750 
Q 3503 4750 4090 4092 
Q 4678 3434 4678 2328 
Q 4678 1225 4090 567 
Q 3503 -91 2522 -91 
Q 1538 -91 948 565 
Q 359 1222 359 2328 
Q 359 3434 948 4092 
Q 1538 4750 2522 4750 
z
" transform="scale(0.015625)"/>
       <path id="DejaVuSans-43" d="M 4122 4306 
L 4122 3641 
Q 3803 3938 3442 4084 
Q 3081 4231 2675 4231 
Q 1875 4231 1450 3742 
Q 1025 3253 1025 2328 
Q 1025 1406 1450 917 
Q 1875 428 2675 428 
Q 3081 428 3442 575 
Q 3803 722 4122 1019 
L 4122 359 
Q 3791 134 3420 21 
Q 3050 -91 2638 -91 
Q 1578 -91 968 557 
Q 359 1206 359 2328 
Q 359 3453 968 4101 
Q 1578 4750 2638 4750 
Q 3056 4750 3426 4639 
Q 3797 4528 4122 4306 
z
" transform="scale(0.015625)"/>
       <path id="DejaVuSans-55" d="M 556 4666 
L 1191 4666 
L 1191 1831 
Q 1191 1081 1462 751 
Q 1734 422 2344 422 
Q 2950 422 3222 751 
Q 3494 1081 3494 1831 
L 3494 4666 
L 4128 4666 
L 4128 1753 
Q 4128 841 3676 375 
Q 3225 -91 2344 -91 
Q 1459 -91 1007 375 
Q 556 841 556 1753 
L 556 4666 
z
" transform="scale(0.015625)"/>
      </defs>
      <use xlink:href="#DejaVuSans-52"/>
      <use xlink:href="#DejaVuSans-4f" x="69.482422"/>
      <use xlink:href="#DejaVuSans-43" x="148.193359"/>
      <use xlink:href="#DejaVuSans-20" x="218.017578"/>
      <use xlink:href="#DejaVuSans-41" x="249.804688"/>
      <use xlink:href="#DejaVuSans-55" x="318.212891"/>
      <use xlink:href="#DejaVuSans-43" x="391.40625"/>
     </g>
    </g>
   </g>
  </g>
 </g>
 <defs>
  <clipPath id="p4b9c5282cc">
   <rect x="57.6" y="41.472" width="357.12" height="266.112"/>
  </clipPath>
 </defs>
</svg>
