<?xml version="1.0" encoding="utf-8" standalone="no"?>
<!DOCTYPE svg PUBLIC "-//W3C//DTD SVG 1.1//EN"
  "http://www.w3.org/Graphics/SVG/1.1/DTD/svg11.dtd">
<svg xmlns:xlink="http://www.w3.org/1999/xlink" width="460.8pt" height="345.6pt" viewBox="0 0 460.8 345.6" xmlns="http://www.w3.org/2000/svg" version="1.1">
 <metadata>
  <rdf:RDF xmlns:dc="http://purl.org/dc/elements/1.1/" xmlns:cc="http://creativecommons.org/ns#" xmlns:rdf="http://www.w3.org/1999/02/22-rdf-syntax-ns#">
   <cc:Work>
    <dc:type rdf:resource="http://purl.org/dc/dcmitype/StillImage"/>
    <dc:date>2023-07-11T19:09:57.908185</dc:date>
    <dc:format>image/svg+xml</dc:format>
    <dc:creator>
     <cc:Agent>
      <dc:title>Matplotlib v3.7.1, https://matplotlib.org/</dc:title>
     </cc:Agent>
    </dc:creator>
   </cc:Work>
  </rdf:RDF>
 </metadata>
 <defs>
  <style type="text/css">*{stroke-linejoin: round; stroke-linecap: butt}</style>
 </defs>
 <g id="figure_1">
  <g id="patch_1">
   <path d="M 0 345.6 
L 460.8 345.6 
L 460.8 0 
L 0 0 
z
" style="fill: #ffffff"/>
  </g>
  <g id="axes_1">
   <g id="patch_2">
    <path d="M 57.6 307.584 
L 414.72 307.584 
L 414.72 41.472 
L 57.6 41.472 
z
" style="fill: #e5e5e5"/>
   </g>
   <g id="matplotlib.axis_1">
    <g id="xtick_1">
     <g id="line2d_1">
      <path d="M 73.531843 307.584 
L 73.531843 41.472 
" clip-path="url(#p67b288842d)" style="fill: none; stroke: #ffffff; stroke-width: 0.8; stroke-linecap: square"/>
     </g>
     <g id="line2d_2">
      <defs>
       <path id="m736f7acd56" d="M 0 0 
L 0 3.5 
" style="stroke: #555555; stroke-width: 0.8"/>
      </defs>
      <g>
       <use xlink:href="#m736f7acd56" x="73.531843" y="307.584" style="fill: #555555; stroke: #555555; stroke-width: 0.8"/>
      </g>
     </g>
     <g id="text_1">
      <!-- 0 -->
      <g style="fill: #555555" transform="translate(70.350593 322.182437) scale(0.1 -0.1)">
       <defs>
        <path id="DejaVuSans-30" d="M 2034 4250 
Q 1547 4250 1301 3770 
Q 1056 3291 1056 2328 
Q 1056 1369 1301 889 
Q 1547 409 2034 409 
Q 2525 409 2770 889 
Q 3016 1369 3016 2328 
Q 3016 3291 2770 3770 
Q 2525 4250 2034 4250 
z
M 2034 4750 
Q 2819 4750 3233 4129 
Q 3647 3509 3647 2328 
Q 3647 1150 3233 529 
Q 2819 -91 2034 -91 
Q 1250 -91 836 529 
Q 422 1150 422 2328 
Q 422 3509 836 4129 
Q 1250 4750 2034 4750 
z
" transform="scale(0.015625)"/>
       </defs>
       <use xlink:href="#DejaVuSans-30"/>
      </g>
     </g>
    </g>
    <g id="xtick_2">
     <g id="line2d_3">
      <path d="M 133.708774 307.584 
L 133.708774 41.472 
" clip-path="url(#p67b288842d)" style="fill: none; stroke: #ffffff; stroke-width: 0.8; stroke-linecap: square"/>
     </g>
     <g id="line2d_4">
      <g>
       <use xlink:href="#m736f7acd56" x="133.708774" y="307.584" style="fill: #555555; stroke: #555555; stroke-width: 0.8"/>
      </g>
     </g>
     <g id="text_2">
      <!-- 200 -->
      <g style="fill: #555555" transform="translate(124.165024 322.182437) scale(0.1 -0.1)">
       <defs>
        <path id="DejaVuSans-32" d="M 1228 531 
L 3431 531 
L 3431 0 
L 469 0 
L 469 531 
Q 828 903 1448 1529 
Q 2069 2156 2228 2338 
Q 2531 2678 2651 2914 
Q 2772 3150 2772 3378 
Q 2772 3750 2511 3984 
Q 2250 4219 1831 4219 
Q 1534 4219 1204 4116 
Q 875 4013 500 3803 
L 500 4441 
Q 881 4594 1212 4672 
Q 1544 4750 1819 4750 
Q 2544 4750 2975 4387 
Q 3406 4025 3406 3419 
Q 3406 3131 3298 2873 
Q 3191 2616 2906 2266 
Q 2828 2175 2409 1742 
Q 1991 1309 1228 531 
z
" transform="scale(0.015625)"/>
       </defs>
       <use xlink:href="#DejaVuSans-32"/>
       <use xlink:href="#DejaVuSans-30" x="63.623047"/>
       <use xlink:href="#DejaVuSans-30" x="127.246094"/>
      </g>
     </g>
    </g>
    <g id="xtick_3">
     <g id="line2d_5">
      <path d="M 193.885706 307.584 
L 193.885706 41.472 
" clip-path="url(#p67b288842d)" style="fill: none; stroke: #ffffff; stroke-width: 0.8; stroke-linecap: square"/>
     </g>
     <g id="line2d_6">
      <g>
       <use xlink:href="#m736f7acd56" x="193.885706" y="307.584" style="fill: #555555; stroke: #555555; stroke-width: 0.8"/>
      </g>
     </g>
     <g id="text_3">
      <!-- 400 -->
      <g style="fill: #555555" transform="translate(184.341956 322.182437) scale(0.1 -0.1)">
       <defs>
        <path id="DejaVuSans-34" d="M 2419 4116 
L 825 1625 
L 2419 1625 
L 2419 4116 
z
M 2253 4666 
L 3047 4666 
L 3047 1625 
L 3713 1625 
L 3713 1100 
L 3047 1100 
L 3047 0 
L 2419 0 
L 2419 1100 
L 313 1100 
L 313 1709 
L 2253 4666 
z
" transform="scale(0.015625)"/>
       </defs>
       <use xlink:href="#DejaVuSans-34"/>
       <use xlink:href="#DejaVuSans-30" x="63.623047"/>
       <use xlink:href="#DejaVuSans-30" x="127.246094"/>
      </g>
     </g>
    </g>
    <g id="xtick_4">
     <g id="line2d_7">
      <path d="M 254.062637 307.584 
L 254.062637 41.472 
" clip-path="url(#p67b288842d)" style="fill: none; stroke: #ffffff; stroke-width: 0.8; stroke-linecap: square"/>
     </g>
     <g id="line2d_8">
      <g>
       <use xlink:href="#m736f7acd56" x="254.062637" y="307.584" style="fill: #555555; stroke: #555555; stroke-width: 0.8"/>
      </g>
     </g>
     <g id="text_4">
      <!-- 600 -->
      <g style="fill: #555555" transform="translate(244.518887 322.182437) scale(0.1 -0.1)">
       <defs>
        <path id="DejaVuSans-36" d="M 2113 2584 
Q 1688 2584 1439 2293 
Q 1191 2003 1191 1497 
Q 1191 994 1439 701 
Q 1688 409 2113 409 
Q 2538 409 2786 701 
Q 3034 994 3034 1497 
Q 3034 2003 2786 2293 
Q 2538 2584 2113 2584 
z
M 3366 4563 
L 3366 3988 
Q 3128 4100 2886 4159 
Q 2644 4219 2406 4219 
Q 1781 4219 1451 3797 
Q 1122 3375 1075 2522 
Q 1259 2794 1537 2939 
Q 1816 3084 2150 3084 
Q 2853 3084 3261 2657 
Q 3669 2231 3669 1497 
Q 3669 778 3244 343 
Q 2819 -91 2113 -91 
Q 1303 -91 875 529 
Q 447 1150 447 2328 
Q 447 3434 972 4092 
Q 1497 4750 2381 4750 
Q 2619 4750 2861 4703 
Q 3103 4656 3366 4563 
z
" transform="scale(0.015625)"/>
       </defs>
       <use xlink:href="#DejaVuSans-36"/>
       <use xlink:href="#DejaVuSans-30" x="63.623047"/>
       <use xlink:href="#DejaVuSans-30" x="127.246094"/>
      </g>
     </g>
    </g>
    <g id="xtick_5">
     <g id="line2d_9">
      <path d="M 314.239569 307.584 
L 314.239569 41.472 
" clip-path="url(#p67b288842d)" style="fill: none; stroke: #ffffff; stroke-width: 0.8; stroke-linecap: square"/>
     </g>
     <g id="line2d_10">
      <g>
       <use xlink:href="#m736f7acd56" x="314.239569" y="307.584" style="fill: #555555; stroke: #555555; stroke-width: 0.8"/>
      </g>
     </g>
     <g id="text_5">
      <!-- 800 -->
      <g style="fill: #555555" transform="translate(304.695819 322.182437) scale(0.1 -0.1)">
       <defs>
        <path id="DejaVuSans-38" d="M 2034 2216 
Q 1584 2216 1326 1975 
Q 1069 1734 1069 1313 
Q 1069 891 1326 650 
Q 1584 409 2034 409 
Q 2484 409 2743 651 
Q 3003 894 3003 1313 
Q 3003 1734 2745 1975 
Q 2488 2216 2034 2216 
z
M 1403 2484 
Q 997 2584 770 2862 
Q 544 3141 544 3541 
Q 544 4100 942 4425 
Q 1341 4750 2034 4750 
Q 2731 4750 3128 4425 
Q 3525 4100 3525 3541 
Q 3525 3141 3298 2862 
Q 3072 2584 2669 2484 
Q 3125 2378 3379 2068 
Q 3634 1759 3634 1313 
Q 3634 634 3220 271 
Q 2806 -91 2034 -91 
Q 1263 -91 848 271 
Q 434 634 434 1313 
Q 434 1759 690 2068 
Q 947 2378 1403 2484 
z
M 1172 3481 
Q 1172 3119 1398 2916 
Q 1625 2713 2034 2713 
Q 2441 2713 2670 2916 
Q 2900 3119 2900 3481 
Q 2900 3844 2670 4047 
Q 2441 4250 2034 4250 
Q 1625 4250 1398 4047 
Q 1172 3844 1172 3481 
z
" transform="scale(0.015625)"/>
       </defs>
       <use xlink:href="#DejaVuSans-38"/>
       <use xlink:href="#DejaVuSans-30" x="63.623047"/>
       <use xlink:href="#DejaVuSans-30" x="127.246094"/>
      </g>
     </g>
    </g>
    <g id="xtick_6">
     <g id="line2d_11">
      <path d="M 374.4165 307.584 
L 374.4165 41.472 
" clip-path="url(#p67b288842d)" style="fill: none; stroke: #ffffff; stroke-width: 0.8; stroke-linecap: square"/>
     </g>
     <g id="line2d_12">
      <g>
       <use xlink:href="#m736f7acd56" x="374.4165" y="307.584" style="fill: #555555; stroke: #555555; stroke-width: 0.8"/>
      </g>
     </g>
     <g id="text_6">
      <!-- 1000 -->
      <g style="fill: #555555" transform="translate(361.6915 322.182437) scale(0.1 -0.1)">
       <defs>
        <path id="DejaVuSans-31" d="M 794 531 
L 1825 531 
L 1825 4091 
L 703 3866 
L 703 4441 
L 1819 4666 
L 2450 4666 
L 2450 531 
L 3481 531 
L 3481 0 
L 794 0 
L 794 531 
z
" transform="scale(0.015625)"/>
       </defs>
       <use xlink:href="#DejaVuSans-31"/>
       <use xlink:href="#DejaVuSans-30" x="63.623047"/>
       <use xlink:href="#DejaVuSans-30" x="127.246094"/>
       <use xlink:href="#DejaVuSans-30" x="190.869141"/>
      </g>
     </g>
    </g>
    <g id="text_7">
     <!-- Epoch -->
     <g style="fill: #555555" transform="translate(217.786875 337.38025) scale(0.12 -0.12)">
      <defs>
       <path id="DejaVuSans-45" d="M 628 4666 
L 3578 4666 
L 3578 4134 
L 1259 4134 
L 1259 2753 
L 3481 2753 
L 3481 2222 
L 1259 2222 
L 1259 531 
L 3634 531 
L 3634 0 
L 628 0 
L 628 4666 
z
" transform="scale(0.015625)"/>
       <path id="DejaVuSans-70" d="M 1159 525 
L 1159 -1331 
L 581 -1331 
L 581 3500 
L 1159 3500 
L 1159 2969 
Q 1341 3281 1617 3432 
Q 1894 3584 2278 3584 
Q 2916 3584 3314 3078 
Q 3713 2572 3713 1747 
Q 3713 922 3314 415 
Q 2916 -91 2278 -91 
Q 1894 -91 1617 61 
Q 1341 213 1159 525 
z
M 3116 1747 
Q 3116 2381 2855 2742 
Q 2594 3103 2138 3103 
Q 1681 3103 1420 2742 
Q 1159 2381 1159 1747 
Q 1159 1113 1420 752 
Q 1681 391 2138 391 
Q 2594 391 2855 752 
Q 3116 1113 3116 1747 
z
" transform="scale(0.015625)"/>
       <path id="DejaVuSans-6f" d="M 1959 3097 
Q 1497 3097 1228 2736 
Q 959 2375 959 1747 
Q 959 1119 1226 758 
Q 1494 397 1959 397 
Q 2419 397 2687 759 
Q 2956 1122 2956 1747 
Q 2956 2369 2687 2733 
Q 2419 3097 1959 3097 
z
M 1959 3584 
Q 2709 3584 3137 3096 
Q 3566 2609 3566 1747 
Q 3566 888 3137 398 
Q 2709 -91 1959 -91 
Q 1206 -91 779 398 
Q 353 888 353 1747 
Q 353 2609 779 3096 
Q 1206 3584 1959 3584 
z
" transform="scale(0.015625)"/>
       <path id="DejaVuSans-63" d="M 3122 3366 
L 3122 2828 
Q 2878 2963 2633 3030 
Q 2388 3097 2138 3097 
Q 1578 3097 1268 2742 
Q 959 2388 959 1747 
Q 959 1106 1268 751 
Q 1578 397 2138 397 
Q 2388 397 2633 464 
Q 2878 531 3122 666 
L 3122 134 
Q 2881 22 2623 -34 
Q 2366 -91 2075 -91 
Q 1284 -91 818 406 
Q 353 903 353 1747 
Q 353 2603 823 3093 
Q 1294 3584 2113 3584 
Q 2378 3584 2631 3529 
Q 2884 3475 3122 3366 
z
" transform="scale(0.015625)"/>
       <path id="DejaVuSans-68" d="M 3513 2113 
L 3513 0 
L 2938 0 
L 2938 2094 
Q 2938 2591 2744 2837 
Q 2550 3084 2163 3084 
Q 1697 3084 1428 2787 
Q 1159 2491 1159 1978 
L 1159 0 
L 581 0 
L 581 4863 
L 1159 4863 
L 1159 2956 
Q 1366 3272 1645 3428 
Q 1925 3584 2291 3584 
Q 2894 3584 3203 3211 
Q 3513 2838 3513 2113 
z
" transform="scale(0.015625)"/>
      </defs>
      <use xlink:href="#DejaVuSans-45"/>
      <use xlink:href="#DejaVuSans-70" x="63.183594"/>
      <use xlink:href="#DejaVuSans-6f" x="126.660156"/>
      <use xlink:href="#DejaVuSans-63" x="187.841797"/>
      <use xlink:href="#DejaVuSans-68" x="242.822266"/>
     </g>
    </g>
   </g>
   <g id="matplotlib.axis_2">
    <g id="ytick_1">
     <g id="line2d_13">
      <path d="M 57.6 301.481655 
L 414.72 301.481655 
" clip-path="url(#p67b288842d)" style="fill: none; stroke: #ffffff; stroke-width: 0.8; stroke-linecap: square"/>
     </g>
     <g id="line2d_14">
      <defs>
       <path id="m61776f6cd9" d="M 0 0 
L -3.5 0 
" style="stroke: #555555; stroke-width: 0.8"/>
      </defs>
      <g>
       <use xlink:href="#m61776f6cd9" x="57.6" y="301.481655" style="fill: #555555; stroke: #555555; stroke-width: 0.8"/>
      </g>
     </g>
     <g id="text_8">
      <!-- 0.2 -->
      <g style="fill: #555555" transform="translate(34.696875 305.280873) scale(0.1 -0.1)">
       <defs>
        <path id="DejaVuSans-2e" d="M 684 794 
L 1344 794 
L 1344 0 
L 684 0 
L 684 794 
z
" transform="scale(0.015625)"/>
       </defs>
       <use xlink:href="#DejaVuSans-30"/>
       <use xlink:href="#DejaVuSans-2e" x="63.623047"/>
       <use xlink:href="#DejaVuSans-32" x="95.410156"/>
      </g>
     </g>
    </g>
    <g id="ytick_2">
     <g id="line2d_15">
      <path d="M 57.6 271.090236 
L 414.72 271.090236 
" clip-path="url(#p67b288842d)" style="fill: none; stroke: #ffffff; stroke-width: 0.8; stroke-linecap: square"/>
     </g>
     <g id="line2d_16">
      <g>
       <use xlink:href="#m61776f6cd9" x="57.6" y="271.090236" style="fill: #555555; stroke: #555555; stroke-width: 0.8"/>
      </g>
     </g>
     <g id="text_9">
      <!-- 0.4 -->
      <g style="fill: #555555" transform="translate(34.696875 274.889455) scale(0.1 -0.1)">
       <use xlink:href="#DejaVuSans-30"/>
       <use xlink:href="#DejaVuSans-2e" x="63.623047"/>
       <use xlink:href="#DejaVuSans-34" x="95.410156"/>
      </g>
     </g>
    </g>
    <g id="ytick_3">
     <g id="line2d_17">
      <path d="M 57.6 240.698818 
L 414.72 240.698818 
" clip-path="url(#p67b288842d)" style="fill: none; stroke: #ffffff; stroke-width: 0.8; stroke-linecap: square"/>
     </g>
     <g id="line2d_18">
      <g>
       <use xlink:href="#m61776f6cd9" x="57.6" y="240.698818" style="fill: #555555; stroke: #555555; stroke-width: 0.8"/>
      </g>
     </g>
     <g id="text_10">
      <!-- 0.6 -->
      <g style="fill: #555555" transform="translate(34.696875 244.498037) scale(0.1 -0.1)">
       <use xlink:href="#DejaVuSans-30"/>
       <use xlink:href="#DejaVuSans-2e" x="63.623047"/>
       <use xlink:href="#DejaVuSans-36" x="95.410156"/>
      </g>
     </g>
    </g>
    <g id="ytick_4">
     <g id="line2d_19">
      <path d="M 57.6 210.3074 
L 414.72 210.3074 
" clip-path="url(#p67b288842d)" style="fill: none; stroke: #ffffff; stroke-width: 0.8; stroke-linecap: square"/>
     </g>
     <g id="line2d_20">
      <g>
       <use xlink:href="#m61776f6cd9" x="57.6" y="210.3074" style="fill: #555555; stroke: #555555; stroke-width: 0.8"/>
      </g>
     </g>
     <g id="text_11">
      <!-- 0.8 -->
      <g style="fill: #555555" transform="translate(34.696875 214.106619) scale(0.1 -0.1)">
       <use xlink:href="#DejaVuSans-30"/>
       <use xlink:href="#DejaVuSans-2e" x="63.623047"/>
       <use xlink:href="#DejaVuSans-38" x="95.410156"/>
      </g>
     </g>
    </g>
    <g id="ytick_5">
     <g id="line2d_21">
      <path d="M 57.6 179.915982 
L 414.72 179.915982 
" clip-path="url(#p67b288842d)" style="fill: none; stroke: #ffffff; stroke-width: 0.8; stroke-linecap: square"/>
     </g>
     <g id="line2d_22">
      <g>
       <use xlink:href="#m61776f6cd9" x="57.6" y="179.915982" style="fill: #555555; stroke: #555555; stroke-width: 0.8"/>
      </g>
     </g>
     <g id="text_12">
      <!-- 1.0 -->
      <g style="fill: #555555" transform="translate(34.696875 183.715201) scale(0.1 -0.1)">
       <use xlink:href="#DejaVuSans-31"/>
       <use xlink:href="#DejaVuSans-2e" x="63.623047"/>
       <use xlink:href="#DejaVuSans-30" x="95.410156"/>
      </g>
     </g>
    </g>
    <g id="ytick_6">
     <g id="line2d_23">
      <path d="M 57.6 149.524564 
L 414.72 149.524564 
" clip-path="url(#p67b288842d)" style="fill: none; stroke: #ffffff; stroke-width: 0.8; stroke-linecap: square"/>
     </g>
     <g id="line2d_24">
      <g>
       <use xlink:href="#m61776f6cd9" x="57.6" y="149.524564" style="fill: #555555; stroke: #555555; stroke-width: 0.8"/>
      </g>
     </g>
     <g id="text_13">
      <!-- 1.2 -->
      <g style="fill: #555555" transform="translate(34.696875 153.323782) scale(0.1 -0.1)">
       <use xlink:href="#DejaVuSans-31"/>
       <use xlink:href="#DejaVuSans-2e" x="63.623047"/>
       <use xlink:href="#DejaVuSans-32" x="95.410156"/>
      </g>
     </g>
    </g>
    <g id="ytick_7">
     <g id="line2d_25">
      <path d="M 57.6 119.133145 
L 414.72 119.133145 
" clip-path="url(#p67b288842d)" style="fill: none; stroke: #ffffff; stroke-width: 0.8; stroke-linecap: square"/>
     </g>
     <g id="line2d_26">
      <g>
       <use xlink:href="#m61776f6cd9" x="57.6" y="119.133145" style="fill: #555555; stroke: #555555; stroke-width: 0.8"/>
      </g>
     </g>
     <g id="text_14">
      <!-- 1.4 -->
      <g style="fill: #555555" transform="translate(34.696875 122.932364) scale(0.1 -0.1)">
       <use xlink:href="#DejaVuSans-31"/>
       <use xlink:href="#DejaVuSans-2e" x="63.623047"/>
       <use xlink:href="#DejaVuSans-34" x="95.410156"/>
      </g>
     </g>
    </g>
    <g id="ytick_8">
     <g id="line2d_27">
      <path d="M 57.6 88.741727 
L 414.72 88.741727 
" clip-path="url(#p67b288842d)" style="fill: none; stroke: #ffffff; stroke-width: 0.8; stroke-linecap: square"/>
     </g>
     <g id="line2d_28">
      <g>
       <use xlink:href="#m61776f6cd9" x="57.6" y="88.741727" style="fill: #555555; stroke: #555555; stroke-width: 0.8"/>
      </g>
     </g>
     <g id="text_15">
      <!-- 1.6 -->
      <g style="fill: #555555" transform="translate(34.696875 92.540946) scale(0.1 -0.1)">
       <use xlink:href="#DejaVuSans-31"/>
       <use xlink:href="#DejaVuSans-2e" x="63.623047"/>
       <use xlink:href="#DejaVuSans-36" x="95.410156"/>
      </g>
     </g>
    </g>
    <g id="ytick_9">
     <g id="line2d_29">
      <path d="M 57.6 58.350309 
L 414.72 58.350309 
" clip-path="url(#p67b288842d)" style="fill: none; stroke: #ffffff; stroke-width: 0.8; stroke-linecap: square"/>
     </g>
     <g id="line2d_30">
      <g>
       <use xlink:href="#m61776f6cd9" x="57.6" y="58.350309" style="fill: #555555; stroke: #555555; stroke-width: 0.8"/>
      </g>
     </g>
     <g id="text_16">
      <!-- 1.8 -->
      <g style="fill: #555555" transform="translate(34.696875 62.149528) scale(0.1 -0.1)">
       <use xlink:href="#DejaVuSans-31"/>
       <use xlink:href="#DejaVuSans-2e" x="63.623047"/>
       <use xlink:href="#DejaVuSans-38" x="95.410156"/>
      </g>
     </g>
    </g>
    <g id="text_17">
     <!-- Loss -->
     <g style="fill: #555555" transform="translate(28.20125 187.688625) rotate(-90) scale(0.12 -0.12)">
      <defs>
       <path id="DejaVuSans-4c" d="M 628 4666 
L 1259 4666 
L 1259 531 
L 3531 531 
L 3531 0 
L 628 0 
L 628 4666 
z
" transform="scale(0.015625)"/>
       <path id="DejaVuSans-73" d="M 2834 3397 
L 2834 2853 
Q 2591 2978 2328 3040 
Q 2066 3103 1784 3103 
Q 1356 3103 1142 2972 
Q 928 2841 928 2578 
Q 928 2378 1081 2264 
Q 1234 2150 1697 2047 
L 1894 2003 
Q 2506 1872 2764 1633 
Q 3022 1394 3022 966 
Q 3022 478 2636 193 
Q 2250 -91 1575 -91 
Q 1294 -91 989 -36 
Q 684 19 347 128 
L 347 722 
Q 666 556 975 473 
Q 1284 391 1588 391 
Q 1994 391 2212 530 
Q 2431 669 2431 922 
Q 2431 1156 2273 1281 
Q 2116 1406 1581 1522 
L 1381 1569 
Q 847 1681 609 1914 
Q 372 2147 372 2553 
Q 372 3047 722 3315 
Q 1072 3584 1716 3584 
Q 2034 3584 2315 3537 
Q 2597 3491 2834 3397 
z
" transform="scale(0.015625)"/>
      </defs>
      <use xlink:href="#DejaVuSans-4c"/>
      <use xlink:href="#DejaVuSans-6f" x="53.962891"/>
      <use xlink:href="#DejaVuSans-73" x="115.144531"/>
      <use xlink:href="#DejaVuSans-73" x="167.244141"/>
     </g>
    </g>
   </g>
   <g id="line2d_31">
    <path d="M 73.832727 224.341225 
L 75.337151 205.346951 
L 76.841574 188.968023 
L 79.248651 167.091084 
L 80.151305 159.834138 
L 80.45219 157.961966 
L 81.354844 150.653301 
L 81.956613 147.407926 
L 82.558382 143.387677 
L 83.160152 140.118627 
L 83.761921 136.593525 
L 84.36369 133.197345 
L 84.664575 131.978697 
L 84.96546 129.781547 
L 85.567229 127.380934 
L 85.868114 126.019451 
L 86.168998 125.784304 
L 86.469883 124.228288 
L 86.770768 123.271107 
L 87.071652 120.88859 
L 87.372537 120.538523 
L 87.974306 118.16068 
L 88.275191 116.725271 
L 88.576075 116.431088 
L 88.87696 115.234848 
L 89.177845 114.926427 
L 89.478729 114.180772 
L 89.779614 113.934883 
L 90.381383 111.893176 
L 91.584922 109.779861 
L 91.885807 109.729411 
L 92.186691 108.178503 
L 92.487576 108.361933 
L 93.089345 107.760452 
L 93.39023 107.698681 
L 93.991999 106.271769 
L 94.292884 106.408589 
L 94.894653 106.390547 
L 95.195538 106.504959 
L 95.496423 105.650507 
L 95.797307 105.740954 
L 96.098192 106.275699 
L 96.399077 106.205396 
L 96.699961 105.550152 
L 97.000846 105.943947 
L 97.301731 105.556637 
L 97.602615 106.243963 
L 97.9035 105.571273 
L 98.505269 107.182177 
L 98.806154 105.807344 
L 99.107039 106.146197 
L 99.407923 106.763945 
L 99.708808 106.537203 
L 100.009692 107.796646 
L 100.310577 107.884103 
L 100.611462 107.507644 
L 100.912346 108.167272 
L 101.213231 108.519585 
L 101.514116 107.78594 
L 102.115885 109.927278 
L 102.41677 108.963015 
L 102.717654 109.405321 
L 103.018539 110.379041 
L 103.319424 110.04852 
L 103.620308 111.444529 
L 104.222078 112.508568 
L 104.522962 112.19897 
L 104.823847 112.599685 
L 105.124732 113.206056 
L 105.425616 113.18921 
L 105.726501 113.552953 
L 106.027386 114.17666 
L 106.32827 115.248398 
L 106.629155 115.200068 
L 107.531809 117.386675 
L 107.832694 118.167636 
L 108.133578 117.261502 
L 108.735348 119.981786 
L 109.036232 118.909269 
L 109.337117 120.509359 
L 109.638002 120.521695 
L 109.938886 121.296859 
L 110.239771 120.895347 
L 110.540655 122.785362 
L 110.84154 122.485364 
L 111.142425 122.775399 
L 111.443309 125.133389 
L 111.744194 125.285172 
L 112.045079 125.904205 
L 112.345963 125.631633 
L 112.947733 127.057242 
L 113.850387 127.73446 
L 114.151271 129.578699 
L 114.452156 129.308736 
L 114.753041 131.955728 
L 115.053925 132.025868 
L 115.35481 131.608052 
L 115.655695 133.170409 
L 116.257464 132.852333 
L 116.859233 134.301273 
L 117.160118 134.045801 
L 117.761887 136.72252 
L 118.062772 137.235147 
L 118.363657 139.129383 
L 118.664541 139.266711 
L 118.965426 139.757311 
L 119.266311 139.479504 
L 119.567195 140.097469 
L 119.86808 139.218544 
L 120.168965 142.166638 
L 120.469849 141.321624 
L 121.071619 142.872532 
L 121.372503 143.176243 
L 121.673388 145.187608 
L 121.974272 145.404224 
L 122.275157 146.244238 
L 122.576042 145.861457 
L 122.876926 147.232449 
L 123.478696 147.759333 
L 124.080465 148.572901 
L 124.38135 149.183547 
L 124.682234 148.999973 
L 124.983119 149.402735 
L 125.284004 151.545287 
L 125.584888 152.423506 
L 126.788427 154.319444 
L 127.089312 152.985804 
L 127.390196 155.099083 
L 127.691081 155.296986 
L 127.991966 154.890818 
L 128.29285 154.91203 
L 128.89462 157.991837 
L 129.195504 158.362934 
L 129.496389 159.462243 
L 129.797274 159.961593 
L 130.098158 159.593411 
L 130.399043 159.63397 
L 130.699928 160.140928 
L 131.000812 161.220347 
L 131.301697 161.211144 
L 131.602582 160.990199 
L 131.903466 161.314507 
L 132.80612 164.240393 
L 133.107005 164.916995 
L 133.407889 165.246682 
L 133.708774 165.011499 
L 134.009659 165.456903 
L 134.310543 165.209891 
L 134.611428 166.949065 
L 134.912313 166.111496 
L 135.213197 166.999044 
L 135.514082 166.514168 
L 135.814967 167.606176 
L 136.115851 169.301566 
L 136.416736 169.038722 
L 136.717621 169.708821 
L 137.018505 169.711955 
L 137.31939 170.690601 
L 137.620275 170.594757 
L 137.921159 170.279724 
L 138.222044 172.27821 
L 138.522929 171.351335 
L 139.124698 171.278478 
L 139.726467 173.714633 
L 140.027352 174.365983 
L 140.328237 174.264142 
L 140.629121 174.940817 
L 140.930006 174.669621 
L 141.230891 174.68049 
L 141.531775 175.559524 
L 141.83266 176.068402 
L 142.133545 175.666328 
L 142.735314 175.380442 
L 143.337083 178.127264 
L 143.637968 178.041763 
L 143.938852 178.775499 
L 144.841506 179.111544 
L 145.443276 179.973867 
L 145.74416 179.629534 
L 146.045045 179.978822 
L 146.34593 178.558756 
L 146.646814 181.134621 
L 146.947699 181.710252 
L 147.248584 181.888881 
L 147.549468 181.931034 
L 147.850353 182.756221 
L 148.151238 182.493576 
L 148.452122 182.54504 
L 148.753007 182.815628 
L 149.053892 183.417109 
L 149.354776 183.073038 
L 149.956546 182.814732 
L 150.25743 184.522857 
L 150.558315 184.531235 
L 151.460969 185.427985 
L 151.761854 185.284743 
L 152.062738 185.681627 
L 152.363623 185.638777 
L 152.664508 186.014557 
L 152.965392 185.769674 
L 153.266277 185.983907 
L 153.567162 185.024689 
L 153.868046 187.372906 
L 154.168931 187.227372 
L 154.7707 187.343017 
L 155.372469 187.816988 
L 155.673354 187.609058 
L 156.275123 188.124892 
L 156.576008 188.142581 
L 156.876893 188.022961 
L 157.177777 187.377643 
L 157.478662 188.767185 
L 158.080431 189.257351 
L 158.381316 188.874379 
L 158.983085 189.597418 
L 159.28397 188.960704 
L 159.584855 189.051513 
L 159.885739 189.705454 
L 160.788393 188.543097 
L 161.089278 190.085853 
L 161.691047 189.7298 
L 161.991932 189.736521 
L 162.292817 190.333282 
L 163.195471 190.162596 
L 163.496355 190.422914 
L 163.79724 189.843497 
L 164.098125 189.830563 
L 164.399009 189.187709 
L 164.699894 190.453736 
L 165.000778 190.219159 
L 165.301663 190.231459 
L 165.602548 189.97049 
L 165.903432 190.525388 
L 166.505202 190.166745 
L 167.106971 190.35867 
L 167.407856 189.940673 
L 167.70874 189.71952 
L 168.009625 189.145827 
L 168.31051 190.629711 
L 168.611394 189.931598 
L 168.912279 189.973986 
L 169.213164 189.683979 
L 169.514048 190.158928 
L 169.814933 189.922703 
L 170.115818 190.106912 
L 170.416702 189.81291 
L 170.717587 189.994302 
L 171.319356 189.230659 
L 171.620241 188.738691 
L 171.921126 189.986576 
L 172.22201 189.299241 
L 172.82378 189.34816 
L 173.124664 189.664832 
L 173.425549 189.385023 
L 173.726434 189.543037 
L 174.027318 189.421298 
L 174.328203 189.755668 
L 174.629088 188.93192 
L 174.929972 188.884967 
L 175.230857 188.474379 
L 175.531742 189.383891 
L 175.832626 188.739225 
L 176.133511 188.904123 
L 176.434395 188.607866 
L 176.73528 189.226728 
L 177.036165 189.018988 
L 177.938819 189.00446 
L 178.239703 188.680026 
L 178.540588 188.743772 
L 178.841473 188.008605 
L 179.142357 189.139768 
L 179.443242 188.621869 
L 179.744127 188.689926 
L 180.045011 188.399058 
L 180.345896 188.891234 
L 180.646781 189.034187 
L 181.24855 188.820623 
L 181.549435 189.227778 
L 181.850319 188.592568 
L 182.151204 188.638145 
L 182.452089 187.990843 
L 182.752973 188.966075 
L 183.053858 187.966307 
L 183.655627 187.424958 
L 183.956512 187.572638 
L 184.257397 187.526455 
L 184.558281 187.069077 
L 184.859166 186.980125 
L 185.160051 187.064431 
L 185.76182 185.899873 
L 186.062705 185.360879 
L 186.363589 186.476998 
L 186.664474 185.57514 
L 187.266243 185.097039 
L 187.567128 185.20522 
L 187.868012 185.149254 
L 188.168897 184.870134 
L 188.469782 185.034317 
L 188.770666 184.793273 
L 189.071551 184.281107 
L 189.372436 184.165355 
L 189.67332 183.255517 
L 189.974205 184.068685 
L 190.575974 182.941218 
L 190.876859 182.792333 
L 191.177744 183.215221 
L 191.478628 182.668691 
L 191.779513 182.752644 
L 192.381282 182.575545 
L 192.682167 182.230143 
L 192.983052 182.062338 
L 193.283936 180.90115 
L 193.584821 182.564215 
L 193.885706 181.068656 
L 194.18659 181.440089 
L 194.487475 181.021884 
L 194.78836 181.013497 
L 195.089244 180.703899 
L 195.390129 180.583019 
L 195.691014 180.735174 
L 195.991898 180.707893 
L 196.292783 179.789904 
L 196.593668 179.898863 
L 196.894552 178.935524 
L 197.195437 179.964276 
L 197.797206 178.805968 
L 198.098091 178.239974 
L 198.398975 179.046331 
L 198.69986 178.633407 
L 199.000745 178.550351 
L 199.301629 178.101994 
L 199.602514 178.615655 
L 199.903399 177.735099 
L 200.204283 177.94148 
L 200.505168 177.282485 
L 200.806053 177.706496 
L 201.708707 175.86367 
L 202.009591 176.822318 
L 202.310476 176.564509 
L 202.611361 176.484388 
L 202.912245 176.071699 
L 203.21313 176.446655 
L 203.514015 175.150512 
L 203.814899 175.54976 
L 204.115784 175.046153 
L 204.416669 175.500959 
L 205.018438 174.729581 
L 205.319323 174.198042 
L 205.620207 174.389731 
L 205.921092 174.223275 
L 206.221977 174.40339 
L 206.522861 174.102215 
L 206.823746 174.07622 
L 207.124631 173.512436 
L 207.7264 172.914126 
L 208.027285 173.842269 
L 208.328169 173.039371 
L 208.629054 172.639 
L 208.929938 171.972633 
L 209.230823 172.678871 
L 209.531708 172.045762 
L 209.832592 172.363802 
L 210.133477 172.027285 
L 210.434362 171.452759 
L 210.735246 171.151602 
L 211.036131 171.198845 
L 211.337016 170.789979 
L 211.6379 171.307824 
L 211.938785 170.968336 
L 212.540554 169.82673 
L 212.841439 170.862293 
L 213.443208 169.646724 
L 213.744093 169.514613 
L 214.044978 170.186632 
L 214.345862 169.342107 
L 214.646747 169.506878 
L 215.248516 168.98532 
L 215.549401 168.29707 
L 215.850286 167.962003 
L 216.15117 168.051435 
L 216.452055 168.441481 
L 217.053824 167.674341 
L 217.354709 167.551995 
L 217.655594 168.085328 
L 217.956478 167.007268 
L 218.257363 166.852369 
L 218.558248 165.106257 
L 218.859132 167.35824 
L 219.160017 166.492611 
L 219.761786 165.570645 
L 220.062671 165.631348 
L 220.363555 166.51366 
L 221.266209 165.167575 
L 221.567094 165.348233 
L 221.867979 164.959256 
L 222.168863 164.31238 
L 222.469748 165.232752 
L 223.071517 163.834859 
L 223.372402 163.121104 
L 223.673287 163.757509 
L 223.974171 163.008901 
L 224.275056 163.189722 
L 224.575941 163.655994 
L 224.876825 163.463453 
L 225.478595 162.197019 
L 225.779479 162.40128 
L 226.080364 163.10788 
L 226.381249 161.494639 
L 226.983018 161.922164 
L 227.283903 161.390625 
L 227.584787 160.622978 
L 227.885672 161.574217 
L 228.186557 160.567294 
L 228.487441 161.191725 
L 228.788326 160.509725 
L 229.991865 159.92511 
L 230.292749 158.47126 
L 230.593634 159.327125 
L 230.894518 159.303975 
L 231.195403 158.708418 
L 231.496288 159.265843 
L 231.797172 158.155286 
L 232.098057 159.541277 
L 232.398942 158.069494 
L 233.000711 156.80748 
L 233.301596 158.945159 
L 233.60248 157.765312 
L 234.505134 156.378451 
L 234.806019 157.271596 
L 235.106904 156.242156 
L 235.407788 157.190261 
L 236.009558 156.049977 
L 236.310442 155.11928 
L 236.912212 155.767352 
L 237.213096 155.16319 
L 237.513981 155.184838 
L 237.814866 154.463981 
L 238.11575 155.057473 
L 238.416635 154.663279 
L 238.71752 155.003419 
L 239.018404 153.749701 
L 239.319289 154.204235 
L 240.221943 153.376647 
L 240.522828 154.005698 
L 240.823712 152.401877 
L 241.124597 152.725514 
L 241.425482 152.465822 
L 241.726366 152.415879 
L 242.027251 153.130069 
L 242.328135 151.025866 
L 242.62902 152.189283 
L 242.929905 151.566336 
L 243.230789 151.948937 
L 243.531674 151.019055 
L 243.832559 151.32244 
L 244.133443 151.282533 
L 244.735213 149.927645 
L 245.036097 149.792002 
L 245.336982 150.664677 
L 245.637867 149.290659 
L 245.938751 150.626836 
L 246.239636 149.356687 
L 246.540521 150.021895 
L 247.443175 148.370759 
L 247.744059 150.047546 
L 248.044944 148.512072 
L 248.345829 147.653344 
L 248.646713 147.268516 
L 248.947598 147.668035 
L 249.248483 147.409937 
L 249.549367 147.306104 
L 249.850252 146.300394 
L 250.151137 148.348043 
L 250.452021 147.37657 
L 250.752906 145.562129 
L 251.053791 146.866533 
L 251.354675 147.135427 
L 251.65556 145.583197 
L 251.956445 145.314085 
L 252.257329 145.371472 
L 252.558214 144.98284 
L 252.859098 145.352742 
L 253.159983 145.470378 
L 253.460868 145.381816 
L 253.761752 144.693349 
L 254.062637 145.065424 
L 254.363522 143.747218 
L 254.664406 144.273957 
L 254.965291 144.213907 
L 255.266176 144.028014 
L 255.56706 144.04285 
L 255.867945 142.277464 
L 256.16883 144.174634 
L 256.469714 142.0421 
L 256.770599 142.648163 
L 257.071484 142.236996 
L 257.372368 142.12675 
L 257.673253 143.70434 
L 257.974138 142.78406 
L 258.275022 141.336913 
L 258.575907 142.316972 
L 258.876792 141.196687 
L 259.177676 141.135169 
L 259.478561 139.696826 
L 259.779446 140.353593 
L 260.08033 140.622052 
L 260.6821 140.309972 
L 260.982984 140.863231 
L 261.584754 139.203291 
L 261.885638 139.259718 
L 262.186523 140.549992 
L 262.487408 139.599496 
L 262.788292 137.981437 
L 263.089177 137.877929 
L 263.390062 138.122279 
L 263.690946 138.717075 
L 263.991831 138.299495 
L 264.292715 137.576283 
L 264.5936 138.862934 
L 265.195369 136.790395 
L 265.496254 137.10003 
L 265.797139 137.748663 
L 266.398908 135.452734 
L 266.699793 136.849775 
L 267.301562 135.33363 
L 267.602447 135.940055 
L 267.903331 135.991392 
L 268.204216 136.366765 
L 268.505101 135.319808 
L 268.805985 135.127973 
L 269.10687 135.489144 
L 269.407755 135.221645 
L 269.708639 134.746569 
L 270.009524 133.606737 
L 270.310409 133.515439 
L 270.611293 133.643021 
L 270.912178 132.230564 
L 271.213063 134.544698 
L 271.814832 132.710223 
L 272.115717 132.771577 
L 272.416601 131.017803 
L 273.018371 133.878367 
L 273.319255 131.469239 
L 273.62014 131.995 
L 273.921025 130.928208 
L 274.221909 131.680058 
L 274.522794 131.365877 
L 274.823678 131.492915 
L 275.124563 129.225191 
L 275.425448 130.967154 
L 275.726332 130.313304 
L 276.027217 130.273706 
L 276.328102 131.996105 
L 276.628986 131.224347 
L 276.929871 127.899775 
L 277.53164 129.610164 
L 277.832525 129.443781 
L 278.13341 127.826283 
L 278.735179 129.614367 
L 279.036064 128.320597 
L 279.336948 128.184809 
L 279.637833 127.570286 
L 279.938718 129.093008 
L 280.841372 126.287549 
L 281.142256 125.252602 
L 281.443141 127.469895 
L 281.744026 125.629224 
L 282.04491 125.88216 
L 282.345795 126.905042 
L 282.64668 127.350773 
L 282.947564 124.89893 
L 283.248449 126.127034 
L 283.850218 125.408877 
L 284.151103 126.223151 
L 284.451988 123.24745 
L 284.752872 123.150391 
L 285.053757 124.655505 
L 285.655526 123.853531 
L 285.956411 123.795111 
L 286.257295 123.518699 
L 286.55818 125.010336 
L 287.159949 122.748553 
L 287.460834 123.606501 
L 287.761719 123.219951 
L 288.062603 121.770341 
L 288.363488 121.637977 
L 288.664373 122.518496 
L 288.965257 120.486226 
L 289.266142 122.064379 
L 289.567027 120.203202 
L 289.867911 122.469133 
L 290.168796 122.518605 
L 290.469681 121.225415 
L 291.07145 122.264836 
L 291.372335 120.249956 
L 291.974104 120.027272 
L 292.274989 119.265912 
L 292.575873 119.128892 
L 292.876758 118.261361 
L 293.177643 118.193902 
L 293.478527 119.743035 
L 293.779412 118.763718 
L 294.080297 119.595382 
L 294.381181 117.541592 
L 294.682066 119.164813 
L 294.982951 118.869834 
L 295.283835 117.503007 
L 295.58472 115.041438 
L 295.885605 117.843854 
L 296.186489 114.700881 
L 296.487374 118.387693 
L 297.089143 116.163444 
L 297.390028 117.220527 
L 297.690912 116.921707 
L 297.991797 113.60179 
L 298.292682 117.457666 
L 298.593566 115.141612 
L 298.894451 115.191373 
L 299.195336 114.195264 
L 299.49622 115.773416 
L 299.797105 114.908023 
L 300.09799 114.529208 
L 300.699759 115.659873 
L 301.000644 113.708232 
L 301.301528 112.679227 
L 301.602413 113.357133 
L 301.903298 113.660627 
L 302.204182 113.393199 
L 302.505067 111.94156 
L 302.805952 113.947473 
L 303.407721 111.631799 
L 303.708606 112.93977 
L 304.00949 112.754095 
L 304.61126 112.152361 
L 304.912144 110.722966 
L 305.513914 112.270487 
L 305.814798 110.371233 
L 306.115683 110.371994 
L 306.416568 111.062019 
L 306.717452 111.297673 
L 307.018337 111.062146 
L 307.319222 108.604471 
L 307.920991 110.736752 
L 308.221875 109.816199 
L 308.52276 109.685085 
L 308.823645 107.700131 
L 309.124529 110.605927 
L 310.328068 106.081709 
L 310.628953 109.366375 
L 310.929837 106.908808 
L 311.230722 107.873796 
L 311.832491 107.36894 
L 312.133376 107.34117 
L 312.434261 108.048458 
L 312.735145 108.048422 
L 313.03603 108.771633 
L 313.336915 104.127713 
L 313.637799 104.607445 
L 313.938684 104.438199 
L 314.540453 104.772796 
L 315.142223 107.410857 
L 315.443107 105.449778 
L 315.743992 105.947697 
L 316.044877 104.020438 
L 316.345761 106.817691 
L 316.646646 104.710988 
L 316.947531 105.660905 
L 317.248415 102.53016 
L 317.5493 103.50714 
L 317.850185 100.341995 
L 318.151069 103.804656 
L 318.451954 103.136404 
L 319.053723 101.274902 
L 319.354608 102.816825 
L 319.655492 103.212939 
L 319.956377 103.011485 
L 320.257262 103.182361 
L 320.558146 99.4109 
L 320.859031 101.745304 
L 321.4608 100.612629 
L 321.761685 101.125311 
L 322.06257 100.507998 
L 322.363454 99.04203 
L 322.664339 101.079897 
L 322.965224 101.072669 
L 323.266108 99.825817 
L 323.566993 101.583812 
L 323.867878 99.762433 
L 324.168762 100.272996 
L 324.469647 98.201073 
L 324.770532 99.756782 
L 325.071416 97.786736 
L 325.372301 98.822607 
L 325.673186 99.055634 
L 325.97407 98.822878 
L 326.274955 98.085012 
L 326.57584 99.470678 
L 326.876724 96.281821 
L 327.177609 99.039403 
L 327.478494 97.053127 
L 327.779378 96.099732 
L 328.080263 93.555759 
L 328.381148 97.949696 
L 328.682032 95.974904 
L 328.982917 96.980885 
L 329.283801 96.524794 
L 329.584686 96.666469 
L 329.885571 96.098772 
L 330.186455 95.948583 
L 330.48734 96.059989 
L 330.788225 94.467942 
L 331.089109 95.5735 
L 331.389994 93.024255 
L 331.690879 93.034816 
L 331.991763 95.628913 
L 332.292648 94.497668 
L 332.593533 96.065242 
L 332.894417 93.313311 
L 333.195302 94.3248 
L 333.496187 93.159445 
L 333.797071 95.192113 
L 334.097956 90.551599 
L 334.699725 95.759321 
L 335.00061 91.328774 
L 335.301495 90.334168 
L 335.602379 94.349436 
L 336.204149 89.99805 
L 336.805918 92.028581 
L 337.106803 91.041837 
L 337.407687 92.472228 
L 337.708572 91.648118 
L 338.009457 92.73951 
L 338.310341 91.060151 
L 338.611226 88.484694 
L 338.912111 90.645959 
L 339.212995 88.456236 
L 339.51388 88.261575 
L 339.814765 89.781471 
L 340.115649 89.663019 
L 340.416534 89.78013 
L 340.717418 88.566246 
L 341.018303 88.002372 
L 341.319188 90.679181 
L 341.620072 89.064564 
L 341.920957 90.331361 
L 342.221842 86.446012 
L 342.522726 89.751328 
L 342.823611 85.527452 
L 343.124496 86.774286 
L 343.42538 86.082124 
L 343.726265 88.409138 
L 344.02715 88.658813 
L 344.328034 85.01861 
L 344.628919 87.897325 
L 344.929804 87.050843 
L 345.230688 88.056318 
L 345.531573 86.370999 
L 345.832458 84.025001 
L 346.133342 83.823601 
L 346.434227 84.703867 
L 346.735112 86.525082 
L 347.035996 84.860378 
L 347.336881 87.281625 
L 347.637766 83.641549 
L 347.93865 84.516688 
L 348.239535 86.071943 
L 348.54042 83.485654 
L 348.841304 84.446602 
L 349.142189 84.116607 
L 349.443074 84.210495 
L 349.743958 82.962012 
L 350.044843 84.173106 
L 350.345728 83.254057 
L 350.646612 81.329552 
L 350.947497 82.93234 
L 351.248381 83.714352 
L 351.549266 81.001259 
L 351.850151 81.581545 
L 352.151035 82.975508 
L 352.45192 81.939927 
L 352.752805 82.132124 
L 353.053689 82.9629 
L 353.354574 78.445167 
L 353.655459 81.749614 
L 353.956343 80.344457 
L 354.558113 80.483632 
L 354.858997 81.89522 
L 355.159882 79.808805 
L 355.460767 80.483668 
L 355.761651 83.355246 
L 356.062536 81.799429 
L 356.363421 78.920895 
L 356.96519 79.220041 
L 357.266075 79.642295 
L 357.566959 78.214041 
L 357.867844 79.019765 
L 358.168729 76.728075 
L 358.770498 79.146731 
L 359.071383 78.95073 
L 359.372267 79.24426 
L 359.673152 79.13079 
L 359.974037 79.854237 
L 360.274921 75.627697 
L 360.575806 75.130775 
L 360.876691 78.502808 
L 361.177575 75.700084 
L 361.47846 76.280551 
L 361.779345 77.652341 
L 362.080229 75.957765 
L 362.381114 72.017855 
L 362.681998 76.462749 
L 362.982883 75.056668 
L 363.283768 76.772383 
L 363.885537 74.695914 
L 364.186422 75.47403 
L 364.487306 73.965112 
L 364.788191 75.31857 
L 365.089076 74.588711 
L 365.38996 75.001436 
L 365.690845 74.80942 
L 365.99173 75.009388 
L 366.292614 70.836813 
L 367.195268 76.614767 
L 367.797038 72.208929 
L 368.097922 72.400111 
L 368.398807 71.733128 
L 368.699692 72.01262 
L 369.000576 74.440877 
L 369.301461 70.859493 
L 369.602346 71.744432 
L 369.90323 68.258856 
L 370.204115 73.210364 
L 370.505 74.545163 
L 370.805884 73.162179 
L 371.106769 71.24923 
L 371.407654 68.006102 
L 371.708538 71.751931 
L 372.009423 67.301005 
L 372.310308 72.34046 
L 372.611192 68.660839 
L 372.912077 71.029137 
L 373.212961 69.987451 
L 373.513846 70.830418 
L 373.814731 69.875013 
L 374.115615 68.11162 
L 374.717385 69.665118 
L 375.018269 67.712118 
L 375.319154 68.151237 
L 375.620039 67.567146 
L 375.920923 66.16842 
L 376.221808 67.480196 
L 376.522693 66.465936 
L 376.823577 69.116442 
L 377.124462 66.597738 
L 377.425347 69.370845 
L 377.726231 68.337728 
L 378.328001 64.72707 
L 378.628885 65.392731 
L 378.92977 65.376826 
L 379.230655 67.796642 
L 379.531539 68.074666 
L 379.832424 65.212689 
L 380.133309 65.751039 
L 380.434193 65.40206 
L 380.735078 68.161127 
L 381.035963 65.717853 
L 381.336847 67.406505 
L 381.637732 65.607462 
L 381.938617 63.084791 
L 382.239501 63.689768 
L 382.540386 62.619588 
L 383.142155 65.815818 
L 383.44304 66.93536 
L 383.743925 63.021897 
L 384.044809 62.914622 
L 384.345694 62.673044 
L 384.646578 65.553064 
L 384.947463 63.176017 
L 385.549232 64.766324 
L 385.850117 64.820469 
L 386.151002 58.472518 
L 386.451886 63.074484 
L 387.053656 59.591879 
L 387.35454 61.632319 
L 387.655425 60.467689 
L 387.95631 65.154758 
L 388.257194 63.341441 
L 388.558079 63.449857 
L 388.858964 57.79914 
L 389.159848 59.326372 
L 389.460733 59.476326 
L 389.761618 60.312826 
L 390.062502 59.812861 
L 390.363387 56.568392 
L 390.965156 60.705698 
L 391.266041 58.294686 
L 391.566926 57.466573 
L 391.86781 61.375597 
L 392.168695 61.919491 
L 392.46958 58.753386 
L 392.770464 57.371162 
L 393.071349 58.895768 
L 393.372234 55.37543 
L 393.673118 57.422155 
L 393.974003 57.316311 
L 394.274888 57.924603 
L 394.575772 57.84296 
L 395.177541 57.085675 
L 395.779311 60.179882 
L 396.38108 53.568 
L 396.982849 55.713161 
L 397.283734 56.080508 
L 397.885503 57.709799 
L 398.186388 55.652911 
L 398.487273 56.500769 
L 398.487273 56.500769 
" clip-path="url(#p67b288842d)" style="fill: none; stroke: #6495ed; stroke-width: 2; stroke-linecap: square"/>
   </g>
   <g id="line2d_32">
    <path d="M 73.832727 224.41415 
L 75.036266 234.554529 
L 76.540689 244.726136 
L 77.744228 251.015502 
L 78.045112 252.768261 
L 78.345997 253.544139 
L 79.248651 258.124912 
L 79.85042 260.171399 
L 80.151305 261.693766 
L 80.45219 262.256104 
L 81.053959 264.688249 
L 81.354844 265.563509 
L 81.655728 266.821622 
L 81.956613 266.708202 
L 82.257498 268.104166 
L 82.558382 268.829128 
L 82.859267 270.272235 
L 83.160152 270.652593 
L 83.461036 271.453878 
L 83.761921 272.598447 
L 84.062806 272.816745 
L 84.36369 273.826725 
L 84.96546 274.979113 
L 85.266344 276.045862 
L 85.567229 275.442733 
L 85.868114 276.630007 
L 86.168998 276.834868 
L 86.469883 278.282633 
L 86.770768 278.202469 
L 87.372537 279.752133 
L 87.673422 279.585754 
L 87.974306 280.469158 
L 88.275191 280.967969 
L 88.576075 281.020887 
L 88.87696 282.057238 
L 89.177845 280.960989 
L 89.478729 282.028608 
L 89.779614 282.109899 
L 90.080499 283.483794 
L 90.381383 283.173264 
L 90.682268 283.588693 
L 90.983153 284.303788 
L 91.284037 283.835222 
L 91.584922 284.593708 
L 92.186691 284.871574 
L 92.487576 285.605113 
L 92.788461 284.297575 
L 93.089345 285.297723 
L 93.39023 285.248596 
L 93.691115 286.557255 
L 93.991999 286.05534 
L 94.292884 286.303243 
L 94.593769 286.873987 
L 94.894653 286.182199 
L 95.195538 286.845063 
L 95.496423 287.014735 
L 95.797307 286.824241 
L 96.098192 287.42034 
L 96.399077 285.884857 
L 96.699961 286.945723 
L 97.000846 286.763833 
L 97.301731 288.012716 
L 97.602615 287.15446 
L 98.204385 287.925603 
L 98.505269 286.892344 
L 98.806154 287.852681 
L 99.107039 287.762483 
L 99.407923 287.427308 
L 99.708808 288.039309 
L 100.009692 286.097926 
L 100.310577 287.082558 
L 100.611462 286.945487 
L 100.912346 288.088646 
L 101.213231 287.097261 
L 101.815 287.797789 
L 102.115885 286.512323 
L 102.41677 287.530373 
L 102.717654 287.325559 
L 103.018539 286.864738 
L 103.319424 287.382854 
L 103.620308 285.215969 
L 103.921193 286.169361 
L 104.222078 285.858612 
L 104.522962 287.21545 
L 104.823847 286.021503 
L 105.124732 286.141587 
L 105.425616 286.678868 
L 105.726501 285.272162 
L 106.027386 286.154244 
L 106.629155 285.4196 
L 106.93004 285.620217 
L 107.230924 283.357346 
L 107.531809 284.328211 
L 107.832694 283.919199 
L 108.133578 285.51391 
L 108.434463 283.947899 
L 108.735348 283.904788 
L 109.036232 284.674031 
L 109.337117 282.723054 
L 109.638002 283.925304 
L 110.239771 283.157969 
L 110.540655 282.989449 
L 110.84154 280.648913 
L 111.142425 281.787689 
L 111.443309 281.077206 
L 111.744194 282.598578 
L 112.045079 280.893419 
L 112.345963 281.18823 
L 112.646848 281.64943 
L 112.947733 279.53626 
L 113.248617 280.941417 
L 114.151271 279.700796 
L 114.452156 277.134356 
L 114.753041 277.847872 
L 115.053925 277.559286 
L 115.35481 279.326472 
L 115.655695 277.196068 
L 115.956579 277.515957 
L 116.257464 278.223782 
L 116.558349 275.728128 
L 116.859233 277.320489 
L 117.160118 276.928405 
L 117.461003 276.150366 
L 117.761887 275.727388 
L 118.062772 272.75779 
L 118.363657 273.703261 
L 118.664541 273.38917 
L 118.965426 275.139227 
L 119.266311 273.197145 
L 119.567195 273.377785 
L 119.86808 274.327996 
L 120.168965 271.021384 
L 120.469849 273.1791 
L 121.071619 271.794957 
L 121.372503 271.360751 
L 121.673388 267.878456 
L 121.974272 269.261551 
L 122.275157 268.835616 
L 122.576042 270.921858 
L 122.876926 268.411829 
L 123.177811 268.668194 
L 123.478696 269.38632 
L 123.77958 266.358825 
L 124.080465 268.472896 
L 124.682234 267.331379 
L 124.983119 266.719871 
L 125.284004 263.073314 
L 125.584888 264.319326 
L 125.885773 263.982805 
L 126.186658 266.040681 
L 126.487542 263.517258 
L 126.788427 263.76879 
L 127.089312 264.990389 
L 127.390196 261.301923 
L 127.691081 263.666698 
L 128.29285 262.7523 
L 128.593735 261.598339 
L 128.89462 258.029631 
L 129.195504 259.445746 
L 129.496389 259.004303 
L 129.797274 261.058935 
L 130.098158 258.721436 
L 130.399043 259.159393 
L 130.699928 259.920203 
L 131.000812 256.315614 
L 131.301697 258.874393 
L 131.903466 257.788983 
L 132.204351 256.742663 
L 132.505235 253.057602 
L 132.80612 254.442807 
L 133.107005 254.174186 
L 133.407889 256.373509 
L 133.708774 253.969304 
L 134.009659 254.311441 
L 134.310543 255.322524 
L 134.611428 251.443646 
L 134.912313 254.333932 
L 135.213197 253.494364 
L 135.514082 253.188972 
L 135.814967 252.085098 
L 136.115851 248.361286 
L 136.416736 249.935295 
L 136.717621 249.735363 
L 137.018505 252.08571 
L 137.31939 249.256287 
L 137.620275 249.765659 
L 137.921159 250.79884 
L 138.222044 246.824096 
L 138.522929 249.736275 
L 139.124698 248.798539 
L 139.425583 247.582063 
L 139.726467 244.149113 
L 140.027352 245.343396 
L 140.328237 245.45413 
L 140.629121 247.491988 
L 140.930006 245.132157 
L 141.531775 246.221438 
L 141.83266 242.805086 
L 142.133545 245.558774 
L 142.735314 244.761271 
L 143.036199 243.612133 
L 143.337083 240.166579 
L 143.637968 241.505051 
L 143.938852 241.409938 
L 144.239737 243.554371 
L 144.540622 241.124212 
L 144.841506 241.590076 
L 145.142391 242.264417 
L 145.443276 239.067412 
L 145.74416 241.664302 
L 146.045045 241.006949 
L 146.34593 241.244165 
L 146.646814 239.779101 
L 146.947699 236.637373 
L 147.248584 237.744279 
L 147.549468 237.993419 
L 147.850353 239.775069 
L 148.151238 237.523586 
L 148.753007 238.791038 
L 149.053892 235.787456 
L 149.354776 238.158619 
L 149.956546 237.530227 
L 150.25743 236.440584 
L 150.558315 233.73695 
L 150.8592 234.671114 
L 151.160084 234.892178 
L 151.460969 236.758461 
L 151.761854 234.597017 
L 152.062738 234.977773 
L 152.363623 235.762199 
L 152.664508 233.04298 
L 152.965392 235.246163 
L 153.266277 234.806422 
L 153.567162 234.899855 
L 153.868046 233.689721 
L 154.168931 231.156473 
L 154.469815 232.022328 
L 154.7707 232.457741 
L 155.071585 234.163683 
L 155.372469 232.016396 
L 155.974239 233.268585 
L 156.275123 230.961033 
L 156.576008 232.802682 
L 156.876893 232.596755 
L 157.177777 232.527367 
L 157.478662 231.893826 
L 157.779547 229.482548 
L 158.381316 230.757724 
L 158.682201 232.353661 
L 158.983085 230.183093 
L 159.584855 231.749175 
L 159.885739 229.470689 
L 160.186624 231.252481 
L 160.788393 231.122954 
L 161.089278 230.489254 
L 161.390163 228.49228 
L 161.991932 229.855544 
L 162.292817 231.119168 
L 162.593701 229.345323 
L 163.195471 230.645125 
L 163.496355 228.787507 
L 163.79724 230.550273 
L 164.699894 230.092606 
L 165.000778 228.3077 
L 165.301663 228.739727 
L 165.903432 230.783505 
L 166.204317 229.234693 
L 166.806086 230.516288 
L 167.106971 228.881261 
L 167.407856 230.498974 
L 168.009625 230.569857 
L 168.31051 230.207365 
L 168.611394 228.784508 
L 168.912279 229.13612 
L 169.514048 231.091198 
L 169.814933 229.725992 
L 170.416702 230.982814 
L 170.717587 229.502851 
L 171.018472 230.942075 
L 171.319356 231.076028 
L 171.620241 231.088177 
L 171.921126 230.871243 
L 172.22201 229.65991 
L 172.522895 230.04071 
L 173.124664 231.862089 
L 173.425549 230.644335 
L 174.027318 231.790064 
L 174.328203 230.318153 
L 174.629088 231.946186 
L 175.531742 231.839064 
L 175.832626 230.740291 
L 176.133511 230.980675 
L 176.73528 232.689905 
L 177.036165 231.475998 
L 177.637934 232.674738 
L 177.938819 231.418181 
L 178.239703 232.79212 
L 178.540588 232.706043 
L 178.841473 232.836576 
L 179.142357 232.712083 
L 179.443242 231.657249 
L 179.744127 231.857611 
L 180.345896 233.562224 
L 180.646781 232.243228 
L 181.24855 233.470779 
L 181.549435 232.000547 
L 181.850319 233.516677 
L 182.151204 233.407457 
L 182.452089 233.518362 
L 182.752973 233.357764 
L 183.053858 232.619637 
L 183.354743 233.004507 
L 183.956512 234.678598 
L 184.257397 233.590943 
L 184.859166 234.977406 
L 185.160051 233.696479 
L 185.460935 235.25473 
L 186.062705 235.481326 
L 186.363589 235.306874 
L 186.664474 234.652392 
L 186.965358 234.981579 
L 187.567128 236.663493 
L 187.868012 235.709009 
L 188.469782 236.849678 
L 188.770666 235.695275 
L 189.071551 237.150678 
L 189.372436 237.108859 
L 189.67332 237.341664 
L 189.974205 237.299052 
L 190.27509 236.581274 
L 190.575974 237.050188 
L 191.177744 238.490038 
L 191.478628 237.755063 
L 192.080398 238.857516 
L 192.381282 237.644879 
L 192.682167 239.021945 
L 192.983052 238.961808 
L 193.283936 239.302523 
L 193.885706 238.567376 
L 194.18659 238.716466 
L 194.78836 240.275117 
L 195.089244 239.520821 
L 195.691014 240.585866 
L 195.991898 239.328858 
L 196.292783 240.949688 
L 196.593668 240.774094 
L 196.894552 241.020334 
L 197.195437 240.843048 
L 197.496322 240.28829 
L 197.797206 240.724526 
L 198.398975 242.015872 
L 198.69986 241.310804 
L 199.000745 241.757989 
L 199.301629 242.546581 
L 199.602514 241.11653 
L 199.903399 242.647817 
L 200.204283 242.453887 
L 200.806053 242.642454 
L 201.106937 242.117424 
L 201.407822 242.525074 
L 201.708707 243.352472 
L 202.009591 243.824981 
L 202.310476 243.090375 
L 202.611361 243.457317 
L 202.912245 244.173637 
L 203.21313 242.818795 
L 203.514015 244.503816 
L 203.814899 244.216803 
L 204.416669 244.339436 
L 204.717553 243.762328 
L 205.018438 244.1691 
L 205.620207 245.509623 
L 205.921092 244.803549 
L 206.221977 245.104802 
L 206.522861 245.795161 
L 206.823746 244.558205 
L 207.124631 245.984259 
L 207.425515 245.920126 
L 207.7264 245.984746 
L 208.027285 245.773801 
L 208.328169 245.40001 
L 208.629054 245.779843 
L 209.230823 246.92887 
L 209.531708 246.388229 
L 209.832592 246.604375 
L 210.133477 247.308299 
L 210.434362 246.308249 
L 210.735246 247.616329 
L 211.036131 247.420532 
L 211.337016 247.516822 
L 211.6379 247.489685 
L 211.938785 247.031531 
L 212.841439 248.377293 
L 213.142324 247.853074 
L 213.744093 248.98109 
L 214.044978 247.591849 
L 214.345862 249.037231 
L 214.646747 248.760095 
L 214.947632 248.79125 
L 215.248516 249.000491 
L 215.549401 248.694411 
L 216.452055 249.921881 
L 216.75294 249.444695 
L 217.053824 249.810441 
L 217.354709 250.452155 
L 217.655594 249.069117 
L 217.956478 250.585741 
L 218.257363 250.448153 
L 218.558248 250.99474 
L 218.859132 250.430484 
L 219.160017 250.189615 
L 219.761786 251.093297 
L 220.062671 251.67556 
L 220.363555 250.765665 
L 220.66444 251.120092 
L 220.965325 251.79934 
L 221.266209 250.782609 
L 221.567094 251.875661 
L 221.867979 251.782698 
L 222.168863 251.937654 
L 222.770633 251.572477 
L 223.673287 252.958555 
L 223.974171 252.562094 
L 224.275056 252.802351 
L 224.575941 253.19953 
L 224.876825 252.098276 
L 225.17771 253.387439 
L 225.478595 253.3996 
L 226.080364 253.105378 
L 226.381249 253.217135 
L 226.983018 253.706157 
L 227.283903 254.352034 
L 227.584787 254.087123 
L 227.885672 254.051906 
L 228.186557 254.884601 
L 228.487441 253.586008 
L 228.788326 254.860923 
L 229.390095 254.648123 
L 229.69098 254.799895 
L 229.991865 254.524338 
L 230.292749 255.235957 
L 230.593634 255.247092 
L 230.894518 255.795929 
L 231.195403 255.404478 
L 231.496288 255.436017 
L 231.797172 256.33577 
L 232.098057 254.790216 
L 232.398942 256.311697 
L 232.699826 256.266378 
L 233.000711 256.430085 
L 233.301596 255.8993 
L 233.60248 255.90269 
L 234.20425 256.659642 
L 234.505134 257.293832 
L 234.806019 256.567317 
L 235.106904 257.027641 
L 235.407788 257.239542 
L 235.708673 256.270807 
L 236.009558 257.563822 
L 236.310442 257.600853 
L 237.213096 257.372907 
L 237.513981 257.595296 
L 238.11575 258.36394 
L 238.416635 258.012748 
L 238.71752 258.016274 
L 239.018404 258.917144 
L 239.319289 257.717198 
L 239.620174 258.85822 
L 239.921058 258.653067 
L 240.221943 258.731642 
L 240.522828 258.6078 
L 241.425482 259.295927 
L 241.726366 259.75523 
L 242.027251 259.090412 
L 242.328135 259.823821 
L 242.62902 260.094403 
L 242.929905 259.125205 
L 243.230789 260.124879 
L 243.531674 260.124279 
L 243.832559 259.929224 
L 244.133443 260.029861 
L 244.434328 260.008236 
L 244.735213 260.471367 
L 245.336982 260.907223 
L 245.637867 260.831653 
L 245.938751 260.582457 
L 246.239636 261.44536 
L 246.540521 260.19205 
L 246.841405 261.347307 
L 247.14229 261.300853 
L 247.443175 261.409715 
L 247.744059 260.964048 
L 248.044944 261.196071 
L 248.646713 261.997638 
L 248.947598 262.315222 
L 249.248483 261.999923 
L 249.549367 262.113483 
L 249.850252 262.945854 
L 250.151137 261.3414 
L 250.452021 262.557285 
L 250.752906 262.806181 
L 251.053791 262.448609 
L 251.354675 262.508205 
L 252.257329 263.144377 
L 252.558214 263.701033 
L 252.859098 263.221225 
L 253.159983 263.232676 
L 253.460868 263.76448 
L 253.761752 262.919272 
L 254.062637 263.791006 
L 254.363522 263.956283 
L 254.664406 263.798155 
L 255.266176 263.750887 
L 255.56706 263.954477 
L 255.867945 264.56013 
L 256.16883 264.45296 
L 256.469714 264.627052 
L 256.770599 264.531431 
L 257.071484 265.167748 
L 257.372368 264.210384 
L 257.673253 264.744172 
L 257.974138 264.665215 
L 258.275022 265.024064 
L 258.575907 264.826245 
L 259.177676 265.277832 
L 259.478561 265.76195 
L 259.779446 265.997604 
L 260.08033 265.617363 
L 260.381215 265.628143 
L 260.6821 266.16862 
L 260.982984 265.027673 
L 261.283869 266.285429 
L 261.885638 266.220042 
L 262.186523 265.888487 
L 262.487408 266.000825 
L 262.788292 266.647997 
L 263.390062 267.155441 
L 263.690946 266.61814 
L 263.991831 266.790708 
L 264.292715 267.485786 
L 264.5936 266.185033 
L 264.894485 267.279631 
L 265.195369 267.399972 
L 265.797139 267.090421 
L 266.098023 267.271945 
L 266.398908 267.868043 
L 266.699793 267.618908 
L 267.000677 268.078035 
L 267.602447 267.825839 
L 267.903331 268.405976 
L 268.204216 267.313157 
L 268.505101 268.460847 
L 269.10687 268.201376 
L 269.708639 268.374585 
L 270.009524 268.805728 
L 270.912178 269.312295 
L 271.213063 268.762505 
L 271.513947 269.362612 
L 271.814832 268.680092 
L 272.115717 269.616994 
L 272.416601 269.812983 
L 273.018371 269.111404 
L 273.319255 269.650809 
L 274.221909 270.228286 
L 274.823678 270.003819 
L 275.124563 271.072696 
L 275.425448 269.714694 
L 275.726332 270.778021 
L 276.328102 270.095335 
L 276.628986 270.117111 
L 276.929871 270.957097 
L 277.230756 271.063795 
L 277.53164 270.945672 
L 277.832525 271.31809 
L 278.13341 271.429402 
L 278.434294 271.163221 
L 278.735179 271.462019 
L 279.036064 270.847323 
L 279.336948 271.764284 
L 279.637833 271.671041 
L 279.938718 271.306431 
L 280.239602 271.294815 
L 281.142256 272.40744 
L 281.443141 272.295091 
L 281.744026 272.349252 
L 282.04491 272.284968 
L 282.345795 272.604744 
L 282.64668 271.571516 
L 282.947564 273.007836 
L 283.248449 272.452138 
L 283.850218 272.591337 
L 284.151103 272.361086 
L 284.451988 273.312482 
L 284.752872 273.43389 
L 285.053757 273.375746 
L 285.354642 273.159859 
L 285.655526 273.213977 
L 285.956411 273.656676 
L 286.257295 272.86741 
L 286.55818 273.313068 
L 286.859065 273.362787 
L 287.159949 273.542274 
L 287.460834 273.437237 
L 287.761719 273.587063 
L 288.062603 274.112862 
L 288.363488 274.146158 
L 288.965257 274.489771 
L 289.266142 274.094579 
L 289.567027 274.991783 
L 289.867911 273.645596 
L 290.168796 274.505242 
L 291.07145 274.02932 
L 291.372335 274.649988 
L 291.974104 274.876452 
L 292.274989 275.385974 
L 292.575873 275.055393 
L 292.876758 275.309618 
L 293.177643 275.949027 
L 293.478527 274.725973 
L 293.779412 275.680242 
L 294.080297 275.205895 
L 294.381181 275.558394 
L 294.682066 275.324341 
L 294.982951 275.486247 
L 295.58472 276.534763 
L 295.885605 276.271748 
L 296.186489 276.681117 
L 296.487374 275.835916 
L 296.788258 276.393902 
L 297.089143 275.85678 
L 297.390028 276.346451 
L 297.690912 276.189911 
L 297.991797 276.971545 
L 298.292682 276.099909 
L 298.593566 276.721285 
L 299.195336 277.080398 
L 300.09799 277.014917 
L 300.398874 277.419719 
L 300.699759 276.395937 
L 301.000644 277.509743 
L 301.602413 277.472988 
L 301.903298 277.236584 
L 302.204182 277.495148 
L 302.505067 278.043761 
L 302.805952 277.667023 
L 303.106836 278.154315 
L 303.407721 278.086789 
L 303.708606 277.699046 
L 304.00949 278.180665 
L 304.310375 277.413249 
L 304.61126 278.28782 
L 304.912144 278.389274 
L 305.513914 278.021202 
L 305.814798 278.569422 
L 306.115683 278.66643 
L 306.416568 278.589353 
L 306.717452 278.724529 
L 307.018337 278.471895 
L 307.620106 279.292644 
L 307.920991 278.150295 
L 308.221875 279.151176 
L 308.52276 278.909404 
L 308.823645 279.391277 
L 309.124529 278.726196 
L 310.328068 280.224512 
L 310.628953 279.449498 
L 311.230722 280.128877 
L 311.531607 279.313232 
L 311.832491 280.143346 
L 312.133376 279.751158 
L 312.735145 279.56501 
L 313.03603 279.561917 
L 313.336915 280.611024 
L 313.938684 280.960329 
L 314.239569 280.825848 
L 314.540453 280.568528 
L 314.841338 280.717044 
L 315.142223 279.604975 
L 315.443107 280.762702 
L 315.743992 280.37853 
L 316.044877 280.860802 
L 316.345761 280.166686 
L 316.646646 280.825281 
L 316.947531 280.683273 
L 317.248415 281.223567 
L 317.5493 281.344584 
L 317.850185 281.799166 
L 318.151069 281.053685 
L 318.451954 281.601152 
L 318.752838 280.985688 
L 319.053723 282.011068 
L 319.354608 281.423973 
L 319.956377 281.275544 
L 320.257262 281.542371 
L 320.558146 282.429764 
L 320.859031 281.945958 
L 321.159916 282.143854 
L 321.4608 282.120507 
L 321.761685 281.921352 
L 322.06257 282.404087 
L 322.363454 281.990198 
L 322.664339 282.377191 
L 322.965224 282.140279 
L 323.266108 282.298001 
L 323.566993 281.864353 
L 323.867878 282.514776 
L 324.168762 282.461492 
L 324.469647 282.888251 
L 324.770532 282.862916 
L 325.071416 282.98557 
L 325.372301 282.693133 
L 325.673186 283.245911 
L 325.97407 282.275514 
L 326.274955 283.201237 
L 326.57584 282.624267 
L 326.876724 283.326991 
L 327.177609 282.748722 
L 327.478494 283.427202 
L 327.779378 283.68517 
L 328.080263 284.20823 
L 328.381148 283.620662 
L 328.682032 283.742838 
L 328.982917 283.328748 
L 329.283801 283.991616 
L 329.584686 283.096964 
L 329.885571 283.772163 
L 330.48734 283.656329 
L 331.089109 284.055022 
L 331.389994 284.733171 
L 331.690879 284.647584 
L 331.991763 284.267076 
L 332.292648 284.403575 
L 332.593533 283.810583 
L 332.894417 284.843905 
L 333.195302 283.83071 
L 333.496187 284.743438 
L 333.797071 284.183372 
L 334.097956 284.900759 
L 334.699725 284.267904 
L 335.00061 285.237699 
L 335.301495 285.475064 
L 335.602379 284.803939 
L 336.204149 285.237613 
L 336.505033 285.583485 
L 336.805918 284.60372 
L 337.106803 285.493151 
L 337.407687 284.962572 
L 338.009457 284.907764 
L 338.310341 285.339908 
L 338.611226 286.068513 
L 338.912111 285.563468 
L 339.212995 286.104704 
L 339.51388 286.004748 
L 339.814765 285.725494 
L 340.115649 286.237224 
L 340.416534 285.464412 
L 340.717418 286.389627 
L 341.319188 285.806198 
L 341.920957 285.941758 
L 342.221842 286.764033 
L 342.522726 286.017705 
L 342.823611 287.006724 
L 343.124496 286.674188 
L 343.42538 286.571193 
L 343.726265 286.592453 
L 344.02715 285.834555 
L 344.328034 287.130663 
L 344.628919 286.434461 
L 344.929804 286.52505 
L 345.230688 286.237937 
L 345.832458 287.442911 
L 346.434227 287.448233 
L 346.735112 287.116072 
L 347.035996 287.076857 
L 347.336881 287.22739 
L 347.637766 287.072387 
L 347.93865 287.637538 
L 348.239535 287.128831 
L 348.54042 287.419751 
L 348.841304 287.144334 
L 349.142189 287.562413 
L 349.743958 287.866759 
L 350.044843 287.776613 
L 350.646612 287.900693 
L 350.947497 288.22568 
L 351.248381 287.30751 
L 351.549266 288.383449 
L 351.850151 288.125551 
L 352.45192 287.964467 
L 352.752805 288.195237 
L 353.053689 288.145978 
L 353.354574 288.936438 
L 353.655459 288.560144 
L 354.257228 288.492748 
L 354.558113 288.887387 
L 354.858997 287.945327 
L 355.159882 288.848283 
L 355.761651 287.908628 
L 356.062536 288.054381 
L 356.363421 288.871061 
L 356.664305 289.026244 
L 356.96519 288.905464 
L 357.566959 289.268405 
L 357.867844 288.849957 
L 358.168729 289.695886 
L 358.469613 288.899386 
L 358.770498 289.283643 
L 359.071383 288.946136 
L 359.372267 288.990156 
L 359.673152 288.854256 
L 359.974037 289.06503 
L 360.274921 289.791281 
L 360.575806 289.97534 
L 360.876691 289.38991 
L 361.177575 289.786492 
L 361.47846 289.636382 
L 361.779345 289.829736 
L 362.080229 289.489458 
L 362.381114 290.641243 
L 362.681998 289.786124 
L 362.982883 289.985512 
L 363.283768 289.589198 
L 363.885537 290.428961 
L 364.186422 290.189358 
L 364.487306 290.577872 
L 365.089076 290.160354 
L 365.38996 290.435112 
L 365.690845 289.914031 
L 366.292614 290.768618 
L 366.593499 290.559011 
L 366.894384 290.168586 
L 367.195268 290.088847 
L 367.797038 290.885306 
L 368.398807 291.00504 
L 368.699692 290.647821 
L 369.000576 290.804264 
L 369.301461 290.679699 
L 369.90323 291.509878 
L 370.204115 290.834468 
L 370.505 290.53538 
L 371.407654 291.760192 
L 371.708538 291.446246 
L 372.009423 292.002265 
L 372.310308 291.068461 
L 372.611192 291.91577 
L 372.912077 290.990458 
L 373.212961 291.600966 
L 373.513846 291.208077 
L 374.115615 291.423057 
L 374.4165 291.848218 
L 374.717385 291.812549 
L 375.018269 292.07144 
L 375.920923 292.232797 
L 376.221808 292.525639 
L 376.522693 292.0167 
L 376.823577 292.244734 
L 377.124462 292.281888 
L 377.425347 291.783294 
L 377.726231 291.807898 
L 378.328001 292.887554 
L 378.628885 292.720375 
L 378.92977 292.947069 
L 379.531539 291.962997 
L 379.832424 292.913659 
L 380.133309 292.326984 
L 380.434193 292.79327 
L 380.735078 292.106498 
L 381.035963 292.621557 
L 381.336847 292.137137 
L 381.938617 293.349898 
L 382.239501 293.101028 
L 382.540386 293.519508 
L 382.841271 293.286989 
L 383.142155 292.661162 
L 383.44304 292.958691 
L 383.743925 292.878457 
L 384.044809 293.356154 
L 384.345694 293.159789 
L 384.646578 292.764223 
L 384.947463 292.946348 
L 385.248348 293.272087 
L 385.850117 293.165711 
L 386.151002 294.101693 
L 386.451886 293.629999 
L 386.752771 293.574501 
L 387.053656 294.24189 
L 387.35454 293.329652 
L 387.655425 294.06817 
L 387.95631 293.137875 
L 388.257194 293.29417 
L 388.558079 293.105576 
L 388.858964 294.389101 
L 389.159848 294.396251 
L 389.460733 294.209912 
L 390.062502 294.21867 
L 390.363387 294.487973 
L 390.664272 294.540455 
L 390.965156 293.919933 
L 391.266041 294.610261 
L 391.566926 294.509465 
L 392.168695 293.672449 
L 392.46958 294.558909 
L 392.770464 294.887641 
L 393.071349 294.615008 
L 393.372234 295.267871 
L 393.974003 294.517841 
L 394.274888 294.886464 
L 394.575772 294.332281 
L 394.876657 294.876374 
L 395.177541 294.669584 
L 395.779311 294.054605 
L 396.080195 294.961001 
L 396.38108 295.488 
L 397.283734 295.283556 
L 397.584619 294.887224 
L 397.885503 295.158172 
L 398.186388 294.829475 
L 398.487273 295.041891 
L 398.487273 295.041891 
" clip-path="url(#p67b288842d)" style="fill: none; stroke: #dc143c; stroke-width: 2; stroke-linecap: square"/>
   </g>
   <g id="line2d_33">
    <path d="M 73.832727 192.63138 
L 77.142459 192.63138 
L 77.443343 193.027599 
L 80.753074 193.027599 
L 81.053959 193.230361 
L 91.584922 193.210117 
L 91.885807 193.087285 
L 95.195538 193.087285 
L 95.496423 192.939431 
L 98.806154 192.939431 
L 99.107039 192.812285 
L 113.248617 192.872603 
L 113.549502 193.074748 
L 116.859233 193.074748 
L 117.160118 193.351555 
L 120.469849 193.351555 
L 120.770734 193.690825 
L 124.080465 193.690825 
L 124.38135 194.062512 
L 127.691081 194.062512 
L 127.991966 194.460513 
L 131.301697 194.460513 
L 131.602582 194.88178 
L 134.912313 194.88178 
L 135.213197 195.351412 
L 138.522929 195.351412 
L 138.823813 195.91085 
L 142.133545 195.91085 
L 142.434429 196.696764 
L 145.74416 196.696764 
L 146.045045 198.038486 
L 149.354776 198.038486 
L 149.655661 199.601162 
L 152.965392 199.601162 
L 153.266277 200.211354 
L 156.576008 200.211354 
L 156.876893 200.560366 
L 160.186624 200.560366 
L 160.487509 200.947029 
L 163.79724 200.947029 
L 164.098125 201.308788 
L 167.407856 201.308788 
L 167.70874 201.622706 
L 171.018472 201.622706 
L 171.319356 201.81982 
L 174.629088 201.81982 
L 174.929972 201.978716 
L 178.239703 201.978716 
L 178.540588 202.115376 
L 185.460935 202.101422 
L 185.76182 201.970671 
L 192.682167 201.861811 
L 193.283936 201.784549 
L 203.514015 201.825434 
L 204.115784 201.937519 
L 207.124631 201.937519 
L 207.425515 202.120737 
L 210.735246 202.120737 
L 211.036131 202.375493 
L 214.345862 202.375493 
L 214.646747 202.645732 
L 217.956478 202.645732 
L 218.257363 203.008074 
L 221.567094 203.008074 
L 221.867979 203.383129 
L 225.17771 203.383129 
L 225.478595 203.779231 
L 228.788326 203.779231 
L 229.089211 204.213532 
L 232.398942 204.213532 
L 232.699826 204.721668 
L 236.009558 204.721668 
L 236.310442 205.213478 
L 239.620174 205.213478 
L 239.921058 205.730427 
L 243.230789 205.730427 
L 243.531674 206.329763 
L 246.841405 206.329763 
L 247.14229 206.882237 
L 250.452021 206.882237 
L 250.752906 207.46397 
L 254.062637 207.46397 
L 254.363522 208.076788 
L 257.673253 208.076788 
L 257.974138 208.63534 
L 261.283869 208.63534 
L 261.584754 209.263142 
L 264.894485 209.263142 
L 265.195369 209.866007 
L 268.505101 209.866007 
L 268.805985 210.422719 
L 272.115717 210.422719 
L 272.416601 210.997353 
L 275.726332 210.997353 
L 276.027217 211.584692 
L 279.336948 211.584692 
L 279.637833 212.140906 
L 282.947564 212.140906 
L 283.248449 212.863985 
L 286.55818 212.863985 
L 286.859065 213.359222 
L 290.168796 213.359222 
L 290.469681 213.868498 
L 293.779412 213.868498 
L 294.080297 214.508997 
L 297.390028 214.508997 
L 297.690912 214.995082 
L 301.000644 214.995082 
L 301.301528 215.563055 
L 304.61126 215.563055 
L 304.912144 216.103314 
L 308.221875 216.103314 
L 308.52276 216.576972 
L 311.832491 216.576972 
L 312.133376 217.187451 
L 315.443107 217.187451 
L 315.743992 217.559248 
L 319.053723 217.559248 
L 319.354608 218.132363 
L 322.664339 218.132363 
L 322.965224 218.664069 
L 326.274955 218.664069 
L 326.57584 219.156647 
L 329.885571 219.156647 
L 330.186455 219.582397 
L 333.496187 219.582397 
L 333.797071 220.016884 
L 337.106803 220.016884 
L 337.407687 220.422306 
L 340.717418 220.422306 
L 341.018303 220.915862 
L 344.328034 220.915862 
L 344.628919 221.323141 
L 347.93865 221.323141 
L 348.239535 221.764171 
L 351.549266 221.764171 
L 351.850151 222.219485 
L 355.159882 222.219485 
L 355.460767 222.653525 
L 358.770498 222.653525 
L 359.071383 222.934511 
L 362.381114 222.934511 
L 362.681998 223.509508 
L 365.99173 223.509508 
L 366.292614 223.858478 
L 369.602346 223.858478 
L 369.90323 224.231237 
L 373.212961 224.231237 
L 373.513846 224.516823 
L 376.823577 224.516823 
L 377.124462 224.941847 
L 380.434193 224.941847 
L 380.735078 225.318962 
L 384.044809 225.318962 
L 384.345694 225.59517 
L 387.655425 225.59517 
L 387.95631 225.920552 
L 391.266041 225.920552 
L 391.566926 226.307156 
L 394.876657 226.307156 
L 395.177541 226.703958 
L 398.487273 226.703958 
L 398.487273 226.703958 
" clip-path="url(#p67b288842d)" style="fill: none; stroke: #ffff00; stroke-width: 3; stroke-linecap: square"/>
   </g>
   <g id="patch_3">
    <path d="M 57.6 307.584 
L 57.6 41.472 
" style="fill: none; stroke: #ffffff; stroke-linejoin: miter; stroke-linecap: square"/>
   </g>
   <g id="patch_4">
    <path d="M 414.72 307.584 
L 414.72 41.472 
" style="fill: none; stroke: #ffffff; stroke-linejoin: miter; stroke-linecap: square"/>
   </g>
   <g id="patch_5">
    <path d="M 57.6 307.584 
L 414.72 307.584 
" style="fill: none; stroke: #ffffff; stroke-linejoin: miter; stroke-linecap: square"/>
   </g>
   <g id="patch_6">
    <path d="M 57.6 41.472 
L 414.72 41.472 
" style="fill: none; stroke: #ffffff; stroke-linejoin: miter; stroke-linecap: square"/>
   </g>
   <g id="legend_1">
    <g id="patch_7">
     <path d="M 243.124687 302.584 
L 407.72 302.584 
Q 409.72 302.584 409.72 300.584 
L 409.72 257.549625 
Q 409.72 255.549625 407.72 255.549625 
L 243.124687 255.549625 
Q 241.124687 255.549625 241.124687 257.549625 
L 241.124687 300.584 
Q 241.124687 302.584 243.124687 302.584 
z
" style="fill: #e5e5e5; opacity: 0.8; stroke: #cccccc; stroke-width: 0.5; stroke-linejoin: miter"/>
    </g>
    <g id="line2d_34">
     <path d="M 245.124687 263.648062 
L 255.124687 263.648062 
L 265.124687 263.648062 
" style="fill: none; stroke: #6495ed; stroke-width: 2; stroke-linecap: square"/>
    </g>
    <g id="text_18">
     <!-- Generator loss -->
     <g transform="translate(273.124687 267.148062) scale(0.1 -0.1)">
      <defs>
       <path id="DejaVuSans-47" d="M 3809 666 
L 3809 1919 
L 2778 1919 
L 2778 2438 
L 4434 2438 
L 4434 434 
Q 4069 175 3628 42 
Q 3188 -91 2688 -91 
Q 1594 -91 976 548 
Q 359 1188 359 2328 
Q 359 3472 976 4111 
Q 1594 4750 2688 4750 
Q 3144 4750 3555 4637 
Q 3966 4525 4313 4306 
L 4313 3634 
Q 3963 3931 3569 4081 
Q 3175 4231 2741 4231 
Q 1884 4231 1454 3753 
Q 1025 3275 1025 2328 
Q 1025 1384 1454 906 
Q 1884 428 2741 428 
Q 3075 428 3337 486 
Q 3600 544 3809 666 
z
" transform="scale(0.015625)"/>
       <path id="DejaVuSans-65" d="M 3597 1894 
L 3597 1613 
L 953 1613 
Q 991 1019 1311 708 
Q 1631 397 2203 397 
Q 2534 397 2845 478 
Q 3156 559 3463 722 
L 3463 178 
Q 3153 47 2828 -22 
Q 2503 -91 2169 -91 
Q 1331 -91 842 396 
Q 353 884 353 1716 
Q 353 2575 817 3079 
Q 1281 3584 2069 3584 
Q 2775 3584 3186 3129 
Q 3597 2675 3597 1894 
z
M 3022 2063 
Q 3016 2534 2758 2815 
Q 2500 3097 2075 3097 
Q 1594 3097 1305 2825 
Q 1016 2553 972 2059 
L 3022 2063 
z
" transform="scale(0.015625)"/>
       <path id="DejaVuSans-6e" d="M 3513 2113 
L 3513 0 
L 2938 0 
L 2938 2094 
Q 2938 2591 2744 2837 
Q 2550 3084 2163 3084 
Q 1697 3084 1428 2787 
Q 1159 2491 1159 1978 
L 1159 0 
L 581 0 
L 581 3500 
L 1159 3500 
L 1159 2956 
Q 1366 3272 1645 3428 
Q 1925 3584 2291 3584 
Q 2894 3584 3203 3211 
Q 3513 2838 3513 2113 
z
" transform="scale(0.015625)"/>
       <path id="DejaVuSans-72" d="M 2631 2963 
Q 2534 3019 2420 3045 
Q 2306 3072 2169 3072 
Q 1681 3072 1420 2755 
Q 1159 2438 1159 1844 
L 1159 0 
L 581 0 
L 581 3500 
L 1159 3500 
L 1159 2956 
Q 1341 3275 1631 3429 
Q 1922 3584 2338 3584 
Q 2397 3584 2469 3576 
Q 2541 3569 2628 3553 
L 2631 2963 
z
" transform="scale(0.015625)"/>
       <path id="DejaVuSans-61" d="M 2194 1759 
Q 1497 1759 1228 1600 
Q 959 1441 959 1056 
Q 959 750 1161 570 
Q 1363 391 1709 391 
Q 2188 391 2477 730 
Q 2766 1069 2766 1631 
L 2766 1759 
L 2194 1759 
z
M 3341 1997 
L 3341 0 
L 2766 0 
L 2766 531 
Q 2569 213 2275 61 
Q 1981 -91 1556 -91 
Q 1019 -91 701 211 
Q 384 513 384 1019 
Q 384 1609 779 1909 
Q 1175 2209 1959 2209 
L 2766 2209 
L 2766 2266 
Q 2766 2663 2505 2880 
Q 2244 3097 1772 3097 
Q 1472 3097 1187 3025 
Q 903 2953 641 2809 
L 641 3341 
Q 956 3463 1253 3523 
Q 1550 3584 1831 3584 
Q 2591 3584 2966 3190 
Q 3341 2797 3341 1997 
z
" transform="scale(0.015625)"/>
       <path id="DejaVuSans-74" d="M 1172 4494 
L 1172 3500 
L 2356 3500 
L 2356 3053 
L 1172 3053 
L 1172 1153 
Q 1172 725 1289 603 
Q 1406 481 1766 481 
L 2356 481 
L 2356 0 
L 1766 0 
Q 1100 0 847 248 
Q 594 497 594 1153 
L 594 3053 
L 172 3053 
L 172 3500 
L 594 3500 
L 594 4494 
L 1172 4494 
z
" transform="scale(0.015625)"/>
       <path id="DejaVuSans-20" transform="scale(0.015625)"/>
       <path id="DejaVuSans-6c" d="M 603 4863 
L 1178 4863 
L 1178 0 
L 603 0 
L 603 4863 
z
" transform="scale(0.015625)"/>
      </defs>
      <use xlink:href="#DejaVuSans-47"/>
      <use xlink:href="#DejaVuSans-65" x="77.490234"/>
      <use xlink:href="#DejaVuSans-6e" x="139.013672"/>
      <use xlink:href="#DejaVuSans-65" x="202.392578"/>
      <use xlink:href="#DejaVuSans-72" x="263.916016"/>
      <use xlink:href="#DejaVuSans-61" x="305.029297"/>
      <use xlink:href="#DejaVuSans-74" x="366.308594"/>
      <use xlink:href="#DejaVuSans-6f" x="405.517578"/>
      <use xlink:href="#DejaVuSans-72" x="466.699219"/>
      <use xlink:href="#DejaVuSans-20" x="507.8125"/>
      <use xlink:href="#DejaVuSans-6c" x="539.599609"/>
      <use xlink:href="#DejaVuSans-6f" x="567.382812"/>
      <use xlink:href="#DejaVuSans-73" x="628.564453"/>
      <use xlink:href="#DejaVuSans-73" x="680.664062"/>
     </g>
    </g>
    <g id="line2d_35">
     <path d="M 245.124687 278.326188 
L 255.124687 278.326188 
L 265.124687 278.326188 
" style="fill: none; stroke: #dc143c; stroke-width: 2; stroke-linecap: square"/>
    </g>
    <g id="text_19">
     <!-- Average discriminator loss -->
     <g transform="translate(273.124687 281.826188) scale(0.1 -0.1)">
      <defs>
       <path id="DejaVuSans-41" d="M 2188 4044 
L 1331 1722 
L 3047 1722 
L 2188 4044 
z
M 1831 4666 
L 2547 4666 
L 4325 0 
L 3669 0 
L 3244 1197 
L 1141 1197 
L 716 0 
L 50 0 
L 1831 4666 
z
" transform="scale(0.015625)"/>
       <path id="DejaVuSans-76" d="M 191 3500 
L 800 3500 
L 1894 563 
L 2988 3500 
L 3597 3500 
L 2284 0 
L 1503 0 
L 191 3500 
z
" transform="scale(0.015625)"/>
       <path id="DejaVuSans-67" d="M 2906 1791 
Q 2906 2416 2648 2759 
Q 2391 3103 1925 3103 
Q 1463 3103 1205 2759 
Q 947 2416 947 1791 
Q 947 1169 1205 825 
Q 1463 481 1925 481 
Q 2391 481 2648 825 
Q 2906 1169 2906 1791 
z
M 3481 434 
Q 3481 -459 3084 -895 
Q 2688 -1331 1869 -1331 
Q 1566 -1331 1297 -1286 
Q 1028 -1241 775 -1147 
L 775 -588 
Q 1028 -725 1275 -790 
Q 1522 -856 1778 -856 
Q 2344 -856 2625 -561 
Q 2906 -266 2906 331 
L 2906 616 
Q 2728 306 2450 153 
Q 2172 0 1784 0 
Q 1141 0 747 490 
Q 353 981 353 1791 
Q 353 2603 747 3093 
Q 1141 3584 1784 3584 
Q 2172 3584 2450 3431 
Q 2728 3278 2906 2969 
L 2906 3500 
L 3481 3500 
L 3481 434 
z
" transform="scale(0.015625)"/>
       <path id="DejaVuSans-64" d="M 2906 2969 
L 2906 4863 
L 3481 4863 
L 3481 0 
L 2906 0 
L 2906 525 
Q 2725 213 2448 61 
Q 2172 -91 1784 -91 
Q 1150 -91 751 415 
Q 353 922 353 1747 
Q 353 2572 751 3078 
Q 1150 3584 1784 3584 
Q 2172 3584 2448 3432 
Q 2725 3281 2906 2969 
z
M 947 1747 
Q 947 1113 1208 752 
Q 1469 391 1925 391 
Q 2381 391 2643 752 
Q 2906 1113 2906 1747 
Q 2906 2381 2643 2742 
Q 2381 3103 1925 3103 
Q 1469 3103 1208 2742 
Q 947 2381 947 1747 
z
" transform="scale(0.015625)"/>
       <path id="DejaVuSans-69" d="M 603 3500 
L 1178 3500 
L 1178 0 
L 603 0 
L 603 3500 
z
M 603 4863 
L 1178 4863 
L 1178 4134 
L 603 4134 
L 603 4863 
z
" transform="scale(0.015625)"/>
       <path id="DejaVuSans-6d" d="M 3328 2828 
Q 3544 3216 3844 3400 
Q 4144 3584 4550 3584 
Q 5097 3584 5394 3201 
Q 5691 2819 5691 2113 
L 5691 0 
L 5113 0 
L 5113 2094 
Q 5113 2597 4934 2840 
Q 4756 3084 4391 3084 
Q 3944 3084 3684 2787 
Q 3425 2491 3425 1978 
L 3425 0 
L 2847 0 
L 2847 2094 
Q 2847 2600 2669 2842 
Q 2491 3084 2119 3084 
Q 1678 3084 1418 2786 
Q 1159 2488 1159 1978 
L 1159 0 
L 581 0 
L 581 3500 
L 1159 3500 
L 1159 2956 
Q 1356 3278 1631 3431 
Q 1906 3584 2284 3584 
Q 2666 3584 2933 3390 
Q 3200 3197 3328 2828 
z
" transform="scale(0.015625)"/>
      </defs>
      <use xlink:href="#DejaVuSans-41"/>
      <use xlink:href="#DejaVuSans-76" x="62.533203"/>
      <use xlink:href="#DejaVuSans-65" x="121.712891"/>
      <use xlink:href="#DejaVuSans-72" x="183.236328"/>
      <use xlink:href="#DejaVuSans-61" x="224.349609"/>
      <use xlink:href="#DejaVuSans-67" x="285.628906"/>
      <use xlink:href="#DejaVuSans-65" x="349.105469"/>
      <use xlink:href="#DejaVuSans-20" x="410.628906"/>
      <use xlink:href="#DejaVuSans-64" x="442.416016"/>
      <use xlink:href="#DejaVuSans-69" x="505.892578"/>
      <use xlink:href="#DejaVuSans-73" x="533.675781"/>
      <use xlink:href="#DejaVuSans-63" x="585.775391"/>
      <use xlink:href="#DejaVuSans-72" x="640.755859"/>
      <use xlink:href="#DejaVuSans-69" x="681.869141"/>
      <use xlink:href="#DejaVuSans-6d" x="709.652344"/>
      <use xlink:href="#DejaVuSans-69" x="807.064453"/>
      <use xlink:href="#DejaVuSans-6e" x="834.847656"/>
      <use xlink:href="#DejaVuSans-61" x="898.226562"/>
      <use xlink:href="#DejaVuSans-74" x="959.505859"/>
      <use xlink:href="#DejaVuSans-6f" x="998.714844"/>
      <use xlink:href="#DejaVuSans-72" x="1059.896484"/>
      <use xlink:href="#DejaVuSans-20" x="1101.009766"/>
      <use xlink:href="#DejaVuSans-6c" x="1132.796875"/>
      <use xlink:href="#DejaVuSans-6f" x="1160.580078"/>
      <use xlink:href="#DejaVuSans-73" x="1221.761719"/>
      <use xlink:href="#DejaVuSans-73" x="1273.861328"/>
     </g>
    </g>
    <g id="line2d_36">
     <path d="M 245.124687 293.004312 
L 255.124687 293.004312 
L 265.124687 293.004312 
" style="fill: none; stroke: #ffff00; stroke-width: 3; stroke-linecap: square"/>
    </g>
    <g id="text_20">
     <!-- ROC AUC -->
     <g transform="translate(273.124687 296.504312) scale(0.1 -0.1)">
      <defs>
       <path id="DejaVuSans-52" d="M 2841 2188 
Q 3044 2119 3236 1894 
Q 3428 1669 3622 1275 
L 4263 0 
L 3584 0 
L 2988 1197 
Q 2756 1666 2539 1819 
Q 2322 1972 1947 1972 
L 1259 1972 
L 1259 0 
L 628 0 
L 628 4666 
L 2053 4666 
Q 2853 4666 3247 4331 
Q 3641 3997 3641 3322 
Q 3641 2881 3436 2590 
Q 3231 2300 2841 2188 
z
M 1259 4147 
L 1259 2491 
L 2053 2491 
Q 2509 2491 2742 2702 
Q 2975 2913 2975 3322 
Q 2975 3731 2742 3939 
Q 2509 4147 2053 4147 
L 1259 4147 
z
" transform="scale(0.015625)"/>
       <path id="DejaVuSans-4f" d="M 2522 4238 
Q 1834 4238 1429 3725 
Q 1025 3213 1025 2328 
Q 1025 1447 1429 934 
Q 1834 422 2522 422 
Q 3209 422 3611 934 
Q 4013 1447 4013 2328 
Q 4013 3213 3611 3725 
Q 3209 4238 2522 4238 
z
M 2522 4750 
Q 3503 4750 4090 4092 
Q 4678 3434 4678 2328 
Q 4678 1225 4090 567 
Q 3503 -91 2522 -91 
Q 1538 -91 948 565 
Q 359 1222 359 2328 
Q 359 3434 948 4092 
Q 1538 4750 2522 4750 
z
" transform="scale(0.015625)"/>
       <path id="DejaVuSans-43" d="M 4122 4306 
L 4122 3641 
Q 3803 3938 3442 4084 
Q 3081 4231 2675 4231 
Q 1875 4231 1450 3742 
Q 1025 3253 1025 2328 
Q 1025 1406 1450 917 
Q 1875 428 2675 428 
Q 3081 428 3442 575 
Q 3803 722 4122 1019 
L 4122 359 
Q 3791 134 3420 21 
Q 3050 -91 2638 -91 
Q 1578 -91 968 557 
Q 359 1206 359 2328 
Q 359 3453 968 4101 
Q 1578 4750 2638 4750 
Q 3056 4750 3426 4639 
Q 3797 4528 4122 4306 
z
" transform="scale(0.015625)"/>
       <path id="DejaVuSans-55" d="M 556 4666 
L 1191 4666 
L 1191 1831 
Q 1191 1081 1462 751 
Q 1734 422 2344 422 
Q 2950 422 3222 751 
Q 3494 1081 3494 1831 
L 3494 4666 
L 4128 4666 
L 4128 1753 
Q 4128 841 3676 375 
Q 3225 -91 2344 -91 
Q 1459 -91 1007 375 
Q 556 841 556 1753 
L 556 4666 
z
" transform="scale(0.015625)"/>
      </defs>
      <use xlink:href="#DejaVuSans-52"/>
      <use xlink:href="#DejaVuSans-4f" x="69.482422"/>
      <use xlink:href="#DejaVuSans-43" x="148.193359"/>
      <use xlink:href="#DejaVuSans-20" x="218.017578"/>
      <use xlink:href="#DejaVuSans-41" x="249.804688"/>
      <use xlink:href="#DejaVuSans-55" x="318.212891"/>
      <use xlink:href="#DejaVuSans-43" x="391.40625"/>
     </g>
    </g>
   </g>
  </g>
 </g>
 <defs>
  <clipPath id="p67b288842d">
   <rect x="57.6" y="41.472" width="357.12" height="266.112"/>
  </clipPath>
 </defs>
</svg>
