<?xml version="1.0" encoding="utf-8" standalone="no"?>
<!DOCTYPE svg PUBLIC "-//W3C//DTD SVG 1.1//EN"
  "http://www.w3.org/Graphics/SVG/1.1/DTD/svg11.dtd">
<svg xmlns:xlink="http://www.w3.org/1999/xlink" width="460.8pt" height="345.6pt" viewBox="0 0 460.8 345.6" xmlns="http://www.w3.org/2000/svg" version="1.1">
 <metadata>
  <rdf:RDF xmlns:dc="http://purl.org/dc/elements/1.1/" xmlns:cc="http://creativecommons.org/ns#" xmlns:rdf="http://www.w3.org/1999/02/22-rdf-syntax-ns#">
   <cc:Work>
    <dc:type rdf:resource="http://purl.org/dc/dcmitype/StillImage"/>
    <dc:date>2023-07-11T15:20:29.276720</dc:date>
    <dc:format>image/svg+xml</dc:format>
    <dc:creator>
     <cc:Agent>
      <dc:title>Matplotlib v3.7.1, https://matplotlib.org/</dc:title>
     </cc:Agent>
    </dc:creator>
   </cc:Work>
  </rdf:RDF>
 </metadata>
 <defs>
  <style type="text/css">*{stroke-linejoin: round; stroke-linecap: butt}</style>
 </defs>
 <g id="figure_1">
  <g id="patch_1">
   <path d="M 0 345.6 
L 460.8 345.6 
L 460.8 0 
L 0 0 
z
" style="fill: #ffffff"/>
  </g>
  <g id="axes_1">
   <g id="patch_2">
    <path d="M 57.6 307.584 
L 414.72 307.584 
L 414.72 41.472 
L 57.6 41.472 
z
" style="fill: #e5e5e5"/>
   </g>
   <g id="matplotlib.axis_1">
    <g id="xtick_1">
     <g id="line2d_1">
      <path d="M 73.531843 307.584 
L 73.531843 41.472 
" clip-path="url(#p0392db3e7b)" style="fill: none; stroke: #ffffff; stroke-width: 0.8; stroke-linecap: square"/>
     </g>
     <g id="line2d_2">
      <defs>
       <path id="m8cab39789a" d="M 0 0 
L 0 3.5 
" style="stroke: #555555; stroke-width: 0.8"/>
      </defs>
      <g>
       <use xlink:href="#m8cab39789a" x="73.531843" y="307.584" style="fill: #555555; stroke: #555555; stroke-width: 0.8"/>
      </g>
     </g>
     <g id="text_1">
      <!-- 0 -->
      <g style="fill: #555555" transform="translate(70.350593 322.182437) scale(0.1 -0.1)">
       <defs>
        <path id="DejaVuSans-30" d="M 2034 4250 
Q 1547 4250 1301 3770 
Q 1056 3291 1056 2328 
Q 1056 1369 1301 889 
Q 1547 409 2034 409 
Q 2525 409 2770 889 
Q 3016 1369 3016 2328 
Q 3016 3291 2770 3770 
Q 2525 4250 2034 4250 
z
M 2034 4750 
Q 2819 4750 3233 4129 
Q 3647 3509 3647 2328 
Q 3647 1150 3233 529 
Q 2819 -91 2034 -91 
Q 1250 -91 836 529 
Q 422 1150 422 2328 
Q 422 3509 836 4129 
Q 1250 4750 2034 4750 
z
" transform="scale(0.015625)"/>
       </defs>
       <use xlink:href="#DejaVuSans-30"/>
      </g>
     </g>
    </g>
    <g id="xtick_2">
     <g id="line2d_3">
      <path d="M 133.708774 307.584 
L 133.708774 41.472 
" clip-path="url(#p0392db3e7b)" style="fill: none; stroke: #ffffff; stroke-width: 0.8; stroke-linecap: square"/>
     </g>
     <g id="line2d_4">
      <g>
       <use xlink:href="#m8cab39789a" x="133.708774" y="307.584" style="fill: #555555; stroke: #555555; stroke-width: 0.8"/>
      </g>
     </g>
     <g id="text_2">
      <!-- 200 -->
      <g style="fill: #555555" transform="translate(124.165024 322.182437) scale(0.1 -0.1)">
       <defs>
        <path id="DejaVuSans-32" d="M 1228 531 
L 3431 531 
L 3431 0 
L 469 0 
L 469 531 
Q 828 903 1448 1529 
Q 2069 2156 2228 2338 
Q 2531 2678 2651 2914 
Q 2772 3150 2772 3378 
Q 2772 3750 2511 3984 
Q 2250 4219 1831 4219 
Q 1534 4219 1204 4116 
Q 875 4013 500 3803 
L 500 4441 
Q 881 4594 1212 4672 
Q 1544 4750 1819 4750 
Q 2544 4750 2975 4387 
Q 3406 4025 3406 3419 
Q 3406 3131 3298 2873 
Q 3191 2616 2906 2266 
Q 2828 2175 2409 1742 
Q 1991 1309 1228 531 
z
" transform="scale(0.015625)"/>
       </defs>
       <use xlink:href="#DejaVuSans-32"/>
       <use xlink:href="#DejaVuSans-30" x="63.623047"/>
       <use xlink:href="#DejaVuSans-30" x="127.246094"/>
      </g>
     </g>
    </g>
    <g id="xtick_3">
     <g id="line2d_5">
      <path d="M 193.885706 307.584 
L 193.885706 41.472 
" clip-path="url(#p0392db3e7b)" style="fill: none; stroke: #ffffff; stroke-width: 0.8; stroke-linecap: square"/>
     </g>
     <g id="line2d_6">
      <g>
       <use xlink:href="#m8cab39789a" x="193.885706" y="307.584" style="fill: #555555; stroke: #555555; stroke-width: 0.8"/>
      </g>
     </g>
     <g id="text_3">
      <!-- 400 -->
      <g style="fill: #555555" transform="translate(184.341956 322.182437) scale(0.1 -0.1)">
       <defs>
        <path id="DejaVuSans-34" d="M 2419 4116 
L 825 1625 
L 2419 1625 
L 2419 4116 
z
M 2253 4666 
L 3047 4666 
L 3047 1625 
L 3713 1625 
L 3713 1100 
L 3047 1100 
L 3047 0 
L 2419 0 
L 2419 1100 
L 313 1100 
L 313 1709 
L 2253 4666 
z
" transform="scale(0.015625)"/>
       </defs>
       <use xlink:href="#DejaVuSans-34"/>
       <use xlink:href="#DejaVuSans-30" x="63.623047"/>
       <use xlink:href="#DejaVuSans-30" x="127.246094"/>
      </g>
     </g>
    </g>
    <g id="xtick_4">
     <g id="line2d_7">
      <path d="M 254.062637 307.584 
L 254.062637 41.472 
" clip-path="url(#p0392db3e7b)" style="fill: none; stroke: #ffffff; stroke-width: 0.8; stroke-linecap: square"/>
     </g>
     <g id="line2d_8">
      <g>
       <use xlink:href="#m8cab39789a" x="254.062637" y="307.584" style="fill: #555555; stroke: #555555; stroke-width: 0.8"/>
      </g>
     </g>
     <g id="text_4">
      <!-- 600 -->
      <g style="fill: #555555" transform="translate(244.518887 322.182437) scale(0.1 -0.1)">
       <defs>
        <path id="DejaVuSans-36" d="M 2113 2584 
Q 1688 2584 1439 2293 
Q 1191 2003 1191 1497 
Q 1191 994 1439 701 
Q 1688 409 2113 409 
Q 2538 409 2786 701 
Q 3034 994 3034 1497 
Q 3034 2003 2786 2293 
Q 2538 2584 2113 2584 
z
M 3366 4563 
L 3366 3988 
Q 3128 4100 2886 4159 
Q 2644 4219 2406 4219 
Q 1781 4219 1451 3797 
Q 1122 3375 1075 2522 
Q 1259 2794 1537 2939 
Q 1816 3084 2150 3084 
Q 2853 3084 3261 2657 
Q 3669 2231 3669 1497 
Q 3669 778 3244 343 
Q 2819 -91 2113 -91 
Q 1303 -91 875 529 
Q 447 1150 447 2328 
Q 447 3434 972 4092 
Q 1497 4750 2381 4750 
Q 2619 4750 2861 4703 
Q 3103 4656 3366 4563 
z
" transform="scale(0.015625)"/>
       </defs>
       <use xlink:href="#DejaVuSans-36"/>
       <use xlink:href="#DejaVuSans-30" x="63.623047"/>
       <use xlink:href="#DejaVuSans-30" x="127.246094"/>
      </g>
     </g>
    </g>
    <g id="xtick_5">
     <g id="line2d_9">
      <path d="M 314.239569 307.584 
L 314.239569 41.472 
" clip-path="url(#p0392db3e7b)" style="fill: none; stroke: #ffffff; stroke-width: 0.8; stroke-linecap: square"/>
     </g>
     <g id="line2d_10">
      <g>
       <use xlink:href="#m8cab39789a" x="314.239569" y="307.584" style="fill: #555555; stroke: #555555; stroke-width: 0.8"/>
      </g>
     </g>
     <g id="text_5">
      <!-- 800 -->
      <g style="fill: #555555" transform="translate(304.695819 322.182437) scale(0.1 -0.1)">
       <defs>
        <path id="DejaVuSans-38" d="M 2034 2216 
Q 1584 2216 1326 1975 
Q 1069 1734 1069 1313 
Q 1069 891 1326 650 
Q 1584 409 2034 409 
Q 2484 409 2743 651 
Q 3003 894 3003 1313 
Q 3003 1734 2745 1975 
Q 2488 2216 2034 2216 
z
M 1403 2484 
Q 997 2584 770 2862 
Q 544 3141 544 3541 
Q 544 4100 942 4425 
Q 1341 4750 2034 4750 
Q 2731 4750 3128 4425 
Q 3525 4100 3525 3541 
Q 3525 3141 3298 2862 
Q 3072 2584 2669 2484 
Q 3125 2378 3379 2068 
Q 3634 1759 3634 1313 
Q 3634 634 3220 271 
Q 2806 -91 2034 -91 
Q 1263 -91 848 271 
Q 434 634 434 1313 
Q 434 1759 690 2068 
Q 947 2378 1403 2484 
z
M 1172 3481 
Q 1172 3119 1398 2916 
Q 1625 2713 2034 2713 
Q 2441 2713 2670 2916 
Q 2900 3119 2900 3481 
Q 2900 3844 2670 4047 
Q 2441 4250 2034 4250 
Q 1625 4250 1398 4047 
Q 1172 3844 1172 3481 
z
" transform="scale(0.015625)"/>
       </defs>
       <use xlink:href="#DejaVuSans-38"/>
       <use xlink:href="#DejaVuSans-30" x="63.623047"/>
       <use xlink:href="#DejaVuSans-30" x="127.246094"/>
      </g>
     </g>
    </g>
    <g id="xtick_6">
     <g id="line2d_11">
      <path d="M 374.4165 307.584 
L 374.4165 41.472 
" clip-path="url(#p0392db3e7b)" style="fill: none; stroke: #ffffff; stroke-width: 0.8; stroke-linecap: square"/>
     </g>
     <g id="line2d_12">
      <g>
       <use xlink:href="#m8cab39789a" x="374.4165" y="307.584" style="fill: #555555; stroke: #555555; stroke-width: 0.8"/>
      </g>
     </g>
     <g id="text_6">
      <!-- 1000 -->
      <g style="fill: #555555" transform="translate(361.6915 322.182437) scale(0.1 -0.1)">
       <defs>
        <path id="DejaVuSans-31" d="M 794 531 
L 1825 531 
L 1825 4091 
L 703 3866 
L 703 4441 
L 1819 4666 
L 2450 4666 
L 2450 531 
L 3481 531 
L 3481 0 
L 794 0 
L 794 531 
z
" transform="scale(0.015625)"/>
       </defs>
       <use xlink:href="#DejaVuSans-31"/>
       <use xlink:href="#DejaVuSans-30" x="63.623047"/>
       <use xlink:href="#DejaVuSans-30" x="127.246094"/>
       <use xlink:href="#DejaVuSans-30" x="190.869141"/>
      </g>
     </g>
    </g>
    <g id="text_7">
     <!-- Epoch -->
     <g style="fill: #555555" transform="translate(217.786875 337.38025) scale(0.12 -0.12)">
      <defs>
       <path id="DejaVuSans-45" d="M 628 4666 
L 3578 4666 
L 3578 4134 
L 1259 4134 
L 1259 2753 
L 3481 2753 
L 3481 2222 
L 1259 2222 
L 1259 531 
L 3634 531 
L 3634 0 
L 628 0 
L 628 4666 
z
" transform="scale(0.015625)"/>
       <path id="DejaVuSans-70" d="M 1159 525 
L 1159 -1331 
L 581 -1331 
L 581 3500 
L 1159 3500 
L 1159 2969 
Q 1341 3281 1617 3432 
Q 1894 3584 2278 3584 
Q 2916 3584 3314 3078 
Q 3713 2572 3713 1747 
Q 3713 922 3314 415 
Q 2916 -91 2278 -91 
Q 1894 -91 1617 61 
Q 1341 213 1159 525 
z
M 3116 1747 
Q 3116 2381 2855 2742 
Q 2594 3103 2138 3103 
Q 1681 3103 1420 2742 
Q 1159 2381 1159 1747 
Q 1159 1113 1420 752 
Q 1681 391 2138 391 
Q 2594 391 2855 752 
Q 3116 1113 3116 1747 
z
" transform="scale(0.015625)"/>
       <path id="DejaVuSans-6f" d="M 1959 3097 
Q 1497 3097 1228 2736 
Q 959 2375 959 1747 
Q 959 1119 1226 758 
Q 1494 397 1959 397 
Q 2419 397 2687 759 
Q 2956 1122 2956 1747 
Q 2956 2369 2687 2733 
Q 2419 3097 1959 3097 
z
M 1959 3584 
Q 2709 3584 3137 3096 
Q 3566 2609 3566 1747 
Q 3566 888 3137 398 
Q 2709 -91 1959 -91 
Q 1206 -91 779 398 
Q 353 888 353 1747 
Q 353 2609 779 3096 
Q 1206 3584 1959 3584 
z
" transform="scale(0.015625)"/>
       <path id="DejaVuSans-63" d="M 3122 3366 
L 3122 2828 
Q 2878 2963 2633 3030 
Q 2388 3097 2138 3097 
Q 1578 3097 1268 2742 
Q 959 2388 959 1747 
Q 959 1106 1268 751 
Q 1578 397 2138 397 
Q 2388 397 2633 464 
Q 2878 531 3122 666 
L 3122 134 
Q 2881 22 2623 -34 
Q 2366 -91 2075 -91 
Q 1284 -91 818 406 
Q 353 903 353 1747 
Q 353 2603 823 3093 
Q 1294 3584 2113 3584 
Q 2378 3584 2631 3529 
Q 2884 3475 3122 3366 
z
" transform="scale(0.015625)"/>
       <path id="DejaVuSans-68" d="M 3513 2113 
L 3513 0 
L 2938 0 
L 2938 2094 
Q 2938 2591 2744 2837 
Q 2550 3084 2163 3084 
Q 1697 3084 1428 2787 
Q 1159 2491 1159 1978 
L 1159 0 
L 581 0 
L 581 4863 
L 1159 4863 
L 1159 2956 
Q 1366 3272 1645 3428 
Q 1925 3584 2291 3584 
Q 2894 3584 3203 3211 
Q 3513 2838 3513 2113 
z
" transform="scale(0.015625)"/>
      </defs>
      <use xlink:href="#DejaVuSans-45"/>
      <use xlink:href="#DejaVuSans-70" x="63.183594"/>
      <use xlink:href="#DejaVuSans-6f" x="126.660156"/>
      <use xlink:href="#DejaVuSans-63" x="187.841797"/>
      <use xlink:href="#DejaVuSans-68" x="242.822266"/>
     </g>
    </g>
   </g>
   <g id="matplotlib.axis_2">
    <g id="ytick_1">
     <g id="line2d_13">
      <path d="M 57.6 307.150493 
L 414.72 307.150493 
" clip-path="url(#p0392db3e7b)" style="fill: none; stroke: #ffffff; stroke-width: 0.8; stroke-linecap: square"/>
     </g>
     <g id="line2d_14">
      <defs>
       <path id="m95db4af2ef" d="M 0 0 
L -3.5 0 
" style="stroke: #555555; stroke-width: 0.8"/>
      </defs>
      <g>
       <use xlink:href="#m95db4af2ef" x="57.6" y="307.150493" style="fill: #555555; stroke: #555555; stroke-width: 0.8"/>
      </g>
     </g>
     <g id="text_8">
      <!-- 0.2 -->
      <g style="fill: #555555" transform="translate(34.696875 310.949712) scale(0.1 -0.1)">
       <defs>
        <path id="DejaVuSans-2e" d="M 684 794 
L 1344 794 
L 1344 0 
L 684 0 
L 684 794 
z
" transform="scale(0.015625)"/>
       </defs>
       <use xlink:href="#DejaVuSans-30"/>
       <use xlink:href="#DejaVuSans-2e" x="63.623047"/>
       <use xlink:href="#DejaVuSans-32" x="95.410156"/>
      </g>
     </g>
    </g>
    <g id="ytick_2">
     <g id="line2d_15">
      <path d="M 57.6 273.419073 
L 414.72 273.419073 
" clip-path="url(#p0392db3e7b)" style="fill: none; stroke: #ffffff; stroke-width: 0.8; stroke-linecap: square"/>
     </g>
     <g id="line2d_16">
      <g>
       <use xlink:href="#m95db4af2ef" x="57.6" y="273.419073" style="fill: #555555; stroke: #555555; stroke-width: 0.8"/>
      </g>
     </g>
     <g id="text_9">
      <!-- 0.4 -->
      <g style="fill: #555555" transform="translate(34.696875 277.218292) scale(0.1 -0.1)">
       <use xlink:href="#DejaVuSans-30"/>
       <use xlink:href="#DejaVuSans-2e" x="63.623047"/>
       <use xlink:href="#DejaVuSans-34" x="95.410156"/>
      </g>
     </g>
    </g>
    <g id="ytick_3">
     <g id="line2d_17">
      <path d="M 57.6 239.687652 
L 414.72 239.687652 
" clip-path="url(#p0392db3e7b)" style="fill: none; stroke: #ffffff; stroke-width: 0.8; stroke-linecap: square"/>
     </g>
     <g id="line2d_18">
      <g>
       <use xlink:href="#m95db4af2ef" x="57.6" y="239.687652" style="fill: #555555; stroke: #555555; stroke-width: 0.8"/>
      </g>
     </g>
     <g id="text_10">
      <!-- 0.6 -->
      <g style="fill: #555555" transform="translate(34.696875 243.486871) scale(0.1 -0.1)">
       <use xlink:href="#DejaVuSans-30"/>
       <use xlink:href="#DejaVuSans-2e" x="63.623047"/>
       <use xlink:href="#DejaVuSans-36" x="95.410156"/>
      </g>
     </g>
    </g>
    <g id="ytick_4">
     <g id="line2d_19">
      <path d="M 57.6 205.956232 
L 414.72 205.956232 
" clip-path="url(#p0392db3e7b)" style="fill: none; stroke: #ffffff; stroke-width: 0.8; stroke-linecap: square"/>
     </g>
     <g id="line2d_20">
      <g>
       <use xlink:href="#m95db4af2ef" x="57.6" y="205.956232" style="fill: #555555; stroke: #555555; stroke-width: 0.8"/>
      </g>
     </g>
     <g id="text_11">
      <!-- 0.8 -->
      <g style="fill: #555555" transform="translate(34.696875 209.755451) scale(0.1 -0.1)">
       <use xlink:href="#DejaVuSans-30"/>
       <use xlink:href="#DejaVuSans-2e" x="63.623047"/>
       <use xlink:href="#DejaVuSans-38" x="95.410156"/>
      </g>
     </g>
    </g>
    <g id="ytick_5">
     <g id="line2d_21">
      <path d="M 57.6 172.224811 
L 414.72 172.224811 
" clip-path="url(#p0392db3e7b)" style="fill: none; stroke: #ffffff; stroke-width: 0.8; stroke-linecap: square"/>
     </g>
     <g id="line2d_22">
      <g>
       <use xlink:href="#m95db4af2ef" x="57.6" y="172.224811" style="fill: #555555; stroke: #555555; stroke-width: 0.8"/>
      </g>
     </g>
     <g id="text_12">
      <!-- 1.0 -->
      <g style="fill: #555555" transform="translate(34.696875 176.02403) scale(0.1 -0.1)">
       <use xlink:href="#DejaVuSans-31"/>
       <use xlink:href="#DejaVuSans-2e" x="63.623047"/>
       <use xlink:href="#DejaVuSans-30" x="95.410156"/>
      </g>
     </g>
    </g>
    <g id="ytick_6">
     <g id="line2d_23">
      <path d="M 57.6 138.493391 
L 414.72 138.493391 
" clip-path="url(#p0392db3e7b)" style="fill: none; stroke: #ffffff; stroke-width: 0.8; stroke-linecap: square"/>
     </g>
     <g id="line2d_24">
      <g>
       <use xlink:href="#m95db4af2ef" x="57.6" y="138.493391" style="fill: #555555; stroke: #555555; stroke-width: 0.8"/>
      </g>
     </g>
     <g id="text_13">
      <!-- 1.2 -->
      <g style="fill: #555555" transform="translate(34.696875 142.29261) scale(0.1 -0.1)">
       <use xlink:href="#DejaVuSans-31"/>
       <use xlink:href="#DejaVuSans-2e" x="63.623047"/>
       <use xlink:href="#DejaVuSans-32" x="95.410156"/>
      </g>
     </g>
    </g>
    <g id="ytick_7">
     <g id="line2d_25">
      <path d="M 57.6 104.76197 
L 414.72 104.76197 
" clip-path="url(#p0392db3e7b)" style="fill: none; stroke: #ffffff; stroke-width: 0.8; stroke-linecap: square"/>
     </g>
     <g id="line2d_26">
      <g>
       <use xlink:href="#m95db4af2ef" x="57.6" y="104.76197" style="fill: #555555; stroke: #555555; stroke-width: 0.8"/>
      </g>
     </g>
     <g id="text_14">
      <!-- 1.4 -->
      <g style="fill: #555555" transform="translate(34.696875 108.561189) scale(0.1 -0.1)">
       <use xlink:href="#DejaVuSans-31"/>
       <use xlink:href="#DejaVuSans-2e" x="63.623047"/>
       <use xlink:href="#DejaVuSans-34" x="95.410156"/>
      </g>
     </g>
    </g>
    <g id="ytick_8">
     <g id="line2d_27">
      <path d="M 57.6 71.03055 
L 414.72 71.03055 
" clip-path="url(#p0392db3e7b)" style="fill: none; stroke: #ffffff; stroke-width: 0.8; stroke-linecap: square"/>
     </g>
     <g id="line2d_28">
      <g>
       <use xlink:href="#m95db4af2ef" x="57.6" y="71.03055" style="fill: #555555; stroke: #555555; stroke-width: 0.8"/>
      </g>
     </g>
     <g id="text_15">
      <!-- 1.6 -->
      <g style="fill: #555555" transform="translate(34.696875 74.829769) scale(0.1 -0.1)">
       <use xlink:href="#DejaVuSans-31"/>
       <use xlink:href="#DejaVuSans-2e" x="63.623047"/>
       <use xlink:href="#DejaVuSans-36" x="95.410156"/>
      </g>
     </g>
    </g>
    <g id="text_16">
     <!-- Loss -->
     <g style="fill: #555555" transform="translate(28.20125 187.688625) rotate(-90) scale(0.12 -0.12)">
      <defs>
       <path id="DejaVuSans-4c" d="M 628 4666 
L 1259 4666 
L 1259 531 
L 3531 531 
L 3531 0 
L 628 0 
L 628 4666 
z
" transform="scale(0.015625)"/>
       <path id="DejaVuSans-73" d="M 2834 3397 
L 2834 2853 
Q 2591 2978 2328 3040 
Q 2066 3103 1784 3103 
Q 1356 3103 1142 2972 
Q 928 2841 928 2578 
Q 928 2378 1081 2264 
Q 1234 2150 1697 2047 
L 1894 2003 
Q 2506 1872 2764 1633 
Q 3022 1394 3022 966 
Q 3022 478 2636 193 
Q 2250 -91 1575 -91 
Q 1294 -91 989 -36 
Q 684 19 347 128 
L 347 722 
Q 666 556 975 473 
Q 1284 391 1588 391 
Q 1994 391 2212 530 
Q 2431 669 2431 922 
Q 2431 1156 2273 1281 
Q 2116 1406 1581 1522 
L 1381 1569 
Q 847 1681 609 1914 
Q 372 2147 372 2553 
Q 372 3047 722 3315 
Q 1072 3584 1716 3584 
Q 2034 3584 2315 3537 
Q 2597 3491 2834 3397 
z
" transform="scale(0.015625)"/>
      </defs>
      <use xlink:href="#DejaVuSans-4c"/>
      <use xlink:href="#DejaVuSans-6f" x="53.962891"/>
      <use xlink:href="#DejaVuSans-73" x="115.144531"/>
      <use xlink:href="#DejaVuSans-73" x="167.244141"/>
     </g>
    </g>
   </g>
   <g id="line2d_29">
    <path d="M 73.832727 219.684351 
L 74.735381 204.797631 
L 75.93892 187.517713 
L 77.142459 172.306922 
L 79.248651 150.300052 
L 79.549536 148.089112 
L 80.753074 136.91289 
L 81.956613 127.350476 
L 82.558382 123.453267 
L 82.859267 120.237695 
L 83.160152 119.470731 
L 84.062806 112.624549 
L 84.36369 111.59925 
L 84.96546 107.538845 
L 85.567229 105.159681 
L 86.168998 102.610405 
L 87.974306 95.438414 
L 88.275191 93.040914 
L 88.87696 91.7803 
L 89.177845 91.458029 
L 90.080499 88.546793 
L 90.381383 88.556886 
L 90.682268 86.944506 
L 90.983153 87.047949 
L 91.284037 86.674248 
L 91.584922 86.042373 
L 92.186691 84.228797 
L 92.487576 85.4872 
L 92.788461 84.109189 
L 93.089345 83.665521 
L 93.39023 83.759997 
L 93.991999 82.654014 
L 94.292884 84.191521 
L 94.593769 83.101884 
L 94.894653 83.686632 
L 95.195538 83.115274 
L 95.496423 83.163347 
L 95.797307 82.566696 
L 96.399077 82.975642 
L 96.699961 83.472529 
L 97.000846 83.566582 
L 97.301731 83.116621 
L 97.602615 83.292102 
L 97.9035 82.953666 
L 98.204385 84.467992 
L 98.505269 84.237804 
L 98.806154 83.795624 
L 99.107039 83.882761 
L 99.407923 84.848287 
L 99.708808 83.883907 
L 100.009692 85.996472 
L 100.310577 86.231988 
L 100.611462 87.484862 
L 100.912346 87.252522 
L 101.213231 87.846419 
L 101.514116 88.044739 
L 101.815 87.294302 
L 102.41677 90.028729 
L 102.717654 89.202615 
L 103.018539 89.949252 
L 103.319424 89.808393 
L 103.620308 91.971362 
L 103.921193 92.128064 
L 104.222078 92.924825 
L 104.522962 93.342878 
L 105.425616 95.032042 
L 105.726501 95.434031 
L 106.027386 96.67462 
L 106.32827 96.822074 
L 106.629155 96.025172 
L 107.230924 98.560938 
L 107.832694 100.450753 
L 108.133578 100.853748 
L 108.434463 101.80894 
L 108.735348 102.045943 
L 109.337117 104.649866 
L 109.938886 104.098996 
L 110.239771 104.500261 
L 110.84154 107.602479 
L 111.443309 110.116711 
L 111.744194 109.80409 
L 112.345963 111.162056 
L 112.947733 113.457078 
L 113.248617 112.629475 
L 113.549502 113.373439 
L 113.850387 113.35462 
L 114.151271 115.273046 
L 114.452156 115.851662 
L 114.753041 117.730319 
L 115.053925 118.529673 
L 115.35481 118.482224 
L 115.956579 120.430386 
L 116.257464 119.778506 
L 116.558349 121.760284 
L 116.859233 122.187989 
L 117.160118 121.317964 
L 117.461003 122.3541 
L 117.761887 122.870892 
L 118.363657 126.835997 
L 118.664541 127.506253 
L 118.965426 128.680796 
L 119.266311 128.836071 
L 119.567195 128.356877 
L 119.86808 128.627537 
L 120.168965 130.738493 
L 120.469849 131.114325 
L 120.770734 131.083262 
L 121.071619 130.511703 
L 121.673388 134.693324 
L 121.974272 135.267336 
L 122.275157 136.574213 
L 122.576042 136.281758 
L 122.876926 136.942767 
L 123.177811 137.948564 
L 123.478696 137.35507 
L 123.77958 139.065364 
L 124.080465 138.440887 
L 124.38135 139.396522 
L 124.682234 139.389444 
L 125.284004 143.170363 
L 125.584888 143.430649 
L 125.885773 144.931825 
L 126.186658 144.253144 
L 126.487542 145.116575 
L 126.788427 144.464332 
L 127.089312 145.046366 
L 127.390196 147.013548 
L 127.691081 147.38944 
L 127.991966 146.042151 
L 128.29285 146.565658 
L 128.593735 149.349083 
L 128.89462 150.841393 
L 129.195504 150.441193 
L 129.496389 151.520416 
L 129.797274 151.186323 
L 130.098158 152.63434 
L 130.399043 152.1998 
L 130.699928 152.473738 
L 131.000812 153.542566 
L 131.301697 153.322732 
L 131.602582 153.681052 
L 131.903466 153.354077 
L 132.505235 157.564288 
L 133.107005 158.72916 
L 133.407889 158.382742 
L 133.708774 158.942801 
L 134.009659 158.8283 
L 134.912313 160.804308 
L 135.514082 159.486051 
L 135.814967 162.749273 
L 136.115851 163.385874 
L 136.416736 163.671392 
L 137.018505 164.86608 
L 137.31939 164.930559 
L 137.620275 164.443081 
L 138.222044 165.444676 
L 138.823813 166.404392 
L 139.124698 165.769862 
L 139.425583 167.6143 
L 140.328237 169.707925 
L 140.930006 169.803085 
L 141.230891 170.682338 
L 141.531775 169.996298 
L 141.83266 171.369343 
L 142.434429 170.651737 
L 142.735314 170.535548 
L 143.036199 172.799668 
L 143.337083 173.406291 
L 143.637968 173.383199 
L 143.938852 174.377868 
L 144.239737 174.386303 
L 144.540622 174.066495 
L 144.841506 174.621718 
L 145.142391 174.60691 
L 145.443276 175.453251 
L 145.74416 174.584593 
L 146.045045 175.308039 
L 146.34593 174.511329 
L 146.646814 176.704617 
L 146.947699 176.699018 
L 147.549468 177.634154 
L 147.850353 177.57811 
L 148.151238 177.867297 
L 148.753007 177.680186 
L 149.053892 178.903173 
L 149.354776 178.054047 
L 149.655661 177.713893 
L 149.956546 177.774913 
L 150.25743 179.531912 
L 150.558315 179.414496 
L 151.160084 180.32065 
L 151.460969 180.501348 
L 151.761854 180.272105 
L 152.363623 180.349974 
L 152.664508 181.016662 
L 152.965392 180.384847 
L 153.266277 180.490763 
L 153.567162 179.68786 
L 153.868046 181.901495 
L 154.168931 181.142422 
L 154.469815 181.637319 
L 154.7707 181.30217 
L 155.071585 181.864621 
L 155.372469 181.578219 
L 155.673354 181.950321 
L 155.974239 181.562959 
L 156.275123 182.195457 
L 156.576008 181.556927 
L 156.876893 181.601833 
L 157.177777 180.756879 
L 157.478662 182.934937 
L 157.779547 181.812528 
L 158.080431 182.263705 
L 158.381316 181.983787 
L 158.682201 182.516019 
L 158.983085 182.388892 
L 159.28397 182.40751 
L 159.584855 182.151507 
L 159.885739 182.747604 
L 160.186624 181.781535 
L 160.487509 181.936287 
L 160.788393 181.39748 
L 161.089278 182.688434 
L 161.390163 181.97305 
L 161.691047 182.185927 
L 161.991932 181.957298 
L 162.593701 182.703413 
L 162.894586 182.174548 
L 163.195471 182.079861 
L 163.496355 182.258267 
L 163.79724 181.745054 
L 164.098125 181.852548 
L 164.399009 181.106865 
L 164.699894 182.697532 
L 165.000778 181.65085 
L 165.301663 181.824983 
L 165.602548 181.537867 
L 165.903432 182.038604 
L 166.204317 181.800344 
L 166.505202 181.996634 
L 166.806086 181.855584 
L 167.106971 182.064892 
L 167.407856 181.430966 
L 167.70874 181.526457 
L 168.009625 180.588385 
L 168.31051 182.392039 
L 168.611394 181.553047 
L 168.912279 181.448588 
L 169.213164 181.159009 
L 169.514048 181.634293 
L 170.115818 181.498963 
L 170.416702 181.550533 
L 170.717587 182.065485 
L 171.018472 181.321532 
L 171.319356 181.108725 
L 171.620241 180.626053 
L 171.921126 182.109235 
L 172.22201 181.447091 
L 172.82378 181.078909 
L 173.124664 181.664803 
L 173.726434 181.576339 
L 174.027318 181.592674 
L 174.328203 182.02633 
L 174.629088 181.63369 
L 174.929972 181.521521 
L 175.230857 180.913591 
L 175.531742 182.400453 
L 175.832626 181.389348 
L 176.133511 181.98065 
L 176.434395 181.444366 
L 176.73528 182.113698 
L 177.637934 182.234623 
L 177.938819 182.677657 
L 178.239703 182.313195 
L 178.540588 182.248194 
L 178.841473 181.774046 
L 179.142357 183.097983 
L 179.443242 182.61522 
L 179.744127 182.631807 
L 180.045011 182.769962 
L 180.345896 183.236057 
L 180.646781 183.19279 
L 180.947665 183.281636 
L 181.24855 183.672115 
L 181.549435 183.790225 
L 181.850319 183.482651 
L 182.151204 183.877081 
L 182.452089 183.207256 
L 182.752973 184.282538 
L 183.053858 183.165779 
L 183.354743 182.947755 
L 183.655627 182.305816 
L 183.956512 182.791635 
L 184.558281 182.61326 
L 184.859166 182.148431 
L 185.160051 182.410043 
L 185.460935 181.585919 
L 185.76182 181.359199 
L 186.062705 180.417679 
L 186.363589 181.648186 
L 186.664474 180.978341 
L 186.965358 180.744273 
L 187.266243 180.209055 
L 187.567128 180.652049 
L 187.868012 180.608239 
L 188.168897 180.018857 
L 188.469782 179.83458 
L 188.770666 180.352658 
L 189.071551 179.614887 
L 189.372436 179.289027 
L 189.67332 178.448467 
L 189.974205 179.867975 
L 190.27509 179.15042 
L 190.876859 178.324738 
L 191.478628 178.188252 
L 191.779513 178.431176 
L 192.080398 178.134339 
L 192.381282 178.336349 
L 192.682167 177.822784 
L 192.983052 177.944121 
L 193.283936 176.763446 
L 193.584821 177.677361 
L 193.885706 176.95105 
L 194.18659 176.951603 
L 194.487475 176.330745 
L 194.78836 176.78332 
L 195.089244 176.360632 
L 195.991898 176.59459 
L 196.292783 175.461937 
L 196.593668 175.597397 
L 196.894552 174.984532 
L 197.195437 175.833989 
L 197.496322 174.964557 
L 197.797206 174.78791 
L 198.098091 174.24466 
L 198.398975 174.846467 
L 198.69986 174.578109 
L 199.000745 174.781647 
L 199.301629 174.184484 
L 199.602514 174.747649 
L 199.903399 173.7912 
L 200.204283 174.048641 
L 200.505168 173.020406 
L 200.806053 174.206489 
L 201.106937 173.176706 
L 201.708707 172.665845 
L 202.009591 172.713576 
L 202.611361 172.144048 
L 202.912245 173.124281 
L 203.514015 172.043761 
L 203.814899 172.054256 
L 204.115784 170.912988 
L 204.416669 172.137694 
L 204.717553 171.741415 
L 205.018438 170.631853 
L 205.620207 170.859528 
L 205.921092 170.703529 
L 206.221977 170.885846 
L 206.823746 170.780775 
L 207.7264 169.202031 
L 208.027285 170.769395 
L 208.629054 168.732507 
L 208.929938 169.310078 
L 209.230823 169.456406 
L 209.531708 168.549085 
L 209.832592 169.156974 
L 210.133477 168.261898 
L 210.434362 169.216346 
L 210.735246 168.182381 
L 211.337016 167.354517 
L 211.6379 168.842685 
L 211.938785 167.234688 
L 212.23967 167.260021 
L 212.540554 167.017247 
L 212.841439 167.120308 
L 213.142324 165.990058 
L 213.443208 166.885295 
L 213.744093 166.714841 
L 214.044978 166.850553 
L 214.345862 166.603517 
L 214.646747 165.718231 
L 214.947632 165.485269 
L 215.248516 166.269001 
L 215.549401 165.817231 
L 216.15117 164.415637 
L 216.452055 165.594301 
L 216.75294 164.426293 
L 217.053824 164.928206 
L 217.354709 164.576038 
L 217.655594 165.122566 
L 217.956478 164.068033 
L 218.257363 164.525915 
L 218.558248 163.132544 
L 218.859132 164.454018 
L 219.160017 163.612221 
L 219.761786 162.707735 
L 220.062671 162.874249 
L 220.363555 163.322923 
L 220.66444 162.674722 
L 221.266209 163.341119 
L 221.567094 162.236744 
L 221.867979 162.321006 
L 222.168863 160.881775 
L 222.469748 162.671324 
L 222.770633 161.660903 
L 223.071517 161.606698 
L 223.372402 160.904373 
L 223.673287 160.542977 
L 223.974171 160.69027 
L 224.275056 160.633291 
L 224.876825 161.008238 
L 225.17771 160.114288 
L 225.478595 160.226356 
L 225.779479 159.816867 
L 226.381249 160.593502 
L 226.682133 158.578328 
L 226.983018 158.583596 
L 227.283903 158.905063 
L 227.584787 158.550683 
L 227.885672 158.876895 
L 228.186557 158.721902 
L 228.487441 159.663221 
L 228.788326 158.261466 
L 229.089211 157.825177 
L 229.390095 156.737228 
L 229.69098 158.885782 
L 229.991865 158.600485 
L 230.292749 156.561446 
L 230.593634 156.554891 
L 230.894518 157.677522 
L 231.195403 156.031304 
L 231.496288 156.697801 
L 231.797172 156.441155 
L 232.098057 157.685785 
L 232.398942 156.199386 
L 232.699826 155.957658 
L 233.000711 155.008377 
L 233.301596 156.06476 
L 233.60248 155.808294 
L 233.903365 155.077902 
L 234.20425 155.165763 
L 234.505134 154.966377 
L 234.806019 154.093939 
L 235.106904 154.501336 
L 235.708673 154.845462 
L 236.009558 154.041443 
L 236.310442 154.151963 
L 236.611327 153.578635 
L 236.912212 154.5096 
L 237.213096 153.566672 
L 237.513981 151.856298 
L 237.814866 152.564856 
L 238.11575 152.534215 
L 238.416635 152.911253 
L 238.71752 152.301253 
L 239.018404 152.418528 
L 239.319289 152.781131 
L 239.620174 152.825041 
L 239.921058 152.533692 
L 240.221943 151.125021 
L 240.522828 152.739572 
L 240.823712 151.413635 
L 241.124597 150.643454 
L 241.425482 150.474106 
L 241.726366 150.925273 
L 242.027251 150.061239 
L 242.328135 150.194458 
L 242.62902 149.60774 
L 242.929905 151.012772 
L 243.230789 150.84658 
L 243.531674 149.541754 
L 243.832559 148.964947 
L 244.133443 150.704555 
L 244.434328 149.029888 
L 244.735213 148.422943 
L 245.036097 148.191127 
L 245.336982 148.272474 
L 245.637867 147.550264 
L 246.239636 148.786591 
L 246.540521 147.95547 
L 246.841405 147.606017 
L 247.14229 148.013233 
L 247.443175 146.987713 
L 247.744059 147.609113 
L 248.044944 146.612785 
L 248.345829 146.167067 
L 248.646713 146.482743 
L 248.947598 147.454663 
L 249.248483 145.091865 
L 249.549367 145.316665 
L 249.850252 146.974222 
L 250.151137 147.152738 
L 250.452021 145.233066 
L 250.752906 146.09905 
L 251.053791 144.445232 
L 251.354675 146.816353 
L 251.65556 145.286245 
L 251.956445 143.149835 
L 252.558214 144.498049 
L 252.859098 143.103995 
L 253.159983 143.960629 
L 253.460868 143.689286 
L 253.761752 144.877902 
L 254.062637 144.075552 
L 254.664406 141.525231 
L 254.965291 143.512277 
L 255.867945 141.66426 
L 256.16883 142.011703 
L 256.469714 141.918997 
L 256.770599 140.628466 
L 257.071484 142.142731 
L 257.372368 142.746177 
L 257.673253 142.820145 
L 258.275022 139.281659 
L 258.575907 142.483217 
L 259.478561 139.026319 
L 259.779446 140.296001 
L 260.08033 138.575876 
L 260.381215 137.752576 
L 260.6821 140.73225 
L 260.982984 141.267539 
L 261.283869 138.705858 
L 261.584754 138.09839 
L 261.885638 138.572739 
L 262.186523 139.487961 
L 263.089177 137.417317 
L 263.390062 137.478558 
L 263.690946 137.694933 
L 263.991831 137.669078 
L 264.292715 135.774718 
L 264.5936 138.760143 
L 265.195369 136.494917 
L 265.496254 136.840329 
L 265.797139 136.675102 
L 266.398908 135.146462 
L 266.699793 134.872162 
L 267.000677 135.465214 
L 267.301562 135.211664 
L 267.602447 134.650459 
L 267.903331 134.800386 
L 268.204216 134.209485 
L 268.805985 135.741222 
L 269.10687 133.643737 
L 269.407755 134.829036 
L 269.708639 133.445275 
L 270.009524 133.212876 
L 270.611293 131.684316 
L 270.912178 133.137822 
L 271.213063 133.804098 
L 271.513947 134.853203 
L 271.814832 134.415989 
L 272.115717 132.827635 
L 272.717486 131.011505 
L 273.018371 133.656363 
L 273.319255 131.362809 
L 273.62014 132.414205 
L 273.921025 129.183092 
L 274.221909 129.756239 
L 274.522794 130.577991 
L 274.823678 130.087055 
L 275.124563 131.772539 
L 275.425448 132.396513 
L 275.726332 130.242651 
L 276.027217 129.729499 
L 276.328102 128.06776 
L 276.628986 131.568005 
L 276.929871 128.924515 
L 277.230756 129.078785 
L 277.53164 127.574331 
L 278.13341 128.41858 
L 278.434294 128.690226 
L 278.735179 129.602251 
L 279.036064 129.273004 
L 279.336948 128.204899 
L 279.637833 129.447037 
L 279.938718 127.462202 
L 280.239602 129.826508 
L 280.841372 126.028158 
L 281.443141 125.732426 
L 281.744026 125.447009 
L 282.04491 125.501736 
L 282.345795 127.683825 
L 282.64668 128.052118 
L 283.549334 124.849936 
L 283.850218 126.481476 
L 284.752872 123.462375 
L 285.053757 124.450882 
L 285.354642 123.477032 
L 285.956411 124.372571 
L 286.257295 126.552047 
L 286.55818 123.500415 
L 286.859065 123.937106 
L 287.159949 122.330335 
L 287.460834 123.05152 
L 287.761719 124.794083 
L 288.062603 120.815949 
L 288.363488 121.764909 
L 288.664373 121.251495 
L 288.965257 121.287464 
L 289.266142 121.627226 
L 289.567027 123.044342 
L 290.469681 120.913521 
L 291.07145 121.747658 
L 291.372335 121.113853 
L 291.673219 119.258357 
L 291.974104 118.918071 
L 292.274989 120.035032 
L 292.575873 118.624008 
L 292.876758 119.527248 
L 293.177643 118.764867 
L 293.478527 120.713432 
L 293.779412 119.266922 
L 294.080297 119.040393 
L 294.381181 117.191009 
L 294.682066 119.880602 
L 295.283835 115.944067 
L 295.58472 118.257706 
L 295.885605 116.776655 
L 296.487374 115.688566 
L 296.788258 118.536208 
L 297.089143 118.154022 
L 297.390028 116.4269 
L 297.690912 116.753514 
L 297.991797 115.722243 
L 298.292682 118.277269 
L 298.593566 117.101359 
L 298.894451 113.215852 
L 299.195336 114.108073 
L 299.49622 114.179327 
L 299.797105 114.903246 
L 300.09799 114.654159 
L 300.398874 115.165803 
L 300.699759 116.670559 
L 301.000644 114.600115 
L 301.301528 114.620964 
L 301.602413 112.66462 
L 301.903298 115.786822 
L 302.204182 114.288219 
L 302.505067 111.245091 
L 302.805952 111.6965 
L 303.106836 111.618088 
L 303.407721 112.591054 
L 303.708606 111.439451 
L 304.00949 113.344024 
L 304.310375 112.479287 
L 304.61126 112.625394 
L 304.912144 111.95763 
L 305.213029 110.872356 
L 305.513914 113.038642 
L 305.814798 111.982159 
L 306.115683 112.053131 
L 306.416568 108.728688 
L 306.717452 111.551921 
L 307.319222 107.621277 
L 307.620106 111.000226 
L 307.920991 112.548752 
L 308.221875 109.926472 
L 308.52276 110.697357 
L 308.823645 108.272253 
L 309.124529 111.664894 
L 309.425414 108.462652 
L 309.726299 108.887159 
L 310.027183 106.21154 
L 310.328068 109.483408 
L 310.628953 108.180833 
L 310.929837 107.563816 
L 311.230722 108.852095 
L 311.531607 108.683551 
L 311.832491 107.622805 
L 312.133376 108.649774 
L 312.434261 105.218248 
L 312.735145 108.757278 
L 313.03603 108.696117 
L 313.336915 105.608074 
L 313.637799 105.727903 
L 313.938684 106.935961 
L 314.239569 105.364214 
L 314.540453 104.862442 
L 314.841338 107.423459 
L 315.142223 105.980206 
L 315.443107 103.761706 
L 315.743992 108.455856 
L 316.044877 104.147752 
L 316.345761 106.387805 
L 316.646646 103.723164 
L 316.947531 103.848723 
L 317.248415 103.394781 
L 317.5493 103.602933 
L 317.850185 102.185315 
L 318.151069 103.677524 
L 318.451954 106.332093 
L 318.752838 103.124905 
L 319.053723 104.122781 
L 319.354608 104.53237 
L 319.655492 101.435742 
L 319.956377 104.750635 
L 320.558146 100.29767 
L 320.859031 100.69588 
L 321.159916 101.759983 
L 321.4608 98.380833 
L 321.761685 102.423484 
L 322.06257 100.452965 
L 322.363454 103.476288 
L 322.664339 100.603917 
L 322.965224 101.640576 
L 323.266108 101.293837 
L 323.566993 99.656888 
L 323.867878 101.669689 
L 324.168762 99.154934 
L 324.469647 99.282624 
L 324.770532 100.114368 
L 325.071416 96.545483 
L 325.372301 99.297824 
L 325.673186 99.452958 
L 325.97407 98.662792 
L 326.274955 99.956359 
L 326.876724 99.134407 
L 327.177609 100.3682 
L 327.779378 95.070383 
L 328.080263 96.006917 
L 328.381148 97.766248 
L 328.682032 95.137213 
L 328.982917 95.622882 
L 329.283801 96.395154 
L 329.584686 96.81379 
L 329.885571 96.935187 
L 330.186455 96.181714 
L 330.48734 95.805158 
L 330.788225 97.805011 
L 331.089109 92.977039 
L 331.389994 95.554061 
L 331.690879 94.167264 
L 331.991763 94.169657 
L 332.292648 94.806498 
L 332.593533 94.018443 
L 332.894417 97.419529 
L 333.195302 97.073996 
L 333.496187 94.152708 
L 334.097956 94.639442 
L 334.398841 95.451663 
L 334.699725 92.813018 
L 335.00061 92.556613 
L 335.301495 92.53317 
L 335.602379 92.216629 
L 335.903264 91.275712 
L 336.204149 91.146494 
L 336.505033 93.172183 
L 336.805918 93.63662 
L 337.407687 92.335392 
L 337.708572 91.237572 
L 338.009457 95.834592 
L 338.912111 87.186355 
L 339.212995 90.985349 
L 339.51388 89.366796 
L 339.814765 89.935621 
L 340.115649 92.679478 
L 340.717418 91.796103 
L 341.018303 88.828069 
L 341.319188 88.26795 
L 341.620072 90.607345 
L 341.920957 89.653983 
L 342.221842 87.197071 
L 342.522726 87.809063 
L 342.823611 88.975443 
L 343.726265 87.196509 
L 344.02715 90.774583 
L 344.328034 88.956624 
L 344.929804 86.755334 
L 345.230688 89.293109 
L 345.531573 88.345497 
L 345.832458 84.775566 
L 346.133342 83.900253 
L 346.434227 85.591567 
L 346.735112 83.598309 
L 347.035996 84.359262 
L 347.336881 87.296614 
L 347.637766 87.208049 
L 347.93865 86.021564 
L 348.239535 86.44211 
L 348.54042 83.599334 
L 349.142189 85.718815 
L 349.443074 81.427418 
L 349.743958 81.181066 
L 350.044843 82.215714 
L 350.345728 80.048543 
L 350.646612 85.191026 
L 350.947497 83.810945 
L 351.248381 86.55448 
L 351.549266 82.29489 
L 351.850151 83.107896 
L 352.151035 81.92907 
L 352.45192 84.760989 
L 352.752805 84.194919 
L 353.053689 79.330375 
L 353.354574 81.999359 
L 353.655459 79.425373 
L 353.956343 81.156859 
L 354.257228 78.234143 
L 354.558113 83.513142 
L 354.858997 84.067873 
L 355.159882 80.056646 
L 355.460767 81.906773 
L 355.761651 79.875435 
L 356.062536 82.906157 
L 356.363421 78.956252 
L 356.664305 77.569275 
L 356.96519 78.125292 
L 357.266075 80.456946 
L 357.566959 79.993012 
L 357.867844 77.649475 
L 358.168729 81.094954 
L 358.469613 82.154212 
L 358.770498 78.72719 
L 359.071383 79.496627 
L 359.372267 75.704108 
L 359.673152 76.999304 
L 359.974037 79.506399 
L 360.575806 75.115319 
L 360.876691 75.402204 
L 361.177575 75.896819 
L 361.47846 77.808148 
L 361.779345 78.71949 
L 362.080229 78.90255 
L 362.381114 77.224586 
L 362.681998 76.672911 
L 362.982883 77.787077 
L 363.283768 74.480568 
L 363.584652 80.510628 
L 363.885537 74.572068 
L 364.186422 73.477404 
L 364.487306 75.615986 
L 364.788191 72.742951 
L 365.089076 75.81304 
L 365.38996 75.982368 
L 365.690845 75.194615 
L 365.99173 74.859878 
L 366.292614 75.871908 
L 366.593499 75.042517 
L 366.894384 73.642873 
L 367.195268 75.405984 
L 367.496153 70.947711 
L 367.797038 70.887254 
L 368.097922 70.986314 
L 368.398807 71.272174 
L 368.699692 73.292816 
L 369.000576 73.267584 
L 369.301461 73.977891 
L 369.602346 70.205979 
L 369.90323 73.582114 
L 370.204115 72.47971 
L 370.505 73.277194 
L 370.805884 72.574427 
L 371.407654 70.498534 
L 372.009423 70.066749 
L 372.310308 71.081212 
L 372.611192 71.641532 
L 372.912077 70.689496 
L 373.212961 72.054438 
L 373.513846 69.725136 
L 373.814731 71.441603 
L 374.115615 71.7156 
L 374.4165 69.849368 
L 374.717385 69.884875 
L 375.018269 65.805792 
L 375.319154 71.421859 
L 375.620039 67.153563 
L 375.920923 68.173716 
L 376.221808 68.12488 
L 376.522693 72.666771 
L 376.823577 70.37006 
L 377.124462 66.523819 
L 377.425347 68.145106 
L 377.726231 68.439953 
L 378.027116 69.751475 
L 378.328001 65.091484 
L 378.628885 63.830889 
L 378.92977 64.333466 
L 379.230655 65.662419 
L 379.531539 67.623931 
L 379.832424 65.581133 
L 380.133309 68.044699 
L 380.434193 65.684837 
L 380.735078 68.722898 
L 381.035963 64.550787 
L 381.336847 65.71584 
L 381.637732 65.413875 
L 381.938617 62.241791 
L 382.239501 62.917758 
L 382.540386 65.332287 
L 382.841271 62.695613 
L 383.142155 65.19744 
L 383.44304 62.458247 
L 383.743925 67.627188 
L 384.044809 64.761351 
L 384.345694 63.659812 
L 384.646578 63.896916 
L 384.947463 65.776035 
L 385.248348 65.102964 
L 385.549232 58.934176 
L 385.850117 61.105127 
L 386.151002 61.879149 
L 386.752771 59.398291 
L 387.053656 63.41748 
L 387.35454 61.446539 
L 387.655425 60.966098 
L 387.95631 64.637562 
L 388.257194 64.224052 
L 388.558079 61.747578 
L 388.858964 61.088319 
L 389.159848 59.679286 
L 389.460733 57.548385 
L 389.761618 59.577693 
L 390.062502 60.812854 
L 390.363387 59.17112 
L 390.664272 62.139092 
L 390.965156 62.377403 
L 391.566926 59.33126 
L 392.168695 61.335536 
L 392.46958 59.302026 
L 392.770464 59.743945 
L 393.372234 58.268162 
L 393.673118 56.211229 
L 393.974003 57.430788 
L 394.274888 59.280614 
L 394.575772 58.854498 
L 394.876657 56.696556 
L 395.177541 59.725327 
L 395.478426 58.317541 
L 395.779311 58.911417 
L 396.38108 53.568 
L 396.982849 57.682428 
L 397.283734 54.221951 
L 397.584619 54.64477 
L 397.885503 55.874281 
L 398.186388 56.271365 
L 398.487273 56.047027 
L 398.487273 56.047027 
" clip-path="url(#p0392db3e7b)" style="fill: none; stroke: #6495ed; stroke-width: 2; stroke-linecap: square"/>
   </g>
   <g id="line2d_30">
    <path d="M 73.832727 220.777619 
L 74.735381 231.070124 
L 75.638035 239.476472 
L 77.142459 250.437494 
L 78.045112 256.107004 
L 78.345997 256.829363 
L 79.248651 262.377619 
L 79.549536 263.224845 
L 80.151305 266.383023 
L 80.45219 267.058949 
L 81.053959 269.866975 
L 81.354844 270.853624 
L 81.655728 272.46609 
L 81.956613 272.13946 
L 82.257498 273.719295 
L 82.558382 274.504025 
L 82.859267 276.470922 
L 83.160152 276.548428 
L 83.761921 278.845004 
L 84.062806 279.088139 
L 84.664575 280.941909 
L 84.96546 281.443861 
L 85.266344 282.70811 
L 85.567229 281.799911 
L 85.868114 283.227295 
L 86.168998 283.592363 
L 86.469883 285.122644 
L 86.770768 285.021758 
L 87.372537 286.567463 
L 87.673422 286.392832 
L 88.275191 287.969759 
L 88.576075 288.06559 
L 88.87696 289.126891 
L 89.177845 287.740368 
L 89.478729 289.065556 
L 89.779614 289.267351 
L 90.080499 290.692818 
L 90.381383 290.129467 
L 90.983153 291.345007 
L 91.284037 290.804037 
L 91.584922 291.653592 
L 91.885807 291.983031 
L 92.186691 291.956026 
L 92.487576 292.658211 
L 92.788461 291.177765 
L 93.089345 292.40878 
L 93.39023 292.305552 
L 93.691115 293.687259 
L 93.991999 293.02718 
L 94.292884 293.094478 
L 94.593769 293.820439 
L 94.894653 292.909945 
L 95.195538 293.79709 
L 95.496423 293.84878 
L 95.797307 293.684532 
L 96.098192 294.411276 
L 96.399077 292.499104 
L 96.699961 293.612007 
L 97.000846 293.414329 
L 97.301731 294.789283 
L 97.602615 293.820022 
L 98.204385 294.457097 
L 98.505269 293.424679 
L 98.806154 294.376167 
L 99.107039 294.325972 
L 99.407923 293.858589 
L 99.708808 294.644484 
L 100.009692 292.189191 
L 100.310577 293.388114 
L 100.611462 292.939517 
L 100.912346 294.340835 
L 101.213231 293.09093 
L 101.514116 293.313256 
L 101.815 293.943459 
L 102.115885 292.409622 
L 102.41677 293.209163 
L 102.717654 293.202884 
L 103.018539 292.665528 
L 103.319424 293.155779 
L 103.620308 290.445048 
L 103.921193 291.702831 
L 104.222078 291.299903 
L 104.522962 292.675341 
L 104.823847 291.170116 
L 105.124732 291.339612 
L 105.425616 291.799917 
L 105.726501 290.028599 
L 106.027386 291.081682 
L 106.629155 290.461005 
L 106.93004 290.52377 
L 107.230924 287.686198 
L 107.531809 288.921625 
L 107.832694 288.427808 
L 108.133578 289.932967 
L 108.434463 288.112252 
L 109.036232 288.682402 
L 109.337117 286.362593 
L 109.638002 287.95125 
L 109.938886 287.636379 
L 110.239771 287.030744 
L 110.540655 286.787125 
L 110.84154 283.627707 
L 111.142425 284.878034 
L 111.443309 284.242251 
L 111.744194 286.067825 
L 112.045079 283.998706 
L 112.345963 284.169841 
L 112.646848 284.58161 
L 112.947733 281.850505 
L 113.248617 283.871591 
L 114.151271 282.186714 
L 114.452156 278.862405 
L 114.753041 280.058613 
L 115.053925 279.569711 
L 115.35481 281.549328 
L 115.655695 279.124077 
L 115.956579 279.255611 
L 116.257464 280.155634 
L 116.558349 276.811641 
L 116.859233 278.907263 
L 117.160118 278.517716 
L 117.461003 277.711092 
L 117.761887 277.264776 
L 118.062772 273.448751 
L 118.363657 274.670517 
L 118.664541 274.169635 
L 118.965426 276.044166 
L 119.266311 273.51795 
L 119.567195 274.018366 
L 119.86808 274.845655 
L 120.168965 271.001673 
L 120.469849 273.417796 
L 121.372503 271.26119 
L 121.673388 267.148337 
L 121.974272 268.731794 
L 122.275157 268.116629 
L 122.576042 270.552367 
L 122.876926 267.734445 
L 123.177811 267.917016 
L 123.478696 268.97496 
L 123.77958 264.927133 
L 124.080465 267.885405 
L 124.983119 265.100668 
L 125.284004 260.936533 
L 125.584888 262.609921 
L 125.885773 261.960966 
L 126.186658 264.630569 
L 126.487542 261.591256 
L 127.089312 263.208924 
L 127.390196 258.850208 
L 127.691081 261.656628 
L 127.991966 261.3188 
L 128.29285 260.632758 
L 128.593735 258.970185 
L 128.89462 254.845907 
L 129.195504 256.715163 
L 129.496389 256.228861 
L 129.797274 258.996584 
L 130.098158 255.697201 
L 130.399043 256.368369 
L 130.699928 257.355028 
L 131.000812 253.122793 
L 131.301697 256.295422 
L 131.602582 255.429357 
L 131.903466 254.990343 
L 132.204351 253.467358 
L 132.505235 249.258863 
L 132.80612 250.715437 
L 133.107005 250.372941 
L 133.407889 253.157127 
L 133.708774 250.096603 
L 134.009659 250.68951 
L 134.310543 251.629765 
L 134.611428 247.613825 
L 134.912313 250.335192 
L 135.514082 249.563852 
L 135.814967 247.646077 
L 136.115851 243.87196 
L 136.416736 245.396493 
L 136.717621 245.175688 
L 137.018505 247.623496 
L 137.31939 244.677037 
L 137.921159 246.465131 
L 138.222044 242.617538 
L 138.522929 245.415461 
L 138.823813 244.466516 
L 139.124698 244.14172 
L 139.425583 242.815867 
L 139.726467 239.250739 
L 140.027352 240.563598 
L 140.328237 240.292451 
L 140.629121 242.86541 
L 140.930006 240.105011 
L 141.230891 240.365646 
L 141.531775 241.730411 
L 141.83266 237.676388 
L 142.133545 240.520364 
L 142.735314 239.58922 
L 143.036199 238.22468 
L 143.337083 234.812288 
L 143.637968 236.115403 
L 143.938852 235.840826 
L 144.239737 238.35628 
L 144.540622 235.810394 
L 144.841506 236.245226 
L 145.142391 237.301141 
L 145.443276 233.690934 
L 145.74416 236.590697 
L 146.045045 235.783852 
L 146.34593 235.572138 
L 146.646814 234.453526 
L 146.947699 231.514874 
L 147.248584 232.333557 
L 147.549468 232.445085 
L 147.850353 234.865133 
L 148.151238 232.189417 
L 148.452122 232.83092 
L 148.753007 233.973459 
L 149.053892 230.547268 
L 149.354776 233.117875 
L 149.655661 232.884368 
L 149.956546 232.386981 
L 150.25743 231.621926 
L 150.558315 228.925197 
L 150.8592 229.561578 
L 151.160084 229.827788 
L 151.460969 231.957587 
L 151.761854 229.684134 
L 152.363623 231.366646 
L 152.664508 228.516693 
L 152.965392 230.69075 
L 153.266277 230.301217 
L 153.567162 230.189914 
L 153.868046 229.371056 
L 154.168931 227.256696 
L 154.469815 227.713682 
L 154.7707 228.45758 
L 155.071585 230.318423 
L 155.372469 228.231909 
L 155.673354 228.704733 
L 155.974239 229.816917 
L 156.275123 227.328838 
L 156.576008 229.306154 
L 156.876893 229.08781 
L 157.177777 229.096743 
L 157.478662 228.487553 
L 157.779547 226.651769 
L 158.080431 227.068503 
L 158.381316 227.917166 
L 158.682201 229.57892 
L 158.983085 227.590814 
L 159.584855 229.2126 
L 159.885739 227.019531 
L 160.186624 228.968399 
L 161.089278 228.694257 
L 161.390163 226.846992 
L 161.691047 227.2954 
L 161.991932 228.242083 
L 162.292817 229.76953 
L 162.593701 227.636689 
L 163.195471 229.474594 
L 163.496355 227.821352 
L 163.79724 229.388656 
L 164.399009 229.261288 
L 164.699894 229.133575 
L 165.000778 227.657345 
L 165.301663 228.026972 
L 165.903432 230.401625 
L 166.204317 228.735569 
L 166.806086 230.139736 
L 167.106971 228.528095 
L 167.407856 230.050121 
L 168.31051 230.068609 
L 168.611394 228.527513 
L 168.912279 228.941627 
L 169.514048 231.232389 
L 169.814933 229.565773 
L 170.416702 230.910979 
L 170.717587 229.332895 
L 171.018472 230.810376 
L 171.319356 230.971879 
L 171.620241 230.864171 
L 171.921126 230.925685 
L 172.22201 229.467186 
L 172.522895 229.857162 
L 173.124664 231.894105 
L 173.425549 230.325996 
L 174.027318 231.548182 
L 174.328203 230.03997 
L 174.629088 231.369801 
L 174.929972 231.475843 
L 175.230857 231.373846 
L 175.531742 231.431962 
L 175.832626 230.161208 
L 176.133511 230.279146 
L 176.73528 232.215842 
L 177.036165 230.602462 
L 177.637934 231.727025 
L 177.938819 230.207759 
L 178.239703 231.523318 
L 178.841473 231.545631 
L 179.142357 231.527948 
L 179.443242 230.173103 
L 179.744127 230.470975 
L 180.345896 232.110736 
L 180.646781 230.643557 
L 181.24855 231.484796 
L 181.549435 230.037753 
L 181.850319 231.371984 
L 182.151204 231.146346 
L 182.752973 231.116849 
L 183.053858 230.114562 
L 183.354743 230.628367 
L 183.956512 232.578804 
L 184.257397 231.317386 
L 184.859166 232.55891 
L 185.160051 231.131538 
L 185.460935 232.718667 
L 186.363589 233.034184 
L 186.664474 231.948662 
L 186.965358 232.523707 
L 187.567128 234.334285 
L 187.868012 233.123519 
L 188.469782 234.493057 
L 188.770666 233.003111 
L 189.071551 234.654776 
L 189.372436 234.733674 
L 189.67332 234.991497 
L 189.974205 234.788058 
L 190.27509 233.798359 
L 190.575974 234.407894 
L 191.177744 236.372662 
L 191.478628 235.228306 
L 192.080398 236.225272 
L 192.381282 234.802907 
L 192.682167 236.339982 
L 192.983052 236.217156 
L 193.283936 236.553944 
L 193.584821 236.467751 
L 193.885706 235.552657 
L 194.18659 236.104058 
L 194.78836 237.780166 
L 195.089244 236.840987 
L 195.691014 237.697865 
L 195.991898 236.355359 
L 196.292783 238.243413 
L 196.593668 238.126102 
L 196.894552 238.25938 
L 197.195437 238.1445 
L 197.496322 237.342738 
L 198.398975 239.501305 
L 198.69986 238.54414 
L 199.000745 238.909151 
L 199.301629 239.47806 
L 199.602514 237.971186 
L 199.903399 239.770496 
L 200.204283 239.576746 
L 200.505168 239.873595 
L 200.806053 239.610587 
L 201.106937 238.887124 
L 202.009591 241.107093 
L 202.310476 240.226223 
L 202.611361 240.784758 
L 202.912245 240.792274 
L 203.21313 239.636843 
L 203.514015 241.298328 
L 203.814899 241.150186 
L 204.115784 241.514813 
L 204.416669 241.215553 
L 204.717553 240.283444 
L 205.018438 241.327395 
L 205.620207 242.673561 
L 205.921092 241.801862 
L 206.522861 242.402561 
L 206.823746 241.112957 
L 207.124631 242.817532 
L 207.425515 242.786356 
L 207.7264 242.98425 
L 208.328169 241.899695 
L 208.629054 242.919825 
L 208.929938 243.247234 
L 209.230823 243.94475 
L 209.531708 243.392928 
L 209.832592 243.596615 
L 210.133477 244.152351 
L 210.434362 242.55865 
L 210.735246 244.358068 
L 211.337016 244.544625 
L 211.938785 243.608142 
L 212.540554 244.877581 
L 212.841439 245.488491 
L 213.142324 245.101464 
L 213.443208 245.202991 
L 213.744093 245.486971 
L 214.044978 244.202427 
L 214.345862 245.771043 
L 214.947632 245.879494 
L 215.248516 245.679038 
L 215.549401 244.918796 
L 216.15117 246.5725 
L 216.452055 246.841624 
L 216.75294 246.448894 
L 217.354709 246.984833 
L 217.655594 245.567658 
L 217.956478 247.432441 
L 218.257363 247.065337 
L 218.558248 247.512777 
L 219.160017 246.531583 
L 219.761786 247.992988 
L 220.062671 248.591516 
L 220.363555 247.664974 
L 220.66444 248.162893 
L 220.965325 248.272479 
L 221.266209 246.882364 
L 221.567094 248.764321 
L 221.867979 248.571846 
L 222.168863 249.008446 
L 222.770633 247.98201 
L 223.673287 250.056677 
L 223.974171 249.309224 
L 224.275056 249.635175 
L 224.575941 249.687219 
L 224.876825 248.421811 
L 225.17771 250.205753 
L 225.478595 249.989682 
L 225.779479 250.066743 
L 226.080364 249.897722 
L 226.381249 248.969418 
L 226.682133 250.414801 
L 227.283903 251.284199 
L 227.584787 250.692762 
L 228.186557 251.022465 
L 228.487441 249.493334 
L 228.788326 251.452627 
L 229.089211 251.393677 
L 229.390095 251.795359 
L 229.991865 250.355306 
L 230.292749 251.767235 
L 230.894518 252.329601 
L 231.195403 252.23755 
L 231.496288 252.269165 
L 231.797172 252.54153 
L 232.098057 250.921676 
L 232.398942 252.895558 
L 232.699826 252.748714 
L 233.000711 253.089766 
L 233.301596 252.671111 
L 233.60248 251.984962 
L 233.903365 252.987045 
L 234.20425 253.176529 
L 234.505134 253.795986 
L 234.806019 253.566029 
L 235.407788 253.697455 
L 235.708673 252.481044 
L 236.009558 254.277071 
L 236.310442 253.982974 
L 236.611327 254.168349 
L 237.213096 253.356534 
L 237.513981 254.759531 
L 237.814866 254.795194 
L 238.11575 255.343862 
L 238.416635 254.696663 
L 238.71752 255.049564 
L 239.018404 255.081717 
L 239.319289 253.815692 
L 239.620174 255.264485 
L 239.921058 255.152976 
L 240.221943 255.565607 
L 240.522828 254.94089 
L 240.823712 254.660279 
L 241.124597 255.717033 
L 241.726366 256.377381 
L 242.027251 256.112406 
L 242.62902 256.652632 
L 242.929905 255.069739 
L 243.230789 256.514889 
L 243.832559 256.842343 
L 244.133443 256.161857 
L 244.434328 256.032314 
L 244.735213 257.111428 
L 245.036097 257.376146 
L 245.336982 257.826184 
L 246.239636 257.412265 
L 246.540521 256.54182 
L 246.841405 258.157575 
L 247.14229 257.80895 
L 247.443175 258.092374 
L 248.044944 257.561107 
L 248.345829 258.464758 
L 248.947598 258.639322 
L 249.549367 259.177003 
L 249.850252 258.661031 
L 250.151137 257.464663 
L 250.452021 259.487916 
L 250.752906 258.921721 
L 251.053791 259.415677 
L 251.354675 258.606745 
L 251.65556 258.457332 
L 251.956445 259.980681 
L 252.257329 259.913088 
L 252.859098 260.261382 
L 253.159983 260.104161 
L 253.460868 260.174474 
L 253.761752 258.762609 
L 254.062637 260.419719 
L 254.363522 260.530435 
L 254.664406 261.000337 
L 254.965291 260.30908 
L 255.266176 259.929124 
L 255.56706 260.844278 
L 256.16883 261.481515 
L 256.469714 261.14009 
L 256.770599 261.623677 
L 257.071484 261.184664 
L 257.372368 259.927345 
L 257.673253 261.208784 
L 257.974138 261.51793 
L 258.275022 262.118397 
L 258.575907 261.01157 
L 258.876792 260.868651 
L 259.177676 262.213446 
L 259.478561 262.404776 
L 259.779446 262.458776 
L 260.08033 262.641068 
L 260.381215 263.117693 
L 260.982984 260.956427 
L 261.283869 263.026583 
L 261.885638 262.998941 
L 262.186523 262.467046 
L 262.487408 262.17218 
L 262.788292 263.094886 
L 263.390062 263.804532 
L 263.690946 263.533797 
L 263.991831 263.480051 
L 264.292715 264.046325 
L 264.5936 262.219371 
L 264.894485 264.093868 
L 265.496254 263.972971 
L 265.797139 263.720631 
L 266.098023 263.626601 
L 266.398908 264.645009 
L 267.000677 264.940711 
L 267.301562 264.774673 
L 267.602447 265.060708 
L 267.903331 264.916666 
L 268.204216 264.190761 
L 268.505101 265.306203 
L 268.805985 264.878562 
L 269.10687 265.414353 
L 269.407755 264.872043 
L 269.708639 264.852304 
L 270.009524 265.773328 
L 270.310409 265.935052 
L 270.611293 266.583054 
L 270.912178 265.992967 
L 271.513947 265.324324 
L 271.814832 264.386619 
L 272.115717 266.284796 
L 272.416601 266.306119 
L 272.717486 266.630556 
L 273.018371 265.553481 
L 273.62014 266.355553 
L 273.921025 267.286975 
L 274.221909 267.606763 
L 274.522794 267.187152 
L 274.823678 267.291543 
L 275.124563 266.73017 
L 275.425448 265.600107 
L 275.726332 267.492189 
L 276.027217 267.413311 
L 276.328102 267.896979 
L 276.628986 266.782343 
L 276.929871 267.037894 
L 277.230756 267.8772 
L 277.832525 268.491079 
L 278.735179 267.753344 
L 279.036064 266.949623 
L 279.336948 268.636745 
L 279.637833 267.924326 
L 279.938718 268.576173 
L 280.239602 267.675309 
L 280.540487 267.865927 
L 280.841372 269.228498 
L 281.142256 269.183101 
L 281.443141 269.609334 
L 281.744026 269.536666 
L 282.04491 269.594338 
L 282.64668 267.759458 
L 282.947564 269.340712 
L 283.248449 269.162216 
L 283.549334 269.592542 
L 283.850218 268.99261 
L 284.151103 268.843092 
L 284.451988 270.128944 
L 285.354642 270.402067 
L 285.956411 270.070373 
L 286.257295 268.496121 
L 286.55818 270.631633 
L 286.859065 270.307123 
L 287.159949 270.808234 
L 287.460834 270.454007 
L 287.761719 269.630475 
L 288.062603 271.460597 
L 288.363488 271.19042 
L 288.664373 271.777027 
L 289.266142 271.500211 
L 289.867911 270.266493 
L 290.168796 271.728714 
L 290.770565 271.606099 
L 291.07145 271.160562 
L 291.372335 271.048414 
L 291.673219 272.444135 
L 291.974104 272.345273 
L 292.274989 272.39367 
L 292.575873 272.723601 
L 292.876758 272.347816 
L 293.177643 272.502719 
L 293.478527 271.223645 
L 293.779412 272.74624 
L 294.080297 272.538932 
L 294.381181 273.092115 
L 294.682066 272.100275 
L 294.982951 272.248564 
L 295.283835 273.77891 
L 295.58472 272.946187 
L 295.885605 273.58572 
L 296.487374 273.813035 
L 297.089143 272.170344 
L 297.390028 273.901253 
L 297.690912 273.535521 
L 297.991797 273.808345 
L 298.292682 272.947375 
L 298.593566 272.864769 
L 298.894451 274.831969 
L 299.195336 274.58549 
L 299.49622 274.804202 
L 299.797105 274.474785 
L 300.09799 274.515687 
L 300.398874 274.095001 
L 300.699759 272.929561 
L 301.000644 274.659602 
L 301.301528 274.536659 
L 301.602413 274.972927 
L 301.903298 273.939472 
L 302.204182 274.138385 
L 302.505067 275.87748 
L 302.805952 275.45208 
L 303.106836 275.809257 
L 303.407721 275.61534 
L 303.708606 275.658789 
L 304.310375 274.601228 
L 304.61126 275.671423 
L 304.912144 275.600148 
L 305.213029 275.799992 
L 305.513914 275.085302 
L 305.814798 275.098504 
L 306.416568 276.385416 
L 306.717452 276.065414 
L 307.018337 276.365166 
L 307.319222 276.834395 
L 307.620106 276.110794 
L 307.920991 274.890576 
L 308.221875 276.668764 
L 308.52276 276.235092 
L 308.823645 276.842629 
L 309.124529 275.762304 
L 310.027183 277.513897 
L 310.328068 277.002279 
L 310.628953 277.293142 
L 310.929837 277.272977 
L 311.230722 276.880061 
L 311.531607 276.206343 
L 311.832491 277.689842 
L 312.133376 277.1429 
L 312.434261 278.000946 
L 312.735145 276.940295 
L 313.03603 276.639259 
L 313.336915 278.311929 
L 313.637799 277.972012 
L 313.938684 277.849688 
L 314.239569 278.357765 
L 314.540453 278.275966 
L 315.142223 277.136897 
L 315.443107 278.876684 
L 315.743992 277.468853 
L 316.044877 278.453492 
L 316.345761 277.647222 
L 316.646646 278.227977 
L 316.947531 279.060426 
L 317.248415 278.900299 
L 317.850185 279.470304 
L 318.151069 279.07211 
L 318.451954 278.121726 
L 318.752838 278.108917 
L 319.053723 279.178124 
L 319.354608 278.847957 
L 319.655492 279.631846 
L 319.956377 278.491987 
L 320.257262 278.804639 
L 320.558146 280.294052 
L 320.859031 279.964301 
L 321.159916 279.962061 
L 321.4608 280.815877 
L 321.761685 279.582396 
L 322.06257 280.057401 
L 322.363454 278.483458 
L 322.664339 280.340224 
L 322.965224 279.851742 
L 323.566993 280.010485 
L 323.867878 279.439537 
L 324.168762 280.88218 
L 324.469647 280.497126 
L 324.770532 280.473987 
L 325.071416 281.309326 
L 325.673186 280.353022 
L 325.97407 279.925411 
L 326.274955 280.878728 
L 326.57584 280.55456 
L 326.876724 280.774807 
L 327.177609 280.094205 
L 327.478494 280.524286 
L 327.779378 282.246814 
L 328.080263 281.759451 
L 328.381148 281.662437 
L 328.682032 282.040747 
L 329.283801 281.575802 
L 329.584686 280.900296 
L 329.885571 281.94678 
L 330.186455 281.84339 
L 330.48734 281.88466 
L 330.788225 281.093706 
L 331.089109 282.193505 
L 331.389994 282.640039 
L 331.690879 282.341694 
L 332.292648 282.643817 
L 332.593533 282.451089 
L 333.195302 280.832518 
L 333.496187 282.802276 
L 333.797071 282.434238 
L 334.097956 282.369916 
L 334.398841 281.746507 
L 334.699725 282.365856 
L 335.00061 283.361817 
L 335.301495 283.049361 
L 335.602379 283.259043 
L 335.903264 283.671539 
L 336.204149 283.338906 
L 336.805918 282.006605 
L 337.106803 283.365432 
L 337.708572 283.471994 
L 338.009457 282.103766 
L 338.310341 282.686999 
L 338.611226 284.432065 
L 338.912111 284.482116 
L 339.212995 283.963231 
L 339.51388 284.499795 
L 339.814765 284.046905 
L 340.416534 282.554556 
L 340.717418 283.708458 
L 341.018303 284.217585 
L 341.319188 284.406977 
L 341.620072 283.754674 
L 341.920957 283.57633 
L 342.221842 285.101161 
L 342.522726 284.63022 
L 342.823611 284.517893 
L 343.124496 284.997238 
L 343.726265 284.663274 
L 344.02715 283.386927 
L 344.328034 284.70352 
L 344.628919 284.710328 
L 344.929804 284.963326 
L 345.230688 284.123673 
L 345.531573 284.334975 
L 345.832458 285.855907 
L 346.434227 285.755693 
L 346.735112 286.08996 
L 347.035996 285.748392 
L 347.637766 284.320975 
L 347.93865 285.674152 
L 348.239535 285.32822 
L 348.54042 285.94322 
L 349.142189 285.122289 
L 349.443074 286.94643 
L 349.743958 286.66933 
L 350.044843 286.779752 
L 350.345728 287.336499 
L 350.646612 286.078282 
L 350.947497 286.098785 
L 351.248381 285.18735 
L 351.549266 286.835564 
L 351.850151 286.294309 
L 352.151035 286.638409 
L 352.45192 285.679516 
L 352.752805 285.642121 
L 353.053689 287.484497 
L 353.354574 286.583753 
L 353.655459 287.397598 
L 353.956343 287.284522 
L 354.257228 287.652357 
L 354.558113 286.36201 
L 354.858997 285.664073 
L 355.159882 287.305077 
L 355.460767 286.90957 
L 355.761651 287.333713 
L 356.062536 286.314779 
L 356.363421 287.030031 
L 356.664305 288.535092 
L 356.96519 287.816341 
L 357.266075 287.515467 
L 357.867844 287.913757 
L 358.469613 286.168446 
L 358.770498 287.956691 
L 359.071383 287.660101 
L 359.372267 288.409314 
L 359.974037 287.450448 
L 360.274921 288.863624 
L 360.575806 288.732727 
L 360.876691 288.924315 
L 361.177575 288.921017 
L 362.080229 287.18577 
L 362.381114 288.42226 
L 362.681998 288.50372 
L 362.982883 288.409678 
L 363.283768 288.616183 
L 363.584652 287.376082 
L 363.885537 289.450705 
L 364.487306 288.83017 
L 364.788191 289.853817 
L 365.089076 288.98915 
L 365.690845 288.177052 
L 365.99173 289.205265 
L 366.292614 288.87892 
L 367.195268 288.748453 
L 367.496153 290.397545 
L 367.797038 290.084899 
L 368.398807 290.348687 
L 368.699692 289.759462 
L 369.000576 289.486174 
L 369.301461 288.861088 
L 369.602346 290.33636 
L 369.90323 289.725034 
L 370.204115 289.759918 
L 370.505 289.271122 
L 370.805884 289.558764 
L 371.106769 290.600708 
L 371.407654 290.316363 
L 372.009423 290.53748 
L 372.310308 289.999312 
L 372.611192 289.906731 
L 372.912077 289.688947 
L 373.513846 290.577274 
L 373.814731 290.281108 
L 374.115615 289.791646 
L 374.4165 290.149786 
L 374.717385 291.003887 
L 375.018269 291.465553 
L 375.319154 290.699599 
L 375.620039 291.588292 
L 375.920923 290.940903 
L 376.221808 290.805626 
L 376.522693 289.341385 
L 376.823577 290.725583 
L 377.124462 291.309282 
L 377.425347 291.050244 
L 377.726231 290.446129 
L 378.027116 290.446006 
L 378.328001 292.360174 
L 378.628885 292.13933 
L 378.92977 292.170605 
L 379.230655 291.936841 
L 379.531539 291.333004 
L 379.832424 291.462455 
L 380.133309 290.507304 
L 380.434193 291.990106 
L 380.735078 291.103223 
L 381.035963 291.98548 
L 381.336847 291.384915 
L 381.637732 291.383753 
L 381.938617 293.07345 
L 382.239501 292.477995 
L 382.540386 292.202241 
L 382.841271 292.853139 
L 383.142155 292.027227 
L 383.44304 292.364956 
L 383.743925 291.061772 
L 384.044809 292.309987 
L 384.345694 292.459255 
L 384.646578 292.431002 
L 384.947463 291.459367 
L 385.248348 291.814152 
L 385.549232 293.900487 
L 385.850117 293.001146 
L 386.151002 293.074156 
L 386.451886 293.524902 
L 386.752771 293.287219 
L 387.053656 292.533888 
L 387.35454 292.281345 
L 387.655425 293.377846 
L 387.95631 292.622856 
L 388.257194 292.476495 
L 388.558079 292.478661 
L 388.858964 292.830288 
L 389.159848 293.899852 
L 389.460733 293.97163 
L 389.761618 293.645777 
L 390.363387 293.624343 
L 390.965156 292.153198 
L 391.266041 293.661959 
L 391.86781 293.461275 
L 392.168695 292.94758 
L 392.46958 293.451772 
L 392.770464 294.277709 
L 393.071349 293.796266 
L 393.372234 293.89984 
L 393.673118 294.642329 
L 393.974003 293.994681 
L 394.575772 293.202639 
L 394.876657 294.426502 
L 395.177541 293.951754 
L 395.478426 293.894414 
L 395.779311 293.498819 
L 396.080195 293.889213 
L 396.38108 295.488 
L 396.681965 294.61679 
L 396.982849 294.228481 
L 397.283734 295.00721 
L 398.186388 293.974214 
L 398.487273 294.74461 
L 398.487273 294.74461 
" clip-path="url(#p0392db3e7b)" style="fill: none; stroke: #dc143c; stroke-width: 2; stroke-linecap: square"/>
   </g>
   <g id="line2d_31">
    <path d="M 73.832727 186.255846 
L 77.142459 186.255846 
L 77.443343 186.827031 
L 80.753074 186.827031 
L 81.053959 187.085995 
L 91.584922 187.036334 
L 91.885807 186.879652 
L 95.195538 186.879652 
L 95.496423 186.699732 
L 98.806154 186.699732 
L 99.107039 186.552944 
L 109.638002 186.53219 
L 109.938886 186.672897 
L 113.248617 186.672897 
L 113.549502 186.89961 
L 116.859233 186.89961 
L 117.160118 187.186589 
L 120.469849 187.186589 
L 120.770734 187.512791 
L 124.080465 187.512791 
L 124.38135 187.854677 
L 127.691081 187.854677 
L 127.991966 188.180729 
L 131.301697 188.180729 
L 131.602582 188.527319 
L 134.912313 188.527319 
L 135.213197 188.887365 
L 138.522929 188.887365 
L 138.823813 189.5051 
L 142.133545 189.5051 
L 142.434429 191.179284 
L 145.74416 191.179284 
L 146.045045 193.435635 
L 149.354776 193.435635 
L 149.655661 194.701912 
L 152.965392 194.701912 
L 153.266277 195.496774 
L 156.576008 195.496774 
L 156.876893 196.124853 
L 160.186624 196.124853 
L 160.487509 196.603371 
L 163.79724 196.603371 
L 164.098125 196.980882 
L 167.407856 196.980882 
L 167.70874 197.186681 
L 174.629088 197.294219 
L 175.531742 197.345668 
L 181.850319 197.374827 
L 182.151204 197.168044 
L 185.460935 197.168044 
L 185.76182 196.760016 
L 189.071551 196.760016 
L 189.372436 196.497548 
L 192.682167 196.497548 
L 192.983052 196.261409 
L 210.735246 196.341428 
L 211.036131 196.559089 
L 214.345862 196.559089 
L 214.646747 196.813199 
L 217.956478 196.813199 
L 218.257363 197.188845 
L 221.567094 197.188845 
L 221.867979 197.606225 
L 225.17771 197.606225 
L 225.478595 198.132501 
L 228.788326 198.132501 
L 229.089211 198.617137 
L 232.398942 198.617137 
L 232.699826 199.176535 
L 236.009558 199.176535 
L 236.310442 199.849814 
L 239.620174 199.849814 
L 239.921058 200.513302 
L 243.230789 200.513302 
L 243.531674 201.148446 
L 246.841405 201.148446 
L 247.14229 201.804512 
L 250.452021 201.804512 
L 250.752906 202.557716 
L 254.062637 202.557716 
L 254.363522 203.400308 
L 257.673253 203.400308 
L 257.974138 203.999735 
L 261.283869 203.999735 
L 261.584754 204.710193 
L 264.894485 204.710193 
L 265.195369 205.376576 
L 268.505101 205.376576 
L 268.805985 206.2126 
L 272.115717 206.2126 
L 272.416601 206.903401 
L 275.726332 206.903401 
L 276.027217 207.596282 
L 279.336948 207.596282 
L 279.637833 208.420828 
L 282.947564 208.420828 
L 283.248449 209.057489 
L 286.55818 209.057489 
L 286.859065 209.68986 
L 290.168796 209.68986 
L 290.469681 210.342666 
L 293.779412 210.342666 
L 294.080297 210.980771 
L 297.390028 210.980771 
L 297.690912 211.714176 
L 301.000644 211.714176 
L 301.301528 212.270848 
L 304.61126 212.270848 
L 304.912144 212.920833 
L 308.221875 212.920833 
L 308.52276 213.4853 
L 311.832491 213.4853 
L 312.133376 214.02535 
L 315.443107 214.02535 
L 315.743992 214.736418 
L 319.053723 214.736418 
L 319.354608 215.278931 
L 322.664339 215.278931 
L 322.965224 215.885197 
L 326.274955 215.885197 
L 326.57584 216.387055 
L 329.885571 216.387055 
L 330.186455 216.968819 
L 333.496187 216.968819 
L 333.797071 217.55018 
L 337.106803 217.55018 
L 337.407687 218.234 
L 340.717418 218.234 
L 341.018303 218.668321 
L 344.328034 218.668321 
L 344.628919 219.077389 
L 347.93865 219.077389 
L 348.239535 219.434118 
L 351.549266 219.434118 
L 351.850151 220.028184 
L 355.159882 220.028184 
L 355.460767 220.52561 
L 358.770498 220.52561 
L 359.071383 221.041167 
L 362.381114 221.041167 
L 362.681998 221.454124 
L 365.99173 221.454124 
L 366.292614 221.759983 
L 369.602346 221.759983 
L 369.90323 222.391258 
L 373.212961 222.391258 
L 373.513846 222.944903 
L 376.823577 222.944903 
L 377.124462 223.115687 
L 380.434193 223.115687 
L 380.735078 223.626886 
L 384.044809 223.626886 
L 384.345694 223.833398 
L 387.655425 223.833398 
L 387.95631 224.394154 
L 391.266041 224.394154 
L 391.566926 224.691047 
L 394.876657 224.691047 
L 395.177541 225.078312 
L 398.487273 225.078312 
L 398.487273 225.078312 
" clip-path="url(#p0392db3e7b)" style="fill: none; stroke: #ffff00; stroke-width: 3; stroke-linecap: square"/>
   </g>
   <g id="patch_3">
    <path d="M 57.6 307.584 
L 57.6 41.472 
" style="fill: none; stroke: #ffffff; stroke-linejoin: miter; stroke-linecap: square"/>
   </g>
   <g id="patch_4">
    <path d="M 414.72 307.584 
L 414.72 41.472 
" style="fill: none; stroke: #ffffff; stroke-linejoin: miter; stroke-linecap: square"/>
   </g>
   <g id="patch_5">
    <path d="M 57.6 307.584 
L 414.72 307.584 
" style="fill: none; stroke: #ffffff; stroke-linejoin: miter; stroke-linecap: square"/>
   </g>
   <g id="patch_6">
    <path d="M 57.6 41.472 
L 414.72 41.472 
" style="fill: none; stroke: #ffffff; stroke-linejoin: miter; stroke-linecap: square"/>
   </g>
   <g id="legend_1">
    <g id="patch_7">
     <path d="M 243.124687 302.584 
L 407.72 302.584 
Q 409.72 302.584 409.72 300.584 
L 409.72 257.549625 
Q 409.72 255.549625 407.72 255.549625 
L 243.124687 255.549625 
Q 241.124687 255.549625 241.124687 257.549625 
L 241.124687 300.584 
Q 241.124687 302.584 243.124687 302.584 
z
" style="fill: #e5e5e5; opacity: 0.8; stroke: #cccccc; stroke-width: 0.5; stroke-linejoin: miter"/>
    </g>
    <g id="line2d_32">
     <path d="M 245.124687 263.648062 
L 255.124687 263.648062 
L 265.124687 263.648062 
" style="fill: none; stroke: #6495ed; stroke-width: 2; stroke-linecap: square"/>
    </g>
    <g id="text_17">
     <!-- Generator loss -->
     <g transform="translate(273.124687 267.148062) scale(0.1 -0.1)">
      <defs>
       <path id="DejaVuSans-47" d="M 3809 666 
L 3809 1919 
L 2778 1919 
L 2778 2438 
L 4434 2438 
L 4434 434 
Q 4069 175 3628 42 
Q 3188 -91 2688 -91 
Q 1594 -91 976 548 
Q 359 1188 359 2328 
Q 359 3472 976 4111 
Q 1594 4750 2688 4750 
Q 3144 4750 3555 4637 
Q 3966 4525 4313 4306 
L 4313 3634 
Q 3963 3931 3569 4081 
Q 3175 4231 2741 4231 
Q 1884 4231 1454 3753 
Q 1025 3275 1025 2328 
Q 1025 1384 1454 906 
Q 1884 428 2741 428 
Q 3075 428 3337 486 
Q 3600 544 3809 666 
z
" transform="scale(0.015625)"/>
       <path id="DejaVuSans-65" d="M 3597 1894 
L 3597 1613 
L 953 1613 
Q 991 1019 1311 708 
Q 1631 397 2203 397 
Q 2534 397 2845 478 
Q 3156 559 3463 722 
L 3463 178 
Q 3153 47 2828 -22 
Q 2503 -91 2169 -91 
Q 1331 -91 842 396 
Q 353 884 353 1716 
Q 353 2575 817 3079 
Q 1281 3584 2069 3584 
Q 2775 3584 3186 3129 
Q 3597 2675 3597 1894 
z
M 3022 2063 
Q 3016 2534 2758 2815 
Q 2500 3097 2075 3097 
Q 1594 3097 1305 2825 
Q 1016 2553 972 2059 
L 3022 2063 
z
" transform="scale(0.015625)"/>
       <path id="DejaVuSans-6e" d="M 3513 2113 
L 3513 0 
L 2938 0 
L 2938 2094 
Q 2938 2591 2744 2837 
Q 2550 3084 2163 3084 
Q 1697 3084 1428 2787 
Q 1159 2491 1159 1978 
L 1159 0 
L 581 0 
L 581 3500 
L 1159 3500 
L 1159 2956 
Q 1366 3272 1645 3428 
Q 1925 3584 2291 3584 
Q 2894 3584 3203 3211 
Q 3513 2838 3513 2113 
z
" transform="scale(0.015625)"/>
       <path id="DejaVuSans-72" d="M 2631 2963 
Q 2534 3019 2420 3045 
Q 2306 3072 2169 3072 
Q 1681 3072 1420 2755 
Q 1159 2438 1159 1844 
L 1159 0 
L 581 0 
L 581 3500 
L 1159 3500 
L 1159 2956 
Q 1341 3275 1631 3429 
Q 1922 3584 2338 3584 
Q 2397 3584 2469 3576 
Q 2541 3569 2628 3553 
L 2631 2963 
z
" transform="scale(0.015625)"/>
       <path id="DejaVuSans-61" d="M 2194 1759 
Q 1497 1759 1228 1600 
Q 959 1441 959 1056 
Q 959 750 1161 570 
Q 1363 391 1709 391 
Q 2188 391 2477 730 
Q 2766 1069 2766 1631 
L 2766 1759 
L 2194 1759 
z
M 3341 1997 
L 3341 0 
L 2766 0 
L 2766 531 
Q 2569 213 2275 61 
Q 1981 -91 1556 -91 
Q 1019 -91 701 211 
Q 384 513 384 1019 
Q 384 1609 779 1909 
Q 1175 2209 1959 2209 
L 2766 2209 
L 2766 2266 
Q 2766 2663 2505 2880 
Q 2244 3097 1772 3097 
Q 1472 3097 1187 3025 
Q 903 2953 641 2809 
L 641 3341 
Q 956 3463 1253 3523 
Q 1550 3584 1831 3584 
Q 2591 3584 2966 3190 
Q 3341 2797 3341 1997 
z
" transform="scale(0.015625)"/>
       <path id="DejaVuSans-74" d="M 1172 4494 
L 1172 3500 
L 2356 3500 
L 2356 3053 
L 1172 3053 
L 1172 1153 
Q 1172 725 1289 603 
Q 1406 481 1766 481 
L 2356 481 
L 2356 0 
L 1766 0 
Q 1100 0 847 248 
Q 594 497 594 1153 
L 594 3053 
L 172 3053 
L 172 3500 
L 594 3500 
L 594 4494 
L 1172 4494 
z
" transform="scale(0.015625)"/>
       <path id="DejaVuSans-20" transform="scale(0.015625)"/>
       <path id="DejaVuSans-6c" d="M 603 4863 
L 1178 4863 
L 1178 0 
L 603 0 
L 603 4863 
z
" transform="scale(0.015625)"/>
      </defs>
      <use xlink:href="#DejaVuSans-47"/>
      <use xlink:href="#DejaVuSans-65" x="77.490234"/>
      <use xlink:href="#DejaVuSans-6e" x="139.013672"/>
      <use xlink:href="#DejaVuSans-65" x="202.392578"/>
      <use xlink:href="#DejaVuSans-72" x="263.916016"/>
      <use xlink:href="#DejaVuSans-61" x="305.029297"/>
      <use xlink:href="#DejaVuSans-74" x="366.308594"/>
      <use xlink:href="#DejaVuSans-6f" x="405.517578"/>
      <use xlink:href="#DejaVuSans-72" x="466.699219"/>
      <use xlink:href="#DejaVuSans-20" x="507.8125"/>
      <use xlink:href="#DejaVuSans-6c" x="539.599609"/>
      <use xlink:href="#DejaVuSans-6f" x="567.382812"/>
      <use xlink:href="#DejaVuSans-73" x="628.564453"/>
      <use xlink:href="#DejaVuSans-73" x="680.664062"/>
     </g>
    </g>
    <g id="line2d_33">
     <path d="M 245.124687 278.326188 
L 255.124687 278.326188 
L 265.124687 278.326188 
" style="fill: none; stroke: #dc143c; stroke-width: 2; stroke-linecap: square"/>
    </g>
    <g id="text_18">
     <!-- Average discriminator loss -->
     <g transform="translate(273.124687 281.826188) scale(0.1 -0.1)">
      <defs>
       <path id="DejaVuSans-41" d="M 2188 4044 
L 1331 1722 
L 3047 1722 
L 2188 4044 
z
M 1831 4666 
L 2547 4666 
L 4325 0 
L 3669 0 
L 3244 1197 
L 1141 1197 
L 716 0 
L 50 0 
L 1831 4666 
z
" transform="scale(0.015625)"/>
       <path id="DejaVuSans-76" d="M 191 3500 
L 800 3500 
L 1894 563 
L 2988 3500 
L 3597 3500 
L 2284 0 
L 1503 0 
L 191 3500 
z
" transform="scale(0.015625)"/>
       <path id="DejaVuSans-67" d="M 2906 1791 
Q 2906 2416 2648 2759 
Q 2391 3103 1925 3103 
Q 1463 3103 1205 2759 
Q 947 2416 947 1791 
Q 947 1169 1205 825 
Q 1463 481 1925 481 
Q 2391 481 2648 825 
Q 2906 1169 2906 1791 
z
M 3481 434 
Q 3481 -459 3084 -895 
Q 2688 -1331 1869 -1331 
Q 1566 -1331 1297 -1286 
Q 1028 -1241 775 -1147 
L 775 -588 
Q 1028 -725 1275 -790 
Q 1522 -856 1778 -856 
Q 2344 -856 2625 -561 
Q 2906 -266 2906 331 
L 2906 616 
Q 2728 306 2450 153 
Q 2172 0 1784 0 
Q 1141 0 747 490 
Q 353 981 353 1791 
Q 353 2603 747 3093 
Q 1141 3584 1784 3584 
Q 2172 3584 2450 3431 
Q 2728 3278 2906 2969 
L 2906 3500 
L 3481 3500 
L 3481 434 
z
" transform="scale(0.015625)"/>
       <path id="DejaVuSans-64" d="M 2906 2969 
L 2906 4863 
L 3481 4863 
L 3481 0 
L 2906 0 
L 2906 525 
Q 2725 213 2448 61 
Q 2172 -91 1784 -91 
Q 1150 -91 751 415 
Q 353 922 353 1747 
Q 353 2572 751 3078 
Q 1150 3584 1784 3584 
Q 2172 3584 2448 3432 
Q 2725 3281 2906 2969 
z
M 947 1747 
Q 947 1113 1208 752 
Q 1469 391 1925 391 
Q 2381 391 2643 752 
Q 2906 1113 2906 1747 
Q 2906 2381 2643 2742 
Q 2381 3103 1925 3103 
Q 1469 3103 1208 2742 
Q 947 2381 947 1747 
z
" transform="scale(0.015625)"/>
       <path id="DejaVuSans-69" d="M 603 3500 
L 1178 3500 
L 1178 0 
L 603 0 
L 603 3500 
z
M 603 4863 
L 1178 4863 
L 1178 4134 
L 603 4134 
L 603 4863 
z
" transform="scale(0.015625)"/>
       <path id="DejaVuSans-6d" d="M 3328 2828 
Q 3544 3216 3844 3400 
Q 4144 3584 4550 3584 
Q 5097 3584 5394 3201 
Q 5691 2819 5691 2113 
L 5691 0 
L 5113 0 
L 5113 2094 
Q 5113 2597 4934 2840 
Q 4756 3084 4391 3084 
Q 3944 3084 3684 2787 
Q 3425 2491 3425 1978 
L 3425 0 
L 2847 0 
L 2847 2094 
Q 2847 2600 2669 2842 
Q 2491 3084 2119 3084 
Q 1678 3084 1418 2786 
Q 1159 2488 1159 1978 
L 1159 0 
L 581 0 
L 581 3500 
L 1159 3500 
L 1159 2956 
Q 1356 3278 1631 3431 
Q 1906 3584 2284 3584 
Q 2666 3584 2933 3390 
Q 3200 3197 3328 2828 
z
" transform="scale(0.015625)"/>
      </defs>
      <use xlink:href="#DejaVuSans-41"/>
      <use xlink:href="#DejaVuSans-76" x="62.533203"/>
      <use xlink:href="#DejaVuSans-65" x="121.712891"/>
      <use xlink:href="#DejaVuSans-72" x="183.236328"/>
      <use xlink:href="#DejaVuSans-61" x="224.349609"/>
      <use xlink:href="#DejaVuSans-67" x="285.628906"/>
      <use xlink:href="#DejaVuSans-65" x="349.105469"/>
      <use xlink:href="#DejaVuSans-20" x="410.628906"/>
      <use xlink:href="#DejaVuSans-64" x="442.416016"/>
      <use xlink:href="#DejaVuSans-69" x="505.892578"/>
      <use xlink:href="#DejaVuSans-73" x="533.675781"/>
      <use xlink:href="#DejaVuSans-63" x="585.775391"/>
      <use xlink:href="#DejaVuSans-72" x="640.755859"/>
      <use xlink:href="#DejaVuSans-69" x="681.869141"/>
      <use xlink:href="#DejaVuSans-6d" x="709.652344"/>
      <use xlink:href="#DejaVuSans-69" x="807.064453"/>
      <use xlink:href="#DejaVuSans-6e" x="834.847656"/>
      <use xlink:href="#DejaVuSans-61" x="898.226562"/>
      <use xlink:href="#DejaVuSans-74" x="959.505859"/>
      <use xlink:href="#DejaVuSans-6f" x="998.714844"/>
      <use xlink:href="#DejaVuSans-72" x="1059.896484"/>
      <use xlink:href="#DejaVuSans-20" x="1101.009766"/>
      <use xlink:href="#DejaVuSans-6c" x="1132.796875"/>
      <use xlink:href="#DejaVuSans-6f" x="1160.580078"/>
      <use xlink:href="#DejaVuSans-73" x="1221.761719"/>
      <use xlink:href="#DejaVuSans-73" x="1273.861328"/>
     </g>
    </g>
    <g id="line2d_34">
     <path d="M 245.124687 293.004312 
L 255.124687 293.004312 
L 265.124687 293.004312 
" style="fill: none; stroke: #ffff00; stroke-width: 3; stroke-linecap: square"/>
    </g>
    <g id="text_19">
     <!-- ROC AUC -->
     <g transform="translate(273.124687 296.504312) scale(0.1 -0.1)">
      <defs>
       <path id="DejaVuSans-52" d="M 2841 2188 
Q 3044 2119 3236 1894 
Q 3428 1669 3622 1275 
L 4263 0 
L 3584 0 
L 2988 1197 
Q 2756 1666 2539 1819 
Q 2322 1972 1947 1972 
L 1259 1972 
L 1259 0 
L 628 0 
L 628 4666 
L 2053 4666 
Q 2853 4666 3247 4331 
Q 3641 3997 3641 3322 
Q 3641 2881 3436 2590 
Q 3231 2300 2841 2188 
z
M 1259 4147 
L 1259 2491 
L 2053 2491 
Q 2509 2491 2742 2702 
Q 2975 2913 2975 3322 
Q 2975 3731 2742 3939 
Q 2509 4147 2053 4147 
L 1259 4147 
z
" transform="scale(0.015625)"/>
       <path id="DejaVuSans-4f" d="M 2522 4238 
Q 1834 4238 1429 3725 
Q 1025 3213 1025 2328 
Q 1025 1447 1429 934 
Q 1834 422 2522 422 
Q 3209 422 3611 934 
Q 4013 1447 4013 2328 
Q 4013 3213 3611 3725 
Q 3209 4238 2522 4238 
z
M 2522 4750 
Q 3503 4750 4090 4092 
Q 4678 3434 4678 2328 
Q 4678 1225 4090 567 
Q 3503 -91 2522 -91 
Q 1538 -91 948 565 
Q 359 1222 359 2328 
Q 359 3434 948 4092 
Q 1538 4750 2522 4750 
z
" transform="scale(0.015625)"/>
       <path id="DejaVuSans-43" d="M 4122 4306 
L 4122 3641 
Q 3803 3938 3442 4084 
Q 3081 4231 2675 4231 
Q 1875 4231 1450 3742 
Q 1025 3253 1025 2328 
Q 1025 1406 1450 917 
Q 1875 428 2675 428 
Q 3081 428 3442 575 
Q 3803 722 4122 1019 
L 4122 359 
Q 3791 134 3420 21 
Q 3050 -91 2638 -91 
Q 1578 -91 968 557 
Q 359 1206 359 2328 
Q 359 3453 968 4101 
Q 1578 4750 2638 4750 
Q 3056 4750 3426 4639 
Q 3797 4528 4122 4306 
z
" transform="scale(0.015625)"/>
       <path id="DejaVuSans-55" d="M 556 4666 
L 1191 4666 
L 1191 1831 
Q 1191 1081 1462 751 
Q 1734 422 2344 422 
Q 2950 422 3222 751 
Q 3494 1081 3494 1831 
L 3494 4666 
L 4128 4666 
L 4128 1753 
Q 4128 841 3676 375 
Q 3225 -91 2344 -91 
Q 1459 -91 1007 375 
Q 556 841 556 1753 
L 556 4666 
z
" transform="scale(0.015625)"/>
      </defs>
      <use xlink:href="#DejaVuSans-52"/>
      <use xlink:href="#DejaVuSans-4f" x="69.482422"/>
      <use xlink:href="#DejaVuSans-43" x="148.193359"/>
      <use xlink:href="#DejaVuSans-20" x="218.017578"/>
      <use xlink:href="#DejaVuSans-41" x="249.804688"/>
      <use xlink:href="#DejaVuSans-55" x="318.212891"/>
      <use xlink:href="#DejaVuSans-43" x="391.40625"/>
     </g>
    </g>
   </g>
  </g>
 </g>
 <defs>
  <clipPath id="p0392db3e7b">
   <rect x="57.6" y="41.472" width="357.12" height="266.112"/>
  </clipPath>
 </defs>
</svg>
