<?xml version="1.0" encoding="utf-8" standalone="no"?>
<!DOCTYPE svg PUBLIC "-//W3C//DTD SVG 1.1//EN"
  "http://www.w3.org/Graphics/SVG/1.1/DTD/svg11.dtd">
<svg xmlns:xlink="http://www.w3.org/1999/xlink" width="460.8pt" height="345.6pt" viewBox="0 0 460.8 345.6" xmlns="http://www.w3.org/2000/svg" version="1.1">
 <metadata>
  <rdf:RDF xmlns:dc="http://purl.org/dc/elements/1.1/" xmlns:cc="http://creativecommons.org/ns#" xmlns:rdf="http://www.w3.org/1999/02/22-rdf-syntax-ns#">
   <cc:Work>
    <dc:type rdf:resource="http://purl.org/dc/dcmitype/StillImage"/>
    <dc:date>2023-07-11T11:27:18.088665</dc:date>
    <dc:format>image/svg+xml</dc:format>
    <dc:creator>
     <cc:Agent>
      <dc:title>Matplotlib v3.7.1, https://matplotlib.org/</dc:title>
     </cc:Agent>
    </dc:creator>
   </cc:Work>
  </rdf:RDF>
 </metadata>
 <defs>
  <style type="text/css">*{stroke-linejoin: round; stroke-linecap: butt}</style>
 </defs>
 <g id="figure_1">
  <g id="patch_1">
   <path d="M 0 345.6 
L 460.8 345.6 
L 460.8 0 
L 0 0 
z
" style="fill: #ffffff"/>
  </g>
  <g id="axes_1">
   <g id="patch_2">
    <path d="M 57.6 307.584 
L 414.72 307.584 
L 414.72 41.472 
L 57.6 41.472 
z
" style="fill: #e5e5e5"/>
   </g>
   <g id="matplotlib.axis_1">
    <g id="xtick_1">
     <g id="line2d_1">
      <path d="M 73.531843 307.584 
L 73.531843 41.472 
" clip-path="url(#p0449f48365)" style="fill: none; stroke: #ffffff; stroke-width: 0.8; stroke-linecap: square"/>
     </g>
     <g id="line2d_2">
      <defs>
       <path id="mea041067d9" d="M 0 0 
L 0 3.5 
" style="stroke: #555555; stroke-width: 0.8"/>
      </defs>
      <g>
       <use xlink:href="#mea041067d9" x="73.531843" y="307.584" style="fill: #555555; stroke: #555555; stroke-width: 0.8"/>
      </g>
     </g>
     <g id="text_1">
      <!-- 0 -->
      <g style="fill: #555555" transform="translate(70.350593 322.182437) scale(0.1 -0.1)">
       <defs>
        <path id="DejaVuSans-30" d="M 2034 4250 
Q 1547 4250 1301 3770 
Q 1056 3291 1056 2328 
Q 1056 1369 1301 889 
Q 1547 409 2034 409 
Q 2525 409 2770 889 
Q 3016 1369 3016 2328 
Q 3016 3291 2770 3770 
Q 2525 4250 2034 4250 
z
M 2034 4750 
Q 2819 4750 3233 4129 
Q 3647 3509 3647 2328 
Q 3647 1150 3233 529 
Q 2819 -91 2034 -91 
Q 1250 -91 836 529 
Q 422 1150 422 2328 
Q 422 3509 836 4129 
Q 1250 4750 2034 4750 
z
" transform="scale(0.015625)"/>
       </defs>
       <use xlink:href="#DejaVuSans-30"/>
      </g>
     </g>
    </g>
    <g id="xtick_2">
     <g id="line2d_3">
      <path d="M 133.708774 307.584 
L 133.708774 41.472 
" clip-path="url(#p0449f48365)" style="fill: none; stroke: #ffffff; stroke-width: 0.8; stroke-linecap: square"/>
     </g>
     <g id="line2d_4">
      <g>
       <use xlink:href="#mea041067d9" x="133.708774" y="307.584" style="fill: #555555; stroke: #555555; stroke-width: 0.8"/>
      </g>
     </g>
     <g id="text_2">
      <!-- 200 -->
      <g style="fill: #555555" transform="translate(124.165024 322.182437) scale(0.1 -0.1)">
       <defs>
        <path id="DejaVuSans-32" d="M 1228 531 
L 3431 531 
L 3431 0 
L 469 0 
L 469 531 
Q 828 903 1448 1529 
Q 2069 2156 2228 2338 
Q 2531 2678 2651 2914 
Q 2772 3150 2772 3378 
Q 2772 3750 2511 3984 
Q 2250 4219 1831 4219 
Q 1534 4219 1204 4116 
Q 875 4013 500 3803 
L 500 4441 
Q 881 4594 1212 4672 
Q 1544 4750 1819 4750 
Q 2544 4750 2975 4387 
Q 3406 4025 3406 3419 
Q 3406 3131 3298 2873 
Q 3191 2616 2906 2266 
Q 2828 2175 2409 1742 
Q 1991 1309 1228 531 
z
" transform="scale(0.015625)"/>
       </defs>
       <use xlink:href="#DejaVuSans-32"/>
       <use xlink:href="#DejaVuSans-30" x="63.623047"/>
       <use xlink:href="#DejaVuSans-30" x="127.246094"/>
      </g>
     </g>
    </g>
    <g id="xtick_3">
     <g id="line2d_5">
      <path d="M 193.885706 307.584 
L 193.885706 41.472 
" clip-path="url(#p0449f48365)" style="fill: none; stroke: #ffffff; stroke-width: 0.8; stroke-linecap: square"/>
     </g>
     <g id="line2d_6">
      <g>
       <use xlink:href="#mea041067d9" x="193.885706" y="307.584" style="fill: #555555; stroke: #555555; stroke-width: 0.8"/>
      </g>
     </g>
     <g id="text_3">
      <!-- 400 -->
      <g style="fill: #555555" transform="translate(184.341956 322.182437) scale(0.1 -0.1)">
       <defs>
        <path id="DejaVuSans-34" d="M 2419 4116 
L 825 1625 
L 2419 1625 
L 2419 4116 
z
M 2253 4666 
L 3047 4666 
L 3047 1625 
L 3713 1625 
L 3713 1100 
L 3047 1100 
L 3047 0 
L 2419 0 
L 2419 1100 
L 313 1100 
L 313 1709 
L 2253 4666 
z
" transform="scale(0.015625)"/>
       </defs>
       <use xlink:href="#DejaVuSans-34"/>
       <use xlink:href="#DejaVuSans-30" x="63.623047"/>
       <use xlink:href="#DejaVuSans-30" x="127.246094"/>
      </g>
     </g>
    </g>
    <g id="xtick_4">
     <g id="line2d_7">
      <path d="M 254.062637 307.584 
L 254.062637 41.472 
" clip-path="url(#p0449f48365)" style="fill: none; stroke: #ffffff; stroke-width: 0.8; stroke-linecap: square"/>
     </g>
     <g id="line2d_8">
      <g>
       <use xlink:href="#mea041067d9" x="254.062637" y="307.584" style="fill: #555555; stroke: #555555; stroke-width: 0.8"/>
      </g>
     </g>
     <g id="text_4">
      <!-- 600 -->
      <g style="fill: #555555" transform="translate(244.518887 322.182437) scale(0.1 -0.1)">
       <defs>
        <path id="DejaVuSans-36" d="M 2113 2584 
Q 1688 2584 1439 2293 
Q 1191 2003 1191 1497 
Q 1191 994 1439 701 
Q 1688 409 2113 409 
Q 2538 409 2786 701 
Q 3034 994 3034 1497 
Q 3034 2003 2786 2293 
Q 2538 2584 2113 2584 
z
M 3366 4563 
L 3366 3988 
Q 3128 4100 2886 4159 
Q 2644 4219 2406 4219 
Q 1781 4219 1451 3797 
Q 1122 3375 1075 2522 
Q 1259 2794 1537 2939 
Q 1816 3084 2150 3084 
Q 2853 3084 3261 2657 
Q 3669 2231 3669 1497 
Q 3669 778 3244 343 
Q 2819 -91 2113 -91 
Q 1303 -91 875 529 
Q 447 1150 447 2328 
Q 447 3434 972 4092 
Q 1497 4750 2381 4750 
Q 2619 4750 2861 4703 
Q 3103 4656 3366 4563 
z
" transform="scale(0.015625)"/>
       </defs>
       <use xlink:href="#DejaVuSans-36"/>
       <use xlink:href="#DejaVuSans-30" x="63.623047"/>
       <use xlink:href="#DejaVuSans-30" x="127.246094"/>
      </g>
     </g>
    </g>
    <g id="xtick_5">
     <g id="line2d_9">
      <path d="M 314.239569 307.584 
L 314.239569 41.472 
" clip-path="url(#p0449f48365)" style="fill: none; stroke: #ffffff; stroke-width: 0.8; stroke-linecap: square"/>
     </g>
     <g id="line2d_10">
      <g>
       <use xlink:href="#mea041067d9" x="314.239569" y="307.584" style="fill: #555555; stroke: #555555; stroke-width: 0.8"/>
      </g>
     </g>
     <g id="text_5">
      <!-- 800 -->
      <g style="fill: #555555" transform="translate(304.695819 322.182437) scale(0.1 -0.1)">
       <defs>
        <path id="DejaVuSans-38" d="M 2034 2216 
Q 1584 2216 1326 1975 
Q 1069 1734 1069 1313 
Q 1069 891 1326 650 
Q 1584 409 2034 409 
Q 2484 409 2743 651 
Q 3003 894 3003 1313 
Q 3003 1734 2745 1975 
Q 2488 2216 2034 2216 
z
M 1403 2484 
Q 997 2584 770 2862 
Q 544 3141 544 3541 
Q 544 4100 942 4425 
Q 1341 4750 2034 4750 
Q 2731 4750 3128 4425 
Q 3525 4100 3525 3541 
Q 3525 3141 3298 2862 
Q 3072 2584 2669 2484 
Q 3125 2378 3379 2068 
Q 3634 1759 3634 1313 
Q 3634 634 3220 271 
Q 2806 -91 2034 -91 
Q 1263 -91 848 271 
Q 434 634 434 1313 
Q 434 1759 690 2068 
Q 947 2378 1403 2484 
z
M 1172 3481 
Q 1172 3119 1398 2916 
Q 1625 2713 2034 2713 
Q 2441 2713 2670 2916 
Q 2900 3119 2900 3481 
Q 2900 3844 2670 4047 
Q 2441 4250 2034 4250 
Q 1625 4250 1398 4047 
Q 1172 3844 1172 3481 
z
" transform="scale(0.015625)"/>
       </defs>
       <use xlink:href="#DejaVuSans-38"/>
       <use xlink:href="#DejaVuSans-30" x="63.623047"/>
       <use xlink:href="#DejaVuSans-30" x="127.246094"/>
      </g>
     </g>
    </g>
    <g id="xtick_6">
     <g id="line2d_11">
      <path d="M 374.4165 307.584 
L 374.4165 41.472 
" clip-path="url(#p0449f48365)" style="fill: none; stroke: #ffffff; stroke-width: 0.8; stroke-linecap: square"/>
     </g>
     <g id="line2d_12">
      <g>
       <use xlink:href="#mea041067d9" x="374.4165" y="307.584" style="fill: #555555; stroke: #555555; stroke-width: 0.8"/>
      </g>
     </g>
     <g id="text_6">
      <!-- 1000 -->
      <g style="fill: #555555" transform="translate(361.6915 322.182437) scale(0.1 -0.1)">
       <defs>
        <path id="DejaVuSans-31" d="M 794 531 
L 1825 531 
L 1825 4091 
L 703 3866 
L 703 4441 
L 1819 4666 
L 2450 4666 
L 2450 531 
L 3481 531 
L 3481 0 
L 794 0 
L 794 531 
z
" transform="scale(0.015625)"/>
       </defs>
       <use xlink:href="#DejaVuSans-31"/>
       <use xlink:href="#DejaVuSans-30" x="63.623047"/>
       <use xlink:href="#DejaVuSans-30" x="127.246094"/>
       <use xlink:href="#DejaVuSans-30" x="190.869141"/>
      </g>
     </g>
    </g>
    <g id="text_7">
     <!-- Epoch -->
     <g style="fill: #555555" transform="translate(217.786875 337.38025) scale(0.12 -0.12)">
      <defs>
       <path id="DejaVuSans-45" d="M 628 4666 
L 3578 4666 
L 3578 4134 
L 1259 4134 
L 1259 2753 
L 3481 2753 
L 3481 2222 
L 1259 2222 
L 1259 531 
L 3634 531 
L 3634 0 
L 628 0 
L 628 4666 
z
" transform="scale(0.015625)"/>
       <path id="DejaVuSans-70" d="M 1159 525 
L 1159 -1331 
L 581 -1331 
L 581 3500 
L 1159 3500 
L 1159 2969 
Q 1341 3281 1617 3432 
Q 1894 3584 2278 3584 
Q 2916 3584 3314 3078 
Q 3713 2572 3713 1747 
Q 3713 922 3314 415 
Q 2916 -91 2278 -91 
Q 1894 -91 1617 61 
Q 1341 213 1159 525 
z
M 3116 1747 
Q 3116 2381 2855 2742 
Q 2594 3103 2138 3103 
Q 1681 3103 1420 2742 
Q 1159 2381 1159 1747 
Q 1159 1113 1420 752 
Q 1681 391 2138 391 
Q 2594 391 2855 752 
Q 3116 1113 3116 1747 
z
" transform="scale(0.015625)"/>
       <path id="DejaVuSans-6f" d="M 1959 3097 
Q 1497 3097 1228 2736 
Q 959 2375 959 1747 
Q 959 1119 1226 758 
Q 1494 397 1959 397 
Q 2419 397 2687 759 
Q 2956 1122 2956 1747 
Q 2956 2369 2687 2733 
Q 2419 3097 1959 3097 
z
M 1959 3584 
Q 2709 3584 3137 3096 
Q 3566 2609 3566 1747 
Q 3566 888 3137 398 
Q 2709 -91 1959 -91 
Q 1206 -91 779 398 
Q 353 888 353 1747 
Q 353 2609 779 3096 
Q 1206 3584 1959 3584 
z
" transform="scale(0.015625)"/>
       <path id="DejaVuSans-63" d="M 3122 3366 
L 3122 2828 
Q 2878 2963 2633 3030 
Q 2388 3097 2138 3097 
Q 1578 3097 1268 2742 
Q 959 2388 959 1747 
Q 959 1106 1268 751 
Q 1578 397 2138 397 
Q 2388 397 2633 464 
Q 2878 531 3122 666 
L 3122 134 
Q 2881 22 2623 -34 
Q 2366 -91 2075 -91 
Q 1284 -91 818 406 
Q 353 903 353 1747 
Q 353 2603 823 3093 
Q 1294 3584 2113 3584 
Q 2378 3584 2631 3529 
Q 2884 3475 3122 3366 
z
" transform="scale(0.015625)"/>
       <path id="DejaVuSans-68" d="M 3513 2113 
L 3513 0 
L 2938 0 
L 2938 2094 
Q 2938 2591 2744 2837 
Q 2550 3084 2163 3084 
Q 1697 3084 1428 2787 
Q 1159 2491 1159 1978 
L 1159 0 
L 581 0 
L 581 4863 
L 1159 4863 
L 1159 2956 
Q 1366 3272 1645 3428 
Q 1925 3584 2291 3584 
Q 2894 3584 3203 3211 
Q 3513 2838 3513 2113 
z
" transform="scale(0.015625)"/>
      </defs>
      <use xlink:href="#DejaVuSans-45"/>
      <use xlink:href="#DejaVuSans-70" x="63.183594"/>
      <use xlink:href="#DejaVuSans-6f" x="126.660156"/>
      <use xlink:href="#DejaVuSans-63" x="187.841797"/>
      <use xlink:href="#DejaVuSans-68" x="242.822266"/>
     </g>
    </g>
   </g>
   <g id="matplotlib.axis_2">
    <g id="ytick_1">
     <g id="line2d_13">
      <path d="M 57.6 305.106978 
L 414.72 305.106978 
" clip-path="url(#p0449f48365)" style="fill: none; stroke: #ffffff; stroke-width: 0.8; stroke-linecap: square"/>
     </g>
     <g id="line2d_14">
      <defs>
       <path id="mbf7a5cf91a" d="M 0 0 
L -3.5 0 
" style="stroke: #555555; stroke-width: 0.8"/>
      </defs>
      <g>
       <use xlink:href="#mbf7a5cf91a" x="57.6" y="305.106978" style="fill: #555555; stroke: #555555; stroke-width: 0.8"/>
      </g>
     </g>
     <g id="text_8">
      <!-- 0.2 -->
      <g style="fill: #555555" transform="translate(34.696875 308.906196) scale(0.1 -0.1)">
       <defs>
        <path id="DejaVuSans-2e" d="M 684 794 
L 1344 794 
L 1344 0 
L 684 0 
L 684 794 
z
" transform="scale(0.015625)"/>
       </defs>
       <use xlink:href="#DejaVuSans-30"/>
       <use xlink:href="#DejaVuSans-2e" x="63.623047"/>
       <use xlink:href="#DejaVuSans-32" x="95.410156"/>
      </g>
     </g>
    </g>
    <g id="ytick_2">
     <g id="line2d_15">
      <path d="M 57.6 272.751173 
L 414.72 272.751173 
" clip-path="url(#p0449f48365)" style="fill: none; stroke: #ffffff; stroke-width: 0.8; stroke-linecap: square"/>
     </g>
     <g id="line2d_16">
      <g>
       <use xlink:href="#mbf7a5cf91a" x="57.6" y="272.751173" style="fill: #555555; stroke: #555555; stroke-width: 0.8"/>
      </g>
     </g>
     <g id="text_9">
      <!-- 0.4 -->
      <g style="fill: #555555" transform="translate(34.696875 276.550391) scale(0.1 -0.1)">
       <use xlink:href="#DejaVuSans-30"/>
       <use xlink:href="#DejaVuSans-2e" x="63.623047"/>
       <use xlink:href="#DejaVuSans-34" x="95.410156"/>
      </g>
     </g>
    </g>
    <g id="ytick_3">
     <g id="line2d_17">
      <path d="M 57.6 240.395368 
L 414.72 240.395368 
" clip-path="url(#p0449f48365)" style="fill: none; stroke: #ffffff; stroke-width: 0.8; stroke-linecap: square"/>
     </g>
     <g id="line2d_18">
      <g>
       <use xlink:href="#mbf7a5cf91a" x="57.6" y="240.395368" style="fill: #555555; stroke: #555555; stroke-width: 0.8"/>
      </g>
     </g>
     <g id="text_10">
      <!-- 0.6 -->
      <g style="fill: #555555" transform="translate(34.696875 244.194587) scale(0.1 -0.1)">
       <use xlink:href="#DejaVuSans-30"/>
       <use xlink:href="#DejaVuSans-2e" x="63.623047"/>
       <use xlink:href="#DejaVuSans-36" x="95.410156"/>
      </g>
     </g>
    </g>
    <g id="ytick_4">
     <g id="line2d_19">
      <path d="M 57.6 208.039563 
L 414.72 208.039563 
" clip-path="url(#p0449f48365)" style="fill: none; stroke: #ffffff; stroke-width: 0.8; stroke-linecap: square"/>
     </g>
     <g id="line2d_20">
      <g>
       <use xlink:href="#mbf7a5cf91a" x="57.6" y="208.039563" style="fill: #555555; stroke: #555555; stroke-width: 0.8"/>
      </g>
     </g>
     <g id="text_11">
      <!-- 0.8 -->
      <g style="fill: #555555" transform="translate(34.696875 211.838782) scale(0.1 -0.1)">
       <use xlink:href="#DejaVuSans-30"/>
       <use xlink:href="#DejaVuSans-2e" x="63.623047"/>
       <use xlink:href="#DejaVuSans-38" x="95.410156"/>
      </g>
     </g>
    </g>
    <g id="ytick_5">
     <g id="line2d_21">
      <path d="M 57.6 175.683758 
L 414.72 175.683758 
" clip-path="url(#p0449f48365)" style="fill: none; stroke: #ffffff; stroke-width: 0.8; stroke-linecap: square"/>
     </g>
     <g id="line2d_22">
      <g>
       <use xlink:href="#mbf7a5cf91a" x="57.6" y="175.683758" style="fill: #555555; stroke: #555555; stroke-width: 0.8"/>
      </g>
     </g>
     <g id="text_12">
      <!-- 1.0 -->
      <g style="fill: #555555" transform="translate(34.696875 179.482977) scale(0.1 -0.1)">
       <use xlink:href="#DejaVuSans-31"/>
       <use xlink:href="#DejaVuSans-2e" x="63.623047"/>
       <use xlink:href="#DejaVuSans-30" x="95.410156"/>
      </g>
     </g>
    </g>
    <g id="ytick_6">
     <g id="line2d_23">
      <path d="M 57.6 143.327953 
L 414.72 143.327953 
" clip-path="url(#p0449f48365)" style="fill: none; stroke: #ffffff; stroke-width: 0.8; stroke-linecap: square"/>
     </g>
     <g id="line2d_24">
      <g>
       <use xlink:href="#mbf7a5cf91a" x="57.6" y="143.327953" style="fill: #555555; stroke: #555555; stroke-width: 0.8"/>
      </g>
     </g>
     <g id="text_13">
      <!-- 1.2 -->
      <g style="fill: #555555" transform="translate(34.696875 147.127172) scale(0.1 -0.1)">
       <use xlink:href="#DejaVuSans-31"/>
       <use xlink:href="#DejaVuSans-2e" x="63.623047"/>
       <use xlink:href="#DejaVuSans-32" x="95.410156"/>
      </g>
     </g>
    </g>
    <g id="ytick_7">
     <g id="line2d_25">
      <path d="M 57.6 110.972148 
L 414.72 110.972148 
" clip-path="url(#p0449f48365)" style="fill: none; stroke: #ffffff; stroke-width: 0.8; stroke-linecap: square"/>
     </g>
     <g id="line2d_26">
      <g>
       <use xlink:href="#mbf7a5cf91a" x="57.6" y="110.972148" style="fill: #555555; stroke: #555555; stroke-width: 0.8"/>
      </g>
     </g>
     <g id="text_14">
      <!-- 1.4 -->
      <g style="fill: #555555" transform="translate(34.696875 114.771367) scale(0.1 -0.1)">
       <use xlink:href="#DejaVuSans-31"/>
       <use xlink:href="#DejaVuSans-2e" x="63.623047"/>
       <use xlink:href="#DejaVuSans-34" x="95.410156"/>
      </g>
     </g>
    </g>
    <g id="ytick_8">
     <g id="line2d_27">
      <path d="M 57.6 78.616343 
L 414.72 78.616343 
" clip-path="url(#p0449f48365)" style="fill: none; stroke: #ffffff; stroke-width: 0.8; stroke-linecap: square"/>
     </g>
     <g id="line2d_28">
      <g>
       <use xlink:href="#mbf7a5cf91a" x="57.6" y="78.616343" style="fill: #555555; stroke: #555555; stroke-width: 0.8"/>
      </g>
     </g>
     <g id="text_15">
      <!-- 1.6 -->
      <g style="fill: #555555" transform="translate(34.696875 82.415562) scale(0.1 -0.1)">
       <use xlink:href="#DejaVuSans-31"/>
       <use xlink:href="#DejaVuSans-2e" x="63.623047"/>
       <use xlink:href="#DejaVuSans-36" x="95.410156"/>
      </g>
     </g>
    </g>
    <g id="ytick_9">
     <g id="line2d_29">
      <path d="M 57.6 46.260538 
L 414.72 46.260538 
" clip-path="url(#p0449f48365)" style="fill: none; stroke: #ffffff; stroke-width: 0.8; stroke-linecap: square"/>
     </g>
     <g id="line2d_30">
      <g>
       <use xlink:href="#mbf7a5cf91a" x="57.6" y="46.260538" style="fill: #555555; stroke: #555555; stroke-width: 0.8"/>
      </g>
     </g>
     <g id="text_16">
      <!-- 1.8 -->
      <g style="fill: #555555" transform="translate(34.696875 50.059757) scale(0.1 -0.1)">
       <use xlink:href="#DejaVuSans-31"/>
       <use xlink:href="#DejaVuSans-2e" x="63.623047"/>
       <use xlink:href="#DejaVuSans-38" x="95.410156"/>
      </g>
     </g>
    </g>
    <g id="text_17">
     <!-- Loss -->
     <g style="fill: #555555" transform="translate(28.20125 187.688625) rotate(-90) scale(0.12 -0.12)">
      <defs>
       <path id="DejaVuSans-4c" d="M 628 4666 
L 1259 4666 
L 1259 531 
L 3531 531 
L 3531 0 
L 628 0 
L 628 4666 
z
" transform="scale(0.015625)"/>
       <path id="DejaVuSans-73" d="M 2834 3397 
L 2834 2853 
Q 2591 2978 2328 3040 
Q 2066 3103 1784 3103 
Q 1356 3103 1142 2972 
Q 928 2841 928 2578 
Q 928 2378 1081 2264 
Q 1234 2150 1697 2047 
L 1894 2003 
Q 2506 1872 2764 1633 
Q 3022 1394 3022 966 
Q 3022 478 2636 193 
Q 2250 -91 1575 -91 
Q 1294 -91 989 -36 
Q 684 19 347 128 
L 347 722 
Q 666 556 975 473 
Q 1284 391 1588 391 
Q 1994 391 2212 530 
Q 2431 669 2431 922 
Q 2431 1156 2273 1281 
Q 2116 1406 1581 1522 
L 1381 1569 
Q 847 1681 609 1914 
Q 372 2147 372 2553 
Q 372 3047 722 3315 
Q 1072 3584 1716 3584 
Q 2034 3584 2315 3537 
Q 2597 3491 2834 3397 
z
" transform="scale(0.015625)"/>
      </defs>
      <use xlink:href="#DejaVuSans-4c"/>
      <use xlink:href="#DejaVuSans-6f" x="53.962891"/>
      <use xlink:href="#DejaVuSans-73" x="115.144531"/>
      <use xlink:href="#DejaVuSans-73" x="167.244141"/>
     </g>
    </g>
   </g>
   <g id="line2d_31">
    <path d="M 73.832727 217.606338 
L 74.735381 204.03097 
L 75.93892 188.691311 
L 77.142459 175.455494 
L 78.646882 161.348144 
L 80.151305 148.661059 
L 80.45219 147.012394 
L 81.053959 142.629056 
L 81.956613 136.543458 
L 83.160152 128.853436 
L 83.461036 127.509348 
L 84.062806 123.911646 
L 84.36369 122.638452 
L 85.266344 117.556976 
L 85.868114 115.661437 
L 87.372537 108.776684 
L 87.673422 108.775623 
L 88.275191 106.189429 
L 88.576075 105.731783 
L 89.177845 103.978918 
L 89.478729 103.710964 
L 89.779614 102.154889 
L 90.080499 101.722661 
L 90.381383 101.868171 
L 91.284037 98.880529 
L 92.186691 96.785808 
L 92.487576 97.240754 
L 92.788461 97.174778 
L 93.089345 96.5015 
L 93.39023 96.563715 
L 93.691115 95.692837 
L 93.991999 95.924457 
L 94.593769 95.428548 
L 94.894653 95.211778 
L 95.195538 94.602644 
L 95.797307 94.489264 
L 96.098192 94.717007 
L 96.399077 94.24966 
L 96.699961 94.962435 
L 97.000846 95.182638 
L 97.602615 93.939702 
L 98.204385 94.851177 
L 98.505269 93.917331 
L 98.806154 95.416822 
L 99.107039 94.873297 
L 99.407923 95.002163 
L 99.708808 95.839542 
L 100.009692 95.843515 
L 100.310577 96.118373 
L 100.912346 97.251226 
L 101.213231 96.94393 
L 101.514116 97.567278 
L 101.815 97.256838 
L 102.115885 97.319594 
L 102.41677 97.674043 
L 102.717654 98.623182 
L 103.018539 98.247769 
L 103.319424 99.766758 
L 103.620308 99.839002 
L 103.921193 100.20456 
L 104.222078 100.179951 
L 104.823847 102.930863 
L 105.425616 100.946359 
L 106.027386 104.107707 
L 106.32827 103.710887 
L 106.629155 103.694899 
L 106.93004 105.603534 
L 107.230924 105.705381 
L 107.531809 106.558227 
L 107.832694 107.012961 
L 108.133578 107.237136 
L 108.434463 108.469079 
L 108.735348 108.663072 
L 109.036232 108.531043 
L 109.337117 110.145071 
L 109.638002 109.078098 
L 110.239771 110.180229 
L 110.540655 112.344513 
L 111.142425 113.635411 
L 111.443309 113.583668 
L 111.744194 115.047616 
L 112.045079 115.335568 
L 112.345963 116.113722 
L 112.646848 116.293714 
L 112.947733 117.982512 
L 113.248617 117.878891 
L 113.549502 119.031222 
L 113.850387 117.869074 
L 114.452156 120.558832 
L 114.753041 122.758755 
L 115.053925 122.327453 
L 115.35481 123.218369 
L 115.655695 123.106049 
L 115.956579 123.528905 
L 116.558349 125.988489 
L 116.859233 126.207187 
L 117.160118 125.97387 
L 117.761887 127.353791 
L 118.062772 129.557379 
L 118.664541 131.30494 
L 118.965426 130.479691 
L 119.266311 131.424838 
L 119.567195 131.151832 
L 120.168965 134.073884 
L 120.469849 133.797001 
L 121.071619 133.651569 
L 121.372503 136.176203 
L 121.673388 137.126692 
L 121.974272 139.071815 
L 122.275157 138.719525 
L 122.876926 139.97949 
L 123.478696 139.185947 
L 123.77958 141.473831 
L 124.080465 141.982122 
L 124.38135 141.684256 
L 124.682234 142.232564 
L 125.284004 145.097839 
L 125.584888 146.766137 
L 125.885773 146.635226 
L 126.186658 147.301639 
L 126.487542 146.574438 
L 126.788427 147.631152 
L 127.089312 147.250937 
L 127.390196 149.437785 
L 127.691081 149.472306 
L 127.991966 149.248979 
L 128.29285 148.87077 
L 128.89462 152.695155 
L 129.195504 152.723563 
L 129.496389 153.9821 
L 129.797274 153.961889 
L 130.098158 154.823433 
L 130.399043 154.609189 
L 130.699928 154.990696 
L 131.000812 156.22719 
L 131.301697 156.064517 
L 131.602582 156.02851 
L 131.903466 156.232147 
L 132.505235 159.008573 
L 132.80612 159.700655 
L 133.407889 160.690641 
L 133.708774 160.49225 
L 134.009659 160.592825 
L 134.310543 160.362863 
L 134.611428 162.102479 
L 134.912313 162.012801 
L 135.213197 162.179236 
L 135.514082 161.122522 
L 135.814967 164.31868 
L 136.115851 165.122868 
L 136.416736 165.340969 
L 136.717621 166.288256 
L 137.018505 166.826131 
L 137.31939 165.998626 
L 137.921159 166.511487 
L 138.222044 168.392542 
L 138.522929 167.157746 
L 138.823813 167.449266 
L 139.124698 167.006991 
L 139.726467 170.162919 
L 140.328237 171.107333 
L 140.629121 171.079851 
L 141.230891 171.535414 
L 141.531775 171.122684 
L 141.83266 172.559728 
L 142.133545 172.12914 
L 142.434429 172.454969 
L 142.735314 172.327742 
L 143.337083 174.920995 
L 143.637968 174.681738 
L 143.938852 175.332298 
L 144.239737 175.271433 
L 144.540622 175.667481 
L 144.841506 175.674964 
L 145.142391 175.520911 
L 145.443276 176.905354 
L 145.74416 176.176446 
L 146.045045 176.447042 
L 146.34593 175.82352 
L 146.646814 178.463666 
L 146.947699 178.083104 
L 147.549468 178.908458 
L 147.850353 179.170819 
L 148.151238 178.845877 
L 148.452122 179.29201 
L 148.753007 179.507632 
L 149.053892 180.235797 
L 149.354776 179.700738 
L 149.655661 179.868744 
L 149.956546 179.023516 
L 150.25743 181.30792 
L 150.558315 181.045694 
L 150.8592 181.601967 
L 151.160084 181.727815 
L 151.460969 182.309226 
L 151.761854 182.298802 
L 152.363623 181.876333 
L 152.664508 182.696143 
L 152.965392 182.362435 
L 153.266277 182.564085 
L 153.567162 181.842188 
L 153.868046 183.490004 
L 154.168931 183.182274 
L 154.469815 183.669196 
L 154.7707 183.574726 
L 155.071585 184.219114 
L 155.372469 183.983271 
L 155.673354 183.90339 
L 155.974239 183.959723 
L 156.275123 184.638903 
L 157.177777 183.454567 
L 157.478662 185.377241 
L 157.779547 184.593302 
L 158.080431 185.200238 
L 158.381316 184.659432 
L 158.682201 185.266378 
L 158.983085 185.28522 
L 159.28397 184.916441 
L 159.584855 185.127387 
L 159.885739 185.565285 
L 160.186624 184.711629 
L 160.487509 184.811306 
L 160.788393 184.205768 
L 161.089278 185.773376 
L 161.390163 185.470737 
L 161.691047 185.337638 
L 161.991932 184.944068 
L 162.292817 185.516676 
L 163.195471 185.414886 
L 163.496355 185.737457 
L 163.79724 185.106337 
L 164.098125 184.926846 
L 164.399009 184.332099 
L 164.699894 186.20734 
L 165.000778 185.227431 
L 165.301663 185.149893 
L 165.602548 184.945052 
L 165.903432 185.568052 
L 166.204317 185.509694 
L 166.806086 185.090503 
L 167.106971 185.674663 
L 167.407856 184.835519 
L 167.70874 184.806369 
L 168.009625 184.157767 
L 168.31051 185.442889 
L 168.611394 185.045201 
L 169.213164 184.641111 
L 169.514048 185.161493 
L 169.814933 184.963045 
L 170.115818 185.134465 
L 170.416702 184.930693 
L 170.717587 185.086212 
L 171.018472 184.591133 
L 171.319356 184.561982 
L 171.620241 183.649476 
L 171.921126 185.33785 
L 172.22201 184.395789 
L 172.82378 184.37337 
L 173.124664 184.73399 
L 173.425549 184.636097 
L 173.726434 184.877436 
L 174.027318 184.666346 
L 174.328203 184.886096 
L 174.629088 184.21193 
L 174.929972 184.173995 
L 175.230857 183.700786 
L 175.531742 184.995512 
L 175.832626 184.483201 
L 176.133511 184.616223 
L 176.434395 184.048475 
L 176.73528 184.700559 
L 177.036165 184.541858 
L 177.337049 184.785213 
L 177.637934 184.709488 
L 178.239703 184.712111 
L 178.540588 184.555994 
L 178.841473 183.833027 
L 179.142357 185.258818 
L 179.744127 184.531926 
L 180.045011 184.506556 
L 180.646781 185.116529 
L 180.947665 185.36944 
L 181.24855 185.167009 
L 181.549435 185.477806 
L 181.850319 185.109644 
L 182.151204 185.246996 
L 182.452089 184.618875 
L 182.752973 185.566105 
L 183.053858 184.551385 
L 183.655627 183.876101 
L 183.956512 184.166841 
L 184.257397 184.143206 
L 184.558281 183.644462 
L 184.859166 183.552007 
L 185.160051 183.682358 
L 185.460935 183.005657 
L 185.76182 182.781636 
L 186.062705 182.0643 
L 186.363589 183.192466 
L 186.664474 182.361461 
L 186.965358 182.214274 
L 187.266243 181.530369 
L 187.567128 182.254118 
L 187.868012 181.775691 
L 188.168897 181.731411 
L 188.469782 181.225088 
L 188.770666 181.459061 
L 189.071551 180.707203 
L 189.372436 180.783622 
L 189.67332 180.201497 
L 189.974205 180.874438 
L 190.27509 180.543392 
L 190.575974 179.992934 
L 190.876859 179.857993 
L 191.177744 179.978431 
L 191.478628 179.570599 
L 191.779513 179.640075 
L 192.080398 179.382006 
L 192.381282 179.571313 
L 192.682167 178.824364 
L 192.983052 178.838404 
L 193.283936 178.269566 
L 193.584821 179.21966 
L 193.885706 178.203889 
L 194.487475 177.792557 
L 194.78836 178.007003 
L 195.089244 177.572171 
L 195.390129 177.678898 
L 195.691014 177.394841 
L 195.991898 177.795537 
L 196.292783 176.660186 
L 196.593668 176.997992 
L 196.894552 176.0978 
L 197.195437 177.43698 
L 197.496322 176.536093 
L 198.098091 175.559964 
L 198.398975 176.339187 
L 198.69986 175.38649 
L 199.000745 175.574255 
L 199.301629 175.419276 
L 199.602514 175.853616 
L 199.903399 174.843332 
L 200.204283 174.878566 
L 200.505168 173.988287 
L 200.806053 175.384735 
L 201.106937 174.178462 
L 201.407822 173.798941 
L 201.708707 173.725637 
L 202.009591 174.22089 
L 202.310476 173.599683 
L 202.611361 173.551488 
L 202.912245 173.37491 
L 203.21313 173.90615 
L 203.514015 172.518303 
L 203.814899 172.558436 
L 204.115784 172.197314 
L 204.416669 173.378265 
L 205.018438 172.029279 
L 205.319323 171.493738 
L 205.921092 171.583879 
L 206.221977 172.359197 
L 206.522861 170.833015 
L 206.823746 171.599597 
L 207.124631 170.960608 
L 207.425515 170.942634 
L 207.7264 169.884416 
L 208.027285 171.382133 
L 208.629054 169.47992 
L 208.929938 169.636056 
L 209.531708 169.46048 
L 209.832592 169.372037 
L 210.133477 168.977589 
L 210.434362 169.590022 
L 210.735246 168.756307 
L 211.036131 168.653033 
L 211.337016 167.826511 
L 211.6379 169.748433 
L 211.938785 168.027795 
L 212.23967 167.846587 
L 212.540554 167.197474 
L 212.841439 167.844582 
L 213.142324 167.59439 
L 213.443208 167.635661 
L 213.744093 166.454228 
L 214.044978 167.879354 
L 214.345862 166.48684 
L 214.646747 167.084248 
L 214.947632 165.688687 
L 215.248516 167.70264 
L 215.549401 166.040282 
L 215.850286 165.383551 
L 216.15117 165.396627 
L 216.452055 166.266907 
L 216.75294 164.712221 
L 217.053824 165.264983 
L 217.354709 165.273045 
L 217.655594 165.580515 
L 217.956478 164.877652 
L 218.257363 165.158874 
L 218.558248 163.816618 
L 218.859132 164.705818 
L 219.160017 163.163686 
L 219.460902 163.724935 
L 219.761786 163.540777 
L 220.062671 163.21111 
L 220.363555 162.496232 
L 221.266209 163.245612 
L 221.567094 161.877224 
L 221.867979 162.898375 
L 222.168863 162.231615 
L 222.469748 163.262776 
L 222.770633 162.308873 
L 223.071517 160.971516 
L 223.372402 161.325078 
L 223.673287 161.106611 
L 223.974171 160.454836 
L 224.275056 161.234224 
L 224.575941 161.019537 
L 224.876825 161.464783 
L 225.17771 160.451924 
L 225.779479 159.788867 
L 226.080364 161.064222 
L 226.381249 158.988169 
L 226.682133 159.854573 
L 226.983018 158.927574 
L 227.283903 159.214428 
L 227.584787 158.75734 
L 227.885672 159.105136 
L 228.186557 158.420036 
L 228.487441 159.986853 
L 228.788326 158.430219 
L 229.089211 158.24716 
L 229.390095 157.532707 
L 229.69098 158.640971 
L 229.991865 158.274449 
L 230.292749 157.10802 
L 230.894518 157.214052 
L 231.195403 156.646188 
L 231.496288 156.811736 
L 231.797172 157.374296 
L 233.000711 155.504348 
L 233.301596 156.11948 
L 233.60248 155.80069 
L 233.903365 154.546049 
L 234.20425 154.451299 
L 234.505134 153.638046 
L 235.106904 154.280891 
L 235.407788 154.864607 
L 236.009558 153.677716 
L 236.611327 152.944653 
L 236.912212 154.655552 
L 237.213096 153.228825 
L 237.814866 152.102143 
L 238.11575 152.374861 
L 238.416635 152.331256 
L 238.71752 152.769578 
L 239.018404 151.640081 
L 239.319289 152.686052 
L 239.620174 152.433932 
L 239.921058 152.838119 
L 240.221943 150.94283 
L 240.522828 151.550673 
L 240.823712 151.648373 
L 241.124597 150.331285 
L 241.425482 150.694972 
L 241.726366 150.746638 
L 242.027251 150.153183 
L 242.328135 150.963427 
L 242.62902 149.212221 
L 242.929905 150.60055 
L 243.230789 149.961677 
L 243.531674 149.970047 
L 243.832559 148.71151 
L 244.133443 150.386076 
L 244.735213 148.074971 
L 245.036097 147.699963 
L 245.336982 146.615536 
L 245.637867 147.777742 
L 245.938751 147.607894 
L 246.239636 148.023575 
L 246.540521 147.922113 
L 246.841405 147.489847 
L 247.14229 147.917832 
L 247.443175 146.967305 
L 247.744059 148.054181 
L 248.044944 146.904183 
L 248.345829 146.546185 
L 248.646713 145.096836 
L 248.947598 146.55604 
L 249.248483 145.31351 
L 249.549367 145.875067 
L 249.850252 144.373801 
L 250.151137 145.990298 
L 250.452021 145.801897 
L 250.752906 145.047658 
L 251.053791 144.999579 
L 251.354675 145.306663 
L 251.956445 143.910678 
L 252.558214 143.030061 
L 252.859098 141.965324 
L 253.159983 144.044693 
L 253.460868 142.150253 
L 253.761752 143.575148 
L 254.062637 143.276067 
L 254.363522 143.5014 
L 254.664406 142.342993 
L 254.965291 143.448403 
L 255.56706 141.533269 
L 255.867945 141.395204 
L 256.16883 141.678914 
L 256.469714 141.428047 
L 256.770599 140.873665 
L 257.071484 141.696001 
L 257.372368 141.437671 
L 257.673253 140.278088 
L 257.974138 141.681595 
L 258.275022 140.157842 
L 258.575907 141.74732 
L 258.876792 139.875868 
L 259.177676 139.69765 
L 259.478561 138.199394 
L 259.779446 139.909059 
L 260.08033 138.581421 
L 260.381215 139.422098 
L 260.6821 138.722206 
L 260.982984 139.103906 
L 261.283869 138.405228 
L 261.584754 139.914729 
L 261.885638 138.26886 
L 262.186523 140.435342 
L 262.487408 137.281324 
L 262.788292 135.926764 
L 263.089177 137.012097 
L 263.690946 136.368808 
L 263.991831 136.005314 
L 264.292715 137.117493 
L 264.5936 136.560294 
L 264.894485 135.686716 
L 265.195369 136.898698 
L 265.496254 135.494767 
L 265.797139 136.516535 
L 266.098023 136.238071 
L 266.398908 133.633074 
L 266.699793 134.725832 
L 267.000677 134.388856 
L 267.301562 134.380717 
L 267.602447 134.638893 
L 267.903331 133.633749 
L 268.204216 135.363008 
L 268.505101 134.095542 
L 268.805985 134.183426 
L 269.10687 133.456919 
L 269.407755 133.452522 
L 269.708639 133.689523 
L 270.009524 132.324606 
L 270.310409 132.124576 
L 270.611293 133.172959 
L 270.912178 132.352898 
L 271.513947 132.038563 
L 271.814832 132.280346 
L 272.115717 131.537427 
L 272.416601 132.290239 
L 272.717486 131.140974 
L 273.018371 131.946841 
L 273.62014 128.927454 
L 273.921025 131.769838 
L 274.221909 129.622159 
L 274.522794 129.707787 
L 274.823678 130.033751 
L 275.124563 128.359533 
L 275.425448 130.071435 
L 275.726332 129.327668 
L 276.027217 129.908434 
L 276.328102 128.897041 
L 276.628986 130.152493 
L 277.230756 126.575445 
L 277.53164 128.384662 
L 277.832525 127.98601 
L 278.13341 126.317134 
L 278.434294 127.830202 
L 278.735179 127.310032 
L 279.036064 127.851937 
L 279.336948 127.131004 
L 279.637833 127.641454 
L 279.938718 125.496379 
L 280.239602 128.14043 
L 280.841372 125.713747 
L 281.142256 125.804505 
L 281.443141 126.136313 
L 281.744026 124.27487 
L 282.04491 125.660191 
L 282.64668 125.761266 
L 282.947564 125.645379 
L 283.248449 123.929659 
L 283.549334 125.271124 
L 283.850218 125.031096 
L 284.151103 123.377629 
L 284.451988 123.630192 
L 284.752872 122.649348 
L 285.053757 122.400101 
L 285.354642 121.803329 
L 285.655526 122.440987 
L 285.956411 123.421928 
L 286.257295 123.241665 
L 286.55818 123.823164 
L 286.859065 123.512203 
L 287.159949 121.416904 
L 287.761719 123.038473 
L 288.363488 120.760192 
L 288.664373 122.067059 
L 288.965257 120.195916 
L 289.266142 120.169456 
L 289.567027 121.140253 
L 289.867911 121.520911 
L 290.469681 120.586024 
L 290.770565 119.460268 
L 291.07145 121.583223 
L 291.372335 119.910316 
L 291.673219 117.062861 
L 291.974104 118.604645 
L 292.274989 117.896363 
L 292.575873 118.701015 
L 292.876758 116.975497 
L 293.177643 117.668485 
L 293.478527 119.437376 
L 293.779412 118.834297 
L 294.080297 117.793533 
L 294.381181 117.865005 
L 294.682066 118.485016 
L 294.982951 119.397108 
L 295.283835 114.394915 
L 295.58472 116.607336 
L 295.885605 116.685635 
L 296.186489 115.098703 
L 296.487374 114.497437 
L 296.788258 116.323838 
L 297.089143 116.775814 
L 297.690912 115.735127 
L 297.991797 116.757705 
L 298.292682 116.573817 
L 298.593566 114.264776 
L 298.894451 114.50141 
L 299.195336 113.838912 
L 299.49622 114.135331 
L 299.797105 114.817404 
L 300.09799 114.049221 
L 300.398874 112.897912 
L 301.000644 114.955257 
L 301.301528 112.190517 
L 301.903298 113.799088 
L 302.204182 111.837862 
L 302.505067 110.966771 
L 302.805952 112.244382 
L 303.106836 110.943725 
L 303.407721 111.712235 
L 303.708606 110.533637 
L 304.00949 112.097735 
L 304.310375 112.841559 
L 304.61126 111.872286 
L 304.912144 110.361147 
L 305.213029 111.206028 
L 305.513914 111.025689 
L 305.814798 109.630899 
L 306.115683 109.963671 
L 306.416568 109.854264 
L 306.717452 108.572681 
L 307.018337 108.597945 
L 307.319222 111.480577 
L 307.620106 106.830828 
L 307.920991 109.578654 
L 308.221875 110.232531 
L 308.52276 107.94293 
L 308.823645 106.754766 
L 309.124529 110.060986 
L 309.425414 109.715717 
L 309.726299 106.132267 
L 310.027183 107.624005 
L 310.328068 107.454948 
L 310.628953 104.823529 
L 310.929837 106.578477 
L 311.230722 106.330811 
L 311.531607 109.052621 
L 311.832491 108.275201 
L 312.133376 108.092432 
L 312.434261 106.824271 
L 312.735145 107.555772 
L 313.03603 104.871376 
L 313.336915 104.499763 
L 313.637799 103.439462 
L 313.938684 103.870012 
L 314.239569 103.535601 
L 314.841338 106.253727 
L 315.142223 105.17576 
L 315.443107 106.081044 
L 315.743992 102.603491 
L 316.345761 105.656569 
L 316.947531 102.01019 
L 317.248415 103.713703 
L 318.151069 101.223994 
L 318.451954 102.777581 
L 318.752838 102.745355 
L 319.053723 101.284165 
L 319.354608 103.456298 
L 319.655492 102.111323 
L 320.257262 101.337837 
L 320.558146 98.896883 
L 320.859031 100.45452 
L 321.159916 99.529526 
L 321.4608 100.620935 
L 321.761685 99.102544 
L 322.06257 99.251351 
L 322.363454 102.618495 
L 322.664339 99.440678 
L 322.965224 100.685696 
L 323.266108 99.88035 
L 323.566993 100.673392 
L 323.867878 99.568676 
L 324.168762 97.664825 
L 324.770532 99.361009 
L 325.071416 96.573474 
L 325.372301 98.39407 
L 325.673186 97.419917 
L 325.97407 100.564949 
L 326.274955 97.218499 
L 326.57584 96.286235 
L 326.876724 96.564371 
L 327.177609 98.304662 
L 327.478494 96.124005 
L 327.779378 97.037311 
L 328.080263 96.934172 
L 328.381148 95.343961 
L 328.682032 95.374047 
L 328.982917 97.051872 
L 329.283801 93.845666 
L 329.584686 96.701761 
L 329.885571 96.79574 
L 330.186455 94.262948 
L 330.48734 95.267147 
L 330.788225 97.558831 
L 331.089109 93.042307 
L 331.389994 92.070314 
L 331.991763 95.058284 
L 332.292648 91.225992 
L 332.593533 93.581897 
L 332.894417 94.061684 
L 333.195302 95.049374 
L 333.496187 92.177735 
L 333.797071 94.568913 
L 334.097956 93.948381 
L 334.398841 94.289928 
L 334.699725 90.456768 
L 335.00061 92.352751 
L 335.301495 91.039057 
L 335.602379 92.604023 
L 335.903264 89.975478 
L 336.204149 92.891069 
L 336.805918 89.195068 
L 337.106803 91.700166 
L 337.407687 91.161752 
L 337.708572 91.326567 
L 338.310341 90.147698 
L 338.611226 87.051979 
L 338.912111 90.812934 
L 339.212995 90.182238 
L 339.51388 86.660618 
L 339.814765 89.784763 
L 340.115649 87.822206 
L 340.717418 91.612031 
L 341.018303 87.963569 
L 341.319188 86.499197 
L 341.620072 88.919651 
L 341.920957 88.395778 
L 342.221842 83.464518 
L 342.522726 88.975541 
L 343.124496 87.112093 
L 343.42538 87.457574 
L 343.726265 85.614877 
L 344.02715 88.985376 
L 344.328034 86.082128 
L 344.628919 85.717554 
L 344.929804 86.47212 
L 345.230688 85.843778 
L 345.531573 87.523434 
L 346.133342 83.627423 
L 346.434227 85.485297 
L 346.735112 83.365313 
L 347.035996 84.536949 
L 347.336881 82.65543 
L 347.637766 86.358914 
L 347.93865 84.213723 
L 348.239535 85.766732 
L 348.54042 84.402355 
L 348.841304 86.657802 
L 349.443074 83.400875 
L 349.743958 83.20802 
L 350.044843 81.256764 
L 350.345728 84.037839 
L 350.646612 82.780825 
L 350.947497 83.311101 
L 351.248381 83.379005 
L 351.549266 84.911128 
L 351.850151 82.315619 
L 352.151035 81.384107 
L 352.45192 82.958715 
L 352.752805 83.641617 
L 353.053689 81.981304 
L 353.354574 78.030213 
L 353.655459 79.979713 
L 353.956343 79.599517 
L 354.558113 81.724536 
L 354.858997 80.86629 
L 355.159882 81.66826 
L 355.460767 80.297963 
L 355.761651 78.238921 
L 356.062536 81.566047 
L 356.363421 82.016037 
L 356.664305 78.437408 
L 356.96519 78.310316 
L 357.266075 79.074815 
L 357.566959 79.381378 
L 357.867844 77.077024 
L 358.168729 77.800001 
L 358.469613 77.285944 
L 358.770498 79.021143 
L 359.071383 78.659539 
L 359.372267 75.144996 
L 359.673152 79.620577 
L 359.974037 78.232865 
L 360.274921 77.407231 
L 360.575806 75.715598 
L 360.876691 75.809364 
L 361.177575 74.190438 
L 361.47846 78.003406 
L 361.779345 74.942131 
L 362.080229 76.218893 
L 362.381114 75.744893 
L 362.681998 75.489687 
L 362.982883 77.400693 
L 363.283768 75.975008 
L 363.584652 77.59351 
L 363.885537 72.346179 
L 364.186422 73.924393 
L 364.487306 72.90924 
L 364.788191 73.465339 
L 365.089076 72.351212 
L 365.38996 76.476182 
L 365.99173 73.967381 
L 366.292614 73.366713 
L 366.593499 74.481013 
L 366.894384 74.77886 
L 367.195268 72.414372 
L 367.496153 74.706539 
L 367.797038 70.624017 
L 368.097922 71.066292 
L 368.398807 69.913498 
L 369.000576 74.79477 
L 369.602346 70.768273 
L 369.90323 72.99346 
L 370.204115 69.680335 
L 370.505 73.698463 
L 370.805884 71.005639 
L 371.407654 71.270893 
L 372.009423 67.743255 
L 372.310308 67.745588 
L 372.611192 68.984107 
L 372.912077 72.388877 
L 373.212961 71.30983 
L 373.814731 68.14669 
L 374.115615 72.138184 
L 374.717385 66.977695 
L 375.018269 68.356729 
L 375.319154 66.535381 
L 375.620039 66.152119 
L 375.920923 71.241849 
L 376.221808 68.91574 
L 376.522693 70.109246 
L 376.823577 70.515555 
L 377.124462 66.631963 
L 377.425347 70.364645 
L 377.726231 67.477635 
L 378.027116 66.029347 
L 378.328001 66.878799 
L 378.628885 65.691329 
L 378.92977 66.052721 
L 379.230655 66.095439 
L 379.531539 64.90145 
L 380.434193 66.438914 
L 380.735078 66.288661 
L 381.035963 63.532831 
L 381.336847 69.191061 
L 381.637732 63.508358 
L 381.938617 63.612365 
L 382.239501 66.721911 
L 382.540386 61.997488 
L 382.841271 62.861674 
L 383.142155 61.893616 
L 383.44304 66.708874 
L 383.743925 65.021908 
L 384.044809 64.627557 
L 384.345694 63.992406 
L 384.646578 63.935378 
L 384.947463 63.644919 
L 385.248348 62.780443 
L 385.549232 63.156994 
L 385.850117 63.094046 
L 386.151002 61.355009 
L 386.451886 63.141353 
L 386.752771 61.769398 
L 387.053656 63.137053 
L 387.35454 61.058281 
L 387.655425 60.597163 
L 387.95631 60.397211 
L 388.558079 64.674498 
L 388.858964 63.129184 
L 389.159848 59.552869 
L 389.460733 59.712689 
L 389.761618 61.295224 
L 390.062502 56.949936 
L 390.363387 60.354744 
L 390.664272 60.767243 
L 390.965156 60.86801 
L 391.266041 61.723228 
L 391.566926 59.6098 
L 391.86781 59.343062 
L 392.168695 63.093467 
L 392.46958 60.014296 
L 392.770464 58.958797 
L 393.071349 56.299858 
L 393.372234 59.437927 
L 393.673118 58.273041 
L 393.974003 55.283046 
L 394.274888 55.7097 
L 394.575772 61.592086 
L 395.478426 58.534148 
L 395.779311 58.418782 
L 396.080195 58.094649 
L 396.38108 55.231688 
L 396.681965 54.185273 
L 396.982849 55.799571 
L 397.283734 55.744299 
L 397.584619 56.614714 
L 397.885503 53.568 
L 398.186388 55.553275 
L 398.487273 55.48539 
L 398.487273 55.48539 
" clip-path="url(#p0449f48365)" style="fill: none; stroke: #6495ed; stroke-width: 2; stroke-linecap: square"/>
   </g>
   <g id="line2d_32">
    <path d="M 73.832727 221.392635 
L 74.735381 231.09911 
L 75.93892 241.222992 
L 77.142459 249.32533 
L 78.045112 254.598623 
L 78.345997 255.452736 
L 79.248651 260.545542 
L 79.85042 262.874839 
L 80.151305 264.485514 
L 80.45219 265.059624 
L 81.053959 267.575865 
L 81.354844 268.47124 
L 81.655728 269.983911 
L 81.956613 269.762972 
L 82.257498 271.262989 
L 82.558382 272.020246 
L 82.859267 273.698134 
L 83.160152 274.065769 
L 83.461036 274.858163 
L 83.761921 276.052399 
L 84.062806 276.216725 
L 84.664575 277.998161 
L 84.96546 278.381857 
L 85.266344 279.692227 
L 85.567229 278.881413 
L 85.868114 280.10485 
L 86.168998 280.509296 
L 86.469883 282.021084 
L 86.770768 281.905947 
L 87.071652 282.582551 
L 87.372537 283.560907 
L 87.673422 283.19918 
L 87.974306 284.125513 
L 88.275191 284.598289 
L 88.576075 284.677265 
L 88.87696 285.696906 
L 89.177845 284.573726 
L 89.478729 285.644798 
L 89.779614 285.92721 
L 90.080499 287.252356 
L 90.381383 286.735497 
L 90.682268 287.222081 
L 90.983153 288.010382 
L 91.284037 287.586176 
L 91.584922 288.392499 
L 91.885807 288.733437 
L 92.186691 288.675383 
L 92.487576 289.391436 
L 92.788461 287.903542 
L 93.089345 289.042441 
L 93.39023 288.969163 
L 93.691115 290.342187 
L 93.991999 289.632879 
L 94.292884 289.943646 
L 94.593769 290.547868 
L 94.894653 289.850473 
L 95.195538 290.647031 
L 95.496423 290.716397 
L 95.797307 290.521683 
L 96.098192 291.185454 
L 96.399077 289.556211 
L 96.699961 290.511878 
L 97.000846 290.334538 
L 97.301731 291.668753 
L 97.602615 290.940342 
L 97.9035 291.115256 
L 98.204385 291.577964 
L 98.505269 290.769983 
L 98.806154 291.341497 
L 99.107039 291.384548 
L 99.407923 291.088776 
L 99.708808 291.572584 
L 100.009692 289.657532 
L 100.310577 290.710574 
L 100.611462 290.435136 
L 100.912346 291.633057 
L 101.213231 290.660876 
L 101.514116 290.79516 
L 101.815 291.349747 
L 102.115885 290.174428 
L 102.41677 291.02643 
L 103.018539 290.470815 
L 103.319424 290.704082 
L 103.620308 288.564706 
L 103.921193 289.664163 
L 104.222078 289.434945 
L 104.522962 290.546886 
L 104.823847 289.10255 
L 105.124732 289.488717 
L 105.425616 290.205092 
L 105.726501 288.465567 
L 106.027386 289.311331 
L 106.32827 289.15097 
L 106.629155 288.780534 
L 106.93004 288.763096 
L 107.230924 286.37154 
L 107.531809 287.467179 
L 107.832694 287.1294 
L 108.133578 288.571197 
L 108.434463 286.874322 
L 108.735348 287.092358 
L 109.036232 287.690192 
L 109.337117 285.591813 
L 109.638002 287.126111 
L 110.540655 285.951334 
L 110.84154 283.184144 
L 111.142425 284.397196 
L 111.443309 284.134633 
L 111.744194 285.477882 
L 112.045079 283.693332 
L 112.345963 283.852426 
L 112.646848 284.410043 
L 112.947733 281.918161 
L 113.248617 283.533275 
L 113.549502 282.881005 
L 114.151271 282.390354 
L 114.452156 279.206038 
L 114.753041 280.189541 
L 115.053925 279.994684 
L 115.35481 281.594178 
L 115.655695 279.624871 
L 115.956579 279.884143 
L 116.257464 280.362373 
L 116.558349 277.480466 
L 116.859233 279.33933 
L 117.160118 278.890563 
L 117.461003 278.221906 
L 117.761887 277.836728 
L 118.062772 274.249267 
L 118.363657 275.591715 
L 118.664541 275.112156 
L 118.965426 277.246984 
L 119.266311 274.810368 
L 119.86808 275.647889 
L 120.168965 272.441764 
L 120.469849 274.761057 
L 121.071619 273.671948 
L 121.372503 272.673796 
L 121.673388 269.126975 
L 121.974272 270.252496 
L 122.275157 270.053235 
L 122.576042 272.028071 
L 122.876926 269.468821 
L 123.177811 269.98905 
L 123.478696 270.905098 
L 123.77958 267.1471 
L 124.080465 269.510499 
L 124.682234 268.28402 
L 124.983119 267.308533 
L 125.284004 263.4639 
L 125.584888 264.691314 
L 125.885773 264.520512 
L 126.186658 266.627159 
L 126.487542 264.245803 
L 126.788427 264.448973 
L 127.089312 265.417689 
L 127.390196 261.387156 
L 127.691081 264.063126 
L 128.29285 263.002873 
L 128.593735 261.703536 
L 128.89462 257.73481 
L 129.195504 259.41345 
L 129.496389 258.904115 
L 129.797274 261.297333 
L 130.098158 258.364796 
L 130.699928 259.681895 
L 131.000812 255.748489 
L 131.301697 258.648753 
L 131.903466 257.36576 
L 132.204351 256.19035 
L 132.505235 252.284342 
L 132.80612 253.727855 
L 133.107005 253.569078 
L 133.407889 255.77641 
L 133.708774 253.144315 
L 134.009659 253.674625 
L 134.310543 254.686757 
L 134.611428 250.592767 
L 134.912313 253.542536 
L 135.213197 252.778932 
L 135.514082 252.641477 
L 135.814967 250.885166 
L 136.115851 247.114795 
L 136.416736 248.618865 
L 136.717621 248.308634 
L 137.018505 250.503866 
L 137.31939 248.096392 
L 137.620275 248.636865 
L 137.921159 249.479545 
L 138.222044 245.315772 
L 138.522929 248.632755 
L 138.823813 247.861475 
L 139.124698 247.512147 
L 139.425583 246.325874 
L 139.726467 242.50011 
L 140.027352 243.736417 
L 140.328237 243.718687 
L 140.629121 246.081065 
L 140.930006 243.404335 
L 141.230891 243.900001 
L 141.531775 244.965839 
L 141.83266 241.097737 
L 142.133545 244.004639 
L 143.036199 241.835157 
L 143.337083 238.101104 
L 143.637968 239.549331 
L 143.938852 239.560191 
L 144.239737 241.868747 
L 144.540622 239.174794 
L 144.841506 239.779349 
L 145.142391 240.738403 
L 145.443276 237.030365 
L 145.74416 239.881247 
L 146.045045 239.260245 
L 146.34593 238.981363 
L 146.646814 237.596706 
L 146.947699 234.67411 
L 147.248584 235.679935 
L 147.549468 235.920282 
L 147.850353 237.969449 
L 148.151238 235.667059 
L 148.753007 236.878872 
L 149.053892 233.703967 
L 149.354776 236.273309 
L 149.655661 235.758253 
L 149.956546 235.598947 
L 150.25743 234.550182 
L 150.558315 231.782848 
L 150.8592 232.611236 
L 151.160084 233.103887 
L 151.460969 234.801215 
L 151.761854 232.373728 
L 152.363623 234.007336 
L 152.664508 231.100151 
L 152.965392 233.326729 
L 153.266277 232.878323 
L 153.567162 232.680031 
L 153.868046 232.128209 
L 154.168931 229.59499 
L 154.7707 230.963754 
L 155.071585 232.495527 
L 155.372469 230.397883 
L 155.974239 231.85538 
L 156.275123 229.225448 
L 156.576008 231.262249 
L 156.876893 231.2155 
L 157.177777 230.885677 
L 157.478662 230.313676 
L 157.779547 228.257597 
L 158.080431 228.653875 
L 158.381316 229.638659 
L 158.682201 231.067152 
L 158.983085 229.026181 
L 159.584855 230.452743 
L 159.885739 228.284426 
L 160.186624 230.365544 
L 160.788393 230.017606 
L 161.089278 229.777151 
L 161.390163 227.607094 
L 161.691047 228.266382 
L 162.292817 230.580342 
L 162.593701 228.737523 
L 163.195471 230.15187 
L 163.496355 228.250074 
L 163.79724 230.019259 
L 164.098125 230.069281 
L 164.699894 229.656766 
L 165.000778 228.007367 
L 165.301663 228.480969 
L 165.903432 230.702739 
L 166.204317 228.953521 
L 166.806086 230.471288 
L 167.106971 228.578098 
L 167.407856 230.370764 
L 168.31051 230.389112 
L 168.611394 228.621123 
L 168.912279 229.179334 
L 169.514048 231.399026 
L 169.814933 229.81257 
L 170.416702 231.144585 
L 170.717587 229.616096 
L 171.018472 231.148714 
L 171.620241 231.189676 
L 171.921126 231.083835 
L 172.22201 229.72859 
L 172.522895 230.092176 
L 173.124664 232.137199 
L 173.425549 230.644794 
L 174.027318 231.883381 
L 174.328203 230.404648 
L 174.629088 231.92264 
L 174.929972 231.988218 
L 175.230857 231.885601 
L 175.531742 231.925609 
L 175.832626 230.547977 
L 176.133511 230.851986 
L 176.73528 232.882705 
L 177.036165 231.435792 
L 177.637934 232.572409 
L 177.938819 231.15433 
L 178.239703 232.426868 
L 178.841473 232.476291 
L 179.142357 232.492736 
L 179.443242 231.12626 
L 179.744127 231.570803 
L 180.345896 233.39658 
L 180.646781 231.905998 
L 180.947665 232.333525 
L 181.24855 232.994681 
L 181.549435 231.454061 
L 181.850319 232.855917 
L 182.151204 232.7299 
L 182.752973 232.809387 
L 183.053858 231.762562 
L 183.354743 232.28911 
L 183.956512 234.223373 
L 184.257397 232.94819 
L 184.859166 234.322645 
L 185.160051 232.879293 
L 185.460935 234.526795 
L 186.363589 234.623251 
L 186.664474 233.666351 
L 186.965358 234.144158 
L 187.567128 235.955924 
L 187.868012 234.908938 
L 188.168897 235.397709 
L 188.469782 236.228399 
L 188.770666 234.792202 
L 189.071551 236.405304 
L 189.372436 236.361755 
L 189.974205 236.576184 
L 190.27509 235.492057 
L 190.876859 236.786761 
L 191.177744 237.844996 
L 191.478628 236.869009 
L 191.779513 237.249753 
L 192.080398 237.944321 
L 192.381282 236.503964 
L 192.682167 238.146354 
L 192.983052 238.082146 
L 193.283936 238.182022 
L 193.584821 238.136259 
L 193.885706 237.364441 
L 194.487475 238.575929 
L 194.78836 239.575784 
L 195.089244 238.65562 
L 195.390129 239.017708 
L 195.691014 239.718947 
L 195.991898 238.142389 
L 196.292783 239.854329 
L 196.593668 239.668401 
L 196.894552 239.973919 
L 197.195437 239.756696 
L 197.496322 238.983456 
L 198.398975 241.132895 
L 198.69986 240.423425 
L 199.000745 240.767435 
L 199.301629 241.381981 
L 199.602514 239.835346 
L 199.903399 241.469014 
L 200.204283 241.381901 
L 200.505168 241.680367 
L 200.806053 241.387195 
L 201.106937 240.772345 
L 202.009591 242.771885 
L 202.310476 241.974245 
L 202.611361 242.335011 
L 202.912245 242.988108 
L 203.21313 241.408028 
L 203.514015 243.180541 
L 203.814899 243.092225 
L 204.115784 243.203559 
L 204.416669 242.979043 
L 204.717553 242.270513 
L 205.319323 243.508007 
L 205.620207 244.591901 
L 205.921092 243.643297 
L 206.221977 243.638592 
L 206.522861 244.736 
L 206.823746 243.162972 
L 207.124631 244.638337 
L 207.425515 244.538864 
L 207.7264 244.902001 
L 208.027285 244.565651 
L 208.328169 244.009966 
L 208.629054 244.855434 
L 208.929938 245.127873 
L 209.230823 246.158289 
L 209.531708 245.303537 
L 209.832592 245.568801 
L 210.133477 246.284705 
L 210.434362 244.707406 
L 210.735246 246.211202 
L 211.036131 246.137172 
L 211.337016 246.457453 
L 211.6379 245.94177 
L 211.938785 245.647928 
L 212.841439 247.580827 
L 213.142324 246.810926 
L 213.443208 246.971657 
L 213.744093 247.907733 
L 214.044978 246.114093 
L 214.345862 247.823176 
L 214.646747 247.529206 
L 214.947632 248.022585 
L 215.248516 247.412229 
L 215.549401 247.165515 
L 215.850286 247.90562 
L 216.15117 248.172966 
L 216.452055 248.844134 
L 216.75294 248.520377 
L 217.053824 248.489463 
L 217.354709 249.073459 
L 217.655594 247.628098 
L 217.956478 249.071866 
L 218.257363 248.811755 
L 218.558248 249.294894 
L 219.160017 248.884238 
L 219.761786 249.465112 
L 220.062671 250.589068 
L 220.363555 250.132599 
L 220.66444 250.141211 
L 220.965325 250.572889 
L 221.266209 249.216094 
L 221.567094 250.863967 
L 221.867979 250.418225 
L 222.168863 250.674467 
L 222.469748 250.421296 
L 222.770633 249.987099 
L 223.071517 250.972976 
L 223.372402 251.008637 
L 223.673287 252.099476 
L 223.974171 251.600635 
L 224.275056 251.429376 
L 224.575941 252.005175 
L 224.876825 250.594234 
L 225.17771 252.036412 
L 225.478595 252.052997 
L 225.779479 252.228128 
L 226.080364 251.814624 
L 226.381249 251.876677 
L 226.682133 252.102723 
L 226.983018 252.497027 
L 227.283903 253.350451 
L 227.584787 252.789115 
L 227.885672 252.785146 
L 228.186557 253.512277 
L 228.487441 251.745816 
L 228.788326 253.345734 
L 229.089211 253.312864 
L 229.390095 253.579007 
L 229.69098 253.265558 
L 229.991865 252.76766 
L 230.292749 253.683271 
L 230.593634 253.737745 
L 230.894518 254.671562 
L 231.195403 254.230991 
L 231.496288 254.167895 
L 231.797172 254.524481 
L 232.098057 253.350553 
L 232.398942 254.662978 
L 232.699826 254.717435 
L 233.000711 254.928658 
L 233.301596 254.750779 
L 233.60248 254.282249 
L 233.903365 255.190585 
L 234.20425 255.298524 
L 234.505134 256.525616 
L 234.806019 255.862121 
L 235.106904 255.748073 
L 235.407788 256.064601 
L 235.708673 254.999958 
L 236.009558 256.283792 
L 236.310442 256.288513 
L 236.611327 256.469673 
L 236.912212 255.955656 
L 237.213096 255.7777 
L 237.513981 256.439094 
L 237.814866 256.645806 
L 238.11575 257.59185 
L 238.416635 256.907282 
L 238.71752 256.732103 
L 239.018404 257.614144 
L 239.319289 256.130429 
L 239.620174 257.259063 
L 239.921058 256.945971 
L 240.221943 257.575028 
L 240.522828 257.435258 
L 240.823712 256.902839 
L 241.124597 257.880194 
L 241.425482 257.710813 
L 241.726366 258.602713 
L 242.328135 257.890146 
L 242.62902 258.937497 
L 242.929905 257.347605 
L 243.230789 258.602085 
L 243.531674 258.509612 
L 243.832559 258.931635 
L 244.133443 258.399724 
L 244.434328 258.243368 
L 244.735213 259.160861 
L 245.036097 259.243052 
L 245.336982 260.530828 
L 245.637867 259.651522 
L 245.938751 259.617153 
L 246.239636 259.95314 
L 246.540521 258.860659 
L 246.841405 259.937506 
L 247.14229 259.75614 
L 247.443175 260.040779 
L 247.744059 259.681459 
L 248.044944 259.576568 
L 248.345829 260.258698 
L 248.947598 261.079952 
L 249.248483 260.894867 
L 249.549367 260.556485 
L 249.850252 261.581059 
L 250.151137 260.062559 
L 250.452021 261.057193 
L 251.053791 261.299799 
L 251.65556 260.944217 
L 251.956445 261.658282 
L 252.257329 261.574811 
L 252.558214 262.642812 
L 252.859098 262.572636 
L 253.159983 261.821696 
L 253.460868 262.85645 
L 253.761752 261.416314 
L 254.062637 262.38697 
L 254.363522 262.216809 
L 254.664406 262.669064 
L 254.965291 262.202962 
L 255.266176 262.168395 
L 255.56706 262.940855 
L 255.867945 262.846666 
L 256.16883 263.639199 
L 256.469714 263.276077 
L 256.770599 263.2718 
L 257.071484 263.492015 
L 257.372368 262.490833 
L 257.673253 263.750425 
L 257.974138 263.252162 
L 258.275022 263.782414 
L 258.575907 263.15755 
L 258.876792 263.31218 
L 259.177676 264.008427 
L 259.478561 264.255335 
L 259.779446 264.674195 
L 260.08033 264.597138 
L 260.381215 264.19386 
L 260.6821 264.835801 
L 260.982984 263.688492 
L 261.283869 264.839715 
L 261.584754 264.265754 
L 261.885638 264.773436 
L 262.186523 264.020467 
L 262.487408 264.580211 
L 262.788292 265.593877 
L 263.089177 265.216999 
L 263.390062 266.140592 
L 263.991831 265.730558 
L 264.292715 265.879166 
L 264.5936 264.957378 
L 264.894485 266.138921 
L 265.195369 265.67142 
L 265.496254 266.218587 
L 265.797139 265.791669 
L 266.098023 265.572598 
L 266.398908 266.804678 
L 266.699793 266.39387 
L 267.000677 267.269397 
L 267.602447 266.538681 
L 267.903331 267.342044 
L 268.204216 265.864369 
L 268.505101 267.069751 
L 268.805985 266.871219 
L 269.10687 267.158702 
L 269.407755 267.089865 
L 269.708639 266.831741 
L 270.009524 267.72324 
L 270.310409 267.630135 
L 270.611293 268.062329 
L 271.213063 267.693246 
L 271.513947 268.190305 
L 271.814832 267.179812 
L 272.115717 268.192187 
L 272.416601 267.899656 
L 272.717486 268.369369 
L 273.018371 267.925105 
L 273.319255 268.055485 
L 273.62014 269.117425 
L 273.921025 268.105833 
L 274.221909 269.445759 
L 274.823678 268.749404 
L 275.124563 269.617805 
L 275.425448 268.298419 
L 275.726332 269.319779 
L 276.027217 269.088911 
L 276.328102 269.429388 
L 276.628986 268.88367 
L 276.929871 269.225001 
L 277.230756 270.22088 
L 277.53164 269.49823 
L 277.832525 270.343474 
L 278.13341 270.500429 
L 278.434294 269.870144 
L 278.735179 270.455089 
L 279.036064 269.323801 
L 279.336948 270.288702 
L 279.637833 270.050023 
L 279.938718 270.782963 
L 280.239602 269.884321 
L 280.540487 269.996829 
L 280.841372 270.874456 
L 281.142256 270.482147 
L 281.443141 271.251934 
L 281.744026 271.481279 
L 282.04491 270.851102 
L 282.345795 271.25592 
L 282.64668 270.265633 
L 282.947564 271.153562 
L 283.248449 271.559514 
L 283.549334 271.226962 
L 283.850218 271.093724 
L 284.451988 271.880013 
L 284.752872 271.724917 
L 285.053757 272.723869 
L 285.354642 272.671644 
L 285.655526 272.17937 
L 285.956411 272.325743 
L 286.257295 271.485989 
L 286.55818 272.030089 
L 286.859065 272.004923 
L 287.159949 272.635019 
L 287.761719 271.959393 
L 288.062603 272.731782 
L 288.363488 272.654004 
L 288.664373 273.196234 
L 288.965257 273.447236 
L 289.266142 273.073638 
L 289.567027 273.257666 
L 289.867911 272.27096 
L 290.168796 273.117056 
L 290.469681 273.208534 
L 290.770565 273.559498 
L 291.07145 272.859844 
L 291.372335 273.184084 
L 291.673219 274.470857 
L 291.974104 273.766172 
L 292.274989 274.665239 
L 292.575873 274.263014 
L 292.876758 274.353105 
L 293.177643 274.610858 
L 293.478527 273.319553 
L 293.779412 274.035473 
L 294.381181 274.49025 
L 294.682066 273.931858 
L 294.982951 273.660645 
L 295.283835 275.349172 
L 295.58472 274.592384 
L 295.885605 275.403719 
L 296.186489 275.524665 
L 296.487374 275.37272 
L 296.788258 275.349542 
L 297.089143 274.404921 
L 297.390028 275.120826 
L 297.690912 275.163913 
L 297.991797 275.038484 
L 298.292682 274.697788 
L 298.894451 275.935512 
L 299.195336 275.657265 
L 299.49622 276.336021 
L 300.09799 275.752855 
L 300.398874 276.582035 
L 300.699759 275.43041 
L 301.301528 276.351017 
L 301.602413 276.348622 
L 301.903298 276.047329 
L 302.204182 276.417096 
L 302.505067 277.148101 
L 302.805952 276.436848 
L 303.106836 277.557991 
L 303.407721 277.174532 
L 303.708606 276.993817 
L 304.00949 277.105421 
L 304.310375 276.136386 
L 304.61126 276.823646 
L 304.912144 277.187028 
L 305.213029 277.216195 
L 305.513914 276.985961 
L 306.115683 277.802195 
L 306.416568 277.308082 
L 306.717452 278.534924 
L 307.018337 278.300461 
L 307.319222 277.120905 
L 307.620106 278.498262 
L 307.920991 277.274066 
L 308.823645 278.606243 
L 309.124529 277.678044 
L 309.425414 277.665064 
L 309.726299 278.959207 
L 310.027183 278.265359 
L 310.628953 279.458457 
L 310.929837 278.723172 
L 311.230722 279.287176 
L 311.531607 277.781642 
L 311.832491 278.296726 
L 312.133376 278.374802 
L 312.434261 278.823678 
L 312.735145 278.410238 
L 313.336915 279.787503 
L 313.637799 279.521223 
L 313.938684 280.240818 
L 314.239569 280.249906 
L 314.540453 279.448587 
L 314.841338 279.453244 
L 315.142223 278.879619 
L 315.443107 279.162034 
L 315.743992 280.061886 
L 316.044877 279.906326 
L 316.345761 279.232706 
L 316.646646 279.713172 
L 316.947531 280.697095 
L 317.248415 279.78213 
L 317.5493 280.723728 
L 317.850185 280.773579 
L 318.151069 280.483118 
L 318.451954 280.489163 
L 318.752838 279.810156 
L 319.053723 280.665843 
L 319.354608 280.242603 
L 319.655492 280.576084 
L 319.956377 280.328147 
L 320.257262 280.465401 
L 320.558146 281.767664 
L 320.859031 280.971024 
L 321.159916 281.852842 
L 321.761685 281.200812 
L 322.06257 281.681527 
L 322.363454 280.279769 
L 322.664339 281.384288 
L 322.965224 281.217456 
L 323.266108 281.501135 
L 323.566993 280.965796 
L 323.867878 281.220927 
L 324.168762 282.293215 
L 324.469647 281.684308 
L 325.071416 282.682813 
L 325.372301 281.829452 
L 325.673186 282.434119 
L 325.97407 281.10956 
L 326.274955 282.176954 
L 326.876724 282.625971 
L 327.177609 281.863153 
L 327.478494 282.487765 
L 327.779378 282.817803 
L 328.080263 282.13049 
L 328.381148 283.305728 
L 328.682032 283.325161 
L 328.982917 282.426632 
L 329.283801 283.415874 
L 329.584686 282.283062 
L 329.885571 282.674246 
L 330.186455 283.247683 
L 330.48734 283.194789 
L 330.788225 282.243062 
L 331.389994 284.280882 
L 331.690879 283.399238 
L 331.991763 283.730531 
L 332.292648 284.530622 
L 332.593533 283.567033 
L 332.894417 283.788179 
L 333.195302 282.818629 
L 333.496187 283.825587 
L 333.797071 283.50312 
L 334.097956 283.882336 
L 334.398841 283.288379 
L 334.699725 284.26411 
L 335.00061 284.488057 
L 335.301495 284.091837 
L 335.903264 284.976738 
L 336.204149 283.966281 
L 336.505033 284.527674 
L 336.805918 284.427311 
L 337.106803 284.516574 
L 337.407687 284.463189 
L 337.708572 284.571924 
L 338.009457 284.243118 
L 338.310341 284.658847 
L 338.611226 285.839716 
L 338.912111 284.537362 
L 339.51388 285.860512 
L 339.814765 284.856707 
L 340.115649 285.41549 
L 340.416534 284.484278 
L 340.717418 284.540609 
L 341.319188 285.820032 
L 341.620072 285.122749 
L 341.920957 285.323172 
L 342.221842 286.779977 
L 342.522726 285.206346 
L 342.823611 286.092007 
L 343.124496 286.129262 
L 343.42538 285.376296 
L 343.726265 286.274366 
L 344.02715 284.995065 
L 344.328034 286.140286 
L 344.929804 286.187421 
L 345.230688 285.722907 
L 345.531573 285.706906 
L 345.832458 286.684365 
L 346.133342 286.455109 
L 346.735112 287.263577 
L 347.035996 286.398162 
L 347.336881 287.071295 
L 347.637766 285.831106 
L 347.93865 286.635708 
L 348.239535 286.415565 
L 348.54042 286.991311 
L 348.841304 285.974472 
L 349.142189 286.518084 
L 349.443074 287.416673 
L 349.743958 286.702222 
L 350.044843 287.893616 
L 350.345728 287.451126 
L 350.646612 286.805197 
L 350.947497 287.253292 
L 351.248381 286.483081 
L 352.151035 287.481889 
L 352.45192 286.992233 
L 352.752805 286.980997 
L 353.053689 287.760115 
L 353.354574 287.92116 
L 353.655459 288.513345 
L 353.956343 288.569957 
L 354.257228 287.72913 
L 354.558113 287.756446 
L 354.858997 287.465217 
L 355.460767 287.881204 
L 355.761651 288.534213 
L 356.062536 287.446935 
L 356.363421 287.668383 
L 356.664305 288.782914 
L 356.96519 288.202395 
L 357.266075 288.86728 
L 357.566959 288.807118 
L 357.867844 288.605007 
L 358.168729 288.696605 
L 358.469613 288.423324 
L 359.071383 288.685167 
L 359.372267 289.511412 
L 359.673152 288.211206 
L 360.274921 289.294324 
L 360.575806 288.955516 
L 360.876691 289.626758 
L 361.177575 289.930375 
L 361.47846 288.693337 
L 361.779345 289.544354 
L 362.080229 288.876289 
L 362.681998 289.480284 
L 363.584652 289.01717 
L 363.885537 290.477578 
L 364.186422 289.620076 
L 364.487306 290.512685 
L 364.788191 290.493973 
L 365.089076 290.195053 
L 365.38996 289.571693 
L 365.690845 289.309577 
L 365.99173 289.969116 
L 366.593499 290.088881 
L 366.894384 289.494051 
L 367.195268 290.354793 
L 367.797038 290.346128 
L 368.097922 291.088263 
L 368.398807 291.396566 
L 368.699692 290.223433 
L 369.000576 290.13899 
L 369.301461 289.864111 
L 369.602346 290.688546 
L 369.90323 290.342715 
L 370.204115 291.127123 
L 370.505 289.863518 
L 371.106769 291.181856 
L 371.407654 290.517292 
L 371.708538 291.649599 
L 372.009423 291.967986 
L 372.310308 291.295951 
L 372.611192 291.36085 
L 372.912077 290.334545 
L 373.513846 291.19787 
L 373.814731 291.617115 
L 374.115615 290.481652 
L 374.4165 291.074612 
L 374.717385 292.27993 
L 375.018269 291.250871 
L 375.319154 292.220802 
L 375.620039 292.602402 
L 375.920923 291.055861 
L 376.221808 291.569561 
L 376.522693 290.870551 
L 376.823577 291.180627 
L 377.124462 291.663195 
L 377.425347 291.369579 
L 377.726231 291.27916 
L 378.027116 292.057883 
L 378.328001 292.486002 
L 378.628885 291.917293 
L 378.92977 292.612928 
L 379.230655 292.690887 
L 379.531539 292.109752 
L 379.832424 292.41415 
L 380.133309 291.95286 
L 380.735078 292.233471 
L 381.035963 292.728744 
L 381.336847 291.431821 
L 381.637732 292.624169 
L 381.938617 293.279601 
L 382.239501 292.14009 
L 382.540386 293.489499 
L 382.841271 293.481016 
L 383.743925 292.263882 
L 384.044809 292.611231 
L 384.345694 292.655077 
L 384.646578 292.942956 
L 384.947463 292.558498 
L 385.248348 293.297996 
L 385.549232 293.562983 
L 385.850117 292.838267 
L 386.151002 293.786613 
L 386.451886 293.560444 
L 386.752771 293.035475 
L 387.053656 293.155231 
L 387.35454 293.091214 
L 387.655425 293.557558 
L 387.95631 293.643098 
L 388.257194 293.431533 
L 388.558079 292.767905 
L 388.858964 293.238042 
L 389.159848 294.319916 
L 389.460733 293.610714 
L 390.062502 294.830313 
L 390.363387 293.775651 
L 390.664272 293.85807 
L 390.965156 293.314449 
L 391.86781 294.334931 
L 392.168695 293.037378 
L 392.770464 294.636627 
L 393.071349 294.366503 
L 393.372234 294.612081 
L 393.673118 294.668052 
L 393.974003 294.555837 
L 394.274888 295.100128 
L 394.575772 293.743903 
L 394.876657 293.891184 
L 395.478426 294.518691 
L 395.779311 294.101639 
L 396.080195 294.444911 
L 396.38108 295.44409 
L 396.681965 294.90692 
L 396.982849 295.467674 
L 397.283734 295.488 
L 397.584619 294.678658 
L 397.885503 295.2711 
L 398.186388 294.761257 
L 398.487273 294.770842 
L 398.487273 294.770842 
" clip-path="url(#p0449f48365)" style="fill: none; stroke: #dc143c; stroke-width: 2; stroke-linecap: square"/>
   </g>
   <g id="line2d_33">
    <path d="M 73.832727 189.292547 
L 77.142459 189.292547 
L 77.443343 189.803876 
L 80.753074 189.803876 
L 81.053959 190.0227 
L 91.584922 189.936859 
L 91.885807 189.766901 
L 95.195538 189.766901 
L 95.496423 189.56998 
L 98.806154 189.56998 
L 99.107039 189.401343 
L 102.41677 189.401343 
L 103.018539 189.289518 
L 113.248617 189.349915 
L 113.549502 189.528609 
L 116.859233 189.528609 
L 117.160118 189.787842 
L 120.469849 189.787842 
L 120.770734 190.105998 
L 124.080465 190.105998 
L 124.38135 190.460546 
L 127.691081 190.460546 
L 127.991966 190.830804 
L 131.301697 190.830804 
L 131.602582 191.196982 
L 134.912313 191.196982 
L 135.213197 191.607631 
L 138.522929 191.607631 
L 138.823813 192.120705 
L 142.133545 192.120705 
L 142.434429 193.073862 
L 145.74416 193.073862 
L 146.045045 195.00855 
L 149.354776 195.00855 
L 149.655661 196.295286 
L 152.965392 196.295286 
L 153.266277 196.897033 
L 156.576008 196.897033 
L 156.876893 197.403239 
L 160.186624 197.403239 
L 160.487509 197.910416 
L 163.79724 197.910416 
L 164.098125 198.400571 
L 167.407856 198.400571 
L 167.70874 198.770739 
L 171.018472 198.770739 
L 171.319356 199.080294 
L 174.629088 199.080294 
L 174.929972 199.300341 
L 178.239703 199.300341 
L 178.540588 199.524621 
L 196.292783 199.622389 
L 196.894552 199.738501 
L 199.903399 199.738501 
L 200.204283 199.956858 
L 203.514015 199.956858 
L 203.814899 200.247009 
L 207.124631 200.247009 
L 207.425515 200.59194 
L 210.735246 200.59194 
L 211.036131 200.97221 
L 214.345862 200.97221 
L 214.646747 201.523212 
L 217.956478 201.523212 
L 218.257363 201.956276 
L 221.567094 201.956276 
L 221.867979 202.545763 
L 225.17771 202.545763 
L 225.478595 203.210001 
L 228.788326 203.210001 
L 229.089211 203.848426 
L 232.398942 203.848426 
L 232.699826 204.442649 
L 236.009558 204.442649 
L 236.310442 205.221669 
L 239.620174 205.221669 
L 239.921058 205.954869 
L 243.230789 205.954869 
L 243.531674 206.681877 
L 246.841405 206.681877 
L 247.14229 207.437502 
L 250.452021 207.437502 
L 250.752906 208.167683 
L 254.062637 208.167683 
L 254.363522 208.907705 
L 257.673253 208.907705 
L 257.974138 209.686383 
L 261.283869 209.686383 
L 261.584754 210.425543 
L 264.894485 210.425543 
L 265.195369 211.215618 
L 268.505101 211.215618 
L 268.805985 211.968519 
L 272.115717 211.968519 
L 272.416601 212.663792 
L 275.726332 212.663792 
L 276.027217 213.452446 
L 279.336948 213.452446 
L 279.637833 214.24147 
L 282.947564 214.24147 
L 283.248449 214.974796 
L 286.55818 214.974796 
L 286.859065 215.728453 
L 290.168796 215.728453 
L 290.469681 216.378211 
L 293.779412 216.378211 
L 294.080297 217.020222 
L 297.390028 217.020222 
L 297.690912 217.729767 
L 301.000644 217.729767 
L 301.301528 218.400188 
L 304.61126 218.400188 
L 304.912144 218.977712 
L 308.221875 218.977712 
L 308.52276 219.706473 
L 311.832491 219.706473 
L 312.133376 220.327857 
L 315.443107 220.327857 
L 315.743992 220.717089 
L 319.053723 220.717089 
L 319.354608 221.350184 
L 322.664339 221.350184 
L 322.965224 221.867203 
L 326.274955 221.867203 
L 326.57584 222.448735 
L 329.885571 222.448735 
L 330.186455 222.864139 
L 333.496187 222.864139 
L 333.797071 223.374489 
L 337.106803 223.374489 
L 337.407687 224.141276 
L 340.717418 224.141276 
L 341.018303 224.383963 
L 344.328034 224.383963 
L 344.628919 224.907687 
L 347.93865 224.907687 
L 348.239535 225.565067 
L 351.549266 225.565067 
L 351.850151 225.918086 
L 355.159882 225.918086 
L 355.460767 226.213495 
L 358.770498 226.213495 
L 359.071383 226.66653 
L 362.381114 226.66653 
L 362.681998 227.111908 
L 365.99173 227.111908 
L 366.292614 227.53194 
L 369.602346 227.53194 
L 369.90323 228.094437 
L 373.212961 228.094437 
L 373.513846 228.54722 
L 376.823577 228.54722 
L 377.124462 228.747853 
L 380.434193 228.747853 
L 380.735078 229.174222 
L 384.044809 229.174222 
L 384.345694 229.421959 
L 387.655425 229.421959 
L 387.95631 229.931968 
L 391.266041 229.931968 
L 391.566926 230.370874 
L 394.876657 230.370874 
L 395.177541 230.572936 
L 398.487273 230.572936 
L 398.487273 230.572936 
" clip-path="url(#p0449f48365)" style="fill: none; stroke: #ffff00; stroke-width: 3; stroke-linecap: square"/>
   </g>
   <g id="patch_3">
    <path d="M 57.6 307.584 
L 57.6 41.472 
" style="fill: none; stroke: #ffffff; stroke-linejoin: miter; stroke-linecap: square"/>
   </g>
   <g id="patch_4">
    <path d="M 414.72 307.584 
L 414.72 41.472 
" style="fill: none; stroke: #ffffff; stroke-linejoin: miter; stroke-linecap: square"/>
   </g>
   <g id="patch_5">
    <path d="M 57.6 307.584 
L 414.72 307.584 
" style="fill: none; stroke: #ffffff; stroke-linejoin: miter; stroke-linecap: square"/>
   </g>
   <g id="patch_6">
    <path d="M 57.6 41.472 
L 414.72 41.472 
" style="fill: none; stroke: #ffffff; stroke-linejoin: miter; stroke-linecap: square"/>
   </g>
   <g id="legend_1">
    <g id="patch_7">
     <path d="M 243.124687 302.584 
L 407.72 302.584 
Q 409.72 302.584 409.72 300.584 
L 409.72 257.549625 
Q 409.72 255.549625 407.72 255.549625 
L 243.124687 255.549625 
Q 241.124687 255.549625 241.124687 257.549625 
L 241.124687 300.584 
Q 241.124687 302.584 243.124687 302.584 
z
" style="fill: #e5e5e5; opacity: 0.8; stroke: #cccccc; stroke-width: 0.5; stroke-linejoin: miter"/>
    </g>
    <g id="line2d_34">
     <path d="M 245.124687 263.648062 
L 255.124687 263.648062 
L 265.124687 263.648062 
" style="fill: none; stroke: #6495ed; stroke-width: 2; stroke-linecap: square"/>
    </g>
    <g id="text_18">
     <!-- Generator loss -->
     <g transform="translate(273.124687 267.148062) scale(0.1 -0.1)">
      <defs>
       <path id="DejaVuSans-47" d="M 3809 666 
L 3809 1919 
L 2778 1919 
L 2778 2438 
L 4434 2438 
L 4434 434 
Q 4069 175 3628 42 
Q 3188 -91 2688 -91 
Q 1594 -91 976 548 
Q 359 1188 359 2328 
Q 359 3472 976 4111 
Q 1594 4750 2688 4750 
Q 3144 4750 3555 4637 
Q 3966 4525 4313 4306 
L 4313 3634 
Q 3963 3931 3569 4081 
Q 3175 4231 2741 4231 
Q 1884 4231 1454 3753 
Q 1025 3275 1025 2328 
Q 1025 1384 1454 906 
Q 1884 428 2741 428 
Q 3075 428 3337 486 
Q 3600 544 3809 666 
z
" transform="scale(0.015625)"/>
       <path id="DejaVuSans-65" d="M 3597 1894 
L 3597 1613 
L 953 1613 
Q 991 1019 1311 708 
Q 1631 397 2203 397 
Q 2534 397 2845 478 
Q 3156 559 3463 722 
L 3463 178 
Q 3153 47 2828 -22 
Q 2503 -91 2169 -91 
Q 1331 -91 842 396 
Q 353 884 353 1716 
Q 353 2575 817 3079 
Q 1281 3584 2069 3584 
Q 2775 3584 3186 3129 
Q 3597 2675 3597 1894 
z
M 3022 2063 
Q 3016 2534 2758 2815 
Q 2500 3097 2075 3097 
Q 1594 3097 1305 2825 
Q 1016 2553 972 2059 
L 3022 2063 
z
" transform="scale(0.015625)"/>
       <path id="DejaVuSans-6e" d="M 3513 2113 
L 3513 0 
L 2938 0 
L 2938 2094 
Q 2938 2591 2744 2837 
Q 2550 3084 2163 3084 
Q 1697 3084 1428 2787 
Q 1159 2491 1159 1978 
L 1159 0 
L 581 0 
L 581 3500 
L 1159 3500 
L 1159 2956 
Q 1366 3272 1645 3428 
Q 1925 3584 2291 3584 
Q 2894 3584 3203 3211 
Q 3513 2838 3513 2113 
z
" transform="scale(0.015625)"/>
       <path id="DejaVuSans-72" d="M 2631 2963 
Q 2534 3019 2420 3045 
Q 2306 3072 2169 3072 
Q 1681 3072 1420 2755 
Q 1159 2438 1159 1844 
L 1159 0 
L 581 0 
L 581 3500 
L 1159 3500 
L 1159 2956 
Q 1341 3275 1631 3429 
Q 1922 3584 2338 3584 
Q 2397 3584 2469 3576 
Q 2541 3569 2628 3553 
L 2631 2963 
z
" transform="scale(0.015625)"/>
       <path id="DejaVuSans-61" d="M 2194 1759 
Q 1497 1759 1228 1600 
Q 959 1441 959 1056 
Q 959 750 1161 570 
Q 1363 391 1709 391 
Q 2188 391 2477 730 
Q 2766 1069 2766 1631 
L 2766 1759 
L 2194 1759 
z
M 3341 1997 
L 3341 0 
L 2766 0 
L 2766 531 
Q 2569 213 2275 61 
Q 1981 -91 1556 -91 
Q 1019 -91 701 211 
Q 384 513 384 1019 
Q 384 1609 779 1909 
Q 1175 2209 1959 2209 
L 2766 2209 
L 2766 2266 
Q 2766 2663 2505 2880 
Q 2244 3097 1772 3097 
Q 1472 3097 1187 3025 
Q 903 2953 641 2809 
L 641 3341 
Q 956 3463 1253 3523 
Q 1550 3584 1831 3584 
Q 2591 3584 2966 3190 
Q 3341 2797 3341 1997 
z
" transform="scale(0.015625)"/>
       <path id="DejaVuSans-74" d="M 1172 4494 
L 1172 3500 
L 2356 3500 
L 2356 3053 
L 1172 3053 
L 1172 1153 
Q 1172 725 1289 603 
Q 1406 481 1766 481 
L 2356 481 
L 2356 0 
L 1766 0 
Q 1100 0 847 248 
Q 594 497 594 1153 
L 594 3053 
L 172 3053 
L 172 3500 
L 594 3500 
L 594 4494 
L 1172 4494 
z
" transform="scale(0.015625)"/>
       <path id="DejaVuSans-20" transform="scale(0.015625)"/>
       <path id="DejaVuSans-6c" d="M 603 4863 
L 1178 4863 
L 1178 0 
L 603 0 
L 603 4863 
z
" transform="scale(0.015625)"/>
      </defs>
      <use xlink:href="#DejaVuSans-47"/>
      <use xlink:href="#DejaVuSans-65" x="77.490234"/>
      <use xlink:href="#DejaVuSans-6e" x="139.013672"/>
      <use xlink:href="#DejaVuSans-65" x="202.392578"/>
      <use xlink:href="#DejaVuSans-72" x="263.916016"/>
      <use xlink:href="#DejaVuSans-61" x="305.029297"/>
      <use xlink:href="#DejaVuSans-74" x="366.308594"/>
      <use xlink:href="#DejaVuSans-6f" x="405.517578"/>
      <use xlink:href="#DejaVuSans-72" x="466.699219"/>
      <use xlink:href="#DejaVuSans-20" x="507.8125"/>
      <use xlink:href="#DejaVuSans-6c" x="539.599609"/>
      <use xlink:href="#DejaVuSans-6f" x="567.382812"/>
      <use xlink:href="#DejaVuSans-73" x="628.564453"/>
      <use xlink:href="#DejaVuSans-73" x="680.664062"/>
     </g>
    </g>
    <g id="line2d_35">
     <path d="M 245.124687 278.326188 
L 255.124687 278.326188 
L 265.124687 278.326188 
" style="fill: none; stroke: #dc143c; stroke-width: 2; stroke-linecap: square"/>
    </g>
    <g id="text_19">
     <!-- Average discriminator loss -->
     <g transform="translate(273.124687 281.826188) scale(0.1 -0.1)">
      <defs>
       <path id="DejaVuSans-41" d="M 2188 4044 
L 1331 1722 
L 3047 1722 
L 2188 4044 
z
M 1831 4666 
L 2547 4666 
L 4325 0 
L 3669 0 
L 3244 1197 
L 1141 1197 
L 716 0 
L 50 0 
L 1831 4666 
z
" transform="scale(0.015625)"/>
       <path id="DejaVuSans-76" d="M 191 3500 
L 800 3500 
L 1894 563 
L 2988 3500 
L 3597 3500 
L 2284 0 
L 1503 0 
L 191 3500 
z
" transform="scale(0.015625)"/>
       <path id="DejaVuSans-67" d="M 2906 1791 
Q 2906 2416 2648 2759 
Q 2391 3103 1925 3103 
Q 1463 3103 1205 2759 
Q 947 2416 947 1791 
Q 947 1169 1205 825 
Q 1463 481 1925 481 
Q 2391 481 2648 825 
Q 2906 1169 2906 1791 
z
M 3481 434 
Q 3481 -459 3084 -895 
Q 2688 -1331 1869 -1331 
Q 1566 -1331 1297 -1286 
Q 1028 -1241 775 -1147 
L 775 -588 
Q 1028 -725 1275 -790 
Q 1522 -856 1778 -856 
Q 2344 -856 2625 -561 
Q 2906 -266 2906 331 
L 2906 616 
Q 2728 306 2450 153 
Q 2172 0 1784 0 
Q 1141 0 747 490 
Q 353 981 353 1791 
Q 353 2603 747 3093 
Q 1141 3584 1784 3584 
Q 2172 3584 2450 3431 
Q 2728 3278 2906 2969 
L 2906 3500 
L 3481 3500 
L 3481 434 
z
" transform="scale(0.015625)"/>
       <path id="DejaVuSans-64" d="M 2906 2969 
L 2906 4863 
L 3481 4863 
L 3481 0 
L 2906 0 
L 2906 525 
Q 2725 213 2448 61 
Q 2172 -91 1784 -91 
Q 1150 -91 751 415 
Q 353 922 353 1747 
Q 353 2572 751 3078 
Q 1150 3584 1784 3584 
Q 2172 3584 2448 3432 
Q 2725 3281 2906 2969 
z
M 947 1747 
Q 947 1113 1208 752 
Q 1469 391 1925 391 
Q 2381 391 2643 752 
Q 2906 1113 2906 1747 
Q 2906 2381 2643 2742 
Q 2381 3103 1925 3103 
Q 1469 3103 1208 2742 
Q 947 2381 947 1747 
z
" transform="scale(0.015625)"/>
       <path id="DejaVuSans-69" d="M 603 3500 
L 1178 3500 
L 1178 0 
L 603 0 
L 603 3500 
z
M 603 4863 
L 1178 4863 
L 1178 4134 
L 603 4134 
L 603 4863 
z
" transform="scale(0.015625)"/>
       <path id="DejaVuSans-6d" d="M 3328 2828 
Q 3544 3216 3844 3400 
Q 4144 3584 4550 3584 
Q 5097 3584 5394 3201 
Q 5691 2819 5691 2113 
L 5691 0 
L 5113 0 
L 5113 2094 
Q 5113 2597 4934 2840 
Q 4756 3084 4391 3084 
Q 3944 3084 3684 2787 
Q 3425 2491 3425 1978 
L 3425 0 
L 2847 0 
L 2847 2094 
Q 2847 2600 2669 2842 
Q 2491 3084 2119 3084 
Q 1678 3084 1418 2786 
Q 1159 2488 1159 1978 
L 1159 0 
L 581 0 
L 581 3500 
L 1159 3500 
L 1159 2956 
Q 1356 3278 1631 3431 
Q 1906 3584 2284 3584 
Q 2666 3584 2933 3390 
Q 3200 3197 3328 2828 
z
" transform="scale(0.015625)"/>
      </defs>
      <use xlink:href="#DejaVuSans-41"/>
      <use xlink:href="#DejaVuSans-76" x="62.533203"/>
      <use xlink:href="#DejaVuSans-65" x="121.712891"/>
      <use xlink:href="#DejaVuSans-72" x="183.236328"/>
      <use xlink:href="#DejaVuSans-61" x="224.349609"/>
      <use xlink:href="#DejaVuSans-67" x="285.628906"/>
      <use xlink:href="#DejaVuSans-65" x="349.105469"/>
      <use xlink:href="#DejaVuSans-20" x="410.628906"/>
      <use xlink:href="#DejaVuSans-64" x="442.416016"/>
      <use xlink:href="#DejaVuSans-69" x="505.892578"/>
      <use xlink:href="#DejaVuSans-73" x="533.675781"/>
      <use xlink:href="#DejaVuSans-63" x="585.775391"/>
      <use xlink:href="#DejaVuSans-72" x="640.755859"/>
      <use xlink:href="#DejaVuSans-69" x="681.869141"/>
      <use xlink:href="#DejaVuSans-6d" x="709.652344"/>
      <use xlink:href="#DejaVuSans-69" x="807.064453"/>
      <use xlink:href="#DejaVuSans-6e" x="834.847656"/>
      <use xlink:href="#DejaVuSans-61" x="898.226562"/>
      <use xlink:href="#DejaVuSans-74" x="959.505859"/>
      <use xlink:href="#DejaVuSans-6f" x="998.714844"/>
      <use xlink:href="#DejaVuSans-72" x="1059.896484"/>
      <use xlink:href="#DejaVuSans-20" x="1101.009766"/>
      <use xlink:href="#DejaVuSans-6c" x="1132.796875"/>
      <use xlink:href="#DejaVuSans-6f" x="1160.580078"/>
      <use xlink:href="#DejaVuSans-73" x="1221.761719"/>
      <use xlink:href="#DejaVuSans-73" x="1273.861328"/>
     </g>
    </g>
    <g id="line2d_36">
     <path d="M 245.124687 293.004312 
L 255.124687 293.004312 
L 265.124687 293.004312 
" style="fill: none; stroke: #ffff00; stroke-width: 3; stroke-linecap: square"/>
    </g>
    <g id="text_20">
     <!-- ROC AUC -->
     <g transform="translate(273.124687 296.504312) scale(0.1 -0.1)">
      <defs>
       <path id="DejaVuSans-52" d="M 2841 2188 
Q 3044 2119 3236 1894 
Q 3428 1669 3622 1275 
L 4263 0 
L 3584 0 
L 2988 1197 
Q 2756 1666 2539 1819 
Q 2322 1972 1947 1972 
L 1259 1972 
L 1259 0 
L 628 0 
L 628 4666 
L 2053 4666 
Q 2853 4666 3247 4331 
Q 3641 3997 3641 3322 
Q 3641 2881 3436 2590 
Q 3231 2300 2841 2188 
z
M 1259 4147 
L 1259 2491 
L 2053 2491 
Q 2509 2491 2742 2702 
Q 2975 2913 2975 3322 
Q 2975 3731 2742 3939 
Q 2509 4147 2053 4147 
L 1259 4147 
z
" transform="scale(0.015625)"/>
       <path id="DejaVuSans-4f" d="M 2522 4238 
Q 1834 4238 1429 3725 
Q 1025 3213 1025 2328 
Q 1025 1447 1429 934 
Q 1834 422 2522 422 
Q 3209 422 3611 934 
Q 4013 1447 4013 2328 
Q 4013 3213 3611 3725 
Q 3209 4238 2522 4238 
z
M 2522 4750 
Q 3503 4750 4090 4092 
Q 4678 3434 4678 2328 
Q 4678 1225 4090 567 
Q 3503 -91 2522 -91 
Q 1538 -91 948 565 
Q 359 1222 359 2328 
Q 359 3434 948 4092 
Q 1538 4750 2522 4750 
z
" transform="scale(0.015625)"/>
       <path id="DejaVuSans-43" d="M 4122 4306 
L 4122 3641 
Q 3803 3938 3442 4084 
Q 3081 4231 2675 4231 
Q 1875 4231 1450 3742 
Q 1025 3253 1025 2328 
Q 1025 1406 1450 917 
Q 1875 428 2675 428 
Q 3081 428 3442 575 
Q 3803 722 4122 1019 
L 4122 359 
Q 3791 134 3420 21 
Q 3050 -91 2638 -91 
Q 1578 -91 968 557 
Q 359 1206 359 2328 
Q 359 3453 968 4101 
Q 1578 4750 2638 4750 
Q 3056 4750 3426 4639 
Q 3797 4528 4122 4306 
z
" transform="scale(0.015625)"/>
       <path id="DejaVuSans-55" d="M 556 4666 
L 1191 4666 
L 1191 1831 
Q 1191 1081 1462 751 
Q 1734 422 2344 422 
Q 2950 422 3222 751 
Q 3494 1081 3494 1831 
L 3494 4666 
L 4128 4666 
L 4128 1753 
Q 4128 841 3676 375 
Q 3225 -91 2344 -91 
Q 1459 -91 1007 375 
Q 556 841 556 1753 
L 556 4666 
z
" transform="scale(0.015625)"/>
      </defs>
      <use xlink:href="#DejaVuSans-52"/>
      <use xlink:href="#DejaVuSans-4f" x="69.482422"/>
      <use xlink:href="#DejaVuSans-43" x="148.193359"/>
      <use xlink:href="#DejaVuSans-20" x="218.017578"/>
      <use xlink:href="#DejaVuSans-41" x="249.804688"/>
      <use xlink:href="#DejaVuSans-55" x="318.212891"/>
      <use xlink:href="#DejaVuSans-43" x="391.40625"/>
     </g>
    </g>
   </g>
  </g>
 </g>
 <defs>
  <clipPath id="p0449f48365">
   <rect x="57.6" y="41.472" width="357.12" height="266.112"/>
  </clipPath>
 </defs>
</svg>
