<?xml version="1.0" encoding="utf-8" standalone="no"?>
<!DOCTYPE svg PUBLIC "-//W3C//DTD SVG 1.1//EN"
  "http://www.w3.org/Graphics/SVG/1.1/DTD/svg11.dtd">
<svg xmlns:xlink="http://www.w3.org/1999/xlink" width="460.8pt" height="345.6pt" viewBox="0 0 460.8 345.6" xmlns="http://www.w3.org/2000/svg" version="1.1">
 <metadata>
  <rdf:RDF xmlns:dc="http://purl.org/dc/elements/1.1/" xmlns:cc="http://creativecommons.org/ns#" xmlns:rdf="http://www.w3.org/1999/02/22-rdf-syntax-ns#">
   <cc:Work>
    <dc:type rdf:resource="http://purl.org/dc/dcmitype/StillImage"/>
    <dc:date>2023-07-13T08:48:47.317500</dc:date>
    <dc:format>image/svg+xml</dc:format>
    <dc:creator>
     <cc:Agent>
      <dc:title>Matplotlib v3.7.1, https://matplotlib.org/</dc:title>
     </cc:Agent>
    </dc:creator>
   </cc:Work>
  </rdf:RDF>
 </metadata>
 <defs>
  <style type="text/css">*{stroke-linejoin: round; stroke-linecap: butt}</style>
 </defs>
 <g id="figure_1">
  <g id="patch_1">
   <path d="M 0 345.6 
L 460.8 345.6 
L 460.8 0 
L 0 0 
z
" style="fill: #ffffff"/>
  </g>
  <g id="axes_1">
   <g id="patch_2">
    <path d="M 57.6 307.584 
L 414.72 307.584 
L 414.72 41.472 
L 57.6 41.472 
z
" style="fill: #e5e5e5"/>
   </g>
   <g id="matplotlib.axis_1">
    <g id="xtick_1">
     <g id="line2d_1">
      <path d="M 73.2304 307.584 
L 73.2304 41.472 
" clip-path="url(#pa7e81582f5)" style="fill: none; stroke: #ffffff; stroke-width: 0.8; stroke-linecap: square"/>
     </g>
     <g id="line2d_2">
      <defs>
       <path id="m25ce443ed7" d="M 0 0 
L 0 3.5 
" style="stroke: #555555; stroke-width: 0.8"/>
      </defs>
      <g>
       <use xlink:href="#m25ce443ed7" x="73.2304" y="307.584" style="fill: #555555; stroke: #555555; stroke-width: 0.8"/>
      </g>
     </g>
     <g id="text_1">
      <!-- 0 -->
      <g style="fill: #555555" transform="translate(70.04915 322.182437) scale(0.1 -0.1)">
       <defs>
        <path id="DejaVuSans-30" d="M 2034 4250 
Q 1547 4250 1301 3770 
Q 1056 3291 1056 2328 
Q 1056 1369 1301 889 
Q 1547 409 2034 409 
Q 2525 409 2770 889 
Q 3016 1369 3016 2328 
Q 3016 3291 2770 3770 
Q 2525 4250 2034 4250 
z
M 2034 4750 
Q 2819 4750 3233 4129 
Q 3647 3509 3647 2328 
Q 3647 1150 3233 529 
Q 2819 -91 2034 -91 
Q 1250 -91 836 529 
Q 422 1150 422 2328 
Q 422 3509 836 4129 
Q 1250 4750 2034 4750 
z
" transform="scale(0.015625)"/>
       </defs>
       <use xlink:href="#DejaVuSans-30"/>
      </g>
     </g>
    </g>
    <g id="xtick_2">
     <g id="line2d_3">
      <path d="M 133.463154 307.584 
L 133.463154 41.472 
" clip-path="url(#pa7e81582f5)" style="fill: none; stroke: #ffffff; stroke-width: 0.8; stroke-linecap: square"/>
     </g>
     <g id="line2d_4">
      <g>
       <use xlink:href="#m25ce443ed7" x="133.463154" y="307.584" style="fill: #555555; stroke: #555555; stroke-width: 0.8"/>
      </g>
     </g>
     <g id="text_2">
      <!-- 100 -->
      <g style="fill: #555555" transform="translate(123.919404 322.182437) scale(0.1 -0.1)">
       <defs>
        <path id="DejaVuSans-31" d="M 794 531 
L 1825 531 
L 1825 4091 
L 703 3866 
L 703 4441 
L 1819 4666 
L 2450 4666 
L 2450 531 
L 3481 531 
L 3481 0 
L 794 0 
L 794 531 
z
" transform="scale(0.015625)"/>
       </defs>
       <use xlink:href="#DejaVuSans-31"/>
       <use xlink:href="#DejaVuSans-30" x="63.623047"/>
       <use xlink:href="#DejaVuSans-30" x="127.246094"/>
      </g>
     </g>
    </g>
    <g id="xtick_3">
     <g id="line2d_5">
      <path d="M 193.695908 307.584 
L 193.695908 41.472 
" clip-path="url(#pa7e81582f5)" style="fill: none; stroke: #ffffff; stroke-width: 0.8; stroke-linecap: square"/>
     </g>
     <g id="line2d_6">
      <g>
       <use xlink:href="#m25ce443ed7" x="193.695908" y="307.584" style="fill: #555555; stroke: #555555; stroke-width: 0.8"/>
      </g>
     </g>
     <g id="text_3">
      <!-- 200 -->
      <g style="fill: #555555" transform="translate(184.152158 322.182437) scale(0.1 -0.1)">
       <defs>
        <path id="DejaVuSans-32" d="M 1228 531 
L 3431 531 
L 3431 0 
L 469 0 
L 469 531 
Q 828 903 1448 1529 
Q 2069 2156 2228 2338 
Q 2531 2678 2651 2914 
Q 2772 3150 2772 3378 
Q 2772 3750 2511 3984 
Q 2250 4219 1831 4219 
Q 1534 4219 1204 4116 
Q 875 4013 500 3803 
L 500 4441 
Q 881 4594 1212 4672 
Q 1544 4750 1819 4750 
Q 2544 4750 2975 4387 
Q 3406 4025 3406 3419 
Q 3406 3131 3298 2873 
Q 3191 2616 2906 2266 
Q 2828 2175 2409 1742 
Q 1991 1309 1228 531 
z
" transform="scale(0.015625)"/>
       </defs>
       <use xlink:href="#DejaVuSans-32"/>
       <use xlink:href="#DejaVuSans-30" x="63.623047"/>
       <use xlink:href="#DejaVuSans-30" x="127.246094"/>
      </g>
     </g>
    </g>
    <g id="xtick_4">
     <g id="line2d_7">
      <path d="M 253.928663 307.584 
L 253.928663 41.472 
" clip-path="url(#pa7e81582f5)" style="fill: none; stroke: #ffffff; stroke-width: 0.8; stroke-linecap: square"/>
     </g>
     <g id="line2d_8">
      <g>
       <use xlink:href="#m25ce443ed7" x="253.928663" y="307.584" style="fill: #555555; stroke: #555555; stroke-width: 0.8"/>
      </g>
     </g>
     <g id="text_4">
      <!-- 300 -->
      <g style="fill: #555555" transform="translate(244.384913 322.182437) scale(0.1 -0.1)">
       <defs>
        <path id="DejaVuSans-33" d="M 2597 2516 
Q 3050 2419 3304 2112 
Q 3559 1806 3559 1356 
Q 3559 666 3084 287 
Q 2609 -91 1734 -91 
Q 1441 -91 1130 -33 
Q 819 25 488 141 
L 488 750 
Q 750 597 1062 519 
Q 1375 441 1716 441 
Q 2309 441 2620 675 
Q 2931 909 2931 1356 
Q 2931 1769 2642 2001 
Q 2353 2234 1838 2234 
L 1294 2234 
L 1294 2753 
L 1863 2753 
Q 2328 2753 2575 2939 
Q 2822 3125 2822 3475 
Q 2822 3834 2567 4026 
Q 2313 4219 1838 4219 
Q 1578 4219 1281 4162 
Q 984 4106 628 3988 
L 628 4550 
Q 988 4650 1302 4700 
Q 1616 4750 1894 4750 
Q 2613 4750 3031 4423 
Q 3450 4097 3450 3541 
Q 3450 3153 3228 2886 
Q 3006 2619 2597 2516 
z
" transform="scale(0.015625)"/>
       </defs>
       <use xlink:href="#DejaVuSans-33"/>
       <use xlink:href="#DejaVuSans-30" x="63.623047"/>
       <use xlink:href="#DejaVuSans-30" x="127.246094"/>
      </g>
     </g>
    </g>
    <g id="xtick_5">
     <g id="line2d_9">
      <path d="M 314.161417 307.584 
L 314.161417 41.472 
" clip-path="url(#pa7e81582f5)" style="fill: none; stroke: #ffffff; stroke-width: 0.8; stroke-linecap: square"/>
     </g>
     <g id="line2d_10">
      <g>
       <use xlink:href="#m25ce443ed7" x="314.161417" y="307.584" style="fill: #555555; stroke: #555555; stroke-width: 0.8"/>
      </g>
     </g>
     <g id="text_5">
      <!-- 400 -->
      <g style="fill: #555555" transform="translate(304.617667 322.182437) scale(0.1 -0.1)">
       <defs>
        <path id="DejaVuSans-34" d="M 2419 4116 
L 825 1625 
L 2419 1625 
L 2419 4116 
z
M 2253 4666 
L 3047 4666 
L 3047 1625 
L 3713 1625 
L 3713 1100 
L 3047 1100 
L 3047 0 
L 2419 0 
L 2419 1100 
L 313 1100 
L 313 1709 
L 2253 4666 
z
" transform="scale(0.015625)"/>
       </defs>
       <use xlink:href="#DejaVuSans-34"/>
       <use xlink:href="#DejaVuSans-30" x="63.623047"/>
       <use xlink:href="#DejaVuSans-30" x="127.246094"/>
      </g>
     </g>
    </g>
    <g id="xtick_6">
     <g id="line2d_11">
      <path d="M 374.394171 307.584 
L 374.394171 41.472 
" clip-path="url(#pa7e81582f5)" style="fill: none; stroke: #ffffff; stroke-width: 0.8; stroke-linecap: square"/>
     </g>
     <g id="line2d_12">
      <g>
       <use xlink:href="#m25ce443ed7" x="374.394171" y="307.584" style="fill: #555555; stroke: #555555; stroke-width: 0.8"/>
      </g>
     </g>
     <g id="text_6">
      <!-- 500 -->
      <g style="fill: #555555" transform="translate(364.850421 322.182437) scale(0.1 -0.1)">
       <defs>
        <path id="DejaVuSans-35" d="M 691 4666 
L 3169 4666 
L 3169 4134 
L 1269 4134 
L 1269 2991 
Q 1406 3038 1543 3061 
Q 1681 3084 1819 3084 
Q 2600 3084 3056 2656 
Q 3513 2228 3513 1497 
Q 3513 744 3044 326 
Q 2575 -91 1722 -91 
Q 1428 -91 1123 -41 
Q 819 9 494 109 
L 494 744 
Q 775 591 1075 516 
Q 1375 441 1709 441 
Q 2250 441 2565 725 
Q 2881 1009 2881 1497 
Q 2881 1984 2565 2268 
Q 2250 2553 1709 2553 
Q 1456 2553 1204 2497 
Q 953 2441 691 2322 
L 691 4666 
z
" transform="scale(0.015625)"/>
       </defs>
       <use xlink:href="#DejaVuSans-35"/>
       <use xlink:href="#DejaVuSans-30" x="63.623047"/>
       <use xlink:href="#DejaVuSans-30" x="127.246094"/>
      </g>
     </g>
    </g>
    <g id="text_7">
     <!-- Epoch -->
     <g style="fill: #555555" transform="translate(217.786875 337.38025) scale(0.12 -0.12)">
      <defs>
       <path id="DejaVuSans-45" d="M 628 4666 
L 3578 4666 
L 3578 4134 
L 1259 4134 
L 1259 2753 
L 3481 2753 
L 3481 2222 
L 1259 2222 
L 1259 531 
L 3634 531 
L 3634 0 
L 628 0 
L 628 4666 
z
" transform="scale(0.015625)"/>
       <path id="DejaVuSans-70" d="M 1159 525 
L 1159 -1331 
L 581 -1331 
L 581 3500 
L 1159 3500 
L 1159 2969 
Q 1341 3281 1617 3432 
Q 1894 3584 2278 3584 
Q 2916 3584 3314 3078 
Q 3713 2572 3713 1747 
Q 3713 922 3314 415 
Q 2916 -91 2278 -91 
Q 1894 -91 1617 61 
Q 1341 213 1159 525 
z
M 3116 1747 
Q 3116 2381 2855 2742 
Q 2594 3103 2138 3103 
Q 1681 3103 1420 2742 
Q 1159 2381 1159 1747 
Q 1159 1113 1420 752 
Q 1681 391 2138 391 
Q 2594 391 2855 752 
Q 3116 1113 3116 1747 
z
" transform="scale(0.015625)"/>
       <path id="DejaVuSans-6f" d="M 1959 3097 
Q 1497 3097 1228 2736 
Q 959 2375 959 1747 
Q 959 1119 1226 758 
Q 1494 397 1959 397 
Q 2419 397 2687 759 
Q 2956 1122 2956 1747 
Q 2956 2369 2687 2733 
Q 2419 3097 1959 3097 
z
M 1959 3584 
Q 2709 3584 3137 3096 
Q 3566 2609 3566 1747 
Q 3566 888 3137 398 
Q 2709 -91 1959 -91 
Q 1206 -91 779 398 
Q 353 888 353 1747 
Q 353 2609 779 3096 
Q 1206 3584 1959 3584 
z
" transform="scale(0.015625)"/>
       <path id="DejaVuSans-63" d="M 3122 3366 
L 3122 2828 
Q 2878 2963 2633 3030 
Q 2388 3097 2138 3097 
Q 1578 3097 1268 2742 
Q 959 2388 959 1747 
Q 959 1106 1268 751 
Q 1578 397 2138 397 
Q 2388 397 2633 464 
Q 2878 531 3122 666 
L 3122 134 
Q 2881 22 2623 -34 
Q 2366 -91 2075 -91 
Q 1284 -91 818 406 
Q 353 903 353 1747 
Q 353 2603 823 3093 
Q 1294 3584 2113 3584 
Q 2378 3584 2631 3529 
Q 2884 3475 3122 3366 
z
" transform="scale(0.015625)"/>
       <path id="DejaVuSans-68" d="M 3513 2113 
L 3513 0 
L 2938 0 
L 2938 2094 
Q 2938 2591 2744 2837 
Q 2550 3084 2163 3084 
Q 1697 3084 1428 2787 
Q 1159 2491 1159 1978 
L 1159 0 
L 581 0 
L 581 4863 
L 1159 4863 
L 1159 2956 
Q 1366 3272 1645 3428 
Q 1925 3584 2291 3584 
Q 2894 3584 3203 3211 
Q 3513 2838 3513 2113 
z
" transform="scale(0.015625)"/>
      </defs>
      <use xlink:href="#DejaVuSans-45"/>
      <use xlink:href="#DejaVuSans-70" x="63.183594"/>
      <use xlink:href="#DejaVuSans-6f" x="126.660156"/>
      <use xlink:href="#DejaVuSans-63" x="187.841797"/>
      <use xlink:href="#DejaVuSans-68" x="242.822266"/>
     </g>
    </g>
   </g>
   <g id="matplotlib.axis_2">
    <g id="ytick_1">
     <g id="line2d_13">
      <path d="M 57.6 303.537652 
L 414.72 303.537652 
" clip-path="url(#pa7e81582f5)" style="fill: none; stroke: #ffffff; stroke-width: 0.8; stroke-linecap: square"/>
     </g>
     <g id="line2d_14">
      <defs>
       <path id="m0c96913a2f" d="M 0 0 
L -3.5 0 
" style="stroke: #555555; stroke-width: 0.8"/>
      </defs>
      <g>
       <use xlink:href="#m0c96913a2f" x="57.6" y="303.537652" style="fill: #555555; stroke: #555555; stroke-width: 0.8"/>
      </g>
     </g>
     <g id="text_8">
      <!-- 0.0 -->
      <g style="fill: #555555" transform="translate(34.696875 307.33687) scale(0.1 -0.1)">
       <defs>
        <path id="DejaVuSans-2e" d="M 684 794 
L 1344 794 
L 1344 0 
L 684 0 
L 684 794 
z
" transform="scale(0.015625)"/>
       </defs>
       <use xlink:href="#DejaVuSans-30"/>
       <use xlink:href="#DejaVuSans-2e" x="63.623047"/>
       <use xlink:href="#DejaVuSans-30" x="95.410156"/>
      </g>
     </g>
    </g>
    <g id="ytick_2">
     <g id="line2d_15">
      <path d="M 57.6 268.635846 
L 414.72 268.635846 
" clip-path="url(#pa7e81582f5)" style="fill: none; stroke: #ffffff; stroke-width: 0.8; stroke-linecap: square"/>
     </g>
     <g id="line2d_16">
      <g>
       <use xlink:href="#m0c96913a2f" x="57.6" y="268.635846" style="fill: #555555; stroke: #555555; stroke-width: 0.8"/>
      </g>
     </g>
     <g id="text_9">
      <!-- 0.5 -->
      <g style="fill: #555555" transform="translate(34.696875 272.435065) scale(0.1 -0.1)">
       <use xlink:href="#DejaVuSans-30"/>
       <use xlink:href="#DejaVuSans-2e" x="63.623047"/>
       <use xlink:href="#DejaVuSans-35" x="95.410156"/>
      </g>
     </g>
    </g>
    <g id="ytick_3">
     <g id="line2d_17">
      <path d="M 57.6 233.73404 
L 414.72 233.73404 
" clip-path="url(#pa7e81582f5)" style="fill: none; stroke: #ffffff; stroke-width: 0.8; stroke-linecap: square"/>
     </g>
     <g id="line2d_18">
      <g>
       <use xlink:href="#m0c96913a2f" x="57.6" y="233.73404" style="fill: #555555; stroke: #555555; stroke-width: 0.8"/>
      </g>
     </g>
     <g id="text_10">
      <!-- 1.0 -->
      <g style="fill: #555555" transform="translate(34.696875 237.533259) scale(0.1 -0.1)">
       <use xlink:href="#DejaVuSans-31"/>
       <use xlink:href="#DejaVuSans-2e" x="63.623047"/>
       <use xlink:href="#DejaVuSans-30" x="95.410156"/>
      </g>
     </g>
    </g>
    <g id="ytick_4">
     <g id="line2d_19">
      <path d="M 57.6 198.832234 
L 414.72 198.832234 
" clip-path="url(#pa7e81582f5)" style="fill: none; stroke: #ffffff; stroke-width: 0.8; stroke-linecap: square"/>
     </g>
     <g id="line2d_20">
      <g>
       <use xlink:href="#m0c96913a2f" x="57.6" y="198.832234" style="fill: #555555; stroke: #555555; stroke-width: 0.8"/>
      </g>
     </g>
     <g id="text_11">
      <!-- 1.5 -->
      <g style="fill: #555555" transform="translate(34.696875 202.631453) scale(0.1 -0.1)">
       <use xlink:href="#DejaVuSans-31"/>
       <use xlink:href="#DejaVuSans-2e" x="63.623047"/>
       <use xlink:href="#DejaVuSans-35" x="95.410156"/>
      </g>
     </g>
    </g>
    <g id="ytick_5">
     <g id="line2d_21">
      <path d="M 57.6 163.930429 
L 414.72 163.930429 
" clip-path="url(#pa7e81582f5)" style="fill: none; stroke: #ffffff; stroke-width: 0.8; stroke-linecap: square"/>
     </g>
     <g id="line2d_22">
      <g>
       <use xlink:href="#m0c96913a2f" x="57.6" y="163.930429" style="fill: #555555; stroke: #555555; stroke-width: 0.8"/>
      </g>
     </g>
     <g id="text_12">
      <!-- 2.0 -->
      <g style="fill: #555555" transform="translate(34.696875 167.729647) scale(0.1 -0.1)">
       <use xlink:href="#DejaVuSans-32"/>
       <use xlink:href="#DejaVuSans-2e" x="63.623047"/>
       <use xlink:href="#DejaVuSans-30" x="95.410156"/>
      </g>
     </g>
    </g>
    <g id="ytick_6">
     <g id="line2d_23">
      <path d="M 57.6 129.028623 
L 414.72 129.028623 
" clip-path="url(#pa7e81582f5)" style="fill: none; stroke: #ffffff; stroke-width: 0.8; stroke-linecap: square"/>
     </g>
     <g id="line2d_24">
      <g>
       <use xlink:href="#m0c96913a2f" x="57.6" y="129.028623" style="fill: #555555; stroke: #555555; stroke-width: 0.8"/>
      </g>
     </g>
     <g id="text_13">
      <!-- 2.5 -->
      <g style="fill: #555555" transform="translate(34.696875 132.827842) scale(0.1 -0.1)">
       <use xlink:href="#DejaVuSans-32"/>
       <use xlink:href="#DejaVuSans-2e" x="63.623047"/>
       <use xlink:href="#DejaVuSans-35" x="95.410156"/>
      </g>
     </g>
    </g>
    <g id="ytick_7">
     <g id="line2d_25">
      <path d="M 57.6 94.126817 
L 414.72 94.126817 
" clip-path="url(#pa7e81582f5)" style="fill: none; stroke: #ffffff; stroke-width: 0.8; stroke-linecap: square"/>
     </g>
     <g id="line2d_26">
      <g>
       <use xlink:href="#m0c96913a2f" x="57.6" y="94.126817" style="fill: #555555; stroke: #555555; stroke-width: 0.8"/>
      </g>
     </g>
     <g id="text_14">
      <!-- 3.0 -->
      <g style="fill: #555555" transform="translate(34.696875 97.926036) scale(0.1 -0.1)">
       <use xlink:href="#DejaVuSans-33"/>
       <use xlink:href="#DejaVuSans-2e" x="63.623047"/>
       <use xlink:href="#DejaVuSans-30" x="95.410156"/>
      </g>
     </g>
    </g>
    <g id="ytick_8">
     <g id="line2d_27">
      <path d="M 57.6 59.225011 
L 414.72 59.225011 
" clip-path="url(#pa7e81582f5)" style="fill: none; stroke: #ffffff; stroke-width: 0.8; stroke-linecap: square"/>
     </g>
     <g id="line2d_28">
      <g>
       <use xlink:href="#m0c96913a2f" x="57.6" y="59.225011" style="fill: #555555; stroke: #555555; stroke-width: 0.8"/>
      </g>
     </g>
     <g id="text_15">
      <!-- 3.5 -->
      <g style="fill: #555555" transform="translate(34.696875 63.02423) scale(0.1 -0.1)">
       <use xlink:href="#DejaVuSans-33"/>
       <use xlink:href="#DejaVuSans-2e" x="63.623047"/>
       <use xlink:href="#DejaVuSans-35" x="95.410156"/>
      </g>
     </g>
    </g>
    <g id="text_16">
     <!-- Loss -->
     <g style="fill: #555555" transform="translate(28.20125 187.688625) rotate(-90) scale(0.12 -0.12)">
      <defs>
       <path id="DejaVuSans-4c" d="M 628 4666 
L 1259 4666 
L 1259 531 
L 3531 531 
L 3531 0 
L 628 0 
L 628 4666 
z
" transform="scale(0.015625)"/>
       <path id="DejaVuSans-73" d="M 2834 3397 
L 2834 2853 
Q 2591 2978 2328 3040 
Q 2066 3103 1784 3103 
Q 1356 3103 1142 2972 
Q 928 2841 928 2578 
Q 928 2378 1081 2264 
Q 1234 2150 1697 2047 
L 1894 2003 
Q 2506 1872 2764 1633 
Q 3022 1394 3022 966 
Q 3022 478 2636 193 
Q 2250 -91 1575 -91 
Q 1294 -91 989 -36 
Q 684 19 347 128 
L 347 722 
Q 666 556 975 473 
Q 1284 391 1588 391 
Q 1994 391 2212 530 
Q 2431 669 2431 922 
Q 2431 1156 2273 1281 
Q 2116 1406 1581 1522 
L 1381 1569 
Q 847 1681 609 1914 
Q 372 2147 372 2553 
Q 372 3047 722 3315 
Q 1072 3584 1716 3584 
Q 2034 3584 2315 3537 
Q 2597 3491 2834 3397 
z
" transform="scale(0.015625)"/>
      </defs>
      <use xlink:href="#DejaVuSans-4c"/>
      <use xlink:href="#DejaVuSans-6f" x="53.962891"/>
      <use xlink:href="#DejaVuSans-73" x="115.144531"/>
      <use xlink:href="#DejaVuSans-73" x="167.244141"/>
     </g>
    </g>
   </g>
   <g id="line2d_29">
    <path d="M 73.832727 252.695406 
L 74.435055 252.741951 
L 76.242037 253.490455 
L 77.446693 254.166672 
L 78.651348 254.73309 
L 79.253675 255.188449 
L 81.662985 255.933059 
L 82.86764 256.219451 
L 85.276951 256.29475 
L 87.083933 256.062183 
L 88.890916 255.604461 
L 90.095571 255.153188 
L 90.697898 255.023672 
L 91.300226 254.752608 
L 91.902554 254.655578 
L 92.504881 254.30869 
L 93.709536 254.059178 
L 96.118846 253.551936 
L 96.721174 253.298271 
L 97.323501 253.328415 
L 98.528157 253.133935 
L 99.130484 253.187965 
L 99.732812 252.972329 
L 100.335139 252.968771 
L 100.937467 253.077846 
L 102.744449 252.761385 
L 103.346777 252.894741 
L 106.358415 252.395309 
L 106.960742 252.251376 
L 107.56307 252.229275 
L 108.165397 251.89306 
L 109.370052 251.7073 
L 109.97238 251.458824 
L 112.38169 251.357205 
L 112.984018 250.791344 
L 113.586345 250.964264 
L 114.188673 250.733478 
L 114.791 250.808286 
L 115.393328 250.59929 
L 115.995655 250.604853 
L 117.20031 250.43904 
L 117.802638 249.957814 
L 118.404965 249.941026 
L 119.007293 249.598291 
L 119.609621 249.823667 
L 120.211948 249.486944 
L 122.018931 249.210138 
L 122.621258 249.094556 
L 123.223586 248.857334 
L 123.825913 248.817721 
L 124.428241 248.639538 
L 125.030568 248.123593 
L 126.235223 248.137697 
L 126.837551 247.741302 
L 128.042206 247.736156 
L 128.644534 247.462345 
L 129.246861 247.361579 
L 129.849189 246.99299 
L 130.451516 247.080438 
L 131.053844 247.449427 
L 131.656171 247.1721 
L 132.860826 247.098578 
L 133.463154 246.624675 
L 134.667809 246.45156 
L 135.270137 246.054171 
L 135.872464 246.363205 
L 136.474792 246.272046 
L 137.077119 246.044935 
L 137.679447 245.979896 
L 138.281774 246.512039 
L 138.884102 245.853276 
L 139.486429 246.01212 
L 140.088757 245.537842 
L 140.691084 245.742403 
L 141.293412 245.735701 
L 142.498067 245.158802 
L 143.100395 245.700373 
L 143.702722 245.543272 
L 144.30505 245.645465 
L 144.907377 245.348597 
L 146.112032 245.859537 
L 147.316687 245.36392 
L 147.919015 245.44075 
L 148.521343 245.404836 
L 149.725998 244.869472 
L 150.328325 244.270264 
L 150.930653 244.38005 
L 152.135308 243.886135 
L 152.737635 244.002262 
L 153.339963 243.369427 
L 153.94229 243.025061 
L 154.544618 242.910715 
L 155.146946 243.228711 
L 155.749273 242.913964 
L 156.953928 243.080219 
L 157.556256 242.583586 
L 158.760911 243.420632 
L 159.363238 243.30649 
L 161.170221 243.863917 
L 161.772548 243.461543 
L 162.374876 243.564032 
L 162.977204 242.699888 
L 163.579531 242.868726 
L 164.181859 242.599243 
L 165.386514 243.354328 
L 165.988841 242.83069 
L 166.591169 243.606703 
L 167.193496 242.888664 
L 167.795824 242.538764 
L 168.398151 242.89426 
L 169.602807 242.904432 
L 170.205134 243.692171 
L 170.807462 243.599189 
L 171.409789 244.524956 
L 172.012117 244.269032 
L 172.614444 244.679411 
L 173.216772 245.322485 
L 173.819099 245.291297 
L 174.421427 246.203408 
L 175.023754 245.459111 
L 175.626082 245.095523 
L 176.22841 246.632967 
L 176.830737 245.93276 
L 177.433065 244.756886 
L 178.035392 245.893068 
L 178.63772 244.301789 
L 179.842375 241.946233 
L 180.444702 240.371892 
L 181.04703 238.451517 
L 181.649357 237.279728 
L 182.251685 235.519349 
L 182.854012 234.247656 
L 184.660995 223.20605 
L 185.263323 222.886731 
L 186.467978 220.9932 
L 187.070305 218.530762 
L 187.672633 216.799703 
L 188.27496 217.022546 
L 188.877288 212.705828 
L 189.479615 211.35237 
L 190.684271 205.856375 
L 191.286598 205.344136 
L 191.888926 203.475311 
L 192.491253 200.578413 
L 193.093581 200.429962 
L 193.695908 199.303716 
L 194.298236 196.652378 
L 194.900563 198.325587 
L 195.502891 195.208901 
L 196.105218 193.551052 
L 196.707546 188.2143 
L 197.309874 190.272517 
L 197.912201 184.782621 
L 198.514529 183.170132 
L 199.116856 183.068796 
L 200.321511 178.394131 
L 200.923839 175.402546 
L 201.526166 176.92371 
L 202.128494 171.245547 
L 202.730821 169.488675 
L 203.333149 169.579268 
L 204.537804 167.044977 
L 205.742459 162.19367 
L 206.344787 161.121544 
L 206.947114 160.506771 
L 207.549442 156.429664 
L 208.151769 157.656331 
L 208.754097 160.252557 
L 209.958752 155.960529 
L 210.561079 155.896505 
L 211.163407 147.632067 
L 211.765735 147.213509 
L 212.368062 149.880699 
L 212.97039 149.820719 
L 213.572717 145.883841 
L 214.175045 146.484835 
L 214.777372 144.017937 
L 215.3797 142.966848 
L 215.982027 140.386016 
L 216.584355 145.109317 
L 217.186682 137.64713 
L 217.78901 136.923947 
L 218.391337 138.670742 
L 218.993665 135.929975 
L 219.595993 139.641248 
L 220.19832 133.254281 
L 220.800648 135.83275 
L 221.402975 135.652911 
L 222.005303 137.060033 
L 222.60763 124.571384 
L 223.209958 127.832012 
L 223.812285 126.739001 
L 224.414613 132.113705 
L 225.01694 124.889189 
L 225.619268 126.631823 
L 226.221596 124.667362 
L 226.823923 132.402036 
L 227.426251 127.93448 
L 228.028578 122.555098 
L 228.630906 128.290396 
L 229.233233 120.493578 
L 229.835561 126.887551 
L 230.437888 116.808484 
L 231.040216 116.787281 
L 231.642543 117.881857 
L 232.244871 120.941144 
L 232.847199 123.367085 
L 233.449526 116.327982 
L 234.051854 120.789165 
L 234.654181 117.446274 
L 235.256509 115.10248 
L 235.858836 118.022936 
L 236.461164 115.43538 
L 237.063491 113.636328 
L 237.665819 122.357752 
L 238.268146 111.76776 
L 238.870474 114.268642 
L 239.472801 113.13469 
L 240.075129 113.702831 
L 240.677457 110.340518 
L 241.279784 117.80878 
L 241.882112 116.974925 
L 243.086767 110.320397 
L 243.689094 114.66931 
L 244.291422 116.214231 
L 244.893749 115.497689 
L 245.496077 107.732209 
L 246.098404 103.006694 
L 246.700732 100.553426 
L 247.30306 114.604754 
L 247.905387 119.330901 
L 248.507715 107.977353 
L 249.110042 111.684598 
L 249.71237 100.798187 
L 250.314697 99.684972 
L 250.917025 109.590042 
L 251.519352 105.576426 
L 252.12168 103.264353 
L 252.724007 105.807673 
L 253.326335 109.833854 
L 253.928663 101.228379 
L 254.53099 111.397515 
L 255.133318 102.087197 
L 255.735645 102.874353 
L 256.337973 111.785035 
L 256.9403 93.430779 
L 257.542628 103.669048 
L 258.144955 106.666957 
L 258.747283 101.69976 
L 259.34961 99.786308 
L 259.951938 103.612597 
L 260.554265 102.518071 
L 261.156593 103.925392 
L 261.758921 106.006534 
L 262.963576 94.097793 
L 263.565903 103.881755 
L 264.168231 96.162841 
L 264.770558 101.968703 
L 265.372886 95.297732 
L 265.975213 104.031338 
L 266.577541 100.66082 
L 267.179868 92.025987 
L 267.782196 99.352705 
L 268.384524 99.734067 
L 268.986851 103.176947 
L 269.589179 89.305874 
L 270.191506 90.494896 
L 270.793834 92.011325 
L 271.396161 101.366661 
L 271.998489 105.716872 
L 272.600816 95.363336 
L 273.203144 105.936103 
L 273.805471 91.468481 
L 274.407799 89.871751 
L 275.010126 87.171842 
L 275.612454 87.488399 
L 276.214782 91.61129 
L 276.817109 98.859755 
L 277.419437 93.473433 
L 278.021764 96.056479 
L 278.624092 93.632502 
L 279.226419 88.841016 
L 279.828747 95.541744 
L 280.431074 94.091651 
L 281.635729 88.458855 
L 282.238057 94.817746 
L 282.840385 102.539007 
L 283.442712 93.203559 
L 284.04504 86.571016 
L 284.647367 88.560324 
L 285.249695 95.249635 
L 285.852022 90.95972 
L 286.45435 88.965851 
L 287.056677 89.706275 
L 287.659005 96.477567 
L 288.261332 94.318056 
L 288.86366 85.117811 
L 289.465988 85.484878 
L 290.068315 91.837045 
L 290.670643 94.859951 
L 291.27297 83.095051 
L 291.875298 86.585078 
L 292.477625 78.170825 
L 293.079953 90.036828 
L 293.68228 89.039544 
L 294.284608 89.712283 
L 294.886935 91.000211 
L 295.489263 89.628771 
L 296.09159 84.493435 
L 296.693918 88.883937 
L 297.296246 88.283277 
L 297.898573 78.381003 
L 298.500901 94.515436 
L 299.103228 82.777729 
L 299.705556 85.797823 
L 300.307883 96.002707 
L 300.910211 81.891317 
L 301.512538 87.373399 
L 302.114866 85.713296 
L 302.717193 84.986352 
L 303.319521 76.780545 
L 303.921849 89.773461 
L 304.524176 87.326983 
L 305.126504 99.557574 
L 305.728831 81.964877 
L 306.331159 86.727954 
L 306.933486 82.271049 
L 307.535814 79.826485 
L 308.138141 82.980734 
L 308.740469 74.308505 
L 309.945124 86.523468 
L 310.547452 86.885841 
L 311.149779 74.32132 
L 311.752107 92.435475 
L 312.354434 82.375547 
L 312.956762 82.323872 
L 313.559089 76.56842 
L 314.161417 80.446068 
L 314.763744 82.485137 
L 315.366072 88.226876 
L 315.968399 83.183805 
L 316.570727 85.466887 
L 317.173054 76.382541 
L 318.37771 73.692617 
L 318.980037 82.053049 
L 319.582365 80.827996 
L 320.184692 78.243253 
L 320.78702 78.249993 
L 321.389347 82.042947 
L 321.991675 75.325227 
L 322.594002 90.561815 
L 323.19633 77.414907 
L 323.798657 82.179016 
L 324.400985 80.229083 
L 325.003313 80.106079 
L 325.60564 80.705557 
L 326.207968 82.339932 
L 326.810295 77.493792 
L 327.412623 78.248761 
L 328.01495 67.501432 
L 328.617278 69.825554 
L 329.219605 77.618411 
L 329.821933 78.817701 
L 330.42426 75.047897 
L 331.026588 81.85294 
L 331.628916 80.787305 
L 332.231243 79.441977 
L 332.833571 74.827035 
L 333.435898 81.45798 
L 334.038226 73.79342 
L 334.640553 71.414262 
L 335.242881 70.487209 
L 335.845208 71.752869 
L 336.447536 86.010996 
L 337.049863 78.754726 
L 337.652191 76.193382 
L 338.254518 76.088235 
L 338.856846 72.583712 
L 339.459174 82.244604 
L 340.061501 76.800283 
L 340.663829 76.194913 
L 341.266156 66.944475 
L 341.868484 77.588654 
L 342.470811 66.570452 
L 343.073139 77.481726 
L 343.675466 74.121543 
L 344.277794 75.753738 
L 344.880121 86.708233 
L 345.482449 70.787972 
L 346.084777 75.221977 
L 346.687104 78.005382 
L 347.289432 67.813279 
L 347.891759 73.689688 
L 348.494087 81.756962 
L 349.096414 69.621767 
L 349.698742 63.520917 
L 350.301069 70.069017 
L 350.903397 80.142076 
L 351.505724 71.830224 
L 352.108052 75.15792 
L 352.710379 72.466632 
L 353.915035 69.47959 
L 354.517362 68.583226 
L 355.11969 63.753945 
L 355.722017 68.786564 
L 356.926672 66.3883 
L 357.529 75.090036 
L 358.131327 73.706663 
L 358.733655 68.831932 
L 359.335982 70.799855 
L 359.93831 71.388965 
L 360.540638 68.806102 
L 361.142965 67.89719 
L 361.745293 66.510655 
L 362.34762 67.607644 
L 362.949948 75.841144 
L 363.552275 75.100454 
L 364.154603 70.094746 
L 364.75693 73.492624 
L 365.359258 72.078463 
L 365.961585 72.006235 
L 366.563913 64.984424 
L 367.166241 68.819383 
L 367.768568 54.984891 
L 368.370896 67.74616 
L 368.973223 65.676534 
L 369.575551 71.538265 
L 370.177878 75.336478 
L 370.780206 58.98764 
L 371.382533 68.180961 
L 371.984861 66.427576 
L 372.587188 72.642593 
L 373.189516 69.78686 
L 373.791843 71.925219 
L 374.394171 57.671885 
L 374.996499 65.689183 
L 375.598826 68.377792 
L 376.201154 60.800205 
L 376.803481 71.30755 
L 377.405809 72.97694 
L 378.008136 68.444029 
L 378.610464 65.402117 
L 379.212791 64.64094 
L 379.815119 69.320238 
L 380.417446 53.568 
L 381.019774 71.466652 
L 382.224429 62.766314 
L 382.826757 56.291275 
L 383.429084 58.267669 
L 384.031412 72.806937 
L 384.633739 67.375881 
L 385.236067 62.971982 
L 385.838394 66.469632 
L 386.440722 54.278484 
L 387.043049 56.718305 
L 387.645377 66.256275 
L 388.247705 71.910524 
L 388.850032 67.429453 
L 389.45236 69.746985 
L 390.054687 68.520401 
L 390.657015 69.39954 
L 391.259342 67.265342 
L 392.463997 54.878945 
L 393.066325 63.463567 
L 393.668652 66.063938 
L 394.27098 55.163365 
L 394.873307 69.667817 
L 395.475635 64.969662 
L 396.077963 64.709923 
L 396.68029 69.524591 
L 397.282618 58.004568 
L 397.884945 66.234706 
L 398.487273 54.148589 
L 398.487273 54.148589 
" clip-path="url(#pa7e81582f5)" style="fill: none; stroke: #6495ed; stroke-width: 2; stroke-linecap: square"/>
   </g>
   <g id="line2d_30">
    <path d="M 73.832727 254.863774 
L 75.63971 255.038257 
L 78.04902 255.252523 
L 80.45833 255.38327 
L 81.060658 255.401325 
L 81.662985 255.541424 
L 82.86764 255.589953 
L 88.288588 255.777199 
L 88.890916 256.023336 
L 90.697898 256.119339 
L 91.300226 256.236364 
L 91.902554 256.082046 
L 92.504881 256.401437 
L 94.311864 256.391297 
L 94.914191 256.455083 
L 95.516519 256.347631 
L 96.118846 256.59719 
L 98.528157 256.769931 
L 99.130484 256.575988 
L 99.732812 256.914858 
L 100.937467 256.850134 
L 101.539794 256.871735 
L 102.142122 257.034265 
L 102.744449 256.890537 
L 103.346777 257.053895 
L 103.949104 257.002866 
L 105.756087 257.110812 
L 106.358415 257.056799 
L 106.960742 257.301131 
L 107.56307 257.19791 
L 108.165397 257.339948 
L 109.97238 257.376627 
L 110.574707 257.534906 
L 112.38169 257.403461 
L 112.984018 257.674968 
L 113.586345 257.480109 
L 114.188673 257.686319 
L 114.791 257.590001 
L 116.597983 257.73416 
L 117.20031 257.671367 
L 117.802638 257.929919 
L 118.404965 257.880678 
L 119.007293 257.996968 
L 119.609621 257.879446 
L 120.211948 258.034331 
L 121.416603 257.987721 
L 123.223586 258.15336 
L 124.428241 258.193082 
L 125.030568 258.378155 
L 126.837551 258.538824 
L 129.246861 258.805449 
L 129.849189 259.006848 
L 132.258499 259.075747 
L 132.860826 259.140147 
L 133.463154 259.421186 
L 134.667809 259.492161 
L 137.679447 259.763404 
L 138.281774 259.616817 
L 140.691084 260.039379 
L 141.293412 259.966856 
L 141.89574 260.144256 
L 143.100395 260.10852 
L 145.509705 260.31757 
L 146.112032 260.110884 
L 146.71436 260.471194 
L 149.12367 260.668713 
L 149.725998 260.671426 
L 150.328325 261.164523 
L 150.930653 261.127329 
L 152.135308 261.306084 
L 152.737635 261.240669 
L 153.339963 261.375594 
L 153.94229 261.79846 
L 154.544618 261.835764 
L 155.146946 261.721727 
L 155.749273 261.955186 
L 156.953928 261.760689 
L 157.556256 262.383414 
L 158.760911 262.07125 
L 159.363238 262.318963 
L 159.965566 262.340989 
L 160.567893 262.164096 
L 161.170221 262.588196 
L 161.772548 262.713084 
L 162.374876 262.671622 
L 162.977204 263.167347 
L 163.579531 263.295551 
L 164.181859 263.22363 
L 164.784186 263.596055 
L 165.386514 263.560801 
L 165.988841 263.893279 
L 166.591169 263.809859 
L 167.193496 264.331265 
L 167.795824 264.104191 
L 168.398151 264.491371 
L 169.000479 264.520782 
L 169.602807 264.682608 
L 170.205134 264.434634 
L 170.807462 264.752072 
L 171.409789 263.976031 
L 172.012117 264.40278 
L 175.023754 263.58922 
L 175.626082 263.865664 
L 176.22841 263.248241 
L 176.830737 263.781788 
L 177.433065 263.984111 
L 178.035392 263.846615 
L 178.63772 264.221081 
L 179.842375 265.379872 
L 180.444702 266.191551 
L 181.649357 267.255914 
L 182.251685 267.949804 
L 182.854012 268.403577 
L 184.660995 271.353893 
L 185.263323 271.681955 
L 185.86565 272.688611 
L 186.467978 273.281996 
L 187.070305 274.350153 
L 187.672633 274.932696 
L 188.27496 275.299088 
L 190.081943 277.596547 
L 190.684271 278.158958 
L 191.286598 278.380547 
L 193.695908 280.737805 
L 194.298236 281.483017 
L 194.900563 281.133489 
L 195.502891 281.804582 
L 196.105218 281.858931 
L 196.707546 283.211946 
L 197.309874 283.053156 
L 198.514529 284.164003 
L 199.116856 283.971166 
L 199.719184 284.070975 
L 200.923839 285.409176 
L 201.526166 284.786531 
L 202.128494 285.665607 
L 202.730821 286.326525 
L 203.333149 285.575542 
L 203.935476 286.554742 
L 204.537804 286.512269 
L 205.140132 286.783487 
L 205.742459 286.800629 
L 206.344787 287.392872 
L 206.947114 286.995009 
L 207.549442 287.856094 
L 208.151769 288.176192 
L 208.754097 287.719426 
L 209.958752 287.869606 
L 210.561079 287.562609 
L 211.163407 288.754178 
L 211.765735 289.419696 
L 212.368062 288.414767 
L 212.97039 288.449987 
L 213.572717 288.898124 
L 214.175045 288.409731 
L 214.777372 289.442726 
L 215.3797 288.842896 
L 215.982027 289.374972 
L 216.584355 289.008589 
L 217.186682 289.653429 
L 217.78901 289.195196 
L 218.391337 289.384416 
L 218.993665 290.216606 
L 219.595993 289.520888 
L 220.19832 290.06318 
L 220.800648 289.639274 
L 221.402975 289.553284 
L 222.005303 289.835313 
L 222.60763 290.550161 
L 224.414613 289.893984 
L 225.01694 290.537593 
L 225.619268 290.023316 
L 226.221596 291.236476 
L 226.823923 289.850382 
L 227.426251 290.632087 
L 228.028578 290.526177 
L 228.630906 290.307405 
L 229.233233 290.803737 
L 229.835561 290.667647 
L 230.437888 290.914623 
L 231.040216 290.696149 
L 231.642543 291.599946 
L 232.244871 290.54991 
L 232.847199 291.158462 
L 233.449526 291.199972 
L 234.051854 290.822955 
L 234.654181 291.076641 
L 235.256509 291.052579 
L 235.858836 290.851646 
L 236.461164 291.214375 
L 237.063491 291.423438 
L 237.665819 290.779608 
L 238.268146 291.571585 
L 238.870474 291.352592 
L 239.472801 291.52421 
L 240.075129 291.451568 
L 240.677457 291.981727 
L 241.279784 291.750347 
L 241.882112 291.25851 
L 242.484439 291.570891 
L 243.086767 291.117516 
L 243.689094 291.783189 
L 244.291422 291.264921 
L 246.098404 292.359694 
L 246.700732 291.850349 
L 249.110042 291.93592 
L 249.71237 292.437106 
L 250.314697 292.329218 
L 250.917025 292.359515 
L 251.519352 292.085416 
L 252.12168 292.577931 
L 253.326335 291.993018 
L 253.928663 292.035499 
L 254.53099 291.713279 
L 255.133318 292.205662 
L 255.735645 292.357953 
L 256.337973 291.694668 
L 256.9403 292.840287 
L 258.144955 291.748375 
L 258.747283 292.863089 
L 259.951938 292.533794 
L 260.554265 292.843824 
L 261.758921 291.78271 
L 262.361248 293.048128 
L 262.963576 292.583205 
L 263.565903 291.649151 
L 264.168231 292.655454 
L 264.770558 292.499458 
L 265.372886 292.737827 
L 265.975213 292.532137 
L 266.577541 292.713349 
L 267.179868 293.144652 
L 268.384524 292.334417 
L 268.986851 292.196785 
L 269.589179 293.115091 
L 270.191506 292.913799 
L 270.793834 292.898038 
L 271.998489 291.742041 
L 272.600816 292.535909 
L 273.203144 292.920481 
L 275.010126 293.130748 
L 275.612454 292.811835 
L 276.214782 292.807547 
L 276.817109 292.45032 
L 277.419437 293.370858 
L 278.624092 292.975622 
L 279.226419 292.914398 
L 279.828747 293.435379 
L 280.431074 293.006997 
L 282.238057 293.172142 
L 282.840385 291.821227 
L 283.442712 292.819498 
L 284.04504 293.488956 
L 284.647367 293.618781 
L 285.249695 293.013657 
L 285.852022 293.337179 
L 286.45435 293.195279 
L 287.056677 293.189411 
L 287.659005 293.513984 
L 288.261332 292.706948 
L 288.86366 293.403245 
L 289.465988 293.038965 
L 290.068315 292.899303 
L 290.670643 292.901651 
L 291.27297 293.605937 
L 291.875298 293.1616 
L 292.477625 293.767649 
L 293.079953 293.300046 
L 293.68228 293.218228 
L 294.284608 292.971532 
L 294.886935 293.518615 
L 295.489263 293.369928 
L 296.09159 293.831692 
L 296.693918 293.45734 
L 297.296246 293.241607 
L 297.898573 293.483742 
L 298.500901 293.375665 
L 299.705556 293.352937 
L 300.307883 292.796149 
L 301.512538 293.097877 
L 302.114866 293.432739 
L 302.717193 293.209787 
L 303.319521 294.297089 
L 304.524176 293.465613 
L 305.126504 292.588564 
L 305.728831 293.754368 
L 306.331159 294.007306 
L 306.933486 293.845636 
L 307.535814 292.909947 
L 308.138141 292.875787 
L 308.740469 293.69651 
L 309.342796 293.810935 
L 309.945124 293.105437 
L 311.149779 293.736436 
L 311.752107 292.412051 
L 312.354434 293.429708 
L 312.956762 294.166205 
L 313.559089 293.58497 
L 314.161417 294.282837 
L 315.366072 293.378973 
L 316.570727 293.776708 
L 317.173054 293.44909 
L 317.775382 293.645677 
L 318.37771 294.03962 
L 318.980037 293.544734 
L 319.582365 293.225159 
L 320.184692 293.419583 
L 320.78702 294.016629 
L 321.991675 294.355512 
L 322.594002 293.569454 
L 323.798657 294.093364 
L 324.400985 293.930942 
L 325.003313 294.165014 
L 325.60564 293.618237 
L 326.207968 293.492246 
L 326.810295 293.575227 
L 327.412623 294.326138 
L 328.01495 294.109979 
L 328.617278 294.483261 
L 329.219605 294.5103 
L 329.821933 293.493927 
L 330.42426 293.946602 
L 331.026588 294.090372 
L 331.628916 293.508204 
L 332.231243 293.973633 
L 332.833571 294.174037 
L 334.038226 293.575378 
L 334.640553 294.870922 
L 335.242881 293.58104 
L 335.845208 293.854283 
L 336.447536 294.277502 
L 337.049863 293.113809 
L 337.652191 293.921596 
L 338.856846 294.267385 
L 339.459174 293.473721 
L 340.061501 294.404177 
L 340.663829 293.383588 
L 341.266156 294.187934 
L 341.868484 294.118003 
L 342.470811 294.271796 
L 343.073139 293.909319 
L 343.675466 293.965065 
L 344.277794 293.88659 
L 344.880121 293.362628 
L 345.482449 294.213765 
L 346.084777 294.16971 
L 346.687104 293.680241 
L 347.289432 294.612178 
L 347.891759 293.687227 
L 348.494087 293.291149 
L 349.096414 294.600223 
L 350.301069 294.404281 
L 350.903397 293.850254 
L 351.505724 294.160123 
L 352.108052 293.471104 
L 352.710379 294.281799 
L 353.312707 294.063977 
L 353.915035 294.315624 
L 354.517362 294.293242 
L 355.11969 294.627424 
L 355.722017 294.1776 
L 356.324345 294.596847 
L 356.926672 293.918923 
L 357.529 294.098922 
L 358.131327 294.439662 
L 358.733655 294.354296 
L 359.335982 293.710184 
L 359.93831 294.408248 
L 361.142965 294.257699 
L 361.745293 294.610897 
L 362.34762 294.614701 
L 362.949948 293.620621 
L 363.552275 294.35523 
L 364.154603 294.331692 
L 364.75693 294.614504 
L 365.359258 294.371149 
L 365.961585 293.98327 
L 366.563913 293.730745 
L 367.166241 294.823025 
L 367.768568 294.438584 
L 368.370896 294.326728 
L 369.575551 294.392844 
L 370.177878 293.989643 
L 370.780206 295.044199 
L 371.382533 294.480475 
L 371.984861 294.494375 
L 372.587188 293.745643 
L 373.189516 293.793207 
L 373.791843 294.21942 
L 374.394171 294.863158 
L 374.996499 294.563126 
L 375.598826 294.600219 
L 376.201154 295.116965 
L 376.803481 294.649066 
L 377.405809 294.858854 
L 378.008136 294.67563 
L 378.610464 294.318005 
L 379.212791 294.77416 
L 379.815119 294.457489 
L 380.417446 295.337461 
L 381.019774 294.415046 
L 381.622102 294.920253 
L 382.826757 294.585701 
L 383.429084 295.133878 
L 384.031412 294.157837 
L 384.633739 294.126594 
L 385.236067 294.662972 
L 385.838394 294.110286 
L 386.440722 294.898086 
L 387.043049 294.907825 
L 387.645377 294.461623 
L 388.247705 293.756731 
L 388.850032 294.742393 
L 389.45236 294.663293 
L 390.054687 294.910804 
L 391.259342 294.175209 
L 391.86167 293.960708 
L 392.463997 295.488 
L 393.066325 294.337019 
L 393.668652 294.26767 
L 394.27098 295.145173 
L 394.873307 294.442696 
L 395.475635 294.483055 
L 396.077963 294.936449 
L 396.68029 294.472 
L 397.282618 294.757736 
L 397.884945 294.558466 
L 398.487273 294.772113 
L 398.487273 294.772113 
" clip-path="url(#pa7e81582f5)" style="fill: none; stroke: #dc143c; stroke-width: 2; stroke-linecap: square"/>
   </g>
   <g id="line2d_31">
    <path d="M 73.832727 257.55601 
L 76.844365 257.55601 
L 77.446693 249.274792 
L 80.45833 249.274792 
L 81.060658 244.196125 
L 84.072295 244.196125 
L 84.674623 243.113261 
L 87.686261 243.113261 
L 88.288588 244.382588 
L 91.300226 244.382588 
L 91.902554 246.785833 
L 94.914191 246.785833 
L 95.516519 249.37836 
L 98.528157 249.37836 
L 99.130484 252.461892 
L 102.142122 252.461892 
L 102.744449 256.476487 
L 105.756087 256.476487 
L 106.358415 261.334133 
L 109.370052 261.334133 
L 109.97238 266.312052 
L 112.984018 266.312052 
L 113.586345 270.616051 
L 116.597983 270.616051 
L 117.20031 274.05925 
L 120.211948 274.05925 
L 120.814276 275.177507 
L 123.825913 275.177507 
L 124.428241 272.894952 
L 127.439879 272.894952 
L 128.042206 268.233478 
L 131.053844 268.233478 
L 131.656171 263.455491 
L 134.667809 263.455491 
L 135.270137 260.024715 
L 138.281774 260.024715 
L 138.884102 257.732868 
L 141.89574 257.732868 
L 142.498067 256.010851 
L 145.509705 256.010851 
L 146.112032 255.451671 
L 149.12367 255.451671 
L 149.725998 255.69639 
L 152.737635 255.69639 
L 153.339963 256.34661 
L 156.351601 256.34661 
L 156.953928 258.043571 
L 159.965566 258.043571 
L 160.567893 259.481508 
L 163.579531 259.481508 
L 164.181859 260.924249 
L 167.193496 260.924249 
L 167.795824 264.329028 
L 170.807462 264.329028 
L 171.409789 267.113655 
L 174.421427 267.113655 
L 175.023754 269.212149 
L 178.035392 269.212149 
L 178.63772 270.964443 
L 181.649357 270.964443 
L 182.251685 269.822382 
L 185.263323 269.822382 
L 185.86565 267.226201 
L 188.877288 267.226201 
L 189.479615 266.586631 
L 192.491253 266.586631 
L 193.093581 266.148557 
L 199.719184 266.257554 
L 200.321511 266.373858 
L 203.333149 266.373858 
L 203.935476 266.554057 
L 206.947114 266.554057 
L 207.549442 266.703979 
L 221.402975 266.67767 
L 222.005303 266.445896 
L 235.858836 266.409981 
L 236.461164 266.222057 
L 246.700732 266.318734 
L 247.30306 265.967941 
L 250.314697 265.967941 
L 250.917025 265.60107 
L 253.928663 265.60107 
L 254.53099 265.723116 
L 261.156593 265.739925 
L 261.758921 265.567034 
L 268.384524 265.652645 
L 268.986851 265.354679 
L 271.998489 265.354679 
L 272.600816 265.767696 
L 275.612454 265.767696 
L 276.214782 265.449686 
L 279.226419 265.449686 
L 279.828747 265.330249 
L 282.840385 265.330249 
L 283.442712 265.019651 
L 286.45435 265.019651 
L 287.056677 264.805939 
L 290.068315 264.805939 
L 290.670643 265.20434 
L 293.68228 265.20434 
L 294.284608 264.75687 
L 297.296246 264.75687 
L 297.898573 264.938322 
L 308.138141 264.835381 
L 308.740469 264.661863 
L 311.752107 264.661863 
L 312.354434 265.073314 
L 315.366072 265.073314 
L 315.968399 264.372459 
L 318.980037 264.372459 
L 319.582365 264.871817 
L 322.594002 264.871817 
L 323.19633 264.495132 
L 326.207968 264.495132 
L 326.810295 265.063187 
L 329.821933 265.063187 
L 330.42426 264.547438 
L 333.435898 264.547438 
L 334.038226 264.663116 
L 340.663829 264.672095 
L 341.266156 264.457861 
L 351.505724 264.549109 
L 352.108052 264.827655 
L 358.733655 264.72534 
L 359.93831 264.631691 
L 362.34762 264.631691 
L 362.949948 264.310235 
L 365.961585 264.310235 
L 366.563913 264.196019 
L 369.575551 264.196019 
L 370.177878 264.040668 
L 373.189516 264.040668 
L 373.791843 264.322346 
L 380.417446 264.411715 
L 382.826757 264.448673 
L 387.645377 264.497951 
L 388.247705 264.637642 
L 394.873307 264.682326 
L 395.475635 264.061131 
L 398.487273 264.061131 
L 398.487273 264.061131 
" clip-path="url(#pa7e81582f5)" style="fill: none; stroke: #ffff00; stroke-width: 3; stroke-linecap: square"/>
   </g>
   <g id="patch_3">
    <path d="M 57.6 307.584 
L 57.6 41.472 
" style="fill: none; stroke: #ffffff; stroke-linejoin: miter; stroke-linecap: square"/>
   </g>
   <g id="patch_4">
    <path d="M 414.72 307.584 
L 414.72 41.472 
" style="fill: none; stroke: #ffffff; stroke-linejoin: miter; stroke-linecap: square"/>
   </g>
   <g id="patch_5">
    <path d="M 57.6 307.584 
L 414.72 307.584 
" style="fill: none; stroke: #ffffff; stroke-linejoin: miter; stroke-linecap: square"/>
   </g>
   <g id="patch_6">
    <path d="M 57.6 41.472 
L 414.72 41.472 
" style="fill: none; stroke: #ffffff; stroke-linejoin: miter; stroke-linecap: square"/>
   </g>
   <g id="legend_1">
    <g id="patch_7">
     <path d="M 243.124687 302.584 
L 407.72 302.584 
Q 409.72 302.584 409.72 300.584 
L 409.72 257.549625 
Q 409.72 255.549625 407.72 255.549625 
L 243.124687 255.549625 
Q 241.124687 255.549625 241.124687 257.549625 
L 241.124687 300.584 
Q 241.124687 302.584 243.124687 302.584 
z
" style="fill: #e5e5e5; opacity: 0.8; stroke: #cccccc; stroke-width: 0.5; stroke-linejoin: miter"/>
    </g>
    <g id="line2d_32">
     <path d="M 245.124687 263.648062 
L 255.124687 263.648062 
L 265.124687 263.648062 
" style="fill: none; stroke: #6495ed; stroke-width: 2; stroke-linecap: square"/>
    </g>
    <g id="text_17">
     <!-- Generator loss -->
     <g transform="translate(273.124687 267.148062) scale(0.1 -0.1)">
      <defs>
       <path id="DejaVuSans-47" d="M 3809 666 
L 3809 1919 
L 2778 1919 
L 2778 2438 
L 4434 2438 
L 4434 434 
Q 4069 175 3628 42 
Q 3188 -91 2688 -91 
Q 1594 -91 976 548 
Q 359 1188 359 2328 
Q 359 3472 976 4111 
Q 1594 4750 2688 4750 
Q 3144 4750 3555 4637 
Q 3966 4525 4313 4306 
L 4313 3634 
Q 3963 3931 3569 4081 
Q 3175 4231 2741 4231 
Q 1884 4231 1454 3753 
Q 1025 3275 1025 2328 
Q 1025 1384 1454 906 
Q 1884 428 2741 428 
Q 3075 428 3337 486 
Q 3600 544 3809 666 
z
" transform="scale(0.015625)"/>
       <path id="DejaVuSans-65" d="M 3597 1894 
L 3597 1613 
L 953 1613 
Q 991 1019 1311 708 
Q 1631 397 2203 397 
Q 2534 397 2845 478 
Q 3156 559 3463 722 
L 3463 178 
Q 3153 47 2828 -22 
Q 2503 -91 2169 -91 
Q 1331 -91 842 396 
Q 353 884 353 1716 
Q 353 2575 817 3079 
Q 1281 3584 2069 3584 
Q 2775 3584 3186 3129 
Q 3597 2675 3597 1894 
z
M 3022 2063 
Q 3016 2534 2758 2815 
Q 2500 3097 2075 3097 
Q 1594 3097 1305 2825 
Q 1016 2553 972 2059 
L 3022 2063 
z
" transform="scale(0.015625)"/>
       <path id="DejaVuSans-6e" d="M 3513 2113 
L 3513 0 
L 2938 0 
L 2938 2094 
Q 2938 2591 2744 2837 
Q 2550 3084 2163 3084 
Q 1697 3084 1428 2787 
Q 1159 2491 1159 1978 
L 1159 0 
L 581 0 
L 581 3500 
L 1159 3500 
L 1159 2956 
Q 1366 3272 1645 3428 
Q 1925 3584 2291 3584 
Q 2894 3584 3203 3211 
Q 3513 2838 3513 2113 
z
" transform="scale(0.015625)"/>
       <path id="DejaVuSans-72" d="M 2631 2963 
Q 2534 3019 2420 3045 
Q 2306 3072 2169 3072 
Q 1681 3072 1420 2755 
Q 1159 2438 1159 1844 
L 1159 0 
L 581 0 
L 581 3500 
L 1159 3500 
L 1159 2956 
Q 1341 3275 1631 3429 
Q 1922 3584 2338 3584 
Q 2397 3584 2469 3576 
Q 2541 3569 2628 3553 
L 2631 2963 
z
" transform="scale(0.015625)"/>
       <path id="DejaVuSans-61" d="M 2194 1759 
Q 1497 1759 1228 1600 
Q 959 1441 959 1056 
Q 959 750 1161 570 
Q 1363 391 1709 391 
Q 2188 391 2477 730 
Q 2766 1069 2766 1631 
L 2766 1759 
L 2194 1759 
z
M 3341 1997 
L 3341 0 
L 2766 0 
L 2766 531 
Q 2569 213 2275 61 
Q 1981 -91 1556 -91 
Q 1019 -91 701 211 
Q 384 513 384 1019 
Q 384 1609 779 1909 
Q 1175 2209 1959 2209 
L 2766 2209 
L 2766 2266 
Q 2766 2663 2505 2880 
Q 2244 3097 1772 3097 
Q 1472 3097 1187 3025 
Q 903 2953 641 2809 
L 641 3341 
Q 956 3463 1253 3523 
Q 1550 3584 1831 3584 
Q 2591 3584 2966 3190 
Q 3341 2797 3341 1997 
z
" transform="scale(0.015625)"/>
       <path id="DejaVuSans-74" d="M 1172 4494 
L 1172 3500 
L 2356 3500 
L 2356 3053 
L 1172 3053 
L 1172 1153 
Q 1172 725 1289 603 
Q 1406 481 1766 481 
L 2356 481 
L 2356 0 
L 1766 0 
Q 1100 0 847 248 
Q 594 497 594 1153 
L 594 3053 
L 172 3053 
L 172 3500 
L 594 3500 
L 594 4494 
L 1172 4494 
z
" transform="scale(0.015625)"/>
       <path id="DejaVuSans-20" transform="scale(0.015625)"/>
       <path id="DejaVuSans-6c" d="M 603 4863 
L 1178 4863 
L 1178 0 
L 603 0 
L 603 4863 
z
" transform="scale(0.015625)"/>
      </defs>
      <use xlink:href="#DejaVuSans-47"/>
      <use xlink:href="#DejaVuSans-65" x="77.490234"/>
      <use xlink:href="#DejaVuSans-6e" x="139.013672"/>
      <use xlink:href="#DejaVuSans-65" x="202.392578"/>
      <use xlink:href="#DejaVuSans-72" x="263.916016"/>
      <use xlink:href="#DejaVuSans-61" x="305.029297"/>
      <use xlink:href="#DejaVuSans-74" x="366.308594"/>
      <use xlink:href="#DejaVuSans-6f" x="405.517578"/>
      <use xlink:href="#DejaVuSans-72" x="466.699219"/>
      <use xlink:href="#DejaVuSans-20" x="507.8125"/>
      <use xlink:href="#DejaVuSans-6c" x="539.599609"/>
      <use xlink:href="#DejaVuSans-6f" x="567.382812"/>
      <use xlink:href="#DejaVuSans-73" x="628.564453"/>
      <use xlink:href="#DejaVuSans-73" x="680.664062"/>
     </g>
    </g>
    <g id="line2d_33">
     <path d="M 245.124687 278.326188 
L 255.124687 278.326188 
L 265.124687 278.326188 
" style="fill: none; stroke: #dc143c; stroke-width: 2; stroke-linecap: square"/>
    </g>
    <g id="text_18">
     <!-- Average discriminator loss -->
     <g transform="translate(273.124687 281.826188) scale(0.1 -0.1)">
      <defs>
       <path id="DejaVuSans-41" d="M 2188 4044 
L 1331 1722 
L 3047 1722 
L 2188 4044 
z
M 1831 4666 
L 2547 4666 
L 4325 0 
L 3669 0 
L 3244 1197 
L 1141 1197 
L 716 0 
L 50 0 
L 1831 4666 
z
" transform="scale(0.015625)"/>
       <path id="DejaVuSans-76" d="M 191 3500 
L 800 3500 
L 1894 563 
L 2988 3500 
L 3597 3500 
L 2284 0 
L 1503 0 
L 191 3500 
z
" transform="scale(0.015625)"/>
       <path id="DejaVuSans-67" d="M 2906 1791 
Q 2906 2416 2648 2759 
Q 2391 3103 1925 3103 
Q 1463 3103 1205 2759 
Q 947 2416 947 1791 
Q 947 1169 1205 825 
Q 1463 481 1925 481 
Q 2391 481 2648 825 
Q 2906 1169 2906 1791 
z
M 3481 434 
Q 3481 -459 3084 -895 
Q 2688 -1331 1869 -1331 
Q 1566 -1331 1297 -1286 
Q 1028 -1241 775 -1147 
L 775 -588 
Q 1028 -725 1275 -790 
Q 1522 -856 1778 -856 
Q 2344 -856 2625 -561 
Q 2906 -266 2906 331 
L 2906 616 
Q 2728 306 2450 153 
Q 2172 0 1784 0 
Q 1141 0 747 490 
Q 353 981 353 1791 
Q 353 2603 747 3093 
Q 1141 3584 1784 3584 
Q 2172 3584 2450 3431 
Q 2728 3278 2906 2969 
L 2906 3500 
L 3481 3500 
L 3481 434 
z
" transform="scale(0.015625)"/>
       <path id="DejaVuSans-64" d="M 2906 2969 
L 2906 4863 
L 3481 4863 
L 3481 0 
L 2906 0 
L 2906 525 
Q 2725 213 2448 61 
Q 2172 -91 1784 -91 
Q 1150 -91 751 415 
Q 353 922 353 1747 
Q 353 2572 751 3078 
Q 1150 3584 1784 3584 
Q 2172 3584 2448 3432 
Q 2725 3281 2906 2969 
z
M 947 1747 
Q 947 1113 1208 752 
Q 1469 391 1925 391 
Q 2381 391 2643 752 
Q 2906 1113 2906 1747 
Q 2906 2381 2643 2742 
Q 2381 3103 1925 3103 
Q 1469 3103 1208 2742 
Q 947 2381 947 1747 
z
" transform="scale(0.015625)"/>
       <path id="DejaVuSans-69" d="M 603 3500 
L 1178 3500 
L 1178 0 
L 603 0 
L 603 3500 
z
M 603 4863 
L 1178 4863 
L 1178 4134 
L 603 4134 
L 603 4863 
z
" transform="scale(0.015625)"/>
       <path id="DejaVuSans-6d" d="M 3328 2828 
Q 3544 3216 3844 3400 
Q 4144 3584 4550 3584 
Q 5097 3584 5394 3201 
Q 5691 2819 5691 2113 
L 5691 0 
L 5113 0 
L 5113 2094 
Q 5113 2597 4934 2840 
Q 4756 3084 4391 3084 
Q 3944 3084 3684 2787 
Q 3425 2491 3425 1978 
L 3425 0 
L 2847 0 
L 2847 2094 
Q 2847 2600 2669 2842 
Q 2491 3084 2119 3084 
Q 1678 3084 1418 2786 
Q 1159 2488 1159 1978 
L 1159 0 
L 581 0 
L 581 3500 
L 1159 3500 
L 1159 2956 
Q 1356 3278 1631 3431 
Q 1906 3584 2284 3584 
Q 2666 3584 2933 3390 
Q 3200 3197 3328 2828 
z
" transform="scale(0.015625)"/>
      </defs>
      <use xlink:href="#DejaVuSans-41"/>
      <use xlink:href="#DejaVuSans-76" x="62.533203"/>
      <use xlink:href="#DejaVuSans-65" x="121.712891"/>
      <use xlink:href="#DejaVuSans-72" x="183.236328"/>
      <use xlink:href="#DejaVuSans-61" x="224.349609"/>
      <use xlink:href="#DejaVuSans-67" x="285.628906"/>
      <use xlink:href="#DejaVuSans-65" x="349.105469"/>
      <use xlink:href="#DejaVuSans-20" x="410.628906"/>
      <use xlink:href="#DejaVuSans-64" x="442.416016"/>
      <use xlink:href="#DejaVuSans-69" x="505.892578"/>
      <use xlink:href="#DejaVuSans-73" x="533.675781"/>
      <use xlink:href="#DejaVuSans-63" x="585.775391"/>
      <use xlink:href="#DejaVuSans-72" x="640.755859"/>
      <use xlink:href="#DejaVuSans-69" x="681.869141"/>
      <use xlink:href="#DejaVuSans-6d" x="709.652344"/>
      <use xlink:href="#DejaVuSans-69" x="807.064453"/>
      <use xlink:href="#DejaVuSans-6e" x="834.847656"/>
      <use xlink:href="#DejaVuSans-61" x="898.226562"/>
      <use xlink:href="#DejaVuSans-74" x="959.505859"/>
      <use xlink:href="#DejaVuSans-6f" x="998.714844"/>
      <use xlink:href="#DejaVuSans-72" x="1059.896484"/>
      <use xlink:href="#DejaVuSans-20" x="1101.009766"/>
      <use xlink:href="#DejaVuSans-6c" x="1132.796875"/>
      <use xlink:href="#DejaVuSans-6f" x="1160.580078"/>
      <use xlink:href="#DejaVuSans-73" x="1221.761719"/>
      <use xlink:href="#DejaVuSans-73" x="1273.861328"/>
     </g>
    </g>
    <g id="line2d_34">
     <path d="M 245.124687 293.004312 
L 255.124687 293.004312 
L 265.124687 293.004312 
" style="fill: none; stroke: #ffff00; stroke-width: 3; stroke-linecap: square"/>
    </g>
    <g id="text_19">
     <!-- ROC AUC -->
     <g transform="translate(273.124687 296.504312) scale(0.1 -0.1)">
      <defs>
       <path id="DejaVuSans-52" d="M 2841 2188 
Q 3044 2119 3236 1894 
Q 3428 1669 3622 1275 
L 4263 0 
L 3584 0 
L 2988 1197 
Q 2756 1666 2539 1819 
Q 2322 1972 1947 1972 
L 1259 1972 
L 1259 0 
L 628 0 
L 628 4666 
L 2053 4666 
Q 2853 4666 3247 4331 
Q 3641 3997 3641 3322 
Q 3641 2881 3436 2590 
Q 3231 2300 2841 2188 
z
M 1259 4147 
L 1259 2491 
L 2053 2491 
Q 2509 2491 2742 2702 
Q 2975 2913 2975 3322 
Q 2975 3731 2742 3939 
Q 2509 4147 2053 4147 
L 1259 4147 
z
" transform="scale(0.015625)"/>
       <path id="DejaVuSans-4f" d="M 2522 4238 
Q 1834 4238 1429 3725 
Q 1025 3213 1025 2328 
Q 1025 1447 1429 934 
Q 1834 422 2522 422 
Q 3209 422 3611 934 
Q 4013 1447 4013 2328 
Q 4013 3213 3611 3725 
Q 3209 4238 2522 4238 
z
M 2522 4750 
Q 3503 4750 4090 4092 
Q 4678 3434 4678 2328 
Q 4678 1225 4090 567 
Q 3503 -91 2522 -91 
Q 1538 -91 948 565 
Q 359 1222 359 2328 
Q 359 3434 948 4092 
Q 1538 4750 2522 4750 
z
" transform="scale(0.015625)"/>
       <path id="DejaVuSans-43" d="M 4122 4306 
L 4122 3641 
Q 3803 3938 3442 4084 
Q 3081 4231 2675 4231 
Q 1875 4231 1450 3742 
Q 1025 3253 1025 2328 
Q 1025 1406 1450 917 
Q 1875 428 2675 428 
Q 3081 428 3442 575 
Q 3803 722 4122 1019 
L 4122 359 
Q 3791 134 3420 21 
Q 3050 -91 2638 -91 
Q 1578 -91 968 557 
Q 359 1206 359 2328 
Q 359 3453 968 4101 
Q 1578 4750 2638 4750 
Q 3056 4750 3426 4639 
Q 3797 4528 4122 4306 
z
" transform="scale(0.015625)"/>
       <path id="DejaVuSans-55" d="M 556 4666 
L 1191 4666 
L 1191 1831 
Q 1191 1081 1462 751 
Q 1734 422 2344 422 
Q 2950 422 3222 751 
Q 3494 1081 3494 1831 
L 3494 4666 
L 4128 4666 
L 4128 1753 
Q 4128 841 3676 375 
Q 3225 -91 2344 -91 
Q 1459 -91 1007 375 
Q 556 841 556 1753 
L 556 4666 
z
" transform="scale(0.015625)"/>
      </defs>
      <use xlink:href="#DejaVuSans-52"/>
      <use xlink:href="#DejaVuSans-4f" x="69.482422"/>
      <use xlink:href="#DejaVuSans-43" x="148.193359"/>
      <use xlink:href="#DejaVuSans-20" x="218.017578"/>
      <use xlink:href="#DejaVuSans-41" x="249.804688"/>
      <use xlink:href="#DejaVuSans-55" x="318.212891"/>
      <use xlink:href="#DejaVuSans-43" x="391.40625"/>
     </g>
    </g>
   </g>
  </g>
 </g>
 <defs>
  <clipPath id="pa7e81582f5">
   <rect x="57.6" y="41.472" width="357.12" height="266.112"/>
  </clipPath>
 </defs>
</svg>
