<?xml version="1.0" encoding="utf-8" standalone="no"?>
<!DOCTYPE svg PUBLIC "-//W3C//DTD SVG 1.1//EN"
  "http://www.w3.org/Graphics/SVG/1.1/DTD/svg11.dtd">
<svg xmlns:xlink="http://www.w3.org/1999/xlink" width="460.8pt" height="345.6pt" viewBox="0 0 460.8 345.6" xmlns="http://www.w3.org/2000/svg" version="1.1">
 <metadata>
  <rdf:RDF xmlns:dc="http://purl.org/dc/elements/1.1/" xmlns:cc="http://creativecommons.org/ns#" xmlns:rdf="http://www.w3.org/1999/02/22-rdf-syntax-ns#">
   <cc:Work>
    <dc:type rdf:resource="http://purl.org/dc/dcmitype/StillImage"/>
    <dc:date>2023-07-13T09:08:34.898969</dc:date>
    <dc:format>image/svg+xml</dc:format>
    <dc:creator>
     <cc:Agent>
      <dc:title>Matplotlib v3.7.1, https://matplotlib.org/</dc:title>
     </cc:Agent>
    </dc:creator>
   </cc:Work>
  </rdf:RDF>
 </metadata>
 <defs>
  <style type="text/css">*{stroke-linejoin: round; stroke-linecap: butt}</style>
 </defs>
 <g id="figure_1">
  <g id="patch_1">
   <path d="M 0 345.6 
L 460.8 345.6 
L 460.8 0 
L 0 0 
z
" style="fill: #ffffff"/>
  </g>
  <g id="axes_1">
   <g id="patch_2">
    <path d="M 57.6 307.584 
L 414.72 307.584 
L 414.72 41.472 
L 57.6 41.472 
z
" style="fill: #e5e5e5"/>
   </g>
   <g id="matplotlib.axis_1">
    <g id="xtick_1">
     <g id="line2d_1">
      <path d="M 73.2304 307.584 
L 73.2304 41.472 
" clip-path="url(#p2f6e320e49)" style="fill: none; stroke: #ffffff; stroke-width: 0.8; stroke-linecap: square"/>
     </g>
     <g id="line2d_2">
      <defs>
       <path id="mc8e2412e49" d="M 0 0 
L 0 3.5 
" style="stroke: #555555; stroke-width: 0.8"/>
      </defs>
      <g>
       <use xlink:href="#mc8e2412e49" x="73.2304" y="307.584" style="fill: #555555; stroke: #555555; stroke-width: 0.8"/>
      </g>
     </g>
     <g id="text_1">
      <!-- 0 -->
      <g style="fill: #555555" transform="translate(70.04915 322.182437) scale(0.1 -0.1)">
       <defs>
        <path id="DejaVuSans-30" d="M 2034 4250 
Q 1547 4250 1301 3770 
Q 1056 3291 1056 2328 
Q 1056 1369 1301 889 
Q 1547 409 2034 409 
Q 2525 409 2770 889 
Q 3016 1369 3016 2328 
Q 3016 3291 2770 3770 
Q 2525 4250 2034 4250 
z
M 2034 4750 
Q 2819 4750 3233 4129 
Q 3647 3509 3647 2328 
Q 3647 1150 3233 529 
Q 2819 -91 2034 -91 
Q 1250 -91 836 529 
Q 422 1150 422 2328 
Q 422 3509 836 4129 
Q 1250 4750 2034 4750 
z
" transform="scale(0.015625)"/>
       </defs>
       <use xlink:href="#DejaVuSans-30"/>
      </g>
     </g>
    </g>
    <g id="xtick_2">
     <g id="line2d_3">
      <path d="M 133.463154 307.584 
L 133.463154 41.472 
" clip-path="url(#p2f6e320e49)" style="fill: none; stroke: #ffffff; stroke-width: 0.8; stroke-linecap: square"/>
     </g>
     <g id="line2d_4">
      <g>
       <use xlink:href="#mc8e2412e49" x="133.463154" y="307.584" style="fill: #555555; stroke: #555555; stroke-width: 0.8"/>
      </g>
     </g>
     <g id="text_2">
      <!-- 100 -->
      <g style="fill: #555555" transform="translate(123.919404 322.182437) scale(0.1 -0.1)">
       <defs>
        <path id="DejaVuSans-31" d="M 794 531 
L 1825 531 
L 1825 4091 
L 703 3866 
L 703 4441 
L 1819 4666 
L 2450 4666 
L 2450 531 
L 3481 531 
L 3481 0 
L 794 0 
L 794 531 
z
" transform="scale(0.015625)"/>
       </defs>
       <use xlink:href="#DejaVuSans-31"/>
       <use xlink:href="#DejaVuSans-30" x="63.623047"/>
       <use xlink:href="#DejaVuSans-30" x="127.246094"/>
      </g>
     </g>
    </g>
    <g id="xtick_3">
     <g id="line2d_5">
      <path d="M 193.695908 307.584 
L 193.695908 41.472 
" clip-path="url(#p2f6e320e49)" style="fill: none; stroke: #ffffff; stroke-width: 0.8; stroke-linecap: square"/>
     </g>
     <g id="line2d_6">
      <g>
       <use xlink:href="#mc8e2412e49" x="193.695908" y="307.584" style="fill: #555555; stroke: #555555; stroke-width: 0.8"/>
      </g>
     </g>
     <g id="text_3">
      <!-- 200 -->
      <g style="fill: #555555" transform="translate(184.152158 322.182437) scale(0.1 -0.1)">
       <defs>
        <path id="DejaVuSans-32" d="M 1228 531 
L 3431 531 
L 3431 0 
L 469 0 
L 469 531 
Q 828 903 1448 1529 
Q 2069 2156 2228 2338 
Q 2531 2678 2651 2914 
Q 2772 3150 2772 3378 
Q 2772 3750 2511 3984 
Q 2250 4219 1831 4219 
Q 1534 4219 1204 4116 
Q 875 4013 500 3803 
L 500 4441 
Q 881 4594 1212 4672 
Q 1544 4750 1819 4750 
Q 2544 4750 2975 4387 
Q 3406 4025 3406 3419 
Q 3406 3131 3298 2873 
Q 3191 2616 2906 2266 
Q 2828 2175 2409 1742 
Q 1991 1309 1228 531 
z
" transform="scale(0.015625)"/>
       </defs>
       <use xlink:href="#DejaVuSans-32"/>
       <use xlink:href="#DejaVuSans-30" x="63.623047"/>
       <use xlink:href="#DejaVuSans-30" x="127.246094"/>
      </g>
     </g>
    </g>
    <g id="xtick_4">
     <g id="line2d_7">
      <path d="M 253.928663 307.584 
L 253.928663 41.472 
" clip-path="url(#p2f6e320e49)" style="fill: none; stroke: #ffffff; stroke-width: 0.8; stroke-linecap: square"/>
     </g>
     <g id="line2d_8">
      <g>
       <use xlink:href="#mc8e2412e49" x="253.928663" y="307.584" style="fill: #555555; stroke: #555555; stroke-width: 0.8"/>
      </g>
     </g>
     <g id="text_4">
      <!-- 300 -->
      <g style="fill: #555555" transform="translate(244.384913 322.182437) scale(0.1 -0.1)">
       <defs>
        <path id="DejaVuSans-33" d="M 2597 2516 
Q 3050 2419 3304 2112 
Q 3559 1806 3559 1356 
Q 3559 666 3084 287 
Q 2609 -91 1734 -91 
Q 1441 -91 1130 -33 
Q 819 25 488 141 
L 488 750 
Q 750 597 1062 519 
Q 1375 441 1716 441 
Q 2309 441 2620 675 
Q 2931 909 2931 1356 
Q 2931 1769 2642 2001 
Q 2353 2234 1838 2234 
L 1294 2234 
L 1294 2753 
L 1863 2753 
Q 2328 2753 2575 2939 
Q 2822 3125 2822 3475 
Q 2822 3834 2567 4026 
Q 2313 4219 1838 4219 
Q 1578 4219 1281 4162 
Q 984 4106 628 3988 
L 628 4550 
Q 988 4650 1302 4700 
Q 1616 4750 1894 4750 
Q 2613 4750 3031 4423 
Q 3450 4097 3450 3541 
Q 3450 3153 3228 2886 
Q 3006 2619 2597 2516 
z
" transform="scale(0.015625)"/>
       </defs>
       <use xlink:href="#DejaVuSans-33"/>
       <use xlink:href="#DejaVuSans-30" x="63.623047"/>
       <use xlink:href="#DejaVuSans-30" x="127.246094"/>
      </g>
     </g>
    </g>
    <g id="xtick_5">
     <g id="line2d_9">
      <path d="M 314.161417 307.584 
L 314.161417 41.472 
" clip-path="url(#p2f6e320e49)" style="fill: none; stroke: #ffffff; stroke-width: 0.8; stroke-linecap: square"/>
     </g>
     <g id="line2d_10">
      <g>
       <use xlink:href="#mc8e2412e49" x="314.161417" y="307.584" style="fill: #555555; stroke: #555555; stroke-width: 0.8"/>
      </g>
     </g>
     <g id="text_5">
      <!-- 400 -->
      <g style="fill: #555555" transform="translate(304.617667 322.182437) scale(0.1 -0.1)">
       <defs>
        <path id="DejaVuSans-34" d="M 2419 4116 
L 825 1625 
L 2419 1625 
L 2419 4116 
z
M 2253 4666 
L 3047 4666 
L 3047 1625 
L 3713 1625 
L 3713 1100 
L 3047 1100 
L 3047 0 
L 2419 0 
L 2419 1100 
L 313 1100 
L 313 1709 
L 2253 4666 
z
" transform="scale(0.015625)"/>
       </defs>
       <use xlink:href="#DejaVuSans-34"/>
       <use xlink:href="#DejaVuSans-30" x="63.623047"/>
       <use xlink:href="#DejaVuSans-30" x="127.246094"/>
      </g>
     </g>
    </g>
    <g id="xtick_6">
     <g id="line2d_11">
      <path d="M 374.394171 307.584 
L 374.394171 41.472 
" clip-path="url(#p2f6e320e49)" style="fill: none; stroke: #ffffff; stroke-width: 0.8; stroke-linecap: square"/>
     </g>
     <g id="line2d_12">
      <g>
       <use xlink:href="#mc8e2412e49" x="374.394171" y="307.584" style="fill: #555555; stroke: #555555; stroke-width: 0.8"/>
      </g>
     </g>
     <g id="text_6">
      <!-- 500 -->
      <g style="fill: #555555" transform="translate(364.850421 322.182437) scale(0.1 -0.1)">
       <defs>
        <path id="DejaVuSans-35" d="M 691 4666 
L 3169 4666 
L 3169 4134 
L 1269 4134 
L 1269 2991 
Q 1406 3038 1543 3061 
Q 1681 3084 1819 3084 
Q 2600 3084 3056 2656 
Q 3513 2228 3513 1497 
Q 3513 744 3044 326 
Q 2575 -91 1722 -91 
Q 1428 -91 1123 -41 
Q 819 9 494 109 
L 494 744 
Q 775 591 1075 516 
Q 1375 441 1709 441 
Q 2250 441 2565 725 
Q 2881 1009 2881 1497 
Q 2881 1984 2565 2268 
Q 2250 2553 1709 2553 
Q 1456 2553 1204 2497 
Q 953 2441 691 2322 
L 691 4666 
z
" transform="scale(0.015625)"/>
       </defs>
       <use xlink:href="#DejaVuSans-35"/>
       <use xlink:href="#DejaVuSans-30" x="63.623047"/>
       <use xlink:href="#DejaVuSans-30" x="127.246094"/>
      </g>
     </g>
    </g>
    <g id="text_7">
     <!-- Epoch -->
     <g style="fill: #555555" transform="translate(217.786875 337.38025) scale(0.12 -0.12)">
      <defs>
       <path id="DejaVuSans-45" d="M 628 4666 
L 3578 4666 
L 3578 4134 
L 1259 4134 
L 1259 2753 
L 3481 2753 
L 3481 2222 
L 1259 2222 
L 1259 531 
L 3634 531 
L 3634 0 
L 628 0 
L 628 4666 
z
" transform="scale(0.015625)"/>
       <path id="DejaVuSans-70" d="M 1159 525 
L 1159 -1331 
L 581 -1331 
L 581 3500 
L 1159 3500 
L 1159 2969 
Q 1341 3281 1617 3432 
Q 1894 3584 2278 3584 
Q 2916 3584 3314 3078 
Q 3713 2572 3713 1747 
Q 3713 922 3314 415 
Q 2916 -91 2278 -91 
Q 1894 -91 1617 61 
Q 1341 213 1159 525 
z
M 3116 1747 
Q 3116 2381 2855 2742 
Q 2594 3103 2138 3103 
Q 1681 3103 1420 2742 
Q 1159 2381 1159 1747 
Q 1159 1113 1420 752 
Q 1681 391 2138 391 
Q 2594 391 2855 752 
Q 3116 1113 3116 1747 
z
" transform="scale(0.015625)"/>
       <path id="DejaVuSans-6f" d="M 1959 3097 
Q 1497 3097 1228 2736 
Q 959 2375 959 1747 
Q 959 1119 1226 758 
Q 1494 397 1959 397 
Q 2419 397 2687 759 
Q 2956 1122 2956 1747 
Q 2956 2369 2687 2733 
Q 2419 3097 1959 3097 
z
M 1959 3584 
Q 2709 3584 3137 3096 
Q 3566 2609 3566 1747 
Q 3566 888 3137 398 
Q 2709 -91 1959 -91 
Q 1206 -91 779 398 
Q 353 888 353 1747 
Q 353 2609 779 3096 
Q 1206 3584 1959 3584 
z
" transform="scale(0.015625)"/>
       <path id="DejaVuSans-63" d="M 3122 3366 
L 3122 2828 
Q 2878 2963 2633 3030 
Q 2388 3097 2138 3097 
Q 1578 3097 1268 2742 
Q 959 2388 959 1747 
Q 959 1106 1268 751 
Q 1578 397 2138 397 
Q 2388 397 2633 464 
Q 2878 531 3122 666 
L 3122 134 
Q 2881 22 2623 -34 
Q 2366 -91 2075 -91 
Q 1284 -91 818 406 
Q 353 903 353 1747 
Q 353 2603 823 3093 
Q 1294 3584 2113 3584 
Q 2378 3584 2631 3529 
Q 2884 3475 3122 3366 
z
" transform="scale(0.015625)"/>
       <path id="DejaVuSans-68" d="M 3513 2113 
L 3513 0 
L 2938 0 
L 2938 2094 
Q 2938 2591 2744 2837 
Q 2550 3084 2163 3084 
Q 1697 3084 1428 2787 
Q 1159 2491 1159 1978 
L 1159 0 
L 581 0 
L 581 4863 
L 1159 4863 
L 1159 2956 
Q 1366 3272 1645 3428 
Q 1925 3584 2291 3584 
Q 2894 3584 3203 3211 
Q 3513 2838 3513 2113 
z
" transform="scale(0.015625)"/>
      </defs>
      <use xlink:href="#DejaVuSans-45"/>
      <use xlink:href="#DejaVuSans-70" x="63.183594"/>
      <use xlink:href="#DejaVuSans-6f" x="126.660156"/>
      <use xlink:href="#DejaVuSans-63" x="187.841797"/>
      <use xlink:href="#DejaVuSans-68" x="242.822266"/>
     </g>
    </g>
   </g>
   <g id="matplotlib.axis_2">
    <g id="ytick_1">
     <g id="line2d_13">
      <path d="M 57.6 300.294212 
L 414.72 300.294212 
" clip-path="url(#p2f6e320e49)" style="fill: none; stroke: #ffffff; stroke-width: 0.8; stroke-linecap: square"/>
     </g>
     <g id="line2d_14">
      <defs>
       <path id="m2afcc0a5d3" d="M 0 0 
L -3.5 0 
" style="stroke: #555555; stroke-width: 0.8"/>
      </defs>
      <g>
       <use xlink:href="#m2afcc0a5d3" x="57.6" y="300.294212" style="fill: #555555; stroke: #555555; stroke-width: 0.8"/>
      </g>
     </g>
     <g id="text_8">
      <!-- 0 -->
      <g style="fill: #555555" transform="translate(44.2375 304.093431) scale(0.1 -0.1)">
       <use xlink:href="#DejaVuSans-30"/>
      </g>
     </g>
    </g>
    <g id="ytick_2">
     <g id="line2d_15">
      <path d="M 57.6 244.171679 
L 414.72 244.171679 
" clip-path="url(#p2f6e320e49)" style="fill: none; stroke: #ffffff; stroke-width: 0.8; stroke-linecap: square"/>
     </g>
     <g id="line2d_16">
      <g>
       <use xlink:href="#m2afcc0a5d3" x="57.6" y="244.171679" style="fill: #555555; stroke: #555555; stroke-width: 0.8"/>
      </g>
     </g>
     <g id="text_9">
      <!-- 1 -->
      <g style="fill: #555555" transform="translate(44.2375 247.970898) scale(0.1 -0.1)">
       <use xlink:href="#DejaVuSans-31"/>
      </g>
     </g>
    </g>
    <g id="ytick_3">
     <g id="line2d_17">
      <path d="M 57.6 188.049146 
L 414.72 188.049146 
" clip-path="url(#p2f6e320e49)" style="fill: none; stroke: #ffffff; stroke-width: 0.8; stroke-linecap: square"/>
     </g>
     <g id="line2d_18">
      <g>
       <use xlink:href="#m2afcc0a5d3" x="57.6" y="188.049146" style="fill: #555555; stroke: #555555; stroke-width: 0.8"/>
      </g>
     </g>
     <g id="text_10">
      <!-- 2 -->
      <g style="fill: #555555" transform="translate(44.2375 191.848364) scale(0.1 -0.1)">
       <use xlink:href="#DejaVuSans-32"/>
      </g>
     </g>
    </g>
    <g id="ytick_4">
     <g id="line2d_19">
      <path d="M 57.6 131.926612 
L 414.72 131.926612 
" clip-path="url(#p2f6e320e49)" style="fill: none; stroke: #ffffff; stroke-width: 0.8; stroke-linecap: square"/>
     </g>
     <g id="line2d_20">
      <g>
       <use xlink:href="#m2afcc0a5d3" x="57.6" y="131.926612" style="fill: #555555; stroke: #555555; stroke-width: 0.8"/>
      </g>
     </g>
     <g id="text_11">
      <!-- 3 -->
      <g style="fill: #555555" transform="translate(44.2375 135.725831) scale(0.1 -0.1)">
       <use xlink:href="#DejaVuSans-33"/>
      </g>
     </g>
    </g>
    <g id="ytick_5">
     <g id="line2d_21">
      <path d="M 57.6 75.804079 
L 414.72 75.804079 
" clip-path="url(#p2f6e320e49)" style="fill: none; stroke: #ffffff; stroke-width: 0.8; stroke-linecap: square"/>
     </g>
     <g id="line2d_22">
      <g>
       <use xlink:href="#m2afcc0a5d3" x="57.6" y="75.804079" style="fill: #555555; stroke: #555555; stroke-width: 0.8"/>
      </g>
     </g>
     <g id="text_12">
      <!-- 4 -->
      <g style="fill: #555555" transform="translate(44.2375 79.603298) scale(0.1 -0.1)">
       <use xlink:href="#DejaVuSans-34"/>
      </g>
     </g>
    </g>
    <g id="text_13">
     <!-- Loss -->
     <g style="fill: #555555" transform="translate(37.741875 187.688625) rotate(-90) scale(0.12 -0.12)">
      <defs>
       <path id="DejaVuSans-4c" d="M 628 4666 
L 1259 4666 
L 1259 531 
L 3531 531 
L 3531 0 
L 628 0 
L 628 4666 
z
" transform="scale(0.015625)"/>
       <path id="DejaVuSans-73" d="M 2834 3397 
L 2834 2853 
Q 2591 2978 2328 3040 
Q 2066 3103 1784 3103 
Q 1356 3103 1142 2972 
Q 928 2841 928 2578 
Q 928 2378 1081 2264 
Q 1234 2150 1697 2047 
L 1894 2003 
Q 2506 1872 2764 1633 
Q 3022 1394 3022 966 
Q 3022 478 2636 193 
Q 2250 -91 1575 -91 
Q 1294 -91 989 -36 
Q 684 19 347 128 
L 347 722 
Q 666 556 975 473 
Q 1284 391 1588 391 
Q 1994 391 2212 530 
Q 2431 669 2431 922 
Q 2431 1156 2273 1281 
Q 2116 1406 1581 1522 
L 1381 1569 
Q 847 1681 609 1914 
Q 372 2147 372 2553 
Q 372 3047 722 3315 
Q 1072 3584 1716 3584 
Q 2034 3584 2315 3537 
Q 2597 3491 2834 3397 
z
" transform="scale(0.015625)"/>
      </defs>
      <use xlink:href="#DejaVuSans-4c"/>
      <use xlink:href="#DejaVuSans-6f" x="53.962891"/>
      <use xlink:href="#DejaVuSans-73" x="115.144531"/>
      <use xlink:href="#DejaVuSans-73" x="167.244141"/>
     </g>
    </g>
   </g>
   <g id="line2d_23">
    <path d="M 73.832727 261.678743 
L 75.037382 261.62885 
L 76.242037 261.442618 
L 76.844365 261.289597 
L 78.04902 261.170566 
L 81.060658 260.88125 
L 81.662985 261.028076 
L 84.072295 260.915073 
L 86.481606 261.067288 
L 87.686261 260.91325 
L 88.890916 261.070934 
L 90.095571 260.803404 
L 90.697898 260.931658 
L 91.300226 260.872308 
L 91.902554 260.695018 
L 92.504881 260.774378 
L 93.709536 260.564249 
L 94.311864 260.421383 
L 94.914191 260.460298 
L 96.721174 259.699848 
L 97.323501 259.728951 
L 97.925829 259.595051 
L 98.528157 259.202178 
L 100.937467 258.388949 
L 102.744449 257.773067 
L 103.346777 257.514557 
L 106.960742 256.676392 
L 107.56307 256.449975 
L 108.767725 256.268222 
L 109.370052 256.13369 
L 109.97238 256.212806 
L 110.574707 256.018884 
L 112.38169 255.964729 
L 112.984018 256.149897 
L 113.586345 255.87845 
L 114.791 256.092501 
L 118.404965 256.286323 
L 119.609621 256.585243 
L 120.211948 256.564962 
L 120.814276 256.736709 
L 122.018931 256.585528 
L 123.223586 256.883481 
L 123.825913 256.79248 
L 125.030568 256.989286 
L 126.235223 256.616892 
L 126.837551 256.848665 
L 127.439879 256.654177 
L 128.042206 256.663851 
L 128.644534 256.851191 
L 129.246861 256.415058 
L 129.849189 256.613721 
L 130.451516 256.573937 
L 131.053844 256.346783 
L 132.258499 256.432239 
L 132.860826 256.028364 
L 133.463154 256.156444 
L 134.667809 256.071734 
L 135.270137 256.188788 
L 137.077119 255.971964 
L 138.281774 255.93015 
L 138.884102 256.112796 
L 139.486429 256.019359 
L 140.088757 255.810751 
L 140.691084 256.00475 
L 141.293412 255.754305 
L 141.89574 255.669682 
L 142.498067 256.034081 
L 143.100395 255.602217 
L 143.702722 255.788546 
L 146.112032 255.544757 
L 146.71436 255.535026 
L 149.12367 254.260187 
L 149.725998 254.469066 
L 150.930653 253.648307 
L 151.53298 253.612905 
L 153.339963 252.52384 
L 153.94229 252.655864 
L 155.146946 251.899365 
L 155.749273 252.200236 
L 156.953928 251.384293 
L 157.556256 251.385969 
L 158.158583 251.163155 
L 158.760911 251.105745 
L 159.965566 250.762036 
L 160.567893 250.748873 
L 161.170221 251.014332 
L 161.772548 250.33147 
L 162.374876 251.368116 
L 162.977204 250.654128 
L 163.579531 251.096315 
L 164.784186 251.062756 
L 165.988841 249.573851 
L 166.591169 248.233664 
L 167.193496 248.291736 
L 167.795824 247.427182 
L 169.000479 244.505821 
L 169.602807 243.840086 
L 170.807462 242.028118 
L 171.409789 242.481388 
L 172.012117 242.690935 
L 172.614444 242.624159 
L 173.216772 242.992402 
L 173.819099 243.191372 
L 175.023754 244.767115 
L 175.626082 244.585455 
L 176.22841 245.090364 
L 176.830737 245.366585 
L 178.035392 243.454268 
L 178.63772 242.938939 
L 179.240047 242.952393 
L 179.842375 242.071632 
L 180.444702 241.633596 
L 181.04703 241.893542 
L 181.649357 240.728321 
L 182.251685 240.837387 
L 182.854012 241.074706 
L 184.058668 234.47154 
L 184.660995 233.83337 
L 185.263323 232.926904 
L 185.86565 231.792399 
L 187.070305 233.021726 
L 187.672633 229.328639 
L 188.27496 229.843962 
L 188.877288 226.682033 
L 189.479615 226.086179 
L 190.081943 224.845792 
L 191.888926 217.41714 
L 192.491253 213.668021 
L 193.093581 214.935758 
L 193.695908 213.98921 
L 194.298236 210.620223 
L 194.900563 211.930389 
L 195.502891 209.05114 
L 196.105218 209.189536 
L 196.707546 208.139924 
L 197.309874 206.337851 
L 197.912201 205.407768 
L 198.514529 200.896247 
L 199.116856 200.174708 
L 199.719184 198.109531 
L 200.321511 196.53614 
L 200.923839 193.71883 
L 201.526166 195.049529 
L 202.128494 188.353562 
L 202.730821 189.261165 
L 203.333149 189.123251 
L 203.935476 182.844312 
L 204.537804 183.665081 
L 205.140132 186.779268 
L 205.742459 179.091386 
L 206.344787 182.323202 
L 206.947114 176.71351 
L 208.151769 176.820381 
L 209.356424 174.874433 
L 209.958752 172.600792 
L 210.561079 167.387555 
L 211.163407 172.772064 
L 211.765735 172.464644 
L 212.368062 163.502147 
L 212.97039 166.483411 
L 213.572717 166.182172 
L 214.175045 159.190298 
L 214.777372 161.629203 
L 215.3797 157.403446 
L 215.982027 162.029218 
L 216.584355 157.139151 
L 217.186682 154.503376 
L 217.78901 157.279594 
L 218.391337 156.860459 
L 218.993665 150.796239 
L 219.595993 152.406654 
L 220.800648 153.935193 
L 221.402975 151.873837 
L 222.005303 146.274099 
L 222.60763 149.952241 
L 223.209958 145.042102 
L 223.812285 147.985485 
L 224.414613 140.091247 
L 225.01694 149.614593 
L 225.619268 141.466216 
L 226.221596 142.838857 
L 226.823923 145.165847 
L 227.426251 144.797745 
L 228.028578 142.039898 
L 228.630906 142.542516 
L 229.233233 139.373883 
L 229.835561 132.772484 
L 230.437888 140.158645 
L 231.040216 136.689349 
L 231.642543 135.683458 
L 232.244871 133.812963 
L 232.847199 127.849942 
L 233.449526 135.118407 
L 234.051854 136.641701 
L 234.654181 139.017918 
L 235.256509 137.308793 
L 235.858836 134.10695 
L 236.461164 126.538838 
L 237.063491 133.238104 
L 237.665819 127.142145 
L 238.268146 132.296962 
L 238.870474 129.230303 
L 239.472801 122.511796 
L 240.075129 127.586931 
L 240.677457 129.027774 
L 241.279784 128.956629 
L 241.882112 132.63489 
L 242.484439 124.522494 
L 243.086767 123.108774 
L 243.689094 124.728877 
L 244.291422 122.627271 
L 244.893749 124.325531 
L 245.496077 121.219038 
L 246.098404 122.381683 
L 246.700732 122.955405 
L 247.30306 119.371852 
L 247.905387 124.896015 
L 248.507715 120.583189 
L 249.110042 121.923088 
L 249.71237 116.896083 
L 250.314697 117.998943 
L 250.917025 120.226635 
L 251.519352 115.284182 
L 252.12168 121.761128 
L 252.724007 120.50154 
L 253.326335 115.574449 
L 253.928663 112.895093 
L 254.53099 115.001034 
L 255.133318 113.483547 
L 255.735645 115.335698 
L 256.337973 122.136469 
L 256.9403 111.042675 
L 257.542628 111.689135 
L 258.144955 110.588616 
L 258.747283 108.465695 
L 259.34961 113.422077 
L 259.951938 114.574954 
L 260.554265 116.002817 
L 261.156593 115.579935 
L 261.758921 110.51153 
L 262.361248 112.394897 
L 262.963576 112.766264 
L 263.565903 108.120889 
L 264.168231 111.961592 
L 264.770558 112.872185 
L 265.372886 104.816897 
L 265.975213 110.604245 
L 266.577541 106.473128 
L 267.179868 112.709062 
L 267.782196 110.153143 
L 268.384524 106.632278 
L 268.986851 105.79121 
L 269.589179 98.471283 
L 270.191506 108.088802 
L 270.793834 103.091743 
L 271.396161 105.746023 
L 271.998489 113.78868 
L 272.600816 105.957545 
L 273.203144 102.040867 
L 273.805471 99.679422 
L 274.407799 109.069845 
L 275.010126 103.374864 
L 275.612454 99.339794 
L 276.214782 104.084561 
L 276.817109 105.797124 
L 277.419437 101.138756 
L 278.021764 94.318463 
L 278.624092 102.388951 
L 279.226419 103.427905 
L 279.828747 98.687808 
L 280.431074 102.992472 
L 281.033402 90.155527 
L 281.635729 96.086248 
L 282.238057 100.31788 
L 282.840385 99.786507 
L 283.442712 91.100576 
L 284.04504 106.061285 
L 284.647367 93.89083 
L 285.249695 100.152 
L 285.852022 100.871692 
L 286.45435 92.929203 
L 287.056677 97.052933 
L 287.659005 94.319573 
L 288.261332 100.562371 
L 288.86366 87.233848 
L 289.465988 102.998306 
L 290.068315 99.205011 
L 290.670643 89.932873 
L 291.27297 86.049459 
L 291.875298 93.355577 
L 292.477625 96.392625 
L 293.079953 87.350473 
L 293.68228 90.372976 
L 294.284608 95.630182 
L 294.886935 86.890995 
L 295.489263 93.502965 
L 296.09159 91.864758 
L 296.693918 96.187298 
L 297.898573 83.443617 
L 298.500901 85.660845 
L 299.103228 78.365564 
L 299.705556 86.208568 
L 300.307883 89.77644 
L 300.910211 96.70343 
L 301.512538 95.390213 
L 302.114866 96.029835 
L 302.717193 93.77292 
L 303.319521 82.99681 
L 303.921849 98.436172 
L 304.524176 83.022206 
L 305.126504 87.052352 
L 305.728831 89.799535 
L 306.331159 88.622465 
L 306.933486 78.175773 
L 308.138141 88.166412 
L 308.740469 84.778952 
L 309.342796 87.165513 
L 309.945124 83.154862 
L 310.547452 85.687231 
L 311.149779 84.358867 
L 312.354434 91.233579 
L 312.956762 83.424857 
L 313.559089 88.378482 
L 314.161417 84.170467 
L 314.763744 85.831689 
L 315.366072 82.658774 
L 315.968399 84.81029 
L 316.570727 83.067419 
L 317.173054 76.416271 
L 317.775382 90.54556 
L 318.37771 86.655469 
L 319.582365 80.853644 
L 320.184692 85.088888 
L 320.78702 82.079847 
L 321.389347 88.121761 
L 322.594002 84.193535 
L 323.19633 76.855839 
L 323.798657 81.020541 
L 324.400985 87.041273 
L 325.003313 78.765311 
L 325.60564 76.55381 
L 326.207968 87.647631 
L 326.810295 78.752653 
L 328.01495 89.906392 
L 328.617278 79.615946 
L 329.219605 75.732867 
L 329.821933 70.94171 
L 330.42426 85.581551 
L 331.026588 82.895023 
L 331.628916 74.050303 
L 332.231243 77.269863 
L 332.833571 83.654629 
L 333.435898 76.199852 
L 334.038226 75.446307 
L 334.640553 73.376346 
L 335.242881 84.270474 
L 335.845208 89.265499 
L 336.447536 80.61694 
L 337.049863 77.61404 
L 337.652191 80.906537 
L 338.254518 77.50195 
L 338.856846 77.778916 
L 340.061501 74.218257 
L 340.663829 80.405164 
L 341.266156 82.759464 
L 341.868484 76.319355 
L 342.470811 74.801681 
L 343.073139 80.88082 
L 343.675466 83.230463 
L 344.277794 69.440293 
L 344.880121 74.12098 
L 345.482449 68.644278 
L 346.084777 71.867945 
L 346.687104 66.683959 
L 347.289432 71.05962 
L 347.891759 77.231246 
L 348.494087 70.318519 
L 349.096414 74.423356 
L 349.698742 72.522955 
L 350.903397 78.839601 
L 351.505724 86.544958 
L 352.710379 64.451717 
L 353.312707 80.885837 
L 353.915035 77.200926 
L 354.517362 65.316215 
L 355.11969 64.313522 
L 355.722017 78.004206 
L 356.324345 74.575574 
L 356.926672 76.11827 
L 357.529 73.614335 
L 358.131327 70.431478 
L 358.733655 78.47463 
L 359.335982 71.397508 
L 359.93831 72.267813 
L 360.540638 68.09436 
L 361.142965 75.69045 
L 361.745293 60.36754 
L 362.34762 63.753782 
L 362.949948 68.1341 
L 363.552275 81.531053 
L 364.154603 69.143965 
L 364.75693 74.135351 
L 365.359258 66.010992 
L 365.961585 72.047915 
L 366.563913 80.357007 
L 367.166241 62.197131 
L 367.768568 71.577986 
L 368.370896 68.787504 
L 368.973223 80.861672 
L 369.575551 58.787231 
L 370.177878 57.068192 
L 370.780206 70.924395 
L 371.382533 69.531228 
L 371.984861 75.965169 
L 372.587188 70.359464 
L 373.189516 61.953389 
L 373.791843 64.270517 
L 374.394171 78.588232 
L 374.996499 76.627779 
L 375.598826 70.692803 
L 376.201154 75.671878 
L 376.803481 61.967974 
L 377.405809 57.390907 
L 378.008136 60.543255 
L 378.610464 67.088161 
L 379.815119 75.397227 
L 380.417446 72.42905 
L 381.019774 64.062688 
L 381.622102 75.042961 
L 382.224429 78.939073 
L 382.826757 57.80651 
L 383.429084 72.696984 
L 384.031412 62.875664 
L 384.633739 68.88141 
L 385.236067 66.070241 
L 387.043049 59.929832 
L 387.645377 57.215995 
L 388.247705 62.530229 
L 388.850032 73.229748 
L 389.45236 65.437015 
L 390.054687 53.568 
L 390.657015 59.865712 
L 391.259342 70.358714 
L 391.86167 72.912145 
L 392.463997 55.415735 
L 393.066325 71.097059 
L 393.668652 67.24426 
L 394.27098 56.817064 
L 394.873307 55.826333 
L 395.475635 56.232811 
L 396.077963 57.456418 
L 396.68029 70.048096 
L 397.282618 59.930582 
L 397.884945 67.709773 
L 398.487273 65.064685 
L 398.487273 65.064685 
" clip-path="url(#p2f6e320e49)" style="fill: none; stroke: #6495ed; stroke-width: 2; stroke-linecap: square"/>
   </g>
   <g id="line2d_24">
    <path d="M 73.832727 261.27419 
L 75.63971 261.305395 
L 78.651348 261.660461 
L 82.86764 261.954525 
L 84.674623 261.929473 
L 85.879278 262.036222 
L 87.083933 262.071018 
L 87.686261 262.139512 
L 88.288588 261.991529 
L 89.493243 262.173749 
L 90.095571 262.217543 
L 90.697898 262.131234 
L 92.504881 262.239955 
L 93.709536 262.222079 
L 94.914191 262.199472 
L 95.516519 262.128541 
L 96.118846 262.370659 
L 97.323501 262.317643 
L 97.925829 262.277723 
L 98.528157 262.439333 
L 99.130484 262.350553 
L 99.732812 262.548013 
L 100.937467 262.564063 
L 102.744449 262.598684 
L 103.346777 262.830186 
L 104.551432 262.835692 
L 108.767725 263.292341 
L 109.370052 263.419347 
L 109.97238 263.34237 
L 110.574707 263.544445 
L 112.984018 263.674689 
L 114.188673 263.839562 
L 115.995655 263.896619 
L 116.597983 264.060024 
L 117.20031 264.001988 
L 119.007293 264.116192 
L 120.814276 264.154161 
L 122.621258 264.247857 
L 123.223586 264.209238 
L 123.825913 264.303828 
L 125.030568 264.232127 
L 126.235223 264.475813 
L 126.837551 264.395476 
L 128.042206 264.536601 
L 128.644534 264.455049 
L 129.246861 264.693619 
L 130.451516 264.66364 
L 131.656171 264.820537 
L 132.258499 264.787309 
L 132.860826 265.032012 
L 134.065482 265.073806 
L 138.281774 265.591935 
L 138.884102 265.551873 
L 141.89574 265.977469 
L 142.498067 265.815822 
L 143.100395 266.107575 
L 144.907377 266.127924 
L 145.509705 266.280637 
L 146.112032 266.214552 
L 149.12367 266.920465 
L 149.725998 266.827672 
L 150.930653 267.269841 
L 152.135308 267.443625 
L 152.737635 267.696401 
L 154.544618 267.937548 
L 155.146946 268.106697 
L 155.749273 267.933763 
L 156.953928 268.235888 
L 160.567893 268.179487 
L 161.170221 267.93998 
L 161.772548 268.166961 
L 162.374876 267.693329 
L 162.977204 267.866782 
L 163.579531 267.627608 
L 164.181859 267.587652 
L 164.784186 267.431954 
L 165.386514 267.718989 
L 165.988841 267.868712 
L 166.591169 268.316312 
L 167.193496 268.332485 
L 167.795824 268.534138 
L 169.000479 269.479405 
L 169.602807 269.659815 
L 170.205134 269.95955 
L 170.807462 270.43594 
L 171.409789 270.230009 
L 172.012117 270.487466 
L 172.614444 270.615991 
L 173.216772 270.425915 
L 174.421427 270.525401 
L 175.023754 270.043839 
L 175.626082 270.522474 
L 176.22841 270.219439 
L 176.830737 270.079464 
L 177.433065 270.248599 
L 178.035392 270.732711 
L 178.63772 270.517138 
L 179.240047 270.99629 
L 180.444702 271.427335 
L 181.04703 271.245991 
L 181.649357 272.074459 
L 182.251685 271.750761 
L 183.45634 273.163278 
L 184.058668 274.196152 
L 184.660995 274.349003 
L 185.263323 275.214997 
L 185.86565 275.660207 
L 186.467978 276.498736 
L 187.070305 276.847271 
L 187.672633 278.273842 
L 188.27496 278.2545 
L 188.877288 279.18191 
L 189.479615 279.20627 
L 190.684271 280.11568 
L 191.888926 280.959647 
L 192.491253 281.699138 
L 193.093581 281.498846 
L 193.695908 282.08749 
L 194.298236 283.157698 
L 194.900563 283.088252 
L 195.502891 283.918148 
L 196.105218 283.866624 
L 196.707546 284.093379 
L 197.309874 284.444712 
L 197.912201 284.978341 
L 198.514529 285.67036 
L 199.116856 285.521291 
L 200.321511 285.747477 
L 200.923839 286.221075 
L 201.526166 286.218808 
L 202.128494 287.048797 
L 203.333149 286.825202 
L 203.935476 287.879134 
L 205.140132 287.658687 
L 205.742459 288.755412 
L 206.344787 288.056145 
L 206.947114 288.67721 
L 207.549442 288.793919 
L 208.151769 288.646426 
L 208.754097 289.1528 
L 209.356424 289.037662 
L 209.958752 289.340916 
L 210.561079 289.852323 
L 211.765735 288.924452 
L 212.368062 290.298574 
L 213.572717 289.495397 
L 214.175045 290.249575 
L 214.777372 289.584467 
L 215.3797 290.50209 
L 215.982027 290.428577 
L 216.584355 290.844769 
L 217.186682 290.69916 
L 217.78901 290.895479 
L 218.391337 290.058152 
L 218.993665 291.532392 
L 219.595993 291.083558 
L 220.19832 291.515913 
L 220.800648 290.939366 
L 221.402975 291.029678 
L 222.005303 290.998408 
L 222.60763 291.112563 
L 223.209958 291.598424 
L 223.812285 291.15615 
L 224.414613 291.672863 
L 225.01694 290.923396 
L 225.619268 291.346376 
L 226.221596 291.475878 
L 226.823923 291.347386 
L 227.426251 291.72094 
L 228.028578 291.908049 
L 228.630906 291.568669 
L 229.233233 291.501438 
L 229.835561 291.865909 
L 230.437888 291.028348 
L 231.040216 291.664377 
L 231.642543 292.580439 
L 232.244871 291.925704 
L 232.847199 292.486276 
L 233.449526 292.09745 
L 235.858836 291.91108 
L 236.461164 292.488602 
L 237.063491 292.10209 
L 237.665819 292.585285 
L 238.268146 292.217928 
L 238.870474 292.45815 
L 239.472801 292.378456 
L 240.075129 292.487588 
L 240.677457 292.303892 
L 241.279784 292.247854 
L 241.882112 292.417769 
L 242.484439 292.308105 
L 243.086767 292.83904 
L 243.689094 292.235775 
L 244.291422 292.706114 
L 244.893749 292.540332 
L 245.496077 293.225746 
L 246.700732 292.573405 
L 247.30306 292.524462 
L 249.110042 293.424129 
L 249.71237 292.701569 
L 250.314697 293.076086 
L 250.917025 292.99369 
L 251.519352 293.229079 
L 252.12168 292.655968 
L 252.724007 292.815309 
L 253.326335 293.18131 
L 253.928663 293.290476 
L 254.53099 293.099498 
L 255.133318 293.437225 
L 255.735645 292.885974 
L 256.9403 292.96099 
L 257.542628 293.242858 
L 258.144955 292.904213 
L 258.747283 293.468217 
L 259.34961 293.316911 
L 260.554265 292.676618 
L 261.156593 292.883934 
L 261.758921 293.31146 
L 262.361248 292.819176 
L 262.963576 293.328036 
L 263.565903 293.630316 
L 264.168231 293.170651 
L 264.770558 293.511074 
L 265.372886 293.444001 
L 265.975213 293.204749 
L 266.577541 293.338016 
L 267.179868 293.76652 
L 267.782196 293.099811 
L 268.384524 293.622016 
L 268.986851 293.165287 
L 269.589179 293.75389 
L 270.191506 293.188205 
L 270.793834 293.872634 
L 271.396161 293.860573 
L 271.998489 293.176676 
L 272.600816 293.492595 
L 273.203144 293.474003 
L 273.805471 293.84763 
L 274.407799 293.81609 
L 275.010126 293.435423 
L 275.612454 294.076283 
L 276.214782 293.025312 
L 276.817109 293.640576 
L 277.419437 293.546482 
L 278.021764 293.869413 
L 279.828747 293.48137 
L 280.431074 293.184289 
L 281.033402 293.447373 
L 281.635729 294.012413 
L 282.238057 294.288296 
L 282.840385 293.979369 
L 283.442712 293.849744 
L 284.04504 293.175696 
L 284.647367 294.340129 
L 285.249695 294.234286 
L 285.852022 294.008805 
L 286.45435 294.20394 
L 287.056677 293.651 
L 287.659005 294.170144 
L 288.261332 293.487405 
L 288.86366 294.41149 
L 289.465988 293.737249 
L 290.670643 293.622646 
L 291.27297 294.110283 
L 291.875298 294.277571 
L 292.477625 294.012525 
L 293.079953 294.38226 
L 293.68228 294.250604 
L 294.284608 293.653005 
L 294.886935 294.068377 
L 295.489263 294.108017 
L 296.09159 293.786973 
L 296.693918 293.599632 
L 297.296246 294.076962 
L 297.898573 293.984313 
L 298.500901 293.721537 
L 299.103228 294.041424 
L 299.705556 294.036077 
L 300.307883 294.291368 
L 300.910211 293.830223 
L 301.512538 294.137256 
L 302.717193 293.897567 
L 303.319521 294.44574 
L 303.921849 293.520914 
L 304.524176 294.731774 
L 305.126504 293.4161 
L 305.728831 293.92811 
L 306.331159 293.813413 
L 306.933486 294.373024 
L 307.535814 293.930549 
L 308.138141 293.799345 
L 308.740469 293.835518 
L 309.342796 293.616113 
L 309.945124 294.27085 
L 311.149779 294.51035 
L 311.752107 294.35189 
L 312.354434 293.700379 
L 312.956762 294.109163 
L 313.559089 293.842255 
L 314.763744 294.640707 
L 315.366072 294.503629 
L 315.968399 294.032847 
L 316.570727 294.180171 
L 317.173054 294.470209 
L 317.775382 294.217596 
L 318.37771 294.155354 
L 318.980037 293.858633 
L 319.582365 294.199023 
L 320.78702 294.380179 
L 321.389347 294.207192 
L 321.991675 294.191366 
L 322.594002 293.95221 
L 323.19633 294.344476 
L 323.798657 294.303813 
L 324.400985 294.023355 
L 325.003313 294.98013 
L 326.207968 294.018857 
L 326.810295 294.437695 
L 327.412623 293.931695 
L 328.01495 294.384389 
L 329.219605 294.788369 
L 329.821933 294.255107 
L 330.42426 294.045523 
L 331.026588 294.143664 
L 331.628916 294.624991 
L 332.231243 294.543793 
L 333.435898 294.854353 
L 334.038226 294.464838 
L 334.640553 294.385739 
L 335.242881 293.769939 
L 335.845208 293.875107 
L 337.049863 294.473765 
L 337.652191 293.646028 
L 338.254518 294.575355 
L 338.856846 294.298639 
L 340.061501 294.818498 
L 340.663829 294.622342 
L 341.266156 293.72985 
L 341.868484 294.430482 
L 342.470811 294.717279 
L 343.073139 294.426253 
L 343.675466 294.471971 
L 344.277794 294.664631 
L 344.880121 294.331959 
L 345.482449 294.738305 
L 346.084777 294.334842 
L 346.687104 294.91152 
L 347.289432 294.427346 
L 347.891759 294.507877 
L 348.494087 294.368489 
L 349.096414 294.42446 
L 349.698742 294.759881 
L 350.301069 294.705223 
L 350.903397 295.075497 
L 351.505724 294.367556 
L 352.108052 294.04042 
L 352.710379 294.863009 
L 353.312707 294.060079 
L 353.915035 294.343238 
L 354.517362 295.092637 
L 355.11969 294.462621 
L 355.722017 293.995884 
L 356.324345 294.430953 
L 356.926672 294.33077 
L 357.529 294.432401 
L 358.131327 294.873083 
L 358.733655 294.744775 
L 359.335982 294.485289 
L 360.540638 294.786761 
L 361.142965 294.094985 
L 361.745293 294.791582 
L 362.34762 295.133306 
L 362.949948 294.428341 
L 363.552275 294.441422 
L 364.154603 295.067699 
L 364.75693 295.276165 
L 365.359258 294.77968 
L 365.961585 294.700794 
L 366.563913 294.089264 
L 367.166241 294.543108 
L 367.768568 294.581496 
L 368.370896 294.874999 
L 368.973223 294.573094 
L 369.575551 295.315747 
L 370.177878 294.575897 
L 371.382533 294.944957 
L 373.791843 294.924152 
L 374.394171 294.56359 
L 377.405809 294.50322 
L 378.008136 295.309164 
L 378.610464 294.670634 
L 379.212791 294.995374 
L 379.815119 294.456255 
L 380.417446 294.903816 
L 381.019774 294.666146 
L 382.224429 294.583254 
L 382.826757 295.300093 
L 383.429084 294.823949 
L 384.633739 294.947139 
L 385.236067 294.643008 
L 385.838394 294.900352 
L 386.440722 294.967068 
L 387.043049 294.829276 
L 387.645377 295.124874 
L 388.247705 294.646391 
L 388.850032 294.591484 
L 389.45236 294.803374 
L 390.054687 295.3574 
L 390.657015 295.158926 
L 391.259342 295.100015 
L 391.86167 294.358358 
L 392.463997 295.266516 
L 393.066325 294.720608 
L 393.668652 294.865983 
L 394.27098 295.287496 
L 394.873307 294.836307 
L 395.475635 294.88181 
L 396.077963 295.143339 
L 396.68029 295.010323 
L 397.282618 295.488 
L 397.884945 295.059379 
L 398.487273 294.868195 
L 398.487273 294.868195 
" clip-path="url(#p2f6e320e49)" style="fill: none; stroke: #dc143c; stroke-width: 2; stroke-linecap: square"/>
   </g>
   <g id="line2d_25">
    <path d="M 73.832727 274.764587 
L 76.844365 274.764587 
L 77.446693 262.629915 
L 80.45833 262.629915 
L 81.060658 256.096164 
L 84.072295 256.096164 
L 84.674623 254.47217 
L 87.686261 254.47217 
L 88.288588 253.954258 
L 94.914191 253.878711 
L 95.516519 254.148328 
L 98.528157 254.148328 
L 99.130484 254.955834 
L 102.142122 254.955834 
L 102.744449 257.078686 
L 105.756087 257.078686 
L 106.358415 261.282756 
L 109.370052 261.282756 
L 109.97238 266.813671 
L 112.984018 266.813671 
L 113.586345 271.403699 
L 116.597983 271.403699 
L 117.20031 274.940694 
L 120.211948 274.940694 
L 120.814276 277.196508 
L 123.825913 277.196508 
L 124.428241 277.563495 
L 127.439879 277.563495 
L 128.042206 275.657965 
L 131.053844 275.657965 
L 131.656171 272.030481 
L 134.667809 272.030481 
L 135.270137 268.254508 
L 138.281774 268.254508 
L 138.884102 265.606776 
L 141.89574 265.606776 
L 142.498067 264.424812 
L 145.509705 264.424812 
L 146.112032 264.722297 
L 149.12367 264.722297 
L 149.725998 266.102444 
L 152.737635 266.102444 
L 153.339963 268.900177 
L 156.351601 268.900177 
L 156.953928 271.550846 
L 159.965566 271.550846 
L 160.567893 273.460154 
L 167.193496 273.490204 
L 167.795824 268.952052 
L 170.807462 268.952052 
L 171.409789 266.496125 
L 174.421427 266.496125 
L 175.023754 263.89498 
L 178.035392 263.89498 
L 178.63772 262.953337 
L 181.649357 262.953337 
L 182.251685 264.48122 
L 185.263323 264.48122 
L 185.86565 267.876272 
L 188.877288 267.876272 
L 189.479615 269.380316 
L 192.491253 269.380316 
L 193.093581 270.496555 
L 196.105218 270.496555 
L 196.707546 271.315309 
L 199.719184 271.315309 
L 200.321511 272.421979 
L 203.333149 272.421979 
L 203.935476 272.583145 
L 206.947114 272.583145 
L 207.549442 272.85721 
L 214.175045 272.860987 
L 214.777372 273.18315 
L 221.402975 273.146049 
L 222.005303 273.65372 
L 225.01694 273.65372 
L 225.619268 273.341798 
L 235.858836 273.259033 
L 236.461164 272.911519 
L 239.472801 272.911519 
L 240.075129 272.691344 
L 246.700732 272.725843 
L 247.30306 272.314536 
L 253.928663 272.233617 
L 254.53099 271.774715 
L 261.156593 271.740971 
L 261.758921 271.390688 
L 268.384524 271.399753 
L 268.986851 271.158677 
L 275.612454 271.124849 
L 276.214782 271.277284 
L 279.226419 271.277284 
L 279.828747 270.694151 
L 286.45435 270.801342 
L 287.056677 270.470701 
L 290.068315 270.470701 
L 290.670643 270.3322 
L 293.68228 270.3322 
L 294.284608 270.637743 
L 297.296246 270.637743 
L 297.898573 270.381808 
L 300.910211 270.381808 
L 301.512538 270.116641 
L 304.524176 270.116641 
L 305.126504 270.450052 
L 308.138141 270.450052 
L 308.740469 270.121845 
L 311.752107 270.121845 
L 312.354434 270.411104 
L 315.366072 270.411104 
L 315.968399 270.274449 
L 326.207968 270.288551 
L 326.810295 270.443672 
L 337.049863 270.344623 
L 337.652191 270.068963 
L 340.663829 270.068963 
L 341.266156 270.372491 
L 347.891759 270.318769 
L 348.494087 269.945402 
L 351.505724 269.945402 
L 352.108052 270.262026 
L 355.11969 270.262026 
L 355.722017 269.969409 
L 362.34762 269.87632 
L 363.552275 269.78323 
L 365.961585 269.78323 
L 366.563913 270.39079 
L 369.575551 270.39079 
L 370.177878 269.165512 
L 373.189516 269.165512 
L 373.791843 269.852816 
L 376.803481 269.852816 
L 377.405809 269.406169 
L 380.417446 269.406169 
L 381.019774 269.769128 
L 384.031412 269.769128 
L 384.633739 270.37417 
L 387.645377 270.37417 
L 388.247705 269.755781 
L 394.873307 269.670414 
L 395.475635 269.431184 
L 398.487273 269.431184 
L 398.487273 269.431184 
" clip-path="url(#p2f6e320e49)" style="fill: none; stroke: #ffff00; stroke-width: 3; stroke-linecap: square"/>
   </g>
   <g id="patch_3">
    <path d="M 57.6 307.584 
L 57.6 41.472 
" style="fill: none; stroke: #ffffff; stroke-linejoin: miter; stroke-linecap: square"/>
   </g>
   <g id="patch_4">
    <path d="M 414.72 307.584 
L 414.72 41.472 
" style="fill: none; stroke: #ffffff; stroke-linejoin: miter; stroke-linecap: square"/>
   </g>
   <g id="patch_5">
    <path d="M 57.6 307.584 
L 414.72 307.584 
" style="fill: none; stroke: #ffffff; stroke-linejoin: miter; stroke-linecap: square"/>
   </g>
   <g id="patch_6">
    <path d="M 57.6 41.472 
L 414.72 41.472 
" style="fill: none; stroke: #ffffff; stroke-linejoin: miter; stroke-linecap: square"/>
   </g>
   <g id="legend_1">
    <g id="patch_7">
     <path d="M 243.124687 302.584 
L 407.72 302.584 
Q 409.72 302.584 409.72 300.584 
L 409.72 257.549625 
Q 409.72 255.549625 407.72 255.549625 
L 243.124687 255.549625 
Q 241.124687 255.549625 241.124687 257.549625 
L 241.124687 300.584 
Q 241.124687 302.584 243.124687 302.584 
z
" style="fill: #e5e5e5; opacity: 0.8; stroke: #cccccc; stroke-width: 0.5; stroke-linejoin: miter"/>
    </g>
    <g id="line2d_26">
     <path d="M 245.124687 263.648062 
L 255.124687 263.648062 
L 265.124687 263.648062 
" style="fill: none; stroke: #6495ed; stroke-width: 2; stroke-linecap: square"/>
    </g>
    <g id="text_14">
     <!-- Generator loss -->
     <g transform="translate(273.124687 267.148062) scale(0.1 -0.1)">
      <defs>
       <path id="DejaVuSans-47" d="M 3809 666 
L 3809 1919 
L 2778 1919 
L 2778 2438 
L 4434 2438 
L 4434 434 
Q 4069 175 3628 42 
Q 3188 -91 2688 -91 
Q 1594 -91 976 548 
Q 359 1188 359 2328 
Q 359 3472 976 4111 
Q 1594 4750 2688 4750 
Q 3144 4750 3555 4637 
Q 3966 4525 4313 4306 
L 4313 3634 
Q 3963 3931 3569 4081 
Q 3175 4231 2741 4231 
Q 1884 4231 1454 3753 
Q 1025 3275 1025 2328 
Q 1025 1384 1454 906 
Q 1884 428 2741 428 
Q 3075 428 3337 486 
Q 3600 544 3809 666 
z
" transform="scale(0.015625)"/>
       <path id="DejaVuSans-65" d="M 3597 1894 
L 3597 1613 
L 953 1613 
Q 991 1019 1311 708 
Q 1631 397 2203 397 
Q 2534 397 2845 478 
Q 3156 559 3463 722 
L 3463 178 
Q 3153 47 2828 -22 
Q 2503 -91 2169 -91 
Q 1331 -91 842 396 
Q 353 884 353 1716 
Q 353 2575 817 3079 
Q 1281 3584 2069 3584 
Q 2775 3584 3186 3129 
Q 3597 2675 3597 1894 
z
M 3022 2063 
Q 3016 2534 2758 2815 
Q 2500 3097 2075 3097 
Q 1594 3097 1305 2825 
Q 1016 2553 972 2059 
L 3022 2063 
z
" transform="scale(0.015625)"/>
       <path id="DejaVuSans-6e" d="M 3513 2113 
L 3513 0 
L 2938 0 
L 2938 2094 
Q 2938 2591 2744 2837 
Q 2550 3084 2163 3084 
Q 1697 3084 1428 2787 
Q 1159 2491 1159 1978 
L 1159 0 
L 581 0 
L 581 3500 
L 1159 3500 
L 1159 2956 
Q 1366 3272 1645 3428 
Q 1925 3584 2291 3584 
Q 2894 3584 3203 3211 
Q 3513 2838 3513 2113 
z
" transform="scale(0.015625)"/>
       <path id="DejaVuSans-72" d="M 2631 2963 
Q 2534 3019 2420 3045 
Q 2306 3072 2169 3072 
Q 1681 3072 1420 2755 
Q 1159 2438 1159 1844 
L 1159 0 
L 581 0 
L 581 3500 
L 1159 3500 
L 1159 2956 
Q 1341 3275 1631 3429 
Q 1922 3584 2338 3584 
Q 2397 3584 2469 3576 
Q 2541 3569 2628 3553 
L 2631 2963 
z
" transform="scale(0.015625)"/>
       <path id="DejaVuSans-61" d="M 2194 1759 
Q 1497 1759 1228 1600 
Q 959 1441 959 1056 
Q 959 750 1161 570 
Q 1363 391 1709 391 
Q 2188 391 2477 730 
Q 2766 1069 2766 1631 
L 2766 1759 
L 2194 1759 
z
M 3341 1997 
L 3341 0 
L 2766 0 
L 2766 531 
Q 2569 213 2275 61 
Q 1981 -91 1556 -91 
Q 1019 -91 701 211 
Q 384 513 384 1019 
Q 384 1609 779 1909 
Q 1175 2209 1959 2209 
L 2766 2209 
L 2766 2266 
Q 2766 2663 2505 2880 
Q 2244 3097 1772 3097 
Q 1472 3097 1187 3025 
Q 903 2953 641 2809 
L 641 3341 
Q 956 3463 1253 3523 
Q 1550 3584 1831 3584 
Q 2591 3584 2966 3190 
Q 3341 2797 3341 1997 
z
" transform="scale(0.015625)"/>
       <path id="DejaVuSans-74" d="M 1172 4494 
L 1172 3500 
L 2356 3500 
L 2356 3053 
L 1172 3053 
L 1172 1153 
Q 1172 725 1289 603 
Q 1406 481 1766 481 
L 2356 481 
L 2356 0 
L 1766 0 
Q 1100 0 847 248 
Q 594 497 594 1153 
L 594 3053 
L 172 3053 
L 172 3500 
L 594 3500 
L 594 4494 
L 1172 4494 
z
" transform="scale(0.015625)"/>
       <path id="DejaVuSans-20" transform="scale(0.015625)"/>
       <path id="DejaVuSans-6c" d="M 603 4863 
L 1178 4863 
L 1178 0 
L 603 0 
L 603 4863 
z
" transform="scale(0.015625)"/>
      </defs>
      <use xlink:href="#DejaVuSans-47"/>
      <use xlink:href="#DejaVuSans-65" x="77.490234"/>
      <use xlink:href="#DejaVuSans-6e" x="139.013672"/>
      <use xlink:href="#DejaVuSans-65" x="202.392578"/>
      <use xlink:href="#DejaVuSans-72" x="263.916016"/>
      <use xlink:href="#DejaVuSans-61" x="305.029297"/>
      <use xlink:href="#DejaVuSans-74" x="366.308594"/>
      <use xlink:href="#DejaVuSans-6f" x="405.517578"/>
      <use xlink:href="#DejaVuSans-72" x="466.699219"/>
      <use xlink:href="#DejaVuSans-20" x="507.8125"/>
      <use xlink:href="#DejaVuSans-6c" x="539.599609"/>
      <use xlink:href="#DejaVuSans-6f" x="567.382812"/>
      <use xlink:href="#DejaVuSans-73" x="628.564453"/>
      <use xlink:href="#DejaVuSans-73" x="680.664062"/>
     </g>
    </g>
    <g id="line2d_27">
     <path d="M 245.124687 278.326188 
L 255.124687 278.326188 
L 265.124687 278.326188 
" style="fill: none; stroke: #dc143c; stroke-width: 2; stroke-linecap: square"/>
    </g>
    <g id="text_15">
     <!-- Average discriminator loss -->
     <g transform="translate(273.124687 281.826188) scale(0.1 -0.1)">
      <defs>
       <path id="DejaVuSans-41" d="M 2188 4044 
L 1331 1722 
L 3047 1722 
L 2188 4044 
z
M 1831 4666 
L 2547 4666 
L 4325 0 
L 3669 0 
L 3244 1197 
L 1141 1197 
L 716 0 
L 50 0 
L 1831 4666 
z
" transform="scale(0.015625)"/>
       <path id="DejaVuSans-76" d="M 191 3500 
L 800 3500 
L 1894 563 
L 2988 3500 
L 3597 3500 
L 2284 0 
L 1503 0 
L 191 3500 
z
" transform="scale(0.015625)"/>
       <path id="DejaVuSans-67" d="M 2906 1791 
Q 2906 2416 2648 2759 
Q 2391 3103 1925 3103 
Q 1463 3103 1205 2759 
Q 947 2416 947 1791 
Q 947 1169 1205 825 
Q 1463 481 1925 481 
Q 2391 481 2648 825 
Q 2906 1169 2906 1791 
z
M 3481 434 
Q 3481 -459 3084 -895 
Q 2688 -1331 1869 -1331 
Q 1566 -1331 1297 -1286 
Q 1028 -1241 775 -1147 
L 775 -588 
Q 1028 -725 1275 -790 
Q 1522 -856 1778 -856 
Q 2344 -856 2625 -561 
Q 2906 -266 2906 331 
L 2906 616 
Q 2728 306 2450 153 
Q 2172 0 1784 0 
Q 1141 0 747 490 
Q 353 981 353 1791 
Q 353 2603 747 3093 
Q 1141 3584 1784 3584 
Q 2172 3584 2450 3431 
Q 2728 3278 2906 2969 
L 2906 3500 
L 3481 3500 
L 3481 434 
z
" transform="scale(0.015625)"/>
       <path id="DejaVuSans-64" d="M 2906 2969 
L 2906 4863 
L 3481 4863 
L 3481 0 
L 2906 0 
L 2906 525 
Q 2725 213 2448 61 
Q 2172 -91 1784 -91 
Q 1150 -91 751 415 
Q 353 922 353 1747 
Q 353 2572 751 3078 
Q 1150 3584 1784 3584 
Q 2172 3584 2448 3432 
Q 2725 3281 2906 2969 
z
M 947 1747 
Q 947 1113 1208 752 
Q 1469 391 1925 391 
Q 2381 391 2643 752 
Q 2906 1113 2906 1747 
Q 2906 2381 2643 2742 
Q 2381 3103 1925 3103 
Q 1469 3103 1208 2742 
Q 947 2381 947 1747 
z
" transform="scale(0.015625)"/>
       <path id="DejaVuSans-69" d="M 603 3500 
L 1178 3500 
L 1178 0 
L 603 0 
L 603 3500 
z
M 603 4863 
L 1178 4863 
L 1178 4134 
L 603 4134 
L 603 4863 
z
" transform="scale(0.015625)"/>
       <path id="DejaVuSans-6d" d="M 3328 2828 
Q 3544 3216 3844 3400 
Q 4144 3584 4550 3584 
Q 5097 3584 5394 3201 
Q 5691 2819 5691 2113 
L 5691 0 
L 5113 0 
L 5113 2094 
Q 5113 2597 4934 2840 
Q 4756 3084 4391 3084 
Q 3944 3084 3684 2787 
Q 3425 2491 3425 1978 
L 3425 0 
L 2847 0 
L 2847 2094 
Q 2847 2600 2669 2842 
Q 2491 3084 2119 3084 
Q 1678 3084 1418 2786 
Q 1159 2488 1159 1978 
L 1159 0 
L 581 0 
L 581 3500 
L 1159 3500 
L 1159 2956 
Q 1356 3278 1631 3431 
Q 1906 3584 2284 3584 
Q 2666 3584 2933 3390 
Q 3200 3197 3328 2828 
z
" transform="scale(0.015625)"/>
      </defs>
      <use xlink:href="#DejaVuSans-41"/>
      <use xlink:href="#DejaVuSans-76" x="62.533203"/>
      <use xlink:href="#DejaVuSans-65" x="121.712891"/>
      <use xlink:href="#DejaVuSans-72" x="183.236328"/>
      <use xlink:href="#DejaVuSans-61" x="224.349609"/>
      <use xlink:href="#DejaVuSans-67" x="285.628906"/>
      <use xlink:href="#DejaVuSans-65" x="349.105469"/>
      <use xlink:href="#DejaVuSans-20" x="410.628906"/>
      <use xlink:href="#DejaVuSans-64" x="442.416016"/>
      <use xlink:href="#DejaVuSans-69" x="505.892578"/>
      <use xlink:href="#DejaVuSans-73" x="533.675781"/>
      <use xlink:href="#DejaVuSans-63" x="585.775391"/>
      <use xlink:href="#DejaVuSans-72" x="640.755859"/>
      <use xlink:href="#DejaVuSans-69" x="681.869141"/>
      <use xlink:href="#DejaVuSans-6d" x="709.652344"/>
      <use xlink:href="#DejaVuSans-69" x="807.064453"/>
      <use xlink:href="#DejaVuSans-6e" x="834.847656"/>
      <use xlink:href="#DejaVuSans-61" x="898.226562"/>
      <use xlink:href="#DejaVuSans-74" x="959.505859"/>
      <use xlink:href="#DejaVuSans-6f" x="998.714844"/>
      <use xlink:href="#DejaVuSans-72" x="1059.896484"/>
      <use xlink:href="#DejaVuSans-20" x="1101.009766"/>
      <use xlink:href="#DejaVuSans-6c" x="1132.796875"/>
      <use xlink:href="#DejaVuSans-6f" x="1160.580078"/>
      <use xlink:href="#DejaVuSans-73" x="1221.761719"/>
      <use xlink:href="#DejaVuSans-73" x="1273.861328"/>
     </g>
    </g>
    <g id="line2d_28">
     <path d="M 245.124687 293.004312 
L 255.124687 293.004312 
L 265.124687 293.004312 
" style="fill: none; stroke: #ffff00; stroke-width: 3; stroke-linecap: square"/>
    </g>
    <g id="text_16">
     <!-- ROC AUC -->
     <g transform="translate(273.124687 296.504312) scale(0.1 -0.1)">
      <defs>
       <path id="DejaVuSans-52" d="M 2841 2188 
Q 3044 2119 3236 1894 
Q 3428 1669 3622 1275 
L 4263 0 
L 3584 0 
L 2988 1197 
Q 2756 1666 2539 1819 
Q 2322 1972 1947 1972 
L 1259 1972 
L 1259 0 
L 628 0 
L 628 4666 
L 2053 4666 
Q 2853 4666 3247 4331 
Q 3641 3997 3641 3322 
Q 3641 2881 3436 2590 
Q 3231 2300 2841 2188 
z
M 1259 4147 
L 1259 2491 
L 2053 2491 
Q 2509 2491 2742 2702 
Q 2975 2913 2975 3322 
Q 2975 3731 2742 3939 
Q 2509 4147 2053 4147 
L 1259 4147 
z
" transform="scale(0.015625)"/>
       <path id="DejaVuSans-4f" d="M 2522 4238 
Q 1834 4238 1429 3725 
Q 1025 3213 1025 2328 
Q 1025 1447 1429 934 
Q 1834 422 2522 422 
Q 3209 422 3611 934 
Q 4013 1447 4013 2328 
Q 4013 3213 3611 3725 
Q 3209 4238 2522 4238 
z
M 2522 4750 
Q 3503 4750 4090 4092 
Q 4678 3434 4678 2328 
Q 4678 1225 4090 567 
Q 3503 -91 2522 -91 
Q 1538 -91 948 565 
Q 359 1222 359 2328 
Q 359 3434 948 4092 
Q 1538 4750 2522 4750 
z
" transform="scale(0.015625)"/>
       <path id="DejaVuSans-43" d="M 4122 4306 
L 4122 3641 
Q 3803 3938 3442 4084 
Q 3081 4231 2675 4231 
Q 1875 4231 1450 3742 
Q 1025 3253 1025 2328 
Q 1025 1406 1450 917 
Q 1875 428 2675 428 
Q 3081 428 3442 575 
Q 3803 722 4122 1019 
L 4122 359 
Q 3791 134 3420 21 
Q 3050 -91 2638 -91 
Q 1578 -91 968 557 
Q 359 1206 359 2328 
Q 359 3453 968 4101 
Q 1578 4750 2638 4750 
Q 3056 4750 3426 4639 
Q 3797 4528 4122 4306 
z
" transform="scale(0.015625)"/>
       <path id="DejaVuSans-55" d="M 556 4666 
L 1191 4666 
L 1191 1831 
Q 1191 1081 1462 751 
Q 1734 422 2344 422 
Q 2950 422 3222 751 
Q 3494 1081 3494 1831 
L 3494 4666 
L 4128 4666 
L 4128 1753 
Q 4128 841 3676 375 
Q 3225 -91 2344 -91 
Q 1459 -91 1007 375 
Q 556 841 556 1753 
L 556 4666 
z
" transform="scale(0.015625)"/>
      </defs>
      <use xlink:href="#DejaVuSans-52"/>
      <use xlink:href="#DejaVuSans-4f" x="69.482422"/>
      <use xlink:href="#DejaVuSans-43" x="148.193359"/>
      <use xlink:href="#DejaVuSans-20" x="218.017578"/>
      <use xlink:href="#DejaVuSans-41" x="249.804688"/>
      <use xlink:href="#DejaVuSans-55" x="318.212891"/>
      <use xlink:href="#DejaVuSans-43" x="391.40625"/>
     </g>
    </g>
   </g>
  </g>
 </g>
 <defs>
  <clipPath id="p2f6e320e49">
   <rect x="57.6" y="41.472" width="357.12" height="266.112"/>
  </clipPath>
 </defs>
</svg>
