<?xml version="1.0" encoding="utf-8" standalone="no"?>
<!DOCTYPE svg PUBLIC "-//W3C//DTD SVG 1.1//EN"
  "http://www.w3.org/Graphics/SVG/1.1/DTD/svg11.dtd">
<svg xmlns:xlink="http://www.w3.org/1999/xlink" width="460.8pt" height="345.6pt" viewBox="0 0 460.8 345.6" xmlns="http://www.w3.org/2000/svg" version="1.1">
 <metadata>
  <rdf:RDF xmlns:dc="http://purl.org/dc/elements/1.1/" xmlns:cc="http://creativecommons.org/ns#" xmlns:rdf="http://www.w3.org/1999/02/22-rdf-syntax-ns#">
   <cc:Work>
    <dc:type rdf:resource="http://purl.org/dc/dcmitype/StillImage"/>
    <dc:date>2023-07-12T21:13:36.044734</dc:date>
    <dc:format>image/svg+xml</dc:format>
    <dc:creator>
     <cc:Agent>
      <dc:title>Matplotlib v3.7.1, https://matplotlib.org/</dc:title>
     </cc:Agent>
    </dc:creator>
   </cc:Work>
  </rdf:RDF>
 </metadata>
 <defs>
  <style type="text/css">*{stroke-linejoin: round; stroke-linecap: butt}</style>
 </defs>
 <g id="figure_1">
  <g id="patch_1">
   <path d="M 0 345.6 
L 460.8 345.6 
L 460.8 0 
L 0 0 
z
" style="fill: #ffffff"/>
  </g>
  <g id="axes_1">
   <g id="patch_2">
    <path d="M 57.6 307.584 
L 414.72 307.584 
L 414.72 41.472 
L 57.6 41.472 
z
" style="fill: #e5e5e5"/>
   </g>
   <g id="matplotlib.axis_1">
    <g id="xtick_1">
     <g id="line2d_1">
      <path d="M 73.109666 307.584 
L 73.109666 41.472 
" clip-path="url(#pf61dd0b2a8)" style="fill: none; stroke: #ffffff; stroke-width: 0.8; stroke-linecap: square"/>
     </g>
     <g id="line2d_2">
      <defs>
       <path id="mc9f27a3cf8" d="M 0 0 
L 0 3.5 
" style="stroke: #555555; stroke-width: 0.8"/>
      </defs>
      <g>
       <use xlink:href="#mc9f27a3cf8" x="73.109666" y="307.584" style="fill: #555555; stroke: #555555; stroke-width: 0.8"/>
      </g>
     </g>
     <g id="text_1">
      <!-- 0 -->
      <g style="fill: #555555" transform="translate(69.928416 322.182437) scale(0.1 -0.1)">
       <defs>
        <path id="DejaVuSans-30" d="M 2034 4250 
Q 1547 4250 1301 3770 
Q 1056 3291 1056 2328 
Q 1056 1369 1301 889 
Q 1547 409 2034 409 
Q 2525 409 2770 889 
Q 3016 1369 3016 2328 
Q 3016 3291 2770 3770 
Q 2525 4250 2034 4250 
z
M 2034 4750 
Q 2819 4750 3233 4129 
Q 3647 3509 3647 2328 
Q 3647 1150 3233 529 
Q 2819 -91 2034 -91 
Q 1250 -91 836 529 
Q 422 1150 422 2328 
Q 422 3509 836 4129 
Q 1250 4750 2034 4750 
z
" transform="scale(0.015625)"/>
       </defs>
       <use xlink:href="#DejaVuSans-30"/>
      </g>
     </g>
    </g>
    <g id="xtick_2">
     <g id="line2d_3">
      <path d="M 145.415801 307.584 
L 145.415801 41.472 
" clip-path="url(#pf61dd0b2a8)" style="fill: none; stroke: #ffffff; stroke-width: 0.8; stroke-linecap: square"/>
     </g>
     <g id="line2d_4">
      <g>
       <use xlink:href="#mc9f27a3cf8" x="145.415801" y="307.584" style="fill: #555555; stroke: #555555; stroke-width: 0.8"/>
      </g>
     </g>
     <g id="text_2">
      <!-- 100 -->
      <g style="fill: #555555" transform="translate(135.872051 322.182437) scale(0.1 -0.1)">
       <defs>
        <path id="DejaVuSans-31" d="M 794 531 
L 1825 531 
L 1825 4091 
L 703 3866 
L 703 4441 
L 1819 4666 
L 2450 4666 
L 2450 531 
L 3481 531 
L 3481 0 
L 794 0 
L 794 531 
z
" transform="scale(0.015625)"/>
       </defs>
       <use xlink:href="#DejaVuSans-31"/>
       <use xlink:href="#DejaVuSans-30" x="63.623047"/>
       <use xlink:href="#DejaVuSans-30" x="127.246094"/>
      </g>
     </g>
    </g>
    <g id="xtick_3">
     <g id="line2d_5">
      <path d="M 217.721936 307.584 
L 217.721936 41.472 
" clip-path="url(#pf61dd0b2a8)" style="fill: none; stroke: #ffffff; stroke-width: 0.8; stroke-linecap: square"/>
     </g>
     <g id="line2d_6">
      <g>
       <use xlink:href="#mc9f27a3cf8" x="217.721936" y="307.584" style="fill: #555555; stroke: #555555; stroke-width: 0.8"/>
      </g>
     </g>
     <g id="text_3">
      <!-- 200 -->
      <g style="fill: #555555" transform="translate(208.178186 322.182437) scale(0.1 -0.1)">
       <defs>
        <path id="DejaVuSans-32" d="M 1228 531 
L 3431 531 
L 3431 0 
L 469 0 
L 469 531 
Q 828 903 1448 1529 
Q 2069 2156 2228 2338 
Q 2531 2678 2651 2914 
Q 2772 3150 2772 3378 
Q 2772 3750 2511 3984 
Q 2250 4219 1831 4219 
Q 1534 4219 1204 4116 
Q 875 4013 500 3803 
L 500 4441 
Q 881 4594 1212 4672 
Q 1544 4750 1819 4750 
Q 2544 4750 2975 4387 
Q 3406 4025 3406 3419 
Q 3406 3131 3298 2873 
Q 3191 2616 2906 2266 
Q 2828 2175 2409 1742 
Q 1991 1309 1228 531 
z
" transform="scale(0.015625)"/>
       </defs>
       <use xlink:href="#DejaVuSans-32"/>
       <use xlink:href="#DejaVuSans-30" x="63.623047"/>
       <use xlink:href="#DejaVuSans-30" x="127.246094"/>
      </g>
     </g>
    </g>
    <g id="xtick_4">
     <g id="line2d_7">
      <path d="M 290.02807 307.584 
L 290.02807 41.472 
" clip-path="url(#pf61dd0b2a8)" style="fill: none; stroke: #ffffff; stroke-width: 0.8; stroke-linecap: square"/>
     </g>
     <g id="line2d_8">
      <g>
       <use xlink:href="#mc9f27a3cf8" x="290.02807" y="307.584" style="fill: #555555; stroke: #555555; stroke-width: 0.8"/>
      </g>
     </g>
     <g id="text_4">
      <!-- 300 -->
      <g style="fill: #555555" transform="translate(280.48432 322.182437) scale(0.1 -0.1)">
       <defs>
        <path id="DejaVuSans-33" d="M 2597 2516 
Q 3050 2419 3304 2112 
Q 3559 1806 3559 1356 
Q 3559 666 3084 287 
Q 2609 -91 1734 -91 
Q 1441 -91 1130 -33 
Q 819 25 488 141 
L 488 750 
Q 750 597 1062 519 
Q 1375 441 1716 441 
Q 2309 441 2620 675 
Q 2931 909 2931 1356 
Q 2931 1769 2642 2001 
Q 2353 2234 1838 2234 
L 1294 2234 
L 1294 2753 
L 1863 2753 
Q 2328 2753 2575 2939 
Q 2822 3125 2822 3475 
Q 2822 3834 2567 4026 
Q 2313 4219 1838 4219 
Q 1578 4219 1281 4162 
Q 984 4106 628 3988 
L 628 4550 
Q 988 4650 1302 4700 
Q 1616 4750 1894 4750 
Q 2613 4750 3031 4423 
Q 3450 4097 3450 3541 
Q 3450 3153 3228 2886 
Q 3006 2619 2597 2516 
z
" transform="scale(0.015625)"/>
       </defs>
       <use xlink:href="#DejaVuSans-33"/>
       <use xlink:href="#DejaVuSans-30" x="63.623047"/>
       <use xlink:href="#DejaVuSans-30" x="127.246094"/>
      </g>
     </g>
    </g>
    <g id="xtick_5">
     <g id="line2d_9">
      <path d="M 362.334205 307.584 
L 362.334205 41.472 
" clip-path="url(#pf61dd0b2a8)" style="fill: none; stroke: #ffffff; stroke-width: 0.8; stroke-linecap: square"/>
     </g>
     <g id="line2d_10">
      <g>
       <use xlink:href="#mc9f27a3cf8" x="362.334205" y="307.584" style="fill: #555555; stroke: #555555; stroke-width: 0.8"/>
      </g>
     </g>
     <g id="text_5">
      <!-- 400 -->
      <g style="fill: #555555" transform="translate(352.790455 322.182437) scale(0.1 -0.1)">
       <defs>
        <path id="DejaVuSans-34" d="M 2419 4116 
L 825 1625 
L 2419 1625 
L 2419 4116 
z
M 2253 4666 
L 3047 4666 
L 3047 1625 
L 3713 1625 
L 3713 1100 
L 3047 1100 
L 3047 0 
L 2419 0 
L 2419 1100 
L 313 1100 
L 313 1709 
L 2253 4666 
z
" transform="scale(0.015625)"/>
       </defs>
       <use xlink:href="#DejaVuSans-34"/>
       <use xlink:href="#DejaVuSans-30" x="63.623047"/>
       <use xlink:href="#DejaVuSans-30" x="127.246094"/>
      </g>
     </g>
    </g>
    <g id="text_6">
     <!-- Epoch -->
     <g style="fill: #555555" transform="translate(217.786875 337.38025) scale(0.12 -0.12)">
      <defs>
       <path id="DejaVuSans-45" d="M 628 4666 
L 3578 4666 
L 3578 4134 
L 1259 4134 
L 1259 2753 
L 3481 2753 
L 3481 2222 
L 1259 2222 
L 1259 531 
L 3634 531 
L 3634 0 
L 628 0 
L 628 4666 
z
" transform="scale(0.015625)"/>
       <path id="DejaVuSans-70" d="M 1159 525 
L 1159 -1331 
L 581 -1331 
L 581 3500 
L 1159 3500 
L 1159 2969 
Q 1341 3281 1617 3432 
Q 1894 3584 2278 3584 
Q 2916 3584 3314 3078 
Q 3713 2572 3713 1747 
Q 3713 922 3314 415 
Q 2916 -91 2278 -91 
Q 1894 -91 1617 61 
Q 1341 213 1159 525 
z
M 3116 1747 
Q 3116 2381 2855 2742 
Q 2594 3103 2138 3103 
Q 1681 3103 1420 2742 
Q 1159 2381 1159 1747 
Q 1159 1113 1420 752 
Q 1681 391 2138 391 
Q 2594 391 2855 752 
Q 3116 1113 3116 1747 
z
" transform="scale(0.015625)"/>
       <path id="DejaVuSans-6f" d="M 1959 3097 
Q 1497 3097 1228 2736 
Q 959 2375 959 1747 
Q 959 1119 1226 758 
Q 1494 397 1959 397 
Q 2419 397 2687 759 
Q 2956 1122 2956 1747 
Q 2956 2369 2687 2733 
Q 2419 3097 1959 3097 
z
M 1959 3584 
Q 2709 3584 3137 3096 
Q 3566 2609 3566 1747 
Q 3566 888 3137 398 
Q 2709 -91 1959 -91 
Q 1206 -91 779 398 
Q 353 888 353 1747 
Q 353 2609 779 3096 
Q 1206 3584 1959 3584 
z
" transform="scale(0.015625)"/>
       <path id="DejaVuSans-63" d="M 3122 3366 
L 3122 2828 
Q 2878 2963 2633 3030 
Q 2388 3097 2138 3097 
Q 1578 3097 1268 2742 
Q 959 2388 959 1747 
Q 959 1106 1268 751 
Q 1578 397 2138 397 
Q 2388 397 2633 464 
Q 2878 531 3122 666 
L 3122 134 
Q 2881 22 2623 -34 
Q 2366 -91 2075 -91 
Q 1284 -91 818 406 
Q 353 903 353 1747 
Q 353 2603 823 3093 
Q 1294 3584 2113 3584 
Q 2378 3584 2631 3529 
Q 2884 3475 3122 3366 
z
" transform="scale(0.015625)"/>
       <path id="DejaVuSans-68" d="M 3513 2113 
L 3513 0 
L 2938 0 
L 2938 2094 
Q 2938 2591 2744 2837 
Q 2550 3084 2163 3084 
Q 1697 3084 1428 2787 
Q 1159 2491 1159 1978 
L 1159 0 
L 581 0 
L 581 4863 
L 1159 4863 
L 1159 2956 
Q 1366 3272 1645 3428 
Q 1925 3584 2291 3584 
Q 2894 3584 3203 3211 
Q 3513 2838 3513 2113 
z
" transform="scale(0.015625)"/>
      </defs>
      <use xlink:href="#DejaVuSans-45"/>
      <use xlink:href="#DejaVuSans-70" x="63.183594"/>
      <use xlink:href="#DejaVuSans-6f" x="126.660156"/>
      <use xlink:href="#DejaVuSans-63" x="187.841797"/>
      <use xlink:href="#DejaVuSans-68" x="242.822266"/>
     </g>
    </g>
   </g>
   <g id="matplotlib.axis_2">
    <g id="ytick_1">
     <g id="line2d_11">
      <path d="M 57.6 299.567829 
L 414.72 299.567829 
" clip-path="url(#pf61dd0b2a8)" style="fill: none; stroke: #ffffff; stroke-width: 0.8; stroke-linecap: square"/>
     </g>
     <g id="line2d_12">
      <defs>
       <path id="mf6a6beaf26" d="M 0 0 
L -3.5 0 
" style="stroke: #555555; stroke-width: 0.8"/>
      </defs>
      <g>
       <use xlink:href="#mf6a6beaf26" x="57.6" y="299.567829" style="fill: #555555; stroke: #555555; stroke-width: 0.8"/>
      </g>
     </g>
     <g id="text_7">
      <!-- 0.25 -->
      <g style="fill: #555555" transform="translate(28.334375 303.367048) scale(0.1 -0.1)">
       <defs>
        <path id="DejaVuSans-2e" d="M 684 794 
L 1344 794 
L 1344 0 
L 684 0 
L 684 794 
z
" transform="scale(0.015625)"/>
        <path id="DejaVuSans-35" d="M 691 4666 
L 3169 4666 
L 3169 4134 
L 1269 4134 
L 1269 2991 
Q 1406 3038 1543 3061 
Q 1681 3084 1819 3084 
Q 2600 3084 3056 2656 
Q 3513 2228 3513 1497 
Q 3513 744 3044 326 
Q 2575 -91 1722 -91 
Q 1428 -91 1123 -41 
Q 819 9 494 109 
L 494 744 
Q 775 591 1075 516 
Q 1375 441 1709 441 
Q 2250 441 2565 725 
Q 2881 1009 2881 1497 
Q 2881 1984 2565 2268 
Q 2250 2553 1709 2553 
Q 1456 2553 1204 2497 
Q 953 2441 691 2322 
L 691 4666 
z
" transform="scale(0.015625)"/>
       </defs>
       <use xlink:href="#DejaVuSans-30"/>
       <use xlink:href="#DejaVuSans-2e" x="63.623047"/>
       <use xlink:href="#DejaVuSans-32" x="95.410156"/>
       <use xlink:href="#DejaVuSans-35" x="159.033203"/>
      </g>
     </g>
    </g>
    <g id="ytick_2">
     <g id="line2d_13">
      <path d="M 57.6 266.84419 
L 414.72 266.84419 
" clip-path="url(#pf61dd0b2a8)" style="fill: none; stroke: #ffffff; stroke-width: 0.8; stroke-linecap: square"/>
     </g>
     <g id="line2d_14">
      <g>
       <use xlink:href="#mf6a6beaf26" x="57.6" y="266.84419" style="fill: #555555; stroke: #555555; stroke-width: 0.8"/>
      </g>
     </g>
     <g id="text_8">
      <!-- 0.50 -->
      <g style="fill: #555555" transform="translate(28.334375 270.643409) scale(0.1 -0.1)">
       <use xlink:href="#DejaVuSans-30"/>
       <use xlink:href="#DejaVuSans-2e" x="63.623047"/>
       <use xlink:href="#DejaVuSans-35" x="95.410156"/>
       <use xlink:href="#DejaVuSans-30" x="159.033203"/>
      </g>
     </g>
    </g>
    <g id="ytick_3">
     <g id="line2d_15">
      <path d="M 57.6 234.120551 
L 414.72 234.120551 
" clip-path="url(#pf61dd0b2a8)" style="fill: none; stroke: #ffffff; stroke-width: 0.8; stroke-linecap: square"/>
     </g>
     <g id="line2d_16">
      <g>
       <use xlink:href="#mf6a6beaf26" x="57.6" y="234.120551" style="fill: #555555; stroke: #555555; stroke-width: 0.8"/>
      </g>
     </g>
     <g id="text_9">
      <!-- 0.75 -->
      <g style="fill: #555555" transform="translate(28.334375 237.91977) scale(0.1 -0.1)">
       <defs>
        <path id="DejaVuSans-37" d="M 525 4666 
L 3525 4666 
L 3525 4397 
L 1831 0 
L 1172 0 
L 2766 4134 
L 525 4134 
L 525 4666 
z
" transform="scale(0.015625)"/>
       </defs>
       <use xlink:href="#DejaVuSans-30"/>
       <use xlink:href="#DejaVuSans-2e" x="63.623047"/>
       <use xlink:href="#DejaVuSans-37" x="95.410156"/>
       <use xlink:href="#DejaVuSans-35" x="159.033203"/>
      </g>
     </g>
    </g>
    <g id="ytick_4">
     <g id="line2d_17">
      <path d="M 57.6 201.396912 
L 414.72 201.396912 
" clip-path="url(#pf61dd0b2a8)" style="fill: none; stroke: #ffffff; stroke-width: 0.8; stroke-linecap: square"/>
     </g>
     <g id="line2d_18">
      <g>
       <use xlink:href="#mf6a6beaf26" x="57.6" y="201.396912" style="fill: #555555; stroke: #555555; stroke-width: 0.8"/>
      </g>
     </g>
     <g id="text_10">
      <!-- 1.00 -->
      <g style="fill: #555555" transform="translate(28.334375 205.196131) scale(0.1 -0.1)">
       <use xlink:href="#DejaVuSans-31"/>
       <use xlink:href="#DejaVuSans-2e" x="63.623047"/>
       <use xlink:href="#DejaVuSans-30" x="95.410156"/>
       <use xlink:href="#DejaVuSans-30" x="159.033203"/>
      </g>
     </g>
    </g>
    <g id="ytick_5">
     <g id="line2d_19">
      <path d="M 57.6 168.673273 
L 414.72 168.673273 
" clip-path="url(#pf61dd0b2a8)" style="fill: none; stroke: #ffffff; stroke-width: 0.8; stroke-linecap: square"/>
     </g>
     <g id="line2d_20">
      <g>
       <use xlink:href="#mf6a6beaf26" x="57.6" y="168.673273" style="fill: #555555; stroke: #555555; stroke-width: 0.8"/>
      </g>
     </g>
     <g id="text_11">
      <!-- 1.25 -->
      <g style="fill: #555555" transform="translate(28.334375 172.472492) scale(0.1 -0.1)">
       <use xlink:href="#DejaVuSans-31"/>
       <use xlink:href="#DejaVuSans-2e" x="63.623047"/>
       <use xlink:href="#DejaVuSans-32" x="95.410156"/>
       <use xlink:href="#DejaVuSans-35" x="159.033203"/>
      </g>
     </g>
    </g>
    <g id="ytick_6">
     <g id="line2d_21">
      <path d="M 57.6 135.949634 
L 414.72 135.949634 
" clip-path="url(#pf61dd0b2a8)" style="fill: none; stroke: #ffffff; stroke-width: 0.8; stroke-linecap: square"/>
     </g>
     <g id="line2d_22">
      <g>
       <use xlink:href="#mf6a6beaf26" x="57.6" y="135.949634" style="fill: #555555; stroke: #555555; stroke-width: 0.8"/>
      </g>
     </g>
     <g id="text_12">
      <!-- 1.50 -->
      <g style="fill: #555555" transform="translate(28.334375 139.748853) scale(0.1 -0.1)">
       <use xlink:href="#DejaVuSans-31"/>
       <use xlink:href="#DejaVuSans-2e" x="63.623047"/>
       <use xlink:href="#DejaVuSans-35" x="95.410156"/>
       <use xlink:href="#DejaVuSans-30" x="159.033203"/>
      </g>
     </g>
    </g>
    <g id="ytick_7">
     <g id="line2d_23">
      <path d="M 57.6 103.225995 
L 414.72 103.225995 
" clip-path="url(#pf61dd0b2a8)" style="fill: none; stroke: #ffffff; stroke-width: 0.8; stroke-linecap: square"/>
     </g>
     <g id="line2d_24">
      <g>
       <use xlink:href="#mf6a6beaf26" x="57.6" y="103.225995" style="fill: #555555; stroke: #555555; stroke-width: 0.8"/>
      </g>
     </g>
     <g id="text_13">
      <!-- 1.75 -->
      <g style="fill: #555555" transform="translate(28.334375 107.025214) scale(0.1 -0.1)">
       <use xlink:href="#DejaVuSans-31"/>
       <use xlink:href="#DejaVuSans-2e" x="63.623047"/>
       <use xlink:href="#DejaVuSans-37" x="95.410156"/>
       <use xlink:href="#DejaVuSans-35" x="159.033203"/>
      </g>
     </g>
    </g>
    <g id="ytick_8">
     <g id="line2d_25">
      <path d="M 57.6 70.502356 
L 414.72 70.502356 
" clip-path="url(#pf61dd0b2a8)" style="fill: none; stroke: #ffffff; stroke-width: 0.8; stroke-linecap: square"/>
     </g>
     <g id="line2d_26">
      <g>
       <use xlink:href="#mf6a6beaf26" x="57.6" y="70.502356" style="fill: #555555; stroke: #555555; stroke-width: 0.8"/>
      </g>
     </g>
     <g id="text_14">
      <!-- 2.00 -->
      <g style="fill: #555555" transform="translate(28.334375 74.301575) scale(0.1 -0.1)">
       <use xlink:href="#DejaVuSans-32"/>
       <use xlink:href="#DejaVuSans-2e" x="63.623047"/>
       <use xlink:href="#DejaVuSans-30" x="95.410156"/>
       <use xlink:href="#DejaVuSans-30" x="159.033203"/>
      </g>
     </g>
    </g>
    <g id="text_15">
     <!-- Loss -->
     <g style="fill: #555555" transform="translate(21.83875 187.688625) rotate(-90) scale(0.12 -0.12)">
      <defs>
       <path id="DejaVuSans-4c" d="M 628 4666 
L 1259 4666 
L 1259 531 
L 3531 531 
L 3531 0 
L 628 0 
L 628 4666 
z
" transform="scale(0.015625)"/>
       <path id="DejaVuSans-73" d="M 2834 3397 
L 2834 2853 
Q 2591 2978 2328 3040 
Q 2066 3103 1784 3103 
Q 1356 3103 1142 2972 
Q 928 2841 928 2578 
Q 928 2378 1081 2264 
Q 1234 2150 1697 2047 
L 1894 2003 
Q 2506 1872 2764 1633 
Q 3022 1394 3022 966 
Q 3022 478 2636 193 
Q 2250 -91 1575 -91 
Q 1294 -91 989 -36 
Q 684 19 347 128 
L 347 722 
Q 666 556 975 473 
Q 1284 391 1588 391 
Q 1994 391 2212 530 
Q 2431 669 2431 922 
Q 2431 1156 2273 1281 
Q 2116 1406 1581 1522 
L 1381 1569 
Q 847 1681 609 1914 
Q 372 2147 372 2553 
Q 372 3047 722 3315 
Q 1072 3584 1716 3584 
Q 2034 3584 2315 3537 
Q 2597 3491 2834 3397 
z
" transform="scale(0.015625)"/>
      </defs>
      <use xlink:href="#DejaVuSans-4c"/>
      <use xlink:href="#DejaVuSans-6f" x="53.962891"/>
      <use xlink:href="#DejaVuSans-73" x="115.144531"/>
      <use xlink:href="#DejaVuSans-73" x="167.244141"/>
     </g>
    </g>
   </g>
   <g id="line2d_27">
    <path d="M 73.832727 237.8251 
L 75.27885 235.851673 
L 78.894157 229.419526 
L 79.617218 228.607384 
L 80.340279 227.061386 
L 81.063341 225.832225 
L 81.786402 225.018484 
L 84.678647 220.161677 
L 86.12477 218.380483 
L 86.847832 216.443671 
L 88.293954 214.618403 
L 89.017016 213.391956 
L 91.909261 209.587652 
L 92.632322 208.076092 
L 94.801506 204.670451 
L 95.524568 203.967069 
L 99.139874 198.643691 
L 99.862936 197.452946 
L 100.585997 197.105667 
L 101.309059 195.479777 
L 104.924365 191.942838 
L 105.647427 190.558324 
L 106.370488 189.825177 
L 107.816611 187.486519 
L 108.539672 187.142189 
L 109.262733 185.804503 
L 109.985795 185.379392 
L 110.708856 184.05606 
L 111.431917 184.143411 
L 112.154979 182.771599 
L 113.601101 181.240175 
L 115.047224 180.208292 
L 115.770285 179.462491 
L 116.493347 177.937121 
L 117.216408 178.016123 
L 117.93947 176.626335 
L 119.385592 175.05172 
L 120.108654 174.926874 
L 121.554776 173.010534 
L 122.277838 172.681886 
L 123.000899 171.847689 
L 123.72396 172.176508 
L 124.447022 171.541557 
L 125.170083 170.282732 
L 126.616206 169.22593 
L 127.339267 168.324137 
L 128.062328 167.841682 
L 129.508451 166.399808 
L 130.231512 166.173818 
L 130.954574 165.643209 
L 131.677635 165.379317 
L 132.400696 164.715404 
L 133.123758 164.987192 
L 133.846819 163.819977 
L 134.569881 163.671039 
L 135.292942 162.033352 
L 136.016003 161.822513 
L 136.739065 163.239717 
L 137.462126 161.810389 
L 138.185187 160.771969 
L 138.908249 160.919472 
L 139.63131 160.229563 
L 140.354371 159.750057 
L 141.077433 160.465353 
L 141.800494 159.627645 
L 143.246617 157.116206 
L 143.969678 157.977429 
L 144.692739 157.504976 
L 145.415801 157.288223 
L 146.861923 156.159456 
L 147.584985 156.062587 
L 148.308046 155.296532 
L 149.031108 154.726523 
L 149.754169 154.653232 
L 151.200292 155.378546 
L 151.923353 153.99656 
L 152.646414 153.518161 
L 153.369476 153.960843 
L 154.092537 153.10494 
L 155.53866 152.164106 
L 156.261721 152.274675 
L 156.984782 152.996462 
L 157.707844 152.316135 
L 158.430905 151.960757 
L 159.153966 151.911745 
L 160.600089 151.156738 
L 161.32315 150.42022 
L 162.046212 150.779156 
L 162.769273 150.111233 
L 163.492334 150.797459 
L 164.215396 149.922988 
L 164.938457 149.679334 
L 165.661519 148.796422 
L 166.38458 149.466701 
L 167.107641 149.459008 
L 167.830703 148.416577 
L 168.553764 148.25876 
L 169.276825 148.335765 
L 169.999887 148.021503 
L 170.722948 148.57118 
L 171.446009 148.886362 
L 172.169071 148.683637 
L 172.892132 147.378719 
L 173.615193 147.872003 
L 174.338255 147.12837 
L 175.061316 147.512818 
L 175.784377 147.210259 
L 176.507439 147.085788 
L 177.2305 146.276993 
L 177.953561 147.076925 
L 178.676623 147.630908 
L 179.399684 145.974638 
L 180.122745 145.912675 
L 180.845807 146.617376 
L 181.568868 145.905684 
L 182.29193 147.044297 
L 183.014991 146.577851 
L 183.738052 146.32897 
L 184.461114 145.679116 
L 185.184175 145.185239 
L 185.907236 143.690718 
L 186.630298 144.300376 
L 187.353359 143.006006 
L 188.07642 142.887448 
L 188.799482 142.614708 
L 189.522543 141.849495 
L 190.245604 141.263789 
L 190.968666 141.508473 
L 191.691727 141.138818 
L 192.414788 139.18595 
L 193.13785 139.991779 
L 193.860911 138.980947 
L 194.583972 139.170533 
L 195.307034 137.661626 
L 196.030095 138.917923 
L 196.753157 137.660658 
L 197.476218 137.712447 
L 198.199279 135.362633 
L 198.922341 136.270964 
L 199.645402 136.684513 
L 200.368463 135.133444 
L 201.091525 135.305117 
L 201.814586 133.576429 
L 202.537647 133.01739 
L 203.260709 132.184223 
L 203.98377 133.257908 
L 204.706831 131.605149 
L 205.429893 131.679985 
L 206.152954 131.491162 
L 206.876015 129.946756 
L 207.599077 131.411536 
L 208.322138 129.647505 
L 209.045199 129.683254 
L 209.768261 130.121191 
L 210.491322 128.70856 
L 211.937445 127.945391 
L 213.383568 126.833945 
L 214.106629 127.045189 
L 214.82969 126.62593 
L 215.552752 125.528183 
L 216.275813 126.268102 
L 216.998874 124.912456 
L 217.721936 125.840931 
L 218.444997 125.977013 
L 219.168058 124.190622 
L 220.614181 122.917036 
L 221.337242 122.779332 
L 222.060304 121.929359 
L 222.783365 121.688092 
L 223.506426 121.644199 
L 224.229488 121.750742 
L 224.952549 121.506698 
L 225.67561 121.550622 
L 226.398672 121.295094 
L 227.121733 119.263239 
L 227.844794 118.794031 
L 229.290917 119.181256 
L 230.013979 118.439949 
L 231.460101 116.284964 
L 232.183163 117.253151 
L 232.906224 116.567315 
L 233.629285 116.19507 
L 234.352347 116.423307 
L 235.075408 114.959526 
L 236.521531 115.082999 
L 237.244592 113.29664 
L 237.967653 115.951946 
L 238.690715 114.431788 
L 239.413776 113.81461 
L 240.136837 111.923813 
L 240.859899 113.292536 
L 241.58296 112.373345 
L 242.306021 112.995345 
L 243.029083 110.79113 
L 243.752144 112.641309 
L 244.475206 111.530331 
L 245.198267 109.79239 
L 245.921328 110.076958 
L 246.64439 109.028239 
L 247.367451 109.037523 
L 248.090512 108.830039 
L 248.813574 109.020452 
L 249.536635 108.778546 
L 250.982758 106.858212 
L 251.705819 106.857728 
L 252.42888 107.936859 
L 253.151942 107.040745 
L 253.875003 107.764686 
L 254.598064 105.553917 
L 255.321126 105.353954 
L 256.044187 106.926042 
L 256.767248 105.442755 
L 257.49031 104.979977 
L 258.213371 103.601127 
L 258.936432 103.57925 
L 259.659494 102.615744 
L 260.382555 103.731981 
L 261.105617 102.511885 
L 261.828678 102.855013 
L 262.551739 100.290287 
L 263.274801 101.048868 
L 263.997862 102.283741 
L 264.720923 101.729461 
L 265.443985 99.837136 
L 266.167046 100.738601 
L 266.890107 100.580253 
L 267.613169 99.337391 
L 268.33623 100.662938 
L 269.059291 98.946047 
L 269.782353 98.749579 
L 270.505414 98.096652 
L 271.228475 98.580215 
L 271.951537 98.009114 
L 272.674598 98.153262 
L 273.397659 98.053663 
L 274.120721 98.293619 
L 275.566843 96.806572 
L 276.289905 96.296763 
L 277.012966 95.491043 
L 277.736028 96.145141 
L 278.459089 97.743958 
L 279.18215 95.192167 
L 279.905212 95.563991 
L 280.628273 95.575725 
L 281.351334 94.16197 
L 282.074396 94.122024 
L 282.797457 93.325791 
L 283.520518 94.180133 
L 284.24358 93.135486 
L 284.966641 92.871875 
L 285.689702 91.73838 
L 287.135825 91.911365 
L 287.858886 89.517984 
L 288.581948 90.889469 
L 289.305009 91.750583 
L 290.02807 91.852757 
L 290.751132 89.516299 
L 291.474193 89.214848 
L 292.197255 90.003467 
L 293.643377 89.171126 
L 294.366439 89.752604 
L 295.812561 86.902701 
L 296.535623 87.121296 
L 297.258684 87.223111 
L 297.981745 87.149757 
L 298.704807 86.427533 
L 299.427868 86.222951 
L 300.150929 86.520251 
L 300.873991 85.383792 
L 301.597052 85.265358 
L 302.320113 87.787174 
L 303.043175 87.222159 
L 303.766236 84.729257 
L 304.489297 86.522373 
L 305.212359 84.714855 
L 305.93542 85.82808 
L 307.381543 82.826134 
L 308.104604 83.686702 
L 308.827666 83.706019 
L 309.550727 84.500083 
L 310.273788 82.613563 
L 310.99685 81.988441 
L 311.719911 83.044557 
L 312.442972 81.972994 
L 313.166034 81.514943 
L 313.889095 82.686901 
L 314.612156 81.70339 
L 315.335218 83.207289 
L 316.058279 79.974734 
L 316.78134 81.634468 
L 317.504402 80.616863 
L 318.227463 80.765256 
L 318.950524 78.154233 
L 319.673586 78.6277 
L 320.396647 74.858482 
L 321.119708 77.910906 
L 321.84277 79.121874 
L 322.565831 77.573754 
L 323.288892 77.530656 
L 324.011954 76.764617 
L 324.735015 76.474416 
L 325.458077 75.136714 
L 326.181138 76.636977 
L 326.904199 75.923288 
L 327.627261 76.59029 
L 328.350322 75.358694 
L 329.073383 74.883245 
L 329.796445 76.234304 
L 330.519506 75.716771 
L 331.242567 74.677181 
L 331.965629 74.546655 
L 332.68869 76.446954 
L 333.411751 74.063606 
L 334.134813 74.778824 
L 334.857874 74.923394 
L 335.580935 73.619349 
L 336.303997 73.995215 
L 337.027058 72.742538 
L 337.750119 72.850719 
L 338.473181 73.821747 
L 339.196242 71.805527 
L 339.919304 72.344827 
L 340.642365 72.423923 
L 341.365426 70.355836 
L 342.088488 71.663469 
L 342.811549 72.481049 
L 343.53461 70.213466 
L 344.980733 73.55723 
L 345.703794 69.825867 
L 346.426856 69.280387 
L 347.149917 69.150563 
L 347.872978 67.792124 
L 348.59604 70.27273 
L 349.319101 69.362308 
L 350.042162 69.914091 
L 350.765224 68.990718 
L 351.488285 69.752404 
L 352.934408 67.630343 
L 353.657469 69.021676 
L 354.38053 67.743128 
L 355.103592 68.634638 
L 355.826653 66.281359 
L 356.549715 68.121739 
L 357.272776 66.018497 
L 357.995837 66.969957 
L 358.718899 66.021056 
L 360.165021 67.792405 
L 360.888083 63.938192 
L 361.611144 67.555289 
L 362.334205 67.284437 
L 363.057267 66.208396 
L 363.780328 63.756906 
L 364.503389 65.50279 
L 365.226451 65.25188 
L 365.949512 63.204717 
L 366.672573 62.827635 
L 367.395635 64.206609 
L 368.118696 62.253164 
L 368.841757 63.861608 
L 369.564819 62.424244 
L 370.28788 63.613382 
L 371.010941 63.772541 
L 371.734003 62.612427 
L 373.180126 63.567601 
L 373.903187 59.670477 
L 374.626248 60.946029 
L 375.34931 61.490448 
L 376.072371 62.872137 
L 376.795432 60.899904 
L 377.518494 60.341131 
L 378.241555 58.754095 
L 378.964616 60.97137 
L 379.687678 59.130803 
L 380.410739 58.738179 
L 381.1338 59.074972 
L 381.856862 58.2289 
L 382.579923 59.062801 
L 383.302984 59.644669 
L 384.026046 57.767526 
L 384.749107 59.725403 
L 385.472168 56.832294 
L 386.19523 58.176347 
L 386.918291 58.332011 
L 387.641353 57.197611 
L 388.364414 56.690143 
L 389.087475 60.109601 
L 389.810537 53.568 
L 390.533598 56.66992 
L 391.256659 57.516897 
L 391.979721 56.685555 
L 392.702782 57.763843 
L 393.425843 57.134852 
L 394.148905 55.613446 
L 394.871966 58.875274 
L 395.595027 58.069741 
L 396.318089 54.846423 
L 397.04115 55.5182 
L 397.764211 54.574885 
L 398.487273 53.816351 
L 398.487273 53.816351 
" clip-path="url(#pf61dd0b2a8)" style="fill: none; stroke: #6495ed; stroke-width: 2; stroke-linecap: square"/>
   </g>
   <g id="line2d_28">
    <path d="M 73.832727 241.414946 
L 75.27885 242.43967 
L 77.448034 244.198994 
L 78.894157 245.44188 
L 79.617218 245.793283 
L 80.340279 246.473932 
L 81.063341 246.996387 
L 82.509463 247.854736 
L 83.955586 248.949403 
L 86.12477 250.029747 
L 86.847832 250.736189 
L 87.570893 251.172922 
L 88.293954 251.391279 
L 89.017016 251.884493 
L 90.463138 252.631928 
L 91.1862 253.032284 
L 91.909261 253.176304 
L 92.632322 253.760026 
L 94.078445 254.528501 
L 94.801506 254.995342 
L 95.524568 255.054811 
L 96.97069 255.814901 
L 97.693752 256.08671 
L 98.416813 256.565041 
L 99.139874 256.721882 
L 99.862936 257.175068 
L 100.585997 257.269731 
L 102.03212 258.126534 
L 102.755181 258.114889 
L 103.478243 258.436479 
L 104.201304 258.573574 
L 104.924365 258.841658 
L 105.647427 259.385671 
L 106.370488 259.357181 
L 107.093549 259.783434 
L 108.539672 260.204694 
L 109.262733 260.752165 
L 109.985795 260.582756 
L 110.708856 261.059661 
L 111.431917 261.019368 
L 112.87804 261.820504 
L 113.601101 261.721349 
L 114.324163 261.975878 
L 115.047224 262.076127 
L 115.770285 262.310122 
L 116.493347 262.925481 
L 117.216408 262.600021 
L 117.93947 263.073568 
L 119.385592 263.444216 
L 120.108654 263.761951 
L 120.831715 263.660445 
L 121.554776 264.024533 
L 122.277838 264.055736 
L 123.72396 264.525792 
L 124.447022 264.321205 
L 125.170083 264.785407 
L 125.893144 264.816834 
L 126.616206 265.014798 
L 127.339267 265.506444 
L 128.062328 265.236765 
L 128.78539 265.572556 
L 130.231512 265.806372 
L 130.954574 266.231789 
L 131.677635 265.901739 
L 132.400696 266.237607 
L 133.123758 266.122228 
L 134.569881 266.799903 
L 135.292942 266.70799 
L 136.016003 266.978515 
L 136.739065 266.623043 
L 137.462126 267.00795 
L 138.185187 267.554087 
L 138.908249 267.111914 
L 139.63131 267.445919 
L 141.077433 267.428005 
L 141.800494 267.975024 
L 142.523555 267.76625 
L 143.246617 268.202522 
L 143.969678 267.993844 
L 144.692739 268.164747 
L 145.415801 268.591683 
L 146.138862 268.253283 
L 146.861923 268.584918 
L 147.584985 268.512559 
L 148.308046 268.751058 
L 149.031108 269.262744 
L 149.754169 268.797113 
L 150.47723 268.953793 
L 151.200292 268.834707 
L 151.923353 269.167951 
L 152.646414 269.682468 
L 153.369476 269.102353 
L 154.092537 269.481274 
L 154.815598 269.501423 
L 155.53866 269.68547 
L 156.261721 270.103312 
L 156.984782 269.465586 
L 157.707844 269.819174 
L 159.153966 269.919882 
L 159.877028 270.425335 
L 160.600089 269.975767 
L 161.32315 270.353481 
L 162.046212 270.238021 
L 162.769273 270.418067 
L 163.492334 270.77733 
L 164.215396 270.374777 
L 164.938457 270.679363 
L 166.38458 270.711227 
L 167.107641 271.195514 
L 167.830703 270.809538 
L 168.553764 271.124957 
L 169.276825 271.024579 
L 169.999887 271.151959 
L 170.722948 271.567271 
L 171.446009 270.935099 
L 172.169071 271.24024 
L 172.892132 271.380457 
L 173.615193 271.376387 
L 174.338255 272.016162 
L 175.061316 271.356706 
L 175.784377 271.699072 
L 176.507439 271.619205 
L 177.2305 271.860294 
L 177.953561 272.232816 
L 178.676623 271.534374 
L 179.399684 272.097221 
L 180.845807 271.987827 
L 181.568868 272.625735 
L 182.29193 271.842 
L 183.014991 272.191559 
L 183.738052 272.116802 
L 184.461114 272.33465 
L 185.184175 272.968441 
L 185.907236 272.551239 
L 187.353359 272.839846 
L 188.07642 272.965399 
L 188.799482 273.556242 
L 189.522543 273.018808 
L 190.245604 273.404328 
L 190.968666 273.281923 
L 191.691727 273.442315 
L 192.414788 274.285518 
L 193.13785 273.505081 
L 193.860911 273.952035 
L 194.583972 273.812329 
L 196.030095 274.530047 
L 196.753157 274.06214 
L 198.199279 274.5932 
L 198.922341 274.56434 
L 199.645402 275.061965 
L 200.368463 274.632435 
L 201.814586 275.063106 
L 202.537647 275.258124 
L 203.260709 275.951709 
L 203.98377 275.097263 
L 204.706831 275.634389 
L 205.429893 275.518834 
L 206.152954 275.667736 
L 206.876015 276.463661 
L 207.599077 275.561504 
L 208.322138 276.133689 
L 209.045199 275.998744 
L 209.768261 276.05411 
L 210.491322 276.852773 
L 211.214383 276.203679 
L 211.937445 276.569139 
L 212.660506 276.516729 
L 213.383568 276.710514 
L 214.106629 277.297156 
L 214.82969 276.656846 
L 215.552752 277.106321 
L 216.275813 276.874349 
L 216.998874 277.198109 
L 217.721936 277.67578 
L 218.444997 276.931524 
L 219.168058 277.490829 
L 219.89112 277.475556 
L 220.614181 277.66065 
L 221.337242 278.317249 
L 222.060304 277.660195 
L 222.783365 278.048572 
L 223.506426 277.931679 
L 224.229488 278.041718 
L 224.952549 278.697622 
L 225.67561 277.93332 
L 226.398672 278.270862 
L 227.844794 278.624458 
L 228.567856 279.241279 
L 229.290917 278.442135 
L 230.013979 278.876532 
L 230.73704 278.8964 
L 231.460101 279.152437 
L 232.183163 279.70156 
L 232.906224 279.003477 
L 233.629285 279.386564 
L 234.352347 279.2323 
L 235.075408 279.518299 
L 235.798469 280.157713 
L 236.521531 279.393484 
L 237.244592 279.95976 
L 237.967653 279.484838 
L 238.690715 279.800417 
L 239.413776 280.531777 
L 240.136837 279.974717 
L 240.859899 280.166459 
L 242.306021 280.213151 
L 243.029083 281.172706 
L 243.752144 280.136194 
L 244.475206 280.598966 
L 245.921328 280.758169 
L 246.64439 281.564876 
L 247.367451 280.735446 
L 248.090512 281.149218 
L 248.813574 281.026456 
L 249.536635 281.128759 
L 250.259696 281.935656 
L 250.982758 281.241814 
L 251.705819 281.604034 
L 252.42888 281.342717 
L 253.151942 281.575658 
L 253.875003 282.145717 
L 254.598064 281.603258 
L 255.321126 281.982051 
L 256.044187 281.670896 
L 256.767248 281.970071 
L 257.49031 282.699195 
L 258.213371 282.022986 
L 258.936432 282.388849 
L 260.382555 282.381461 
L 261.105617 283.22014 
L 261.828678 282.342378 
L 262.551739 283.009463 
L 263.274801 282.750292 
L 263.997862 282.761811 
L 264.720923 283.483629 
L 265.443985 282.883094 
L 266.167046 283.160691 
L 266.890107 283.02056 
L 267.613169 283.281489 
L 268.33623 283.836981 
L 269.059291 283.235877 
L 269.782353 283.598668 
L 270.505414 283.519599 
L 271.228475 283.570229 
L 271.951537 284.340292 
L 272.674598 283.516618 
L 273.397659 283.89467 
L 274.120721 283.723803 
L 274.843782 283.910687 
L 275.566843 284.701363 
L 276.289905 283.90408 
L 277.012966 284.396043 
L 277.736028 284.150691 
L 278.459089 284.085508 
L 279.18215 285.093696 
L 279.905212 284.200563 
L 280.628273 284.603986 
L 282.074396 284.70297 
L 282.797457 285.511378 
L 283.520518 284.565615 
L 284.24358 285.049127 
L 284.966641 284.952576 
L 285.689702 285.161916 
L 286.412764 285.856648 
L 287.135825 284.99321 
L 287.858886 285.655828 
L 288.581948 285.340158 
L 289.305009 285.404831 
L 290.02807 286.090063 
L 290.751132 285.465238 
L 291.474193 285.888473 
L 292.197255 285.686965 
L 292.920316 285.819367 
L 293.643377 286.562978 
L 294.366439 285.653935 
L 295.0895 286.148634 
L 296.535623 286.276644 
L 297.258684 286.9471 
L 297.981745 286.105672 
L 298.704807 286.632561 
L 299.427868 286.482066 
L 300.150929 286.573331 
L 300.873991 287.396558 
L 301.597052 286.555184 
L 302.320113 286.643924 
L 303.043175 286.569948 
L 303.766236 286.953764 
L 304.489297 287.516007 
L 305.212359 286.775245 
L 305.93542 287.075971 
L 306.658481 287.054148 
L 307.381543 287.333094 
L 308.104604 287.97391 
L 308.827666 287.085804 
L 309.550727 287.395774 
L 310.99685 287.625877 
L 311.719911 288.259571 
L 312.442972 287.478183 
L 313.166034 287.904804 
L 313.889095 287.653739 
L 314.612156 287.84203 
L 315.335218 288.42348 
L 316.058279 287.893656 
L 316.78134 288.100811 
L 317.504402 288.04587 
L 318.227463 288.178426 
L 318.950524 289.130901 
L 319.673586 288.216162 
L 320.396647 288.960386 
L 321.119708 288.548274 
L 321.84277 288.549115 
L 322.565831 289.38177 
L 323.288892 288.530093 
L 324.011954 288.972752 
L 324.735015 288.89752 
L 325.458077 289.094258 
L 326.181138 289.720047 
L 326.904199 288.902401 
L 327.627261 289.219088 
L 328.350322 289.158484 
L 329.073383 289.35176 
L 329.796445 289.899612 
L 330.519506 289.089363 
L 331.242567 289.594327 
L 332.68869 289.376453 
L 333.411751 290.353456 
L 334.134813 289.380461 
L 334.857874 289.781819 
L 335.580935 289.741928 
L 336.303997 289.829953 
L 337.027058 290.691406 
L 337.750119 289.77318 
L 338.473181 290.077993 
L 339.919304 290.164824 
L 340.642365 290.950718 
L 341.365426 290.217022 
L 342.088488 290.469347 
L 342.811549 290.217852 
L 343.53461 290.545053 
L 344.257672 291.154501 
L 344.980733 290.109683 
L 345.703794 290.86498 
L 346.426856 290.702289 
L 347.149917 290.894869 
L 347.872978 291.716868 
L 348.59604 290.637157 
L 349.319101 291.095261 
L 350.042162 290.876552 
L 350.765224 291.08986 
L 351.488285 291.739488 
L 352.211346 290.935745 
L 352.934408 291.388921 
L 353.657469 291.131872 
L 354.38053 291.376877 
L 355.103592 292.040181 
L 355.826653 291.356118 
L 356.549715 291.60058 
L 357.272776 291.570719 
L 357.995837 291.669932 
L 358.718899 292.431624 
L 359.44196 291.458855 
L 360.165021 291.777999 
L 360.888083 291.94143 
L 361.611144 291.771391 
L 362.334205 292.560217 
L 363.057267 291.738493 
L 363.780328 292.317171 
L 364.503389 292.035297 
L 365.226451 292.198212 
L 365.949512 293.036908 
L 366.672573 292.246594 
L 367.395635 292.499522 
L 368.841757 292.483981 
L 369.564819 293.300432 
L 370.28788 292.293472 
L 371.010941 292.724833 
L 372.457064 292.757186 
L 373.180126 293.431521 
L 373.903187 292.908522 
L 374.626248 293.146894 
L 375.34931 292.948362 
L 376.072371 292.97798 
L 376.795432 293.856118 
L 377.518494 293.012274 
L 378.241555 293.506332 
L 378.964616 293.135849 
L 379.687678 293.416289 
L 380.410739 294.18942 
L 381.1338 293.30574 
L 381.856862 293.762323 
L 382.579923 293.509087 
L 383.302984 293.59172 
L 384.026046 294.452696 
L 384.749107 293.393192 
L 385.472168 294.021858 
L 386.19523 293.801003 
L 386.918291 293.900542 
L 387.641353 294.6922 
L 388.364414 293.870967 
L 389.087475 293.934983 
L 389.810537 294.345661 
L 390.533598 294.243653 
L 391.256659 294.87057 
L 391.979721 294.06344 
L 392.702782 294.381947 
L 393.425843 294.254898 
L 394.148905 294.519435 
L 394.871966 294.921147 
L 395.595027 294.107468 
L 396.318089 294.814099 
L 397.04115 294.537634 
L 397.764211 294.7932 
L 398.487273 295.488 
L 398.487273 295.488 
" clip-path="url(#pf61dd0b2a8)" style="fill: none; stroke: #dc143c; stroke-width: 2; stroke-linecap: square"/>
   </g>
   <g id="line2d_29">
    <path d="M 73.832727 229.048854 
L 76.724973 229.048854 
L 77.448034 227.443231 
L 80.340279 227.443231 
L 81.063341 226.384322 
L 83.955586 226.384322 
L 84.678647 226.505645 
L 87.570893 226.505645 
L 88.293954 226.789408 
L 91.1862 226.789408 
L 91.909261 227.050328 
L 94.801506 227.050328 
L 95.524568 227.247795 
L 98.416813 227.247795 
L 99.139874 227.552371 
L 102.03212 227.552371 
L 102.755181 227.71735 
L 105.647427 227.71735 
L 106.370488 227.905172 
L 109.262733 227.905172 
L 109.985795 228.041215 
L 112.87804 228.041215 
L 113.601101 228.180305 
L 116.493347 228.180305 
L 117.216408 228.350868 
L 123.72396 228.451378 
L 124.447022 228.576761 
L 127.339267 228.576761 
L 128.062328 228.709252 
L 134.569881 228.791488 
L 136.016003 228.89149 
L 141.800494 228.964081 
L 143.969678 229.009767 
L 149.031108 229.075758 
L 150.47723 229.150887 
L 156.261721 229.228046 
L 158.430905 229.273733 
L 167.107641 229.384395 
L 168.553764 229.457494 
L 174.338255 229.516378 
L 175.784377 229.576278 
L 185.184175 229.669681 
L 187.353359 229.715368 
L 192.414788 229.768669 
L 193.860911 229.829076 
L 203.260709 229.928571 
L 206.152954 229.962074 
L 214.106629 230.035173 
L 215.552752 230.092027 
L 224.952549 230.193552 
L 227.121733 230.231116 
L 235.798469 230.314367 
L 238.690715 230.350916 
L 246.64439 230.420969 
L 248.813574 230.464625 
L 261.105617 230.552952 
L 263.274801 230.5961 
L 279.18215 230.701179 
L 284.24358 230.761079 
L 300.873991 230.86565 
L 305.93542 230.891031 
L 326.181138 230.998648 
L 331.242567 231.027075 
L 351.488285 231.129615 
L 354.38053 231.162104 
L 373.180126 231.271751 
L 376.072371 231.302209 
L 398.487273 231.403734 
L 398.487273 231.403734 
" clip-path="url(#pf61dd0b2a8)" style="fill: none; stroke: #ffff00; stroke-width: 3; stroke-linecap: square"/>
   </g>
   <g id="patch_3">
    <path d="M 57.6 307.584 
L 57.6 41.472 
" style="fill: none; stroke: #ffffff; stroke-linejoin: miter; stroke-linecap: square"/>
   </g>
   <g id="patch_4">
    <path d="M 414.72 307.584 
L 414.72 41.472 
" style="fill: none; stroke: #ffffff; stroke-linejoin: miter; stroke-linecap: square"/>
   </g>
   <g id="patch_5">
    <path d="M 57.6 307.584 
L 414.72 307.584 
" style="fill: none; stroke: #ffffff; stroke-linejoin: miter; stroke-linecap: square"/>
   </g>
   <g id="patch_6">
    <path d="M 57.6 41.472 
L 414.72 41.472 
" style="fill: none; stroke: #ffffff; stroke-linejoin: miter; stroke-linecap: square"/>
   </g>
   <g id="legend_1">
    <g id="patch_7">
     <path d="M 243.124687 302.584 
L 407.72 302.584 
Q 409.72 302.584 409.72 300.584 
L 409.72 257.549625 
Q 409.72 255.549625 407.72 255.549625 
L 243.124687 255.549625 
Q 241.124687 255.549625 241.124687 257.549625 
L 241.124687 300.584 
Q 241.124687 302.584 243.124687 302.584 
z
" style="fill: #e5e5e5; opacity: 0.8; stroke: #cccccc; stroke-width: 0.5; stroke-linejoin: miter"/>
    </g>
    <g id="line2d_30">
     <path d="M 245.124687 263.648062 
L 255.124687 263.648062 
L 265.124687 263.648062 
" style="fill: none; stroke: #6495ed; stroke-width: 2; stroke-linecap: square"/>
    </g>
    <g id="text_16">
     <!-- Generator loss -->
     <g transform="translate(273.124687 267.148062) scale(0.1 -0.1)">
      <defs>
       <path id="DejaVuSans-47" d="M 3809 666 
L 3809 1919 
L 2778 1919 
L 2778 2438 
L 4434 2438 
L 4434 434 
Q 4069 175 3628 42 
Q 3188 -91 2688 -91 
Q 1594 -91 976 548 
Q 359 1188 359 2328 
Q 359 3472 976 4111 
Q 1594 4750 2688 4750 
Q 3144 4750 3555 4637 
Q 3966 4525 4313 4306 
L 4313 3634 
Q 3963 3931 3569 4081 
Q 3175 4231 2741 4231 
Q 1884 4231 1454 3753 
Q 1025 3275 1025 2328 
Q 1025 1384 1454 906 
Q 1884 428 2741 428 
Q 3075 428 3337 486 
Q 3600 544 3809 666 
z
" transform="scale(0.015625)"/>
       <path id="DejaVuSans-65" d="M 3597 1894 
L 3597 1613 
L 953 1613 
Q 991 1019 1311 708 
Q 1631 397 2203 397 
Q 2534 397 2845 478 
Q 3156 559 3463 722 
L 3463 178 
Q 3153 47 2828 -22 
Q 2503 -91 2169 -91 
Q 1331 -91 842 396 
Q 353 884 353 1716 
Q 353 2575 817 3079 
Q 1281 3584 2069 3584 
Q 2775 3584 3186 3129 
Q 3597 2675 3597 1894 
z
M 3022 2063 
Q 3016 2534 2758 2815 
Q 2500 3097 2075 3097 
Q 1594 3097 1305 2825 
Q 1016 2553 972 2059 
L 3022 2063 
z
" transform="scale(0.015625)"/>
       <path id="DejaVuSans-6e" d="M 3513 2113 
L 3513 0 
L 2938 0 
L 2938 2094 
Q 2938 2591 2744 2837 
Q 2550 3084 2163 3084 
Q 1697 3084 1428 2787 
Q 1159 2491 1159 1978 
L 1159 0 
L 581 0 
L 581 3500 
L 1159 3500 
L 1159 2956 
Q 1366 3272 1645 3428 
Q 1925 3584 2291 3584 
Q 2894 3584 3203 3211 
Q 3513 2838 3513 2113 
z
" transform="scale(0.015625)"/>
       <path id="DejaVuSans-72" d="M 2631 2963 
Q 2534 3019 2420 3045 
Q 2306 3072 2169 3072 
Q 1681 3072 1420 2755 
Q 1159 2438 1159 1844 
L 1159 0 
L 581 0 
L 581 3500 
L 1159 3500 
L 1159 2956 
Q 1341 3275 1631 3429 
Q 1922 3584 2338 3584 
Q 2397 3584 2469 3576 
Q 2541 3569 2628 3553 
L 2631 2963 
z
" transform="scale(0.015625)"/>
       <path id="DejaVuSans-61" d="M 2194 1759 
Q 1497 1759 1228 1600 
Q 959 1441 959 1056 
Q 959 750 1161 570 
Q 1363 391 1709 391 
Q 2188 391 2477 730 
Q 2766 1069 2766 1631 
L 2766 1759 
L 2194 1759 
z
M 3341 1997 
L 3341 0 
L 2766 0 
L 2766 531 
Q 2569 213 2275 61 
Q 1981 -91 1556 -91 
Q 1019 -91 701 211 
Q 384 513 384 1019 
Q 384 1609 779 1909 
Q 1175 2209 1959 2209 
L 2766 2209 
L 2766 2266 
Q 2766 2663 2505 2880 
Q 2244 3097 1772 3097 
Q 1472 3097 1187 3025 
Q 903 2953 641 2809 
L 641 3341 
Q 956 3463 1253 3523 
Q 1550 3584 1831 3584 
Q 2591 3584 2966 3190 
Q 3341 2797 3341 1997 
z
" transform="scale(0.015625)"/>
       <path id="DejaVuSans-74" d="M 1172 4494 
L 1172 3500 
L 2356 3500 
L 2356 3053 
L 1172 3053 
L 1172 1153 
Q 1172 725 1289 603 
Q 1406 481 1766 481 
L 2356 481 
L 2356 0 
L 1766 0 
Q 1100 0 847 248 
Q 594 497 594 1153 
L 594 3053 
L 172 3053 
L 172 3500 
L 594 3500 
L 594 4494 
L 1172 4494 
z
" transform="scale(0.015625)"/>
       <path id="DejaVuSans-20" transform="scale(0.015625)"/>
       <path id="DejaVuSans-6c" d="M 603 4863 
L 1178 4863 
L 1178 0 
L 603 0 
L 603 4863 
z
" transform="scale(0.015625)"/>
      </defs>
      <use xlink:href="#DejaVuSans-47"/>
      <use xlink:href="#DejaVuSans-65" x="77.490234"/>
      <use xlink:href="#DejaVuSans-6e" x="139.013672"/>
      <use xlink:href="#DejaVuSans-65" x="202.392578"/>
      <use xlink:href="#DejaVuSans-72" x="263.916016"/>
      <use xlink:href="#DejaVuSans-61" x="305.029297"/>
      <use xlink:href="#DejaVuSans-74" x="366.308594"/>
      <use xlink:href="#DejaVuSans-6f" x="405.517578"/>
      <use xlink:href="#DejaVuSans-72" x="466.699219"/>
      <use xlink:href="#DejaVuSans-20" x="507.8125"/>
      <use xlink:href="#DejaVuSans-6c" x="539.599609"/>
      <use xlink:href="#DejaVuSans-6f" x="567.382812"/>
      <use xlink:href="#DejaVuSans-73" x="628.564453"/>
      <use xlink:href="#DejaVuSans-73" x="680.664062"/>
     </g>
    </g>
    <g id="line2d_31">
     <path d="M 245.124687 278.326188 
L 255.124687 278.326188 
L 265.124687 278.326188 
" style="fill: none; stroke: #dc143c; stroke-width: 2; stroke-linecap: square"/>
    </g>
    <g id="text_17">
     <!-- Average discriminator loss -->
     <g transform="translate(273.124687 281.826188) scale(0.1 -0.1)">
      <defs>
       <path id="DejaVuSans-41" d="M 2188 4044 
L 1331 1722 
L 3047 1722 
L 2188 4044 
z
M 1831 4666 
L 2547 4666 
L 4325 0 
L 3669 0 
L 3244 1197 
L 1141 1197 
L 716 0 
L 50 0 
L 1831 4666 
z
" transform="scale(0.015625)"/>
       <path id="DejaVuSans-76" d="M 191 3500 
L 800 3500 
L 1894 563 
L 2988 3500 
L 3597 3500 
L 2284 0 
L 1503 0 
L 191 3500 
z
" transform="scale(0.015625)"/>
       <path id="DejaVuSans-67" d="M 2906 1791 
Q 2906 2416 2648 2759 
Q 2391 3103 1925 3103 
Q 1463 3103 1205 2759 
Q 947 2416 947 1791 
Q 947 1169 1205 825 
Q 1463 481 1925 481 
Q 2391 481 2648 825 
Q 2906 1169 2906 1791 
z
M 3481 434 
Q 3481 -459 3084 -895 
Q 2688 -1331 1869 -1331 
Q 1566 -1331 1297 -1286 
Q 1028 -1241 775 -1147 
L 775 -588 
Q 1028 -725 1275 -790 
Q 1522 -856 1778 -856 
Q 2344 -856 2625 -561 
Q 2906 -266 2906 331 
L 2906 616 
Q 2728 306 2450 153 
Q 2172 0 1784 0 
Q 1141 0 747 490 
Q 353 981 353 1791 
Q 353 2603 747 3093 
Q 1141 3584 1784 3584 
Q 2172 3584 2450 3431 
Q 2728 3278 2906 2969 
L 2906 3500 
L 3481 3500 
L 3481 434 
z
" transform="scale(0.015625)"/>
       <path id="DejaVuSans-64" d="M 2906 2969 
L 2906 4863 
L 3481 4863 
L 3481 0 
L 2906 0 
L 2906 525 
Q 2725 213 2448 61 
Q 2172 -91 1784 -91 
Q 1150 -91 751 415 
Q 353 922 353 1747 
Q 353 2572 751 3078 
Q 1150 3584 1784 3584 
Q 2172 3584 2448 3432 
Q 2725 3281 2906 2969 
z
M 947 1747 
Q 947 1113 1208 752 
Q 1469 391 1925 391 
Q 2381 391 2643 752 
Q 2906 1113 2906 1747 
Q 2906 2381 2643 2742 
Q 2381 3103 1925 3103 
Q 1469 3103 1208 2742 
Q 947 2381 947 1747 
z
" transform="scale(0.015625)"/>
       <path id="DejaVuSans-69" d="M 603 3500 
L 1178 3500 
L 1178 0 
L 603 0 
L 603 3500 
z
M 603 4863 
L 1178 4863 
L 1178 4134 
L 603 4134 
L 603 4863 
z
" transform="scale(0.015625)"/>
       <path id="DejaVuSans-6d" d="M 3328 2828 
Q 3544 3216 3844 3400 
Q 4144 3584 4550 3584 
Q 5097 3584 5394 3201 
Q 5691 2819 5691 2113 
L 5691 0 
L 5113 0 
L 5113 2094 
Q 5113 2597 4934 2840 
Q 4756 3084 4391 3084 
Q 3944 3084 3684 2787 
Q 3425 2491 3425 1978 
L 3425 0 
L 2847 0 
L 2847 2094 
Q 2847 2600 2669 2842 
Q 2491 3084 2119 3084 
Q 1678 3084 1418 2786 
Q 1159 2488 1159 1978 
L 1159 0 
L 581 0 
L 581 3500 
L 1159 3500 
L 1159 2956 
Q 1356 3278 1631 3431 
Q 1906 3584 2284 3584 
Q 2666 3584 2933 3390 
Q 3200 3197 3328 2828 
z
" transform="scale(0.015625)"/>
      </defs>
      <use xlink:href="#DejaVuSans-41"/>
      <use xlink:href="#DejaVuSans-76" x="62.533203"/>
      <use xlink:href="#DejaVuSans-65" x="121.712891"/>
      <use xlink:href="#DejaVuSans-72" x="183.236328"/>
      <use xlink:href="#DejaVuSans-61" x="224.349609"/>
      <use xlink:href="#DejaVuSans-67" x="285.628906"/>
      <use xlink:href="#DejaVuSans-65" x="349.105469"/>
      <use xlink:href="#DejaVuSans-20" x="410.628906"/>
      <use xlink:href="#DejaVuSans-64" x="442.416016"/>
      <use xlink:href="#DejaVuSans-69" x="505.892578"/>
      <use xlink:href="#DejaVuSans-73" x="533.675781"/>
      <use xlink:href="#DejaVuSans-63" x="585.775391"/>
      <use xlink:href="#DejaVuSans-72" x="640.755859"/>
      <use xlink:href="#DejaVuSans-69" x="681.869141"/>
      <use xlink:href="#DejaVuSans-6d" x="709.652344"/>
      <use xlink:href="#DejaVuSans-69" x="807.064453"/>
      <use xlink:href="#DejaVuSans-6e" x="834.847656"/>
      <use xlink:href="#DejaVuSans-61" x="898.226562"/>
      <use xlink:href="#DejaVuSans-74" x="959.505859"/>
      <use xlink:href="#DejaVuSans-6f" x="998.714844"/>
      <use xlink:href="#DejaVuSans-72" x="1059.896484"/>
      <use xlink:href="#DejaVuSans-20" x="1101.009766"/>
      <use xlink:href="#DejaVuSans-6c" x="1132.796875"/>
      <use xlink:href="#DejaVuSans-6f" x="1160.580078"/>
      <use xlink:href="#DejaVuSans-73" x="1221.761719"/>
      <use xlink:href="#DejaVuSans-73" x="1273.861328"/>
     </g>
    </g>
    <g id="line2d_32">
     <path d="M 245.124687 293.004312 
L 255.124687 293.004312 
L 265.124687 293.004312 
" style="fill: none; stroke: #ffff00; stroke-width: 3; stroke-linecap: square"/>
    </g>
    <g id="text_18">
     <!-- ROC AUC -->
     <g transform="translate(273.124687 296.504312) scale(0.1 -0.1)">
      <defs>
       <path id="DejaVuSans-52" d="M 2841 2188 
Q 3044 2119 3236 1894 
Q 3428 1669 3622 1275 
L 4263 0 
L 3584 0 
L 2988 1197 
Q 2756 1666 2539 1819 
Q 2322 1972 1947 1972 
L 1259 1972 
L 1259 0 
L 628 0 
L 628 4666 
L 2053 4666 
Q 2853 4666 3247 4331 
Q 3641 3997 3641 3322 
Q 3641 2881 3436 2590 
Q 3231 2300 2841 2188 
z
M 1259 4147 
L 1259 2491 
L 2053 2491 
Q 2509 2491 2742 2702 
Q 2975 2913 2975 3322 
Q 2975 3731 2742 3939 
Q 2509 4147 2053 4147 
L 1259 4147 
z
" transform="scale(0.015625)"/>
       <path id="DejaVuSans-4f" d="M 2522 4238 
Q 1834 4238 1429 3725 
Q 1025 3213 1025 2328 
Q 1025 1447 1429 934 
Q 1834 422 2522 422 
Q 3209 422 3611 934 
Q 4013 1447 4013 2328 
Q 4013 3213 3611 3725 
Q 3209 4238 2522 4238 
z
M 2522 4750 
Q 3503 4750 4090 4092 
Q 4678 3434 4678 2328 
Q 4678 1225 4090 567 
Q 3503 -91 2522 -91 
Q 1538 -91 948 565 
Q 359 1222 359 2328 
Q 359 3434 948 4092 
Q 1538 4750 2522 4750 
z
" transform="scale(0.015625)"/>
       <path id="DejaVuSans-43" d="M 4122 4306 
L 4122 3641 
Q 3803 3938 3442 4084 
Q 3081 4231 2675 4231 
Q 1875 4231 1450 3742 
Q 1025 3253 1025 2328 
Q 1025 1406 1450 917 
Q 1875 428 2675 428 
Q 3081 428 3442 575 
Q 3803 722 4122 1019 
L 4122 359 
Q 3791 134 3420 21 
Q 3050 -91 2638 -91 
Q 1578 -91 968 557 
Q 359 1206 359 2328 
Q 359 3453 968 4101 
Q 1578 4750 2638 4750 
Q 3056 4750 3426 4639 
Q 3797 4528 4122 4306 
z
" transform="scale(0.015625)"/>
       <path id="DejaVuSans-55" d="M 556 4666 
L 1191 4666 
L 1191 1831 
Q 1191 1081 1462 751 
Q 1734 422 2344 422 
Q 2950 422 3222 751 
Q 3494 1081 3494 1831 
L 3494 4666 
L 4128 4666 
L 4128 1753 
Q 4128 841 3676 375 
Q 3225 -91 2344 -91 
Q 1459 -91 1007 375 
Q 556 841 556 1753 
L 556 4666 
z
" transform="scale(0.015625)"/>
      </defs>
      <use xlink:href="#DejaVuSans-52"/>
      <use xlink:href="#DejaVuSans-4f" x="69.482422"/>
      <use xlink:href="#DejaVuSans-43" x="148.193359"/>
      <use xlink:href="#DejaVuSans-20" x="218.017578"/>
      <use xlink:href="#DejaVuSans-41" x="249.804688"/>
      <use xlink:href="#DejaVuSans-55" x="318.212891"/>
      <use xlink:href="#DejaVuSans-43" x="391.40625"/>
     </g>
    </g>
   </g>
  </g>
 </g>
 <defs>
  <clipPath id="pf61dd0b2a8">
   <rect x="57.6" y="41.472" width="357.12" height="266.112"/>
  </clipPath>
 </defs>
</svg>
