<?xml version="1.0" encoding="utf-8" standalone="no"?>
<!DOCTYPE svg PUBLIC "-//W3C//DTD SVG 1.1//EN"
  "http://www.w3.org/Graphics/SVG/1.1/DTD/svg11.dtd">
<svg xmlns:xlink="http://www.w3.org/1999/xlink" width="460.8pt" height="345.6pt" viewBox="0 0 460.8 345.6" xmlns="http://www.w3.org/2000/svg" version="1.1">
 <metadata>
  <rdf:RDF xmlns:dc="http://purl.org/dc/elements/1.1/" xmlns:cc="http://creativecommons.org/ns#" xmlns:rdf="http://www.w3.org/1999/02/22-rdf-syntax-ns#">
   <cc:Work>
    <dc:type rdf:resource="http://purl.org/dc/dcmitype/StillImage"/>
    <dc:date>2023-07-12T20:29:01.063197</dc:date>
    <dc:format>image/svg+xml</dc:format>
    <dc:creator>
     <cc:Agent>
      <dc:title>Matplotlib v3.7.1, https://matplotlib.org/</dc:title>
     </cc:Agent>
    </dc:creator>
   </cc:Work>
  </rdf:RDF>
 </metadata>
 <defs>
  <style type="text/css">*{stroke-linejoin: round; stroke-linecap: butt}</style>
 </defs>
 <g id="figure_1">
  <g id="patch_1">
   <path d="M 0 345.6 
L 460.8 345.6 
L 460.8 0 
L 0 0 
z
" style="fill: #ffffff"/>
  </g>
  <g id="axes_1">
   <g id="patch_2">
    <path d="M 57.6 307.584 
L 414.72 307.584 
L 414.72 41.472 
L 57.6 41.472 
z
" style="fill: #e5e5e5"/>
   </g>
   <g id="matplotlib.axis_1">
    <g id="xtick_1">
     <g id="line2d_1">
      <path d="M 73.109666 307.584 
L 73.109666 41.472 
" clip-path="url(#pa569be6379)" style="fill: none; stroke: #ffffff; stroke-width: 0.8; stroke-linecap: square"/>
     </g>
     <g id="line2d_2">
      <defs>
       <path id="mb4e95c6d96" d="M 0 0 
L 0 3.5 
" style="stroke: #555555; stroke-width: 0.8"/>
      </defs>
      <g>
       <use xlink:href="#mb4e95c6d96" x="73.109666" y="307.584" style="fill: #555555; stroke: #555555; stroke-width: 0.8"/>
      </g>
     </g>
     <g id="text_1">
      <!-- 0 -->
      <g style="fill: #555555" transform="translate(69.928416 322.182437) scale(0.1 -0.1)">
       <defs>
        <path id="DejaVuSans-30" d="M 2034 4250 
Q 1547 4250 1301 3770 
Q 1056 3291 1056 2328 
Q 1056 1369 1301 889 
Q 1547 409 2034 409 
Q 2525 409 2770 889 
Q 3016 1369 3016 2328 
Q 3016 3291 2770 3770 
Q 2525 4250 2034 4250 
z
M 2034 4750 
Q 2819 4750 3233 4129 
Q 3647 3509 3647 2328 
Q 3647 1150 3233 529 
Q 2819 -91 2034 -91 
Q 1250 -91 836 529 
Q 422 1150 422 2328 
Q 422 3509 836 4129 
Q 1250 4750 2034 4750 
z
" transform="scale(0.015625)"/>
       </defs>
       <use xlink:href="#DejaVuSans-30"/>
      </g>
     </g>
    </g>
    <g id="xtick_2">
     <g id="line2d_3">
      <path d="M 145.415801 307.584 
L 145.415801 41.472 
" clip-path="url(#pa569be6379)" style="fill: none; stroke: #ffffff; stroke-width: 0.8; stroke-linecap: square"/>
     </g>
     <g id="line2d_4">
      <g>
       <use xlink:href="#mb4e95c6d96" x="145.415801" y="307.584" style="fill: #555555; stroke: #555555; stroke-width: 0.8"/>
      </g>
     </g>
     <g id="text_2">
      <!-- 100 -->
      <g style="fill: #555555" transform="translate(135.872051 322.182437) scale(0.1 -0.1)">
       <defs>
        <path id="DejaVuSans-31" d="M 794 531 
L 1825 531 
L 1825 4091 
L 703 3866 
L 703 4441 
L 1819 4666 
L 2450 4666 
L 2450 531 
L 3481 531 
L 3481 0 
L 794 0 
L 794 531 
z
" transform="scale(0.015625)"/>
       </defs>
       <use xlink:href="#DejaVuSans-31"/>
       <use xlink:href="#DejaVuSans-30" x="63.623047"/>
       <use xlink:href="#DejaVuSans-30" x="127.246094"/>
      </g>
     </g>
    </g>
    <g id="xtick_3">
     <g id="line2d_5">
      <path d="M 217.721936 307.584 
L 217.721936 41.472 
" clip-path="url(#pa569be6379)" style="fill: none; stroke: #ffffff; stroke-width: 0.8; stroke-linecap: square"/>
     </g>
     <g id="line2d_6">
      <g>
       <use xlink:href="#mb4e95c6d96" x="217.721936" y="307.584" style="fill: #555555; stroke: #555555; stroke-width: 0.8"/>
      </g>
     </g>
     <g id="text_3">
      <!-- 200 -->
      <g style="fill: #555555" transform="translate(208.178186 322.182437) scale(0.1 -0.1)">
       <defs>
        <path id="DejaVuSans-32" d="M 1228 531 
L 3431 531 
L 3431 0 
L 469 0 
L 469 531 
Q 828 903 1448 1529 
Q 2069 2156 2228 2338 
Q 2531 2678 2651 2914 
Q 2772 3150 2772 3378 
Q 2772 3750 2511 3984 
Q 2250 4219 1831 4219 
Q 1534 4219 1204 4116 
Q 875 4013 500 3803 
L 500 4441 
Q 881 4594 1212 4672 
Q 1544 4750 1819 4750 
Q 2544 4750 2975 4387 
Q 3406 4025 3406 3419 
Q 3406 3131 3298 2873 
Q 3191 2616 2906 2266 
Q 2828 2175 2409 1742 
Q 1991 1309 1228 531 
z
" transform="scale(0.015625)"/>
       </defs>
       <use xlink:href="#DejaVuSans-32"/>
       <use xlink:href="#DejaVuSans-30" x="63.623047"/>
       <use xlink:href="#DejaVuSans-30" x="127.246094"/>
      </g>
     </g>
    </g>
    <g id="xtick_4">
     <g id="line2d_7">
      <path d="M 290.02807 307.584 
L 290.02807 41.472 
" clip-path="url(#pa569be6379)" style="fill: none; stroke: #ffffff; stroke-width: 0.8; stroke-linecap: square"/>
     </g>
     <g id="line2d_8">
      <g>
       <use xlink:href="#mb4e95c6d96" x="290.02807" y="307.584" style="fill: #555555; stroke: #555555; stroke-width: 0.8"/>
      </g>
     </g>
     <g id="text_4">
      <!-- 300 -->
      <g style="fill: #555555" transform="translate(280.48432 322.182437) scale(0.1 -0.1)">
       <defs>
        <path id="DejaVuSans-33" d="M 2597 2516 
Q 3050 2419 3304 2112 
Q 3559 1806 3559 1356 
Q 3559 666 3084 287 
Q 2609 -91 1734 -91 
Q 1441 -91 1130 -33 
Q 819 25 488 141 
L 488 750 
Q 750 597 1062 519 
Q 1375 441 1716 441 
Q 2309 441 2620 675 
Q 2931 909 2931 1356 
Q 2931 1769 2642 2001 
Q 2353 2234 1838 2234 
L 1294 2234 
L 1294 2753 
L 1863 2753 
Q 2328 2753 2575 2939 
Q 2822 3125 2822 3475 
Q 2822 3834 2567 4026 
Q 2313 4219 1838 4219 
Q 1578 4219 1281 4162 
Q 984 4106 628 3988 
L 628 4550 
Q 988 4650 1302 4700 
Q 1616 4750 1894 4750 
Q 2613 4750 3031 4423 
Q 3450 4097 3450 3541 
Q 3450 3153 3228 2886 
Q 3006 2619 2597 2516 
z
" transform="scale(0.015625)"/>
       </defs>
       <use xlink:href="#DejaVuSans-33"/>
       <use xlink:href="#DejaVuSans-30" x="63.623047"/>
       <use xlink:href="#DejaVuSans-30" x="127.246094"/>
      </g>
     </g>
    </g>
    <g id="xtick_5">
     <g id="line2d_9">
      <path d="M 362.334205 307.584 
L 362.334205 41.472 
" clip-path="url(#pa569be6379)" style="fill: none; stroke: #ffffff; stroke-width: 0.8; stroke-linecap: square"/>
     </g>
     <g id="line2d_10">
      <g>
       <use xlink:href="#mb4e95c6d96" x="362.334205" y="307.584" style="fill: #555555; stroke: #555555; stroke-width: 0.8"/>
      </g>
     </g>
     <g id="text_5">
      <!-- 400 -->
      <g style="fill: #555555" transform="translate(352.790455 322.182437) scale(0.1 -0.1)">
       <defs>
        <path id="DejaVuSans-34" d="M 2419 4116 
L 825 1625 
L 2419 1625 
L 2419 4116 
z
M 2253 4666 
L 3047 4666 
L 3047 1625 
L 3713 1625 
L 3713 1100 
L 3047 1100 
L 3047 0 
L 2419 0 
L 2419 1100 
L 313 1100 
L 313 1709 
L 2253 4666 
z
" transform="scale(0.015625)"/>
       </defs>
       <use xlink:href="#DejaVuSans-34"/>
       <use xlink:href="#DejaVuSans-30" x="63.623047"/>
       <use xlink:href="#DejaVuSans-30" x="127.246094"/>
      </g>
     </g>
    </g>
    <g id="text_6">
     <!-- Epoch -->
     <g style="fill: #555555" transform="translate(217.786875 337.38025) scale(0.12 -0.12)">
      <defs>
       <path id="DejaVuSans-45" d="M 628 4666 
L 3578 4666 
L 3578 4134 
L 1259 4134 
L 1259 2753 
L 3481 2753 
L 3481 2222 
L 1259 2222 
L 1259 531 
L 3634 531 
L 3634 0 
L 628 0 
L 628 4666 
z
" transform="scale(0.015625)"/>
       <path id="DejaVuSans-70" d="M 1159 525 
L 1159 -1331 
L 581 -1331 
L 581 3500 
L 1159 3500 
L 1159 2969 
Q 1341 3281 1617 3432 
Q 1894 3584 2278 3584 
Q 2916 3584 3314 3078 
Q 3713 2572 3713 1747 
Q 3713 922 3314 415 
Q 2916 -91 2278 -91 
Q 1894 -91 1617 61 
Q 1341 213 1159 525 
z
M 3116 1747 
Q 3116 2381 2855 2742 
Q 2594 3103 2138 3103 
Q 1681 3103 1420 2742 
Q 1159 2381 1159 1747 
Q 1159 1113 1420 752 
Q 1681 391 2138 391 
Q 2594 391 2855 752 
Q 3116 1113 3116 1747 
z
" transform="scale(0.015625)"/>
       <path id="DejaVuSans-6f" d="M 1959 3097 
Q 1497 3097 1228 2736 
Q 959 2375 959 1747 
Q 959 1119 1226 758 
Q 1494 397 1959 397 
Q 2419 397 2687 759 
Q 2956 1122 2956 1747 
Q 2956 2369 2687 2733 
Q 2419 3097 1959 3097 
z
M 1959 3584 
Q 2709 3584 3137 3096 
Q 3566 2609 3566 1747 
Q 3566 888 3137 398 
Q 2709 -91 1959 -91 
Q 1206 -91 779 398 
Q 353 888 353 1747 
Q 353 2609 779 3096 
Q 1206 3584 1959 3584 
z
" transform="scale(0.015625)"/>
       <path id="DejaVuSans-63" d="M 3122 3366 
L 3122 2828 
Q 2878 2963 2633 3030 
Q 2388 3097 2138 3097 
Q 1578 3097 1268 2742 
Q 959 2388 959 1747 
Q 959 1106 1268 751 
Q 1578 397 2138 397 
Q 2388 397 2633 464 
Q 2878 531 3122 666 
L 3122 134 
Q 2881 22 2623 -34 
Q 2366 -91 2075 -91 
Q 1284 -91 818 406 
Q 353 903 353 1747 
Q 353 2603 823 3093 
Q 1294 3584 2113 3584 
Q 2378 3584 2631 3529 
Q 2884 3475 3122 3366 
z
" transform="scale(0.015625)"/>
       <path id="DejaVuSans-68" d="M 3513 2113 
L 3513 0 
L 2938 0 
L 2938 2094 
Q 2938 2591 2744 2837 
Q 2550 3084 2163 3084 
Q 1697 3084 1428 2787 
Q 1159 2491 1159 1978 
L 1159 0 
L 581 0 
L 581 4863 
L 1159 4863 
L 1159 2956 
Q 1366 3272 1645 3428 
Q 1925 3584 2291 3584 
Q 2894 3584 3203 3211 
Q 3513 2838 3513 2113 
z
" transform="scale(0.015625)"/>
      </defs>
      <use xlink:href="#DejaVuSans-45"/>
      <use xlink:href="#DejaVuSans-70" x="63.183594"/>
      <use xlink:href="#DejaVuSans-6f" x="126.660156"/>
      <use xlink:href="#DejaVuSans-63" x="187.841797"/>
      <use xlink:href="#DejaVuSans-68" x="242.822266"/>
     </g>
    </g>
   </g>
   <g id="matplotlib.axis_2">
    <g id="ytick_1">
     <g id="line2d_11">
      <path d="M 57.6 267.7754 
L 414.72 267.7754 
" clip-path="url(#pa569be6379)" style="fill: none; stroke: #ffffff; stroke-width: 0.8; stroke-linecap: square"/>
     </g>
     <g id="line2d_12">
      <defs>
       <path id="m55afb9b732" d="M 0 0 
L -3.5 0 
" style="stroke: #555555; stroke-width: 0.8"/>
      </defs>
      <g>
       <use xlink:href="#m55afb9b732" x="57.6" y="267.7754" style="fill: #555555; stroke: #555555; stroke-width: 0.8"/>
      </g>
     </g>
     <g id="text_7">
      <!-- 0.5 -->
      <g style="fill: #555555" transform="translate(34.696875 271.574619) scale(0.1 -0.1)">
       <defs>
        <path id="DejaVuSans-2e" d="M 684 794 
L 1344 794 
L 1344 0 
L 684 0 
L 684 794 
z
" transform="scale(0.015625)"/>
        <path id="DejaVuSans-35" d="M 691 4666 
L 3169 4666 
L 3169 4134 
L 1269 4134 
L 1269 2991 
Q 1406 3038 1543 3061 
Q 1681 3084 1819 3084 
Q 2600 3084 3056 2656 
Q 3513 2228 3513 1497 
Q 3513 744 3044 326 
Q 2575 -91 1722 -91 
Q 1428 -91 1123 -41 
Q 819 9 494 109 
L 494 744 
Q 775 591 1075 516 
Q 1375 441 1709 441 
Q 2250 441 2565 725 
Q 2881 1009 2881 1497 
Q 2881 1984 2565 2268 
Q 2250 2553 1709 2553 
Q 1456 2553 1204 2497 
Q 953 2441 691 2322 
L 691 4666 
z
" transform="scale(0.015625)"/>
       </defs>
       <use xlink:href="#DejaVuSans-30"/>
       <use xlink:href="#DejaVuSans-2e" x="63.623047"/>
       <use xlink:href="#DejaVuSans-35" x="95.410156"/>
      </g>
     </g>
    </g>
    <g id="ytick_2">
     <g id="line2d_13">
      <path d="M 57.6 215.24793 
L 414.72 215.24793 
" clip-path="url(#pa569be6379)" style="fill: none; stroke: #ffffff; stroke-width: 0.8; stroke-linecap: square"/>
     </g>
     <g id="line2d_14">
      <g>
       <use xlink:href="#m55afb9b732" x="57.6" y="215.24793" style="fill: #555555; stroke: #555555; stroke-width: 0.8"/>
      </g>
     </g>
     <g id="text_8">
      <!-- 1.0 -->
      <g style="fill: #555555" transform="translate(34.696875 219.047149) scale(0.1 -0.1)">
       <use xlink:href="#DejaVuSans-31"/>
       <use xlink:href="#DejaVuSans-2e" x="63.623047"/>
       <use xlink:href="#DejaVuSans-30" x="95.410156"/>
      </g>
     </g>
    </g>
    <g id="ytick_3">
     <g id="line2d_15">
      <path d="M 57.6 162.720461 
L 414.72 162.720461 
" clip-path="url(#pa569be6379)" style="fill: none; stroke: #ffffff; stroke-width: 0.8; stroke-linecap: square"/>
     </g>
     <g id="line2d_16">
      <g>
       <use xlink:href="#m55afb9b732" x="57.6" y="162.720461" style="fill: #555555; stroke: #555555; stroke-width: 0.8"/>
      </g>
     </g>
     <g id="text_9">
      <!-- 1.5 -->
      <g style="fill: #555555" transform="translate(34.696875 166.51968) scale(0.1 -0.1)">
       <use xlink:href="#DejaVuSans-31"/>
       <use xlink:href="#DejaVuSans-2e" x="63.623047"/>
       <use xlink:href="#DejaVuSans-35" x="95.410156"/>
      </g>
     </g>
    </g>
    <g id="ytick_4">
     <g id="line2d_17">
      <path d="M 57.6 110.192991 
L 414.72 110.192991 
" clip-path="url(#pa569be6379)" style="fill: none; stroke: #ffffff; stroke-width: 0.8; stroke-linecap: square"/>
     </g>
     <g id="line2d_18">
      <g>
       <use xlink:href="#m55afb9b732" x="57.6" y="110.192991" style="fill: #555555; stroke: #555555; stroke-width: 0.8"/>
      </g>
     </g>
     <g id="text_10">
      <!-- 2.0 -->
      <g style="fill: #555555" transform="translate(34.696875 113.99221) scale(0.1 -0.1)">
       <use xlink:href="#DejaVuSans-32"/>
       <use xlink:href="#DejaVuSans-2e" x="63.623047"/>
       <use xlink:href="#DejaVuSans-30" x="95.410156"/>
      </g>
     </g>
    </g>
    <g id="ytick_5">
     <g id="line2d_19">
      <path d="M 57.6 57.665522 
L 414.72 57.665522 
" clip-path="url(#pa569be6379)" style="fill: none; stroke: #ffffff; stroke-width: 0.8; stroke-linecap: square"/>
     </g>
     <g id="line2d_20">
      <g>
       <use xlink:href="#m55afb9b732" x="57.6" y="57.665522" style="fill: #555555; stroke: #555555; stroke-width: 0.8"/>
      </g>
     </g>
     <g id="text_11">
      <!-- 2.5 -->
      <g style="fill: #555555" transform="translate(34.696875 61.464741) scale(0.1 -0.1)">
       <use xlink:href="#DejaVuSans-32"/>
       <use xlink:href="#DejaVuSans-2e" x="63.623047"/>
       <use xlink:href="#DejaVuSans-35" x="95.410156"/>
      </g>
     </g>
    </g>
    <g id="text_12">
     <!-- Loss -->
     <g style="fill: #555555" transform="translate(28.20125 187.688625) rotate(-90) scale(0.12 -0.12)">
      <defs>
       <path id="DejaVuSans-4c" d="M 628 4666 
L 1259 4666 
L 1259 531 
L 3531 531 
L 3531 0 
L 628 0 
L 628 4666 
z
" transform="scale(0.015625)"/>
       <path id="DejaVuSans-73" d="M 2834 3397 
L 2834 2853 
Q 2591 2978 2328 3040 
Q 2066 3103 1784 3103 
Q 1356 3103 1142 2972 
Q 928 2841 928 2578 
Q 928 2378 1081 2264 
Q 1234 2150 1697 2047 
L 1894 2003 
Q 2506 1872 2764 1633 
Q 3022 1394 3022 966 
Q 3022 478 2636 193 
Q 2250 -91 1575 -91 
Q 1294 -91 989 -36 
Q 684 19 347 128 
L 347 722 
Q 666 556 975 473 
Q 1284 391 1588 391 
Q 1994 391 2212 530 
Q 2431 669 2431 922 
Q 2431 1156 2273 1281 
Q 2116 1406 1581 1522 
L 1381 1569 
Q 847 1681 609 1914 
Q 372 2147 372 2553 
Q 372 3047 722 3315 
Q 1072 3584 1716 3584 
Q 2034 3584 2315 3537 
Q 2597 3491 2834 3397 
z
" transform="scale(0.015625)"/>
      </defs>
      <use xlink:href="#DejaVuSans-4c"/>
      <use xlink:href="#DejaVuSans-6f" x="53.962891"/>
      <use xlink:href="#DejaVuSans-73" x="115.144531"/>
      <use xlink:href="#DejaVuSans-73" x="167.244141"/>
     </g>
    </g>
   </g>
   <g id="line2d_21">
    <path d="M 73.832727 248.007793 
L 75.27885 245.689344 
L 76.001911 244.18153 
L 77.448034 242.185744 
L 78.894157 239.460224 
L 79.617218 238.510096 
L 80.340279 237.15346 
L 81.063341 236.177677 
L 81.786402 234.89101 
L 83.955586 231.900799 
L 84.678647 230.454733 
L 85.401709 229.505425 
L 88.293954 224.984939 
L 89.740077 223.121489 
L 90.463138 221.798066 
L 91.909261 220.140076 
L 93.355384 217.913757 
L 94.801506 216.089574 
L 96.97069 213.12245 
L 97.693752 212.314457 
L 98.416813 210.992687 
L 99.139874 210.47896 
L 99.862936 209.365092 
L 100.585997 208.57889 
L 101.309059 207.994643 
L 103.478243 204.614832 
L 104.201304 203.929419 
L 104.924365 203.625699 
L 105.647427 202.218969 
L 106.370488 201.680683 
L 107.093549 201.000342 
L 107.816611 200.737549 
L 108.539672 199.143417 
L 109.262733 198.425568 
L 109.985795 197.514181 
L 110.708856 197.153529 
L 111.431917 195.951608 
L 112.87804 194.560984 
L 113.601101 194.099279 
L 114.324163 192.846062 
L 115.047224 192.085621 
L 115.770285 191.605319 
L 116.493347 190.65154 
L 117.216408 190.334244 
L 117.93947 190.190712 
L 118.662531 188.90799 
L 119.385592 188.401952 
L 120.108654 187.357052 
L 120.831715 187.561097 
L 121.554776 186.448846 
L 122.277838 186.38445 
L 123.72396 185.126111 
L 124.447022 184.132419 
L 125.170083 184.412245 
L 125.893144 182.968546 
L 126.616206 182.105362 
L 127.339267 181.906939 
L 128.062328 181.010843 
L 128.78539 180.962077 
L 129.508451 179.894221 
L 130.231512 179.120242 
L 130.954574 178.819665 
L 132.400696 177.855641 
L 133.123758 177.532159 
L 133.846819 176.619895 
L 134.569881 176.364891 
L 135.292942 176.500458 
L 136.016003 175.443636 
L 136.739065 175.646617 
L 138.185187 174.123531 
L 138.908249 173.935202 
L 140.354371 172.760295 
L 141.077433 172.949588 
L 141.800494 172.665517 
L 142.523555 171.128981 
L 143.969678 171.700104 
L 144.692739 170.10636 
L 145.415801 170.495553 
L 146.138862 169.895564 
L 146.861923 169.6886 
L 147.584985 168.630901 
L 148.308046 169.367372 
L 149.031108 168.213529 
L 150.47723 168.430412 
L 151.200292 167.872263 
L 151.923353 166.773124 
L 152.646414 166.986324 
L 153.369476 166.394763 
L 154.092537 166.954602 
L 154.815598 165.390201 
L 155.53866 166.053647 
L 156.261721 166.038168 
L 156.984782 164.991327 
L 157.707844 164.185701 
L 158.430905 164.751188 
L 159.153966 164.502796 
L 159.877028 163.302366 
L 160.600089 164.364161 
L 162.046212 162.856704 
L 163.492334 163.124795 
L 164.215396 162.421274 
L 164.938457 163.174476 
L 165.661519 162.479771 
L 166.38458 161.996501 
L 167.107641 161.288797 
L 167.830703 161.863038 
L 168.553764 161.570125 
L 169.276825 160.963786 
L 169.999887 161.02197 
L 170.722948 161.543137 
L 171.446009 161.170888 
L 172.169071 160.468318 
L 172.892132 160.992991 
L 173.615193 160.032662 
L 174.338255 159.930282 
L 175.061316 159.584119 
L 175.784377 160.057408 
L 176.507439 160.314717 
L 177.2305 159.61519 
L 177.953561 160.394329 
L 178.676623 158.989903 
L 179.399684 159.331107 
L 180.122745 158.690441 
L 180.845807 158.785569 
L 181.568868 158.481035 
L 182.29193 158.923616 
L 183.014991 158.148022 
L 183.738052 157.68911 
L 184.461114 157.072451 
L 185.184175 157.066315 
L 187.353359 155.827951 
L 188.07642 155.64249 
L 188.799482 154.215522 
L 189.522543 153.838351 
L 190.245604 153.143233 
L 190.968666 153.891501 
L 191.691727 152.866977 
L 192.414788 152.371521 
L 193.13785 152.113148 
L 193.860911 150.475409 
L 194.583972 149.786102 
L 195.307034 150.657113 
L 196.030095 149.266977 
L 196.753157 150.109259 
L 197.476218 148.497795 
L 198.199279 147.965344 
L 198.922341 148.202865 
L 199.645402 147.095473 
L 200.368463 146.860356 
L 201.091525 147.16454 
L 202.537647 145.064833 
L 203.98377 144.975177 
L 204.706831 144.084041 
L 205.429893 143.743927 
L 206.152954 142.853655 
L 206.876015 142.845164 
L 207.599077 142.414568 
L 208.322138 141.795993 
L 209.045199 140.807549 
L 209.768261 140.662126 
L 210.491322 140.302387 
L 211.214383 139.56241 
L 211.937445 139.476386 
L 212.660506 138.443921 
L 213.383568 139.489323 
L 214.82969 137.531032 
L 215.552752 136.824717 
L 216.275813 137.387086 
L 216.998874 136.279431 
L 217.721936 135.988597 
L 218.444997 134.829557 
L 219.168058 134.744335 
L 219.89112 133.828389 
L 220.614181 133.65311 
L 221.337242 134.295554 
L 222.060304 133.090215 
L 222.783365 132.669963 
L 223.506426 132.600194 
L 224.229488 131.231248 
L 224.952549 132.90657 
L 225.67561 131.136295 
L 226.398672 130.56 
L 227.121733 131.084936 
L 227.844794 130.242741 
L 228.567856 128.473693 
L 229.290917 129.111441 
L 230.013979 127.756997 
L 230.73704 128.132452 
L 231.460101 126.822128 
L 232.183163 126.078168 
L 232.906224 127.543396 
L 233.629285 125.410188 
L 234.352347 126.014236 
L 235.798469 124.558676 
L 236.521531 124.67095 
L 237.244592 123.800602 
L 237.967653 123.719613 
L 238.690715 123.397332 
L 239.413776 124.42242 
L 240.136837 123.15246 
L 240.859899 122.566083 
L 241.58296 120.976347 
L 242.306021 121.337939 
L 243.752144 120.135468 
L 244.475206 119.077831 
L 245.198267 120.680316 
L 245.921328 118.357177 
L 246.64439 119.323768 
L 247.367451 117.982549 
L 248.090512 119.065696 
L 248.813574 117.476748 
L 249.536635 118.559382 
L 250.259696 117.741646 
L 250.982758 117.665603 
L 251.705819 116.328567 
L 252.42888 116.391485 
L 253.151942 115.688978 
L 253.875003 116.265373 
L 255.321126 113.100566 
L 256.044187 114.558517 
L 256.767248 113.69358 
L 257.49031 113.36535 
L 258.213371 112.826463 
L 258.936432 112.64625 
L 259.659494 111.819484 
L 260.382555 111.899134 
L 261.105617 111.228086 
L 261.828678 110.942775 
L 262.551739 111.99559 
L 263.274801 111.288725 
L 263.997862 109.258411 
L 264.720923 108.889167 
L 265.443985 109.536884 
L 266.167046 109.101616 
L 266.890107 108.83231 
L 267.613169 108.24904 
L 268.33623 109.460065 
L 269.059291 106.611664 
L 269.782353 106.876887 
L 270.505414 106.309396 
L 271.228475 106.016421 
L 271.951537 106.419027 
L 272.674598 105.271146 
L 273.397659 106.289133 
L 274.843782 105.277057 
L 275.566843 102.877926 
L 277.012966 104.588188 
L 277.736028 103.733132 
L 278.459089 102.69919 
L 279.18215 103.227432 
L 279.905212 100.694599 
L 280.628273 102.255081 
L 281.351334 101.434689 
L 282.074396 100.081372 
L 282.797457 101.296004 
L 283.520518 99.98672 
L 284.24358 99.993107 
L 284.966641 100.914913 
L 285.689702 98.675431 
L 286.412764 98.827743 
L 287.135825 98.643421 
L 287.858886 97.717657 
L 288.581948 97.864859 
L 289.305009 97.144481 
L 290.02807 97.202915 
L 290.751132 95.930625 
L 291.474193 95.794294 
L 292.197255 95.774607 
L 292.920316 96.216738 
L 293.643377 95.352765 
L 294.366439 95.57626 
L 295.0895 95.388858 
L 295.812561 94.16576 
L 296.535623 93.441274 
L 297.258684 92.964454 
L 297.981745 93.491794 
L 298.704807 92.123349 
L 299.427868 94.036993 
L 300.150929 91.499903 
L 301.597052 93.163453 
L 302.320113 91.031448 
L 303.043175 90.802593 
L 303.766236 90.743782 
L 304.489297 90.252585 
L 305.212359 88.90335 
L 305.93542 89.820573 
L 306.658481 89.247547 
L 307.381543 91.037935 
L 308.104604 89.993999 
L 308.827666 88.738791 
L 309.550727 88.776111 
L 310.273788 87.262819 
L 310.99685 87.309932 
L 311.719911 87.539989 
L 312.442972 87.900817 
L 313.166034 87.857811 
L 313.889095 88.083485 
L 314.612156 88.649849 
L 315.335218 85.468072 
L 316.058279 86.593536 
L 316.78134 85.859508 
L 317.504402 84.944038 
L 318.227463 84.846605 
L 318.950524 83.979952 
L 319.673586 83.752174 
L 320.396647 83.259373 
L 321.119708 85.229549 
L 321.84277 83.120788 
L 322.565831 86.100936 
L 323.288892 81.134657 
L 324.011954 82.834125 
L 324.735015 83.192122 
L 325.458077 83.711397 
L 326.904199 82.090152 
L 327.627261 81.091576 
L 328.350322 80.463071 
L 329.073383 81.491953 
L 329.796445 80.105249 
L 331.242567 78.888713 
L 331.965629 78.277165 
L 332.68869 78.099857 
L 333.411751 77.138125 
L 334.134813 80.412952 
L 334.857874 76.751023 
L 335.580935 78.435337 
L 336.303997 79.08661 
L 337.027058 79.118445 
L 337.750119 75.475051 
L 338.473181 77.0583 
L 339.196242 75.710844 
L 339.919304 77.196735 
L 340.642365 74.263074 
L 341.365426 74.005866 
L 342.088488 75.562816 
L 342.811549 75.312997 
L 343.53461 75.702428 
L 344.257672 74.701648 
L 344.980733 71.590229 
L 345.703794 74.597327 
L 346.426856 72.209843 
L 347.149917 72.962481 
L 347.872978 73.943925 
L 348.59604 73.846367 
L 349.319101 71.777656 
L 350.042162 73.588683 
L 350.765224 72.910709 
L 351.488285 71.980086 
L 352.211346 72.295704 
L 352.934408 70.607182 
L 353.657469 70.071902 
L 354.38053 70.502636 
L 355.103592 68.804045 
L 355.826653 71.046582 
L 356.549715 69.885627 
L 357.272776 69.497447 
L 358.718899 68.235302 
L 360.165021 67.696815 
L 360.888083 68.477907 
L 361.611144 67.806897 
L 363.057267 68.167224 
L 363.780328 66.881659 
L 364.503389 67.766596 
L 365.226451 67.567798 
L 365.949512 66.311813 
L 366.672573 67.104928 
L 367.395635 65.061916 
L 368.118696 64.834814 
L 368.841757 66.129771 
L 369.564819 63.72027 
L 370.28788 66.560556 
L 371.010941 64.212044 
L 371.734003 63.60002 
L 372.457064 63.331615 
L 373.180126 62.924425 
L 373.903187 62.972165 
L 374.626248 60.262901 
L 375.34931 61.709794 
L 376.072371 62.606052 
L 376.795432 63.963653 
L 377.518494 60.188787 
L 378.241555 60.940824 
L 378.964616 61.371709 
L 379.687678 59.795799 
L 380.410739 62.249282 
L 381.1338 61.261176 
L 381.856862 59.084312 
L 382.579923 58.318073 
L 383.302984 60.350841 
L 384.026046 58.997123 
L 384.749107 59.524664 
L 385.472168 58.138761 
L 386.19523 59.635923 
L 386.918291 58.812702 
L 387.641353 59.109209 
L 388.364414 56.295473 
L 389.087475 59.043861 
L 389.810537 58.569946 
L 390.533598 53.568 
L 391.256659 57.274412 
L 391.979721 55.295645 
L 392.702782 57.025495 
L 393.425843 55.930989 
L 394.871966 55.217348 
L 395.595027 56.901362 
L 396.318089 55.816924 
L 397.04115 55.543611 
L 397.764211 53.972535 
L 398.487273 55.484776 
L 398.487273 55.484776 
" clip-path="url(#pa569be6379)" style="fill: none; stroke: #6495ed; stroke-width: 2; stroke-linecap: square"/>
   </g>
   <g id="line2d_22">
    <path d="M 73.832727 245.781663 
L 75.27885 247.003431 
L 76.001911 247.766877 
L 77.448034 248.718326 
L 78.894157 249.984267 
L 79.617218 250.437136 
L 80.340279 251.045374 
L 81.063341 251.431492 
L 81.786402 251.982141 
L 86.847832 254.954904 
L 87.570893 255.44029 
L 89.740077 256.434335 
L 91.1862 257.292435 
L 91.909261 257.431239 
L 93.355384 258.155721 
L 97.693752 259.922364 
L 98.416813 260.446237 
L 99.139874 260.438208 
L 99.862936 260.809928 
L 101.309059 261.191559 
L 102.03212 261.637986 
L 102.755181 261.790652 
L 103.478243 262.14772 
L 104.924365 262.418487 
L 105.647427 262.930965 
L 106.370488 262.882864 
L 107.093549 263.137881 
L 107.816611 263.175431 
L 109.262733 263.960994 
L 109.985795 263.979421 
L 112.154979 264.601569 
L 112.87804 264.975382 
L 113.601101 264.856037 
L 114.324163 265.236888 
L 115.770285 265.520984 
L 116.493347 265.956792 
L 117.216408 265.783675 
L 119.385592 266.31605 
L 120.108654 266.782571 
L 120.831715 266.493458 
L 121.554776 266.831094 
L 122.277838 266.788734 
L 123.000899 267.00228 
L 123.72396 267.369122 
L 124.447022 267.302623 
L 125.170083 267.379192 
L 126.616206 267.833495 
L 127.339267 268.15094 
L 128.062328 268.033479 
L 130.231512 268.54648 
L 130.954574 268.876434 
L 131.677635 268.667098 
L 132.400696 268.894042 
L 133.123758 268.901678 
L 134.569881 269.483864 
L 135.292942 269.156996 
L 136.016003 269.483581 
L 136.739065 269.383597 
L 137.462126 269.595403 
L 138.185187 270.048335 
L 138.908249 269.765807 
L 139.63131 270.014063 
L 141.077433 270.105459 
L 141.800494 270.470251 
L 142.523555 270.40726 
L 143.246617 270.513074 
L 143.969678 270.408239 
L 145.415801 271.030882 
L 146.138862 270.769554 
L 147.584985 271.065065 
L 148.308046 271.04428 
L 149.031108 271.582155 
L 149.754169 271.19878 
L 150.47723 271.346095 
L 151.200292 271.375096 
L 152.646414 271.960859 
L 153.369476 271.692299 
L 155.53866 271.936468 
L 156.261721 272.298959 
L 156.984782 272.076912 
L 157.707844 272.368747 
L 158.430905 272.217347 
L 159.153966 272.356665 
L 159.877028 272.913181 
L 160.600089 272.373395 
L 161.32315 272.660205 
L 162.769273 272.774043 
L 163.492334 273.135245 
L 164.215396 272.841559 
L 166.38458 273.106258 
L 167.107641 273.615365 
L 167.830703 273.121095 
L 168.553764 273.356507 
L 169.999887 273.438325 
L 170.722948 273.779728 
L 171.446009 273.385722 
L 172.169071 273.686229 
L 172.892132 273.531692 
L 173.615193 273.781524 
L 174.338255 274.212123 
L 175.061316 273.815606 
L 175.784377 273.955011 
L 176.507439 273.801715 
L 177.953561 274.349142 
L 178.676623 274.092773 
L 179.399684 274.253344 
L 180.845807 274.347553 
L 181.568868 274.806274 
L 182.29193 274.30161 
L 183.014991 274.618319 
L 183.738052 274.575024 
L 184.461114 274.76358 
L 185.184175 275.213641 
L 185.907236 274.788064 
L 186.630298 275.066928 
L 187.353359 274.990197 
L 188.07642 275.148441 
L 188.799482 275.781138 
L 189.522543 275.348692 
L 190.245604 275.636949 
L 190.968666 275.440274 
L 191.691727 275.701778 
L 192.414788 276.23024 
L 193.13785 275.763158 
L 193.860911 276.175638 
L 195.307034 276.176639 
L 196.030095 276.807489 
L 196.753157 276.200402 
L 197.476218 276.620909 
L 198.199279 276.574239 
L 198.922341 276.683134 
L 199.645402 277.2819 
L 200.368463 276.788877 
L 201.091525 276.98315 
L 201.814586 276.992006 
L 202.537647 277.246377 
L 203.260709 277.72783 
L 203.98377 277.199762 
L 204.706831 277.55073 
L 205.429893 277.477332 
L 206.152954 277.689719 
L 206.876015 278.195483 
L 207.599077 277.708983 
L 208.322138 278.011998 
L 209.045199 278.010197 
L 209.768261 278.150163 
L 210.491322 278.703453 
L 211.214383 278.244053 
L 211.937445 278.481747 
L 213.383568 278.495412 
L 214.106629 279.114445 
L 214.82969 278.648792 
L 215.552752 278.96862 
L 216.275813 278.798287 
L 216.998874 279.042791 
L 217.721936 279.604337 
L 218.444997 279.154704 
L 219.168058 279.4011 
L 219.89112 279.366928 
L 220.614181 279.539476 
L 221.337242 279.983504 
L 222.060304 279.549657 
L 222.783365 279.814827 
L 223.506426 279.707766 
L 224.952549 280.338234 
L 225.67561 279.938633 
L 226.398672 280.259395 
L 227.121733 280.070849 
L 227.844794 280.300643 
L 228.567856 281.001693 
L 229.290917 280.364359 
L 230.013979 280.748392 
L 230.73704 280.584495 
L 231.460101 280.846468 
L 232.183163 281.449538 
L 232.906224 280.717836 
L 233.629285 281.181394 
L 234.352347 280.990449 
L 235.075408 281.228755 
L 235.798469 281.813105 
L 236.521531 281.202738 
L 237.244592 281.538025 
L 237.967653 281.412552 
L 238.690715 281.577798 
L 239.413776 282.047458 
L 240.136837 281.569003 
L 240.859899 281.888175 
L 242.306021 281.980115 
L 243.029083 282.600498 
L 243.752144 282.054352 
L 244.475206 282.410277 
L 245.198267 282.119928 
L 246.64439 282.960374 
L 247.367451 282.437667 
L 248.090512 282.607869 
L 249.536635 282.667922 
L 250.259696 283.304858 
L 250.982758 282.682094 
L 251.705819 283.07245 
L 252.42888 282.923441 
L 253.151942 283.144217 
L 253.875003 283.663577 
L 254.598064 283.148377 
L 255.321126 283.556629 
L 256.044187 283.313842 
L 256.767248 283.522613 
L 257.49031 284.109113 
L 258.213371 283.519878 
L 258.936432 283.815783 
L 259.659494 283.753888 
L 260.382555 283.879166 
L 261.105617 284.508735 
L 261.828678 283.883344 
L 262.551739 284.086022 
L 263.274801 283.993821 
L 263.997862 284.299894 
L 264.720923 284.914738 
L 265.443985 284.231294 
L 266.167046 284.525007 
L 266.890107 284.399236 
L 267.613169 284.59743 
L 268.33623 285.077558 
L 269.059291 284.659947 
L 269.782353 284.935505 
L 270.505414 284.808932 
L 271.228475 284.990867 
L 271.951537 285.531686 
L 272.674598 284.995095 
L 273.397659 285.188064 
L 274.120721 285.062545 
L 274.843782 285.258533 
L 275.566843 286.011804 
L 276.289905 285.29877 
L 277.012966 285.516028 
L 277.736028 285.431035 
L 278.459089 285.666615 
L 279.18215 286.216246 
L 279.905212 285.729929 
L 280.628273 285.912669 
L 281.351334 285.822195 
L 282.074396 286.06271 
L 282.797457 286.556423 
L 283.520518 285.999506 
L 284.24358 286.293009 
L 284.966641 286.063227 
L 285.689702 286.380173 
L 286.412764 286.966338 
L 287.135825 286.328159 
L 287.858886 286.678881 
L 288.581948 286.514844 
L 289.305009 286.686108 
L 290.02807 287.293766 
L 290.751132 286.714398 
L 291.474193 287.022971 
L 292.197255 286.869113 
L 292.920316 286.966529 
L 293.643377 287.636435 
L 294.366439 286.942583 
L 295.0895 287.25422 
L 295.812561 287.170553 
L 296.535623 287.368813 
L 297.258684 288.004279 
L 297.981745 287.301913 
L 298.704807 287.686816 
L 299.427868 287.384685 
L 300.150929 287.728288 
L 300.873991 288.243953 
L 301.597052 287.539987 
L 302.320113 287.968408 
L 303.043175 287.822542 
L 303.766236 287.957325 
L 304.489297 288.600181 
L 305.212359 288.015403 
L 305.93542 288.24707 
L 306.658481 288.138913 
L 307.381543 288.144308 
L 308.104604 288.822806 
L 308.827666 288.22962 
L 309.550727 288.535641 
L 310.273788 288.473141 
L 310.99685 288.597276 
L 311.719911 289.196069 
L 312.442972 288.479571 
L 313.166034 288.789653 
L 313.889095 288.608451 
L 314.612156 288.722595 
L 315.335218 289.531214 
L 316.058279 288.78373 
L 316.78134 289.122334 
L 317.504402 289.01472 
L 318.227463 289.168653 
L 318.950524 289.830729 
L 319.673586 289.156666 
L 320.396647 289.48765 
L 321.119708 289.205882 
L 321.84277 289.471266 
L 322.565831 289.89713 
L 323.288892 289.520894 
L 324.011954 289.720488 
L 324.735015 289.531197 
L 325.458077 289.642696 
L 326.181138 290.288676 
L 326.904199 289.657743 
L 327.627261 290.017678 
L 328.350322 289.875341 
L 329.073383 289.973813 
L 329.796445 290.671855 
L 330.519506 289.993728 
L 331.242567 290.358292 
L 331.965629 290.218244 
L 332.68869 290.372248 
L 333.411751 291.047468 
L 334.134813 290.16467 
L 334.857874 290.669754 
L 335.580935 290.404773 
L 336.303997 290.495591 
L 337.027058 291.103293 
L 337.750119 290.634486 
L 338.473181 290.849063 
L 339.196242 290.753699 
L 339.919304 290.8078 
L 340.642365 291.60384 
L 341.365426 290.906906 
L 342.088488 291.127217 
L 342.811549 290.978072 
L 343.53461 291.074414 
L 344.257672 291.759197 
L 344.980733 291.254192 
L 345.703794 291.374237 
L 346.426856 291.350417 
L 347.149917 291.453659 
L 347.872978 291.987172 
L 348.59604 291.320081 
L 349.319101 291.745919 
L 350.042162 291.466968 
L 350.765224 291.64147 
L 351.488285 292.299168 
L 352.211346 291.581161 
L 352.934408 291.987252 
L 353.657469 291.851965 
L 354.38053 291.968587 
L 355.103592 292.656963 
L 355.826653 291.828761 
L 356.549715 292.236319 
L 357.272776 292.083506 
L 357.995837 292.218531 
L 358.718899 292.896276 
L 359.44196 292.200067 
L 360.165021 292.524081 
L 360.888083 292.303227 
L 361.611144 292.491068 
L 362.334205 293.068871 
L 363.057267 292.395486 
L 363.780328 292.748117 
L 364.503389 292.534658 
L 365.226451 292.686326 
L 365.949512 293.356666 
L 366.672573 292.624444 
L 367.395635 293.047657 
L 368.118696 292.849089 
L 368.841757 292.947705 
L 369.564819 293.668578 
L 370.28788 292.829141 
L 371.010941 293.252563 
L 371.734003 293.130619 
L 372.457064 293.239093 
L 373.180126 293.889125 
L 373.903187 293.19807 
L 374.626248 293.648771 
L 375.34931 293.399406 
L 376.072371 293.471287 
L 376.795432 294.024408 
L 377.518494 293.528189 
L 378.241555 293.797412 
L 378.964616 293.606565 
L 379.687678 293.799346 
L 380.410739 294.301135 
L 381.1338 293.672462 
L 381.856862 294.075664 
L 382.579923 293.93433 
L 383.302984 293.965297 
L 384.026046 294.623864 
L 384.749107 293.888927 
L 385.472168 294.280852 
L 386.19523 294.035585 
L 386.918291 294.211175 
L 387.641353 294.80192 
L 388.364414 294.249839 
L 389.087475 294.433058 
L 389.810537 294.286027 
L 391.256659 295.075828 
L 391.979721 294.470117 
L 392.702782 294.696101 
L 393.425843 294.591082 
L 394.148905 294.740881 
L 394.871966 295.344354 
L 395.595027 294.575003 
L 396.318089 294.942167 
L 397.04115 294.763548 
L 397.764211 294.978891 
L 398.487273 295.488 
L 398.487273 295.488 
" clip-path="url(#pa569be6379)" style="fill: none; stroke: #dc143c; stroke-width: 2; stroke-linecap: square"/>
   </g>
   <g id="line2d_23">
    <path d="M 73.832727 251.96395 
L 76.724973 251.96395 
L 77.448034 246.327335 
L 80.340279 246.327335 
L 81.063341 242.77914 
L 83.955586 242.77914 
L 84.678647 240.92254 
L 87.570893 240.92254 
L 88.293954 239.831884 
L 91.1862 239.831884 
L 91.909261 239.267612 
L 94.801506 239.267612 
L 95.524568 238.864676 
L 98.416813 238.864676 
L 99.139874 238.561558 
L 102.03212 238.561558 
L 102.755181 238.412036 
L 105.647427 238.412036 
L 106.370488 238.247439 
L 138.185187 238.347664 
L 143.246617 238.412036 
L 159.877028 238.495964 
L 162.769273 238.530187 
L 185.184175 238.639375 
L 189.522543 238.680931 
L 228.567856 238.790526 
L 243.752144 238.868343 
L 398.487273 238.862639 
L 398.487273 238.862639 
" clip-path="url(#pa569be6379)" style="fill: none; stroke: #ffff00; stroke-width: 3; stroke-linecap: square"/>
   </g>
   <g id="patch_3">
    <path d="M 57.6 307.584 
L 57.6 41.472 
" style="fill: none; stroke: #ffffff; stroke-linejoin: miter; stroke-linecap: square"/>
   </g>
   <g id="patch_4">
    <path d="M 414.72 307.584 
L 414.72 41.472 
" style="fill: none; stroke: #ffffff; stroke-linejoin: miter; stroke-linecap: square"/>
   </g>
   <g id="patch_5">
    <path d="M 57.6 307.584 
L 414.72 307.584 
" style="fill: none; stroke: #ffffff; stroke-linejoin: miter; stroke-linecap: square"/>
   </g>
   <g id="patch_6">
    <path d="M 57.6 41.472 
L 414.72 41.472 
" style="fill: none; stroke: #ffffff; stroke-linejoin: miter; stroke-linecap: square"/>
   </g>
   <g id="legend_1">
    <g id="patch_7">
     <path d="M 243.124687 302.584 
L 407.72 302.584 
Q 409.72 302.584 409.72 300.584 
L 409.72 257.549625 
Q 409.72 255.549625 407.72 255.549625 
L 243.124687 255.549625 
Q 241.124687 255.549625 241.124687 257.549625 
L 241.124687 300.584 
Q 241.124687 302.584 243.124687 302.584 
z
" style="fill: #e5e5e5; opacity: 0.8; stroke: #cccccc; stroke-width: 0.5; stroke-linejoin: miter"/>
    </g>
    <g id="line2d_24">
     <path d="M 245.124687 263.648062 
L 255.124687 263.648062 
L 265.124687 263.648062 
" style="fill: none; stroke: #6495ed; stroke-width: 2; stroke-linecap: square"/>
    </g>
    <g id="text_13">
     <!-- Generator loss -->
     <g transform="translate(273.124687 267.148062) scale(0.1 -0.1)">
      <defs>
       <path id="DejaVuSans-47" d="M 3809 666 
L 3809 1919 
L 2778 1919 
L 2778 2438 
L 4434 2438 
L 4434 434 
Q 4069 175 3628 42 
Q 3188 -91 2688 -91 
Q 1594 -91 976 548 
Q 359 1188 359 2328 
Q 359 3472 976 4111 
Q 1594 4750 2688 4750 
Q 3144 4750 3555 4637 
Q 3966 4525 4313 4306 
L 4313 3634 
Q 3963 3931 3569 4081 
Q 3175 4231 2741 4231 
Q 1884 4231 1454 3753 
Q 1025 3275 1025 2328 
Q 1025 1384 1454 906 
Q 1884 428 2741 428 
Q 3075 428 3337 486 
Q 3600 544 3809 666 
z
" transform="scale(0.015625)"/>
       <path id="DejaVuSans-65" d="M 3597 1894 
L 3597 1613 
L 953 1613 
Q 991 1019 1311 708 
Q 1631 397 2203 397 
Q 2534 397 2845 478 
Q 3156 559 3463 722 
L 3463 178 
Q 3153 47 2828 -22 
Q 2503 -91 2169 -91 
Q 1331 -91 842 396 
Q 353 884 353 1716 
Q 353 2575 817 3079 
Q 1281 3584 2069 3584 
Q 2775 3584 3186 3129 
Q 3597 2675 3597 1894 
z
M 3022 2063 
Q 3016 2534 2758 2815 
Q 2500 3097 2075 3097 
Q 1594 3097 1305 2825 
Q 1016 2553 972 2059 
L 3022 2063 
z
" transform="scale(0.015625)"/>
       <path id="DejaVuSans-6e" d="M 3513 2113 
L 3513 0 
L 2938 0 
L 2938 2094 
Q 2938 2591 2744 2837 
Q 2550 3084 2163 3084 
Q 1697 3084 1428 2787 
Q 1159 2491 1159 1978 
L 1159 0 
L 581 0 
L 581 3500 
L 1159 3500 
L 1159 2956 
Q 1366 3272 1645 3428 
Q 1925 3584 2291 3584 
Q 2894 3584 3203 3211 
Q 3513 2838 3513 2113 
z
" transform="scale(0.015625)"/>
       <path id="DejaVuSans-72" d="M 2631 2963 
Q 2534 3019 2420 3045 
Q 2306 3072 2169 3072 
Q 1681 3072 1420 2755 
Q 1159 2438 1159 1844 
L 1159 0 
L 581 0 
L 581 3500 
L 1159 3500 
L 1159 2956 
Q 1341 3275 1631 3429 
Q 1922 3584 2338 3584 
Q 2397 3584 2469 3576 
Q 2541 3569 2628 3553 
L 2631 2963 
z
" transform="scale(0.015625)"/>
       <path id="DejaVuSans-61" d="M 2194 1759 
Q 1497 1759 1228 1600 
Q 959 1441 959 1056 
Q 959 750 1161 570 
Q 1363 391 1709 391 
Q 2188 391 2477 730 
Q 2766 1069 2766 1631 
L 2766 1759 
L 2194 1759 
z
M 3341 1997 
L 3341 0 
L 2766 0 
L 2766 531 
Q 2569 213 2275 61 
Q 1981 -91 1556 -91 
Q 1019 -91 701 211 
Q 384 513 384 1019 
Q 384 1609 779 1909 
Q 1175 2209 1959 2209 
L 2766 2209 
L 2766 2266 
Q 2766 2663 2505 2880 
Q 2244 3097 1772 3097 
Q 1472 3097 1187 3025 
Q 903 2953 641 2809 
L 641 3341 
Q 956 3463 1253 3523 
Q 1550 3584 1831 3584 
Q 2591 3584 2966 3190 
Q 3341 2797 3341 1997 
z
" transform="scale(0.015625)"/>
       <path id="DejaVuSans-74" d="M 1172 4494 
L 1172 3500 
L 2356 3500 
L 2356 3053 
L 1172 3053 
L 1172 1153 
Q 1172 725 1289 603 
Q 1406 481 1766 481 
L 2356 481 
L 2356 0 
L 1766 0 
Q 1100 0 847 248 
Q 594 497 594 1153 
L 594 3053 
L 172 3053 
L 172 3500 
L 594 3500 
L 594 4494 
L 1172 4494 
z
" transform="scale(0.015625)"/>
       <path id="DejaVuSans-20" transform="scale(0.015625)"/>
       <path id="DejaVuSans-6c" d="M 603 4863 
L 1178 4863 
L 1178 0 
L 603 0 
L 603 4863 
z
" transform="scale(0.015625)"/>
      </defs>
      <use xlink:href="#DejaVuSans-47"/>
      <use xlink:href="#DejaVuSans-65" x="77.490234"/>
      <use xlink:href="#DejaVuSans-6e" x="139.013672"/>
      <use xlink:href="#DejaVuSans-65" x="202.392578"/>
      <use xlink:href="#DejaVuSans-72" x="263.916016"/>
      <use xlink:href="#DejaVuSans-61" x="305.029297"/>
      <use xlink:href="#DejaVuSans-74" x="366.308594"/>
      <use xlink:href="#DejaVuSans-6f" x="405.517578"/>
      <use xlink:href="#DejaVuSans-72" x="466.699219"/>
      <use xlink:href="#DejaVuSans-20" x="507.8125"/>
      <use xlink:href="#DejaVuSans-6c" x="539.599609"/>
      <use xlink:href="#DejaVuSans-6f" x="567.382812"/>
      <use xlink:href="#DejaVuSans-73" x="628.564453"/>
      <use xlink:href="#DejaVuSans-73" x="680.664062"/>
     </g>
    </g>
    <g id="line2d_25">
     <path d="M 245.124687 278.326188 
L 255.124687 278.326188 
L 265.124687 278.326188 
" style="fill: none; stroke: #dc143c; stroke-width: 2; stroke-linecap: square"/>
    </g>
    <g id="text_14">
     <!-- Average discriminator loss -->
     <g transform="translate(273.124687 281.826188) scale(0.1 -0.1)">
      <defs>
       <path id="DejaVuSans-41" d="M 2188 4044 
L 1331 1722 
L 3047 1722 
L 2188 4044 
z
M 1831 4666 
L 2547 4666 
L 4325 0 
L 3669 0 
L 3244 1197 
L 1141 1197 
L 716 0 
L 50 0 
L 1831 4666 
z
" transform="scale(0.015625)"/>
       <path id="DejaVuSans-76" d="M 191 3500 
L 800 3500 
L 1894 563 
L 2988 3500 
L 3597 3500 
L 2284 0 
L 1503 0 
L 191 3500 
z
" transform="scale(0.015625)"/>
       <path id="DejaVuSans-67" d="M 2906 1791 
Q 2906 2416 2648 2759 
Q 2391 3103 1925 3103 
Q 1463 3103 1205 2759 
Q 947 2416 947 1791 
Q 947 1169 1205 825 
Q 1463 481 1925 481 
Q 2391 481 2648 825 
Q 2906 1169 2906 1791 
z
M 3481 434 
Q 3481 -459 3084 -895 
Q 2688 -1331 1869 -1331 
Q 1566 -1331 1297 -1286 
Q 1028 -1241 775 -1147 
L 775 -588 
Q 1028 -725 1275 -790 
Q 1522 -856 1778 -856 
Q 2344 -856 2625 -561 
Q 2906 -266 2906 331 
L 2906 616 
Q 2728 306 2450 153 
Q 2172 0 1784 0 
Q 1141 0 747 490 
Q 353 981 353 1791 
Q 353 2603 747 3093 
Q 1141 3584 1784 3584 
Q 2172 3584 2450 3431 
Q 2728 3278 2906 2969 
L 2906 3500 
L 3481 3500 
L 3481 434 
z
" transform="scale(0.015625)"/>
       <path id="DejaVuSans-64" d="M 2906 2969 
L 2906 4863 
L 3481 4863 
L 3481 0 
L 2906 0 
L 2906 525 
Q 2725 213 2448 61 
Q 2172 -91 1784 -91 
Q 1150 -91 751 415 
Q 353 922 353 1747 
Q 353 2572 751 3078 
Q 1150 3584 1784 3584 
Q 2172 3584 2448 3432 
Q 2725 3281 2906 2969 
z
M 947 1747 
Q 947 1113 1208 752 
Q 1469 391 1925 391 
Q 2381 391 2643 752 
Q 2906 1113 2906 1747 
Q 2906 2381 2643 2742 
Q 2381 3103 1925 3103 
Q 1469 3103 1208 2742 
Q 947 2381 947 1747 
z
" transform="scale(0.015625)"/>
       <path id="DejaVuSans-69" d="M 603 3500 
L 1178 3500 
L 1178 0 
L 603 0 
L 603 3500 
z
M 603 4863 
L 1178 4863 
L 1178 4134 
L 603 4134 
L 603 4863 
z
" transform="scale(0.015625)"/>
       <path id="DejaVuSans-6d" d="M 3328 2828 
Q 3544 3216 3844 3400 
Q 4144 3584 4550 3584 
Q 5097 3584 5394 3201 
Q 5691 2819 5691 2113 
L 5691 0 
L 5113 0 
L 5113 2094 
Q 5113 2597 4934 2840 
Q 4756 3084 4391 3084 
Q 3944 3084 3684 2787 
Q 3425 2491 3425 1978 
L 3425 0 
L 2847 0 
L 2847 2094 
Q 2847 2600 2669 2842 
Q 2491 3084 2119 3084 
Q 1678 3084 1418 2786 
Q 1159 2488 1159 1978 
L 1159 0 
L 581 0 
L 581 3500 
L 1159 3500 
L 1159 2956 
Q 1356 3278 1631 3431 
Q 1906 3584 2284 3584 
Q 2666 3584 2933 3390 
Q 3200 3197 3328 2828 
z
" transform="scale(0.015625)"/>
      </defs>
      <use xlink:href="#DejaVuSans-41"/>
      <use xlink:href="#DejaVuSans-76" x="62.533203"/>
      <use xlink:href="#DejaVuSans-65" x="121.712891"/>
      <use xlink:href="#DejaVuSans-72" x="183.236328"/>
      <use xlink:href="#DejaVuSans-61" x="224.349609"/>
      <use xlink:href="#DejaVuSans-67" x="285.628906"/>
      <use xlink:href="#DejaVuSans-65" x="349.105469"/>
      <use xlink:href="#DejaVuSans-20" x="410.628906"/>
      <use xlink:href="#DejaVuSans-64" x="442.416016"/>
      <use xlink:href="#DejaVuSans-69" x="505.892578"/>
      <use xlink:href="#DejaVuSans-73" x="533.675781"/>
      <use xlink:href="#DejaVuSans-63" x="585.775391"/>
      <use xlink:href="#DejaVuSans-72" x="640.755859"/>
      <use xlink:href="#DejaVuSans-69" x="681.869141"/>
      <use xlink:href="#DejaVuSans-6d" x="709.652344"/>
      <use xlink:href="#DejaVuSans-69" x="807.064453"/>
      <use xlink:href="#DejaVuSans-6e" x="834.847656"/>
      <use xlink:href="#DejaVuSans-61" x="898.226562"/>
      <use xlink:href="#DejaVuSans-74" x="959.505859"/>
      <use xlink:href="#DejaVuSans-6f" x="998.714844"/>
      <use xlink:href="#DejaVuSans-72" x="1059.896484"/>
      <use xlink:href="#DejaVuSans-20" x="1101.009766"/>
      <use xlink:href="#DejaVuSans-6c" x="1132.796875"/>
      <use xlink:href="#DejaVuSans-6f" x="1160.580078"/>
      <use xlink:href="#DejaVuSans-73" x="1221.761719"/>
      <use xlink:href="#DejaVuSans-73" x="1273.861328"/>
     </g>
    </g>
    <g id="line2d_26">
     <path d="M 245.124687 293.004312 
L 255.124687 293.004312 
L 265.124687 293.004312 
" style="fill: none; stroke: #ffff00; stroke-width: 3; stroke-linecap: square"/>
    </g>
    <g id="text_15">
     <!-- ROC AUC -->
     <g transform="translate(273.124687 296.504312) scale(0.1 -0.1)">
      <defs>
       <path id="DejaVuSans-52" d="M 2841 2188 
Q 3044 2119 3236 1894 
Q 3428 1669 3622 1275 
L 4263 0 
L 3584 0 
L 2988 1197 
Q 2756 1666 2539 1819 
Q 2322 1972 1947 1972 
L 1259 1972 
L 1259 0 
L 628 0 
L 628 4666 
L 2053 4666 
Q 2853 4666 3247 4331 
Q 3641 3997 3641 3322 
Q 3641 2881 3436 2590 
Q 3231 2300 2841 2188 
z
M 1259 4147 
L 1259 2491 
L 2053 2491 
Q 2509 2491 2742 2702 
Q 2975 2913 2975 3322 
Q 2975 3731 2742 3939 
Q 2509 4147 2053 4147 
L 1259 4147 
z
" transform="scale(0.015625)"/>
       <path id="DejaVuSans-4f" d="M 2522 4238 
Q 1834 4238 1429 3725 
Q 1025 3213 1025 2328 
Q 1025 1447 1429 934 
Q 1834 422 2522 422 
Q 3209 422 3611 934 
Q 4013 1447 4013 2328 
Q 4013 3213 3611 3725 
Q 3209 4238 2522 4238 
z
M 2522 4750 
Q 3503 4750 4090 4092 
Q 4678 3434 4678 2328 
Q 4678 1225 4090 567 
Q 3503 -91 2522 -91 
Q 1538 -91 948 565 
Q 359 1222 359 2328 
Q 359 3434 948 4092 
Q 1538 4750 2522 4750 
z
" transform="scale(0.015625)"/>
       <path id="DejaVuSans-43" d="M 4122 4306 
L 4122 3641 
Q 3803 3938 3442 4084 
Q 3081 4231 2675 4231 
Q 1875 4231 1450 3742 
Q 1025 3253 1025 2328 
Q 1025 1406 1450 917 
Q 1875 428 2675 428 
Q 3081 428 3442 575 
Q 3803 722 4122 1019 
L 4122 359 
Q 3791 134 3420 21 
Q 3050 -91 2638 -91 
Q 1578 -91 968 557 
Q 359 1206 359 2328 
Q 359 3453 968 4101 
Q 1578 4750 2638 4750 
Q 3056 4750 3426 4639 
Q 3797 4528 4122 4306 
z
" transform="scale(0.015625)"/>
       <path id="DejaVuSans-55" d="M 556 4666 
L 1191 4666 
L 1191 1831 
Q 1191 1081 1462 751 
Q 1734 422 2344 422 
Q 2950 422 3222 751 
Q 3494 1081 3494 1831 
L 3494 4666 
L 4128 4666 
L 4128 1753 
Q 4128 841 3676 375 
Q 3225 -91 2344 -91 
Q 1459 -91 1007 375 
Q 556 841 556 1753 
L 556 4666 
z
" transform="scale(0.015625)"/>
      </defs>
      <use xlink:href="#DejaVuSans-52"/>
      <use xlink:href="#DejaVuSans-4f" x="69.482422"/>
      <use xlink:href="#DejaVuSans-43" x="148.193359"/>
      <use xlink:href="#DejaVuSans-20" x="218.017578"/>
      <use xlink:href="#DejaVuSans-41" x="249.804688"/>
      <use xlink:href="#DejaVuSans-55" x="318.212891"/>
      <use xlink:href="#DejaVuSans-43" x="391.40625"/>
     </g>
    </g>
   </g>
  </g>
 </g>
 <defs>
  <clipPath id="pa569be6379">
   <rect x="57.6" y="41.472" width="357.12" height="266.112"/>
  </clipPath>
 </defs>
</svg>
