<?xml version="1.0" encoding="utf-8" standalone="no"?>
<!DOCTYPE svg PUBLIC "-//W3C//DTD SVG 1.1//EN"
  "http://www.w3.org/Graphics/SVG/1.1/DTD/svg11.dtd">
<svg xmlns:xlink="http://www.w3.org/1999/xlink" width="460.8pt" height="345.6pt" viewBox="0 0 460.8 345.6" xmlns="http://www.w3.org/2000/svg" version="1.1">
 <metadata>
  <rdf:RDF xmlns:dc="http://purl.org/dc/elements/1.1/" xmlns:cc="http://creativecommons.org/ns#" xmlns:rdf="http://www.w3.org/1999/02/22-rdf-syntax-ns#">
   <cc:Work>
    <dc:type rdf:resource="http://purl.org/dc/dcmitype/StillImage"/>
    <dc:date>2023-07-12T09:21:38.545199</dc:date>
    <dc:format>image/svg+xml</dc:format>
    <dc:creator>
     <cc:Agent>
      <dc:title>Matplotlib v3.7.1, https://matplotlib.org/</dc:title>
     </cc:Agent>
    </dc:creator>
   </cc:Work>
  </rdf:RDF>
 </metadata>
 <defs>
  <style type="text/css">*{stroke-linejoin: round; stroke-linecap: butt}</style>
 </defs>
 <g id="figure_1">
  <g id="patch_1">
   <path d="M 0 345.6 
L 460.8 345.6 
L 460.8 0 
L 0 0 
z
" style="fill: #ffffff"/>
  </g>
  <g id="axes_1">
   <g id="patch_2">
    <path d="M 57.6 307.584 
L 414.72 307.584 
L 414.72 41.472 
L 57.6 41.472 
z
" style="fill: #e5e5e5"/>
   </g>
   <g id="matplotlib.axis_1">
    <g id="xtick_1">
     <g id="line2d_1">
      <path d="M 73.531843 307.584 
L 73.531843 41.472 
" clip-path="url(#pe0c924d69d)" style="fill: none; stroke: #ffffff; stroke-width: 0.8; stroke-linecap: square"/>
     </g>
     <g id="line2d_2">
      <defs>
       <path id="me54fe91798" d="M 0 0 
L 0 3.5 
" style="stroke: #555555; stroke-width: 0.8"/>
      </defs>
      <g>
       <use xlink:href="#me54fe91798" x="73.531843" y="307.584" style="fill: #555555; stroke: #555555; stroke-width: 0.8"/>
      </g>
     </g>
     <g id="text_1">
      <!-- 0 -->
      <g style="fill: #555555" transform="translate(70.350593 322.182437) scale(0.1 -0.1)">
       <defs>
        <path id="DejaVuSans-30" d="M 2034 4250 
Q 1547 4250 1301 3770 
Q 1056 3291 1056 2328 
Q 1056 1369 1301 889 
Q 1547 409 2034 409 
Q 2525 409 2770 889 
Q 3016 1369 3016 2328 
Q 3016 3291 2770 3770 
Q 2525 4250 2034 4250 
z
M 2034 4750 
Q 2819 4750 3233 4129 
Q 3647 3509 3647 2328 
Q 3647 1150 3233 529 
Q 2819 -91 2034 -91 
Q 1250 -91 836 529 
Q 422 1150 422 2328 
Q 422 3509 836 4129 
Q 1250 4750 2034 4750 
z
" transform="scale(0.015625)"/>
       </defs>
       <use xlink:href="#DejaVuSans-30"/>
      </g>
     </g>
    </g>
    <g id="xtick_2">
     <g id="line2d_3">
      <path d="M 133.708774 307.584 
L 133.708774 41.472 
" clip-path="url(#pe0c924d69d)" style="fill: none; stroke: #ffffff; stroke-width: 0.8; stroke-linecap: square"/>
     </g>
     <g id="line2d_4">
      <g>
       <use xlink:href="#me54fe91798" x="133.708774" y="307.584" style="fill: #555555; stroke: #555555; stroke-width: 0.8"/>
      </g>
     </g>
     <g id="text_2">
      <!-- 200 -->
      <g style="fill: #555555" transform="translate(124.165024 322.182437) scale(0.1 -0.1)">
       <defs>
        <path id="DejaVuSans-32" d="M 1228 531 
L 3431 531 
L 3431 0 
L 469 0 
L 469 531 
Q 828 903 1448 1529 
Q 2069 2156 2228 2338 
Q 2531 2678 2651 2914 
Q 2772 3150 2772 3378 
Q 2772 3750 2511 3984 
Q 2250 4219 1831 4219 
Q 1534 4219 1204 4116 
Q 875 4013 500 3803 
L 500 4441 
Q 881 4594 1212 4672 
Q 1544 4750 1819 4750 
Q 2544 4750 2975 4387 
Q 3406 4025 3406 3419 
Q 3406 3131 3298 2873 
Q 3191 2616 2906 2266 
Q 2828 2175 2409 1742 
Q 1991 1309 1228 531 
z
" transform="scale(0.015625)"/>
       </defs>
       <use xlink:href="#DejaVuSans-32"/>
       <use xlink:href="#DejaVuSans-30" x="63.623047"/>
       <use xlink:href="#DejaVuSans-30" x="127.246094"/>
      </g>
     </g>
    </g>
    <g id="xtick_3">
     <g id="line2d_5">
      <path d="M 193.885706 307.584 
L 193.885706 41.472 
" clip-path="url(#pe0c924d69d)" style="fill: none; stroke: #ffffff; stroke-width: 0.8; stroke-linecap: square"/>
     </g>
     <g id="line2d_6">
      <g>
       <use xlink:href="#me54fe91798" x="193.885706" y="307.584" style="fill: #555555; stroke: #555555; stroke-width: 0.8"/>
      </g>
     </g>
     <g id="text_3">
      <!-- 400 -->
      <g style="fill: #555555" transform="translate(184.341956 322.182437) scale(0.1 -0.1)">
       <defs>
        <path id="DejaVuSans-34" d="M 2419 4116 
L 825 1625 
L 2419 1625 
L 2419 4116 
z
M 2253 4666 
L 3047 4666 
L 3047 1625 
L 3713 1625 
L 3713 1100 
L 3047 1100 
L 3047 0 
L 2419 0 
L 2419 1100 
L 313 1100 
L 313 1709 
L 2253 4666 
z
" transform="scale(0.015625)"/>
       </defs>
       <use xlink:href="#DejaVuSans-34"/>
       <use xlink:href="#DejaVuSans-30" x="63.623047"/>
       <use xlink:href="#DejaVuSans-30" x="127.246094"/>
      </g>
     </g>
    </g>
    <g id="xtick_4">
     <g id="line2d_7">
      <path d="M 254.062637 307.584 
L 254.062637 41.472 
" clip-path="url(#pe0c924d69d)" style="fill: none; stroke: #ffffff; stroke-width: 0.8; stroke-linecap: square"/>
     </g>
     <g id="line2d_8">
      <g>
       <use xlink:href="#me54fe91798" x="254.062637" y="307.584" style="fill: #555555; stroke: #555555; stroke-width: 0.8"/>
      </g>
     </g>
     <g id="text_4">
      <!-- 600 -->
      <g style="fill: #555555" transform="translate(244.518887 322.182437) scale(0.1 -0.1)">
       <defs>
        <path id="DejaVuSans-36" d="M 2113 2584 
Q 1688 2584 1439 2293 
Q 1191 2003 1191 1497 
Q 1191 994 1439 701 
Q 1688 409 2113 409 
Q 2538 409 2786 701 
Q 3034 994 3034 1497 
Q 3034 2003 2786 2293 
Q 2538 2584 2113 2584 
z
M 3366 4563 
L 3366 3988 
Q 3128 4100 2886 4159 
Q 2644 4219 2406 4219 
Q 1781 4219 1451 3797 
Q 1122 3375 1075 2522 
Q 1259 2794 1537 2939 
Q 1816 3084 2150 3084 
Q 2853 3084 3261 2657 
Q 3669 2231 3669 1497 
Q 3669 778 3244 343 
Q 2819 -91 2113 -91 
Q 1303 -91 875 529 
Q 447 1150 447 2328 
Q 447 3434 972 4092 
Q 1497 4750 2381 4750 
Q 2619 4750 2861 4703 
Q 3103 4656 3366 4563 
z
" transform="scale(0.015625)"/>
       </defs>
       <use xlink:href="#DejaVuSans-36"/>
       <use xlink:href="#DejaVuSans-30" x="63.623047"/>
       <use xlink:href="#DejaVuSans-30" x="127.246094"/>
      </g>
     </g>
    </g>
    <g id="xtick_5">
     <g id="line2d_9">
      <path d="M 314.239569 307.584 
L 314.239569 41.472 
" clip-path="url(#pe0c924d69d)" style="fill: none; stroke: #ffffff; stroke-width: 0.8; stroke-linecap: square"/>
     </g>
     <g id="line2d_10">
      <g>
       <use xlink:href="#me54fe91798" x="314.239569" y="307.584" style="fill: #555555; stroke: #555555; stroke-width: 0.8"/>
      </g>
     </g>
     <g id="text_5">
      <!-- 800 -->
      <g style="fill: #555555" transform="translate(304.695819 322.182437) scale(0.1 -0.1)">
       <defs>
        <path id="DejaVuSans-38" d="M 2034 2216 
Q 1584 2216 1326 1975 
Q 1069 1734 1069 1313 
Q 1069 891 1326 650 
Q 1584 409 2034 409 
Q 2484 409 2743 651 
Q 3003 894 3003 1313 
Q 3003 1734 2745 1975 
Q 2488 2216 2034 2216 
z
M 1403 2484 
Q 997 2584 770 2862 
Q 544 3141 544 3541 
Q 544 4100 942 4425 
Q 1341 4750 2034 4750 
Q 2731 4750 3128 4425 
Q 3525 4100 3525 3541 
Q 3525 3141 3298 2862 
Q 3072 2584 2669 2484 
Q 3125 2378 3379 2068 
Q 3634 1759 3634 1313 
Q 3634 634 3220 271 
Q 2806 -91 2034 -91 
Q 1263 -91 848 271 
Q 434 634 434 1313 
Q 434 1759 690 2068 
Q 947 2378 1403 2484 
z
M 1172 3481 
Q 1172 3119 1398 2916 
Q 1625 2713 2034 2713 
Q 2441 2713 2670 2916 
Q 2900 3119 2900 3481 
Q 2900 3844 2670 4047 
Q 2441 4250 2034 4250 
Q 1625 4250 1398 4047 
Q 1172 3844 1172 3481 
z
" transform="scale(0.015625)"/>
       </defs>
       <use xlink:href="#DejaVuSans-38"/>
       <use xlink:href="#DejaVuSans-30" x="63.623047"/>
       <use xlink:href="#DejaVuSans-30" x="127.246094"/>
      </g>
     </g>
    </g>
    <g id="xtick_6">
     <g id="line2d_11">
      <path d="M 374.4165 307.584 
L 374.4165 41.472 
" clip-path="url(#pe0c924d69d)" style="fill: none; stroke: #ffffff; stroke-width: 0.8; stroke-linecap: square"/>
     </g>
     <g id="line2d_12">
      <g>
       <use xlink:href="#me54fe91798" x="374.4165" y="307.584" style="fill: #555555; stroke: #555555; stroke-width: 0.8"/>
      </g>
     </g>
     <g id="text_6">
      <!-- 1000 -->
      <g style="fill: #555555" transform="translate(361.6915 322.182437) scale(0.1 -0.1)">
       <defs>
        <path id="DejaVuSans-31" d="M 794 531 
L 1825 531 
L 1825 4091 
L 703 3866 
L 703 4441 
L 1819 4666 
L 2450 4666 
L 2450 531 
L 3481 531 
L 3481 0 
L 794 0 
L 794 531 
z
" transform="scale(0.015625)"/>
       </defs>
       <use xlink:href="#DejaVuSans-31"/>
       <use xlink:href="#DejaVuSans-30" x="63.623047"/>
       <use xlink:href="#DejaVuSans-30" x="127.246094"/>
       <use xlink:href="#DejaVuSans-30" x="190.869141"/>
      </g>
     </g>
    </g>
    <g id="text_7">
     <!-- Epoch -->
     <g style="fill: #555555" transform="translate(217.786875 337.38025) scale(0.12 -0.12)">
      <defs>
       <path id="DejaVuSans-45" d="M 628 4666 
L 3578 4666 
L 3578 4134 
L 1259 4134 
L 1259 2753 
L 3481 2753 
L 3481 2222 
L 1259 2222 
L 1259 531 
L 3634 531 
L 3634 0 
L 628 0 
L 628 4666 
z
" transform="scale(0.015625)"/>
       <path id="DejaVuSans-70" d="M 1159 525 
L 1159 -1331 
L 581 -1331 
L 581 3500 
L 1159 3500 
L 1159 2969 
Q 1341 3281 1617 3432 
Q 1894 3584 2278 3584 
Q 2916 3584 3314 3078 
Q 3713 2572 3713 1747 
Q 3713 922 3314 415 
Q 2916 -91 2278 -91 
Q 1894 -91 1617 61 
Q 1341 213 1159 525 
z
M 3116 1747 
Q 3116 2381 2855 2742 
Q 2594 3103 2138 3103 
Q 1681 3103 1420 2742 
Q 1159 2381 1159 1747 
Q 1159 1113 1420 752 
Q 1681 391 2138 391 
Q 2594 391 2855 752 
Q 3116 1113 3116 1747 
z
" transform="scale(0.015625)"/>
       <path id="DejaVuSans-6f" d="M 1959 3097 
Q 1497 3097 1228 2736 
Q 959 2375 959 1747 
Q 959 1119 1226 758 
Q 1494 397 1959 397 
Q 2419 397 2687 759 
Q 2956 1122 2956 1747 
Q 2956 2369 2687 2733 
Q 2419 3097 1959 3097 
z
M 1959 3584 
Q 2709 3584 3137 3096 
Q 3566 2609 3566 1747 
Q 3566 888 3137 398 
Q 2709 -91 1959 -91 
Q 1206 -91 779 398 
Q 353 888 353 1747 
Q 353 2609 779 3096 
Q 1206 3584 1959 3584 
z
" transform="scale(0.015625)"/>
       <path id="DejaVuSans-63" d="M 3122 3366 
L 3122 2828 
Q 2878 2963 2633 3030 
Q 2388 3097 2138 3097 
Q 1578 3097 1268 2742 
Q 959 2388 959 1747 
Q 959 1106 1268 751 
Q 1578 397 2138 397 
Q 2388 397 2633 464 
Q 2878 531 3122 666 
L 3122 134 
Q 2881 22 2623 -34 
Q 2366 -91 2075 -91 
Q 1284 -91 818 406 
Q 353 903 353 1747 
Q 353 2603 823 3093 
Q 1294 3584 2113 3584 
Q 2378 3584 2631 3529 
Q 2884 3475 3122 3366 
z
" transform="scale(0.015625)"/>
       <path id="DejaVuSans-68" d="M 3513 2113 
L 3513 0 
L 2938 0 
L 2938 2094 
Q 2938 2591 2744 2837 
Q 2550 3084 2163 3084 
Q 1697 3084 1428 2787 
Q 1159 2491 1159 1978 
L 1159 0 
L 581 0 
L 581 4863 
L 1159 4863 
L 1159 2956 
Q 1366 3272 1645 3428 
Q 1925 3584 2291 3584 
Q 2894 3584 3203 3211 
Q 3513 2838 3513 2113 
z
" transform="scale(0.015625)"/>
      </defs>
      <use xlink:href="#DejaVuSans-45"/>
      <use xlink:href="#DejaVuSans-70" x="63.183594"/>
      <use xlink:href="#DejaVuSans-6f" x="126.660156"/>
      <use xlink:href="#DejaVuSans-63" x="187.841797"/>
      <use xlink:href="#DejaVuSans-68" x="242.822266"/>
     </g>
    </g>
   </g>
   <g id="matplotlib.axis_2">
    <g id="ytick_1">
     <g id="line2d_13">
      <path d="M 57.6 278.162405 
L 414.72 278.162405 
" clip-path="url(#pe0c924d69d)" style="fill: none; stroke: #ffffff; stroke-width: 0.8; stroke-linecap: square"/>
     </g>
     <g id="line2d_14">
      <defs>
       <path id="m2bca133464" d="M 0 0 
L -3.5 0 
" style="stroke: #555555; stroke-width: 0.8"/>
      </defs>
      <g>
       <use xlink:href="#m2bca133464" x="57.6" y="278.162405" style="fill: #555555; stroke: #555555; stroke-width: 0.8"/>
      </g>
     </g>
     <g id="text_8">
      <!-- 0.4 -->
      <g style="fill: #555555" transform="translate(34.696875 281.961624) scale(0.1 -0.1)">
       <defs>
        <path id="DejaVuSans-2e" d="M 684 794 
L 1344 794 
L 1344 0 
L 684 0 
L 684 794 
z
" transform="scale(0.015625)"/>
       </defs>
       <use xlink:href="#DejaVuSans-30"/>
       <use xlink:href="#DejaVuSans-2e" x="63.623047"/>
       <use xlink:href="#DejaVuSans-34" x="95.410156"/>
      </g>
     </g>
    </g>
    <g id="ytick_2">
     <g id="line2d_15">
      <path d="M 57.6 237.25207 
L 414.72 237.25207 
" clip-path="url(#pe0c924d69d)" style="fill: none; stroke: #ffffff; stroke-width: 0.8; stroke-linecap: square"/>
     </g>
     <g id="line2d_16">
      <g>
       <use xlink:href="#m2bca133464" x="57.6" y="237.25207" style="fill: #555555; stroke: #555555; stroke-width: 0.8"/>
      </g>
     </g>
     <g id="text_9">
      <!-- 0.6 -->
      <g style="fill: #555555" transform="translate(34.696875 241.051289) scale(0.1 -0.1)">
       <use xlink:href="#DejaVuSans-30"/>
       <use xlink:href="#DejaVuSans-2e" x="63.623047"/>
       <use xlink:href="#DejaVuSans-36" x="95.410156"/>
      </g>
     </g>
    </g>
    <g id="ytick_3">
     <g id="line2d_17">
      <path d="M 57.6 196.341735 
L 414.72 196.341735 
" clip-path="url(#pe0c924d69d)" style="fill: none; stroke: #ffffff; stroke-width: 0.8; stroke-linecap: square"/>
     </g>
     <g id="line2d_18">
      <g>
       <use xlink:href="#m2bca133464" x="57.6" y="196.341735" style="fill: #555555; stroke: #555555; stroke-width: 0.8"/>
      </g>
     </g>
     <g id="text_10">
      <!-- 0.8 -->
      <g style="fill: #555555" transform="translate(34.696875 200.140953) scale(0.1 -0.1)">
       <use xlink:href="#DejaVuSans-30"/>
       <use xlink:href="#DejaVuSans-2e" x="63.623047"/>
       <use xlink:href="#DejaVuSans-38" x="95.410156"/>
      </g>
     </g>
    </g>
    <g id="ytick_4">
     <g id="line2d_19">
      <path d="M 57.6 155.431399 
L 414.72 155.431399 
" clip-path="url(#pe0c924d69d)" style="fill: none; stroke: #ffffff; stroke-width: 0.8; stroke-linecap: square"/>
     </g>
     <g id="line2d_20">
      <g>
       <use xlink:href="#m2bca133464" x="57.6" y="155.431399" style="fill: #555555; stroke: #555555; stroke-width: 0.8"/>
      </g>
     </g>
     <g id="text_11">
      <!-- 1.0 -->
      <g style="fill: #555555" transform="translate(34.696875 159.230618) scale(0.1 -0.1)">
       <use xlink:href="#DejaVuSans-31"/>
       <use xlink:href="#DejaVuSans-2e" x="63.623047"/>
       <use xlink:href="#DejaVuSans-30" x="95.410156"/>
      </g>
     </g>
    </g>
    <g id="ytick_5">
     <g id="line2d_21">
      <path d="M 57.6 114.521064 
L 414.72 114.521064 
" clip-path="url(#pe0c924d69d)" style="fill: none; stroke: #ffffff; stroke-width: 0.8; stroke-linecap: square"/>
     </g>
     <g id="line2d_22">
      <g>
       <use xlink:href="#m2bca133464" x="57.6" y="114.521064" style="fill: #555555; stroke: #555555; stroke-width: 0.8"/>
      </g>
     </g>
     <g id="text_12">
      <!-- 1.2 -->
      <g style="fill: #555555" transform="translate(34.696875 118.320283) scale(0.1 -0.1)">
       <use xlink:href="#DejaVuSans-31"/>
       <use xlink:href="#DejaVuSans-2e" x="63.623047"/>
       <use xlink:href="#DejaVuSans-32" x="95.410156"/>
      </g>
     </g>
    </g>
    <g id="ytick_6">
     <g id="line2d_23">
      <path d="M 57.6 73.610729 
L 414.72 73.610729 
" clip-path="url(#pe0c924d69d)" style="fill: none; stroke: #ffffff; stroke-width: 0.8; stroke-linecap: square"/>
     </g>
     <g id="line2d_24">
      <g>
       <use xlink:href="#m2bca133464" x="57.6" y="73.610729" style="fill: #555555; stroke: #555555; stroke-width: 0.8"/>
      </g>
     </g>
     <g id="text_13">
      <!-- 1.4 -->
      <g style="fill: #555555" transform="translate(34.696875 77.409948) scale(0.1 -0.1)">
       <use xlink:href="#DejaVuSans-31"/>
       <use xlink:href="#DejaVuSans-2e" x="63.623047"/>
       <use xlink:href="#DejaVuSans-34" x="95.410156"/>
      </g>
     </g>
    </g>
    <g id="text_14">
     <!-- Loss -->
     <g style="fill: #555555" transform="translate(28.20125 187.688625) rotate(-90) scale(0.12 -0.12)">
      <defs>
       <path id="DejaVuSans-4c" d="M 628 4666 
L 1259 4666 
L 1259 531 
L 3531 531 
L 3531 0 
L 628 0 
L 628 4666 
z
" transform="scale(0.015625)"/>
       <path id="DejaVuSans-73" d="M 2834 3397 
L 2834 2853 
Q 2591 2978 2328 3040 
Q 2066 3103 1784 3103 
Q 1356 3103 1142 2972 
Q 928 2841 928 2578 
Q 928 2378 1081 2264 
Q 1234 2150 1697 2047 
L 1894 2003 
Q 2506 1872 2764 1633 
Q 3022 1394 3022 966 
Q 3022 478 2636 193 
Q 2250 -91 1575 -91 
Q 1294 -91 989 -36 
Q 684 19 347 128 
L 347 722 
Q 666 556 975 473 
Q 1284 391 1588 391 
Q 1994 391 2212 530 
Q 2431 669 2431 922 
Q 2431 1156 2273 1281 
Q 2116 1406 1581 1522 
L 1381 1569 
Q 847 1681 609 1914 
Q 372 2147 372 2553 
Q 372 3047 722 3315 
Q 1072 3584 1716 3584 
Q 2034 3584 2315 3537 
Q 2597 3491 2834 3397 
z
" transform="scale(0.015625)"/>
      </defs>
      <use xlink:href="#DejaVuSans-4c"/>
      <use xlink:href="#DejaVuSans-6f" x="53.962891"/>
      <use xlink:href="#DejaVuSans-73" x="115.144531"/>
      <use xlink:href="#DejaVuSans-73" x="167.244141"/>
     </g>
    </g>
   </g>
   <g id="line2d_25">
    <path d="M 73.832727 213.544396 
L 76.540689 188.860714 
L 78.345997 175.188701 
L 79.549536 166.35387 
L 81.354844 155.352369 
L 83.160152 145.061786 
L 83.461036 144.403527 
L 84.062806 141.245862 
L 84.96546 136.942053 
L 85.266344 135.308611 
L 85.868114 133.541031 
L 86.168998 132.68399 
L 86.469883 131.086637 
L 86.770768 130.409822 
L 87.071652 128.738194 
L 87.372537 127.97418 
L 87.673422 127.62519 
L 88.87696 124.251576 
L 89.177845 122.938472 
L 89.779614 121.619785 
L 90.080499 121.329391 
L 90.381383 121.359944 
L 90.682268 119.80168 
L 90.983153 120.383249 
L 91.284037 118.750783 
L 91.584922 118.569631 
L 91.885807 118.824838 
L 92.186691 117.192128 
L 92.788461 117.233728 
L 93.089345 116.500536 
L 93.39023 116.867351 
L 93.691115 116.514899 
L 93.991999 115.323084 
L 94.292884 116.095559 
L 94.593769 115.832499 
L 94.894653 116.065103 
L 95.195538 116.090194 
L 95.496423 115.954373 
L 95.797307 115.621598 
L 96.098192 116.359618 
L 96.399077 116.405071 
L 96.699961 116.736821 
L 97.000846 115.298114 
L 97.602615 116.500243 
L 97.9035 116.384247 
L 98.204385 116.495805 
L 98.505269 117.30932 
L 98.806154 117.128265 
L 99.407923 117.139653 
L 99.708808 117.989695 
L 100.310577 119.019451 
L 100.611462 118.067994 
L 100.912346 119.130034 
L 101.213231 119.635573 
L 101.514116 118.758561 
L 101.815 119.615846 
L 102.115885 121.531684 
L 102.41677 121.148239 
L 103.018539 121.921738 
L 103.319424 122.695945 
L 103.620308 122.711331 
L 103.921193 123.822214 
L 104.222078 123.524748 
L 104.522962 123.987151 
L 104.823847 125.640417 
L 105.124732 125.120223 
L 105.425616 126.729037 
L 105.726501 126.308673 
L 106.027386 128.216757 
L 106.32827 128.077254 
L 106.629155 128.594594 
L 106.93004 129.38387 
L 107.531809 130.249177 
L 107.832694 131.188125 
L 108.133578 130.45725 
L 108.434463 131.903663 
L 109.036232 132.582941 
L 109.337117 132.98131 
L 109.938886 136.185428 
L 110.239771 136.114201 
L 110.540655 137.71782 
L 110.84154 137.199163 
L 111.443309 138.640894 
L 111.744194 138.812536 
L 112.045079 139.890598 
L 112.345963 139.937343 
L 112.646848 140.70104 
L 113.248617 143.607375 
L 113.549502 142.911272 
L 113.850387 143.848805 
L 114.151271 145.843478 
L 114.452156 144.609503 
L 114.753041 145.90322 
L 115.053925 146.330534 
L 115.655695 147.609352 
L 115.956579 147.877508 
L 116.859233 151.895019 
L 117.461003 151.309109 
L 117.761887 152.743086 
L 118.062772 152.790197 
L 118.664541 154.541781 
L 118.965426 154.240633 
L 119.266311 155.957384 
L 119.567195 155.972417 
L 119.86808 156.449012 
L 120.168965 157.630829 
L 120.469849 159.509993 
L 120.770734 158.839237 
L 121.071619 159.044957 
L 121.372503 160.783081 
L 121.673388 160.471984 
L 121.974272 161.249812 
L 122.275157 161.588951 
L 122.576042 161.180341 
L 122.876926 163.338182 
L 123.177811 162.347954 
L 123.478696 163.516189 
L 123.77958 165.158982 
L 124.080465 166.101734 
L 124.38135 166.328741 
L 124.682234 166.093724 
L 124.983119 167.836323 
L 125.284004 166.65236 
L 125.584888 168.104393 
L 125.885773 168.108234 
L 126.186658 167.985958 
L 126.487542 169.702441 
L 126.788427 169.686238 
L 127.089312 170.470808 
L 127.390196 171.566658 
L 127.691081 173.271143 
L 127.991966 171.850346 
L 128.29285 172.342742 
L 128.593735 173.677169 
L 128.89462 173.30127 
L 129.195504 173.890533 
L 129.496389 173.905603 
L 129.797274 173.715648 
L 130.098158 176.289891 
L 130.399043 174.739502 
L 130.699928 175.561429 
L 131.301697 178.983033 
L 131.602582 177.788157 
L 131.903466 178.262423 
L 132.204351 179.299543 
L 132.505235 178.934312 
L 132.80612 179.950742 
L 133.107005 179.014671 
L 133.407889 179.555214 
L 133.708774 180.939898 
L 134.009659 180.122762 
L 134.310543 180.073652 
L 134.912313 183.556594 
L 135.213197 182.728668 
L 135.514082 183.41937 
L 135.814967 184.541556 
L 136.115851 183.384476 
L 136.416736 183.444621 
L 136.717621 183.639952 
L 137.31939 186.029251 
L 137.620275 184.429497 
L 137.921159 185.775275 
L 138.222044 186.453248 
L 138.522929 188.492643 
L 138.823813 187.395135 
L 139.425583 188.884842 
L 139.726467 187.760414 
L 140.027352 188.171865 
L 140.328237 187.940603 
L 140.930006 189.993848 
L 141.230891 188.886866 
L 141.531775 189.568912 
L 142.133545 192.212833 
L 142.434429 191.336005 
L 142.735314 191.538542 
L 143.036199 192.329684 
L 143.337083 191.881619 
L 143.938852 191.992069 
L 144.239737 191.558184 
L 144.540622 193.754968 
L 144.841506 192.285828 
L 145.142391 192.78727 
L 145.443276 193.840204 
L 145.74416 195.583132 
L 146.045045 194.642306 
L 146.646814 195.436593 
L 147.248584 194.765179 
L 147.549468 194.556521 
L 147.850353 195.062792 
L 148.151238 196.83075 
L 148.452122 195.483046 
L 148.753007 195.47395 
L 149.354776 198.072761 
L 149.655661 196.725556 
L 149.956546 197.424573 
L 150.25743 197.5988 
L 150.8592 197.114841 
L 151.160084 196.419872 
L 151.761854 198.531566 
L 152.062738 196.781786 
L 152.363623 197.110452 
L 152.965392 199.371831 
L 153.266277 199.019109 
L 153.567162 199.054357 
L 153.868046 198.959124 
L 154.7707 197.632914 
L 155.071585 198.366776 
L 155.372469 199.955302 
L 155.673354 197.971663 
L 155.974239 198.166994 
L 156.275123 198.895919 
L 156.576008 200.486944 
L 156.876893 199.558664 
L 157.177777 199.948243 
L 157.478662 200.041111 
L 158.080431 198.739517 
L 158.381316 198.203766 
L 158.682201 198.495087 
L 158.983085 200.252634 
L 159.28397 198.307827 
L 159.584855 198.301621 
L 159.885739 199.200578 
L 160.186624 200.467437 
L 160.487509 199.563919 
L 160.788393 199.995597 
L 161.390163 199.043701 
L 161.691047 198.677946 
L 161.991932 197.867687 
L 162.292817 198.459803 
L 162.593701 199.7068 
L 162.894586 198.059898 
L 163.195471 197.734207 
L 163.79724 199.709092 
L 164.098125 199.29469 
L 164.399009 199.347495 
L 164.699894 199.030607 
L 165.301663 197.969163 
L 165.602548 196.858475 
L 165.903432 197.669308 
L 166.204317 198.986861 
L 166.505202 197.520989 
L 166.806086 197.156271 
L 167.106971 197.672868 
L 167.407856 198.872583 
L 167.70874 198.490271 
L 168.009625 198.61668 
L 168.31051 198.181625 
L 169.213164 196.157922 
L 169.514048 196.86106 
L 169.814933 198.268909 
L 170.115818 196.706633 
L 170.416702 196.293439 
L 170.717587 196.804635 
L 171.018472 198.0811 
L 171.319356 197.457504 
L 171.620241 197.60119 
L 171.921126 197.318391 
L 172.82378 195.437849 
L 173.124664 196.082952 
L 173.425549 197.270207 
L 174.027318 195.254185 
L 174.629088 197.365014 
L 174.929972 196.989518 
L 175.230857 196.989213 
L 175.531742 196.676933 
L 176.434395 194.715179 
L 177.036165 197.023851 
L 177.337049 195.163073 
L 177.637934 195.022643 
L 178.239703 197.089957 
L 178.540588 196.69321 
L 178.841473 196.853964 
L 179.142357 196.614948 
L 180.045011 194.542659 
L 180.345896 195.644983 
L 180.646781 197.179521 
L 180.947665 195.31311 
L 181.24855 195.229118 
L 181.549435 195.868747 
L 181.850319 197.231082 
L 182.452089 197.07896 
L 183.053858 195.564526 
L 183.655627 193.760162 
L 184.257397 195.645019 
L 184.558281 193.87489 
L 184.859166 193.33308 
L 185.160051 193.937424 
L 185.460935 194.934895 
L 185.76182 194.283757 
L 186.363589 193.911223 
L 186.965358 192.642792 
L 187.266243 191.096306 
L 187.868012 193.612306 
L 188.168897 191.740104 
L 188.469782 191.233407 
L 188.770666 191.726412 
L 189.071551 192.477527 
L 189.67332 192.276453 
L 190.27509 191.308024 
L 190.575974 189.981936 
L 190.876859 189.288295 
L 191.478628 190.901474 
L 191.779513 189.473471 
L 192.080398 188.785781 
L 192.682167 190.840098 
L 194.18659 188.334205 
L 194.487475 187.154289 
L 194.78836 187.849222 
L 195.089244 189.18115 
L 195.390129 187.396988 
L 195.691014 186.838499 
L 196.292783 188.629659 
L 196.593668 187.824996 
L 196.894552 188.034922 
L 197.195437 187.53954 
L 198.098091 185.177953 
L 198.69986 186.71821 
L 199.000745 185.204081 
L 199.301629 184.82322 
L 199.903399 186.271267 
L 200.204283 185.746489 
L 200.505168 186.114183 
L 201.708707 183.140863 
L 202.009591 184.177288 
L 202.310476 184.675573 
L 202.611361 183.363847 
L 202.912245 183.402204 
L 203.21313 183.272247 
L 203.514015 184.654395 
L 203.814899 183.996526 
L 204.115784 183.91418 
L 204.416669 183.478296 
L 204.717553 182.380471 
L 205.018438 181.938941 
L 205.319323 181.178609 
L 205.921092 182.962454 
L 206.221977 181.430757 
L 206.522861 180.516522 
L 206.823746 181.735209 
L 207.124631 182.35288 
L 207.425515 182.086979 
L 207.7264 181.522967 
L 208.027285 181.606301 
L 208.328169 180.359267 
L 208.629054 180.049645 
L 208.929938 179.101626 
L 209.230823 180.288357 
L 209.531708 180.545284 
L 209.832592 179.116013 
L 210.133477 178.83024 
L 210.735246 180.243039 
L 211.337016 179.798168 
L 211.938785 178.785214 
L 212.23967 177.528585 
L 212.540554 176.946016 
L 212.841439 177.438765 
L 213.142324 178.235283 
L 213.744093 176.507924 
L 214.044978 177.12896 
L 214.345862 178.135551 
L 214.646747 177.981965 
L 214.947632 178.206534 
L 215.850286 175.090383 
L 216.452055 175.451968 
L 216.75294 176.341305 
L 217.053824 174.6178 
L 217.655594 174.936346 
L 217.956478 175.794594 
L 218.257363 175.905726 
L 218.558248 175.327253 
L 218.859132 175.85564 
L 219.160017 174.397852 
L 219.761786 172.920751 
L 220.062671 173.138602 
L 220.363555 174.234598 
L 220.66444 172.386049 
L 220.965325 171.732508 
L 221.266209 173.240748 
L 221.567094 173.417572 
L 221.867979 173.241992 
L 222.168863 173.465451 
L 222.469748 173.275094 
L 222.770633 172.08601 
L 223.071517 171.568377 
L 223.372402 170.59985 
L 223.673287 171.129639 
L 223.974171 171.983595 
L 224.275056 170.111686 
L 224.575941 170.115051 
L 225.17771 172.430136 
L 225.478595 171.445637 
L 225.779479 171.324739 
L 226.381249 170.098347 
L 226.682133 168.259308 
L 226.983018 168.179644 
L 227.283903 168.582695 
L 227.584787 169.906003 
L 227.885672 168.295897 
L 228.186557 167.380138 
L 228.788326 169.695199 
L 229.390095 168.667687 
L 229.991865 168.003856 
L 230.593634 165.476931 
L 230.894518 167.095779 
L 231.195403 167.670338 
L 231.496288 166.233752 
L 231.797172 165.642563 
L 232.098057 166.864346 
L 232.398942 167.17131 
L 232.699826 167.881788 
L 233.000711 166.41516 
L 233.301596 165.880665 
L 233.60248 166.124009 
L 234.20425 163.529796 
L 234.806019 164.99824 
L 235.106904 164.84235 
L 235.407788 163.411397 
L 235.708673 163.62737 
L 236.009558 165.174625 
L 236.310442 164.656284 
L 236.611327 163.621079 
L 236.912212 163.052628 
L 237.213096 163.680918 
L 237.513981 162.47874 
L 237.814866 160.460585 
L 238.11575 161.975737 
L 238.416635 162.789715 
L 238.71752 161.065319 
L 239.018404 160.289113 
L 239.319289 162.10389 
L 239.620174 163.225124 
L 239.921058 163.019161 
L 240.522828 160.694761 
L 240.823712 160.011337 
L 241.124597 159.9519 
L 241.425482 157.946205 
L 241.726366 159.397605 
L 242.027251 161.480684 
L 242.328135 158.655074 
L 242.62902 156.987835 
L 243.230789 161.19452 
L 243.531674 159.063782 
L 244.133443 159.874894 
L 244.434328 158.801795 
L 244.735213 156.845515 
L 245.036097 156.101472 
L 245.336982 157.547678 
L 245.637867 157.796716 
L 245.938751 156.748697 
L 246.239636 156.646014 
L 246.540521 156.849709 
L 247.14229 157.874503 
L 247.443175 156.594733 
L 247.744059 157.902545 
L 248.044944 155.515197 
L 248.345829 154.655169 
L 248.646713 153.198636 
L 248.947598 155.864638 
L 249.248483 154.807937 
L 249.850252 153.397955 
L 250.151137 155.114475 
L 250.452021 156.154118 
L 250.752906 155.97894 
L 251.354675 153.744873 
L 251.65556 153.493542 
L 251.956445 154.009493 
L 252.257329 150.349678 
L 252.558214 152.56169 
L 252.859098 153.340554 
L 253.460868 151.249708 
L 253.761752 152.598315 
L 254.062637 152.806363 
L 254.363522 153.596298 
L 254.664406 151.623156 
L 254.965291 151.883875 
L 255.266176 151.817671 
L 255.56706 149.615511 
L 255.867945 148.36193 
L 256.16883 150.763116 
L 256.469714 149.920146 
L 256.770599 149.801369 
L 257.071484 148.818188 
L 257.372368 148.532524 
L 257.673253 152.5078 
L 257.974138 149.803076 
L 258.275022 150.596107 
L 258.575907 150.127901 
L 258.876792 147.586967 
L 259.177676 148.103625 
L 259.478561 145.612241 
L 259.779446 146.783475 
L 260.08033 149.392198 
L 260.381215 146.723538 
L 260.6821 146.909177 
L 260.982984 147.31074 
L 261.283869 148.473611 
L 261.584754 148.558225 
L 261.885638 148.038104 
L 262.186523 146.578694 
L 262.487408 147.113129 
L 262.788292 145.100947 
L 263.089177 144.048173 
L 263.390062 145.523408 
L 263.690946 145.190097 
L 263.991831 145.235086 
L 264.292715 143.380112 
L 264.894485 146.260477 
L 265.496254 144.813162 
L 265.797139 144.833084 
L 266.398908 143.483648 
L 266.699793 141.719774 
L 267.000677 141.646815 
L 267.301562 142.728973 
L 267.602447 141.805875 
L 267.903331 141.652107 
L 268.204216 143.72798 
L 268.505101 142.261938 
L 268.805985 143.459044 
L 269.10687 141.534598 
L 269.407755 142.009168 
L 270.310409 139.396788 
L 270.611293 142.029066 
L 270.912178 141.222306 
L 271.213063 139.271379 
L 271.513947 139.74768 
L 272.115717 139.564773 
L 272.416601 140.935252 
L 272.717486 138.143256 
L 273.018371 139.971164 
L 273.319255 138.177589 
L 273.62014 137.189824 
L 273.921025 137.283948 
L 274.221909 137.829745 
L 274.522794 137.731354 
L 274.823678 137.867761 
L 275.124563 136.282941 
L 275.726332 138.59471 
L 276.027217 136.90238 
L 276.328102 138.538138 
L 276.628986 136.513838 
L 276.929871 135.459429 
L 277.230756 135.207123 
L 277.53164 133.568902 
L 277.832525 135.485082 
L 278.13341 135.671769 
L 278.434294 134.257909 
L 278.735179 135.344505 
L 279.036064 133.338274 
L 279.637833 136.150704 
L 279.938718 133.953786 
L 280.239602 132.927786 
L 280.540487 133.73479 
L 280.841372 132.62637 
L 281.142256 130.451446 
L 281.443141 132.662995 
L 281.744026 133.521035 
L 282.04491 131.597028 
L 282.345795 131.19449 
L 282.64668 132.928274 
L 282.947564 132.349874 
L 283.248449 132.882333 
L 283.549334 133.047855 
L 284.151103 131.837435 
L 284.451988 129.573484 
L 284.752872 130.030546 
L 285.053757 129.972633 
L 285.354642 130.89478 
L 285.655526 128.130363 
L 286.257295 130.488511 
L 286.55818 130.986954 
L 286.859065 130.12289 
L 287.159949 130.124183 
L 287.460834 128.362991 
L 287.761719 128.513418 
L 288.062603 126.969443 
L 288.363488 126.49675 
L 288.664373 128.629659 
L 288.965257 128.919493 
L 289.266142 125.905135 
L 289.567027 126.837353 
L 289.867911 127.043718 
L 290.168796 128.752313 
L 290.469681 127.117067 
L 290.770565 126.648983 
L 291.07145 127.818632 
L 291.372335 126.085141 
L 291.673219 123.336183 
L 291.974104 123.782175 
L 292.575873 125.474846 
L 292.876758 122.793994 
L 293.177643 123.66591 
L 293.478527 125.134927 
L 293.779412 124.935852 
L 294.080297 125.485868 
L 294.381181 124.72083 
L 294.682066 123.567518 
L 294.982951 125.504327 
L 295.283835 121.022878 
L 295.58472 121.522857 
L 295.885605 122.263291 
L 296.186489 123.382318 
L 296.487374 120.73541 
L 296.788258 120.760916 
L 297.089143 122.887411 
L 297.390028 123.688319 
L 297.991797 122.640543 
L 298.292682 121.967434 
L 298.593566 120.595662 
L 298.894451 120.192392 
L 299.49622 117.979966 
L 299.797105 120.430994 
L 300.398874 117.341751 
L 301.000644 120.096707 
L 301.301528 121.063917 
L 301.602413 117.415807 
L 301.903298 119.910435 
L 302.505067 116.847844 
L 303.106836 118.873973 
L 303.407721 118.909404 
L 303.708606 116.167786 
L 304.00949 116.316238 
L 304.310375 117.488765 
L 304.61126 117.261307 
L 304.912144 117.572477 
L 305.213029 116.120382 
L 305.513914 116.083342 
L 305.814798 115.760102 
L 306.115683 113.342944 
L 306.416568 113.76777 
L 306.717452 116.276053 
L 307.319222 113.539726 
L 307.620106 112.548108 
L 307.920991 115.837011 
L 308.221875 115.474853 
L 308.52276 113.811052 
L 308.823645 115.428449 
L 309.124529 113.164669 
L 309.425414 113.276667 
L 310.027183 110.270404 
L 310.628953 113.660039 
L 310.929837 111.506672 
L 311.230722 108.481243 
L 311.531607 112.987784 
L 311.832491 112.486756 
L 312.133376 113.891618 
L 312.434261 112.168442 
L 312.735145 109.493613 
L 313.03603 111.223715 
L 313.336915 110.264015 
L 313.637799 108.505042 
L 313.938684 108.341642 
L 314.239569 111.482897 
L 314.540453 109.195903 
L 314.841338 109.232821 
L 315.142223 109.631141 
L 315.443107 109.420484 
L 315.743992 109.478299 
L 316.044877 109.081637 
L 316.345761 109.893957 
L 316.646646 106.711712 
L 316.947531 107.308546 
L 317.248415 103.808376 
L 317.5493 107.515277 
L 317.850185 106.362868 
L 318.151069 107.827935 
L 318.451954 105.323334 
L 318.752838 105.23433 
L 319.053723 108.800314 
L 319.655492 105.511899 
L 319.956377 108.482682 
L 320.859031 101.978444 
L 321.4608 105.401047 
L 321.761685 104.47612 
L 322.06257 104.299455 
L 322.363454 104.585192 
L 322.664339 103.403545 
L 322.965224 105.205752 
L 323.266108 103.677114 
L 323.566993 103.620835 
L 323.867878 103.933712 
L 324.168762 101.680539 
L 324.469647 97.032642 
L 324.770532 103.391572 
L 325.071416 101.935284 
L 325.372301 102.802688 
L 325.673186 100.746639 
L 325.97407 100.356682 
L 326.274955 103.463092 
L 326.57584 101.751766 
L 326.876724 100.93913 
L 327.177609 101.667884 
L 327.478494 100.687823 
L 328.080263 97.937012 
L 328.381148 99.842195 
L 328.682032 98.865402 
L 328.982917 97.248932 
L 329.283801 100.555635 
L 329.584686 97.589924 
L 330.186455 102.085346 
L 330.788225 98.215264 
L 331.089109 97.236447 
L 331.389994 93.596554 
L 331.690879 94.704121 
L 331.991763 98.758452 
L 332.292648 96.890334 
L 332.593533 96.917791 
L 332.894417 94.208921 
L 333.195302 98.619095 
L 333.496187 95.943802 
L 333.797071 98.194049 
L 334.097956 97.033495 
L 334.398841 96.872509 
L 334.699725 93.990071 
L 335.00061 95.976794 
L 335.301495 92.886796 
L 335.602379 96.172138 
L 336.204149 93.556393 
L 336.505033 92.757826 
L 336.805918 94.830579 
L 337.106803 94.496438 
L 337.407687 95.341067 
L 337.708572 94.942528 
L 338.009457 93.216766 
L 338.310341 93.859882 
L 338.611226 91.271472 
L 338.912111 94.095704 
L 339.212995 91.579081 
L 339.51388 91.45772 
L 339.814765 92.359896 
L 340.115649 87.368495 
L 340.416534 92.664019 
L 340.717418 93.032103 
L 341.018303 95.521805 
L 341.319188 93.428838 
L 341.620072 90.505629 
L 341.920957 91.51556 
L 342.522726 88.296738 
L 342.823611 92.325222 
L 343.124496 89.996384 
L 343.726265 89.091233 
L 344.02715 89.135125 
L 344.328034 90.574149 
L 345.230688 88.595472 
L 345.531573 89.421764 
L 345.832458 86.103136 
L 346.133342 85.278478 
L 346.434227 86.477633 
L 346.735112 88.347043 
L 347.035996 86.2264 
L 347.336881 86.288556 
L 347.637766 89.452683 
L 347.93865 86.100235 
L 348.239535 89.636859 
L 348.54042 86.058123 
L 348.841304 86.237544 
L 349.142189 85.617179 
L 349.443074 85.333075 
L 349.743958 81.409323 
L 350.044843 85.905525 
L 350.345728 83.631357 
L 350.646612 82.479825 
L 350.947497 84.563867 
L 351.248381 84.518171 
L 351.549266 86.621916 
L 351.850151 86.230033 
L 352.151035 83.751645 
L 352.45192 83.204678 
L 352.752805 83.339865 
L 353.354574 81.038191 
L 353.655459 84.709565 
L 353.956343 81.109809 
L 354.257228 82.330397 
L 354.558113 80.63714 
L 354.858997 82.388944 
L 355.159882 83.075221 
L 355.460767 80.876937 
L 356.062536 83.773226 
L 356.363421 81.287303 
L 356.664305 81.316857 
L 356.96519 79.828283 
L 357.266075 80.171714 
L 357.566959 82.204695 
L 357.867844 79.080583 
L 358.168729 81.118441 
L 358.469613 79.277414 
L 358.770498 80.145574 
L 359.071383 80.360986 
L 359.372267 81.941855 
L 359.673152 78.271238 
L 359.974037 77.558212 
L 360.274921 78.034953 
L 360.575806 74.128245 
L 360.876691 79.069024 
L 361.177575 77.778257 
L 361.47846 78.253072 
L 361.779345 77.140116 
L 362.080229 79.005966 
L 362.381114 77.531852 
L 362.681998 80.473277 
L 362.982883 75.276558 
L 363.283768 76.927557 
L 363.584652 74.054165 
L 363.885537 73.991375 
L 364.186422 73.201587 
L 364.487306 76.882665 
L 364.788191 75.765198 
L 365.089076 73.486178 
L 365.38996 72.108383 
L 365.99173 76.761377 
L 366.292614 75.713845 
L 366.593499 76.358716 
L 366.894384 73.216827 
L 367.195268 75.584997 
L 367.797038 69.772693 
L 368.097922 73.142138 
L 368.398807 74.678163 
L 368.699692 71.929596 
L 369.000576 71.766244 
L 369.301461 71.158364 
L 369.602346 74.82052 
L 369.90323 74.269675 
L 370.204115 72.427088 
L 370.505 72.430526 
L 370.805884 74.095497 
L 371.106769 70.353555 
L 371.407654 70.101395 
L 371.708538 69.997152 
L 372.009423 71.122787 
L 372.310308 67.767681 
L 372.611192 71.766781 
L 372.912077 71.866538 
L 373.212961 69.800711 
L 373.513846 70.565797 
L 373.814731 70.077938 
L 374.115615 70.554556 
L 374.4165 68.733183 
L 374.717385 67.829398 
L 375.018269 66.305808 
L 375.319154 69.771254 
L 375.620039 68.952961 
L 375.920923 68.540741 
L 376.221808 67.020614 
L 376.522693 69.376616 
L 376.823577 65.986493 
L 377.124462 71.800066 
L 377.425347 68.186459 
L 377.726231 66.993547 
L 378.027116 67.678019 
L 378.328001 66.490276 
L 378.628885 62.698298 
L 379.230655 67.608865 
L 379.531539 67.666948 
L 379.832424 66.265598 
L 380.133309 67.172651 
L 380.434193 67.465899 
L 380.735078 67.341538 
L 381.035963 65.459618 
L 381.336847 65.888614 
L 381.637732 62.503246 
L 381.938617 62.493493 
L 382.239501 61.884101 
L 382.540386 64.137834 
L 382.841271 63.839686 
L 383.142155 61.947476 
L 383.44304 63.129098 
L 383.743925 63.415689 
L 384.044809 66.846899 
L 384.345694 67.448317 
L 384.646578 62.070861 
L 384.947463 64.2709 
L 385.248348 61.784441 
L 385.549232 60.782435 
L 385.850117 62.726681 
L 386.151002 63.559728 
L 386.451886 61.990368 
L 386.752771 58.628214 
L 387.053656 62.9359 
L 387.35454 59.495375 
L 387.655425 63.961779 
L 387.95631 62.283518 
L 388.257194 63.677456 
L 388.558079 60.040952 
L 388.858964 59.443679 
L 389.159848 61.548278 
L 389.460733 59.219074 
L 389.761618 61.477026 
L 390.062502 57.649105 
L 390.363387 56.629786 
L 390.664272 61.391315 
L 390.965156 57.879124 
L 391.266041 61.068757 
L 391.566926 59.578818 
L 391.86781 61.074268 
L 392.168695 59.474111 
L 392.46958 60.654148 
L 392.770464 55.960286 
L 393.071349 55.302223 
L 393.372234 62.116875 
L 393.673118 57.922504 
L 394.274888 54.850745 
L 394.575772 59.085959 
L 394.876657 54.16637 
L 395.177541 60.768414 
L 395.478426 60.471143 
L 395.779311 56.269506 
L 396.080195 57.045956 
L 396.38108 54.275393 
L 396.681965 54.854817 
L 396.982849 53.957761 
L 397.283734 54.400802 
L 397.584619 55.475596 
L 397.885503 54.173783 
L 398.186388 53.568 
L 398.487273 57.055148 
L 398.487273 57.055148 
" clip-path="url(#pe0c924d69d)" style="fill: none; stroke: #6495ed; stroke-width: 2; stroke-linecap: square"/>
   </g>
   <g id="line2d_26">
    <path d="M 73.832727 216.470056 
L 75.036266 226.718848 
L 77.142459 240.255909 
L 79.549536 252.000506 
L 79.85042 252.594368 
L 81.354844 258.920886 
L 81.655728 259.494237 
L 82.257498 261.32675 
L 82.558382 261.996324 
L 82.859267 263.822411 
L 83.160152 264.72206 
L 83.461036 264.511882 
L 84.36369 267.765409 
L 84.664575 268.172176 
L 84.96546 269.385579 
L 85.266344 269.599203 
L 86.168998 270.885269 
L 86.469883 272.590119 
L 86.770768 272.923423 
L 87.071652 272.697184 
L 87.974306 274.91199 
L 88.275191 275.08758 
L 88.576075 275.9041 
L 88.87696 275.672983 
L 89.478729 276.279572 
L 89.779614 276.5747 
L 90.080499 277.918097 
L 90.381383 277.897533 
L 90.682268 277.435524 
L 90.983153 277.6921 
L 91.584922 279.159889 
L 91.885807 278.889811 
L 92.186691 279.924732 
L 92.487576 279.284096 
L 92.788461 279.20393 
L 93.089345 279.359793 
L 93.39023 279.326247 
L 93.691115 280.682934 
L 93.991999 280.765058 
L 94.292884 279.677849 
L 94.593769 280.027704 
L 94.894653 280.06742 
L 95.195538 280.79341 
L 95.496423 280.531263 
L 95.797307 281.222822 
L 96.098192 280.23367 
L 96.699961 279.836156 
L 97.000846 280.183232 
L 97.301731 281.331265 
L 97.602615 280.78739 
L 97.9035 279.847992 
L 98.204385 280.004605 
L 98.505269 279.769206 
L 98.806154 280.488762 
L 99.107039 280.119364 
L 99.407923 280.754005 
L 99.708808 279.512059 
L 100.310577 278.849616 
L 100.611462 279.041536 
L 100.912346 280.12047 
L 101.514116 278.583956 
L 101.815 278.482333 
L 102.115885 277.813007 
L 102.41677 278.546233 
L 102.717654 278.05634 
L 103.018539 278.624824 
L 103.319424 277.153 
L 103.620308 276.928124 
L 103.921193 276.415526 
L 104.222078 276.429031 
L 104.522962 277.658667 
L 105.124732 275.547061 
L 105.726501 274.828324 
L 106.027386 274.965908 
L 106.32827 274.637895 
L 106.629155 275.154334 
L 106.93004 273.470543 
L 107.832694 272.369152 
L 108.133578 273.963877 
L 108.735348 271.534507 
L 109.036232 271.304891 
L 109.337117 270.677582 
L 109.638002 270.818367 
L 109.938886 270.125376 
L 110.239771 270.774301 
L 110.540655 268.656253 
L 110.84154 268.619958 
L 111.142425 267.961763 
L 111.443309 267.730691 
L 111.744194 269.077926 
L 112.045079 267.451045 
L 112.947733 265.037475 
L 113.248617 265.330603 
L 113.549502 265.268253 
L 113.850387 265.653621 
L 114.151271 263.155489 
L 114.452156 263.477991 
L 114.753041 262.537277 
L 115.053925 262.414574 
L 115.35481 263.643928 
L 115.655695 261.931093 
L 116.257464 260.437288 
L 116.558349 259.24788 
L 116.859233 259.442186 
L 117.160118 259.333253 
L 117.461003 260.101929 
L 117.761887 257.629153 
L 118.062772 257.677453 
L 118.363657 256.716343 
L 118.664541 256.516442 
L 118.965426 258.110842 
L 119.266311 255.837452 
L 119.567195 255.419398 
L 119.86808 254.743893 
L 120.168965 253.441509 
L 120.770734 253.661846 
L 121.071619 254.32081 
L 121.372503 251.5597 
L 121.673388 251.833097 
L 121.974272 250.75197 
L 122.275157 250.793281 
L 122.576042 252.489784 
L 122.876926 249.882696 
L 123.177811 250.02182 
L 123.478696 248.993133 
L 123.77958 247.420718 
L 124.080465 247.821879 
L 124.38135 247.679345 
L 124.682234 248.491592 
L 124.983119 245.65232 
L 125.284004 246.343181 
L 125.584888 244.992153 
L 125.885773 245.221796 
L 126.186658 246.740049 
L 126.487542 244.196699 
L 126.788427 244.150989 
L 127.390196 241.724562 
L 127.691081 241.781479 
L 128.29285 242.970059 
L 128.593735 240.294232 
L 128.89462 240.821132 
L 129.195504 239.703279 
L 129.496389 239.94196 
L 129.797274 241.531345 
L 130.098158 238.557526 
L 130.399043 239.283533 
L 130.699928 238.203197 
L 131.000812 236.665442 
L 131.301697 236.618723 
L 131.903466 237.728943 
L 132.204351 235.198754 
L 132.505235 235.78256 
L 132.80612 234.379856 
L 133.107005 235.079645 
L 133.407889 236.26831 
L 133.708774 233.859955 
L 134.009659 234.416566 
L 134.310543 233.726984 
L 134.611428 231.953097 
L 134.912313 232.149313 
L 135.514082 232.976506 
L 135.814967 230.46734 
L 136.115851 231.432936 
L 136.416736 230.521134 
L 136.717621 230.809563 
L 137.018505 231.53167 
L 137.31939 229.273269 
L 137.620275 230.247472 
L 138.222044 227.683814 
L 138.522929 227.558813 
L 139.124698 228.479335 
L 139.425583 226.303153 
L 139.726467 227.240865 
L 140.027352 226.176614 
L 140.328237 226.63552 
L 140.629121 227.37336 
L 140.930006 225.262716 
L 141.230891 226.146603 
L 141.83266 223.710282 
L 142.133545 223.794861 
L 142.434429 224.237625 
L 142.735314 224.912756 
L 143.036199 222.908153 
L 143.337083 223.496396 
L 143.637968 222.53028 
L 143.938852 222.876076 
L 144.239737 224.082354 
L 144.540622 221.633856 
L 144.841506 222.701988 
L 145.142391 221.810295 
L 145.443276 220.49819 
L 145.74416 220.440033 
L 146.34593 221.389612 
L 146.646814 219.827161 
L 146.947699 220.260667 
L 147.248584 219.601366 
L 147.850353 220.752092 
L 148.151238 218.573884 
L 148.452122 219.634257 
L 148.753007 218.9821 
L 149.053892 217.671493 
L 149.354776 217.786744 
L 149.956546 218.915253 
L 150.25743 217.58619 
L 150.558315 217.957477 
L 150.8592 217.268756 
L 151.160084 218.084657 
L 151.460969 218.279022 
L 151.761854 216.648851 
L 152.062738 217.96223 
L 152.363623 217.345394 
L 152.664508 216.038448 
L 152.965392 216.300531 
L 153.266277 216.28872 
L 153.567162 217.123066 
L 153.868046 216.088992 
L 154.168931 216.546495 
L 154.469815 216.008259 
L 154.7707 216.715748 
L 155.071585 216.944216 
L 155.372469 215.201896 
L 155.673354 216.631983 
L 155.974239 216.167718 
L 156.275123 215.15958 
L 156.576008 215.116844 
L 156.876893 215.438177 
L 157.177777 216.211628 
L 157.478662 215.202186 
L 157.779547 215.773674 
L 158.080431 215.480515 
L 158.381316 216.18504 
L 158.682201 216.559007 
L 158.983085 214.949472 
L 159.28397 216.292483 
L 159.584855 216.006893 
L 159.885739 214.924748 
L 160.186624 214.998184 
L 160.487509 215.281621 
L 160.788393 216.084947 
L 161.089278 215.657967 
L 161.390163 216.02245 
L 161.691047 215.69146 
L 161.991932 216.505355 
L 162.292817 216.572805 
L 162.593701 215.363489 
L 162.894586 216.606902 
L 163.195471 216.573268 
L 163.496355 215.473044 
L 163.79724 215.747607 
L 164.098125 215.719458 
L 164.399009 216.765379 
L 164.699894 216.266721 
L 165.000778 216.732129 
L 165.301663 216.473004 
L 165.602548 217.453061 
L 165.903432 217.333927 
L 166.204317 216.278599 
L 166.505202 217.315074 
L 166.806086 217.35595 
L 167.106971 216.603456 
L 167.407856 216.759672 
L 167.70874 216.623164 
L 168.009625 217.638221 
L 168.31051 217.319883 
L 168.611394 217.73582 
L 168.912279 217.778326 
L 169.213164 218.521502 
L 169.514048 218.325259 
L 169.814933 217.288468 
L 170.115818 218.336228 
L 170.416702 218.440187 
L 170.717587 217.673584 
L 171.018472 217.852533 
L 171.319356 217.799582 
L 171.620241 218.791846 
L 171.921126 218.484352 
L 172.22201 218.806248 
L 172.522895 218.777616 
L 172.82378 219.514117 
L 173.124664 219.282391 
L 173.425549 218.425847 
L 173.726434 219.238354 
L 174.027318 219.684095 
L 174.328203 218.620562 
L 174.629088 218.836983 
L 174.929972 218.590143 
L 175.230857 219.706675 
L 175.531742 219.451109 
L 176.133511 219.90436 
L 176.434395 220.498397 
L 176.73528 220.018686 
L 177.036165 219.137495 
L 177.337049 220.171242 
L 177.637934 220.330782 
L 177.938819 219.36556 
L 178.239703 219.518041 
L 178.540588 219.261715 
L 178.841473 220.250336 
L 179.142357 219.979891 
L 179.744127 220.298224 
L 180.045011 221.081254 
L 180.345896 220.468844 
L 180.646781 219.501892 
L 180.947665 220.604962 
L 181.24855 220.679171 
L 181.549435 219.780136 
L 181.850319 219.786187 
L 182.151204 219.336967 
L 182.452089 220.417973 
L 182.752973 220.400597 
L 183.354743 221.066088 
L 183.655627 221.838097 
L 184.257397 220.743794 
L 184.558281 221.773881 
L 184.859166 222.121093 
L 185.160051 221.351489 
L 185.460935 221.602026 
L 185.76182 221.478018 
L 186.062705 222.750689 
L 186.363589 222.508182 
L 186.664474 222.900075 
L 186.965358 223.080973 
L 187.266243 224.070978 
L 187.868012 222.760423 
L 188.168897 223.783781 
L 188.469782 224.086496 
L 188.770666 223.396772 
L 189.071551 223.751747 
L 189.372436 223.372929 
L 189.67332 224.547896 
L 189.974205 224.552337 
L 190.27509 224.673791 
L 190.876859 225.83801 
L 191.478628 224.991851 
L 192.080398 226.177993 
L 192.381282 225.341751 
L 192.682167 225.448343 
L 192.983052 225.163035 
L 193.283936 226.473403 
L 193.584821 226.378788 
L 193.885706 226.637248 
L 194.18659 227.067136 
L 194.487475 227.731893 
L 195.089244 226.741525 
L 195.390129 227.643185 
L 195.691014 227.959149 
L 195.991898 227.197066 
L 196.292783 227.395342 
L 196.593668 227.283635 
L 196.894552 228.319845 
L 197.195437 228.286226 
L 197.797206 228.95552 
L 198.098091 229.550267 
L 198.69986 228.751574 
L 199.000745 229.522515 
L 199.301629 229.802708 
L 199.602514 229.065337 
L 199.903399 229.368794 
L 200.204283 229.084058 
L 200.505168 230.059121 
L 200.806053 230.100548 
L 201.106937 230.341026 
L 201.708707 231.316241 
L 202.009591 230.638193 
L 202.310476 230.522733 
L 202.611361 231.15955 
L 202.912245 231.219598 
L 203.21313 230.819075 
L 203.514015 230.913431 
L 203.814899 230.663139 
L 204.115784 231.831187 
L 204.416669 231.771135 
L 205.319323 232.981499 
L 205.620207 232.399877 
L 205.921092 232.118046 
L 206.522861 233.284143 
L 206.823746 232.34869 
L 207.124631 232.758827 
L 207.425515 232.328222 
L 207.7264 233.767925 
L 208.027285 233.394587 
L 208.629054 234.180512 
L 208.929938 234.60952 
L 209.230823 233.907472 
L 209.531708 233.948972 
L 209.832592 234.581957 
L 210.133477 234.829022 
L 210.434362 234.151596 
L 210.735246 234.505149 
L 211.036131 234.04316 
L 211.337016 235.251851 
L 211.6379 235.144617 
L 211.938785 235.300791 
L 212.23967 236.040452 
L 212.540554 236.36068 
L 212.841439 235.933486 
L 213.142324 235.849929 
L 213.443208 236.121634 
L 213.744093 236.586281 
L 214.044978 235.970447 
L 214.345862 236.185876 
L 214.646747 235.65936 
L 214.947632 236.708157 
L 215.248516 236.786081 
L 215.549401 237.11799 
L 215.850286 237.934288 
L 216.15117 237.823674 
L 216.75294 237.373301 
L 217.053824 238.029831 
L 217.354709 238.110624 
L 217.655594 237.593307 
L 217.956478 237.980719 
L 218.257363 237.270248 
L 218.558248 238.675288 
L 218.859132 238.190496 
L 219.761786 239.524648 
L 220.363555 238.969427 
L 220.965325 240.061664 
L 221.266209 239.04218 
L 221.567094 239.65274 
L 221.867979 239.107789 
L 222.168863 240.135183 
L 222.469748 239.918889 
L 223.372402 241.136128 
L 223.673287 240.77106 
L 223.974171 240.650925 
L 224.275056 241.341084 
L 224.575941 241.40461 
L 224.876825 240.485546 
L 225.17771 240.738694 
L 225.478595 240.453143 
L 225.779479 241.697616 
L 226.080364 241.695524 
L 226.381249 241.869846 
L 226.682133 242.922535 
L 226.983018 242.90708 
L 227.584787 242.246508 
L 228.186557 243.223664 
L 228.487441 242.475767 
L 228.788326 242.68291 
L 229.089211 242.260275 
L 229.390095 243.555519 
L 229.69098 243.386203 
L 229.991865 243.441275 
L 230.292749 244.284049 
L 230.593634 244.654603 
L 230.894518 243.829039 
L 231.195403 243.86556 
L 231.797172 244.506452 
L 232.098057 243.691883 
L 232.398942 244.250548 
L 232.699826 243.278167 
L 233.000711 244.997798 
L 233.301596 245.044851 
L 233.60248 244.826066 
L 234.20425 246.06348 
L 234.505134 245.573362 
L 234.806019 245.577596 
L 235.106904 245.42077 
L 235.407788 246.045571 
L 235.708673 245.626465 
L 236.009558 245.770459 
L 236.310442 245.230066 
L 236.611327 246.82737 
L 236.912212 246.794508 
L 237.213096 246.471694 
L 237.814866 247.850975 
L 238.11575 247.157665 
L 238.416635 247.090801 
L 239.018404 248.001813 
L 239.319289 246.953724 
L 239.620174 247.149693 
L 239.921058 246.435991 
L 240.221943 248.078387 
L 240.823712 248.488105 
L 241.124597 248.868275 
L 241.425482 249.554008 
L 242.027251 248.179683 
L 242.62902 249.864553 
L 242.929905 248.691024 
L 243.230789 248.580293 
L 243.531674 248.662465 
L 243.832559 249.702569 
L 244.133443 249.269395 
L 244.434328 249.581017 
L 244.735213 250.64576 
L 245.036097 250.805209 
L 245.336982 250.040688 
L 246.239636 250.547345 
L 246.540521 250.150989 
L 246.841405 250.596081 
L 247.14229 249.80456 
L 247.443175 251.410134 
L 247.744059 250.54399 
L 248.345829 252.015442 
L 248.646713 252.503954 
L 248.947598 251.270728 
L 249.248483 251.985746 
L 249.549367 252.052285 
L 249.850252 252.426651 
L 250.151137 251.521771 
L 250.452021 251.754487 
L 250.752906 251.015884 
L 251.053791 252.59507 
L 251.65556 252.849895 
L 251.956445 252.845897 
L 252.257329 254.046173 
L 252.558214 253.066562 
L 253.159983 253.281522 
L 253.460868 253.733334 
L 253.761752 252.952378 
L 254.062637 253.575739 
L 254.363522 252.44142 
L 254.664406 254.347289 
L 254.965291 254.001063 
L 255.266176 253.964907 
L 255.56706 255.098283 
L 255.867945 255.485167 
L 256.16883 254.268401 
L 256.469714 255.012089 
L 256.770599 254.77156 
L 257.071484 255.217937 
L 257.372368 255.068948 
L 257.673253 254.260134 
L 257.974138 254.404372 
L 258.275022 255.244842 
L 258.575907 255.05001 
L 258.876792 256.041854 
L 259.177676 256.202315 
L 259.478561 256.893428 
L 260.08033 255.702469 
L 260.381215 256.415575 
L 260.6821 256.389057 
L 260.982984 255.904818 
L 261.283869 256.248279 
L 261.584754 255.414972 
L 261.885638 256.647272 
L 262.186523 256.903441 
L 262.487408 256.746393 
L 262.788292 257.795847 
L 263.089177 258.000472 
L 263.390062 257.222058 
L 263.690946 257.671963 
L 263.991831 257.475748 
L 264.292715 258.183028 
L 264.5936 257.429406 
L 264.894485 257.571138 
L 265.195369 256.944942 
L 265.496254 258.416053 
L 265.797139 258.141528 
L 266.398908 258.803446 
L 266.699793 259.311455 
L 267.000677 259.103832 
L 267.903331 259.342773 
L 268.204216 258.299798 
L 268.505101 259.350925 
L 268.805985 258.319321 
L 269.10687 260.080433 
L 269.407755 259.658463 
L 270.310409 260.641514 
L 270.611293 259.570714 
L 271.213063 260.372712 
L 271.513947 260.424693 
L 271.814832 260.184247 
L 272.115717 260.958204 
L 272.416601 259.617157 
L 272.717486 261.695988 
L 273.018371 260.900914 
L 273.62014 262.070022 
L 274.221909 261.457008 
L 274.522794 261.905274 
L 274.823678 261.592963 
L 275.124563 262.140742 
L 275.425448 261.523501 
L 275.726332 261.698502 
L 276.027217 261.517611 
L 277.230756 263.224239 
L 277.53164 263.626553 
L 277.832525 262.682182 
L 278.434294 263.168431 
L 278.735179 262.910665 
L 279.036064 263.275752 
L 279.336948 263.463728 
L 279.637833 262.273555 
L 279.938718 264.192919 
L 280.239602 264.255189 
L 280.540487 264.045084 
L 281.142256 265.139008 
L 281.443141 264.249903 
L 281.744026 264.151356 
L 282.04491 264.668869 
L 282.345795 264.878019 
L 282.64668 263.941575 
L 282.947564 264.621718 
L 283.248449 263.879258 
L 283.549334 264.874129 
L 283.850218 264.736401 
L 284.151103 264.914159 
L 284.451988 265.895249 
L 285.053757 265.461378 
L 285.354642 265.546881 
L 285.655526 266.138762 
L 285.956411 265.790914 
L 286.257295 265.229538 
L 286.55818 265.568659 
L 286.859065 265.171349 
L 287.159949 266.241455 
L 287.460834 266.50047 
L 287.761719 266.558395 
L 288.062603 267.33197 
L 288.363488 267.364477 
L 288.664373 266.424448 
L 288.965257 266.649976 
L 289.266142 267.394185 
L 289.567027 266.967561 
L 289.867911 266.797322 
L 290.168796 266.826558 
L 290.469681 266.588465 
L 290.770565 267.83646 
L 291.07145 267.05273 
L 291.372335 267.712903 
L 291.673219 268.955911 
L 291.974104 268.598265 
L 292.274989 267.968903 
L 292.575873 267.984024 
L 292.876758 268.794992 
L 293.177643 268.624056 
L 293.478527 267.879082 
L 293.779412 268.595566 
L 294.080297 267.639725 
L 294.381181 268.885354 
L 294.682066 268.965976 
L 294.982951 268.303746 
L 295.283835 269.991129 
L 295.58472 269.781452 
L 295.885605 269.149454 
L 296.186489 269.237171 
L 296.487374 269.850527 
L 296.788258 269.787576 
L 297.089143 268.939331 
L 297.390028 269.219268 
L 297.690912 268.61021 
L 297.991797 269.806444 
L 298.292682 269.773621 
L 298.894451 270.760643 
L 299.195336 270.73542 
L 299.49622 270.999334 
L 299.797105 270.643034 
L 300.09799 270.711561 
L 300.398874 271.326598 
L 300.699759 270.71732 
L 301.000644 270.865049 
L 301.301528 269.745768 
L 301.602413 272.050689 
L 301.903298 270.856411 
L 302.204182 271.422669 
L 302.505067 272.233461 
L 303.106836 271.097681 
L 303.407721 271.214141 
L 303.708606 271.950515 
L 304.00949 271.967792 
L 304.310375 271.339218 
L 304.61126 272.136022 
L 304.912144 271.184952 
L 305.213029 272.729826 
L 305.513914 272.382186 
L 305.814798 272.578067 
L 306.115683 273.679001 
L 306.416568 273.307841 
L 306.717452 272.337276 
L 307.018337 273.120452 
L 307.319222 273.074052 
L 307.620106 273.327669 
L 307.920991 272.351368 
L 308.221875 273.010229 
L 308.52276 272.653498 
L 308.823645 273.320276 
L 309.425414 273.821474 
L 309.726299 274.427943 
L 310.027183 274.780681 
L 310.328068 274.029045 
L 310.628953 273.810931 
L 310.929837 274.1851 
L 311.230722 275.141728 
L 311.531607 273.65888 
L 311.832491 274.328643 
L 312.133376 273.063445 
L 312.434261 274.517297 
L 312.735145 274.967423 
L 313.03603 274.613943 
L 313.336915 275.234831 
L 313.637799 275.57277 
L 313.938684 275.321634 
L 314.239569 274.78566 
L 314.540453 275.25322 
L 314.841338 275.237957 
L 315.142223 274.631743 
L 315.443107 275.476364 
L 315.743992 274.707404 
L 316.044877 275.869564 
L 316.345761 275.251587 
L 316.646646 276.3196 
L 316.947531 276.551907 
L 317.248415 277.327052 
L 317.5493 275.959847 
L 317.850185 276.574345 
L 318.151069 275.96429 
L 318.451954 276.530432 
L 318.752838 276.414696 
L 319.053723 275.974944 
L 319.354608 275.802725 
L 319.655492 277.364085 
L 319.956377 276.093405 
L 320.257262 276.736025 
L 320.859031 278.320106 
L 321.159916 277.430395 
L 321.4608 277.256863 
L 321.761685 277.238344 
L 322.06257 277.458282 
L 322.363454 276.877355 
L 322.664339 277.903591 
L 322.965224 276.616952 
L 323.266108 278.069311 
L 323.566993 277.836642 
L 323.867878 277.898543 
L 324.469647 279.834994 
L 324.770532 277.879839 
L 325.071416 278.456254 
L 325.372301 278.107325 
L 325.673186 278.598459 
L 326.274955 278.192445 
L 326.57584 277.946683 
L 326.876724 279.324344 
L 327.177609 278.710391 
L 328.080263 279.924712 
L 328.381148 278.985689 
L 328.682032 279.611612 
L 328.982917 279.922507 
L 329.283801 278.920523 
L 329.584686 279.467435 
L 329.885571 279.580694 
L 330.186455 278.270864 
L 330.48734 279.798836 
L 330.788225 279.745444 
L 331.089109 280.309059 
L 331.389994 281.725021 
L 331.690879 281.174873 
L 331.991763 279.792144 
L 332.292648 280.52307 
L 332.593533 280.415581 
L 332.894417 281.137912 
L 333.195302 279.675844 
L 333.496187 280.958875 
L 333.797071 279.631811 
L 334.097956 280.880969 
L 334.398841 280.625119 
L 334.699725 281.516519 
L 335.00061 281.350541 
L 335.301495 281.92109 
L 335.602379 280.875735 
L 335.903264 281.434443 
L 336.204149 281.544213 
L 336.505033 281.85375 
L 336.805918 280.994111 
L 337.106803 281.449082 
L 337.407687 280.692836 
L 337.708572 281.768636 
L 338.310341 281.920491 
L 338.611226 282.685285 
L 338.912111 281.867298 
L 339.212995 282.104102 
L 339.51388 282.60557 
L 339.814765 282.286329 
L 340.115649 283.373047 
L 340.416534 281.824449 
L 340.717418 282.342327 
L 341.018303 280.967389 
L 341.319188 282.121563 
L 341.620072 282.818606 
L 341.920957 282.811386 
L 342.221842 283.580532 
L 342.522726 283.754286 
L 342.823611 282.328606 
L 343.124496 283.134573 
L 343.42538 283.289271 
L 344.628919 282.617966 
L 344.929804 283.881897 
L 345.230688 283.561704 
L 345.531573 283.713872 
L 345.832458 284.750022 
L 346.133342 284.819377 
L 346.735112 283.860971 
L 347.035996 284.314139 
L 347.336881 284.354388 
L 347.637766 283.087787 
L 347.93865 284.648749 
L 348.239535 283.064291 
L 348.54042 284.95781 
L 348.841304 284.54681 
L 349.443074 285.267641 
L 349.743958 286.239491 
L 350.044843 284.788649 
L 350.345728 285.460042 
L 350.646612 285.750655 
L 350.947497 285.068785 
L 351.549266 284.693044 
L 351.850151 284.174681 
L 352.151035 285.780307 
L 352.45192 285.476389 
L 353.053689 286.233449 
L 353.354574 286.354168 
L 353.655459 285.236082 
L 353.956343 286.4751 
L 354.257228 285.982975 
L 354.558113 286.146836 
L 354.858997 285.540836 
L 355.159882 286.146702 
L 355.460767 285.806152 
L 355.761651 286.230923 
L 356.062536 285.550821 
L 356.363421 286.659457 
L 356.664305 286.537203 
L 356.96519 286.948634 
L 357.566959 286.201672 
L 357.867844 287.087712 
L 358.168729 286.400813 
L 358.469613 286.450851 
L 358.770498 287.023164 
L 359.071383 286.084198 
L 359.974037 287.911899 
L 360.274921 287.723951 
L 360.575806 288.797747 
L 360.876691 287.261531 
L 361.177575 287.789574 
L 361.47846 287.596575 
L 361.779345 287.681803 
L 362.080229 287.019816 
L 362.381114 287.954753 
L 362.681998 286.34459 
L 362.982883 288.687632 
L 363.283768 287.880181 
L 363.584652 289.090446 
L 363.885537 289.213705 
L 364.186422 289.015896 
L 364.487306 288.228099 
L 364.788191 288.515882 
L 365.089076 289.076185 
L 365.38996 289.17833 
L 365.690845 288.317935 
L 365.99173 288.392991 
L 366.292614 287.749819 
L 366.894384 288.950454 
L 367.195268 288.799312 
L 367.496153 289.633064 
L 367.797038 290.135835 
L 368.097922 289.230711 
L 368.398807 288.927219 
L 368.699692 289.561324 
L 369.301461 289.367319 
L 369.602346 289.030336 
L 369.90323 288.088075 
L 370.204115 289.715791 
L 370.505 289.358397 
L 370.805884 289.295131 
L 371.106769 290.33666 
L 372.009423 289.890386 
L 372.310308 290.800145 
L 372.611192 289.824273 
L 372.912077 289.457256 
L 373.212961 290.50895 
L 373.513846 289.456037 
L 373.814731 290.580992 
L 374.115615 290.341108 
L 374.717385 291.44663 
L 375.018269 291.653236 
L 375.319154 290.328631 
L 375.620039 290.705696 
L 375.920923 290.814806 
L 376.221808 291.266813 
L 376.522693 290.204472 
L 376.823577 291.619353 
L 377.124462 289.295652 
L 377.425347 291.21395 
L 377.726231 291.195896 
L 378.027116 291.445384 
L 378.628885 292.388157 
L 379.230655 291.225704 
L 379.832424 291.192239 
L 380.133309 290.780664 
L 380.434193 291.279893 
L 380.735078 290.506144 
L 381.035963 291.923614 
L 381.336847 291.566096 
L 381.637732 292.738239 
L 381.938617 293.116775 
L 382.239501 293.088443 
L 382.540386 292.245044 
L 382.841271 292.386539 
L 383.142155 292.912742 
L 383.44304 292.69007 
L 383.743925 291.942853 
L 384.044809 291.795265 
L 384.345694 290.59357 
L 384.646578 293.165944 
L 384.947463 292.395158 
L 385.248348 293.258853 
L 385.549232 293.741765 
L 385.850117 293.331361 
L 386.151002 292.294557 
L 386.752771 293.924647 
L 387.053656 292.386259 
L 387.35454 293.04861 
L 387.95631 292.312513 
L 388.257194 293.042879 
L 388.558079 293.160522 
L 388.858964 293.90177 
L 389.159848 293.629351 
L 389.460733 293.965921 
L 389.761618 292.915751 
L 390.062502 294.043587 
L 390.363387 294.61171 
L 390.664272 293.303302 
L 390.965156 293.776803 
L 391.266041 293.619945 
L 391.566926 292.975298 
L 391.86781 293.640277 
L 392.168695 293.605971 
L 392.46958 293.766333 
L 392.770464 294.795896 
L 393.071349 294.952527 
L 393.372234 293.007221 
L 393.673118 294.188368 
L 393.974003 294.6835 
L 394.274888 294.718651 
L 394.575772 293.640979 
L 394.876657 295.160278 
L 395.177541 293.163233 
L 395.779311 294.432261 
L 396.38108 295.488 
L 397.283734 295.167875 
L 397.885503 295.250161 
L 398.487273 294.919988 
L 398.487273 294.919988 
" clip-path="url(#pe0c924d69d)" style="fill: none; stroke: #dc143c; stroke-width: 2; stroke-linecap: square"/>
   </g>
   <g id="line2d_27">
    <path d="M 73.832727 197.441223 
L 77.142459 197.441223 
L 77.443343 196.772827 
L 80.753074 196.772827 
L 81.053959 197.017482 
L 84.36369 197.017482 
L 84.664575 197.394323 
L 87.974306 197.394323 
L 88.275191 197.81762 
L 91.584922 197.81762 
L 91.885807 198.318613 
L 95.195538 198.318613 
L 95.496423 198.933427 
L 98.806154 198.933427 
L 99.107039 199.700678 
L 102.41677 199.700678 
L 102.717654 200.588841 
L 106.027386 200.588841 
L 106.32827 201.50563 
L 109.638002 201.50563 
L 109.938886 202.466125 
L 113.248617 202.466125 
L 113.549502 203.369846 
L 116.859233 203.369846 
L 117.160118 204.110937 
L 120.469849 204.110937 
L 120.770734 204.662215 
L 124.080465 204.662215 
L 124.38135 205.045897 
L 131.301697 205.103058 
L 131.602582 204.873892 
L 134.912313 204.873892 
L 135.213197 204.490846 
L 138.522929 204.490846 
L 138.823813 203.952364 
L 142.133545 203.952364 
L 142.434429 203.510089 
L 145.74416 203.510089 
L 146.045045 203.868804 
L 149.354776 203.868804 
L 149.655661 206.669458 
L 152.965392 206.669458 
L 153.266277 211.480206 
L 156.576008 211.480206 
L 156.876893 214.927118 
L 160.186624 214.927118 
L 160.487509 216.642454 
L 163.79724 216.642454 
L 164.098125 217.37184 
L 178.239703 217.330589 
L 178.540588 217.644792 
L 181.850319 217.644792 
L 182.151204 216.685933 
L 185.460935 216.685933 
L 185.76182 215.151239 
L 189.071551 215.151239 
L 189.372436 213.866984 
L 192.682167 213.866984 
L 192.983052 212.371904 
L 196.292783 212.371904 
L 196.593668 210.87312 
L 199.903399 210.87312 
L 200.204283 209.99282 
L 203.514015 209.99282 
L 203.814899 208.917299 
L 207.124631 208.917299 
L 207.425515 207.751661 
L 210.735246 207.751661 
L 211.036131 206.916477 
L 214.345862 206.916477 
L 214.646747 206.085474 
L 217.956478 206.085474 
L 218.257363 205.441523 
L 221.567094 205.441523 
L 221.867979 205.230357 
L 225.17771 205.230357 
L 225.478595 204.587826 
L 228.788326 204.587826 
L 229.089211 204.348115 
L 232.398942 204.348115 
L 232.699826 204.037173 
L 239.620174 203.926295 
L 239.921058 203.76954 
L 243.230789 203.76954 
L 243.531674 203.335277 
L 250.452021 203.358437 
L 250.752906 203.086292 
L 254.062637 203.086292 
L 254.363522 203.283571 
L 257.673253 203.283571 
L 257.974138 203.06545 
L 261.283869 203.06545 
L 261.584754 202.939015 
L 268.505101 202.830727 
L 268.805985 202.634653 
L 272.115717 202.634653 
L 272.416601 202.939515 
L 275.726332 202.939515 
L 276.027217 202.646551 
L 279.336948 202.646551 
L 279.637833 202.811125 
L 282.947564 202.811125 
L 283.248449 203.0517 
L 290.168796 203.065939 
L 290.469681 202.869445 
L 293.779412 202.869445 
L 294.080297 203.263604 
L 297.390028 203.263604 
L 297.690912 202.980607 
L 304.61126 203.050314 
L 304.912144 203.194443 
L 315.443107 203.234512 
L 315.743992 203.372698 
L 319.053723 203.372698 
L 319.354608 203.161828 
L 322.664339 203.161828 
L 322.965224 203.460599 
L 329.885571 203.411063 
L 330.48734 203.299833 
L 333.496187 203.299833 
L 333.797071 203.590489 
L 340.717418 203.637241 
L 341.018303 203.871634 
L 344.328034 203.871634 
L 344.628919 203.668617 
L 347.93865 203.668617 
L 348.239535 204.076561 
L 351.549266 204.076561 
L 351.850151 203.838701 
L 355.159882 203.838701 
L 355.460767 203.973001 
L 362.381114 203.953728 
L 362.681998 204.094107 
L 365.99173 204.094107 
L 366.292614 204.231895 
L 373.212961 204.16545 
L 373.814731 204.088834 
L 376.823577 204.088834 
L 377.124462 204.612282 
L 391.266041 204.629953 
L 391.566926 204.42881 
L 394.876657 204.42881 
L 395.177541 204.822197 
L 398.487273 204.822197 
L 398.487273 204.822197 
" clip-path="url(#pe0c924d69d)" style="fill: none; stroke: #ffff00; stroke-width: 3; stroke-linecap: square"/>
   </g>
   <g id="patch_3">
    <path d="M 57.6 307.584 
L 57.6 41.472 
" style="fill: none; stroke: #ffffff; stroke-linejoin: miter; stroke-linecap: square"/>
   </g>
   <g id="patch_4">
    <path d="M 414.72 307.584 
L 414.72 41.472 
" style="fill: none; stroke: #ffffff; stroke-linejoin: miter; stroke-linecap: square"/>
   </g>
   <g id="patch_5">
    <path d="M 57.6 307.584 
L 414.72 307.584 
" style="fill: none; stroke: #ffffff; stroke-linejoin: miter; stroke-linecap: square"/>
   </g>
   <g id="patch_6">
    <path d="M 57.6 41.472 
L 414.72 41.472 
" style="fill: none; stroke: #ffffff; stroke-linejoin: miter; stroke-linecap: square"/>
   </g>
   <g id="legend_1">
    <g id="patch_7">
     <path d="M 243.124687 302.584 
L 407.72 302.584 
Q 409.72 302.584 409.72 300.584 
L 409.72 257.549625 
Q 409.72 255.549625 407.72 255.549625 
L 243.124687 255.549625 
Q 241.124687 255.549625 241.124687 257.549625 
L 241.124687 300.584 
Q 241.124687 302.584 243.124687 302.584 
z
" style="fill: #e5e5e5; opacity: 0.8; stroke: #cccccc; stroke-width: 0.5; stroke-linejoin: miter"/>
    </g>
    <g id="line2d_28">
     <path d="M 245.124687 263.648062 
L 255.124687 263.648062 
L 265.124687 263.648062 
" style="fill: none; stroke: #6495ed; stroke-width: 2; stroke-linecap: square"/>
    </g>
    <g id="text_15">
     <!-- Generator loss -->
     <g transform="translate(273.124687 267.148062) scale(0.1 -0.1)">
      <defs>
       <path id="DejaVuSans-47" d="M 3809 666 
L 3809 1919 
L 2778 1919 
L 2778 2438 
L 4434 2438 
L 4434 434 
Q 4069 175 3628 42 
Q 3188 -91 2688 -91 
Q 1594 -91 976 548 
Q 359 1188 359 2328 
Q 359 3472 976 4111 
Q 1594 4750 2688 4750 
Q 3144 4750 3555 4637 
Q 3966 4525 4313 4306 
L 4313 3634 
Q 3963 3931 3569 4081 
Q 3175 4231 2741 4231 
Q 1884 4231 1454 3753 
Q 1025 3275 1025 2328 
Q 1025 1384 1454 906 
Q 1884 428 2741 428 
Q 3075 428 3337 486 
Q 3600 544 3809 666 
z
" transform="scale(0.015625)"/>
       <path id="DejaVuSans-65" d="M 3597 1894 
L 3597 1613 
L 953 1613 
Q 991 1019 1311 708 
Q 1631 397 2203 397 
Q 2534 397 2845 478 
Q 3156 559 3463 722 
L 3463 178 
Q 3153 47 2828 -22 
Q 2503 -91 2169 -91 
Q 1331 -91 842 396 
Q 353 884 353 1716 
Q 353 2575 817 3079 
Q 1281 3584 2069 3584 
Q 2775 3584 3186 3129 
Q 3597 2675 3597 1894 
z
M 3022 2063 
Q 3016 2534 2758 2815 
Q 2500 3097 2075 3097 
Q 1594 3097 1305 2825 
Q 1016 2553 972 2059 
L 3022 2063 
z
" transform="scale(0.015625)"/>
       <path id="DejaVuSans-6e" d="M 3513 2113 
L 3513 0 
L 2938 0 
L 2938 2094 
Q 2938 2591 2744 2837 
Q 2550 3084 2163 3084 
Q 1697 3084 1428 2787 
Q 1159 2491 1159 1978 
L 1159 0 
L 581 0 
L 581 3500 
L 1159 3500 
L 1159 2956 
Q 1366 3272 1645 3428 
Q 1925 3584 2291 3584 
Q 2894 3584 3203 3211 
Q 3513 2838 3513 2113 
z
" transform="scale(0.015625)"/>
       <path id="DejaVuSans-72" d="M 2631 2963 
Q 2534 3019 2420 3045 
Q 2306 3072 2169 3072 
Q 1681 3072 1420 2755 
Q 1159 2438 1159 1844 
L 1159 0 
L 581 0 
L 581 3500 
L 1159 3500 
L 1159 2956 
Q 1341 3275 1631 3429 
Q 1922 3584 2338 3584 
Q 2397 3584 2469 3576 
Q 2541 3569 2628 3553 
L 2631 2963 
z
" transform="scale(0.015625)"/>
       <path id="DejaVuSans-61" d="M 2194 1759 
Q 1497 1759 1228 1600 
Q 959 1441 959 1056 
Q 959 750 1161 570 
Q 1363 391 1709 391 
Q 2188 391 2477 730 
Q 2766 1069 2766 1631 
L 2766 1759 
L 2194 1759 
z
M 3341 1997 
L 3341 0 
L 2766 0 
L 2766 531 
Q 2569 213 2275 61 
Q 1981 -91 1556 -91 
Q 1019 -91 701 211 
Q 384 513 384 1019 
Q 384 1609 779 1909 
Q 1175 2209 1959 2209 
L 2766 2209 
L 2766 2266 
Q 2766 2663 2505 2880 
Q 2244 3097 1772 3097 
Q 1472 3097 1187 3025 
Q 903 2953 641 2809 
L 641 3341 
Q 956 3463 1253 3523 
Q 1550 3584 1831 3584 
Q 2591 3584 2966 3190 
Q 3341 2797 3341 1997 
z
" transform="scale(0.015625)"/>
       <path id="DejaVuSans-74" d="M 1172 4494 
L 1172 3500 
L 2356 3500 
L 2356 3053 
L 1172 3053 
L 1172 1153 
Q 1172 725 1289 603 
Q 1406 481 1766 481 
L 2356 481 
L 2356 0 
L 1766 0 
Q 1100 0 847 248 
Q 594 497 594 1153 
L 594 3053 
L 172 3053 
L 172 3500 
L 594 3500 
L 594 4494 
L 1172 4494 
z
" transform="scale(0.015625)"/>
       <path id="DejaVuSans-20" transform="scale(0.015625)"/>
       <path id="DejaVuSans-6c" d="M 603 4863 
L 1178 4863 
L 1178 0 
L 603 0 
L 603 4863 
z
" transform="scale(0.015625)"/>
      </defs>
      <use xlink:href="#DejaVuSans-47"/>
      <use xlink:href="#DejaVuSans-65" x="77.490234"/>
      <use xlink:href="#DejaVuSans-6e" x="139.013672"/>
      <use xlink:href="#DejaVuSans-65" x="202.392578"/>
      <use xlink:href="#DejaVuSans-72" x="263.916016"/>
      <use xlink:href="#DejaVuSans-61" x="305.029297"/>
      <use xlink:href="#DejaVuSans-74" x="366.308594"/>
      <use xlink:href="#DejaVuSans-6f" x="405.517578"/>
      <use xlink:href="#DejaVuSans-72" x="466.699219"/>
      <use xlink:href="#DejaVuSans-20" x="507.8125"/>
      <use xlink:href="#DejaVuSans-6c" x="539.599609"/>
      <use xlink:href="#DejaVuSans-6f" x="567.382812"/>
      <use xlink:href="#DejaVuSans-73" x="628.564453"/>
      <use xlink:href="#DejaVuSans-73" x="680.664062"/>
     </g>
    </g>
    <g id="line2d_29">
     <path d="M 245.124687 278.326188 
L 255.124687 278.326188 
L 265.124687 278.326188 
" style="fill: none; stroke: #dc143c; stroke-width: 2; stroke-linecap: square"/>
    </g>
    <g id="text_16">
     <!-- Average discriminator loss -->
     <g transform="translate(273.124687 281.826188) scale(0.1 -0.1)">
      <defs>
       <path id="DejaVuSans-41" d="M 2188 4044 
L 1331 1722 
L 3047 1722 
L 2188 4044 
z
M 1831 4666 
L 2547 4666 
L 4325 0 
L 3669 0 
L 3244 1197 
L 1141 1197 
L 716 0 
L 50 0 
L 1831 4666 
z
" transform="scale(0.015625)"/>
       <path id="DejaVuSans-76" d="M 191 3500 
L 800 3500 
L 1894 563 
L 2988 3500 
L 3597 3500 
L 2284 0 
L 1503 0 
L 191 3500 
z
" transform="scale(0.015625)"/>
       <path id="DejaVuSans-67" d="M 2906 1791 
Q 2906 2416 2648 2759 
Q 2391 3103 1925 3103 
Q 1463 3103 1205 2759 
Q 947 2416 947 1791 
Q 947 1169 1205 825 
Q 1463 481 1925 481 
Q 2391 481 2648 825 
Q 2906 1169 2906 1791 
z
M 3481 434 
Q 3481 -459 3084 -895 
Q 2688 -1331 1869 -1331 
Q 1566 -1331 1297 -1286 
Q 1028 -1241 775 -1147 
L 775 -588 
Q 1028 -725 1275 -790 
Q 1522 -856 1778 -856 
Q 2344 -856 2625 -561 
Q 2906 -266 2906 331 
L 2906 616 
Q 2728 306 2450 153 
Q 2172 0 1784 0 
Q 1141 0 747 490 
Q 353 981 353 1791 
Q 353 2603 747 3093 
Q 1141 3584 1784 3584 
Q 2172 3584 2450 3431 
Q 2728 3278 2906 2969 
L 2906 3500 
L 3481 3500 
L 3481 434 
z
" transform="scale(0.015625)"/>
       <path id="DejaVuSans-64" d="M 2906 2969 
L 2906 4863 
L 3481 4863 
L 3481 0 
L 2906 0 
L 2906 525 
Q 2725 213 2448 61 
Q 2172 -91 1784 -91 
Q 1150 -91 751 415 
Q 353 922 353 1747 
Q 353 2572 751 3078 
Q 1150 3584 1784 3584 
Q 2172 3584 2448 3432 
Q 2725 3281 2906 2969 
z
M 947 1747 
Q 947 1113 1208 752 
Q 1469 391 1925 391 
Q 2381 391 2643 752 
Q 2906 1113 2906 1747 
Q 2906 2381 2643 2742 
Q 2381 3103 1925 3103 
Q 1469 3103 1208 2742 
Q 947 2381 947 1747 
z
" transform="scale(0.015625)"/>
       <path id="DejaVuSans-69" d="M 603 3500 
L 1178 3500 
L 1178 0 
L 603 0 
L 603 3500 
z
M 603 4863 
L 1178 4863 
L 1178 4134 
L 603 4134 
L 603 4863 
z
" transform="scale(0.015625)"/>
       <path id="DejaVuSans-6d" d="M 3328 2828 
Q 3544 3216 3844 3400 
Q 4144 3584 4550 3584 
Q 5097 3584 5394 3201 
Q 5691 2819 5691 2113 
L 5691 0 
L 5113 0 
L 5113 2094 
Q 5113 2597 4934 2840 
Q 4756 3084 4391 3084 
Q 3944 3084 3684 2787 
Q 3425 2491 3425 1978 
L 3425 0 
L 2847 0 
L 2847 2094 
Q 2847 2600 2669 2842 
Q 2491 3084 2119 3084 
Q 1678 3084 1418 2786 
Q 1159 2488 1159 1978 
L 1159 0 
L 581 0 
L 581 3500 
L 1159 3500 
L 1159 2956 
Q 1356 3278 1631 3431 
Q 1906 3584 2284 3584 
Q 2666 3584 2933 3390 
Q 3200 3197 3328 2828 
z
" transform="scale(0.015625)"/>
      </defs>
      <use xlink:href="#DejaVuSans-41"/>
      <use xlink:href="#DejaVuSans-76" x="62.533203"/>
      <use xlink:href="#DejaVuSans-65" x="121.712891"/>
      <use xlink:href="#DejaVuSans-72" x="183.236328"/>
      <use xlink:href="#DejaVuSans-61" x="224.349609"/>
      <use xlink:href="#DejaVuSans-67" x="285.628906"/>
      <use xlink:href="#DejaVuSans-65" x="349.105469"/>
      <use xlink:href="#DejaVuSans-20" x="410.628906"/>
      <use xlink:href="#DejaVuSans-64" x="442.416016"/>
      <use xlink:href="#DejaVuSans-69" x="505.892578"/>
      <use xlink:href="#DejaVuSans-73" x="533.675781"/>
      <use xlink:href="#DejaVuSans-63" x="585.775391"/>
      <use xlink:href="#DejaVuSans-72" x="640.755859"/>
      <use xlink:href="#DejaVuSans-69" x="681.869141"/>
      <use xlink:href="#DejaVuSans-6d" x="709.652344"/>
      <use xlink:href="#DejaVuSans-69" x="807.064453"/>
      <use xlink:href="#DejaVuSans-6e" x="834.847656"/>
      <use xlink:href="#DejaVuSans-61" x="898.226562"/>
      <use xlink:href="#DejaVuSans-74" x="959.505859"/>
      <use xlink:href="#DejaVuSans-6f" x="998.714844"/>
      <use xlink:href="#DejaVuSans-72" x="1059.896484"/>
      <use xlink:href="#DejaVuSans-20" x="1101.009766"/>
      <use xlink:href="#DejaVuSans-6c" x="1132.796875"/>
      <use xlink:href="#DejaVuSans-6f" x="1160.580078"/>
      <use xlink:href="#DejaVuSans-73" x="1221.761719"/>
      <use xlink:href="#DejaVuSans-73" x="1273.861328"/>
     </g>
    </g>
    <g id="line2d_30">
     <path d="M 245.124687 293.004312 
L 255.124687 293.004312 
L 265.124687 293.004312 
" style="fill: none; stroke: #ffff00; stroke-width: 3; stroke-linecap: square"/>
    </g>
    <g id="text_17">
     <!-- ROC AUC -->
     <g transform="translate(273.124687 296.504312) scale(0.1 -0.1)">
      <defs>
       <path id="DejaVuSans-52" d="M 2841 2188 
Q 3044 2119 3236 1894 
Q 3428 1669 3622 1275 
L 4263 0 
L 3584 0 
L 2988 1197 
Q 2756 1666 2539 1819 
Q 2322 1972 1947 1972 
L 1259 1972 
L 1259 0 
L 628 0 
L 628 4666 
L 2053 4666 
Q 2853 4666 3247 4331 
Q 3641 3997 3641 3322 
Q 3641 2881 3436 2590 
Q 3231 2300 2841 2188 
z
M 1259 4147 
L 1259 2491 
L 2053 2491 
Q 2509 2491 2742 2702 
Q 2975 2913 2975 3322 
Q 2975 3731 2742 3939 
Q 2509 4147 2053 4147 
L 1259 4147 
z
" transform="scale(0.015625)"/>
       <path id="DejaVuSans-4f" d="M 2522 4238 
Q 1834 4238 1429 3725 
Q 1025 3213 1025 2328 
Q 1025 1447 1429 934 
Q 1834 422 2522 422 
Q 3209 422 3611 934 
Q 4013 1447 4013 2328 
Q 4013 3213 3611 3725 
Q 3209 4238 2522 4238 
z
M 2522 4750 
Q 3503 4750 4090 4092 
Q 4678 3434 4678 2328 
Q 4678 1225 4090 567 
Q 3503 -91 2522 -91 
Q 1538 -91 948 565 
Q 359 1222 359 2328 
Q 359 3434 948 4092 
Q 1538 4750 2522 4750 
z
" transform="scale(0.015625)"/>
       <path id="DejaVuSans-43" d="M 4122 4306 
L 4122 3641 
Q 3803 3938 3442 4084 
Q 3081 4231 2675 4231 
Q 1875 4231 1450 3742 
Q 1025 3253 1025 2328 
Q 1025 1406 1450 917 
Q 1875 428 2675 428 
Q 3081 428 3442 575 
Q 3803 722 4122 1019 
L 4122 359 
Q 3791 134 3420 21 
Q 3050 -91 2638 -91 
Q 1578 -91 968 557 
Q 359 1206 359 2328 
Q 359 3453 968 4101 
Q 1578 4750 2638 4750 
Q 3056 4750 3426 4639 
Q 3797 4528 4122 4306 
z
" transform="scale(0.015625)"/>
       <path id="DejaVuSans-55" d="M 556 4666 
L 1191 4666 
L 1191 1831 
Q 1191 1081 1462 751 
Q 1734 422 2344 422 
Q 2950 422 3222 751 
Q 3494 1081 3494 1831 
L 3494 4666 
L 4128 4666 
L 4128 1753 
Q 4128 841 3676 375 
Q 3225 -91 2344 -91 
Q 1459 -91 1007 375 
Q 556 841 556 1753 
L 556 4666 
z
" transform="scale(0.015625)"/>
      </defs>
      <use xlink:href="#DejaVuSans-52"/>
      <use xlink:href="#DejaVuSans-4f" x="69.482422"/>
      <use xlink:href="#DejaVuSans-43" x="148.193359"/>
      <use xlink:href="#DejaVuSans-20" x="218.017578"/>
      <use xlink:href="#DejaVuSans-41" x="249.804688"/>
      <use xlink:href="#DejaVuSans-55" x="318.212891"/>
      <use xlink:href="#DejaVuSans-43" x="391.40625"/>
     </g>
    </g>
   </g>
  </g>
 </g>
 <defs>
  <clipPath id="pe0c924d69d">
   <rect x="57.6" y="41.472" width="357.12" height="266.112"/>
  </clipPath>
 </defs>
</svg>
