<?xml version="1.0" encoding="utf-8" standalone="no"?>
<!DOCTYPE svg PUBLIC "-//W3C//DTD SVG 1.1//EN"
  "http://www.w3.org/Graphics/SVG/1.1/DTD/svg11.dtd">
<svg xmlns:xlink="http://www.w3.org/1999/xlink" width="460.8pt" height="345.6pt" viewBox="0 0 460.8 345.6" xmlns="http://www.w3.org/2000/svg" version="1.1">
 <metadata>
  <rdf:RDF xmlns:dc="http://purl.org/dc/elements/1.1/" xmlns:cc="http://creativecommons.org/ns#" xmlns:rdf="http://www.w3.org/1999/02/22-rdf-syntax-ns#">
   <cc:Work>
    <dc:type rdf:resource="http://purl.org/dc/dcmitype/StillImage"/>
    <dc:date>2023-07-12T01:22:03.762571</dc:date>
    <dc:format>image/svg+xml</dc:format>
    <dc:creator>
     <cc:Agent>
      <dc:title>Matplotlib v3.7.1, https://matplotlib.org/</dc:title>
     </cc:Agent>
    </dc:creator>
   </cc:Work>
  </rdf:RDF>
 </metadata>
 <defs>
  <style type="text/css">*{stroke-linejoin: round; stroke-linecap: butt}</style>
 </defs>
 <g id="figure_1">
  <g id="patch_1">
   <path d="M 0 345.6 
L 460.8 345.6 
L 460.8 0 
L 0 0 
z
" style="fill: #ffffff"/>
  </g>
  <g id="axes_1">
   <g id="patch_2">
    <path d="M 57.6 307.584 
L 414.72 307.584 
L 414.72 41.472 
L 57.6 41.472 
z
" style="fill: #e5e5e5"/>
   </g>
   <g id="matplotlib.axis_1">
    <g id="xtick_1">
     <g id="line2d_1">
      <path d="M 73.531843 307.584 
L 73.531843 41.472 
" clip-path="url(#pde522a151c)" style="fill: none; stroke: #ffffff; stroke-width: 0.8; stroke-linecap: square"/>
     </g>
     <g id="line2d_2">
      <defs>
       <path id="m6986a73e39" d="M 0 0 
L 0 3.5 
" style="stroke: #555555; stroke-width: 0.8"/>
      </defs>
      <g>
       <use xlink:href="#m6986a73e39" x="73.531843" y="307.584" style="fill: #555555; stroke: #555555; stroke-width: 0.8"/>
      </g>
     </g>
     <g id="text_1">
      <!-- 0 -->
      <g style="fill: #555555" transform="translate(70.350593 322.182437) scale(0.1 -0.1)">
       <defs>
        <path id="DejaVuSans-30" d="M 2034 4250 
Q 1547 4250 1301 3770 
Q 1056 3291 1056 2328 
Q 1056 1369 1301 889 
Q 1547 409 2034 409 
Q 2525 409 2770 889 
Q 3016 1369 3016 2328 
Q 3016 3291 2770 3770 
Q 2525 4250 2034 4250 
z
M 2034 4750 
Q 2819 4750 3233 4129 
Q 3647 3509 3647 2328 
Q 3647 1150 3233 529 
Q 2819 -91 2034 -91 
Q 1250 -91 836 529 
Q 422 1150 422 2328 
Q 422 3509 836 4129 
Q 1250 4750 2034 4750 
z
" transform="scale(0.015625)"/>
       </defs>
       <use xlink:href="#DejaVuSans-30"/>
      </g>
     </g>
    </g>
    <g id="xtick_2">
     <g id="line2d_3">
      <path d="M 133.708774 307.584 
L 133.708774 41.472 
" clip-path="url(#pde522a151c)" style="fill: none; stroke: #ffffff; stroke-width: 0.8; stroke-linecap: square"/>
     </g>
     <g id="line2d_4">
      <g>
       <use xlink:href="#m6986a73e39" x="133.708774" y="307.584" style="fill: #555555; stroke: #555555; stroke-width: 0.8"/>
      </g>
     </g>
     <g id="text_2">
      <!-- 200 -->
      <g style="fill: #555555" transform="translate(124.165024 322.182437) scale(0.1 -0.1)">
       <defs>
        <path id="DejaVuSans-32" d="M 1228 531 
L 3431 531 
L 3431 0 
L 469 0 
L 469 531 
Q 828 903 1448 1529 
Q 2069 2156 2228 2338 
Q 2531 2678 2651 2914 
Q 2772 3150 2772 3378 
Q 2772 3750 2511 3984 
Q 2250 4219 1831 4219 
Q 1534 4219 1204 4116 
Q 875 4013 500 3803 
L 500 4441 
Q 881 4594 1212 4672 
Q 1544 4750 1819 4750 
Q 2544 4750 2975 4387 
Q 3406 4025 3406 3419 
Q 3406 3131 3298 2873 
Q 3191 2616 2906 2266 
Q 2828 2175 2409 1742 
Q 1991 1309 1228 531 
z
" transform="scale(0.015625)"/>
       </defs>
       <use xlink:href="#DejaVuSans-32"/>
       <use xlink:href="#DejaVuSans-30" x="63.623047"/>
       <use xlink:href="#DejaVuSans-30" x="127.246094"/>
      </g>
     </g>
    </g>
    <g id="xtick_3">
     <g id="line2d_5">
      <path d="M 193.885706 307.584 
L 193.885706 41.472 
" clip-path="url(#pde522a151c)" style="fill: none; stroke: #ffffff; stroke-width: 0.8; stroke-linecap: square"/>
     </g>
     <g id="line2d_6">
      <g>
       <use xlink:href="#m6986a73e39" x="193.885706" y="307.584" style="fill: #555555; stroke: #555555; stroke-width: 0.8"/>
      </g>
     </g>
     <g id="text_3">
      <!-- 400 -->
      <g style="fill: #555555" transform="translate(184.341956 322.182437) scale(0.1 -0.1)">
       <defs>
        <path id="DejaVuSans-34" d="M 2419 4116 
L 825 1625 
L 2419 1625 
L 2419 4116 
z
M 2253 4666 
L 3047 4666 
L 3047 1625 
L 3713 1625 
L 3713 1100 
L 3047 1100 
L 3047 0 
L 2419 0 
L 2419 1100 
L 313 1100 
L 313 1709 
L 2253 4666 
z
" transform="scale(0.015625)"/>
       </defs>
       <use xlink:href="#DejaVuSans-34"/>
       <use xlink:href="#DejaVuSans-30" x="63.623047"/>
       <use xlink:href="#DejaVuSans-30" x="127.246094"/>
      </g>
     </g>
    </g>
    <g id="xtick_4">
     <g id="line2d_7">
      <path d="M 254.062637 307.584 
L 254.062637 41.472 
" clip-path="url(#pde522a151c)" style="fill: none; stroke: #ffffff; stroke-width: 0.8; stroke-linecap: square"/>
     </g>
     <g id="line2d_8">
      <g>
       <use xlink:href="#m6986a73e39" x="254.062637" y="307.584" style="fill: #555555; stroke: #555555; stroke-width: 0.8"/>
      </g>
     </g>
     <g id="text_4">
      <!-- 600 -->
      <g style="fill: #555555" transform="translate(244.518887 322.182437) scale(0.1 -0.1)">
       <defs>
        <path id="DejaVuSans-36" d="M 2113 2584 
Q 1688 2584 1439 2293 
Q 1191 2003 1191 1497 
Q 1191 994 1439 701 
Q 1688 409 2113 409 
Q 2538 409 2786 701 
Q 3034 994 3034 1497 
Q 3034 2003 2786 2293 
Q 2538 2584 2113 2584 
z
M 3366 4563 
L 3366 3988 
Q 3128 4100 2886 4159 
Q 2644 4219 2406 4219 
Q 1781 4219 1451 3797 
Q 1122 3375 1075 2522 
Q 1259 2794 1537 2939 
Q 1816 3084 2150 3084 
Q 2853 3084 3261 2657 
Q 3669 2231 3669 1497 
Q 3669 778 3244 343 
Q 2819 -91 2113 -91 
Q 1303 -91 875 529 
Q 447 1150 447 2328 
Q 447 3434 972 4092 
Q 1497 4750 2381 4750 
Q 2619 4750 2861 4703 
Q 3103 4656 3366 4563 
z
" transform="scale(0.015625)"/>
       </defs>
       <use xlink:href="#DejaVuSans-36"/>
       <use xlink:href="#DejaVuSans-30" x="63.623047"/>
       <use xlink:href="#DejaVuSans-30" x="127.246094"/>
      </g>
     </g>
    </g>
    <g id="xtick_5">
     <g id="line2d_9">
      <path d="M 314.239569 307.584 
L 314.239569 41.472 
" clip-path="url(#pde522a151c)" style="fill: none; stroke: #ffffff; stroke-width: 0.8; stroke-linecap: square"/>
     </g>
     <g id="line2d_10">
      <g>
       <use xlink:href="#m6986a73e39" x="314.239569" y="307.584" style="fill: #555555; stroke: #555555; stroke-width: 0.8"/>
      </g>
     </g>
     <g id="text_5">
      <!-- 800 -->
      <g style="fill: #555555" transform="translate(304.695819 322.182437) scale(0.1 -0.1)">
       <defs>
        <path id="DejaVuSans-38" d="M 2034 2216 
Q 1584 2216 1326 1975 
Q 1069 1734 1069 1313 
Q 1069 891 1326 650 
Q 1584 409 2034 409 
Q 2484 409 2743 651 
Q 3003 894 3003 1313 
Q 3003 1734 2745 1975 
Q 2488 2216 2034 2216 
z
M 1403 2484 
Q 997 2584 770 2862 
Q 544 3141 544 3541 
Q 544 4100 942 4425 
Q 1341 4750 2034 4750 
Q 2731 4750 3128 4425 
Q 3525 4100 3525 3541 
Q 3525 3141 3298 2862 
Q 3072 2584 2669 2484 
Q 3125 2378 3379 2068 
Q 3634 1759 3634 1313 
Q 3634 634 3220 271 
Q 2806 -91 2034 -91 
Q 1263 -91 848 271 
Q 434 634 434 1313 
Q 434 1759 690 2068 
Q 947 2378 1403 2484 
z
M 1172 3481 
Q 1172 3119 1398 2916 
Q 1625 2713 2034 2713 
Q 2441 2713 2670 2916 
Q 2900 3119 2900 3481 
Q 2900 3844 2670 4047 
Q 2441 4250 2034 4250 
Q 1625 4250 1398 4047 
Q 1172 3844 1172 3481 
z
" transform="scale(0.015625)"/>
       </defs>
       <use xlink:href="#DejaVuSans-38"/>
       <use xlink:href="#DejaVuSans-30" x="63.623047"/>
       <use xlink:href="#DejaVuSans-30" x="127.246094"/>
      </g>
     </g>
    </g>
    <g id="xtick_6">
     <g id="line2d_11">
      <path d="M 374.4165 307.584 
L 374.4165 41.472 
" clip-path="url(#pde522a151c)" style="fill: none; stroke: #ffffff; stroke-width: 0.8; stroke-linecap: square"/>
     </g>
     <g id="line2d_12">
      <g>
       <use xlink:href="#m6986a73e39" x="374.4165" y="307.584" style="fill: #555555; stroke: #555555; stroke-width: 0.8"/>
      </g>
     </g>
     <g id="text_6">
      <!-- 1000 -->
      <g style="fill: #555555" transform="translate(361.6915 322.182437) scale(0.1 -0.1)">
       <defs>
        <path id="DejaVuSans-31" d="M 794 531 
L 1825 531 
L 1825 4091 
L 703 3866 
L 703 4441 
L 1819 4666 
L 2450 4666 
L 2450 531 
L 3481 531 
L 3481 0 
L 794 0 
L 794 531 
z
" transform="scale(0.015625)"/>
       </defs>
       <use xlink:href="#DejaVuSans-31"/>
       <use xlink:href="#DejaVuSans-30" x="63.623047"/>
       <use xlink:href="#DejaVuSans-30" x="127.246094"/>
       <use xlink:href="#DejaVuSans-30" x="190.869141"/>
      </g>
     </g>
    </g>
    <g id="text_7">
     <!-- Epoch -->
     <g style="fill: #555555" transform="translate(217.786875 337.38025) scale(0.12 -0.12)">
      <defs>
       <path id="DejaVuSans-45" d="M 628 4666 
L 3578 4666 
L 3578 4134 
L 1259 4134 
L 1259 2753 
L 3481 2753 
L 3481 2222 
L 1259 2222 
L 1259 531 
L 3634 531 
L 3634 0 
L 628 0 
L 628 4666 
z
" transform="scale(0.015625)"/>
       <path id="DejaVuSans-70" d="M 1159 525 
L 1159 -1331 
L 581 -1331 
L 581 3500 
L 1159 3500 
L 1159 2969 
Q 1341 3281 1617 3432 
Q 1894 3584 2278 3584 
Q 2916 3584 3314 3078 
Q 3713 2572 3713 1747 
Q 3713 922 3314 415 
Q 2916 -91 2278 -91 
Q 1894 -91 1617 61 
Q 1341 213 1159 525 
z
M 3116 1747 
Q 3116 2381 2855 2742 
Q 2594 3103 2138 3103 
Q 1681 3103 1420 2742 
Q 1159 2381 1159 1747 
Q 1159 1113 1420 752 
Q 1681 391 2138 391 
Q 2594 391 2855 752 
Q 3116 1113 3116 1747 
z
" transform="scale(0.015625)"/>
       <path id="DejaVuSans-6f" d="M 1959 3097 
Q 1497 3097 1228 2736 
Q 959 2375 959 1747 
Q 959 1119 1226 758 
Q 1494 397 1959 397 
Q 2419 397 2687 759 
Q 2956 1122 2956 1747 
Q 2956 2369 2687 2733 
Q 2419 3097 1959 3097 
z
M 1959 3584 
Q 2709 3584 3137 3096 
Q 3566 2609 3566 1747 
Q 3566 888 3137 398 
Q 2709 -91 1959 -91 
Q 1206 -91 779 398 
Q 353 888 353 1747 
Q 353 2609 779 3096 
Q 1206 3584 1959 3584 
z
" transform="scale(0.015625)"/>
       <path id="DejaVuSans-63" d="M 3122 3366 
L 3122 2828 
Q 2878 2963 2633 3030 
Q 2388 3097 2138 3097 
Q 1578 3097 1268 2742 
Q 959 2388 959 1747 
Q 959 1106 1268 751 
Q 1578 397 2138 397 
Q 2388 397 2633 464 
Q 2878 531 3122 666 
L 3122 134 
Q 2881 22 2623 -34 
Q 2366 -91 2075 -91 
Q 1284 -91 818 406 
Q 353 903 353 1747 
Q 353 2603 823 3093 
Q 1294 3584 2113 3584 
Q 2378 3584 2631 3529 
Q 2884 3475 3122 3366 
z
" transform="scale(0.015625)"/>
       <path id="DejaVuSans-68" d="M 3513 2113 
L 3513 0 
L 2938 0 
L 2938 2094 
Q 2938 2591 2744 2837 
Q 2550 3084 2163 3084 
Q 1697 3084 1428 2787 
Q 1159 2491 1159 1978 
L 1159 0 
L 581 0 
L 581 4863 
L 1159 4863 
L 1159 2956 
Q 1366 3272 1645 3428 
Q 1925 3584 2291 3584 
Q 2894 3584 3203 3211 
Q 3513 2838 3513 2113 
z
" transform="scale(0.015625)"/>
      </defs>
      <use xlink:href="#DejaVuSans-45"/>
      <use xlink:href="#DejaVuSans-70" x="63.183594"/>
      <use xlink:href="#DejaVuSans-6f" x="126.660156"/>
      <use xlink:href="#DejaVuSans-63" x="187.841797"/>
      <use xlink:href="#DejaVuSans-68" x="242.822266"/>
     </g>
    </g>
   </g>
   <g id="matplotlib.axis_2">
    <g id="ytick_1">
     <g id="line2d_13">
      <path d="M 57.6 277.516848 
L 414.72 277.516848 
" clip-path="url(#pde522a151c)" style="fill: none; stroke: #ffffff; stroke-width: 0.8; stroke-linecap: square"/>
     </g>
     <g id="line2d_14">
      <defs>
       <path id="md00da39edd" d="M 0 0 
L -3.5 0 
" style="stroke: #555555; stroke-width: 0.8"/>
      </defs>
      <g>
       <use xlink:href="#md00da39edd" x="57.6" y="277.516848" style="fill: #555555; stroke: #555555; stroke-width: 0.8"/>
      </g>
     </g>
     <g id="text_8">
      <!-- 0.4 -->
      <g style="fill: #555555" transform="translate(34.696875 281.316067) scale(0.1 -0.1)">
       <defs>
        <path id="DejaVuSans-2e" d="M 684 794 
L 1344 794 
L 1344 0 
L 684 0 
L 684 794 
z
" transform="scale(0.015625)"/>
       </defs>
       <use xlink:href="#DejaVuSans-30"/>
       <use xlink:href="#DejaVuSans-2e" x="63.623047"/>
       <use xlink:href="#DejaVuSans-34" x="95.410156"/>
      </g>
     </g>
    </g>
    <g id="ytick_2">
     <g id="line2d_15">
      <path d="M 57.6 237.170223 
L 414.72 237.170223 
" clip-path="url(#pde522a151c)" style="fill: none; stroke: #ffffff; stroke-width: 0.8; stroke-linecap: square"/>
     </g>
     <g id="line2d_16">
      <g>
       <use xlink:href="#md00da39edd" x="57.6" y="237.170223" style="fill: #555555; stroke: #555555; stroke-width: 0.8"/>
      </g>
     </g>
     <g id="text_9">
      <!-- 0.6 -->
      <g style="fill: #555555" transform="translate(34.696875 240.969442) scale(0.1 -0.1)">
       <use xlink:href="#DejaVuSans-30"/>
       <use xlink:href="#DejaVuSans-2e" x="63.623047"/>
       <use xlink:href="#DejaVuSans-36" x="95.410156"/>
      </g>
     </g>
    </g>
    <g id="ytick_3">
     <g id="line2d_17">
      <path d="M 57.6 196.823598 
L 414.72 196.823598 
" clip-path="url(#pde522a151c)" style="fill: none; stroke: #ffffff; stroke-width: 0.8; stroke-linecap: square"/>
     </g>
     <g id="line2d_18">
      <g>
       <use xlink:href="#md00da39edd" x="57.6" y="196.823598" style="fill: #555555; stroke: #555555; stroke-width: 0.8"/>
      </g>
     </g>
     <g id="text_10">
      <!-- 0.8 -->
      <g style="fill: #555555" transform="translate(34.696875 200.622817) scale(0.1 -0.1)">
       <use xlink:href="#DejaVuSans-30"/>
       <use xlink:href="#DejaVuSans-2e" x="63.623047"/>
       <use xlink:href="#DejaVuSans-38" x="95.410156"/>
      </g>
     </g>
    </g>
    <g id="ytick_4">
     <g id="line2d_19">
      <path d="M 57.6 156.476974 
L 414.72 156.476974 
" clip-path="url(#pde522a151c)" style="fill: none; stroke: #ffffff; stroke-width: 0.8; stroke-linecap: square"/>
     </g>
     <g id="line2d_20">
      <g>
       <use xlink:href="#md00da39edd" x="57.6" y="156.476974" style="fill: #555555; stroke: #555555; stroke-width: 0.8"/>
      </g>
     </g>
     <g id="text_11">
      <!-- 1.0 -->
      <g style="fill: #555555" transform="translate(34.696875 160.276192) scale(0.1 -0.1)">
       <use xlink:href="#DejaVuSans-31"/>
       <use xlink:href="#DejaVuSans-2e" x="63.623047"/>
       <use xlink:href="#DejaVuSans-30" x="95.410156"/>
      </g>
     </g>
    </g>
    <g id="ytick_5">
     <g id="line2d_21">
      <path d="M 57.6 116.130349 
L 414.72 116.130349 
" clip-path="url(#pde522a151c)" style="fill: none; stroke: #ffffff; stroke-width: 0.8; stroke-linecap: square"/>
     </g>
     <g id="line2d_22">
      <g>
       <use xlink:href="#md00da39edd" x="57.6" y="116.130349" style="fill: #555555; stroke: #555555; stroke-width: 0.8"/>
      </g>
     </g>
     <g id="text_12">
      <!-- 1.2 -->
      <g style="fill: #555555" transform="translate(34.696875 119.929568) scale(0.1 -0.1)">
       <use xlink:href="#DejaVuSans-31"/>
       <use xlink:href="#DejaVuSans-2e" x="63.623047"/>
       <use xlink:href="#DejaVuSans-32" x="95.410156"/>
      </g>
     </g>
    </g>
    <g id="ytick_6">
     <g id="line2d_23">
      <path d="M 57.6 75.783724 
L 414.72 75.783724 
" clip-path="url(#pde522a151c)" style="fill: none; stroke: #ffffff; stroke-width: 0.8; stroke-linecap: square"/>
     </g>
     <g id="line2d_24">
      <g>
       <use xlink:href="#md00da39edd" x="57.6" y="75.783724" style="fill: #555555; stroke: #555555; stroke-width: 0.8"/>
      </g>
     </g>
     <g id="text_13">
      <!-- 1.4 -->
      <g style="fill: #555555" transform="translate(34.696875 79.582943) scale(0.1 -0.1)">
       <use xlink:href="#DejaVuSans-31"/>
       <use xlink:href="#DejaVuSans-2e" x="63.623047"/>
       <use xlink:href="#DejaVuSans-34" x="95.410156"/>
      </g>
     </g>
    </g>
    <g id="text_14">
     <!-- Loss -->
     <g style="fill: #555555" transform="translate(28.20125 187.688625) rotate(-90) scale(0.12 -0.12)">
      <defs>
       <path id="DejaVuSans-4c" d="M 628 4666 
L 1259 4666 
L 1259 531 
L 3531 531 
L 3531 0 
L 628 0 
L 628 4666 
z
" transform="scale(0.015625)"/>
       <path id="DejaVuSans-73" d="M 2834 3397 
L 2834 2853 
Q 2591 2978 2328 3040 
Q 2066 3103 1784 3103 
Q 1356 3103 1142 2972 
Q 928 2841 928 2578 
Q 928 2378 1081 2264 
Q 1234 2150 1697 2047 
L 1894 2003 
Q 2506 1872 2764 1633 
Q 3022 1394 3022 966 
Q 3022 478 2636 193 
Q 2250 -91 1575 -91 
Q 1294 -91 989 -36 
Q 684 19 347 128 
L 347 722 
Q 666 556 975 473 
Q 1284 391 1588 391 
Q 1994 391 2212 530 
Q 2431 669 2431 922 
Q 2431 1156 2273 1281 
Q 2116 1406 1581 1522 
L 1381 1569 
Q 847 1681 609 1914 
Q 372 2147 372 2553 
Q 372 3047 722 3315 
Q 1072 3584 1716 3584 
Q 2034 3584 2315 3537 
Q 2597 3491 2834 3397 
z
" transform="scale(0.015625)"/>
      </defs>
      <use xlink:href="#DejaVuSans-4c"/>
      <use xlink:href="#DejaVuSans-6f" x="53.962891"/>
      <use xlink:href="#DejaVuSans-73" x="115.144531"/>
      <use xlink:href="#DejaVuSans-73" x="167.244141"/>
     </g>
    </g>
   </g>
   <g id="line2d_25">
    <path d="M 73.832727 218.386037 
L 75.036266 207.93526 
L 76.540689 195.205002 
L 78.345997 181.324963 
L 78.947766 177.278232 
L 79.549536 172.565034 
L 82.859267 152.316469 
L 84.062806 145.49469 
L 84.36369 144.609442 
L 85.868114 137.572165 
L 86.168998 137.208672 
L 86.469883 135.443467 
L 86.770768 134.537393 
L 87.071652 132.258465 
L 87.372537 132.412639 
L 87.974306 129.997092 
L 88.275191 128.862557 
L 88.576075 128.633664 
L 89.177845 126.334415 
L 89.478729 126.011612 
L 89.779614 126.016518 
L 90.080499 124.490258 
L 90.682268 123.104057 
L 90.983153 122.917874 
L 91.284037 122.158688 
L 91.584922 122.498276 
L 91.885807 122.006293 
L 92.186691 120.598664 
L 92.487576 121.192685 
L 93.089345 119.444338 
L 93.39023 119.827911 
L 93.691115 118.417252 
L 93.991999 118.821699 
L 94.292884 118.814629 
L 94.593769 118.088149 
L 95.195538 119.064276 
L 95.496423 118.443537 
L 96.399077 119.29769 
L 96.699961 118.085503 
L 97.000846 119.083947 
L 97.301731 117.456684 
L 97.602615 118.675581 
L 97.9035 117.865147 
L 98.505269 119.684943 
L 98.806154 118.905676 
L 99.107039 119.659764 
L 99.708808 120.231468 
L 100.009692 120.293657 
L 100.310577 121.197903 
L 100.611462 120.509636 
L 100.912346 120.762001 
L 101.213231 121.553965 
L 101.514116 120.938348 
L 101.815 121.741423 
L 102.115885 123.186976 
L 102.41677 123.719072 
L 102.717654 123.853912 
L 103.018539 124.870681 
L 103.319424 123.921656 
L 104.222078 126.407859 
L 104.522962 125.575325 
L 104.823847 125.896203 
L 105.124732 126.698436 
L 105.425616 127.888234 
L 106.027386 129.23906 
L 106.32827 130.143956 
L 106.629155 130.363061 
L 106.93004 131.437113 
L 107.230924 130.802018 
L 107.531809 132.027888 
L 107.832694 132.490941 
L 108.133578 130.892777 
L 108.434463 133.929039 
L 108.735348 133.929159 
L 109.036232 133.712411 
L 109.337117 136.077649 
L 109.638002 136.672608 
L 109.938886 138.031058 
L 110.239771 136.965085 
L 110.540655 139.036933 
L 110.84154 137.592967 
L 111.443309 140.235003 
L 111.744194 140.184068 
L 112.045079 141.795676 
L 112.345963 140.926541 
L 112.947733 143.644498 
L 113.248617 144.001425 
L 113.549502 144.800147 
L 113.850387 144.394064 
L 114.151271 147.188375 
L 114.452156 145.720433 
L 114.753041 148.05424 
L 115.053925 147.702507 
L 115.35481 147.621007 
L 115.655695 148.949396 
L 115.956579 148.729713 
L 116.257464 149.281433 
L 116.558349 150.35943 
L 116.859233 152.018317 
L 117.160118 151.87102 
L 117.761887 153.884766 
L 118.062772 153.71621 
L 118.363657 155.196105 
L 118.664541 154.732162 
L 118.965426 155.591654 
L 119.266311 155.840964 
L 119.567195 155.765356 
L 119.86808 156.499194 
L 120.168965 158.777017 
L 120.469849 159.212883 
L 120.770734 159.998943 
L 121.071619 159.964482 
L 121.673388 161.591108 
L 121.974272 161.6229 
L 122.576042 162.017054 
L 122.876926 163.776416 
L 123.177811 162.650587 
L 124.080465 166.538562 
L 124.38135 166.831352 
L 124.983119 167.021647 
L 125.584888 167.787651 
L 125.885773 168.000973 
L 126.186658 168.61291 
L 126.487542 170.730437 
L 126.788427 169.110425 
L 127.089312 169.521581 
L 127.691081 172.919954 
L 127.991966 172.250468 
L 128.29285 172.705261 
L 128.593735 173.455008 
L 128.89462 172.892719 
L 129.195504 173.707204 
L 129.496389 173.878766 
L 130.098158 175.558274 
L 130.399043 174.602492 
L 130.699928 176.044125 
L 131.000812 176.88427 
L 131.301697 178.422783 
L 131.602582 177.654302 
L 132.204351 178.883972 
L 132.80612 179.004323 
L 133.107005 179.091029 
L 133.708774 180.485612 
L 134.009659 179.823834 
L 134.310543 180.539853 
L 134.611428 182.308714 
L 134.912313 183.343808 
L 135.213197 183.044152 
L 135.514082 183.231598 
L 135.814967 183.617215 
L 136.115851 183.702719 
L 136.416736 183.163276 
L 137.018505 184.058877 
L 137.31939 186.054815 
L 137.620275 184.824471 
L 137.921159 185.262238 
L 138.522929 188.168326 
L 138.823813 187.338125 
L 139.124698 187.480696 
L 139.425583 188.391832 
L 139.726467 187.898659 
L 140.027352 188.506688 
L 140.328237 187.731317 
L 140.629121 188.315695 
L 140.930006 189.927687 
L 141.230891 188.496876 
L 142.133545 191.533307 
L 142.434429 190.951599 
L 142.735314 191.841873 
L 143.036199 192.06491 
L 143.337083 191.703654 
L 143.637968 191.694817 
L 143.938852 191.571929 
L 144.239737 192.046309 
L 144.540622 193.653564 
L 144.841506 192.681188 
L 145.142391 193.037478 
L 145.443276 193.766664 
L 145.74416 195.394672 
L 146.045045 194.699936 
L 146.34593 194.310892 
L 146.646814 195.655719 
L 146.947699 194.901919 
L 147.248584 194.998017 
L 147.549468 194.513633 
L 147.850353 195.186653 
L 148.151238 197.100971 
L 148.452122 195.306643 
L 148.753007 195.769083 
L 149.053892 196.527596 
L 149.354776 197.904382 
L 149.655661 197.236364 
L 149.956546 197.834786 
L 150.25743 197.971658 
L 150.558315 197.136455 
L 150.8592 197.147385 
L 151.160084 196.528894 
L 151.460969 197.351352 
L 151.761854 198.759702 
L 152.062738 197.411076 
L 152.363623 197.378707 
L 152.664508 197.966379 
L 152.965392 199.312311 
L 153.266277 198.9218 
L 153.868046 199.665715 
L 154.469815 198.348245 
L 154.7707 197.689257 
L 155.071585 198.328825 
L 155.372469 199.958794 
L 155.673354 198.19621 
L 155.974239 198.474775 
L 156.275123 199.013148 
L 156.576008 200.717607 
L 156.876893 199.802732 
L 157.177777 200.119269 
L 157.478662 200.04508 
L 157.779547 199.268519 
L 158.080431 199.200775 
L 158.381316 198.309959 
L 158.682201 198.723172 
L 158.983085 200.213828 
L 159.28397 198.414835 
L 159.584855 198.344204 
L 160.186624 200.368724 
L 160.487509 199.545377 
L 160.788393 199.779669 
L 161.089278 199.82963 
L 161.991932 197.707762 
L 162.292817 198.450487 
L 162.593701 199.944798 
L 162.894586 198.245822 
L 163.195471 197.883893 
L 163.79724 199.542407 
L 164.098125 199.007966 
L 164.399009 199.371062 
L 165.000778 198.60822 
L 165.602548 197.27311 
L 165.903432 197.64122 
L 166.204317 198.90653 
L 166.505202 197.281611 
L 166.806086 196.9603 
L 167.106971 197.559335 
L 167.407856 198.843306 
L 167.70874 198.275835 
L 168.009625 198.425151 
L 168.611394 197.547419 
L 169.213164 195.965258 
L 169.514048 196.411357 
L 169.814933 197.54612 
L 170.416702 195.663125 
L 170.717587 196.521247 
L 171.018472 197.821138 
L 171.319356 197.163798 
L 171.620241 197.315856 
L 171.921126 197.150751 
L 172.82378 194.993412 
L 173.124664 195.564346 
L 173.425549 196.751294 
L 173.726434 195.589886 
L 174.027318 195.085578 
L 174.629088 196.720067 
L 174.929972 196.342759 
L 175.230857 196.467655 
L 175.531742 196.256305 
L 175.832626 195.536174 
L 176.133511 195.259484 
L 176.434395 194.115318 
L 177.036165 196.310895 
L 177.337049 194.674012 
L 177.637934 194.66105 
L 177.938819 194.830965 
L 178.239703 196.385998 
L 178.540588 196.052302 
L 179.142357 196.001812 
L 179.443242 195.430998 
L 179.744127 195.154981 
L 180.045011 194.213556 
L 180.345896 194.865883 
L 180.646781 196.366014 
L 180.947665 194.89521 
L 181.24855 194.412642 
L 181.850319 196.323893 
L 182.151204 196.094904 
L 182.452089 196.309741 
L 183.354743 194.032087 
L 183.655627 192.983598 
L 183.956512 193.799141 
L 184.257397 194.943463 
L 184.558281 193.134634 
L 184.859166 192.564108 
L 185.160051 193.153885 
L 185.460935 194.356031 
L 185.76182 193.855823 
L 186.062705 193.837727 
L 186.363589 193.595535 
L 186.965358 191.833179 
L 187.266243 191.012694 
L 187.567128 191.525984 
L 187.868012 192.758107 
L 188.168897 191.096972 
L 188.469782 190.545781 
L 188.770666 191.25806 
L 189.071551 192.371168 
L 189.372436 191.609372 
L 189.67332 191.538802 
L 190.27509 190.531015 
L 190.876859 188.78749 
L 191.177744 189.307514 
L 191.478628 190.365586 
L 191.779513 188.960591 
L 192.080398 188.436551 
L 192.682167 190.134973 
L 193.584821 189.357751 
L 193.885706 188.226235 
L 194.18659 187.953742 
L 194.487475 187.214071 
L 194.78836 187.577167 
L 195.089244 188.736038 
L 195.390129 187.19096 
L 195.691014 186.660788 
L 196.292783 188.105728 
L 196.894552 187.581459 
L 197.195437 187.29592 
L 198.098091 184.874733 
L 198.398975 185.444441 
L 198.69986 186.519395 
L 199.301629 184.189111 
L 199.602514 185.278543 
L 200.204283 186.097417 
L 200.505168 185.778787 
L 201.407822 183.805165 
L 201.708707 182.743426 
L 202.310476 184.949992 
L 202.611361 183.262716 
L 202.912245 182.647424 
L 203.814899 184.080761 
L 204.115784 183.614569 
L 204.416669 183.462511 
L 204.717553 183.033029 
L 205.319323 180.876904 
L 205.620207 181.497763 
L 205.921092 182.621632 
L 206.221977 181.148556 
L 206.522861 180.651666 
L 206.823746 181.07807 
L 207.124631 182.684242 
L 207.425515 181.933918 
L 207.7264 181.828779 
L 208.027285 181.565484 
L 208.328169 181.002666 
L 208.929938 178.658061 
L 209.230823 179.977636 
L 209.531708 180.531424 
L 209.832592 179.765228 
L 210.133477 178.368878 
L 210.434362 179.069638 
L 210.735246 180.05292 
L 211.036131 179.805329 
L 211.337016 179.799401 
L 211.6379 179.165989 
L 211.938785 178.96706 
L 212.23967 178.339311 
L 212.540554 176.826734 
L 213.142324 179.23496 
L 213.443208 177.047078 
L 213.744093 176.79582 
L 214.345862 178.327659 
L 214.947632 178.012805 
L 215.248516 176.907898 
L 215.549401 176.655978 
L 215.850286 175.392111 
L 216.15117 175.328094 
L 216.452055 175.934488 
L 216.75294 176.915882 
L 217.053824 175.013781 
L 217.354709 174.359555 
L 217.655594 175.714673 
L 217.956478 175.990281 
L 218.257363 175.538386 
L 218.558248 174.714245 
L 218.859132 175.695122 
L 219.160017 174.3009 
L 219.761786 172.934683 
L 220.062671 173.73082 
L 220.363555 175.233343 
L 220.66444 173.053699 
L 220.965325 172.634883 
L 221.266209 172.589443 
L 221.567094 174.49817 
L 221.867979 174.09644 
L 222.168863 173.402282 
L 222.469748 173.356265 
L 222.770633 172.170543 
L 223.071517 172.07245 
L 223.372402 170.768843 
L 223.673287 171.253359 
L 223.974171 172.16108 
L 224.275056 170.785653 
L 224.575941 170.406985 
L 225.17771 172.29105 
L 225.478595 171.445939 
L 226.080364 171.295576 
L 226.381249 170.187447 
L 226.682133 169.67281 
L 227.283903 169.091102 
L 227.584787 170.216834 
L 228.186557 167.833956 
L 228.487441 169.077442 
L 228.788326 169.822896 
L 229.089211 170.17285 
L 229.390095 169.98859 
L 229.69098 168.743637 
L 229.991865 169.630208 
L 230.292749 166.691979 
L 230.593634 167.65203 
L 230.894518 167.145749 
L 231.195403 168.076305 
L 231.797172 165.638945 
L 232.098057 167.163221 
L 232.398942 167.902314 
L 232.699826 167.304902 
L 233.000711 166.027977 
L 233.301596 166.875757 
L 233.60248 167.261026 
L 234.20425 164.126573 
L 234.505134 164.825878 
L 234.806019 166.487315 
L 235.106904 164.833514 
L 235.407788 164.451348 
L 235.708673 164.799846 
L 236.009558 165.331714 
L 236.310442 164.692602 
L 236.611327 165.191956 
L 237.213096 164.129074 
L 237.513981 163.884537 
L 237.814866 162.037195 
L 238.416635 164.363835 
L 238.71752 162.774424 
L 239.018404 161.783483 
L 239.319289 162.987578 
L 239.620174 163.679476 
L 239.921058 163.5089 
L 240.221943 163.519061 
L 240.522828 161.76594 
L 240.823712 161.674508 
L 241.124597 161.920896 
L 241.425482 160.270282 
L 241.726366 160.864243 
L 242.027251 162.656839 
L 242.328135 160.303553 
L 242.62902 159.599198 
L 242.929905 159.520896 
L 243.230789 160.827292 
L 243.832559 160.491372 
L 244.133443 160.546803 
L 244.434328 160.303024 
L 245.036097 157.605243 
L 245.336982 158.92928 
L 245.637867 159.492939 
L 245.938751 158.512159 
L 246.239636 157.103412 
L 246.540521 158.626161 
L 247.14229 159.257661 
L 247.443175 157.490328 
L 247.744059 159.031161 
L 248.044944 156.969847 
L 248.345829 155.763817 
L 248.646713 155.601586 
L 249.248483 157.306141 
L 249.850252 154.55478 
L 250.452021 157.762797 
L 250.752906 155.636023 
L 251.053791 156.663698 
L 251.354675 154.98039 
L 251.65556 155.318848 
L 251.956445 154.0425 
L 252.257329 153.722679 
L 252.558214 154.073354 
L 252.859098 153.978651 
L 253.159983 153.522259 
L 253.460868 152.345688 
L 253.761752 152.865352 
L 254.062637 154.090717 
L 254.363522 153.848092 
L 254.664406 154.283369 
L 254.965291 153.067383 
L 255.266176 152.622198 
L 255.56706 153.29505 
L 255.867945 150.05197 
L 256.16883 152.828101 
L 256.469714 152.110615 
L 256.770599 150.471207 
L 257.071484 150.30597 
L 257.372368 149.873699 
L 257.673253 153.238247 
L 257.974138 151.947085 
L 258.275022 151.629213 
L 258.575907 151.956416 
L 258.876792 150.289761 
L 259.177676 149.61525 
L 259.478561 148.14067 
L 260.08033 150.365803 
L 260.381215 149.119202 
L 260.6821 146.831448 
L 260.982984 148.676061 
L 261.283869 149.335879 
L 261.584754 149.066344 
L 261.885638 149.546664 
L 262.186523 149.107082 
L 262.788292 147.073135 
L 263.089177 145.632392 
L 263.390062 146.347016 
L 263.690946 148.759654 
L 263.991831 146.634972 
L 264.292715 146.030033 
L 264.5936 146.114275 
L 264.894485 147.584983 
L 265.195369 146.398311 
L 265.797139 146.298534 
L 266.098023 145.604616 
L 266.398908 144.264972 
L 266.699793 143.985048 
L 267.000677 146.023035 
L 267.301562 144.355875 
L 267.602447 144.112914 
L 267.903331 144.07054 
L 268.204216 144.924044 
L 268.505101 145.161475 
L 268.805985 144.323097 
L 269.10687 145.758478 
L 269.407755 143.642333 
L 269.708639 143.367171 
L 270.009524 142.635496 
L 270.310409 142.239394 
L 270.611293 142.493659 
L 270.912178 142.494669 
L 271.213063 141.095144 
L 271.513947 141.214232 
L 271.814832 140.888039 
L 272.115717 141.951678 
L 272.416601 141.276758 
L 272.717486 142.704107 
L 273.018371 141.790169 
L 273.319255 140.468225 
L 273.62014 142.020794 
L 273.921025 138.131171 
L 274.221909 139.508138 
L 274.522794 139.265513 
L 274.823678 139.540147 
L 275.124563 137.736632 
L 275.425448 139.724286 
L 275.726332 140.138617 
L 276.027217 140.132893 
L 276.328102 140.253977 
L 276.628986 139.768319 
L 276.929871 137.942944 
L 277.53164 137.014385 
L 278.13341 138.872104 
L 278.434294 137.174548 
L 278.735179 137.19583 
L 279.036064 135.589201 
L 279.336948 138.542256 
L 279.637833 137.04661 
L 279.938718 136.868723 
L 280.239602 136.158692 
L 280.540487 135.89327 
L 280.841372 135.885189 
L 281.142256 133.465096 
L 281.443141 134.23924 
L 281.744026 135.734405 
L 282.04491 133.890441 
L 282.345795 134.357631 
L 282.64668 134.473088 
L 282.947564 133.085996 
L 283.549334 135.438778 
L 283.850218 132.61835 
L 284.151103 133.779217 
L 284.451988 132.005956 
L 284.752872 131.149229 
L 285.354642 133.579326 
L 285.655526 131.03447 
L 285.956411 130.053341 
L 286.257295 132.632009 
L 286.55818 132.785631 
L 286.859065 133.107399 
L 287.460834 131.95038 
L 288.062603 129.514271 
L 288.363488 129.497773 
L 288.664373 129.730178 
L 288.965257 129.572925 
L 289.266142 128.887087 
L 289.567027 127.696856 
L 289.867911 130.539745 
L 290.168796 131.076531 
L 290.469681 130.154922 
L 290.770565 128.210579 
L 291.07145 128.650979 
L 291.372335 129.32852 
L 291.673219 129.534231 
L 291.974104 126.380443 
L 292.575873 127.320233 
L 292.876758 126.462449 
L 293.177643 124.618605 
L 293.478527 127.097328 
L 293.779412 127.740216 
L 294.080297 128.947929 
L 294.381181 126.218116 
L 294.682066 127.415898 
L 294.982951 127.129529 
L 295.283835 124.258696 
L 295.58472 122.559335 
L 295.885605 125.678445 
L 296.186489 123.871419 
L 296.487374 124.172482 
L 296.788258 123.063872 
L 297.089143 123.964992 
L 297.390028 126.860571 
L 297.690912 126.590675 
L 297.991797 124.881984 
L 298.292682 125.577994 
L 298.593566 122.290569 
L 298.894451 123.099728 
L 299.195336 121.795628 
L 299.49622 121.529243 
L 299.797105 123.304837 
L 300.09799 120.707122 
L 300.398874 122.625444 
L 300.699759 122.356029 
L 301.000644 121.003544 
L 301.301528 120.638825 
L 301.602413 122.850634 
L 301.903298 122.686575 
L 302.505067 118.709729 
L 302.805952 120.815533 
L 303.407721 119.568235 
L 303.708606 119.128124 
L 304.00949 119.726162 
L 304.310375 119.569029 
L 304.61126 120.563842 
L 304.912144 119.682466 
L 305.213029 119.477044 
L 305.513914 118.680631 
L 305.814798 118.412755 
L 306.115683 115.490891 
L 306.717452 118.926598 
L 307.018337 118.592878 
L 307.319222 115.495268 
L 307.620106 116.514417 
L 307.920991 115.468886 
L 308.52276 118.250861 
L 308.823645 115.00629 
L 309.124529 116.146259 
L 309.425414 116.579108 
L 310.027183 112.548778 
L 310.628953 115.811024 
L 310.929837 113.762191 
L 311.230722 112.874875 
L 311.531607 115.406481 
L 311.832491 116.155735 
L 312.133376 115.97085 
L 312.735145 112.778705 
L 313.03603 115.244971 
L 313.336915 110.953331 
L 313.637799 111.027208 
L 313.938684 112.554862 
L 314.239569 113.264941 
L 314.540453 110.396681 
L 314.841338 109.244038 
L 315.142223 113.693196 
L 315.443107 114.391203 
L 315.743992 112.211474 
L 316.044877 111.105221 
L 316.345761 113.192411 
L 316.646646 111.489395 
L 317.5493 109.764134 
L 317.850185 108.455417 
L 318.151069 109.460546 
L 318.451954 108.0957 
L 318.752838 110.152204 
L 319.053723 109.022816 
L 319.354608 109.593486 
L 319.655492 109.408433 
L 319.956377 107.546145 
L 320.257262 108.618345 
L 320.558146 105.412493 
L 320.859031 107.644118 
L 321.4608 107.307704 
L 321.761685 106.722725 
L 322.06257 105.80304 
L 322.363454 105.423483 
L 322.664339 108.0243 
L 322.965224 108.246845 
L 323.266108 106.671622 
L 323.566993 106.985887 
L 324.469647 104.339282 
L 324.770532 105.527444 
L 325.071416 103.516777 
L 325.372301 104.314512 
L 325.673186 104.688851 
L 325.97407 103.65229 
L 326.274955 105.539926 
L 326.57584 105.872684 
L 326.876724 103.103167 
L 327.177609 103.922426 
L 327.779378 102.463935 
L 328.080263 98.399095 
L 328.381148 103.422819 
L 328.682032 104.492014 
L 328.982917 101.436969 
L 329.283801 100.183828 
L 329.584686 103.567687 
L 329.885571 101.396376 
L 330.186455 101.507672 
L 330.48734 102.472424 
L 331.089109 98.852914 
L 331.389994 100.646905 
L 331.690879 97.412796 
L 332.292648 100.716934 
L 332.593533 100.819068 
L 333.195302 96.94248 
L 333.496187 101.148652 
L 333.797071 101.096948 
L 334.097956 98.667885 
L 334.398841 98.50741 
L 334.699725 100.629855 
L 335.00061 96.089457 
L 335.301495 95.462009 
L 335.903264 99.252359 
L 336.204149 93.672851 
L 336.505033 95.79609 
L 336.805918 96.809781 
L 337.106803 96.163863 
L 337.407687 98.721802 
L 337.708572 97.55978 
L 338.009457 98.116406 
L 338.310341 92.571528 
L 338.611226 92.867612 
L 338.912111 95.420116 
L 339.212995 95.113258 
L 339.51388 93.788933 
L 339.814765 94.583134 
L 340.115649 92.274433 
L 340.416534 92.855949 
L 340.717418 95.567605 
L 341.018303 94.031125 
L 341.319188 95.612672 
L 341.620072 90.53003 
L 341.920957 94.738583 
L 342.221842 90.799469 
L 342.522726 91.948769 
L 342.823611 91.086006 
L 343.124496 92.936656 
L 343.42538 90.112091 
L 343.726265 92.622126 
L 344.02715 92.868358 
L 344.328034 91.166015 
L 344.628919 92.367669 
L 344.929804 91.704244 
L 345.531573 90.079458 
L 345.832458 87.353156 
L 346.133342 87.770902 
L 346.434227 87.976853 
L 346.735112 90.92416 
L 347.035996 88.235253 
L 347.336881 87.107958 
L 347.637766 87.40902 
L 347.93865 91.39159 
L 348.239535 90.784462 
L 348.841304 86.197988 
L 349.142189 88.82218 
L 349.443074 85.991147 
L 349.743958 86.29637 
L 350.044843 87.71458 
L 350.345728 86.427554 
L 350.646612 83.249189 
L 351.248381 87.097785 
L 351.549266 87.810774 
L 351.850151 86.630956 
L 352.151035 86.969511 
L 352.45192 85.455516 
L 352.752805 83.272228 
L 353.053689 86.833637 
L 353.354574 80.68786 
L 353.655459 85.669499 
L 353.956343 85.551637 
L 354.257228 83.059663 
L 354.558113 82.101789 
L 354.858997 86.228265 
L 355.159882 83.995077 
L 355.761651 85.451932 
L 356.062536 83.348389 
L 356.363421 83.846192 
L 356.664305 81.88177 
L 356.96519 80.907398 
L 357.266075 83.37857 
L 357.566959 82.221502 
L 357.867844 81.632147 
L 358.168729 78.452796 
L 358.469613 81.72519 
L 358.770498 80.849225 
L 359.071383 84.261678 
L 359.372267 80.919855 
L 359.673152 81.97628 
L 360.274921 81.141149 
L 360.575806 79.257265 
L 360.876691 82.164604 
L 361.177575 79.015241 
L 361.47846 78.960603 
L 361.779345 80.550567 
L 362.080229 79.106722 
L 362.381114 78.666466 
L 362.982883 79.634706 
L 363.283768 79.012043 
L 363.584652 79.837723 
L 363.885537 77.080951 
L 364.186422 76.202557 
L 364.487306 74.335579 
L 364.788191 78.445701 
L 365.38996 74.132417 
L 365.690845 76.847681 
L 365.99173 76.799777 
L 366.292614 76.954721 
L 366.593499 78.037479 
L 366.894384 75.429615 
L 367.195268 77.967329 
L 367.496153 74.392814 
L 367.797038 75.043036 
L 368.097922 73.851748 
L 368.398807 76.188393 
L 368.699692 73.757309 
L 369.000576 72.69177 
L 369.301461 73.7942 
L 369.602346 76.52055 
L 369.90323 73.300581 
L 370.204115 73.764476 
L 370.505 74.736058 
L 370.805884 71.583906 
L 371.106769 70.204005 
L 371.407654 73.098814 
L 371.708538 73.582116 
L 372.009423 71.339693 
L 372.310308 71.566663 
L 372.611192 70.397499 
L 372.912077 71.252758 
L 373.212961 72.935718 
L 373.513846 73.012264 
L 373.814731 73.717918 
L 374.115615 69.482743 
L 374.4165 68.660478 
L 374.717385 71.282458 
L 375.018269 68.77038 
L 375.319154 71.700012 
L 375.620039 69.014207 
L 375.920923 68.488965 
L 376.221808 67.057191 
L 376.522693 67.228729 
L 376.823577 70.569036 
L 377.124462 72.142527 
L 377.425347 67.56168 
L 377.726231 69.191565 
L 378.027116 66.105642 
L 378.328001 66.78376 
L 378.628885 68.555074 
L 378.92977 66.695358 
L 379.230655 68.432162 
L 379.531539 68.020308 
L 379.832424 68.993718 
L 380.133309 66.582258 
L 380.434193 65.976718 
L 380.735078 68.031924 
L 381.035963 67.370374 
L 381.336847 68.242973 
L 381.938617 64.941287 
L 382.239501 61.567961 
L 382.540386 62.188123 
L 382.841271 66.277997 
L 383.142155 65.707063 
L 383.44304 64.861014 
L 383.743925 64.628561 
L 384.044809 65.213949 
L 384.345694 63.359163 
L 384.646578 68.602425 
L 384.947463 62.071825 
L 385.248348 63.196499 
L 385.549232 65.722886 
L 386.151002 62.537163 
L 386.451886 63.53426 
L 386.752771 60.477797 
L 387.053656 61.121382 
L 387.35454 59.43265 
L 387.655425 63.810793 
L 387.95631 64.300203 
L 388.257194 61.726946 
L 388.558079 61.918973 
L 388.858964 60.778955 
L 389.159848 57.39791 
L 389.460733 59.355816 
L 389.761618 59.520115 
L 390.062502 61.026655 
L 390.363387 56.908259 
L 390.664272 55.615919 
L 390.965156 60.197728 
L 391.266041 56.599237 
L 391.86781 62.887332 
L 392.168695 59.628766 
L 392.46958 59.278259 
L 392.770464 56.676264 
L 393.071349 56.914199 
L 393.372234 56.702597 
L 393.673118 58.786781 
L 393.974003 57.536141 
L 394.274888 54.528496 
L 394.575772 58.383753 
L 394.876657 57.739494 
L 395.177541 59.106914 
L 395.478426 58.797579 
L 395.779311 57.521952 
L 396.080195 55.100921 
L 396.38108 53.998492 
L 396.681965 53.568 
L 396.982849 53.683625 
L 397.283734 58.861788 
L 397.584619 55.702686 
L 397.885503 55.102701 
L 398.186388 55.411796 
L 398.487273 58.228857 
L 398.487273 58.228857 
" clip-path="url(#pde522a151c)" style="fill: none; stroke: #6495ed; stroke-width: 2; stroke-linecap: square"/>
   </g>
   <g id="line2d_26">
    <path d="M 73.832727 214.213933 
L 75.036266 224.073672 
L 76.239805 232.375465 
L 78.345997 244.145092 
L 78.947766 246.607673 
L 79.549536 250.096728 
L 79.85042 250.710474 
L 81.354844 257.372761 
L 81.655728 257.878961 
L 82.558382 260.649154 
L 82.859267 262.195637 
L 83.160152 263.119599 
L 83.461036 263.309506 
L 84.36369 266.365428 
L 84.664575 266.847451 
L 84.96546 268.150215 
L 85.266344 268.25403 
L 85.868114 269.30074 
L 86.168998 269.642343 
L 86.469883 271.335407 
L 86.770768 271.80478 
L 87.071652 271.790283 
L 87.372537 272.192635 
L 87.974306 273.960306 
L 88.275191 274.201627 
L 88.576075 274.979281 
L 88.87696 274.853593 
L 89.177845 275.220729 
L 89.779614 275.470845 
L 90.080499 277.08595 
L 90.381383 277.316426 
L 90.682268 276.702221 
L 91.284037 277.55846 
L 91.584922 278.191939 
L 91.885807 278.08641 
L 92.186691 279.10643 
L 92.487576 278.366889 
L 93.39023 278.647605 
L 93.691115 280.251746 
L 93.991999 280.047613 
L 94.292884 279.145038 
L 94.593769 279.56691 
L 94.894653 279.567273 
L 95.195538 280.141017 
L 95.496423 280.004197 
L 95.797307 280.569432 
L 96.098192 279.695814 
L 96.399077 279.488808 
L 96.699961 279.632273 
L 97.000846 279.414628 
L 97.301731 281.054059 
L 97.9035 279.695648 
L 98.204385 279.633162 
L 98.505269 279.418409 
L 98.806154 280.251932 
L 99.107039 279.733207 
L 99.407923 280.311995 
L 99.708808 279.247888 
L 100.009692 279.011471 
L 100.310577 278.584795 
L 100.611462 278.693927 
L 100.912346 279.938193 
L 101.514116 278.379465 
L 101.815 278.260894 
L 102.115885 277.740705 
L 102.41677 278.218164 
L 102.717654 277.795116 
L 103.018539 278.163954 
L 103.319424 277.211997 
L 104.222078 276.020178 
L 104.522962 277.540908 
L 104.823847 276.741629 
L 105.124732 275.553615 
L 105.726501 274.722663 
L 106.027386 275.07144 
L 106.32827 274.5074 
L 106.629155 275.079664 
L 106.93004 273.34785 
L 107.230924 273.318555 
L 107.531809 272.630995 
L 107.832694 272.409137 
L 108.133578 274.264645 
L 108.434463 272.489718 
L 108.735348 271.558836 
L 109.036232 271.461354 
L 109.337117 270.331275 
L 109.638002 270.741176 
L 109.938886 270.02842 
L 110.239771 270.933981 
L 110.540655 268.756535 
L 110.84154 268.997755 
L 111.142425 268.108909 
L 111.443309 267.720588 
L 111.744194 269.16074 
L 112.045079 267.461164 
L 112.646848 266.170068 
L 112.947733 265.165399 
L 113.248617 265.684701 
L 113.549502 265.192672 
L 113.850387 265.932144 
L 114.151271 263.293226 
L 114.452156 263.643247 
L 114.753041 262.369038 
L 115.053925 262.415094 
L 115.35481 263.910757 
L 115.655695 262.065006 
L 116.257464 260.930075 
L 116.558349 259.827865 
L 116.859233 259.972136 
L 117.160118 259.854259 
L 117.461003 260.190021 
L 117.761887 257.913845 
L 118.062772 257.942469 
L 118.363657 256.872908 
L 118.664541 256.980712 
L 118.965426 258.199082 
L 119.266311 256.573414 
L 119.86808 255.360143 
L 120.168965 253.712048 
L 120.469849 254.255853 
L 120.770734 253.879609 
L 121.071619 254.493352 
L 121.372503 252.145385 
L 121.673388 251.981195 
L 121.974272 251.326699 
L 122.275157 251.271623 
L 122.576042 252.714323 
L 122.876926 250.368171 
L 123.177811 250.395324 
L 123.77958 248.080865 
L 124.080465 248.225277 
L 124.38135 248.123379 
L 124.682234 248.640109 
L 124.983119 246.5935 
L 125.284004 246.65933 
L 125.584888 245.866403 
L 125.885773 245.833577 
L 126.186658 247.135445 
L 126.487542 244.491302 
L 126.788427 244.863365 
L 127.089312 244.126405 
L 127.390196 242.638675 
L 127.691081 242.651682 
L 128.29285 243.440701 
L 128.593735 241.096284 
L 128.89462 241.567386 
L 129.195504 240.546432 
L 129.496389 240.589987 
L 129.797274 241.635602 
L 130.098158 239.530504 
L 130.399043 239.884031 
L 131.000812 237.367656 
L 131.301697 237.449644 
L 131.903466 238.172429 
L 132.204351 236.004124 
L 132.505235 236.251887 
L 132.80612 235.48959 
L 133.107005 235.60494 
L 133.407889 236.689383 
L 133.708774 234.660644 
L 134.009659 235.022308 
L 134.310543 234.076877 
L 134.611428 232.374643 
L 135.213197 232.943325 
L 135.514082 233.48604 
L 135.814967 231.437597 
L 136.115851 231.723837 
L 136.416736 231.325058 
L 136.717621 231.347456 
L 137.018505 232.4 
L 137.31939 229.794524 
L 137.620275 230.428844 
L 137.921159 229.597163 
L 138.222044 227.874771 
L 138.522929 228.045377 
L 139.124698 229.146152 
L 139.425583 227.021037 
L 139.726467 227.548698 
L 140.027352 226.599011 
L 140.328237 227.15629 
L 140.629121 228.046158 
L 140.930006 225.738907 
L 141.230891 226.582846 
L 141.83266 223.932513 
L 142.434429 224.787461 
L 142.735314 225.065287 
L 143.036199 223.37113 
L 143.337083 223.823288 
L 143.637968 223.219306 
L 143.938852 223.519829 
L 144.239737 224.276331 
L 144.540622 222.056916 
L 144.841506 222.707957 
L 145.443276 220.792834 
L 145.74416 220.750255 
L 146.045045 221.075106 
L 146.34593 222.135133 
L 146.646814 220.043697 
L 146.947699 220.649756 
L 147.248584 219.983964 
L 147.850353 221.006316 
L 148.151238 218.719862 
L 148.452122 219.848044 
L 148.753007 219.103818 
L 149.053892 218.038403 
L 149.354776 218.091251 
L 149.956546 218.898936 
L 150.25743 217.540959 
L 150.558315 218.291028 
L 150.8592 217.742979 
L 151.160084 218.293793 
L 151.460969 218.59787 
L 151.761854 216.780869 
L 152.062738 217.654839 
L 152.363623 217.244981 
L 152.664508 216.293903 
L 153.266277 216.547612 
L 153.567162 217.229529 
L 153.868046 215.896258 
L 154.168931 216.461354 
L 154.469815 216.28343 
L 154.7707 216.91626 
L 155.071585 217.153122 
L 155.372469 215.433446 
L 155.673354 216.643789 
L 155.974239 216.136489 
L 156.275123 215.27346 
L 156.576008 215.090647 
L 156.876893 215.464981 
L 157.177777 216.16195 
L 157.478662 215.294214 
L 157.779547 215.926129 
L 158.080431 215.49122 
L 158.381316 216.209892 
L 158.682201 216.539222 
L 158.983085 214.978323 
L 159.28397 216.194606 
L 159.584855 216.026265 
L 159.885739 214.98613 
L 160.186624 215.004813 
L 160.487509 215.337163 
L 160.788393 216.184092 
L 161.089278 215.346619 
L 161.390163 215.936035 
L 161.691047 215.846249 
L 161.991932 216.667617 
L 162.292817 216.63209 
L 162.593701 215.300119 
L 162.894586 216.383732 
L 163.195471 216.415783 
L 163.496355 215.511629 
L 164.098125 215.904017 
L 164.399009 216.649159 
L 164.699894 216.235273 
L 165.000778 216.572006 
L 165.301663 216.533869 
L 165.602548 217.213919 
L 165.903432 217.308775 
L 166.204317 216.284587 
L 166.505202 217.396938 
L 166.806086 217.419173 
L 167.106971 216.550221 
L 167.70874 216.763385 
L 168.009625 217.668355 
L 168.31051 217.322722 
L 168.611394 217.70323 
L 168.912279 217.784161 
L 169.213164 218.515528 
L 169.514048 218.461766 
L 169.814933 217.619333 
L 170.115818 218.424137 
L 170.416702 218.715217 
L 170.717587 217.802112 
L 171.018472 217.750515 
L 171.319356 217.827742 
L 171.620241 218.804307 
L 171.921126 218.399808 
L 172.22201 218.863053 
L 172.522895 218.962793 
L 172.82378 219.750211 
L 173.124664 219.537489 
L 173.425549 218.822535 
L 173.726434 219.514997 
L 174.027318 219.727917 
L 174.328203 218.773879 
L 174.629088 219.018129 
L 174.929972 218.967979 
L 175.230857 219.963474 
L 175.531742 219.577039 
L 175.832626 220.012463 
L 176.133511 219.998822 
L 176.434395 220.862339 
L 177.036165 219.595109 
L 177.337049 220.589677 
L 177.637934 220.591394 
L 177.938819 219.987847 
L 178.540588 219.667171 
L 178.841473 220.7173 
L 179.142357 220.337864 
L 179.443242 220.680163 
L 179.744127 220.570044 
L 180.045011 221.300498 
L 180.345896 220.957349 
L 180.646781 220.070133 
L 180.947665 220.915092 
L 181.24855 221.139082 
L 181.549435 219.985302 
L 181.850319 220.18868 
L 182.151204 219.979684 
L 182.452089 220.894959 
L 182.752973 220.857657 
L 183.354743 221.534669 
L 183.655627 222.275665 
L 184.257397 221.178617 
L 184.558281 222.250344 
L 184.859166 222.556405 
L 185.160051 221.77525 
L 185.76182 221.740249 
L 186.062705 222.798992 
L 186.363589 222.577294 
L 186.664474 223.171527 
L 186.965358 223.366978 
L 187.266243 224.035334 
L 187.567128 223.748691 
L 187.868012 223.200993 
L 188.168897 224.127384 
L 188.469782 224.373872 
L 188.770666 223.573232 
L 189.372436 223.65295 
L 189.67332 224.772727 
L 189.974205 224.714235 
L 190.575974 225.308094 
L 190.876859 226.006251 
L 191.478628 225.222687 
L 191.779513 226.013588 
L 192.080398 226.284776 
L 192.381282 225.42868 
L 192.682167 225.538547 
L 192.983052 225.337181 
L 193.283936 226.564288 
L 193.584821 226.387683 
L 193.885706 226.951085 
L 194.18659 227.014188 
L 194.487475 227.633943 
L 195.089244 226.844113 
L 195.390129 227.663496 
L 195.691014 227.951921 
L 195.991898 227.143126 
L 196.292783 227.382586 
L 196.593668 227.122297 
L 196.894552 228.367804 
L 197.195437 228.244794 
L 197.496322 228.627793 
L 197.797206 228.827251 
L 198.098091 229.480459 
L 198.69986 228.755334 
L 199.000745 229.483676 
L 199.301629 229.912174 
L 199.602514 228.987878 
L 199.903399 229.276519 
L 200.204283 228.801481 
L 200.505168 230.037981 
L 200.806053 230.055279 
L 201.407822 230.588357 
L 201.708707 231.271949 
L 202.310476 230.323223 
L 202.611361 231.093509 
L 202.912245 231.367018 
L 203.21313 230.726391 
L 203.514015 231.0796 
L 203.814899 230.500021 
L 204.115784 231.749363 
L 204.416669 231.647275 
L 204.717553 231.792002 
L 205.018438 232.163779 
L 205.319323 232.887154 
L 205.921092 232.128998 
L 206.221977 232.836008 
L 206.522861 233.056511 
L 206.823746 232.454081 
L 207.425515 232.149379 
L 207.7264 233.344637 
L 208.027285 233.222788 
L 208.328169 233.431001 
L 208.929938 234.605243 
L 209.230823 233.892788 
L 209.531708 233.799935 
L 209.832592 234.183644 
L 210.133477 234.749349 
L 210.434362 234.070362 
L 210.735246 234.144866 
L 211.036131 233.850293 
L 211.337016 234.976878 
L 212.23967 235.368584 
L 212.540554 236.151036 
L 213.142324 235.082172 
L 213.443208 236.050946 
L 213.744093 236.13638 
L 214.044978 235.373891 
L 214.345862 235.625404 
L 214.646747 235.259214 
L 214.947632 236.406593 
L 215.248516 236.70815 
L 215.549401 236.780981 
L 215.850286 237.270222 
L 216.15117 237.506924 
L 216.452055 237.018779 
L 216.75294 236.825597 
L 217.053824 237.640169 
L 217.354709 237.92987 
L 217.655594 236.952692 
L 217.956478 237.365097 
L 218.257363 237.109567 
L 218.558248 238.580774 
L 218.859132 238.026878 
L 219.460902 238.84794 
L 219.761786 239.233768 
L 220.363555 238.298185 
L 220.66444 239.169891 
L 220.965325 239.298369 
L 221.867979 238.346 
L 222.168863 239.761935 
L 222.469748 239.646377 
L 222.770633 240.120458 
L 223.071517 240.091027 
L 223.372402 240.703278 
L 223.673287 240.358606 
L 223.974171 240.237775 
L 224.275056 240.817329 
L 224.575941 240.935741 
L 224.876825 240.215324 
L 225.17771 240.297509 
L 225.478595 240.157735 
L 225.779479 241.250992 
L 226.080364 241.14081 
L 226.682133 241.745956 
L 226.983018 241.979622 
L 227.584787 241.73466 
L 228.186557 242.656188 
L 228.487441 241.828056 
L 228.788326 242.011422 
L 229.089211 241.339613 
L 229.390095 242.482017 
L 229.69098 242.830858 
L 229.991865 242.417981 
L 230.292749 243.566947 
L 230.593634 243.264552 
L 231.195403 243.195541 
L 231.797172 244.155059 
L 232.098057 243.153393 
L 232.398942 243.412047 
L 232.699826 243.137364 
L 233.000711 244.753421 
L 233.60248 244.092712 
L 234.20425 245.362643 
L 234.806019 244.579242 
L 235.106904 245.067182 
L 235.407788 245.198042 
L 235.708673 244.656031 
L 236.009558 245.064775 
L 236.310442 244.80927 
L 236.611327 245.727924 
L 237.513981 246.016512 
L 237.814866 246.779394 
L 238.11575 246.163174 
L 238.416635 245.970455 
L 239.018404 246.869333 
L 239.319289 246.046857 
L 239.620174 246.305507 
L 239.921058 245.794453 
L 240.221943 246.885931 
L 240.522828 247.51926 
L 241.124597 247.364386 
L 241.425482 248.076809 
L 242.027251 247.285581 
L 242.328135 248.100303 
L 242.62902 248.335899 
L 242.929905 247.983677 
L 243.230789 248.113276 
L 243.531674 247.625647 
L 243.832559 248.772982 
L 244.434328 248.600146 
L 245.036097 249.719669 
L 245.336982 248.993615 
L 245.637867 249.125647 
L 245.938751 249.424287 
L 246.239636 249.920238 
L 246.540521 248.988069 
L 246.841405 249.362782 
L 247.14229 248.658603 
L 247.443175 250.441724 
L 247.744059 249.729584 
L 248.345829 250.901426 
L 248.646713 251.148142 
L 248.947598 250.466442 
L 249.248483 250.534344 
L 249.850252 251.394587 
L 250.151137 250.451392 
L 250.452021 250.357286 
L 250.752906 250.551646 
L 251.354675 251.966706 
L 251.65556 251.727341 
L 252.257329 252.371919 
L 252.558214 251.992042 
L 252.859098 252.425389 
L 253.159983 252.473626 
L 253.460868 252.848461 
L 253.761752 252.276991 
L 254.062637 252.446237 
L 254.363522 251.992359 
L 254.664406 252.864611 
L 254.965291 253.245161 
L 255.266176 253.350158 
L 255.56706 253.002383 
L 255.867945 254.173497 
L 256.16883 253.076431 
L 256.770599 254.150849 
L 257.372368 253.964223 
L 257.673253 253.340663 
L 257.974138 253.123889 
L 258.275022 254.357707 
L 258.575907 254.084442 
L 258.876792 254.594886 
L 259.177676 254.846781 
L 259.478561 255.409303 
L 259.779446 254.879394 
L 260.08033 254.801372 
L 260.381215 255.100208 
L 260.6821 255.920155 
L 260.982984 254.970595 
L 261.283869 255.261212 
L 261.584754 254.798065 
L 261.885638 255.742578 
L 262.186523 255.746791 
L 262.487408 255.979397 
L 262.788292 256.378154 
L 263.089177 256.962456 
L 263.690946 256.03284 
L 263.991831 256.56216 
L 264.292715 256.708832 
L 264.5936 256.366173 
L 264.894485 256.353667 
L 265.195369 256.22647 
L 265.496254 257.417297 
L 265.797139 257.31512 
L 266.098023 257.43151 
L 266.398908 257.93207 
L 266.699793 258.079624 
L 267.000677 257.053923 
L 267.301562 258.027705 
L 267.602447 257.925459 
L 267.903331 257.993082 
L 268.204216 257.253463 
L 268.505101 257.740819 
L 268.805985 257.523191 
L 269.407755 258.685149 
L 269.708639 258.73248 
L 270.310409 259.263634 
L 270.611293 258.753931 
L 271.213063 259.480828 
L 271.513947 259.503761 
L 271.814832 259.198105 
L 272.115717 259.492156 
L 272.416601 259.100723 
L 272.717486 259.630184 
L 273.319255 260.3071 
L 273.62014 259.718467 
L 273.921025 260.9755 
L 274.221909 260.40412 
L 274.522794 260.850591 
L 274.823678 260.672822 
L 275.124563 261.204585 
L 275.425448 260.127002 
L 275.726332 260.530563 
L 276.027217 259.868001 
L 276.328102 260.941671 
L 276.628986 261.011606 
L 276.929871 261.628916 
L 277.53164 261.89509 
L 277.832525 261.36247 
L 278.13341 261.45024 
L 278.434294 261.8514 
L 279.036064 261.970626 
L 279.336948 261.50993 
L 279.637833 261.400658 
L 279.938718 262.566958 
L 280.239602 262.779918 
L 280.841372 262.784244 
L 281.142256 263.449252 
L 281.744026 262.999169 
L 282.04491 263.494835 
L 282.345795 263.325027 
L 282.64668 262.801286 
L 282.947564 263.92159 
L 283.248449 262.996122 
L 283.549334 263.592018 
L 283.850218 264.474031 
L 284.151103 264.051625 
L 284.752872 265.017225 
L 285.053757 264.180483 
L 285.354642 264.214558 
L 285.655526 264.882705 
L 285.956411 265.212566 
L 286.257295 263.935268 
L 286.55818 264.366287 
L 286.859065 263.769184 
L 287.159949 264.950222 
L 287.460834 265.152313 
L 288.062603 265.841076 
L 288.363488 265.894973 
L 288.664373 265.476683 
L 288.965257 266.001679 
L 289.266142 266.037696 
L 289.567027 266.437843 
L 289.867911 265.076225 
L 290.168796 265.457729 
L 290.469681 264.988679 
L 290.770565 266.859915 
L 291.673219 266.252139 
L 291.974104 267.146525 
L 292.274989 266.922262 
L 292.876758 267.281003 
L 293.177643 267.903805 
L 293.478527 266.713083 
L 293.779412 266.962105 
L 294.080297 265.920697 
L 294.381181 267.662791 
L 294.982951 267.499901 
L 295.58472 268.927427 
L 295.885605 267.799441 
L 296.186489 268.628552 
L 296.487374 268.52703 
L 296.788258 268.69022 
L 297.089143 267.934128 
L 297.390028 267.720553 
L 297.690912 267.049865 
L 297.991797 268.658194 
L 298.292682 268.414319 
L 298.593566 269.327161 
L 298.894451 269.12166 
L 299.195336 269.494302 
L 299.797105 269.261644 
L 300.09799 269.847892 
L 300.699759 268.826719 
L 301.000644 269.733833 
L 301.301528 269.506733 
L 301.602413 269.905633 
L 301.903298 269.725166 
L 302.505067 270.972143 
L 302.805952 270.230055 
L 303.106836 270.292513 
L 303.407721 270.898506 
L 303.708606 270.826057 
L 304.310375 270.105545 
L 304.61126 270.416498 
L 304.912144 270.115044 
L 305.213029 271.23722 
L 305.814798 271.455388 
L 306.115683 272.317996 
L 306.416568 271.858813 
L 306.717452 270.969501 
L 307.018337 271.452058 
L 307.319222 272.340935 
L 307.920991 271.682444 
L 308.221875 272.008385 
L 308.52276 271.07026 
L 308.823645 273.076174 
L 309.124529 272.660501 
L 309.425414 272.480665 
L 310.027183 273.630918 
L 310.328068 272.728442 
L 310.628953 272.850867 
L 310.929837 273.367159 
L 311.230722 273.526299 
L 311.531607 272.274414 
L 311.832491 272.536725 
L 312.133376 272.034026 
L 312.434261 273.629783 
L 312.735145 274.072735 
L 313.03603 273.143938 
L 313.336915 274.361948 
L 313.637799 274.413851 
L 313.938684 273.736883 
L 314.239569 273.812661 
L 314.540453 274.538468 
L 314.841338 274.909274 
L 315.142223 273.191771 
L 315.743992 273.435644 
L 316.044877 274.899978 
L 316.345761 274.258445 
L 316.646646 274.67518 
L 316.947531 274.697812 
L 317.248415 274.885841 
L 317.5493 274.842863 
L 317.850185 275.681971 
L 318.151069 275.403171 
L 318.451954 275.572394 
L 318.752838 274.459141 
L 319.053723 275.344485 
L 319.354608 274.655961 
L 319.655492 275.747512 
L 319.956377 276.305017 
L 320.257262 276.033916 
L 320.558146 276.879921 
L 320.859031 276.255273 
L 321.159916 275.97344 
L 321.4608 276.450316 
L 321.761685 276.351992 
L 322.06257 276.484825 
L 322.363454 276.201817 
L 322.664339 276.080932 
L 322.965224 275.47792 
L 323.266108 276.822454 
L 323.566993 276.753524 
L 324.168762 277.116409 
L 324.469647 277.32125 
L 324.770532 276.737101 
L 325.071416 277.779473 
L 325.97407 277.033986 
L 326.274955 277.115831 
L 326.57584 276.316847 
L 326.876724 278.318868 
L 327.177609 277.972282 
L 327.478494 278.265195 
L 327.779378 278.377376 
L 328.080263 279.618899 
L 328.381148 278.077343 
L 328.682032 277.838812 
L 328.982917 278.45528 
L 329.283801 278.783478 
L 329.584686 277.335687 
L 329.885571 278.520676 
L 330.186455 278.113888 
L 331.089109 279.770118 
L 331.389994 279.199002 
L 331.690879 279.929307 
L 331.991763 279.304204 
L 332.292648 279.37894 
L 332.593533 278.971682 
L 332.894417 279.570108 
L 333.195302 279.506041 
L 333.797071 278.472451 
L 334.097956 279.980325 
L 334.398841 280.170248 
L 334.699725 279.423742 
L 335.00061 280.603855 
L 335.301495 280.759371 
L 335.602379 279.868974 
L 335.903264 279.75828 
L 336.204149 281.3658 
L 336.805918 279.749681 
L 337.106803 280.630684 
L 337.407687 279.412705 
L 337.708572 280.422479 
L 338.009457 280.547422 
L 338.310341 281.833764 
L 338.611226 281.910621 
L 338.912111 281.336267 
L 339.212995 281.041706 
L 339.51388 281.839951 
L 339.814765 281.455488 
L 340.115649 282.088589 
L 340.416534 281.430187 
L 341.018303 281.029813 
L 341.319188 281.651872 
L 341.620072 282.920396 
L 341.920957 281.847707 
L 342.221842 282.593068 
L 342.522726 282.267391 
L 342.823611 282.496226 
L 343.124496 282.407436 
L 343.42538 282.932608 
L 344.02715 281.558705 
L 344.328034 282.590986 
L 344.628919 281.554623 
L 344.929804 282.821968 
L 345.832458 283.965956 
L 346.133342 283.852444 
L 346.434227 283.615104 
L 346.735112 283.162771 
L 347.336881 284.209946 
L 347.637766 283.452288 
L 347.93865 283.105547 
L 348.239535 282.490133 
L 348.54042 283.937412 
L 348.841304 284.564143 
L 349.142189 284.046905 
L 349.443074 284.447336 
L 349.743958 284.592211 
L 350.044843 283.826615 
L 350.646612 285.28994 
L 350.947497 285.049809 
L 351.248381 283.945349 
L 351.549266 284.146223 
L 351.850151 283.926087 
L 352.151035 284.761395 
L 352.45192 285.096903 
L 352.752805 285.768991 
L 353.053689 284.535251 
L 353.354574 286.277823 
L 353.655459 284.79622 
L 353.956343 284.994426 
L 354.257228 285.757018 
L 354.558113 285.709003 
L 354.858997 284.254686 
L 355.159882 285.350943 
L 355.460767 284.511977 
L 356.062536 285.828116 
L 356.363421 285.854417 
L 356.96519 286.323586 
L 357.266075 285.568075 
L 357.566959 286.201481 
L 357.867844 286.145217 
L 358.168729 286.929369 
L 358.469613 285.604016 
L 358.770498 286.544684 
L 359.071383 284.792968 
L 359.372267 286.654606 
L 359.673152 286.470167 
L 359.974037 286.866878 
L 360.274921 286.529519 
L 360.575806 287.092898 
L 360.876691 285.985284 
L 361.177575 287.216979 
L 361.47846 287.139219 
L 362.080229 286.470033 
L 362.381114 287.003701 
L 362.681998 286.552396 
L 362.982883 287.444891 
L 363.283768 287.507728 
L 363.584652 287.301806 
L 364.186422 288.038475 
L 364.487306 288.223722 
L 364.788191 287.883473 
L 365.089076 288.165964 
L 365.38996 288.878283 
L 365.690845 287.450533 
L 365.99173 288.114235 
L 366.292614 287.498385 
L 366.894384 288.656391 
L 367.195268 287.987839 
L 367.496153 288.821016 
L 367.797038 288.643551 
L 368.097922 288.63769 
L 368.398807 288.125433 
L 368.699692 288.979648 
L 369.000576 289.124936 
L 369.301461 288.175275 
L 369.602346 288.000351 
L 369.90323 288.336355 
L 370.204115 289.380668 
L 370.505 289.299936 
L 370.805884 289.840944 
L 371.106769 290.016325 
L 371.407654 289.410142 
L 371.708538 289.099719 
L 372.009423 289.828175 
L 372.310308 289.892492 
L 372.611192 290.078148 
L 372.912077 289.43745 
L 373.212961 289.581335 
L 373.513846 288.964135 
L 373.814731 289.458709 
L 374.115615 290.484521 
L 374.4165 290.814155 
L 374.717385 290.003287 
L 375.018269 290.565653 
L 375.319154 289.839445 
L 375.620039 290.417156 
L 375.920923 290.605923 
L 376.221808 291.25268 
L 376.522693 290.4807 
L 376.823577 290.438179 
L 377.124462 289.360752 
L 377.425347 291.125782 
L 377.726231 290.893192 
L 378.027116 291.722559 
L 378.328001 291.583522 
L 378.628885 290.987472 
L 378.92977 291.23604 
L 379.230655 291.162279 
L 379.531539 290.954795 
L 379.832424 290.941682 
L 380.133309 290.56691 
L 380.434193 291.618987 
L 380.735078 290.804873 
L 381.035963 291.666217 
L 381.336847 291.45481 
L 381.637732 291.845927 
L 381.938617 291.992668 
L 382.239501 292.743954 
L 382.540386 292.783892 
L 382.841271 292.046969 
L 383.44304 292.004644 
L 383.743925 291.534616 
L 384.345694 291.600033 
L 384.646578 291.615923 
L 384.947463 293.069385 
L 385.248348 292.930679 
L 385.549232 291.989867 
L 385.850117 292.300811 
L 386.151002 292.357233 
L 387.053656 293.371508 
L 387.35454 292.710014 
L 387.655425 292.445983 
L 387.95631 291.704885 
L 388.257194 293.099448 
L 388.558079 293.211531 
L 388.858964 293.575286 
L 389.159848 294.210948 
L 389.460733 294.069055 
L 389.761618 293.516055 
L 390.062502 293.545152 
L 390.363387 294.391336 
L 390.664272 294.786771 
L 390.965156 293.049697 
L 391.266041 294.48579 
L 391.566926 293.478625 
L 391.86781 293.405236 
L 392.168695 294.219823 
L 392.46958 294.066834 
L 393.071349 294.709565 
L 393.673118 294.19601 
L 393.974003 294.228373 
L 394.274888 294.860421 
L 394.575772 293.770298 
L 394.876657 294.050146 
L 395.177541 293.341867 
L 395.478426 294.252074 
L 395.779311 294.688225 
L 396.982849 295.472103 
L 397.283734 294.463081 
L 397.584619 294.916308 
L 397.885503 294.830203 
L 398.186388 294.235791 
L 398.487273 294.248544 
L 398.487273 294.248544 
" clip-path="url(#pde522a151c)" style="fill: none; stroke: #dc143c; stroke-width: 2; stroke-linecap: square"/>
   </g>
   <g id="line2d_27">
    <path d="M 73.832727 199.060292 
L 77.142459 199.060292 
L 77.443343 198.21456 
L 84.36369 198.268557 
L 84.664575 198.519479 
L 87.974306 198.519479 
L 88.275191 198.91064 
L 91.584922 198.91064 
L 91.885807 199.356504 
L 95.195538 199.356504 
L 95.496423 199.863347 
L 98.806154 199.863347 
L 99.107039 200.483105 
L 102.41677 200.483105 
L 102.717654 201.19399 
L 106.027386 201.19399 
L 106.32827 201.928881 
L 109.638002 201.928881 
L 109.938886 202.63943 
L 113.248617 202.63943 
L 113.549502 203.256666 
L 116.859233 203.256666 
L 117.160118 203.696254 
L 120.469849 203.696254 
L 120.770734 203.952802 
L 127.691081 203.942357 
L 127.991966 203.677705 
L 131.301697 203.677705 
L 131.602582 203.171434 
L 134.912313 203.171434 
L 135.213197 202.506252 
L 138.522929 202.506252 
L 138.823813 201.826759 
L 142.133545 201.826759 
L 142.434429 201.341064 
L 145.74416 201.341064 
L 146.045045 201.199291 
L 149.354776 201.199291 
L 149.655661 202.165525 
L 152.965392 202.165525 
L 153.266277 205.37501 
L 156.576008 205.37501 
L 156.876893 210.193013 
L 160.186624 210.193013 
L 160.487509 213.938424 
L 163.79724 213.938424 
L 164.098125 216.773357 
L 167.407856 216.773357 
L 167.70874 218.794218 
L 171.018472 218.794218 
L 171.319356 219.918287 
L 174.629088 219.918287 
L 174.929972 220.91143 
L 178.239703 220.91143 
L 178.540588 222.045226 
L 181.850319 222.045226 
L 182.151204 222.40848 
L 185.460935 222.40848 
L 185.76182 222.057554 
L 189.071551 222.057554 
L 189.372436 221.622158 
L 192.682167 221.622158 
L 192.983052 221.094234 
L 196.292783 221.094234 
L 196.593668 220.521099 
L 199.903399 220.521099 
L 200.204283 219.970154 
L 203.514015 219.970154 
L 203.814899 219.727044 
L 207.124631 219.727044 
L 207.425515 219.165284 
L 210.735246 219.165284 
L 211.036131 218.707507 
L 214.345862 218.707507 
L 214.646747 218.315349 
L 217.956478 218.315349 
L 218.257363 218.037428 
L 221.567094 218.037428 
L 221.867979 217.743088 
L 225.17771 217.743088 
L 225.478595 217.317823 
L 228.788326 217.317823 
L 229.089211 217.131075 
L 232.398942 217.131075 
L 232.699826 216.748084 
L 236.009558 216.748084 
L 236.310442 216.523791 
L 239.620174 216.523791 
L 239.921058 216.011288 
L 250.452021 215.912696 
L 250.752906 215.313336 
L 257.673253 215.26798 
L 257.974138 214.855189 
L 264.894485 214.851972 
L 265.195369 214.720644 
L 268.505101 214.720644 
L 268.805985 214.230051 
L 279.336948 214.238143 
L 279.637833 213.655202 
L 282.947564 213.655202 
L 283.248449 213.863726 
L 290.168796 213.779637 
L 290.469681 213.405232 
L 293.779412 213.405232 
L 294.080297 213.552049 
L 297.390028 213.552049 
L 297.690912 213.075241 
L 304.61126 213.16118 
L 304.912144 212.798004 
L 308.221875 212.798004 
L 308.52276 213.044544 
L 311.832491 213.044544 
L 312.133376 213.169193 
L 315.443107 213.169193 
L 315.743992 212.698684 
L 326.274955 212.618596 
L 326.57584 212.496514 
L 333.496187 212.574809 
L 333.797071 212.352958 
L 347.93865 212.263411 
L 348.841304 212.207968 
L 355.159882 212.177473 
L 355.460767 212.01918 
L 358.770498 212.01918 
L 359.071383 212.236424 
L 362.381114 212.236424 
L 362.681998 211.925609 
L 365.99173 211.925609 
L 366.292614 212.436644 
L 369.602346 212.436644 
L 369.90323 212.026577 
L 380.434193 211.990679 
L 380.735078 212.257774 
L 384.044809 212.257774 
L 384.345694 212.129808 
L 387.655425 212.129808 
L 387.95631 211.595719 
L 391.266041 211.595719 
L 391.566926 212.18051 
L 394.876657 212.18051 
L 395.177541 212.538811 
L 398.487273 212.538811 
L 398.487273 212.538811 
" clip-path="url(#pde522a151c)" style="fill: none; stroke: #ffff00; stroke-width: 3; stroke-linecap: square"/>
   </g>
   <g id="patch_3">
    <path d="M 57.6 307.584 
L 57.6 41.472 
" style="fill: none; stroke: #ffffff; stroke-linejoin: miter; stroke-linecap: square"/>
   </g>
   <g id="patch_4">
    <path d="M 414.72 307.584 
L 414.72 41.472 
" style="fill: none; stroke: #ffffff; stroke-linejoin: miter; stroke-linecap: square"/>
   </g>
   <g id="patch_5">
    <path d="M 57.6 307.584 
L 414.72 307.584 
" style="fill: none; stroke: #ffffff; stroke-linejoin: miter; stroke-linecap: square"/>
   </g>
   <g id="patch_6">
    <path d="M 57.6 41.472 
L 414.72 41.472 
" style="fill: none; stroke: #ffffff; stroke-linejoin: miter; stroke-linecap: square"/>
   </g>
   <g id="legend_1">
    <g id="patch_7">
     <path d="M 243.124687 302.584 
L 407.72 302.584 
Q 409.72 302.584 409.72 300.584 
L 409.72 257.549625 
Q 409.72 255.549625 407.72 255.549625 
L 243.124687 255.549625 
Q 241.124687 255.549625 241.124687 257.549625 
L 241.124687 300.584 
Q 241.124687 302.584 243.124687 302.584 
z
" style="fill: #e5e5e5; opacity: 0.8; stroke: #cccccc; stroke-width: 0.5; stroke-linejoin: miter"/>
    </g>
    <g id="line2d_28">
     <path d="M 245.124687 263.648062 
L 255.124687 263.648062 
L 265.124687 263.648062 
" style="fill: none; stroke: #6495ed; stroke-width: 2; stroke-linecap: square"/>
    </g>
    <g id="text_15">
     <!-- Generator loss -->
     <g transform="translate(273.124687 267.148062) scale(0.1 -0.1)">
      <defs>
       <path id="DejaVuSans-47" d="M 3809 666 
L 3809 1919 
L 2778 1919 
L 2778 2438 
L 4434 2438 
L 4434 434 
Q 4069 175 3628 42 
Q 3188 -91 2688 -91 
Q 1594 -91 976 548 
Q 359 1188 359 2328 
Q 359 3472 976 4111 
Q 1594 4750 2688 4750 
Q 3144 4750 3555 4637 
Q 3966 4525 4313 4306 
L 4313 3634 
Q 3963 3931 3569 4081 
Q 3175 4231 2741 4231 
Q 1884 4231 1454 3753 
Q 1025 3275 1025 2328 
Q 1025 1384 1454 906 
Q 1884 428 2741 428 
Q 3075 428 3337 486 
Q 3600 544 3809 666 
z
" transform="scale(0.015625)"/>
       <path id="DejaVuSans-65" d="M 3597 1894 
L 3597 1613 
L 953 1613 
Q 991 1019 1311 708 
Q 1631 397 2203 397 
Q 2534 397 2845 478 
Q 3156 559 3463 722 
L 3463 178 
Q 3153 47 2828 -22 
Q 2503 -91 2169 -91 
Q 1331 -91 842 396 
Q 353 884 353 1716 
Q 353 2575 817 3079 
Q 1281 3584 2069 3584 
Q 2775 3584 3186 3129 
Q 3597 2675 3597 1894 
z
M 3022 2063 
Q 3016 2534 2758 2815 
Q 2500 3097 2075 3097 
Q 1594 3097 1305 2825 
Q 1016 2553 972 2059 
L 3022 2063 
z
" transform="scale(0.015625)"/>
       <path id="DejaVuSans-6e" d="M 3513 2113 
L 3513 0 
L 2938 0 
L 2938 2094 
Q 2938 2591 2744 2837 
Q 2550 3084 2163 3084 
Q 1697 3084 1428 2787 
Q 1159 2491 1159 1978 
L 1159 0 
L 581 0 
L 581 3500 
L 1159 3500 
L 1159 2956 
Q 1366 3272 1645 3428 
Q 1925 3584 2291 3584 
Q 2894 3584 3203 3211 
Q 3513 2838 3513 2113 
z
" transform="scale(0.015625)"/>
       <path id="DejaVuSans-72" d="M 2631 2963 
Q 2534 3019 2420 3045 
Q 2306 3072 2169 3072 
Q 1681 3072 1420 2755 
Q 1159 2438 1159 1844 
L 1159 0 
L 581 0 
L 581 3500 
L 1159 3500 
L 1159 2956 
Q 1341 3275 1631 3429 
Q 1922 3584 2338 3584 
Q 2397 3584 2469 3576 
Q 2541 3569 2628 3553 
L 2631 2963 
z
" transform="scale(0.015625)"/>
       <path id="DejaVuSans-61" d="M 2194 1759 
Q 1497 1759 1228 1600 
Q 959 1441 959 1056 
Q 959 750 1161 570 
Q 1363 391 1709 391 
Q 2188 391 2477 730 
Q 2766 1069 2766 1631 
L 2766 1759 
L 2194 1759 
z
M 3341 1997 
L 3341 0 
L 2766 0 
L 2766 531 
Q 2569 213 2275 61 
Q 1981 -91 1556 -91 
Q 1019 -91 701 211 
Q 384 513 384 1019 
Q 384 1609 779 1909 
Q 1175 2209 1959 2209 
L 2766 2209 
L 2766 2266 
Q 2766 2663 2505 2880 
Q 2244 3097 1772 3097 
Q 1472 3097 1187 3025 
Q 903 2953 641 2809 
L 641 3341 
Q 956 3463 1253 3523 
Q 1550 3584 1831 3584 
Q 2591 3584 2966 3190 
Q 3341 2797 3341 1997 
z
" transform="scale(0.015625)"/>
       <path id="DejaVuSans-74" d="M 1172 4494 
L 1172 3500 
L 2356 3500 
L 2356 3053 
L 1172 3053 
L 1172 1153 
Q 1172 725 1289 603 
Q 1406 481 1766 481 
L 2356 481 
L 2356 0 
L 1766 0 
Q 1100 0 847 248 
Q 594 497 594 1153 
L 594 3053 
L 172 3053 
L 172 3500 
L 594 3500 
L 594 4494 
L 1172 4494 
z
" transform="scale(0.015625)"/>
       <path id="DejaVuSans-20" transform="scale(0.015625)"/>
       <path id="DejaVuSans-6c" d="M 603 4863 
L 1178 4863 
L 1178 0 
L 603 0 
L 603 4863 
z
" transform="scale(0.015625)"/>
      </defs>
      <use xlink:href="#DejaVuSans-47"/>
      <use xlink:href="#DejaVuSans-65" x="77.490234"/>
      <use xlink:href="#DejaVuSans-6e" x="139.013672"/>
      <use xlink:href="#DejaVuSans-65" x="202.392578"/>
      <use xlink:href="#DejaVuSans-72" x="263.916016"/>
      <use xlink:href="#DejaVuSans-61" x="305.029297"/>
      <use xlink:href="#DejaVuSans-74" x="366.308594"/>
      <use xlink:href="#DejaVuSans-6f" x="405.517578"/>
      <use xlink:href="#DejaVuSans-72" x="466.699219"/>
      <use xlink:href="#DejaVuSans-20" x="507.8125"/>
      <use xlink:href="#DejaVuSans-6c" x="539.599609"/>
      <use xlink:href="#DejaVuSans-6f" x="567.382812"/>
      <use xlink:href="#DejaVuSans-73" x="628.564453"/>
      <use xlink:href="#DejaVuSans-73" x="680.664062"/>
     </g>
    </g>
    <g id="line2d_29">
     <path d="M 245.124687 278.326188 
L 255.124687 278.326188 
L 265.124687 278.326188 
" style="fill: none; stroke: #dc143c; stroke-width: 2; stroke-linecap: square"/>
    </g>
    <g id="text_16">
     <!-- Average discriminator loss -->
     <g transform="translate(273.124687 281.826188) scale(0.1 -0.1)">
      <defs>
       <path id="DejaVuSans-41" d="M 2188 4044 
L 1331 1722 
L 3047 1722 
L 2188 4044 
z
M 1831 4666 
L 2547 4666 
L 4325 0 
L 3669 0 
L 3244 1197 
L 1141 1197 
L 716 0 
L 50 0 
L 1831 4666 
z
" transform="scale(0.015625)"/>
       <path id="DejaVuSans-76" d="M 191 3500 
L 800 3500 
L 1894 563 
L 2988 3500 
L 3597 3500 
L 2284 0 
L 1503 0 
L 191 3500 
z
" transform="scale(0.015625)"/>
       <path id="DejaVuSans-67" d="M 2906 1791 
Q 2906 2416 2648 2759 
Q 2391 3103 1925 3103 
Q 1463 3103 1205 2759 
Q 947 2416 947 1791 
Q 947 1169 1205 825 
Q 1463 481 1925 481 
Q 2391 481 2648 825 
Q 2906 1169 2906 1791 
z
M 3481 434 
Q 3481 -459 3084 -895 
Q 2688 -1331 1869 -1331 
Q 1566 -1331 1297 -1286 
Q 1028 -1241 775 -1147 
L 775 -588 
Q 1028 -725 1275 -790 
Q 1522 -856 1778 -856 
Q 2344 -856 2625 -561 
Q 2906 -266 2906 331 
L 2906 616 
Q 2728 306 2450 153 
Q 2172 0 1784 0 
Q 1141 0 747 490 
Q 353 981 353 1791 
Q 353 2603 747 3093 
Q 1141 3584 1784 3584 
Q 2172 3584 2450 3431 
Q 2728 3278 2906 2969 
L 2906 3500 
L 3481 3500 
L 3481 434 
z
" transform="scale(0.015625)"/>
       <path id="DejaVuSans-64" d="M 2906 2969 
L 2906 4863 
L 3481 4863 
L 3481 0 
L 2906 0 
L 2906 525 
Q 2725 213 2448 61 
Q 2172 -91 1784 -91 
Q 1150 -91 751 415 
Q 353 922 353 1747 
Q 353 2572 751 3078 
Q 1150 3584 1784 3584 
Q 2172 3584 2448 3432 
Q 2725 3281 2906 2969 
z
M 947 1747 
Q 947 1113 1208 752 
Q 1469 391 1925 391 
Q 2381 391 2643 752 
Q 2906 1113 2906 1747 
Q 2906 2381 2643 2742 
Q 2381 3103 1925 3103 
Q 1469 3103 1208 2742 
Q 947 2381 947 1747 
z
" transform="scale(0.015625)"/>
       <path id="DejaVuSans-69" d="M 603 3500 
L 1178 3500 
L 1178 0 
L 603 0 
L 603 3500 
z
M 603 4863 
L 1178 4863 
L 1178 4134 
L 603 4134 
L 603 4863 
z
" transform="scale(0.015625)"/>
       <path id="DejaVuSans-6d" d="M 3328 2828 
Q 3544 3216 3844 3400 
Q 4144 3584 4550 3584 
Q 5097 3584 5394 3201 
Q 5691 2819 5691 2113 
L 5691 0 
L 5113 0 
L 5113 2094 
Q 5113 2597 4934 2840 
Q 4756 3084 4391 3084 
Q 3944 3084 3684 2787 
Q 3425 2491 3425 1978 
L 3425 0 
L 2847 0 
L 2847 2094 
Q 2847 2600 2669 2842 
Q 2491 3084 2119 3084 
Q 1678 3084 1418 2786 
Q 1159 2488 1159 1978 
L 1159 0 
L 581 0 
L 581 3500 
L 1159 3500 
L 1159 2956 
Q 1356 3278 1631 3431 
Q 1906 3584 2284 3584 
Q 2666 3584 2933 3390 
Q 3200 3197 3328 2828 
z
" transform="scale(0.015625)"/>
      </defs>
      <use xlink:href="#DejaVuSans-41"/>
      <use xlink:href="#DejaVuSans-76" x="62.533203"/>
      <use xlink:href="#DejaVuSans-65" x="121.712891"/>
      <use xlink:href="#DejaVuSans-72" x="183.236328"/>
      <use xlink:href="#DejaVuSans-61" x="224.349609"/>
      <use xlink:href="#DejaVuSans-67" x="285.628906"/>
      <use xlink:href="#DejaVuSans-65" x="349.105469"/>
      <use xlink:href="#DejaVuSans-20" x="410.628906"/>
      <use xlink:href="#DejaVuSans-64" x="442.416016"/>
      <use xlink:href="#DejaVuSans-69" x="505.892578"/>
      <use xlink:href="#DejaVuSans-73" x="533.675781"/>
      <use xlink:href="#DejaVuSans-63" x="585.775391"/>
      <use xlink:href="#DejaVuSans-72" x="640.755859"/>
      <use xlink:href="#DejaVuSans-69" x="681.869141"/>
      <use xlink:href="#DejaVuSans-6d" x="709.652344"/>
      <use xlink:href="#DejaVuSans-69" x="807.064453"/>
      <use xlink:href="#DejaVuSans-6e" x="834.847656"/>
      <use xlink:href="#DejaVuSans-61" x="898.226562"/>
      <use xlink:href="#DejaVuSans-74" x="959.505859"/>
      <use xlink:href="#DejaVuSans-6f" x="998.714844"/>
      <use xlink:href="#DejaVuSans-72" x="1059.896484"/>
      <use xlink:href="#DejaVuSans-20" x="1101.009766"/>
      <use xlink:href="#DejaVuSans-6c" x="1132.796875"/>
      <use xlink:href="#DejaVuSans-6f" x="1160.580078"/>
      <use xlink:href="#DejaVuSans-73" x="1221.761719"/>
      <use xlink:href="#DejaVuSans-73" x="1273.861328"/>
     </g>
    </g>
    <g id="line2d_30">
     <path d="M 245.124687 293.004312 
L 255.124687 293.004312 
L 265.124687 293.004312 
" style="fill: none; stroke: #ffff00; stroke-width: 3; stroke-linecap: square"/>
    </g>
    <g id="text_17">
     <!-- ROC AUC -->
     <g transform="translate(273.124687 296.504312) scale(0.1 -0.1)">
      <defs>
       <path id="DejaVuSans-52" d="M 2841 2188 
Q 3044 2119 3236 1894 
Q 3428 1669 3622 1275 
L 4263 0 
L 3584 0 
L 2988 1197 
Q 2756 1666 2539 1819 
Q 2322 1972 1947 1972 
L 1259 1972 
L 1259 0 
L 628 0 
L 628 4666 
L 2053 4666 
Q 2853 4666 3247 4331 
Q 3641 3997 3641 3322 
Q 3641 2881 3436 2590 
Q 3231 2300 2841 2188 
z
M 1259 4147 
L 1259 2491 
L 2053 2491 
Q 2509 2491 2742 2702 
Q 2975 2913 2975 3322 
Q 2975 3731 2742 3939 
Q 2509 4147 2053 4147 
L 1259 4147 
z
" transform="scale(0.015625)"/>
       <path id="DejaVuSans-4f" d="M 2522 4238 
Q 1834 4238 1429 3725 
Q 1025 3213 1025 2328 
Q 1025 1447 1429 934 
Q 1834 422 2522 422 
Q 3209 422 3611 934 
Q 4013 1447 4013 2328 
Q 4013 3213 3611 3725 
Q 3209 4238 2522 4238 
z
M 2522 4750 
Q 3503 4750 4090 4092 
Q 4678 3434 4678 2328 
Q 4678 1225 4090 567 
Q 3503 -91 2522 -91 
Q 1538 -91 948 565 
Q 359 1222 359 2328 
Q 359 3434 948 4092 
Q 1538 4750 2522 4750 
z
" transform="scale(0.015625)"/>
       <path id="DejaVuSans-43" d="M 4122 4306 
L 4122 3641 
Q 3803 3938 3442 4084 
Q 3081 4231 2675 4231 
Q 1875 4231 1450 3742 
Q 1025 3253 1025 2328 
Q 1025 1406 1450 917 
Q 1875 428 2675 428 
Q 3081 428 3442 575 
Q 3803 722 4122 1019 
L 4122 359 
Q 3791 134 3420 21 
Q 3050 -91 2638 -91 
Q 1578 -91 968 557 
Q 359 1206 359 2328 
Q 359 3453 968 4101 
Q 1578 4750 2638 4750 
Q 3056 4750 3426 4639 
Q 3797 4528 4122 4306 
z
" transform="scale(0.015625)"/>
       <path id="DejaVuSans-55" d="M 556 4666 
L 1191 4666 
L 1191 1831 
Q 1191 1081 1462 751 
Q 1734 422 2344 422 
Q 2950 422 3222 751 
Q 3494 1081 3494 1831 
L 3494 4666 
L 4128 4666 
L 4128 1753 
Q 4128 841 3676 375 
Q 3225 -91 2344 -91 
Q 1459 -91 1007 375 
Q 556 841 556 1753 
L 556 4666 
z
" transform="scale(0.015625)"/>
      </defs>
      <use xlink:href="#DejaVuSans-52"/>
      <use xlink:href="#DejaVuSans-4f" x="69.482422"/>
      <use xlink:href="#DejaVuSans-43" x="148.193359"/>
      <use xlink:href="#DejaVuSans-20" x="218.017578"/>
      <use xlink:href="#DejaVuSans-41" x="249.804688"/>
      <use xlink:href="#DejaVuSans-55" x="318.212891"/>
      <use xlink:href="#DejaVuSans-43" x="391.40625"/>
     </g>
    </g>
   </g>
  </g>
 </g>
 <defs>
  <clipPath id="pde522a151c">
   <rect x="57.6" y="41.472" width="357.12" height="266.112"/>
  </clipPath>
 </defs>
</svg>
