<?xml version="1.0" encoding="utf-8" standalone="no"?>
<!DOCTYPE svg PUBLIC "-//W3C//DTD SVG 1.1//EN"
  "http://www.w3.org/Graphics/SVG/1.1/DTD/svg11.dtd">
<svg xmlns:xlink="http://www.w3.org/1999/xlink" width="460.8pt" height="345.6pt" viewBox="0 0 460.8 345.6" xmlns="http://www.w3.org/2000/svg" version="1.1">
 <metadata>
  <rdf:RDF xmlns:dc="http://purl.org/dc/elements/1.1/" xmlns:cc="http://creativecommons.org/ns#" xmlns:rdf="http://www.w3.org/1999/02/22-rdf-syntax-ns#">
   <cc:Work>
    <dc:type rdf:resource="http://purl.org/dc/dcmitype/StillImage"/>
    <dc:date>2023-07-11T15:23:49.735901</dc:date>
    <dc:format>image/svg+xml</dc:format>
    <dc:creator>
     <cc:Agent>
      <dc:title>Matplotlib v3.7.1, https://matplotlib.org/</dc:title>
     </cc:Agent>
    </dc:creator>
   </cc:Work>
  </rdf:RDF>
 </metadata>
 <defs>
  <style type="text/css">*{stroke-linejoin: round; stroke-linecap: butt}</style>
 </defs>
 <g id="figure_1">
  <g id="patch_1">
   <path d="M 0 345.6 
L 460.8 345.6 
L 460.8 0 
L 0 0 
z
" style="fill: #ffffff"/>
  </g>
  <g id="axes_1">
   <g id="patch_2">
    <path d="M 57.6 307.584 
L 414.72 307.584 
L 414.72 41.472 
L 57.6 41.472 
z
" style="fill: #e5e5e5"/>
   </g>
   <g id="matplotlib.axis_1">
    <g id="xtick_1">
     <g id="line2d_1">
      <path d="M 73.531843 307.584 
L 73.531843 41.472 
" clip-path="url(#p2d35064f0b)" style="fill: none; stroke: #ffffff; stroke-width: 0.8; stroke-linecap: square"/>
     </g>
     <g id="line2d_2">
      <defs>
       <path id="m166ef3071a" d="M 0 0 
L 0 3.5 
" style="stroke: #555555; stroke-width: 0.8"/>
      </defs>
      <g>
       <use xlink:href="#m166ef3071a" x="73.531843" y="307.584" style="fill: #555555; stroke: #555555; stroke-width: 0.8"/>
      </g>
     </g>
     <g id="text_1">
      <!-- 0 -->
      <g style="fill: #555555" transform="translate(70.350593 322.182437) scale(0.1 -0.1)">
       <defs>
        <path id="DejaVuSans-30" d="M 2034 4250 
Q 1547 4250 1301 3770 
Q 1056 3291 1056 2328 
Q 1056 1369 1301 889 
Q 1547 409 2034 409 
Q 2525 409 2770 889 
Q 3016 1369 3016 2328 
Q 3016 3291 2770 3770 
Q 2525 4250 2034 4250 
z
M 2034 4750 
Q 2819 4750 3233 4129 
Q 3647 3509 3647 2328 
Q 3647 1150 3233 529 
Q 2819 -91 2034 -91 
Q 1250 -91 836 529 
Q 422 1150 422 2328 
Q 422 3509 836 4129 
Q 1250 4750 2034 4750 
z
" transform="scale(0.015625)"/>
       </defs>
       <use xlink:href="#DejaVuSans-30"/>
      </g>
     </g>
    </g>
    <g id="xtick_2">
     <g id="line2d_3">
      <path d="M 133.708774 307.584 
L 133.708774 41.472 
" clip-path="url(#p2d35064f0b)" style="fill: none; stroke: #ffffff; stroke-width: 0.8; stroke-linecap: square"/>
     </g>
     <g id="line2d_4">
      <g>
       <use xlink:href="#m166ef3071a" x="133.708774" y="307.584" style="fill: #555555; stroke: #555555; stroke-width: 0.8"/>
      </g>
     </g>
     <g id="text_2">
      <!-- 200 -->
      <g style="fill: #555555" transform="translate(124.165024 322.182437) scale(0.1 -0.1)">
       <defs>
        <path id="DejaVuSans-32" d="M 1228 531 
L 3431 531 
L 3431 0 
L 469 0 
L 469 531 
Q 828 903 1448 1529 
Q 2069 2156 2228 2338 
Q 2531 2678 2651 2914 
Q 2772 3150 2772 3378 
Q 2772 3750 2511 3984 
Q 2250 4219 1831 4219 
Q 1534 4219 1204 4116 
Q 875 4013 500 3803 
L 500 4441 
Q 881 4594 1212 4672 
Q 1544 4750 1819 4750 
Q 2544 4750 2975 4387 
Q 3406 4025 3406 3419 
Q 3406 3131 3298 2873 
Q 3191 2616 2906 2266 
Q 2828 2175 2409 1742 
Q 1991 1309 1228 531 
z
" transform="scale(0.015625)"/>
       </defs>
       <use xlink:href="#DejaVuSans-32"/>
       <use xlink:href="#DejaVuSans-30" x="63.623047"/>
       <use xlink:href="#DejaVuSans-30" x="127.246094"/>
      </g>
     </g>
    </g>
    <g id="xtick_3">
     <g id="line2d_5">
      <path d="M 193.885706 307.584 
L 193.885706 41.472 
" clip-path="url(#p2d35064f0b)" style="fill: none; stroke: #ffffff; stroke-width: 0.8; stroke-linecap: square"/>
     </g>
     <g id="line2d_6">
      <g>
       <use xlink:href="#m166ef3071a" x="193.885706" y="307.584" style="fill: #555555; stroke: #555555; stroke-width: 0.8"/>
      </g>
     </g>
     <g id="text_3">
      <!-- 400 -->
      <g style="fill: #555555" transform="translate(184.341956 322.182437) scale(0.1 -0.1)">
       <defs>
        <path id="DejaVuSans-34" d="M 2419 4116 
L 825 1625 
L 2419 1625 
L 2419 4116 
z
M 2253 4666 
L 3047 4666 
L 3047 1625 
L 3713 1625 
L 3713 1100 
L 3047 1100 
L 3047 0 
L 2419 0 
L 2419 1100 
L 313 1100 
L 313 1709 
L 2253 4666 
z
" transform="scale(0.015625)"/>
       </defs>
       <use xlink:href="#DejaVuSans-34"/>
       <use xlink:href="#DejaVuSans-30" x="63.623047"/>
       <use xlink:href="#DejaVuSans-30" x="127.246094"/>
      </g>
     </g>
    </g>
    <g id="xtick_4">
     <g id="line2d_7">
      <path d="M 254.062637 307.584 
L 254.062637 41.472 
" clip-path="url(#p2d35064f0b)" style="fill: none; stroke: #ffffff; stroke-width: 0.8; stroke-linecap: square"/>
     </g>
     <g id="line2d_8">
      <g>
       <use xlink:href="#m166ef3071a" x="254.062637" y="307.584" style="fill: #555555; stroke: #555555; stroke-width: 0.8"/>
      </g>
     </g>
     <g id="text_4">
      <!-- 600 -->
      <g style="fill: #555555" transform="translate(244.518887 322.182437) scale(0.1 -0.1)">
       <defs>
        <path id="DejaVuSans-36" d="M 2113 2584 
Q 1688 2584 1439 2293 
Q 1191 2003 1191 1497 
Q 1191 994 1439 701 
Q 1688 409 2113 409 
Q 2538 409 2786 701 
Q 3034 994 3034 1497 
Q 3034 2003 2786 2293 
Q 2538 2584 2113 2584 
z
M 3366 4563 
L 3366 3988 
Q 3128 4100 2886 4159 
Q 2644 4219 2406 4219 
Q 1781 4219 1451 3797 
Q 1122 3375 1075 2522 
Q 1259 2794 1537 2939 
Q 1816 3084 2150 3084 
Q 2853 3084 3261 2657 
Q 3669 2231 3669 1497 
Q 3669 778 3244 343 
Q 2819 -91 2113 -91 
Q 1303 -91 875 529 
Q 447 1150 447 2328 
Q 447 3434 972 4092 
Q 1497 4750 2381 4750 
Q 2619 4750 2861 4703 
Q 3103 4656 3366 4563 
z
" transform="scale(0.015625)"/>
       </defs>
       <use xlink:href="#DejaVuSans-36"/>
       <use xlink:href="#DejaVuSans-30" x="63.623047"/>
       <use xlink:href="#DejaVuSans-30" x="127.246094"/>
      </g>
     </g>
    </g>
    <g id="xtick_5">
     <g id="line2d_9">
      <path d="M 314.239569 307.584 
L 314.239569 41.472 
" clip-path="url(#p2d35064f0b)" style="fill: none; stroke: #ffffff; stroke-width: 0.8; stroke-linecap: square"/>
     </g>
     <g id="line2d_10">
      <g>
       <use xlink:href="#m166ef3071a" x="314.239569" y="307.584" style="fill: #555555; stroke: #555555; stroke-width: 0.8"/>
      </g>
     </g>
     <g id="text_5">
      <!-- 800 -->
      <g style="fill: #555555" transform="translate(304.695819 322.182437) scale(0.1 -0.1)">
       <defs>
        <path id="DejaVuSans-38" d="M 2034 2216 
Q 1584 2216 1326 1975 
Q 1069 1734 1069 1313 
Q 1069 891 1326 650 
Q 1584 409 2034 409 
Q 2484 409 2743 651 
Q 3003 894 3003 1313 
Q 3003 1734 2745 1975 
Q 2488 2216 2034 2216 
z
M 1403 2484 
Q 997 2584 770 2862 
Q 544 3141 544 3541 
Q 544 4100 942 4425 
Q 1341 4750 2034 4750 
Q 2731 4750 3128 4425 
Q 3525 4100 3525 3541 
Q 3525 3141 3298 2862 
Q 3072 2584 2669 2484 
Q 3125 2378 3379 2068 
Q 3634 1759 3634 1313 
Q 3634 634 3220 271 
Q 2806 -91 2034 -91 
Q 1263 -91 848 271 
Q 434 634 434 1313 
Q 434 1759 690 2068 
Q 947 2378 1403 2484 
z
M 1172 3481 
Q 1172 3119 1398 2916 
Q 1625 2713 2034 2713 
Q 2441 2713 2670 2916 
Q 2900 3119 2900 3481 
Q 2900 3844 2670 4047 
Q 2441 4250 2034 4250 
Q 1625 4250 1398 4047 
Q 1172 3844 1172 3481 
z
" transform="scale(0.015625)"/>
       </defs>
       <use xlink:href="#DejaVuSans-38"/>
       <use xlink:href="#DejaVuSans-30" x="63.623047"/>
       <use xlink:href="#DejaVuSans-30" x="127.246094"/>
      </g>
     </g>
    </g>
    <g id="xtick_6">
     <g id="line2d_11">
      <path d="M 374.4165 307.584 
L 374.4165 41.472 
" clip-path="url(#p2d35064f0b)" style="fill: none; stroke: #ffffff; stroke-width: 0.8; stroke-linecap: square"/>
     </g>
     <g id="line2d_12">
      <g>
       <use xlink:href="#m166ef3071a" x="374.4165" y="307.584" style="fill: #555555; stroke: #555555; stroke-width: 0.8"/>
      </g>
     </g>
     <g id="text_6">
      <!-- 1000 -->
      <g style="fill: #555555" transform="translate(361.6915 322.182437) scale(0.1 -0.1)">
       <defs>
        <path id="DejaVuSans-31" d="M 794 531 
L 1825 531 
L 1825 4091 
L 703 3866 
L 703 4441 
L 1819 4666 
L 2450 4666 
L 2450 531 
L 3481 531 
L 3481 0 
L 794 0 
L 794 531 
z
" transform="scale(0.015625)"/>
       </defs>
       <use xlink:href="#DejaVuSans-31"/>
       <use xlink:href="#DejaVuSans-30" x="63.623047"/>
       <use xlink:href="#DejaVuSans-30" x="127.246094"/>
       <use xlink:href="#DejaVuSans-30" x="190.869141"/>
      </g>
     </g>
    </g>
    <g id="text_7">
     <!-- Epoch -->
     <g style="fill: #555555" transform="translate(217.786875 337.38025) scale(0.12 -0.12)">
      <defs>
       <path id="DejaVuSans-45" d="M 628 4666 
L 3578 4666 
L 3578 4134 
L 1259 4134 
L 1259 2753 
L 3481 2753 
L 3481 2222 
L 1259 2222 
L 1259 531 
L 3634 531 
L 3634 0 
L 628 0 
L 628 4666 
z
" transform="scale(0.015625)"/>
       <path id="DejaVuSans-70" d="M 1159 525 
L 1159 -1331 
L 581 -1331 
L 581 3500 
L 1159 3500 
L 1159 2969 
Q 1341 3281 1617 3432 
Q 1894 3584 2278 3584 
Q 2916 3584 3314 3078 
Q 3713 2572 3713 1747 
Q 3713 922 3314 415 
Q 2916 -91 2278 -91 
Q 1894 -91 1617 61 
Q 1341 213 1159 525 
z
M 3116 1747 
Q 3116 2381 2855 2742 
Q 2594 3103 2138 3103 
Q 1681 3103 1420 2742 
Q 1159 2381 1159 1747 
Q 1159 1113 1420 752 
Q 1681 391 2138 391 
Q 2594 391 2855 752 
Q 3116 1113 3116 1747 
z
" transform="scale(0.015625)"/>
       <path id="DejaVuSans-6f" d="M 1959 3097 
Q 1497 3097 1228 2736 
Q 959 2375 959 1747 
Q 959 1119 1226 758 
Q 1494 397 1959 397 
Q 2419 397 2687 759 
Q 2956 1122 2956 1747 
Q 2956 2369 2687 2733 
Q 2419 3097 1959 3097 
z
M 1959 3584 
Q 2709 3584 3137 3096 
Q 3566 2609 3566 1747 
Q 3566 888 3137 398 
Q 2709 -91 1959 -91 
Q 1206 -91 779 398 
Q 353 888 353 1747 
Q 353 2609 779 3096 
Q 1206 3584 1959 3584 
z
" transform="scale(0.015625)"/>
       <path id="DejaVuSans-63" d="M 3122 3366 
L 3122 2828 
Q 2878 2963 2633 3030 
Q 2388 3097 2138 3097 
Q 1578 3097 1268 2742 
Q 959 2388 959 1747 
Q 959 1106 1268 751 
Q 1578 397 2138 397 
Q 2388 397 2633 464 
Q 2878 531 3122 666 
L 3122 134 
Q 2881 22 2623 -34 
Q 2366 -91 2075 -91 
Q 1284 -91 818 406 
Q 353 903 353 1747 
Q 353 2603 823 3093 
Q 1294 3584 2113 3584 
Q 2378 3584 2631 3529 
Q 2884 3475 3122 3366 
z
" transform="scale(0.015625)"/>
       <path id="DejaVuSans-68" d="M 3513 2113 
L 3513 0 
L 2938 0 
L 2938 2094 
Q 2938 2591 2744 2837 
Q 2550 3084 2163 3084 
Q 1697 3084 1428 2787 
Q 1159 2491 1159 1978 
L 1159 0 
L 581 0 
L 581 4863 
L 1159 4863 
L 1159 2956 
Q 1366 3272 1645 3428 
Q 1925 3584 2291 3584 
Q 2894 3584 3203 3211 
Q 3513 2838 3513 2113 
z
" transform="scale(0.015625)"/>
      </defs>
      <use xlink:href="#DejaVuSans-45"/>
      <use xlink:href="#DejaVuSans-70" x="63.183594"/>
      <use xlink:href="#DejaVuSans-6f" x="126.660156"/>
      <use xlink:href="#DejaVuSans-63" x="187.841797"/>
      <use xlink:href="#DejaVuSans-68" x="242.822266"/>
     </g>
    </g>
   </g>
   <g id="matplotlib.axis_2">
    <g id="ytick_1">
     <g id="line2d_13">
      <path d="M 57.6 282.349517 
L 414.72 282.349517 
" clip-path="url(#p2d35064f0b)" style="fill: none; stroke: #ffffff; stroke-width: 0.8; stroke-linecap: square"/>
     </g>
     <g id="line2d_14">
      <defs>
       <path id="m68954149f7" d="M 0 0 
L -3.5 0 
" style="stroke: #555555; stroke-width: 0.8"/>
      </defs>
      <g>
       <use xlink:href="#m68954149f7" x="57.6" y="282.349517" style="fill: #555555; stroke: #555555; stroke-width: 0.8"/>
      </g>
     </g>
     <g id="text_8">
      <!-- 0.4 -->
      <g style="fill: #555555" transform="translate(34.696875 286.148735) scale(0.1 -0.1)">
       <defs>
        <path id="DejaVuSans-2e" d="M 684 794 
L 1344 794 
L 1344 0 
L 684 0 
L 684 794 
z
" transform="scale(0.015625)"/>
       </defs>
       <use xlink:href="#DejaVuSans-30"/>
       <use xlink:href="#DejaVuSans-2e" x="63.623047"/>
       <use xlink:href="#DejaVuSans-34" x="95.410156"/>
      </g>
     </g>
    </g>
    <g id="ytick_2">
     <g id="line2d_15">
      <path d="M 57.6 237.413513 
L 414.72 237.413513 
" clip-path="url(#p2d35064f0b)" style="fill: none; stroke: #ffffff; stroke-width: 0.8; stroke-linecap: square"/>
     </g>
     <g id="line2d_16">
      <g>
       <use xlink:href="#m68954149f7" x="57.6" y="237.413513" style="fill: #555555; stroke: #555555; stroke-width: 0.8"/>
      </g>
     </g>
     <g id="text_9">
      <!-- 0.6 -->
      <g style="fill: #555555" transform="translate(34.696875 241.212732) scale(0.1 -0.1)">
       <use xlink:href="#DejaVuSans-30"/>
       <use xlink:href="#DejaVuSans-2e" x="63.623047"/>
       <use xlink:href="#DejaVuSans-36" x="95.410156"/>
      </g>
     </g>
    </g>
    <g id="ytick_3">
     <g id="line2d_17">
      <path d="M 57.6 192.47751 
L 414.72 192.47751 
" clip-path="url(#p2d35064f0b)" style="fill: none; stroke: #ffffff; stroke-width: 0.8; stroke-linecap: square"/>
     </g>
     <g id="line2d_18">
      <g>
       <use xlink:href="#m68954149f7" x="57.6" y="192.47751" style="fill: #555555; stroke: #555555; stroke-width: 0.8"/>
      </g>
     </g>
     <g id="text_10">
      <!-- 0.8 -->
      <g style="fill: #555555" transform="translate(34.696875 196.276729) scale(0.1 -0.1)">
       <use xlink:href="#DejaVuSans-30"/>
       <use xlink:href="#DejaVuSans-2e" x="63.623047"/>
       <use xlink:href="#DejaVuSans-38" x="95.410156"/>
      </g>
     </g>
    </g>
    <g id="ytick_4">
     <g id="line2d_19">
      <path d="M 57.6 147.541507 
L 414.72 147.541507 
" clip-path="url(#p2d35064f0b)" style="fill: none; stroke: #ffffff; stroke-width: 0.8; stroke-linecap: square"/>
     </g>
     <g id="line2d_20">
      <g>
       <use xlink:href="#m68954149f7" x="57.6" y="147.541507" style="fill: #555555; stroke: #555555; stroke-width: 0.8"/>
      </g>
     </g>
     <g id="text_11">
      <!-- 1.0 -->
      <g style="fill: #555555" transform="translate(34.696875 151.340726) scale(0.1 -0.1)">
       <use xlink:href="#DejaVuSans-31"/>
       <use xlink:href="#DejaVuSans-2e" x="63.623047"/>
       <use xlink:href="#DejaVuSans-30" x="95.410156"/>
      </g>
     </g>
    </g>
    <g id="ytick_5">
     <g id="line2d_21">
      <path d="M 57.6 102.605504 
L 414.72 102.605504 
" clip-path="url(#p2d35064f0b)" style="fill: none; stroke: #ffffff; stroke-width: 0.8; stroke-linecap: square"/>
     </g>
     <g id="line2d_22">
      <g>
       <use xlink:href="#m68954149f7" x="57.6" y="102.605504" style="fill: #555555; stroke: #555555; stroke-width: 0.8"/>
      </g>
     </g>
     <g id="text_12">
      <!-- 1.2 -->
      <g style="fill: #555555" transform="translate(34.696875 106.404722) scale(0.1 -0.1)">
       <use xlink:href="#DejaVuSans-31"/>
       <use xlink:href="#DejaVuSans-2e" x="63.623047"/>
       <use xlink:href="#DejaVuSans-32" x="95.410156"/>
      </g>
     </g>
    </g>
    <g id="ytick_6">
     <g id="line2d_23">
      <path d="M 57.6 57.669501 
L 414.72 57.669501 
" clip-path="url(#p2d35064f0b)" style="fill: none; stroke: #ffffff; stroke-width: 0.8; stroke-linecap: square"/>
     </g>
     <g id="line2d_24">
      <g>
       <use xlink:href="#m68954149f7" x="57.6" y="57.669501" style="fill: #555555; stroke: #555555; stroke-width: 0.8"/>
      </g>
     </g>
     <g id="text_13">
      <!-- 1.4 -->
      <g style="fill: #555555" transform="translate(34.696875 61.468719) scale(0.1 -0.1)">
       <use xlink:href="#DejaVuSans-31"/>
       <use xlink:href="#DejaVuSans-2e" x="63.623047"/>
       <use xlink:href="#DejaVuSans-34" x="95.410156"/>
      </g>
     </g>
    </g>
    <g id="text_14">
     <!-- Loss -->
     <g style="fill: #555555" transform="translate(28.20125 187.688625) rotate(-90) scale(0.12 -0.12)">
      <defs>
       <path id="DejaVuSans-4c" d="M 628 4666 
L 1259 4666 
L 1259 531 
L 3531 531 
L 3531 0 
L 628 0 
L 628 4666 
z
" transform="scale(0.015625)"/>
       <path id="DejaVuSans-73" d="M 2834 3397 
L 2834 2853 
Q 2591 2978 2328 3040 
Q 2066 3103 1784 3103 
Q 1356 3103 1142 2972 
Q 928 2841 928 2578 
Q 928 2378 1081 2264 
Q 1234 2150 1697 2047 
L 1894 2003 
Q 2506 1872 2764 1633 
Q 3022 1394 3022 966 
Q 3022 478 2636 193 
Q 2250 -91 1575 -91 
Q 1294 -91 989 -36 
Q 684 19 347 128 
L 347 722 
Q 666 556 975 473 
Q 1284 391 1588 391 
Q 1994 391 2212 530 
Q 2431 669 2431 922 
Q 2431 1156 2273 1281 
Q 2116 1406 1581 1522 
L 1381 1569 
Q 847 1681 609 1914 
Q 372 2147 372 2553 
Q 372 3047 722 3315 
Q 1072 3584 1716 3584 
Q 2034 3584 2315 3537 
Q 2597 3491 2834 3397 
z
" transform="scale(0.015625)"/>
      </defs>
      <use xlink:href="#DejaVuSans-4c"/>
      <use xlink:href="#DejaVuSans-6f" x="53.962891"/>
      <use xlink:href="#DejaVuSans-73" x="115.144531"/>
      <use xlink:href="#DejaVuSans-73" x="167.244141"/>
     </g>
    </g>
   </g>
   <g id="line2d_25">
    <path d="M 73.832727 214.35138 
L 75.337151 196.933097 
L 79.248651 160.016812 
L 79.549536 158.075499 
L 80.151305 152.312946 
L 80.753074 148.529901 
L 81.655728 141.013724 
L 82.257498 137.004596 
L 82.558382 135.616759 
L 82.859267 132.250071 
L 83.160152 131.175472 
L 83.761921 127.154211 
L 84.062806 125.066456 
L 84.36369 123.938798 
L 85.567229 117.314405 
L 87.673422 108.628559 
L 87.974306 108.495229 
L 88.275191 105.719609 
L 88.576075 105.201795 
L 88.87696 104.371332 
L 89.478729 103.398512 
L 89.779614 101.480889 
L 90.080499 100.745723 
L 90.381383 101.314882 
L 90.682268 98.866856 
L 90.983153 99.660036 
L 91.284037 99.139597 
L 91.584922 99.600736 
L 92.186691 97.318824 
L 92.487576 99.017971 
L 93.089345 97.01871 
L 93.39023 97.655632 
L 93.691115 96.330872 
L 93.991999 96.618022 
L 94.292884 97.319789 
L 94.593769 95.87975 
L 94.894653 97.06368 
L 95.195538 97.12373 
L 95.496423 97.354313 
L 95.797307 96.293321 
L 96.699961 98.414529 
L 97.000846 96.940689 
L 97.301731 96.797448 
L 97.602615 97.744073 
L 97.9035 97.075358 
L 98.204385 99.534633 
L 98.505269 99.411481 
L 98.806154 100.040127 
L 99.107039 99.675088 
L 99.407923 100.362766 
L 99.708808 100.436556 
L 100.611462 103.103058 
L 100.912346 102.831978 
L 101.213231 103.77863 
L 101.514116 103.312455 
L 101.815 103.862035 
L 102.115885 105.122862 
L 102.41677 108.180384 
L 102.717654 106.299133 
L 103.319424 108.770621 
L 103.620308 108.339668 
L 103.921193 110.776444 
L 104.222078 109.877843 
L 104.823847 112.134471 
L 105.124732 111.746184 
L 105.425616 111.897968 
L 106.027386 116.710615 
L 106.32827 116.671805 
L 106.629155 116.047391 
L 106.93004 117.745895 
L 107.230924 118.443241 
L 107.531809 118.44217 
L 107.832694 120.46401 
L 108.735348 121.264046 
L 109.337117 125.336197 
L 109.938886 126.725989 
L 110.239771 126.408492 
L 110.540655 128.280235 
L 110.84154 128.779327 
L 111.142425 128.767756 
L 112.045079 131.992275 
L 112.345963 131.54043 
L 113.248617 136.093995 
L 113.549502 136.173838 
L 113.850387 136.86015 
L 114.151271 138.552574 
L 114.452156 137.070002 
L 114.753041 139.670054 
L 115.053925 139.80167 
L 116.257464 142.748948 
L 116.859233 146.454293 
L 117.160118 145.016263 
L 117.461003 146.911575 
L 118.062772 147.119579 
L 118.363657 148.639957 
L 118.664541 148.701975 
L 118.965426 149.65318 
L 119.266311 151.603788 
L 119.567195 150.125086 
L 120.469849 155.519962 
L 120.770734 154.781127 
L 121.071619 154.948995 
L 121.372503 156.197944 
L 121.673388 156.412082 
L 121.974272 157.476918 
L 122.275157 157.881583 
L 122.576042 157.863571 
L 122.876926 159.836168 
L 123.177811 158.819249 
L 124.080465 163.227752 
L 124.38135 163.149704 
L 124.682234 163.491052 
L 124.983119 165.090174 
L 125.284004 164.314551 
L 125.584888 164.553356 
L 125.885773 165.467158 
L 126.186658 165.353902 
L 126.487542 167.707019 
L 126.788427 165.872399 
L 127.089312 166.992035 
L 127.691081 171.033719 
L 127.991966 169.696262 
L 128.593735 171.495809 
L 128.89462 171.721048 
L 129.195504 171.108218 
L 129.496389 171.340743 
L 129.797274 171.262279 
L 130.098158 174.221852 
L 130.399043 172.92654 
L 131.000812 174.557481 
L 131.301697 176.809328 
L 131.602582 175.880581 
L 131.903466 176.283974 
L 132.204351 177.469726 
L 132.505235 177.261133 
L 132.80612 178.008392 
L 133.107005 177.075949 
L 133.407889 177.743713 
L 133.708774 180.158044 
L 134.009659 178.332504 
L 134.310543 179.965039 
L 134.611428 180.178173 
L 134.912313 182.874258 
L 135.213197 181.682412 
L 135.514082 181.507848 
L 135.814967 183.110733 
L 136.115851 182.692368 
L 136.416736 182.018243 
L 136.717621 182.529374 
L 137.018505 183.341839 
L 137.31939 185.356701 
L 137.620275 182.739052 
L 138.222044 184.877496 
L 138.522929 187.578992 
L 138.823813 186.512428 
L 139.425583 187.065691 
L 139.726467 186.817122 
L 140.328237 186.679908 
L 140.629121 187.095073 
L 140.930006 189.144138 
L 141.230891 187.730776 
L 141.531775 187.937776 
L 142.133545 191.026005 
L 142.434429 190.06027 
L 143.036199 190.885376 
L 143.337083 190.274086 
L 143.938852 189.840641 
L 144.239737 190.719985 
L 144.540622 192.209547 
L 144.841506 191.02717 
L 145.142391 190.779258 
L 145.74416 193.413352 
L 146.045045 192.945825 
L 146.34593 193.312309 
L 146.646814 193.463076 
L 146.947699 192.709483 
L 147.248584 192.50464 
L 147.549468 191.782089 
L 147.850353 192.428694 
L 148.151238 194.733278 
L 148.452122 192.555074 
L 148.753007 192.241956 
L 149.354776 195.486135 
L 149.655661 193.938665 
L 149.956546 194.951795 
L 150.25743 194.981579 
L 150.8592 193.449738 
L 151.160084 193.328567 
L 151.460969 193.73342 
L 151.761854 195.699268 
L 152.062738 193.410111 
L 152.363623 193.224123 
L 152.965392 196.006493 
L 153.266277 195.274582 
L 153.567162 195.422791 
L 153.868046 195.257909 
L 154.168931 194.303891 
L 154.469815 193.800005 
L 154.7707 192.95015 
L 155.071585 193.908493 
L 155.372469 195.61897 
L 155.673354 193.593461 
L 155.974239 193.443859 
L 156.275123 194.130077 
L 156.576008 195.592587 
L 156.876893 195.051592 
L 157.177777 195.375477 
L 157.478662 195.198877 
L 157.779547 193.900324 
L 158.080431 193.746986 
L 158.381316 192.541026 
L 158.983085 194.902981 
L 159.28397 192.926353 
L 159.584855 192.735598 
L 160.186624 195.159491 
L 160.487509 194.354848 
L 160.788393 195.018634 
L 161.089278 194.386493 
L 161.691047 192.574519 
L 161.991932 191.92778 
L 162.292817 192.966288 
L 162.593701 194.48625 
L 162.894586 192.214074 
L 163.195471 192.015806 
L 163.79724 194.107351 
L 164.098125 193.6269 
L 164.399009 193.746879 
L 164.699894 193.538339 
L 165.602548 191.016899 
L 166.204317 193.365368 
L 166.505202 191.780442 
L 166.806086 191.037107 
L 167.407856 193.72801 
L 167.70874 192.636376 
L 168.009625 193.054139 
L 168.31051 192.846041 
L 168.611394 192.393071 
L 169.213164 190.446802 
L 169.514048 191.491979 
L 169.814933 193.033261 
L 170.115818 191.13436 
L 170.416702 190.823827 
L 171.018472 193.145539 
L 171.319356 192.880271 
L 171.921126 192.946414 
L 172.522895 191.104442 
L 172.82378 190.670247 
L 173.124664 191.65054 
L 173.425549 193.122331 
L 173.726434 191.254619 
L 174.027318 190.495134 
L 174.629088 193.219316 
L 174.929972 192.649166 
L 175.230857 193.530197 
L 175.531742 192.903827 
L 175.832626 191.901425 
L 176.133511 191.675315 
L 176.434395 190.800431 
L 177.036165 193.335491 
L 177.337049 191.686604 
L 177.637934 191.330137 
L 177.938819 192.498935 
L 178.239703 194.140067 
L 178.540588 193.561293 
L 178.841473 193.727702 
L 179.142357 193.482562 
L 179.443242 192.645229 
L 179.744127 192.265352 
L 180.045011 191.562394 
L 180.646781 194.185265 
L 180.947665 192.575751 
L 181.24855 192.487109 
L 181.549435 193.043814 
L 181.850319 194.802448 
L 182.151204 194.519904 
L 182.452089 194.552232 
L 182.752973 194.308364 
L 183.655627 191.084595 
L 184.257397 193.114148 
L 184.558281 191.436148 
L 184.859166 190.657605 
L 185.460935 192.784384 
L 185.76182 192.024698 
L 186.062705 191.852946 
L 186.363589 191.415377 
L 186.664474 191.191811 
L 187.266243 188.926921 
L 187.567128 189.440784 
L 187.868012 191.415993 
L 188.168897 188.634547 
L 188.469782 188.613749 
L 188.770666 189.400943 
L 189.071551 190.7341 
L 189.372436 189.96891 
L 189.67332 189.915623 
L 189.974205 189.682509 
L 190.27509 189.063987 
L 190.575974 187.7041 
L 190.876859 187.204994 
L 191.177744 187.473918 
L 191.478628 188.956838 
L 191.779513 187.145266 
L 192.080398 186.883239 
L 192.381282 187.138463 
L 192.682167 188.822544 
L 192.983052 188.095574 
L 193.283936 188.240595 
L 194.18659 185.79265 
L 194.487475 184.665729 
L 194.78836 185.54747 
L 195.089244 186.957323 
L 195.390129 185.249003 
L 195.691014 184.712694 
L 195.991898 185.242936 
L 196.292783 186.476859 
L 196.894552 186.417854 
L 197.195437 185.175575 
L 197.496322 184.711074 
L 197.797206 183.97635 
L 198.098091 182.542793 
L 198.398975 183.893775 
L 198.69986 184.712239 
L 199.000745 183.103877 
L 199.301629 182.964372 
L 199.903399 184.925024 
L 200.204283 184.075076 
L 200.505168 184.69716 
L 200.806053 184.136666 
L 201.106937 182.772961 
L 201.708707 181.137453 
L 202.009591 181.297072 
L 202.310476 182.972341 
L 202.611361 180.971486 
L 203.21313 181.437326 
L 203.514015 183.09173 
L 203.814899 181.942391 
L 204.115784 182.162983 
L 204.717553 181.370366 
L 205.018438 179.778503 
L 205.319323 179.282397 
L 205.620207 179.747848 
L 205.921092 180.703687 
L 206.221977 179.308592 
L 206.522861 179.34783 
L 206.823746 179.906168 
L 207.124631 181.128748 
L 207.425515 180.45915 
L 207.7264 180.221429 
L 208.027285 180.605336 
L 208.328169 178.676035 
L 208.629054 177.72479 
L 208.929938 177.259941 
L 209.531708 179.000871 
L 210.133477 176.456932 
L 210.735246 179.038797 
L 211.036131 178.381037 
L 211.337016 178.792144 
L 211.6379 178.398245 
L 211.938785 176.862052 
L 212.23967 176.362317 
L 212.540554 175.424933 
L 212.841439 176.082372 
L 213.142324 177.421756 
L 213.443208 175.491022 
L 213.744093 175.111882 
L 214.044978 175.936707 
L 214.345862 177.222524 
L 214.646747 176.306393 
L 214.947632 176.633411 
L 215.248516 175.901714 
L 215.549401 175.55134 
L 216.15117 172.783299 
L 216.452055 174.435079 
L 216.75294 174.647288 
L 217.053824 173.218806 
L 217.354709 173.820709 
L 217.655594 173.96332 
L 217.956478 175.343912 
L 218.257363 174.507168 
L 218.558248 174.549366 
L 218.859132 173.81728 
L 219.160017 173.740009 
L 219.460902 172.239893 
L 219.761786 171.455874 
L 220.062671 171.84862 
L 220.363555 174.289521 
L 220.66444 170.665064 
L 220.965325 171.115878 
L 221.266209 171.91017 
L 221.567094 173.421989 
L 221.867979 172.347886 
L 222.469748 172.385263 
L 222.770633 171.258382 
L 223.071517 170.771209 
L 223.372402 169.603684 
L 223.673287 169.113095 
L 223.974171 170.947166 
L 224.275056 169.545777 
L 224.876825 169.836074 
L 225.17771 171.264114 
L 225.478595 171.041727 
L 225.779479 170.44549 
L 226.381249 169.846641 
L 226.983018 166.792601 
L 227.584787 169.535639 
L 227.885672 166.664547 
L 228.186557 166.769929 
L 228.788326 169.217566 
L 229.390095 168.017873 
L 229.69098 167.883779 
L 229.991865 167.216256 
L 230.292749 166.855919 
L 230.593634 164.986386 
L 231.195403 167.18887 
L 231.496288 165.115083 
L 231.797172 164.944362 
L 232.398942 167.042 
L 232.699826 166.522539 
L 233.000711 166.318204 
L 233.301596 165.314181 
L 233.60248 164.952451 
L 233.903365 164.332442 
L 234.20425 163.018476 
L 234.505134 163.798344 
L 234.806019 165.031088 
L 235.106904 163.45421 
L 235.407788 163.588826 
L 235.708673 164.023222 
L 236.009558 165.342358 
L 236.310442 163.852755 
L 236.611327 164.619955 
L 237.213096 163.914774 
L 237.513981 161.952568 
L 238.11575 160.840191 
L 238.416635 163.662509 
L 238.71752 160.48829 
L 239.018404 161.520021 
L 239.319289 161.992651 
L 239.620174 163.082543 
L 239.921058 162.061338 
L 240.221943 162.127709 
L 240.522828 161.175298 
L 240.823712 160.933426 
L 241.124597 159.845194 
L 241.425482 159.326255 
L 241.726366 159.954419 
L 242.027251 161.099004 
L 242.328135 158.60112 
L 242.62902 158.549106 
L 242.929905 160.272894 
L 243.230789 161.180575 
L 243.531674 159.101886 
L 243.832559 160.770271 
L 244.133443 159.599344 
L 244.434328 159.214914 
L 244.735213 157.310643 
L 245.036097 156.326467 
L 245.336982 157.709335 
L 245.637867 157.45762 
L 245.938751 156.731427 
L 246.239636 156.384374 
L 246.841405 158.338557 
L 247.14229 157.181906 
L 247.443175 158.687659 
L 247.744059 156.526074 
L 248.044944 155.870698 
L 248.345829 155.626656 
L 248.646713 154.401009 
L 248.947598 156.318699 
L 249.248483 155.984007 
L 249.549367 155.170592 
L 249.850252 155.107771 
L 250.151137 156.644459 
L 250.452021 156.848098 
L 251.053791 154.506217 
L 251.354675 155.47467 
L 251.65556 154.55487 
L 252.257329 152.117102 
L 252.558214 153.704171 
L 252.859098 154.148142 
L 253.159983 151.473979 
L 253.761752 153.381907 
L 254.062637 154.113202 
L 254.363522 152.679324 
L 254.664406 152.99966 
L 254.965291 153.078043 
L 255.266176 151.868118 
L 255.56706 151.618867 
L 255.867945 150.288817 
L 256.16883 150.669497 
L 256.469714 152.528343 
L 256.770599 148.212739 
L 257.071484 151.170598 
L 257.372368 151.044954 
L 257.673253 153.565631 
L 257.974138 151.087527 
L 258.275022 149.754852 
L 258.876792 150.211545 
L 259.177676 149.125509 
L 259.478561 147.473261 
L 259.779446 149.237895 
L 260.08033 149.052362 
L 260.381215 146.601712 
L 260.982984 149.23827 
L 261.283869 150.497008 
L 261.584754 149.292856 
L 261.885638 148.831368 
L 262.186523 147.815279 
L 262.487408 147.538079 
L 263.089177 146.336444 
L 263.390062 146.186668 
L 263.690946 145.871448 
L 263.991831 145.111935 
L 264.292715 144.736719 
L 264.5936 146.660128 
L 264.894485 146.89513 
L 265.195369 145.706833 
L 265.496254 147.579299 
L 266.398908 143.628774 
L 266.699793 144.641154 
L 267.000677 143.74949 
L 267.301562 144.966284 
L 267.602447 142.319682 
L 267.903331 143.23114 
L 268.204216 142.960649 
L 268.505101 146.572544 
L 268.805985 144.145731 
L 269.10687 145.240471 
L 269.407755 143.044831 
L 270.009524 141.108003 
L 270.310409 141.331676 
L 270.611293 140.116596 
L 270.912178 144.400339 
L 271.213063 138.730259 
L 271.513947 141.936163 
L 271.814832 142.482823 
L 272.115717 142.632867 
L 272.416601 141.501915 
L 273.018371 140.862796 
L 273.319255 142.172076 
L 273.62014 139.333353 
L 273.921025 138.093336 
L 274.221909 138.428029 
L 274.522794 139.493387 
L 274.823678 137.551765 
L 275.124563 140.313377 
L 275.425448 140.219017 
L 275.726332 139.966043 
L 276.027217 138.036099 
L 276.328102 138.058785 
L 276.628986 139.807134 
L 277.230756 137.00623 
L 277.53164 136.108512 
L 277.832525 136.345068 
L 278.13341 138.224122 
L 278.434294 134.391126 
L 278.735179 137.645723 
L 279.036064 136.260136 
L 279.336948 137.422934 
L 279.637833 139.515484 
L 279.938718 135.708039 
L 280.239602 137.235098 
L 280.841372 134.187434 
L 281.142256 132.940266 
L 281.443141 133.851429 
L 281.744026 135.953781 
L 282.04491 131.616121 
L 282.345795 134.479888 
L 282.64668 134.333647 
L 282.947564 136.039838 
L 283.248449 135.622946 
L 283.549334 133.129521 
L 283.850218 134.019445 
L 284.151103 133.492283 
L 284.451988 132.269114 
L 284.752872 131.941653 
L 285.053757 131.84499 
L 285.354642 133.41169 
L 285.655526 130.709887 
L 285.956411 130.102855 
L 286.257295 133.663165 
L 286.55818 133.482105 
L 286.859065 131.499209 
L 287.159949 131.164383 
L 287.460834 131.020554 
L 287.761719 130.612447 
L 288.062603 128.704867 
L 288.363488 130.096909 
L 288.664373 130.770927 
L 288.965257 130.381301 
L 289.266142 128.300751 
L 289.567027 129.405321 
L 290.168796 130.27363 
L 290.469681 129.53691 
L 291.07145 130.351303 
L 291.372335 128.491774 
L 291.974104 126.338184 
L 292.274989 127.965309 
L 292.575873 127.230331 
L 292.876758 125.327385 
L 293.177643 126.518119 
L 293.478527 128.199695 
L 293.779412 128.556752 
L 294.080297 126.755425 
L 294.381181 125.991252 
L 294.682066 127.578361 
L 295.283835 123.319875 
L 295.58472 123.184482 
L 295.885605 125.088044 
L 296.186489 125.401657 
L 296.487374 121.341934 
L 296.788258 125.223008 
L 297.089143 124.733772 
L 297.390028 125.693093 
L 297.690912 124.55657 
L 297.991797 124.439631 
L 298.292682 125.124095 
L 298.593566 122.623224 
L 298.894451 121.619389 
L 299.195336 119.31005 
L 299.49622 120.122702 
L 299.797105 124.221904 
L 300.09799 120.762008 
L 300.699759 121.563035 
L 301.000644 123.404592 
L 301.301528 121.874318 
L 301.602413 121.021678 
L 301.903298 122.585405 
L 302.204182 121.232522 
L 302.505067 118.88215 
L 302.805952 119.178086 
L 303.407721 120.554486 
L 303.708606 116.417116 
L 304.00949 118.860723 
L 304.310375 120.36507 
L 304.61126 120.899142 
L 304.912144 118.931995 
L 305.213029 118.538887 
L 305.513914 119.069129 
L 305.814798 118.986768 
L 306.115683 116.056738 
L 306.717452 117.883511 
L 307.018337 117.675212 
L 307.319222 114.019123 
L 307.620106 117.956765 
L 307.920991 118.992634 
L 308.221875 117.886002 
L 308.52276 118.689279 
L 308.823645 114.372564 
L 309.124529 118.063954 
L 309.726299 113.836215 
L 310.027183 115.062867 
L 310.328068 114.547061 
L 310.628953 115.520604 
L 310.929837 112.448298 
L 311.230722 115.60192 
L 311.531607 113.958725 
L 311.832491 115.926113 
L 312.133376 114.724237 
L 312.434261 112.724066 
L 312.735145 111.543992 
L 313.03603 114.145945 
L 313.637799 111.769566 
L 313.938684 111.247628 
L 314.239569 113.173607 
L 314.540453 110.512864 
L 314.841338 111.412536 
L 315.142223 113.491694 
L 315.443107 112.215787 
L 315.743992 112.679872 
L 316.044877 110.311502 
L 316.345761 111.857525 
L 316.646646 107.715897 
L 316.947531 109.123205 
L 317.248415 107.805837 
L 317.5493 110.671478 
L 317.850185 108.849339 
L 318.151069 105.805746 
L 318.451954 110.342598 
L 318.752838 110.862849 
L 319.053723 109.43181 
L 319.354608 111.27109 
L 319.655492 106.373967 
L 319.956377 110.322162 
L 320.257262 108.236041 
L 320.558146 107.919696 
L 320.859031 104.684624 
L 321.159916 107.645428 
L 321.4608 107.607314 
L 321.761685 105.91315 
L 322.06257 105.589599 
L 322.664339 109.193808 
L 322.965224 106.141831 
L 323.266108 105.812308 
L 323.566993 106.603238 
L 323.867878 105.621071 
L 324.168762 105.941192 
L 324.469647 103.976054 
L 324.770532 104.243358 
L 325.071416 102.811087 
L 325.372301 103.700528 
L 325.673186 103.395968 
L 325.97407 102.798659 
L 326.274955 106.522056 
L 326.57584 104.979059 
L 326.876724 106.066327 
L 327.177609 104.951981 
L 327.478494 102.224545 
L 328.080263 100.011789 
L 328.381148 103.941557 
L 328.682032 102.560898 
L 328.982917 99.287498 
L 329.283801 101.80385 
L 329.584686 101.833151 
L 329.885571 102.711477 
L 330.186455 101.247386 
L 330.48734 101.828625 
L 330.788225 102.942864 
L 331.089109 96.894058 
L 331.389994 100.458278 
L 331.690879 99.827435 
L 331.991763 96.458578 
L 332.292648 100.918158 
L 332.593533 96.715462 
L 332.894417 99.738888 
L 333.195302 99.824195 
L 333.496187 100.528264 
L 333.797071 100.10473 
L 334.097956 99.083136 
L 334.398841 97.23641 
L 334.699725 98.507255 
L 335.301495 96.327684 
L 335.602379 97.442004 
L 335.903264 97.084411 
L 336.204149 94.893404 
L 336.505033 95.106953 
L 336.805918 97.204885 
L 337.106803 96.643333 
L 337.407687 97.790972 
L 337.708572 97.002586 
L 338.009457 99.198682 
L 338.310341 95.388157 
L 338.912111 91.752987 
L 339.212995 95.73434 
L 339.51388 93.333695 
L 339.814765 91.892236 
L 340.115649 93.974501 
L 340.416534 94.813615 
L 340.717418 98.256423 
L 341.018303 94.857058 
L 341.319188 93.568161 
L 341.620072 95.021217 
L 341.920957 91.827366 
L 342.221842 91.41875 
L 342.522726 89.299711 
L 342.823611 92.972245 
L 343.124496 94.1967 
L 343.42538 87.841861 
L 343.726265 89.948499 
L 344.02715 93.474284 
L 344.328034 94.941963 
L 344.628919 91.902227 
L 344.929804 90.256353 
L 345.230688 91.439722 
L 345.531573 88.835626 
L 345.832458 88.758675 
L 346.133342 88.085166 
L 346.434227 88.606034 
L 346.735112 90.948424 
L 347.035996 86.08987 
L 347.336881 90.702226 
L 347.93865 90.532442 
L 348.239535 89.699274 
L 348.54042 88.440482 
L 348.841304 89.256669 
L 349.142189 85.763614 
L 349.743958 84.327325 
L 350.044843 85.902489 
L 350.345728 89.122187 
L 350.646612 85.496177 
L 350.947497 86.333764 
L 351.248381 86.158222 
L 351.549266 88.260039 
L 351.850151 87.989789 
L 352.151035 85.532924 
L 352.45192 84.196245 
L 352.752805 85.80821 
L 353.053689 84.213547 
L 353.354574 84.709773 
L 353.655459 82.201698 
L 353.956343 85.851439 
L 354.257228 78.92104 
L 354.558113 83.962903 
L 354.858997 84.302389 
L 355.159882 86.283946 
L 355.460767 85.690494 
L 355.761651 83.55959 
L 356.062536 85.653425 
L 356.363421 81.261581 
L 356.664305 80.729277 
L 356.96519 81.805617 
L 357.266075 80.838395 
L 357.566959 82.082295 
L 357.867844 79.160461 
L 358.168729 84.336459 
L 358.469613 82.954916 
L 358.770498 82.393551 
L 359.071383 83.024849 
L 359.372267 80.711921 
L 359.673152 80.969235 
L 359.974037 79.666544 
L 360.274921 77.665703 
L 360.575806 76.779744 
L 360.876691 78.533449 
L 361.177575 81.078781 
L 361.47846 75.511176 
L 361.779345 78.843634 
L 362.381114 80.98651 
L 362.681998 77.729422 
L 362.982883 78.903282 
L 363.283768 77.671488 
L 363.584652 79.844523 
L 363.885537 75.45817 
L 364.186422 73.604453 
L 364.487306 75.043956 
L 364.788191 78.080399 
L 365.089076 71.802349 
L 365.38996 76.856881 
L 365.690845 77.88817 
L 365.99173 78.507656 
L 366.292614 76.614754 
L 366.593499 81.394189 
L 366.894384 77.311485 
L 367.195268 75.139013 
L 367.496153 74.021265 
L 367.797038 72.227598 
L 368.097922 73.152635 
L 368.398807 72.785186 
L 368.699692 69.186924 
L 369.301461 75.278021 
L 369.602346 73.391708 
L 369.90323 76.8763 
L 370.204115 73.178026 
L 370.505 71.714069 
L 370.805884 71.048676 
L 371.106769 71.16457 
L 371.407654 73.181321 
L 371.708538 69.560854 
L 372.009423 71.847935 
L 372.310308 72.171459 
L 372.611192 72.749108 
L 372.912077 71.62445 
L 373.212961 77.172664 
L 373.814731 70.789032 
L 374.115615 73.781709 
L 374.4165 67.90266 
L 374.717385 71.375601 
L 375.018269 68.208667 
L 375.319154 69.32928 
L 375.620039 73.484943 
L 375.920923 67.653462 
L 376.221808 68.255083 
L 376.522693 72.845852 
L 376.823577 70.336999 
L 377.124462 70.699226 
L 377.425347 67.986682 
L 377.726231 69.531633 
L 378.328001 65.316081 
L 378.628885 67.326136 
L 378.92977 65.452894 
L 379.531539 66.318283 
L 379.832424 66.463666 
L 380.133309 68.246218 
L 380.434193 66.810706 
L 380.735078 68.564652 
L 381.035963 64.781259 
L 381.336847 65.57093 
L 381.938617 64.631135 
L 382.239501 63.636353 
L 382.540386 66.296722 
L 382.841271 61.232413 
L 383.142155 60.966663 
L 383.743925 65.771274 
L 384.044809 67.830906 
L 384.345694 64.73195 
L 384.646578 66.349352 
L 384.947463 66.87413 
L 385.549232 60.77414 
L 385.850117 59.689256 
L 386.151002 56.779984 
L 386.451886 62.146014 
L 386.752771 56.886665 
L 387.35454 63.421331 
L 387.655425 64.150069 
L 387.95631 65.925898 
L 388.257194 63.501308 
L 388.558079 60.157493 
L 388.858964 58.498523 
L 389.159848 60.209829 
L 389.460733 59.825801 
L 389.761618 58.206926 
L 390.062502 60.517336 
L 390.363387 56.037855 
L 390.664272 59.878485 
L 390.965156 59.676748 
L 391.266041 61.671536 
L 391.566926 60.601491 
L 391.86781 59.095269 
L 392.168695 60.259915 
L 392.770464 56.588988 
L 393.071349 55.852671 
L 393.372234 54.456075 
L 393.673118 58.027339 
L 393.974003 55.203294 
L 394.274888 58.798047 
L 394.575772 54.264972 
L 394.876657 59.471985 
L 395.177541 60.068731 
L 395.779311 54.15864 
L 396.080195 57.346224 
L 396.38108 54.515107 
L 396.681965 53.568696 
L 397.283734 55.909452 
L 397.584619 54.20436 
L 397.885503 56.324229 
L 398.186388 54.046656 
L 398.487273 53.568 
L 398.487273 53.568 
" clip-path="url(#p2d35064f0b)" style="fill: none; stroke: #6495ed; stroke-width: 2; stroke-linecap: square"/>
   </g>
   <g id="line2d_26">
    <path d="M 73.832727 212.474801 
L 74.735381 222.620905 
L 75.93892 233.357811 
L 76.841574 239.515723 
L 77.443343 243.766478 
L 78.045112 247.290948 
L 79.549536 255.886384 
L 79.85042 256.631875 
L 80.753074 261.522448 
L 81.053959 262.689518 
L 81.354844 264.376935 
L 81.655728 265.078558 
L 82.257498 267.071412 
L 82.558382 267.877711 
L 82.859267 270.312325 
L 83.160152 271.052976 
L 83.461036 271.119227 
L 84.96546 276.728076 
L 85.266344 276.741686 
L 85.567229 277.478634 
L 85.868114 277.896873 
L 86.168998 278.523144 
L 86.469883 280.423594 
L 86.770768 280.718439 
L 87.071652 280.31507 
L 87.673422 281.833949 
L 87.974306 282.831949 
L 88.275191 283.384393 
L 88.576075 284.355901 
L 88.87696 283.960295 
L 89.478729 284.266177 
L 89.779614 284.888049 
L 90.080499 286.551691 
L 90.381383 286.37724 
L 90.682268 285.913525 
L 90.983153 286.158436 
L 91.284037 286.587564 
L 91.584922 287.332467 
L 91.885807 287.32551 
L 92.186691 288.371571 
L 92.487576 287.193217 
L 93.089345 287.40909 
L 93.39023 287.368799 
L 93.691115 289.136329 
L 93.991999 288.789948 
L 94.292884 287.480907 
L 94.593769 288.11781 
L 94.894653 287.959353 
L 95.195538 288.756627 
L 95.496423 288.355801 
L 95.797307 289.320931 
L 96.098192 288.123706 
L 96.399077 287.852214 
L 96.699961 287.39489 
L 97.000846 287.764217 
L 97.301731 289.274101 
L 98.204385 287.09542 
L 98.505269 287.003965 
L 98.806154 287.602751 
L 99.107039 287.281217 
L 99.407923 287.876454 
L 99.708808 286.535728 
L 100.611462 285.333648 
L 100.912346 286.878957 
L 101.514116 284.759217 
L 101.815 284.668964 
L 102.115885 284.037394 
L 102.717654 284.05584 
L 103.018539 284.435735 
L 103.319424 282.520331 
L 103.620308 282.417863 
L 103.921193 281.331245 
L 104.222078 281.568473 
L 104.522962 282.799671 
L 105.124732 280.321694 
L 105.425616 280.264849 
L 105.726501 279.137376 
L 106.027386 279.155796 
L 106.32827 278.753391 
L 106.629155 279.63476 
L 106.93004 277.319988 
L 107.230924 276.950224 
L 107.832694 275.802975 
L 108.133578 277.241143 
L 108.735348 274.745119 
L 109.036232 273.884271 
L 109.337117 272.587143 
L 109.638002 273.091376 
L 109.938886 272.535225 
L 110.239771 273.356623 
L 110.540655 270.684259 
L 110.84154 270.43281 
L 111.142425 269.719639 
L 111.443309 269.497146 
L 111.744194 270.744743 
L 112.045079 268.795116 
L 112.646848 267.233735 
L 112.947733 265.664034 
L 113.248617 266.103649 
L 113.549502 265.817907 
L 113.850387 266.326615 
L 114.151271 263.476811 
L 114.452156 263.990527 
L 114.753041 262.400966 
L 115.053925 262.439299 
L 115.35481 263.800229 
L 115.655695 261.708932 
L 116.257464 260.071397 
L 116.558349 258.26983 
L 117.461003 258.976962 
L 117.761887 256.487225 
L 118.062772 256.685594 
L 118.363657 255.270526 
L 118.664541 255.423435 
L 118.965426 256.69968 
L 119.266311 254.017572 
L 119.567195 254.112788 
L 119.86808 252.811296 
L 120.168965 250.893739 
L 120.770734 251.394661 
L 121.071619 252.05451 
L 121.372503 249.165811 
L 121.673388 249.352805 
L 121.974272 247.973573 
L 122.275157 248.067428 
L 122.576042 249.673972 
L 122.876926 246.876738 
L 123.177811 247.017311 
L 123.478696 245.82874 
L 123.77958 244.164733 
L 124.38135 244.40787 
L 124.682234 244.985161 
L 124.983119 241.847631 
L 125.284004 242.51273 
L 125.584888 241.437734 
L 125.885773 241.403417 
L 126.186658 243.002097 
L 126.487542 239.991477 
L 126.788427 240.722151 
L 127.089312 239.527308 
L 127.390196 237.527072 
L 127.691081 237.636907 
L 127.991966 238.265717 
L 128.29285 238.631856 
L 128.593735 235.869851 
L 128.89462 236.126852 
L 129.195504 235.367252 
L 129.496389 235.686901 
L 129.797274 237.278478 
L 130.098158 234.047574 
L 130.399043 234.66911 
L 131.000812 232.070857 
L 131.301697 232.084441 
L 131.903466 233.182321 
L 132.204351 230.48321 
L 132.505235 230.940083 
L 132.80612 229.560074 
L 133.407889 231.419524 
L 133.708774 228.505787 
L 134.009659 229.490883 
L 134.611428 226.840833 
L 134.912313 226.568631 
L 135.213197 227.122798 
L 135.514082 228.117765 
L 135.814967 225.335764 
L 136.115851 225.734629 
L 136.416736 225.249037 
L 136.717621 225.412474 
L 137.018505 226.157155 
L 137.31939 223.489519 
L 137.620275 225.097373 
L 138.222044 222.483335 
L 138.522929 222.101244 
L 138.823813 222.495339 
L 139.124698 223.230424 
L 139.425583 221.337801 
L 139.726467 221.740919 
L 140.027352 220.974653 
L 140.328237 221.361808 
L 140.629121 222.185302 
L 140.930006 219.798015 
L 141.230891 220.743858 
L 141.531775 220.019776 
L 141.83266 218.248714 
L 142.434429 218.761303 
L 142.735314 219.63857 
L 143.036199 217.780587 
L 143.337083 218.302728 
L 143.637968 217.720797 
L 144.239737 218.57789 
L 144.540622 216.653389 
L 144.841506 217.558754 
L 145.142391 217.093654 
L 145.443276 215.553091 
L 145.74416 215.908155 
L 146.045045 215.977487 
L 146.34593 216.793385 
L 146.646814 215.407024 
L 146.947699 215.992644 
L 147.248584 215.333284 
L 147.549468 216.159474 
L 147.850353 216.511569 
L 148.151238 214.265565 
L 148.452122 215.692083 
L 148.753007 215.486766 
L 149.053892 213.871635 
L 149.354776 214.001232 
L 149.956546 215.195072 
L 150.25743 214.033341 
L 150.558315 214.550661 
L 150.8592 214.338651 
L 151.460969 215.130597 
L 151.761854 213.345607 
L 152.062738 214.928778 
L 152.363623 214.706296 
L 152.664508 213.205852 
L 152.965392 213.473116 
L 153.266277 213.411544 
L 153.567162 214.55799 
L 153.868046 213.693912 
L 154.168931 214.358985 
L 154.469815 214.062053 
L 154.7707 214.88181 
L 155.071585 214.845117 
L 155.372469 213.409676 
L 155.673354 214.704161 
L 155.974239 214.601361 
L 156.275123 213.530271 
L 156.576008 213.783987 
L 156.876893 213.611732 
L 157.177777 214.779026 
L 157.478662 214.08702 
L 157.779547 214.833081 
L 158.080431 214.468357 
L 158.381316 215.483583 
L 158.682201 215.139563 
L 158.983085 214.206675 
L 159.28397 215.558063 
L 159.584855 215.505521 
L 159.885739 214.306007 
L 160.186624 214.534387 
L 160.487509 214.506882 
L 160.788393 215.531114 
L 161.089278 215.170283 
L 161.390163 215.686279 
L 161.691047 215.805706 
L 161.991932 216.513916 
L 162.292817 216.210876 
L 162.593701 215.023667 
L 162.894586 216.464754 
L 163.195471 216.575622 
L 163.496355 215.500197 
L 163.79724 215.89363 
L 164.098125 215.585819 
L 164.399009 216.935278 
L 164.699894 216.400503 
L 165.000778 216.779674 
L 165.301663 216.815152 
L 165.602548 217.643208 
L 165.903432 217.336979 
L 166.204317 216.461604 
L 166.505202 217.452969 
L 166.806086 217.82861 
L 167.106971 216.636272 
L 167.70874 216.684939 
L 168.009625 217.92507 
L 168.31051 217.577545 
L 168.611394 217.647232 
L 168.912279 217.953606 
L 169.213164 218.661498 
L 169.514048 218.244216 
L 169.814933 217.259092 
L 170.115818 218.370952 
L 170.416702 218.53684 
L 170.717587 217.274874 
L 171.018472 217.686128 
L 171.319356 217.132895 
L 171.620241 218.592665 
L 171.921126 218.11291 
L 172.22201 218.509603 
L 172.522895 218.617637 
L 172.82378 219.10209 
L 173.124664 218.607971 
L 173.425549 217.694767 
L 173.726434 218.777506 
L 174.027318 219.165139 
L 174.328203 217.866145 
L 174.629088 218.156358 
L 174.929972 217.778509 
L 175.230857 218.691509 
L 175.531742 218.628085 
L 175.832626 218.966936 
L 176.133511 218.895948 
L 176.434395 219.443753 
L 176.73528 218.909014 
L 177.036165 217.92521 
L 177.337049 218.835144 
L 177.637934 218.976839 
L 177.938819 217.837086 
L 178.239703 217.853035 
L 178.540588 217.475795 
L 178.841473 218.879773 
L 179.142357 218.536895 
L 179.443242 218.851995 
L 179.744127 218.831737 
L 180.045011 219.303174 
L 180.345896 218.677189 
L 180.646781 217.773107 
L 180.947665 218.635291 
L 181.24855 218.619945 
L 181.549435 217.777422 
L 181.850319 217.691726 
L 182.151204 217.135021 
L 182.452089 218.494807 
L 182.752973 218.150203 
L 183.354743 218.839046 
L 183.655627 219.619711 
L 184.257397 218.577595 
L 184.558281 219.570936 
L 184.859166 219.873246 
L 185.160051 218.890857 
L 185.460935 219.063762 
L 185.76182 218.895872 
L 186.062705 220.450161 
L 186.664474 220.303252 
L 187.266243 221.419741 
L 187.567128 221.228018 
L 187.868012 220.216456 
L 188.168897 221.710655 
L 188.469782 221.638937 
L 188.770666 220.85727 
L 189.071551 221.006863 
L 189.372436 220.84667 
L 189.67332 222.313333 
L 189.974205 222.071247 
L 190.27509 222.31462 
L 190.876859 223.230004 
L 191.177744 223.151642 
L 191.478628 222.38227 
L 191.779513 223.421885 
L 192.080398 223.396852 
L 192.381282 222.836709 
L 192.983052 222.676258 
L 193.283936 223.915745 
L 193.584821 223.86223 
L 194.487475 225.281828 
L 194.78836 224.904818 
L 195.089244 224.16868 
L 195.390129 225.114076 
L 195.691014 225.169742 
L 195.991898 224.572529 
L 196.292783 224.822618 
L 196.593668 224.300391 
L 196.894552 225.591339 
L 197.797206 226.400723 
L 198.098091 227.058827 
L 198.69986 226.075512 
L 199.000745 226.956172 
L 199.301629 226.727033 
L 199.602514 225.92872 
L 199.903399 226.262713 
L 200.204283 226.1915 
L 200.505168 227.20441 
L 200.806053 227.056484 
L 201.407822 228.066175 
L 201.708707 228.451679 
L 202.009591 228.462944 
L 202.310476 227.690102 
L 202.611361 228.700252 
L 203.21313 227.919449 
L 203.814899 228.000332 
L 204.115784 229.155248 
L 204.416669 228.95615 
L 204.717553 229.084094 
L 205.018438 229.871854 
L 205.319323 230.106199 
L 205.620207 230.004816 
L 205.921092 229.553898 
L 206.221977 230.266172 
L 206.522861 229.910975 
L 206.823746 229.354029 
L 207.124631 229.59312 
L 207.425515 229.393911 
L 207.7264 230.715968 
L 208.027285 230.207769 
L 208.328169 231.085434 
L 208.629054 231.571573 
L 208.929938 231.766592 
L 209.531708 231.093652 
L 209.832592 231.780845 
L 210.133477 231.950387 
L 210.434362 231.132171 
L 210.735246 231.306732 
L 211.036131 231.207728 
L 211.337016 232.202781 
L 211.6379 231.979283 
L 211.938785 232.653686 
L 212.540554 233.267582 
L 212.841439 233.018165 
L 213.142324 232.435601 
L 213.443208 233.365164 
L 213.744093 233.174989 
L 214.044978 232.612335 
L 214.345862 232.830807 
L 214.646747 232.76862 
L 214.947632 233.809573 
L 215.248516 233.78421 
L 215.549401 233.944666 
L 216.15117 235.134472 
L 216.452055 234.538759 
L 216.75294 234.475097 
L 217.053824 235.146882 
L 217.354709 234.505482 
L 217.655594 234.228345 
L 217.956478 234.424897 
L 218.257363 234.322752 
L 218.558248 235.477711 
L 218.859132 235.412508 
L 219.160017 235.493452 
L 219.460902 236.185026 
L 219.761786 236.47527 
L 220.062671 236.392783 
L 220.363555 235.330087 
L 220.66444 236.894786 
L 221.266209 235.807221 
L 221.567094 235.963913 
L 221.867979 235.981001 
L 222.168863 237.102974 
L 222.469748 236.744741 
L 222.770633 237.284838 
L 223.372402 237.877941 
L 223.673287 238.255444 
L 223.974171 237.540804 
L 224.275056 238.131594 
L 224.575941 237.585051 
L 224.876825 237.363508 
L 225.17771 237.54322 
L 225.478595 237.199456 
L 225.779479 238.608072 
L 226.080364 238.31692 
L 226.381249 238.48012 
L 226.682133 239.356813 
L 226.983018 239.751258 
L 227.584787 238.71141 
L 227.885672 239.94561 
L 228.487441 238.820059 
L 228.788326 239.10669 
L 229.089211 238.943374 
L 229.390095 240.301333 
L 229.69098 240.006425 
L 229.991865 240.356022 
L 230.292749 240.523105 
L 230.593634 241.136733 
L 230.894518 240.89551 
L 231.195403 240.424687 
L 231.496288 241.261462 
L 231.797172 240.869361 
L 232.098057 240.224511 
L 232.398942 240.70198 
L 232.699826 240.465548 
L 233.000711 241.664777 
L 233.301596 241.728741 
L 233.903365 242.237937 
L 234.20425 242.594811 
L 234.505134 242.465399 
L 234.806019 242.049783 
L 235.106904 242.597243 
L 235.407788 241.95092 
L 235.708673 241.654492 
L 236.009558 242.010345 
L 236.310442 242.175937 
L 236.611327 242.975454 
L 236.912212 242.675655 
L 237.213096 242.941205 
L 237.513981 243.730746 
L 237.814866 243.747792 
L 238.11575 244.261144 
L 238.416635 243.245403 
L 238.71752 244.416114 
L 239.018404 243.420337 
L 239.319289 243.092698 
L 239.620174 243.529506 
L 239.921058 243.620691 
L 240.221943 244.672216 
L 240.522828 244.601929 
L 240.823712 244.825505 
L 241.124597 245.293127 
L 241.726366 245.29054 
L 242.027251 244.836169 
L 242.328135 245.838665 
L 242.62902 245.311018 
L 242.929905 244.505076 
L 243.832559 245.785337 
L 244.133443 245.808245 
L 244.434328 246.014857 
L 244.735213 246.889785 
L 245.036097 247.096227 
L 245.336982 246.792445 
L 245.938751 247.163405 
L 246.540521 246.253383 
L 246.841405 246.650012 
L 247.14229 246.760261 
L 248.345829 248.269316 
L 248.646713 248.553446 
L 248.947598 247.913827 
L 249.549367 248.353842 
L 250.151137 247.093272 
L 250.452021 247.677314 
L 250.752906 247.808179 
L 251.053791 249.347357 
L 251.354675 248.690047 
L 251.65556 249.104644 
L 251.956445 249.715259 
L 252.257329 249.950714 
L 252.558214 249.558697 
L 252.859098 249.429396 
L 253.159983 250.456246 
L 253.460868 249.425512 
L 253.761752 249.034588 
L 254.062637 249.608847 
L 254.363522 249.798954 
L 254.664406 250.652162 
L 254.965291 250.162855 
L 255.266176 250.837536 
L 255.56706 250.929102 
L 256.16883 251.300791 
L 256.469714 250.602321 
L 256.770599 252.302959 
L 257.071484 250.502845 
L 257.372368 250.466779 
L 257.673253 250.189152 
L 257.974138 250.803838 
L 258.275022 252.439527 
L 258.575907 251.93554 
L 258.876792 252.07792 
L 259.478561 252.826482 
L 259.779446 252.430322 
L 260.08033 252.486854 
L 260.381215 253.385757 
L 260.6821 252.166433 
L 260.982984 251.744768 
L 261.584754 252.000275 
L 261.885638 253.200517 
L 262.186523 253.112433 
L 262.788292 253.743787 
L 263.089177 253.65562 
L 263.991831 254.629066 
L 264.5936 253.329947 
L 264.894485 254.07629 
L 265.195369 254.10477 
L 265.496254 254.312993 
L 265.797139 254.268922 
L 266.398908 255.5385 
L 266.699793 254.942453 
L 267.000677 255.398269 
L 267.301562 255.093522 
L 267.602447 256.115632 
L 267.903331 254.991823 
L 268.204216 255.262346 
L 268.505101 254.563651 
L 269.10687 255.622374 
L 269.407755 255.941279 
L 269.708639 256.670199 
L 270.009524 257.062489 
L 270.310409 256.747267 
L 270.611293 257.490528 
L 270.912178 255.90712 
L 271.213063 257.928076 
L 271.513947 256.071873 
L 271.814832 255.833609 
L 272.115717 256.598849 
L 272.416601 256.607089 
L 272.717486 257.79906 
L 273.319255 257.205377 
L 273.62014 258.184926 
L 274.221909 258.604558 
L 274.522794 258.298538 
L 274.823678 258.949015 
L 275.124563 257.073562 
L 275.425448 257.169947 
L 275.726332 258.058004 
L 276.027217 258.440973 
L 276.328102 259.481811 
L 276.628986 258.2817 
L 276.929871 259.103851 
L 277.230756 259.505251 
L 277.832525 259.817775 
L 278.13341 259.264902 
L 278.434294 260.601922 
L 278.735179 258.620693 
L 279.336948 259.620992 
L 279.637833 258.26779 
L 279.938718 260.658457 
L 280.239602 259.81636 
L 280.841372 261.096971 
L 281.142256 261.27557 
L 281.443141 261.312936 
L 281.744026 260.646921 
L 282.04491 262.147195 
L 282.345795 260.306857 
L 282.64668 260.369362 
L 282.947564 260.569282 
L 283.248449 260.20469 
L 283.549334 262.177674 
L 283.850218 261.416043 
L 284.151103 261.719754 
L 284.451988 262.209811 
L 284.752872 262.056681 
L 285.053757 262.278423 
L 285.354642 261.763895 
L 285.655526 262.643188 
L 285.956411 262.104757 
L 286.257295 261.024744 
L 286.55818 261.792858 
L 286.859065 262.254751 
L 287.159949 263.339709 
L 287.460834 262.93279 
L 288.062603 263.955152 
L 288.363488 263.241525 
L 288.664373 263.182328 
L 288.965257 263.363417 
L 289.266142 264.124829 
L 289.567027 263.032346 
L 289.867911 262.795994 
L 290.168796 263.425092 
L 290.469681 263.315927 
L 290.770565 264.176564 
L 291.07145 263.457603 
L 291.372335 264.44206 
L 291.673219 264.761556 
L 291.974104 264.877599 
L 292.274989 264.690609 
L 292.575873 265.017858 
L 292.876758 265.654063 
L 293.177643 264.309519 
L 293.478527 263.809052 
L 294.080297 264.760194 
L 294.381181 265.937803 
L 294.682066 264.7353 
L 294.982951 266.076943 
L 295.283835 266.831894 
L 296.186489 266.002193 
L 296.487374 267.472987 
L 296.788258 265.306371 
L 297.089143 265.358398 
L 297.390028 265.942883 
L 297.690912 265.971112 
L 297.991797 266.932523 
L 298.292682 266.053501 
L 298.593566 267.343629 
L 298.894451 267.724866 
L 299.195336 268.442867 
L 299.49622 268.351475 
L 299.797105 267.047977 
L 300.09799 268.03744 
L 300.398874 266.912047 
L 300.699759 266.902538 
L 301.000644 267.200799 
L 301.301528 267.297671 
L 301.602413 268.410922 
L 301.903298 267.434988 
L 302.505067 269.103151 
L 302.805952 268.692181 
L 303.106836 268.792338 
L 303.407721 268.497757 
L 303.708606 269.706797 
L 304.00949 268.107647 
L 304.310375 267.874584 
L 304.61126 268.485109 
L 304.912144 268.677655 
L 305.213029 269.638152 
L 305.513914 268.95911 
L 305.814798 269.421906 
L 306.115683 270.392033 
L 306.416568 269.709332 
L 306.717452 269.799233 
L 307.018337 269.770804 
L 307.319222 271.175427 
L 307.620106 268.87009 
L 307.920991 268.419084 
L 308.221875 269.658407 
L 308.52276 268.83874 
L 308.823645 271.343921 
L 309.124529 269.585413 
L 309.425414 270.877776 
L 309.726299 271.469071 
L 310.027183 270.744586 
L 310.328068 271.169982 
L 310.628953 270.9287 
L 310.929837 271.916696 
L 311.230722 269.972864 
L 311.832491 270.775296 
L 312.133376 270.736946 
L 312.434261 272.314134 
L 312.735145 272.338296 
L 313.03603 271.97305 
L 313.637799 272.269617 
L 313.938684 272.782434 
L 314.239569 272.209182 
L 314.540453 273.008019 
L 314.841338 271.6298 
L 315.142223 271.112569 
L 315.443107 272.374934 
L 315.743992 271.987462 
L 316.044877 273.429983 
L 316.345761 272.513425 
L 316.646646 274.234054 
L 316.947531 273.778261 
L 317.248415 273.927928 
L 317.5493 273.413562 
L 317.850185 273.690223 
L 318.151069 274.843466 
L 318.451954 272.482108 
L 318.752838 272.117239 
L 319.053723 273.72441 
L 319.354608 272.706574 
L 319.655492 275.11504 
L 319.956377 273.379751 
L 320.257262 274.648248 
L 320.558146 274.451243 
L 320.859031 275.316056 
L 321.159916 274.624726 
L 321.4608 274.587387 
L 321.761685 275.101928 
L 322.363454 273.800531 
L 322.664339 273.931759 
L 322.965224 274.476237 
L 323.266108 275.437177 
L 323.566993 274.74534 
L 323.867878 275.615853 
L 324.168762 275.455075 
L 324.469647 275.522862 
L 324.770532 275.88678 
L 325.071416 276.51748 
L 325.372301 276.142299 
L 325.673186 275.165674 
L 325.97407 275.567344 
L 326.57584 275.207944 
L 326.876724 275.767142 
L 327.177609 275.591055 
L 327.478494 277.184462 
L 327.779378 277.395399 
L 328.080263 277.441453 
L 328.381148 276.33106 
L 328.682032 276.86677 
L 328.982917 277.923713 
L 329.283801 276.058971 
L 329.584686 276.171862 
L 329.885571 276.805711 
L 330.186455 276.853269 
L 330.48734 277.515175 
L 330.788225 276.632903 
L 331.089109 279.040772 
L 331.389994 277.88435 
L 331.690879 277.547545 
L 331.991763 279.144587 
L 332.292648 277.924057 
L 332.593533 278.998411 
L 332.894417 276.956404 
L 333.195302 277.245192 
L 333.496187 277.745982 
L 333.797071 277.038821 
L 334.097956 278.447838 
L 334.398841 278.530068 
L 335.301495 279.277258 
L 335.602379 279.156901 
L 335.903264 279.317279 
L 336.204149 279.737338 
L 336.505033 278.793203 
L 336.805918 278.221193 
L 337.106803 279.486171 
L 337.407687 278.570365 
L 337.708572 279.566452 
L 338.009457 278.39669 
L 338.310341 279.868036 
L 338.912111 280.880329 
L 339.212995 279.872974 
L 339.51388 280.684785 
L 339.814765 281.117013 
L 340.115649 279.53498 
L 340.416534 279.190769 
L 340.717418 279.198249 
L 341.018303 279.543283 
L 341.319188 280.877024 
L 341.620072 279.790672 
L 341.920957 281.455472 
L 342.221842 281.455807 
L 342.522726 282.064144 
L 342.823611 281.008954 
L 343.124496 280.558432 
L 343.42538 282.729996 
L 343.726265 280.966649 
L 344.02715 280.071598 
L 344.328034 280.268323 
L 344.628919 280.99939 
L 344.929804 282.250963 
L 345.230688 281.232395 
L 345.531573 282.642431 
L 346.133342 282.486256 
L 346.434227 282.755217 
L 346.735112 281.903662 
L 347.035996 283.371864 
L 347.336881 280.889286 
L 347.637766 281.081602 
L 347.93865 281.996343 
L 348.239535 281.960687 
L 348.54042 282.982553 
L 348.841304 282.186411 
L 349.142189 283.602077 
L 349.443074 284.008861 
L 349.743958 284.011185 
L 350.044843 283.815868 
L 350.345728 282.677495 
L 350.646612 283.945832 
L 350.947497 282.694111 
L 351.549266 282.853437 
L 351.850151 282.351232 
L 352.151035 284.039976 
L 352.752805 283.917233 
L 353.053689 284.358998 
L 353.354574 284.01459 
L 353.655459 285.194742 
L 353.956343 283.886594 
L 354.257228 286.217676 
L 354.558113 283.495512 
L 354.858997 283.528755 
L 355.159882 283.833409 
L 355.460767 283.61307 
L 355.761651 285.117219 
L 356.062536 283.651442 
L 356.363421 285.685188 
L 356.664305 285.644977 
L 356.96519 285.243199 
L 357.266075 285.753911 
L 357.566959 285.051762 
L 357.867844 286.128625 
L 358.168729 283.822058 
L 358.469613 283.868941 
L 358.770498 284.796177 
L 359.071383 284.636565 
L 359.372267 285.885727 
L 359.673152 285.236888 
L 359.974037 286.451997 
L 360.274921 286.679205 
L 360.876691 286.733117 
L 361.177575 285.780339 
L 361.47846 287.597383 
L 361.779345 285.299351 
L 362.080229 285.239076 
L 362.681998 286.114498 
L 362.982883 287.090044 
L 363.283768 286.589798 
L 363.584652 286.587093 
L 363.885537 287.608849 
L 364.186422 288.103288 
L 364.487306 288.073178 
L 364.788191 287.047922 
L 365.089076 288.75975 
L 365.38996 286.12801 
L 365.690845 285.826986 
L 365.99173 286.615598 
L 366.292614 286.682599 
L 366.593499 285.948004 
L 366.894384 286.515855 
L 367.195268 288.031434 
L 368.097922 288.592483 
L 368.398807 288.444372 
L 368.699692 289.795473 
L 369.000576 288.007425 
L 369.301461 287.189576 
L 369.602346 288.517196 
L 369.90323 287.166718 
L 370.204115 288.90443 
L 370.505 288.632246 
L 370.805884 289.688591 
L 371.106769 289.487768 
L 371.407654 288.332066 
L 371.708538 290.016441 
L 372.009423 289.344441 
L 372.310308 289.265193 
L 372.611192 287.905611 
L 372.912077 288.125965 
L 373.212961 287.051175 
L 373.513846 287.974581 
L 373.814731 289.673154 
L 374.115615 288.164105 
L 374.4165 290.682486 
L 374.717385 289.521134 
L 375.018269 290.04811 
L 375.319154 289.949129 
L 375.620039 289.052827 
L 375.920923 290.42846 
L 376.522693 287.955649 
L 376.823577 289.548774 
L 377.124462 289.044251 
L 377.425347 290.532379 
L 377.726231 289.748444 
L 378.027116 291.185226 
L 378.328001 291.373866 
L 378.628885 290.830758 
L 378.92977 291.421278 
L 379.230655 291.070656 
L 379.531539 291.250261 
L 379.832424 289.910825 
L 380.133309 289.082008 
L 380.434193 290.810764 
L 380.735078 289.821891 
L 381.035963 291.33397 
L 381.336847 290.91109 
L 381.637732 291.875271 
L 381.938617 291.958423 
L 382.239501 291.804878 
L 382.540386 291.388157 
L 382.841271 292.613622 
L 383.142155 293.271962 
L 383.44304 291.0841 
L 384.044809 290.367333 
L 384.345694 291.156972 
L 384.646578 291.446929 
L 384.947463 290.824732 
L 385.248348 292.275278 
L 385.850117 293.036148 
L 386.151002 294.035644 
L 386.451886 292.703859 
L 386.752771 294.211987 
L 387.053656 292.373148 
L 387.35454 291.449974 
L 387.655425 291.773201 
L 387.95631 290.838664 
L 388.257194 292.235234 
L 388.558079 292.248353 
L 388.858964 293.796788 
L 389.460733 293.479259 
L 389.761618 293.885716 
L 390.062502 293.390694 
L 390.363387 294.855415 
L 390.664272 292.487958 
L 390.965156 292.291416 
L 391.266041 292.830488 
L 391.566926 293.004201 
L 391.86781 293.796946 
L 392.168695 292.90462 
L 392.46958 294.315227 
L 392.770464 294.761215 
L 393.071349 294.431849 
L 393.372234 295.389925 
L 393.673118 294.152262 
L 393.974003 295.004792 
L 394.274888 292.667745 
L 394.575772 294.210817 
L 394.876657 293.873365 
L 395.177541 293.06494 
L 395.478426 294.349325 
L 395.779311 294.593442 
L 396.080195 294.600139 
L 396.681965 295.409813 
L 396.982849 295.149406 
L 397.283734 294.593004 
L 397.584619 295.488 
L 397.885503 293.711771 
L 398.186388 294.096201 
L 398.487273 295.328113 
L 398.487273 295.328113 
" clip-path="url(#p2d35064f0b)" style="fill: none; stroke: #dc143c; stroke-width: 2; stroke-linecap: square"/>
   </g>
   <g id="line2d_27">
    <path d="M 73.832727 191.044451 
L 77.142459 191.044451 
L 77.443343 192.05973 
L 80.753074 192.05973 
L 81.053959 192.638943 
L 84.36369 192.638943 
L 84.664575 193.116937 
L 87.974306 193.116937 
L 88.275191 193.654696 
L 91.584922 193.654696 
L 91.885807 194.301225 
L 95.195538 194.301225 
L 95.496423 195.071179 
L 98.806154 195.071179 
L 99.107039 196.030138 
L 102.41677 196.030138 
L 102.717654 197.09265 
L 106.027386 197.09265 
L 106.32827 198.25306 
L 109.638002 198.25306 
L 109.938886 199.322474 
L 113.248617 199.322474 
L 113.549502 200.289597 
L 116.859233 200.289597 
L 117.160118 201.087024 
L 120.469849 201.087024 
L 120.770734 201.535834 
L 124.080465 201.535834 
L 124.38135 201.799384 
L 131.301697 201.764546 
L 131.903466 201.647538 
L 138.522929 201.589658 
L 138.823813 202.02344 
L 142.133545 202.02344 
L 142.434429 203.507139 
L 145.74416 203.507139 
L 146.045045 207.590849 
L 149.354776 207.590849 
L 149.655661 212.031262 
L 152.965392 212.031262 
L 153.266277 214.954062 
L 156.576008 214.954062 
L 156.876893 215.918763 
L 160.186624 215.918763 
L 160.487509 215.765319 
L 163.79724 215.765319 
L 164.399009 215.648111 
L 167.407856 215.648111 
L 167.70874 215.040976 
L 171.018472 215.040976 
L 171.319356 214.482808 
L 181.850319 214.425814 
L 182.151204 213.947945 
L 185.460935 213.947945 
L 185.76182 212.451114 
L 189.071551 212.451114 
L 189.372436 210.989396 
L 192.682167 210.989396 
L 192.983052 209.570766 
L 196.292783 209.570766 
L 196.593668 208.926721 
L 199.903399 208.926721 
L 200.204283 207.911816 
L 203.514015 207.911816 
L 203.814899 207.14904 
L 207.124631 207.14904 
L 207.425515 206.648191 
L 210.735246 206.648191 
L 211.036131 206.208342 
L 214.345862 206.208342 
L 214.646747 205.638229 
L 217.956478 205.638229 
L 218.257363 205.463878 
L 225.17771 205.3608 
L 225.478595 205.188482 
L 228.788326 205.188482 
L 229.089211 205.008564 
L 232.398942 205.008564 
L 233.000711 205.127282 
L 239.620174 205.216181 
L 240.221943 205.312069 
L 246.841405 205.302058 
L 247.14229 205.678485 
L 250.452021 205.678485 
L 250.752906 205.452856 
L 254.062637 205.452856 
L 254.363522 206.033342 
L 261.283869 206.108297 
L 261.584754 205.662158 
L 264.894485 205.662158 
L 265.195369 206.298352 
L 272.115717 206.252692 
L 272.416601 206.43799 
L 279.336948 206.441161 
L 279.637833 206.673518 
L 282.947564 206.673518 
L 283.248449 206.961482 
L 290.168796 206.898584 
L 290.469681 207.108723 
L 297.390028 207.127608 
L 297.991797 207.22457 
L 301.000644 207.22457 
L 301.301528 207.353537 
L 304.61126 207.353537 
L 304.912144 207.605815 
L 319.053723 207.662871 
L 319.354608 208.25715 
L 322.664339 208.25715 
L 322.965224 208.069604 
L 329.885571 208.127959 
L 330.48734 208.204887 
L 333.496187 208.204887 
L 333.797071 208.077331 
L 337.106803 208.077331 
L 337.407687 208.851179 
L 344.328034 208.840581 
L 344.628919 208.676552 
L 351.549266 208.759484 
L 352.45192 208.809226 
L 355.159882 208.809226 
L 355.761651 208.925023 
L 362.381114 209.020587 
L 362.982883 209.077781 
L 365.99173 209.077781 
L 366.292614 208.668302 
L 369.602346 208.668302 
L 369.90323 209.864398 
L 373.212961 209.864398 
L 373.513846 209.3187 
L 376.823577 209.3187 
L 377.124462 209.134637 
L 380.434193 209.134637 
L 380.735078 209.726694 
L 384.044809 209.726694 
L 384.345694 209.507744 
L 394.876657 209.458788 
L 395.177541 209.251721 
L 398.487273 209.251721 
L 398.487273 209.251721 
" clip-path="url(#p2d35064f0b)" style="fill: none; stroke: #ffff00; stroke-width: 3; stroke-linecap: square"/>
   </g>
   <g id="patch_3">
    <path d="M 57.6 307.584 
L 57.6 41.472 
" style="fill: none; stroke: #ffffff; stroke-linejoin: miter; stroke-linecap: square"/>
   </g>
   <g id="patch_4">
    <path d="M 414.72 307.584 
L 414.72 41.472 
" style="fill: none; stroke: #ffffff; stroke-linejoin: miter; stroke-linecap: square"/>
   </g>
   <g id="patch_5">
    <path d="M 57.6 307.584 
L 414.72 307.584 
" style="fill: none; stroke: #ffffff; stroke-linejoin: miter; stroke-linecap: square"/>
   </g>
   <g id="patch_6">
    <path d="M 57.6 41.472 
L 414.72 41.472 
" style="fill: none; stroke: #ffffff; stroke-linejoin: miter; stroke-linecap: square"/>
   </g>
   <g id="legend_1">
    <g id="patch_7">
     <path d="M 243.124687 302.584 
L 407.72 302.584 
Q 409.72 302.584 409.72 300.584 
L 409.72 257.549625 
Q 409.72 255.549625 407.72 255.549625 
L 243.124687 255.549625 
Q 241.124687 255.549625 241.124687 257.549625 
L 241.124687 300.584 
Q 241.124687 302.584 243.124687 302.584 
z
" style="fill: #e5e5e5; opacity: 0.8; stroke: #cccccc; stroke-width: 0.5; stroke-linejoin: miter"/>
    </g>
    <g id="line2d_28">
     <path d="M 245.124687 263.648062 
L 255.124687 263.648062 
L 265.124687 263.648062 
" style="fill: none; stroke: #6495ed; stroke-width: 2; stroke-linecap: square"/>
    </g>
    <g id="text_15">
     <!-- Generator loss -->
     <g transform="translate(273.124687 267.148062) scale(0.1 -0.1)">
      <defs>
       <path id="DejaVuSans-47" d="M 3809 666 
L 3809 1919 
L 2778 1919 
L 2778 2438 
L 4434 2438 
L 4434 434 
Q 4069 175 3628 42 
Q 3188 -91 2688 -91 
Q 1594 -91 976 548 
Q 359 1188 359 2328 
Q 359 3472 976 4111 
Q 1594 4750 2688 4750 
Q 3144 4750 3555 4637 
Q 3966 4525 4313 4306 
L 4313 3634 
Q 3963 3931 3569 4081 
Q 3175 4231 2741 4231 
Q 1884 4231 1454 3753 
Q 1025 3275 1025 2328 
Q 1025 1384 1454 906 
Q 1884 428 2741 428 
Q 3075 428 3337 486 
Q 3600 544 3809 666 
z
" transform="scale(0.015625)"/>
       <path id="DejaVuSans-65" d="M 3597 1894 
L 3597 1613 
L 953 1613 
Q 991 1019 1311 708 
Q 1631 397 2203 397 
Q 2534 397 2845 478 
Q 3156 559 3463 722 
L 3463 178 
Q 3153 47 2828 -22 
Q 2503 -91 2169 -91 
Q 1331 -91 842 396 
Q 353 884 353 1716 
Q 353 2575 817 3079 
Q 1281 3584 2069 3584 
Q 2775 3584 3186 3129 
Q 3597 2675 3597 1894 
z
M 3022 2063 
Q 3016 2534 2758 2815 
Q 2500 3097 2075 3097 
Q 1594 3097 1305 2825 
Q 1016 2553 972 2059 
L 3022 2063 
z
" transform="scale(0.015625)"/>
       <path id="DejaVuSans-6e" d="M 3513 2113 
L 3513 0 
L 2938 0 
L 2938 2094 
Q 2938 2591 2744 2837 
Q 2550 3084 2163 3084 
Q 1697 3084 1428 2787 
Q 1159 2491 1159 1978 
L 1159 0 
L 581 0 
L 581 3500 
L 1159 3500 
L 1159 2956 
Q 1366 3272 1645 3428 
Q 1925 3584 2291 3584 
Q 2894 3584 3203 3211 
Q 3513 2838 3513 2113 
z
" transform="scale(0.015625)"/>
       <path id="DejaVuSans-72" d="M 2631 2963 
Q 2534 3019 2420 3045 
Q 2306 3072 2169 3072 
Q 1681 3072 1420 2755 
Q 1159 2438 1159 1844 
L 1159 0 
L 581 0 
L 581 3500 
L 1159 3500 
L 1159 2956 
Q 1341 3275 1631 3429 
Q 1922 3584 2338 3584 
Q 2397 3584 2469 3576 
Q 2541 3569 2628 3553 
L 2631 2963 
z
" transform="scale(0.015625)"/>
       <path id="DejaVuSans-61" d="M 2194 1759 
Q 1497 1759 1228 1600 
Q 959 1441 959 1056 
Q 959 750 1161 570 
Q 1363 391 1709 391 
Q 2188 391 2477 730 
Q 2766 1069 2766 1631 
L 2766 1759 
L 2194 1759 
z
M 3341 1997 
L 3341 0 
L 2766 0 
L 2766 531 
Q 2569 213 2275 61 
Q 1981 -91 1556 -91 
Q 1019 -91 701 211 
Q 384 513 384 1019 
Q 384 1609 779 1909 
Q 1175 2209 1959 2209 
L 2766 2209 
L 2766 2266 
Q 2766 2663 2505 2880 
Q 2244 3097 1772 3097 
Q 1472 3097 1187 3025 
Q 903 2953 641 2809 
L 641 3341 
Q 956 3463 1253 3523 
Q 1550 3584 1831 3584 
Q 2591 3584 2966 3190 
Q 3341 2797 3341 1997 
z
" transform="scale(0.015625)"/>
       <path id="DejaVuSans-74" d="M 1172 4494 
L 1172 3500 
L 2356 3500 
L 2356 3053 
L 1172 3053 
L 1172 1153 
Q 1172 725 1289 603 
Q 1406 481 1766 481 
L 2356 481 
L 2356 0 
L 1766 0 
Q 1100 0 847 248 
Q 594 497 594 1153 
L 594 3053 
L 172 3053 
L 172 3500 
L 594 3500 
L 594 4494 
L 1172 4494 
z
" transform="scale(0.015625)"/>
       <path id="DejaVuSans-20" transform="scale(0.015625)"/>
       <path id="DejaVuSans-6c" d="M 603 4863 
L 1178 4863 
L 1178 0 
L 603 0 
L 603 4863 
z
" transform="scale(0.015625)"/>
      </defs>
      <use xlink:href="#DejaVuSans-47"/>
      <use xlink:href="#DejaVuSans-65" x="77.490234"/>
      <use xlink:href="#DejaVuSans-6e" x="139.013672"/>
      <use xlink:href="#DejaVuSans-65" x="202.392578"/>
      <use xlink:href="#DejaVuSans-72" x="263.916016"/>
      <use xlink:href="#DejaVuSans-61" x="305.029297"/>
      <use xlink:href="#DejaVuSans-74" x="366.308594"/>
      <use xlink:href="#DejaVuSans-6f" x="405.517578"/>
      <use xlink:href="#DejaVuSans-72" x="466.699219"/>
      <use xlink:href="#DejaVuSans-20" x="507.8125"/>
      <use xlink:href="#DejaVuSans-6c" x="539.599609"/>
      <use xlink:href="#DejaVuSans-6f" x="567.382812"/>
      <use xlink:href="#DejaVuSans-73" x="628.564453"/>
      <use xlink:href="#DejaVuSans-73" x="680.664062"/>
     </g>
    </g>
    <g id="line2d_29">
     <path d="M 245.124687 278.326188 
L 255.124687 278.326188 
L 265.124687 278.326188 
" style="fill: none; stroke: #dc143c; stroke-width: 2; stroke-linecap: square"/>
    </g>
    <g id="text_16">
     <!-- Average discriminator loss -->
     <g transform="translate(273.124687 281.826188) scale(0.1 -0.1)">
      <defs>
       <path id="DejaVuSans-41" d="M 2188 4044 
L 1331 1722 
L 3047 1722 
L 2188 4044 
z
M 1831 4666 
L 2547 4666 
L 4325 0 
L 3669 0 
L 3244 1197 
L 1141 1197 
L 716 0 
L 50 0 
L 1831 4666 
z
" transform="scale(0.015625)"/>
       <path id="DejaVuSans-76" d="M 191 3500 
L 800 3500 
L 1894 563 
L 2988 3500 
L 3597 3500 
L 2284 0 
L 1503 0 
L 191 3500 
z
" transform="scale(0.015625)"/>
       <path id="DejaVuSans-67" d="M 2906 1791 
Q 2906 2416 2648 2759 
Q 2391 3103 1925 3103 
Q 1463 3103 1205 2759 
Q 947 2416 947 1791 
Q 947 1169 1205 825 
Q 1463 481 1925 481 
Q 2391 481 2648 825 
Q 2906 1169 2906 1791 
z
M 3481 434 
Q 3481 -459 3084 -895 
Q 2688 -1331 1869 -1331 
Q 1566 -1331 1297 -1286 
Q 1028 -1241 775 -1147 
L 775 -588 
Q 1028 -725 1275 -790 
Q 1522 -856 1778 -856 
Q 2344 -856 2625 -561 
Q 2906 -266 2906 331 
L 2906 616 
Q 2728 306 2450 153 
Q 2172 0 1784 0 
Q 1141 0 747 490 
Q 353 981 353 1791 
Q 353 2603 747 3093 
Q 1141 3584 1784 3584 
Q 2172 3584 2450 3431 
Q 2728 3278 2906 2969 
L 2906 3500 
L 3481 3500 
L 3481 434 
z
" transform="scale(0.015625)"/>
       <path id="DejaVuSans-64" d="M 2906 2969 
L 2906 4863 
L 3481 4863 
L 3481 0 
L 2906 0 
L 2906 525 
Q 2725 213 2448 61 
Q 2172 -91 1784 -91 
Q 1150 -91 751 415 
Q 353 922 353 1747 
Q 353 2572 751 3078 
Q 1150 3584 1784 3584 
Q 2172 3584 2448 3432 
Q 2725 3281 2906 2969 
z
M 947 1747 
Q 947 1113 1208 752 
Q 1469 391 1925 391 
Q 2381 391 2643 752 
Q 2906 1113 2906 1747 
Q 2906 2381 2643 2742 
Q 2381 3103 1925 3103 
Q 1469 3103 1208 2742 
Q 947 2381 947 1747 
z
" transform="scale(0.015625)"/>
       <path id="DejaVuSans-69" d="M 603 3500 
L 1178 3500 
L 1178 0 
L 603 0 
L 603 3500 
z
M 603 4863 
L 1178 4863 
L 1178 4134 
L 603 4134 
L 603 4863 
z
" transform="scale(0.015625)"/>
       <path id="DejaVuSans-6d" d="M 3328 2828 
Q 3544 3216 3844 3400 
Q 4144 3584 4550 3584 
Q 5097 3584 5394 3201 
Q 5691 2819 5691 2113 
L 5691 0 
L 5113 0 
L 5113 2094 
Q 5113 2597 4934 2840 
Q 4756 3084 4391 3084 
Q 3944 3084 3684 2787 
Q 3425 2491 3425 1978 
L 3425 0 
L 2847 0 
L 2847 2094 
Q 2847 2600 2669 2842 
Q 2491 3084 2119 3084 
Q 1678 3084 1418 2786 
Q 1159 2488 1159 1978 
L 1159 0 
L 581 0 
L 581 3500 
L 1159 3500 
L 1159 2956 
Q 1356 3278 1631 3431 
Q 1906 3584 2284 3584 
Q 2666 3584 2933 3390 
Q 3200 3197 3328 2828 
z
" transform="scale(0.015625)"/>
      </defs>
      <use xlink:href="#DejaVuSans-41"/>
      <use xlink:href="#DejaVuSans-76" x="62.533203"/>
      <use xlink:href="#DejaVuSans-65" x="121.712891"/>
      <use xlink:href="#DejaVuSans-72" x="183.236328"/>
      <use xlink:href="#DejaVuSans-61" x="224.349609"/>
      <use xlink:href="#DejaVuSans-67" x="285.628906"/>
      <use xlink:href="#DejaVuSans-65" x="349.105469"/>
      <use xlink:href="#DejaVuSans-20" x="410.628906"/>
      <use xlink:href="#DejaVuSans-64" x="442.416016"/>
      <use xlink:href="#DejaVuSans-69" x="505.892578"/>
      <use xlink:href="#DejaVuSans-73" x="533.675781"/>
      <use xlink:href="#DejaVuSans-63" x="585.775391"/>
      <use xlink:href="#DejaVuSans-72" x="640.755859"/>
      <use xlink:href="#DejaVuSans-69" x="681.869141"/>
      <use xlink:href="#DejaVuSans-6d" x="709.652344"/>
      <use xlink:href="#DejaVuSans-69" x="807.064453"/>
      <use xlink:href="#DejaVuSans-6e" x="834.847656"/>
      <use xlink:href="#DejaVuSans-61" x="898.226562"/>
      <use xlink:href="#DejaVuSans-74" x="959.505859"/>
      <use xlink:href="#DejaVuSans-6f" x="998.714844"/>
      <use xlink:href="#DejaVuSans-72" x="1059.896484"/>
      <use xlink:href="#DejaVuSans-20" x="1101.009766"/>
      <use xlink:href="#DejaVuSans-6c" x="1132.796875"/>
      <use xlink:href="#DejaVuSans-6f" x="1160.580078"/>
      <use xlink:href="#DejaVuSans-73" x="1221.761719"/>
      <use xlink:href="#DejaVuSans-73" x="1273.861328"/>
     </g>
    </g>
    <g id="line2d_30">
     <path d="M 245.124687 293.004312 
L 255.124687 293.004312 
L 265.124687 293.004312 
" style="fill: none; stroke: #ffff00; stroke-width: 3; stroke-linecap: square"/>
    </g>
    <g id="text_17">
     <!-- ROC AUC -->
     <g transform="translate(273.124687 296.504312) scale(0.1 -0.1)">
      <defs>
       <path id="DejaVuSans-52" d="M 2841 2188 
Q 3044 2119 3236 1894 
Q 3428 1669 3622 1275 
L 4263 0 
L 3584 0 
L 2988 1197 
Q 2756 1666 2539 1819 
Q 2322 1972 1947 1972 
L 1259 1972 
L 1259 0 
L 628 0 
L 628 4666 
L 2053 4666 
Q 2853 4666 3247 4331 
Q 3641 3997 3641 3322 
Q 3641 2881 3436 2590 
Q 3231 2300 2841 2188 
z
M 1259 4147 
L 1259 2491 
L 2053 2491 
Q 2509 2491 2742 2702 
Q 2975 2913 2975 3322 
Q 2975 3731 2742 3939 
Q 2509 4147 2053 4147 
L 1259 4147 
z
" transform="scale(0.015625)"/>
       <path id="DejaVuSans-4f" d="M 2522 4238 
Q 1834 4238 1429 3725 
Q 1025 3213 1025 2328 
Q 1025 1447 1429 934 
Q 1834 422 2522 422 
Q 3209 422 3611 934 
Q 4013 1447 4013 2328 
Q 4013 3213 3611 3725 
Q 3209 4238 2522 4238 
z
M 2522 4750 
Q 3503 4750 4090 4092 
Q 4678 3434 4678 2328 
Q 4678 1225 4090 567 
Q 3503 -91 2522 -91 
Q 1538 -91 948 565 
Q 359 1222 359 2328 
Q 359 3434 948 4092 
Q 1538 4750 2522 4750 
z
" transform="scale(0.015625)"/>
       <path id="DejaVuSans-43" d="M 4122 4306 
L 4122 3641 
Q 3803 3938 3442 4084 
Q 3081 4231 2675 4231 
Q 1875 4231 1450 3742 
Q 1025 3253 1025 2328 
Q 1025 1406 1450 917 
Q 1875 428 2675 428 
Q 3081 428 3442 575 
Q 3803 722 4122 1019 
L 4122 359 
Q 3791 134 3420 21 
Q 3050 -91 2638 -91 
Q 1578 -91 968 557 
Q 359 1206 359 2328 
Q 359 3453 968 4101 
Q 1578 4750 2638 4750 
Q 3056 4750 3426 4639 
Q 3797 4528 4122 4306 
z
" transform="scale(0.015625)"/>
       <path id="DejaVuSans-55" d="M 556 4666 
L 1191 4666 
L 1191 1831 
Q 1191 1081 1462 751 
Q 1734 422 2344 422 
Q 2950 422 3222 751 
Q 3494 1081 3494 1831 
L 3494 4666 
L 4128 4666 
L 4128 1753 
Q 4128 841 3676 375 
Q 3225 -91 2344 -91 
Q 1459 -91 1007 375 
Q 556 841 556 1753 
L 556 4666 
z
" transform="scale(0.015625)"/>
      </defs>
      <use xlink:href="#DejaVuSans-52"/>
      <use xlink:href="#DejaVuSans-4f" x="69.482422"/>
      <use xlink:href="#DejaVuSans-43" x="148.193359"/>
      <use xlink:href="#DejaVuSans-20" x="218.017578"/>
      <use xlink:href="#DejaVuSans-41" x="249.804688"/>
      <use xlink:href="#DejaVuSans-55" x="318.212891"/>
      <use xlink:href="#DejaVuSans-43" x="391.40625"/>
     </g>
    </g>
   </g>
  </g>
 </g>
 <defs>
  <clipPath id="p2d35064f0b">
   <rect x="57.6" y="41.472" width="357.12" height="266.112"/>
  </clipPath>
 </defs>
</svg>
