<?xml version="1.0" encoding="utf-8" standalone="no"?>
<!DOCTYPE svg PUBLIC "-//W3C//DTD SVG 1.1//EN"
  "http://www.w3.org/Graphics/SVG/1.1/DTD/svg11.dtd">
<svg xmlns:xlink="http://www.w3.org/1999/xlink" width="460.8pt" height="345.6pt" viewBox="0 0 460.8 345.6" xmlns="http://www.w3.org/2000/svg" version="1.1">
 <metadata>
  <rdf:RDF xmlns:dc="http://purl.org/dc/elements/1.1/" xmlns:cc="http://creativecommons.org/ns#" xmlns:rdf="http://www.w3.org/1999/02/22-rdf-syntax-ns#">
   <cc:Work>
    <dc:type rdf:resource="http://purl.org/dc/dcmitype/StillImage"/>
    <dc:date>2023-07-11T11:28:38.322496</dc:date>
    <dc:format>image/svg+xml</dc:format>
    <dc:creator>
     <cc:Agent>
      <dc:title>Matplotlib v3.7.1, https://matplotlib.org/</dc:title>
     </cc:Agent>
    </dc:creator>
   </cc:Work>
  </rdf:RDF>
 </metadata>
 <defs>
  <style type="text/css">*{stroke-linejoin: round; stroke-linecap: butt}</style>
 </defs>
 <g id="figure_1">
  <g id="patch_1">
   <path d="M 0 345.6 
L 460.8 345.6 
L 460.8 0 
L 0 0 
z
" style="fill: #ffffff"/>
  </g>
  <g id="axes_1">
   <g id="patch_2">
    <path d="M 57.6 307.584 
L 414.72 307.584 
L 414.72 41.472 
L 57.6 41.472 
z
" style="fill: #e5e5e5"/>
   </g>
   <g id="matplotlib.axis_1">
    <g id="xtick_1">
     <g id="line2d_1">
      <path d="M 73.531843 307.584 
L 73.531843 41.472 
" clip-path="url(#pe754385c2a)" style="fill: none; stroke: #ffffff; stroke-width: 0.8; stroke-linecap: square"/>
     </g>
     <g id="line2d_2">
      <defs>
       <path id="m32034944b3" d="M 0 0 
L 0 3.5 
" style="stroke: #555555; stroke-width: 0.8"/>
      </defs>
      <g>
       <use xlink:href="#m32034944b3" x="73.531843" y="307.584" style="fill: #555555; stroke: #555555; stroke-width: 0.8"/>
      </g>
     </g>
     <g id="text_1">
      <!-- 0 -->
      <g style="fill: #555555" transform="translate(70.350593 322.182437) scale(0.1 -0.1)">
       <defs>
        <path id="DejaVuSans-30" d="M 2034 4250 
Q 1547 4250 1301 3770 
Q 1056 3291 1056 2328 
Q 1056 1369 1301 889 
Q 1547 409 2034 409 
Q 2525 409 2770 889 
Q 3016 1369 3016 2328 
Q 3016 3291 2770 3770 
Q 2525 4250 2034 4250 
z
M 2034 4750 
Q 2819 4750 3233 4129 
Q 3647 3509 3647 2328 
Q 3647 1150 3233 529 
Q 2819 -91 2034 -91 
Q 1250 -91 836 529 
Q 422 1150 422 2328 
Q 422 3509 836 4129 
Q 1250 4750 2034 4750 
z
" transform="scale(0.015625)"/>
       </defs>
       <use xlink:href="#DejaVuSans-30"/>
      </g>
     </g>
    </g>
    <g id="xtick_2">
     <g id="line2d_3">
      <path d="M 133.708774 307.584 
L 133.708774 41.472 
" clip-path="url(#pe754385c2a)" style="fill: none; stroke: #ffffff; stroke-width: 0.8; stroke-linecap: square"/>
     </g>
     <g id="line2d_4">
      <g>
       <use xlink:href="#m32034944b3" x="133.708774" y="307.584" style="fill: #555555; stroke: #555555; stroke-width: 0.8"/>
      </g>
     </g>
     <g id="text_2">
      <!-- 200 -->
      <g style="fill: #555555" transform="translate(124.165024 322.182437) scale(0.1 -0.1)">
       <defs>
        <path id="DejaVuSans-32" d="M 1228 531 
L 3431 531 
L 3431 0 
L 469 0 
L 469 531 
Q 828 903 1448 1529 
Q 2069 2156 2228 2338 
Q 2531 2678 2651 2914 
Q 2772 3150 2772 3378 
Q 2772 3750 2511 3984 
Q 2250 4219 1831 4219 
Q 1534 4219 1204 4116 
Q 875 4013 500 3803 
L 500 4441 
Q 881 4594 1212 4672 
Q 1544 4750 1819 4750 
Q 2544 4750 2975 4387 
Q 3406 4025 3406 3419 
Q 3406 3131 3298 2873 
Q 3191 2616 2906 2266 
Q 2828 2175 2409 1742 
Q 1991 1309 1228 531 
z
" transform="scale(0.015625)"/>
       </defs>
       <use xlink:href="#DejaVuSans-32"/>
       <use xlink:href="#DejaVuSans-30" x="63.623047"/>
       <use xlink:href="#DejaVuSans-30" x="127.246094"/>
      </g>
     </g>
    </g>
    <g id="xtick_3">
     <g id="line2d_5">
      <path d="M 193.885706 307.584 
L 193.885706 41.472 
" clip-path="url(#pe754385c2a)" style="fill: none; stroke: #ffffff; stroke-width: 0.8; stroke-linecap: square"/>
     </g>
     <g id="line2d_6">
      <g>
       <use xlink:href="#m32034944b3" x="193.885706" y="307.584" style="fill: #555555; stroke: #555555; stroke-width: 0.8"/>
      </g>
     </g>
     <g id="text_3">
      <!-- 400 -->
      <g style="fill: #555555" transform="translate(184.341956 322.182437) scale(0.1 -0.1)">
       <defs>
        <path id="DejaVuSans-34" d="M 2419 4116 
L 825 1625 
L 2419 1625 
L 2419 4116 
z
M 2253 4666 
L 3047 4666 
L 3047 1625 
L 3713 1625 
L 3713 1100 
L 3047 1100 
L 3047 0 
L 2419 0 
L 2419 1100 
L 313 1100 
L 313 1709 
L 2253 4666 
z
" transform="scale(0.015625)"/>
       </defs>
       <use xlink:href="#DejaVuSans-34"/>
       <use xlink:href="#DejaVuSans-30" x="63.623047"/>
       <use xlink:href="#DejaVuSans-30" x="127.246094"/>
      </g>
     </g>
    </g>
    <g id="xtick_4">
     <g id="line2d_7">
      <path d="M 254.062637 307.584 
L 254.062637 41.472 
" clip-path="url(#pe754385c2a)" style="fill: none; stroke: #ffffff; stroke-width: 0.8; stroke-linecap: square"/>
     </g>
     <g id="line2d_8">
      <g>
       <use xlink:href="#m32034944b3" x="254.062637" y="307.584" style="fill: #555555; stroke: #555555; stroke-width: 0.8"/>
      </g>
     </g>
     <g id="text_4">
      <!-- 600 -->
      <g style="fill: #555555" transform="translate(244.518887 322.182437) scale(0.1 -0.1)">
       <defs>
        <path id="DejaVuSans-36" d="M 2113 2584 
Q 1688 2584 1439 2293 
Q 1191 2003 1191 1497 
Q 1191 994 1439 701 
Q 1688 409 2113 409 
Q 2538 409 2786 701 
Q 3034 994 3034 1497 
Q 3034 2003 2786 2293 
Q 2538 2584 2113 2584 
z
M 3366 4563 
L 3366 3988 
Q 3128 4100 2886 4159 
Q 2644 4219 2406 4219 
Q 1781 4219 1451 3797 
Q 1122 3375 1075 2522 
Q 1259 2794 1537 2939 
Q 1816 3084 2150 3084 
Q 2853 3084 3261 2657 
Q 3669 2231 3669 1497 
Q 3669 778 3244 343 
Q 2819 -91 2113 -91 
Q 1303 -91 875 529 
Q 447 1150 447 2328 
Q 447 3434 972 4092 
Q 1497 4750 2381 4750 
Q 2619 4750 2861 4703 
Q 3103 4656 3366 4563 
z
" transform="scale(0.015625)"/>
       </defs>
       <use xlink:href="#DejaVuSans-36"/>
       <use xlink:href="#DejaVuSans-30" x="63.623047"/>
       <use xlink:href="#DejaVuSans-30" x="127.246094"/>
      </g>
     </g>
    </g>
    <g id="xtick_5">
     <g id="line2d_9">
      <path d="M 314.239569 307.584 
L 314.239569 41.472 
" clip-path="url(#pe754385c2a)" style="fill: none; stroke: #ffffff; stroke-width: 0.8; stroke-linecap: square"/>
     </g>
     <g id="line2d_10">
      <g>
       <use xlink:href="#m32034944b3" x="314.239569" y="307.584" style="fill: #555555; stroke: #555555; stroke-width: 0.8"/>
      </g>
     </g>
     <g id="text_5">
      <!-- 800 -->
      <g style="fill: #555555" transform="translate(304.695819 322.182437) scale(0.1 -0.1)">
       <defs>
        <path id="DejaVuSans-38" d="M 2034 2216 
Q 1584 2216 1326 1975 
Q 1069 1734 1069 1313 
Q 1069 891 1326 650 
Q 1584 409 2034 409 
Q 2484 409 2743 651 
Q 3003 894 3003 1313 
Q 3003 1734 2745 1975 
Q 2488 2216 2034 2216 
z
M 1403 2484 
Q 997 2584 770 2862 
Q 544 3141 544 3541 
Q 544 4100 942 4425 
Q 1341 4750 2034 4750 
Q 2731 4750 3128 4425 
Q 3525 4100 3525 3541 
Q 3525 3141 3298 2862 
Q 3072 2584 2669 2484 
Q 3125 2378 3379 2068 
Q 3634 1759 3634 1313 
Q 3634 634 3220 271 
Q 2806 -91 2034 -91 
Q 1263 -91 848 271 
Q 434 634 434 1313 
Q 434 1759 690 2068 
Q 947 2378 1403 2484 
z
M 1172 3481 
Q 1172 3119 1398 2916 
Q 1625 2713 2034 2713 
Q 2441 2713 2670 2916 
Q 2900 3119 2900 3481 
Q 2900 3844 2670 4047 
Q 2441 4250 2034 4250 
Q 1625 4250 1398 4047 
Q 1172 3844 1172 3481 
z
" transform="scale(0.015625)"/>
       </defs>
       <use xlink:href="#DejaVuSans-38"/>
       <use xlink:href="#DejaVuSans-30" x="63.623047"/>
       <use xlink:href="#DejaVuSans-30" x="127.246094"/>
      </g>
     </g>
    </g>
    <g id="xtick_6">
     <g id="line2d_11">
      <path d="M 374.4165 307.584 
L 374.4165 41.472 
" clip-path="url(#pe754385c2a)" style="fill: none; stroke: #ffffff; stroke-width: 0.8; stroke-linecap: square"/>
     </g>
     <g id="line2d_12">
      <g>
       <use xlink:href="#m32034944b3" x="374.4165" y="307.584" style="fill: #555555; stroke: #555555; stroke-width: 0.8"/>
      </g>
     </g>
     <g id="text_6">
      <!-- 1000 -->
      <g style="fill: #555555" transform="translate(361.6915 322.182437) scale(0.1 -0.1)">
       <defs>
        <path id="DejaVuSans-31" d="M 794 531 
L 1825 531 
L 1825 4091 
L 703 3866 
L 703 4441 
L 1819 4666 
L 2450 4666 
L 2450 531 
L 3481 531 
L 3481 0 
L 794 0 
L 794 531 
z
" transform="scale(0.015625)"/>
       </defs>
       <use xlink:href="#DejaVuSans-31"/>
       <use xlink:href="#DejaVuSans-30" x="63.623047"/>
       <use xlink:href="#DejaVuSans-30" x="127.246094"/>
       <use xlink:href="#DejaVuSans-30" x="190.869141"/>
      </g>
     </g>
    </g>
    <g id="text_7">
     <!-- Epoch -->
     <g style="fill: #555555" transform="translate(217.786875 337.38025) scale(0.12 -0.12)">
      <defs>
       <path id="DejaVuSans-45" d="M 628 4666 
L 3578 4666 
L 3578 4134 
L 1259 4134 
L 1259 2753 
L 3481 2753 
L 3481 2222 
L 1259 2222 
L 1259 531 
L 3634 531 
L 3634 0 
L 628 0 
L 628 4666 
z
" transform="scale(0.015625)"/>
       <path id="DejaVuSans-70" d="M 1159 525 
L 1159 -1331 
L 581 -1331 
L 581 3500 
L 1159 3500 
L 1159 2969 
Q 1341 3281 1617 3432 
Q 1894 3584 2278 3584 
Q 2916 3584 3314 3078 
Q 3713 2572 3713 1747 
Q 3713 922 3314 415 
Q 2916 -91 2278 -91 
Q 1894 -91 1617 61 
Q 1341 213 1159 525 
z
M 3116 1747 
Q 3116 2381 2855 2742 
Q 2594 3103 2138 3103 
Q 1681 3103 1420 2742 
Q 1159 2381 1159 1747 
Q 1159 1113 1420 752 
Q 1681 391 2138 391 
Q 2594 391 2855 752 
Q 3116 1113 3116 1747 
z
" transform="scale(0.015625)"/>
       <path id="DejaVuSans-6f" d="M 1959 3097 
Q 1497 3097 1228 2736 
Q 959 2375 959 1747 
Q 959 1119 1226 758 
Q 1494 397 1959 397 
Q 2419 397 2687 759 
Q 2956 1122 2956 1747 
Q 2956 2369 2687 2733 
Q 2419 3097 1959 3097 
z
M 1959 3584 
Q 2709 3584 3137 3096 
Q 3566 2609 3566 1747 
Q 3566 888 3137 398 
Q 2709 -91 1959 -91 
Q 1206 -91 779 398 
Q 353 888 353 1747 
Q 353 2609 779 3096 
Q 1206 3584 1959 3584 
z
" transform="scale(0.015625)"/>
       <path id="DejaVuSans-63" d="M 3122 3366 
L 3122 2828 
Q 2878 2963 2633 3030 
Q 2388 3097 2138 3097 
Q 1578 3097 1268 2742 
Q 959 2388 959 1747 
Q 959 1106 1268 751 
Q 1578 397 2138 397 
Q 2388 397 2633 464 
Q 2878 531 3122 666 
L 3122 134 
Q 2881 22 2623 -34 
Q 2366 -91 2075 -91 
Q 1284 -91 818 406 
Q 353 903 353 1747 
Q 353 2603 823 3093 
Q 1294 3584 2113 3584 
Q 2378 3584 2631 3529 
Q 2884 3475 3122 3366 
z
" transform="scale(0.015625)"/>
       <path id="DejaVuSans-68" d="M 3513 2113 
L 3513 0 
L 2938 0 
L 2938 2094 
Q 2938 2591 2744 2837 
Q 2550 3084 2163 3084 
Q 1697 3084 1428 2787 
Q 1159 2491 1159 1978 
L 1159 0 
L 581 0 
L 581 4863 
L 1159 4863 
L 1159 2956 
Q 1366 3272 1645 3428 
Q 1925 3584 2291 3584 
Q 2894 3584 3203 3211 
Q 3513 2838 3513 2113 
z
" transform="scale(0.015625)"/>
      </defs>
      <use xlink:href="#DejaVuSans-45"/>
      <use xlink:href="#DejaVuSans-70" x="63.183594"/>
      <use xlink:href="#DejaVuSans-6f" x="126.660156"/>
      <use xlink:href="#DejaVuSans-63" x="187.841797"/>
      <use xlink:href="#DejaVuSans-68" x="242.822266"/>
     </g>
    </g>
   </g>
   <g id="matplotlib.axis_2">
    <g id="ytick_1">
     <g id="line2d_13">
      <path d="M 57.6 282.876741 
L 414.72 282.876741 
" clip-path="url(#pe754385c2a)" style="fill: none; stroke: #ffffff; stroke-width: 0.8; stroke-linecap: square"/>
     </g>
     <g id="line2d_14">
      <defs>
       <path id="m8a4b344367" d="M 0 0 
L -3.5 0 
" style="stroke: #555555; stroke-width: 0.8"/>
      </defs>
      <g>
       <use xlink:href="#m8a4b344367" x="57.6" y="282.876741" style="fill: #555555; stroke: #555555; stroke-width: 0.8"/>
      </g>
     </g>
     <g id="text_8">
      <!-- 0.4 -->
      <g style="fill: #555555" transform="translate(34.696875 286.67596) scale(0.1 -0.1)">
       <defs>
        <path id="DejaVuSans-2e" d="M 684 794 
L 1344 794 
L 1344 0 
L 684 0 
L 684 794 
z
" transform="scale(0.015625)"/>
       </defs>
       <use xlink:href="#DejaVuSans-30"/>
       <use xlink:href="#DejaVuSans-2e" x="63.623047"/>
       <use xlink:href="#DejaVuSans-34" x="95.410156"/>
      </g>
     </g>
    </g>
    <g id="ytick_2">
     <g id="line2d_15">
      <path d="M 57.6 237.529731 
L 414.72 237.529731 
" clip-path="url(#pe754385c2a)" style="fill: none; stroke: #ffffff; stroke-width: 0.8; stroke-linecap: square"/>
     </g>
     <g id="line2d_16">
      <g>
       <use xlink:href="#m8a4b344367" x="57.6" y="237.529731" style="fill: #555555; stroke: #555555; stroke-width: 0.8"/>
      </g>
     </g>
     <g id="text_9">
      <!-- 0.6 -->
      <g style="fill: #555555" transform="translate(34.696875 241.32895) scale(0.1 -0.1)">
       <use xlink:href="#DejaVuSans-30"/>
       <use xlink:href="#DejaVuSans-2e" x="63.623047"/>
       <use xlink:href="#DejaVuSans-36" x="95.410156"/>
      </g>
     </g>
    </g>
    <g id="ytick_3">
     <g id="line2d_17">
      <path d="M 57.6 192.18272 
L 414.72 192.18272 
" clip-path="url(#pe754385c2a)" style="fill: none; stroke: #ffffff; stroke-width: 0.8; stroke-linecap: square"/>
     </g>
     <g id="line2d_18">
      <g>
       <use xlink:href="#m8a4b344367" x="57.6" y="192.18272" style="fill: #555555; stroke: #555555; stroke-width: 0.8"/>
      </g>
     </g>
     <g id="text_10">
      <!-- 0.8 -->
      <g style="fill: #555555" transform="translate(34.696875 195.981939) scale(0.1 -0.1)">
       <use xlink:href="#DejaVuSans-30"/>
       <use xlink:href="#DejaVuSans-2e" x="63.623047"/>
       <use xlink:href="#DejaVuSans-38" x="95.410156"/>
      </g>
     </g>
    </g>
    <g id="ytick_4">
     <g id="line2d_19">
      <path d="M 57.6 146.83571 
L 414.72 146.83571 
" clip-path="url(#pe754385c2a)" style="fill: none; stroke: #ffffff; stroke-width: 0.8; stroke-linecap: square"/>
     </g>
     <g id="line2d_20">
      <g>
       <use xlink:href="#m8a4b344367" x="57.6" y="146.83571" style="fill: #555555; stroke: #555555; stroke-width: 0.8"/>
      </g>
     </g>
     <g id="text_11">
      <!-- 1.0 -->
      <g style="fill: #555555" transform="translate(34.696875 150.634929) scale(0.1 -0.1)">
       <use xlink:href="#DejaVuSans-31"/>
       <use xlink:href="#DejaVuSans-2e" x="63.623047"/>
       <use xlink:href="#DejaVuSans-30" x="95.410156"/>
      </g>
     </g>
    </g>
    <g id="ytick_5">
     <g id="line2d_21">
      <path d="M 57.6 101.488699 
L 414.72 101.488699 
" clip-path="url(#pe754385c2a)" style="fill: none; stroke: #ffffff; stroke-width: 0.8; stroke-linecap: square"/>
     </g>
     <g id="line2d_22">
      <g>
       <use xlink:href="#m8a4b344367" x="57.6" y="101.488699" style="fill: #555555; stroke: #555555; stroke-width: 0.8"/>
      </g>
     </g>
     <g id="text_12">
      <!-- 1.2 -->
      <g style="fill: #555555" transform="translate(34.696875 105.287918) scale(0.1 -0.1)">
       <use xlink:href="#DejaVuSans-31"/>
       <use xlink:href="#DejaVuSans-2e" x="63.623047"/>
       <use xlink:href="#DejaVuSans-32" x="95.410156"/>
      </g>
     </g>
    </g>
    <g id="ytick_6">
     <g id="line2d_23">
      <path d="M 57.6 56.141689 
L 414.72 56.141689 
" clip-path="url(#pe754385c2a)" style="fill: none; stroke: #ffffff; stroke-width: 0.8; stroke-linecap: square"/>
     </g>
     <g id="line2d_24">
      <g>
       <use xlink:href="#m8a4b344367" x="57.6" y="56.141689" style="fill: #555555; stroke: #555555; stroke-width: 0.8"/>
      </g>
     </g>
     <g id="text_13">
      <!-- 1.4 -->
      <g style="fill: #555555" transform="translate(34.696875 59.940908) scale(0.1 -0.1)">
       <use xlink:href="#DejaVuSans-31"/>
       <use xlink:href="#DejaVuSans-2e" x="63.623047"/>
       <use xlink:href="#DejaVuSans-34" x="95.410156"/>
      </g>
     </g>
    </g>
    <g id="text_14">
     <!-- Loss -->
     <g style="fill: #555555" transform="translate(28.20125 187.688625) rotate(-90) scale(0.12 -0.12)">
      <defs>
       <path id="DejaVuSans-4c" d="M 628 4666 
L 1259 4666 
L 1259 531 
L 3531 531 
L 3531 0 
L 628 0 
L 628 4666 
z
" transform="scale(0.015625)"/>
       <path id="DejaVuSans-73" d="M 2834 3397 
L 2834 2853 
Q 2591 2978 2328 3040 
Q 2066 3103 1784 3103 
Q 1356 3103 1142 2972 
Q 928 2841 928 2578 
Q 928 2378 1081 2264 
Q 1234 2150 1697 2047 
L 1894 2003 
Q 2506 1872 2764 1633 
Q 3022 1394 3022 966 
Q 3022 478 2636 193 
Q 2250 -91 1575 -91 
Q 1294 -91 989 -36 
Q 684 19 347 128 
L 347 722 
Q 666 556 975 473 
Q 1284 391 1588 391 
Q 1994 391 2212 530 
Q 2431 669 2431 922 
Q 2431 1156 2273 1281 
Q 2116 1406 1581 1522 
L 1381 1569 
Q 847 1681 609 1914 
Q 372 2147 372 2553 
Q 372 3047 722 3315 
Q 1072 3584 1716 3584 
Q 2034 3584 2315 3537 
Q 2597 3491 2834 3397 
z
" transform="scale(0.015625)"/>
      </defs>
      <use xlink:href="#DejaVuSans-4c"/>
      <use xlink:href="#DejaVuSans-6f" x="53.962891"/>
      <use xlink:href="#DejaVuSans-73" x="115.144531"/>
      <use xlink:href="#DejaVuSans-73" x="167.244141"/>
     </g>
    </g>
   </g>
   <g id="line2d_25">
    <path d="M 73.832727 209.120596 
L 75.337151 193.178274 
L 76.841574 179.436998 
L 80.753074 148.571413 
L 82.558382 136.364569 
L 83.461036 130.760446 
L 84.062806 127.972007 
L 86.168998 117.71499 
L 86.469883 116.367787 
L 86.770768 115.631195 
L 87.372537 111.623968 
L 87.673422 112.055592 
L 87.974306 110.928892 
L 88.275191 109.30921 
L 88.576075 109.287047 
L 88.87696 109.121954 
L 89.177845 107.038673 
L 89.478729 107.176493 
L 89.779614 104.910794 
L 90.080499 104.665776 
L 90.381383 104.854114 
L 91.284037 102.056323 
L 91.584922 102.257148 
L 91.885807 100.752258 
L 92.186691 101.108392 
L 92.487576 101.671485 
L 93.39023 99.393785 
L 93.691115 99.264586 
L 93.991999 100.302416 
L 94.292884 99.23899 
L 94.593769 99.06214 
L 94.894653 99.855168 
L 95.195538 99.133307 
L 95.797307 99.014055 
L 96.098192 100.154027 
L 96.399077 98.493667 
L 96.699961 99.689211 
L 97.000846 99.764162 
L 97.301731 99.656046 
L 97.602615 98.696519 
L 98.204385 100.665198 
L 98.505269 99.590042 
L 98.806154 102.038808 
L 99.107039 100.916081 
L 99.407923 101.384951 
L 99.708808 102.542898 
L 100.009692 102.628012 
L 100.310577 102.91414 
L 100.611462 103.603107 
L 100.912346 102.820674 
L 101.213231 104.316644 
L 101.514116 104.459032 
L 101.815 104.80657 
L 102.115885 105.514863 
L 102.717654 107.547844 
L 103.018539 107.271203 
L 103.319424 108.221972 
L 104.222078 109.150956 
L 104.522962 110.168946 
L 104.823847 111.911015 
L 105.124732 110.541216 
L 105.726501 112.585711 
L 106.027386 114.986204 
L 106.32827 114.974203 
L 106.629155 114.268315 
L 106.93004 117.244903 
L 107.230924 116.815062 
L 107.832694 118.13483 
L 108.133578 118.601376 
L 108.434463 119.398108 
L 108.735348 119.692399 
L 109.036232 120.745878 
L 109.337117 122.734099 
L 109.638002 123.669137 
L 110.239771 123.594916 
L 110.540655 126.208964 
L 111.142425 126.509364 
L 111.443309 127.01194 
L 111.744194 127.28531 
L 112.045079 128.672272 
L 112.646848 130.220814 
L 112.947733 132.685716 
L 113.248617 133.758035 
L 113.549502 134.063191 
L 113.850387 133.491476 
L 114.151271 135.198109 
L 114.452156 135.253924 
L 114.753041 137.284661 
L 115.053925 136.79014 
L 115.35481 137.242739 
L 115.655695 138.310517 
L 116.257464 139.302235 
L 116.558349 141.962962 
L 116.859233 142.909731 
L 117.160118 142.463484 
L 117.461003 143.410253 
L 117.761887 145.046233 
L 118.062772 145.461748 
L 118.363657 146.236208 
L 118.664541 146.586746 
L 118.965426 146.444115 
L 119.266311 148.114854 
L 119.567195 146.407004 
L 119.86808 149.320682 
L 120.168965 151.045627 
L 120.469849 151.973868 
L 120.770734 151.378245 
L 121.071619 152.278916 
L 121.372503 154.030864 
L 121.673388 153.48792 
L 121.974272 154.431459 
L 122.275157 154.602904 
L 122.576042 154.907439 
L 122.876926 156.670279 
L 123.177811 155.9014 
L 123.478696 156.690361 
L 124.080465 160.652355 
L 124.38135 159.526398 
L 124.983119 162.042372 
L 125.284004 161.591029 
L 125.584888 162.756179 
L 125.885773 162.436197 
L 126.186658 162.722001 
L 126.487542 164.245175 
L 126.788427 163.446308 
L 127.390196 166.113482 
L 127.691081 168.603643 
L 127.991966 167.388409 
L 128.29285 167.577288 
L 128.593735 169.048323 
L 128.89462 168.505907 
L 129.195504 169.150641 
L 129.496389 169.186468 
L 129.797274 169.546601 
L 130.098158 171.160539 
L 130.399043 170.446083 
L 131.301697 174.746264 
L 131.602582 173.791197 
L 131.903466 174.823458 
L 132.204351 175.123817 
L 132.505235 175.167888 
L 132.80612 175.044217 
L 133.107005 175.369159 
L 133.407889 175.951848 
L 133.708774 177.791126 
L 134.009659 176.131226 
L 134.310543 176.735228 
L 134.912313 180.733779 
L 135.213197 179.295475 
L 135.514082 179.867731 
L 135.814967 181.728524 
L 136.115851 180.628042 
L 136.717621 180.664598 
L 137.018505 181.461127 
L 137.31939 182.740257 
L 137.620275 181.605989 
L 137.921159 182.648792 
L 138.522929 185.502749 
L 138.823813 184.753453 
L 139.425583 185.690356 
L 139.726467 185.355927 
L 140.027352 185.537062 
L 140.328237 185.177996 
L 140.629121 186.159916 
L 140.930006 187.600585 
L 141.230891 186.431219 
L 141.531775 186.415434 
L 142.133545 189.825052 
L 142.434429 188.757288 
L 142.735314 189.837188 
L 143.036199 189.640161 
L 143.337083 189.283 
L 143.637968 189.377304 
L 143.938852 188.758558 
L 144.239737 189.546816 
L 144.540622 191.287479 
L 144.841506 189.44266 
L 145.142391 189.897571 
L 145.443276 191.657856 
L 145.74416 192.732608 
L 146.045045 192.000651 
L 146.646814 193.142501 
L 146.947699 192.150553 
L 147.248584 191.840626 
L 147.549468 191.343226 
L 147.850353 192.151918 
L 148.151238 193.787533 
L 148.452122 192.196178 
L 148.753007 192.498267 
L 149.053892 193.579802 
L 149.354776 195.144466 
L 149.655661 194.626957 
L 149.956546 194.597779 
L 150.25743 194.846756 
L 150.558315 193.746868 
L 150.8592 193.735691 
L 151.160084 192.785314 
L 151.761854 195.86999 
L 152.062738 193.586613 
L 152.363623 193.492337 
L 152.664508 194.353181 
L 152.965392 196.358389 
L 153.266277 195.678598 
L 153.567162 195.779727 
L 153.868046 195.478489 
L 154.168931 194.733559 
L 154.469815 194.436606 
L 154.7707 193.56645 
L 155.372469 196.200256 
L 155.673354 193.98579 
L 155.974239 193.665159 
L 156.576008 196.546551 
L 156.876893 195.333074 
L 157.177777 195.764037 
L 157.478662 195.628703 
L 157.779547 194.806456 
L 158.080431 194.55706 
L 158.381316 193.151015 
L 158.983085 195.745211 
L 159.28397 193.713541 
L 159.584855 193.560598 
L 160.186624 195.666611 
L 160.487509 195.160737 
L 161.089278 194.781481 
L 161.991932 192.444222 
L 162.292817 193.352367 
L 162.593701 194.837363 
L 162.894586 192.744149 
L 163.195471 192.498848 
L 163.79724 194.67673 
L 164.098125 194.043537 
L 164.399009 194.197427 
L 164.699894 193.996818 
L 165.000778 192.998437 
L 165.301663 192.387448 
L 165.602548 191.387243 
L 165.903432 192.37692 
L 166.204317 193.85597 
L 166.505202 192.054506 
L 166.806086 191.289087 
L 167.106971 192.088562 
L 167.407856 193.768437 
L 167.70874 192.87009 
L 168.009625 193.058995 
L 168.611394 191.961675 
L 168.912279 191.071572 
L 169.213164 190.633203 
L 169.514048 191.391892 
L 169.814933 193.001816 
L 170.115818 191.135441 
L 170.416702 190.534845 
L 170.717587 191.261612 
L 171.018472 192.963097 
L 171.319356 192.295442 
L 171.921126 192.12816 
L 172.82378 189.834634 
L 173.124664 190.739508 
L 173.425549 192.193205 
L 173.726434 190.521304 
L 174.027318 190.064542 
L 174.328203 190.627189 
L 174.629088 192.175893 
L 174.929972 192.164365 
L 175.230857 192.269697 
L 175.832626 191.166376 
L 176.133511 190.791458 
L 176.434395 189.377223 
L 177.036165 191.878602 
L 177.337049 190.498559 
L 177.637934 190.340832 
L 177.938819 190.800404 
L 178.239703 192.60822 
L 178.841473 192.009354 
L 179.142357 191.934484 
L 179.443242 191.668181 
L 179.744127 190.619865 
L 180.045011 190.013417 
L 180.345896 191.115886 
L 180.646781 192.7047 
L 180.947665 191.246665 
L 181.24855 190.652962 
L 181.850319 192.978382 
L 182.151204 192.991342 
L 182.452089 193.249103 
L 183.053858 191.50094 
L 183.655627 189.592765 
L 183.956512 190.328777 
L 184.257397 191.466208 
L 184.558281 189.609618 
L 184.859166 189.21286 
L 185.160051 189.801753 
L 185.460935 191.229326 
L 185.76182 190.468422 
L 186.062705 190.853313 
L 186.363589 189.947831 
L 186.965358 188.685256 
L 187.266243 187.156649 
L 187.868012 189.363668 
L 188.168897 187.653062 
L 188.469782 186.954202 
L 188.770666 187.645507 
L 189.071551 188.978682 
L 189.372436 188.521461 
L 189.67332 188.542232 
L 190.27509 187.432371 
L 190.876859 185.599377 
L 191.478628 187.426803 
L 191.779513 185.2668 
L 192.080398 184.933695 
L 192.682167 187.080657 
L 193.584821 186.330145 
L 193.885706 185.63142 
L 194.487475 183.752112 
L 194.78836 184.370791 
L 195.089244 185.697722 
L 195.390129 183.593547 
L 195.691014 183.02225 
L 195.991898 184.309016 
L 196.292783 184.806389 
L 196.593668 184.956183 
L 196.894552 184.782982 
L 197.195437 184.43962 
L 197.496322 183.24386 
L 197.797206 182.631182 
L 198.098091 181.455492 
L 198.398975 183.144691 
L 198.69986 183.473539 
L 199.000745 181.555728 
L 199.301629 181.528807 
L 199.602514 182.188489 
L 199.903399 183.343543 
L 200.204283 183.210128 
L 200.505168 182.823615 
L 201.106937 181.3487 
L 201.407822 180.413432 
L 201.708707 180.179524 
L 202.310476 181.563594 
L 202.611361 180.054934 
L 202.912245 179.820823 
L 203.21313 180.334521 
L 203.514015 181.288723 
L 203.814899 180.892371 
L 204.115784 181.1209 
L 204.717553 180.337035 
L 205.319323 177.3798 
L 205.921092 179.781455 
L 206.522861 177.525526 
L 207.124631 179.544574 
L 207.425515 179.612443 
L 207.7264 179.06308 
L 208.027285 178.901501 
L 208.629054 176.877454 
L 208.929938 175.8821 
L 209.230823 177.408045 
L 209.531708 178.047577 
L 209.832592 176.097021 
L 210.133477 175.801243 
L 210.735246 177.632223 
L 211.6379 177.529594 
L 211.938785 175.955714 
L 212.23967 175.208864 
L 212.540554 174.085663 
L 213.142324 176.413746 
L 213.443208 174.033673 
L 213.744093 173.897691 
L 214.044978 174.432755 
L 214.345862 175.831475 
L 214.646747 175.886303 
L 214.947632 175.154901 
L 215.248516 175.403202 
L 215.850286 173.085107 
L 216.15117 172.470631 
L 216.75294 173.960506 
L 217.053824 172.047696 
L 217.354709 172.014896 
L 217.956478 173.844403 
L 218.257363 173.815388 
L 218.859132 172.853766 
L 219.160017 171.392447 
L 219.460902 170.832989 
L 219.761786 170.783783 
L 220.062671 170.991649 
L 220.363555 171.983191 
L 220.66444 170.084882 
L 220.965325 169.980781 
L 221.266209 170.328454 
L 221.567094 171.812679 
L 221.867979 171.027003 
L 222.168863 171.534227 
L 222.469748 171.363337 
L 222.770633 170.565943 
L 223.071517 168.375289 
L 223.372402 169.140573 
L 223.673287 168.751978 
L 223.974171 170.522927 
L 224.275056 168.637281 
L 224.575941 168.021224 
L 225.17771 169.97747 
L 225.478595 169.837027 
L 225.779479 170.010066 
L 226.080364 169.353209 
L 226.381249 167.353961 
L 226.682133 167.161488 
L 226.983018 166.067154 
L 227.584787 168.874595 
L 227.885672 166.585731 
L 228.186557 165.715157 
L 228.487441 167.393639 
L 228.788326 168.122826 
L 229.089211 167.94407 
L 229.390095 166.660777 
L 229.69098 167.180097 
L 229.991865 166.73035 
L 230.292749 165.927226 
L 230.593634 164.384077 
L 230.894518 165.621934 
L 231.195403 166.194555 
L 231.496288 164.333587 
L 231.797172 163.98809 
L 232.098057 164.750116 
L 232.398942 166.035328 
L 233.301596 165.342401 
L 233.60248 164.498761 
L 234.20425 161.631059 
L 234.505134 162.240183 
L 234.806019 164.080785 
L 235.106904 162.015708 
L 235.407788 162.100146 
L 236.009558 163.502299 
L 236.310442 162.8344 
L 236.611327 163.556194 
L 236.912212 162.793019 
L 237.213096 162.576207 
L 237.814866 160.084586 
L 238.416635 162.150352 
L 239.018404 159.307031 
L 239.620174 163.14522 
L 239.921058 162.098295 
L 240.221943 161.795138 
L 240.522828 159.970524 
L 240.823712 161.185258 
L 241.124597 158.829092 
L 241.425482 157.880053 
L 241.726366 158.865757 
L 242.027251 160.454166 
L 242.328135 157.914704 
L 242.62902 157.418277 
L 242.929905 158.364668 
L 243.230789 160.161064 
L 243.531674 159.633189 
L 243.832559 158.619848 
L 244.133443 159.858962 
L 244.434328 158.00098 
L 244.735213 157.431927 
L 245.036097 156.052168 
L 245.336982 155.959458 
L 245.637867 157.533582 
L 245.938751 156.006381 
L 246.239636 155.604758 
L 246.841405 157.411533 
L 247.14229 157.058157 
L 247.443175 156.326133 
L 247.744059 157.487282 
L 248.044944 155.835531 
L 248.345829 155.645531 
L 248.646713 153.29738 
L 248.947598 155.626854 
L 249.248483 156.104144 
L 249.850252 152.479417 
L 250.452021 155.823273 
L 250.752906 154.265502 
L 251.053791 155.486952 
L 251.354675 154.593444 
L 251.65556 153.214914 
L 251.956445 152.42248 
L 252.257329 151.27517 
L 252.859098 153.282568 
L 253.159983 152.151394 
L 253.460868 151.786247 
L 253.761752 152.684783 
L 254.062637 153.124084 
L 254.664406 152.479241 
L 254.965291 152.995534 
L 255.266176 152.1658 
L 255.56706 149.398984 
L 255.867945 149.825109 
L 256.469714 151.975179 
L 256.770599 149.051514 
L 257.372368 150.377958 
L 257.673253 151.581178 
L 257.974138 151.383989 
L 258.275022 150.76504 
L 258.575907 149.538616 
L 258.876792 149.039229 
L 259.177676 149.132357 
L 259.478561 147.039765 
L 259.779446 148.308908 
L 260.08033 150.34724 
L 260.381215 146.906431 
L 260.6821 147.439158 
L 260.982984 147.277727 
L 261.283869 148.424524 
L 261.584754 150.37039 
L 261.885638 146.895484 
L 262.186523 148.736046 
L 263.089177 144.832812 
L 263.690946 146.945501 
L 263.991831 143.654919 
L 264.292715 143.652 
L 264.5936 145.484777 
L 265.195369 147.870985 
L 265.797139 145.038448 
L 266.098023 145.762607 
L 266.699793 142.65647 
L 267.000677 143.655324 
L 267.301562 146.613451 
L 267.602447 141.969611 
L 267.903331 141.836007 
L 268.204216 145.25895 
L 268.805985 143.31849 
L 269.10687 143.459959 
L 269.407755 143.170534 
L 270.310409 140.06637 
L 270.611293 143.21059 
L 270.912178 142.805292 
L 271.213063 139.630042 
L 271.513947 139.9179 
L 271.814832 141.862577 
L 272.115717 142.527894 
L 272.416601 142.075943 
L 272.717486 142.315311 
L 273.319255 139.608283 
L 273.62014 137.459916 
L 273.921025 138.771954 
L 274.221909 139.534035 
L 274.522794 141.145905 
L 274.823678 137.500271 
L 275.124563 138.068959 
L 275.425448 139.34913 
L 275.726332 140.119076 
L 276.027217 139.559821 
L 276.328102 139.59485 
L 276.628986 139.086517 
L 277.230756 137.004857 
L 277.53164 135.412935 
L 277.832525 135.847857 
L 278.13341 137.803995 
L 278.735179 134.945037 
L 279.336948 138.185238 
L 279.637833 137.01602 
L 279.938718 136.642724 
L 280.239602 136.551853 
L 280.540487 136.097848 
L 280.841372 133.662623 
L 281.142256 133.98151 
L 281.443141 134.999636 
L 281.744026 135.10913 
L 282.04491 133.090691 
L 282.345795 134.199525 
L 282.64668 134.364996 
L 282.947564 136.33354 
L 283.248449 134.988797 
L 283.549334 134.988202 
L 283.850218 133.139505 
L 284.151103 132.706745 
L 284.451988 132.620739 
L 284.752872 131.241426 
L 285.053757 131.982072 
L 285.354642 133.790416 
L 285.655526 129.489492 
L 286.257295 132.883649 
L 286.55818 133.958481 
L 286.859065 132.471377 
L 287.159949 132.940707 
L 287.460834 131.171826 
L 287.761719 131.173421 
L 288.363488 128.92629 
L 288.664373 130.561784 
L 288.965257 130.846047 
L 289.266142 128.021848 
L 289.567027 128.784226 
L 289.867911 129.150847 
L 290.168796 130.356445 
L 290.469681 129.646449 
L 291.07145 130.941594 
L 291.673219 125.603219 
L 291.974104 126.252238 
L 292.274989 126.075009 
L 292.575873 128.426201 
L 292.876758 125.84375 
L 293.177643 125.347282 
L 293.779412 128.989916 
L 294.381181 128.014605 
L 294.682066 126.658293 
L 294.982951 128.390739 
L 295.283835 123.78347 
L 295.58472 123.762874 
L 295.885605 125.432532 
L 296.186489 125.770474 
L 296.487374 122.544031 
L 296.788258 123.235648 
L 297.089143 125.131348 
L 297.390028 125.096265 
L 297.991797 125.761311 
L 298.292682 123.653001 
L 298.593566 123.412633 
L 298.894451 123.462555 
L 299.195336 121.650347 
L 299.797105 124.96158 
L 300.09799 119.481844 
L 300.398874 123.097341 
L 300.699759 122.011805 
L 301.000644 124.630421 
L 301.301528 121.711216 
L 301.602413 124.204851 
L 301.903298 121.976154 
L 302.204182 121.327135 
L 302.805952 118.312707 
L 303.407721 121.541448 
L 303.708606 116.305458 
L 304.00949 119.787487 
L 304.310375 121.128581 
L 304.61126 121.297539 
L 304.912144 119.968797 
L 305.213029 120.029747 
L 305.513914 119.844815 
L 305.814798 118.248622 
L 306.115683 117.571115 
L 306.416568 116.316702 
L 307.018337 118.822635 
L 307.319222 115.910809 
L 307.620106 115.596219 
L 307.920991 118.059554 
L 308.221875 117.960439 
L 308.52276 119.283181 
L 308.823645 116.228994 
L 309.124529 116.345704 
L 309.425414 116.704324 
L 309.726299 115.780286 
L 310.027183 113.210971 
L 310.328068 116.390681 
L 310.628953 115.135619 
L 310.929837 113.114451 
L 311.230722 113.893586 
L 311.531607 117.463323 
L 312.133376 115.264818 
L 312.434261 115.411071 
L 312.735145 114.981636 
L 313.03603 113.781768 
L 313.336915 110.977192 
L 313.637799 109.484142 
L 313.938684 113.497586 
L 314.239569 115.95319 
L 314.540453 111.285457 
L 314.841338 110.918972 
L 315.142223 112.199062 
L 315.443107 115.382367 
L 315.743992 112.61874 
L 316.044877 114.205581 
L 316.345761 114.571418 
L 316.646646 110.94719 
L 316.947531 109.219664 
L 317.248415 109.643747 
L 317.5493 110.316606 
L 317.850185 112.070539 
L 318.151069 108.319979 
L 318.752838 111.616318 
L 319.053723 110.451696 
L 319.354608 111.148637 
L 319.655492 108.077313 
L 319.956377 108.369604 
L 320.257262 108.347359 
L 320.558146 106.12669 
L 320.859031 105.499267 
L 321.159916 108.300032 
L 321.4608 109.543849 
L 321.761685 104.722402 
L 322.06257 103.536805 
L 322.363454 108.832204 
L 322.965224 109.14082 
L 323.266108 106.970181 
L 323.566993 108.192673 
L 323.867878 106.828117 
L 324.168762 106.481282 
L 324.469647 106.316811 
L 324.770532 107.441323 
L 325.071416 105.353717 
L 325.372301 104.778136 
L 325.673186 102.749804 
L 326.274955 108.811311 
L 326.57584 103.812122 
L 327.177609 107.381859 
L 327.478494 103.844286 
L 327.779378 102.41224 
L 328.080263 103.080881 
L 328.381148 100.45867 
L 328.682032 105.510782 
L 329.283801 99.275479 
L 329.584686 103.335926 
L 329.885571 105.328472 
L 330.186455 101.659971 
L 330.48734 101.806224 
L 330.788225 104.072248 
L 331.089109 99.766676 
L 331.389994 99.927741 
L 331.690879 99.937255 
L 331.991763 101.696757 
L 332.292648 100.502565 
L 332.593533 98.541968 
L 332.894417 99.337564 
L 333.195302 102.651094 
L 333.496187 99.597367 
L 333.797071 100.813803 
L 334.097956 101.545503 
L 334.398841 99.326077 
L 334.699725 95.990951 
L 335.00061 98.479072 
L 335.301495 96.445064 
L 335.602379 98.632434 
L 335.903264 99.96742 
L 336.204149 95.149541 
L 336.505033 97.778996 
L 336.805918 96.283756 
L 337.106803 96.769411 
L 337.407687 98.214891 
L 337.708572 97.753345 
L 338.310341 95.382098 
L 338.611226 95.764962 
L 338.912111 94.650235 
L 339.51388 96.266295 
L 339.814765 92.843406 
L 340.115649 94.400245 
L 340.416534 97.876246 
L 340.717418 98.116884 
L 341.018303 94.48717 
L 341.319188 95.392342 
L 341.620072 94.109116 
L 341.920957 93.662788 
L 342.221842 92.280447 
L 342.522726 91.656728 
L 343.124496 96.95937 
L 343.42538 89.509307 
L 344.02715 93.206945 
L 344.328034 94.640964 
L 344.929804 90.871132 
L 345.230688 92.490868 
L 345.531573 92.164628 
L 345.832458 89.293319 
L 346.133342 88.244813 
L 346.434227 91.252402 
L 346.735112 90.403856 
L 347.336881 87.715208 
L 347.637766 92.328802 
L 347.93865 92.138978 
L 348.239535 92.091921 
L 348.54042 91.290081 
L 348.841304 91.955452 
L 349.142189 89.004326 
L 349.443074 88.590999 
L 349.743958 85.58987 
L 350.044843 85.949408 
L 350.345728 90.679578 
L 350.646612 84.560689 
L 351.248381 88.233109 
L 351.549266 90.612898 
L 351.850151 89.209962 
L 352.151035 89.881171 
L 352.752805 86.539315 
L 353.053689 86.168505 
L 353.354574 82.158548 
L 353.956343 88.013634 
L 354.257228 85.380422 
L 354.558113 85.936137 
L 354.858997 84.099089 
L 355.159882 89.185933 
L 355.460767 87.234607 
L 355.761651 84.319348 
L 356.062536 82.702694 
L 356.363421 84.057249 
L 356.96519 80.269956 
L 357.566959 86.161748 
L 357.867844 79.32243 
L 358.168729 79.596584 
L 358.469613 81.645647 
L 358.770498 86.071282 
L 359.071383 83.842287 
L 359.372267 79.779381 
L 359.673152 83.161078 
L 359.974037 81.667486 
L 360.274921 78.902806 
L 360.575806 78.949106 
L 360.876691 80.72096 
L 361.177575 81.33476 
L 361.47846 80.00145 
L 361.779345 76.471229 
L 362.381114 82.944792 
L 362.681998 78.395716 
L 363.283768 82.571712 
L 363.584652 80.38318 
L 363.885537 76.98459 
L 364.186422 75.56968 
L 364.788191 80.644685 
L 365.089076 73.794636 
L 365.38996 75.745881 
L 365.690845 80.4404 
L 365.99173 79.857332 
L 366.292614 76.464418 
L 366.593499 79.18769 
L 367.195268 74.656778 
L 367.496153 78.552943 
L 367.797038 71.646864 
L 368.097922 75.833023 
L 368.398807 76.83566 
L 368.699692 72.894168 
L 369.000576 74.953339 
L 369.301461 75.586302 
L 369.602346 75.598222 
L 369.90323 74.228991 
L 370.204115 75.165895 
L 370.505 74.348864 
L 371.106769 74.009813 
L 371.407654 74.666373 
L 371.708538 71.933316 
L 372.009423 73.674493 
L 372.310308 70.380937 
L 372.611192 70.086024 
L 372.912077 74.609072 
L 373.212961 74.541148 
L 373.513846 73.589757 
L 373.814731 71.667919 
L 374.115615 72.353643 
L 374.4165 71.90526 
L 374.717385 71.856851 
L 375.018269 71.553506 
L 375.319154 70.899676 
L 375.620039 72.575551 
L 375.920923 69.805194 
L 376.221808 70.380018 
L 376.522693 74.302347 
L 376.823577 76.194994 
L 377.124462 68.836045 
L 377.425347 73.032934 
L 377.726231 69.625992 
L 378.027116 67.783187 
L 378.328001 68.219407 
L 378.628885 69.52812 
L 378.92977 68.25322 
L 379.230655 70.21998 
L 379.531539 66.397928 
L 379.832424 68.393473 
L 380.133309 67.113248 
L 380.434193 71.541748 
L 380.735078 69.7773 
L 381.035963 66.344275 
L 381.336847 68.969216 
L 381.938617 64.323296 
L 382.841271 67.25861 
L 383.142155 62.477382 
L 383.44304 64.537635 
L 383.743925 68.416123 
L 384.044809 69.408166 
L 384.345694 66.149937 
L 384.646578 64.790031 
L 384.947463 66.183805 
L 385.549232 63.325036 
L 385.850117 65.760396 
L 386.151002 63.446991 
L 386.451886 65.477404 
L 386.752771 60.285553 
L 387.053656 65.527245 
L 387.35454 64.601964 
L 387.655425 64.739757 
L 387.95631 62.007728 
L 388.257194 63.71528 
L 389.159848 61.7256 
L 389.460733 60.890244 
L 389.761618 63.653843 
L 390.062502 59.485145 
L 390.363387 59.287861 
L 390.664272 58.392528 
L 390.965156 64.55869 
L 391.266041 60.481539 
L 391.566926 62.91071 
L 391.86781 63.144267 
L 392.168695 60.133299 
L 392.46958 61.807119 
L 392.770464 59.890282 
L 393.071349 57.16182 
L 393.372234 58.298629 
L 393.673118 64.191665 
L 393.974003 53.833451 
L 394.274888 55.274255 
L 394.575772 63.2333 
L 394.876657 63.146889 
L 395.478426 59.220018 
L 395.779311 57.297992 
L 396.080195 59.426438 
L 396.38108 53.568 
L 396.681965 55.92103 
L 396.982849 56.267946 
L 397.283734 57.49187 
L 397.885503 53.785529 
L 398.186388 57.138764 
L 398.487273 53.798097 
L 398.487273 53.798097 
" clip-path="url(#pe754385c2a)" style="fill: none; stroke: #6495ed; stroke-width: 2; stroke-linecap: square"/>
   </g>
   <g id="line2d_26">
    <path d="M 73.832727 210.817484 
L 74.735381 221.018669 
L 75.93892 231.697999 
L 77.443343 242.628048 
L 78.045112 246.123154 
L 79.85042 255.640968 
L 80.753074 260.258437 
L 81.053959 261.368921 
L 81.354844 262.945222 
L 81.956613 264.678657 
L 82.558382 266.554334 
L 82.859267 268.670643 
L 83.160152 269.4383 
L 83.461036 269.650454 
L 84.96546 274.764306 
L 85.266344 274.950479 
L 85.868114 276.111911 
L 86.168998 276.633613 
L 86.469883 278.513434 
L 86.770768 278.760823 
L 87.071652 278.724486 
L 87.372537 279.587686 
L 87.673422 279.931252 
L 87.974306 281.136404 
L 88.275191 281.451146 
L 88.576075 282.27488 
L 88.87696 281.745412 
L 89.177845 282.263911 
L 89.478729 282.295066 
L 89.779614 282.963429 
L 90.080499 284.559543 
L 90.381383 284.407896 
L 90.682268 283.774068 
L 91.584922 285.687797 
L 91.885807 285.819923 
L 92.186691 286.522832 
L 92.487576 285.588244 
L 92.788461 285.630492 
L 93.39023 286.02233 
L 93.691115 287.570698 
L 94.292884 286.270548 
L 94.593769 286.577623 
L 94.894653 286.52151 
L 95.195538 287.471889 
L 95.496423 287.167587 
L 95.797307 287.906037 
L 96.098192 286.664039 
L 96.399077 286.794974 
L 96.699961 286.413004 
L 97.000846 286.42557 
L 97.301731 287.930983 
L 97.602615 287.631911 
L 97.9035 286.35835 
L 98.204385 286.309855 
L 98.806154 286.685793 
L 99.107039 286.514958 
L 99.407923 287.153699 
L 99.708808 285.679202 
L 100.310577 285.026073 
L 100.611462 284.860716 
L 100.912346 286.563159 
L 101.514116 284.338968 
L 101.815 284.301102 
L 102.115885 283.876165 
L 102.41677 284.339937 
L 102.717654 283.6349 
L 103.018539 284.428276 
L 103.319424 282.732321 
L 103.921193 281.93091 
L 104.222078 281.883313 
L 104.522962 283.16814 
L 104.823847 281.677258 
L 105.124732 280.957607 
L 105.425616 280.675667 
L 105.726501 279.920326 
L 106.027386 280.043938 
L 106.32827 279.612578 
L 106.629155 280.542007 
L 106.93004 278.036278 
L 107.230924 277.845116 
L 107.531809 277.222052 
L 107.832694 277.060518 
L 108.133578 278.502595 
L 108.735348 275.944707 
L 109.036232 275.467435 
L 109.337117 274.244835 
L 109.638002 274.713491 
L 109.938886 274.320899 
L 110.239771 275.130135 
L 110.540655 272.371103 
L 110.84154 272.164612 
L 111.142425 271.534632 
L 111.443309 271.427472 
L 111.744194 272.957608 
L 112.045079 271.042174 
L 112.345963 269.999128 
L 112.646848 269.415388 
L 112.947733 267.814296 
L 113.248617 268.225402 
L 113.549502 267.790462 
L 113.850387 268.704991 
L 114.151271 266.030672 
L 114.452156 265.971669 
L 114.753041 264.660047 
L 115.053925 264.866101 
L 115.35481 266.396005 
L 115.655695 264.295801 
L 116.257464 262.895921 
L 116.558349 261.059217 
L 116.859233 261.498003 
L 117.160118 261.453777 
L 117.461003 261.873516 
L 117.761887 258.987345 
L 118.062772 258.865778 
L 118.363657 257.794014 
L 118.664541 257.800371 
L 118.965426 259.501679 
L 119.266311 257.034333 
L 119.567195 257.162509 
L 120.168965 253.937933 
L 120.469849 254.468194 
L 120.770734 254.497787 
L 121.071619 254.938701 
L 121.372503 251.892404 
L 121.673388 252.257419 
L 121.974272 251.091923 
L 122.275157 251.142556 
L 122.576042 252.76238 
L 122.876926 250.127172 
L 123.177811 250.033974 
L 123.478696 249.184709 
L 123.77958 247.167599 
L 124.38135 247.746428 
L 124.682234 248.050093 
L 124.983119 245.077397 
L 125.284004 245.487533 
L 125.584888 244.155011 
L 125.885773 244.526974 
L 126.186658 246.100296 
L 126.487542 243.545957 
L 126.788427 243.593297 
L 127.089312 242.472585 
L 127.390196 240.773214 
L 127.691081 240.62305 
L 127.991966 241.054978 
L 128.29285 241.724146 
L 128.593735 238.780281 
L 128.89462 239.407269 
L 129.195504 238.22315 
L 129.496389 238.44249 
L 129.797274 239.919586 
L 130.098158 237.351103 
L 130.399043 237.480467 
L 131.000812 234.466699 
L 131.903466 235.430257 
L 132.204351 233.090204 
L 132.505235 233.472679 
L 132.80612 232.581092 
L 133.107005 232.80244 
L 133.407889 233.989671 
L 133.708774 231.319579 
L 134.009659 232.022895 
L 134.310543 231.243988 
L 134.611428 229.279649 
L 134.912313 229.328518 
L 135.514082 230.483049 
L 135.814967 227.479976 
L 136.115851 228.328523 
L 136.416736 227.409569 
L 136.717621 227.797433 
L 137.018505 228.700098 
L 137.31939 226.479268 
L 137.620275 227.013211 
L 137.921159 226.023247 
L 138.222044 224.235379 
L 138.522929 224.624075 
L 138.823813 224.761112 
L 139.124698 225.399809 
L 139.425583 223.335219 
L 139.726467 223.824711 
L 140.027352 222.822743 
L 140.629121 224.047636 
L 140.930006 221.902672 
L 141.230891 222.386845 
L 141.531775 222.023621 
L 141.83266 220.151382 
L 142.133545 220.287041 
L 142.735314 220.995798 
L 143.036199 219.454749 
L 143.337083 219.925649 
L 143.637968 219.002591 
L 144.239737 220.328395 
L 144.540622 218.21555 
L 144.841506 219.155998 
L 145.142391 218.542732 
L 145.443276 216.648339 
L 145.74416 217.075726 
L 146.045045 217.28439 
L 146.34593 217.942597 
L 146.646814 216.066401 
L 146.947699 216.856172 
L 147.248584 216.272987 
L 147.850353 217.387821 
L 148.151238 215.572789 
L 148.452122 216.445138 
L 148.753007 215.903772 
L 149.053892 214.511641 
L 149.354776 214.61887 
L 149.655661 214.578818 
L 149.956546 215.659357 
L 150.25743 214.21495 
L 150.558315 215.065931 
L 150.8592 214.411182 
L 151.160084 215.393512 
L 151.460969 215.208317 
L 151.761854 213.437089 
L 152.062738 214.726314 
L 152.363623 214.509689 
L 152.664508 213.34766 
L 152.965392 213.220878 
L 153.266277 213.242363 
L 153.567162 214.311669 
L 153.868046 213.45648 
L 154.168931 214.004115 
L 154.469815 213.500311 
L 154.7707 214.481516 
L 155.071585 214.287037 
L 155.372469 212.915895 
L 155.673354 214.148208 
L 155.974239 214.232361 
L 156.275123 212.789484 
L 156.576008 212.785913 
L 156.876893 213.145351 
L 157.177777 214.135577 
L 157.478662 213.286378 
L 157.779547 213.977314 
L 158.080431 213.495967 
L 158.381316 214.630875 
L 158.682201 214.514218 
L 158.983085 213.231214 
L 159.28397 214.347398 
L 159.584855 214.283382 
L 159.885739 213.295724 
L 160.186624 213.52544 
L 160.487509 213.422248 
L 160.788393 214.763944 
L 161.089278 214.131241 
L 161.390163 214.637447 
L 161.691047 214.472769 
L 161.991932 215.368614 
L 162.292817 215.251663 
L 162.593701 214.183104 
L 162.894586 215.384447 
L 163.195471 215.411573 
L 163.496355 214.380534 
L 163.79724 214.549401 
L 164.098125 214.541192 
L 164.399009 215.784873 
L 164.699894 215.246271 
L 165.000778 215.78109 
L 165.301663 215.623823 
L 165.602548 216.504801 
L 165.903432 216.296948 
L 166.204317 215.285683 
L 166.505202 216.385206 
L 166.806086 216.65025 
L 167.106971 215.778119 
L 167.407856 215.701578 
L 167.70874 215.757914 
L 168.009625 217.005423 
L 168.31051 216.677837 
L 168.912279 217.173805 
L 169.213164 217.714174 
L 169.514048 217.589061 
L 169.814933 216.529595 
L 170.115818 217.642248 
L 170.416702 217.814127 
L 170.717587 217.082799 
L 171.319356 216.846989 
L 171.620241 218.208803 
L 171.921126 217.68082 
L 172.22201 218.013037 
L 172.522895 218.002127 
L 172.82378 218.703482 
L 173.124664 218.40166 
L 173.425549 217.488668 
L 173.726434 218.551795 
L 174.027318 218.636582 
L 174.328203 217.947155 
L 174.629088 217.854263 
L 174.929972 217.417181 
L 175.230857 218.638436 
L 175.531742 218.440957 
L 175.832626 218.656175 
L 176.133511 218.573842 
L 176.434395 219.455897 
L 176.73528 218.959211 
L 177.036165 218.138561 
L 177.337049 219.049446 
L 177.637934 218.953195 
L 177.938819 218.299888 
L 178.540588 217.758257 
L 178.841473 219.12703 
L 179.142357 218.778173 
L 179.443242 218.773628 
L 180.045011 219.479631 
L 180.345896 219.005825 
L 180.646781 218.058959 
L 180.947665 218.959979 
L 181.24855 219.073705 
L 181.549435 217.962809 
L 181.850319 218.092289 
L 182.151204 217.590188 
L 182.452089 218.759469 
L 182.752973 218.639168 
L 183.354743 219.245197 
L 183.655627 219.921417 
L 183.956512 219.615252 
L 184.257397 218.984797 
L 184.558281 220.1695 
L 184.859166 220.140715 
L 185.160051 219.490495 
L 185.460935 219.553781 
L 185.76182 219.474494 
L 186.062705 220.517299 
L 186.363589 220.534616 
L 186.965358 221.049204 
L 187.266243 221.847644 
L 187.868012 220.797377 
L 188.168897 221.922986 
L 188.469782 222.045028 
L 188.770666 221.36902 
L 189.071551 221.436234 
L 189.372436 221.280303 
L 189.67332 222.495367 
L 189.974205 222.44236 
L 190.27509 222.664769 
L 190.876859 223.509368 
L 191.177744 223.146577 
L 191.478628 222.596573 
L 191.779513 223.916891 
L 192.080398 223.820762 
L 192.381282 222.989255 
L 192.682167 223.21418 
L 192.983052 222.947207 
L 193.283936 224.212848 
L 193.584821 224.062046 
L 193.885706 224.269596 
L 194.487475 225.24903 
L 194.78836 224.983377 
L 195.089244 224.338106 
L 195.390129 225.613269 
L 195.691014 225.628616 
L 195.991898 224.600563 
L 196.292783 225.059497 
L 196.593668 224.657211 
L 196.894552 225.945629 
L 197.195437 225.79766 
L 198.098091 227.135911 
L 198.398975 226.394537 
L 198.69986 226.146728 
L 199.000745 227.430809 
L 199.301629 227.083054 
L 199.602514 226.435843 
L 199.903399 226.621465 
L 200.204283 226.274904 
L 200.505168 227.641492 
L 200.806053 227.65873 
L 201.106937 227.91958 
L 201.407822 228.447298 
L 201.708707 228.450421 
L 202.310476 227.809019 
L 202.611361 228.808935 
L 202.912245 228.580481 
L 203.21313 227.992494 
L 203.514015 228.306599 
L 203.814899 228.109114 
L 204.115784 229.17651 
L 204.416669 229.043476 
L 204.717553 229.101702 
L 205.319323 230.456076 
L 205.921092 229.465884 
L 206.221977 230.387367 
L 206.522861 230.430045 
L 206.823746 229.644573 
L 207.124631 229.95418 
L 207.425515 229.516503 
L 207.7264 230.893641 
L 208.027285 230.686287 
L 208.328169 230.956914 
L 208.629054 231.617796 
L 208.929938 231.949724 
L 209.230823 231.331754 
L 209.531708 231.000586 
L 209.832592 232.160022 
L 210.133477 231.928586 
L 210.434362 231.076718 
L 210.735246 231.485589 
L 211.036131 231.084516 
L 211.337016 232.280447 
L 211.6379 231.959791 
L 212.23967 233.010261 
L 212.540554 233.411952 
L 213.142324 232.508092 
L 213.443208 233.787016 
L 213.744093 233.437679 
L 214.044978 232.885764 
L 214.345862 233.062286 
L 214.646747 232.700627 
L 214.947632 234.062249 
L 215.248516 233.677965 
L 216.15117 234.827755 
L 216.75294 234.232436 
L 217.053824 235.31364 
L 217.354709 235.009083 
L 217.655594 234.183481 
L 217.956478 234.589388 
L 218.257363 234.182335 
L 218.558248 235.403354 
L 218.859132 235.393552 
L 219.460902 236.411929 
L 219.761786 236.210261 
L 220.062671 236.217541 
L 220.363555 235.836049 
L 220.66444 236.854859 
L 221.266209 236.062013 
L 221.567094 236.2005 
L 221.867979 236.144375 
L 222.168863 237.045453 
L 222.469748 236.830686 
L 222.770633 237.017457 
L 223.071517 238.116423 
L 223.372402 237.587205 
L 223.673287 237.893606 
L 223.974171 237.191065 
L 224.275056 238.185096 
L 224.575941 238.059371 
L 224.876825 237.221426 
L 225.17771 237.649496 
L 225.478595 237.334949 
L 225.779479 238.305478 
L 226.080364 238.266801 
L 226.381249 239.034072 
L 226.983018 239.600469 
L 227.584787 238.518906 
L 227.885672 239.703441 
L 228.186557 239.658555 
L 228.487441 238.647115 
L 228.788326 239.066327 
L 229.089211 238.744421 
L 229.390095 240.354536 
L 229.69098 239.871134 
L 229.991865 239.948142 
L 230.593634 240.837723 
L 231.195403 240.339802 
L 231.496288 241.309691 
L 231.797172 240.999502 
L 232.098057 240.319168 
L 232.398942 240.596069 
L 232.699826 240.302318 
L 233.000711 241.411594 
L 233.301596 241.289959 
L 233.60248 241.493151 
L 233.903365 242.360945 
L 234.20425 242.667392 
L 234.505134 242.574327 
L 234.806019 241.924517 
L 235.106904 242.975716 
L 235.407788 242.542972 
L 235.708673 241.840163 
L 236.009558 242.318079 
L 236.310442 242.238702 
L 236.611327 242.926531 
L 237.213096 242.970517 
L 237.513981 243.61853 
L 237.814866 243.879401 
L 238.11575 243.667273 
L 238.416635 243.312247 
L 238.71752 244.037805 
L 239.018404 244.181234 
L 239.319289 243.176205 
L 239.921058 243.016501 
L 240.221943 244.135194 
L 240.522828 244.687631 
L 240.823712 244.017716 
L 241.124597 245.237775 
L 241.425482 245.316199 
L 241.726366 245.128491 
L 242.027251 244.579632 
L 242.328135 245.810592 
L 242.62902 245.592654 
L 242.929905 244.836377 
L 243.230789 244.982609 
L 243.531674 244.763381 
L 243.832559 246.182805 
L 244.133443 245.439118 
L 244.735213 246.429553 
L 245.336982 246.920838 
L 245.637867 246.377447 
L 245.938751 247.244182 
L 246.540521 246.194567 
L 246.841405 246.596268 
L 247.14229 246.443497 
L 247.443175 247.665819 
L 247.744059 246.964121 
L 248.646713 248.421353 
L 248.947598 247.583118 
L 249.248483 247.428607 
L 249.549367 248.457393 
L 249.850252 248.623939 
L 250.151137 247.724904 
L 250.752906 248.057061 
L 251.053791 248.593014 
L 251.354675 248.606898 
L 251.956445 249.690922 
L 252.257329 249.720473 
L 252.558214 249.578686 
L 252.859098 249.306306 
L 253.159983 249.919199 
L 253.460868 249.480774 
L 253.761752 248.7699 
L 254.062637 249.423228 
L 254.363522 249.205172 
L 254.664406 250.342811 
L 254.965291 249.824134 
L 255.266176 250.028971 
L 255.56706 251.394402 
L 255.867945 250.883096 
L 256.469714 250.286624 
L 256.770599 251.68662 
L 257.372368 250.250977 
L 257.673253 250.590786 
L 257.974138 250.233492 
L 258.275022 251.405348 
L 258.876792 251.881794 
L 259.177676 252.03709 
L 259.478561 252.48165 
L 259.779446 252.154528 
L 260.08033 251.494366 
L 260.381215 253.056162 
L 260.6821 252.249592 
L 260.982984 251.926906 
L 261.283869 252.474662 
L 261.584754 251.191307 
L 261.885638 253.366244 
L 262.186523 252.513594 
L 262.487408 252.964605 
L 262.788292 253.815034 
L 263.089177 253.903691 
L 263.690946 253.369078 
L 263.991831 254.801722 
L 264.292715 254.325737 
L 264.5936 253.289379 
L 264.894485 253.664329 
L 265.195369 252.751076 
L 265.496254 254.312562 
L 265.797139 254.498199 
L 266.098023 254.153433 
L 266.398908 255.049331 
L 266.699793 255.273724 
L 267.000677 255.050347 
L 267.301562 253.936768 
L 267.602447 255.833193 
L 267.903331 255.432684 
L 268.204216 253.791266 
L 268.505101 254.895504 
L 268.805985 255.05411 
L 269.10687 255.817806 
L 269.407755 255.717213 
L 269.708639 256.07653 
L 270.009524 256.673917 
L 270.310409 256.774551 
L 270.611293 255.628609 
L 270.912178 255.909676 
L 271.213063 257.320999 
L 271.513947 256.671617 
L 271.814832 255.583508 
L 272.115717 256.111456 
L 272.416601 255.874948 
L 272.717486 256.70455 
L 273.018371 256.907233 
L 273.319255 257.411314 
L 273.62014 258.572434 
L 273.921025 257.700372 
L 274.221909 257.562841 
L 274.522794 256.984845 
L 274.823678 258.591244 
L 275.425448 256.971525 
L 275.726332 257.643675 
L 276.027217 257.432785 
L 276.328102 258.211085 
L 276.628986 258.102195 
L 276.929871 258.444516 
L 277.230756 259.064205 
L 277.53164 259.353248 
L 277.832525 259.397138 
L 278.13341 258.872614 
L 278.434294 259.671744 
L 278.735179 259.394743 
L 279.036064 258.568279 
L 279.637833 258.798837 
L 279.938718 259.765845 
L 280.239602 259.594326 
L 280.540487 259.693785 
L 280.841372 260.78234 
L 281.142256 260.392982 
L 281.443141 260.211847 
L 281.744026 260.234505 
L 282.04491 261.247404 
L 282.345795 260.111791 
L 282.64668 259.623465 
L 283.248449 260.05955 
L 283.549334 260.773756 
L 284.151103 261.494895 
L 284.451988 261.685319 
L 285.053757 261.687932 
L 285.354642 261.122368 
L 285.655526 262.950331 
L 286.257295 260.824002 
L 286.55818 261.231071 
L 286.859065 261.408501 
L 287.159949 262.068168 
L 287.460834 262.406167 
L 287.761719 262.466338 
L 288.062603 262.893658 
L 288.363488 263.053039 
L 288.664373 262.665879 
L 288.965257 262.522494 
L 289.266142 263.920565 
L 289.567027 262.929764 
L 289.867911 262.498586 
L 290.168796 262.977348 
L 290.469681 262.919288 
L 290.770565 263.315394 
L 291.07145 262.839507 
L 291.673219 264.921708 
L 291.974104 264.618196 
L 292.274989 264.750004 
L 292.575873 264.056955 
L 292.876758 265.196767 
L 293.177643 264.596525 
L 293.478527 263.54156 
L 293.779412 263.880453 
L 294.080297 263.706489 
L 294.381181 264.648885 
L 294.682066 264.92718 
L 294.982951 264.253277 
L 295.283835 265.964701 
L 295.885605 265.305061 
L 296.186489 265.326974 
L 296.487374 266.740118 
L 297.089143 264.732644 
L 297.390028 265.532452 
L 297.690912 265.183886 
L 298.292682 266.314121 
L 298.894451 266.707731 
L 299.195336 266.64734 
L 299.49622 266.424678 
L 299.797105 265.840802 
L 300.09799 267.975329 
L 300.398874 266.283284 
L 300.699759 265.956797 
L 301.000644 266.179747 
L 301.301528 266.817542 
L 301.602413 266.599128 
L 301.903298 267.259062 
L 302.204182 267.522433 
L 302.805952 268.424488 
L 303.407721 267.473179 
L 303.708606 269.750575 
L 304.00949 267.831502 
L 304.310375 266.905708 
L 304.61126 267.752506 
L 304.912144 267.93235 
L 305.213029 268.637053 
L 305.513914 268.424992 
L 305.814798 269.012267 
L 306.416568 269.537789 
L 306.717452 269.316705 
L 307.018337 268.931889 
L 307.319222 270.295601 
L 307.620106 269.631284 
L 307.920991 268.408829 
L 308.221875 269.149869 
L 308.52276 268.318678 
L 308.823645 270.124288 
L 309.425414 270.059487 
L 310.027183 270.795794 
L 310.328068 269.966882 
L 310.628953 270.436338 
L 310.929837 271.627303 
L 311.230722 270.655137 
L 311.531607 268.781608 
L 311.832491 270.058689 
L 312.133376 270.134185 
L 312.434261 270.84269 
L 312.735145 270.763442 
L 313.03603 271.220709 
L 313.336915 272.333673 
L 313.637799 272.427006 
L 314.239569 270.633382 
L 314.540453 272.511376 
L 315.142223 270.850604 
L 315.443107 270.812037 
L 315.743992 271.4999 
L 316.044877 271.525072 
L 316.345761 271.053697 
L 316.646646 272.410346 
L 316.947531 273.238711 
L 317.248415 272.748206 
L 317.5493 272.73294 
L 317.850185 272.318068 
L 318.151069 273.768076 
L 318.451954 272.225972 
L 318.752838 271.352843 
L 319.053723 272.815873 
L 319.354608 272.282949 
L 319.655492 273.982895 
L 319.956377 273.811511 
L 320.257262 273.845957 
L 320.558146 274.662325 
L 320.859031 274.676462 
L 321.159916 273.832472 
L 321.4608 273.608574 
L 321.761685 275.394936 
L 322.06257 275.210246 
L 322.363454 273.038293 
L 322.664339 273.738589 
L 322.965224 273.468422 
L 323.266108 274.797921 
L 323.566993 273.990225 
L 323.867878 274.503811 
L 324.168762 274.778037 
L 324.469647 274.466601 
L 324.770532 273.972675 
L 325.372301 275.81982 
L 325.673186 275.500123 
L 325.97407 274.053526 
L 326.274955 273.752746 
L 326.57584 275.350615 
L 326.876724 275.542041 
L 327.177609 274.441982 
L 327.478494 275.910736 
L 327.779378 276.367562 
L 328.080263 275.650447 
L 328.381148 276.935209 
L 328.682032 275.322869 
L 328.982917 276.687714 
L 329.283801 276.70094 
L 329.584686 275.293192 
L 329.885571 275.616208 
L 330.48734 277.09924 
L 330.788225 276.18638 
L 331.089109 277.596427 
L 331.389994 277.695707 
L 331.991763 276.720092 
L 332.593533 278.218428 
L 333.195302 275.964899 
L 333.496187 277.722192 
L 333.797071 276.915539 
L 334.097956 277.354434 
L 334.699725 279.086989 
L 335.00061 278.490525 
L 335.301495 278.493064 
L 335.602379 277.993218 
L 335.903264 277.875166 
L 336.204149 279.676242 
L 336.505033 278.131726 
L 336.805918 278.07483 
L 337.106803 278.933973 
L 337.407687 278.068302 
L 337.708572 278.894877 
L 338.009457 278.93196 
L 338.310341 279.695107 
L 338.611226 279.650166 
L 338.912111 279.323266 
L 339.212995 279.294988 
L 339.51388 279.119646 
L 339.814765 280.725586 
L 340.115649 279.601524 
L 340.416534 277.68088 
L 341.319188 279.825656 
L 341.620072 279.876461 
L 342.221842 280.826301 
L 342.522726 280.733599 
L 342.823611 280.121162 
L 343.124496 279.217911 
L 343.42538 281.812171 
L 344.02715 279.462285 
L 344.328034 280.10205 
L 344.628919 280.159381 
L 344.929804 281.634881 
L 345.230688 280.705069 
L 345.531573 281.019436 
L 345.832458 282.011802 
L 346.133342 281.966981 
L 346.434227 281.127858 
L 347.035996 282.489354 
L 347.336881 282.003275 
L 347.637766 280.022777 
L 347.93865 281.152183 
L 348.239535 280.703523 
L 348.54042 281.668723 
L 348.841304 281.147413 
L 349.142189 282.302865 
L 349.443074 282.381046 
L 349.743958 283.025793 
L 350.044843 283.126508 
L 350.345728 281.829264 
L 350.646612 284.037719 
L 351.248381 281.533038 
L 351.549266 281.909527 
L 351.850151 282.000862 
L 352.45192 282.649163 
L 352.752805 283.372496 
L 353.053689 283.479056 
L 353.354574 284.213179 
L 353.956343 283.111681 
L 354.257228 283.79091 
L 354.558113 282.876134 
L 354.858997 283.118637 
L 355.159882 282.207814 
L 355.460767 282.580563 
L 355.761651 284.191573 
L 356.062536 284.492065 
L 356.363421 284.364134 
L 356.664305 285.260708 
L 356.96519 285.234544 
L 357.266075 284.901507 
L 357.566959 283.640083 
L 357.867844 286.163484 
L 358.168729 285.24959 
L 358.469613 283.959629 
L 358.770498 283.826032 
L 359.071383 284.212831 
L 359.372267 285.993058 
L 359.673152 284.71275 
L 360.274921 286.260623 
L 360.876691 285.270038 
L 361.177575 285.401231 
L 361.47846 285.996234 
L 361.779345 286.127894 
L 362.080229 284.988082 
L 362.381114 284.958854 
L 362.681998 285.779248 
L 362.982883 285.847237 
L 363.283768 285.093401 
L 363.584652 285.776522 
L 363.885537 286.821273 
L 364.186422 286.994982 
L 364.788191 285.729696 
L 365.089076 288.124289 
L 365.38996 286.771417 
L 365.690845 284.866871 
L 366.292614 286.544565 
L 366.593499 286.403655 
L 366.894384 286.967293 
L 367.195268 287.994727 
L 367.496153 286.784392 
L 367.797038 288.265034 
L 368.398807 287.024267 
L 368.699692 288.776067 
L 369.301461 286.484923 
L 369.602346 287.465631 
L 369.90323 288.009435 
L 370.505 287.844919 
L 370.805884 288.167044 
L 371.106769 288.175294 
L 371.407654 287.692958 
L 371.708538 288.693111 
L 372.009423 288.294554 
L 372.310308 289.79585 
L 372.912077 287.074835 
L 373.212961 287.8094 
L 373.513846 288.039069 
L 373.814731 289.383276 
L 374.115615 288.582882 
L 374.4165 289.119829 
L 374.717385 289.103623 
L 375.018269 288.808521 
L 375.319154 288.896104 
L 375.620039 288.498274 
L 375.920923 289.857147 
L 376.221808 288.884992 
L 376.522693 286.989506 
L 376.823577 287.423292 
L 377.124462 289.359142 
L 377.425347 288.820656 
L 377.726231 289.442694 
L 378.027116 290.320787 
L 378.328001 290.463098 
L 378.628885 289.5975 
L 378.92977 290.125251 
L 379.230655 289.770083 
L 379.531539 291.366729 
L 379.832424 289.772514 
L 380.735078 289.166593 
L 381.035963 290.950859 
L 381.336847 289.723344 
L 381.938617 291.762014 
L 382.239501 290.845277 
L 382.540386 290.911554 
L 382.841271 290.779948 
L 383.142155 292.52566 
L 383.44304 291.046021 
L 383.743925 288.998133 
L 384.345694 290.66005 
L 384.646578 291.55991 
L 384.947463 290.828096 
L 385.248348 291.814059 
L 385.549232 292.06076 
L 385.850117 291.167415 
L 386.151002 291.804176 
L 386.451886 291.430547 
L 386.752771 293.533209 
L 387.053656 291.121063 
L 387.35454 290.693177 
L 387.95631 292.058368 
L 388.257194 291.785523 
L 388.558079 291.888783 
L 388.858964 292.668888 
L 389.159848 292.832603 
L 389.460733 292.529602 
L 389.761618 292.014867 
L 390.062502 293.099637 
L 390.363387 293.700005 
L 390.664272 292.897 
L 390.965156 290.71968 
L 391.266041 292.834984 
L 391.566926 292.016236 
L 391.86781 292.643584 
L 392.168695 292.696367 
L 392.770464 293.234751 
L 393.071349 293.9085 
L 393.372234 293.598548 
L 393.673118 292.104807 
L 393.974003 295.488 
L 394.274888 294.238467 
L 394.575772 291.462327 
L 395.177541 292.612008 
L 395.478426 293.668586 
L 395.779311 294.096506 
L 396.080195 293.444243 
L 396.38108 295.140582 
L 396.681965 294.142504 
L 396.982849 294.523799 
L 397.283734 294.063092 
L 397.584619 295.092465 
L 397.885503 294.567403 
L 398.186388 293.366392 
L 398.487273 295.071298 
L 398.487273 295.071298 
" clip-path="url(#pe754385c2a)" style="fill: none; stroke: #dc143c; stroke-width: 2; stroke-linecap: square"/>
   </g>
   <g id="line2d_27">
    <path d="M 73.832727 189.205538 
L 77.142459 189.205538 
L 77.443343 191.181118 
L 80.753074 191.181118 
L 81.053959 192.290243 
L 84.36369 192.290243 
L 84.664575 193.14249 
L 87.974306 193.14249 
L 88.275191 193.883082 
L 91.584922 193.883082 
L 91.885807 194.601253 
L 95.195538 194.601253 
L 95.496423 195.366106 
L 98.806154 195.366106 
L 99.107039 196.232233 
L 102.41677 196.232233 
L 102.717654 197.162401 
L 106.027386 197.162401 
L 106.32827 198.102722 
L 109.638002 198.102722 
L 109.938886 198.999535 
L 113.248617 198.999535 
L 113.549502 199.742017 
L 116.859233 199.742017 
L 117.160118 200.262008 
L 120.469849 200.262008 
L 120.770734 200.512676 
L 127.691081 200.460464 
L 127.991966 200.042806 
L 131.301697 200.042806 
L 131.602582 199.278381 
L 134.912313 199.278381 
L 135.213197 198.280709 
L 138.522929 198.280709 
L 138.823813 197.416231 
L 142.133545 197.416231 
L 142.434429 196.921244 
L 145.74416 196.921244 
L 146.045045 197.894176 
L 149.354776 197.894176 
L 149.655661 201.591583 
L 152.965392 201.591583 
L 153.266277 206.607176 
L 156.576008 206.607176 
L 156.876893 210.233576 
L 160.186624 210.233576 
L 160.487509 212.914479 
L 163.79724 212.914479 
L 164.098125 214.504156 
L 167.407856 214.504156 
L 167.70874 215.372035 
L 171.018472 215.372035 
L 171.319356 216.304407 
L 174.629088 216.304407 
L 174.929972 217.231162 
L 178.239703 217.231162 
L 178.540588 218.250525 
L 185.460935 218.231 
L 185.76182 217.674845 
L 189.071551 217.674845 
L 189.372436 217.09468 
L 192.682167 217.09468 
L 192.983052 216.453171 
L 196.292783 216.453171 
L 196.593668 215.826122 
L 199.903399 215.826122 
L 200.204283 215.344777 
L 203.514015 215.344777 
L 203.814899 214.72288 
L 207.124631 214.72288 
L 207.425515 214.419332 
L 210.735246 214.419332 
L 211.036131 214.11683 
L 214.345862 214.11683 
L 214.646747 213.879816 
L 217.956478 213.879816 
L 218.257363 213.513211 
L 221.567094 213.513211 
L 221.867979 213.653598 
L 236.009558 213.553444 
L 236.310442 213.933918 
L 239.620174 213.933918 
L 239.921058 213.778365 
L 246.841405 213.868467 
L 247.14229 214.010101 
L 250.452021 214.010101 
L 251.053791 214.12571 
L 254.062637 214.12571 
L 254.363522 214.477011 
L 261.283869 214.419307 
L 261.584754 214.732277 
L 264.894485 214.732277 
L 265.195369 215.158224 
L 272.115717 215.263517 
L 272.717486 215.337445 
L 275.726332 215.337445 
L 276.027217 215.70031 
L 279.336948 215.70031 
L 279.637833 215.943962 
L 282.947564 215.943962 
L 283.248449 216.06723 
L 286.55818 216.06723 
L 286.859065 215.89185 
L 290.168796 215.89185 
L 290.469681 216.23645 
L 297.390028 216.19337 
L 297.690912 216.655141 
L 308.221875 216.588847 
L 308.52276 216.972709 
L 311.832491 216.972709 
L 312.133376 217.256493 
L 315.443107 217.256493 
L 315.743992 216.922764 
L 322.664339 216.986729 
L 322.965224 217.666531 
L 326.274955 217.666531 
L 326.57584 217.464031 
L 329.885571 217.464031 
L 330.186455 217.055203 
L 337.106803 217.084653 
L 337.407687 218.047899 
L 340.717418 218.047899 
L 341.018303 217.778991 
L 344.328034 217.778991 
L 344.628919 217.911808 
L 351.549266 218.015602 
L 351.850151 218.499241 
L 355.159882 218.499241 
L 355.460767 218.140495 
L 362.381114 218.15255 
L 362.681998 218.40546 
L 365.99173 218.40546 
L 366.292614 217.923699 
L 369.602346 217.923699 
L 369.90323 218.346283 
L 373.212961 218.346283 
L 373.513846 219.077843 
L 376.823577 219.077843 
L 377.124462 218.494441 
L 380.434193 218.494441 
L 380.735078 218.772922 
L 384.044809 218.772922 
L 384.345694 218.510325 
L 387.655425 218.510325 
L 387.95631 218.279245 
L 391.266041 218.279245 
L 391.566926 219.140006 
L 394.876657 219.140006 
L 395.177541 218.039233 
L 398.487273 218.039233 
L 398.487273 218.039233 
" clip-path="url(#pe754385c2a)" style="fill: none; stroke: #ffff00; stroke-width: 3; stroke-linecap: square"/>
   </g>
   <g id="patch_3">
    <path d="M 57.6 307.584 
L 57.6 41.472 
" style="fill: none; stroke: #ffffff; stroke-linejoin: miter; stroke-linecap: square"/>
   </g>
   <g id="patch_4">
    <path d="M 414.72 307.584 
L 414.72 41.472 
" style="fill: none; stroke: #ffffff; stroke-linejoin: miter; stroke-linecap: square"/>
   </g>
   <g id="patch_5">
    <path d="M 57.6 307.584 
L 414.72 307.584 
" style="fill: none; stroke: #ffffff; stroke-linejoin: miter; stroke-linecap: square"/>
   </g>
   <g id="patch_6">
    <path d="M 57.6 41.472 
L 414.72 41.472 
" style="fill: none; stroke: #ffffff; stroke-linejoin: miter; stroke-linecap: square"/>
   </g>
   <g id="legend_1">
    <g id="patch_7">
     <path d="M 243.124687 302.584 
L 407.72 302.584 
Q 409.72 302.584 409.72 300.584 
L 409.72 257.549625 
Q 409.72 255.549625 407.72 255.549625 
L 243.124687 255.549625 
Q 241.124687 255.549625 241.124687 257.549625 
L 241.124687 300.584 
Q 241.124687 302.584 243.124687 302.584 
z
" style="fill: #e5e5e5; opacity: 0.8; stroke: #cccccc; stroke-width: 0.5; stroke-linejoin: miter"/>
    </g>
    <g id="line2d_28">
     <path d="M 245.124687 263.648062 
L 255.124687 263.648062 
L 265.124687 263.648062 
" style="fill: none; stroke: #6495ed; stroke-width: 2; stroke-linecap: square"/>
    </g>
    <g id="text_15">
     <!-- Generator loss -->
     <g transform="translate(273.124687 267.148062) scale(0.1 -0.1)">
      <defs>
       <path id="DejaVuSans-47" d="M 3809 666 
L 3809 1919 
L 2778 1919 
L 2778 2438 
L 4434 2438 
L 4434 434 
Q 4069 175 3628 42 
Q 3188 -91 2688 -91 
Q 1594 -91 976 548 
Q 359 1188 359 2328 
Q 359 3472 976 4111 
Q 1594 4750 2688 4750 
Q 3144 4750 3555 4637 
Q 3966 4525 4313 4306 
L 4313 3634 
Q 3963 3931 3569 4081 
Q 3175 4231 2741 4231 
Q 1884 4231 1454 3753 
Q 1025 3275 1025 2328 
Q 1025 1384 1454 906 
Q 1884 428 2741 428 
Q 3075 428 3337 486 
Q 3600 544 3809 666 
z
" transform="scale(0.015625)"/>
       <path id="DejaVuSans-65" d="M 3597 1894 
L 3597 1613 
L 953 1613 
Q 991 1019 1311 708 
Q 1631 397 2203 397 
Q 2534 397 2845 478 
Q 3156 559 3463 722 
L 3463 178 
Q 3153 47 2828 -22 
Q 2503 -91 2169 -91 
Q 1331 -91 842 396 
Q 353 884 353 1716 
Q 353 2575 817 3079 
Q 1281 3584 2069 3584 
Q 2775 3584 3186 3129 
Q 3597 2675 3597 1894 
z
M 3022 2063 
Q 3016 2534 2758 2815 
Q 2500 3097 2075 3097 
Q 1594 3097 1305 2825 
Q 1016 2553 972 2059 
L 3022 2063 
z
" transform="scale(0.015625)"/>
       <path id="DejaVuSans-6e" d="M 3513 2113 
L 3513 0 
L 2938 0 
L 2938 2094 
Q 2938 2591 2744 2837 
Q 2550 3084 2163 3084 
Q 1697 3084 1428 2787 
Q 1159 2491 1159 1978 
L 1159 0 
L 581 0 
L 581 3500 
L 1159 3500 
L 1159 2956 
Q 1366 3272 1645 3428 
Q 1925 3584 2291 3584 
Q 2894 3584 3203 3211 
Q 3513 2838 3513 2113 
z
" transform="scale(0.015625)"/>
       <path id="DejaVuSans-72" d="M 2631 2963 
Q 2534 3019 2420 3045 
Q 2306 3072 2169 3072 
Q 1681 3072 1420 2755 
Q 1159 2438 1159 1844 
L 1159 0 
L 581 0 
L 581 3500 
L 1159 3500 
L 1159 2956 
Q 1341 3275 1631 3429 
Q 1922 3584 2338 3584 
Q 2397 3584 2469 3576 
Q 2541 3569 2628 3553 
L 2631 2963 
z
" transform="scale(0.015625)"/>
       <path id="DejaVuSans-61" d="M 2194 1759 
Q 1497 1759 1228 1600 
Q 959 1441 959 1056 
Q 959 750 1161 570 
Q 1363 391 1709 391 
Q 2188 391 2477 730 
Q 2766 1069 2766 1631 
L 2766 1759 
L 2194 1759 
z
M 3341 1997 
L 3341 0 
L 2766 0 
L 2766 531 
Q 2569 213 2275 61 
Q 1981 -91 1556 -91 
Q 1019 -91 701 211 
Q 384 513 384 1019 
Q 384 1609 779 1909 
Q 1175 2209 1959 2209 
L 2766 2209 
L 2766 2266 
Q 2766 2663 2505 2880 
Q 2244 3097 1772 3097 
Q 1472 3097 1187 3025 
Q 903 2953 641 2809 
L 641 3341 
Q 956 3463 1253 3523 
Q 1550 3584 1831 3584 
Q 2591 3584 2966 3190 
Q 3341 2797 3341 1997 
z
" transform="scale(0.015625)"/>
       <path id="DejaVuSans-74" d="M 1172 4494 
L 1172 3500 
L 2356 3500 
L 2356 3053 
L 1172 3053 
L 1172 1153 
Q 1172 725 1289 603 
Q 1406 481 1766 481 
L 2356 481 
L 2356 0 
L 1766 0 
Q 1100 0 847 248 
Q 594 497 594 1153 
L 594 3053 
L 172 3053 
L 172 3500 
L 594 3500 
L 594 4494 
L 1172 4494 
z
" transform="scale(0.015625)"/>
       <path id="DejaVuSans-20" transform="scale(0.015625)"/>
       <path id="DejaVuSans-6c" d="M 603 4863 
L 1178 4863 
L 1178 0 
L 603 0 
L 603 4863 
z
" transform="scale(0.015625)"/>
      </defs>
      <use xlink:href="#DejaVuSans-47"/>
      <use xlink:href="#DejaVuSans-65" x="77.490234"/>
      <use xlink:href="#DejaVuSans-6e" x="139.013672"/>
      <use xlink:href="#DejaVuSans-65" x="202.392578"/>
      <use xlink:href="#DejaVuSans-72" x="263.916016"/>
      <use xlink:href="#DejaVuSans-61" x="305.029297"/>
      <use xlink:href="#DejaVuSans-74" x="366.308594"/>
      <use xlink:href="#DejaVuSans-6f" x="405.517578"/>
      <use xlink:href="#DejaVuSans-72" x="466.699219"/>
      <use xlink:href="#DejaVuSans-20" x="507.8125"/>
      <use xlink:href="#DejaVuSans-6c" x="539.599609"/>
      <use xlink:href="#DejaVuSans-6f" x="567.382812"/>
      <use xlink:href="#DejaVuSans-73" x="628.564453"/>
      <use xlink:href="#DejaVuSans-73" x="680.664062"/>
     </g>
    </g>
    <g id="line2d_29">
     <path d="M 245.124687 278.326188 
L 255.124687 278.326188 
L 265.124687 278.326188 
" style="fill: none; stroke: #dc143c; stroke-width: 2; stroke-linecap: square"/>
    </g>
    <g id="text_16">
     <!-- Average discriminator loss -->
     <g transform="translate(273.124687 281.826188) scale(0.1 -0.1)">
      <defs>
       <path id="DejaVuSans-41" d="M 2188 4044 
L 1331 1722 
L 3047 1722 
L 2188 4044 
z
M 1831 4666 
L 2547 4666 
L 4325 0 
L 3669 0 
L 3244 1197 
L 1141 1197 
L 716 0 
L 50 0 
L 1831 4666 
z
" transform="scale(0.015625)"/>
       <path id="DejaVuSans-76" d="M 191 3500 
L 800 3500 
L 1894 563 
L 2988 3500 
L 3597 3500 
L 2284 0 
L 1503 0 
L 191 3500 
z
" transform="scale(0.015625)"/>
       <path id="DejaVuSans-67" d="M 2906 1791 
Q 2906 2416 2648 2759 
Q 2391 3103 1925 3103 
Q 1463 3103 1205 2759 
Q 947 2416 947 1791 
Q 947 1169 1205 825 
Q 1463 481 1925 481 
Q 2391 481 2648 825 
Q 2906 1169 2906 1791 
z
M 3481 434 
Q 3481 -459 3084 -895 
Q 2688 -1331 1869 -1331 
Q 1566 -1331 1297 -1286 
Q 1028 -1241 775 -1147 
L 775 -588 
Q 1028 -725 1275 -790 
Q 1522 -856 1778 -856 
Q 2344 -856 2625 -561 
Q 2906 -266 2906 331 
L 2906 616 
Q 2728 306 2450 153 
Q 2172 0 1784 0 
Q 1141 0 747 490 
Q 353 981 353 1791 
Q 353 2603 747 3093 
Q 1141 3584 1784 3584 
Q 2172 3584 2450 3431 
Q 2728 3278 2906 2969 
L 2906 3500 
L 3481 3500 
L 3481 434 
z
" transform="scale(0.015625)"/>
       <path id="DejaVuSans-64" d="M 2906 2969 
L 2906 4863 
L 3481 4863 
L 3481 0 
L 2906 0 
L 2906 525 
Q 2725 213 2448 61 
Q 2172 -91 1784 -91 
Q 1150 -91 751 415 
Q 353 922 353 1747 
Q 353 2572 751 3078 
Q 1150 3584 1784 3584 
Q 2172 3584 2448 3432 
Q 2725 3281 2906 2969 
z
M 947 1747 
Q 947 1113 1208 752 
Q 1469 391 1925 391 
Q 2381 391 2643 752 
Q 2906 1113 2906 1747 
Q 2906 2381 2643 2742 
Q 2381 3103 1925 3103 
Q 1469 3103 1208 2742 
Q 947 2381 947 1747 
z
" transform="scale(0.015625)"/>
       <path id="DejaVuSans-69" d="M 603 3500 
L 1178 3500 
L 1178 0 
L 603 0 
L 603 3500 
z
M 603 4863 
L 1178 4863 
L 1178 4134 
L 603 4134 
L 603 4863 
z
" transform="scale(0.015625)"/>
       <path id="DejaVuSans-6d" d="M 3328 2828 
Q 3544 3216 3844 3400 
Q 4144 3584 4550 3584 
Q 5097 3584 5394 3201 
Q 5691 2819 5691 2113 
L 5691 0 
L 5113 0 
L 5113 2094 
Q 5113 2597 4934 2840 
Q 4756 3084 4391 3084 
Q 3944 3084 3684 2787 
Q 3425 2491 3425 1978 
L 3425 0 
L 2847 0 
L 2847 2094 
Q 2847 2600 2669 2842 
Q 2491 3084 2119 3084 
Q 1678 3084 1418 2786 
Q 1159 2488 1159 1978 
L 1159 0 
L 581 0 
L 581 3500 
L 1159 3500 
L 1159 2956 
Q 1356 3278 1631 3431 
Q 1906 3584 2284 3584 
Q 2666 3584 2933 3390 
Q 3200 3197 3328 2828 
z
" transform="scale(0.015625)"/>
      </defs>
      <use xlink:href="#DejaVuSans-41"/>
      <use xlink:href="#DejaVuSans-76" x="62.533203"/>
      <use xlink:href="#DejaVuSans-65" x="121.712891"/>
      <use xlink:href="#DejaVuSans-72" x="183.236328"/>
      <use xlink:href="#DejaVuSans-61" x="224.349609"/>
      <use xlink:href="#DejaVuSans-67" x="285.628906"/>
      <use xlink:href="#DejaVuSans-65" x="349.105469"/>
      <use xlink:href="#DejaVuSans-20" x="410.628906"/>
      <use xlink:href="#DejaVuSans-64" x="442.416016"/>
      <use xlink:href="#DejaVuSans-69" x="505.892578"/>
      <use xlink:href="#DejaVuSans-73" x="533.675781"/>
      <use xlink:href="#DejaVuSans-63" x="585.775391"/>
      <use xlink:href="#DejaVuSans-72" x="640.755859"/>
      <use xlink:href="#DejaVuSans-69" x="681.869141"/>
      <use xlink:href="#DejaVuSans-6d" x="709.652344"/>
      <use xlink:href="#DejaVuSans-69" x="807.064453"/>
      <use xlink:href="#DejaVuSans-6e" x="834.847656"/>
      <use xlink:href="#DejaVuSans-61" x="898.226562"/>
      <use xlink:href="#DejaVuSans-74" x="959.505859"/>
      <use xlink:href="#DejaVuSans-6f" x="998.714844"/>
      <use xlink:href="#DejaVuSans-72" x="1059.896484"/>
      <use xlink:href="#DejaVuSans-20" x="1101.009766"/>
      <use xlink:href="#DejaVuSans-6c" x="1132.796875"/>
      <use xlink:href="#DejaVuSans-6f" x="1160.580078"/>
      <use xlink:href="#DejaVuSans-73" x="1221.761719"/>
      <use xlink:href="#DejaVuSans-73" x="1273.861328"/>
     </g>
    </g>
    <g id="line2d_30">
     <path d="M 245.124687 293.004312 
L 255.124687 293.004312 
L 265.124687 293.004312 
" style="fill: none; stroke: #ffff00; stroke-width: 3; stroke-linecap: square"/>
    </g>
    <g id="text_17">
     <!-- ROC AUC -->
     <g transform="translate(273.124687 296.504312) scale(0.1 -0.1)">
      <defs>
       <path id="DejaVuSans-52" d="M 2841 2188 
Q 3044 2119 3236 1894 
Q 3428 1669 3622 1275 
L 4263 0 
L 3584 0 
L 2988 1197 
Q 2756 1666 2539 1819 
Q 2322 1972 1947 1972 
L 1259 1972 
L 1259 0 
L 628 0 
L 628 4666 
L 2053 4666 
Q 2853 4666 3247 4331 
Q 3641 3997 3641 3322 
Q 3641 2881 3436 2590 
Q 3231 2300 2841 2188 
z
M 1259 4147 
L 1259 2491 
L 2053 2491 
Q 2509 2491 2742 2702 
Q 2975 2913 2975 3322 
Q 2975 3731 2742 3939 
Q 2509 4147 2053 4147 
L 1259 4147 
z
" transform="scale(0.015625)"/>
       <path id="DejaVuSans-4f" d="M 2522 4238 
Q 1834 4238 1429 3725 
Q 1025 3213 1025 2328 
Q 1025 1447 1429 934 
Q 1834 422 2522 422 
Q 3209 422 3611 934 
Q 4013 1447 4013 2328 
Q 4013 3213 3611 3725 
Q 3209 4238 2522 4238 
z
M 2522 4750 
Q 3503 4750 4090 4092 
Q 4678 3434 4678 2328 
Q 4678 1225 4090 567 
Q 3503 -91 2522 -91 
Q 1538 -91 948 565 
Q 359 1222 359 2328 
Q 359 3434 948 4092 
Q 1538 4750 2522 4750 
z
" transform="scale(0.015625)"/>
       <path id="DejaVuSans-43" d="M 4122 4306 
L 4122 3641 
Q 3803 3938 3442 4084 
Q 3081 4231 2675 4231 
Q 1875 4231 1450 3742 
Q 1025 3253 1025 2328 
Q 1025 1406 1450 917 
Q 1875 428 2675 428 
Q 3081 428 3442 575 
Q 3803 722 4122 1019 
L 4122 359 
Q 3791 134 3420 21 
Q 3050 -91 2638 -91 
Q 1578 -91 968 557 
Q 359 1206 359 2328 
Q 359 3453 968 4101 
Q 1578 4750 2638 4750 
Q 3056 4750 3426 4639 
Q 3797 4528 4122 4306 
z
" transform="scale(0.015625)"/>
       <path id="DejaVuSans-55" d="M 556 4666 
L 1191 4666 
L 1191 1831 
Q 1191 1081 1462 751 
Q 1734 422 2344 422 
Q 2950 422 3222 751 
Q 3494 1081 3494 1831 
L 3494 4666 
L 4128 4666 
L 4128 1753 
Q 4128 841 3676 375 
Q 3225 -91 2344 -91 
Q 1459 -91 1007 375 
Q 556 841 556 1753 
L 556 4666 
z
" transform="scale(0.015625)"/>
      </defs>
      <use xlink:href="#DejaVuSans-52"/>
      <use xlink:href="#DejaVuSans-4f" x="69.482422"/>
      <use xlink:href="#DejaVuSans-43" x="148.193359"/>
      <use xlink:href="#DejaVuSans-20" x="218.017578"/>
      <use xlink:href="#DejaVuSans-41" x="249.804688"/>
      <use xlink:href="#DejaVuSans-55" x="318.212891"/>
      <use xlink:href="#DejaVuSans-43" x="391.40625"/>
     </g>
    </g>
   </g>
  </g>
 </g>
 <defs>
  <clipPath id="pe754385c2a">
   <rect x="57.6" y="41.472" width="357.12" height="266.112"/>
  </clipPath>
 </defs>
</svg>
