<?xml version="1.0" encoding="utf-8" standalone="no"?>
<!DOCTYPE svg PUBLIC "-//W3C//DTD SVG 1.1//EN"
  "http://www.w3.org/Graphics/SVG/1.1/DTD/svg11.dtd">
<svg xmlns:xlink="http://www.w3.org/1999/xlink" width="460.8pt" height="345.6pt" viewBox="0 0 460.8 345.6" xmlns="http://www.w3.org/2000/svg" version="1.1">
 <metadata>
  <rdf:RDF xmlns:dc="http://purl.org/dc/elements/1.1/" xmlns:cc="http://creativecommons.org/ns#" xmlns:rdf="http://www.w3.org/1999/02/22-rdf-syntax-ns#">
   <cc:Work>
    <dc:type rdf:resource="http://purl.org/dc/dcmitype/StillImage"/>
    <dc:date>2023-07-12T05:23:45.078301</dc:date>
    <dc:format>image/svg+xml</dc:format>
    <dc:creator>
     <cc:Agent>
      <dc:title>Matplotlib v3.7.1, https://matplotlib.org/</dc:title>
     </cc:Agent>
    </dc:creator>
   </cc:Work>
  </rdf:RDF>
 </metadata>
 <defs>
  <style type="text/css">*{stroke-linejoin: round; stroke-linecap: butt}</style>
 </defs>
 <g id="figure_1">
  <g id="patch_1">
   <path d="M 0 345.6 
L 460.8 345.6 
L 460.8 0 
L 0 0 
z
" style="fill: #ffffff"/>
  </g>
  <g id="axes_1">
   <g id="patch_2">
    <path d="M 57.6 307.584 
L 414.72 307.584 
L 414.72 41.472 
L 57.6 41.472 
z
" style="fill: #e5e5e5"/>
   </g>
   <g id="matplotlib.axis_1">
    <g id="xtick_1">
     <g id="line2d_1">
      <path d="M 73.531843 307.584 
L 73.531843 41.472 
" clip-path="url(#pc03e11db5f)" style="fill: none; stroke: #ffffff; stroke-width: 0.8; stroke-linecap: square"/>
     </g>
     <g id="line2d_2">
      <defs>
       <path id="m6c3f452857" d="M 0 0 
L 0 3.5 
" style="stroke: #555555; stroke-width: 0.8"/>
      </defs>
      <g>
       <use xlink:href="#m6c3f452857" x="73.531843" y="307.584" style="fill: #555555; stroke: #555555; stroke-width: 0.8"/>
      </g>
     </g>
     <g id="text_1">
      <!-- 0 -->
      <g style="fill: #555555" transform="translate(70.350593 322.182437) scale(0.1 -0.1)">
       <defs>
        <path id="DejaVuSans-30" d="M 2034 4250 
Q 1547 4250 1301 3770 
Q 1056 3291 1056 2328 
Q 1056 1369 1301 889 
Q 1547 409 2034 409 
Q 2525 409 2770 889 
Q 3016 1369 3016 2328 
Q 3016 3291 2770 3770 
Q 2525 4250 2034 4250 
z
M 2034 4750 
Q 2819 4750 3233 4129 
Q 3647 3509 3647 2328 
Q 3647 1150 3233 529 
Q 2819 -91 2034 -91 
Q 1250 -91 836 529 
Q 422 1150 422 2328 
Q 422 3509 836 4129 
Q 1250 4750 2034 4750 
z
" transform="scale(0.015625)"/>
       </defs>
       <use xlink:href="#DejaVuSans-30"/>
      </g>
     </g>
    </g>
    <g id="xtick_2">
     <g id="line2d_3">
      <path d="M 133.708774 307.584 
L 133.708774 41.472 
" clip-path="url(#pc03e11db5f)" style="fill: none; stroke: #ffffff; stroke-width: 0.8; stroke-linecap: square"/>
     </g>
     <g id="line2d_4">
      <g>
       <use xlink:href="#m6c3f452857" x="133.708774" y="307.584" style="fill: #555555; stroke: #555555; stroke-width: 0.8"/>
      </g>
     </g>
     <g id="text_2">
      <!-- 200 -->
      <g style="fill: #555555" transform="translate(124.165024 322.182437) scale(0.1 -0.1)">
       <defs>
        <path id="DejaVuSans-32" d="M 1228 531 
L 3431 531 
L 3431 0 
L 469 0 
L 469 531 
Q 828 903 1448 1529 
Q 2069 2156 2228 2338 
Q 2531 2678 2651 2914 
Q 2772 3150 2772 3378 
Q 2772 3750 2511 3984 
Q 2250 4219 1831 4219 
Q 1534 4219 1204 4116 
Q 875 4013 500 3803 
L 500 4441 
Q 881 4594 1212 4672 
Q 1544 4750 1819 4750 
Q 2544 4750 2975 4387 
Q 3406 4025 3406 3419 
Q 3406 3131 3298 2873 
Q 3191 2616 2906 2266 
Q 2828 2175 2409 1742 
Q 1991 1309 1228 531 
z
" transform="scale(0.015625)"/>
       </defs>
       <use xlink:href="#DejaVuSans-32"/>
       <use xlink:href="#DejaVuSans-30" x="63.623047"/>
       <use xlink:href="#DejaVuSans-30" x="127.246094"/>
      </g>
     </g>
    </g>
    <g id="xtick_3">
     <g id="line2d_5">
      <path d="M 193.885706 307.584 
L 193.885706 41.472 
" clip-path="url(#pc03e11db5f)" style="fill: none; stroke: #ffffff; stroke-width: 0.8; stroke-linecap: square"/>
     </g>
     <g id="line2d_6">
      <g>
       <use xlink:href="#m6c3f452857" x="193.885706" y="307.584" style="fill: #555555; stroke: #555555; stroke-width: 0.8"/>
      </g>
     </g>
     <g id="text_3">
      <!-- 400 -->
      <g style="fill: #555555" transform="translate(184.341956 322.182437) scale(0.1 -0.1)">
       <defs>
        <path id="DejaVuSans-34" d="M 2419 4116 
L 825 1625 
L 2419 1625 
L 2419 4116 
z
M 2253 4666 
L 3047 4666 
L 3047 1625 
L 3713 1625 
L 3713 1100 
L 3047 1100 
L 3047 0 
L 2419 0 
L 2419 1100 
L 313 1100 
L 313 1709 
L 2253 4666 
z
" transform="scale(0.015625)"/>
       </defs>
       <use xlink:href="#DejaVuSans-34"/>
       <use xlink:href="#DejaVuSans-30" x="63.623047"/>
       <use xlink:href="#DejaVuSans-30" x="127.246094"/>
      </g>
     </g>
    </g>
    <g id="xtick_4">
     <g id="line2d_7">
      <path d="M 254.062637 307.584 
L 254.062637 41.472 
" clip-path="url(#pc03e11db5f)" style="fill: none; stroke: #ffffff; stroke-width: 0.8; stroke-linecap: square"/>
     </g>
     <g id="line2d_8">
      <g>
       <use xlink:href="#m6c3f452857" x="254.062637" y="307.584" style="fill: #555555; stroke: #555555; stroke-width: 0.8"/>
      </g>
     </g>
     <g id="text_4">
      <!-- 600 -->
      <g style="fill: #555555" transform="translate(244.518887 322.182437) scale(0.1 -0.1)">
       <defs>
        <path id="DejaVuSans-36" d="M 2113 2584 
Q 1688 2584 1439 2293 
Q 1191 2003 1191 1497 
Q 1191 994 1439 701 
Q 1688 409 2113 409 
Q 2538 409 2786 701 
Q 3034 994 3034 1497 
Q 3034 2003 2786 2293 
Q 2538 2584 2113 2584 
z
M 3366 4563 
L 3366 3988 
Q 3128 4100 2886 4159 
Q 2644 4219 2406 4219 
Q 1781 4219 1451 3797 
Q 1122 3375 1075 2522 
Q 1259 2794 1537 2939 
Q 1816 3084 2150 3084 
Q 2853 3084 3261 2657 
Q 3669 2231 3669 1497 
Q 3669 778 3244 343 
Q 2819 -91 2113 -91 
Q 1303 -91 875 529 
Q 447 1150 447 2328 
Q 447 3434 972 4092 
Q 1497 4750 2381 4750 
Q 2619 4750 2861 4703 
Q 3103 4656 3366 4563 
z
" transform="scale(0.015625)"/>
       </defs>
       <use xlink:href="#DejaVuSans-36"/>
       <use xlink:href="#DejaVuSans-30" x="63.623047"/>
       <use xlink:href="#DejaVuSans-30" x="127.246094"/>
      </g>
     </g>
    </g>
    <g id="xtick_5">
     <g id="line2d_9">
      <path d="M 314.239569 307.584 
L 314.239569 41.472 
" clip-path="url(#pc03e11db5f)" style="fill: none; stroke: #ffffff; stroke-width: 0.8; stroke-linecap: square"/>
     </g>
     <g id="line2d_10">
      <g>
       <use xlink:href="#m6c3f452857" x="314.239569" y="307.584" style="fill: #555555; stroke: #555555; stroke-width: 0.8"/>
      </g>
     </g>
     <g id="text_5">
      <!-- 800 -->
      <g style="fill: #555555" transform="translate(304.695819 322.182437) scale(0.1 -0.1)">
       <defs>
        <path id="DejaVuSans-38" d="M 2034 2216 
Q 1584 2216 1326 1975 
Q 1069 1734 1069 1313 
Q 1069 891 1326 650 
Q 1584 409 2034 409 
Q 2484 409 2743 651 
Q 3003 894 3003 1313 
Q 3003 1734 2745 1975 
Q 2488 2216 2034 2216 
z
M 1403 2484 
Q 997 2584 770 2862 
Q 544 3141 544 3541 
Q 544 4100 942 4425 
Q 1341 4750 2034 4750 
Q 2731 4750 3128 4425 
Q 3525 4100 3525 3541 
Q 3525 3141 3298 2862 
Q 3072 2584 2669 2484 
Q 3125 2378 3379 2068 
Q 3634 1759 3634 1313 
Q 3634 634 3220 271 
Q 2806 -91 2034 -91 
Q 1263 -91 848 271 
Q 434 634 434 1313 
Q 434 1759 690 2068 
Q 947 2378 1403 2484 
z
M 1172 3481 
Q 1172 3119 1398 2916 
Q 1625 2713 2034 2713 
Q 2441 2713 2670 2916 
Q 2900 3119 2900 3481 
Q 2900 3844 2670 4047 
Q 2441 4250 2034 4250 
Q 1625 4250 1398 4047 
Q 1172 3844 1172 3481 
z
" transform="scale(0.015625)"/>
       </defs>
       <use xlink:href="#DejaVuSans-38"/>
       <use xlink:href="#DejaVuSans-30" x="63.623047"/>
       <use xlink:href="#DejaVuSans-30" x="127.246094"/>
      </g>
     </g>
    </g>
    <g id="xtick_6">
     <g id="line2d_11">
      <path d="M 374.4165 307.584 
L 374.4165 41.472 
" clip-path="url(#pc03e11db5f)" style="fill: none; stroke: #ffffff; stroke-width: 0.8; stroke-linecap: square"/>
     </g>
     <g id="line2d_12">
      <g>
       <use xlink:href="#m6c3f452857" x="374.4165" y="307.584" style="fill: #555555; stroke: #555555; stroke-width: 0.8"/>
      </g>
     </g>
     <g id="text_6">
      <!-- 1000 -->
      <g style="fill: #555555" transform="translate(361.6915 322.182437) scale(0.1 -0.1)">
       <defs>
        <path id="DejaVuSans-31" d="M 794 531 
L 1825 531 
L 1825 4091 
L 703 3866 
L 703 4441 
L 1819 4666 
L 2450 4666 
L 2450 531 
L 3481 531 
L 3481 0 
L 794 0 
L 794 531 
z
" transform="scale(0.015625)"/>
       </defs>
       <use xlink:href="#DejaVuSans-31"/>
       <use xlink:href="#DejaVuSans-30" x="63.623047"/>
       <use xlink:href="#DejaVuSans-30" x="127.246094"/>
       <use xlink:href="#DejaVuSans-30" x="190.869141"/>
      </g>
     </g>
    </g>
    <g id="text_7">
     <!-- Epoch -->
     <g style="fill: #555555" transform="translate(217.786875 337.38025) scale(0.12 -0.12)">
      <defs>
       <path id="DejaVuSans-45" d="M 628 4666 
L 3578 4666 
L 3578 4134 
L 1259 4134 
L 1259 2753 
L 3481 2753 
L 3481 2222 
L 1259 2222 
L 1259 531 
L 3634 531 
L 3634 0 
L 628 0 
L 628 4666 
z
" transform="scale(0.015625)"/>
       <path id="DejaVuSans-70" d="M 1159 525 
L 1159 -1331 
L 581 -1331 
L 581 3500 
L 1159 3500 
L 1159 2969 
Q 1341 3281 1617 3432 
Q 1894 3584 2278 3584 
Q 2916 3584 3314 3078 
Q 3713 2572 3713 1747 
Q 3713 922 3314 415 
Q 2916 -91 2278 -91 
Q 1894 -91 1617 61 
Q 1341 213 1159 525 
z
M 3116 1747 
Q 3116 2381 2855 2742 
Q 2594 3103 2138 3103 
Q 1681 3103 1420 2742 
Q 1159 2381 1159 1747 
Q 1159 1113 1420 752 
Q 1681 391 2138 391 
Q 2594 391 2855 752 
Q 3116 1113 3116 1747 
z
" transform="scale(0.015625)"/>
       <path id="DejaVuSans-6f" d="M 1959 3097 
Q 1497 3097 1228 2736 
Q 959 2375 959 1747 
Q 959 1119 1226 758 
Q 1494 397 1959 397 
Q 2419 397 2687 759 
Q 2956 1122 2956 1747 
Q 2956 2369 2687 2733 
Q 2419 3097 1959 3097 
z
M 1959 3584 
Q 2709 3584 3137 3096 
Q 3566 2609 3566 1747 
Q 3566 888 3137 398 
Q 2709 -91 1959 -91 
Q 1206 -91 779 398 
Q 353 888 353 1747 
Q 353 2609 779 3096 
Q 1206 3584 1959 3584 
z
" transform="scale(0.015625)"/>
       <path id="DejaVuSans-63" d="M 3122 3366 
L 3122 2828 
Q 2878 2963 2633 3030 
Q 2388 3097 2138 3097 
Q 1578 3097 1268 2742 
Q 959 2388 959 1747 
Q 959 1106 1268 751 
Q 1578 397 2138 397 
Q 2388 397 2633 464 
Q 2878 531 3122 666 
L 3122 134 
Q 2881 22 2623 -34 
Q 2366 -91 2075 -91 
Q 1284 -91 818 406 
Q 353 903 353 1747 
Q 353 2603 823 3093 
Q 1294 3584 2113 3584 
Q 2378 3584 2631 3529 
Q 2884 3475 3122 3366 
z
" transform="scale(0.015625)"/>
       <path id="DejaVuSans-68" d="M 3513 2113 
L 3513 0 
L 2938 0 
L 2938 2094 
Q 2938 2591 2744 2837 
Q 2550 3084 2163 3084 
Q 1697 3084 1428 2787 
Q 1159 2491 1159 1978 
L 1159 0 
L 581 0 
L 581 4863 
L 1159 4863 
L 1159 2956 
Q 1366 3272 1645 3428 
Q 1925 3584 2291 3584 
Q 2894 3584 3203 3211 
Q 3513 2838 3513 2113 
z
" transform="scale(0.015625)"/>
      </defs>
      <use xlink:href="#DejaVuSans-45"/>
      <use xlink:href="#DejaVuSans-70" x="63.183594"/>
      <use xlink:href="#DejaVuSans-6f" x="126.660156"/>
      <use xlink:href="#DejaVuSans-63" x="187.841797"/>
      <use xlink:href="#DejaVuSans-68" x="242.822266"/>
     </g>
    </g>
   </g>
   <g id="matplotlib.axis_2">
    <g id="ytick_1">
     <g id="line2d_13">
      <path d="M 57.6 281.007589 
L 414.72 281.007589 
" clip-path="url(#pc03e11db5f)" style="fill: none; stroke: #ffffff; stroke-width: 0.8; stroke-linecap: square"/>
     </g>
     <g id="line2d_14">
      <defs>
       <path id="m3001f7eb4c" d="M 0 0 
L -3.5 0 
" style="stroke: #555555; stroke-width: 0.8"/>
      </defs>
      <g>
       <use xlink:href="#m3001f7eb4c" x="57.6" y="281.007589" style="fill: #555555; stroke: #555555; stroke-width: 0.8"/>
      </g>
     </g>
     <g id="text_8">
      <!-- 0.4 -->
      <g style="fill: #555555" transform="translate(34.696875 284.806808) scale(0.1 -0.1)">
       <defs>
        <path id="DejaVuSans-2e" d="M 684 794 
L 1344 794 
L 1344 0 
L 684 0 
L 684 794 
z
" transform="scale(0.015625)"/>
       </defs>
       <use xlink:href="#DejaVuSans-30"/>
       <use xlink:href="#DejaVuSans-2e" x="63.623047"/>
       <use xlink:href="#DejaVuSans-34" x="95.410156"/>
      </g>
     </g>
    </g>
    <g id="ytick_2">
     <g id="line2d_15">
      <path d="M 57.6 237.181956 
L 414.72 237.181956 
" clip-path="url(#pc03e11db5f)" style="fill: none; stroke: #ffffff; stroke-width: 0.8; stroke-linecap: square"/>
     </g>
     <g id="line2d_16">
      <g>
       <use xlink:href="#m3001f7eb4c" x="57.6" y="237.181956" style="fill: #555555; stroke: #555555; stroke-width: 0.8"/>
      </g>
     </g>
     <g id="text_9">
      <!-- 0.6 -->
      <g style="fill: #555555" transform="translate(34.696875 240.981175) scale(0.1 -0.1)">
       <use xlink:href="#DejaVuSans-30"/>
       <use xlink:href="#DejaVuSans-2e" x="63.623047"/>
       <use xlink:href="#DejaVuSans-36" x="95.410156"/>
      </g>
     </g>
    </g>
    <g id="ytick_3">
     <g id="line2d_17">
      <path d="M 57.6 193.356323 
L 414.72 193.356323 
" clip-path="url(#pc03e11db5f)" style="fill: none; stroke: #ffffff; stroke-width: 0.8; stroke-linecap: square"/>
     </g>
     <g id="line2d_18">
      <g>
       <use xlink:href="#m3001f7eb4c" x="57.6" y="193.356323" style="fill: #555555; stroke: #555555; stroke-width: 0.8"/>
      </g>
     </g>
     <g id="text_10">
      <!-- 0.8 -->
      <g style="fill: #555555" transform="translate(34.696875 197.155542) scale(0.1 -0.1)">
       <use xlink:href="#DejaVuSans-30"/>
       <use xlink:href="#DejaVuSans-2e" x="63.623047"/>
       <use xlink:href="#DejaVuSans-38" x="95.410156"/>
      </g>
     </g>
    </g>
    <g id="ytick_4">
     <g id="line2d_19">
      <path d="M 57.6 149.53069 
L 414.72 149.53069 
" clip-path="url(#pc03e11db5f)" style="fill: none; stroke: #ffffff; stroke-width: 0.8; stroke-linecap: square"/>
     </g>
     <g id="line2d_20">
      <g>
       <use xlink:href="#m3001f7eb4c" x="57.6" y="149.53069" style="fill: #555555; stroke: #555555; stroke-width: 0.8"/>
      </g>
     </g>
     <g id="text_11">
      <!-- 1.0 -->
      <g style="fill: #555555" transform="translate(34.696875 153.329909) scale(0.1 -0.1)">
       <use xlink:href="#DejaVuSans-31"/>
       <use xlink:href="#DejaVuSans-2e" x="63.623047"/>
       <use xlink:href="#DejaVuSans-30" x="95.410156"/>
      </g>
     </g>
    </g>
    <g id="ytick_5">
     <g id="line2d_21">
      <path d="M 57.6 105.705057 
L 414.72 105.705057 
" clip-path="url(#pc03e11db5f)" style="fill: none; stroke: #ffffff; stroke-width: 0.8; stroke-linecap: square"/>
     </g>
     <g id="line2d_22">
      <g>
       <use xlink:href="#m3001f7eb4c" x="57.6" y="105.705057" style="fill: #555555; stroke: #555555; stroke-width: 0.8"/>
      </g>
     </g>
     <g id="text_12">
      <!-- 1.2 -->
      <g style="fill: #555555" transform="translate(34.696875 109.504276) scale(0.1 -0.1)">
       <use xlink:href="#DejaVuSans-31"/>
       <use xlink:href="#DejaVuSans-2e" x="63.623047"/>
       <use xlink:href="#DejaVuSans-32" x="95.410156"/>
      </g>
     </g>
    </g>
    <g id="ytick_6">
     <g id="line2d_23">
      <path d="M 57.6 61.879424 
L 414.72 61.879424 
" clip-path="url(#pc03e11db5f)" style="fill: none; stroke: #ffffff; stroke-width: 0.8; stroke-linecap: square"/>
     </g>
     <g id="line2d_24">
      <g>
       <use xlink:href="#m3001f7eb4c" x="57.6" y="61.879424" style="fill: #555555; stroke: #555555; stroke-width: 0.8"/>
      </g>
     </g>
     <g id="text_13">
      <!-- 1.4 -->
      <g style="fill: #555555" transform="translate(34.696875 65.678643) scale(0.1 -0.1)">
       <use xlink:href="#DejaVuSans-31"/>
       <use xlink:href="#DejaVuSans-2e" x="63.623047"/>
       <use xlink:href="#DejaVuSans-34" x="95.410156"/>
      </g>
     </g>
    </g>
    <g id="text_14">
     <!-- Loss -->
     <g style="fill: #555555" transform="translate(28.20125 187.688625) rotate(-90) scale(0.12 -0.12)">
      <defs>
       <path id="DejaVuSans-4c" d="M 628 4666 
L 1259 4666 
L 1259 531 
L 3531 531 
L 3531 0 
L 628 0 
L 628 4666 
z
" transform="scale(0.015625)"/>
       <path id="DejaVuSans-73" d="M 2834 3397 
L 2834 2853 
Q 2591 2978 2328 3040 
Q 2066 3103 1784 3103 
Q 1356 3103 1142 2972 
Q 928 2841 928 2578 
Q 928 2378 1081 2264 
Q 1234 2150 1697 2047 
L 1894 2003 
Q 2506 1872 2764 1633 
Q 3022 1394 3022 966 
Q 3022 478 2636 193 
Q 2250 -91 1575 -91 
Q 1294 -91 989 -36 
Q 684 19 347 128 
L 347 722 
Q 666 556 975 473 
Q 1284 391 1588 391 
Q 1994 391 2212 530 
Q 2431 669 2431 922 
Q 2431 1156 2273 1281 
Q 2116 1406 1581 1522 
L 1381 1569 
Q 847 1681 609 1914 
Q 372 2147 372 2553 
Q 372 3047 722 3315 
Q 1072 3584 1716 3584 
Q 2034 3584 2315 3537 
Q 2597 3491 2834 3397 
z
" transform="scale(0.015625)"/>
      </defs>
      <use xlink:href="#DejaVuSans-4c"/>
      <use xlink:href="#DejaVuSans-6f" x="53.962891"/>
      <use xlink:href="#DejaVuSans-73" x="115.144531"/>
      <use xlink:href="#DejaVuSans-73" x="167.244141"/>
     </g>
    </g>
   </g>
   <g id="line2d_25">
    <path d="M 73.832727 210.546473 
L 75.638035 189.65995 
L 78.345997 164.850826 
L 79.85042 152.29953 
L 80.753074 146.669614 
L 81.354844 141.842665 
L 84.062806 125.64834 
L 84.36369 125.194677 
L 84.664575 122.594325 
L 84.96546 122.022956 
L 85.567229 118.923698 
L 85.868114 118.152312 
L 86.469883 115.286272 
L 87.372537 112.595355 
L 87.673422 111.445668 
L 87.974306 110.939526 
L 88.275191 110.078672 
L 88.576075 108.770215 
L 88.87696 108.881652 
L 89.177845 107.661358 
L 89.478729 107.48263 
L 90.381383 104.276664 
L 90.682268 104.738476 
L 90.983153 104.82387 
L 91.284037 103.762789 
L 91.584922 104.992305 
L 91.885807 103.186535 
L 92.186691 102.110644 
L 92.487576 102.252618 
L 92.788461 102.904182 
L 93.089345 102.767563 
L 93.39023 102.311575 
L 93.991999 102.150219 
L 94.292884 102.131463 
L 94.593769 100.693572 
L 94.894653 101.43335 
L 95.195538 102.568748 
L 95.496423 102.171665 
L 96.098192 102.109547 
L 96.699961 103.956145 
L 97.000846 102.948432 
L 97.301731 104.229591 
L 97.602615 103.619954 
L 97.9035 103.614207 
L 98.204385 104.237794 
L 98.505269 104.441677 
L 98.806154 105.715548 
L 99.107039 106.124202 
L 99.407923 106.177779 
L 99.708808 106.388062 
L 100.009692 105.547008 
L 100.310577 107.535711 
L 100.611462 108.241896 
L 100.912346 108.342727 
L 101.213231 108.749344 
L 101.514116 109.54774 
L 101.815 110.71054 
L 102.115885 109.73177 
L 102.717654 113.194674 
L 103.018539 112.736911 
L 103.319424 113.933303 
L 103.620308 112.889777 
L 103.921193 114.495791 
L 104.222078 114.340051 
L 104.823847 115.624475 
L 105.124732 115.695893 
L 105.726501 118.85194 
L 106.027386 120.506202 
L 106.32827 120.523181 
L 106.629155 120.161442 
L 106.93004 122.022381 
L 107.230924 121.645387 
L 107.531809 122.887206 
L 107.832694 124.699611 
L 108.133578 123.647177 
L 108.434463 125.354832 
L 108.735348 125.186814 
L 109.337117 127.931726 
L 109.638002 128.086369 
L 109.938886 129.777305 
L 110.239771 129.866591 
L 110.540655 130.777834 
L 110.84154 131.234867 
L 111.142425 132.595307 
L 111.443309 133.294282 
L 111.744194 131.919501 
L 112.045079 134.720654 
L 112.345963 134.505695 
L 112.646848 135.159244 
L 112.947733 137.445347 
L 113.549502 139.346906 
L 113.850387 139.122204 
L 114.151271 140.115628 
L 114.452156 140.016416 
L 115.053925 141.374139 
L 115.655695 143.90033 
L 115.956579 143.017533 
L 116.859233 148.063751 
L 117.160118 147.903518 
L 117.761887 148.751833 
L 118.062772 150.596969 
L 118.363657 150.393425 
L 118.664541 149.876508 
L 119.266311 152.019318 
L 119.567195 151.983491 
L 119.86808 152.775004 
L 120.168965 155.281434 
L 120.469849 156.11597 
L 120.770734 156.109936 
L 121.071619 156.512726 
L 121.372503 157.723538 
L 121.673388 157.124584 
L 121.974272 158.320402 
L 122.275157 158.53685 
L 122.576042 158.410628 
L 122.876926 160.009184 
L 123.478696 160.547652 
L 124.080465 164.335424 
L 124.38135 163.479859 
L 124.682234 163.755539 
L 124.983119 165.293426 
L 125.284004 164.787754 
L 125.584888 165.555222 
L 125.885773 165.581279 
L 126.186658 165.954708 
L 126.487542 168.026021 
L 126.788427 166.075144 
L 127.390196 169.558945 
L 127.691081 171.097512 
L 127.991966 170.126709 
L 128.593735 171.737216 
L 128.89462 171.419741 
L 129.195504 172.794391 
L 129.496389 172.035609 
L 129.797274 172.169498 
L 130.098158 174.764743 
L 130.399043 172.652692 
L 130.699928 174.499786 
L 131.000812 175.50503 
L 131.301697 176.915402 
L 131.602582 176.686194 
L 131.903466 177.378156 
L 132.204351 177.578656 
L 132.505235 177.438628 
L 133.107005 178.867338 
L 133.407889 178.843384 
L 133.708774 180.411181 
L 134.009659 178.645313 
L 134.912313 182.962881 
L 135.213197 181.892501 
L 135.514082 182.671554 
L 135.814967 184.070693 
L 136.115851 182.405291 
L 136.416736 182.876534 
L 136.717621 183.069877 
L 137.018505 184.004043 
L 137.31939 186.187081 
L 137.620275 184.082997 
L 137.921159 184.999974 
L 138.522929 187.901762 
L 138.823813 186.956612 
L 139.425583 188.137958 
L 139.726467 187.622256 
L 140.328237 187.719626 
L 140.629121 188.464916 
L 140.930006 190.251329 
L 141.230891 188.391408 
L 141.531775 189.016497 
L 141.83266 190.122939 
L 142.133545 191.916196 
L 142.434429 190.869535 
L 142.735314 191.479212 
L 143.036199 191.702112 
L 143.337083 191.20971 
L 143.637968 191.548226 
L 143.938852 190.732381 
L 144.540622 193.500345 
L 144.841506 192.027593 
L 145.142391 192.235016 
L 145.443276 193.430259 
L 145.74416 195.143217 
L 146.045045 194.109212 
L 146.646814 194.654903 
L 146.947699 194.050999 
L 147.549468 193.41426 
L 147.850353 193.954478 
L 148.151238 195.742928 
L 148.452122 194.108324 
L 148.753007 193.984884 
L 149.053892 195.13444 
L 149.354776 196.769527 
L 149.655661 196.349732 
L 149.956546 196.174113 
L 150.25743 196.325151 
L 150.558315 195.68115 
L 150.8592 195.614107 
L 151.160084 194.367403 
L 151.761854 197.072622 
L 152.062738 195.522693 
L 152.363623 195.456917 
L 152.664508 196.216222 
L 152.965392 197.859368 
L 153.266277 197.160314 
L 153.567162 196.957868 
L 153.868046 197.017217 
L 154.168931 196.301563 
L 154.469815 195.947295 
L 154.7707 194.73182 
L 155.372469 197.61689 
L 155.673354 195.53305 
L 155.974239 195.186044 
L 156.275123 196.321403 
L 156.576008 197.920063 
L 156.876893 197.204082 
L 157.177777 197.122124 
L 157.478662 196.759222 
L 158.080431 195.390476 
L 158.381316 194.562797 
L 158.983085 196.693055 
L 159.28397 195.139638 
L 159.584855 194.886332 
L 159.885739 195.623942 
L 160.186624 197.171769 
L 160.487509 196.502572 
L 160.788393 196.348217 
L 161.390163 195.42403 
L 161.691047 194.49373 
L 161.991932 193.972776 
L 162.292817 194.779362 
L 162.593701 196.22957 
L 162.894586 194.284583 
L 163.195471 193.71388 
L 163.496355 194.590682 
L 163.79724 196.067313 
L 164.098125 195.269165 
L 165.000778 194.275715 
L 165.301663 193.646211 
L 165.602548 192.308053 
L 166.204317 195.232319 
L 166.505202 192.924287 
L 166.806086 192.634253 
L 167.407856 194.862692 
L 167.70874 194.221524 
L 168.009625 194.409251 
L 168.31051 194.021782 
L 168.912279 192.46442 
L 169.213164 191.623889 
L 169.514048 192.564168 
L 169.814933 194.020306 
L 170.115818 192.140741 
L 170.416702 191.82614 
L 170.717587 192.61043 
L 171.018472 194.107436 
L 171.319356 193.599322 
L 171.620241 193.775711 
L 171.921126 193.499914 
L 172.22201 192.718536 
L 172.522895 192.27463 
L 172.82378 191.237164 
L 173.124664 192.082149 
L 173.425549 193.878698 
L 173.726434 192.000949 
L 174.027318 191.905237 
L 174.328203 192.469854 
L 174.629088 194.230745 
L 174.929972 193.263169 
L 175.230857 193.683801 
L 175.531742 193.29637 
L 176.434395 191.188107 
L 176.73528 192.026888 
L 177.036165 193.948953 
L 177.337049 191.980965 
L 177.637934 191.281049 
L 178.239703 193.873774 
L 178.540588 193.831051 
L 178.841473 193.977687 
L 180.045011 191.667918 
L 180.345896 192.520309 
L 180.646781 194.212251 
L 180.947665 192.166393 
L 181.24855 192.320187 
L 181.549435 193.256691 
L 181.850319 195.021893 
L 182.151204 194.315263 
L 182.752973 194.405045 
L 183.655627 191.085199 
L 184.257397 192.897891 
L 184.558281 191.319423 
L 184.859166 190.795152 
L 185.160051 191.391115 
L 185.460935 192.478304 
L 185.76182 191.670125 
L 186.062705 192.229138 
L 186.664474 190.251381 
L 186.965358 189.950898 
L 187.266243 188.824905 
L 187.868012 190.758124 
L 188.168897 189.028997 
L 188.469782 188.468051 
L 189.071551 190.739198 
L 189.372436 189.895441 
L 189.67332 189.879441 
L 189.974205 189.449706 
L 190.575974 188.031772 
L 190.876859 186.652302 
L 191.177744 187.313453 
L 191.478628 188.76694 
L 191.779513 186.646347 
L 192.080398 186.517852 
L 192.682167 188.208593 
L 192.983052 187.761225 
L 193.283936 188.334501 
L 193.584821 187.284771 
L 193.885706 186.776448 
L 194.18659 185.772653 
L 194.487475 185.157478 
L 194.78836 185.856571 
L 195.089244 186.917664 
L 195.390129 185.102843 
L 195.691014 184.02925 
L 195.991898 185.718554 
L 196.292783 186.380384 
L 196.593668 185.759083 
L 196.894552 185.772079 
L 197.195437 185.159149 
L 197.496322 184.840812 
L 198.098091 183.086556 
L 198.69986 184.925918 
L 199.000745 182.558314 
L 199.301629 182.595695 
L 199.903399 184.416824 
L 200.204283 184.048411 
L 200.505168 184.349403 
L 200.806053 183.953405 
L 201.106937 182.452089 
L 201.407822 181.97075 
L 201.708707 180.895237 
L 202.009591 181.522233 
L 202.310476 183.277169 
L 202.611361 181.242857 
L 202.912245 180.643903 
L 203.514015 182.700144 
L 203.814899 182.198482 
L 204.115784 182.015223 
L 205.018438 180.135162 
L 205.319323 179.129304 
L 205.921092 180.6933 
L 206.221977 179.251216 
L 206.522861 178.84405 
L 206.823746 179.492649 
L 207.124631 180.70849 
L 207.425515 180.252724 
L 208.027285 179.96909 
L 208.328169 178.415857 
L 208.629054 177.542451 
L 209.230823 177.529716 
L 209.531708 178.783617 
L 209.832592 176.829226 
L 210.133477 176.860585 
L 210.434362 177.77512 
L 210.735246 179.162466 
L 211.036131 177.852128 
L 211.337016 178.645496 
L 211.6379 177.204705 
L 212.23967 176.380983 
L 212.540554 174.885322 
L 212.841439 175.581398 
L 213.142324 176.757481 
L 213.443208 174.546401 
L 213.744093 174.939852 
L 214.044978 175.744688 
L 214.345862 175.98953 
L 214.646747 176.002957 
L 214.947632 175.890567 
L 215.248516 175.958876 
L 215.549401 174.445909 
L 216.15117 173.392888 
L 216.452055 173.698268 
L 216.75294 174.652091 
L 217.053824 173.394481 
L 217.354709 172.774747 
L 217.655594 174.209361 
L 217.956478 174.849091 
L 218.257363 173.838635 
L 218.558248 173.878798 
L 218.859132 173.444936 
L 219.460902 172.019936 
L 219.761786 170.242874 
L 220.062671 171.422118 
L 220.363555 173.173645 
L 220.66444 170.46968 
L 220.965325 170.742055 
L 221.567094 173.031998 
L 221.867979 171.947812 
L 222.168863 172.428956 
L 222.770633 171.474558 
L 223.071517 169.316859 
L 223.372402 169.570687 
L 223.673287 169.366216 
L 223.974171 170.790133 
L 224.275056 168.535141 
L 224.575941 168.667293 
L 225.17771 170.990672 
L 225.478595 169.849854 
L 225.779479 170.300317 
L 226.381249 168.655956 
L 226.682133 168.474603 
L 226.983018 166.545877 
L 227.283903 168.207152 
L 227.584787 168.790132 
L 227.885672 166.177268 
L 228.186557 166.580149 
L 228.788326 168.530061 
L 229.089211 167.664348 
L 229.390095 167.459916 
L 229.69098 167.032584 
L 229.991865 166.972895 
L 230.593634 165.127303 
L 230.894518 165.612325 
L 231.195403 166.460758 
L 231.496288 164.066444 
L 231.797172 164.301988 
L 232.098057 165.919181 
L 232.398942 165.785815 
L 232.699826 166.180559 
L 233.000711 165.152654 
L 233.301596 166.614644 
L 233.60248 164.025655 
L 233.903365 163.967259 
L 234.20425 162.316485 
L 234.505134 162.994445 
L 234.806019 165.28491 
L 235.106904 162.265116 
L 235.407788 163.385728 
L 235.708673 162.992277 
L 236.009558 164.142812 
L 236.310442 163.962766 
L 236.611327 162.800697 
L 236.912212 162.922675 
L 237.213096 163.506439 
L 237.814866 160.409819 
L 238.416635 162.497172 
L 238.71752 160.763747 
L 239.018404 159.997795 
L 239.319289 161.96492 
L 239.620174 162.193672 
L 239.921058 161.323414 
L 240.221943 161.627201 
L 240.522828 161.383625 
L 240.823712 160.091495 
L 241.124597 159.748185 
L 241.425482 158.343194 
L 241.726366 158.774039 
L 242.027251 159.83363 
L 242.328135 158.449472 
L 242.62902 158.101917 
L 242.929905 159.565604 
L 243.230789 159.780119 
L 243.531674 159.445652 
L 244.133443 158.449616 
L 244.434328 157.257794 
L 244.735213 157.112607 
L 245.036097 157.348947 
L 245.336982 157.08433 
L 245.637867 157.640901 
L 245.938751 155.6694 
L 246.239636 155.761075 
L 246.540521 156.37885 
L 246.841405 158.671 
L 247.14229 157.06146 
L 247.443175 157.251329 
L 247.744059 156.152045 
L 248.345829 155.144411 
L 248.646713 154.168658 
L 249.248483 156.480426 
L 249.549367 153.540382 
L 249.850252 153.894206 
L 250.151137 155.438598 
L 250.452021 154.851321 
L 250.752906 155.746329 
L 251.053791 154.314328 
L 251.354675 155.561032 
L 252.257329 152.000863 
L 252.558214 151.595473 
L 252.859098 153.985712 
L 253.159983 150.53677 
L 253.460868 150.401353 
L 254.062637 154.231443 
L 254.363522 152.457281 
L 254.664406 153.047471 
L 254.965291 153.025633 
L 255.266176 150.941768 
L 255.56706 150.951799 
L 255.867945 149.472751 
L 256.16883 151.018462 
L 256.469714 151.120025 
L 256.770599 149.116211 
L 257.071484 148.275026 
L 257.372368 149.867182 
L 257.673253 150.453415 
L 258.575907 150.097436 
L 258.876792 149.658467 
L 259.177676 148.064064 
L 259.478561 147.588955 
L 259.779446 147.547499 
L 260.08033 150.163028 
L 260.381215 146.36678 
L 260.6821 147.160187 
L 260.982984 149.000202 
L 261.283869 148.713277 
L 261.584754 146.672278 
L 261.885638 146.506716 
L 262.186523 147.145924 
L 262.487408 146.637301 
L 262.788292 144.784224 
L 263.089177 144.495209 
L 263.390062 146.522938 
L 263.690946 146.358343 
L 263.991831 144.436513 
L 264.292715 144.046666 
L 264.894485 147.619466 
L 265.195369 144.961358 
L 265.496254 145.258288 
L 265.797139 144.944274 
L 266.098023 145.972049 
L 266.398908 142.192884 
L 266.699793 142.885408 
L 267.000677 141.89214 
L 267.301562 143.662671 
L 267.602447 141.665165 
L 267.903331 141.865731 
L 268.204216 142.858136 
L 268.505101 144.617722 
L 268.805985 142.055012 
L 269.10687 141.942478 
L 269.407755 143.189573 
L 269.708639 142.005432 
L 270.009524 139.800491 
L 270.310409 140.732763 
L 270.611293 140.802091 
L 270.912178 142.019198 
L 271.213063 138.9353 
L 271.513947 140.908852 
L 271.814832 141.864373 
L 272.115717 142.140118 
L 273.018371 140.389126 
L 273.62014 137.128904 
L 273.921025 137.72804 
L 274.221909 137.246349 
L 274.522794 142.123556 
L 274.823678 136.450617 
L 275.124563 135.869295 
L 275.425448 137.213278 
L 275.726332 140.365303 
L 276.027217 137.259958 
L 276.328102 137.620235 
L 276.628986 138.270074 
L 276.929871 135.773375 
L 277.230756 137.075066 
L 277.53164 134.424116 
L 277.832525 136.364597 
L 278.13341 136.80559 
L 278.434294 133.742067 
L 278.735179 134.911633 
L 279.036064 134.51105 
L 279.336948 137.409377 
L 279.938718 134.748526 
L 280.239602 135.755743 
L 280.540487 133.983253 
L 280.841372 133.478234 
L 281.142256 134.132332 
L 281.443141 132.165049 
L 281.744026 135.27763 
L 282.04491 130.857768 
L 282.345795 132.740833 
L 282.64668 132.452732 
L 282.947564 135.363963 
L 283.248449 132.740781 
L 283.549334 133.151394 
L 283.850218 133.091418 
L 284.151103 132.668501 
L 284.451988 130.937519 
L 285.053757 129.807398 
L 285.354642 132.918568 
L 285.655526 128.844406 
L 285.956411 129.249064 
L 286.55818 131.97104 
L 286.859065 131.67061 
L 287.159949 130.498067 
L 287.460834 130.935037 
L 288.062603 128.397405 
L 288.363488 127.450609 
L 288.965257 130.286007 
L 289.266142 126.960244 
L 289.567027 126.684395 
L 289.867911 127.904297 
L 290.168796 129.644422 
L 290.469681 127.847377 
L 290.770565 128.608733 
L 291.07145 128.628664 
L 291.372335 127.638818 
L 291.673219 127.211748 
L 291.974104 125.088281 
L 292.274989 126.042522 
L 292.575873 128.357568 
L 292.876758 122.783475 
L 293.478527 126.497778 
L 293.779412 127.563247 
L 294.080297 125.037709 
L 294.381181 126.3784 
L 294.682066 125.107324 
L 294.982951 124.883092 
L 295.283835 123.452436 
L 295.58472 123.993556 
L 295.885605 121.984792 
L 296.186489 125.731016 
L 296.487374 122.377015 
L 296.788258 123.271384 
L 297.089143 124.972038 
L 297.390028 125.531913 
L 297.690912 123.86177 
L 297.991797 123.273631 
L 298.292682 123.527564 
L 298.593566 122.018672 
L 299.195336 120.837561 
L 299.49622 121.616026 
L 299.797105 121.771296 
L 300.09799 119.907143 
L 300.398874 119.984465 
L 301.000644 123.628839 
L 301.301528 120.334188 
L 301.602413 119.379607 
L 301.903298 121.274688 
L 302.204182 121.597166 
L 302.505067 118.914869 
L 302.805952 118.829397 
L 303.106836 117.102438 
L 303.407721 119.06225 
L 303.708606 118.884463 
L 304.00949 117.03439 
L 304.310375 119.308059 
L 304.61126 119.097018 
L 304.912144 117.306321 
L 305.213029 117.056385 
L 305.513914 119.155297 
L 305.814798 116.524539 
L 306.115683 117.634885 
L 306.416568 113.828606 
L 306.717452 116.890274 
L 307.018337 117.699981 
L 307.319222 113.903916 
L 307.620106 113.886257 
L 307.920991 116.908847 
L 308.221875 117.475175 
L 308.52276 116.391708 
L 308.823645 116.566203 
L 309.124529 114.096122 
L 309.425414 116.942806 
L 309.726299 113.674982 
L 310.027183 112.446302 
L 310.328068 113.150502 
L 310.628953 115.588688 
L 310.929837 109.768603 
L 311.230722 111.552821 
L 311.531607 112.569964 
L 311.832491 116.146395 
L 312.133376 114.199122 
L 312.434261 113.80473 
L 312.735145 113.065501 
L 313.03603 111.846225 
L 313.336915 112.014033 
L 313.637799 109.121689 
L 313.938684 111.891599 
L 314.239569 112.234817 
L 314.540453 106.754111 
L 314.841338 111.777759 
L 315.142223 110.766258 
L 315.443107 113.120122 
L 315.743992 110.497253 
L 316.044877 110.269755 
L 316.345761 109.736159 
L 316.646646 110.641238 
L 316.947531 106.801157 
L 317.248415 110.24413 
L 317.5493 110.003989 
L 317.850185 108.822825 
L 318.151069 107.14414 
L 318.451954 106.84162 
L 318.752838 108.900042 
L 319.053723 109.163902 
L 319.354608 108.316788 
L 319.655492 107.901211 
L 319.956377 108.208773 
L 320.257262 106.959169 
L 320.558146 108.154752 
L 321.159916 105.206689 
L 321.4608 106.852591 
L 321.761685 104.465997 
L 322.06257 105.375673 
L 322.363454 106.907709 
L 322.664339 107.390341 
L 322.965224 107.346717 
L 323.266108 105.696348 
L 323.566993 105.352085 
L 323.867878 102.162418 
L 324.168762 105.617564 
L 324.469647 102.695048 
L 324.770532 102.287517 
L 325.071416 104.507452 
L 325.372301 101.173226 
L 325.673186 103.056056 
L 325.97407 102.460367 
L 326.274955 103.046416 
L 326.57584 103.35996 
L 326.876724 101.616257 
L 327.177609 102.102912 
L 327.478494 103.635157 
L 327.779378 101.497009 
L 328.080263 100.736046 
L 328.381148 101.653821 
L 328.682032 101.905455 
L 328.982917 97.454639 
L 329.283801 100.780375 
L 329.885571 103.662951 
L 330.186455 98.733473 
L 330.48734 100.455521 
L 330.788225 96.796466 
L 331.089109 100.027118 
L 331.991763 96.228702 
L 332.292648 101.00944 
L 332.593533 95.34008 
L 332.894417 96.108853 
L 333.195302 98.669134 
L 333.496187 102.191649 
L 333.797071 98.128145 
L 334.097956 95.834571 
L 334.398841 96.859133 
L 334.699725 96.378617 
L 335.00061 95.655426 
L 335.301495 96.219167 
L 335.602379 95.414606 
L 335.903264 99.35147 
L 336.204149 92.168568 
L 336.805918 98.250475 
L 337.106803 97.543715 
L 337.708572 95.180944 
L 338.009457 95.565069 
L 338.310341 94.797654 
L 338.611226 95.271535 
L 338.912111 92.542663 
L 339.212995 91.417453 
L 339.51388 95.637637 
L 339.814765 88.621942 
L 340.115649 92.7967 
L 340.416534 93.54408 
L 340.717418 95.653153 
L 341.018303 92.263443 
L 341.319188 92.809578 
L 341.620072 94.055446 
L 341.920957 92.095844 
L 342.221842 93.831737 
L 342.522726 90.743607 
L 342.823611 89.007662 
L 343.124496 90.040373 
L 343.42538 87.301731 
L 343.726265 89.877998 
L 344.02715 91.22313 
L 344.328034 93.831188 
L 344.628919 92.533572 
L 344.929804 88.258662 
L 345.230688 89.887245 
L 345.531573 88.421063 
L 345.832458 88.905576 
L 346.133342 88.005617 
L 346.434227 87.562795 
L 346.735112 88.0995 
L 347.035996 84.172511 
L 347.336881 85.78051 
L 347.637766 89.884294 
L 347.93865 90.504459 
L 348.239535 90.394824 
L 348.54042 87.249878 
L 348.841304 87.498979 
L 349.142189 89.18362 
L 349.443074 86.499338 
L 349.743958 84.868822 
L 350.044843 86.702725 
L 350.345728 87.466509 
L 350.646612 81.939384 
L 351.248381 86.867634 
L 351.549266 88.674631 
L 351.850151 85.705931 
L 352.151035 86.435626 
L 352.45192 83.611878 
L 352.752805 84.868404 
L 353.354574 83.150196 
L 353.655459 83.600959 
L 353.956343 84.793224 
L 354.257228 82.452735 
L 354.858997 85.186571 
L 355.159882 85.602879 
L 355.460767 83.125693 
L 355.761651 83.840812 
L 356.062536 81.325279 
L 356.363421 81.937868 
L 356.664305 83.171224 
L 356.96519 82.233127 
L 357.266075 79.627629 
L 357.566959 82.428207 
L 357.867844 80.054229 
L 358.168729 82.642539 
L 358.469613 80.83528 
L 358.770498 85.298766 
L 359.071383 80.149444 
L 359.372267 80.041508 
L 359.974037 81.384602 
L 360.274921 78.671899 
L 360.575806 79.529566 
L 360.876691 78.289602 
L 361.177575 79.230651 
L 361.47846 75.667177 
L 361.779345 76.268038 
L 362.381114 82.905275 
L 362.982883 77.180718 
L 363.283768 79.31419 
L 363.584652 79.750716 
L 363.885537 75.406818 
L 364.186422 77.976659 
L 364.487306 75.674648 
L 364.788191 77.308455 
L 365.38996 72.526959 
L 365.690845 78.880589 
L 365.99173 76.237945 
L 366.292614 77.922194 
L 366.593499 76.625858 
L 366.894384 74.65868 
L 367.195268 74.212097 
L 367.496153 75.773207 
L 368.097922 74.667405 
L 368.398807 78.388709 
L 368.699692 68.877883 
L 369.000576 72.703205 
L 369.301461 74.637051 
L 369.602346 78.884742 
L 369.90323 72.913096 
L 370.204115 73.983319 
L 370.505 73.464325 
L 370.805884 69.952939 
L 371.106769 72.467375 
L 371.407654 68.936188 
L 371.708538 72.956459 
L 372.009423 73.52391 
L 372.310308 67.122608 
L 372.611192 70.631931 
L 372.912077 70.340774 
L 373.212961 75.419147 
L 373.814731 72.218927 
L 374.115615 71.739717 
L 374.4165 69.818305 
L 374.717385 68.61802 
L 375.018269 66.80141 
L 375.620039 70.791276 
L 375.920923 66.897069 
L 376.221808 67.450832 
L 376.522693 72.331984 
L 376.823577 71.725193 
L 377.124462 67.806929 
L 377.425347 68.681445 
L 377.726231 68.030612 
L 378.027116 66.480239 
L 378.328001 70.567514 
L 378.628885 66.717192 
L 378.92977 66.37144 
L 379.230655 69.703577 
L 379.531539 61.333347 
L 379.832424 64.955543 
L 380.133309 64.608798 
L 380.434193 69.350719 
L 380.735078 67.188357 
L 381.035963 67.939942 
L 381.336847 68.380884 
L 381.637732 62.900438 
L 381.938617 66.460647 
L 382.239501 66.850467 
L 382.540386 63.81338 
L 382.841271 64.281958 
L 383.142155 62.082686 
L 383.743925 67.612763 
L 384.044809 66.770142 
L 384.345694 62.843466 
L 384.646578 64.460451 
L 384.947463 62.973946 
L 385.248348 65.85033 
L 385.549232 64.40118 
L 385.850117 60.897891 
L 386.151002 63.383044 
L 386.451886 63.248698 
L 386.752771 58.061369 
L 387.053656 60.734837 
L 387.35454 65.264176 
L 387.655425 66.279569 
L 387.95631 59.332132 
L 388.257194 62.242344 
L 388.558079 60.30855 
L 388.858964 61.457871 
L 389.159848 58.062727 
L 389.460733 61.00204 
L 389.761618 59.065582 
L 390.062502 60.147324 
L 390.363387 56.459352 
L 390.664272 61.068834 
L 390.965156 62.699011 
L 391.266041 63.439599 
L 391.566926 60.639883 
L 391.86781 59.348588 
L 392.168695 63.478129 
L 392.46958 63.277224 
L 392.770464 58.576837 
L 393.071349 59.386884 
L 393.372234 56.684603 
L 393.673118 61.898969 
L 393.974003 53.568 
L 394.876657 61.795447 
L 395.177541 56.899092 
L 395.478426 58.824683 
L 396.080195 58.656144 
L 396.38108 54.49429 
L 396.681965 59.547952 
L 396.982849 55.265833 
L 397.283734 57.269033 
L 397.885503 53.974721 
L 398.186388 56.833081 
L 398.487273 56.484926 
L 398.487273 56.484926 
" clip-path="url(#pc03e11db5f)" style="fill: none; stroke: #6495ed; stroke-width: 2; stroke-linecap: square"/>
   </g>
   <g id="line2d_26">
    <path d="M 73.832727 214.296202 
L 74.735381 224.10943 
L 76.239805 236.443436 
L 78.646882 251.191491 
L 78.947766 252.558514 
L 79.549536 256.411294 
L 79.85042 257.222429 
L 80.45219 259.896262 
L 81.354844 264.243014 
L 81.655728 264.744267 
L 82.257498 266.719055 
L 82.558382 267.342411 
L 82.859267 269.563966 
L 83.160152 270.27993 
L 83.461036 270.457605 
L 84.96546 275.315853 
L 85.266344 275.449073 
L 86.168998 276.988901 
L 86.469883 278.809984 
L 86.770768 279.156713 
L 87.071652 278.599569 
L 87.974306 281.01807 
L 88.275191 281.130616 
L 88.576075 282.15904 
L 88.87696 281.577106 
L 89.177845 281.892974 
L 89.478729 282.002601 
L 89.779614 282.337893 
L 90.080499 284.019369 
L 90.381383 284.232848 
L 90.682268 283.223598 
L 91.284037 284.052375 
L 91.584922 284.540751 
L 91.885807 284.700653 
L 92.186691 285.654952 
L 92.487576 284.83735 
L 92.788461 284.581423 
L 93.39023 284.667964 
L 93.691115 286.177303 
L 93.991999 285.892975 
L 94.292884 284.874358 
L 94.593769 285.460634 
L 94.894653 285.373785 
L 95.195538 285.869981 
L 95.496423 285.635222 
L 95.797307 286.308474 
L 96.098192 285.319867 
L 96.699961 284.566732 
L 97.000846 284.712513 
L 97.301731 285.878393 
L 97.602615 285.495578 
L 97.9035 284.432879 
L 98.204385 284.411888 
L 98.505269 284.262812 
L 98.806154 284.661444 
L 99.107039 284.183147 
L 99.407923 284.804052 
L 99.708808 283.532199 
L 100.009692 283.458054 
L 100.310577 282.816845 
L 100.611462 282.525023 
L 100.912346 283.967759 
L 101.213231 283.101004 
L 101.514116 281.843985 
L 101.815 281.584168 
L 102.115885 281.484766 
L 102.41677 281.772422 
L 102.717654 280.909983 
L 103.018539 281.653219 
L 103.319424 279.851455 
L 103.620308 279.856486 
L 103.921193 279.115234 
L 104.222078 279.084892 
L 104.522962 280.399482 
L 105.124732 278.256256 
L 105.425616 277.709053 
L 105.726501 276.8491 
L 106.027386 277.091206 
L 106.32827 276.684773 
L 106.629155 277.426855 
L 106.93004 275.194553 
L 107.230924 275.059331 
L 107.832694 273.749137 
L 108.133578 275.560969 
L 108.434463 273.838111 
L 109.337117 271.229789 
L 109.638002 271.866906 
L 109.938886 271.120377 
L 110.239771 271.724131 
L 110.540655 269.495118 
L 110.84154 269.243519 
L 111.142425 268.271759 
L 111.443309 268.067591 
L 111.744194 270.042602 
L 112.045079 267.690171 
L 112.646848 266.380949 
L 112.947733 264.815853 
L 113.248617 265.196818 
L 113.549502 264.686312 
L 113.850387 265.42662 
L 114.151271 262.9658 
L 114.452156 262.992465 
L 114.753041 262.129945 
L 115.053925 262.05128 
L 115.35481 263.172441 
L 115.655695 261.022179 
L 115.956579 260.734088 
L 116.257464 259.742289 
L 116.558349 258.23482 
L 116.859233 258.354903 
L 117.160118 258.264271 
L 117.461003 258.783514 
L 117.761887 256.338186 
L 118.062772 255.794221 
L 118.363657 255.003221 
L 118.664541 255.395768 
L 118.965426 256.608872 
L 119.266311 254.42723 
L 119.567195 254.0242 
L 119.86808 253.200298 
L 120.168965 251.220082 
L 120.469849 251.707833 
L 120.770734 251.676287 
L 121.071619 252.195359 
L 121.372503 249.381218 
L 121.673388 249.808953 
L 121.974272 248.499803 
L 122.275157 248.621315 
L 122.576042 250.315374 
L 122.876926 247.797955 
L 123.177811 247.405043 
L 123.478696 246.681786 
L 123.77958 244.930579 
L 124.080465 245.019321 
L 124.38135 245.292171 
L 124.682234 245.913429 
L 124.983119 243.042027 
L 125.284004 243.521656 
L 125.584888 242.284939 
L 125.885773 242.545831 
L 126.186658 243.886656 
L 126.487542 241.121448 
L 126.788427 241.850223 
L 127.390196 238.630383 
L 127.691081 238.896996 
L 128.29285 239.729056 
L 128.593735 237.17689 
L 128.89462 237.684015 
L 129.195504 236.02739 
L 129.496389 236.733945 
L 129.797274 238.173044 
L 130.098158 235.135008 
L 130.399043 236.064704 
L 131.000812 233.111343 
L 131.301697 233.44356 
L 131.602582 233.544327 
L 131.903466 234.011153 
L 132.204351 231.824125 
L 132.505235 232.310528 
L 132.80612 230.956106 
L 133.107005 230.998933 
L 133.407889 232.23902 
L 133.708774 229.729294 
L 134.009659 230.608983 
L 134.611428 227.706017 
L 134.912313 227.981083 
L 135.514082 228.903643 
L 135.814967 226.172055 
L 136.115851 227.391329 
L 136.416736 226.194138 
L 137.018505 227.296888 
L 137.31939 224.594594 
L 137.620275 225.627822 
L 137.921159 224.685736 
L 138.222044 223.063267 
L 138.823813 223.671419 
L 139.124698 224.333057 
L 139.425583 222.223751 
L 139.726467 222.767608 
L 140.027352 221.802664 
L 140.328237 222.20257 
L 140.629121 222.803628 
L 140.930006 220.524245 
L 141.230891 221.431561 
L 141.531775 220.66837 
L 141.83266 219.21344 
L 142.133545 219.333035 
L 142.434429 219.717785 
L 142.735314 220.384063 
L 143.036199 218.7697 
L 143.337083 219.310446 
L 143.637968 218.085133 
L 143.938852 219.004084 
L 144.239737 219.251403 
L 144.540622 217.238068 
L 144.841506 218.055616 
L 145.142391 217.518931 
L 145.443276 216.018389 
L 145.74416 216.057891 
L 146.045045 216.3169 
L 146.34593 217.279612 
L 146.646814 215.783202 
L 146.947699 216.350919 
L 147.248584 215.560536 
L 147.850353 216.759566 
L 148.151238 214.901321 
L 148.452122 215.853731 
L 148.753007 215.57259 
L 149.053892 214.288878 
L 149.354776 214.387828 
L 149.655661 214.198402 
L 149.956546 215.450393 
L 150.25743 214.249411 
L 150.558315 214.769482 
L 150.8592 213.997211 
L 151.160084 215.088848 
L 151.460969 214.903411 
L 151.761854 213.501486 
L 152.062738 214.421065 
L 152.363623 214.242762 
L 152.664508 213.177227 
L 152.965392 213.213287 
L 153.266277 213.132804 
L 153.567162 214.49884 
L 153.868046 213.567134 
L 154.168931 214.050136 
L 154.469815 213.58371 
L 154.7707 214.675402 
L 155.071585 214.41883 
L 155.372469 213.035862 
L 155.673354 214.306447 
L 155.974239 214.396208 
L 156.275123 213.225689 
L 156.576008 213.284787 
L 156.876893 213.148316 
L 157.177777 214.399004 
L 157.478662 213.864686 
L 157.779547 214.25664 
L 158.080431 214.087933 
L 158.381316 214.899087 
L 158.682201 214.863794 
L 158.983085 213.93794 
L 159.28397 214.811758 
L 159.584855 214.904718 
L 159.885739 214.007864 
L 160.186624 214.074897 
L 160.487509 213.928743 
L 160.788393 215.251633 
L 161.089278 214.881537 
L 161.390163 215.203374 
L 161.691047 215.31597 
L 161.991932 215.877472 
L 162.292817 215.755293 
L 162.593701 214.763783 
L 162.894586 215.833836 
L 163.195471 216.137223 
L 163.496355 215.127166 
L 163.79724 215.231434 
L 164.098125 215.141387 
L 164.399009 216.629811 
L 164.699894 216.287582 
L 165.000778 216.536653 
L 165.301663 216.443174 
L 165.602548 217.419526 
L 165.903432 217.00225 
L 166.204317 215.997953 
L 166.505202 217.288187 
L 166.806086 217.476579 
L 167.106971 216.344611 
L 167.407856 216.697049 
L 167.70874 216.46088 
L 168.009625 217.705847 
L 168.31051 217.369543 
L 168.611394 217.820223 
L 168.912279 217.935235 
L 169.213164 218.50195 
L 169.514048 218.206572 
L 169.814933 217.350429 
L 170.115818 218.481983 
L 170.416702 218.619176 
L 170.717587 217.748383 
L 171.018472 217.856318 
L 171.319356 217.508204 
L 171.620241 218.786378 
L 171.921126 218.554519 
L 172.22201 218.852006 
L 172.522895 218.935733 
L 172.82378 219.511955 
L 173.124664 219.301621 
L 173.425549 218.241345 
L 173.726434 219.279436 
L 174.027318 219.310211 
L 174.328203 218.518244 
L 174.929972 218.29709 
L 175.230857 219.41057 
L 175.531742 219.16388 
L 176.133511 219.50633 
L 176.434395 219.955128 
L 176.73528 219.707202 
L 177.036165 218.588171 
L 177.337049 219.677682 
L 177.637934 219.979728 
L 177.938819 218.850482 
L 178.239703 218.949605 
L 178.540588 218.414763 
L 178.841473 219.610073 
L 179.142357 219.401292 
L 179.744127 219.657296 
L 180.045011 220.017069 
L 180.345896 219.625186 
L 180.646781 218.731432 
L 180.947665 219.859752 
L 181.24855 219.663956 
L 181.549435 218.718026 
L 182.151204 218.276452 
L 182.452089 219.531315 
L 182.752973 219.040515 
L 183.655627 220.560189 
L 184.257397 219.6719 
L 184.558281 220.729285 
L 184.859166 220.766358 
L 185.160051 220.038563 
L 185.460935 220.235328 
L 185.76182 220.24812 
L 186.062705 221.207207 
L 186.363589 221.265987 
L 186.664474 221.741715 
L 186.965358 221.974426 
L 187.266243 222.456757 
L 187.567128 222.214929 
L 187.868012 221.676494 
L 188.168897 222.737956 
L 188.469782 222.78871 
L 188.770666 221.931792 
L 189.372436 222.038126 
L 189.67332 223.246004 
L 189.974205 223.044825 
L 190.575974 223.71815 
L 190.876859 224.328001 
L 191.177744 224.16065 
L 191.478628 223.472941 
L 191.779513 224.67031 
L 192.080398 224.473397 
L 192.381282 223.71916 
L 192.682167 223.997337 
L 192.983052 223.876873 
L 193.283936 224.791342 
L 193.885706 225.120189 
L 194.18659 225.702013 
L 194.487475 225.843682 
L 194.78836 225.696411 
L 195.089244 225.169863 
L 195.390129 226.242386 
L 195.691014 226.519878 
L 195.991898 225.344255 
L 196.292783 225.751308 
L 196.593668 225.647665 
L 196.894552 226.79228 
L 197.496322 226.899049 
L 197.797206 227.484169 
L 198.098091 227.687282 
L 198.69986 226.973135 
L 199.000745 228.290701 
L 199.301629 228.010164 
L 199.602514 227.219175 
L 199.903399 227.478224 
L 200.204283 227.310976 
L 200.505168 228.273628 
L 200.806053 228.081733 
L 201.106937 228.719895 
L 201.708707 229.440562 
L 202.009591 229.440166 
L 202.310476 228.578568 
L 202.611361 229.66712 
L 202.912245 229.615249 
L 203.21313 228.801369 
L 203.514015 229.060521 
L 203.814899 228.98134 
L 204.115784 230.151693 
L 204.416669 230.089584 
L 204.717553 230.30513 
L 205.319323 230.980134 
L 205.620207 230.895672 
L 205.921092 230.510174 
L 206.221977 231.371114 
L 206.522861 231.167847 
L 206.823746 230.556642 
L 207.124631 230.757936 
L 207.425515 230.622789 
L 207.7264 231.774391 
L 208.027285 231.467771 
L 208.629054 232.717024 
L 208.929938 232.519947 
L 209.230823 232.747142 
L 209.531708 232.181461 
L 209.832592 233.207673 
L 210.133477 232.85878 
L 210.434362 232.136095 
L 210.735246 232.235475 
L 211.036131 232.486782 
L 211.337016 233.140836 
L 212.841439 234.329798 
L 213.142324 233.717221 
L 213.443208 234.9509 
L 214.044978 233.701881 
L 214.345862 234.272741 
L 214.646747 234.062703 
L 214.947632 235.147814 
L 215.248516 234.669962 
L 215.850286 235.756109 
L 216.15117 235.711633 
L 216.452055 235.846707 
L 216.75294 235.441891 
L 217.053824 236.156049 
L 217.354709 235.954698 
L 217.655594 235.093557 
L 218.257363 235.697954 
L 218.558248 236.672527 
L 218.859132 236.497034 
L 219.160017 236.790358 
L 219.761786 237.716938 
L 220.062671 237.569941 
L 220.363555 236.806643 
L 220.66444 238.130426 
L 220.965325 237.605498 
L 221.266209 236.71227 
L 221.867979 237.242916 
L 222.168863 238.013176 
L 222.469748 237.738465 
L 222.770633 237.870966 
L 223.071517 238.984488 
L 223.372402 238.636192 
L 223.673287 239.063988 
L 223.974171 238.436236 
L 224.275056 239.565782 
L 224.876825 238.375097 
L 225.478595 238.754688 
L 225.779479 239.569934 
L 226.080364 239.455917 
L 226.983018 240.587614 
L 227.584787 239.991244 
L 227.885672 241.339032 
L 228.487441 239.915281 
L 229.089211 240.372468 
L 229.390095 241.434094 
L 229.69098 241.236118 
L 229.991865 241.216849 
L 230.292749 241.857345 
L 230.593634 241.827289 
L 230.894518 241.993086 
L 231.195403 241.631512 
L 231.496288 242.796515 
L 231.797172 242.195381 
L 232.098057 241.213109 
L 232.398942 242.025156 
L 232.699826 241.659728 
L 233.000711 243.008798 
L 233.301596 241.950045 
L 233.60248 242.885539 
L 233.903365 243.151858 
L 234.20425 243.570369 
L 234.505134 243.701889 
L 234.806019 242.716873 
L 235.106904 244.069697 
L 235.407788 243.055092 
L 235.708673 243.039999 
L 236.009558 243.341473 
L 236.310442 243.235008 
L 236.611327 244.589286 
L 237.213096 243.852175 
L 237.513981 244.638028 
L 237.814866 244.921769 
L 238.11575 245.033769 
L 238.416635 244.483715 
L 238.71752 245.349705 
L 239.018404 245.032191 
L 239.319289 244.048761 
L 239.620174 244.643096 
L 239.921058 244.893565 
L 240.221943 245.673226 
L 240.522828 245.29396 
L 240.823712 245.817141 
L 241.726366 246.595659 
L 242.027251 246.141516 
L 242.328135 246.889358 
L 242.62902 246.442398 
L 242.929905 245.63368 
L 243.230789 246.273833 
L 243.531674 246.243277 
L 243.832559 247.343062 
L 244.133443 247.160505 
L 244.434328 247.67936 
L 244.735213 247.913767 
L 245.036097 247.3813 
L 245.336982 247.935323 
L 245.637867 247.63784 
L 245.938751 248.647981 
L 246.239636 247.994775 
L 246.841405 247.42708 
L 247.14229 247.883313 
L 247.443175 248.580218 
L 247.744059 248.626188 
L 248.345829 249.249662 
L 248.646713 249.166316 
L 248.947598 249.198803 
L 249.248483 248.66688 
L 249.549367 250.015217 
L 250.151137 248.419662 
L 250.452021 249.340661 
L 250.752906 248.930193 
L 251.053791 250.274491 
L 251.354675 249.335555 
L 251.65556 249.753608 
L 251.956445 250.491381 
L 252.257329 250.568991 
L 252.558214 251.185614 
L 252.859098 250.255435 
L 253.159983 251.809967 
L 253.460868 251.222325 
L 253.761752 250.366832 
L 254.062637 250.323778 
L 254.664406 251.406617 
L 254.965291 250.820315 
L 255.266176 251.682568 
L 255.867945 252.037375 
L 256.469714 251.877486 
L 256.770599 252.827309 
L 257.071484 252.514 
L 257.372368 251.758535 
L 257.673253 252.295159 
L 257.974138 252.201649 
L 258.275022 253.028553 
L 258.575907 252.743585 
L 258.876792 252.799935 
L 259.177676 253.574937 
L 259.478561 253.241831 
L 259.779446 253.841786 
L 260.08033 252.760798 
L 260.381215 254.358953 
L 260.982984 252.488029 
L 261.885638 255.024531 
L 262.186523 254.38081 
L 262.487408 254.521624 
L 262.788292 255.456463 
L 263.390062 254.851192 
L 263.690946 254.881962 
L 263.991831 255.684816 
L 264.292715 255.208816 
L 264.5936 254.149287 
L 264.894485 254.250695 
L 265.496254 255.964358 
L 266.098023 255.213319 
L 266.398908 256.805683 
L 266.699793 256.141529 
L 267.000677 257.101188 
L 267.301562 256.415271 
L 267.602447 257.276282 
L 268.204216 256.004529 
L 268.505101 255.950588 
L 269.10687 257.611805 
L 269.407755 256.833902 
L 269.708639 257.230393 
L 270.009524 258.236943 
L 270.310409 257.387034 
L 270.611293 257.941813 
L 270.912178 257.323792 
L 271.213063 258.731349 
L 271.513947 257.378726 
L 271.814832 256.713757 
L 272.115717 257.2817 
L 272.416601 257.388856 
L 272.717486 258.355342 
L 273.018371 258.266543 
L 273.319255 258.816967 
L 273.62014 259.627469 
L 273.921025 258.954669 
L 274.221909 259.743587 
L 274.522794 257.82607 
L 274.823678 259.974257 
L 275.124563 259.642133 
L 275.726332 258.469521 
L 276.328102 260.317724 
L 276.628986 259.443986 
L 276.929871 260.449888 
L 277.230756 260.15447 
L 277.53164 260.762182 
L 278.13341 260.499004 
L 278.434294 261.610428 
L 278.735179 260.448526 
L 279.036064 260.4071 
L 279.336948 260.088373 
L 279.637833 260.532504 
L 279.938718 261.711257 
L 280.239602 260.884277 
L 280.540487 261.666757 
L 280.841372 261.886359 
L 281.142256 261.204265 
L 281.443141 262.427453 
L 281.744026 261.347686 
L 282.04491 263.163446 
L 282.345795 261.676528 
L 282.64668 261.641809 
L 282.947564 261.195055 
L 283.549334 262.788925 
L 283.850218 262.29458 
L 284.151103 262.47311 
L 284.451988 263.207109 
L 284.752872 262.979975 
L 285.053757 263.873121 
L 285.354642 262.650676 
L 285.655526 264.149 
L 286.257295 262.686121 
L 286.55818 262.995903 
L 286.859065 263.090962 
L 287.159949 264.120809 
L 287.460834 263.389409 
L 288.062603 264.565073 
L 288.664373 264.465856 
L 288.965257 263.86815 
L 289.266142 265.244374 
L 289.867911 264.065408 
L 290.168796 264.011329 
L 290.469681 264.764156 
L 290.770565 265.132713 
L 291.07145 264.75252 
L 292.274989 266.013986 
L 292.575873 264.876788 
L 292.876758 267.127608 
L 293.177643 265.738458 
L 293.478527 265.006004 
L 293.779412 265.142905 
L 294.080297 266.186122 
L 294.682066 266.380057 
L 294.982951 266.405863 
L 295.283835 266.991155 
L 295.58472 266.551585 
L 295.885605 267.746086 
L 296.186489 266.126573 
L 296.487374 267.585313 
L 297.089143 265.700768 
L 297.390028 266.092238 
L 297.991797 267.589374 
L 298.292682 267.111404 
L 298.593566 267.825609 
L 298.894451 268.110628 
L 299.195336 267.779301 
L 299.49622 268.190898 
L 299.797105 267.926138 
L 300.09799 268.910527 
L 300.699759 267.258327 
L 301.000644 267.279186 
L 301.602413 269.530911 
L 301.903298 268.441374 
L 302.204182 268.312729 
L 302.505067 269.065013 
L 302.805952 268.858555 
L 303.106836 270.246987 
L 303.407721 269.498331 
L 303.708606 269.538443 
L 304.00949 269.307413 
L 304.310375 268.629037 
L 305.213029 270.693279 
L 305.513914 269.46653 
L 305.814798 270.505603 
L 306.115683 270.079513 
L 306.416568 270.954487 
L 307.018337 270.353355 
L 307.319222 271.489148 
L 307.620106 270.981629 
L 307.920991 269.815025 
L 308.221875 270.14774 
L 308.823645 271.16422 
L 309.124529 271.429182 
L 309.425414 270.654547 
L 309.726299 271.555942 
L 310.027183 271.757527 
L 310.328068 272.182778 
L 310.628953 271.019204 
L 310.929837 273.322415 
L 311.230722 271.945335 
L 311.531607 271.794004 
L 311.832491 270.868334 
L 312.434261 272.433336 
L 312.735145 272.067853 
L 313.03603 272.815237 
L 313.336915 272.751419 
L 313.637799 273.219075 
L 313.938684 272.820215 
L 314.239569 272.761763 
L 314.540453 274.90145 
L 314.841338 272.332506 
L 315.443107 272.387595 
L 316.044877 273.890522 
L 316.345761 273.398299 
L 316.646646 273.56813 
L 316.947531 274.696688 
L 317.248415 273.220455 
L 317.5493 273.837527 
L 317.850185 274.06556 
L 318.151069 275.018973 
L 318.752838 273.45542 
L 319.655492 274.908787 
L 319.956377 274.307947 
L 320.257262 274.918231 
L 320.558146 274.59409 
L 320.859031 274.730205 
L 321.159916 275.511305 
L 321.4608 275.1554 
L 321.761685 276.18233 
L 322.06257 274.929657 
L 322.363454 274.36223 
L 322.664339 274.790291 
L 322.965224 274.80802 
L 323.266108 275.855347 
L 323.566993 275.584449 
L 323.867878 276.949035 
L 324.168762 275.910781 
L 324.469647 276.108794 
L 324.770532 277.002194 
L 325.071416 276.055502 
L 325.372301 277.536821 
L 325.673186 276.199682 
L 325.97407 276.007611 
L 326.57584 276.62953 
L 326.876724 277.575249 
L 327.478494 276.551975 
L 327.779378 277.283063 
L 328.080263 277.029716 
L 328.381148 277.525204 
L 328.682032 277.161645 
L 328.982917 278.893408 
L 329.283801 277.045086 
L 329.584686 276.347993 
L 329.885571 276.623798 
L 330.186455 278.34599 
L 330.48734 278.344425 
L 330.788225 278.918208 
L 331.089109 278.351047 
L 331.389994 278.640182 
L 331.690879 278.468274 
L 331.991763 279.711294 
L 332.292648 277.623879 
L 332.593533 279.838386 
L 333.496187 277.146286 
L 334.097956 279.826979 
L 334.398841 279.367117 
L 335.00061 279.663438 
L 335.301495 279.232816 
L 335.602379 280.117086 
L 335.903264 278.467313 
L 336.204149 280.955811 
L 336.505033 279.000024 
L 336.805918 278.101119 
L 337.708572 280.387196 
L 338.009457 279.53882 
L 338.310341 280.356556 
L 338.611226 279.96971 
L 338.912111 280.520829 
L 339.212995 281.425849 
L 339.51388 279.946986 
L 339.814765 282.415444 
L 340.115649 280.495875 
L 340.416534 279.849844 
L 340.717418 279.576849 
L 341.018303 281.032193 
L 341.319188 281.421914 
L 341.620072 280.56455 
L 341.920957 281.248657 
L 342.221842 280.731542 
L 342.522726 281.190345 
L 342.823611 282.305409 
L 343.124496 281.794366 
L 343.42538 283.305251 
L 343.726265 281.722769 
L 344.328034 280.638048 
L 344.628919 281.350426 
L 344.929804 283.0256 
L 345.230688 282.085699 
L 345.531573 282.720366 
L 345.832458 282.586332 
L 346.133342 282.248356 
L 346.434227 283.321392 
L 346.735112 282.578091 
L 347.035996 284.542319 
L 347.637766 281.436064 
L 347.93865 281.973813 
L 348.239535 281.995435 
L 348.54042 283.381239 
L 348.841304 282.800062 
L 349.142189 282.778138 
L 349.443074 283.355098 
L 349.743958 283.5978 
L 350.044843 283.540029 
L 350.345728 283.088454 
L 350.646612 285.02212 
L 350.947497 283.399336 
L 351.248381 282.753261 
L 351.549266 282.660273 
L 351.850151 283.849477 
L 352.151035 283.932296 
L 352.45192 284.177083 
L 352.752805 284.23777 
L 353.053689 284.033698 
L 353.354574 284.116562 
L 353.655459 284.810911 
L 353.956343 284.018897 
L 354.257228 285.144818 
L 354.558113 283.792462 
L 354.858997 283.199852 
L 355.159882 283.726472 
L 355.761651 285.102356 
L 356.062536 285.010184 
L 356.363421 285.321969 
L 356.96519 284.420393 
L 357.266075 286.334707 
L 357.566959 285.35443 
L 357.867844 286.210302 
L 358.168729 284.655637 
L 358.469613 284.891191 
L 358.770498 284.080754 
L 359.071383 285.825847 
L 359.372267 286.308668 
L 359.673152 285.618886 
L 359.974037 285.590214 
L 360.274921 286.513116 
L 360.575806 285.582069 
L 360.876691 286.691142 
L 361.177575 286.466843 
L 361.47846 287.81531 
L 362.080229 285.321211 
L 362.381114 284.934609 
L 362.982883 287.219487 
L 363.283768 286.127407 
L 363.584652 286.18814 
L 363.885537 287.20428 
L 364.186422 286.469865 
L 364.487306 287.424084 
L 364.788191 287.163173 
L 365.089076 288.150483 
L 365.38996 287.622634 
L 365.690845 286.235967 
L 365.99173 287.23884 
L 366.292614 287.159745 
L 366.593499 287.738752 
L 366.894384 287.761581 
L 367.195268 288.409662 
L 367.496153 287.463285 
L 367.797038 287.312372 
L 368.097922 287.963272 
L 368.398807 286.669751 
L 368.699692 290.016143 
L 369.000576 287.872185 
L 369.301461 287.322655 
L 369.602346 286.40152 
L 369.90323 288.438825 
L 370.204115 288.644593 
L 370.505 288.2252 
L 370.805884 289.434081 
L 371.106769 288.852713 
L 371.407654 289.255038 
L 371.708538 289.062019 
L 372.009423 288.461724 
L 372.310308 291.094824 
L 372.611192 288.984765 
L 372.912077 288.605667 
L 373.212961 287.78205 
L 373.513846 288.284803 
L 373.814731 289.124713 
L 374.115615 288.781604 
L 374.4165 289.741326 
L 375.018269 290.319838 
L 375.319154 290.348892 
L 375.620039 289.383811 
L 375.920923 291.129214 
L 376.522693 288.362444 
L 376.823577 288.783066 
L 377.124462 290.240014 
L 377.425347 290.3692 
L 377.726231 290.019302 
L 378.027116 290.85854 
L 378.328001 289.63292 
L 378.92977 290.844429 
L 379.230655 289.788743 
L 379.531539 292.518103 
L 379.832424 290.468648 
L 380.133309 290.578352 
L 380.434193 289.888277 
L 380.735078 290.77429 
L 381.035963 290.616655 
L 381.336847 289.823968 
L 381.637732 291.895743 
L 382.239501 290.510411 
L 382.540386 291.842421 
L 382.841271 291.505227 
L 383.142155 292.982356 
L 383.44304 291.005797 
L 383.743925 289.90371 
L 384.044809 290.481598 
L 384.345694 291.828092 
L 384.646578 292.073932 
L 385.248348 291.412297 
L 385.549232 291.583547 
L 385.850117 292.491795 
L 386.151002 291.864884 
L 386.451886 291.760245 
L 386.752771 293.672778 
L 387.35454 290.766441 
L 387.655425 290.625756 
L 387.95631 292.977466 
L 388.257194 292.423711 
L 389.159848 293.430585 
L 389.460733 292.42831 
L 389.761618 293.939748 
L 390.062502 293.024795 
L 390.363387 294.815483 
L 390.664272 292.394743 
L 390.965156 291.549541 
L 391.266041 291.831697 
L 391.566926 293.02802 
L 391.86781 293.545881 
L 392.168695 291.723856 
L 392.46958 292.338844 
L 392.770464 293.288472 
L 393.071349 293.15531 
L 393.372234 294.144119 
L 393.673118 292.589989 
L 393.974003 295.488 
L 394.274888 293.585283 
L 394.575772 292.858961 
L 394.876657 292.643185 
L 395.177541 293.948474 
L 395.478426 293.833821 
L 395.779311 293.279553 
L 396.080195 293.582097 
L 396.38108 294.824596 
L 396.681965 292.975571 
L 396.982849 294.816118 
L 397.283734 294.026161 
L 397.584619 294.691182 
L 398.186388 293.26368 
L 398.487273 293.850873 
L 398.487273 293.850873 
" clip-path="url(#pc03e11db5f)" style="fill: none; stroke: #dc143c; stroke-width: 2; stroke-linecap: square"/>
   </g>
   <g id="line2d_27">
    <path d="M 73.832727 196.719515 
L 77.142459 196.719515 
L 77.443343 195.732062 
L 84.36369 195.724928 
L 84.664575 196.009101 
L 87.974306 196.009101 
L 88.275191 196.407939 
L 91.584922 196.407939 
L 91.885807 196.892407 
L 95.195538 196.892407 
L 95.496423 197.483468 
L 98.806154 197.483468 
L 99.107039 198.228772 
L 102.41677 198.228772 
L 102.717654 199.02803 
L 106.027386 199.02803 
L 106.32827 199.799872 
L 109.638002 199.799872 
L 109.938886 200.461591 
L 113.248617 200.461591 
L 113.549502 200.905471 
L 116.859233 200.905471 
L 117.160118 201.06608 
L 124.080465 200.994486 
L 124.38135 200.567856 
L 127.691081 200.567856 
L 127.991966 199.879391 
L 131.301697 199.879391 
L 131.602582 199.143523 
L 134.912313 199.143523 
L 135.213197 198.320075 
L 138.522929 198.320075 
L 138.823813 197.786048 
L 142.133545 197.786048 
L 142.434429 198.105293 
L 145.74416 198.105293 
L 146.045045 199.878758 
L 149.354776 199.878758 
L 149.655661 204.069597 
L 152.965392 204.069597 
L 153.266277 208.764466 
L 156.576008 208.764466 
L 156.876893 212.983037 
L 160.186624 212.983037 
L 160.487509 216.174675 
L 163.79724 216.174675 
L 164.098125 218.82419 
L 167.407856 218.82419 
L 167.70874 221.218275 
L 171.018472 221.218275 
L 171.319356 223.313298 
L 174.629088 223.313298 
L 174.929972 225.525677 
L 178.239703 225.525677 
L 178.540588 227.717117 
L 181.850319 227.717117 
L 182.151204 228.920873 
L 185.460935 228.920873 
L 185.76182 229.437687 
L 189.071551 229.437687 
L 189.372436 229.833469 
L 192.682167 229.833469 
L 192.983052 229.981186 
L 196.292783 229.981186 
L 196.593668 230.173264 
L 199.903399 230.173264 
L 200.505168 230.061934 
L 203.514015 230.061934 
L 203.814899 229.904223 
L 207.124631 229.904223 
L 207.425515 229.750432 
L 217.956478 229.726936 
L 218.257363 229.558524 
L 225.17771 229.470727 
L 225.478595 229.347175 
L 228.788326 229.347175 
L 229.089211 229.067799 
L 232.398942 229.067799 
L 232.699826 228.925268 
L 236.009558 228.925268 
L 236.611327 228.809556 
L 239.620174 228.809556 
L 239.921058 228.545543 
L 243.230789 228.545543 
L 243.531674 228.407943 
L 250.452021 228.310735 
L 251.053791 228.199102 
L 254.062637 228.199102 
L 254.363522 227.952984 
L 257.673253 227.952984 
L 257.974138 228.226992 
L 264.894485 228.182143 
L 265.195369 228.029216 
L 275.726332 227.993839 
L 276.027217 227.818111 
L 282.947564 227.900259 
L 283.248449 227.627311 
L 290.168796 227.698479 
L 290.770565 227.768856 
L 293.779412 227.768856 
L 294.080297 227.921405 
L 301.000644 227.927736 
L 301.301528 227.530444 
L 308.221875 227.611461 
L 308.52276 227.798267 
L 311.832491 227.798267 
L 312.133376 227.632448 
L 315.443107 227.632448 
L 315.743992 227.436049 
L 322.664339 227.513377 
L 322.965224 227.215886 
L 326.274955 227.215886 
L 326.57584 227.671429 
L 340.717418 227.568743 
L 341.018303 227.440054 
L 344.328034 227.440054 
L 344.929804 227.326533 
L 355.159882 227.316502 
L 355.460767 227.547524 
L 362.381114 227.459836 
L 362.681998 226.892952 
L 365.99173 226.892952 
L 366.292614 227.529409 
L 369.602346 227.529409 
L 369.90323 227.244202 
L 376.823577 227.242132 
L 377.124462 226.914317 
L 380.434193 226.914317 
L 380.735078 227.131911 
L 384.044809 227.131911 
L 384.345694 227.349676 
L 387.655425 227.349676 
L 387.95631 227.106419 
L 394.876657 227.055058 
L 395.177541 226.82445 
L 398.487273 226.82445 
L 398.487273 226.82445 
" clip-path="url(#pc03e11db5f)" style="fill: none; stroke: #ffff00; stroke-width: 3; stroke-linecap: square"/>
   </g>
   <g id="patch_3">
    <path d="M 57.6 307.584 
L 57.6 41.472 
" style="fill: none; stroke: #ffffff; stroke-linejoin: miter; stroke-linecap: square"/>
   </g>
   <g id="patch_4">
    <path d="M 414.72 307.584 
L 414.72 41.472 
" style="fill: none; stroke: #ffffff; stroke-linejoin: miter; stroke-linecap: square"/>
   </g>
   <g id="patch_5">
    <path d="M 57.6 307.584 
L 414.72 307.584 
" style="fill: none; stroke: #ffffff; stroke-linejoin: miter; stroke-linecap: square"/>
   </g>
   <g id="patch_6">
    <path d="M 57.6 41.472 
L 414.72 41.472 
" style="fill: none; stroke: #ffffff; stroke-linejoin: miter; stroke-linecap: square"/>
   </g>
   <g id="legend_1">
    <g id="patch_7">
     <path d="M 243.124687 302.584 
L 407.72 302.584 
Q 409.72 302.584 409.72 300.584 
L 409.72 257.549625 
Q 409.72 255.549625 407.72 255.549625 
L 243.124687 255.549625 
Q 241.124687 255.549625 241.124687 257.549625 
L 241.124687 300.584 
Q 241.124687 302.584 243.124687 302.584 
z
" style="fill: #e5e5e5; opacity: 0.8; stroke: #cccccc; stroke-width: 0.5; stroke-linejoin: miter"/>
    </g>
    <g id="line2d_28">
     <path d="M 245.124687 263.648062 
L 255.124687 263.648062 
L 265.124687 263.648062 
" style="fill: none; stroke: #6495ed; stroke-width: 2; stroke-linecap: square"/>
    </g>
    <g id="text_15">
     <!-- Generator loss -->
     <g transform="translate(273.124687 267.148062) scale(0.1 -0.1)">
      <defs>
       <path id="DejaVuSans-47" d="M 3809 666 
L 3809 1919 
L 2778 1919 
L 2778 2438 
L 4434 2438 
L 4434 434 
Q 4069 175 3628 42 
Q 3188 -91 2688 -91 
Q 1594 -91 976 548 
Q 359 1188 359 2328 
Q 359 3472 976 4111 
Q 1594 4750 2688 4750 
Q 3144 4750 3555 4637 
Q 3966 4525 4313 4306 
L 4313 3634 
Q 3963 3931 3569 4081 
Q 3175 4231 2741 4231 
Q 1884 4231 1454 3753 
Q 1025 3275 1025 2328 
Q 1025 1384 1454 906 
Q 1884 428 2741 428 
Q 3075 428 3337 486 
Q 3600 544 3809 666 
z
" transform="scale(0.015625)"/>
       <path id="DejaVuSans-65" d="M 3597 1894 
L 3597 1613 
L 953 1613 
Q 991 1019 1311 708 
Q 1631 397 2203 397 
Q 2534 397 2845 478 
Q 3156 559 3463 722 
L 3463 178 
Q 3153 47 2828 -22 
Q 2503 -91 2169 -91 
Q 1331 -91 842 396 
Q 353 884 353 1716 
Q 353 2575 817 3079 
Q 1281 3584 2069 3584 
Q 2775 3584 3186 3129 
Q 3597 2675 3597 1894 
z
M 3022 2063 
Q 3016 2534 2758 2815 
Q 2500 3097 2075 3097 
Q 1594 3097 1305 2825 
Q 1016 2553 972 2059 
L 3022 2063 
z
" transform="scale(0.015625)"/>
       <path id="DejaVuSans-6e" d="M 3513 2113 
L 3513 0 
L 2938 0 
L 2938 2094 
Q 2938 2591 2744 2837 
Q 2550 3084 2163 3084 
Q 1697 3084 1428 2787 
Q 1159 2491 1159 1978 
L 1159 0 
L 581 0 
L 581 3500 
L 1159 3500 
L 1159 2956 
Q 1366 3272 1645 3428 
Q 1925 3584 2291 3584 
Q 2894 3584 3203 3211 
Q 3513 2838 3513 2113 
z
" transform="scale(0.015625)"/>
       <path id="DejaVuSans-72" d="M 2631 2963 
Q 2534 3019 2420 3045 
Q 2306 3072 2169 3072 
Q 1681 3072 1420 2755 
Q 1159 2438 1159 1844 
L 1159 0 
L 581 0 
L 581 3500 
L 1159 3500 
L 1159 2956 
Q 1341 3275 1631 3429 
Q 1922 3584 2338 3584 
Q 2397 3584 2469 3576 
Q 2541 3569 2628 3553 
L 2631 2963 
z
" transform="scale(0.015625)"/>
       <path id="DejaVuSans-61" d="M 2194 1759 
Q 1497 1759 1228 1600 
Q 959 1441 959 1056 
Q 959 750 1161 570 
Q 1363 391 1709 391 
Q 2188 391 2477 730 
Q 2766 1069 2766 1631 
L 2766 1759 
L 2194 1759 
z
M 3341 1997 
L 3341 0 
L 2766 0 
L 2766 531 
Q 2569 213 2275 61 
Q 1981 -91 1556 -91 
Q 1019 -91 701 211 
Q 384 513 384 1019 
Q 384 1609 779 1909 
Q 1175 2209 1959 2209 
L 2766 2209 
L 2766 2266 
Q 2766 2663 2505 2880 
Q 2244 3097 1772 3097 
Q 1472 3097 1187 3025 
Q 903 2953 641 2809 
L 641 3341 
Q 956 3463 1253 3523 
Q 1550 3584 1831 3584 
Q 2591 3584 2966 3190 
Q 3341 2797 3341 1997 
z
" transform="scale(0.015625)"/>
       <path id="DejaVuSans-74" d="M 1172 4494 
L 1172 3500 
L 2356 3500 
L 2356 3053 
L 1172 3053 
L 1172 1153 
Q 1172 725 1289 603 
Q 1406 481 1766 481 
L 2356 481 
L 2356 0 
L 1766 0 
Q 1100 0 847 248 
Q 594 497 594 1153 
L 594 3053 
L 172 3053 
L 172 3500 
L 594 3500 
L 594 4494 
L 1172 4494 
z
" transform="scale(0.015625)"/>
       <path id="DejaVuSans-20" transform="scale(0.015625)"/>
       <path id="DejaVuSans-6c" d="M 603 4863 
L 1178 4863 
L 1178 0 
L 603 0 
L 603 4863 
z
" transform="scale(0.015625)"/>
      </defs>
      <use xlink:href="#DejaVuSans-47"/>
      <use xlink:href="#DejaVuSans-65" x="77.490234"/>
      <use xlink:href="#DejaVuSans-6e" x="139.013672"/>
      <use xlink:href="#DejaVuSans-65" x="202.392578"/>
      <use xlink:href="#DejaVuSans-72" x="263.916016"/>
      <use xlink:href="#DejaVuSans-61" x="305.029297"/>
      <use xlink:href="#DejaVuSans-74" x="366.308594"/>
      <use xlink:href="#DejaVuSans-6f" x="405.517578"/>
      <use xlink:href="#DejaVuSans-72" x="466.699219"/>
      <use xlink:href="#DejaVuSans-20" x="507.8125"/>
      <use xlink:href="#DejaVuSans-6c" x="539.599609"/>
      <use xlink:href="#DejaVuSans-6f" x="567.382812"/>
      <use xlink:href="#DejaVuSans-73" x="628.564453"/>
      <use xlink:href="#DejaVuSans-73" x="680.664062"/>
     </g>
    </g>
    <g id="line2d_29">
     <path d="M 245.124687 278.326188 
L 255.124687 278.326188 
L 265.124687 278.326188 
" style="fill: none; stroke: #dc143c; stroke-width: 2; stroke-linecap: square"/>
    </g>
    <g id="text_16">
     <!-- Average discriminator loss -->
     <g transform="translate(273.124687 281.826188) scale(0.1 -0.1)">
      <defs>
       <path id="DejaVuSans-41" d="M 2188 4044 
L 1331 1722 
L 3047 1722 
L 2188 4044 
z
M 1831 4666 
L 2547 4666 
L 4325 0 
L 3669 0 
L 3244 1197 
L 1141 1197 
L 716 0 
L 50 0 
L 1831 4666 
z
" transform="scale(0.015625)"/>
       <path id="DejaVuSans-76" d="M 191 3500 
L 800 3500 
L 1894 563 
L 2988 3500 
L 3597 3500 
L 2284 0 
L 1503 0 
L 191 3500 
z
" transform="scale(0.015625)"/>
       <path id="DejaVuSans-67" d="M 2906 1791 
Q 2906 2416 2648 2759 
Q 2391 3103 1925 3103 
Q 1463 3103 1205 2759 
Q 947 2416 947 1791 
Q 947 1169 1205 825 
Q 1463 481 1925 481 
Q 2391 481 2648 825 
Q 2906 1169 2906 1791 
z
M 3481 434 
Q 3481 -459 3084 -895 
Q 2688 -1331 1869 -1331 
Q 1566 -1331 1297 -1286 
Q 1028 -1241 775 -1147 
L 775 -588 
Q 1028 -725 1275 -790 
Q 1522 -856 1778 -856 
Q 2344 -856 2625 -561 
Q 2906 -266 2906 331 
L 2906 616 
Q 2728 306 2450 153 
Q 2172 0 1784 0 
Q 1141 0 747 490 
Q 353 981 353 1791 
Q 353 2603 747 3093 
Q 1141 3584 1784 3584 
Q 2172 3584 2450 3431 
Q 2728 3278 2906 2969 
L 2906 3500 
L 3481 3500 
L 3481 434 
z
" transform="scale(0.015625)"/>
       <path id="DejaVuSans-64" d="M 2906 2969 
L 2906 4863 
L 3481 4863 
L 3481 0 
L 2906 0 
L 2906 525 
Q 2725 213 2448 61 
Q 2172 -91 1784 -91 
Q 1150 -91 751 415 
Q 353 922 353 1747 
Q 353 2572 751 3078 
Q 1150 3584 1784 3584 
Q 2172 3584 2448 3432 
Q 2725 3281 2906 2969 
z
M 947 1747 
Q 947 1113 1208 752 
Q 1469 391 1925 391 
Q 2381 391 2643 752 
Q 2906 1113 2906 1747 
Q 2906 2381 2643 2742 
Q 2381 3103 1925 3103 
Q 1469 3103 1208 2742 
Q 947 2381 947 1747 
z
" transform="scale(0.015625)"/>
       <path id="DejaVuSans-69" d="M 603 3500 
L 1178 3500 
L 1178 0 
L 603 0 
L 603 3500 
z
M 603 4863 
L 1178 4863 
L 1178 4134 
L 603 4134 
L 603 4863 
z
" transform="scale(0.015625)"/>
       <path id="DejaVuSans-6d" d="M 3328 2828 
Q 3544 3216 3844 3400 
Q 4144 3584 4550 3584 
Q 5097 3584 5394 3201 
Q 5691 2819 5691 2113 
L 5691 0 
L 5113 0 
L 5113 2094 
Q 5113 2597 4934 2840 
Q 4756 3084 4391 3084 
Q 3944 3084 3684 2787 
Q 3425 2491 3425 1978 
L 3425 0 
L 2847 0 
L 2847 2094 
Q 2847 2600 2669 2842 
Q 2491 3084 2119 3084 
Q 1678 3084 1418 2786 
Q 1159 2488 1159 1978 
L 1159 0 
L 581 0 
L 581 3500 
L 1159 3500 
L 1159 2956 
Q 1356 3278 1631 3431 
Q 1906 3584 2284 3584 
Q 2666 3584 2933 3390 
Q 3200 3197 3328 2828 
z
" transform="scale(0.015625)"/>
      </defs>
      <use xlink:href="#DejaVuSans-41"/>
      <use xlink:href="#DejaVuSans-76" x="62.533203"/>
      <use xlink:href="#DejaVuSans-65" x="121.712891"/>
      <use xlink:href="#DejaVuSans-72" x="183.236328"/>
      <use xlink:href="#DejaVuSans-61" x="224.349609"/>
      <use xlink:href="#DejaVuSans-67" x="285.628906"/>
      <use xlink:href="#DejaVuSans-65" x="349.105469"/>
      <use xlink:href="#DejaVuSans-20" x="410.628906"/>
      <use xlink:href="#DejaVuSans-64" x="442.416016"/>
      <use xlink:href="#DejaVuSans-69" x="505.892578"/>
      <use xlink:href="#DejaVuSans-73" x="533.675781"/>
      <use xlink:href="#DejaVuSans-63" x="585.775391"/>
      <use xlink:href="#DejaVuSans-72" x="640.755859"/>
      <use xlink:href="#DejaVuSans-69" x="681.869141"/>
      <use xlink:href="#DejaVuSans-6d" x="709.652344"/>
      <use xlink:href="#DejaVuSans-69" x="807.064453"/>
      <use xlink:href="#DejaVuSans-6e" x="834.847656"/>
      <use xlink:href="#DejaVuSans-61" x="898.226562"/>
      <use xlink:href="#DejaVuSans-74" x="959.505859"/>
      <use xlink:href="#DejaVuSans-6f" x="998.714844"/>
      <use xlink:href="#DejaVuSans-72" x="1059.896484"/>
      <use xlink:href="#DejaVuSans-20" x="1101.009766"/>
      <use xlink:href="#DejaVuSans-6c" x="1132.796875"/>
      <use xlink:href="#DejaVuSans-6f" x="1160.580078"/>
      <use xlink:href="#DejaVuSans-73" x="1221.761719"/>
      <use xlink:href="#DejaVuSans-73" x="1273.861328"/>
     </g>
    </g>
    <g id="line2d_30">
     <path d="M 245.124687 293.004312 
L 255.124687 293.004312 
L 265.124687 293.004312 
" style="fill: none; stroke: #ffff00; stroke-width: 3; stroke-linecap: square"/>
    </g>
    <g id="text_17">
     <!-- ROC AUC -->
     <g transform="translate(273.124687 296.504312) scale(0.1 -0.1)">
      <defs>
       <path id="DejaVuSans-52" d="M 2841 2188 
Q 3044 2119 3236 1894 
Q 3428 1669 3622 1275 
L 4263 0 
L 3584 0 
L 2988 1197 
Q 2756 1666 2539 1819 
Q 2322 1972 1947 1972 
L 1259 1972 
L 1259 0 
L 628 0 
L 628 4666 
L 2053 4666 
Q 2853 4666 3247 4331 
Q 3641 3997 3641 3322 
Q 3641 2881 3436 2590 
Q 3231 2300 2841 2188 
z
M 1259 4147 
L 1259 2491 
L 2053 2491 
Q 2509 2491 2742 2702 
Q 2975 2913 2975 3322 
Q 2975 3731 2742 3939 
Q 2509 4147 2053 4147 
L 1259 4147 
z
" transform="scale(0.015625)"/>
       <path id="DejaVuSans-4f" d="M 2522 4238 
Q 1834 4238 1429 3725 
Q 1025 3213 1025 2328 
Q 1025 1447 1429 934 
Q 1834 422 2522 422 
Q 3209 422 3611 934 
Q 4013 1447 4013 2328 
Q 4013 3213 3611 3725 
Q 3209 4238 2522 4238 
z
M 2522 4750 
Q 3503 4750 4090 4092 
Q 4678 3434 4678 2328 
Q 4678 1225 4090 567 
Q 3503 -91 2522 -91 
Q 1538 -91 948 565 
Q 359 1222 359 2328 
Q 359 3434 948 4092 
Q 1538 4750 2522 4750 
z
" transform="scale(0.015625)"/>
       <path id="DejaVuSans-43" d="M 4122 4306 
L 4122 3641 
Q 3803 3938 3442 4084 
Q 3081 4231 2675 4231 
Q 1875 4231 1450 3742 
Q 1025 3253 1025 2328 
Q 1025 1406 1450 917 
Q 1875 428 2675 428 
Q 3081 428 3442 575 
Q 3803 722 4122 1019 
L 4122 359 
Q 3791 134 3420 21 
Q 3050 -91 2638 -91 
Q 1578 -91 968 557 
Q 359 1206 359 2328 
Q 359 3453 968 4101 
Q 1578 4750 2638 4750 
Q 3056 4750 3426 4639 
Q 3797 4528 4122 4306 
z
" transform="scale(0.015625)"/>
       <path id="DejaVuSans-55" d="M 556 4666 
L 1191 4666 
L 1191 1831 
Q 1191 1081 1462 751 
Q 1734 422 2344 422 
Q 2950 422 3222 751 
Q 3494 1081 3494 1831 
L 3494 4666 
L 4128 4666 
L 4128 1753 
Q 4128 841 3676 375 
Q 3225 -91 2344 -91 
Q 1459 -91 1007 375 
Q 556 841 556 1753 
L 556 4666 
z
" transform="scale(0.015625)"/>
      </defs>
      <use xlink:href="#DejaVuSans-52"/>
      <use xlink:href="#DejaVuSans-4f" x="69.482422"/>
      <use xlink:href="#DejaVuSans-43" x="148.193359"/>
      <use xlink:href="#DejaVuSans-20" x="218.017578"/>
      <use xlink:href="#DejaVuSans-41" x="249.804688"/>
      <use xlink:href="#DejaVuSans-55" x="318.212891"/>
      <use xlink:href="#DejaVuSans-43" x="391.40625"/>
     </g>
    </g>
   </g>
  </g>
 </g>
 <defs>
  <clipPath id="pc03e11db5f">
   <rect x="57.6" y="41.472" width="357.12" height="266.112"/>
  </clipPath>
 </defs>
</svg>
