<?xml version="1.0" encoding="utf-8" standalone="no"?>
<!DOCTYPE svg PUBLIC "-//W3C//DTD SVG 1.1//EN"
  "http://www.w3.org/Graphics/SVG/1.1/DTD/svg11.dtd">
<svg xmlns:xlink="http://www.w3.org/1999/xlink" width="460.8pt" height="345.6pt" viewBox="0 0 460.8 345.6" xmlns="http://www.w3.org/2000/svg" version="1.1">
 <metadata>
  <rdf:RDF xmlns:dc="http://purl.org/dc/elements/1.1/" xmlns:cc="http://creativecommons.org/ns#" xmlns:rdf="http://www.w3.org/1999/02/22-rdf-syntax-ns#">
   <cc:Work>
    <dc:type rdf:resource="http://purl.org/dc/dcmitype/StillImage"/>
    <dc:date>2023-07-12T09:21:38.730392</dc:date>
    <dc:format>image/svg+xml</dc:format>
    <dc:creator>
     <cc:Agent>
      <dc:title>Matplotlib v3.7.1, https://matplotlib.org/</dc:title>
     </cc:Agent>
    </dc:creator>
   </cc:Work>
  </rdf:RDF>
 </metadata>
 <defs>
  <style type="text/css">*{stroke-linejoin: round; stroke-linecap: butt}</style>
 </defs>
 <g id="figure_1">
  <g id="patch_1">
   <path d="M 0 345.6 
L 460.8 345.6 
L 460.8 0 
L 0 0 
z
" style="fill: #ffffff"/>
  </g>
  <g id="axes_1">
   <g id="patch_2">
    <path d="M 57.6 307.584 
L 414.72 307.584 
L 414.72 41.472 
L 57.6 41.472 
z
" style="fill: #e5e5e5"/>
   </g>
   <g id="matplotlib.axis_1">
    <g id="xtick_1">
     <g id="line2d_1">
      <path d="M 73.531843 307.584 
L 73.531843 41.472 
" clip-path="url(#p0d29d94b9e)" style="fill: none; stroke: #ffffff; stroke-width: 0.8; stroke-linecap: square"/>
     </g>
     <g id="line2d_2">
      <defs>
       <path id="mca1cd2b7ca" d="M 0 0 
L 0 3.5 
" style="stroke: #555555; stroke-width: 0.8"/>
      </defs>
      <g>
       <use xlink:href="#mca1cd2b7ca" x="73.531843" y="307.584" style="fill: #555555; stroke: #555555; stroke-width: 0.8"/>
      </g>
     </g>
     <g id="text_1">
      <!-- 0 -->
      <g style="fill: #555555" transform="translate(70.350593 322.182437) scale(0.1 -0.1)">
       <defs>
        <path id="DejaVuSans-30" d="M 2034 4250 
Q 1547 4250 1301 3770 
Q 1056 3291 1056 2328 
Q 1056 1369 1301 889 
Q 1547 409 2034 409 
Q 2525 409 2770 889 
Q 3016 1369 3016 2328 
Q 3016 3291 2770 3770 
Q 2525 4250 2034 4250 
z
M 2034 4750 
Q 2819 4750 3233 4129 
Q 3647 3509 3647 2328 
Q 3647 1150 3233 529 
Q 2819 -91 2034 -91 
Q 1250 -91 836 529 
Q 422 1150 422 2328 
Q 422 3509 836 4129 
Q 1250 4750 2034 4750 
z
" transform="scale(0.015625)"/>
       </defs>
       <use xlink:href="#DejaVuSans-30"/>
      </g>
     </g>
    </g>
    <g id="xtick_2">
     <g id="line2d_3">
      <path d="M 133.708774 307.584 
L 133.708774 41.472 
" clip-path="url(#p0d29d94b9e)" style="fill: none; stroke: #ffffff; stroke-width: 0.8; stroke-linecap: square"/>
     </g>
     <g id="line2d_4">
      <g>
       <use xlink:href="#mca1cd2b7ca" x="133.708774" y="307.584" style="fill: #555555; stroke: #555555; stroke-width: 0.8"/>
      </g>
     </g>
     <g id="text_2">
      <!-- 200 -->
      <g style="fill: #555555" transform="translate(124.165024 322.182437) scale(0.1 -0.1)">
       <defs>
        <path id="DejaVuSans-32" d="M 1228 531 
L 3431 531 
L 3431 0 
L 469 0 
L 469 531 
Q 828 903 1448 1529 
Q 2069 2156 2228 2338 
Q 2531 2678 2651 2914 
Q 2772 3150 2772 3378 
Q 2772 3750 2511 3984 
Q 2250 4219 1831 4219 
Q 1534 4219 1204 4116 
Q 875 4013 500 3803 
L 500 4441 
Q 881 4594 1212 4672 
Q 1544 4750 1819 4750 
Q 2544 4750 2975 4387 
Q 3406 4025 3406 3419 
Q 3406 3131 3298 2873 
Q 3191 2616 2906 2266 
Q 2828 2175 2409 1742 
Q 1991 1309 1228 531 
z
" transform="scale(0.015625)"/>
       </defs>
       <use xlink:href="#DejaVuSans-32"/>
       <use xlink:href="#DejaVuSans-30" x="63.623047"/>
       <use xlink:href="#DejaVuSans-30" x="127.246094"/>
      </g>
     </g>
    </g>
    <g id="xtick_3">
     <g id="line2d_5">
      <path d="M 193.885706 307.584 
L 193.885706 41.472 
" clip-path="url(#p0d29d94b9e)" style="fill: none; stroke: #ffffff; stroke-width: 0.8; stroke-linecap: square"/>
     </g>
     <g id="line2d_6">
      <g>
       <use xlink:href="#mca1cd2b7ca" x="193.885706" y="307.584" style="fill: #555555; stroke: #555555; stroke-width: 0.8"/>
      </g>
     </g>
     <g id="text_3">
      <!-- 400 -->
      <g style="fill: #555555" transform="translate(184.341956 322.182437) scale(0.1 -0.1)">
       <defs>
        <path id="DejaVuSans-34" d="M 2419 4116 
L 825 1625 
L 2419 1625 
L 2419 4116 
z
M 2253 4666 
L 3047 4666 
L 3047 1625 
L 3713 1625 
L 3713 1100 
L 3047 1100 
L 3047 0 
L 2419 0 
L 2419 1100 
L 313 1100 
L 313 1709 
L 2253 4666 
z
" transform="scale(0.015625)"/>
       </defs>
       <use xlink:href="#DejaVuSans-34"/>
       <use xlink:href="#DejaVuSans-30" x="63.623047"/>
       <use xlink:href="#DejaVuSans-30" x="127.246094"/>
      </g>
     </g>
    </g>
    <g id="xtick_4">
     <g id="line2d_7">
      <path d="M 254.062637 307.584 
L 254.062637 41.472 
" clip-path="url(#p0d29d94b9e)" style="fill: none; stroke: #ffffff; stroke-width: 0.8; stroke-linecap: square"/>
     </g>
     <g id="line2d_8">
      <g>
       <use xlink:href="#mca1cd2b7ca" x="254.062637" y="307.584" style="fill: #555555; stroke: #555555; stroke-width: 0.8"/>
      </g>
     </g>
     <g id="text_4">
      <!-- 600 -->
      <g style="fill: #555555" transform="translate(244.518887 322.182437) scale(0.1 -0.1)">
       <defs>
        <path id="DejaVuSans-36" d="M 2113 2584 
Q 1688 2584 1439 2293 
Q 1191 2003 1191 1497 
Q 1191 994 1439 701 
Q 1688 409 2113 409 
Q 2538 409 2786 701 
Q 3034 994 3034 1497 
Q 3034 2003 2786 2293 
Q 2538 2584 2113 2584 
z
M 3366 4563 
L 3366 3988 
Q 3128 4100 2886 4159 
Q 2644 4219 2406 4219 
Q 1781 4219 1451 3797 
Q 1122 3375 1075 2522 
Q 1259 2794 1537 2939 
Q 1816 3084 2150 3084 
Q 2853 3084 3261 2657 
Q 3669 2231 3669 1497 
Q 3669 778 3244 343 
Q 2819 -91 2113 -91 
Q 1303 -91 875 529 
Q 447 1150 447 2328 
Q 447 3434 972 4092 
Q 1497 4750 2381 4750 
Q 2619 4750 2861 4703 
Q 3103 4656 3366 4563 
z
" transform="scale(0.015625)"/>
       </defs>
       <use xlink:href="#DejaVuSans-36"/>
       <use xlink:href="#DejaVuSans-30" x="63.623047"/>
       <use xlink:href="#DejaVuSans-30" x="127.246094"/>
      </g>
     </g>
    </g>
    <g id="xtick_5">
     <g id="line2d_9">
      <path d="M 314.239569 307.584 
L 314.239569 41.472 
" clip-path="url(#p0d29d94b9e)" style="fill: none; stroke: #ffffff; stroke-width: 0.8; stroke-linecap: square"/>
     </g>
     <g id="line2d_10">
      <g>
       <use xlink:href="#mca1cd2b7ca" x="314.239569" y="307.584" style="fill: #555555; stroke: #555555; stroke-width: 0.8"/>
      </g>
     </g>
     <g id="text_5">
      <!-- 800 -->
      <g style="fill: #555555" transform="translate(304.695819 322.182437) scale(0.1 -0.1)">
       <defs>
        <path id="DejaVuSans-38" d="M 2034 2216 
Q 1584 2216 1326 1975 
Q 1069 1734 1069 1313 
Q 1069 891 1326 650 
Q 1584 409 2034 409 
Q 2484 409 2743 651 
Q 3003 894 3003 1313 
Q 3003 1734 2745 1975 
Q 2488 2216 2034 2216 
z
M 1403 2484 
Q 997 2584 770 2862 
Q 544 3141 544 3541 
Q 544 4100 942 4425 
Q 1341 4750 2034 4750 
Q 2731 4750 3128 4425 
Q 3525 4100 3525 3541 
Q 3525 3141 3298 2862 
Q 3072 2584 2669 2484 
Q 3125 2378 3379 2068 
Q 3634 1759 3634 1313 
Q 3634 634 3220 271 
Q 2806 -91 2034 -91 
Q 1263 -91 848 271 
Q 434 634 434 1313 
Q 434 1759 690 2068 
Q 947 2378 1403 2484 
z
M 1172 3481 
Q 1172 3119 1398 2916 
Q 1625 2713 2034 2713 
Q 2441 2713 2670 2916 
Q 2900 3119 2900 3481 
Q 2900 3844 2670 4047 
Q 2441 4250 2034 4250 
Q 1625 4250 1398 4047 
Q 1172 3844 1172 3481 
z
" transform="scale(0.015625)"/>
       </defs>
       <use xlink:href="#DejaVuSans-38"/>
       <use xlink:href="#DejaVuSans-30" x="63.623047"/>
       <use xlink:href="#DejaVuSans-30" x="127.246094"/>
      </g>
     </g>
    </g>
    <g id="xtick_6">
     <g id="line2d_11">
      <path d="M 374.4165 307.584 
L 374.4165 41.472 
" clip-path="url(#p0d29d94b9e)" style="fill: none; stroke: #ffffff; stroke-width: 0.8; stroke-linecap: square"/>
     </g>
     <g id="line2d_12">
      <g>
       <use xlink:href="#mca1cd2b7ca" x="374.4165" y="307.584" style="fill: #555555; stroke: #555555; stroke-width: 0.8"/>
      </g>
     </g>
     <g id="text_6">
      <!-- 1000 -->
      <g style="fill: #555555" transform="translate(361.6915 322.182437) scale(0.1 -0.1)">
       <defs>
        <path id="DejaVuSans-31" d="M 794 531 
L 1825 531 
L 1825 4091 
L 703 3866 
L 703 4441 
L 1819 4666 
L 2450 4666 
L 2450 531 
L 3481 531 
L 3481 0 
L 794 0 
L 794 531 
z
" transform="scale(0.015625)"/>
       </defs>
       <use xlink:href="#DejaVuSans-31"/>
       <use xlink:href="#DejaVuSans-30" x="63.623047"/>
       <use xlink:href="#DejaVuSans-30" x="127.246094"/>
       <use xlink:href="#DejaVuSans-30" x="190.869141"/>
      </g>
     </g>
    </g>
    <g id="text_7">
     <!-- Epoch -->
     <g style="fill: #555555" transform="translate(217.786875 337.38025) scale(0.12 -0.12)">
      <defs>
       <path id="DejaVuSans-45" d="M 628 4666 
L 3578 4666 
L 3578 4134 
L 1259 4134 
L 1259 2753 
L 3481 2753 
L 3481 2222 
L 1259 2222 
L 1259 531 
L 3634 531 
L 3634 0 
L 628 0 
L 628 4666 
z
" transform="scale(0.015625)"/>
       <path id="DejaVuSans-70" d="M 1159 525 
L 1159 -1331 
L 581 -1331 
L 581 3500 
L 1159 3500 
L 1159 2969 
Q 1341 3281 1617 3432 
Q 1894 3584 2278 3584 
Q 2916 3584 3314 3078 
Q 3713 2572 3713 1747 
Q 3713 922 3314 415 
Q 2916 -91 2278 -91 
Q 1894 -91 1617 61 
Q 1341 213 1159 525 
z
M 3116 1747 
Q 3116 2381 2855 2742 
Q 2594 3103 2138 3103 
Q 1681 3103 1420 2742 
Q 1159 2381 1159 1747 
Q 1159 1113 1420 752 
Q 1681 391 2138 391 
Q 2594 391 2855 752 
Q 3116 1113 3116 1747 
z
" transform="scale(0.015625)"/>
       <path id="DejaVuSans-6f" d="M 1959 3097 
Q 1497 3097 1228 2736 
Q 959 2375 959 1747 
Q 959 1119 1226 758 
Q 1494 397 1959 397 
Q 2419 397 2687 759 
Q 2956 1122 2956 1747 
Q 2956 2369 2687 2733 
Q 2419 3097 1959 3097 
z
M 1959 3584 
Q 2709 3584 3137 3096 
Q 3566 2609 3566 1747 
Q 3566 888 3137 398 
Q 2709 -91 1959 -91 
Q 1206 -91 779 398 
Q 353 888 353 1747 
Q 353 2609 779 3096 
Q 1206 3584 1959 3584 
z
" transform="scale(0.015625)"/>
       <path id="DejaVuSans-63" d="M 3122 3366 
L 3122 2828 
Q 2878 2963 2633 3030 
Q 2388 3097 2138 3097 
Q 1578 3097 1268 2742 
Q 959 2388 959 1747 
Q 959 1106 1268 751 
Q 1578 397 2138 397 
Q 2388 397 2633 464 
Q 2878 531 3122 666 
L 3122 134 
Q 2881 22 2623 -34 
Q 2366 -91 2075 -91 
Q 1284 -91 818 406 
Q 353 903 353 1747 
Q 353 2603 823 3093 
Q 1294 3584 2113 3584 
Q 2378 3584 2631 3529 
Q 2884 3475 3122 3366 
z
" transform="scale(0.015625)"/>
       <path id="DejaVuSans-68" d="M 3513 2113 
L 3513 0 
L 2938 0 
L 2938 2094 
Q 2938 2591 2744 2837 
Q 2550 3084 2163 3084 
Q 1697 3084 1428 2787 
Q 1159 2491 1159 1978 
L 1159 0 
L 581 0 
L 581 4863 
L 1159 4863 
L 1159 2956 
Q 1366 3272 1645 3428 
Q 1925 3584 2291 3584 
Q 2894 3584 3203 3211 
Q 3513 2838 3513 2113 
z
" transform="scale(0.015625)"/>
      </defs>
      <use xlink:href="#DejaVuSans-45"/>
      <use xlink:href="#DejaVuSans-70" x="63.183594"/>
      <use xlink:href="#DejaVuSans-6f" x="126.660156"/>
      <use xlink:href="#DejaVuSans-63" x="187.841797"/>
      <use xlink:href="#DejaVuSans-68" x="242.822266"/>
     </g>
    </g>
   </g>
   <g id="matplotlib.axis_2">
    <g id="ytick_1">
     <g id="line2d_13">
      <path d="M 57.6 280.581721 
L 414.72 280.581721 
" clip-path="url(#p0d29d94b9e)" style="fill: none; stroke: #ffffff; stroke-width: 0.8; stroke-linecap: square"/>
     </g>
     <g id="line2d_14">
      <defs>
       <path id="mf9a5a950f5" d="M 0 0 
L -3.5 0 
" style="stroke: #555555; stroke-width: 0.8"/>
      </defs>
      <g>
       <use xlink:href="#mf9a5a950f5" x="57.6" y="280.581721" style="fill: #555555; stroke: #555555; stroke-width: 0.8"/>
      </g>
     </g>
     <g id="text_8">
      <!-- 0.4 -->
      <g style="fill: #555555" transform="translate(34.696875 284.38094) scale(0.1 -0.1)">
       <defs>
        <path id="DejaVuSans-2e" d="M 684 794 
L 1344 794 
L 1344 0 
L 684 0 
L 684 794 
z
" transform="scale(0.015625)"/>
       </defs>
       <use xlink:href="#DejaVuSans-30"/>
       <use xlink:href="#DejaVuSans-2e" x="63.623047"/>
       <use xlink:href="#DejaVuSans-34" x="95.410156"/>
      </g>
     </g>
    </g>
    <g id="ytick_2">
     <g id="line2d_15">
      <path d="M 57.6 237.436415 
L 414.72 237.436415 
" clip-path="url(#p0d29d94b9e)" style="fill: none; stroke: #ffffff; stroke-width: 0.8; stroke-linecap: square"/>
     </g>
     <g id="line2d_16">
      <g>
       <use xlink:href="#mf9a5a950f5" x="57.6" y="237.436415" style="fill: #555555; stroke: #555555; stroke-width: 0.8"/>
      </g>
     </g>
     <g id="text_9">
      <!-- 0.6 -->
      <g style="fill: #555555" transform="translate(34.696875 241.235633) scale(0.1 -0.1)">
       <use xlink:href="#DejaVuSans-30"/>
       <use xlink:href="#DejaVuSans-2e" x="63.623047"/>
       <use xlink:href="#DejaVuSans-36" x="95.410156"/>
      </g>
     </g>
    </g>
    <g id="ytick_3">
     <g id="line2d_17">
      <path d="M 57.6 194.291108 
L 414.72 194.291108 
" clip-path="url(#p0d29d94b9e)" style="fill: none; stroke: #ffffff; stroke-width: 0.8; stroke-linecap: square"/>
     </g>
     <g id="line2d_18">
      <g>
       <use xlink:href="#mf9a5a950f5" x="57.6" y="194.291108" style="fill: #555555; stroke: #555555; stroke-width: 0.8"/>
      </g>
     </g>
     <g id="text_10">
      <!-- 0.8 -->
      <g style="fill: #555555" transform="translate(34.696875 198.090327) scale(0.1 -0.1)">
       <use xlink:href="#DejaVuSans-30"/>
       <use xlink:href="#DejaVuSans-2e" x="63.623047"/>
       <use xlink:href="#DejaVuSans-38" x="95.410156"/>
      </g>
     </g>
    </g>
    <g id="ytick_4">
     <g id="line2d_19">
      <path d="M 57.6 151.145801 
L 414.72 151.145801 
" clip-path="url(#p0d29d94b9e)" style="fill: none; stroke: #ffffff; stroke-width: 0.8; stroke-linecap: square"/>
     </g>
     <g id="line2d_20">
      <g>
       <use xlink:href="#mf9a5a950f5" x="57.6" y="151.145801" style="fill: #555555; stroke: #555555; stroke-width: 0.8"/>
      </g>
     </g>
     <g id="text_11">
      <!-- 1.0 -->
      <g style="fill: #555555" transform="translate(34.696875 154.94502) scale(0.1 -0.1)">
       <use xlink:href="#DejaVuSans-31"/>
       <use xlink:href="#DejaVuSans-2e" x="63.623047"/>
       <use xlink:href="#DejaVuSans-30" x="95.410156"/>
      </g>
     </g>
    </g>
    <g id="ytick_5">
     <g id="line2d_21">
      <path d="M 57.6 108.000495 
L 414.72 108.000495 
" clip-path="url(#p0d29d94b9e)" style="fill: none; stroke: #ffffff; stroke-width: 0.8; stroke-linecap: square"/>
     </g>
     <g id="line2d_22">
      <g>
       <use xlink:href="#mf9a5a950f5" x="57.6" y="108.000495" style="fill: #555555; stroke: #555555; stroke-width: 0.8"/>
      </g>
     </g>
     <g id="text_12">
      <!-- 1.2 -->
      <g style="fill: #555555" transform="translate(34.696875 111.799714) scale(0.1 -0.1)">
       <use xlink:href="#DejaVuSans-31"/>
       <use xlink:href="#DejaVuSans-2e" x="63.623047"/>
       <use xlink:href="#DejaVuSans-32" x="95.410156"/>
      </g>
     </g>
    </g>
    <g id="ytick_6">
     <g id="line2d_23">
      <path d="M 57.6 64.855188 
L 414.72 64.855188 
" clip-path="url(#p0d29d94b9e)" style="fill: none; stroke: #ffffff; stroke-width: 0.8; stroke-linecap: square"/>
     </g>
     <g id="line2d_24">
      <g>
       <use xlink:href="#mf9a5a950f5" x="57.6" y="64.855188" style="fill: #555555; stroke: #555555; stroke-width: 0.8"/>
      </g>
     </g>
     <g id="text_13">
      <!-- 1.4 -->
      <g style="fill: #555555" transform="translate(34.696875 68.654407) scale(0.1 -0.1)">
       <use xlink:href="#DejaVuSans-31"/>
       <use xlink:href="#DejaVuSans-2e" x="63.623047"/>
       <use xlink:href="#DejaVuSans-34" x="95.410156"/>
      </g>
     </g>
    </g>
    <g id="text_14">
     <!-- Loss -->
     <g style="fill: #555555" transform="translate(28.20125 187.688625) rotate(-90) scale(0.12 -0.12)">
      <defs>
       <path id="DejaVuSans-4c" d="M 628 4666 
L 1259 4666 
L 1259 531 
L 3531 531 
L 3531 0 
L 628 0 
L 628 4666 
z
" transform="scale(0.015625)"/>
       <path id="DejaVuSans-73" d="M 2834 3397 
L 2834 2853 
Q 2591 2978 2328 3040 
Q 2066 3103 1784 3103 
Q 1356 3103 1142 2972 
Q 928 2841 928 2578 
Q 928 2378 1081 2264 
Q 1234 2150 1697 2047 
L 1894 2003 
Q 2506 1872 2764 1633 
Q 3022 1394 3022 966 
Q 3022 478 2636 193 
Q 2250 -91 1575 -91 
Q 1294 -91 989 -36 
Q 684 19 347 128 
L 347 722 
Q 666 556 975 473 
Q 1284 391 1588 391 
Q 1994 391 2212 530 
Q 2431 669 2431 922 
Q 2431 1156 2273 1281 
Q 2116 1406 1581 1522 
L 1381 1569 
Q 847 1681 609 1914 
Q 372 2147 372 2553 
Q 372 3047 722 3315 
Q 1072 3584 1716 3584 
Q 2034 3584 2315 3537 
Q 2597 3491 2834 3397 
z
" transform="scale(0.015625)"/>
      </defs>
      <use xlink:href="#DejaVuSans-4c"/>
      <use xlink:href="#DejaVuSans-6f" x="53.962891"/>
      <use xlink:href="#DejaVuSans-73" x="115.144531"/>
      <use xlink:href="#DejaVuSans-73" x="167.244141"/>
     </g>
    </g>
   </g>
   <g id="line2d_25">
    <path d="M 73.832727 213.339427 
L 76.239805 189.089991 
L 79.248651 164.006052 
L 81.655728 147.268069 
L 84.062806 133.197112 
L 84.36369 132.128314 
L 85.266344 127.390801 
L 85.868114 124.918818 
L 86.168998 123.889516 
L 86.469883 122.366244 
L 86.770768 121.643443 
L 87.071652 119.835411 
L 87.974306 117.509411 
L 88.275191 116.03337 
L 88.87696 114.902426 
L 89.177845 113.653843 
L 89.478729 113.33288 
L 90.080499 111.422151 
L 90.381383 111.189827 
L 90.682268 110.159029 
L 90.983153 110.186376 
L 91.284037 109.241985 
L 91.584922 109.645257 
L 92.186691 107.724252 
L 92.487576 108.32456 
L 92.788461 107.904377 
L 93.089345 107.182157 
L 93.39023 107.268873 
L 93.691115 106.590603 
L 94.292884 106.759957 
L 94.593769 105.955798 
L 94.894653 106.659996 
L 95.195538 106.840558 
L 95.797307 106.410859 
L 96.098192 106.975765 
L 96.399077 106.947451 
L 96.699961 107.394442 
L 97.000846 106.837348 
L 97.301731 106.82109 
L 97.602615 107.086902 
L 97.9035 106.955058 
L 98.204385 107.975632 
L 98.505269 108.125447 
L 98.806154 108.758106 
L 99.107039 108.714352 
L 99.407923 109.011656 
L 99.708808 109.52782 
L 100.009692 109.678277 
L 100.310577 110.563597 
L 100.912346 110.779529 
L 101.213231 111.602054 
L 101.514116 111.380182 
L 102.115885 113.030828 
L 102.41677 114.175443 
L 103.018539 114.88499 
L 103.319424 115.476405 
L 103.620308 115.444671 
L 103.921193 116.679464 
L 104.222078 116.652436 
L 104.522962 117.123821 
L 104.823847 118.200704 
L 105.124732 117.941398 
L 106.027386 121.884191 
L 106.32827 122.041906 
L 106.629155 121.872434 
L 106.93004 123.527611 
L 107.230924 123.443199 
L 107.531809 124.19703 
L 107.832694 125.351999 
L 108.133578 124.795188 
L 108.434463 126.277586 
L 108.735348 126.416147 
L 109.036232 127.334348 
L 109.337117 128.944516 
L 109.938886 130.846239 
L 110.239771 130.545807 
L 110.540655 132.363441 
L 110.84154 132.15273 
L 111.443309 133.749746 
L 111.744194 133.769646 
L 112.045079 135.369646 
L 112.345963 135.207055 
L 112.646848 136.276002 
L 112.947733 138.166085 
L 113.248617 139.139932 
L 113.549502 139.389069 
L 113.850387 139.478727 
L 114.151271 141.342436 
L 114.452156 140.474593 
L 114.753041 142.271067 
L 115.053925 142.345733 
L 115.35481 142.994604 
L 115.655695 143.977328 
L 115.956579 144.03194 
L 116.257464 144.99066 
L 116.859233 148.201615 
L 117.160118 147.712146 
L 118.363657 150.754073 
L 118.664541 150.828549 
L 118.965426 151.354839 
L 119.266311 152.634207 
L 119.567195 152.005212 
L 119.86808 153.335355 
L 120.168965 155.279149 
L 120.469849 156.397673 
L 120.770734 156.167902 
L 121.071619 156.486855 
L 121.372503 157.862023 
L 121.673388 157.767234 
L 121.974272 158.557574 
L 122.275157 158.815409 
L 122.576042 158.809808 
L 122.876926 160.67023 
L 123.177811 159.945808 
L 123.478696 160.914489 
L 124.080465 164.104734 
L 124.38135 163.817533 
L 124.682234 164.138438 
L 124.983119 165.384696 
L 125.284004 164.897474 
L 125.584888 165.689358 
L 126.186658 166.066759 
L 126.487542 168.031238 
L 126.788427 166.792906 
L 127.390196 169.424538 
L 127.691081 171.325209 
L 127.991966 170.203116 
L 128.29285 170.798296 
L 128.593735 171.824592 
L 128.89462 171.502574 
L 129.195504 172.076728 
L 129.496389 172.018667 
L 129.797274 172.248576 
L 130.098158 174.347036 
L 130.399043 173.015057 
L 131.301697 177.130386 
L 131.602582 176.308781 
L 132.204351 177.625034 
L 132.505235 177.494605 
L 132.80612 177.984339 
L 133.107005 177.834036 
L 133.407889 178.339359 
L 133.708774 179.895085 
L 134.009659 178.567082 
L 134.310543 179.450183 
L 134.912313 182.642275 
L 135.213197 181.690238 
L 135.514082 182.10478 
L 135.814967 183.361326 
L 136.115851 182.517896 
L 136.416736 182.39163 
L 136.717621 182.64147 
L 137.018505 183.501981 
L 137.31939 185.23698 
L 137.620275 183.503622 
L 138.222044 185.735548 
L 138.522929 187.49863 
L 138.823813 186.556088 
L 139.124698 186.98609 
L 139.425583 187.612793 
L 139.726467 187.057235 
L 140.027352 187.296597 
L 140.328237 187.018416 
L 140.629121 187.751105 
L 140.930006 189.353923 
L 141.230891 187.954284 
L 141.531775 188.504648 
L 142.133545 191.277837 
L 142.434429 190.373762 
L 142.735314 190.999578 
L 143.036199 191.311839 
L 143.337083 190.857766 
L 143.637968 190.908505 
L 143.938852 190.575876 
L 144.239737 191.135205 
L 144.540622 192.874051 
L 144.841506 191.488126 
L 145.142391 191.749893 
L 145.74416 194.461668 
L 146.045045 193.681984 
L 146.34593 193.920038 
L 146.646814 194.477991 
L 146.947699 193.783596 
L 147.248584 193.589268 
L 147.549468 193.138639 
L 147.850353 193.773785 
L 148.151238 195.662042 
L 148.452122 193.951073 
L 148.753007 194.021109 
L 149.354776 196.700757 
L 149.655661 195.795432 
L 149.956546 196.22528 
L 150.25743 196.374138 
L 150.558315 195.646695 
L 150.8592 195.450184 
L 151.160084 194.721733 
L 151.460969 195.750806 
L 151.761854 197.219126 
L 152.062738 195.382354 
L 152.363623 195.378149 
L 152.664508 196.33232 
L 152.965392 197.821389 
L 153.266277 197.255924 
L 153.868046 197.33292 
L 154.168931 196.615161 
L 154.469815 196.219234 
L 154.7707 195.373492 
L 155.071585 196.371131 
L 155.372469 197.930473 
L 155.673354 195.914456 
L 155.974239 195.85717 
L 156.275123 196.758231 
L 156.576008 198.325424 
L 156.876893 197.458185 
L 157.177777 197.736123 
L 157.478662 197.608725 
L 157.779547 196.750418 
L 158.080431 196.401382 
L 158.381316 195.435754 
L 158.682201 196.247165 
L 158.983085 197.641753 
L 159.28397 195.774748 
L 159.584855 195.642724 
L 159.885739 196.532035 
L 160.186624 197.848746 
L 160.487509 197.099539 
L 160.788393 197.307525 
L 161.089278 196.946199 
L 161.991932 194.867643 
L 162.292817 195.682433 
L 162.593701 197.125047 
L 162.894586 195.196705 
L 163.195471 194.853481 
L 163.79724 196.904196 
L 164.098125 196.332582 
L 164.399009 196.417763 
L 164.699894 196.138563 
L 165.301663 194.890675 
L 165.602548 193.857989 
L 165.903432 194.764677 
L 166.204317 196.15279 
L 166.505202 194.394479 
L 166.806086 193.90333 
L 167.106971 194.731446 
L 167.407856 196.095367 
L 167.70874 195.386545 
L 168.009625 195.598275 
L 168.31051 195.227002 
L 169.213164 193.042839 
L 169.514048 193.81677 
L 169.814933 195.245449 
L 170.115818 193.586964 
L 170.416702 193.100311 
L 170.717587 193.945587 
L 171.018472 195.296002 
L 171.319356 194.74585 
L 171.620241 194.814906 
L 171.921126 194.675013 
L 172.82378 192.49791 
L 173.124664 193.282894 
L 173.425549 194.700156 
L 173.726434 193.156674 
L 174.027318 192.620544 
L 174.328203 193.531653 
L 174.629088 194.798121 
L 174.929972 194.336032 
L 175.230857 194.634728 
L 175.531742 194.204741 
L 175.832626 193.491494 
L 176.133511 193.078411 
L 176.434395 192.085978 
L 177.036165 194.548904 
L 177.337049 192.839601 
L 177.637934 192.570932 
L 177.938819 193.378428 
L 178.239703 194.857449 
L 178.540588 194.514794 
L 178.841473 194.560268 
L 179.142357 194.334731 
L 179.744127 193.21673 
L 180.045011 192.432453 
L 180.345896 193.40863 
L 180.646781 194.96575 
L 180.947665 193.268166 
L 181.24855 193.047525 
L 181.549435 193.967719 
L 181.850319 195.297628 
L 182.151204 195.042473 
L 182.452089 195.135605 
L 182.752973 194.65659 
L 183.655627 191.717817 
L 184.257397 193.637688 
L 184.558281 191.891152 
L 184.859166 191.326621 
L 185.160051 192.00458 
L 185.460935 193.171253 
L 185.76182 192.477128 
L 186.062705 192.58036 
L 186.664474 191.308923 
L 186.965358 190.633751 
L 187.266243 189.411469 
L 187.868012 191.594048 
L 188.168897 189.643791 
L 188.469782 189.171603 
L 188.770666 189.908597 
L 189.071551 191.064008 
L 189.372436 190.481915 
L 189.67332 190.43407 
L 190.27509 189.421468 
L 190.876859 187.499432 
L 191.177744 188.133647 
L 191.478628 189.277715 
L 191.779513 187.499584 
L 192.080398 187.10345 
L 192.381282 187.864808 
L 192.682167 189.013855 
L 192.983052 188.590881 
L 193.283936 188.546743 
L 193.885706 187.230917 
L 194.487475 185.579348 
L 194.78836 186.228281 
L 195.089244 187.48923 
L 195.390129 185.696672 
L 195.691014 185.042398 
L 196.292783 186.870437 
L 196.593668 186.561694 
L 196.894552 186.497307 
L 197.496322 185.194038 
L 197.797206 184.472834 
L 198.098091 183.40972 
L 198.69986 185.249123 
L 199.000745 183.488325 
L 199.301629 183.18652 
L 199.903399 184.906841 
L 200.204283 184.608656 
L 200.505168 184.723239 
L 200.806053 184.117359 
L 201.708707 181.580084 
L 202.009591 182.301576 
L 202.310476 183.460438 
L 202.611361 181.751045 
L 202.912245 181.50728 
L 203.21313 181.942271 
L 203.514015 183.021811 
L 203.814899 182.593408 
L 204.115784 182.526097 
L 204.416669 182.124401 
L 204.717553 181.531104 
L 205.319323 179.530306 
L 205.921092 181.317599 
L 206.221977 179.878508 
L 206.522861 179.326612 
L 206.823746 180.11274 
L 207.124631 181.241954 
L 207.7264 180.497584 
L 208.027285 180.476744 
L 208.629054 178.326601 
L 208.929938 177.622653 
L 209.531708 179.327777 
L 209.832592 177.839264 
L 210.133477 177.208916 
L 210.735246 179.164525 
L 211.036131 178.669059 
L 211.337016 178.838403 
L 211.6379 178.25489 
L 212.540554 175.568109 
L 212.841439 176.375174 
L 213.142324 177.550183 
L 213.443208 175.646784 
L 213.744093 175.383945 
L 214.345862 177.034835 
L 214.646747 176.792402 
L 214.947632 176.721111 
L 215.248516 176.206396 
L 216.15117 173.781854 
L 216.75294 175.240557 
L 217.053824 173.584299 
L 217.354709 173.453834 
L 217.956478 175.077748 
L 218.558248 174.281451 
L 218.859132 174.269359 
L 219.460902 172.347704 
L 219.761786 171.582102 
L 220.062671 172.145486 
L 220.363555 173.700284 
L 220.66444 171.254578 
L 220.965325 171.147546 
L 221.266209 171.943835 
L 221.567094 173.143789 
L 221.867979 172.451599 
L 222.168863 172.550656 
L 222.469748 172.385949 
L 223.071517 170.340327 
L 223.372402 169.828636 
L 223.673287 169.835595 
L 223.974171 171.179406 
L 224.275056 169.418479 
L 224.575941 169.266165 
L 225.17771 171.297944 
L 225.478595 170.61549 
L 225.779479 170.581148 
L 226.080364 170.115384 
L 226.983018 167.308491 
L 227.283903 168.156329 
L 227.584787 169.346858 
L 227.885672 167.19784 
L 228.186557 166.737011 
L 228.788326 168.962802 
L 229.69098 167.720988 
L 229.991865 167.608958 
L 230.292749 166.25285 
L 230.593634 165.414823 
L 231.195403 166.99822 
L 231.496288 165.163818 
L 231.797172 164.773291 
L 232.098057 166.056511 
L 232.398942 166.664354 
L 232.699826 166.616467 
L 233.000711 165.739485 
L 233.301596 165.872113 
L 233.60248 165.26608 
L 234.20425 162.794915 
L 234.505134 163.494276 
L 234.806019 165.046656 
L 235.106904 163.369717 
L 235.407788 163.248718 
L 235.708673 163.495374 
L 236.009558 164.561528 
L 236.310442 163.866914 
L 236.611327 163.81123 
L 236.912212 163.368856 
L 237.213096 163.41359 
L 237.814866 160.734223 
L 238.11575 161.550144 
L 238.416635 162.947623 
L 238.71752 161.013922 
L 239.018404 160.423721 
L 239.620174 162.91128 
L 239.921058 162.264685 
L 240.221943 162.008818 
L 240.522828 160.838452 
L 240.823712 160.605035 
L 241.124597 159.920272 
L 241.425482 158.587316 
L 241.726366 159.413513 
L 242.027251 160.966958 
L 242.328135 158.632222 
L 242.62902 157.95703 
L 243.230789 160.464661 
L 243.531674 159.420757 
L 244.133443 159.503228 
L 245.036097 156.508593 
L 245.637867 157.82649 
L 245.938751 156.577432 
L 246.239636 156.129461 
L 246.841405 157.98932 
L 247.443175 157.07439 
L 247.744059 157.269206 
L 248.044944 155.794302 
L 248.345829 155.163872 
L 248.646713 153.947644 
L 248.947598 155.767966 
L 249.248483 155.944903 
L 249.549367 154.362939 
L 249.850252 153.691833 
L 250.151137 155.29281 
L 250.452021 156.118236 
L 250.752906 155.269074 
L 251.354675 154.656957 
L 251.956445 153.149902 
L 252.257329 151.694663 
L 252.859098 153.543078 
L 253.159983 151.833572 
L 253.460868 151.458947 
L 254.062637 153.465887 
L 254.363522 152.90185 
L 254.965291 152.591785 
L 255.56706 150.789099 
L 255.867945 149.365539 
L 256.16883 151.040402 
L 256.469714 151.298028 
L 256.770599 149.14274 
L 257.372368 149.691458 
L 257.673253 152.077967 
L 257.974138 150.69769 
L 258.575907 150.14629 
L 258.876792 149.125119 
L 259.177676 148.585076 
L 259.478561 146.935178 
L 259.779446 147.9844 
L 260.08033 149.647801 
L 260.381215 146.945485 
L 260.6821 147.044769 
L 261.283869 148.859868 
L 261.584754 148.55725 
L 261.885638 147.767815 
L 262.186523 147.646949 
L 262.487408 147.154106 
L 262.788292 145.68649 
L 263.089177 144.821414 
L 263.390062 145.848736 
L 263.690946 146.410685 
L 263.991831 144.81535 
L 264.292715 144.14534 
L 264.894485 146.760158 
L 265.195369 145.857673 
L 265.496254 145.788631 
L 265.797139 145.264964 
L 266.098023 145.040694 
L 266.398908 143.302751 
L 266.699793 142.921327 
L 267.000677 143.165085 
L 267.301562 144.18195 
L 267.602447 142.150081 
L 267.903331 142.297679 
L 268.204216 143.712884 
L 268.505101 144.331199 
L 268.805985 143.227823 
L 269.10687 143.343882 
L 269.407755 142.760238 
L 270.310409 140.505766 
L 270.912178 142.309169 
L 271.213063 139.298099 
L 271.513947 140.483023 
L 272.115717 141.475036 
L 273.018371 140.567203 
L 273.921025 137.721687 
L 274.221909 138.24575 
L 274.522794 139.644707 
L 274.823678 137.548665 
L 275.124563 137.35273 
L 275.726332 139.562723 
L 276.027217 138.116087 
L 276.328102 138.568966 
L 276.628986 138.405074 
L 276.929871 136.784008 
L 277.230756 136.461923 
L 277.53164 135.028376 
L 278.13341 137.199398 
L 278.434294 134.869324 
L 278.735179 135.743848 
L 279.036064 134.911756 
L 279.336948 137.011219 
L 279.637833 136.848243 
L 279.938718 135.299393 
L 280.239602 135.405392 
L 280.540487 134.766103 
L 281.142256 132.673491 
L 281.443141 133.286894 
L 281.744026 134.825055 
L 282.04491 131.937559 
L 282.345795 133.084267 
L 282.64668 133.42134 
L 282.947564 134.27812 
L 283.248449 133.822756 
L 283.549334 133.678023 
L 283.850218 132.754971 
L 284.151103 132.608222 
L 284.451988 131.159369 
L 284.752872 130.617037 
L 285.053757 130.9491 
L 285.354642 132.606612 
L 285.655526 129.339816 
L 285.956411 129.739396 
L 286.257295 131.798771 
L 286.55818 132.315243 
L 286.859065 131.478898 
L 287.159949 131.140786 
L 287.761719 129.772066 
L 288.062603 128.383945 
L 288.363488 128.167273 
L 288.664373 129.429984 
L 288.965257 129.672563 
L 289.266142 127.298303 
L 289.567027 127.543244 
L 290.168796 129.718714 
L 290.469681 128.546284 
L 290.770565 128.395112 
L 291.07145 128.929282 
L 291.974104 125.232221 
L 292.575873 127.018954 
L 292.876758 124.315686 
L 293.177643 124.66501 
L 293.478527 126.518427 
L 293.779412 127.200673 
L 294.682066 125.727569 
L 294.982951 125.892402 
L 295.283835 122.824951 
L 295.58472 122.643587 
L 296.186489 124.466303 
L 296.487374 121.918456 
L 296.788258 122.739721 
L 297.390028 125.058613 
L 297.991797 123.855647 
L 298.292682 123.642775 
L 298.593566 121.827265 
L 298.894451 121.58951 
L 299.195336 120.233206 
L 299.49622 120.489966 
L 299.797105 122.562493 
L 300.09799 119.654634 
L 300.398874 120.48814 
L 300.699759 120.969786 
L 301.000644 122.145575 
L 301.301528 120.773527 
L 301.602413 120.59992 
L 301.903298 121.340331 
L 302.204182 120.333485 
L 302.505067 118.289545 
L 303.106836 118.86375 
L 303.407721 119.553922 
L 303.708606 117.055657 
L 304.310375 119.187903 
L 304.61126 119.445846 
L 304.912144 118.3398 
L 305.213029 117.876479 
L 305.513914 118.178233 
L 305.814798 117.215223 
L 306.115683 115.607519 
L 306.416568 115.281221 
L 306.717452 117.149702 
L 307.018337 117.098279 
L 307.319222 114.208129 
L 307.620106 114.909745 
L 307.920991 116.642648 
L 308.52276 116.883078 
L 308.823645 115.154541 
L 309.124529 115.165579 
L 309.425414 115.53204 
L 309.726299 113.485641 
L 310.027183 112.28805 
L 310.628953 114.773581 
L 310.929837 111.760659 
L 311.230722 112.037899 
L 311.531607 114.093901 
L 311.832491 114.988597 
L 312.133376 114.454669 
L 312.735145 111.956506 
L 313.03603 112.880159 
L 313.637799 109.594076 
L 314.239569 112.814345 
L 314.540453 109.240226 
L 314.841338 110.093652 
L 315.443107 112.501966 
L 315.743992 111.094774 
L 316.044877 110.576877 
L 316.345761 111.456046 
L 316.646646 109.113834 
L 316.947531 108.295968 
L 317.248415 107.887254 
L 317.5493 109.236435 
L 317.850185 108.464747 
L 318.151069 107.360059 
L 318.451954 107.663782 
L 318.752838 108.90503 
L 319.354608 109.093492 
L 319.655492 107.072403 
L 319.956377 108.175075 
L 320.257262 107.2842 
L 320.859031 104.870645 
L 321.4608 106.90917 
L 321.761685 104.876256 
L 322.06257 104.53367 
L 322.363454 106.198213 
L 322.664339 106.947714 
L 322.965224 106.808016 
L 323.266108 105.34741 
L 323.566993 105.719478 
L 323.867878 104.503078 
L 324.168762 104.545279 
L 324.469647 102.379205 
L 324.770532 104.159658 
L 325.071416 103.187267 
L 325.372301 102.945618 
L 325.673186 102.51827 
L 325.97407 102.568556 
L 326.274955 105.025109 
L 326.57584 103.549454 
L 326.876724 103.00849 
L 327.177609 103.54123 
L 328.080263 99.536774 
L 328.381148 101.449426 
L 328.682032 102.217848 
L 328.982917 99.188509 
L 329.885571 102.072061 
L 330.186455 100.649197 
L 330.48734 100.885394 
L 330.788225 100.028717 
L 331.089109 98.117125 
L 331.389994 98.180845 
L 331.690879 97.348003 
L 331.991763 97.992276 
L 332.292648 99.548979 
L 332.593533 97.280219 
L 332.894417 97.134699 
L 333.195302 98.844339 
L 333.496187 99.427314 
L 333.797071 99.240951 
L 334.097956 97.968112 
L 335.00061 96.252563 
L 335.301495 94.983849 
L 335.602379 96.630206 
L 335.903264 97.616391 
L 336.204149 93.422939 
L 336.805918 96.219805 
L 337.106803 95.856604 
L 337.407687 96.853956 
L 337.708572 96.040246 
L 338.009457 96.042977 
L 338.310341 93.908324 
L 338.611226 93.218394 
L 339.212995 93.390958 
L 339.51388 93.601139 
L 339.814765 91.65179 
L 340.115649 91.623301 
L 340.717418 95.614143 
L 341.018303 93.79978 
L 341.319188 93.728838 
L 341.620072 92.305367 
L 341.920957 92.334401 
L 342.522726 89.925434 
L 342.823611 91.403887 
L 343.124496 92.306159 
L 343.42538 88.428979 
L 344.02715 91.489996 
L 344.328034 92.497671 
L 344.628919 91.411283 
L 344.929804 89.598113 
L 345.230688 90.127073 
L 345.531573 89.313168 
L 345.832458 87.564341 
L 346.133342 86.973692 
L 346.434227 87.855818 
L 346.735112 89.27449 
L 347.035996 86.243073 
L 347.336881 87.00862 
L 347.637766 89.420499 
L 347.93865 89.62437 
L 348.239535 90.049954 
L 348.54042 87.786203 
L 348.841304 87.670885 
L 349.142189 87.200636 
L 349.743958 83.997777 
L 350.044843 85.981443 
L 350.345728 86.895267 
L 350.646612 83.023683 
L 350.947497 84.910973 
L 351.248381 86.07304 
L 351.549266 87.881514 
L 351.850151 86.643141 
L 352.151035 85.992398 
L 352.45192 84.363004 
L 352.752805 84.223157 
L 353.053689 84.213457 
L 353.354574 81.802093 
L 353.655459 83.846049 
L 353.956343 84.514331 
L 354.257228 81.94607 
L 354.558113 82.748068 
L 355.159882 85.061529 
L 355.460767 83.784133 
L 355.761651 83.463854 
L 356.062536 82.873436 
L 356.96519 80.496214 
L 357.266075 80.881953 
L 357.566959 82.4912 
L 357.867844 79.37624 
L 358.168729 80.681841 
L 358.469613 80.762175 
L 358.770498 82.37114 
L 359.071383 81.829604 
L 359.372267 80.209792 
L 359.673152 80.465302 
L 359.974037 79.820875 
L 360.575806 77.192226 
L 360.876691 79.285954 
L 361.177575 79.131001 
L 361.47846 77.194973 
L 361.779345 77.386747 
L 362.080229 79.020564 
L 362.381114 80.016604 
L 362.681998 78.608882 
L 362.982883 77.766221 
L 363.283768 78.548407 
L 363.584652 78.205708 
L 363.885537 75.258543 
L 364.186422 74.784869 
L 364.487306 75.53671 
L 364.788191 77.49902 
L 365.089076 73.526916 
L 365.38996 73.696609 
L 365.690845 77.121588 
L 365.99173 77.078564 
L 366.292614 76.213242 
L 366.593499 77.761597 
L 366.894384 74.850256 
L 367.195268 75.044771 
L 367.496153 74.425166 
L 367.797038 72.274095 
L 368.398807 75.257998 
L 368.699692 70.844674 
L 369.602346 75.33773 
L 369.90323 73.765684 
L 370.204115 73.155074 
L 370.505 72.824811 
L 370.805884 71.654073 
L 371.106769 71.051106 
L 371.407654 71.43398 
L 371.708538 71.09162 
L 372.009423 71.731696 
L 372.310308 69.247569 
L 372.611192 70.586808 
L 372.912077 71.378159 
L 373.212961 73.354769 
L 373.814731 71.177832 
L 374.115615 70.983389 
L 374.4165 68.83076 
L 374.717385 69.622266 
L 375.018269 67.740082 
L 375.319154 69.530869 
L 375.620039 70.343858 
L 375.920923 67.730835 
L 376.221808 67.437928 
L 376.522693 70.560577 
L 376.823577 70.318815 
L 377.124462 69.779317 
L 377.425347 68.487315 
L 377.726231 68.104513 
L 378.027116 66.513153 
L 378.328001 66.905728 
L 378.92977 65.774953 
L 379.230655 67.828465 
L 379.531539 65.446063 
L 379.832424 66.479511 
L 380.133309 66.185503 
L 380.434193 67.618546 
L 380.735078 67.607164 
L 381.035963 65.83692 
L 381.336847 66.85199 
L 381.637732 64.157512 
L 381.938617 63.987104 
L 382.239501 63.217812 
L 382.540386 63.873946 
L 382.841271 64.033867 
L 383.142155 62.118767 
L 384.044809 66.606654 
L 384.345694 64.348576 
L 384.646578 64.705914 
L 385.549232 62.457243 
L 385.850117 62.124033 
L 386.151002 61.417449 
L 386.451886 62.690035 
L 386.752771 58.307905 
L 387.053656 61.524944 
L 387.35454 61.761702 
L 387.655425 64.006237 
L 387.95631 62.210138 
L 388.257194 62.386147 
L 388.558079 60.521827 
L 389.159848 59.177558 
L 389.761618 59.796176 
L 390.062502 59.174375 
L 390.363387 56.454679 
L 390.965156 60.352046 
L 391.266041 60.008241 
L 391.566926 59.988053 
L 391.86781 60.560726 
L 392.168695 59.990069 
L 392.46958 60.04464 
L 392.770464 56.901237 
L 393.071349 56.312224 
L 393.372234 57.120425 
L 393.673118 59.51533 
L 393.974003 54.718535 
L 394.274888 55.273381 
L 394.575772 58.017796 
L 395.177541 59.067327 
L 395.478426 58.398247 
L 395.779311 56.217273 
L 396.080195 56.866073 
L 396.38108 53.568 
L 396.681965 54.859205 
L 396.982849 54.150121 
L 397.283734 56.195342 
L 397.584619 54.696414 
L 397.885503 54.069227 
L 398.487273 55.312944 
L 398.487273 55.312944 
" clip-path="url(#p0d29d94b9e)" style="fill: none; stroke: #6495ed; stroke-width: 2; stroke-linecap: square"/>
   </g>
   <g id="line2d_26">
    <path d="M 73.832727 213.765069 
L 74.735381 222.916981 
L 76.239805 234.63743 
L 78.045112 245.802628 
L 79.549536 253.936251 
L 79.85042 254.65116 
L 81.354844 261.67 
L 81.655728 262.273854 
L 82.558382 264.98871 
L 82.859267 267.012275 
L 83.160152 267.828919 
L 83.461036 267.91328 
L 84.96546 272.983314 
L 85.266344 273.114847 
L 85.868114 274.153846 
L 86.168998 274.648596 
L 86.469883 276.451511 
L 86.770768 276.794163 
L 87.071652 276.549271 
L 87.673422 277.845066 
L 87.974306 278.899012 
L 88.275191 279.175798 
L 88.576075 280.060141 
L 88.87696 279.693211 
L 89.177845 280.04656 
L 89.478729 280.170131 
L 89.779614 280.575148 
L 90.080499 282.158201 
L 90.381383 282.182833 
L 90.682268 281.545646 
L 91.284037 282.41244 
L 91.584922 283.123954 
L 91.885807 283.099708 
L 92.186691 284.058683 
L 92.487576 283.200284 
L 92.788461 283.198396 
L 93.39023 283.352181 
L 93.691115 284.912663 
L 93.991999 284.6588 
L 94.292884 283.64213 
L 94.593769 284.102323 
L 94.894653 284.052571 
L 95.195538 284.760056 
L 95.496423 284.494402 
L 95.797307 285.219572 
L 96.098192 284.163195 
L 96.699961 283.729747 
L 97.000846 283.858423 
L 97.301731 285.257167 
L 97.602615 284.743531 
L 97.9035 283.72409 
L 98.505269 283.543623 
L 98.806154 284.1104 
L 99.107039 283.733116 
L 99.407923 284.348868 
L 99.708808 283.070863 
L 100.611462 282.268246 
L 100.912346 283.666708 
L 101.514116 281.760791 
L 101.815 281.638304 
L 102.115885 281.164158 
L 102.41677 281.564538 
L 102.717654 281.07158 
L 103.018539 281.640635 
L 103.319424 280.081294 
L 103.620308 279.84621 
L 103.921193 279.205799 
L 104.222078 279.178416 
L 104.522962 280.502775 
L 105.124732 278.313875 
L 105.425616 277.97882 
L 105.726501 277.282685 
L 106.027386 277.461028 
L 106.32827 277.031827 
L 106.629155 277.755372 
L 106.93004 275.668978 
L 107.230924 275.461574 
L 107.531809 274.831769 
L 107.832694 274.474316 
L 108.133578 276.114853 
L 108.434463 274.527155 
L 108.735348 273.539975 
L 109.036232 273.091856 
L 109.337117 272.023741 
L 109.638002 272.452557 
L 109.938886 271.825456 
L 110.239771 272.586605 
L 110.540655 270.197085 
L 110.84154 270.103902 
L 111.142425 269.326807 
L 111.443309 269.0917 
L 111.744194 270.603493 
L 112.045079 268.69479 
L 112.646848 267.296593 
L 112.947733 265.91327 
L 113.248617 266.323822 
L 113.549502 265.967287 
L 113.850387 266.6242 
L 114.151271 263.992218 
L 114.452156 264.227774 
L 114.753041 263.032176 
L 115.053925 263.047227 
L 115.35481 264.399628 
L 115.655695 262.418974 
L 116.257464 261.028317 
L 116.558349 259.549433 
L 116.859233 259.774438 
L 117.160118 259.772796 
L 117.461003 260.205808 
L 117.761887 257.688636 
L 118.062772 257.612801 
L 118.363657 256.549902 
L 118.664541 256.638658 
L 118.965426 258.043208 
L 119.266311 255.801893 
L 119.567195 255.570261 
L 119.86808 254.575631 
L 120.168965 252.864002 
L 120.469849 253.238176 
L 120.770734 253.238865 
L 121.071619 253.821936 
L 121.372503 251.048892 
L 121.673388 251.261028 
L 121.974272 250.14861 
L 122.275157 250.197128 
L 122.576042 251.813812 
L 122.876926 249.227856 
L 123.177811 249.194906 
L 123.478696 248.22495 
L 123.77958 246.570832 
L 124.38135 246.862506 
L 124.682234 247.43531 
L 124.983119 244.66518 
L 125.284004 245.12518 
L 125.584888 243.967126 
L 125.885773 244.124103 
L 126.186658 245.59316 
L 126.487542 242.88254 
L 126.788427 243.245285 
L 127.089312 242.139435 
L 127.390196 240.473532 
L 127.691081 240.53333 
L 128.29285 241.517199 
L 128.593735 238.858305 
L 128.89462 239.33871 
L 129.195504 238.187198 
L 129.496389 238.489095 
L 129.797274 239.918024 
L 130.098158 237.133183 
L 130.399043 237.68895 
L 131.000812 234.944607 
L 131.301697 235.077795 
L 131.903466 235.915004 
L 132.204351 233.523366 
L 132.505235 233.95578 
L 132.80612 232.795536 
L 133.107005 233.176302 
L 133.407889 234.328172 
L 133.708774 231.824525 
L 134.009659 232.515487 
L 134.310543 231.468754 
L 134.611428 229.827132 
L 134.912313 229.942278 
L 135.514082 230.990705 
L 135.814967 228.379831 
L 136.115851 229.122852 
L 136.416736 228.341404 
L 136.717621 228.601834 
L 137.018505 229.421541 
L 137.31939 226.921007 
L 137.620275 227.875954 
L 137.921159 226.810133 
L 138.222044 225.253449 
L 138.522929 225.313983 
L 138.823813 225.708653 
L 139.124698 226.308217 
L 139.425583 224.223076 
L 139.726467 224.811355 
L 140.027352 223.855961 
L 140.328237 224.32771 
L 140.629121 225.080543 
L 140.930006 222.826498 
L 141.230891 223.645839 
L 141.531775 222.810592 
L 141.83266 221.223854 
L 142.133545 221.437859 
L 142.735314 222.377826 
L 143.036199 220.624773 
L 143.337083 221.141898 
L 143.637968 220.280288 
L 144.239737 221.480238 
L 144.540622 219.321082 
L 144.841506 220.199405 
L 145.142391 219.522263 
L 145.443276 218.061523 
L 145.74416 218.197438 
L 146.045045 218.456475 
L 146.34593 219.269416 
L 146.646814 217.574672 
L 146.947699 218.170253 
L 147.248584 217.49558 
L 147.850353 218.631443 
L 148.151238 216.540429 
L 148.452122 217.632835 
L 148.753007 217.13831 
L 149.053892 215.806186 
L 149.354776 215.906572 
L 149.655661 216.197744 
L 149.956546 216.953808 
L 150.25743 215.648628 
L 150.558315 216.251035 
L 150.8592 215.671192 
L 151.160084 216.446732 
L 151.460969 216.549313 
L 151.761854 214.861008 
L 152.062738 216.055356 
L 152.363623 215.71854 
L 152.664508 214.52041 
L 153.266277 214.638175 
L 153.567162 215.652601 
L 153.868046 214.637226 
L 154.168931 215.181608 
L 154.469815 214.785301 
L 154.7707 215.628955 
L 155.071585 215.633232 
L 155.372469 214.089077 
L 155.673354 215.382828 
L 155.974239 215.19035 
L 156.275123 214.082414 
L 156.576008 214.093978 
L 156.876893 214.250264 
L 157.177777 215.221308 
L 157.478662 214.423121 
L 157.779547 215.03073 
L 158.080431 214.681029 
L 158.381316 215.553964 
L 158.682201 215.608068 
L 158.983085 214.32916 
L 159.28397 215.516522 
L 159.584855 215.416312 
L 159.885739 214.370732 
L 160.487509 214.568154 
L 160.788393 215.631197 
L 161.089278 215.099465 
L 161.390163 215.561186 
L 161.691047 215.485935 
L 161.991932 216.2503 
L 162.292817 216.152425 
L 162.593701 214.985936 
L 162.894586 216.195984 
L 163.195471 216.281932 
L 163.496355 215.254906 
L 163.79724 215.494965 
L 164.098125 215.440616 
L 164.399009 216.609454 
L 164.699894 216.143188 
L 165.000778 216.536997 
L 165.301663 216.432665 
L 165.602548 217.303721 
L 165.903432 217.118362 
L 166.204317 216.118447 
L 166.505202 217.228609 
L 166.806086 217.40165 
L 167.106971 216.439282 
L 167.407856 216.554905 
L 167.70874 216.517423 
L 168.009625 217.645732 
L 168.31051 217.309376 
L 168.611394 217.634781 
L 168.912279 217.782738 
L 169.213164 218.44626 
L 169.514048 218.231272 
L 169.814933 217.273062 
L 170.115818 218.314223 
L 170.416702 218.48998 
L 170.717587 217.58004 
L 171.018472 217.680571 
L 171.319356 217.492671 
L 171.620241 218.701951 
L 171.921126 218.312333 
L 172.22201 218.677273 
L 172.522895 218.727721 
L 172.82378 219.391421 
L 173.124664 219.103315 
L 173.425549 218.21188 
L 173.726434 219.145973 
L 174.027318 219.38216 
L 174.328203 218.417219 
L 174.629088 218.527667 
L 174.929972 218.291094 
L 175.230857 219.366464 
L 175.531742 219.131581 
L 175.832626 219.423191 
L 176.133511 219.461542 
L 176.434395 220.132931 
L 176.73528 219.657729 
L 177.036165 218.763426 
L 177.337049 219.756768 
L 177.637934 219.859152 
L 177.938819 218.960951 
L 178.239703 218.93899 
L 178.540588 218.612227 
L 178.841473 219.810767 
L 179.142357 219.499238 
L 179.744127 219.782148 
L 180.045011 220.339298 
L 180.345896 219.849206 
L 180.646781 218.925733 
L 180.947665 219.898294 
L 181.24855 219.941995 
L 181.549435 218.946172 
L 181.850319 218.958678 
L 182.151204 218.570284 
L 182.452089 219.724748 
L 182.752973 219.527402 
L 183.354743 220.264761 
L 183.655627 220.959288 
L 184.257397 219.940595 
L 184.558281 221.011463 
L 184.859166 221.210032 
L 185.160051 220.424956 
L 185.460935 220.556984 
L 185.76182 220.483338 
L 186.062705 221.663959 
L 186.363589 221.556487 
L 186.965358 222.177119 
L 187.266243 222.892233 
L 187.567128 222.487548 
L 187.868012 221.852807 
L 188.168897 222.97691 
L 188.469782 223.112922 
L 188.770666 222.348742 
L 189.071551 222.47664 
L 189.372436 222.362782 
L 189.67332 223.600786 
L 189.974205 223.493027 
L 190.27509 223.726611 
L 190.876859 224.718745 
L 191.177744 224.419493 
L 191.478628 223.867841 
L 191.779513 224.879358 
L 192.080398 224.969948 
L 192.381282 224.19617 
L 192.682167 224.334654 
L 192.983052 224.131145 
L 193.283936 225.328893 
L 193.584821 225.26208 
L 194.18659 225.984223 
L 194.487475 226.489816 
L 194.78836 226.171613 
L 195.089244 225.592229 
L 195.390129 226.593026 
L 195.691014 226.789604 
L 195.991898 225.914096 
L 196.292783 226.222634 
L 196.593668 225.946162 
L 196.894552 227.149549 
L 197.195437 227.137334 
L 197.797206 227.799284 
L 198.098091 228.331566 
L 198.69986 227.490346 
L 199.000745 228.481614 
L 199.301629 228.466946 
L 199.602514 227.681533 
L 199.903399 227.957737 
L 200.204283 227.683529 
L 200.505168 228.797747 
L 200.806053 228.747276 
L 201.708707 229.950027 
L 202.009591 229.640379 
L 202.310476 229.141728 
L 202.611361 230.039376 
L 202.912245 229.995409 
L 203.21313 229.413285 
L 203.514015 229.625834 
L 203.814899 229.405138 
L 204.115784 230.574041 
L 204.416669 230.463763 
L 204.717553 230.662853 
L 205.319323 231.64923 
L 205.921092 230.917941 
L 206.221977 231.691916 
L 206.522861 231.743804 
L 206.823746 231.040888 
L 207.124631 231.228398 
L 207.425515 230.967715 
L 207.7264 232.269695 
L 208.027285 231.967469 
L 208.929938 233.266328 
L 209.531708 232.578285 
L 209.832592 233.34851 
L 210.133477 233.441434 
L 210.434362 232.691813 
L 210.735246 232.913213 
L 211.036131 232.706916 
L 211.337016 233.75024 
L 211.6379 233.695889 
L 212.23967 234.429624 
L 212.540554 234.882074 
L 213.142324 234.100424 
L 213.443208 235.029704 
L 213.744093 234.934055 
L 214.044978 234.29102 
L 214.345862 234.578195 
L 214.646747 234.266704 
L 214.947632 235.405966 
L 215.248516 235.314814 
L 215.549401 235.62786 
L 215.850286 236.245015 
L 216.15117 236.387691 
L 216.75294 235.853964 
L 217.053824 236.642017 
L 217.354709 236.500251 
L 217.655594 235.802266 
L 217.956478 236.162328 
L 218.257363 235.90459 
L 218.558248 237.161624 
L 218.859132 236.891965 
L 219.761786 238.031181 
L 220.062671 237.810103 
L 220.363555 237.243623 
L 220.66444 238.31999 
L 220.965325 238.164662 
L 221.266209 237.518385 
L 221.567094 237.70529 
L 221.867979 237.5526 
L 222.168863 238.610714 
L 222.469748 238.376628 
L 222.770633 238.739984 
L 223.071517 239.311544 
L 223.673287 239.462052 
L 223.974171 239.01635 
L 224.275056 239.810879 
L 224.575941 239.61011 
L 224.876825 238.936359 
L 225.17771 239.152124 
L 225.478595 238.982046 
L 225.779479 240.094053 
L 226.080364 239.984328 
L 226.381249 240.345297 
L 226.682133 240.891216 
L 226.983018 241.171321 
L 227.584787 240.456683 
L 227.885672 241.413223 
L 228.186557 241.342109 
L 228.487441 240.555319 
L 228.788326 240.826075 
L 229.089211 240.537616 
L 229.390095 241.831333 
L 229.69098 241.682629 
L 229.991865 241.683934 
L 230.292749 242.36734 
L 230.593634 242.560307 
L 231.195403 242.109086 
L 231.496288 242.884099 
L 231.797172 242.77143 
L 232.098057 241.938691 
L 232.398942 242.416115 
L 232.699826 241.979016 
L 233.000711 243.39436 
L 233.301596 243.094084 
L 233.60248 243.259961 
L 234.20425 244.277567 
L 234.505134 244.064546 
L 234.806019 243.59346 
L 235.106904 244.236265 
L 235.407788 243.989808 
L 235.708673 243.591854 
L 236.009558 243.928281 
L 236.310442 243.755384 
L 236.611327 244.839841 
L 237.213096 244.666804 
L 237.814866 245.675725 
L 238.11575 245.477961 
L 238.416635 245.051726 
L 238.71752 245.801033 
L 239.018404 245.743073 
L 239.319289 244.898302 
L 239.620174 245.178713 
L 239.921058 244.972455 
L 240.221943 246.120628 
L 241.124597 246.805777 
L 241.425482 247.153608 
L 241.726366 246.927983 
L 242.027251 246.435728 
L 242.328135 247.364792 
L 242.62902 247.358941 
L 242.929905 246.578173 
L 243.230789 246.81041 
L 243.531674 246.761676 
L 243.832559 247.798975 
L 244.133443 247.507813 
L 244.434328 247.814252 
L 244.735213 248.450667 
L 245.036097 248.598517 
L 245.336982 248.367929 
L 245.637867 248.317359 
L 245.938751 248.80905 
L 246.239636 248.641334 
L 246.540521 248.09109 
L 246.841405 248.374846 
L 247.14229 248.139219 
L 247.443175 249.306738 
L 247.744059 248.923987 
L 248.345829 249.893915 
L 248.646713 250.214366 
L 248.947598 249.532512 
L 249.248483 249.606575 
L 249.549367 250.219093 
L 249.850252 250.160827 
L 250.151137 249.298245 
L 250.452021 249.654422 
L 250.752906 249.513992 
L 251.053791 250.671957 
L 251.354675 250.536338 
L 251.65556 250.760538 
L 252.257329 251.5931 
L 252.859098 251.174779 
L 253.159983 251.832802 
L 253.460868 251.611205 
L 253.761752 250.945475 
L 254.062637 251.339275 
L 254.363522 251.090067 
L 254.664406 252.180034 
L 254.965291 251.880295 
L 255.867945 253.02404 
L 256.16883 252.508529 
L 256.469714 252.555723 
L 256.770599 253.397059 
L 257.372368 252.583646 
L 257.673253 252.396691 
L 257.974138 252.41239 
L 258.275022 253.553454 
L 258.575907 253.360227 
L 259.478561 254.447202 
L 259.779446 254.205491 
L 260.08033 253.718175 
L 260.381215 254.71698 
L 260.6821 254.300524 
L 260.982984 253.683147 
L 261.283869 254.121669 
L 261.584754 253.758755 
L 261.885638 255.05772 
L 262.186523 254.806743 
L 262.487408 255.009744 
L 262.788292 255.710687 
L 263.089177 255.818525 
L 263.390062 255.529486 
L 263.690946 255.530048 
L 263.991831 256.085241 
L 264.292715 255.962255 
L 264.5936 255.193959 
L 264.894485 255.455815 
L 265.195369 255.310288 
L 265.496254 256.36773 
L 265.797139 256.246656 
L 266.098023 256.320808 
L 266.398908 257.100725 
L 267.301562 256.830394 
L 267.602447 257.532336 
L 267.903331 257.141692 
L 268.204216 256.399186 
L 268.505101 256.790462 
L 268.805985 256.849347 
L 269.10687 257.712124 
L 269.407755 257.652126 
L 270.009524 258.577906 
L 270.310409 258.448083 
L 270.912178 257.981854 
L 271.213063 259.033261 
L 271.814832 257.802961 
L 272.115717 258.388335 
L 272.416601 257.999432 
L 272.717486 259.128205 
L 273.018371 258.973697 
L 273.319255 259.331308 
L 273.62014 259.905992 
L 274.221909 259.834665 
L 274.522794 259.478402 
L 274.823678 260.228067 
L 275.124563 259.889314 
L 275.425448 259.249371 
L 275.726332 259.572214 
L 276.027217 259.623171 
L 276.328102 260.46699 
L 276.628986 260.135948 
L 276.929871 260.796173 
L 277.53164 261.34677 
L 278.13341 260.908238 
L 278.434294 261.657611 
L 278.735179 260.943815 
L 279.336948 260.981859 
L 279.637833 260.54589 
L 279.938718 262.075357 
L 280.239602 261.776863 
L 280.540487 262.067945 
L 280.841372 262.52135 
L 281.142256 262.601628 
L 281.443141 262.56451 
L 281.744026 262.174409 
L 282.04491 263.227932 
L 282.345795 262.373467 
L 282.64668 261.976176 
L 282.947564 262.361615 
L 283.248449 262.155597 
L 283.549334 263.133993 
L 284.151103 263.227842 
L 284.451988 263.823046 
L 285.053757 263.790494 
L 285.354642 263.368697 
L 285.655526 264.448145 
L 285.956411 263.928124 
L 286.257295 263.050292 
L 286.55818 263.499961 
L 286.859065 263.429631 
L 287.159949 264.444581 
L 287.460834 264.384604 
L 287.761719 264.687848 
L 288.062603 265.227868 
L 288.363488 265.125008 
L 288.664373 264.74723 
L 288.965257 264.796886 
L 289.266142 265.644787 
L 289.867911 264.555363 
L 290.168796 264.844384 
L 290.469681 264.810064 
L 290.770565 265.786716 
L 291.07145 265.271445 
L 291.673219 266.336166 
L 291.974104 266.487551 
L 292.274989 266.373208 
L 292.575873 266.112335 
L 292.876758 267.11347 
L 293.177643 266.564686 
L 293.478527 265.711818 
L 293.779412 266.12242 
L 294.080297 265.938253 
L 294.381181 267.004816 
L 294.682066 266.831002 
L 294.982951 266.816231 
L 295.283835 267.947498 
L 295.58472 267.82007 
L 296.186489 267.389471 
L 296.487374 268.335693 
L 297.089143 266.857568 
L 297.390028 267.212449 
L 297.690912 267.02995 
L 297.991797 268.085895 
L 298.292682 267.848409 
L 298.593566 268.591729 
L 299.195336 268.936001 
L 299.49622 268.992912 
L 299.797105 268.47433 
L 300.09799 269.404173 
L 300.398874 268.686335 
L 300.699759 268.259635 
L 301.000644 268.58861 
L 301.301528 268.714025 
L 301.602413 269.630973 
L 301.903298 269.064117 
L 302.204182 269.515622 
L 302.505067 270.212273 
L 302.805952 269.895314 
L 303.106836 269.995168 
L 303.407721 269.843455 
L 303.708606 270.656715 
L 304.310375 269.301432 
L 304.61126 269.939368 
L 304.912144 269.882581 
L 305.213029 270.911337 
L 305.513914 270.447909 
L 306.115683 271.502675 
L 306.416568 271.402698 
L 306.717452 270.918046 
L 307.018337 271.054327 
L 307.319222 271.987509 
L 307.920991 270.476282 
L 308.221875 271.129472 
L 308.52276 270.642554 
L 308.823645 272.132472 
L 309.124529 271.806947 
L 309.425414 271.908627 
L 309.726299 272.518562 
L 310.027183 272.688664 
L 310.628953 272.138869 
L 310.929837 273.198056 
L 311.230722 272.604462 
L 311.531607 271.702053 
L 311.832491 272.049855 
L 312.133376 271.822409 
L 312.434261 273.076255 
L 312.735145 273.183531 
L 313.03603 273.07436 
L 313.336915 273.695252 
L 313.637799 273.914211 
L 314.239569 273.176655 
L 314.540453 274.362564 
L 315.142223 272.76813 
L 315.443107 273.221578 
L 315.743992 273.292892 
L 316.044877 274.264184 
L 316.345761 273.634008 
L 316.646646 274.570416 
L 316.947531 274.916567 
L 317.248415 274.765019 
L 317.5493 274.487268 
L 317.850185 274.815425 
L 318.151069 275.312221 
L 318.752838 273.914354 
L 319.053723 274.689555 
L 319.354608 274.290376 
L 319.655492 275.752453 
L 319.956377 275.119526 
L 320.558146 275.996745 
L 320.859031 276.198117 
L 321.159916 275.810613 
L 321.4608 275.75615 
L 321.761685 276.372147 
L 322.06257 276.01707 
L 322.363454 275.207165 
L 322.664339 275.640513 
L 322.965224 275.296796 
L 323.266108 276.534429 
L 323.566993 276.130723 
L 323.867878 276.731325 
L 324.168762 276.764437 
L 324.469647 277.016847 
L 324.770532 276.63132 
L 325.071416 277.099044 
L 325.372301 277.344009 
L 325.97407 276.569508 
L 326.274955 276.507046 
L 326.57584 276.614013 
L 326.876724 277.662793 
L 327.177609 277.103144 
L 327.779378 278.156253 
L 328.080263 278.302202 
L 328.381148 277.903247 
L 328.682032 277.708733 
L 328.982917 278.709811 
L 329.584686 277.271423 
L 329.885571 277.786239 
L 330.186455 277.907076 
L 330.48734 278.636092 
L 330.788225 278.479664 
L 331.089109 279.353193 
L 331.389994 279.383464 
L 331.690879 279.223268 
L 331.991763 279.26552 
L 332.292648 278.913559 
L 332.593533 279.607973 
L 333.195302 278.451685 
L 333.496187 278.860109 
L 333.797071 278.484531 
L 334.097956 279.649476 
L 334.398841 279.698888 
L 335.00061 280.173378 
L 335.301495 280.294437 
L 335.903264 279.717065 
L 336.204149 280.997388 
L 336.805918 279.377759 
L 337.106803 280.205809 
L 337.407687 279.549729 
L 337.708572 280.549515 
L 338.009457 280.213483 
L 338.310341 281.087536 
L 338.611226 281.292808 
L 338.912111 281.125893 
L 339.212995 281.092214 
L 339.51388 281.200054 
L 339.814765 281.925114 
L 340.115649 281.394085 
L 340.416534 280.367853 
L 341.018303 280.729759 
L 341.319188 281.519408 
L 341.620072 281.569981 
L 342.522726 282.350575 
L 343.124496 281.791181 
L 343.42538 283.144283 
L 344.02715 281.369729 
L 344.328034 281.679668 
L 344.628919 281.67624 
L 344.929804 283.064833 
L 345.230688 282.522634 
L 345.832458 283.533218 
L 346.434227 283.385944 
L 346.735112 282.996652 
L 347.035996 284.040811 
L 347.336881 283.298618 
L 347.637766 282.187852 
L 347.93865 282.939393 
L 348.239535 282.385604 
L 348.54042 283.747286 
L 348.841304 283.428122 
L 349.743958 284.656074 
L 350.044843 284.156597 
L 350.345728 283.899201 
L 350.646612 285.162642 
L 350.947497 284.130904 
L 351.248381 283.525058 
L 351.850151 283.613845 
L 352.151035 284.527262 
L 352.45192 284.647759 
L 352.752805 285.002506 
L 353.053689 284.881486 
L 353.354574 285.369513 
L 353.956343 284.867124 
L 354.257228 285.724996 
L 354.558113 284.786208 
L 354.858997 284.283194 
L 355.159882 284.634319 
L 355.460767 284.563735 
L 355.761651 285.514225 
L 356.062536 285.263169 
L 356.363421 285.93022 
L 356.664305 286.028891 
L 356.96519 285.994796 
L 357.266075 286.168581 
L 357.566959 285.654864 
L 357.867844 286.685204 
L 358.168729 285.785087 
L 358.469613 285.3221 
L 358.770498 285.637064 
L 359.071383 285.45092 
L 359.372267 286.658926 
L 359.673152 286.228707 
L 359.974037 286.803585 
L 360.274921 287.08543 
L 360.575806 287.15749 
L 360.876691 286.728403 
L 361.177575 286.901048 
L 361.47846 287.571365 
L 362.080229 286.170807 
L 362.381114 286.479932 
L 362.681998 286.501923 
L 362.982883 287.623781 
L 363.283768 287.012372 
L 363.584652 287.365037 
L 363.885537 288.07527 
L 364.487306 288.00895 
L 364.788191 287.639811 
L 365.089076 288.797196 
L 365.38996 288.104346 
L 365.690845 286.92426 
L 365.99173 287.604762 
L 366.292614 287.480102 
L 366.593499 287.707965 
L 367.195268 288.587219 
L 367.496153 288.563159 
L 367.797038 288.946329 
L 368.097922 288.766922 
L 368.398807 288.195673 
L 368.699692 289.763806 
L 369.301461 288.084126 
L 369.90323 288.354228 
L 370.204115 289.286581 
L 370.505 289.036314 
L 370.805884 289.640847 
L 371.106769 289.746579 
L 371.407654 289.342494 
L 371.708538 289.708189 
L 372.009423 289.530395 
L 372.310308 290.52495 
L 372.611192 289.451486 
L 372.912077 288.917729 
L 373.513846 288.907479 
L 373.814731 289.997878 
L 374.115615 289.657027 
L 374.4165 290.619769 
L 374.717385 290.407183 
L 375.018269 290.658735 
L 375.319154 290.227404 
L 375.620039 289.992654 
L 375.920923 290.922444 
L 376.221808 290.512348 
L 376.522693 289.201627 
L 376.823577 289.96226 
L 377.124462 289.800052 
L 377.425347 290.790897 
L 377.726231 290.636279 
L 378.027116 291.474521 
L 378.628885 291.202671 
L 378.92977 291.445917 
L 379.230655 290.970924 
L 379.531539 291.7999 
L 379.832424 290.828296 
L 380.133309 290.480258 
L 380.434193 290.949933 
L 380.735078 290.582122 
L 381.035963 291.664176 
L 381.336847 291.072686 
L 381.637732 292.23347 
L 381.938617 292.351754 
L 382.239501 292.189786 
L 382.841271 292.231416 
L 383.142155 293.082395 
L 383.743925 291.010719 
L 384.345694 291.518679 
L 384.646578 292.339978 
L 384.947463 292.156816 
L 385.248348 292.717923 
L 385.850117 292.834113 
L 386.451886 292.703517 
L 386.752771 294.055835 
L 387.053656 292.664361 
L 387.35454 292.127441 
L 387.655425 292.151622 
L 387.95631 292.334941 
L 388.257194 292.894487 
L 388.558079 293.022091 
L 388.858964 293.757214 
L 389.159848 293.91688 
L 389.460733 293.677939 
L 389.761618 293.615857 
L 390.062502 293.791182 
L 390.363387 294.840082 
L 390.965156 292.674499 
L 391.266041 293.51015 
L 391.566926 293.27188 
L 391.86781 293.770019 
L 392.168695 293.416943 
L 393.071349 294.611486 
L 393.372234 294.476489 
L 393.673118 293.832248 
L 393.974003 295.321708 
L 394.575772 293.567687 
L 394.876657 293.949955 
L 395.177541 293.588538 
L 395.478426 294.375047 
L 396.080195 294.690499 
L 396.38108 295.488 
L 396.681965 295.059258 
L 396.982849 295.434435 
L 397.283734 294.836023 
L 397.584619 295.44532 
L 398.186388 294.392137 
L 398.487273 295.036354 
L 398.487273 295.036354 
" clip-path="url(#p0d29d94b9e)" style="fill: none; stroke: #dc143c; stroke-width: 2; stroke-linecap: square"/>
   </g>
   <g id="line2d_27">
    <path d="M 73.832727 194.821867 
L 80.753074 194.876477 
L 81.053959 195.260506 
L 84.36369 195.260506 
L 84.664575 195.703573 
L 87.974306 195.703573 
L 88.275191 196.199238 
L 91.584922 196.199238 
L 91.885807 196.756472 
L 95.195538 196.756472 
L 95.496423 197.404327 
L 98.806154 197.404327 
L 99.107039 198.194421 
L 102.41677 198.194421 
L 102.717654 199.072202 
L 106.027386 199.072202 
L 106.32827 199.97649 
L 109.638002 199.97649 
L 109.938886 200.837354 
L 113.248617 200.837354 
L 113.549502 201.574383 
L 116.859233 201.574383 
L 117.160118 202.108417 
L 120.469849 202.108417 
L 120.770734 202.399353 
L 127.691081 202.43472 
L 127.991966 202.168453 
L 131.301697 202.168453 
L 131.602582 201.699018 
L 134.912313 201.699018 
L 135.213197 201.112865 
L 138.522929 201.112865 
L 138.823813 200.66761 
L 145.74416 200.724028 
L 146.045045 202.087889 
L 149.354776 202.087889 
L 149.655661 205.266699 
L 152.965392 205.266699 
L 153.266277 209.407912 
L 156.576008 209.407912 
L 156.876893 212.871332 
L 160.186624 212.871332 
L 160.487509 215.143285 
L 163.79724 215.143285 
L 164.098125 216.705116 
L 167.407856 216.705116 
L 167.70874 217.680207 
L 171.018472 217.680207 
L 171.319356 218.38099 
L 174.629088 218.38099 
L 174.929972 219.198023 
L 178.239703 219.198023 
L 178.540588 220.119353 
L 185.460935 220.136328 
L 185.76182 219.446059 
L 189.071551 219.446059 
L 189.372436 218.768891 
L 192.682167 218.768891 
L 192.983052 217.975223 
L 196.292783 217.975223 
L 196.593668 217.331335 
L 199.903399 217.331335 
L 200.204283 216.719417 
L 203.514015 216.719417 
L 203.814899 216.144697 
L 207.124631 216.144697 
L 207.425515 215.594467 
L 210.735246 215.594467 
L 211.036131 215.173333 
L 214.345862 215.173333 
L 214.646747 214.760013 
L 217.956478 214.760013 
L 218.257363 214.428346 
L 221.567094 214.428346 
L 222.168863 214.310487 
L 225.17771 214.310487 
L 225.478595 214.032444 
L 228.788326 214.032444 
L 229.089211 213.853439 
L 232.398942 213.853439 
L 232.699826 213.67471 
L 239.620174 213.670041 
L 239.921058 213.464197 
L 250.452021 213.424625 
L 250.752906 213.195727 
L 254.062637 213.195727 
L 254.363522 213.357498 
L 261.283869 213.28057 
L 261.885638 213.218266 
L 264.894485 213.218266 
L 265.195369 213.340449 
L 268.505101 213.340449 
L 269.10687 213.222547 
L 282.947564 213.304614 
L 283.248449 213.424968 
L 308.221875 213.447015 
L 308.52276 213.601289 
L 337.106803 213.61713 
L 337.407687 213.947599 
L 344.328034 213.90944 
L 344.929804 213.833954 
L 347.93865 213.833954 
L 348.239535 213.95875 
L 369.602346 214.030438 
L 369.90323 214.182664 
L 380.434193 214.09234 
L 380.735078 214.382204 
L 387.655425 214.297965 
L 387.95631 214.083842 
L 391.266041 214.083842 
L 391.566926 214.307043 
L 394.876657 214.307043 
L 395.177541 214.172015 
L 398.487273 214.172015 
L 398.487273 214.172015 
" clip-path="url(#p0d29d94b9e)" style="fill: none; stroke: #ffff00; stroke-width: 3; stroke-linecap: square"/>
   </g>
   <g id="patch_3">
    <path d="M 57.6 307.584 
L 57.6 41.472 
" style="fill: none; stroke: #ffffff; stroke-linejoin: miter; stroke-linecap: square"/>
   </g>
   <g id="patch_4">
    <path d="M 414.72 307.584 
L 414.72 41.472 
" style="fill: none; stroke: #ffffff; stroke-linejoin: miter; stroke-linecap: square"/>
   </g>
   <g id="patch_5">
    <path d="M 57.6 307.584 
L 414.72 307.584 
" style="fill: none; stroke: #ffffff; stroke-linejoin: miter; stroke-linecap: square"/>
   </g>
   <g id="patch_6">
    <path d="M 57.6 41.472 
L 414.72 41.472 
" style="fill: none; stroke: #ffffff; stroke-linejoin: miter; stroke-linecap: square"/>
   </g>
   <g id="legend_1">
    <g id="patch_7">
     <path d="M 243.124687 302.584 
L 407.72 302.584 
Q 409.72 302.584 409.72 300.584 
L 409.72 257.549625 
Q 409.72 255.549625 407.72 255.549625 
L 243.124687 255.549625 
Q 241.124687 255.549625 241.124687 257.549625 
L 241.124687 300.584 
Q 241.124687 302.584 243.124687 302.584 
z
" style="fill: #e5e5e5; opacity: 0.8; stroke: #cccccc; stroke-width: 0.5; stroke-linejoin: miter"/>
    </g>
    <g id="line2d_28">
     <path d="M 245.124687 263.648062 
L 255.124687 263.648062 
L 265.124687 263.648062 
" style="fill: none; stroke: #6495ed; stroke-width: 2; stroke-linecap: square"/>
    </g>
    <g id="text_15">
     <!-- Generator loss -->
     <g transform="translate(273.124687 267.148062) scale(0.1 -0.1)">
      <defs>
       <path id="DejaVuSans-47" d="M 3809 666 
L 3809 1919 
L 2778 1919 
L 2778 2438 
L 4434 2438 
L 4434 434 
Q 4069 175 3628 42 
Q 3188 -91 2688 -91 
Q 1594 -91 976 548 
Q 359 1188 359 2328 
Q 359 3472 976 4111 
Q 1594 4750 2688 4750 
Q 3144 4750 3555 4637 
Q 3966 4525 4313 4306 
L 4313 3634 
Q 3963 3931 3569 4081 
Q 3175 4231 2741 4231 
Q 1884 4231 1454 3753 
Q 1025 3275 1025 2328 
Q 1025 1384 1454 906 
Q 1884 428 2741 428 
Q 3075 428 3337 486 
Q 3600 544 3809 666 
z
" transform="scale(0.015625)"/>
       <path id="DejaVuSans-65" d="M 3597 1894 
L 3597 1613 
L 953 1613 
Q 991 1019 1311 708 
Q 1631 397 2203 397 
Q 2534 397 2845 478 
Q 3156 559 3463 722 
L 3463 178 
Q 3153 47 2828 -22 
Q 2503 -91 2169 -91 
Q 1331 -91 842 396 
Q 353 884 353 1716 
Q 353 2575 817 3079 
Q 1281 3584 2069 3584 
Q 2775 3584 3186 3129 
Q 3597 2675 3597 1894 
z
M 3022 2063 
Q 3016 2534 2758 2815 
Q 2500 3097 2075 3097 
Q 1594 3097 1305 2825 
Q 1016 2553 972 2059 
L 3022 2063 
z
" transform="scale(0.015625)"/>
       <path id="DejaVuSans-6e" d="M 3513 2113 
L 3513 0 
L 2938 0 
L 2938 2094 
Q 2938 2591 2744 2837 
Q 2550 3084 2163 3084 
Q 1697 3084 1428 2787 
Q 1159 2491 1159 1978 
L 1159 0 
L 581 0 
L 581 3500 
L 1159 3500 
L 1159 2956 
Q 1366 3272 1645 3428 
Q 1925 3584 2291 3584 
Q 2894 3584 3203 3211 
Q 3513 2838 3513 2113 
z
" transform="scale(0.015625)"/>
       <path id="DejaVuSans-72" d="M 2631 2963 
Q 2534 3019 2420 3045 
Q 2306 3072 2169 3072 
Q 1681 3072 1420 2755 
Q 1159 2438 1159 1844 
L 1159 0 
L 581 0 
L 581 3500 
L 1159 3500 
L 1159 2956 
Q 1341 3275 1631 3429 
Q 1922 3584 2338 3584 
Q 2397 3584 2469 3576 
Q 2541 3569 2628 3553 
L 2631 2963 
z
" transform="scale(0.015625)"/>
       <path id="DejaVuSans-61" d="M 2194 1759 
Q 1497 1759 1228 1600 
Q 959 1441 959 1056 
Q 959 750 1161 570 
Q 1363 391 1709 391 
Q 2188 391 2477 730 
Q 2766 1069 2766 1631 
L 2766 1759 
L 2194 1759 
z
M 3341 1997 
L 3341 0 
L 2766 0 
L 2766 531 
Q 2569 213 2275 61 
Q 1981 -91 1556 -91 
Q 1019 -91 701 211 
Q 384 513 384 1019 
Q 384 1609 779 1909 
Q 1175 2209 1959 2209 
L 2766 2209 
L 2766 2266 
Q 2766 2663 2505 2880 
Q 2244 3097 1772 3097 
Q 1472 3097 1187 3025 
Q 903 2953 641 2809 
L 641 3341 
Q 956 3463 1253 3523 
Q 1550 3584 1831 3584 
Q 2591 3584 2966 3190 
Q 3341 2797 3341 1997 
z
" transform="scale(0.015625)"/>
       <path id="DejaVuSans-74" d="M 1172 4494 
L 1172 3500 
L 2356 3500 
L 2356 3053 
L 1172 3053 
L 1172 1153 
Q 1172 725 1289 603 
Q 1406 481 1766 481 
L 2356 481 
L 2356 0 
L 1766 0 
Q 1100 0 847 248 
Q 594 497 594 1153 
L 594 3053 
L 172 3053 
L 172 3500 
L 594 3500 
L 594 4494 
L 1172 4494 
z
" transform="scale(0.015625)"/>
       <path id="DejaVuSans-20" transform="scale(0.015625)"/>
       <path id="DejaVuSans-6c" d="M 603 4863 
L 1178 4863 
L 1178 0 
L 603 0 
L 603 4863 
z
" transform="scale(0.015625)"/>
      </defs>
      <use xlink:href="#DejaVuSans-47"/>
      <use xlink:href="#DejaVuSans-65" x="77.490234"/>
      <use xlink:href="#DejaVuSans-6e" x="139.013672"/>
      <use xlink:href="#DejaVuSans-65" x="202.392578"/>
      <use xlink:href="#DejaVuSans-72" x="263.916016"/>
      <use xlink:href="#DejaVuSans-61" x="305.029297"/>
      <use xlink:href="#DejaVuSans-74" x="366.308594"/>
      <use xlink:href="#DejaVuSans-6f" x="405.517578"/>
      <use xlink:href="#DejaVuSans-72" x="466.699219"/>
      <use xlink:href="#DejaVuSans-20" x="507.8125"/>
      <use xlink:href="#DejaVuSans-6c" x="539.599609"/>
      <use xlink:href="#DejaVuSans-6f" x="567.382812"/>
      <use xlink:href="#DejaVuSans-73" x="628.564453"/>
      <use xlink:href="#DejaVuSans-73" x="680.664062"/>
     </g>
    </g>
    <g id="line2d_29">
     <path d="M 245.124687 278.326188 
L 255.124687 278.326188 
L 265.124687 278.326188 
" style="fill: none; stroke: #dc143c; stroke-width: 2; stroke-linecap: square"/>
    </g>
    <g id="text_16">
     <!-- Average discriminator loss -->
     <g transform="translate(273.124687 281.826188) scale(0.1 -0.1)">
      <defs>
       <path id="DejaVuSans-41" d="M 2188 4044 
L 1331 1722 
L 3047 1722 
L 2188 4044 
z
M 1831 4666 
L 2547 4666 
L 4325 0 
L 3669 0 
L 3244 1197 
L 1141 1197 
L 716 0 
L 50 0 
L 1831 4666 
z
" transform="scale(0.015625)"/>
       <path id="DejaVuSans-76" d="M 191 3500 
L 800 3500 
L 1894 563 
L 2988 3500 
L 3597 3500 
L 2284 0 
L 1503 0 
L 191 3500 
z
" transform="scale(0.015625)"/>
       <path id="DejaVuSans-67" d="M 2906 1791 
Q 2906 2416 2648 2759 
Q 2391 3103 1925 3103 
Q 1463 3103 1205 2759 
Q 947 2416 947 1791 
Q 947 1169 1205 825 
Q 1463 481 1925 481 
Q 2391 481 2648 825 
Q 2906 1169 2906 1791 
z
M 3481 434 
Q 3481 -459 3084 -895 
Q 2688 -1331 1869 -1331 
Q 1566 -1331 1297 -1286 
Q 1028 -1241 775 -1147 
L 775 -588 
Q 1028 -725 1275 -790 
Q 1522 -856 1778 -856 
Q 2344 -856 2625 -561 
Q 2906 -266 2906 331 
L 2906 616 
Q 2728 306 2450 153 
Q 2172 0 1784 0 
Q 1141 0 747 490 
Q 353 981 353 1791 
Q 353 2603 747 3093 
Q 1141 3584 1784 3584 
Q 2172 3584 2450 3431 
Q 2728 3278 2906 2969 
L 2906 3500 
L 3481 3500 
L 3481 434 
z
" transform="scale(0.015625)"/>
       <path id="DejaVuSans-64" d="M 2906 2969 
L 2906 4863 
L 3481 4863 
L 3481 0 
L 2906 0 
L 2906 525 
Q 2725 213 2448 61 
Q 2172 -91 1784 -91 
Q 1150 -91 751 415 
Q 353 922 353 1747 
Q 353 2572 751 3078 
Q 1150 3584 1784 3584 
Q 2172 3584 2448 3432 
Q 2725 3281 2906 2969 
z
M 947 1747 
Q 947 1113 1208 752 
Q 1469 391 1925 391 
Q 2381 391 2643 752 
Q 2906 1113 2906 1747 
Q 2906 2381 2643 2742 
Q 2381 3103 1925 3103 
Q 1469 3103 1208 2742 
Q 947 2381 947 1747 
z
" transform="scale(0.015625)"/>
       <path id="DejaVuSans-69" d="M 603 3500 
L 1178 3500 
L 1178 0 
L 603 0 
L 603 3500 
z
M 603 4863 
L 1178 4863 
L 1178 4134 
L 603 4134 
L 603 4863 
z
" transform="scale(0.015625)"/>
       <path id="DejaVuSans-6d" d="M 3328 2828 
Q 3544 3216 3844 3400 
Q 4144 3584 4550 3584 
Q 5097 3584 5394 3201 
Q 5691 2819 5691 2113 
L 5691 0 
L 5113 0 
L 5113 2094 
Q 5113 2597 4934 2840 
Q 4756 3084 4391 3084 
Q 3944 3084 3684 2787 
Q 3425 2491 3425 1978 
L 3425 0 
L 2847 0 
L 2847 2094 
Q 2847 2600 2669 2842 
Q 2491 3084 2119 3084 
Q 1678 3084 1418 2786 
Q 1159 2488 1159 1978 
L 1159 0 
L 581 0 
L 581 3500 
L 1159 3500 
L 1159 2956 
Q 1356 3278 1631 3431 
Q 1906 3584 2284 3584 
Q 2666 3584 2933 3390 
Q 3200 3197 3328 2828 
z
" transform="scale(0.015625)"/>
      </defs>
      <use xlink:href="#DejaVuSans-41"/>
      <use xlink:href="#DejaVuSans-76" x="62.533203"/>
      <use xlink:href="#DejaVuSans-65" x="121.712891"/>
      <use xlink:href="#DejaVuSans-72" x="183.236328"/>
      <use xlink:href="#DejaVuSans-61" x="224.349609"/>
      <use xlink:href="#DejaVuSans-67" x="285.628906"/>
      <use xlink:href="#DejaVuSans-65" x="349.105469"/>
      <use xlink:href="#DejaVuSans-20" x="410.628906"/>
      <use xlink:href="#DejaVuSans-64" x="442.416016"/>
      <use xlink:href="#DejaVuSans-69" x="505.892578"/>
      <use xlink:href="#DejaVuSans-73" x="533.675781"/>
      <use xlink:href="#DejaVuSans-63" x="585.775391"/>
      <use xlink:href="#DejaVuSans-72" x="640.755859"/>
      <use xlink:href="#DejaVuSans-69" x="681.869141"/>
      <use xlink:href="#DejaVuSans-6d" x="709.652344"/>
      <use xlink:href="#DejaVuSans-69" x="807.064453"/>
      <use xlink:href="#DejaVuSans-6e" x="834.847656"/>
      <use xlink:href="#DejaVuSans-61" x="898.226562"/>
      <use xlink:href="#DejaVuSans-74" x="959.505859"/>
      <use xlink:href="#DejaVuSans-6f" x="998.714844"/>
      <use xlink:href="#DejaVuSans-72" x="1059.896484"/>
      <use xlink:href="#DejaVuSans-20" x="1101.009766"/>
      <use xlink:href="#DejaVuSans-6c" x="1132.796875"/>
      <use xlink:href="#DejaVuSans-6f" x="1160.580078"/>
      <use xlink:href="#DejaVuSans-73" x="1221.761719"/>
      <use xlink:href="#DejaVuSans-73" x="1273.861328"/>
     </g>
    </g>
    <g id="line2d_30">
     <path d="M 245.124687 293.004312 
L 255.124687 293.004312 
L 265.124687 293.004312 
" style="fill: none; stroke: #ffff00; stroke-width: 3; stroke-linecap: square"/>
    </g>
    <g id="text_17">
     <!-- ROC AUC -->
     <g transform="translate(273.124687 296.504312) scale(0.1 -0.1)">
      <defs>
       <path id="DejaVuSans-52" d="M 2841 2188 
Q 3044 2119 3236 1894 
Q 3428 1669 3622 1275 
L 4263 0 
L 3584 0 
L 2988 1197 
Q 2756 1666 2539 1819 
Q 2322 1972 1947 1972 
L 1259 1972 
L 1259 0 
L 628 0 
L 628 4666 
L 2053 4666 
Q 2853 4666 3247 4331 
Q 3641 3997 3641 3322 
Q 3641 2881 3436 2590 
Q 3231 2300 2841 2188 
z
M 1259 4147 
L 1259 2491 
L 2053 2491 
Q 2509 2491 2742 2702 
Q 2975 2913 2975 3322 
Q 2975 3731 2742 3939 
Q 2509 4147 2053 4147 
L 1259 4147 
z
" transform="scale(0.015625)"/>
       <path id="DejaVuSans-4f" d="M 2522 4238 
Q 1834 4238 1429 3725 
Q 1025 3213 1025 2328 
Q 1025 1447 1429 934 
Q 1834 422 2522 422 
Q 3209 422 3611 934 
Q 4013 1447 4013 2328 
Q 4013 3213 3611 3725 
Q 3209 4238 2522 4238 
z
M 2522 4750 
Q 3503 4750 4090 4092 
Q 4678 3434 4678 2328 
Q 4678 1225 4090 567 
Q 3503 -91 2522 -91 
Q 1538 -91 948 565 
Q 359 1222 359 2328 
Q 359 3434 948 4092 
Q 1538 4750 2522 4750 
z
" transform="scale(0.015625)"/>
       <path id="DejaVuSans-43" d="M 4122 4306 
L 4122 3641 
Q 3803 3938 3442 4084 
Q 3081 4231 2675 4231 
Q 1875 4231 1450 3742 
Q 1025 3253 1025 2328 
Q 1025 1406 1450 917 
Q 1875 428 2675 428 
Q 3081 428 3442 575 
Q 3803 722 4122 1019 
L 4122 359 
Q 3791 134 3420 21 
Q 3050 -91 2638 -91 
Q 1578 -91 968 557 
Q 359 1206 359 2328 
Q 359 3453 968 4101 
Q 1578 4750 2638 4750 
Q 3056 4750 3426 4639 
Q 3797 4528 4122 4306 
z
" transform="scale(0.015625)"/>
       <path id="DejaVuSans-55" d="M 556 4666 
L 1191 4666 
L 1191 1831 
Q 1191 1081 1462 751 
Q 1734 422 2344 422 
Q 2950 422 3222 751 
Q 3494 1081 3494 1831 
L 3494 4666 
L 4128 4666 
L 4128 1753 
Q 4128 841 3676 375 
Q 3225 -91 2344 -91 
Q 1459 -91 1007 375 
Q 556 841 556 1753 
L 556 4666 
z
" transform="scale(0.015625)"/>
      </defs>
      <use xlink:href="#DejaVuSans-52"/>
      <use xlink:href="#DejaVuSans-4f" x="69.482422"/>
      <use xlink:href="#DejaVuSans-43" x="148.193359"/>
      <use xlink:href="#DejaVuSans-20" x="218.017578"/>
      <use xlink:href="#DejaVuSans-41" x="249.804688"/>
      <use xlink:href="#DejaVuSans-55" x="318.212891"/>
      <use xlink:href="#DejaVuSans-43" x="391.40625"/>
     </g>
    </g>
   </g>
  </g>
 </g>
 <defs>
  <clipPath id="p0d29d94b9e">
   <rect x="57.6" y="41.472" width="357.12" height="266.112"/>
  </clipPath>
 </defs>
</svg>
