<?xml version="1.0" encoding="utf-8" standalone="no"?>
<!DOCTYPE svg PUBLIC "-//W3C//DTD SVG 1.1//EN"
  "http://www.w3.org/Graphics/SVG/1.1/DTD/svg11.dtd">
<svg xmlns:xlink="http://www.w3.org/1999/xlink" width="460.8pt" height="345.6pt" viewBox="0 0 460.8 345.6" xmlns="http://www.w3.org/2000/svg" version="1.1">
 <metadata>
  <rdf:RDF xmlns:dc="http://purl.org/dc/elements/1.1/" xmlns:cc="http://creativecommons.org/ns#" xmlns:rdf="http://www.w3.org/1999/02/22-rdf-syntax-ns#">
   <cc:Work>
    <dc:type rdf:resource="http://purl.org/dc/dcmitype/StillImage"/>
    <dc:date>2023-07-05T11:10:08.778481</dc:date>
    <dc:format>image/svg+xml</dc:format>
    <dc:creator>
     <cc:Agent>
      <dc:title>Matplotlib v3.7.1, https://matplotlib.org/</dc:title>
     </cc:Agent>
    </dc:creator>
   </cc:Work>
  </rdf:RDF>
 </metadata>
 <defs>
  <style type="text/css">*{stroke-linejoin: round; stroke-linecap: butt}</style>
 </defs>
 <g id="figure_1">
  <g id="patch_1">
   <path d="M 0 345.6 
L 460.8 345.6 
L 460.8 0 
L 0 0 
z
" style="fill: #ffffff"/>
  </g>
  <g id="axes_1">
   <g id="patch_2">
    <path d="M 57.6 307.584 
L 414.72 307.584 
L 414.72 41.472 
L 57.6 41.472 
z
" style="fill: #e5e5e5"/>
   </g>
   <g id="matplotlib.axis_1">
    <g id="xtick_1">
     <g id="line2d_1">
      <path d="M 73.2304 307.584 
L 73.2304 41.472 
" clip-path="url(#pd4f1e425d3)" style="fill: none; stroke: #ffffff; stroke-width: 0.8; stroke-linecap: square"/>
     </g>
     <g id="line2d_2">
      <defs>
       <path id="m5aeddeef79" d="M 0 0 
L 0 3.5 
" style="stroke: #555555; stroke-width: 0.8"/>
      </defs>
      <g>
       <use xlink:href="#m5aeddeef79" x="73.2304" y="307.584" style="fill: #555555; stroke: #555555; stroke-width: 0.8"/>
      </g>
     </g>
     <g id="text_1">
      <!-- 0 -->
      <g style="fill: #555555" transform="translate(70.04915 322.182437) scale(0.1 -0.1)">
       <defs>
        <path id="DejaVuSans-30" d="M 2034 4250 
Q 1547 4250 1301 3770 
Q 1056 3291 1056 2328 
Q 1056 1369 1301 889 
Q 1547 409 2034 409 
Q 2525 409 2770 889 
Q 3016 1369 3016 2328 
Q 3016 3291 2770 3770 
Q 2525 4250 2034 4250 
z
M 2034 4750 
Q 2819 4750 3233 4129 
Q 3647 3509 3647 2328 
Q 3647 1150 3233 529 
Q 2819 -91 2034 -91 
Q 1250 -91 836 529 
Q 422 1150 422 2328 
Q 422 3509 836 4129 
Q 1250 4750 2034 4750 
z
" transform="scale(0.015625)"/>
       </defs>
       <use xlink:href="#DejaVuSans-30"/>
      </g>
     </g>
    </g>
    <g id="xtick_2">
     <g id="line2d_3">
      <path d="M 133.463154 307.584 
L 133.463154 41.472 
" clip-path="url(#pd4f1e425d3)" style="fill: none; stroke: #ffffff; stroke-width: 0.8; stroke-linecap: square"/>
     </g>
     <g id="line2d_4">
      <g>
       <use xlink:href="#m5aeddeef79" x="133.463154" y="307.584" style="fill: #555555; stroke: #555555; stroke-width: 0.8"/>
      </g>
     </g>
     <g id="text_2">
      <!-- 100 -->
      <g style="fill: #555555" transform="translate(123.919404 322.182437) scale(0.1 -0.1)">
       <defs>
        <path id="DejaVuSans-31" d="M 794 531 
L 1825 531 
L 1825 4091 
L 703 3866 
L 703 4441 
L 1819 4666 
L 2450 4666 
L 2450 531 
L 3481 531 
L 3481 0 
L 794 0 
L 794 531 
z
" transform="scale(0.015625)"/>
       </defs>
       <use xlink:href="#DejaVuSans-31"/>
       <use xlink:href="#DejaVuSans-30" x="63.623047"/>
       <use xlink:href="#DejaVuSans-30" x="127.246094"/>
      </g>
     </g>
    </g>
    <g id="xtick_3">
     <g id="line2d_5">
      <path d="M 193.695908 307.584 
L 193.695908 41.472 
" clip-path="url(#pd4f1e425d3)" style="fill: none; stroke: #ffffff; stroke-width: 0.8; stroke-linecap: square"/>
     </g>
     <g id="line2d_6">
      <g>
       <use xlink:href="#m5aeddeef79" x="193.695908" y="307.584" style="fill: #555555; stroke: #555555; stroke-width: 0.8"/>
      </g>
     </g>
     <g id="text_3">
      <!-- 200 -->
      <g style="fill: #555555" transform="translate(184.152158 322.182437) scale(0.1 -0.1)">
       <defs>
        <path id="DejaVuSans-32" d="M 1228 531 
L 3431 531 
L 3431 0 
L 469 0 
L 469 531 
Q 828 903 1448 1529 
Q 2069 2156 2228 2338 
Q 2531 2678 2651 2914 
Q 2772 3150 2772 3378 
Q 2772 3750 2511 3984 
Q 2250 4219 1831 4219 
Q 1534 4219 1204 4116 
Q 875 4013 500 3803 
L 500 4441 
Q 881 4594 1212 4672 
Q 1544 4750 1819 4750 
Q 2544 4750 2975 4387 
Q 3406 4025 3406 3419 
Q 3406 3131 3298 2873 
Q 3191 2616 2906 2266 
Q 2828 2175 2409 1742 
Q 1991 1309 1228 531 
z
" transform="scale(0.015625)"/>
       </defs>
       <use xlink:href="#DejaVuSans-32"/>
       <use xlink:href="#DejaVuSans-30" x="63.623047"/>
       <use xlink:href="#DejaVuSans-30" x="127.246094"/>
      </g>
     </g>
    </g>
    <g id="xtick_4">
     <g id="line2d_7">
      <path d="M 253.928663 307.584 
L 253.928663 41.472 
" clip-path="url(#pd4f1e425d3)" style="fill: none; stroke: #ffffff; stroke-width: 0.8; stroke-linecap: square"/>
     </g>
     <g id="line2d_8">
      <g>
       <use xlink:href="#m5aeddeef79" x="253.928663" y="307.584" style="fill: #555555; stroke: #555555; stroke-width: 0.8"/>
      </g>
     </g>
     <g id="text_4">
      <!-- 300 -->
      <g style="fill: #555555" transform="translate(244.384913 322.182437) scale(0.1 -0.1)">
       <defs>
        <path id="DejaVuSans-33" d="M 2597 2516 
Q 3050 2419 3304 2112 
Q 3559 1806 3559 1356 
Q 3559 666 3084 287 
Q 2609 -91 1734 -91 
Q 1441 -91 1130 -33 
Q 819 25 488 141 
L 488 750 
Q 750 597 1062 519 
Q 1375 441 1716 441 
Q 2309 441 2620 675 
Q 2931 909 2931 1356 
Q 2931 1769 2642 2001 
Q 2353 2234 1838 2234 
L 1294 2234 
L 1294 2753 
L 1863 2753 
Q 2328 2753 2575 2939 
Q 2822 3125 2822 3475 
Q 2822 3834 2567 4026 
Q 2313 4219 1838 4219 
Q 1578 4219 1281 4162 
Q 984 4106 628 3988 
L 628 4550 
Q 988 4650 1302 4700 
Q 1616 4750 1894 4750 
Q 2613 4750 3031 4423 
Q 3450 4097 3450 3541 
Q 3450 3153 3228 2886 
Q 3006 2619 2597 2516 
z
" transform="scale(0.015625)"/>
       </defs>
       <use xlink:href="#DejaVuSans-33"/>
       <use xlink:href="#DejaVuSans-30" x="63.623047"/>
       <use xlink:href="#DejaVuSans-30" x="127.246094"/>
      </g>
     </g>
    </g>
    <g id="xtick_5">
     <g id="line2d_9">
      <path d="M 314.161417 307.584 
L 314.161417 41.472 
" clip-path="url(#pd4f1e425d3)" style="fill: none; stroke: #ffffff; stroke-width: 0.8; stroke-linecap: square"/>
     </g>
     <g id="line2d_10">
      <g>
       <use xlink:href="#m5aeddeef79" x="314.161417" y="307.584" style="fill: #555555; stroke: #555555; stroke-width: 0.8"/>
      </g>
     </g>
     <g id="text_5">
      <!-- 400 -->
      <g style="fill: #555555" transform="translate(304.617667 322.182437) scale(0.1 -0.1)">
       <defs>
        <path id="DejaVuSans-34" d="M 2419 4116 
L 825 1625 
L 2419 1625 
L 2419 4116 
z
M 2253 4666 
L 3047 4666 
L 3047 1625 
L 3713 1625 
L 3713 1100 
L 3047 1100 
L 3047 0 
L 2419 0 
L 2419 1100 
L 313 1100 
L 313 1709 
L 2253 4666 
z
" transform="scale(0.015625)"/>
       </defs>
       <use xlink:href="#DejaVuSans-34"/>
       <use xlink:href="#DejaVuSans-30" x="63.623047"/>
       <use xlink:href="#DejaVuSans-30" x="127.246094"/>
      </g>
     </g>
    </g>
    <g id="xtick_6">
     <g id="line2d_11">
      <path d="M 374.394171 307.584 
L 374.394171 41.472 
" clip-path="url(#pd4f1e425d3)" style="fill: none; stroke: #ffffff; stroke-width: 0.8; stroke-linecap: square"/>
     </g>
     <g id="line2d_12">
      <g>
       <use xlink:href="#m5aeddeef79" x="374.394171" y="307.584" style="fill: #555555; stroke: #555555; stroke-width: 0.8"/>
      </g>
     </g>
     <g id="text_6">
      <!-- 500 -->
      <g style="fill: #555555" transform="translate(364.850421 322.182437) scale(0.1 -0.1)">
       <defs>
        <path id="DejaVuSans-35" d="M 691 4666 
L 3169 4666 
L 3169 4134 
L 1269 4134 
L 1269 2991 
Q 1406 3038 1543 3061 
Q 1681 3084 1819 3084 
Q 2600 3084 3056 2656 
Q 3513 2228 3513 1497 
Q 3513 744 3044 326 
Q 2575 -91 1722 -91 
Q 1428 -91 1123 -41 
Q 819 9 494 109 
L 494 744 
Q 775 591 1075 516 
Q 1375 441 1709 441 
Q 2250 441 2565 725 
Q 2881 1009 2881 1497 
Q 2881 1984 2565 2268 
Q 2250 2553 1709 2553 
Q 1456 2553 1204 2497 
Q 953 2441 691 2322 
L 691 4666 
z
" transform="scale(0.015625)"/>
       </defs>
       <use xlink:href="#DejaVuSans-35"/>
       <use xlink:href="#DejaVuSans-30" x="63.623047"/>
       <use xlink:href="#DejaVuSans-30" x="127.246094"/>
      </g>
     </g>
    </g>
    <g id="text_7">
     <!-- Epoch -->
     <g style="fill: #555555" transform="translate(217.786875 337.38025) scale(0.12 -0.12)">
      <defs>
       <path id="DejaVuSans-45" d="M 628 4666 
L 3578 4666 
L 3578 4134 
L 1259 4134 
L 1259 2753 
L 3481 2753 
L 3481 2222 
L 1259 2222 
L 1259 531 
L 3634 531 
L 3634 0 
L 628 0 
L 628 4666 
z
" transform="scale(0.015625)"/>
       <path id="DejaVuSans-70" d="M 1159 525 
L 1159 -1331 
L 581 -1331 
L 581 3500 
L 1159 3500 
L 1159 2969 
Q 1341 3281 1617 3432 
Q 1894 3584 2278 3584 
Q 2916 3584 3314 3078 
Q 3713 2572 3713 1747 
Q 3713 922 3314 415 
Q 2916 -91 2278 -91 
Q 1894 -91 1617 61 
Q 1341 213 1159 525 
z
M 3116 1747 
Q 3116 2381 2855 2742 
Q 2594 3103 2138 3103 
Q 1681 3103 1420 2742 
Q 1159 2381 1159 1747 
Q 1159 1113 1420 752 
Q 1681 391 2138 391 
Q 2594 391 2855 752 
Q 3116 1113 3116 1747 
z
" transform="scale(0.015625)"/>
       <path id="DejaVuSans-6f" d="M 1959 3097 
Q 1497 3097 1228 2736 
Q 959 2375 959 1747 
Q 959 1119 1226 758 
Q 1494 397 1959 397 
Q 2419 397 2687 759 
Q 2956 1122 2956 1747 
Q 2956 2369 2687 2733 
Q 2419 3097 1959 3097 
z
M 1959 3584 
Q 2709 3584 3137 3096 
Q 3566 2609 3566 1747 
Q 3566 888 3137 398 
Q 2709 -91 1959 -91 
Q 1206 -91 779 398 
Q 353 888 353 1747 
Q 353 2609 779 3096 
Q 1206 3584 1959 3584 
z
" transform="scale(0.015625)"/>
       <path id="DejaVuSans-63" d="M 3122 3366 
L 3122 2828 
Q 2878 2963 2633 3030 
Q 2388 3097 2138 3097 
Q 1578 3097 1268 2742 
Q 959 2388 959 1747 
Q 959 1106 1268 751 
Q 1578 397 2138 397 
Q 2388 397 2633 464 
Q 2878 531 3122 666 
L 3122 134 
Q 2881 22 2623 -34 
Q 2366 -91 2075 -91 
Q 1284 -91 818 406 
Q 353 903 353 1747 
Q 353 2603 823 3093 
Q 1294 3584 2113 3584 
Q 2378 3584 2631 3529 
Q 2884 3475 3122 3366 
z
" transform="scale(0.015625)"/>
       <path id="DejaVuSans-68" d="M 3513 2113 
L 3513 0 
L 2938 0 
L 2938 2094 
Q 2938 2591 2744 2837 
Q 2550 3084 2163 3084 
Q 1697 3084 1428 2787 
Q 1159 2491 1159 1978 
L 1159 0 
L 581 0 
L 581 4863 
L 1159 4863 
L 1159 2956 
Q 1366 3272 1645 3428 
Q 1925 3584 2291 3584 
Q 2894 3584 3203 3211 
Q 3513 2838 3513 2113 
z
" transform="scale(0.015625)"/>
      </defs>
      <use xlink:href="#DejaVuSans-45"/>
      <use xlink:href="#DejaVuSans-70" x="63.183594"/>
      <use xlink:href="#DejaVuSans-6f" x="126.660156"/>
      <use xlink:href="#DejaVuSans-63" x="187.841797"/>
      <use xlink:href="#DejaVuSans-68" x="242.822266"/>
     </g>
    </g>
   </g>
   <g id="matplotlib.axis_2">
    <g id="ytick_1">
     <g id="line2d_13">
      <path d="M 57.6 281.083644 
L 414.72 281.083644 
" clip-path="url(#pd4f1e425d3)" style="fill: none; stroke: #ffffff; stroke-width: 0.8; stroke-linecap: square"/>
     </g>
     <g id="line2d_14">
      <defs>
       <path id="m593516573c" d="M 0 0 
L -3.5 0 
" style="stroke: #555555; stroke-width: 0.8"/>
      </defs>
      <g>
       <use xlink:href="#m593516573c" x="57.6" y="281.083644" style="fill: #555555; stroke: #555555; stroke-width: 0.8"/>
      </g>
     </g>
     <g id="text_8">
      <!-- 0.3 -->
      <g style="fill: #555555" transform="translate(34.696875 284.882863) scale(0.1 -0.1)">
       <defs>
        <path id="DejaVuSans-2e" d="M 684 794 
L 1344 794 
L 1344 0 
L 684 0 
L 684 794 
z
" transform="scale(0.015625)"/>
       </defs>
       <use xlink:href="#DejaVuSans-30"/>
       <use xlink:href="#DejaVuSans-2e" x="63.623047"/>
       <use xlink:href="#DejaVuSans-33" x="95.410156"/>
      </g>
     </g>
    </g>
    <g id="ytick_2">
     <g id="line2d_15">
      <path d="M 57.6 248.623705 
L 414.72 248.623705 
" clip-path="url(#pd4f1e425d3)" style="fill: none; stroke: #ffffff; stroke-width: 0.8; stroke-linecap: square"/>
     </g>
     <g id="line2d_16">
      <g>
       <use xlink:href="#m593516573c" x="57.6" y="248.623705" style="fill: #555555; stroke: #555555; stroke-width: 0.8"/>
      </g>
     </g>
     <g id="text_9">
      <!-- 0.4 -->
      <g style="fill: #555555" transform="translate(34.696875 252.422923) scale(0.1 -0.1)">
       <use xlink:href="#DejaVuSans-30"/>
       <use xlink:href="#DejaVuSans-2e" x="63.623047"/>
       <use xlink:href="#DejaVuSans-34" x="95.410156"/>
      </g>
     </g>
    </g>
    <g id="ytick_3">
     <g id="line2d_17">
      <path d="M 57.6 216.163766 
L 414.72 216.163766 
" clip-path="url(#pd4f1e425d3)" style="fill: none; stroke: #ffffff; stroke-width: 0.8; stroke-linecap: square"/>
     </g>
     <g id="line2d_18">
      <g>
       <use xlink:href="#m593516573c" x="57.6" y="216.163766" style="fill: #555555; stroke: #555555; stroke-width: 0.8"/>
      </g>
     </g>
     <g id="text_10">
      <!-- 0.5 -->
      <g style="fill: #555555" transform="translate(34.696875 219.962984) scale(0.1 -0.1)">
       <use xlink:href="#DejaVuSans-30"/>
       <use xlink:href="#DejaVuSans-2e" x="63.623047"/>
       <use xlink:href="#DejaVuSans-35" x="95.410156"/>
      </g>
     </g>
    </g>
    <g id="ytick_4">
     <g id="line2d_19">
      <path d="M 57.6 183.703826 
L 414.72 183.703826 
" clip-path="url(#pd4f1e425d3)" style="fill: none; stroke: #ffffff; stroke-width: 0.8; stroke-linecap: square"/>
     </g>
     <g id="line2d_20">
      <g>
       <use xlink:href="#m593516573c" x="57.6" y="183.703826" style="fill: #555555; stroke: #555555; stroke-width: 0.8"/>
      </g>
     </g>
     <g id="text_11">
      <!-- 0.6 -->
      <g style="fill: #555555" transform="translate(34.696875 187.503045) scale(0.1 -0.1)">
       <defs>
        <path id="DejaVuSans-36" d="M 2113 2584 
Q 1688 2584 1439 2293 
Q 1191 2003 1191 1497 
Q 1191 994 1439 701 
Q 1688 409 2113 409 
Q 2538 409 2786 701 
Q 3034 994 3034 1497 
Q 3034 2003 2786 2293 
Q 2538 2584 2113 2584 
z
M 3366 4563 
L 3366 3988 
Q 3128 4100 2886 4159 
Q 2644 4219 2406 4219 
Q 1781 4219 1451 3797 
Q 1122 3375 1075 2522 
Q 1259 2794 1537 2939 
Q 1816 3084 2150 3084 
Q 2853 3084 3261 2657 
Q 3669 2231 3669 1497 
Q 3669 778 3244 343 
Q 2819 -91 2113 -91 
Q 1303 -91 875 529 
Q 447 1150 447 2328 
Q 447 3434 972 4092 
Q 1497 4750 2381 4750 
Q 2619 4750 2861 4703 
Q 3103 4656 3366 4563 
z
" transform="scale(0.015625)"/>
       </defs>
       <use xlink:href="#DejaVuSans-30"/>
       <use xlink:href="#DejaVuSans-2e" x="63.623047"/>
       <use xlink:href="#DejaVuSans-36" x="95.410156"/>
      </g>
     </g>
    </g>
    <g id="ytick_5">
     <g id="line2d_21">
      <path d="M 57.6 151.243887 
L 414.72 151.243887 
" clip-path="url(#pd4f1e425d3)" style="fill: none; stroke: #ffffff; stroke-width: 0.8; stroke-linecap: square"/>
     </g>
     <g id="line2d_22">
      <g>
       <use xlink:href="#m593516573c" x="57.6" y="151.243887" style="fill: #555555; stroke: #555555; stroke-width: 0.8"/>
      </g>
     </g>
     <g id="text_12">
      <!-- 0.7 -->
      <g style="fill: #555555" transform="translate(34.696875 155.043106) scale(0.1 -0.1)">
       <defs>
        <path id="DejaVuSans-37" d="M 525 4666 
L 3525 4666 
L 3525 4397 
L 1831 0 
L 1172 0 
L 2766 4134 
L 525 4134 
L 525 4666 
z
" transform="scale(0.015625)"/>
       </defs>
       <use xlink:href="#DejaVuSans-30"/>
       <use xlink:href="#DejaVuSans-2e" x="63.623047"/>
       <use xlink:href="#DejaVuSans-37" x="95.410156"/>
      </g>
     </g>
    </g>
    <g id="ytick_6">
     <g id="line2d_23">
      <path d="M 57.6 118.783948 
L 414.72 118.783948 
" clip-path="url(#pd4f1e425d3)" style="fill: none; stroke: #ffffff; stroke-width: 0.8; stroke-linecap: square"/>
     </g>
     <g id="line2d_24">
      <g>
       <use xlink:href="#m593516573c" x="57.6" y="118.783948" style="fill: #555555; stroke: #555555; stroke-width: 0.8"/>
      </g>
     </g>
     <g id="text_13">
      <!-- 0.8 -->
      <g style="fill: #555555" transform="translate(34.696875 122.583167) scale(0.1 -0.1)">
       <defs>
        <path id="DejaVuSans-38" d="M 2034 2216 
Q 1584 2216 1326 1975 
Q 1069 1734 1069 1313 
Q 1069 891 1326 650 
Q 1584 409 2034 409 
Q 2484 409 2743 651 
Q 3003 894 3003 1313 
Q 3003 1734 2745 1975 
Q 2488 2216 2034 2216 
z
M 1403 2484 
Q 997 2584 770 2862 
Q 544 3141 544 3541 
Q 544 4100 942 4425 
Q 1341 4750 2034 4750 
Q 2731 4750 3128 4425 
Q 3525 4100 3525 3541 
Q 3525 3141 3298 2862 
Q 3072 2584 2669 2484 
Q 3125 2378 3379 2068 
Q 3634 1759 3634 1313 
Q 3634 634 3220 271 
Q 2806 -91 2034 -91 
Q 1263 -91 848 271 
Q 434 634 434 1313 
Q 434 1759 690 2068 
Q 947 2378 1403 2484 
z
M 1172 3481 
Q 1172 3119 1398 2916 
Q 1625 2713 2034 2713 
Q 2441 2713 2670 2916 
Q 2900 3119 2900 3481 
Q 2900 3844 2670 4047 
Q 2441 4250 2034 4250 
Q 1625 4250 1398 4047 
Q 1172 3844 1172 3481 
z
" transform="scale(0.015625)"/>
       </defs>
       <use xlink:href="#DejaVuSans-30"/>
       <use xlink:href="#DejaVuSans-2e" x="63.623047"/>
       <use xlink:href="#DejaVuSans-38" x="95.410156"/>
      </g>
     </g>
    </g>
    <g id="ytick_7">
     <g id="line2d_25">
      <path d="M 57.6 86.324009 
L 414.72 86.324009 
" clip-path="url(#pd4f1e425d3)" style="fill: none; stroke: #ffffff; stroke-width: 0.8; stroke-linecap: square"/>
     </g>
     <g id="line2d_26">
      <g>
       <use xlink:href="#m593516573c" x="57.6" y="86.324009" style="fill: #555555; stroke: #555555; stroke-width: 0.8"/>
      </g>
     </g>
     <g id="text_14">
      <!-- 0.9 -->
      <g style="fill: #555555" transform="translate(34.696875 90.123227) scale(0.1 -0.1)">
       <defs>
        <path id="DejaVuSans-39" d="M 703 97 
L 703 672 
Q 941 559 1184 500 
Q 1428 441 1663 441 
Q 2288 441 2617 861 
Q 2947 1281 2994 2138 
Q 2813 1869 2534 1725 
Q 2256 1581 1919 1581 
Q 1219 1581 811 2004 
Q 403 2428 403 3163 
Q 403 3881 828 4315 
Q 1253 4750 1959 4750 
Q 2769 4750 3195 4129 
Q 3622 3509 3622 2328 
Q 3622 1225 3098 567 
Q 2575 -91 1691 -91 
Q 1453 -91 1209 -44 
Q 966 3 703 97 
z
M 1959 2075 
Q 2384 2075 2632 2365 
Q 2881 2656 2881 3163 
Q 2881 3666 2632 3958 
Q 2384 4250 1959 4250 
Q 1534 4250 1286 3958 
Q 1038 3666 1038 3163 
Q 1038 2656 1286 2365 
Q 1534 2075 1959 2075 
z
" transform="scale(0.015625)"/>
       </defs>
       <use xlink:href="#DejaVuSans-30"/>
       <use xlink:href="#DejaVuSans-2e" x="63.623047"/>
       <use xlink:href="#DejaVuSans-39" x="95.410156"/>
      </g>
     </g>
    </g>
    <g id="ytick_8">
     <g id="line2d_27">
      <path d="M 57.6 53.86407 
L 414.72 53.86407 
" clip-path="url(#pd4f1e425d3)" style="fill: none; stroke: #ffffff; stroke-width: 0.8; stroke-linecap: square"/>
     </g>
     <g id="line2d_28">
      <g>
       <use xlink:href="#m593516573c" x="57.6" y="53.86407" style="fill: #555555; stroke: #555555; stroke-width: 0.8"/>
      </g>
     </g>
     <g id="text_15">
      <!-- 1.0 -->
      <g style="fill: #555555" transform="translate(34.696875 57.663288) scale(0.1 -0.1)">
       <use xlink:href="#DejaVuSans-31"/>
       <use xlink:href="#DejaVuSans-2e" x="63.623047"/>
       <use xlink:href="#DejaVuSans-30" x="95.410156"/>
      </g>
     </g>
    </g>
    <g id="text_16">
     <!-- Loss -->
     <g style="fill: #555555" transform="translate(28.20125 187.688625) rotate(-90) scale(0.12 -0.12)">
      <defs>
       <path id="DejaVuSans-4c" d="M 628 4666 
L 1259 4666 
L 1259 531 
L 3531 531 
L 3531 0 
L 628 0 
L 628 4666 
z
" transform="scale(0.015625)"/>
       <path id="DejaVuSans-73" d="M 2834 3397 
L 2834 2853 
Q 2591 2978 2328 3040 
Q 2066 3103 1784 3103 
Q 1356 3103 1142 2972 
Q 928 2841 928 2578 
Q 928 2378 1081 2264 
Q 1234 2150 1697 2047 
L 1894 2003 
Q 2506 1872 2764 1633 
Q 3022 1394 3022 966 
Q 3022 478 2636 193 
Q 2250 -91 1575 -91 
Q 1294 -91 989 -36 
Q 684 19 347 128 
L 347 722 
Q 666 556 975 473 
Q 1284 391 1588 391 
Q 1994 391 2212 530 
Q 2431 669 2431 922 
Q 2431 1156 2273 1281 
Q 2116 1406 1581 1522 
L 1381 1569 
Q 847 1681 609 1914 
Q 372 2147 372 2553 
Q 372 3047 722 3315 
Q 1072 3584 1716 3584 
Q 2034 3584 2315 3537 
Q 2597 3491 2834 3397 
z
" transform="scale(0.015625)"/>
      </defs>
      <use xlink:href="#DejaVuSans-4c"/>
      <use xlink:href="#DejaVuSans-6f" x="53.962891"/>
      <use xlink:href="#DejaVuSans-73" x="115.144531"/>
      <use xlink:href="#DejaVuSans-73" x="167.244141"/>
     </g>
    </g>
   </g>
   <g id="line2d_29">
    <path d="M 73.832727 175.114109 
L 74.435055 176.099464 
L 75.037382 176.837944 
L 75.63971 178.227007 
L 76.242037 180.282848 
L 76.844365 180.85072 
L 78.04902 183.695228 
L 78.651348 184.284035 
L 79.253675 186.2555 
L 79.856003 186.016306 
L 80.45833 187.103004 
L 81.060658 188.622973 
L 81.662985 190.578167 
L 82.265313 190.215554 
L 82.86764 192.313805 
L 83.469968 193.583319 
L 84.072295 194.446011 
L 84.674623 194.905091 
L 85.879278 197.813872 
L 86.481606 198.600198 
L 87.083933 198.915836 
L 87.686261 199.598459 
L 88.288588 202.574337 
L 88.890916 203.1769 
L 89.493243 203.985225 
L 90.095571 204.019702 
L 90.697898 205.82948 
L 91.300226 207.048767 
L 91.902554 207.295895 
L 92.504881 208.033852 
L 93.709536 210.10343 
L 94.914191 212.551814 
L 95.516519 212.447763 
L 96.721174 214.824039 
L 97.323501 215.332088 
L 97.925829 216.795098 
L 98.528157 217.268941 
L 99.732812 219.830277 
L 100.335139 220.076814 
L 100.937467 221.122476 
L 101.539794 222.57055 
L 102.142122 222.488322 
L 102.744449 224.086021 
L 103.346777 225.066946 
L 103.949104 225.783447 
L 104.551432 226.879741 
L 105.153759 227.583976 
L 105.756087 227.967359 
L 106.358415 229.390716 
L 106.960742 230.17621 
L 107.56307 230.733325 
L 108.165397 231.889366 
L 108.767725 232.00995 
L 109.97238 233.390616 
L 110.574707 234.196803 
L 111.177035 236.228623 
L 111.779362 236.132824 
L 112.38169 238.363035 
L 113.586345 238.901121 
L 114.188673 239.285046 
L 114.791 240.097366 
L 115.393328 240.07559 
L 115.995655 242.14717 
L 116.597983 242.255749 
L 117.20031 243.537423 
L 117.802638 243.923824 
L 118.404965 244.523533 
L 119.007293 245.753975 
L 119.609621 245.702094 
L 120.211948 246.832354 
L 120.814276 247.100512 
L 121.416603 248.133656 
L 122.018931 249.506351 
L 122.621258 249.235127 
L 123.223586 250.581257 
L 123.825913 250.72858 
L 124.428241 251.642707 
L 125.030568 252.824161 
L 125.632896 252.341099 
L 126.235223 253.325371 
L 126.837551 254.000429 
L 127.439879 255.545357 
L 128.042206 256.377614 
L 129.246861 256.622642 
L 129.849189 258.006549 
L 130.451516 258.07179 
L 131.053844 258.740608 
L 131.656171 258.890746 
L 132.258499 260.361137 
L 132.860826 260.827947 
L 133.463154 262.25468 
L 134.065482 261.591337 
L 134.667809 262.81818 
L 135.270137 262.853721 
L 135.872464 263.582014 
L 136.474792 263.28558 
L 137.077119 264.646773 
L 138.281774 266.085356 
L 138.884102 265.9764 
L 139.486429 268.14793 
L 140.088757 267.633157 
L 140.691084 269.371048 
L 141.293412 269.47538 
L 141.89574 270.037613 
L 142.498067 269.791385 
L 143.100395 270.6795 
L 143.702722 271.094884 
L 144.30505 270.178144 
L 144.907377 271.569297 
L 145.509705 272.098223 
L 146.71436 275.041326 
L 147.316687 274.011007 
L 147.919015 275.036954 
L 148.521343 274.993209 
L 149.12367 275.516291 
L 149.725998 276.422718 
L 150.328325 276.03801 
L 150.930653 276.56916 
L 151.53298 276.608852 
L 152.135308 278.202894 
L 152.737635 278.389134 
L 153.339963 279.247946 
L 153.94229 279.055757 
L 155.146946 280.285599 
L 155.749273 281.10024 
L 156.351601 280.657228 
L 157.556256 280.417143 
L 158.158583 282.87051 
L 158.760911 283.198365 
L 159.363238 283.245989 
L 159.965566 282.905732 
L 160.567893 284.512776 
L 161.170221 285.088677 
L 161.772548 283.775718 
L 162.374876 285.126937 
L 162.977204 284.778515 
L 163.579531 285.703748 
L 164.181859 286.27698 
L 165.386514 286.713781 
L 165.988841 286.850801 
L 166.591169 287.363988 
L 167.193496 288.598337 
L 167.795824 288.169584 
L 168.398151 288.190625 
L 169.000479 288.676589 
L 169.602807 288.97433 
L 170.205134 290.113257 
L 170.807462 289.269246 
L 172.012117 290.169713 
L 172.614444 290.154932 
L 173.216772 290.891467 
L 173.819099 290.230107 
L 174.421427 292.096892 
L 175.023754 291.554104 
L 175.626082 292.44009 
L 176.22841 292.980499 
L 176.830737 292.116733 
L 177.433065 293.517531 
L 178.035392 293.12519 
L 178.63772 293.049212 
L 179.240047 294.406777 
L 179.842375 294.203153 
L 180.444702 294.375705 
L 181.04703 293.840356 
L 181.649357 294.384663 
L 182.251685 295.488 
L 182.854012 294.967055 
L 183.45634 293.867317 
L 184.058668 293.828089 
L 184.660995 293.642923 
L 185.263323 292.16309 
L 185.86565 291.730081 
L 186.467978 290.326652 
L 187.070305 291.244968 
L 187.672633 289.525157 
L 188.27496 289.32605 
L 188.877288 288.522543 
L 189.479615 286.129541 
L 190.081943 286.310693 
L 190.684271 284.925093 
L 191.286598 286.566082 
L 191.888926 284.406209 
L 193.093581 283.717278 
L 194.900563 281.037825 
L 195.502891 281.14799 
L 196.105218 279.757331 
L 196.707546 279.622904 
L 197.309874 278.327193 
L 197.912201 277.410115 
L 198.514529 277.164574 
L 200.321511 275.225729 
L 200.923839 273.820017 
L 201.526166 273.901132 
L 202.730821 271.571851 
L 203.333149 271.159998 
L 203.935476 270.998378 
L 204.537804 269.237269 
L 205.140132 268.221596 
L 205.742459 267.866654 
L 206.344787 266.609406 
L 206.947114 266.687174 
L 209.356424 263.73933 
L 209.958752 262.472263 
L 210.561079 262.551318 
L 211.163407 260.608225 
L 211.765735 260.819153 
L 213.572717 257.717573 
L 214.175045 257.198409 
L 214.777372 256.077465 
L 215.3797 255.87416 
L 215.982027 254.29016 
L 217.186682 253.936466 
L 217.78901 253.184742 
L 218.391337 251.475524 
L 218.993665 251.047061 
L 220.19832 249.271336 
L 220.800648 249.653277 
L 221.402975 247.855186 
L 222.005303 247.684994 
L 223.209958 245.304404 
L 223.812285 245.105849 
L 225.01694 243.816581 
L 225.619268 241.883278 
L 226.221596 241.55846 
L 226.823923 240.386449 
L 227.426251 240.158185 
L 228.028578 239.09217 
L 228.630906 239.323335 
L 229.233233 238.020765 
L 229.835561 237.590967 
L 230.437888 236.369668 
L 231.040216 236.407144 
L 231.642543 234.242579 
L 232.244871 234.176604 
L 232.847199 232.526667 
L 233.449526 231.883194 
L 234.051854 232.154989 
L 234.654181 231.642132 
L 235.256509 230.188264 
L 235.858836 229.222546 
L 236.461164 228.530646 
L 237.063491 227.363655 
L 237.665819 226.706687 
L 238.268146 226.735737 
L 238.870474 225.666335 
L 239.472801 225.278396 
L 240.075129 223.572477 
L 241.279784 222.47862 
L 241.882112 222.237519 
L 242.484439 220.446296 
L 243.086767 219.984323 
L 243.689094 219.673697 
L 244.291422 219.132292 
L 244.893749 217.461982 
L 245.496077 217.093468 
L 246.098404 216.45932 
L 246.700732 215.468489 
L 247.30306 215.223567 
L 247.905387 214.216639 
L 248.507715 212.784876 
L 250.314697 210.997 
L 250.917025 211.041345 
L 252.12168 208.582551 
L 252.724007 207.951857 
L 253.326335 206.557434 
L 253.928663 206.740211 
L 255.133318 204.643122 
L 255.735645 204.419115 
L 256.337973 203.279868 
L 256.9403 202.7528 
L 257.542628 202.47907 
L 258.144955 200.937431 
L 258.747283 200.517026 
L 259.951938 198.775314 
L 261.156593 197.370424 
L 261.758921 197.124129 
L 265.372886 192.43229 
L 266.577541 191.37233 
L 267.179868 190.074413 
L 269.589179 187.506886 
L 270.793834 185.729767 
L 271.998489 184.736866 
L 272.600816 183.897759 
L 273.203144 183.483372 
L 273.805471 182.703024 
L 274.407799 182.222603 
L 275.010126 180.640895 
L 275.612454 179.983791 
L 276.214782 179.682471 
L 276.817109 178.844313 
L 277.419437 178.263071 
L 278.021764 177.376775 
L 278.624092 177.073559 
L 279.828747 175.405252 
L 280.431074 174.075354 
L 281.033402 173.729979 
L 283.442712 171.554744 
L 284.04504 170.507902 
L 285.249695 169.258606 
L 285.852022 168.301169 
L 286.45435 167.887517 
L 287.056677 167.611794 
L 287.659005 166.482627 
L 288.261332 166.508805 
L 289.465988 164.575434 
L 290.068315 163.867563 
L 290.670643 163.632895 
L 291.27297 162.353359 
L 293.68228 160.449881 
L 294.284608 159.458586 
L 294.886935 158.723144 
L 295.489263 158.369372 
L 296.693918 156.544368 
L 297.898573 156.026742 
L 298.500901 154.969316 
L 299.103228 154.67086 
L 299.705556 153.489764 
L 300.307883 153.143886 
L 300.910211 152.182986 
L 301.512538 151.87443 
L 302.717193 150.83198 
L 303.319521 149.866107 
L 304.524176 148.879533 
L 305.126504 147.556426 
L 305.728831 147.251759 
L 306.331159 147.15326 
L 307.535814 145.890653 
L 308.740469 144.558549 
L 309.945124 143.608832 
L 310.547452 142.859169 
L 311.149779 141.702684 
L 311.752107 141.147929 
L 312.354434 141.024878 
L 313.559089 139.501794 
L 314.161417 138.992816 
L 314.763744 138.814566 
L 315.366072 137.674817 
L 316.570727 137.15601 
L 317.173054 136.379241 
L 317.775382 135.133757 
L 318.37771 134.368442 
L 318.980037 134.021848 
L 319.582365 134.197467 
L 320.184692 134.081575 
L 320.78702 133.095019 
L 321.389347 131.866484 
L 321.991675 132.089001 
L 324.400985 129.30209 
L 325.003313 129.091221 
L 325.60564 128.447796 
L 326.207968 127.438643 
L 326.810295 127.429124 
L 327.412623 127.184008 
L 328.617278 125.567669 
L 330.42426 124.197934 
L 331.026588 124.090825 
L 331.628916 122.770814 
L 332.231243 123.153761 
L 332.833571 122.079136 
L 333.435898 121.29844 
L 334.038226 120.758118 
L 334.640553 119.712456 
L 335.242881 119.735325 
L 335.845208 119.402972 
L 336.447536 118.905525 
L 337.049863 117.7585 
L 337.652191 117.766916 
L 338.254518 117.558949 
L 338.856846 116.856301 
L 339.459174 117.036234 
L 340.061501 115.983007 
L 340.663829 115.377523 
L 341.266156 115.147441 
L 341.868484 114.5632 
L 342.470811 113.735392 
L 343.073139 113.627762 
L 343.675466 112.948969 
L 344.277794 112.568169 
L 345.482449 111.066 
L 346.084777 110.610576 
L 346.687104 110.442774 
L 347.289432 109.976612 
L 347.891759 108.786249 
L 349.096414 108.77257 
L 349.698742 108.24556 
L 350.301069 106.734762 
L 351.505724 106.504177 
L 352.108052 106.490362 
L 352.710379 105.318089 
L 353.312707 104.795935 
L 354.517362 104.220169 
L 355.11969 103.430322 
L 355.722017 102.865022 
L 356.324345 101.891662 
L 356.926672 102.257023 
L 357.529 101.285985 
L 358.131327 100.757156 
L 358.733655 101.011345 
L 359.93831 99.809219 
L 360.540638 99.8602 
L 361.142965 98.813106 
L 361.745293 98.91561 
L 362.34762 97.761543 
L 362.949948 97.831814 
L 363.552275 98.086254 
L 364.154603 97.013873 
L 365.961585 95.317821 
L 366.563913 94.837477 
L 367.166241 94.936557 
L 367.768568 93.916588 
L 368.370896 93.208465 
L 368.973223 94.01232 
L 369.575551 92.715487 
L 370.177878 92.088992 
L 370.780206 92.597254 
L 371.382533 92.01044 
L 371.984861 91.681201 
L 373.189516 90.083048 
L 373.791843 88.664538 
L 374.394171 89.57231 
L 374.996499 89.976791 
L 375.598826 88.951676 
L 376.201154 88.51146 
L 376.803481 86.978837 
L 377.405809 88.191876 
L 378.008136 87.874071 
L 378.610464 86.184017 
L 379.212791 85.716946 
L 379.815119 84.816604 
L 380.417446 84.97272 
L 382.224429 84.35969 
L 382.826757 82.813544 
L 383.429084 83.790754 
L 384.633739 82.246987 
L 385.236067 82.477998 
L 386.440722 81.047743 
L 387.043049 81.239827 
L 387.645377 80.491615 
L 388.247705 80.01369 
L 388.850032 79.056872 
L 389.45236 80.89865 
L 390.054687 79.039904 
L 391.259342 77.931304 
L 391.86167 78.907489 
L 392.463997 76.935501 
L 393.066325 78.622866 
L 393.668652 76.214511 
L 394.27098 76.116245 
L 394.873307 75.845494 
L 395.475635 74.774835 
L 396.077963 75.27561 
L 396.68029 76.623559 
L 397.282618 74.361995 
L 397.884945 75.008438 
L 398.487273 73.413207 
L 398.487273 73.413207 
" clip-path="url(#pd4f1e425d3)" style="fill: none; stroke: #6495ed; stroke-width: 2; stroke-linecap: square"/>
   </g>
   <g id="line2d_30">
    <path d="M 73.832727 147.937226 
L 74.435055 147.230958 
L 75.037382 147.379267 
L 75.63971 146.761824 
L 76.242037 145.909539 
L 76.844365 145.660951 
L 77.446693 145.834322 
L 78.04902 144.827827 
L 78.651348 144.908973 
L 79.253675 143.808437 
L 79.856003 144.571996 
L 80.45833 144.118848 
L 81.060658 144.006315 
L 81.662985 142.602963 
L 82.265313 143.188202 
L 82.86764 142.177206 
L 84.072295 141.059571 
L 84.674623 141.742129 
L 85.276951 140.635045 
L 85.879278 139.891477 
L 86.481606 139.666365 
L 87.083933 139.915417 
L 87.686261 139.476492 
L 88.288588 138.212548 
L 88.890916 137.435586 
L 90.095571 137.496589 
L 91.300226 135.711076 
L 91.902554 136.37328 
L 92.504881 135.732075 
L 93.107209 135.298069 
L 94.311864 134.157323 
L 94.914191 133.14431 
L 95.516519 134.281276 
L 96.118846 133.008765 
L 96.721174 132.448429 
L 97.323501 132.090696 
L 97.925829 131.288052 
L 98.528157 131.043694 
L 99.130484 130.654333 
L 99.732812 129.354815 
L 100.335139 129.615539 
L 101.539794 128.01533 
L 102.142122 128.146969 
L 102.744449 127.520645 
L 103.346777 126.267112 
L 103.949104 125.920664 
L 104.551432 125.20404 
L 105.756087 124.674178 
L 106.358415 124.22223 
L 106.960742 123.159808 
L 107.56307 122.989268 
L 108.165397 121.938099 
L 108.767725 122.335093 
L 109.370052 121.580269 
L 109.97238 121.769627 
L 110.574707 120.794881 
L 111.177035 118.977669 
L 111.779362 118.954167 
L 112.38169 117.33106 
L 112.984018 117.016773 
L 113.586345 117.514065 
L 114.791 116.549418 
L 115.393328 116.522329 
L 115.995655 114.572262 
L 116.597983 114.367168 
L 117.20031 113.977388 
L 117.802638 113.223408 
L 118.404965 112.8008 
L 119.007293 111.730441 
L 119.609621 112.068645 
L 120.211948 110.678527 
L 120.814276 111.118101 
L 121.416603 109.67445 
L 122.018931 108.814753 
L 122.621258 109.048269 
L 123.223586 107.815772 
L 123.825913 107.388791 
L 124.428241 107.22023 
L 125.030568 105.603994 
L 125.632896 106.51897 
L 126.837551 104.793253 
L 127.439879 102.952517 
L 128.042206 102.8327 
L 128.644534 102.439367 
L 129.246861 102.465017 
L 129.849189 100.721208 
L 130.451516 100.989816 
L 131.053844 100.111129 
L 131.656171 100.609173 
L 132.258499 98.538188 
L 132.860826 98.370652 
L 133.463154 96.192235 
L 134.065482 97.473203 
L 134.667809 95.946268 
L 135.270137 96.671829 
L 135.872464 95.179548 
L 136.474792 95.879725 
L 137.077119 94.200452 
L 138.281774 92.457414 
L 138.884102 93.318364 
L 139.486429 90.264336 
L 140.088757 91.219141 
L 140.691084 88.73284 
L 141.293412 88.877546 
L 141.89574 88.027788 
L 142.498067 89.165088 
L 143.100395 87.234061 
L 143.702722 86.986342 
L 144.30505 88.327215 
L 144.907377 86.850233 
L 146.112032 84.800739 
L 146.71436 81.867843 
L 147.316687 83.560531 
L 147.919015 82.075538 
L 148.521343 82.332044 
L 149.12367 81.557679 
L 149.725998 81.092407 
L 150.328325 81.279392 
L 150.930653 80.732757 
L 151.53298 80.392761 
L 152.135308 78.097624 
L 152.737635 77.968519 
L 153.339963 77.527853 
L 153.94229 77.369703 
L 155.146946 75.71015 
L 155.749273 74.685173 
L 156.351601 75.104893 
L 156.953928 76.139261 
L 157.556256 75.830889 
L 158.158583 72.009959 
L 158.760911 71.479433 
L 159.965566 72.081824 
L 160.567893 70.274423 
L 161.170221 68.8641 
L 161.772548 71.192207 
L 162.374876 69.08905 
L 162.977204 69.618793 
L 163.579531 68.036212 
L 164.181859 67.906801 
L 164.784186 67.04187 
L 165.386514 67.05949 
L 165.988841 66.65911 
L 166.591169 65.981728 
L 167.193496 63.63256 
L 167.795824 65.073156 
L 168.398151 64.863495 
L 169.000479 64.080734 
L 169.602807 63.732847 
L 170.205134 61.868463 
L 170.807462 63.09562 
L 171.409789 62.995133 
L 172.012117 61.836094 
L 172.614444 61.978469 
L 173.216772 60.76973 
L 173.819099 61.974991 
L 174.421427 58.448496 
L 175.023754 60.139643 
L 175.626082 58.318862 
L 176.22841 57.51631 
L 176.830737 58.778037 
L 177.433065 56.708459 
L 178.035392 57.133551 
L 178.63772 57.890232 
L 179.240047 55.008954 
L 179.842375 55.665503 
L 180.444702 55.058522 
L 181.04703 56.322384 
L 181.649357 55.127782 
L 182.251685 53.568 
L 182.854012 54.277601 
L 183.45634 56.13048 
L 184.058668 55.910248 
L 184.660995 56.253536 
L 185.263323 58.362803 
L 185.86565 59.3504 
L 186.467978 61.073534 
L 187.070305 59.469025 
L 187.672633 62.319874 
L 188.27496 62.450502 
L 188.877288 63.298238 
L 189.479615 67.743035 
L 190.081943 66.869248 
L 190.684271 68.858208 
L 191.286598 65.62141 
L 191.888926 69.433244 
L 192.491253 69.454152 
L 193.695908 70.907202 
L 194.298236 72.30489 
L 194.900563 73.255344 
L 195.502891 73.268107 
L 196.105218 74.623002 
L 196.707546 75.162005 
L 197.912201 77.672353 
L 198.514529 77.70433 
L 199.116856 78.706063 
L 199.719184 79.314907 
L 200.321511 80.201802 
L 200.923839 81.654125 
L 201.526166 81.540177 
L 202.128494 82.696065 
L 202.730821 84.195458 
L 203.935476 84.648473 
L 204.537804 86.542205 
L 205.140132 87.744118 
L 205.742459 87.6404 
L 206.344787 89.427739 
L 206.947114 88.927223 
L 207.549442 90.11682 
L 208.151769 90.548219 
L 208.754097 91.251788 
L 209.356424 91.77896 
L 209.958752 93.390417 
L 210.561079 92.832826 
L 211.163407 95.326099 
L 211.765735 94.609925 
L 213.572717 97.594752 
L 214.175045 97.863665 
L 214.777372 99.263509 
L 215.3797 99.119287 
L 215.982027 100.569349 
L 216.584355 100.577617 
L 217.186682 100.74932 
L 217.78901 101.139337 
L 218.391337 103.105823 
L 218.993665 103.222942 
L 220.19832 104.610508 
L 220.800648 104.061262 
L 221.402975 105.594032 
L 222.005303 105.952109 
L 223.209958 107.835175 
L 223.812285 107.699701 
L 224.414613 108.349928 
L 225.01694 108.535284 
L 225.619268 110.575997 
L 226.221596 110.521833 
L 226.823923 111.481553 
L 227.426251 111.359663 
L 228.028578 112.330602 
L 228.630906 111.792864 
L 229.233233 113.077597 
L 229.835561 113.145645 
L 230.437888 114.083401 
L 231.040216 113.725143 
L 231.642543 115.686408 
L 232.244871 115.456877 
L 232.847199 116.93508 
L 233.449526 117.21636 
L 234.051854 116.772289 
L 234.654181 116.965453 
L 235.256509 118.172556 
L 236.461164 119.38017 
L 237.063491 120.118353 
L 237.665819 120.493627 
L 238.268146 120.107148 
L 238.870474 120.984974 
L 239.472801 120.991385 
L 240.075129 122.433328 
L 241.279784 122.874839 
L 241.882112 122.770245 
L 242.484439 124.213218 
L 243.689094 124.458972 
L 244.291422 124.69459 
L 244.893749 125.874019 
L 245.496077 125.815623 
L 246.700732 126.830692 
L 247.30306 126.922109 
L 247.905387 127.511813 
L 248.507715 128.430318 
L 250.314697 129.150572 
L 250.917025 129.020839 
L 252.12168 130.5524 
L 252.724007 130.698085 
L 253.326335 131.718815 
L 253.928663 131.328015 
L 255.133318 132.60128 
L 255.735645 132.555578 
L 256.337973 133.098751 
L 256.9403 133.387773 
L 257.542628 133.356633 
L 258.144955 134.308065 
L 258.747283 134.510512 
L 259.951938 135.278898 
L 261.156593 135.953922 
L 261.758921 135.975916 
L 262.361248 136.442368 
L 263.565903 137.134527 
L 264.168231 137.571595 
L 265.372886 138.146771 
L 265.975213 138.450734 
L 266.577541 138.564832 
L 267.179868 139.109627 
L 267.782196 139.4968 
L 269.589179 140.328187 
L 270.793834 141.025072 
L 271.396161 141.29679 
L 271.998489 141.420254 
L 273.805471 142.21254 
L 274.407799 142.27327 
L 275.010126 143.190248 
L 275.612454 143.417452 
L 276.214782 143.386254 
L 276.817109 143.952431 
L 277.419437 144.015101 
L 278.021764 144.343486 
L 278.624092 144.474871 
L 279.828747 145.041456 
L 280.431074 145.927936 
L 281.635729 145.931651 
L 282.238057 146.285833 
L 282.840385 146.427985 
L 283.442712 146.422466 
L 284.04504 147.13199 
L 285.249695 147.375893 
L 285.852022 147.908221 
L 286.45435 147.967648 
L 287.056677 147.846495 
L 287.659005 148.613769 
L 288.261332 148.335086 
L 290.068315 149.392705 
L 290.670643 149.23891 
L 291.27297 150.069134 
L 292.477625 150.103953 
L 293.079953 150.421875 
L 293.68228 150.478699 
L 294.284608 150.681071 
L 294.886935 151.293044 
L 295.489263 151.213617 
L 296.09159 151.498189 
L 296.693918 151.928809 
L 297.296246 151.965674 
L 297.898573 151.725961 
L 298.500901 152.499291 
L 299.103228 152.393827 
L 299.705556 152.828007 
L 300.307883 152.972466 
L 300.910211 153.353835 
L 301.512538 153.13036 
L 302.114866 153.6868 
L 302.717193 153.648756 
L 303.921849 154.178707 
L 304.524176 154.33141 
L 305.126504 154.622229 
L 305.728831 155.043243 
L 306.331159 154.821358 
L 308.138141 155.457145 
L 308.740469 155.397569 
L 309.342796 155.914806 
L 309.945124 155.90815 
L 310.547452 156.073456 
L 311.149779 156.613134 
L 311.752107 156.799476 
L 312.354434 156.448488 
L 312.956762 157.173401 
L 314.763744 157.325536 
L 315.366072 157.821742 
L 315.968399 157.483197 
L 316.570727 158.009533 
L 317.173054 158.054132 
L 318.37771 158.784642 
L 318.980037 158.921135 
L 319.582365 158.390118 
L 320.184692 158.85751 
L 320.78702 158.964909 
L 321.389347 159.374223 
L 321.991675 159.272362 
L 322.594002 159.511886 
L 323.19633 159.420664 
L 323.798657 160.119365 
L 325.003313 160.060672 
L 325.60564 160.311577 
L 326.207968 160.754226 
L 326.810295 160.26669 
L 327.412623 160.811014 
L 328.01495 160.841177 
L 329.821933 161.432637 
L 330.42426 161.122209 
L 331.026588 161.642043 
L 331.628916 161.885507 
L 332.231243 161.606074 
L 333.435898 162.377466 
L 334.038226 162.034994 
L 334.640553 162.988106 
L 335.242881 162.664522 
L 335.845208 162.688479 
L 336.447536 162.880451 
L 337.049863 163.341131 
L 337.652191 162.837538 
L 338.254518 163.420519 
L 338.856846 163.411836 
L 339.459174 163.224334 
L 340.663829 163.879345 
L 341.266156 163.424076 
L 341.868484 164.179159 
L 343.073139 164.174486 
L 344.277794 164.587868 
L 344.880121 164.363498 
L 345.482449 165.187272 
L 346.084777 165.027876 
L 346.687104 165.012556 
L 347.289432 165.173375 
L 347.891759 165.647305 
L 348.494087 165.074478 
L 349.096414 165.657209 
L 349.698742 165.564028 
L 350.301069 166.00878 
L 351.505724 166.173858 
L 352.108052 165.523299 
L 352.710379 166.611417 
L 353.312707 166.465219 
L 354.517362 166.584514 
L 355.11969 166.952973 
L 355.722017 166.543239 
L 356.324345 167.534275 
L 356.926672 167.066399 
L 358.131327 167.518168 
L 358.733655 167.513155 
L 359.335982 167.111249 
L 359.93831 167.960501 
L 360.540638 167.605832 
L 361.142965 167.902502 
L 361.745293 167.862227 
L 362.34762 168.343299 
L 362.949948 167.661077 
L 363.552275 168.26437 
L 364.75693 168.471527 
L 365.961585 168.929863 
L 366.563913 168.423971 
L 367.166241 169.099409 
L 367.768568 169.114089 
L 368.370896 169.28371 
L 368.973223 169.010925 
L 369.575551 169.54231 
L 370.177878 169.094606 
L 370.780206 169.60993 
L 371.382533 169.48113 
L 371.984861 169.555358 
L 372.587188 169.765855 
L 373.189516 170.199392 
L 373.791843 169.975153 
L 374.394171 170.424603 
L 374.996499 169.895109 
L 375.598826 170.215958 
L 376.201154 170.348216 
L 376.803481 170.992942 
L 377.405809 169.868211 
L 378.008136 170.730654 
L 379.815119 171.338626 
L 380.417446 171.410012 
L 381.019774 170.75176 
L 381.622102 171.61091 
L 382.224429 171.301963 
L 382.826757 171.785257 
L 383.429084 171.417325 
L 384.031412 171.846224 
L 384.633739 171.351473 
L 385.236067 172.05542 
L 385.838394 171.964092 
L 386.440722 172.11615 
L 387.043049 172.020942 
L 387.645377 172.448394 
L 388.247705 171.820073 
L 388.850032 172.96352 
L 389.45236 171.994811 
L 390.054687 172.554826 
L 390.657015 172.730019 
L 391.259342 173.0485 
L 391.86167 171.947857 
L 392.463997 173.433022 
L 393.066325 172.51978 
L 393.668652 173.239488 
L 394.27098 173.293185 
L 394.873307 173.543393 
L 395.475635 173.059274 
L 396.077963 173.764355 
L 396.68029 172.979518 
L 397.282618 173.663421 
L 397.884945 173.438369 
L 398.487273 174.118709 
L 398.487273 174.118709 
" clip-path="url(#pd4f1e425d3)" style="fill: none; stroke: #dc143c; stroke-width: 2; stroke-linecap: square"/>
   </g>
   <g id="line2d_31">
    <path d="M 73.832727 255.307947 
L 76.844365 255.307947 
L 77.446693 255.734208 
L 80.45833 255.734208 
L 81.060658 256.102211 
L 84.072295 256.102211 
L 84.674623 256.456134 
L 87.686261 256.456134 
L 88.288588 256.848896 
L 91.300226 256.848896 
L 91.902554 257.273215 
L 94.914191 257.273215 
L 95.516519 257.639276 
L 98.528157 257.639276 
L 99.130484 257.933969 
L 102.142122 257.933969 
L 102.744449 258.289348 
L 105.756087 258.289348 
L 106.358415 258.594237 
L 109.370052 258.594237 
L 109.97238 258.881162 
L 112.984018 258.881162 
L 113.586345 259.167602 
L 116.597983 259.167602 
L 117.20031 259.359856 
L 120.211948 259.359856 
L 120.814276 259.513271 
L 123.825913 259.513271 
L 124.428241 259.738539 
L 127.439879 259.738539 
L 128.042206 259.899237 
L 131.053844 259.899237 
L 131.656171 260.058478 
L 134.667809 260.058478 
L 135.270137 260.219661 
L 138.281774 260.219661 
L 138.884102 260.358512 
L 145.509705 260.456095 
L 146.71436 260.563389 
L 152.737635 260.629416 
L 153.94229 260.70758 
L 163.579531 260.601743 
L 165.988841 260.5697 
L 170.807462 260.503673 
L 172.012117 260.404633 
L 174.421427 260.404633 
L 175.023754 260.266754 
L 178.035392 260.266754 
L 178.63772 260.101687 
L 181.649357 260.101687 
L 182.251685 259.452585 
L 185.263323 259.452585 
L 185.86565 258.392758 
L 188.877288 258.392758 
L 189.479615 257.329047 
L 192.491253 257.329047 
L 193.093581 256.236692 
L 196.105218 256.236692 
L 196.707546 254.954995 
L 199.719184 254.954995 
L 200.321511 253.542701 
L 203.333149 253.542701 
L 203.935476 251.907567 
L 206.947114 251.907567 
L 207.549442 250.218058 
L 210.561079 250.218058 
L 211.163407 248.402806 
L 214.175045 248.402806 
L 214.777372 246.195763 
L 217.78901 246.195763 
L 218.391337 243.881913 
L 221.402975 243.881913 
L 222.005303 241.366583 
L 225.01694 241.366583 
L 225.619268 238.540053 
L 228.630906 238.540053 
L 229.233233 235.358144 
L 232.244871 235.358144 
L 232.847199 231.768908 
L 235.858836 231.768908 
L 236.461164 227.978193 
L 239.472801 227.978193 
L 240.075129 223.868996 
L 243.086767 223.868996 
L 243.689094 219.337421 
L 246.700732 219.337421 
L 247.30306 214.459692 
L 250.314697 214.459692 
L 250.917025 209.246487 
L 253.928663 209.246487 
L 254.53099 203.62013 
L 257.542628 203.62013 
L 258.144955 197.775788 
L 261.156593 197.775788 
L 261.758921 191.584319 
L 264.770558 191.584319 
L 265.372886 185.273419 
L 268.384524 185.273419 
L 268.986851 179.03243 
L 271.998489 179.03243 
L 272.600816 172.798724 
L 275.612454 172.798724 
L 276.214782 167.073327 
L 279.226419 167.073327 
L 279.828747 161.834391 
L 282.840385 161.834391 
L 283.442712 157.051818 
L 286.45435 157.051818 
L 287.056677 152.852805 
L 290.068315 152.852805 
L 290.670643 149.203368 
L 293.68228 149.203368 
L 294.284608 146.124868 
L 297.296246 146.124868 
L 297.898573 143.308534 
L 300.910211 143.308534 
L 301.512538 141.063623 
L 304.524176 141.063623 
L 305.126504 139.112919 
L 308.138141 139.112919 
L 308.740469 137.597701 
L 311.752107 137.597701 
L 312.354434 136.166474 
L 315.366072 136.166474 
L 315.968399 134.989643 
L 318.980037 134.989643 
L 319.582365 134.078376 
L 322.594002 134.078376 
L 323.19633 133.317611 
L 326.207968 133.317611 
L 326.810295 132.719001 
L 329.821933 132.719001 
L 330.42426 132.237394 
L 333.435898 132.237394 
L 334.038226 131.903861 
L 337.049863 131.903861 
L 337.652191 131.609653 
L 340.663829 131.609653 
L 341.266156 131.377103 
L 344.277794 131.377103 
L 344.880121 131.196986 
L 347.891759 131.196986 
L 348.494087 131.081439 
L 351.505724 131.081439 
L 352.108052 130.915887 
L 358.733655 130.845005 
L 360.540638 130.797912 
L 380.417446 130.853744 
L 381.019774 130.968805 
L 387.645377 131.056194 
L 388.850032 131.163973 
L 398.487273 131.223203 
L 398.487273 131.223203 
" clip-path="url(#pd4f1e425d3)" style="fill: none; stroke: #ffff00; stroke-width: 3; stroke-linecap: square"/>
   </g>
   <g id="patch_3">
    <path d="M 57.6 307.584 
L 57.6 41.472 
" style="fill: none; stroke: #ffffff; stroke-linejoin: miter; stroke-linecap: square"/>
   </g>
   <g id="patch_4">
    <path d="M 414.72 307.584 
L 414.72 41.472 
" style="fill: none; stroke: #ffffff; stroke-linejoin: miter; stroke-linecap: square"/>
   </g>
   <g id="patch_5">
    <path d="M 57.6 307.584 
L 414.72 307.584 
" style="fill: none; stroke: #ffffff; stroke-linejoin: miter; stroke-linecap: square"/>
   </g>
   <g id="patch_6">
    <path d="M 57.6 41.472 
L 414.72 41.472 
" style="fill: none; stroke: #ffffff; stroke-linejoin: miter; stroke-linecap: square"/>
   </g>
   <g id="legend_1">
    <g id="patch_7">
     <path d="M 243.124687 302.584 
L 407.72 302.584 
Q 409.72 302.584 409.72 300.584 
L 409.72 257.549625 
Q 409.72 255.549625 407.72 255.549625 
L 243.124687 255.549625 
Q 241.124687 255.549625 241.124687 257.549625 
L 241.124687 300.584 
Q 241.124687 302.584 243.124687 302.584 
z
" style="fill: #e5e5e5; opacity: 0.8; stroke: #cccccc; stroke-width: 0.5; stroke-linejoin: miter"/>
    </g>
    <g id="line2d_32">
     <path d="M 245.124687 263.648062 
L 255.124687 263.648062 
L 265.124687 263.648062 
" style="fill: none; stroke: #6495ed; stroke-width: 2; stroke-linecap: square"/>
    </g>
    <g id="text_17">
     <!-- Generator loss -->
     <g transform="translate(273.124687 267.148062) scale(0.1 -0.1)">
      <defs>
       <path id="DejaVuSans-47" d="M 3809 666 
L 3809 1919 
L 2778 1919 
L 2778 2438 
L 4434 2438 
L 4434 434 
Q 4069 175 3628 42 
Q 3188 -91 2688 -91 
Q 1594 -91 976 548 
Q 359 1188 359 2328 
Q 359 3472 976 4111 
Q 1594 4750 2688 4750 
Q 3144 4750 3555 4637 
Q 3966 4525 4313 4306 
L 4313 3634 
Q 3963 3931 3569 4081 
Q 3175 4231 2741 4231 
Q 1884 4231 1454 3753 
Q 1025 3275 1025 2328 
Q 1025 1384 1454 906 
Q 1884 428 2741 428 
Q 3075 428 3337 486 
Q 3600 544 3809 666 
z
" transform="scale(0.015625)"/>
       <path id="DejaVuSans-65" d="M 3597 1894 
L 3597 1613 
L 953 1613 
Q 991 1019 1311 708 
Q 1631 397 2203 397 
Q 2534 397 2845 478 
Q 3156 559 3463 722 
L 3463 178 
Q 3153 47 2828 -22 
Q 2503 -91 2169 -91 
Q 1331 -91 842 396 
Q 353 884 353 1716 
Q 353 2575 817 3079 
Q 1281 3584 2069 3584 
Q 2775 3584 3186 3129 
Q 3597 2675 3597 1894 
z
M 3022 2063 
Q 3016 2534 2758 2815 
Q 2500 3097 2075 3097 
Q 1594 3097 1305 2825 
Q 1016 2553 972 2059 
L 3022 2063 
z
" transform="scale(0.015625)"/>
       <path id="DejaVuSans-6e" d="M 3513 2113 
L 3513 0 
L 2938 0 
L 2938 2094 
Q 2938 2591 2744 2837 
Q 2550 3084 2163 3084 
Q 1697 3084 1428 2787 
Q 1159 2491 1159 1978 
L 1159 0 
L 581 0 
L 581 3500 
L 1159 3500 
L 1159 2956 
Q 1366 3272 1645 3428 
Q 1925 3584 2291 3584 
Q 2894 3584 3203 3211 
Q 3513 2838 3513 2113 
z
" transform="scale(0.015625)"/>
       <path id="DejaVuSans-72" d="M 2631 2963 
Q 2534 3019 2420 3045 
Q 2306 3072 2169 3072 
Q 1681 3072 1420 2755 
Q 1159 2438 1159 1844 
L 1159 0 
L 581 0 
L 581 3500 
L 1159 3500 
L 1159 2956 
Q 1341 3275 1631 3429 
Q 1922 3584 2338 3584 
Q 2397 3584 2469 3576 
Q 2541 3569 2628 3553 
L 2631 2963 
z
" transform="scale(0.015625)"/>
       <path id="DejaVuSans-61" d="M 2194 1759 
Q 1497 1759 1228 1600 
Q 959 1441 959 1056 
Q 959 750 1161 570 
Q 1363 391 1709 391 
Q 2188 391 2477 730 
Q 2766 1069 2766 1631 
L 2766 1759 
L 2194 1759 
z
M 3341 1997 
L 3341 0 
L 2766 0 
L 2766 531 
Q 2569 213 2275 61 
Q 1981 -91 1556 -91 
Q 1019 -91 701 211 
Q 384 513 384 1019 
Q 384 1609 779 1909 
Q 1175 2209 1959 2209 
L 2766 2209 
L 2766 2266 
Q 2766 2663 2505 2880 
Q 2244 3097 1772 3097 
Q 1472 3097 1187 3025 
Q 903 2953 641 2809 
L 641 3341 
Q 956 3463 1253 3523 
Q 1550 3584 1831 3584 
Q 2591 3584 2966 3190 
Q 3341 2797 3341 1997 
z
" transform="scale(0.015625)"/>
       <path id="DejaVuSans-74" d="M 1172 4494 
L 1172 3500 
L 2356 3500 
L 2356 3053 
L 1172 3053 
L 1172 1153 
Q 1172 725 1289 603 
Q 1406 481 1766 481 
L 2356 481 
L 2356 0 
L 1766 0 
Q 1100 0 847 248 
Q 594 497 594 1153 
L 594 3053 
L 172 3053 
L 172 3500 
L 594 3500 
L 594 4494 
L 1172 4494 
z
" transform="scale(0.015625)"/>
       <path id="DejaVuSans-20" transform="scale(0.015625)"/>
       <path id="DejaVuSans-6c" d="M 603 4863 
L 1178 4863 
L 1178 0 
L 603 0 
L 603 4863 
z
" transform="scale(0.015625)"/>
      </defs>
      <use xlink:href="#DejaVuSans-47"/>
      <use xlink:href="#DejaVuSans-65" x="77.490234"/>
      <use xlink:href="#DejaVuSans-6e" x="139.013672"/>
      <use xlink:href="#DejaVuSans-65" x="202.392578"/>
      <use xlink:href="#DejaVuSans-72" x="263.916016"/>
      <use xlink:href="#DejaVuSans-61" x="305.029297"/>
      <use xlink:href="#DejaVuSans-74" x="366.308594"/>
      <use xlink:href="#DejaVuSans-6f" x="405.517578"/>
      <use xlink:href="#DejaVuSans-72" x="466.699219"/>
      <use xlink:href="#DejaVuSans-20" x="507.8125"/>
      <use xlink:href="#DejaVuSans-6c" x="539.599609"/>
      <use xlink:href="#DejaVuSans-6f" x="567.382812"/>
      <use xlink:href="#DejaVuSans-73" x="628.564453"/>
      <use xlink:href="#DejaVuSans-73" x="680.664062"/>
     </g>
    </g>
    <g id="line2d_33">
     <path d="M 245.124687 278.326188 
L 255.124687 278.326188 
L 265.124687 278.326188 
" style="fill: none; stroke: #dc143c; stroke-width: 2; stroke-linecap: square"/>
    </g>
    <g id="text_18">
     <!-- Average discriminator loss -->
     <g transform="translate(273.124687 281.826188) scale(0.1 -0.1)">
      <defs>
       <path id="DejaVuSans-41" d="M 2188 4044 
L 1331 1722 
L 3047 1722 
L 2188 4044 
z
M 1831 4666 
L 2547 4666 
L 4325 0 
L 3669 0 
L 3244 1197 
L 1141 1197 
L 716 0 
L 50 0 
L 1831 4666 
z
" transform="scale(0.015625)"/>
       <path id="DejaVuSans-76" d="M 191 3500 
L 800 3500 
L 1894 563 
L 2988 3500 
L 3597 3500 
L 2284 0 
L 1503 0 
L 191 3500 
z
" transform="scale(0.015625)"/>
       <path id="DejaVuSans-67" d="M 2906 1791 
Q 2906 2416 2648 2759 
Q 2391 3103 1925 3103 
Q 1463 3103 1205 2759 
Q 947 2416 947 1791 
Q 947 1169 1205 825 
Q 1463 481 1925 481 
Q 2391 481 2648 825 
Q 2906 1169 2906 1791 
z
M 3481 434 
Q 3481 -459 3084 -895 
Q 2688 -1331 1869 -1331 
Q 1566 -1331 1297 -1286 
Q 1028 -1241 775 -1147 
L 775 -588 
Q 1028 -725 1275 -790 
Q 1522 -856 1778 -856 
Q 2344 -856 2625 -561 
Q 2906 -266 2906 331 
L 2906 616 
Q 2728 306 2450 153 
Q 2172 0 1784 0 
Q 1141 0 747 490 
Q 353 981 353 1791 
Q 353 2603 747 3093 
Q 1141 3584 1784 3584 
Q 2172 3584 2450 3431 
Q 2728 3278 2906 2969 
L 2906 3500 
L 3481 3500 
L 3481 434 
z
" transform="scale(0.015625)"/>
       <path id="DejaVuSans-64" d="M 2906 2969 
L 2906 4863 
L 3481 4863 
L 3481 0 
L 2906 0 
L 2906 525 
Q 2725 213 2448 61 
Q 2172 -91 1784 -91 
Q 1150 -91 751 415 
Q 353 922 353 1747 
Q 353 2572 751 3078 
Q 1150 3584 1784 3584 
Q 2172 3584 2448 3432 
Q 2725 3281 2906 2969 
z
M 947 1747 
Q 947 1113 1208 752 
Q 1469 391 1925 391 
Q 2381 391 2643 752 
Q 2906 1113 2906 1747 
Q 2906 2381 2643 2742 
Q 2381 3103 1925 3103 
Q 1469 3103 1208 2742 
Q 947 2381 947 1747 
z
" transform="scale(0.015625)"/>
       <path id="DejaVuSans-69" d="M 603 3500 
L 1178 3500 
L 1178 0 
L 603 0 
L 603 3500 
z
M 603 4863 
L 1178 4863 
L 1178 4134 
L 603 4134 
L 603 4863 
z
" transform="scale(0.015625)"/>
       <path id="DejaVuSans-6d" d="M 3328 2828 
Q 3544 3216 3844 3400 
Q 4144 3584 4550 3584 
Q 5097 3584 5394 3201 
Q 5691 2819 5691 2113 
L 5691 0 
L 5113 0 
L 5113 2094 
Q 5113 2597 4934 2840 
Q 4756 3084 4391 3084 
Q 3944 3084 3684 2787 
Q 3425 2491 3425 1978 
L 3425 0 
L 2847 0 
L 2847 2094 
Q 2847 2600 2669 2842 
Q 2491 3084 2119 3084 
Q 1678 3084 1418 2786 
Q 1159 2488 1159 1978 
L 1159 0 
L 581 0 
L 581 3500 
L 1159 3500 
L 1159 2956 
Q 1356 3278 1631 3431 
Q 1906 3584 2284 3584 
Q 2666 3584 2933 3390 
Q 3200 3197 3328 2828 
z
" transform="scale(0.015625)"/>
      </defs>
      <use xlink:href="#DejaVuSans-41"/>
      <use xlink:href="#DejaVuSans-76" x="62.533203"/>
      <use xlink:href="#DejaVuSans-65" x="121.712891"/>
      <use xlink:href="#DejaVuSans-72" x="183.236328"/>
      <use xlink:href="#DejaVuSans-61" x="224.349609"/>
      <use xlink:href="#DejaVuSans-67" x="285.628906"/>
      <use xlink:href="#DejaVuSans-65" x="349.105469"/>
      <use xlink:href="#DejaVuSans-20" x="410.628906"/>
      <use xlink:href="#DejaVuSans-64" x="442.416016"/>
      <use xlink:href="#DejaVuSans-69" x="505.892578"/>
      <use xlink:href="#DejaVuSans-73" x="533.675781"/>
      <use xlink:href="#DejaVuSans-63" x="585.775391"/>
      <use xlink:href="#DejaVuSans-72" x="640.755859"/>
      <use xlink:href="#DejaVuSans-69" x="681.869141"/>
      <use xlink:href="#DejaVuSans-6d" x="709.652344"/>
      <use xlink:href="#DejaVuSans-69" x="807.064453"/>
      <use xlink:href="#DejaVuSans-6e" x="834.847656"/>
      <use xlink:href="#DejaVuSans-61" x="898.226562"/>
      <use xlink:href="#DejaVuSans-74" x="959.505859"/>
      <use xlink:href="#DejaVuSans-6f" x="998.714844"/>
      <use xlink:href="#DejaVuSans-72" x="1059.896484"/>
      <use xlink:href="#DejaVuSans-20" x="1101.009766"/>
      <use xlink:href="#DejaVuSans-6c" x="1132.796875"/>
      <use xlink:href="#DejaVuSans-6f" x="1160.580078"/>
      <use xlink:href="#DejaVuSans-73" x="1221.761719"/>
      <use xlink:href="#DejaVuSans-73" x="1273.861328"/>
     </g>
    </g>
    <g id="line2d_34">
     <path d="M 245.124687 293.004312 
L 255.124687 293.004312 
L 265.124687 293.004312 
" style="fill: none; stroke: #ffff00; stroke-width: 3; stroke-linecap: square"/>
    </g>
    <g id="text_19">
     <!-- ROC AUC -->
     <g transform="translate(273.124687 296.504312) scale(0.1 -0.1)">
      <defs>
       <path id="DejaVuSans-52" d="M 2841 2188 
Q 3044 2119 3236 1894 
Q 3428 1669 3622 1275 
L 4263 0 
L 3584 0 
L 2988 1197 
Q 2756 1666 2539 1819 
Q 2322 1972 1947 1972 
L 1259 1972 
L 1259 0 
L 628 0 
L 628 4666 
L 2053 4666 
Q 2853 4666 3247 4331 
Q 3641 3997 3641 3322 
Q 3641 2881 3436 2590 
Q 3231 2300 2841 2188 
z
M 1259 4147 
L 1259 2491 
L 2053 2491 
Q 2509 2491 2742 2702 
Q 2975 2913 2975 3322 
Q 2975 3731 2742 3939 
Q 2509 4147 2053 4147 
L 1259 4147 
z
" transform="scale(0.015625)"/>
       <path id="DejaVuSans-4f" d="M 2522 4238 
Q 1834 4238 1429 3725 
Q 1025 3213 1025 2328 
Q 1025 1447 1429 934 
Q 1834 422 2522 422 
Q 3209 422 3611 934 
Q 4013 1447 4013 2328 
Q 4013 3213 3611 3725 
Q 3209 4238 2522 4238 
z
M 2522 4750 
Q 3503 4750 4090 4092 
Q 4678 3434 4678 2328 
Q 4678 1225 4090 567 
Q 3503 -91 2522 -91 
Q 1538 -91 948 565 
Q 359 1222 359 2328 
Q 359 3434 948 4092 
Q 1538 4750 2522 4750 
z
" transform="scale(0.015625)"/>
       <path id="DejaVuSans-43" d="M 4122 4306 
L 4122 3641 
Q 3803 3938 3442 4084 
Q 3081 4231 2675 4231 
Q 1875 4231 1450 3742 
Q 1025 3253 1025 2328 
Q 1025 1406 1450 917 
Q 1875 428 2675 428 
Q 3081 428 3442 575 
Q 3803 722 4122 1019 
L 4122 359 
Q 3791 134 3420 21 
Q 3050 -91 2638 -91 
Q 1578 -91 968 557 
Q 359 1206 359 2328 
Q 359 3453 968 4101 
Q 1578 4750 2638 4750 
Q 3056 4750 3426 4639 
Q 3797 4528 4122 4306 
z
" transform="scale(0.015625)"/>
       <path id="DejaVuSans-55" d="M 556 4666 
L 1191 4666 
L 1191 1831 
Q 1191 1081 1462 751 
Q 1734 422 2344 422 
Q 2950 422 3222 751 
Q 3494 1081 3494 1831 
L 3494 4666 
L 4128 4666 
L 4128 1753 
Q 4128 841 3676 375 
Q 3225 -91 2344 -91 
Q 1459 -91 1007 375 
Q 556 841 556 1753 
L 556 4666 
z
" transform="scale(0.015625)"/>
      </defs>
      <use xlink:href="#DejaVuSans-52"/>
      <use xlink:href="#DejaVuSans-4f" x="69.482422"/>
      <use xlink:href="#DejaVuSans-43" x="148.193359"/>
      <use xlink:href="#DejaVuSans-20" x="218.017578"/>
      <use xlink:href="#DejaVuSans-41" x="249.804688"/>
      <use xlink:href="#DejaVuSans-55" x="318.212891"/>
      <use xlink:href="#DejaVuSans-43" x="391.40625"/>
     </g>
    </g>
   </g>
  </g>
 </g>
 <defs>
  <clipPath id="pd4f1e425d3">
   <rect x="57.6" y="41.472" width="357.12" height="266.112"/>
  </clipPath>
 </defs>
</svg>
